<?xml version="1.0" encoding="UTF-8" standalone="no"?>
<!DOCTYPE svg PUBLIC "-//W3C//DTD SVG 1.1//EN"
 "http://www.w3.org/Graphics/SVG/1.1/DTD/svg11.dtd">
<!-- Generated by graphviz version 2.46.1 (20210213.1702)
 -->
<!-- Title: G Pages: 1 -->
<svg width="1376pt" height="440pt"
 viewBox="0.00 0.00 1376.00 440.00" xmlns="http://www.w3.org/2000/svg" xmlns:xlink="http://www.w3.org/1999/xlink">
<g id="graph0" class="graph" transform="scale(1 1) rotate(0) translate(4 436)">
<title>G</title>
<polygon fill="white" stroke="transparent" points="-4,4 -4,-436 1372,-436 1372,4 -4,4"/>
<g id="clust1" class="cluster">
<title>cluster_Signer</title>
<polygon fill="none" stroke="black" points="8,-8 8,-155 158,-155 158,-8 8,-8"/>
<text text-anchor="middle" x="83" y="-139.8" font-family="Times,serif" font-size="14.00">Signer</text>
</g>
<g id="clust2" class="cluster">
<title>cluster_Errors</title>
<polygon fill="none" stroke="black" points="639,-8 639,-155 1360,-155 1360,-8 639,-8"/>
<text text-anchor="middle" x="999.5" y="-139.8" font-family="Times,serif" font-size="14.00">Errors</text>
</g>
<g id="clust3" class="cluster">
<title>cluster_CoreAddresses</title>
<polygon fill="none" stroke="black" points="166,-80 166,-230 631,-230 631,-80 166,-80"/>
<text text-anchor="middle" x="398.5" y="-214.8" font-family="Times,serif" font-size="14.00">CoreAddresses</text>
</g>
<g id="clust4" class="cluster">
<title>cluster_DiemTimestamp</title>
<polygon fill="none" stroke="black" points="469,-238 469,-388 621,-388 621,-238 469,-238"/>
<text text-anchor="middle" x="545" y="-372.8" font-family="Times,serif" font-size="14.00">DiemTimestamp</text>
</g>
<g id="clust5" class="cluster">
<title>cluster_Roles</title>
<polygon fill="none" stroke="black" points="671,-238 671,-313 905,-313 905,-238 671,-238"/>
<text text-anchor="middle" x="788" y="-297.8" font-family="Times,serif" font-size="14.00">Roles</text>
</g>
<g id="clust6" class="cluster">
<title>cluster_Event</title>
<polygon fill="none" stroke="black" points="983,-238 983,-388 1169,-388 1169,-238 983,-238"/>
<text text-anchor="middle" x="1076" y="-372.8" font-family="Times,serif" font-size="14.00">Event</text>
</g>
<!-- freeze_account -->
<g id="node1" class="node">
<title>freeze_account</title>
<ellipse fill="none" stroke="black" cx="719" cy="-414" rx="63.89" ry="18"/>
<text text-anchor="middle" x="719" y="-410.3" font-family="Times,serif" font-size="14.00">freeze_account</text>
</g>
<!-- Signer::address_of -->
<g id="node2" class="node">
<title>Signer::address_of</title>
<ellipse fill="none" stroke="black" cx="101" cy="-106" rx="48.99" ry="18"/>
<text text-anchor="middle" x="101" y="-102.3" font-family="Times,serif" font-size="14.00">address_of</text>
</g>
<!-- freeze_account&#45;&gt;Signer::address_of -->
<g id="edge1" class="edge">
<title>freeze_account&#45;&gt;Signer::address_of</title>
<path fill="none" stroke="black" d="M655.54,-411.96C571.01,-409.96 426.29,-404.22 376,-388 248.39,-346.84 192.75,-341.97 119,-230 100.11,-201.33 97.75,-160.79 98.67,-134.21"/>
<polygon fill="black" stroke="black" points="102.17,-134.26 99.2,-124.09 95.18,-133.89 102.17,-134.26"/>
</g>
<!-- Errors::invalid_argument -->
<g id="node3" class="node">
<title>Errors::invalid_argument</title>
<ellipse fill="none" stroke="black" cx="1279" cy="-106" rx="73.39" ry="18"/>
<text text-anchor="middle" x="1279" y="-102.3" font-family="Times,serif" font-size="14.00">invalid_argument</text>
</g>
<!-- freeze_account&#45;&gt;Errors::invalid_argument -->
<g id="edge2" class="edge">
<title>freeze_account&#45;&gt;Errors::invalid_argument</title>
<path fill="none" stroke="black" d="M781.99,-411.26C808.65,-408.27 839.2,-401.75 864,-388 903.09,-366.33 903.98,-348.6 931,-313 954.93,-281.48 948.31,-262.99 979,-238 1059.07,-172.8 1102.79,-199.43 1196,-155 1212.55,-147.11 1230.22,-137.13 1244.99,-128.31"/>
<polygon fill="black" stroke="black" points="1247.02,-131.17 1253.77,-123 1243.4,-125.18 1247.02,-131.17"/>
</g>
<!-- Errors::not_published -->
<g id="node4" class="node">
<title>Errors::not_published</title>
<ellipse fill="none" stroke="black" cx="1127" cy="-106" rx="60.39" ry="18"/>
<text text-anchor="middle" x="1127" y="-102.3" font-family="Times,serif" font-size="14.00">not_published</text>
</g>
<!-- freeze_account&#45;&gt;Errors::not_published -->
<g id="edge3" class="edge">
<title>freeze_account&#45;&gt;Errors::not_published</title>
<path fill="none" stroke="black" d="M763.42,-401.03C806.88,-387.03 871.8,-359.62 909,-313 952.03,-259.07 895.88,-207.03 949,-163 967.53,-147.64 1034.29,-162.97 1057,-155 1072.82,-149.45 1088.4,-139.35 1100.83,-129.85"/>
<polygon fill="black" stroke="black" points="1103.25,-132.39 1108.9,-123.43 1098.89,-126.92 1103.25,-132.39"/>
</g>
<!-- CoreAddresses::DIEM_ROOT_ADDRESS -->
<g id="node5" class="node">
<title>CoreAddresses::DIEM_ROOT_ADDRESS</title>
<ellipse fill="none" stroke="black" cx="281" cy="-181" rx="106.68" ry="18"/>
<text text-anchor="middle" x="281" y="-177.3" font-family="Times,serif" font-size="14.00">DIEM_ROOT_ADDRESS</text>
</g>
<!-- freeze_account&#45;&gt;CoreAddresses::DIEM_ROOT_ADDRESS -->
<g id="edge4" class="edge">
<title>freeze_account&#45;&gt;CoreAddresses::DIEM_ROOT_ADDRESS</title>
<path fill="none" stroke="black" d="M655.54,-411.97C591.37,-410.02 497.2,-404.35 465,-388 383.8,-346.76 321.81,-253.34 295.22,-207.85"/>
<polygon fill="black" stroke="black" points="298.25,-206.09 290.23,-199.16 292.18,-209.58 298.25,-206.09"/>
</g>
<!-- CoreAddresses::TREASURY_COMPLIANCE_ADDRESS -->
<g id="node6" class="node">
<title>CoreAddresses::TREASURY_COMPLIANCE_ADDRESS</title>
<ellipse fill="none" stroke="black" cx="460" cy="-106" rx="163.27" ry="18"/>
<text text-anchor="middle" x="460" y="-102.3" font-family="Times,serif" font-size="14.00">TREASURY_COMPLIANCE_ADDRESS</text>
</g>
<!-- freeze_account&#45;&gt;CoreAddresses::TREASURY_COMPLIANCE_ADDRESS -->
<g id="edge5" class="edge">
<title>freeze_account&#45;&gt;CoreAddresses::TREASURY_COMPLIANCE_ADDRESS</title>
<path fill="none" stroke="black" d="M708.42,-395.91C696.79,-376.47 678.27,-343.46 667,-313 643.24,-248.8 678.29,-213.43 632,-163 614.85,-144.31 591.39,-131.84 567.32,-123.53"/>
<polygon fill="black" stroke="black" points="568.31,-120.17 557.72,-120.43 566.16,-126.83 568.31,-120.17"/>
</g>
<!-- DiemTimestamp::assert_operating -->
<g id="node7" class="node">
<title>DiemTimestamp::assert_operating</title>
<ellipse fill="none" stroke="black" cx="545" cy="-339" rx="68.49" ry="18"/>
<text text-anchor="middle" x="545" y="-335.3" font-family="Times,serif" font-size="14.00">assert_operating</text>
</g>
<!-- freeze_account&#45;&gt;DiemTimestamp::assert_operating -->
<g id="edge6" class="edge">
<title>freeze_account&#45;&gt;DiemTimestamp::assert_operating</title>
<path fill="none" stroke="black" d="M674.22,-400.98C661.99,-397.26 648.85,-392.85 637,-388 617.87,-380.17 597.4,-369.72 580.64,-360.56"/>
<polygon fill="black" stroke="black" points="582.19,-357.42 571.75,-355.64 578.8,-363.54 582.19,-357.42"/>
</g>
<!-- Roles::assert_treasury_compliance -->
<g id="node8" class="node">
<title>Roles::assert_treasury_compliance</title>
<ellipse fill="none" stroke="black" cx="788" cy="-264" rx="108.58" ry="18"/>
<text text-anchor="middle" x="788" y="-260.3" font-family="Times,serif" font-size="14.00">assert_treasury_compliance</text>
</g>
<!-- freeze_account&#45;&gt;Roles::assert_treasury_compliance -->
<g id="edge7" class="edge">
<title>freeze_account&#45;&gt;Roles::assert_treasury_compliance</title>
<path fill="none" stroke="black" d="M726.92,-396.02C738.86,-370.4 761.6,-321.63 775.71,-291.36"/>
<polygon fill="black" stroke="black" points="778.91,-292.78 779.96,-282.24 772.57,-289.82 778.91,-292.78"/>
</g>
<!-- Event::emit_event -->
<g id="node9" class="node">
<title>Event::emit_event</title>
<ellipse fill="none" stroke="black" cx="1058" cy="-339" rx="50.09" ry="18"/>
<text text-anchor="middle" x="1058" y="-335.3" font-family="Times,serif" font-size="14.00">emit_event</text>
</g>
<!-- freeze_account&#45;&gt;Event::emit_event -->
<g id="edge8" class="edge">
<title>freeze_account&#45;&gt;Event::emit_event</title>
<path fill="none" stroke="black" d="M781.42,-410.07C845.91,-406.5 941.92,-399.46 977,-388 995.4,-381.99 1014.11,-371.27 1028.91,-361.48"/>
<polygon fill="black" stroke="black" points="1031.29,-364.09 1037.57,-355.56 1027.34,-358.31 1031.29,-364.09"/>
</g>
<!-- Signer::borrow_address -->
<g id="node10" class="node">
<title>Signer::borrow_address</title>
<ellipse fill="none" stroke="black" cx="83" cy="-34" rx="66.89" ry="18"/>
<text text-anchor="middle" x="83" y="-30.3" font-family="Times,serif" font-size="14.00">borrow_address</text>
</g>
<!-- Signer::address_of&#45;&gt;Signer::borrow_address -->
<g id="edge9" class="edge">
<title>Signer::address_of&#45;&gt;Signer::borrow_address</title>
<path fill="none" stroke="black" d="M96.64,-88.05C94.64,-80.26 92.21,-70.82 89.96,-62.08"/>
<polygon fill="black" stroke="black" points="93.32,-61.09 87.44,-52.28 86.54,-62.83 93.32,-61.09"/>
</g>
<!-- Errors::make -->
<g id="node11" class="node">
<title>Errors::make</title>
<ellipse fill="none" stroke="black" cx="991" cy="-34" rx="30.59" ry="18"/>
<text text-anchor="middle" x="991" y="-30.3" font-family="Times,serif" font-size="14.00">make</text>
</g>
<!-- Errors::invalid_argument&#45;&gt;Errors::make -->
<g id="edge10" class="edge">
<title>Errors::invalid_argument&#45;&gt;Errors::make</title>
<path fill="none" stroke="black" d="M1235.67,-91.27C1222.94,-87.42 1208.96,-83.37 1196,-80 1138.46,-65.04 1070.98,-50.87 1029.62,-42.56"/>
<polygon fill="black" stroke="black" points="1030.18,-39.1 1019.68,-40.58 1028.81,-45.97 1030.18,-39.1"/>
</g>
<!-- Errors::not_published&#45;&gt;Errors::make -->
<g id="edge11" class="edge">
<title>Errors::not_published&#45;&gt;Errors::make</title>
<path fill="none" stroke="black" d="M1098.16,-90.15C1075.95,-78.73 1045.3,-62.95 1022.47,-51.2"/>
<polygon fill="black" stroke="black" points="1024.01,-48.05 1013.51,-46.59 1020.8,-54.28 1024.01,-48.05"/>
</g>
<!-- Errors::invalid_state -->
<g id="node12" class="node">
<title>Errors::invalid_state</title>
<ellipse fill="none" stroke="black" cx="860" cy="-106" rx="55.79" ry="18"/>
<text text-anchor="middle" x="860" y="-102.3" font-family="Times,serif" font-size="14.00">invalid_state</text>
</g>
<!-- DiemTimestamp::assert_operating&#45;&gt;Errors::invalid_state -->
<g id="edge12" class="edge">
<title>DiemTimestamp::assert_operating&#45;&gt;Errors::invalid_state</title>
<path fill="none" stroke="black" d="M577.78,-323.17C583.39,-320.11 589,-316.68 594,-313 631.44,-285.39 630.99,-267.44 667,-238 719.78,-194.85 740.03,-193.92 796,-155 807.81,-146.79 820.55,-137.36 831.52,-129.05"/>
<polygon fill="black" stroke="black" points="833.69,-131.79 839.52,-122.95 829.45,-126.22 833.69,-131.79"/>
</g>
<!-- DiemTimestamp::is_operating -->
<g id="node13" class="node">
<title>DiemTimestamp::is_operating</title>
<ellipse fill="none" stroke="black" cx="531" cy="-264" rx="53.89" ry="18"/>
<text text-anchor="middle" x="531" y="-260.3" font-family="Times,serif" font-size="14.00">is_operating</text>
</g>
<!-- DiemTimestamp::assert_operating&#45;&gt;DiemTimestamp::is_operating -->
<g id="edge13" class="edge">
<title>DiemTimestamp::assert_operating&#45;&gt;DiemTimestamp::is_operating</title>
<path fill="none" stroke="black" d="M541.68,-320.7C540.04,-312.15 538.03,-301.65 536.19,-292.07"/>
<polygon fill="black" stroke="black" points="539.61,-291.34 534.29,-282.18 532.74,-292.66 539.61,-291.34"/>
</g>
<!-- Roles::assert_treasury_compliance&#45;&gt;Signer::address_of -->
<g id="edge14" class="edge">
<title>Roles::assert_treasury_compliance&#45;&gt;Signer::address_of</title>
<path fill="none" stroke="black" d="M718.05,-250.15C689.32,-245.43 655.67,-240.6 625,-238 612.18,-236.91 172.87,-236.87 162,-230 144.47,-218.92 122.59,-166.08 110.37,-133.36"/>
<polygon fill="black" stroke="black" points="113.64,-132.11 106.9,-123.93 107.07,-134.52 113.64,-132.11"/>
</g>
<!-- Roles::assert_treasury_compliance&#45;&gt;Errors::not_published -->
<g id="edge15" class="edge">
<title>Roles::assert_treasury_compliance&#45;&gt;Errors::not_published</title>
<path fill="none" stroke="black" d="M818.84,-246.7C827.28,-241.75 836.24,-236.01 844,-230 877.3,-204.22 872.55,-180.17 911,-163 940.67,-149.75 1026.24,-165.46 1057,-155 1072.98,-149.56 1088.68,-139.38 1101.14,-129.79"/>
<polygon fill="black" stroke="black" points="1103.61,-132.29 1109.22,-123.31 1099.23,-126.83 1103.61,-132.29"/>
</g>
<!-- Errors::requires_role -->
<g id="node14" class="node">
<title>Errors::requires_role</title>
<ellipse fill="none" stroke="black" cx="991" cy="-106" rx="57.39" ry="18"/>
<text text-anchor="middle" x="991" y="-102.3" font-family="Times,serif" font-size="14.00">requires_role</text>
</g>
<!-- Roles::assert_treasury_compliance&#45;&gt;Errors::requires_role -->
<g id="edge16" class="edge">
<title>Roles::assert_treasury_compliance&#45;&gt;Errors::requires_role</title>
<path fill="none" stroke="black" d="M794.69,-245.81C804.67,-222.7 825.82,-182.27 858,-163 883.73,-147.6 897.08,-165.95 925,-155 939.75,-149.21 954.21,-139.32 965.82,-130.01"/>
<polygon fill="black" stroke="black" points="968.3,-132.5 973.73,-123.41 963.81,-127.13 968.3,-132.5"/>
</g>
<!-- CoreAddresses::assert_treasury_compliance -->
<g id="node15" class="node">
<title>CoreAddresses::assert_treasury_compliance</title>
<ellipse fill="none" stroke="black" cx="514" cy="-181" rx="108.58" ry="18"/>
<text text-anchor="middle" x="514" y="-177.3" font-family="Times,serif" font-size="14.00">assert_treasury_compliance</text>
</g>
<!-- Roles::assert_treasury_compliance&#45;&gt;CoreAddresses::assert_treasury_compliance -->
<g id="edge17" class="edge">
<title>Roles::assert_treasury_compliance&#45;&gt;CoreAddresses::assert_treasury_compliance</title>
<path fill="none" stroke="black" d="M737.42,-248.05C691.42,-234.45 623.44,-214.35 574.56,-199.9"/>
<polygon fill="black" stroke="black" points="575.33,-196.48 564.74,-197 573.34,-203.19 575.33,-196.48"/>
</g>
<!-- Event::write_to_event_store -->
<g id="node16" class="node">
<title>Event::write_to_event_store</title>
<ellipse fill="none" stroke="black" cx="1076" cy="-264" rx="85.29" ry="18"/>
<text text-anchor="middle" x="1076" y="-260.3" font-family="Times,serif" font-size="14.00">write_to_event_store</text>
</g>
<!-- Event::emit_event&#45;&gt;Event::write_to_event_store -->
<g id="edge18" class="edge">
<title>Event::emit_event&#45;&gt;Event::write_to_event_store</title>
<path fill="none" stroke="black" d="M1062.27,-320.7C1064.37,-312.15 1066.96,-301.65 1069.33,-292.07"/>
<polygon fill="black" stroke="black" points="1072.77,-292.72 1071.76,-282.18 1065.97,-291.05 1072.77,-292.72"/>
</g>
<!-- Errors::invalid_state&#45;&gt;Errors::make -->
<g id="edge19" class="edge">
<title>Errors::invalid_state&#45;&gt;Errors::make</title>
<path fill="none" stroke="black" d="M887.78,-90.15C908.94,-78.85 938.07,-63.28 959.99,-51.57"/>
<polygon fill="black" stroke="black" points="961.73,-54.61 968.9,-46.81 958.43,-48.44 961.73,-54.61"/>
</g>
<!-- DiemTimestamp::is_operating&#45;&gt;CoreAddresses::DIEM_ROOT_ADDRESS -->
<g id="edge20" class="edge">
<title>DiemTimestamp::is_operating&#45;&gt;CoreAddresses::DIEM_ROOT_ADDRESS</title>
<path fill="none" stroke="black" d="M486.12,-253.87C459.62,-248.02 425.57,-239.72 396,-230 372.12,-222.15 346.22,-211.54 325.06,-202.29"/>
<polygon fill="black" stroke="black" points="326.26,-198.99 315.7,-198.15 323.43,-205.39 326.26,-198.99"/>
</g>
<!-- Errors::requires_role&#45;&gt;Errors::make -->
<g id="edge21" class="edge">
<title>Errors::requires_role&#45;&gt;Errors::make</title>
<path fill="none" stroke="black" d="M991,-87.7C991,-79.98 991,-70.71 991,-62.11"/>
<polygon fill="black" stroke="black" points="994.5,-62.1 991,-52.1 987.5,-62.1 994.5,-62.1"/>
</g>
<!-- CoreAddresses::assert_treasury_compliance&#45;&gt;Signer::address_of -->
<g id="edge22" class="edge">
<title>CoreAddresses::assert_treasury_compliance&#45;&gt;Signer::address_of</title>
<path fill="none" stroke="black" d="M439.25,-167.89C425.24,-165.97 410.7,-164.22 397,-163 370.98,-160.67 186.54,-163.97 162,-155 147.68,-149.77 134.1,-139.78 123.4,-130.27"/>
<polygon fill="black" stroke="black" points="125.52,-127.45 115.82,-123.17 120.73,-132.56 125.52,-127.45"/>
</g>
<!-- CoreAddresses::assert_treasury_compliance&#45;&gt;CoreAddresses::TREASURY_COMPLIANCE_ADDRESS -->
<g id="edge24" class="edge">
<title>CoreAddresses::assert_treasury_compliance&#45;&gt;CoreAddresses::TREASURY_COMPLIANCE_ADDRESS</title>
<path fill="none" stroke="black" d="M501.48,-163.07C494.71,-153.92 486.22,-142.45 478.69,-132.26"/>
<polygon fill="black" stroke="black" points="481.4,-130.05 472.64,-124.09 475.78,-134.21 481.4,-130.05"/>
</g>
<!-- Errors::requires_address -->
<g id="node17" class="node">
<title>Errors::requires_address</title>
<ellipse fill="none" stroke="black" cx="717" cy="-106" rx="69.59" ry="18"/>
<text text-anchor="middle" x="717" y="-102.3" font-family="Times,serif" font-size="14.00">requires_address</text>
</g>
<!-- CoreAddresses::assert_treasury_compliance&#45;&gt;Errors::requires_address -->
<g id="edge23" class="edge">
<title>CoreAddresses::assert_treasury_compliance&#45;&gt;Errors::requires_address</title>
<path fill="none" stroke="black" d="M590.29,-168.18C605.36,-164.75 620.88,-160.42 635,-155 652.47,-148.29 670.56,-138.1 685.29,-128.83"/>
<polygon fill="black" stroke="black" points="687.49,-131.58 693.99,-123.22 683.69,-125.7 687.49,-131.58"/>
</g>
<!-- Errors::requires_address&#45;&gt;Errors::make -->
<g id="edge25" class="edge">
<title>Errors::requires_address&#45;&gt;Errors::make</title>
<path fill="none" stroke="black" d="M757.69,-91.24C769.65,-87.39 782.8,-83.35 795,-80 849.35,-65.08 913.1,-51.08 952.78,-42.77"/>
<polygon fill="black" stroke="black" points="953.5,-46.2 962.57,-40.74 952.07,-39.35 953.5,-46.2"/>
</g>
</g>
</svg>
