<?xml version="1.0" encoding="UTF-8" standalone="no"?>
<!DOCTYPE svg PUBLIC "-//W3C//DTD SVG 1.1//EN"
 "http://www.w3.org/Graphics/SVG/1.1/DTD/svg11.dtd">
<!-- Generated by graphviz version 2.46.1 (20210213.1702)
 -->
<!-- Title: G Pages: 1 -->
<svg width="977pt" height="373pt"
 viewBox="0.00 0.00 977.00 373.00" xmlns="http://www.w3.org/2000/svg" xmlns:xlink="http://www.w3.org/1999/xlink">
<g id="graph0" class="graph" transform="scale(1 1) rotate(0) translate(4 369)">
<title>G</title>
<polygon fill="white" stroke="transparent" points="-4,4 -4,-369 973,-369 973,4 -4,4"/>
<g id="clust1" class="cluster">
<title>cluster_DiemTimestamp</title>
<polygon fill="none" stroke="black" points="238,-163 238,-321 376,-321 376,-163 238,-163"/>
<text text-anchor="middle" x="307" y="-305.8" font-family="Times,serif" font-size="14.00">DiemTimestamp</text>
</g>
<g id="clust2" class="cluster">
<title>cluster_Roles</title>
<polygon fill="none" stroke="black" points="384,-246 384,-321 542,-321 542,-246 384,-246"/>
<text text-anchor="middle" x="463" y="-305.8" font-family="Times,serif" font-size="14.00">Roles</text>
</g>
<g id="clust3" class="cluster">
<title>cluster_Errors</title>
<polygon fill="none" stroke="black" points="8,-8 8,-155 565,-155 565,-8 8,-8"/>
<text text-anchor="middle" x="286.5" y="-139.8" font-family="Times,serif" font-size="14.00">Errors</text>
</g>
<g id="clust4" class="cluster">
<title>cluster_Signer</title>
<polygon fill="none" stroke="black" points="811,-8 811,-155 961,-155 961,-8 811,-8"/>
<text text-anchor="middle" x="886" y="-139.8" font-family="Times,serif" font-size="14.00">Signer</text>
</g>
<g id="clust5" class="cluster">
<title>cluster_CoreAddresses</title>
<polygon fill="none" stroke="black" points="573,-80 573,-238 803,-238 803,-80 573,-80"/>
<text text-anchor="middle" x="688" y="-222.8" font-family="Times,serif" font-size="14.00">CoreAddresses</text>
</g>
<!-- grant_mutation_capability -->
<g id="node1" class="node">
<title>grant_mutation_capability</title>
<ellipse fill="none" stroke="black" cx="385" cy="-347" rx="103.98" ry="18"/>
<text text-anchor="middle" x="385" y="-343.3" font-family="Times,serif" font-size="14.00">grant_mutation_capability</text>
</g>
<!-- DiemTimestamp::assert_genesis -->
<g id="node2" class="node">
<title>DiemTimestamp::assert_genesis</title>
<ellipse fill="none" stroke="black" cx="307" cy="-272" rx="61.19" ry="18"/>
<text text-anchor="middle" x="307" y="-268.3" font-family="Times,serif" font-size="14.00">assert_genesis</text>
</g>
<!-- grant_mutation_capability&#45;&gt;DiemTimestamp::assert_genesis -->
<g id="edge1" class="edge">
<title>grant_mutation_capability&#45;&gt;DiemTimestamp::assert_genesis</title>
<path fill="none" stroke="black" d="M366.91,-329.07C356.52,-319.35 343.33,-307 331.97,-296.37"/>
<polygon fill="black" stroke="black" points="334.15,-293.61 324.46,-289.34 329.37,-298.73 334.15,-293.61"/>
</g>
<!-- Roles::assert_diem_root -->
<g id="node3" class="node">
<title>Roles::assert_diem_root</title>
<ellipse fill="none" stroke="black" cx="463" cy="-272" rx="71.49" ry="18"/>
<text text-anchor="middle" x="463" y="-268.3" font-family="Times,serif" font-size="14.00">assert_diem_root</text>
</g>
<!-- grant_mutation_capability&#45;&gt;Roles::assert_diem_root -->
<g id="edge2" class="edge">
<title>grant_mutation_capability&#45;&gt;Roles::assert_diem_root</title>
<path fill="none" stroke="black" d="M403.09,-329.07C413.4,-319.42 426.48,-307.18 437.79,-296.6"/>
<polygon fill="black" stroke="black" points="440.37,-298.98 445.28,-289.59 435.58,-293.87 440.37,-298.98"/>
</g>
<!-- Errors::invalid_state -->
<g id="node4" class="node">
<title>Errors::invalid_state</title>
<ellipse fill="none" stroke="black" cx="72" cy="-106" rx="55.79" ry="18"/>
<text text-anchor="middle" x="72" y="-102.3" font-family="Times,serif" font-size="14.00">invalid_state</text>
</g>
<!-- DiemTimestamp::assert_genesis&#45;&gt;Errors::invalid_state -->
<g id="edge3" class="edge">
<title>DiemTimestamp::assert_genesis&#45;&gt;Errors::invalid_state</title>
<path fill="none" stroke="black" d="M283.54,-255.26C275.44,-249.81 266.31,-243.65 258,-238 204.07,-201.34 190.13,-192.82 137,-155 125.16,-146.57 112.26,-137.11 101.09,-128.82"/>
<polygon fill="black" stroke="black" points="103.05,-125.91 92.94,-122.75 98.87,-131.53 103.05,-125.91"/>
</g>
<!-- DiemTimestamp::is_genesis -->
<g id="node5" class="node">
<title>DiemTimestamp::is_genesis</title>
<ellipse fill="none" stroke="black" cx="314" cy="-189" rx="46.59" ry="18"/>
<text text-anchor="middle" x="314" y="-185.3" font-family="Times,serif" font-size="14.00">is_genesis</text>
</g>
<!-- DiemTimestamp::assert_genesis&#45;&gt;DiemTimestamp::is_genesis -->
<g id="edge4" class="edge">
<title>DiemTimestamp::assert_genesis&#45;&gt;DiemTimestamp::is_genesis</title>
<path fill="none" stroke="black" d="M308.48,-253.82C309.4,-243.19 310.6,-229.31 311.65,-217.2"/>
<polygon fill="black" stroke="black" points="315.14,-217.42 312.52,-207.15 308.17,-216.81 315.14,-217.42"/>
</g>
<!-- Signer::address_of -->
<g id="node6" class="node">
<title>Signer::address_of</title>
<ellipse fill="none" stroke="black" cx="868" cy="-106" rx="48.99" ry="18"/>
<text text-anchor="middle" x="868" y="-102.3" font-family="Times,serif" font-size="14.00">address_of</text>
</g>
<!-- Roles::assert_diem_root&#45;&gt;Signer::address_of -->
<g id="edge5" class="edge">
<title>Roles::assert_diem_root&#45;&gt;Signer::address_of</title>
<path fill="none" stroke="black" d="M532.88,-267.99C626.96,-263.37 785.17,-253.43 807,-238 841.45,-213.65 856.96,-164.76 863.55,-134.08"/>
<polygon fill="black" stroke="black" points="867.03,-134.54 865.53,-124.06 860.16,-133.19 867.03,-134.54"/>
</g>
<!-- Errors::not_published -->
<g id="node7" class="node">
<title>Errors::not_published</title>
<ellipse fill="none" stroke="black" cx="206" cy="-106" rx="60.39" ry="18"/>
<text text-anchor="middle" x="206" y="-102.3" font-family="Times,serif" font-size="14.00">not_published</text>
</g>
<!-- Roles::assert_diem_root&#45;&gt;Errors::not_published -->
<g id="edge6" class="edge">
<title>Roles::assert_diem_root&#45;&gt;Errors::not_published</title>
<path fill="none" stroke="black" d="M430.64,-255.92C422.76,-251.07 414.91,-245.08 409,-238 386.1,-210.56 408.68,-184.32 380,-163 361.4,-149.17 297.86,-162.71 276,-155 260.19,-149.43 244.61,-139.33 232.18,-129.83"/>
<polygon fill="black" stroke="black" points="234.11,-126.9 224.11,-123.41 229.76,-132.37 234.11,-126.9"/>
</g>
<!-- Errors::requires_role -->
<g id="node8" class="node">
<title>Errors::requires_role</title>
<ellipse fill="none" stroke="black" cx="342" cy="-106" rx="57.39" ry="18"/>
<text text-anchor="middle" x="342" y="-102.3" font-family="Times,serif" font-size="14.00">requires_role</text>
</g>
<!-- Roles::assert_diem_root&#45;&gt;Errors::requires_role -->
<g id="edge7" class="edge">
<title>Roles::assert_diem_root&#45;&gt;Errors::requires_role</title>
<path fill="none" stroke="black" d="M457.04,-254.05C448.63,-231.68 431.76,-191.77 409,-163 398.91,-150.25 385.52,-138.35 373.36,-128.83"/>
<polygon fill="black" stroke="black" points="375.28,-125.89 365.19,-122.64 371.05,-131.47 375.28,-125.89"/>
</g>
<!-- CoreAddresses::assert_diem_root -->
<g id="node9" class="node">
<title>CoreAddresses::assert_diem_root</title>
<ellipse fill="none" stroke="black" cx="670" cy="-189" rx="71.49" ry="18"/>
<text text-anchor="middle" x="670" y="-185.3" font-family="Times,serif" font-size="14.00">assert_diem_root</text>
</g>
<!-- Roles::assert_diem_root&#45;&gt;CoreAddresses::assert_diem_root -->
<g id="edge8" class="edge">
<title>Roles::assert_diem_root&#45;&gt;CoreAddresses::assert_diem_root</title>
<path fill="none" stroke="black" d="M500.01,-256.52C534.49,-243.03 586.04,-222.85 623.33,-208.26"/>
<polygon fill="black" stroke="black" points="624.93,-211.4 632.96,-204.49 622.38,-204.88 624.93,-211.4"/>
</g>
<!-- Errors::make -->
<g id="node10" class="node">
<title>Errors::make</title>
<ellipse fill="none" stroke="black" cx="274" cy="-34" rx="30.59" ry="18"/>
<text text-anchor="middle" x="274" y="-30.3" font-family="Times,serif" font-size="14.00">make</text>
</g>
<!-- Errors::invalid_state&#45;&gt;Errors::make -->
<g id="edge9" class="edge">
<title>Errors::invalid_state&#45;&gt;Errors::make</title>
<path fill="none" stroke="black" d="M105.95,-91.57C115.92,-87.73 126.86,-83.61 137,-80 171.03,-67.88 210.21,-55.13 237.94,-46.3"/>
<polygon fill="black" stroke="black" points="239.13,-49.6 247.6,-43.24 237.01,-42.93 239.13,-49.6"/>
</g>
<!-- CoreAddresses::DIEM_ROOT_ADDRESS -->
<g id="node11" class="node">
<title>CoreAddresses::DIEM_ROOT_ADDRESS</title>
<ellipse fill="none" stroke="black" cx="688" cy="-106" rx="106.68" ry="18"/>
<text text-anchor="middle" x="688" y="-102.3" font-family="Times,serif" font-size="14.00">DIEM_ROOT_ADDRESS</text>
</g>
<!-- DiemTimestamp::is_genesis&#45;&gt;CoreAddresses::DIEM_ROOT_ADDRESS -->
<g id="edge10" class="edge">
<title>DiemTimestamp::is_genesis&#45;&gt;CoreAddresses::DIEM_ROOT_ADDRESS</title>
<path fill="none" stroke="black" d="M360.28,-185.56C411.89,-182.02 497.53,-173.71 569,-155 595.12,-148.16 623.17,-137.04 645.48,-127.23"/>
<polygon fill="black" stroke="black" points="646.97,-130.39 654.67,-123.12 644.11,-124.01 646.97,-130.39"/>
</g>
<!-- Signer::borrow_address -->
<g id="node12" class="node">
<title>Signer::borrow_address</title>
<ellipse fill="none" stroke="black" cx="886" cy="-34" rx="66.89" ry="18"/>
<text text-anchor="middle" x="886" y="-30.3" font-family="Times,serif" font-size="14.00">borrow_address</text>
</g>
<!-- Signer::address_of&#45;&gt;Signer::borrow_address -->
<g id="edge11" class="edge">
<title>Signer::address_of&#45;&gt;Signer::borrow_address</title>
<path fill="none" stroke="black" d="M872.36,-88.05C874.36,-80.26 876.79,-70.82 879.04,-62.08"/>
<polygon fill="black" stroke="black" points="882.46,-62.83 881.56,-52.28 875.68,-61.09 882.46,-62.83"/>
</g>
<!-- Errors::not_published&#45;&gt;Errors::make -->
<g id="edge12" class="edge">
<title>Errors::not_published&#45;&gt;Errors::make</title>
<path fill="none" stroke="black" d="M222.12,-88.41C231.13,-79.13 242.49,-67.44 252.28,-57.36"/>
<polygon fill="black" stroke="black" points="254.93,-59.65 259.39,-50.04 249.91,-54.77 254.93,-59.65"/>
</g>
<!-- Errors::requires_role&#45;&gt;Errors::make -->
<g id="edge13" class="edge">
<title>Errors::requires_role&#45;&gt;Errors::make</title>
<path fill="none" stroke="black" d="M325.88,-88.41C316.87,-79.13 305.51,-67.44 295.72,-57.36"/>
<polygon fill="black" stroke="black" points="298.09,-54.77 288.61,-50.04 293.07,-59.65 298.09,-54.77"/>
</g>
<!-- CoreAddresses::assert_diem_root&#45;&gt;Signer::address_of -->
<g id="edge14" class="edge">
<title>CoreAddresses::assert_diem_root&#45;&gt;Signer::address_of</title>
<path fill="none" stroke="black" d="M730.25,-179.29C754.87,-174.27 783.12,-166.58 807,-155 820.33,-148.53 833.47,-138.77 844.11,-129.73"/>
<polygon fill="black" stroke="black" points="846.54,-132.26 851.73,-123.02 841.91,-127 846.54,-132.26"/>
</g>
<!-- CoreAddresses::assert_diem_root&#45;&gt;CoreAddresses::DIEM_ROOT_ADDRESS -->
<g id="edge16" class="edge">
<title>CoreAddresses::assert_diem_root&#45;&gt;CoreAddresses::DIEM_ROOT_ADDRESS</title>
<path fill="none" stroke="black" d="M673.82,-170.82C676.18,-160.19 679.27,-146.31 681.95,-134.2"/>
<polygon fill="black" stroke="black" points="685.44,-134.67 684.19,-124.15 678.6,-133.16 685.44,-134.67"/>
</g>
<!-- Errors::requires_address -->
<g id="node13" class="node">
<title>Errors::requires_address</title>
<ellipse fill="none" stroke="black" cx="487" cy="-106" rx="69.59" ry="18"/>
<text text-anchor="middle" x="487" y="-102.3" font-family="Times,serif" font-size="14.00">requires_address</text>
</g>
<!-- CoreAddresses::assert_diem_root&#45;&gt;Errors::requires_address -->
<g id="edge15" class="edge">
<title>CoreAddresses::assert_diem_root&#45;&gt;Errors::requires_address</title>
<path fill="none" stroke="black" d="M623.71,-175.16C606.25,-169.73 586.41,-162.83 569,-155 552.18,-147.43 534.41,-137.32 519.73,-128.33"/>
<polygon fill="black" stroke="black" points="521.37,-125.23 511.03,-122.91 517.67,-131.17 521.37,-125.23"/>
</g>
<!-- Errors::requires_address&#45;&gt;Errors::make -->
<g id="edge17" class="edge">
<title>Errors::requires_address&#45;&gt;Errors::make</title>
<path fill="none" stroke="black" d="M445.68,-91.42C406.14,-78.43 347.14,-59.04 309.62,-46.71"/>
<polygon fill="black" stroke="black" points="310.7,-43.38 300.11,-43.58 308.51,-50.03 310.7,-43.38"/>
</g>
</g>
</svg>
