<?xml version="1.0" encoding="UTF-8" standalone="no"?>
<!DOCTYPE svg PUBLIC "-//W3C//DTD SVG 1.1//EN"
 "http://www.w3.org/Graphics/SVG/1.1/DTD/svg11.dtd">
<!-- Generated by graphviz version 2.46.1 (20210213.1702)
 -->
<!-- Title: G Pages: 1 -->
<svg width="452pt" height="365pt"
 viewBox="0.00 0.00 452.00 365.00" xmlns="http://www.w3.org/2000/svg" xmlns:xlink="http://www.w3.org/1999/xlink">
<g id="graph0" class="graph" transform="scale(1 1) rotate(0) translate(4 361)">
<title>G</title>
<polygon fill="white" stroke="transparent" points="-4,4 -4,-361 448,-361 448,4 -4,4"/>
<g id="clust1" class="cluster">
<title>cluster_DiemTimestamp</title>
<polygon fill="none" stroke="black" points="144,-91 144,-313 430,-313 430,-91 144,-91"/>
<text text-anchor="middle" x="287" y="-297.8" font-family="Times,serif" font-size="14.00">DiemTimestamp</text>
</g>
<g id="clust2" class="cluster">
<title>cluster_CoreAddresses</title>
<polygon fill="none" stroke="black" points="206,-8 206,-83 436,-83 436,-8 206,-8"/>
<text text-anchor="middle" x="321" y="-67.8" font-family="Times,serif" font-size="14.00">CoreAddresses</text>
</g>
<g id="clust3" class="cluster">
<title>cluster_Errors</title>
<polygon fill="none" stroke="black" points="8,-8 8,-166 136,-166 136,-8 8,-8"/>
<text text-anchor="middle" x="72" y="-150.8" font-family="Times,serif" font-size="14.00">Errors</text>
</g>
<!-- current_time -->
<g id="node1" class="node">
<title>current_time</title>
<ellipse fill="none" stroke="black" cx="303" cy="-339" rx="55.79" ry="18"/>
<text text-anchor="middle" x="303" y="-335.3" font-family="Times,serif" font-size="14.00">current_time</text>
</g>
<!-- DiemTimestamp::is_genesis -->
<g id="node2" class="node">
<title>DiemTimestamp::is_genesis</title>
<ellipse fill="none" stroke="black" cx="375" cy="-264" rx="46.59" ry="18"/>
<text text-anchor="middle" x="375" y="-260.3" font-family="Times,serif" font-size="14.00">is_genesis</text>
</g>
<!-- current_time&#45;&gt;DiemTimestamp::is_genesis -->
<g id="edge1" class="edge">
<title>current_time&#45;&gt;DiemTimestamp::is_genesis</title>
<path fill="none" stroke="black" d="M319.34,-321.44C329.05,-311.59 341.51,-298.96 352.18,-288.14"/>
<polygon fill="black" stroke="black" points="354.69,-290.58 359.22,-281 349.71,-285.66 354.69,-290.58"/>
</g>
<!-- DiemTimestamp::now_microseconds -->
<g id="node3" class="node">
<title>DiemTimestamp::now_microseconds</title>
<ellipse fill="none" stroke="black" cx="231" cy="-264" rx="79.09" ry="18"/>
<text text-anchor="middle" x="231" y="-260.3" font-family="Times,serif" font-size="14.00">now_microseconds</text>
</g>
<!-- current_time&#45;&gt;DiemTimestamp::now_microseconds -->
<g id="edge2" class="edge">
<title>current_time&#45;&gt;DiemTimestamp::now_microseconds</title>
<path fill="none" stroke="black" d="M286.66,-321.44C277.25,-311.89 265.24,-299.72 254.8,-289.13"/>
<polygon fill="black" stroke="black" points="257.04,-286.41 247.52,-281.75 252.05,-291.33 257.04,-286.41"/>
</g>
<!-- CoreAddresses::DIEM_ROOT_ADDRESS -->
<g id="node4" class="node">
<title>CoreAddresses::DIEM_ROOT_ADDRESS</title>
<ellipse fill="none" stroke="black" cx="321" cy="-34" rx="106.68" ry="18"/>
<text text-anchor="middle" x="321" y="-30.3" font-family="Times,serif" font-size="14.00">DIEM_ROOT_ADDRESS</text>
</g>
<!-- DiemTimestamp::is_genesis&#45;&gt;CoreAddresses::DIEM_ROOT_ADDRESS -->
<g id="edge3" class="edge">
<title>DiemTimestamp::is_genesis&#45;&gt;CoreAddresses::DIEM_ROOT_ADDRESS</title>
<path fill="none" stroke="black" d="M371.12,-245.89C364.08,-214.94 348.66,-147.63 335,-91 332.71,-81.52 330.14,-71.15 327.83,-61.94"/>
<polygon fill="black" stroke="black" points="331.2,-60.98 325.36,-52.14 324.41,-62.69 331.2,-60.98"/>
</g>
<!-- DiemTimestamp::now_microseconds&#45;&gt;CoreAddresses::DIEM_ROOT_ADDRESS -->
<g id="edge4" class="edge">
<title>DiemTimestamp::now_microseconds&#45;&gt;CoreAddresses::DIEM_ROOT_ADDRESS</title>
<path fill="none" stroke="black" d="M262.44,-247.37C276.94,-238.47 292.92,-225.9 302,-210 328.57,-163.46 327.66,-98.57 324.44,-62.3"/>
<polygon fill="black" stroke="black" points="327.89,-61.61 323.4,-52.02 320.93,-62.32 327.89,-61.61"/>
</g>
<!-- DiemTimestamp::assert_operating -->
<g id="node5" class="node">
<title>DiemTimestamp::assert_operating</title>
<ellipse fill="none" stroke="black" cx="225" cy="-192" rx="68.49" ry="18"/>
<text text-anchor="middle" x="225" y="-188.3" font-family="Times,serif" font-size="14.00">assert_operating</text>
</g>
<!-- DiemTimestamp::now_microseconds&#45;&gt;DiemTimestamp::assert_operating -->
<g id="edge5" class="edge">
<title>DiemTimestamp::now_microseconds&#45;&gt;DiemTimestamp::assert_operating</title>
<path fill="none" stroke="black" d="M229.52,-245.7C228.86,-237.98 228.06,-228.71 227.32,-220.11"/>
<polygon fill="black" stroke="black" points="230.81,-219.77 226.47,-210.1 223.83,-220.37 230.81,-219.77"/>
</g>
<!-- Errors::invalid_state -->
<g id="node6" class="node">
<title>Errors::invalid_state</title>
<ellipse fill="none" stroke="black" cx="72" cy="-117" rx="55.79" ry="18"/>
<text text-anchor="middle" x="72" y="-113.3" font-family="Times,serif" font-size="14.00">invalid_state</text>
</g>
<!-- DiemTimestamp::assert_operating&#45;&gt;Errors::invalid_state -->
<g id="edge6" class="edge">
<title>DiemTimestamp::assert_operating&#45;&gt;Errors::invalid_state</title>
<path fill="none" stroke="black" d="M175.42,-179.39C163.53,-175.81 151.08,-171.36 140,-166 125.76,-159.12 111.27,-149.35 99.34,-140.42"/>
<polygon fill="black" stroke="black" points="101.21,-137.44 91.15,-134.11 96.95,-142.99 101.21,-137.44"/>
</g>
<!-- DiemTimestamp::is_operating -->
<g id="node7" class="node">
<title>DiemTimestamp::is_operating</title>
<ellipse fill="none" stroke="black" cx="232" cy="-117" rx="53.89" ry="18"/>
<text text-anchor="middle" x="232" y="-113.3" font-family="Times,serif" font-size="14.00">is_operating</text>
</g>
<!-- DiemTimestamp::assert_operating&#45;&gt;DiemTimestamp::is_operating -->
<g id="edge7" class="edge">
<title>DiemTimestamp::assert_operating&#45;&gt;DiemTimestamp::is_operating</title>
<path fill="none" stroke="black" d="M226.66,-173.7C227.47,-165.25 228.46,-154.87 229.38,-145.37"/>
<polygon fill="black" stroke="black" points="232.88,-145.46 230.35,-135.18 225.91,-144.8 232.88,-145.46"/>
</g>
<!-- Errors::make -->
<g id="node8" class="node">
<title>Errors::make</title>
<ellipse fill="none" stroke="black" cx="72" cy="-34" rx="30.59" ry="18"/>
<text text-anchor="middle" x="72" y="-30.3" font-family="Times,serif" font-size="14.00">make</text>
</g>
<!-- Errors::invalid_state&#45;&gt;Errors::make -->
<g id="edge8" class="edge">
<title>Errors::invalid_state&#45;&gt;Errors::make</title>
<path fill="none" stroke="black" d="M72,-98.82C72,-88.19 72,-74.31 72,-62.2"/>
<polygon fill="black" stroke="black" points="75.5,-62.15 72,-52.15 68.5,-62.15 75.5,-62.15"/>
</g>
<!-- DiemTimestamp::is_operating&#45;&gt;CoreAddresses::DIEM_ROOT_ADDRESS -->
<g id="edge9" class="edge">
<title>DiemTimestamp::is_operating&#45;&gt;CoreAddresses::DIEM_ROOT_ADDRESS</title>
<path fill="none" stroke="black" d="M250.01,-99.61C262.87,-87.91 280.36,-71.98 294.77,-58.87"/>
<polygon fill="black" stroke="black" points="297.36,-61.24 302.4,-51.92 292.65,-56.07 297.36,-61.24"/>
</g>
</g>
</svg>
