<?xml version="1.0" encoding="UTF-8" standalone="no"?>
<!DOCTYPE svg PUBLIC "-//W3C//DTD SVG 1.1//EN"
 "http://www.w3.org/Graphics/SVG/1.1/DTD/svg11.dtd">
<!-- Generated by graphviz version 2.46.1 (20210213.1702)
 -->
<!-- Title: G Pages: 1 -->
<svg width="1158pt" height="365pt"
 viewBox="0.00 0.00 1158.00 365.00" xmlns="http://www.w3.org/2000/svg" xmlns:xlink="http://www.w3.org/1999/xlink">
<g id="graph0" class="graph" transform="scale(1 1) rotate(0) translate(4 361)">
<title>G</title>
<polygon fill="white" stroke="transparent" points="-4,4 -4,-361 1154,-361 1154,4 -4,4"/>
<g id="clust1" class="cluster">
<title>cluster_RecoveryAddress</title>
<polygon fill="none" stroke="black" points="498,-238 498,-313 718,-313 718,-238 498,-238"/>
<text text-anchor="middle" x="608" y="-297.8" font-family="Times,serif" font-size="14.00">RecoveryAddress</text>
</g>
<g id="clust2" class="cluster">
<title>cluster_Signer</title>
<polygon fill="none" stroke="black" points="8,-80 8,-230 158,-230 158,-80 8,-80"/>
<text text-anchor="middle" x="83" y="-214.8" font-family="Times,serif" font-size="14.00">Signer</text>
</g>
<g id="clust3" class="cluster">
<title>cluster_Errors</title>
<polygon fill="none" stroke="black" points="166,-8 166,-155 467,-155 467,-8 166,-8"/>
<text text-anchor="middle" x="316.5" y="-139.8" font-family="Times,serif" font-size="14.00">Errors</text>
</g>
<g id="clust4" class="cluster">
<title>cluster_Vector</title>
<polygon fill="none" stroke="black" points="971,-80 971,-155 1142,-155 1142,-80 971,-80"/>
<text text-anchor="middle" x="1056.5" y="-139.8" font-family="Times,serif" font-size="14.00">Vector</text>
</g>
<g id="clust5" class="cluster">
<title>cluster_DiemAccount</title>
<polygon fill="none" stroke="black" points="475,-80 475,-230 963,-230 963,-80 475,-80"/>
<text text-anchor="middle" x="719" y="-214.8" font-family="Times,serif" font-size="14.00">DiemAccount</text>
</g>
<!-- rotate_authentication_key_with_recovery_address -->
<g id="node1" class="node">
<title>rotate_authentication_key_with_recovery_address</title>
<ellipse fill="none" stroke="black" cx="608" cy="-339" rx="187.67" ry="18"/>
<text text-anchor="middle" x="608" y="-335.3" font-family="Times,serif" font-size="14.00">rotate_authentication_key_with_recovery_address</text>
</g>
<!-- RecoveryAddress::rotate_authentication_key -->
<g id="node2" class="node">
<title>RecoveryAddress::rotate_authentication_key</title>
<ellipse fill="none" stroke="black" cx="608" cy="-264" rx="102.08" ry="18"/>
<text text-anchor="middle" x="608" y="-260.3" font-family="Times,serif" font-size="14.00">rotate_authentication_key</text>
</g>
<!-- rotate_authentication_key_with_recovery_address&#45;&gt;RecoveryAddress::rotate_authentication_key -->
<g id="edge1" class="edge">
<title>rotate_authentication_key_with_recovery_address&#45;&gt;RecoveryAddress::rotate_authentication_key</title>
<path fill="none" stroke="black" d="M608,-320.7C608,-312.25 608,-301.87 608,-292.37"/>
<polygon fill="black" stroke="black" points="611.5,-292.18 608,-282.18 604.5,-292.18 611.5,-292.18"/>
</g>
<!-- Signer::address_of -->
<g id="node3" class="node">
<title>Signer::address_of</title>
<ellipse fill="none" stroke="black" cx="92" cy="-181" rx="48.99" ry="18"/>
<text text-anchor="middle" x="92" y="-177.3" font-family="Times,serif" font-size="14.00">address_of</text>
</g>
<!-- RecoveryAddress::rotate_authentication_key&#45;&gt;Signer::address_of -->
<g id="edge2" class="edge">
<title>RecoveryAddress::rotate_authentication_key&#45;&gt;Signer::address_of</title>
<path fill="none" stroke="black" d="M512.94,-257.43C446.49,-252.59 355.88,-244.08 277,-230 229.08,-221.45 175.32,-206.93 138.16,-196.1"/>
<polygon fill="black" stroke="black" points="138.72,-192.62 128.14,-193.15 136.74,-199.33 138.72,-192.62"/>
</g>
<!-- Errors::invalid_argument -->
<g id="node4" class="node">
<title>Errors::invalid_argument</title>
<ellipse fill="none" stroke="black" cx="386" cy="-106" rx="73.39" ry="18"/>
<text text-anchor="middle" x="386" y="-102.3" font-family="Times,serif" font-size="14.00">invalid_argument</text>
</g>
<!-- RecoveryAddress::rotate_authentication_key&#45;&gt;Errors::invalid_argument -->
<g id="edge3" class="edge">
<title>RecoveryAddress::rotate_authentication_key&#45;&gt;Errors::invalid_argument</title>
<path fill="none" stroke="black" d="M525.66,-253.35C506.57,-248.45 487.14,-241.07 471,-230 435.77,-205.83 410.7,-161.9 397.3,-133.6"/>
<polygon fill="black" stroke="black" points="400.39,-131.94 393.04,-124.3 394.02,-134.85 400.39,-131.94"/>
</g>
<!-- Errors::not_published -->
<g id="node5" class="node">
<title>Errors::not_published</title>
<ellipse fill="none" stroke="black" cx="234" cy="-106" rx="60.39" ry="18"/>
<text text-anchor="middle" x="234" y="-102.3" font-family="Times,serif" font-size="14.00">not_published</text>
</g>
<!-- RecoveryAddress::rotate_authentication_key&#45;&gt;Errors::not_published -->
<g id="edge4" class="edge">
<title>RecoveryAddress::rotate_authentication_key&#45;&gt;Errors::not_published</title>
<path fill="none" stroke="black" d="M515.48,-256.2C481.4,-251.48 443.07,-243.5 410,-230 350.5,-205.71 291.33,-158.36 259.02,-130.02"/>
<polygon fill="black" stroke="black" points="261.2,-127.27 251.4,-123.25 256.55,-132.51 261.2,-127.27"/>
</g>
<!-- Vector::borrow -->
<g id="node6" class="node">
<title>Vector::borrow</title>
<ellipse fill="none" stroke="black" cx="1098" cy="-106" rx="36.29" ry="18"/>
<text text-anchor="middle" x="1098" y="-102.3" font-family="Times,serif" font-size="14.00">borrow</text>
</g>
<!-- RecoveryAddress::rotate_authentication_key&#45;&gt;Vector::borrow -->
<g id="edge5" class="edge">
<title>RecoveryAddress::rotate_authentication_key&#45;&gt;Vector::borrow</title>
<path fill="none" stroke="black" d="M710.03,-263.37C808.85,-262.14 950.65,-255.7 999,-230 1039.66,-208.38 1069.59,-162.16 1085.36,-132.94"/>
<polygon fill="black" stroke="black" points="1088.64,-134.23 1090.17,-123.75 1082.44,-130.99 1088.64,-134.23"/>
</g>
<!-- Vector::length -->
<g id="node7" class="node">
<title>Vector::length</title>
<ellipse fill="none" stroke="black" cx="1011" cy="-106" rx="32.49" ry="18"/>
<text text-anchor="middle" x="1011" y="-102.3" font-family="Times,serif" font-size="14.00">length</text>
</g>
<!-- RecoveryAddress::rotate_authentication_key&#45;&gt;Vector::length -->
<g id="edge6" class="edge">
<title>RecoveryAddress::rotate_authentication_key&#45;&gt;Vector::length</title>
<path fill="none" stroke="black" d="M706.82,-259.33C805.95,-254.79 946.78,-245.67 967,-230 996.4,-207.21 1006.19,-163.12 1009.43,-134.39"/>
<polygon fill="black" stroke="black" points="1012.93,-134.48 1010.38,-124.2 1005.96,-133.84 1012.93,-134.48"/>
</g>
<!-- DiemAccount::key_rotation_capability_address -->
<g id="node8" class="node">
<title>DiemAccount::key_rotation_capability_address</title>
<ellipse fill="none" stroke="black" cx="608" cy="-181" rx="124.58" ry="18"/>
<text text-anchor="middle" x="608" y="-177.3" font-family="Times,serif" font-size="14.00">key_rotation_capability_address</text>
</g>
<!-- RecoveryAddress::rotate_authentication_key&#45;&gt;DiemAccount::key_rotation_capability_address -->
<g id="edge7" class="edge">
<title>RecoveryAddress::rotate_authentication_key&#45;&gt;DiemAccount::key_rotation_capability_address</title>
<path fill="none" stroke="black" d="M608,-245.82C608,-235.19 608,-221.31 608,-209.2"/>
<polygon fill="black" stroke="black" points="611.5,-209.15 608,-199.15 604.5,-209.15 611.5,-209.15"/>
</g>
<!-- DiemAccount::rotate_authentication_key -->
<g id="node9" class="node">
<title>DiemAccount::rotate_authentication_key</title>
<ellipse fill="none" stroke="black" cx="853" cy="-181" rx="102.08" ry="18"/>
<text text-anchor="middle" x="853" y="-177.3" font-family="Times,serif" font-size="14.00">rotate_authentication_key</text>
</g>
<!-- RecoveryAddress::rotate_authentication_key&#45;&gt;DiemAccount::rotate_authentication_key -->
<g id="edge8" class="edge">
<title>RecoveryAddress::rotate_authentication_key&#45;&gt;DiemAccount::rotate_authentication_key</title>
<path fill="none" stroke="black" d="M671,-249.77C693.63,-244.42 719.18,-237.68 742,-230 765.02,-222.25 789.9,-211.7 810.26,-202.47"/>
<polygon fill="black" stroke="black" points="811.94,-205.55 819.57,-198.2 809.02,-199.19 811.94,-205.55"/>
</g>
<!-- Signer::borrow_address -->
<g id="node10" class="node">
<title>Signer::borrow_address</title>
<ellipse fill="none" stroke="black" cx="83" cy="-106" rx="66.89" ry="18"/>
<text text-anchor="middle" x="83" y="-102.3" font-family="Times,serif" font-size="14.00">borrow_address</text>
</g>
<!-- Signer::address_of&#45;&gt;Signer::borrow_address -->
<g id="edge9" class="edge">
<title>Signer::address_of&#45;&gt;Signer::borrow_address</title>
<path fill="none" stroke="black" d="M89.87,-162.7C88.82,-154.25 87.55,-143.87 86.37,-134.37"/>
<polygon fill="black" stroke="black" points="89.81,-133.67 85.12,-124.18 82.87,-134.53 89.81,-133.67"/>
</g>
<!-- Errors::make -->
<g id="node11" class="node">
<title>Errors::make</title>
<ellipse fill="none" stroke="black" cx="310" cy="-34" rx="30.59" ry="18"/>
<text text-anchor="middle" x="310" y="-30.3" font-family="Times,serif" font-size="14.00">make</text>
</g>
<!-- Errors::invalid_argument&#45;&gt;Errors::make -->
<g id="edge10" class="edge">
<title>Errors::invalid_argument&#45;&gt;Errors::make</title>
<path fill="none" stroke="black" d="M367.99,-88.41C357.57,-78.82 344.36,-66.65 333.18,-56.35"/>
<polygon fill="black" stroke="black" points="335.55,-53.77 325.82,-49.57 330.8,-58.92 335.55,-53.77"/>
</g>
<!-- Errors::not_published&#45;&gt;Errors::make -->
<g id="edge11" class="edge">
<title>Errors::not_published&#45;&gt;Errors::make</title>
<path fill="none" stroke="black" d="M251.63,-88.76C262.1,-79.12 275.51,-66.77 286.83,-56.34"/>
<polygon fill="black" stroke="black" points="289.29,-58.83 294.28,-49.48 284.55,-53.68 289.29,-58.83"/>
</g>
<!-- DiemAccount::rotate_authentication_key&#45;&gt;Errors::invalid_argument -->
<g id="edge12" class="edge">
<title>DiemAccount::rotate_authentication_key&#45;&gt;Errors::invalid_argument</title>
<path fill="none" stroke="black" d="M782.7,-167.9C769.22,-165.96 755.2,-164.2 742,-163 712,-160.27 500.02,-163.09 471,-155 451.62,-149.6 431.94,-138.89 416.4,-128.95"/>
<polygon fill="black" stroke="black" points="418.03,-125.83 407.76,-123.23 414.17,-131.67 418.03,-125.83"/>
</g>
<!-- DiemAccount::rotate_authentication_key&#45;&gt;Errors::not_published -->
<g id="edge13" class="edge">
<title>DiemAccount::rotate_authentication_key&#45;&gt;Errors::not_published</title>
<path fill="none" stroke="black" d="M783,-167.83C769.44,-165.88 755.31,-164.14 742,-163 717.75,-160.93 327.18,-162.42 304,-155 287.81,-149.82 271.99,-139.56 259.5,-129.85"/>
<polygon fill="black" stroke="black" points="261.39,-126.87 251.42,-123.28 256.98,-132.31 261.39,-126.87"/>
</g>
<!-- DiemAccount::rotate_authentication_key&#45;&gt;Vector::length -->
<g id="edge14" class="edge">
<title>DiemAccount::rotate_authentication_key&#45;&gt;Vector::length</title>
<path fill="none" stroke="black" d="M931.72,-169.4C944.01,-165.89 956.2,-161.22 967,-155 977.25,-149.1 986.46,-140.01 993.78,-131.32"/>
<polygon fill="black" stroke="black" points="996.73,-133.24 1000.19,-123.23 991.24,-128.9 996.73,-133.24"/>
</g>
<!-- DiemAccount::exists_at -->
<g id="node12" class="node">
<title>DiemAccount::exists_at</title>
<ellipse fill="none" stroke="black" cx="853" cy="-106" rx="41.69" ry="18"/>
<text text-anchor="middle" x="853" y="-102.3" font-family="Times,serif" font-size="14.00">exists_at</text>
</g>
<!-- DiemAccount::rotate_authentication_key&#45;&gt;DiemAccount::exists_at -->
<g id="edge15" class="edge">
<title>DiemAccount::rotate_authentication_key&#45;&gt;DiemAccount::exists_at</title>
<path fill="none" stroke="black" d="M853,-162.7C853,-154.25 853,-143.87 853,-134.37"/>
<polygon fill="black" stroke="black" points="856.5,-134.18 853,-124.18 849.5,-134.18 856.5,-134.18"/>
</g>
</g>
</svg>
