<?xml version="1.0" encoding="UTF-8" standalone="no"?>
<!DOCTYPE svg PUBLIC "-//W3C//DTD SVG 1.1//EN"
 "http://www.w3.org/Graphics/SVG/1.1/DTD/svg11.dtd">
<!-- Generated by graphviz version 2.46.1 (20210213.1702)
 -->
<!-- Title: G Pages: 1 -->
<svg width="566pt" height="365pt"
 viewBox="0.00 0.00 566.00 365.00" xmlns="http://www.w3.org/2000/svg" xmlns:xlink="http://www.w3.org/1999/xlink">
<g id="graph0" class="graph" transform="scale(1 1) rotate(0) translate(4 361)">
<title>G</title>
<polygon fill="white" stroke="transparent" points="-4,4 -4,-361 562,-361 562,4 -4,4"/>
<g id="clust1" class="cluster">
<title>cluster_Errors</title>
<polygon fill="none" stroke="black" points="274,-8 274,-166 550,-166 550,-8 274,-8"/>
<text text-anchor="middle" x="412" y="-150.8" font-family="Times,serif" font-size="14.00">Errors</text>
</g>
<g id="clust2" class="cluster">
<title>cluster_DiemTimestamp</title>
<polygon fill="none" stroke="black" points="92,-91 92,-313 266,-313 266,-91 92,-91"/>
<text text-anchor="middle" x="179" y="-297.8" font-family="Times,serif" font-size="14.00">DiemTimestamp</text>
</g>
<g id="clust3" class="cluster">
<title>cluster_CoreAddresses</title>
<polygon fill="none" stroke="black" points="8,-8 8,-83 238,-83 238,-8 8,-8"/>
<text text-anchor="middle" x="123" y="-67.8" font-family="Times,serif" font-size="14.00">CoreAddresses</text>
</g>
<!-- reset_window -->
<g id="node1" class="node">
<title>reset_window</title>
<ellipse fill="none" stroke="black" cx="232" cy="-339" rx="59.59" ry="18"/>
<text text-anchor="middle" x="232" y="-335.3" font-family="Times,serif" font-size="14.00">reset_window</text>
</g>
<!-- Errors::limit_exceeded -->
<g id="node2" class="node">
<title>Errors::limit_exceeded</title>
<ellipse fill="none" stroke="black" cx="477" cy="-117" rx="64.99" ry="18"/>
<text text-anchor="middle" x="477" y="-113.3" font-family="Times,serif" font-size="14.00">limit_exceeded</text>
</g>
<!-- reset_window&#45;&gt;Errors::limit_exceeded -->
<g id="edge1" class="edge">
<title>reset_window&#45;&gt;Errors::limit_exceeded</title>
<path fill="none" stroke="black" d="M256.97,-322.47C261.4,-319.46 265.91,-316.23 270,-313 341.25,-256.7 416.96,-180.65 453.95,-142.28"/>
<polygon fill="black" stroke="black" points="456.84,-144.33 461.24,-134.69 451.79,-139.48 456.84,-144.33"/>
</g>
<!-- DiemTimestamp::now_microseconds -->
<g id="node3" class="node">
<title>DiemTimestamp::now_microseconds</title>
<ellipse fill="none" stroke="black" cx="179" cy="-264" rx="79.09" ry="18"/>
<text text-anchor="middle" x="179" y="-260.3" font-family="Times,serif" font-size="14.00">now_microseconds</text>
</g>
<!-- reset_window&#45;&gt;DiemTimestamp::now_microseconds -->
<g id="edge2" class="edge">
<title>reset_window&#45;&gt;DiemTimestamp::now_microseconds</title>
<path fill="none" stroke="black" d="M219.71,-321.07C213.02,-311.86 204.61,-300.28 197.18,-290.04"/>
<polygon fill="black" stroke="black" points="199.93,-287.88 191.23,-281.84 194.27,-291.99 199.93,-287.88"/>
</g>
<!-- Errors::make -->
<g id="node4" class="node">
<title>Errors::make</title>
<ellipse fill="none" stroke="black" cx="407" cy="-34" rx="30.59" ry="18"/>
<text text-anchor="middle" x="407" y="-30.3" font-family="Times,serif" font-size="14.00">make</text>
</g>
<!-- Errors::limit_exceeded&#45;&gt;Errors::make -->
<g id="edge3" class="edge">
<title>Errors::limit_exceeded&#45;&gt;Errors::make</title>
<path fill="none" stroke="black" d="M462.5,-99.22C452.22,-87.32 438.29,-71.21 426.96,-58.1"/>
<polygon fill="black" stroke="black" points="429.49,-55.67 420.3,-50.39 424.19,-60.25 429.49,-55.67"/>
</g>
<!-- CoreAddresses::DIEM_ROOT_ADDRESS -->
<g id="node5" class="node">
<title>CoreAddresses::DIEM_ROOT_ADDRESS</title>
<ellipse fill="none" stroke="black" cx="123" cy="-34" rx="106.68" ry="18"/>
<text text-anchor="middle" x="123" y="-30.3" font-family="Times,serif" font-size="14.00">DIEM_ROOT_ADDRESS</text>
</g>
<!-- DiemTimestamp::now_microseconds&#45;&gt;CoreAddresses::DIEM_ROOT_ADDRESS -->
<g id="edge4" class="edge">
<title>DiemTimestamp::now_microseconds&#45;&gt;CoreAddresses::DIEM_ROOT_ADDRESS</title>
<path fill="none" stroke="black" d="M149.02,-247.26C135.35,-238.33 120.56,-225.77 113,-210 89.95,-161.92 103.13,-97.68 113.75,-61.92"/>
<polygon fill="black" stroke="black" points="117.15,-62.8 116.78,-52.21 110.46,-60.71 117.15,-62.8"/>
</g>
<!-- DiemTimestamp::assert_operating -->
<g id="node6" class="node">
<title>DiemTimestamp::assert_operating</title>
<ellipse fill="none" stroke="black" cx="190" cy="-192" rx="68.49" ry="18"/>
<text text-anchor="middle" x="190" y="-188.3" font-family="Times,serif" font-size="14.00">assert_operating</text>
</g>
<!-- DiemTimestamp::now_microseconds&#45;&gt;DiemTimestamp::assert_operating -->
<g id="edge5" class="edge">
<title>DiemTimestamp::now_microseconds&#45;&gt;DiemTimestamp::assert_operating</title>
<path fill="none" stroke="black" d="M181.72,-245.7C182.93,-237.98 184.39,-228.71 185.74,-220.11"/>
<polygon fill="black" stroke="black" points="189.22,-220.53 187.31,-210.1 182.3,-219.44 189.22,-220.53"/>
</g>
<!-- Errors::invalid_state -->
<g id="node7" class="node">
<title>Errors::invalid_state</title>
<ellipse fill="none" stroke="black" cx="338" cy="-117" rx="55.79" ry="18"/>
<text text-anchor="middle" x="338" y="-113.3" font-family="Times,serif" font-size="14.00">invalid_state</text>
</g>
<!-- DiemTimestamp::assert_operating&#45;&gt;Errors::invalid_state -->
<g id="edge6" class="edge">
<title>DiemTimestamp::assert_operating&#45;&gt;Errors::invalid_state</title>
<path fill="none" stroke="black" d="M237.49,-178.84C248.42,-175.31 259.82,-171.03 270,-166 284.18,-159 298.66,-149.21 310.6,-140.3"/>
<polygon fill="black" stroke="black" points="312.99,-142.88 318.8,-134.02 308.73,-137.32 312.99,-142.88"/>
</g>
<!-- DiemTimestamp::is_operating -->
<g id="node8" class="node">
<title>DiemTimestamp::is_operating</title>
<ellipse fill="none" stroke="black" cx="183" cy="-117" rx="53.89" ry="18"/>
<text text-anchor="middle" x="183" y="-113.3" font-family="Times,serif" font-size="14.00">is_operating</text>
</g>
<!-- DiemTimestamp::assert_operating&#45;&gt;DiemTimestamp::is_operating -->
<g id="edge7" class="edge">
<title>DiemTimestamp::assert_operating&#45;&gt;DiemTimestamp::is_operating</title>
<path fill="none" stroke="black" d="M188.34,-173.7C187.53,-165.25 186.54,-154.87 185.62,-145.37"/>
<polygon fill="black" stroke="black" points="189.09,-144.8 184.65,-135.18 182.12,-145.46 189.09,-144.8"/>
</g>
<!-- Errors::invalid_state&#45;&gt;Errors::make -->
<g id="edge8" class="edge">
<title>Errors::invalid_state&#45;&gt;Errors::make</title>
<path fill="none" stroke="black" d="M352.3,-99.22C362.43,-87.32 376.15,-71.21 387.32,-58.1"/>
<polygon fill="black" stroke="black" points="390.07,-60.27 393.89,-50.39 384.74,-55.73 390.07,-60.27"/>
</g>
<!-- DiemTimestamp::is_operating&#45;&gt;CoreAddresses::DIEM_ROOT_ADDRESS -->
<g id="edge9" class="edge">
<title>DiemTimestamp::is_operating&#45;&gt;CoreAddresses::DIEM_ROOT_ADDRESS</title>
<path fill="none" stroke="black" d="M170.57,-99.22C162.26,-88 151.17,-73.03 141.79,-60.36"/>
<polygon fill="black" stroke="black" points="144.39,-57.99 135.62,-52.04 138.76,-62.16 144.39,-57.99"/>
</g>
</g>
</svg>
