<?xml version="1.0" encoding="UTF-8" standalone="no"?>
<!DOCTYPE svg PUBLIC "-//W3C//DTD SVG 1.1//EN"
 "http://www.w3.org/Graphics/SVG/1.1/DTD/svg11.dtd">
<!-- Generated by graphviz version 2.46.1 (20210213.1702)
 -->
<!-- Title: G Pages: 1 -->
<svg width="354pt" height="332pt"
 viewBox="0.00 0.00 354.36 332.00" xmlns="http://www.w3.org/2000/svg" xmlns:xlink="http://www.w3.org/1999/xlink">
<g id="graph0" class="graph" transform="scale(1 1) rotate(0) translate(4 328)">
<title>G</title>
<polygon fill="white" stroke="transparent" points="-4,4 -4,-328 350.36,-328 350.36,4 -4,4"/>
<!-- AccountLimits -->
<g id="node1" class="node">
<title>AccountLimits</title>
<ellipse fill="none" stroke="black" cx="210.8" cy="-306" rx="63.89" ry="18"/>
<text text-anchor="middle" x="210.8" y="-302.3" font-family="Times,serif" font-size="14.00">AccountLimits</text>
</g>
<!-- Signer -->
<g id="node2" class="node">
<title>Signer</title>
<ellipse fill="none" stroke="black" cx="33.8" cy="-18" rx="33.6" ry="18"/>
<text text-anchor="middle" x="33.8" y="-14.3" font-family="Times,serif" font-size="14.00">Signer</text>
</g>
<!-- AccountLimits&#45;&gt;Signer -->
<g id="edge1" class="edge">
<title>AccountLimits&#45;&gt;Signer</title>
<path fill="none" stroke="black" d="M178.87,-290.33C160.81,-281.03 138.56,-267.78 121.8,-252 67.68,-201.06 55.09,-180.03 36.8,-108 31.64,-87.68 31.1,-63.91 31.74,-46.05"/>
<polygon fill="black" stroke="black" points="35.24,-46.2 32.24,-36.03 28.25,-45.85 35.24,-46.2"/>
</g>
<!-- Errors -->
<g id="node3" class="node">
<title>Errors</title>
<ellipse fill="none" stroke="black" cx="237.8" cy="-18" rx="32.49" ry="18"/>
<text text-anchor="middle" x="237.8" y="-14.3" font-family="Times,serif" font-size="14.00">Errors</text>
</g>
<!-- AccountLimits&#45;&gt;Errors -->
<g id="edge2" class="edge">
<title>AccountLimits&#45;&gt;Errors</title>
<path fill="none" stroke="black" d="M236.79,-289.46C268.27,-268.94 319.7,-229.55 340.8,-180 364.18,-125.08 303.84,-67.84 265.89,-38.67"/>
<polygon fill="black" stroke="black" points="267.82,-35.73 257.71,-32.54 263.62,-41.34 267.82,-35.73"/>
</g>
<!-- DiemTimestamp -->
<g id="node4" class="node">
<title>DiemTimestamp</title>
<ellipse fill="none" stroke="black" cx="260.8" cy="-162" rx="71.49" ry="18"/>
<text text-anchor="middle" x="260.8" y="-158.3" font-family="Times,serif" font-size="14.00">DiemTimestamp</text>
</g>
<!-- AccountLimits&#45;&gt;DiemTimestamp -->
<g id="edge3" class="edge">
<title>AccountLimits&#45;&gt;DiemTimestamp</title>
<path fill="none" stroke="black" d="M216.83,-287.87C225.42,-263.46 241.28,-218.43 251.42,-189.64"/>
<polygon fill="black" stroke="black" points="254.72,-190.78 254.74,-180.19 248.12,-188.46 254.72,-190.78"/>
</g>
<!-- Roles -->
<g id="node5" class="node">
<title>Roles</title>
<ellipse fill="none" stroke="black" cx="161.8" cy="-234" rx="30.59" ry="18"/>
<text text-anchor="middle" x="161.8" y="-230.3" font-family="Times,serif" font-size="14.00">Roles</text>
</g>
<!-- AccountLimits&#45;&gt;Roles -->
<g id="edge4" class="edge">
<title>AccountLimits&#45;&gt;Roles</title>
<path fill="none" stroke="black" d="M198.94,-288.05C192.86,-279.38 185.37,-268.67 178.7,-259.15"/>
<polygon fill="black" stroke="black" points="181.48,-257.01 172.88,-250.83 175.74,-261.03 181.48,-257.01"/>
</g>
<!-- DiemTimestamp&#45;&gt;Errors -->
<g id="edge5" class="edge">
<title>DiemTimestamp&#45;&gt;Errors</title>
<path fill="none" stroke="black" d="M258.02,-143.87C254.1,-119.67 246.9,-75.21 242.23,-46.39"/>
<polygon fill="black" stroke="black" points="245.64,-45.5 240.58,-36.19 238.73,-46.62 245.64,-45.5"/>
</g>
<!-- CoreAddresses -->
<g id="node6" class="node">
<title>CoreAddresses</title>
<ellipse fill="none" stroke="black" cx="125.8" cy="-90" rx="63.89" ry="18"/>
<text text-anchor="middle" x="125.8" y="-86.3" font-family="Times,serif" font-size="14.00">CoreAddresses</text>
</g>
<!-- DiemTimestamp&#45;&gt;CoreAddresses -->
<g id="edge6" class="edge">
<title>DiemTimestamp&#45;&gt;CoreAddresses</title>
<path fill="none" stroke="black" d="M230.84,-145.46C211.21,-135.29 185.38,-121.9 164.25,-110.94"/>
<polygon fill="black" stroke="black" points="165.7,-107.75 155.21,-106.25 162.48,-113.96 165.7,-107.75"/>
</g>
<!-- Roles&#45;&gt;Signer -->
<g id="edge7" class="edge">
<title>Roles&#45;&gt;Signer</title>
<path fill="none" stroke="black" d="M144.81,-218.75C120.45,-197.32 75.98,-154.35 52.8,-108 43.11,-88.63 38.35,-64.48 36.02,-46.23"/>
<polygon fill="black" stroke="black" points="39.49,-45.79 34.9,-36.24 32.53,-46.57 39.49,-45.79"/>
</g>
<!-- Roles&#45;&gt;Errors -->
<g id="edge8" class="edge">
<title>Roles&#45;&gt;Errors</title>
<path fill="none" stroke="black" d="M164.13,-215.92C166.91,-197.74 172.28,-168.3 180.8,-144 186.71,-127.12 191.2,-124.2 198.8,-108 208.6,-87.09 219.07,-63.09 226.69,-45.29"/>
<polygon fill="black" stroke="black" points="230.02,-46.42 230.72,-35.85 223.58,-43.67 230.02,-46.42"/>
</g>
<!-- Roles&#45;&gt;DiemTimestamp -->
<g id="edge10" class="edge">
<title>Roles&#45;&gt;DiemTimestamp</title>
<path fill="none" stroke="black" d="M180.89,-219.5C194.63,-209.78 213.49,-196.45 229.44,-185.17"/>
<polygon fill="black" stroke="black" points="231.8,-187.79 237.94,-179.16 227.76,-182.07 231.8,-187.79"/>
</g>
<!-- Roles&#45;&gt;CoreAddresses -->
<g id="edge9" class="edge">
<title>Roles&#45;&gt;CoreAddresses</title>
<path fill="none" stroke="black" d="M157.19,-215.83C154.42,-205.47 150.86,-191.99 147.8,-180 142.51,-159.31 136.72,-135.87 132.41,-118.23"/>
<polygon fill="black" stroke="black" points="135.7,-116.97 129.93,-108.08 128.9,-118.63 135.7,-116.97"/>
</g>
<!-- CoreAddresses&#45;&gt;Signer -->
<g id="edge11" class="edge">
<title>CoreAddresses&#45;&gt;Signer</title>
<path fill="none" stroke="black" d="M104.46,-72.76C91.45,-62.86 74.7,-50.12 60.77,-39.52"/>
<polygon fill="black" stroke="black" points="62.6,-36.52 52.53,-33.25 58.36,-42.09 62.6,-36.52"/>
</g>
<!-- CoreAddresses&#45;&gt;Errors -->
<g id="edge12" class="edge">
<title>CoreAddresses&#45;&gt;Errors</title>
<path fill="none" stroke="black" d="M150.93,-73.29C167.85,-62.72 190.23,-48.73 208.03,-37.6"/>
<polygon fill="black" stroke="black" points="210.25,-40.34 216.88,-32.08 206.54,-34.41 210.25,-40.34"/>
</g>
</g>
</svg>
