<?xml version="1.0" encoding="UTF-8" standalone="no"?>
<!DOCTYPE svg PUBLIC "-//W3C//DTD SVG 1.1//EN"
 "http://www.w3.org/Graphics/SVG/1.1/DTD/svg11.dtd">
<!-- Generated by graphviz version 2.46.1 (20210213.1702)
 -->
<!-- Title: G Pages: 1 -->
<svg width="1217pt" height="614pt"
 viewBox="0.00 0.00 1217.39 614.00" xmlns="http://www.w3.org/2000/svg" xmlns:xlink="http://www.w3.org/1999/xlink">
<g id="graph0" class="graph" transform="scale(1 1) rotate(0) translate(4 610)">
<title>G</title>
<polygon fill="white" stroke="transparent" points="-4,4 -4,-610 1213.39,-610 1213.39,4 -4,4"/>
<g id="clust1" class="cluster">
<title>cluster_DiemAccount</title>
<polygon fill="none" stroke="black" points="253,-246 253,-479 781,-479 781,-246 253,-246"/>
<text text-anchor="middle" x="517" y="-463.8" font-family="Times,serif" font-size="14.00">DiemAccount</text>
</g>
<g id="clust2" class="cluster">
<title>cluster_RecoveryAddress</title>
<polygon fill="none" stroke="black" points="798,-487 798,-562 911,-562 911,-487 798,-487"/>
<text text-anchor="middle" x="854.5" y="-546.8" font-family="Times,serif" font-size="14.00">RecoveryAddress</text>
</g>
<g id="clust3" class="cluster">
<title>cluster_Signer</title>
<polygon fill="none" stroke="black" points="789,-246 789,-404 939,-404 939,-246 789,-246"/>
<text text-anchor="middle" x="864" y="-388.8" font-family="Times,serif" font-size="14.00">Signer</text>
</g>
<g id="clust4" class="cluster">
<title>cluster_Errors</title>
<polygon fill="none" stroke="black" points="362,-80 362,-238 961,-238 961,-80 362,-80"/>
<text text-anchor="middle" x="661.5" y="-222.8" font-family="Times,serif" font-size="14.00">Errors</text>
</g>
<g id="clust5" class="cluster">
<title>cluster_Option</title>
<polygon fill="none" stroke="black" points="34,-163 34,-321 213,-321 213,-163 34,-163"/>
<text text-anchor="middle" x="123.5" y="-305.8" font-family="Times,serif" font-size="14.00">Option</text>
</g>
<g id="clust6" class="cluster">
<title>cluster_Vector</title>
<polygon fill="none" stroke="black" points="8,-8 8,-155 323,-155 323,-8 8,-8"/>
<text text-anchor="middle" x="165.5" y="-139.8" font-family="Times,serif" font-size="14.00">Vector</text>
</g>
<g id="clust7" class="cluster">
<title>cluster_VASP</title>
<polygon fill="none" stroke="black" points="978,-329 978,-479 1174,-479 1174,-329 978,-329"/>
<text text-anchor="middle" x="1076" y="-463.8" font-family="Times,serif" font-size="14.00">VASP</text>
</g>
<!-- create_recovery_address -->
<g id="node1" class="node">
<title>create_recovery_address</title>
<ellipse fill="none" stroke="black" cx="811" cy="-588" rx="97.48" ry="18"/>
<text text-anchor="middle" x="811" y="-584.3" font-family="Times,serif" font-size="14.00">create_recovery_address</text>
</g>
<!-- DiemAccount::extract_key_rotation_capability -->
<g id="node2" class="node">
<title>DiemAccount::extract_key_rotation_capability</title>
<ellipse fill="none" stroke="black" cx="383" cy="-430" rx="122.38" ry="18"/>
<text text-anchor="middle" x="383" y="-426.3" font-family="Times,serif" font-size="14.00">extract_key_rotation_capability</text>
</g>
<!-- create_recovery_address&#45;&gt;DiemAccount::extract_key_rotation_capability -->
<g id="edge1" class="edge">
<title>create_recovery_address&#45;&gt;DiemAccount::extract_key_rotation_capability</title>
<path fill="none" stroke="black" d="M768.69,-571.65C711.07,-550.74 604.71,-512.11 514,-479 488.3,-469.62 459.78,-459.17 435.93,-450.43"/>
<polygon fill="black" stroke="black" points="436.95,-447.07 426.36,-446.92 434.54,-453.65 436.95,-447.07"/>
</g>
<!-- RecoveryAddress::publish -->
<g id="node3" class="node">
<title>RecoveryAddress::publish</title>
<ellipse fill="none" stroke="black" cx="855" cy="-513" rx="36.29" ry="18"/>
<text text-anchor="middle" x="855" y="-509.3" font-family="Times,serif" font-size="14.00">publish</text>
</g>
<!-- create_recovery_address&#45;&gt;RecoveryAddress::publish -->
<g id="edge2" class="edge">
<title>create_recovery_address&#45;&gt;RecoveryAddress::publish</title>
<path fill="none" stroke="black" d="M821.21,-570.07C826.78,-560.82 833.79,-549.18 839.98,-538.92"/>
<polygon fill="black" stroke="black" points="842.99,-540.71 845.15,-530.34 836.99,-537.09 842.99,-540.71"/>
</g>
<!-- Signer::address_of -->
<g id="node4" class="node">
<title>Signer::address_of</title>
<ellipse fill="none" stroke="black" cx="855" cy="-355" rx="48.99" ry="18"/>
<text text-anchor="middle" x="855" y="-351.3" font-family="Times,serif" font-size="14.00">address_of</text>
</g>
<!-- DiemAccount::extract_key_rotation_capability&#45;&gt;Signer::address_of -->
<g id="edge3" class="edge">
<title>DiemAccount::extract_key_rotation_capability&#45;&gt;Signer::address_of</title>
<path fill="none" stroke="black" d="M466.73,-416.87C482.41,-414.96 498.68,-413.22 514,-412 544.03,-409.61 756.36,-413.34 785,-404 801.28,-398.69 817.2,-388.31 829.73,-378.56"/>
<polygon fill="black" stroke="black" points="832.28,-381 837.83,-371.98 827.87,-375.57 832.28,-381"/>
</g>
<!-- Errors::invalid_state -->
<g id="node5" class="node">
<title>Errors::invalid_state</title>
<ellipse fill="none" stroke="black" cx="729" cy="-189" rx="55.79" ry="18"/>
<text text-anchor="middle" x="729" y="-185.3" font-family="Times,serif" font-size="14.00">invalid_state</text>
</g>
<!-- DiemAccount::extract_key_rotation_capability&#45;&gt;Errors::invalid_state -->
<g id="edge4" class="edge">
<title>DiemAccount::extract_key_rotation_capability&#45;&gt;Errors::invalid_state</title>
<path fill="none" stroke="black" d="M468.89,-417.18C483.91,-415.31 499.4,-413.5 514,-412 525.75,-410.8 610.17,-410.55 620,-404 685.68,-360.26 713.82,-264.23 724.03,-217.13"/>
<polygon fill="black" stroke="black" points="727.51,-217.57 726.1,-207.07 720.66,-216.16 727.51,-217.57"/>
</g>
<!-- Errors::not_published -->
<g id="node6" class="node">
<title>Errors::not_published</title>
<ellipse fill="none" stroke="black" cx="595" cy="-189" rx="60.39" ry="18"/>
<text text-anchor="middle" x="595" y="-185.3" font-family="Times,serif" font-size="14.00">not_published</text>
</g>
<!-- DiemAccount::extract_key_rotation_capability&#45;&gt;Errors::not_published -->
<g id="edge5" class="edge">
<title>DiemAccount::extract_key_rotation_capability&#45;&gt;Errors::not_published</title>
<path fill="none" stroke="black" d="M470.34,-417.33C484.91,-415.48 499.88,-413.64 514,-412 522.65,-410.99 586.12,-410.43 592,-404 639.02,-352.64 618.81,-261.8 604.6,-216.8"/>
<polygon fill="black" stroke="black" points="607.87,-215.56 601.42,-207.16 601.23,-217.75 607.87,-215.56"/>
</g>
<!-- Option::extract -->
<g id="node7" class="node">
<title>Option::extract</title>
<ellipse fill="none" stroke="black" cx="171" cy="-272" rx="34.39" ry="18"/>
<text text-anchor="middle" x="171" y="-268.3" font-family="Times,serif" font-size="14.00">extract</text>
</g>
<!-- DiemAccount::extract_key_rotation_capability&#45;&gt;Option::extract -->
<g id="edge6" class="edge">
<title>DiemAccount::extract_key_rotation_capability&#45;&gt;Option::extract</title>
<path fill="none" stroke="black" d="M315.13,-414.94C307.04,-411.95 299.14,-408.34 292,-404 246.94,-376.58 208.26,-327.64 187.43,-297.96"/>
<polygon fill="black" stroke="black" points="190.1,-295.67 181.55,-289.41 184.34,-299.64 190.1,-295.67"/>
</g>
<!-- DiemAccount::exists_at -->
<g id="node8" class="node">
<title>DiemAccount::exists_at</title>
<ellipse fill="none" stroke="black" cx="396" cy="-272" rx="41.69" ry="18"/>
<text text-anchor="middle" x="396" y="-268.3" font-family="Times,serif" font-size="14.00">exists_at</text>
</g>
<!-- DiemAccount::extract_key_rotation_capability&#45;&gt;DiemAccount::exists_at -->
<g id="edge7" class="edge">
<title>DiemAccount::extract_key_rotation_capability&#45;&gt;DiemAccount::exists_at</title>
<path fill="none" stroke="black" d="M320.79,-414.5C316.65,-411.6 312.96,-408.14 310,-404 290.62,-376.88 294.11,-358.3 310,-329 319.82,-310.89 338.3,-297.72 355.63,-288.72"/>
<polygon fill="black" stroke="black" points="357.6,-291.65 365.07,-284.14 354.54,-285.35 357.6,-291.65"/>
</g>
<!-- DiemAccount::delegated_key_rotation_capability -->
<g id="node9" class="node">
<title>DiemAccount::delegated_key_rotation_capability</title>
<ellipse fill="none" stroke="black" cx="451" cy="-355" rx="131.88" ry="18"/>
<text text-anchor="middle" x="451" y="-351.3" font-family="Times,serif" font-size="14.00">delegated_key_rotation_capability</text>
</g>
<!-- DiemAccount::extract_key_rotation_capability&#45;&gt;DiemAccount::delegated_key_rotation_capability -->
<g id="edge8" class="edge">
<title>DiemAccount::extract_key_rotation_capability&#45;&gt;DiemAccount::delegated_key_rotation_capability</title>
<path fill="none" stroke="black" d="M398.77,-412.07C407.46,-402.74 418.41,-390.99 428.04,-380.65"/>
<polygon fill="black" stroke="black" points="430.82,-382.8 435.08,-373.09 425.7,-378.02 430.82,-382.8"/>
</g>
<!-- RecoveryAddress::publish&#45;&gt;Signer::address_of -->
<g id="edge9" class="edge">
<title>RecoveryAddress::publish&#45;&gt;Signer::address_of</title>
<path fill="none" stroke="black" d="M855,-494.71C855,-467.77 855,-415.54 855,-383.42"/>
<polygon fill="black" stroke="black" points="858.5,-383.37 855,-373.37 851.5,-383.37 858.5,-383.37"/>
</g>
<!-- Errors::already_published -->
<g id="node10" class="node">
<title>Errors::already_published</title>
<ellipse fill="none" stroke="black" cx="878" cy="-189" rx="75.29" ry="18"/>
<text text-anchor="middle" x="878" y="-185.3" font-family="Times,serif" font-size="14.00">already_published</text>
</g>
<!-- RecoveryAddress::publish&#45;&gt;Errors::already_published -->
<g id="edge10" class="edge">
<title>RecoveryAddress::publish&#45;&gt;Errors::already_published</title>
<path fill="none" stroke="black" d="M873.08,-497.07C894.53,-478.06 929.14,-442.97 943,-404 966.54,-337.84 972.26,-309.83 943,-246 936.81,-232.49 925.57,-221 914.15,-212.02"/>
<polygon fill="black" stroke="black" points="916.01,-209.04 905.88,-205.92 911.86,-214.67 916.01,-209.04"/>
</g>
<!-- Errors::invalid_argument -->
<g id="node11" class="node">
<title>Errors::invalid_argument</title>
<ellipse fill="none" stroke="black" cx="443" cy="-189" rx="73.39" ry="18"/>
<text text-anchor="middle" x="443" y="-185.3" font-family="Times,serif" font-size="14.00">invalid_argument</text>
</g>
<!-- RecoveryAddress::publish&#45;&gt;Errors::invalid_argument -->
<g id="edge11" class="edge">
<title>RecoveryAddress::publish&#45;&gt;Errors::invalid_argument</title>
<path fill="none" stroke="black" d="M891.29,-510.98C971.66,-508.33 1159.06,-499.97 1178,-479 1222.68,-429.52 1216.5,-383.43 1178,-329 1114.03,-238.57 1051.99,-265.76 943,-246 897.4,-237.73 570.64,-250.44 526,-238 506.97,-232.7 487.74,-221.99 472.59,-212.03"/>
<polygon fill="black" stroke="black" points="474.41,-209.04 464.17,-206.3 470.47,-214.82 474.41,-209.04"/>
</g>
<!-- Vector::singleton -->
<g id="node12" class="node">
<title>Vector::singleton</title>
<ellipse fill="none" stroke="black" cx="272" cy="-106" rx="42.79" ry="18"/>
<text text-anchor="middle" x="272" y="-102.3" font-family="Times,serif" font-size="14.00">singleton</text>
</g>
<!-- RecoveryAddress::publish&#45;&gt;Vector::singleton -->
<g id="edge12" class="edge">
<title>RecoveryAddress::publish&#45;&gt;Vector::singleton</title>
<path fill="none" stroke="black" d="M818.55,-511.29C690.81,-508.63 269.95,-498.44 249,-479 208.59,-441.51 233,-411.13 233,-356 233,-356 233,-356 233,-271 233,-221.35 250.13,-165.49 261.68,-133.45"/>
<polygon fill="black" stroke="black" points="265.02,-134.51 265.21,-123.92 258.45,-132.08 265.02,-134.51"/>
</g>
<!-- VASP::is_vasp -->
<g id="node13" class="node">
<title>VASP::is_vasp</title>
<ellipse fill="none" stroke="black" cx="1024" cy="-430" rx="37.09" ry="18"/>
<text text-anchor="middle" x="1024" y="-426.3" font-family="Times,serif" font-size="14.00">is_vasp</text>
</g>
<!-- RecoveryAddress::publish&#45;&gt;VASP::is_vasp -->
<g id="edge13" class="edge">
<title>RecoveryAddress::publish&#45;&gt;VASP::is_vasp</title>
<path fill="none" stroke="black" d="M889.16,-506.75C913.41,-502.01 946.12,-493.48 972,-479 983.56,-472.53 994.6,-463 1003.52,-454.13"/>
<polygon fill="black" stroke="black" points="1006.05,-456.55 1010.47,-446.92 1001.01,-451.69 1006.05,-456.55"/>
</g>
<!-- DiemAccount::key_rotation_capability_address -->
<g id="node14" class="node">
<title>DiemAccount::key_rotation_capability_address</title>
<ellipse fill="none" stroke="black" cx="648" cy="-430" rx="124.58" ry="18"/>
<text text-anchor="middle" x="648" y="-426.3" font-family="Times,serif" font-size="14.00">key_rotation_capability_address</text>
</g>
<!-- RecoveryAddress::publish&#45;&gt;DiemAccount::key_rotation_capability_address -->
<g id="edge14" class="edge">
<title>RecoveryAddress::publish&#45;&gt;DiemAccount::key_rotation_capability_address</title>
<path fill="none" stroke="black" d="M827.87,-500.96C817.04,-496.58 804.44,-491.52 793,-487 762.01,-474.77 727.19,-461.31 699.44,-450.66"/>
<polygon fill="black" stroke="black" points="700.53,-447.33 689.94,-447.01 698.02,-453.86 700.53,-447.33"/>
</g>
<!-- Signer::borrow_address -->
<g id="node15" class="node">
<title>Signer::borrow_address</title>
<ellipse fill="none" stroke="black" cx="864" cy="-272" rx="66.89" ry="18"/>
<text text-anchor="middle" x="864" y="-268.3" font-family="Times,serif" font-size="14.00">borrow_address</text>
</g>
<!-- Signer::address_of&#45;&gt;Signer::borrow_address -->
<g id="edge15" class="edge">
<title>Signer::address_of&#45;&gt;Signer::borrow_address</title>
<path fill="none" stroke="black" d="M856.91,-336.82C858.09,-326.19 859.63,-312.31 860.98,-300.2"/>
<polygon fill="black" stroke="black" points="864.47,-300.48 862.09,-290.15 857.51,-299.71 864.47,-300.48"/>
</g>
<!-- Errors::make -->
<g id="node16" class="node">
<title>Errors::make</title>
<ellipse fill="none" stroke="black" cx="662" cy="-106" rx="30.59" ry="18"/>
<text text-anchor="middle" x="662" y="-102.3" font-family="Times,serif" font-size="14.00">make</text>
</g>
<!-- Errors::invalid_state&#45;&gt;Errors::make -->
<g id="edge16" class="edge">
<title>Errors::invalid_state&#45;&gt;Errors::make</title>
<path fill="none" stroke="black" d="M715.12,-171.22C705.28,-159.32 691.95,-143.21 681.11,-130.1"/>
<polygon fill="black" stroke="black" points="683.8,-127.87 674.73,-122.39 678.41,-132.33 683.8,-127.87"/>
</g>
<!-- Errors::not_published&#45;&gt;Errors::make -->
<g id="edge17" class="edge">
<title>Errors::not_published&#45;&gt;Errors::make</title>
<path fill="none" stroke="black" d="M608.88,-171.22C618.72,-159.32 632.05,-143.21 642.89,-130.1"/>
<polygon fill="black" stroke="black" points="645.59,-132.33 649.27,-122.39 640.2,-127.87 645.59,-132.33"/>
</g>
<!-- Option::extract&#45;&gt;Errors::invalid_argument -->
<g id="edge18" class="edge">
<title>Option::extract&#45;&gt;Errors::invalid_argument</title>
<path fill="none" stroke="black" d="M199.46,-261.66C214.21,-256.87 232.54,-251.01 249,-246 295.18,-231.94 347.8,-216.8 386.58,-205.82"/>
<polygon fill="black" stroke="black" points="387.96,-209.06 396.63,-202.97 386.06,-202.33 387.96,-209.06"/>
</g>
<!-- Vector::pop_back -->
<g id="node17" class="node">
<title>Vector::pop_back</title>
<ellipse fill="none" stroke="black" cx="166" cy="-106" rx="44.69" ry="18"/>
<text text-anchor="middle" x="166" y="-102.3" font-family="Times,serif" font-size="14.00">pop_back</text>
</g>
<!-- Option::extract&#45;&gt;Vector::pop_back -->
<g id="edge19" class="edge">
<title>Option::extract&#45;&gt;Vector::pop_back</title>
<path fill="none" stroke="black" d="M170.47,-253.76C169.61,-225.26 167.86,-168.12 166.83,-134.16"/>
<polygon fill="black" stroke="black" points="170.32,-133.9 166.52,-124.01 163.33,-134.11 170.32,-133.9"/>
</g>
<!-- Option::is_some -->
<g id="node18" class="node">
<title>Option::is_some</title>
<ellipse fill="none" stroke="black" cx="113" cy="-189" rx="40.09" ry="18"/>
<text text-anchor="middle" x="113" y="-185.3" font-family="Times,serif" font-size="14.00">is_some</text>
</g>
<!-- Option::extract&#45;&gt;Option::is_some -->
<g id="edge20" class="edge">
<title>Option::extract&#45;&gt;Option::is_some</title>
<path fill="none" stroke="black" d="M159.54,-255C151.25,-243.42 139.91,-227.58 130.49,-214.43"/>
<polygon fill="black" stroke="black" points="133.3,-212.34 124.63,-206.25 127.61,-216.42 133.3,-212.34"/>
</g>
<!-- DiemAccount::delegated_key_rotation_capability&#45;&gt;Errors::not_published -->
<g id="edge21" class="edge">
<title>DiemAccount::delegated_key_rotation_capability&#45;&gt;Errors::not_published</title>
<path fill="none" stroke="black" d="M465.87,-337.07C491.55,-307.82 544.29,-247.76 573.8,-214.14"/>
<polygon fill="black" stroke="black" points="576.46,-216.42 580.43,-206.6 571.2,-211.8 576.46,-216.42"/>
</g>
<!-- DiemAccount::delegated_key_rotation_capability&#45;&gt;DiemAccount::exists_at -->
<g id="edge23" class="edge">
<title>DiemAccount::delegated_key_rotation_capability&#45;&gt;DiemAccount::exists_at</title>
<path fill="none" stroke="black" d="M439.34,-336.82C431.65,-325.5 421.46,-310.5 412.89,-297.88"/>
<polygon fill="black" stroke="black" points="415.78,-295.91 407.27,-289.6 409.99,-299.84 415.78,-295.91"/>
</g>
<!-- Option::is_none -->
<g id="node19" class="node">
<title>Option::is_none</title>
<ellipse fill="none" stroke="black" cx="80" cy="-272" rx="38.19" ry="18"/>
<text text-anchor="middle" x="80" y="-268.3" font-family="Times,serif" font-size="14.00">is_none</text>
</g>
<!-- DiemAccount::delegated_key_rotation_capability&#45;&gt;Option::is_none -->
<g id="edge22" class="edge">
<title>DiemAccount::delegated_key_rotation_capability&#45;&gt;Option::is_none</title>
<path fill="none" stroke="black" d="M324.51,-349.73C249.33,-345.52 162.17,-337.24 128,-321 116.47,-315.52 106.11,-306.09 97.99,-297.03"/>
<polygon fill="black" stroke="black" points="100.57,-294.67 91.46,-289.27 95.22,-299.18 100.57,-294.67"/>
</g>
<!-- Errors::already_published&#45;&gt;Errors::make -->
<g id="edge24" class="edge">
<title>Errors::already_published&#45;&gt;Errors::make</title>
<path fill="none" stroke="black" d="M839.38,-173.52C798.95,-158.36 736.01,-134.75 696.99,-120.12"/>
<polygon fill="black" stroke="black" points="697.73,-116.66 687.13,-116.42 695.27,-123.21 697.73,-116.66"/>
</g>
<!-- Errors::invalid_argument&#45;&gt;Errors::make -->
<g id="edge25" class="edge">
<title>Errors::invalid_argument&#45;&gt;Errors::make</title>
<path fill="none" stroke="black" d="M481.9,-173.61C523.15,-158.36 587.69,-134.49 627.27,-119.84"/>
<polygon fill="black" stroke="black" points="628.6,-123.08 636.77,-116.33 626.18,-116.52 628.6,-123.08"/>
</g>
<!-- Vector::empty -->
<g id="node20" class="node">
<title>Vector::empty</title>
<ellipse fill="none" stroke="black" cx="168" cy="-34" rx="33.29" ry="18"/>
<text text-anchor="middle" x="168" y="-30.3" font-family="Times,serif" font-size="14.00">empty</text>
</g>
<!-- Vector::singleton&#45;&gt;Vector::empty -->
<g id="edge26" class="edge">
<title>Vector::singleton&#45;&gt;Vector::empty</title>
<path fill="none" stroke="black" d="M250.2,-90.33C234.58,-79.81 213.39,-65.55 196.44,-54.14"/>
<polygon fill="black" stroke="black" points="198.26,-51.15 188.01,-48.47 194.35,-56.96 198.26,-51.15"/>
</g>
<!-- Vector::push_back -->
<g id="node21" class="node">
<title>Vector::push_back</title>
<ellipse fill="none" stroke="black" cx="267" cy="-34" rx="48.19" ry="18"/>
<text text-anchor="middle" x="267" y="-30.3" font-family="Times,serif" font-size="14.00">push_back</text>
</g>
<!-- Vector::singleton&#45;&gt;Vector::push_back -->
<g id="edge27" class="edge">
<title>Vector::singleton&#45;&gt;Vector::push_back</title>
<path fill="none" stroke="black" d="M270.76,-87.7C270.21,-79.98 269.55,-70.71 268.94,-62.11"/>
<polygon fill="black" stroke="black" points="272.43,-61.83 268.22,-52.1 265.44,-62.33 272.43,-61.83"/>
</g>
<!-- VASP::is_child -->
<g id="node22" class="node">
<title>VASP::is_child</title>
<ellipse fill="none" stroke="black" cx="1024" cy="-355" rx="38.19" ry="18"/>
<text text-anchor="middle" x="1024" y="-351.3" font-family="Times,serif" font-size="14.00">is_child</text>
</g>
<!-- VASP::is_vasp&#45;&gt;VASP::is_child -->
<g id="edge28" class="edge">
<title>VASP::is_vasp&#45;&gt;VASP::is_child</title>
<path fill="none" stroke="black" d="M1024,-411.7C1024,-403.25 1024,-392.87 1024,-383.37"/>
<polygon fill="black" stroke="black" points="1027.5,-383.18 1024,-373.18 1020.5,-383.18 1027.5,-383.18"/>
</g>
<!-- VASP::is_parent -->
<g id="node23" class="node">
<title>VASP::is_parent</title>
<ellipse fill="none" stroke="black" cx="1123" cy="-355" rx="42.79" ry="18"/>
<text text-anchor="middle" x="1123" y="-351.3" font-family="Times,serif" font-size="14.00">is_parent</text>
</g>
<!-- VASP::is_vasp&#45;&gt;VASP::is_parent -->
<g id="edge29" class="edge">
<title>VASP::is_vasp&#45;&gt;VASP::is_parent</title>
<path fill="none" stroke="black" d="M1049.59,-416.91C1056.74,-413.13 1064.37,-408.71 1071,-404 1081.23,-396.74 1091.57,-387.64 1100.31,-379.32"/>
<polygon fill="black" stroke="black" points="1102.81,-381.76 1107.53,-372.27 1097.93,-376.75 1102.81,-381.76"/>
</g>
<!-- Vector::is_empty -->
<g id="node24" class="node">
<title>Vector::is_empty</title>
<ellipse fill="none" stroke="black" cx="60" cy="-106" rx="43.59" ry="18"/>
<text text-anchor="middle" x="60" y="-102.3" font-family="Times,serif" font-size="14.00">is_empty</text>
</g>
<!-- Option::is_some&#45;&gt;Vector::is_empty -->
<g id="edge30" class="edge">
<title>Option::is_some&#45;&gt;Vector::is_empty</title>
<path fill="none" stroke="black" d="M102.27,-171.61C94.85,-160.27 84.84,-144.96 76.41,-132.09"/>
<polygon fill="black" stroke="black" points="79.3,-130.1 70.89,-123.65 73.44,-133.93 79.3,-130.1"/>
</g>
<!-- Option::is_none&#45;&gt;Vector::is_empty -->
<g id="edge31" class="edge">
<title>Option::is_none&#45;&gt;Vector::is_empty</title>
<path fill="none" stroke="black" d="M70.27,-254.39C67.75,-249.3 65.37,-243.56 64,-238 55.41,-203.04 55.91,-161.26 57.54,-134.44"/>
<polygon fill="black" stroke="black" points="61.05,-134.49 58.26,-124.27 54.07,-133.99 61.05,-134.49"/>
</g>
<!-- Vector::length -->
<g id="node25" class="node">
<title>Vector::length</title>
<ellipse fill="none" stroke="black" cx="60" cy="-34" rx="32.49" ry="18"/>
<text text-anchor="middle" x="60" y="-30.3" font-family="Times,serif" font-size="14.00">length</text>
</g>
<!-- Vector::is_empty&#45;&gt;Vector::length -->
<g id="edge32" class="edge">
<title>Vector::is_empty&#45;&gt;Vector::length</title>
<path fill="none" stroke="black" d="M60,-87.7C60,-79.98 60,-70.71 60,-62.11"/>
<polygon fill="black" stroke="black" points="63.5,-62.1 60,-52.1 56.5,-62.1 63.5,-62.1"/>
</g>
</g>
</svg>
