<?xml version="1.0" encoding="UTF-8" standalone="no"?>
<!DOCTYPE svg PUBLIC "-//W3C//DTD SVG 1.1//EN"
 "http://www.w3.org/Graphics/SVG/1.1/DTD/svg11.dtd">
<!-- Generated by graphviz version 2.46.1 (20210213.1702)
 -->
<!-- Title: G Pages: 1 -->
<svg width="348pt" height="207pt"
 viewBox="0.00 0.00 348.00 207.00" xmlns="http://www.w3.org/2000/svg" xmlns:xlink="http://www.w3.org/1999/xlink">
<g id="graph0" class="graph" transform="scale(1 1) rotate(0) translate(4 203)">
<title>G</title>
<polygon fill="white" stroke="transparent" points="-4,4 -4,-203 344,-203 344,4 -4,4"/>
<g id="clust1" class="cluster">
<title>cluster_Signer</title>
<polygon fill="none" stroke="black" points="8,-8 8,-155 158,-155 158,-8 8,-8"/>
<text text-anchor="middle" x="83" y="-139.8" font-family="Times,serif" font-size="14.00">Signer</text>
</g>
<g id="clust2" class="cluster">
<title>cluster_Errors</title>
<polygon fill="none" stroke="black" points="166,-8 166,-155 332,-155 332,-8 166,-8"/>
<text text-anchor="middle" x="249" y="-139.8" font-family="Times,serif" font-size="14.00">Errors</text>
</g>
<!-- publish_unrestricted_limits -->
<g id="node1" class="node">
<title>publish_unrestricted_limits</title>
<ellipse fill="none" stroke="black" cx="175" cy="-181" rx="107.48" ry="18"/>
<text text-anchor="middle" x="175" y="-177.3" font-family="Times,serif" font-size="14.00">publish_unrestricted_limits</text>
</g>
<!-- Signer::address_of -->
<g id="node2" class="node">
<title>Signer::address_of</title>
<ellipse fill="none" stroke="black" cx="92" cy="-106" rx="48.99" ry="18"/>
<text text-anchor="middle" x="92" y="-102.3" font-family="Times,serif" font-size="14.00">address_of</text>
</g>
<!-- publish_unrestricted_limits&#45;&gt;Signer::address_of -->
<g id="edge1" class="edge">
<title>publish_unrestricted_limits&#45;&gt;Signer::address_of</title>
<path fill="none" stroke="black" d="M155.75,-163.07C144.44,-153.12 129.99,-140.41 117.71,-129.61"/>
<polygon fill="black" stroke="black" points="119.83,-126.82 110.01,-122.84 115.21,-132.07 119.83,-126.82"/>
</g>
<!-- Errors::already_published -->
<g id="node3" class="node">
<title>Errors::already_published</title>
<ellipse fill="none" stroke="black" cx="249" cy="-106" rx="75.29" ry="18"/>
<text text-anchor="middle" x="249" y="-102.3" font-family="Times,serif" font-size="14.00">already_published</text>
</g>
<!-- publish_unrestricted_limits&#45;&gt;Errors::already_published -->
<g id="edge2" class="edge">
<title>publish_unrestricted_limits&#45;&gt;Errors::already_published</title>
<path fill="none" stroke="black" d="M192.16,-163.07C201.85,-153.51 214.12,-141.41 224.77,-130.9"/>
<polygon fill="black" stroke="black" points="227.52,-133.1 232.19,-123.59 222.61,-128.12 227.52,-133.1"/>
</g>
<!-- Signer::borrow_address -->
<g id="node4" class="node">
<title>Signer::borrow_address</title>
<ellipse fill="none" stroke="black" cx="83" cy="-34" rx="66.89" ry="18"/>
<text text-anchor="middle" x="83" y="-30.3" font-family="Times,serif" font-size="14.00">borrow_address</text>
</g>
<!-- Signer::address_of&#45;&gt;Signer::borrow_address -->
<g id="edge3" class="edge">
<title>Signer::address_of&#45;&gt;Signer::borrow_address</title>
<path fill="none" stroke="black" d="M89.78,-87.7C88.78,-79.98 87.59,-70.71 86.49,-62.11"/>
<polygon fill="black" stroke="black" points="89.95,-61.58 85.2,-52.1 83,-62.47 89.95,-61.58"/>
</g>
<!-- Errors::make -->
<g id="node5" class="node">
<title>Errors::make</title>
<ellipse fill="none" stroke="black" cx="249" cy="-34" rx="30.59" ry="18"/>
<text text-anchor="middle" x="249" y="-30.3" font-family="Times,serif" font-size="14.00">make</text>
</g>
<!-- Errors::already_published&#45;&gt;Errors::make -->
<g id="edge4" class="edge">
<title>Errors::already_published&#45;&gt;Errors::make</title>
<path fill="none" stroke="black" d="M249,-87.7C249,-79.98 249,-70.71 249,-62.11"/>
<polygon fill="black" stroke="black" points="252.5,-62.1 249,-52.1 245.5,-62.1 252.5,-62.1"/>
</g>
</g>
</svg>
