<?xml version="1.0" encoding="UTF-8" standalone="no"?>
<!DOCTYPE svg PUBLIC "-//W3C//DTD SVG 1.1//EN"
 "http://www.w3.org/Graphics/SVG/1.1/DTD/svg11.dtd">
<!-- Generated by graphviz version 2.46.1 (20210213.1702)
 -->
<!-- Title: G Pages: 1 -->
<svg width="959pt" height="365pt"
 viewBox="0.00 0.00 959.00 365.00" xmlns="http://www.w3.org/2000/svg" xmlns:xlink="http://www.w3.org/1999/xlink">
<g id="graph0" class="graph" transform="scale(1 1) rotate(0) translate(4 361)">
<title>G</title>
<polygon fill="white" stroke="transparent" points="-4,4 -4,-361 955,-361 955,4 -4,4"/>
<g id="clust1" class="cluster">
<title>cluster_Errors</title>
<polygon fill="none" stroke="black" points="8,-8 8,-155 435,-155 435,-8 8,-8"/>
<text text-anchor="middle" x="221.5" y="-139.8" font-family="Times,serif" font-size="14.00">Errors</text>
</g>
<g id="clust2" class="cluster">
<title>cluster_Roles</title>
<polygon fill="none" stroke="black" points="96,-238 96,-313 330,-313 330,-238 96,-238"/>
<text text-anchor="middle" x="213" y="-297.8" font-family="Times,serif" font-size="14.00">Roles</text>
</g>
<g id="clust3" class="cluster">
<title>cluster_Signer</title>
<polygon fill="none" stroke="black" points="793,-8 793,-155 943,-155 943,-8 793,-8"/>
<text text-anchor="middle" x="868" y="-139.8" font-family="Times,serif" font-size="14.00">Signer</text>
</g>
<g id="clust4" class="cluster">
<title>cluster_CoreAddresses</title>
<polygon fill="none" stroke="black" points="443,-80 443,-230 785,-230 785,-80 443,-80"/>
<text text-anchor="middle" x="614" y="-214.8" font-family="Times,serif" font-size="14.00">CoreAddresses</text>
</g>
<!-- update_limits_definition -->
<g id="node1" class="node">
<title>update_limits_definition</title>
<ellipse fill="none" stroke="black" cx="144" cy="-339" rx="96.68" ry="18"/>
<text text-anchor="middle" x="144" y="-335.3" font-family="Times,serif" font-size="14.00">update_limits_definition</text>
</g>
<!-- Errors::not_published -->
<g id="node2" class="node">
<title>Errors::not_published</title>
<ellipse fill="none" stroke="black" cx="76" cy="-106" rx="60.39" ry="18"/>
<text text-anchor="middle" x="76" y="-102.3" font-family="Times,serif" font-size="14.00">not_published</text>
</g>
<!-- update_limits_definition&#45;&gt;Errors::not_published -->
<g id="edge1" class="edge">
<title>update_limits_definition&#45;&gt;Errors::not_published</title>
<path fill="none" stroke="black" d="M101.69,-322.81C97.95,-320.05 94.6,-316.8 92,-313 54.82,-258.67 62.73,-176.37 70.18,-134.12"/>
<polygon fill="black" stroke="black" points="73.67,-134.52 72.09,-124.04 66.79,-133.22 73.67,-134.52"/>
</g>
<!-- Roles::assert_treasury_compliance -->
<g id="node3" class="node">
<title>Roles::assert_treasury_compliance</title>
<ellipse fill="none" stroke="black" cx="213" cy="-264" rx="108.58" ry="18"/>
<text text-anchor="middle" x="213" y="-260.3" font-family="Times,serif" font-size="14.00">assert_treasury_compliance</text>
</g>
<!-- update_limits_definition&#45;&gt;Roles::assert_treasury_compliance -->
<g id="edge2" class="edge">
<title>update_limits_definition&#45;&gt;Roles::assert_treasury_compliance</title>
<path fill="none" stroke="black" d="M160,-321.07C168.97,-311.58 180.31,-299.58 190.2,-289.13"/>
<polygon fill="black" stroke="black" points="192.76,-291.51 197.08,-281.84 187.67,-286.7 192.76,-291.51"/>
</g>
<!-- Errors::make -->
<g id="node4" class="node">
<title>Errors::make</title>
<ellipse fill="none" stroke="black" cx="212" cy="-34" rx="30.59" ry="18"/>
<text text-anchor="middle" x="212" y="-30.3" font-family="Times,serif" font-size="14.00">make</text>
</g>
<!-- Errors::not_published&#45;&gt;Errors::make -->
<g id="edge3" class="edge">
<title>Errors::not_published&#45;&gt;Errors::make</title>
<path fill="none" stroke="black" d="M104.84,-90.15C127.05,-78.73 157.7,-62.95 180.53,-51.2"/>
<polygon fill="black" stroke="black" points="182.2,-54.28 189.49,-46.59 178.99,-48.05 182.2,-54.28"/>
</g>
<!-- Roles::assert_treasury_compliance&#45;&gt;Errors::not_published -->
<g id="edge5" class="edge">
<title>Roles::assert_treasury_compliance&#45;&gt;Errors::not_published</title>
<path fill="none" stroke="black" d="M198.08,-246.01C173.66,-218.2 125.08,-162.88 97.12,-131.05"/>
<polygon fill="black" stroke="black" points="99.72,-128.7 90.49,-123.5 94.46,-133.32 99.72,-128.7"/>
</g>
<!-- Signer::address_of -->
<g id="node5" class="node">
<title>Signer::address_of</title>
<ellipse fill="none" stroke="black" cx="850" cy="-106" rx="48.99" ry="18"/>
<text text-anchor="middle" x="850" y="-102.3" font-family="Times,serif" font-size="14.00">address_of</text>
</g>
<!-- Roles::assert_treasury_compliance&#45;&gt;Signer::address_of -->
<g id="edge4" class="edge">
<title>Roles::assert_treasury_compliance&#45;&gt;Signer::address_of</title>
<path fill="none" stroke="black" d="M321.32,-262.61C477.4,-261.17 751.08,-255.05 789,-230 821.95,-208.23 837.8,-163.13 844.88,-134.01"/>
<polygon fill="black" stroke="black" points="848.33,-134.6 847.11,-124.08 841.5,-133.07 848.33,-134.6"/>
</g>
<!-- Errors::requires_role -->
<g id="node6" class="node">
<title>Errors::requires_role</title>
<ellipse fill="none" stroke="black" cx="212" cy="-106" rx="57.39" ry="18"/>
<text text-anchor="middle" x="212" y="-102.3" font-family="Times,serif" font-size="14.00">requires_role</text>
</g>
<!-- Roles::assert_treasury_compliance&#45;&gt;Errors::requires_role -->
<g id="edge6" class="edge">
<title>Roles::assert_treasury_compliance&#45;&gt;Errors::requires_role</title>
<path fill="none" stroke="black" d="M212.89,-245.71C212.72,-218.77 212.38,-166.54 212.18,-134.42"/>
<polygon fill="black" stroke="black" points="215.68,-134.35 212.11,-124.37 208.68,-134.39 215.68,-134.35"/>
</g>
<!-- CoreAddresses::assert_treasury_compliance -->
<g id="node7" class="node">
<title>CoreAddresses::assert_treasury_compliance</title>
<ellipse fill="none" stroke="black" cx="587" cy="-181" rx="108.58" ry="18"/>
<text text-anchor="middle" x="587" y="-177.3" font-family="Times,serif" font-size="14.00">assert_treasury_compliance</text>
</g>
<!-- Roles::assert_treasury_compliance&#45;&gt;CoreAddresses::assert_treasury_compliance -->
<g id="edge7" class="edge">
<title>Roles::assert_treasury_compliance&#45;&gt;CoreAddresses::assert_treasury_compliance</title>
<path fill="none" stroke="black" d="M276.44,-249.26C342.19,-235.02 444.83,-212.79 513.93,-197.83"/>
<polygon fill="black" stroke="black" points="514.84,-201.21 523.87,-195.67 513.36,-194.37 514.84,-201.21"/>
</g>
<!-- Signer::borrow_address -->
<g id="node8" class="node">
<title>Signer::borrow_address</title>
<ellipse fill="none" stroke="black" cx="868" cy="-34" rx="66.89" ry="18"/>
<text text-anchor="middle" x="868" y="-30.3" font-family="Times,serif" font-size="14.00">borrow_address</text>
</g>
<!-- Signer::address_of&#45;&gt;Signer::borrow_address -->
<g id="edge8" class="edge">
<title>Signer::address_of&#45;&gt;Signer::borrow_address</title>
<path fill="none" stroke="black" d="M854.36,-88.05C856.36,-80.26 858.79,-70.82 861.04,-62.08"/>
<polygon fill="black" stroke="black" points="864.46,-62.83 863.56,-52.28 857.68,-61.09 864.46,-62.83"/>
</g>
<!-- Errors::requires_role&#45;&gt;Errors::make -->
<g id="edge9" class="edge">
<title>Errors::requires_role&#45;&gt;Errors::make</title>
<path fill="none" stroke="black" d="M212,-87.7C212,-79.98 212,-70.71 212,-62.11"/>
<polygon fill="black" stroke="black" points="215.5,-62.1 212,-52.1 208.5,-62.1 215.5,-62.1"/>
</g>
<!-- CoreAddresses::assert_treasury_compliance&#45;&gt;Signer::address_of -->
<g id="edge10" class="edge">
<title>CoreAddresses::assert_treasury_compliance&#45;&gt;Signer::address_of</title>
<path fill="none" stroke="black" d="M684.11,-172.93C726.09,-168.86 769.92,-162.95 789,-155 802.88,-149.22 816.24,-139.36 826.91,-130.07"/>
<polygon fill="black" stroke="black" points="829.46,-132.48 834.5,-123.16 824.75,-127.31 829.46,-132.48"/>
</g>
<!-- Errors::requires_address -->
<g id="node9" class="node">
<title>Errors::requires_address</title>
<ellipse fill="none" stroke="black" cx="357" cy="-106" rx="69.59" ry="18"/>
<text text-anchor="middle" x="357" y="-102.3" font-family="Times,serif" font-size="14.00">requires_address</text>
</g>
<!-- CoreAddresses::assert_treasury_compliance&#45;&gt;Errors::requires_address -->
<g id="edge11" class="edge">
<title>CoreAddresses::assert_treasury_compliance&#45;&gt;Errors::requires_address</title>
<path fill="none" stroke="black" d="M498.77,-170.47C478.76,-166.84 457.86,-161.85 439,-155 421.28,-148.56 403.04,-138.31 388.28,-128.93"/>
<polygon fill="black" stroke="black" points="389.85,-125.78 379.57,-123.24 386.03,-131.64 389.85,-125.78"/>
</g>
<!-- CoreAddresses::TREASURY_COMPLIANCE_ADDRESS -->
<g id="node10" class="node">
<title>CoreAddresses::TREASURY_COMPLIANCE_ADDRESS</title>
<ellipse fill="none" stroke="black" cx="614" cy="-106" rx="163.27" ry="18"/>
<text text-anchor="middle" x="614" y="-102.3" font-family="Times,serif" font-size="14.00">TREASURY_COMPLIANCE_ADDRESS</text>
</g>
<!-- CoreAddresses::assert_treasury_compliance&#45;&gt;CoreAddresses::TREASURY_COMPLIANCE_ADDRESS -->
<g id="edge12" class="edge">
<title>CoreAddresses::assert_treasury_compliance&#45;&gt;CoreAddresses::TREASURY_COMPLIANCE_ADDRESS</title>
<path fill="none" stroke="black" d="M593.4,-162.7C596.59,-154.06 600.53,-143.42 604.1,-133.76"/>
<polygon fill="black" stroke="black" points="607.46,-134.77 607.65,-124.18 600.9,-132.34 607.46,-134.77"/>
</g>
<!-- Errors::requires_address&#45;&gt;Errors::make -->
<g id="edge13" class="edge">
<title>Errors::requires_address&#45;&gt;Errors::make</title>
<path fill="none" stroke="black" d="M325.54,-89.81C301.42,-78.17 268.27,-62.16 244.01,-50.45"/>
<polygon fill="black" stroke="black" points="245.39,-47.23 234.87,-46.04 242.35,-53.54 245.39,-47.23"/>
</g>
</g>
</svg>
