<?xml version="1.0" encoding="UTF-8" standalone="no"?>
<!DOCTYPE svg PUBLIC "-//W3C//DTD SVG 1.1//EN"
 "http://www.w3.org/Graphics/SVG/1.1/DTD/svg11.dtd">
<!-- Generated by graphviz version 2.46.1 (20210213.1702)
 -->
<!-- Title: G Pages: 1 -->
<svg width="1127pt" height="404pt"
 viewBox="0.00 0.00 1126.80 404.00" xmlns="http://www.w3.org/2000/svg" xmlns:xlink="http://www.w3.org/1999/xlink">
<g id="graph0" class="graph" transform="scale(1 1) rotate(0) translate(4 400)">
<title>G</title>
<polygon fill="white" stroke="transparent" points="-4,4 -4,-400 1122.8,-400 1122.8,4 -4,4"/>
<!-- AccountLimits -->
<g id="node1" class="node">
<title>AccountLimits</title>
<ellipse fill="none" stroke="black" cx="565.35" cy="-18" rx="63.89" ry="18"/>
<text text-anchor="middle" x="565.35" y="-14.3" font-family="Times,serif" font-size="14.00">AccountLimits</text>
</g>
<!-- XUS -->
<g id="node2" class="node">
<title>XUS</title>
<ellipse fill="none" stroke="black" cx="307.35" cy="-90" rx="28.7" ry="18"/>
<text text-anchor="middle" x="307.35" y="-86.3" font-family="Times,serif" font-size="14.00">XUS</text>
</g>
<!-- XUS&#45;&gt;AccountLimits -->
<g id="edge1" class="edge">
<title>XUS&#45;&gt;AccountLimits</title>
<path fill="none" stroke="black" d="M333.03,-82.03C374.3,-70.83 456.31,-48.58 511.01,-33.74"/>
<polygon fill="black" stroke="black" points="512.15,-37.06 520.88,-31.06 510.32,-30.3 512.15,-37.06"/>
</g>
<!-- XDX -->
<g id="node3" class="node">
<title>XDX</title>
<ellipse fill="none" stroke="black" cx="536.35" cy="-90" rx="29.8" ry="18"/>
<text text-anchor="middle" x="536.35" y="-86.3" font-family="Times,serif" font-size="14.00">XDX</text>
</g>
<!-- XDX&#45;&gt;AccountLimits -->
<g id="edge2" class="edge">
<title>XDX&#45;&gt;AccountLimits</title>
<path fill="none" stroke="black" d="M543.22,-72.41C546.56,-64.34 550.67,-54.43 554.43,-45.35"/>
<polygon fill="black" stroke="black" points="557.73,-46.53 558.32,-35.96 551.26,-43.86 557.73,-46.53"/>
</g>
<!-- VASP -->
<g id="node4" class="node">
<title>VASP</title>
<ellipse fill="none" stroke="black" cx="690.35" cy="-90" rx="32.49" ry="18"/>
<text text-anchor="middle" x="690.35" y="-86.3" font-family="Times,serif" font-size="14.00">VASP</text>
</g>
<!-- VASP&#45;&gt;AccountLimits -->
<g id="edge3" class="edge">
<title>VASP&#45;&gt;AccountLimits</title>
<path fill="none" stroke="black" d="M668.29,-76.65C649.89,-66.34 623.3,-51.45 601.75,-39.39"/>
<polygon fill="black" stroke="black" points="603.3,-36.24 592.86,-34.41 599.88,-42.35 603.3,-36.24"/>
</g>
<!-- DiemAccount -->
<g id="node5" class="node">
<title>DiemAccount</title>
<ellipse fill="none" stroke="black" cx="556.35" cy="-234" rx="60.39" ry="18"/>
<text text-anchor="middle" x="556.35" y="-230.3" font-family="Times,serif" font-size="14.00">DiemAccount</text>
</g>
<!-- DiemAccount&#45;&gt;AccountLimits -->
<g id="edge4" class="edge">
<title>DiemAccount&#45;&gt;AccountLimits</title>
<path fill="none" stroke="black" d="M560.81,-215.64C567.85,-186.16 580.25,-124.4 575.35,-72 574.55,-63.48 573.05,-54.28 571.44,-45.99"/>
<polygon fill="black" stroke="black" points="574.85,-45.16 569.41,-36.07 567.99,-46.57 574.85,-45.16"/>
</g>
<!-- DiemAccount&#45;&gt;XUS -->
<g id="edge7" class="edge">
<title>DiemAccount&#45;&gt;XUS</title>
<path fill="none" stroke="black" d="M495.85,-232.32C410,-229.92 259.42,-219.97 225.35,-180 214.97,-167.82 217.7,-158.05 225.35,-144 235.54,-125.28 255.49,-112.17 273.17,-103.67"/>
<polygon fill="black" stroke="black" points="274.98,-106.69 282.67,-99.41 272.12,-100.3 274.98,-106.69"/>
</g>
<!-- DiemAccount&#45;&gt;XDX -->
<g id="edge11" class="edge">
<title>DiemAccount&#45;&gt;XDX</title>
<path fill="none" stroke="black" d="M553.93,-215.87C550.53,-191.67 544.26,-147.21 540.2,-118.39"/>
<polygon fill="black" stroke="black" points="543.63,-117.6 538.77,-108.19 536.7,-118.58 543.63,-117.6"/>
</g>
<!-- DiemAccount&#45;&gt;VASP -->
<g id="edge14" class="edge">
<title>DiemAccount&#45;&gt;VASP</title>
<path fill="none" stroke="black" d="M572.88,-216.42C583.16,-206.04 596.62,-192.33 608.35,-180 629.31,-157.95 652.8,-132.37 669.24,-114.3"/>
<polygon fill="black" stroke="black" points="672.14,-116.33 676.27,-106.57 666.96,-111.62 672.14,-116.33"/>
</g>
<!-- TransactionFee -->
<g id="node6" class="node">
<title>TransactionFee</title>
<ellipse fill="none" stroke="black" cx="463.35" cy="-162" rx="64.99" ry="18"/>
<text text-anchor="middle" x="463.35" y="-158.3" font-family="Times,serif" font-size="14.00">TransactionFee</text>
</g>
<!-- DiemAccount&#45;&gt;TransactionFee -->
<g id="edge23" class="edge">
<title>DiemAccount&#45;&gt;TransactionFee</title>
<path fill="none" stroke="black" d="M535.24,-217.12C522.73,-207.7 506.67,-195.61 492.91,-185.25"/>
<polygon fill="black" stroke="black" points="494.78,-182.28 484.69,-179.06 490.57,-187.87 494.78,-182.28"/>
</g>
<!-- DesignatedDealer -->
<g id="node7" class="node">
<title>DesignatedDealer</title>
<ellipse fill="none" stroke="black" cx="307.35" cy="-162" rx="73.39" ry="18"/>
<text text-anchor="middle" x="307.35" y="-158.3" font-family="Times,serif" font-size="14.00">DesignatedDealer</text>
</g>
<!-- DiemAccount&#45;&gt;DesignatedDealer -->
<g id="edge26" class="edge">
<title>DiemAccount&#45;&gt;DesignatedDealer</title>
<path fill="none" stroke="black" d="M513.82,-221.05C472.42,-209.4 409.22,-191.64 363.66,-178.83"/>
<polygon fill="black" stroke="black" points="364.5,-175.43 353.93,-176.09 362.61,-182.17 364.5,-175.43"/>
</g>
<!-- DualAttestation -->
<g id="node9" class="node">
<title>DualAttestation</title>
<ellipse fill="none" stroke="black" cx="726.35" cy="-162" rx="66.09" ry="18"/>
<text text-anchor="middle" x="726.35" y="-158.3" font-family="Times,serif" font-size="14.00">DualAttestation</text>
</g>
<!-- DiemAccount&#45;&gt;DualAttestation -->
<g id="edge27" class="edge">
<title>DiemAccount&#45;&gt;DualAttestation</title>
<path fill="none" stroke="black" d="M590.34,-219C616.72,-208.14 653.49,-193 682.15,-181.2"/>
<polygon fill="black" stroke="black" points="683.62,-184.38 691.54,-177.33 680.96,-177.9 683.62,-184.38"/>
</g>
<!-- TransactionFee&#45;&gt;XUS -->
<g id="edge5" class="edge">
<title>TransactionFee&#45;&gt;XUS</title>
<path fill="none" stroke="black" d="M430.64,-146.33C403.75,-134.26 365.86,-117.25 339.2,-105.29"/>
<polygon fill="black" stroke="black" points="340.48,-102.03 329.92,-101.13 337.62,-108.42 340.48,-102.03"/>
</g>
<!-- TransactionFee&#45;&gt;XDX -->
<g id="edge9" class="edge">
<title>TransactionFee&#45;&gt;XDX</title>
<path fill="none" stroke="black" d="M480.65,-144.41C490.55,-134.91 503.1,-122.88 513.77,-112.65"/>
<polygon fill="black" stroke="black" points="516.36,-115.02 521.15,-105.57 511.51,-109.97 516.36,-115.02"/>
</g>
<!-- DesignatedDealer&#45;&gt;XUS -->
<g id="edge6" class="edge">
<title>DesignatedDealer&#45;&gt;XUS</title>
<path fill="none" stroke="black" d="M307.35,-143.7C307.35,-135.98 307.35,-126.71 307.35,-118.11"/>
<polygon fill="black" stroke="black" points="310.85,-118.1 307.35,-108.1 303.85,-118.1 310.85,-118.1"/>
</g>
<!-- Genesis -->
<g id="node8" class="node">
<title>Genesis</title>
<ellipse fill="none" stroke="black" cx="38.35" cy="-306" rx="38.19" ry="18"/>
<text text-anchor="middle" x="38.35" y="-302.3" font-family="Times,serif" font-size="14.00">Genesis</text>
</g>
<!-- Genesis&#45;&gt;XUS -->
<g id="edge8" class="edge">
<title>Genesis&#45;&gt;XUS</title>
<path fill="none" stroke="black" d="M43.43,-288.08C54.16,-255.29 82.25,-182.87 131.35,-144 171.48,-112.22 230.42,-99.46 268.85,-94.36"/>
<polygon fill="black" stroke="black" points="269.6,-97.79 279.11,-93.11 268.76,-90.84 269.6,-97.79"/>
</g>
<!-- Genesis&#45;&gt;XDX -->
<g id="edge12" class="edge">
<title>Genesis&#45;&gt;XDX</title>
<path fill="none" stroke="black" d="M51.4,-289.01C79.41,-255.9 148.98,-179.93 225.35,-144 273,-121.58 424.53,-102.94 497.01,-95.05"/>
<polygon fill="black" stroke="black" points="497.53,-98.51 507.1,-93.96 496.79,-91.55 497.53,-98.51"/>
</g>
<!-- Genesis&#45;&gt;DiemAccount -->
<g id="edge20" class="edge">
<title>Genesis&#45;&gt;DiemAccount</title>
<path fill="none" stroke="black" d="M66.35,-293.62C72.52,-291.47 79.09,-289.44 85.35,-288 233.86,-253.83 275,-269.88 426.35,-252 447.91,-249.45 471.45,-246.44 492.51,-243.67"/>
<polygon fill="black" stroke="black" points="493.17,-247.11 502.62,-242.33 492.25,-240.17 493.17,-247.11"/>
</g>
<!-- Genesis&#45;&gt;TransactionFee -->
<g id="edge24" class="edge">
<title>Genesis&#45;&gt;TransactionFee</title>
<path fill="none" stroke="black" d="M67.64,-294.26C73.49,-292.16 79.61,-289.99 85.35,-288 202.16,-247.57 340.24,-202.62 412.86,-179.2"/>
<polygon fill="black" stroke="black" points="414.22,-182.44 422.67,-176.04 412.08,-175.78 414.22,-182.44"/>
</g>
<!-- Genesis&#45;&gt;DualAttestation -->
<g id="edge29" class="edge">
<title>Genesis&#45;&gt;DualAttestation</title>
<path fill="none" stroke="black" d="M66.95,-293.86C72.97,-291.74 79.33,-289.67 85.35,-288 113.37,-280.25 508.01,-204.67 663.77,-174.93"/>
<polygon fill="black" stroke="black" points="664.51,-178.35 673.68,-173.04 663.2,-171.48 664.51,-178.35"/>
</g>
<!-- DualAttestation&#45;&gt;XDX -->
<g id="edge10" class="edge">
<title>DualAttestation&#45;&gt;XDX</title>
<path fill="none" stroke="black" d="M688.35,-147C654.1,-134.38 604.16,-115.98 570.99,-103.76"/>
<polygon fill="black" stroke="black" points="571.86,-100.35 561.26,-100.18 569.44,-106.92 571.86,-100.35"/>
</g>
<!-- DualAttestation&#45;&gt;VASP -->
<g id="edge13" class="edge">
<title>DualAttestation&#45;&gt;VASP</title>
<path fill="none" stroke="black" d="M717.63,-144.05C713.43,-135.89 708.3,-125.91 703.63,-116.82"/>
<polygon fill="black" stroke="black" points="706.67,-115.08 698.98,-107.79 700.44,-118.28 706.67,-115.08"/>
</g>
<!-- RecoveryAddress -->
<g id="node10" class="node">
<title>RecoveryAddress</title>
<ellipse fill="none" stroke="black" cx="1026.35" cy="-306" rx="73.39" ry="18"/>
<text text-anchor="middle" x="1026.35" y="-302.3" font-family="Times,serif" font-size="14.00">RecoveryAddress</text>
</g>
<!-- RecoveryAddress&#45;&gt;VASP -->
<g id="edge15" class="edge">
<title>RecoveryAddress&#45;&gt;VASP</title>
<path fill="none" stroke="black" d="M1006.08,-288.63C967.62,-258 880.76,-190.88 801.35,-144 776.68,-129.44 747.38,-115.58 725.08,-105.69"/>
<polygon fill="black" stroke="black" points="726.25,-102.38 715.68,-101.57 723.44,-108.79 726.25,-102.38"/>
</g>
<!-- RecoveryAddress&#45;&gt;DiemAccount -->
<g id="edge17" class="edge">
<title>RecoveryAddress&#45;&gt;DiemAccount</title>
<path fill="none" stroke="black" d="M972.87,-293.51C963.07,-291.55 952.92,-289.63 943.35,-288 830.75,-268.78 698.79,-251.91 621.68,-242.61"/>
<polygon fill="black" stroke="black" points="621.98,-239.13 611.64,-241.41 621.15,-246.08 621.98,-239.13"/>
</g>
<!-- SharedEd25519PublicKey -->
<g id="node11" class="node">
<title>SharedEd25519PublicKey</title>
<ellipse fill="none" stroke="black" cx="556.35" cy="-306" rx="103.98" ry="18"/>
<text text-anchor="middle" x="556.35" y="-302.3" font-family="Times,serif" font-size="14.00">SharedEd25519PublicKey</text>
</g>
<!-- SharedEd25519PublicKey&#45;&gt;DiemAccount -->
<g id="edge16" class="edge">
<title>SharedEd25519PublicKey&#45;&gt;DiemAccount</title>
<path fill="none" stroke="black" d="M556.35,-287.7C556.35,-279.98 556.35,-270.71 556.35,-262.11"/>
<polygon fill="black" stroke="black" points="559.85,-262.1 556.35,-252.1 552.85,-262.1 559.85,-262.1"/>
</g>
<!-- AccountAdministrationScripts -->
<g id="node12" class="node">
<title>AccountAdministrationScripts</title>
<ellipse fill="none" stroke="black" cx="857.35" cy="-378" rx="118.08" ry="18"/>
<text text-anchor="middle" x="857.35" y="-374.3" font-family="Times,serif" font-size="14.00">AccountAdministrationScripts</text>
</g>
<!-- AccountAdministrationScripts&#45;&gt;DiemAccount -->
<g id="edge18" class="edge">
<title>AccountAdministrationScripts&#45;&gt;DiemAccount</title>
<path fill="none" stroke="black" d="M798.18,-362.34C769.48,-353.7 735.27,-341.08 707.35,-324 687.5,-311.86 688.57,-301.11 669.35,-288 648.54,-273.81 623.34,-261.59 602.02,-252.46"/>
<polygon fill="black" stroke="black" points="603.11,-249.12 592.53,-248.49 600.41,-255.58 603.11,-249.12"/>
</g>
<!-- AccountAdministrationScripts&#45;&gt;DualAttestation -->
<g id="edge28" class="edge">
<title>AccountAdministrationScripts&#45;&gt;DualAttestation</title>
<path fill="none" stroke="black" d="M970.91,-372.82C1055.26,-365.19 1149.19,-344.34 1108.35,-288 1038.64,-191.85 892.79,-168.3 802.84,-163.31"/>
<polygon fill="black" stroke="black" points="802.85,-159.81 792.69,-162.81 802.51,-166.8 802.85,-159.81"/>
</g>
<!-- AccountAdministrationScripts&#45;&gt;RecoveryAddress -->
<g id="edge31" class="edge">
<title>AccountAdministrationScripts&#45;&gt;RecoveryAddress</title>
<path fill="none" stroke="black" d="M896.12,-360.94C921.46,-350.44 954.66,-336.69 981.19,-325.7"/>
<polygon fill="black" stroke="black" points="982.74,-328.85 990.64,-321.79 980.06,-322.38 982.74,-328.85"/>
</g>
<!-- AccountAdministrationScripts&#45;&gt;SharedEd25519PublicKey -->
<g id="edge32" class="edge">
<title>AccountAdministrationScripts&#45;&gt;SharedEd25519PublicKey</title>
<path fill="none" stroke="black" d="M795.34,-362.58C745.97,-351.1 676.9,-335.04 625.7,-323.13"/>
<polygon fill="black" stroke="black" points="626.24,-319.66 615.71,-320.8 624.65,-326.48 626.24,-319.66"/>
</g>
<!-- AccountCreationScripts -->
<g id="node13" class="node">
<title>AccountCreationScripts</title>
<ellipse fill="none" stroke="black" cx="189.35" cy="-306" rx="94.78" ry="18"/>
<text text-anchor="middle" x="189.35" y="-302.3" font-family="Times,serif" font-size="14.00">AccountCreationScripts</text>
</g>
<!-- AccountCreationScripts&#45;&gt;DiemAccount -->
<g id="edge19" class="edge">
<title>AccountCreationScripts&#45;&gt;DiemAccount</title>
<path fill="none" stroke="black" d="M253.69,-292.73C322.33,-279.64 430.14,-259.07 496.85,-246.35"/>
<polygon fill="black" stroke="black" points="497.63,-249.76 506.79,-244.45 496.31,-242.89 497.63,-249.76"/>
</g>
<!-- PaymentScripts -->
<g id="node14" class="node">
<title>PaymentScripts</title>
<ellipse fill="none" stroke="black" cx="368.35" cy="-306" rx="66.09" ry="18"/>
<text text-anchor="middle" x="368.35" y="-302.3" font-family="Times,serif" font-size="14.00">PaymentScripts</text>
</g>
<!-- PaymentScripts&#45;&gt;DiemAccount -->
<g id="edge21" class="edge">
<title>PaymentScripts&#45;&gt;DiemAccount</title>
<path fill="none" stroke="black" d="M405.94,-291C436.04,-279.79 478.4,-264.02 510.49,-252.07"/>
<polygon fill="black" stroke="black" points="511.95,-255.27 520.1,-248.5 509.5,-248.71 511.95,-255.27"/>
</g>
<!-- TreasuryComplianceScripts -->
<g id="node15" class="node">
<title>TreasuryComplianceScripts</title>
<ellipse fill="none" stroke="black" cx="825.35" cy="-306" rx="109.38" ry="18"/>
<text text-anchor="middle" x="825.35" y="-302.3" font-family="Times,serif" font-size="14.00">TreasuryComplianceScripts</text>
</g>
<!-- TreasuryComplianceScripts&#45;&gt;DiemAccount -->
<g id="edge22" class="edge">
<title>TreasuryComplianceScripts&#45;&gt;DiemAccount</title>
<path fill="none" stroke="black" d="M769.61,-290.5C722.87,-278.33 656.54,-261.07 610.31,-249.04"/>
<polygon fill="black" stroke="black" points="611.03,-245.61 600.47,-246.48 609.27,-252.39 611.03,-245.61"/>
</g>
<!-- TreasuryComplianceScripts&#45;&gt;TransactionFee -->
<g id="edge25" class="edge">
<title>TreasuryComplianceScripts&#45;&gt;TransactionFee</title>
<path fill="none" stroke="black" d="M791.82,-288.81C752.45,-270.1 684.93,-238.94 625.35,-216 589.18,-202.08 547.63,-188.53 515.66,-178.62"/>
<polygon fill="black" stroke="black" points="516.65,-175.26 506.06,-175.66 514.59,-181.95 516.65,-175.26"/>
</g>
<!-- TreasuryComplianceScripts&#45;&gt;DualAttestation -->
<g id="edge30" class="edge">
<title>TreasuryComplianceScripts&#45;&gt;DualAttestation</title>
<path fill="none" stroke="black" d="M813.4,-287.87C796.07,-263 763.82,-216.75 743.81,-188.05"/>
<polygon fill="black" stroke="black" points="746.61,-185.95 738.02,-179.75 740.87,-189.95 746.61,-185.95"/>
</g>
</g>
</svg>
