<?xml version="1.0" encoding="UTF-8" standalone="no"?>
<!DOCTYPE svg PUBLIC "-//W3C//DTD SVG 1.1//EN"
 "http://www.w3.org/Graphics/SVG/1.1/DTD/svg11.dtd">
<!-- Generated by graphviz version 2.46.1 (20210213.1702)
 -->
<!-- Title: G Pages: 1 -->
<svg width="3232pt" height="836pt"
 viewBox="0.00 0.00 3232.00 836.00" xmlns="http://www.w3.org/2000/svg" xmlns:xlink="http://www.w3.org/1999/xlink">
<g id="graph0" class="graph" transform="scale(1 1) rotate(0) translate(4 832)">
<title>G</title>
<polygon fill="white" stroke="transparent" points="-4,4 -4,-832 3228,-832 3228,4 -4,4"/>
<!-- AccountAdministrationScripts -->
<g id="node1" class="node">
<title>AccountAdministrationScripts</title>
<ellipse fill="none" stroke="black" cx="312" cy="-810" rx="118.08" ry="18"/>
<text text-anchor="middle" x="312" y="-806.3" font-family="Times,serif" font-size="14.00">AccountAdministrationScripts</text>
</g>
<!-- SlidingNonce -->
<g id="node2" class="node">
<title>SlidingNonce</title>
<ellipse fill="none" stroke="black" cx="353" cy="-450" rx="59.29" ry="18"/>
<text text-anchor="middle" x="353" y="-446.3" font-family="Times,serif" font-size="14.00">SlidingNonce</text>
</g>
<!-- AccountAdministrationScripts&#45;&gt;SlidingNonce -->
<g id="edge1" class="edge">
<title>AccountAdministrationScripts&#45;&gt;SlidingNonce</title>
<path fill="none" stroke="black" d="M313.98,-791.73C320.57,-734.19 341.82,-548.66 349.87,-478.35"/>
<polygon fill="black" stroke="black" points="353.38,-478.43 351.04,-468.09 346.43,-477.63 353.38,-478.43"/>
</g>
<!-- DualAttestation -->
<g id="node3" class="node">
<title>DualAttestation</title>
<ellipse fill="none" stroke="black" cx="772" cy="-594" rx="66.09" ry="18"/>
<text text-anchor="middle" x="772" y="-590.3" font-family="Times,serif" font-size="14.00">DualAttestation</text>
</g>
<!-- AccountAdministrationScripts&#45;&gt;DualAttestation -->
<g id="edge2" class="edge">
<title>AccountAdministrationScripts&#45;&gt;DualAttestation</title>
<path fill="none" stroke="black" d="M346.95,-792.74C430.5,-753.87 641.46,-655.73 730.9,-614.12"/>
<polygon fill="black" stroke="black" points="732.59,-617.19 740.18,-609.8 729.64,-610.85 732.59,-617.19"/>
</g>
<!-- DiemAccount -->
<g id="node4" class="node">
<title>DiemAccount</title>
<ellipse fill="none" stroke="black" cx="1423" cy="-666" rx="60.39" ry="18"/>
<text text-anchor="middle" x="1423" y="-662.3" font-family="Times,serif" font-size="14.00">DiemAccount</text>
</g>
<!-- AccountAdministrationScripts&#45;&gt;DiemAccount -->
<g id="edge3" class="edge">
<title>AccountAdministrationScripts&#45;&gt;DiemAccount</title>
<path fill="none" stroke="black" d="M418.42,-802.07C537.14,-793.73 734.78,-778.05 904,-756 1071.72,-734.15 1268.08,-697.4 1364.09,-678.7"/>
<polygon fill="black" stroke="black" points="1365.04,-682.08 1374.18,-676.72 1363.7,-675.21 1365.04,-682.08"/>
</g>
<!-- SharedEd25519PublicKey -->
<g id="node5" class="node">
<title>SharedEd25519PublicKey</title>
<ellipse fill="none" stroke="black" cx="128" cy="-738" rx="103.98" ry="18"/>
<text text-anchor="middle" x="128" y="-734.3" font-family="Times,serif" font-size="14.00">SharedEd25519PublicKey</text>
</g>
<!-- AccountAdministrationScripts&#45;&gt;SharedEd25519PublicKey -->
<g id="edge4" class="edge">
<title>AccountAdministrationScripts&#45;&gt;SharedEd25519PublicKey</title>
<path fill="none" stroke="black" d="M270.25,-793.12C243,-782.75 207.28,-769.16 178.44,-758.19"/>
<polygon fill="black" stroke="black" points="179.54,-754.86 168.95,-754.58 177.06,-761.41 179.54,-754.86"/>
</g>
<!-- RecoveryAddress -->
<g id="node6" class="node">
<title>RecoveryAddress</title>
<ellipse fill="none" stroke="black" cx="822" cy="-738" rx="73.39" ry="18"/>
<text text-anchor="middle" x="822" y="-734.3" font-family="Times,serif" font-size="14.00">RecoveryAddress</text>
</g>
<!-- AccountAdministrationScripts&#45;&gt;RecoveryAddress -->
<g id="edge5" class="edge">
<title>AccountAdministrationScripts&#45;&gt;RecoveryAddress</title>
<path fill="none" stroke="black" d="M396.5,-797.4C495,-783.88 656.14,-761.77 749.29,-748.98"/>
<polygon fill="black" stroke="black" points="750.04,-752.41 759.47,-747.58 749.08,-745.48 750.04,-752.41"/>
</g>
<!-- Signer -->
<g id="node7" class="node">
<title>Signer</title>
<ellipse fill="none" stroke="black" cx="1078" cy="-18" rx="33.6" ry="18"/>
<text text-anchor="middle" x="1078" y="-14.3" font-family="Times,serif" font-size="14.00">Signer</text>
</g>
<!-- SlidingNonce&#45;&gt;Signer -->
<g id="edge6" class="edge">
<title>SlidingNonce&#45;&gt;Signer</title>
<path fill="none" stroke="black" d="M325.05,-434.02C291.22,-414.08 236.06,-375.28 214,-324 169.75,-221.11 137.27,-153.58 214,-72 242.36,-41.84 862.22,-24.33 1034.13,-20.04"/>
<polygon fill="black" stroke="black" points="1034.42,-23.53 1044.33,-19.79 1034.25,-16.54 1034.42,-23.53"/>
</g>
<!-- Errors -->
<g id="node8" class="node">
<title>Errors</title>
<ellipse fill="none" stroke="black" cx="2119" cy="-18" rx="32.49" ry="18"/>
<text text-anchor="middle" x="2119" y="-14.3" font-family="Times,serif" font-size="14.00">Errors</text>
</g>
<!-- SlidingNonce&#45;&gt;Errors -->
<g id="edge7" class="edge">
<title>SlidingNonce&#45;&gt;Errors</title>
<path fill="none" stroke="black" d="M373.34,-432.95C413.72,-400.66 506.05,-324.73 575,-252 617.22,-207.47 608.5,-175.76 661,-144 806.21,-56.16 867.5,-92.2 1036,-72 1438.53,-23.75 1930.25,-19.17 2076.22,-18.94"/>
<polygon fill="black" stroke="black" points="2076.53,-22.43 2086.52,-18.92 2076.52,-15.43 2076.53,-22.43"/>
</g>
<!-- DualAttestation&#45;&gt;Signer -->
<g id="edge8" class="edge">
<title>DualAttestation&#45;&gt;Signer</title>
<path fill="none" stroke="black" d="M708.72,-588.6C658.7,-582.9 588.47,-569.86 534,-540 528.74,-537.12 228,-241 228,-235 228,-235 228,-235 228,-161 228,-144.34 223.19,-124.96 478,-72 682.94,-29.4 934.21,-21.02 1034.07,-19.39"/>
<polygon fill="black" stroke="black" points="1034.15,-22.88 1044.1,-19.24 1034.05,-15.89 1034.15,-22.88"/>
</g>
<!-- DualAttestation&#45;&gt;Errors -->
<g id="edge9" class="edge">
<title>DualAttestation&#45;&gt;Errors</title>
<path fill="none" stroke="black" d="M783.6,-575.93C800.01,-550.09 828,-498.97 828,-451 828,-451 828,-451 828,-377 828,-229.92 946.23,-233.43 1063,-144 1088.3,-124.63 1156.48,-81.16 1187,-72 1356.58,-21.13 1915.53,-18.49 2075.74,-18.8"/>
<polygon fill="black" stroke="black" points="2076.13,-22.3 2086.14,-18.83 2076.15,-15.3 2076.13,-22.3"/>
</g>
<!-- CoreAddresses -->
<g id="node9" class="node">
<title>CoreAddresses</title>
<ellipse fill="none" stroke="black" cx="1359" cy="-90" rx="63.89" ry="18"/>
<text text-anchor="middle" x="1359" y="-86.3" font-family="Times,serif" font-size="14.00">CoreAddresses</text>
</g>
<!-- DualAttestation&#45;&gt;CoreAddresses -->
<g id="edge10" class="edge">
<title>DualAttestation&#45;&gt;CoreAddresses</title>
<path fill="none" stroke="black" d="M741.59,-577.92C702.06,-555.91 638,-511 638,-451 638,-451 638,-451 638,-377 638,-265.83 639.91,-210.5 729,-144 772.76,-111.34 1129.19,-97.43 1285.73,-92.85"/>
<polygon fill="black" stroke="black" points="1285.85,-96.35 1295.75,-92.57 1285.65,-89.36 1285.85,-96.35"/>
</g>
<!-- DiemTimestamp -->
<g id="node10" class="node">
<title>DiemTimestamp</title>
<ellipse fill="none" stroke="black" cx="2218" cy="-162" rx="71.49" ry="18"/>
<text text-anchor="middle" x="2218" y="-158.3" font-family="Times,serif" font-size="14.00">DiemTimestamp</text>
</g>
<!-- DualAttestation&#45;&gt;DiemTimestamp -->
<g id="edge11" class="edge">
<title>DualAttestation&#45;&gt;DiemTimestamp</title>
<path fill="none" stroke="black" d="M816.16,-580.46C882.55,-561.92 1012.23,-526.92 1124,-504 1324.56,-462.86 1376.13,-459.59 1579,-432 1719.06,-412.95 1769.05,-460.16 1895,-396 1914.34,-386.15 1912.78,-375.47 1928,-360 1960.63,-326.83 1966.64,-315.74 2004,-288 2029.89,-268.77 2040.53,-270.42 2067,-252 2087.46,-237.76 2089.11,-229.59 2110,-216 2129.95,-203.02 2153.54,-191.1 2173.58,-181.86"/>
<polygon fill="black" stroke="black" points="2175.14,-185 2182.8,-177.68 2172.24,-178.62 2175.14,-185"/>
</g>
<!-- Signature -->
<g id="node11" class="node">
<title>Signature</title>
<ellipse fill="none" stroke="black" cx="414" cy="-306" rx="44.39" ry="18"/>
<text text-anchor="middle" x="414" y="-302.3" font-family="Times,serif" font-size="14.00">Signature</text>
</g>
<!-- DualAttestation&#45;&gt;Signature -->
<g id="edge12" class="edge">
<title>DualAttestation&#45;&gt;Signature</title>
<path fill="none" stroke="black" d="M710.5,-587.23C669.83,-580.91 617.01,-567.68 578,-540 498.77,-483.78 510.83,-438.79 454,-360 447.25,-350.65 439.67,-340.51 432.94,-331.63"/>
<polygon fill="black" stroke="black" points="435.64,-329.4 426.8,-323.57 430.07,-333.65 435.64,-329.4"/>
</g>
<!-- Roles -->
<g id="node12" class="node">
<title>Roles</title>
<ellipse fill="none" stroke="black" cx="2150" cy="-234" rx="30.59" ry="18"/>
<text text-anchor="middle" x="2150" y="-230.3" font-family="Times,serif" font-size="14.00">Roles</text>
</g>
<!-- DualAttestation&#45;&gt;Roles -->
<g id="edge13" class="edge">
<title>DualAttestation&#45;&gt;Roles</title>
<path fill="none" stroke="black" d="M828.59,-584.61C987.05,-561.06 1433.11,-494.33 1579,-468 1581.44,-467.56 1925.81,-397.14 1928,-396 1948.63,-385.24 1948.81,-375.68 1966,-360 1983.92,-343.66 2027.98,-301.69 2048,-288 2069.76,-273.12 2096.21,-259.49 2116.73,-249.77"/>
<polygon fill="black" stroke="black" points="2118.4,-252.86 2125.99,-245.46 2115.45,-246.51 2118.4,-252.86"/>
</g>
<!-- Vector -->
<g id="node13" class="node">
<title>Vector</title>
<ellipse fill="none" stroke="black" cx="772" cy="-162" rx="33.6" ry="18"/>
<text text-anchor="middle" x="772" y="-158.3" font-family="Times,serif" font-size="14.00">Vector</text>
</g>
<!-- DualAttestation&#45;&gt;Vector -->
<g id="edge14" class="edge">
<title>DualAttestation&#45;&gt;Vector</title>
<path fill="none" stroke="black" d="M769.24,-575.67C761.44,-525.66 739.29,-376.66 732,-252 731.07,-236.03 726.92,-231.17 732,-216 735.66,-205.07 742.57,-194.58 749.63,-185.87"/>
<polygon fill="black" stroke="black" points="752.45,-187.96 756.34,-178.1 747.15,-183.38 752.45,-187.96"/>
</g>
<!-- BCS -->
<g id="node14" class="node">
<title>BCS</title>
<ellipse fill="none" stroke="black" cx="458" cy="-162" rx="27.1" ry="18"/>
<text text-anchor="middle" x="458" y="-158.3" font-family="Times,serif" font-size="14.00">BCS</text>
</g>
<!-- DualAttestation&#45;&gt;BCS -->
<g id="edge15" class="edge">
<title>DualAttestation&#45;&gt;BCS</title>
<path fill="none" stroke="black" d="M716.09,-584.1C685.7,-576.75 649.26,-563.53 624,-540 516.71,-440.06 474.8,-258.38 462.36,-190"/>
<polygon fill="black" stroke="black" points="465.79,-189.27 460.61,-180.02 458.89,-190.48 465.79,-189.27"/>
</g>
<!-- Event -->
<g id="node15" class="node">
<title>Event</title>
<ellipse fill="none" stroke="black" cx="772" cy="-234" rx="31.4" ry="18"/>
<text text-anchor="middle" x="772" y="-230.3" font-family="Times,serif" font-size="14.00">Event</text>
</g>
<!-- DualAttestation&#45;&gt;Event -->
<g id="edge16" class="edge">
<title>DualAttestation&#45;&gt;Event</title>
<path fill="none" stroke="black" d="M772,-575.73C772,-518.19 772,-332.66 772,-262.35"/>
<polygon fill="black" stroke="black" points="775.5,-262.09 772,-252.09 768.5,-262.09 775.5,-262.09"/>
</g>
<!-- Diem -->
<g id="node16" class="node">
<title>Diem</title>
<ellipse fill="none" stroke="black" cx="1795" cy="-450" rx="30.59" ry="18"/>
<text text-anchor="middle" x="1795" y="-446.3" font-family="Times,serif" font-size="14.00">Diem</text>
</g>
<!-- DualAttestation&#45;&gt;Diem -->
<g id="edge17" class="edge">
<title>DualAttestation&#45;&gt;Diem</title>
<path fill="none" stroke="black" d="M836.18,-589.21C944.51,-582.36 1170.38,-566.17 1360,-540 1532.88,-516.14 1577.31,-512.73 1746,-468 1750.7,-466.75 1755.6,-465.28 1760.41,-463.72"/>
<polygon fill="black" stroke="black" points="1761.69,-466.98 1770.04,-460.47 1759.45,-460.35 1761.69,-466.98"/>
</g>
<!-- XDX -->
<g id="node17" class="node">
<title>XDX</title>
<ellipse fill="none" stroke="black" cx="2332" cy="-522" rx="29.8" ry="18"/>
<text text-anchor="middle" x="2332" y="-518.3" font-family="Times,serif" font-size="14.00">XDX</text>
</g>
<!-- DualAttestation&#45;&gt;XDX -->
<g id="edge18" class="edge">
<title>DualAttestation&#45;&gt;XDX</title>
<path fill="none" stroke="black" d="M837.62,-591.14C1030.93,-585.51 1615.01,-567.31 2099,-540 2167,-536.16 2246.04,-530.05 2292.38,-526.29"/>
<polygon fill="black" stroke="black" points="2292.91,-529.76 2302.6,-525.46 2292.34,-522.78 2292.91,-529.76"/>
</g>
<!-- VASP -->
<g id="node18" class="node">
<title>VASP</title>
<ellipse fill="none" stroke="black" cx="2536" cy="-378" rx="32.49" ry="18"/>
<text text-anchor="middle" x="2536" y="-374.3" font-family="Times,serif" font-size="14.00">VASP</text>
</g>
<!-- DualAttestation&#45;&gt;VASP -->
<g id="edge19" class="edge">
<title>DualAttestation&#45;&gt;VASP</title>
<path fill="none" stroke="black" d="M837.01,-589.93C963.19,-583.58 1250,-567.29 1490,-540 1883.21,-495.3 2355.21,-411.85 2495.07,-386.49"/>
<polygon fill="black" stroke="black" points="2496.1,-389.86 2505.31,-384.63 2494.85,-382.98 2496.1,-389.86"/>
</g>
<!-- DiemAccount&#45;&gt;SlidingNonce -->
<g id="edge24" class="edge">
<title>DiemAccount&#45;&gt;SlidingNonce</title>
<path fill="none" stroke="black" d="M1362.54,-665.39C1158.42,-666.22 503.21,-664.72 426,-612 380.9,-581.21 363.23,-515.44 356.64,-478.19"/>
<polygon fill="black" stroke="black" points="360.06,-477.37 355,-468.06 353.15,-478.49 360.06,-477.37"/>
</g>
<!-- DiemAccount&#45;&gt;DualAttestation -->
<g id="edge40" class="edge">
<title>DiemAccount&#45;&gt;DualAttestation</title>
<path fill="none" stroke="black" d="M1363.95,-661.8C1260.01,-655.66 1037.78,-640.26 852,-612 845.21,-610.97 838.13,-609.72 831.11,-608.37"/>
<polygon fill="black" stroke="black" points="831.4,-604.86 820.91,-606.34 830.04,-611.72 831.4,-604.86"/>
</g>
<!-- DiemAccount&#45;&gt;Signer -->
<g id="edge20" class="edge">
<title>DiemAccount&#45;&gt;Signer</title>
<path fill="none" stroke="black" d="M1362.36,-664.96C1146.78,-664.41 425.48,-659.03 334,-612 230.25,-558.66 76,-470.24 76,-235 76,-235 76,-235 76,-161 76,-98.8 126.11,-94.74 184,-72 263.51,-40.77 865.39,-24.1 1034.14,-20.01"/>
<polygon fill="black" stroke="black" points="1034.24,-23.51 1044.16,-19.77 1034.08,-16.51 1034.24,-23.51"/>
</g>
<!-- DiemAccount&#45;&gt;Errors -->
<g id="edge21" class="edge">
<title>DiemAccount&#45;&gt;Errors</title>
<path fill="none" stroke="black" d="M1483.33,-664.69C1721.33,-663.18 2595.52,-654.78 2869,-612 3013.58,-589.38 3186,-669.34 3186,-523 3186,-523 3186,-523 3186,-161 3186,-118.16 3184.01,-96.68 3149,-72 3108.04,-43.12 2350.89,-24.22 2161.61,-19.93"/>
<polygon fill="black" stroke="black" points="2161.57,-16.43 2151.49,-19.7 2161.41,-23.43 2161.57,-16.43"/>
</g>
<!-- DiemAccount&#45;&gt;CoreAddresses -->
<g id="edge22" class="edge">
<title>DiemAccount&#45;&gt;CoreAddresses</title>
<path fill="none" stroke="black" d="M1363.66,-662.42C1220.13,-654.56 866,-624.85 866,-523 866,-523 866,-523 866,-449 866,-435.87 1215.75,-150.77 1227,-144 1252.22,-128.83 1282.56,-116.29 1307.8,-107.23"/>
<polygon fill="black" stroke="black" points="1309.28,-110.42 1317.55,-103.81 1306.96,-103.82 1309.28,-110.42"/>
</g>
<!-- DiemAccount&#45;&gt;DiemTimestamp -->
<g id="edge23" class="edge">
<title>DiemAccount&#45;&gt;DiemTimestamp</title>
<path fill="none" stroke="black" d="M1483.08,-663.45C1723.11,-657.12 2606.31,-632.65 2730,-612 2852.96,-591.47 2996,-647.66 2996,-523 2996,-523 2996,-523 2996,-305 2996,-203.22 2883.71,-240.8 2785,-216 2616,-173.53 2410.95,-164.42 2299.59,-162.86"/>
<polygon fill="black" stroke="black" points="2299.49,-159.36 2289.44,-162.74 2299.4,-166.36 2299.49,-159.36"/>
</g>
<!-- DiemAccount&#45;&gt;Roles -->
<g id="edge25" class="edge">
<title>DiemAccount&#45;&gt;Roles</title>
<path fill="none" stroke="black" d="M1483.3,-664.48C1596.7,-662.53 1836.63,-653.46 1907,-612 2025.14,-542.39 2005.3,-471.58 2085,-360 2096.47,-343.94 2101.21,-341.14 2111,-324 2122.58,-303.73 2133.04,-279.37 2140.2,-261.27"/>
<polygon fill="black" stroke="black" points="2143.48,-262.5 2143.83,-251.92 2136.95,-259.97 2143.48,-262.5"/>
</g>
<!-- DiemAccount&#45;&gt;Vector -->
<g id="edge26" class="edge">
<title>DiemAccount&#45;&gt;Vector</title>
<path fill="none" stroke="black" d="M1362.73,-664.27C1207.69,-661.85 798.18,-651.75 669,-612 593.81,-588.86 516,-601.67 516,-523 516,-523 516,-523 516,-449 516,-316.94 669.42,-217.95 738.72,-179.97"/>
<polygon fill="black" stroke="black" points="740.77,-182.84 747.92,-175.02 737.45,-176.68 740.77,-182.84"/>
</g>
<!-- DiemAccount&#45;&gt;BCS -->
<g id="edge27" class="edge">
<title>DiemAccount&#45;&gt;BCS</title>
<path fill="none" stroke="black" d="M1362.55,-664.62C1174.05,-662.99 605.43,-654.55 535,-612 527,-607.17 363.51,-333 361,-324 356.71,-308.59 355.82,-303.14 361,-288 365.02,-276.26 411.69,-218.82 438.8,-186.04"/>
<polygon fill="black" stroke="black" points="441.54,-188.21 445.23,-178.28 436.15,-183.75 441.54,-188.21"/>
</g>
<!-- DiemAccount&#45;&gt;Event -->
<g id="edge28" class="edge">
<title>DiemAccount&#45;&gt;Event</title>
<path fill="none" stroke="black" d="M1362.52,-665.19C1196.31,-665.07 741.91,-660.3 697,-612 602.61,-510.47 710.79,-325.48 754.94,-259.33"/>
<polygon fill="black" stroke="black" points="758,-261.04 760.72,-250.8 752.21,-257.12 758,-261.04"/>
</g>
<!-- DiemAccount&#45;&gt;Diem -->
<g id="edge30" class="edge">
<title>DiemAccount&#45;&gt;Diem</title>
<path fill="none" stroke="black" d="M1479.64,-659.69C1550.05,-652.15 1665.22,-636.49 1700,-612 1747.1,-578.84 1774.55,-514.28 1786.96,-477.79"/>
<polygon fill="black" stroke="black" points="1790.43,-478.45 1790.2,-467.86 1783.77,-476.28 1790.43,-478.45"/>
</g>
<!-- DiemAccount&#45;&gt;XDX -->
<g id="edge33" class="edge">
<title>DiemAccount&#45;&gt;XDX</title>
<path fill="none" stroke="black" d="M1483.26,-663.67C1680.87,-659.01 2298.31,-642.09 2328,-612 2343.65,-596.13 2342.95,-569.93 2339.35,-550.05"/>
<polygon fill="black" stroke="black" points="2342.72,-549.09 2337.2,-540.05 2335.88,-550.56 2342.72,-549.09"/>
</g>
<!-- DiemAccount&#45;&gt;VASP -->
<g id="edge37" class="edge">
<title>DiemAccount&#45;&gt;VASP</title>
<path fill="none" stroke="black" d="M1483.37,-664.84C1690.46,-663.9 2363.89,-657.33 2449,-612 2523,-572.58 2534.8,-458.9 2536.18,-406.3"/>
<polygon fill="black" stroke="black" points="2539.68,-406.1 2536.33,-396.05 2532.68,-405.99 2539.68,-406.1"/>
</g>
<!-- DiemConfig -->
<g id="node19" class="node">
<title>DiemConfig</title>
<ellipse fill="none" stroke="black" cx="1641" cy="-306" rx="54.69" ry="18"/>
<text text-anchor="middle" x="1641" y="-302.3" font-family="Times,serif" font-size="14.00">DiemConfig</text>
</g>
<!-- DiemAccount&#45;&gt;DiemConfig -->
<g id="edge29" class="edge">
<title>DiemAccount&#45;&gt;DiemConfig</title>
<path fill="none" stroke="black" d="M1412.87,-648.07C1384.15,-597.66 1308.81,-446.65 1381,-360 1409.34,-325.98 1533.79,-333.69 1577,-324 1581.41,-323.01 1585.97,-321.92 1590.54,-320.79"/>
<polygon fill="black" stroke="black" points="1591.66,-324.12 1600.49,-318.27 1589.94,-317.34 1591.66,-324.12"/>
</g>
<!-- AccountLimits -->
<g id="node20" class="node">
<title>AccountLimits</title>
<ellipse fill="none" stroke="black" cx="2424" cy="-306" rx="63.89" ry="18"/>
<text text-anchor="middle" x="2424" y="-302.3" font-family="Times,serif" font-size="14.00">AccountLimits</text>
</g>
<!-- DiemAccount&#45;&gt;AccountLimits -->
<g id="edge31" class="edge">
<title>DiemAccount&#45;&gt;AccountLimits</title>
<path fill="none" stroke="black" d="M1483.48,-664.63C1677.08,-663 2273.21,-654.57 2348,-612 2389.46,-588.4 2408,-570.7 2408,-523 2408,-523 2408,-523 2408,-449 2408,-408.74 2414.43,-362.47 2419.14,-333.98"/>
<polygon fill="black" stroke="black" points="2422.61,-334.43 2420.84,-323.98 2415.71,-333.25 2422.61,-334.43"/>
</g>
<!-- XUS -->
<g id="node21" class="node">
<title>XUS</title>
<ellipse fill="none" stroke="black" cx="2465" cy="-522" rx="28.7" ry="18"/>
<text text-anchor="middle" x="2465" y="-518.3" font-family="Times,serif" font-size="14.00">XUS</text>
</g>
<!-- DiemAccount&#45;&gt;XUS -->
<g id="edge32" class="edge">
<title>DiemAccount&#45;&gt;XUS</title>
<path fill="none" stroke="black" d="M1483.54,-665.33C1687.91,-665.96 2343.99,-663.88 2422,-612 2443.03,-598.02 2454.09,-570.71 2459.69,-550.01"/>
<polygon fill="black" stroke="black" points="2463.12,-550.72 2462.09,-540.18 2456.32,-549.07 2463.12,-550.72"/>
</g>
<!-- ValidatorOperatorConfig -->
<g id="node22" class="node">
<title>ValidatorOperatorConfig</title>
<ellipse fill="none" stroke="black" cx="2642" cy="-306" rx="98.28" ry="18"/>
<text text-anchor="middle" x="2642" y="-302.3" font-family="Times,serif" font-size="14.00">ValidatorOperatorConfig</text>
</g>
<!-- DiemAccount&#45;&gt;ValidatorOperatorConfig -->
<g id="edge34" class="edge">
<title>DiemAccount&#45;&gt;ValidatorOperatorConfig</title>
<path fill="none" stroke="black" d="M1483.24,-664.27C1645.28,-661.82 2103.88,-651.62 2483,-612 2696.62,-589.67 2958,-737.78 2958,-523 2958,-523 2958,-523 2958,-449 2958,-354.5 2838.98,-322.51 2747.03,-311.9"/>
<polygon fill="black" stroke="black" points="2747.13,-308.39 2736.81,-310.79 2746.38,-315.35 2747.13,-308.39"/>
</g>
<!-- Option -->
<g id="node23" class="node">
<title>Option</title>
<ellipse fill="none" stroke="black" cx="1046" cy="-234" rx="35.19" ry="18"/>
<text text-anchor="middle" x="1046" y="-230.3" font-family="Times,serif" font-size="14.00">Option</text>
</g>
<!-- DiemAccount&#45;&gt;Option -->
<g id="edge35" class="edge">
<title>DiemAccount&#45;&gt;Option</title>
<path fill="none" stroke="black" d="M1362.53,-665.61C1296.28,-663.91 1188.59,-654.04 1107,-612 1057.27,-586.38 1018,-578.94 1018,-523 1018,-523 1018,-523 1018,-377 1018,-336.23 1029.25,-290.09 1037.49,-261.77"/>
<polygon fill="black" stroke="black" points="1040.95,-262.42 1040.47,-251.84 1034.24,-260.41 1040.95,-262.42"/>
</g>
<!-- ValidatorConfig -->
<g id="node24" class="node">
<title>ValidatorConfig</title>
<ellipse fill="none" stroke="black" cx="2161" cy="-378" rx="66.89" ry="18"/>
<text text-anchor="middle" x="2161" y="-374.3" font-family="Times,serif" font-size="14.00">ValidatorConfig</text>
</g>
<!-- DiemAccount&#45;&gt;ValidatorConfig -->
<g id="edge36" class="edge">
<title>DiemAccount&#45;&gt;ValidatorConfig</title>
<path fill="none" stroke="black" d="M1483.41,-664.86C1647.2,-663.9 2090.59,-657.1 2137,-612 2192.7,-557.87 2178.65,-454.82 2167.92,-405.98"/>
<polygon fill="black" stroke="black" points="2171.31,-405.09 2165.64,-396.14 2164.49,-406.67 2171.31,-405.09"/>
</g>
<!-- TransactionFee -->
<g id="node25" class="node">
<title>TransactionFee</title>
<ellipse fill="none" stroke="black" cx="2254" cy="-594" rx="64.99" ry="18"/>
<text text-anchor="middle" x="2254" y="-590.3" font-family="Times,serif" font-size="14.00">TransactionFee</text>
</g>
<!-- DiemAccount&#45;&gt;TransactionFee -->
<g id="edge38" class="edge">
<title>DiemAccount&#45;&gt;TransactionFee</title>
<path fill="none" stroke="black" d="M1483.25,-663.65C1611.24,-660.14 1919.41,-648.32 2175,-612 2182.07,-611 2189.44,-609.72 2196.73,-608.32"/>
<polygon fill="black" stroke="black" points="2197.46,-611.74 2206.57,-606.35 2196.08,-604.88 2197.46,-611.74"/>
</g>
<!-- Hash -->
<g id="node26" class="node">
<title>Hash</title>
<ellipse fill="none" stroke="black" cx="300" cy="-162" rx="28.7" ry="18"/>
<text text-anchor="middle" x="300" y="-158.3" font-family="Times,serif" font-size="14.00">Hash</text>
</g>
<!-- DiemAccount&#45;&gt;Hash -->
<g id="edge39" class="edge">
<title>DiemAccount&#45;&gt;Hash</title>
<path fill="none" stroke="black" d="M1362.49,-664.92C1154.12,-664.25 474.41,-658.47 389,-612 237.92,-529.8 261.96,-423.35 247,-252 245.61,-236.06 240.88,-230.78 247,-216 252.52,-202.68 263.18,-190.97 273.51,-181.96"/>
<polygon fill="black" stroke="black" points="275.73,-184.67 281.25,-175.62 271.29,-179.25 275.73,-184.67"/>
</g>
<!-- DiemTransactionPublishingOption -->
<g id="node27" class="node">
<title>DiemTransactionPublishingOption</title>
<ellipse fill="none" stroke="black" cx="1524" cy="-378" rx="133.78" ry="18"/>
<text text-anchor="middle" x="1524" y="-374.3" font-family="Times,serif" font-size="14.00">DiemTransactionPublishingOption</text>
</g>
<!-- DiemAccount&#45;&gt;DiemTransactionPublishingOption -->
<g id="edge41" class="edge">
<title>DiemAccount&#45;&gt;DiemTransactionPublishingOption</title>
<path fill="none" stroke="black" d="M1429.02,-647.97C1445.92,-600.09 1493.96,-464.06 1514.5,-405.9"/>
<polygon fill="black" stroke="black" points="1517.86,-406.9 1517.89,-396.31 1511.26,-404.57 1517.86,-406.9"/>
</g>
<!-- DesignatedDealer -->
<g id="node28" class="node">
<title>DesignatedDealer</title>
<ellipse fill="none" stroke="black" cx="1825" cy="-594" rx="73.39" ry="18"/>
<text text-anchor="middle" x="1825" y="-590.3" font-family="Times,serif" font-size="14.00">DesignatedDealer</text>
</g>
<!-- DiemAccount&#45;&gt;DesignatedDealer -->
<g id="edge42" class="edge">
<title>DiemAccount&#45;&gt;DesignatedDealer</title>
<path fill="none" stroke="black" d="M1474.91,-656.69C1537.41,-646.6 1645.52,-628.81 1738,-612 1745.08,-610.71 1752.47,-609.33 1759.83,-607.93"/>
<polygon fill="black" stroke="black" points="1760.65,-611.33 1769.81,-606.01 1759.33,-604.46 1760.65,-611.33"/>
</g>
<!-- ChainId -->
<g id="node29" class="node">
<title>ChainId</title>
<ellipse fill="none" stroke="black" cx="1796" cy="-234" rx="38.99" ry="18"/>
<text text-anchor="middle" x="1796" y="-230.3" font-family="Times,serif" font-size="14.00">ChainId</text>
</g>
<!-- DiemAccount&#45;&gt;ChainId -->
<g id="edge43" class="edge">
<title>DiemAccount&#45;&gt;ChainId</title>
<path fill="none" stroke="black" d="M1479.42,-659.49C1556.7,-648.48 1686,-616.14 1686,-523 1686,-523 1686,-523 1686,-449 1686,-408.55 1688.51,-396.93 1705,-360 1707.47,-354.46 1751.79,-294.47 1777.65,-259.65"/>
<polygon fill="black" stroke="black" points="1780.63,-261.5 1783.79,-251.39 1775.01,-257.33 1780.63,-261.5"/>
</g>
<!-- AccountFreezing -->
<g id="node30" class="node">
<title>AccountFreezing</title>
<ellipse fill="none" stroke="black" cx="1497" cy="-306" rx="71.49" ry="18"/>
<text text-anchor="middle" x="1497" y="-302.3" font-family="Times,serif" font-size="14.00">AccountFreezing</text>
</g>
<!-- DiemAccount&#45;&gt;AccountFreezing -->
<g id="edge44" class="edge">
<title>DiemAccount&#45;&gt;AccountFreezing</title>
<path fill="none" stroke="black" d="M1362.66,-664.91C1267.68,-661.24 1094,-638.71 1094,-523 1094,-523 1094,-523 1094,-449 1094,-379.42 1310.39,-335.57 1426.04,-317.1"/>
<polygon fill="black" stroke="black" points="1426.9,-320.5 1436.23,-315.49 1425.81,-313.59 1426.9,-320.5"/>
</g>
<!-- SharedEd25519PublicKey&#45;&gt;DiemAccount -->
<g id="edge48" class="edge">
<title>SharedEd25519PublicKey&#45;&gt;DiemAccount</title>
<path fill="none" stroke="black" d="M225.6,-731.72C476.27,-718.17 1138.09,-682.4 1353.89,-670.74"/>
<polygon fill="black" stroke="black" points="1354.33,-674.22 1364.13,-670.18 1353.95,-667.23 1354.33,-674.22"/>
</g>
<!-- SharedEd25519PublicKey&#45;&gt;Signer -->
<g id="edge45" class="edge">
<title>SharedEd25519PublicKey&#45;&gt;Signer</title>
<path fill="none" stroke="black" d="M97.34,-720.6C59.47,-697.85 0,-652.92 0,-595 0,-595 0,-595 0,-161 0,-116.06 10.01,-96.02 48,-72 132.16,-18.79 847.66,-18.03 1033.86,-18.75"/>
<polygon fill="black" stroke="black" points="1034.08,-22.25 1044.09,-18.79 1034.11,-15.25 1034.08,-22.25"/>
</g>
<!-- SharedEd25519PublicKey&#45;&gt;Errors -->
<g id="edge46" class="edge">
<title>SharedEd25519PublicKey&#45;&gt;Errors</title>
<path fill="none" stroke="black" d="M135.36,-719.8C156.02,-672.29 217.45,-535.84 285,-432 296.2,-414.78 303.36,-413.58 314,-396 341.11,-351.22 326.25,-327.15 361,-288 424.07,-216.93 638.79,-98.61 730,-72 861.77,-33.56 1856.49,-21.58 2076.16,-19.39"/>
<polygon fill="black" stroke="black" points="2076.35,-22.89 2086.32,-19.29 2076.28,-15.89 2076.35,-22.89"/>
</g>
<!-- SharedEd25519PublicKey&#45;&gt;Signature -->
<g id="edge47" class="edge">
<title>SharedEd25519PublicKey&#45;&gt;Signature</title>
<path fill="none" stroke="black" d="M124.56,-719.72C119.32,-688.76 112.46,-622.68 138,-576 199.85,-462.93 324.87,-367.73 382.99,-327.51"/>
<polygon fill="black" stroke="black" points="385.12,-330.3 391.4,-321.76 381.17,-324.52 385.12,-330.3"/>
</g>
<!-- Authenticator -->
<g id="node31" class="node">
<title>Authenticator</title>
<ellipse fill="none" stroke="black" cx="315" cy="-234" rx="59.29" ry="18"/>
<text text-anchor="middle" x="315" y="-230.3" font-family="Times,serif" font-size="14.00">Authenticator</text>
</g>
<!-- SharedEd25519PublicKey&#45;&gt;Authenticator -->
<g id="edge49" class="edge">
<title>SharedEd25519PublicKey&#45;&gt;Authenticator</title>
<path fill="none" stroke="black" d="M108.03,-719.95C81.51,-695.31 38,-646.95 38,-595 38,-595 38,-595 38,-449 38,-336.96 181.67,-275.31 262.07,-249.57"/>
<polygon fill="black" stroke="black" points="263.52,-252.79 272.02,-246.47 261.43,-246.11 263.52,-252.79"/>
</g>
<!-- RecoveryAddress&#45;&gt;DiemAccount -->
<g id="edge54" class="edge">
<title>RecoveryAddress&#45;&gt;DiemAccount</title>
<path fill="none" stroke="black" d="M886.89,-729.44C1002.24,-716.01 1241.71,-688.12 1357.5,-674.63"/>
<polygon fill="black" stroke="black" points="1358.11,-678.08 1367.64,-673.45 1357.3,-671.13 1358.11,-678.08"/>
</g>
<!-- RecoveryAddress&#45;&gt;Signer -->
<g id="edge50" class="edge">
<title>RecoveryAddress&#45;&gt;Signer</title>
<path fill="none" stroke="black" d="M749.92,-734.41C638.88,-727.56 422.46,-702.61 266,-612 96.55,-513.87 38,-430.81 38,-235 38,-235 38,-235 38,-161 38,-113.79 55.11,-95.61 96,-72 177.91,-24.71 853.75,-19.58 1033.97,-19.05"/>
<polygon fill="black" stroke="black" points="1034.15,-22.55 1044.15,-19.03 1034.14,-15.55 1034.15,-22.55"/>
</g>
<!-- RecoveryAddress&#45;&gt;Errors -->
<g id="edge51" class="edge">
<title>RecoveryAddress&#45;&gt;Errors</title>
<path fill="none" stroke="black" d="M895.53,-736.59C1298.8,-733.88 3224,-714.68 3224,-595 3224,-595 3224,-595 3224,-161 3224,-116.47 3215.44,-96.1 3178,-72 3091.5,-16.33 2348.7,-17.47 2161.63,-18.65"/>
<polygon fill="black" stroke="black" points="2161.6,-15.15 2151.62,-18.72 2161.65,-22.15 2161.6,-15.15"/>
</g>
<!-- RecoveryAddress&#45;&gt;Vector -->
<g id="edge52" class="edge">
<title>RecoveryAddress&#45;&gt;Vector</title>
<path fill="none" stroke="black" d="M753.79,-731.13C663.13,-720.44 501.3,-691.02 389,-612 324.44,-566.57 309.29,-543.12 285,-468 260.84,-393.3 360.55,-288.38 361,-288 471.22,-197 646.75,-172.19 728.03,-165.47"/>
<polygon fill="black" stroke="black" points="728.7,-168.93 738.4,-164.67 728.16,-161.95 728.7,-168.93"/>
</g>
<!-- RecoveryAddress&#45;&gt;VASP -->
<g id="edge53" class="edge">
<title>RecoveryAddress&#45;&gt;VASP</title>
<path fill="none" stroke="black" d="M894.8,-735.29C1197.2,-727.69 2344.83,-693.66 2483,-612 2543.14,-576.46 2538.38,-537.44 2546,-468 2547.75,-452.1 2547.49,-447.93 2546,-432 2545.2,-423.48 2543.7,-414.28 2542.1,-405.99"/>
<polygon fill="black" stroke="black" points="2545.5,-405.16 2540.06,-396.07 2538.64,-406.57 2545.5,-405.16"/>
</g>
<!-- CoreAddresses&#45;&gt;Signer -->
<g id="edge55" class="edge">
<title>CoreAddresses&#45;&gt;Signer</title>
<path fill="none" stroke="black" d="M1312.91,-77.52C1258.61,-63.99 1169.29,-41.74 1117.86,-28.93"/>
<polygon fill="black" stroke="black" points="1118.64,-25.52 1108.09,-26.5 1116.95,-32.31 1118.64,-25.52"/>
</g>
<!-- CoreAddresses&#45;&gt;Errors -->
<g id="edge56" class="edge">
<title>CoreAddresses&#45;&gt;Errors</title>
<path fill="none" stroke="black" d="M1418.64,-83.51C1566.86,-69.85 1949.2,-34.64 2076.82,-22.88"/>
<polygon fill="black" stroke="black" points="2077.34,-26.35 2086.97,-21.95 2076.69,-19.38 2077.34,-26.35"/>
</g>
<!-- DiemTimestamp&#45;&gt;Errors -->
<g id="edge57" class="edge">
<title>DiemTimestamp&#45;&gt;Errors</title>
<path fill="none" stroke="black" d="M2206.25,-144.15C2188.8,-119.12 2155.93,-71.97 2135.9,-43.24"/>
<polygon fill="black" stroke="black" points="2138.71,-41.15 2130.12,-34.95 2132.97,-45.16 2138.71,-41.15"/>
</g>
<!-- DiemTimestamp&#45;&gt;CoreAddresses -->
<g id="edge58" class="edge">
<title>DiemTimestamp&#45;&gt;CoreAddresses</title>
<path fill="none" stroke="black" d="M2150.95,-155.54C1991.77,-142.56 1592.26,-110.01 1429.58,-96.75"/>
<polygon fill="black" stroke="black" points="1429.46,-93.23 1419.21,-95.91 1428.9,-100.21 1429.46,-93.23"/>
</g>
<!-- Roles&#45;&gt;Signer -->
<g id="edge59" class="edge">
<title>Roles&#45;&gt;Signer</title>
<path fill="none" stroke="black" d="M2127.1,-221.98C2063.48,-191.92 1878.51,-108.35 1715,-72 1496.37,-23.4 1226.56,-18.49 1122.14,-18.59"/>
<polygon fill="black" stroke="black" points="1121.97,-15.09 1111.98,-18.61 1121.99,-22.09 1121.97,-15.09"/>
</g>
<!-- Roles&#45;&gt;Errors -->
<g id="edge60" class="edge">
<title>Roles&#45;&gt;Errors</title>
<path fill="none" stroke="black" d="M2145.65,-215.91C2143.14,-205.57 2140.08,-192.09 2138,-180 2129.99,-133.35 2124.3,-78.51 2121.35,-46.38"/>
<polygon fill="black" stroke="black" points="2124.8,-45.65 2120.41,-36.01 2117.82,-46.28 2124.8,-45.65"/>
</g>
<!-- Roles&#45;&gt;CoreAddresses -->
<g id="edge61" class="edge">
<title>Roles&#45;&gt;CoreAddresses</title>
<path fill="none" stroke="black" d="M2120.91,-227.78C2006.02,-207.15 1582.29,-131.08 1421.46,-102.21"/>
<polygon fill="black" stroke="black" points="1421.72,-98.7 1411.26,-100.38 1420.48,-105.59 1421.72,-98.7"/>
</g>
<!-- Roles&#45;&gt;DiemTimestamp -->
<g id="edge62" class="edge">
<title>Roles&#45;&gt;DiemTimestamp</title>
<path fill="none" stroke="black" d="M2164.75,-217.81C2173.47,-208.84 2184.7,-197.28 2194.6,-187.09"/>
<polygon fill="black" stroke="black" points="2197.39,-189.24 2201.85,-179.63 2192.37,-184.36 2197.39,-189.24"/>
</g>
<!-- Event&#45;&gt;Signer -->
<g id="edge63" class="edge">
<title>Event&#45;&gt;Signer</title>
<path fill="none" stroke="black" d="M755.66,-218.34C737.26,-200.01 712.01,-168.13 729,-144 799.24,-44.23 956.85,-23.68 1033.9,-19.73"/>
<polygon fill="black" stroke="black" points="1034.38,-23.21 1044.22,-19.28 1034.08,-16.22 1034.38,-23.21"/>
</g>
<!-- Event&#45;&gt;Errors -->
<g id="edge64" class="edge">
<title>Event&#45;&gt;Errors</title>
<path fill="none" stroke="black" d="M791.9,-220.1C821.36,-201.42 878.73,-166.6 931,-144 955.38,-133.46 1132.87,-76.77 1159,-72 1338.96,-39.16 1914.51,-23.7 2076.32,-19.94"/>
<polygon fill="black" stroke="black" points="2076.45,-23.43 2086.37,-19.7 2076.29,-16.43 2076.45,-23.43"/>
</g>
<!-- Event&#45;&gt;Vector -->
<g id="edge65" class="edge">
<title>Event&#45;&gt;Vector</title>
<path fill="none" stroke="black" d="M772,-215.7C772,-207.98 772,-198.71 772,-190.11"/>
<polygon fill="black" stroke="black" points="775.5,-190.1 772,-180.1 768.5,-190.1 775.5,-190.1"/>
</g>
<!-- Event&#45;&gt;BCS -->
<g id="edge66" class="edge">
<title>Event&#45;&gt;BCS</title>
<path fill="none" stroke="black" d="M743.3,-226.6C685.65,-213.75 555.94,-184.83 493.24,-170.86"/>
<polygon fill="black" stroke="black" points="493.94,-167.43 483.42,-168.67 492.42,-174.26 493.94,-167.43"/>
</g>
<!-- Diem&#45;&gt;Signer -->
<g id="edge67" class="edge">
<title>Diem&#45;&gt;Signer</title>
<path fill="none" stroke="black" d="M1764.68,-447.67C1665.58,-443.09 1352.13,-426.46 1256,-396 1132.29,-356.8 1067.32,-364.13 1002,-252 961.04,-181.69 1023.69,-86.39 1058.01,-42.68"/>
<polygon fill="black" stroke="black" points="1060.93,-44.64 1064.46,-34.65 1055.47,-40.26 1060.93,-44.64"/>
</g>
<!-- Diem&#45;&gt;Errors -->
<g id="edge68" class="edge">
<title>Diem&#45;&gt;Errors</title>
<path fill="none" stroke="black" d="M1825.73,-449.43C1952.79,-450.83 2437.02,-452.29 2577,-396 2600.12,-386.7 2597.33,-370.37 2620,-360 2710.9,-318.43 2756.71,-376.12 2842,-324 2875.91,-303.28 2882.34,-289.66 2895,-252 2910.29,-206.5 2921.35,-184.76 2896,-144 2857.79,-82.56 2819.71,-91.37 2750,-72 2638.71,-41.08 2285,-25.21 2161.8,-20.52"/>
<polygon fill="black" stroke="black" points="2161.76,-17.01 2151.63,-20.14 2161.49,-24.01 2161.76,-17.01"/>
</g>
<!-- Diem&#45;&gt;CoreAddresses -->
<g id="edge69" class="edge">
<title>Diem&#45;&gt;CoreAddresses</title>
<path fill="none" stroke="black" d="M1764.7,-447.13C1677.22,-441.45 1425.54,-423.15 1348,-396 1290.73,-375.95 1261.5,-377.03 1232,-324 1202.71,-271.35 1236.36,-207.85 1285,-144 1294.73,-131.23 1308.38,-120.25 1321.32,-111.65"/>
<polygon fill="black" stroke="black" points="1323.53,-114.4 1330.1,-106.09 1319.78,-108.48 1323.53,-114.4"/>
</g>
<!-- Diem&#45;&gt;DiemTimestamp -->
<g id="edge70" class="edge">
<title>Diem&#45;&gt;DiemTimestamp</title>
<path fill="none" stroke="black" d="M1825,-446.5C1922.23,-438.23 2223.25,-411.5 2237,-396 2288.43,-338.04 2252.58,-236.94 2231.03,-189.28"/>
<polygon fill="black" stroke="black" points="2234.08,-187.54 2226.69,-179.96 2227.74,-190.5 2234.08,-187.54"/>
</g>
<!-- Diem&#45;&gt;Roles -->
<g id="edge71" class="edge">
<title>Diem&#45;&gt;Roles</title>
<path fill="none" stroke="black" d="M1824,-443.87C1859.25,-436.78 1919.74,-421.86 1966,-396 1970.57,-393.44 2077.61,-299 2126.29,-255.98"/>
<polygon fill="black" stroke="black" points="2128.67,-258.54 2133.85,-249.29 2124.04,-253.29 2128.67,-258.54"/>
</g>
<!-- Diem&#45;&gt;Vector -->
<g id="edge73" class="edge">
<title>Diem&#45;&gt;Vector</title>
<path fill="none" stroke="black" d="M1764.48,-448.08C1649.51,-444.39 1242.75,-429.22 1118,-396 977.55,-358.6 844.66,-236.64 793.8,-185.69"/>
<polygon fill="black" stroke="black" points="796.14,-183.08 786.63,-178.42 791.16,-188 796.14,-183.08"/>
</g>
<!-- Diem&#45;&gt;Event -->
<g id="edge74" class="edge">
<title>Diem&#45;&gt;Event</title>
<path fill="none" stroke="black" d="M1764.37,-448.73C1640.96,-447.35 1180.17,-439.35 1042,-396 943.22,-365.01 842.58,-291.55 797.08,-255.57"/>
<polygon fill="black" stroke="black" points="799.23,-252.81 789.23,-249.31 794.86,-258.28 799.23,-252.81"/>
</g>
<!-- FixedPoint32 -->
<g id="node32" class="node">
<title>FixedPoint32</title>
<ellipse fill="none" stroke="black" cx="2720" cy="-378" rx="57.69" ry="18"/>
<text text-anchor="middle" x="2720" y="-374.3" font-family="Times,serif" font-size="14.00">FixedPoint32</text>
</g>
<!-- Diem&#45;&gt;FixedPoint32 -->
<g id="edge72" class="edge">
<title>Diem&#45;&gt;FixedPoint32</title>
<path fill="none" stroke="black" d="M1825.43,-447.99C1932.93,-444.22 2304.85,-429.44 2610,-396 2626.54,-394.19 2644.41,-391.67 2660.83,-389.13"/>
<polygon fill="black" stroke="black" points="2661.51,-392.56 2670.84,-387.55 2660.42,-385.65 2661.51,-392.56"/>
</g>
<!-- RegisteredCurrencies -->
<g id="node33" class="node">
<title>RegisteredCurrencies</title>
<ellipse fill="none" stroke="black" cx="1800" cy="-378" rx="86.38" ry="18"/>
<text text-anchor="middle" x="1800" y="-374.3" font-family="Times,serif" font-size="14.00">RegisteredCurrencies</text>
</g>
<!-- Diem&#45;&gt;RegisteredCurrencies -->
<g id="edge75" class="edge">
<title>Diem&#45;&gt;RegisteredCurrencies</title>
<path fill="none" stroke="black" d="M1796.24,-431.7C1796.79,-423.98 1797.45,-414.71 1798.06,-406.11"/>
<polygon fill="black" stroke="black" points="1801.56,-406.33 1798.78,-396.1 1794.57,-405.83 1801.56,-406.33"/>
</g>
<!-- XDX&#45;&gt;Errors -->
<g id="edge76" class="edge">
<title>XDX&#45;&gt;Errors</title>
<path fill="none" stroke="black" d="M2349.98,-507.31C2376.17,-487.97 2426.93,-452.71 2475,-432 2532.82,-407.09 2556.42,-425.56 2612,-396 2633.41,-384.61 2631.07,-370.34 2653,-360 2743.41,-317.37 2780.62,-356.91 2875,-324 2951.47,-297.33 3034,-315.98 3034,-235 3034,-235 3034,-235 3034,-161 3034,-58.4 2920.76,-95.95 2821,-72 2694.58,-41.66 2293.49,-25.14 2161.54,-20.43"/>
<polygon fill="black" stroke="black" points="2161.54,-16.93 2151.42,-20.07 2161.29,-23.92 2161.54,-16.93"/>
</g>
<!-- XDX&#45;&gt;CoreAddresses -->
<g id="edge77" class="edge">
<title>XDX&#45;&gt;CoreAddresses</title>
<path fill="none" stroke="black" d="M2304.4,-515.07C2229.36,-499.17 2015.18,-455.22 1835,-432 1784.81,-425.53 1418.97,-429.45 1381,-396 1301.15,-325.64 1332.86,-178.45 1350.38,-117.9"/>
<polygon fill="black" stroke="black" points="1353.84,-118.55 1353.36,-107.97 1347.14,-116.54 1353.84,-118.55"/>
</g>
<!-- XDX&#45;&gt;DiemTimestamp -->
<g id="edge78" class="edge">
<title>XDX&#45;&gt;DiemTimestamp</title>
<path fill="none" stroke="black" d="M2332,-503.95C2332,-477.29 2332,-424.11 2332,-379 2332,-379 2332,-379 2332,-305 2332,-253.12 2285.16,-209.41 2251.53,-184.71"/>
<polygon fill="black" stroke="black" points="2253.48,-181.79 2243.3,-178.84 2249.41,-187.5 2253.48,-181.79"/>
</g>
<!-- XDX&#45;&gt;Diem -->
<g id="edge80" class="edge">
<title>XDX&#45;&gt;Diem</title>
<path fill="none" stroke="black" d="M2302.55,-518.81C2210.5,-511.83 1929,-489.24 1840,-468 1836.18,-467.09 1832.24,-465.94 1828.36,-464.67"/>
<polygon fill="black" stroke="black" points="1829.53,-461.37 1818.93,-461.33 1827.19,-467.97 1829.53,-461.37"/>
</g>
<!-- XDX&#45;&gt;AccountLimits -->
<g id="edge81" class="edge">
<title>XDX&#45;&gt;AccountLimits</title>
<path fill="none" stroke="black" d="M2337.55,-504.21C2347.55,-474.55 2369.82,-411.19 2394,-360 2398.31,-350.87 2403.58,-341.18 2408.49,-332.62"/>
<polygon fill="black" stroke="black" points="2411.59,-334.25 2413.62,-323.85 2405.55,-330.71 2411.59,-334.25"/>
</g>
<!-- XDX&#45;&gt;FixedPoint32 -->
<g id="edge79" class="edge">
<title>XDX&#45;&gt;FixedPoint32</title>
<path fill="none" stroke="black" d="M2356.86,-511.9C2420.83,-488.49 2591.86,-425.9 2674.31,-395.72"/>
<polygon fill="black" stroke="black" points="2675.72,-398.93 2683.91,-392.21 2673.32,-392.36 2675.72,-398.93"/>
</g>
<!-- VASP&#45;&gt;Signer -->
<g id="edge82" class="edge">
<title>VASP&#45;&gt;Signer</title>
<path fill="none" stroke="black" d="M2503.71,-375.03C2448.89,-371.71 2334.1,-364.89 2237,-360 2145.92,-355.41 1501.41,-358.53 1417,-324 1378.19,-308.13 1171.49,-109.68 1101.32,-41.68"/>
<polygon fill="black" stroke="black" points="1103.45,-38.87 1093.84,-34.42 1098.58,-43.9 1103.45,-38.87"/>
</g>
<!-- VASP&#45;&gt;Errors -->
<g id="edge83" class="edge">
<title>VASP&#45;&gt;Errors</title>
<path fill="none" stroke="black" d="M2561.51,-366.6C2568.11,-364.18 2575.25,-361.79 2582,-360 2676.06,-335.02 2712.11,-369.78 2798,-324 2846,-298.42 2882,-289.39 2882,-235 2882,-235 2882,-235 2882,-161 2882,-116.1 3135.98,-181.04 2667,-72 2482.33,-29.06 2254.84,-20.84 2161.75,-19.32"/>
<polygon fill="black" stroke="black" points="2161.65,-15.82 2151.6,-19.17 2161.55,-22.82 2161.65,-15.82"/>
</g>
<!-- VASP&#45;&gt;DiemTimestamp -->
<g id="edge84" class="edge">
<title>VASP&#45;&gt;DiemTimestamp</title>
<path fill="none" stroke="black" d="M2561.57,-366.82C2568.17,-364.4 2575.3,-361.95 2582,-360 2659.61,-337.42 2799.18,-351.36 2749,-288 2693.2,-217.54 2428.25,-182.85 2294.96,-169.62"/>
<polygon fill="black" stroke="black" points="2295.11,-166.12 2284.81,-168.63 2294.42,-173.08 2295.11,-166.12"/>
</g>
<!-- VASP&#45;&gt;Roles -->
<g id="edge85" class="edge">
<title>VASP&#45;&gt;Roles</title>
<path fill="none" stroke="black" d="M2533.52,-359.89C2529.6,-339.37 2519.88,-305.57 2497,-288 2449.69,-251.69 2271.91,-239.92 2190.8,-236.39"/>
<polygon fill="black" stroke="black" points="2190.61,-232.88 2180.48,-235.97 2190.32,-239.88 2190.61,-232.88"/>
</g>
<!-- VASP&#45;&gt;AccountLimits -->
<g id="edge86" class="edge">
<title>VASP&#45;&gt;AccountLimits</title>
<path fill="none" stroke="black" d="M2515.2,-364C2499.03,-353.89 2476.29,-339.68 2457.56,-327.97"/>
<polygon fill="black" stroke="black" points="2459.33,-324.96 2449,-322.62 2455.62,-330.89 2459.33,-324.96"/>
</g>
<!-- DiemConfig&#45;&gt;Signer -->
<g id="edge87" class="edge">
<title>DiemConfig&#45;&gt;Signer</title>
<path fill="none" stroke="black" d="M1623.44,-288.44C1613.02,-278.3 1599.78,-264.83 1589,-252 1525.68,-176.65 1544.24,-122.89 1460,-72 1403.83,-38.07 1209.69,-25.02 1121.82,-20.78"/>
<polygon fill="black" stroke="black" points="1121.8,-17.27 1111.65,-20.3 1121.47,-24.26 1121.8,-17.27"/>
</g>
<!-- DiemConfig&#45;&gt;Errors -->
<g id="edge88" class="edge">
<title>DiemConfig&#45;&gt;Errors</title>
<path fill="none" stroke="black" d="M1643.46,-287.83C1651.03,-242.35 1678.59,-119.03 1760,-72 1813.17,-41.29 1993.49,-26.62 2076.51,-21.37"/>
<polygon fill="black" stroke="black" points="2076.85,-24.85 2086.62,-20.74 2076.42,-17.87 2076.85,-24.85"/>
</g>
<!-- DiemConfig&#45;&gt;CoreAddresses -->
<g id="edge89" class="edge">
<title>DiemConfig&#45;&gt;CoreAddresses</title>
<path fill="none" stroke="black" d="M1613.49,-290.36C1595.28,-280.3 1571.14,-266.23 1551,-252 1487.74,-207.32 1419.61,-146.91 1383.98,-114.27"/>
<polygon fill="black" stroke="black" points="1386.19,-111.55 1376.47,-107.36 1381.45,-116.7 1386.19,-111.55"/>
</g>
<!-- DiemConfig&#45;&gt;DiemTimestamp -->
<g id="edge90" class="edge">
<title>DiemConfig&#45;&gt;DiemTimestamp</title>
<path fill="none" stroke="black" d="M1688.4,-297.03C1761.27,-284.59 1894.57,-261.06 1915,-252 1939.38,-241.19 1938.7,-226.98 1963,-216 2019.79,-190.35 2089.34,-176.96 2141.45,-170.06"/>
<polygon fill="black" stroke="black" points="2142.15,-173.5 2151.63,-168.76 2141.26,-166.55 2142.15,-173.5"/>
</g>
<!-- DiemConfig&#45;&gt;Roles -->
<g id="edge91" class="edge">
<title>DiemConfig&#45;&gt;Roles</title>
<path fill="none" stroke="black" d="M1690.27,-298.22C1791.05,-284.37 2018.95,-253.02 2110.67,-240.41"/>
<polygon fill="black" stroke="black" points="2111.22,-243.87 2120.65,-239.04 2110.27,-236.93 2111.22,-243.87"/>
</g>
<!-- DiemConfig&#45;&gt;Event -->
<g id="edge92" class="edge">
<title>DiemConfig&#45;&gt;Event</title>
<path fill="none" stroke="black" d="M1602,-293.34C1593.81,-291.25 1585.17,-289.33 1577,-288 1324.26,-246.93 1257.46,-269.44 1002,-252 935.85,-247.48 859.04,-241.7 813.04,-238.17"/>
<polygon fill="black" stroke="black" points="813.11,-234.67 802.87,-237.39 812.57,-241.65 813.11,-234.67"/>
</g>
<!-- AccountLimits&#45;&gt;Signer -->
<g id="edge93" class="edge">
<title>AccountLimits&#45;&gt;Signer</title>
<path fill="none" stroke="black" d="M2360.38,-305.1C2208.99,-304.58 1831.34,-298.49 1715,-252 1597.69,-205.12 1611.06,-121.9 1495,-72 1428.51,-43.41 1214.71,-27.31 1121.79,-21.5"/>
<polygon fill="black" stroke="black" points="1121.8,-18 1111.61,-20.88 1121.37,-24.98 1121.8,-18"/>
</g>
<!-- AccountLimits&#45;&gt;Errors -->
<g id="edge94" class="edge">
<title>AccountLimits&#45;&gt;Errors</title>
<path fill="none" stroke="black" d="M2417.34,-287.87C2409.58,-269.12 2395.54,-238.72 2378,-216 2313.35,-132.27 2204.7,-65.62 2151.01,-35.87"/>
<polygon fill="black" stroke="black" points="2152.41,-32.65 2141.96,-30.92 2149.05,-38.79 2152.41,-32.65"/>
</g>
<!-- AccountLimits&#45;&gt;DiemTimestamp -->
<g id="edge95" class="edge">
<title>AccountLimits&#45;&gt;DiemTimestamp</title>
<path fill="none" stroke="black" d="M2412.88,-288.16C2399.17,-268.54 2374.22,-236.23 2346,-216 2324.01,-200.24 2296.62,-188.09 2272.84,-179.43"/>
<polygon fill="black" stroke="black" points="2273.83,-176.07 2263.23,-176.05 2271.5,-182.67 2273.83,-176.07"/>
</g>
<!-- AccountLimits&#45;&gt;Roles -->
<g id="edge96" class="edge">
<title>AccountLimits&#45;&gt;Roles</title>
<path fill="none" stroke="black" d="M2378.45,-293.36C2324.92,-279.69 2237.11,-257.25 2187.39,-244.55"/>
<polygon fill="black" stroke="black" points="2188.24,-241.16 2177.68,-242.07 2186.5,-247.94 2188.24,-241.16"/>
</g>
<!-- XUS&#45;&gt;DiemTimestamp -->
<g id="edge97" class="edge">
<title>XUS&#45;&gt;DiemTimestamp</title>
<path fill="none" stroke="black" d="M2493.12,-517.6C2552.23,-510.09 2687.18,-490.92 2727,-468 2772.84,-441.62 2806,-431.89 2806,-379 2806,-379 2806,-379 2806,-305 2806,-201.85 2459.79,-173.39 2298.68,-165.73"/>
<polygon fill="black" stroke="black" points="2298.49,-162.22 2288.34,-165.26 2298.17,-169.21 2298.49,-162.22"/>
</g>
<!-- XUS&#45;&gt;Diem -->
<g id="edge99" class="edge">
<title>XUS&#45;&gt;Diem</title>
<path fill="none" stroke="black" d="M2437.95,-515.46C2419.22,-511.79 2393.68,-507.09 2371,-504 2170.99,-476.77 1929.97,-459.62 1835.64,-453.52"/>
<polygon fill="black" stroke="black" points="1835.6,-450.01 1825.39,-452.86 1835.15,-456.99 1835.6,-450.01"/>
</g>
<!-- XUS&#45;&gt;AccountLimits -->
<g id="edge100" class="edge">
<title>XUS&#45;&gt;AccountLimits</title>
<path fill="none" stroke="black" d="M2461.71,-503.85C2454.61,-466.75 2437.76,-378.81 2429.19,-334.1"/>
<polygon fill="black" stroke="black" points="2432.62,-333.4 2427.3,-324.23 2425.75,-334.71 2432.62,-333.4"/>
</g>
<!-- XUS&#45;&gt;FixedPoint32 -->
<g id="edge98" class="edge">
<title>XUS&#45;&gt;FixedPoint32</title>
<path fill="none" stroke="black" d="M2492.44,-516.74C2552.48,-507.17 2691.32,-483.6 2706,-468 2721.29,-451.76 2723.89,-426 2723.19,-406.36"/>
<polygon fill="black" stroke="black" points="2726.67,-405.93 2722.53,-396.18 2719.69,-406.39 2726.67,-405.93"/>
</g>
<!-- ValidatorOperatorConfig&#45;&gt;Signer -->
<g id="edge101" class="edge">
<title>ValidatorOperatorConfig&#45;&gt;Signer</title>
<path fill="none" stroke="black" d="M2564.59,-294.93C2542.76,-292.36 2518.98,-289.81 2497,-288 2330.93,-274.29 1902.85,-313.55 1748,-252 1719.44,-240.65 1566.16,-84.3 1538,-72 1463.82,-39.61 1221.71,-25.38 1121.76,-20.79"/>
<polygon fill="black" stroke="black" points="1121.85,-17.29 1111.7,-20.33 1121.53,-24.28 1121.85,-17.29"/>
</g>
<!-- ValidatorOperatorConfig&#45;&gt;Errors -->
<g id="edge102" class="edge">
<title>ValidatorOperatorConfig&#45;&gt;Errors</title>
<path fill="none" stroke="black" d="M2616.98,-288.39C2555.83,-248.18 2393.2,-143.65 2249,-72 2218.13,-56.66 2181.69,-42.09 2155.26,-32.13"/>
<polygon fill="black" stroke="black" points="2156.24,-28.76 2145.65,-28.54 2153.79,-35.32 2156.24,-28.76"/>
</g>
<!-- ValidatorOperatorConfig&#45;&gt;DiemTimestamp -->
<g id="edge103" class="edge">
<title>ValidatorOperatorConfig&#45;&gt;DiemTimestamp</title>
<path fill="none" stroke="black" d="M2597.18,-289.81C2544.68,-272.04 2455.07,-241.75 2378,-216 2341.69,-203.86 2300.7,-190.29 2269.3,-179.92"/>
<polygon fill="black" stroke="black" points="2270.05,-176.48 2259.46,-176.67 2267.86,-183.13 2270.05,-176.48"/>
</g>
<!-- ValidatorOperatorConfig&#45;&gt;Roles -->
<g id="edge104" class="edge">
<title>ValidatorOperatorConfig&#45;&gt;Roles</title>
<path fill="none" stroke="black" d="M2569.42,-293.85C2556.3,-291.88 2542.75,-289.86 2530,-288 2405.86,-269.92 2258.71,-249.76 2189.59,-240.36"/>
<polygon fill="black" stroke="black" points="2189.96,-236.88 2179.58,-239 2189.02,-243.82 2189.96,-236.88"/>
</g>
<!-- Option&#45;&gt;Errors -->
<g id="edge105" class="edge">
<title>Option&#45;&gt;Errors</title>
<path fill="none" stroke="black" d="M1051.33,-215.91C1058.33,-196.05 1072.47,-163.52 1095,-144 1099.29,-140.29 1280.46,-73.19 1286,-72 1439.22,-39.02 1928.23,-23.93 2076.19,-20.05"/>
<polygon fill="black" stroke="black" points="2076.33,-23.55 2086.24,-19.79 2076.15,-16.55 2076.33,-23.55"/>
</g>
<!-- Option&#45;&gt;Vector -->
<g id="edge106" class="edge">
<title>Option&#45;&gt;Vector</title>
<path fill="none" stroke="black" d="M1015.37,-225.17C965.54,-212.44 866.98,-187.26 811.8,-173.17"/>
<polygon fill="black" stroke="black" points="812.58,-169.75 802.02,-170.67 810.84,-176.54 812.58,-169.75"/>
</g>
<!-- ValidatorConfig&#45;&gt;Signer -->
<g id="edge107" class="edge">
<title>ValidatorConfig&#45;&gt;Signer</title>
<path fill="none" stroke="black" d="M2096.56,-372.89C1904.33,-360.62 1348.1,-325.04 1346,-324 1217.53,-260.77 1124.2,-105.85 1091.13,-44.56"/>
<polygon fill="black" stroke="black" points="1094.13,-42.74 1086.35,-35.56 1087.95,-46.03 1094.13,-42.74"/>
</g>
<!-- ValidatorConfig&#45;&gt;Errors -->
<g id="edge108" class="edge">
<title>ValidatorConfig&#45;&gt;Errors</title>
<path fill="none" stroke="black" d="M2226.12,-373.53C2369.24,-365.54 2702.2,-344.97 2749,-324 2801.8,-300.34 2844,-292.86 2844,-235 2844,-235 2844,-235 2844,-161 2844,-90.94 2315.94,-37.04 2161.16,-22.74"/>
<polygon fill="black" stroke="black" points="2161.37,-19.25 2151.09,-21.82 2160.73,-26.22 2161.37,-19.25"/>
</g>
<!-- ValidatorConfig&#45;&gt;DiemTimestamp -->
<g id="edge109" class="edge">
<title>ValidatorConfig&#45;&gt;DiemTimestamp</title>
<path fill="none" stroke="black" d="M2165.57,-359.85C2175.45,-322.75 2198.87,-234.81 2210.78,-190.1"/>
<polygon fill="black" stroke="black" points="2214.22,-190.8 2213.41,-180.23 2207.45,-188.99 2214.22,-190.8"/>
</g>
<!-- ValidatorConfig&#45;&gt;Signature -->
<g id="edge110" class="edge">
<title>ValidatorConfig&#45;&gt;Signature</title>
<path fill="none" stroke="black" d="M2097.34,-372.43C2043.47,-368.68 1964.21,-363.45 1895,-360 1337.69,-332.22 661.69,-313.47 468.13,-308.39"/>
<polygon fill="black" stroke="black" points="468.03,-304.88 457.94,-308.12 467.84,-311.88 468.03,-304.88"/>
</g>
<!-- ValidatorConfig&#45;&gt;Roles -->
<g id="edge111" class="edge">
<title>ValidatorConfig&#45;&gt;Roles</title>
<path fill="none" stroke="black" d="M2160.33,-359.92C2159.55,-341.99 2158.11,-312.98 2156,-288 2155.29,-279.57 2154.32,-270.4 2153.37,-262.09"/>
<polygon fill="black" stroke="black" points="2156.84,-261.68 2152.19,-252.16 2149.89,-262.5 2156.84,-261.68"/>
</g>
<!-- ValidatorConfig&#45;&gt;ValidatorOperatorConfig -->
<g id="edge112" class="edge">
<title>ValidatorConfig&#45;&gt;ValidatorOperatorConfig</title>
<path fill="none" stroke="black" d="M2218.54,-368.63C2302.71,-356.38 2459.96,-333.49 2557.34,-319.32"/>
<polygon fill="black" stroke="black" points="2558.05,-322.75 2567.45,-317.85 2557.05,-315.83 2558.05,-322.75"/>
</g>
<!-- ValidatorConfig&#45;&gt;Option -->
<g id="edge113" class="edge">
<title>ValidatorConfig&#45;&gt;Option</title>
<path fill="none" stroke="black" d="M2096.77,-372.85C2042.9,-369.38 1963.93,-364.32 1895,-360 1634.13,-343.66 1564.46,-374.48 1308,-324 1263.91,-315.32 1144.34,-271.8 1083.15,-248.99"/>
<polygon fill="black" stroke="black" points="1084.09,-245.6 1073.5,-245.38 1081.64,-252.16 1084.09,-245.6"/>
</g>
<!-- TransactionFee&#45;&gt;Errors -->
<g id="edge114" class="edge">
<title>TransactionFee&#45;&gt;Errors</title>
<path fill="none" stroke="black" d="M2316.75,-589.09C2400.43,-583 2552.8,-568.81 2680,-540 2922.14,-485.15 3148,-483.27 3148,-235 3148,-235 3148,-235 3148,-161 3148,-120.03 3155.85,-97.76 3124,-72 3086.06,-41.32 2348.92,-23.82 2161.86,-19.87"/>
<polygon fill="black" stroke="black" points="2161.67,-16.36 2151.6,-19.65 2161.53,-23.36 2161.67,-16.36"/>
</g>
<!-- TransactionFee&#45;&gt;CoreAddresses -->
<g id="edge115" class="edge">
<title>TransactionFee&#45;&gt;CoreAddresses</title>
<path fill="none" stroke="black" d="M2192.78,-587.79C1999.66,-570.32 1407.16,-508.49 1256,-396 1190.62,-347.34 1200.52,-294.88 1221,-216 1229.94,-181.56 1231.13,-169.44 1256,-144 1271.09,-128.56 1291.64,-116.75 1310.42,-108.24"/>
<polygon fill="black" stroke="black" points="1311.95,-111.39 1319.74,-104.21 1309.18,-104.96 1311.95,-111.39"/>
</g>
<!-- TransactionFee&#45;&gt;DiemTimestamp -->
<g id="edge116" class="edge">
<title>TransactionFee&#45;&gt;DiemTimestamp</title>
<path fill="none" stroke="black" d="M2318.77,-592.12C2422.89,-587.68 2629.89,-566.08 2769,-468 2836.96,-420.09 2853.1,-364.28 2820,-288 2801.35,-245.02 2785.66,-235.37 2743,-216 2665.85,-180.97 2426.06,-168.89 2298.96,-164.89"/>
<polygon fill="black" stroke="black" points="2298.99,-161.38 2288.89,-164.58 2298.78,-168.38 2298.99,-161.38"/>
</g>
<!-- TransactionFee&#45;&gt;Roles -->
<g id="edge117" class="edge">
<title>TransactionFee&#45;&gt;Roles</title>
<path fill="none" stroke="black" d="M2255.75,-576C2259.18,-536.66 2264.22,-436.84 2237,-360 2222.86,-320.09 2192.38,-281.21 2171.52,-257.67"/>
<polygon fill="black" stroke="black" points="2173.89,-255.08 2164.59,-250.02 2168.7,-259.78 2173.89,-255.08"/>
</g>
<!-- TransactionFee&#45;&gt;Diem -->
<g id="edge118" class="edge">
<title>TransactionFee&#45;&gt;Diem</title>
<path fill="none" stroke="black" d="M2209.88,-580.74C2133.85,-559.39 1973.48,-513.31 1840,-468 1836.47,-466.8 1832.8,-465.51 1829.16,-464.18"/>
<polygon fill="black" stroke="black" points="1830.24,-460.85 1819.65,-460.66 1827.81,-467.41 1830.24,-460.85"/>
</g>
<!-- TransactionFee&#45;&gt;XDX -->
<g id="edge120" class="edge">
<title>TransactionFee&#45;&gt;XDX</title>
<path fill="none" stroke="black" d="M2272.48,-576.41C2283.25,-566.75 2296.92,-554.48 2308.45,-544.14"/>
<polygon fill="black" stroke="black" points="2310.92,-546.62 2316.02,-537.34 2306.24,-541.41 2310.92,-546.62"/>
</g>
<!-- TransactionFee&#45;&gt;XUS -->
<g id="edge119" class="edge">
<title>TransactionFee&#45;&gt;XUS</title>
<path fill="none" stroke="black" d="M2294.18,-579.67C2333.53,-566.62 2392.86,-546.93 2430.23,-534.53"/>
<polygon fill="black" stroke="black" points="2431.77,-537.71 2440.16,-531.24 2429.56,-531.07 2431.77,-537.71"/>
</g>
<!-- DiemTransactionPublishingOption&#45;&gt;Signer -->
<g id="edge121" class="edge">
<title>DiemTransactionPublishingOption&#45;&gt;Signer</title>
<path fill="none" stroke="black" d="M1439.13,-364.08C1398.24,-355.89 1349.24,-343.15 1308,-324 1182.27,-265.62 1135.38,-236.35 1083,-108 1075.02,-88.45 1074.13,-64.45 1075.03,-46.31"/>
<polygon fill="black" stroke="black" points="1078.54,-46.34 1075.76,-36.12 1071.56,-45.84 1078.54,-46.34"/>
</g>
<!-- DiemTransactionPublishingOption&#45;&gt;Errors -->
<g id="edge122" class="edge">
<title>DiemTransactionPublishingOption&#45;&gt;Errors</title>
<path fill="none" stroke="black" d="M1620.96,-365.44C1650.81,-357.77 1681.87,-345.05 1705,-324 1743.21,-289.23 1725.61,-262.56 1748,-216 1779.92,-149.63 1769.94,-114.63 1830,-72 1869.07,-44.27 2006.42,-28.7 2076.78,-22.37"/>
<polygon fill="black" stroke="black" points="2077.4,-25.83 2087.06,-21.47 2076.79,-18.86 2077.4,-25.83"/>
</g>
<!-- DiemTransactionPublishingOption&#45;&gt;CoreAddresses -->
<g id="edge123" class="edge">
<title>DiemTransactionPublishingOption&#45;&gt;CoreAddresses</title>
<path fill="none" stroke="black" d="M1471.03,-361.37C1451.49,-353.15 1430.77,-341.12 1417,-324 1367.67,-262.68 1359.56,-165.08 1358.69,-118.06"/>
<polygon fill="black" stroke="black" points="1362.19,-118.01 1358.61,-108.04 1355.19,-118.07 1362.19,-118.01"/>
</g>
<!-- DiemTransactionPublishingOption&#45;&gt;DiemTimestamp -->
<g id="edge124" class="edge">
<title>DiemTransactionPublishingOption&#45;&gt;DiemTimestamp</title>
<path fill="none" stroke="black" d="M1616.05,-364.93C1655.34,-357.12 1700.64,-344.44 1738,-324 1758.41,-312.83 1755.36,-298.73 1776,-288 1847.22,-250.96 1877.11,-278.18 1953,-252 1986.82,-240.33 1991.59,-228.8 2025,-216 2067.74,-199.63 2117.6,-186.07 2155.93,-176.77"/>
<polygon fill="black" stroke="black" points="2157.01,-180.11 2165.92,-174.38 2155.38,-173.3 2157.01,-180.11"/>
</g>
<!-- DiemTransactionPublishingOption&#45;&gt;Roles -->
<g id="edge125" class="edge">
<title>DiemTransactionPublishingOption&#45;&gt;Roles</title>
<path fill="none" stroke="black" d="M1595.01,-362.68C1645.56,-352.34 1715.07,-337.81 1776,-324 1842.02,-309.03 1858.16,-303.73 1924,-288 1990.18,-272.19 2067.38,-254.18 2112.27,-243.75"/>
<polygon fill="black" stroke="black" points="2113.2,-247.13 2122.15,-241.45 2111.62,-240.31 2113.2,-247.13"/>
</g>
<!-- DiemTransactionPublishingOption&#45;&gt;Vector -->
<g id="edge126" class="edge">
<title>DiemTransactionPublishingOption&#45;&gt;Vector</title>
<path fill="none" stroke="black" d="M1402.67,-370.32C1278.17,-359.25 1081.87,-329.89 931,-252 907.31,-239.77 905.81,-229.81 883,-216 858.65,-201.26 829.57,-187.5 807.29,-177.7"/>
<polygon fill="black" stroke="black" points="808.44,-174.38 797.87,-173.62 805.66,-180.81 808.44,-174.38"/>
</g>
<!-- DiemTransactionPublishingOption&#45;&gt;DiemConfig -->
<g id="edge127" class="edge">
<title>DiemTransactionPublishingOption&#45;&gt;DiemConfig</title>
<path fill="none" stroke="black" d="M1552.02,-360.23C1568.49,-350.38 1589.42,-337.86 1606.85,-327.43"/>
<polygon fill="black" stroke="black" points="1608.81,-330.34 1615.6,-322.2 1605.22,-324.33 1608.81,-330.34"/>
</g>
<!-- DesignatedDealer&#45;&gt;Signer -->
<g id="edge128" class="edge">
<title>DesignatedDealer&#45;&gt;Signer</title>
<path fill="none" stroke="black" d="M1751.5,-593.55C1578.23,-594.01 1148.78,-589.89 1015,-540 819.09,-466.94 732.01,-441.2 643,-252 603.13,-167.25 715.53,-96.43 757,-72 803.31,-44.72 958.15,-28.71 1034.57,-22.29"/>
<polygon fill="black" stroke="black" points="1035.14,-25.76 1044.82,-21.45 1034.56,-18.78 1035.14,-25.76"/>
</g>
<!-- DesignatedDealer&#45;&gt;Errors -->
<g id="edge129" class="edge">
<title>DesignatedDealer&#45;&gt;Errors</title>
<path fill="none" stroke="black" d="M1895.9,-589.14C2045.23,-580.73 2387.82,-559.91 2503,-540 2623.69,-519.14 2654.09,-510.38 2769,-468 2941.22,-404.48 3110,-418.56 3110,-235 3110,-235 3110,-235 3110,-161 3110,-118.16 3107.96,-96.76 3073,-72 2997.96,-18.86 2337.29,-18.01 2161.7,-18.74"/>
<polygon fill="black" stroke="black" points="2161.54,-15.24 2151.55,-18.78 2161.57,-22.24 2161.54,-15.24"/>
</g>
<!-- DesignatedDealer&#45;&gt;Roles -->
<g id="edge130" class="edge">
<title>DesignatedDealer&#45;&gt;Roles</title>
<path fill="none" stroke="black" d="M1842.34,-576.36C1884.97,-535.12 1997.67,-424.3 2083,-324 2100.99,-302.86 2119.86,-277.45 2132.98,-259.2"/>
<polygon fill="black" stroke="black" points="2135.96,-261.04 2138.93,-250.87 2130.27,-256.98 2135.96,-261.04"/>
</g>
<!-- DesignatedDealer&#45;&gt;Event -->
<g id="edge131" class="edge">
<title>DesignatedDealer&#45;&gt;Event</title>
<path fill="none" stroke="black" d="M1752.48,-590.93C1597.03,-585.94 1236.25,-571.28 1118,-540 965.37,-499.63 935.13,-446.87 836,-324 818.95,-302.87 801.03,-277.65 788.5,-259.46"/>
<polygon fill="black" stroke="black" points="791.35,-257.43 782.81,-251.15 785.57,-261.38 791.35,-257.43"/>
</g>
<!-- DesignatedDealer&#45;&gt;Diem -->
<g id="edge132" class="edge">
<title>DesignatedDealer&#45;&gt;Diem</title>
<path fill="none" stroke="black" d="M1821.38,-575.87C1816.25,-551.56 1806.79,-506.82 1800.71,-478.01"/>
<polygon fill="black" stroke="black" points="1804.12,-477.25 1798.63,-468.19 1797.27,-478.7 1804.12,-477.25"/>
</g>
<!-- DesignatedDealer&#45;&gt;XUS -->
<g id="edge133" class="edge">
<title>DesignatedDealer&#45;&gt;XUS</title>
<path fill="none" stroke="black" d="M1894.6,-588.09C1998.57,-580.33 2200.49,-563.65 2371,-540 2389.77,-537.4 2410.52,-533.73 2427.73,-530.47"/>
<polygon fill="black" stroke="black" points="2428.79,-533.83 2437.95,-528.5 2427.46,-526.95 2428.79,-533.83"/>
</g>
<!-- ChainId&#45;&gt;Signer -->
<g id="edge134" class="edge">
<title>ChainId&#45;&gt;Signer</title>
<path fill="none" stroke="black" d="M1794.19,-215.77C1791.45,-196.65 1784.79,-165.66 1769,-144 1735.88,-98.57 1717.85,-91.16 1665,-72 1565.08,-35.78 1240.81,-23.44 1122.08,-20.08"/>
<polygon fill="black" stroke="black" points="1122,-16.58 1111.9,-19.8 1121.8,-23.57 1122,-16.58"/>
</g>
<!-- ChainId&#45;&gt;Errors -->
<g id="edge135" class="edge">
<title>ChainId&#45;&gt;Errors</title>
<path fill="none" stroke="black" d="M1799.99,-216.04C1809.1,-178.74 1832.4,-91.38 1855,-72 1887.84,-43.84 2011.21,-28.69 2077.02,-22.46"/>
<polygon fill="black" stroke="black" points="2077.43,-25.94 2087.07,-21.54 2076.79,-18.97 2077.43,-25.94"/>
</g>
<!-- ChainId&#45;&gt;CoreAddresses -->
<g id="edge136" class="edge">
<title>ChainId&#45;&gt;CoreAddresses</title>
<path fill="none" stroke="black" d="M1764.92,-222.9C1690.14,-198.6 1499.62,-136.69 1408.72,-107.16"/>
<polygon fill="black" stroke="black" points="1409.79,-103.82 1399.19,-104.06 1407.62,-110.48 1409.79,-103.82"/>
</g>
<!-- ChainId&#45;&gt;DiemTimestamp -->
<g id="edge137" class="edge">
<title>ChainId&#45;&gt;DiemTimestamp</title>
<path fill="none" stroke="black" d="M1831.4,-226.17C1848.22,-222.98 1868.63,-219.19 1887,-216 1977.13,-200.37 2081.36,-183.95 2148.4,-173.61"/>
<polygon fill="black" stroke="black" points="2149.08,-177.04 2158.43,-172.06 2148.01,-170.13 2149.08,-177.04"/>
</g>
<!-- AccountFreezing&#45;&gt;Signer -->
<g id="edge138" class="edge">
<title>AccountFreezing&#45;&gt;Signer</title>
<path fill="none" stroke="black" d="M1497.97,-287.73C1499.39,-244.12 1496.51,-129.01 1432,-72 1386.74,-32.01 1206.1,-22.19 1121.77,-19.78"/>
<polygon fill="black" stroke="black" points="1121.83,-16.28 1111.74,-19.52 1121.65,-23.28 1121.83,-16.28"/>
</g>
<!-- AccountFreezing&#45;&gt;Errors -->
<g id="edge139" class="edge">
<title>AccountFreezing&#45;&gt;Errors</title>
<path fill="none" stroke="black" d="M1548.53,-293.45C1557.98,-291.51 1567.77,-289.6 1577,-288 1694.98,-267.54 1737.87,-307.45 1844,-252 1863.24,-241.95 1861.65,-231.35 1877,-216 1943.94,-149.04 1958.62,-129.29 2034,-72 2051.17,-58.95 2071.66,-46.1 2088.21,-36.33"/>
<polygon fill="black" stroke="black" points="2090.08,-39.29 2096.96,-31.23 2086.56,-33.24 2090.08,-39.29"/>
</g>
<!-- AccountFreezing&#45;&gt;CoreAddresses -->
<g id="edge140" class="edge">
<title>AccountFreezing&#45;&gt;CoreAddresses</title>
<path fill="none" stroke="black" d="M1474.31,-288.8C1462.05,-279.18 1447.36,-266.12 1437,-252 1405.94,-209.64 1412.63,-190.91 1389,-144 1384.46,-134.99 1379.13,-125.32 1374.24,-116.75"/>
<polygon fill="black" stroke="black" points="1377.19,-114.86 1369.15,-107.96 1371.13,-118.37 1377.19,-114.86"/>
</g>
<!-- AccountFreezing&#45;&gt;DiemTimestamp -->
<g id="edge141" class="edge">
<title>AccountFreezing&#45;&gt;DiemTimestamp</title>
<path fill="none" stroke="black" d="M1548.51,-293.34C1557.96,-291.41 1567.76,-289.53 1577,-288 1709.48,-266.02 1755.44,-309.07 1877,-252 1898.06,-242.11 1894.21,-226.45 1915,-216 1984.49,-181.07 2072.98,-168.73 2136.37,-164.58"/>
<polygon fill="black" stroke="black" points="2136.94,-168.05 2146.71,-163.96 2136.52,-161.07 2136.94,-168.05"/>
</g>
<!-- AccountFreezing&#45;&gt;Roles -->
<g id="edge142" class="edge">
<title>AccountFreezing&#45;&gt;Roles</title>
<path fill="none" stroke="black" d="M1548.05,-293.22C1557.63,-291.27 1567.59,-289.43 1577,-288 1680.22,-272.31 1996.84,-246.91 2109.6,-238.12"/>
<polygon fill="black" stroke="black" points="2110.16,-241.58 2119.86,-237.32 2109.62,-234.6 2110.16,-241.58"/>
</g>
<!-- AccountFreezing&#45;&gt;Event -->
<g id="edge143" class="edge">
<title>AccountFreezing&#45;&gt;Event</title>
<path fill="none" stroke="black" d="M1431.38,-298.66C1284.54,-284.49 932.92,-250.54 812.93,-238.95"/>
<polygon fill="black" stroke="black" points="813,-235.44 802.71,-237.97 812.33,-242.41 813,-235.44"/>
</g>
<!-- Authenticator&#45;&gt;Errors -->
<g id="edge144" class="edge">
<title>Authenticator&#45;&gt;Errors</title>
<path fill="none" stroke="black" d="M331.65,-216.6C351.78,-197.41 387.29,-165.51 422,-144 489.31,-102.28 507.8,-89.69 585,-72 733.69,-37.93 1843.67,-22.41 2076.31,-19.51"/>
<polygon fill="black" stroke="black" points="2076.45,-23.01 2086.41,-19.38 2076.37,-16.01 2076.45,-23.01"/>
</g>
<!-- Authenticator&#45;&gt;Vector -->
<g id="edge145" class="edge">
<title>Authenticator&#45;&gt;Vector</title>
<path fill="none" stroke="black" d="M366.54,-225.11C457.74,-211.14 645.86,-182.32 729.87,-169.45"/>
<polygon fill="black" stroke="black" points="730.47,-172.9 739.82,-167.93 729.41,-165.98 730.47,-172.9"/>
</g>
<!-- Authenticator&#45;&gt;BCS -->
<g id="edge146" class="edge">
<title>Authenticator&#45;&gt;BCS</title>
<path fill="none" stroke="black" d="M344.98,-218.33C369.13,-206.5 402.95,-189.95 427.29,-178.03"/>
<polygon fill="black" stroke="black" points="428.99,-181.1 436.44,-173.56 425.91,-174.81 428.99,-181.1"/>
</g>
<!-- Authenticator&#45;&gt;Hash -->
<g id="edge147" class="edge">
<title>Authenticator&#45;&gt;Hash</title>
<path fill="none" stroke="black" d="M311.29,-215.7C309.64,-207.98 307.65,-198.71 305.81,-190.11"/>
<polygon fill="black" stroke="black" points="309.18,-189.15 303.67,-180.1 302.34,-190.62 309.18,-189.15"/>
</g>
<!-- FixedPoint32&#45;&gt;Errors -->
<g id="edge148" class="edge">
<title>FixedPoint32&#45;&gt;Errors</title>
<path fill="none" stroke="black" d="M2772.13,-370.08C2862.08,-357.93 3037.83,-333.17 3048,-324 3078.42,-296.56 3072,-275.97 3072,-235 3072,-235 3072,-235 3072,-161 3072,-120.03 3079.8,-97.83 3048,-72 2978.61,-15.64 2334.66,-17.12 2161.63,-18.55"/>
<polygon fill="black" stroke="black" points="2161.59,-15.05 2151.62,-18.64 2161.65,-22.05 2161.59,-15.05"/>
</g>
<!-- RegisteredCurrencies&#45;&gt;Errors -->
<g id="edge149" class="edge">
<title>RegisteredCurrencies&#45;&gt;Errors</title>
<path fill="none" stroke="black" d="M1811.6,-360.16C1824.37,-341.92 1845.76,-312.2 1866,-288 1946.09,-192.22 2050.73,-86.51 2096.23,-41.39"/>
<polygon fill="black" stroke="black" points="2098.86,-43.7 2103.51,-34.18 2093.94,-38.73 2098.86,-43.7"/>
</g>
<!-- RegisteredCurrencies&#45;&gt;DiemTimestamp -->
<g id="edge150" class="edge">
<title>RegisteredCurrencies&#45;&gt;DiemTimestamp</title>
<path fill="none" stroke="black" d="M1820.21,-360.4C1844.57,-341.01 1887.32,-308.92 1928,-288 1970.38,-266.21 1987.02,-274.55 2029,-252 2052.49,-239.38 2053.62,-228.82 2077,-216 2104.37,-201 2136.86,-188.46 2163.75,-179.36"/>
<polygon fill="black" stroke="black" points="2165,-182.63 2173.39,-176.16 2162.8,-175.99 2165,-182.63"/>
</g>
<!-- RegisteredCurrencies&#45;&gt;Roles -->
<g id="edge151" class="edge">
<title>RegisteredCurrencies&#45;&gt;Roles</title>
<path fill="none" stroke="black" d="M1836.98,-361.73C1862.56,-351.16 1897.36,-336.76 1928,-324 1966.25,-308.07 1975.58,-303.52 2014,-288 2048.32,-274.13 2087.75,-258.84 2115.28,-248.26"/>
<polygon fill="black" stroke="black" points="2116.78,-251.43 2124.86,-244.58 2114.27,-244.9 2116.78,-251.43"/>
</g>
<!-- RegisteredCurrencies&#45;&gt;Vector -->
<g id="edge152" class="edge">
<title>RegisteredCurrencies&#45;&gt;Vector</title>
<path fill="none" stroke="black" d="M1730.02,-367.37C1709.72,-364.76 1687.5,-362.09 1667,-360 1456.37,-338.57 1398.66,-369.98 1192,-324 1103.85,-304.39 1085.52,-286.35 1002,-252 965.57,-237.01 957.59,-230.61 921,-216 883.55,-201.04 840.02,-185.8 809.71,-175.52"/>
<polygon fill="black" stroke="black" points="810.57,-172.12 799.97,-172.24 808.33,-178.75 810.57,-172.12"/>
</g>
<!-- RegisteredCurrencies&#45;&gt;DiemConfig -->
<g id="edge153" class="edge">
<title>RegisteredCurrencies&#45;&gt;DiemConfig</title>
<path fill="none" stroke="black" d="M1764.71,-361.46C1740.21,-350.68 1707.5,-336.28 1681.87,-324.99"/>
<polygon fill="black" stroke="black" points="1682.98,-321.66 1672.42,-320.83 1680.16,-328.07 1682.98,-321.66"/>
</g>
</g>
</svg>
