<?xml version="1.0" encoding="UTF-8" standalone="no"?>
<!DOCTYPE svg PUBLIC "-//W3C//DTD SVG 1.1//EN"
 "http://www.w3.org/Graphics/SVG/1.1/DTD/svg11.dtd">
<!-- Generated by graphviz version 2.46.1 (20210213.1702)
 -->
<!-- Title: G Pages: 1 -->
<svg width="888pt" height="520pt"
 viewBox="0.00 0.00 888.00 520.00" xmlns="http://www.w3.org/2000/svg" xmlns:xlink="http://www.w3.org/1999/xlink">
<g id="graph0" class="graph" transform="scale(1 1) rotate(0) translate(4 516)">
<title>G</title>
<polygon fill="white" stroke="transparent" points="-4,4 -4,-516 884,-516 884,4 -4,4"/>
<g id="clust1" class="cluster">
<title>cluster_DualAttestation</title>
<polygon fill="none" stroke="black" points="258,-393 258,-468 662,-468 662,-393 258,-393"/>
<text text-anchor="middle" x="460" y="-452.8" font-family="Times,serif" font-size="14.00">DualAttestation</text>
</g>
<g id="clust2" class="cluster">
<title>cluster_Signer</title>
<polygon fill="none" stroke="black" points="8,-238 8,-385 158,-385 158,-238 8,-238"/>
<text text-anchor="middle" x="83" y="-369.8" font-family="Times,serif" font-size="14.00">Signer</text>
</g>
<g id="clust3" class="cluster">
<title>cluster_Errors</title>
<polygon fill="none" stroke="black" points="352,-8 352,-166 783,-166 783,-8 352,-8"/>
<text text-anchor="middle" x="567.5" y="-150.8" font-family="Times,serif" font-size="14.00">Errors</text>
</g>
<g id="clust4" class="cluster">
<title>cluster_DiemTimestamp</title>
<polygon fill="none" stroke="black" points="166,-91 166,-385 340,-385 340,-91 166,-91"/>
<text text-anchor="middle" x="253" y="-369.8" font-family="Times,serif" font-size="14.00">DiemTimestamp</text>
</g>
<g id="clust5" class="cluster">
<title>cluster_Event</title>
<polygon fill="none" stroke="black" points="348,-238 348,-385 534,-385 534,-238 348,-238"/>
<text text-anchor="middle" x="441" y="-369.8" font-family="Times,serif" font-size="14.00">Event</text>
</g>
<g id="clust6" class="cluster">
<title>cluster_Signature</title>
<polygon fill="none" stroke="black" points="650,-310 650,-385 872,-385 872,-310 650,-310"/>
<text text-anchor="middle" x="761" y="-369.8" font-family="Times,serif" font-size="14.00">Signature</text>
</g>
<g id="clust7" class="cluster">
<title>cluster_CoreAddresses</title>
<polygon fill="none" stroke="black" points="83,-8 83,-83 313,-83 313,-8 83,-8"/>
<text text-anchor="middle" x="198" y="-67.8" font-family="Times,serif" font-size="14.00">CoreAddresses</text>
</g>
<!-- rotate_dual_attestation_info -->
<g id="node1" class="node">
<title>rotate_dual_attestation_info</title>
<ellipse fill="none" stroke="black" cx="432" cy="-494" rx="109.38" ry="18"/>
<text text-anchor="middle" x="432" y="-490.3" font-family="Times,serif" font-size="14.00">rotate_dual_attestation_info</text>
</g>
<!-- DualAttestation::rotate_base_url -->
<g id="node2" class="node">
<title>DualAttestation::rotate_base_url</title>
<ellipse fill="none" stroke="black" cx="331" cy="-419" rx="64.99" ry="18"/>
<text text-anchor="middle" x="331" y="-415.3" font-family="Times,serif" font-size="14.00">rotate_base_url</text>
</g>
<!-- rotate_dual_attestation_info&#45;&gt;DualAttestation::rotate_base_url -->
<g id="edge1" class="edge">
<title>rotate_dual_attestation_info&#45;&gt;DualAttestation::rotate_base_url</title>
<path fill="none" stroke="black" d="M408.83,-476.25C394.77,-466.09 376.68,-453.02 361.47,-442.03"/>
<polygon fill="black" stroke="black" points="363.52,-439.19 353.37,-436.17 359.42,-444.86 363.52,-439.19"/>
</g>
<!-- DualAttestation::rotate_compliance_public_key -->
<g id="node3" class="node">
<title>DualAttestation::rotate_compliance_public_key</title>
<ellipse fill="none" stroke="black" cx="534" cy="-419" rx="119.68" ry="18"/>
<text text-anchor="middle" x="534" y="-415.3" font-family="Times,serif" font-size="14.00">rotate_compliance_public_key</text>
</g>
<!-- rotate_dual_attestation_info&#45;&gt;DualAttestation::rotate_compliance_public_key -->
<g id="edge2" class="edge">
<title>rotate_dual_attestation_info&#45;&gt;DualAttestation::rotate_compliance_public_key</title>
<path fill="none" stroke="black" d="M455.4,-476.25C469.27,-466.33 487.03,-453.62 502.15,-442.79"/>
<polygon fill="black" stroke="black" points="504.61,-445.34 510.71,-436.67 500.54,-439.64 504.61,-445.34"/>
</g>
<!-- Signer::address_of -->
<g id="node4" class="node">
<title>Signer::address_of</title>
<ellipse fill="none" stroke="black" cx="101" cy="-336" rx="48.99" ry="18"/>
<text text-anchor="middle" x="101" y="-332.3" font-family="Times,serif" font-size="14.00">address_of</text>
</g>
<!-- DualAttestation::rotate_base_url&#45;&gt;Signer::address_of -->
<g id="edge3" class="edge">
<title>DualAttestation::rotate_base_url&#45;&gt;Signer::address_of</title>
<path fill="none" stroke="black" d="M269.42,-413.05C236.4,-408.67 195.7,-400.45 162,-385 148.53,-378.83 135.37,-369.1 124.75,-360.01"/>
<polygon fill="black" stroke="black" points="126.96,-357.29 117.16,-353.25 122.3,-362.52 126.96,-357.29"/>
</g>
<!-- Errors::not_published -->
<g id="node5" class="node">
<title>Errors::not_published</title>
<ellipse fill="none" stroke="black" cx="550" cy="-117" rx="60.39" ry="18"/>
<text text-anchor="middle" x="550" y="-113.3" font-family="Times,serif" font-size="14.00">not_published</text>
</g>
<!-- DualAttestation::rotate_base_url&#45;&gt;Errors::not_published -->
<g id="edge4" class="edge">
<title>DualAttestation::rotate_base_url&#45;&gt;Errors::not_published</title>
<path fill="none" stroke="black" d="M366.61,-403.84C378.62,-399.64 392.22,-395.5 405,-393 419.53,-390.16 527.61,-395.55 538,-385 570.71,-351.79 559.47,-206.22 553.11,-145.14"/>
<polygon fill="black" stroke="black" points="556.58,-144.66 552.03,-135.09 549.62,-145.41 556.58,-144.66"/>
</g>
<!-- DiemTimestamp::now_seconds -->
<g id="node6" class="node">
<title>DiemTimestamp::now_seconds</title>
<ellipse fill="none" stroke="black" cx="274" cy="-336" rx="57.69" ry="18"/>
<text text-anchor="middle" x="274" y="-332.3" font-family="Times,serif" font-size="14.00">now_seconds</text>
</g>
<!-- DualAttestation::rotate_base_url&#45;&gt;DiemTimestamp::now_seconds -->
<g id="edge5" class="edge">
<title>DualAttestation::rotate_base_url&#45;&gt;DiemTimestamp::now_seconds</title>
<path fill="none" stroke="black" d="M319.19,-401.22C311.24,-389.92 300.62,-374.83 291.67,-362.11"/>
<polygon fill="black" stroke="black" points="294.41,-359.93 285.8,-353.76 288.69,-363.95 294.41,-359.93"/>
</g>
<!-- Event::emit_event -->
<g id="node7" class="node">
<title>Event::emit_event</title>
<ellipse fill="none" stroke="black" cx="441" cy="-336" rx="50.09" ry="18"/>
<text text-anchor="middle" x="441" y="-332.3" font-family="Times,serif" font-size="14.00">emit_event</text>
</g>
<!-- DualAttestation::rotate_base_url&#45;&gt;Event::emit_event -->
<g id="edge6" class="edge">
<title>DualAttestation::rotate_base_url&#45;&gt;Event::emit_event</title>
<path fill="none" stroke="black" d="M352.73,-402C369.67,-389.52 393.36,-372.08 411.93,-358.41"/>
<polygon fill="black" stroke="black" points="414.08,-361.17 420.06,-352.42 409.93,-355.53 414.08,-361.17"/>
</g>
<!-- DualAttestation::rotate_compliance_public_key&#45;&gt;Signer::address_of -->
<g id="edge7" class="edge">
<title>DualAttestation::rotate_compliance_public_key&#45;&gt;Signer::address_of</title>
<path fill="none" stroke="black" d="M470.66,-403.65C449.85,-399.49 426.54,-395.43 405,-393 378.16,-389.98 187.38,-394.26 162,-385 147.67,-379.77 134.1,-369.79 123.4,-360.27"/>
<polygon fill="black" stroke="black" points="125.51,-357.46 115.82,-353.18 120.73,-362.57 125.51,-357.46"/>
</g>
<!-- DualAttestation::rotate_compliance_public_key&#45;&gt;Errors::not_published -->
<g id="edge9" class="edge">
<title>DualAttestation::rotate_compliance_public_key&#45;&gt;Errors::not_published</title>
<path fill="none" stroke="black" d="M556.48,-401.25C561.15,-396.56 565.44,-391.06 568,-385 602.64,-303.11 575.43,-194.43 559.48,-144.79"/>
<polygon fill="black" stroke="black" points="562.75,-143.51 556.28,-135.12 556.1,-145.72 562.75,-143.51"/>
</g>
<!-- DualAttestation::rotate_compliance_public_key&#45;&gt;DiemTimestamp::now_seconds -->
<g id="edge10" class="edge">
<title>DualAttestation::rotate_compliance_public_key&#45;&gt;DiemTimestamp::now_seconds</title>
<path fill="none" stroke="black" d="M466.52,-404.12C446.74,-400.27 425.04,-396.25 405,-393 378.01,-388.62 369.53,-394.78 344,-385 328.35,-379.01 312.78,-368.86 300.32,-359.44"/>
<polygon fill="black" stroke="black" points="302.25,-356.51 292.23,-353.09 297.94,-362.02 302.25,-356.51"/>
</g>
<!-- DualAttestation::rotate_compliance_public_key&#45;&gt;Event::emit_event -->
<g id="edge12" class="edge">
<title>DualAttestation::rotate_compliance_public_key&#45;&gt;Event::emit_event</title>
<path fill="none" stroke="black" d="M514.73,-401.22C500.87,-389.14 482.02,-372.72 466.85,-359.51"/>
<polygon fill="black" stroke="black" points="469.14,-356.86 459.3,-352.94 464.54,-362.14 469.14,-356.86"/>
</g>
<!-- Errors::invalid_argument -->
<g id="node8" class="node">
<title>Errors::invalid_argument</title>
<ellipse fill="none" stroke="black" cx="702" cy="-117" rx="73.39" ry="18"/>
<text text-anchor="middle" x="702" y="-113.3" font-family="Times,serif" font-size="14.00">invalid_argument</text>
</g>
<!-- DualAttestation::rotate_compliance_public_key&#45;&gt;Errors::invalid_argument -->
<g id="edge8" class="edge">
<title>DualAttestation::rotate_compliance_public_key&#45;&gt;Errors::invalid_argument</title>
<path fill="none" stroke="black" d="M569.47,-401.76C576.94,-397.14 584.29,-391.55 590,-385 653.89,-311.82 685.14,-196.97 696.63,-145.07"/>
<polygon fill="black" stroke="black" points="700.12,-145.5 698.78,-134.99 693.27,-144.03 700.12,-145.5"/>
</g>
<!-- Signature::ed25519_validate_pubkey -->
<g id="node9" class="node">
<title>Signature::ed25519_validate_pubkey</title>
<ellipse fill="none" stroke="black" cx="761" cy="-336" rx="103.18" ry="18"/>
<text text-anchor="middle" x="761" y="-332.3" font-family="Times,serif" font-size="14.00">ed25519_validate_pubkey</text>
</g>
<!-- DualAttestation::rotate_compliance_public_key&#45;&gt;Signature::ed25519_validate_pubkey -->
<g id="edge11" class="edge">
<title>DualAttestation::rotate_compliance_public_key&#45;&gt;Signature::ed25519_validate_pubkey</title>
<path fill="none" stroke="black" d="M588.05,-402.93C605.98,-397.63 625.96,-391.39 644,-385 667.89,-376.54 694.02,-365.95 715.51,-356.87"/>
<polygon fill="black" stroke="black" points="716.9,-360.09 724.73,-352.95 714.16,-353.65 716.9,-360.09"/>
</g>
<!-- Signer::borrow_address -->
<g id="node10" class="node">
<title>Signer::borrow_address</title>
<ellipse fill="none" stroke="black" cx="83" cy="-264" rx="66.89" ry="18"/>
<text text-anchor="middle" x="83" y="-260.3" font-family="Times,serif" font-size="14.00">borrow_address</text>
</g>
<!-- Signer::address_of&#45;&gt;Signer::borrow_address -->
<g id="edge13" class="edge">
<title>Signer::address_of&#45;&gt;Signer::borrow_address</title>
<path fill="none" stroke="black" d="M96.64,-318.05C94.64,-310.26 92.21,-300.82 89.96,-292.08"/>
<polygon fill="black" stroke="black" points="93.32,-291.09 87.44,-282.28 86.54,-292.83 93.32,-291.09"/>
</g>
<!-- Errors::make -->
<g id="node11" class="node">
<title>Errors::make</title>
<ellipse fill="none" stroke="black" cx="550" cy="-34" rx="30.59" ry="18"/>
<text text-anchor="middle" x="550" y="-30.3" font-family="Times,serif" font-size="14.00">make</text>
</g>
<!-- Errors::not_published&#45;&gt;Errors::make -->
<g id="edge14" class="edge">
<title>Errors::not_published&#45;&gt;Errors::make</title>
<path fill="none" stroke="black" d="M550,-98.82C550,-88.19 550,-74.31 550,-62.2"/>
<polygon fill="black" stroke="black" points="553.5,-62.15 550,-52.15 546.5,-62.15 553.5,-62.15"/>
</g>
<!-- DiemTimestamp::now_microseconds -->
<g id="node12" class="node">
<title>DiemTimestamp::now_microseconds</title>
<ellipse fill="none" stroke="black" cx="253" cy="-264" rx="79.09" ry="18"/>
<text text-anchor="middle" x="253" y="-260.3" font-family="Times,serif" font-size="14.00">now_microseconds</text>
</g>
<!-- DiemTimestamp::now_seconds&#45;&gt;DiemTimestamp::now_microseconds -->
<g id="edge15" class="edge">
<title>DiemTimestamp::now_seconds&#45;&gt;DiemTimestamp::now_microseconds</title>
<path fill="none" stroke="black" d="M268.92,-318.05C266.58,-310.26 263.75,-300.82 261.12,-292.08"/>
<polygon fill="black" stroke="black" points="264.41,-290.85 258.18,-282.28 257.7,-292.86 264.41,-290.85"/>
</g>
<!-- Event::write_to_event_store -->
<g id="node13" class="node">
<title>Event::write_to_event_store</title>
<ellipse fill="none" stroke="black" cx="441" cy="-264" rx="85.29" ry="18"/>
<text text-anchor="middle" x="441" y="-260.3" font-family="Times,serif" font-size="14.00">write_to_event_store</text>
</g>
<!-- Event::emit_event&#45;&gt;Event::write_to_event_store -->
<g id="edge16" class="edge">
<title>Event::emit_event&#45;&gt;Event::write_to_event_store</title>
<path fill="none" stroke="black" d="M441,-317.7C441,-309.98 441,-300.71 441,-292.11"/>
<polygon fill="black" stroke="black" points="444.5,-292.1 441,-282.1 437.5,-292.1 444.5,-292.1"/>
</g>
<!-- Errors::invalid_argument&#45;&gt;Errors::make -->
<g id="edge17" class="edge">
<title>Errors::invalid_argument&#45;&gt;Errors::make</title>
<path fill="none" stroke="black" d="M672.69,-100.38C646.3,-86.32 607.64,-65.72 580.8,-51.41"/>
<polygon fill="black" stroke="black" points="582.31,-48.25 571.84,-46.64 579.02,-54.43 582.31,-48.25"/>
</g>
<!-- CoreAddresses::DIEM_ROOT_ADDRESS -->
<g id="node14" class="node">
<title>CoreAddresses::DIEM_ROOT_ADDRESS</title>
<ellipse fill="none" stroke="black" cx="198" cy="-34" rx="106.68" ry="18"/>
<text text-anchor="middle" x="198" y="-30.3" font-family="Times,serif" font-size="14.00">DIEM_ROOT_ADDRESS</text>
</g>
<!-- DiemTimestamp::now_microseconds&#45;&gt;CoreAddresses::DIEM_ROOT_ADDRESS -->
<g id="edge18" class="edge">
<title>DiemTimestamp::now_microseconds&#45;&gt;CoreAddresses::DIEM_ROOT_ADDRESS</title>
<path fill="none" stroke="black" d="M223.02,-247.26C209.35,-238.33 194.56,-225.77 187,-210 163.94,-161.91 177.6,-97.67 188.51,-61.92"/>
<polygon fill="black" stroke="black" points="191.91,-62.8 191.63,-52.21 185.24,-60.66 191.91,-62.8"/>
</g>
<!-- DiemTimestamp::assert_operating -->
<g id="node15" class="node">
<title>DiemTimestamp::assert_operating</title>
<ellipse fill="none" stroke="black" cx="264" cy="-192" rx="68.49" ry="18"/>
<text text-anchor="middle" x="264" y="-188.3" font-family="Times,serif" font-size="14.00">assert_operating</text>
</g>
<!-- DiemTimestamp::now_microseconds&#45;&gt;DiemTimestamp::assert_operating -->
<g id="edge19" class="edge">
<title>DiemTimestamp::now_microseconds&#45;&gt;DiemTimestamp::assert_operating</title>
<path fill="none" stroke="black" d="M255.72,-245.7C256.93,-237.98 258.39,-228.71 259.74,-220.11"/>
<polygon fill="black" stroke="black" points="263.22,-220.53 261.31,-210.1 256.3,-219.44 263.22,-220.53"/>
</g>
<!-- Errors::invalid_state -->
<g id="node16" class="node">
<title>Errors::invalid_state</title>
<ellipse fill="none" stroke="black" cx="416" cy="-117" rx="55.79" ry="18"/>
<text text-anchor="middle" x="416" y="-113.3" font-family="Times,serif" font-size="14.00">invalid_state</text>
</g>
<!-- DiemTimestamp::assert_operating&#45;&gt;Errors::invalid_state -->
<g id="edge20" class="edge">
<title>DiemTimestamp::assert_operating&#45;&gt;Errors::invalid_state</title>
<path fill="none" stroke="black" d="M310.97,-178.78C322.04,-175.23 333.63,-170.95 344,-166 358.98,-158.85 374.44,-148.93 387.18,-139.96"/>
<polygon fill="black" stroke="black" points="389.46,-142.63 395.52,-133.95 385.36,-136.95 389.46,-142.63"/>
</g>
<!-- DiemTimestamp::is_operating -->
<g id="node17" class="node">
<title>DiemTimestamp::is_operating</title>
<ellipse fill="none" stroke="black" cx="257" cy="-117" rx="53.89" ry="18"/>
<text text-anchor="middle" x="257" y="-113.3" font-family="Times,serif" font-size="14.00">is_operating</text>
</g>
<!-- DiemTimestamp::assert_operating&#45;&gt;DiemTimestamp::is_operating -->
<g id="edge21" class="edge">
<title>DiemTimestamp::assert_operating&#45;&gt;DiemTimestamp::is_operating</title>
<path fill="none" stroke="black" d="M262.34,-173.7C261.53,-165.25 260.54,-154.87 259.62,-145.37"/>
<polygon fill="black" stroke="black" points="263.09,-144.8 258.65,-135.18 256.12,-145.46 263.09,-144.8"/>
</g>
<!-- Errors::invalid_state&#45;&gt;Errors::make -->
<g id="edge22" class="edge">
<title>Errors::invalid_state&#45;&gt;Errors::make</title>
<path fill="none" stroke="black" d="M441.2,-100.76C463.79,-87.11 496.93,-67.08 520.69,-52.71"/>
<polygon fill="black" stroke="black" points="522.55,-55.68 529.3,-47.51 518.93,-49.69 522.55,-55.68"/>
</g>
<!-- DiemTimestamp::is_operating&#45;&gt;CoreAddresses::DIEM_ROOT_ADDRESS -->
<g id="edge23" class="edge">
<title>DiemTimestamp::is_operating&#45;&gt;CoreAddresses::DIEM_ROOT_ADDRESS</title>
<path fill="none" stroke="black" d="M244.78,-99.22C236.6,-88 225.7,-73.03 216.48,-60.36"/>
<polygon fill="black" stroke="black" points="219.13,-58.06 210.41,-52.04 213.47,-62.18 219.13,-58.06"/>
</g>
</g>
</svg>
