<?xml version="1.0" encoding="UTF-8" standalone="no"?>
<!DOCTYPE svg PUBLIC "-//W3C//DTD SVG 1.1//EN"
 "http://www.w3.org/Graphics/SVG/1.1/DTD/svg11.dtd">
<!-- Generated by graphviz version 2.46.1 (20210213.1702)
 -->
<!-- Title: G Pages: 1 -->
<svg width="1464pt" height="523pt"
 viewBox="0.00 0.00 1464.07 523.00" xmlns="http://www.w3.org/2000/svg" xmlns:xlink="http://www.w3.org/1999/xlink">
<g id="graph0" class="graph" transform="scale(1 1) rotate(0) translate(4 519)">
<title>G</title>
<polygon fill="white" stroke="transparent" points="-4,4 -4,-519 1460.07,-519 1460.07,4 -4,4"/>
<g id="clust1" class="cluster">
<title>cluster_SlidingNonce</title>
<polygon fill="none" stroke="black" points="33.84,-246 33.84,-396 235.84,-396 235.84,-246 33.84,-246"/>
<text text-anchor="middle" x="134.84" y="-380.8" font-family="Times,serif" font-size="14.00">SlidingNonce</text>
</g>
<g id="clust2" class="cluster">
<title>cluster_DiemAccount</title>
<polygon fill="none" stroke="black" points="349.84,-246 349.84,-471 1133.84,-471 1133.84,-246 349.84,-246"/>
<text text-anchor="middle" x="741.84" y="-455.8" font-family="Times,serif" font-size="14.00">DiemAccount</text>
</g>
<g id="clust3" class="cluster">
<title>cluster_Errors</title>
<polygon fill="none" stroke="black" points="283.84,-80 283.84,-238 714.84,-238 714.84,-80 283.84,-80"/>
<text text-anchor="middle" x="499.34" y="-222.8" font-family="Times,serif" font-size="14.00">Errors</text>
</g>
<g id="clust4" class="cluster">
<title>cluster_Signer</title>
<polygon fill="none" stroke="black" points="46.84,-80 46.84,-238 196.84,-238 196.84,-80 46.84,-80"/>
<text text-anchor="middle" x="121.84" y="-222.8" font-family="Times,serif" font-size="14.00">Signer</text>
</g>
<g id="clust5" class="cluster">
<title>cluster_Option</title>
<polygon fill="none" stroke="black" points="1141.84,-163 1141.84,-321 1392.84,-321 1392.84,-163 1141.84,-163"/>
<text text-anchor="middle" x="1267.34" y="-305.8" font-family="Times,serif" font-size="14.00">Option</text>
</g>
<g id="clust6" class="cluster">
<title>cluster_Vector</title>
<polygon fill="none" stroke="black" points="1085.84,-8 1085.84,-155 1410.84,-155 1410.84,-8 1085.84,-8"/>
<text text-anchor="middle" x="1248.34" y="-139.8" font-family="Times,serif" font-size="14.00">Vector</text>
</g>
<!-- rotate_authentication_key_with_nonce_admin -->
<g id="node1" class="node">
<title>rotate_authentication_key_with_nonce_admin</title>
<ellipse fill="none" stroke="black" cx="554.84" cy="-497" rx="174.37" ry="18"/>
<text text-anchor="middle" x="554.84" y="-493.3" font-family="Times,serif" font-size="14.00">rotate_authentication_key_with_nonce_admin</text>
</g>
<!-- SlidingNonce::record_nonce_or_abort -->
<g id="node2" class="node">
<title>SlidingNonce::record_nonce_or_abort</title>
<ellipse fill="none" stroke="black" cx="134.84" cy="-347" rx="92.88" ry="18"/>
<text text-anchor="middle" x="134.84" y="-343.3" font-family="Times,serif" font-size="14.00">record_nonce_or_abort</text>
</g>
<!-- rotate_authentication_key_with_nonce_admin&#45;&gt;SlidingNonce::record_nonce_or_abort -->
<g id="edge1" class="edge">
<title>rotate_authentication_key_with_nonce_admin&#45;&gt;SlidingNonce::record_nonce_or_abort</title>
<path fill="none" stroke="black" d="M411.46,-486.73C389.15,-483.04 366.63,-477.97 345.84,-471 276.13,-447.64 204.06,-399.5 164.8,-370.86"/>
<polygon fill="black" stroke="black" points="166.6,-367.84 156.47,-364.72 162.44,-373.47 166.6,-367.84"/>
</g>
<!-- DiemAccount::extract_key_rotation_capability -->
<g id="node3" class="node">
<title>DiemAccount::extract_key_rotation_capability</title>
<ellipse fill="none" stroke="black" cx="479.84" cy="-422" rx="122.38" ry="18"/>
<text text-anchor="middle" x="479.84" y="-418.3" font-family="Times,serif" font-size="14.00">extract_key_rotation_capability</text>
</g>
<!-- rotate_authentication_key_with_nonce_admin&#45;&gt;DiemAccount::extract_key_rotation_capability -->
<g id="edge2" class="edge">
<title>rotate_authentication_key_with_nonce_admin&#45;&gt;DiemAccount::extract_key_rotation_capability</title>
<path fill="none" stroke="black" d="M537.44,-479.07C527.6,-469.49 515.13,-457.35 504.31,-446.82"/>
<polygon fill="black" stroke="black" points="506.75,-444.31 497.14,-439.84 501.86,-449.32 506.75,-444.31"/>
</g>
<!-- DiemAccount::restore_key_rotation_capability -->
<g id="node4" class="node">
<title>DiemAccount::restore_key_rotation_capability</title>
<ellipse fill="none" stroke="black" cx="499.84" cy="-347" rx="122.38" ry="18"/>
<text text-anchor="middle" x="499.84" y="-343.3" font-family="Times,serif" font-size="14.00">restore_key_rotation_capability</text>
</g>
<!-- rotate_authentication_key_with_nonce_admin&#45;&gt;DiemAccount::restore_key_rotation_capability -->
<g id="edge3" class="edge">
<title>rotate_authentication_key_with_nonce_admin&#45;&gt;DiemAccount::restore_key_rotation_capability</title>
<path fill="none" stroke="black" d="M603.21,-479.47C606.15,-477.02 608.75,-474.22 610.84,-471 627.05,-446.02 626.45,-429.36 610.84,-404 600.58,-387.33 583.66,-375.44 566.08,-367.04"/>
<polygon fill="black" stroke="black" points="567.42,-363.81 556.86,-362.96 564.59,-370.21 567.42,-363.81"/>
</g>
<!-- DiemAccount::rotate_authentication_key -->
<g id="node5" class="node">
<title>DiemAccount::rotate_authentication_key</title>
<ellipse fill="none" stroke="black" cx="741.84" cy="-347" rx="102.08" ry="18"/>
<text text-anchor="middle" x="741.84" y="-343.3" font-family="Times,serif" font-size="14.00">rotate_authentication_key</text>
</g>
<!-- rotate_authentication_key_with_nonce_admin&#45;&gt;DiemAccount::rotate_authentication_key -->
<g id="edge4" class="edge">
<title>rotate_authentication_key_with_nonce_admin&#45;&gt;DiemAccount::rotate_authentication_key</title>
<path fill="none" stroke="black" d="M613.15,-479.91C618.99,-477.33 624.66,-474.37 629.84,-471 669.81,-444.99 704.82,-401.36 724.63,-373.66"/>
<polygon fill="black" stroke="black" points="727.64,-375.46 730.52,-365.27 721.91,-371.44 727.64,-375.46"/>
</g>
<!-- Errors::invalid_argument -->
<g id="node6" class="node">
<title>Errors::invalid_argument</title>
<ellipse fill="none" stroke="black" cx="633.84" cy="-189" rx="73.39" ry="18"/>
<text text-anchor="middle" x="633.84" y="-185.3" font-family="Times,serif" font-size="14.00">invalid_argument</text>
</g>
<!-- SlidingNonce::record_nonce_or_abort&#45;&gt;Errors::invalid_argument -->
<g id="edge5" class="edge">
<title>SlidingNonce::record_nonce_or_abort&#45;&gt;Errors::invalid_argument</title>
<path fill="none" stroke="black" d="M187.11,-332.04C197.13,-328.81 207.43,-325.11 216.84,-321 277.63,-294.49 282.16,-264.51 345.84,-246 389.62,-233.28 507.05,-250.67 550.84,-238 569.69,-232.55 588.77,-221.94 603.88,-212.08"/>
<polygon fill="black" stroke="black" points="605.96,-214.9 612.29,-206.41 602.04,-209.1 605.96,-214.9"/>
</g>
<!-- SlidingNonce::try_record_nonce -->
<g id="node7" class="node">
<title>SlidingNonce::try_record_nonce</title>
<ellipse fill="none" stroke="black" cx="134.84" cy="-272" rx="72.59" ry="18"/>
<text text-anchor="middle" x="134.84" y="-268.3" font-family="Times,serif" font-size="14.00">try_record_nonce</text>
</g>
<!-- SlidingNonce::record_nonce_or_abort&#45;&gt;SlidingNonce::try_record_nonce -->
<g id="edge6" class="edge">
<title>SlidingNonce::record_nonce_or_abort&#45;&gt;SlidingNonce::try_record_nonce</title>
<path fill="none" stroke="black" d="M134.84,-328.7C134.84,-320.25 134.84,-309.87 134.84,-300.37"/>
<polygon fill="black" stroke="black" points="138.34,-300.18 134.84,-290.18 131.34,-300.18 138.34,-300.18"/>
</g>
<!-- Signer::address_of -->
<g id="node8" class="node">
<title>Signer::address_of</title>
<ellipse fill="none" stroke="black" cx="121.84" cy="-189" rx="48.99" ry="18"/>
<text text-anchor="middle" x="121.84" y="-185.3" font-family="Times,serif" font-size="14.00">address_of</text>
</g>
<!-- DiemAccount::extract_key_rotation_capability&#45;&gt;Signer::address_of -->
<g id="edge7" class="edge">
<title>DiemAccount::extract_key_rotation_capability&#45;&gt;Signer::address_of</title>
<path fill="none" stroke="black" d="M360.01,-418.38C230.55,-414.94 41.11,-407.91 29.84,-396 -15.97,-347.57 -2.82,-304.12 29.84,-246 40.14,-227.68 59.13,-214.65 77.19,-205.8"/>
<polygon fill="black" stroke="black" points="78.86,-208.88 86.51,-201.54 75.96,-202.51 78.86,-208.88"/>
</g>
<!-- Errors::invalid_state -->
<g id="node9" class="node">
<title>Errors::invalid_state</title>
<ellipse fill="none" stroke="black" cx="347.84" cy="-189" rx="55.79" ry="18"/>
<text text-anchor="middle" x="347.84" y="-185.3" font-family="Times,serif" font-size="14.00">invalid_state</text>
</g>
<!-- DiemAccount::extract_key_rotation_capability&#45;&gt;Errors::invalid_state -->
<g id="edge8" class="edge">
<title>DiemAccount::extract_key_rotation_capability&#45;&gt;Errors::invalid_state</title>
<path fill="none" stroke="black" d="M373.87,-412.95C354.07,-409.25 337.49,-403.86 330.84,-396 287.61,-344.92 316.38,-258.95 335.19,-216.03"/>
<polygon fill="black" stroke="black" points="338.43,-217.37 339.37,-206.82 332.05,-214.48 338.43,-217.37"/>
</g>
<!-- Errors::not_published -->
<g id="node10" class="node">
<title>Errors::not_published</title>
<ellipse fill="none" stroke="black" cx="481.84" cy="-189" rx="60.39" ry="18"/>
<text text-anchor="middle" x="481.84" y="-185.3" font-family="Times,serif" font-size="14.00">not_published</text>
</g>
<!-- DiemAccount::extract_key_rotation_capability&#45;&gt;Errors::not_published -->
<g id="edge9" class="edge">
<title>DiemAccount::extract_key_rotation_capability&#45;&gt;Errors::not_published</title>
<path fill="none" stroke="black" d="M383.71,-410.85C368.05,-407.28 355.18,-402.47 349.84,-396 298.36,-333.67 396.38,-250.16 450.06,-211.41"/>
<polygon fill="black" stroke="black" points="452.14,-214.23 458.27,-205.59 448.09,-208.52 452.14,-214.23"/>
</g>
<!-- Option::extract -->
<g id="node11" class="node">
<title>Option::extract</title>
<ellipse fill="none" stroke="black" cx="1350.84" cy="-272" rx="34.39" ry="18"/>
<text text-anchor="middle" x="1350.84" y="-268.3" font-family="Times,serif" font-size="14.00">extract</text>
</g>
<!-- DiemAccount::extract_key_rotation_capability&#45;&gt;Option::extract -->
<g id="edge10" class="edge">
<title>DiemAccount::extract_key_rotation_capability&#45;&gt;Option::extract</title>
<path fill="none" stroke="black" d="M602.13,-421.74C763.07,-421.77 1037.01,-418.36 1134.84,-396 1216.14,-377.42 1238.97,-369.46 1306.84,-321 1316.18,-314.33 1325.04,-305.4 1332.32,-297.05"/>
<polygon fill="black" stroke="black" points="1335.06,-299.23 1338.79,-289.32 1329.69,-294.74 1335.06,-299.23"/>
</g>
<!-- DiemAccount::exists_at -->
<g id="node12" class="node">
<title>DiemAccount::exists_at</title>
<ellipse fill="none" stroke="black" cx="678.84" cy="-272" rx="41.69" ry="18"/>
<text text-anchor="middle" x="678.84" y="-268.3" font-family="Times,serif" font-size="14.00">exists_at</text>
</g>
<!-- DiemAccount::extract_key_rotation_capability&#45;&gt;DiemAccount::exists_at -->
<g id="edge11" class="edge">
<title>DiemAccount::extract_key_rotation_capability&#45;&gt;DiemAccount::exists_at</title>
<path fill="none" stroke="black" d="M395.23,-408.91C382.98,-405.53 373.07,-401.28 368.84,-396 350.24,-372.75 349.75,-351.85 368.84,-329 401.14,-290.34 547.5,-278.32 627.02,-274.62"/>
<polygon fill="black" stroke="black" points="627.47,-278.1 637.31,-274.17 627.17,-271.11 627.47,-278.1"/>
</g>
<!-- DiemAccount::delegated_key_rotation_capability -->
<g id="node13" class="node">
<title>DiemAccount::delegated_key_rotation_capability</title>
<ellipse fill="none" stroke="black" cx="993.84" cy="-347" rx="131.88" ry="18"/>
<text text-anchor="middle" x="993.84" y="-343.3" font-family="Times,serif" font-size="14.00">delegated_key_rotation_capability</text>
</g>
<!-- DiemAccount::extract_key_rotation_capability&#45;&gt;DiemAccount::delegated_key_rotation_capability -->
<g id="edge12" class="edge">
<title>DiemAccount::extract_key_rotation_capability&#45;&gt;DiemAccount::delegated_key_rotation_capability</title>
<path fill="none" stroke="black" d="M601.84,-420.83C675.21,-418.75 770.11,-412.56 852.84,-396 884.46,-389.67 918.72,-378.12 945.56,-367.94"/>
<polygon fill="black" stroke="black" points="947.02,-371.12 955.09,-364.26 944.5,-364.59 947.02,-371.12"/>
</g>
<!-- DiemAccount::restore_key_rotation_capability&#45;&gt;Errors::not_published -->
<g id="edge13" class="edge">
<title>DiemAccount::restore_key_rotation_capability&#45;&gt;Errors::not_published</title>
<path fill="none" stroke="black" d="M497.84,-328.71C494.74,-301.77 488.71,-249.54 485,-217.42"/>
<polygon fill="black" stroke="black" points="488.47,-216.9 483.84,-207.37 481.51,-217.7 488.47,-216.9"/>
</g>
<!-- DiemAccount::restore_key_rotation_capability&#45;&gt;DiemAccount::exists_at -->
<g id="edge15" class="edge">
<title>DiemAccount::restore_key_rotation_capability&#45;&gt;DiemAccount::exists_at</title>
<path fill="none" stroke="black" d="M539.57,-329.8C569.45,-317.61 610.2,-300.99 639.9,-288.88"/>
<polygon fill="black" stroke="black" points="641.58,-291.98 649.52,-284.96 638.93,-285.49 641.58,-291.98"/>
</g>
<!-- Option::fill -->
<g id="node14" class="node">
<title>Option::fill</title>
<ellipse fill="none" stroke="black" cx="1176.84" cy="-272" rx="27" ry="18"/>
<text text-anchor="middle" x="1176.84" y="-268.3" font-family="Times,serif" font-size="14.00">fill</text>
</g>
<!-- DiemAccount::restore_key_rotation_capability&#45;&gt;Option::fill -->
<g id="edge14" class="edge">
<title>DiemAccount::restore_key_rotation_capability&#45;&gt;Option::fill</title>
<path fill="none" stroke="black" d="M582.86,-333.79C598.75,-331.86 615.29,-330.13 630.84,-329 658.94,-326.96 1112.5,-333.31 1137.84,-321 1148.09,-316.02 1156.54,-306.93 1162.92,-297.98"/>
<polygon fill="black" stroke="black" points="1165.87,-299.88 1168.4,-289.59 1160,-296.05 1165.87,-299.88"/>
</g>
<!-- DiemAccount::rotate_authentication_key&#45;&gt;Errors::invalid_argument -->
<g id="edge16" class="edge">
<title>DiemAccount::rotate_authentication_key&#45;&gt;Errors::invalid_argument</title>
<path fill="none" stroke="black" d="M661.77,-335.82C646.12,-332.18 632.95,-327.35 627.84,-321 604.22,-291.64 613.65,-245.5 623.26,-216.54"/>
<polygon fill="black" stroke="black" points="626.58,-217.66 626.62,-207.07 619.98,-215.32 626.58,-217.66"/>
</g>
<!-- DiemAccount::rotate_authentication_key&#45;&gt;Errors::not_published -->
<g id="edge17" class="edge">
<title>DiemAccount::rotate_authentication_key&#45;&gt;Errors::not_published</title>
<path fill="none" stroke="black" d="M745.66,-328.94C749.61,-306.35 752.4,-266.94 729.84,-246 715.33,-232.53 570.61,-244.28 551.84,-238 535.83,-232.64 520.13,-222.47 507.67,-212.86"/>
<polygon fill="black" stroke="black" points="509.58,-209.91 499.6,-206.36 505.2,-215.36 509.58,-209.91"/>
</g>
<!-- DiemAccount::rotate_authentication_key&#45;&gt;DiemAccount::exists_at -->
<g id="edge19" class="edge">
<title>DiemAccount::rotate_authentication_key&#45;&gt;DiemAccount::exists_at</title>
<path fill="none" stroke="black" d="M727.23,-329.07C718.94,-319.47 708.45,-307.31 699.35,-296.76"/>
<polygon fill="black" stroke="black" points="701.91,-294.37 692.72,-289.09 696.61,-298.95 701.91,-294.37"/>
</g>
<!-- Vector::length -->
<g id="node15" class="node">
<title>Vector::length</title>
<ellipse fill="none" stroke="black" cx="1310.84" cy="-34" rx="32.49" ry="18"/>
<text text-anchor="middle" x="1310.84" y="-30.3" font-family="Times,serif" font-size="14.00">length</text>
</g>
<!-- DiemAccount::rotate_authentication_key&#45;&gt;Vector::length -->
<g id="edge18" class="edge">
<title>DiemAccount::rotate_authentication_key&#45;&gt;Vector::length</title>
<path fill="none" stroke="black" d="M811.54,-333.83C825.19,-331.87 839.43,-330.12 852.84,-329 867.9,-327.74 1385.76,-331.28 1396.84,-321 1475.53,-248.03 1470.28,-170.01 1411.84,-80 1398.51,-59.48 1373.42,-48.23 1351.57,-42.12"/>
<polygon fill="black" stroke="black" points="1352.37,-38.71 1341.82,-39.65 1350.66,-45.5 1352.37,-38.71"/>
</g>
<!-- Errors::make -->
<g id="node16" class="node">
<title>Errors::make</title>
<ellipse fill="none" stroke="black" cx="481.84" cy="-106" rx="30.59" ry="18"/>
<text text-anchor="middle" x="481.84" y="-102.3" font-family="Times,serif" font-size="14.00">make</text>
</g>
<!-- Errors::invalid_argument&#45;&gt;Errors::make -->
<g id="edge20" class="edge">
<title>Errors::invalid_argument&#45;&gt;Errors::make</title>
<path fill="none" stroke="black" d="M604.53,-172.38C578.14,-158.32 539.48,-137.72 512.64,-123.41"/>
<polygon fill="black" stroke="black" points="514.15,-120.25 503.68,-118.64 510.86,-126.43 514.15,-120.25"/>
</g>
<!-- SlidingNonce::try_record_nonce&#45;&gt;Signer::address_of -->
<g id="edge21" class="edge">
<title>SlidingNonce::try_record_nonce&#45;&gt;Signer::address_of</title>
<path fill="none" stroke="black" d="M132.08,-253.82C130.38,-243.19 128.15,-229.31 126.21,-217.2"/>
<polygon fill="black" stroke="black" points="129.63,-216.47 124.59,-207.15 122.72,-217.58 129.63,-216.47"/>
</g>
<!-- SlidingNonce::try_record_nonce&#45;&gt;Errors::not_published -->
<g id="edge22" class="edge">
<title>SlidingNonce::try_record_nonce&#45;&gt;Errors::not_published</title>
<path fill="none" stroke="black" d="M189.72,-260.06C216.75,-255.05 249.9,-249.47 279.84,-246 309.25,-242.59 384.87,-247.7 412.84,-238 428.63,-232.52 444.11,-222.33 456.39,-212.75"/>
<polygon fill="black" stroke="black" points="458.8,-215.3 464.35,-206.27 454.38,-209.87 458.8,-215.3"/>
</g>
<!-- Signer::borrow_address -->
<g id="node17" class="node">
<title>Signer::borrow_address</title>
<ellipse fill="none" stroke="black" cx="121.84" cy="-106" rx="66.89" ry="18"/>
<text text-anchor="middle" x="121.84" y="-102.3" font-family="Times,serif" font-size="14.00">borrow_address</text>
</g>
<!-- Signer::address_of&#45;&gt;Signer::borrow_address -->
<g id="edge23" class="edge">
<title>Signer::address_of&#45;&gt;Signer::borrow_address</title>
<path fill="none" stroke="black" d="M121.84,-170.82C121.84,-160.19 121.84,-146.31 121.84,-134.2"/>
<polygon fill="black" stroke="black" points="125.34,-134.15 121.84,-124.15 118.34,-134.15 125.34,-134.15"/>
</g>
<!-- Errors::invalid_state&#45;&gt;Errors::make -->
<g id="edge24" class="edge">
<title>Errors::invalid_state&#45;&gt;Errors::make</title>
<path fill="none" stroke="black" d="M373.04,-172.76C395.63,-159.11 428.77,-139.08 452.53,-124.71"/>
<polygon fill="black" stroke="black" points="454.39,-127.68 461.14,-119.51 450.77,-121.69 454.39,-127.68"/>
</g>
<!-- Errors::not_published&#45;&gt;Errors::make -->
<g id="edge25" class="edge">
<title>Errors::not_published&#45;&gt;Errors::make</title>
<path fill="none" stroke="black" d="M481.84,-170.82C481.84,-160.19 481.84,-146.31 481.84,-134.2"/>
<polygon fill="black" stroke="black" points="485.34,-134.15 481.84,-124.15 478.34,-134.15 485.34,-134.15"/>
</g>
<!-- Option::extract&#45;&gt;Errors::invalid_argument -->
<g id="edge26" class="edge">
<title>Option::extract&#45;&gt;Errors::invalid_argument</title>
<path fill="none" stroke="black" d="M1331.14,-257.19C1323.84,-252.79 1315.28,-248.44 1306.84,-246 1270.73,-235.54 1175.34,-240.67 1137.84,-238 985.63,-227.16 808.08,-208.94 709.56,-198.35"/>
<polygon fill="black" stroke="black" points="709.72,-194.84 699.4,-197.25 708.97,-201.8 709.72,-194.84"/>
</g>
<!-- Vector::pop_back -->
<g id="node18" class="node">
<title>Vector::pop_back</title>
<ellipse fill="none" stroke="black" cx="1357.84" cy="-106" rx="44.69" ry="18"/>
<text text-anchor="middle" x="1357.84" y="-102.3" font-family="Times,serif" font-size="14.00">pop_back</text>
</g>
<!-- Option::extract&#45;&gt;Vector::pop_back -->
<g id="edge27" class="edge">
<title>Option::extract&#45;&gt;Vector::pop_back</title>
<path fill="none" stroke="black" d="M1352.59,-253.89C1353.06,-248.78 1353.53,-243.17 1353.84,-238 1356.01,-202.27 1357.02,-160.98 1357.48,-134.46"/>
<polygon fill="black" stroke="black" points="1360.98,-134.45 1357.64,-124.39 1353.98,-134.33 1360.98,-134.45"/>
</g>
<!-- Option::is_some -->
<g id="node19" class="node">
<title>Option::is_some</title>
<ellipse fill="none" stroke="black" cx="1304.84" cy="-189" rx="40.09" ry="18"/>
<text text-anchor="middle" x="1304.84" y="-185.3" font-family="Times,serif" font-size="14.00">is_some</text>
</g>
<!-- Option::extract&#45;&gt;Option::is_some -->
<g id="edge28" class="edge">
<title>Option::extract&#45;&gt;Option::is_some</title>
<path fill="none" stroke="black" d="M1341.53,-254.61C1335.15,-243.37 1326.56,-228.25 1319.3,-215.46"/>
<polygon fill="black" stroke="black" points="1322.27,-213.61 1314.29,-206.65 1316.19,-217.07 1322.27,-213.61"/>
</g>
<!-- DiemAccount::delegated_key_rotation_capability&#45;&gt;Errors::not_published -->
<g id="edge29" class="edge">
<title>DiemAccount::delegated_key_rotation_capability&#45;&gt;Errors::not_published</title>
<path fill="none" stroke="black" d="M963.79,-329.42C919.27,-305.84 832.47,-263.52 752.84,-246 709.18,-236.4 594.27,-252.08 551.84,-238 535.82,-232.68 520.12,-222.51 507.66,-212.9"/>
<polygon fill="black" stroke="black" points="509.57,-209.94 499.59,-206.39 505.18,-215.39 509.57,-209.94"/>
</g>
<!-- DiemAccount::delegated_key_rotation_capability&#45;&gt;DiemAccount::exists_at -->
<g id="edge31" class="edge">
<title>DiemAccount::delegated_key_rotation_capability&#45;&gt;DiemAccount::exists_at</title>
<path fill="none" stroke="black" d="M919.49,-332.08C902.17,-328.64 883.83,-324.84 866.84,-321 817.22,-309.79 760.73,-295.1 722.73,-284.94"/>
<polygon fill="black" stroke="black" points="723.57,-281.54 713.01,-282.33 721.76,-288.31 723.57,-281.54"/>
</g>
<!-- Option::is_none -->
<g id="node20" class="node">
<title>Option::is_none</title>
<ellipse fill="none" stroke="black" cx="1259.84" cy="-272" rx="38.19" ry="18"/>
<text text-anchor="middle" x="1259.84" y="-268.3" font-family="Times,serif" font-size="14.00">is_none</text>
</g>
<!-- DiemAccount::delegated_key_rotation_capability&#45;&gt;Option::is_none -->
<g id="edge30" class="edge">
<title>DiemAccount::delegated_key_rotation_capability&#45;&gt;Option::is_none</title>
<path fill="none" stroke="black" d="M1113.7,-339.38C1154.71,-335.62 1194.79,-329.83 1212.84,-321 1223.91,-315.59 1233.85,-306.47 1241.7,-297.62"/>
<polygon fill="black" stroke="black" points="1244.6,-299.61 1248.3,-289.69 1239.22,-295.13 1244.6,-299.61"/>
</g>
<!-- Option::fill&#45;&gt;Errors::invalid_argument -->
<g id="edge32" class="edge">
<title>Option::fill&#45;&gt;Errors::invalid_argument</title>
<path fill="none" stroke="black" d="M1159.87,-257.72C1153.33,-253.26 1145.57,-248.74 1137.84,-246 1061.86,-219.09 836.74,-202.03 714.68,-194.49"/>
<polygon fill="black" stroke="black" points="714.84,-190.99 704.64,-193.88 714.41,-197.98 714.84,-190.99"/>
</g>
<!-- Vector::is_empty -->
<g id="node21" class="node">
<title>Vector::is_empty</title>
<ellipse fill="none" stroke="black" cx="1251.84" cy="-106" rx="43.59" ry="18"/>
<text text-anchor="middle" x="1251.84" y="-102.3" font-family="Times,serif" font-size="14.00">is_empty</text>
</g>
<!-- Option::fill&#45;&gt;Vector::is_empty -->
<g id="edge33" class="edge">
<title>Option::fill&#45;&gt;Vector::is_empty</title>
<path fill="none" stroke="black" d="M1184.31,-254.68C1197.32,-226.21 1224.27,-167.28 1239.91,-133.09"/>
<polygon fill="black" stroke="black" points="1243.2,-134.3 1244.18,-123.75 1236.84,-131.39 1243.2,-134.3"/>
</g>
<!-- Vector::push_back -->
<g id="node22" class="node">
<title>Vector::push_back</title>
<ellipse fill="none" stroke="black" cx="1141.84" cy="-106" rx="48.19" ry="18"/>
<text text-anchor="middle" x="1141.84" y="-102.3" font-family="Times,serif" font-size="14.00">push_back</text>
</g>
<!-- Option::fill&#45;&gt;Vector::push_back -->
<g id="edge34" class="edge">
<title>Option::fill&#45;&gt;Vector::push_back</title>
<path fill="none" stroke="black" d="M1173.23,-254.07C1167.17,-225.71 1154.94,-168.38 1147.66,-134.28"/>
<polygon fill="black" stroke="black" points="1151,-133.14 1145.49,-124.09 1144.15,-134.6 1151,-133.14"/>
</g>
<!-- Option::is_some&#45;&gt;Vector::is_empty -->
<g id="edge35" class="edge">
<title>Option::is_some&#45;&gt;Vector::is_empty</title>
<path fill="none" stroke="black" d="M1294.11,-171.61C1286.69,-160.27 1276.67,-144.96 1268.25,-132.09"/>
<polygon fill="black" stroke="black" points="1271.13,-130.1 1262.73,-123.65 1265.28,-133.93 1271.13,-130.1"/>
</g>
<!-- Option::is_none&#45;&gt;Vector::is_empty -->
<g id="edge36" class="edge">
<title>Option::is_none&#45;&gt;Vector::is_empty</title>
<path fill="none" stroke="black" d="M1257.47,-253.9C1256.84,-248.8 1256.23,-243.18 1255.84,-238 1253.14,-202.31 1252.25,-161.01 1251.96,-134.48"/>
<polygon fill="black" stroke="black" points="1255.46,-134.37 1251.87,-124.4 1248.46,-134.43 1255.46,-134.37"/>
</g>
<!-- Vector::is_empty&#45;&gt;Vector::length -->
<g id="edge37" class="edge">
<title>Vector::is_empty&#45;&gt;Vector::length</title>
<path fill="none" stroke="black" d="M1265.52,-88.76C1273.08,-79.8 1282.59,-68.51 1290.95,-58.59"/>
<polygon fill="black" stroke="black" points="1293.87,-60.57 1297.64,-50.67 1288.51,-56.06 1293.87,-60.57"/>
</g>
</g>
</svg>
