<?xml version="1.0" encoding="UTF-8" standalone="no"?>
<!DOCTYPE svg PUBLIC "-//W3C//DTD SVG 1.1//EN"
 "http://www.w3.org/Graphics/SVG/1.1/DTD/svg11.dtd">
<!-- Generated by graphviz version 2.46.1 (20210213.1702)
 -->
<!-- Title: G Pages: 1 -->
<svg width="1683pt" height="520pt"
 viewBox="0.00 0.00 1683.00 520.00" xmlns="http://www.w3.org/2000/svg" xmlns:xlink="http://www.w3.org/1999/xlink">
<g id="graph0" class="graph" transform="scale(1 1) rotate(0) translate(4 516)">
<title>G</title>
<polygon fill="white" stroke="transparent" points="-4,4 -4,-516 1679,-516 1679,4 -4,4"/>
<g id="clust1" class="cluster">
<title>cluster_Signer</title>
<polygon fill="none" stroke="black" points="845,-152 845,-310 995,-310 995,-152 845,-152"/>
<text text-anchor="middle" x="920" y="-294.8" font-family="Times,serif" font-size="14.00">Signer</text>
</g>
<g id="clust2" class="cluster">
<title>cluster_Errors</title>
<polygon fill="none" stroke="black" points="8,-152 8,-310 599,-310 599,-152 8,-152"/>
<text text-anchor="middle" x="303.5" y="-294.8" font-family="Times,serif" font-size="14.00">Errors</text>
</g>
<g id="clust3" class="cluster">
<title>cluster_CoreAddresses</title>
<polygon fill="none" stroke="black" points="607,-235 607,-393 837,-393 837,-235 607,-235"/>
<text text-anchor="middle" x="722" y="-377.8" font-family="Times,serif" font-size="14.00">CoreAddresses</text>
</g>
<g id="clust4" class="cluster">
<title>cluster_DiemTimestamp</title>
<polygon fill="none" stroke="black" points="845,-318 845,-468 983,-468 983,-318 845,-318"/>
<text text-anchor="middle" x="914" y="-452.8" font-family="Times,serif" font-size="14.00">DiemTimestamp</text>
</g>
<g id="clust5" class="cluster">
<title>cluster_Event</title>
<polygon fill="none" stroke="black" points="1023,-235 1023,-393 1193,-393 1193,-235 1023,-235"/>
<text text-anchor="middle" x="1108" y="-377.8" font-family="Times,serif" font-size="14.00">Event</text>
</g>
<g id="clust6" class="cluster">
<title>cluster_Vector</title>
<polygon fill="none" stroke="black" points="1003,-8 1003,-227 1563,-227 1563,-8 1003,-8"/>
<text text-anchor="middle" x="1283" y="-211.8" font-family="Times,serif" font-size="14.00">Vector</text>
</g>
<g id="clust7" class="cluster">
<title>cluster_BCS</title>
<polygon fill="none" stroke="black" points="1571,-152 1571,-227 1667,-227 1667,-152 1571,-152"/>
<text text-anchor="middle" x="1619" y="-211.8" font-family="Times,serif" font-size="14.00">BCS</text>
</g>
<!-- initialize -->
<g id="node1" class="node">
<title>initialize</title>
<ellipse fill="none" stroke="black" cx="914" cy="-494" rx="41.69" ry="18"/>
<text text-anchor="middle" x="914" y="-490.3" font-family="Times,serif" font-size="14.00">initialize</text>
</g>
<!-- Signer::address_of -->
<g id="node2" class="node">
<title>Signer::address_of</title>
<ellipse fill="none" stroke="black" cx="929" cy="-261" rx="48.99" ry="18"/>
<text text-anchor="middle" x="929" y="-257.3" font-family="Times,serif" font-size="14.00">address_of</text>
</g>
<!-- initialize&#45;&gt;Signer::address_of -->
<g id="edge1" class="edge">
<title>initialize&#45;&gt;Signer::address_of</title>
<path fill="none" stroke="black" d="M953.99,-488.5C966.63,-484.97 979.29,-478.79 987,-468 1025.76,-413.76 1013.05,-379.37 987,-318 981.29,-304.55 970.59,-292.76 959.92,-283.51"/>
<polygon fill="black" stroke="black" points="961.82,-280.54 951.86,-276.94 957.4,-285.97 961.82,-280.54"/>
</g>
<!-- Errors::already_published -->
<g id="node3" class="node">
<title>Errors::already_published</title>
<ellipse fill="none" stroke="black" cx="91" cy="-261" rx="75.29" ry="18"/>
<text text-anchor="middle" x="91" y="-257.3" font-family="Times,serif" font-size="14.00">already_published</text>
</g>
<!-- initialize&#45;&gt;Errors::already_published -->
<g id="edge2" class="edge">
<title>initialize&#45;&gt;Errors::already_published</title>
<path fill="none" stroke="black" d="M873.29,-490.28C777.27,-482.94 530.04,-458.67 335,-393 254.26,-365.82 168.4,-313.51 123.18,-283.87"/>
<polygon fill="black" stroke="black" points="124.97,-280.86 114.69,-278.26 121.11,-286.7 124.97,-280.86"/>
</g>
<!-- CoreAddresses::assert_diem_root -->
<g id="node4" class="node">
<title>CoreAddresses::assert_diem_root</title>
<ellipse fill="none" stroke="black" cx="740" cy="-344" rx="71.49" ry="18"/>
<text text-anchor="middle" x="740" y="-340.3" font-family="Times,serif" font-size="14.00">assert_diem_root</text>
</g>
<!-- initialize&#45;&gt;CoreAddresses::assert_diem_root -->
<g id="edge3" class="edge">
<title>initialize&#45;&gt;CoreAddresses::assert_diem_root</title>
<path fill="none" stroke="black" d="M877.98,-484.97C865.55,-481.12 852.01,-475.64 841,-468 803.68,-442.1 772.63,-398.73 755.2,-371.02"/>
<polygon fill="black" stroke="black" points="758.04,-368.95 749.82,-362.27 752.08,-372.62 758.04,-368.95"/>
</g>
<!-- DiemTimestamp::assert_genesis -->
<g id="node5" class="node">
<title>DiemTimestamp::assert_genesis</title>
<ellipse fill="none" stroke="black" cx="914" cy="-419" rx="61.19" ry="18"/>
<text text-anchor="middle" x="914" y="-415.3" font-family="Times,serif" font-size="14.00">assert_genesis</text>
</g>
<!-- initialize&#45;&gt;DiemTimestamp::assert_genesis -->
<g id="edge4" class="edge">
<title>initialize&#45;&gt;DiemTimestamp::assert_genesis</title>
<path fill="none" stroke="black" d="M914,-475.7C914,-467.25 914,-456.87 914,-447.37"/>
<polygon fill="black" stroke="black" points="917.5,-447.18 914,-437.18 910.5,-447.18 917.5,-447.18"/>
</g>
<!-- Event::new_event_handle -->
<g id="node6" class="node">
<title>Event::new_event_handle</title>
<ellipse fill="none" stroke="black" cx="1108" cy="-344" rx="76.89" ry="18"/>
<text text-anchor="middle" x="1108" y="-340.3" font-family="Times,serif" font-size="14.00">new_event_handle</text>
</g>
<!-- initialize&#45;&gt;Event::new_event_handle -->
<g id="edge5" class="edge">
<title>initialize&#45;&gt;Event::new_event_handle</title>
<path fill="none" stroke="black" d="M954.74,-489.67C974.82,-486.47 998.6,-480.21 1017,-468 1053.59,-443.72 1080.87,-399.5 1095.61,-371.23"/>
<polygon fill="black" stroke="black" points="1098.73,-372.81 1100.12,-362.3 1092.48,-369.65 1098.73,-372.81"/>
</g>
<!-- Signer::borrow_address -->
<g id="node7" class="node">
<title>Signer::borrow_address</title>
<ellipse fill="none" stroke="black" cx="920" cy="-178" rx="66.89" ry="18"/>
<text text-anchor="middle" x="920" y="-174.3" font-family="Times,serif" font-size="14.00">borrow_address</text>
</g>
<!-- Signer::address_of&#45;&gt;Signer::borrow_address -->
<g id="edge6" class="edge">
<title>Signer::address_of&#45;&gt;Signer::borrow_address</title>
<path fill="none" stroke="black" d="M927.09,-242.82C925.91,-232.19 924.37,-218.31 923.02,-206.2"/>
<polygon fill="black" stroke="black" points="926.49,-205.71 921.91,-196.15 919.53,-206.48 926.49,-205.71"/>
</g>
<!-- Errors::make -->
<g id="node8" class="node">
<title>Errors::make</title>
<ellipse fill="none" stroke="black" cx="311" cy="-178" rx="30.59" ry="18"/>
<text text-anchor="middle" x="311" y="-174.3" font-family="Times,serif" font-size="14.00">make</text>
</g>
<!-- Errors::already_published&#45;&gt;Errors::make -->
<g id="edge7" class="edge">
<title>Errors::already_published&#45;&gt;Errors::make</title>
<path fill="none" stroke="black" d="M130.33,-245.52C171.8,-230.25 236.52,-206.42 276.2,-191.81"/>
<polygon fill="black" stroke="black" points="277.54,-195.05 285.72,-188.31 275.12,-188.48 277.54,-195.05"/>
</g>
<!-- CoreAddresses::assert_diem_root&#45;&gt;Signer::address_of -->
<g id="edge8" class="edge">
<title>CoreAddresses::assert_diem_root&#45;&gt;Signer::address_of</title>
<path fill="none" stroke="black" d="M785.66,-330.04C803.22,-324.54 823.3,-317.64 841,-310 859.7,-301.93 879.69,-291.2 895.89,-281.94"/>
<polygon fill="black" stroke="black" points="898.05,-284.73 904.95,-276.69 894.54,-278.68 898.05,-284.73"/>
</g>
<!-- Errors::requires_address -->
<g id="node9" class="node">
<title>Errors::requires_address</title>
<ellipse fill="none" stroke="black" cx="383" cy="-261" rx="69.59" ry="18"/>
<text text-anchor="middle" x="383" y="-257.3" font-family="Times,serif" font-size="14.00">requires_address</text>
</g>
<!-- CoreAddresses::assert_diem_root&#45;&gt;Errors::requires_address -->
<g id="edge9" class="edge">
<title>CoreAddresses::assert_diem_root&#45;&gt;Errors::requires_address</title>
<path fill="none" stroke="black" d="M668.46,-342.81C611.18,-340.72 529.54,-333.29 462,-310 444.54,-303.98 426.8,-293.67 412.58,-284.14"/>
<polygon fill="black" stroke="black" points="414.42,-281.16 404.21,-278.36 410.44,-286.92 414.42,-281.16"/>
</g>
<!-- CoreAddresses::DIEM_ROOT_ADDRESS -->
<g id="node10" class="node">
<title>CoreAddresses::DIEM_ROOT_ADDRESS</title>
<ellipse fill="none" stroke="black" cx="722" cy="-261" rx="106.68" ry="18"/>
<text text-anchor="middle" x="722" y="-257.3" font-family="Times,serif" font-size="14.00">DIEM_ROOT_ADDRESS</text>
</g>
<!-- CoreAddresses::assert_diem_root&#45;&gt;CoreAddresses::DIEM_ROOT_ADDRESS -->
<g id="edge10" class="edge">
<title>CoreAddresses::assert_diem_root&#45;&gt;CoreAddresses::DIEM_ROOT_ADDRESS</title>
<path fill="none" stroke="black" d="M736.18,-325.82C733.82,-315.19 730.73,-301.31 728.05,-289.2"/>
<polygon fill="black" stroke="black" points="731.4,-288.16 725.81,-279.15 724.56,-289.67 731.4,-288.16"/>
</g>
<!-- Errors::invalid_state -->
<g id="node11" class="node">
<title>Errors::invalid_state</title>
<ellipse fill="none" stroke="black" cx="240" cy="-261" rx="55.79" ry="18"/>
<text text-anchor="middle" x="240" y="-257.3" font-family="Times,serif" font-size="14.00">invalid_state</text>
</g>
<!-- DiemTimestamp::assert_genesis&#45;&gt;Errors::invalid_state -->
<g id="edge11" class="edge">
<title>DiemTimestamp::assert_genesis&#45;&gt;Errors::invalid_state</title>
<path fill="none" stroke="black" d="M853.36,-416.58C790.35,-414.29 689.12,-408.36 603,-393 481.24,-371.28 454.44,-350.12 335,-318 321.26,-314.3 316.82,-316.16 304,-310 290.33,-303.43 276.68,-293.74 265.52,-284.78"/>
<polygon fill="black" stroke="black" points="267.44,-281.82 257.51,-278.13 262.97,-287.21 267.44,-281.82"/>
</g>
<!-- DiemTimestamp::is_genesis -->
<g id="node12" class="node">
<title>DiemTimestamp::is_genesis</title>
<ellipse fill="none" stroke="black" cx="907" cy="-344" rx="46.59" ry="18"/>
<text text-anchor="middle" x="907" y="-340.3" font-family="Times,serif" font-size="14.00">is_genesis</text>
</g>
<!-- DiemTimestamp::assert_genesis&#45;&gt;DiemTimestamp::is_genesis -->
<g id="edge12" class="edge">
<title>DiemTimestamp::assert_genesis&#45;&gt;DiemTimestamp::is_genesis</title>
<path fill="none" stroke="black" d="M912.34,-400.7C911.53,-392.25 910.54,-381.87 909.62,-372.37"/>
<polygon fill="black" stroke="black" points="913.09,-371.8 908.65,-362.18 906.12,-372.46 913.09,-371.8"/>
</g>
<!-- Event::new_event_handle&#45;&gt;Signer::address_of -->
<g id="edge13" class="edge">
<title>Event::new_event_handle&#45;&gt;Signer::address_of</title>
<path fill="none" stroke="black" d="M1066.32,-328.86C1051.24,-323.4 1034.18,-316.83 1019,-310 1000.06,-301.48 979.58,-290.7 962.95,-281.51"/>
<polygon fill="black" stroke="black" points="964.58,-278.41 954.15,-276.59 961.17,-284.52 964.58,-278.41"/>
</g>
<!-- Errors::not_published -->
<g id="node13" class="node">
<title>Errors::not_published</title>
<ellipse fill="none" stroke="black" cx="531" cy="-261" rx="60.39" ry="18"/>
<text text-anchor="middle" x="531" y="-257.3" font-family="Times,serif" font-size="14.00">not_published</text>
</g>
<!-- Event::new_event_handle&#45;&gt;Errors::not_published -->
<g id="edge14" class="edge">
<title>Event::new_event_handle&#45;&gt;Errors::not_published</title>
<path fill="none" stroke="black" d="M1057.41,-330.39C1035.85,-325.59 1010.34,-320.63 987,-318 944.59,-313.22 643.71,-322.79 603,-310 586.3,-304.75 569.9,-294.34 556.97,-284.56"/>
<polygon fill="black" stroke="black" points="559.03,-281.72 549.01,-278.27 554.69,-287.22 559.03,-281.72"/>
</g>
<!-- Event::fresh_guid -->
<g id="node14" class="node">
<title>Event::fresh_guid</title>
<ellipse fill="none" stroke="black" cx="1137" cy="-261" rx="48.19" ry="18"/>
<text text-anchor="middle" x="1137" y="-257.3" font-family="Times,serif" font-size="14.00">fresh_guid</text>
</g>
<!-- Event::new_event_handle&#45;&gt;Event::fresh_guid -->
<g id="edge15" class="edge">
<title>Event::new_event_handle&#45;&gt;Event::fresh_guid</title>
<path fill="none" stroke="black" d="M1114.15,-325.82C1118.02,-315.01 1123.1,-300.84 1127.48,-288.59"/>
<polygon fill="black" stroke="black" points="1130.88,-289.47 1130.96,-278.88 1124.29,-287.11 1130.88,-289.47"/>
</g>
<!-- Errors::requires_address&#45;&gt;Errors::make -->
<g id="edge16" class="edge">
<title>Errors::requires_address&#45;&gt;Errors::make</title>
<path fill="none" stroke="black" d="M368.08,-243.22C357.51,-231.32 343.19,-215.21 331.53,-202.1"/>
<polygon fill="black" stroke="black" points="333.94,-199.54 324.68,-194.39 328.71,-204.19 333.94,-199.54"/>
</g>
<!-- Errors::invalid_state&#45;&gt;Errors::make -->
<g id="edge17" class="edge">
<title>Errors::invalid_state&#45;&gt;Errors::make</title>
<path fill="none" stroke="black" d="M254.71,-243.22C265.14,-231.32 279.26,-215.21 290.75,-202.1"/>
<polygon fill="black" stroke="black" points="293.55,-204.22 297.51,-194.39 288.28,-199.6 293.55,-204.22"/>
</g>
<!-- DiemTimestamp::is_genesis&#45;&gt;CoreAddresses::DIEM_ROOT_ADDRESS -->
<g id="edge18" class="edge">
<title>DiemTimestamp::is_genesis&#45;&gt;CoreAddresses::DIEM_ROOT_ADDRESS</title>
<path fill="none" stroke="black" d="M877.28,-329.99C847.77,-317.07 802.14,-297.09 767.97,-282.13"/>
<polygon fill="black" stroke="black" points="769.22,-278.85 758.65,-278.05 766.41,-285.27 769.22,-278.85"/>
</g>
<!-- Errors::not_published&#45;&gt;Errors::make -->
<g id="edge19" class="edge">
<title>Errors::not_published&#45;&gt;Errors::make</title>
<path fill="none" stroke="black" d="M494.18,-246.44C452.82,-231.21 386.2,-206.69 345.72,-191.78"/>
<polygon fill="black" stroke="black" points="346.86,-188.47 336.27,-188.3 344.44,-195.04 346.86,-188.47"/>
</g>
<!-- Vector::append -->
<g id="node15" class="node">
<title>Vector::append</title>
<ellipse fill="none" stroke="black" cx="1253" cy="-178" rx="36.29" ry="18"/>
<text text-anchor="middle" x="1253" y="-174.3" font-family="Times,serif" font-size="14.00">append</text>
</g>
<!-- Event::fresh_guid&#45;&gt;Vector::append -->
<g id="edge20" class="edge">
<title>Event::fresh_guid&#45;&gt;Vector::append</title>
<path fill="none" stroke="black" d="M1158.82,-244.76C1177.42,-231.77 1204.3,-213 1224.59,-198.84"/>
<polygon fill="black" stroke="black" points="1226.64,-201.68 1232.83,-193.08 1222.63,-195.94 1226.64,-201.68"/>
</g>
<!-- BCS::to_bytes -->
<g id="node16" class="node">
<title>BCS::to_bytes</title>
<ellipse fill="none" stroke="black" cx="1619" cy="-178" rx="40.09" ry="18"/>
<text text-anchor="middle" x="1619" y="-174.3" font-family="Times,serif" font-size="14.00">to_bytes</text>
</g>
<!-- Event::fresh_guid&#45;&gt;BCS::to_bytes -->
<g id="edge21" class="edge">
<title>Event::fresh_guid&#45;&gt;BCS::to_bytes</title>
<path fill="none" stroke="black" d="M1185.33,-260.24C1282.86,-260.1 1499.65,-256.35 1567,-227 1579.32,-221.63 1590.6,-212.09 1599.49,-202.92"/>
<polygon fill="black" stroke="black" points="1602.19,-205.14 1606.36,-195.4 1597.03,-200.42 1602.19,-205.14"/>
</g>
<!-- Vector::destroy_empty -->
<g id="node17" class="node">
<title>Vector::destroy_empty</title>
<ellipse fill="none" stroke="black" cx="1075" cy="-106" rx="63.89" ry="18"/>
<text text-anchor="middle" x="1075" y="-102.3" font-family="Times,serif" font-size="14.00">destroy_empty</text>
</g>
<!-- Vector::append&#45;&gt;Vector::destroy_empty -->
<g id="edge22" class="edge">
<title>Vector::append&#45;&gt;Vector::destroy_empty</title>
<path fill="none" stroke="black" d="M1225.19,-166.06C1197.07,-155 1153.15,-137.73 1120.05,-124.72"/>
<polygon fill="black" stroke="black" points="1121.18,-121.4 1110.59,-121 1118.62,-127.91 1121.18,-121.4"/>
</g>
<!-- Vector::is_empty -->
<g id="node18" class="node">
<title>Vector::is_empty</title>
<ellipse fill="none" stroke="black" cx="1200" cy="-106" rx="43.59" ry="18"/>
<text text-anchor="middle" x="1200" y="-102.3" font-family="Times,serif" font-size="14.00">is_empty</text>
</g>
<!-- Vector::append&#45;&gt;Vector::is_empty -->
<g id="edge23" class="edge">
<title>Vector::append&#45;&gt;Vector::is_empty</title>
<path fill="none" stroke="black" d="M1240.71,-160.76C1234.18,-152.14 1226.02,-141.36 1218.72,-131.73"/>
<polygon fill="black" stroke="black" points="1221.42,-129.49 1212.59,-123.63 1215.84,-133.72 1221.42,-129.49"/>
</g>
<!-- Vector::pop_back -->
<g id="node19" class="node">
<title>Vector::pop_back</title>
<ellipse fill="none" stroke="black" cx="1306" cy="-106" rx="44.69" ry="18"/>
<text text-anchor="middle" x="1306" y="-102.3" font-family="Times,serif" font-size="14.00">pop_back</text>
</g>
<!-- Vector::append&#45;&gt;Vector::pop_back -->
<g id="edge24" class="edge">
<title>Vector::append&#45;&gt;Vector::pop_back</title>
<path fill="none" stroke="black" d="M1265.29,-160.76C1271.82,-152.14 1279.98,-141.36 1287.28,-131.73"/>
<polygon fill="black" stroke="black" points="1290.16,-133.72 1293.41,-123.63 1284.58,-129.49 1290.16,-133.72"/>
</g>
<!-- Vector::push_back -->
<g id="node20" class="node">
<title>Vector::push_back</title>
<ellipse fill="none" stroke="black" cx="1417" cy="-106" rx="48.19" ry="18"/>
<text text-anchor="middle" x="1417" y="-102.3" font-family="Times,serif" font-size="14.00">push_back</text>
</g>
<!-- Vector::append&#45;&gt;Vector::push_back -->
<g id="edge25" class="edge">
<title>Vector::append&#45;&gt;Vector::push_back</title>
<path fill="none" stroke="black" d="M1279.71,-165.6C1306.09,-154.34 1346.74,-136.99 1376.97,-124.09"/>
<polygon fill="black" stroke="black" points="1378.57,-127.21 1386.39,-120.07 1375.82,-120.77 1378.57,-127.21"/>
</g>
<!-- Vector::reverse -->
<g id="node21" class="node">
<title>Vector::reverse</title>
<ellipse fill="none" stroke="black" cx="1519" cy="-106" rx="36.29" ry="18"/>
<text text-anchor="middle" x="1519" y="-102.3" font-family="Times,serif" font-size="14.00">reverse</text>
</g>
<!-- Vector::append&#45;&gt;Vector::reverse -->
<g id="edge26" class="edge">
<title>Vector::append&#45;&gt;Vector::reverse</title>
<path fill="none" stroke="black" d="M1286.3,-170.38C1329.86,-161.41 1408.38,-144.18 1474,-124 1476.6,-123.2 1479.28,-122.33 1481.95,-121.41"/>
<polygon fill="black" stroke="black" points="1483.34,-124.64 1491.58,-117.98 1480.99,-118.04 1483.34,-124.64"/>
</g>
<!-- Vector::length -->
<g id="node22" class="node">
<title>Vector::length</title>
<ellipse fill="none" stroke="black" cx="1320" cy="-34" rx="32.49" ry="18"/>
<text text-anchor="middle" x="1320" y="-30.3" font-family="Times,serif" font-size="14.00">length</text>
</g>
<!-- Vector::is_empty&#45;&gt;Vector::length -->
<g id="edge27" class="edge">
<title>Vector::is_empty&#45;&gt;Vector::length</title>
<path fill="none" stroke="black" d="M1224.28,-90.83C1243.05,-79.89 1269.15,-64.66 1289.35,-52.88"/>
<polygon fill="black" stroke="black" points="1291.3,-55.79 1298.17,-47.73 1287.77,-49.75 1291.3,-55.79"/>
</g>
<!-- Vector::reverse&#45;&gt;Vector::length -->
<g id="edge28" class="edge">
<title>Vector::reverse&#45;&gt;Vector::length</title>
<path fill="none" stroke="black" d="M1490.96,-94.26C1485.36,-92.15 1479.5,-89.98 1474,-88 1434.04,-73.58 1387.94,-57.83 1356.67,-47.28"/>
<polygon fill="black" stroke="black" points="1357.66,-43.92 1347.07,-44.04 1355.43,-50.55 1357.66,-43.92"/>
</g>
<!-- Vector::swap -->
<g id="node23" class="node">
<title>Vector::swap</title>
<ellipse fill="none" stroke="black" cx="1519" cy="-34" rx="28.7" ry="18"/>
<text text-anchor="middle" x="1519" y="-30.3" font-family="Times,serif" font-size="14.00">swap</text>
</g>
<!-- Vector::reverse&#45;&gt;Vector::swap -->
<g id="edge29" class="edge">
<title>Vector::reverse&#45;&gt;Vector::swap</title>
<path fill="none" stroke="black" d="M1519,-87.7C1519,-79.98 1519,-70.71 1519,-62.11"/>
<polygon fill="black" stroke="black" points="1522.5,-62.1 1519,-52.1 1515.5,-62.1 1522.5,-62.1"/>
</g>
</g>
</svg>
