<?xml version="1.0" encoding="UTF-8" standalone="no"?>
<!DOCTYPE svg PUBLIC "-//W3C//DTD SVG 1.1//EN"
 "http://www.w3.org/Graphics/SVG/1.1/DTD/svg11.dtd">
<!-- Generated by graphviz version 2.46.1 (20210213.1702)
 -->
<!-- Title: G Pages: 1 -->
<svg width="1439pt" height="520pt"
 viewBox="0.00 0.00 1439.00 520.00" xmlns="http://www.w3.org/2000/svg" xmlns:xlink="http://www.w3.org/1999/xlink">
<g id="graph0" class="graph" transform="scale(1 1) rotate(0) translate(4 516)">
<title>G</title>
<polygon fill="white" stroke="transparent" points="-4,4 -4,-516 1435,-516 1435,4 -4,4"/>
<g id="clust1" class="cluster">
<title>cluster_Signer</title>
<polygon fill="none" stroke="black" points="8,-8 8,-155 158,-155 158,-8 8,-8"/>
<text text-anchor="middle" x="83" y="-139.8" font-family="Times,serif" font-size="14.00">Signer</text>
</g>
<g id="clust2" class="cluster">
<title>cluster_Errors</title>
<polygon fill="none" stroke="black" points="166,-8 166,-155 891,-155 891,-8 166,-8"/>
<text text-anchor="middle" x="528.5" y="-139.8" font-family="Times,serif" font-size="14.00">Errors</text>
</g>
<g id="clust3" class="cluster">
<title>cluster_Roles</title>
<polygon fill="none" stroke="black" points="23,-246 23,-321 463,-321 463,-246 23,-246"/>
<text text-anchor="middle" x="243" y="-305.8" font-family="Times,serif" font-size="14.00">Roles</text>
</g>
<g id="clust4" class="cluster">
<title>cluster_CoreAddresses</title>
<polygon fill="none" stroke="black" points="899,-80 899,-238 1129,-238 1129,-80 899,-80"/>
<text text-anchor="middle" x="1014" y="-222.8" font-family="Times,serif" font-size="14.00">CoreAddresses</text>
</g>
<g id="clust5" class="cluster">
<title>cluster_DiemTimestamp</title>
<polygon fill="none" stroke="black" points="1137,-163 1137,-396 1423,-396 1423,-163 1137,-163"/>
<text text-anchor="middle" x="1280" y="-380.8" font-family="Times,serif" font-size="14.00">DiemTimestamp</text>
</g>
<!-- publish_window -->
<g id="node1" class="node">
<title>publish_window</title>
<ellipse fill="none" stroke="black" cx="458" cy="-494" rx="69.59" ry="18"/>
<text text-anchor="middle" x="458" y="-490.3" font-family="Times,serif" font-size="14.00">publish_window</text>
</g>
<!-- Signer::address_of -->
<g id="node2" class="node">
<title>Signer::address_of</title>
<ellipse fill="none" stroke="black" cx="101" cy="-106" rx="48.99" ry="18"/>
<text text-anchor="middle" x="101" y="-102.3" font-family="Times,serif" font-size="14.00">address_of</text>
</g>
<!-- publish_window&#45;&gt;Signer::address_of -->
<g id="edge1" class="edge">
<title>publish_window&#45;&gt;Signer::address_of</title>
<path fill="none" stroke="black" d="M394.73,-486.23C269.71,-471.08 3,-429.25 3,-348 3,-348 3,-348 3,-271 3,-214.06 47.06,-159.74 76.1,-130.13"/>
<polygon fill="black" stroke="black" points="78.85,-132.33 83.48,-122.8 73.92,-127.37 78.85,-132.33"/>
</g>
<!-- Errors::already_published -->
<g id="node3" class="node">
<title>Errors::already_published</title>
<ellipse fill="none" stroke="black" cx="521" cy="-106" rx="75.29" ry="18"/>
<text text-anchor="middle" x="521" y="-102.3" font-family="Times,serif" font-size="14.00">already_published</text>
</g>
<!-- publish_window&#45;&gt;Errors::already_published -->
<g id="edge2" class="edge">
<title>publish_window&#45;&gt;Errors::already_published</title>
<path fill="none" stroke="black" d="M472.78,-476.4C480.96,-466.45 490.71,-453.2 497,-440 515.18,-401.85 521,-390.26 521,-348 521,-348 521,-348 521,-271 521,-222.91 521,-166.88 521,-134.33"/>
<polygon fill="black" stroke="black" points="524.5,-134.24 521,-124.24 517.5,-134.24 524.5,-134.24"/>
</g>
<!-- Errors::not_published -->
<g id="node4" class="node">
<title>Errors::not_published</title>
<ellipse fill="none" stroke="black" cx="367" cy="-106" rx="60.39" ry="18"/>
<text text-anchor="middle" x="367" y="-102.3" font-family="Times,serif" font-size="14.00">not_published</text>
</g>
<!-- publish_window&#45;&gt;Errors::not_published -->
<g id="edge3" class="edge">
<title>publish_window&#45;&gt;Errors::not_published</title>
<path fill="none" stroke="black" d="M462.94,-475.76C470.22,-448.76 483,-394.75 483,-348 483,-348 483,-348 483,-271 483,-211.27 431.08,-158.06 396.71,-129.37"/>
<polygon fill="black" stroke="black" points="398.79,-126.55 388.82,-122.96 394.37,-131.98 398.79,-126.55"/>
</g>
<!-- Roles::assert_diem_root -->
<g id="node5" class="node">
<title>Roles::assert_diem_root</title>
<ellipse fill="none" stroke="black" cx="384" cy="-272" rx="71.49" ry="18"/>
<text text-anchor="middle" x="384" y="-268.3" font-family="Times,serif" font-size="14.00">assert_diem_root</text>
</g>
<!-- publish_window&#45;&gt;Roles::assert_diem_root -->
<g id="edge4" class="edge">
<title>publish_window&#45;&gt;Roles::assert_diem_root</title>
<path fill="none" stroke="black" d="M452.19,-475.74C439.33,-437.5 408.37,-345.46 392.99,-299.72"/>
<polygon fill="black" stroke="black" points="396.29,-298.55 389.78,-290.18 389.65,-300.78 396.29,-298.55"/>
</g>
<!-- Roles::assert_parent_vasp_or_child_vasp -->
<g id="node6" class="node">
<title>Roles::assert_parent_vasp_or_child_vasp</title>
<ellipse fill="none" stroke="black" cx="163" cy="-272" rx="131.88" ry="18"/>
<text text-anchor="middle" x="163" y="-268.3" font-family="Times,serif" font-size="14.00">assert_parent_vasp_or_child_vasp</text>
</g>
<!-- publish_window&#45;&gt;Roles::assert_parent_vasp_or_child_vasp -->
<g id="edge5" class="edge">
<title>publish_window&#45;&gt;Roles::assert_parent_vasp_or_child_vasp</title>
<path fill="none" stroke="black" d="M436.31,-476.82C384.56,-438.23 253.76,-340.68 193.84,-296"/>
<polygon fill="black" stroke="black" points="195.64,-292.97 185.53,-289.8 191.45,-298.59 195.64,-292.97"/>
</g>
<!-- current_time -->
<g id="node7" class="node">
<title>current_time</title>
<ellipse fill="none" stroke="black" cx="1224" cy="-422" rx="55.79" ry="18"/>
<text text-anchor="middle" x="1224" y="-418.3" font-family="Times,serif" font-size="14.00">current_time</text>
</g>
<!-- publish_window&#45;&gt;current_time -->
<g id="edge6" class="edge">
<title>publish_window&#45;&gt;current_time</title>
<path fill="none" stroke="black" d="M522.32,-487.12C667.04,-473.9 1016.84,-441.93 1160.64,-428.79"/>
<polygon fill="black" stroke="black" points="1161,-432.27 1170.64,-427.88 1160.36,-425.3 1161,-432.27"/>
</g>
<!-- Signer::borrow_address -->
<g id="node8" class="node">
<title>Signer::borrow_address</title>
<ellipse fill="none" stroke="black" cx="83" cy="-34" rx="66.89" ry="18"/>
<text text-anchor="middle" x="83" y="-30.3" font-family="Times,serif" font-size="14.00">borrow_address</text>
</g>
<!-- Signer::address_of&#45;&gt;Signer::borrow_address -->
<g id="edge7" class="edge">
<title>Signer::address_of&#45;&gt;Signer::borrow_address</title>
<path fill="none" stroke="black" d="M96.64,-88.05C94.64,-80.26 92.21,-70.82 89.96,-62.08"/>
<polygon fill="black" stroke="black" points="93.32,-61.09 87.44,-52.28 86.54,-62.83 93.32,-61.09"/>
</g>
<!-- Errors::make -->
<g id="node9" class="node">
<title>Errors::make</title>
<ellipse fill="none" stroke="black" cx="521" cy="-34" rx="30.59" ry="18"/>
<text text-anchor="middle" x="521" y="-30.3" font-family="Times,serif" font-size="14.00">make</text>
</g>
<!-- Errors::already_published&#45;&gt;Errors::make -->
<g id="edge8" class="edge">
<title>Errors::already_published&#45;&gt;Errors::make</title>
<path fill="none" stroke="black" d="M521,-87.7C521,-79.98 521,-70.71 521,-62.11"/>
<polygon fill="black" stroke="black" points="524.5,-62.1 521,-52.1 517.5,-62.1 524.5,-62.1"/>
</g>
<!-- Errors::not_published&#45;&gt;Errors::make -->
<g id="edge9" class="edge">
<title>Errors::not_published&#45;&gt;Errors::make</title>
<path fill="none" stroke="black" d="M398.91,-90.5C424.96,-78.65 461.64,-61.98 487.99,-50.01"/>
<polygon fill="black" stroke="black" points="489.53,-53.15 497.19,-45.82 486.63,-46.78 489.53,-53.15"/>
</g>
<!-- Roles::assert_diem_root&#45;&gt;Signer::address_of -->
<g id="edge10" class="edge">
<title>Roles::assert_diem_root&#45;&gt;Signer::address_of</title>
<path fill="none" stroke="black" d="M341.1,-257.55C313.12,-248.75 281.5,-238.74 280,-238 220.2,-208.36 159.33,-158.81 126.24,-129.9"/>
<polygon fill="black" stroke="black" points="128.26,-127.01 118.45,-123.01 123.63,-132.26 128.26,-127.01"/>
</g>
<!-- Roles::assert_diem_root&#45;&gt;Errors::not_published -->
<g id="edge11" class="edge">
<title>Roles::assert_diem_root&#45;&gt;Errors::not_published</title>
<path fill="none" stroke="black" d="M382.21,-253.76C379.26,-225.26 373.34,-168.12 369.82,-134.16"/>
<polygon fill="black" stroke="black" points="373.28,-133.6 368.76,-124.01 366.31,-134.32 373.28,-133.6"/>
</g>
<!-- Errors::requires_role -->
<g id="node10" class="node">
<title>Errors::requires_role</title>
<ellipse fill="none" stroke="black" cx="231" cy="-106" rx="57.39" ry="18"/>
<text text-anchor="middle" x="231" y="-102.3" font-family="Times,serif" font-size="14.00">requires_role</text>
</g>
<!-- Roles::assert_diem_root&#45;&gt;Errors::requires_role -->
<g id="edge12" class="edge">
<title>Roles::assert_diem_root&#45;&gt;Errors::requires_role</title>
<path fill="none" stroke="black" d="M368.49,-254.37C341.34,-225.27 285.11,-165 253.62,-131.25"/>
<polygon fill="black" stroke="black" points="255.93,-128.6 246.55,-123.67 250.82,-133.37 255.93,-128.6"/>
</g>
<!-- CoreAddresses::assert_diem_root -->
<g id="node11" class="node">
<title>CoreAddresses::assert_diem_root</title>
<ellipse fill="none" stroke="black" cx="978" cy="-189" rx="71.49" ry="18"/>
<text text-anchor="middle" x="978" y="-185.3" font-family="Times,serif" font-size="14.00">assert_diem_root</text>
</g>
<!-- Roles::assert_diem_root&#45;&gt;CoreAddresses::assert_diem_root -->
<g id="edge13" class="edge">
<title>Roles::assert_diem_root&#45;&gt;CoreAddresses::assert_diem_root</title>
<path fill="none" stroke="black" d="M445.33,-262.64C556.08,-247.54 788.83,-215.8 906.56,-199.74"/>
<polygon fill="black" stroke="black" points="907.12,-203.2 916.56,-198.38 906.18,-196.26 907.12,-203.2"/>
</g>
<!-- Roles::assert_parent_vasp_or_child_vasp&#45;&gt;Signer::address_of -->
<g id="edge14" class="edge">
<title>Roles::assert_parent_vasp_or_child_vasp&#45;&gt;Signer::address_of</title>
<path fill="none" stroke="black" d="M156.48,-253.76C145.66,-225.14 123.92,-167.63 111.1,-133.72"/>
<polygon fill="black" stroke="black" points="114.24,-132.13 107.43,-124.01 107.69,-134.6 114.24,-132.13"/>
</g>
<!-- Roles::assert_parent_vasp_or_child_vasp&#45;&gt;Errors::not_published -->
<g id="edge15" class="edge">
<title>Roles::assert_parent_vasp_or_child_vasp&#45;&gt;Errors::not_published</title>
<path fill="none" stroke="black" d="M185.41,-253.99C192.07,-248.89 199.36,-243.25 206,-238 253.23,-200.67 307.39,-156.27 339.31,-129.93"/>
<polygon fill="black" stroke="black" points="341.84,-132.38 347.32,-123.32 337.38,-126.99 341.84,-132.38"/>
</g>
<!-- Roles::assert_parent_vasp_or_child_vasp&#45;&gt;Errors::requires_role -->
<g id="edge16" class="edge">
<title>Roles::assert_parent_vasp_or_child_vasp&#45;&gt;Errors::requires_role</title>
<path fill="none" stroke="black" d="M170.15,-253.76C182.07,-225.02 206.07,-167.13 220.1,-133.28"/>
<polygon fill="black" stroke="black" points="223.35,-134.59 223.95,-124.01 216.88,-131.91 223.35,-134.59"/>
</g>
<!-- DiemTimestamp::is_genesis -->
<g id="node12" class="node">
<title>DiemTimestamp::is_genesis</title>
<ellipse fill="none" stroke="black" cx="1368" cy="-347" rx="46.59" ry="18"/>
<text text-anchor="middle" x="1368" y="-343.3" font-family="Times,serif" font-size="14.00">is_genesis</text>
</g>
<!-- current_time&#45;&gt;DiemTimestamp::is_genesis -->
<g id="edge17" class="edge">
<title>current_time&#45;&gt;DiemTimestamp::is_genesis</title>
<path fill="none" stroke="black" d="M1270.22,-411.88C1284.14,-408.08 1299.13,-402.91 1312,-396 1323.99,-389.56 1335.67,-380.2 1345.24,-371.45"/>
<polygon fill="black" stroke="black" points="1347.9,-373.75 1352.74,-364.32 1343.08,-368.68 1347.9,-373.75"/>
</g>
<!-- DiemTimestamp::now_microseconds -->
<g id="node13" class="node">
<title>DiemTimestamp::now_microseconds</title>
<ellipse fill="none" stroke="black" cx="1224" cy="-347" rx="79.09" ry="18"/>
<text text-anchor="middle" x="1224" y="-343.3" font-family="Times,serif" font-size="14.00">now_microseconds</text>
</g>
<!-- current_time&#45;&gt;DiemTimestamp::now_microseconds -->
<g id="edge18" class="edge">
<title>current_time&#45;&gt;DiemTimestamp::now_microseconds</title>
<path fill="none" stroke="black" d="M1224,-403.7C1224,-395.25 1224,-384.87 1224,-375.37"/>
<polygon fill="black" stroke="black" points="1227.5,-375.18 1224,-365.18 1220.5,-375.18 1227.5,-375.18"/>
</g>
<!-- Errors::requires_role&#45;&gt;Errors::make -->
<g id="edge19" class="edge">
<title>Errors::requires_role&#45;&gt;Errors::make</title>
<path fill="none" stroke="black" d="M264.39,-91.36C275.02,-87.34 286.9,-83.17 298,-80 361.42,-61.89 436.99,-48.26 481.87,-40.97"/>
<polygon fill="black" stroke="black" points="482.46,-44.42 491.78,-39.38 481.35,-37.51 482.46,-44.42"/>
</g>
<!-- CoreAddresses::assert_diem_root&#45;&gt;Signer::address_of -->
<g id="edge20" class="edge">
<title>CoreAddresses::assert_diem_root&#45;&gt;Signer::address_of</title>
<path fill="none" stroke="black" d="M907.04,-186.32C714.9,-181.6 196.62,-167.78 162,-155 147.9,-149.79 134.5,-140.01 123.87,-130.63"/>
<polygon fill="black" stroke="black" points="126.03,-127.85 116.32,-123.61 121.27,-132.98 126.03,-127.85"/>
</g>
<!-- Errors::requires_address -->
<g id="node14" class="node">
<title>Errors::requires_address</title>
<ellipse fill="none" stroke="black" cx="813" cy="-106" rx="69.59" ry="18"/>
<text text-anchor="middle" x="813" y="-102.3" font-family="Times,serif" font-size="14.00">requires_address</text>
</g>
<!-- CoreAddresses::assert_diem_root&#45;&gt;Errors::requires_address -->
<g id="edge21" class="edge">
<title>CoreAddresses::assert_diem_root&#45;&gt;Errors::requires_address</title>
<path fill="none" stroke="black" d="M938.62,-173.75C924.65,-168.32 908.94,-161.8 895,-155 878.67,-147.03 861.22,-137.04 846.62,-128.23"/>
<polygon fill="black" stroke="black" points="848.3,-125.15 837.94,-122.93 844.65,-131.13 848.3,-125.15"/>
</g>
<!-- CoreAddresses::DIEM_ROOT_ADDRESS -->
<g id="node15" class="node">
<title>CoreAddresses::DIEM_ROOT_ADDRESS</title>
<ellipse fill="none" stroke="black" cx="1014" cy="-106" rx="106.68" ry="18"/>
<text text-anchor="middle" x="1014" y="-102.3" font-family="Times,serif" font-size="14.00">DIEM_ROOT_ADDRESS</text>
</g>
<!-- CoreAddresses::assert_diem_root&#45;&gt;CoreAddresses::DIEM_ROOT_ADDRESS -->
<g id="edge22" class="edge">
<title>CoreAddresses::assert_diem_root&#45;&gt;CoreAddresses::DIEM_ROOT_ADDRESS</title>
<path fill="none" stroke="black" d="M985.63,-170.82C990.46,-159.98 996.78,-145.74 1002.23,-133.47"/>
<polygon fill="black" stroke="black" points="1005.51,-134.71 1006.38,-124.15 999.12,-131.87 1005.51,-134.71"/>
</g>
<!-- DiemTimestamp::is_genesis&#45;&gt;CoreAddresses::DIEM_ROOT_ADDRESS -->
<g id="edge23" class="edge">
<title>DiemTimestamp::is_genesis&#45;&gt;CoreAddresses::DIEM_ROOT_ADDRESS</title>
<path fill="none" stroke="black" d="M1367.5,-328.79C1365.46,-292.23 1355.25,-206.6 1305,-163 1277.12,-138.81 1189.06,-124.14 1117.05,-115.92"/>
<polygon fill="black" stroke="black" points="1117.33,-112.43 1107,-114.81 1116.55,-119.39 1117.33,-112.43"/>
</g>
<!-- DiemTimestamp::now_microseconds&#45;&gt;CoreAddresses::DIEM_ROOT_ADDRESS -->
<g id="edge24" class="edge">
<title>DiemTimestamp::now_microseconds&#45;&gt;CoreAddresses::DIEM_ROOT_ADDRESS</title>
<path fill="none" stroke="black" d="M1276.35,-333.47C1281.69,-330.23 1286.45,-326.14 1290,-321 1330.25,-262.71 1319.88,-212.29 1269,-163 1246.45,-141.15 1173.63,-126.55 1111.55,-117.75"/>
<polygon fill="black" stroke="black" points="1111.68,-114.24 1101.29,-116.34 1110.72,-121.17 1111.68,-114.24"/>
</g>
<!-- DiemTimestamp::assert_operating -->
<g id="node16" class="node">
<title>DiemTimestamp::assert_operating</title>
<ellipse fill="none" stroke="black" cx="1213" cy="-272" rx="68.49" ry="18"/>
<text text-anchor="middle" x="1213" y="-268.3" font-family="Times,serif" font-size="14.00">assert_operating</text>
</g>
<!-- DiemTimestamp::now_microseconds&#45;&gt;DiemTimestamp::assert_operating -->
<g id="edge25" class="edge">
<title>DiemTimestamp::now_microseconds&#45;&gt;DiemTimestamp::assert_operating</title>
<path fill="none" stroke="black" d="M1221.39,-328.7C1220.11,-320.15 1218.52,-309.65 1217.08,-300.07"/>
<polygon fill="black" stroke="black" points="1220.54,-299.54 1215.59,-290.18 1213.62,-300.59 1220.54,-299.54"/>
</g>
<!-- Errors::requires_address&#45;&gt;Errors::make -->
<g id="edge26" class="edge">
<title>Errors::requires_address&#45;&gt;Errors::make</title>
<path fill="none" stroke="black" d="M772.75,-91.23C760.69,-87.34 747.37,-83.27 735,-80 674.48,-63.98 603.13,-49.93 560.02,-41.95"/>
<polygon fill="black" stroke="black" points="560.42,-38.47 549.95,-40.11 559.16,-45.36 560.42,-38.47"/>
</g>
<!-- Errors::invalid_state -->
<g id="node17" class="node">
<title>Errors::invalid_state</title>
<ellipse fill="none" stroke="black" cx="670" cy="-106" rx="55.79" ry="18"/>
<text text-anchor="middle" x="670" y="-102.3" font-family="Times,serif" font-size="14.00">invalid_state</text>
</g>
<!-- DiemTimestamp::assert_operating&#45;&gt;Errors::invalid_state -->
<g id="edge27" class="edge">
<title>DiemTimestamp::assert_operating&#45;&gt;Errors::invalid_state</title>
<path fill="none" stroke="black" d="M1144.58,-271.18C1079.2,-269.67 978.51,-262.89 895,-238 817.56,-214.92 738.54,-160.18 697.92,-129.26"/>
<polygon fill="black" stroke="black" points="699.91,-126.38 689.85,-123.05 695.64,-131.92 699.91,-126.38"/>
</g>
<!-- DiemTimestamp::is_operating -->
<g id="node18" class="node">
<title>DiemTimestamp::is_operating</title>
<ellipse fill="none" stroke="black" cx="1206" cy="-189" rx="53.89" ry="18"/>
<text text-anchor="middle" x="1206" y="-185.3" font-family="Times,serif" font-size="14.00">is_operating</text>
</g>
<!-- DiemTimestamp::assert_operating&#45;&gt;DiemTimestamp::is_operating -->
<g id="edge28" class="edge">
<title>DiemTimestamp::assert_operating&#45;&gt;DiemTimestamp::is_operating</title>
<path fill="none" stroke="black" d="M1211.52,-253.82C1210.6,-243.19 1209.4,-229.31 1208.35,-217.2"/>
<polygon fill="black" stroke="black" points="1211.83,-216.81 1207.48,-207.15 1204.86,-217.42 1211.83,-216.81"/>
</g>
<!-- Errors::invalid_state&#45;&gt;Errors::make -->
<g id="edge29" class="edge">
<title>Errors::invalid_state&#45;&gt;Errors::make</title>
<path fill="none" stroke="black" d="M639.85,-90.83C614.81,-79.07 579.28,-62.38 553.59,-50.31"/>
<polygon fill="black" stroke="black" points="554.81,-47.02 544.27,-45.93 551.83,-53.35 554.81,-47.02"/>
</g>
<!-- DiemTimestamp::is_operating&#45;&gt;CoreAddresses::DIEM_ROOT_ADDRESS -->
<g id="edge30" class="edge">
<title>DiemTimestamp::is_operating&#45;&gt;CoreAddresses::DIEM_ROOT_ADDRESS</title>
<path fill="none" stroke="black" d="M1173.86,-174.44C1143.13,-161.48 1096.4,-141.76 1061.39,-126.99"/>
<polygon fill="black" stroke="black" points="1062.43,-123.63 1051.85,-122.97 1059.71,-130.08 1062.43,-123.63"/>
</g>
</g>
</svg>
