<?xml version="1.0" encoding="UTF-8" standalone="no"?>
<!DOCTYPE svg PUBLIC "-//W3C//DTD SVG 1.1//EN"
 "http://www.w3.org/Graphics/SVG/1.1/DTD/svg11.dtd">
<!-- Generated by graphviz version 2.46.1 (20210213.1702)
 -->
<!-- Title: G Pages: 1 -->
<svg width="704pt" height="509pt"
 viewBox="0.00 0.00 704.00 509.00" xmlns="http://www.w3.org/2000/svg" xmlns:xlink="http://www.w3.org/1999/xlink">
<g id="graph0" class="graph" transform="scale(1 1) rotate(0) translate(4 505)">
<title>G</title>
<polygon fill="white" stroke="transparent" points="-4,4 -4,-505 700,-505 700,4 -4,4"/>
<g id="clust1" class="cluster">
<title>cluster_Errors</title>
<polygon fill="none" stroke="black" points="8,-8 8,-166 422,-166 422,-8 8,-8"/>
<text text-anchor="middle" x="215" y="-150.8" font-family="Times,serif" font-size="14.00">Errors</text>
</g>
<g id="clust2" class="cluster">
<title>cluster_DiemTimestamp</title>
<polygon fill="none" stroke="black" points="430,-91 430,-313 604,-313 604,-91 430,-91"/>
<text text-anchor="middle" x="517" y="-297.8" font-family="Times,serif" font-size="14.00">DiemTimestamp</text>
</g>
<g id="clust3" class="cluster">
<title>cluster_CoreAddresses</title>
<polygon fill="none" stroke="black" points="458,-8 458,-83 688,-83 688,-8 458,-8"/>
<text text-anchor="middle" x="573" y="-67.8" font-family="Times,serif" font-size="14.00">CoreAddresses</text>
</g>
<!-- update_deposit_limits -->
<g id="node1" class="node">
<title>update_deposit_limits</title>
<ellipse fill="none" stroke="black" cx="155" cy="-483" rx="89.08" ry="18"/>
<text text-anchor="middle" x="155" y="-479.3" font-family="Times,serif" font-size="14.00">update_deposit_limits</text>
</g>
<!-- Errors::not_published -->
<g id="node2" class="node">
<title>Errors::not_published</title>
<ellipse fill="none" stroke="black" cx="76" cy="-117" rx="60.39" ry="18"/>
<text text-anchor="middle" x="76" y="-113.3" font-family="Times,serif" font-size="14.00">not_published</text>
</g>
<!-- update_deposit_limits&#45;&gt;Errors::not_published -->
<g id="edge1" class="edge">
<title>update_deposit_limits&#45;&gt;Errors::not_published</title>
<path fill="none" stroke="black" d="M129.92,-465.67C117.58,-456.36 103.55,-443.64 95,-429 74.59,-394.08 76,-380.45 76,-340 76,-340 76,-340 76,-263 76,-222.15 76,-174.83 76,-145.65"/>
<polygon fill="black" stroke="black" points="79.5,-145.41 76,-135.41 72.5,-145.41 79.5,-145.41"/>
</g>
<!-- can_receive_and_update_window -->
<g id="node3" class="node">
<title>can_receive_and_update_window</title>
<ellipse fill="none" stroke="black" cx="234" cy="-411" rx="129.98" ry="18"/>
<text text-anchor="middle" x="234" y="-407.3" font-family="Times,serif" font-size="14.00">can_receive_and_update_window</text>
</g>
<!-- update_deposit_limits&#45;&gt;can_receive_and_update_window -->
<g id="edge2" class="edge">
<title>update_deposit_limits&#45;&gt;can_receive_and_update_window</title>
<path fill="none" stroke="black" d="M174.12,-465.05C184.05,-456.26 196.33,-445.38 207.18,-435.76"/>
<polygon fill="black" stroke="black" points="209.62,-438.28 214.78,-429.03 204.97,-433.04 209.62,-438.28"/>
</g>
<!-- Errors::make -->
<g id="node4" class="node">
<title>Errors::make</title>
<ellipse fill="none" stroke="black" cx="219" cy="-34" rx="30.59" ry="18"/>
<text text-anchor="middle" x="219" y="-30.3" font-family="Times,serif" font-size="14.00">make</text>
</g>
<!-- Errors::not_published&#45;&gt;Errors::make -->
<g id="edge3" class="edge">
<title>Errors::not_published&#45;&gt;Errors::make</title>
<path fill="none" stroke="black" d="M102.9,-100.76C127.4,-86.89 163.53,-66.42 188.96,-52.01"/>
<polygon fill="black" stroke="black" points="190.83,-54.98 197.81,-47 187.38,-48.89 190.83,-54.98"/>
</g>
<!-- can_receive_and_update_window&#45;&gt;Errors::not_published -->
<g id="edge5" class="edge">
<title>can_receive_and_update_window&#45;&gt;Errors::not_published</title>
<path fill="none" stroke="black" d="M224.82,-393.04C198.37,-344.15 121.84,-202.71 90.08,-144.01"/>
<polygon fill="black" stroke="black" points="93.04,-142.14 85.2,-135.01 86.88,-145.47 93.04,-142.14"/>
</g>
<!-- Errors::limit_exceeded -->
<g id="node5" class="node">
<title>Errors::limit_exceeded</title>
<ellipse fill="none" stroke="black" cx="219" cy="-117" rx="64.99" ry="18"/>
<text text-anchor="middle" x="219" y="-113.3" font-family="Times,serif" font-size="14.00">limit_exceeded</text>
</g>
<!-- can_receive_and_update_window&#45;&gt;Errors::limit_exceeded -->
<g id="edge4" class="edge">
<title>can_receive_and_update_window&#45;&gt;Errors::limit_exceeded</title>
<path fill="none" stroke="black" d="M226.11,-392.75C221.89,-382.58 217.14,-369.33 215,-357 201.84,-281.27 209.82,-190.01 215.23,-145.33"/>
<polygon fill="black" stroke="black" points="218.72,-145.63 216.51,-135.27 211.78,-144.75 218.72,-145.63"/>
</g>
<!-- is_unrestricted -->
<g id="node6" class="node">
<title>is_unrestricted</title>
<ellipse fill="none" stroke="black" cx="424" cy="-339" rx="62.29" ry="18"/>
<text text-anchor="middle" x="424" y="-335.3" font-family="Times,serif" font-size="14.00">is_unrestricted</text>
</g>
<!-- can_receive_and_update_window&#45;&gt;is_unrestricted -->
<g id="edge6" class="edge">
<title>can_receive_and_update_window&#45;&gt;is_unrestricted</title>
<path fill="none" stroke="black" d="M277.59,-393.94C307.45,-382.94 347,-368.37 377.46,-357.15"/>
<polygon fill="black" stroke="black" points="378.84,-360.37 387.01,-353.63 376.42,-353.8 378.84,-360.37"/>
</g>
<!-- reset_window -->
<g id="node7" class="node">
<title>reset_window</title>
<ellipse fill="none" stroke="black" cx="284" cy="-339" rx="59.59" ry="18"/>
<text text-anchor="middle" x="284" y="-335.3" font-family="Times,serif" font-size="14.00">reset_window</text>
</g>
<!-- can_receive_and_update_window&#45;&gt;reset_window -->
<g id="edge7" class="edge">
<title>can_receive_and_update_window&#45;&gt;reset_window</title>
<path fill="none" stroke="black" d="M246.1,-393.05C252.12,-384.63 259.51,-374.28 266.17,-364.97"/>
<polygon fill="black" stroke="black" points="269.04,-366.96 272.01,-356.79 263.35,-362.89 269.04,-366.96"/>
</g>
<!-- Errors::limit_exceeded&#45;&gt;Errors::make -->
<g id="edge8" class="edge">
<title>Errors::limit_exceeded&#45;&gt;Errors::make</title>
<path fill="none" stroke="black" d="M219,-98.82C219,-88.19 219,-74.31 219,-62.2"/>
<polygon fill="black" stroke="black" points="222.5,-62.15 219,-52.15 215.5,-62.15 222.5,-62.15"/>
</g>
<!-- reset_window&#45;&gt;Errors::limit_exceeded -->
<g id="edge9" class="edge">
<title>reset_window&#45;&gt;Errors::limit_exceeded</title>
<path fill="none" stroke="black" d="M278.9,-320.74C267.63,-282.58 240.52,-190.84 226.98,-145.01"/>
<polygon fill="black" stroke="black" points="230.27,-143.78 224.08,-135.18 223.55,-145.76 230.27,-143.78"/>
</g>
<!-- DiemTimestamp::now_microseconds -->
<g id="node8" class="node">
<title>DiemTimestamp::now_microseconds</title>
<ellipse fill="none" stroke="black" cx="517" cy="-264" rx="79.09" ry="18"/>
<text text-anchor="middle" x="517" y="-260.3" font-family="Times,serif" font-size="14.00">now_microseconds</text>
</g>
<!-- reset_window&#45;&gt;DiemTimestamp::now_microseconds -->
<g id="edge10" class="edge">
<title>reset_window&#45;&gt;DiemTimestamp::now_microseconds</title>
<path fill="none" stroke="black" d="M323.79,-325.53C362.01,-313.56 420.07,-295.37 462.57,-282.05"/>
<polygon fill="black" stroke="black" points="463.7,-285.37 472.2,-279.04 461.61,-278.69 463.7,-285.37"/>
</g>
<!-- CoreAddresses::DIEM_ROOT_ADDRESS -->
<g id="node9" class="node">
<title>CoreAddresses::DIEM_ROOT_ADDRESS</title>
<ellipse fill="none" stroke="black" cx="573" cy="-34" rx="106.68" ry="18"/>
<text text-anchor="middle" x="573" y="-30.3" font-family="Times,serif" font-size="14.00">DIEM_ROOT_ADDRESS</text>
</g>
<!-- DiemTimestamp::now_microseconds&#45;&gt;CoreAddresses::DIEM_ROOT_ADDRESS -->
<g id="edge11" class="edge">
<title>DiemTimestamp::now_microseconds&#45;&gt;CoreAddresses::DIEM_ROOT_ADDRESS</title>
<path fill="none" stroke="black" d="M546.98,-247.26C560.65,-238.33 575.44,-225.77 583,-210 606.05,-161.92 592.87,-97.68 582.25,-61.92"/>
<polygon fill="black" stroke="black" points="585.54,-60.71 579.22,-52.21 578.85,-62.8 585.54,-60.71"/>
</g>
<!-- DiemTimestamp::assert_operating -->
<g id="node10" class="node">
<title>DiemTimestamp::assert_operating</title>
<ellipse fill="none" stroke="black" cx="506" cy="-192" rx="68.49" ry="18"/>
<text text-anchor="middle" x="506" y="-188.3" font-family="Times,serif" font-size="14.00">assert_operating</text>
</g>
<!-- DiemTimestamp::now_microseconds&#45;&gt;DiemTimestamp::assert_operating -->
<g id="edge12" class="edge">
<title>DiemTimestamp::now_microseconds&#45;&gt;DiemTimestamp::assert_operating</title>
<path fill="none" stroke="black" d="M514.28,-245.7C513.07,-237.98 511.61,-228.71 510.26,-220.11"/>
<polygon fill="black" stroke="black" points="513.7,-219.44 508.69,-210.1 506.78,-220.53 513.7,-219.44"/>
</g>
<!-- Errors::invalid_state -->
<g id="node11" class="node">
<title>Errors::invalid_state</title>
<ellipse fill="none" stroke="black" cx="358" cy="-117" rx="55.79" ry="18"/>
<text text-anchor="middle" x="358" y="-113.3" font-family="Times,serif" font-size="14.00">invalid_state</text>
</g>
<!-- DiemTimestamp::assert_operating&#45;&gt;Errors::invalid_state -->
<g id="edge13" class="edge">
<title>DiemTimestamp::assert_operating&#45;&gt;Errors::invalid_state</title>
<path fill="none" stroke="black" d="M458.51,-178.84C447.58,-175.31 436.18,-171.03 426,-166 411.82,-159 397.34,-149.21 385.4,-140.3"/>
<polygon fill="black" stroke="black" points="387.27,-137.32 377.2,-134.02 383.01,-142.88 387.27,-137.32"/>
</g>
<!-- DiemTimestamp::is_operating -->
<g id="node12" class="node">
<title>DiemTimestamp::is_operating</title>
<ellipse fill="none" stroke="black" cx="513" cy="-117" rx="53.89" ry="18"/>
<text text-anchor="middle" x="513" y="-113.3" font-family="Times,serif" font-size="14.00">is_operating</text>
</g>
<!-- DiemTimestamp::assert_operating&#45;&gt;DiemTimestamp::is_operating -->
<g id="edge14" class="edge">
<title>DiemTimestamp::assert_operating&#45;&gt;DiemTimestamp::is_operating</title>
<path fill="none" stroke="black" d="M507.66,-173.7C508.47,-165.25 509.46,-154.87 510.38,-145.37"/>
<polygon fill="black" stroke="black" points="513.88,-145.46 511.35,-135.18 506.91,-144.8 513.88,-145.46"/>
</g>
<!-- Errors::invalid_state&#45;&gt;Errors::make -->
<g id="edge15" class="edge">
<title>Errors::invalid_state&#45;&gt;Errors::make</title>
<path fill="none" stroke="black" d="M332.18,-100.95C308.65,-87.24 273.89,-66.98 249.1,-52.54"/>
<polygon fill="black" stroke="black" points="250.54,-49.33 240.14,-47.32 247.01,-55.38 250.54,-49.33"/>
</g>
<!-- DiemTimestamp::is_operating&#45;&gt;CoreAddresses::DIEM_ROOT_ADDRESS -->
<g id="edge16" class="edge">
<title>DiemTimestamp::is_operating&#45;&gt;CoreAddresses::DIEM_ROOT_ADDRESS</title>
<path fill="none" stroke="black" d="M525.43,-99.22C533.74,-88 544.83,-73.03 554.21,-60.36"/>
<polygon fill="black" stroke="black" points="557.24,-62.16 560.38,-52.04 551.61,-57.99 557.24,-62.16"/>
</g>
</g>
</svg>
