<?xml version="1.0" encoding="UTF-8" standalone="no"?>
<!DOCTYPE svg PUBLIC "-//W3C//DTD SVG 1.1//EN"
 "http://www.w3.org/Graphics/SVG/1.1/DTD/svg11.dtd">
<!-- Generated by graphviz version 2.46.1 (20210213.1702)
 -->
<!-- Title: G Pages: 1 -->
<svg width="514pt" height="332pt"
 viewBox="0.00 0.00 513.69 332.00" xmlns="http://www.w3.org/2000/svg" xmlns:xlink="http://www.w3.org/1999/xlink">
<g id="graph0" class="graph" transform="scale(1 1) rotate(0) translate(4 328)">
<title>G</title>
<polygon fill="white" stroke="transparent" points="-4,4 -4,-328 509.69,-328 509.69,4 -4,4"/>
<!-- AccountFreezing -->
<g id="node1" class="node">
<title>AccountFreezing</title>
<ellipse fill="none" stroke="black" cx="263.39" cy="-306" rx="71.49" ry="18"/>
<text text-anchor="middle" x="263.39" y="-302.3" font-family="Times,serif" font-size="14.00">AccountFreezing</text>
</g>
<!-- Signer -->
<g id="node2" class="node">
<title>Signer</title>
<ellipse fill="none" stroke="black" cx="308.39" cy="-18" rx="33.6" ry="18"/>
<text text-anchor="middle" x="308.39" y="-14.3" font-family="Times,serif" font-size="14.00">Signer</text>
</g>
<!-- AccountFreezing&#45;&gt;Signer -->
<g id="edge1" class="edge">
<title>AccountFreezing&#45;&gt;Signer</title>
<path fill="none" stroke="black" d="M269.48,-287.98C273.01,-277.67 277.35,-264.19 280.39,-252 296.14,-188.9 299.86,-172.71 306.39,-108 308.47,-87.37 308.92,-63.92 308.88,-46.27"/>
<polygon fill="black" stroke="black" points="312.38,-46.08 308.8,-36.11 305.38,-46.14 312.38,-46.08"/>
</g>
<!-- Errors -->
<g id="node3" class="node">
<title>Errors</title>
<ellipse fill="none" stroke="black" cx="121.39" cy="-18" rx="32.49" ry="18"/>
<text text-anchor="middle" x="121.39" y="-14.3" font-family="Times,serif" font-size="14.00">Errors</text>
</g>
<!-- AccountFreezing&#45;&gt;Errors -->
<g id="edge2" class="edge">
<title>AccountFreezing&#45;&gt;Errors</title>
<path fill="none" stroke="black" d="M205.38,-295.36C143.85,-281.66 49.92,-249.95 8.39,-180 -23.57,-126.15 48.23,-66.84 91.55,-37.52"/>
<polygon fill="black" stroke="black" points="93.64,-40.34 100.05,-31.9 89.78,-34.5 93.64,-40.34"/>
</g>
<!-- CoreAddresses -->
<g id="node4" class="node">
<title>CoreAddresses</title>
<ellipse fill="none" stroke="black" cx="213.39" cy="-90" rx="63.89" ry="18"/>
<text text-anchor="middle" x="213.39" y="-86.3" font-family="Times,serif" font-size="14.00">CoreAddresses</text>
</g>
<!-- AccountFreezing&#45;&gt;CoreAddresses -->
<g id="edge3" class="edge">
<title>AccountFreezing&#45;&gt;CoreAddresses</title>
<path fill="none" stroke="black" d="M264.2,-287.82C264.65,-277.45 265.17,-263.97 265.39,-252 265.69,-236 268.53,-231.69 265.39,-216 258.24,-180.19 240.61,-141.8 227.86,-117.16"/>
<polygon fill="black" stroke="black" points="230.85,-115.31 223.08,-108.11 224.66,-118.58 230.85,-115.31"/>
</g>
<!-- DiemTimestamp -->
<g id="node5" class="node">
<title>DiemTimestamp</title>
<ellipse fill="none" stroke="black" cx="88.39" cy="-162" rx="71.49" ry="18"/>
<text text-anchor="middle" x="88.39" y="-158.3" font-family="Times,serif" font-size="14.00">DiemTimestamp</text>
</g>
<!-- AccountFreezing&#45;&gt;DiemTimestamp -->
<g id="edge4" class="edge">
<title>AccountFreezing&#45;&gt;DiemTimestamp</title>
<path fill="none" stroke="black" d="M237.79,-288.95C222.24,-278.88 202.21,-265.31 185.39,-252 159.25,-231.3 131.4,-205.29 112.28,-186.74"/>
<polygon fill="black" stroke="black" points="114.5,-184.02 104.9,-179.53 109.61,-189.03 114.5,-184.02"/>
</g>
<!-- Roles -->
<g id="node6" class="node">
<title>Roles</title>
<ellipse fill="none" stroke="black" cx="225.39" cy="-234" rx="30.59" ry="18"/>
<text text-anchor="middle" x="225.39" y="-230.3" font-family="Times,serif" font-size="14.00">Roles</text>
</g>
<!-- AccountFreezing&#45;&gt;Roles -->
<g id="edge5" class="edge">
<title>AccountFreezing&#45;&gt;Roles</title>
<path fill="none" stroke="black" d="M254.19,-288.05C249.65,-279.68 244.07,-269.4 239.04,-260.13"/>
<polygon fill="black" stroke="black" points="242.09,-258.43 234.24,-251.31 235.94,-261.77 242.09,-258.43"/>
</g>
<!-- Event -->
<g id="node7" class="node">
<title>Event</title>
<ellipse fill="none" stroke="black" cx="402.39" cy="-90" rx="31.4" ry="18"/>
<text text-anchor="middle" x="402.39" y="-86.3" font-family="Times,serif" font-size="14.00">Event</text>
</g>
<!-- AccountFreezing&#45;&gt;Event -->
<g id="edge6" class="edge">
<title>AccountFreezing&#45;&gt;Event</title>
<path fill="none" stroke="black" d="M303.05,-291C322,-282.44 343.52,-269.69 357.39,-252 388.34,-212.53 398.01,-152.99 401.03,-118.46"/>
<polygon fill="black" stroke="black" points="404.54,-118.41 401.79,-108.18 397.56,-117.89 404.54,-118.41"/>
</g>
<!-- CoreAddresses&#45;&gt;Signer -->
<g id="edge7" class="edge">
<title>CoreAddresses&#45;&gt;Signer</title>
<path fill="none" stroke="black" d="M235.43,-72.76C249.08,-62.7 266.72,-49.71 281.24,-39.01"/>
<polygon fill="black" stroke="black" points="283.39,-41.77 289.37,-33.02 279.24,-36.13 283.39,-41.77"/>
</g>
<!-- CoreAddresses&#45;&gt;Errors -->
<g id="edge8" class="edge">
<title>CoreAddresses&#45;&gt;Errors</title>
<path fill="none" stroke="black" d="M192.05,-72.76C178.95,-62.8 162.07,-49.95 148.09,-39.31"/>
<polygon fill="black" stroke="black" points="149.89,-36.29 139.82,-33.02 145.66,-41.86 149.89,-36.29"/>
</g>
<!-- DiemTimestamp&#45;&gt;Errors -->
<g id="edge9" class="edge">
<title>DiemTimestamp&#45;&gt;Errors</title>
<path fill="none" stroke="black" d="M91.79,-143.88C95.42,-125.92 101.45,-96.9 107.39,-72 109.41,-63.54 111.77,-54.36 113.98,-46.06"/>
<polygon fill="black" stroke="black" points="117.43,-46.7 116.64,-36.13 110.67,-44.88 117.43,-46.7"/>
</g>
<!-- DiemTimestamp&#45;&gt;CoreAddresses -->
<g id="edge10" class="edge">
<title>DiemTimestamp&#45;&gt;CoreAddresses</title>
<path fill="none" stroke="black" d="M116.44,-145.29C134.34,-135.27 157.72,-122.18 177.03,-111.36"/>
<polygon fill="black" stroke="black" points="178.85,-114.36 185.86,-106.42 175.43,-108.25 178.85,-114.36"/>
</g>
<!-- Roles&#45;&gt;Signer -->
<g id="edge11" class="edge">
<title>Roles&#45;&gt;Signer</title>
<path fill="none" stroke="black" d="M234.85,-216.51C247.96,-193.05 271.73,-148.4 286.39,-108 293.76,-87.71 299.49,-63.94 303.26,-46.07"/>
<polygon fill="black" stroke="black" points="306.73,-46.54 305.3,-36.05 299.87,-45.15 306.73,-46.54"/>
</g>
<!-- Roles&#45;&gt;Errors -->
<g id="edge12" class="edge">
<title>Roles&#45;&gt;Errors</title>
<path fill="none" stroke="black" d="M215.53,-216.63C204.5,-198.55 185.87,-168.72 168.39,-144 156.69,-127.45 148.95,-126.38 140.39,-108 131.25,-88.36 126.45,-64.23 123.96,-46.06"/>
<polygon fill="black" stroke="black" points="127.44,-45.62 122.75,-36.12 120.49,-46.47 127.44,-45.62"/>
</g>
<!-- Roles&#45;&gt;CoreAddresses -->
<g id="edge13" class="edge">
<title>Roles&#45;&gt;CoreAddresses</title>
<path fill="none" stroke="black" d="M223.94,-215.87C221.9,-191.67 218.14,-147.21 215.71,-118.39"/>
<polygon fill="black" stroke="black" points="219.17,-117.86 214.84,-108.19 212.2,-118.45 219.17,-117.86"/>
</g>
<!-- Roles&#45;&gt;DiemTimestamp -->
<g id="edge14" class="edge">
<title>Roles&#45;&gt;DiemTimestamp</title>
<path fill="none" stroke="black" d="M203.08,-221.6C182.7,-211.19 152.13,-195.57 127.68,-183.07"/>
<polygon fill="black" stroke="black" points="129.13,-179.89 118.64,-178.45 125.95,-186.12 129.13,-179.89"/>
</g>
<!-- Event&#45;&gt;Signer -->
<g id="edge15" class="edge">
<title>Event&#45;&gt;Signer</title>
<path fill="none" stroke="black" d="M383.82,-75.17C370.01,-64.88 350.94,-50.69 335.44,-39.14"/>
<polygon fill="black" stroke="black" points="337.36,-36.21 327.25,-33.04 333.18,-41.82 337.36,-36.21"/>
</g>
<!-- Event&#45;&gt;Errors -->
<g id="edge16" class="edge">
<title>Event&#45;&gt;Errors</title>
<path fill="none" stroke="black" d="M374.16,-81.97C323.61,-69.38 217.59,-42.96 160.23,-28.67"/>
<polygon fill="black" stroke="black" points="160.99,-25.26 150.44,-26.24 159.3,-32.05 160.99,-25.26"/>
</g>
<!-- Vector -->
<g id="node8" class="node">
<title>Vector</title>
<ellipse fill="none" stroke="black" cx="399.39" cy="-18" rx="33.6" ry="18"/>
<text text-anchor="middle" x="399.39" y="-14.3" font-family="Times,serif" font-size="14.00">Vector</text>
</g>
<!-- Event&#45;&gt;Vector -->
<g id="edge17" class="edge">
<title>Event&#45;&gt;Vector</title>
<path fill="none" stroke="black" d="M401.65,-71.7C401.32,-63.98 400.92,-54.71 400.55,-46.11"/>
<polygon fill="black" stroke="black" points="404.05,-45.95 400.13,-36.1 397.06,-46.25 404.05,-45.95"/>
</g>
<!-- BCS -->
<g id="node9" class="node">
<title>BCS</title>
<ellipse fill="none" stroke="black" cx="478.39" cy="-18" rx="27.1" ry="18"/>
<text text-anchor="middle" x="478.39" y="-14.3" font-family="Times,serif" font-size="14.00">BCS</text>
</g>
<!-- Event&#45;&gt;BCS -->
<g id="edge18" class="edge">
<title>Event&#45;&gt;BCS</title>
<path fill="none" stroke="black" d="M418.51,-74.15C429.3,-64.21 443.67,-50.98 455.63,-39.97"/>
<polygon fill="black" stroke="black" points="458.09,-42.46 463.08,-33.11 453.35,-37.31 458.09,-42.46"/>
</g>
</g>
</svg>
