<?xml version="1.0" encoding="UTF-8" standalone="no"?>
<!DOCTYPE svg PUBLIC "-//W3C//DTD SVG 1.1//EN"
 "http://www.w3.org/Graphics/SVG/1.1/DTD/svg11.dtd">
<!-- Generated by graphviz version 2.46.1 (20210213.1702)
 -->
<!-- Title: G Pages: 1 -->
<svg width="304pt" height="207pt"
 viewBox="0.00 0.00 304.39 207.00" xmlns="http://www.w3.org/2000/svg" xmlns:xlink="http://www.w3.org/1999/xlink">
<g id="graph0" class="graph" transform="scale(1 1) rotate(0) translate(4 203)">
<title>G</title>
<polygon fill="white" stroke="transparent" points="-4,4 -4,-203 300.39,-203 300.39,4 -4,4"/>
<g id="clust1" class="cluster">
<title>cluster_Errors</title>
<polygon fill="none" stroke="black" points="8,-8 8,-155 136,-155 136,-8 8,-8"/>
<text text-anchor="middle" x="72" y="-139.8" font-family="Times,serif" font-size="14.00">Errors</text>
</g>
<!-- assert_not_frozen -->
<g id="node1" class="node">
<title>assert_not_frozen</title>
<ellipse fill="none" stroke="black" cx="146" cy="-181" rx="73.39" ry="18"/>
<text text-anchor="middle" x="146" y="-177.3" font-family="Times,serif" font-size="14.00">assert_not_frozen</text>
</g>
<!-- Errors::invalid_state -->
<g id="node2" class="node">
<title>Errors::invalid_state</title>
<ellipse fill="none" stroke="black" cx="72" cy="-106" rx="55.79" ry="18"/>
<text text-anchor="middle" x="72" y="-102.3" font-family="Times,serif" font-size="14.00">invalid_state</text>
</g>
<!-- assert_not_frozen&#45;&gt;Errors::invalid_state -->
<g id="edge1" class="edge">
<title>assert_not_frozen&#45;&gt;Errors::invalid_state</title>
<path fill="none" stroke="black" d="M129.21,-163.44C119.3,-153.66 106.6,-141.13 95.69,-130.37"/>
<polygon fill="black" stroke="black" points="98.05,-127.78 88.47,-123.25 93.13,-132.76 98.05,-127.78"/>
</g>
<!-- account_is_frozen -->
<g id="node3" class="node">
<title>account_is_frozen</title>
<ellipse fill="none" stroke="black" cx="221" cy="-106" rx="75.29" ry="18"/>
<text text-anchor="middle" x="221" y="-102.3" font-family="Times,serif" font-size="14.00">account_is_frozen</text>
</g>
<!-- assert_not_frozen&#45;&gt;account_is_frozen -->
<g id="edge2" class="edge">
<title>assert_not_frozen&#45;&gt;account_is_frozen</title>
<path fill="none" stroke="black" d="M163.02,-163.44C172.92,-153.8 185.57,-141.48 196.53,-130.82"/>
<polygon fill="black" stroke="black" points="199.06,-133.23 203.79,-123.75 194.18,-128.22 199.06,-133.23"/>
</g>
<!-- Errors::make -->
<g id="node4" class="node">
<title>Errors::make</title>
<ellipse fill="none" stroke="black" cx="72" cy="-34" rx="30.59" ry="18"/>
<text text-anchor="middle" x="72" y="-30.3" font-family="Times,serif" font-size="14.00">make</text>
</g>
<!-- Errors::invalid_state&#45;&gt;Errors::make -->
<g id="edge3" class="edge">
<title>Errors::invalid_state&#45;&gt;Errors::make</title>
<path fill="none" stroke="black" d="M72,-87.7C72,-79.98 72,-70.71 72,-62.11"/>
<polygon fill="black" stroke="black" points="75.5,-62.1 72,-52.1 68.5,-62.1 75.5,-62.1"/>
</g>
</g>
</svg>
