<?xml version="1.0" encoding="UTF-8" standalone="no"?>
<!DOCTYPE svg PUBLIC "-//W3C//DTD SVG 1.1//EN"
 "http://www.w3.org/Graphics/SVG/1.1/DTD/svg11.dtd">
<!-- Generated by graphviz version 2.46.1 (20210213.1702)
 -->
<!-- Title: G Pages: 1 -->
<svg width="1211pt" height="440pt"
 viewBox="0.00 0.00 1211.00 440.00" xmlns="http://www.w3.org/2000/svg" xmlns:xlink="http://www.w3.org/1999/xlink">
<g id="graph0" class="graph" transform="scale(1 1) rotate(0) translate(4 436)">
<title>G</title>
<polygon fill="white" stroke="transparent" points="-4,4 -4,-436 1207,-436 1207,4 -4,4"/>
<g id="clust1" class="cluster">
<title>cluster_Signer</title>
<polygon fill="none" stroke="black" points="8,-8 8,-155 158,-155 158,-8 8,-8"/>
<text text-anchor="middle" x="83" y="-139.8" font-family="Times,serif" font-size="14.00">Signer</text>
</g>
<g id="clust2" class="cluster">
<title>cluster_Errors</title>
<polygon fill="none" stroke="black" points="639,-8 639,-155 1195,-155 1195,-8 639,-8"/>
<text text-anchor="middle" x="917" y="-139.8" font-family="Times,serif" font-size="14.00">Errors</text>
</g>
<g id="clust3" class="cluster">
<title>cluster_CoreAddresses</title>
<polygon fill="none" stroke="black" points="166,-80 166,-230 631,-230 631,-80 166,-80"/>
<text text-anchor="middle" x="398.5" y="-214.8" font-family="Times,serif" font-size="14.00">CoreAddresses</text>
</g>
<g id="clust4" class="cluster">
<title>cluster_DiemTimestamp</title>
<polygon fill="none" stroke="black" points="553,-238 553,-388 705,-388 705,-238 553,-238"/>
<text text-anchor="middle" x="629" y="-372.8" font-family="Times,serif" font-size="14.00">DiemTimestamp</text>
</g>
<g id="clust5" class="cluster">
<title>cluster_Roles</title>
<polygon fill="none" stroke="black" points="279,-238 279,-313 513,-313 513,-238 279,-238"/>
<text text-anchor="middle" x="396" y="-297.8" font-family="Times,serif" font-size="14.00">Roles</text>
</g>
<g id="clust6" class="cluster">
<title>cluster_Event</title>
<polygon fill="none" stroke="black" points="785,-238 785,-388 971,-388 971,-238 785,-238"/>
<text text-anchor="middle" x="878" y="-372.8" font-family="Times,serif" font-size="14.00">Event</text>
</g>
<!-- unfreeze_account -->
<g id="node1" class="node">
<title>unfreeze_account</title>
<ellipse fill="none" stroke="black" cx="581" cy="-414" rx="72.59" ry="18"/>
<text text-anchor="middle" x="581" y="-410.3" font-family="Times,serif" font-size="14.00">unfreeze_account</text>
</g>
<!-- Signer::address_of -->
<g id="node2" class="node">
<title>Signer::address_of</title>
<ellipse fill="none" stroke="black" cx="101" cy="-106" rx="48.99" ry="18"/>
<text text-anchor="middle" x="101" y="-102.3" font-family="Times,serif" font-size="14.00">address_of</text>
</g>
<!-- unfreeze_account&#45;&gt;Signer::address_of -->
<g id="edge1" class="edge">
<title>unfreeze_account&#45;&gt;Signer::address_of</title>
<path fill="none" stroke="black" d="M511.9,-408.33C406.93,-397.13 209.9,-359.08 119,-230 99.23,-201.93 97.08,-161.25 98.29,-134.47"/>
<polygon fill="black" stroke="black" points="101.79,-134.46 98.94,-124.26 94.81,-134.02 101.79,-134.46"/>
</g>
<!-- Errors::not_published -->
<g id="node3" class="node">
<title>Errors::not_published</title>
<ellipse fill="none" stroke="black" cx="1127" cy="-106" rx="60.39" ry="18"/>
<text text-anchor="middle" x="1127" y="-102.3" font-family="Times,serif" font-size="14.00">not_published</text>
</g>
<!-- unfreeze_account&#45;&gt;Errors::not_published -->
<g id="edge2" class="edge">
<title>unfreeze_account&#45;&gt;Errors::not_published</title>
<path fill="none" stroke="black" d="M646.03,-405.74C672.29,-401.71 698.79,-395.89 709,-388 767.51,-342.77 724.79,-286.05 781,-238 878.7,-154.5 942.25,-210.84 1058,-155 1072.38,-148.06 1087.08,-138.28 1099.19,-129.36"/>
<polygon fill="black" stroke="black" points="1101.65,-131.89 1107.51,-123.07 1097.43,-126.31 1101.65,-131.89"/>
</g>
<!-- CoreAddresses::DIEM_ROOT_ADDRESS -->
<g id="node4" class="node">
<title>CoreAddresses::DIEM_ROOT_ADDRESS</title>
<ellipse fill="none" stroke="black" cx="516" cy="-181" rx="106.68" ry="18"/>
<text text-anchor="middle" x="516" y="-177.3" font-family="Times,serif" font-size="14.00">DIEM_ROOT_ADDRESS</text>
</g>
<!-- unfreeze_account&#45;&gt;CoreAddresses::DIEM_ROOT_ADDRESS -->
<g id="edge3" class="edge">
<title>unfreeze_account&#45;&gt;CoreAddresses::DIEM_ROOT_ADDRESS</title>
<path fill="none" stroke="black" d="M556.29,-396.99C553.48,-394.29 550.94,-391.28 549,-388 531.41,-358.2 521.7,-258.15 517.9,-209.3"/>
<polygon fill="black" stroke="black" points="521.38,-208.85 517.14,-199.14 514.39,-209.38 521.38,-208.85"/>
</g>
<!-- DiemTimestamp::assert_operating -->
<g id="node5" class="node">
<title>DiemTimestamp::assert_operating</title>
<ellipse fill="none" stroke="black" cx="629" cy="-339" rx="68.49" ry="18"/>
<text text-anchor="middle" x="629" y="-335.3" font-family="Times,serif" font-size="14.00">assert_operating</text>
</g>
<!-- unfreeze_account&#45;&gt;DiemTimestamp::assert_operating -->
<g id="edge4" class="edge">
<title>unfreeze_account&#45;&gt;DiemTimestamp::assert_operating</title>
<path fill="none" stroke="black" d="M592.13,-396.07C598.13,-386.95 605.65,-375.51 612.33,-365.35"/>
<polygon fill="black" stroke="black" points="615.36,-367.12 617.93,-356.84 609.51,-363.27 615.36,-367.12"/>
</g>
<!-- Roles::assert_treasury_compliance -->
<g id="node6" class="node">
<title>Roles::assert_treasury_compliance</title>
<ellipse fill="none" stroke="black" cx="396" cy="-264" rx="108.58" ry="18"/>
<text text-anchor="middle" x="396" y="-260.3" font-family="Times,serif" font-size="14.00">assert_treasury_compliance</text>
</g>
<!-- unfreeze_account&#45;&gt;Roles::assert_treasury_compliance -->
<g id="edge5" class="edge">
<title>unfreeze_account&#45;&gt;Roles::assert_treasury_compliance</title>
<path fill="none" stroke="black" d="M539.8,-399.11C532.6,-395.93 525.39,-392.23 519,-388 477.45,-360.52 438.39,-317.39 415.85,-290.19"/>
<polygon fill="black" stroke="black" points="418.44,-287.82 409.4,-282.29 413.01,-292.25 418.44,-287.82"/>
</g>
<!-- Event::emit_event -->
<g id="node7" class="node">
<title>Event::emit_event</title>
<ellipse fill="none" stroke="black" cx="860" cy="-339" rx="50.09" ry="18"/>
<text text-anchor="middle" x="860" y="-335.3" font-family="Times,serif" font-size="14.00">emit_event</text>
</g>
<!-- unfreeze_account&#45;&gt;Event::emit_event -->
<g id="edge6" class="edge">
<title>unfreeze_account&#45;&gt;Event::emit_event</title>
<path fill="none" stroke="black" d="M653.15,-410.96C691.4,-408.13 738.69,-401.82 779,-388 797.18,-381.77 815.75,-371.13 830.52,-361.45"/>
<polygon fill="black" stroke="black" points="832.85,-364.1 839.18,-355.6 828.94,-358.3 832.85,-364.1"/>
</g>
<!-- Signer::borrow_address -->
<g id="node8" class="node">
<title>Signer::borrow_address</title>
<ellipse fill="none" stroke="black" cx="83" cy="-34" rx="66.89" ry="18"/>
<text text-anchor="middle" x="83" y="-30.3" font-family="Times,serif" font-size="14.00">borrow_address</text>
</g>
<!-- Signer::address_of&#45;&gt;Signer::borrow_address -->
<g id="edge7" class="edge">
<title>Signer::address_of&#45;&gt;Signer::borrow_address</title>
<path fill="none" stroke="black" d="M96.64,-88.05C94.64,-80.26 92.21,-70.82 89.96,-62.08"/>
<polygon fill="black" stroke="black" points="93.32,-61.09 87.44,-52.28 86.54,-62.83 93.32,-61.09"/>
</g>
<!-- Errors::make -->
<g id="node9" class="node">
<title>Errors::make</title>
<ellipse fill="none" stroke="black" cx="927" cy="-34" rx="30.59" ry="18"/>
<text text-anchor="middle" x="927" y="-30.3" font-family="Times,serif" font-size="14.00">make</text>
</g>
<!-- Errors::not_published&#45;&gt;Errors::make -->
<g id="edge8" class="edge">
<title>Errors::not_published&#45;&gt;Errors::make</title>
<path fill="none" stroke="black" d="M1090.16,-91.52C1079.77,-87.76 1068.45,-83.69 1058,-80 1025.83,-68.65 989.08,-56.06 962.71,-47.09"/>
<polygon fill="black" stroke="black" points="963.74,-43.74 953.14,-43.84 961.49,-50.37 963.74,-43.74"/>
</g>
<!-- Errors::invalid_state -->
<g id="node10" class="node">
<title>Errors::invalid_state</title>
<ellipse fill="none" stroke="black" cx="993" cy="-106" rx="55.79" ry="18"/>
<text text-anchor="middle" x="993" y="-102.3" font-family="Times,serif" font-size="14.00">invalid_state</text>
</g>
<!-- DiemTimestamp::assert_operating&#45;&gt;Errors::invalid_state -->
<g id="edge9" class="edge">
<title>DiemTimestamp::assert_operating&#45;&gt;Errors::invalid_state</title>
<path fill="none" stroke="black" d="M669.29,-324.44C675.03,-321.31 680.49,-317.53 685,-313 736.36,-261.36 690.92,-204.17 751,-163 767.24,-151.87 909.44,-161.58 928,-155 943,-149.68 957.47,-139.65 968.94,-130.13"/>
<polygon fill="black" stroke="black" points="971.47,-132.56 976.72,-123.36 966.88,-127.28 971.47,-132.56"/>
</g>
<!-- DiemTimestamp::is_operating -->
<g id="node11" class="node">
<title>DiemTimestamp::is_operating</title>
<ellipse fill="none" stroke="black" cx="622" cy="-264" rx="53.89" ry="18"/>
<text text-anchor="middle" x="622" y="-260.3" font-family="Times,serif" font-size="14.00">is_operating</text>
</g>
<!-- DiemTimestamp::assert_operating&#45;&gt;DiemTimestamp::is_operating -->
<g id="edge10" class="edge">
<title>DiemTimestamp::assert_operating&#45;&gt;DiemTimestamp::is_operating</title>
<path fill="none" stroke="black" d="M627.34,-320.7C626.53,-312.25 625.54,-301.87 624.62,-292.37"/>
<polygon fill="black" stroke="black" points="628.09,-291.8 623.65,-282.18 621.12,-292.46 628.09,-291.8"/>
</g>
<!-- Roles::assert_treasury_compliance&#45;&gt;Signer::address_of -->
<g id="edge11" class="edge">
<title>Roles::assert_treasury_compliance&#45;&gt;Signer::address_of</title>
<path fill="none" stroke="black" d="M293.72,-257.92C240.88,-253.49 183.12,-245.25 162,-230 145.27,-217.93 123.28,-165.95 110.79,-133.55"/>
<polygon fill="black" stroke="black" points="114.05,-132.29 107.23,-124.19 107.51,-134.78 114.05,-132.29"/>
</g>
<!-- Roles::assert_treasury_compliance&#45;&gt;Errors::not_published -->
<g id="edge12" class="edge">
<title>Roles::assert_treasury_compliance&#45;&gt;Errors::not_published</title>
<path fill="none" stroke="black" d="M465.88,-250.14C491.9,-245.73 521.73,-241.13 549,-238 575.55,-234.95 644.14,-239.81 669,-230 712.78,-212.73 706.88,-179.38 751,-163 782.99,-151.12 1025.58,-165.63 1058,-155 1073.89,-149.79 1089.37,-139.63 1101.63,-129.99"/>
<polygon fill="black" stroke="black" points="1104.07,-132.53 1109.57,-123.47 1099.62,-127.12 1104.07,-132.53"/>
</g>
<!-- Errors::requires_role -->
<g id="node12" class="node">
<title>Errors::requires_role</title>
<ellipse fill="none" stroke="black" cx="862" cy="-106" rx="57.39" ry="18"/>
<text text-anchor="middle" x="862" y="-102.3" font-family="Times,serif" font-size="14.00">requires_role</text>
</g>
<!-- Roles::assert_treasury_compliance&#45;&gt;Errors::requires_role -->
<g id="edge13" class="edge">
<title>Roles::assert_treasury_compliance&#45;&gt;Errors::requires_role</title>
<path fill="none" stroke="black" d="M467.08,-250.34C492.83,-246.03 522.17,-241.44 549,-238 568.04,-235.56 618.77,-240.24 635,-230 664.33,-211.5 645.42,-181.11 675,-163 697.98,-148.93 770.66,-164.17 796,-155 811.12,-149.53 825.8,-139.48 837.46,-129.98"/>
<polygon fill="black" stroke="black" points="840.03,-132.39 845.38,-123.24 835.5,-127.05 840.03,-132.39"/>
</g>
<!-- CoreAddresses::assert_treasury_compliance -->
<g id="node13" class="node">
<title>CoreAddresses::assert_treasury_compliance</title>
<ellipse fill="none" stroke="black" cx="283" cy="-181" rx="108.58" ry="18"/>
<text text-anchor="middle" x="283" y="-177.3" font-family="Times,serif" font-size="14.00">assert_treasury_compliance</text>
</g>
<!-- Roles::assert_treasury_compliance&#45;&gt;CoreAddresses::assert_treasury_compliance -->
<g id="edge14" class="edge">
<title>Roles::assert_treasury_compliance&#45;&gt;CoreAddresses::assert_treasury_compliance</title>
<path fill="none" stroke="black" d="M372.86,-246.41C356.06,-234.37 333.13,-217.94 314.64,-204.68"/>
<polygon fill="black" stroke="black" points="316.66,-201.82 306.5,-198.84 312.59,-207.51 316.66,-201.82"/>
</g>
<!-- Event::write_to_event_store -->
<g id="node14" class="node">
<title>Event::write_to_event_store</title>
<ellipse fill="none" stroke="black" cx="878" cy="-264" rx="85.29" ry="18"/>
<text text-anchor="middle" x="878" y="-260.3" font-family="Times,serif" font-size="14.00">write_to_event_store</text>
</g>
<!-- Event::emit_event&#45;&gt;Event::write_to_event_store -->
<g id="edge15" class="edge">
<title>Event::emit_event&#45;&gt;Event::write_to_event_store</title>
<path fill="none" stroke="black" d="M864.27,-320.7C866.37,-312.15 868.96,-301.65 871.33,-292.07"/>
<polygon fill="black" stroke="black" points="874.77,-292.72 873.76,-282.18 867.97,-291.05 874.77,-292.72"/>
</g>
<!-- Errors::invalid_state&#45;&gt;Errors::make -->
<g id="edge16" class="edge">
<title>Errors::invalid_state&#45;&gt;Errors::make</title>
<path fill="none" stroke="black" d="M977.36,-88.41C968.61,-79.13 957.59,-67.44 948.09,-57.36"/>
<polygon fill="black" stroke="black" points="950.59,-54.91 941.18,-50.04 945.49,-59.72 950.59,-54.91"/>
</g>
<!-- DiemTimestamp::is_operating&#45;&gt;CoreAddresses::DIEM_ROOT_ADDRESS -->
<g id="edge17" class="edge">
<title>DiemTimestamp::is_operating&#45;&gt;CoreAddresses::DIEM_ROOT_ADDRESS</title>
<path fill="none" stroke="black" d="M601.31,-247.19C585.67,-235.24 563.97,-218.66 546.37,-205.2"/>
<polygon fill="black" stroke="black" points="548.17,-202.18 538.1,-198.89 543.92,-207.74 548.17,-202.18"/>
</g>
<!-- Errors::requires_role&#45;&gt;Errors::make -->
<g id="edge18" class="edge">
<title>Errors::requires_role&#45;&gt;Errors::make</title>
<path fill="none" stroke="black" d="M877.4,-88.41C885.94,-79.22 896.66,-67.67 905.96,-57.66"/>
<polygon fill="black" stroke="black" points="908.8,-59.75 913.04,-50.04 903.67,-54.98 908.8,-59.75"/>
</g>
<!-- CoreAddresses::assert_treasury_compliance&#45;&gt;Signer::address_of -->
<g id="edge19" class="edge">
<title>CoreAddresses::assert_treasury_compliance&#45;&gt;Signer::address_of</title>
<path fill="none" stroke="black" d="M202.55,-168.83C188.67,-165.38 174.64,-160.88 162,-155 148.56,-148.75 135.41,-139.01 124.78,-129.94"/>
<polygon fill="black" stroke="black" points="126.99,-127.21 117.18,-123.2 122.34,-132.45 126.99,-127.21"/>
</g>
<!-- Errors::requires_address -->
<g id="node15" class="node">
<title>Errors::requires_address</title>
<ellipse fill="none" stroke="black" cx="717" cy="-106" rx="69.59" ry="18"/>
<text text-anchor="middle" x="717" y="-102.3" font-family="Times,serif" font-size="14.00">requires_address</text>
</g>
<!-- CoreAddresses::assert_treasury_compliance&#45;&gt;Errors::requires_address -->
<g id="edge20" class="edge">
<title>CoreAddresses::assert_treasury_compliance&#45;&gt;Errors::requires_address</title>
<path fill="none" stroke="black" d="M357.75,-167.89C371.76,-165.97 386.3,-164.22 400,-163 452.04,-158.35 584.81,-169.53 635,-155 653.81,-149.55 672.8,-138.84 687.77,-128.91"/>
<polygon fill="black" stroke="black" points="689.82,-131.75 696.09,-123.2 685.86,-125.98 689.82,-131.75"/>
</g>
<!-- CoreAddresses::TREASURY_COMPLIANCE_ADDRESS -->
<g id="node16" class="node">
<title>CoreAddresses::TREASURY_COMPLIANCE_ADDRESS</title>
<ellipse fill="none" stroke="black" cx="337" cy="-106" rx="163.27" ry="18"/>
<text text-anchor="middle" x="337" y="-102.3" font-family="Times,serif" font-size="14.00">TREASURY_COMPLIANCE_ADDRESS</text>
</g>
<!-- CoreAddresses::assert_treasury_compliance&#45;&gt;CoreAddresses::TREASURY_COMPLIANCE_ADDRESS -->
<g id="edge21" class="edge">
<title>CoreAddresses::assert_treasury_compliance&#45;&gt;CoreAddresses::TREASURY_COMPLIANCE_ADDRESS</title>
<path fill="none" stroke="black" d="M295.52,-163.07C302.29,-153.92 310.78,-142.45 318.31,-132.26"/>
<polygon fill="black" stroke="black" points="321.22,-134.21 324.36,-124.09 315.6,-130.05 321.22,-134.21"/>
</g>
<!-- Errors::requires_address&#45;&gt;Errors::make -->
<g id="edge22" class="edge">
<title>Errors::requires_address&#45;&gt;Errors::make</title>
<path fill="none" stroke="black" d="M757.99,-91.34C796.72,-78.43 854.24,-59.25 891.18,-46.94"/>
<polygon fill="black" stroke="black" points="892.64,-50.14 901.02,-43.66 890.43,-43.5 892.64,-50.14"/>
</g>
</g>
</svg>
