<?xml version="1.0" encoding="UTF-8" standalone="no"?>
<!DOCTYPE svg PUBLIC "-//W3C//DTD SVG 1.1//EN"
 "http://www.w3.org/Graphics/SVG/1.1/DTD/svg11.dtd">
<!-- Generated by graphviz version 2.46.1 (20210213.1702)
 -->
<!-- Title: G Pages: 1 -->
<svg width="1107pt" height="260pt"
 viewBox="0.00 0.00 1106.54 260.00" xmlns="http://www.w3.org/2000/svg" xmlns:xlink="http://www.w3.org/1999/xlink">
<g id="graph0" class="graph" transform="scale(1 1) rotate(0) translate(4 256)">
<title>G</title>
<polygon fill="white" stroke="transparent" points="-4,4 -4,-256 1102.54,-256 1102.54,4 -4,4"/>
<!-- AccountFreezing -->
<g id="node1" class="node">
<title>AccountFreezing</title>
<ellipse fill="none" stroke="black" cx="431.35" cy="-18" rx="71.49" ry="18"/>
<text text-anchor="middle" x="431.35" y="-14.3" font-family="Times,serif" font-size="14.00">AccountFreezing</text>
</g>
<!-- DiemAccount -->
<g id="node2" class="node">
<title>DiemAccount</title>
<ellipse fill="none" stroke="black" cx="431.35" cy="-90" rx="60.39" ry="18"/>
<text text-anchor="middle" x="431.35" y="-86.3" font-family="Times,serif" font-size="14.00">DiemAccount</text>
</g>
<!-- DiemAccount&#45;&gt;AccountFreezing -->
<g id="edge1" class="edge">
<title>DiemAccount&#45;&gt;AccountFreezing</title>
<path fill="none" stroke="black" d="M431.35,-71.7C431.35,-63.98 431.35,-54.71 431.35,-46.11"/>
<polygon fill="black" stroke="black" points="434.85,-46.1 431.35,-36.1 427.85,-46.1 434.85,-46.1"/>
</g>
<!-- Genesis -->
<g id="node3" class="node">
<title>Genesis</title>
<ellipse fill="none" stroke="black" cx="38.35" cy="-162" rx="38.19" ry="18"/>
<text text-anchor="middle" x="38.35" y="-158.3" font-family="Times,serif" font-size="14.00">Genesis</text>
</g>
<!-- Genesis&#45;&gt;AccountFreezing -->
<g id="edge2" class="edge">
<title>Genesis&#45;&gt;AccountFreezing</title>
<path fill="none" stroke="black" d="M67.89,-150.33C135.13,-126.03 300.16,-66.4 382.7,-36.58"/>
<polygon fill="black" stroke="black" points="384.12,-39.78 392.34,-33.09 381.75,-33.2 384.12,-39.78"/>
</g>
<!-- Genesis&#45;&gt;DiemAccount -->
<g id="edge8" class="edge">
<title>Genesis&#45;&gt;DiemAccount</title>
<path fill="none" stroke="black" d="M67.81,-150.45C75.11,-148.09 82.96,-145.77 90.35,-144 184.56,-121.44 295.8,-106.23 364.98,-98.09"/>
<polygon fill="black" stroke="black" points="365.76,-101.52 375.29,-96.89 364.95,-94.57 365.76,-101.52"/>
</g>
<!-- TreasuryComplianceScripts -->
<g id="node4" class="node">
<title>TreasuryComplianceScripts</title>
<ellipse fill="none" stroke="black" cx="989.35" cy="-162" rx="109.38" ry="18"/>
<text text-anchor="middle" x="989.35" y="-158.3" font-family="Times,serif" font-size="14.00">TreasuryComplianceScripts</text>
</g>
<!-- TreasuryComplianceScripts&#45;&gt;AccountFreezing -->
<g id="edge3" class="edge">
<title>TreasuryComplianceScripts&#45;&gt;AccountFreezing</title>
<path fill="none" stroke="black" d="M932.77,-146.6C826.24,-119.49 596.93,-61.14 489.33,-33.76"/>
<polygon fill="black" stroke="black" points="490.17,-30.36 479.61,-31.28 488.44,-37.14 490.17,-30.36"/>
</g>
<!-- TreasuryComplianceScripts&#45;&gt;DiemAccount -->
<g id="edge10" class="edge">
<title>TreasuryComplianceScripts&#45;&gt;DiemAccount</title>
<path fill="none" stroke="black" d="M910.99,-149.45C897.77,-147.58 884.17,-145.7 871.35,-144 738.68,-126.46 583.18,-108.29 497.11,-98.44"/>
<polygon fill="black" stroke="black" points="497.3,-94.94 486.97,-97.28 496.5,-101.89 497.3,-94.94"/>
</g>
<!-- SharedEd25519PublicKey -->
<g id="node5" class="node">
<title>SharedEd25519PublicKey</title>
<ellipse fill="none" stroke="black" cx="236.35" cy="-162" rx="103.98" ry="18"/>
<text text-anchor="middle" x="236.35" y="-158.3" font-family="Times,serif" font-size="14.00">SharedEd25519PublicKey</text>
</g>
<!-- SharedEd25519PublicKey&#45;&gt;DiemAccount -->
<g id="edge4" class="edge">
<title>SharedEd25519PublicKey&#45;&gt;DiemAccount</title>
<path fill="none" stroke="black" d="M279.62,-145.46C310.84,-134.26 352.93,-119.15 384.86,-107.69"/>
<polygon fill="black" stroke="black" points="386.19,-110.93 394.42,-104.26 383.83,-104.34 386.19,-110.93"/>
</g>
<!-- RecoveryAddress -->
<g id="node6" class="node">
<title>RecoveryAddress</title>
<ellipse fill="none" stroke="black" cx="431.35" cy="-162" rx="73.39" ry="18"/>
<text text-anchor="middle" x="431.35" y="-158.3" font-family="Times,serif" font-size="14.00">RecoveryAddress</text>
</g>
<!-- RecoveryAddress&#45;&gt;DiemAccount -->
<g id="edge5" class="edge">
<title>RecoveryAddress&#45;&gt;DiemAccount</title>
<path fill="none" stroke="black" d="M431.35,-143.7C431.35,-135.98 431.35,-126.71 431.35,-118.11"/>
<polygon fill="black" stroke="black" points="434.85,-118.1 431.35,-108.1 427.85,-118.1 434.85,-118.1"/>
</g>
<!-- AccountAdministrationScripts -->
<g id="node7" class="node">
<title>AccountAdministrationScripts</title>
<ellipse fill="none" stroke="black" cx="236.35" cy="-234" rx="118.08" ry="18"/>
<text text-anchor="middle" x="236.35" y="-230.3" font-family="Times,serif" font-size="14.00">AccountAdministrationScripts</text>
</g>
<!-- AccountAdministrationScripts&#45;&gt;DiemAccount -->
<g id="edge6" class="edge">
<title>AccountAdministrationScripts&#45;&gt;DiemAccount</title>
<path fill="none" stroke="black" d="M175.14,-218.55C155.15,-210.62 135.09,-198.47 123.35,-180 114.76,-166.5 113.04,-156.24 123.35,-144 153.14,-108.64 279.82,-96.87 361.14,-92.95"/>
<polygon fill="black" stroke="black" points="361.49,-96.44 371.32,-92.49 361.17,-89.45 361.49,-96.44"/>
</g>
<!-- AccountAdministrationScripts&#45;&gt;SharedEd25519PublicKey -->
<g id="edge11" class="edge">
<title>AccountAdministrationScripts&#45;&gt;SharedEd25519PublicKey</title>
<path fill="none" stroke="black" d="M236.35,-215.7C236.35,-207.98 236.35,-198.71 236.35,-190.11"/>
<polygon fill="black" stroke="black" points="239.85,-190.1 236.35,-180.1 232.85,-190.1 239.85,-190.1"/>
</g>
<!-- AccountAdministrationScripts&#45;&gt;RecoveryAddress -->
<g id="edge12" class="edge">
<title>AccountAdministrationScripts&#45;&gt;RecoveryAddress</title>
<path fill="none" stroke="black" d="M280.6,-217.12C310.71,-206.31 350.6,-191.99 381.78,-180.79"/>
<polygon fill="black" stroke="black" points="383.35,-183.95 391.58,-177.28 380.98,-177.36 383.35,-183.95"/>
</g>
<!-- AccountCreationScripts -->
<g id="node8" class="node">
<title>AccountCreationScripts</title>
<ellipse fill="none" stroke="black" cx="617.35" cy="-162" rx="94.78" ry="18"/>
<text text-anchor="middle" x="617.35" y="-158.3" font-family="Times,serif" font-size="14.00">AccountCreationScripts</text>
</g>
<!-- AccountCreationScripts&#45;&gt;DiemAccount -->
<g id="edge7" class="edge">
<title>AccountCreationScripts&#45;&gt;DiemAccount</title>
<path fill="none" stroke="black" d="M576.53,-145.64C547.1,-134.56 507.36,-119.61 476.9,-108.14"/>
<polygon fill="black" stroke="black" points="477.95,-104.8 467.36,-104.55 475.48,-111.35 477.95,-104.8"/>
</g>
<!-- PaymentScripts -->
<g id="node9" class="node">
<title>PaymentScripts</title>
<ellipse fill="none" stroke="black" cx="796.35" cy="-162" rx="66.09" ry="18"/>
<text text-anchor="middle" x="796.35" y="-158.3" font-family="Times,serif" font-size="14.00">PaymentScripts</text>
</g>
<!-- PaymentScripts&#45;&gt;DiemAccount -->
<g id="edge9" class="edge">
<title>PaymentScripts&#45;&gt;DiemAccount</title>
<path fill="none" stroke="black" d="M747.59,-149.64C738.87,-147.69 729.85,-145.74 721.35,-144 642.54,-127.88 551.2,-111.57 492.42,-101.39"/>
<polygon fill="black" stroke="black" points="493,-97.94 482.55,-99.69 491.81,-104.84 493,-97.94"/>
</g>
</g>
</svg>
