<?xml version="1.0" encoding="UTF-8" standalone="no"?>
<!DOCTYPE svg PUBLIC "-//W3C//DTD SVG 1.1//EN"
 "http://www.w3.org/Graphics/SVG/1.1/DTD/svg11.dtd">
<!-- Generated by graphviz version 2.46.1 (20210213.1702)
 -->
<!-- Title: G Pages: 1 -->
<svg width="833pt" height="279pt"
 viewBox="0.00 0.00 833.00 279.00" xmlns="http://www.w3.org/2000/svg" xmlns:xlink="http://www.w3.org/1999/xlink">
<g id="graph0" class="graph" transform="scale(1 1) rotate(0) translate(4 275)">
<title>G</title>
<polygon fill="white" stroke="transparent" points="-4,4 -4,-275 829,-275 829,4 -4,4"/>
<g id="clust1" class="cluster">
<title>cluster_Vector</title>
<polygon fill="none" stroke="black" points="8,-8 8,-227 569,-227 569,-8 8,-8"/>
<text text-anchor="middle" x="288.5" y="-211.8" font-family="Times,serif" font-size="14.00">Vector</text>
</g>
<g id="clust2" class="cluster">
<title>cluster_BCS</title>
<polygon fill="none" stroke="black" points="609,-152 609,-227 705,-227 705,-152 609,-152"/>
<text text-anchor="middle" x="657" y="-211.8" font-family="Times,serif" font-size="14.00">BCS</text>
</g>
<g id="clust3" class="cluster">
<title>cluster_Hash</title>
<polygon fill="none" stroke="black" points="713,-152 713,-227 817,-227 817,-152 713,-152"/>
<text text-anchor="middle" x="765" y="-211.8" font-family="Times,serif" font-size="14.00">Hash</text>
</g>
<!-- multi_ed25519_authentication_key -->
<g id="node1" class="node">
<title>multi_ed25519_authentication_key</title>
<ellipse fill="none" stroke="black" cx="513" cy="-253" rx="135.68" ry="18"/>
<text text-anchor="middle" x="513" y="-249.3" font-family="Times,serif" font-size="14.00">multi_ed25519_authentication_key</text>
</g>
<!-- Vector::append -->
<g id="node2" class="node">
<title>Vector::append</title>
<ellipse fill="none" stroke="black" cx="426" cy="-178" rx="36.29" ry="18"/>
<text text-anchor="middle" x="426" y="-174.3" font-family="Times,serif" font-size="14.00">append</text>
</g>
<!-- multi_ed25519_authentication_key&#45;&gt;Vector::append -->
<g id="edge1" class="edge">
<title>multi_ed25519_authentication_key&#45;&gt;Vector::append</title>
<path fill="none" stroke="black" d="M492.82,-235.07C480.52,-224.74 464.68,-211.45 451.51,-200.4"/>
<polygon fill="black" stroke="black" points="453.62,-197.61 443.71,-193.86 449.12,-202.97 453.62,-197.61"/>
</g>
<!-- Vector::borrow -->
<g id="node3" class="node">
<title>Vector::borrow</title>
<ellipse fill="none" stroke="black" cx="335" cy="-178" rx="36.29" ry="18"/>
<text text-anchor="middle" x="335" y="-174.3" font-family="Times,serif" font-size="14.00">borrow</text>
</g>
<!-- multi_ed25519_authentication_key&#45;&gt;Vector::borrow -->
<g id="edge2" class="edge">
<title>multi_ed25519_authentication_key&#45;&gt;Vector::borrow</title>
<path fill="none" stroke="black" d="M414.74,-240.49C402.99,-237.07 391.46,-232.67 381,-227 370.28,-221.19 360.57,-212 352.87,-203.2"/>
<polygon fill="black" stroke="black" points="355.45,-200.84 346.39,-195.35 350.05,-205.29 355.45,-200.84"/>
</g>
<!-- Vector::empty -->
<g id="node4" class="node">
<title>Vector::empty</title>
<ellipse fill="none" stroke="black" cx="247" cy="-178" rx="33.29" ry="18"/>
<text text-anchor="middle" x="247" y="-174.3" font-family="Times,serif" font-size="14.00">empty</text>
</g>
<!-- multi_ed25519_authentication_key&#45;&gt;Vector::empty -->
<g id="edge3" class="edge">
<title>multi_ed25519_authentication_key&#45;&gt;Vector::empty</title>
<path fill="none" stroke="black" d="M388.36,-245.74C347.42,-242.04 307.83,-236.19 290,-227 279.34,-221.51 270.07,-212.2 262.89,-203.23"/>
<polygon fill="black" stroke="black" points="265.7,-201.14 256.91,-195.21 260.08,-205.32 265.7,-201.14"/>
</g>
<!-- Vector::length -->
<g id="node5" class="node">
<title>Vector::length</title>
<ellipse fill="none" stroke="black" cx="403" cy="-34" rx="32.49" ry="18"/>
<text text-anchor="middle" x="403" y="-30.3" font-family="Times,serif" font-size="14.00">length</text>
</g>
<!-- multi_ed25519_authentication_key&#45;&gt;Vector::length -->
<g id="edge4" class="edge">
<title>multi_ed25519_authentication_key&#45;&gt;Vector::length</title>
<path fill="none" stroke="black" d="M528.52,-234.89C555.28,-203.24 604.09,-134.58 570,-88 541.72,-49.35 485.07,-38.2 445.63,-35.33"/>
<polygon fill="black" stroke="black" points="445.69,-31.83 435.5,-34.75 445.29,-38.82 445.69,-31.83"/>
</g>
<!-- Vector::push_back -->
<g id="node6" class="node">
<title>Vector::push_back</title>
<ellipse fill="none" stroke="black" cx="513" cy="-106" rx="48.19" ry="18"/>
<text text-anchor="middle" x="513" y="-102.3" font-family="Times,serif" font-size="14.00">push_back</text>
</g>
<!-- multi_ed25519_authentication_key&#45;&gt;Vector::push_back -->
<g id="edge5" class="edge">
<title>multi_ed25519_authentication_key&#45;&gt;Vector::push_back</title>
<path fill="none" stroke="black" d="M513,-234.8C513,-209.94 513,-163.74 513,-134.23"/>
<polygon fill="black" stroke="black" points="516.5,-134.18 513,-124.18 509.5,-134.18 516.5,-134.18"/>
</g>
<!-- BCS::to_bytes -->
<g id="node7" class="node">
<title>BCS::to_bytes</title>
<ellipse fill="none" stroke="black" cx="657" cy="-178" rx="40.09" ry="18"/>
<text text-anchor="middle" x="657" y="-174.3" font-family="Times,serif" font-size="14.00">to_bytes</text>
</g>
<!-- multi_ed25519_authentication_key&#45;&gt;BCS::to_bytes -->
<g id="edge6" class="edge">
<title>multi_ed25519_authentication_key&#45;&gt;BCS::to_bytes</title>
<path fill="none" stroke="black" d="M579.74,-237.19C587.8,-234.33 595.74,-230.96 603,-227 614.88,-220.53 626.33,-211 635.6,-202.13"/>
<polygon fill="black" stroke="black" points="638.23,-204.45 642.85,-194.92 633.29,-199.49 638.23,-204.45"/>
</g>
<!-- Hash::sha3_256 -->
<g id="node8" class="node">
<title>Hash::sha3_256</title>
<ellipse fill="none" stroke="black" cx="765" cy="-178" rx="44.39" ry="18"/>
<text text-anchor="middle" x="765" y="-174.3" font-family="Times,serif" font-size="14.00">sha3_256</text>
</g>
<!-- multi_ed25519_authentication_key&#45;&gt;Hash::sha3_256 -->
<g id="edge7" class="edge">
<title>multi_ed25519_authentication_key&#45;&gt;Hash::sha3_256</title>
<path fill="none" stroke="black" d="M626.48,-243.07C660.82,-239.16 693.52,-233.87 709,-227 721.93,-221.26 734.13,-211.54 743.82,-202.34"/>
<polygon fill="black" stroke="black" points="746.41,-204.69 751.02,-195.15 741.47,-199.74 746.41,-204.69"/>
</g>
<!-- Vector::append&#45;&gt;Vector::push_back -->
<g id="edge11" class="edge">
<title>Vector::append&#45;&gt;Vector::push_back</title>
<path fill="none" stroke="black" d="M444.45,-162.15C456.43,-152.52 472.25,-139.79 485.68,-128.98"/>
<polygon fill="black" stroke="black" points="488.07,-131.55 493.67,-122.55 483.69,-126.09 488.07,-131.55"/>
</g>
<!-- Vector::destroy_empty -->
<g id="node9" class="node">
<title>Vector::destroy_empty</title>
<ellipse fill="none" stroke="black" cx="80" cy="-106" rx="63.89" ry="18"/>
<text text-anchor="middle" x="80" y="-102.3" font-family="Times,serif" font-size="14.00">destroy_empty</text>
</g>
<!-- Vector::append&#45;&gt;Vector::destroy_empty -->
<g id="edge8" class="edge">
<title>Vector::append&#45;&gt;Vector::destroy_empty</title>
<path fill="none" stroke="black" d="M404.76,-163.29C397.21,-159.02 388.48,-154.72 380,-152 283.2,-120.96 253.09,-141.78 153,-124 147.55,-123.03 141.91,-121.92 136.27,-120.73"/>
<polygon fill="black" stroke="black" points="136.7,-117.24 126.19,-118.54 135.21,-124.08 136.7,-117.24"/>
</g>
<!-- Vector::is_empty -->
<g id="node10" class="node">
<title>Vector::is_empty</title>
<ellipse fill="none" stroke="black" cx="403" cy="-106" rx="43.59" ry="18"/>
<text text-anchor="middle" x="403" y="-102.3" font-family="Times,serif" font-size="14.00">is_empty</text>
</g>
<!-- Vector::append&#45;&gt;Vector::is_empty -->
<g id="edge9" class="edge">
<title>Vector::append&#45;&gt;Vector::is_empty</title>
<path fill="none" stroke="black" d="M420.43,-160.05C417.84,-152.18 414.7,-142.62 411.8,-133.79"/>
<polygon fill="black" stroke="black" points="415.12,-132.68 408.68,-124.28 408.47,-134.87 415.12,-132.68"/>
</g>
<!-- Vector::pop_back -->
<g id="node11" class="node">
<title>Vector::pop_back</title>
<ellipse fill="none" stroke="black" cx="297" cy="-106" rx="44.69" ry="18"/>
<text text-anchor="middle" x="297" y="-102.3" font-family="Times,serif" font-size="14.00">pop_back</text>
</g>
<!-- Vector::append&#45;&gt;Vector::pop_back -->
<g id="edge10" class="edge">
<title>Vector::append&#45;&gt;Vector::pop_back</title>
<path fill="none" stroke="black" d="M402.13,-164.02C395.01,-160.15 387.19,-155.9 380,-152 364.13,-143.39 346.56,-133.86 331.68,-125.79"/>
<polygon fill="black" stroke="black" points="333.26,-122.67 322.8,-120.98 329.92,-128.82 333.26,-122.67"/>
</g>
<!-- Vector::reverse -->
<g id="node12" class="node">
<title>Vector::reverse</title>
<ellipse fill="none" stroke="black" cx="198" cy="-106" rx="36.29" ry="18"/>
<text text-anchor="middle" x="198" y="-102.3" font-family="Times,serif" font-size="14.00">reverse</text>
</g>
<!-- Vector::append&#45;&gt;Vector::reverse -->
<g id="edge12" class="edge">
<title>Vector::append&#45;&gt;Vector::reverse</title>
<path fill="none" stroke="black" d="M404.16,-163.41C396.72,-159.25 388.2,-154.99 380,-152 321.61,-130.71 302.7,-141.26 243,-124 240.38,-123.24 237.7,-122.4 235.02,-121.51"/>
<polygon fill="black" stroke="black" points="235.97,-118.14 225.37,-118.13 233.65,-124.74 235.97,-118.14"/>
</g>
<!-- Vector::is_empty&#45;&gt;Vector::length -->
<g id="edge13" class="edge">
<title>Vector::is_empty&#45;&gt;Vector::length</title>
<path fill="none" stroke="black" d="M403,-87.7C403,-79.98 403,-70.71 403,-62.11"/>
<polygon fill="black" stroke="black" points="406.5,-62.1 403,-52.1 399.5,-62.1 406.5,-62.1"/>
</g>
<!-- Vector::reverse&#45;&gt;Vector::length -->
<g id="edge14" class="edge">
<title>Vector::reverse&#45;&gt;Vector::length</title>
<path fill="none" stroke="black" d="M226.02,-94.21C231.63,-92.11 237.49,-89.95 243,-88 284.87,-73.16 333.34,-57.29 365.86,-46.82"/>
<polygon fill="black" stroke="black" points="366.97,-50.14 375.42,-43.75 364.83,-43.48 366.97,-50.14"/>
</g>
<!-- Vector::swap -->
<g id="node13" class="node">
<title>Vector::swap</title>
<ellipse fill="none" stroke="black" cx="198" cy="-34" rx="28.7" ry="18"/>
<text text-anchor="middle" x="198" y="-30.3" font-family="Times,serif" font-size="14.00">swap</text>
</g>
<!-- Vector::reverse&#45;&gt;Vector::swap -->
<g id="edge15" class="edge">
<title>Vector::reverse&#45;&gt;Vector::swap</title>
<path fill="none" stroke="black" d="M198,-87.7C198,-79.98 198,-70.71 198,-62.11"/>
<polygon fill="black" stroke="black" points="201.5,-62.1 198,-52.1 194.5,-62.1 201.5,-62.1"/>
</g>
</g>
</svg>
