<?xml version="1.0" encoding="UTF-8" standalone="no"?>
<!DOCTYPE svg PUBLIC "-//W3C//DTD SVG 1.1//EN"
 "http://www.w3.org/Graphics/SVG/1.1/DTD/svg11.dtd">
<!-- Generated by graphviz version 2.46.1 (20210213.1702)
 -->
<!-- Title: G Pages: 1 -->
<svg width="248pt" height="135pt"
 viewBox="0.00 0.00 248.00 135.00" xmlns="http://www.w3.org/2000/svg" xmlns:xlink="http://www.w3.org/1999/xlink">
<g id="graph0" class="graph" transform="scale(1 1) rotate(0) translate(4 131)">
<title>G</title>
<polygon fill="white" stroke="transparent" points="-4,4 -4,-131 244,-131 244,4 -4,4"/>
<g id="clust1" class="cluster">
<title>cluster_Vector</title>
<polygon fill="none" stroke="black" points="8,-8 8,-83 120,-83 120,-8 8,-8"/>
<text text-anchor="middle" x="64" y="-67.8" font-family="Times,serif" font-size="14.00">Vector</text>
</g>
<g id="clust2" class="cluster">
<title>cluster_Hash</title>
<polygon fill="none" stroke="black" points="128,-8 128,-83 232,-83 232,-8 128,-8"/>
<text text-anchor="middle" x="180" y="-67.8" font-family="Times,serif" font-size="14.00">Hash</text>
</g>
<!-- ed25519_authentication_key -->
<g id="node1" class="node">
<title>ed25519_authentication_key</title>
<ellipse fill="none" stroke="black" cx="122" cy="-109" rx="112.38" ry="18"/>
<text text-anchor="middle" x="122" y="-105.3" font-family="Times,serif" font-size="14.00">ed25519_authentication_key</text>
</g>
<!-- Vector::push_back -->
<g id="node2" class="node">
<title>Vector::push_back</title>
<ellipse fill="none" stroke="black" cx="64" cy="-34" rx="48.19" ry="18"/>
<text text-anchor="middle" x="64" y="-30.3" font-family="Times,serif" font-size="14.00">push_back</text>
</g>
<!-- ed25519_authentication_key&#45;&gt;Vector::push_back -->
<g id="edge1" class="edge">
<title>ed25519_authentication_key&#45;&gt;Vector::push_back</title>
<path fill="none" stroke="black" d="M108.55,-91.07C101.05,-81.63 91.58,-69.71 83.3,-59.29"/>
<polygon fill="black" stroke="black" points="85.94,-56.99 76.98,-51.34 80.46,-61.34 85.94,-56.99"/>
</g>
<!-- Hash::sha3_256 -->
<g id="node3" class="node">
<title>Hash::sha3_256</title>
<ellipse fill="none" stroke="black" cx="180" cy="-34" rx="44.39" ry="18"/>
<text text-anchor="middle" x="180" y="-30.3" font-family="Times,serif" font-size="14.00">sha3_256</text>
</g>
<!-- ed25519_authentication_key&#45;&gt;Hash::sha3_256 -->
<g id="edge2" class="edge">
<title>ed25519_authentication_key&#45;&gt;Hash::sha3_256</title>
<path fill="none" stroke="black" d="M135.45,-91.07C142.95,-81.63 152.42,-69.71 160.7,-59.29"/>
<polygon fill="black" stroke="black" points="163.54,-61.34 167.02,-51.34 158.06,-56.99 163.54,-61.34"/>
</g>
</g>
</svg>
