<?xml version="1.0" encoding="UTF-8" standalone="no"?>
<!DOCTYPE svg PUBLIC "-//W3C//DTD SVG 1.1//EN"
 "http://www.w3.org/Graphics/SVG/1.1/DTD/svg11.dtd">
<!-- Generated by graphviz version 2.46.1 (20210213.1702)
 -->
<!-- Title: G Pages: 1 -->
<svg width="274pt" height="207pt"
 viewBox="0.00 0.00 274.00 207.00" xmlns="http://www.w3.org/2000/svg" xmlns:xlink="http://www.w3.org/1999/xlink">
<g id="graph0" class="graph" transform="scale(1 1) rotate(0) translate(4 203)">
<title>G</title>
<polygon fill="white" stroke="transparent" points="-4,4 -4,-203 270,-203 270,4 -4,4"/>
<g id="clust1" class="cluster">
<title>cluster_Errors</title>
<polygon fill="none" stroke="black" points="8,-8 8,-155 170,-155 170,-8 8,-8"/>
<text text-anchor="middle" x="89" y="-139.8" font-family="Times,serif" font-size="14.00">Errors</text>
</g>
<g id="clust2" class="cluster">
<title>cluster_Vector</title>
<polygon fill="none" stroke="black" points="178,-80 178,-155 258,-155 258,-80 178,-80"/>
<text text-anchor="middle" x="218" y="-139.8" font-family="Times,serif" font-size="14.00">Vector</text>
</g>
<!-- create_multi_ed25519 -->
<g id="node1" class="node">
<title>create_multi_ed25519</title>
<ellipse fill="none" stroke="black" cx="153" cy="-181" rx="89.88" ry="18"/>
<text text-anchor="middle" x="153" y="-177.3" font-family="Times,serif" font-size="14.00">create_multi_ed25519</text>
</g>
<!-- Errors::invalid_argument -->
<g id="node2" class="node">
<title>Errors::invalid_argument</title>
<ellipse fill="none" stroke="black" cx="89" cy="-106" rx="73.39" ry="18"/>
<text text-anchor="middle" x="89" y="-102.3" font-family="Times,serif" font-size="14.00">invalid_argument</text>
</g>
<!-- create_multi_ed25519&#45;&gt;Errors::invalid_argument -->
<g id="edge1" class="edge">
<title>create_multi_ed25519&#45;&gt;Errors::invalid_argument</title>
<path fill="none" stroke="black" d="M138.16,-163.07C129.92,-153.67 119.52,-141.82 110.42,-131.43"/>
<polygon fill="black" stroke="black" points="112.99,-129.05 103.76,-123.84 107.72,-133.67 112.99,-129.05"/>
</g>
<!-- Vector::length -->
<g id="node3" class="node">
<title>Vector::length</title>
<ellipse fill="none" stroke="black" cx="218" cy="-106" rx="32.49" ry="18"/>
<text text-anchor="middle" x="218" y="-102.3" font-family="Times,serif" font-size="14.00">length</text>
</g>
<!-- create_multi_ed25519&#45;&gt;Vector::length -->
<g id="edge2" class="edge">
<title>create_multi_ed25519&#45;&gt;Vector::length</title>
<path fill="none" stroke="black" d="M168.08,-163.07C176.8,-153.27 187.91,-140.8 197.43,-130.1"/>
<polygon fill="black" stroke="black" points="200.3,-132.14 204.33,-122.35 195.07,-127.49 200.3,-132.14"/>
</g>
<!-- Errors::make -->
<g id="node4" class="node">
<title>Errors::make</title>
<ellipse fill="none" stroke="black" cx="89" cy="-34" rx="30.59" ry="18"/>
<text text-anchor="middle" x="89" y="-30.3" font-family="Times,serif" font-size="14.00">make</text>
</g>
<!-- Errors::invalid_argument&#45;&gt;Errors::make -->
<g id="edge3" class="edge">
<title>Errors::invalid_argument&#45;&gt;Errors::make</title>
<path fill="none" stroke="black" d="M89,-87.7C89,-79.98 89,-70.71 89,-62.11"/>
<polygon fill="black" stroke="black" points="92.5,-62.1 89,-52.1 85.5,-62.1 92.5,-62.1"/>
</g>
</g>
</svg>
