<?xml version="1.0" encoding="UTF-8" standalone="no"?>
<!DOCTYPE svg PUBLIC "-//W3C//DTD SVG 1.1//EN"
 "http://www.w3.org/Graphics/SVG/1.1/DTD/svg11.dtd">
<!-- Generated by graphviz version 2.46.1 (20210213.1702)
 -->
<!-- Title: G Pages: 1 -->
<svg width="306pt" height="116pt"
 viewBox="0.00 0.00 306.09 116.00" xmlns="http://www.w3.org/2000/svg" xmlns:xlink="http://www.w3.org/1999/xlink">
<g id="graph0" class="graph" transform="scale(1 1) rotate(0) translate(4 112)">
<title>G</title>
<polygon fill="white" stroke="transparent" points="-4,4 -4,-112 302.09,-112 302.09,4 -4,4"/>
<!-- Authenticator -->
<g id="node1" class="node">
<title>Authenticator</title>
<ellipse fill="none" stroke="black" cx="155.5" cy="-90" rx="59.29" ry="18"/>
<text text-anchor="middle" x="155.5" y="-86.3" font-family="Times,serif" font-size="14.00">Authenticator</text>
</g>
<!-- Errors -->
<g id="node2" class="node">
<title>Errors</title>
<ellipse fill="none" stroke="black" cx="32.5" cy="-18" rx="32.49" ry="18"/>
<text text-anchor="middle" x="32.5" y="-14.3" font-family="Times,serif" font-size="14.00">Errors</text>
</g>
<!-- Authenticator&#45;&gt;Errors -->
<g id="edge1" class="edge">
<title>Authenticator&#45;&gt;Errors</title>
<path fill="none" stroke="black" d="M128.81,-73.81C109.57,-62.86 83.55,-48.06 63.41,-36.59"/>
<polygon fill="black" stroke="black" points="65.04,-33.49 54.61,-31.59 61.57,-39.57 65.04,-33.49"/>
</g>
<!-- Vector -->
<g id="node3" class="node">
<title>Vector</title>
<ellipse fill="none" stroke="black" cx="116.5" cy="-18" rx="33.6" ry="18"/>
<text text-anchor="middle" x="116.5" y="-14.3" font-family="Times,serif" font-size="14.00">Vector</text>
</g>
<!-- Authenticator&#45;&gt;Vector -->
<g id="edge2" class="edge">
<title>Authenticator&#45;&gt;Vector</title>
<path fill="none" stroke="black" d="M146.06,-72.05C141.46,-63.8 135.83,-53.7 130.73,-44.54"/>
<polygon fill="black" stroke="black" points="133.78,-42.82 125.85,-35.79 127.66,-46.23 133.78,-42.82"/>
</g>
<!-- BCS -->
<g id="node4" class="node">
<title>BCS</title>
<ellipse fill="none" stroke="black" cx="195.5" cy="-18" rx="27.1" ry="18"/>
<text text-anchor="middle" x="195.5" y="-14.3" font-family="Times,serif" font-size="14.00">BCS</text>
</g>
<!-- Authenticator&#45;&gt;BCS -->
<g id="edge3" class="edge">
<title>Authenticator&#45;&gt;BCS</title>
<path fill="none" stroke="black" d="M165.18,-72.05C169.97,-63.68 175.84,-53.4 181.13,-44.13"/>
<polygon fill="black" stroke="black" points="184.26,-45.73 186.18,-35.31 178.18,-42.25 184.26,-45.73"/>
</g>
<!-- Hash -->
<g id="node5" class="node">
<title>Hash</title>
<ellipse fill="none" stroke="black" cx="269.5" cy="-18" rx="28.7" ry="18"/>
<text text-anchor="middle" x="269.5" y="-14.3" font-family="Times,serif" font-size="14.00">Hash</text>
</g>
<!-- Authenticator&#45;&gt;Hash -->
<g id="edge4" class="edge">
<title>Authenticator&#45;&gt;Hash</title>
<path fill="none" stroke="black" d="M180.51,-73.64C198.43,-62.64 222.57,-47.82 241.19,-36.38"/>
<polygon fill="black" stroke="black" points="243.14,-39.29 249.83,-31.08 239.48,-33.33 243.14,-39.29"/>
</g>
</g>
</svg>
