<?xml version="1.0" encoding="UTF-8" standalone="no"?>
<!DOCTYPE svg PUBLIC "-//W3C//DTD SVG 1.1//EN"
 "http://www.w3.org/Graphics/SVG/1.1/DTD/svg11.dtd">
<!-- Generated by graphviz version 2.46.1 (20210213.1702)
 -->
<!-- Title: G Pages: 1 -->
<svg width="225pt" height="260pt"
 viewBox="0.00 0.00 225.22 260.00" xmlns="http://www.w3.org/2000/svg" xmlns:xlink="http://www.w3.org/1999/xlink">
<g id="graph0" class="graph" transform="scale(1 1) rotate(0) translate(4 256)">
<title>G</title>
<polygon fill="white" stroke="transparent" points="-4,4 -4,-256 221.22,-256 221.22,4 -4,4"/>
<!-- ChainId -->
<g id="node1" class="node">
<title>ChainId</title>
<ellipse fill="none" stroke="black" cx="74.8" cy="-234" rx="38.99" ry="18"/>
<text text-anchor="middle" x="74.8" y="-230.3" font-family="Times,serif" font-size="14.00">ChainId</text>
</g>
<!-- Signer -->
<g id="node2" class="node">
<title>Signer</title>
<ellipse fill="none" stroke="black" cx="33.8" cy="-18" rx="33.6" ry="18"/>
<text text-anchor="middle" x="33.8" y="-14.3" font-family="Times,serif" font-size="14.00">Signer</text>
</g>
<!-- ChainId&#45;&gt;Signer -->
<g id="edge1" class="edge">
<title>ChainId&#45;&gt;Signer</title>
<path fill="none" stroke="black" d="M61.89,-216.87C44.75,-194.19 15.62,-150.83 6.8,-108 3.57,-92.33 3.06,-87.56 6.8,-72 9.07,-62.52 13.35,-52.82 17.83,-44.35"/>
<polygon fill="black" stroke="black" points="21.02,-45.82 22.89,-35.39 14.92,-42.38 21.02,-45.82"/>
</g>
<!-- Errors -->
<g id="node3" class="node">
<title>Errors</title>
<ellipse fill="none" stroke="black" cx="171.8" cy="-18" rx="32.49" ry="18"/>
<text text-anchor="middle" x="171.8" y="-14.3" font-family="Times,serif" font-size="14.00">Errors</text>
</g>
<!-- ChainId&#45;&gt;Errors -->
<g id="edge2" class="edge">
<title>ChainId&#45;&gt;Errors</title>
<path fill="none" stroke="black" d="M112.41,-228.93C143,-223.41 184.33,-210.44 204.8,-180 232.88,-138.23 206.59,-77.57 187.52,-43.89"/>
<polygon fill="black" stroke="black" points="190.47,-42 182.39,-35.15 184.43,-45.54 190.47,-42"/>
</g>
<!-- CoreAddresses -->
<g id="node4" class="node">
<title>CoreAddresses</title>
<ellipse fill="none" stroke="black" cx="79.8" cy="-90" rx="63.89" ry="18"/>
<text text-anchor="middle" x="79.8" y="-86.3" font-family="Times,serif" font-size="14.00">CoreAddresses</text>
</g>
<!-- ChainId&#45;&gt;CoreAddresses -->
<g id="edge3" class="edge">
<title>ChainId&#45;&gt;CoreAddresses</title>
<path fill="none" stroke="black" d="M62.69,-216.78C55.98,-206.75 48.3,-193.29 44.8,-180 40.72,-164.53 40.19,-159.32 44.8,-144 47.76,-134.12 53.23,-124.39 58.98,-116.01"/>
<polygon fill="black" stroke="black" points="61.89,-117.96 64.98,-107.83 56.25,-113.83 61.89,-117.96"/>
</g>
<!-- DiemTimestamp -->
<g id="node5" class="node">
<title>DiemTimestamp</title>
<ellipse fill="none" stroke="black" cx="124.8" cy="-162" rx="71.49" ry="18"/>
<text text-anchor="middle" x="124.8" y="-158.3" font-family="Times,serif" font-size="14.00">DiemTimestamp</text>
</g>
<!-- ChainId&#45;&gt;DiemTimestamp -->
<g id="edge4" class="edge">
<title>ChainId&#45;&gt;DiemTimestamp</title>
<path fill="none" stroke="black" d="M86.39,-216.76C92.4,-208.35 99.88,-197.89 106.63,-188.44"/>
<polygon fill="black" stroke="black" points="109.6,-190.3 112.57,-180.12 103.91,-186.23 109.6,-190.3"/>
</g>
<!-- CoreAddresses&#45;&gt;Signer -->
<g id="edge5" class="edge">
<title>CoreAddresses&#45;&gt;Signer</title>
<path fill="none" stroke="black" d="M68.66,-72.05C63.1,-63.59 56.26,-53.19 50.12,-43.84"/>
<polygon fill="black" stroke="black" points="52.93,-41.74 44.51,-35.31 47.08,-45.59 52.93,-41.74"/>
</g>
<!-- CoreAddresses&#45;&gt;Errors -->
<g id="edge6" class="edge">
<title>CoreAddresses&#45;&gt;Errors</title>
<path fill="none" stroke="black" d="M101.13,-72.76C114.23,-62.8 131.12,-49.95 145.1,-39.31"/>
<polygon fill="black" stroke="black" points="147.53,-41.86 153.37,-33.02 143.3,-36.29 147.53,-41.86"/>
</g>
<!-- DiemTimestamp&#45;&gt;Errors -->
<g id="edge7" class="edge">
<title>DiemTimestamp&#45;&gt;Errors</title>
<path fill="none" stroke="black" d="M135.39,-143.89C141.25,-133.77 148.25,-120.52 152.8,-108 160.11,-87.86 165,-64.08 167.99,-46.17"/>
<polygon fill="black" stroke="black" points="171.48,-46.54 169.58,-36.12 164.56,-45.45 171.48,-46.54"/>
</g>
<!-- DiemTimestamp&#45;&gt;CoreAddresses -->
<g id="edge8" class="edge">
<title>DiemTimestamp&#45;&gt;CoreAddresses</title>
<path fill="none" stroke="black" d="M113.9,-144.05C108.54,-135.71 101.97,-125.49 96.03,-116.25"/>
<polygon fill="black" stroke="black" points="98.94,-114.31 90.59,-107.79 93.05,-118.09 98.94,-114.31"/>
</g>
</g>
</svg>
