<?xml version="1.0" encoding="UTF-8" standalone="no"?>
<!DOCTYPE svg PUBLIC "-//W3C//DTD SVG 1.1//EN"
 "http://www.w3.org/Graphics/SVG/1.1/DTD/svg11.dtd">
<!-- Generated by graphviz version 2.46.1 (20210213.1702)
 -->
<!-- Title: G Pages: 1 -->
<svg width="873pt" height="365pt"
 viewBox="0.00 0.00 873.00 365.00" xmlns="http://www.w3.org/2000/svg" xmlns:xlink="http://www.w3.org/1999/xlink">
<g id="graph0" class="graph" transform="scale(1 1) rotate(0) translate(4 361)">
<title>G</title>
<polygon fill="white" stroke="transparent" points="-4,4 -4,-361 869,-361 869,4 -4,4"/>
<g id="clust1" class="cluster">
<title>cluster_Signer</title>
<polygon fill="none" stroke="black" points="8,-8 8,-155 158,-155 158,-8 8,-8"/>
<text text-anchor="middle" x="83" y="-139.8" font-family="Times,serif" font-size="14.00">Signer</text>
</g>
<g id="clust2" class="cluster">
<title>cluster_Errors</title>
<polygon fill="none" stroke="black" points="404,-8 404,-155 857,-155 857,-8 404,-8"/>
<text text-anchor="middle" x="630.5" y="-139.8" font-family="Times,serif" font-size="14.00">Errors</text>
</g>
<g id="clust3" class="cluster">
<title>cluster_CoreAddresses</title>
<polygon fill="none" stroke="black" points="166,-80 166,-238 396,-238 396,-80 166,-80"/>
<text text-anchor="middle" x="281" y="-222.8" font-family="Times,serif" font-size="14.00">CoreAddresses</text>
</g>
<g id="clust4" class="cluster">
<title>cluster_DiemTimestamp</title>
<polygon fill="none" stroke="black" points="404,-163 404,-313 542,-313 542,-163 404,-163"/>
<text text-anchor="middle" x="473" y="-297.8" font-family="Times,serif" font-size="14.00">DiemTimestamp</text>
</g>
<!-- initialize -->
<g id="node1" class="node">
<title>initialize</title>
<ellipse fill="none" stroke="black" cx="434" cy="-339" rx="41.69" ry="18"/>
<text text-anchor="middle" x="434" y="-335.3" font-family="Times,serif" font-size="14.00">initialize</text>
</g>
<!-- Signer::address_of -->
<g id="node2" class="node">
<title>Signer::address_of</title>
<ellipse fill="none" stroke="black" cx="101" cy="-106" rx="48.99" ry="18"/>
<text text-anchor="middle" x="101" y="-102.3" font-family="Times,serif" font-size="14.00">address_of</text>
</g>
<!-- initialize&#45;&gt;Signer::address_of -->
<g id="edge1" class="edge">
<title>initialize&#45;&gt;Signer::address_of</title>
<path fill="none" stroke="black" d="M394.01,-333.51C335.72,-324.96 227.26,-301.15 162,-238 132.29,-209.26 115.56,-163.25 107.4,-134.1"/>
<polygon fill="black" stroke="black" points="110.72,-132.96 104.78,-124.19 103.95,-134.76 110.72,-132.96"/>
</g>
<!-- Errors::already_published -->
<g id="node3" class="node">
<title>Errors::already_published</title>
<ellipse fill="none" stroke="black" cx="774" cy="-106" rx="75.29" ry="18"/>
<text text-anchor="middle" x="774" y="-102.3" font-family="Times,serif" font-size="14.00">already_published</text>
</g>
<!-- initialize&#45;&gt;Errors::already_published -->
<g id="edge2" class="edge">
<title>initialize&#45;&gt;Errors::already_published</title>
<path fill="none" stroke="black" d="M474.06,-334.13C496.22,-330.77 523.7,-324.53 546,-313 636.15,-266.39 718.22,-175.29 754.44,-131.57"/>
<polygon fill="black" stroke="black" points="757.23,-133.68 760.86,-123.73 751.82,-129.25 757.23,-133.68"/>
</g>
<!-- CoreAddresses::assert_diem_root -->
<g id="node4" class="node">
<title>CoreAddresses::assert_diem_root</title>
<ellipse fill="none" stroke="black" cx="299" cy="-189" rx="71.49" ry="18"/>
<text text-anchor="middle" x="299" y="-185.3" font-family="Times,serif" font-size="14.00">assert_diem_root</text>
</g>
<!-- initialize&#45;&gt;CoreAddresses::assert_diem_root -->
<g id="edge3" class="edge">
<title>initialize&#45;&gt;CoreAddresses::assert_diem_root</title>
<path fill="none" stroke="black" d="M412.49,-323.44C408.19,-320.19 403.83,-316.63 400,-313 367.57,-282.26 335.81,-241.27 316.81,-215.25"/>
<polygon fill="black" stroke="black" points="319.57,-213.09 310.88,-207.04 313.9,-217.19 319.57,-213.09"/>
</g>
<!-- DiemTimestamp::assert_genesis -->
<g id="node5" class="node">
<title>DiemTimestamp::assert_genesis</title>
<ellipse fill="none" stroke="black" cx="473" cy="-264" rx="61.19" ry="18"/>
<text text-anchor="middle" x="473" y="-260.3" font-family="Times,serif" font-size="14.00">assert_genesis</text>
</g>
<!-- initialize&#45;&gt;DiemTimestamp::assert_genesis -->
<g id="edge4" class="edge">
<title>initialize&#45;&gt;DiemTimestamp::assert_genesis</title>
<path fill="none" stroke="black" d="M443.05,-321.07C447.82,-312.13 453.78,-300.97 459.13,-290.97"/>
<polygon fill="black" stroke="black" points="462.38,-292.31 464,-281.84 456.2,-289.01 462.38,-292.31"/>
</g>
<!-- Signer::borrow_address -->
<g id="node6" class="node">
<title>Signer::borrow_address</title>
<ellipse fill="none" stroke="black" cx="83" cy="-34" rx="66.89" ry="18"/>
<text text-anchor="middle" x="83" y="-30.3" font-family="Times,serif" font-size="14.00">borrow_address</text>
</g>
<!-- Signer::address_of&#45;&gt;Signer::borrow_address -->
<g id="edge5" class="edge">
<title>Signer::address_of&#45;&gt;Signer::borrow_address</title>
<path fill="none" stroke="black" d="M96.64,-88.05C94.64,-80.26 92.21,-70.82 89.96,-62.08"/>
<polygon fill="black" stroke="black" points="93.32,-61.09 87.44,-52.28 86.54,-62.83 93.32,-61.09"/>
</g>
<!-- Errors::make -->
<g id="node7" class="node">
<title>Errors::make</title>
<ellipse fill="none" stroke="black" cx="625" cy="-34" rx="30.59" ry="18"/>
<text text-anchor="middle" x="625" y="-30.3" font-family="Times,serif" font-size="14.00">make</text>
</g>
<!-- Errors::already_published&#45;&gt;Errors::make -->
<g id="edge6" class="edge">
<title>Errors::already_published&#45;&gt;Errors::make</title>
<path fill="none" stroke="black" d="M741.3,-89.64C716.5,-77.98 682.55,-62.04 657.73,-50.38"/>
<polygon fill="black" stroke="black" points="658.92,-47.07 648.38,-45.98 655.94,-53.4 658.92,-47.07"/>
</g>
<!-- CoreAddresses::assert_diem_root&#45;&gt;Signer::address_of -->
<g id="edge7" class="edge">
<title>CoreAddresses::assert_diem_root&#45;&gt;Signer::address_of</title>
<path fill="none" stroke="black" d="M238.75,-179.29C214.13,-174.27 185.88,-166.58 162,-155 148.67,-148.53 135.53,-138.77 124.89,-129.73"/>
<polygon fill="black" stroke="black" points="127.09,-127 117.27,-123.02 122.46,-132.26 127.09,-127"/>
</g>
<!-- Errors::requires_address -->
<g id="node8" class="node">
<title>Errors::requires_address</title>
<ellipse fill="none" stroke="black" cx="482" cy="-106" rx="69.59" ry="18"/>
<text text-anchor="middle" x="482" y="-102.3" font-family="Times,serif" font-size="14.00">requires_address</text>
</g>
<!-- CoreAddresses::assert_diem_root&#45;&gt;Errors::requires_address -->
<g id="edge8" class="edge">
<title>CoreAddresses::assert_diem_root&#45;&gt;Errors::requires_address</title>
<path fill="none" stroke="black" d="M345.29,-175.16C362.75,-169.73 382.59,-162.83 400,-155 416.82,-147.43 434.59,-137.32 449.27,-128.33"/>
<polygon fill="black" stroke="black" points="451.33,-131.17 457.97,-122.91 447.63,-125.23 451.33,-131.17"/>
</g>
<!-- CoreAddresses::DIEM_ROOT_ADDRESS -->
<g id="node9" class="node">
<title>CoreAddresses::DIEM_ROOT_ADDRESS</title>
<ellipse fill="none" stroke="black" cx="281" cy="-106" rx="106.68" ry="18"/>
<text text-anchor="middle" x="281" y="-102.3" font-family="Times,serif" font-size="14.00">DIEM_ROOT_ADDRESS</text>
</g>
<!-- CoreAddresses::assert_diem_root&#45;&gt;CoreAddresses::DIEM_ROOT_ADDRESS -->
<g id="edge9" class="edge">
<title>CoreAddresses::assert_diem_root&#45;&gt;CoreAddresses::DIEM_ROOT_ADDRESS</title>
<path fill="none" stroke="black" d="M295.18,-170.82C292.82,-160.19 289.73,-146.31 287.05,-134.2"/>
<polygon fill="black" stroke="black" points="290.4,-133.16 284.81,-124.15 283.56,-134.67 290.4,-133.16"/>
</g>
<!-- Errors::invalid_state -->
<g id="node10" class="node">
<title>Errors::invalid_state</title>
<ellipse fill="none" stroke="black" cx="625" cy="-106" rx="55.79" ry="18"/>
<text text-anchor="middle" x="625" y="-102.3" font-family="Times,serif" font-size="14.00">invalid_state</text>
</g>
<!-- DiemTimestamp::assert_genesis&#45;&gt;Errors::invalid_state -->
<g id="edge10" class="edge">
<title>DiemTimestamp::assert_genesis&#45;&gt;Errors::invalid_state</title>
<path fill="none" stroke="black" d="M505.86,-248.74C511.52,-245.6 517.13,-242 522,-238 559.31,-207.33 591.76,-160.95 609.82,-132.4"/>
<polygon fill="black" stroke="black" points="612.86,-134.14 615.17,-123.8 606.91,-130.44 612.86,-134.14"/>
</g>
<!-- DiemTimestamp::is_genesis -->
<g id="node11" class="node">
<title>DiemTimestamp::is_genesis</title>
<ellipse fill="none" stroke="black" cx="466" cy="-189" rx="46.59" ry="18"/>
<text text-anchor="middle" x="466" y="-185.3" font-family="Times,serif" font-size="14.00">is_genesis</text>
</g>
<!-- DiemTimestamp::assert_genesis&#45;&gt;DiemTimestamp::is_genesis -->
<g id="edge11" class="edge">
<title>DiemTimestamp::assert_genesis&#45;&gt;DiemTimestamp::is_genesis</title>
<path fill="none" stroke="black" d="M471.34,-245.7C470.53,-237.25 469.54,-226.87 468.62,-217.37"/>
<polygon fill="black" stroke="black" points="472.09,-216.8 467.65,-207.18 465.12,-217.46 472.09,-216.8"/>
</g>
<!-- Errors::requires_address&#45;&gt;Errors::make -->
<g id="edge12" class="edge">
<title>Errors::requires_address&#45;&gt;Errors::make</title>
<path fill="none" stroke="black" d="M513.03,-89.81C536.67,-78.24 569.11,-62.36 592.99,-50.67"/>
<polygon fill="black" stroke="black" points="594.56,-53.8 602.01,-46.26 591.49,-47.51 594.56,-53.8"/>
</g>
<!-- Errors::invalid_state&#45;&gt;Errors::make -->
<g id="edge13" class="edge">
<title>Errors::invalid_state&#45;&gt;Errors::make</title>
<path fill="none" stroke="black" d="M625,-87.7C625,-79.98 625,-70.71 625,-62.11"/>
<polygon fill="black" stroke="black" points="628.5,-62.1 625,-52.1 621.5,-62.1 628.5,-62.1"/>
</g>
<!-- DiemTimestamp::is_genesis&#45;&gt;CoreAddresses::DIEM_ROOT_ADDRESS -->
<g id="edge14" class="edge">
<title>DiemTimestamp::is_genesis&#45;&gt;CoreAddresses::DIEM_ROOT_ADDRESS</title>
<path fill="none" stroke="black" d="M436.28,-174.99C406.77,-162.07 361.14,-142.09 326.97,-127.13"/>
<polygon fill="black" stroke="black" points="328.22,-123.85 317.65,-123.05 325.41,-130.27 328.22,-123.85"/>
</g>
</g>
</svg>
