<?xml version="1.0" encoding="UTF-8" standalone="no"?>
<!DOCTYPE svg PUBLIC "-//W3C//DTD SVG 1.1//EN"
 "http://www.w3.org/Graphics/SVG/1.1/DTD/svg11.dtd">
<!-- Generated by graphviz version 2.46.1 (20210213.1702)
 -->
<!-- Title: G Pages: 1 -->
<svg width="418pt" height="293pt"
 viewBox="0.00 0.00 418.00 293.00" xmlns="http://www.w3.org/2000/svg" xmlns:xlink="http://www.w3.org/1999/xlink">
<g id="graph0" class="graph" transform="scale(1 1) rotate(0) translate(4 289)">
<title>G</title>
<polygon fill="white" stroke="transparent" points="-4,4 -4,-289 414,-289 414,4 -4,4"/>
<g id="clust1" class="cluster">
<title>cluster_CoreAddresses</title>
<polygon fill="none" stroke="black" points="172,-8 172,-83 402,-83 402,-8 172,-8"/>
<text text-anchor="middle" x="287" y="-67.8" font-family="Times,serif" font-size="14.00">CoreAddresses</text>
</g>
<g id="clust2" class="cluster">
<title>cluster_DiemTimestamp</title>
<polygon fill="none" stroke="black" points="144,-91 144,-241 296,-241 296,-91 144,-91"/>
<text text-anchor="middle" x="220" y="-225.8" font-family="Times,serif" font-size="14.00">DiemTimestamp</text>
</g>
<g id="clust3" class="cluster">
<title>cluster_Errors</title>
<polygon fill="none" stroke="black" points="8,-8 8,-166 136,-166 136,-8 8,-8"/>
<text text-anchor="middle" x="72" y="-150.8" font-family="Times,serif" font-size="14.00">Errors</text>
</g>
<!-- get -->
<g id="node1" class="node">
<title>get</title>
<ellipse fill="none" stroke="black" cx="268" cy="-267" rx="27" ry="18"/>
<text text-anchor="middle" x="268" y="-263.3" font-family="Times,serif" font-size="14.00">get</text>
</g>
<!-- CoreAddresses::DIEM_ROOT_ADDRESS -->
<g id="node2" class="node">
<title>CoreAddresses::DIEM_ROOT_ADDRESS</title>
<ellipse fill="none" stroke="black" cx="287" cy="-34" rx="106.68" ry="18"/>
<text text-anchor="middle" x="287" y="-30.3" font-family="Times,serif" font-size="14.00">DIEM_ROOT_ADDRESS</text>
</g>
<!-- get&#45;&gt;CoreAddresses::DIEM_ROOT_ADDRESS -->
<g id="edge1" class="edge">
<title>get&#45;&gt;CoreAddresses::DIEM_ROOT_ADDRESS</title>
<path fill="none" stroke="black" d="M288.08,-254.78C292.86,-251.06 297.34,-246.45 300,-241 328.67,-182.21 309.85,-102.53 296.68,-61.64"/>
<polygon fill="black" stroke="black" points="299.99,-60.48 293.49,-52.11 293.35,-62.7 299.99,-60.48"/>
</g>
<!-- DiemTimestamp::assert_operating -->
<g id="node3" class="node">
<title>DiemTimestamp::assert_operating</title>
<ellipse fill="none" stroke="black" cx="220" cy="-192" rx="68.49" ry="18"/>
<text text-anchor="middle" x="220" y="-188.3" font-family="Times,serif" font-size="14.00">assert_operating</text>
</g>
<!-- get&#45;&gt;DiemTimestamp::assert_operating -->
<g id="edge2" class="edge">
<title>get&#45;&gt;DiemTimestamp::assert_operating</title>
<path fill="none" stroke="black" d="M257.58,-250.16C251.47,-240.86 243.59,-228.88 236.63,-218.3"/>
<polygon fill="black" stroke="black" points="239.48,-216.26 231.06,-209.83 233.63,-220.1 239.48,-216.26"/>
</g>
<!-- Errors::invalid_state -->
<g id="node4" class="node">
<title>Errors::invalid_state</title>
<ellipse fill="none" stroke="black" cx="72" cy="-117" rx="55.79" ry="18"/>
<text text-anchor="middle" x="72" y="-113.3" font-family="Times,serif" font-size="14.00">invalid_state</text>
</g>
<!-- DiemTimestamp::assert_operating&#45;&gt;Errors::invalid_state -->
<g id="edge3" class="edge">
<title>DiemTimestamp::assert_operating&#45;&gt;Errors::invalid_state</title>
<path fill="none" stroke="black" d="M172.51,-178.84C161.58,-175.31 150.18,-171.03 140,-166 125.82,-159 111.34,-149.21 99.4,-140.3"/>
<polygon fill="black" stroke="black" points="101.27,-137.32 91.2,-134.02 97.01,-142.88 101.27,-137.32"/>
</g>
<!-- DiemTimestamp::is_operating -->
<g id="node5" class="node">
<title>DiemTimestamp::is_operating</title>
<ellipse fill="none" stroke="black" cx="227" cy="-117" rx="53.89" ry="18"/>
<text text-anchor="middle" x="227" y="-113.3" font-family="Times,serif" font-size="14.00">is_operating</text>
</g>
<!-- DiemTimestamp::assert_operating&#45;&gt;DiemTimestamp::is_operating -->
<g id="edge4" class="edge">
<title>DiemTimestamp::assert_operating&#45;&gt;DiemTimestamp::is_operating</title>
<path fill="none" stroke="black" d="M221.66,-173.7C222.47,-165.25 223.46,-154.87 224.38,-145.37"/>
<polygon fill="black" stroke="black" points="227.88,-145.46 225.35,-135.18 220.91,-144.8 227.88,-145.46"/>
</g>
<!-- Errors::make -->
<g id="node6" class="node">
<title>Errors::make</title>
<ellipse fill="none" stroke="black" cx="72" cy="-34" rx="30.59" ry="18"/>
<text text-anchor="middle" x="72" y="-30.3" font-family="Times,serif" font-size="14.00">make</text>
</g>
<!-- Errors::invalid_state&#45;&gt;Errors::make -->
<g id="edge5" class="edge">
<title>Errors::invalid_state&#45;&gt;Errors::make</title>
<path fill="none" stroke="black" d="M72,-98.82C72,-88.19 72,-74.31 72,-62.2"/>
<polygon fill="black" stroke="black" points="75.5,-62.15 72,-52.15 68.5,-62.15 75.5,-62.15"/>
</g>
<!-- DiemTimestamp::is_operating&#45;&gt;CoreAddresses::DIEM_ROOT_ADDRESS -->
<g id="edge6" class="edge">
<title>DiemTimestamp::is_operating&#45;&gt;CoreAddresses::DIEM_ROOT_ADDRESS</title>
<path fill="none" stroke="black" d="M239.43,-99.22C247.74,-88 258.83,-73.03 268.21,-60.36"/>
<polygon fill="black" stroke="black" points="271.24,-62.16 274.38,-52.04 265.61,-57.99 271.24,-62.16"/>
</g>
</g>
</svg>
