<?xml version="1.0" encoding="UTF-8" standalone="no"?>
<!DOCTYPE svg PUBLIC "-//W3C//DTD SVG 1.1//EN"
 "http://www.w3.org/Graphics/SVG/1.1/DTD/svg11.dtd">
<!-- Generated by graphviz version 2.46.1 (20210213.1702)
 -->
<!-- Title: G Pages: 1 -->
<svg width="1107pt" height="260pt"
 viewBox="0.00 0.00 1106.54 260.00" xmlns="http://www.w3.org/2000/svg" xmlns:xlink="http://www.w3.org/1999/xlink">
<g id="graph0" class="graph" transform="scale(1 1) rotate(0) translate(4 256)">
<title>G</title>
<polygon fill="white" stroke="transparent" points="-4,4 -4,-256 1102.54,-256 1102.54,4 -4,4"/>
<!-- ChainId -->
<g id="node1" class="node">
<title>ChainId</title>
<ellipse fill="none" stroke="black" cx="261.35" cy="-18" rx="38.99" ry="18"/>
<text text-anchor="middle" x="261.35" y="-14.3" font-family="Times,serif" font-size="14.00">ChainId</text>
</g>
<!-- DiemAccount -->
<g id="node2" class="node">
<title>DiemAccount</title>
<ellipse fill="none" stroke="black" cx="333.35" cy="-90" rx="60.39" ry="18"/>
<text text-anchor="middle" x="333.35" y="-86.3" font-family="Times,serif" font-size="14.00">DiemAccount</text>
</g>
<!-- DiemAccount&#45;&gt;ChainId -->
<g id="edge1" class="edge">
<title>DiemAccount&#45;&gt;ChainId</title>
<path fill="none" stroke="black" d="M316.28,-72.41C306.78,-63.17 294.82,-51.54 284.48,-41.49"/>
<polygon fill="black" stroke="black" points="286.91,-38.97 277.3,-34.51 282.03,-43.99 286.91,-38.97"/>
</g>
<!-- Genesis -->
<g id="node3" class="node">
<title>Genesis</title>
<ellipse fill="none" stroke="black" cx="38.35" cy="-162" rx="38.19" ry="18"/>
<text text-anchor="middle" x="38.35" y="-158.3" font-family="Times,serif" font-size="14.00">Genesis</text>
</g>
<!-- Genesis&#45;&gt;ChainId -->
<g id="edge2" class="edge">
<title>Genesis&#45;&gt;ChainId</title>
<path fill="none" stroke="black" d="M60.13,-147.13C100.1,-121.68 185.22,-67.48 230.89,-38.4"/>
<polygon fill="black" stroke="black" points="232.91,-41.25 239.47,-32.93 229.15,-35.35 232.91,-41.25"/>
</g>
<!-- Genesis&#45;&gt;DiemAccount -->
<g id="edge7" class="edge">
<title>Genesis&#45;&gt;DiemAccount</title>
<path fill="none" stroke="black" d="M68.16,-150.68C75.38,-148.34 83.11,-145.97 90.35,-144 152.33,-127.16 224.32,-111.99 273.77,-102.24"/>
<polygon fill="black" stroke="black" points="274.52,-105.66 283.66,-100.31 273.17,-98.79 274.52,-105.66"/>
</g>
<!-- SharedEd25519PublicKey -->
<g id="node4" class="node">
<title>SharedEd25519PublicKey</title>
<ellipse fill="none" stroke="black" cx="236.35" cy="-162" rx="103.98" ry="18"/>
<text text-anchor="middle" x="236.35" y="-158.3" font-family="Times,serif" font-size="14.00">SharedEd25519PublicKey</text>
</g>
<!-- SharedEd25519PublicKey&#45;&gt;DiemAccount -->
<g id="edge3" class="edge">
<title>SharedEd25519PublicKey&#45;&gt;DiemAccount</title>
<path fill="none" stroke="black" d="M259.33,-144.41C272.32,-135.04 288.73,-123.2 302.79,-113.05"/>
<polygon fill="black" stroke="black" points="305.13,-115.68 311.19,-106.99 301.03,-110 305.13,-115.68"/>
</g>
<!-- RecoveryAddress -->
<g id="node5" class="node">
<title>RecoveryAddress</title>
<ellipse fill="none" stroke="black" cx="431.35" cy="-162" rx="73.39" ry="18"/>
<text text-anchor="middle" x="431.35" y="-158.3" font-family="Times,serif" font-size="14.00">RecoveryAddress</text>
</g>
<!-- RecoveryAddress&#45;&gt;DiemAccount -->
<g id="edge4" class="edge">
<title>RecoveryAddress&#45;&gt;DiemAccount</title>
<path fill="none" stroke="black" d="M408.62,-144.76C395.29,-135.24 378.28,-123.09 363.8,-112.75"/>
<polygon fill="black" stroke="black" points="365.79,-109.87 355.61,-106.91 361.72,-115.57 365.79,-109.87"/>
</g>
<!-- AccountAdministrationScripts -->
<g id="node6" class="node">
<title>AccountAdministrationScripts</title>
<ellipse fill="none" stroke="black" cx="236.35" cy="-234" rx="118.08" ry="18"/>
<text text-anchor="middle" x="236.35" y="-230.3" font-family="Times,serif" font-size="14.00">AccountAdministrationScripts</text>
</g>
<!-- AccountAdministrationScripts&#45;&gt;DiemAccount -->
<g id="edge5" class="edge">
<title>AccountAdministrationScripts&#45;&gt;DiemAccount</title>
<path fill="none" stroke="black" d="M175.14,-218.55C155.15,-210.62 135.09,-198.47 123.35,-180 114.76,-166.5 113.51,-156.62 123.35,-144 141.1,-121.21 213.22,-106.68 268.04,-98.71"/>
<polygon fill="black" stroke="black" points="268.64,-102.16 278.05,-97.3 267.66,-95.23 268.64,-102.16"/>
</g>
<!-- AccountAdministrationScripts&#45;&gt;SharedEd25519PublicKey -->
<g id="edge10" class="edge">
<title>AccountAdministrationScripts&#45;&gt;SharedEd25519PublicKey</title>
<path fill="none" stroke="black" d="M236.35,-215.7C236.35,-207.98 236.35,-198.71 236.35,-190.11"/>
<polygon fill="black" stroke="black" points="239.85,-190.1 236.35,-180.1 232.85,-190.1 239.85,-190.1"/>
</g>
<!-- AccountAdministrationScripts&#45;&gt;RecoveryAddress -->
<g id="edge11" class="edge">
<title>AccountAdministrationScripts&#45;&gt;RecoveryAddress</title>
<path fill="none" stroke="black" d="M280.6,-217.12C310.71,-206.31 350.6,-191.99 381.78,-180.79"/>
<polygon fill="black" stroke="black" points="383.35,-183.95 391.58,-177.28 380.98,-177.36 383.35,-183.95"/>
</g>
<!-- AccountCreationScripts -->
<g id="node7" class="node">
<title>AccountCreationScripts</title>
<ellipse fill="none" stroke="black" cx="617.35" cy="-162" rx="94.78" ry="18"/>
<text text-anchor="middle" x="617.35" y="-158.3" font-family="Times,serif" font-size="14.00">AccountCreationScripts</text>
</g>
<!-- AccountCreationScripts&#45;&gt;DiemAccount -->
<g id="edge6" class="edge">
<title>AccountCreationScripts&#45;&gt;DiemAccount</title>
<path fill="none" stroke="black" d="M561.91,-147.34C511.78,-134.98 438.35,-116.88 388.35,-104.56"/>
<polygon fill="black" stroke="black" points="388.91,-101.09 378.36,-102.1 387.23,-107.89 388.91,-101.09"/>
</g>
<!-- PaymentScripts -->
<g id="node8" class="node">
<title>PaymentScripts</title>
<ellipse fill="none" stroke="black" cx="796.35" cy="-162" rx="66.09" ry="18"/>
<text text-anchor="middle" x="796.35" y="-158.3" font-family="Times,serif" font-size="14.00">PaymentScripts</text>
</g>
<!-- PaymentScripts&#45;&gt;DiemAccount -->
<g id="edge8" class="edge">
<title>PaymentScripts&#45;&gt;DiemAccount</title>
<path fill="none" stroke="black" d="M748.46,-149.49C739.48,-147.52 730.15,-145.6 721.35,-144 608.83,-123.6 476.67,-107.13 399.26,-98.23"/>
<polygon fill="black" stroke="black" points="399.5,-94.73 389.17,-97.08 398.7,-101.69 399.5,-94.73"/>
</g>
<!-- TreasuryComplianceScripts -->
<g id="node9" class="node">
<title>TreasuryComplianceScripts</title>
<ellipse fill="none" stroke="black" cx="989.35" cy="-162" rx="109.38" ry="18"/>
<text text-anchor="middle" x="989.35" y="-158.3" font-family="Times,serif" font-size="14.00">TreasuryComplianceScripts</text>
</g>
<!-- TreasuryComplianceScripts&#45;&gt;DiemAccount -->
<g id="edge9" class="edge">
<title>TreasuryComplianceScripts&#45;&gt;DiemAccount</title>
<path fill="none" stroke="black" d="M911.66,-149.3C898.23,-147.42 884.39,-145.58 871.35,-144 702.45,-123.52 502.99,-105.47 400.93,-96.68"/>
<polygon fill="black" stroke="black" points="401.03,-93.17 390.77,-95.8 400.43,-100.15 401.03,-93.17"/>
</g>
</g>
</svg>
