<?xml version="1.0" encoding="UTF-8" standalone="no"?>
<!DOCTYPE svg PUBLIC "-//W3C//DTD SVG 1.1//EN"
 "http://www.w3.org/Graphics/SVG/1.1/DTD/svg11.dtd">
<!-- Generated by graphviz version 2.46.1 (20210213.1702)
 -->
<!-- Title: G Pages: 1 -->
<svg width="158pt" height="116pt"
 viewBox="0.00 0.00 158.29 116.00" xmlns="http://www.w3.org/2000/svg" xmlns:xlink="http://www.w3.org/1999/xlink">
<g id="graph0" class="graph" transform="scale(1 1) rotate(0) translate(4 112)">
<title>G</title>
<polygon fill="white" stroke="transparent" points="-4,4 -4,-112 154.29,-112 154.29,4 -4,4"/>
<!-- CoreAddresses -->
<g id="node1" class="node">
<title>CoreAddresses</title>
<ellipse fill="none" stroke="black" cx="75.8" cy="-90" rx="63.89" ry="18"/>
<text text-anchor="middle" x="75.8" y="-86.3" font-family="Times,serif" font-size="14.00">CoreAddresses</text>
</g>
<!-- Signer -->
<g id="node2" class="node">
<title>Signer</title>
<ellipse fill="none" stroke="black" cx="33.8" cy="-18" rx="33.6" ry="18"/>
<text text-anchor="middle" x="33.8" y="-14.3" font-family="Times,serif" font-size="14.00">Signer</text>
</g>
<!-- CoreAddresses&#45;&gt;Signer -->
<g id="edge1" class="edge">
<title>CoreAddresses&#45;&gt;Signer</title>
<path fill="none" stroke="black" d="M65.63,-72.05C60.6,-63.68 54.44,-53.4 48.88,-44.13"/>
<polygon fill="black" stroke="black" points="51.73,-42.08 43.58,-35.31 45.72,-45.68 51.73,-42.08"/>
</g>
<!-- Errors -->
<g id="node3" class="node">
<title>Errors</title>
<ellipse fill="none" stroke="black" cx="117.8" cy="-18" rx="32.49" ry="18"/>
<text text-anchor="middle" x="117.8" y="-14.3" font-family="Times,serif" font-size="14.00">Errors</text>
</g>
<!-- CoreAddresses&#45;&gt;Errors -->
<g id="edge2" class="edge">
<title>CoreAddresses&#45;&gt;Errors</title>
<path fill="none" stroke="black" d="M85.96,-72.05C90.99,-63.68 97.15,-53.4 102.72,-44.13"/>
<polygon fill="black" stroke="black" points="105.87,-45.68 108.01,-35.31 99.87,-42.08 105.87,-45.68"/>
</g>
</g>
</svg>
