<?xml version="1.0" encoding="UTF-8" standalone="no"?>
<!DOCTYPE svg PUBLIC "-//W3C//DTD SVG 1.1//EN"
 "http://www.w3.org/Graphics/SVG/1.1/DTD/svg11.dtd">
<!-- Generated by graphviz version 2.46.1 (20210213.1702)
 -->
<!-- Title: G Pages: 1 -->
<svg width="666pt" height="207pt"
 viewBox="0.00 0.00 666.14 207.00" xmlns="http://www.w3.org/2000/svg" xmlns:xlink="http://www.w3.org/1999/xlink">
<g id="graph0" class="graph" transform="scale(1 1) rotate(0) translate(4 203)">
<title>G</title>
<polygon fill="white" stroke="transparent" points="-4,4 -4,-203 662.14,-203 662.14,4 -4,4"/>
<g id="clust1" class="cluster">
<title>cluster_Signer</title>
<polygon fill="none" stroke="black" points="8,-8 8,-155 158,-155 158,-8 8,-8"/>
<text text-anchor="middle" x="83" y="-139.8" font-family="Times,serif" font-size="14.00">Signer</text>
</g>
<g id="clust2" class="cluster">
<title>cluster_Errors</title>
<polygon fill="none" stroke="black" points="166,-8 166,-155 322,-155 322,-8 166,-8"/>
<text text-anchor="middle" x="244" y="-139.8" font-family="Times,serif" font-size="14.00">Errors</text>
</g>
<!-- assert_treasury_compliance -->
<g id="node1" class="node">
<title>assert_treasury_compliance</title>
<ellipse fill="none" stroke="black" cx="244" cy="-181" rx="108.58" ry="18"/>
<text text-anchor="middle" x="244" y="-177.3" font-family="Times,serif" font-size="14.00">assert_treasury_compliance</text>
</g>
<!-- Signer::address_of -->
<g id="node2" class="node">
<title>Signer::address_of</title>
<ellipse fill="none" stroke="black" cx="92" cy="-106" rx="48.99" ry="18"/>
<text text-anchor="middle" x="92" y="-102.3" font-family="Times,serif" font-size="14.00">address_of</text>
</g>
<!-- assert_treasury_compliance&#45;&gt;Signer::address_of -->
<g id="edge1" class="edge">
<title>assert_treasury_compliance&#45;&gt;Signer::address_of</title>
<path fill="none" stroke="black" d="M187.99,-165.43C179.12,-162.42 170.18,-158.94 162,-155 147.11,-147.84 131.84,-137.74 119.37,-128.65"/>
<polygon fill="black" stroke="black" points="121.33,-125.75 111.23,-122.57 117.15,-131.36 121.33,-125.75"/>
</g>
<!-- Errors::requires_address -->
<g id="node3" class="node">
<title>Errors::requires_address</title>
<ellipse fill="none" stroke="black" cx="244" cy="-106" rx="69.59" ry="18"/>
<text text-anchor="middle" x="244" y="-102.3" font-family="Times,serif" font-size="14.00">requires_address</text>
</g>
<!-- assert_treasury_compliance&#45;&gt;Errors::requires_address -->
<g id="edge2" class="edge">
<title>assert_treasury_compliance&#45;&gt;Errors::requires_address</title>
<path fill="none" stroke="black" d="M244,-162.7C244,-154.25 244,-143.87 244,-134.37"/>
<polygon fill="black" stroke="black" points="247.5,-134.18 244,-124.18 240.5,-134.18 247.5,-134.18"/>
</g>
<!-- TREASURY_COMPLIANCE_ADDRESS -->
<g id="node4" class="node">
<title>TREASURY_COMPLIANCE_ADDRESS</title>
<ellipse fill="none" stroke="black" cx="495" cy="-106" rx="163.27" ry="18"/>
<text text-anchor="middle" x="495" y="-102.3" font-family="Times,serif" font-size="14.00">TREASURY_COMPLIANCE_ADDRESS</text>
</g>
<!-- assert_treasury_compliance&#45;&gt;TREASURY_COMPLIANCE_ADDRESS -->
<g id="edge3" class="edge">
<title>assert_treasury_compliance&#45;&gt;TREASURY_COMPLIANCE_ADDRESS</title>
<path fill="none" stroke="black" d="M295.4,-165.05C334.3,-153.74 388.01,-138.12 429.91,-125.93"/>
<polygon fill="black" stroke="black" points="431.13,-129.22 439.75,-123.07 429.17,-122.5 431.13,-129.22"/>
</g>
<!-- Signer::borrow_address -->
<g id="node5" class="node">
<title>Signer::borrow_address</title>
<ellipse fill="none" stroke="black" cx="83" cy="-34" rx="66.89" ry="18"/>
<text text-anchor="middle" x="83" y="-30.3" font-family="Times,serif" font-size="14.00">borrow_address</text>
</g>
<!-- Signer::address_of&#45;&gt;Signer::borrow_address -->
<g id="edge4" class="edge">
<title>Signer::address_of&#45;&gt;Signer::borrow_address</title>
<path fill="none" stroke="black" d="M89.78,-87.7C88.78,-79.98 87.59,-70.71 86.49,-62.11"/>
<polygon fill="black" stroke="black" points="89.95,-61.58 85.2,-52.1 83,-62.47 89.95,-61.58"/>
</g>
<!-- Errors::make -->
<g id="node6" class="node">
<title>Errors::make</title>
<ellipse fill="none" stroke="black" cx="244" cy="-34" rx="30.59" ry="18"/>
<text text-anchor="middle" x="244" y="-30.3" font-family="Times,serif" font-size="14.00">make</text>
</g>
<!-- Errors::requires_address&#45;&gt;Errors::make -->
<g id="edge5" class="edge">
<title>Errors::requires_address&#45;&gt;Errors::make</title>
<path fill="none" stroke="black" d="M244,-87.7C244,-79.98 244,-70.71 244,-62.11"/>
<polygon fill="black" stroke="black" points="247.5,-62.1 244,-52.1 240.5,-62.1 247.5,-62.1"/>
</g>
</g>
</svg>
