<?xml version="1.0" encoding="UTF-8" standalone="no"?>
<!DOCTYPE svg PUBLIC "-//W3C//DTD SVG 1.1//EN"
 "http://www.w3.org/Graphics/SVG/1.1/DTD/svg11.dtd">
<!-- Generated by graphviz version 2.46.1 (20210213.1702)
 -->
<!-- Title: G Pages: 1 -->
<svg width="1668pt" height="520pt"
 viewBox="0.00 0.00 1667.60 520.00" xmlns="http://www.w3.org/2000/svg" xmlns:xlink="http://www.w3.org/1999/xlink">
<g id="graph0" class="graph" transform="scale(1 1) rotate(0) translate(4 516)">
<title>G</title>
<polygon fill="white" stroke="transparent" points="-4,4 -4,-516 1663.6,-516 1663.6,4 -4,4"/>
<g id="clust1" class="cluster">
<title>cluster_Signer</title>
<polygon fill="none" stroke="black" points="1422,-8 1422,-155 1572,-155 1572,-8 1422,-8"/>
<text text-anchor="middle" x="1497" y="-139.8" font-family="Times,serif" font-size="14.00">Signer</text>
</g>
<g id="clust2" class="cluster">
<title>cluster_Errors</title>
<polygon fill="none" stroke="black" points="8,-8 8,-155 898,-155 898,-8 8,-8"/>
<text text-anchor="middle" x="453" y="-139.8" font-family="Times,serif" font-size="14.00">Errors</text>
</g>
<g id="clust3" class="cluster">
<title>cluster_Roles</title>
<polygon fill="none" stroke="black" points="852,-246 852,-321 1301,-321 1301,-246 852,-246"/>
<text text-anchor="middle" x="1076.5" y="-305.8" font-family="Times,serif" font-size="14.00">Roles</text>
</g>
<g id="clust4" class="cluster">
<title>cluster_Diem</title>
<polygon fill="none" stroke="black" points="357,-163 357,-468 754,-468 754,-163 357,-163"/>
<text text-anchor="middle" x="555.5" y="-452.8" font-family="Times,serif" font-size="14.00">Diem</text>
</g>
<g id="clust5" class="cluster">
<title>cluster_CoreAddresses</title>
<polygon fill="none" stroke="black" points="906,-80 906,-238 1414,-238 1414,-80 906,-80"/>
<text text-anchor="middle" x="1160" y="-222.8" font-family="Times,serif" font-size="14.00">CoreAddresses</text>
</g>
<g id="clust6" class="cluster">
<title>cluster_Vector</title>
<polygon fill="none" stroke="black" points="762,-246 762,-321 844,-321 844,-246 762,-246"/>
<text text-anchor="middle" x="803" y="-305.8" font-family="Times,serif" font-size="14.00">Vector</text>
</g>
<!-- add_currency -->
<g id="node1" class="node">
<title>add_currency</title>
<ellipse fill="none" stroke="black" cx="1184" cy="-494" rx="58.49" ry="18"/>
<text text-anchor="middle" x="1184" y="-490.3" font-family="Times,serif" font-size="14.00">add_currency</text>
</g>
<!-- Signer::address_of -->
<g id="node2" class="node">
<title>Signer::address_of</title>
<ellipse fill="none" stroke="black" cx="1488" cy="-106" rx="48.99" ry="18"/>
<text text-anchor="middle" x="1488" y="-102.3" font-family="Times,serif" font-size="14.00">address_of</text>
</g>
<!-- add_currency&#45;&gt;Signer::address_of -->
<g id="edge1" class="edge">
<title>add_currency&#45;&gt;Signer::address_of</title>
<path fill="none" stroke="black" d="M1233.09,-484.12C1332.45,-464.75 1548,-415 1548,-348 1548,-348 1548,-348 1548,-271 1548,-219.62 1521.71,-164.4 1503.93,-132.93"/>
<polygon fill="black" stroke="black" points="1506.77,-130.86 1498.73,-123.96 1500.72,-134.37 1506.77,-130.86"/>
</g>
<!-- Errors::not_published -->
<g id="node3" class="node">
<title>Errors::not_published</title>
<ellipse fill="none" stroke="black" cx="539" cy="-106" rx="60.39" ry="18"/>
<text text-anchor="middle" x="539" y="-102.3" font-family="Times,serif" font-size="14.00">not_published</text>
</g>
<!-- add_currency&#45;&gt;Errors::not_published -->
<g id="edge2" class="edge">
<title>add_currency&#45;&gt;Errors::not_published</title>
<path fill="none" stroke="black" d="M1125.58,-492.88C941.76,-492.28 385.46,-488.74 353,-468 302.75,-435.89 293,-407.63 293,-348 293,-348 293,-348 293,-271 293,-216.09 306.65,-192.45 353,-163 375,-149.03 445.41,-163.64 470,-155 485.66,-149.5 501.03,-139.41 513.27,-129.89"/>
<polygon fill="black" stroke="black" points="515.64,-132.47 521.21,-123.46 511.24,-127.03 515.64,-132.47"/>
</g>
<!-- Roles::assert_treasury_compliance -->
<g id="node4" class="node">
<title>Roles::assert_treasury_compliance</title>
<ellipse fill="none" stroke="black" cx="1184" cy="-272" rx="108.58" ry="18"/>
<text text-anchor="middle" x="1184" y="-268.3" font-family="Times,serif" font-size="14.00">assert_treasury_compliance</text>
</g>
<!-- add_currency&#45;&gt;Roles::assert_treasury_compliance -->
<g id="edge3" class="edge">
<title>add_currency&#45;&gt;Roles::assert_treasury_compliance</title>
<path fill="none" stroke="black" d="M1184,-475.74C1184,-437.66 1184,-346.23 1184,-300.3"/>
<polygon fill="black" stroke="black" points="1187.5,-300.18 1184,-290.18 1180.5,-300.18 1187.5,-300.18"/>
</g>
<!-- Diem::publish_preburn_queue_to_account -->
<g id="node5" class="node">
<title>Diem::publish_preburn_queue_to_account</title>
<ellipse fill="none" stroke="black" cx="610" cy="-419" rx="136.48" ry="18"/>
<text text-anchor="middle" x="610" y="-415.3" font-family="Times,serif" font-size="14.00">publish_preburn_queue_to_account</text>
</g>
<!-- add_currency&#45;&gt;Diem::publish_preburn_queue_to_account -->
<g id="edge4" class="edge">
<title>add_currency&#45;&gt;Diem::publish_preburn_queue_to_account</title>
<path fill="none" stroke="black" d="M1131.03,-486.26C1036.61,-474.26 837.65,-448.95 714.74,-433.32"/>
<polygon fill="black" stroke="black" points="714.92,-429.82 704.56,-432.03 714.04,-436.76 714.92,-429.82"/>
</g>
<!-- exists_at -->
<g id="node6" class="node">
<title>exists_at</title>
<ellipse fill="none" stroke="black" cx="1618" cy="-419" rx="41.69" ry="18"/>
<text text-anchor="middle" x="1618" y="-415.3" font-family="Times,serif" font-size="14.00">exists_at</text>
</g>
<!-- add_currency&#45;&gt;exists_at -->
<g id="edge5" class="edge">
<title>add_currency&#45;&gt;exists_at</title>
<path fill="none" stroke="black" d="M1242.84,-493.6C1334.28,-493.79 1505.82,-490.92 1562,-468 1575.1,-462.66 1587.32,-452.99 1596.98,-443.72"/>
<polygon fill="black" stroke="black" points="1599.61,-446.04 1604.15,-436.46 1594.63,-441.12 1599.61,-446.04"/>
</g>
<!-- Signer::borrow_address -->
<g id="node7" class="node">
<title>Signer::borrow_address</title>
<ellipse fill="none" stroke="black" cx="1497" cy="-34" rx="66.89" ry="18"/>
<text text-anchor="middle" x="1497" y="-30.3" font-family="Times,serif" font-size="14.00">borrow_address</text>
</g>
<!-- Signer::address_of&#45;&gt;Signer::borrow_address -->
<g id="edge6" class="edge">
<title>Signer::address_of&#45;&gt;Signer::borrow_address</title>
<path fill="none" stroke="black" d="M1490.22,-87.7C1491.22,-79.98 1492.41,-70.71 1493.51,-62.11"/>
<polygon fill="black" stroke="black" points="1497,-62.47 1494.8,-52.1 1490.05,-61.58 1497,-62.47"/>
</g>
<!-- Errors::make -->
<g id="node8" class="node">
<title>Errors::make</title>
<ellipse fill="none" stroke="black" cx="472" cy="-34" rx="30.59" ry="18"/>
<text text-anchor="middle" x="472" y="-30.3" font-family="Times,serif" font-size="14.00">make</text>
</g>
<!-- Errors::not_published&#45;&gt;Errors::make -->
<g id="edge7" class="edge">
<title>Errors::not_published&#45;&gt;Errors::make</title>
<path fill="none" stroke="black" d="M523.12,-88.41C514.24,-79.13 503.05,-67.44 493.4,-57.36"/>
<polygon fill="black" stroke="black" points="495.84,-54.84 486.39,-50.04 490.78,-59.68 495.84,-54.84"/>
</g>
<!-- Roles::assert_treasury_compliance&#45;&gt;Signer::address_of -->
<g id="edge8" class="edge">
<title>Roles::assert_treasury_compliance&#45;&gt;Signer::address_of</title>
<path fill="none" stroke="black" d="M1287.16,-266.38C1369.25,-261.62 1472.55,-252.77 1486,-238 1511.48,-210.02 1504.68,-163.07 1496.8,-133.63"/>
<polygon fill="black" stroke="black" points="1500.16,-132.65 1494.02,-124.01 1493.44,-134.59 1500.16,-132.65"/>
</g>
<!-- Roles::assert_treasury_compliance&#45;&gt;Errors::not_published -->
<g id="edge9" class="edge">
<title>Roles::assert_treasury_compliance&#45;&gt;Errors::not_published</title>
<path fill="none" stroke="black" d="M1126.61,-256.69C1107.74,-252.53 1086.58,-248.46 1067,-246 1044.38,-243.16 882.92,-247.06 862,-238 818.46,-219.13 829.49,-182 786,-163 749.92,-147.23 646.34,-167.5 609,-155 592.99,-149.64 577.29,-139.46 564.83,-129.86"/>
<polygon fill="black" stroke="black" points="566.74,-126.9 556.76,-123.36 562.36,-132.36 566.74,-126.9"/>
</g>
<!-- Errors::requires_role -->
<g id="node9" class="node">
<title>Errors::requires_role</title>
<ellipse fill="none" stroke="black" cx="675" cy="-106" rx="57.39" ry="18"/>
<text text-anchor="middle" x="675" y="-102.3" font-family="Times,serif" font-size="14.00">requires_role</text>
</g>
<!-- Roles::assert_treasury_compliance&#45;&gt;Errors::requires_role -->
<g id="edge10" class="edge">
<title>Roles::assert_treasury_compliance&#45;&gt;Errors::requires_role</title>
<path fill="none" stroke="black" d="M1126.3,-256.73C1107.5,-252.6 1086.46,-248.53 1067,-246 1048.8,-243.63 917.51,-247.82 902,-238 870.09,-217.78 893.74,-183.5 862,-163 839.36,-148.38 766.34,-164.17 741,-155 725.88,-149.53 711.2,-139.48 699.54,-129.98"/>
<polygon fill="black" stroke="black" points="701.5,-127.05 691.62,-123.24 696.97,-132.39 701.5,-127.05"/>
</g>
<!-- CoreAddresses::assert_treasury_compliance -->
<g id="node10" class="node">
<title>CoreAddresses::assert_treasury_compliance</title>
<ellipse fill="none" stroke="black" cx="1297" cy="-189" rx="108.58" ry="18"/>
<text text-anchor="middle" x="1297" y="-185.3" font-family="Times,serif" font-size="14.00">assert_treasury_compliance</text>
</g>
<!-- Roles::assert_treasury_compliance&#45;&gt;CoreAddresses::assert_treasury_compliance -->
<g id="edge11" class="edge">
<title>Roles::assert_treasury_compliance&#45;&gt;CoreAddresses::assert_treasury_compliance</title>
<path fill="none" stroke="black" d="M1207.14,-254.41C1223.94,-242.37 1246.87,-225.94 1265.36,-212.68"/>
<polygon fill="black" stroke="black" points="1267.41,-215.51 1273.5,-206.84 1263.34,-209.82 1267.41,-215.51"/>
</g>
<!-- Diem::publish_preburn_queue_to_account&#45;&gt;Roles::assert_treasury_compliance -->
<g id="edge13" class="edge">
<title>Diem::publish_preburn_queue_to_account&#45;&gt;Roles::assert_treasury_compliance</title>
<path fill="none" stroke="black" d="M694.55,-404.76C787.16,-389.17 939.51,-360.33 1067,-321 1091.67,-313.39 1118.37,-302.64 1140.02,-293.25"/>
<polygon fill="black" stroke="black" points="1141.53,-296.4 1149.28,-289.18 1138.71,-290 1141.53,-296.4"/>
</g>
<!-- Errors::invalid_argument -->
<g id="node11" class="node">
<title>Errors::invalid_argument</title>
<ellipse fill="none" stroke="black" cx="89" cy="-106" rx="73.39" ry="18"/>
<text text-anchor="middle" x="89" y="-102.3" font-family="Times,serif" font-size="14.00">invalid_argument</text>
</g>
<!-- Diem::publish_preburn_queue_to_account&#45;&gt;Errors::invalid_argument -->
<g id="edge12" class="edge">
<title>Diem::publish_preburn_queue_to_account&#45;&gt;Errors::invalid_argument</title>
<path fill="none" stroke="black" d="M498.8,-408.52C452.6,-401.18 399.69,-388.14 356,-365 326.71,-349.49 172.1,-192.33 112.48,-131.17"/>
<polygon fill="black" stroke="black" points="114.85,-128.59 105.37,-123.87 109.84,-133.47 114.85,-128.59"/>
</g>
<!-- Roles::assert_designated_dealer -->
<g id="node12" class="node">
<title>Roles::assert_designated_dealer</title>
<ellipse fill="none" stroke="black" cx="959" cy="-272" rx="98.58" ry="18"/>
<text text-anchor="middle" x="959" y="-268.3" font-family="Times,serif" font-size="14.00">assert_designated_dealer</text>
</g>
<!-- Diem::publish_preburn_queue_to_account&#45;&gt;Roles::assert_designated_dealer -->
<g id="edge14" class="edge">
<title>Diem::publish_preburn_queue_to_account&#45;&gt;Roles::assert_designated_dealer</title>
<path fill="none" stroke="black" d="M656.37,-402.03C684.99,-391.92 722.36,-378.3 755,-365 811.41,-342.01 875.24,-312.67 916.25,-293.38"/>
<polygon fill="black" stroke="black" points="917.85,-296.5 925.4,-289.07 914.86,-290.17 917.85,-296.5"/>
</g>
<!-- Diem::is_synthetic_currency -->
<g id="node13" class="node">
<title>Diem::is_synthetic_currency</title>
<ellipse fill="none" stroke="black" cx="658" cy="-347" rx="87.99" ry="18"/>
<text text-anchor="middle" x="658" y="-343.3" font-family="Times,serif" font-size="14.00">is_synthetic_currency</text>
</g>
<!-- Diem::publish_preburn_queue_to_account&#45;&gt;Diem::is_synthetic_currency -->
<g id="edge15" class="edge">
<title>Diem::publish_preburn_queue_to_account&#45;&gt;Diem::is_synthetic_currency</title>
<path fill="none" stroke="black" d="M621.62,-401.05C627.25,-392.84 634.14,-382.79 640.4,-373.66"/>
<polygon fill="black" stroke="black" points="643.39,-375.5 646.15,-365.28 637.61,-371.54 643.39,-375.5"/>
</g>
<!-- Diem::publish_preburn_queue -->
<g id="node14" class="node">
<title>Diem::publish_preburn_queue</title>
<ellipse fill="none" stroke="black" cx="459" cy="-347" rx="93.68" ry="18"/>
<text text-anchor="middle" x="459" y="-343.3" font-family="Times,serif" font-size="14.00">publish_preburn_queue</text>
</g>
<!-- Diem::publish_preburn_queue_to_account&#45;&gt;Diem::publish_preburn_queue -->
<g id="edge16" class="edge">
<title>Diem::publish_preburn_queue_to_account&#45;&gt;Diem::publish_preburn_queue</title>
<path fill="none" stroke="black" d="M574.6,-401.59C552.99,-391.57 525.22,-378.7 502.31,-368.08"/>
<polygon fill="black" stroke="black" points="503.69,-364.86 493.14,-363.83 500.74,-371.21 503.69,-364.86"/>
</g>
<!-- Errors::requires_role&#45;&gt;Errors::make -->
<g id="edge17" class="edge">
<title>Errors::requires_role&#45;&gt;Errors::make</title>
<path fill="none" stroke="black" d="M639.97,-91.65C629.7,-87.81 618.42,-83.67 608,-80 574.15,-68.09 535.26,-55.31 507.76,-46.43"/>
<polygon fill="black" stroke="black" points="508.76,-43.07 498.17,-43.34 506.62,-49.74 508.76,-43.07"/>
</g>
<!-- CoreAddresses::assert_treasury_compliance&#45;&gt;Signer::address_of -->
<g id="edge18" class="edge">
<title>CoreAddresses::assert_treasury_compliance&#45;&gt;Signer::address_of</title>
<path fill="none" stroke="black" d="M1362.16,-174.5C1380.66,-169.54 1400.51,-163.1 1418,-155 1432.99,-148.06 1448.28,-137.99 1460.73,-128.86"/>
<polygon fill="black" stroke="black" points="1462.97,-131.56 1468.85,-122.75 1458.76,-125.96 1462.97,-131.56"/>
</g>
<!-- Errors::requires_address -->
<g id="node15" class="node">
<title>Errors::requires_address</title>
<ellipse fill="none" stroke="black" cx="820" cy="-106" rx="69.59" ry="18"/>
<text text-anchor="middle" x="820" y="-102.3" font-family="Times,serif" font-size="14.00">requires_address</text>
</g>
<!-- CoreAddresses::assert_treasury_compliance&#45;&gt;Errors::requires_address -->
<g id="edge19" class="edge">
<title>CoreAddresses::assert_treasury_compliance&#45;&gt;Errors::requires_address</title>
<path fill="none" stroke="black" d="M1239.73,-173.7C1220.55,-169.49 1198.96,-165.38 1179,-163 1148.43,-159.35 931.6,-163.49 902,-155 883.18,-149.6 864.18,-138.89 849.22,-128.95"/>
<polygon fill="black" stroke="black" points="851.13,-126.02 840.9,-123.24 847.16,-131.79 851.13,-126.02"/>
</g>
<!-- CoreAddresses::TREASURY_COMPLIANCE_ADDRESS -->
<g id="node16" class="node">
<title>CoreAddresses::TREASURY_COMPLIANCE_ADDRESS</title>
<ellipse fill="none" stroke="black" cx="1243" cy="-106" rx="163.27" ry="18"/>
<text text-anchor="middle" x="1243" y="-102.3" font-family="Times,serif" font-size="14.00">TREASURY_COMPLIANCE_ADDRESS</text>
</g>
<!-- CoreAddresses::assert_treasury_compliance&#45;&gt;CoreAddresses::TREASURY_COMPLIANCE_ADDRESS -->
<g id="edge20" class="edge">
<title>CoreAddresses::assert_treasury_compliance&#45;&gt;CoreAddresses::TREASURY_COMPLIANCE_ADDRESS</title>
<path fill="none" stroke="black" d="M1285.55,-170.82C1278.17,-159.76 1268.45,-145.18 1260.16,-132.75"/>
<polygon fill="black" stroke="black" points="1262.89,-130.53 1254.44,-124.15 1257.07,-134.42 1262.89,-130.53"/>
</g>
<!-- Errors::invalid_argument&#45;&gt;Errors::make -->
<g id="edge21" class="edge">
<title>Errors::invalid_argument&#45;&gt;Errors::make</title>
<path fill="none" stroke="black" d="M130.91,-91.1C143.97,-87.11 158.49,-83.03 172,-80 263.92,-59.38 373.84,-45.6 431.74,-39.18"/>
<polygon fill="black" stroke="black" points="432.37,-42.63 441.93,-38.06 431.61,-35.67 432.37,-42.63"/>
</g>
<!-- Roles::assert_designated_dealer&#45;&gt;Signer::address_of -->
<g id="edge22" class="edge">
<title>Roles::assert_designated_dealer&#45;&gt;Signer::address_of</title>
<path fill="none" stroke="black" d="M1010.85,-256.59C1028.24,-252.37 1047.83,-248.29 1066,-246 1087.06,-243.35 1431.07,-250.81 1448,-238 1479.89,-213.87 1487.14,-164.91 1488.37,-134.16"/>
<polygon fill="black" stroke="black" points="1491.87,-134.18 1488.58,-124.11 1484.87,-134.03 1491.87,-134.18"/>
</g>
<!-- Roles::assert_designated_dealer&#45;&gt;Errors::not_published -->
<g id="edge23" class="edge">
<title>Roles::assert_designated_dealer&#45;&gt;Errors::not_published</title>
<path fill="none" stroke="black" d="M902.45,-257.19C885.05,-253.24 865.8,-249.15 848,-246 834.32,-243.58 796.88,-246.64 786,-238 758.13,-215.88 786.68,-184.06 758,-163 744.64,-153.18 624.7,-160.33 609,-155 593.02,-149.57 577.32,-139.39 564.85,-129.79"/>
<polygon fill="black" stroke="black" points="566.77,-126.84 556.78,-123.31 562.38,-132.3 566.77,-126.84"/>
</g>
<!-- Roles::assert_designated_dealer&#45;&gt;Errors::requires_role -->
<g id="edge24" class="edge">
<title>Roles::assert_designated_dealer&#45;&gt;Errors::requires_role</title>
<path fill="none" stroke="black" d="M910.62,-256.12C897.65,-251.21 883.92,-245.14 872,-238 828.5,-211.93 831.74,-184.9 786,-163 767.68,-154.23 759.69,-162.95 741,-155 726.52,-148.84 712.19,-138.99 700.59,-129.81"/>
<polygon fill="black" stroke="black" points="702.62,-126.95 692.67,-123.31 698.18,-132.36 702.62,-126.95"/>
</g>
<!-- CoreAddresses::CURRENCY_INFO_ADDRESS -->
<g id="node17" class="node">
<title>CoreAddresses::CURRENCY_INFO_ADDRESS</title>
<ellipse fill="none" stroke="black" cx="1042" cy="-189" rx="128.08" ry="18"/>
<text text-anchor="middle" x="1042" y="-185.3" font-family="Times,serif" font-size="14.00">CURRENCY_INFO_ADDRESS</text>
</g>
<!-- Diem::is_synthetic_currency&#45;&gt;CoreAddresses::CURRENCY_INFO_ADDRESS -->
<g id="edge25" class="edge">
<title>Diem::is_synthetic_currency&#45;&gt;CoreAddresses::CURRENCY_INFO_ADDRESS</title>
<path fill="none" stroke="black" d="M669.74,-329.15C686.53,-306.43 719.66,-266.45 758,-246 806.74,-220 865.98,-206 917.72,-198.5"/>
<polygon fill="black" stroke="black" points="918.2,-201.96 927.62,-197.12 917.24,-195.03 918.2,-201.96"/>
</g>
<!-- Diem::publish_preburn_queue&#45;&gt;Signer::address_of -->
<g id="edge26" class="edge">
<title>Diem::publish_preburn_queue&#45;&gt;Signer::address_of</title>
<path fill="none" stroke="black" d="M525.09,-334.24C542.16,-330.59 560.4,-326.15 577,-321 660.17,-295.2 672.7,-263.51 758,-246 775.96,-242.31 1402.88,-248.37 1418,-238 1447.61,-217.69 1430.78,-194.5 1448,-163 1453.88,-152.25 1461.47,-141.12 1468.46,-131.64"/>
<polygon fill="black" stroke="black" points="1471.4,-133.55 1474.64,-123.46 1465.82,-129.33 1471.4,-133.55"/>
</g>
<!-- Diem::publish_preburn_queue&#45;&gt;Roles::assert_designated_dealer -->
<g id="edge29" class="edge">
<title>Diem::publish_preburn_queue&#45;&gt;Roles::assert_designated_dealer</title>
<path fill="none" stroke="black" d="M523.3,-333.91C535.77,-331.95 548.76,-330.18 561,-329 624.51,-322.85 785.71,-334.8 848,-321 873.24,-315.41 899.88,-304.09 920.74,-293.85"/>
<polygon fill="black" stroke="black" points="922.53,-296.86 929.89,-289.24 919.38,-290.61 922.53,-296.86"/>
</g>
<!-- Errors::already_published -->
<g id="node18" class="node">
<title>Errors::already_published</title>
<ellipse fill="none" stroke="black" cx="256" cy="-106" rx="75.29" ry="18"/>
<text text-anchor="middle" x="256" y="-102.3" font-family="Times,serif" font-size="14.00">already_published</text>
</g>
<!-- Diem::publish_preburn_queue&#45;&gt;Errors::already_published -->
<g id="edge27" class="edge">
<title>Diem::publish_preburn_queue&#45;&gt;Errors::already_published</title>
<path fill="none" stroke="black" d="M403.01,-332.41C397.44,-329.34 392.27,-325.59 388,-321 338.45,-267.7 388.31,-221.48 345,-163 333.83,-147.92 317.27,-135.91 301.46,-126.95"/>
<polygon fill="black" stroke="black" points="302.75,-123.67 292.29,-122.03 299.44,-129.84 302.75,-123.67"/>
</g>
<!-- Errors::invalid_state -->
<g id="node19" class="node">
<title>Errors::invalid_state</title>
<ellipse fill="none" stroke="black" cx="405" cy="-106" rx="55.79" ry="18"/>
<text text-anchor="middle" x="405" y="-102.3" font-family="Times,serif" font-size="14.00">invalid_state</text>
</g>
<!-- Diem::publish_preburn_queue&#45;&gt;Errors::invalid_state -->
<g id="edge28" class="edge">
<title>Diem::publish_preburn_queue&#45;&gt;Errors::invalid_state</title>
<path fill="none" stroke="black" d="M528.35,-334.87C542.06,-331.25 553.59,-326.66 558,-321 578.48,-294.7 565.1,-278.57 558,-246 549.36,-206.36 552.3,-187.55 520,-163 502.08,-149.38 490.75,-163.71 470,-155 455.53,-148.93 441.3,-139 429.86,-129.74"/>
<polygon fill="black" stroke="black" points="431.96,-126.94 422.05,-123.19 427.46,-132.3 431.96,-126.94"/>
</g>
<!-- Vector::empty -->
<g id="node20" class="node">
<title>Vector::empty</title>
<ellipse fill="none" stroke="black" cx="803" cy="-272" rx="33.29" ry="18"/>
<text text-anchor="middle" x="803" y="-268.3" font-family="Times,serif" font-size="14.00">empty</text>
</g>
<!-- Diem::publish_preburn_queue&#45;&gt;Vector::empty -->
<g id="edge30" class="edge">
<title>Diem::publish_preburn_queue&#45;&gt;Vector::empty</title>
<path fill="none" stroke="black" d="M523.86,-333.95C536.16,-332.01 548.95,-330.24 561,-329 582.79,-326.75 738.08,-330.11 758,-321 769.13,-315.91 778.83,-306.66 786.35,-297.64"/>
<polygon fill="black" stroke="black" points="789.26,-299.59 792.61,-289.54 783.73,-295.31 789.26,-299.59"/>
</g>
<!-- Diem::assert_is_currency -->
<g id="node21" class="node">
<title>Diem::assert_is_currency</title>
<ellipse fill="none" stroke="black" cx="473" cy="-272" rx="76.09" ry="18"/>
<text text-anchor="middle" x="473" y="-268.3" font-family="Times,serif" font-size="14.00">assert_is_currency</text>
</g>
<!-- Diem::publish_preburn_queue&#45;&gt;Diem::assert_is_currency -->
<g id="edge31" class="edge">
<title>Diem::publish_preburn_queue&#45;&gt;Diem::assert_is_currency</title>
<path fill="none" stroke="black" d="M462.32,-328.7C463.96,-320.15 465.97,-309.65 467.81,-300.07"/>
<polygon fill="black" stroke="black" points="471.26,-300.66 469.71,-290.18 464.39,-299.34 471.26,-300.66"/>
</g>
<!-- Errors::requires_address&#45;&gt;Errors::make -->
<g id="edge32" class="edge">
<title>Errors::requires_address&#45;&gt;Errors::make</title>
<path fill="none" stroke="black" d="M780.12,-91.18C767.69,-87.2 753.87,-83.1 741,-80 660.51,-60.63 564.49,-46.73 511.69,-39.86"/>
<polygon fill="black" stroke="black" points="512.09,-36.38 501.73,-38.58 511.2,-43.33 512.09,-36.38"/>
</g>
<!-- Errors::already_published&#45;&gt;Errors::make -->
<g id="edge33" class="edge">
<title>Errors::already_published&#45;&gt;Errors::make</title>
<path fill="none" stroke="black" d="M298.93,-91.09C339.14,-78.06 398.53,-58.81 436.23,-46.59"/>
<polygon fill="black" stroke="black" points="437.36,-49.91 445.79,-43.49 435.2,-43.25 437.36,-49.91"/>
</g>
<!-- Errors::invalid_state&#45;&gt;Errors::make -->
<g id="edge34" class="edge">
<title>Errors::invalid_state&#45;&gt;Errors::make</title>
<path fill="none" stroke="black" d="M420.88,-88.41C429.76,-79.13 440.95,-67.44 450.6,-57.36"/>
<polygon fill="black" stroke="black" points="453.22,-59.68 457.61,-50.04 448.16,-54.84 453.22,-59.68"/>
</g>
<!-- Diem::assert_is_currency&#45;&gt;Errors::not_published -->
<g id="edge35" class="edge">
<title>Diem::assert_is_currency&#45;&gt;Errors::not_published</title>
<path fill="none" stroke="black" d="M503.17,-255.29C509.67,-250.56 515.82,-244.79 520,-238 539.45,-206.37 541.92,-162.49 541.09,-134.42"/>
<polygon fill="black" stroke="black" points="544.57,-133.97 540.62,-124.14 537.58,-134.29 544.57,-133.97"/>
</g>
<!-- Diem::is_currency -->
<g id="node22" class="node">
<title>Diem::is_currency</title>
<ellipse fill="none" stroke="black" cx="459" cy="-189" rx="51.99" ry="18"/>
<text text-anchor="middle" x="459" y="-185.3" font-family="Times,serif" font-size="14.00">is_currency</text>
</g>
<!-- Diem::assert_is_currency&#45;&gt;Diem::is_currency -->
<g id="edge36" class="edge">
<title>Diem::assert_is_currency&#45;&gt;Diem::is_currency</title>
<path fill="none" stroke="black" d="M470.03,-253.82C468.19,-243.19 465.79,-229.31 463.7,-217.2"/>
<polygon fill="black" stroke="black" points="467.12,-216.41 461.96,-207.15 460.22,-217.6 467.12,-216.41"/>
</g>
<!-- Diem::is_currency&#45;&gt;CoreAddresses::CURRENCY_INFO_ADDRESS -->
<g id="edge37" class="edge">
<title>Diem::is_currency&#45;&gt;CoreAddresses::CURRENCY_INFO_ADDRESS</title>
<path fill="none" stroke="black" d="M511.09,-189C641.97,-189 772.84,-189 903.71,-189"/>
<polygon fill="black" stroke="black" points="903.94,-192.5 913.94,-189 903.94,-185.5 903.94,-192.5"/>
</g>
</g>
</svg>
