<?xml version="1.0" encoding="UTF-8" standalone="no"?>
<!DOCTYPE svg PUBLIC "-//W3C//DTD SVG 1.1//EN"
 "http://www.w3.org/Graphics/SVG/1.1/DTD/svg11.dtd">
<!-- Generated by graphviz version 2.46.1 (20210213.1702)
 -->
<!-- Title: G Pages: 1 -->
<svg width="2047pt" height="520pt"
 viewBox="0.00 0.00 2046.76 520.00" xmlns="http://www.w3.org/2000/svg" xmlns:xlink="http://www.w3.org/1999/xlink">
<g id="graph0" class="graph" transform="scale(1 1) rotate(0) translate(4 516)">
<title>G</title>
<polygon fill="white" stroke="transparent" points="-4,4 -4,-516 2042.76,-516 2042.76,4 -4,4"/>
<g id="clust1" class="cluster">
<title>cluster_Errors</title>
<polygon fill="none" stroke="black" points="8,-8 8,-155 1051,-155 1051,-8 8,-8"/>
<text text-anchor="middle" x="529.5" y="-139.8" font-family="Times,serif" font-size="14.00">Errors</text>
</g>
<g id="clust2" class="cluster">
<title>cluster_Roles</title>
<polygon fill="none" stroke="black" points="943,-246 943,-321 1177,-321 1177,-246 943,-246"/>
<text text-anchor="middle" x="1060" y="-305.8" font-family="Times,serif" font-size="14.00">Roles</text>
</g>
<g id="clust3" class="cluster">
<title>cluster_Event</title>
<polygon fill="none" stroke="black" points="681,-163 681,-321 867,-321 867,-163 681,-163"/>
<text text-anchor="middle" x="774" y="-305.8" font-family="Times,serif" font-size="14.00">Event</text>
</g>
<g id="clust4" class="cluster">
<title>cluster_Diem</title>
<polygon fill="none" stroke="black" points="1733,-80 1733,-468 1921,-468 1921,-80 1733,-80"/>
<text text-anchor="middle" x="1827" y="-452.8" font-family="Times,serif" font-size="14.00">Diem</text>
</g>
<g id="clust5" class="cluster">
<title>cluster_Signer</title>
<polygon fill="none" stroke="black" points="1059,-8 1059,-155 1209,-155 1209,-8 1059,-8"/>
<text text-anchor="middle" x="1134" y="-139.8" font-family="Times,serif" font-size="14.00">Signer</text>
</g>
<g id="clust6" class="cluster">
<title>cluster_CoreAddresses</title>
<polygon fill="none" stroke="black" points="1217,-80 1217,-238 1725,-238 1725,-80 1217,-80"/>
<text text-anchor="middle" x="1471" y="-222.8" font-family="Times,serif" font-size="14.00">CoreAddresses</text>
</g>
<!-- tiered_mint -->
<g id="node1" class="node">
<title>tiered_mint</title>
<ellipse fill="none" stroke="black" cx="1060" cy="-494" rx="51.99" ry="18"/>
<text text-anchor="middle" x="1060" y="-490.3" font-family="Times,serif" font-size="14.00">tiered_mint</text>
</g>
<!-- Errors::invalid_argument -->
<g id="node2" class="node">
<title>Errors::invalid_argument</title>
<ellipse fill="none" stroke="black" cx="89" cy="-106" rx="73.39" ry="18"/>
<text text-anchor="middle" x="89" y="-102.3" font-family="Times,serif" font-size="14.00">invalid_argument</text>
</g>
<!-- tiered_mint&#45;&gt;Errors::invalid_argument -->
<g id="edge1" class="edge">
<title>tiered_mint&#45;&gt;Errors::invalid_argument</title>
<path fill="none" stroke="black" d="M1007.95,-493.35C845.08,-493.07 356,-481.13 356,-348 356,-348 356,-348 356,-271 356,-264.3 197.77,-170.73 124.93,-128"/>
<polygon fill="black" stroke="black" points="126.47,-124.85 116.07,-122.81 122.93,-130.89 126.47,-124.85"/>
</g>
<!-- Errors::not_published -->
<g id="node3" class="node">
<title>Errors::not_published</title>
<ellipse fill="none" stroke="black" cx="677" cy="-106" rx="60.39" ry="18"/>
<text text-anchor="middle" x="677" y="-102.3" font-family="Times,serif" font-size="14.00">not_published</text>
</g>
<!-- tiered_mint&#45;&gt;Errors::not_published -->
<g id="edge2" class="edge">
<title>tiered_mint&#45;&gt;Errors::not_published</title>
<path fill="none" stroke="black" d="M1046.39,-476.2C1022.58,-446.28 972.67,-381.23 939,-321 901.7,-254.27 933.48,-207.05 871,-163 848.25,-146.96 772.28,-164.17 746,-155 730.22,-149.49 714.74,-139.3 702.46,-129.72"/>
<polygon fill="black" stroke="black" points="704.47,-126.84 694.5,-123.25 700.05,-132.27 704.47,-126.84"/>
</g>
<!-- Roles::assert_treasury_compliance -->
<g id="node4" class="node">
<title>Roles::assert_treasury_compliance</title>
<ellipse fill="none" stroke="black" cx="1060" cy="-272" rx="108.58" ry="18"/>
<text text-anchor="middle" x="1060" y="-268.3" font-family="Times,serif" font-size="14.00">assert_treasury_compliance</text>
</g>
<!-- tiered_mint&#45;&gt;Roles::assert_treasury_compliance -->
<g id="edge3" class="edge">
<title>tiered_mint&#45;&gt;Roles::assert_treasury_compliance</title>
<path fill="none" stroke="black" d="M1060,-475.74C1060,-437.66 1060,-346.23 1060,-300.3"/>
<polygon fill="black" stroke="black" points="1063.5,-300.18 1060,-290.18 1056.5,-300.18 1063.5,-300.18"/>
</g>
<!-- Event::emit_event -->
<g id="node5" class="node">
<title>Event::emit_event</title>
<ellipse fill="none" stroke="black" cx="807" cy="-272" rx="50.09" ry="18"/>
<text text-anchor="middle" x="807" y="-268.3" font-family="Times,serif" font-size="14.00">emit_event</text>
</g>
<!-- tiered_mint&#45;&gt;Event::emit_event -->
<g id="edge4" class="edge">
<title>tiered_mint&#45;&gt;Event::emit_event</title>
<path fill="none" stroke="black" d="M1007.88,-492.19C959.25,-490.38 891.25,-484.8 871,-468 820.42,-426.04 809.5,-343.32 807.35,-300.35"/>
<polygon fill="black" stroke="black" points="810.84,-299.95 806.97,-290.09 803.84,-300.21 810.84,-299.95"/>
</g>
<!-- Diem::currency_code -->
<g id="node6" class="node">
<title>Diem::currency_code</title>
<ellipse fill="none" stroke="black" cx="1810" cy="-272" rx="62.29" ry="18"/>
<text text-anchor="middle" x="1810" y="-268.3" font-family="Times,serif" font-size="14.00">currency_code</text>
</g>
<!-- tiered_mint&#45;&gt;Diem::currency_code -->
<g id="edge5" class="edge">
<title>tiered_mint&#45;&gt;Diem::currency_code</title>
<path fill="none" stroke="black" d="M1112.12,-492.62C1310.2,-491.06 2006.01,-484.42 2022,-468 2088.99,-399.25 1936.34,-323.97 1855.75,-290.6"/>
<polygon fill="black" stroke="black" points="1856.89,-287.28 1846.3,-286.74 1854.24,-293.76 1856.89,-287.28"/>
</g>
<!-- Diem::mint -->
<g id="node7" class="node">
<title>Diem::mint</title>
<ellipse fill="none" stroke="black" cx="1768" cy="-419" rx="27.1" ry="18"/>
<text text-anchor="middle" x="1768" y="-415.3" font-family="Times,serif" font-size="14.00">mint</text>
</g>
<!-- tiered_mint&#45;&gt;Diem::mint -->
<g id="edge6" class="edge">
<title>tiered_mint&#45;&gt;Diem::mint</title>
<path fill="none" stroke="black" d="M1109.22,-487.92C1243.31,-474.1 1612.91,-435.99 1731.12,-423.8"/>
<polygon fill="black" stroke="black" points="1731.54,-427.28 1741.13,-422.77 1730.82,-420.31 1731.54,-427.28"/>
</g>
<!-- exists_at -->
<g id="node8" class="node">
<title>exists_at</title>
<ellipse fill="none" stroke="black" cx="1971" cy="-419" rx="41.69" ry="18"/>
<text text-anchor="middle" x="1971" y="-415.3" font-family="Times,serif" font-size="14.00">exists_at</text>
</g>
<!-- tiered_mint&#45;&gt;exists_at -->
<g id="edge7" class="edge">
<title>tiered_mint&#45;&gt;exists_at</title>
<path fill="none" stroke="black" d="M1112.14,-492.58C1293.5,-490.99 1887.8,-484.52 1925,-468 1936.31,-462.98 1946.21,-453.75 1953.9,-444.71"/>
<polygon fill="black" stroke="black" points="1956.86,-446.61 1960.32,-436.6 1951.37,-442.27 1956.86,-446.61"/>
</g>
<!-- Errors::make -->
<g id="node9" class="node">
<title>Errors::make</title>
<ellipse fill="none" stroke="black" cx="541" cy="-34" rx="30.59" ry="18"/>
<text text-anchor="middle" x="541" y="-30.3" font-family="Times,serif" font-size="14.00">make</text>
</g>
<!-- Errors::invalid_argument&#45;&gt;Errors::make -->
<g id="edge8" class="edge">
<title>Errors::invalid_argument&#45;&gt;Errors::make</title>
<path fill="none" stroke="black" d="M129.93,-90.98C142.93,-86.95 157.46,-82.86 171,-80 289.08,-55.02 431.51,-42.55 500.13,-37.62"/>
<polygon fill="black" stroke="black" points="500.76,-41.09 510.49,-36.9 500.27,-34.11 500.76,-41.09"/>
</g>
<!-- Errors::not_published&#45;&gt;Errors::make -->
<g id="edge9" class="edge">
<title>Errors::not_published&#45;&gt;Errors::make</title>
<path fill="none" stroke="black" d="M648.16,-90.15C625.95,-78.73 595.3,-62.95 572.47,-51.2"/>
<polygon fill="black" stroke="black" points="574.01,-48.05 563.51,-46.59 570.8,-54.28 574.01,-48.05"/>
</g>
<!-- Roles::assert_treasury_compliance&#45;&gt;Errors::not_published -->
<g id="edge11" class="edge">
<title>Roles::assert_treasury_compliance&#45;&gt;Errors::not_published</title>
<path fill="none" stroke="black" d="M1052.6,-253.66C1040.79,-228.46 1015.06,-182.58 977,-163 954.16,-151.25 770.37,-163.11 746,-155 730.14,-149.72 714.65,-139.56 702.39,-129.93"/>
<polygon fill="black" stroke="black" points="704.4,-127.05 694.44,-123.42 699.96,-132.47 704.4,-127.05"/>
</g>
<!-- Signer::address_of -->
<g id="node10" class="node">
<title>Signer::address_of</title>
<ellipse fill="none" stroke="black" cx="1143" cy="-106" rx="48.99" ry="18"/>
<text text-anchor="middle" x="1143" y="-102.3" font-family="Times,serif" font-size="14.00">address_of</text>
</g>
<!-- Roles::assert_treasury_compliance&#45;&gt;Signer::address_of -->
<g id="edge10" class="edge">
<title>Roles::assert_treasury_compliance&#45;&gt;Signer::address_of</title>
<path fill="none" stroke="black" d="M1068.73,-253.76C1083.27,-225.02 1112.57,-167.13 1129.7,-133.28"/>
<polygon fill="black" stroke="black" points="1133,-134.51 1134.39,-124.01 1126.75,-131.35 1133,-134.51"/>
</g>
<!-- Errors::requires_role -->
<g id="node11" class="node">
<title>Errors::requires_role</title>
<ellipse fill="none" stroke="black" cx="541" cy="-106" rx="57.39" ry="18"/>
<text text-anchor="middle" x="541" y="-102.3" font-family="Times,serif" font-size="14.00">requires_role</text>
</g>
<!-- Roles::assert_treasury_compliance&#45;&gt;Errors::requires_role -->
<g id="edge12" class="edge">
<title>Roles::assert_treasury_compliance&#45;&gt;Errors::requires_role</title>
<path fill="none" stroke="black" d="M1008.92,-255.94C996.63,-251.17 983.92,-245.22 973,-238 934.46,-212.52 943.26,-181.7 901,-163 871.22,-149.82 638.87,-165.38 608,-155 592.46,-149.77 577.41,-139.61 565.53,-129.98"/>
<polygon fill="black" stroke="black" points="567.73,-127.26 557.84,-123.46 563.2,-132.6 567.73,-127.26"/>
</g>
<!-- CoreAddresses::assert_treasury_compliance -->
<g id="node12" class="node">
<title>CoreAddresses::assert_treasury_compliance</title>
<ellipse fill="none" stroke="black" cx="1334" cy="-189" rx="108.58" ry="18"/>
<text text-anchor="middle" x="1334" y="-185.3" font-family="Times,serif" font-size="14.00">assert_treasury_compliance</text>
</g>
<!-- Roles::assert_treasury_compliance&#45;&gt;CoreAddresses::assert_treasury_compliance -->
<g id="edge13" class="edge">
<title>Roles::assert_treasury_compliance&#45;&gt;CoreAddresses::assert_treasury_compliance</title>
<path fill="none" stroke="black" d="M1110.58,-256.05C1156.58,-242.45 1224.56,-222.35 1273.44,-207.9"/>
<polygon fill="black" stroke="black" points="1274.66,-211.19 1283.26,-205 1272.67,-204.48 1274.66,-211.19"/>
</g>
<!-- Event::write_to_event_store -->
<g id="node13" class="node">
<title>Event::write_to_event_store</title>
<ellipse fill="none" stroke="black" cx="774" cy="-189" rx="85.29" ry="18"/>
<text text-anchor="middle" x="774" y="-185.3" font-family="Times,serif" font-size="14.00">write_to_event_store</text>
</g>
<!-- Event::emit_event&#45;&gt;Event::write_to_event_store -->
<g id="edge14" class="edge">
<title>Event::emit_event&#45;&gt;Event::write_to_event_store</title>
<path fill="none" stroke="black" d="M800,-253.82C795.58,-242.98 789.78,-228.74 784.79,-216.47"/>
<polygon fill="black" stroke="black" points="788,-215.09 780.99,-207.15 781.52,-217.73 788,-215.09"/>
</g>
<!-- CoreAddresses::CURRENCY_INFO_ADDRESS -->
<g id="node14" class="node">
<title>CoreAddresses::CURRENCY_INFO_ADDRESS</title>
<ellipse fill="none" stroke="black" cx="1589" cy="-189" rx="128.08" ry="18"/>
<text text-anchor="middle" x="1589" y="-185.3" font-family="Times,serif" font-size="14.00">CURRENCY_INFO_ADDRESS</text>
</g>
<!-- Diem::currency_code&#45;&gt;CoreAddresses::CURRENCY_INFO_ADDRESS -->
<g id="edge15" class="edge">
<title>Diem::currency_code&#45;&gt;CoreAddresses::CURRENCY_INFO_ADDRESS</title>
<path fill="none" stroke="black" d="M1773.01,-257.44C1737.18,-244.31 1682.47,-224.26 1642.01,-209.43"/>
<polygon fill="black" stroke="black" points="1643.16,-206.12 1632.57,-205.97 1640.76,-212.7 1643.16,-206.12"/>
</g>
<!-- Diem::assert_is_currency -->
<g id="node15" class="node">
<title>Diem::assert_is_currency</title>
<ellipse fill="none" stroke="black" cx="1817" cy="-189" rx="76.09" ry="18"/>
<text text-anchor="middle" x="1817" y="-185.3" font-family="Times,serif" font-size="14.00">assert_is_currency</text>
</g>
<!-- Diem::currency_code&#45;&gt;Diem::assert_is_currency -->
<g id="edge16" class="edge">
<title>Diem::currency_code&#45;&gt;Diem::assert_is_currency</title>
<path fill="none" stroke="black" d="M1811.48,-253.82C1812.4,-243.19 1813.6,-229.31 1814.65,-217.2"/>
<polygon fill="black" stroke="black" points="1818.14,-217.42 1815.52,-207.15 1811.17,-216.81 1818.14,-217.42"/>
</g>
<!-- Diem::mint&#45;&gt;Signer::address_of -->
<g id="edge17" class="edge">
<title>Diem::mint&#45;&gt;Signer::address_of</title>
<path fill="none" stroke="black" d="M1740.9,-416.24C1654.09,-409.28 1378.85,-376.8 1213,-238 1180.1,-210.46 1160.4,-163.39 1150.63,-133.8"/>
<polygon fill="black" stroke="black" points="1153.93,-132.61 1147.59,-124.12 1147.25,-134.71 1153.93,-132.61"/>
</g>
<!-- Errors::requires_capability -->
<g id="node16" class="node">
<title>Errors::requires_capability</title>
<ellipse fill="none" stroke="black" cx="258" cy="-106" rx="77.99" ry="18"/>
<text text-anchor="middle" x="258" y="-102.3" font-family="Times,serif" font-size="14.00">requires_capability</text>
</g>
<!-- Diem::mint&#45;&gt;Errors::requires_capability -->
<g id="edge18" class="edge">
<title>Diem::mint&#45;&gt;Errors::requires_capability</title>
<path fill="none" stroke="black" d="M1740.65,-416.99C1592.57,-411.33 885.9,-381.52 677,-321 529.61,-278.3 511.78,-221.7 370,-163 359.22,-158.54 355.71,-159.62 345,-155 327.25,-147.35 308.38,-137.21 292.77,-128.21"/>
<polygon fill="black" stroke="black" points="294.38,-125.1 283.98,-123.08 290.85,-131.15 294.38,-125.1"/>
</g>
<!-- Diem::mint_with_capability -->
<g id="node17" class="node">
<title>Diem::mint_with_capability</title>
<ellipse fill="none" stroke="black" cx="1827" cy="-347" rx="86.38" ry="18"/>
<text text-anchor="middle" x="1827" y="-343.3" font-family="Times,serif" font-size="14.00">mint_with_capability</text>
</g>
<!-- Diem::mint&#45;&gt;Diem::mint_with_capability -->
<g id="edge19" class="edge">
<title>Diem::mint&#45;&gt;Diem::mint_with_capability</title>
<path fill="none" stroke="black" d="M1780.8,-402.81C1788.18,-394.05 1797.64,-382.83 1806.08,-372.82"/>
<polygon fill="black" stroke="black" points="1808.8,-375.03 1812.56,-365.13 1803.44,-370.52 1808.8,-375.03"/>
</g>
<!-- Signer::borrow_address -->
<g id="node18" class="node">
<title>Signer::borrow_address</title>
<ellipse fill="none" stroke="black" cx="1134" cy="-34" rx="66.89" ry="18"/>
<text text-anchor="middle" x="1134" y="-30.3" font-family="Times,serif" font-size="14.00">borrow_address</text>
</g>
<!-- Signer::address_of&#45;&gt;Signer::borrow_address -->
<g id="edge20" class="edge">
<title>Signer::address_of&#45;&gt;Signer::borrow_address</title>
<path fill="none" stroke="black" d="M1140.78,-87.7C1139.78,-79.98 1138.59,-70.71 1137.49,-62.11"/>
<polygon fill="black" stroke="black" points="1140.95,-61.58 1136.2,-52.1 1134,-62.47 1140.95,-61.58"/>
</g>
<!-- Errors::requires_role&#45;&gt;Errors::make -->
<g id="edge21" class="edge">
<title>Errors::requires_role&#45;&gt;Errors::make</title>
<path fill="none" stroke="black" d="M541,-87.7C541,-79.98 541,-70.71 541,-62.11"/>
<polygon fill="black" stroke="black" points="544.5,-62.1 541,-52.1 537.5,-62.1 544.5,-62.1"/>
</g>
<!-- CoreAddresses::assert_treasury_compliance&#45;&gt;Signer::address_of -->
<g id="edge22" class="edge">
<title>CoreAddresses::assert_treasury_compliance&#45;&gt;Signer::address_of</title>
<path fill="none" stroke="black" d="M1268.84,-174.5C1250.34,-169.54 1230.49,-163.1 1213,-155 1198.01,-148.06 1182.72,-137.99 1170.27,-128.86"/>
<polygon fill="black" stroke="black" points="1172.24,-125.96 1162.15,-122.75 1168.03,-131.56 1172.24,-125.96"/>
</g>
<!-- Errors::requires_address -->
<g id="node19" class="node">
<title>Errors::requires_address</title>
<ellipse fill="none" stroke="black" cx="973" cy="-106" rx="69.59" ry="18"/>
<text text-anchor="middle" x="973" y="-102.3" font-family="Times,serif" font-size="14.00">requires_address</text>
</g>
<!-- CoreAddresses::assert_treasury_compliance&#45;&gt;Errors::requires_address -->
<g id="edge23" class="edge">
<title>CoreAddresses::assert_treasury_compliance&#45;&gt;Errors::requires_address</title>
<path fill="none" stroke="black" d="M1262.05,-175.47C1234.29,-170.99 1202.24,-166.25 1173,-163 1120.76,-157.18 1105.24,-170.47 1055,-155 1036.42,-149.28 1017.56,-138.65 1002.63,-128.85"/>
<polygon fill="black" stroke="black" points="1004.56,-125.93 994.32,-123.21 1000.63,-131.72 1004.56,-125.93"/>
</g>
<!-- CoreAddresses::TREASURY_COMPLIANCE_ADDRESS -->
<g id="node20" class="node">
<title>CoreAddresses::TREASURY_COMPLIANCE_ADDRESS</title>
<ellipse fill="none" stroke="black" cx="1388" cy="-106" rx="163.27" ry="18"/>
<text text-anchor="middle" x="1388" y="-102.3" font-family="Times,serif" font-size="14.00">TREASURY_COMPLIANCE_ADDRESS</text>
</g>
<!-- CoreAddresses::assert_treasury_compliance&#45;&gt;CoreAddresses::TREASURY_COMPLIANCE_ADDRESS -->
<g id="edge24" class="edge">
<title>CoreAddresses::assert_treasury_compliance&#45;&gt;CoreAddresses::TREASURY_COMPLIANCE_ADDRESS</title>
<path fill="none" stroke="black" d="M1345.45,-170.82C1352.83,-159.76 1362.55,-145.18 1370.84,-132.75"/>
<polygon fill="black" stroke="black" points="1373.93,-134.42 1376.56,-124.15 1368.11,-130.53 1373.93,-134.42"/>
</g>
<!-- Diem::assert_is_currency&#45;&gt;Errors::not_published -->
<g id="edge25" class="edge">
<title>Diem::assert_is_currency&#45;&gt;Errors::not_published</title>
<path fill="none" stroke="black" d="M1775.86,-173.84C1761.25,-169.48 1744.56,-165.23 1729,-163 1674.94,-155.25 798.04,-171.55 746,-155 729.96,-149.9 714.36,-139.64 702.06,-129.92"/>
<polygon fill="black" stroke="black" points="704.05,-127.02 694.11,-123.34 699.59,-132.41 704.05,-127.02"/>
</g>
<!-- Diem::is_currency -->
<g id="node21" class="node">
<title>Diem::is_currency</title>
<ellipse fill="none" stroke="black" cx="1805" cy="-106" rx="51.99" ry="18"/>
<text text-anchor="middle" x="1805" y="-102.3" font-family="Times,serif" font-size="14.00">is_currency</text>
</g>
<!-- Diem::assert_is_currency&#45;&gt;Diem::is_currency -->
<g id="edge26" class="edge">
<title>Diem::assert_is_currency&#45;&gt;Diem::is_currency</title>
<path fill="none" stroke="black" d="M1814.46,-170.82C1812.88,-160.19 1810.82,-146.31 1809.03,-134.2"/>
<polygon fill="black" stroke="black" points="1812.47,-133.53 1807.54,-124.15 1805.54,-134.56 1812.47,-133.53"/>
</g>
<!-- Errors::requires_capability&#45;&gt;Errors::make -->
<g id="edge27" class="edge">
<title>Errors::requires_capability&#45;&gt;Errors::make</title>
<path fill="none" stroke="black" d="M303.93,-91.3C317.15,-87.49 331.61,-83.46 345,-80 399.46,-65.93 463,-51.75 502.62,-43.17"/>
<polygon fill="black" stroke="black" points="503.61,-46.54 512.65,-41.01 502.13,-39.69 503.61,-46.54"/>
</g>
<!-- Diem::mint_with_capability&#45;&gt;Event::emit_event -->
<g id="edge31" class="edge">
<title>Diem::mint_with_capability&#45;&gt;Event::emit_event</title>
<path fill="none" stroke="black" d="M1740.51,-345.66C1527.36,-344.55 988.35,-339.87 909,-321 884.78,-315.24 859.45,-303.35 840.09,-292.85"/>
<polygon fill="black" stroke="black" points="841.54,-289.65 831.1,-287.84 838.13,-295.77 841.54,-289.65"/>
</g>
<!-- Diem::mint_with_capability&#45;&gt;Diem::currency_code -->
<g id="edge32" class="edge">
<title>Diem::mint_with_capability&#45;&gt;Diem::currency_code</title>
<path fill="none" stroke="black" d="M1822.97,-328.7C1820.98,-320.15 1818.53,-309.65 1816.3,-300.07"/>
<polygon fill="black" stroke="black" points="1819.68,-299.12 1814,-290.18 1812.86,-300.71 1819.68,-299.12"/>
</g>
<!-- Diem::mint_with_capability&#45;&gt;CoreAddresses::CURRENCY_INFO_ADDRESS -->
<g id="edge30" class="edge">
<title>Diem::mint_with_capability&#45;&gt;CoreAddresses::CURRENCY_INFO_ADDRESS</title>
<path fill="none" stroke="black" d="M1769.22,-333.54C1758.84,-330.21 1748.35,-326.08 1739,-321 1687.34,-292.96 1638.14,-244.38 1610.91,-214.92"/>
<polygon fill="black" stroke="black" points="1613.16,-212.18 1603.84,-207.15 1607.98,-216.9 1613.16,-212.18"/>
</g>
<!-- Diem::mint_with_capability&#45;&gt;Diem::assert_is_currency -->
<g id="edge33" class="edge">
<title>Diem::mint_with_capability&#45;&gt;Diem::assert_is_currency</title>
<path fill="none" stroke="black" d="M1871.23,-331.22C1875.06,-328.38 1878.44,-325 1881,-321 1898.95,-292.91 1894.77,-276.35 1881,-246 1874.91,-232.58 1863.85,-221.12 1852.61,-212.12"/>
<polygon fill="black" stroke="black" points="1854.57,-209.21 1844.47,-206.01 1850.37,-214.81 1854.57,-209.21"/>
</g>
<!-- Errors::invalid_state -->
<g id="node22" class="node">
<title>Errors::invalid_state</title>
<ellipse fill="none" stroke="black" cx="410" cy="-106" rx="55.79" ry="18"/>
<text text-anchor="middle" x="410" y="-102.3" font-family="Times,serif" font-size="14.00">invalid_state</text>
</g>
<!-- Diem::mint_with_capability&#45;&gt;Errors::invalid_state -->
<g id="edge28" class="edge">
<title>Diem::mint_with_capability&#45;&gt;Errors::invalid_state</title>
<path fill="none" stroke="black" d="M1740.43,-346.02C1523.57,-345.73 972.01,-342.86 939,-321 905.17,-298.6 916.98,-275.29 901,-238 886.86,-205 900.52,-183.43 871,-163 852.9,-150.48 495.83,-162.09 475,-155 459.83,-149.83 445.25,-139.72 433.76,-130.1"/>
<polygon fill="black" stroke="black" points="435.79,-127.23 425.97,-123.26 431.17,-132.49 435.79,-127.23"/>
</g>
<!-- Errors::limit_exceeded -->
<g id="node23" class="node">
<title>Errors::limit_exceeded</title>
<ellipse fill="none" stroke="black" cx="820" cy="-106" rx="64.99" ry="18"/>
<text text-anchor="middle" x="820" y="-102.3" font-family="Times,serif" font-size="14.00">limit_exceeded</text>
</g>
<!-- Diem::mint_with_capability&#45;&gt;Errors::limit_exceeded -->
<g id="edge29" class="edge">
<title>Diem::mint_with_capability&#45;&gt;Errors::limit_exceeded</title>
<path fill="none" stroke="black" d="M1753.31,-337.39C1718.04,-332.99 1675.25,-327.25 1637,-321 1447.5,-290.02 1397.25,-292.09 1213,-238 1126.29,-212.54 1112.2,-182.69 1024,-163 967.5,-150.39 948.98,-173.12 894,-155 877.18,-149.45 860.45,-139.12 847.17,-129.46"/>
<polygon fill="black" stroke="black" points="849.06,-126.5 838.97,-123.26 844.84,-132.09 849.06,-126.5"/>
</g>
<!-- Errors::requires_address&#45;&gt;Errors::make -->
<g id="edge34" class="edge">
<title>Errors::requires_address&#45;&gt;Errors::make</title>
<path fill="none" stroke="black" d="M933.59,-91C921.06,-86.96 907.07,-82.88 894,-80 782.32,-55.42 647.59,-42.86 581.53,-37.79"/>
<polygon fill="black" stroke="black" points="581.77,-34.29 571.54,-37.04 581.25,-41.28 581.77,-34.29"/>
</g>
<!-- Diem::is_currency&#45;&gt;CoreAddresses::CURRENCY_INFO_ADDRESS -->
<g id="edge35" class="edge">
<title>Diem::is_currency&#45;&gt;CoreAddresses::CURRENCY_INFO_ADDRESS</title>
<path fill="none" stroke="black" d="M1784.42,-122.65C1769.69,-133.18 1749,-146.6 1729,-155 1712.39,-161.97 1694.02,-167.64 1676.21,-172.17"/>
<polygon fill="black" stroke="black" points="1675.26,-168.8 1666.38,-174.58 1676.93,-175.6 1675.26,-168.8"/>
</g>
<!-- Errors::invalid_state&#45;&gt;Errors::make -->
<g id="edge36" class="edge">
<title>Errors::invalid_state&#45;&gt;Errors::make</title>
<path fill="none" stroke="black" d="M437.78,-90.15C458.94,-78.85 488.07,-63.28 509.99,-51.57"/>
<polygon fill="black" stroke="black" points="511.73,-54.61 518.9,-46.81 508.43,-48.44 511.73,-54.61"/>
</g>
<!-- Errors::limit_exceeded&#45;&gt;Errors::make -->
<g id="edge37" class="edge">
<title>Errors::limit_exceeded&#45;&gt;Errors::make</title>
<path fill="none" stroke="black" d="M782.22,-91.35C770.68,-87.42 757.89,-83.3 746,-80 688.71,-64.09 621.17,-50.18 579.72,-42.18"/>
<polygon fill="black" stroke="black" points="580.24,-38.72 569.76,-40.28 578.93,-45.6 580.24,-38.72"/>
</g>
</g>
</svg>
