<?xml version="1.0" encoding="UTF-8" standalone="no"?>
<!DOCTYPE svg PUBLIC "-//W3C//DTD SVG 1.1//EN"
 "http://www.w3.org/Graphics/SVG/1.1/DTD/svg11.dtd">
<!-- Generated by graphviz version 2.46.1 (20210213.1702)
 -->
<!-- Title: G Pages: 1 -->
<svg width="992pt" height="620pt"
 viewBox="0.00 0.00 992.00 620.00" xmlns="http://www.w3.org/2000/svg" xmlns:xlink="http://www.w3.org/1999/xlink">
<g id="graph0" class="graph" transform="scale(1 1) rotate(0) translate(4 616)">
<title>G</title>
<polygon fill="white" stroke="transparent" points="-4,4 -4,-616 988,-616 988,4 -4,4"/>
<!-- DesignatedDealer -->
<g id="node1" class="node">
<title>DesignatedDealer</title>
<ellipse fill="none" stroke="black" cx="657" cy="-594" rx="73.39" ry="18"/>
<text text-anchor="middle" x="657" y="-590.3" font-family="Times,serif" font-size="14.00">DesignatedDealer</text>
</g>
<!-- Signer -->
<g id="node2" class="node">
<title>Signer</title>
<ellipse fill="none" stroke="black" cx="240" cy="-18" rx="33.6" ry="18"/>
<text text-anchor="middle" x="240" y="-14.3" font-family="Times,serif" font-size="14.00">Signer</text>
</g>
<!-- DesignatedDealer&#45;&gt;Signer -->
<g id="edge1" class="edge">
<title>DesignatedDealer&#45;&gt;Signer</title>
<path fill="none" stroke="black" d="M584.46,-591.02C456.41,-586.7 195.89,-573.92 112,-540 53.05,-516.17 0,-514.58 0,-451 0,-451 0,-451 0,-161 0,-114.27 18.65,-100.09 56,-72 97.43,-40.84 156.65,-27.98 196.62,-22.68"/>
<polygon fill="black" stroke="black" points="197.1,-26.15 206.6,-21.46 196.25,-19.2 197.1,-26.15"/>
</g>
<!-- Errors -->
<g id="node3" class="node">
<title>Errors</title>
<ellipse fill="none" stroke="black" cx="610" cy="-18" rx="32.49" ry="18"/>
<text text-anchor="middle" x="610" y="-14.3" font-family="Times,serif" font-size="14.00">Errors</text>
</g>
<!-- DesignatedDealer&#45;&gt;Errors -->
<g id="edge2" class="edge">
<title>DesignatedDealer&#45;&gt;Errors</title>
<path fill="none" stroke="black" d="M730.39,-592.12C826.8,-586.64 984,-560.86 984,-451 984,-451 984,-451 984,-161 984,-118.16 980.67,-98.48 947,-72 902,-36.61 732.79,-24.45 652.62,-20.61"/>
<polygon fill="black" stroke="black" points="652.53,-17.1 642.38,-20.14 652.21,-24.1 652.53,-17.1"/>
</g>
<!-- Roles -->
<g id="node4" class="node">
<title>Roles</title>
<ellipse fill="none" stroke="black" cx="559" cy="-234" rx="30.59" ry="18"/>
<text text-anchor="middle" x="559" y="-230.3" font-family="Times,serif" font-size="14.00">Roles</text>
</g>
<!-- DesignatedDealer&#45;&gt;Roles -->
<g id="edge3" class="edge">
<title>DesignatedDealer&#45;&gt;Roles</title>
<path fill="none" stroke="black" d="M662.87,-575.74C671.34,-549.25 686,-496.79 686,-451 686,-451 686,-451 686,-377 686,-319.68 627.79,-274.89 590.19,-251.93"/>
<polygon fill="black" stroke="black" points="591.51,-248.65 581.12,-246.57 587.95,-254.67 591.51,-248.65"/>
</g>
<!-- Event -->
<g id="node5" class="node">
<title>Event</title>
<ellipse fill="none" stroke="black" cx="175" cy="-234" rx="31.4" ry="18"/>
<text text-anchor="middle" x="175" y="-230.3" font-family="Times,serif" font-size="14.00">Event</text>
</g>
<!-- DesignatedDealer&#45;&gt;Event -->
<g id="edge4" class="edge">
<title>DesignatedDealer&#45;&gt;Event</title>
<path fill="none" stroke="black" d="M584.88,-590.45C429.29,-582.99 76,-554.64 76,-451 76,-451 76,-451 76,-377 76,-326.18 119.2,-280.54 148.52,-255.41"/>
<polygon fill="black" stroke="black" points="150.93,-257.96 156.38,-248.88 146.45,-252.58 150.93,-257.96"/>
</g>
<!-- Diem -->
<g id="node6" class="node">
<title>Diem</title>
<ellipse fill="none" stroke="black" cx="572" cy="-450" rx="30.59" ry="18"/>
<text text-anchor="middle" x="572" y="-446.3" font-family="Times,serif" font-size="14.00">Diem</text>
</g>
<!-- DesignatedDealer&#45;&gt;Diem -->
<g id="edge5" class="edge">
<title>DesignatedDealer&#45;&gt;Diem</title>
<path fill="none" stroke="black" d="M646.92,-576.15C632.07,-551.36 604.25,-504.88 587.01,-476.07"/>
<polygon fill="black" stroke="black" points="589.95,-474.17 581.81,-467.39 583.94,-477.76 589.95,-474.17"/>
</g>
<!-- XUS -->
<g id="node7" class="node">
<title>XUS</title>
<ellipse fill="none" stroke="black" cx="743" cy="-522" rx="28.7" ry="18"/>
<text text-anchor="middle" x="743" y="-518.3" font-family="Times,serif" font-size="14.00">XUS</text>
</g>
<!-- DesignatedDealer&#45;&gt;XUS -->
<g id="edge6" class="edge">
<title>DesignatedDealer&#45;&gt;XUS</title>
<path fill="none" stroke="black" d="M677.38,-576.41C689.6,-566.46 705.24,-553.74 718.18,-543.2"/>
<polygon fill="black" stroke="black" points="720.68,-545.68 726.23,-536.65 716.27,-540.25 720.68,-545.68"/>
</g>
<!-- Roles&#45;&gt;Signer -->
<g id="edge7" class="edge">
<title>Roles&#45;&gt;Signer</title>
<path fill="none" stroke="black" d="M555.87,-216.07C548.81,-182.92 528.42,-109.42 481,-72 450.72,-48.11 343.78,-31.6 283.02,-23.91"/>
<polygon fill="black" stroke="black" points="283.32,-20.42 272.97,-22.67 282.46,-27.37 283.32,-20.42"/>
</g>
<!-- Roles&#45;&gt;Errors -->
<g id="edge8" class="edge">
<title>Roles&#45;&gt;Errors</title>
<path fill="none" stroke="black" d="M563.09,-215.85C571.95,-178.66 592.99,-90.37 603.62,-45.77"/>
<polygon fill="black" stroke="black" points="607.05,-46.47 605.96,-35.94 600.24,-44.85 607.05,-46.47"/>
</g>
<!-- CoreAddresses -->
<g id="node8" class="node">
<title>CoreAddresses</title>
<ellipse fill="none" stroke="black" cx="408" cy="-90" rx="63.89" ry="18"/>
<text text-anchor="middle" x="408" y="-86.3" font-family="Times,serif" font-size="14.00">CoreAddresses</text>
</g>
<!-- Roles&#45;&gt;CoreAddresses -->
<g id="edge9" class="edge">
<title>Roles&#45;&gt;CoreAddresses</title>
<path fill="none" stroke="black" d="M538.88,-220.17C523.68,-210.07 502.66,-195.2 486,-180 464.15,-160.07 442.21,-134.41 427.19,-115.77"/>
<polygon fill="black" stroke="black" points="429.77,-113.39 420.8,-107.74 424.29,-117.75 429.77,-113.39"/>
</g>
<!-- DiemTimestamp -->
<g id="node9" class="node">
<title>DiemTimestamp</title>
<ellipse fill="none" stroke="black" cx="675" cy="-162" rx="71.49" ry="18"/>
<text text-anchor="middle" x="675" y="-158.3" font-family="Times,serif" font-size="14.00">DiemTimestamp</text>
</g>
<!-- Roles&#45;&gt;DiemTimestamp -->
<g id="edge10" class="edge">
<title>Roles&#45;&gt;DiemTimestamp</title>
<path fill="none" stroke="black" d="M579.74,-220.49C596.47,-210.39 620.36,-195.97 640.04,-184.1"/>
<polygon fill="black" stroke="black" points="641.99,-187.01 648.74,-178.85 638.37,-181.02 641.99,-187.01"/>
</g>
<!-- Event&#45;&gt;Signer -->
<g id="edge11" class="edge">
<title>Event&#45;&gt;Signer</title>
<path fill="none" stroke="black" d="M148.98,-223.58C130.24,-215.26 106.35,-201.14 95,-180 87.43,-165.9 88.33,-158.55 95,-144 117.94,-93.94 171.93,-56.31 207.16,-36"/>
<polygon fill="black" stroke="black" points="209.12,-38.92 216.12,-30.97 205.69,-32.81 209.12,-38.92"/>
</g>
<!-- Event&#45;&gt;Errors -->
<g id="edge12" class="edge">
<title>Event&#45;&gt;Errors</title>
<path fill="none" stroke="black" d="M177.61,-215.85C181.19,-196.81 189.08,-165.89 205,-144 236.57,-100.58 252.64,-93.13 302,-72 391.35,-33.75 506.47,-23.08 567.54,-20.12"/>
<polygon fill="black" stroke="black" points="567.75,-23.61 577.58,-19.68 567.44,-16.62 567.75,-23.61"/>
</g>
<!-- Vector -->
<g id="node10" class="node">
<title>Vector</title>
<ellipse fill="none" stroke="black" cx="248" cy="-162" rx="33.6" ry="18"/>
<text text-anchor="middle" x="248" y="-158.3" font-family="Times,serif" font-size="14.00">Vector</text>
</g>
<!-- Event&#45;&gt;Vector -->
<g id="edge13" class="edge">
<title>Event&#45;&gt;Vector</title>
<path fill="none" stroke="black" d="M190.48,-218.15C200.48,-208.57 213.67,-195.92 224.89,-185.16"/>
<polygon fill="black" stroke="black" points="227.49,-187.51 232.29,-178.07 222.65,-182.46 227.49,-187.51"/>
</g>
<!-- BCS -->
<g id="node11" class="node">
<title>BCS</title>
<ellipse fill="none" stroke="black" cx="131" cy="-162" rx="27.1" ry="18"/>
<text text-anchor="middle" x="131" y="-158.3" font-family="Times,serif" font-size="14.00">BCS</text>
</g>
<!-- Event&#45;&gt;BCS -->
<g id="edge14" class="edge">
<title>Event&#45;&gt;BCS</title>
<path fill="none" stroke="black" d="M164.79,-216.76C159.41,-208.19 152.68,-197.49 146.65,-187.9"/>
<polygon fill="black" stroke="black" points="149.43,-185.75 141.15,-179.15 143.51,-189.48 149.43,-185.75"/>
</g>
<!-- Diem&#45;&gt;Signer -->
<g id="edge15" class="edge">
<title>Diem&#45;&gt;Signer</title>
<path fill="none" stroke="black" d="M541.57,-447.37C462.32,-442.74 251.45,-427.68 190,-396 102.53,-350.91 38,-333.41 38,-235 38,-235 38,-235 38,-161 38,-82.99 140.07,-44.14 199.1,-28.19"/>
<polygon fill="black" stroke="black" points="200.08,-31.55 208.88,-25.64 198.32,-24.77 200.08,-31.55"/>
</g>
<!-- Diem&#45;&gt;Errors -->
<g id="edge16" class="edge">
<title>Diem&#45;&gt;Errors</title>
<path fill="none" stroke="black" d="M596.17,-438.62C662.04,-410.27 840.52,-333.03 851,-324 886.59,-293.34 908,-281.97 908,-235 908,-235 908,-235 908,-161 908,-49.16 734.82,-25.31 652.5,-20.3"/>
<polygon fill="black" stroke="black" points="652.63,-16.8 642.46,-19.75 652.25,-23.79 652.63,-16.8"/>
</g>
<!-- Diem&#45;&gt;Roles -->
<g id="edge19" class="edge">
<title>Diem&#45;&gt;Roles</title>
<path fill="none" stroke="black" d="M570.96,-431.85C568.71,-394.83 563.38,-307.18 560.66,-262.39"/>
<polygon fill="black" stroke="black" points="564.15,-262 560.05,-252.23 557.16,-262.43 564.15,-262"/>
</g>
<!-- Diem&#45;&gt;Event -->
<g id="edge22" class="edge">
<title>Diem&#45;&gt;Event</title>
<path fill="none" stroke="black" d="M541.31,-448.52C464.63,-446.7 267.46,-437.95 220,-396 181.77,-362.21 174.83,-298.89 174.23,-262.55"/>
<polygon fill="black" stroke="black" points="177.73,-262.19 174.22,-252.19 170.73,-262.2 177.73,-262.19"/>
</g>
<!-- Diem&#45;&gt;CoreAddresses -->
<g id="edge17" class="edge">
<title>Diem&#45;&gt;CoreAddresses</title>
<path fill="none" stroke="black" d="M542.36,-445.4C490.72,-438.52 387.43,-421.84 363,-396 289.34,-318.07 358.53,-175.31 392.1,-116.93"/>
<polygon fill="black" stroke="black" points="395.3,-118.38 397.34,-107.99 389.27,-114.84 395.3,-118.38"/>
</g>
<!-- Diem&#45;&gt;DiemTimestamp -->
<g id="edge18" class="edge">
<title>Diem&#45;&gt;DiemTimestamp</title>
<path fill="none" stroke="black" d="M578.13,-431.97C595.42,-383.98 644.6,-247.41 665.46,-189.49"/>
<polygon fill="black" stroke="black" points="668.8,-190.54 668.9,-179.94 662.22,-188.17 668.8,-190.54"/>
</g>
<!-- Diem&#45;&gt;Vector -->
<g id="edge21" class="edge">
<title>Diem&#45;&gt;Vector</title>
<path fill="none" stroke="black" d="M541.59,-447.92C473.88,-444.85 313.83,-433.68 278,-396 224.57,-339.81 233.95,-238.57 242.32,-190.19"/>
<polygon fill="black" stroke="black" points="245.8,-190.63 244.18,-180.16 238.92,-189.35 245.8,-190.63"/>
</g>
<!-- FixedPoint32 -->
<g id="node12" class="node">
<title>FixedPoint32</title>
<ellipse fill="none" stroke="black" cx="848" cy="-378" rx="57.69" ry="18"/>
<text text-anchor="middle" x="848" y="-374.3" font-family="Times,serif" font-size="14.00">FixedPoint32</text>
</g>
<!-- Diem&#45;&gt;FixedPoint32 -->
<g id="edge20" class="edge">
<title>Diem&#45;&gt;FixedPoint32</title>
<path fill="none" stroke="black" d="M599.47,-442.03C644.84,-430.53 736.21,-407.35 794.63,-392.54"/>
<polygon fill="black" stroke="black" points="795.59,-395.9 804.42,-390.05 793.87,-389.12 795.59,-395.9"/>
</g>
<!-- RegisteredCurrencies -->
<g id="node13" class="node">
<title>RegisteredCurrencies</title>
<ellipse fill="none" stroke="black" cx="458" cy="-378" rx="86.38" ry="18"/>
<text text-anchor="middle" x="458" y="-374.3" font-family="Times,serif" font-size="14.00">RegisteredCurrencies</text>
</g>
<!-- Diem&#45;&gt;RegisteredCurrencies -->
<g id="edge23" class="edge">
<title>Diem&#45;&gt;RegisteredCurrencies</title>
<path fill="none" stroke="black" d="M551.62,-436.49C535.48,-426.57 512.53,-412.49 493.4,-400.74"/>
<polygon fill="black" stroke="black" points="495,-397.61 484.64,-395.36 491.33,-403.57 495,-397.61"/>
</g>
<!-- XUS&#45;&gt;Diem -->
<g id="edge26" class="edge">
<title>XUS&#45;&gt;Diem</title>
<path fill="none" stroke="black" d="M719.58,-511.41C690.19,-499.38 639.58,-478.66 605.94,-464.89"/>
<polygon fill="black" stroke="black" points="607.1,-461.59 596.52,-461.04 604.45,-468.06 607.1,-461.59"/>
</g>
<!-- XUS&#45;&gt;DiemTimestamp -->
<g id="edge24" class="edge">
<title>XUS&#45;&gt;DiemTimestamp</title>
<path fill="none" stroke="black" d="M767.45,-512.54C821.52,-492.27 944.22,-436.85 915,-360 881,-270.56 778.76,-210.44 719.26,-181.98"/>
<polygon fill="black" stroke="black" points="720.64,-178.76 710.1,-177.68 717.67,-185.1 720.64,-178.76"/>
</g>
<!-- XUS&#45;&gt;FixedPoint32 -->
<g id="edge25" class="edge">
<title>XUS&#45;&gt;FixedPoint32</title>
<path fill="none" stroke="black" d="M754.64,-505.26C772.81,-480.68 808.09,-432.98 829.69,-403.76"/>
<polygon fill="black" stroke="black" points="832.53,-405.81 835.66,-395.69 826.9,-401.65 832.53,-405.81"/>
</g>
<!-- AccountLimits -->
<g id="node14" class="node">
<title>AccountLimits</title>
<ellipse fill="none" stroke="black" cx="778" cy="-306" rx="63.89" ry="18"/>
<text text-anchor="middle" x="778" y="-302.3" font-family="Times,serif" font-size="14.00">AccountLimits</text>
</g>
<!-- XUS&#45;&gt;AccountLimits -->
<g id="edge27" class="edge">
<title>XUS&#45;&gt;AccountLimits</title>
<path fill="none" stroke="black" d="M745.81,-503.85C751.87,-466.75 766.26,-378.81 773.57,-334.1"/>
<polygon fill="black" stroke="black" points="777.02,-334.67 775.18,-324.23 770.11,-333.54 777.02,-334.67"/>
</g>
<!-- CoreAddresses&#45;&gt;Signer -->
<g id="edge28" class="edge">
<title>CoreAddresses&#45;&gt;Signer</title>
<path fill="none" stroke="black" d="M373.6,-74.67C344.88,-62.7 304.1,-45.71 275.17,-33.65"/>
<polygon fill="black" stroke="black" points="276.43,-30.39 265.85,-29.77 273.73,-36.85 276.43,-30.39"/>
</g>
<!-- CoreAddresses&#45;&gt;Errors -->
<g id="edge29" class="edge">
<title>CoreAddresses&#45;&gt;Errors</title>
<path fill="none" stroke="black" d="M446.95,-75.5C483.52,-62.83 537.82,-44.01 573.55,-31.63"/>
<polygon fill="black" stroke="black" points="574.81,-34.9 583.11,-28.32 572.52,-28.29 574.81,-34.9"/>
</g>
<!-- DiemTimestamp&#45;&gt;Errors -->
<g id="edge30" class="edge">
<title>DiemTimestamp&#45;&gt;Errors</title>
<path fill="none" stroke="black" d="M667.16,-143.87C655.92,-119.33 635.15,-73.94 621.98,-45.17"/>
<polygon fill="black" stroke="black" points="625.01,-43.38 617.67,-35.75 618.65,-46.3 625.01,-43.38"/>
</g>
<!-- DiemTimestamp&#45;&gt;CoreAddresses -->
<g id="edge31" class="edge">
<title>DiemTimestamp&#45;&gt;CoreAddresses</title>
<path fill="none" stroke="black" d="M627.27,-148.49C581.1,-136.38 511.2,-118.06 462.78,-105.36"/>
<polygon fill="black" stroke="black" points="463.66,-101.97 453.1,-102.82 461.88,-108.74 463.66,-101.97"/>
</g>
<!-- FixedPoint32&#45;&gt;Errors -->
<g id="edge32" class="edge">
<title>FixedPoint32&#45;&gt;Errors</title>
<path fill="none" stroke="black" d="M877.46,-362.32C892.84,-353.25 910.74,-340.23 922,-324 945.35,-290.33 946,-275.97 946,-235 946,-235 946,-235 946,-161 946,-120.03 952.31,-99.56 922,-72 883.17,-36.7 728.58,-24.57 652.6,-20.69"/>
<polygon fill="black" stroke="black" points="652.58,-17.18 642.42,-20.19 652.24,-24.17 652.58,-17.18"/>
</g>
<!-- RegisteredCurrencies&#45;&gt;Errors -->
<g id="edge33" class="edge">
<title>RegisteredCurrencies&#45;&gt;Errors</title>
<path fill="none" stroke="black" d="M464.04,-359.93C474.59,-330.37 497.33,-267.85 519,-216 546.15,-151.05 555.32,-135.84 585,-72 589.11,-63.15 593.65,-53.5 597.72,-44.88"/>
<polygon fill="black" stroke="black" points="600.96,-46.22 602.07,-35.69 594.63,-43.23 600.96,-46.22"/>
</g>
<!-- RegisteredCurrencies&#45;&gt;Roles -->
<g id="edge35" class="edge">
<title>RegisteredCurrencies&#45;&gt;Roles</title>
<path fill="none" stroke="black" d="M477.11,-359.96C487.56,-350.07 500.31,-337.03 510,-324 524.81,-304.09 538.15,-279.18 547.15,-260.78"/>
<polygon fill="black" stroke="black" points="550.4,-262.09 551.57,-251.55 544.09,-259.06 550.4,-262.09"/>
</g>
<!-- RegisteredCurrencies&#45;&gt;DiemTimestamp -->
<g id="edge34" class="edge">
<title>RegisteredCurrencies&#45;&gt;DiemTimestamp</title>
<path fill="none" stroke="black" d="M485.23,-360.92C500.81,-351.14 520.31,-337.89 536,-324 584.49,-281.09 631.76,-221.44 656.74,-188.1"/>
<polygon fill="black" stroke="black" points="659.73,-189.94 662.88,-179.83 654.11,-185.77 659.73,-189.94"/>
</g>
<!-- RegisteredCurrencies&#45;&gt;Vector -->
<g id="edge36" class="edge">
<title>RegisteredCurrencies&#45;&gt;Vector</title>
<path fill="none" stroke="black" d="M414.57,-362.41C393.12,-353.67 367.87,-340.94 349,-324 305.87,-285.28 274.37,-223.89 258.85,-189.18"/>
<polygon fill="black" stroke="black" points="261.94,-187.49 254.73,-179.72 255.52,-190.29 261.94,-187.49"/>
</g>
<!-- DiemConfig -->
<g id="node15" class="node">
<title>DiemConfig</title>
<ellipse fill="none" stroke="black" cx="413" cy="-306" rx="54.69" ry="18"/>
<text text-anchor="middle" x="413" y="-302.3" font-family="Times,serif" font-size="14.00">DiemConfig</text>
</g>
<!-- RegisteredCurrencies&#45;&gt;DiemConfig -->
<g id="edge37" class="edge">
<title>RegisteredCurrencies&#45;&gt;DiemConfig</title>
<path fill="none" stroke="black" d="M447.11,-360.05C441.75,-351.71 435.17,-341.49 429.23,-332.25"/>
<polygon fill="black" stroke="black" points="432.14,-330.31 423.79,-323.79 426.26,-334.09 432.14,-330.31"/>
</g>
<!-- AccountLimits&#45;&gt;Signer -->
<g id="edge38" class="edge">
<title>AccountLimits&#45;&gt;Signer</title>
<path fill="none" stroke="black" d="M781.05,-287.54C785.65,-255.08 790.43,-185.03 755,-144 692.82,-72 395.05,-34.76 282.87,-23.1"/>
<polygon fill="black" stroke="black" points="283.23,-19.62 272.92,-22.08 282.52,-26.58 283.23,-19.62"/>
</g>
<!-- AccountLimits&#45;&gt;Errors -->
<g id="edge39" class="edge">
<title>AccountLimits&#45;&gt;Errors</title>
<path fill="none" stroke="black" d="M785.3,-287.96C801.88,-246.33 837.25,-138.05 788,-72 771.57,-49.97 698.08,-33.77 650.81,-25.41"/>
<polygon fill="black" stroke="black" points="651.31,-21.95 640.87,-23.7 650.13,-28.85 651.31,-21.95"/>
</g>
<!-- AccountLimits&#45;&gt;Roles -->
<g id="edge41" class="edge">
<title>AccountLimits&#45;&gt;Roles</title>
<path fill="none" stroke="black" d="M737.58,-292.08C696.76,-279.03 634.3,-259.07 595.1,-246.54"/>
<polygon fill="black" stroke="black" points="596.01,-243.16 585.42,-243.45 593.88,-249.82 596.01,-243.16"/>
</g>
<!-- AccountLimits&#45;&gt;DiemTimestamp -->
<g id="edge40" class="edge">
<title>AccountLimits&#45;&gt;DiemTimestamp</title>
<path fill="none" stroke="black" d="M765.78,-288.15C747.82,-263.39 714.15,-216.97 693.25,-188.16"/>
<polygon fill="black" stroke="black" points="695.91,-185.86 687.2,-179.82 690.24,-189.97 695.91,-185.86"/>
</g>
<!-- DiemConfig&#45;&gt;Signer -->
<g id="edge42" class="edge">
<title>DiemConfig&#45;&gt;Signer</title>
<path fill="none" stroke="black" d="M399.07,-288.27C390.82,-278.06 380.38,-264.59 372,-252 323.77,-179.48 275.44,-88.33 252.99,-44.65"/>
<polygon fill="black" stroke="black" points="256.02,-42.89 248.35,-35.58 249.79,-46.07 256.02,-42.89"/>
</g>
<!-- DiemConfig&#45;&gt;Errors -->
<g id="edge43" class="edge">
<title>DiemConfig&#45;&gt;Errors</title>
<path fill="none" stroke="black" d="M405.25,-287.88C386.94,-247.06 342,-144.68 335,-108 332,-92.28 324.81,-84.34 335,-72 363.97,-36.92 497.54,-24.8 567.3,-20.83"/>
<polygon fill="black" stroke="black" points="567.72,-24.31 577.52,-20.28 567.35,-17.32 567.72,-24.31"/>
</g>
<!-- DiemConfig&#45;&gt;Roles -->
<g id="edge46" class="edge">
<title>DiemConfig&#45;&gt;Roles</title>
<path fill="none" stroke="black" d="M442.55,-290.83C466.93,-279.14 501.48,-262.58 526.61,-250.53"/>
<polygon fill="black" stroke="black" points="528.24,-253.63 535.74,-246.15 525.21,-247.32 528.24,-253.63"/>
</g>
<!-- DiemConfig&#45;&gt;Event -->
<g id="edge47" class="edge">
<title>DiemConfig&#45;&gt;Event</title>
<path fill="none" stroke="black" d="M373.7,-293.44C328.75,-280.22 255.71,-258.74 211.82,-245.83"/>
<polygon fill="black" stroke="black" points="212.71,-242.44 202.12,-242.98 210.73,-249.16 212.71,-242.44"/>
</g>
<!-- DiemConfig&#45;&gt;CoreAddresses -->
<g id="edge44" class="edge">
<title>DiemConfig&#45;&gt;CoreAddresses</title>
<path fill="none" stroke="black" d="M412.6,-287.85C411.73,-250.83 409.69,-163.18 408.64,-118.39"/>
<polygon fill="black" stroke="black" points="412.14,-118.15 408.4,-108.23 405.14,-118.31 412.14,-118.15"/>
</g>
<!-- DiemConfig&#45;&gt;DiemTimestamp -->
<g id="edge45" class="edge">
<title>DiemConfig&#45;&gt;DiemTimestamp</title>
<path fill="none" stroke="black" d="M428.8,-288.4C448.34,-268.72 483.41,-236.05 519,-216 548.89,-199.16 585.02,-186.47 614.97,-177.73"/>
<polygon fill="black" stroke="black" points="616.22,-181.02 624.88,-174.92 614.3,-174.28 616.22,-181.02"/>
</g>
</g>
</svg>
