<?xml version="1.0" encoding="UTF-8" standalone="no"?>
<!DOCTYPE svg PUBLIC "-//W3C//DTD SVG 1.1//EN"
 "http://www.w3.org/Graphics/SVG/1.1/DTD/svg11.dtd">
<!-- Generated by graphviz version 2.46.1 (20210213.1702)
 -->
<!-- Title: G Pages: 1 -->
<svg width="1086pt" height="260pt"
 viewBox="0.00 0.00 1085.55 260.00" xmlns="http://www.w3.org/2000/svg" xmlns:xlink="http://www.w3.org/1999/xlink">
<g id="graph0" class="graph" transform="scale(1 1) rotate(0) translate(4 256)">
<title>G</title>
<polygon fill="white" stroke="transparent" points="-4,4 -4,-256 1081.55,-256 1081.55,4 -4,4"/>
<!-- DesignatedDealer -->
<g id="node1" class="node">
<title>DesignatedDealer</title>
<ellipse fill="none" stroke="black" cx="501.36" cy="-18" rx="73.39" ry="18"/>
<text text-anchor="middle" x="501.36" y="-14.3" font-family="Times,serif" font-size="14.00">DesignatedDealer</text>
</g>
<!-- DiemAccount -->
<g id="node2" class="node">
<title>DiemAccount</title>
<ellipse fill="none" stroke="black" cx="501.36" cy="-90" rx="60.39" ry="18"/>
<text text-anchor="middle" x="501.36" y="-86.3" font-family="Times,serif" font-size="14.00">DiemAccount</text>
</g>
<!-- DiemAccount&#45;&gt;DesignatedDealer -->
<g id="edge1" class="edge">
<title>DiemAccount&#45;&gt;DesignatedDealer</title>
<path fill="none" stroke="black" d="M501.36,-71.7C501.36,-63.98 501.36,-54.71 501.36,-46.11"/>
<polygon fill="black" stroke="black" points="504.86,-46.1 501.36,-36.1 497.86,-46.1 504.86,-46.1"/>
</g>
<!-- SharedEd25519PublicKey -->
<g id="node3" class="node">
<title>SharedEd25519PublicKey</title>
<ellipse fill="none" stroke="black" cx="120.36" cy="-162" rx="103.98" ry="18"/>
<text text-anchor="middle" x="120.36" y="-158.3" font-family="Times,serif" font-size="14.00">SharedEd25519PublicKey</text>
</g>
<!-- SharedEd25519PublicKey&#45;&gt;DiemAccount -->
<g id="edge2" class="edge">
<title>SharedEd25519PublicKey&#45;&gt;DiemAccount</title>
<path fill="none" stroke="black" d="M188.92,-148.4C260.75,-135.21 372.49,-114.68 441.07,-102.08"/>
<polygon fill="black" stroke="black" points="442.07,-105.45 451.27,-100.2 440.81,-98.57 442.07,-105.45"/>
</g>
<!-- RecoveryAddress -->
<g id="node4" class="node">
<title>RecoveryAddress</title>
<ellipse fill="none" stroke="black" cx="315.36" cy="-162" rx="73.39" ry="18"/>
<text text-anchor="middle" x="315.36" y="-158.3" font-family="Times,serif" font-size="14.00">RecoveryAddress</text>
</g>
<!-- RecoveryAddress&#45;&gt;DiemAccount -->
<g id="edge3" class="edge">
<title>RecoveryAddress&#45;&gt;DiemAccount</title>
<path fill="none" stroke="black" d="M353.9,-146.5C383.6,-135.32 424.74,-119.83 456.03,-108.06"/>
<polygon fill="black" stroke="black" points="457.27,-111.33 465.39,-104.54 454.8,-104.78 457.27,-111.33"/>
</g>
<!-- AccountAdministrationScripts -->
<g id="node5" class="node">
<title>AccountAdministrationScripts</title>
<ellipse fill="none" stroke="black" cx="120.36" cy="-234" rx="118.08" ry="18"/>
<text text-anchor="middle" x="120.36" y="-230.3" font-family="Times,serif" font-size="14.00">AccountAdministrationScripts</text>
</g>
<!-- AccountAdministrationScripts&#45;&gt;DiemAccount -->
<g id="edge4" class="edge">
<title>AccountAdministrationScripts&#45;&gt;DiemAccount</title>
<path fill="none" stroke="black" d="M59.16,-218.55C39.16,-210.62 19.1,-198.47 7.36,-180 -1.22,-166.5 -3.33,-155.9 7.36,-144 35.18,-113.04 301.89,-98.64 431.43,-93.42"/>
<polygon fill="black" stroke="black" points="431.79,-96.91 441.65,-93.02 431.52,-89.92 431.79,-96.91"/>
</g>
<!-- AccountAdministrationScripts&#45;&gt;SharedEd25519PublicKey -->
<g id="edge9" class="edge">
<title>AccountAdministrationScripts&#45;&gt;SharedEd25519PublicKey</title>
<path fill="none" stroke="black" d="M120.36,-215.7C120.36,-207.98 120.36,-198.71 120.36,-190.11"/>
<polygon fill="black" stroke="black" points="123.86,-190.1 120.36,-180.1 116.86,-190.1 123.86,-190.1"/>
</g>
<!-- AccountAdministrationScripts&#45;&gt;RecoveryAddress -->
<g id="edge10" class="edge">
<title>AccountAdministrationScripts&#45;&gt;RecoveryAddress</title>
<path fill="none" stroke="black" d="M164.61,-217.12C194.72,-206.31 234.61,-191.99 265.8,-180.79"/>
<polygon fill="black" stroke="black" points="267.36,-183.95 275.59,-177.28 265,-177.36 267.36,-183.95"/>
</g>
<!-- AccountCreationScripts -->
<g id="node6" class="node">
<title>AccountCreationScripts</title>
<ellipse fill="none" stroke="black" cx="501.36" cy="-162" rx="94.78" ry="18"/>
<text text-anchor="middle" x="501.36" y="-158.3" font-family="Times,serif" font-size="14.00">AccountCreationScripts</text>
</g>
<!-- AccountCreationScripts&#45;&gt;DiemAccount -->
<g id="edge5" class="edge">
<title>AccountCreationScripts&#45;&gt;DiemAccount</title>
<path fill="none" stroke="black" d="M501.36,-143.7C501.36,-135.98 501.36,-126.71 501.36,-118.11"/>
<polygon fill="black" stroke="black" points="504.86,-118.1 501.36,-108.1 497.86,-118.1 504.86,-118.1"/>
</g>
<!-- Genesis -->
<g id="node7" class="node">
<title>Genesis</title>
<ellipse fill="none" stroke="black" cx="652.36" cy="-162" rx="38.19" ry="18"/>
<text text-anchor="middle" x="652.36" y="-158.3" font-family="Times,serif" font-size="14.00">Genesis</text>
</g>
<!-- Genesis&#45;&gt;DiemAccount -->
<g id="edge6" class="edge">
<title>Genesis&#45;&gt;DiemAccount</title>
<path fill="none" stroke="black" d="M626.06,-148.81C602.78,-138.01 568.44,-122.1 541.69,-109.7"/>
<polygon fill="black" stroke="black" points="543.12,-106.5 532.58,-105.47 540.18,-112.85 543.12,-106.5"/>
</g>
<!-- PaymentScripts -->
<g id="node8" class="node">
<title>PaymentScripts</title>
<ellipse fill="none" stroke="black" cx="775.36" cy="-162" rx="66.09" ry="18"/>
<text text-anchor="middle" x="775.36" y="-158.3" font-family="Times,serif" font-size="14.00">PaymentScripts</text>
</g>
<!-- PaymentScripts&#45;&gt;DiemAccount -->
<g id="edge7" class="edge">
<title>PaymentScripts&#45;&gt;DiemAccount</title>
<path fill="none" stroke="black" d="M728.88,-149.13C680.93,-136.87 606.2,-117.78 555.58,-104.85"/>
<polygon fill="black" stroke="black" points="556.35,-101.44 545.79,-102.35 554.62,-108.22 556.35,-101.44"/>
</g>
<!-- TreasuryComplianceScripts -->
<g id="node9" class="node">
<title>TreasuryComplianceScripts</title>
<ellipse fill="none" stroke="black" cx="968.36" cy="-162" rx="109.38" ry="18"/>
<text text-anchor="middle" x="968.36" y="-158.3" font-family="Times,serif" font-size="14.00">TreasuryComplianceScripts</text>
</g>
<!-- TreasuryComplianceScripts&#45;&gt;DiemAccount -->
<g id="edge8" class="edge">
<title>TreasuryComplianceScripts&#45;&gt;DiemAccount</title>
<path fill="none" stroke="black" d="M890.46,-149.32C798.81,-135.59 648.48,-113.05 564.02,-100.39"/>
<polygon fill="black" stroke="black" points="564.46,-96.92 554.05,-98.9 563.42,-103.84 564.46,-96.92"/>
</g>
</g>
</svg>
