<?xml version="1.0" encoding="UTF-8" standalone="no"?>
<!DOCTYPE svg PUBLIC "-//W3C//DTD SVG 1.1//EN"
 "http://www.w3.org/Graphics/SVG/1.1/DTD/svg11.dtd">
<!-- Generated by graphviz version 2.46.1 (20210213.1702)
 -->
<!-- Title: G Pages: 1 -->
<svg width="2334pt" height="664pt"
 viewBox="0.00 0.00 2334.00 664.00" xmlns="http://www.w3.org/2000/svg" xmlns:xlink="http://www.w3.org/1999/xlink">
<g id="graph0" class="graph" transform="scale(1 1) rotate(0) translate(4 660)">
<title>G</title>
<polygon fill="white" stroke="transparent" points="-4,4 -4,-660 2330,-660 2330,4 -4,4"/>
<g id="clust1" class="cluster">
<title>cluster_Signer</title>
<polygon fill="none" stroke="black" points="741,-80 741,-227 891,-227 891,-80 741,-80"/>
<text text-anchor="middle" x="816" y="-211.8" font-family="Times,serif" font-size="14.00">Signer</text>
</g>
<g id="clust2" class="cluster">
<title>cluster_Errors</title>
<polygon fill="none" stroke="black" points="1428,-152 1428,-310 2318,-310 2318,-152 1428,-152"/>
<text text-anchor="middle" x="1873" y="-294.8" font-family="Times,serif" font-size="14.00">Errors</text>
</g>
<g id="clust3" class="cluster">
<title>cluster_Roles</title>
<polygon fill="none" stroke="black" points="912,-318 912,-393 1361,-393 1361,-318 912,-318"/>
<text text-anchor="middle" x="1136.5" y="-377.8" font-family="Times,serif" font-size="14.00">Roles</text>
</g>
<g id="clust4" class="cluster">
<title>cluster_Event</title>
<polygon fill="none" stroke="black" points="191,-235 191,-393 361,-393 361,-235 191,-235"/>
<text text-anchor="middle" x="276" y="-377.8" font-family="Times,serif" font-size="14.00">Event</text>
</g>
<g id="clust5" class="cluster">
<title>cluster_CoreAddresses</title>
<polygon fill="none" stroke="black" points="912,-152 912,-310 1420,-310 1420,-152 912,-152"/>
<text text-anchor="middle" x="1166" y="-294.8" font-family="Times,serif" font-size="14.00">CoreAddresses</text>
</g>
<g id="clust6" class="cluster">
<title>cluster_Diem</title>
<polygon fill="none" stroke="black" points="439,-235 439,-540 836,-540 836,-235 439,-235"/>
<text text-anchor="middle" x="637.5" y="-524.8" font-family="Times,serif" font-size="14.00">Diem</text>
</g>
<g id="clust7" class="cluster">
<title>cluster_Vector</title>
<polygon fill="none" stroke="black" points="112,-8 112,-227 672,-227 672,-8 112,-8"/>
<text text-anchor="middle" x="392" y="-211.8" font-family="Times,serif" font-size="14.00">Vector</text>
</g>
<g id="clust8" class="cluster">
<title>cluster_BCS</title>
<polygon fill="none" stroke="black" points="8,-152 8,-227 104,-227 104,-152 8,-152"/>
<text text-anchor="middle" x="56" y="-211.8" font-family="Times,serif" font-size="14.00">BCS</text>
</g>
<!-- publish_designated_dealer_credential -->
<g id="node1" class="node">
<title>publish_designated_dealer_credential</title>
<ellipse fill="none" stroke="black" cx="1414" cy="-638" rx="143.77" ry="18"/>
<text text-anchor="middle" x="1414" y="-634.3" font-family="Times,serif" font-size="14.00">publish_designated_dealer_credential</text>
</g>
<!-- Signer::address_of -->
<g id="node2" class="node">
<title>Signer::address_of</title>
<ellipse fill="none" stroke="black" cx="816" cy="-178" rx="48.99" ry="18"/>
<text text-anchor="middle" x="816" y="-174.3" font-family="Times,serif" font-size="14.00">address_of</text>
</g>
<!-- publish_designated_dealer_credential&#45;&gt;Signer::address_of -->
<g id="edge1" class="edge">
<title>publish_designated_dealer_credential&#45;&gt;Signer::address_of</title>
<path fill="none" stroke="black" d="M1281.09,-631.01C1024.46,-618.45 479.59,-586.62 408,-540 387.49,-526.64 381,-516.48 381,-492 381,-492 381,-492 381,-343 381,-293.3 371.02,-265.83 410,-235 421.6,-225.83 661.45,-229.65 676,-227 710.94,-220.64 748.95,-207.15 776.54,-196.09"/>
<polygon fill="black" stroke="black" points="777.91,-199.32 785.85,-192.3 775.26,-192.84 777.91,-199.32"/>
</g>
<!-- Errors::already_published -->
<g id="node3" class="node">
<title>Errors::already_published</title>
<ellipse fill="none" stroke="black" cx="2235" cy="-261" rx="75.29" ry="18"/>
<text text-anchor="middle" x="2235" y="-257.3" font-family="Times,serif" font-size="14.00">already_published</text>
</g>
<!-- publish_designated_dealer_credential&#45;&gt;Errors::already_published -->
<g id="edge2" class="edge">
<title>publish_designated_dealer_credential&#45;&gt;Errors::already_published</title>
<path fill="none" stroke="black" d="M1519.77,-625.8C1658.37,-608.13 1884,-567.73 1884,-492 1884,-492 1884,-492 1884,-418 1884,-289.99 2035.83,-365.88 2151,-310 2167.52,-301.98 2185.25,-292.06 2200.14,-283.32"/>
<polygon fill="black" stroke="black" points="2202.19,-286.17 2209.01,-278.06 2198.62,-280.15 2202.19,-286.17"/>
</g>
<!-- Roles::assert_treasury_compliance -->
<g id="node4" class="node">
<title>Roles::assert_treasury_compliance</title>
<ellipse fill="none" stroke="black" cx="1244" cy="-344" rx="108.58" ry="18"/>
<text text-anchor="middle" x="1244" y="-340.3" font-family="Times,serif" font-size="14.00">assert_treasury_compliance</text>
</g>
<!-- publish_designated_dealer_credential&#45;&gt;Roles::assert_treasury_compliance -->
<g id="edge3" class="edge">
<title>publish_designated_dealer_credential&#45;&gt;Roles::assert_treasury_compliance</title>
<path fill="none" stroke="black" d="M1414.36,-619.72C1414.39,-601.63 1413.43,-572.49 1408,-548 1392.42,-477.72 1390.09,-452.7 1340,-401 1326.18,-386.74 1307.95,-374.89 1291.1,-365.82"/>
<polygon fill="black" stroke="black" points="1292.4,-362.55 1281.91,-361.07 1289.18,-368.77 1292.4,-362.55"/>
</g>
<!-- Roles::assert_designated_dealer -->
<g id="node5" class="node">
<title>Roles::assert_designated_dealer</title>
<ellipse fill="none" stroke="black" cx="1019" cy="-344" rx="98.58" ry="18"/>
<text text-anchor="middle" x="1019" y="-340.3" font-family="Times,serif" font-size="14.00">assert_designated_dealer</text>
</g>
<!-- publish_designated_dealer_credential&#45;&gt;Roles::assert_designated_dealer -->
<g id="edge4" class="edge">
<title>publish_designated_dealer_credential&#45;&gt;Roles::assert_designated_dealer</title>
<path fill="none" stroke="black" d="M1420.4,-619.74C1426.18,-601.41 1432.58,-571.85 1424,-548 1409.36,-507.31 1397.61,-497.54 1362,-473 1270.81,-410.15 1229.09,-433.49 1126,-393 1104.5,-384.56 1081.05,-374.17 1061.59,-365.22"/>
<polygon fill="black" stroke="black" points="1062.93,-361.99 1052.39,-360.96 1059.99,-368.34 1062.93,-361.99"/>
</g>
<!-- Event::new_event_handle -->
<g id="node6" class="node">
<title>Event::new_event_handle</title>
<ellipse fill="none" stroke="black" cx="276" cy="-344" rx="76.89" ry="18"/>
<text text-anchor="middle" x="276" y="-340.3" font-family="Times,serif" font-size="14.00">new_event_handle</text>
</g>
<!-- publish_designated_dealer_credential&#45;&gt;Event::new_event_handle -->
<g id="edge5" class="edge">
<title>publish_designated_dealer_credential&#45;&gt;Event::new_event_handle</title>
<path fill="none" stroke="black" d="M1273.83,-633.94C996.88,-627.34 403.04,-610.21 367,-584 297.78,-533.66 281.21,-423.6 277.24,-372.31"/>
<polygon fill="black" stroke="black" points="280.73,-372.05 276.57,-362.3 273.75,-372.51 280.73,-372.05"/>
</g>
<!-- add_currency -->
<g id="node7" class="node">
<title>add_currency</title>
<ellipse fill="none" stroke="black" cx="1341" cy="-566" rx="58.49" ry="18"/>
<text text-anchor="middle" x="1341" y="-562.3" font-family="Times,serif" font-size="14.00">add_currency</text>
</g>
<!-- publish_designated_dealer_credential&#45;&gt;add_currency -->
<g id="edge6" class="edge">
<title>publish_designated_dealer_credential&#45;&gt;add_currency</title>
<path fill="none" stroke="black" d="M1396.33,-620.05C1387.05,-611.16 1375.53,-600.11 1365.41,-590.41"/>
<polygon fill="black" stroke="black" points="1367.65,-587.7 1358.01,-583.31 1362.8,-592.75 1367.65,-587.7"/>
</g>
<!-- Signer::borrow_address -->
<g id="node8" class="node">
<title>Signer::borrow_address</title>
<ellipse fill="none" stroke="black" cx="816" cy="-106" rx="66.89" ry="18"/>
<text text-anchor="middle" x="816" y="-102.3" font-family="Times,serif" font-size="14.00">borrow_address</text>
</g>
<!-- Signer::address_of&#45;&gt;Signer::borrow_address -->
<g id="edge7" class="edge">
<title>Signer::address_of&#45;&gt;Signer::borrow_address</title>
<path fill="none" stroke="black" d="M816,-159.7C816,-151.98 816,-142.71 816,-134.11"/>
<polygon fill="black" stroke="black" points="819.5,-134.1 816,-124.1 812.5,-134.1 819.5,-134.1"/>
</g>
<!-- Errors::make -->
<g id="node9" class="node">
<title>Errors::make</title>
<ellipse fill="none" stroke="black" cx="1836" cy="-178" rx="30.59" ry="18"/>
<text text-anchor="middle" x="1836" y="-174.3" font-family="Times,serif" font-size="14.00">make</text>
</g>
<!-- Errors::already_published&#45;&gt;Errors::make -->
<g id="edge8" class="edge">
<title>Errors::already_published&#45;&gt;Errors::make</title>
<path fill="none" stroke="black" d="M2191.65,-246.08C2178.66,-242.18 2164.33,-238.16 2151,-235 2052.85,-211.75 1935.44,-193.31 1875.49,-184.55"/>
<polygon fill="black" stroke="black" points="1875.72,-181.05 1865.32,-183.08 1874.72,-187.97 1875.72,-181.05"/>
</g>
<!-- Roles::assert_treasury_compliance&#45;&gt;Signer::address_of -->
<g id="edge9" class="edge">
<title>Roles::assert_treasury_compliance&#45;&gt;Signer::address_of</title>
<path fill="none" stroke="black" d="M1186.61,-328.66C1167.74,-324.5 1146.58,-320.43 1127,-318 1102.84,-315 928.22,-323.56 908,-310 877.61,-289.61 895.09,-264.91 874,-235 865.39,-222.79 853.87,-211.02 843.36,-201.45"/>
<polygon fill="black" stroke="black" points="845.41,-198.59 835.6,-194.59 840.78,-203.83 845.41,-198.59"/>
</g>
<!-- Errors::not_published -->
<g id="node10" class="node">
<title>Errors::not_published</title>
<ellipse fill="none" stroke="black" cx="1626" cy="-261" rx="60.39" ry="18"/>
<text text-anchor="middle" x="1626" y="-257.3" font-family="Times,serif" font-size="14.00">not_published</text>
</g>
<!-- Roles::assert_treasury_compliance&#45;&gt;Errors::not_published -->
<g id="edge10" class="edge">
<title>Roles::assert_treasury_compliance&#45;&gt;Errors::not_published</title>
<path fill="none" stroke="black" d="M1303.75,-328.88C1323.75,-324.68 1346.23,-320.53 1367,-318 1408.95,-312.89 1516.95,-323.49 1557,-310 1572.84,-304.66 1588.32,-294.49 1600.6,-284.88"/>
<polygon fill="black" stroke="black" points="1603.02,-287.42 1608.54,-278.38 1598.59,-282 1603.02,-287.42"/>
</g>
<!-- Errors::requires_role -->
<g id="node11" class="node">
<title>Errors::requires_role</title>
<ellipse fill="none" stroke="black" cx="1762" cy="-261" rx="57.39" ry="18"/>
<text text-anchor="middle" x="1762" y="-257.3" font-family="Times,serif" font-size="14.00">requires_role</text>
</g>
<!-- Roles::assert_treasury_compliance&#45;&gt;Errors::requires_role -->
<g id="edge11" class="edge">
<title>Roles::assert_treasury_compliance&#45;&gt;Errors::requires_role</title>
<path fill="none" stroke="black" d="M1302.79,-328.86C1323.02,-324.58 1345.89,-320.38 1367,-318 1403.23,-313.91 1660.43,-321.57 1695,-310 1710.66,-304.76 1725.81,-294.49 1737.73,-284.8"/>
<polygon fill="black" stroke="black" points="1740.09,-287.39 1745.44,-278.24 1735.55,-282.05 1740.09,-287.39"/>
</g>
<!-- CoreAddresses::assert_treasury_compliance -->
<g id="node12" class="node">
<title>CoreAddresses::assert_treasury_compliance</title>
<ellipse fill="none" stroke="black" cx="1303" cy="-261" rx="108.58" ry="18"/>
<text text-anchor="middle" x="1303" y="-257.3" font-family="Times,serif" font-size="14.00">assert_treasury_compliance</text>
</g>
<!-- Roles::assert_treasury_compliance&#45;&gt;CoreAddresses::assert_treasury_compliance -->
<g id="edge12" class="edge">
<title>Roles::assert_treasury_compliance&#45;&gt;CoreAddresses::assert_treasury_compliance</title>
<path fill="none" stroke="black" d="M1256.51,-325.82C1264.65,-314.65 1275.4,-299.9 1284.51,-287.38"/>
<polygon fill="black" stroke="black" points="1287.45,-289.3 1290.51,-279.15 1281.79,-285.18 1287.45,-289.3"/>
</g>
<!-- Roles::assert_designated_dealer&#45;&gt;Signer::address_of -->
<g id="edge13" class="edge">
<title>Roles::assert_designated_dealer&#45;&gt;Signer::address_of</title>
<path fill="none" stroke="black" d="M932.16,-335.38C912.79,-330.4 893.45,-322.48 878,-310 873.57,-306.43 844.46,-242.53 827.75,-205.32"/>
<polygon fill="black" stroke="black" points="830.88,-203.74 823.59,-196.05 824.49,-206.6 830.88,-203.74"/>
</g>
<!-- Roles::assert_designated_dealer&#45;&gt;Errors::not_published -->
<g id="edge14" class="edge">
<title>Roles::assert_designated_dealer&#45;&gt;Errors::not_published</title>
<path fill="none" stroke="black" d="M1070.58,-328.63C1088.03,-324.39 1107.73,-320.28 1126,-318 1173.53,-312.07 1511.43,-324.76 1557,-310 1573.02,-304.81 1588.61,-294.55 1600.91,-284.84"/>
<polygon fill="black" stroke="black" points="1603.38,-287.34 1608.87,-278.28 1598.92,-281.95 1603.38,-287.34"/>
</g>
<!-- Roles::assert_designated_dealer&#45;&gt;Errors::requires_role -->
<g id="edge15" class="edge">
<title>Roles::assert_designated_dealer&#45;&gt;Errors::requires_role</title>
<path fill="none" stroke="black" d="M1070.57,-328.58C1088.03,-324.34 1107.73,-320.24 1126,-318 1157.38,-314.16 1664.97,-319.88 1695,-310 1710.68,-304.84 1725.84,-294.58 1737.76,-284.87"/>
<polygon fill="black" stroke="black" points="1740.12,-287.45 1745.46,-278.3 1735.58,-282.13 1740.12,-287.45"/>
</g>
<!-- Event::new_event_handle&#45;&gt;Signer::address_of -->
<g id="edge16" class="edge">
<title>Event::new_event_handle&#45;&gt;Signer::address_of</title>
<path fill="none" stroke="black" d="M303.59,-327.13C310.76,-322.22 318.11,-316.4 324,-310 350.04,-281.74 334.01,-254.69 367,-235 381.75,-226.2 659.1,-230.04 676,-227 711.06,-220.69 749.21,-207.13 776.82,-196.03"/>
<polygon fill="black" stroke="black" points="778.19,-199.25 786.12,-192.22 775.54,-192.77 778.19,-199.25"/>
</g>
<!-- Event::new_event_handle&#45;&gt;Errors::not_published -->
<g id="edge17" class="edge">
<title>Event::new_event_handle&#45;&gt;Errors::not_published</title>
<path fill="none" stroke="black" d="M333.16,-331.9C363.32,-326.58 401.02,-320.78 435,-318 466.06,-315.46 1527.29,-319.43 1557,-310 1573.05,-304.9 1588.64,-294.65 1600.94,-284.93"/>
<polygon fill="black" stroke="black" points="1603.42,-287.42 1608.89,-278.35 1598.95,-282.03 1603.42,-287.42"/>
</g>
<!-- Event::fresh_guid -->
<g id="node13" class="node">
<title>Event::fresh_guid</title>
<ellipse fill="none" stroke="black" cx="267" cy="-261" rx="48.19" ry="18"/>
<text text-anchor="middle" x="267" y="-257.3" font-family="Times,serif" font-size="14.00">fresh_guid</text>
</g>
<!-- Event::new_event_handle&#45;&gt;Event::fresh_guid -->
<g id="edge18" class="edge">
<title>Event::new_event_handle&#45;&gt;Event::fresh_guid</title>
<path fill="none" stroke="black" d="M274.09,-325.82C272.91,-315.19 271.37,-301.31 270.02,-289.2"/>
<polygon fill="black" stroke="black" points="273.49,-288.71 268.91,-279.15 266.53,-289.48 273.49,-288.71"/>
</g>
<!-- add_currency&#45;&gt;Signer::address_of -->
<g id="edge19" class="edge">
<title>add_currency&#45;&gt;Signer::address_of</title>
<path fill="none" stroke="black" d="M1282.71,-564.4C1084.93,-562.24 450.79,-554.21 435,-540 395.01,-504 419,-473.81 419,-420 419,-420 419,-420 419,-343 419,-294.48 398.79,-267.3 435,-235 445,-226.08 662.82,-229.42 676,-227 710.93,-220.58 748.94,-207.1 776.54,-196.06"/>
<polygon fill="black" stroke="black" points="777.9,-199.28 785.84,-192.27 775.26,-192.8 777.9,-199.28"/>
</g>
<!-- add_currency&#45;&gt;Roles::assert_treasury_compliance -->
<g id="edge21" class="edge">
<title>add_currency&#45;&gt;Roles::assert_treasury_compliance</title>
<path fill="none" stroke="black" d="M1357.44,-548.53C1359.3,-545.86 1360.91,-542.98 1362,-540 1372.19,-512.02 1372.83,-500.74 1362,-473 1344.78,-428.93 1304.5,-390.89 1275.8,-367.99"/>
<polygon fill="black" stroke="black" points="1277.71,-365.04 1267.67,-361.66 1273.41,-370.57 1277.71,-365.04"/>
</g>
<!-- add_currency&#45;&gt;Errors::not_published -->
<g id="edge20" class="edge">
<title>add_currency&#45;&gt;Errors::not_published</title>
<path fill="none" stroke="black" d="M1366.61,-549.49C1370.89,-546.52 1375.18,-543.31 1379,-540 1474.78,-457.15 1568.79,-338.05 1607.52,-286.89"/>
<polygon fill="black" stroke="black" points="1610.45,-288.81 1613.67,-278.72 1604.86,-284.6 1610.45,-288.81"/>
</g>
<!-- Diem::publish_preburn_queue_to_account -->
<g id="node14" class="node">
<title>Diem::publish_preburn_queue_to_account</title>
<ellipse fill="none" stroke="black" cx="692" cy="-491" rx="136.48" ry="18"/>
<text text-anchor="middle" x="692" y="-487.3" font-family="Times,serif" font-size="14.00">publish_preburn_queue_to_account</text>
</g>
<!-- add_currency&#45;&gt;Diem::publish_preburn_queue_to_account -->
<g id="edge22" class="edge">
<title>add_currency&#45;&gt;Diem::publish_preburn_queue_to_account</title>
<path fill="none" stroke="black" d="M1287.06,-558.93C1180.87,-546.99 942.82,-520.21 802.11,-504.38"/>
<polygon fill="black" stroke="black" points="802.48,-500.9 792.15,-503.26 801.69,-507.86 802.48,-500.9"/>
</g>
<!-- exists_at -->
<g id="node15" class="node">
<title>exists_at</title>
<ellipse fill="none" stroke="black" cx="1311" cy="-491" rx="41.69" ry="18"/>
<text text-anchor="middle" x="1311" y="-487.3" font-family="Times,serif" font-size="14.00">exists_at</text>
</g>
<!-- add_currency&#45;&gt;exists_at -->
<g id="edge23" class="edge">
<title>add_currency&#45;&gt;exists_at</title>
<path fill="none" stroke="black" d="M1334.04,-548.07C1330.41,-539.22 1325.88,-528.2 1321.8,-518.28"/>
<polygon fill="black" stroke="black" points="1324.96,-516.76 1317.92,-508.84 1318.48,-519.42 1324.96,-516.76"/>
</g>
<!-- Errors::not_published&#45;&gt;Errors::make -->
<g id="edge24" class="edge">
<title>Errors::not_published&#45;&gt;Errors::make</title>
<path fill="none" stroke="black" d="M1661.62,-246.26C1700.62,-231.22 1762.72,-207.27 1801.33,-192.37"/>
<polygon fill="black" stroke="black" points="1803.01,-195.47 1811.08,-188.61 1800.49,-188.94 1803.01,-195.47"/>
</g>
<!-- Errors::requires_role&#45;&gt;Errors::make -->
<g id="edge25" class="edge">
<title>Errors::requires_role&#45;&gt;Errors::make</title>
<path fill="none" stroke="black" d="M1776.98,-243.61C1787.99,-231.55 1803.1,-215.01 1815.27,-201.69"/>
<polygon fill="black" stroke="black" points="1817.89,-204.01 1822.05,-194.27 1812.72,-199.29 1817.89,-204.01"/>
</g>
<!-- CoreAddresses::assert_treasury_compliance&#45;&gt;Signer::address_of -->
<g id="edge26" class="edge">
<title>CoreAddresses::assert_treasury_compliance&#45;&gt;Signer::address_of</title>
<path fill="none" stroke="black" d="M1245.73,-245.7C1226.55,-241.49 1204.96,-237.38 1185,-235 1123.85,-227.7 967.59,-242.53 908,-227 886.33,-221.35 864,-209.87 846.78,-199.55"/>
<polygon fill="black" stroke="black" points="848.61,-196.57 838.26,-194.3 844.94,-202.53 848.61,-196.57"/>
</g>
<!-- Errors::requires_address -->
<g id="node16" class="node">
<title>Errors::requires_address</title>
<ellipse fill="none" stroke="black" cx="2072" cy="-261" rx="69.59" ry="18"/>
<text text-anchor="middle" x="2072" y="-257.3" font-family="Times,serif" font-size="14.00">requires_address</text>
</g>
<!-- CoreAddresses::assert_treasury_compliance&#45;&gt;Errors::requires_address -->
<g id="edge27" class="edge">
<title>CoreAddresses::assert_treasury_compliance&#45;&gt;Errors::requires_address</title>
<path fill="none" stroke="black" d="M1335.3,-278.29C1360.96,-290.99 1398.2,-307.18 1433,-314 1448.02,-316.94 1969.03,-317.18 1984,-314 2005.99,-309.33 2027.65,-296.42 2043.99,-284.5"/>
<polygon fill="black" stroke="black" points="2046.16,-287.25 2052.01,-278.41 2041.93,-281.67 2046.16,-287.25"/>
</g>
<!-- CoreAddresses::TREASURY_COMPLIANCE_ADDRESS -->
<g id="node17" class="node">
<title>CoreAddresses::TREASURY_COMPLIANCE_ADDRESS</title>
<ellipse fill="none" stroke="black" cx="1249" cy="-178" rx="163.27" ry="18"/>
<text text-anchor="middle" x="1249" y="-174.3" font-family="Times,serif" font-size="14.00">TREASURY_COMPLIANCE_ADDRESS</text>
</g>
<!-- CoreAddresses::assert_treasury_compliance&#45;&gt;CoreAddresses::TREASURY_COMPLIANCE_ADDRESS -->
<g id="edge28" class="edge">
<title>CoreAddresses::assert_treasury_compliance&#45;&gt;CoreAddresses::TREASURY_COMPLIANCE_ADDRESS</title>
<path fill="none" stroke="black" d="M1291.55,-242.82C1284.17,-231.76 1274.45,-217.18 1266.16,-204.75"/>
<polygon fill="black" stroke="black" points="1268.89,-202.53 1260.44,-196.15 1263.07,-206.42 1268.89,-202.53"/>
</g>
<!-- Vector::append -->
<g id="node18" class="node">
<title>Vector::append</title>
<ellipse fill="none" stroke="black" cx="329" cy="-178" rx="36.29" ry="18"/>
<text text-anchor="middle" x="329" y="-174.3" font-family="Times,serif" font-size="14.00">append</text>
</g>
<!-- Event::fresh_guid&#45;&gt;Vector::append -->
<g id="edge29" class="edge">
<title>Event::fresh_guid&#45;&gt;Vector::append</title>
<path fill="none" stroke="black" d="M279.55,-243.61C288.43,-232 300.49,-216.25 310.47,-203.2"/>
<polygon fill="black" stroke="black" points="313.38,-205.16 316.68,-195.09 307.83,-200.9 313.38,-205.16"/>
</g>
<!-- BCS::to_bytes -->
<g id="node19" class="node">
<title>BCS::to_bytes</title>
<ellipse fill="none" stroke="black" cx="56" cy="-178" rx="40.09" ry="18"/>
<text text-anchor="middle" x="56" y="-174.3" font-family="Times,serif" font-size="14.00">to_bytes</text>
</g>
<!-- Event::fresh_guid&#45;&gt;BCS::to_bytes -->
<g id="edge30" class="edge">
<title>Event::fresh_guid&#45;&gt;BCS::to_bytes</title>
<path fill="none" stroke="black" d="M219.91,-256.89C187.05,-253.17 142.97,-244.99 108,-227 96.22,-220.94 85.14,-211.47 76.26,-202.54"/>
<polygon fill="black" stroke="black" points="78.77,-200.1 69.35,-195.25 73.69,-204.92 78.77,-200.1"/>
</g>
<!-- Diem::publish_preburn_queue_to_account&#45;&gt;Roles::assert_treasury_compliance -->
<g id="edge32" class="edge">
<title>Diem::publish_preburn_queue_to_account&#45;&gt;Roles::assert_treasury_compliance</title>
<path fill="none" stroke="black" d="M772.05,-476.37C860.14,-460.41 1005.38,-431.2 1127,-393 1151.63,-385.26 1178.32,-374.5 1199.98,-365.13"/>
<polygon fill="black" stroke="black" points="1201.49,-368.3 1209.25,-361.08 1198.68,-361.88 1201.49,-368.3"/>
</g>
<!-- Diem::publish_preburn_queue_to_account&#45;&gt;Roles::assert_designated_dealer -->
<g id="edge33" class="edge">
<title>Diem::publish_preburn_queue_to_account&#45;&gt;Roles::assert_designated_dealer</title>
<path fill="none" stroke="black" d="M739.9,-474.08C768.43,-464.21 805.16,-450.81 837,-437 887.75,-414.99 944.36,-385.57 980.76,-365.99"/>
<polygon fill="black" stroke="black" points="982.43,-369.07 989.56,-361.23 979.1,-362.91 982.43,-369.07"/>
</g>
<!-- Errors::invalid_argument -->
<g id="node20" class="node">
<title>Errors::invalid_argument</title>
<ellipse fill="none" stroke="black" cx="1911" cy="-261" rx="73.39" ry="18"/>
<text text-anchor="middle" x="1911" y="-257.3" font-family="Times,serif" font-size="14.00">invalid_argument</text>
</g>
<!-- Diem::publish_preburn_queue_to_account&#45;&gt;Errors::invalid_argument -->
<g id="edge31" class="edge">
<title>Diem::publish_preburn_queue_to_account&#45;&gt;Errors::invalid_argument</title>
<path fill="none" stroke="black" d="M822.56,-485.6C1038.17,-474.78 1479.45,-437.57 1828,-310 1845.86,-303.46 1864.32,-293.2 1879.28,-283.83"/>
<polygon fill="black" stroke="black" points="1881.58,-286.51 1888.1,-278.16 1877.8,-280.62 1881.58,-286.51"/>
</g>
<!-- Diem::is_synthetic_currency -->
<g id="node21" class="node">
<title>Diem::is_synthetic_currency</title>
<ellipse fill="none" stroke="black" cx="535" cy="-419" rx="87.99" ry="18"/>
<text text-anchor="middle" x="535" y="-415.3" font-family="Times,serif" font-size="14.00">is_synthetic_currency</text>
</g>
<!-- Diem::publish_preburn_queue_to_account&#45;&gt;Diem::is_synthetic_currency -->
<g id="edge34" class="edge">
<title>Diem::publish_preburn_queue_to_account&#45;&gt;Diem::is_synthetic_currency</title>
<path fill="none" stroke="black" d="M655.19,-473.59C632.47,-463.46 603.18,-450.4 579.2,-439.71"/>
<polygon fill="black" stroke="black" points="580.52,-436.46 569.96,-435.59 577.67,-442.86 580.52,-436.46"/>
</g>
<!-- Diem::publish_preburn_queue -->
<g id="node22" class="node">
<title>Diem::publish_preburn_queue</title>
<ellipse fill="none" stroke="black" cx="734" cy="-419" rx="93.68" ry="18"/>
<text text-anchor="middle" x="734" y="-415.3" font-family="Times,serif" font-size="14.00">publish_preburn_queue</text>
</g>
<!-- Diem::publish_preburn_queue_to_account&#45;&gt;Diem::publish_preburn_queue -->
<g id="edge35" class="edge">
<title>Diem::publish_preburn_queue_to_account&#45;&gt;Diem::publish_preburn_queue</title>
<path fill="none" stroke="black" d="M702.38,-472.7C707.26,-464.56 713.19,-454.69 718.58,-445.7"/>
<polygon fill="black" stroke="black" points="721.59,-447.48 723.74,-437.1 715.59,-443.88 721.59,-447.48"/>
</g>
<!-- Errors::requires_address&#45;&gt;Errors::make -->
<g id="edge36" class="edge">
<title>Errors::requires_address&#45;&gt;Errors::make</title>
<path fill="none" stroke="black" d="M2031.97,-246.26C1986.82,-230.77 1914.13,-205.82 1871.12,-191.05"/>
<polygon fill="black" stroke="black" points="1872.23,-187.73 1861.63,-187.8 1869.95,-194.35 1872.23,-187.73"/>
</g>
<!-- Vector::destroy_empty -->
<g id="node23" class="node">
<title>Vector::destroy_empty</title>
<ellipse fill="none" stroke="black" cx="388" cy="-106" rx="63.89" ry="18"/>
<text text-anchor="middle" x="388" y="-102.3" font-family="Times,serif" font-size="14.00">destroy_empty</text>
</g>
<!-- Vector::append&#45;&gt;Vector::destroy_empty -->
<g id="edge37" class="edge">
<title>Vector::append&#45;&gt;Vector::destroy_empty</title>
<path fill="none" stroke="black" d="M342.39,-161.12C349.72,-152.42 358.97,-141.45 367.21,-131.66"/>
<polygon fill="black" stroke="black" points="370.07,-133.7 373.84,-123.8 364.72,-129.19 370.07,-133.7"/>
</g>
<!-- Vector::is_empty -->
<g id="node24" class="node">
<title>Vector::is_empty</title>
<ellipse fill="none" stroke="black" cx="513" cy="-106" rx="43.59" ry="18"/>
<text text-anchor="middle" x="513" y="-102.3" font-family="Times,serif" font-size="14.00">is_empty</text>
</g>
<!-- Vector::append&#45;&gt;Vector::is_empty -->
<g id="edge38" class="edge">
<title>Vector::append&#45;&gt;Vector::is_empty</title>
<path fill="none" stroke="black" d="M356.95,-166.37C387.73,-154.66 437.51,-135.72 472.55,-122.39"/>
<polygon fill="black" stroke="black" points="473.92,-125.61 482.02,-118.79 471.43,-119.07 473.92,-125.61"/>
</g>
<!-- Vector::pop_back -->
<g id="node25" class="node">
<title>Vector::pop_back</title>
<ellipse fill="none" stroke="black" cx="619" cy="-106" rx="44.69" ry="18"/>
<text text-anchor="middle" x="619" y="-102.3" font-family="Times,serif" font-size="14.00">pop_back</text>
</g>
<!-- Vector::append&#45;&gt;Vector::pop_back -->
<g id="edge39" class="edge">
<title>Vector::append&#45;&gt;Vector::pop_back</title>
<path fill="none" stroke="black" d="M362.2,-170.56C408.26,-161.41 493.98,-143.56 566,-124 569.32,-123.1 572.74,-122.12 576.17,-121.1"/>
<polygon fill="black" stroke="black" points="577.24,-124.43 585.78,-118.16 575.19,-117.74 577.24,-124.43"/>
</g>
<!-- Vector::push_back -->
<g id="node26" class="node">
<title>Vector::push_back</title>
<ellipse fill="none" stroke="black" cx="168" cy="-106" rx="48.19" ry="18"/>
<text text-anchor="middle" x="168" y="-102.3" font-family="Times,serif" font-size="14.00">push_back</text>
</g>
<!-- Vector::append&#45;&gt;Vector::push_back -->
<g id="edge40" class="edge">
<title>Vector::append&#45;&gt;Vector::push_back</title>
<path fill="none" stroke="black" d="M302.41,-165.44C276.54,-154.19 236.93,-136.97 207.39,-124.13"/>
<polygon fill="black" stroke="black" points="208.76,-120.9 198.19,-120.13 205.97,-127.32 208.76,-120.9"/>
</g>
<!-- Vector::reverse -->
<g id="node27" class="node">
<title>Vector::reverse</title>
<ellipse fill="none" stroke="black" cx="270" cy="-106" rx="36.29" ry="18"/>
<text text-anchor="middle" x="270" y="-102.3" font-family="Times,serif" font-size="14.00">reverse</text>
</g>
<!-- Vector::append&#45;&gt;Vector::reverse -->
<g id="edge41" class="edge">
<title>Vector::append&#45;&gt;Vector::reverse</title>
<path fill="none" stroke="black" d="M315.61,-161.12C307.99,-152.08 298.31,-140.58 289.82,-130.52"/>
<polygon fill="black" stroke="black" points="292.46,-128.21 283.34,-122.82 287.1,-132.72 292.46,-128.21"/>
</g>
<!-- Errors::invalid_argument&#45;&gt;Errors::make -->
<g id="edge42" class="edge">
<title>Errors::invalid_argument&#45;&gt;Errors::make</title>
<path fill="none" stroke="black" d="M1895.46,-243.22C1884.27,-231.13 1869.05,-214.69 1856.81,-201.48"/>
<polygon fill="black" stroke="black" points="1859.36,-199.08 1850,-194.12 1854.23,-203.84 1859.36,-199.08"/>
</g>
<!-- CoreAddresses::CURRENCY_INFO_ADDRESS -->
<g id="node28" class="node">
<title>CoreAddresses::CURRENCY_INFO_ADDRESS</title>
<ellipse fill="none" stroke="black" cx="1048" cy="-261" rx="128.08" ry="18"/>
<text text-anchor="middle" x="1048" y="-257.3" font-family="Times,serif" font-size="14.00">CURRENCY_INFO_ADDRESS</text>
</g>
<!-- Diem::is_synthetic_currency&#45;&gt;CoreAddresses::CURRENCY_INFO_ADDRESS -->
<g id="edge43" class="edge">
<title>Diem::is_synthetic_currency&#45;&gt;CoreAddresses::CURRENCY_INFO_ADDRESS</title>
<path fill="none" stroke="black" d="M596.3,-406.08C607.8,-404.15 619.74,-402.34 631,-401 659.3,-397.62 732.8,-404.22 759,-393 804.1,-373.68 797.06,-341.74 840,-318 875.3,-298.49 917.78,-285.47 955.12,-276.95"/>
<polygon fill="black" stroke="black" points="955.99,-280.34 965,-274.77 954.48,-273.51 955.99,-280.34"/>
</g>
<!-- Diem::publish_preburn_queue&#45;&gt;Signer::address_of -->
<g id="edge44" class="edge">
<title>Diem::publish_preburn_queue&#45;&gt;Signer::address_of</title>
<path fill="none" stroke="black" d="M753.04,-401.23C755.28,-398.64 757.34,-395.87 759,-393 794.15,-332.02 808.17,-248.82 813.31,-206.36"/>
<polygon fill="black" stroke="black" points="816.81,-206.58 814.46,-196.24 809.86,-205.79 816.81,-206.58"/>
</g>
<!-- Diem::publish_preburn_queue&#45;&gt;Errors::already_published -->
<g id="edge45" class="edge">
<title>Diem::publish_preburn_queue&#45;&gt;Errors::already_published</title>
<path fill="none" stroke="black" d="M800.24,-406.27C833.23,-400.32 866.48,-394.12 868,-393 898.47,-370.66 875.67,-337.54 908,-318 922.78,-309.07 2134.33,-314.48 2151,-310 2170.25,-304.82 2189.71,-294.12 2205.05,-284.14"/>
<polygon fill="black" stroke="black" points="2207.23,-286.89 2213.57,-278.39 2203.32,-281.08 2207.23,-286.89"/>
</g>
<!-- Diem::publish_preburn_queue&#45;&gt;Roles::assert_designated_dealer -->
<g id="edge47" class="edge">
<title>Diem::publish_preburn_queue&#45;&gt;Roles::assert_designated_dealer</title>
<path fill="none" stroke="black" d="M816.27,-410.41C844.99,-406.62 877.23,-401.05 906,-393 930.56,-386.12 956.85,-375.19 977.89,-365.49"/>
<polygon fill="black" stroke="black" points="979.6,-368.55 987.16,-361.14 976.62,-362.22 979.6,-368.55"/>
</g>
<!-- Errors::invalid_state -->
<g id="node29" class="node">
<title>Errors::invalid_state</title>
<ellipse fill="none" stroke="black" cx="1492" cy="-261" rx="55.79" ry="18"/>
<text text-anchor="middle" x="1492" y="-257.3" font-family="Times,serif" font-size="14.00">invalid_state</text>
</g>
<!-- Diem::publish_preburn_queue&#45;&gt;Errors::invalid_state -->
<g id="edge46" class="edge">
<title>Diem::publish_preburn_queue&#45;&gt;Errors::invalid_state</title>
<path fill="none" stroke="black" d="M802.94,-406.8C812.57,-403.36 821.92,-398.87 830,-393 862.02,-369.74 843.42,-337.25 878,-318 904.5,-303.24 1395.15,-319.39 1424,-310 1439.85,-304.84 1455.23,-294.58 1467.34,-284.87"/>
<polygon fill="black" stroke="black" points="1469.75,-287.41 1475.16,-278.3 1465.25,-282.05 1469.75,-287.41"/>
</g>
<!-- Vector::empty -->
<g id="node30" class="node">
<title>Vector::empty</title>
<ellipse fill="none" stroke="black" cx="570" cy="-178" rx="33.29" ry="18"/>
<text text-anchor="middle" x="570" y="-174.3" font-family="Times,serif" font-size="14.00">empty</text>
</g>
<!-- Diem::publish_preburn_queue&#45;&gt;Vector::empty -->
<g id="edge48" class="edge">
<title>Diem::publish_preburn_queue&#45;&gt;Vector::empty</title>
<path fill="none" stroke="black" d="M665.4,-406.63C628.24,-400.4 589.71,-393.78 589,-393 541.63,-341.57 553.45,-250.7 563.17,-205.74"/>
<polygon fill="black" stroke="black" points="566.61,-206.38 565.44,-195.85 559.79,-204.82 566.61,-206.38"/>
</g>
<!-- Diem::assert_is_currency -->
<g id="node31" class="node">
<title>Diem::assert_is_currency</title>
<ellipse fill="none" stroke="black" cx="674" cy="-344" rx="76.09" ry="18"/>
<text text-anchor="middle" x="674" y="-340.3" font-family="Times,serif" font-size="14.00">assert_is_currency</text>
</g>
<!-- Diem::publish_preburn_queue&#45;&gt;Diem::assert_is_currency -->
<g id="edge49" class="edge">
<title>Diem::publish_preburn_queue&#45;&gt;Diem::assert_is_currency</title>
<path fill="none" stroke="black" d="M720.08,-401.07C712.44,-391.76 702.81,-380.05 694.33,-369.74"/>
<polygon fill="black" stroke="black" points="696.89,-367.34 687.84,-361.84 691.49,-371.79 696.89,-367.34"/>
</g>
<!-- Vector::length -->
<g id="node32" class="node">
<title>Vector::length</title>
<ellipse fill="none" stroke="black" cx="431" cy="-34" rx="32.49" ry="18"/>
<text text-anchor="middle" x="431" y="-30.3" font-family="Times,serif" font-size="14.00">length</text>
</g>
<!-- Vector::is_empty&#45;&gt;Vector::length -->
<g id="edge50" class="edge">
<title>Vector::is_empty&#45;&gt;Vector::length</title>
<path fill="none" stroke="black" d="M494.8,-89.46C483.34,-79.68 468.41,-66.93 455.86,-56.22"/>
<polygon fill="black" stroke="black" points="457.91,-53.37 448.03,-49.54 453.36,-58.69 457.91,-53.37"/>
</g>
<!-- Vector::reverse&#45;&gt;Vector::length -->
<g id="edge51" class="edge">
<title>Vector::reverse&#45;&gt;Vector::length</title>
<path fill="none" stroke="black" d="M292.58,-91.66C299.65,-87.7 307.56,-83.49 315,-80 341.01,-67.8 371.3,-56.13 394.41,-47.73"/>
<polygon fill="black" stroke="black" points="395.61,-51.02 403.84,-44.34 393.24,-44.43 395.61,-51.02"/>
</g>
<!-- Vector::swap -->
<g id="node33" class="node">
<title>Vector::swap</title>
<ellipse fill="none" stroke="black" cx="270" cy="-34" rx="28.7" ry="18"/>
<text text-anchor="middle" x="270" y="-30.3" font-family="Times,serif" font-size="14.00">swap</text>
</g>
<!-- Vector::reverse&#45;&gt;Vector::swap -->
<g id="edge52" class="edge">
<title>Vector::reverse&#45;&gt;Vector::swap</title>
<path fill="none" stroke="black" d="M270,-87.7C270,-79.98 270,-70.71 270,-62.11"/>
<polygon fill="black" stroke="black" points="273.5,-62.1 270,-52.1 266.5,-62.1 273.5,-62.1"/>
</g>
<!-- Errors::invalid_state&#45;&gt;Errors::make -->
<g id="edge53" class="edge">
<title>Errors::invalid_state&#45;&gt;Errors::make</title>
<path fill="none" stroke="black" d="M1524.36,-246.31C1534.67,-242.29 1546.2,-238.14 1557,-235 1641.02,-210.6 1742.3,-193.16 1796.76,-184.73"/>
<polygon fill="black" stroke="black" points="1797.33,-188.18 1806.69,-183.21 1796.28,-181.26 1797.33,-188.18"/>
</g>
<!-- Diem::assert_is_currency&#45;&gt;Errors::not_published -->
<g id="edge54" class="edge">
<title>Diem::assert_is_currency&#45;&gt;Errors::not_published</title>
<path fill="none" stroke="black" d="M736.33,-333.55C776.64,-327.89 830.29,-321.19 878,-318 915.64,-315.48 1521.07,-321.5 1557,-310 1573.03,-304.87 1588.63,-294.61 1600.93,-284.89"/>
<polygon fill="black" stroke="black" points="1603.4,-287.39 1608.88,-278.32 1598.94,-281.99 1603.4,-287.39"/>
</g>
<!-- Diem::is_currency -->
<g id="node34" class="node">
<title>Diem::is_currency</title>
<ellipse fill="none" stroke="black" cx="705" cy="-261" rx="51.99" ry="18"/>
<text text-anchor="middle" x="705" y="-257.3" font-family="Times,serif" font-size="14.00">is_currency</text>
</g>
<!-- Diem::assert_is_currency&#45;&gt;Diem::is_currency -->
<g id="edge55" class="edge">
<title>Diem::assert_is_currency&#45;&gt;Diem::is_currency</title>
<path fill="none" stroke="black" d="M680.57,-325.82C684.75,-314.9 690.25,-300.55 694.96,-288.22"/>
<polygon fill="black" stroke="black" points="698.24,-289.47 698.54,-278.88 691.7,-286.96 698.24,-289.47"/>
</g>
<!-- Diem::is_currency&#45;&gt;CoreAddresses::CURRENCY_INFO_ADDRESS -->
<g id="edge56" class="edge">
<title>Diem::is_currency&#45;&gt;CoreAddresses::CURRENCY_INFO_ADDRESS</title>
<path fill="none" stroke="black" d="M757.25,-261C808.1,-261 858.94,-261 909.78,-261"/>
<polygon fill="black" stroke="black" points="909.95,-264.5 919.95,-261 909.95,-257.5 909.95,-264.5"/>
</g>
</g>
</svg>
