<?xml version="1.0" encoding="UTF-8" standalone="no"?>
<!DOCTYPE svg PUBLIC "-//W3C//DTD SVG 1.1//EN"
 "http://www.w3.org/Graphics/SVG/1.1/DTD/svg11.dtd">
<!-- Generated by graphviz version 2.46.1 (20210213.1702)
 -->
<!-- Title: G Pages: 1 -->
<svg width="984pt" height="426pt"
 viewBox="0.00 0.00 984.07 426.00" xmlns="http://www.w3.org/2000/svg" xmlns:xlink="http://www.w3.org/1999/xlink">
<g id="graph0" class="graph" transform="scale(1 1) rotate(0) translate(4 422)">
<title>G</title>
<polygon fill="white" stroke="transparent" points="-4,4 -4,-422 980.07,-422 980.07,4 -4,4"/>
<g id="clust1" class="cluster">
<title>cluster_Errors</title>
<polygon fill="none" stroke="black" points="519.07,-8 519.07,-155 968.07,-155 968.07,-8 519.07,-8"/>
<text text-anchor="middle" x="743.57" y="-139.8" font-family="Times,serif" font-size="14.00">Errors</text>
</g>
<g id="clust2" class="cluster">
<title>cluster_CoreAddresses</title>
<polygon fill="none" stroke="black" points="12.07,-80 12.07,-230 353.07,-230 353.07,-80 12.07,-80"/>
<text text-anchor="middle" x="182.57" y="-214.8" font-family="Times,serif" font-size="14.00">CoreAddresses</text>
</g>
<g id="clust3" class="cluster">
<title>cluster_Signer</title>
<polygon fill="none" stroke="black" points="361.07,-8 361.07,-155 511.07,-155 511.07,-8 361.07,-8"/>
<text text-anchor="middle" x="436.07" y="-139.8" font-family="Times,serif" font-size="14.00">Signer</text>
</g>
<!-- update_global_time -->
<g id="node1" class="node">
<title>update_global_time</title>
<ellipse fill="none" stroke="black" cx="212.07" cy="-400" rx="81.49" ry="18"/>
<text text-anchor="middle" x="212.07" y="-396.3" font-family="Times,serif" font-size="14.00">update_global_time</text>
</g>
<!-- Errors::invalid_argument -->
<g id="node2" class="node">
<title>Errors::invalid_argument</title>
<ellipse fill="none" stroke="black" cx="887.07" cy="-106" rx="73.39" ry="18"/>
<text text-anchor="middle" x="887.07" y="-102.3" font-family="Times,serif" font-size="14.00">invalid_argument</text>
</g>
<!-- update_global_time&#45;&gt;Errors::invalid_argument -->
<g id="edge1" class="edge">
<title>update_global_time&#45;&gt;Errors::invalid_argument</title>
<path fill="none" stroke="black" d="M261.49,-385.7C296.41,-375.86 344.09,-361.52 385.07,-346 576.84,-273.37 623.02,-249.37 805.07,-155 820.96,-146.76 838.11,-136.89 852.6,-128.24"/>
<polygon fill="black" stroke="black" points="854.47,-131.2 861.24,-123.04 850.87,-125.2 854.47,-131.2"/>
</g>
<!-- CoreAddresses::DIEM_ROOT_ADDRESS -->
<g id="node3" class="node">
<title>CoreAddresses::DIEM_ROOT_ADDRESS</title>
<ellipse fill="none" stroke="black" cx="238.07" cy="-181" rx="106.68" ry="18"/>
<text text-anchor="middle" x="238.07" y="-177.3" font-family="Times,serif" font-size="14.00">DIEM_ROOT_ADDRESS</text>
</g>
<!-- update_global_time&#45;&gt;CoreAddresses::DIEM_ROOT_ADDRESS -->
<g id="edge2" class="edge">
<title>update_global_time&#45;&gt;CoreAddresses::DIEM_ROOT_ADDRESS</title>
<path fill="none" stroke="black" d="M214.11,-381.97C218.6,-344.51 229.37,-254.68 234.81,-209.26"/>
<polygon fill="black" stroke="black" points="238.29,-209.59 236.01,-199.25 231.34,-208.76 238.29,-209.59"/>
</g>
<!-- CoreAddresses::VM_RESERVED_ADDRESS -->
<g id="node4" class="node">
<title>CoreAddresses::VM_RESERVED_ADDRESS</title>
<ellipse fill="none" stroke="black" cx="140.07" cy="-106" rx="119.68" ry="18"/>
<text text-anchor="middle" x="140.07" y="-102.3" font-family="Times,serif" font-size="14.00">VM_RESERVED_ADDRESS</text>
</g>
<!-- update_global_time&#45;&gt;CoreAddresses::VM_RESERVED_ADDRESS -->
<g id="edge3" class="edge">
<title>update_global_time&#45;&gt;CoreAddresses::VM_RESERVED_ADDRESS</title>
<path fill="none" stroke="black" d="M179.79,-383.45C132.44,-358.61 46.01,-305.01 11.07,-230 -1.5,-203.01 -5.26,-187.9 11.07,-163 22.87,-145.02 41.81,-132.79 61.59,-124.47"/>
<polygon fill="black" stroke="black" points="62.97,-127.69 71.02,-120.81 60.43,-121.17 62.97,-127.69"/>
</g>
<!-- CoreAddresses::assert_vm -->
<g id="node5" class="node">
<title>CoreAddresses::assert_vm</title>
<ellipse fill="none" stroke="black" cx="67.07" cy="-181" rx="46.59" ry="18"/>
<text text-anchor="middle" x="67.07" y="-177.3" font-family="Times,serif" font-size="14.00">assert_vm</text>
</g>
<!-- update_global_time&#45;&gt;CoreAddresses::assert_vm -->
<g id="edge4" class="edge">
<title>update_global_time&#45;&gt;CoreAddresses::assert_vm</title>
<path fill="none" stroke="black" d="M200.7,-381.97C175.28,-343.93 113.76,-251.87 83.9,-207.18"/>
<polygon fill="black" stroke="black" points="86.67,-205.02 78.2,-198.65 80.85,-208.91 86.67,-205.02"/>
</g>
<!-- assert_operating -->
<g id="node6" class="node">
<title>assert_operating</title>
<ellipse fill="none" stroke="black" cx="308.07" cy="-328" rx="68.49" ry="18"/>
<text text-anchor="middle" x="308.07" y="-324.3" font-family="Times,serif" font-size="14.00">assert_operating</text>
</g>
<!-- update_global_time&#45;&gt;assert_operating -->
<g id="edge5" class="edge">
<title>update_global_time&#45;&gt;assert_operating</title>
<path fill="none" stroke="black" d="M234.83,-382.41C247.59,-373.1 263.69,-361.37 277.54,-351.27"/>
<polygon fill="black" stroke="black" points="279.8,-353.95 285.82,-345.23 275.68,-348.29 279.8,-353.95"/>
</g>
<!-- Errors::make -->
<g id="node7" class="node">
<title>Errors::make</title>
<ellipse fill="none" stroke="black" cx="740.07" cy="-34" rx="30.59" ry="18"/>
<text text-anchor="middle" x="740.07" y="-30.3" font-family="Times,serif" font-size="14.00">make</text>
</g>
<!-- Errors::invalid_argument&#45;&gt;Errors::make -->
<g id="edge6" class="edge">
<title>Errors::invalid_argument&#45;&gt;Errors::make</title>
<path fill="none" stroke="black" d="M854.81,-89.64C830.34,-77.98 796.85,-62.04 772.37,-50.38"/>
<polygon fill="black" stroke="black" points="773.67,-47.12 763.14,-45.98 770.66,-53.44 773.67,-47.12"/>
</g>
<!-- CoreAddresses::assert_vm&#45;&gt;CoreAddresses::VM_RESERVED_ADDRESS -->
<g id="edge9" class="edge">
<title>CoreAddresses::assert_vm&#45;&gt;CoreAddresses::VM_RESERVED_ADDRESS</title>
<path fill="none" stroke="black" d="M83.28,-163.8C92.9,-154.17 105.29,-141.79 116.03,-131.04"/>
<polygon fill="black" stroke="black" points="118.56,-133.46 123.16,-123.92 113.61,-128.51 118.56,-133.46"/>
</g>
<!-- Signer::address_of -->
<g id="node8" class="node">
<title>Signer::address_of</title>
<ellipse fill="none" stroke="black" cx="427.07" cy="-106" rx="48.99" ry="18"/>
<text text-anchor="middle" x="427.07" y="-102.3" font-family="Times,serif" font-size="14.00">address_of</text>
</g>
<!-- CoreAddresses::assert_vm&#45;&gt;Signer::address_of -->
<g id="edge7" class="edge">
<title>CoreAddresses::assert_vm&#45;&gt;Signer::address_of</title>
<path fill="none" stroke="black" d="M100.18,-168.22C107.32,-166.12 114.88,-164.21 122.07,-163 173.6,-154.32 307.43,-171.32 357.07,-155 373.34,-149.65 389.26,-139.27 401.8,-129.53"/>
<polygon fill="black" stroke="black" points="404.34,-131.97 409.9,-122.95 399.93,-126.54 404.34,-131.97"/>
</g>
<!-- Errors::requires_address -->
<g id="node9" class="node">
<title>Errors::requires_address</title>
<ellipse fill="none" stroke="black" cx="597.07" cy="-106" rx="69.59" ry="18"/>
<text text-anchor="middle" x="597.07" y="-102.3" font-family="Times,serif" font-size="14.00">requires_address</text>
</g>
<!-- CoreAddresses::assert_vm&#45;&gt;Errors::requires_address -->
<g id="edge8" class="edge">
<title>CoreAddresses::assert_vm&#45;&gt;Errors::requires_address</title>
<path fill="none" stroke="black" d="M100.17,-168.14C107.31,-166.04 114.87,-164.16 122.07,-163 165.19,-156.04 473.04,-166.86 515.07,-155 533.92,-149.68 552.92,-138.98 567.88,-129.02"/>
<polygon fill="black" stroke="black" points="569.94,-131.85 576.19,-123.29 565.97,-126.09 569.94,-131.85"/>
</g>
<!-- Errors::invalid_state -->
<g id="node10" class="node">
<title>Errors::invalid_state</title>
<ellipse fill="none" stroke="black" cx="740.07" cy="-106" rx="55.79" ry="18"/>
<text text-anchor="middle" x="740.07" y="-102.3" font-family="Times,serif" font-size="14.00">invalid_state</text>
</g>
<!-- assert_operating&#45;&gt;Errors::invalid_state -->
<g id="edge10" class="edge">
<title>assert_operating&#45;&gt;Errors::invalid_state</title>
<path fill="none" stroke="black" d="M344.86,-312.77C412.57,-285.93 560.57,-224.3 676.07,-155 688.7,-147.43 701.84,-137.9 712.9,-129.33"/>
<polygon fill="black" stroke="black" points="715.23,-131.95 720.92,-123.01 710.9,-126.45 715.23,-131.95"/>
</g>
<!-- is_operating -->
<g id="node11" class="node">
<title>is_operating</title>
<ellipse fill="none" stroke="black" cx="301.07" cy="-256" rx="53.89" ry="18"/>
<text text-anchor="middle" x="301.07" y="-252.3" font-family="Times,serif" font-size="14.00">is_operating</text>
</g>
<!-- assert_operating&#45;&gt;is_operating -->
<g id="edge11" class="edge">
<title>assert_operating&#45;&gt;is_operating</title>
<path fill="none" stroke="black" d="M306.34,-309.7C305.57,-301.98 304.65,-292.71 303.79,-284.11"/>
<polygon fill="black" stroke="black" points="307.26,-283.71 302.79,-274.1 300.3,-284.4 307.26,-283.71"/>
</g>
<!-- Signer::borrow_address -->
<g id="node12" class="node">
<title>Signer::borrow_address</title>
<ellipse fill="none" stroke="black" cx="436.07" cy="-34" rx="66.89" ry="18"/>
<text text-anchor="middle" x="436.07" y="-30.3" font-family="Times,serif" font-size="14.00">borrow_address</text>
</g>
<!-- Signer::address_of&#45;&gt;Signer::borrow_address -->
<g id="edge12" class="edge">
<title>Signer::address_of&#45;&gt;Signer::borrow_address</title>
<path fill="none" stroke="black" d="M429.3,-87.7C430.29,-79.98 431.48,-70.71 432.59,-62.11"/>
<polygon fill="black" stroke="black" points="436.07,-62.47 433.88,-52.1 429.13,-61.58 436.07,-62.47"/>
</g>
<!-- Errors::requires_address&#45;&gt;Errors::make -->
<g id="edge13" class="edge">
<title>Errors::requires_address&#45;&gt;Errors::make</title>
<path fill="none" stroke="black" d="M628.1,-89.81C651.74,-78.24 684.19,-62.36 708.07,-50.67"/>
<polygon fill="black" stroke="black" points="709.64,-53.8 717.08,-46.26 706.56,-47.51 709.64,-53.8"/>
</g>
<!-- Errors::invalid_state&#45;&gt;Errors::make -->
<g id="edge14" class="edge">
<title>Errors::invalid_state&#45;&gt;Errors::make</title>
<path fill="none" stroke="black" d="M740.07,-87.7C740.07,-79.98 740.07,-70.71 740.07,-62.11"/>
<polygon fill="black" stroke="black" points="743.57,-62.1 740.07,-52.1 736.57,-62.1 743.57,-62.1"/>
</g>
<!-- is_operating&#45;&gt;CoreAddresses::DIEM_ROOT_ADDRESS -->
<g id="edge15" class="edge">
<title>is_operating&#45;&gt;CoreAddresses::DIEM_ROOT_ADDRESS</title>
<path fill="none" stroke="black" d="M286.78,-238.44C278.68,-229.05 268.39,-217.13 259.36,-206.66"/>
<polygon fill="black" stroke="black" points="261.93,-204.29 252.75,-199.01 256.63,-208.86 261.93,-204.29"/>
</g>
</g>
</svg>
