<?xml version="1.0" encoding="UTF-8" standalone="no"?>
<!DOCTYPE svg PUBLIC "-//W3C//DTD SVG 1.1//EN"
 "http://www.w3.org/Graphics/SVG/1.1/DTD/svg11.dtd">
<!-- Generated by graphviz version 2.46.1 (20210213.1702)
 -->
<!-- Title: G Pages: 1 -->
<svg width="1409pt" height="531pt"
 viewBox="0.00 0.00 1409.00 531.00" xmlns="http://www.w3.org/2000/svg" xmlns:xlink="http://www.w3.org/1999/xlink">
<g id="graph0" class="graph" transform="scale(1 1) rotate(0) translate(4 527)">
<title>G</title>
<polygon fill="white" stroke="transparent" points="-4,4 -4,-527 1405,-527 1405,4 -4,4"/>
<g id="clust1" class="cluster">
<title>cluster_Signer</title>
<polygon fill="none" stroke="black" points="74,-174 74,-321 224,-321 224,-174 74,-174"/>
<text text-anchor="middle" x="149" y="-305.8" font-family="Times,serif" font-size="14.00">Signer</text>
</g>
<g id="clust2" class="cluster">
<title>cluster_Errors</title>
<polygon fill="none" stroke="black" points="815,-8 815,-166 1393,-166 1393,-8 815,-8"/>
<text text-anchor="middle" x="1104" y="-150.8" font-family="Times,serif" font-size="14.00">Errors</text>
</g>
<g id="clust3" class="cluster">
<title>cluster_CoreAddresses</title>
<polygon fill="none" stroke="black" points="123,-8 123,-83 697,-83 697,-8 123,-8"/>
<text text-anchor="middle" x="410" y="-67.8" font-family="Times,serif" font-size="14.00">CoreAddresses</text>
</g>
<g id="clust4" class="cluster">
<title>cluster_Roles</title>
<polygon fill="none" stroke="black" points="8,-329 8,-479 186,-479 186,-329 8,-329"/>
<text text-anchor="middle" x="97" y="-463.8" font-family="Times,serif" font-size="14.00">Roles</text>
</g>
<g id="clust5" class="cluster">
<title>cluster_DiemTimestamp</title>
<polygon fill="none" stroke="black" points="506,-91 506,-404 680,-404 680,-91 506,-91"/>
<text text-anchor="middle" x="593" y="-388.8" font-family="Times,serif" font-size="14.00">DiemTimestamp</text>
</g>
<g id="clust6" class="cluster">
<title>cluster_TransactionFee</title>
<polygon fill="none" stroke="black" points="302,-329 302,-404 468,-404 468,-329 302,-329"/>
<text text-anchor="middle" x="385" y="-388.8" font-family="Times,serif" font-size="14.00">TransactionFee</text>
</g>
<g id="clust7" class="cluster">
<title>cluster_Hash</title>
<polygon fill="none" stroke="black" points="718,-329 718,-404 822,-404 822,-329 718,-329"/>
<text text-anchor="middle" x="770" y="-388.8" font-family="Times,serif" font-size="14.00">Hash</text>
</g>
<g id="clust8" class="cluster">
<title>cluster_ChainId</title>
<polygon fill="none" stroke="black" points="428,-246 428,-321 498,-321 498,-246 428,-246"/>
<text text-anchor="middle" x="463" y="-305.8" font-family="Times,serif" font-size="14.00">ChainId</text>
</g>
<g id="clust9" class="cluster">
<title>cluster_AccountFreezing</title>
<polygon fill="none" stroke="black" points="830,-329 830,-404 996,-404 996,-329 830,-329"/>
<text text-anchor="middle" x="913" y="-388.8" font-family="Times,serif" font-size="14.00">AccountFreezing</text>
</g>
<g id="clust10" class="cluster">
<title>cluster_Diem</title>
<polygon fill="none" stroke="black" points="715,-8 715,-83 791,-83 791,-8 715,-8"/>
<text text-anchor="middle" x="753" y="-67.8" font-family="Times,serif" font-size="14.00">Diem</text>
</g>
<!-- writeset_prologue -->
<g id="node1" class="node">
<title>writeset_prologue</title>
<ellipse fill="none" stroke="black" cx="244" cy="-505" rx="74.19" ry="18"/>
<text text-anchor="middle" x="244" y="-501.3" font-family="Times,serif" font-size="14.00">writeset_prologue</text>
</g>
<!-- Signer::address_of -->
<g id="node2" class="node">
<title>Signer::address_of</title>
<ellipse fill="none" stroke="black" cx="158" cy="-272" rx="48.99" ry="18"/>
<text text-anchor="middle" x="158" y="-268.3" font-family="Times,serif" font-size="14.00">address_of</text>
</g>
<!-- writeset_prologue&#45;&gt;Signer::address_of -->
<g id="edge1" class="edge">
<title>writeset_prologue&#45;&gt;Signer::address_of</title>
<path fill="none" stroke="black" d="M233.78,-487.07C232.4,-484.42 231.09,-481.67 230,-479 204.05,-415.07 216.22,-392.82 190,-329 185.72,-318.59 179.87,-307.72 174.34,-298.36"/>
<polygon fill="black" stroke="black" points="177.18,-296.3 168.99,-289.58 171.2,-299.94 177.18,-296.3"/>
</g>
<!-- Errors::invalid_argument -->
<g id="node3" class="node">
<title>Errors::invalid_argument</title>
<ellipse fill="none" stroke="black" cx="1312" cy="-117" rx="73.39" ry="18"/>
<text text-anchor="middle" x="1312" y="-113.3" font-family="Times,serif" font-size="14.00">invalid_argument</text>
</g>
<!-- writeset_prologue&#45;&gt;Errors::invalid_argument -->
<g id="edge2" class="edge">
<title>writeset_prologue&#45;&gt;Errors::invalid_argument</title>
<path fill="none" stroke="black" d="M318.05,-504.22C428.12,-503.78 641.23,-499.94 821,-479 997.63,-458.43 1048.22,-468.32 1214,-404 1251.95,-389.28 1292,-396.7 1292,-356 1292,-356 1292,-356 1292,-271 1292,-226.67 1300.36,-175.72 1306.27,-145.23"/>
<polygon fill="black" stroke="black" points="1309.72,-145.83 1308.24,-135.34 1302.85,-144.46 1309.72,-145.83"/>
</g>
<!-- CoreAddresses::DIEM_ROOT_ADDRESS -->
<g id="node4" class="node">
<title>CoreAddresses::DIEM_ROOT_ADDRESS</title>
<ellipse fill="none" stroke="black" cx="582" cy="-34" rx="106.68" ry="18"/>
<text text-anchor="middle" x="582" y="-30.3" font-family="Times,serif" font-size="14.00">DIEM_ROOT_ADDRESS</text>
</g>
<!-- writeset_prologue&#45;&gt;CoreAddresses::DIEM_ROOT_ADDRESS -->
<g id="edge3" class="edge">
<title>writeset_prologue&#45;&gt;CoreAddresses::DIEM_ROOT_ADDRESS</title>
<path fill="none" stroke="black" d="M244,-486.68C244,-459.05 244,-403.28 244,-356 244,-356 244,-356 244,-199 244,-183 442.74,-95.1 535.43,-54.98"/>
<polygon fill="black" stroke="black" points="537.07,-58.09 544.86,-50.91 534.29,-51.66 537.07,-58.09"/>
</g>
<!-- Roles::has_diem_root_role -->
<g id="node5" class="node">
<title>Roles::has_diem_root_role</title>
<ellipse fill="none" stroke="black" cx="97" cy="-430" rx="81.49" ry="18"/>
<text text-anchor="middle" x="97" y="-426.3" font-family="Times,serif" font-size="14.00">has_diem_root_role</text>
</g>
<!-- writeset_prologue&#45;&gt;Roles::has_diem_root_role -->
<g id="edge4" class="edge">
<title>writeset_prologue&#45;&gt;Roles::has_diem_root_role</title>
<path fill="none" stroke="black" d="M211.77,-488.63C205.22,-485.47 198.38,-482.14 192,-479 173.82,-470.04 153.78,-459.94 136.81,-451.33"/>
<polygon fill="black" stroke="black" points="138.23,-448.13 127.73,-446.72 135.06,-454.37 138.23,-448.13"/>
</g>
<!-- prologue_common -->
<g id="node6" class="node">
<title>prologue_common</title>
<ellipse fill="none" stroke="black" cx="734" cy="-430" rx="77.99" ry="18"/>
<text text-anchor="middle" x="734" y="-426.3" font-family="Times,serif" font-size="14.00">prologue_common</text>
</g>
<!-- writeset_prologue&#45;&gt;prologue_common -->
<g id="edge5" class="edge">
<title>writeset_prologue&#45;&gt;prologue_common</title>
<path fill="none" stroke="black" d="M305.56,-494.83C395.8,-481.38 563.73,-456.37 660.38,-441.97"/>
<polygon fill="black" stroke="black" points="660.99,-445.42 670.36,-440.48 659.96,-438.49 660.99,-445.42"/>
</g>
<!-- Signer::borrow_address -->
<g id="node7" class="node">
<title>Signer::borrow_address</title>
<ellipse fill="none" stroke="black" cx="149" cy="-200" rx="66.89" ry="18"/>
<text text-anchor="middle" x="149" y="-196.3" font-family="Times,serif" font-size="14.00">borrow_address</text>
</g>
<!-- Signer::address_of&#45;&gt;Signer::borrow_address -->
<g id="edge6" class="edge">
<title>Signer::address_of&#45;&gt;Signer::borrow_address</title>
<path fill="none" stroke="black" d="M155.78,-253.7C154.78,-245.98 153.59,-236.71 152.49,-228.11"/>
<polygon fill="black" stroke="black" points="155.95,-227.58 151.2,-218.1 149,-228.47 155.95,-227.58"/>
</g>
<!-- Errors::make -->
<g id="node8" class="node">
<title>Errors::make</title>
<ellipse fill="none" stroke="black" cx="1084" cy="-34" rx="30.59" ry="18"/>
<text text-anchor="middle" x="1084" y="-30.3" font-family="Times,serif" font-size="14.00">make</text>
</g>
<!-- Errors::invalid_argument&#45;&gt;Errors::make -->
<g id="edge7" class="edge">
<title>Errors::invalid_argument&#45;&gt;Errors::make</title>
<path fill="none" stroke="black" d="M1272.02,-101.8C1228.72,-86.42 1160.32,-62.11 1119.05,-47.45"/>
<polygon fill="black" stroke="black" points="1120.02,-44.08 1109.42,-44.03 1117.67,-50.68 1120.02,-44.08"/>
</g>
<!-- Roles::has_role -->
<g id="node9" class="node">
<title>Roles::has_role</title>
<ellipse fill="none" stroke="black" cx="117" cy="-355" rx="40.09" ry="18"/>
<text text-anchor="middle" x="117" y="-351.3" font-family="Times,serif" font-size="14.00">has_role</text>
</g>
<!-- Roles::has_diem_root_role&#45;&gt;Roles::has_role -->
<g id="edge8" class="edge">
<title>Roles::has_diem_root_role&#45;&gt;Roles::has_role</title>
<path fill="none" stroke="black" d="M101.74,-411.7C104.1,-403.09 107,-392.49 109.64,-382.86"/>
<polygon fill="black" stroke="black" points="113.1,-383.49 112.36,-372.92 106.35,-381.64 113.1,-383.49"/>
</g>
<!-- prologue_common&#45;&gt;Signer::address_of -->
<g id="edge9" class="edge">
<title>prologue_common&#45;&gt;Signer::address_of</title>
<path fill="none" stroke="black" d="M656.57,-427.47C540.07,-424.73 329.88,-417.91 298,-404 253.92,-384.76 255.18,-361.79 220,-329 208.13,-317.94 194.8,-305.85 183.55,-295.75"/>
<polygon fill="black" stroke="black" points="185.56,-292.85 175.77,-288.79 180.89,-298.07 185.56,-292.85"/>
</g>
<!-- prologue_common&#45;&gt;Errors::invalid_argument -->
<g id="edge10" class="edge">
<title>prologue_common&#45;&gt;Errors::invalid_argument</title>
<path fill="none" stroke="black" d="M812.17,-428.81C929.66,-427.88 1141.19,-423.48 1170,-404 1263.55,-340.74 1224.62,-273.52 1278,-174 1283.46,-163.82 1289.94,-152.91 1295.77,-143.44"/>
<polygon fill="black" stroke="black" points="1298.78,-145.22 1301.1,-134.88 1292.84,-141.52 1298.78,-145.22"/>
</g>
<!-- Errors::invalid_state -->
<g id="node10" class="node">
<title>Errors::invalid_state</title>
<ellipse fill="none" stroke="black" cx="879" cy="-117" rx="55.79" ry="18"/>
<text text-anchor="middle" x="879" y="-113.3" font-family="Times,serif" font-size="14.00">invalid_state</text>
</g>
<!-- prologue_common&#45;&gt;Errors::invalid_state -->
<g id="edge11" class="edge">
<title>prologue_common&#45;&gt;Errors::invalid_state</title>
<path fill="none" stroke="black" d="M811.17,-426.94C885.15,-424.15 987.41,-417.83 1000,-404 1072.65,-324.2 957.73,-194.35 904.13,-141.5"/>
<polygon fill="black" stroke="black" points="906.31,-138.73 896.7,-134.27 901.43,-143.75 906.31,-138.73"/>
</g>
<!-- Errors::limit_exceeded -->
<g id="node11" class="node">
<title>Errors::limit_exceeded</title>
<ellipse fill="none" stroke="black" cx="1156" cy="-117" rx="64.99" ry="18"/>
<text text-anchor="middle" x="1156" y="-113.3" font-family="Times,serif" font-size="14.00">limit_exceeded</text>
</g>
<!-- prologue_common&#45;&gt;Errors::limit_exceeded -->
<g id="edge12" class="edge">
<title>prologue_common&#45;&gt;Errors::limit_exceeded</title>
<path fill="none" stroke="black" d="M812.17,-429.58C922.9,-429.6 1114.55,-426.35 1137,-404 1206.72,-334.59 1180.09,-201.82 1164.34,-144.95"/>
<polygon fill="black" stroke="black" points="1167.68,-143.89 1161.55,-135.24 1160.95,-145.82 1167.68,-143.89"/>
</g>
<!-- DiemTimestamp::now_seconds -->
<g id="node12" class="node">
<title>DiemTimestamp::now_seconds</title>
<ellipse fill="none" stroke="black" cx="603" cy="-355" rx="57.69" ry="18"/>
<text text-anchor="middle" x="603" y="-351.3" font-family="Times,serif" font-size="14.00">now_seconds</text>
</g>
<!-- prologue_common&#45;&gt;DiemTimestamp::now_seconds -->
<g id="edge13" class="edge">
<title>prologue_common&#45;&gt;DiemTimestamp::now_seconds</title>
<path fill="none" stroke="black" d="M702.08,-413.47C696.04,-410.41 689.79,-407.16 684,-404 668.19,-395.38 651,-385.29 636.53,-376.59"/>
<polygon fill="black" stroke="black" points="638.28,-373.56 627.91,-371.39 634.66,-379.55 638.28,-373.56"/>
</g>
<!-- TransactionFee::is_coin_initialized -->
<g id="node13" class="node">
<title>TransactionFee::is_coin_initialized</title>
<ellipse fill="none" stroke="black" cx="385" cy="-355" rx="75.29" ry="18"/>
<text text-anchor="middle" x="385" y="-351.3" font-family="Times,serif" font-size="14.00">is_coin_initialized</text>
</g>
<!-- prologue_common&#45;&gt;TransactionFee::is_coin_initialized -->
<g id="edge14" class="edge">
<title>prologue_common&#45;&gt;TransactionFee::is_coin_initialized</title>
<path fill="none" stroke="black" d="M658.66,-425.08C594.43,-421.12 507.35,-414.14 474,-404 454.16,-397.97 433.68,-387.28 417.37,-377.52"/>
<polygon fill="black" stroke="black" points="419.13,-374.49 408.78,-372.23 415.46,-380.45 419.13,-374.49"/>
</g>
<!-- Hash::sha3_256 -->
<g id="node14" class="node">
<title>Hash::sha3_256</title>
<ellipse fill="none" stroke="black" cx="770" cy="-355" rx="44.39" ry="18"/>
<text text-anchor="middle" x="770" y="-351.3" font-family="Times,serif" font-size="14.00">sha3_256</text>
</g>
<!-- prologue_common&#45;&gt;Hash::sha3_256 -->
<g id="edge15" class="edge">
<title>prologue_common&#45;&gt;Hash::sha3_256</title>
<path fill="none" stroke="black" d="M742.35,-412.07C746.76,-403.13 752.26,-391.97 757.19,-381.97"/>
<polygon fill="black" stroke="black" points="760.41,-383.36 761.7,-372.84 754.13,-380.26 760.41,-383.36"/>
</g>
<!-- ChainId::get -->
<g id="node15" class="node">
<title>ChainId::get</title>
<ellipse fill="none" stroke="black" cx="463" cy="-272" rx="27" ry="18"/>
<text text-anchor="middle" x="463" y="-268.3" font-family="Times,serif" font-size="14.00">get</text>
</g>
<!-- prologue_common&#45;&gt;ChainId::get -->
<g id="edge16" class="edge">
<title>prologue_common&#45;&gt;ChainId::get</title>
<path fill="none" stroke="black" d="M655.79,-429.62C597.73,-428.45 524.84,-423.02 502,-404 486.05,-390.72 473.69,-334.44 467.46,-300.11"/>
<polygon fill="black" stroke="black" points="470.9,-299.48 465.73,-290.23 464.01,-300.69 470.9,-299.48"/>
</g>
<!-- AccountFreezing::account_is_frozen -->
<g id="node16" class="node">
<title>AccountFreezing::account_is_frozen</title>
<ellipse fill="none" stroke="black" cx="913" cy="-355" rx="75.29" ry="18"/>
<text text-anchor="middle" x="913" y="-351.3" font-family="Times,serif" font-size="14.00">account_is_frozen</text>
</g>
<!-- prologue_common&#45;&gt;AccountFreezing::account_is_frozen -->
<g id="edge17" class="edge">
<title>prologue_common&#45;&gt;AccountFreezing::account_is_frozen</title>
<path fill="none" stroke="black" d="M787.26,-416.85C800.14,-413.27 813.73,-408.97 826,-404 844.04,-396.69 863.09,-386.5 878.74,-377.39"/>
<polygon fill="black" stroke="black" points="880.71,-380.29 887.53,-372.18 877.14,-374.26 880.71,-380.29"/>
</g>
<!-- balance -->
<g id="node17" class="node">
<title>balance</title>
<ellipse fill="none" stroke="black" cx="753" cy="-200" rx="37.89" ry="18"/>
<text text-anchor="middle" x="753" y="-196.3" font-family="Times,serif" font-size="14.00">balance</text>
</g>
<!-- prologue_common&#45;&gt;balance -->
<g id="edge18" class="edge">
<title>prologue_common&#45;&gt;balance</title>
<path fill="none" stroke="black" d="M718.15,-412.16C716.46,-409.58 714.99,-406.83 714,-404 702.97,-372.55 709.09,-361.97 714,-329 719.38,-292.89 732.85,-252.88 742.45,-227.37"/>
<polygon fill="black" stroke="black" points="745.72,-228.61 746.04,-218.02 739.19,-226.1 745.72,-228.61"/>
</g>
<!-- exists_at -->
<g id="node18" class="node">
<title>exists_at</title>
<ellipse fill="none" stroke="black" cx="1086" cy="-355" rx="41.69" ry="18"/>
<text text-anchor="middle" x="1086" y="-351.3" font-family="Times,serif" font-size="14.00">exists_at</text>
</g>
<!-- prologue_common&#45;&gt;exists_at -->
<g id="edge19" class="edge">
<title>prologue_common&#45;&gt;exists_at</title>
<path fill="none" stroke="black" d="M811.6,-427.81C885.83,-425.71 991.94,-419.93 1030,-404 1043.05,-398.54 1055.26,-388.85 1064.93,-379.6"/>
<polygon fill="black" stroke="black" points="1067.55,-381.93 1072.11,-372.37 1062.58,-377 1067.55,-381.93"/>
</g>
<!-- Roles::has_role&#45;&gt;Signer::address_of -->
<g id="edge20" class="edge">
<title>Roles::has_role&#45;&gt;Signer::address_of</title>
<path fill="none" stroke="black" d="M125.5,-337.22C131.1,-326.14 138.56,-311.41 144.92,-298.85"/>
<polygon fill="black" stroke="black" points="148.12,-300.26 149.52,-289.76 141.88,-297.1 148.12,-300.26"/>
</g>
<!-- Errors::invalid_state&#45;&gt;Errors::make -->
<g id="edge21" class="edge">
<title>Errors::invalid_state&#45;&gt;Errors::make</title>
<path fill="none" stroke="black" d="M912.85,-102.62C950.64,-87.69 1011.47,-63.66 1049.52,-48.62"/>
<polygon fill="black" stroke="black" points="1051.12,-51.75 1059.14,-44.82 1048.55,-45.24 1051.12,-51.75"/>
</g>
<!-- Errors::limit_exceeded&#45;&gt;Errors::make -->
<g id="edge22" class="edge">
<title>Errors::limit_exceeded&#45;&gt;Errors::make</title>
<path fill="none" stroke="black" d="M1141.08,-99.22C1130.51,-87.32 1116.19,-71.21 1104.53,-58.1"/>
<polygon fill="black" stroke="black" points="1106.94,-55.54 1097.68,-50.39 1101.71,-60.19 1106.94,-55.54"/>
</g>
<!-- DiemTimestamp::now_microseconds -->
<g id="node19" class="node">
<title>DiemTimestamp::now_microseconds</title>
<ellipse fill="none" stroke="black" cx="593" cy="-272" rx="79.09" ry="18"/>
<text text-anchor="middle" x="593" y="-268.3" font-family="Times,serif" font-size="14.00">now_microseconds</text>
</g>
<!-- DiemTimestamp::now_seconds&#45;&gt;DiemTimestamp::now_microseconds -->
<g id="edge23" class="edge">
<title>DiemTimestamp::now_seconds&#45;&gt;DiemTimestamp::now_microseconds</title>
<path fill="none" stroke="black" d="M600.88,-336.82C599.57,-326.19 597.85,-312.31 596.36,-300.2"/>
<polygon fill="black" stroke="black" points="599.82,-299.65 595.12,-290.15 592.87,-300.51 599.82,-299.65"/>
</g>
<!-- CoreAddresses::TREASURY_COMPLIANCE_ADDRESS -->
<g id="node20" class="node">
<title>CoreAddresses::TREASURY_COMPLIANCE_ADDRESS</title>
<ellipse fill="none" stroke="black" cx="294" cy="-34" rx="163.27" ry="18"/>
<text text-anchor="middle" x="294" y="-30.3" font-family="Times,serif" font-size="14.00">TREASURY_COMPLIANCE_ADDRESS</text>
</g>
<!-- TransactionFee::is_coin_initialized&#45;&gt;CoreAddresses::TREASURY_COMPLIANCE_ADDRESS -->
<g id="edge24" class="edge">
<title>TransactionFee::is_coin_initialized&#45;&gt;CoreAddresses::TREASURY_COMPLIANCE_ADDRESS</title>
<path fill="none" stroke="black" d="M380.11,-336.85C365.14,-284.38 319.88,-125.74 301.69,-61.97"/>
<polygon fill="black" stroke="black" points="305.03,-60.89 298.92,-52.24 298.29,-62.81 305.03,-60.89"/>
</g>
<!-- ChainId::get&#45;&gt;CoreAddresses::DIEM_ROOT_ADDRESS -->
<g id="edge25" class="edge">
<title>ChainId::get&#45;&gt;CoreAddresses::DIEM_ROOT_ADDRESS</title>
<path fill="none" stroke="black" d="M462.71,-253.79C462.94,-219.79 467.57,-142.79 502,-91 511.24,-77.1 525.2,-65.61 538.89,-56.73"/>
<polygon fill="black" stroke="black" points="541.09,-59.49 547.79,-51.28 537.44,-53.52 541.09,-59.49"/>
</g>
<!-- DiemTimestamp::assert_operating -->
<g id="node21" class="node">
<title>DiemTimestamp::assert_operating</title>
<ellipse fill="none" stroke="black" cx="582" cy="-200" rx="68.49" ry="18"/>
<text text-anchor="middle" x="582" y="-196.3" font-family="Times,serif" font-size="14.00">assert_operating</text>
</g>
<!-- ChainId::get&#45;&gt;DiemTimestamp::assert_operating -->
<g id="edge26" class="edge">
<title>ChainId::get&#45;&gt;DiemTimestamp::assert_operating</title>
<path fill="none" stroke="black" d="M481.51,-258.83C487.95,-254.68 495.24,-250.06 502,-246 515.76,-237.73 531.08,-229 544.6,-221.45"/>
<polygon fill="black" stroke="black" points="546.59,-224.35 553.63,-216.43 543.19,-218.23 546.59,-224.35"/>
</g>
<!-- Errors::not_published -->
<g id="node22" class="node">
<title>Errors::not_published</title>
<ellipse fill="none" stroke="black" cx="1013" cy="-117" rx="60.39" ry="18"/>
<text text-anchor="middle" x="1013" y="-113.3" font-family="Times,serif" font-size="14.00">not_published</text>
</g>
<!-- balance&#45;&gt;Errors::not_published -->
<g id="edge27" class="edge">
<title>balance&#45;&gt;Errors::not_published</title>
<path fill="none" stroke="black" d="M790.58,-197.32C830.09,-194.46 893.41,-186.76 944,-166 959.14,-159.79 974.25,-149.81 986.46,-140.56"/>
<polygon fill="black" stroke="black" points="988.7,-143.24 994.41,-134.32 984.38,-137.74 988.7,-143.24"/>
</g>
<!-- balance_for -->
<g id="node23" class="node">
<title>balance_for</title>
<ellipse fill="none" stroke="black" cx="753" cy="-117" rx="51.99" ry="18"/>
<text text-anchor="middle" x="753" y="-113.3" font-family="Times,serif" font-size="14.00">balance_for</text>
</g>
<!-- balance&#45;&gt;balance_for -->
<g id="edge28" class="edge">
<title>balance&#45;&gt;balance_for</title>
<path fill="none" stroke="black" d="M753,-181.82C753,-171.19 753,-157.31 753,-145.2"/>
<polygon fill="black" stroke="black" points="756.5,-145.15 753,-135.15 749.5,-145.15 756.5,-145.15"/>
</g>
<!-- DiemTimestamp::now_microseconds&#45;&gt;CoreAddresses::DIEM_ROOT_ADDRESS -->
<g id="edge29" class="edge">
<title>DiemTimestamp::now_microseconds&#45;&gt;CoreAddresses::DIEM_ROOT_ADDRESS</title>
<path fill="none" stroke="black" d="M622.98,-255.26C636.65,-246.33 651.44,-233.77 659,-218 667.45,-200.37 660.63,-193.49 659,-174 655.88,-136.72 663.12,-123.73 645,-91 637.93,-78.23 626.8,-66.9 615.85,-57.84"/>
<polygon fill="black" stroke="black" points="617.99,-55.07 607.97,-51.65 613.67,-60.58 617.99,-55.07"/>
</g>
<!-- DiemTimestamp::now_microseconds&#45;&gt;DiemTimestamp::assert_operating -->
<g id="edge30" class="edge">
<title>DiemTimestamp::now_microseconds&#45;&gt;DiemTimestamp::assert_operating</title>
<path fill="none" stroke="black" d="M590.28,-253.7C589.07,-245.98 587.61,-236.71 586.26,-228.11"/>
<polygon fill="black" stroke="black" points="589.7,-227.44 584.69,-218.1 582.78,-228.53 589.7,-227.44"/>
</g>
<!-- DiemTimestamp::assert_operating&#45;&gt;Errors::invalid_state -->
<g id="edge31" class="edge">
<title>DiemTimestamp::assert_operating&#45;&gt;Errors::invalid_state</title>
<path fill="none" stroke="black" d="M631.54,-187.54C654.13,-182.69 681.31,-177.39 706,-174 729.84,-170.73 791.43,-174.37 814,-166 828.82,-160.51 843.18,-150.55 854.62,-141.13"/>
<polygon fill="black" stroke="black" points="857.11,-143.61 862.4,-134.43 852.54,-138.3 857.11,-143.61"/>
</g>
<!-- DiemTimestamp::is_operating -->
<g id="node24" class="node">
<title>DiemTimestamp::is_operating</title>
<ellipse fill="none" stroke="black" cx="582" cy="-117" rx="53.89" ry="18"/>
<text text-anchor="middle" x="582" y="-113.3" font-family="Times,serif" font-size="14.00">is_operating</text>
</g>
<!-- DiemTimestamp::assert_operating&#45;&gt;DiemTimestamp::is_operating -->
<g id="edge32" class="edge">
<title>DiemTimestamp::assert_operating&#45;&gt;DiemTimestamp::is_operating</title>
<path fill="none" stroke="black" d="M582,-181.82C582,-171.19 582,-157.31 582,-145.2"/>
<polygon fill="black" stroke="black" points="585.5,-145.15 582,-135.15 578.5,-145.15 585.5,-145.15"/>
</g>
<!-- Errors::not_published&#45;&gt;Errors::make -->
<g id="edge33" class="edge">
<title>Errors::not_published&#45;&gt;Errors::make</title>
<path fill="none" stroke="black" d="M1027.71,-99.22C1038.14,-87.32 1052.26,-71.21 1063.75,-58.1"/>
<polygon fill="black" stroke="black" points="1066.55,-60.22 1070.51,-50.39 1061.28,-55.6 1066.55,-60.22"/>
</g>
<!-- Diem::value -->
<g id="node25" class="node">
<title>Diem::value</title>
<ellipse fill="none" stroke="black" cx="753" cy="-34" rx="29.8" ry="18"/>
<text text-anchor="middle" x="753" y="-30.3" font-family="Times,serif" font-size="14.00">value</text>
</g>
<!-- balance_for&#45;&gt;Diem::value -->
<g id="edge34" class="edge">
<title>balance_for&#45;&gt;Diem::value</title>
<path fill="none" stroke="black" d="M753,-98.82C753,-88.19 753,-74.31 753,-62.2"/>
<polygon fill="black" stroke="black" points="756.5,-62.15 753,-52.15 749.5,-62.15 756.5,-62.15"/>
</g>
<!-- DiemTimestamp::is_operating&#45;&gt;CoreAddresses::DIEM_ROOT_ADDRESS -->
<g id="edge35" class="edge">
<title>DiemTimestamp::is_operating&#45;&gt;CoreAddresses::DIEM_ROOT_ADDRESS</title>
<path fill="none" stroke="black" d="M582,-98.82C582,-88.19 582,-74.31 582,-62.2"/>
<polygon fill="black" stroke="black" points="585.5,-62.15 582,-52.15 578.5,-62.15 585.5,-62.15"/>
</g>
</g>
</svg>
