<?xml version="1.0" encoding="UTF-8" standalone="no"?>
<!DOCTYPE svg PUBLIC "-//W3C//DTD SVG 1.1//EN"
 "http://www.w3.org/Graphics/SVG/1.1/DTD/svg11.dtd">
<!-- Generated by graphviz version 2.46.1 (20210213.1702)
 -->
<!-- Title: G Pages: 1 -->
<svg width="1736pt" height="528pt"
 viewBox="0.00 0.00 1736.00 528.00" xmlns="http://www.w3.org/2000/svg" xmlns:xlink="http://www.w3.org/1999/xlink">
<g id="graph0" class="graph" transform="scale(1 1) rotate(0) translate(4 524)">
<title>G</title>
<polygon fill="white" stroke="transparent" points="-4,4 -4,-524 1732,-524 1732,4 -4,4"/>
<g id="clust1" class="cluster">
<title>cluster_Errors</title>
<polygon fill="none" stroke="black" points="8,-8 8,-155 595,-155 595,-8 8,-8"/>
<text text-anchor="middle" x="301.5" y="-139.8" font-family="Times,serif" font-size="14.00">Errors</text>
</g>
<g id="clust2" class="cluster">
<title>cluster_CoreAddresses</title>
<polygon fill="none" stroke="black" points="761,-80 761,-238 1102,-238 1102,-80 761,-80"/>
<text text-anchor="middle" x="931.5" y="-222.8" font-family="Times,serif" font-size="14.00">CoreAddresses</text>
</g>
<g id="clust3" class="cluster">
<title>cluster_DiemTimestamp</title>
<polygon fill="none" stroke="black" points="716,-246 716,-476 894,-476 894,-246 716,-246"/>
<text text-anchor="middle" x="805" y="-460.8" font-family="Times,serif" font-size="14.00">DiemTimestamp</text>
</g>
<g id="clust4" class="cluster">
<title>cluster_Event</title>
<polygon fill="none" stroke="black" points="1534,-329 1534,-476 1720,-476 1720,-329 1534,-329"/>
<text text-anchor="middle" x="1627" y="-460.8" font-family="Times,serif" font-size="14.00">Event</text>
</g>
<g id="clust5" class="cluster">
<title>cluster_DiemSystem</title>
<polygon fill="none" stroke="black" points="1180,-246 1180,-476 1526,-476 1526,-246 1180,-246"/>
<text text-anchor="middle" x="1353" y="-460.8" font-family="Times,serif" font-size="14.00">DiemSystem</text>
</g>
<g id="clust6" class="cluster">
<title>cluster_Signer</title>
<polygon fill="none" stroke="black" points="603,-8 603,-155 753,-155 753,-8 603,-8"/>
<text text-anchor="middle" x="678" y="-139.8" font-family="Times,serif" font-size="14.00">Signer</text>
</g>
<g id="clust7" class="cluster">
<title>cluster_DiemConfig</title>
<polygon fill="none" stroke="black" points="982,-246 982,-321 1066,-321 1066,-246 982,-246"/>
<text text-anchor="middle" x="1024" y="-305.8" font-family="Times,serif" font-size="14.00">DiemConfig</text>
</g>
<g id="clust8" class="cluster">
<title>cluster_Option</title>
<polygon fill="none" stroke="black" points="1345,-163 1345,-238 1593,-238 1593,-163 1345,-163"/>
<text text-anchor="middle" x="1469" y="-222.8" font-family="Times,serif" font-size="14.00">Option</text>
</g>
<g id="clust9" class="cluster">
<title>cluster_Vector</title>
<polygon fill="none" stroke="black" points="1281,-8 1281,-155 1578,-155 1578,-8 1281,-8"/>
<text text-anchor="middle" x="1429.5" y="-139.8" font-family="Times,serif" font-size="14.00">Vector</text>
</g>
<!-- block_prologue -->
<g id="node1" class="node">
<title>block_prologue</title>
<ellipse fill="none" stroke="black" cx="1043" cy="-502" rx="65.79" ry="18"/>
<text text-anchor="middle" x="1043" y="-498.3" font-family="Times,serif" font-size="14.00">block_prologue</text>
</g>
<!-- Errors::requires_address -->
<g id="node2" class="node">
<title>Errors::requires_address</title>
<ellipse fill="none" stroke="black" cx="379" cy="-106" rx="69.59" ry="18"/>
<text text-anchor="middle" x="379" y="-102.3" font-family="Times,serif" font-size="14.00">requires_address</text>
</g>
<!-- block_prologue&#45;&gt;Errors::requires_address -->
<g id="edge1" class="edge">
<title>block_prologue&#45;&gt;Errors::requires_address</title>
<path fill="none" stroke="black" d="M978.15,-498.97C885.14,-495.66 722.32,-488.21 698,-476 540.78,-397.1 428.67,-203.28 391.98,-132.99"/>
<polygon fill="black" stroke="black" points="395,-131.21 387.31,-123.92 388.77,-134.41 395,-131.21"/>
</g>
<!-- CoreAddresses::DIEM_ROOT_ADDRESS -->
<g id="node3" class="node">
<title>CoreAddresses::DIEM_ROOT_ADDRESS</title>
<ellipse fill="none" stroke="black" cx="876" cy="-189" rx="106.68" ry="18"/>
<text text-anchor="middle" x="876" y="-185.3" font-family="Times,serif" font-size="14.00">DIEM_ROOT_ADDRESS</text>
</g>
<!-- block_prologue&#45;&gt;CoreAddresses::DIEM_ROOT_ADDRESS -->
<g id="edge2" class="edge">
<title>block_prologue&#45;&gt;CoreAddresses::DIEM_ROOT_ADDRESS</title>
<path fill="none" stroke="black" d="M1033.78,-483.84C1006.07,-432.22 923.35,-278.19 890.09,-216.23"/>
<polygon fill="black" stroke="black" points="893,-214.27 885.19,-207.11 886.84,-217.58 893,-214.27"/>
</g>
<!-- CoreAddresses::VM_RESERVED_ADDRESS -->
<g id="node4" class="node">
<title>CoreAddresses::VM_RESERVED_ADDRESS</title>
<ellipse fill="none" stroke="black" cx="974" cy="-106" rx="119.68" ry="18"/>
<text text-anchor="middle" x="974" y="-102.3" font-family="Times,serif" font-size="14.00">VM_RESERVED_ADDRESS</text>
</g>
<!-- block_prologue&#45;&gt;CoreAddresses::VM_RESERVED_ADDRESS -->
<g id="edge3" class="edge">
<title>block_prologue&#45;&gt;CoreAddresses::VM_RESERVED_ADDRESS</title>
<path fill="none" stroke="black" d="M1068.39,-485.25C1102.8,-461.72 1160,-413.9 1160,-356 1160,-356 1160,-356 1160,-271 1160,-220.81 1161.51,-199.44 1127,-163 1108.97,-143.96 1083.94,-131.37 1059.34,-123.05"/>
<polygon fill="black" stroke="black" points="1060.17,-119.64 1049.58,-119.96 1058.06,-126.32 1060.17,-119.64"/>
</g>
<!-- CoreAddresses::assert_vm -->
<g id="node5" class="node">
<title>CoreAddresses::assert_vm</title>
<ellipse fill="none" stroke="black" cx="1047" cy="-189" rx="46.59" ry="18"/>
<text text-anchor="middle" x="1047" y="-185.3" font-family="Times,serif" font-size="14.00">assert_vm</text>
</g>
<!-- block_prologue&#45;&gt;CoreAddresses::assert_vm -->
<g id="edge4" class="edge">
<title>block_prologue&#45;&gt;CoreAddresses::assert_vm</title>
<path fill="none" stroke="black" d="M1048.33,-483.83C1060.4,-442.52 1087.46,-334.44 1070,-246 1068.03,-236 1064.25,-225.55 1060.32,-216.42"/>
<polygon fill="black" stroke="black" points="1063.41,-214.75 1056.07,-207.11 1057.04,-217.66 1063.41,-214.75"/>
</g>
<!-- DiemTimestamp::assert_operating -->
<g id="node6" class="node">
<title>DiemTimestamp::assert_operating</title>
<ellipse fill="none" stroke="black" cx="792" cy="-355" rx="68.49" ry="18"/>
<text text-anchor="middle" x="792" y="-351.3" font-family="Times,serif" font-size="14.00">assert_operating</text>
</g>
<!-- block_prologue&#45;&gt;DiemTimestamp::assert_operating -->
<g id="edge5" class="edge">
<title>block_prologue&#45;&gt;DiemTimestamp::assert_operating</title>
<path fill="none" stroke="black" d="M977.3,-500.67C886.67,-499.53 732.42,-494.8 715,-476 694.76,-454.16 701.14,-435.36 715,-409 722.37,-394.98 735.32,-383.94 748.51,-375.66"/>
<polygon fill="black" stroke="black" points="750.3,-378.67 757.17,-370.6 746.77,-372.62 750.3,-378.67"/>
</g>
<!-- DiemTimestamp::update_global_time -->
<g id="node7" class="node">
<title>DiemTimestamp::update_global_time</title>
<ellipse fill="none" stroke="black" cx="805" cy="-427" rx="81.49" ry="18"/>
<text text-anchor="middle" x="805" y="-423.3" font-family="Times,serif" font-size="14.00">update_global_time</text>
</g>
<!-- block_prologue&#45;&gt;DiemTimestamp::update_global_time -->
<g id="edge6" class="edge">
<title>block_prologue&#45;&gt;DiemTimestamp::update_global_time</title>
<path fill="none" stroke="black" d="M996.49,-489.06C981.59,-485.08 965.05,-480.51 950,-476 918.64,-466.6 883.81,-455.11 856.15,-445.72"/>
<polygon fill="black" stroke="black" points="857.27,-442.41 846.68,-442.5 855.02,-449.04 857.27,-442.41"/>
</g>
<!-- Event::emit_event -->
<g id="node8" class="node">
<title>Event::emit_event</title>
<ellipse fill="none" stroke="black" cx="1609" cy="-427" rx="50.09" ry="18"/>
<text text-anchor="middle" x="1609" y="-423.3" font-family="Times,serif" font-size="14.00">emit_event</text>
</g>
<!-- block_prologue&#45;&gt;Event::emit_event -->
<g id="edge7" class="edge">
<title>block_prologue&#45;&gt;Event::emit_event</title>
<path fill="none" stroke="black" d="M1108.99,-501.59C1223.32,-501.96 1453.34,-499.6 1530,-476 1548.29,-470.37 1566.68,-459.57 1581.11,-449.64"/>
<polygon fill="black" stroke="black" points="1583.44,-452.28 1589.55,-443.62 1579.38,-446.58 1583.44,-452.28"/>
</g>
<!-- DiemSystem::is_validator -->
<g id="node9" class="node">
<title>DiemSystem::is_validator</title>
<ellipse fill="none" stroke="black" cx="1287" cy="-427" rx="51.99" ry="18"/>
<text text-anchor="middle" x="1287" y="-423.3" font-family="Times,serif" font-size="14.00">is_validator</text>
</g>
<!-- block_prologue&#45;&gt;DiemSystem::is_validator -->
<g id="edge8" class="edge">
<title>block_prologue&#45;&gt;DiemSystem::is_validator</title>
<path fill="none" stroke="black" d="M1099.74,-492.89C1123.02,-488.86 1150.08,-483.27 1174,-476 1199.76,-468.17 1227.61,-456.38 1249.21,-446.45"/>
<polygon fill="black" stroke="black" points="1250.78,-449.58 1258.37,-442.18 1247.83,-443.23 1250.78,-449.58"/>
</g>
<!-- Errors::make -->
<g id="node10" class="node">
<title>Errors::make</title>
<ellipse fill="none" stroke="black" cx="307" cy="-34" rx="30.59" ry="18"/>
<text text-anchor="middle" x="307" y="-30.3" font-family="Times,serif" font-size="14.00">make</text>
</g>
<!-- Errors::requires_address&#45;&gt;Errors::make -->
<g id="edge9" class="edge">
<title>Errors::requires_address&#45;&gt;Errors::make</title>
<path fill="none" stroke="black" d="M361.94,-88.41C352.3,-79.04 340.13,-67.21 329.7,-57.07"/>
<polygon fill="black" stroke="black" points="332.08,-54.5 322.47,-50.04 327.2,-59.52 332.08,-54.5"/>
</g>
<!-- CoreAddresses::assert_vm&#45;&gt;Errors::requires_address -->
<g id="edge11" class="edge">
<title>CoreAddresses::assert_vm&#45;&gt;Errors::requires_address</title>
<path fill="none" stroke="black" d="M1021.47,-173.76C1012.44,-169.44 1002.03,-165.25 992,-163 934.1,-150 515.02,-171.43 458,-155 439.87,-149.78 421.72,-139.22 407.4,-129.34"/>
<polygon fill="black" stroke="black" points="409.18,-126.31 399.02,-123.33 405.1,-132 409.18,-126.31"/>
</g>
<!-- CoreAddresses::assert_vm&#45;&gt;CoreAddresses::VM_RESERVED_ADDRESS -->
<g id="edge12" class="edge">
<title>CoreAddresses::assert_vm&#45;&gt;CoreAddresses::VM_RESERVED_ADDRESS</title>
<path fill="none" stroke="black" d="M1032.23,-171.61C1021.88,-160.12 1007.86,-144.57 996.18,-131.61"/>
<polygon fill="black" stroke="black" points="998.55,-129.01 989.25,-123.92 993.35,-133.7 998.55,-129.01"/>
</g>
<!-- Signer::address_of -->
<g id="node11" class="node">
<title>Signer::address_of</title>
<ellipse fill="none" stroke="black" cx="687" cy="-106" rx="48.99" ry="18"/>
<text text-anchor="middle" x="687" y="-102.3" font-family="Times,serif" font-size="14.00">address_of</text>
</g>
<!-- CoreAddresses::assert_vm&#45;&gt;Signer::address_of -->
<g id="edge10" class="edge">
<title>CoreAddresses::assert_vm&#45;&gt;Signer::address_of</title>
<path fill="none" stroke="black" d="M1021.45,-173.87C1012.41,-169.56 1002.01,-165.35 992,-163 941.13,-151.07 806.64,-171.32 757,-155 740.74,-149.65 724.82,-139.27 712.28,-129.53"/>
<polygon fill="black" stroke="black" points="714.15,-126.54 704.17,-122.95 709.73,-131.97 714.15,-126.54"/>
</g>
<!-- Errors::invalid_state -->
<g id="node12" class="node">
<title>Errors::invalid_state</title>
<ellipse fill="none" stroke="black" cx="236" cy="-106" rx="55.79" ry="18"/>
<text text-anchor="middle" x="236" y="-102.3" font-family="Times,serif" font-size="14.00">invalid_state</text>
</g>
<!-- DiemTimestamp::assert_operating&#45;&gt;Errors::invalid_state -->
<g id="edge13" class="edge">
<title>DiemTimestamp::assert_operating&#45;&gt;Errors::invalid_state</title>
<path fill="none" stroke="black" d="M764.78,-338.33C755.58,-332.93 745.29,-326.79 736,-321 679.1,-285.52 662.78,-279.36 610,-238 571.38,-207.74 574.36,-181.7 529,-163 481.92,-143.6 348.02,-171.94 300,-155 285.14,-149.76 270.88,-139.73 259.61,-130.19"/>
<polygon fill="black" stroke="black" points="261.76,-127.43 251.96,-123.41 257.12,-132.67 261.76,-127.43"/>
</g>
<!-- DiemTimestamp::is_operating -->
<g id="node13" class="node">
<title>DiemTimestamp::is_operating</title>
<ellipse fill="none" stroke="black" cx="799" cy="-272" rx="53.89" ry="18"/>
<text text-anchor="middle" x="799" y="-268.3" font-family="Times,serif" font-size="14.00">is_operating</text>
</g>
<!-- DiemTimestamp::assert_operating&#45;&gt;DiemTimestamp::is_operating -->
<g id="edge14" class="edge">
<title>DiemTimestamp::assert_operating&#45;&gt;DiemTimestamp::is_operating</title>
<path fill="none" stroke="black" d="M793.48,-336.82C794.4,-326.19 795.6,-312.31 796.65,-300.2"/>
<polygon fill="black" stroke="black" points="800.14,-300.42 797.52,-290.15 793.17,-299.81 800.14,-300.42"/>
</g>
<!-- DiemTimestamp::update_global_time&#45;&gt;CoreAddresses::DIEM_ROOT_ADDRESS -->
<g id="edge16" class="edge">
<title>DiemTimestamp::update_global_time&#45;&gt;CoreAddresses::DIEM_ROOT_ADDRESS</title>
<path fill="none" stroke="black" d="M833.84,-409.93C847.04,-400.93 861.4,-388.39 869,-373 893.92,-322.53 887.72,-254.36 881.53,-217.09"/>
<polygon fill="black" stroke="black" points="884.93,-216.24 879.72,-207.01 878.04,-217.47 884.93,-216.24"/>
</g>
<!-- DiemTimestamp::update_global_time&#45;&gt;CoreAddresses::VM_RESERVED_ADDRESS -->
<g id="edge17" class="edge">
<title>DiemTimestamp::update_global_time&#45;&gt;CoreAddresses::VM_RESERVED_ADDRESS</title>
<path fill="none" stroke="black" d="M868.58,-415.67C927.81,-402.96 1015.03,-375.91 1070,-321 1120.76,-270.3 1142.35,-222.98 1103,-163 1091.21,-145.02 1072.26,-132.79 1052.49,-124.47"/>
<polygon fill="black" stroke="black" points="1053.64,-121.17 1043.05,-120.81 1051.11,-127.69 1053.64,-121.17"/>
</g>
<!-- DiemTimestamp::update_global_time&#45;&gt;CoreAddresses::assert_vm -->
<g id="edge18" class="edge">
<title>DiemTimestamp::update_global_time&#45;&gt;CoreAddresses::assert_vm</title>
<path fill="none" stroke="black" d="M836.22,-410.25C853,-400.85 873.39,-387.87 889,-373 938.9,-325.46 927.07,-292.44 978,-246 983.3,-241.17 986.16,-242.15 992,-238 1002.65,-230.42 1013.64,-221.16 1022.98,-212.8"/>
<polygon fill="black" stroke="black" points="1025.35,-215.37 1030.38,-206.05 1020.64,-210.2 1025.35,-215.37"/>
</g>
<!-- DiemTimestamp::update_global_time&#45;&gt;DiemTimestamp::assert_operating -->
<g id="edge19" class="edge">
<title>DiemTimestamp::update_global_time&#45;&gt;DiemTimestamp::assert_operating</title>
<path fill="none" stroke="black" d="M801.79,-408.7C800.35,-400.98 798.63,-391.71 797.04,-383.11"/>
<polygon fill="black" stroke="black" points="800.44,-382.3 795.18,-373.1 793.56,-383.58 800.44,-382.3"/>
</g>
<!-- Errors::invalid_argument -->
<g id="node14" class="node">
<title>Errors::invalid_argument</title>
<ellipse fill="none" stroke="black" cx="89" cy="-106" rx="73.39" ry="18"/>
<text text-anchor="middle" x="89" y="-102.3" font-family="Times,serif" font-size="14.00">invalid_argument</text>
</g>
<!-- DiemTimestamp::update_global_time&#45;&gt;Errors::invalid_argument -->
<g id="edge15" class="edge">
<title>DiemTimestamp::update_global_time&#45;&gt;Errors::invalid_argument</title>
<path fill="none" stroke="black" d="M765.63,-411.17C664.87,-372.78 390.14,-265.43 171,-155 154.9,-146.89 137.59,-136.95 123.05,-128.23"/>
<polygon fill="black" stroke="black" points="124.76,-125.17 114.39,-122.98 121.13,-131.15 124.76,-125.17"/>
</g>
<!-- Event::write_to_event_store -->
<g id="node15" class="node">
<title>Event::write_to_event_store</title>
<ellipse fill="none" stroke="black" cx="1627" cy="-355" rx="85.29" ry="18"/>
<text text-anchor="middle" x="1627" y="-351.3" font-family="Times,serif" font-size="14.00">write_to_event_store</text>
</g>
<!-- Event::emit_event&#45;&gt;Event::write_to_event_store -->
<g id="edge20" class="edge">
<title>Event::emit_event&#45;&gt;Event::write_to_event_store</title>
<path fill="none" stroke="black" d="M1613.36,-409.05C1615.36,-401.26 1617.79,-391.82 1620.04,-383.08"/>
<polygon fill="black" stroke="black" points="1623.46,-383.83 1622.56,-373.28 1616.68,-382.09 1623.46,-383.83"/>
</g>
<!-- DiemSystem::get_diem_system_config -->
<g id="node16" class="node">
<title>DiemSystem::get_diem_system_config</title>
<ellipse fill="none" stroke="black" cx="1287" cy="-355" rx="99.38" ry="18"/>
<text text-anchor="middle" x="1287" y="-351.3" font-family="Times,serif" font-size="14.00">get_diem_system_config</text>
</g>
<!-- DiemSystem::is_validator&#45;&gt;DiemSystem::get_diem_system_config -->
<g id="edge21" class="edge">
<title>DiemSystem::is_validator&#45;&gt;DiemSystem::get_diem_system_config</title>
<path fill="none" stroke="black" d="M1287,-408.7C1287,-400.98 1287,-391.71 1287,-383.11"/>
<polygon fill="black" stroke="black" points="1290.5,-383.1 1287,-373.1 1283.5,-383.1 1290.5,-383.1"/>
</g>
<!-- DiemSystem::is_validator_ -->
<g id="node17" class="node">
<title>DiemSystem::is_validator_</title>
<ellipse fill="none" stroke="black" cx="1461" cy="-355" rx="56.59" ry="18"/>
<text text-anchor="middle" x="1461" y="-351.3" font-family="Times,serif" font-size="14.00">is_validator_</text>
</g>
<!-- DiemSystem::is_validator&#45;&gt;DiemSystem::is_validator_ -->
<g id="edge22" class="edge">
<title>DiemSystem::is_validator&#45;&gt;DiemSystem::is_validator_</title>
<path fill="none" stroke="black" d="M1319.73,-412.83C1347.44,-401.68 1387.39,-385.61 1417.74,-373.4"/>
<polygon fill="black" stroke="black" points="1419.26,-376.56 1427.23,-369.58 1416.65,-370.07 1419.26,-376.56"/>
</g>
<!-- Signer::borrow_address -->
<g id="node18" class="node">
<title>Signer::borrow_address</title>
<ellipse fill="none" stroke="black" cx="678" cy="-34" rx="66.89" ry="18"/>
<text text-anchor="middle" x="678" y="-30.3" font-family="Times,serif" font-size="14.00">borrow_address</text>
</g>
<!-- Signer::address_of&#45;&gt;Signer::borrow_address -->
<g id="edge23" class="edge">
<title>Signer::address_of&#45;&gt;Signer::borrow_address</title>
<path fill="none" stroke="black" d="M684.78,-87.7C683.78,-79.98 682.59,-70.71 681.49,-62.11"/>
<polygon fill="black" stroke="black" points="684.95,-61.58 680.2,-52.1 678,-62.47 684.95,-61.58"/>
</g>
<!-- Errors::invalid_state&#45;&gt;Errors::make -->
<g id="edge24" class="edge">
<title>Errors::invalid_state&#45;&gt;Errors::make</title>
<path fill="none" stroke="black" d="M252.47,-88.76C262.09,-79.27 274.37,-67.17 284.84,-56.85"/>
<polygon fill="black" stroke="black" points="287.41,-59.23 292.07,-49.72 282.49,-54.25 287.41,-59.23"/>
</g>
<!-- DiemTimestamp::is_operating&#45;&gt;CoreAddresses::DIEM_ROOT_ADDRESS -->
<g id="edge25" class="edge">
<title>DiemTimestamp::is_operating&#45;&gt;CoreAddresses::DIEM_ROOT_ADDRESS</title>
<path fill="none" stroke="black" d="M814.58,-254.61C825.6,-243.02 840.56,-227.28 852.96,-214.24"/>
<polygon fill="black" stroke="black" points="855.56,-216.58 859.91,-206.92 850.48,-211.76 855.56,-216.58"/>
</g>
<!-- Errors::invalid_argument&#45;&gt;Errors::make -->
<g id="edge26" class="edge">
<title>Errors::invalid_argument&#45;&gt;Errors::make</title>
<path fill="none" stroke="black" d="M131.81,-91.25C172.45,-78.21 232.84,-58.81 271.04,-46.55"/>
<polygon fill="black" stroke="black" points="272.27,-49.83 280.72,-43.44 270.13,-43.16 272.27,-49.83"/>
</g>
<!-- DiemConfig::get -->
<g id="node19" class="node">
<title>DiemConfig::get</title>
<ellipse fill="none" stroke="black" cx="1019" cy="-272" rx="27" ry="18"/>
<text text-anchor="middle" x="1019" y="-268.3" font-family="Times,serif" font-size="14.00">get</text>
</g>
<!-- DiemSystem::get_diem_system_config&#45;&gt;DiemConfig::get -->
<g id="edge27" class="edge">
<title>DiemSystem::get_diem_system_config&#45;&gt;DiemConfig::get</title>
<path fill="none" stroke="black" d="M1237.52,-339.38C1218.3,-333.68 1196.11,-327.06 1176,-321 1133.4,-308.16 1084.38,-293.13 1052.6,-283.36"/>
<polygon fill="black" stroke="black" points="1053.51,-279.97 1042.92,-280.38 1051.45,-286.66 1053.51,-279.97"/>
</g>
<!-- Option::is_some -->
<g id="node20" class="node">
<title>Option::is_some</title>
<ellipse fill="none" stroke="black" cx="1545" cy="-189" rx="40.09" ry="18"/>
<text text-anchor="middle" x="1545" y="-185.3" font-family="Times,serif" font-size="14.00">is_some</text>
</g>
<!-- DiemSystem::is_validator_&#45;&gt;Option::is_some -->
<g id="edge28" class="edge">
<title>DiemSystem::is_validator_&#45;&gt;Option::is_some</title>
<path fill="none" stroke="black" d="M1469.67,-337.07C1484.4,-308.32 1514.38,-249.78 1531.75,-215.87"/>
<polygon fill="black" stroke="black" points="1535.06,-217.09 1536.5,-206.6 1528.83,-213.9 1535.06,-217.09"/>
</g>
<!-- DiemSystem::get_validator_index_ -->
<g id="node21" class="node">
<title>DiemSystem::get_validator_index_</title>
<ellipse fill="none" stroke="black" cx="1383" cy="-272" rx="85.29" ry="18"/>
<text text-anchor="middle" x="1383" y="-268.3" font-family="Times,serif" font-size="14.00">get_validator_index_</text>
</g>
<!-- DiemSystem::is_validator_&#45;&gt;DiemSystem::get_validator_index_ -->
<g id="edge29" class="edge">
<title>DiemSystem::is_validator_&#45;&gt;DiemSystem::get_validator_index_</title>
<path fill="none" stroke="black" d="M1445.22,-337.61C1434.05,-326.02 1418.9,-310.28 1406.34,-297.24"/>
<polygon fill="black" stroke="black" points="1408.76,-294.7 1399.3,-289.92 1403.71,-299.56 1408.76,-294.7"/>
</g>
<!-- DiemConfig::get&#45;&gt;CoreAddresses::DIEM_ROOT_ADDRESS -->
<g id="edge31" class="edge">
<title>DiemConfig::get&#45;&gt;CoreAddresses::DIEM_ROOT_ADDRESS</title>
<path fill="none" stroke="black" d="M999.92,-259.12C993.05,-254.91 985.21,-250.18 978,-246 957.57,-234.17 934.53,-221.47 915.53,-211.16"/>
<polygon fill="black" stroke="black" points="917.01,-207.98 906.55,-206.3 913.68,-214.14 917.01,-207.98"/>
</g>
<!-- Errors::not_published -->
<g id="node22" class="node">
<title>Errors::not_published</title>
<ellipse fill="none" stroke="black" cx="527" cy="-106" rx="60.39" ry="18"/>
<text text-anchor="middle" x="527" y="-102.3" font-family="Times,serif" font-size="14.00">not_published</text>
</g>
<!-- DiemConfig::get&#45;&gt;Errors::not_published -->
<g id="edge30" class="edge">
<title>DiemConfig::get&#45;&gt;Errors::not_published</title>
<path fill="none" stroke="black" d="M994.15,-264.75C969.82,-258.89 931.61,-250.4 898,-246 835.76,-237.85 817.49,-254.75 757,-238 680.56,-216.83 667.2,-195.5 599,-155 585.15,-146.77 570.26,-137.02 557.64,-128.45"/>
<polygon fill="black" stroke="black" points="559.54,-125.51 549.31,-122.75 555.59,-131.29 559.54,-125.51"/>
</g>
<!-- Vector::is_empty -->
<g id="node23" class="node">
<title>Vector::is_empty</title>
<ellipse fill="none" stroke="black" cx="1423" cy="-106" rx="43.59" ry="18"/>
<text text-anchor="middle" x="1423" y="-102.3" font-family="Times,serif" font-size="14.00">is_empty</text>
</g>
<!-- Option::is_some&#45;&gt;Vector::is_empty -->
<g id="edge32" class="edge">
<title>Option::is_some&#45;&gt;Vector::is_empty</title>
<path fill="none" stroke="black" d="M1520.32,-174.76C1512.62,-170.8 1504.03,-166.57 1496,-163 1486.87,-158.95 1483.49,-160.26 1475,-155 1464.18,-148.29 1453.59,-139.15 1444.83,-130.64"/>
<polygon fill="black" stroke="black" points="1447.17,-128.03 1437.64,-123.41 1442.21,-132.97 1447.17,-128.03"/>
</g>
<!-- Vector::borrow -->
<g id="node24" class="node">
<title>Vector::borrow</title>
<ellipse fill="none" stroke="black" cx="1325" cy="-106" rx="36.29" ry="18"/>
<text text-anchor="middle" x="1325" y="-102.3" font-family="Times,serif" font-size="14.00">borrow</text>
</g>
<!-- DiemSystem::get_validator_index_&#45;&gt;Vector::borrow -->
<g id="edge33" class="edge">
<title>DiemSystem::get_validator_index_&#45;&gt;Vector::borrow</title>
<path fill="none" stroke="black" d="M1355.91,-254.82C1350.11,-250.11 1344.64,-244.46 1341,-238 1322.93,-205.93 1321.24,-162.51 1322.49,-134.63"/>
<polygon fill="black" stroke="black" points="1325.99,-134.6 1323.11,-124.4 1319.01,-134.17 1325.99,-134.6"/>
</g>
<!-- Vector::length -->
<g id="node25" class="node">
<title>Vector::length</title>
<ellipse fill="none" stroke="black" cx="1330" cy="-34" rx="32.49" ry="18"/>
<text text-anchor="middle" x="1330" y="-30.3" font-family="Times,serif" font-size="14.00">length</text>
</g>
<!-- DiemSystem::get_validator_index_&#45;&gt;Vector::length -->
<g id="edge34" class="edge">
<title>DiemSystem::get_validator_index_&#45;&gt;Vector::length</title>
<path fill="none" stroke="black" d="M1343.02,-256.01C1333.99,-251.26 1325.01,-245.3 1318,-238 1289.9,-208.74 1288.64,-194.64 1280,-155 1272.9,-122.43 1266.44,-110.45 1280,-80 1284.5,-69.89 1292.52,-61.11 1300.83,-54.04"/>
<polygon fill="black" stroke="black" points="1303.07,-56.74 1308.79,-47.82 1298.76,-51.22 1303.07,-56.74"/>
</g>
<!-- Option::none -->
<g id="node26" class="node">
<title>Option::none</title>
<ellipse fill="none" stroke="black" cx="1459" cy="-189" rx="27.9" ry="18"/>
<text text-anchor="middle" x="1459" y="-185.3" font-family="Times,serif" font-size="14.00">none</text>
</g>
<!-- DiemSystem::get_validator_index_&#45;&gt;Option::none -->
<g id="edge35" class="edge">
<title>DiemSystem::get_validator_index_&#45;&gt;Option::none</title>
<path fill="none" stroke="black" d="M1404.38,-254.31C1410.31,-249.31 1416.61,-243.64 1422,-238 1429.05,-230.63 1436.06,-221.95 1442.06,-214.02"/>
<polygon fill="black" stroke="black" points="1445,-215.93 1448.12,-205.81 1439.37,-211.78 1445,-215.93"/>
</g>
<!-- Option::some -->
<g id="node27" class="node">
<title>Option::some</title>
<ellipse fill="none" stroke="black" cx="1383" cy="-189" rx="29.8" ry="18"/>
<text text-anchor="middle" x="1383" y="-185.3" font-family="Times,serif" font-size="14.00">some</text>
</g>
<!-- DiemSystem::get_validator_index_&#45;&gt;Option::some -->
<g id="edge36" class="edge">
<title>DiemSystem::get_validator_index_&#45;&gt;Option::some</title>
<path fill="none" stroke="black" d="M1383,-253.82C1383,-243.19 1383,-229.31 1383,-217.2"/>
<polygon fill="black" stroke="black" points="1386.5,-217.15 1383,-207.15 1379.5,-217.15 1386.5,-217.15"/>
</g>
<!-- Errors::not_published&#45;&gt;Errors::make -->
<g id="edge37" class="edge">
<title>Errors::not_published&#45;&gt;Errors::make</title>
<path fill="none" stroke="black" d="M490.97,-91.5C480.39,-87.66 468.77,-83.55 458,-80 419.37,-67.26 374.68,-54.14 343.99,-45.38"/>
<polygon fill="black" stroke="black" points="344.73,-41.95 334.15,-42.58 342.81,-48.68 344.73,-41.95"/>
</g>
<!-- Vector::is_empty&#45;&gt;Vector::length -->
<g id="edge38" class="edge">
<title>Vector::is_empty&#45;&gt;Vector::length</title>
<path fill="none" stroke="black" d="M1402.82,-89.81C1389.33,-79.66 1371.44,-66.19 1356.77,-55.15"/>
<polygon fill="black" stroke="black" points="1358.65,-52.19 1348.56,-48.97 1354.44,-57.78 1358.65,-52.19"/>
</g>
<!-- Vector::empty -->
<g id="node28" class="node">
<title>Vector::empty</title>
<ellipse fill="none" stroke="black" cx="1537" cy="-34" rx="33.29" ry="18"/>
<text text-anchor="middle" x="1537" y="-30.3" font-family="Times,serif" font-size="14.00">empty</text>
</g>
<!-- Option::none&#45;&gt;Vector::empty -->
<g id="edge39" class="edge">
<title>Option::none&#45;&gt;Vector::empty</title>
<path fill="none" stroke="black" d="M1475.35,-174.39C1481.46,-170.01 1488.7,-165.62 1496,-163 1513.44,-156.73 1566.54,-168.72 1579,-155 1601.41,-130.32 1591.22,-111.01 1579,-80 1575.56,-71.28 1569.55,-63.26 1563.14,-56.47"/>
<polygon fill="black" stroke="black" points="1565.16,-53.56 1555.55,-49.11 1560.29,-58.59 1565.16,-53.56"/>
</g>
<!-- Vector::singleton -->
<g id="node29" class="node">
<title>Vector::singleton</title>
<ellipse fill="none" stroke="black" cx="1527" cy="-106" rx="42.79" ry="18"/>
<text text-anchor="middle" x="1527" y="-102.3" font-family="Times,serif" font-size="14.00">singleton</text>
</g>
<!-- Option::some&#45;&gt;Vector::singleton -->
<g id="edge40" class="edge">
<title>Option::some&#45;&gt;Vector::singleton</title>
<path fill="none" stroke="black" d="M1400.8,-174.35C1407.17,-170.08 1414.62,-165.77 1422,-163 1444.72,-154.49 1454.16,-165.58 1476,-155 1487.68,-149.34 1498.49,-140.06 1507.12,-131.16"/>
<polygon fill="black" stroke="black" points="1509.93,-133.27 1514.11,-123.53 1504.77,-128.54 1509.93,-133.27"/>
</g>
<!-- Vector::singleton&#45;&gt;Vector::empty -->
<g id="edge41" class="edge">
<title>Vector::singleton&#45;&gt;Vector::empty</title>
<path fill="none" stroke="black" d="M1529.47,-87.7C1530.57,-79.98 1531.9,-70.71 1533.13,-62.11"/>
<polygon fill="black" stroke="black" points="1536.61,-62.5 1534.56,-52.1 1529.68,-61.51 1536.61,-62.5"/>
</g>
<!-- Vector::push_back -->
<g id="node30" class="node">
<title>Vector::push_back</title>
<ellipse fill="none" stroke="black" cx="1438" cy="-34" rx="48.19" ry="18"/>
<text text-anchor="middle" x="1438" y="-30.3" font-family="Times,serif" font-size="14.00">push_back</text>
</g>
<!-- Vector::singleton&#45;&gt;Vector::push_back -->
<g id="edge42" class="edge">
<title>Vector::singleton&#45;&gt;Vector::push_back</title>
<path fill="none" stroke="black" d="M1507.69,-89.81C1495.5,-80.22 1479.54,-67.67 1465.97,-57"/>
<polygon fill="black" stroke="black" points="1467.91,-54.08 1457.89,-50.64 1463.59,-59.58 1467.91,-54.08"/>
</g>
</g>
</svg>
