<?xml version="1.0" encoding="UTF-8" standalone="no"?>
<!DOCTYPE svg PUBLIC "-//W3C//DTD SVG 1.1//EN"
 "http://www.w3.org/Graphics/SVG/1.1/DTD/svg11.dtd">
<!-- Generated by graphviz version 2.46.1 (20210213.1702)
 -->
<!-- Title: G Pages: 1 -->
<svg width="1872pt" height="611pt"
 viewBox="0.00 0.00 1872.00 611.00" xmlns="http://www.w3.org/2000/svg" xmlns:xlink="http://www.w3.org/1999/xlink">
<g id="graph0" class="graph" transform="scale(1 1) rotate(0) translate(4 607)">
<title>G</title>
<polygon fill="white" stroke="transparent" points="-4,4 -4,-607 1868,-607 1868,4 -4,4"/>
<g id="clust1" class="cluster">
<title>cluster_Errors</title>
<polygon fill="none" stroke="black" points="434,-80 434,-238 1012,-238 1012,-80 434,-80"/>
<text text-anchor="middle" x="723" y="-222.8" font-family="Times,serif" font-size="14.00">Errors</text>
</g>
<g id="clust2" class="cluster">
<title>cluster_DiemTransactionPublishingOption</title>
<polygon fill="none" stroke="black" points="526,-246 526,-404 732,-404 732,-246 526,-246"/>
<text text-anchor="middle" x="629" y="-388.8" font-family="Times,serif" font-size="14.00">DiemTransactionPublishingOption</text>
</g>
<g id="clust3" class="cluster">
<title>cluster_Roles</title>
<polygon fill="none" stroke="black" points="218,-163 218,-321 396,-321 396,-163 218,-163"/>
<text text-anchor="middle" x="307" y="-305.8" font-family="Times,serif" font-size="14.00">Roles</text>
</g>
<g id="clust4" class="cluster">
<title>cluster_Vector</title>
<polygon fill="none" stroke="black" points="8,-163 8,-321 210,-321 210,-163 8,-163"/>
<text text-anchor="middle" x="109" y="-305.8" font-family="Times,serif" font-size="14.00">Vector</text>
</g>
<g id="clust5" class="cluster">
<title>cluster_DiemConfig</title>
<polygon fill="none" stroke="black" points="434,-246 434,-321 518,-321 518,-246 434,-246"/>
<text text-anchor="middle" x="476" y="-305.8" font-family="Times,serif" font-size="14.00">DiemConfig</text>
</g>
<g id="clust6" class="cluster">
<title>cluster_Signer</title>
<polygon fill="none" stroke="black" points="265,-8 265,-155 415,-155 415,-8 265,-8"/>
<text text-anchor="middle" x="340" y="-139.8" font-family="Times,serif" font-size="14.00">Signer</text>
</g>
<g id="clust7" class="cluster">
<title>cluster_DiemTimestamp</title>
<polygon fill="none" stroke="black" points="1088,-163 1088,-487 1262,-487 1262,-163 1088,-163"/>
<text text-anchor="middle" x="1175" y="-471.8" font-family="Times,serif" font-size="14.00">DiemTimestamp</text>
</g>
<g id="clust8" class="cluster">
<title>cluster_TransactionFee</title>
<polygon fill="none" stroke="black" points="1690,-412 1690,-487 1856,-487 1856,-412 1690,-412"/>
<text text-anchor="middle" x="1773" y="-471.8" font-family="Times,serif" font-size="14.00">TransactionFee</text>
</g>
<g id="clust9" class="cluster">
<title>cluster_Hash</title>
<polygon fill="none" stroke="black" points="1270,-412 1270,-487 1374,-487 1374,-412 1270,-412"/>
<text text-anchor="middle" x="1322" y="-471.8" font-family="Times,serif" font-size="14.00">Hash</text>
</g>
<g id="clust10" class="cluster">
<title>cluster_ChainId</title>
<polygon fill="none" stroke="black" points="1270,-329 1270,-404 1340,-404 1340,-329 1270,-329"/>
<text text-anchor="middle" x="1305" y="-388.8" font-family="Times,serif" font-size="14.00">ChainId</text>
</g>
<g id="clust11" class="cluster">
<title>cluster_AccountFreezing</title>
<polygon fill="none" stroke="black" points="1382,-412 1382,-487 1548,-487 1548,-412 1382,-412"/>
<text text-anchor="middle" x="1465" y="-471.8" font-family="Times,serif" font-size="14.00">AccountFreezing</text>
</g>
<g id="clust12" class="cluster">
<title>cluster_CoreAddresses</title>
<polygon fill="none" stroke="black" points="1047,-80 1047,-155 1621,-155 1621,-80 1047,-80"/>
<text text-anchor="middle" x="1334" y="-139.8" font-family="Times,serif" font-size="14.00">CoreAddresses</text>
</g>
<g id="clust13" class="cluster">
<title>cluster_Diem</title>
<polygon fill="none" stroke="black" points="956,-246 956,-321 1032,-321 1032,-246 956,-246"/>
<text text-anchor="middle" x="994" y="-305.8" font-family="Times,serif" font-size="14.00">Diem</text>
</g>
<!-- script_prologue -->
<g id="node1" class="node">
<title>script_prologue</title>
<ellipse fill="none" stroke="black" cx="607" cy="-585" rx="65.79" ry="18"/>
<text text-anchor="middle" x="607" y="-581.3" font-family="Times,serif" font-size="14.00">script_prologue</text>
</g>
<!-- Errors::invalid_state -->
<g id="node2" class="node">
<title>Errors::invalid_state</title>
<ellipse fill="none" stroke="black" cx="948" cy="-189" rx="55.79" ry="18"/>
<text text-anchor="middle" x="948" y="-185.3" font-family="Times,serif" font-size="14.00">invalid_state</text>
</g>
<!-- script_prologue&#45;&gt;Errors::invalid_state -->
<g id="edge1" class="edge">
<title>script_prologue&#45;&gt;Errors::invalid_state</title>
<path fill="none" stroke="black" d="M562.22,-571.68C505.77,-553.1 416,-512.07 416,-439 416,-439 416,-439 416,-354 416,-305.6 393.92,-278.27 430,-246 448.76,-229.22 859.16,-246.08 883,-238 898.18,-232.85 912.76,-222.74 924.25,-213.12"/>
<polygon fill="black" stroke="black" points="926.83,-215.5 932.03,-206.27 922.21,-210.25 926.83,-215.5"/>
</g>
<!-- DiemTransactionPublishingOption::is_script_allowed -->
<g id="node3" class="node">
<title>DiemTransactionPublishingOption::is_script_allowed</title>
<ellipse fill="none" stroke="black" cx="607" cy="-355" rx="72.59" ry="18"/>
<text text-anchor="middle" x="607" y="-351.3" font-family="Times,serif" font-size="14.00">is_script_allowed</text>
</g>
<!-- script_prologue&#45;&gt;DiemTransactionPublishingOption::is_script_allowed -->
<g id="edge2" class="edge">
<title>script_prologue&#45;&gt;DiemTransactionPublishingOption::is_script_allowed</title>
<path fill="none" stroke="black" d="M607,-566.86C607,-527.57 607,-430.7 607,-383.18"/>
<polygon fill="black" stroke="black" points="610.5,-383.02 607,-373.02 603.5,-383.02 610.5,-383.02"/>
</g>
<!-- prologue_common -->
<g id="node4" class="node">
<title>prologue_common</title>
<ellipse fill="none" stroke="black" cx="1108" cy="-513" rx="77.99" ry="18"/>
<text text-anchor="middle" x="1108" y="-509.3" font-family="Times,serif" font-size="14.00">prologue_common</text>
</g>
<!-- script_prologue&#45;&gt;prologue_common -->
<g id="edge3" class="edge">
<title>script_prologue&#45;&gt;prologue_common</title>
<path fill="none" stroke="black" d="M663.98,-576.04C754.73,-563.36 932.12,-538.57 1033.05,-524.47"/>
<polygon fill="black" stroke="black" points="1033.76,-527.91 1043.17,-523.06 1032.79,-520.97 1033.76,-527.91"/>
</g>
<!-- Errors::make -->
<g id="node5" class="node">
<title>Errors::make</title>
<ellipse fill="none" stroke="black" cx="723" cy="-106" rx="30.59" ry="18"/>
<text text-anchor="middle" x="723" y="-102.3" font-family="Times,serif" font-size="14.00">make</text>
</g>
<!-- Errors::invalid_state&#45;&gt;Errors::make -->
<g id="edge4" class="edge">
<title>Errors::invalid_state&#45;&gt;Errors::make</title>
<path fill="none" stroke="black" d="M914,-174.7C904.04,-170.86 893.1,-166.71 883,-163 840.31,-147.32 790.87,-130.17 758.37,-119.03"/>
<polygon fill="black" stroke="black" points="759.45,-115.7 748.86,-115.78 757.19,-122.33 759.45,-115.7"/>
</g>
<!-- Roles::has_diem_root_role -->
<g id="node6" class="node">
<title>Roles::has_diem_root_role</title>
<ellipse fill="none" stroke="black" cx="307" cy="-272" rx="81.49" ry="18"/>
<text text-anchor="middle" x="307" y="-268.3" font-family="Times,serif" font-size="14.00">has_diem_root_role</text>
</g>
<!-- DiemTransactionPublishingOption::is_script_allowed&#45;&gt;Roles::has_diem_root_role -->
<g id="edge5" class="edge">
<title>DiemTransactionPublishingOption::is_script_allowed&#45;&gt;Roles::has_diem_root_role</title>
<path fill="none" stroke="black" d="M545.31,-345.42C511,-339.91 467.72,-331.77 430,-321 403.07,-313.31 373.83,-302.03 350.62,-292.33"/>
<polygon fill="black" stroke="black" points="351.97,-289.1 341.39,-288.43 349.24,-295.55 351.97,-289.1"/>
</g>
<!-- Vector::contains -->
<g id="node7" class="node">
<title>Vector::contains</title>
<ellipse fill="none" stroke="black" cx="162" cy="-272" rx="40.09" ry="18"/>
<text text-anchor="middle" x="162" y="-268.3" font-family="Times,serif" font-size="14.00">contains</text>
</g>
<!-- DiemTransactionPublishingOption::is_script_allowed&#45;&gt;Vector::contains -->
<g id="edge6" class="edge">
<title>DiemTransactionPublishingOption::is_script_allowed&#45;&gt;Vector::contains</title>
<path fill="none" stroke="black" d="M534.08,-353.49C436.57,-351.86 269.54,-345.44 214,-321 201.7,-315.59 190.42,-306.04 181.53,-296.87"/>
<polygon fill="black" stroke="black" points="183.99,-294.38 174.66,-289.37 178.83,-299.11 183.99,-294.38"/>
</g>
<!-- Vector::is_empty -->
<g id="node8" class="node">
<title>Vector::is_empty</title>
<ellipse fill="none" stroke="black" cx="60" cy="-272" rx="43.59" ry="18"/>
<text text-anchor="middle" x="60" y="-268.3" font-family="Times,serif" font-size="14.00">is_empty</text>
</g>
<!-- DiemTransactionPublishingOption::is_script_allowed&#45;&gt;Vector::is_empty -->
<g id="edge7" class="edge">
<title>DiemTransactionPublishingOption::is_script_allowed&#45;&gt;Vector::is_empty</title>
<path fill="none" stroke="black" d="M534.94,-351.8C407.17,-347.51 150.78,-337.03 113,-321 100.5,-315.7 89.01,-306.16 79.94,-296.98"/>
<polygon fill="black" stroke="black" points="82.31,-294.38 72.93,-289.45 77.18,-299.16 82.31,-294.38"/>
</g>
<!-- DiemConfig::get -->
<g id="node9" class="node">
<title>DiemConfig::get</title>
<ellipse fill="none" stroke="black" cx="483" cy="-272" rx="27" ry="18"/>
<text text-anchor="middle" x="483" y="-268.3" font-family="Times,serif" font-size="14.00">get</text>
</g>
<!-- DiemTransactionPublishingOption::is_script_allowed&#45;&gt;DiemConfig::get -->
<g id="edge8" class="edge">
<title>DiemTransactionPublishingOption::is_script_allowed&#45;&gt;DiemConfig::get</title>
<path fill="none" stroke="black" d="M560.66,-340.95C547.44,-335.96 533.52,-329.39 522,-321 513.15,-314.55 505.16,-305.62 498.75,-297.21"/>
<polygon fill="black" stroke="black" points="501.58,-295.15 492.89,-289.09 495.9,-299.25 501.58,-295.15"/>
</g>
<!-- DiemTransactionPublishingOption::transactions_halted -->
<g id="node10" class="node">
<title>DiemTransactionPublishingOption::transactions_halted</title>
<ellipse fill="none" stroke="black" cx="628" cy="-272" rx="78.79" ry="18"/>
<text text-anchor="middle" x="628" y="-268.3" font-family="Times,serif" font-size="14.00">transactions_halted</text>
</g>
<!-- DiemTransactionPublishingOption::is_script_allowed&#45;&gt;DiemTransactionPublishingOption::transactions_halted -->
<g id="edge9" class="edge">
<title>DiemTransactionPublishingOption::is_script_allowed&#45;&gt;DiemTransactionPublishingOption::transactions_halted</title>
<path fill="none" stroke="black" d="M611.45,-336.82C614.24,-326.08 617.88,-312.03 621.04,-299.84"/>
<polygon fill="black" stroke="black" points="624.43,-300.71 623.55,-290.15 617.66,-298.95 624.43,-300.71"/>
</g>
<!-- prologue_common&#45;&gt;Errors::invalid_state -->
<g id="edge12" class="edge">
<title>prologue_common&#45;&gt;Errors::invalid_state</title>
<path fill="none" stroke="black" d="M1089.56,-495.25C1087.44,-492.66 1085.5,-489.88 1084,-487 1033.49,-390.17 1097.7,-336.12 1036,-246 1024.87,-229.74 1007.29,-217.18 990.77,-208.12"/>
<polygon fill="black" stroke="black" points="992.23,-204.93 981.74,-203.44 989.01,-211.15 992.23,-204.93"/>
</g>
<!-- Signer::address_of -->
<g id="node11" class="node">
<title>Signer::address_of</title>
<ellipse fill="none" stroke="black" cx="340" cy="-106" rx="48.99" ry="18"/>
<text text-anchor="middle" x="340" y="-102.3" font-family="Times,serif" font-size="14.00">address_of</text>
</g>
<!-- prologue_common&#45;&gt;Signer::address_of -->
<g id="edge10" class="edge">
<title>prologue_common&#45;&gt;Signer::address_of</title>
<path fill="none" stroke="black" d="M1031.11,-509.97C948.55,-507.1 826.88,-500.6 810,-487 788.19,-469.42 758.31,-262.94 736,-246 708.91,-225.43 457.91,-257.43 430,-238 400.54,-217.49 420.28,-192.63 400,-163 391.39,-150.42 379.49,-138.57 368.56,-129.04"/>
<polygon fill="black" stroke="black" points="370.73,-126.29 360.83,-122.53 366.23,-131.65 370.73,-126.29"/>
</g>
<!-- Errors::invalid_argument -->
<g id="node12" class="node">
<title>Errors::invalid_argument</title>
<ellipse fill="none" stroke="black" cx="801" cy="-189" rx="73.39" ry="18"/>
<text text-anchor="middle" x="801" y="-185.3" font-family="Times,serif" font-size="14.00">invalid_argument</text>
</g>
<!-- prologue_common&#45;&gt;Errors::invalid_argument -->
<g id="edge11" class="edge">
<title>prologue_common&#45;&gt;Errors::invalid_argument</title>
<path fill="none" stroke="black" d="M1072.37,-496.95C1067.58,-494.06 1062.95,-490.74 1059,-487 999.97,-431.16 1025.52,-385.38 967,-329 961.56,-323.76 958.23,-325.28 952,-321 903.9,-287.93 853.83,-241.77 825.13,-213.99"/>
<polygon fill="black" stroke="black" points="827.23,-211.15 817.63,-206.67 822.34,-216.16 827.23,-211.15"/>
</g>
<!-- Errors::limit_exceeded -->
<g id="node13" class="node">
<title>Errors::limit_exceeded</title>
<ellipse fill="none" stroke="black" cx="645" cy="-189" rx="64.99" ry="18"/>
<text text-anchor="middle" x="645" y="-185.3" font-family="Times,serif" font-size="14.00">limit_exceeded</text>
</g>
<!-- prologue_common&#45;&gt;Errors::limit_exceeded -->
<g id="edge13" class="edge">
<title>prologue_common&#45;&gt;Errors::limit_exceeded</title>
<path fill="none" stroke="black" d="M1029.9,-512.82C967.09,-511.93 885.16,-506.79 859,-487 767.18,-417.54 853.12,-318.9 764,-246 748.28,-233.14 737.9,-245.45 719,-238 702.87,-231.64 686.54,-221.52 673.33,-212.21"/>
<polygon fill="black" stroke="black" points="675.29,-209.3 665.14,-206.25 671.17,-214.96 675.29,-209.3"/>
</g>
<!-- DiemTimestamp::now_seconds -->
<g id="node14" class="node">
<title>DiemTimestamp::now_seconds</title>
<ellipse fill="none" stroke="black" cx="1164" cy="-438" rx="57.69" ry="18"/>
<text text-anchor="middle" x="1164" y="-434.3" font-family="Times,serif" font-size="14.00">now_seconds</text>
</g>
<!-- prologue_common&#45;&gt;DiemTimestamp::now_seconds -->
<g id="edge14" class="edge">
<title>prologue_common&#45;&gt;DiemTimestamp::now_seconds</title>
<path fill="none" stroke="black" d="M1120.99,-495.07C1128.11,-485.79 1137.06,-474.11 1144.96,-463.82"/>
<polygon fill="black" stroke="black" points="1147.97,-465.65 1151.28,-455.59 1142.41,-461.39 1147.97,-465.65"/>
</g>
<!-- TransactionFee::is_coin_initialized -->
<g id="node15" class="node">
<title>TransactionFee::is_coin_initialized</title>
<ellipse fill="none" stroke="black" cx="1773" cy="-438" rx="75.29" ry="18"/>
<text text-anchor="middle" x="1773" y="-434.3" font-family="Times,serif" font-size="14.00">is_coin_initialized</text>
</g>
<!-- prologue_common&#45;&gt;TransactionFee::is_coin_initialized -->
<g id="edge15" class="edge">
<title>prologue_common&#45;&gt;TransactionFee::is_coin_initialized</title>
<path fill="none" stroke="black" d="M1185.32,-510.57C1331.34,-507.59 1637.26,-499.88 1684,-487 1704.13,-481.45 1724.78,-470.69 1741.1,-460.76"/>
<polygon fill="black" stroke="black" points="1743.09,-463.65 1749.7,-455.37 1739.37,-457.72 1743.09,-463.65"/>
</g>
<!-- Hash::sha3_256 -->
<g id="node16" class="node">
<title>Hash::sha3_256</title>
<ellipse fill="none" stroke="black" cx="1322" cy="-438" rx="44.39" ry="18"/>
<text text-anchor="middle" x="1322" y="-434.3" font-family="Times,serif" font-size="14.00">sha3_256</text>
</g>
<!-- prologue_common&#45;&gt;Hash::sha3_256 -->
<g id="edge16" class="edge">
<title>prologue_common&#45;&gt;Hash::sha3_256</title>
<path fill="none" stroke="black" d="M1183.62,-508.54C1210.57,-505.14 1240.54,-498.76 1266,-487 1278.66,-481.15 1290.68,-471.59 1300.32,-462.54"/>
<polygon fill="black" stroke="black" points="1302.83,-464.98 1307.5,-455.47 1297.92,-459.99 1302.83,-464.98"/>
</g>
<!-- ChainId::get -->
<g id="node17" class="node">
<title>ChainId::get</title>
<ellipse fill="none" stroke="black" cx="1305" cy="-355" rx="27" ry="18"/>
<text text-anchor="middle" x="1305" y="-351.3" font-family="Times,serif" font-size="14.00">get</text>
</g>
<!-- prologue_common&#45;&gt;ChainId::get -->
<g id="edge17" class="edge">
<title>prologue_common&#45;&gt;ChainId::get</title>
<path fill="none" stroke="black" d="M1185.62,-511.22C1331.9,-509.37 1635.2,-503.54 1651,-487 1674.02,-462.89 1672.77,-437.24 1651,-412 1643.08,-402.82 1608.99,-405.87 1597,-404 1504.73,-389.58 1396.26,-371.44 1341.13,-362.13"/>
<polygon fill="black" stroke="black" points="1341.6,-358.66 1331.15,-360.44 1340.43,-365.56 1341.6,-358.66"/>
</g>
<!-- AccountFreezing::account_is_frozen -->
<g id="node18" class="node">
<title>AccountFreezing::account_is_frozen</title>
<ellipse fill="none" stroke="black" cx="1465" cy="-438" rx="75.29" ry="18"/>
<text text-anchor="middle" x="1465" y="-434.3" font-family="Times,serif" font-size="14.00">account_is_frozen</text>
</g>
<!-- prologue_common&#45;&gt;AccountFreezing::account_is_frozen -->
<g id="edge18" class="edge">
<title>prologue_common&#45;&gt;AccountFreezing::account_is_frozen</title>
<path fill="none" stroke="black" d="M1183.67,-508.46C1250.62,-504.69 1342.96,-497.77 1378,-487 1397.3,-481.07 1417.13,-470.53 1432.98,-460.83"/>
<polygon fill="black" stroke="black" points="1435.22,-463.56 1441.82,-455.26 1431.49,-457.63 1435.22,-463.56"/>
</g>
<!-- balance -->
<g id="node19" class="node">
<title>balance</title>
<ellipse fill="none" stroke="black" cx="906" cy="-438" rx="37.89" ry="18"/>
<text text-anchor="middle" x="906" y="-434.3" font-family="Times,serif" font-size="14.00">balance</text>
</g>
<!-- prologue_common&#45;&gt;balance -->
<g id="edge19" class="edge">
<title>prologue_common&#45;&gt;balance</title>
<path fill="none" stroke="black" d="M1037.41,-505.15C1015.82,-501.45 992.41,-495.76 972,-487 957.12,-480.62 942.38,-470.37 930.61,-460.98"/>
<polygon fill="black" stroke="black" points="932.54,-458.04 922.61,-454.36 928.08,-463.43 932.54,-458.04"/>
</g>
<!-- exists_at -->
<g id="node20" class="node">
<title>exists_at</title>
<ellipse fill="none" stroke="black" cx="1600" cy="-438" rx="41.69" ry="18"/>
<text text-anchor="middle" x="1600" y="-434.3" font-family="Times,serif" font-size="14.00">exists_at</text>
</g>
<!-- prologue_common&#45;&gt;exists_at -->
<g id="edge20" class="edge">
<title>prologue_common&#45;&gt;exists_at</title>
<path fill="none" stroke="black" d="M1185.43,-510.63C1303.81,-508.09 1519.54,-501.53 1552,-487 1563.65,-481.79 1574.03,-472.4 1582.13,-463.29"/>
<polygon fill="black" stroke="black" points="1584.93,-465.41 1588.64,-455.48 1579.55,-460.93 1584.93,-465.41"/>
</g>
<!-- Roles::has_role -->
<g id="node21" class="node">
<title>Roles::has_role</title>
<ellipse fill="none" stroke="black" cx="318" cy="-189" rx="40.09" ry="18"/>
<text text-anchor="middle" x="318" y="-185.3" font-family="Times,serif" font-size="14.00">has_role</text>
</g>
<!-- Roles::has_diem_root_role&#45;&gt;Roles::has_role -->
<g id="edge21" class="edge">
<title>Roles::has_diem_root_role&#45;&gt;Roles::has_role</title>
<path fill="none" stroke="black" d="M309.33,-253.82C310.78,-243.19 312.66,-229.31 314.31,-217.2"/>
<polygon fill="black" stroke="black" points="317.79,-217.53 315.67,-207.15 310.86,-216.59 317.79,-217.53"/>
</g>
<!-- Vector::borrow -->
<g id="node22" class="node">
<title>Vector::borrow</title>
<ellipse fill="none" stroke="black" cx="162" cy="-189" rx="36.29" ry="18"/>
<text text-anchor="middle" x="162" y="-185.3" font-family="Times,serif" font-size="14.00">borrow</text>
</g>
<!-- Vector::contains&#45;&gt;Vector::borrow -->
<g id="edge22" class="edge">
<title>Vector::contains&#45;&gt;Vector::borrow</title>
<path fill="none" stroke="black" d="M162,-253.82C162,-243.19 162,-229.31 162,-217.2"/>
<polygon fill="black" stroke="black" points="165.5,-217.15 162,-207.15 158.5,-217.15 165.5,-217.15"/>
</g>
<!-- Vector::length -->
<g id="node23" class="node">
<title>Vector::length</title>
<ellipse fill="none" stroke="black" cx="67" cy="-189" rx="32.49" ry="18"/>
<text text-anchor="middle" x="67" y="-185.3" font-family="Times,serif" font-size="14.00">length</text>
</g>
<!-- Vector::contains&#45;&gt;Vector::length -->
<g id="edge23" class="edge">
<title>Vector::contains&#45;&gt;Vector::length</title>
<path fill="none" stroke="black" d="M140.95,-256.44C133.25,-250.89 124.57,-244.36 117,-238 107.55,-230.06 97.64,-220.77 89.16,-212.5"/>
<polygon fill="black" stroke="black" points="91.4,-209.79 81.83,-205.25 86.48,-214.77 91.4,-209.79"/>
</g>
<!-- Vector::is_empty&#45;&gt;Vector::length -->
<g id="edge24" class="edge">
<title>Vector::is_empty&#45;&gt;Vector::length</title>
<path fill="none" stroke="black" d="M61.48,-253.82C62.4,-243.19 63.6,-229.31 64.65,-217.2"/>
<polygon fill="black" stroke="black" points="68.14,-217.42 65.52,-207.15 61.17,-216.81 68.14,-217.42"/>
</g>
<!-- Errors::not_published -->
<g id="node24" class="node">
<title>Errors::not_published</title>
<ellipse fill="none" stroke="black" cx="502" cy="-189" rx="60.39" ry="18"/>
<text text-anchor="middle" x="502" y="-185.3" font-family="Times,serif" font-size="14.00">not_published</text>
</g>
<!-- DiemConfig::get&#45;&gt;Errors::not_published -->
<g id="edge25" class="edge">
<title>DiemConfig::get&#45;&gt;Errors::not_published</title>
<path fill="none" stroke="black" d="M487.03,-253.82C489.52,-243.19 492.78,-229.31 495.62,-217.2"/>
<polygon fill="black" stroke="black" points="499.1,-217.69 497.98,-207.15 492.29,-216.09 499.1,-217.69"/>
</g>
<!-- CoreAddresses::DIEM_ROOT_ADDRESS -->
<g id="node25" class="node">
<title>CoreAddresses::DIEM_ROOT_ADDRESS</title>
<ellipse fill="none" stroke="black" cx="1162" cy="-106" rx="106.68" ry="18"/>
<text text-anchor="middle" x="1162" y="-102.3" font-family="Times,serif" font-size="14.00">DIEM_ROOT_ADDRESS</text>
</g>
<!-- DiemConfig::get&#45;&gt;CoreAddresses::DIEM_ROOT_ADDRESS -->
<g id="edge26" class="edge">
<title>DiemConfig::get&#45;&gt;CoreAddresses::DIEM_ROOT_ADDRESS</title>
<path fill="none" stroke="black" d="M499.45,-257.58C506.05,-253 513.99,-248.42 522,-246 548.28,-238.07 993.4,-253.57 1016,-238 1045.56,-217.63 1021.51,-189.25 1046,-163 1061.28,-146.63 1082.35,-134.49 1102.35,-125.79"/>
<polygon fill="black" stroke="black" points="1103.84,-128.96 1111.75,-121.91 1101.17,-122.49 1103.84,-128.96"/>
</g>
<!-- DiemTransactionPublishingOption::transactions_halted&#45;&gt;CoreAddresses::DIEM_ROOT_ADDRESS -->
<g id="edge27" class="edge">
<title>DiemTransactionPublishingOption::transactions_halted&#45;&gt;CoreAddresses::DIEM_ROOT_ADDRESS</title>
<path fill="none" stroke="black" d="M701.1,-265.34C820.7,-256.07 1045.11,-238.59 1046,-238 1077.04,-217.2 1059.68,-191.37 1084,-163 1095.32,-149.79 1110.37,-138.05 1124.23,-128.77"/>
<polygon fill="black" stroke="black" points="1126.16,-131.69 1132.66,-123.32 1122.36,-125.81 1126.16,-131.69"/>
</g>
<!-- Signer::borrow_address -->
<g id="node26" class="node">
<title>Signer::borrow_address</title>
<ellipse fill="none" stroke="black" cx="340" cy="-34" rx="66.89" ry="18"/>
<text text-anchor="middle" x="340" y="-30.3" font-family="Times,serif" font-size="14.00">borrow_address</text>
</g>
<!-- Signer::address_of&#45;&gt;Signer::borrow_address -->
<g id="edge28" class="edge">
<title>Signer::address_of&#45;&gt;Signer::borrow_address</title>
<path fill="none" stroke="black" d="M340,-87.7C340,-79.98 340,-70.71 340,-62.11"/>
<polygon fill="black" stroke="black" points="343.5,-62.1 340,-52.1 336.5,-62.1 343.5,-62.1"/>
</g>
<!-- Errors::invalid_argument&#45;&gt;Errors::make -->
<g id="edge29" class="edge">
<title>Errors::invalid_argument&#45;&gt;Errors::make</title>
<path fill="none" stroke="black" d="M784.84,-171.22C773.2,-159.13 757.37,-142.69 744.64,-129.48"/>
<polygon fill="black" stroke="black" points="747.02,-126.9 737.56,-122.12 741.98,-131.75 747.02,-126.9"/>
</g>
<!-- Errors::limit_exceeded&#45;&gt;Errors::make -->
<g id="edge30" class="edge">
<title>Errors::limit_exceeded&#45;&gt;Errors::make</title>
<path fill="none" stroke="black" d="M661.16,-171.22C672.8,-159.13 688.63,-142.69 701.36,-129.48"/>
<polygon fill="black" stroke="black" points="704.02,-131.75 708.44,-122.12 698.98,-126.9 704.02,-131.75"/>
</g>
<!-- DiemTimestamp::now_microseconds -->
<g id="node27" class="node">
<title>DiemTimestamp::now_microseconds</title>
<ellipse fill="none" stroke="black" cx="1175" cy="-355" rx="79.09" ry="18"/>
<text text-anchor="middle" x="1175" y="-351.3" font-family="Times,serif" font-size="14.00">now_microseconds</text>
</g>
<!-- DiemTimestamp::now_seconds&#45;&gt;DiemTimestamp::now_microseconds -->
<g id="edge31" class="edge">
<title>DiemTimestamp::now_seconds&#45;&gt;DiemTimestamp::now_microseconds</title>
<path fill="none" stroke="black" d="M1166.33,-419.82C1167.78,-409.19 1169.66,-395.31 1171.31,-383.2"/>
<polygon fill="black" stroke="black" points="1174.79,-383.53 1172.67,-373.15 1167.86,-382.59 1174.79,-383.53"/>
</g>
<!-- CoreAddresses::TREASURY_COMPLIANCE_ADDRESS -->
<g id="node28" class="node">
<title>CoreAddresses::TREASURY_COMPLIANCE_ADDRESS</title>
<ellipse fill="none" stroke="black" cx="1450" cy="-106" rx="163.27" ry="18"/>
<text text-anchor="middle" x="1450" y="-102.3" font-family="Times,serif" font-size="14.00">TREASURY_COMPLIANCE_ADDRESS</text>
</g>
<!-- TransactionFee::is_coin_initialized&#45;&gt;CoreAddresses::TREASURY_COMPLIANCE_ADDRESS -->
<g id="edge32" class="edge">
<title>TransactionFee::is_coin_initialized&#45;&gt;CoreAddresses::TREASURY_COMPLIANCE_ADDRESS</title>
<path fill="none" stroke="black" d="M1756.54,-420.18C1703.42,-365.91 1536.39,-195.26 1473.9,-131.42"/>
<polygon fill="black" stroke="black" points="1476.31,-128.88 1466.82,-124.18 1471.31,-133.77 1476.31,-128.88"/>
</g>
<!-- ChainId::get&#45;&gt;CoreAddresses::DIEM_ROOT_ADDRESS -->
<g id="edge33" class="edge">
<title>ChainId::get&#45;&gt;CoreAddresses::DIEM_ROOT_ADDRESS</title>
<path fill="none" stroke="black" d="M1306.08,-336.77C1307.43,-300.77 1305.77,-216.51 1266,-163 1254.07,-146.95 1236.14,-135 1218.52,-126.36"/>
<polygon fill="black" stroke="black" points="1219.91,-123.15 1209.36,-122.14 1216.97,-129.51 1219.91,-123.15"/>
</g>
<!-- DiemTimestamp::assert_operating -->
<g id="node29" class="node">
<title>DiemTimestamp::assert_operating</title>
<ellipse fill="none" stroke="black" cx="1186" cy="-272" rx="68.49" ry="18"/>
<text text-anchor="middle" x="1186" y="-268.3" font-family="Times,serif" font-size="14.00">assert_operating</text>
</g>
<!-- ChainId::get&#45;&gt;DiemTimestamp::assert_operating -->
<g id="edge34" class="edge">
<title>ChainId::get&#45;&gt;DiemTimestamp::assert_operating</title>
<path fill="none" stroke="black" d="M1286.67,-341.52C1268.36,-329.06 1239.87,-309.67 1217.86,-294.69"/>
<polygon fill="black" stroke="black" points="1219.71,-291.71 1209.48,-288.98 1215.77,-297.5 1219.71,-291.71"/>
</g>
<!-- balance&#45;&gt;Errors::not_published -->
<g id="edge35" class="edge">
<title>balance&#45;&gt;Errors::not_published</title>
<path fill="none" stroke="black" d="M877.53,-425.99C866.37,-420.62 854.09,-413.3 845,-404 789.82,-347.59 830.47,-288.53 764,-246 745.92,-234.43 591.34,-244.85 571,-238 555.16,-232.67 539.67,-222.5 527.4,-212.88"/>
<polygon fill="black" stroke="black" points="529.41,-210 519.46,-206.38 524.98,-215.42 529.41,-210"/>
</g>
<!-- balance_for -->
<g id="node30" class="node">
<title>balance_for</title>
<ellipse fill="none" stroke="black" cx="906" cy="-355" rx="51.99" ry="18"/>
<text text-anchor="middle" x="906" y="-351.3" font-family="Times,serif" font-size="14.00">balance_for</text>
</g>
<!-- balance&#45;&gt;balance_for -->
<g id="edge36" class="edge">
<title>balance&#45;&gt;balance_for</title>
<path fill="none" stroke="black" d="M906,-419.82C906,-409.19 906,-395.31 906,-383.2"/>
<polygon fill="black" stroke="black" points="909.5,-383.15 906,-373.15 902.5,-383.15 909.5,-383.15"/>
</g>
<!-- Roles::has_role&#45;&gt;Signer::address_of -->
<g id="edge37" class="edge">
<title>Roles::has_role&#45;&gt;Signer::address_of</title>
<path fill="none" stroke="black" d="M322.67,-170.82C325.58,-160.08 329.4,-146.03 332.71,-133.84"/>
<polygon fill="black" stroke="black" points="336.1,-134.72 335.34,-124.15 329.34,-132.89 336.1,-134.72"/>
</g>
<!-- Errors::not_published&#45;&gt;Errors::make -->
<g id="edge38" class="edge">
<title>Errors::not_published&#45;&gt;Errors::make</title>
<path fill="none" stroke="black" d="M538.49,-174.62C580.06,-159.39 647.48,-134.68 688.29,-119.72"/>
<polygon fill="black" stroke="black" points="689.63,-122.96 697.81,-116.23 687.22,-116.39 689.63,-122.96"/>
</g>
<!-- DiemTimestamp::now_microseconds&#45;&gt;CoreAddresses::DIEM_ROOT_ADDRESS -->
<g id="edge39" class="edge">
<title>DiemTimestamp::now_microseconds&#45;&gt;CoreAddresses::DIEM_ROOT_ADDRESS</title>
<path fill="none" stroke="black" d="M1130.25,-340.09C1121.81,-335.39 1114.05,-329.17 1109,-321 1071.51,-260.33 1116.67,-174.61 1144.03,-132.44"/>
<polygon fill="black" stroke="black" points="1147.09,-134.16 1149.72,-123.89 1141.27,-130.28 1147.09,-134.16"/>
</g>
<!-- DiemTimestamp::now_microseconds&#45;&gt;DiemTimestamp::assert_operating -->
<g id="edge40" class="edge">
<title>DiemTimestamp::now_microseconds&#45;&gt;DiemTimestamp::assert_operating</title>
<path fill="none" stroke="black" d="M1177.33,-336.82C1178.78,-326.19 1180.66,-312.31 1182.31,-300.2"/>
<polygon fill="black" stroke="black" points="1185.79,-300.53 1183.67,-290.15 1178.86,-299.59 1185.79,-300.53"/>
</g>
<!-- DiemTimestamp::assert_operating&#45;&gt;Errors::invalid_state -->
<g id="edge41" class="edge">
<title>DiemTimestamp::assert_operating&#45;&gt;Errors::invalid_state</title>
<path fill="none" stroke="black" d="M1144.23,-257.76C1125.74,-251.83 1103.75,-244.68 1084,-238 1053.71,-227.76 1019.81,-215.79 993.42,-206.37"/>
<polygon fill="black" stroke="black" points="994.3,-202.96 983.7,-202.89 991.94,-209.56 994.3,-202.96"/>
</g>
<!-- DiemTimestamp::is_operating -->
<g id="node31" class="node">
<title>DiemTimestamp::is_operating</title>
<ellipse fill="none" stroke="black" cx="1190" cy="-189" rx="53.89" ry="18"/>
<text text-anchor="middle" x="1190" y="-185.3" font-family="Times,serif" font-size="14.00">is_operating</text>
</g>
<!-- DiemTimestamp::assert_operating&#45;&gt;DiemTimestamp::is_operating -->
<g id="edge42" class="edge">
<title>DiemTimestamp::assert_operating&#45;&gt;DiemTimestamp::is_operating</title>
<path fill="none" stroke="black" d="M1186.85,-253.82C1187.37,-243.19 1188.06,-229.31 1188.66,-217.2"/>
<polygon fill="black" stroke="black" points="1192.16,-217.31 1189.15,-207.15 1185.16,-216.97 1192.16,-217.31"/>
</g>
<!-- Diem::value -->
<g id="node32" class="node">
<title>Diem::value</title>
<ellipse fill="none" stroke="black" cx="994" cy="-272" rx="29.8" ry="18"/>
<text text-anchor="middle" x="994" y="-268.3" font-family="Times,serif" font-size="14.00">value</text>
</g>
<!-- balance_for&#45;&gt;Diem::value -->
<g id="edge43" class="edge">
<title>balance_for&#45;&gt;Diem::value</title>
<path fill="none" stroke="black" d="M923.39,-338C936.83,-325.63 955.57,-308.37 970.37,-294.75"/>
<polygon fill="black" stroke="black" points="973.14,-296.96 978.13,-287.61 968.4,-291.81 973.14,-296.96"/>
</g>
<!-- DiemTimestamp::is_operating&#45;&gt;CoreAddresses::DIEM_ROOT_ADDRESS -->
<g id="edge44" class="edge">
<title>DiemTimestamp::is_operating&#45;&gt;CoreAddresses::DIEM_ROOT_ADDRESS</title>
<path fill="none" stroke="black" d="M1184.06,-170.82C1180.35,-160.08 1175.49,-146.03 1171.28,-133.84"/>
<polygon fill="black" stroke="black" points="1174.5,-132.46 1167.93,-124.15 1167.89,-134.75 1174.5,-132.46"/>
</g>
</g>
</svg>
