<?xml version="1.0" encoding="UTF-8" standalone="no"?>
<!DOCTYPE svg PUBLIC "-//W3C//DTD SVG 1.1//EN"
 "http://www.w3.org/Graphics/SVG/1.1/DTD/svg11.dtd">
<!-- Generated by graphviz version 2.46.1 (20210213.1702)
 -->
<!-- Title: G Pages: 1 -->
<svg width="2132pt" height="520pt"
 viewBox="0.00 0.00 2132.49 520.00" xmlns="http://www.w3.org/2000/svg" xmlns:xlink="http://www.w3.org/1999/xlink">
<g id="graph0" class="graph" transform="scale(1 1) rotate(0) translate(4 516)">
<title>G</title>
<polygon fill="white" stroke="transparent" points="-4,4 -4,-516 2128.49,-516 2128.49,4 -4,4"/>
<g id="clust1" class="cluster">
<title>cluster_Errors</title>
<polygon fill="none" stroke="black" points="166,-8 166,-155 1060,-155 1060,-8 166,-8"/>
<text text-anchor="middle" x="613" y="-139.8" font-family="Times,serif" font-size="14.00">Errors</text>
</g>
<g id="clust2" class="cluster">
<title>cluster_DiemTimestamp</title>
<polygon fill="none" stroke="black" points="1824,-80 1824,-321 2110,-321 2110,-80 1824,-80"/>
<text text-anchor="middle" x="1967" y="-305.8" font-family="Times,serif" font-size="14.00">DiemTimestamp</text>
</g>
<g id="clust3" class="cluster">
<title>cluster_Roles</title>
<polygon fill="none" stroke="black" points="451,-246 451,-321 609,-321 609,-246 451,-246"/>
<text text-anchor="middle" x="530" y="-305.8" font-family="Times,serif" font-size="14.00">Roles</text>
</g>
<g id="clust4" class="cluster">
<title>cluster_DiemConfig</title>
<polygon fill="none" stroke="black" points="1500,-246 1500,-468 1708,-468 1708,-246 1500,-246"/>
<text text-anchor="middle" x="1604" y="-452.8" font-family="Times,serif" font-size="14.00">DiemConfig</text>
</g>
<g id="clust5" class="cluster">
<title>cluster_Signer</title>
<polygon fill="none" stroke="black" points="8,-8 8,-155 158,-155 158,-8 8,-8"/>
<text text-anchor="middle" x="83" y="-139.8" font-family="Times,serif" font-size="14.00">Signer</text>
</g>
<g id="clust6" class="cluster">
<title>cluster_CoreAddresses</title>
<polygon fill="none" stroke="black" points="1068,-80 1068,-238 1298,-238 1298,-80 1068,-80"/>
<text text-anchor="middle" x="1183" y="-222.8" font-family="Times,serif" font-size="14.00">CoreAddresses</text>
</g>
<g id="clust7" class="cluster">
<title>cluster_Event</title>
<polygon fill="none" stroke="black" points="1306,-163 1306,-321 1492,-321 1492,-163 1306,-163"/>
<text text-anchor="middle" x="1399" y="-305.8" font-family="Times,serif" font-size="14.00">Event</text>
</g>
<!-- set -->
<g id="node1" class="node">
<title>set</title>
<ellipse fill="none" stroke="black" cx="1535" cy="-494" rx="27" ry="18"/>
<text text-anchor="middle" x="1535" y="-490.3" font-family="Times,serif" font-size="14.00">set</text>
</g>
<!-- Errors::invalid_argument -->
<g id="node2" class="node">
<title>Errors::invalid_argument</title>
<ellipse fill="none" stroke="black" cx="380" cy="-106" rx="73.39" ry="18"/>
<text text-anchor="middle" x="380" y="-102.3" font-family="Times,serif" font-size="14.00">invalid_argument</text>
</g>
<!-- set&#45;&gt;Errors::invalid_argument -->
<g id="edge1" class="edge">
<title>set&#45;&gt;Errors::invalid_argument</title>
<path fill="none" stroke="black" d="M1507.89,-491.6C1357.14,-483.46 629,-439.39 629,-348 629,-348 629,-348 629,-271 629,-228.86 601.52,-200.36 521,-163 497,-151.86 487.02,-163.63 462,-155 444.05,-148.81 425.66,-138.48 410.86,-128.99"/>
<polygon fill="black" stroke="black" points="412.42,-125.82 402.15,-123.23 408.56,-131.66 412.42,-125.82"/>
</g>
<!-- DiemTimestamp::assert_operating -->
<g id="node3" class="node">
<title>DiemTimestamp::assert_operating</title>
<ellipse fill="none" stroke="black" cx="2017" cy="-189" rx="68.49" ry="18"/>
<text text-anchor="middle" x="2017" y="-185.3" font-family="Times,serif" font-size="14.00">assert_operating</text>
</g>
<!-- set&#45;&gt;DiemTimestamp::assert_operating -->
<g id="edge2" class="edge">
<title>set&#45;&gt;DiemTimestamp::assert_operating</title>
<path fill="none" stroke="black" d="M1561.73,-491.01C1596.68,-488 1659.63,-481.18 1712,-468 1895.27,-421.86 2002.91,-476.02 2111,-321 2130.07,-293.66 2127.47,-274.98 2111,-246 2101.42,-229.14 2084.53,-216.82 2067.68,-208.1"/>
<polygon fill="black" stroke="black" points="2068.91,-204.81 2058.38,-203.62 2065.87,-211.11 2068.91,-204.81"/>
</g>
<!-- Roles::assert_diem_root -->
<g id="node4" class="node">
<title>Roles::assert_diem_root</title>
<ellipse fill="none" stroke="black" cx="530" cy="-272" rx="71.49" ry="18"/>
<text text-anchor="middle" x="530" y="-268.3" font-family="Times,serif" font-size="14.00">assert_diem_root</text>
</g>
<!-- set&#45;&gt;Roles::assert_diem_root -->
<g id="edge3" class="edge">
<title>set&#45;&gt;Roles::assert_diem_root</title>
<path fill="none" stroke="black" d="M1507.72,-493.08C1359.17,-493.4 652.92,-493.58 615,-468 558.01,-429.56 538.96,-343.91 532.8,-300.04"/>
<polygon fill="black" stroke="black" points="536.27,-299.57 531.53,-290.09 529.33,-300.46 536.27,-299.57"/>
</g>
<!-- DiemConfig::set -->
<g id="node5" class="node">
<title>DiemConfig::set</title>
<ellipse fill="none" stroke="black" cx="1535" cy="-419" rx="27" ry="18"/>
<text text-anchor="middle" x="1535" y="-415.3" font-family="Times,serif" font-size="14.00">set</text>
</g>
<!-- set&#45;&gt;DiemConfig::set -->
<g id="edge4" class="edge">
<title>set&#45;&gt;DiemConfig::set</title>
<path fill="none" stroke="black" d="M1535,-475.7C1535,-467.25 1535,-456.87 1535,-447.37"/>
<polygon fill="black" stroke="black" points="1538.5,-447.18 1535,-437.18 1531.5,-447.18 1538.5,-447.18"/>
</g>
<!-- DiemConfig::get -->
<g id="node6" class="node">
<title>DiemConfig::get</title>
<ellipse fill="none" stroke="black" cx="1607" cy="-419" rx="27" ry="18"/>
<text text-anchor="middle" x="1607" y="-415.3" font-family="Times,serif" font-size="14.00">get</text>
</g>
<!-- set&#45;&gt;DiemConfig::get -->
<g id="edge5" class="edge">
<title>set&#45;&gt;DiemConfig::get</title>
<path fill="none" stroke="black" d="M1554.56,-481.09C1560.16,-477.25 1566.07,-472.75 1571,-468 1578.27,-460.99 1585.2,-452.41 1591,-444.45"/>
<polygon fill="black" stroke="black" points="1593.93,-446.35 1596.81,-436.16 1588.2,-442.33 1593.93,-446.35"/>
</g>
<!-- Errors::make -->
<g id="node7" class="node">
<title>Errors::make</title>
<ellipse fill="none" stroke="black" cx="627" cy="-34" rx="30.59" ry="18"/>
<text text-anchor="middle" x="627" y="-30.3" font-family="Times,serif" font-size="14.00">make</text>
</g>
<!-- Errors::invalid_argument&#45;&gt;Errors::make -->
<g id="edge6" class="edge">
<title>Errors::invalid_argument&#45;&gt;Errors::make</title>
<path fill="none" stroke="black" d="M423.76,-91.4C436.1,-87.63 449.56,-83.59 462,-80 505.69,-67.39 556.16,-53.76 589.66,-44.84"/>
<polygon fill="black" stroke="black" points="590.72,-48.18 599.49,-42.24 588.92,-41.42 590.72,-48.18"/>
</g>
<!-- Errors::invalid_state -->
<g id="node8" class="node">
<title>Errors::invalid_state</title>
<ellipse fill="none" stroke="black" cx="839" cy="-106" rx="55.79" ry="18"/>
<text text-anchor="middle" x="839" y="-102.3" font-family="Times,serif" font-size="14.00">invalid_state</text>
</g>
<!-- DiemTimestamp::assert_operating&#45;&gt;Errors::invalid_state -->
<g id="edge7" class="edge">
<title>DiemTimestamp::assert_operating&#45;&gt;Errors::invalid_state</title>
<path fill="none" stroke="black" d="M1951.23,-184.12C1852.44,-178.45 1659.83,-168.03 1496,-163 1463.07,-161.99 934.19,-165.63 903,-155 887.98,-149.88 873.62,-139.77 862.32,-130.14"/>
<polygon fill="black" stroke="black" points="864.45,-127.35 854.67,-123.29 859.78,-132.57 864.45,-127.35"/>
</g>
<!-- DiemTimestamp::is_operating -->
<g id="node9" class="node">
<title>DiemTimestamp::is_operating</title>
<ellipse fill="none" stroke="black" cx="1951" cy="-106" rx="53.89" ry="18"/>
<text text-anchor="middle" x="1951" y="-102.3" font-family="Times,serif" font-size="14.00">is_operating</text>
</g>
<!-- DiemTimestamp::assert_operating&#45;&gt;DiemTimestamp::is_operating -->
<g id="edge8" class="edge">
<title>DiemTimestamp::assert_operating&#45;&gt;DiemTimestamp::is_operating</title>
<path fill="none" stroke="black" d="M2003.32,-171.22C1993.97,-159.74 1981.42,-144.33 1970.95,-131.49"/>
<polygon fill="black" stroke="black" points="1973.46,-129.03 1964.43,-123.48 1968.04,-133.45 1973.46,-129.03"/>
</g>
<!-- Signer::address_of -->
<g id="node10" class="node">
<title>Signer::address_of</title>
<ellipse fill="none" stroke="black" cx="101" cy="-106" rx="48.99" ry="18"/>
<text text-anchor="middle" x="101" y="-102.3" font-family="Times,serif" font-size="14.00">address_of</text>
</g>
<!-- Roles::assert_diem_root&#45;&gt;Signer::address_of -->
<g id="edge9" class="edge">
<title>Roles::assert_diem_root&#45;&gt;Signer::address_of</title>
<path fill="none" stroke="black" d="M506.99,-254.88C500.74,-249.89 494.25,-244.09 489,-238 463.76,-208.74 478.26,-182.68 445,-163 417.93,-146.98 191.58,-165.71 162,-155 147.66,-149.81 134.08,-139.83 123.39,-130.31"/>
<polygon fill="black" stroke="black" points="125.5,-127.49 115.81,-123.2 120.71,-132.59 125.5,-127.49"/>
</g>
<!-- Errors::not_published -->
<g id="node11" class="node">
<title>Errors::not_published</title>
<ellipse fill="none" stroke="black" cx="705" cy="-106" rx="60.39" ry="18"/>
<text text-anchor="middle" x="705" y="-102.3" font-family="Times,serif" font-size="14.00">not_published</text>
</g>
<!-- Roles::assert_diem_root&#45;&gt;Errors::not_published -->
<g id="edge10" class="edge">
<title>Roles::assert_diem_root&#45;&gt;Errors::not_published</title>
<path fill="none" stroke="black" d="M547.74,-254.37C579.01,-225.07 643.99,-164.18 679.86,-130.56"/>
<polygon fill="black" stroke="black" points="682.57,-132.82 687.47,-123.43 677.78,-127.71 682.57,-132.82"/>
</g>
<!-- Errors::requires_role -->
<g id="node12" class="node">
<title>Errors::requires_role</title>
<ellipse fill="none" stroke="black" cx="231" cy="-106" rx="57.39" ry="18"/>
<text text-anchor="middle" x="231" y="-102.3" font-family="Times,serif" font-size="14.00">requires_role</text>
</g>
<!-- Roles::assert_diem_root&#45;&gt;Errors::requires_role -->
<g id="edge11" class="edge">
<title>Roles::assert_diem_root&#45;&gt;Errors::requires_role</title>
<path fill="none" stroke="black" d="M529.05,-253.68C526.65,-228.93 518.28,-184.12 489,-163 471.77,-150.57 318.08,-161.92 298,-155 282.5,-149.66 267.46,-139.49 255.56,-129.88"/>
<polygon fill="black" stroke="black" points="257.76,-127.15 247.87,-123.38 253.25,-132.5 257.76,-127.15"/>
</g>
<!-- CoreAddresses::assert_diem_root -->
<g id="node13" class="node">
<title>CoreAddresses::assert_diem_root</title>
<ellipse fill="none" stroke="black" cx="1147" cy="-189" rx="71.49" ry="18"/>
<text text-anchor="middle" x="1147" y="-185.3" font-family="Times,serif" font-size="14.00">assert_diem_root</text>
</g>
<!-- Roles::assert_diem_root&#45;&gt;CoreAddresses::assert_diem_root -->
<g id="edge12" class="edge">
<title>Roles::assert_diem_root&#45;&gt;CoreAddresses::assert_diem_root</title>
<path fill="none" stroke="black" d="M591.7,-262.9C706.58,-247.82 952.69,-215.51 1074.97,-199.46"/>
<polygon fill="black" stroke="black" points="1075.53,-202.91 1084.99,-198.14 1074.62,-195.97 1075.53,-202.91"/>
</g>
<!-- DiemConfig::set&#45;&gt;Signer::address_of -->
<g id="edge13" class="edge">
<title>DiemConfig::set&#45;&gt;Signer::address_of</title>
<path fill="none" stroke="black" d="M1508.09,-417.36C1360.89,-413.58 652.22,-391.95 447,-321 316.2,-275.78 182.93,-174.41 127.6,-129.34"/>
<polygon fill="black" stroke="black" points="129.65,-126.5 119.7,-122.86 125.21,-131.91 129.65,-126.5"/>
</g>
<!-- DiemConfig::set&#45;&gt;Errors::not_published -->
<g id="edge14" class="edge">
<title>DiemConfig::set&#45;&gt;Errors::not_published</title>
<path fill="none" stroke="black" d="M1507.94,-417.18C1391.41,-413.44 935.91,-396.91 881,-365 788.96,-311.5 734.57,-188.3 714.22,-133.78"/>
<polygon fill="black" stroke="black" points="717.42,-132.34 710.71,-124.14 710.84,-134.73 717.42,-132.34"/>
</g>
<!-- Errors::requires_capability -->
<g id="node14" class="node">
<title>Errors::requires_capability</title>
<ellipse fill="none" stroke="black" cx="549" cy="-106" rx="77.99" ry="18"/>
<text text-anchor="middle" x="549" y="-102.3" font-family="Times,serif" font-size="14.00">requires_capability</text>
</g>
<!-- DiemConfig::set&#45;&gt;Errors::requires_capability -->
<g id="edge15" class="edge">
<title>DiemConfig::set&#45;&gt;Errors::requires_capability</title>
<path fill="none" stroke="black" d="M1507.9,-417.76C1394.83,-416.49 960.61,-408.79 832,-365 715.61,-325.37 735,-244.56 643,-163 627.41,-149.18 607.92,-136.92 590.74,-127.42"/>
<polygon fill="black" stroke="black" points="591.93,-124.09 581.47,-122.44 588.62,-130.26 591.93,-124.09"/>
</g>
<!-- CoreAddresses::DIEM_ROOT_ADDRESS -->
<g id="node15" class="node">
<title>CoreAddresses::DIEM_ROOT_ADDRESS</title>
<ellipse fill="none" stroke="black" cx="1183" cy="-106" rx="106.68" ry="18"/>
<text text-anchor="middle" x="1183" y="-102.3" font-family="Times,serif" font-size="14.00">DIEM_ROOT_ADDRESS</text>
</g>
<!-- DiemConfig::set&#45;&gt;CoreAddresses::DIEM_ROOT_ADDRESS -->
<g id="edge16" class="edge">
<title>DiemConfig::set&#45;&gt;CoreAddresses::DIEM_ROOT_ADDRESS</title>
<path fill="none" stroke="black" d="M1556.18,-407.63C1561.02,-405.36 1566.16,-403.04 1571,-401 1643.92,-370.32 1693.69,-391.28 1730,-321 1745.3,-291.38 1743.29,-276.57 1730,-246 1708.43,-196.4 1690.03,-185.85 1641,-163 1581.27,-135.16 1409.13,-119.98 1293.74,-112.68"/>
<polygon fill="black" stroke="black" points="1293.65,-109.16 1283.46,-112.04 1293.22,-116.15 1293.65,-109.16"/>
</g>
<!-- DiemConfig::reconfigure_ -->
<g id="node16" class="node">
<title>DiemConfig::reconfigure_</title>
<ellipse fill="none" stroke="black" cx="1604" cy="-347" rx="55.49" ry="18"/>
<text text-anchor="middle" x="1604" y="-343.3" font-family="Times,serif" font-size="14.00">reconfigure_</text>
</g>
<!-- DiemConfig::set&#45;&gt;DiemConfig::reconfigure_ -->
<g id="edge17" class="edge">
<title>DiemConfig::set&#45;&gt;DiemConfig::reconfigure_</title>
<path fill="none" stroke="black" d="M1549.3,-403.5C1558.32,-394.34 1570.18,-382.31 1580.56,-371.78"/>
<polygon fill="black" stroke="black" points="1583.26,-374.03 1587.79,-364.45 1578.27,-369.11 1583.26,-374.03"/>
</g>
<!-- DiemConfig::get&#45;&gt;Errors::not_published -->
<g id="edge18" class="edge">
<title>DiemConfig::get&#45;&gt;Errors::not_published</title>
<path fill="none" stroke="black" d="M1586.46,-407.09C1581.5,-404.8 1576.15,-402.6 1571,-401 1359.86,-335.38 1290.55,-388.49 1080,-321 1000.69,-295.58 985.08,-277.94 912,-238 849.2,-203.68 834.08,-193.9 774,-155 761.19,-146.7 747.32,-137.17 735.41,-128.8"/>
<polygon fill="black" stroke="black" points="737.31,-125.86 727.12,-122.94 733.27,-131.57 737.31,-125.86"/>
</g>
<!-- DiemConfig::get&#45;&gt;CoreAddresses::DIEM_ROOT_ADDRESS -->
<g id="edge19" class="edge">
<title>DiemConfig::get&#45;&gt;CoreAddresses::DIEM_ROOT_ADDRESS</title>
<path fill="none" stroke="black" d="M1631.82,-411.23C1656.87,-403.4 1695.53,-388.5 1722,-365 1739.16,-349.77 1742.77,-343.08 1749,-321 1769.09,-249.85 1759.64,-202.26 1697,-163 1632.88,-122.81 1430.25,-111.27 1299.39,-108.07"/>
<polygon fill="black" stroke="black" points="1299.39,-104.57 1289.31,-107.84 1299.22,-111.57 1299.39,-104.57"/>
</g>
<!-- Errors::invalid_state&#45;&gt;Errors::make -->
<g id="edge20" class="edge">
<title>Errors::invalid_state&#45;&gt;Errors::make</title>
<path fill="none" stroke="black" d="M805.43,-91.57C795.37,-87.69 784.29,-83.55 774,-80 736.87,-67.19 693.86,-54.24 663.99,-45.54"/>
<polygon fill="black" stroke="black" points="664.59,-42.07 654.01,-42.65 662.64,-48.79 664.59,-42.07"/>
</g>
<!-- DiemTimestamp::is_operating&#45;&gt;CoreAddresses::DIEM_ROOT_ADDRESS -->
<g id="edge21" class="edge">
<title>DiemTimestamp::is_operating&#45;&gt;CoreAddresses::DIEM_ROOT_ADDRESS</title>
<path fill="none" stroke="black" d="M1896.77,-106C1697.83,-106 1498.89,-106 1299.95,-106"/>
<polygon fill="black" stroke="black" points="1299.88,-102.5 1289.88,-106 1299.87,-109.5 1299.88,-102.5"/>
</g>
<!-- Signer::borrow_address -->
<g id="node17" class="node">
<title>Signer::borrow_address</title>
<ellipse fill="none" stroke="black" cx="83" cy="-34" rx="66.89" ry="18"/>
<text text-anchor="middle" x="83" y="-30.3" font-family="Times,serif" font-size="14.00">borrow_address</text>
</g>
<!-- Signer::address_of&#45;&gt;Signer::borrow_address -->
<g id="edge22" class="edge">
<title>Signer::address_of&#45;&gt;Signer::borrow_address</title>
<path fill="none" stroke="black" d="M96.64,-88.05C94.64,-80.26 92.21,-70.82 89.96,-62.08"/>
<polygon fill="black" stroke="black" points="93.32,-61.09 87.44,-52.28 86.54,-62.83 93.32,-61.09"/>
</g>
<!-- Errors::not_published&#45;&gt;Errors::make -->
<g id="edge23" class="edge">
<title>Errors::not_published&#45;&gt;Errors::make</title>
<path fill="none" stroke="black" d="M686.91,-88.76C676.16,-79.12 662.4,-66.77 650.78,-56.34"/>
<polygon fill="black" stroke="black" points="652.92,-53.56 643.14,-49.48 648.24,-58.77 652.92,-53.56"/>
</g>
<!-- Errors::requires_role&#45;&gt;Errors::make -->
<g id="edge24" class="edge">
<title>Errors::requires_role&#45;&gt;Errors::make</title>
<path fill="none" stroke="black" d="M263.6,-91.19C274.39,-87.06 286.56,-82.88 298,-80 400,-54.33 523.72,-42.39 586.39,-37.65"/>
<polygon fill="black" stroke="black" points="586.92,-41.12 596.64,-36.9 586.41,-34.14 586.92,-41.12"/>
</g>
<!-- CoreAddresses::assert_diem_root&#45;&gt;Signer::address_of -->
<g id="edge25" class="edge">
<title>CoreAddresses::assert_diem_root&#45;&gt;Signer::address_of</title>
<path fill="none" stroke="black" d="M1076.9,-185.03C956.63,-179.99 703.24,-169.69 489,-163 470.84,-162.43 179.1,-161.16 162,-155 147.65,-149.83 134.07,-139.86 123.38,-130.33"/>
<polygon fill="black" stroke="black" points="125.49,-127.51 115.81,-123.22 120.7,-132.62 125.49,-127.51"/>
</g>
<!-- CoreAddresses::assert_diem_root&#45;&gt;CoreAddresses::DIEM_ROOT_ADDRESS -->
<g id="edge27" class="edge">
<title>CoreAddresses::assert_diem_root&#45;&gt;CoreAddresses::DIEM_ROOT_ADDRESS</title>
<path fill="none" stroke="black" d="M1154.63,-170.82C1159.46,-159.98 1165.78,-145.74 1171.23,-133.47"/>
<polygon fill="black" stroke="black" points="1174.51,-134.71 1175.38,-124.15 1168.12,-131.87 1174.51,-134.71"/>
</g>
<!-- Errors::requires_address -->
<g id="node18" class="node">
<title>Errors::requires_address</title>
<ellipse fill="none" stroke="black" cx="982" cy="-106" rx="69.59" ry="18"/>
<text text-anchor="middle" x="982" y="-102.3" font-family="Times,serif" font-size="14.00">requires_address</text>
</g>
<!-- CoreAddresses::assert_diem_root&#45;&gt;Errors::requires_address -->
<g id="edge26" class="edge">
<title>CoreAddresses::assert_diem_root&#45;&gt;Errors::requires_address</title>
<path fill="none" stroke="black" d="M1107.62,-173.75C1093.65,-168.32 1077.94,-161.8 1064,-155 1047.67,-147.03 1030.22,-137.04 1015.62,-128.23"/>
<polygon fill="black" stroke="black" points="1017.3,-125.15 1006.94,-122.93 1013.65,-131.13 1017.3,-125.15"/>
</g>
<!-- Errors::requires_capability&#45;&gt;Errors::make -->
<g id="edge28" class="edge">
<title>Errors::requires_capability&#45;&gt;Errors::make</title>
<path fill="none" stroke="black" d="M567.48,-88.41C578.17,-78.82 591.73,-66.65 603.21,-56.35"/>
<polygon fill="black" stroke="black" points="605.66,-58.85 610.76,-49.57 600.98,-53.64 605.66,-58.85"/>
</g>
<!-- DiemConfig::reconfigure_&#45;&gt;Errors::invalid_state -->
<g id="edge29" class="edge">
<title>DiemConfig::reconfigure_&#45;&gt;Errors::invalid_state</title>
<path fill="none" stroke="black" d="M1548.84,-345.6C1487.83,-344.19 1386.92,-339.02 1302,-321 1192.41,-297.75 1166.93,-282.22 1064,-238 990.03,-206.22 971.22,-197.75 903,-155 890.62,-147.24 877.61,-137.76 866.57,-129.27"/>
<polygon fill="black" stroke="black" points="868.6,-126.41 858.57,-123.02 864.3,-131.93 868.6,-126.41"/>
</g>
<!-- DiemConfig::reconfigure_&#45;&gt;CoreAddresses::DIEM_ROOT_ADDRESS -->
<g id="edge30" class="edge">
<title>DiemConfig::reconfigure_&#45;&gt;CoreAddresses::DIEM_ROOT_ADDRESS</title>
<path fill="none" stroke="black" d="M1654.94,-339.9C1678.13,-335.97 1701.97,-329.9 1709,-321 1729.66,-294.84 1726.24,-274.53 1709,-246 1667.98,-178.11 1626.36,-187.75 1551,-163 1466.27,-135.17 1365.94,-121.07 1291.46,-113.99"/>
<polygon fill="black" stroke="black" points="1291.41,-110.47 1281.13,-113.03 1290.76,-117.44 1291.41,-110.47"/>
</g>
<!-- DiemTimestamp::is_genesis -->
<g id="node19" class="node">
<title>DiemTimestamp::is_genesis</title>
<ellipse fill="none" stroke="black" cx="1879" cy="-272" rx="46.59" ry="18"/>
<text text-anchor="middle" x="1879" y="-268.3" font-family="Times,serif" font-size="14.00">is_genesis</text>
</g>
<!-- DiemConfig::reconfigure_&#45;&gt;DiemTimestamp::is_genesis -->
<g id="edge31" class="edge">
<title>DiemConfig::reconfigure_&#45;&gt;DiemTimestamp::is_genesis</title>
<path fill="none" stroke="black" d="M1653.59,-338.96C1680.06,-334.71 1713.04,-328.64 1742,-321 1774.99,-312.29 1811.4,-299.37 1838.39,-289.13"/>
<polygon fill="black" stroke="black" points="1839.79,-292.34 1847.88,-285.49 1837.29,-285.8 1839.79,-292.34"/>
</g>
<!-- DiemTimestamp::now_microseconds -->
<g id="node20" class="node">
<title>DiemTimestamp::now_microseconds</title>
<ellipse fill="none" stroke="black" cx="2023" cy="-272" rx="79.09" ry="18"/>
<text text-anchor="middle" x="2023" y="-268.3" font-family="Times,serif" font-size="14.00">now_microseconds</text>
</g>
<!-- DiemConfig::reconfigure_&#45;&gt;DiemTimestamp::now_microseconds -->
<g id="edge32" class="edge">
<title>DiemConfig::reconfigure_&#45;&gt;DiemTimestamp::now_microseconds</title>
<path fill="none" stroke="black" d="M1659.04,-344.65C1739.43,-342.19 1884.85,-335.82 1935,-321 1954.71,-315.17 1974.97,-304.5 1991.07,-294.7"/>
<polygon fill="black" stroke="black" points="1992.95,-297.66 1999.56,-289.38 1989.23,-291.73 1992.95,-297.66"/>
</g>
<!-- Event::emit_event -->
<g id="node21" class="node">
<title>Event::emit_event</title>
<ellipse fill="none" stroke="black" cx="1416" cy="-272" rx="50.09" ry="18"/>
<text text-anchor="middle" x="1416" y="-268.3" font-family="Times,serif" font-size="14.00">emit_event</text>
</g>
<!-- DiemConfig::reconfigure_&#45;&gt;Event::emit_event -->
<g id="edge33" class="edge">
<title>DiemConfig::reconfigure_&#45;&gt;Event::emit_event</title>
<path fill="none" stroke="black" d="M1555.7,-338.18C1536.68,-334.24 1514.92,-328.64 1496,-321 1478.59,-313.97 1460.54,-303.46 1446,-294.07"/>
<polygon fill="black" stroke="black" points="1447.71,-291 1437.44,-288.4 1443.85,-296.84 1447.71,-291"/>
</g>
<!-- DiemConfig::reconfiguration_enabled -->
<g id="node22" class="node">
<title>DiemConfig::reconfiguration_enabled</title>
<ellipse fill="none" stroke="black" cx="1604" cy="-272" rx="96.38" ry="18"/>
<text text-anchor="middle" x="1604" y="-268.3" font-family="Times,serif" font-size="14.00">reconfiguration_enabled</text>
</g>
<!-- DiemConfig::reconfigure_&#45;&gt;DiemConfig::reconfiguration_enabled -->
<g id="edge34" class="edge">
<title>DiemConfig::reconfigure_&#45;&gt;DiemConfig::reconfiguration_enabled</title>
<path fill="none" stroke="black" d="M1604,-328.7C1604,-320.25 1604,-309.87 1604,-300.37"/>
<polygon fill="black" stroke="black" points="1607.5,-300.18 1604,-290.18 1600.5,-300.18 1607.5,-300.18"/>
</g>
<!-- Errors::requires_address&#45;&gt;Errors::make -->
<g id="edge35" class="edge">
<title>Errors::requires_address&#45;&gt;Errors::make</title>
<path fill="none" stroke="black" d="M942.64,-91.13C930.37,-87.14 916.72,-83.05 904,-80 820.72,-60.01 721.21,-46.25 667.02,-39.6"/>
<polygon fill="black" stroke="black" points="667.15,-36.09 656.8,-38.36 666.31,-43.04 667.15,-36.09"/>
</g>
<!-- DiemTimestamp::is_genesis&#45;&gt;CoreAddresses::DIEM_ROOT_ADDRESS -->
<g id="edge36" class="edge">
<title>DiemTimestamp::is_genesis&#45;&gt;CoreAddresses::DIEM_ROOT_ADDRESS</title>
<path fill="none" stroke="black" d="M1874.8,-254.06C1867.69,-229.36 1850.77,-184.11 1818,-163 1775.24,-135.45 1466.43,-118.59 1295.73,-111.27"/>
<polygon fill="black" stroke="black" points="1295.84,-107.78 1285.7,-110.85 1295.54,-114.77 1295.84,-107.78"/>
</g>
<!-- DiemTimestamp::now_microseconds&#45;&gt;DiemTimestamp::assert_operating -->
<g id="edge38" class="edge">
<title>DiemTimestamp::now_microseconds&#45;&gt;DiemTimestamp::assert_operating</title>
<path fill="none" stroke="black" d="M2021.73,-253.82C2020.94,-243.19 2019.91,-229.31 2019.02,-217.2"/>
<polygon fill="black" stroke="black" points="2022.5,-216.87 2018.27,-207.15 2015.52,-217.38 2022.5,-216.87"/>
</g>
<!-- DiemTimestamp::now_microseconds&#45;&gt;CoreAddresses::DIEM_ROOT_ADDRESS -->
<g id="edge37" class="edge">
<title>DiemTimestamp::now_microseconds&#45;&gt;CoreAddresses::DIEM_ROOT_ADDRESS</title>
<path fill="none" stroke="black" d="M1978.94,-256.84C1965.93,-251.78 1951.98,-245.46 1940,-238 1897.79,-211.73 1902.62,-182.77 1857,-163 1831.47,-151.94 1474.27,-126.56 1290.53,-114.13"/>
<polygon fill="black" stroke="black" points="1290.51,-110.62 1280.29,-113.44 1290.03,-117.6 1290.51,-110.62"/>
</g>
<!-- Event::write_to_event_store -->
<g id="node23" class="node">
<title>Event::write_to_event_store</title>
<ellipse fill="none" stroke="black" cx="1399" cy="-189" rx="85.29" ry="18"/>
<text text-anchor="middle" x="1399" y="-185.3" font-family="Times,serif" font-size="14.00">write_to_event_store</text>
</g>
<!-- Event::emit_event&#45;&gt;Event::write_to_event_store -->
<g id="edge39" class="edge">
<title>Event::emit_event&#45;&gt;Event::write_to_event_store</title>
<path fill="none" stroke="black" d="M1412.39,-253.82C1410.16,-243.19 1407.25,-229.31 1404.71,-217.2"/>
<polygon fill="black" stroke="black" points="1408.08,-216.22 1402.6,-207.15 1401.23,-217.66 1408.08,-216.22"/>
</g>
<!-- DiemConfig::reconfiguration_enabled&#45;&gt;CoreAddresses::DIEM_ROOT_ADDRESS -->
<g id="edge40" class="edge">
<title>DiemConfig::reconfiguration_enabled&#45;&gt;CoreAddresses::DIEM_ROOT_ADDRESS</title>
<path fill="none" stroke="black" d="M1592.28,-253.94C1574.51,-229.51 1538.31,-185.09 1496,-163 1434.93,-131.11 1359.01,-117.01 1297.24,-110.92"/>
<polygon fill="black" stroke="black" points="1297.34,-107.42 1287.06,-109.98 1296.7,-114.39 1297.34,-107.42"/>
</g>
</g>
</svg>
