<?xml version="1.0" encoding="UTF-8" standalone="no"?>
<!DOCTYPE svg PUBLIC "-//W3C//DTD SVG 1.1//EN"
 "http://www.w3.org/Graphics/SVG/1.1/DTD/svg11.dtd">
<!-- Generated by graphviz version 2.46.1 (20210213.1702)
 -->
<!-- Title: G Pages: 1 -->
<svg width="332pt" height="116pt"
 viewBox="0.00 0.00 332.39 116.00" xmlns="http://www.w3.org/2000/svg" xmlns:xlink="http://www.w3.org/1999/xlink">
<g id="graph0" class="graph" transform="scale(1 1) rotate(0) translate(4 112)">
<title>G</title>
<polygon fill="white" stroke="transparent" points="-4,4 -4,-112 328.39,-112 328.39,4 -4,4"/>
<!-- DiemVersion -->
<g id="node1" class="node">
<title>DiemVersion</title>
<ellipse fill="none" stroke="black" cx="123.35" cy="-18" rx="57.69" ry="18"/>
<text text-anchor="middle" x="123.35" y="-14.3" font-family="Times,serif" font-size="14.00">DiemVersion</text>
</g>
<!-- Genesis -->
<g id="node2" class="node">
<title>Genesis</title>
<ellipse fill="none" stroke="black" cx="38.35" cy="-90" rx="38.19" ry="18"/>
<text text-anchor="middle" x="38.35" y="-86.3" font-family="Times,serif" font-size="14.00">Genesis</text>
</g>
<!-- Genesis&#45;&gt;DiemVersion -->
<g id="edge1" class="edge">
<title>Genesis&#45;&gt;DiemVersion</title>
<path fill="none" stroke="black" d="M56.79,-73.81C68.17,-64.44 82.97,-52.25 95.73,-41.75"/>
<polygon fill="black" stroke="black" points="98.26,-44.19 103.76,-35.13 93.81,-38.79 98.26,-44.19"/>
</g>
<!-- SystemAdministrationScripts -->
<g id="node3" class="node">
<title>SystemAdministrationScripts</title>
<ellipse fill="none" stroke="black" cx="209.35" cy="-90" rx="115.08" ry="18"/>
<text text-anchor="middle" x="209.35" y="-86.3" font-family="Times,serif" font-size="14.00">SystemAdministrationScripts</text>
</g>
<!-- SystemAdministrationScripts&#45;&gt;DiemVersion -->
<g id="edge2" class="edge">
<title>SystemAdministrationScripts&#45;&gt;DiemVersion</title>
<path fill="none" stroke="black" d="M188.53,-72.05C177.3,-62.92 163.29,-51.51 151.14,-41.63"/>
<polygon fill="black" stroke="black" points="153.05,-38.67 143.09,-35.07 148.63,-44.09 153.05,-38.67"/>
</g>
</g>
</svg>
