<?xml version="1.0" encoding="UTF-8" standalone="no"?>
<!DOCTYPE svg PUBLIC "-//W3C//DTD SVG 1.1//EN"
 "http://www.w3.org/Graphics/SVG/1.1/DTD/svg11.dtd">
<!-- Generated by graphviz version 2.46.1 (20210213.1702)
 -->
<!-- Title: G Pages: 1 -->
<svg width="1125pt" height="509pt"
 viewBox="0.00 0.00 1125.00 509.00" xmlns="http://www.w3.org/2000/svg" xmlns:xlink="http://www.w3.org/1999/xlink">
<g id="graph0" class="graph" transform="scale(1 1) rotate(0) translate(4 505)">
<title>G</title>
<polygon fill="white" stroke="transparent" points="-4,4 -4,-505 1121,-505 1121,4 -4,4"/>
<g id="clust1" class="cluster">
<title>cluster_Roles</title>
<polygon fill="none" stroke="black" points="258,-238 258,-313 492,-313 492,-238 258,-238"/>
<text text-anchor="middle" x="375" y="-297.8" font-family="Times,serif" font-size="14.00">Roles</text>
</g>
<g id="clust2" class="cluster">
<title>cluster_Signer</title>
<polygon fill="none" stroke="black" points="443,-8 443,-155 593,-155 593,-8 443,-8"/>
<text text-anchor="middle" x="518" y="-139.8" font-family="Times,serif" font-size="14.00">Signer</text>
</g>
<g id="clust3" class="cluster">
<title>cluster_Errors</title>
<polygon fill="none" stroke="black" points="8,-8 8,-155 435,-155 435,-8 8,-8"/>
<text text-anchor="middle" x="221.5" y="-139.8" font-family="Times,serif" font-size="14.00">Errors</text>
</g>
<g id="clust4" class="cluster">
<title>cluster_CoreAddresses</title>
<polygon fill="none" stroke="black" points="601,-80 601,-230 1109,-230 1109,-80 601,-80"/>
<text text-anchor="middle" x="855" y="-214.8" font-family="Times,serif" font-size="14.00">CoreAddresses</text>
</g>
<!-- create_preburn -->
<g id="node1" class="node">
<title>create_preburn</title>
<ellipse fill="none" stroke="black" cx="430" cy="-483" rx="63.89" ry="18"/>
<text text-anchor="middle" x="430" y="-479.3" font-family="Times,serif" font-size="14.00">create_preburn</text>
</g>
<!-- Roles::assert_treasury_compliance -->
<g id="node2" class="node">
<title>Roles::assert_treasury_compliance</title>
<ellipse fill="none" stroke="black" cx="375" cy="-264" rx="108.58" ry="18"/>
<text text-anchor="middle" x="375" y="-260.3" font-family="Times,serif" font-size="14.00">assert_treasury_compliance</text>
</g>
<!-- create_preburn&#45;&gt;Roles::assert_treasury_compliance -->
<g id="edge1" class="edge">
<title>create_preburn&#45;&gt;Roles::assert_treasury_compliance</title>
<path fill="none" stroke="black" d="M415.36,-465.04C407.68,-455.18 398.88,-442.14 394,-429 377.04,-383.38 374.22,-326.13 374.24,-292.74"/>
<polygon fill="black" stroke="black" points="377.75,-292.42 374.34,-282.39 370.75,-292.35 377.75,-292.42"/>
</g>
<!-- assert_is_currency -->
<g id="node3" class="node">
<title>assert_is_currency</title>
<ellipse fill="none" stroke="black" cx="482" cy="-339" rx="76.09" ry="18"/>
<text text-anchor="middle" x="482" y="-335.3" font-family="Times,serif" font-size="14.00">assert_is_currency</text>
</g>
<!-- create_preburn&#45;&gt;assert_is_currency -->
<g id="edge2" class="edge">
<title>create_preburn&#45;&gt;assert_is_currency</title>
<path fill="none" stroke="black" d="M443.97,-465.39C451.62,-455.43 460.62,-442.18 466,-429 474.04,-409.29 478.05,-385.48 480.05,-367.45"/>
<polygon fill="black" stroke="black" points="483.55,-367.61 481.03,-357.32 476.58,-366.94 483.55,-367.61"/>
</g>
<!-- zero -->
<g id="node4" class="node">
<title>zero</title>
<ellipse fill="none" stroke="black" cx="430" cy="-411" rx="27" ry="18"/>
<text text-anchor="middle" x="430" y="-407.3" font-family="Times,serif" font-size="14.00">zero</text>
</g>
<!-- create_preburn&#45;&gt;zero -->
<g id="edge3" class="edge">
<title>create_preburn&#45;&gt;zero</title>
<path fill="none" stroke="black" d="M430,-464.7C430,-456.98 430,-447.71 430,-439.11"/>
<polygon fill="black" stroke="black" points="433.5,-439.1 430,-429.1 426.5,-439.1 433.5,-439.1"/>
</g>
<!-- Signer::address_of -->
<g id="node5" class="node">
<title>Signer::address_of</title>
<ellipse fill="none" stroke="black" cx="518" cy="-106" rx="48.99" ry="18"/>
<text text-anchor="middle" x="518" y="-102.3" font-family="Times,serif" font-size="14.00">address_of</text>
</g>
<!-- Roles::assert_treasury_compliance&#45;&gt;Signer::address_of -->
<g id="edge4" class="edge">
<title>Roles::assert_treasury_compliance&#45;&gt;Signer::address_of</title>
<path fill="none" stroke="black" d="M390.58,-246.01C416.07,-218.2 466.77,-162.88 495.95,-131.05"/>
<polygon fill="black" stroke="black" points="498.7,-133.24 502.88,-123.5 493.54,-128.51 498.7,-133.24"/>
</g>
<!-- Errors::not_published -->
<g id="node6" class="node">
<title>Errors::not_published</title>
<ellipse fill="none" stroke="black" cx="76" cy="-106" rx="60.39" ry="18"/>
<text text-anchor="middle" x="76" y="-102.3" font-family="Times,serif" font-size="14.00">not_published</text>
</g>
<!-- Roles::assert_treasury_compliance&#45;&gt;Errors::not_published -->
<g id="edge5" class="edge">
<title>Roles::assert_treasury_compliance&#45;&gt;Errors::not_published</title>
<path fill="none" stroke="black" d="M325.59,-247.84C314.01,-243.1 302.11,-237.19 292,-230 259.9,-207.18 269.04,-180.98 234,-163 199.06,-145.08 182.95,-168.31 146,-155 130.23,-149.32 114.66,-139.21 102.21,-129.73"/>
<polygon fill="black" stroke="black" points="104.15,-126.8 94.14,-123.33 99.8,-132.28 104.15,-126.8"/>
</g>
<!-- Errors::requires_role -->
<g id="node7" class="node">
<title>Errors::requires_role</title>
<ellipse fill="none" stroke="black" cx="212" cy="-106" rx="57.39" ry="18"/>
<text text-anchor="middle" x="212" y="-102.3" font-family="Times,serif" font-size="14.00">requires_role</text>
</g>
<!-- Roles::assert_treasury_compliance&#45;&gt;Errors::requires_role -->
<g id="edge6" class="edge">
<title>Roles::assert_treasury_compliance&#45;&gt;Errors::requires_role</title>
<path fill="none" stroke="black" d="M363.65,-245.83C348.97,-224.52 321.72,-187.96 292,-163 286.51,-158.39 284.02,-158.89 278,-155 265.58,-146.97 252.31,-137.51 240.96,-129.12"/>
<polygon fill="black" stroke="black" points="242.8,-126.12 232.69,-122.95 238.61,-131.73 242.8,-126.12"/>
</g>
<!-- CoreAddresses::assert_treasury_compliance -->
<g id="node8" class="node">
<title>CoreAddresses::assert_treasury_compliance</title>
<ellipse fill="none" stroke="black" cx="718" cy="-181" rx="108.58" ry="18"/>
<text text-anchor="middle" x="718" y="-177.3" font-family="Times,serif" font-size="14.00">assert_treasury_compliance</text>
</g>
<!-- Roles::assert_treasury_compliance&#45;&gt;CoreAddresses::assert_treasury_compliance -->
<g id="edge7" class="edge">
<title>Roles::assert_treasury_compliance&#45;&gt;CoreAddresses::assert_treasury_compliance</title>
<path fill="none" stroke="black" d="M434.75,-248.89C494.32,-234.82 585.77,-213.23 648.54,-198.4"/>
<polygon fill="black" stroke="black" points="649.44,-201.79 658.36,-196.08 647.83,-194.98 649.44,-201.79"/>
</g>
<!-- assert_is_currency&#45;&gt;Errors::not_published -->
<g id="edge8" class="edge">
<title>assert_is_currency&#45;&gt;Errors::not_published</title>
<path fill="none" stroke="black" d="M407,-335.65C351,-332.81 279.87,-326.59 254,-313 174.7,-271.34 115.26,-178.46 89.73,-133.03"/>
<polygon fill="black" stroke="black" points="92.7,-131.16 84.81,-124.09 86.57,-134.54 92.7,-131.16"/>
</g>
<!-- is_currency -->
<g id="node9" class="node">
<title>is_currency</title>
<ellipse fill="none" stroke="black" cx="821" cy="-264" rx="51.99" ry="18"/>
<text text-anchor="middle" x="821" y="-260.3" font-family="Times,serif" font-size="14.00">is_currency</text>
</g>
<!-- assert_is_currency&#45;&gt;is_currency -->
<g id="edge9" class="edge">
<title>assert_is_currency&#45;&gt;is_currency</title>
<path fill="none" stroke="black" d="M536.47,-326.27C600.11,-312.57 704.74,-290.04 767.82,-276.45"/>
<polygon fill="black" stroke="black" points="768.92,-279.79 777.96,-274.27 767.45,-272.95 768.92,-279.79"/>
</g>
<!-- zero&#45;&gt;assert_is_currency -->
<g id="edge10" class="edge">
<title>zero&#45;&gt;assert_is_currency</title>
<path fill="none" stroke="black" d="M441.54,-394.46C447.93,-385.87 456.02,-374.97 463.29,-365.19"/>
<polygon fill="black" stroke="black" points="466.25,-367.08 469.4,-356.96 460.63,-362.9 466.25,-367.08"/>
</g>
<!-- Signer::borrow_address -->
<g id="node10" class="node">
<title>Signer::borrow_address</title>
<ellipse fill="none" stroke="black" cx="518" cy="-34" rx="66.89" ry="18"/>
<text text-anchor="middle" x="518" y="-30.3" font-family="Times,serif" font-size="14.00">borrow_address</text>
</g>
<!-- Signer::address_of&#45;&gt;Signer::borrow_address -->
<g id="edge11" class="edge">
<title>Signer::address_of&#45;&gt;Signer::borrow_address</title>
<path fill="none" stroke="black" d="M518,-87.7C518,-79.98 518,-70.71 518,-62.11"/>
<polygon fill="black" stroke="black" points="521.5,-62.1 518,-52.1 514.5,-62.1 521.5,-62.1"/>
</g>
<!-- Errors::make -->
<g id="node11" class="node">
<title>Errors::make</title>
<ellipse fill="none" stroke="black" cx="212" cy="-34" rx="30.59" ry="18"/>
<text text-anchor="middle" x="212" y="-30.3" font-family="Times,serif" font-size="14.00">make</text>
</g>
<!-- Errors::not_published&#45;&gt;Errors::make -->
<g id="edge12" class="edge">
<title>Errors::not_published&#45;&gt;Errors::make</title>
<path fill="none" stroke="black" d="M104.84,-90.15C127.05,-78.73 157.7,-62.95 180.53,-51.2"/>
<polygon fill="black" stroke="black" points="182.2,-54.28 189.49,-46.59 178.99,-48.05 182.2,-54.28"/>
</g>
<!-- Errors::requires_role&#45;&gt;Errors::make -->
<g id="edge13" class="edge">
<title>Errors::requires_role&#45;&gt;Errors::make</title>
<path fill="none" stroke="black" d="M212,-87.7C212,-79.98 212,-70.71 212,-62.11"/>
<polygon fill="black" stroke="black" points="215.5,-62.1 212,-52.1 208.5,-62.1 215.5,-62.1"/>
</g>
<!-- CoreAddresses::assert_treasury_compliance&#45;&gt;Signer::address_of -->
<g id="edge14" class="edge">
<title>CoreAddresses::assert_treasury_compliance&#45;&gt;Signer::address_of</title>
<path fill="none" stroke="black" d="M641,-168.22C626.13,-164.8 610.87,-160.46 597,-155 579.56,-148.14 561.6,-137.55 547.21,-128.06"/>
<polygon fill="black" stroke="black" points="549,-125.05 538.76,-122.34 545.08,-130.84 549,-125.05"/>
</g>
<!-- Errors::requires_address -->
<g id="node12" class="node">
<title>Errors::requires_address</title>
<ellipse fill="none" stroke="black" cx="357" cy="-106" rx="69.59" ry="18"/>
<text text-anchor="middle" x="357" y="-102.3" font-family="Times,serif" font-size="14.00">requires_address</text>
</g>
<!-- CoreAddresses::assert_treasury_compliance&#45;&gt;Errors::requires_address -->
<g id="edge15" class="edge">
<title>CoreAddresses::assert_treasury_compliance&#45;&gt;Errors::requires_address</title>
<path fill="none" stroke="black" d="M614.47,-175.43C548.97,-171.64 470.85,-165.18 439,-155 420.78,-149.18 402.25,-138.78 387.42,-129.15"/>
<polygon fill="black" stroke="black" points="388.96,-125.97 378.7,-123.3 385.06,-131.78 388.96,-125.97"/>
</g>
<!-- CoreAddresses::TREASURY_COMPLIANCE_ADDRESS -->
<g id="node13" class="node">
<title>CoreAddresses::TREASURY_COMPLIANCE_ADDRESS</title>
<ellipse fill="none" stroke="black" cx="772" cy="-106" rx="163.27" ry="18"/>
<text text-anchor="middle" x="772" y="-102.3" font-family="Times,serif" font-size="14.00">TREASURY_COMPLIANCE_ADDRESS</text>
</g>
<!-- CoreAddresses::assert_treasury_compliance&#45;&gt;CoreAddresses::TREASURY_COMPLIANCE_ADDRESS -->
<g id="edge16" class="edge">
<title>CoreAddresses::assert_treasury_compliance&#45;&gt;CoreAddresses::TREASURY_COMPLIANCE_ADDRESS</title>
<path fill="none" stroke="black" d="M730.52,-163.07C737.29,-153.92 745.78,-142.45 753.31,-132.26"/>
<polygon fill="black" stroke="black" points="756.22,-134.21 759.36,-124.09 750.6,-130.05 756.22,-134.21"/>
</g>
<!-- CoreAddresses::CURRENCY_INFO_ADDRESS -->
<g id="node14" class="node">
<title>CoreAddresses::CURRENCY_INFO_ADDRESS</title>
<ellipse fill="none" stroke="black" cx="973" cy="-181" rx="128.08" ry="18"/>
<text text-anchor="middle" x="973" y="-177.3" font-family="Times,serif" font-size="14.00">CURRENCY_INFO_ADDRESS</text>
</g>
<!-- is_currency&#45;&gt;CoreAddresses::CURRENCY_INFO_ADDRESS -->
<g id="edge17" class="edge">
<title>is_currency&#45;&gt;CoreAddresses::CURRENCY_INFO_ADDRESS</title>
<path fill="none" stroke="black" d="M848.17,-248.52C871.7,-235.98 906.05,-217.68 932.77,-203.44"/>
<polygon fill="black" stroke="black" points="934.69,-206.38 941.87,-198.59 931.4,-200.2 934.69,-206.38"/>
</g>
<!-- Errors::requires_address&#45;&gt;Errors::make -->
<g id="edge18" class="edge">
<title>Errors::requires_address&#45;&gt;Errors::make</title>
<path fill="none" stroke="black" d="M325.54,-89.81C301.42,-78.17 268.27,-62.16 244.01,-50.45"/>
<polygon fill="black" stroke="black" points="245.39,-47.23 234.87,-46.04 242.35,-53.54 245.39,-47.23"/>
</g>
</g>
</svg>
