<?xml version="1.0" encoding="UTF-8" standalone="no"?>
<!DOCTYPE svg PUBLIC "-//W3C//DTD SVG 1.1//EN"
 "http://www.w3.org/Graphics/SVG/1.1/DTD/svg11.dtd">
<!-- Generated by graphviz version 2.46.1 (20210213.1702)
 -->
<!-- Title: G Pages: 1 -->
<svg width="953pt" height="445pt"
 viewBox="0.00 0.00 952.72 445.00" xmlns="http://www.w3.org/2000/svg" xmlns:xlink="http://www.w3.org/1999/xlink">
<g id="graph0" class="graph" transform="scale(1 1) rotate(0) translate(4 441)">
<title>G</title>
<polygon fill="white" stroke="transparent" points="-4,4 -4,-441 948.72,-441 948.72,4 -4,4"/>
<g id="clust1" class="cluster">
<title>cluster_Errors</title>
<polygon fill="none" stroke="black" points="246,-80 246,-238 547,-238 547,-80 246,-80"/>
<text text-anchor="middle" x="396.5" y="-222.8" font-family="Times,serif" font-size="14.00">Errors</text>
</g>
<g id="clust2" class="cluster">
<title>cluster_Vector</title>
<polygon fill="none" stroke="black" points="638,-8 638,-155 935,-155 935,-8 638,-8"/>
<text text-anchor="middle" x="786.5" y="-139.8" font-family="Times,serif" font-size="14.00">Vector</text>
</g>
<g id="clust3" class="cluster">
<title>cluster_Option</title>
<polygon fill="none" stroke="black" points="555,-163 555,-321 795,-321 795,-163 555,-163"/>
<text text-anchor="middle" x="675" y="-305.8" font-family="Times,serif" font-size="14.00">Option</text>
</g>
<g id="clust4" class="cluster">
<title>cluster_DiemConfig</title>
<polygon fill="none" stroke="black" points="272,-246 272,-321 356,-321 356,-246 272,-246"/>
<text text-anchor="middle" x="314" y="-305.8" font-family="Times,serif" font-size="14.00">DiemConfig</text>
</g>
<g id="clust5" class="cluster">
<title>cluster_CoreAddresses</title>
<polygon fill="none" stroke="black" points="8,-163 8,-238 238,-238 238,-163 8,-163"/>
<text text-anchor="middle" x="123" y="-222.8" font-family="Times,serif" font-size="14.00">CoreAddresses</text>
</g>
<!-- get_validator_config -->
<g id="node1" class="node">
<title>get_validator_config</title>
<ellipse fill="none" stroke="black" cx="567" cy="-419" rx="83.39" ry="18"/>
<text text-anchor="middle" x="567" y="-415.3" font-family="Times,serif" font-size="14.00">get_validator_config</text>
</g>
<!-- Errors::invalid_argument -->
<g id="node2" class="node">
<title>Errors::invalid_argument</title>
<ellipse fill="none" stroke="black" cx="466" cy="-189" rx="73.39" ry="18"/>
<text text-anchor="middle" x="466" y="-185.3" font-family="Times,serif" font-size="14.00">invalid_argument</text>
</g>
<!-- get_validator_config&#45;&gt;Errors::invalid_argument -->
<g id="edge1" class="edge">
<title>get_validator_config&#45;&gt;Errors::invalid_argument</title>
<path fill="none" stroke="black" d="M558.76,-400.88C553.82,-390.53 547.46,-377.05 542,-365 518.25,-312.55 491.71,-250.63 477.12,-216.3"/>
<polygon fill="black" stroke="black" points="480.29,-214.81 473.16,-206.97 473.85,-217.54 480.29,-214.81"/>
</g>
<!-- Vector::borrow -->
<g id="node3" class="node">
<title>Vector::borrow</title>
<ellipse fill="none" stroke="black" cx="891" cy="-106" rx="36.29" ry="18"/>
<text text-anchor="middle" x="891" y="-102.3" font-family="Times,serif" font-size="14.00">borrow</text>
</g>
<!-- get_validator_config&#45;&gt;Vector::borrow -->
<g id="edge2" class="edge">
<title>get_validator_config&#45;&gt;Vector::borrow</title>
<path fill="none" stroke="black" d="M645.43,-412.99C719.17,-406.63 822.36,-392.93 851,-365 913.99,-303.56 904.45,-186.95 896.16,-134.16"/>
<polygon fill="black" stroke="black" points="899.59,-133.48 894.49,-124.2 892.69,-134.64 899.59,-133.48"/>
</g>
<!-- Option::borrow -->
<g id="node4" class="node">
<title>Option::borrow</title>
<ellipse fill="none" stroke="black" cx="599" cy="-272" rx="36.29" ry="18"/>
<text text-anchor="middle" x="599" y="-268.3" font-family="Times,serif" font-size="14.00">borrow</text>
</g>
<!-- get_validator_config&#45;&gt;Option::borrow -->
<g id="edge3" class="edge">
<title>get_validator_config&#45;&gt;Option::borrow</title>
<path fill="none" stroke="black" d="M570.8,-400.8C576.28,-375.94 586.48,-329.74 592.99,-300.23"/>
<polygon fill="black" stroke="black" points="596.47,-300.7 595.21,-290.18 589.64,-299.19 596.47,-300.7"/>
</g>
<!-- Option::is_some -->
<g id="node5" class="node">
<title>Option::is_some</title>
<ellipse fill="none" stroke="black" cx="603" cy="-189" rx="40.09" ry="18"/>
<text text-anchor="middle" x="603" y="-185.3" font-family="Times,serif" font-size="14.00">is_some</text>
</g>
<!-- get_validator_config&#45;&gt;Option::is_some -->
<g id="edge4" class="edge">
<title>get_validator_config&#45;&gt;Option::is_some</title>
<path fill="none" stroke="black" d="M561.1,-400.97C551.11,-369.3 533.83,-299.68 554,-246 558.8,-233.21 568,-221.44 577.14,-212.02"/>
<polygon fill="black" stroke="black" points="579.63,-214.47 584.37,-204.99 574.76,-209.45 579.63,-214.47"/>
</g>
<!-- get_diem_system_config -->
<g id="node6" class="node">
<title>get_diem_system_config</title>
<ellipse fill="none" stroke="black" cx="335" cy="-347" rx="99.38" ry="18"/>
<text text-anchor="middle" x="335" y="-343.3" font-family="Times,serif" font-size="14.00">get_diem_system_config</text>
</g>
<!-- get_validator_config&#45;&gt;get_diem_system_config -->
<g id="edge5" class="edge">
<title>get_validator_config&#45;&gt;get_diem_system_config</title>
<path fill="none" stroke="black" d="M520.61,-404C484.04,-392.97 432.82,-377.51 393.45,-365.64"/>
<polygon fill="black" stroke="black" points="394.29,-362.23 383.71,-362.7 392.27,-368.94 394.29,-362.23"/>
</g>
<!-- get_validator_index_ -->
<g id="node7" class="node">
<title>get_validator_index_</title>
<ellipse fill="none" stroke="black" cx="757" cy="-347" rx="85.29" ry="18"/>
<text text-anchor="middle" x="757" y="-343.3" font-family="Times,serif" font-size="14.00">get_validator_index_</text>
</g>
<!-- get_validator_config&#45;&gt;get_validator_index_ -->
<g id="edge6" class="edge">
<title>get_validator_config&#45;&gt;get_validator_index_</title>
<path fill="none" stroke="black" d="M607.29,-403.15C636.29,-392.47 675.6,-377.99 706.66,-366.54"/>
<polygon fill="black" stroke="black" points="708.26,-369.69 716.44,-362.94 705.84,-363.12 708.26,-369.69"/>
</g>
<!-- Errors::make -->
<g id="node8" class="node">
<title>Errors::make</title>
<ellipse fill="none" stroke="black" cx="390" cy="-106" rx="30.59" ry="18"/>
<text text-anchor="middle" x="390" y="-102.3" font-family="Times,serif" font-size="14.00">make</text>
</g>
<!-- Errors::invalid_argument&#45;&gt;Errors::make -->
<g id="edge7" class="edge">
<title>Errors::invalid_argument&#45;&gt;Errors::make</title>
<path fill="none" stroke="black" d="M450.25,-171.22C438.91,-159.13 423.49,-142.69 411.09,-129.48"/>
<polygon fill="black" stroke="black" points="413.58,-127.02 404.19,-122.12 408.48,-131.81 413.58,-127.02"/>
</g>
<!-- Option::borrow&#45;&gt;Errors::invalid_argument -->
<g id="edge8" class="edge">
<title>Option::borrow&#45;&gt;Errors::invalid_argument</title>
<path fill="none" stroke="black" d="M577.04,-257.62C556.36,-245.03 525.06,-225.97 500.96,-211.29"/>
<polygon fill="black" stroke="black" points="502.47,-208.11 492.11,-205.9 498.83,-214.09 502.47,-208.11"/>
</g>
<!-- Option::borrow&#45;&gt;Vector::borrow -->
<g id="edge9" class="edge">
<title>Option::borrow&#45;&gt;Vector::borrow</title>
<path fill="none" stroke="black" d="M621.69,-257.91C628.77,-253.95 636.65,-249.69 644,-246 732,-201.83 765.89,-212.25 846,-155 855.44,-148.26 864.47,-139.31 871.93,-130.97"/>
<polygon fill="black" stroke="black" points="874.7,-133.12 878.57,-123.25 869.39,-128.55 874.7,-133.12"/>
</g>
<!-- Option::borrow&#45;&gt;Option::is_some -->
<g id="edge10" class="edge">
<title>Option::borrow&#45;&gt;Option::is_some</title>
<path fill="none" stroke="black" d="M599.85,-253.82C600.37,-243.19 601.06,-229.31 601.66,-217.2"/>
<polygon fill="black" stroke="black" points="605.16,-217.31 602.15,-207.15 598.16,-216.97 605.16,-217.31"/>
</g>
<!-- Vector::is_empty -->
<g id="node9" class="node">
<title>Vector::is_empty</title>
<ellipse fill="none" stroke="black" cx="793" cy="-106" rx="43.59" ry="18"/>
<text text-anchor="middle" x="793" y="-102.3" font-family="Times,serif" font-size="14.00">is_empty</text>
</g>
<!-- Option::is_some&#45;&gt;Vector::is_empty -->
<g id="edge11" class="edge">
<title>Option::is_some&#45;&gt;Vector::is_empty</title>
<path fill="none" stroke="black" d="M636.55,-178.83C655.17,-173.87 678.8,-167.8 700,-163 718.11,-158.9 724.44,-163.39 741,-155 752.82,-149.01 763.9,-139.55 772.78,-130.61"/>
<polygon fill="black" stroke="black" points="775.35,-132.98 779.68,-123.31 770.27,-128.17 775.35,-132.98"/>
</g>
<!-- DiemConfig::get -->
<g id="node10" class="node">
<title>DiemConfig::get</title>
<ellipse fill="none" stroke="black" cx="314" cy="-272" rx="27" ry="18"/>
<text text-anchor="middle" x="314" y="-268.3" font-family="Times,serif" font-size="14.00">get</text>
</g>
<!-- get_diem_system_config&#45;&gt;DiemConfig::get -->
<g id="edge12" class="edge">
<title>get_diem_system_config&#45;&gt;DiemConfig::get</title>
<path fill="none" stroke="black" d="M330.02,-328.7C327.52,-320 324.43,-309.27 321.64,-299.55"/>
<polygon fill="black" stroke="black" points="325,-298.57 318.87,-289.92 318.27,-300.5 325,-298.57"/>
</g>
<!-- get_validator_index_&#45;&gt;Vector::borrow -->
<g id="edge13" class="edge">
<title>get_validator_index_&#45;&gt;Vector::borrow</title>
<path fill="none" stroke="black" d="M788.96,-330C792.63,-327.32 796.09,-324.32 799,-321 848.51,-264.54 874.6,-177.4 885.2,-133.78"/>
<polygon fill="black" stroke="black" points="888.63,-134.46 887.51,-123.93 881.82,-132.86 888.63,-134.46"/>
</g>
<!-- Vector::length -->
<g id="node11" class="node">
<title>Vector::length</title>
<ellipse fill="none" stroke="black" cx="886" cy="-34" rx="32.49" ry="18"/>
<text text-anchor="middle" x="886" y="-30.3" font-family="Times,serif" font-size="14.00">length</text>
</g>
<!-- get_validator_index_&#45;&gt;Vector::length -->
<g id="edge14" class="edge">
<title>get_validator_index_&#45;&gt;Vector::length</title>
<path fill="none" stroke="black" d="M813.91,-333.54C821.81,-330.27 829.45,-326.17 836,-321 903.64,-267.68 912.94,-237.98 936,-155 944.93,-122.88 949.56,-110.45 936,-80 931.5,-69.89 923.48,-61.11 915.17,-54.04"/>
<polygon fill="black" stroke="black" points="917.24,-51.22 907.21,-47.82 912.93,-56.74 917.24,-51.22"/>
</g>
<!-- Option::none -->
<g id="node12" class="node">
<title>Option::none</title>
<ellipse fill="none" stroke="black" cx="681" cy="-272" rx="27.9" ry="18"/>
<text text-anchor="middle" x="681" y="-268.3" font-family="Times,serif" font-size="14.00">none</text>
</g>
<!-- get_validator_index_&#45;&gt;Option::none -->
<g id="edge15" class="edge">
<title>get_validator_index_&#45;&gt;Option::none</title>
<path fill="none" stroke="black" d="M729.27,-329.93C725.32,-327.16 721.44,-324.15 718,-321 710.29,-313.93 702.98,-305.11 696.93,-296.96"/>
<polygon fill="black" stroke="black" points="699.78,-294.93 691.12,-288.82 694.08,-298.99 699.78,-294.93"/>
</g>
<!-- Option::some -->
<g id="node13" class="node">
<title>Option::some</title>
<ellipse fill="none" stroke="black" cx="757" cy="-272" rx="29.8" ry="18"/>
<text text-anchor="middle" x="757" y="-268.3" font-family="Times,serif" font-size="14.00">some</text>
</g>
<!-- get_validator_index_&#45;&gt;Option::some -->
<g id="edge16" class="edge">
<title>get_validator_index_&#45;&gt;Option::some</title>
<path fill="none" stroke="black" d="M757,-328.7C757,-320.25 757,-309.87 757,-300.37"/>
<polygon fill="black" stroke="black" points="760.5,-300.18 757,-290.18 753.5,-300.18 760.5,-300.18"/>
</g>
<!-- Vector::is_empty&#45;&gt;Vector::length -->
<g id="edge17" class="edge">
<title>Vector::is_empty&#45;&gt;Vector::length</title>
<path fill="none" stroke="black" d="M813.18,-89.81C826.67,-79.66 844.56,-66.19 859.23,-55.15"/>
<polygon fill="black" stroke="black" points="861.56,-57.78 867.44,-48.97 857.35,-52.19 861.56,-57.78"/>
</g>
<!-- Errors::not_published -->
<g id="node14" class="node">
<title>Errors::not_published</title>
<ellipse fill="none" stroke="black" cx="314" cy="-189" rx="60.39" ry="18"/>
<text text-anchor="middle" x="314" y="-185.3" font-family="Times,serif" font-size="14.00">not_published</text>
</g>
<!-- DiemConfig::get&#45;&gt;Errors::not_published -->
<g id="edge18" class="edge">
<title>DiemConfig::get&#45;&gt;Errors::not_published</title>
<path fill="none" stroke="black" d="M314,-253.82C314,-243.19 314,-229.31 314,-217.2"/>
<polygon fill="black" stroke="black" points="317.5,-217.15 314,-207.15 310.5,-217.15 317.5,-217.15"/>
</g>
<!-- CoreAddresses::DIEM_ROOT_ADDRESS -->
<g id="node15" class="node">
<title>CoreAddresses::DIEM_ROOT_ADDRESS</title>
<ellipse fill="none" stroke="black" cx="123" cy="-189" rx="106.68" ry="18"/>
<text text-anchor="middle" x="123" y="-185.3" font-family="Times,serif" font-size="14.00">DIEM_ROOT_ADDRESS</text>
</g>
<!-- DiemConfig::get&#45;&gt;CoreAddresses::DIEM_ROOT_ADDRESS -->
<g id="edge19" class="edge">
<title>DiemConfig::get&#45;&gt;CoreAddresses::DIEM_ROOT_ADDRESS</title>
<path fill="none" stroke="black" d="M291.72,-261.55C262.05,-248.97 208.83,-226.4 170.08,-209.96"/>
<polygon fill="black" stroke="black" points="171.13,-206.61 160.56,-205.93 168.4,-213.06 171.13,-206.61"/>
</g>
<!-- Vector::empty -->
<g id="node16" class="node">
<title>Vector::empty</title>
<ellipse fill="none" stroke="black" cx="679" cy="-34" rx="33.29" ry="18"/>
<text text-anchor="middle" x="679" y="-30.3" font-family="Times,serif" font-size="14.00">empty</text>
</g>
<!-- Option::none&#45;&gt;Vector::empty -->
<g id="edge20" class="edge">
<title>Option::none&#45;&gt;Vector::empty</title>
<path fill="none" stroke="black" d="M680.5,-253.79C679,-230.76 673.26,-189.75 652,-163 647.3,-157.09 640.89,-161.48 637,-155 619.85,-126.42 624.78,-111.01 637,-80 640.44,-71.28 646.45,-63.26 652.86,-56.47"/>
<polygon fill="black" stroke="black" points="655.71,-58.59 660.45,-49.11 650.84,-53.56 655.71,-58.59"/>
</g>
<!-- Vector::singleton -->
<g id="node17" class="node">
<title>Vector::singleton</title>
<ellipse fill="none" stroke="black" cx="689" cy="-106" rx="42.79" ry="18"/>
<text text-anchor="middle" x="689" y="-102.3" font-family="Times,serif" font-size="14.00">singleton</text>
</g>
<!-- Option::some&#45;&gt;Vector::singleton -->
<g id="edge21" class="edge">
<title>Option::some&#45;&gt;Vector::singleton</title>
<path fill="none" stroke="black" d="M750.11,-254.37C738.3,-225.91 714.14,-167.64 699.99,-133.51"/>
<polygon fill="black" stroke="black" points="703.18,-132.06 696.12,-124.16 696.71,-134.74 703.18,-132.06"/>
</g>
<!-- Errors::not_published&#45;&gt;Errors::make -->
<g id="edge22" class="edge">
<title>Errors::not_published&#45;&gt;Errors::make</title>
<path fill="none" stroke="black" d="M329.75,-171.22C341.09,-159.13 356.51,-142.69 368.91,-129.48"/>
<polygon fill="black" stroke="black" points="371.52,-131.81 375.81,-122.12 366.42,-127.02 371.52,-131.81"/>
</g>
<!-- Vector::singleton&#45;&gt;Vector::empty -->
<g id="edge23" class="edge">
<title>Vector::singleton&#45;&gt;Vector::empty</title>
<path fill="none" stroke="black" d="M686.53,-87.7C685.43,-79.98 684.1,-70.71 682.87,-62.11"/>
<polygon fill="black" stroke="black" points="686.32,-61.51 681.44,-52.1 679.39,-62.5 686.32,-61.51"/>
</g>
<!-- Vector::push_back -->
<g id="node18" class="node">
<title>Vector::push_back</title>
<ellipse fill="none" stroke="black" cx="778" cy="-34" rx="48.19" ry="18"/>
<text text-anchor="middle" x="778" y="-30.3" font-family="Times,serif" font-size="14.00">push_back</text>
</g>
<!-- Vector::singleton&#45;&gt;Vector::push_back -->
<g id="edge24" class="edge">
<title>Vector::singleton&#45;&gt;Vector::push_back</title>
<path fill="none" stroke="black" d="M708.31,-89.81C720.5,-80.22 736.46,-67.67 750.03,-57"/>
<polygon fill="black" stroke="black" points="752.41,-59.58 758.11,-50.64 748.09,-54.08 752.41,-59.58"/>
</g>
</g>
</svg>
