<?xml version="1.0" encoding="UTF-8" standalone="no"?>
<!DOCTYPE svg PUBLIC "-//W3C//DTD SVG 1.1//EN"
 "http://www.w3.org/Graphics/SVG/1.1/DTD/svg11.dtd">
<!-- Generated by graphviz version 2.46.1 (20210213.1702)
 -->
<!-- Title: G Pages: 1 -->
<svg width="347pt" height="290pt"
 viewBox="0.00 0.00 347.00 290.00" xmlns="http://www.w3.org/2000/svg" xmlns:xlink="http://www.w3.org/1999/xlink">
<g id="graph0" class="graph" transform="scale(1 1) rotate(0) translate(4 286)">
<title>G</title>
<polygon fill="white" stroke="transparent" points="-4,4 -4,-286 343,-286 343,4 -4,4"/>
<g id="clust1" class="cluster">
<title>cluster_Vector</title>
<polygon fill="none" stroke="black" points="8,-8 8,-155 283,-155 283,-8 8,-8"/>
<text text-anchor="middle" x="145.5" y="-139.8" font-family="Times,serif" font-size="14.00">Vector</text>
</g>
<g id="clust2" class="cluster">
<title>cluster_Option</title>
<polygon fill="none" stroke="black" points="181,-163 181,-238 331,-238 331,-163 181,-163"/>
<text text-anchor="middle" x="256" y="-222.8" font-family="Times,serif" font-size="14.00">Option</text>
</g>
<!-- get_validator_index_ -->
<g id="node1" class="node">
<title>get_validator_index_</title>
<ellipse fill="none" stroke="black" cx="182" cy="-264" rx="85.29" ry="18"/>
<text text-anchor="middle" x="182" y="-260.3" font-family="Times,serif" font-size="14.00">get_validator_index_</text>
</g>
<!-- Vector::borrow -->
<g id="node2" class="node">
<title>Vector::borrow</title>
<ellipse fill="none" stroke="black" cx="52" cy="-106" rx="36.29" ry="18"/>
<text text-anchor="middle" x="52" y="-102.3" font-family="Times,serif" font-size="14.00">borrow</text>
</g>
<!-- get_validator_index_&#45;&gt;Vector::borrow -->
<g id="edge1" class="edge">
<title>get_validator_index_&#45;&gt;Vector::borrow</title>
<path fill="none" stroke="black" d="M160.06,-246.44C156.91,-243.74 153.79,-240.88 151,-238 118.21,-204.16 86.48,-159.4 68.12,-131.93"/>
<polygon fill="black" stroke="black" points="70.86,-129.73 62.43,-123.32 65.02,-133.59 70.86,-129.73"/>
</g>
<!-- Vector::length -->
<g id="node3" class="node">
<title>Vector::length</title>
<ellipse fill="none" stroke="black" cx="139" cy="-106" rx="32.49" ry="18"/>
<text text-anchor="middle" x="139" y="-102.3" font-family="Times,serif" font-size="14.00">length</text>
</g>
<!-- get_validator_index_&#45;&gt;Vector::length -->
<g id="edge2" class="edge">
<title>get_validator_index_&#45;&gt;Vector::length</title>
<path fill="none" stroke="black" d="M177.32,-246.01C169.85,-218.93 155.2,-165.77 146.34,-133.61"/>
<polygon fill="black" stroke="black" points="149.71,-132.68 143.68,-123.97 142.96,-134.54 149.71,-132.68"/>
</g>
<!-- Option::none -->
<g id="node4" class="node">
<title>Option::none</title>
<ellipse fill="none" stroke="black" cx="295" cy="-189" rx="27.9" ry="18"/>
<text text-anchor="middle" x="295" y="-185.3" font-family="Times,serif" font-size="14.00">none</text>
</g>
<!-- get_validator_index_&#45;&gt;Option::none -->
<g id="edge3" class="edge">
<title>get_validator_index_&#45;&gt;Option::none</title>
<path fill="none" stroke="black" d="M235.47,-249.94C243.41,-246.75 251.2,-242.81 258,-238 266.67,-231.86 274.25,-223.1 280.26,-214.74"/>
<polygon fill="black" stroke="black" points="283.26,-216.56 285.93,-206.3 277.45,-212.65 283.26,-216.56"/>
</g>
<!-- Option::some -->
<g id="node5" class="node">
<title>Option::some</title>
<ellipse fill="none" stroke="black" cx="219" cy="-189" rx="29.8" ry="18"/>
<text text-anchor="middle" x="219" y="-185.3" font-family="Times,serif" font-size="14.00">some</text>
</g>
<!-- get_validator_index_&#45;&gt;Option::some -->
<g id="edge4" class="edge">
<title>get_validator_index_&#45;&gt;Option::some</title>
<path fill="none" stroke="black" d="M190.58,-246.07C195.18,-237 200.93,-225.65 206.06,-215.54"/>
<polygon fill="black" stroke="black" points="209.32,-216.84 210.72,-206.34 203.08,-213.67 209.32,-216.84"/>
</g>
<!-- Vector::empty -->
<g id="node6" class="node">
<title>Vector::empty</title>
<ellipse fill="none" stroke="black" cx="242" cy="-34" rx="33.29" ry="18"/>
<text text-anchor="middle" x="242" y="-30.3" font-family="Times,serif" font-size="14.00">empty</text>
</g>
<!-- Option::none&#45;&gt;Vector::empty -->
<g id="edge5" class="edge">
<title>Option::none&#45;&gt;Vector::empty</title>
<path fill="none" stroke="black" d="M295.94,-170.66C296.42,-150.14 295.22,-115.3 284,-88 279.49,-77.03 272,-66.46 264.58,-57.68"/>
<polygon fill="black" stroke="black" points="267.14,-55.3 257.87,-50.17 261.92,-59.96 267.14,-55.3"/>
</g>
<!-- Vector::singleton -->
<g id="node7" class="node">
<title>Vector::singleton</title>
<ellipse fill="none" stroke="black" cx="232" cy="-106" rx="42.79" ry="18"/>
<text text-anchor="middle" x="232" y="-102.3" font-family="Times,serif" font-size="14.00">singleton</text>
</g>
<!-- Option::some&#45;&gt;Vector::singleton -->
<g id="edge6" class="edge">
<title>Option::some&#45;&gt;Vector::singleton</title>
<path fill="none" stroke="black" d="M221.76,-170.82C223.46,-160.19 225.69,-146.31 227.63,-134.2"/>
<polygon fill="black" stroke="black" points="231.12,-134.58 229.25,-124.15 224.21,-133.47 231.12,-134.58"/>
</g>
<!-- Vector::singleton&#45;&gt;Vector::empty -->
<g id="edge7" class="edge">
<title>Vector::singleton&#45;&gt;Vector::empty</title>
<path fill="none" stroke="black" d="M234.47,-87.7C235.57,-79.98 236.9,-70.71 238.13,-62.11"/>
<polygon fill="black" stroke="black" points="241.61,-62.5 239.56,-52.1 234.68,-61.51 241.61,-62.5"/>
</g>
<!-- Vector::push_back -->
<g id="node8" class="node">
<title>Vector::push_back</title>
<ellipse fill="none" stroke="black" cx="143" cy="-34" rx="48.19" ry="18"/>
<text text-anchor="middle" x="143" y="-30.3" font-family="Times,serif" font-size="14.00">push_back</text>
</g>
<!-- Vector::singleton&#45;&gt;Vector::push_back -->
<g id="edge8" class="edge">
<title>Vector::singleton&#45;&gt;Vector::push_back</title>
<path fill="none" stroke="black" d="M212.69,-89.81C200.5,-80.22 184.54,-67.67 170.97,-57"/>
<polygon fill="black" stroke="black" points="172.91,-54.08 162.89,-50.64 168.59,-59.58 172.91,-54.08"/>
</g>
</g>
</svg>
