<?xml version="1.0" encoding="UTF-8" standalone="no"?>
<!DOCTYPE svg PUBLIC "-//W3C//DTD SVG 1.1//EN"
 "http://www.w3.org/Graphics/SVG/1.1/DTD/svg11.dtd">
<!-- Generated by graphviz version 2.46.1 (20210213.1702)
 -->
<!-- Title: G Pages: 1 -->
<svg width="1495pt" height="520pt"
 viewBox="0.00 0.00 1494.90 520.00" xmlns="http://www.w3.org/2000/svg" xmlns:xlink="http://www.w3.org/1999/xlink">
<g id="graph0" class="graph" transform="scale(1 1) rotate(0) translate(4 516)">
<title>G</title>
<polygon fill="white" stroke="transparent" points="-4,4 -4,-516 1490.9,-516 1490.9,4 -4,4"/>
<g id="clust1" class="cluster">
<title>cluster_Signer</title>
<polygon fill="none" stroke="black" points="301.9,-321 301.9,-468 451.9,-468 451.9,-321 301.9,-321"/>
<text text-anchor="middle" x="376.9" y="-452.8" font-family="Times,serif" font-size="14.00">Signer</text>
</g>
<g id="clust2" class="cluster">
<title>cluster_Errors</title>
<polygon fill="none" stroke="black" points="338.9,-8 338.9,-158 1091.9,-158 1091.9,-8 338.9,-8"/>
<text text-anchor="middle" x="715.4" y="-142.8" font-family="Times,serif" font-size="14.00">Errors</text>
</g>
<g id="clust3" class="cluster">
<title>cluster_CoreAddresses</title>
<polygon fill="none" stroke="black" points="1099.9,-8 1099.9,-83 1371.9,-83 1371.9,-8 1099.9,-8"/>
<text text-anchor="middle" x="1235.9" y="-67.8" font-family="Times,serif" font-size="14.00">CoreAddresses</text>
</g>
<g id="clust4" class="cluster">
<title>cluster_Event</title>
<polygon fill="none" stroke="black" points="1292.9,-166 1292.9,-313 1478.9,-313 1478.9,-166 1292.9,-166"/>
<text text-anchor="middle" x="1385.9" y="-297.8" font-family="Times,serif" font-size="14.00">Event</text>
</g>
<g id="clust5" class="cluster">
<title>cluster_Vector</title>
<polygon fill="none" stroke="black" points="67.9,-8 67.9,-158 330.9,-158 330.9,-8 67.9,-8"/>
<text text-anchor="middle" x="199.4" y="-142.8" font-family="Times,serif" font-size="14.00">Vector</text>
</g>
<!-- burn -->
<g id="node1" class="node">
<title>burn</title>
<ellipse fill="none" stroke="black" cx="471.9" cy="-494" rx="27" ry="18"/>
<text text-anchor="middle" x="471.9" y="-490.3" font-family="Times,serif" font-size="14.00">burn</text>
</g>
<!-- Signer::address_of -->
<g id="node2" class="node">
<title>Signer::address_of</title>
<ellipse fill="none" stroke="black" cx="385.9" cy="-419" rx="48.99" ry="18"/>
<text text-anchor="middle" x="385.9" y="-415.3" font-family="Times,serif" font-size="14.00">address_of</text>
</g>
<!-- burn&#45;&gt;Signer::address_of -->
<g id="edge1" class="edge">
<title>burn&#45;&gt;Signer::address_of</title>
<path fill="none" stroke="black" d="M455.72,-479.27C443.52,-468.91 426.52,-454.48 412.35,-442.45"/>
<polygon fill="black" stroke="black" points="414.28,-439.5 404.39,-435.7 409.75,-444.84 414.28,-439.5"/>
</g>
<!-- Errors::requires_capability -->
<g id="node3" class="node">
<title>Errors::requires_capability</title>
<ellipse fill="none" stroke="black" cx="424.9" cy="-109" rx="77.99" ry="18"/>
<text text-anchor="middle" x="424.9" y="-105.3" font-family="Times,serif" font-size="14.00">requires_capability</text>
</g>
<!-- burn&#45;&gt;Errors::requires_capability -->
<g id="edge2" class="edge">
<title>burn&#45;&gt;Errors::requires_capability</title>
<path fill="none" stroke="black" d="M471.9,-475.59C471.9,-448.37 471.9,-394.07 471.9,-348 471.9,-348 471.9,-348 471.9,-263 471.9,-216.81 452.08,-166.11 438.19,-136.22"/>
<polygon fill="black" stroke="black" points="441.21,-134.43 433.74,-126.92 434.9,-137.45 441.21,-134.43"/>
</g>
<!-- burn_with_capability -->
<g id="node4" class="node">
<title>burn_with_capability</title>
<ellipse fill="none" stroke="black" cx="615.9" cy="-419" rx="85.59" ry="18"/>
<text text-anchor="middle" x="615.9" y="-415.3" font-family="Times,serif" font-size="14.00">burn_with_capability</text>
</g>
<!-- burn&#45;&gt;burn_with_capability -->
<g id="edge3" class="edge">
<title>burn&#45;&gt;burn_with_capability</title>
<path fill="none" stroke="black" d="M492.84,-482.39C514.4,-471.45 548.54,-454.14 575.4,-440.53"/>
<polygon fill="black" stroke="black" points="577.23,-443.53 584.57,-435.88 574.07,-437.28 577.23,-443.53"/>
</g>
<!-- Signer::borrow_address -->
<g id="node5" class="node">
<title>Signer::borrow_address</title>
<ellipse fill="none" stroke="black" cx="376.9" cy="-347" rx="66.89" ry="18"/>
<text text-anchor="middle" x="376.9" y="-343.3" font-family="Times,serif" font-size="14.00">borrow_address</text>
</g>
<!-- Signer::address_of&#45;&gt;Signer::borrow_address -->
<g id="edge4" class="edge">
<title>Signer::address_of&#45;&gt;Signer::borrow_address</title>
<path fill="none" stroke="black" d="M383.67,-400.7C382.68,-392.98 381.49,-383.71 380.38,-375.11"/>
<polygon fill="black" stroke="black" points="383.84,-374.58 379.1,-365.1 376.9,-375.47 383.84,-374.58"/>
</g>
<!-- Errors::make -->
<g id="node6" class="node">
<title>Errors::make</title>
<ellipse fill="none" stroke="black" cx="723.9" cy="-34" rx="30.59" ry="18"/>
<text text-anchor="middle" x="723.9" y="-30.3" font-family="Times,serif" font-size="14.00">make</text>
</g>
<!-- Errors::requires_capability&#45;&gt;Errors::make -->
<g id="edge5" class="edge">
<title>Errors::requires_capability&#45;&gt;Errors::make</title>
<path fill="none" stroke="black" d="M476.3,-95.45C535.94,-80.89 632.87,-57.22 686.03,-44.24"/>
<polygon fill="black" stroke="black" points="687.17,-47.57 696.06,-41.8 685.51,-40.77 687.17,-47.57"/>
</g>
<!-- burn_with_resource_cap -->
<g id="node7" class="node">
<title>burn_with_resource_cap</title>
<ellipse fill="none" stroke="black" cx="1048.9" cy="-347" rx="97.48" ry="18"/>
<text text-anchor="middle" x="1048.9" y="-343.3" font-family="Times,serif" font-size="14.00">burn_with_resource_cap</text>
</g>
<!-- burn_with_capability&#45;&gt;burn_with_resource_cap -->
<g id="edge6" class="edge">
<title>burn_with_capability&#45;&gt;burn_with_resource_cap</title>
<path fill="none" stroke="black" d="M681.66,-407.37C758.42,-394.96 885.38,-374.43 968.08,-361.07"/>
<polygon fill="black" stroke="black" points="968.88,-364.48 978.19,-359.43 967.76,-357.57 968.88,-364.48"/>
</g>
<!-- destroy_zero -->
<g id="node8" class="node">
<title>destroy_zero</title>
<ellipse fill="none" stroke="black" cx="645.9" cy="-347" rx="55.79" ry="18"/>
<text text-anchor="middle" x="645.9" y="-343.3" font-family="Times,serif" font-size="14.00">destroy_zero</text>
</g>
<!-- burn_with_capability&#45;&gt;destroy_zero -->
<g id="edge7" class="edge">
<title>burn_with_capability&#45;&gt;destroy_zero</title>
<path fill="none" stroke="black" d="M623.16,-401.05C626.57,-393.09 630.72,-383.41 634.54,-374.51"/>
<polygon fill="black" stroke="black" points="637.77,-375.85 638.49,-365.28 631.34,-373.09 637.77,-375.85"/>
</g>
<!-- remove_preburn_from_queue -->
<g id="node9" class="node">
<title>remove_preburn_from_queue</title>
<ellipse fill="none" stroke="black" cx="318.9" cy="-192" rx="116.18" ry="18"/>
<text text-anchor="middle" x="318.9" y="-188.3" font-family="Times,serif" font-size="14.00">remove_preburn_from_queue</text>
</g>
<!-- burn_with_capability&#45;&gt;remove_preburn_from_queue -->
<g id="edge8" class="edge">
<title>burn_with_capability&#45;&gt;remove_preburn_from_queue</title>
<path fill="none" stroke="black" d="M594.06,-401.46C541.84,-361.89 409.62,-261.73 349.5,-216.19"/>
<polygon fill="black" stroke="black" points="351.26,-213.12 341.17,-209.87 347.03,-218.7 351.26,-213.12"/>
</g>
<!-- Errors::invalid_state -->
<g id="node10" class="node">
<title>Errors::invalid_state</title>
<ellipse fill="none" stroke="black" cx="576.9" cy="-109" rx="55.79" ry="18"/>
<text text-anchor="middle" x="576.9" y="-105.3" font-family="Times,serif" font-size="14.00">invalid_state</text>
</g>
<!-- burn_with_resource_cap&#45;&gt;Errors::invalid_state -->
<g id="edge9" class="edge">
<title>burn_with_resource_cap&#45;&gt;Errors::invalid_state</title>
<path fill="none" stroke="black" d="M980.87,-334C957.88,-328.86 932.37,-321.94 909.9,-313 788.68,-264.76 661.28,-174.13 605.68,-132.25"/>
<polygon fill="black" stroke="black" points="607.47,-129.22 597.39,-125.97 603.24,-134.8 607.47,-129.22"/>
</g>
<!-- Errors::limit_exceeded -->
<g id="node11" class="node">
<title>Errors::limit_exceeded</title>
<ellipse fill="none" stroke="black" cx="1018.9" cy="-109" rx="64.99" ry="18"/>
<text text-anchor="middle" x="1018.9" y="-105.3" font-family="Times,serif" font-size="14.00">limit_exceeded</text>
</g>
<!-- burn_with_resource_cap&#45;&gt;Errors::limit_exceeded -->
<g id="edge10" class="edge">
<title>burn_with_resource_cap&#45;&gt;Errors::limit_exceeded</title>
<path fill="none" stroke="black" d="M971.3,-335.99C959.02,-330.97 947.79,-323.64 939.9,-313 900.96,-260.53 909.9,-224.04 939.9,-166 944.83,-156.46 964.52,-142.49 983,-130.9"/>
<polygon fill="black" stroke="black" points="984.94,-133.81 991.63,-125.59 981.28,-127.85 984.94,-133.81"/>
</g>
<!-- CoreAddresses::CURRENCY_INFO_ADDRESS -->
<g id="node12" class="node">
<title>CoreAddresses::CURRENCY_INFO_ADDRESS</title>
<ellipse fill="none" stroke="black" cx="1235.9" cy="-34" rx="128.08" ry="18"/>
<text text-anchor="middle" x="1235.9" y="-30.3" font-family="Times,serif" font-size="14.00">CURRENCY_INFO_ADDRESS</text>
</g>
<!-- burn_with_resource_cap&#45;&gt;CoreAddresses::CURRENCY_INFO_ADDRESS -->
<g id="edge11" class="edge">
<title>burn_with_resource_cap&#45;&gt;CoreAddresses::CURRENCY_INFO_ADDRESS</title>
<path fill="none" stroke="black" d="M1143.16,-342.23C1189.09,-338.2 1237.5,-329.93 1251.9,-313 1313.38,-240.72 1271.17,-115.85 1248.14,-61.52"/>
<polygon fill="black" stroke="black" points="1251.29,-60 1244.09,-52.23 1244.88,-62.8 1251.29,-60"/>
</g>
<!-- Event::emit_event -->
<g id="node13" class="node">
<title>Event::emit_event</title>
<ellipse fill="none" stroke="black" cx="1367.9" cy="-264" rx="50.09" ry="18"/>
<text text-anchor="middle" x="1367.9" y="-260.3" font-family="Times,serif" font-size="14.00">emit_event</text>
</g>
<!-- burn_with_resource_cap&#45;&gt;Event::emit_event -->
<g id="edge12" class="edge">
<title>burn_with_resource_cap&#45;&gt;Event::emit_event</title>
<path fill="none" stroke="black" d="M1142.17,-341.65C1186.92,-337.42 1240.73,-329.14 1286.9,-313 1305.04,-306.66 1323.61,-296.01 1338.38,-286.36"/>
<polygon fill="black" stroke="black" points="1340.71,-289.01 1347.05,-280.52 1336.8,-283.2 1340.71,-289.01"/>
</g>
<!-- currency_code -->
<g id="node14" class="node">
<title>currency_code</title>
<ellipse fill="none" stroke="black" cx="1180.9" cy="-264" rx="62.29" ry="18"/>
<text text-anchor="middle" x="1180.9" y="-260.3" font-family="Times,serif" font-size="14.00">currency_code</text>
</g>
<!-- burn_with_resource_cap&#45;&gt;currency_code -->
<g id="edge13" class="edge">
<title>burn_with_resource_cap&#45;&gt;currency_code</title>
<path fill="none" stroke="black" d="M1076.91,-329.72C1085.89,-324.44 1095.84,-318.53 1104.9,-313 1118.97,-304.41 1134.37,-294.74 1147.6,-286.34"/>
<polygon fill="black" stroke="black" points="1149.82,-289.08 1156.37,-280.76 1146.06,-283.17 1149.82,-289.08"/>
</g>
<!-- assert_is_currency -->
<g id="node15" class="node">
<title>assert_is_currency</title>
<ellipse fill="none" stroke="black" cx="1130.9" cy="-192" rx="76.09" ry="18"/>
<text text-anchor="middle" x="1130.9" y="-188.3" font-family="Times,serif" font-size="14.00">assert_is_currency</text>
</g>
<!-- burn_with_resource_cap&#45;&gt;assert_is_currency -->
<g id="edge14" class="edge">
<title>burn_with_resource_cap&#45;&gt;assert_is_currency</title>
<path fill="none" stroke="black" d="M1061.58,-328.86C1065.08,-323.85 1068.78,-318.29 1071.9,-313 1090.24,-281.89 1108.08,-244.28 1119.25,-219.55"/>
<polygon fill="black" stroke="black" points="1122.58,-220.68 1123.47,-210.12 1116.19,-217.82 1122.58,-220.68"/>
</g>
<!-- withdraw_all -->
<g id="node16" class="node">
<title>withdraw_all</title>
<ellipse fill="none" stroke="black" cx="1005.9" cy="-264" rx="57.39" ry="18"/>
<text text-anchor="middle" x="1005.9" y="-260.3" font-family="Times,serif" font-size="14.00">withdraw_all</text>
</g>
<!-- burn_with_resource_cap&#45;&gt;withdraw_all -->
<g id="edge15" class="edge">
<title>burn_with_resource_cap&#45;&gt;withdraw_all</title>
<path fill="none" stroke="black" d="M1039.78,-328.82C1033.92,-317.79 1026.21,-303.27 1019.62,-290.86"/>
<polygon fill="black" stroke="black" points="1022.64,-289.07 1014.86,-281.88 1016.45,-292.35 1022.64,-289.07"/>
</g>
<!-- Errors::invalid_argument -->
<g id="node17" class="node">
<title>Errors::invalid_argument</title>
<ellipse fill="none" stroke="black" cx="723.9" cy="-109" rx="73.39" ry="18"/>
<text text-anchor="middle" x="723.9" y="-105.3" font-family="Times,serif" font-size="14.00">invalid_argument</text>
</g>
<!-- destroy_zero&#45;&gt;Errors::invalid_argument -->
<g id="edge16" class="edge">
<title>destroy_zero&#45;&gt;Errors::invalid_argument</title>
<path fill="none" stroke="black" d="M651.51,-329.03C664.91,-288.47 698.88,-185.69 715.06,-136.73"/>
<polygon fill="black" stroke="black" points="718.42,-137.73 718.23,-127.14 711.77,-135.53 718.42,-137.73"/>
</g>
<!-- remove_preburn_from_queue&#45;&gt;Errors::invalid_state -->
<g id="edge17" class="edge">
<title>remove_preburn_from_queue&#45;&gt;Errors::invalid_state</title>
<path fill="none" stroke="black" d="M419.61,-182.81C450.11,-177.97 483.13,-170.26 511.9,-158 526.23,-151.89 540.36,-142.05 551.76,-132.87"/>
<polygon fill="black" stroke="black" points="554.12,-135.46 559.55,-126.36 549.63,-130.09 554.12,-135.46"/>
</g>
<!-- Errors::not_published -->
<g id="node18" class="node">
<title>Errors::not_published</title>
<ellipse fill="none" stroke="black" cx="875.9" cy="-109" rx="60.39" ry="18"/>
<text text-anchor="middle" x="875.9" y="-105.3" font-family="Times,serif" font-size="14.00">not_published</text>
</g>
<!-- remove_preburn_from_queue&#45;&gt;Errors::not_published -->
<g id="edge18" class="edge">
<title>remove_preburn_from_queue&#45;&gt;Errors::not_published</title>
<path fill="none" stroke="black" d="M434.72,-190.15C556.64,-188.02 739.86,-180.94 805.9,-158 821.84,-152.46 837.54,-142.27 850.01,-132.69"/>
<polygon fill="black" stroke="black" points="852.47,-135.21 858.09,-126.23 848.1,-129.74 852.47,-135.21"/>
</g>
<!-- Vector::borrow -->
<g id="node19" class="node">
<title>Vector::borrow</title>
<ellipse fill="none" stroke="black" cx="254.9" cy="-109" rx="36.29" ry="18"/>
<text text-anchor="middle" x="254.9" y="-105.3" font-family="Times,serif" font-size="14.00">borrow</text>
</g>
<!-- remove_preburn_from_queue&#45;&gt;Vector::borrow -->
<g id="edge19" class="edge">
<title>remove_preburn_from_queue&#45;&gt;Vector::borrow</title>
<path fill="none" stroke="black" d="M305.32,-173.82C296.17,-162.24 283.97,-146.8 273.87,-134.01"/>
<polygon fill="black" stroke="black" points="276.53,-131.73 267.58,-126.05 271.03,-136.07 276.53,-131.73"/>
</g>
<!-- Vector::length -->
<g id="node20" class="node">
<title>Vector::length</title>
<ellipse fill="none" stroke="black" cx="290.9" cy="-34" rx="32.49" ry="18"/>
<text text-anchor="middle" x="290.9" y="-30.3" font-family="Times,serif" font-size="14.00">length</text>
</g>
<!-- remove_preburn_from_queue&#45;&gt;Vector::length -->
<g id="edge20" class="edge">
<title>remove_preburn_from_queue&#45;&gt;Vector::length</title>
<path fill="none" stroke="black" d="M315.79,-173.71C310.96,-146.77 301.58,-94.54 295.82,-62.42"/>
<polygon fill="black" stroke="black" points="299.23,-61.59 294.01,-52.37 292.34,-62.83 299.23,-61.59"/>
</g>
<!-- Vector::remove -->
<g id="node21" class="node">
<title>Vector::remove</title>
<ellipse fill="none" stroke="black" cx="162.9" cy="-109" rx="37.89" ry="18"/>
<text text-anchor="middle" x="162.9" y="-105.3" font-family="Times,serif" font-size="14.00">remove</text>
</g>
<!-- remove_preburn_from_queue&#45;&gt;Vector::remove -->
<g id="edge21" class="edge">
<title>remove_preburn_from_queue&#45;&gt;Vector::remove</title>
<path fill="none" stroke="black" d="M253.5,-177.01C238.55,-172.26 223.17,-166.05 209.9,-158 199.51,-151.7 189.8,-142.59 181.93,-133.99"/>
<polygon fill="black" stroke="black" points="184.47,-131.57 175.26,-126.33 179.19,-136.17 184.47,-131.57"/>
</g>
<!-- value -->
<g id="node22" class="node">
<title>value</title>
<ellipse fill="none" stroke="black" cx="29.9" cy="-109" rx="29.8" ry="18"/>
<text text-anchor="middle" x="29.9" y="-105.3" font-family="Times,serif" font-size="14.00">value</text>
</g>
<!-- remove_preburn_from_queue&#45;&gt;value -->
<g id="edge22" class="edge">
<title>remove_preburn_from_queue&#45;&gt;value</title>
<path fill="none" stroke="black" d="M210.1,-185.57C152.38,-181.01 88.43,-172.76 63.9,-158 54.93,-152.61 47.7,-143.85 42.25,-135.28"/>
<polygon fill="black" stroke="black" points="45.25,-133.47 37.21,-126.56 39.19,-136.97 45.25,-133.47"/>
</g>
<!-- Errors::invalid_state&#45;&gt;Errors::make -->
<g id="edge23" class="edge">
<title>Errors::invalid_state&#45;&gt;Errors::make</title>
<path fill="none" stroke="black" d="M605.94,-93.58C630.72,-81.27 666.3,-63.6 691.9,-50.89"/>
<polygon fill="black" stroke="black" points="693.77,-53.87 701.17,-46.28 690.66,-47.6 693.77,-53.87"/>
</g>
<!-- Errors::limit_exceeded&#45;&gt;Errors::make -->
<g id="edge24" class="edge">
<title>Errors::limit_exceeded&#45;&gt;Errors::make</title>
<path fill="none" stroke="black" d="M972.15,-96.43C913.85,-82.01 815.31,-57.62 761.59,-44.33"/>
<polygon fill="black" stroke="black" points="762.33,-40.9 751.78,-41.9 760.65,-47.7 762.33,-40.9"/>
</g>
<!-- Event::write_to_event_store -->
<g id="node23" class="node">
<title>Event::write_to_event_store</title>
<ellipse fill="none" stroke="black" cx="1385.9" cy="-192" rx="85.29" ry="18"/>
<text text-anchor="middle" x="1385.9" y="-188.3" font-family="Times,serif" font-size="14.00">write_to_event_store</text>
</g>
<!-- Event::emit_event&#45;&gt;Event::write_to_event_store -->
<g id="edge25" class="edge">
<title>Event::emit_event&#45;&gt;Event::write_to_event_store</title>
<path fill="none" stroke="black" d="M1372.25,-246.05C1374.26,-238.26 1376.69,-228.82 1378.93,-220.08"/>
<polygon fill="black" stroke="black" points="1382.35,-220.83 1381.46,-210.28 1375.57,-219.09 1382.35,-220.83"/>
</g>
<!-- currency_code&#45;&gt;CoreAddresses::CURRENCY_INFO_ADDRESS -->
<g id="edge26" class="edge">
<title>currency_code&#45;&gt;CoreAddresses::CURRENCY_INFO_ADDRESS</title>
<path fill="none" stroke="black" d="M1194.78,-246.45C1202.32,-236.51 1211.07,-223.26 1215.9,-210 1233.95,-160.34 1236.75,-97.99 1236.65,-62.7"/>
<polygon fill="black" stroke="black" points="1240.15,-62.21 1236.54,-52.25 1233.15,-62.29 1240.15,-62.21"/>
</g>
<!-- currency_code&#45;&gt;assert_is_currency -->
<g id="edge27" class="edge">
<title>currency_code&#45;&gt;assert_is_currency</title>
<path fill="none" stroke="black" d="M1168.79,-246.05C1162.77,-237.63 1155.38,-227.28 1148.73,-217.97"/>
<polygon fill="black" stroke="black" points="1151.55,-215.89 1142.89,-209.79 1145.85,-219.96 1151.55,-215.89"/>
</g>
<!-- assert_is_currency&#45;&gt;Errors::not_published -->
<g id="edge28" class="edge">
<title>assert_is_currency&#45;&gt;Errors::not_published</title>
<path fill="none" stroke="black" d="M1088.94,-176.79C1075.35,-172.69 1060.12,-168.62 1045.9,-166 1001.62,-157.83 987.3,-173.16 944.9,-158 929.27,-152.41 913.9,-142.31 901.66,-132.81"/>
<polygon fill="black" stroke="black" points="903.69,-129.96 893.71,-126.4 899.29,-135.4 903.69,-129.96"/>
</g>
<!-- is_currency -->
<g id="node24" class="node">
<title>is_currency</title>
<ellipse fill="none" stroke="black" cx="1154.9" cy="-109" rx="51.99" ry="18"/>
<text text-anchor="middle" x="1154.9" y="-105.3" font-family="Times,serif" font-size="14.00">is_currency</text>
</g>
<!-- assert_is_currency&#45;&gt;is_currency -->
<g id="edge29" class="edge">
<title>assert_is_currency&#45;&gt;is_currency</title>
<path fill="none" stroke="black" d="M1135.99,-173.82C1139.17,-163.08 1143.33,-149.03 1146.95,-136.84"/>
<polygon fill="black" stroke="black" points="1150.33,-137.74 1149.81,-127.15 1143.62,-135.75 1150.33,-137.74"/>
</g>
<!-- withdraw -->
<g id="node25" class="node">
<title>withdraw</title>
<ellipse fill="none" stroke="black" cx="992.9" cy="-192" rx="44.39" ry="18"/>
<text text-anchor="middle" x="992.9" y="-188.3" font-family="Times,serif" font-size="14.00">withdraw</text>
</g>
<!-- withdraw_all&#45;&gt;withdraw -->
<g id="edge30" class="edge">
<title>withdraw_all&#45;&gt;withdraw</title>
<path fill="none" stroke="black" d="M1002.68,-245.7C1001.25,-237.98 999.53,-228.71 997.93,-220.11"/>
<polygon fill="black" stroke="black" points="1001.34,-219.3 996.07,-210.1 994.46,-220.58 1001.34,-219.3"/>
</g>
<!-- Errors::invalid_argument&#45;&gt;Errors::make -->
<g id="edge31" class="edge">
<title>Errors::invalid_argument&#45;&gt;Errors::make</title>
<path fill="none" stroke="black" d="M723.9,-90.7C723.9,-82.25 723.9,-71.87 723.9,-62.37"/>
<polygon fill="black" stroke="black" points="727.4,-62.18 723.9,-52.18 720.4,-62.18 727.4,-62.18"/>
</g>
<!-- Errors::not_published&#45;&gt;Errors::make -->
<g id="edge32" class="edge">
<title>Errors::not_published&#45;&gt;Errors::make</title>
<path fill="none" stroke="black" d="M845.5,-93.4C819.58,-80.95 782.42,-63.1 756.01,-50.42"/>
<polygon fill="black" stroke="black" points="757.34,-47.18 746.81,-46 754.31,-53.49 757.34,-47.18"/>
</g>
<!-- Vector::remove&#45;&gt;Vector::length -->
<g id="edge33" class="edge">
<title>Vector::remove&#45;&gt;Vector::length</title>
<path fill="none" stroke="black" d="M191.51,-96.88C197.53,-94.76 203.88,-92.68 209.9,-91 227.36,-86.13 234.26,-92.18 249.9,-83 259.78,-77.2 268.43,-68.13 275.21,-59.43"/>
<polygon fill="black" stroke="black" points="278.06,-61.46 281.11,-51.31 272.4,-57.34 278.06,-61.46"/>
</g>
<!-- Vector::pop_back -->
<g id="node26" class="node">
<title>Vector::pop_back</title>
<ellipse fill="none" stroke="black" cx="120.9" cy="-34" rx="44.69" ry="18"/>
<text text-anchor="middle" x="120.9" y="-30.3" font-family="Times,serif" font-size="14.00">pop_back</text>
</g>
<!-- Vector::remove&#45;&gt;Vector::pop_back -->
<g id="edge34" class="edge">
<title>Vector::remove&#45;&gt;Vector::pop_back</title>
<path fill="none" stroke="black" d="M153.37,-91.44C148.14,-82.35 141.55,-70.89 135.67,-60.68"/>
<polygon fill="black" stroke="black" points="138.56,-58.67 130.54,-51.75 132.49,-62.17 138.56,-58.67"/>
</g>
<!-- Vector::swap -->
<g id="node27" class="node">
<title>Vector::swap</title>
<ellipse fill="none" stroke="black" cx="211.9" cy="-34" rx="28.7" ry="18"/>
<text text-anchor="middle" x="211.9" y="-30.3" font-family="Times,serif" font-size="14.00">swap</text>
</g>
<!-- Vector::remove&#45;&gt;Vector::swap -->
<g id="edge35" class="edge">
<title>Vector::remove&#45;&gt;Vector::swap</title>
<path fill="none" stroke="black" d="M174.02,-91.44C180.37,-81.97 188.45,-69.93 195.52,-59.4"/>
<polygon fill="black" stroke="black" points="198.49,-61.25 201.16,-51 192.68,-57.35 198.49,-61.25"/>
</g>
<!-- is_currency&#45;&gt;CoreAddresses::CURRENCY_INFO_ADDRESS -->
<g id="edge36" class="edge">
<title>is_currency&#45;&gt;CoreAddresses::CURRENCY_INFO_ADDRESS</title>
<path fill="none" stroke="black" d="M1172.87,-91.8C1183.66,-82.08 1197.56,-69.55 1209.56,-58.73"/>
<polygon fill="black" stroke="black" points="1212.04,-61.21 1217.13,-51.92 1207.36,-56.01 1212.04,-61.21"/>
</g>
<!-- withdraw&#45;&gt;Errors::limit_exceeded -->
<g id="edge37" class="edge">
<title>withdraw&#45;&gt;Errors::limit_exceeded</title>
<path fill="none" stroke="black" d="M998.41,-173.82C1001.86,-163.08 1006.37,-149.03 1010.28,-136.84"/>
<polygon fill="black" stroke="black" points="1013.67,-137.74 1013.39,-127.15 1007,-135.61 1013.67,-137.74"/>
</g>
</g>
</svg>
