<?xml version="1.0" encoding="UTF-8" standalone="no"?>
<!DOCTYPE svg PUBLIC "-//W3C//DTD SVG 1.1//EN"
 "http://www.w3.org/Graphics/SVG/1.1/DTD/svg11.dtd">
<!-- Generated by graphviz version 2.46.1 (20210213.1702)
 -->
<!-- Title: G Pages: 1 -->
<svg width="975pt" height="476pt"
 viewBox="0.00 0.00 975.00 476.00" xmlns="http://www.w3.org/2000/svg" xmlns:xlink="http://www.w3.org/1999/xlink">
<g id="graph0" class="graph" transform="scale(1 1) rotate(0) translate(4 472)">
<title>G</title>
<polygon fill="white" stroke="transparent" points="-4,4 -4,-472 971,-472 971,4 -4,4"/>
<!-- DiemSystem -->
<g id="node1" class="node">
<title>DiemSystem</title>
<ellipse fill="none" stroke="black" cx="369" cy="-450" rx="57.39" ry="18"/>
<text text-anchor="middle" x="369" y="-446.3" font-family="Times,serif" font-size="14.00">DiemSystem</text>
</g>
<!-- Signer -->
<g id="node2" class="node">
<title>Signer</title>
<ellipse fill="none" stroke="black" cx="152" cy="-18" rx="33.6" ry="18"/>
<text text-anchor="middle" x="152" y="-14.3" font-family="Times,serif" font-size="14.00">Signer</text>
</g>
<!-- DiemSystem&#45;&gt;Signer -->
<g id="edge1" class="edge">
<title>DiemSystem&#45;&gt;Signer</title>
<path fill="none" stroke="black" d="M312.32,-447.56C254.05,-444 162.18,-432.44 92,-396 41.51,-369.78 0,-363.89 0,-307 0,-307 0,-307 0,-161 0,-97.62 71.45,-54.4 116.37,-33.49"/>
<polygon fill="black" stroke="black" points="117.84,-36.66 125.52,-29.36 114.97,-30.28 117.84,-36.66"/>
</g>
<!-- Errors -->
<g id="node3" class="node">
<title>Errors</title>
<ellipse fill="none" stroke="black" cx="560" cy="-18" rx="32.49" ry="18"/>
<text text-anchor="middle" x="560" y="-14.3" font-family="Times,serif" font-size="14.00">Errors</text>
</g>
<!-- DiemSystem&#45;&gt;Errors -->
<g id="edge2" class="edge">
<title>DiemSystem&#45;&gt;Errors</title>
<path fill="none" stroke="black" d="M419.77,-441.6C521.02,-425.67 741.95,-384.57 784,-324 861.23,-212.76 668.88,-82.93 590.99,-36.56"/>
<polygon fill="black" stroke="black" points="592.48,-33.37 582.09,-31.32 588.93,-39.41 592.48,-33.37"/>
</g>
<!-- CoreAddresses -->
<g id="node4" class="node">
<title>CoreAddresses</title>
<ellipse fill="none" stroke="black" cx="354" cy="-90" rx="63.89" ry="18"/>
<text text-anchor="middle" x="354" y="-86.3" font-family="Times,serif" font-size="14.00">CoreAddresses</text>
</g>
<!-- DiemSystem&#45;&gt;CoreAddresses -->
<g id="edge3" class="edge">
<title>DiemSystem&#45;&gt;CoreAddresses</title>
<path fill="none" stroke="black" d="M312.85,-446.33C227.78,-438.94 76,-411.15 76,-307 76,-307 76,-307 76,-233 76,-140 200.9,-107.88 283.26,-96.8"/>
<polygon fill="black" stroke="black" points="283.86,-100.26 293.34,-95.52 282.97,-93.31 283.86,-100.26"/>
</g>
<!-- DiemTimestamp -->
<g id="node5" class="node">
<title>DiemTimestamp</title>
<ellipse fill="none" stroke="black" cx="551" cy="-162" rx="71.49" ry="18"/>
<text text-anchor="middle" x="551" y="-158.3" font-family="Times,serif" font-size="14.00">DiemTimestamp</text>
</g>
<!-- DiemSystem&#45;&gt;DiemTimestamp -->
<g id="edge4" class="edge">
<title>DiemSystem&#45;&gt;DiemTimestamp</title>
<path fill="none" stroke="black" d="M370.98,-431.97C375.47,-400.23 389.07,-331.33 426,-288 447.67,-262.57 467.38,-274.59 492,-252 511.52,-234.1 527.62,-208.46 538.05,-189.29"/>
<polygon fill="black" stroke="black" points="541.27,-190.68 542.84,-180.2 535.08,-187.42 541.27,-190.68"/>
</g>
<!-- Roles -->
<g id="node6" class="node">
<title>Roles</title>
<ellipse fill="none" stroke="black" cx="452" cy="-234" rx="30.59" ry="18"/>
<text text-anchor="middle" x="452" y="-230.3" font-family="Times,serif" font-size="14.00">Roles</text>
</g>
<!-- DiemSystem&#45;&gt;Roles -->
<g id="edge5" class="edge">
<title>DiemSystem&#45;&gt;Roles</title>
<path fill="none" stroke="black" d="M361.46,-432.05C348.91,-401.03 327.66,-334.09 355,-288 362.21,-275.85 393.19,-260.15 418.23,-249"/>
<polygon fill="black" stroke="black" points="419.71,-252.17 427.48,-244.97 416.91,-245.76 419.71,-252.17"/>
</g>
<!-- Vector -->
<g id="node7" class="node">
<title>Vector</title>
<ellipse fill="none" stroke="black" cx="848" cy="-162" rx="33.6" ry="18"/>
<text text-anchor="middle" x="848" y="-158.3" font-family="Times,serif" font-size="14.00">Vector</text>
</g>
<!-- DiemSystem&#45;&gt;Vector -->
<g id="edge6" class="edge">
<title>DiemSystem&#45;&gt;Vector</title>
<path fill="none" stroke="black" d="M425.04,-446.17C539.04,-439.87 789.53,-423.08 817,-396 845.54,-367.87 848.54,-245.76 848.38,-190.43"/>
<polygon fill="black" stroke="black" points="851.88,-190.28 848.32,-180.3 844.88,-190.32 851.88,-190.28"/>
</g>
<!-- DiemConfig -->
<g id="node8" class="node">
<title>DiemConfig</title>
<ellipse fill="none" stroke="black" cx="248" cy="-306" rx="54.69" ry="18"/>
<text text-anchor="middle" x="248" y="-302.3" font-family="Times,serif" font-size="14.00">DiemConfig</text>
</g>
<!-- DiemSystem&#45;&gt;DiemConfig -->
<g id="edge7" class="edge">
<title>DiemSystem&#45;&gt;DiemConfig</title>
<path fill="none" stroke="black" d="M352.09,-432.76C341.67,-422.51 328.19,-408.82 317,-396 298.88,-375.24 279.8,-350.37 266.3,-332.2"/>
<polygon fill="black" stroke="black" points="268.91,-329.83 260.16,-323.86 263.28,-333.99 268.91,-329.83"/>
</g>
<!-- Option -->
<g id="node9" class="node">
<title>Option</title>
<ellipse fill="none" stroke="black" cx="904" cy="-234" rx="35.19" ry="18"/>
<text text-anchor="middle" x="904" y="-230.3" font-family="Times,serif" font-size="14.00">Option</text>
</g>
<!-- DiemSystem&#45;&gt;Option -->
<g id="edge8" class="edge">
<title>DiemSystem&#45;&gt;Option</title>
<path fill="none" stroke="black" d="M425.26,-446.32C546.16,-440.07 822.45,-422.98 855,-396 894.65,-363.14 902.93,-299.2 904.24,-262.56"/>
<polygon fill="black" stroke="black" points="907.75,-262.2 904.45,-252.13 900.75,-262.06 907.75,-262.2"/>
</g>
<!-- ValidatorConfig -->
<g id="node10" class="node">
<title>ValidatorConfig</title>
<ellipse fill="none" stroke="black" cx="515" cy="-378" rx="66.89" ry="18"/>
<text text-anchor="middle" x="515" y="-374.3" font-family="Times,serif" font-size="14.00">ValidatorConfig</text>
</g>
<!-- DiemSystem&#45;&gt;ValidatorConfig -->
<g id="edge9" class="edge">
<title>DiemSystem&#45;&gt;ValidatorConfig</title>
<path fill="none" stroke="black" d="M399.25,-434.5C421.08,-424.03 450.77,-409.79 474.62,-398.36"/>
<polygon fill="black" stroke="black" points="476.28,-401.45 483.78,-393.97 473.25,-395.14 476.28,-401.45"/>
</g>
<!-- CoreAddresses&#45;&gt;Signer -->
<g id="edge10" class="edge">
<title>CoreAddresses&#45;&gt;Signer</title>
<path fill="none" stroke="black" d="M315.05,-75.5C278.69,-62.9 224.8,-44.23 189.06,-31.84"/>
<polygon fill="black" stroke="black" points="190.09,-28.49 179.49,-28.53 187.8,-35.11 190.09,-28.49"/>
</g>
<!-- CoreAddresses&#45;&gt;Errors -->
<g id="edge11" class="edge">
<title>CoreAddresses&#45;&gt;Errors</title>
<path fill="none" stroke="black" d="M393.23,-75.67C430.69,-62.94 486.68,-43.91 523.28,-31.48"/>
<polygon fill="black" stroke="black" points="524.71,-34.69 533.06,-28.16 522.46,-28.06 524.71,-34.69"/>
</g>
<!-- DiemTimestamp&#45;&gt;Errors -->
<g id="edge12" class="edge">
<title>DiemTimestamp&#45;&gt;Errors</title>
<path fill="none" stroke="black" d="M552.09,-143.87C553.62,-119.67 556.44,-75.21 558.26,-46.39"/>
<polygon fill="black" stroke="black" points="561.77,-46.39 558.91,-36.19 554.78,-45.95 561.77,-46.39"/>
</g>
<!-- DiemTimestamp&#45;&gt;CoreAddresses -->
<g id="edge13" class="edge">
<title>DiemTimestamp&#45;&gt;CoreAddresses</title>
<path fill="none" stroke="black" d="M511.13,-146.83C479.51,-135.6 435.22,-119.86 401.72,-107.96"/>
<polygon fill="black" stroke="black" points="402.73,-104.6 392.13,-104.55 400.38,-111.2 402.73,-104.6"/>
</g>
<!-- Roles&#45;&gt;Signer -->
<g id="edge14" class="edge">
<title>Roles&#45;&gt;Signer</title>
<path fill="none" stroke="black" d="M433.23,-219.61C382.13,-183.16 240.27,-81.97 179.84,-38.86"/>
<polygon fill="black" stroke="black" points="181.71,-35.89 171.54,-32.94 177.64,-41.59 181.71,-35.89"/>
</g>
<!-- Roles&#45;&gt;Errors -->
<g id="edge15" class="edge">
<title>Roles&#45;&gt;Errors</title>
<path fill="none" stroke="black" d="M453.55,-215.97C455.7,-197.57 460.56,-167.72 471,-144 488.18,-104.96 518.69,-65.85 539.13,-42.04"/>
<polygon fill="black" stroke="black" points="541.96,-44.11 545.9,-34.28 536.69,-39.51 541.96,-44.11"/>
</g>
<!-- Roles&#45;&gt;CoreAddresses -->
<g id="edge16" class="edge">
<title>Roles&#45;&gt;CoreAddresses</title>
<path fill="none" stroke="black" d="M440.95,-216.99C424.07,-192.53 391.72,-145.66 371.59,-116.49"/>
<polygon fill="black" stroke="black" points="374.33,-114.3 365.77,-108.06 368.57,-118.27 374.33,-114.3"/>
</g>
<!-- Roles&#45;&gt;DiemTimestamp -->
<g id="edge17" class="edge">
<title>Roles&#45;&gt;DiemTimestamp</title>
<path fill="none" stroke="black" d="M471.09,-219.5C484.84,-209.78 503.7,-196.45 519.64,-185.17"/>
<polygon fill="black" stroke="black" points="522,-187.79 528.15,-179.16 517.96,-182.07 522,-187.79"/>
</g>
<!-- DiemConfig&#45;&gt;Signer -->
<g id="edge18" class="edge">
<title>DiemConfig&#45;&gt;Signer</title>
<path fill="none" stroke="black" d="M230.71,-288.68C208.37,-266.44 170.19,-224.3 152,-180 133.89,-135.9 139.91,-79.11 145.95,-46.1"/>
<polygon fill="black" stroke="black" points="149.39,-46.76 147.88,-36.27 142.52,-45.41 149.39,-46.76"/>
</g>
<!-- DiemConfig&#45;&gt;Errors -->
<g id="edge19" class="edge">
<title>DiemConfig&#45;&gt;Errors</title>
<path fill="none" stroke="black" d="M267.66,-288.96C280.05,-278.67 296.24,-264.86 310,-252 391.72,-175.57 401.08,-144.85 486,-72 500.2,-59.81 517.1,-47.56 531.16,-37.91"/>
<polygon fill="black" stroke="black" points="533.18,-40.77 539.5,-32.26 529.26,-34.97 533.18,-40.77"/>
</g>
<!-- DiemConfig&#45;&gt;CoreAddresses -->
<g id="edge20" class="edge">
<title>DiemConfig&#45;&gt;CoreAddresses</title>
<path fill="none" stroke="black" d="M262.14,-288.58C270.38,-278.49 280.58,-265.02 288,-252 313.5,-207.23 334.32,-150.66 345.37,-117.88"/>
<polygon fill="black" stroke="black" points="348.78,-118.71 348.61,-108.12 342.14,-116.51 348.78,-118.71"/>
</g>
<!-- DiemConfig&#45;&gt;DiemTimestamp -->
<g id="edge21" class="edge">
<title>DiemConfig&#45;&gt;DiemTimestamp</title>
<path fill="none" stroke="black" d="M284.01,-292.33C308.8,-282.88 342,-268.74 369,-252 390.18,-238.87 390.5,-228.61 412,-216 438.17,-200.64 469.6,-188.22 495.94,-179.27"/>
<polygon fill="black" stroke="black" points="497.38,-182.48 505.77,-176.01 495.18,-175.84 497.38,-182.48"/>
</g>
<!-- DiemConfig&#45;&gt;Roles -->
<g id="edge22" class="edge">
<title>DiemConfig&#45;&gt;Roles</title>
<path fill="none" stroke="black" d="M285.73,-292.89C318.04,-282.4 365.74,-266.66 407,-252 410.33,-250.82 413.78,-249.56 417.23,-248.29"/>
<polygon fill="black" stroke="black" points="418.69,-251.48 426.84,-244.71 416.24,-244.92 418.69,-251.48"/>
</g>
<!-- Event -->
<g id="node11" class="node">
<title>Event</title>
<ellipse fill="none" stroke="black" cx="248" cy="-234" rx="31.4" ry="18"/>
<text text-anchor="middle" x="248" y="-230.3" font-family="Times,serif" font-size="14.00">Event</text>
</g>
<!-- DiemConfig&#45;&gt;Event -->
<g id="edge23" class="edge">
<title>DiemConfig&#45;&gt;Event</title>
<path fill="none" stroke="black" d="M248,-287.7C248,-279.98 248,-270.71 248,-262.11"/>
<polygon fill="black" stroke="black" points="251.5,-262.1 248,-252.1 244.5,-262.1 251.5,-262.1"/>
</g>
<!-- Option&#45;&gt;Errors -->
<g id="edge24" class="edge">
<title>Option&#45;&gt;Errors</title>
<path fill="none" stroke="black" d="M905.12,-215.72C905.55,-196.84 903.87,-166.32 891,-144 865.23,-99.33 846.59,-94.12 800,-72 735.05,-41.15 651.61,-27.95 602.17,-22.53"/>
<polygon fill="black" stroke="black" points="602.47,-19.04 592.16,-21.49 601.74,-26.01 602.47,-19.04"/>
</g>
<!-- Option&#45;&gt;Vector -->
<g id="edge25" class="edge">
<title>Option&#45;&gt;Vector</title>
<path fill="none" stroke="black" d="M891.29,-217.12C884.13,-208.17 875.05,-196.81 867.05,-186.81"/>
<polygon fill="black" stroke="black" points="869.64,-184.44 860.66,-178.82 864.17,-188.82 869.64,-184.44"/>
</g>
<!-- ValidatorConfig&#45;&gt;Signer -->
<g id="edge26" class="edge">
<title>ValidatorConfig&#45;&gt;Signer</title>
<path fill="none" stroke="black" d="M449.24,-374.47C364.32,-369.88 222.78,-357.34 184,-324 109.36,-259.82 137.05,-206.42 135,-108 134.67,-92 132.53,-87.81 135,-72 136.38,-63.18 138.98,-53.82 141.74,-45.46"/>
<polygon fill="black" stroke="black" points="145.1,-46.45 145.11,-35.86 138.49,-44.13 145.1,-46.45"/>
</g>
<!-- ValidatorConfig&#45;&gt;Errors -->
<g id="edge27" class="edge">
<title>ValidatorConfig&#45;&gt;Errors</title>
<path fill="none" stroke="black" d="M576.43,-370.7C700.01,-356.33 967,-315.92 967,-235 967,-235 967,-235 967,-161 967,-93.88 906.63,-98.57 845,-72 763.86,-37.02 659.96,-25.09 602.69,-21.05"/>
<polygon fill="black" stroke="black" points="602.76,-17.55 592.55,-20.38 602.3,-24.53 602.76,-17.55"/>
</g>
<!-- ValidatorConfig&#45;&gt;DiemTimestamp -->
<g id="edge28" class="edge">
<title>ValidatorConfig&#45;&gt;DiemTimestamp</title>
<path fill="none" stroke="black" d="M521.36,-360.04C524.99,-349.75 529.33,-336.28 532,-324 542.09,-277.54 547.14,-222.3 549.4,-190.09"/>
<polygon fill="black" stroke="black" points="552.9,-190.31 550.07,-180.1 545.91,-189.84 552.9,-190.31"/>
</g>
<!-- ValidatorConfig&#45;&gt;Roles -->
<g id="edge30" class="edge">
<title>ValidatorConfig&#45;&gt;Roles</title>
<path fill="none" stroke="black" d="M474.44,-363.48C456.21,-355.15 436.49,-342.45 426,-324 414.5,-303.77 424.28,-278 434.97,-259.41"/>
<polygon fill="black" stroke="black" points="438.1,-261 440.37,-250.66 432.14,-257.33 438.1,-261"/>
</g>
<!-- ValidatorConfig&#45;&gt;Option -->
<g id="edge32" class="edge">
<title>ValidatorConfig&#45;&gt;Option</title>
<path fill="none" stroke="black" d="M578.8,-372.41C634.86,-366.54 717.61,-353.36 784,-324 821.35,-307.49 858.14,-277.62 880.94,-257.08"/>
<polygon fill="black" stroke="black" points="883.4,-259.57 888.4,-250.23 878.66,-254.41 883.4,-259.57"/>
</g>
<!-- Signature -->
<g id="node12" class="node">
<title>Signature</title>
<ellipse fill="none" stroke="black" cx="479" cy="-306" rx="44.39" ry="18"/>
<text text-anchor="middle" x="479" y="-302.3" font-family="Times,serif" font-size="14.00">Signature</text>
</g>
<!-- ValidatorConfig&#45;&gt;Signature -->
<g id="edge29" class="edge">
<title>ValidatorConfig&#45;&gt;Signature</title>
<path fill="none" stroke="black" d="M506.29,-360.05C502.08,-351.89 496.95,-341.91 492.28,-332.82"/>
<polygon fill="black" stroke="black" points="495.32,-331.08 487.63,-323.79 489.1,-334.28 495.32,-331.08"/>
</g>
<!-- ValidatorOperatorConfig -->
<g id="node13" class="node">
<title>ValidatorOperatorConfig</title>
<ellipse fill="none" stroke="black" cx="677" cy="-306" rx="98.28" ry="18"/>
<text text-anchor="middle" x="677" y="-302.3" font-family="Times,serif" font-size="14.00">ValidatorOperatorConfig</text>
</g>
<!-- ValidatorConfig&#45;&gt;ValidatorOperatorConfig -->
<g id="edge31" class="edge">
<title>ValidatorConfig&#45;&gt;ValidatorOperatorConfig</title>
<path fill="none" stroke="black" d="M548.96,-362.33C572.84,-352.01 605.07,-338.08 631.22,-326.78"/>
<polygon fill="black" stroke="black" points="632.76,-329.93 640.55,-322.75 629.98,-323.5 632.76,-329.93"/>
</g>
<!-- Event&#45;&gt;Signer -->
<g id="edge33" class="edge">
<title>Event&#45;&gt;Signer</title>
<path fill="none" stroke="black" d="M223.24,-222.75C205.61,-214.08 182.99,-199.87 171,-180 145.95,-138.46 146.02,-79.88 148.74,-46.03"/>
<polygon fill="black" stroke="black" points="152.23,-46.25 149.68,-35.96 145.26,-45.59 152.23,-46.25"/>
</g>
<!-- Event&#45;&gt;Errors -->
<g id="edge34" class="edge">
<title>Event&#45;&gt;Errors</title>
<path fill="none" stroke="black" d="M245.91,-215.83C242.95,-182.91 241.68,-110.76 281,-72 313.86,-39.61 447.77,-26.26 517.44,-21.41"/>
<polygon fill="black" stroke="black" points="517.89,-24.89 527.63,-20.73 517.42,-17.9 517.89,-24.89"/>
</g>
<!-- Event&#45;&gt;Vector -->
<g id="edge35" class="edge">
<title>Event&#45;&gt;Vector</title>
<path fill="none" stroke="black" d="M278.58,-229.43C377.69,-217.87 690.3,-181.4 805.14,-168"/>
<polygon fill="black" stroke="black" points="805.77,-171.45 815.3,-166.81 804.96,-164.5 805.77,-171.45"/>
</g>
<!-- BCS -->
<g id="node14" class="node">
<title>BCS</title>
<ellipse fill="none" stroke="black" cx="207" cy="-162" rx="27.1" ry="18"/>
<text text-anchor="middle" x="207" y="-158.3" font-family="Times,serif" font-size="14.00">BCS</text>
</g>
<!-- Event&#45;&gt;BCS -->
<g id="edge36" class="edge">
<title>Event&#45;&gt;BCS</title>
<path fill="none" stroke="black" d="M238.49,-216.76C233.47,-208.19 227.2,-197.49 221.58,-187.9"/>
<polygon fill="black" stroke="black" points="224.53,-186.01 216.46,-179.15 218.49,-189.55 224.53,-186.01"/>
</g>
<!-- ValidatorOperatorConfig&#45;&gt;Signer -->
<g id="edge37" class="edge">
<title>ValidatorOperatorConfig&#45;&gt;Signer</title>
<path fill="none" stroke="black" d="M677,-287.97C676.07,-255.62 669.44,-184.86 631,-144 570.73,-79.94 300.62,-38.41 194.76,-24.33"/>
<polygon fill="black" stroke="black" points="195.11,-20.85 184.74,-23.02 194.2,-27.79 195.11,-20.85"/>
</g>
<!-- ValidatorOperatorConfig&#45;&gt;Errors -->
<g id="edge38" class="edge">
<title>ValidatorOperatorConfig&#45;&gt;Errors</title>
<path fill="none" stroke="black" d="M678.91,-287.77C681.56,-257.44 684.02,-193.08 664,-144 646.78,-101.78 609.89,-63.08 585,-40.26"/>
<polygon fill="black" stroke="black" points="587.17,-37.5 577.39,-33.42 582.49,-42.71 587.17,-37.5"/>
</g>
<!-- ValidatorOperatorConfig&#45;&gt;DiemTimestamp -->
<g id="edge39" class="edge">
<title>ValidatorOperatorConfig&#45;&gt;DiemTimestamp</title>
<path fill="none" stroke="black" d="M662.05,-288.15C639.89,-263.17 598.18,-216.17 572.67,-187.42"/>
<polygon fill="black" stroke="black" points="575.18,-184.98 565.93,-179.82 569.95,-189.63 575.18,-184.98"/>
</g>
<!-- ValidatorOperatorConfig&#45;&gt;Roles -->
<g id="edge40" class="edge">
<title>ValidatorOperatorConfig&#45;&gt;Roles</title>
<path fill="none" stroke="black" d="M629.56,-290.24C587.31,-277.1 526.4,-258.15 488.03,-246.21"/>
<polygon fill="black" stroke="black" points="488.9,-242.81 478.31,-243.19 486.82,-249.5 488.9,-242.81"/>
</g>
</g>
</svg>
