<?xml version="1.0" encoding="UTF-8" standalone="no"?>
<!DOCTYPE svg PUBLIC "-//W3C//DTD SVG 1.1//EN"
 "http://www.w3.org/Graphics/SVG/1.1/DTD/svg11.dtd">
<!-- Generated by graphviz version 2.46.1 (20210213.1702)
 -->
<!-- Title: G Pages: 1 -->
<svg width="1194pt" height="365pt"
 viewBox="0.00 0.00 1194.00 365.00" xmlns="http://www.w3.org/2000/svg" xmlns:xlink="http://www.w3.org/1999/xlink">
<g id="graph0" class="graph" transform="scale(1 1) rotate(0) translate(4 361)">
<title>G</title>
<polygon fill="white" stroke="transparent" points="-4,4 -4,-361 1190,-361 1190,4 -4,4"/>
<g id="clust1" class="cluster">
<title>cluster_Signer</title>
<polygon fill="none" stroke="black" points="8,-8 8,-158 158,-158 158,-8 8,-8"/>
<text text-anchor="middle" x="83" y="-142.8" font-family="Times,serif" font-size="14.00">Signer</text>
</g>
<g id="clust2" class="cluster">
<title>cluster_Roles</title>
<polygon fill="none" stroke="black" points="159,-166 159,-241 373,-241 373,-166 159,-166"/>
<text text-anchor="middle" x="266" y="-225.8" font-family="Times,serif" font-size="14.00">Roles</text>
</g>
<g id="clust3" class="cluster">
<title>cluster_Errors</title>
<polygon fill="none" stroke="black" points="166,-8 166,-158 898,-158 898,-8 166,-8"/>
<text text-anchor="middle" x="532" y="-142.8" font-family="Times,serif" font-size="14.00">Errors</text>
</g>
<g id="clust4" class="cluster">
<title>cluster_Vector</title>
<polygon fill="none" stroke="black" points="451,-166 451,-241 533,-241 533,-166 451,-166"/>
<text text-anchor="middle" x="492" y="-225.8" font-family="Times,serif" font-size="14.00">Vector</text>
</g>
<g id="clust5" class="cluster">
<title>cluster_CoreAddresses</title>
<polygon fill="none" stroke="black" points="906,-8 906,-83 1178,-83 1178,-8 906,-8"/>
<text text-anchor="middle" x="1042" y="-67.8" font-family="Times,serif" font-size="14.00">CoreAddresses</text>
</g>
<!-- upgrade_preburn -->
<g id="node1" class="node">
<title>upgrade_preburn</title>
<ellipse fill="none" stroke="black" cx="331" cy="-339" rx="70.69" ry="18"/>
<text text-anchor="middle" x="331" y="-335.3" font-family="Times,serif" font-size="14.00">upgrade_preburn</text>
</g>
<!-- Signer::address_of -->
<g id="node2" class="node">
<title>Signer::address_of</title>
<ellipse fill="none" stroke="black" cx="101" cy="-109" rx="48.99" ry="18"/>
<text text-anchor="middle" x="101" y="-105.3" font-family="Times,serif" font-size="14.00">address_of</text>
</g>
<!-- upgrade_preburn&#45;&gt;Signer::address_of -->
<g id="edge1" class="edge">
<title>upgrade_preburn&#45;&gt;Signer::address_of</title>
<path fill="none" stroke="black" d="M273.16,-328.48C222.79,-316.94 152.17,-292.24 115,-241 93.09,-210.79 93.42,-165.88 96.54,-137.27"/>
<polygon fill="black" stroke="black" points="100.04,-137.54 97.83,-127.17 93.09,-136.65 100.04,-137.54"/>
</g>
<!-- Roles::assert_designated_dealer -->
<g id="node3" class="node">
<title>Roles::assert_designated_dealer</title>
<ellipse fill="none" stroke="black" cx="266" cy="-192" rx="98.58" ry="18"/>
<text text-anchor="middle" x="266" y="-188.3" font-family="Times,serif" font-size="14.00">assert_designated_dealer</text>
</g>
<!-- upgrade_preburn&#45;&gt;Roles::assert_designated_dealer -->
<g id="edge2" class="edge">
<title>upgrade_preburn&#45;&gt;Roles::assert_designated_dealer</title>
<path fill="none" stroke="black" d="M315.02,-321.06C306.5,-311.2 296.47,-298.15 290,-285 279.85,-264.35 273.64,-238.9 270.08,-220.01"/>
<polygon fill="black" stroke="black" points="273.5,-219.25 268.33,-210 266.61,-220.45 273.5,-219.25"/>
</g>
<!-- destroy_zero -->
<g id="node4" class="node">
<title>destroy_zero</title>
<ellipse fill="none" stroke="black" cx="816" cy="-192" rx="55.79" ry="18"/>
<text text-anchor="middle" x="816" y="-188.3" font-family="Times,serif" font-size="14.00">destroy_zero</text>
</g>
<!-- upgrade_preburn&#45;&gt;destroy_zero -->
<g id="edge3" class="edge">
<title>upgrade_preburn&#45;&gt;destroy_zero</title>
<path fill="none" stroke="black" d="M395.32,-331.21C479.85,-320.51 631.47,-295.1 750,-241 764.21,-234.52 778.42,-224.71 790,-215.66"/>
<polygon fill="black" stroke="black" points="792.34,-218.26 797.92,-209.25 787.94,-212.81 792.34,-218.26"/>
</g>
<!-- publish_preburn_queue -->
<g id="node5" class="node">
<title>publish_preburn_queue</title>
<ellipse fill="none" stroke="black" cx="393" cy="-267" rx="93.68" ry="18"/>
<text text-anchor="middle" x="393" y="-263.3" font-family="Times,serif" font-size="14.00">publish_preburn_queue</text>
</g>
<!-- upgrade_preburn&#45;&gt;publish_preburn_queue -->
<g id="edge4" class="edge">
<title>upgrade_preburn&#45;&gt;publish_preburn_queue</title>
<path fill="none" stroke="black" d="M346.01,-321.05C353.62,-312.46 363.01,-301.86 371.39,-292.4"/>
<polygon fill="black" stroke="black" points="374.12,-294.6 378.13,-284.79 368.88,-289.95 374.12,-294.6"/>
</g>
<!-- Signer::borrow_address -->
<g id="node6" class="node">
<title>Signer::borrow_address</title>
<ellipse fill="none" stroke="black" cx="83" cy="-34" rx="66.89" ry="18"/>
<text text-anchor="middle" x="83" y="-30.3" font-family="Times,serif" font-size="14.00">borrow_address</text>
</g>
<!-- Signer::address_of&#45;&gt;Signer::borrow_address -->
<g id="edge5" class="edge">
<title>Signer::address_of&#45;&gt;Signer::borrow_address</title>
<path fill="none" stroke="black" d="M96.73,-90.7C94.63,-82.15 92.04,-71.65 89.67,-62.07"/>
<polygon fill="black" stroke="black" points="93.03,-61.05 87.24,-52.18 86.23,-62.72 93.03,-61.05"/>
</g>
<!-- Roles::assert_designated_dealer&#45;&gt;Signer::address_of -->
<g id="edge6" class="edge">
<title>Roles::assert_designated_dealer&#45;&gt;Signer::address_of</title>
<path fill="none" stroke="black" d="M209.72,-177.18C193.82,-172.21 176.82,-165.84 162,-158 149.09,-151.17 136.18,-141.52 125.58,-132.66"/>
<polygon fill="black" stroke="black" points="127.83,-129.97 117.97,-126.1 123.26,-135.28 127.83,-129.97"/>
</g>
<!-- Errors::not_published -->
<g id="node7" class="node">
<title>Errors::not_published</title>
<ellipse fill="none" stroke="black" cx="665" cy="-109" rx="60.39" ry="18"/>
<text text-anchor="middle" x="665" y="-105.3" font-family="Times,serif" font-size="14.00">not_published</text>
</g>
<!-- Roles::assert_designated_dealer&#45;&gt;Errors::not_published -->
<g id="edge7" class="edge">
<title>Roles::assert_designated_dealer&#45;&gt;Errors::not_published</title>
<path fill="none" stroke="black" d="M338.06,-179.64C371.17,-174.79 411,-169.45 447,-166 479.79,-162.86 563.81,-168.6 595,-158 610.98,-152.57 626.68,-142.39 639.15,-132.79"/>
<polygon fill="black" stroke="black" points="641.61,-135.3 647.22,-126.31 637.23,-129.84 641.61,-135.3"/>
</g>
<!-- Errors::requires_role -->
<g id="node8" class="node">
<title>Errors::requires_role</title>
<ellipse fill="none" stroke="black" cx="231" cy="-109" rx="57.39" ry="18"/>
<text text-anchor="middle" x="231" y="-105.3" font-family="Times,serif" font-size="14.00">requires_role</text>
</g>
<!-- Roles::assert_designated_dealer&#45;&gt;Errors::requires_role -->
<g id="edge8" class="edge">
<title>Roles::assert_designated_dealer&#45;&gt;Errors::requires_role</title>
<path fill="none" stroke="black" d="M258.58,-173.82C253.86,-162.9 247.66,-148.55 242.33,-136.22"/>
<polygon fill="black" stroke="black" points="245.47,-134.67 238.29,-126.88 239.05,-137.44 245.47,-134.67"/>
</g>
<!-- Errors::invalid_argument -->
<g id="node9" class="node">
<title>Errors::invalid_argument</title>
<ellipse fill="none" stroke="black" cx="817" cy="-109" rx="73.39" ry="18"/>
<text text-anchor="middle" x="817" y="-105.3" font-family="Times,serif" font-size="14.00">invalid_argument</text>
</g>
<!-- destroy_zero&#45;&gt;Errors::invalid_argument -->
<g id="edge9" class="edge">
<title>destroy_zero&#45;&gt;Errors::invalid_argument</title>
<path fill="none" stroke="black" d="M816.21,-173.82C816.34,-163.19 816.51,-149.31 816.66,-137.2"/>
<polygon fill="black" stroke="black" points="820.16,-137.2 816.79,-127.15 813.16,-137.11 820.16,-137.2"/>
</g>
<!-- publish_preburn_queue&#45;&gt;Signer::address_of -->
<g id="edge10" class="edge">
<title>publish_preburn_queue&#45;&gt;Signer::address_of</title>
<path fill="none" stroke="black" d="M299.43,-265.8C242.9,-263.88 177.54,-257.86 155,-241 137.77,-228.11 118.88,-171.69 108.64,-137.23"/>
<polygon fill="black" stroke="black" points="111.91,-135.93 105.75,-127.31 105.19,-137.89 111.91,-135.93"/>
</g>
<!-- publish_preburn_queue&#45;&gt;Roles::assert_designated_dealer -->
<g id="edge13" class="edge">
<title>publish_preburn_queue&#45;&gt;Roles::assert_designated_dealer</title>
<path fill="none" stroke="black" d="M364.81,-249.8C346.69,-239.38 322.94,-225.73 303.26,-214.42"/>
<polygon fill="black" stroke="black" points="304.96,-211.36 294.55,-209.41 301.47,-217.43 304.96,-211.36"/>
</g>
<!-- Errors::already_published -->
<g id="node10" class="node">
<title>Errors::already_published</title>
<ellipse fill="none" stroke="black" cx="511" cy="-109" rx="75.29" ry="18"/>
<text text-anchor="middle" x="511" y="-105.3" font-family="Times,serif" font-size="14.00">already_published</text>
</g>
<!-- publish_preburn_queue&#45;&gt;Errors::already_published -->
<g id="edge11" class="edge">
<title>publish_preburn_queue&#45;&gt;Errors::already_published</title>
<path fill="none" stroke="black" d="M399.95,-248.97C408.93,-228.13 425.95,-192.37 447,-166 456.71,-153.84 469.27,-142.19 480.7,-132.71"/>
<polygon fill="black" stroke="black" points="483.17,-135.21 488.75,-126.2 478.77,-129.76 483.17,-135.21"/>
</g>
<!-- Errors::invalid_state -->
<g id="node11" class="node">
<title>Errors::invalid_state</title>
<ellipse fill="none" stroke="black" cx="362" cy="-109" rx="55.79" ry="18"/>
<text text-anchor="middle" x="362" y="-105.3" font-family="Times,serif" font-size="14.00">invalid_state</text>
</g>
<!-- publish_preburn_queue&#45;&gt;Errors::invalid_state -->
<g id="edge12" class="edge">
<title>publish_preburn_queue&#45;&gt;Errors::invalid_state</title>
<path fill="none" stroke="black" d="M390.81,-248.91C388.13,-228.93 383.16,-194.89 377,-166 374.96,-156.42 372.3,-146.02 369.79,-136.82"/>
<polygon fill="black" stroke="black" points="373.12,-135.74 367.06,-127.05 366.38,-137.62 373.12,-135.74"/>
</g>
<!-- Vector::empty -->
<g id="node12" class="node">
<title>Vector::empty</title>
<ellipse fill="none" stroke="black" cx="492" cy="-192" rx="33.29" ry="18"/>
<text text-anchor="middle" x="492" y="-188.3" font-family="Times,serif" font-size="14.00">empty</text>
</g>
<!-- publish_preburn_queue&#45;&gt;Vector::empty -->
<g id="edge14" class="edge">
<title>publish_preburn_queue&#45;&gt;Vector::empty</title>
<path fill="none" stroke="black" d="M429.73,-250.34C435.03,-247.52 440.28,-244.39 445,-241 454.87,-233.92 464.49,-224.66 472.42,-216.17"/>
<polygon fill="black" stroke="black" points="475.09,-218.43 479.2,-208.66 469.9,-213.74 475.09,-218.43"/>
</g>
<!-- assert_is_currency -->
<g id="node13" class="node">
<title>assert_is_currency</title>
<ellipse fill="none" stroke="black" cx="665" cy="-192" rx="76.09" ry="18"/>
<text text-anchor="middle" x="665" y="-188.3" font-family="Times,serif" font-size="14.00">assert_is_currency</text>
</g>
<!-- publish_preburn_queue&#45;&gt;assert_is_currency -->
<g id="edge15" class="edge">
<title>publish_preburn_queue&#45;&gt;assert_is_currency</title>
<path fill="none" stroke="black" d="M466.84,-255.9C489.54,-252.07 514.47,-247.12 537,-241 565.51,-233.25 596.56,-221.69 620.93,-211.86"/>
<polygon fill="black" stroke="black" points="622.33,-215.07 630.27,-208.04 619.69,-208.59 622.33,-215.07"/>
</g>
<!-- Errors::make -->
<g id="node14" class="node">
<title>Errors::make</title>
<ellipse fill="none" stroke="black" cx="511" cy="-34" rx="30.59" ry="18"/>
<text text-anchor="middle" x="511" y="-30.3" font-family="Times,serif" font-size="14.00">make</text>
</g>
<!-- Errors::not_published&#45;&gt;Errors::make -->
<g id="edge16" class="edge">
<title>Errors::not_published&#45;&gt;Errors::make</title>
<path fill="none" stroke="black" d="M634.21,-93.4C607.94,-80.95 570.29,-63.1 543.53,-50.42"/>
<polygon fill="black" stroke="black" points="544.75,-47.12 534.21,-46 541.75,-53.45 544.75,-47.12"/>
</g>
<!-- Errors::requires_role&#45;&gt;Errors::make -->
<g id="edge17" class="edge">
<title>Errors::requires_role&#45;&gt;Errors::make</title>
<path fill="none" stroke="black" d="M273.53,-96.91C328.03,-82.7 421.65,-58.29 473.57,-44.76"/>
<polygon fill="black" stroke="black" points="474.58,-48.11 483.38,-42.2 472.82,-41.34 474.58,-48.11"/>
</g>
<!-- Errors::invalid_argument&#45;&gt;Errors::make -->
<g id="edge18" class="edge">
<title>Errors::invalid_argument&#45;&gt;Errors::make</title>
<path fill="none" stroke="black" d="M766.13,-95.86C704.98,-81.28 603.78,-57.13 549.02,-44.07"/>
<polygon fill="black" stroke="black" points="549.57,-40.6 539.03,-41.69 547.94,-47.41 549.57,-40.6"/>
</g>
<!-- Errors::already_published&#45;&gt;Errors::make -->
<g id="edge19" class="edge">
<title>Errors::already_published&#45;&gt;Errors::make</title>
<path fill="none" stroke="black" d="M511,-90.7C511,-82.25 511,-71.87 511,-62.37"/>
<polygon fill="black" stroke="black" points="514.5,-62.18 511,-52.18 507.5,-62.18 514.5,-62.18"/>
</g>
<!-- Errors::invalid_state&#45;&gt;Errors::make -->
<g id="edge20" class="edge">
<title>Errors::invalid_state&#45;&gt;Errors::make</title>
<path fill="none" stroke="black" d="M391.44,-93.58C416.67,-81.22 452.94,-63.45 478.91,-50.72"/>
<polygon fill="black" stroke="black" points="480.53,-53.83 487.97,-46.28 477.45,-47.54 480.53,-53.83"/>
</g>
<!-- assert_is_currency&#45;&gt;Errors::not_published -->
<g id="edge21" class="edge">
<title>assert_is_currency&#45;&gt;Errors::not_published</title>
<path fill="none" stroke="black" d="M665,-173.82C665,-163.19 665,-149.31 665,-137.2"/>
<polygon fill="black" stroke="black" points="668.5,-137.15 665,-127.15 661.5,-137.15 668.5,-137.15"/>
</g>
<!-- is_currency -->
<g id="node15" class="node">
<title>is_currency</title>
<ellipse fill="none" stroke="black" cx="1001" cy="-109" rx="51.99" ry="18"/>
<text text-anchor="middle" x="1001" y="-105.3" font-family="Times,serif" font-size="14.00">is_currency</text>
</g>
<!-- assert_is_currency&#45;&gt;is_currency -->
<g id="edge22" class="edge">
<title>assert_is_currency&#45;&gt;is_currency</title>
<path fill="none" stroke="black" d="M706.54,-176.83C720.51,-172.63 736.28,-168.49 751,-166 817.26,-154.77 836.92,-174.77 902,-158 925.1,-152.05 949.23,-140.48 967.88,-130.19"/>
<polygon fill="black" stroke="black" points="969.86,-133.09 976.83,-125.12 966.4,-127 969.86,-133.09"/>
</g>
<!-- CoreAddresses::CURRENCY_INFO_ADDRESS -->
<g id="node16" class="node">
<title>CoreAddresses::CURRENCY_INFO_ADDRESS</title>
<ellipse fill="none" stroke="black" cx="1042" cy="-34" rx="128.08" ry="18"/>
<text text-anchor="middle" x="1042" y="-30.3" font-family="Times,serif" font-size="14.00">CURRENCY_INFO_ADDRESS</text>
</g>
<!-- is_currency&#45;&gt;CoreAddresses::CURRENCY_INFO_ADDRESS -->
<g id="edge23" class="edge">
<title>is_currency&#45;&gt;CoreAddresses::CURRENCY_INFO_ADDRESS</title>
<path fill="none" stroke="black" d="M1010.51,-91.07C1015.54,-82.1 1021.84,-70.9 1027.47,-60.87"/>
<polygon fill="black" stroke="black" points="1030.55,-62.53 1032.4,-52.09 1024.45,-59.1 1030.55,-62.53"/>
</g>
</g>
</svg>
