<?xml version="1.0" encoding="UTF-8" standalone="no"?>
<!DOCTYPE svg PUBLIC "-//W3C//DTD SVG 1.1//EN"
 "http://www.w3.org/Graphics/SVG/1.1/DTD/svg11.dtd">
<!-- Generated by graphviz version 2.46.1 (20210213.1702)
 -->
<!-- Title: G Pages: 1 -->
<svg width="398pt" height="188pt"
 viewBox="0.00 0.00 398.24 188.00" xmlns="http://www.w3.org/2000/svg" xmlns:xlink="http://www.w3.org/1999/xlink">
<g id="graph0" class="graph" transform="scale(1 1) rotate(0) translate(4 184)">
<title>G</title>
<polygon fill="white" stroke="transparent" points="-4,4 -4,-184 394.24,-184 394.24,4 -4,4"/>
<!-- DiemSystem -->
<g id="node1" class="node">
<title>DiemSystem</title>
<ellipse fill="none" stroke="black" cx="78.35" cy="-18" rx="57.39" ry="18"/>
<text text-anchor="middle" x="78.35" y="-14.3" font-family="Times,serif" font-size="14.00">DiemSystem</text>
</g>
<!-- DiemBlock -->
<g id="node2" class="node">
<title>DiemBlock</title>
<ellipse fill="none" stroke="black" cx="78.35" cy="-90" rx="51.99" ry="18"/>
<text text-anchor="middle" x="78.35" y="-86.3" font-family="Times,serif" font-size="14.00">DiemBlock</text>
</g>
<!-- DiemBlock&#45;&gt;DiemSystem -->
<g id="edge1" class="edge">
<title>DiemBlock&#45;&gt;DiemSystem</title>
<path fill="none" stroke="black" d="M78.35,-71.7C78.35,-63.98 78.35,-54.71 78.35,-46.11"/>
<polygon fill="black" stroke="black" points="81.85,-46.1 78.35,-36.1 74.85,-46.1 81.85,-46.1"/>
</g>
<!-- Genesis -->
<g id="node3" class="node">
<title>Genesis</title>
<ellipse fill="none" stroke="black" cx="38.35" cy="-162" rx="38.19" ry="18"/>
<text text-anchor="middle" x="38.35" y="-158.3" font-family="Times,serif" font-size="14.00">Genesis</text>
</g>
<!-- Genesis&#45;&gt;DiemSystem -->
<g id="edge2" class="edge">
<title>Genesis&#45;&gt;DiemSystem</title>
<path fill="none" stroke="black" d="M28.15,-144.29C18.35,-125.92 6.48,-95.83 17.35,-72 23.1,-59.39 33.5,-48.61 44.1,-40.14"/>
<polygon fill="black" stroke="black" points="46.25,-42.9 52.17,-34.12 42.06,-37.29 46.25,-42.9"/>
</g>
<!-- Genesis&#45;&gt;DiemBlock -->
<g id="edge4" class="edge">
<title>Genesis&#45;&gt;DiemBlock</title>
<path fill="none" stroke="black" d="M47.83,-144.41C52.54,-136.16 58.34,-126.01 63.62,-116.78"/>
<polygon fill="black" stroke="black" points="66.73,-118.38 68.66,-107.96 60.66,-114.9 66.73,-118.38"/>
</g>
<!-- ValidatorAdministrationScripts -->
<g id="node4" class="node">
<title>ValidatorAdministrationScripts</title>
<ellipse fill="none" stroke="black" cx="269.35" cy="-90" rx="120.78" ry="18"/>
<text text-anchor="middle" x="269.35" y="-86.3" font-family="Times,serif" font-size="14.00">ValidatorAdministrationScripts</text>
</g>
<!-- ValidatorAdministrationScripts&#45;&gt;DiemSystem -->
<g id="edge3" class="edge">
<title>ValidatorAdministrationScripts&#45;&gt;DiemSystem</title>
<path fill="none" stroke="black" d="M226.01,-73.12C195.52,-61.94 154.79,-47.02 123.84,-35.67"/>
<polygon fill="black" stroke="black" points="124.75,-32.28 114.15,-32.12 122.34,-38.85 124.75,-32.28"/>
</g>
</g>
</svg>
