<?xml version="1.0" encoding="UTF-8" standalone="no"?>
<!DOCTYPE svg PUBLIC "-//W3C//DTD SVG 1.1//EN"
 "http://www.w3.org/Graphics/SVG/1.1/DTD/svg11.dtd">
<!-- Generated by graphviz version 2.46.1 (20210213.1702)
 -->
<!-- Title: G Pages: 1 -->
<svg width="2968pt" height="520pt"
 viewBox="0.00 0.00 2968.00 520.00" xmlns="http://www.w3.org/2000/svg" xmlns:xlink="http://www.w3.org/1999/xlink">
<g id="graph0" class="graph" transform="scale(1 1) rotate(0) translate(4 516)">
<title>G</title>
<polygon fill="white" stroke="transparent" points="-4,4 -4,-516 2964,-516 2964,4 -4,4"/>
<g id="clust1" class="cluster">
<title>cluster_CoreAddresses</title>
<polygon fill="none" stroke="black" points="222,-152 222,-310 1105,-310 1105,-152 222,-152"/>
<text text-anchor="middle" x="663.5" y="-294.8" font-family="Times,serif" font-size="14.00">CoreAddresses</text>
</g>
<g id="clust2" class="cluster">
<title>cluster_DiemTimestamp</title>
<polygon fill="none" stroke="black" points="8,-235 8,-393 146,-393 146,-235 8,-235"/>
<text text-anchor="middle" x="77" y="-377.8" font-family="Times,serif" font-size="14.00">DiemTimestamp</text>
</g>
<g id="clust3" class="cluster">
<title>cluster_SlidingNonce</title>
<polygon fill="none" stroke="black" points="1868,-235 1868,-310 1959,-310 1959,-235 1868,-235"/>
<text text-anchor="middle" x="1913.5" y="-294.8" font-family="Times,serif" font-size="14.00">SlidingNonce</text>
</g>
<g id="clust4" class="cluster">
<title>cluster_Roles</title>
<polygon fill="none" stroke="black" points="1185,-318 1185,-468 1570,-468 1570,-318 1185,-318"/>
<text text-anchor="middle" x="1377.5" y="-452.8" font-family="Times,serif" font-size="14.00">Roles</text>
</g>
<g id="clust5" class="cluster">
<title>cluster_Event</title>
<polygon fill="none" stroke="black" points="2334,-235 2334,-393 2788,-393 2788,-235 2334,-235"/>
<text text-anchor="middle" x="2561" y="-377.8" font-family="Times,serif" font-size="14.00">Event</text>
</g>
<g id="clust6" class="cluster">
<title>cluster_Errors</title>
<polygon fill="none" stroke="black" points="1113,-80 1113,-227 2003,-227 2003,-80 1113,-80"/>
<text text-anchor="middle" x="1558" y="-211.8" font-family="Times,serif" font-size="14.00">Errors</text>
</g>
<g id="clust7" class="cluster">
<title>cluster_Signer</title>
<polygon fill="none" stroke="black" points="2011,-80 2011,-227 2161,-227 2161,-80 2011,-80"/>
<text text-anchor="middle" x="2086" y="-211.8" font-family="Times,serif" font-size="14.00">Signer</text>
</g>
<g id="clust8" class="cluster">
<title>cluster_Option</title>
<polygon fill="none" stroke="black" points="2162,-318 2162,-393 2238,-393 2238,-318 2162,-318"/>
<text text-anchor="middle" x="2200" y="-377.8" font-family="Times,serif" font-size="14.00">Option</text>
</g>
<g id="clust9" class="cluster">
<title>cluster_AccountFreezing</title>
<polygon fill="none" stroke="black" points="1684,-235 1684,-310 1794,-310 1794,-235 1684,-235"/>
<text text-anchor="middle" x="1739" y="-294.8" font-family="Times,serif" font-size="14.00">AccountFreezing</text>
</g>
<g id="clust10" class="cluster">
<title>cluster_Vector</title>
<polygon fill="none" stroke="black" points="2203,-8 2203,-227 2848,-227 2848,-8 2203,-8"/>
<text text-anchor="middle" x="2525.5" y="-211.8" font-family="Times,serif" font-size="14.00">Vector</text>
</g>
<g id="clust11" class="cluster">
<title>cluster_BCS</title>
<polygon fill="none" stroke="black" points="2856,-152 2856,-227 2952,-227 2952,-152 2856,-152"/>
<text text-anchor="middle" x="2904" y="-211.8" font-family="Times,serif" font-size="14.00">BCS</text>
</g>
<!-- create_treasury_compliance_account -->
<g id="node1" class="node">
<title>create_treasury_compliance_account</title>
<ellipse fill="none" stroke="black" cx="1681" cy="-494" rx="141.88" ry="18"/>
<text text-anchor="middle" x="1681" y="-490.3" font-family="Times,serif" font-size="14.00">create_treasury_compliance_account</text>
</g>
<!-- CoreAddresses::TREASURY_COMPLIANCE_ADDRESS -->
<g id="node2" class="node">
<title>CoreAddresses::TREASURY_COMPLIANCE_ADDRESS</title>
<ellipse fill="none" stroke="black" cx="625" cy="-178" rx="163.27" ry="18"/>
<text text-anchor="middle" x="625" y="-174.3" font-family="Times,serif" font-size="14.00">TREASURY_COMPLIANCE_ADDRESS</text>
</g>
<!-- create_treasury_compliance_account&#45;&gt;CoreAddresses::TREASURY_COMPLIANCE_ADDRESS -->
<g id="edge1" class="edge">
<title>create_treasury_compliance_account&#45;&gt;CoreAddresses::TREASURY_COMPLIANCE_ADDRESS</title>
<path fill="none" stroke="black" d="M1542.19,-490.27C1441.66,-487.27 1302.64,-481.01 1181,-468 966.02,-445.01 360.92,-474.83 221,-310 199.43,-284.59 197.84,-258.97 221,-235 229.96,-225.72 440.25,-228.97 453,-227 492.32,-220.92 535.44,-208.88 568.67,-198.37"/>
<polygon fill="black" stroke="black" points="569.76,-201.7 578.21,-195.32 567.62,-195.04 569.76,-201.7"/>
</g>
<!-- DiemTimestamp::assert_genesis -->
<g id="node3" class="node">
<title>DiemTimestamp::assert_genesis</title>
<ellipse fill="none" stroke="black" cx="77" cy="-344" rx="61.19" ry="18"/>
<text text-anchor="middle" x="77" y="-340.3" font-family="Times,serif" font-size="14.00">assert_genesis</text>
</g>
<!-- create_treasury_compliance_account&#45;&gt;DiemTimestamp::assert_genesis -->
<g id="edge2" class="edge">
<title>create_treasury_compliance_account&#45;&gt;DiemTimestamp::assert_genesis</title>
<path fill="none" stroke="black" d="M1539.7,-492.49C1166.67,-490.9 181.86,-485.09 152,-468 115.88,-447.33 95.03,-401.57 84.86,-372.07"/>
<polygon fill="black" stroke="black" points="88.13,-370.8 81.7,-362.38 81.47,-372.97 88.13,-370.8"/>
</g>
<!-- SlidingNonce::publish -->
<g id="node4" class="node">
<title>SlidingNonce::publish</title>
<ellipse fill="none" stroke="black" cx="1914" cy="-261" rx="36.29" ry="18"/>
<text text-anchor="middle" x="1914" y="-257.3" font-family="Times,serif" font-size="14.00">publish</text>
</g>
<!-- create_treasury_compliance_account&#45;&gt;SlidingNonce::publish -->
<g id="edge3" class="edge">
<title>create_treasury_compliance_account&#45;&gt;SlidingNonce::publish</title>
<path fill="none" stroke="black" d="M1813.93,-487.63C1871.15,-483.92 1927.09,-477.82 1936,-468 1981.37,-417.96 1948.34,-330.48 1927.51,-287.42"/>
<polygon fill="black" stroke="black" points="1930.63,-285.83 1923.04,-278.45 1924.37,-288.96 1930.63,-285.83"/>
</g>
<!-- Roles::assert_diem_root -->
<g id="node5" class="node">
<title>Roles::assert_diem_root</title>
<ellipse fill="none" stroke="black" cx="1379" cy="-344" rx="71.49" ry="18"/>
<text text-anchor="middle" x="1379" y="-340.3" font-family="Times,serif" font-size="14.00">assert_diem_root</text>
</g>
<!-- create_treasury_compliance_account&#45;&gt;Roles::assert_diem_root -->
<g id="edge4" class="edge">
<title>create_treasury_compliance_account&#45;&gt;Roles::assert_diem_root</title>
<path fill="none" stroke="black" d="M1700.43,-475.91C1702.28,-473.45 1703.88,-470.79 1705,-468 1716.11,-440.37 1725.71,-422.4 1705,-401 1695.49,-391.18 1472.12,-396.86 1459,-393 1440.86,-387.66 1422.62,-377.2 1408.15,-367.41"/>
<polygon fill="black" stroke="black" points="1409.86,-364.33 1399.66,-361.45 1405.84,-370.06 1409.86,-364.33"/>
</g>
<!-- Roles::grant_treasury_compliance_role -->
<g id="node6" class="node">
<title>Roles::grant_treasury_compliance_role</title>
<ellipse fill="none" stroke="black" cx="1437" cy="-419" rx="124.58" ry="18"/>
<text text-anchor="middle" x="1437" y="-415.3" font-family="Times,serif" font-size="14.00">grant_treasury_compliance_role</text>
</g>
<!-- create_treasury_compliance_account&#45;&gt;Roles::grant_treasury_compliance_role -->
<g id="edge5" class="edge">
<title>create_treasury_compliance_account&#45;&gt;Roles::grant_treasury_compliance_role</title>
<path fill="none" stroke="black" d="M1610.55,-478.32C1597.34,-475.19 1583.69,-471.7 1571,-468 1543.04,-459.85 1512.42,-449.03 1487.52,-439.73"/>
<polygon fill="black" stroke="black" points="1488.52,-436.36 1477.93,-436.11 1486.05,-442.91 1488.52,-436.36"/>
</g>
<!-- Event::publish_generator -->
<g id="node7" class="node">
<title>Event::publish_generator</title>
<ellipse fill="none" stroke="black" cx="2588" cy="-344" rx="74.19" ry="18"/>
<text text-anchor="middle" x="2588" y="-340.3" font-family="Times,serif" font-size="14.00">publish_generator</text>
</g>
<!-- create_treasury_compliance_account&#45;&gt;Event::publish_generator -->
<g id="edge6" class="edge">
<title>create_treasury_compliance_account&#45;&gt;Event::publish_generator</title>
<path fill="none" stroke="black" d="M1814.3,-487.86C1889.06,-484.11 1983.92,-477.9 2068,-468 2263.71,-444.95 2319.69,-460.04 2505,-393 2522.89,-386.53 2541.35,-376.27 2556.3,-366.89"/>
<polygon fill="black" stroke="black" points="2558.61,-369.57 2565.12,-361.21 2554.82,-363.68 2558.61,-369.57"/>
</g>
<!-- create_signer -->
<g id="node8" class="node">
<title>create_signer</title>
<ellipse fill="none" stroke="black" cx="1638" cy="-419" rx="57.69" ry="18"/>
<text text-anchor="middle" x="1638" y="-415.3" font-family="Times,serif" font-size="14.00">create_signer</text>
</g>
<!-- create_treasury_compliance_account&#45;&gt;create_signer -->
<g id="edge7" class="edge">
<title>create_treasury_compliance_account&#45;&gt;create_signer</title>
<path fill="none" stroke="black" d="M1670.81,-475.7C1665.52,-466.73 1658.96,-455.59 1653.1,-445.63"/>
<polygon fill="black" stroke="black" points="1656.06,-443.76 1647.97,-436.92 1650.03,-447.32 1656.06,-443.76"/>
</g>
<!-- make_account -->
<g id="node9" class="node">
<title>make_account</title>
<ellipse fill="none" stroke="black" cx="1865" cy="-419" rx="61.99" ry="18"/>
<text text-anchor="middle" x="1865" y="-415.3" font-family="Times,serif" font-size="14.00">make_account</text>
</g>
<!-- create_treasury_compliance_account&#45;&gt;make_account -->
<g id="edge8" class="edge">
<title>create_treasury_compliance_account&#45;&gt;make_account</title>
<path fill="none" stroke="black" d="M1722.29,-476.62C1751.55,-465.01 1790.75,-449.46 1820.67,-437.59"/>
<polygon fill="black" stroke="black" points="1822.03,-440.81 1830.03,-433.87 1819.44,-434.31 1822.03,-440.81"/>
</g>
<!-- Errors::invalid_state -->
<g id="node10" class="node">
<title>Errors::invalid_state</title>
<ellipse fill="none" stroke="black" cx="1334" cy="-178" rx="55.79" ry="18"/>
<text text-anchor="middle" x="1334" y="-174.3" font-family="Times,serif" font-size="14.00">invalid_state</text>
</g>
<!-- DiemTimestamp::assert_genesis&#45;&gt;Errors::invalid_state -->
<g id="edge9" class="edge">
<title>DiemTimestamp::assert_genesis&#45;&gt;Errors::invalid_state</title>
<path fill="none" stroke="black" d="M138.21,-342.61C345.8,-341.09 1015.36,-334.31 1109,-310 1187.63,-289.59 1266.75,-233.28 1306.92,-201.53"/>
<polygon fill="black" stroke="black" points="1309.26,-204.13 1314.88,-195.15 1304.89,-198.67 1309.26,-204.13"/>
</g>
<!-- DiemTimestamp::is_genesis -->
<g id="node11" class="node">
<title>DiemTimestamp::is_genesis</title>
<ellipse fill="none" stroke="black" cx="83" cy="-261" rx="46.59" ry="18"/>
<text text-anchor="middle" x="83" y="-257.3" font-family="Times,serif" font-size="14.00">is_genesis</text>
</g>
<!-- DiemTimestamp::assert_genesis&#45;&gt;DiemTimestamp::is_genesis -->
<g id="edge10" class="edge">
<title>DiemTimestamp::assert_genesis&#45;&gt;DiemTimestamp::is_genesis</title>
<path fill="none" stroke="black" d="M78.27,-325.82C79.06,-315.19 80.09,-301.31 80.98,-289.2"/>
<polygon fill="black" stroke="black" points="84.48,-289.38 81.73,-279.15 77.5,-288.87 84.48,-289.38"/>
</g>
<!-- Signer::address_of -->
<g id="node12" class="node">
<title>Signer::address_of</title>
<ellipse fill="none" stroke="black" cx="2068" cy="-178" rx="48.99" ry="18"/>
<text text-anchor="middle" x="2068" y="-174.3" font-family="Times,serif" font-size="14.00">address_of</text>
</g>
<!-- SlidingNonce::publish&#45;&gt;Signer::address_of -->
<g id="edge11" class="edge">
<title>SlidingNonce::publish&#45;&gt;Signer::address_of</title>
<path fill="none" stroke="black" d="M1936.82,-246.9C1945.16,-242.58 1954.8,-238.09 1964,-235 1982.43,-228.82 1989.29,-235.02 2007,-227 2020.5,-220.89 2033.66,-211.17 2044.28,-202.07"/>
<polygon fill="black" stroke="black" points="2046.73,-204.57 2051.86,-195.3 2042.07,-199.35 2046.73,-204.57"/>
</g>
<!-- Errors::already_published -->
<g id="node13" class="node">
<title>Errors::already_published</title>
<ellipse fill="none" stroke="black" cx="1755" cy="-178" rx="75.29" ry="18"/>
<text text-anchor="middle" x="1755" y="-174.3" font-family="Times,serif" font-size="14.00">already_published</text>
</g>
<!-- SlidingNonce::publish&#45;&gt;Errors::already_published -->
<g id="edge12" class="edge">
<title>SlidingNonce::publish&#45;&gt;Errors::already_published</title>
<path fill="none" stroke="black" d="M1890.16,-247.22C1881.98,-243.06 1872.7,-238.6 1864,-235 1853.61,-230.7 1850.28,-231.56 1840,-227 1822.81,-219.37 1804.55,-209.33 1789.38,-200.41"/>
<polygon fill="black" stroke="black" points="1790.75,-197.15 1780.37,-195.03 1787.17,-203.17 1790.75,-197.15"/>
</g>
<!-- Roles::assert_diem_root&#45;&gt;Signer::address_of -->
<g id="edge13" class="edge">
<title>Roles::assert_diem_root&#45;&gt;Signer::address_of</title>
<path fill="none" stroke="black" d="M1413.46,-328.18C1425.74,-322.7 1439.59,-316.29 1452,-310 1512.53,-279.33 1519.53,-252.85 1585,-235 1630.25,-222.66 1962.83,-242.76 2007,-227 2021.36,-221.87 2034.94,-211.9 2045.63,-202.37"/>
<polygon fill="black" stroke="black" points="2048.32,-204.65 2053.21,-195.25 2043.52,-199.55 2048.32,-204.65"/>
</g>
<!-- Errors::not_published -->
<g id="node14" class="node">
<title>Errors::not_published</title>
<ellipse fill="none" stroke="black" cx="1601" cy="-178" rx="60.39" ry="18"/>
<text text-anchor="middle" x="1601" y="-174.3" font-family="Times,serif" font-size="14.00">not_published</text>
</g>
<!-- Roles::assert_diem_root&#45;&gt;Errors::not_published -->
<g id="edge14" class="edge">
<title>Roles::assert_diem_root&#45;&gt;Errors::not_published</title>
<path fill="none" stroke="black" d="M1389,-325.76C1404.3,-301.11 1436.01,-256.42 1476,-235 1497.78,-223.34 1507.99,-236 1531,-227 1546.5,-220.94 1561.95,-210.88 1574.37,-201.54"/>
<polygon fill="black" stroke="black" points="1576.72,-204.15 1582.45,-195.24 1572.41,-198.63 1576.72,-204.15"/>
</g>
<!-- Errors::requires_role -->
<g id="node15" class="node">
<title>Errors::requires_role</title>
<ellipse fill="none" stroke="black" cx="1465" cy="-178" rx="57.39" ry="18"/>
<text text-anchor="middle" x="1465" y="-174.3" font-family="Times,serif" font-size="14.00">requires_role</text>
</g>
<!-- Roles::assert_diem_root&#45;&gt;Errors::requires_role -->
<g id="edge15" class="edge">
<title>Roles::assert_diem_root&#45;&gt;Errors::requires_role</title>
<path fill="none" stroke="black" d="M1376.69,-325.64C1374.56,-303.17 1373.83,-263.53 1390,-235 1391.43,-232.47 1414.75,-215.23 1435.01,-200.54"/>
<polygon fill="black" stroke="black" points="1437.09,-203.36 1443.14,-194.66 1432.99,-197.68 1437.09,-203.36"/>
</g>
<!-- CoreAddresses::assert_diem_root -->
<g id="node16" class="node">
<title>CoreAddresses::assert_diem_root</title>
<ellipse fill="none" stroke="black" cx="537" cy="-261" rx="71.49" ry="18"/>
<text text-anchor="middle" x="537" y="-257.3" font-family="Times,serif" font-size="14.00">assert_diem_root</text>
</g>
<!-- Roles::assert_diem_root&#45;&gt;CoreAddresses::assert_diem_root -->
<g id="edge16" class="edge">
<title>Roles::assert_diem_root&#45;&gt;CoreAddresses::assert_diem_root</title>
<path fill="none" stroke="black" d="M1339.3,-328.87C1325.18,-324.51 1309.06,-320.26 1294,-318 1256.8,-312.42 653.19,-320.25 617,-310 598.67,-304.81 580.3,-294.26 565.8,-284.37"/>
<polygon fill="black" stroke="black" points="567.48,-281.27 557.3,-278.35 563.44,-286.98 567.48,-281.27"/>
</g>
<!-- Roles::grant_treasury_compliance_role&#45;&gt;DiemTimestamp::assert_genesis -->
<g id="edge18" class="edge">
<title>Roles::grant_treasury_compliance_role&#45;&gt;DiemTimestamp::assert_genesis</title>
<path fill="none" stroke="black" d="M1350.9,-405.95C1335.31,-404.07 1319.19,-402.32 1304,-401 1189,-391.04 390.84,-357.87 147.36,-347.88"/>
<polygon fill="black" stroke="black" points="147.35,-344.37 137.21,-347.46 147.06,-351.37 147.35,-344.37"/>
</g>
<!-- Roles::grant_treasury_compliance_role&#45;&gt;Roles::assert_diem_root -->
<g id="edge19" class="edge">
<title>Roles::grant_treasury_compliance_role&#45;&gt;Roles::assert_diem_root</title>
<path fill="none" stroke="black" d="M1423.55,-401.07C1416.15,-391.76 1406.85,-380.05 1398.65,-369.74"/>
<polygon fill="black" stroke="black" points="1401.34,-367.49 1392.38,-361.84 1395.86,-371.85 1401.34,-367.49"/>
</g>
<!-- CoreAddresses::assert_treasury_compliance -->
<g id="node17" class="node">
<title>CoreAddresses::assert_treasury_compliance</title>
<ellipse fill="none" stroke="black" cx="339" cy="-261" rx="108.58" ry="18"/>
<text text-anchor="middle" x="339" y="-257.3" font-family="Times,serif" font-size="14.00">assert_treasury_compliance</text>
</g>
<!-- Roles::grant_treasury_compliance_role&#45;&gt;CoreAddresses::assert_treasury_compliance -->
<g id="edge17" class="edge">
<title>Roles::grant_treasury_compliance_role&#45;&gt;CoreAddresses::assert_treasury_compliance</title>
<path fill="none" stroke="black" d="M1347.96,-406.37C1333.28,-404.52 1318.22,-402.67 1304,-401 927.98,-356.77 824.15,-402.45 457,-310 430.92,-303.43 402.98,-292.27 380.84,-282.36"/>
<polygon fill="black" stroke="black" points="382.28,-279.17 371.73,-278.21 379.38,-285.54 382.28,-279.17"/>
</g>
<!-- Roles::grant_role -->
<g id="node18" class="node">
<title>Roles::grant_role</title>
<ellipse fill="none" stroke="black" cx="1515" cy="-344" rx="46.59" ry="18"/>
<text text-anchor="middle" x="1515" y="-340.3" font-family="Times,serif" font-size="14.00">grant_role</text>
</g>
<!-- Roles::grant_treasury_compliance_role&#45;&gt;Roles::grant_role -->
<g id="edge20" class="edge">
<title>Roles::grant_treasury_compliance_role&#45;&gt;Roles::grant_role</title>
<path fill="none" stroke="black" d="M1455.09,-401.07C1465.62,-391.21 1479.04,-378.65 1490.51,-367.92"/>
<polygon fill="black" stroke="black" points="1493.17,-370.23 1498.08,-360.84 1488.38,-365.12 1493.17,-370.23"/>
</g>
<!-- Event::publish_generator&#45;&gt;Signer::address_of -->
<g id="edge21" class="edge">
<title>Event::publish_generator&#45;&gt;Signer::address_of</title>
<path fill="none" stroke="black" d="M2548.41,-328.66C2534.83,-324.4 2519.42,-320.26 2505,-318 2493.14,-316.14 2081.57,-318.4 2073,-310 2045.82,-283.34 2052.02,-235.59 2059.59,-205.69"/>
<polygon fill="black" stroke="black" points="2063,-206.5 2062.27,-195.93 2056.25,-204.64 2063,-206.5"/>
</g>
<!-- Event::publish_generator&#45;&gt;Errors::already_published -->
<g id="edge22" class="edge">
<title>Event::publish_generator&#45;&gt;Errors::already_published</title>
<path fill="none" stroke="black" d="M2548.42,-328.61C2534.84,-324.34 2519.43,-320.22 2505,-318 2487.4,-315.29 1878.85,-319.82 1864,-310 1833.63,-289.91 1853.76,-263.43 1831,-235 1820.24,-221.57 1805.53,-209.73 1791.91,-200.44"/>
<polygon fill="black" stroke="black" points="1793.45,-197.27 1783.17,-194.72 1789.61,-203.13 1793.45,-197.27"/>
</g>
<!-- make_account&#45;&gt;Signer::address_of -->
<g id="edge23" class="edge">
<title>make_account&#45;&gt;Signer::address_of</title>
<path fill="none" stroke="black" d="M1901.84,-404.35C1907.94,-401.17 1913.92,-397.39 1919,-393 1982.39,-338.15 1972.43,-302.6 2022,-235 2029.9,-224.22 2039.17,-212.74 2047.31,-203"/>
<polygon fill="black" stroke="black" points="2050.05,-205.18 2053.82,-195.28 2044.7,-200.67 2050.05,-205.18"/>
</g>
<!-- make_account&#45;&gt;Errors::not_published -->
<g id="edge25" class="edge">
<title>make_account&#45;&gt;Errors::not_published</title>
<path fill="none" stroke="black" d="M1809.51,-410.94C1783.82,-407.76 1752.87,-404.03 1725,-401 1706.58,-398.99 1655.7,-405.48 1642,-393 1614.91,-368.33 1605.34,-258.45 1602.29,-206.45"/>
<polygon fill="black" stroke="black" points="1605.77,-206.08 1601.73,-196.29 1598.78,-206.46 1605.77,-206.08"/>
</g>
<!-- Errors::invalid_argument -->
<g id="node19" class="node">
<title>Errors::invalid_argument</title>
<ellipse fill="none" stroke="black" cx="1922" cy="-178" rx="73.39" ry="18"/>
<text text-anchor="middle" x="1922" y="-174.3" font-family="Times,serif" font-size="14.00">invalid_argument</text>
</g>
<!-- make_account&#45;&gt;Errors::invalid_argument -->
<g id="edge24" class="edge">
<title>make_account&#45;&gt;Errors::invalid_argument</title>
<path fill="none" stroke="black" d="M1809.44,-411.13C1757.36,-404.56 1687.15,-395.32 1685,-393 1637.29,-341.43 1631.58,-285.91 1680,-235 1692.19,-222.18 1822.04,-232.01 1839,-227 1857.82,-221.44 1876.9,-210.83 1892.02,-200.99"/>
<polygon fill="black" stroke="black" points="1894.08,-203.82 1900.43,-195.33 1890.18,-198.01 1894.08,-203.82"/>
</g>
<!-- CoreAddresses::CORE_CODE_ADDRESS -->
<g id="node20" class="node">
<title>CoreAddresses::CORE_CODE_ADDRESS</title>
<ellipse fill="none" stroke="black" cx="990" cy="-261" rx="106.68" ry="18"/>
<text text-anchor="middle" x="990" y="-257.3" font-family="Times,serif" font-size="14.00">CORE_CODE_ADDRESS</text>
</g>
<!-- make_account&#45;&gt;CoreAddresses::CORE_CODE_ADDRESS -->
<g id="edge26" class="edge">
<title>make_account&#45;&gt;CoreAddresses::CORE_CODE_ADDRESS</title>
<path fill="none" stroke="black" d="M1870.29,-400.74C1875.99,-378.3 1881.57,-339.45 1860,-318 1852.9,-310.94 1689.99,-310.57 1680,-310 1472.46,-298.17 1230.08,-280.39 1094.89,-270.12"/>
<polygon fill="black" stroke="black" points="1094.78,-266.6 1084.54,-269.33 1094.25,-273.58 1094.78,-266.6"/>
</g>
<!-- CoreAddresses::DIEM_ROOT_ADDRESS -->
<g id="node21" class="node">
<title>CoreAddresses::DIEM_ROOT_ADDRESS</title>
<ellipse fill="none" stroke="black" cx="337" cy="-178" rx="106.68" ry="18"/>
<text text-anchor="middle" x="337" y="-174.3" font-family="Times,serif" font-size="14.00">DIEM_ROOT_ADDRESS</text>
</g>
<!-- make_account&#45;&gt;CoreAddresses::DIEM_ROOT_ADDRESS -->
<g id="edge27" class="edge">
<title>make_account&#45;&gt;CoreAddresses::DIEM_ROOT_ADDRESS</title>
<path fill="none" stroke="black" d="M1861.01,-401.03C1854.53,-375.14 1841.04,-327.74 1827,-318 1808.67,-305.29 236.73,-325.81 221,-310 197.49,-286.37 203.28,-263.23 221,-235 231.93,-217.58 249.98,-205.45 268.62,-197.06"/>
<polygon fill="black" stroke="black" points="270.2,-200.19 278.09,-193.11 267.51,-193.73 270.2,-200.19"/>
</g>
<!-- CoreAddresses::VM_RESERVED_ADDRESS -->
<g id="node22" class="node">
<title>CoreAddresses::VM_RESERVED_ADDRESS</title>
<ellipse fill="none" stroke="black" cx="746" cy="-261" rx="119.68" ry="18"/>
<text text-anchor="middle" x="746" y="-257.3" font-family="Times,serif" font-size="14.00">VM_RESERVED_ADDRESS</text>
</g>
<!-- make_account&#45;&gt;CoreAddresses::VM_RESERVED_ADDRESS -->
<g id="edge28" class="edge">
<title>make_account&#45;&gt;CoreAddresses::VM_RESERVED_ADDRESS</title>
<path fill="none" stroke="black" d="M1809.88,-410.68C1784.12,-407.42 1753.03,-403.71 1725,-401 1712.69,-399.81 1624.37,-399.74 1614,-393 1582.33,-372.41 1606.28,-337.62 1574,-318 1557.38,-307.9 893.11,-313.58 874,-310 844.76,-304.52 813.46,-292.9 789.13,-282.46"/>
<polygon fill="black" stroke="black" points="790.4,-279.2 779.84,-278.39 787.59,-285.61 790.4,-279.2"/>
</g>
<!-- Roles::get_role_id -->
<g id="node23" class="node">
<title>Roles::get_role_id</title>
<ellipse fill="none" stroke="black" cx="1244" cy="-419" rx="50.89" ry="18"/>
<text text-anchor="middle" x="1244" y="-415.3" font-family="Times,serif" font-size="14.00">get_role_id</text>
</g>
<!-- make_account&#45;&gt;Roles::get_role_id -->
<g id="edge29" class="edge">
<title>make_account&#45;&gt;Roles::get_role_id</title>
<path fill="none" stroke="black" d="M1834.38,-434.74C1807.43,-447.65 1766.73,-464.91 1729,-472 1706.23,-476.28 1334.66,-476.81 1312,-472 1293.81,-468.14 1277.26,-455.55 1265.05,-443.61"/>
<polygon fill="black" stroke="black" points="1267.49,-441.1 1258.02,-436.34 1262.46,-445.96 1267.49,-441.1"/>
</g>
<!-- Event::emit_event -->
<g id="node24" class="node">
<title>Event::emit_event</title>
<ellipse fill="none" stroke="black" cx="2730" cy="-344" rx="50.09" ry="18"/>
<text text-anchor="middle" x="2730" y="-340.3" font-family="Times,serif" font-size="14.00">emit_event</text>
</g>
<!-- make_account&#45;&gt;Event::emit_event -->
<g id="edge30" class="edge">
<title>make_account&#45;&gt;Event::emit_event</title>
<path fill="none" stroke="black" d="M1926.73,-418.36C2103.29,-419.05 2602.09,-418.7 2671,-393 2684.8,-387.85 2697.78,-378.08 2708.03,-368.68"/>
<polygon fill="black" stroke="black" points="2710.54,-371.12 2715.31,-361.66 2705.68,-366.08 2710.54,-371.12"/>
</g>
<!-- Event::new_event_handle -->
<g id="node25" class="node">
<title>Event::new_event_handle</title>
<ellipse fill="none" stroke="black" cx="2419" cy="-344" rx="76.89" ry="18"/>
<text text-anchor="middle" x="2419" y="-340.3" font-family="Times,serif" font-size="14.00">new_event_handle</text>
</g>
<!-- make_account&#45;&gt;Event::new_event_handle -->
<g id="edge31" class="edge">
<title>make_account&#45;&gt;Event::new_event_handle</title>
<path fill="none" stroke="black" d="M1926.81,-417.65C2001.85,-416.37 2132.01,-411.37 2242,-393 2284.59,-385.89 2331.73,-372.84 2366.64,-362.14"/>
<polygon fill="black" stroke="black" points="2368.09,-365.36 2376.61,-359.05 2366.02,-358.67 2368.09,-365.36"/>
</g>
<!-- Option::some -->
<g id="node26" class="node">
<title>Option::some</title>
<ellipse fill="none" stroke="black" cx="2200" cy="-344" rx="29.8" ry="18"/>
<text text-anchor="middle" x="2200" y="-340.3" font-family="Times,serif" font-size="14.00">some</text>
</g>
<!-- make_account&#45;&gt;Option::some -->
<g id="edge32" class="edge">
<title>make_account&#45;&gt;Option::some</title>
<path fill="none" stroke="black" d="M1921.07,-411.27C1953.15,-406.98 1994.03,-400.77 2030,-393 2077,-382.85 2130.19,-367.13 2164.36,-356.47"/>
<polygon fill="black" stroke="black" points="2165.84,-359.67 2174.33,-353.33 2163.74,-352.99 2165.84,-359.67"/>
</g>
<!-- AccountFreezing::create -->
<g id="node27" class="node">
<title>AccountFreezing::create</title>
<ellipse fill="none" stroke="black" cx="1752" cy="-261" rx="31.7" ry="18"/>
<text text-anchor="middle" x="1752" y="-257.3" font-family="Times,serif" font-size="14.00">create</text>
</g>
<!-- make_account&#45;&gt;AccountFreezing::create -->
<g id="edge33" class="edge">
<title>make_account&#45;&gt;AccountFreezing::create</title>
<path fill="none" stroke="black" d="M1890.99,-402.36C1893.81,-399.6 1896.27,-396.48 1898,-393 1912.84,-363.15 1920.61,-342.49 1898,-318 1882.88,-301.62 1818.14,-319.56 1798,-310 1786.82,-304.69 1776.94,-295.42 1769.23,-286.42"/>
<polygon fill="black" stroke="black" points="1771.76,-283.99 1762.78,-278.37 1766.3,-288.36 1771.76,-283.99"/>
</g>
<!-- create_authentication_key -->
<g id="node28" class="node">
<title>create_authentication_key</title>
<ellipse fill="none" stroke="black" cx="2185" cy="-261" rx="102.88" ry="18"/>
<text text-anchor="middle" x="2185" y="-257.3" font-family="Times,serif" font-size="14.00">create_authentication_key</text>
</g>
<!-- make_account&#45;&gt;create_authentication_key -->
<g id="edge34" class="edge">
<title>make_account&#45;&gt;create_authentication_key</title>
<path fill="none" stroke="black" d="M1921.75,-411.81C1944.22,-408.09 1969.91,-402.22 1992,-393 2056.87,-365.93 2122.51,-315.34 2158.04,-285.57"/>
<polygon fill="black" stroke="black" points="2160.62,-287.97 2165.99,-278.84 2156.1,-282.63 2160.62,-287.97"/>
</g>
<!-- destroy_signer -->
<g id="node29" class="node">
<title>destroy_signer</title>
<ellipse fill="none" stroke="black" cx="1756" cy="-344" rx="62.29" ry="18"/>
<text text-anchor="middle" x="1756" y="-340.3" font-family="Times,serif" font-size="14.00">destroy_signer</text>
</g>
<!-- make_account&#45;&gt;destroy_signer -->
<g id="edge35" class="edge">
<title>make_account&#45;&gt;destroy_signer</title>
<path fill="none" stroke="black" d="M1841.62,-402.34C1826.06,-391.92 1805.42,-378.1 1788.31,-366.64"/>
<polygon fill="black" stroke="black" points="1789.98,-363.54 1779.72,-360.89 1786.08,-369.36 1789.98,-363.54"/>
</g>
<!-- Errors::make -->
<g id="node30" class="node">
<title>Errors::make</title>
<ellipse fill="none" stroke="black" cx="1533" cy="-106" rx="30.59" ry="18"/>
<text text-anchor="middle" x="1533" y="-102.3" font-family="Times,serif" font-size="14.00">make</text>
</g>
<!-- Errors::invalid_state&#45;&gt;Errors::make -->
<g id="edge36" class="edge">
<title>Errors::invalid_state&#45;&gt;Errors::make</title>
<path fill="none" stroke="black" d="M1367.97,-163.62C1377.93,-159.78 1388.88,-155.65 1399,-152 1431.96,-140.13 1469.83,-127.51 1496.89,-118.66"/>
<polygon fill="black" stroke="black" points="1498.27,-121.89 1506.69,-115.46 1496.1,-115.23 1498.27,-121.89"/>
</g>
<!-- DiemTimestamp::is_genesis&#45;&gt;CoreAddresses::DIEM_ROOT_ADDRESS -->
<g id="edge37" class="edge">
<title>DiemTimestamp::is_genesis&#45;&gt;CoreAddresses::DIEM_ROOT_ADDRESS</title>
<path fill="none" stroke="black" d="M114.88,-247.61C125.94,-243.45 138.47,-238.87 150,-235 191.11,-221.19 237.85,-207.19 274.31,-196.65"/>
<polygon fill="black" stroke="black" points="275.67,-199.9 284.31,-193.77 273.74,-193.17 275.67,-199.9"/>
</g>
<!-- Signer::borrow_address -->
<g id="node31" class="node">
<title>Signer::borrow_address</title>
<ellipse fill="none" stroke="black" cx="2086" cy="-106" rx="66.89" ry="18"/>
<text text-anchor="middle" x="2086" y="-102.3" font-family="Times,serif" font-size="14.00">borrow_address</text>
</g>
<!-- Signer::address_of&#45;&gt;Signer::borrow_address -->
<g id="edge38" class="edge">
<title>Signer::address_of&#45;&gt;Signer::borrow_address</title>
<path fill="none" stroke="black" d="M2072.36,-160.05C2074.36,-152.26 2076.79,-142.82 2079.04,-134.08"/>
<polygon fill="black" stroke="black" points="2082.46,-134.83 2081.56,-124.28 2075.68,-133.09 2082.46,-134.83"/>
</g>
<!-- Errors::already_published&#45;&gt;Errors::make -->
<g id="edge39" class="edge">
<title>Errors::already_published&#45;&gt;Errors::make</title>
<path fill="none" stroke="black" d="M1711.4,-163.25C1669.91,-150.17 1608.18,-130.71 1569.29,-118.44"/>
<polygon fill="black" stroke="black" points="1570.03,-115.01 1559.44,-115.34 1567.93,-121.68 1570.03,-115.01"/>
</g>
<!-- Errors::not_published&#45;&gt;Errors::make -->
<g id="edge40" class="edge">
<title>Errors::not_published&#45;&gt;Errors::make</title>
<path fill="none" stroke="black" d="M1584.88,-160.41C1575.87,-151.13 1564.51,-139.44 1554.72,-129.36"/>
<polygon fill="black" stroke="black" points="1557.09,-126.77 1547.61,-122.04 1552.07,-131.65 1557.09,-126.77"/>
</g>
<!-- Errors::requires_role&#45;&gt;Errors::make -->
<g id="edge41" class="edge">
<title>Errors::requires_role&#45;&gt;Errors::make</title>
<path fill="none" stroke="black" d="M1481.12,-160.41C1490.13,-151.13 1501.49,-139.44 1511.28,-129.36"/>
<polygon fill="black" stroke="black" points="1513.93,-131.65 1518.39,-122.04 1508.91,-126.77 1513.93,-131.65"/>
</g>
<!-- CoreAddresses::assert_diem_root&#45;&gt;Signer::address_of -->
<g id="edge42" class="edge">
<title>CoreAddresses::assert_diem_root&#45;&gt;Signer::address_of</title>
<path fill="none" stroke="black" d="M574.7,-245.69C587.88,-241.37 602.91,-237.19 617,-235 655.15,-229.07 1970.55,-239.74 2007,-227 2021.39,-221.97 2034.98,-212.01 2045.66,-202.46"/>
<polygon fill="black" stroke="black" points="2048.36,-204.73 2053.23,-195.32 2043.55,-199.64 2048.36,-204.73"/>
</g>
<!-- CoreAddresses::assert_diem_root&#45;&gt;CoreAddresses::DIEM_ROOT_ADDRESS -->
<g id="edge44" class="edge">
<title>CoreAddresses::assert_diem_root&#45;&gt;CoreAddresses::DIEM_ROOT_ADDRESS</title>
<path fill="none" stroke="black" d="M499.73,-245.52C485.13,-239.81 468.26,-233.15 453,-227 430.3,-217.85 405.19,-207.49 384.16,-198.74"/>
<polygon fill="black" stroke="black" points="385.38,-195.46 374.81,-194.85 382.69,-201.92 385.38,-195.46"/>
</g>
<!-- Errors::requires_address -->
<g id="node32" class="node">
<title>Errors::requires_address</title>
<ellipse fill="none" stroke="black" cx="1191" cy="-178" rx="69.59" ry="18"/>
<text text-anchor="middle" x="1191" y="-174.3" font-family="Times,serif" font-size="14.00">requires_address</text>
</g>
<!-- CoreAddresses::assert_diem_root&#45;&gt;Errors::requires_address -->
<g id="edge43" class="edge">
<title>CoreAddresses::assert_diem_root&#45;&gt;Errors::requires_address</title>
<path fill="none" stroke="black" d="M575.12,-245.64C588.2,-241.38 603.06,-237.24 617,-235 670.98,-226.31 1056.35,-241.74 1109,-227 1127.86,-221.72 1146.86,-211.02 1161.81,-201.06"/>
<polygon fill="black" stroke="black" points="1163.88,-203.88 1170.12,-195.32 1159.9,-198.12 1163.88,-203.88"/>
</g>
<!-- CoreAddresses::assert_treasury_compliance&#45;&gt;CoreAddresses::TREASURY_COMPLIANCE_ADDRESS -->
<g id="edge47" class="edge">
<title>CoreAddresses::assert_treasury_compliance&#45;&gt;CoreAddresses::TREASURY_COMPLIANCE_ADDRESS</title>
<path fill="none" stroke="black" d="M391.46,-245.14C438.47,-231.83 507.68,-212.23 558.55,-197.82"/>
<polygon fill="black" stroke="black" points="559.8,-201.1 568.47,-195.01 557.89,-194.37 559.8,-201.1"/>
</g>
<!-- CoreAddresses::assert_treasury_compliance&#45;&gt;Signer::address_of -->
<g id="edge45" class="edge">
<title>CoreAddresses::assert_treasury_compliance&#45;&gt;Signer::address_of</title>
<path fill="none" stroke="black" d="M395.64,-245.56C414.97,-241.28 436.8,-237.17 457,-235 499.81,-230.4 1966.35,-241.19 2007,-227 2021.4,-221.97 2034.98,-212.01 2045.67,-202.46"/>
<polygon fill="black" stroke="black" points="2048.36,-204.73 2053.23,-195.33 2043.56,-199.64 2048.36,-204.73"/>
</g>
<!-- CoreAddresses::assert_treasury_compliance&#45;&gt;Errors::requires_address -->
<g id="edge46" class="edge">
<title>CoreAddresses::assert_treasury_compliance&#45;&gt;Errors::requires_address</title>
<path fill="none" stroke="black" d="M395.65,-245.64C414.98,-241.37 436.81,-237.24 457,-235 493,-231 1074.1,-236.69 1109,-227 1127.87,-221.76 1146.87,-211.06 1161.82,-201.09"/>
<polygon fill="black" stroke="black" points="1163.89,-203.91 1170.13,-195.35 1159.91,-198.15 1163.89,-203.91"/>
</g>
<!-- Roles::grant_role&#45;&gt;Signer::address_of -->
<g id="edge48" class="edge">
<title>Roles::grant_role&#45;&gt;Signer::address_of</title>
<path fill="none" stroke="black" d="M1547.28,-330.84C1560.61,-325.25 1575.96,-318.07 1589,-310 1633.56,-282.41 1630.89,-253.31 1680,-235 1714.05,-222.3 1972.8,-239.31 2007,-227 2021.35,-221.83 2034.93,-211.86 2045.62,-202.33"/>
<polygon fill="black" stroke="black" points="2048.3,-204.62 2053.19,-195.22 2043.51,-199.51 2048.3,-204.62"/>
</g>
<!-- Roles::grant_role&#45;&gt;Errors::already_published -->
<g id="edge49" class="edge">
<title>Roles::grant_role&#45;&gt;Errors::already_published</title>
<path fill="none" stroke="black" d="M1525.03,-326.15C1540.65,-301.57 1573.28,-256.48 1614,-235 1636.24,-223.27 1646.2,-235.1 1670,-227 1688.64,-220.66 1707.87,-210.18 1723.32,-200.64"/>
<polygon fill="black" stroke="black" points="1725.37,-203.47 1731.94,-195.16 1721.62,-197.57 1725.37,-203.47"/>
</g>
<!-- Errors::invalid_argument&#45;&gt;Errors::make -->
<g id="edge50" class="edge">
<title>Errors::invalid_argument&#45;&gt;Errors::make</title>
<path fill="none" stroke="black" d="M1880.09,-163.07C1867.03,-159.09 1852.51,-155.01 1839,-152 1744.81,-131.01 1632.07,-117.31 1573.24,-111.01"/>
<polygon fill="black" stroke="black" points="1573.55,-107.53 1563.24,-109.96 1572.81,-114.49 1573.55,-107.53"/>
</g>
<!-- Roles::get_role_id&#45;&gt;Errors::not_published -->
<g id="edge51" class="edge">
<title>Roles::get_role_id&#45;&gt;Errors::not_published</title>
<path fill="none" stroke="black" d="M1251.09,-400.94C1260.26,-380.07 1277.62,-344.28 1299,-318 1334.81,-273.99 1343.38,-256.23 1396,-235 1423.87,-223.76 1502.57,-236.74 1531,-227 1546.97,-221.53 1562.66,-211.34 1575.13,-201.75"/>
<polygon fill="black" stroke="black" points="1577.6,-204.26 1583.21,-195.28 1573.22,-198.8 1577.6,-204.26"/>
</g>
<!-- Event::write_to_event_store -->
<g id="node33" class="node">
<title>Event::write_to_event_store</title>
<ellipse fill="none" stroke="black" cx="2695" cy="-261" rx="85.29" ry="18"/>
<text text-anchor="middle" x="2695" y="-257.3" font-family="Times,serif" font-size="14.00">write_to_event_store</text>
</g>
<!-- Event::emit_event&#45;&gt;Event::write_to_event_store -->
<g id="edge52" class="edge">
<title>Event::emit_event&#45;&gt;Event::write_to_event_store</title>
<path fill="none" stroke="black" d="M2722.58,-325.82C2717.89,-314.98 2711.74,-300.74 2706.44,-288.47"/>
<polygon fill="black" stroke="black" points="2709.59,-286.94 2702.41,-279.15 2703.17,-289.72 2709.59,-286.94"/>
</g>
<!-- Event::new_event_handle&#45;&gt;Signer::address_of -->
<g id="edge53" class="edge">
<title>Event::new_event_handle&#45;&gt;Signer::address_of</title>
<path fill="none" stroke="black" d="M2358.15,-332.86C2324.09,-327.58 2280.79,-321.5 2242,-318 2230.81,-316.99 2047.78,-318.1 2040,-310 2012.81,-281.71 2033.63,-233.8 2050.98,-204.42"/>
<polygon fill="black" stroke="black" points="2054.16,-205.94 2056.43,-195.59 2048.2,-202.26 2054.16,-205.94"/>
</g>
<!-- Event::new_event_handle&#45;&gt;Errors::not_published -->
<g id="edge54" class="edge">
<title>Event::new_event_handle&#45;&gt;Errors::not_published</title>
<path fill="none" stroke="black" d="M2358.99,-332.69C2324.81,-327.28 2281.13,-321.14 2242,-318 2219.51,-316.2 1855.1,-322 1836,-310 1804.36,-290.13 1829.21,-255.55 1798,-235 1774.38,-219.45 1697.73,-236.22 1671,-227 1655.04,-221.5 1639.35,-211.31 1626.88,-201.73"/>
<polygon fill="black" stroke="black" points="1628.79,-198.77 1618.79,-195.26 1624.41,-204.24 1628.79,-198.77"/>
</g>
<!-- Event::fresh_guid -->
<g id="node34" class="node">
<title>Event::fresh_guid</title>
<ellipse fill="none" stroke="black" cx="2507" cy="-261" rx="48.19" ry="18"/>
<text text-anchor="middle" x="2507" y="-257.3" font-family="Times,serif" font-size="14.00">fresh_guid</text>
</g>
<!-- Event::new_event_handle&#45;&gt;Event::fresh_guid -->
<g id="edge55" class="edge">
<title>Event::new_event_handle&#45;&gt;Event::fresh_guid</title>
<path fill="none" stroke="black" d="M2437.23,-326.22C2450.23,-314.25 2467.86,-298.03 2482.15,-284.88"/>
<polygon fill="black" stroke="black" points="2484.7,-287.28 2489.69,-277.94 2479.96,-282.13 2484.7,-287.28"/>
</g>
<!-- Vector::singleton -->
<g id="node35" class="node">
<title>Vector::singleton</title>
<ellipse fill="none" stroke="black" cx="2316" cy="-178" rx="42.79" ry="18"/>
<text text-anchor="middle" x="2316" y="-174.3" font-family="Times,serif" font-size="14.00">singleton</text>
</g>
<!-- Option::some&#45;&gt;Vector::singleton -->
<g id="edge56" class="edge">
<title>Option::some&#45;&gt;Vector::singleton</title>
<path fill="none" stroke="black" d="M2229.6,-340.96C2251.58,-337.79 2280.51,-329.84 2297,-310 2321.1,-281.01 2322.11,-235.38 2319.73,-206.34"/>
<polygon fill="black" stroke="black" points="2323.19,-205.69 2318.7,-196.1 2316.22,-206.4 2323.19,-205.69"/>
</g>
<!-- AccountFreezing::create&#45;&gt;Signer::address_of -->
<g id="edge57" class="edge">
<title>AccountFreezing::create&#45;&gt;Signer::address_of</title>
<path fill="none" stroke="black" d="M1780.31,-252.33C1802.81,-246.56 1835.19,-238.99 1864,-235 1895.53,-230.63 1977.23,-238.25 2007,-227 2021.06,-221.69 2034.45,-211.89 2045.09,-202.52"/>
<polygon fill="black" stroke="black" points="2047.68,-204.89 2052.65,-195.53 2042.93,-199.75 2047.68,-204.89"/>
</g>
<!-- AccountFreezing::create&#45;&gt;Errors::already_published -->
<g id="edge58" class="edge">
<title>AccountFreezing::create&#45;&gt;Errors::already_published</title>
<path fill="none" stroke="black" d="M1752.64,-242.82C1753.03,-232.19 1753.54,-218.31 1753.99,-206.2"/>
<polygon fill="black" stroke="black" points="1757.49,-206.28 1754.36,-196.15 1750.5,-206.02 1757.49,-206.28"/>
</g>
<!-- create_authentication_key&#45;&gt;Errors::invalid_argument -->
<g id="edge60" class="edge">
<title>create_authentication_key&#45;&gt;Errors::invalid_argument</title>
<path fill="none" stroke="black" d="M2101.52,-250.36C2071.17,-245.34 2036.98,-237.9 2007,-227 1988.63,-220.32 1969.55,-209.91 1954.14,-200.5"/>
<polygon fill="black" stroke="black" points="1955.85,-197.44 1945.52,-195.1 1952.14,-203.37 1955.85,-197.44"/>
</g>
<!-- create_authentication_key&#45;&gt;Signer::borrow_address -->
<g id="edge59" class="edge">
<title>create_authentication_key&#45;&gt;Signer::borrow_address</title>
<path fill="none" stroke="black" d="M2176.31,-242.99C2162.84,-216.83 2137.31,-168.07 2126,-152 2121.09,-145.03 2115.25,-137.93 2109.57,-131.5"/>
<polygon fill="black" stroke="black" points="2111.86,-128.81 2102.54,-123.76 2106.68,-133.51 2111.86,-128.81"/>
</g>
<!-- Vector::append -->
<g id="node36" class="node">
<title>Vector::append</title>
<ellipse fill="none" stroke="black" cx="2507" cy="-178" rx="36.29" ry="18"/>
<text text-anchor="middle" x="2507" y="-174.3" font-family="Times,serif" font-size="14.00">append</text>
</g>
<!-- create_authentication_key&#45;&gt;Vector::append -->
<g id="edge61" class="edge">
<title>create_authentication_key&#45;&gt;Vector::append</title>
<path fill="none" stroke="black" d="M2255.45,-247.83C2302.21,-239.66 2356.95,-229.89 2368,-227 2403.09,-217.84 2442.04,-204.06 2469.76,-193.62"/>
<polygon fill="black" stroke="black" points="2471.33,-196.76 2479.43,-189.93 2468.84,-190.22 2471.33,-196.76"/>
</g>
<!-- Vector::length -->
<g id="node37" class="node">
<title>Vector::length</title>
<ellipse fill="none" stroke="black" cx="2551" cy="-34" rx="32.49" ry="18"/>
<text text-anchor="middle" x="2551" y="-30.3" font-family="Times,serif" font-size="14.00">length</text>
</g>
<!-- create_authentication_key&#45;&gt;Vector::length -->
<g id="edge62" class="edge">
<title>create_authentication_key&#45;&gt;Vector::length</title>
<path fill="none" stroke="black" d="M2180.44,-242.81C2172.12,-207.09 2159.03,-124.46 2202,-80 2243.43,-37.14 2424.51,-33.47 2508.25,-34.15"/>
<polygon fill="black" stroke="black" points="2508.4,-37.66 2518.44,-34.26 2508.47,-30.66 2508.4,-37.66"/>
</g>
<!-- BCS::to_bytes -->
<g id="node38" class="node">
<title>BCS::to_bytes</title>
<ellipse fill="none" stroke="black" cx="2904" cy="-178" rx="40.09" ry="18"/>
<text text-anchor="middle" x="2904" y="-174.3" font-family="Times,serif" font-size="14.00">to_bytes</text>
</g>
<!-- create_authentication_key&#45;&gt;BCS::to_bytes -->
<g id="edge63" class="edge">
<title>create_authentication_key&#45;&gt;BCS::to_bytes</title>
<path fill="none" stroke="black" d="M2248.6,-246.83C2273.82,-242.19 2303.17,-237.5 2330,-235 2358.88,-232.31 2825.07,-237.77 2852,-227 2864.66,-221.94 2876.11,-212.25 2885.02,-202.9"/>
<polygon fill="black" stroke="black" points="2887.83,-205.01 2891.89,-195.22 2882.61,-200.34 2887.83,-205.01"/>
</g>
<!-- Errors::requires_address&#45;&gt;Errors::make -->
<g id="edge64" class="edge">
<title>Errors::requires_address&#45;&gt;Errors::make</title>
<path fill="none" stroke="black" d="M1230.77,-163.06C1242.94,-159.12 1256.43,-155.07 1269,-152 1347.6,-132.81 1441.32,-118.92 1493.29,-111.98"/>
<polygon fill="black" stroke="black" points="1493.96,-115.43 1503.42,-110.65 1493.05,-108.49 1493.96,-115.43"/>
</g>
<!-- Event::fresh_guid&#45;&gt;Vector::append -->
<g id="edge65" class="edge">
<title>Event::fresh_guid&#45;&gt;Vector::append</title>
<path fill="none" stroke="black" d="M2507,-242.82C2507,-232.19 2507,-218.31 2507,-206.2"/>
<polygon fill="black" stroke="black" points="2510.5,-206.15 2507,-196.15 2503.5,-206.15 2510.5,-206.15"/>
</g>
<!-- Event::fresh_guid&#45;&gt;BCS::to_bytes -->
<g id="edge66" class="edge">
<title>Event::fresh_guid&#45;&gt;BCS::to_bytes</title>
<path fill="none" stroke="black" d="M2542.31,-248.56C2559.77,-243.43 2581.29,-237.9 2601,-235 2628.61,-230.94 2826.18,-237.57 2852,-227 2864.44,-221.91 2875.74,-212.41 2884.6,-203.19"/>
<polygon fill="black" stroke="black" points="2887.34,-205.38 2891.45,-195.62 2882.15,-200.69 2887.34,-205.38"/>
</g>
<!-- Vector::empty -->
<g id="node39" class="node">
<title>Vector::empty</title>
<ellipse fill="none" stroke="black" cx="2244" cy="-106" rx="33.29" ry="18"/>
<text text-anchor="middle" x="2244" y="-102.3" font-family="Times,serif" font-size="14.00">empty</text>
</g>
<!-- Vector::singleton&#45;&gt;Vector::empty -->
<g id="edge67" class="edge">
<title>Vector::singleton&#45;&gt;Vector::empty</title>
<path fill="none" stroke="black" d="M2299.66,-161.12C2290.05,-151.77 2277.73,-139.79 2267.13,-129.49"/>
<polygon fill="black" stroke="black" points="2269.39,-126.8 2259.78,-122.34 2264.51,-131.82 2269.39,-126.8"/>
</g>
<!-- Vector::push_back -->
<g id="node40" class="node">
<title>Vector::push_back</title>
<ellipse fill="none" stroke="black" cx="2343" cy="-106" rx="48.19" ry="18"/>
<text text-anchor="middle" x="2343" y="-102.3" font-family="Times,serif" font-size="14.00">push_back</text>
</g>
<!-- Vector::singleton&#45;&gt;Vector::push_back -->
<g id="edge68" class="edge">
<title>Vector::singleton&#45;&gt;Vector::push_back</title>
<path fill="none" stroke="black" d="M2322.54,-160.05C2325.57,-152.18 2329.26,-142.62 2332.67,-133.79"/>
<polygon fill="black" stroke="black" points="2336,-134.86 2336.34,-124.28 2329.47,-132.35 2336,-134.86"/>
</g>
<!-- Vector::append&#45;&gt;Vector::push_back -->
<g id="edge72" class="edge">
<title>Vector::append&#45;&gt;Vector::push_back</title>
<path fill="none" stroke="black" d="M2480.29,-165.6C2453.91,-154.34 2413.26,-136.99 2383.03,-124.09"/>
<polygon fill="black" stroke="black" points="2384.18,-120.77 2373.61,-120.07 2381.43,-127.21 2384.18,-120.77"/>
</g>
<!-- Vector::destroy_empty -->
<g id="node41" class="node">
<title>Vector::destroy_empty</title>
<ellipse fill="none" stroke="black" cx="2473" cy="-106" rx="63.89" ry="18"/>
<text text-anchor="middle" x="2473" y="-102.3" font-family="Times,serif" font-size="14.00">destroy_empty</text>
</g>
<!-- Vector::append&#45;&gt;Vector::destroy_empty -->
<g id="edge69" class="edge">
<title>Vector::append&#45;&gt;Vector::destroy_empty</title>
<path fill="none" stroke="black" d="M2498.94,-160.41C2494.98,-152.25 2490.11,-142.22 2485.66,-133.07"/>
<polygon fill="black" stroke="black" points="2488.75,-131.42 2481.24,-123.96 2482.46,-134.48 2488.75,-131.42"/>
</g>
<!-- Vector::is_empty -->
<g id="node42" class="node">
<title>Vector::is_empty</title>
<ellipse fill="none" stroke="black" cx="2796" cy="-106" rx="43.59" ry="18"/>
<text text-anchor="middle" x="2796" y="-102.3" font-family="Times,serif" font-size="14.00">is_empty</text>
</g>
<!-- Vector::append&#45;&gt;Vector::is_empty -->
<g id="edge70" class="edge">
<title>Vector::append&#45;&gt;Vector::is_empty</title>
<path fill="none" stroke="black" d="M2540.22,-170.62C2586.29,-161.53 2672.04,-143.76 2744,-124 2747.31,-123.09 2750.71,-122.1 2754.13,-121.07"/>
<polygon fill="black" stroke="black" points="2755.18,-124.41 2763.69,-118.09 2753.1,-117.73 2755.18,-124.41"/>
</g>
<!-- Vector::pop_back -->
<g id="node43" class="node">
<title>Vector::pop_back</title>
<ellipse fill="none" stroke="black" cx="2690" cy="-106" rx="44.69" ry="18"/>
<text text-anchor="middle" x="2690" y="-102.3" font-family="Times,serif" font-size="14.00">pop_back</text>
</g>
<!-- Vector::append&#45;&gt;Vector::pop_back -->
<g id="edge71" class="edge">
<title>Vector::append&#45;&gt;Vector::pop_back</title>
<path fill="none" stroke="black" d="M2534.79,-166.37C2565.23,-154.73 2614.33,-135.94 2649.15,-122.63"/>
<polygon fill="black" stroke="black" points="2650.47,-125.87 2658.56,-119.03 2647.97,-119.33 2650.47,-125.87"/>
</g>
<!-- Vector::reverse -->
<g id="node44" class="node">
<title>Vector::reverse</title>
<ellipse fill="none" stroke="black" cx="2591" cy="-106" rx="36.29" ry="18"/>
<text text-anchor="middle" x="2591" y="-102.3" font-family="Times,serif" font-size="14.00">reverse</text>
</g>
<!-- Vector::append&#45;&gt;Vector::reverse -->
<g id="edge73" class="edge">
<title>Vector::append&#45;&gt;Vector::reverse</title>
<path fill="none" stroke="black" d="M2524.81,-162.15C2536.62,-152.32 2552.29,-139.26 2565.42,-128.32"/>
<polygon fill="black" stroke="black" points="2567.77,-130.91 2573.21,-121.82 2563.29,-125.54 2567.77,-130.91"/>
</g>
<!-- Vector::is_empty&#45;&gt;Vector::length -->
<g id="edge74" class="edge">
<title>Vector::is_empty&#45;&gt;Vector::length</title>
<path fill="none" stroke="black" d="M2770.9,-91.27C2762.54,-87.15 2753.05,-82.95 2744,-80 2678.69,-58.71 2657.87,-71.49 2592,-52 2589.69,-51.32 2587.34,-50.55 2584.98,-49.72"/>
<polygon fill="black" stroke="black" points="2586,-46.37 2575.41,-46.11 2583.53,-52.92 2586,-46.37"/>
</g>
<!-- Vector::reverse&#45;&gt;Vector::length -->
<g id="edge75" class="edge">
<title>Vector::reverse&#45;&gt;Vector::length</title>
<path fill="none" stroke="black" d="M2581.52,-88.41C2576.74,-80.04 2570.83,-69.71 2565.5,-60.37"/>
<polygon fill="black" stroke="black" points="2568.41,-58.42 2560.41,-51.47 2562.33,-61.89 2568.41,-58.42"/>
</g>
<!-- Vector::swap -->
<g id="node45" class="node">
<title>Vector::swap</title>
<ellipse fill="none" stroke="black" cx="2630" cy="-34" rx="28.7" ry="18"/>
<text text-anchor="middle" x="2630" y="-30.3" font-family="Times,serif" font-size="14.00">swap</text>
</g>
<!-- Vector::reverse&#45;&gt;Vector::swap -->
<g id="edge76" class="edge">
<title>Vector::reverse&#45;&gt;Vector::swap</title>
<path fill="none" stroke="black" d="M2600.24,-88.41C2604.91,-80.04 2610.66,-69.71 2615.87,-60.37"/>
<polygon fill="black" stroke="black" points="2619.01,-61.91 2620.82,-51.47 2612.9,-58.5 2619.01,-61.91"/>
</g>
</g>
</svg>
