<?xml version="1.0" encoding="UTF-8" standalone="no"?>
<!DOCTYPE svg PUBLIC "-//W3C//DTD SVG 1.1//EN"
 "http://www.w3.org/Graphics/SVG/1.1/DTD/svg11.dtd">
<!-- Generated by graphviz version 2.46.1 (20210213.1702)
 -->
<!-- Title: G Pages: 1 -->
<svg width="2560pt" height="520pt"
 viewBox="0.00 0.00 2560.48 520.00" xmlns="http://www.w3.org/2000/svg" xmlns:xlink="http://www.w3.org/1999/xlink">
<g id="graph0" class="graph" transform="scale(1 1) rotate(0) translate(4 516)">
<title>G</title>
<polygon fill="white" stroke="transparent" points="-4,4 -4,-516 2556.48,-516 2556.48,4 -4,4"/>
<g id="clust1" class="cluster">
<title>cluster_Roles</title>
<polygon fill="none" stroke="black" points="224,-235 224,-385 668,-385 668,-235 224,-235"/>
<text text-anchor="middle" x="446" y="-369.8" font-family="Times,serif" font-size="14.00">Roles</text>
</g>
<g id="clust2" class="cluster">
<title>cluster_Event</title>
<polygon fill="none" stroke="black" points="888,-235 888,-385 1342,-385 1342,-235 888,-235"/>
<text text-anchor="middle" x="1115" y="-369.8" font-family="Times,serif" font-size="14.00">Event</text>
</g>
<g id="clust3" class="cluster">
<title>cluster_ValidatorConfig</title>
<polygon fill="none" stroke="black" points="737,-393 737,-468 840,-468 840,-393 737,-393"/>
<text text-anchor="middle" x="788.5" y="-452.8" font-family="Times,serif" font-size="14.00">ValidatorConfig</text>
</g>
<g id="clust4" class="cluster">
<title>cluster_Signer</title>
<polygon fill="none" stroke="black" points="906,-80 906,-227 1056,-227 1056,-80 906,-80"/>
<text text-anchor="middle" x="981" y="-211.8" font-family="Times,serif" font-size="14.00">Signer</text>
</g>
<g id="clust5" class="cluster">
<title>cluster_Errors</title>
<polygon fill="none" stroke="black" points="8,-80 8,-227 898,-227 898,-80 8,-80"/>
<text text-anchor="middle" x="453" y="-211.8" font-family="Times,serif" font-size="14.00">Errors</text>
</g>
<g id="clust6" class="cluster">
<title>cluster_DiemTimestamp</title>
<polygon fill="none" stroke="black" points="1352,-235 1352,-385 1504,-385 1504,-235 1352,-235"/>
<text text-anchor="middle" x="1428" y="-369.8" font-family="Times,serif" font-size="14.00">DiemTimestamp</text>
</g>
<g id="clust7" class="cluster">
<title>cluster_Option</title>
<polygon fill="none" stroke="black" points="1730,-235 1730,-310 1880,-310 1880,-235 1730,-235"/>
<text text-anchor="middle" x="1805" y="-294.8" font-family="Times,serif" font-size="14.00">Option</text>
</g>
<g id="clust8" class="cluster">
<title>cluster_CoreAddresses</title>
<polygon fill="none" stroke="black" points="1888,-152 1888,-310 2535,-310 2535,-152 1888,-152"/>
<text text-anchor="middle" x="2211.5" y="-294.8" font-family="Times,serif" font-size="14.00">CoreAddresses</text>
</g>
<g id="clust9" class="cluster">
<title>cluster_AccountFreezing</title>
<polygon fill="none" stroke="black" points="704,-235 704,-310 814,-310 814,-235 704,-235"/>
<text text-anchor="middle" x="759" y="-294.8" font-family="Times,serif" font-size="14.00">AccountFreezing</text>
</g>
<g id="clust10" class="cluster">
<title>cluster_Vector</title>
<polygon fill="none" stroke="black" points="1198,-8 1198,-227 1843,-227 1843,-8 1198,-8"/>
<text text-anchor="middle" x="1520.5" y="-211.8" font-family="Times,serif" font-size="14.00">Vector</text>
</g>
<g id="clust11" class="cluster">
<title>cluster_BCS</title>
<polygon fill="none" stroke="black" points="1064,-152 1064,-227 1160,-227 1160,-152 1064,-152"/>
<text text-anchor="middle" x="1112" y="-211.8" font-family="Times,serif" font-size="14.00">BCS</text>
</g>
<!-- create_validator_account -->
<g id="node1" class="node">
<title>create_validator_account</title>
<ellipse fill="none" stroke="black" cx="914" cy="-494" rx="98.58" ry="18"/>
<text text-anchor="middle" x="914" y="-490.3" font-family="Times,serif" font-size="14.00">create_validator_account</text>
</g>
<!-- Roles::new_validator_role -->
<g id="node2" class="node">
<title>Roles::new_validator_role</title>
<ellipse fill="none" stroke="black" cx="581" cy="-336" rx="79.09" ry="18"/>
<text text-anchor="middle" x="581" y="-332.3" font-family="Times,serif" font-size="14.00">new_validator_role</text>
</g>
<!-- create_validator_account&#45;&gt;Roles::new_validator_role -->
<g id="edge1" class="edge">
<title>create_validator_account&#45;&gt;Roles::new_validator_role</title>
<path fill="none" stroke="black" d="M817.67,-489.98C789.45,-486.41 759.16,-479.82 733,-468 678.21,-443.25 628.21,-392.34 601.45,-361.78"/>
<polygon fill="black" stroke="black" points="604.02,-359.4 594.84,-354.11 598.72,-363.97 604.02,-359.4"/>
</g>
<!-- Event::publish_generator -->
<g id="node3" class="node">
<title>Event::publish_generator</title>
<ellipse fill="none" stroke="black" cx="970" cy="-336" rx="74.19" ry="18"/>
<text text-anchor="middle" x="970" y="-332.3" font-family="Times,serif" font-size="14.00">publish_generator</text>
</g>
<!-- create_validator_account&#45;&gt;Event::publish_generator -->
<g id="edge2" class="edge">
<title>create_validator_account&#45;&gt;Event::publish_generator</title>
<path fill="none" stroke="black" d="M1005.89,-487.34C1056.69,-483.25 1111.14,-476.88 1119,-468 1141.1,-443.04 1141.11,-417.95 1119,-393 1109.2,-381.94 1067.01,-389.68 1053,-385 1034.66,-378.87 1015.86,-368.42 1000.81,-358.83"/>
<polygon fill="black" stroke="black" points="1002.69,-355.88 992.41,-353.32 998.86,-361.73 1002.69,-355.88"/>
</g>
<!-- ValidatorConfig::publish -->
<g id="node4" class="node">
<title>ValidatorConfig::publish</title>
<ellipse fill="none" stroke="black" cx="792" cy="-419" rx="36.29" ry="18"/>
<text text-anchor="middle" x="792" y="-415.3" font-family="Times,serif" font-size="14.00">publish</text>
</g>
<!-- create_validator_account&#45;&gt;ValidatorConfig::publish -->
<g id="edge3" class="edge">
<title>create_validator_account&#45;&gt;ValidatorConfig::publish</title>
<path fill="none" stroke="black" d="M863.9,-478.34C856.66,-475.38 849.47,-471.94 843,-468 832.08,-461.35 821.52,-452.06 812.87,-443.42"/>
<polygon fill="black" stroke="black" points="815.26,-440.86 805.8,-436.08 810.22,-445.72 815.26,-440.86"/>
</g>
<!-- create_signer -->
<g id="node5" class="node">
<title>create_signer</title>
<ellipse fill="none" stroke="black" cx="1052" cy="-419" rx="57.69" ry="18"/>
<text text-anchor="middle" x="1052" y="-415.3" font-family="Times,serif" font-size="14.00">create_signer</text>
</g>
<!-- create_validator_account&#45;&gt;create_signer -->
<g id="edge4" class="edge">
<title>create_validator_account&#45;&gt;create_signer</title>
<path fill="none" stroke="black" d="M962.14,-478.14C969.94,-475.14 977.81,-471.74 985,-468 998.79,-460.82 1012.94,-451.09 1024.66,-442.27"/>
<polygon fill="black" stroke="black" points="1026.94,-444.93 1032.73,-436.05 1022.67,-439.38 1026.94,-444.93"/>
</g>
<!-- make_account -->
<g id="node6" class="node">
<title>make_account</title>
<ellipse fill="none" stroke="black" cx="914" cy="-419" rx="61.99" ry="18"/>
<text text-anchor="middle" x="914" y="-415.3" font-family="Times,serif" font-size="14.00">make_account</text>
</g>
<!-- create_validator_account&#45;&gt;make_account -->
<g id="edge5" class="edge">
<title>create_validator_account&#45;&gt;make_account</title>
<path fill="none" stroke="black" d="M914,-475.7C914,-467.25 914,-456.87 914,-447.37"/>
<polygon fill="black" stroke="black" points="917.5,-447.18 914,-437.18 910.5,-447.18 917.5,-447.18"/>
</g>
<!-- Roles::assert_diem_root -->
<g id="node7" class="node">
<title>Roles::assert_diem_root</title>
<ellipse fill="none" stroke="black" cx="437" cy="-261" rx="71.49" ry="18"/>
<text text-anchor="middle" x="437" y="-257.3" font-family="Times,serif" font-size="14.00">assert_diem_root</text>
</g>
<!-- Roles::new_validator_role&#45;&gt;Roles::assert_diem_root -->
<g id="edge6" class="edge">
<title>Roles::new_validator_role&#45;&gt;Roles::assert_diem_root</title>
<path fill="none" stroke="black" d="M540.61,-320.41C532.68,-317.22 524.5,-313.68 517,-310 501.14,-302.21 484.27,-292.34 470.13,-283.58"/>
<polygon fill="black" stroke="black" points="471.6,-280.37 461.27,-278.02 467.87,-286.3 471.6,-280.37"/>
</g>
<!-- Roles::grant_role -->
<g id="node8" class="node">
<title>Roles::grant_role</title>
<ellipse fill="none" stroke="black" cx="573" cy="-261" rx="46.59" ry="18"/>
<text text-anchor="middle" x="573" y="-257.3" font-family="Times,serif" font-size="14.00">grant_role</text>
</g>
<!-- Roles::new_validator_role&#45;&gt;Roles::grant_role -->
<g id="edge7" class="edge">
<title>Roles::new_validator_role&#45;&gt;Roles::grant_role</title>
<path fill="none" stroke="black" d="M579.1,-317.7C578.18,-309.25 577.04,-298.87 576,-289.37"/>
<polygon fill="black" stroke="black" points="579.45,-288.73 574.88,-279.18 572.49,-289.5 579.45,-288.73"/>
</g>
<!-- Signer::address_of -->
<g id="node9" class="node">
<title>Signer::address_of</title>
<ellipse fill="none" stroke="black" cx="963" cy="-178" rx="48.99" ry="18"/>
<text text-anchor="middle" x="963" y="-174.3" font-family="Times,serif" font-size="14.00">address_of</text>
</g>
<!-- Event::publish_generator&#45;&gt;Signer::address_of -->
<g id="edge8" class="edge">
<title>Event::publish_generator&#45;&gt;Signer::address_of</title>
<path fill="none" stroke="black" d="M969.22,-317.71C968.02,-290.77 965.67,-238.54 964.23,-206.42"/>
<polygon fill="black" stroke="black" points="967.72,-206.2 963.78,-196.37 960.73,-206.52 967.72,-206.2"/>
</g>
<!-- Errors::already_published -->
<g id="node10" class="node">
<title>Errors::already_published</title>
<ellipse fill="none" stroke="black" cx="363" cy="-178" rx="75.29" ry="18"/>
<text text-anchor="middle" x="363" y="-174.3" font-family="Times,serif" font-size="14.00">already_published</text>
</g>
<!-- Event::publish_generator&#45;&gt;Errors::already_published -->
<g id="edge9" class="edge">
<title>Event::publish_generator&#45;&gt;Errors::already_published</title>
<path fill="none" stroke="black" d="M899.35,-330.32C822.02,-324.92 707.86,-316.01 700,-310 671.74,-288.38 700.86,-255.81 672,-235 651.8,-220.44 471.97,-233.76 448,-227 428.77,-221.58 409.23,-210.97 393.74,-201.11"/>
<polygon fill="black" stroke="black" points="395.4,-198.01 385.12,-195.43 391.55,-203.85 395.4,-198.01"/>
</g>
<!-- ValidatorConfig::publish&#45;&gt;Roles::assert_diem_root -->
<g id="edge13" class="edge">
<title>ValidatorConfig::publish&#45;&gt;Roles::assert_diem_root</title>
<path fill="none" stroke="black" d="M778.48,-401.89C757.72,-378.48 715.49,-335.9 669,-318 637.44,-305.84 549.35,-319.88 517,-310 498.91,-304.47 480.68,-294 466.2,-284.25"/>
<polygon fill="black" stroke="black" points="467.91,-281.17 457.7,-278.32 463.9,-286.91 467.91,-281.17"/>
</g>
<!-- ValidatorConfig::publish&#45;&gt;Signer::address_of -->
<g id="edge10" class="edge">
<title>ValidatorConfig::publish&#45;&gt;Signer::address_of</title>
<path fill="none" stroke="black" d="M795.78,-400.86C805.19,-359.73 830.82,-257.17 857,-235 872.5,-221.87 883.46,-235.31 902,-227 915.52,-220.94 928.68,-211.23 939.3,-202.12"/>
<polygon fill="black" stroke="black" points="941.76,-204.62 946.88,-195.35 937.09,-199.4 941.76,-204.62"/>
</g>
<!-- ValidatorConfig::publish&#45;&gt;Errors::already_published -->
<g id="edge11" class="edge">
<title>ValidatorConfig::publish&#45;&gt;Errors::already_published</title>
<path fill="none" stroke="black" d="M755.6,-417.4C627.04,-415.11 200.84,-405.94 181,-385 174.27,-377.9 175.35,-242.14 182,-235 196.59,-219.33 257.54,-233.3 278,-227 296.96,-221.17 316.34,-210.63 331.81,-200.92"/>
<polygon fill="black" stroke="black" points="333.94,-203.71 340.43,-195.34 330.13,-197.84 333.94,-203.71"/>
</g>
<!-- DiemTimestamp::assert_operating -->
<g id="node11" class="node">
<title>DiemTimestamp::assert_operating</title>
<ellipse fill="none" stroke="black" cx="1428" cy="-336" rx="68.49" ry="18"/>
<text text-anchor="middle" x="1428" y="-332.3" font-family="Times,serif" font-size="14.00">assert_operating</text>
</g>
<!-- ValidatorConfig::publish&#45;&gt;DiemTimestamp::assert_operating -->
<g id="edge12" class="edge">
<title>ValidatorConfig::publish&#45;&gt;DiemTimestamp::assert_operating</title>
<path fill="none" stroke="black" d="M814.04,-404.56C822.74,-399.97 833.03,-395.4 843,-393 897.35,-379.94 1292.17,-400.06 1346,-385 1364.86,-379.73 1383.86,-369.02 1398.81,-359.06"/>
<polygon fill="black" stroke="black" points="1400.88,-361.89 1407.12,-353.32 1396.9,-356.12 1400.88,-361.89"/>
</g>
<!-- Roles::assert_validator -->
<g id="node12" class="node">
<title>Roles::assert_validator</title>
<ellipse fill="none" stroke="black" cx="298" cy="-336" rx="66.09" ry="18"/>
<text text-anchor="middle" x="298" y="-332.3" font-family="Times,serif" font-size="14.00">assert_validator</text>
</g>
<!-- ValidatorConfig::publish&#45;&gt;Roles::assert_validator -->
<g id="edge14" class="edge">
<title>ValidatorConfig::publish&#45;&gt;Roles::assert_validator</title>
<path fill="none" stroke="black" d="M755.57,-417.39C667.18,-415.56 443.47,-408.66 373,-385 356.17,-379.35 339.35,-369.11 325.91,-359.53"/>
<polygon fill="black" stroke="black" points="327.73,-356.52 317.6,-353.39 323.56,-362.15 327.73,-356.52"/>
</g>
<!-- Option::none -->
<g id="node13" class="node">
<title>Option::none</title>
<ellipse fill="none" stroke="black" cx="1766" cy="-261" rx="27.9" ry="18"/>
<text text-anchor="middle" x="1766" y="-257.3" font-family="Times,serif" font-size="14.00">none</text>
</g>
<!-- ValidatorConfig::publish&#45;&gt;Option::none -->
<g id="edge15" class="edge">
<title>ValidatorConfig::publish&#45;&gt;Option::none</title>
<path fill="none" stroke="black" d="M814.04,-404.54C822.74,-399.95 833.02,-395.38 843,-393 860.97,-388.72 1492.26,-394.67 1508,-385 1536.63,-367.42 1514.65,-336.02 1543,-318 1577.92,-295.81 1692.28,-329.05 1729,-310 1738.81,-304.91 1746.79,-295.92 1752.8,-287.09"/>
<polygon fill="black" stroke="black" points="1755.86,-288.8 1758.15,-278.46 1749.91,-285.12 1755.86,-288.8"/>
</g>
<!-- make_account&#45;&gt;Signer::address_of -->
<g id="edge16" class="edge">
<title>make_account&#45;&gt;Signer::address_of</title>
<path fill="none" stroke="black" d="M894.75,-401.54C890.38,-396.7 886.35,-391.07 884,-385 859.96,-322.82 847.67,-290.9 884,-235 888.77,-227.66 894.5,-231.52 902,-227 914.2,-219.64 926.73,-210.18 937.24,-201.6"/>
<polygon fill="black" stroke="black" points="939.75,-204.06 945.18,-194.96 935.26,-198.69 939.75,-204.06"/>
</g>
<!-- Errors::invalid_argument -->
<g id="node14" class="node">
<title>Errors::invalid_argument</title>
<ellipse fill="none" stroke="black" cx="530" cy="-178" rx="73.39" ry="18"/>
<text text-anchor="middle" x="530" y="-174.3" font-family="Times,serif" font-size="14.00">invalid_argument</text>
</g>
<!-- make_account&#45;&gt;Errors::invalid_argument -->
<g id="edge17" class="edge">
<title>make_account&#45;&gt;Errors::invalid_argument</title>
<path fill="none" stroke="black" d="M881.14,-403.74C869.62,-399.43 856.45,-395.24 844,-393 826.94,-389.93 232.18,-397.34 220,-385 173.16,-337.56 173.7,-282.96 220,-235 228.76,-225.92 434.87,-230.48 447,-227 465.86,-221.58 484.94,-210.98 500.05,-201.11"/>
<polygon fill="black" stroke="black" points="502.13,-203.93 508.46,-195.43 498.21,-198.13 502.13,-203.93"/>
</g>
<!-- Errors::not_published -->
<g id="node15" class="node">
<title>Errors::not_published</title>
<ellipse fill="none" stroke="black" cx="76" cy="-178" rx="60.39" ry="18"/>
<text text-anchor="middle" x="76" y="-174.3" font-family="Times,serif" font-size="14.00">not_published</text>
</g>
<!-- make_account&#45;&gt;Errors::not_published -->
<g id="edge18" class="edge">
<title>make_account&#45;&gt;Errors::not_published</title>
<path fill="none" stroke="black" d="M881.15,-403.74C869.62,-399.42 856.45,-395.23 844,-393 825.87,-389.75 197.02,-394.09 181,-385 114.93,-347.49 89.16,-252.85 80.22,-206.06"/>
<polygon fill="black" stroke="black" points="83.63,-205.27 78.42,-196.04 76.74,-206.5 83.63,-205.27"/>
</g>
<!-- CoreAddresses::CORE_CODE_ADDRESS -->
<g id="node16" class="node">
<title>CoreAddresses::CORE_CODE_ADDRESS</title>
<ellipse fill="none" stroke="black" cx="2163" cy="-261" rx="106.68" ry="18"/>
<text text-anchor="middle" x="2163" y="-257.3" font-family="Times,serif" font-size="14.00">CORE_CODE_ADDRESS</text>
</g>
<!-- make_account&#45;&gt;CoreAddresses::CORE_CODE_ADDRESS -->
<g id="edge19" class="edge">
<title>make_account&#45;&gt;CoreAddresses::CORE_CODE_ADDRESS</title>
<path fill="none" stroke="black" d="M947.34,-403.73C959.03,-399.41 972.39,-395.22 985,-393 1070.25,-377.98 1678.22,-396.62 1764,-385 1892.94,-367.53 1923.72,-351.63 2047,-310 2070.91,-301.93 2096.91,-291.34 2118.23,-282.16"/>
<polygon fill="black" stroke="black" points="2119.9,-285.25 2127.67,-278.06 2117.11,-278.83 2119.9,-285.25"/>
</g>
<!-- CoreAddresses::DIEM_ROOT_ADDRESS -->
<g id="node17" class="node">
<title>CoreAddresses::DIEM_ROOT_ADDRESS</title>
<ellipse fill="none" stroke="black" cx="2005" cy="-178" rx="106.68" ry="18"/>
<text text-anchor="middle" x="2005" y="-174.3" font-family="Times,serif" font-size="14.00">DIEM_ROOT_ADDRESS</text>
</g>
<!-- make_account&#45;&gt;CoreAddresses::DIEM_ROOT_ADDRESS -->
<g id="edge20" class="edge">
<title>make_account&#45;&gt;CoreAddresses::DIEM_ROOT_ADDRESS</title>
<path fill="none" stroke="black" d="M947.33,-403.7C959.02,-399.38 972.38,-395.2 985,-393 1045.53,-382.43 2029.79,-390.35 2091,-385 2190.9,-376.28 2471.25,-386.58 2536,-310 2557.52,-284.55 2558.3,-259.78 2536,-235 2508.59,-204.54 2265.74,-189.44 2118.12,-183.02"/>
<polygon fill="black" stroke="black" points="2118.24,-179.52 2108.1,-182.59 2117.94,-186.51 2118.24,-179.52"/>
</g>
<!-- CoreAddresses::VM_RESERVED_ADDRESS -->
<g id="node18" class="node">
<title>CoreAddresses::VM_RESERVED_ADDRESS</title>
<ellipse fill="none" stroke="black" cx="2407" cy="-261" rx="119.68" ry="18"/>
<text text-anchor="middle" x="2407" y="-257.3" font-family="Times,serif" font-size="14.00">VM_RESERVED_ADDRESS</text>
</g>
<!-- make_account&#45;&gt;CoreAddresses::VM_RESERVED_ADDRESS -->
<g id="edge21" class="edge">
<title>make_account&#45;&gt;CoreAddresses::VM_RESERVED_ADDRESS</title>
<path fill="none" stroke="black" d="M947.34,-403.71C959.02,-399.39 972.39,-395.21 985,-393 1085.69,-375.34 1803.32,-395.54 1905,-385 2073.63,-367.52 2115.99,-356.58 2279,-310 2306.08,-302.26 2335.55,-291.39 2359.38,-281.94"/>
<polygon fill="black" stroke="black" points="2360.91,-285.1 2368.89,-278.13 2358.31,-278.6 2360.91,-285.1"/>
</g>
<!-- Roles::get_role_id -->
<g id="node19" class="node">
<title>Roles::get_role_id</title>
<ellipse fill="none" stroke="black" cx="433" cy="-336" rx="50.89" ry="18"/>
<text text-anchor="middle" x="433" y="-332.3" font-family="Times,serif" font-size="14.00">get_role_id</text>
</g>
<!-- make_account&#45;&gt;Roles::get_role_id -->
<g id="edge22" class="edge">
<title>make_account&#45;&gt;Roles::get_role_id</title>
<path fill="none" stroke="black" d="M880.78,-403.68C869.34,-399.42 856.31,-395.28 844,-393 805.64,-385.9 529.66,-398.33 493,-385 479.01,-379.91 465.82,-370.15 455.39,-360.74"/>
<polygon fill="black" stroke="black" points="457.64,-358.05 447.98,-353.7 452.82,-363.13 457.64,-358.05"/>
</g>
<!-- Event::emit_event -->
<g id="node20" class="node">
<title>Event::emit_event</title>
<ellipse fill="none" stroke="black" cx="1284" cy="-336" rx="50.09" ry="18"/>
<text text-anchor="middle" x="1284" y="-332.3" font-family="Times,serif" font-size="14.00">emit_event</text>
</g>
<!-- make_account&#45;&gt;Event::emit_event -->
<g id="edge23" class="edge">
<title>make_account&#45;&gt;Event::emit_event</title>
<path fill="none" stroke="black" d="M947.73,-403.76C959.33,-399.5 972.54,-395.34 985,-393 1011.22,-388.07 1200.01,-394.35 1225,-385 1238.8,-379.84 1251.77,-370.06 1262.02,-360.67"/>
<polygon fill="black" stroke="black" points="1264.54,-363.11 1269.3,-353.64 1259.67,-358.07 1264.54,-363.11"/>
</g>
<!-- Event::new_event_handle -->
<g id="node21" class="node">
<title>Event::new_event_handle</title>
<ellipse fill="none" stroke="black" cx="1139" cy="-336" rx="76.89" ry="18"/>
<text text-anchor="middle" x="1139" y="-332.3" font-family="Times,serif" font-size="14.00">new_event_handle</text>
</g>
<!-- make_account&#45;&gt;Event::new_event_handle -->
<g id="edge24" class="edge">
<title>make_account&#45;&gt;Event::new_event_handle</title>
<path fill="none" stroke="black" d="M948.94,-403.97C960.28,-399.88 973.03,-395.77 985,-393 1014.64,-386.13 1024.05,-394.37 1053,-385 1071.9,-378.88 1091.36,-368.43 1106.98,-358.84"/>
<polygon fill="black" stroke="black" points="1109.11,-361.63 1115.7,-353.33 1105.38,-355.71 1109.11,-361.63"/>
</g>
<!-- Option::some -->
<g id="node22" class="node">
<title>Option::some</title>
<ellipse fill="none" stroke="black" cx="1842" cy="-261" rx="29.8" ry="18"/>
<text text-anchor="middle" x="1842" y="-257.3" font-family="Times,serif" font-size="14.00">some</text>
</g>
<!-- make_account&#45;&gt;Option::some -->
<g id="edge25" class="edge">
<title>make_account&#45;&gt;Option::some</title>
<path fill="none" stroke="black" d="M947.34,-403.73C959.03,-399.41 972.39,-395.23 985,-393 1024.39,-386.04 1667.18,-398.04 1705,-385 1757.53,-366.88 1801.89,-316.65 1824.96,-286.28"/>
<polygon fill="black" stroke="black" points="1828.01,-288.03 1831.15,-277.91 1822.39,-283.86 1828.01,-288.03"/>
</g>
<!-- AccountFreezing::create -->
<g id="node23" class="node">
<title>AccountFreezing::create</title>
<ellipse fill="none" stroke="black" cx="772" cy="-261" rx="31.7" ry="18"/>
<text text-anchor="middle" x="772" y="-257.3" font-family="Times,serif" font-size="14.00">create</text>
</g>
<!-- make_account&#45;&gt;AccountFreezing::create -->
<g id="edge26" class="edge">
<title>make_account&#45;&gt;AccountFreezing::create</title>
<path fill="none" stroke="black" d="M881.29,-403.66C871.85,-398.6 861.97,-392.32 854,-385 823.19,-356.71 798.37,-314.58 784.41,-287.71"/>
<polygon fill="black" stroke="black" points="787.41,-285.89 779.76,-278.55 781.16,-289.05 787.41,-285.89"/>
</g>
<!-- create_authentication_key -->
<g id="node24" class="node">
<title>create_authentication_key</title>
<ellipse fill="none" stroke="black" cx="1617" cy="-261" rx="102.88" ry="18"/>
<text text-anchor="middle" x="1617" y="-257.3" font-family="Times,serif" font-size="14.00">create_authentication_key</text>
</g>
<!-- make_account&#45;&gt;create_authentication_key -->
<g id="edge27" class="edge">
<title>make_account&#45;&gt;create_authentication_key</title>
<path fill="none" stroke="black" d="M947.34,-403.73C959.03,-399.42 972.39,-395.23 985,-393 1004.15,-389.61 1671.33,-398.83 1685,-385 1705.94,-363.82 1697.71,-344.93 1685,-318 1678.64,-304.53 1667.29,-293.21 1655.65,-284.35"/>
<polygon fill="black" stroke="black" points="1657.37,-281.28 1647.2,-278.33 1653.32,-286.98 1657.37,-281.28"/>
</g>
<!-- destroy_signer -->
<g id="node25" class="node">
<title>destroy_signer</title>
<ellipse fill="none" stroke="black" cx="1614" cy="-336" rx="62.29" ry="18"/>
<text text-anchor="middle" x="1614" y="-332.3" font-family="Times,serif" font-size="14.00">destroy_signer</text>
</g>
<!-- make_account&#45;&gt;destroy_signer -->
<g id="edge28" class="edge">
<title>make_account&#45;&gt;destroy_signer</title>
<path fill="none" stroke="black" d="M947.34,-403.76C959.03,-399.44 972.39,-395.25 985,-393 1045.5,-382.21 1479.1,-402.51 1538,-385 1555.59,-379.77 1573.06,-369.22 1586.8,-359.34"/>
<polygon fill="black" stroke="black" points="1588.93,-362.11 1594.85,-353.32 1584.74,-356.51 1588.93,-362.11"/>
</g>
<!-- Roles::assert_diem_root&#45;&gt;Signer::address_of -->
<g id="edge29" class="edge">
<title>Roles::assert_diem_root&#45;&gt;Signer::address_of</title>
<path fill="none" stroke="black" d="M475.13,-245.68C488.21,-241.41 503.07,-237.27 517,-235 559.23,-228.11 861.72,-241.42 902,-227 916.36,-221.86 929.94,-211.89 940.63,-202.36"/>
<polygon fill="black" stroke="black" points="943.31,-204.64 948.2,-195.24 938.52,-199.54 943.31,-204.64"/>
</g>
<!-- Roles::assert_diem_root&#45;&gt;Errors::not_published -->
<g id="edge30" class="edge">
<title>Roles::assert_diem_root&#45;&gt;Errors::not_published</title>
<path fill="none" stroke="black" d="M385.22,-248.49C360.98,-243.54 331.63,-238.18 305,-235 269.87,-230.81 179.52,-238.32 146,-227 130.01,-221.6 114.31,-211.42 101.84,-201.82"/>
<polygon fill="black" stroke="black" points="103.76,-198.87 93.77,-195.33 99.37,-204.32 103.76,-198.87"/>
</g>
<!-- Errors::requires_role -->
<g id="node26" class="node">
<title>Errors::requires_role</title>
<ellipse fill="none" stroke="black" cx="212" cy="-178" rx="57.39" ry="18"/>
<text text-anchor="middle" x="212" y="-174.3" font-family="Times,serif" font-size="14.00">requires_role</text>
</g>
<!-- Roles::assert_diem_root&#45;&gt;Errors::requires_role -->
<g id="edge31" class="edge">
<title>Roles::assert_diem_root&#45;&gt;Errors::requires_role</title>
<path fill="none" stroke="black" d="M381.43,-249.56C339.82,-241.55 288.49,-231.17 279,-227 264.45,-220.61 249.92,-210.73 238.12,-201.6"/>
<polygon fill="black" stroke="black" points="240.05,-198.65 230.06,-195.13 235.67,-204.12 240.05,-198.65"/>
</g>
<!-- CoreAddresses::assert_diem_root -->
<g id="node27" class="node">
<title>CoreAddresses::assert_diem_root</title>
<ellipse fill="none" stroke="black" cx="1967" cy="-261" rx="71.49" ry="18"/>
<text text-anchor="middle" x="1967" y="-257.3" font-family="Times,serif" font-size="14.00">assert_diem_root</text>
</g>
<!-- Roles::assert_diem_root&#45;&gt;CoreAddresses::assert_diem_root -->
<g id="edge32" class="edge">
<title>Roles::assert_diem_root&#45;&gt;CoreAddresses::assert_diem_root</title>
<path fill="none" stroke="black" d="M457.25,-278.39C474.29,-291.62 499.96,-308.47 526,-314 544.33,-317.89 1856.67,-317.89 1875,-314 1897.73,-309.18 1920.37,-296.26 1937.51,-284.38"/>
<polygon fill="black" stroke="black" points="1939.87,-287 1945.94,-278.32 1935.78,-281.32 1939.87,-287"/>
</g>
<!-- Roles::grant_role&#45;&gt;Signer::address_of -->
<g id="edge33" class="edge">
<title>Roles::grant_role&#45;&gt;Signer::address_of</title>
<path fill="none" stroke="black" d="M600.57,-246.25C610.81,-241.8 622.69,-237.4 634,-235 663.14,-228.81 874,-237.17 902,-227 916.33,-221.8 929.91,-211.81 940.61,-202.3"/>
<polygon fill="black" stroke="black" points="943.28,-204.59 948.18,-195.19 938.49,-199.48 943.28,-204.59"/>
</g>
<!-- Roles::grant_role&#45;&gt;Errors::already_published -->
<g id="edge34" class="edge">
<title>Roles::grant_role&#45;&gt;Errors::already_published</title>
<path fill="none" stroke="black" d="M546.27,-246.08C537.2,-241.89 526.86,-237.7 517,-235 487.23,-226.84 477.36,-236.56 448,-227 429.28,-220.9 410.04,-210.45 394.61,-200.86"/>
<polygon fill="black" stroke="black" points="396.31,-197.79 386,-195.34 392.53,-203.68 396.31,-197.79"/>
</g>
<!-- Signer::borrow_address -->
<g id="node28" class="node">
<title>Signer::borrow_address</title>
<ellipse fill="none" stroke="black" cx="981" cy="-106" rx="66.89" ry="18"/>
<text text-anchor="middle" x="981" y="-102.3" font-family="Times,serif" font-size="14.00">borrow_address</text>
</g>
<!-- Signer::address_of&#45;&gt;Signer::borrow_address -->
<g id="edge35" class="edge">
<title>Signer::address_of&#45;&gt;Signer::borrow_address</title>
<path fill="none" stroke="black" d="M967.36,-160.05C969.36,-152.26 971.79,-142.82 974.04,-134.08"/>
<polygon fill="black" stroke="black" points="977.46,-134.83 976.56,-124.28 970.68,-133.09 977.46,-134.83"/>
</g>
<!-- Errors::make -->
<g id="node29" class="node">
<title>Errors::make</title>
<ellipse fill="none" stroke="black" cx="446" cy="-106" rx="30.59" ry="18"/>
<text text-anchor="middle" x="446" y="-102.3" font-family="Times,serif" font-size="14.00">make</text>
</g>
<!-- Errors::already_published&#45;&gt;Errors::make -->
<g id="edge36" class="edge">
<title>Errors::already_published&#45;&gt;Errors::make</title>
<path fill="none" stroke="black" d="M382.67,-160.41C394.31,-150.59 409.15,-138.08 421.54,-127.63"/>
<polygon fill="black" stroke="black" points="423.88,-130.23 429.27,-121.11 419.37,-124.88 423.88,-130.23"/>
</g>
<!-- Errors::invalid_state -->
<g id="node30" class="node">
<title>Errors::invalid_state</title>
<ellipse fill="none" stroke="black" cx="677" cy="-178" rx="55.79" ry="18"/>
<text text-anchor="middle" x="677" y="-174.3" font-family="Times,serif" font-size="14.00">invalid_state</text>
</g>
<!-- DiemTimestamp::assert_operating&#45;&gt;Errors::invalid_state -->
<g id="edge37" class="edge">
<title>DiemTimestamp::assert_operating&#45;&gt;Errors::invalid_state</title>
<path fill="none" stroke="black" d="M1392.23,-320.5C1387.4,-317.51 1382.8,-314.03 1379,-310 1354,-283.52 1376.37,-255.1 1346,-235 1317.97,-216.45 772.82,-237.84 741,-227 725.98,-221.88 711.62,-211.77 700.32,-202.14"/>
<polygon fill="black" stroke="black" points="702.45,-199.35 692.66,-195.29 697.78,-204.57 702.45,-199.35"/>
</g>
<!-- DiemTimestamp::is_operating -->
<g id="node31" class="node">
<title>DiemTimestamp::is_operating</title>
<ellipse fill="none" stroke="black" cx="1442" cy="-261" rx="53.89" ry="18"/>
<text text-anchor="middle" x="1442" y="-257.3" font-family="Times,serif" font-size="14.00">is_operating</text>
</g>
<!-- DiemTimestamp::assert_operating&#45;&gt;DiemTimestamp::is_operating -->
<g id="edge38" class="edge">
<title>DiemTimestamp::assert_operating&#45;&gt;DiemTimestamp::is_operating</title>
<path fill="none" stroke="black" d="M1431.32,-317.7C1432.96,-309.15 1434.97,-298.65 1436.81,-289.07"/>
<polygon fill="black" stroke="black" points="1440.26,-289.66 1438.71,-279.18 1433.39,-288.34 1440.26,-289.66"/>
</g>
<!-- Roles::assert_validator&#45;&gt;Signer::address_of -->
<g id="edge39" class="edge">
<title>Roles::assert_validator&#45;&gt;Signer::address_of</title>
<path fill="none" stroke="black" d="M344.16,-323.08C353.64,-321.04 363.6,-319.2 373,-318 401.23,-314.39 603.04,-321.66 629,-310 670.87,-291.2 658.21,-253.98 700,-235 740.91,-216.43 859.85,-242.54 902,-227 916.11,-221.8 929.5,-212.02 940.13,-202.63"/>
<polygon fill="black" stroke="black" points="942.74,-204.99 947.68,-195.62 937.97,-199.86 942.74,-204.99"/>
</g>
<!-- Roles::assert_validator&#45;&gt;Errors::not_published -->
<g id="edge40" class="edge">
<title>Roles::assert_validator&#45;&gt;Errors::not_published</title>
<path fill="none" stroke="black" d="M261.37,-320.98C254.11,-317.71 246.68,-314.01 240,-310 186.94,-278.16 132.1,-230.91 101.2,-202.71"/>
<polygon fill="black" stroke="black" points="103.24,-199.83 93.51,-195.64 98.5,-204.98 103.24,-199.83"/>
</g>
<!-- Roles::assert_validator&#45;&gt;Errors::requires_role -->
<g id="edge41" class="edge">
<title>Roles::assert_validator&#45;&gt;Errors::requires_role</title>
<path fill="none" stroke="black" d="M288.63,-318.01C273.58,-290.7 243.89,-236.85 226.21,-204.78"/>
<polygon fill="black" stroke="black" points="229.25,-203.04 221.36,-195.97 223.12,-206.42 229.25,-203.04"/>
</g>
<!-- Vector::empty -->
<g id="node32" class="node">
<title>Vector::empty</title>
<ellipse fill="none" stroke="black" cx="1802" cy="-106" rx="33.29" ry="18"/>
<text text-anchor="middle" x="1802" y="-102.3" font-family="Times,serif" font-size="14.00">empty</text>
</g>
<!-- Option::none&#45;&gt;Vector::empty -->
<g id="edge42" class="edge">
<title>Option::none&#45;&gt;Vector::empty</title>
<path fill="none" stroke="black" d="M1784.64,-247.49C1797.4,-238.83 1812.17,-228.59 1813,-227 1828.26,-197.63 1820.46,-158.73 1812.27,-133.3"/>
<polygon fill="black" stroke="black" points="1815.5,-131.92 1808.92,-123.61 1808.88,-134.21 1815.5,-131.92"/>
</g>
<!-- Errors::invalid_argument&#45;&gt;Errors::make -->
<g id="edge43" class="edge">
<title>Errors::invalid_argument&#45;&gt;Errors::make</title>
<path fill="none" stroke="black" d="M510.09,-160.41C498.31,-150.59 483.29,-138.08 470.75,-127.63"/>
<polygon fill="black" stroke="black" points="472.85,-124.82 462.93,-121.11 468.37,-130.2 472.85,-124.82"/>
</g>
<!-- Errors::not_published&#45;&gt;Errors::make -->
<g id="edge44" class="edge">
<title>Errors::not_published&#45;&gt;Errors::make</title>
<path fill="none" stroke="black" d="M110.48,-163.18C121.67,-159.11 134.23,-154.95 146,-152 237.37,-129.06 347.51,-116.21 405.59,-110.55"/>
<polygon fill="black" stroke="black" points="406.19,-114.01 415.81,-109.57 405.53,-107.04 406.19,-114.01"/>
</g>
<!-- Roles::get_role_id&#45;&gt;Errors::not_published -->
<g id="edge45" class="edge">
<title>Roles::get_role_id&#45;&gt;Errors::not_published</title>
<path fill="none" stroke="black" d="M395.53,-323.79C383.13,-319.78 369.36,-315.01 357,-310 286.46,-281.37 275.81,-257.23 203,-235 178.53,-227.53 169.85,-236.26 146,-227 130.49,-220.98 115.04,-210.93 102.61,-201.57"/>
<polygon fill="black" stroke="black" points="104.57,-198.66 94.53,-195.27 100.26,-204.18 104.57,-198.66"/>
</g>
<!-- Event::write_to_event_store -->
<g id="node33" class="node">
<title>Event::write_to_event_store</title>
<ellipse fill="none" stroke="black" cx="1247" cy="-261" rx="85.29" ry="18"/>
<text text-anchor="middle" x="1247" y="-257.3" font-family="Times,serif" font-size="14.00">write_to_event_store</text>
</g>
<!-- Event::emit_event&#45;&gt;Event::write_to_event_store -->
<g id="edge46" class="edge">
<title>Event::emit_event&#45;&gt;Event::write_to_event_store</title>
<path fill="none" stroke="black" d="M1275.42,-318.07C1270.92,-309.2 1265.31,-298.13 1260.27,-288.18"/>
<polygon fill="black" stroke="black" points="1263.31,-286.43 1255.66,-279.09 1257.06,-289.59 1263.31,-286.43"/>
</g>
<!-- Event::new_event_handle&#45;&gt;Signer::address_of -->
<g id="edge47" class="edge">
<title>Event::new_event_handle&#45;&gt;Signer::address_of</title>
<path fill="none" stroke="black" d="M1080.27,-324.35C1062.62,-320.29 1046.06,-315.34 1039,-310 1008.36,-286.82 1015.31,-268.22 996,-235 990.16,-224.95 983.67,-213.91 978,-204.31"/>
<polygon fill="black" stroke="black" points="980.97,-202.46 972.87,-195.63 974.95,-206.02 980.97,-202.46"/>
</g>
<!-- Event::new_event_handle&#45;&gt;Errors::not_published -->
<g id="edge48" class="edge">
<title>Event::new_event_handle&#45;&gt;Errors::not_published</title>
<path fill="none" stroke="black" d="M1083.11,-323.48C1073.1,-321.55 1062.75,-319.65 1053,-318 1027.78,-313.74 1020.66,-316.8 996,-310 913.24,-287.18 902.04,-252.5 818,-235 781.45,-227.39 181.6,-238.26 146,-227 129.79,-221.87 113.97,-211.62 101.49,-201.9"/>
<polygon fill="black" stroke="black" points="103.38,-198.92 93.41,-195.32 98.96,-204.35 103.38,-198.92"/>
</g>
<!-- Event::fresh_guid -->
<g id="node34" class="node">
<title>Event::fresh_guid</title>
<ellipse fill="none" stroke="black" cx="1096" cy="-261" rx="48.19" ry="18"/>
<text text-anchor="middle" x="1096" y="-257.3" font-family="Times,serif" font-size="14.00">fresh_guid</text>
</g>
<!-- Event::new_event_handle&#45;&gt;Event::fresh_guid -->
<g id="edge49" class="edge">
<title>Event::new_event_handle&#45;&gt;Event::fresh_guid</title>
<path fill="none" stroke="black" d="M1129.03,-318.07C1123.71,-309.04 1117.05,-297.74 1111.11,-287.66"/>
<polygon fill="black" stroke="black" points="1114.01,-285.68 1105.92,-278.84 1107.98,-289.23 1114.01,-285.68"/>
</g>
<!-- Vector::singleton -->
<g id="node35" class="node">
<title>Vector::singleton</title>
<ellipse fill="none" stroke="black" cx="1761" cy="-178" rx="42.79" ry="18"/>
<text text-anchor="middle" x="1761" y="-174.3" font-family="Times,serif" font-size="14.00">singleton</text>
</g>
<!-- Option::some&#45;&gt;Vector::singleton -->
<g id="edge50" class="edge">
<title>Option::some&#45;&gt;Vector::singleton</title>
<path fill="none" stroke="black" d="M1827.14,-245.14C1815.12,-233.12 1797.98,-215.98 1784.15,-202.15"/>
<polygon fill="black" stroke="black" points="1786.42,-199.47 1776.87,-194.87 1781.47,-204.42 1786.42,-199.47"/>
</g>
<!-- AccountFreezing::create&#45;&gt;Signer::address_of -->
<g id="edge51" class="edge">
<title>AccountFreezing::create&#45;&gt;Signer::address_of</title>
<path fill="none" stroke="black" d="M792.29,-246.68C800.03,-242.23 809.13,-237.71 818,-235 853.87,-224.05 867.18,-240.94 902,-227 915.96,-221.41 929.33,-211.58 939.99,-202.26"/>
<polygon fill="black" stroke="black" points="942.56,-204.65 947.56,-195.32 937.83,-199.49 942.56,-204.65"/>
</g>
<!-- AccountFreezing::create&#45;&gt;Errors::already_published -->
<g id="edge52" class="edge">
<title>AccountFreezing::create&#45;&gt;Errors::already_published</title>
<path fill="none" stroke="black" d="M747.51,-249.42C733.81,-244.04 716.26,-238.01 700,-235 644.91,-224.81 501.95,-242.1 448,-227 428.76,-221.62 409.22,-211.01 393.73,-201.14"/>
<polygon fill="black" stroke="black" points="395.39,-198.04 385.12,-195.46 391.54,-203.89 395.39,-198.04"/>
</g>
<!-- create_authentication_key&#45;&gt;Errors::invalid_argument -->
<g id="edge54" class="edge">
<title>create_authentication_key&#45;&gt;Errors::invalid_argument</title>
<path fill="none" stroke="black" d="M1564.46,-245.53C1546.67,-241.28 1526.61,-237.19 1508,-235 1458.56,-229.18 659.99,-240.24 612,-227 593.12,-221.79 574.12,-211.09 559.17,-201.12"/>
<polygon fill="black" stroke="black" points="561.08,-198.18 550.87,-195.37 557.1,-203.94 561.08,-198.18"/>
</g>
<!-- create_authentication_key&#45;&gt;Signer::borrow_address -->
<g id="edge53" class="edge">
<title>create_authentication_key&#45;&gt;Signer::borrow_address</title>
<path fill="none" stroke="black" d="M1563.88,-245.58C1546.24,-241.39 1526.4,-237.32 1508,-235 1490.69,-232.82 1208.32,-236.97 1194,-227 1164.53,-206.5 1191.09,-175.56 1164,-152 1134.77,-126.59 1093.45,-115.06 1057.46,-110"/>
<polygon fill="black" stroke="black" points="1057.83,-106.52 1047.47,-108.74 1056.95,-113.46 1057.83,-106.52"/>
</g>
<!-- Vector::append -->
<g id="node36" class="node">
<title>Vector::append</title>
<ellipse fill="none" stroke="black" cx="1493" cy="-178" rx="36.29" ry="18"/>
<text text-anchor="middle" x="1493" y="-174.3" font-family="Times,serif" font-size="14.00">append</text>
</g>
<!-- create_authentication_key&#45;&gt;Vector::append -->
<g id="edge55" class="edge">
<title>create_authentication_key&#45;&gt;Vector::append</title>
<path fill="none" stroke="black" d="M1591.61,-243.41C1571.64,-230.37 1543.79,-212.18 1522.78,-198.45"/>
<polygon fill="black" stroke="black" points="1524.52,-195.41 1514.23,-192.87 1520.69,-201.27 1524.52,-195.41"/>
</g>
<!-- Vector::length -->
<g id="node37" class="node">
<title>Vector::length</title>
<ellipse fill="none" stroke="black" cx="1532" cy="-34" rx="32.49" ry="18"/>
<text text-anchor="middle" x="1532" y="-30.3" font-family="Times,serif" font-size="14.00">length</text>
</g>
<!-- create_authentication_key&#45;&gt;Vector::length -->
<g id="edge56" class="edge">
<title>create_authentication_key&#45;&gt;Vector::length</title>
<path fill="none" stroke="black" d="M1672.45,-245.77C1689.53,-241.8 1708.46,-237.81 1726,-235 1745.17,-231.93 1797.97,-239.28 1813,-227 1864.71,-184.75 1887.71,-130.47 1844,-80 1809.69,-40.39 1652.14,-34.86 1574.91,-34.59"/>
<polygon fill="black" stroke="black" points="1574.57,-31.09 1564.57,-34.58 1574.57,-38.09 1574.57,-31.09"/>
</g>
<!-- BCS::to_bytes -->
<g id="node38" class="node">
<title>BCS::to_bytes</title>
<ellipse fill="none" stroke="black" cx="1112" cy="-178" rx="40.09" ry="18"/>
<text text-anchor="middle" x="1112" y="-174.3" font-family="Times,serif" font-size="14.00">to_bytes</text>
</g>
<!-- create_authentication_key&#45;&gt;BCS::to_bytes -->
<g id="edge57" class="edge">
<title>create_authentication_key&#45;&gt;BCS::to_bytes</title>
<path fill="none" stroke="black" d="M1563.88,-245.55C1546.24,-241.36 1526.4,-237.3 1508,-235 1470.28,-230.28 1201.37,-240.92 1166,-227 1152.92,-221.85 1140.95,-212.02 1131.62,-202.58"/>
<polygon fill="black" stroke="black" points="1134.11,-200.12 1124.73,-195.2 1128.99,-204.9 1134.11,-200.12"/>
</g>
<!-- Errors::requires_role&#45;&gt;Errors::make -->
<g id="edge58" class="edge">
<title>Errors::requires_role&#45;&gt;Errors::make</title>
<path fill="none" stroke="black" d="M246.21,-163.53C256.67,-159.6 268.24,-155.45 279,-152 322.92,-137.92 374.26,-124.54 408.3,-116.08"/>
<polygon fill="black" stroke="black" points="409.41,-119.41 418.29,-113.62 407.74,-112.62 409.41,-119.41"/>
</g>
<!-- CoreAddresses::assert_diem_root&#45;&gt;Signer::address_of -->
<g id="edge59" class="edge">
<title>CoreAddresses::assert_diem_root&#45;&gt;Signer::address_of</title>
<path fill="none" stroke="black" d="M1928.26,-245.86C1914.48,-241.49 1898.73,-237.24 1884,-235 1838.74,-228.11 1104.53,-237.64 1060,-227 1036.86,-221.47 1012.89,-209.67 994.56,-199.15"/>
<polygon fill="black" stroke="black" points="996.17,-196.04 985.78,-193.97 992.61,-202.07 996.17,-196.04"/>
</g>
<!-- CoreAddresses::assert_diem_root&#45;&gt;CoreAddresses::DIEM_ROOT_ADDRESS -->
<g id="edge61" class="edge">
<title>CoreAddresses::assert_diem_root&#45;&gt;CoreAddresses::DIEM_ROOT_ADDRESS</title>
<path fill="none" stroke="black" d="M1975.06,-242.82C1980.15,-231.98 1986.82,-217.74 1992.58,-205.47"/>
<polygon fill="black" stroke="black" points="1995.87,-206.69 1996.95,-196.15 1989.54,-203.72 1995.87,-206.69"/>
</g>
<!-- Errors::requires_address -->
<g id="node39" class="node">
<title>Errors::requires_address</title>
<ellipse fill="none" stroke="black" cx="820" cy="-178" rx="69.59" ry="18"/>
<text text-anchor="middle" x="820" y="-174.3" font-family="Times,serif" font-size="14.00">requires_address</text>
</g>
<!-- CoreAddresses::assert_diem_root&#45;&gt;Errors::requires_address -->
<g id="edge60" class="edge">
<title>CoreAddresses::assert_diem_root&#45;&gt;Errors::requires_address</title>
<path fill="none" stroke="black" d="M1928.26,-245.84C1914.48,-241.48 1898.73,-237.23 1884,-235 1830.06,-226.83 954.6,-241.49 902,-227 883.12,-221.8 864.12,-211.1 849.17,-201.12"/>
<polygon fill="black" stroke="black" points="851.08,-198.19 840.87,-195.38 847.1,-203.94 851.08,-198.19"/>
</g>
<!-- Errors::invalid_state&#45;&gt;Errors::make -->
<g id="edge62" class="edge">
<title>Errors::invalid_state&#45;&gt;Errors::make</title>
<path fill="none" stroke="black" d="M643.83,-163.49C633.69,-159.57 622.46,-155.42 612,-152 568.53,-137.79 517.66,-124.48 483.8,-116.07"/>
<polygon fill="black" stroke="black" points="484.41,-112.62 473.87,-113.63 482.74,-119.42 484.41,-112.62"/>
</g>
<!-- DiemTimestamp::is_operating&#45;&gt;CoreAddresses::DIEM_ROOT_ADDRESS -->
<g id="edge63" class="edge">
<title>DiemTimestamp::is_operating&#45;&gt;CoreAddresses::DIEM_ROOT_ADDRESS</title>
<path fill="none" stroke="black" d="M1471.46,-245.81C1481.82,-241.5 1493.7,-237.3 1505,-235 1579.5,-219.85 1771.94,-239.05 1847,-227 1883.91,-221.08 1924.21,-208.73 1954.87,-198.05"/>
<polygon fill="black" stroke="black" points="1956.21,-201.29 1964.47,-194.65 1953.87,-194.69 1956.21,-201.29"/>
</g>
<!-- Event::fresh_guid&#45;&gt;Vector::append -->
<g id="edge64" class="edge">
<title>Event::fresh_guid&#45;&gt;Vector::append</title>
<path fill="none" stroke="black" d="M1123.6,-246.24C1132.77,-242.11 1143.16,-237.92 1153,-235 1255.62,-204.57 1380.89,-189.32 1447.01,-182.9"/>
<polygon fill="black" stroke="black" points="1447.48,-186.37 1457.1,-181.94 1446.82,-179.4 1447.48,-186.37"/>
</g>
<!-- Event::fresh_guid&#45;&gt;BCS::to_bytes -->
<g id="edge65" class="edge">
<title>Event::fresh_guid&#45;&gt;BCS::to_bytes</title>
<path fill="none" stroke="black" d="M1099.39,-242.82C1101.49,-232.19 1104.24,-218.31 1106.63,-206.2"/>
<polygon fill="black" stroke="black" points="1110.11,-206.64 1108.61,-196.15 1103.24,-205.29 1110.11,-206.64"/>
</g>
<!-- Vector::singleton&#45;&gt;Vector::empty -->
<g id="edge66" class="edge">
<title>Vector::singleton&#45;&gt;Vector::empty</title>
<path fill="none" stroke="black" d="M1770.72,-160.41C1775.62,-152.04 1781.67,-141.71 1787.14,-132.37"/>
<polygon fill="black" stroke="black" points="1790.32,-133.87 1792.35,-123.47 1784.28,-130.33 1790.32,-133.87"/>
</g>
<!-- Vector::push_back -->
<g id="node40" class="node">
<title>Vector::push_back</title>
<ellipse fill="none" stroke="black" cx="1703" cy="-106" rx="48.19" ry="18"/>
<text text-anchor="middle" x="1703" y="-102.3" font-family="Times,serif" font-size="14.00">push_back</text>
</g>
<!-- Vector::singleton&#45;&gt;Vector::push_back -->
<g id="edge67" class="edge">
<title>Vector::singleton&#45;&gt;Vector::push_back</title>
<path fill="none" stroke="black" d="M1747.55,-160.76C1740.33,-152.06 1731.29,-141.15 1723.25,-131.43"/>
<polygon fill="black" stroke="black" points="1725.86,-129.1 1716.78,-123.63 1720.47,-133.57 1725.86,-129.1"/>
</g>
<!-- Vector::append&#45;&gt;Vector::push_back -->
<g id="edge71" class="edge">
<title>Vector::append&#45;&gt;Vector::push_back</title>
<path fill="none" stroke="black" d="M1522.64,-167.12C1558.05,-155.32 1617.62,-135.46 1658.55,-121.82"/>
<polygon fill="black" stroke="black" points="1659.89,-125.06 1668.27,-118.58 1657.67,-118.42 1659.89,-125.06"/>
</g>
<!-- Vector::destroy_empty -->
<g id="node41" class="node">
<title>Vector::destroy_empty</title>
<ellipse fill="none" stroke="black" cx="1375" cy="-106" rx="63.89" ry="18"/>
<text text-anchor="middle" x="1375" y="-102.3" font-family="Times,serif" font-size="14.00">destroy_empty</text>
</g>
<!-- Vector::append&#45;&gt;Vector::destroy_empty -->
<g id="edge68" class="edge">
<title>Vector::append&#45;&gt;Vector::destroy_empty</title>
<path fill="none" stroke="black" d="M1470.53,-163.67C1453.36,-153.49 1429.4,-139.27 1409.77,-127.62"/>
<polygon fill="black" stroke="black" points="1411.48,-124.57 1401.09,-122.48 1407.91,-130.59 1411.48,-124.57"/>
</g>
<!-- Vector::is_empty -->
<g id="node42" class="node">
<title>Vector::is_empty</title>
<ellipse fill="none" stroke="black" cx="1250" cy="-106" rx="43.59" ry="18"/>
<text text-anchor="middle" x="1250" y="-102.3" font-family="Times,serif" font-size="14.00">is_empty</text>
</g>
<!-- Vector::append&#45;&gt;Vector::is_empty -->
<g id="edge69" class="edge">
<title>Vector::append&#45;&gt;Vector::is_empty</title>
<path fill="none" stroke="black" d="M1461.44,-168.71C1423.47,-158.63 1357.84,-140.87 1302,-124 1298.86,-123.05 1295.63,-122.05 1292.38,-121.03"/>
<polygon fill="black" stroke="black" points="1293.25,-117.63 1282.66,-117.93 1291.12,-124.3 1293.25,-117.63"/>
</g>
<!-- Vector::pop_back -->
<g id="node43" class="node">
<title>Vector::pop_back</title>
<ellipse fill="none" stroke="black" cx="1592" cy="-106" rx="44.69" ry="18"/>
<text text-anchor="middle" x="1592" y="-102.3" font-family="Times,serif" font-size="14.00">pop_back</text>
</g>
<!-- Vector::append&#45;&gt;Vector::pop_back -->
<g id="edge70" class="edge">
<title>Vector::append&#45;&gt;Vector::pop_back</title>
<path fill="none" stroke="black" d="M1513.03,-162.83C1527.15,-152.86 1546.28,-139.33 1562.18,-128.09"/>
<polygon fill="black" stroke="black" points="1564.48,-130.74 1570.63,-122.11 1560.44,-125.03 1564.48,-130.74"/>
</g>
<!-- Vector::reverse -->
<g id="node44" class="node">
<title>Vector::reverse</title>
<ellipse fill="none" stroke="black" cx="1493" cy="-106" rx="36.29" ry="18"/>
<text text-anchor="middle" x="1493" y="-102.3" font-family="Times,serif" font-size="14.00">reverse</text>
</g>
<!-- Vector::append&#45;&gt;Vector::reverse -->
<g id="edge72" class="edge">
<title>Vector::append&#45;&gt;Vector::reverse</title>
<path fill="none" stroke="black" d="M1493,-159.7C1493,-151.98 1493,-142.71 1493,-134.11"/>
<polygon fill="black" stroke="black" points="1496.5,-134.1 1493,-124.1 1489.5,-134.1 1496.5,-134.1"/>
</g>
<!-- Errors::requires_address&#45;&gt;Errors::make -->
<g id="edge73" class="edge">
<title>Errors::requires_address&#45;&gt;Errors::make</title>
<path fill="none" stroke="black" d="M780.66,-163.05C768.39,-159.06 754.74,-154.99 742,-152 651.72,-130.81 543.53,-117.3 486.22,-111.06"/>
<polygon fill="black" stroke="black" points="486.45,-107.56 476.13,-109.98 485.7,-114.52 486.45,-107.56"/>
</g>
<!-- Vector::is_empty&#45;&gt;Vector::length -->
<g id="edge74" class="edge">
<title>Vector::is_empty&#45;&gt;Vector::length</title>
<path fill="none" stroke="black" d="M1275.04,-91.08C1283.4,-86.95 1292.9,-82.79 1302,-80 1383.18,-55.1 1409.16,-74.66 1491,-52 1493.32,-51.36 1495.68,-50.62 1498.04,-49.82"/>
<polygon fill="black" stroke="black" points="1499.48,-53.02 1507.63,-46.25 1497.04,-46.46 1499.48,-53.02"/>
</g>
<!-- Vector::reverse&#45;&gt;Vector::length -->
<g id="edge75" class="edge">
<title>Vector::reverse&#45;&gt;Vector::length</title>
<path fill="none" stroke="black" d="M1502.24,-88.41C1506.91,-80.04 1512.66,-69.71 1517.87,-60.37"/>
<polygon fill="black" stroke="black" points="1521.01,-61.91 1522.82,-51.47 1514.9,-58.5 1521.01,-61.91"/>
</g>
<!-- Vector::swap -->
<g id="node45" class="node">
<title>Vector::swap</title>
<ellipse fill="none" stroke="black" cx="1453" cy="-34" rx="28.7" ry="18"/>
<text text-anchor="middle" x="1453" y="-30.3" font-family="Times,serif" font-size="14.00">swap</text>
</g>
<!-- Vector::reverse&#45;&gt;Vector::swap -->
<g id="edge76" class="edge">
<title>Vector::reverse&#45;&gt;Vector::swap</title>
<path fill="none" stroke="black" d="M1483.52,-88.41C1478.74,-80.04 1472.83,-69.71 1467.5,-60.37"/>
<polygon fill="black" stroke="black" points="1470.41,-58.42 1462.41,-51.47 1464.33,-61.89 1470.41,-58.42"/>
</g>
</g>
</svg>
