<?xml version="1.0" encoding="UTF-8" standalone="no"?>
<!DOCTYPE svg PUBLIC "-//W3C//DTD SVG 1.1//EN"
 "http://www.w3.org/Graphics/SVG/1.1/DTD/svg11.dtd">
<!-- Generated by graphviz version 2.46.1 (20210213.1702)
 -->
<!-- Title: G Pages: 1 -->
<svg width="186pt" height="207pt"
 viewBox="0.00 0.00 186.00 207.00" xmlns="http://www.w3.org/2000/svg" xmlns:xlink="http://www.w3.org/1999/xlink">
<g id="graph0" class="graph" transform="scale(1 1) rotate(0) translate(4 203)">
<title>G</title>
<polygon fill="white" stroke="transparent" points="-4,4 -4,-203 182,-203 182,4 -4,4"/>
<g id="clust1" class="cluster">
<title>cluster_Errors</title>
<polygon fill="none" stroke="black" points="8,-8 8,-155 170,-155 170,-8 8,-8"/>
<text text-anchor="middle" x="89" y="-139.8" font-family="Times,serif" font-size="14.00">Errors</text>
</g>
<!-- destroy_zero -->
<g id="node1" class="node">
<title>destroy_zero</title>
<ellipse fill="none" stroke="black" cx="89" cy="-181" rx="55.79" ry="18"/>
<text text-anchor="middle" x="89" y="-177.3" font-family="Times,serif" font-size="14.00">destroy_zero</text>
</g>
<!-- Errors::invalid_argument -->
<g id="node2" class="node">
<title>Errors::invalid_argument</title>
<ellipse fill="none" stroke="black" cx="89" cy="-106" rx="73.39" ry="18"/>
<text text-anchor="middle" x="89" y="-102.3" font-family="Times,serif" font-size="14.00">invalid_argument</text>
</g>
<!-- destroy_zero&#45;&gt;Errors::invalid_argument -->
<g id="edge1" class="edge">
<title>destroy_zero&#45;&gt;Errors::invalid_argument</title>
<path fill="none" stroke="black" d="M89,-162.7C89,-154.25 89,-143.87 89,-134.37"/>
<polygon fill="black" stroke="black" points="92.5,-134.18 89,-124.18 85.5,-134.18 92.5,-134.18"/>
</g>
<!-- Errors::make -->
<g id="node3" class="node">
<title>Errors::make</title>
<ellipse fill="none" stroke="black" cx="89" cy="-34" rx="30.59" ry="18"/>
<text text-anchor="middle" x="89" y="-30.3" font-family="Times,serif" font-size="14.00">make</text>
</g>
<!-- Errors::invalid_argument&#45;&gt;Errors::make -->
<g id="edge2" class="edge">
<title>Errors::invalid_argument&#45;&gt;Errors::make</title>
<path fill="none" stroke="black" d="M89,-87.7C89,-79.98 89,-70.71 89,-62.11"/>
<polygon fill="black" stroke="black" points="92.5,-62.1 89,-52.1 85.5,-62.1 92.5,-62.1"/>
</g>
</g>
</svg>
