<?xml version="1.0" encoding="UTF-8" standalone="no"?>
<!DOCTYPE svg PUBLIC "-//W3C//DTD SVG 1.1//EN"
 "http://www.w3.org/Graphics/SVG/1.1/DTD/svg11.dtd">
<!-- Generated by graphviz version 2.46.1 (20210213.1702)
 -->
<!-- Title: G Pages: 1 -->
<svg width="390pt" height="210pt"
 viewBox="0.00 0.00 390.00 210.00" xmlns="http://www.w3.org/2000/svg" xmlns:xlink="http://www.w3.org/1999/xlink">
<g id="graph0" class="graph" transform="scale(1 1) rotate(0) translate(4 206)">
<title>G</title>
<polygon fill="white" stroke="transparent" points="-4,4 -4,-206 386,-206 386,4 -4,4"/>
<g id="clust1" class="cluster">
<title>cluster_Errors</title>
<polygon fill="none" stroke="black" points="8,-8 8,-158 136,-158 136,-8 8,-8"/>
<text text-anchor="middle" x="72" y="-142.8" font-family="Times,serif" font-size="14.00">Errors</text>
</g>
<g id="clust2" class="cluster">
<title>cluster_CoreAddresses</title>
<polygon fill="none" stroke="black" points="144,-8 144,-83 374,-83 374,-8 144,-8"/>
<text text-anchor="middle" x="259" y="-67.8" font-family="Times,serif" font-size="14.00">CoreAddresses</text>
</g>
<!-- assert_operating -->
<g id="node1" class="node">
<title>assert_operating</title>
<ellipse fill="none" stroke="black" cx="150" cy="-184" rx="68.49" ry="18"/>
<text text-anchor="middle" x="150" y="-180.3" font-family="Times,serif" font-size="14.00">assert_operating</text>
</g>
<!-- Errors::invalid_state -->
<g id="node2" class="node">
<title>Errors::invalid_state</title>
<ellipse fill="none" stroke="black" cx="72" cy="-109" rx="55.79" ry="18"/>
<text text-anchor="middle" x="72" y="-105.3" font-family="Times,serif" font-size="14.00">invalid_state</text>
</g>
<!-- assert_operating&#45;&gt;Errors::invalid_state -->
<g id="edge1" class="edge">
<title>assert_operating&#45;&gt;Errors::invalid_state</title>
<path fill="none" stroke="black" d="M132.3,-166.44C121.86,-156.66 108.47,-144.13 96.97,-133.37"/>
<polygon fill="black" stroke="black" points="99.05,-130.53 89.36,-126.25 94.27,-135.64 99.05,-130.53"/>
</g>
<!-- is_operating -->
<g id="node3" class="node">
<title>is_operating</title>
<ellipse fill="none" stroke="black" cx="229" cy="-109" rx="53.89" ry="18"/>
<text text-anchor="middle" x="229" y="-105.3" font-family="Times,serif" font-size="14.00">is_operating</text>
</g>
<!-- assert_operating&#45;&gt;is_operating -->
<g id="edge2" class="edge">
<title>assert_operating&#45;&gt;is_operating</title>
<path fill="none" stroke="black" d="M167.93,-166.44C178.61,-156.57 192.32,-143.89 204.05,-133.06"/>
<polygon fill="black" stroke="black" points="206.45,-135.61 211.42,-126.25 201.7,-130.46 206.45,-135.61"/>
</g>
<!-- Errors::make -->
<g id="node4" class="node">
<title>Errors::make</title>
<ellipse fill="none" stroke="black" cx="72" cy="-34" rx="30.59" ry="18"/>
<text text-anchor="middle" x="72" y="-30.3" font-family="Times,serif" font-size="14.00">make</text>
</g>
<!-- Errors::invalid_state&#45;&gt;Errors::make -->
<g id="edge3" class="edge">
<title>Errors::invalid_state&#45;&gt;Errors::make</title>
<path fill="none" stroke="black" d="M72,-90.7C72,-82.25 72,-71.87 72,-62.37"/>
<polygon fill="black" stroke="black" points="75.5,-62.18 72,-52.18 68.5,-62.18 75.5,-62.18"/>
</g>
<!-- CoreAddresses::DIEM_ROOT_ADDRESS -->
<g id="node5" class="node">
<title>CoreAddresses::DIEM_ROOT_ADDRESS</title>
<ellipse fill="none" stroke="black" cx="259" cy="-34" rx="106.68" ry="18"/>
<text text-anchor="middle" x="259" y="-30.3" font-family="Times,serif" font-size="14.00">DIEM_ROOT_ADDRESS</text>
</g>
<!-- is_operating&#45;&gt;CoreAddresses::DIEM_ROOT_ADDRESS -->
<g id="edge4" class="edge">
<title>is_operating&#45;&gt;CoreAddresses::DIEM_ROOT_ADDRESS</title>
<path fill="none" stroke="black" d="M235.96,-91.07C239.57,-82.29 244.06,-71.36 248.11,-61.49"/>
<polygon fill="black" stroke="black" points="251.41,-62.67 251.98,-52.09 244.94,-60.01 251.41,-62.67"/>
</g>
</g>
</svg>
