<?xml version="1.0" encoding="UTF-8" standalone="no"?>
<!DOCTYPE svg PUBLIC "-//W3C//DTD SVG 1.1//EN"
 "http://www.w3.org/Graphics/SVG/1.1/DTD/svg11.dtd">
<!-- Generated by graphviz version 2.46.1 (20210213.1702)
 -->
<!-- Title: G Pages: 1 -->
<svg width="266pt" height="210pt"
 viewBox="0.00 0.00 266.00 210.00" xmlns="http://www.w3.org/2000/svg" xmlns:xlink="http://www.w3.org/1999/xlink">
<g id="graph0" class="graph" transform="scale(1 1) rotate(0) translate(4 206)">
<title>G</title>
<polygon fill="white" stroke="transparent" points="-4,4 -4,-206 262,-206 262,4 -4,4"/>
<g id="clust1" class="cluster">
<title>cluster_Errors</title>
<polygon fill="none" stroke="black" points="8,-8 8,-158 144,-158 144,-8 8,-8"/>
<text text-anchor="middle" x="76" y="-142.8" font-family="Times,serif" font-size="14.00">Errors</text>
</g>
<g id="clust2" class="cluster">
<title>cluster_Diem</title>
<polygon fill="none" stroke="black" points="168,-8 168,-83 244,-83 244,-8 168,-8"/>
<text text-anchor="middle" x="206" y="-67.8" font-family="Times,serif" font-size="14.00">Diem</text>
</g>
<!-- balance -->
<g id="node1" class="node">
<title>balance</title>
<ellipse fill="none" stroke="black" cx="141" cy="-184" rx="37.89" ry="18"/>
<text text-anchor="middle" x="141" y="-180.3" font-family="Times,serif" font-size="14.00">balance</text>
</g>
<!-- Errors::not_published -->
<g id="node2" class="node">
<title>Errors::not_published</title>
<ellipse fill="none" stroke="black" cx="76" cy="-109" rx="60.39" ry="18"/>
<text text-anchor="middle" x="76" y="-105.3" font-family="Times,serif" font-size="14.00">not_published</text>
</g>
<!-- balance&#45;&gt;Errors::not_published -->
<g id="edge1" class="edge">
<title>balance&#45;&gt;Errors::not_published</title>
<path fill="none" stroke="black" d="M126.9,-167.16C118.3,-157.51 107.15,-144.99 97.48,-134.12"/>
<polygon fill="black" stroke="black" points="100.02,-131.71 90.75,-126.57 94.79,-136.37 100.02,-131.71"/>
</g>
<!-- balance_for -->
<g id="node3" class="node">
<title>balance_for</title>
<ellipse fill="none" stroke="black" cx="206" cy="-109" rx="51.99" ry="18"/>
<text text-anchor="middle" x="206" y="-105.3" font-family="Times,serif" font-size="14.00">balance_for</text>
</g>
<!-- balance&#45;&gt;balance_for -->
<g id="edge2" class="edge">
<title>balance&#45;&gt;balance_for</title>
<path fill="none" stroke="black" d="M155.1,-167.16C163.76,-157.44 175,-144.81 184.72,-133.89"/>
<polygon fill="black" stroke="black" points="187.44,-136.11 191.47,-126.31 182.21,-131.46 187.44,-136.11"/>
</g>
<!-- Errors::make -->
<g id="node4" class="node">
<title>Errors::make</title>
<ellipse fill="none" stroke="black" cx="76" cy="-34" rx="30.59" ry="18"/>
<text text-anchor="middle" x="76" y="-30.3" font-family="Times,serif" font-size="14.00">make</text>
</g>
<!-- Errors::not_published&#45;&gt;Errors::make -->
<g id="edge3" class="edge">
<title>Errors::not_published&#45;&gt;Errors::make</title>
<path fill="none" stroke="black" d="M76,-90.7C76,-82.25 76,-71.87 76,-62.37"/>
<polygon fill="black" stroke="black" points="79.5,-62.18 76,-52.18 72.5,-62.18 79.5,-62.18"/>
</g>
<!-- Diem::value -->
<g id="node5" class="node">
<title>Diem::value</title>
<ellipse fill="none" stroke="black" cx="206" cy="-34" rx="29.8" ry="18"/>
<text text-anchor="middle" x="206" y="-30.3" font-family="Times,serif" font-size="14.00">value</text>
</g>
<!-- balance_for&#45;&gt;Diem::value -->
<g id="edge4" class="edge">
<title>balance_for&#45;&gt;Diem::value</title>
<path fill="none" stroke="black" d="M206,-90.7C206,-82.25 206,-71.87 206,-62.37"/>
<polygon fill="black" stroke="black" points="209.5,-62.18 206,-52.18 202.5,-62.18 209.5,-62.18"/>
</g>
</g>
</svg>
