<?xml version="1.0" encoding="UTF-8" standalone="no"?>
<!DOCTYPE svg PUBLIC "-//W3C//DTD SVG 1.1//EN"
 "http://www.w3.org/Graphics/SVG/1.1/DTD/svg11.dtd">
<!-- Generated by graphviz version 2.46.1 (20210213.1702)
 -->
<!-- Title: G Pages: 1 -->
<svg width="499pt" height="207pt"
 viewBox="0.00 0.00 498.60 207.00" xmlns="http://www.w3.org/2000/svg" xmlns:xlink="http://www.w3.org/1999/xlink">
<g id="graph0" class="graph" transform="scale(1 1) rotate(0) translate(4 203)">
<title>G</title>
<polygon fill="white" stroke="transparent" points="-4,4 -4,-203 494.6,-203 494.6,4 -4,4"/>
<g id="clust1" class="cluster">
<title>cluster_Errors</title>
<polygon fill="none" stroke="black" points="8,-8 8,-155 309,-155 309,-8 8,-8"/>
<text text-anchor="middle" x="158.5" y="-139.8" font-family="Times,serif" font-size="14.00">Errors</text>
</g>
<g id="clust2" class="cluster">
<title>cluster_Vector</title>
<polygon fill="none" stroke="black" points="317,-80 317,-155 397,-155 397,-80 317,-80"/>
<text text-anchor="middle" x="357" y="-139.8" font-family="Times,serif" font-size="14.00">Vector</text>
</g>
<!-- rotate_authentication_key -->
<g id="node1" class="node">
<title>rotate_authentication_key</title>
<ellipse fill="none" stroke="black" cx="292" cy="-181" rx="102.08" ry="18"/>
<text text-anchor="middle" x="292" y="-177.3" font-family="Times,serif" font-size="14.00">rotate_authentication_key</text>
</g>
<!-- Errors::invalid_argument -->
<g id="node2" class="node">
<title>Errors::invalid_argument</title>
<ellipse fill="none" stroke="black" cx="228" cy="-106" rx="73.39" ry="18"/>
<text text-anchor="middle" x="228" y="-102.3" font-family="Times,serif" font-size="14.00">invalid_argument</text>
</g>
<!-- rotate_authentication_key&#45;&gt;Errors::invalid_argument -->
<g id="edge1" class="edge">
<title>rotate_authentication_key&#45;&gt;Errors::invalid_argument</title>
<path fill="none" stroke="black" d="M277.16,-163.07C268.92,-153.67 258.52,-141.82 249.42,-131.43"/>
<polygon fill="black" stroke="black" points="251.99,-129.05 242.76,-123.84 246.72,-133.67 251.99,-129.05"/>
</g>
<!-- Errors::not_published -->
<g id="node3" class="node">
<title>Errors::not_published</title>
<ellipse fill="none" stroke="black" cx="76" cy="-106" rx="60.39" ry="18"/>
<text text-anchor="middle" x="76" y="-102.3" font-family="Times,serif" font-size="14.00">not_published</text>
</g>
<!-- rotate_authentication_key&#45;&gt;Errors::not_published -->
<g id="edge2" class="edge">
<title>rotate_authentication_key&#45;&gt;Errors::not_published</title>
<path fill="none" stroke="black" d="M205.36,-171.48C185.4,-167.81 164.59,-162.54 146,-155 130.69,-148.79 115.36,-138.81 102.97,-129.56"/>
<polygon fill="black" stroke="black" points="104.95,-126.66 94.9,-123.32 100.67,-132.2 104.95,-126.66"/>
</g>
<!-- Vector::length -->
<g id="node4" class="node">
<title>Vector::length</title>
<ellipse fill="none" stroke="black" cx="357" cy="-106" rx="32.49" ry="18"/>
<text text-anchor="middle" x="357" y="-102.3" font-family="Times,serif" font-size="14.00">length</text>
</g>
<!-- rotate_authentication_key&#45;&gt;Vector::length -->
<g id="edge3" class="edge">
<title>rotate_authentication_key&#45;&gt;Vector::length</title>
<path fill="none" stroke="black" d="M307.08,-163.07C315.8,-153.27 326.91,-140.8 336.43,-130.1"/>
<polygon fill="black" stroke="black" points="339.3,-132.14 343.33,-122.35 334.07,-127.49 339.3,-132.14"/>
</g>
<!-- exists_at -->
<g id="node5" class="node">
<title>exists_at</title>
<ellipse fill="none" stroke="black" cx="449" cy="-106" rx="41.69" ry="18"/>
<text text-anchor="middle" x="449" y="-102.3" font-family="Times,serif" font-size="14.00">exists_at</text>
</g>
<!-- rotate_authentication_key&#45;&gt;exists_at -->
<g id="edge4" class="edge">
<title>rotate_authentication_key&#45;&gt;exists_at</title>
<path fill="none" stroke="black" d="M366.77,-168.73C378.64,-165.3 390.47,-160.83 401,-155 411.74,-149.06 421.68,-140.01 429.7,-131.36"/>
<polygon fill="black" stroke="black" points="432.52,-133.46 436.49,-123.64 427.26,-128.84 432.52,-133.46"/>
</g>
<!-- Errors::make -->
<g id="node6" class="node">
<title>Errors::make</title>
<ellipse fill="none" stroke="black" cx="152" cy="-34" rx="30.59" ry="18"/>
<text text-anchor="middle" x="152" y="-30.3" font-family="Times,serif" font-size="14.00">make</text>
</g>
<!-- Errors::invalid_argument&#45;&gt;Errors::make -->
<g id="edge5" class="edge">
<title>Errors::invalid_argument&#45;&gt;Errors::make</title>
<path fill="none" stroke="black" d="M209.99,-88.41C199.57,-78.82 186.36,-66.65 175.18,-56.35"/>
<polygon fill="black" stroke="black" points="177.55,-53.77 167.82,-49.57 172.8,-58.92 177.55,-53.77"/>
</g>
<!-- Errors::not_published&#45;&gt;Errors::make -->
<g id="edge6" class="edge">
<title>Errors::not_published&#45;&gt;Errors::make</title>
<path fill="none" stroke="black" d="M93.63,-88.76C104.1,-79.12 117.51,-66.77 128.83,-56.34"/>
<polygon fill="black" stroke="black" points="131.29,-58.83 136.28,-49.48 126.55,-53.68 131.29,-58.83"/>
</g>
</g>
</svg>
