<?xml version="1.0" encoding="UTF-8" standalone="no"?>
<!DOCTYPE svg PUBLIC "-//W3C//DTD SVG 1.1//EN"
 "http://www.w3.org/Graphics/SVG/1.1/DTD/svg11.dtd">
<!-- Generated by graphviz version 2.46.1 (20210213.1702)
 -->
<!-- Title: G Pages: 1 -->
<svg width="737pt" height="365pt"
 viewBox="0.00 0.00 737.00 365.00" xmlns="http://www.w3.org/2000/svg" xmlns:xlink="http://www.w3.org/1999/xlink">
<g id="graph0" class="graph" transform="scale(1 1) rotate(0) translate(4 361)">
<title>G</title>
<polygon fill="white" stroke="transparent" points="-4,4 -4,-361 733,-361 733,4 -4,4"/>
<g id="clust1" class="cluster">
<title>cluster_Errors</title>
<polygon fill="none" stroke="black" points="8,-8 8,-158 422,-158 422,-8 8,-8"/>
<text text-anchor="middle" x="215" y="-142.8" font-family="Times,serif" font-size="14.00">Errors</text>
</g>
<g id="clust2" class="cluster">
<title>cluster_CoreAddresses</title>
<polygon fill="none" stroke="black" points="449,-8 449,-83 721,-83 721,-8 449,-8"/>
<text text-anchor="middle" x="585" y="-67.8" font-family="Times,serif" font-size="14.00">CoreAddresses</text>
</g>
<g id="clust3" class="cluster">
<title>cluster_Event</title>
<polygon fill="none" stroke="black" points="165,-166 165,-313 351,-313 351,-166 165,-166"/>
<text text-anchor="middle" x="258" y="-297.8" font-family="Times,serif" font-size="14.00">Event</text>
</g>
<!-- preburn_with_resource -->
<g id="node1" class="node">
<title>preburn_with_resource</title>
<ellipse fill="none" stroke="black" cx="370" cy="-339" rx="92.08" ry="18"/>
<text text-anchor="middle" x="370" y="-335.3" font-family="Times,serif" font-size="14.00">preburn_with_resource</text>
</g>
<!-- Errors::invalid_state -->
<g id="node2" class="node">
<title>Errors::invalid_state</title>
<ellipse fill="none" stroke="black" cx="72" cy="-109" rx="55.79" ry="18"/>
<text text-anchor="middle" x="72" y="-105.3" font-family="Times,serif" font-size="14.00">invalid_state</text>
</g>
<!-- preburn_with_resource&#45;&gt;Errors::invalid_state -->
<g id="edge1" class="edge">
<title>preburn_with_resource&#45;&gt;Errors::invalid_state</title>
<path fill="none" stroke="black" d="M278.66,-336.27C197.55,-333.77 89.77,-327.7 76,-313 31.15,-265.13 49.39,-179.6 62.7,-136.44"/>
<polygon fill="black" stroke="black" points="66.03,-137.52 65.77,-126.92 59.37,-135.37 66.03,-137.52"/>
</g>
<!-- Errors::limit_exceeded -->
<g id="node3" class="node">
<title>Errors::limit_exceeded</title>
<ellipse fill="none" stroke="black" cx="211" cy="-109" rx="64.99" ry="18"/>
<text text-anchor="middle" x="211" y="-105.3" font-family="Times,serif" font-size="14.00">limit_exceeded</text>
</g>
<!-- preburn_with_resource&#45;&gt;Errors::limit_exceeded -->
<g id="edge2" class="edge">
<title>preburn_with_resource&#45;&gt;Errors::limit_exceeded</title>
<path fill="none" stroke="black" d="M374.67,-321.02C383,-286.56 395.98,-208.1 355,-166 344.08,-154.78 299.74,-163.29 285,-158 268.57,-152.1 252.09,-141.93 238.87,-132.47"/>
<polygon fill="black" stroke="black" points="240.81,-129.55 230.69,-126.41 236.64,-135.17 240.81,-129.55"/>
</g>
<!-- CoreAddresses::CURRENCY_INFO_ADDRESS -->
<g id="node4" class="node">
<title>CoreAddresses::CURRENCY_INFO_ADDRESS</title>
<ellipse fill="none" stroke="black" cx="585" cy="-34" rx="128.08" ry="18"/>
<text text-anchor="middle" x="585" y="-30.3" font-family="Times,serif" font-size="14.00">CURRENCY_INFO_ADDRESS</text>
</g>
<!-- preburn_with_resource&#45;&gt;CoreAddresses::CURRENCY_INFO_ADDRESS -->
<g id="edge3" class="edge">
<title>preburn_with_resource&#45;&gt;CoreAddresses::CURRENCY_INFO_ADDRESS</title>
<path fill="none" stroke="black" d="M459.47,-334.35C523.03,-330.81 598.84,-324.28 609,-313 672.93,-242.04 624.15,-115.48 598.35,-61.06"/>
<polygon fill="black" stroke="black" points="601.5,-59.53 593.98,-52.06 595.2,-62.59 601.5,-59.53"/>
</g>
<!-- Event::emit_event -->
<g id="node5" class="node">
<title>Event::emit_event</title>
<ellipse fill="none" stroke="black" cx="275" cy="-264" rx="50.09" ry="18"/>
<text text-anchor="middle" x="275" y="-260.3" font-family="Times,serif" font-size="14.00">emit_event</text>
</g>
<!-- preburn_with_resource&#45;&gt;Event::emit_event -->
<g id="edge4" class="edge">
<title>preburn_with_resource&#45;&gt;Event::emit_event</title>
<path fill="none" stroke="black" d="M348.44,-321.44C335.08,-311.17 317.77,-297.86 303.31,-286.75"/>
<polygon fill="black" stroke="black" points="305.23,-283.82 295.17,-280.5 300.97,-289.37 305.23,-283.82"/>
</g>
<!-- value -->
<g id="node6" class="node">
<title>value</title>
<ellipse fill="none" stroke="black" cx="428" cy="-264" rx="29.8" ry="18"/>
<text text-anchor="middle" x="428" y="-260.3" font-family="Times,serif" font-size="14.00">value</text>
</g>
<!-- preburn_with_resource&#45;&gt;value -->
<g id="edge5" class="edge">
<title>preburn_with_resource&#45;&gt;value</title>
<path fill="none" stroke="black" d="M383.45,-321.07C391.06,-311.5 400.69,-299.38 409.05,-288.86"/>
<polygon fill="black" stroke="black" points="411.93,-290.85 415.41,-280.84 406.45,-286.49 411.93,-290.85"/>
</g>
<!-- currency_code -->
<g id="node7" class="node">
<title>currency_code</title>
<ellipse fill="none" stroke="black" cx="538" cy="-264" rx="62.29" ry="18"/>
<text text-anchor="middle" x="538" y="-260.3" font-family="Times,serif" font-size="14.00">currency_code</text>
</g>
<!-- preburn_with_resource&#45;&gt;currency_code -->
<g id="edge6" class="edge">
<title>preburn_with_resource&#45;&gt;currency_code</title>
<path fill="none" stroke="black" d="M431.63,-325.51C443.62,-322.14 455.9,-318 467,-313 481.99,-306.25 497.27,-296.38 509.79,-287.35"/>
<polygon fill="black" stroke="black" points="512.03,-290.04 517.98,-281.27 507.87,-284.42 512.03,-290.04"/>
</g>
<!-- deposit -->
<g id="node8" class="node">
<title>deposit</title>
<ellipse fill="none" stroke="black" cx="121" cy="-264" rx="36.29" ry="18"/>
<text text-anchor="middle" x="121" y="-260.3" font-family="Times,serif" font-size="14.00">deposit</text>
</g>
<!-- preburn_with_resource&#45;&gt;deposit -->
<g id="edge7" class="edge">
<title>preburn_with_resource&#45;&gt;deposit</title>
<path fill="none" stroke="black" d="M281.47,-333.91C234.21,-330.46 181.63,-324.21 161,-313 151.13,-307.64 142.71,-298.77 136.17,-290.1"/>
<polygon fill="black" stroke="black" points="138.86,-287.85 130.28,-281.64 133.12,-291.85 138.86,-287.85"/>
</g>
<!-- Errors::make -->
<g id="node9" class="node">
<title>Errors::make</title>
<ellipse fill="none" stroke="black" cx="211" cy="-34" rx="30.59" ry="18"/>
<text text-anchor="middle" x="211" y="-30.3" font-family="Times,serif" font-size="14.00">make</text>
</g>
<!-- Errors::invalid_state&#45;&gt;Errors::make -->
<g id="edge8" class="edge">
<title>Errors::invalid_state&#45;&gt;Errors::make</title>
<path fill="none" stroke="black" d="M100.13,-93.23C123.24,-81.09 155.95,-63.91 179.85,-51.36"/>
<polygon fill="black" stroke="black" points="181.63,-54.38 188.85,-46.63 178.37,-48.18 181.63,-54.38"/>
</g>
<!-- Errors::limit_exceeded&#45;&gt;Errors::make -->
<g id="edge9" class="edge">
<title>Errors::limit_exceeded&#45;&gt;Errors::make</title>
<path fill="none" stroke="black" d="M211,-90.7C211,-82.25 211,-71.87 211,-62.37"/>
<polygon fill="black" stroke="black" points="214.5,-62.18 211,-52.18 207.5,-62.18 214.5,-62.18"/>
</g>
<!-- Event::write_to_event_store -->
<g id="node10" class="node">
<title>Event::write_to_event_store</title>
<ellipse fill="none" stroke="black" cx="258" cy="-192" rx="85.29" ry="18"/>
<text text-anchor="middle" x="258" y="-188.3" font-family="Times,serif" font-size="14.00">write_to_event_store</text>
</g>
<!-- Event::emit_event&#45;&gt;Event::write_to_event_store -->
<g id="edge10" class="edge">
<title>Event::emit_event&#45;&gt;Event::write_to_event_store</title>
<path fill="none" stroke="black" d="M270.88,-246.05C268.99,-238.26 266.7,-228.82 264.58,-220.08"/>
<polygon fill="black" stroke="black" points="267.96,-219.17 262.2,-210.28 261.15,-220.82 267.96,-219.17"/>
</g>
<!-- currency_code&#45;&gt;CoreAddresses::CURRENCY_INFO_ADDRESS -->
<g id="edge11" class="edge">
<title>currency_code&#45;&gt;CoreAddresses::CURRENCY_INFO_ADDRESS</title>
<path fill="none" stroke="black" d="M549.08,-246.05C555.1,-235.99 562.1,-222.74 566,-210 581.46,-159.51 584.71,-97.44 585.18,-62.44"/>
<polygon fill="black" stroke="black" points="588.68,-62.1 585.25,-52.07 581.68,-62.05 588.68,-62.1"/>
</g>
<!-- assert_is_currency -->
<g id="node11" class="node">
<title>assert_is_currency</title>
<ellipse fill="none" stroke="black" cx="481" cy="-192" rx="76.09" ry="18"/>
<text text-anchor="middle" x="481" y="-188.3" font-family="Times,serif" font-size="14.00">assert_is_currency</text>
</g>
<!-- currency_code&#45;&gt;assert_is_currency -->
<g id="edge12" class="edge">
<title>currency_code&#45;&gt;assert_is_currency</title>
<path fill="none" stroke="black" d="M524.49,-246.41C517.57,-237.91 508.99,-227.37 501.29,-217.91"/>
<polygon fill="black" stroke="black" points="503.84,-215.5 494.81,-209.96 498.41,-219.92 503.84,-215.5"/>
</g>
<!-- deposit&#45;&gt;Errors::limit_exceeded -->
<g id="edge13" class="edge">
<title>deposit&#45;&gt;Errors::limit_exceeded</title>
<path fill="none" stroke="black" d="M126.05,-246.04C132.45,-226 144.65,-192.08 161,-166 168.14,-154.61 177.64,-143.31 186.44,-133.88"/>
<polygon fill="black" stroke="black" points="189.2,-136.06 193.6,-126.43 184.15,-131.21 189.2,-136.06"/>
</g>
<!-- Errors::not_published -->
<g id="node12" class="node">
<title>Errors::not_published</title>
<ellipse fill="none" stroke="black" cx="354" cy="-109" rx="60.39" ry="18"/>
<text text-anchor="middle" x="354" y="-105.3" font-family="Times,serif" font-size="14.00">not_published</text>
</g>
<!-- assert_is_currency&#45;&gt;Errors::not_published -->
<g id="edge14" class="edge">
<title>assert_is_currency&#45;&gt;Errors::not_published</title>
<path fill="none" stroke="black" d="M455.91,-175C436.21,-162.44 408.62,-144.84 387.11,-131.12"/>
<polygon fill="black" stroke="black" points="388.92,-128.12 378.61,-125.69 385.16,-134.02 388.92,-128.12"/>
</g>
<!-- is_currency -->
<g id="node13" class="node">
<title>is_currency</title>
<ellipse fill="none" stroke="black" cx="495" cy="-109" rx="51.99" ry="18"/>
<text text-anchor="middle" x="495" y="-105.3" font-family="Times,serif" font-size="14.00">is_currency</text>
</g>
<!-- assert_is_currency&#45;&gt;is_currency -->
<g id="edge15" class="edge">
<title>assert_is_currency&#45;&gt;is_currency</title>
<path fill="none" stroke="black" d="M483.97,-173.82C485.81,-163.19 488.21,-149.31 490.3,-137.2"/>
<polygon fill="black" stroke="black" points="493.78,-137.6 492.04,-127.15 486.88,-136.41 493.78,-137.6"/>
</g>
<!-- Errors::not_published&#45;&gt;Errors::make -->
<g id="edge16" class="edge">
<title>Errors::not_published&#45;&gt;Errors::make</title>
<path fill="none" stroke="black" d="M324.72,-93.05C300.91,-80.9 267.38,-63.78 242.9,-51.28"/>
<polygon fill="black" stroke="black" points="244.17,-48 233.67,-46.57 240.99,-54.24 244.17,-48"/>
</g>
<!-- is_currency&#45;&gt;CoreAddresses::CURRENCY_INFO_ADDRESS -->
<g id="edge17" class="edge">
<title>is_currency&#45;&gt;CoreAddresses::CURRENCY_INFO_ADDRESS</title>
<path fill="none" stroke="black" d="M514.53,-92.16C526.69,-82.3 542.55,-69.44 556.14,-58.41"/>
<polygon fill="black" stroke="black" points="558.7,-60.84 564.26,-51.83 554.29,-55.41 558.7,-60.84"/>
</g>
</g>
</svg>
