<?xml version="1.0" encoding="UTF-8" standalone="no"?>
<!DOCTYPE svg PUBLIC "-//W3C//DTD SVG 1.1//EN"
 "http://www.w3.org/Graphics/SVG/1.1/DTD/svg11.dtd">
<!-- Generated by graphviz version 2.46.1 (20210213.1702)
 -->
<!-- Title: G Pages: 1 -->
<svg width="1145pt" height="373pt"
 viewBox="0.00 0.00 1145.00 373.00" xmlns="http://www.w3.org/2000/svg" xmlns:xlink="http://www.w3.org/1999/xlink">
<g id="graph0" class="graph" transform="scale(1 1) rotate(0) translate(4 369)">
<title>G</title>
<polygon fill="white" stroke="transparent" points="-4,4 -4,-369 1141,-369 1141,4 -4,4"/>
<g id="clust1" class="cluster">
<title>cluster_Signer</title>
<polygon fill="none" stroke="black" points="8,-8 8,-155 158,-155 158,-8 8,-8"/>
<text text-anchor="middle" x="83" y="-139.8" font-family="Times,serif" font-size="14.00">Signer</text>
</g>
<g id="clust2" class="cluster">
<title>cluster_Errors</title>
<polygon fill="none" stroke="black" points="404,-8 404,-155 1129,-155 1129,-8 404,-8"/>
<text text-anchor="middle" x="766.5" y="-139.8" font-family="Times,serif" font-size="14.00">Errors</text>
</g>
<g id="clust3" class="cluster">
<title>cluster_DiemTimestamp</title>
<polygon fill="none" stroke="black" points="490,-163 490,-321 628,-321 628,-163 490,-163"/>
<text text-anchor="middle" x="559" y="-305.8" font-family="Times,serif" font-size="14.00">DiemTimestamp</text>
</g>
<g id="clust4" class="cluster">
<title>cluster_Roles</title>
<polygon fill="none" stroke="black" points="324,-246 324,-321 482,-321 482,-246 324,-246"/>
<text text-anchor="middle" x="403" y="-305.8" font-family="Times,serif" font-size="14.00">Roles</text>
</g>
<g id="clust5" class="cluster">
<title>cluster_CoreAddresses</title>
<polygon fill="none" stroke="black" points="166,-80 166,-238 396,-238 396,-80 166,-80"/>
<text text-anchor="middle" x="281" y="-222.8" font-family="Times,serif" font-size="14.00">CoreAddresses</text>
</g>
<!-- publish_new_config_and_get_capability -->
<g id="node1" class="node">
<title>publish_new_config_and_get_capability</title>
<ellipse fill="none" stroke="black" cx="481" cy="-347" rx="153.27" ry="18"/>
<text text-anchor="middle" x="481" y="-343.3" font-family="Times,serif" font-size="14.00">publish_new_config_and_get_capability</text>
</g>
<!-- Signer::address_of -->
<g id="node2" class="node">
<title>Signer::address_of</title>
<ellipse fill="none" stroke="black" cx="101" cy="-106" rx="48.99" ry="18"/>
<text text-anchor="middle" x="101" y="-102.3" font-family="Times,serif" font-size="14.00">address_of</text>
</g>
<!-- publish_new_config_and_get_capability&#45;&gt;Signer::address_of -->
<g id="edge1" class="edge">
<title>publish_new_config_and_get_capability&#45;&gt;Signer::address_of</title>
<path fill="none" stroke="black" d="M377.59,-333.64C358.28,-330.29 338.39,-326.13 320,-321 226.51,-294.93 177.13,-314.97 118,-238 95.21,-208.33 94.56,-163.27 97.09,-134.48"/>
<polygon fill="black" stroke="black" points="100.6,-134.63 98.18,-124.32 93.64,-133.89 100.6,-134.63"/>
</g>
<!-- Errors::already_published -->
<g id="node3" class="node">
<title>Errors::already_published</title>
<ellipse fill="none" stroke="black" cx="1046" cy="-106" rx="75.29" ry="18"/>
<text text-anchor="middle" x="1046" y="-102.3" font-family="Times,serif" font-size="14.00">already_published</text>
</g>
<!-- publish_new_config_and_get_capability&#45;&gt;Errors::already_published -->
<g id="edge2" class="edge">
<title>publish_new_config_and_get_capability&#45;&gt;Errors::already_published</title>
<path fill="none" stroke="black" d="M582.73,-333.48C599.4,-330.2 616.34,-326.11 632,-321 782.56,-271.93 944.88,-172.81 1012.98,-128.85"/>
<polygon fill="black" stroke="black" points="1015.09,-131.65 1021.58,-123.27 1011.28,-125.78 1015.09,-131.65"/>
</g>
<!-- DiemTimestamp::assert_genesis -->
<g id="node4" class="node">
<title>DiemTimestamp::assert_genesis</title>
<ellipse fill="none" stroke="black" cx="559" cy="-272" rx="61.19" ry="18"/>
<text text-anchor="middle" x="559" y="-268.3" font-family="Times,serif" font-size="14.00">assert_genesis</text>
</g>
<!-- publish_new_config_and_get_capability&#45;&gt;DiemTimestamp::assert_genesis -->
<g id="edge3" class="edge">
<title>publish_new_config_and_get_capability&#45;&gt;DiemTimestamp::assert_genesis</title>
<path fill="none" stroke="black" d="M499.09,-329.07C509.48,-319.35 522.67,-307 534.03,-296.37"/>
<polygon fill="black" stroke="black" points="536.63,-298.73 541.54,-289.34 531.85,-293.61 536.63,-298.73"/>
</g>
<!-- Roles::assert_diem_root -->
<g id="node5" class="node">
<title>Roles::assert_diem_root</title>
<ellipse fill="none" stroke="black" cx="403" cy="-272" rx="71.49" ry="18"/>
<text text-anchor="middle" x="403" y="-268.3" font-family="Times,serif" font-size="14.00">assert_diem_root</text>
</g>
<!-- publish_new_config_and_get_capability&#45;&gt;Roles::assert_diem_root -->
<g id="edge4" class="edge">
<title>publish_new_config_and_get_capability&#45;&gt;Roles::assert_diem_root</title>
<path fill="none" stroke="black" d="M462.91,-329.07C452.6,-319.42 439.52,-307.18 428.21,-296.6"/>
<polygon fill="black" stroke="black" points="430.42,-293.87 420.72,-289.59 425.63,-298.98 430.42,-293.87"/>
</g>
<!-- Signer::borrow_address -->
<g id="node6" class="node">
<title>Signer::borrow_address</title>
<ellipse fill="none" stroke="black" cx="83" cy="-34" rx="66.89" ry="18"/>
<text text-anchor="middle" x="83" y="-30.3" font-family="Times,serif" font-size="14.00">borrow_address</text>
</g>
<!-- Signer::address_of&#45;&gt;Signer::borrow_address -->
<g id="edge5" class="edge">
<title>Signer::address_of&#45;&gt;Signer::borrow_address</title>
<path fill="none" stroke="black" d="M96.64,-88.05C94.64,-80.26 92.21,-70.82 89.96,-62.08"/>
<polygon fill="black" stroke="black" points="93.32,-61.09 87.44,-52.28 86.54,-62.83 93.32,-61.09"/>
</g>
<!-- Errors::make -->
<g id="node7" class="node">
<title>Errors::make</title>
<ellipse fill="none" stroke="black" cx="766" cy="-34" rx="30.59" ry="18"/>
<text text-anchor="middle" x="766" y="-30.3" font-family="Times,serif" font-size="14.00">make</text>
</g>
<!-- Errors::already_published&#45;&gt;Errors::make -->
<g id="edge6" class="edge">
<title>Errors::already_published&#45;&gt;Errors::make</title>
<path fill="none" stroke="black" d="M1001.68,-91.24C988.92,-87.43 974.95,-83.41 962,-80 907.61,-65.68 844.05,-51.56 804.41,-43.06"/>
<polygon fill="black" stroke="black" points="804.89,-39.59 794.38,-40.92 803.43,-46.43 804.89,-39.59"/>
</g>
<!-- Errors::invalid_state -->
<g id="node8" class="node">
<title>Errors::invalid_state</title>
<ellipse fill="none" stroke="black" cx="897" cy="-106" rx="55.79" ry="18"/>
<text text-anchor="middle" x="897" y="-102.3" font-family="Times,serif" font-size="14.00">invalid_state</text>
</g>
<!-- DiemTimestamp::assert_genesis&#45;&gt;Errors::invalid_state -->
<g id="edge7" class="edge">
<title>DiemTimestamp::assert_genesis&#45;&gt;Errors::invalid_state</title>
<path fill="none" stroke="black" d="M597.42,-257.92C651.51,-238.78 752.4,-200.46 832,-155 845.01,-147.57 858.47,-137.99 869.75,-129.34"/>
<polygon fill="black" stroke="black" points="872.19,-131.88 877.9,-122.96 867.87,-126.37 872.19,-131.88"/>
</g>
<!-- DiemTimestamp::is_genesis -->
<g id="node9" class="node">
<title>DiemTimestamp::is_genesis</title>
<ellipse fill="none" stroke="black" cx="549" cy="-189" rx="46.59" ry="18"/>
<text text-anchor="middle" x="549" y="-185.3" font-family="Times,serif" font-size="14.00">is_genesis</text>
</g>
<!-- DiemTimestamp::assert_genesis&#45;&gt;DiemTimestamp::is_genesis -->
<g id="edge8" class="edge">
<title>DiemTimestamp::assert_genesis&#45;&gt;DiemTimestamp::is_genesis</title>
<path fill="none" stroke="black" d="M556.88,-253.82C555.57,-243.19 553.85,-229.31 552.36,-217.2"/>
<polygon fill="black" stroke="black" points="555.82,-216.65 551.12,-207.15 548.87,-217.51 555.82,-216.65"/>
</g>
<!-- Roles::assert_diem_root&#45;&gt;Signer::address_of -->
<g id="edge9" class="edge">
<title>Roles::assert_diem_root&#45;&gt;Signer::address_of</title>
<path fill="none" stroke="black" d="M332.66,-268.73C271.4,-265.45 188.38,-257.46 162,-238 144.27,-224.92 122.15,-168.11 110.01,-133.74"/>
<polygon fill="black" stroke="black" points="113.31,-132.58 106.72,-124.29 106.7,-134.88 113.31,-132.58"/>
</g>
<!-- Errors::not_published -->
<g id="node10" class="node">
<title>Errors::not_published</title>
<ellipse fill="none" stroke="black" cx="630" cy="-106" rx="60.39" ry="18"/>
<text text-anchor="middle" x="630" y="-102.3" font-family="Times,serif" font-size="14.00">not_published</text>
</g>
<!-- Roles::assert_diem_root&#45;&gt;Errors::not_published -->
<g id="edge10" class="edge">
<title>Roles::assert_diem_root&#45;&gt;Errors::not_published</title>
<path fill="none" stroke="black" d="M405.68,-253.69C410.52,-228.95 423.24,-184.14 454,-163 473.65,-149.49 538.53,-162.98 561,-155 576.64,-149.45 592.01,-139.35 604.25,-129.85"/>
<polygon fill="black" stroke="black" points="606.62,-132.43 612.2,-123.42 602.22,-126.99 606.62,-132.43"/>
</g>
<!-- Errors::requires_role -->
<g id="node11" class="node">
<title>Errors::requires_role</title>
<ellipse fill="none" stroke="black" cx="766" cy="-106" rx="57.39" ry="18"/>
<text text-anchor="middle" x="766" y="-102.3" font-family="Times,serif" font-size="14.00">requires_role</text>
</g>
<!-- Roles::assert_diem_root&#45;&gt;Errors::requires_role -->
<g id="edge11" class="edge">
<title>Roles::assert_diem_root&#45;&gt;Errors::requires_role</title>
<path fill="none" stroke="black" d="M427.15,-254.72C433.42,-249.81 439.85,-244.09 445,-238 469.55,-209.01 453.69,-182.99 486,-163 506.14,-150.54 676.59,-162.67 699,-155 714.51,-149.69 729.56,-139.52 741.45,-129.91"/>
<polygon fill="black" stroke="black" points="743.76,-132.53 749.14,-123.4 739.25,-127.18 743.76,-132.53"/>
</g>
<!-- CoreAddresses::assert_diem_root -->
<g id="node12" class="node">
<title>CoreAddresses::assert_diem_root</title>
<ellipse fill="none" stroke="black" cx="299" cy="-189" rx="71.49" ry="18"/>
<text text-anchor="middle" x="299" y="-185.3" font-family="Times,serif" font-size="14.00">assert_diem_root</text>
</g>
<!-- Roles::assert_diem_root&#45;&gt;CoreAddresses::assert_diem_root -->
<g id="edge12" class="edge">
<title>Roles::assert_diem_root&#45;&gt;CoreAddresses::assert_diem_root</title>
<path fill="none" stroke="black" d="M381.95,-254.61C366.45,-242.53 345.17,-225.96 328.04,-212.62"/>
<polygon fill="black" stroke="black" points="330.05,-209.75 320.01,-206.37 325.75,-215.27 330.05,-209.75"/>
</g>
<!-- Errors::invalid_state&#45;&gt;Errors::make -->
<g id="edge13" class="edge">
<title>Errors::invalid_state&#45;&gt;Errors::make</title>
<path fill="none" stroke="black" d="M869.22,-90.15C848.06,-78.85 818.93,-63.28 797.01,-51.57"/>
<polygon fill="black" stroke="black" points="798.57,-48.44 788.1,-46.81 795.27,-54.61 798.57,-48.44"/>
</g>
<!-- CoreAddresses::DIEM_ROOT_ADDRESS -->
<g id="node13" class="node">
<title>CoreAddresses::DIEM_ROOT_ADDRESS</title>
<ellipse fill="none" stroke="black" cx="281" cy="-106" rx="106.68" ry="18"/>
<text text-anchor="middle" x="281" y="-102.3" font-family="Times,serif" font-size="14.00">DIEM_ROOT_ADDRESS</text>
</g>
<!-- DiemTimestamp::is_genesis&#45;&gt;CoreAddresses::DIEM_ROOT_ADDRESS -->
<g id="edge14" class="edge">
<title>DiemTimestamp::is_genesis&#45;&gt;CoreAddresses::DIEM_ROOT_ADDRESS</title>
<path fill="none" stroke="black" d="M507.41,-180.7C477.26,-174.95 435.68,-166.06 400,-155 374.98,-147.24 347.83,-136.48 325.8,-127.12"/>
<polygon fill="black" stroke="black" points="326.94,-123.8 316.37,-123.06 324.18,-130.23 326.94,-123.8"/>
</g>
<!-- Errors::not_published&#45;&gt;Errors::make -->
<g id="edge15" class="edge">
<title>Errors::not_published&#45;&gt;Errors::make</title>
<path fill="none" stroke="black" d="M658.84,-90.15C681.05,-78.73 711.7,-62.95 734.53,-51.2"/>
<polygon fill="black" stroke="black" points="736.2,-54.28 743.49,-46.59 732.99,-48.05 736.2,-54.28"/>
</g>
<!-- Errors::requires_role&#45;&gt;Errors::make -->
<g id="edge16" class="edge">
<title>Errors::requires_role&#45;&gt;Errors::make</title>
<path fill="none" stroke="black" d="M766,-87.7C766,-79.98 766,-70.71 766,-62.11"/>
<polygon fill="black" stroke="black" points="769.5,-62.1 766,-52.1 762.5,-62.1 769.5,-62.1"/>
</g>
<!-- CoreAddresses::assert_diem_root&#45;&gt;Signer::address_of -->
<g id="edge17" class="edge">
<title>CoreAddresses::assert_diem_root&#45;&gt;Signer::address_of</title>
<path fill="none" stroke="black" d="M238.75,-179.29C214.13,-174.27 185.88,-166.58 162,-155 148.67,-148.53 135.53,-138.77 124.89,-129.73"/>
<polygon fill="black" stroke="black" points="127.09,-127 117.27,-123.02 122.46,-132.26 127.09,-127"/>
</g>
<!-- CoreAddresses::assert_diem_root&#45;&gt;CoreAddresses::DIEM_ROOT_ADDRESS -->
<g id="edge19" class="edge">
<title>CoreAddresses::assert_diem_root&#45;&gt;CoreAddresses::DIEM_ROOT_ADDRESS</title>
<path fill="none" stroke="black" d="M295.18,-170.82C292.82,-160.19 289.73,-146.31 287.05,-134.2"/>
<polygon fill="black" stroke="black" points="290.4,-133.16 284.81,-124.15 283.56,-134.67 290.4,-133.16"/>
</g>
<!-- Errors::requires_address -->
<g id="node14" class="node">
<title>Errors::requires_address</title>
<ellipse fill="none" stroke="black" cx="482" cy="-106" rx="69.59" ry="18"/>
<text text-anchor="middle" x="482" y="-102.3" font-family="Times,serif" font-size="14.00">requires_address</text>
</g>
<!-- CoreAddresses::assert_diem_root&#45;&gt;Errors::requires_address -->
<g id="edge18" class="edge">
<title>CoreAddresses::assert_diem_root&#45;&gt;Errors::requires_address</title>
<path fill="none" stroke="black" d="M345.29,-175.16C362.75,-169.73 382.59,-162.83 400,-155 416.82,-147.43 434.59,-137.32 449.27,-128.33"/>
<polygon fill="black" stroke="black" points="451.33,-131.17 457.97,-122.91 447.63,-125.23 451.33,-131.17"/>
</g>
<!-- Errors::requires_address&#45;&gt;Errors::make -->
<g id="edge20" class="edge">
<title>Errors::requires_address&#45;&gt;Errors::make</title>
<path fill="none" stroke="black" d="M522.8,-91.32C535.02,-87.43 548.49,-83.34 561,-80 618.44,-64.64 685.94,-50.58 727.34,-42.4"/>
<polygon fill="black" stroke="black" points="728.14,-45.81 737.28,-40.45 726.8,-38.94 728.14,-45.81"/>
</g>
</g>
</svg>
