<?xml version="1.0" encoding="UTF-8" standalone="no"?>
<!DOCTYPE svg PUBLIC "-//W3C//DTD SVG 1.1//EN"
 "http://www.w3.org/Graphics/SVG/1.1/DTD/svg11.dtd">
<!-- Generated by graphviz version 2.46.1 (20210213.1702)
 -->
<!-- Title: G Pages: 1 -->
<svg width="2072pt" height="523pt"
 viewBox="0.00 0.00 2072.03 523.00" xmlns="http://www.w3.org/2000/svg" xmlns:xlink="http://www.w3.org/1999/xlink">
<g id="graph0" class="graph" transform="scale(1 1) rotate(0) translate(4 519)">
<title>G</title>
<polygon fill="white" stroke="transparent" points="-4,4 -4,-519 2068.03,-519 2068.03,4 -4,4"/>
<g id="clust1" class="cluster">
<title>cluster_Signer</title>
<polygon fill="none" stroke="black" points="517.03,-8 517.03,-155 667.03,-155 667.03,-8 517.03,-8"/>
<text text-anchor="middle" x="592.03" y="-139.8" font-family="Times,serif" font-size="14.00">Signer</text>
</g>
<g id="clust2" class="cluster">
<title>cluster_Errors</title>
<polygon fill="none" stroke="black" points="675.03,-8 675.03,-155 1545.03,-155 1545.03,-8 675.03,-8"/>
<text text-anchor="middle" x="1110.03" y="-139.8" font-family="Times,serif" font-size="14.00">Errors</text>
</g>
<g id="clust3" class="cluster">
<title>cluster_CoreAddresses</title>
<polygon fill="none" stroke="black" points="1553.03,-80 1553.03,-238 2056.03,-238 2056.03,-80 1553.03,-80"/>
<text text-anchor="middle" x="1804.53" y="-222.8" font-family="Times,serif" font-size="14.00">CoreAddresses</text>
</g>
<g id="clust4" class="cluster">
<title>cluster_DiemTimestamp</title>
<polygon fill="none" stroke="black" points="265.03,-80 265.03,-396 509.03,-396 509.03,-80 265.03,-80"/>
<text text-anchor="middle" x="387.03" y="-380.8" font-family="Times,serif" font-size="14.00">DiemTimestamp</text>
</g>
<g id="clust5" class="cluster">
<title>cluster_Roles</title>
<polygon fill="none" stroke="black" points="583.03,-163 583.03,-321 922.03,-321 922.03,-163 583.03,-163"/>
<text text-anchor="middle" x="752.53" y="-305.8" font-family="Times,serif" font-size="14.00">Roles</text>
</g>
<g id="clust6" class="cluster">
<title>cluster_Event</title>
<polygon fill="none" stroke="black" points="930.03,-163 930.03,-321 1116.03,-321 1116.03,-163 930.03,-163"/>
<text text-anchor="middle" x="1023.03" y="-305.8" font-family="Times,serif" font-size="14.00">Event</text>
</g>
<g id="clust7" class="cluster">
<title>cluster_DiemConfig</title>
<polygon fill="none" stroke="black" points="19.03,-246 19.03,-471 227.03,-471 227.03,-246 19.03,-246"/>
<text text-anchor="middle" x="123.03" y="-455.8" font-family="Times,serif" font-size="14.00">DiemConfig</text>
</g>
<g id="clust8" class="cluster">
<title>cluster_Diem</title>
<polygon fill="none" stroke="black" points="1628.03,-246 1628.03,-321 1900.03,-321 1900.03,-246 1628.03,-246"/>
<text text-anchor="middle" x="1764.03" y="-305.8" font-family="Times,serif" font-size="14.00">Diem</text>
</g>
<g id="clust9" class="cluster">
<title>cluster_TransactionFee</title>
<polygon fill="none" stroke="black" points="1422.03,-246 1422.03,-396 1588.03,-396 1588.03,-246 1422.03,-246"/>
<text text-anchor="middle" x="1505.03" y="-380.8" font-family="Times,serif" font-size="14.00">TransactionFee</text>
</g>
<!-- writeset_epilogue -->
<g id="node1" class="node">
<title>writeset_epilogue</title>
<ellipse fill="none" stroke="black" cx="804.03" cy="-497" rx="73.39" ry="18"/>
<text text-anchor="middle" x="804.03" y="-493.3" font-family="Times,serif" font-size="14.00">writeset_epilogue</text>
</g>
<!-- Signer::address_of -->
<g id="node2" class="node">
<title>Signer::address_of</title>
<ellipse fill="none" stroke="black" cx="608.03" cy="-106" rx="48.99" ry="18"/>
<text text-anchor="middle" x="608.03" y="-102.3" font-family="Times,serif" font-size="14.00">address_of</text>
</g>
<!-- writeset_epilogue&#45;&gt;Signer::address_of -->
<g id="edge1" class="edge">
<title>writeset_epilogue&#45;&gt;Signer::address_of</title>
<path fill="none" stroke="black" d="M767.75,-481.18C714.1,-456.94 615.95,-403.15 579.03,-321 550.24,-256.95 562.41,-231.23 579.03,-163 581.59,-152.47 586.51,-141.71 591.58,-132.47"/>
<polygon fill="black" stroke="black" points="594.62,-134.21 596.62,-123.8 588.56,-130.69 594.62,-134.21"/>
</g>
<!-- Errors::invalid_argument -->
<g id="node3" class="node">
<title>Errors::invalid_argument</title>
<ellipse fill="none" stroke="black" cx="1158.03" cy="-106" rx="73.39" ry="18"/>
<text text-anchor="middle" x="1158.03" y="-102.3" font-family="Times,serif" font-size="14.00">invalid_argument</text>
</g>
<!-- writeset_epilogue&#45;&gt;Errors::invalid_argument -->
<g id="edge2" class="edge">
<title>writeset_epilogue&#45;&gt;Errors::invalid_argument</title>
<path fill="none" stroke="black" d="M849.53,-482.79C918.08,-460.58 1047.49,-409.32 1120.03,-321 1164.5,-266.85 1164.45,-178.67 1161.07,-134.31"/>
<polygon fill="black" stroke="black" points="1164.55,-133.93 1160.19,-124.27 1157.57,-134.54 1164.55,-133.93"/>
</g>
<!-- CoreAddresses::DIEM_ROOT_ADDRESS -->
<g id="node4" class="node">
<title>CoreAddresses::DIEM_ROOT_ADDRESS</title>
<ellipse fill="none" stroke="black" cx="1668.03" cy="-106" rx="106.68" ry="18"/>
<text text-anchor="middle" x="1668.03" y="-102.3" font-family="Times,serif" font-size="14.00">DIEM_ROOT_ADDRESS</text>
</g>
<!-- writeset_epilogue&#45;&gt;CoreAddresses::DIEM_ROOT_ADDRESS -->
<g id="edge3" class="edge">
<title>writeset_epilogue&#45;&gt;CoreAddresses::DIEM_ROOT_ADDRESS</title>
<path fill="none" stroke="black" d="M877.06,-494.81C1020.49,-492.18 1326.75,-484.94 1345.03,-471 1428.62,-407.24 1353.16,-328.73 1418.03,-246 1445.63,-210.8 1558.18,-156.31 1622.45,-127.11"/>
<polygon fill="black" stroke="black" points="1623.9,-130.3 1631.57,-122.99 1621.02,-123.92 1623.9,-130.3"/>
</g>
<!-- DiemTimestamp::now_seconds -->
<g id="node5" class="node">
<title>DiemTimestamp::now_seconds</title>
<ellipse fill="none" stroke="black" cx="443.03" cy="-347" rx="57.69" ry="18"/>
<text text-anchor="middle" x="443.03" y="-343.3" font-family="Times,serif" font-size="14.00">now_seconds</text>
</g>
<!-- writeset_epilogue&#45;&gt;DiemTimestamp::now_seconds -->
<g id="edge4" class="edge">
<title>writeset_epilogue&#45;&gt;DiemTimestamp::now_seconds</title>
<path fill="none" stroke="black" d="M732.11,-493.21C652.49,-489.58 532.96,-482.34 515.03,-471 480.23,-449 460.25,-403.64 450.53,-374.58"/>
<polygon fill="black" stroke="black" points="453.86,-373.52 447.51,-365.04 447.19,-375.63 453.86,-373.52"/>
</g>
<!-- Roles::has_diem_root_role -->
<g id="node6" class="node">
<title>Roles::has_diem_root_role</title>
<ellipse fill="none" stroke="black" cx="672.03" cy="-272" rx="81.49" ry="18"/>
<text text-anchor="middle" x="672.03" y="-268.3" font-family="Times,serif" font-size="14.00">has_diem_root_role</text>
</g>
<!-- writeset_epilogue&#45;&gt;Roles::has_diem_root_role -->
<g id="edge5" class="edge">
<title>writeset_epilogue&#45;&gt;Roles::has_diem_root_role</title>
<path fill="none" stroke="black" d="M793.89,-478.87C770.85,-439.94 714.43,-344.64 687.21,-298.65"/>
<polygon fill="black" stroke="black" points="690.13,-296.7 682.02,-289.88 684.1,-300.27 690.13,-296.7"/>
</g>
<!-- Event::emit_event -->
<g id="node7" class="node">
<title>Event::emit_event</title>
<ellipse fill="none" stroke="black" cx="988.03" cy="-272" rx="50.09" ry="18"/>
<text text-anchor="middle" x="988.03" y="-268.3" font-family="Times,serif" font-size="14.00">emit_event</text>
</g>
<!-- writeset_epilogue&#45;&gt;Event::emit_event -->
<g id="edge6" class="edge">
<title>writeset_epilogue&#45;&gt;Event::emit_event</title>
<path fill="none" stroke="black" d="M817.86,-479.24C850.12,-440.14 930.45,-342.79 968.04,-297.23"/>
<polygon fill="black" stroke="black" points="970.87,-299.29 974.54,-289.35 965.47,-294.84 970.87,-299.29"/>
</g>
<!-- DiemConfig::reconfigure -->
<g id="node8" class="node">
<title>DiemConfig::reconfigure</title>
<ellipse fill="none" stroke="black" cx="168.03" cy="-422" rx="50.89" ry="18"/>
<text text-anchor="middle" x="168.03" y="-418.3" font-family="Times,serif" font-size="14.00">reconfigure</text>
</g>
<!-- writeset_epilogue&#45;&gt;DiemConfig::reconfigure -->
<g id="edge7" class="edge">
<title>writeset_epilogue&#45;&gt;DiemConfig::reconfigure</title>
<path fill="none" stroke="black" d="M732.24,-492.9C661.17,-489.36 549.33,-482.51 453.03,-471 371.72,-461.28 278.25,-444.45 221.17,-433.52"/>
<polygon fill="black" stroke="black" points="221.78,-430.07 211.3,-431.62 220.46,-436.94 221.78,-430.07"/>
</g>
<!-- epilogue -->
<g id="node9" class="node">
<title>epilogue</title>
<ellipse fill="none" stroke="black" cx="1295.03" cy="-422" rx="40.89" ry="18"/>
<text text-anchor="middle" x="1295.03" y="-418.3" font-family="Times,serif" font-size="14.00">epilogue</text>
</g>
<!-- writeset_epilogue&#45;&gt;epilogue -->
<g id="edge8" class="edge">
<title>writeset_epilogue&#45;&gt;epilogue</title>
<path fill="none" stroke="black" d="M877.19,-495.26C976.15,-493.6 1147.17,-488.26 1207.03,-471 1227.91,-464.98 1249.36,-453.41 1265.85,-443.14"/>
<polygon fill="black" stroke="black" points="1267.94,-445.96 1274.47,-437.61 1264.16,-440.07 1267.94,-445.96"/>
</g>
<!-- Signer::borrow_address -->
<g id="node10" class="node">
<title>Signer::borrow_address</title>
<ellipse fill="none" stroke="black" cx="592.03" cy="-34" rx="66.89" ry="18"/>
<text text-anchor="middle" x="592.03" y="-30.3" font-family="Times,serif" font-size="14.00">borrow_address</text>
</g>
<!-- Signer::address_of&#45;&gt;Signer::borrow_address -->
<g id="edge9" class="edge">
<title>Signer::address_of&#45;&gt;Signer::borrow_address</title>
<path fill="none" stroke="black" d="M604.16,-88.05C602.37,-80.26 600.22,-70.82 598.22,-62.08"/>
<polygon fill="black" stroke="black" points="601.62,-61.24 595.98,-52.28 594.79,-62.8 601.62,-61.24"/>
</g>
<!-- Errors::make -->
<g id="node11" class="node">
<title>Errors::make</title>
<ellipse fill="none" stroke="black" cx="1082.03" cy="-34" rx="30.59" ry="18"/>
<text text-anchor="middle" x="1082.03" y="-30.3" font-family="Times,serif" font-size="14.00">make</text>
</g>
<!-- Errors::invalid_argument&#45;&gt;Errors::make -->
<g id="edge10" class="edge">
<title>Errors::invalid_argument&#45;&gt;Errors::make</title>
<path fill="none" stroke="black" d="M1140.02,-88.41C1129.6,-78.82 1116.39,-66.65 1105.21,-56.35"/>
<polygon fill="black" stroke="black" points="1107.57,-53.77 1097.85,-49.57 1102.83,-58.92 1107.57,-53.77"/>
</g>
<!-- DiemTimestamp::now_microseconds -->
<g id="node12" class="node">
<title>DiemTimestamp::now_microseconds</title>
<ellipse fill="none" stroke="black" cx="422.03" cy="-272" rx="79.09" ry="18"/>
<text text-anchor="middle" x="422.03" y="-268.3" font-family="Times,serif" font-size="14.00">now_microseconds</text>
</g>
<!-- DiemTimestamp::now_seconds&#45;&gt;DiemTimestamp::now_microseconds -->
<g id="edge11" class="edge">
<title>DiemTimestamp::now_seconds&#45;&gt;DiemTimestamp::now_microseconds</title>
<path fill="none" stroke="black" d="M438.05,-328.7C435.59,-320.15 432.57,-309.65 429.82,-300.07"/>
<polygon fill="black" stroke="black" points="433.1,-298.82 426.97,-290.18 426.37,-300.75 433.1,-298.82"/>
</g>
<!-- Roles::has_role -->
<g id="node13" class="node">
<title>Roles::has_role</title>
<ellipse fill="none" stroke="black" cx="675.03" cy="-189" rx="40.09" ry="18"/>
<text text-anchor="middle" x="675.03" y="-185.3" font-family="Times,serif" font-size="14.00">has_role</text>
</g>
<!-- Roles::has_diem_root_role&#45;&gt;Roles::has_role -->
<g id="edge12" class="edge">
<title>Roles::has_diem_root_role&#45;&gt;Roles::has_role</title>
<path fill="none" stroke="black" d="M672.66,-253.82C673.06,-243.19 673.57,-229.31 674.02,-217.2"/>
<polygon fill="black" stroke="black" points="677.52,-217.28 674.39,-207.15 670.53,-217.02 677.52,-217.28"/>
</g>
<!-- Event::write_to_event_store -->
<g id="node14" class="node">
<title>Event::write_to_event_store</title>
<ellipse fill="none" stroke="black" cx="1023.03" cy="-189" rx="85.29" ry="18"/>
<text text-anchor="middle" x="1023.03" y="-185.3" font-family="Times,serif" font-size="14.00">write_to_event_store</text>
</g>
<!-- Event::emit_event&#45;&gt;Event::write_to_event_store -->
<g id="edge13" class="edge">
<title>Event::emit_event&#45;&gt;Event::write_to_event_store</title>
<path fill="none" stroke="black" d="M995.45,-253.82C1000.14,-242.98 1006.29,-228.74 1011.59,-216.47"/>
<polygon fill="black" stroke="black" points="1014.86,-217.72 1015.62,-207.15 1008.44,-214.94 1014.86,-217.72"/>
</g>
<!-- Roles::assert_diem_root -->
<g id="node15" class="node">
<title>Roles::assert_diem_root</title>
<ellipse fill="none" stroke="black" cx="843.03" cy="-272" rx="71.49" ry="18"/>
<text text-anchor="middle" x="843.03" y="-268.3" font-family="Times,serif" font-size="14.00">assert_diem_root</text>
</g>
<!-- DiemConfig::reconfigure&#45;&gt;Roles::assert_diem_root -->
<g id="edge14" class="edge">
<title>DiemConfig::reconfigure&#45;&gt;Roles::assert_diem_root</title>
<path fill="none" stroke="black" d="M218.75,-420.8C286.41,-419.75 409.68,-415.07 513.03,-396 626.69,-375.03 656.2,-367.47 762.03,-321 778.76,-313.65 796.33,-303.57 810.81,-294.54"/>
<polygon fill="black" stroke="black" points="812.83,-297.4 819.39,-289.09 809.07,-291.49 812.83,-297.4"/>
</g>
<!-- DiemConfig::reconfigure_ -->
<g id="node16" class="node">
<title>DiemConfig::reconfigure_</title>
<ellipse fill="none" stroke="black" cx="164.03" cy="-347" rx="55.49" ry="18"/>
<text text-anchor="middle" x="164.03" y="-343.3" font-family="Times,serif" font-size="14.00">reconfigure_</text>
</g>
<!-- DiemConfig::reconfigure&#45;&gt;DiemConfig::reconfigure_ -->
<g id="edge15" class="edge">
<title>DiemConfig::reconfigure&#45;&gt;DiemConfig::reconfigure_</title>
<path fill="none" stroke="black" d="M167.08,-403.7C166.62,-395.25 166.05,-384.87 165.53,-375.37"/>
<polygon fill="black" stroke="black" points="169.01,-374.97 164.97,-365.18 162.02,-375.35 169.01,-374.97"/>
</g>
<!-- epilogue&#45;&gt;Signer::address_of -->
<g id="edge16" class="edge">
<title>epilogue&#45;&gt;Signer::address_of</title>
<path fill="none" stroke="black" d="M1274.31,-406.23C1270.38,-403.05 1266.44,-399.56 1263.03,-396 1203.29,-333.67 1191.47,-313.74 1150.03,-238 1132.8,-206.51 1149.58,-183.39 1120.03,-163 1099.5,-148.83 694.59,-163.19 671.03,-155 656.19,-149.84 642.04,-139.73 630.93,-130.11"/>
<polygon fill="black" stroke="black" points="633.16,-127.4 623.41,-123.27 628.45,-132.58 633.16,-127.4"/>
</g>
<!-- epilogue&#45;&gt;Errors::invalid_argument -->
<g id="edge17" class="edge">
<title>epilogue&#45;&gt;Errors::invalid_argument</title>
<path fill="none" stroke="black" d="M1295.28,-403.67C1295.67,-351.95 1294.19,-199.97 1264.03,-163 1256.92,-154.29 1250.27,-159.64 1240.03,-155 1223.36,-147.44 1205.73,-137.42 1191.11,-128.48"/>
<polygon fill="black" stroke="black" points="1192.77,-125.4 1182.43,-123.09 1189.08,-131.34 1192.77,-125.4"/>
</g>
<!-- Errors::limit_exceeded -->
<g id="node17" class="node">
<title>Errors::limit_exceeded</title>
<ellipse fill="none" stroke="black" cx="1314.03" cy="-106" rx="64.99" ry="18"/>
<text text-anchor="middle" x="1314.03" y="-102.3" font-family="Times,serif" font-size="14.00">limit_exceeded</text>
</g>
<!-- epilogue&#45;&gt;Errors::limit_exceeded -->
<g id="edge18" class="edge">
<title>epilogue&#45;&gt;Errors::limit_exceeded</title>
<path fill="none" stroke="black" d="M1300.38,-403.9C1301.04,-401.28 1301.62,-398.58 1302.03,-396 1317.12,-300.81 1316.33,-185.92 1314.99,-134.37"/>
<polygon fill="black" stroke="black" points="1318.48,-133.97 1314.69,-124.07 1311.48,-134.17 1318.48,-133.97"/>
</g>
<!-- Errors::not_published -->
<g id="node18" class="node">
<title>Errors::not_published</title>
<ellipse fill="none" stroke="black" cx="1006.03" cy="-106" rx="60.39" ry="18"/>
<text text-anchor="middle" x="1006.03" y="-102.3" font-family="Times,serif" font-size="14.00">not_published</text>
</g>
<!-- epilogue&#45;&gt;Errors::not_published -->
<g id="edge19" class="edge">
<title>epilogue&#45;&gt;Errors::not_published</title>
<path fill="none" stroke="black" d="M1291.14,-403.74C1279.4,-356.03 1239.45,-222 1150.03,-163 1122.42,-144.78 1107.05,-166.48 1076.03,-155 1060.31,-149.18 1044.74,-139.06 1032.29,-129.6"/>
<polygon fill="black" stroke="black" points="1034.22,-126.67 1024.2,-123.23 1029.89,-132.17 1034.22,-126.67"/>
</g>
<!-- Diem::value -->
<g id="node19" class="node">
<title>Diem::value</title>
<ellipse fill="none" stroke="black" cx="1756.03" cy="-272" rx="29.8" ry="18"/>
<text text-anchor="middle" x="1756.03" y="-268.3" font-family="Times,serif" font-size="14.00">value</text>
</g>
<!-- epilogue&#45;&gt;Diem::value -->
<g id="edge20" class="edge">
<title>epilogue&#45;&gt;Diem::value</title>
<path fill="none" stroke="black" d="M1335.72,-419.67C1412.05,-416.87 1570.95,-409.5 1592.03,-396 1620.86,-377.54 1601.27,-347.57 1630.03,-329 1662.65,-307.94 1682.77,-339.28 1717.03,-321 1726.98,-315.69 1735.32,-306.66 1741.71,-297.86"/>
<polygon fill="black" stroke="black" points="1744.8,-299.54 1747.43,-289.28 1738.97,-295.66 1744.8,-299.54"/>
</g>
<!-- Diem::withdraw -->
<g id="node20" class="node">
<title>Diem::withdraw</title>
<ellipse fill="none" stroke="black" cx="1848.03" cy="-272" rx="44.39" ry="18"/>
<text text-anchor="middle" x="1848.03" y="-268.3" font-family="Times,serif" font-size="14.00">withdraw</text>
</g>
<!-- epilogue&#45;&gt;Diem::withdraw -->
<g id="edge21" class="edge">
<title>epilogue&#45;&gt;Diem::withdraw</title>
<path fill="none" stroke="black" d="M1336.04,-420.03C1419.06,-417.77 1601.16,-411.14 1625.03,-396 1653.94,-377.66 1633.98,-347.12 1663.03,-329 1687.96,-313.45 1767.94,-332.4 1795.03,-321 1807.54,-315.73 1819.04,-306.21 1828.1,-297.02"/>
<polygon fill="black" stroke="black" points="1830.86,-299.19 1835.11,-289.48 1825.74,-294.42 1830.86,-299.19"/>
</g>
<!-- TransactionFee::pay_fee -->
<g id="node21" class="node">
<title>TransactionFee::pay_fee</title>
<ellipse fill="none" stroke="black" cx="1486.03" cy="-347" rx="38.19" ry="18"/>
<text text-anchor="middle" x="1486.03" y="-343.3" font-family="Times,serif" font-size="14.00">pay_fee</text>
</g>
<!-- epilogue&#45;&gt;TransactionFee::pay_fee -->
<g id="edge22" class="edge">
<title>epilogue&#45;&gt;TransactionFee::pay_fee</title>
<path fill="none" stroke="black" d="M1324.87,-409.59C1357.96,-396.95 1411.42,-376.51 1447.61,-362.68"/>
<polygon fill="black" stroke="black" points="1449.24,-365.81 1457.33,-358.97 1446.74,-359.27 1449.24,-365.81"/>
</g>
<!-- exists_at -->
<g id="node22" class="node">
<title>exists_at</title>
<ellipse fill="none" stroke="black" cx="1714.03" cy="-347" rx="41.69" ry="18"/>
<text text-anchor="middle" x="1714.03" y="-343.3" font-family="Times,serif" font-size="14.00">exists_at</text>
</g>
<!-- epilogue&#45;&gt;exists_at -->
<g id="edge23" class="edge">
<title>epilogue&#45;&gt;exists_at</title>
<path fill="none" stroke="black" d="M1336.06,-421.39C1418.39,-421.65 1600.74,-419.46 1658.03,-396 1671.12,-390.64 1683.34,-380.97 1693,-371.7"/>
<polygon fill="black" stroke="black" points="1695.63,-374.02 1700.17,-364.45 1690.65,-369.1 1695.63,-374.02"/>
</g>
<!-- DiemTimestamp::now_microseconds&#45;&gt;CoreAddresses::DIEM_ROOT_ADDRESS -->
<g id="edge24" class="edge">
<title>DiemTimestamp::now_microseconds&#45;&gt;CoreAddresses::DIEM_ROOT_ADDRESS</title>
<path fill="none" stroke="black" d="M468.97,-257.3C482.2,-252.31 496.2,-245.91 508.03,-238 546.18,-212.48 536.94,-181.32 579.03,-163 603.74,-152.25 1522.6,-160.24 1549.03,-155 1576.18,-149.61 1605.01,-138.15 1627.49,-127.77"/>
<polygon fill="black" stroke="black" points="1629.17,-130.85 1636.71,-123.42 1626.17,-124.52 1629.17,-130.85"/>
</g>
<!-- DiemTimestamp::assert_operating -->
<g id="node23" class="node">
<title>DiemTimestamp::assert_operating</title>
<ellipse fill="none" stroke="black" cx="431.03" cy="-189" rx="68.49" ry="18"/>
<text text-anchor="middle" x="431.03" y="-185.3" font-family="Times,serif" font-size="14.00">assert_operating</text>
</g>
<!-- DiemTimestamp::now_microseconds&#45;&gt;DiemTimestamp::assert_operating -->
<g id="edge25" class="edge">
<title>DiemTimestamp::now_microseconds&#45;&gt;DiemTimestamp::assert_operating</title>
<path fill="none" stroke="black" d="M423.94,-253.82C425.12,-243.19 426.66,-229.31 428.01,-217.2"/>
<polygon fill="black" stroke="black" points="431.5,-217.48 429.12,-207.15 424.54,-216.71 431.5,-217.48"/>
</g>
<!-- Roles::has_role&#45;&gt;Signer::address_of -->
<g id="edge26" class="edge">
<title>Roles::has_role&#45;&gt;Signer::address_of</title>
<path fill="none" stroke="black" d="M661.79,-172C652.19,-160.39 639.03,-144.48 628.14,-131.31"/>
<polygon fill="black" stroke="black" points="630.77,-129 621.7,-123.53 625.38,-133.46 630.77,-129"/>
</g>
<!-- Roles::assert_diem_root&#45;&gt;Signer::address_of -->
<g id="edge27" class="edge">
<title>Roles::assert_diem_root&#45;&gt;Signer::address_of</title>
<path fill="none" stroke="black" d="M803.95,-256.86C790.8,-252.66 775.93,-248.52 762.03,-246 747.13,-243.3 637.14,-248.28 626.03,-238 597.96,-212.04 598.8,-164.41 602.81,-134.3"/>
<polygon fill="black" stroke="black" points="606.32,-134.48 604.38,-124.07 599.4,-133.42 606.32,-134.48"/>
</g>
<!-- Roles::assert_diem_root&#45;&gt;Errors::not_published -->
<g id="edge28" class="edge">
<title>Roles::assert_diem_root&#45;&gt;Errors::not_published</title>
<path fill="none" stroke="black" d="M855.93,-253.94C878.22,-224.49 921.97,-166.88 926.03,-163 930.32,-158.9 953.84,-142.54 974.28,-128.55"/>
<polygon fill="black" stroke="black" points="976.5,-131.27 982.78,-122.74 972.55,-125.49 976.5,-131.27"/>
</g>
<!-- Errors::requires_role -->
<g id="node24" class="node">
<title>Errors::requires_role</title>
<ellipse fill="none" stroke="black" cx="870.03" cy="-106" rx="57.39" ry="18"/>
<text text-anchor="middle" x="870.03" y="-102.3" font-family="Times,serif" font-size="14.00">requires_role</text>
</g>
<!-- Roles::assert_diem_root&#45;&gt;Errors::requires_role -->
<g id="edge29" class="edge">
<title>Roles::assert_diem_root&#45;&gt;Errors::requires_role</title>
<path fill="none" stroke="black" d="M845.87,-253.76C850.56,-225.26 859.97,-168.12 865.56,-134.16"/>
<polygon fill="black" stroke="black" points="869.06,-134.45 867.23,-124.01 862.15,-133.31 869.06,-134.45"/>
</g>
<!-- CoreAddresses::assert_diem_root -->
<g id="node25" class="node">
<title>CoreAddresses::assert_diem_root</title>
<ellipse fill="none" stroke="black" cx="1632.03" cy="-189" rx="71.49" ry="18"/>
<text text-anchor="middle" x="1632.03" y="-185.3" font-family="Times,serif" font-size="14.00">assert_diem_root</text>
</g>
<!-- Roles::assert_diem_root&#45;&gt;CoreAddresses::assert_diem_root -->
<g id="edge30" class="edge">
<title>Roles::assert_diem_root&#45;&gt;CoreAddresses::assert_diem_root</title>
<path fill="none" stroke="black" d="M882.65,-256.85C896.23,-252.6 911.63,-248.42 926.03,-246 1011.13,-231.67 1033.93,-243.81 1120.03,-238 1276.12,-227.47 1458.41,-208.87 1557.91,-198.18"/>
<polygon fill="black" stroke="black" points="1558.29,-201.65 1567.86,-197.1 1557.54,-194.69 1558.29,-201.65"/>
</g>
<!-- DiemConfig::reconfigure_&#45;&gt;CoreAddresses::DIEM_ROOT_ADDRESS -->
<g id="edge32" class="edge">
<title>DiemConfig::reconfigure_&#45;&gt;CoreAddresses::DIEM_ROOT_ADDRESS</title>
<path fill="none" stroke="black" d="M207.42,-335.83C215.2,-332.27 222.56,-327.47 228.03,-321 274.36,-266.23 205.5,-208.42 261.03,-163 274.88,-151.67 1531.48,-158.46 1549.03,-155 1576.18,-149.64 1605.01,-138.18 1627.49,-127.8"/>
<polygon fill="black" stroke="black" points="1629.17,-130.87 1636.71,-123.44 1626.18,-124.55 1629.17,-130.87"/>
</g>
<!-- DiemConfig::reconfigure_&#45;&gt;Event::emit_event -->
<g id="edge35" class="edge">
<title>DiemConfig::reconfigure_&#45;&gt;Event::emit_event</title>
<path fill="none" stroke="black" d="M209.22,-336.52C225.48,-333.52 244.01,-330.58 261.03,-329 297.82,-325.58 891.14,-333.16 926.03,-321 940.72,-315.88 954.64,-305.77 965.57,-296.14"/>
<polygon fill="black" stroke="black" points="968,-298.66 972.95,-289.29 963.24,-293.52 968,-298.66"/>
</g>
<!-- DiemConfig::reconfigure_&#45;&gt;DiemTimestamp::now_microseconds -->
<g id="edge34" class="edge">
<title>DiemConfig::reconfigure_&#45;&gt;DiemTimestamp::now_microseconds</title>
<path fill="none" stroke="black" d="M206.62,-335.39C223.58,-331.07 243.27,-325.93 261.03,-321 296.53,-311.14 336.2,-299.32 367.28,-289.88"/>
<polygon fill="black" stroke="black" points="368.5,-293.16 377.05,-286.9 366.46,-286.47 368.5,-293.16"/>
</g>
<!-- Errors::invalid_state -->
<g id="node26" class="node">
<title>Errors::invalid_state</title>
<ellipse fill="none" stroke="black" cx="739.03" cy="-106" rx="55.79" ry="18"/>
<text text-anchor="middle" x="739.03" y="-102.3" font-family="Times,serif" font-size="14.00">invalid_state</text>
</g>
<!-- DiemConfig::reconfigure_&#45;&gt;Errors::invalid_state -->
<g id="edge31" class="edge">
<title>DiemConfig::reconfigure_&#45;&gt;Errors::invalid_state</title>
<path fill="none" stroke="black" d="M109.57,-343.82C73.13,-341.08 29.76,-334.91 18.03,-321 -39.34,-252.97 56.13,-189.67 141.03,-163 197.22,-145.35 615.03,-173.24 671.03,-155 686.88,-149.84 702.26,-139.58 714.37,-129.87"/>
<polygon fill="black" stroke="black" points="716.78,-132.41 722.19,-123.3 712.28,-127.04 716.78,-132.41"/>
</g>
<!-- DiemTimestamp::is_genesis -->
<g id="node27" class="node">
<title>DiemTimestamp::is_genesis</title>
<ellipse fill="none" stroke="black" cx="320.03" cy="-347" rx="46.59" ry="18"/>
<text text-anchor="middle" x="320.03" y="-343.3" font-family="Times,serif" font-size="14.00">is_genesis</text>
</g>
<!-- DiemConfig::reconfigure_&#45;&gt;DiemTimestamp::is_genesis -->
<g id="edge33" class="edge">
<title>DiemConfig::reconfigure_&#45;&gt;DiemTimestamp::is_genesis</title>
<path fill="none" stroke="black" d="M219.48,-347C233.95,-347 248.42,-347 262.88,-347"/>
<polygon fill="black" stroke="black" points="262.9,-350.5 272.9,-347 262.9,-343.5 262.9,-350.5"/>
</g>
<!-- DiemConfig::reconfiguration_enabled -->
<g id="node28" class="node">
<title>DiemConfig::reconfiguration_enabled</title>
<ellipse fill="none" stroke="black" cx="123.03" cy="-272" rx="96.38" ry="18"/>
<text text-anchor="middle" x="123.03" y="-268.3" font-family="Times,serif" font-size="14.00">reconfiguration_enabled</text>
</g>
<!-- DiemConfig::reconfigure_&#45;&gt;DiemConfig::reconfiguration_enabled -->
<g id="edge36" class="edge">
<title>DiemConfig::reconfigure_&#45;&gt;DiemConfig::reconfiguration_enabled</title>
<path fill="none" stroke="black" d="M154.52,-329.07C149.48,-320.1 143.19,-308.9 137.56,-298.87"/>
<polygon fill="black" stroke="black" points="140.58,-297.1 132.63,-290.09 134.47,-300.53 140.58,-297.1"/>
</g>
<!-- Errors::limit_exceeded&#45;&gt;Errors::make -->
<g id="edge37" class="edge">
<title>Errors::limit_exceeded&#45;&gt;Errors::make</title>
<path fill="none" stroke="black" d="M1274.97,-91.41C1263.73,-87.61 1251.42,-83.55 1240.03,-80 1198.87,-67.19 1151.23,-53.82 1119.12,-45.02"/>
<polygon fill="black" stroke="black" points="1119.84,-41.59 1109.27,-42.33 1117.99,-48.34 1119.84,-41.59"/>
</g>
<!-- Errors::not_published&#45;&gt;Errors::make -->
<g id="edge38" class="edge">
<title>Errors::not_published&#45;&gt;Errors::make</title>
<path fill="none" stroke="black" d="M1023.66,-88.76C1034.13,-79.12 1047.54,-66.77 1058.86,-56.34"/>
<polygon fill="black" stroke="black" points="1061.32,-58.83 1066.3,-49.48 1056.58,-53.68 1061.32,-58.83"/>
</g>
<!-- Diem::withdraw&#45;&gt;Errors::limit_exceeded -->
<g id="edge39" class="edge">
<title>Diem::withdraw&#45;&gt;Errors::limit_exceeded</title>
<path fill="none" stroke="black" d="M1823.46,-256.86C1814.76,-252.55 1804.72,-248.34 1795.03,-246 1768.44,-239.59 1574.48,-248.01 1549.03,-238 1501.83,-219.43 1509.51,-183.3 1463.03,-163 1432.31,-149.58 1419.62,-166.21 1388.03,-155 1371.45,-149.12 1354.86,-138.86 1341.6,-129.33"/>
<polygon fill="black" stroke="black" points="1343.51,-126.38 1333.4,-123.22 1339.33,-132 1343.51,-126.38"/>
</g>
<!-- TransactionFee::pay_fee&#45;&gt;Errors::not_published -->
<g id="edge40" class="edge">
<title>TransactionFee::pay_fee&#45;&gt;Errors::not_published</title>
<path fill="none" stroke="black" d="M1455.63,-335.94C1444.5,-331.84 1431.96,-326.71 1421.03,-321 1310.14,-263.05 1306.25,-203.97 1188.03,-163 1140.88,-146.66 1123.14,-171.46 1076.03,-155 1060.09,-149.43 1044.4,-139.23 1031.93,-129.67"/>
<polygon fill="black" stroke="black" points="1033.84,-126.71 1023.84,-123.21 1029.47,-132.18 1033.84,-126.71"/>
</g>
<!-- TransactionFee::pay_fee&#45;&gt;DiemTimestamp::assert_operating -->
<g id="edge42" class="edge">
<title>TransactionFee::pay_fee&#45;&gt;DiemTimestamp::assert_operating</title>
<path fill="none" stroke="black" d="M1452.86,-337.74C1433.86,-332.96 1409.57,-326.76 1388.03,-321 1268.54,-289.04 1242.44,-263.73 1120.03,-246 1001.03,-228.77 697.65,-257.65 579.03,-238 543.24,-232.07 504.26,-219.15 475.29,-208.21"/>
<polygon fill="black" stroke="black" points="476.46,-204.91 465.87,-204.58 473.95,-211.44 476.46,-204.91"/>
</g>
<!-- CoreAddresses::TREASURY_COMPLIANCE_ADDRESS -->
<g id="node29" class="node">
<title>CoreAddresses::TREASURY_COMPLIANCE_ADDRESS</title>
<ellipse fill="none" stroke="black" cx="1885.03" cy="-189" rx="163.27" ry="18"/>
<text text-anchor="middle" x="1885.03" y="-185.3" font-family="Times,serif" font-size="14.00">TREASURY_COMPLIANCE_ADDRESS</text>
</g>
<!-- TransactionFee::pay_fee&#45;&gt;CoreAddresses::TREASURY_COMPLIANCE_ADDRESS -->
<g id="edge41" class="edge">
<title>TransactionFee::pay_fee&#45;&gt;CoreAddresses::TREASURY_COMPLIANCE_ADDRESS</title>
<path fill="none" stroke="black" d="M1524.36,-344.63C1545.46,-342.07 1570.95,-335.81 1589.03,-321 1617.49,-297.7 1593.93,-267.15 1624.03,-246 1640.1,-234.71 1692.71,-241.53 1712.03,-238 1750.38,-231 1792.54,-219.38 1825.65,-209.33"/>
<polygon fill="black" stroke="black" points="1827.08,-212.55 1835.62,-206.27 1825.03,-205.86 1827.08,-212.55"/>
</g>
<!-- Diem::deposit -->
<g id="node30" class="node">
<title>Diem::deposit</title>
<ellipse fill="none" stroke="black" cx="1672.03" cy="-272" rx="36.29" ry="18"/>
<text text-anchor="middle" x="1672.03" y="-268.3" font-family="Times,serif" font-size="14.00">deposit</text>
</g>
<!-- TransactionFee::pay_fee&#45;&gt;Diem::deposit -->
<g id="edge43" class="edge">
<title>TransactionFee::pay_fee&#45;&gt;Diem::deposit</title>
<path fill="none" stroke="black" d="M1522.02,-340.48C1559.27,-334.6 1613.21,-325.51 1622.03,-321 1633.46,-315.14 1644.05,-305.83 1652.51,-296.95"/>
<polygon fill="black" stroke="black" points="1655.26,-299.13 1659.37,-289.37 1650.07,-294.44 1655.26,-299.13"/>
</g>
<!-- TransactionFee::is_coin_initialized -->
<g id="node31" class="node">
<title>TransactionFee::is_coin_initialized</title>
<ellipse fill="none" stroke="black" cx="1505.03" cy="-272" rx="75.29" ry="18"/>
<text text-anchor="middle" x="1505.03" y="-268.3" font-family="Times,serif" font-size="14.00">is_coin_initialized</text>
</g>
<!-- TransactionFee::pay_fee&#45;&gt;TransactionFee::is_coin_initialized -->
<g id="edge44" class="edge">
<title>TransactionFee::pay_fee&#45;&gt;TransactionFee::is_coin_initialized</title>
<path fill="none" stroke="black" d="M1490.44,-329.07C1492.7,-320.38 1495.51,-309.59 1498.05,-299.8"/>
<polygon fill="black" stroke="black" points="1501.45,-300.65 1500.58,-290.09 1494.67,-298.89 1501.45,-300.65"/>
</g>
<!-- DiemTimestamp::assert_operating&#45;&gt;Errors::invalid_state -->
<g id="edge45" class="edge">
<title>DiemTimestamp::assert_operating&#45;&gt;Errors::invalid_state</title>
<path fill="none" stroke="black" d="M479.51,-176.3C501.26,-171.47 527.31,-166.25 551.03,-163 577.51,-159.38 645.84,-163.93 671.03,-155 686.63,-149.47 701.89,-139.28 713.98,-129.7"/>
<polygon fill="black" stroke="black" points="716.33,-132.3 721.82,-123.24 711.88,-126.9 716.33,-132.3"/>
</g>
<!-- DiemTimestamp::is_operating -->
<g id="node32" class="node">
<title>DiemTimestamp::is_operating</title>
<ellipse fill="none" stroke="black" cx="439.03" cy="-106" rx="53.89" ry="18"/>
<text text-anchor="middle" x="439.03" y="-102.3" font-family="Times,serif" font-size="14.00">is_operating</text>
</g>
<!-- DiemTimestamp::assert_operating&#45;&gt;DiemTimestamp::is_operating -->
<g id="edge46" class="edge">
<title>DiemTimestamp::assert_operating&#45;&gt;DiemTimestamp::is_operating</title>
<path fill="none" stroke="black" d="M432.73,-170.82C433.78,-160.19 435.15,-146.31 436.34,-134.2"/>
<polygon fill="black" stroke="black" points="439.83,-134.45 437.33,-124.15 432.87,-133.76 439.83,-134.45"/>
</g>
<!-- Errors::requires_role&#45;&gt;Errors::make -->
<g id="edge47" class="edge">
<title>Errors::requires_role&#45;&gt;Errors::make</title>
<path fill="none" stroke="black" d="M904.67,-91.65C915.03,-87.77 926.45,-83.61 937.03,-80 973.62,-67.51 1015.89,-54.55 1045.32,-45.77"/>
<polygon fill="black" stroke="black" points="1046.57,-49.05 1055.16,-42.85 1044.58,-42.34 1046.57,-49.05"/>
</g>
<!-- CoreAddresses::assert_diem_root&#45;&gt;Signer::address_of -->
<g id="edge48" class="edge">
<title>CoreAddresses::assert_diem_root&#45;&gt;Signer::address_of</title>
<path fill="none" stroke="black" d="M1563.42,-183.68C1469.97,-177.97 1297.42,-168.05 1150.03,-163 1123.43,-162.09 696.17,-163.72 671.03,-155 656.18,-149.85 642.04,-139.74 630.93,-130.11"/>
<polygon fill="black" stroke="black" points="633.16,-127.41 623.41,-123.27 628.45,-132.59 633.16,-127.41"/>
</g>
<!-- CoreAddresses::assert_diem_root&#45;&gt;CoreAddresses::DIEM_ROOT_ADDRESS -->
<g id="edge50" class="edge">
<title>CoreAddresses::assert_diem_root&#45;&gt;CoreAddresses::DIEM_ROOT_ADDRESS</title>
<path fill="none" stroke="black" d="M1639.66,-170.82C1644.48,-159.98 1650.81,-145.74 1656.26,-133.47"/>
<polygon fill="black" stroke="black" points="1659.54,-134.71 1660.41,-124.15 1653.15,-131.87 1659.54,-134.71"/>
</g>
<!-- Errors::requires_address -->
<g id="node33" class="node">
<title>Errors::requires_address</title>
<ellipse fill="none" stroke="black" cx="1467.03" cy="-106" rx="69.59" ry="18"/>
<text text-anchor="middle" x="1467.03" y="-102.3" font-family="Times,serif" font-size="14.00">requires_address</text>
</g>
<!-- CoreAddresses::assert_diem_root&#45;&gt;Errors::requires_address -->
<g id="edge49" class="edge">
<title>CoreAddresses::assert_diem_root&#45;&gt;Errors::requires_address</title>
<path fill="none" stroke="black" d="M1592.65,-173.75C1578.68,-168.32 1562.96,-161.8 1549.03,-155 1532.7,-147.03 1515.24,-137.04 1500.65,-128.23"/>
<polygon fill="black" stroke="black" points="1502.33,-125.15 1491.97,-122.93 1498.68,-131.13 1502.33,-125.15"/>
</g>
<!-- Errors::invalid_state&#45;&gt;Errors::make -->
<g id="edge51" class="edge">
<title>Errors::invalid_state&#45;&gt;Errors::make</title>
<path fill="none" stroke="black" d="M770.99,-91.2C781.38,-87.12 793.06,-82.96 804.03,-80 887.17,-57.54 987.52,-44.68 1042.03,-38.85"/>
<polygon fill="black" stroke="black" points="1042.4,-42.33 1051.98,-37.81 1041.67,-35.37 1042.4,-42.33"/>
</g>
<!-- DiemTimestamp::is_genesis&#45;&gt;CoreAddresses::DIEM_ROOT_ADDRESS -->
<g id="edge52" class="edge">
<title>DiemTimestamp::is_genesis&#45;&gt;CoreAddresses::DIEM_ROOT_ADDRESS</title>
<path fill="none" stroke="black" d="M316.84,-328.77C311.05,-291.37 303.64,-202.96 354.03,-163 367.03,-152.69 1532.75,-158.22 1549.03,-155 1576.18,-149.64 1605.01,-138.17 1627.49,-127.79"/>
<polygon fill="black" stroke="black" points="1629.17,-130.87 1636.71,-123.43 1626.18,-124.54 1629.17,-130.87"/>
</g>
<!-- DiemConfig::reconfiguration_enabled&#45;&gt;CoreAddresses::DIEM_ROOT_ADDRESS -->
<g id="edge53" class="edge">
<title>DiemConfig::reconfiguration_enabled&#45;&gt;CoreAddresses::DIEM_ROOT_ADDRESS</title>
<path fill="none" stroke="black" d="M134,-253.8C151.4,-228.32 188,-181.57 233.03,-163 266.82,-149.06 1513.16,-162.07 1549.03,-155 1576.18,-149.64 1605.01,-138.18 1627.49,-127.8"/>
<polygon fill="black" stroke="black" points="1629.17,-130.88 1636.71,-123.44 1626.18,-124.55 1629.17,-130.88"/>
</g>
<!-- Diem::deposit&#45;&gt;Errors::limit_exceeded -->
<g id="edge54" class="edge">
<title>Diem::deposit&#45;&gt;Errors::limit_exceeded</title>
<path fill="none" stroke="black" d="M1643.53,-260.45C1628.43,-255.28 1609.44,-249.44 1592.03,-246 1552.2,-238.12 1539.08,-252.16 1501.03,-238 1447.62,-218.13 1443.77,-195.61 1397.03,-163 1380.58,-151.53 1362.1,-139.02 1346.77,-128.75"/>
<polygon fill="black" stroke="black" points="1348.39,-125.62 1338.14,-122.98 1344.5,-131.44 1348.39,-125.62"/>
</g>
<!-- TransactionFee::is_coin_initialized&#45;&gt;CoreAddresses::TREASURY_COMPLIANCE_ADDRESS -->
<g id="edge55" class="edge">
<title>TransactionFee::is_coin_initialized&#45;&gt;CoreAddresses::TREASURY_COMPLIANCE_ADDRESS</title>
<path fill="none" stroke="black" d="M1547.62,-257.11C1562.19,-252.88 1578.69,-248.65 1594.03,-246 1645.83,-237.07 1660.21,-246.85 1712.03,-238 1751.04,-231.34 1793.91,-219.48 1827.21,-209.21"/>
<polygon fill="black" stroke="black" points="1828.28,-212.55 1836.78,-206.23 1826.19,-205.86 1828.28,-212.55"/>
</g>
<!-- DiemTimestamp::is_operating&#45;&gt;CoreAddresses::DIEM_ROOT_ADDRESS -->
<g id="edge56" class="edge">
<title>DiemTimestamp::is_operating&#45;&gt;CoreAddresses::DIEM_ROOT_ADDRESS</title>
<path fill="none" stroke="black" d="M457.03,-123C472.76,-136.4 496.94,-153.68 522.03,-159 535.86,-161.94 1526.16,-161.76 1540.03,-159 1570.46,-152.95 1602.73,-139.53 1627.26,-127.72"/>
<polygon fill="black" stroke="black" points="1628.83,-130.84 1636.26,-123.28 1625.74,-124.56 1628.83,-130.84"/>
</g>
<!-- Errors::requires_address&#45;&gt;Errors::make -->
<g id="edge57" class="edge">
<title>Errors::requires_address&#45;&gt;Errors::make</title>
<path fill="none" stroke="black" d="M1427.59,-91.15C1415.06,-87.12 1401.07,-83 1388.03,-80 1293.99,-58.35 1181.19,-44.92 1122.3,-38.84"/>
<polygon fill="black" stroke="black" points="1122.6,-35.35 1112.3,-37.82 1121.89,-42.32 1122.6,-35.35"/>
</g>
</g>
</svg>
