<?xml version="1.0" encoding="UTF-8" standalone="no"?>
<!DOCTYPE svg PUBLIC "-//W3C//DTD SVG 1.1//EN"
 "http://www.w3.org/Graphics/SVG/1.1/DTD/svg11.dtd">
<!-- Generated by graphviz version 2.46.1 (20210213.1702)
 -->
<!-- Title: G Pages: 1 -->
<svg width="1184pt" height="376pt"
 viewBox="0.00 0.00 1184.00 376.00" xmlns="http://www.w3.org/2000/svg" xmlns:xlink="http://www.w3.org/1999/xlink">
<g id="graph0" class="graph" transform="scale(1 1) rotate(0) translate(4 372)">
<title>G</title>
<polygon fill="white" stroke="transparent" points="-4,4 -4,-372 1180,-372 1180,4 -4,4"/>
<g id="clust1" class="cluster">
<title>cluster_Signer</title>
<polygon fill="none" stroke="black" points="26,-174 26,-324 176,-324 176,-174 26,-174"/>
<text text-anchor="middle" x="101" y="-308.8" font-family="Times,serif" font-size="14.00">Signer</text>
</g>
<g id="clust2" class="cluster">
<title>cluster_Errors</title>
<polygon fill="none" stroke="black" points="8,-8 8,-166 586,-166 586,-8 8,-8"/>
<text text-anchor="middle" x="297" y="-150.8" font-family="Times,serif" font-size="14.00">Errors</text>
</g>
<g id="clust3" class="cluster">
<title>cluster_Diem</title>
<polygon fill="none" stroke="black" points="292,-174 292,-249 564,-249 564,-174 292,-174"/>
<text text-anchor="middle" x="428" y="-233.8" font-family="Times,serif" font-size="14.00">Diem</text>
</g>
<g id="clust4" class="cluster">
<title>cluster_TransactionFee</title>
<polygon fill="none" stroke="black" points="796,-174 796,-324 962,-324 962,-174 796,-174"/>
<text text-anchor="middle" x="879" y="-308.8" font-family="Times,serif" font-size="14.00">TransactionFee</text>
</g>
<g id="clust5" class="cluster">
<title>cluster_CoreAddresses</title>
<polygon fill="none" stroke="black" points="594,-8 594,-83 1168,-83 1168,-8 594,-8"/>
<text text-anchor="middle" x="881" y="-67.8" font-family="Times,serif" font-size="14.00">CoreAddresses</text>
</g>
<g id="clust6" class="cluster">
<title>cluster_DiemTimestamp</title>
<polygon fill="none" stroke="black" points="604,-91 604,-249 756,-249 756,-91 604,-91"/>
<text text-anchor="middle" x="680" y="-233.8" font-family="Times,serif" font-size="14.00">DiemTimestamp</text>
</g>
<!-- epilogue -->
<g id="node1" class="node">
<title>epilogue</title>
<ellipse fill="none" stroke="black" cx="299" cy="-350" rx="40.89" ry="18"/>
<text text-anchor="middle" x="299" y="-346.3" font-family="Times,serif" font-size="14.00">epilogue</text>
</g>
<!-- Signer::address_of -->
<g id="node2" class="node">
<title>Signer::address_of</title>
<ellipse fill="none" stroke="black" cx="110" cy="-275" rx="48.99" ry="18"/>
<text text-anchor="middle" x="110" y="-271.3" font-family="Times,serif" font-size="14.00">address_of</text>
</g>
<!-- epilogue&#45;&gt;Signer::address_of -->
<g id="edge1" class="edge">
<title>epilogue&#45;&gt;Signer::address_of</title>
<path fill="none" stroke="black" d="M259.95,-344.42C236.66,-340.78 206.88,-334.5 182,-324 166.26,-317.36 150.29,-307.14 137.4,-297.84"/>
<polygon fill="black" stroke="black" points="139.13,-294.76 129.02,-291.6 134.95,-300.38 139.13,-294.76"/>
</g>
<!-- Errors::invalid_argument -->
<g id="node3" class="node">
<title>Errors::invalid_argument</title>
<ellipse fill="none" stroke="black" cx="89" cy="-117" rx="73.39" ry="18"/>
<text text-anchor="middle" x="89" y="-113.3" font-family="Times,serif" font-size="14.00">invalid_argument</text>
</g>
<!-- epilogue&#45;&gt;Errors::invalid_argument -->
<g id="edge2" class="edge">
<title>epilogue&#45;&gt;Errors::invalid_argument</title>
<path fill="none" stroke="black" d="M262.83,-341.53C252.09,-337.79 241.05,-332.24 233,-324 183.57,-273.45 224.43,-229.01 180,-174 175.92,-168.95 149.05,-152.65 125.56,-138.93"/>
<polygon fill="black" stroke="black" points="127.18,-135.83 116.77,-133.83 123.66,-141.88 127.18,-135.83"/>
</g>
<!-- Errors::limit_exceeded -->
<g id="node4" class="node">
<title>Errors::limit_exceeded</title>
<ellipse fill="none" stroke="black" cx="245" cy="-117" rx="64.99" ry="18"/>
<text text-anchor="middle" x="245" y="-113.3" font-family="Times,serif" font-size="14.00">limit_exceeded</text>
</g>
<!-- epilogue&#45;&gt;Errors::limit_exceeded -->
<g id="edge3" class="edge">
<title>epilogue&#45;&gt;Errors::limit_exceeded</title>
<path fill="none" stroke="black" d="M270.71,-336.78C265.7,-333.36 261.1,-329.14 258,-324 224.1,-267.84 232.03,-186.66 239.31,-144.96"/>
<polygon fill="black" stroke="black" points="242.77,-145.48 241.17,-135.01 235.89,-144.2 242.77,-145.48"/>
</g>
<!-- Errors::not_published -->
<g id="node5" class="node">
<title>Errors::not_published</title>
<ellipse fill="none" stroke="black" cx="388" cy="-117" rx="60.39" ry="18"/>
<text text-anchor="middle" x="388" y="-113.3" font-family="Times,serif" font-size="14.00">not_published</text>
</g>
<!-- epilogue&#45;&gt;Errors::not_published -->
<g id="edge4" class="edge">
<title>epilogue&#45;&gt;Errors::not_published</title>
<path fill="none" stroke="black" d="M291.34,-332.18C277.19,-298.3 251.55,-221.05 288,-174 296.71,-162.75 306.07,-171.93 319,-166 333.66,-159.28 348.52,-149.41 360.67,-140.37"/>
<polygon fill="black" stroke="black" points="362.8,-143.15 368.62,-134.3 358.55,-137.59 362.8,-143.15"/>
</g>
<!-- Diem::value -->
<g id="node6" class="node">
<title>Diem::value</title>
<ellipse fill="none" stroke="black" cx="436" cy="-200" rx="29.8" ry="18"/>
<text text-anchor="middle" x="436" y="-196.3" font-family="Times,serif" font-size="14.00">value</text>
</g>
<!-- epilogue&#45;&gt;Diem::value -->
<g id="edge5" class="edge">
<title>epilogue&#45;&gt;Diem::value</title>
<path fill="none" stroke="black" d="M319.78,-334.3C323.96,-331.06 328.22,-327.54 332,-324 365.56,-292.58 398.91,-250.78 418.48,-224.9"/>
<polygon fill="black" stroke="black" points="421.37,-226.87 424.57,-216.77 415.77,-222.68 421.37,-226.87"/>
</g>
<!-- Diem::withdraw -->
<g id="node7" class="node">
<title>Diem::withdraw</title>
<ellipse fill="none" stroke="black" cx="344" cy="-200" rx="44.39" ry="18"/>
<text text-anchor="middle" x="344" y="-196.3" font-family="Times,serif" font-size="14.00">withdraw</text>
</g>
<!-- epilogue&#45;&gt;Diem::withdraw -->
<g id="edge6" class="edge">
<title>epilogue&#45;&gt;Diem::withdraw</title>
<path fill="none" stroke="black" d="M304.16,-332.02C311.89,-306.62 326.53,-258.47 335.74,-228.15"/>
<polygon fill="black" stroke="black" points="339.2,-228.82 338.76,-218.24 332.5,-226.78 339.2,-228.82"/>
</g>
<!-- TransactionFee::pay_fee -->
<g id="node8" class="node">
<title>TransactionFee::pay_fee</title>
<ellipse fill="none" stroke="black" cx="842" cy="-275" rx="38.19" ry="18"/>
<text text-anchor="middle" x="842" y="-271.3" font-family="Times,serif" font-size="14.00">pay_fee</text>
</g>
<!-- epilogue&#45;&gt;TransactionFee::pay_fee -->
<g id="edge7" class="edge">
<title>epilogue&#45;&gt;TransactionFee::pay_fee</title>
<path fill="none" stroke="black" d="M337.62,-343.81C435.04,-330.71 690.55,-296.36 795.73,-282.22"/>
<polygon fill="black" stroke="black" points="796.29,-285.68 805.73,-280.88 795.35,-278.74 796.29,-285.68"/>
</g>
<!-- exists_at -->
<g id="node9" class="node">
<title>exists_at</title>
<ellipse fill="none" stroke="black" cx="1012" cy="-275" rx="41.69" ry="18"/>
<text text-anchor="middle" x="1012" y="-271.3" font-family="Times,serif" font-size="14.00">exists_at</text>
</g>
<!-- epilogue&#45;&gt;exists_at -->
<g id="edge8" class="edge">
<title>epilogue&#45;&gt;exists_at</title>
<path fill="none" stroke="black" d="M340,-349.24C476.34,-349.81 909.11,-349.54 966,-324 977.29,-318.93 987.19,-309.69 994.88,-300.66"/>
<polygon fill="black" stroke="black" points="997.84,-302.57 1001.3,-292.56 992.35,-298.22 997.84,-302.57"/>
</g>
<!-- Signer::borrow_address -->
<g id="node10" class="node">
<title>Signer::borrow_address</title>
<ellipse fill="none" stroke="black" cx="101" cy="-200" rx="66.89" ry="18"/>
<text text-anchor="middle" x="101" y="-196.3" font-family="Times,serif" font-size="14.00">borrow_address</text>
</g>
<!-- Signer::address_of&#45;&gt;Signer::borrow_address -->
<g id="edge9" class="edge">
<title>Signer::address_of&#45;&gt;Signer::borrow_address</title>
<path fill="none" stroke="black" d="M107.87,-256.7C106.82,-248.25 105.55,-237.87 104.37,-228.37"/>
<polygon fill="black" stroke="black" points="107.81,-227.67 103.12,-218.18 100.87,-228.53 107.81,-227.67"/>
</g>
<!-- Errors::make -->
<g id="node11" class="node">
<title>Errors::make</title>
<ellipse fill="none" stroke="black" cx="316" cy="-34" rx="30.59" ry="18"/>
<text text-anchor="middle" x="316" y="-30.3" font-family="Times,serif" font-size="14.00">make</text>
</g>
<!-- Errors::invalid_argument&#45;&gt;Errors::make -->
<g id="edge10" class="edge">
<title>Errors::invalid_argument&#45;&gt;Errors::make</title>
<path fill="none" stroke="black" d="M128.8,-101.8C171.79,-86.46 239.64,-62.25 280.77,-47.57"/>
<polygon fill="black" stroke="black" points="282.13,-50.8 290.37,-44.15 279.77,-44.21 282.13,-50.8"/>
</g>
<!-- Errors::limit_exceeded&#45;&gt;Errors::make -->
<g id="edge11" class="edge">
<title>Errors::limit_exceeded&#45;&gt;Errors::make</title>
<path fill="none" stroke="black" d="M259.71,-99.22C270.14,-87.32 284.26,-71.21 295.75,-58.1"/>
<polygon fill="black" stroke="black" points="298.55,-60.22 302.51,-50.39 293.28,-55.6 298.55,-60.22"/>
</g>
<!-- Errors::not_published&#45;&gt;Errors::make -->
<g id="edge12" class="edge">
<title>Errors::not_published&#45;&gt;Errors::make</title>
<path fill="none" stroke="black" d="M373.08,-99.22C362.51,-87.32 348.19,-71.21 336.53,-58.1"/>
<polygon fill="black" stroke="black" points="338.94,-55.54 329.68,-50.39 333.71,-60.19 338.94,-55.54"/>
</g>
<!-- Diem::withdraw&#45;&gt;Errors::limit_exceeded -->
<g id="edge13" class="edge">
<title>Diem::withdraw&#45;&gt;Errors::limit_exceeded</title>
<path fill="none" stroke="black" d="M324.91,-183.38C310.14,-171.29 289.46,-154.37 272.84,-140.78"/>
<polygon fill="black" stroke="black" points="275,-138.03 265.05,-134.4 270.57,-143.45 275,-138.03"/>
</g>
<!-- TransactionFee::pay_fee&#45;&gt;Errors::not_published -->
<g id="edge14" class="edge">
<title>TransactionFee::pay_fee&#45;&gt;Errors::not_published</title>
<path fill="none" stroke="black" d="M803.25,-274.65C743.22,-274.9 631.36,-272.12 600,-249 570.83,-227.5 597.5,-195.05 568,-174 547.87,-159.64 480.32,-174.24 457,-166 441.35,-160.47 425.99,-150.37 413.74,-140.87"/>
<polygon fill="black" stroke="black" points="415.77,-138.01 405.8,-134.44 411.37,-143.45 415.77,-138.01"/>
</g>
<!-- CoreAddresses::TREASURY_COMPLIANCE_ADDRESS -->
<g id="node12" class="node">
<title>CoreAddresses::TREASURY_COMPLIANCE_ADDRESS</title>
<ellipse fill="none" stroke="black" cx="997" cy="-34" rx="163.27" ry="18"/>
<text text-anchor="middle" x="997" y="-30.3" font-family="Times,serif" font-size="14.00">TREASURY_COMPLIANCE_ADDRESS</text>
</g>
<!-- TransactionFee::pay_fee&#45;&gt;CoreAddresses::TREASURY_COMPLIANCE_ADDRESS -->
<g id="edge15" class="edge">
<title>TransactionFee::pay_fee&#45;&gt;CoreAddresses::TREASURY_COMPLIANCE_ADDRESS</title>
<path fill="none" stroke="black" d="M811.3,-263.79C804.83,-260.16 798.81,-255.34 795,-249 777.83,-220.43 780.47,-204 795,-174 823.67,-114.79 891.34,-76.41 940.47,-55.29"/>
<polygon fill="black" stroke="black" points="941.85,-58.51 949.73,-51.42 939.15,-52.05 941.85,-58.51"/>
</g>
<!-- DiemTimestamp::assert_operating -->
<g id="node13" class="node">
<title>DiemTimestamp::assert_operating</title>
<ellipse fill="none" stroke="black" cx="680" cy="-200" rx="68.49" ry="18"/>
<text text-anchor="middle" x="680" y="-196.3" font-family="Times,serif" font-size="14.00">assert_operating</text>
</g>
<!-- TransactionFee::pay_fee&#45;&gt;DiemTimestamp::assert_operating -->
<g id="edge16" class="edge">
<title>TransactionFee::pay_fee&#45;&gt;DiemTimestamp::assert_operating</title>
<path fill="none" stroke="black" d="M809.08,-265.54C794.39,-261.3 777.04,-255.65 762,-249 745.13,-241.54 727.36,-231.45 712.69,-222.44"/>
<polygon fill="black" stroke="black" points="714.32,-219.33 703.99,-217 710.61,-225.27 714.32,-219.33"/>
</g>
<!-- Diem::deposit -->
<g id="node14" class="node">
<title>Diem::deposit</title>
<ellipse fill="none" stroke="black" cx="520" cy="-200" rx="36.29" ry="18"/>
<text text-anchor="middle" x="520" y="-196.3" font-family="Times,serif" font-size="14.00">deposit</text>
</g>
<!-- TransactionFee::pay_fee&#45;&gt;Diem::deposit -->
<g id="edge17" class="edge">
<title>TransactionFee::pay_fee&#45;&gt;Diem::deposit</title>
<path fill="none" stroke="black" d="M803.72,-273.57C738.91,-272.34 610.66,-267.56 570,-249 558.15,-243.59 547.38,-234.17 538.89,-225.1"/>
<polygon fill="black" stroke="black" points="541.29,-222.52 532.06,-217.32 536.03,-227.14 541.29,-222.52"/>
</g>
<!-- TransactionFee::is_coin_initialized -->
<g id="node15" class="node">
<title>TransactionFee::is_coin_initialized</title>
<ellipse fill="none" stroke="black" cx="879" cy="-200" rx="75.29" ry="18"/>
<text text-anchor="middle" x="879" y="-196.3" font-family="Times,serif" font-size="14.00">is_coin_initialized</text>
</g>
<!-- TransactionFee::pay_fee&#45;&gt;TransactionFee::is_coin_initialized -->
<g id="edge18" class="edge">
<title>TransactionFee::pay_fee&#45;&gt;TransactionFee::is_coin_initialized</title>
<path fill="none" stroke="black" d="M850.4,-257.44C854.92,-248.51 860.61,-237.29 865.72,-227.21"/>
<polygon fill="black" stroke="black" points="868.98,-228.51 870.38,-218.01 862.74,-225.34 868.98,-228.51"/>
</g>
<!-- Errors::invalid_state -->
<g id="node16" class="node">
<title>Errors::invalid_state</title>
<ellipse fill="none" stroke="black" cx="522" cy="-117" rx="55.79" ry="18"/>
<text text-anchor="middle" x="522" y="-113.3" font-family="Times,serif" font-size="14.00">invalid_state</text>
</g>
<!-- DiemTimestamp::assert_operating&#45;&gt;Errors::invalid_state -->
<g id="edge19" class="edge">
<title>DiemTimestamp::assert_operating&#45;&gt;Errors::invalid_state</title>
<path fill="none" stroke="black" d="M642.4,-184.94C628.82,-179.48 613.52,-172.89 600,-166 584.31,-158 567.6,-147.94 553.69,-139.1"/>
<polygon fill="black" stroke="black" points="555.29,-135.97 544.99,-133.5 551.5,-141.86 555.29,-135.97"/>
</g>
<!-- DiemTimestamp::is_operating -->
<g id="node17" class="node">
<title>DiemTimestamp::is_operating</title>
<ellipse fill="none" stroke="black" cx="687" cy="-117" rx="53.89" ry="18"/>
<text text-anchor="middle" x="687" y="-113.3" font-family="Times,serif" font-size="14.00">is_operating</text>
</g>
<!-- DiemTimestamp::assert_operating&#45;&gt;DiemTimestamp::is_operating -->
<g id="edge20" class="edge">
<title>DiemTimestamp::assert_operating&#45;&gt;DiemTimestamp::is_operating</title>
<path fill="none" stroke="black" d="M681.48,-181.82C682.4,-171.19 683.6,-157.31 684.65,-145.2"/>
<polygon fill="black" stroke="black" points="688.14,-145.42 685.52,-135.15 681.17,-144.81 688.14,-145.42"/>
</g>
<!-- Diem::deposit&#45;&gt;Errors::limit_exceeded -->
<g id="edge21" class="edge">
<title>Diem::deposit&#45;&gt;Errors::limit_exceeded</title>
<path fill="none" stroke="black" d="M499.36,-184.94C491.99,-180.64 483.42,-176.41 475,-174 408.26,-154.87 385.04,-187.4 319,-166 302.15,-160.54 285.42,-150.22 272.14,-140.54"/>
<polygon fill="black" stroke="black" points="274.03,-137.58 263.95,-134.33 269.8,-143.16 274.03,-137.58"/>
</g>
<!-- TransactionFee::is_coin_initialized&#45;&gt;CoreAddresses::TREASURY_COMPLIANCE_ADDRESS -->
<g id="edge22" class="edge">
<title>TransactionFee::is_coin_initialized&#45;&gt;CoreAddresses::TREASURY_COMPLIANCE_ADDRESS</title>
<path fill="none" stroke="black" d="M891.18,-182.07C911.94,-153.22 954.27,-94.38 978.63,-60.53"/>
<polygon fill="black" stroke="black" points="981.71,-62.25 984.71,-52.09 976.02,-58.16 981.71,-62.25"/>
</g>
<!-- Errors::invalid_state&#45;&gt;Errors::make -->
<g id="edge23" class="edge">
<title>Errors::invalid_state&#45;&gt;Errors::make</title>
<path fill="none" stroke="black" d="M487.98,-102.62C449.9,-87.65 388.54,-63.52 350.33,-48.5"/>
<polygon fill="black" stroke="black" points="351.27,-45.11 340.68,-44.7 348.7,-51.62 351.27,-45.11"/>
</g>
<!-- CoreAddresses::DIEM_ROOT_ADDRESS -->
<g id="node18" class="node">
<title>CoreAddresses::DIEM_ROOT_ADDRESS</title>
<ellipse fill="none" stroke="black" cx="709" cy="-34" rx="106.68" ry="18"/>
<text text-anchor="middle" x="709" y="-30.3" font-family="Times,serif" font-size="14.00">DIEM_ROOT_ADDRESS</text>
</g>
<!-- DiemTimestamp::is_operating&#45;&gt;CoreAddresses::DIEM_ROOT_ADDRESS -->
<g id="edge24" class="edge">
<title>DiemTimestamp::is_operating&#45;&gt;CoreAddresses::DIEM_ROOT_ADDRESS</title>
<path fill="none" stroke="black" d="M691.67,-98.82C694.58,-88.08 698.4,-74.03 701.71,-61.84"/>
<polygon fill="black" stroke="black" points="705.1,-62.72 704.34,-52.15 698.34,-60.89 705.1,-62.72"/>
</g>
</g>
</svg>
