<?xml version="1.0" encoding="UTF-8" standalone="no"?>
<!DOCTYPE svg PUBLIC "-//W3C//DTD SVG 1.1//EN"
 "http://www.w3.org/Graphics/SVG/1.1/DTD/svg11.dtd">
<!-- Generated by graphviz version 2.46.1 (20210213.1702)
 -->
<!-- Title: G Pages: 1 -->
<svg width="1050pt" height="279pt"
 viewBox="0.00 0.00 1050.00 279.00" xmlns="http://www.w3.org/2000/svg" xmlns:xlink="http://www.w3.org/1999/xlink">
<g id="graph0" class="graph" transform="scale(1 1) rotate(0) translate(4 275)">
<title>G</title>
<polygon fill="white" stroke="transparent" points="-4,4 -4,-275 1046,-275 1046,4 -4,4"/>
<g id="clust1" class="cluster">
<title>cluster_Signer</title>
<polygon fill="none" stroke="black" points="8,-152 8,-227 158,-227 158,-152 8,-152"/>
<text text-anchor="middle" x="83" y="-211.8" font-family="Times,serif" font-size="14.00">Signer</text>
</g>
<g id="clust2" class="cluster">
<title>cluster_Errors</title>
<polygon fill="none" stroke="black" points="166,-80 166,-227 328,-227 328,-80 166,-80"/>
<text text-anchor="middle" x="247" y="-211.8" font-family="Times,serif" font-size="14.00">Errors</text>
</g>
<g id="clust3" class="cluster">
<title>cluster_Vector</title>
<polygon fill="none" stroke="black" points="336,-8 336,-227 898,-227 898,-8 336,-8"/>
<text text-anchor="middle" x="617" y="-211.8" font-family="Times,serif" font-size="14.00">Vector</text>
</g>
<g id="clust4" class="cluster">
<title>cluster_BCS</title>
<polygon fill="none" stroke="black" points="938,-152 938,-227 1034,-227 1034,-152 938,-152"/>
<text text-anchor="middle" x="986" y="-211.8" font-family="Times,serif" font-size="14.00">BCS</text>
</g>
<!-- create_authentication_key -->
<g id="node1" class="node">
<title>create_authentication_key</title>
<ellipse fill="none" stroke="black" cx="625" cy="-253" rx="102.88" ry="18"/>
<text text-anchor="middle" x="625" y="-249.3" font-family="Times,serif" font-size="14.00">create_authentication_key</text>
</g>
<!-- Signer::borrow_address -->
<g id="node2" class="node">
<title>Signer::borrow_address</title>
<ellipse fill="none" stroke="black" cx="83" cy="-178" rx="66.89" ry="18"/>
<text text-anchor="middle" x="83" y="-174.3" font-family="Times,serif" font-size="14.00">borrow_address</text>
</g>
<!-- create_authentication_key&#45;&gt;Signer::borrow_address -->
<g id="edge1" class="edge">
<title>create_authentication_key&#45;&gt;Signer::borrow_address</title>
<path fill="none" stroke="black" d="M522.16,-252.26C406.61,-251.52 226.74,-247.03 162,-227 144.1,-221.46 126.09,-210.99 111.8,-201.24"/>
<polygon fill="black" stroke="black" points="113.6,-198.22 103.42,-195.31 109.56,-203.94 113.6,-198.22"/>
</g>
<!-- Errors::invalid_argument -->
<g id="node3" class="node">
<title>Errors::invalid_argument</title>
<ellipse fill="none" stroke="black" cx="247" cy="-178" rx="73.39" ry="18"/>
<text text-anchor="middle" x="247" y="-174.3" font-family="Times,serif" font-size="14.00">invalid_argument</text>
</g>
<!-- create_authentication_key&#45;&gt;Errors::invalid_argument -->
<g id="edge2" class="edge">
<title>create_authentication_key&#45;&gt;Errors::invalid_argument</title>
<path fill="none" stroke="black" d="M525.99,-248.06C455.44,-244.4 367.12,-237.85 332,-227 313.05,-221.15 293.66,-210.61 278.2,-200.9"/>
<polygon fill="black" stroke="black" points="279.87,-197.82 269.58,-195.32 276.07,-203.69 279.87,-197.82"/>
</g>
<!-- Vector::append -->
<g id="node4" class="node">
<title>Vector::append</title>
<ellipse fill="none" stroke="black" cx="625" cy="-178" rx="36.29" ry="18"/>
<text text-anchor="middle" x="625" y="-174.3" font-family="Times,serif" font-size="14.00">append</text>
</g>
<!-- create_authentication_key&#45;&gt;Vector::append -->
<g id="edge3" class="edge">
<title>create_authentication_key&#45;&gt;Vector::append</title>
<path fill="none" stroke="black" d="M625,-234.7C625,-226.25 625,-215.87 625,-206.37"/>
<polygon fill="black" stroke="black" points="628.5,-206.18 625,-196.18 621.5,-206.18 628.5,-206.18"/>
</g>
<!-- Vector::length -->
<g id="node5" class="node">
<title>Vector::length</title>
<ellipse fill="none" stroke="black" cx="846" cy="-34" rx="32.49" ry="18"/>
<text text-anchor="middle" x="846" y="-30.3" font-family="Times,serif" font-size="14.00">length</text>
</g>
<!-- create_authentication_key&#45;&gt;Vector::length -->
<g id="edge4" class="edge">
<title>create_authentication_key&#45;&gt;Vector::length</title>
<path fill="none" stroke="black" d="M697.94,-240.22C763.19,-225.41 855.09,-192.98 899,-124 909.5,-107.5 907.21,-97.75 899,-80 894.11,-69.43 885.38,-60.44 876.4,-53.33"/>
<polygon fill="black" stroke="black" points="878.32,-50.41 868.18,-47.35 874.2,-56.07 878.32,-50.41"/>
</g>
<!-- BCS::to_bytes -->
<g id="node6" class="node">
<title>BCS::to_bytes</title>
<ellipse fill="none" stroke="black" cx="986" cy="-178" rx="40.09" ry="18"/>
<text text-anchor="middle" x="986" y="-174.3" font-family="Times,serif" font-size="14.00">to_bytes</text>
</g>
<!-- create_authentication_key&#45;&gt;BCS::to_bytes -->
<g id="edge5" class="edge">
<title>create_authentication_key&#45;&gt;BCS::to_bytes</title>
<path fill="none" stroke="black" d="M726.84,-250.61C801.62,-248.3 896.17,-242.32 932,-227 944.62,-221.61 956.31,-212.06 965.56,-202.89"/>
<polygon fill="black" stroke="black" points="968.36,-205.03 972.73,-195.38 963.3,-200.2 968.36,-205.03"/>
</g>
<!-- Errors::make -->
<g id="node7" class="node">
<title>Errors::make</title>
<ellipse fill="none" stroke="black" cx="247" cy="-106" rx="30.59" ry="18"/>
<text text-anchor="middle" x="247" y="-102.3" font-family="Times,serif" font-size="14.00">make</text>
</g>
<!-- Errors::invalid_argument&#45;&gt;Errors::make -->
<g id="edge6" class="edge">
<title>Errors::invalid_argument&#45;&gt;Errors::make</title>
<path fill="none" stroke="black" d="M247,-159.7C247,-151.98 247,-142.71 247,-134.11"/>
<polygon fill="black" stroke="black" points="250.5,-134.1 247,-124.1 243.5,-134.1 250.5,-134.1"/>
</g>
<!-- Vector::destroy_empty -->
<g id="node8" class="node">
<title>Vector::destroy_empty</title>
<ellipse fill="none" stroke="black" cx="408" cy="-106" rx="63.89" ry="18"/>
<text text-anchor="middle" x="408" y="-102.3" font-family="Times,serif" font-size="14.00">destroy_empty</text>
</g>
<!-- Vector::append&#45;&gt;Vector::destroy_empty -->
<g id="edge7" class="edge">
<title>Vector::append&#45;&gt;Vector::destroy_empty</title>
<path fill="none" stroke="black" d="M595.28,-167.41C559.96,-156.02 500.47,-136.83 458.02,-123.13"/>
<polygon fill="black" stroke="black" points="459.02,-119.78 448.43,-120.04 456.87,-126.44 459.02,-119.78"/>
</g>
<!-- Vector::is_empty -->
<g id="node9" class="node">
<title>Vector::is_empty</title>
<ellipse fill="none" stroke="black" cx="846" cy="-106" rx="43.59" ry="18"/>
<text text-anchor="middle" x="846" y="-102.3" font-family="Times,serif" font-size="14.00">is_empty</text>
</g>
<!-- Vector::append&#45;&gt;Vector::is_empty -->
<g id="edge8" class="edge">
<title>Vector::append&#45;&gt;Vector::is_empty</title>
<path fill="none" stroke="black" d="M655.06,-167.57C688.68,-157 744.77,-139.34 793,-124 796.28,-122.96 799.67,-121.88 803.07,-120.79"/>
<polygon fill="black" stroke="black" points="804.19,-124.11 812.65,-117.73 802.06,-117.44 804.19,-124.11"/>
</g>
<!-- Vector::pop_back -->
<g id="node10" class="node">
<title>Vector::pop_back</title>
<ellipse fill="none" stroke="black" cx="625" cy="-106" rx="44.69" ry="18"/>
<text text-anchor="middle" x="625" y="-102.3" font-family="Times,serif" font-size="14.00">pop_back</text>
</g>
<!-- Vector::append&#45;&gt;Vector::pop_back -->
<g id="edge9" class="edge">
<title>Vector::append&#45;&gt;Vector::pop_back</title>
<path fill="none" stroke="black" d="M625,-159.7C625,-151.98 625,-142.71 625,-134.11"/>
<polygon fill="black" stroke="black" points="628.5,-134.1 625,-124.1 621.5,-134.1 628.5,-134.1"/>
</g>
<!-- Vector::push_back -->
<g id="node11" class="node">
<title>Vector::push_back</title>
<ellipse fill="none" stroke="black" cx="736" cy="-106" rx="48.19" ry="18"/>
<text text-anchor="middle" x="736" y="-102.3" font-family="Times,serif" font-size="14.00">push_back</text>
</g>
<!-- Vector::append&#45;&gt;Vector::push_back -->
<g id="edge10" class="edge">
<title>Vector::append&#45;&gt;Vector::push_back</title>
<path fill="none" stroke="black" d="M646.67,-163.34C662.93,-153.08 685.47,-138.87 703.83,-127.28"/>
<polygon fill="black" stroke="black" points="705.88,-130.13 712.47,-121.84 702.14,-124.21 705.88,-130.13"/>
</g>
<!-- Vector::reverse -->
<g id="node12" class="node">
<title>Vector::reverse</title>
<ellipse fill="none" stroke="black" cx="526" cy="-106" rx="36.29" ry="18"/>
<text text-anchor="middle" x="526" y="-102.3" font-family="Times,serif" font-size="14.00">reverse</text>
</g>
<!-- Vector::append&#45;&gt;Vector::reverse -->
<g id="edge11" class="edge">
<title>Vector::append&#45;&gt;Vector::reverse</title>
<path fill="none" stroke="black" d="M604.97,-162.83C590.47,-152.59 570.68,-138.59 554.54,-127.18"/>
<polygon fill="black" stroke="black" points="556.19,-124.06 546,-121.14 552.15,-129.78 556.19,-124.06"/>
</g>
<!-- Vector::is_empty&#45;&gt;Vector::length -->
<g id="edge12" class="edge">
<title>Vector::is_empty&#45;&gt;Vector::length</title>
<path fill="none" stroke="black" d="M846,-87.7C846,-79.98 846,-70.71 846,-62.11"/>
<polygon fill="black" stroke="black" points="849.5,-62.1 846,-52.1 842.5,-62.1 849.5,-62.1"/>
</g>
<!-- Vector::reverse&#45;&gt;Vector::length -->
<g id="edge13" class="edge">
<title>Vector::reverse&#45;&gt;Vector::length</title>
<path fill="none" stroke="black" d="M547.27,-91.21C554.54,-87.04 562.9,-82.82 571,-80 650.42,-52.38 748.75,-41.52 803.71,-37.4"/>
<polygon fill="black" stroke="black" points="804.06,-40.88 813.78,-36.68 803.56,-33.9 804.06,-40.88"/>
</g>
<!-- Vector::swap -->
<g id="node13" class="node">
<title>Vector::swap</title>
<ellipse fill="none" stroke="black" cx="526" cy="-34" rx="28.7" ry="18"/>
<text text-anchor="middle" x="526" y="-30.3" font-family="Times,serif" font-size="14.00">swap</text>
</g>
<!-- Vector::reverse&#45;&gt;Vector::swap -->
<g id="edge14" class="edge">
<title>Vector::reverse&#45;&gt;Vector::swap</title>
<path fill="none" stroke="black" d="M526,-87.7C526,-79.98 526,-70.71 526,-62.11"/>
<polygon fill="black" stroke="black" points="529.5,-62.1 526,-52.1 522.5,-62.1 529.5,-62.1"/>
</g>
</g>
</svg>
