<?xml version="1.0" encoding="UTF-8" standalone="no"?>
<!DOCTYPE svg PUBLIC "-//W3C//DTD SVG 1.1//EN"
 "http://www.w3.org/Graphics/SVG/1.1/DTD/svg11.dtd">
<!-- Generated by graphviz version 2.46.1 (20210213.1702)
 -->
<!-- Title: G Pages: 1 -->
<svg width="505pt" height="207pt"
 viewBox="0.00 0.00 504.89 207.00" xmlns="http://www.w3.org/2000/svg" xmlns:xlink="http://www.w3.org/1999/xlink">
<g id="graph0" class="graph" transform="scale(1 1) rotate(0) translate(4 203)">
<title>G</title>
<polygon fill="white" stroke="transparent" points="-4,4 -4,-203 500.89,-203 500.89,4 -4,4"/>
<g id="clust1" class="cluster">
<title>cluster_Errors</title>
<polygon fill="none" stroke="black" points="8,-8 8,-155 144,-155 144,-8 8,-8"/>
<text text-anchor="middle" x="76" y="-139.8" font-family="Times,serif" font-size="14.00">Errors</text>
</g>
<!-- sequence_number -->
<g id="node1" class="node">
<title>sequence_number</title>
<ellipse fill="none" stroke="black" cx="196" cy="-181" rx="74.99" ry="18"/>
<text text-anchor="middle" x="196" y="-177.3" font-family="Times,serif" font-size="14.00">sequence_number</text>
</g>
<!-- Errors::not_published -->
<g id="node2" class="node">
<title>Errors::not_published</title>
<ellipse fill="none" stroke="black" cx="76" cy="-106" rx="60.39" ry="18"/>
<text text-anchor="middle" x="76" y="-102.3" font-family="Times,serif" font-size="14.00">not_published</text>
</g>
<!-- sequence_number&#45;&gt;Errors::not_published -->
<g id="edge1" class="edge">
<title>sequence_number&#45;&gt;Errors::not_published</title>
<path fill="none" stroke="black" d="M162.96,-164.72C156.9,-161.66 150.69,-158.35 145,-155 131.64,-147.14 117.49,-137.54 105.5,-129"/>
<polygon fill="black" stroke="black" points="107.35,-126.02 97.2,-123 103.26,-131.69 107.35,-126.02"/>
</g>
<!-- exists_at -->
<g id="node3" class="node">
<title>exists_at</title>
<ellipse fill="none" stroke="black" cx="196" cy="-106" rx="41.69" ry="18"/>
<text text-anchor="middle" x="196" y="-102.3" font-family="Times,serif" font-size="14.00">exists_at</text>
</g>
<!-- sequence_number&#45;&gt;exists_at -->
<g id="edge2" class="edge">
<title>sequence_number&#45;&gt;exists_at</title>
<path fill="none" stroke="black" d="M196,-162.7C196,-154.25 196,-143.87 196,-134.37"/>
<polygon fill="black" stroke="black" points="199.5,-134.18 196,-124.18 192.5,-134.18 199.5,-134.18"/>
</g>
<!-- sequence_number_for_account -->
<g id="node4" class="node">
<title>sequence_number_for_account</title>
<ellipse fill="none" stroke="black" cx="376" cy="-106" rx="120.78" ry="18"/>
<text text-anchor="middle" x="376" y="-102.3" font-family="Times,serif" font-size="14.00">sequence_number_for_account</text>
</g>
<!-- sequence_number&#45;&gt;sequence_number_for_account -->
<g id="edge3" class="edge">
<title>sequence_number&#45;&gt;sequence_number_for_account</title>
<path fill="none" stroke="black" d="M232.43,-165.23C259.68,-154.17 297.23,-138.94 327.1,-126.83"/>
<polygon fill="black" stroke="black" points="328.55,-130.02 336.51,-123.02 325.92,-123.53 328.55,-130.02"/>
</g>
<!-- Errors::make -->
<g id="node5" class="node">
<title>Errors::make</title>
<ellipse fill="none" stroke="black" cx="76" cy="-34" rx="30.59" ry="18"/>
<text text-anchor="middle" x="76" y="-30.3" font-family="Times,serif" font-size="14.00">make</text>
</g>
<!-- Errors::not_published&#45;&gt;Errors::make -->
<g id="edge4" class="edge">
<title>Errors::not_published&#45;&gt;Errors::make</title>
<path fill="none" stroke="black" d="M76,-87.7C76,-79.98 76,-70.71 76,-62.11"/>
<polygon fill="black" stroke="black" points="79.5,-62.1 76,-52.1 72.5,-62.1 79.5,-62.1"/>
</g>
</g>
</svg>
