<?xml version="1.0" encoding="UTF-8" standalone="no"?>
<!DOCTYPE svg PUBLIC "-//W3C//DTD SVG 1.1//EN"
 "http://www.w3.org/Graphics/SVG/1.1/DTD/svg11.dtd">
<!-- Generated by graphviz version 2.46.1 (20210213.1702)
 -->
<!-- Title: G Pages: 1 -->
<svg width="570pt" height="282pt"
 viewBox="0.00 0.00 570.00 282.00" xmlns="http://www.w3.org/2000/svg" xmlns:xlink="http://www.w3.org/1999/xlink">
<g id="graph0" class="graph" transform="scale(1 1) rotate(0) translate(4 278)">
<title>G</title>
<polygon fill="white" stroke="transparent" points="-4,4 -4,-278 566,-278 566,4 -4,4"/>
<g id="clust1" class="cluster">
<title>cluster_Errors</title>
<polygon fill="none" stroke="black" points="8,-8 8,-158 274,-158 274,-8 8,-8"/>
<text text-anchor="middle" x="141" y="-142.8" font-family="Times,serif" font-size="14.00">Errors</text>
</g>
<g id="clust2" class="cluster">
<title>cluster_CoreAddresses</title>
<polygon fill="none" stroke="black" points="282,-8 282,-83 554,-83 554,-8 282,-8"/>
<text text-anchor="middle" x="418" y="-67.8" font-family="Times,serif" font-size="14.00">CoreAddresses</text>
</g>
<!-- assert_is_SCS_currency -->
<g id="node1" class="node">
<title>assert_is_SCS_currency</title>
<ellipse fill="none" stroke="black" cx="206" cy="-256" rx="96.38" ry="18"/>
<text text-anchor="middle" x="206" y="-252.3" font-family="Times,serif" font-size="14.00">assert_is_SCS_currency</text>
</g>
<!-- Errors::invalid_state -->
<g id="node2" class="node">
<title>Errors::invalid_state</title>
<ellipse fill="none" stroke="black" cx="72" cy="-109" rx="55.79" ry="18"/>
<text text-anchor="middle" x="72" y="-105.3" font-family="Times,serif" font-size="14.00">invalid_state</text>
</g>
<!-- assert_is_SCS_currency&#45;&gt;Errors::invalid_state -->
<g id="edge1" class="edge">
<title>assert_is_SCS_currency&#45;&gt;Errors::invalid_state</title>
<path fill="none" stroke="black" d="M172,-239.16C155.14,-230.06 135.36,-217.38 121,-202 103.14,-182.88 89.83,-156.01 81.62,-136.25"/>
<polygon fill="black" stroke="black" points="84.85,-134.91 77.9,-126.91 78.35,-137.5 84.85,-134.91"/>
</g>
<!-- assert_is_currency -->
<g id="node3" class="node">
<title>assert_is_currency</title>
<ellipse fill="none" stroke="black" cx="206" cy="-184" rx="76.09" ry="18"/>
<text text-anchor="middle" x="206" y="-180.3" font-family="Times,serif" font-size="14.00">assert_is_currency</text>
</g>
<!-- assert_is_SCS_currency&#45;&gt;assert_is_currency -->
<g id="edge2" class="edge">
<title>assert_is_SCS_currency&#45;&gt;assert_is_currency</title>
<path fill="none" stroke="black" d="M206,-237.7C206,-229.98 206,-220.71 206,-212.11"/>
<polygon fill="black" stroke="black" points="209.5,-212.1 206,-202.1 202.5,-212.1 209.5,-212.1"/>
</g>
<!-- is_SCS_currency -->
<g id="node4" class="node">
<title>is_SCS_currency</title>
<ellipse fill="none" stroke="black" cx="372" cy="-184" rx="71.49" ry="18"/>
<text text-anchor="middle" x="372" y="-180.3" font-family="Times,serif" font-size="14.00">is_SCS_currency</text>
</g>
<!-- assert_is_SCS_currency&#45;&gt;is_SCS_currency -->
<g id="edge3" class="edge">
<title>assert_is_SCS_currency&#45;&gt;is_SCS_currency</title>
<path fill="none" stroke="black" d="M243.25,-239.29C268.2,-228.77 301.16,-214.87 327.49,-203.77"/>
<polygon fill="black" stroke="black" points="329,-206.93 336.86,-199.82 326.28,-200.48 329,-206.93"/>
</g>
<!-- Errors::make -->
<g id="node5" class="node">
<title>Errors::make</title>
<ellipse fill="none" stroke="black" cx="139" cy="-34" rx="30.59" ry="18"/>
<text text-anchor="middle" x="139" y="-30.3" font-family="Times,serif" font-size="14.00">make</text>
</g>
<!-- Errors::invalid_state&#45;&gt;Errors::make -->
<g id="edge4" class="edge">
<title>Errors::invalid_state&#45;&gt;Errors::make</title>
<path fill="none" stroke="black" d="M87.2,-91.44C96.28,-81.55 107.93,-68.85 117.89,-58.01"/>
<polygon fill="black" stroke="black" points="120.59,-60.23 124.77,-50.5 115.43,-55.5 120.59,-60.23"/>
</g>
<!-- Errors::not_published -->
<g id="node6" class="node">
<title>Errors::not_published</title>
<ellipse fill="none" stroke="black" cx="206" cy="-109" rx="60.39" ry="18"/>
<text text-anchor="middle" x="206" y="-105.3" font-family="Times,serif" font-size="14.00">not_published</text>
</g>
<!-- assert_is_currency&#45;&gt;Errors::not_published -->
<g id="edge5" class="edge">
<title>assert_is_currency&#45;&gt;Errors::not_published</title>
<path fill="none" stroke="black" d="M206,-165.7C206,-157.25 206,-146.87 206,-137.37"/>
<polygon fill="black" stroke="black" points="209.5,-137.18 206,-127.18 202.5,-137.18 209.5,-137.18"/>
</g>
<!-- is_currency -->
<g id="node7" class="node">
<title>is_currency</title>
<ellipse fill="none" stroke="black" cx="338" cy="-109" rx="51.99" ry="18"/>
<text text-anchor="middle" x="338" y="-105.3" font-family="Times,serif" font-size="14.00">is_currency</text>
</g>
<!-- assert_is_currency&#45;&gt;is_currency -->
<g id="edge6" class="edge">
<title>assert_is_currency&#45;&gt;is_currency</title>
<path fill="none" stroke="black" d="M252.33,-169.53C261.09,-166.26 270.01,-162.41 278,-158 290.44,-151.13 302.92,-141.67 313.24,-132.96"/>
<polygon fill="black" stroke="black" points="315.77,-135.4 321.02,-126.2 311.18,-130.12 315.77,-135.4"/>
</g>
<!-- is_SCS_currency&#45;&gt;is_currency -->
<g id="edge8" class="edge">
<title>is_SCS_currency&#45;&gt;is_currency</title>
<path fill="none" stroke="black" d="M364.11,-166.07C359.95,-157.13 354.75,-145.97 350.09,-135.97"/>
<polygon fill="black" stroke="black" points="353.24,-134.43 345.84,-126.84 346.89,-137.38 353.24,-134.43"/>
</g>
<!-- CoreAddresses::CURRENCY_INFO_ADDRESS -->
<g id="node8" class="node">
<title>CoreAddresses::CURRENCY_INFO_ADDRESS</title>
<ellipse fill="none" stroke="black" cx="418" cy="-34" rx="128.08" ry="18"/>
<text text-anchor="middle" x="418" y="-30.3" font-family="Times,serif" font-size="14.00">CURRENCY_INFO_ADDRESS</text>
</g>
<!-- is_SCS_currency&#45;&gt;CoreAddresses::CURRENCY_INFO_ADDRESS -->
<g id="edge7" class="edge">
<title>is_SCS_currency&#45;&gt;CoreAddresses::CURRENCY_INFO_ADDRESS</title>
<path fill="none" stroke="black" d="M392.88,-166.56C395.24,-163.92 397.38,-161.05 399,-158 414.97,-127.95 418.48,-88.32 418.82,-62.27"/>
<polygon fill="black" stroke="black" points="422.32,-62 418.8,-52 415.32,-62.01 422.32,-62"/>
</g>
<!-- Errors::not_published&#45;&gt;Errors::make -->
<g id="edge9" class="edge">
<title>Errors::not_published&#45;&gt;Errors::make</title>
<path fill="none" stroke="black" d="M190.8,-91.44C181.72,-81.55 170.07,-68.85 160.11,-58.01"/>
<polygon fill="black" stroke="black" points="162.57,-55.5 153.23,-50.5 157.41,-60.23 162.57,-55.5"/>
</g>
<!-- is_currency&#45;&gt;CoreAddresses::CURRENCY_INFO_ADDRESS -->
<g id="edge10" class="edge">
<title>is_currency&#45;&gt;CoreAddresses::CURRENCY_INFO_ADDRESS</title>
<path fill="none" stroke="black" d="M355.75,-91.8C366.4,-82.08 380.14,-69.55 391.99,-58.73"/>
<polygon fill="black" stroke="black" points="394.43,-61.24 399.46,-51.92 389.71,-56.07 394.43,-61.24"/>
</g>
</g>
</svg>
