<?xml version="1.0" encoding="UTF-8" standalone="no"?>
<!DOCTYPE svg PUBLIC "-//W3C//DTD SVG 1.1//EN"
 "http://www.w3.org/Graphics/SVG/1.1/DTD/svg11.dtd">
<!-- Generated by graphviz version 2.46.1 (20210213.1702)
 -->
<!-- Title: G Pages: 1 -->
<svg width="1706pt" height="520pt"
 viewBox="0.00 0.00 1706.00 520.00" xmlns="http://www.w3.org/2000/svg" xmlns:xlink="http://www.w3.org/1999/xlink">
<g id="graph0" class="graph" transform="scale(1 1) rotate(0) translate(4 516)">
<title>G</title>
<polygon fill="white" stroke="transparent" points="-4,4 -4,-516 1702,-516 1702,4 -4,4"/>
<g id="clust1" class="cluster">
<title>cluster_Roles</title>
<polygon fill="none" stroke="black" points="291,-246 291,-321 449,-321 449,-246 291,-246"/>
<text text-anchor="middle" x="370" y="-305.8" font-family="Times,serif" font-size="14.00">Roles</text>
</g>
<g id="clust2" class="cluster">
<title>cluster_Signer</title>
<polygon fill="none" stroke="black" points="8,-8 8,-155 158,-155 158,-8 8,-8"/>
<text text-anchor="middle" x="83" y="-139.8" font-family="Times,serif" font-size="14.00">Signer</text>
</g>
<g id="clust3" class="cluster">
<title>cluster_Errors</title>
<polygon fill="none" stroke="black" points="166,-8 166,-155 722,-155 722,-8 166,-8"/>
<text text-anchor="middle" x="444" y="-139.8" font-family="Times,serif" font-size="14.00">Errors</text>
</g>
<g id="clust4" class="cluster">
<title>cluster_CoreAddresses</title>
<polygon fill="none" stroke="black" points="730,-80 730,-238 960,-238 960,-80 730,-80"/>
<text text-anchor="middle" x="845" y="-222.8" font-family="Times,serif" font-size="14.00">CoreAddresses</text>
</g>
<g id="clust5" class="cluster">
<title>cluster_DiemTimestamp</title>
<polygon fill="none" stroke="black" points="968,-163 968,-396 1254,-396 1254,-163 968,-163"/>
<text text-anchor="middle" x="1111" y="-380.8" font-family="Times,serif" font-size="14.00">DiemTimestamp</text>
</g>
<g id="clust6" class="cluster">
<title>cluster_Event</title>
<polygon fill="none" stroke="black" points="1504,-246 1504,-396 1690,-396 1690,-246 1504,-246"/>
<text text-anchor="middle" x="1597" y="-380.8" font-family="Times,serif" font-size="14.00">Event</text>
</g>
<!-- reconfigure -->
<g id="node1" class="node">
<title>reconfigure</title>
<ellipse fill="none" stroke="black" cx="828" cy="-494" rx="50.89" ry="18"/>
<text text-anchor="middle" x="828" y="-490.3" font-family="Times,serif" font-size="14.00">reconfigure</text>
</g>
<!-- Roles::assert_diem_root -->
<g id="node2" class="node">
<title>Roles::assert_diem_root</title>
<ellipse fill="none" stroke="black" cx="370" cy="-272" rx="71.49" ry="18"/>
<text text-anchor="middle" x="370" y="-268.3" font-family="Times,serif" font-size="14.00">assert_diem_root</text>
</g>
<!-- reconfigure&#45;&gt;Roles::assert_diem_root -->
<g id="edge1" class="edge">
<title>reconfigure&#45;&gt;Roles::assert_diem_root</title>
<path fill="none" stroke="black" d="M785.73,-484.05C726.28,-470.41 615.68,-441.15 530,-396 477.65,-368.41 424.73,-323.68 394.78,-296.44"/>
<polygon fill="black" stroke="black" points="397.05,-293.77 387.32,-289.58 392.31,-298.93 397.05,-293.77"/>
</g>
<!-- reconfigure_ -->
<g id="node3" class="node">
<title>reconfigure_</title>
<ellipse fill="none" stroke="black" cx="1199" cy="-422" rx="55.49" ry="18"/>
<text text-anchor="middle" x="1199" y="-418.3" font-family="Times,serif" font-size="14.00">reconfigure_</text>
</g>
<!-- reconfigure&#45;&gt;reconfigure_ -->
<g id="edge2" class="edge">
<title>reconfigure&#45;&gt;reconfigure_</title>
<path fill="none" stroke="black" d="M871.65,-484.76C938.88,-472.08 1067.77,-447.76 1142.19,-433.72"/>
<polygon fill="black" stroke="black" points="1143.14,-437.1 1152.32,-431.81 1141.84,-430.22 1143.14,-437.1"/>
</g>
<!-- Signer::address_of -->
<g id="node4" class="node">
<title>Signer::address_of</title>
<ellipse fill="none" stroke="black" cx="101" cy="-106" rx="48.99" ry="18"/>
<text text-anchor="middle" x="101" y="-102.3" font-family="Times,serif" font-size="14.00">address_of</text>
</g>
<!-- Roles::assert_diem_root&#45;&gt;Signer::address_of -->
<g id="edge3" class="edge">
<title>Roles::assert_diem_root&#45;&gt;Signer::address_of</title>
<path fill="none" stroke="black" d="M325.42,-257.79C310.01,-252.5 292.88,-245.8 278,-238 219.63,-207.41 159.61,-158.61 126.63,-130"/>
<polygon fill="black" stroke="black" points="128.67,-127.14 118.84,-123.19 124.06,-132.41 128.67,-127.14"/>
</g>
<!-- Errors::not_published -->
<g id="node5" class="node">
<title>Errors::not_published</title>
<ellipse fill="none" stroke="black" cx="234" cy="-106" rx="60.39" ry="18"/>
<text text-anchor="middle" x="234" y="-102.3" font-family="Times,serif" font-size="14.00">not_published</text>
</g>
<!-- Roles::assert_diem_root&#45;&gt;Errors::not_published -->
<g id="edge4" class="edge">
<title>Roles::assert_diem_root&#45;&gt;Errors::not_published</title>
<path fill="none" stroke="black" d="M355.96,-254.07C331.81,-224.94 282.32,-165.26 254.37,-131.57"/>
<polygon fill="black" stroke="black" points="256.84,-129.06 247.76,-123.6 251.45,-133.53 256.84,-129.06"/>
</g>
<!-- Errors::requires_role -->
<g id="node6" class="node">
<title>Errors::requires_role</title>
<ellipse fill="none" stroke="black" cx="370" cy="-106" rx="57.39" ry="18"/>
<text text-anchor="middle" x="370" y="-102.3" font-family="Times,serif" font-size="14.00">requires_role</text>
</g>
<!-- Roles::assert_diem_root&#45;&gt;Errors::requires_role -->
<g id="edge5" class="edge">
<title>Roles::assert_diem_root&#45;&gt;Errors::requires_role</title>
<path fill="none" stroke="black" d="M370,-253.76C370,-225.26 370,-168.12 370,-134.16"/>
<polygon fill="black" stroke="black" points="373.5,-134.01 370,-124.01 366.5,-134.01 373.5,-134.01"/>
</g>
<!-- CoreAddresses::assert_diem_root -->
<g id="node7" class="node">
<title>CoreAddresses::assert_diem_root</title>
<ellipse fill="none" stroke="black" cx="809" cy="-189" rx="71.49" ry="18"/>
<text text-anchor="middle" x="809" y="-185.3" font-family="Times,serif" font-size="14.00">assert_diem_root</text>
</g>
<!-- Roles::assert_diem_root&#45;&gt;CoreAddresses::assert_diem_root -->
<g id="edge6" class="edge">
<title>Roles::assert_diem_root&#45;&gt;CoreAddresses::assert_diem_root</title>
<path fill="none" stroke="black" d="M426.05,-260.66C507.09,-245.71 656.72,-218.1 743,-202.18"/>
<polygon fill="black" stroke="black" points="743.74,-205.6 752.94,-200.34 742.47,-198.72 743.74,-205.6"/>
</g>
<!-- Errors::invalid_state -->
<g id="node8" class="node">
<title>Errors::invalid_state</title>
<ellipse fill="none" stroke="black" cx="501" cy="-106" rx="55.79" ry="18"/>
<text text-anchor="middle" x="501" y="-102.3" font-family="Times,serif" font-size="14.00">invalid_state</text>
</g>
<!-- reconfigure_&#45;&gt;Errors::invalid_state -->
<g id="edge7" class="edge">
<title>reconfigure_&#45;&gt;Errors::invalid_state</title>
<path fill="none" stroke="black" d="M1144.03,-419.94C1025.32,-414.78 742.18,-386.6 574,-238 541.71,-209.47 520.66,-163.08 509.81,-133.85"/>
<polygon fill="black" stroke="black" points="513.06,-132.52 506.4,-124.28 506.46,-134.88 513.06,-132.52"/>
</g>
<!-- CoreAddresses::DIEM_ROOT_ADDRESS -->
<g id="node9" class="node">
<title>CoreAddresses::DIEM_ROOT_ADDRESS</title>
<ellipse fill="none" stroke="black" cx="845" cy="-106" rx="106.68" ry="18"/>
<text text-anchor="middle" x="845" y="-102.3" font-family="Times,serif" font-size="14.00">DIEM_ROOT_ADDRESS</text>
</g>
<!-- reconfigure_&#45;&gt;CoreAddresses::DIEM_ROOT_ADDRESS -->
<g id="edge8" class="edge">
<title>reconfigure_&#45;&gt;CoreAddresses::DIEM_ROOT_ADDRESS</title>
<path fill="none" stroke="black" d="M1253.85,-419.71C1327.59,-417.4 1451.08,-411.28 1465,-396 1485.05,-373.98 1476.27,-356.56 1465,-329 1425.87,-233.29 1394.73,-208.74 1302,-163 1243.16,-133.98 1071.84,-119.15 956.51,-112.24"/>
<polygon fill="black" stroke="black" points="956.41,-108.73 946.22,-111.64 956,-115.72 956.41,-108.73"/>
</g>
<!-- DiemTimestamp::is_genesis -->
<g id="node10" class="node">
<title>DiemTimestamp::is_genesis</title>
<ellipse fill="none" stroke="black" cx="1199" cy="-347" rx="46.59" ry="18"/>
<text text-anchor="middle" x="1199" y="-343.3" font-family="Times,serif" font-size="14.00">is_genesis</text>
</g>
<!-- reconfigure_&#45;&gt;DiemTimestamp::is_genesis -->
<g id="edge9" class="edge">
<title>reconfigure_&#45;&gt;DiemTimestamp::is_genesis</title>
<path fill="none" stroke="black" d="M1199,-403.7C1199,-395.25 1199,-384.87 1199,-375.37"/>
<polygon fill="black" stroke="black" points="1202.5,-375.18 1199,-365.18 1195.5,-375.18 1202.5,-375.18"/>
</g>
<!-- DiemTimestamp::now_microseconds -->
<g id="node11" class="node">
<title>DiemTimestamp::now_microseconds</title>
<ellipse fill="none" stroke="black" cx="1055" cy="-347" rx="79.09" ry="18"/>
<text text-anchor="middle" x="1055" y="-343.3" font-family="Times,serif" font-size="14.00">now_microseconds</text>
</g>
<!-- reconfigure_&#45;&gt;DiemTimestamp::now_microseconds -->
<g id="edge10" class="edge">
<title>reconfigure_&#45;&gt;DiemTimestamp::now_microseconds</title>
<path fill="none" stroke="black" d="M1167.11,-407.29C1159.17,-403.73 1150.73,-399.83 1143,-396 1125.92,-387.55 1107.35,-377.54 1091.69,-368.86"/>
<polygon fill="black" stroke="black" points="1093.28,-365.74 1082.84,-363.92 1089.87,-371.85 1093.28,-365.74"/>
</g>
<!-- Event::emit_event -->
<g id="node12" class="node">
<title>Event::emit_event</title>
<ellipse fill="none" stroke="black" cx="1579" cy="-347" rx="50.09" ry="18"/>
<text text-anchor="middle" x="1579" y="-343.3" font-family="Times,serif" font-size="14.00">emit_event</text>
</g>
<!-- reconfigure_&#45;&gt;Event::emit_event -->
<g id="edge11" class="edge">
<title>reconfigure_&#45;&gt;Event::emit_event</title>
<path fill="none" stroke="black" d="M1253.68,-419.36C1327.25,-416.65 1453.96,-410.07 1498,-396 1516.61,-390.05 1535.51,-379.2 1550.36,-369.31"/>
<polygon fill="black" stroke="black" points="1552.34,-372.19 1558.6,-363.64 1548.38,-366.42 1552.34,-372.19"/>
</g>
<!-- reconfiguration_enabled -->
<g id="node13" class="node">
<title>reconfiguration_enabled</title>
<ellipse fill="none" stroke="black" cx="1360" cy="-347" rx="96.38" ry="18"/>
<text text-anchor="middle" x="1360" y="-343.3" font-family="Times,serif" font-size="14.00">reconfiguration_enabled</text>
</g>
<!-- reconfigure_&#45;&gt;reconfiguration_enabled -->
<g id="edge12" class="edge">
<title>reconfigure_&#45;&gt;reconfiguration_enabled</title>
<path fill="none" stroke="black" d="M1231.87,-407.34C1240.4,-403.72 1249.57,-399.77 1258,-396 1277.63,-387.23 1299.19,-377.14 1317.42,-368.49"/>
<polygon fill="black" stroke="black" points="1319.09,-371.57 1326.62,-364.11 1316.08,-365.25 1319.09,-371.57"/>
</g>
<!-- Signer::borrow_address -->
<g id="node14" class="node">
<title>Signer::borrow_address</title>
<ellipse fill="none" stroke="black" cx="83" cy="-34" rx="66.89" ry="18"/>
<text text-anchor="middle" x="83" y="-30.3" font-family="Times,serif" font-size="14.00">borrow_address</text>
</g>
<!-- Signer::address_of&#45;&gt;Signer::borrow_address -->
<g id="edge13" class="edge">
<title>Signer::address_of&#45;&gt;Signer::borrow_address</title>
<path fill="none" stroke="black" d="M96.64,-88.05C94.64,-80.26 92.21,-70.82 89.96,-62.08"/>
<polygon fill="black" stroke="black" points="93.32,-61.09 87.44,-52.28 86.54,-62.83 93.32,-61.09"/>
</g>
<!-- Errors::make -->
<g id="node15" class="node">
<title>Errors::make</title>
<ellipse fill="none" stroke="black" cx="435" cy="-34" rx="30.59" ry="18"/>
<text text-anchor="middle" x="435" y="-30.3" font-family="Times,serif" font-size="14.00">make</text>
</g>
<!-- Errors::not_published&#45;&gt;Errors::make -->
<g id="edge14" class="edge">
<title>Errors::not_published&#45;&gt;Errors::make</title>
<path fill="none" stroke="black" d="M271.03,-91.68C281.66,-87.88 293.28,-83.75 304,-80 336.2,-68.72 372.94,-56.12 399.31,-47.13"/>
<polygon fill="black" stroke="black" points="400.53,-50.41 408.87,-43.87 398.28,-43.78 400.53,-50.41"/>
</g>
<!-- Errors::requires_role&#45;&gt;Errors::make -->
<g id="edge15" class="edge">
<title>Errors::requires_role&#45;&gt;Errors::make</title>
<path fill="none" stroke="black" d="M385.4,-88.41C393.94,-79.22 404.66,-67.67 413.96,-57.66"/>
<polygon fill="black" stroke="black" points="416.8,-59.75 421.04,-50.04 411.67,-54.98 416.8,-59.75"/>
</g>
<!-- CoreAddresses::assert_diem_root&#45;&gt;Signer::address_of -->
<g id="edge16" class="edge">
<title>CoreAddresses::assert_diem_root&#45;&gt;Signer::address_of</title>
<path fill="none" stroke="black" d="M738.63,-185.56C576.53,-179.77 188.61,-164.98 162,-155 147.92,-149.72 134.53,-139.93 123.9,-130.56"/>
<polygon fill="black" stroke="black" points="126.06,-127.78 116.34,-123.55 121.3,-132.92 126.06,-127.78"/>
</g>
<!-- CoreAddresses::assert_diem_root&#45;&gt;CoreAddresses::DIEM_ROOT_ADDRESS -->
<g id="edge18" class="edge">
<title>CoreAddresses::assert_diem_root&#45;&gt;CoreAddresses::DIEM_ROOT_ADDRESS</title>
<path fill="none" stroke="black" d="M816.63,-170.82C821.46,-159.98 827.78,-145.74 833.23,-133.47"/>
<polygon fill="black" stroke="black" points="836.51,-134.71 837.38,-124.15 830.12,-131.87 836.51,-134.71"/>
</g>
<!-- Errors::requires_address -->
<g id="node16" class="node">
<title>Errors::requires_address</title>
<ellipse fill="none" stroke="black" cx="644" cy="-106" rx="69.59" ry="18"/>
<text text-anchor="middle" x="644" y="-102.3" font-family="Times,serif" font-size="14.00">requires_address</text>
</g>
<!-- CoreAddresses::assert_diem_root&#45;&gt;Errors::requires_address -->
<g id="edge17" class="edge">
<title>CoreAddresses::assert_diem_root&#45;&gt;Errors::requires_address</title>
<path fill="none" stroke="black" d="M769.62,-173.75C755.65,-168.32 739.94,-161.8 726,-155 709.67,-147.03 692.22,-137.04 677.62,-128.23"/>
<polygon fill="black" stroke="black" points="679.3,-125.15 668.94,-122.93 675.65,-131.13 679.3,-125.15"/>
</g>
<!-- Errors::invalid_state&#45;&gt;Errors::make -->
<g id="edge19" class="edge">
<title>Errors::invalid_state&#45;&gt;Errors::make</title>
<path fill="none" stroke="black" d="M485.36,-88.41C476.61,-79.13 465.59,-67.44 456.09,-57.36"/>
<polygon fill="black" stroke="black" points="458.59,-54.91 449.18,-50.04 453.49,-59.72 458.59,-54.91"/>
</g>
<!-- DiemTimestamp::is_genesis&#45;&gt;CoreAddresses::DIEM_ROOT_ADDRESS -->
<g id="edge20" class="edge">
<title>DiemTimestamp::is_genesis&#45;&gt;CoreAddresses::DIEM_ROOT_ADDRESS</title>
<path fill="none" stroke="black" d="M1198.5,-328.79C1196.46,-292.23 1186.25,-206.6 1136,-163 1108.12,-138.81 1020.06,-124.14 948.05,-115.92"/>
<polygon fill="black" stroke="black" points="948.33,-112.43 938,-114.81 947.55,-119.39 948.33,-112.43"/>
</g>
<!-- DiemTimestamp::now_microseconds&#45;&gt;CoreAddresses::DIEM_ROOT_ADDRESS -->
<g id="edge21" class="edge">
<title>DiemTimestamp::now_microseconds&#45;&gt;CoreAddresses::DIEM_ROOT_ADDRESS</title>
<path fill="none" stroke="black" d="M1107.35,-333.47C1112.69,-330.23 1117.45,-326.14 1121,-321 1161.25,-262.71 1150.88,-212.29 1100,-163 1077.45,-141.15 1004.63,-126.55 942.55,-117.75"/>
<polygon fill="black" stroke="black" points="942.68,-114.24 932.29,-116.34 941.72,-121.17 942.68,-114.24"/>
</g>
<!-- DiemTimestamp::assert_operating -->
<g id="node17" class="node">
<title>DiemTimestamp::assert_operating</title>
<ellipse fill="none" stroke="black" cx="1044" cy="-272" rx="68.49" ry="18"/>
<text text-anchor="middle" x="1044" y="-268.3" font-family="Times,serif" font-size="14.00">assert_operating</text>
</g>
<!-- DiemTimestamp::now_microseconds&#45;&gt;DiemTimestamp::assert_operating -->
<g id="edge22" class="edge">
<title>DiemTimestamp::now_microseconds&#45;&gt;DiemTimestamp::assert_operating</title>
<path fill="none" stroke="black" d="M1052.39,-328.7C1051.11,-320.15 1049.52,-309.65 1048.08,-300.07"/>
<polygon fill="black" stroke="black" points="1051.54,-299.54 1046.59,-290.18 1044.62,-300.59 1051.54,-299.54"/>
</g>
<!-- Event::write_to_event_store -->
<g id="node18" class="node">
<title>Event::write_to_event_store</title>
<ellipse fill="none" stroke="black" cx="1597" cy="-272" rx="85.29" ry="18"/>
<text text-anchor="middle" x="1597" y="-268.3" font-family="Times,serif" font-size="14.00">write_to_event_store</text>
</g>
<!-- Event::emit_event&#45;&gt;Event::write_to_event_store -->
<g id="edge23" class="edge">
<title>Event::emit_event&#45;&gt;Event::write_to_event_store</title>
<path fill="none" stroke="black" d="M1583.27,-328.7C1585.37,-320.15 1587.96,-309.65 1590.33,-300.07"/>
<polygon fill="black" stroke="black" points="1593.77,-300.72 1592.76,-290.18 1586.97,-299.05 1593.77,-300.72"/>
</g>
<!-- reconfiguration_enabled&#45;&gt;CoreAddresses::DIEM_ROOT_ADDRESS -->
<g id="edge24" class="edge">
<title>reconfiguration_enabled&#45;&gt;CoreAddresses::DIEM_ROOT_ADDRESS</title>
<path fill="none" stroke="black" d="M1355.98,-328.89C1346.26,-291.74 1317.8,-203.78 1258,-163 1210.59,-130.66 1063.35,-116.9 958.21,-111.11"/>
<polygon fill="black" stroke="black" points="958.34,-107.61 948.17,-110.57 957.97,-114.6 958.34,-107.61"/>
</g>
<!-- Errors::requires_address&#45;&gt;Errors::make -->
<g id="edge25" class="edge">
<title>Errors::requires_address&#45;&gt;Errors::make</title>
<path fill="none" stroke="black" d="M603.21,-91.34C564.66,-78.43 507.41,-59.25 470.65,-46.94"/>
<polygon fill="black" stroke="black" points="471.45,-43.52 460.85,-43.66 469.22,-50.15 471.45,-43.52"/>
</g>
<!-- DiemTimestamp::assert_operating&#45;&gt;Errors::invalid_state -->
<g id="edge26" class="edge">
<title>DiemTimestamp::assert_operating&#45;&gt;Errors::invalid_state</title>
<path fill="none" stroke="black" d="M975.58,-271.18C910.2,-269.67 809.51,-262.89 726,-238 648.56,-214.92 569.54,-160.18 528.92,-129.26"/>
<polygon fill="black" stroke="black" points="530.91,-126.38 520.85,-123.05 526.64,-131.92 530.91,-126.38"/>
</g>
<!-- DiemTimestamp::is_operating -->
<g id="node19" class="node">
<title>DiemTimestamp::is_operating</title>
<ellipse fill="none" stroke="black" cx="1037" cy="-189" rx="53.89" ry="18"/>
<text text-anchor="middle" x="1037" y="-185.3" font-family="Times,serif" font-size="14.00">is_operating</text>
</g>
<!-- DiemTimestamp::assert_operating&#45;&gt;DiemTimestamp::is_operating -->
<g id="edge27" class="edge">
<title>DiemTimestamp::assert_operating&#45;&gt;DiemTimestamp::is_operating</title>
<path fill="none" stroke="black" d="M1042.52,-253.82C1041.6,-243.19 1040.4,-229.31 1039.35,-217.2"/>
<polygon fill="black" stroke="black" points="1042.83,-216.81 1038.48,-207.15 1035.86,-217.42 1042.83,-216.81"/>
</g>
<!-- DiemTimestamp::is_operating&#45;&gt;CoreAddresses::DIEM_ROOT_ADDRESS -->
<g id="edge28" class="edge">
<title>DiemTimestamp::is_operating&#45;&gt;CoreAddresses::DIEM_ROOT_ADDRESS</title>
<path fill="none" stroke="black" d="M1004.86,-174.44C974.13,-161.48 927.4,-141.76 892.39,-126.99"/>
<polygon fill="black" stroke="black" points="893.43,-123.63 882.85,-122.97 890.71,-130.08 893.43,-123.63"/>
</g>
</g>
</svg>
