<?xml version="1.0" encoding="UTF-8" standalone="no"?>
<!DOCTYPE svg PUBLIC "-//W3C//DTD SVG 1.1//EN"
 "http://www.w3.org/Graphics/SVG/1.1/DTD/svg11.dtd">
<!-- Generated by graphviz version 2.46.1 (20210213.1702)
 -->
<!-- Title: G Pages: 1 -->
<svg width="1291pt" height="528pt"
 viewBox="0.00 0.00 1291.00 528.00" xmlns="http://www.w3.org/2000/svg" xmlns:xlink="http://www.w3.org/1999/xlink">
<g id="graph0" class="graph" transform="scale(1 1) rotate(0) translate(4 524)">
<title>G</title>
<polygon fill="white" stroke="transparent" points="-4,4 -4,-524 1287,-524 1287,4 -4,4"/>
<g id="clust1" class="cluster">
<title>cluster_DiemTimestamp</title>
<polygon fill="none" stroke="black" points="1137,-163 1137,-321 1275,-321 1275,-163 1137,-163"/>
<text text-anchor="middle" x="1206" y="-305.8" font-family="Times,serif" font-size="14.00">DiemTimestamp</text>
</g>
<g id="clust2" class="cluster">
<title>cluster_Roles</title>
<polygon fill="none" stroke="black" points="254,-246 254,-321 412,-321 412,-246 254,-246"/>
<text text-anchor="middle" x="333" y="-305.8" font-family="Times,serif" font-size="14.00">Roles</text>
</g>
<g id="clust3" class="cluster">
<title>cluster_DiemConfig</title>
<polygon fill="none" stroke="black" points="181,-329 181,-476 503,-476 503,-329 181,-329"/>
<text text-anchor="middle" x="342" y="-460.8" font-family="Times,serif" font-size="14.00">DiemConfig</text>
</g>
<g id="clust4" class="cluster">
<title>cluster_Errors</title>
<polygon fill="none" stroke="black" points="166,-8 166,-155 891,-155 891,-8 166,-8"/>
<text text-anchor="middle" x="528.5" y="-139.8" font-family="Times,serif" font-size="14.00">Errors</text>
</g>
<g id="clust5" class="cluster">
<title>cluster_Signer</title>
<polygon fill="none" stroke="black" points="8,-8 8,-155 158,-155 158,-8 8,-8"/>
<text text-anchor="middle" x="83" y="-139.8" font-family="Times,serif" font-size="14.00">Signer</text>
</g>
<g id="clust6" class="cluster">
<title>cluster_CoreAddresses</title>
<polygon fill="none" stroke="black" points="899,-80 899,-238 1129,-238 1129,-80 899,-80"/>
<text text-anchor="middle" x="1014" y="-222.8" font-family="Times,serif" font-size="14.00">CoreAddresses</text>
</g>
<!-- initialize -->
<g id="node1" class="node">
<title>initialize</title>
<ellipse fill="none" stroke="black" cx="342" cy="-502" rx="41.69" ry="18"/>
<text text-anchor="middle" x="342" y="-498.3" font-family="Times,serif" font-size="14.00">initialize</text>
</g>
<!-- DiemTimestamp::assert_genesis -->
<g id="node2" class="node">
<title>DiemTimestamp::assert_genesis</title>
<ellipse fill="none" stroke="black" cx="1206" cy="-272" rx="61.19" ry="18"/>
<text text-anchor="middle" x="1206" y="-268.3" font-family="Times,serif" font-size="14.00">assert_genesis</text>
</g>
<!-- initialize&#45;&gt;DiemTimestamp::assert_genesis -->
<g id="edge1" class="edge">
<title>initialize&#45;&gt;DiemTimestamp::assert_genesis</title>
<path fill="none" stroke="black" d="M381.61,-496.49C415.2,-492.31 464.56,-485.34 507,-476 755.29,-421.39 1045.02,-327.24 1157.72,-289.43"/>
<polygon fill="black" stroke="black" points="1159.07,-292.67 1167.44,-286.16 1156.84,-286.03 1159.07,-292.67"/>
</g>
<!-- Roles::assert_diem_root -->
<g id="node3" class="node">
<title>Roles::assert_diem_root</title>
<ellipse fill="none" stroke="black" cx="333" cy="-272" rx="71.49" ry="18"/>
<text text-anchor="middle" x="333" y="-268.3" font-family="Times,serif" font-size="14.00">assert_diem_root</text>
</g>
<!-- initialize&#45;&gt;Roles::assert_diem_root -->
<g id="edge2" class="edge">
<title>initialize&#45;&gt;Roles::assert_diem_root</title>
<path fill="none" stroke="black" d="M300.18,-500.64C256.62,-499.27 192.58,-494.12 177,-476 134.4,-426.46 139.41,-382.44 177,-329 195.37,-302.89 227.12,-288.89 257.21,-281.41"/>
<polygon fill="black" stroke="black" points="258.34,-284.74 267.32,-279.12 256.8,-277.92 258.34,-284.74"/>
</g>
<!-- DiemConfig::publish_new_config -->
<g id="node4" class="node">
<title>DiemConfig::publish_new_config</title>
<ellipse fill="none" stroke="black" cx="342" cy="-427" rx="81.79" ry="18"/>
<text text-anchor="middle" x="342" y="-423.3" font-family="Times,serif" font-size="14.00">publish_new_config</text>
</g>
<!-- initialize&#45;&gt;DiemConfig::publish_new_config -->
<g id="edge3" class="edge">
<title>initialize&#45;&gt;DiemConfig::publish_new_config</title>
<path fill="none" stroke="black" d="M342,-483.7C342,-475.25 342,-464.87 342,-455.37"/>
<polygon fill="black" stroke="black" points="345.5,-455.18 342,-445.18 338.5,-455.18 345.5,-455.18"/>
</g>
<!-- Errors::invalid_state -->
<g id="node5" class="node">
<title>Errors::invalid_state</title>
<ellipse fill="none" stroke="black" cx="670" cy="-106" rx="55.79" ry="18"/>
<text text-anchor="middle" x="670" y="-102.3" font-family="Times,serif" font-size="14.00">invalid_state</text>
</g>
<!-- DiemTimestamp::assert_genesis&#45;&gt;Errors::invalid_state -->
<g id="edge4" class="edge">
<title>DiemTimestamp::assert_genesis&#45;&gt;Errors::invalid_state</title>
<path fill="none" stroke="black" d="M1144.79,-271.12C1081.11,-269.72 979.14,-263.19 895,-238 817.58,-214.83 738.56,-160.13 697.93,-129.24"/>
<polygon fill="black" stroke="black" points="699.92,-126.35 689.86,-123.03 695.65,-131.9 699.92,-126.35"/>
</g>
<!-- DiemTimestamp::is_genesis -->
<g id="node6" class="node">
<title>DiemTimestamp::is_genesis</title>
<ellipse fill="none" stroke="black" cx="1199" cy="-189" rx="46.59" ry="18"/>
<text text-anchor="middle" x="1199" y="-185.3" font-family="Times,serif" font-size="14.00">is_genesis</text>
</g>
<!-- DiemTimestamp::assert_genesis&#45;&gt;DiemTimestamp::is_genesis -->
<g id="edge5" class="edge">
<title>DiemTimestamp::assert_genesis&#45;&gt;DiemTimestamp::is_genesis</title>
<path fill="none" stroke="black" d="M1204.52,-253.82C1203.6,-243.19 1202.4,-229.31 1201.35,-217.2"/>
<polygon fill="black" stroke="black" points="1204.83,-216.81 1200.48,-207.15 1197.86,-217.42 1204.83,-216.81"/>
</g>
<!-- Signer::address_of -->
<g id="node7" class="node">
<title>Signer::address_of</title>
<ellipse fill="none" stroke="black" cx="101" cy="-106" rx="48.99" ry="18"/>
<text text-anchor="middle" x="101" y="-102.3" font-family="Times,serif" font-size="14.00">address_of</text>
</g>
<!-- Roles::assert_diem_root&#45;&gt;Signer::address_of -->
<g id="edge6" class="edge">
<title>Roles::assert_diem_root&#45;&gt;Signer::address_of</title>
<path fill="none" stroke="black" d="M298.87,-256.15C289.57,-251.18 279.89,-245.07 272,-238 241.78,-210.94 254.56,-184.23 220,-163 197.83,-149.38 185.95,-165.18 162,-155 148.16,-149.12 134.8,-139.25 124.13,-129.98"/>
<polygon fill="black" stroke="black" points="126.29,-127.21 116.53,-123.09 121.59,-132.4 126.29,-127.21"/>
</g>
<!-- Errors::not_published -->
<g id="node8" class="node">
<title>Errors::not_published</title>
<ellipse fill="none" stroke="black" cx="367" cy="-106" rx="60.39" ry="18"/>
<text text-anchor="middle" x="367" y="-102.3" font-family="Times,serif" font-size="14.00">not_published</text>
</g>
<!-- Roles::assert_diem_root&#45;&gt;Errors::not_published -->
<g id="edge7" class="edge">
<title>Roles::assert_diem_root&#45;&gt;Errors::not_published</title>
<path fill="none" stroke="black" d="M336.57,-253.76C342.48,-225.26 354.33,-168.12 361.37,-134.16"/>
<polygon fill="black" stroke="black" points="364.87,-134.51 363.47,-124.01 358.02,-133.09 364.87,-134.51"/>
</g>
<!-- Errors::requires_role -->
<g id="node9" class="node">
<title>Errors::requires_role</title>
<ellipse fill="none" stroke="black" cx="231" cy="-106" rx="57.39" ry="18"/>
<text text-anchor="middle" x="231" y="-102.3" font-family="Times,serif" font-size="14.00">requires_role</text>
</g>
<!-- Roles::assert_diem_root&#45;&gt;Errors::requires_role -->
<g id="edge8" class="edge">
<title>Roles::assert_diem_root&#45;&gt;Errors::requires_role</title>
<path fill="none" stroke="black" d="M324.09,-253.8C312.72,-232.18 292.08,-194.12 272,-163 265.3,-152.61 257.38,-141.56 250.3,-132.04"/>
<polygon fill="black" stroke="black" points="252.9,-129.67 244.09,-123.79 247.31,-133.88 252.9,-129.67"/>
</g>
<!-- CoreAddresses::assert_diem_root -->
<g id="node10" class="node">
<title>CoreAddresses::assert_diem_root</title>
<ellipse fill="none" stroke="black" cx="978" cy="-189" rx="71.49" ry="18"/>
<text text-anchor="middle" x="978" y="-185.3" font-family="Times,serif" font-size="14.00">assert_diem_root</text>
</g>
<!-- Roles::assert_diem_root&#45;&gt;CoreAddresses::assert_diem_root -->
<g id="edge9" class="edge">
<title>Roles::assert_diem_root&#45;&gt;CoreAddresses::assert_diem_root</title>
<path fill="none" stroke="black" d="M395.43,-263.16C515.48,-248.08 777.89,-215.13 905.47,-199.11"/>
<polygon fill="black" stroke="black" points="906.05,-202.56 915.53,-197.84 905.18,-195.62 906.05,-202.56"/>
</g>
<!-- DiemConfig::publish_new_config&#45;&gt;Signer::address_of -->
<g id="edge10" class="edge">
<title>DiemConfig::publish_new_config&#45;&gt;Signer::address_of</title>
<path fill="none" stroke="black" d="M271.12,-417.86C239.44,-410.79 203.94,-397.6 180,-373 114.79,-305.97 103.05,-187.64 101.19,-134.36"/>
<polygon fill="black" stroke="black" points="104.68,-134.22 100.93,-124.31 97.69,-134.4 104.68,-134.22"/>
</g>
<!-- Errors::already_published -->
<g id="node11" class="node">
<title>Errors::already_published</title>
<ellipse fill="none" stroke="black" cx="521" cy="-106" rx="75.29" ry="18"/>
<text text-anchor="middle" x="521" y="-102.3" font-family="Times,serif" font-size="14.00">already_published</text>
</g>
<!-- DiemConfig::publish_new_config&#45;&gt;Errors::already_published -->
<g id="edge11" class="edge">
<title>DiemConfig::publish_new_config&#45;&gt;Errors::already_published</title>
<path fill="none" stroke="black" d="M417.16,-419.78C448.95,-413.09 483.34,-399.67 504,-373 558.89,-302.16 540.46,-186.28 528.23,-134.04"/>
<polygon fill="black" stroke="black" points="531.6,-133.06 525.82,-124.18 524.8,-134.73 531.6,-133.06"/>
</g>
<!-- DiemConfig::publish_new_config_and_get_capability -->
<g id="node12" class="node">
<title>DiemConfig::publish_new_config_and_get_capability</title>
<ellipse fill="none" stroke="black" cx="342" cy="-355" rx="153.27" ry="18"/>
<text text-anchor="middle" x="342" y="-351.3" font-family="Times,serif" font-size="14.00">publish_new_config_and_get_capability</text>
</g>
<!-- DiemConfig::publish_new_config&#45;&gt;DiemConfig::publish_new_config_and_get_capability -->
<g id="edge12" class="edge">
<title>DiemConfig::publish_new_config&#45;&gt;DiemConfig::publish_new_config_and_get_capability</title>
<path fill="none" stroke="black" d="M342,-408.7C342,-400.98 342,-391.71 342,-383.11"/>
<polygon fill="black" stroke="black" points="345.5,-383.1 342,-373.1 338.5,-383.1 345.5,-383.1"/>
</g>
<!-- Errors::make -->
<g id="node13" class="node">
<title>Errors::make</title>
<ellipse fill="none" stroke="black" cx="521" cy="-34" rx="30.59" ry="18"/>
<text text-anchor="middle" x="521" y="-30.3" font-family="Times,serif" font-size="14.00">make</text>
</g>
<!-- Errors::invalid_state&#45;&gt;Errors::make -->
<g id="edge13" class="edge">
<title>Errors::invalid_state&#45;&gt;Errors::make</title>
<path fill="none" stroke="black" d="M639.85,-90.83C614.81,-79.07 579.28,-62.38 553.59,-50.31"/>
<polygon fill="black" stroke="black" points="554.81,-47.02 544.27,-45.93 551.83,-53.35 554.81,-47.02"/>
</g>
<!-- CoreAddresses::DIEM_ROOT_ADDRESS -->
<g id="node14" class="node">
<title>CoreAddresses::DIEM_ROOT_ADDRESS</title>
<ellipse fill="none" stroke="black" cx="1014" cy="-106" rx="106.68" ry="18"/>
<text text-anchor="middle" x="1014" y="-102.3" font-family="Times,serif" font-size="14.00">DIEM_ROOT_ADDRESS</text>
</g>
<!-- DiemTimestamp::is_genesis&#45;&gt;CoreAddresses::DIEM_ROOT_ADDRESS -->
<g id="edge14" class="edge">
<title>DiemTimestamp::is_genesis&#45;&gt;CoreAddresses::DIEM_ROOT_ADDRESS</title>
<path fill="none" stroke="black" d="M1169.28,-174.99C1139.77,-162.07 1094.14,-142.09 1059.97,-127.13"/>
<polygon fill="black" stroke="black" points="1061.22,-123.85 1050.65,-123.05 1058.41,-130.27 1061.22,-123.85"/>
</g>
<!-- Signer::borrow_address -->
<g id="node15" class="node">
<title>Signer::borrow_address</title>
<ellipse fill="none" stroke="black" cx="83" cy="-34" rx="66.89" ry="18"/>
<text text-anchor="middle" x="83" y="-30.3" font-family="Times,serif" font-size="14.00">borrow_address</text>
</g>
<!-- Signer::address_of&#45;&gt;Signer::borrow_address -->
<g id="edge15" class="edge">
<title>Signer::address_of&#45;&gt;Signer::borrow_address</title>
<path fill="none" stroke="black" d="M96.64,-88.05C94.64,-80.26 92.21,-70.82 89.96,-62.08"/>
<polygon fill="black" stroke="black" points="93.32,-61.09 87.44,-52.28 86.54,-62.83 93.32,-61.09"/>
</g>
<!-- Errors::not_published&#45;&gt;Errors::make -->
<g id="edge16" class="edge">
<title>Errors::not_published&#45;&gt;Errors::make</title>
<path fill="none" stroke="black" d="M398.91,-90.5C424.96,-78.65 461.64,-61.98 487.99,-50.01"/>
<polygon fill="black" stroke="black" points="489.53,-53.15 497.19,-45.82 486.63,-46.78 489.53,-53.15"/>
</g>
<!-- Errors::requires_role&#45;&gt;Errors::make -->
<g id="edge17" class="edge">
<title>Errors::requires_role&#45;&gt;Errors::make</title>
<path fill="none" stroke="black" d="M264.39,-91.36C275.02,-87.34 286.9,-83.17 298,-80 361.42,-61.89 436.99,-48.26 481.87,-40.97"/>
<polygon fill="black" stroke="black" points="482.46,-44.42 491.78,-39.38 481.35,-37.51 482.46,-44.42"/>
</g>
<!-- CoreAddresses::assert_diem_root&#45;&gt;Signer::address_of -->
<g id="edge18" class="edge">
<title>CoreAddresses::assert_diem_root&#45;&gt;Signer::address_of</title>
<path fill="none" stroke="black" d="M907.69,-185.73C712.9,-179.37 179.39,-161.42 162,-155 147.9,-149.79 134.5,-140.01 123.87,-130.63"/>
<polygon fill="black" stroke="black" points="126.03,-127.85 116.32,-123.61 121.27,-132.98 126.03,-127.85"/>
</g>
<!-- CoreAddresses::assert_diem_root&#45;&gt;CoreAddresses::DIEM_ROOT_ADDRESS -->
<g id="edge20" class="edge">
<title>CoreAddresses::assert_diem_root&#45;&gt;CoreAddresses::DIEM_ROOT_ADDRESS</title>
<path fill="none" stroke="black" d="M985.63,-170.82C990.46,-159.98 996.78,-145.74 1002.23,-133.47"/>
<polygon fill="black" stroke="black" points="1005.51,-134.71 1006.38,-124.15 999.12,-131.87 1005.51,-134.71"/>
</g>
<!-- Errors::requires_address -->
<g id="node16" class="node">
<title>Errors::requires_address</title>
<ellipse fill="none" stroke="black" cx="813" cy="-106" rx="69.59" ry="18"/>
<text text-anchor="middle" x="813" y="-102.3" font-family="Times,serif" font-size="14.00">requires_address</text>
</g>
<!-- CoreAddresses::assert_diem_root&#45;&gt;Errors::requires_address -->
<g id="edge19" class="edge">
<title>CoreAddresses::assert_diem_root&#45;&gt;Errors::requires_address</title>
<path fill="none" stroke="black" d="M938.62,-173.75C924.65,-168.32 908.94,-161.8 895,-155 878.67,-147.03 861.22,-137.04 846.62,-128.23"/>
<polygon fill="black" stroke="black" points="848.3,-125.15 837.94,-122.93 844.65,-131.13 848.3,-125.15"/>
</g>
<!-- Errors::already_published&#45;&gt;Errors::make -->
<g id="edge21" class="edge">
<title>Errors::already_published&#45;&gt;Errors::make</title>
<path fill="none" stroke="black" d="M521,-87.7C521,-79.98 521,-70.71 521,-62.11"/>
<polygon fill="black" stroke="black" points="524.5,-62.1 521,-52.1 517.5,-62.1 524.5,-62.1"/>
</g>
<!-- DiemConfig::publish_new_config_and_get_capability&#45;&gt;DiemTimestamp::assert_genesis -->
<g id="edge24" class="edge">
<title>DiemConfig::publish_new_config_and_get_capability&#45;&gt;DiemTimestamp::assert_genesis</title>
<path fill="none" stroke="black" d="M457.63,-343.16C640.61,-326 991.25,-293.13 1138.38,-279.34"/>
<polygon fill="black" stroke="black" points="1138.99,-282.8 1148.62,-278.38 1138.33,-275.83 1138.99,-282.8"/>
</g>
<!-- DiemConfig::publish_new_config_and_get_capability&#45;&gt;Roles::assert_diem_root -->
<g id="edge25" class="edge">
<title>DiemConfig::publish_new_config_and_get_capability&#45;&gt;Roles::assert_diem_root</title>
<path fill="none" stroke="black" d="M340.09,-336.82C338.91,-326.19 337.37,-312.31 336.02,-300.2"/>
<polygon fill="black" stroke="black" points="339.49,-299.71 334.91,-290.15 332.53,-300.48 339.49,-299.71"/>
</g>
<!-- DiemConfig::publish_new_config_and_get_capability&#45;&gt;Signer::address_of -->
<g id="edge22" class="edge">
<title>DiemConfig::publish_new_config_and_get_capability&#45;&gt;Signer::address_of</title>
<path fill="none" stroke="black" d="M277.96,-338.46C267.82,-334 258.05,-328.29 250,-321 192.39,-268.82 226.9,-220.86 175,-163 170.47,-157.95 167.56,-158.88 162,-155 150.49,-146.97 138.25,-137.53 127.77,-129.15"/>
<polygon fill="black" stroke="black" points="129.78,-126.27 119.8,-122.71 125.38,-131.72 129.78,-126.27"/>
</g>
<!-- DiemConfig::publish_new_config_and_get_capability&#45;&gt;Errors::already_published -->
<g id="edge23" class="edge">
<title>DiemConfig::publish_new_config_and_get_capability&#45;&gt;Errors::already_published</title>
<path fill="none" stroke="black" d="M391.2,-337.88C400.17,-333.4 408.91,-327.83 416,-321 471.58,-267.42 501.91,-178.3 514.28,-133.88"/>
<polygon fill="black" stroke="black" points="517.69,-134.66 516.91,-124.1 510.93,-132.85 517.69,-134.66"/>
</g>
<!-- Errors::requires_address&#45;&gt;Errors::make -->
<g id="edge26" class="edge">
<title>Errors::requires_address&#45;&gt;Errors::make</title>
<path fill="none" stroke="black" d="M772.75,-91.23C760.69,-87.34 747.37,-83.27 735,-80 674.48,-63.98 603.13,-49.93 560.02,-41.95"/>
<polygon fill="black" stroke="black" points="560.42,-38.47 549.95,-40.11 559.16,-45.36 560.42,-38.47"/>
</g>
</g>
</svg>
