<?xml version="1.0" encoding="UTF-8" standalone="no"?>
<!DOCTYPE svg PUBLIC "-//W3C//DTD SVG 1.1//EN"
 "http://www.w3.org/Graphics/SVG/1.1/DTD/svg11.dtd">
<!-- Generated by graphviz version 2.46.1 (20210213.1702)
 -->
<!-- Title: G Pages: 1 -->
<svg width="1413pt" height="456pt"
 viewBox="0.00 0.00 1413.00 456.00" xmlns="http://www.w3.org/2000/svg" xmlns:xlink="http://www.w3.org/1999/xlink">
<g id="graph0" class="graph" transform="scale(1 1) rotate(0) translate(4 452)">
<title>G</title>
<polygon fill="white" stroke="transparent" points="-4,4 -4,-452 1409,-452 1409,4 -4,4"/>
<g id="clust1" class="cluster">
<title>cluster_Errors</title>
<polygon fill="none" stroke="black" points="8,-8 8,-155 733,-155 733,-8 8,-8"/>
<text text-anchor="middle" x="370.5" y="-139.8" font-family="Times,serif" font-size="14.00">Errors</text>
</g>
<g id="clust2" class="cluster">
<title>cluster_CoreAddresses</title>
<polygon fill="none" stroke="black" points="899,-80 899,-238 1129,-238 1129,-80 899,-80"/>
<text text-anchor="middle" x="1014" y="-222.8" font-family="Times,serif" font-size="14.00">CoreAddresses</text>
</g>
<g id="clust3" class="cluster">
<title>cluster_DiemTimestamp</title>
<polygon fill="none" stroke="black" points="1137,-163 1137,-321 1275,-321 1275,-163 1137,-163"/>
<text text-anchor="middle" x="1206" y="-305.8" font-family="Times,serif" font-size="14.00">DiemTimestamp</text>
</g>
<g id="clust4" class="cluster">
<title>cluster_Roles</title>
<polygon fill="none" stroke="black" points="587,-246 587,-321 745,-321 745,-246 587,-246"/>
<text text-anchor="middle" x="666" y="-305.8" font-family="Times,serif" font-size="14.00">Roles</text>
</g>
<g id="clust5" class="cluster">
<title>cluster_Vector</title>
<polygon fill="none" stroke="black" points="1315,-329 1315,-404 1397,-404 1397,-329 1315,-329"/>
<text text-anchor="middle" x="1356" y="-388.8" font-family="Times,serif" font-size="14.00">Vector</text>
</g>
<g id="clust6" class="cluster">
<title>cluster_DiemConfig</title>
<polygon fill="none" stroke="black" points="686,-329 686,-404 1008,-404 1008,-329 686,-329"/>
<text text-anchor="middle" x="847" y="-388.8" font-family="Times,serif" font-size="14.00">DiemConfig</text>
</g>
<g id="clust7" class="cluster">
<title>cluster_Signer</title>
<polygon fill="none" stroke="black" points="741,-8 741,-155 891,-155 891,-8 741,-8"/>
<text text-anchor="middle" x="816" y="-139.8" font-family="Times,serif" font-size="14.00">Signer</text>
</g>
<!-- initialize_validator_set -->
<g id="node1" class="node">
<title>initialize_validator_set</title>
<ellipse fill="none" stroke="black" cx="982" cy="-430" rx="90.98" ry="18"/>
<text text-anchor="middle" x="982" y="-426.3" font-family="Times,serif" font-size="14.00">initialize_validator_set</text>
</g>
<!-- Errors::already_published -->
<g id="node2" class="node">
<title>Errors::already_published</title>
<ellipse fill="none" stroke="black" cx="224" cy="-106" rx="75.29" ry="18"/>
<text text-anchor="middle" x="224" y="-102.3" font-family="Times,serif" font-size="14.00">already_published</text>
</g>
<!-- initialize_validator_set&#45;&gt;Errors::already_published -->
<g id="edge1" class="edge">
<title>initialize_validator_set&#45;&gt;Errors::already_published</title>
<path fill="none" stroke="black" d="M891.85,-427.43C809.89,-425.04 695.45,-419.05 653,-404 478.6,-342.17 309.39,-189.92 248.11,-130.91"/>
<polygon fill="black" stroke="black" points="250.47,-128.32 240.85,-123.87 245.59,-133.34 250.47,-128.32"/>
</g>
<!-- CoreAddresses::DIEM_ROOT_ADDRESS -->
<g id="node3" class="node">
<title>CoreAddresses::DIEM_ROOT_ADDRESS</title>
<ellipse fill="none" stroke="black" cx="1014" cy="-106" rx="106.68" ry="18"/>
<text text-anchor="middle" x="1014" y="-102.3" font-family="Times,serif" font-size="14.00">DIEM_ROOT_ADDRESS</text>
</g>
<!-- initialize_validator_set&#45;&gt;CoreAddresses::DIEM_ROOT_ADDRESS -->
<g id="edge2" class="edge">
<title>initialize_validator_set&#45;&gt;CoreAddresses::DIEM_ROOT_ADDRESS</title>
<path fill="none" stroke="black" d="M1068.19,-424.23C1138.5,-415.18 1233.38,-389.99 1279,-321 1317.73,-262.42 1323.22,-217.55 1279,-163 1258.58,-137.81 1183.24,-123.51 1118.09,-115.67"/>
<polygon fill="black" stroke="black" points="1118.49,-112.2 1108.15,-114.52 1117.68,-119.15 1118.49,-112.2"/>
</g>
<!-- DiemTimestamp::assert_genesis -->
<g id="node4" class="node">
<title>DiemTimestamp::assert_genesis</title>
<ellipse fill="none" stroke="black" cx="1206" cy="-272" rx="61.19" ry="18"/>
<text text-anchor="middle" x="1206" y="-268.3" font-family="Times,serif" font-size="14.00">assert_genesis</text>
</g>
<!-- initialize_validator_set&#45;&gt;DiemTimestamp::assert_genesis -->
<g id="edge3" class="edge">
<title>initialize_validator_set&#45;&gt;DiemTimestamp::assert_genesis</title>
<path fill="none" stroke="black" d="M1005.55,-412.6C1046.18,-384.31 1129.44,-326.32 1174.82,-294.71"/>
<polygon fill="black" stroke="black" points="1176.9,-297.53 1183.1,-288.95 1172.89,-291.79 1176.9,-297.53"/>
</g>
<!-- Roles::assert_diem_root -->
<g id="node5" class="node">
<title>Roles::assert_diem_root</title>
<ellipse fill="none" stroke="black" cx="666" cy="-272" rx="71.49" ry="18"/>
<text text-anchor="middle" x="666" y="-268.3" font-family="Times,serif" font-size="14.00">assert_diem_root</text>
</g>
<!-- initialize_validator_set&#45;&gt;Roles::assert_diem_root -->
<g id="edge4" class="edge">
<title>initialize_validator_set&#45;&gt;Roles::assert_diem_root</title>
<path fill="none" stroke="black" d="M891.87,-427.16C809.07,-424.56 696.97,-418.41 682,-404 654.65,-377.68 656,-330.57 660.35,-300.6"/>
<polygon fill="black" stroke="black" points="663.86,-300.84 662.05,-290.4 656.96,-299.69 663.86,-300.84"/>
</g>
<!-- Vector::empty -->
<g id="node6" class="node">
<title>Vector::empty</title>
<ellipse fill="none" stroke="black" cx="1356" cy="-355" rx="33.29" ry="18"/>
<text text-anchor="middle" x="1356" y="-351.3" font-family="Times,serif" font-size="14.00">empty</text>
</g>
<!-- initialize_validator_set&#45;&gt;Vector::empty -->
<g id="edge5" class="edge">
<title>initialize_validator_set&#45;&gt;Vector::empty</title>
<path fill="none" stroke="black" d="M1073.1,-429.14C1155.04,-427.99 1268.55,-422.85 1309,-404 1320.45,-398.67 1330.62,-389.26 1338.55,-380.17"/>
<polygon fill="black" stroke="black" points="1341.29,-382.34 1344.91,-372.39 1335.87,-377.91 1341.29,-382.34"/>
</g>
<!-- DiemConfig::publish_new_config_and_get_capability -->
<g id="node7" class="node">
<title>DiemConfig::publish_new_config_and_get_capability</title>
<ellipse fill="none" stroke="black" cx="847" cy="-355" rx="153.27" ry="18"/>
<text text-anchor="middle" x="847" y="-351.3" font-family="Times,serif" font-size="14.00">publish_new_config_and_get_capability</text>
</g>
<!-- initialize_validator_set&#45;&gt;DiemConfig::publish_new_config_and_get_capability -->
<g id="edge6" class="edge">
<title>initialize_validator_set&#45;&gt;DiemConfig::publish_new_config_and_get_capability</title>
<path fill="none" stroke="black" d="M952.37,-412.98C933.17,-402.6 907.93,-388.94 886.96,-377.61"/>
<polygon fill="black" stroke="black" points="888.42,-374.42 877.96,-372.74 885.1,-380.58 888.42,-374.42"/>
</g>
<!-- Errors::make -->
<g id="node8" class="node">
<title>Errors::make</title>
<ellipse fill="none" stroke="black" cx="378" cy="-34" rx="30.59" ry="18"/>
<text text-anchor="middle" x="378" y="-30.3" font-family="Times,serif" font-size="14.00">make</text>
</g>
<!-- Errors::already_published&#45;&gt;Errors::make -->
<g id="edge7" class="edge">
<title>Errors::already_published&#45;&gt;Errors::make</title>
<path fill="none" stroke="black" d="M257.42,-89.81C283.3,-78.04 318.99,-61.82 344.81,-50.08"/>
<polygon fill="black" stroke="black" points="346.53,-53.15 354.19,-45.82 343.64,-46.78 346.53,-53.15"/>
</g>
<!-- Errors::invalid_state -->
<g id="node9" class="node">
<title>Errors::invalid_state</title>
<ellipse fill="none" stroke="black" cx="512" cy="-106" rx="55.79" ry="18"/>
<text text-anchor="middle" x="512" y="-102.3" font-family="Times,serif" font-size="14.00">invalid_state</text>
</g>
<!-- DiemTimestamp::assert_genesis&#45;&gt;Errors::invalid_state -->
<g id="edge8" class="edge">
<title>DiemTimestamp::assert_genesis&#45;&gt;Errors::invalid_state</title>
<path fill="none" stroke="black" d="M1146.41,-267.97C1069.41,-263.5 939.92,-253.88 895,-238 837.12,-217.54 837.53,-181.53 779,-163 735.96,-149.37 618.54,-170.12 576,-155 561.15,-149.72 546.89,-139.7 535.62,-130.16"/>
<polygon fill="black" stroke="black" points="537.78,-127.4 527.97,-123.39 533.13,-132.64 537.78,-127.4"/>
</g>
<!-- DiemTimestamp::is_genesis -->
<g id="node10" class="node">
<title>DiemTimestamp::is_genesis</title>
<ellipse fill="none" stroke="black" cx="1199" cy="-189" rx="46.59" ry="18"/>
<text text-anchor="middle" x="1199" y="-185.3" font-family="Times,serif" font-size="14.00">is_genesis</text>
</g>
<!-- DiemTimestamp::assert_genesis&#45;&gt;DiemTimestamp::is_genesis -->
<g id="edge9" class="edge">
<title>DiemTimestamp::assert_genesis&#45;&gt;DiemTimestamp::is_genesis</title>
<path fill="none" stroke="black" d="M1204.52,-253.82C1203.6,-243.19 1202.4,-229.31 1201.35,-217.2"/>
<polygon fill="black" stroke="black" points="1204.83,-216.81 1200.48,-207.15 1197.86,-217.42 1204.83,-216.81"/>
</g>
<!-- Signer::address_of -->
<g id="node11" class="node">
<title>Signer::address_of</title>
<ellipse fill="none" stroke="black" cx="825" cy="-106" rx="48.99" ry="18"/>
<text text-anchor="middle" x="825" y="-102.3" font-family="Times,serif" font-size="14.00">address_of</text>
</g>
<!-- Roles::assert_diem_root&#45;&gt;Signer::address_of -->
<g id="edge10" class="edge">
<title>Roles::assert_diem_root&#45;&gt;Signer::address_of</title>
<path fill="none" stroke="black" d="M682.12,-254.37C710.48,-225.12 769.37,-164.38 802,-130.73"/>
<polygon fill="black" stroke="black" points="804.86,-132.8 809.31,-123.19 799.83,-127.93 804.86,-132.8"/>
</g>
<!-- Errors::not_published -->
<g id="node12" class="node">
<title>Errors::not_published</title>
<ellipse fill="none" stroke="black" cx="378" cy="-106" rx="60.39" ry="18"/>
<text text-anchor="middle" x="378" y="-102.3" font-family="Times,serif" font-size="14.00">not_published</text>
</g>
<!-- Roles::assert_diem_root&#45;&gt;Errors::not_published -->
<g id="edge11" class="edge">
<title>Roles::assert_diem_root&#45;&gt;Errors::not_published</title>
<path fill="none" stroke="black" d="M634.52,-255.82C591.37,-234.69 511.84,-194.53 447,-155 433.87,-146.99 419.85,-137.44 407.9,-128.97"/>
<polygon fill="black" stroke="black" points="409.78,-126.02 399.61,-123.04 405.71,-131.71 409.78,-126.02"/>
</g>
<!-- Errors::requires_role -->
<g id="node13" class="node">
<title>Errors::requires_role</title>
<ellipse fill="none" stroke="black" cx="73" cy="-106" rx="57.39" ry="18"/>
<text text-anchor="middle" x="73" y="-102.3" font-family="Times,serif" font-size="14.00">requires_role</text>
</g>
<!-- Roles::assert_diem_root&#45;&gt;Errors::requires_role -->
<g id="edge12" class="edge">
<title>Roles::assert_diem_root&#45;&gt;Errors::requires_role</title>
<path fill="none" stroke="black" d="M598.62,-265.65C495.53,-255.41 294.36,-227.24 140,-155 125.71,-148.31 111.31,-138.48 99.53,-129.46"/>
<polygon fill="black" stroke="black" points="101.48,-126.54 91.46,-123.09 97.14,-132.03 101.48,-126.54"/>
</g>
<!-- CoreAddresses::assert_diem_root -->
<g id="node14" class="node">
<title>CoreAddresses::assert_diem_root</title>
<ellipse fill="none" stroke="black" cx="978" cy="-189" rx="71.49" ry="18"/>
<text text-anchor="middle" x="978" y="-185.3" font-family="Times,serif" font-size="14.00">assert_diem_root</text>
</g>
<!-- Roles::assert_diem_root&#45;&gt;CoreAddresses::assert_diem_root -->
<g id="edge13" class="edge">
<title>Roles::assert_diem_root&#45;&gt;CoreAddresses::assert_diem_root</title>
<path fill="none" stroke="black" d="M720.04,-260.21C748.93,-254.18 785.04,-246.24 817,-238 853.57,-228.57 894.34,-216.4 925.7,-206.67"/>
<polygon fill="black" stroke="black" points="927.03,-209.92 935.53,-203.61 924.94,-203.24 927.03,-209.92"/>
</g>
<!-- DiemConfig::publish_new_config_and_get_capability&#45;&gt;Errors::already_published -->
<g id="edge15" class="edge">
<title>DiemConfig::publish_new_config_and_get_capability&#45;&gt;Errors::already_published</title>
<path fill="none" stroke="black" d="M836.3,-336.86C820.34,-312.75 787.94,-269.18 749,-246 615.72,-166.65 563.15,-187.65 410,-163 365.54,-155.84 352.06,-168.16 309,-155 290.03,-149.2 270.64,-138.68 255.18,-128.95"/>
<polygon fill="black" stroke="black" points="256.86,-125.87 246.56,-123.36 253.05,-131.74 256.86,-125.87"/>
</g>
<!-- DiemConfig::publish_new_config_and_get_capability&#45;&gt;DiemTimestamp::assert_genesis -->
<g id="edge16" class="edge">
<title>DiemConfig::publish_new_config_and_get_capability&#45;&gt;DiemTimestamp::assert_genesis</title>
<path fill="none" stroke="black" d="M914.53,-338.76C982.29,-323.47 1085.52,-300.18 1149.21,-285.81"/>
<polygon fill="black" stroke="black" points="1150.09,-289.2 1159.08,-283.59 1148.55,-282.37 1150.09,-289.2"/>
</g>
<!-- DiemConfig::publish_new_config_and_get_capability&#45;&gt;Roles::assert_diem_root -->
<g id="edge17" class="edge">
<title>DiemConfig::publish_new_config_and_get_capability&#45;&gt;Roles::assert_diem_root</title>
<path fill="none" stroke="black" d="M795.01,-338.06C780.55,-333.11 764.98,-327.29 751,-321 733.85,-313.29 715.59,-303.24 700.42,-294.34"/>
<polygon fill="black" stroke="black" points="701.79,-291.08 691.4,-288.97 698.2,-297.09 701.79,-291.08"/>
</g>
<!-- DiemConfig::publish_new_config_and_get_capability&#45;&gt;Signer::address_of -->
<g id="edge14" class="edge">
<title>DiemConfig::publish_new_config_and_get_capability&#45;&gt;Signer::address_of</title>
<path fill="none" stroke="black" d="M845.45,-336.63C841.68,-294.28 831.98,-185.42 827.43,-134.29"/>
<polygon fill="black" stroke="black" points="830.89,-133.67 826.52,-124.02 823.92,-134.29 830.89,-133.67"/>
</g>
<!-- Errors::invalid_state&#45;&gt;Errors::make -->
<g id="edge18" class="edge">
<title>Errors::invalid_state&#45;&gt;Errors::make</title>
<path fill="none" stroke="black" d="M483.91,-90.33C462.15,-78.96 432.02,-63.22 409.45,-51.43"/>
<polygon fill="black" stroke="black" points="410.78,-48.17 400.29,-46.65 407.54,-54.38 410.78,-48.17"/>
</g>
<!-- DiemTimestamp::is_genesis&#45;&gt;CoreAddresses::DIEM_ROOT_ADDRESS -->
<g id="edge19" class="edge">
<title>DiemTimestamp::is_genesis&#45;&gt;CoreAddresses::DIEM_ROOT_ADDRESS</title>
<path fill="none" stroke="black" d="M1169.28,-174.99C1139.77,-162.07 1094.14,-142.09 1059.97,-127.13"/>
<polygon fill="black" stroke="black" points="1061.22,-123.85 1050.65,-123.05 1058.41,-130.27 1061.22,-123.85"/>
</g>
<!-- Signer::borrow_address -->
<g id="node15" class="node">
<title>Signer::borrow_address</title>
<ellipse fill="none" stroke="black" cx="816" cy="-34" rx="66.89" ry="18"/>
<text text-anchor="middle" x="816" y="-30.3" font-family="Times,serif" font-size="14.00">borrow_address</text>
</g>
<!-- Signer::address_of&#45;&gt;Signer::borrow_address -->
<g id="edge20" class="edge">
<title>Signer::address_of&#45;&gt;Signer::borrow_address</title>
<path fill="none" stroke="black" d="M822.78,-87.7C821.78,-79.98 820.59,-70.71 819.49,-62.11"/>
<polygon fill="black" stroke="black" points="822.95,-61.58 818.2,-52.1 816,-62.47 822.95,-61.58"/>
</g>
<!-- Errors::not_published&#45;&gt;Errors::make -->
<g id="edge21" class="edge">
<title>Errors::not_published&#45;&gt;Errors::make</title>
<path fill="none" stroke="black" d="M378,-87.7C378,-79.98 378,-70.71 378,-62.11"/>
<polygon fill="black" stroke="black" points="381.5,-62.1 378,-52.1 374.5,-62.1 381.5,-62.1"/>
</g>
<!-- Errors::requires_role&#45;&gt;Errors::make -->
<g id="edge22" class="edge">
<title>Errors::requires_role&#45;&gt;Errors::make</title>
<path fill="none" stroke="black" d="M106.37,-91.27C116.99,-87.25 128.88,-83.1 140,-80 208.68,-60.84 290.79,-47.32 338.41,-40.37"/>
<polygon fill="black" stroke="black" points="338.92,-43.84 348.32,-38.95 337.92,-36.91 338.92,-43.84"/>
</g>
<!-- CoreAddresses::assert_diem_root&#45;&gt;CoreAddresses::DIEM_ROOT_ADDRESS -->
<g id="edge25" class="edge">
<title>CoreAddresses::assert_diem_root&#45;&gt;CoreAddresses::DIEM_ROOT_ADDRESS</title>
<path fill="none" stroke="black" d="M985.63,-170.82C990.46,-159.98 996.78,-145.74 1002.23,-133.47"/>
<polygon fill="black" stroke="black" points="1005.51,-134.71 1006.38,-124.15 999.12,-131.87 1005.51,-134.71"/>
</g>
<!-- CoreAddresses::assert_diem_root&#45;&gt;Signer::address_of -->
<g id="edge23" class="edge">
<title>CoreAddresses::assert_diem_root&#45;&gt;Signer::address_of</title>
<path fill="none" stroke="black" d="M937.5,-173.97C923.72,-168.66 908.41,-162.15 895,-155 880.63,-147.34 865.62,-137.35 853.21,-128.47"/>
<polygon fill="black" stroke="black" points="855.21,-125.6 845.07,-122.54 851.09,-131.25 855.21,-125.6"/>
</g>
<!-- Errors::requires_address -->
<g id="node16" class="node">
<title>Errors::requires_address</title>
<ellipse fill="none" stroke="black" cx="655" cy="-106" rx="69.59" ry="18"/>
<text text-anchor="middle" x="655" y="-102.3" font-family="Times,serif" font-size="14.00">requires_address</text>
</g>
<!-- CoreAddresses::assert_diem_root&#45;&gt;Errors::requires_address -->
<g id="edge24" class="edge">
<title>CoreAddresses::assert_diem_root&#45;&gt;Errors::requires_address</title>
<path fill="none" stroke="black" d="M937.81,-174.08C923.8,-169.79 907.86,-165.53 893,-163 858.78,-157.17 770.26,-164.94 737,-155 718.37,-149.43 699.51,-138.82 684.59,-128.98"/>
<polygon fill="black" stroke="black" points="686.52,-126.06 676.28,-123.32 682.58,-131.85 686.52,-126.06"/>
</g>
<!-- Errors::requires_address&#45;&gt;Errors::make -->
<g id="edge26" class="edge">
<title>Errors::requires_address&#45;&gt;Errors::make</title>
<path fill="none" stroke="black" d="M614.32,-91.22C602.36,-87.37 589.21,-83.33 577,-80 521.67,-64.91 456.73,-50.91 416.47,-42.65"/>
<polygon fill="black" stroke="black" points="417.03,-39.2 406.53,-40.63 415.64,-46.06 417.03,-39.2"/>
</g>
</g>
</svg>
