<?xml version="1.0" encoding="UTF-8" standalone="no"?>
<!DOCTYPE svg PUBLIC "-//W3C//DTD SVG 1.1//EN"
 "http://www.w3.org/Graphics/SVG/1.1/DTD/svg11.dtd">
<!-- Generated by graphviz version 2.46.1 (20210213.1702)
 -->
<!-- Title: G Pages: 1 -->
<svg width="563pt" height="445pt"
 viewBox="0.00 0.00 563.00 445.00" xmlns="http://www.w3.org/2000/svg" xmlns:xlink="http://www.w3.org/1999/xlink">
<g id="graph0" class="graph" transform="scale(1 1) rotate(0) translate(4 441)">
<title>G</title>
<polygon fill="white" stroke="transparent" points="-4,4 -4,-441 559,-441 559,4 -4,4"/>
<g id="clust1" class="cluster">
<title>cluster_Errors</title>
<polygon fill="none" stroke="black" points="8,-8 8,-155 309,-155 309,-8 8,-8"/>
<text text-anchor="middle" x="158.5" y="-139.8" font-family="Times,serif" font-size="14.00">Errors</text>
</g>
<g id="clust2" class="cluster">
<title>cluster_Vector</title>
<polygon fill="none" stroke="black" points="109,-246 109,-321 280,-321 280,-246 109,-246"/>
<text text-anchor="middle" x="194.5" y="-305.8" font-family="Times,serif" font-size="14.00">Vector</text>
</g>
<g id="clust3" class="cluster">
<title>cluster_DiemConfig</title>
<polygon fill="none" stroke="black" points="348,-163 348,-238 432,-238 432,-163 348,-163"/>
<text text-anchor="middle" x="390" y="-222.8" font-family="Times,serif" font-size="14.00">DiemConfig</text>
</g>
<g id="clust4" class="cluster">
<title>cluster_CoreAddresses</title>
<polygon fill="none" stroke="black" points="317,-80 317,-155 547,-155 547,-80 317,-80"/>
<text text-anchor="middle" x="432" y="-139.8" font-family="Times,serif" font-size="14.00">CoreAddresses</text>
</g>
<!-- get_ith_validator_address -->
<g id="node1" class="node">
<title>get_ith_validator_address</title>
<ellipse fill="none" stroke="black" cx="204" cy="-419" rx="101.28" ry="18"/>
<text text-anchor="middle" x="204" y="-415.3" font-family="Times,serif" font-size="14.00">get_ith_validator_address</text>
</g>
<!-- Errors::invalid_argument -->
<g id="node2" class="node">
<title>Errors::invalid_argument</title>
<ellipse fill="none" stroke="black" cx="89" cy="-106" rx="73.39" ry="18"/>
<text text-anchor="middle" x="89" y="-102.3" font-family="Times,serif" font-size="14.00">invalid_argument</text>
</g>
<!-- get_ith_validator_address&#45;&gt;Errors::invalid_argument -->
<g id="edge1" class="edge">
<title>get_ith_validator_address&#45;&gt;Errors::invalid_argument</title>
<path fill="none" stroke="black" d="M178.63,-401.4C154.98,-384.35 121.03,-355.48 105,-321 76.25,-259.15 80.44,-176.33 85.16,-134.15"/>
<polygon fill="black" stroke="black" points="88.64,-134.45 86.38,-124.1 81.7,-133.61 88.64,-134.45"/>
</g>
<!-- Vector::borrow -->
<g id="node3" class="node">
<title>Vector::borrow</title>
<ellipse fill="none" stroke="black" cx="153" cy="-272" rx="36.29" ry="18"/>
<text text-anchor="middle" x="153" y="-268.3" font-family="Times,serif" font-size="14.00">borrow</text>
</g>
<!-- get_ith_validator_address&#45;&gt;Vector::borrow -->
<g id="edge2" class="edge">
<title>get_ith_validator_address&#45;&gt;Vector::borrow</title>
<path fill="none" stroke="black" d="M191.76,-401.11C185.02,-391.06 177.02,-377.81 172,-365 163.76,-343.96 158.87,-318.74 156.12,-300.03"/>
<polygon fill="black" stroke="black" points="159.59,-299.55 154.77,-290.11 152.65,-300.49 159.59,-299.55"/>
</g>
<!-- get_diem_system_config -->
<g id="node4" class="node">
<title>get_diem_system_config</title>
<ellipse fill="none" stroke="black" cx="390" cy="-272" rx="99.38" ry="18"/>
<text text-anchor="middle" x="390" y="-268.3" font-family="Times,serif" font-size="14.00">get_diem_system_config</text>
</g>
<!-- get_ith_validator_address&#45;&gt;get_diem_system_config -->
<g id="edge3" class="edge">
<title>get_ith_validator_address&#45;&gt;get_diem_system_config</title>
<path fill="none" stroke="black" d="M262.77,-404.24C288.07,-396.07 316.68,-383.57 338,-365 358.21,-347.4 372.29,-319.92 380.65,-299.58"/>
<polygon fill="black" stroke="black" points="383.92,-300.82 384.3,-290.24 377.4,-298.28 383.92,-300.82"/>
</g>
<!-- validator_set_size -->
<g id="node5" class="node">
<title>validator_set_size</title>
<ellipse fill="none" stroke="black" cx="255" cy="-347" rx="74.19" ry="18"/>
<text text-anchor="middle" x="255" y="-343.3" font-family="Times,serif" font-size="14.00">validator_set_size</text>
</g>
<!-- get_ith_validator_address&#45;&gt;validator_set_size -->
<g id="edge4" class="edge">
<title>get_ith_validator_address&#45;&gt;validator_set_size</title>
<path fill="none" stroke="black" d="M216.35,-401.05C222.48,-392.63 230.02,-382.28 236.81,-372.97"/>
<polygon fill="black" stroke="black" points="239.71,-374.93 242.77,-364.79 234.05,-370.81 239.71,-374.93"/>
</g>
<!-- Errors::make -->
<g id="node6" class="node">
<title>Errors::make</title>
<ellipse fill="none" stroke="black" cx="165" cy="-34" rx="30.59" ry="18"/>
<text text-anchor="middle" x="165" y="-30.3" font-family="Times,serif" font-size="14.00">make</text>
</g>
<!-- Errors::invalid_argument&#45;&gt;Errors::make -->
<g id="edge5" class="edge">
<title>Errors::invalid_argument&#45;&gt;Errors::make</title>
<path fill="none" stroke="black" d="M107.01,-88.41C117.43,-78.82 130.64,-66.65 141.82,-56.35"/>
<polygon fill="black" stroke="black" points="144.2,-58.92 149.18,-49.57 139.45,-53.77 144.2,-58.92"/>
</g>
<!-- DiemConfig::get -->
<g id="node7" class="node">
<title>DiemConfig::get</title>
<ellipse fill="none" stroke="black" cx="390" cy="-189" rx="27" ry="18"/>
<text text-anchor="middle" x="390" y="-185.3" font-family="Times,serif" font-size="14.00">get</text>
</g>
<!-- get_diem_system_config&#45;&gt;DiemConfig::get -->
<g id="edge6" class="edge">
<title>get_diem_system_config&#45;&gt;DiemConfig::get</title>
<path fill="none" stroke="black" d="M390,-253.82C390,-243.19 390,-229.31 390,-217.2"/>
<polygon fill="black" stroke="black" points="393.5,-217.15 390,-207.15 386.5,-217.15 393.5,-217.15"/>
</g>
<!-- validator_set_size&#45;&gt;get_diem_system_config -->
<g id="edge8" class="edge">
<title>validator_set_size&#45;&gt;get_diem_system_config</title>
<path fill="none" stroke="black" d="M283.96,-330.34C303.48,-319.78 329.48,-305.73 350.84,-294.17"/>
<polygon fill="black" stroke="black" points="352.55,-297.23 359.68,-289.39 349.22,-291.07 352.55,-297.23"/>
</g>
<!-- Vector::length -->
<g id="node8" class="node">
<title>Vector::length</title>
<ellipse fill="none" stroke="black" cx="240" cy="-272" rx="32.49" ry="18"/>
<text text-anchor="middle" x="240" y="-268.3" font-family="Times,serif" font-size="14.00">length</text>
</g>
<!-- validator_set_size&#45;&gt;Vector::length -->
<g id="edge7" class="edge">
<title>validator_set_size&#45;&gt;Vector::length</title>
<path fill="none" stroke="black" d="M251.45,-328.7C249.68,-320.09 247.5,-309.49 245.52,-299.86"/>
<polygon fill="black" stroke="black" points="248.92,-299.01 243.48,-289.92 242.06,-300.42 248.92,-299.01"/>
</g>
<!-- Errors::not_published -->
<g id="node9" class="node">
<title>Errors::not_published</title>
<ellipse fill="none" stroke="black" cx="241" cy="-106" rx="60.39" ry="18"/>
<text text-anchor="middle" x="241" y="-102.3" font-family="Times,serif" font-size="14.00">not_published</text>
</g>
<!-- DiemConfig::get&#45;&gt;Errors::not_published -->
<g id="edge9" class="edge">
<title>DiemConfig::get&#45;&gt;Errors::not_published</title>
<path fill="none" stroke="black" d="M366.91,-179.39C351.34,-173.27 330.52,-164.49 313,-155 298.73,-147.27 283.67,-137.51 271.04,-128.82"/>
<polygon fill="black" stroke="black" points="272.93,-125.86 262.72,-123 268.92,-131.6 272.93,-125.86"/>
</g>
<!-- CoreAddresses::DIEM_ROOT_ADDRESS -->
<g id="node10" class="node">
<title>CoreAddresses::DIEM_ROOT_ADDRESS</title>
<ellipse fill="none" stroke="black" cx="432" cy="-106" rx="106.68" ry="18"/>
<text text-anchor="middle" x="432" y="-102.3" font-family="Times,serif" font-size="14.00">DIEM_ROOT_ADDRESS</text>
</g>
<!-- DiemConfig::get&#45;&gt;CoreAddresses::DIEM_ROOT_ADDRESS -->
<g id="edge10" class="edge">
<title>DiemConfig::get&#45;&gt;CoreAddresses::DIEM_ROOT_ADDRESS</title>
<path fill="none" stroke="black" d="M398.5,-171.61C404.19,-160.63 411.81,-145.94 418.34,-133.34"/>
<polygon fill="black" stroke="black" points="421.58,-134.69 423.08,-124.21 415.37,-131.47 421.58,-134.69"/>
</g>
<!-- Errors::not_published&#45;&gt;Errors::make -->
<g id="edge11" class="edge">
<title>Errors::not_published&#45;&gt;Errors::make</title>
<path fill="none" stroke="black" d="M223.37,-88.76C212.9,-79.12 199.49,-66.77 188.17,-56.34"/>
<polygon fill="black" stroke="black" points="190.45,-53.68 180.72,-49.48 185.71,-58.83 190.45,-53.68"/>
</g>
</g>
</svg>
