<?xml version="1.0" encoding="UTF-8" standalone="no"?>
<!DOCTYPE svg PUBLIC "-//W3C//DTD SVG 1.1//EN"
 "http://www.w3.org/Graphics/SVG/1.1/DTD/svg11.dtd">
<!-- Generated by graphviz version 2.46.1 (20210213.1702)
 -->
<!-- Title: G Pages: 1 -->
<svg width="2133pt" height="675pt"
 viewBox="0.00 0.00 2133.00 675.00" xmlns="http://www.w3.org/2000/svg" xmlns:xlink="http://www.w3.org/1999/xlink">
<g id="graph0" class="graph" transform="scale(1 1) rotate(0) translate(4 671)">
<title>G</title>
<polygon fill="white" stroke="transparent" points="-4,4 -4,-671 2129,-671 2129,4 -4,4"/>
<g id="clust1" class="cluster">
<title>cluster_Errors</title>
<polygon fill="none" stroke="black" points="996,-8 996,-155 1864,-155 1864,-8 996,-8"/>
<text text-anchor="middle" x="1430" y="-139.8" font-family="Times,serif" font-size="14.00">Errors</text>
</g>
<g id="clust2" class="cluster">
<title>cluster_DiemTimestamp</title>
<polygon fill="none" stroke="black" points="58,-80 58,-321 344,-321 344,-80 58,-80"/>
<text text-anchor="middle" x="201" y="-305.8" font-family="Times,serif" font-size="14.00">DiemTimestamp</text>
</g>
<g id="clust3" class="cluster">
<title>cluster_Roles</title>
<polygon fill="none" stroke="black" points="1140,-246 1140,-321 1298,-321 1298,-246 1140,-246"/>
<text text-anchor="middle" x="1219" y="-305.8" font-family="Times,serif" font-size="14.00">Roles</text>
</g>
<g id="clust4" class="cluster">
<title>cluster_Vector</title>
<polygon fill="none" stroke="black" points="1732,-163 1732,-321 2029,-321 2029,-163 1732,-163"/>
<text text-anchor="middle" x="1880.5" y="-305.8" font-family="Times,serif" font-size="14.00">Vector</text>
</g>
<g id="clust5" class="cluster">
<title>cluster_ValidatorConfig</title>
<polygon fill="none" stroke="black" points="1470,-401 1470,-551 1676,-551 1676,-401 1470,-401"/>
<text text-anchor="middle" x="1573" y="-535.8" font-family="Times,serif" font-size="14.00">ValidatorConfig</text>
</g>
<g id="clust6" class="cluster">
<title>cluster_CoreAddresses</title>
<polygon fill="none" stroke="black" points="758,-80 758,-238 988,-238 988,-80 758,-80"/>
<text text-anchor="middle" x="873" y="-222.8" font-family="Times,serif" font-size="14.00">CoreAddresses</text>
</g>
<g id="clust7" class="cluster">
<title>cluster_Signer</title>
<polygon fill="none" stroke="black" points="600,-8 600,-155 750,-155 750,-8 600,-8"/>
<text text-anchor="middle" x="675" y="-139.8" font-family="Times,serif" font-size="14.00">Signer</text>
</g>
<g id="clust8" class="cluster">
<title>cluster_Option</title>
<polygon fill="none" stroke="black" points="1736,-329 1736,-476 1976,-476 1976,-329 1736,-329"/>
<text text-anchor="middle" x="1856" y="-460.8" font-family="Times,serif" font-size="14.00">Option</text>
</g>
<g id="clust9" class="cluster">
<title>cluster_DiemConfig</title>
<polygon fill="none" stroke="black" points="652,-246 652,-476 1022,-476 1022,-246 652,-246"/>
<text text-anchor="middle" x="837" y="-460.8" font-family="Times,serif" font-size="14.00">DiemConfig</text>
</g>
<g id="clust10" class="cluster">
<title>cluster_Event</title>
<polygon fill="none" stroke="black" points="458,-163 458,-321 644,-321 644,-163 458,-163"/>
<text text-anchor="middle" x="551" y="-305.8" font-family="Times,serif" font-size="14.00">Event</text>
</g>
<!-- add_validator -->
<g id="node1" class="node">
<title>add_validator</title>
<ellipse fill="none" stroke="black" cx="1299" cy="-649" rx="59.29" ry="18"/>
<text text-anchor="middle" x="1299" y="-645.3" font-family="Times,serif" font-size="14.00">add_validator</text>
</g>
<!-- Errors::invalid_argument -->
<g id="node2" class="node">
<title>Errors::invalid_argument</title>
<ellipse fill="none" stroke="black" cx="1783" cy="-106" rx="73.39" ry="18"/>
<text text-anchor="middle" x="1783" y="-102.3" font-family="Times,serif" font-size="14.00">invalid_argument</text>
</g>
<!-- add_validator&#45;&gt;Errors::invalid_argument -->
<g id="edge1" class="edge">
<title>add_validator&#45;&gt;Errors::invalid_argument</title>
<path fill="none" stroke="black" d="M1309.59,-630.98C1315.37,-620.89 1322.12,-607.64 1326,-595 1357.43,-492.66 1356,-463.06 1356,-356 1356,-356 1356,-356 1356,-271 1356,-200.88 1406.27,-189.94 1471,-163 1518.22,-143.35 1651.88,-169.24 1701,-155 1719.67,-149.59 1738.54,-138.98 1753.45,-129.12"/>
<polygon fill="black" stroke="black" points="1755.47,-131.97 1761.75,-123.44 1751.52,-126.2 1755.47,-131.97"/>
</g>
<!-- Errors::limit_exceeded -->
<g id="node3" class="node">
<title>Errors::limit_exceeded</title>
<ellipse fill="none" stroke="black" cx="1627" cy="-106" rx="64.99" ry="18"/>
<text text-anchor="middle" x="1627" y="-102.3" font-family="Times,serif" font-size="14.00">limit_exceeded</text>
</g>
<!-- add_validator&#45;&gt;Errors::limit_exceeded -->
<g id="edge2" class="edge">
<title>add_validator&#45;&gt;Errors::limit_exceeded</title>
<path fill="none" stroke="black" d="M1302.75,-630.69C1308.29,-603.59 1318,-549.46 1318,-503 1318,-503 1318,-503 1318,-271 1318,-221.83 1304.23,-194.49 1342,-163 1360.02,-147.98 1530.63,-162.08 1553,-155 1569.89,-149.65 1586.62,-139.34 1599.89,-129.64"/>
<polygon fill="black" stroke="black" points="1602.24,-132.25 1608.08,-123.41 1598,-126.68 1602.24,-132.25"/>
</g>
<!-- DiemTimestamp::assert_operating -->
<g id="node4" class="node">
<title>DiemTimestamp::assert_operating</title>
<ellipse fill="none" stroke="black" cx="145" cy="-189" rx="68.49" ry="18"/>
<text text-anchor="middle" x="145" y="-185.3" font-family="Times,serif" font-size="14.00">assert_operating</text>
</g>
<!-- add_validator&#45;&gt;DiemTimestamp::assert_operating -->
<g id="edge3" class="edge">
<title>add_validator&#45;&gt;DiemTimestamp::assert_operating</title>
<path fill="none" stroke="black" d="M1240.23,-646.81C1017.12,-642.07 229.6,-623.49 121,-595 55.65,-577.85 0,-570.56 0,-503 0,-503 0,-503 0,-354 0,-302.66 7.15,-284.61 41,-246 55.64,-229.3 76.5,-216.71 95.7,-207.74"/>
<polygon fill="black" stroke="black" points="97.24,-210.89 104.96,-203.63 94.4,-204.49 97.24,-210.89"/>
</g>
<!-- DiemTimestamp::now_microseconds -->
<g id="node5" class="node">
<title>DiemTimestamp::now_microseconds</title>
<ellipse fill="none" stroke="black" cx="145" cy="-272" rx="79.09" ry="18"/>
<text text-anchor="middle" x="145" y="-268.3" font-family="Times,serif" font-size="14.00">now_microseconds</text>
</g>
<!-- add_validator&#45;&gt;DiemTimestamp::now_microseconds -->
<g id="edge4" class="edge">
<title>add_validator&#45;&gt;DiemTimestamp::now_microseconds</title>
<path fill="none" stroke="black" d="M1239.87,-647.5C990.57,-644.61 38,-625.58 38,-503 38,-503 38,-503 38,-426 38,-371.77 83.71,-323.07 115.38,-295.83"/>
<polygon fill="black" stroke="black" points="117.66,-298.48 123.09,-289.38 113.17,-293.12 117.66,-298.48"/>
</g>
<!-- Roles::assert_diem_root -->
<g id="node6" class="node">
<title>Roles::assert_diem_root</title>
<ellipse fill="none" stroke="black" cx="1219" cy="-272" rx="71.49" ry="18"/>
<text text-anchor="middle" x="1219" y="-268.3" font-family="Times,serif" font-size="14.00">assert_diem_root</text>
</g>
<!-- add_validator&#45;&gt;Roles::assert_diem_root -->
<g id="edge5" class="edge">
<title>add_validator&#45;&gt;Roles::assert_diem_root</title>
<path fill="none" stroke="black" d="M1295.25,-630.69C1289.71,-603.59 1280,-549.46 1280,-503 1280,-503 1280,-503 1280,-426 1280,-378.52 1254.34,-328.27 1236.31,-298.82"/>
<polygon fill="black" stroke="black" points="1239.05,-296.61 1230.76,-290.01 1233.13,-300.34 1239.05,-296.61"/>
</g>
<!-- Vector::push_back -->
<g id="node7" class="node">
<title>Vector::push_back</title>
<ellipse fill="none" stroke="black" cx="1973" cy="-189" rx="48.19" ry="18"/>
<text text-anchor="middle" x="1973" y="-185.3" font-family="Times,serif" font-size="14.00">push_back</text>
</g>
<!-- add_validator&#45;&gt;Vector::push_back -->
<g id="edge6" class="edge">
<title>add_validator&#45;&gt;Vector::push_back</title>
<path fill="none" stroke="black" d="M1356.1,-644.03C1543.07,-630.28 2125,-581.21 2125,-503 2125,-503 2125,-503 2125,-354 2125,-286.45 2054.77,-234.96 2009.79,-208.9"/>
<polygon fill="black" stroke="black" points="2011.31,-205.74 2000.88,-203.88 2007.87,-211.84 2011.31,-205.74"/>
</g>
<!-- ValidatorConfig::get_config -->
<g id="node8" class="node">
<title>ValidatorConfig::get_config</title>
<ellipse fill="none" stroke="black" cx="1526" cy="-502" rx="48.19" ry="18"/>
<text text-anchor="middle" x="1526" y="-498.3" font-family="Times,serif" font-size="14.00">get_config</text>
</g>
<!-- add_validator&#45;&gt;ValidatorConfig::get_config -->
<g id="edge7" class="edge">
<title>add_validator&#45;&gt;ValidatorConfig::get_config</title>
<path fill="none" stroke="black" d="M1332.39,-633.96C1354.47,-624.15 1383.71,-610.14 1408,-595 1441.72,-573.98 1477.27,-545.23 1500.43,-525.5"/>
<polygon fill="black" stroke="black" points="1502.78,-528.09 1508.08,-518.92 1498.22,-522.79 1502.78,-528.09"/>
</g>
<!-- ValidatorConfig::is_valid -->
<g id="node9" class="node">
<title>ValidatorConfig::is_valid</title>
<ellipse fill="none" stroke="black" cx="1630" cy="-502" rx="38.19" ry="18"/>
<text text-anchor="middle" x="1630" y="-498.3" font-family="Times,serif" font-size="14.00">is_valid</text>
</g>
<!-- add_validator&#45;&gt;ValidatorConfig::is_valid -->
<g id="edge8" class="edge">
<title>add_validator&#45;&gt;ValidatorConfig::is_valid</title>
<path fill="none" stroke="black" d="M1347.47,-638.68C1406.53,-625.75 1507.74,-598.45 1583,-551 1593.27,-544.52 1602.96,-535.37 1610.85,-526.8"/>
<polygon fill="black" stroke="black" points="1613.57,-529 1617.54,-519.18 1608.32,-524.38 1613.57,-529"/>
</g>
<!-- get_diem_system_config -->
<g id="node10" class="node">
<title>get_diem_system_config</title>
<ellipse fill="none" stroke="black" cx="1076" cy="-502" rx="99.38" ry="18"/>
<text text-anchor="middle" x="1076" y="-498.3" font-family="Times,serif" font-size="14.00">get_diem_system_config</text>
</g>
<!-- add_validator&#45;&gt;get_diem_system_config -->
<g id="edge9" class="edge">
<title>add_validator&#45;&gt;get_diem_system_config</title>
<path fill="none" stroke="black" d="M1246.42,-640.73C1193.11,-632.29 1115.61,-616.68 1095,-595 1078.71,-577.87 1074.78,-550.64 1074.43,-530.24"/>
<polygon fill="black" stroke="black" points="1077.93,-530.04 1074.54,-520.01 1070.93,-529.97 1077.93,-530.04"/>
</g>
<!-- is_validator_ -->
<g id="node11" class="node">
<title>is_validator_</title>
<ellipse fill="none" stroke="black" cx="1716" cy="-577" rx="56.59" ry="18"/>
<text text-anchor="middle" x="1716" y="-573.3" font-family="Times,serif" font-size="14.00">is_validator_</text>
</g>
<!-- add_validator&#45;&gt;is_validator_ -->
<g id="edge10" class="edge">
<title>add_validator&#45;&gt;is_validator_</title>
<path fill="none" stroke="black" d="M1349.72,-639.49C1427.33,-626.46 1575.2,-601.64 1657.33,-587.85"/>
<polygon fill="black" stroke="black" points="1657.97,-591.29 1667.25,-586.18 1656.81,-584.39 1657.97,-591.29"/>
</g>
<!-- set_diem_system_config -->
<g id="node12" class="node">
<title>set_diem_system_config</title>
<ellipse fill="none" stroke="black" cx="801" cy="-502" rx="98.58" ry="18"/>
<text text-anchor="middle" x="801" y="-498.3" font-family="Times,serif" font-size="14.00">set_diem_system_config</text>
</g>
<!-- add_validator&#45;&gt;set_diem_system_config -->
<g id="edge11" class="edge">
<title>add_validator&#45;&gt;set_diem_system_config</title>
<path fill="none" stroke="black" d="M1251.48,-638.24C1205.51,-628.48 1134.03,-612.43 1073,-595 995,-572.72 906.26,-541.59 851.95,-521.86"/>
<polygon fill="black" stroke="black" points="853.14,-518.57 842.55,-518.44 850.74,-525.15 853.14,-518.57"/>
</g>
<!-- validator_set_size -->
<g id="node13" class="node">
<title>validator_set_size</title>
<ellipse fill="none" stroke="black" cx="1178" cy="-577" rx="74.19" ry="18"/>
<text text-anchor="middle" x="1178" y="-573.3" font-family="Times,serif" font-size="14.00">validator_set_size</text>
</g>
<!-- add_validator&#45;&gt;validator_set_size -->
<g id="edge12" class="edge">
<title>add_validator&#45;&gt;validator_set_size</title>
<path fill="none" stroke="black" d="M1272.74,-632.81C1255.66,-622.93 1233.15,-609.9 1214.35,-599.03"/>
<polygon fill="black" stroke="black" points="1215.87,-595.87 1205.46,-593.89 1212.37,-601.93 1215.87,-595.87"/>
</g>
<!-- Errors::make -->
<g id="node14" class="node">
<title>Errors::make</title>
<ellipse fill="none" stroke="black" cx="1419" cy="-34" rx="30.59" ry="18"/>
<text text-anchor="middle" x="1419" y="-30.3" font-family="Times,serif" font-size="14.00">make</text>
</g>
<!-- Errors::invalid_argument&#45;&gt;Errors::make -->
<g id="edge13" class="edge">
<title>Errors::invalid_argument&#45;&gt;Errors::make</title>
<path fill="none" stroke="black" d="M1741.16,-91.03C1728.37,-87.09 1714.2,-83.05 1701,-80 1615.69,-60.29 1513.86,-46.36 1458.92,-39.61"/>
<polygon fill="black" stroke="black" points="1459.25,-36.12 1448.9,-38.4 1458.4,-43.07 1459.25,-36.12"/>
</g>
<!-- Errors::limit_exceeded&#45;&gt;Errors::make -->
<g id="edge14" class="edge">
<title>Errors::limit_exceeded&#45;&gt;Errors::make</title>
<path fill="none" stroke="black" d="M1587.45,-91.62C1576.31,-87.86 1564.18,-83.77 1553,-80 1519.7,-68.78 1481.72,-56.03 1454.72,-46.98"/>
<polygon fill="black" stroke="black" points="1455.54,-43.56 1444.94,-43.7 1453.31,-50.2 1455.54,-43.56"/>
</g>
<!-- Errors::invalid_state -->
<g id="node15" class="node">
<title>Errors::invalid_state</title>
<ellipse fill="none" stroke="black" cx="1217" cy="-106" rx="55.79" ry="18"/>
<text text-anchor="middle" x="1217" y="-102.3" font-family="Times,serif" font-size="14.00">invalid_state</text>
</g>
<!-- DiemTimestamp::assert_operating&#45;&gt;Errors::invalid_state -->
<g id="edge15" class="edge">
<title>DiemTimestamp::assert_operating&#45;&gt;Errors::invalid_state</title>
<path fill="none" stroke="black" d="M207.36,-181.68C269.71,-175.66 368.38,-166.95 454,-163 473.4,-162.11 1134.61,-161.25 1153,-155 1168.03,-149.9 1182.39,-139.78 1193.69,-130.15"/>
<polygon fill="black" stroke="black" points="1196.22,-132.58 1201.34,-123.3 1191.55,-127.37 1196.22,-132.58"/>
</g>
<!-- DiemTimestamp::is_operating -->
<g id="node16" class="node">
<title>DiemTimestamp::is_operating</title>
<ellipse fill="none" stroke="black" cx="213" cy="-106" rx="53.89" ry="18"/>
<text text-anchor="middle" x="213" y="-102.3" font-family="Times,serif" font-size="14.00">is_operating</text>
</g>
<!-- DiemTimestamp::assert_operating&#45;&gt;DiemTimestamp::is_operating -->
<g id="edge16" class="edge">
<title>DiemTimestamp::assert_operating&#45;&gt;DiemTimestamp::is_operating</title>
<path fill="none" stroke="black" d="M159.09,-171.22C168.73,-159.74 181.66,-144.33 192.44,-131.49"/>
<polygon fill="black" stroke="black" points="195.41,-133.39 199.16,-123.48 190.05,-128.89 195.41,-133.39"/>
</g>
<!-- DiemTimestamp::now_microseconds&#45;&gt;DiemTimestamp::assert_operating -->
<g id="edge18" class="edge">
<title>DiemTimestamp::now_microseconds&#45;&gt;DiemTimestamp::assert_operating</title>
<path fill="none" stroke="black" d="M145,-253.82C145,-243.19 145,-229.31 145,-217.2"/>
<polygon fill="black" stroke="black" points="148.5,-217.15 145,-207.15 141.5,-217.15 148.5,-217.15"/>
</g>
<!-- CoreAddresses::DIEM_ROOT_ADDRESS -->
<g id="node17" class="node">
<title>CoreAddresses::DIEM_ROOT_ADDRESS</title>
<ellipse fill="none" stroke="black" cx="873" cy="-106" rx="106.68" ry="18"/>
<text text-anchor="middle" x="873" y="-102.3" font-family="Times,serif" font-size="14.00">DIEM_ROOT_ADDRESS</text>
</g>
<!-- DiemTimestamp::now_microseconds&#45;&gt;CoreAddresses::DIEM_ROOT_ADDRESS -->
<g id="edge17" class="edge">
<title>DiemTimestamp::now_microseconds&#45;&gt;CoreAddresses::DIEM_ROOT_ADDRESS</title>
<path fill="none" stroke="black" d="M186.96,-256.6C198.81,-251.6 211.36,-245.37 222,-238 260,-211.71 251.65,-181.49 294,-163 317.42,-152.77 728.95,-160.09 754,-155 781.13,-149.49 809.95,-138.02 832.44,-127.68"/>
<polygon fill="black" stroke="black" points="834.11,-130.76 841.67,-123.33 831.13,-124.43 834.11,-130.76"/>
</g>
<!-- Signer::address_of -->
<g id="node18" class="node">
<title>Signer::address_of</title>
<ellipse fill="none" stroke="black" cx="693" cy="-106" rx="48.99" ry="18"/>
<text text-anchor="middle" x="693" y="-102.3" font-family="Times,serif" font-size="14.00">address_of</text>
</g>
<!-- Roles::assert_diem_root&#45;&gt;Signer::address_of -->
<g id="edge19" class="edge">
<title>Roles::assert_diem_root&#45;&gt;Signer::address_of</title>
<path fill="none" stroke="black" d="M1160.03,-261.82C1121.9,-256.26 1071.13,-249.58 1026,-246 1010.93,-244.81 766.63,-246.31 754,-238 718.76,-214.8 703.5,-165.55 697.17,-134.49"/>
<polygon fill="black" stroke="black" points="700.55,-133.52 695.29,-124.33 693.67,-134.8 700.55,-133.52"/>
</g>
<!-- Errors::not_published -->
<g id="node19" class="node">
<title>Errors::not_published</title>
<ellipse fill="none" stroke="black" cx="1351" cy="-106" rx="60.39" ry="18"/>
<text text-anchor="middle" x="1351" y="-102.3" font-family="Times,serif" font-size="14.00">not_published</text>
</g>
<!-- Roles::assert_diem_root&#45;&gt;Errors::not_published -->
<g id="edge20" class="edge">
<title>Roles::assert_diem_root&#45;&gt;Errors::not_published</title>
<path fill="none" stroke="black" d="M1221.08,-253.61C1224.8,-230.01 1234.72,-187.92 1260,-163 1267.41,-155.7 1272.76,-159.79 1282,-155 1295.97,-147.76 1310.41,-138.1 1322.45,-129.35"/>
<polygon fill="black" stroke="black" points="1324.81,-131.95 1330.75,-123.18 1320.64,-126.34 1324.81,-131.95"/>
</g>
<!-- Errors::requires_role -->
<g id="node20" class="node">
<title>Errors::requires_role</title>
<ellipse fill="none" stroke="black" cx="1487" cy="-106" rx="57.39" ry="18"/>
<text text-anchor="middle" x="1487" y="-102.3" font-family="Times,serif" font-size="14.00">requires_role</text>
</g>
<!-- Roles::assert_diem_root&#45;&gt;Errors::requires_role -->
<g id="edge21" class="edge">
<title>Roles::assert_diem_root&#45;&gt;Errors::requires_role</title>
<path fill="none" stroke="black" d="M1239.54,-254.46C1245.18,-249.47 1251.09,-243.76 1256,-238 1281.67,-207.88 1269.96,-183.18 1304,-163 1326.23,-149.82 1395.69,-163.74 1420,-155 1435.43,-149.45 1450.46,-139.26 1462.37,-129.68"/>
<polygon fill="black" stroke="black" points="1464.66,-132.33 1470.08,-123.22 1460.17,-126.96 1464.66,-132.33"/>
</g>
<!-- CoreAddresses::assert_diem_root -->
<g id="node21" class="node">
<title>CoreAddresses::assert_diem_root</title>
<ellipse fill="none" stroke="black" cx="890" cy="-189" rx="71.49" ry="18"/>
<text text-anchor="middle" x="890" y="-185.3" font-family="Times,serif" font-size="14.00">assert_diem_root</text>
</g>
<!-- Roles::assert_diem_root&#45;&gt;CoreAddresses::assert_diem_root -->
<g id="edge22" class="edge">
<title>Roles::assert_diem_root&#45;&gt;CoreAddresses::assert_diem_root</title>
<path fill="none" stroke="black" d="M1169.75,-258.87C1110.79,-244.36 1012.14,-220.07 949.12,-204.55"/>
<polygon fill="black" stroke="black" points="949.87,-201.14 939.32,-202.14 948.2,-207.93 949.87,-201.14"/>
</g>
<!-- ValidatorConfig::get_config&#45;&gt;Errors::invalid_argument -->
<g id="edge23" class="edge">
<title>ValidatorConfig::get_config&#45;&gt;Errors::invalid_argument</title>
<path fill="none" stroke="black" d="M1499.28,-486.97C1495.31,-483.84 1491.66,-480.19 1489,-476 1460.01,-430.45 1470,-410 1470,-356 1470,-356 1470,-356 1470,-271 1470,-156.12 1600.04,-209.82 1701,-155 1716.61,-146.53 1733.59,-136.69 1748.03,-128.14"/>
<polygon fill="black" stroke="black" points="1749.85,-131.12 1756.66,-123 1746.27,-125.11 1749.85,-131.12"/>
</g>
<!-- ValidatorConfig::get_config&#45;&gt;Errors::not_published -->
<g id="edge24" class="edge">
<title>ValidatorConfig::get_config&#45;&gt;Errors::not_published</title>
<path fill="none" stroke="black" d="M1485.44,-492.23C1475,-488.52 1464.35,-483.3 1456,-476 1410.81,-436.49 1394,-416.03 1394,-356 1394,-356 1394,-356 1394,-271 1394,-221.33 1375.32,-165.89 1362.58,-133.86"/>
<polygon fill="black" stroke="black" points="1365.71,-132.26 1358.69,-124.32 1359.23,-134.9 1365.71,-132.26"/>
</g>
<!-- Option::borrow -->
<g id="node22" class="node">
<title>Option::borrow</title>
<ellipse fill="none" stroke="black" cx="1780" cy="-427" rx="36.29" ry="18"/>
<text text-anchor="middle" x="1780" y="-423.3" font-family="Times,serif" font-size="14.00">borrow</text>
</g>
<!-- ValidatorConfig::get_config&#45;&gt;Option::borrow -->
<g id="edge25" class="edge">
<title>ValidatorConfig::get_config&#45;&gt;Option::borrow</title>
<path fill="none" stroke="black" d="M1560.69,-489.41C1567.99,-487.32 1575.69,-485.38 1583,-484 1625.51,-476 1638.25,-487.33 1680,-476 1704.28,-469.41 1729.82,-457.05 1749.01,-446.52"/>
<polygon fill="black" stroke="black" points="1750.88,-449.48 1757.88,-441.53 1747.45,-443.38 1750.88,-449.48"/>
</g>
<!-- Option::is_some -->
<g id="node23" class="node">
<title>Option::is_some</title>
<ellipse fill="none" stroke="black" cx="1784" cy="-355" rx="40.09" ry="18"/>
<text text-anchor="middle" x="1784" y="-351.3" font-family="Times,serif" font-size="14.00">is_some</text>
</g>
<!-- ValidatorConfig::get_config&#45;&gt;Option::is_some -->
<g id="edge26" class="edge">
<title>ValidatorConfig::get_config&#45;&gt;Option::is_some</title>
<path fill="none" stroke="black" d="M1561.75,-489.85C1568.77,-487.8 1576.09,-485.75 1583,-484 1599.73,-479.75 1607.6,-486.88 1621,-476 1649.27,-453.05 1627.22,-425.68 1654,-401 1676.42,-380.33 1708.82,-369.08 1735.66,-363"/>
<polygon fill="black" stroke="black" points="1736.57,-366.39 1745.64,-360.92 1735.14,-359.54 1736.57,-366.39"/>
</g>
<!-- ValidatorConfig::exists_config -->
<g id="node24" class="node">
<title>ValidatorConfig::exists_config</title>
<ellipse fill="none" stroke="black" cx="1555" cy="-427" rx="57.39" ry="18"/>
<text text-anchor="middle" x="1555" y="-423.3" font-family="Times,serif" font-size="14.00">exists_config</text>
</g>
<!-- ValidatorConfig::get_config&#45;&gt;ValidatorConfig::exists_config -->
<g id="edge27" class="edge">
<title>ValidatorConfig::get_config&#45;&gt;ValidatorConfig::exists_config</title>
<path fill="none" stroke="black" d="M1532.73,-484.07C1536.21,-475.29 1540.56,-464.36 1544.48,-454.49"/>
<polygon fill="black" stroke="black" points="1547.77,-455.68 1548.21,-445.09 1541.27,-453.09 1547.77,-455.68"/>
</g>
<!-- ValidatorConfig::is_valid&#45;&gt;Option::is_some -->
<g id="edge28" class="edge">
<title>ValidatorConfig::is_valid&#45;&gt;Option::is_some</title>
<path fill="none" stroke="black" d="M1645.72,-485.55C1648.59,-482.48 1651.47,-479.21 1654,-476 1678.49,-444.91 1673.09,-428.03 1702,-401 1714.55,-389.27 1730.74,-379.54 1745.41,-372.17"/>
<polygon fill="black" stroke="black" points="1747.28,-375.16 1754.78,-367.67 1744.25,-368.85 1747.28,-375.16"/>
</g>
<!-- DiemConfig::get -->
<g id="node25" class="node">
<title>DiemConfig::get</title>
<ellipse fill="none" stroke="black" cx="987" cy="-427" rx="27" ry="18"/>
<text text-anchor="middle" x="987" y="-423.3" font-family="Times,serif" font-size="14.00">get</text>
</g>
<!-- get_diem_system_config&#45;&gt;DiemConfig::get -->
<g id="edge29" class="edge">
<title>get_diem_system_config&#45;&gt;DiemConfig::get</title>
<path fill="none" stroke="black" d="M1055.36,-484.07C1042.26,-473.33 1025.25,-459.37 1011.47,-448.07"/>
<polygon fill="black" stroke="black" points="1013.33,-445.07 1003.38,-441.43 1008.89,-450.48 1013.33,-445.07"/>
</g>
<!-- is_validator_&#45;&gt;Option::is_some -->
<g id="edge30" class="edge">
<title>is_validator_&#45;&gt;Option::is_some</title>
<path fill="none" stroke="black" d="M1714.05,-558.98C1711.1,-526.37 1708.39,-453.64 1735,-401 1739.55,-391.99 1746.71,-383.89 1754.16,-377.13"/>
<polygon fill="black" stroke="black" points="1756.84,-379.44 1762.25,-370.33 1752.34,-374.08 1756.84,-379.44"/>
</g>
<!-- get_validator_index_ -->
<g id="node26" class="node">
<title>get_validator_index_</title>
<ellipse fill="none" stroke="black" cx="1940" cy="-502" rx="85.29" ry="18"/>
<text text-anchor="middle" x="1940" y="-498.3" font-family="Times,serif" font-size="14.00">get_validator_index_</text>
</g>
<!-- is_validator_&#45;&gt;get_validator_index_ -->
<g id="edge31" class="edge">
<title>is_validator_&#45;&gt;get_validator_index_</title>
<path fill="none" stroke="black" d="M1754,-563.62C1790.28,-551.79 1845.32,-533.85 1886.13,-520.56"/>
<polygon fill="black" stroke="black" points="1887.23,-523.88 1895.65,-517.45 1885.06,-517.22 1887.23,-523.88"/>
</g>
<!-- set_diem_system_config&#45;&gt;DiemTimestamp::assert_operating -->
<g id="edge34" class="edge">
<title>set_diem_system_config&#45;&gt;DiemTimestamp::assert_operating</title>
<path fill="none" stroke="black" d="M702.26,-500.45C589.94,-498.95 413.85,-493.74 350,-476 208.05,-436.57 133.01,-447.2 57,-321 39.8,-292.45 40.96,-275.22 57,-246 65.89,-229.81 81.66,-217.63 97.42,-208.84"/>
<polygon fill="black" stroke="black" points="99.39,-211.76 106.65,-204.05 96.16,-205.55 99.39,-211.76"/>
</g>
<!-- set_diem_system_config&#45;&gt;CoreAddresses::DIEM_ROOT_ADDRESS -->
<g id="edge33" class="edge">
<title>set_diem_system_config&#45;&gt;CoreAddresses::DIEM_ROOT_ADDRESS</title>
<path fill="none" stroke="black" d="M703.32,-499.2C610.13,-491.7 473.92,-464.48 404,-373 347.3,-298.81 332.32,-229.37 398,-163 411.92,-148.94 734.62,-158.99 754,-155 781.11,-149.42 809.94,-137.95 832.43,-127.62"/>
<polygon fill="black" stroke="black" points="834.09,-130.71 841.66,-123.29 831.12,-124.37 834.09,-130.71"/>
</g>
<!-- set_diem_system_config&#45;&gt;Errors::not_published -->
<g id="edge32" class="edge">
<title>set_diem_system_config&#45;&gt;Errors::not_published</title>
<path fill="none" stroke="black" d="M885.02,-492.42C947.61,-485.9 1022.81,-477.78 1026,-476 1085.18,-443.02 1120,-423.75 1120,-356 1120,-356 1120,-356 1120,-271 1120,-232.93 1143.95,-200.1 1220,-163 1244.97,-150.82 1256.08,-165 1282,-155 1297.38,-149.07 1312.62,-139.03 1324.84,-129.66"/>
<polygon fill="black" stroke="black" points="1327.15,-132.3 1332.8,-123.34 1322.79,-126.82 1327.15,-132.3"/>
</g>
<!-- DiemConfig::set_with_capability_and_reconfigure -->
<g id="node27" class="node">
<title>DiemConfig::set_with_capability_and_reconfigure</title>
<ellipse fill="none" stroke="black" cx="801" cy="-427" rx="141.07" ry="18"/>
<text text-anchor="middle" x="801" y="-423.3" font-family="Times,serif" font-size="14.00">set_with_capability_and_reconfigure</text>
</g>
<!-- set_diem_system_config&#45;&gt;DiemConfig::set_with_capability_and_reconfigure -->
<g id="edge35" class="edge">
<title>set_diem_system_config&#45;&gt;DiemConfig::set_with_capability_and_reconfigure</title>
<path fill="none" stroke="black" d="M801,-483.7C801,-475.25 801,-464.87 801,-455.37"/>
<polygon fill="black" stroke="black" points="804.5,-455.18 801,-445.18 797.5,-455.18 804.5,-455.18"/>
</g>
<!-- validator_set_size&#45;&gt;get_diem_system_config -->
<g id="edge37" class="edge">
<title>validator_set_size&#45;&gt;get_diem_system_config</title>
<path fill="none" stroke="black" d="M1155.36,-559.8C1141.3,-549.73 1123.02,-536.65 1107.54,-525.57"/>
<polygon fill="black" stroke="black" points="1109.45,-522.64 1099.28,-519.66 1105.38,-528.33 1109.45,-522.64"/>
</g>
<!-- Vector::length -->
<g id="node28" class="node">
<title>Vector::length</title>
<ellipse fill="none" stroke="black" cx="1784" cy="-189" rx="32.49" ry="18"/>
<text text-anchor="middle" x="1784" y="-185.3" font-family="Times,serif" font-size="14.00">length</text>
</g>
<!-- validator_set_size&#45;&gt;Vector::length -->
<g id="edge36" class="edge">
<title>validator_set_size&#45;&gt;Vector::length</title>
<path fill="none" stroke="black" d="M1203.27,-559.91C1300.57,-497.93 1650.79,-274.85 1754.72,-208.65"/>
<polygon fill="black" stroke="black" points="1756.89,-211.42 1763.45,-203.09 1753.13,-205.51 1756.89,-211.42"/>
</g>
<!-- Errors::invalid_state&#45;&gt;Errors::make -->
<g id="edge38" class="edge">
<title>Errors::invalid_state&#45;&gt;Errors::make</title>
<path fill="none" stroke="black" d="M1250.95,-91.57C1260.92,-87.73 1271.86,-83.61 1282,-80 1316.03,-67.88 1355.21,-55.13 1382.94,-46.3"/>
<polygon fill="black" stroke="black" points="1384.13,-49.6 1392.6,-43.24 1382.01,-42.93 1384.13,-49.6"/>
</g>
<!-- DiemTimestamp::is_operating&#45;&gt;CoreAddresses::DIEM_ROOT_ADDRESS -->
<g id="edge39" class="edge">
<title>DiemTimestamp::is_operating&#45;&gt;CoreAddresses::DIEM_ROOT_ADDRESS</title>
<path fill="none" stroke="black" d="M260.76,-114.57C334.38,-127.3 480.12,-150.6 605,-159 636.04,-161.09 714.49,-165.07 745,-159 775.44,-152.95 807.7,-139.53 832.23,-127.72"/>
<polygon fill="black" stroke="black" points="833.8,-130.84 841.23,-123.28 830.71,-124.56 833.8,-130.84"/>
</g>
<!-- Signer::borrow_address -->
<g id="node29" class="node">
<title>Signer::borrow_address</title>
<ellipse fill="none" stroke="black" cx="675" cy="-34" rx="66.89" ry="18"/>
<text text-anchor="middle" x="675" y="-30.3" font-family="Times,serif" font-size="14.00">borrow_address</text>
</g>
<!-- Signer::address_of&#45;&gt;Signer::borrow_address -->
<g id="edge40" class="edge">
<title>Signer::address_of&#45;&gt;Signer::borrow_address</title>
<path fill="none" stroke="black" d="M688.64,-88.05C686.64,-80.26 684.21,-70.82 681.96,-62.08"/>
<polygon fill="black" stroke="black" points="685.32,-61.09 679.44,-52.28 678.54,-62.83 685.32,-61.09"/>
</g>
<!-- Errors::not_published&#45;&gt;Errors::make -->
<g id="edge41" class="edge">
<title>Errors::not_published&#45;&gt;Errors::make</title>
<path fill="none" stroke="black" d="M1367.12,-88.41C1376.13,-79.13 1387.49,-67.44 1397.28,-57.36"/>
<polygon fill="black" stroke="black" points="1399.93,-59.65 1404.39,-50.04 1394.91,-54.77 1399.93,-59.65"/>
</g>
<!-- Errors::requires_role&#45;&gt;Errors::make -->
<g id="edge42" class="edge">
<title>Errors::requires_role&#45;&gt;Errors::make</title>
<path fill="none" stroke="black" d="M1470.88,-88.41C1461.87,-79.13 1450.51,-67.44 1440.72,-57.36"/>
<polygon fill="black" stroke="black" points="1443.09,-54.77 1433.61,-50.04 1438.07,-59.65 1443.09,-54.77"/>
</g>
<!-- CoreAddresses::assert_diem_root&#45;&gt;CoreAddresses::DIEM_ROOT_ADDRESS -->
<g id="edge45" class="edge">
<title>CoreAddresses::assert_diem_root&#45;&gt;CoreAddresses::DIEM_ROOT_ADDRESS</title>
<path fill="none" stroke="black" d="M886.39,-170.82C884.16,-160.19 881.25,-146.31 878.71,-134.2"/>
<polygon fill="black" stroke="black" points="882.08,-133.22 876.6,-124.15 875.23,-134.66 882.08,-133.22"/>
</g>
<!-- CoreAddresses::assert_diem_root&#45;&gt;Signer::address_of -->
<g id="edge43" class="edge">
<title>CoreAddresses::assert_diem_root&#45;&gt;Signer::address_of</title>
<path fill="none" stroke="black" d="M829.86,-179.16C805.49,-174.13 777.6,-166.47 754,-155 740.67,-148.52 727.54,-138.75 716.89,-129.71"/>
<polygon fill="black" stroke="black" points="719.09,-126.99 709.27,-123.01 714.47,-132.25 719.09,-126.99"/>
</g>
<!-- Errors::requires_address -->
<g id="node30" class="node">
<title>Errors::requires_address</title>
<ellipse fill="none" stroke="black" cx="1074" cy="-106" rx="69.59" ry="18"/>
<text text-anchor="middle" x="1074" y="-102.3" font-family="Times,serif" font-size="14.00">requires_address</text>
</g>
<!-- CoreAddresses::assert_diem_root&#45;&gt;Errors::requires_address -->
<g id="edge44" class="edge">
<title>CoreAddresses::assert_diem_root&#45;&gt;Errors::requires_address</title>
<path fill="none" stroke="black" d="M936.49,-175.28C954.19,-169.85 974.34,-162.91 992,-155 1008.83,-147.46 1026.6,-137.35 1041.28,-128.35"/>
<polygon fill="black" stroke="black" points="1043.34,-131.19 1049.98,-122.93 1039.64,-125.25 1043.34,-131.19"/>
</g>
<!-- Option::borrow&#45;&gt;Errors::invalid_argument -->
<g id="edge46" class="edge">
<title>Option::borrow&#45;&gt;Errors::invalid_argument</title>
<path fill="none" stroke="black" d="M1800.63,-411.91C1812.54,-402.46 1826.43,-388.87 1833,-373 1840.48,-354.93 1846.29,-343.34 1833,-329 1817.09,-311.84 1743.91,-338.16 1728,-321 1680.27,-269.49 1701.42,-228 1728,-163 1733.17,-150.36 1742.72,-139.04 1752.43,-129.93"/>
<polygon fill="black" stroke="black" points="1754.97,-132.36 1760.17,-123.13 1750.35,-127.1 1754.97,-132.36"/>
</g>
<!-- Option::borrow&#45;&gt;Option::is_some -->
<g id="edge48" class="edge">
<title>Option::borrow&#45;&gt;Option::is_some</title>
<path fill="none" stroke="black" d="M1780.99,-408.7C1781.43,-400.98 1781.96,-391.71 1782.45,-383.11"/>
<polygon fill="black" stroke="black" points="1785.95,-383.29 1783.02,-373.1 1778.96,-382.89 1785.95,-383.29"/>
</g>
<!-- Vector::borrow -->
<g id="node31" class="node">
<title>Vector::borrow</title>
<ellipse fill="none" stroke="black" cx="1985" cy="-272" rx="36.29" ry="18"/>
<text text-anchor="middle" x="1985" y="-268.3" font-family="Times,serif" font-size="14.00">borrow</text>
</g>
<!-- Option::borrow&#45;&gt;Vector::borrow -->
<g id="edge47" class="edge">
<title>Option::borrow&#45;&gt;Vector::borrow</title>
<path fill="none" stroke="black" d="M1803.62,-413.19C1836.11,-394.99 1895.6,-359.56 1940,-321 1948.63,-313.51 1957.38,-304.54 1964.85,-296.4"/>
<polygon fill="black" stroke="black" points="1967.49,-298.7 1971.57,-288.92 1962.28,-294.02 1967.49,-298.7"/>
</g>
<!-- Vector::is_empty -->
<g id="node32" class="node">
<title>Vector::is_empty</title>
<ellipse fill="none" stroke="black" cx="1784" cy="-272" rx="43.59" ry="18"/>
<text text-anchor="middle" x="1784" y="-268.3" font-family="Times,serif" font-size="14.00">is_empty</text>
</g>
<!-- Option::is_some&#45;&gt;Vector::is_empty -->
<g id="edge49" class="edge">
<title>Option::is_some&#45;&gt;Vector::is_empty</title>
<path fill="none" stroke="black" d="M1784,-336.82C1784,-326.19 1784,-312.31 1784,-300.2"/>
<polygon fill="black" stroke="black" points="1787.5,-300.15 1784,-290.15 1780.5,-300.15 1787.5,-300.15"/>
</g>
<!-- DiemConfig::get&#45;&gt;CoreAddresses::DIEM_ROOT_ADDRESS -->
<g id="edge51" class="edge">
<title>DiemConfig::get&#45;&gt;CoreAddresses::DIEM_ROOT_ADDRESS</title>
<path fill="none" stroke="black" d="M971.15,-412.37C965.2,-407.99 958.15,-403.61 951,-401 845.92,-362.64 522.27,-409.62 454,-321 432.57,-293.18 429.51,-188.16 454,-163 465.63,-151.05 737.68,-158.39 754,-155 781.1,-149.36 809.93,-137.89 832.42,-127.58"/>
<polygon fill="black" stroke="black" points="834.08,-130.66 841.65,-123.25 831.11,-124.33 834.08,-130.66"/>
</g>
<!-- DiemConfig::get&#45;&gt;Errors::not_published -->
<g id="edge50" class="edge">
<title>DiemConfig::get&#45;&gt;Errors::not_published</title>
<path fill="none" stroke="black" d="M1008.27,-415.48C1024.38,-406.41 1045.75,-391.82 1058,-373 1110.24,-292.77 1032.51,-224.37 1106,-163 1121.03,-150.45 1263.46,-161.28 1282,-155 1297.83,-149.64 1313.31,-139.46 1325.59,-129.85"/>
<polygon fill="black" stroke="black" points="1328.01,-132.4 1333.54,-123.36 1323.58,-126.98 1328.01,-132.4"/>
</g>
<!-- get_validator_index_&#45;&gt;Vector::length -->
<g id="edge53" class="edge">
<title>get_validator_index_&#45;&gt;Vector::length</title>
<path fill="none" stroke="black" d="M1990.63,-487.3C1995.69,-484.25 2000.31,-480.54 2004,-476 2068.87,-396.16 2101.26,-320.2 2030,-246 2014.75,-230.12 1852.17,-246.83 1832,-238 1820.14,-232.81 1809.63,-223.23 1801.48,-214"/>
<polygon fill="black" stroke="black" points="1804.02,-211.57 1794.96,-206.08 1798.62,-216.03 1804.02,-211.57"/>
</g>
<!-- get_validator_index_&#45;&gt;Vector::borrow -->
<g id="edge52" class="edge">
<title>get_validator_index_&#45;&gt;Vector::borrow</title>
<path fill="none" stroke="black" d="M1972.45,-485.07C1975.43,-482.43 1978.05,-479.41 1980,-476 2011.9,-420.08 2000.83,-340.65 1991.87,-299.7"/>
<polygon fill="black" stroke="black" points="1995.27,-298.88 1989.6,-289.92 1988.45,-300.46 1995.27,-298.88"/>
</g>
<!-- Option::none -->
<g id="node33" class="node">
<title>Option::none</title>
<ellipse fill="none" stroke="black" cx="1940" cy="-427" rx="27.9" ry="18"/>
<text text-anchor="middle" x="1940" y="-423.3" font-family="Times,serif" font-size="14.00">none</text>
</g>
<!-- get_validator_index_&#45;&gt;Option::none -->
<g id="edge54" class="edge">
<title>get_validator_index_&#45;&gt;Option::none</title>
<path fill="none" stroke="black" d="M1940,-483.7C1940,-475.25 1940,-464.87 1940,-455.37"/>
<polygon fill="black" stroke="black" points="1943.5,-455.18 1940,-445.18 1936.5,-455.18 1943.5,-455.18"/>
</g>
<!-- Option::some -->
<g id="node34" class="node">
<title>Option::some</title>
<ellipse fill="none" stroke="black" cx="1864" cy="-427" rx="29.8" ry="18"/>
<text text-anchor="middle" x="1864" y="-423.3" font-family="Times,serif" font-size="14.00">some</text>
</g>
<!-- get_validator_index_&#45;&gt;Option::some -->
<g id="edge55" class="edge">
<title>get_validator_index_&#45;&gt;Option::some</title>
<path fill="none" stroke="black" d="M1913.79,-484.72C1910.03,-481.98 1906.32,-479.04 1903,-476 1895.24,-468.9 1887.71,-460.2 1881.37,-452.17"/>
<polygon fill="black" stroke="black" points="1884.08,-449.96 1875.23,-444.14 1878.52,-454.21 1884.08,-449.96"/>
</g>
<!-- DiemConfig::set_with_capability_and_reconfigure&#45;&gt;CoreAddresses::DIEM_ROOT_ADDRESS -->
<g id="edge57" class="edge">
<title>DiemConfig::set_with_capability_and_reconfigure&#45;&gt;CoreAddresses::DIEM_ROOT_ADDRESS</title>
<path fill="none" stroke="black" d="M661.02,-424.6C567.7,-420.36 456.71,-407.83 426,-373 395.14,-337.99 391.4,-196.4 424,-163 436.81,-149.88 736.04,-158.71 754,-155 781.11,-149.4 809.93,-137.93 832.42,-127.6"/>
<polygon fill="black" stroke="black" points="834.09,-130.69 841.65,-123.27 831.11,-124.35 834.09,-130.69"/>
</g>
<!-- DiemConfig::set_with_capability_and_reconfigure&#45;&gt;Errors::not_published -->
<g id="edge56" class="edge">
<title>DiemConfig::set_with_capability_and_reconfigure&#45;&gt;Errors::not_published</title>
<path fill="none" stroke="black" d="M829.2,-409.28C860.7,-389.96 912.45,-356.29 952,-321 988.66,-288.29 996.42,-277.96 1025,-238 1047.36,-206.75 1035.12,-182.88 1068,-163 1088.36,-150.69 1259.43,-162.54 1282,-155 1297.86,-149.7 1313.34,-139.53 1325.61,-129.91"/>
<polygon fill="black" stroke="black" points="1328.03,-132.45 1333.55,-123.41 1323.6,-127.03 1328.03,-132.45"/>
</g>
<!-- DiemConfig::reconfigure_ -->
<g id="node35" class="node">
<title>DiemConfig::reconfigure_</title>
<ellipse fill="none" stroke="black" cx="715" cy="-355" rx="55.49" ry="18"/>
<text text-anchor="middle" x="715" y="-351.3" font-family="Times,serif" font-size="14.00">reconfigure_</text>
</g>
<!-- DiemConfig::set_with_capability_and_reconfigure&#45;&gt;DiemConfig::reconfigure_ -->
<g id="edge58" class="edge">
<title>DiemConfig::set_with_capability_and_reconfigure&#45;&gt;DiemConfig::reconfigure_</title>
<path fill="none" stroke="black" d="M780.18,-409.05C768.95,-399.92 754.95,-388.51 742.8,-378.63"/>
<polygon fill="black" stroke="black" points="744.71,-375.67 734.74,-372.07 740.29,-381.09 744.71,-375.67"/>
</g>
<!-- Errors::requires_address&#45;&gt;Errors::make -->
<g id="edge59" class="edge">
<title>Errors::requires_address&#45;&gt;Errors::make</title>
<path fill="none" stroke="black" d="M1113.77,-91.04C1125.94,-87.1 1139.43,-83.06 1152,-80 1231.48,-60.67 1326.28,-46.83 1378.84,-39.94"/>
<polygon fill="black" stroke="black" points="1379.62,-43.37 1389.08,-38.62 1378.72,-36.43 1379.62,-43.37"/>
</g>
<!-- Vector::is_empty&#45;&gt;Vector::length -->
<g id="edge60" class="edge">
<title>Vector::is_empty&#45;&gt;Vector::length</title>
<path fill="none" stroke="black" d="M1784,-253.82C1784,-243.19 1784,-229.31 1784,-217.2"/>
<polygon fill="black" stroke="black" points="1787.5,-217.15 1784,-207.15 1780.5,-217.15 1787.5,-217.15"/>
</g>
<!-- Vector::empty -->
<g id="node36" class="node">
<title>Vector::empty</title>
<ellipse fill="none" stroke="black" cx="1874" cy="-189" rx="33.29" ry="18"/>
<text text-anchor="middle" x="1874" y="-185.3" font-family="Times,serif" font-size="14.00">empty</text>
</g>
<!-- Option::none&#45;&gt;Vector::empty -->
<g id="edge61" class="edge">
<title>Option::none&#45;&gt;Vector::empty</title>
<path fill="none" stroke="black" d="M1956.75,-412.24C1994.27,-379.85 2078.13,-297.62 2030,-246 2012.68,-227.42 1938.74,-249.3 1916,-238 1905.48,-232.77 1896.46,-223.64 1889.52,-214.72"/>
<polygon fill="black" stroke="black" points="1892.19,-212.45 1883.5,-206.39 1886.51,-216.55 1892.19,-212.45"/>
</g>
<!-- Vector::singleton -->
<g id="node37" class="node">
<title>Vector::singleton</title>
<ellipse fill="none" stroke="black" cx="1888" cy="-272" rx="42.79" ry="18"/>
<text text-anchor="middle" x="1888" y="-268.3" font-family="Times,serif" font-size="14.00">singleton</text>
</g>
<!-- Option::some&#45;&gt;Vector::singleton -->
<g id="edge62" class="edge">
<title>Option::some&#45;&gt;Vector::singleton</title>
<path fill="none" stroke="black" d="M1866.66,-409.04C1870.79,-382.73 1878.77,-331.84 1883.72,-300.31"/>
<polygon fill="black" stroke="black" points="1887.24,-300.46 1885.33,-290.03 1880.32,-299.37 1887.24,-300.46"/>
</g>
<!-- DiemConfig::reconfigure_&#45;&gt;DiemTimestamp::now_microseconds -->
<g id="edge66" class="edge">
<title>DiemConfig::reconfigure_&#45;&gt;DiemTimestamp::now_microseconds</title>
<path fill="none" stroke="black" d="M659.73,-353.18C550.69,-351.08 311.61,-343.93 233,-321 213.27,-315.24 193.01,-304.58 176.91,-294.76"/>
<polygon fill="black" stroke="black" points="178.75,-291.79 168.42,-289.43 175.03,-297.72 178.75,-291.79"/>
</g>
<!-- DiemConfig::reconfigure_&#45;&gt;Errors::invalid_state -->
<g id="edge63" class="edge">
<title>DiemConfig::reconfigure_&#45;&gt;Errors::invalid_state</title>
<path fill="none" stroke="black" d="M769.38,-351.14C805.81,-347.52 854.05,-339.36 893,-321 944.94,-296.52 956.3,-282.97 992,-238 1015.23,-208.73 998.81,-183.58 1030,-163 1052.86,-147.91 1127.31,-164.5 1153,-155 1167.68,-149.57 1181.83,-139.63 1193.08,-130.19"/>
<polygon fill="black" stroke="black" points="1195.51,-132.71 1200.72,-123.48 1190.9,-127.45 1195.51,-132.71"/>
</g>
<!-- DiemConfig::reconfigure_&#45;&gt;CoreAddresses::DIEM_ROOT_ADDRESS -->
<g id="edge64" class="edge">
<title>DiemConfig::reconfigure_&#45;&gt;CoreAddresses::DIEM_ROOT_ADDRESS</title>
<path fill="none" stroke="black" d="M694.82,-338.09C690.03,-333.17 685.58,-327.36 683,-321 670.48,-290.11 668.69,-276.1 683,-246 710.67,-187.81 776.31,-148.58 822.66,-127.02"/>
<polygon fill="black" stroke="black" points="824.28,-130.13 831.95,-122.82 821.39,-123.75 824.28,-130.13"/>
</g>
<!-- DiemTimestamp::is_genesis -->
<g id="node38" class="node">
<title>DiemTimestamp::is_genesis</title>
<ellipse fill="none" stroke="black" cx="289" cy="-272" rx="46.59" ry="18"/>
<text text-anchor="middle" x="289" y="-268.3" font-family="Times,serif" font-size="14.00">is_genesis</text>
</g>
<!-- DiemConfig::reconfigure_&#45;&gt;DiemTimestamp::is_genesis -->
<g id="edge65" class="edge">
<title>DiemConfig::reconfigure_&#45;&gt;DiemTimestamp::is_genesis</title>
<path fill="none" stroke="black" d="M662.11,-349.77C609.09,-344.96 525.33,-335.79 454,-321 412.17,-312.33 365.52,-298.34 332.52,-287.7"/>
<polygon fill="black" stroke="black" points="333.33,-284.28 322.74,-284.51 331.16,-290.94 333.33,-284.28"/>
</g>
<!-- Event::emit_event -->
<g id="node39" class="node">
<title>Event::emit_event</title>
<ellipse fill="none" stroke="black" cx="568" cy="-272" rx="50.09" ry="18"/>
<text text-anchor="middle" x="568" y="-268.3" font-family="Times,serif" font-size="14.00">emit_event</text>
</g>
<!-- DiemConfig::reconfigure_&#45;&gt;Event::emit_event -->
<g id="edge67" class="edge">
<title>DiemConfig::reconfigure_&#45;&gt;Event::emit_event</title>
<path fill="none" stroke="black" d="M684.71,-339.74C673.12,-334.11 659.84,-327.45 648,-321 632.1,-312.33 614.83,-302.08 600.42,-293.28"/>
<polygon fill="black" stroke="black" points="602.21,-290.27 591.85,-288.02 598.54,-296.24 602.21,-290.27"/>
</g>
<!-- DiemConfig::reconfiguration_enabled -->
<g id="node40" class="node">
<title>DiemConfig::reconfiguration_enabled</title>
<ellipse fill="none" stroke="black" cx="788" cy="-272" rx="96.38" ry="18"/>
<text text-anchor="middle" x="788" y="-268.3" font-family="Times,serif" font-size="14.00">reconfiguration_enabled</text>
</g>
<!-- DiemConfig::reconfigure_&#45;&gt;DiemConfig::reconfiguration_enabled -->
<g id="edge68" class="edge">
<title>DiemConfig::reconfigure_&#45;&gt;DiemConfig::reconfiguration_enabled</title>
<path fill="none" stroke="black" d="M729.77,-337.61C740.12,-326.12 754.14,-310.57 765.82,-297.61"/>
<polygon fill="black" stroke="black" points="768.65,-299.7 772.75,-289.92 763.45,-295.01 768.65,-299.7"/>
</g>
<!-- Vector::singleton&#45;&gt;Vector::push_back -->
<g id="edge70" class="edge">
<title>Vector::singleton&#45;&gt;Vector::push_back</title>
<path fill="none" stroke="black" d="M1904.79,-255C1917.37,-243.02 1934.75,-226.45 1948.82,-213.04"/>
<polygon fill="black" stroke="black" points="1951.42,-215.4 1956.24,-205.97 1946.59,-210.33 1951.42,-215.4"/>
</g>
<!-- Vector::singleton&#45;&gt;Vector::empty -->
<g id="edge69" class="edge">
<title>Vector::singleton&#45;&gt;Vector::empty</title>
<path fill="none" stroke="black" d="M1885.03,-253.82C1883.19,-243.19 1880.79,-229.31 1878.7,-217.2"/>
<polygon fill="black" stroke="black" points="1882.12,-216.41 1876.96,-207.15 1875.22,-217.6 1882.12,-216.41"/>
</g>
<!-- DiemTimestamp::is_genesis&#45;&gt;CoreAddresses::DIEM_ROOT_ADDRESS -->
<g id="edge71" class="edge">
<title>DiemTimestamp::is_genesis&#45;&gt;CoreAddresses::DIEM_ROOT_ADDRESS</title>
<path fill="none" stroke="black" d="M292.71,-253.79C299.13,-228.74 314.94,-183.06 348,-163 367.29,-151.3 731.9,-159.52 754,-155 781.12,-149.46 809.95,-137.99 832.43,-127.65"/>
<polygon fill="black" stroke="black" points="834.1,-130.73 841.66,-123.31 831.12,-124.4 834.1,-130.73"/>
</g>
<!-- Event::write_to_event_store -->
<g id="node41" class="node">
<title>Event::write_to_event_store</title>
<ellipse fill="none" stroke="black" cx="551" cy="-189" rx="85.29" ry="18"/>
<text text-anchor="middle" x="551" y="-185.3" font-family="Times,serif" font-size="14.00">write_to_event_store</text>
</g>
<!-- Event::emit_event&#45;&gt;Event::write_to_event_store -->
<g id="edge72" class="edge">
<title>Event::emit_event&#45;&gt;Event::write_to_event_store</title>
<path fill="none" stroke="black" d="M564.39,-253.82C562.16,-243.19 559.25,-229.31 556.71,-217.2"/>
<polygon fill="black" stroke="black" points="560.08,-216.22 554.6,-207.15 553.23,-217.66 560.08,-216.22"/>
</g>
<!-- DiemConfig::reconfiguration_enabled&#45;&gt;CoreAddresses::DIEM_ROOT_ADDRESS -->
<g id="edge73" class="edge">
<title>DiemConfig::reconfiguration_enabled&#45;&gt;CoreAddresses::DIEM_ROOT_ADDRESS</title>
<path fill="none" stroke="black" d="M788.21,-253.74C789.19,-231.38 793.38,-191.85 810,-163 817.35,-150.24 828.65,-138.87 839.66,-129.75"/>
<polygon fill="black" stroke="black" points="841.87,-132.47 847.56,-123.53 837.54,-126.97 841.87,-132.47"/>
</g>
</g>
</svg>
