<?xml version="1.0" encoding="UTF-8" standalone="no"?>
<!DOCTYPE svg PUBLIC "-//W3C//DTD SVG 1.1//EN"
 "http://www.w3.org/Graphics/SVG/1.1/DTD/svg11.dtd">
<!-- Generated by graphviz version 2.46.1 (20210213.1702)
 -->
<!-- Title: G Pages: 1 -->
<svg width="1588pt" height="520pt"
 viewBox="0.00 0.00 1588.00 520.00" xmlns="http://www.w3.org/2000/svg" xmlns:xlink="http://www.w3.org/1999/xlink">
<g id="graph0" class="graph" transform="scale(1 1) rotate(0) translate(4 516)">
<title>G</title>
<polygon fill="white" stroke="transparent" points="-4,4 -4,-516 1584,-516 1584,4 -4,4"/>
<g id="clust1" class="cluster">
<title>cluster_Errors</title>
<polygon fill="none" stroke="black" points="682,-8 682,-155 1572,-155 1572,-8 682,-8"/>
<text text-anchor="middle" x="1127" y="-139.8" font-family="Times,serif" font-size="14.00">Errors</text>
</g>
<g id="clust2" class="cluster">
<title>cluster_Roles</title>
<polygon fill="none" stroke="black" points="450,-238 450,-313 899,-313 899,-238 450,-238"/>
<text text-anchor="middle" x="674.5" y="-297.8" font-family="Times,serif" font-size="14.00">Roles</text>
</g>
<g id="clust3" class="cluster">
<title>cluster_Signer</title>
<polygon fill="none" stroke="black" points="8,-8 8,-155 158,-155 158,-8 8,-8"/>
<text text-anchor="middle" x="83" y="-139.8" font-family="Times,serif" font-size="14.00">Signer</text>
</g>
<g id="clust4" class="cluster">
<title>cluster_CoreAddresses</title>
<polygon fill="none" stroke="black" points="166,-80 166,-230 674,-230 674,-80 166,-80"/>
<text text-anchor="middle" x="420" y="-214.8" font-family="Times,serif" font-size="14.00">CoreAddresses</text>
</g>
<g id="clust5" class="cluster">
<title>cluster_Vector</title>
<polygon fill="none" stroke="black" points="1047,-321 1047,-396 1129,-396 1129,-321 1047,-321"/>
<text text-anchor="middle" x="1088" y="-380.8" font-family="Times,serif" font-size="14.00">Vector</text>
</g>
<!-- publish_preburn_queue_to_account -->
<g id="node1" class="node">
<title>publish_preburn_queue_to_account</title>
<ellipse fill="none" stroke="black" cx="551" cy="-494" rx="136.48" ry="18"/>
<text text-anchor="middle" x="551" y="-490.3" font-family="Times,serif" font-size="14.00">publish_preburn_queue_to_account</text>
</g>
<!-- Errors::invalid_argument -->
<g id="node2" class="node">
<title>Errors::invalid_argument</title>
<ellipse fill="none" stroke="black" cx="1491" cy="-106" rx="73.39" ry="18"/>
<text text-anchor="middle" x="1491" y="-102.3" font-family="Times,serif" font-size="14.00">invalid_argument</text>
</g>
<!-- publish_preburn_queue_to_account&#45;&gt;Errors::invalid_argument -->
<g id="edge1" class="edge">
<title>publish_preburn_queue_to_account&#45;&gt;Errors::invalid_argument</title>
<path fill="none" stroke="black" d="M669.71,-485.06C905,-467.71 1408,-421.99 1408,-348 1408,-348 1408,-348 1408,-263 1408,-211.4 1443.82,-160.27 1468.4,-131.26"/>
<polygon fill="black" stroke="black" points="1471.07,-133.52 1475,-123.68 1465.79,-128.93 1471.07,-133.52"/>
</g>
<!-- Roles::assert_treasury_compliance -->
<g id="node3" class="node">
<title>Roles::assert_treasury_compliance</title>
<ellipse fill="none" stroke="black" cx="567" cy="-264" rx="108.58" ry="18"/>
<text text-anchor="middle" x="567" y="-260.3" font-family="Times,serif" font-size="14.00">assert_treasury_compliance</text>
</g>
<!-- publish_preburn_queue_to_account&#45;&gt;Roles::assert_treasury_compliance -->
<g id="edge2" class="edge">
<title>publish_preburn_queue_to_account&#45;&gt;Roles::assert_treasury_compliance</title>
<path fill="none" stroke="black" d="M545.18,-475.56C542.07,-465.33 538.57,-452.08 537,-440 530.19,-387.55 524.13,-372.3 537,-321 539.62,-310.57 544.59,-299.96 549.75,-290.82"/>
<polygon fill="black" stroke="black" points="552.76,-292.62 554.89,-282.24 546.75,-289.02 552.76,-292.62"/>
</g>
<!-- Roles::assert_designated_dealer -->
<g id="node4" class="node">
<title>Roles::assert_designated_dealer</title>
<ellipse fill="none" stroke="black" cx="792" cy="-264" rx="98.58" ry="18"/>
<text text-anchor="middle" x="792" y="-260.3" font-family="Times,serif" font-size="14.00">assert_designated_dealer</text>
</g>
<!-- publish_preburn_queue_to_account&#45;&gt;Roles::assert_designated_dealer -->
<g id="edge3" class="edge">
<title>publish_preburn_queue_to_account&#45;&gt;Roles::assert_designated_dealer</title>
<path fill="none" stroke="black" d="M569.11,-475.86C611.72,-435.56 718.33,-334.69 767.03,-288.62"/>
<polygon fill="black" stroke="black" points="769.47,-291.13 774.33,-281.72 764.66,-286.05 769.47,-291.13"/>
</g>
<!-- is_synthetic_currency -->
<g id="node5" class="node">
<title>is_synthetic_currency</title>
<ellipse fill="none" stroke="black" cx="314" cy="-264" rx="87.99" ry="18"/>
<text text-anchor="middle" x="314" y="-260.3" font-family="Times,serif" font-size="14.00">is_synthetic_currency</text>
</g>
<!-- publish_preburn_queue_to_account&#45;&gt;is_synthetic_currency -->
<g id="edge4" class="edge">
<title>publish_preburn_queue_to_account&#45;&gt;is_synthetic_currency</title>
<path fill="none" stroke="black" d="M533.19,-475.86C491.38,-435.64 386.88,-335.11 338.85,-288.91"/>
<polygon fill="black" stroke="black" points="341.01,-286.13 331.38,-281.72 336.16,-291.17 341.01,-286.13"/>
</g>
<!-- publish_preburn_queue -->
<g id="node6" class="node">
<title>publish_preburn_queue</title>
<ellipse fill="none" stroke="black" cx="961" cy="-422" rx="93.68" ry="18"/>
<text text-anchor="middle" x="961" y="-418.3" font-family="Times,serif" font-size="14.00">publish_preburn_queue</text>
</g>
<!-- publish_preburn_queue_to_account&#45;&gt;publish_preburn_queue -->
<g id="edge5" class="edge">
<title>publish_preburn_queue_to_account&#45;&gt;publish_preburn_queue</title>
<path fill="none" stroke="black" d="M631.03,-479.34C704.03,-466.87 811.23,-448.57 883.45,-436.24"/>
<polygon fill="black" stroke="black" points="884.13,-439.68 893.4,-434.54 882.95,-432.77 884.13,-439.68"/>
</g>
<!-- Errors::make -->
<g id="node7" class="node">
<title>Errors::make</title>
<ellipse fill="none" stroke="black" cx="1118" cy="-34" rx="30.59" ry="18"/>
<text text-anchor="middle" x="1118" y="-30.3" font-family="Times,serif" font-size="14.00">make</text>
</g>
<!-- Errors::invalid_argument&#45;&gt;Errors::make -->
<g id="edge6" class="edge">
<title>Errors::invalid_argument&#45;&gt;Errors::make</title>
<path fill="none" stroke="black" d="M1449.59,-91.12C1436.69,-87.14 1422.35,-83.05 1409,-80 1320.33,-59.74 1214.34,-45.9 1157.95,-39.35"/>
<polygon fill="black" stroke="black" points="1158.34,-35.87 1148.01,-38.21 1157.55,-42.83 1158.34,-35.87"/>
</g>
<!-- Signer::address_of -->
<g id="node8" class="node">
<title>Signer::address_of</title>
<ellipse fill="none" stroke="black" cx="101" cy="-106" rx="48.99" ry="18"/>
<text text-anchor="middle" x="101" y="-102.3" font-family="Times,serif" font-size="14.00">address_of</text>
</g>
<!-- Roles::assert_treasury_compliance&#45;&gt;Signer::address_of -->
<g id="edge7" class="edge">
<title>Roles::assert_treasury_compliance&#45;&gt;Signer::address_of</title>
<path fill="none" stroke="black" d="M507.9,-248.81C487.75,-244.55 465,-240.39 444,-238 426.77,-236.04 145.54,-240.83 132,-230 103.79,-207.43 99.01,-163.28 99.21,-134.47"/>
<polygon fill="black" stroke="black" points="102.71,-134.36 99.49,-124.26 95.71,-134.16 102.71,-134.36"/>
</g>
<!-- Errors::not_published -->
<g id="node9" class="node">
<title>Errors::not_published</title>
<ellipse fill="none" stroke="black" cx="1041" cy="-106" rx="60.39" ry="18"/>
<text text-anchor="middle" x="1041" y="-102.3" font-family="Times,serif" font-size="14.00">not_published</text>
</g>
<!-- Roles::assert_treasury_compliance&#45;&gt;Errors::not_published -->
<g id="edge8" class="edge">
<title>Roles::assert_treasury_compliance&#45;&gt;Errors::not_published</title>
<path fill="none" stroke="black" d="M628.17,-249.07C646.11,-245.22 665.8,-241.22 684,-238 709.19,-233.55 716.95,-238.71 741,-230 794.11,-210.77 795.21,-180.25 849,-163 900.74,-146.4 919.65,-172.78 971,-155 986.95,-149.48 1002.65,-139.28 1015.12,-129.71"/>
<polygon fill="black" stroke="black" points="1017.58,-132.22 1023.2,-123.24 1013.2,-126.76 1017.58,-132.22"/>
</g>
<!-- Errors::requires_role -->
<g id="node10" class="node">
<title>Errors::requires_role</title>
<ellipse fill="none" stroke="black" cx="905" cy="-106" rx="57.39" ry="18"/>
<text text-anchor="middle" x="905" y="-102.3" font-family="Times,serif" font-size="14.00">requires_role</text>
</g>
<!-- Roles::assert_treasury_compliance&#45;&gt;Errors::requires_role -->
<g id="edge9" class="edge">
<title>Roles::assert_treasury_compliance&#45;&gt;Errors::requires_role</title>
<path fill="none" stroke="black" d="M626.72,-248.88C643.69,-243.9 661.92,-237.61 678,-230 726.02,-207.28 727.31,-181.8 777,-163 802.99,-153.17 813.18,-165.27 839,-155 853.73,-149.14 868.18,-139.24 879.79,-129.95"/>
<polygon fill="black" stroke="black" points="882.27,-132.44 887.71,-123.35 877.79,-127.06 882.27,-132.44"/>
</g>
<!-- CoreAddresses::assert_treasury_compliance -->
<g id="node11" class="node">
<title>CoreAddresses::assert_treasury_compliance</title>
<ellipse fill="none" stroke="black" cx="283" cy="-181" rx="108.58" ry="18"/>
<text text-anchor="middle" x="283" y="-177.3" font-family="Times,serif" font-size="14.00">assert_treasury_compliance</text>
</g>
<!-- Roles::assert_treasury_compliance&#45;&gt;CoreAddresses::assert_treasury_compliance -->
<g id="edge10" class="edge">
<title>Roles::assert_treasury_compliance&#45;&gt;CoreAddresses::assert_treasury_compliance</title>
<path fill="none" stroke="black" d="M501.93,-249.56C483.24,-245.76 462.82,-241.66 444,-238 424.92,-234.29 419.65,-235.47 401,-230 375.86,-222.63 348.71,-211.8 326.81,-202.29"/>
<polygon fill="black" stroke="black" points="328.01,-199 317.45,-198.18 325.19,-205.41 328.01,-199"/>
</g>
<!-- Roles::assert_designated_dealer&#45;&gt;Signer::address_of -->
<g id="edge11" class="edge">
<title>Roles::assert_designated_dealer&#45;&gt;Signer::address_of</title>
<path fill="none" stroke="black" d="M740.43,-248.6C722.97,-244.35 703.27,-240.25 685,-238 670.58,-236.23 174.23,-237.84 162,-230 134.22,-212.19 144.7,-192.54 130,-163 125.1,-153.15 119.58,-142.4 114.68,-132.98"/>
<polygon fill="black" stroke="black" points="117.76,-131.33 110.03,-124.08 111.56,-134.57 117.76,-131.33"/>
</g>
<!-- Roles::assert_designated_dealer&#45;&gt;Errors::not_published -->
<g id="edge12" class="edge">
<title>Roles::assert_designated_dealer&#45;&gt;Errors::not_published</title>
<path fill="none" stroke="black" d="M822.95,-246.8C832.65,-241.58 843.34,-235.67 853,-230 909.67,-196.72 973.18,-153.96 1009.98,-128.62"/>
<polygon fill="black" stroke="black" points="1012.06,-131.44 1018.3,-122.88 1008.08,-125.68 1012.06,-131.44"/>
</g>
<!-- Roles::assert_designated_dealer&#45;&gt;Errors::requires_role -->
<g id="edge13" class="edge">
<title>Roles::assert_designated_dealer&#45;&gt;Errors::requires_role</title>
<path fill="none" stroke="black" d="M804.31,-246.01C824.18,-218.58 863.43,-164.39 886.62,-132.37"/>
<polygon fill="black" stroke="black" points="889.68,-134.12 892.71,-123.97 884.01,-130.02 889.68,-134.12"/>
</g>
<!-- CoreAddresses::CURRENCY_INFO_ADDRESS -->
<g id="node12" class="node">
<title>CoreAddresses::CURRENCY_INFO_ADDRESS</title>
<ellipse fill="none" stroke="black" cx="538" cy="-181" rx="128.08" ry="18"/>
<text text-anchor="middle" x="538" y="-177.3" font-family="Times,serif" font-size="14.00">CURRENCY_INFO_ADDRESS</text>
</g>
<!-- is_synthetic_currency&#45;&gt;CoreAddresses::CURRENCY_INFO_ADDRESS -->
<g id="edge14" class="edge">
<title>is_synthetic_currency&#45;&gt;CoreAddresses::CURRENCY_INFO_ADDRESS</title>
<path fill="none" stroke="black" d="M355.35,-248.05C391.67,-234.92 444.74,-215.72 484.33,-201.41"/>
<polygon fill="black" stroke="black" points="485.62,-204.66 493.83,-197.97 483.23,-198.08 485.62,-204.66"/>
</g>
<!-- publish_preburn_queue&#45;&gt;Roles::assert_designated_dealer -->
<g id="edge18" class="edge">
<title>publish_preburn_queue&#45;&gt;Roles::assert_designated_dealer</title>
<path fill="none" stroke="black" d="M898.6,-408.35C890.55,-405.12 882.77,-401.07 876,-396 839.88,-368.92 815.12,-321.37 802.28,-291.62"/>
<polygon fill="black" stroke="black" points="805.46,-290.15 798.39,-282.27 799,-292.84 805.46,-290.15"/>
</g>
<!-- publish_preburn_queue&#45;&gt;Signer::address_of -->
<g id="edge15" class="edge">
<title>publish_preburn_queue&#45;&gt;Signer::address_of</title>
<path fill="none" stroke="black" d="M890.74,-410.05C865.82,-405.95 837.61,-401.05 812,-396 648.35,-363.74 575.84,-417.7 446,-313 417.36,-289.91 441.77,-258.15 411,-238 396.4,-228.44 109.18,-242.5 97,-230 72.56,-204.93 81.05,-161.55 90.32,-133.58"/>
<polygon fill="black" stroke="black" points="93.67,-134.63 93.72,-124.04 87.07,-132.29 93.67,-134.63"/>
</g>
<!-- Errors::already_published -->
<g id="node13" class="node">
<title>Errors::already_published</title>
<ellipse fill="none" stroke="black" cx="1195" cy="-106" rx="75.29" ry="18"/>
<text text-anchor="middle" x="1195" y="-102.3" font-family="Times,serif" font-size="14.00">already_published</text>
</g>
<!-- publish_preburn_queue&#45;&gt;Errors::already_published -->
<g id="edge16" class="edge">
<title>publish_preburn_queue&#45;&gt;Errors::already_published</title>
<path fill="none" stroke="black" d="M1051.33,-417.12C1086.19,-413.77 1120.66,-407.54 1133,-396 1207.12,-326.69 1203.72,-192.01 1198.34,-134.31"/>
<polygon fill="black" stroke="black" points="1201.8,-133.74 1197.3,-124.15 1194.84,-134.46 1201.8,-133.74"/>
</g>
<!-- Errors::invalid_state -->
<g id="node14" class="node">
<title>Errors::invalid_state</title>
<ellipse fill="none" stroke="black" cx="1344" cy="-106" rx="55.79" ry="18"/>
<text text-anchor="middle" x="1344" y="-102.3" font-family="Times,serif" font-size="14.00">invalid_state</text>
</g>
<!-- publish_preburn_queue&#45;&gt;Errors::invalid_state -->
<g id="edge17" class="edge">
<title>publish_preburn_queue&#45;&gt;Errors::invalid_state</title>
<path fill="none" stroke="black" d="M1052.44,-417.91C1099.33,-414.8 1150.59,-408.55 1170,-396 1268.13,-332.56 1318.99,-192.46 1336.66,-133.73"/>
<polygon fill="black" stroke="black" points="1340.04,-134.65 1339.48,-124.07 1333.32,-132.68 1340.04,-134.65"/>
</g>
<!-- Vector::empty -->
<g id="node15" class="node">
<title>Vector::empty</title>
<ellipse fill="none" stroke="black" cx="1088" cy="-347" rx="33.29" ry="18"/>
<text text-anchor="middle" x="1088" y="-343.3" font-family="Times,serif" font-size="14.00">empty</text>
</g>
<!-- publish_preburn_queue&#45;&gt;Vector::empty -->
<g id="edge19" class="edge">
<title>publish_preburn_queue&#45;&gt;Vector::empty</title>
<path fill="none" stroke="black" d="M1020.95,-408.06C1029.72,-404.85 1038.35,-400.89 1046,-396 1055.61,-389.85 1064.29,-380.87 1071.23,-372.34"/>
<polygon fill="black" stroke="black" points="1074.01,-374.47 1077.33,-364.4 1068.46,-370.2 1074.01,-374.47"/>
</g>
<!-- assert_is_currency -->
<g id="node16" class="node">
<title>assert_is_currency</title>
<ellipse fill="none" stroke="black" cx="961" cy="-347" rx="76.09" ry="18"/>
<text text-anchor="middle" x="961" y="-343.3" font-family="Times,serif" font-size="14.00">assert_is_currency</text>
</g>
<!-- publish_preburn_queue&#45;&gt;assert_is_currency -->
<g id="edge20" class="edge">
<title>publish_preburn_queue&#45;&gt;assert_is_currency</title>
<path fill="none" stroke="black" d="M961,-403.7C961,-395.25 961,-384.87 961,-375.37"/>
<polygon fill="black" stroke="black" points="964.5,-375.18 961,-365.18 957.5,-375.18 964.5,-375.18"/>
</g>
<!-- Signer::borrow_address -->
<g id="node17" class="node">
<title>Signer::borrow_address</title>
<ellipse fill="none" stroke="black" cx="83" cy="-34" rx="66.89" ry="18"/>
<text text-anchor="middle" x="83" y="-30.3" font-family="Times,serif" font-size="14.00">borrow_address</text>
</g>
<!-- Signer::address_of&#45;&gt;Signer::borrow_address -->
<g id="edge21" class="edge">
<title>Signer::address_of&#45;&gt;Signer::borrow_address</title>
<path fill="none" stroke="black" d="M96.64,-88.05C94.64,-80.26 92.21,-70.82 89.96,-62.08"/>
<polygon fill="black" stroke="black" points="93.32,-61.09 87.44,-52.28 86.54,-62.83 93.32,-61.09"/>
</g>
<!-- Errors::not_published&#45;&gt;Errors::make -->
<g id="edge22" class="edge">
<title>Errors::not_published&#45;&gt;Errors::make</title>
<path fill="none" stroke="black" d="M1058.86,-88.76C1069.47,-79.12 1083.05,-66.77 1094.53,-56.34"/>
<polygon fill="black" stroke="black" points="1097.02,-58.8 1102.07,-49.48 1092.32,-53.62 1097.02,-58.8"/>
</g>
<!-- Errors::requires_role&#45;&gt;Errors::make -->
<g id="edge23" class="edge">
<title>Errors::requires_role&#45;&gt;Errors::make</title>
<path fill="none" stroke="black" d="M939.64,-91.64C950,-87.76 961.42,-83.6 972,-80 1008.95,-67.42 1051.66,-54.44 1081.3,-45.67"/>
<polygon fill="black" stroke="black" points="1082.6,-48.93 1091.21,-42.75 1080.63,-42.22 1082.6,-48.93"/>
</g>
<!-- CoreAddresses::assert_treasury_compliance&#45;&gt;Signer::address_of -->
<g id="edge24" class="edge">
<title>CoreAddresses::assert_treasury_compliance&#45;&gt;Signer::address_of</title>
<path fill="none" stroke="black" d="M202.55,-168.83C188.67,-165.38 174.64,-160.88 162,-155 148.56,-148.75 135.41,-139.01 124.78,-129.94"/>
<polygon fill="black" stroke="black" points="126.99,-127.21 117.18,-123.2 122.34,-132.45 126.99,-127.21"/>
</g>
<!-- Errors::requires_address -->
<g id="node18" class="node">
<title>Errors::requires_address</title>
<ellipse fill="none" stroke="black" cx="760" cy="-106" rx="69.59" ry="18"/>
<text text-anchor="middle" x="760" y="-102.3" font-family="Times,serif" font-size="14.00">requires_address</text>
</g>
<!-- CoreAddresses::assert_treasury_compliance&#45;&gt;Errors::requires_address -->
<g id="edge25" class="edge">
<title>CoreAddresses::assert_treasury_compliance&#45;&gt;Errors::requires_address</title>
<path fill="none" stroke="black" d="M357.76,-167.92C372.08,-165.97 386.98,-164.21 401,-163 431.68,-160.36 648.4,-163.49 678,-155 696.82,-149.6 715.82,-138.89 730.78,-128.95"/>
<polygon fill="black" stroke="black" points="732.84,-131.79 739.1,-123.24 728.87,-126.02 732.84,-131.79"/>
</g>
<!-- CoreAddresses::TREASURY_COMPLIANCE_ADDRESS -->
<g id="node19" class="node">
<title>CoreAddresses::TREASURY_COMPLIANCE_ADDRESS</title>
<ellipse fill="none" stroke="black" cx="337" cy="-106" rx="163.27" ry="18"/>
<text text-anchor="middle" x="337" y="-102.3" font-family="Times,serif" font-size="14.00">TREASURY_COMPLIANCE_ADDRESS</text>
</g>
<!-- CoreAddresses::assert_treasury_compliance&#45;&gt;CoreAddresses::TREASURY_COMPLIANCE_ADDRESS -->
<g id="edge26" class="edge">
<title>CoreAddresses::assert_treasury_compliance&#45;&gt;CoreAddresses::TREASURY_COMPLIANCE_ADDRESS</title>
<path fill="none" stroke="black" d="M295.52,-163.07C302.29,-153.92 310.78,-142.45 318.31,-132.26"/>
<polygon fill="black" stroke="black" points="321.22,-134.21 324.36,-124.09 315.6,-130.05 321.22,-134.21"/>
</g>
<!-- Errors::already_published&#45;&gt;Errors::make -->
<g id="edge27" class="edge">
<title>Errors::already_published&#45;&gt;Errors::make</title>
<path fill="none" stroke="black" d="M1176.75,-88.41C1166.2,-78.82 1152.81,-66.65 1141.48,-56.35"/>
<polygon fill="black" stroke="black" points="1143.78,-53.71 1134.03,-49.57 1139.07,-58.89 1143.78,-53.71"/>
</g>
<!-- Errors::invalid_state&#45;&gt;Errors::make -->
<g id="edge28" class="edge">
<title>Errors::invalid_state&#45;&gt;Errors::make</title>
<path fill="none" stroke="black" d="M1310.48,-91.41C1300.43,-87.53 1289.33,-83.42 1279,-80 1237.23,-66.17 1188.48,-52.94 1155.65,-44.45"/>
<polygon fill="black" stroke="black" points="1156.14,-40.96 1145.59,-41.86 1154.4,-47.74 1156.14,-40.96"/>
</g>
<!-- assert_is_currency&#45;&gt;Errors::not_published -->
<g id="edge29" class="edge">
<title>assert_is_currency&#45;&gt;Errors::not_published</title>
<path fill="none" stroke="black" d="M1001.27,-331.51C1009.34,-326.81 1016.89,-320.74 1022,-313 1058.22,-258.13 1052.35,-176.39 1046.07,-134.27"/>
<polygon fill="black" stroke="black" points="1049.5,-133.53 1044.45,-124.22 1042.59,-134.65 1049.5,-133.53"/>
</g>
<!-- is_currency -->
<g id="node20" class="node">
<title>is_currency</title>
<ellipse fill="none" stroke="black" cx="961" cy="-264" rx="51.99" ry="18"/>
<text text-anchor="middle" x="961" y="-260.3" font-family="Times,serif" font-size="14.00">is_currency</text>
</g>
<!-- assert_is_currency&#45;&gt;is_currency -->
<g id="edge30" class="edge">
<title>assert_is_currency&#45;&gt;is_currency</title>
<path fill="none" stroke="black" d="M961,-328.82C961,-318.19 961,-304.31 961,-292.2"/>
<polygon fill="black" stroke="black" points="964.5,-292.15 961,-282.15 957.5,-292.15 964.5,-292.15"/>
</g>
<!-- Errors::requires_address&#45;&gt;Errors::make -->
<g id="edge31" class="edge">
<title>Errors::requires_address&#45;&gt;Errors::make</title>
<path fill="none" stroke="black" d="M799.87,-91.13C812.3,-87.15 826.12,-83.06 839,-80 923.08,-60.03 1023.55,-46.24 1078.04,-39.57"/>
<polygon fill="black" stroke="black" points="1078.48,-43.05 1087.99,-38.38 1077.64,-36.1 1078.48,-43.05"/>
</g>
<!-- is_currency&#45;&gt;CoreAddresses::CURRENCY_INFO_ADDRESS -->
<g id="edge32" class="edge">
<title>is_currency&#45;&gt;CoreAddresses::CURRENCY_INFO_ADDRESS</title>
<path fill="none" stroke="black" d="M932.32,-248.92C923.14,-244.88 912.8,-240.81 903,-238 821.49,-214.6 726.76,-200.43 654.24,-192.2"/>
<polygon fill="black" stroke="black" points="654.48,-188.7 644.16,-191.08 653.71,-195.66 654.48,-188.7"/>
</g>
</g>
</svg>
