<?xml version="1.0" encoding="UTF-8" standalone="no"?>
<!DOCTYPE svg PUBLIC "-//W3C//DTD SVG 1.1//EN"
 "http://www.w3.org/Graphics/SVG/1.1/DTD/svg11.dtd">
<!-- Generated by graphviz version 2.46.1 (20210213.1702)
 -->
<!-- Title: G Pages: 1 -->
<svg width="1859pt" height="520pt"
 viewBox="0.00 0.00 1858.77 520.00" xmlns="http://www.w3.org/2000/svg" xmlns:xlink="http://www.w3.org/1999/xlink">
<g id="graph0" class="graph" transform="scale(1 1) rotate(0) translate(4 516)">
<title>G</title>
<polygon fill="white" stroke="transparent" points="-4,4 -4,-516 1854.77,-516 1854.77,4 -4,4"/>
<g id="clust1" class="cluster">
<title>cluster_Errors</title>
<polygon fill="none" stroke="black" points="420.77,-152 420.77,-310 1012.77,-310 1012.77,-152 420.77,-152"/>
<text text-anchor="middle" x="716.77" y="-294.8" font-family="Times,serif" font-size="14.00">Errors</text>
</g>
<g id="clust2" class="cluster">
<title>cluster_CoreAddresses</title>
<polygon fill="none" stroke="black" points="182.77,-235 182.77,-393 412.77,-393 412.77,-235 182.77,-235"/>
<text text-anchor="middle" x="297.77" y="-377.8" font-family="Times,serif" font-size="14.00">CoreAddresses</text>
</g>
<g id="clust3" class="cluster">
<title>cluster_DiemTimestamp</title>
<polygon fill="none" stroke="black" points="36.77,-318 36.77,-468 174.77,-468 174.77,-318 36.77,-318"/>
<text text-anchor="middle" x="105.77" y="-452.8" font-family="Times,serif" font-size="14.00">DiemTimestamp</text>
</g>
<g id="clust4" class="cluster">
<title>cluster_Event</title>
<polygon fill="none" stroke="black" points="1178.77,-235 1178.77,-393 1348.77,-393 1348.77,-235 1178.77,-235"/>
<text text-anchor="middle" x="1263.77" y="-377.8" font-family="Times,serif" font-size="14.00">Event</text>
</g>
<g id="clust5" class="cluster">
<title>cluster_Signer</title>
<polygon fill="none" stroke="black" points="1020.77,-152 1020.77,-310 1170.77,-310 1170.77,-152 1020.77,-152"/>
<text text-anchor="middle" x="1095.77" y="-294.8" font-family="Times,serif" font-size="14.00">Signer</text>
</g>
<g id="clust6" class="cluster">
<title>cluster_Vector</title>
<polygon fill="none" stroke="black" points="1178.77,-8 1178.77,-227 1738.77,-227 1738.77,-8 1178.77,-8"/>
<text text-anchor="middle" x="1458.77" y="-211.8" font-family="Times,serif" font-size="14.00">Vector</text>
</g>
<g id="clust7" class="cluster">
<title>cluster_BCS</title>
<polygon fill="none" stroke="black" points="1746.77,-152 1746.77,-227 1842.77,-227 1842.77,-152 1746.77,-152"/>
<text text-anchor="middle" x="1794.77" y="-211.8" font-family="Times,serif" font-size="14.00">BCS</text>
</g>
<!-- initialize -->
<g id="node1" class="node">
<title>initialize</title>
<ellipse fill="none" stroke="black" cx="333.77" cy="-494" rx="41.69" ry="18"/>
<text text-anchor="middle" x="333.77" y="-490.3" font-family="Times,serif" font-size="14.00">initialize</text>
</g>
<!-- Errors::already_published -->
<g id="node2" class="node">
<title>Errors::already_published</title>
<ellipse fill="none" stroke="black" cx="790.77" cy="-261" rx="75.29" ry="18"/>
<text text-anchor="middle" x="790.77" y="-257.3" font-family="Times,serif" font-size="14.00">already_published</text>
</g>
<!-- initialize&#45;&gt;Errors::already_published -->
<g id="edge1" class="edge">
<title>initialize&#45;&gt;Errors::already_published</title>
<path fill="none" stroke="black" d="M361.22,-480.26C423.35,-451.27 579.33,-377.59 706.77,-310 722.75,-301.53 740.14,-291.69 754.94,-283.14"/>
<polygon fill="black" stroke="black" points="756.89,-286.05 763.78,-278 753.37,-280 756.89,-286.05"/>
</g>
<!-- CoreAddresses::DIEM_ROOT_ADDRESS -->
<g id="node3" class="node">
<title>CoreAddresses::DIEM_ROOT_ADDRESS</title>
<ellipse fill="none" stroke="black" cx="297.77" cy="-261" rx="106.68" ry="18"/>
<text text-anchor="middle" x="297.77" y="-257.3" font-family="Times,serif" font-size="14.00">DIEM_ROOT_ADDRESS</text>
</g>
<!-- initialize&#45;&gt;CoreAddresses::DIEM_ROOT_ADDRESS -->
<g id="edge2" class="edge">
<title>initialize&#45;&gt;CoreAddresses::DIEM_ROOT_ADDRESS</title>
<path fill="none" stroke="black" d="M292.09,-492.6C213.55,-491.41 49.97,-486.69 32.77,-468 -12.37,-418.95 -9.21,-369.78 32.77,-318 53.2,-292.81 128.53,-278.51 193.68,-270.67"/>
<polygon fill="black" stroke="black" points="194.1,-274.15 203.62,-269.52 193.29,-267.2 194.1,-274.15"/>
</g>
<!-- CoreAddresses::assert_diem_root -->
<g id="node4" class="node">
<title>CoreAddresses::assert_diem_root</title>
<ellipse fill="none" stroke="black" cx="333.77" cy="-344" rx="71.49" ry="18"/>
<text text-anchor="middle" x="333.77" y="-340.3" font-family="Times,serif" font-size="14.00">assert_diem_root</text>
</g>
<!-- initialize&#45;&gt;CoreAddresses::assert_diem_root -->
<g id="edge3" class="edge">
<title>initialize&#45;&gt;CoreAddresses::assert_diem_root</title>
<path fill="none" stroke="black" d="M333.77,-475.73C333.77,-450.33 333.77,-402.65 333.77,-372.43"/>
<polygon fill="black" stroke="black" points="337.27,-372.16 333.77,-362.16 330.27,-372.16 337.27,-372.16"/>
</g>
<!-- DiemTimestamp::assert_genesis -->
<g id="node5" class="node">
<title>DiemTimestamp::assert_genesis</title>
<ellipse fill="none" stroke="black" cx="105.77" cy="-419" rx="61.19" ry="18"/>
<text text-anchor="middle" x="105.77" y="-415.3" font-family="Times,serif" font-size="14.00">assert_genesis</text>
</g>
<!-- initialize&#45;&gt;DiemTimestamp::assert_genesis -->
<g id="edge4" class="edge">
<title>initialize&#45;&gt;DiemTimestamp::assert_genesis</title>
<path fill="none" stroke="black" d="M301.11,-482.54C262.99,-470.34 199.55,-450.02 155.35,-435.87"/>
<polygon fill="black" stroke="black" points="156.26,-432.49 145.67,-432.77 154.13,-439.16 156.26,-432.49"/>
</g>
<!-- Event::new_event_handle -->
<g id="node6" class="node">
<title>Event::new_event_handle</title>
<ellipse fill="none" stroke="black" cx="1263.77" cy="-344" rx="76.89" ry="18"/>
<text text-anchor="middle" x="1263.77" y="-340.3" font-family="Times,serif" font-size="14.00">new_event_handle</text>
</g>
<!-- initialize&#45;&gt;Event::new_event_handle -->
<g id="edge5" class="edge">
<title>initialize&#45;&gt;Event::new_event_handle</title>
<path fill="none" stroke="black" d="M375.38,-492.53C447.08,-491.23 598.39,-486.34 724.77,-468 903.16,-442.11 1109.89,-388.01 1207.38,-361.03"/>
<polygon fill="black" stroke="black" points="1208.33,-364.39 1217.03,-358.34 1206.46,-357.65 1208.33,-364.39"/>
</g>
<!-- Errors::make -->
<g id="node7" class="node">
<title>Errors::make</title>
<ellipse fill="none" stroke="black" cx="715.77" cy="-178" rx="30.59" ry="18"/>
<text text-anchor="middle" x="715.77" y="-174.3" font-family="Times,serif" font-size="14.00">make</text>
</g>
<!-- Errors::already_published&#45;&gt;Errors::make -->
<g id="edge6" class="edge">
<title>Errors::already_published&#45;&gt;Errors::make</title>
<path fill="none" stroke="black" d="M775.23,-243.22C764.04,-231.13 748.82,-214.69 736.59,-201.48"/>
<polygon fill="black" stroke="black" points="739.14,-199.08 729.78,-194.12 734,-203.84 739.14,-199.08"/>
</g>
<!-- CoreAddresses::assert_diem_root&#45;&gt;CoreAddresses::DIEM_ROOT_ADDRESS -->
<g id="edge9" class="edge">
<title>CoreAddresses::assert_diem_root&#45;&gt;CoreAddresses::DIEM_ROOT_ADDRESS</title>
<path fill="none" stroke="black" d="M326.14,-325.82C321.32,-314.98 314.99,-300.74 309.54,-288.47"/>
<polygon fill="black" stroke="black" points="312.66,-286.87 305.4,-279.15 306.26,-289.71 312.66,-286.87"/>
</g>
<!-- Signer::address_of -->
<g id="node8" class="node">
<title>Signer::address_of</title>
<ellipse fill="none" stroke="black" cx="1095.77" cy="-261" rx="48.99" ry="18"/>
<text text-anchor="middle" x="1095.77" y="-257.3" font-family="Times,serif" font-size="14.00">address_of</text>
</g>
<!-- CoreAddresses::assert_diem_root&#45;&gt;Signer::address_of -->
<g id="edge7" class="edge">
<title>CoreAddresses::assert_diem_root&#45;&gt;Signer::address_of</title>
<path fill="none" stroke="black" d="M404.77,-341.55C567.83,-337.94 959.49,-327.54 1016.77,-310 1035.07,-304.4 1053.47,-293.6 1067.89,-283.66"/>
<polygon fill="black" stroke="black" points="1070.22,-286.3 1076.33,-277.64 1066.16,-280.6 1070.22,-286.3"/>
</g>
<!-- Errors::requires_address -->
<g id="node9" class="node">
<title>Errors::requires_address</title>
<ellipse fill="none" stroke="black" cx="498.77" cy="-261" rx="69.59" ry="18"/>
<text text-anchor="middle" x="498.77" y="-257.3" font-family="Times,serif" font-size="14.00">requires_address</text>
</g>
<!-- CoreAddresses::assert_diem_root&#45;&gt;Errors::requires_address -->
<g id="edge8" class="edge">
<title>CoreAddresses::assert_diem_root&#45;&gt;Errors::requires_address</title>
<path fill="none" stroke="black" d="M373.15,-328.75C387.12,-323.32 402.84,-316.8 416.77,-310 433.1,-302.03 450.56,-292.04 465.15,-283.23"/>
<polygon fill="black" stroke="black" points="467.12,-286.13 473.83,-277.93 463.47,-280.15 467.12,-286.13"/>
</g>
<!-- Errors::invalid_state -->
<g id="node10" class="node">
<title>Errors::invalid_state</title>
<ellipse fill="none" stroke="black" cx="641.77" cy="-261" rx="55.79" ry="18"/>
<text text-anchor="middle" x="641.77" y="-257.3" font-family="Times,serif" font-size="14.00">invalid_state</text>
</g>
<!-- DiemTimestamp::assert_genesis&#45;&gt;Errors::invalid_state -->
<g id="edge10" class="edge">
<title>DiemTimestamp::assert_genesis&#45;&gt;Errors::invalid_state</title>
<path fill="none" stroke="black" d="M166.12,-415.97C242.97,-412.9 371.26,-405.99 416.77,-393 494.68,-370.76 573.8,-315.44 614.24,-284.27"/>
<polygon fill="black" stroke="black" points="616.53,-286.91 622.26,-278 612.23,-281.39 616.53,-286.91"/>
</g>
<!-- DiemTimestamp::is_genesis -->
<g id="node11" class="node">
<title>DiemTimestamp::is_genesis</title>
<ellipse fill="none" stroke="black" cx="112.77" cy="-344" rx="46.59" ry="18"/>
<text text-anchor="middle" x="112.77" y="-340.3" font-family="Times,serif" font-size="14.00">is_genesis</text>
</g>
<!-- DiemTimestamp::assert_genesis&#45;&gt;DiemTimestamp::is_genesis -->
<g id="edge11" class="edge">
<title>DiemTimestamp::assert_genesis&#45;&gt;DiemTimestamp::is_genesis</title>
<path fill="none" stroke="black" d="M107.43,-400.7C108.24,-392.25 109.24,-381.87 110.15,-372.37"/>
<polygon fill="black" stroke="black" points="113.66,-372.46 111.13,-362.18 106.69,-371.8 113.66,-372.46"/>
</g>
<!-- Event::new_event_handle&#45;&gt;Signer::address_of -->
<g id="edge12" class="edge">
<title>Event::new_event_handle&#45;&gt;Signer::address_of</title>
<path fill="none" stroke="black" d="M1220.98,-329C1206.1,-323.65 1189.46,-317.1 1174.77,-310 1158.26,-302.01 1140.75,-291.59 1126.42,-282.5"/>
<polygon fill="black" stroke="black" points="1128.25,-279.52 1117.95,-277.05 1124.46,-285.4 1128.25,-279.52"/>
</g>
<!-- Errors::not_published -->
<g id="node12" class="node">
<title>Errors::not_published</title>
<ellipse fill="none" stroke="black" cx="944.77" cy="-261" rx="60.39" ry="18"/>
<text text-anchor="middle" x="944.77" y="-257.3" font-family="Times,serif" font-size="14.00">not_published</text>
</g>
<!-- Event::new_event_handle&#45;&gt;Errors::not_published -->
<g id="edge13" class="edge">
<title>Event::new_event_handle&#45;&gt;Errors::not_published</title>
<path fill="none" stroke="black" d="M1187.58,-341.69C1137.61,-338.71 1071.63,-330.67 1016.77,-310 1000.9,-304.02 985.02,-293.97 972.22,-284.61"/>
<polygon fill="black" stroke="black" points="973.98,-281.55 963.9,-278.3 969.75,-287.13 973.98,-281.55"/>
</g>
<!-- Event::fresh_guid -->
<g id="node13" class="node">
<title>Event::fresh_guid</title>
<ellipse fill="none" stroke="black" cx="1292.77" cy="-261" rx="48.19" ry="18"/>
<text text-anchor="middle" x="1292.77" y="-257.3" font-family="Times,serif" font-size="14.00">fresh_guid</text>
</g>
<!-- Event::new_event_handle&#45;&gt;Event::fresh_guid -->
<g id="edge14" class="edge">
<title>Event::new_event_handle&#45;&gt;Event::fresh_guid</title>
<path fill="none" stroke="black" d="M1269.92,-325.82C1273.79,-315.01 1278.87,-300.84 1283.25,-288.59"/>
<polygon fill="black" stroke="black" points="1286.66,-289.47 1286.73,-278.88 1280.07,-287.11 1286.66,-289.47"/>
</g>
<!-- Signer::borrow_address -->
<g id="node14" class="node">
<title>Signer::borrow_address</title>
<ellipse fill="none" stroke="black" cx="1095.77" cy="-178" rx="66.89" ry="18"/>
<text text-anchor="middle" x="1095.77" y="-174.3" font-family="Times,serif" font-size="14.00">borrow_address</text>
</g>
<!-- Signer::address_of&#45;&gt;Signer::borrow_address -->
<g id="edge15" class="edge">
<title>Signer::address_of&#45;&gt;Signer::borrow_address</title>
<path fill="none" stroke="black" d="M1095.77,-242.82C1095.77,-232.19 1095.77,-218.31 1095.77,-206.2"/>
<polygon fill="black" stroke="black" points="1099.27,-206.15 1095.77,-196.15 1092.27,-206.15 1099.27,-206.15"/>
</g>
<!-- Errors::requires_address&#45;&gt;Errors::make -->
<g id="edge16" class="edge">
<title>Errors::requires_address&#45;&gt;Errors::make</title>
<path fill="none" stroke="black" d="M536.57,-245.89C577.32,-230.68 641.63,-206.68 681.12,-191.94"/>
<polygon fill="black" stroke="black" points="682.44,-195.18 690.59,-188.4 680,-188.62 682.44,-195.18"/>
</g>
<!-- Errors::invalid_state&#45;&gt;Errors::make -->
<g id="edge17" class="edge">
<title>Errors::invalid_state&#45;&gt;Errors::make</title>
<path fill="none" stroke="black" d="M656.75,-243.61C667.76,-231.55 682.87,-215.01 695.05,-201.69"/>
<polygon fill="black" stroke="black" points="697.66,-204.01 701.82,-194.27 692.49,-199.29 697.66,-204.01"/>
</g>
<!-- DiemTimestamp::is_genesis&#45;&gt;CoreAddresses::DIEM_ROOT_ADDRESS -->
<g id="edge18" class="edge">
<title>DiemTimestamp::is_genesis&#45;&gt;CoreAddresses::DIEM_ROOT_ADDRESS</title>
<path fill="none" stroke="black" d="M142.5,-329.99C172,-317.07 217.63,-297.09 251.81,-282.13"/>
<polygon fill="black" stroke="black" points="253.36,-285.27 261.12,-278.05 250.56,-278.85 253.36,-285.27"/>
</g>
<!-- Errors::not_published&#45;&gt;Errors::make -->
<g id="edge19" class="edge">
<title>Errors::not_published&#45;&gt;Errors::make</title>
<path fill="none" stroke="black" d="M907.73,-246.74C897.09,-242.94 885.48,-238.8 874.77,-235 832.34,-219.95 783.48,-202.76 751.25,-191.44"/>
<polygon fill="black" stroke="black" points="751.99,-188 741.4,-187.99 749.67,-194.6 751.99,-188"/>
</g>
<!-- Vector::append -->
<g id="node15" class="node">
<title>Vector::append</title>
<ellipse fill="none" stroke="black" cx="1428.77" cy="-178" rx="36.29" ry="18"/>
<text text-anchor="middle" x="1428.77" y="-174.3" font-family="Times,serif" font-size="14.00">append</text>
</g>
<!-- Event::fresh_guid&#45;&gt;Vector::append -->
<g id="edge20" class="edge">
<title>Event::fresh_guid&#45;&gt;Vector::append</title>
<path fill="none" stroke="black" d="M1317.4,-245.33C1339.8,-231.99 1372.97,-212.23 1397.29,-197.75"/>
<polygon fill="black" stroke="black" points="1399.34,-200.61 1406.14,-192.48 1395.75,-194.59 1399.34,-200.61"/>
</g>
<!-- BCS::to_bytes -->
<g id="node16" class="node">
<title>BCS::to_bytes</title>
<ellipse fill="none" stroke="black" cx="1794.77" cy="-178" rx="40.09" ry="18"/>
<text text-anchor="middle" x="1794.77" y="-174.3" font-family="Times,serif" font-size="14.00">to_bytes</text>
</g>
<!-- Event::fresh_guid&#45;&gt;BCS::to_bytes -->
<g id="edge21" class="edge">
<title>Event::fresh_guid&#45;&gt;BCS::to_bytes</title>
<path fill="none" stroke="black" d="M1341.03,-260.44C1441.92,-260.72 1671.72,-257.82 1742.77,-227 1755.1,-221.65 1766.39,-212.11 1775.27,-202.94"/>
<polygon fill="black" stroke="black" points="1777.98,-205.16 1782.14,-195.42 1772.81,-200.44 1777.98,-205.16"/>
</g>
<!-- Vector::destroy_empty -->
<g id="node17" class="node">
<title>Vector::destroy_empty</title>
<ellipse fill="none" stroke="black" cx="1250.77" cy="-106" rx="63.89" ry="18"/>
<text text-anchor="middle" x="1250.77" y="-102.3" font-family="Times,serif" font-size="14.00">destroy_empty</text>
</g>
<!-- Vector::append&#45;&gt;Vector::destroy_empty -->
<g id="edge22" class="edge">
<title>Vector::append&#45;&gt;Vector::destroy_empty</title>
<path fill="none" stroke="black" d="M1400.96,-166.06C1372.84,-155 1328.92,-137.73 1295.83,-124.72"/>
<polygon fill="black" stroke="black" points="1296.95,-121.4 1286.37,-121 1294.39,-127.91 1296.95,-121.4"/>
</g>
<!-- Vector::is_empty -->
<g id="node18" class="node">
<title>Vector::is_empty</title>
<ellipse fill="none" stroke="black" cx="1375.77" cy="-106" rx="43.59" ry="18"/>
<text text-anchor="middle" x="1375.77" y="-102.3" font-family="Times,serif" font-size="14.00">is_empty</text>
</g>
<!-- Vector::append&#45;&gt;Vector::is_empty -->
<g id="edge23" class="edge">
<title>Vector::append&#45;&gt;Vector::is_empty</title>
<path fill="none" stroke="black" d="M1416.48,-160.76C1409.95,-152.14 1401.79,-141.36 1394.5,-131.73"/>
<polygon fill="black" stroke="black" points="1397.19,-129.49 1388.37,-123.63 1391.61,-133.72 1397.19,-129.49"/>
</g>
<!-- Vector::pop_back -->
<g id="node19" class="node">
<title>Vector::pop_back</title>
<ellipse fill="none" stroke="black" cx="1481.77" cy="-106" rx="44.69" ry="18"/>
<text text-anchor="middle" x="1481.77" y="-102.3" font-family="Times,serif" font-size="14.00">pop_back</text>
</g>
<!-- Vector::append&#45;&gt;Vector::pop_back -->
<g id="edge24" class="edge">
<title>Vector::append&#45;&gt;Vector::pop_back</title>
<path fill="none" stroke="black" d="M1441.07,-160.76C1447.59,-152.14 1455.75,-141.36 1463.05,-131.73"/>
<polygon fill="black" stroke="black" points="1465.93,-133.72 1469.18,-123.63 1460.35,-129.49 1465.93,-133.72"/>
</g>
<!-- Vector::push_back -->
<g id="node20" class="node">
<title>Vector::push_back</title>
<ellipse fill="none" stroke="black" cx="1592.77" cy="-106" rx="48.19" ry="18"/>
<text text-anchor="middle" x="1592.77" y="-102.3" font-family="Times,serif" font-size="14.00">push_back</text>
</g>
<!-- Vector::append&#45;&gt;Vector::push_back -->
<g id="edge25" class="edge">
<title>Vector::append&#45;&gt;Vector::push_back</title>
<path fill="none" stroke="black" d="M1455.49,-165.6C1481.86,-154.34 1522.51,-136.99 1552.74,-124.09"/>
<polygon fill="black" stroke="black" points="1554.34,-127.21 1562.16,-120.07 1551.59,-120.77 1554.34,-127.21"/>
</g>
<!-- Vector::reverse -->
<g id="node21" class="node">
<title>Vector::reverse</title>
<ellipse fill="none" stroke="black" cx="1694.77" cy="-106" rx="36.29" ry="18"/>
<text text-anchor="middle" x="1694.77" y="-102.3" font-family="Times,serif" font-size="14.00">reverse</text>
</g>
<!-- Vector::append&#45;&gt;Vector::reverse -->
<g id="edge26" class="edge">
<title>Vector::append&#45;&gt;Vector::reverse</title>
<path fill="none" stroke="black" d="M1462.07,-170.38C1505.64,-161.41 1584.15,-144.18 1649.77,-124 1652.38,-123.2 1655.05,-122.33 1657.73,-121.41"/>
<polygon fill="black" stroke="black" points="1659.11,-124.64 1667.36,-117.98 1656.76,-118.04 1659.11,-124.64"/>
</g>
<!-- Vector::length -->
<g id="node22" class="node">
<title>Vector::length</title>
<ellipse fill="none" stroke="black" cx="1495.77" cy="-34" rx="32.49" ry="18"/>
<text text-anchor="middle" x="1495.77" y="-30.3" font-family="Times,serif" font-size="14.00">length</text>
</g>
<!-- Vector::is_empty&#45;&gt;Vector::length -->
<g id="edge27" class="edge">
<title>Vector::is_empty&#45;&gt;Vector::length</title>
<path fill="none" stroke="black" d="M1400.06,-90.83C1418.82,-79.89 1444.92,-64.66 1465.13,-52.88"/>
<polygon fill="black" stroke="black" points="1467.07,-55.79 1473.95,-47.73 1463.55,-49.75 1467.07,-55.79"/>
</g>
<!-- Vector::reverse&#45;&gt;Vector::length -->
<g id="edge28" class="edge">
<title>Vector::reverse&#45;&gt;Vector::length</title>
<path fill="none" stroke="black" d="M1666.74,-94.26C1661.13,-92.15 1655.27,-89.98 1649.77,-88 1609.82,-73.58 1563.72,-57.83 1532.45,-47.28"/>
<polygon fill="black" stroke="black" points="1533.44,-43.92 1522.84,-44.04 1531.2,-50.55 1533.44,-43.92"/>
</g>
<!-- Vector::swap -->
<g id="node23" class="node">
<title>Vector::swap</title>
<ellipse fill="none" stroke="black" cx="1694.77" cy="-34" rx="28.7" ry="18"/>
<text text-anchor="middle" x="1694.77" y="-30.3" font-family="Times,serif" font-size="14.00">swap</text>
</g>
<!-- Vector::reverse&#45;&gt;Vector::swap -->
<g id="edge29" class="edge">
<title>Vector::reverse&#45;&gt;Vector::swap</title>
<path fill="none" stroke="black" d="M1694.77,-87.7C1694.77,-79.98 1694.77,-70.71 1694.77,-62.11"/>
<polygon fill="black" stroke="black" points="1698.27,-62.1 1694.77,-52.1 1691.27,-62.1 1698.27,-62.1"/>
</g>
</g>
</svg>
