<?xml version="1.0" encoding="UTF-8" standalone="no"?>
<!DOCTYPE svg PUBLIC "-//W3C//DTD SVG 1.1//EN"
 "http://www.w3.org/Graphics/SVG/1.1/DTD/svg11.dtd">
<!-- Generated by graphviz version 2.46.1 (20210213.1702)
 -->
<!-- Title: G Pages: 1 -->
<svg width="1156pt" height="440pt"
 viewBox="0.00 0.00 1156.00 440.00" xmlns="http://www.w3.org/2000/svg" xmlns:xlink="http://www.w3.org/1999/xlink">
<g id="graph0" class="graph" transform="scale(1 1) rotate(0) translate(4 436)">
<title>G</title>
<polygon fill="white" stroke="transparent" points="-4,4 -4,-436 1152,-436 1152,4 -4,4"/>
<g id="clust1" class="cluster">
<title>cluster_Signer</title>
<polygon fill="none" stroke="black" points="8,-238 8,-388 158,-388 158,-238 8,-238"/>
<text text-anchor="middle" x="83" y="-372.8" font-family="Times,serif" font-size="14.00">Signer</text>
</g>
<g id="clust2" class="cluster">
<title>cluster_Errors</title>
<polygon fill="none" stroke="black" points="552,-8 552,-158 1140,-158 1140,-8 552,-8"/>
<text text-anchor="middle" x="846" y="-142.8" font-family="Times,serif" font-size="14.00">Errors</text>
</g>
<g id="clust3" class="cluster">
<title>cluster_CoreAddresses</title>
<polygon fill="none" stroke="black" points="272,-8 272,-83 544,-83 544,-8 272,-8"/>
<text text-anchor="middle" x="408" y="-67.8" font-family="Times,serif" font-size="14.00">CoreAddresses</text>
</g>
<g id="clust4" class="cluster">
<title>cluster_Event</title>
<polygon fill="none" stroke="black" points="166,-166 166,-313 352,-313 352,-166 166,-166"/>
<text text-anchor="middle" x="259" y="-297.8" font-family="Times,serif" font-size="14.00">Event</text>
</g>
<!-- mint -->
<g id="node1" class="node">
<title>mint</title>
<ellipse fill="none" stroke="black" cx="507" cy="-414" rx="27.1" ry="18"/>
<text text-anchor="middle" x="507" y="-410.3" font-family="Times,serif" font-size="14.00">mint</text>
</g>
<!-- Signer::address_of -->
<g id="node2" class="node">
<title>Signer::address_of</title>
<ellipse fill="none" stroke="black" cx="92" cy="-339" rx="48.99" ry="18"/>
<text text-anchor="middle" x="92" y="-335.3" font-family="Times,serif" font-size="14.00">address_of</text>
</g>
<!-- mint&#45;&gt;Signer::address_of -->
<g id="edge1" class="edge">
<title>mint&#45;&gt;Signer::address_of</title>
<path fill="none" stroke="black" d="M481.04,-408.43C414.15,-396.67 234.86,-365.13 144.95,-349.31"/>
<polygon fill="black" stroke="black" points="145.42,-345.84 134.96,-347.56 144.2,-352.74 145.42,-345.84"/>
</g>
<!-- Errors::requires_capability -->
<g id="node3" class="node">
<title>Errors::requires_capability</title>
<ellipse fill="none" stroke="black" cx="1054" cy="-109" rx="77.99" ry="18"/>
<text text-anchor="middle" x="1054" y="-105.3" font-family="Times,serif" font-size="14.00">requires_capability</text>
</g>
<!-- mint&#45;&gt;Errors::requires_capability -->
<g id="edge2" class="edge">
<title>mint&#45;&gt;Errors::requires_capability</title>
<path fill="none" stroke="black" d="M533.08,-408.3C552.56,-404.27 579.58,-397.6 602,-388 772.57,-315.01 954.49,-184.82 1024.35,-132.59"/>
<polygon fill="black" stroke="black" points="1026.8,-135.13 1032.69,-126.33 1022.59,-129.54 1026.8,-135.13"/>
</g>
<!-- mint_with_capability -->
<g id="node4" class="node">
<title>mint_with_capability</title>
<ellipse fill="none" stroke="black" cx="507" cy="-339" rx="86.38" ry="18"/>
<text text-anchor="middle" x="507" y="-335.3" font-family="Times,serif" font-size="14.00">mint_with_capability</text>
</g>
<!-- mint&#45;&gt;mint_with_capability -->
<g id="edge3" class="edge">
<title>mint&#45;&gt;mint_with_capability</title>
<path fill="none" stroke="black" d="M507,-395.7C507,-387.25 507,-376.87 507,-367.37"/>
<polygon fill="black" stroke="black" points="510.5,-367.18 507,-357.18 503.5,-367.18 510.5,-367.18"/>
</g>
<!-- Signer::borrow_address -->
<g id="node5" class="node">
<title>Signer::borrow_address</title>
<ellipse fill="none" stroke="black" cx="83" cy="-264" rx="66.89" ry="18"/>
<text text-anchor="middle" x="83" y="-260.3" font-family="Times,serif" font-size="14.00">borrow_address</text>
</g>
<!-- Signer::address_of&#45;&gt;Signer::borrow_address -->
<g id="edge4" class="edge">
<title>Signer::address_of&#45;&gt;Signer::borrow_address</title>
<path fill="none" stroke="black" d="M89.87,-320.7C88.82,-312.25 87.55,-301.87 86.37,-292.37"/>
<polygon fill="black" stroke="black" points="89.81,-291.67 85.12,-282.18 82.87,-292.53 89.81,-291.67"/>
</g>
<!-- Errors::make -->
<g id="node6" class="node">
<title>Errors::make</title>
<ellipse fill="none" stroke="black" cx="823" cy="-34" rx="30.59" ry="18"/>
<text text-anchor="middle" x="823" y="-30.3" font-family="Times,serif" font-size="14.00">make</text>
</g>
<!-- Errors::requires_capability&#45;&gt;Errors::make -->
<g id="edge5" class="edge">
<title>Errors::requires_capability&#45;&gt;Errors::make</title>
<path fill="none" stroke="black" d="M1010.01,-94.1C966.2,-80.25 899.77,-59.26 859,-46.38"/>
<polygon fill="black" stroke="black" points="859.81,-42.96 849.22,-43.29 857.7,-49.64 859.81,-42.96"/>
</g>
<!-- Errors::invalid_state -->
<g id="node7" class="node">
<title>Errors::invalid_state</title>
<ellipse fill="none" stroke="black" cx="754" cy="-109" rx="55.79" ry="18"/>
<text text-anchor="middle" x="754" y="-105.3" font-family="Times,serif" font-size="14.00">invalid_state</text>
</g>
<!-- mint_with_capability&#45;&gt;Errors::invalid_state -->
<g id="edge6" class="edge">
<title>mint_with_capability&#45;&gt;Errors::invalid_state</title>
<path fill="none" stroke="black" d="M538.22,-322.16C542.98,-319.33 547.72,-316.23 552,-313 626.01,-257.03 699.48,-174.77 733.85,-134.3"/>
<polygon fill="black" stroke="black" points="736.61,-136.46 740.39,-126.56 731.26,-131.94 736.61,-136.46"/>
</g>
<!-- Errors::limit_exceeded -->
<g id="node8" class="node">
<title>Errors::limit_exceeded</title>
<ellipse fill="none" stroke="black" cx="893" cy="-109" rx="64.99" ry="18"/>
<text text-anchor="middle" x="893" y="-105.3" font-family="Times,serif" font-size="14.00">limit_exceeded</text>
</g>
<!-- mint_with_capability&#45;&gt;Errors::limit_exceeded -->
<g id="edge7" class="edge">
<title>mint_with_capability&#45;&gt;Errors::limit_exceeded</title>
<path fill="none" stroke="black" d="M569.77,-326.6C583.04,-323.09 596.74,-318.63 609,-313 714.17,-264.71 820.46,-175.51 867.68,-133.3"/>
<polygon fill="black" stroke="black" points="870.18,-135.76 875.27,-126.47 865.5,-130.56 870.18,-135.76"/>
</g>
<!-- CoreAddresses::CURRENCY_INFO_ADDRESS -->
<g id="node9" class="node">
<title>CoreAddresses::CURRENCY_INFO_ADDRESS</title>
<ellipse fill="none" stroke="black" cx="408" cy="-34" rx="128.08" ry="18"/>
<text text-anchor="middle" x="408" y="-30.3" font-family="Times,serif" font-size="14.00">CURRENCY_INFO_ADDRESS</text>
</g>
<!-- mint_with_capability&#45;&gt;CoreAddresses::CURRENCY_INFO_ADDRESS -->
<g id="edge8" class="edge">
<title>mint_with_capability&#45;&gt;CoreAddresses::CURRENCY_INFO_ADDRESS</title>
<path fill="none" stroke="black" d="M433.12,-329.57C413.97,-325.79 397.02,-320.45 391,-313 331.38,-239.16 373.18,-115.12 395.92,-61.27"/>
<polygon fill="black" stroke="black" points="399.15,-62.63 399.92,-52.06 392.73,-59.84 399.15,-62.63"/>
</g>
<!-- Event::emit_event -->
<g id="node10" class="node">
<title>Event::emit_event</title>
<ellipse fill="none" stroke="black" cx="276" cy="-264" rx="50.09" ry="18"/>
<text text-anchor="middle" x="276" y="-260.3" font-family="Times,serif" font-size="14.00">emit_event</text>
</g>
<!-- mint_with_capability&#45;&gt;Event::emit_event -->
<g id="edge9" class="edge">
<title>mint_with_capability&#45;&gt;Event::emit_event</title>
<path fill="none" stroke="black" d="M430.21,-330.56C406.59,-326.83 380.81,-321.27 358,-313 339.59,-306.32 320.62,-295.52 305.57,-285.85"/>
<polygon fill="black" stroke="black" points="307.48,-282.91 297.2,-280.33 303.62,-288.75 307.48,-282.91"/>
</g>
<!-- currency_code -->
<g id="node11" class="node">
<title>currency_code</title>
<ellipse fill="none" stroke="black" cx="462" cy="-264" rx="62.29" ry="18"/>
<text text-anchor="middle" x="462" y="-260.3" font-family="Times,serif" font-size="14.00">currency_code</text>
</g>
<!-- mint_with_capability&#45;&gt;currency_code -->
<g id="edge10" class="edge">
<title>mint_with_capability&#45;&gt;currency_code</title>
<path fill="none" stroke="black" d="M496.56,-321.07C491,-312.04 484.03,-300.74 477.82,-290.66"/>
<polygon fill="black" stroke="black" points="480.61,-288.52 472.38,-281.84 474.65,-292.19 480.61,-288.52"/>
</g>
<!-- assert_is_currency -->
<g id="node12" class="node">
<title>assert_is_currency</title>
<ellipse fill="none" stroke="black" cx="533" cy="-192" rx="76.09" ry="18"/>
<text text-anchor="middle" x="533" y="-188.3" font-family="Times,serif" font-size="14.00">assert_is_currency</text>
</g>
<!-- mint_with_capability&#45;&gt;assert_is_currency -->
<g id="edge11" class="edge">
<title>mint_with_capability&#45;&gt;assert_is_currency</title>
<path fill="none" stroke="black" d="M527.79,-321.38C529.89,-318.81 531.72,-316 533,-313 545.71,-283.15 542.95,-245.2 538.85,-220.06"/>
<polygon fill="black" stroke="black" points="542.27,-219.34 537.05,-210.13 535.39,-220.59 542.27,-219.34"/>
</g>
<!-- Errors::invalid_state&#45;&gt;Errors::make -->
<g id="edge12" class="edge">
<title>Errors::invalid_state&#45;&gt;Errors::make</title>
<path fill="none" stroke="black" d="M769.66,-91.44C779.13,-81.42 791.33,-68.5 801.68,-57.56"/>
<polygon fill="black" stroke="black" points="804.49,-59.68 808.81,-50.01 799.4,-54.87 804.49,-59.68"/>
</g>
<!-- Errors::limit_exceeded&#45;&gt;Errors::make -->
<g id="edge13" class="edge">
<title>Errors::limit_exceeded&#45;&gt;Errors::make</title>
<path fill="none" stroke="black" d="M877.12,-91.44C867.41,-81.32 854.89,-68.25 844.33,-57.24"/>
<polygon fill="black" stroke="black" points="846.84,-54.8 837.39,-50.01 841.79,-59.65 846.84,-54.8"/>
</g>
<!-- Event::write_to_event_store -->
<g id="node13" class="node">
<title>Event::write_to_event_store</title>
<ellipse fill="none" stroke="black" cx="259" cy="-192" rx="85.29" ry="18"/>
<text text-anchor="middle" x="259" y="-188.3" font-family="Times,serif" font-size="14.00">write_to_event_store</text>
</g>
<!-- Event::emit_event&#45;&gt;Event::write_to_event_store -->
<g id="edge14" class="edge">
<title>Event::emit_event&#45;&gt;Event::write_to_event_store</title>
<path fill="none" stroke="black" d="M271.88,-246.05C269.99,-238.26 267.7,-228.82 265.58,-220.08"/>
<polygon fill="black" stroke="black" points="268.96,-219.17 263.2,-210.28 262.15,-220.82 268.96,-219.17"/>
</g>
<!-- currency_code&#45;&gt;CoreAddresses::CURRENCY_INFO_ADDRESS -->
<g id="edge15" class="edge">
<title>currency_code&#45;&gt;CoreAddresses::CURRENCY_INFO_ADDRESS</title>
<path fill="none" stroke="black" d="M455.78,-245.74C448.53,-225.1 436.58,-189.39 429,-158 421.16,-125.53 415.15,-87.56 411.6,-62.48"/>
<polygon fill="black" stroke="black" points="415.03,-61.69 410.2,-52.26 408.09,-62.65 415.03,-61.69"/>
</g>
<!-- currency_code&#45;&gt;assert_is_currency -->
<g id="edge16" class="edge">
<title>currency_code&#45;&gt;assert_is_currency</title>
<path fill="none" stroke="black" d="M478.83,-246.41C487.71,-237.65 498.79,-226.73 508.6,-217.06"/>
<polygon fill="black" stroke="black" points="511.14,-219.47 515.8,-209.96 506.22,-214.48 511.14,-219.47"/>
</g>
<!-- Errors::not_published -->
<g id="node14" class="node">
<title>Errors::not_published</title>
<ellipse fill="none" stroke="black" cx="620" cy="-109" rx="60.39" ry="18"/>
<text text-anchor="middle" x="620" y="-105.3" font-family="Times,serif" font-size="14.00">not_published</text>
</g>
<!-- assert_is_currency&#45;&gt;Errors::not_published -->
<g id="edge17" class="edge">
<title>assert_is_currency&#45;&gt;Errors::not_published</title>
<path fill="none" stroke="black" d="M551.03,-174.22C563.71,-162.41 580.85,-146.45 594.87,-133.39"/>
<polygon fill="black" stroke="black" points="597.36,-135.86 602.29,-126.48 592.59,-130.74 597.36,-135.86"/>
</g>
<!-- is_currency -->
<g id="node15" class="node">
<title>is_currency</title>
<ellipse fill="none" stroke="black" cx="490" cy="-109" rx="51.99" ry="18"/>
<text text-anchor="middle" x="490" y="-105.3" font-family="Times,serif" font-size="14.00">is_currency</text>
</g>
<!-- assert_is_currency&#45;&gt;is_currency -->
<g id="edge18" class="edge">
<title>assert_is_currency&#45;&gt;is_currency</title>
<path fill="none" stroke="black" d="M523.88,-173.82C518.03,-162.79 510.31,-148.27 503.73,-135.86"/>
<polygon fill="black" stroke="black" points="506.74,-134.07 498.96,-126.88 500.56,-137.35 506.74,-134.07"/>
</g>
<!-- Errors::not_published&#45;&gt;Errors::make -->
<g id="edge19" class="edge">
<title>Errors::not_published&#45;&gt;Errors::make</title>
<path fill="none" stroke="black" d="M657.23,-94.61C694.48,-81.22 751.34,-60.77 787.84,-47.64"/>
<polygon fill="black" stroke="black" points="789.33,-50.83 797.56,-44.15 786.97,-44.24 789.33,-50.83"/>
</g>
<!-- is_currency&#45;&gt;CoreAddresses::CURRENCY_INFO_ADDRESS -->
<g id="edge20" class="edge">
<title>is_currency&#45;&gt;CoreAddresses::CURRENCY_INFO_ADDRESS</title>
<path fill="none" stroke="black" d="M471.8,-91.8C460.89,-82.08 446.81,-69.55 434.66,-58.73"/>
<polygon fill="black" stroke="black" points="436.8,-55.95 427,-51.92 432.14,-61.18 436.8,-55.95"/>
</g>
</g>
</svg>
