<?xml version="1.0" encoding="UTF-8" standalone="no"?>
<!DOCTYPE svg PUBLIC "-//W3C//DTD SVG 1.1//EN"
 "http://www.w3.org/Graphics/SVG/1.1/DTD/svg11.dtd">
<!-- Generated by graphviz version 2.46.1 (20210213.1702)
 -->
<!-- Title: G Pages: 1 -->
<svg width="1390pt" height="550pt"
 viewBox="0.00 0.00 1390.00 550.00" xmlns="http://www.w3.org/2000/svg" xmlns:xlink="http://www.w3.org/1999/xlink">
<g id="graph0" class="graph" transform="scale(1 1) rotate(0) translate(4 546)">
<title>G</title>
<polygon fill="white" stroke="transparent" points="-4,4 -4,-546 1386,-546 1386,4 -4,4"/>
<g id="clust1" class="cluster">
<title>cluster_Errors</title>
<polygon fill="none" stroke="black" points="209,-8 209,-166 787,-166 787,-8 209,-8"/>
<text text-anchor="middle" x="498" y="-150.8" font-family="Times,serif" font-size="14.00">Errors</text>
</g>
<g id="clust2" class="cluster">
<title>cluster_DiemTransactionPublishingOption</title>
<polygon fill="none" stroke="black" points="311,-423 311,-498 517,-498 517,-423 311,-423"/>
<text text-anchor="middle" x="414" y="-482.8" font-family="Times,serif" font-size="14.00">DiemTransactionPublishingOption</text>
</g>
<g id="clust3" class="cluster">
<title>cluster_Roles</title>
<polygon fill="none" stroke="black" points="8,-257 8,-415 186,-415 186,-257 8,-257"/>
<text text-anchor="middle" x="97" y="-399.8" font-family="Times,serif" font-size="14.00">Roles</text>
</g>
<g id="clust4" class="cluster">
<title>cluster_DiemConfig</title>
<polygon fill="none" stroke="black" points="547,-174 547,-249 631,-249 631,-174 547,-174"/>
<text text-anchor="middle" x="589" y="-233.8" font-family="Times,serif" font-size="14.00">DiemConfig</text>
</g>
<g id="clust5" class="cluster">
<title>cluster_Signer</title>
<polygon fill="none" stroke="black" points="34,-91 34,-249 184,-249 184,-91 34,-91"/>
<text text-anchor="middle" x="109" y="-233.8" font-family="Times,serif" font-size="14.00">Signer</text>
</g>
<g id="clust6" class="cluster">
<title>cluster_DiemTimestamp</title>
<polygon fill="none" stroke="black" points="908,-91 908,-415 1082,-415 1082,-91 908,-91"/>
<text text-anchor="middle" x="995" y="-399.8" font-family="Times,serif" font-size="14.00">DiemTimestamp</text>
</g>
<g id="clust7" class="cluster">
<title>cluster_TransactionFee</title>
<polygon fill="none" stroke="black" points="1120,-340 1120,-415 1286,-415 1286,-340 1120,-340"/>
<text text-anchor="middle" x="1203" y="-399.8" font-family="Times,serif" font-size="14.00">TransactionFee</text>
</g>
<g id="clust8" class="cluster">
<title>cluster_Hash</title>
<polygon fill="none" stroke="black" points="434,-340 434,-415 538,-415 538,-340 434,-340"/>
<text text-anchor="middle" x="486" y="-399.8" font-family="Times,serif" font-size="14.00">Hash</text>
</g>
<g id="clust9" class="cluster">
<title>cluster_ChainId</title>
<polygon fill="none" stroke="black" points="1090,-257 1090,-332 1160,-332 1160,-257 1090,-257"/>
<text text-anchor="middle" x="1125" y="-316.8" font-family="Times,serif" font-size="14.00">ChainId</text>
</g>
<g id="clust10" class="cluster">
<title>cluster_AccountFreezing</title>
<polygon fill="none" stroke="black" points="546,-340 546,-415 712,-415 712,-340 546,-340"/>
<text text-anchor="middle" x="629" y="-399.8" font-family="Times,serif" font-size="14.00">AccountFreezing</text>
</g>
<g id="clust11" class="cluster">
<title>cluster_CoreAddresses</title>
<polygon fill="none" stroke="black" points="800,-8 800,-83 1374,-83 1374,-8 800,-8"/>
<text text-anchor="middle" x="1087" y="-67.8" font-family="Times,serif" font-size="14.00">CoreAddresses</text>
</g>
<g id="clust12" class="cluster">
<title>cluster_Diem</title>
<polygon fill="none" stroke="black" points="362,-174 362,-249 438,-249 438,-174 362,-174"/>
<text text-anchor="middle" x="400" y="-233.8" font-family="Times,serif" font-size="14.00">Diem</text>
</g>
<!-- module_prologue -->
<g id="node1" class="node">
<title>module_prologue</title>
<ellipse fill="none" stroke="black" cx="629" cy="-524" rx="73.39" ry="18"/>
<text text-anchor="middle" x="629" y="-520.3" font-family="Times,serif" font-size="14.00">module_prologue</text>
</g>
<!-- Errors::invalid_state -->
<g id="node2" class="node">
<title>Errors::invalid_state</title>
<ellipse fill="none" stroke="black" cx="723" cy="-117" rx="55.79" ry="18"/>
<text text-anchor="middle" x="723" y="-113.3" font-family="Times,serif" font-size="14.00">invalid_state</text>
</g>
<!-- module_prologue&#45;&gt;Errors::invalid_state -->
<g id="edge1" class="edge">
<title>module_prologue&#45;&gt;Errors::invalid_state</title>
<path fill="none" stroke="black" d="M685.97,-512.52C757.8,-495.65 872,-454.98 872,-367 872,-367 872,-367 872,-282 872,-215.6 804.26,-164.18 760.13,-137.73"/>
<polygon fill="black" stroke="black" points="761.78,-134.64 751.38,-132.62 758.25,-140.69 761.78,-134.64"/>
</g>
<!-- DiemTransactionPublishingOption::is_module_allowed -->
<g id="node3" class="node">
<title>DiemTransactionPublishingOption::is_module_allowed</title>
<ellipse fill="none" stroke="black" cx="414" cy="-449" rx="79.89" ry="18"/>
<text text-anchor="middle" x="414" y="-445.3" font-family="Times,serif" font-size="14.00">is_module_allowed</text>
</g>
<!-- module_prologue&#45;&gt;DiemTransactionPublishingOption::is_module_allowed -->
<g id="edge2" class="edge">
<title>module_prologue&#45;&gt;DiemTransactionPublishingOption::is_module_allowed</title>
<path fill="none" stroke="black" d="M581.83,-510.18C568.86,-506.46 554.83,-502.24 542,-498 514.97,-489.06 485.16,-477.96 461.12,-468.68"/>
<polygon fill="black" stroke="black" points="462.12,-465.32 451.53,-464.97 459.58,-471.85 462.12,-465.32"/>
</g>
<!-- prologue_common -->
<g id="node4" class="node">
<title>prologue_common</title>
<ellipse fill="none" stroke="black" cx="629" cy="-449" rx="77.99" ry="18"/>
<text text-anchor="middle" x="629" y="-445.3" font-family="Times,serif" font-size="14.00">prologue_common</text>
</g>
<!-- module_prologue&#45;&gt;prologue_common -->
<g id="edge3" class="edge">
<title>module_prologue&#45;&gt;prologue_common</title>
<path fill="none" stroke="black" d="M629,-505.7C629,-497.25 629,-486.87 629,-477.37"/>
<polygon fill="black" stroke="black" points="632.5,-477.18 629,-467.18 625.5,-477.18 632.5,-477.18"/>
</g>
<!-- Errors::make -->
<g id="node5" class="node">
<title>Errors::make</title>
<ellipse fill="none" stroke="black" cx="517" cy="-34" rx="30.59" ry="18"/>
<text text-anchor="middle" x="517" y="-30.3" font-family="Times,serif" font-size="14.00">make</text>
</g>
<!-- Errors::invalid_state&#45;&gt;Errors::make -->
<g id="edge4" class="edge">
<title>Errors::invalid_state&#45;&gt;Errors::make</title>
<path fill="none" stroke="black" d="M688.98,-102.62C650.9,-87.65 589.54,-63.52 551.33,-48.5"/>
<polygon fill="black" stroke="black" points="552.27,-45.11 541.68,-44.7 549.7,-51.62 552.27,-45.11"/>
</g>
<!-- Roles::has_diem_root_role -->
<g id="node6" class="node">
<title>Roles::has_diem_root_role</title>
<ellipse fill="none" stroke="black" cx="97" cy="-366" rx="81.49" ry="18"/>
<text text-anchor="middle" x="97" y="-362.3" font-family="Times,serif" font-size="14.00">has_diem_root_role</text>
</g>
<!-- DiemTransactionPublishingOption::is_module_allowed&#45;&gt;Roles::has_diem_root_role -->
<g id="edge5" class="edge">
<title>DiemTransactionPublishingOption::is_module_allowed&#45;&gt;Roles::has_diem_root_role</title>
<path fill="none" stroke="black" d="M338.65,-442.83C295.03,-438.36 239.53,-430.11 192,-415 171.49,-408.48 149.99,-397.96 132.64,-388.43"/>
<polygon fill="black" stroke="black" points="133.89,-385.12 123.45,-383.27 130.46,-391.22 133.89,-385.12"/>
</g>
<!-- DiemConfig::get -->
<g id="node7" class="node">
<title>DiemConfig::get</title>
<ellipse fill="none" stroke="black" cx="589" cy="-200" rx="27" ry="18"/>
<text text-anchor="middle" x="589" y="-196.3" font-family="Times,serif" font-size="14.00">get</text>
</g>
<!-- DiemTransactionPublishingOption::is_module_allowed&#45;&gt;DiemConfig::get -->
<g id="edge6" class="edge">
<title>DiemTransactionPublishingOption::is_module_allowed&#45;&gt;DiemConfig::get</title>
<path fill="none" stroke="black" d="M411.22,-430.62C408.5,-407.02 407.56,-364.94 430,-340 439.52,-329.42 448.69,-339.13 461,-332 508.59,-304.45 550.29,-254.34 572.35,-224.73"/>
<polygon fill="black" stroke="black" points="575.21,-226.73 578.29,-216.6 569.56,-222.6 575.21,-226.73"/>
</g>
<!-- prologue_common&#45;&gt;Errors::invalid_state -->
<g id="edge9" class="edge">
<title>prologue_common&#45;&gt;Errors::invalid_state</title>
<path fill="none" stroke="black" d="M704.35,-444.27C749.45,-440.28 800.73,-432.03 815,-415 884.43,-332.17 788.98,-197.23 744.09,-142.36"/>
<polygon fill="black" stroke="black" points="746.69,-140.01 737.6,-134.56 741.3,-144.49 746.69,-140.01"/>
</g>
<!-- Signer::address_of -->
<g id="node8" class="node">
<title>Signer::address_of</title>
<ellipse fill="none" stroke="black" cx="109" cy="-200" rx="48.99" ry="18"/>
<text text-anchor="middle" x="109" y="-196.3" font-family="Times,serif" font-size="14.00">address_of</text>
</g>
<!-- prologue_common&#45;&gt;Signer::address_of -->
<g id="edge7" class="edge">
<title>prologue_common&#45;&gt;Signer::address_of</title>
<path fill="none" stroke="black" d="M580.99,-434.72C562.4,-430.15 540.85,-425.54 521,-423 504.96,-420.94 242.62,-425.11 230,-415 173.45,-369.72 231.31,-316.5 190,-257 179.24,-241.5 162.71,-228.96 147.38,-219.71"/>
<polygon fill="black" stroke="black" points="148.96,-216.58 138.54,-214.64 145.48,-222.65 148.96,-216.58"/>
</g>
<!-- Errors::invalid_argument -->
<g id="node9" class="node">
<title>Errors::invalid_argument</title>
<ellipse fill="none" stroke="black" cx="290" cy="-117" rx="73.39" ry="18"/>
<text text-anchor="middle" x="290" y="-113.3" font-family="Times,serif" font-size="14.00">invalid_argument</text>
</g>
<!-- prologue_common&#45;&gt;Errors::invalid_argument -->
<g id="edge8" class="edge">
<title>prologue_common&#45;&gt;Errors::invalid_argument</title>
<path fill="none" stroke="black" d="M580.98,-434.77C562.39,-430.21 540.85,-425.6 521,-423 507.5,-421.23 285.53,-424.73 276,-415 203.95,-341.45 252.67,-202.21 277.71,-144.3"/>
<polygon fill="black" stroke="black" points="280.94,-145.65 281.79,-135.09 274.54,-142.82 280.94,-145.65"/>
</g>
<!-- Errors::limit_exceeded -->
<g id="node10" class="node">
<title>Errors::limit_exceeded</title>
<ellipse fill="none" stroke="black" cx="446" cy="-117" rx="64.99" ry="18"/>
<text text-anchor="middle" x="446" y="-113.3" font-family="Times,serif" font-size="14.00">limit_exceeded</text>
</g>
<!-- prologue_common&#45;&gt;Errors::limit_exceeded -->
<g id="edge10" class="edge">
<title>prologue_common&#45;&gt;Errors::limit_exceeded</title>
<path fill="none" stroke="black" d="M580.98,-434.81C562.39,-430.25 540.84,-425.63 521,-423 508.88,-421.39 309.49,-423.8 301,-415 264.22,-376.86 274.59,-223.89 323,-174 338.37,-158.16 351.42,-173.95 372,-166 388.17,-159.75 404.51,-149.65 417.71,-140.31"/>
<polygon fill="black" stroke="black" points="419.88,-143.06 425.89,-134.34 415.75,-137.41 419.88,-143.06"/>
</g>
<!-- DiemTimestamp::now_seconds -->
<g id="node11" class="node">
<title>DiemTimestamp::now_seconds</title>
<ellipse fill="none" stroke="black" cx="984" cy="-366" rx="57.69" ry="18"/>
<text text-anchor="middle" x="984" y="-362.3" font-family="Times,serif" font-size="14.00">now_seconds</text>
</g>
<!-- prologue_common&#45;&gt;DiemTimestamp::now_seconds -->
<g id="edge11" class="edge">
<title>prologue_common&#45;&gt;DiemTimestamp::now_seconds</title>
<path fill="none" stroke="black" d="M698.71,-440.92C742.07,-435.67 798.75,-427.28 848,-415 879.91,-407.04 914.89,-394.61 941.38,-384.39"/>
<polygon fill="black" stroke="black" points="942.69,-387.64 950.73,-380.74 940.14,-381.12 942.69,-387.64"/>
</g>
<!-- TransactionFee::is_coin_initialized -->
<g id="node12" class="node">
<title>TransactionFee::is_coin_initialized</title>
<ellipse fill="none" stroke="black" cx="1203" cy="-366" rx="75.29" ry="18"/>
<text text-anchor="middle" x="1203" y="-362.3" font-family="Times,serif" font-size="14.00">is_coin_initialized</text>
</g>
<!-- prologue_common&#45;&gt;TransactionFee::is_coin_initialized -->
<g id="edge12" class="edge">
<title>prologue_common&#45;&gt;TransactionFee::is_coin_initialized</title>
<path fill="none" stroke="black" d="M706.72,-446.71C823.85,-444.09 1039.81,-436.44 1114,-415 1134.06,-409.2 1154.7,-398.43 1171.05,-388.55"/>
<polygon fill="black" stroke="black" points="1173.01,-391.45 1179.65,-383.2 1169.31,-385.51 1173.01,-391.45"/>
</g>
<!-- Hash::sha3_256 -->
<g id="node13" class="node">
<title>Hash::sha3_256</title>
<ellipse fill="none" stroke="black" cx="486" cy="-366" rx="44.39" ry="18"/>
<text text-anchor="middle" x="486" y="-362.3" font-family="Times,serif" font-size="14.00">sha3_256</text>
</g>
<!-- prologue_common&#45;&gt;Hash::sha3_256 -->
<g id="edge13" class="edge">
<title>prologue_common&#45;&gt;Hash::sha3_256</title>
<path fill="none" stroke="black" d="M583.82,-434.23C569.93,-429.12 554.92,-422.67 542,-415 530.3,-408.06 518.67,-398.61 509.06,-389.93"/>
<polygon fill="black" stroke="black" points="511.21,-387.15 501.51,-382.89 506.44,-392.27 511.21,-387.15"/>
</g>
<!-- ChainId::get -->
<g id="node14" class="node">
<title>ChainId::get</title>
<ellipse fill="none" stroke="black" cx="1125" cy="-283" rx="27" ry="18"/>
<text text-anchor="middle" x="1125" y="-279.3" font-family="Times,serif" font-size="14.00">get</text>
</g>
<!-- prologue_common&#45;&gt;ChainId::get -->
<g id="edge14" class="edge">
<title>prologue_common&#45;&gt;ChainId::get</title>
<path fill="none" stroke="black" d="M706.85,-447.14C829.6,-445.07 1057.2,-438.13 1086,-415 1102.18,-402 1114.46,-345.62 1120.61,-311.2"/>
<polygon fill="black" stroke="black" points="1124.07,-311.74 1122.32,-301.29 1117.17,-310.55 1124.07,-311.74"/>
</g>
<!-- AccountFreezing::account_is_frozen -->
<g id="node15" class="node">
<title>AccountFreezing::account_is_frozen</title>
<ellipse fill="none" stroke="black" cx="629" cy="-366" rx="75.29" ry="18"/>
<text text-anchor="middle" x="629" y="-362.3" font-family="Times,serif" font-size="14.00">account_is_frozen</text>
</g>
<!-- prologue_common&#45;&gt;AccountFreezing::account_is_frozen -->
<g id="edge15" class="edge">
<title>prologue_common&#45;&gt;AccountFreezing::account_is_frozen</title>
<path fill="none" stroke="black" d="M629,-430.82C629,-420.19 629,-406.31 629,-394.2"/>
<polygon fill="black" stroke="black" points="632.5,-394.15 629,-384.15 625.5,-394.15 632.5,-394.15"/>
</g>
<!-- balance -->
<g id="node16" class="node">
<title>balance</title>
<ellipse fill="none" stroke="black" cx="348" cy="-366" rx="37.89" ry="18"/>
<text text-anchor="middle" x="348" y="-362.3" font-family="Times,serif" font-size="14.00">balance</text>
</g>
<!-- prologue_common&#45;&gt;balance -->
<g id="edge16" class="edge">
<title>prologue_common&#45;&gt;balance</title>
<path fill="none" stroke="black" d="M579.55,-435.02C561.26,-430.63 540.29,-426.07 521,-423 480.9,-416.63 468.68,-427.33 430,-415 410.69,-408.84 391.02,-397.54 375.79,-387.44"/>
<polygon fill="black" stroke="black" points="377.6,-384.44 367.37,-381.69 373.65,-390.22 377.6,-384.44"/>
</g>
<!-- exists_at -->
<g id="node17" class="node">
<title>exists_at</title>
<ellipse fill="none" stroke="black" cx="764" cy="-366" rx="41.69" ry="18"/>
<text text-anchor="middle" x="764" y="-362.3" font-family="Times,serif" font-size="14.00">exists_at</text>
</g>
<!-- prologue_common&#45;&gt;exists_at -->
<g id="edge17" class="edge">
<title>prologue_common&#45;&gt;exists_at</title>
<path fill="none" stroke="black" d="M675.45,-434.49C689.09,-429.46 703.66,-422.98 716,-415 726.15,-408.44 735.88,-399.42 743.89,-390.98"/>
<polygon fill="black" stroke="black" points="746.58,-393.22 750.72,-383.47 741.4,-388.51 746.58,-393.22"/>
</g>
<!-- Roles::has_role -->
<g id="node18" class="node">
<title>Roles::has_role</title>
<ellipse fill="none" stroke="black" cx="101" cy="-283" rx="40.09" ry="18"/>
<text text-anchor="middle" x="101" y="-279.3" font-family="Times,serif" font-size="14.00">has_role</text>
</g>
<!-- Roles::has_diem_root_role&#45;&gt;Roles::has_role -->
<g id="edge18" class="edge">
<title>Roles::has_diem_root_role&#45;&gt;Roles::has_role</title>
<path fill="none" stroke="black" d="M97.85,-347.82C98.37,-337.19 99.06,-323.31 99.66,-311.2"/>
<polygon fill="black" stroke="black" points="103.16,-311.31 100.15,-301.15 96.16,-310.97 103.16,-311.31"/>
</g>
<!-- Errors::not_published -->
<g id="node19" class="node">
<title>Errors::not_published</title>
<ellipse fill="none" stroke="black" cx="589" cy="-117" rx="60.39" ry="18"/>
<text text-anchor="middle" x="589" y="-113.3" font-family="Times,serif" font-size="14.00">not_published</text>
</g>
<!-- DiemConfig::get&#45;&gt;Errors::not_published -->
<g id="edge19" class="edge">
<title>DiemConfig::get&#45;&gt;Errors::not_published</title>
<path fill="none" stroke="black" d="M589,-181.82C589,-171.19 589,-157.31 589,-145.2"/>
<polygon fill="black" stroke="black" points="592.5,-145.15 589,-135.15 585.5,-145.15 592.5,-145.15"/>
</g>
<!-- CoreAddresses::DIEM_ROOT_ADDRESS -->
<g id="node20" class="node">
<title>CoreAddresses::DIEM_ROOT_ADDRESS</title>
<ellipse fill="none" stroke="black" cx="915" cy="-34" rx="106.68" ry="18"/>
<text text-anchor="middle" x="915" y="-30.3" font-family="Times,serif" font-size="14.00">DIEM_ROOT_ADDRESS</text>
</g>
<!-- DiemConfig::get&#45;&gt;CoreAddresses::DIEM_ROOT_ADDRESS -->
<g id="edge20" class="edge">
<title>DiemConfig::get&#45;&gt;CoreAddresses::DIEM_ROOT_ADDRESS</title>
<path fill="none" stroke="black" d="M616.22,-199.92C656.72,-200.15 734.17,-196.12 791,-166 838.35,-140.91 877.8,-90.83 898.76,-60.38"/>
<polygon fill="black" stroke="black" points="901.73,-62.23 904.41,-51.98 895.92,-58.32 901.73,-62.23"/>
</g>
<!-- Signer::borrow_address -->
<g id="node21" class="node">
<title>Signer::borrow_address</title>
<ellipse fill="none" stroke="black" cx="109" cy="-117" rx="66.89" ry="18"/>
<text text-anchor="middle" x="109" y="-113.3" font-family="Times,serif" font-size="14.00">borrow_address</text>
</g>
<!-- Signer::address_of&#45;&gt;Signer::borrow_address -->
<g id="edge21" class="edge">
<title>Signer::address_of&#45;&gt;Signer::borrow_address</title>
<path fill="none" stroke="black" d="M109,-181.82C109,-171.19 109,-157.31 109,-145.2"/>
<polygon fill="black" stroke="black" points="112.5,-145.15 109,-135.15 105.5,-145.15 112.5,-145.15"/>
</g>
<!-- Errors::invalid_argument&#45;&gt;Errors::make -->
<g id="edge22" class="edge">
<title>Errors::invalid_argument&#45;&gt;Errors::make</title>
<path fill="none" stroke="black" d="M329.8,-101.8C372.79,-86.46 440.64,-62.25 481.77,-47.57"/>
<polygon fill="black" stroke="black" points="483.13,-50.8 491.37,-44.15 480.77,-44.21 483.13,-50.8"/>
</g>
<!-- Errors::limit_exceeded&#45;&gt;Errors::make -->
<g id="edge23" class="edge">
<title>Errors::limit_exceeded&#45;&gt;Errors::make</title>
<path fill="none" stroke="black" d="M460.71,-99.22C471.14,-87.32 485.26,-71.21 496.75,-58.1"/>
<polygon fill="black" stroke="black" points="499.55,-60.22 503.51,-50.39 494.28,-55.6 499.55,-60.22"/>
</g>
<!-- DiemTimestamp::now_microseconds -->
<g id="node22" class="node">
<title>DiemTimestamp::now_microseconds</title>
<ellipse fill="none" stroke="black" cx="995" cy="-283" rx="79.09" ry="18"/>
<text text-anchor="middle" x="995" y="-279.3" font-family="Times,serif" font-size="14.00">now_microseconds</text>
</g>
<!-- DiemTimestamp::now_seconds&#45;&gt;DiemTimestamp::now_microseconds -->
<g id="edge24" class="edge">
<title>DiemTimestamp::now_seconds&#45;&gt;DiemTimestamp::now_microseconds</title>
<path fill="none" stroke="black" d="M986.33,-347.82C987.78,-337.19 989.66,-323.31 991.31,-311.2"/>
<polygon fill="black" stroke="black" points="994.79,-311.53 992.67,-301.15 987.86,-310.59 994.79,-311.53"/>
</g>
<!-- CoreAddresses::TREASURY_COMPLIANCE_ADDRESS -->
<g id="node23" class="node">
<title>CoreAddresses::TREASURY_COMPLIANCE_ADDRESS</title>
<ellipse fill="none" stroke="black" cx="1203" cy="-34" rx="163.27" ry="18"/>
<text text-anchor="middle" x="1203" y="-30.3" font-family="Times,serif" font-size="14.00">TREASURY_COMPLIANCE_ADDRESS</text>
</g>
<!-- TransactionFee::is_coin_initialized&#45;&gt;CoreAddresses::TREASURY_COMPLIANCE_ADDRESS -->
<g id="edge25" class="edge">
<title>TransactionFee::is_coin_initialized&#45;&gt;CoreAddresses::TREASURY_COMPLIANCE_ADDRESS</title>
<path fill="none" stroke="black" d="M1203,-347.72C1203,-293.82 1203,-128.39 1203,-62.5"/>
<polygon fill="black" stroke="black" points="1206.5,-62.11 1203,-52.11 1199.5,-62.11 1206.5,-62.11"/>
</g>
<!-- ChainId::get&#45;&gt;CoreAddresses::DIEM_ROOT_ADDRESS -->
<g id="edge26" class="edge">
<title>ChainId::get&#45;&gt;CoreAddresses::DIEM_ROOT_ADDRESS</title>
<path fill="none" stroke="black" d="M1127.31,-264.97C1131.35,-227.46 1135.08,-137.36 1086,-91 1077.02,-82.52 1042.91,-86.28 1031,-83 1005.92,-76.1 979.02,-65.2 957.44,-55.54"/>
<polygon fill="black" stroke="black" points="958.78,-52.3 948.23,-51.34 955.88,-58.67 958.78,-52.3"/>
</g>
<!-- DiemTimestamp::assert_operating -->
<g id="node24" class="node">
<title>DiemTimestamp::assert_operating</title>
<ellipse fill="none" stroke="black" cx="1006" cy="-200" rx="68.49" ry="18"/>
<text text-anchor="middle" x="1006" y="-196.3" font-family="Times,serif" font-size="14.00">assert_operating</text>
</g>
<!-- ChainId::get&#45;&gt;DiemTimestamp::assert_operating -->
<g id="edge27" class="edge">
<title>ChainId::get&#45;&gt;DiemTimestamp::assert_operating</title>
<path fill="none" stroke="black" d="M1106.67,-269.52C1088.36,-257.06 1059.87,-237.67 1037.86,-222.69"/>
<polygon fill="black" stroke="black" points="1039.71,-219.71 1029.48,-216.98 1035.77,-225.5 1039.71,-219.71"/>
</g>
<!-- balance&#45;&gt;Errors::not_published -->
<g id="edge28" class="edge">
<title>balance&#45;&gt;Errors::not_published</title>
<path fill="none" stroke="black" d="M342.01,-347.99C329.74,-309.7 306.97,-216.76 358,-174 371.81,-162.42 502.94,-171.82 520,-166 535.82,-160.61 551.3,-150.43 563.58,-140.83"/>
<polygon fill="black" stroke="black" points="565.99,-143.37 571.53,-134.34 561.57,-137.95 565.99,-143.37"/>
</g>
<!-- balance_for -->
<g id="node25" class="node">
<title>balance_for</title>
<ellipse fill="none" stroke="black" cx="400" cy="-283" rx="51.99" ry="18"/>
<text text-anchor="middle" x="400" y="-279.3" font-family="Times,serif" font-size="14.00">balance_for</text>
</g>
<!-- balance&#45;&gt;balance_for -->
<g id="edge29" class="edge">
<title>balance&#45;&gt;balance_for</title>
<path fill="none" stroke="black" d="M358.52,-348.61C365.8,-337.27 375.63,-321.96 383.9,-309.09"/>
<polygon fill="black" stroke="black" points="386.86,-310.95 389.31,-300.65 380.97,-307.17 386.86,-310.95"/>
</g>
<!-- Roles::has_role&#45;&gt;Signer::address_of -->
<g id="edge30" class="edge">
<title>Roles::has_role&#45;&gt;Signer::address_of</title>
<path fill="none" stroke="black" d="M102.7,-264.82C103.75,-254.19 105.12,-240.31 106.31,-228.2"/>
<polygon fill="black" stroke="black" points="109.81,-228.45 107.31,-218.15 102.84,-227.76 109.81,-228.45"/>
</g>
<!-- Errors::not_published&#45;&gt;Errors::make -->
<g id="edge31" class="edge">
<title>Errors::not_published&#45;&gt;Errors::make</title>
<path fill="none" stroke="black" d="M574.08,-99.22C563.51,-87.32 549.19,-71.21 537.53,-58.1"/>
<polygon fill="black" stroke="black" points="539.94,-55.54 530.68,-50.39 534.71,-60.19 539.94,-55.54"/>
</g>
<!-- DiemTimestamp::now_microseconds&#45;&gt;CoreAddresses::DIEM_ROOT_ADDRESS -->
<g id="edge32" class="edge">
<title>DiemTimestamp::now_microseconds&#45;&gt;CoreAddresses::DIEM_ROOT_ADDRESS</title>
<path fill="none" stroke="black" d="M950.99,-268.03C942.39,-263.31 934.39,-257.11 929,-249 890.85,-191.55 900.58,-105.2 908.87,-61.85"/>
<polygon fill="black" stroke="black" points="912.3,-62.54 910.87,-52.05 905.44,-61.15 912.3,-62.54"/>
</g>
<!-- DiemTimestamp::now_microseconds&#45;&gt;DiemTimestamp::assert_operating -->
<g id="edge33" class="edge">
<title>DiemTimestamp::now_microseconds&#45;&gt;DiemTimestamp::assert_operating</title>
<path fill="none" stroke="black" d="M997.33,-264.82C998.78,-254.19 1000.66,-240.31 1002.31,-228.2"/>
<polygon fill="black" stroke="black" points="1005.79,-228.53 1003.67,-218.15 998.86,-227.59 1005.79,-228.53"/>
</g>
<!-- DiemTimestamp::assert_operating&#45;&gt;Errors::invalid_state -->
<g id="edge34" class="edge">
<title>DiemTimestamp::assert_operating&#45;&gt;Errors::invalid_state</title>
<path fill="none" stroke="black" d="M961.47,-186.25C910.43,-171.65 826.97,-147.76 773.54,-132.47"/>
<polygon fill="black" stroke="black" points="774.18,-129.01 763.6,-129.62 772.25,-135.74 774.18,-129.01"/>
</g>
<!-- DiemTimestamp::is_operating -->
<g id="node26" class="node">
<title>DiemTimestamp::is_operating</title>
<ellipse fill="none" stroke="black" cx="999" cy="-117" rx="53.89" ry="18"/>
<text text-anchor="middle" x="999" y="-113.3" font-family="Times,serif" font-size="14.00">is_operating</text>
</g>
<!-- DiemTimestamp::assert_operating&#45;&gt;DiemTimestamp::is_operating -->
<g id="edge35" class="edge">
<title>DiemTimestamp::assert_operating&#45;&gt;DiemTimestamp::is_operating</title>
<path fill="none" stroke="black" d="M1004.52,-181.82C1003.6,-171.19 1002.4,-157.31 1001.35,-145.2"/>
<polygon fill="black" stroke="black" points="1004.83,-144.81 1000.48,-135.15 997.86,-145.42 1004.83,-144.81"/>
</g>
<!-- Diem::value -->
<g id="node27" class="node">
<title>Diem::value</title>
<ellipse fill="none" stroke="black" cx="400" cy="-200" rx="29.8" ry="18"/>
<text text-anchor="middle" x="400" y="-196.3" font-family="Times,serif" font-size="14.00">value</text>
</g>
<!-- balance_for&#45;&gt;Diem::value -->
<g id="edge36" class="edge">
<title>balance_for&#45;&gt;Diem::value</title>
<path fill="none" stroke="black" d="M400,-264.82C400,-254.19 400,-240.31 400,-228.2"/>
<polygon fill="black" stroke="black" points="403.5,-228.15 400,-218.15 396.5,-228.15 403.5,-228.15"/>
</g>
<!-- DiemTimestamp::is_operating&#45;&gt;CoreAddresses::DIEM_ROOT_ADDRESS -->
<g id="edge37" class="edge">
<title>DiemTimestamp::is_operating&#45;&gt;CoreAddresses::DIEM_ROOT_ADDRESS</title>
<path fill="none" stroke="black" d="M982,-99.61C969.87,-87.91 953.35,-71.98 939.76,-58.87"/>
<polygon fill="black" stroke="black" points="942.18,-56.35 932.55,-51.92 937.32,-61.39 942.18,-56.35"/>
</g>
</g>
</svg>
