<?xml version="1.0" encoding="UTF-8" standalone="no"?>
<!DOCTYPE svg PUBLIC "-//W3C//DTD SVG 1.1//EN"
 "http://www.w3.org/Graphics/SVG/1.1/DTD/svg11.dtd">
<!-- Generated by graphviz version 2.46.1 (20210213.1702)
 -->
<!-- Title: G Pages: 1 -->
<svg width="1822pt" height="689pt"
 viewBox="0.00 0.00 1822.35 689.00" xmlns="http://www.w3.org/2000/svg" xmlns:xlink="http://www.w3.org/1999/xlink">
<g id="graph0" class="graph" transform="scale(1 1) rotate(0) translate(4 685)">
<title>G</title>
<polygon fill="white" stroke="transparent" points="-4,4 -4,-685 1818.35,-685 1818.35,4 -4,4"/>
<g id="clust1" class="cluster">
<title>cluster_Errors</title>
<polygon fill="none" stroke="black" points="696.75,-8 696.75,-166 1274.75,-166 1274.75,-8 696.75,-8"/>
<text text-anchor="middle" x="985.75" y="-150.8" font-family="Times,serif" font-size="14.00">Errors</text>
</g>
<g id="clust2" class="cluster">
<title>cluster_DiemTimestamp</title>
<polygon fill="none" stroke="black" points="449.75,-91 449.75,-321 623.75,-321 623.75,-91 449.75,-91"/>
<text text-anchor="middle" x="536.75" y="-305.8" font-family="Times,serif" font-size="14.00">DiemTimestamp</text>
</g>
<g id="clust3" class="cluster">
<title>cluster_Event</title>
<polygon fill="none" stroke="black" points="1536.75,-487 1536.75,-637 1722.75,-637 1722.75,-487 1536.75,-487"/>
<text text-anchor="middle" x="1629.75" y="-621.8" font-family="Times,serif" font-size="14.00">Event</text>
</g>
<g id="clust4" class="cluster">
<title>cluster_Diem</title>
<polygon fill="none" stroke="black" points="46.75,-91 46.75,-321 371.75,-321 371.75,-91 46.75,-91"/>
<text text-anchor="middle" x="209.25" y="-305.8" font-family="Times,serif" font-size="14.00">Diem</text>
</g>
<g id="clust5" class="cluster">
<title>cluster_CoreAddresses</title>
<polygon fill="none" stroke="black" points="39.75,-8 39.75,-83 543.75,-83 543.75,-8 39.75,-8"/>
<text text-anchor="middle" x="291.75" y="-67.8" font-family="Times,serif" font-size="14.00">CoreAddresses</text>
</g>
<g id="clust6" class="cluster">
<title>cluster_AccountLimits</title>
<polygon fill="none" stroke="black" points="995.75,-174 995.75,-396 1422.75,-396 1422.75,-174 995.75,-174"/>
<text text-anchor="middle" x="1209.25" y="-380.8" font-family="Times,serif" font-size="14.00">AccountLimits</text>
</g>
<g id="clust7" class="cluster">
<title>cluster_VASP</title>
<polygon fill="none" stroke="black" points="675.75,-246 675.75,-479 987.75,-479 987.75,-246 675.75,-246"/>
<text text-anchor="middle" x="831.75" y="-463.8" font-family="Times,serif" font-size="14.00">VASP</text>
</g>
<g id="clust8" class="cluster">
<title>cluster_AccountFreezing</title>
<polygon fill="none" stroke="black" points="393.75,-404 393.75,-562 559.75,-562 559.75,-404 393.75,-404"/>
<text text-anchor="middle" x="476.75" y="-546.8" font-family="Times,serif" font-size="14.00">AccountFreezing</text>
</g>
<!-- withdraw_from -->
<g id="node1" class="node">
<title>withdraw_from</title>
<ellipse fill="none" stroke="black" cx="1066.75" cy="-663" rx="65.79" ry="18"/>
<text text-anchor="middle" x="1066.75" y="-659.3" font-family="Times,serif" font-size="14.00">withdraw_from</text>
</g>
<!-- Errors::not_published -->
<g id="node2" class="node">
<title>Errors::not_published</title>
<ellipse fill="none" stroke="black" cx="1206.75" cy="-117" rx="60.39" ry="18"/>
<text text-anchor="middle" x="1206.75" y="-113.3" font-family="Times,serif" font-size="14.00">not_published</text>
</g>
<!-- withdraw_from&#45;&gt;Errors::not_published -->
<g id="edge1" class="edge">
<title>withdraw_from&#45;&gt;Errors::not_published</title>
<path fill="none" stroke="black" d="M1126.04,-655.13C1248.24,-639.32 1516.75,-595.32 1516.75,-514 1516.75,-514 1516.75,-514 1516.75,-271 1516.75,-164.27 1367.16,-131.99 1275.8,-122.23"/>
<polygon fill="black" stroke="black" points="1276.09,-118.74 1265.79,-121.22 1275.39,-125.71 1276.09,-118.74"/>
</g>
<!-- DiemTimestamp::assert_operating -->
<g id="node3" class="node">
<title>DiemTimestamp::assert_operating</title>
<ellipse fill="none" stroke="black" cx="525.75" cy="-200" rx="68.49" ry="18"/>
<text text-anchor="middle" x="525.75" y="-196.3" font-family="Times,serif" font-size="14.00">assert_operating</text>
</g>
<!-- withdraw_from&#45;&gt;DiemTimestamp::assert_operating -->
<g id="edge2" class="edge">
<title>withdraw_from&#45;&gt;DiemTimestamp::assert_operating</title>
<path fill="none" stroke="black" d="M1000.97,-661.96C850.89,-661.49 492.24,-658.14 441.75,-637 396.79,-618.18 381.12,-606.72 361.75,-562 348.5,-531.41 360.95,-520.32 361.75,-487 362.64,-450.08 359.98,-440.48 365.75,-404 371.44,-368.06 384.36,-273 408.75,-246 422.54,-230.73 442.1,-220.61 461.29,-213.9"/>
<polygon fill="black" stroke="black" points="462.5,-217.19 470.95,-210.79 460.36,-210.53 462.5,-217.19"/>
</g>
<!-- Event::emit_event -->
<g id="node4" class="node">
<title>Event::emit_event</title>
<ellipse fill="none" stroke="black" cx="1611.75" cy="-588" rx="50.09" ry="18"/>
<text text-anchor="middle" x="1611.75" y="-584.3" font-family="Times,serif" font-size="14.00">emit_event</text>
</g>
<!-- withdraw_from&#45;&gt;Event::emit_event -->
<g id="edge3" class="edge">
<title>withdraw_from&#45;&gt;Event::emit_event</title>
<path fill="none" stroke="black" d="M1132.65,-662.3C1242.53,-662.16 1458.28,-658.97 1530.75,-637 1549.58,-631.29 1568.61,-620.34 1583.49,-610.33"/>
<polygon fill="black" stroke="black" points="1585.52,-613.18 1591.74,-604.6 1581.53,-607.44 1585.52,-613.18"/>
</g>
<!-- Diem::currency_code -->
<g id="node5" class="node">
<title>Diem::currency_code</title>
<ellipse fill="none" stroke="black" cx="116.75" cy="-272" rx="62.29" ry="18"/>
<text text-anchor="middle" x="116.75" y="-268.3" font-family="Times,serif" font-size="14.00">currency_code</text>
</g>
<!-- withdraw_from&#45;&gt;Diem::currency_code -->
<g id="edge4" class="edge">
<title>withdraw_from&#45;&gt;Diem::currency_code</title>
<path fill="none" stroke="black" d="M1000.88,-661.97C805.49,-661.65 240.6,-658.82 207.75,-637 157.72,-603.77 151.75,-574.07 151.75,-514 151.75,-514 151.75,-514 151.75,-429 151.75,-382.62 136.83,-330.32 126.48,-299.59"/>
<polygon fill="black" stroke="black" points="129.75,-298.34 123.17,-290.03 123.13,-300.63 129.75,-298.34"/>
</g>
<!-- exists_at -->
<g id="node6" class="node">
<title>exists_at</title>
<ellipse fill="none" stroke="black" cx="1772.75" cy="-588" rx="41.69" ry="18"/>
<text text-anchor="middle" x="1772.75" y="-584.3" font-family="Times,serif" font-size="14.00">exists_at</text>
</g>
<!-- withdraw_from&#45;&gt;exists_at -->
<g id="edge5" class="edge">
<title>withdraw_from&#45;&gt;exists_at</title>
<path fill="none" stroke="black" d="M1132.5,-662.29C1288.82,-662.6 1673.6,-660.88 1726.75,-637 1738.03,-631.93 1747.93,-622.69 1755.63,-613.66"/>
<polygon fill="black" stroke="black" points="1758.58,-615.57 1762.05,-605.56 1753.1,-611.22 1758.58,-615.57"/>
</g>
<!-- withdraw_from_balance -->
<g id="node7" class="node">
<title>withdraw_from_balance</title>
<ellipse fill="none" stroke="black" cx="547.75" cy="-588" rx="96.68" ry="18"/>
<text text-anchor="middle" x="547.75" y="-584.3" font-family="Times,serif" font-size="14.00">withdraw_from_balance</text>
</g>
<!-- withdraw_from&#45;&gt;withdraw_from_balance -->
<g id="edge6" class="edge">
<title>withdraw_from&#45;&gt;withdraw_from_balance</title>
<path fill="none" stroke="black" d="M1009.72,-653.98C918.4,-641.13 738.83,-615.88 632.46,-600.92"/>
<polygon fill="black" stroke="black" points="632.79,-597.43 622.4,-599.5 631.82,-604.36 632.79,-597.43"/>
</g>
<!-- Errors::make -->
<g id="node8" class="node">
<title>Errors::make</title>
<ellipse fill="none" stroke="black" cx="985.75" cy="-34" rx="30.59" ry="18"/>
<text text-anchor="middle" x="985.75" y="-30.3" font-family="Times,serif" font-size="14.00">make</text>
</g>
<!-- Errors::not_published&#45;&gt;Errors::make -->
<g id="edge7" class="edge">
<title>Errors::not_published&#45;&gt;Errors::make</title>
<path fill="none" stroke="black" d="M1170.26,-102.62C1128.69,-87.39 1061.27,-62.68 1020.46,-47.72"/>
<polygon fill="black" stroke="black" points="1021.53,-44.39 1010.94,-44.23 1019.12,-50.96 1021.53,-44.39"/>
</g>
<!-- Errors::invalid_state -->
<g id="node9" class="node">
<title>Errors::invalid_state</title>
<ellipse fill="none" stroke="black" cx="760.75" cy="-117" rx="55.79" ry="18"/>
<text text-anchor="middle" x="760.75" y="-113.3" font-family="Times,serif" font-size="14.00">invalid_state</text>
</g>
<!-- DiemTimestamp::assert_operating&#45;&gt;Errors::invalid_state -->
<g id="edge8" class="edge">
<title>DiemTimestamp::assert_operating&#45;&gt;Errors::invalid_state</title>
<path fill="none" stroke="black" d="M568.04,-185.67C586.43,-179.78 608.2,-172.69 627.75,-166 657.3,-155.89 690.34,-143.97 716.09,-134.54"/>
<polygon fill="black" stroke="black" points="717.4,-137.79 725.58,-131.06 714.99,-131.22 717.4,-137.79"/>
</g>
<!-- DiemTimestamp::is_operating -->
<g id="node10" class="node">
<title>DiemTimestamp::is_operating</title>
<ellipse fill="none" stroke="black" cx="518.75" cy="-117" rx="53.89" ry="18"/>
<text text-anchor="middle" x="518.75" y="-113.3" font-family="Times,serif" font-size="14.00">is_operating</text>
</g>
<!-- DiemTimestamp::assert_operating&#45;&gt;DiemTimestamp::is_operating -->
<g id="edge9" class="edge">
<title>DiemTimestamp::assert_operating&#45;&gt;DiemTimestamp::is_operating</title>
<path fill="none" stroke="black" d="M524.26,-181.82C523.35,-171.19 522.15,-157.31 521.1,-145.2"/>
<polygon fill="black" stroke="black" points="524.58,-144.81 520.23,-135.15 517.61,-145.42 524.58,-144.81"/>
</g>
<!-- Event::write_to_event_store -->
<g id="node11" class="node">
<title>Event::write_to_event_store</title>
<ellipse fill="none" stroke="black" cx="1629.75" cy="-513" rx="85.29" ry="18"/>
<text text-anchor="middle" x="1629.75" y="-509.3" font-family="Times,serif" font-size="14.00">write_to_event_store</text>
</g>
<!-- Event::emit_event&#45;&gt;Event::write_to_event_store -->
<g id="edge10" class="edge">
<title>Event::emit_event&#45;&gt;Event::write_to_event_store</title>
<path fill="none" stroke="black" d="M1616.01,-569.7C1618.12,-561.15 1620.71,-550.65 1623.07,-541.07"/>
<polygon fill="black" stroke="black" points="1626.52,-541.72 1625.51,-531.18 1619.72,-540.05 1626.52,-541.72"/>
</g>
<!-- CoreAddresses::CURRENCY_INFO_ADDRESS -->
<g id="node12" class="node">
<title>CoreAddresses::CURRENCY_INFO_ADDRESS</title>
<ellipse fill="none" stroke="black" cx="175.75" cy="-34" rx="128.08" ry="18"/>
<text text-anchor="middle" x="175.75" y="-30.3" font-family="Times,serif" font-size="14.00">CURRENCY_INFO_ADDRESS</text>
</g>
<!-- Diem::currency_code&#45;&gt;CoreAddresses::CURRENCY_INFO_ADDRESS -->
<g id="edge11" class="edge">
<title>Diem::currency_code&#45;&gt;CoreAddresses::CURRENCY_INFO_ADDRESS</title>
<path fill="none" stroke="black" d="M105.97,-254.08C100.21,-244.03 93.71,-230.78 90.75,-218 86.33,-198.95 88.01,-193.36 90.75,-174 96.14,-135.98 94.52,-123.64 114.75,-91 122.35,-78.73 133.38,-67.47 143.97,-58.32"/>
<polygon fill="black" stroke="black" points="146.44,-60.81 151.92,-51.74 141.98,-55.42 146.44,-60.81"/>
</g>
<!-- Diem::assert_is_currency -->
<g id="node13" class="node">
<title>Diem::assert_is_currency</title>
<ellipse fill="none" stroke="black" cx="175.75" cy="-200" rx="76.09" ry="18"/>
<text text-anchor="middle" x="175.75" y="-196.3" font-family="Times,serif" font-size="14.00">assert_is_currency</text>
</g>
<!-- Diem::currency_code&#45;&gt;Diem::assert_is_currency -->
<g id="edge12" class="edge">
<title>Diem::currency_code&#45;&gt;Diem::assert_is_currency</title>
<path fill="none" stroke="black" d="M130.73,-254.41C137.97,-245.82 146.96,-235.16 154.99,-225.63"/>
<polygon fill="black" stroke="black" points="157.69,-227.86 161.46,-217.96 152.34,-223.35 157.69,-227.86"/>
</g>
<!-- withdraw_from_balance&#45;&gt;DiemTimestamp::assert_operating -->
<g id="edge15" class="edge">
<title>withdraw_from_balance&#45;&gt;DiemTimestamp::assert_operating</title>
<path fill="none" stroke="black" d="M455.42,-582.49C426.16,-578.99 398.99,-572.82 389.75,-562 344.14,-508.61 377.27,-473.1 389.75,-404 396.41,-367.12 424.61,-274.67 448.75,-246 457.49,-235.62 469.27,-227.07 480.99,-220.31"/>
<polygon fill="black" stroke="black" points="482.75,-223.34 489.88,-215.5 479.42,-217.18 482.75,-223.34"/>
</g>
<!-- Errors::limit_exceeded -->
<g id="node14" class="node">
<title>Errors::limit_exceeded</title>
<ellipse fill="none" stroke="black" cx="1063.75" cy="-117" rx="64.99" ry="18"/>
<text text-anchor="middle" x="1063.75" y="-113.3" font-family="Times,serif" font-size="14.00">limit_exceeded</text>
</g>
<!-- withdraw_from_balance&#45;&gt;Errors::limit_exceeded -->
<g id="edge13" class="edge">
<title>withdraw_from_balance&#45;&gt;Errors::limit_exceeded</title>
<path fill="none" stroke="black" d="M644.24,-586.08C776.15,-584.21 1005.77,-578.61 1087.75,-562 1252.58,-528.61 1442.75,-599.18 1442.75,-431 1442.75,-431 1442.75,-431 1442.75,-346 1442.75,-269.23 1482.77,-226.49 1426.75,-174 1415.03,-163.02 1153.09,-170.77 1137.75,-166 1120.84,-160.74 1104.1,-150.43 1090.83,-140.72"/>
<polygon fill="black" stroke="black" points="1092.72,-137.76 1082.65,-134.47 1088.48,-143.32 1092.72,-137.76"/>
</g>
<!-- CoreAddresses::DIEM_ROOT_ADDRESS -->
<g id="node15" class="node">
<title>CoreAddresses::DIEM_ROOT_ADDRESS</title>
<ellipse fill="none" stroke="black" cx="428.75" cy="-34" rx="106.68" ry="18"/>
<text text-anchor="middle" x="428.75" y="-30.3" font-family="Times,serif" font-size="14.00">DIEM_ROOT_ADDRESS</text>
</g>
<!-- withdraw_from_balance&#45;&gt;CoreAddresses::DIEM_ROOT_ADDRESS -->
<g id="edge14" class="edge">
<title>withdraw_from_balance&#45;&gt;CoreAddresses::DIEM_ROOT_ADDRESS</title>
<path fill="none" stroke="black" d="M473.03,-576.45C454.65,-574.09 435.01,-571.77 416.75,-570 389.04,-567.32 317.2,-573.26 291.75,-562 221.33,-530.85 72.8,-391.9 42.75,-321 2.86,-226.88 -28.45,-164.34 42.75,-91 53.2,-80.23 298.07,-86.14 312.75,-83 338.92,-77.39 366.69,-66.12 388.48,-55.9"/>
<polygon fill="black" stroke="black" points="390.24,-58.94 397.75,-51.46 387.22,-52.63 390.24,-58.94"/>
</g>
<!-- Diem::value -->
<g id="node16" class="node">
<title>Diem::value</title>
<ellipse fill="none" stroke="black" cx="333.75" cy="-272" rx="29.8" ry="18"/>
<text text-anchor="middle" x="333.75" y="-268.3" font-family="Times,serif" font-size="14.00">value</text>
</g>
<!-- withdraw_from_balance&#45;&gt;Diem::value -->
<g id="edge16" class="edge">
<title>withdraw_from_balance&#45;&gt;Diem::value</title>
<path fill="none" stroke="black" d="M452.17,-585.1C412.63,-582.19 372.93,-575.76 359.75,-562 290.82,-490.08 312.87,-356.82 326.47,-299.9"/>
<polygon fill="black" stroke="black" points="329.94,-300.44 328.97,-289.89 323.15,-298.74 329.94,-300.44"/>
</g>
<!-- Diem::withdraw -->
<g id="node17" class="node">
<title>Diem::withdraw</title>
<ellipse fill="none" stroke="black" cx="241.75" cy="-272" rx="44.39" ry="18"/>
<text text-anchor="middle" x="241.75" y="-268.3" font-family="Times,serif" font-size="14.00">withdraw</text>
</g>
<!-- withdraw_from_balance&#45;&gt;Diem::withdraw -->
<g id="edge17" class="edge">
<title>withdraw_from_balance&#45;&gt;Diem::withdraw</title>
<path fill="none" stroke="black" d="M456.21,-582.08C396.07,-578.01 326.56,-571.37 315.75,-562 313.21,-559.8 266.24,-371.56 248.47,-300.1"/>
<polygon fill="black" stroke="black" points="251.79,-298.92 245.98,-290.06 244.99,-300.61 251.79,-298.92"/>
</g>
<!-- AccountLimits::update_withdrawal_limits -->
<g id="node18" class="node">
<title>AccountLimits::update_withdrawal_limits</title>
<ellipse fill="none" stroke="black" cx="1311.75" cy="-347" rx="102.88" ry="18"/>
<text text-anchor="middle" x="1311.75" y="-343.3" font-family="Times,serif" font-size="14.00">update_withdrawal_limits</text>
</g>
<!-- withdraw_from_balance&#45;&gt;AccountLimits::update_withdrawal_limits -->
<g id="edge18" class="edge">
<title>withdraw_from_balance&#45;&gt;AccountLimits::update_withdrawal_limits</title>
<path fill="none" stroke="black" d="M641.66,-583.56C809.27,-575.65 1150.97,-550.94 1242.75,-479 1276.41,-452.62 1295.46,-405.19 1304.68,-375.22"/>
<polygon fill="black" stroke="black" points="1308.1,-375.99 1307.53,-365.41 1301.38,-374.03 1308.1,-375.99"/>
</g>
<!-- VASP::parent_address -->
<g id="node19" class="node">
<title>VASP::parent_address</title>
<ellipse fill="none" stroke="black" cx="747.75" cy="-347" rx="63.89" ry="18"/>
<text text-anchor="middle" x="747.75" y="-343.3" font-family="Times,serif" font-size="14.00">parent_address</text>
</g>
<!-- withdraw_from_balance&#45;&gt;VASP::parent_address -->
<g id="edge19" class="edge">
<title>withdraw_from_balance&#45;&gt;VASP::parent_address</title>
<path fill="none" stroke="black" d="M558.87,-569.85C560.53,-567.23 562.2,-564.55 563.75,-562 605.82,-492.74 598.01,-461.86 654.75,-404 669.22,-389.24 688.37,-376.85 705.52,-367.5"/>
<polygon fill="black" stroke="black" points="707.58,-370.38 714.81,-362.63 704.33,-364.18 707.58,-370.38"/>
</g>
<!-- AccountFreezing::assert_not_frozen -->
<g id="node20" class="node">
<title>AccountFreezing::assert_not_frozen</title>
<ellipse fill="none" stroke="black" cx="478.75" cy="-513" rx="73.39" ry="18"/>
<text text-anchor="middle" x="478.75" y="-509.3" font-family="Times,serif" font-size="14.00">assert_not_frozen</text>
</g>
<!-- withdraw_from_balance&#45;&gt;AccountFreezing::assert_not_frozen -->
<g id="edge20" class="edge">
<title>withdraw_from_balance&#45;&gt;AccountFreezing::assert_not_frozen</title>
<path fill="none" stroke="black" d="M531.75,-570.07C522.71,-560.51 511.27,-548.41 501.34,-537.9"/>
<polygon fill="black" stroke="black" points="503.84,-535.45 494.43,-530.59 498.75,-540.26 503.84,-535.45"/>
</g>
<!-- should_track_limits_for_account -->
<g id="node21" class="node">
<title>should_track_limits_for_account</title>
<ellipse fill="none" stroke="black" cx="772.75" cy="-513" rx="127.28" ry="18"/>
<text text-anchor="middle" x="772.75" y="-509.3" font-family="Times,serif" font-size="14.00">should_track_limits_for_account</text>
</g>
<!-- withdraw_from_balance&#45;&gt;should_track_limits_for_account -->
<g id="edge21" class="edge">
<title>withdraw_from_balance&#45;&gt;should_track_limits_for_account</title>
<path fill="none" stroke="black" d="M597.59,-572.51C608.85,-569.14 620.73,-565.51 631.75,-562 660.26,-552.91 691.8,-542.23 717.81,-533.25"/>
<polygon fill="black" stroke="black" points="719.19,-536.48 727.49,-529.91 716.9,-529.87 719.19,-536.48"/>
</g>
<!-- Errors::invalid_state&#45;&gt;Errors::make -->
<g id="edge22" class="edge">
<title>Errors::invalid_state&#45;&gt;Errors::make</title>
<path fill="none" stroke="black" d="M794.75,-102.7C804.71,-98.86 815.65,-94.71 825.75,-91 868.44,-75.32 917.88,-58.17 950.38,-47.03"/>
<polygon fill="black" stroke="black" points="951.56,-50.33 959.89,-43.78 949.3,-43.7 951.56,-50.33"/>
</g>
<!-- DiemTimestamp::is_operating&#45;&gt;CoreAddresses::DIEM_ROOT_ADDRESS -->
<g id="edge23" class="edge">
<title>DiemTimestamp::is_operating&#45;&gt;CoreAddresses::DIEM_ROOT_ADDRESS</title>
<path fill="none" stroke="black" d="M500.97,-100C487.91,-88.25 469.97,-72.1 455.23,-58.83"/>
<polygon fill="black" stroke="black" points="457.2,-55.89 447.42,-51.81 452.51,-61.1 457.2,-55.89"/>
</g>
<!-- Diem::assert_is_currency&#45;&gt;Errors::not_published -->
<g id="edge24" class="edge">
<title>Diem::assert_is_currency&#45;&gt;Errors::not_published</title>
<path fill="none" stroke="black" d="M242.49,-191.31C297.07,-185.38 376.29,-177.61 445.75,-174 484.14,-172 1101.13,-177.72 1137.75,-166 1153.78,-160.87 1169.38,-150.61 1181.68,-140.89"/>
<polygon fill="black" stroke="black" points="1184.15,-143.39 1189.63,-134.32 1179.69,-138 1184.15,-143.39"/>
</g>
<!-- Diem::is_currency -->
<g id="node22" class="node">
<title>Diem::is_currency</title>
<ellipse fill="none" stroke="black" cx="175.75" cy="-117" rx="51.99" ry="18"/>
<text text-anchor="middle" x="175.75" y="-113.3" font-family="Times,serif" font-size="14.00">is_currency</text>
</g>
<!-- Diem::assert_is_currency&#45;&gt;Diem::is_currency -->
<g id="edge25" class="edge">
<title>Diem::assert_is_currency&#45;&gt;Diem::is_currency</title>
<path fill="none" stroke="black" d="M175.75,-181.82C175.75,-171.19 175.75,-157.31 175.75,-145.2"/>
<polygon fill="black" stroke="black" points="179.25,-145.15 175.75,-135.15 172.25,-145.15 179.25,-145.15"/>
</g>
<!-- Errors::limit_exceeded&#45;&gt;Errors::make -->
<g id="edge26" class="edge">
<title>Errors::limit_exceeded&#45;&gt;Errors::make</title>
<path fill="none" stroke="black" d="M1047.59,-99.22C1035.95,-87.13 1020.12,-70.69 1007.39,-57.48"/>
<polygon fill="black" stroke="black" points="1009.77,-54.9 1000.31,-50.12 1004.73,-59.75 1009.77,-54.9"/>
</g>
<!-- Diem::withdraw&#45;&gt;Errors::limit_exceeded -->
<g id="edge27" class="edge">
<title>Diem::withdraw&#45;&gt;Errors::limit_exceeded</title>
<path fill="none" stroke="black" d="M264.11,-256.38C300.43,-233.57 375.29,-190.44 445.75,-174 504.62,-160.26 931.91,-183.58 989.75,-166 1006.82,-160.81 1023.67,-150.41 1036.98,-140.61"/>
<polygon fill="black" stroke="black" points="1039.37,-143.18 1045.17,-134.32 1035.11,-137.63 1039.37,-143.18"/>
</g>
<!-- AccountLimits::update_withdrawal_limits&#45;&gt;Errors::not_published -->
<g id="edge28" class="edge">
<title>AccountLimits::update_withdrawal_limits&#45;&gt;Errors::not_published</title>
<path fill="none" stroke="black" d="M1373.47,-332.5C1378.2,-329.41 1382.43,-325.63 1385.75,-321 1405.18,-293.92 1397.22,-277.3 1385.75,-246 1364.81,-188.9 1300.71,-153.32 1255.21,-134.58"/>
<polygon fill="black" stroke="black" points="1256.39,-131.28 1245.81,-130.83 1253.8,-137.78 1256.39,-131.28"/>
</g>
<!-- AccountLimits::can_withdraw_and_update_window -->
<g id="node23" class="node">
<title>AccountLimits::can_withdraw_and_update_window</title>
<ellipse fill="none" stroke="black" cx="1238.75" cy="-272" rx="137.58" ry="18"/>
<text text-anchor="middle" x="1238.75" y="-268.3" font-family="Times,serif" font-size="14.00">can_withdraw_and_update_window</text>
</g>
<!-- AccountLimits::update_withdrawal_limits&#45;&gt;AccountLimits::can_withdraw_and_update_window -->
<g id="edge29" class="edge">
<title>AccountLimits::update_withdrawal_limits&#45;&gt;AccountLimits::can_withdraw_and_update_window</title>
<path fill="none" stroke="black" d="M1294.82,-329.07C1285.4,-319.65 1273.5,-307.75 1263.1,-297.35"/>
<polygon fill="black" stroke="black" points="1265.39,-294.69 1255.84,-290.09 1260.44,-299.64 1265.39,-294.69"/>
</g>
<!-- Errors::invalid_argument -->
<g id="node24" class="node">
<title>Errors::invalid_argument</title>
<ellipse fill="none" stroke="black" cx="907.75" cy="-117" rx="73.39" ry="18"/>
<text text-anchor="middle" x="907.75" y="-113.3" font-family="Times,serif" font-size="14.00">invalid_argument</text>
</g>
<!-- VASP::parent_address&#45;&gt;Errors::invalid_argument -->
<g id="edge30" class="edge">
<title>VASP::parent_address&#45;&gt;Errors::invalid_argument</title>
<path fill="none" stroke="black" d="M742.31,-328.71C736.81,-307.93 730.79,-272.54 743.75,-246 757.64,-217.53 829.5,-167.98 873.36,-139.6"/>
<polygon fill="black" stroke="black" points="875.47,-142.4 882,-134.05 871.69,-136.51 875.47,-142.4"/>
</g>
<!-- VASP::is_child -->
<g id="node25" class="node">
<title>VASP::is_child</title>
<ellipse fill="none" stroke="black" cx="790.75" cy="-272" rx="38.19" ry="18"/>
<text text-anchor="middle" x="790.75" y="-268.3" font-family="Times,serif" font-size="14.00">is_child</text>
</g>
<!-- VASP::parent_address&#45;&gt;VASP::is_child -->
<g id="edge31" class="edge">
<title>VASP::parent_address&#45;&gt;VASP::is_child</title>
<path fill="none" stroke="black" d="M757.72,-329.07C763.08,-319.98 769.79,-308.58 775.76,-298.44"/>
<polygon fill="black" stroke="black" points="778.92,-299.98 780.98,-289.59 772.89,-296.43 778.92,-299.98"/>
</g>
<!-- VASP::is_parent -->
<g id="node26" class="node">
<title>VASP::is_parent</title>
<ellipse fill="none" stroke="black" cx="889.75" cy="-272" rx="42.79" ry="18"/>
<text text-anchor="middle" x="889.75" y="-268.3" font-family="Times,serif" font-size="14.00">is_parent</text>
</g>
<!-- VASP::parent_address&#45;&gt;VASP::is_parent -->
<g id="edge32" class="edge">
<title>VASP::parent_address&#45;&gt;VASP::is_parent</title>
<path fill="none" stroke="black" d="M799.39,-336.15C812.4,-332.48 825.99,-327.55 837.75,-321 849.04,-314.71 859.83,-305.49 868.63,-296.8"/>
<polygon fill="black" stroke="black" points="871.36,-299.01 875.81,-289.39 866.33,-294.14 871.36,-299.01"/>
</g>
<!-- AccountFreezing::assert_not_frozen&#45;&gt;Errors::invalid_state -->
<g id="edge33" class="edge">
<title>AccountFreezing::assert_not_frozen&#45;&gt;Errors::invalid_state</title>
<path fill="none" stroke="black" d="M527.34,-499.28C539.3,-494.42 551.36,-487.83 560.75,-479 571.2,-469.18 664.55,-258.4 671.75,-246 693.39,-208.73 722.54,-168.31 741.49,-143.07"/>
<polygon fill="black" stroke="black" points="744.5,-144.89 747.73,-134.8 738.91,-140.67 744.5,-144.89"/>
</g>
<!-- AccountFreezing::account_is_frozen -->
<g id="node27" class="node">
<title>AccountFreezing::account_is_frozen</title>
<ellipse fill="none" stroke="black" cx="476.75" cy="-430" rx="75.29" ry="18"/>
<text text-anchor="middle" x="476.75" y="-426.3" font-family="Times,serif" font-size="14.00">account_is_frozen</text>
</g>
<!-- AccountFreezing::assert_not_frozen&#45;&gt;AccountFreezing::account_is_frozen -->
<g id="edge34" class="edge">
<title>AccountFreezing::assert_not_frozen&#45;&gt;AccountFreezing::account_is_frozen</title>
<path fill="none" stroke="black" d="M478.32,-494.82C478.06,-484.19 477.72,-470.31 477.42,-458.2"/>
<polygon fill="black" stroke="black" points="480.92,-458.06 477.17,-448.15 473.92,-458.24 480.92,-458.06"/>
</g>
<!-- VASP::is_same_vasp -->
<g id="node28" class="node">
<title>VASP::is_same_vasp</title>
<ellipse fill="none" stroke="black" cx="743.75" cy="-430" rx="59.59" ry="18"/>
<text text-anchor="middle" x="743.75" y="-426.3" font-family="Times,serif" font-size="14.00">is_same_vasp</text>
</g>
<!-- should_track_limits_for_account&#45;&gt;VASP::is_same_vasp -->
<g id="edge35" class="edge">
<title>should_track_limits_for_account&#45;&gt;VASP::is_same_vasp</title>
<path fill="none" stroke="black" d="M766.6,-494.82C762.75,-484.08 757.72,-470.03 753.36,-457.84"/>
<polygon fill="black" stroke="black" points="756.56,-456.39 749.89,-448.15 749.97,-458.75 756.56,-456.39"/>
</g>
<!-- VASP::is_vasp -->
<g id="node29" class="node">
<title>VASP::is_vasp</title>
<ellipse fill="none" stroke="black" cx="866.75" cy="-347" rx="37.09" ry="18"/>
<text text-anchor="middle" x="866.75" y="-343.3" font-family="Times,serif" font-size="14.00">is_vasp</text>
</g>
<!-- should_track_limits_for_account&#45;&gt;VASP::is_vasp -->
<g id="edge36" class="edge">
<title>should_track_limits_for_account&#45;&gt;VASP::is_vasp</title>
<path fill="none" stroke="black" d="M697.98,-498.24C688.89,-493.56 680.72,-487.31 674.75,-479 655.3,-451.93 651.83,-428.21 674.75,-404 685.92,-392.2 805.99,-402.78 820.75,-396 831.99,-390.83 841.88,-381.58 849.58,-372.57"/>
<polygon fill="black" stroke="black" points="852.53,-374.48 856.02,-364.48 847.05,-370.13 852.53,-374.48"/>
</g>
<!-- has_published_account_limits -->
<g id="node30" class="node">
<title>has_published_account_limits</title>
<ellipse fill="none" stroke="black" cx="1115.75" cy="-430" rx="117.78" ry="18"/>
<text text-anchor="middle" x="1115.75" y="-426.3" font-family="Times,serif" font-size="14.00">has_published_account_limits</text>
</g>
<!-- should_track_limits_for_account&#45;&gt;has_published_account_limits -->
<g id="edge37" class="edge">
<title>should_track_limits_for_account&#45;&gt;has_published_account_limits</title>
<path fill="none" stroke="black" d="M872.08,-501.73C909.92,-496.59 953.19,-489.23 991.75,-479 1018.61,-471.87 1047.64,-460.83 1070.85,-451.13"/>
<polygon fill="black" stroke="black" points="1072.25,-454.34 1080.09,-447.21 1069.52,-447.89 1072.25,-454.34"/>
</g>
<!-- Diem::is_currency&#45;&gt;CoreAddresses::CURRENCY_INFO_ADDRESS -->
<g id="edge38" class="edge">
<title>Diem::is_currency&#45;&gt;CoreAddresses::CURRENCY_INFO_ADDRESS</title>
<path fill="none" stroke="black" d="M175.75,-98.82C175.75,-88.19 175.75,-74.31 175.75,-62.2"/>
<polygon fill="black" stroke="black" points="179.25,-62.15 175.75,-52.15 172.25,-62.15 179.25,-62.15"/>
</g>
<!-- AccountLimits::can_withdraw_and_update_window&#45;&gt;Errors::not_published -->
<g id="edge40" class="edge">
<title>AccountLimits::can_withdraw_and_update_window&#45;&gt;Errors::not_published</title>
<path fill="none" stroke="black" d="M1271.86,-254.43C1285.62,-245.65 1300.14,-233.45 1307.75,-218 1316.39,-200.46 1317.67,-190.85 1307.75,-174 1296.82,-155.44 1277.28,-142.6 1258.28,-133.94"/>
<polygon fill="black" stroke="black" points="1259.61,-130.7 1249.03,-130.02 1256.87,-137.15 1259.61,-130.7"/>
</g>
<!-- AccountLimits::can_withdraw_and_update_window&#45;&gt;Errors::limit_exceeded -->
<g id="edge39" class="edge">
<title>AccountLimits::can_withdraw_and_update_window&#45;&gt;Errors::limit_exceeded</title>
<path fill="none" stroke="black" d="M1254.68,-253.78C1272.41,-232.54 1295.95,-196.47 1274.75,-174 1264.29,-162.91 1152.24,-170.75 1137.75,-166 1120.92,-160.48 1104.19,-150.15 1090.91,-140.48"/>
<polygon fill="black" stroke="black" points="1092.8,-137.52 1082.71,-134.28 1088.58,-143.11 1092.8,-137.52"/>
</g>
<!-- AccountLimits::is_unrestricted -->
<g id="node31" class="node">
<title>AccountLimits::is_unrestricted</title>
<ellipse fill="none" stroke="black" cx="1203.75" cy="-200" rx="62.29" ry="18"/>
<text text-anchor="middle" x="1203.75" y="-196.3" font-family="Times,serif" font-size="14.00">is_unrestricted</text>
</g>
<!-- AccountLimits::can_withdraw_and_update_window&#45;&gt;AccountLimits::is_unrestricted -->
<g id="edge41" class="edge">
<title>AccountLimits::can_withdraw_and_update_window&#45;&gt;AccountLimits::is_unrestricted</title>
<path fill="none" stroke="black" d="M1230.1,-253.7C1226.11,-245.73 1221.3,-236.1 1216.88,-227.26"/>
<polygon fill="black" stroke="black" points="1219.9,-225.48 1212.3,-218.1 1213.64,-228.61 1219.9,-225.48"/>
</g>
<!-- AccountLimits::reset_window -->
<g id="node32" class="node">
<title>AccountLimits::reset_window</title>
<ellipse fill="none" stroke="black" cx="1063.75" cy="-200" rx="59.59" ry="18"/>
<text text-anchor="middle" x="1063.75" y="-196.3" font-family="Times,serif" font-size="14.00">reset_window</text>
</g>
<!-- AccountLimits::can_withdraw_and_update_window&#45;&gt;AccountLimits::reset_window -->
<g id="edge42" class="edge">
<title>AccountLimits::can_withdraw_and_update_window&#45;&gt;AccountLimits::reset_window</title>
<path fill="none" stroke="black" d="M1198.16,-254.76C1171.06,-243.93 1135.45,-229.68 1107.68,-218.57"/>
<polygon fill="black" stroke="black" points="1108.8,-215.25 1098.22,-214.79 1106.2,-221.75 1108.8,-215.25"/>
</g>
<!-- Errors::invalid_argument&#45;&gt;Errors::make -->
<g id="edge43" class="edge">
<title>Errors::invalid_argument&#45;&gt;Errors::make</title>
<path fill="none" stroke="black" d="M923.91,-99.22C935.55,-87.13 951.38,-70.69 964.1,-57.48"/>
<polygon fill="black" stroke="black" points="966.77,-59.75 971.19,-50.12 961.73,-54.9 966.77,-59.75"/>
</g>
<!-- VASP::is_same_vasp&#45;&gt;VASP::parent_address -->
<g id="edge45" class="edge">
<title>VASP::is_same_vasp&#45;&gt;VASP::parent_address</title>
<path fill="none" stroke="black" d="M744.6,-411.82C745.12,-401.19 745.81,-387.31 746.41,-375.2"/>
<polygon fill="black" stroke="black" points="749.9,-375.31 746.9,-365.15 742.91,-374.97 749.9,-375.31"/>
</g>
<!-- VASP::is_same_vasp&#45;&gt;VASP::is_vasp -->
<g id="edge44" class="edge">
<title>VASP::is_same_vasp&#45;&gt;VASP::is_vasp</title>
<path fill="none" stroke="black" d="M782.15,-416.08C795,-410.85 809.03,-404.12 820.75,-396 830.38,-389.33 839.61,-380.39 847.24,-372.05"/>
<polygon fill="black" stroke="black" points="850.06,-374.14 854.03,-364.31 844.8,-369.52 850.06,-374.14"/>
</g>
<!-- VASP::is_vasp&#45;&gt;VASP::is_child -->
<g id="edge46" class="edge">
<title>VASP::is_vasp&#45;&gt;VASP::is_child</title>
<path fill="none" stroke="black" d="M849.06,-331.16C845.27,-327.88 841.34,-324.37 837.75,-321 829.46,-313.22 820.66,-304.4 812.95,-296.47"/>
<polygon fill="black" stroke="black" points="815.12,-293.67 805.66,-288.9 810.08,-298.53 815.12,-293.67"/>
</g>
<!-- VASP::is_vasp&#45;&gt;VASP::is_parent -->
<g id="edge47" class="edge">
<title>VASP::is_vasp&#45;&gt;VASP::is_parent</title>
<path fill="none" stroke="black" d="M872.08,-329.07C874.82,-320.38 878.22,-309.59 881.31,-299.8"/>
<polygon fill="black" stroke="black" points="884.7,-300.68 884.36,-290.09 878.02,-298.58 884.7,-300.68"/>
</g>
<!-- has_published_account_limits&#45;&gt;VASP::is_vasp -->
<g id="edge50" class="edge">
<title>has_published_account_limits&#45;&gt;VASP::is_vasp</title>
<path fill="none" stroke="black" d="M1055.77,-414.41C1035.32,-409.08 1012.41,-402.7 991.75,-396 961.49,-386.19 927.86,-373.16 903.12,-363.14"/>
<polygon fill="black" stroke="black" points="904.34,-359.86 893.76,-359.33 901.7,-366.35 904.34,-359.86"/>
</g>
<!-- AccountLimits::has_window_published -->
<g id="node33" class="node">
<title>AccountLimits::has_window_published</title>
<ellipse fill="none" stroke="black" cx="1097.75" cy="-347" rx="93.68" ry="18"/>
<text text-anchor="middle" x="1097.75" y="-343.3" font-family="Times,serif" font-size="14.00">has_window_published</text>
</g>
<!-- has_published_account_limits&#45;&gt;AccountLimits::has_window_published -->
<g id="edge48" class="edge">
<title>has_published_account_limits&#45;&gt;AccountLimits::has_window_published</title>
<path fill="none" stroke="black" d="M1111.93,-411.82C1109.57,-401.19 1106.48,-387.31 1103.79,-375.2"/>
<polygon fill="black" stroke="black" points="1107.15,-374.16 1101.56,-365.15 1100.31,-375.67 1107.15,-374.16"/>
</g>
<!-- VASP::has_account_limits -->
<g id="node34" class="node">
<title>VASP::has_account_limits</title>
<ellipse fill="none" stroke="black" cx="900.75" cy="-430" rx="79.09" ry="18"/>
<text text-anchor="middle" x="900.75" y="-426.3" font-family="Times,serif" font-size="14.00">has_account_limits</text>
</g>
<!-- has_published_account_limits&#45;&gt;VASP::has_account_limits -->
<g id="edge49" class="edge">
<title>has_published_account_limits&#45;&gt;VASP::has_account_limits</title>
<path fill="none" stroke="black" d="M997.86,-430C995.37,-430 992.87,-430 990.38,-430"/>
<polygon fill="black" stroke="black" points="990.11,-426.5 980.11,-430 990.11,-433.5 990.11,-426.5"/>
</g>
<!-- AccountLimits::reset_window&#45;&gt;Errors::limit_exceeded -->
<g id="edge51" class="edge">
<title>AccountLimits::reset_window&#45;&gt;Errors::limit_exceeded</title>
<path fill="none" stroke="black" d="M1063.75,-181.82C1063.75,-171.19 1063.75,-157.31 1063.75,-145.2"/>
<polygon fill="black" stroke="black" points="1067.25,-145.15 1063.75,-135.15 1060.25,-145.15 1067.25,-145.15"/>
</g>
<!-- DiemTimestamp::now_microseconds -->
<g id="node35" class="node">
<title>DiemTimestamp::now_microseconds</title>
<ellipse fill="none" stroke="black" cx="536.75" cy="-272" rx="79.09" ry="18"/>
<text text-anchor="middle" x="536.75" y="-268.3" font-family="Times,serif" font-size="14.00">now_microseconds</text>
</g>
<!-- AccountLimits::reset_window&#45;&gt;DiemTimestamp::now_microseconds -->
<g id="edge52" class="edge">
<title>AccountLimits::reset_window&#45;&gt;DiemTimestamp::now_microseconds</title>
<path fill="none" stroke="black" d="M1007.44,-206.24C931.15,-213.61 790.81,-228.16 671.75,-246 649.67,-249.31 625.67,-253.54 604.12,-257.58"/>
<polygon fill="black" stroke="black" points="603.26,-254.18 594.08,-259.48 604.56,-261.06 603.26,-254.18"/>
</g>
<!-- VASP::has_account_limits&#45;&gt;VASP::parent_address -->
<g id="edge54" class="edge">
<title>VASP::has_account_limits&#45;&gt;VASP::parent_address</title>
<path fill="none" stroke="black" d="M861,-414.34C847.94,-409.07 833.5,-402.74 820.75,-396 806.26,-388.34 790.99,-378.59 778.19,-369.89"/>
<polygon fill="black" stroke="black" points="779.98,-366.87 769.76,-364.06 776,-372.63 779.98,-366.87"/>
</g>
<!-- VASP::has_account_limits&#45;&gt;AccountLimits::has_window_published -->
<g id="edge53" class="edge">
<title>VASP::has_account_limits&#45;&gt;AccountLimits::has_window_published</title>
<path fill="none" stroke="black" d="M942.69,-414.56C958.2,-409.01 975.87,-402.46 991.75,-396 1012.81,-387.43 1035.85,-377.11 1055.05,-368.24"/>
<polygon fill="black" stroke="black" points="1056.55,-371.41 1064.14,-364.02 1053.6,-365.06 1056.55,-371.41"/>
</g>
<!-- DiemTimestamp::now_microseconds&#45;&gt;DiemTimestamp::assert_operating -->
<g id="edge56" class="edge">
<title>DiemTimestamp::now_microseconds&#45;&gt;DiemTimestamp::assert_operating</title>
<path fill="none" stroke="black" d="M534.03,-253.7C532.82,-245.98 531.36,-236.71 530.01,-228.11"/>
<polygon fill="black" stroke="black" points="533.45,-227.44 528.44,-218.1 526.53,-228.53 533.45,-227.44"/>
</g>
<!-- DiemTimestamp::now_microseconds&#45;&gt;CoreAddresses::DIEM_ROOT_ADDRESS -->
<g id="edge55" class="edge">
<title>DiemTimestamp::now_microseconds&#45;&gt;CoreAddresses::DIEM_ROOT_ADDRESS</title>
<path fill="none" stroke="black" d="M566.73,-255.26C580.39,-246.33 595.19,-233.77 602.75,-218 627.48,-166.41 620.07,-133.48 581.75,-91 563.77,-71.07 538.11,-58.22 512.92,-49.94"/>
<polygon fill="black" stroke="black" points="513.89,-46.58 503.31,-46.99 511.84,-53.27 513.89,-46.58"/>
</g>
</g>
</svg>
