<?xml version="1.0" encoding="UTF-8" standalone="no"?>
<!DOCTYPE svg PUBLIC "-//W3C//DTD SVG 1.1//EN"
 "http://www.w3.org/Graphics/SVG/1.1/DTD/svg11.dtd">
<!-- Generated by graphviz version 2.46.1 (20210213.1702)
 -->
<!-- Title: G Pages: 1 -->
<svg width="1802pt" height="520pt"
 viewBox="0.00 0.00 1802.35 520.00" xmlns="http://www.w3.org/2000/svg" xmlns:xlink="http://www.w3.org/1999/xlink">
<g id="graph0" class="graph" transform="scale(1 1) rotate(0) translate(4 516)">
<title>G</title>
<polygon fill="white" stroke="transparent" points="-4,4 -4,-516 1798.35,-516 1798.35,4 -4,4"/>
<g id="clust1" class="cluster">
<title>cluster_Roles</title>
<polygon fill="none" stroke="black" points="832.35,-246 832.35,-321 990.35,-321 990.35,-246 832.35,-246"/>
<text text-anchor="middle" x="911.35" y="-305.8" font-family="Times,serif" font-size="14.00">Roles</text>
</g>
<g id="clust2" class="cluster">
<title>cluster_Vector</title>
<polygon fill="none" stroke="black" points="1018.35,-393 1018.35,-468 1100.35,-468 1100.35,-393 1018.35,-393"/>
<text text-anchor="middle" x="1059.35" y="-452.8" font-family="Times,serif" font-size="14.00">Vector</text>
</g>
<g id="clust3" class="cluster">
<title>cluster_DiemConfig</title>
<polygon fill="none" stroke="black" points="113.35,-246 113.35,-468 321.35,-468 321.35,-246 113.35,-246"/>
<text text-anchor="middle" x="217.35" y="-452.8" font-family="Times,serif" font-size="14.00">DiemConfig</text>
</g>
<g id="clust4" class="cluster">
<title>cluster_Signer</title>
<polygon fill="none" stroke="black" points="234.35,-8 234.35,-155 384.35,-155 384.35,-8 234.35,-8"/>
<text text-anchor="middle" x="309.35" y="-139.8" font-family="Times,serif" font-size="14.00">Signer</text>
</g>
<g id="clust5" class="cluster">
<title>cluster_Errors</title>
<polygon fill="none" stroke="black" points="761.35,-8 761.35,-155 1492.35,-155 1492.35,-8 761.35,-8"/>
<text text-anchor="middle" x="1126.85" y="-139.8" font-family="Times,serif" font-size="14.00">Errors</text>
</g>
<g id="clust6" class="cluster">
<title>cluster_CoreAddresses</title>
<polygon fill="none" stroke="black" points="523.35,-80 523.35,-238 753.35,-238 753.35,-80 523.35,-80"/>
<text text-anchor="middle" x="638.35" y="-222.8" font-family="Times,serif" font-size="14.00">CoreAddresses</text>
</g>
<g id="clust7" class="cluster">
<title>cluster_DiemTimestamp</title>
<polygon fill="none" stroke="black" points="1500.35,-80 1500.35,-321 1786.35,-321 1786.35,-80 1500.35,-80"/>
<text text-anchor="middle" x="1643.35" y="-305.8" font-family="Times,serif" font-size="14.00">DiemTimestamp</text>
</g>
<g id="clust8" class="cluster">
<title>cluster_Event</title>
<polygon fill="none" stroke="black" points="329.35,-163 329.35,-321 515.35,-321 515.35,-163 329.35,-163"/>
<text text-anchor="middle" x="422.35" y="-305.8" font-family="Times,serif" font-size="14.00">Event</text>
</g>
<!-- set_open_script -->
<g id="node1" class="node">
<title>set_open_script</title>
<ellipse fill="none" stroke="black" cx="598.35" cy="-494" rx="65.79" ry="18"/>
<text text-anchor="middle" x="598.35" y="-490.3" font-family="Times,serif" font-size="14.00">set_open_script</text>
</g>
<!-- Roles::assert_diem_root -->
<g id="node2" class="node">
<title>Roles::assert_diem_root</title>
<ellipse fill="none" stroke="black" cx="911.35" cy="-272" rx="71.49" ry="18"/>
<text text-anchor="middle" x="911.35" y="-268.3" font-family="Times,serif" font-size="14.00">assert_diem_root</text>
</g>
<!-- set_open_script&#45;&gt;Roles::assert_diem_root -->
<g id="edge1" class="edge">
<title>set_open_script&#45;&gt;Roles::assert_diem_root</title>
<path fill="none" stroke="black" d="M631.68,-478.36C677.95,-457.15 763.11,-414.92 826.35,-365 851.59,-345.08 876.03,-317.47 892.18,-297.71"/>
<polygon fill="black" stroke="black" points="895.03,-299.75 898.57,-289.76 889.57,-295.36 895.03,-299.75"/>
</g>
<!-- Vector::empty -->
<g id="node3" class="node">
<title>Vector::empty</title>
<ellipse fill="none" stroke="black" cx="1059.35" cy="-419" rx="33.29" ry="18"/>
<text text-anchor="middle" x="1059.35" y="-415.3" font-family="Times,serif" font-size="14.00">empty</text>
</g>
<!-- set_open_script&#45;&gt;Vector::empty -->
<g id="edge2" class="edge">
<title>set_open_script&#45;&gt;Vector::empty</title>
<path fill="none" stroke="black" d="M663.51,-491.63C772.17,-488.97 981.52,-482.07 1012.35,-468 1023.84,-462.76 1034.02,-453.36 1041.94,-444.26"/>
<polygon fill="black" stroke="black" points="1044.7,-446.42 1048.3,-436.46 1039.27,-442 1044.7,-446.42"/>
</g>
<!-- DiemConfig::set -->
<g id="node4" class="node">
<title>DiemConfig::set</title>
<ellipse fill="none" stroke="black" cx="214.35" cy="-419" rx="27" ry="18"/>
<text text-anchor="middle" x="214.35" y="-415.3" font-family="Times,serif" font-size="14.00">set</text>
</g>
<!-- set_open_script&#45;&gt;DiemConfig::set -->
<g id="edge3" class="edge">
<title>set_open_script&#45;&gt;DiemConfig::set</title>
<path fill="none" stroke="black" d="M533.22,-491.23C439.32,-488.23 274.48,-481.16 250.35,-468 240.75,-462.76 232.97,-453.74 227.13,-444.93"/>
<polygon fill="black" stroke="black" points="230.1,-443.09 221.94,-436.33 224.11,-446.7 230.1,-443.09"/>
</g>
<!-- DiemConfig::get -->
<g id="node5" class="node">
<title>DiemConfig::get</title>
<ellipse fill="none" stroke="black" cx="286.35" cy="-419" rx="27" ry="18"/>
<text text-anchor="middle" x="286.35" y="-415.3" font-family="Times,serif" font-size="14.00">get</text>
</g>
<!-- set_open_script&#45;&gt;DiemConfig::get -->
<g id="edge4" class="edge">
<title>set_open_script&#45;&gt;DiemConfig::get</title>
<path fill="none" stroke="black" d="M549.94,-481.67C486.62,-466.86 377.18,-441.25 321.33,-428.18"/>
<polygon fill="black" stroke="black" points="322.08,-424.77 311.55,-425.9 320.49,-431.58 322.08,-424.77"/>
</g>
<!-- Signer::address_of -->
<g id="node6" class="node">
<title>Signer::address_of</title>
<ellipse fill="none" stroke="black" cx="309.35" cy="-106" rx="48.99" ry="18"/>
<text text-anchor="middle" x="309.35" y="-102.3" font-family="Times,serif" font-size="14.00">address_of</text>
</g>
<!-- Roles::assert_diem_root&#45;&gt;Signer::address_of -->
<g id="edge5" class="edge">
<title>Roles::assert_diem_root&#45;&gt;Signer::address_of</title>
<path fill="none" stroke="black" d="M843.39,-266.2C765.24,-260.79 633.08,-251.97 519.35,-246 508.58,-245.43 333.28,-245.32 325.35,-238 297.31,-212.12 298.98,-164.47 303.57,-134.33"/>
<polygon fill="black" stroke="black" points="307.09,-134.54 305.35,-124.09 300.19,-133.34 307.09,-134.54"/>
</g>
<!-- Errors::not_published -->
<g id="node7" class="node">
<title>Errors::not_published</title>
<ellipse fill="none" stroke="black" cx="1161.35" cy="-106" rx="60.39" ry="18"/>
<text text-anchor="middle" x="1161.35" y="-102.3" font-family="Times,serif" font-size="14.00">not_published</text>
</g>
<!-- Roles::assert_diem_root&#45;&gt;Errors::not_published -->
<g id="edge6" class="edge">
<title>Roles::assert_diem_root&#45;&gt;Errors::not_published</title>
<path fill="none" stroke="black" d="M924.79,-254.13C945.45,-229.52 987.57,-184.39 1034.35,-163 1058.02,-152.18 1068.11,-164.47 1092.35,-155 1107.7,-149 1122.94,-138.96 1135.17,-129.6"/>
<polygon fill="black" stroke="black" points="1137.47,-132.25 1143.13,-123.29 1133.12,-126.76 1137.47,-132.25"/>
</g>
<!-- Errors::requires_role -->
<g id="node8" class="node">
<title>Errors::requires_role</title>
<ellipse fill="none" stroke="black" cx="1297.35" cy="-106" rx="57.39" ry="18"/>
<text text-anchor="middle" x="1297.35" y="-102.3" font-family="Times,serif" font-size="14.00">requires_role</text>
</g>
<!-- Roles::assert_diem_root&#45;&gt;Errors::requires_role -->
<g id="edge7" class="edge">
<title>Roles::assert_diem_root&#45;&gt;Errors::requires_role</title>
<path fill="none" stroke="black" d="M954.36,-257.44C969.26,-252.12 985.86,-245.49 1000.35,-238 1052.92,-210.85 1054.42,-182.31 1110.35,-163 1160.88,-145.55 1180.03,-173.03 1230.35,-155 1245.78,-149.47 1260.82,-139.28 1272.73,-129.7"/>
<polygon fill="black" stroke="black" points="1275.02,-132.34 1280.44,-123.24 1270.52,-126.98 1275.02,-132.34"/>
</g>
<!-- CoreAddresses::assert_diem_root -->
<g id="node9" class="node">
<title>CoreAddresses::assert_diem_root</title>
<ellipse fill="none" stroke="black" cx="637.35" cy="-189" rx="71.49" ry="18"/>
<text text-anchor="middle" x="637.35" y="-185.3" font-family="Times,serif" font-size="14.00">assert_diem_root</text>
</g>
<!-- Roles::assert_diem_root&#45;&gt;CoreAddresses::assert_diem_root -->
<g id="edge8" class="edge">
<title>Roles::assert_diem_root&#45;&gt;CoreAddresses::assert_diem_root</title>
<path fill="none" stroke="black" d="M845.21,-265.05C808.27,-260.35 761.87,-252.13 722.35,-238 703.94,-231.42 684.86,-221.02 669.46,-211.58"/>
<polygon fill="black" stroke="black" points="671.17,-208.53 660.84,-206.17 667.45,-214.46 671.17,-208.53"/>
</g>
<!-- DiemConfig::set&#45;&gt;Signer::address_of -->
<g id="edge9" class="edge">
<title>DiemConfig::set&#45;&gt;Signer::address_of</title>
<path fill="none" stroke="black" d="M187.21,-418.79C147.64,-418.28 75.16,-410.71 41.35,-365 -12.03,-292.82 -15.27,-232.67 41.35,-163 67.32,-131.05 180.86,-116.7 251.56,-110.76"/>
<polygon fill="black" stroke="black" points="251.98,-114.23 261.67,-109.94 251.42,-107.26 251.98,-114.23"/>
</g>
<!-- DiemConfig::set&#45;&gt;Errors::not_published -->
<g id="edge10" class="edge">
<title>DiemConfig::set&#45;&gt;Errors::not_published</title>
<path fill="none" stroke="black" d="M230.19,-404.35C236.14,-399.97 243.2,-395.59 250.35,-393 383.76,-344.7 427.12,-378.51 568.35,-365 757.83,-346.87 827.82,-413.18 994.35,-321 1072.88,-277.53 1126.99,-180.3 1149.56,-133.36"/>
<polygon fill="black" stroke="black" points="1152.8,-134.68 1153.89,-124.14 1146.47,-131.7 1152.8,-134.68"/>
</g>
<!-- Errors::requires_capability -->
<g id="node10" class="node">
<title>Errors::requires_capability</title>
<ellipse fill="none" stroke="black" cx="1005.35" cy="-106" rx="77.99" ry="18"/>
<text text-anchor="middle" x="1005.35" y="-102.3" font-family="Times,serif" font-size="14.00">requires_capability</text>
</g>
<!-- DiemConfig::set&#45;&gt;Errors::requires_capability -->
<g id="edge11" class="edge">
<title>DiemConfig::set&#45;&gt;Errors::requires_capability</title>
<path fill="none" stroke="black" d="M230.59,-404.19C236.46,-399.91 243.37,-395.63 250.35,-393 352.06,-354.62 388.92,-395.21 493.35,-365 618.43,-328.82 662.93,-327.65 757.35,-238 784.9,-211.84 766.34,-183.45 798.35,-163 820.87,-148.61 892.71,-162.52 918.35,-155 937.72,-149.32 957.57,-138.8 973.4,-129.05"/>
<polygon fill="black" stroke="black" points="975.66,-131.76 982.23,-123.45 971.91,-125.85 975.66,-131.76"/>
</g>
<!-- CoreAddresses::DIEM_ROOT_ADDRESS -->
<g id="node11" class="node">
<title>CoreAddresses::DIEM_ROOT_ADDRESS</title>
<ellipse fill="none" stroke="black" cx="638.35" cy="-106" rx="106.68" ry="18"/>
<text text-anchor="middle" x="638.35" y="-102.3" font-family="Times,serif" font-size="14.00">DIEM_ROOT_ADDRESS</text>
</g>
<!-- DiemConfig::set&#45;&gt;CoreAddresses::DIEM_ROOT_ADDRESS -->
<g id="edge12" class="edge">
<title>DiemConfig::set&#45;&gt;CoreAddresses::DIEM_ROOT_ADDRESS</title>
<path fill="none" stroke="black" d="M231.19,-404.51C237.01,-400.36 243.72,-396.07 250.35,-393 362.63,-340.93 432.96,-409.62 519.35,-321 569.77,-269.28 516.51,-222.57 557.35,-163 567.04,-148.87 581.55,-137.22 595.63,-128.28"/>
<polygon fill="black" stroke="black" points="597.53,-131.22 604.29,-123.06 593.92,-125.22 597.53,-131.22"/>
</g>
<!-- DiemConfig::reconfigure_ -->
<g id="node12" class="node">
<title>DiemConfig::reconfigure_</title>
<ellipse fill="none" stroke="black" cx="258.35" cy="-347" rx="55.49" ry="18"/>
<text text-anchor="middle" x="258.35" y="-343.3" font-family="Times,serif" font-size="14.00">reconfigure_</text>
</g>
<!-- DiemConfig::set&#45;&gt;DiemConfig::reconfigure_ -->
<g id="edge13" class="edge">
<title>DiemConfig::set&#45;&gt;DiemConfig::reconfigure_</title>
<path fill="none" stroke="black" d="M224.34,-402.12C229.64,-393.68 236.29,-383.1 242.29,-373.55"/>
<polygon fill="black" stroke="black" points="245.43,-375.13 247.79,-364.8 239.51,-371.4 245.43,-375.13"/>
</g>
<!-- DiemConfig::get&#45;&gt;Errors::not_published -->
<g id="edge14" class="edge">
<title>DiemConfig::get&#45;&gt;Errors::not_published</title>
<path fill="none" stroke="black" d="M312.63,-414.15C362.76,-406.56 475.35,-388.37 568.35,-365 631.2,-349.21 649.18,-349.55 707.35,-321 818.03,-266.68 818.66,-202.77 935.35,-163 1001.48,-140.46 1026.24,-177.6 1092.35,-155 1108.17,-149.59 1123.65,-139.41 1135.92,-129.81"/>
<polygon fill="black" stroke="black" points="1138.34,-132.36 1143.88,-123.33 1133.91,-126.94 1138.34,-132.36"/>
</g>
<!-- DiemConfig::get&#45;&gt;CoreAddresses::DIEM_ROOT_ADDRESS -->
<g id="edge15" class="edge">
<title>DiemConfig::get&#45;&gt;CoreAddresses::DIEM_ROOT_ADDRESS</title>
<path fill="none" stroke="black" d="M268.81,-404.9C263.07,-400.86 256.56,-396.54 250.35,-393 183.68,-354.96 134.8,-385.61 93.35,-321 55.13,-261.42 58.39,-207.6 113.35,-163 125.22,-153.37 373.16,-156.67 388.35,-155 450.21,-148.21 519.65,-134.37 569.62,-123.29"/>
<polygon fill="black" stroke="black" points="570.66,-126.64 579.66,-121.04 569.13,-119.81 570.66,-126.64"/>
</g>
<!-- Signer::borrow_address -->
<g id="node13" class="node">
<title>Signer::borrow_address</title>
<ellipse fill="none" stroke="black" cx="309.35" cy="-34" rx="66.89" ry="18"/>
<text text-anchor="middle" x="309.35" y="-30.3" font-family="Times,serif" font-size="14.00">borrow_address</text>
</g>
<!-- Signer::address_of&#45;&gt;Signer::borrow_address -->
<g id="edge16" class="edge">
<title>Signer::address_of&#45;&gt;Signer::borrow_address</title>
<path fill="none" stroke="black" d="M309.35,-87.7C309.35,-79.98 309.35,-70.71 309.35,-62.11"/>
<polygon fill="black" stroke="black" points="312.85,-62.1 309.35,-52.1 305.85,-62.1 312.85,-62.1"/>
</g>
<!-- Errors::make -->
<g id="node14" class="node">
<title>Errors::make</title>
<ellipse fill="none" stroke="black" cx="1161.35" cy="-34" rx="30.59" ry="18"/>
<text text-anchor="middle" x="1161.35" y="-30.3" font-family="Times,serif" font-size="14.00">make</text>
</g>
<!-- Errors::not_published&#45;&gt;Errors::make -->
<g id="edge17" class="edge">
<title>Errors::not_published&#45;&gt;Errors::make</title>
<path fill="none" stroke="black" d="M1161.35,-87.7C1161.35,-79.98 1161.35,-70.71 1161.35,-62.11"/>
<polygon fill="black" stroke="black" points="1164.85,-62.1 1161.35,-52.1 1157.85,-62.1 1164.85,-62.1"/>
</g>
<!-- Errors::requires_role&#45;&gt;Errors::make -->
<g id="edge18" class="edge">
<title>Errors::requires_role&#45;&gt;Errors::make</title>
<path fill="none" stroke="black" d="M1268.84,-90.33C1246.52,-78.84 1215.52,-62.88 1192.55,-51.06"/>
<polygon fill="black" stroke="black" points="1194.04,-47.89 1183.55,-46.43 1190.84,-54.11 1194.04,-47.89"/>
</g>
<!-- CoreAddresses::assert_diem_root&#45;&gt;Signer::address_of -->
<g id="edge19" class="edge">
<title>CoreAddresses::assert_diem_root&#45;&gt;Signer::address_of</title>
<path fill="none" stroke="black" d="M588.25,-175.87C526.46,-160.61 420.94,-134.56 358.93,-119.24"/>
<polygon fill="black" stroke="black" points="359.54,-115.79 348.99,-116.79 357.86,-122.58 359.54,-115.79"/>
</g>
<!-- CoreAddresses::assert_diem_root&#45;&gt;CoreAddresses::DIEM_ROOT_ADDRESS -->
<g id="edge21" class="edge">
<title>CoreAddresses::assert_diem_root&#45;&gt;CoreAddresses::DIEM_ROOT_ADDRESS</title>
<path fill="none" stroke="black" d="M637.56,-170.82C637.69,-160.19 637.87,-146.31 638.02,-134.2"/>
<polygon fill="black" stroke="black" points="641.52,-134.2 638.14,-124.15 634.52,-134.11 641.52,-134.2"/>
</g>
<!-- Errors::requires_address -->
<g id="node15" class="node">
<title>Errors::requires_address</title>
<ellipse fill="none" stroke="black" cx="839.35" cy="-106" rx="69.59" ry="18"/>
<text text-anchor="middle" x="839.35" y="-102.3" font-family="Times,serif" font-size="14.00">requires_address</text>
</g>
<!-- CoreAddresses::assert_diem_root&#45;&gt;Errors::requires_address -->
<g id="edge20" class="edge">
<title>CoreAddresses::assert_diem_root&#45;&gt;Errors::requires_address</title>
<path fill="none" stroke="black" d="M690.04,-176.68C711.36,-171.29 735.95,-164.02 757.35,-155 774.47,-147.78 792.4,-137.63 807.11,-128.51"/>
<polygon fill="black" stroke="black" points="809.23,-131.31 815.82,-123.01 805.49,-125.39 809.23,-131.31"/>
</g>
<!-- Errors::requires_capability&#45;&gt;Errors::make -->
<g id="edge22" class="edge">
<title>Errors::requires_capability&#45;&gt;Errors::make</title>
<path fill="none" stroke="black" d="M1039.59,-89.64C1065.99,-77.79 1102.29,-61.5 1128.37,-49.8"/>
<polygon fill="black" stroke="black" points="1130.13,-52.84 1137.82,-45.56 1127.27,-46.46 1130.13,-52.84"/>
</g>
<!-- DiemConfig::reconfigure_&#45;&gt;CoreAddresses::DIEM_ROOT_ADDRESS -->
<g id="edge24" class="edge">
<title>DiemConfig::reconfigure_&#45;&gt;CoreAddresses::DIEM_ROOT_ADDRESS</title>
<path fill="none" stroke="black" d="M203.9,-343.82C167.45,-341.08 124.08,-334.91 112.35,-321 90.86,-295.52 96.6,-275.37 112.35,-246 143.87,-187.23 174.04,-183.95 237.35,-163 269.25,-152.44 355,-159.07 388.35,-155 449.61,-147.53 518.42,-133.93 568.31,-123.11"/>
<polygon fill="black" stroke="black" points="569.33,-126.47 578.35,-120.91 567.83,-119.63 569.33,-126.47"/>
</g>
<!-- Errors::invalid_state -->
<g id="node16" class="node">
<title>Errors::invalid_state</title>
<ellipse fill="none" stroke="black" cx="1428.35" cy="-106" rx="55.79" ry="18"/>
<text text-anchor="middle" x="1428.35" y="-102.3" font-family="Times,serif" font-size="14.00">invalid_state</text>
</g>
<!-- DiemConfig::reconfigure_&#45;&gt;Errors::invalid_state -->
<g id="edge23" class="edge">
<title>DiemConfig::reconfigure_&#45;&gt;Errors::invalid_state</title>
<path fill="none" stroke="black" d="M313.63,-345.35C473.43,-343.32 928.82,-336.23 994.35,-321 1169.51,-280.29 1208.14,-245.82 1363.35,-155 1376.18,-147.49 1389.53,-137.97 1400.77,-129.4"/>
<polygon fill="black" stroke="black" points="1403.16,-131.97 1408.91,-123.07 1398.86,-126.44 1403.16,-131.97"/>
</g>
<!-- DiemTimestamp::is_genesis -->
<g id="node17" class="node">
<title>DiemTimestamp::is_genesis</title>
<ellipse fill="none" stroke="black" cx="1555.35" cy="-272" rx="46.59" ry="18"/>
<text text-anchor="middle" x="1555.35" y="-268.3" font-family="Times,serif" font-size="14.00">is_genesis</text>
</g>
<!-- DiemConfig::reconfigure_&#45;&gt;DiemTimestamp::is_genesis -->
<g id="edge25" class="edge">
<title>DiemConfig::reconfigure_&#45;&gt;DiemTimestamp::is_genesis</title>
<path fill="none" stroke="black" d="M313.67,-345.29C439.82,-343.42 758.41,-337.35 1024.35,-321 1198.84,-310.27 1404.89,-289.25 1500.96,-278.96"/>
<polygon fill="black" stroke="black" points="1501.44,-282.43 1511.01,-277.88 1500.69,-275.47 1501.44,-282.43"/>
</g>
<!-- DiemTimestamp::now_microseconds -->
<g id="node18" class="node">
<title>DiemTimestamp::now_microseconds</title>
<ellipse fill="none" stroke="black" cx="1699.35" cy="-272" rx="79.09" ry="18"/>
<text text-anchor="middle" x="1699.35" y="-268.3" font-family="Times,serif" font-size="14.00">now_microseconds</text>
</g>
<!-- DiemConfig::reconfigure_&#45;&gt;DiemTimestamp::now_microseconds -->
<g id="edge26" class="edge">
<title>DiemConfig::reconfigure_&#45;&gt;DiemTimestamp::now_microseconds</title>
<path fill="none" stroke="black" d="M313.51,-345.72C559.56,-344.35 1547.76,-337.84 1611.35,-321 1631.51,-315.66 1652.07,-304.81 1668.25,-294.77"/>
<polygon fill="black" stroke="black" points="1670.22,-297.66 1676.75,-289.31 1666.45,-291.77 1670.22,-297.66"/>
</g>
<!-- Event::emit_event -->
<g id="node19" class="node">
<title>Event::emit_event</title>
<ellipse fill="none" stroke="black" cx="404.35" cy="-272" rx="50.09" ry="18"/>
<text text-anchor="middle" x="404.35" y="-268.3" font-family="Times,serif" font-size="14.00">emit_event</text>
</g>
<!-- DiemConfig::reconfigure_&#45;&gt;Event::emit_event -->
<g id="edge27" class="edge">
<title>DiemConfig::reconfigure_&#45;&gt;Event::emit_event</title>
<path fill="none" stroke="black" d="M295.39,-333.6C305.28,-329.91 315.86,-325.61 325.35,-321 341.73,-313.05 359.11,-302.72 373.39,-293.68"/>
<polygon fill="black" stroke="black" points="375.31,-296.6 381.83,-288.25 371.53,-290.72 375.31,-296.6"/>
</g>
<!-- DiemConfig::reconfiguration_enabled -->
<g id="node20" class="node">
<title>DiemConfig::reconfiguration_enabled</title>
<ellipse fill="none" stroke="black" cx="217.35" cy="-272" rx="96.38" ry="18"/>
<text text-anchor="middle" x="217.35" y="-268.3" font-family="Times,serif" font-size="14.00">reconfiguration_enabled</text>
</g>
<!-- DiemConfig::reconfigure_&#45;&gt;DiemConfig::reconfiguration_enabled -->
<g id="edge28" class="edge">
<title>DiemConfig::reconfigure_&#45;&gt;DiemConfig::reconfiguration_enabled</title>
<path fill="none" stroke="black" d="M248.84,-329.07C243.81,-320.1 237.52,-308.9 231.88,-298.87"/>
<polygon fill="black" stroke="black" points="234.9,-297.1 226.95,-290.09 228.8,-300.53 234.9,-297.1"/>
</g>
<!-- Errors::requires_address&#45;&gt;Errors::make -->
<g id="edge29" class="edge">
<title>Errors::requires_address&#45;&gt;Errors::make</title>
<path fill="none" stroke="black" d="M879.67,-91.19C892,-87.25 905.65,-83.17 918.35,-80 989.32,-62.27 1073.54,-48.2 1121.88,-40.77"/>
<polygon fill="black" stroke="black" points="1122.56,-44.21 1131.92,-39.25 1121.51,-37.29 1122.56,-44.21"/>
</g>
<!-- Errors::invalid_state&#45;&gt;Errors::make -->
<g id="edge30" class="edge">
<title>Errors::invalid_state&#45;&gt;Errors::make</title>
<path fill="none" stroke="black" d="M1395.61,-91.32C1385.39,-87.35 1374,-83.21 1363.35,-80 1307.54,-63.15 1241.34,-49.58 1200.33,-41.91"/>
<polygon fill="black" stroke="black" points="1200.94,-38.46 1190.47,-40.08 1199.66,-45.34 1200.94,-38.46"/>
</g>
<!-- DiemTimestamp::is_genesis&#45;&gt;CoreAddresses::DIEM_ROOT_ADDRESS -->
<g id="edge31" class="edge">
<title>DiemTimestamp::is_genesis&#45;&gt;CoreAddresses::DIEM_ROOT_ADDRESS</title>
<path fill="none" stroke="black" d="M1511.42,-265.39C1461.82,-259 1378.74,-248.14 1307.35,-238 1062.59,-203.25 995.83,-220.13 757.35,-155 731.5,-147.94 703.66,-136.91 681.41,-127.21"/>
<polygon fill="black" stroke="black" points="682.81,-124 672.25,-123.15 679.97,-130.4 682.81,-124"/>
</g>
<!-- DiemTimestamp::now_microseconds&#45;&gt;CoreAddresses::DIEM_ROOT_ADDRESS -->
<g id="edge32" class="edge">
<title>DiemTimestamp::now_microseconds&#45;&gt;CoreAddresses::DIEM_ROOT_ADDRESS</title>
<path fill="none" stroke="black" d="M1656.35,-256.87C1642.16,-252.73 1626.21,-248.61 1611.35,-246 1562.2,-237.36 1548.89,-244.04 1499.35,-238 1305.48,-214.35 1260.71,-182.25 1066.35,-163 998,-156.23 824.61,-168.96 757.35,-155 730.25,-149.38 701.42,-137.9 678.93,-127.58"/>
<polygon fill="black" stroke="black" points="680.24,-124.33 669.7,-123.25 677.27,-130.67 680.24,-124.33"/>
</g>
<!-- DiemTimestamp::assert_operating -->
<g id="node21" class="node">
<title>DiemTimestamp::assert_operating</title>
<ellipse fill="none" stroke="black" cx="1576.35" cy="-189" rx="68.49" ry="18"/>
<text text-anchor="middle" x="1576.35" y="-185.3" font-family="Times,serif" font-size="14.00">assert_operating</text>
</g>
<!-- DiemTimestamp::now_microseconds&#45;&gt;DiemTimestamp::assert_operating -->
<g id="edge33" class="edge">
<title>DiemTimestamp::now_microseconds&#45;&gt;DiemTimestamp::assert_operating</title>
<path fill="none" stroke="black" d="M1674.76,-254.8C1655.86,-242.36 1629.59,-225.06 1608.95,-211.47"/>
<polygon fill="black" stroke="black" points="1610.76,-208.47 1600.48,-205.89 1606.91,-214.32 1610.76,-208.47"/>
</g>
<!-- Event::write_to_event_store -->
<g id="node22" class="node">
<title>Event::write_to_event_store</title>
<ellipse fill="none" stroke="black" cx="422.35" cy="-189" rx="85.29" ry="18"/>
<text text-anchor="middle" x="422.35" y="-185.3" font-family="Times,serif" font-size="14.00">write_to_event_store</text>
</g>
<!-- Event::emit_event&#45;&gt;Event::write_to_event_store -->
<g id="edge34" class="edge">
<title>Event::emit_event&#45;&gt;Event::write_to_event_store</title>
<path fill="none" stroke="black" d="M408.17,-253.82C410.53,-243.19 413.62,-229.31 416.31,-217.2"/>
<polygon fill="black" stroke="black" points="419.79,-217.67 418.54,-207.15 412.95,-216.16 419.79,-217.67"/>
</g>
<!-- DiemConfig::reconfiguration_enabled&#45;&gt;CoreAddresses::DIEM_ROOT_ADDRESS -->
<g id="edge35" class="edge">
<title>DiemConfig::reconfiguration_enabled&#45;&gt;CoreAddresses::DIEM_ROOT_ADDRESS</title>
<path fill="none" stroke="black" d="M228.63,-254.06C246.11,-229.37 282.26,-184.13 325.35,-163 350.69,-150.57 360.48,-159.44 388.35,-155 447.76,-145.53 514.68,-132.56 564.32,-122.49"/>
<polygon fill="black" stroke="black" points="565.22,-125.88 574.32,-120.45 563.82,-119.02 565.22,-125.88"/>
</g>
<!-- DiemTimestamp::assert_operating&#45;&gt;Errors::invalid_state -->
<g id="edge36" class="edge">
<title>DiemTimestamp::assert_operating&#45;&gt;Errors::invalid_state</title>
<path fill="none" stroke="black" d="M1537.69,-174.08C1524.3,-168.73 1509.38,-162.17 1496.35,-155 1482.7,-147.49 1468.48,-137.79 1456.6,-129.08"/>
<polygon fill="black" stroke="black" points="1458.51,-126.13 1448.4,-122.95 1454.32,-131.74 1458.51,-126.13"/>
</g>
<!-- DiemTimestamp::is_operating -->
<g id="node23" class="node">
<title>DiemTimestamp::is_operating</title>
<ellipse fill="none" stroke="black" cx="1569.35" cy="-106" rx="53.89" ry="18"/>
<text text-anchor="middle" x="1569.35" y="-102.3" font-family="Times,serif" font-size="14.00">is_operating</text>
</g>
<!-- DiemTimestamp::assert_operating&#45;&gt;DiemTimestamp::is_operating -->
<g id="edge37" class="edge">
<title>DiemTimestamp::assert_operating&#45;&gt;DiemTimestamp::is_operating</title>
<path fill="none" stroke="black" d="M1574.87,-170.82C1573.95,-160.19 1572.75,-146.31 1571.7,-134.2"/>
<polygon fill="black" stroke="black" points="1575.18,-133.81 1570.83,-124.15 1568.21,-134.42 1575.18,-133.81"/>
</g>
<!-- DiemTimestamp::is_operating&#45;&gt;CoreAddresses::DIEM_ROOT_ADDRESS -->
<g id="edge38" class="edge">
<title>DiemTimestamp::is_operating&#45;&gt;CoreAddresses::DIEM_ROOT_ADDRESS</title>
<path fill="none" stroke="black" d="M1551.61,-123.02C1536.1,-136.43 1512.22,-153.72 1487.35,-159 1467.76,-163.16 785.99,-162.91 766.35,-159 735.92,-152.95 703.65,-139.53 679.12,-127.72"/>
<polygon fill="black" stroke="black" points="680.64,-124.56 670.12,-123.28 677.55,-130.84 680.64,-124.56"/>
</g>
</g>
</svg>
