<?xml version="1.0" encoding="UTF-8" standalone="no"?>
<!DOCTYPE svg PUBLIC "-//W3C//DTD SVG 1.1//EN"
 "http://www.w3.org/Graphics/SVG/1.1/DTD/svg11.dtd">
<!-- Generated by graphviz version 2.46.1 (20210213.1702)
 -->
<!-- Title: G Pages: 1 -->
<svg width="584pt" height="373pt"
 viewBox="0.00 0.00 584.00 373.00" xmlns="http://www.w3.org/2000/svg" xmlns:xlink="http://www.w3.org/1999/xlink">
<g id="graph0" class="graph" transform="scale(1 1) rotate(0) translate(4 369)">
<title>G</title>
<polygon fill="white" stroke="transparent" points="-4,4 -4,-369 580,-369 580,4 -4,4"/>
<g id="clust1" class="cluster">
<title>cluster_Roles</title>
<polygon fill="none" stroke="black" points="8,-163 8,-321 186,-321 186,-163 8,-163"/>
<text text-anchor="middle" x="97" y="-305.8" font-family="Times,serif" font-size="14.00">Roles</text>
</g>
<g id="clust2" class="cluster">
<title>cluster_DiemConfig</title>
<polygon fill="none" stroke="black" points="220,-246 220,-321 304,-321 304,-246 220,-246"/>
<text text-anchor="middle" x="262" y="-305.8" font-family="Times,serif" font-size="14.00">DiemConfig</text>
</g>
<g id="clust3" class="cluster">
<title>cluster_Errors</title>
<polygon fill="none" stroke="black" points="194,-80 194,-238 330,-238 330,-80 194,-80"/>
<text text-anchor="middle" x="262" y="-222.8" font-family="Times,serif" font-size="14.00">Errors</text>
</g>
<g id="clust4" class="cluster">
<title>cluster_CoreAddresses</title>
<polygon fill="none" stroke="black" points="338,-163 338,-238 568,-238 568,-163 338,-163"/>
<text text-anchor="middle" x="453" y="-222.8" font-family="Times,serif" font-size="14.00">CoreAddresses</text>
</g>
<g id="clust5" class="cluster">
<title>cluster_Signer</title>
<polygon fill="none" stroke="black" points="22,-8 22,-155 172,-155 172,-8 22,-8"/>
<text text-anchor="middle" x="97" y="-139.8" font-family="Times,serif" font-size="14.00">Signer</text>
</g>
<!-- is_module_allowed -->
<g id="node1" class="node">
<title>is_module_allowed</title>
<ellipse fill="none" stroke="black" cx="179" cy="-347" rx="79.89" ry="18"/>
<text text-anchor="middle" x="179" y="-343.3" font-family="Times,serif" font-size="14.00">is_module_allowed</text>
</g>
<!-- Roles::has_diem_root_role -->
<g id="node2" class="node">
<title>Roles::has_diem_root_role</title>
<ellipse fill="none" stroke="black" cx="97" cy="-272" rx="81.49" ry="18"/>
<text text-anchor="middle" x="97" y="-268.3" font-family="Times,serif" font-size="14.00">has_diem_root_role</text>
</g>
<!-- is_module_allowed&#45;&gt;Roles::has_diem_root_role -->
<g id="edge1" class="edge">
<title>is_module_allowed&#45;&gt;Roles::has_diem_root_role</title>
<path fill="none" stroke="black" d="M160.39,-329.44C149.46,-319.7 135.47,-307.25 123.41,-296.51"/>
<polygon fill="black" stroke="black" points="125.61,-293.79 115.82,-289.75 120.96,-299.02 125.61,-293.79"/>
</g>
<!-- DiemConfig::get -->
<g id="node3" class="node">
<title>DiemConfig::get</title>
<ellipse fill="none" stroke="black" cx="262" cy="-272" rx="27" ry="18"/>
<text text-anchor="middle" x="262" y="-268.3" font-family="Times,serif" font-size="14.00">get</text>
</g>
<!-- is_module_allowed&#45;&gt;DiemConfig::get -->
<g id="edge2" class="edge">
<title>is_module_allowed&#45;&gt;DiemConfig::get</title>
<path fill="none" stroke="black" d="M197.83,-329.44C209.95,-318.78 225.8,-304.84 238.7,-293.49"/>
<polygon fill="black" stroke="black" points="241.11,-296.04 246.3,-286.8 236.48,-290.78 241.11,-296.04"/>
</g>
<!-- Roles::has_role -->
<g id="node4" class="node">
<title>Roles::has_role</title>
<ellipse fill="none" stroke="black" cx="97" cy="-189" rx="40.09" ry="18"/>
<text text-anchor="middle" x="97" y="-185.3" font-family="Times,serif" font-size="14.00">has_role</text>
</g>
<!-- Roles::has_diem_root_role&#45;&gt;Roles::has_role -->
<g id="edge3" class="edge">
<title>Roles::has_diem_root_role&#45;&gt;Roles::has_role</title>
<path fill="none" stroke="black" d="M97,-253.82C97,-243.19 97,-229.31 97,-217.2"/>
<polygon fill="black" stroke="black" points="100.5,-217.15 97,-207.15 93.5,-217.15 100.5,-217.15"/>
</g>
<!-- Errors::not_published -->
<g id="node5" class="node">
<title>Errors::not_published</title>
<ellipse fill="none" stroke="black" cx="262" cy="-189" rx="60.39" ry="18"/>
<text text-anchor="middle" x="262" y="-185.3" font-family="Times,serif" font-size="14.00">not_published</text>
</g>
<!-- DiemConfig::get&#45;&gt;Errors::not_published -->
<g id="edge4" class="edge">
<title>DiemConfig::get&#45;&gt;Errors::not_published</title>
<path fill="none" stroke="black" d="M262,-253.82C262,-243.19 262,-229.31 262,-217.2"/>
<polygon fill="black" stroke="black" points="265.5,-217.15 262,-207.15 258.5,-217.15 265.5,-217.15"/>
</g>
<!-- CoreAddresses::DIEM_ROOT_ADDRESS -->
<g id="node6" class="node">
<title>CoreAddresses::DIEM_ROOT_ADDRESS</title>
<ellipse fill="none" stroke="black" cx="453" cy="-189" rx="106.68" ry="18"/>
<text text-anchor="middle" x="453" y="-185.3" font-family="Times,serif" font-size="14.00">DIEM_ROOT_ADDRESS</text>
</g>
<!-- DiemConfig::get&#45;&gt;CoreAddresses::DIEM_ROOT_ADDRESS -->
<g id="edge5" class="edge">
<title>DiemConfig::get&#45;&gt;CoreAddresses::DIEM_ROOT_ADDRESS</title>
<path fill="none" stroke="black" d="M284.28,-261.55C313.95,-248.97 367.17,-226.4 405.92,-209.96"/>
<polygon fill="black" stroke="black" points="407.6,-213.06 415.44,-205.93 404.87,-206.61 407.6,-213.06"/>
</g>
<!-- Signer::address_of -->
<g id="node7" class="node">
<title>Signer::address_of</title>
<ellipse fill="none" stroke="black" cx="97" cy="-106" rx="48.99" ry="18"/>
<text text-anchor="middle" x="97" y="-102.3" font-family="Times,serif" font-size="14.00">address_of</text>
</g>
<!-- Roles::has_role&#45;&gt;Signer::address_of -->
<g id="edge6" class="edge">
<title>Roles::has_role&#45;&gt;Signer::address_of</title>
<path fill="none" stroke="black" d="M97,-170.82C97,-160.19 97,-146.31 97,-134.2"/>
<polygon fill="black" stroke="black" points="100.5,-134.15 97,-124.15 93.5,-134.15 100.5,-134.15"/>
</g>
<!-- Errors::make -->
<g id="node8" class="node">
<title>Errors::make</title>
<ellipse fill="none" stroke="black" cx="262" cy="-106" rx="30.59" ry="18"/>
<text text-anchor="middle" x="262" y="-102.3" font-family="Times,serif" font-size="14.00">make</text>
</g>
<!-- Errors::not_published&#45;&gt;Errors::make -->
<g id="edge7" class="edge">
<title>Errors::not_published&#45;&gt;Errors::make</title>
<path fill="none" stroke="black" d="M262,-170.82C262,-160.19 262,-146.31 262,-134.2"/>
<polygon fill="black" stroke="black" points="265.5,-134.15 262,-124.15 258.5,-134.15 265.5,-134.15"/>
</g>
<!-- Signer::borrow_address -->
<g id="node9" class="node">
<title>Signer::borrow_address</title>
<ellipse fill="none" stroke="black" cx="97" cy="-34" rx="66.89" ry="18"/>
<text text-anchor="middle" x="97" y="-30.3" font-family="Times,serif" font-size="14.00">borrow_address</text>
</g>
<!-- Signer::address_of&#45;&gt;Signer::borrow_address -->
<g id="edge8" class="edge">
<title>Signer::address_of&#45;&gt;Signer::borrow_address</title>
<path fill="none" stroke="black" d="M97,-87.7C97,-79.98 97,-70.71 97,-62.11"/>
<polygon fill="black" stroke="black" points="100.5,-62.1 97,-52.1 93.5,-62.1 100.5,-62.1"/>
</g>
</g>
</svg>
