<?xml version="1.0" encoding="UTF-8" standalone="no"?>
<!DOCTYPE svg PUBLIC "-//W3C//DTD SVG 1.1//EN"
 "http://www.w3.org/Graphics/SVG/1.1/DTD/svg11.dtd">
<!-- Generated by graphviz version 2.46.1 (20210213.1702)
 -->
<!-- Title: G Pages: 1 -->
<svg width="722pt" height="207pt"
 viewBox="0.00 0.00 722.00 207.00" xmlns="http://www.w3.org/2000/svg" xmlns:xlink="http://www.w3.org/1999/xlink">
<g id="graph0" class="graph" transform="scale(1 1) rotate(0) translate(4 203)">
<title>G</title>
<polygon fill="white" stroke="transparent" points="-4,4 -4,-203 718,-203 718,4 -4,4"/>
<g id="clust1" class="cluster">
<title>cluster_Errors</title>
<polygon fill="none" stroke="black" points="8,-8 8,-155 274,-155 274,-8 8,-8"/>
<text text-anchor="middle" x="141" y="-139.8" font-family="Times,serif" font-size="14.00">Errors</text>
</g>
<g id="clust2" class="cluster">
<title>cluster_CoreAddresses</title>
<polygon fill="none" stroke="black" points="282,-80 282,-155 512,-155 512,-80 282,-80"/>
<text text-anchor="middle" x="397" y="-139.8" font-family="Times,serif" font-size="14.00">CoreAddresses</text>
</g>
<g id="clust3" class="cluster">
<title>cluster_Event</title>
<polygon fill="none" stroke="black" points="520,-8 520,-155 706,-155 706,-8 520,-8"/>
<text text-anchor="middle" x="613" y="-139.8" font-family="Times,serif" font-size="14.00">Event</text>
</g>
<!-- emit_genesis_reconfiguration_event -->
<g id="node1" class="node">
<title>emit_genesis_reconfiguration_event</title>
<ellipse fill="none" stroke="black" cx="303" cy="-181" rx="138.38" ry="18"/>
<text text-anchor="middle" x="303" y="-177.3" font-family="Times,serif" font-size="14.00">emit_genesis_reconfiguration_event</text>
</g>
<!-- Errors::invalid_state -->
<g id="node2" class="node">
<title>Errors::invalid_state</title>
<ellipse fill="none" stroke="black" cx="210" cy="-106" rx="55.79" ry="18"/>
<text text-anchor="middle" x="210" y="-102.3" font-family="Times,serif" font-size="14.00">invalid_state</text>
</g>
<!-- emit_genesis_reconfiguration_event&#45;&gt;Errors::invalid_state -->
<g id="edge1" class="edge">
<title>emit_genesis_reconfiguration_event&#45;&gt;Errors::invalid_state</title>
<path fill="none" stroke="black" d="M281.43,-163.07C268.63,-153.02 252.26,-140.17 238.42,-129.31"/>
<polygon fill="black" stroke="black" points="240.21,-126.26 230.18,-122.84 235.88,-131.77 240.21,-126.26"/>
</g>
<!-- Errors::not_published -->
<g id="node3" class="node">
<title>Errors::not_published</title>
<ellipse fill="none" stroke="black" cx="76" cy="-106" rx="60.39" ry="18"/>
<text text-anchor="middle" x="76" y="-102.3" font-family="Times,serif" font-size="14.00">not_published</text>
</g>
<!-- emit_genesis_reconfiguration_event&#45;&gt;Errors::not_published -->
<g id="edge2" class="edge">
<title>emit_genesis_reconfiguration_event&#45;&gt;Errors::not_published</title>
<path fill="none" stroke="black" d="M195.42,-169.67C178.2,-166.13 160.85,-161.37 145,-155 129.71,-148.85 114.48,-138.79 102.24,-129.46"/>
<polygon fill="black" stroke="black" points="104.29,-126.62 94.27,-123.17 99.95,-132.11 104.29,-126.62"/>
</g>
<!-- CoreAddresses::DIEM_ROOT_ADDRESS -->
<g id="node4" class="node">
<title>CoreAddresses::DIEM_ROOT_ADDRESS</title>
<ellipse fill="none" stroke="black" cx="397" cy="-106" rx="106.68" ry="18"/>
<text text-anchor="middle" x="397" y="-102.3" font-family="Times,serif" font-size="14.00">DIEM_ROOT_ADDRESS</text>
</g>
<!-- emit_genesis_reconfiguration_event&#45;&gt;CoreAddresses::DIEM_ROOT_ADDRESS -->
<g id="edge3" class="edge">
<title>emit_genesis_reconfiguration_event&#45;&gt;CoreAddresses::DIEM_ROOT_ADDRESS</title>
<path fill="none" stroke="black" d="M324.8,-163.07C337.38,-153.3 353.37,-140.88 367.11,-130.22"/>
<polygon fill="black" stroke="black" points="369.57,-132.74 375.32,-123.84 365.27,-127.21 369.57,-132.74"/>
</g>
<!-- Event::emit_event -->
<g id="node5" class="node">
<title>Event::emit_event</title>
<ellipse fill="none" stroke="black" cx="595" cy="-106" rx="50.09" ry="18"/>
<text text-anchor="middle" x="595" y="-102.3" font-family="Times,serif" font-size="14.00">emit_event</text>
</g>
<!-- emit_genesis_reconfiguration_event&#45;&gt;Event::emit_event -->
<g id="edge4" class="edge">
<title>emit_genesis_reconfiguration_event&#45;&gt;Event::emit_event</title>
<path fill="none" stroke="black" d="M430.86,-174C459.4,-170.19 489.15,-164.24 516,-155 533.85,-148.86 551.97,-138.23 566.34,-128.54"/>
<polygon fill="black" stroke="black" points="568.57,-131.25 574.77,-122.67 564.57,-125.51 568.57,-131.25"/>
</g>
<!-- Errors::make -->
<g id="node6" class="node">
<title>Errors::make</title>
<ellipse fill="none" stroke="black" cx="143" cy="-34" rx="30.59" ry="18"/>
<text text-anchor="middle" x="143" y="-30.3" font-family="Times,serif" font-size="14.00">make</text>
</g>
<!-- Errors::invalid_state&#45;&gt;Errors::make -->
<g id="edge5" class="edge">
<title>Errors::invalid_state&#45;&gt;Errors::make</title>
<path fill="none" stroke="black" d="M194.12,-88.41C185.24,-79.13 174.05,-67.44 164.4,-57.36"/>
<polygon fill="black" stroke="black" points="166.84,-54.84 157.39,-50.04 161.78,-59.68 166.84,-54.84"/>
</g>
<!-- Errors::not_published&#45;&gt;Errors::make -->
<g id="edge6" class="edge">
<title>Errors::not_published&#45;&gt;Errors::make</title>
<path fill="none" stroke="black" d="M91.88,-88.41C100.76,-79.13 111.95,-67.44 121.6,-57.36"/>
<polygon fill="black" stroke="black" points="124.22,-59.68 128.61,-50.04 119.16,-54.84 124.22,-59.68"/>
</g>
<!-- Event::write_to_event_store -->
<g id="node7" class="node">
<title>Event::write_to_event_store</title>
<ellipse fill="none" stroke="black" cx="613" cy="-34" rx="85.29" ry="18"/>
<text text-anchor="middle" x="613" y="-30.3" font-family="Times,serif" font-size="14.00">write_to_event_store</text>
</g>
<!-- Event::emit_event&#45;&gt;Event::write_to_event_store -->
<g id="edge7" class="edge">
<title>Event::emit_event&#45;&gt;Event::write_to_event_store</title>
<path fill="none" stroke="black" d="M599.36,-88.05C601.36,-80.26 603.79,-70.82 606.04,-62.08"/>
<polygon fill="black" stroke="black" points="609.46,-62.83 608.56,-52.28 602.68,-61.09 609.46,-62.83"/>
</g>
</g>
</svg>
