<?xml version="1.0" encoding="UTF-8" standalone="no"?>
<!DOCTYPE svg PUBLIC "-//W3C//DTD SVG 1.1//EN"
 "http://www.w3.org/Graphics/SVG/1.1/DTD/svg11.dtd">
<!-- Generated by graphviz version 2.46.1 (20210213.1702)
 -->
<!-- Title: G Pages: 1 -->
<svg width="599pt" height="437pt"
 viewBox="0.00 0.00 599.39 437.00" xmlns="http://www.w3.org/2000/svg" xmlns:xlink="http://www.w3.org/1999/xlink">
<g id="graph0" class="graph" transform="scale(1 1) rotate(0) translate(4 433)">
<title>G</title>
<polygon fill="white" stroke="transparent" points="-4,4 -4,-433 595.39,-433 595.39,4 -4,4"/>
<g id="clust1" class="cluster">
<title>cluster_VASP</title>
<polygon fill="none" stroke="black" points="59.39,-80 59.39,-313 371.39,-313 371.39,-80 59.39,-80"/>
<text text-anchor="middle" x="215.39" y="-297.8" font-family="Times,serif" font-size="14.00">VASP</text>
</g>
<g id="clust2" class="cluster">
<title>cluster_AccountLimits</title>
<polygon fill="none" stroke="black" points="379.39,-163 379.39,-238 583.39,-238 583.39,-163 379.39,-163"/>
<text text-anchor="middle" x="481.39" y="-222.8" font-family="Times,serif" font-size="14.00">AccountLimits</text>
</g>
<g id="clust3" class="cluster">
<title>cluster_Errors</title>
<polygon fill="none" stroke="black" points="379.39,-8 379.39,-155 541.39,-155 541.39,-8 379.39,-8"/>
<text text-anchor="middle" x="460.39" y="-139.8" font-family="Times,serif" font-size="14.00">Errors</text>
</g>
<!-- should_track_limits_for_account -->
<g id="node1" class="node">
<title>should_track_limits_for_account</title>
<ellipse fill="none" stroke="black" cx="127.39" cy="-411" rx="127.28" ry="18"/>
<text text-anchor="middle" x="127.39" y="-407.3" font-family="Times,serif" font-size="14.00">should_track_limits_for_account</text>
</g>
<!-- VASP::is_same_vasp -->
<g id="node2" class="node">
<title>VASP::is_same_vasp</title>
<ellipse fill="none" stroke="black" cx="127.39" cy="-264" rx="59.59" ry="18"/>
<text text-anchor="middle" x="127.39" y="-260.3" font-family="Times,serif" font-size="14.00">is_same_vasp</text>
</g>
<!-- should_track_limits_for_account&#45;&gt;VASP::is_same_vasp -->
<g id="edge1" class="edge">
<title>should_track_limits_for_account&#45;&gt;VASP::is_same_vasp</title>
<path fill="none" stroke="black" d="M127.39,-392.8C127.39,-367.94 127.39,-321.74 127.39,-292.23"/>
<polygon fill="black" stroke="black" points="130.89,-292.18 127.39,-282.18 123.89,-292.18 130.89,-292.18"/>
</g>
<!-- VASP::is_vasp -->
<g id="node3" class="node">
<title>VASP::is_vasp</title>
<ellipse fill="none" stroke="black" cx="107.39" cy="-189" rx="37.09" ry="18"/>
<text text-anchor="middle" x="107.39" y="-185.3" font-family="Times,serif" font-size="14.00">is_vasp</text>
</g>
<!-- should_track_limits_for_account&#45;&gt;VASP::is_vasp -->
<g id="edge2" class="edge">
<title>should_track_limits_for_account&#45;&gt;VASP::is_vasp</title>
<path fill="none" stroke="black" d="M105.42,-393.13C84.68,-375.67 54.92,-346.32 42.39,-313 31.9,-285.13 29.98,-273.07 42.39,-246 49.36,-230.78 62.74,-218.13 75.56,-208.73"/>
<polygon fill="black" stroke="black" points="77.58,-211.59 83.82,-203.03 73.6,-205.83 77.58,-211.59"/>
</g>
<!-- has_published_account_limits -->
<g id="node4" class="node">
<title>has_published_account_limits</title>
<ellipse fill="none" stroke="black" cx="278.39" cy="-339" rx="117.78" ry="18"/>
<text text-anchor="middle" x="278.39" y="-335.3" font-family="Times,serif" font-size="14.00">has_published_account_limits</text>
</g>
<!-- should_track_limits_for_account&#45;&gt;has_published_account_limits -->
<g id="edge3" class="edge">
<title>should_track_limits_for_account&#45;&gt;has_published_account_limits</title>
<path fill="none" stroke="black" d="M162.79,-393.59C184.09,-383.71 211.39,-371.06 234.11,-360.53"/>
<polygon fill="black" stroke="black" points="235.61,-363.69 243.21,-356.31 232.66,-357.34 235.61,-363.69"/>
</g>
<!-- VASP::is_same_vasp&#45;&gt;VASP::is_vasp -->
<g id="edge4" class="edge">
<title>VASP::is_same_vasp&#45;&gt;VASP::is_vasp</title>
<path fill="none" stroke="black" d="M122.65,-245.7C120.29,-237.09 117.39,-226.49 114.75,-216.86"/>
<polygon fill="black" stroke="black" points="118.04,-215.64 112.03,-206.92 111.29,-217.49 118.04,-215.64"/>
</g>
<!-- VASP::parent_address -->
<g id="node5" class="node">
<title>VASP::parent_address</title>
<ellipse fill="none" stroke="black" cx="226.39" cy="-189" rx="63.89" ry="18"/>
<text text-anchor="middle" x="226.39" y="-185.3" font-family="Times,serif" font-size="14.00">parent_address</text>
</g>
<!-- VASP::is_same_vasp&#45;&gt;VASP::parent_address -->
<g id="edge5" class="edge">
<title>VASP::is_same_vasp&#45;&gt;VASP::parent_address</title>
<path fill="none" stroke="black" d="M148.87,-247.16C162.79,-236.9 181.1,-223.39 196.44,-212.08"/>
<polygon fill="black" stroke="black" points="198.64,-214.81 204.61,-206.06 194.48,-209.18 198.64,-214.81"/>
</g>
<!-- VASP::is_child -->
<g id="node6" class="node">
<title>VASP::is_child</title>
<ellipse fill="none" stroke="black" cx="221.39" cy="-106" rx="38.19" ry="18"/>
<text text-anchor="middle" x="221.39" y="-102.3" font-family="Times,serif" font-size="14.00">is_child</text>
</g>
<!-- VASP::is_vasp&#45;&gt;VASP::is_child -->
<g id="edge6" class="edge">
<title>VASP::is_vasp&#45;&gt;VASP::is_child</title>
<path fill="none" stroke="black" d="M131.12,-174.76C138.24,-170.88 146.09,-166.7 153.39,-163 160.84,-159.23 163.48,-159.7 170.39,-155 180.81,-147.91 191.15,-138.69 199.77,-130.24"/>
<polygon fill="black" stroke="black" points="202.31,-132.64 206.86,-123.07 197.34,-127.72 202.31,-132.64"/>
</g>
<!-- VASP::is_parent -->
<g id="node7" class="node">
<title>VASP::is_parent</title>
<ellipse fill="none" stroke="black" cx="118.39" cy="-106" rx="42.79" ry="18"/>
<text text-anchor="middle" x="118.39" y="-102.3" font-family="Times,serif" font-size="14.00">is_parent</text>
</g>
<!-- VASP::is_vasp&#45;&gt;VASP::is_parent -->
<g id="edge7" class="edge">
<title>VASP::is_vasp&#45;&gt;VASP::is_parent</title>
<path fill="none" stroke="black" d="M109.72,-170.82C111.17,-160.19 113.05,-146.31 114.69,-134.2"/>
<polygon fill="black" stroke="black" points="118.18,-134.53 116.06,-124.15 111.25,-133.59 118.18,-134.53"/>
</g>
<!-- has_published_account_limits&#45;&gt;VASP::is_vasp -->
<g id="edge10" class="edge">
<title>has_published_account_limits&#45;&gt;VASP::is_vasp</title>
<path fill="none" stroke="black" d="M169.87,-332.03C118.4,-328.06 66.34,-321.91 58.39,-313 38.56,-290.79 47.92,-273.88 58.39,-246 63.23,-233.12 72.53,-221.26 81.73,-211.81"/>
<polygon fill="black" stroke="black" points="84.26,-214.23 89.01,-204.76 79.39,-209.2 84.26,-214.23"/>
</g>
<!-- AccountLimits::has_window_published -->
<g id="node8" class="node">
<title>AccountLimits::has_window_published</title>
<ellipse fill="none" stroke="black" cx="481.39" cy="-189" rx="93.68" ry="18"/>
<text text-anchor="middle" x="481.39" y="-185.3" font-family="Times,serif" font-size="14.00">has_window_published</text>
</g>
<!-- has_published_account_limits&#45;&gt;AccountLimits::has_window_published -->
<g id="edge8" class="edge">
<title>has_published_account_limits&#45;&gt;AccountLimits::has_window_published</title>
<path fill="none" stroke="black" d="M350.63,-324.68C359.31,-321.56 367.78,-317.73 375.39,-313 415.15,-288.3 447.92,-243.9 466.05,-215.75"/>
<polygon fill="black" stroke="black" points="469.05,-217.55 471.41,-207.22 463.12,-213.82 469.05,-217.55"/>
</g>
<!-- VASP::has_account_limits -->
<g id="node9" class="node">
<title>VASP::has_account_limits</title>
<ellipse fill="none" stroke="black" cx="284.39" cy="-264" rx="79.09" ry="18"/>
<text text-anchor="middle" x="284.39" y="-260.3" font-family="Times,serif" font-size="14.00">has_account_limits</text>
</g>
<!-- has_published_account_limits&#45;&gt;VASP::has_account_limits -->
<g id="edge9" class="edge">
<title>has_published_account_limits&#45;&gt;VASP::has_account_limits</title>
<path fill="none" stroke="black" d="M279.81,-320.7C280.51,-312.25 281.36,-301.87 282.14,-292.37"/>
<polygon fill="black" stroke="black" points="285.65,-292.43 282.98,-282.18 278.67,-291.86 285.65,-292.43"/>
</g>
<!-- VASP::parent_address&#45;&gt;VASP::is_child -->
<g id="edge12" class="edge">
<title>VASP::parent_address&#45;&gt;VASP::is_child</title>
<path fill="none" stroke="black" d="M225.33,-170.82C224.67,-160.19 223.81,-146.31 223.07,-134.2"/>
<polygon fill="black" stroke="black" points="226.56,-133.92 222.45,-124.15 219.57,-134.35 226.56,-133.92"/>
</g>
<!-- VASP::parent_address&#45;&gt;VASP::is_parent -->
<g id="edge13" class="edge">
<title>VASP::parent_address&#45;&gt;VASP::is_parent</title>
<path fill="none" stroke="black" d="M200.25,-172.43C191.82,-167.14 182.55,-161.04 174.39,-155 163.77,-147.15 152.62,-137.83 143.09,-129.5"/>
<polygon fill="black" stroke="black" points="145.32,-126.8 135.51,-122.8 140.68,-132.05 145.32,-126.8"/>
</g>
<!-- Errors::invalid_argument -->
<g id="node10" class="node">
<title>Errors::invalid_argument</title>
<ellipse fill="none" stroke="black" cx="460.39" cy="-106" rx="73.39" ry="18"/>
<text text-anchor="middle" x="460.39" y="-102.3" font-family="Times,serif" font-size="14.00">invalid_argument</text>
</g>
<!-- VASP::parent_address&#45;&gt;Errors::invalid_argument -->
<g id="edge11" class="edge">
<title>VASP::parent_address&#45;&gt;Errors::invalid_argument</title>
<path fill="none" stroke="black" d="M281.31,-179.85C309.95,-174.61 345.21,-166.57 375.39,-155 393.51,-148.05 412.43,-137.72 427.81,-128.41"/>
<polygon fill="black" stroke="black" points="429.75,-131.32 436.42,-123.09 426.07,-125.37 429.75,-131.32"/>
</g>
<!-- VASP::has_account_limits&#45;&gt;VASP::parent_address -->
<g id="edge15" class="edge">
<title>VASP::has_account_limits&#45;&gt;VASP::parent_address</title>
<path fill="none" stroke="black" d="M270.94,-246.07C263.54,-236.76 254.24,-225.05 246.04,-214.74"/>
<polygon fill="black" stroke="black" points="248.73,-212.49 239.77,-206.84 243.25,-216.85 248.73,-212.49"/>
</g>
<!-- VASP::has_account_limits&#45;&gt;AccountLimits::has_window_published -->
<g id="edge14" class="edge">
<title>VASP::has_account_limits&#45;&gt;AccountLimits::has_window_published</title>
<path fill="none" stroke="black" d="M336.33,-250.25C349.21,-246.67 362.91,-242.51 375.39,-238 397.27,-230.1 420.91,-219.59 440.31,-210.42"/>
<polygon fill="black" stroke="black" points="441.95,-213.52 449.46,-206.05 438.93,-207.2 441.95,-213.52"/>
</g>
<!-- Errors::make -->
<g id="node11" class="node">
<title>Errors::make</title>
<ellipse fill="none" stroke="black" cx="460.39" cy="-34" rx="30.59" ry="18"/>
<text text-anchor="middle" x="460.39" y="-30.3" font-family="Times,serif" font-size="14.00">make</text>
</g>
<!-- Errors::invalid_argument&#45;&gt;Errors::make -->
<g id="edge16" class="edge">
<title>Errors::invalid_argument&#45;&gt;Errors::make</title>
<path fill="none" stroke="black" d="M460.39,-87.7C460.39,-79.98 460.39,-70.71 460.39,-62.11"/>
<polygon fill="black" stroke="black" points="463.89,-62.1 460.39,-52.1 456.89,-62.1 463.89,-62.1"/>
</g>
</g>
</svg>
