<?xml version="1.0" encoding="UTF-8" standalone="no"?>
<!DOCTYPE svg PUBLIC "-//W3C//DTD SVG 1.1//EN"
 "http://www.w3.org/Graphics/SVG/1.1/DTD/svg11.dtd">
<!-- Generated by graphviz version 2.46.1 (20210213.1702)
 -->
<!-- Title: G Pages: 1 -->
<svg width="440pt" height="282pt"
 viewBox="0.00 0.00 440.00 282.00" xmlns="http://www.w3.org/2000/svg" xmlns:xlink="http://www.w3.org/1999/xlink">
<g id="graph0" class="graph" transform="scale(1 1) rotate(0) translate(4 278)">
<title>G</title>
<polygon fill="white" stroke="transparent" points="-4,4 -4,-278 436,-278 436,4 -4,4"/>
<g id="clust1" class="cluster">
<title>cluster_Errors</title>
<polygon fill="none" stroke="black" points="8,-8 8,-158 144,-158 144,-8 8,-8"/>
<text text-anchor="middle" x="76" y="-142.8" font-family="Times,serif" font-size="14.00">Errors</text>
</g>
<g id="clust2" class="cluster">
<title>cluster_CoreAddresses</title>
<polygon fill="none" stroke="black" points="152,-8 152,-83 424,-83 424,-8 152,-8"/>
<text text-anchor="middle" x="288" y="-67.8" font-family="Times,serif" font-size="14.00">CoreAddresses</text>
</g>
<!-- zero -->
<g id="node1" class="node">
<title>zero</title>
<ellipse fill="none" stroke="black" cx="161" cy="-256" rx="27" ry="18"/>
<text text-anchor="middle" x="161" y="-252.3" font-family="Times,serif" font-size="14.00">zero</text>
</g>
<!-- assert_is_currency -->
<g id="node2" class="node">
<title>assert_is_currency</title>
<ellipse fill="none" stroke="black" cx="161" cy="-184" rx="76.09" ry="18"/>
<text text-anchor="middle" x="161" y="-180.3" font-family="Times,serif" font-size="14.00">assert_is_currency</text>
</g>
<!-- zero&#45;&gt;assert_is_currency -->
<g id="edge1" class="edge">
<title>zero&#45;&gt;assert_is_currency</title>
<path fill="none" stroke="black" d="M161,-237.7C161,-229.98 161,-220.71 161,-212.11"/>
<polygon fill="black" stroke="black" points="164.5,-212.1 161,-202.1 157.5,-212.1 164.5,-212.1"/>
</g>
<!-- Errors::not_published -->
<g id="node3" class="node">
<title>Errors::not_published</title>
<ellipse fill="none" stroke="black" cx="76" cy="-109" rx="60.39" ry="18"/>
<text text-anchor="middle" x="76" y="-105.3" font-family="Times,serif" font-size="14.00">not_published</text>
</g>
<!-- assert_is_currency&#45;&gt;Errors::not_published -->
<g id="edge2" class="edge">
<title>assert_is_currency&#45;&gt;Errors::not_published</title>
<path fill="none" stroke="black" d="M141.71,-166.44C130.22,-156.57 115.46,-143.89 102.85,-133.06"/>
<polygon fill="black" stroke="black" points="104.79,-130.11 94.92,-126.25 100.22,-135.42 104.79,-130.11"/>
</g>
<!-- is_currency -->
<g id="node4" class="node">
<title>is_currency</title>
<ellipse fill="none" stroke="black" cx="247" cy="-109" rx="51.99" ry="18"/>
<text text-anchor="middle" x="247" y="-105.3" font-family="Times,serif" font-size="14.00">is_currency</text>
</g>
<!-- assert_is_currency&#45;&gt;is_currency -->
<g id="edge3" class="edge">
<title>assert_is_currency&#45;&gt;is_currency</title>
<path fill="none" stroke="black" d="M180.51,-166.44C192.33,-156.4 207.57,-143.47 220.47,-132.52"/>
<polygon fill="black" stroke="black" points="222.79,-135.14 228.15,-126 218.26,-129.8 222.79,-135.14"/>
</g>
<!-- Errors::make -->
<g id="node5" class="node">
<title>Errors::make</title>
<ellipse fill="none" stroke="black" cx="76" cy="-34" rx="30.59" ry="18"/>
<text text-anchor="middle" x="76" y="-30.3" font-family="Times,serif" font-size="14.00">make</text>
</g>
<!-- Errors::not_published&#45;&gt;Errors::make -->
<g id="edge4" class="edge">
<title>Errors::not_published&#45;&gt;Errors::make</title>
<path fill="none" stroke="black" d="M76,-90.7C76,-82.25 76,-71.87 76,-62.37"/>
<polygon fill="black" stroke="black" points="79.5,-62.18 76,-52.18 72.5,-62.18 79.5,-62.18"/>
</g>
<!-- CoreAddresses::CURRENCY_INFO_ADDRESS -->
<g id="node6" class="node">
<title>CoreAddresses::CURRENCY_INFO_ADDRESS</title>
<ellipse fill="none" stroke="black" cx="288" cy="-34" rx="128.08" ry="18"/>
<text text-anchor="middle" x="288" y="-30.3" font-family="Times,serif" font-size="14.00">CURRENCY_INFO_ADDRESS</text>
</g>
<!-- is_currency&#45;&gt;CoreAddresses::CURRENCY_INFO_ADDRESS -->
<g id="edge5" class="edge">
<title>is_currency&#45;&gt;CoreAddresses::CURRENCY_INFO_ADDRESS</title>
<path fill="none" stroke="black" d="M256.51,-91.07C261.54,-82.1 267.84,-70.9 273.47,-60.87"/>
<polygon fill="black" stroke="black" points="276.55,-62.53 278.4,-52.09 270.45,-59.1 276.55,-62.53"/>
</g>
</g>
</svg>
