<?xml version="1.0" encoding="UTF-8" standalone="no"?>
<!DOCTYPE svg PUBLIC "-//W3C//DTD SVG 1.1//EN"
 "http://www.w3.org/Graphics/SVG/1.1/DTD/svg11.dtd">
<!-- Generated by graphviz version 2.46.1 (20210213.1702)
 -->
<!-- Title: G Pages: 1 -->
<svg width="2876pt" height="520pt"
 viewBox="0.00 0.00 2876.23 520.00" xmlns="http://www.w3.org/2000/svg" xmlns:xlink="http://www.w3.org/1999/xlink">
<g id="graph0" class="graph" transform="scale(1 1) rotate(0) translate(4 516)">
<title>G</title>
<polygon fill="white" stroke="transparent" points="-4,4 -4,-516 2872.23,-516 2872.23,4 -4,4"/>
<g id="clust1" class="cluster">
<title>cluster_Roles</title>
<polygon fill="none" stroke="black" points="492,-235 492,-393 1070,-393 1070,-235 492,-235"/>
<text text-anchor="middle" x="781" y="-377.8" font-family="Times,serif" font-size="14.00">Roles</text>
</g>
<g id="clust2" class="cluster">
<title>cluster_Event</title>
<polygon fill="none" stroke="black" points="1182,-235 1182,-393 1636,-393 1636,-235 1182,-235"/>
<text text-anchor="middle" x="1409" y="-377.8" font-family="Times,serif" font-size="14.00">Event</text>
</g>
<g id="clust3" class="cluster">
<title>cluster_ValidatorOperatorConfig</title>
<polygon fill="none" stroke="black" points="8,-318 8,-468 260,-468 260,-318 8,-318"/>
<text text-anchor="middle" x="134" y="-452.8" font-family="Times,serif" font-size="14.00">ValidatorOperatorConfig</text>
</g>
<g id="clust4" class="cluster">
<title>cluster_Signer</title>
<polygon fill="none" stroke="black" points="1259,-80 1259,-227 1409,-227 1409,-80 1259,-80"/>
<text text-anchor="middle" x="1334" y="-211.8" font-family="Times,serif" font-size="14.00">Signer</text>
</g>
<g id="clust5" class="cluster">
<title>cluster_Errors</title>
<polygon fill="none" stroke="black" points="360,-80 360,-227 1251,-227 1251,-80 360,-80"/>
<text text-anchor="middle" x="805.5" y="-211.8" font-family="Times,serif" font-size="14.00">Errors</text>
</g>
<g id="clust6" class="cluster">
<title>cluster_DiemTimestamp</title>
<polygon fill="none" stroke="black" points="300,-235 300,-393 452,-393 452,-235 300,-235"/>
<text text-anchor="middle" x="376" y="-377.8" font-family="Times,serif" font-size="14.00">DiemTimestamp</text>
</g>
<g id="clust7" class="cluster">
<title>cluster_CoreAddresses</title>
<polygon fill="none" stroke="black" points="2203,-152 2203,-310 2850,-310 2850,-152 2203,-152"/>
<text text-anchor="middle" x="2526.5" y="-294.8" font-family="Times,serif" font-size="14.00">CoreAddresses</text>
</g>
<g id="clust8" class="cluster">
<title>cluster_Option</title>
<polygon fill="none" stroke="black" points="1644,-318 1644,-393 1720,-393 1720,-318 1644,-318"/>
<text text-anchor="middle" x="1682" y="-377.8" font-family="Times,serif" font-size="14.00">Option</text>
</g>
<g id="clust9" class="cluster">
<title>cluster_AccountFreezing</title>
<polygon fill="none" stroke="black" points="1811,-235 1811,-310 1921,-310 1921,-235 1811,-235"/>
<text text-anchor="middle" x="1866" y="-294.8" font-family="Times,serif" font-size="14.00">AccountFreezing</text>
</g>
<g id="clust10" class="cluster">
<title>cluster_Vector</title>
<polygon fill="none" stroke="black" points="1551,-8 1551,-227 2195,-227 2195,-8 1551,-8"/>
<text text-anchor="middle" x="1873" y="-211.8" font-family="Times,serif" font-size="14.00">Vector</text>
</g>
<g id="clust11" class="cluster">
<title>cluster_BCS</title>
<polygon fill="none" stroke="black" points="1417,-152 1417,-227 1513,-227 1513,-152 1417,-152"/>
<text text-anchor="middle" x="1465" y="-211.8" font-family="Times,serif" font-size="14.00">BCS</text>
</g>
<!-- create_validator_operator_account -->
<g id="node1" class="node">
<title>create_validator_operator_account</title>
<ellipse fill="none" stroke="black" cx="1107" cy="-494" rx="132.68" ry="18"/>
<text text-anchor="middle" x="1107" y="-490.3" font-family="Times,serif" font-size="14.00">create_validator_operator_account</text>
</g>
<!-- Roles::new_validator_operator_role -->
<g id="node2" class="node">
<title>Roles::new_validator_operator_role</title>
<ellipse fill="none" stroke="black" cx="950" cy="-344" rx="112.38" ry="18"/>
<text text-anchor="middle" x="950" y="-340.3" font-family="Times,serif" font-size="14.00">new_validator_operator_role</text>
</g>
<!-- create_validator_operator_account&#45;&gt;Roles::new_validator_operator_role -->
<g id="edge1" class="edge">
<title>create_validator_operator_account&#45;&gt;Roles::new_validator_operator_role</title>
<path fill="none" stroke="black" d="M1164.45,-477.7C1168.12,-474.98 1171.38,-471.77 1174,-468 1190.98,-443.54 1192.33,-424.47 1174,-401 1157.86,-380.33 1099.73,-366.17 1046.73,-357.25"/>
<polygon fill="black" stroke="black" points="1046.99,-353.75 1036.56,-355.59 1045.86,-360.66 1046.99,-353.75"/>
</g>
<!-- Event::publish_generator -->
<g id="node3" class="node">
<title>Event::publish_generator</title>
<ellipse fill="none" stroke="black" cx="1264" cy="-344" rx="74.19" ry="18"/>
<text text-anchor="middle" x="1264" y="-340.3" font-family="Times,serif" font-size="14.00">publish_generator</text>
</g>
<!-- create_validator_operator_account&#45;&gt;Event::publish_generator -->
<g id="edge2" class="edge">
<title>create_validator_operator_account&#45;&gt;Event::publish_generator</title>
<path fill="none" stroke="black" d="M1049.55,-477.7C1045.88,-474.98 1042.62,-471.77 1040,-468 1023.02,-443.54 1020.29,-423.32 1040,-401 1049.49,-390.25 1089.98,-395.96 1104,-393 1141.38,-385.11 1182.66,-372.63 1213.93,-362.37"/>
<polygon fill="black" stroke="black" points="1215.32,-365.6 1223.71,-359.13 1213.12,-358.96 1215.32,-365.6"/>
</g>
<!-- ValidatorOperatorConfig::publish -->
<g id="node4" class="node">
<title>ValidatorOperatorConfig::publish</title>
<ellipse fill="none" stroke="black" cx="216" cy="-419" rx="36.29" ry="18"/>
<text text-anchor="middle" x="216" y="-415.3" font-family="Times,serif" font-size="14.00">publish</text>
</g>
<!-- create_validator_operator_account&#45;&gt;ValidatorOperatorConfig::publish -->
<g id="edge3" class="edge">
<title>create_validator_operator_account&#45;&gt;ValidatorOperatorConfig::publish</title>
<path fill="none" stroke="black" d="M996.85,-483.98C800.37,-467.88 397.3,-434.85 261.68,-423.74"/>
<polygon fill="black" stroke="black" points="261.89,-420.25 251.63,-422.92 261.32,-427.22 261.89,-420.25"/>
</g>
<!-- create_signer -->
<g id="node5" class="node">
<title>create_signer</title>
<ellipse fill="none" stroke="black" cx="1107" cy="-419" rx="57.69" ry="18"/>
<text text-anchor="middle" x="1107" y="-415.3" font-family="Times,serif" font-size="14.00">create_signer</text>
</g>
<!-- create_validator_operator_account&#45;&gt;create_signer -->
<g id="edge4" class="edge">
<title>create_validator_operator_account&#45;&gt;create_signer</title>
<path fill="none" stroke="black" d="M1107,-475.7C1107,-467.25 1107,-456.87 1107,-447.37"/>
<polygon fill="black" stroke="black" points="1110.5,-447.18 1107,-437.18 1103.5,-447.18 1110.5,-447.18"/>
</g>
<!-- make_account -->
<g id="node6" class="node">
<title>make_account</title>
<ellipse fill="none" stroke="black" cx="1797" cy="-419" rx="61.99" ry="18"/>
<text text-anchor="middle" x="1797" y="-415.3" font-family="Times,serif" font-size="14.00">make_account</text>
</g>
<!-- create_validator_operator_account&#45;&gt;make_account -->
<g id="edge5" class="edge">
<title>create_validator_operator_account&#45;&gt;make_account</title>
<path fill="none" stroke="black" d="M1208.07,-482.31C1350.83,-467.2 1607.69,-440.03 1729.45,-427.15"/>
<polygon fill="black" stroke="black" points="1730.16,-430.59 1739.74,-426.06 1729.43,-423.63 1730.16,-430.59"/>
</g>
<!-- Roles::assert_diem_root -->
<g id="node7" class="node">
<title>Roles::assert_diem_root</title>
<ellipse fill="none" stroke="black" cx="809" cy="-261" rx="71.49" ry="18"/>
<text text-anchor="middle" x="809" y="-257.3" font-family="Times,serif" font-size="14.00">assert_diem_root</text>
</g>
<!-- Roles::new_validator_operator_role&#45;&gt;Roles::assert_diem_root -->
<g id="edge6" class="edge">
<title>Roles::new_validator_operator_role&#45;&gt;Roles::assert_diem_root</title>
<path fill="none" stroke="black" d="M921.13,-326.41C899.12,-313.77 868.69,-296.29 845.08,-282.73"/>
<polygon fill="black" stroke="black" points="846.81,-279.69 836.4,-277.74 843.33,-285.76 846.81,-279.69"/>
</g>
<!-- Roles::grant_role -->
<g id="node8" class="node">
<title>Roles::grant_role</title>
<ellipse fill="none" stroke="black" cx="950" cy="-261" rx="46.59" ry="18"/>
<text text-anchor="middle" x="950" y="-257.3" font-family="Times,serif" font-size="14.00">grant_role</text>
</g>
<!-- Roles::new_validator_operator_role&#45;&gt;Roles::grant_role -->
<g id="edge7" class="edge">
<title>Roles::new_validator_operator_role&#45;&gt;Roles::grant_role</title>
<path fill="none" stroke="black" d="M950,-325.82C950,-315.19 950,-301.31 950,-289.2"/>
<polygon fill="black" stroke="black" points="953.5,-289.15 950,-279.15 946.5,-289.15 953.5,-289.15"/>
</g>
<!-- Signer::address_of -->
<g id="node9" class="node">
<title>Signer::address_of</title>
<ellipse fill="none" stroke="black" cx="1316" cy="-178" rx="48.99" ry="18"/>
<text text-anchor="middle" x="1316" y="-174.3" font-family="Times,serif" font-size="14.00">address_of</text>
</g>
<!-- Event::publish_generator&#45;&gt;Signer::address_of -->
<g id="edge8" class="edge">
<title>Event::publish_generator&#45;&gt;Signer::address_of</title>
<path fill="none" stroke="black" d="M1269.47,-325.76C1278.54,-297.14 1296.78,-239.63 1307.53,-205.72"/>
<polygon fill="black" stroke="black" points="1310.92,-206.6 1310.61,-196.01 1304.25,-204.48 1310.92,-206.6"/>
</g>
<!-- Errors::already_published -->
<g id="node10" class="node">
<title>Errors::already_published</title>
<ellipse fill="none" stroke="black" cx="845" cy="-178" rx="75.29" ry="18"/>
<text text-anchor="middle" x="845" y="-174.3" font-family="Times,serif" font-size="14.00">already_published</text>
</g>
<!-- Event::publish_generator&#45;&gt;Errors::already_published -->
<g id="edge9" class="edge">
<title>Event::publish_generator&#45;&gt;Errors::already_published</title>
<path fill="none" stroke="black" d="M1246.33,-326.37C1218.3,-301.19 1160.77,-254.3 1102,-235 1065.65,-223.06 966.77,-237.58 930,-227 910.8,-221.47 891.27,-210.86 875.77,-201.02"/>
<polygon fill="black" stroke="black" points="877.43,-197.92 867.15,-195.35 873.58,-203.77 877.43,-197.92"/>
</g>
<!-- ValidatorOperatorConfig::publish&#45;&gt;Roles::assert_diem_root -->
<g id="edge13" class="edge">
<title>ValidatorOperatorConfig::publish&#45;&gt;Roles::assert_diem_root</title>
<path fill="none" stroke="black" d="M252.43,-418.48C311.35,-418.57 424.18,-415.67 456,-393 485.96,-371.66 461.81,-340.39 491,-318 527.69,-289.86 649.11,-274.74 730.85,-267.54"/>
<polygon fill="black" stroke="black" points="731.45,-271 741.11,-266.65 730.85,-264.02 731.45,-271"/>
</g>
<!-- ValidatorOperatorConfig::publish&#45;&gt;Signer::address_of -->
<g id="edge10" class="edge">
<title>ValidatorOperatorConfig::publish&#45;&gt;Signer::address_of</title>
<path fill="none" stroke="black" d="M244.03,-407.19C250.43,-403.55 256.62,-398.87 261,-393 304,-335.35 240.1,-280.26 296,-235 316.7,-218.24 1229.86,-235.82 1255,-227 1269.39,-221.95 1282.98,-211.99 1293.66,-202.44"/>
<polygon fill="black" stroke="black" points="1296.35,-204.71 1301.23,-195.31 1291.55,-199.62 1296.35,-204.71"/>
</g>
<!-- ValidatorOperatorConfig::publish&#45;&gt;Errors::already_published -->
<g id="edge11" class="edge">
<title>ValidatorOperatorConfig::publish&#45;&gt;Errors::already_published</title>
<path fill="none" stroke="black" d="M252.46,-417.62C414.18,-415.87 1059.47,-407.96 1074,-393 1098.46,-367.81 1098.13,-260.51 1074,-235 1062.99,-223.36 945.38,-231.5 930,-227 910.83,-221.39 891.29,-210.77 875.79,-200.94"/>
<polygon fill="black" stroke="black" points="877.45,-197.84 867.16,-195.29 873.61,-203.7 877.45,-197.84"/>
</g>
<!-- DiemTimestamp::assert_operating -->
<g id="node11" class="node">
<title>DiemTimestamp::assert_operating</title>
<ellipse fill="none" stroke="black" cx="376" cy="-344" rx="68.49" ry="18"/>
<text text-anchor="middle" x="376" y="-340.3" font-family="Times,serif" font-size="14.00">assert_operating</text>
</g>
<!-- ValidatorOperatorConfig::publish&#45;&gt;DiemTimestamp::assert_operating -->
<g id="edge12" class="edge">
<title>ValidatorOperatorConfig::publish&#45;&gt;DiemTimestamp::assert_operating</title>
<path fill="none" stroke="black" d="M247.33,-409.67C261.81,-405.39 279.07,-399.67 294,-393 310.84,-385.48 328.61,-375.38 343.29,-366.38"/>
<polygon fill="black" stroke="black" points="345.36,-369.21 351.99,-360.95 341.65,-363.27 345.36,-369.21"/>
</g>
<!-- Roles::assert_validator_operator -->
<g id="node12" class="node">
<title>Roles::assert_validator_operator</title>
<ellipse fill="none" stroke="black" cx="600" cy="-344" rx="100.18" ry="18"/>
<text text-anchor="middle" x="600" y="-340.3" font-family="Times,serif" font-size="14.00">assert_validator_operator</text>
</g>
<!-- ValidatorOperatorConfig::publish&#45;&gt;Roles::assert_validator_operator -->
<g id="edge14" class="edge">
<title>ValidatorOperatorConfig::publish&#45;&gt;Roles::assert_validator_operator</title>
<path fill="none" stroke="black" d="M252.4,-418.13C304.82,-417.54 404.26,-413.47 486,-393 511.4,-386.64 538.48,-375.44 559.86,-365.47"/>
<polygon fill="black" stroke="black" points="561.43,-368.59 568.96,-361.14 558.42,-362.27 561.43,-368.59"/>
</g>
<!-- ValidatorOperatorConfig::has_validator_operator_config -->
<g id="node13" class="node">
<title>ValidatorOperatorConfig::has_validator_operator_config</title>
<ellipse fill="none" stroke="black" cx="134" cy="-344" rx="118.08" ry="18"/>
<text text-anchor="middle" x="134" y="-340.3" font-family="Times,serif" font-size="14.00">has_validator_operator_config</text>
</g>
<!-- ValidatorOperatorConfig::publish&#45;&gt;ValidatorOperatorConfig::has_validator_operator_config -->
<g id="edge15" class="edge">
<title>ValidatorOperatorConfig::publish&#45;&gt;ValidatorOperatorConfig::has_validator_operator_config</title>
<path fill="none" stroke="black" d="M199.01,-402.87C187.9,-392.98 173.16,-379.86 160.52,-368.61"/>
<polygon fill="black" stroke="black" points="162.77,-365.93 152.98,-361.89 158.12,-371.16 162.77,-365.93"/>
</g>
<!-- make_account&#45;&gt;Signer::address_of -->
<g id="edge16" class="edge">
<title>make_account&#45;&gt;Signer::address_of</title>
<path fill="none" stroke="black" d="M1858.95,-417.78C1949.98,-416.81 2111.07,-412.34 2129,-393 2151.67,-368.56 2152.28,-341.86 2129,-318 2116.5,-305.19 1822.13,-319.56 1807,-310 1775.41,-290.05 1800.62,-254.92 1769,-235 1752.26,-224.46 1432.21,-231.72 1413,-227 1390.05,-221.36 1366.25,-209.68 1347.96,-199.25"/>
<polygon fill="black" stroke="black" points="1349.59,-196.15 1339.19,-194.11 1346.05,-202.19 1349.59,-196.15"/>
</g>
<!-- Errors::invalid_argument -->
<g id="node14" class="node">
<title>Errors::invalid_argument</title>
<ellipse fill="none" stroke="black" cx="1012" cy="-178" rx="73.39" ry="18"/>
<text text-anchor="middle" x="1012" y="-174.3" font-family="Times,serif" font-size="14.00">invalid_argument</text>
</g>
<!-- make_account&#45;&gt;Errors::invalid_argument -->
<g id="edge17" class="edge">
<title>make_account&#45;&gt;Errors::invalid_argument</title>
<path fill="none" stroke="black" d="M1793.71,-400.94C1785.18,-362.25 1758.31,-268.6 1693,-235 1663.41,-219.77 1126.06,-235.92 1094,-227 1075.14,-221.75 1056.14,-211.05 1041.18,-201.08"/>
<polygon fill="black" stroke="black" points="1043.09,-198.15 1032.88,-195.34 1039.11,-203.91 1043.09,-198.15"/>
</g>
<!-- Errors::not_published -->
<g id="node15" class="node">
<title>Errors::not_published</title>
<ellipse fill="none" stroke="black" cx="691" cy="-178" rx="60.39" ry="18"/>
<text text-anchor="middle" x="691" y="-174.3" font-family="Times,serif" font-size="14.00">not_published</text>
</g>
<!-- make_account&#45;&gt;Errors::not_published -->
<g id="edge18" class="edge">
<title>make_account&#45;&gt;Errors::not_published</title>
<path fill="none" stroke="black" d="M1772.76,-402.35C1769.25,-399.49 1765.86,-396.34 1763,-393 1738.56,-364.46 1753.4,-341.39 1724,-318 1712.86,-309.14 1704.71,-318.08 1693,-310 1659.41,-286.82 1676.16,-253.93 1640,-235 1618.37,-223.67 784.29,-234.33 761,-227 744.78,-221.89 728.97,-211.64 716.48,-201.92"/>
<polygon fill="black" stroke="black" points="718.37,-198.94 708.41,-195.34 713.95,-204.37 718.37,-198.94"/>
</g>
<!-- CoreAddresses::CORE_CODE_ADDRESS -->
<g id="node16" class="node">
<title>CoreAddresses::CORE_CODE_ADDRESS</title>
<ellipse fill="none" stroke="black" cx="2478" cy="-261" rx="106.68" ry="18"/>
<text text-anchor="middle" x="2478" y="-257.3" font-family="Times,serif" font-size="14.00">CORE_CODE_ADDRESS</text>
</g>
<!-- make_account&#45;&gt;CoreAddresses::CORE_CODE_ADDRESS -->
<g id="edge19" class="edge">
<title>make_account&#45;&gt;CoreAddresses::CORE_CODE_ADDRESS</title>
<path fill="none" stroke="black" d="M1843.57,-407.02C1852.59,-403.51 1861.55,-398.94 1869,-393 1899.77,-368.49 1881.75,-337.36 1916,-318 1937.57,-305.81 2337.74,-315.05 2362,-310 2388.39,-304.51 2416.36,-293.12 2438.22,-282.81"/>
<polygon fill="black" stroke="black" points="2440.02,-285.83 2447.5,-278.33 2436.98,-279.53 2440.02,-285.83"/>
</g>
<!-- CoreAddresses::DIEM_ROOT_ADDRESS -->
<g id="node17" class="node">
<title>CoreAddresses::DIEM_ROOT_ADDRESS</title>
<ellipse fill="none" stroke="black" cx="2320" cy="-178" rx="106.68" ry="18"/>
<text text-anchor="middle" x="2320" y="-174.3" font-family="Times,serif" font-size="14.00">DIEM_ROOT_ADDRESS</text>
</g>
<!-- make_account&#45;&gt;CoreAddresses::DIEM_ROOT_ADDRESS -->
<g id="edge20" class="edge">
<title>make_account&#45;&gt;CoreAddresses::DIEM_ROOT_ADDRESS</title>
<path fill="none" stroke="black" d="M1855.65,-413.14C1890.17,-409.31 1929.78,-402.93 1944,-393 1975.51,-371.01 1953.84,-337.42 1987,-318 2007.71,-305.87 2834.11,-327.05 2851,-310 2874.46,-286.32 2873.3,-259.78 2851,-235 2823.59,-204.54 2580.74,-189.44 2433.12,-183.02"/>
<polygon fill="black" stroke="black" points="2433.24,-179.52 2423.1,-182.59 2432.94,-186.51 2433.24,-179.52"/>
</g>
<!-- CoreAddresses::VM_RESERVED_ADDRESS -->
<g id="node18" class="node">
<title>CoreAddresses::VM_RESERVED_ADDRESS</title>
<ellipse fill="none" stroke="black" cx="2722" cy="-261" rx="119.68" ry="18"/>
<text text-anchor="middle" x="2722" y="-257.3" font-family="Times,serif" font-size="14.00">VM_RESERVED_ADDRESS</text>
</g>
<!-- make_account&#45;&gt;CoreAddresses::VM_RESERVED_ADDRESS -->
<g id="edge21" class="edge">
<title>make_account&#45;&gt;CoreAddresses::VM_RESERVED_ADDRESS</title>
<path fill="none" stroke="black" d="M1855.62,-413.09C1873.01,-409.47 1891.32,-403.34 1906,-393 1938.36,-370.22 1919.4,-337.22 1954,-318 1969.54,-309.37 2576.53,-313.28 2594,-310 2623.24,-304.51 2654.54,-292.89 2678.86,-282.45"/>
<polygon fill="black" stroke="black" points="2680.41,-285.6 2688.16,-278.38 2677.6,-279.19 2680.41,-285.6"/>
</g>
<!-- Roles::get_role_id -->
<g id="node19" class="node">
<title>Roles::get_role_id</title>
<ellipse fill="none" stroke="black" cx="769" cy="-344" rx="50.89" ry="18"/>
<text text-anchor="middle" x="769" y="-340.3" font-family="Times,serif" font-size="14.00">get_role_id</text>
</g>
<!-- make_account&#45;&gt;Roles::get_role_id -->
<g id="edge22" class="edge">
<title>make_account&#45;&gt;Roles::get_role_id</title>
<path fill="none" stroke="black" d="M1735.55,-416.24C1623.78,-413.06 1379.78,-406.19 1174,-401 1154.83,-400.52 847.02,-399.56 829,-393 815.01,-387.91 801.82,-378.14 791.39,-368.74"/>
<polygon fill="black" stroke="black" points="793.64,-366.05 783.98,-361.7 788.82,-371.13 793.64,-366.05"/>
</g>
<!-- Event::emit_event -->
<g id="node20" class="node">
<title>Event::emit_event</title>
<ellipse fill="none" stroke="black" cx="1578" cy="-344" rx="50.09" ry="18"/>
<text text-anchor="middle" x="1578" y="-340.3" font-family="Times,serif" font-size="14.00">emit_event</text>
</g>
<!-- make_account&#45;&gt;Event::emit_event -->
<g id="edge23" class="edge">
<title>make_account&#45;&gt;Event::emit_event</title>
<path fill="none" stroke="black" d="M1736.13,-415.39C1706.19,-412.36 1670.14,-406.04 1640,-393 1626.16,-387.01 1612.69,-377.22 1601.86,-368.04"/>
<polygon fill="black" stroke="black" points="1603.94,-365.21 1594.13,-361.21 1599.31,-370.45 1603.94,-365.21"/>
</g>
<!-- Event::new_event_handle -->
<g id="node21" class="node">
<title>Event::new_event_handle</title>
<ellipse fill="none" stroke="black" cx="1433" cy="-344" rx="76.89" ry="18"/>
<text text-anchor="middle" x="1433" y="-340.3" font-family="Times,serif" font-size="14.00">new_event_handle</text>
</g>
<!-- make_account&#45;&gt;Event::new_event_handle -->
<g id="edge24" class="edge">
<title>make_account&#45;&gt;Event::new_event_handle</title>
<path fill="none" stroke="black" d="M1736.36,-415.5C1667.07,-412.12 1558.18,-405.09 1519,-393 1499.88,-387.1 1480.27,-376.56 1464.61,-366.86"/>
<polygon fill="black" stroke="black" points="1466.19,-363.72 1455.88,-361.29 1462.43,-369.62 1466.19,-363.72"/>
</g>
<!-- Option::some -->
<g id="node22" class="node">
<title>Option::some</title>
<ellipse fill="none" stroke="black" cx="1682" cy="-344" rx="29.8" ry="18"/>
<text text-anchor="middle" x="1682" y="-340.3" font-family="Times,serif" font-size="14.00">some</text>
</g>
<!-- make_account&#45;&gt;Option::some -->
<g id="edge25" class="edge">
<title>make_account&#45;&gt;Option::some</title>
<path fill="none" stroke="black" d="M1752.98,-406.28C1743.66,-402.78 1734.18,-398.4 1726,-393 1716.14,-386.48 1706.99,-377.28 1699.62,-368.68"/>
<polygon fill="black" stroke="black" points="1702.16,-366.26 1693.13,-360.71 1696.73,-370.68 1702.16,-366.26"/>
</g>
<!-- AccountFreezing::create -->
<g id="node23" class="node">
<title>AccountFreezing::create</title>
<ellipse fill="none" stroke="black" cx="1853" cy="-261" rx="31.7" ry="18"/>
<text text-anchor="middle" x="1853" y="-257.3" font-family="Times,serif" font-size="14.00">create</text>
</g>
<!-- make_account&#45;&gt;AccountFreezing::create -->
<g id="edge26" class="edge">
<title>make_account&#45;&gt;AccountFreezing::create</title>
<path fill="none" stroke="black" d="M1803.1,-401.01C1812.82,-373.93 1831.9,-320.77 1843.45,-288.61"/>
<polygon fill="black" stroke="black" points="1846.82,-289.57 1846.91,-278.97 1840.24,-287.2 1846.82,-289.57"/>
</g>
<!-- create_authentication_key -->
<g id="node24" class="node">
<title>create_authentication_key</title>
<ellipse fill="none" stroke="black" cx="2032" cy="-261" rx="102.88" ry="18"/>
<text text-anchor="middle" x="2032" y="-257.3" font-family="Times,serif" font-size="14.00">create_authentication_key</text>
</g>
<!-- make_account&#45;&gt;create_authentication_key -->
<g id="edge27" class="edge">
<title>make_account&#45;&gt;create_authentication_key</title>
<path fill="none" stroke="black" d="M1822.51,-402.34C1826.25,-399.48 1829.88,-396.33 1833,-393 1859.56,-364.61 1845.91,-339.93 1878,-318 1895.49,-306.04 1904.73,-316.16 1925,-310 1948.04,-303 1972.63,-292.22 1992.42,-282.65"/>
<polygon fill="black" stroke="black" points="1994.01,-285.77 2001.43,-278.21 1990.91,-279.49 1994.01,-285.77"/>
</g>
<!-- destroy_signer -->
<g id="node25" class="node">
<title>destroy_signer</title>
<ellipse fill="none" stroke="black" cx="2058" cy="-344" rx="62.29" ry="18"/>
<text text-anchor="middle" x="2058" y="-340.3" font-family="Times,serif" font-size="14.00">destroy_signer</text>
</g>
<!-- make_account&#45;&gt;destroy_signer -->
<g id="edge28" class="edge">
<title>make_account&#45;&gt;destroy_signer</title>
<path fill="none" stroke="black" d="M1858.13,-416.29C1894.95,-413.67 1942.25,-407.46 1982,-393 1998.72,-386.92 2015.63,-376.73 2029.23,-367.3"/>
<polygon fill="black" stroke="black" points="2031.57,-369.94 2037.66,-361.27 2027.49,-364.24 2031.57,-369.94"/>
</g>
<!-- Roles::assert_diem_root&#45;&gt;Signer::address_of -->
<g id="edge29" class="edge">
<title>Roles::assert_diem_root&#45;&gt;Signer::address_of</title>
<path fill="none" stroke="black" d="M848.72,-245.96C862.83,-241.61 878.95,-237.34 894,-235 933.65,-228.84 1217.24,-240.55 1255,-227 1269.35,-221.85 1282.94,-211.88 1293.62,-202.35"/>
<polygon fill="black" stroke="black" points="1296.31,-204.63 1301.2,-195.23 1291.51,-199.53 1296.31,-204.63"/>
</g>
<!-- Roles::assert_diem_root&#45;&gt;Errors::not_published -->
<g id="edge30" class="edge">
<title>Roles::assert_diem_root&#45;&gt;Errors::not_published</title>
<path fill="none" stroke="black" d="M785.4,-243.8C767.36,-231.42 742.3,-214.22 722.54,-200.65"/>
<polygon fill="black" stroke="black" points="724.38,-197.67 714.15,-194.89 720.42,-203.44 724.38,-197.67"/>
</g>
<!-- Errors::requires_role -->
<g id="node26" class="node">
<title>Errors::requires_role</title>
<ellipse fill="none" stroke="black" cx="555" cy="-178" rx="57.39" ry="18"/>
<text text-anchor="middle" x="555" y="-174.3" font-family="Times,serif" font-size="14.00">requires_role</text>
</g>
<!-- Roles::assert_diem_root&#45;&gt;Errors::requires_role -->
<g id="edge31" class="edge">
<title>Roles::assert_diem_root&#45;&gt;Errors::requires_role</title>
<path fill="none" stroke="black" d="M740.73,-255.32C704.37,-251.02 659.53,-242.79 622,-227 607.35,-220.84 592.81,-210.99 581.03,-201.81"/>
<polygon fill="black" stroke="black" points="582.96,-198.87 572.98,-195.31 578.56,-204.32 582.96,-198.87"/>
</g>
<!-- CoreAddresses::assert_diem_root -->
<g id="node27" class="node">
<title>CoreAddresses::assert_diem_root</title>
<ellipse fill="none" stroke="black" cx="2282" cy="-261" rx="71.49" ry="18"/>
<text text-anchor="middle" x="2282" y="-257.3" font-family="Times,serif" font-size="14.00">assert_diem_root</text>
</g>
<!-- Roles::assert_diem_root&#45;&gt;CoreAddresses::assert_diem_root -->
<g id="edge32" class="edge">
<title>Roles::assert_diem_root&#45;&gt;CoreAddresses::assert_diem_root</title>
<path fill="none" stroke="black" d="M830.59,-278.27C848.7,-291.43 875.88,-308.24 903,-314 919.74,-317.55 2118.14,-316.95 2135,-314 2171.13,-307.68 2210.11,-293.26 2238.84,-281.04"/>
<polygon fill="black" stroke="black" points="2240.39,-284.19 2248.17,-277 2237.6,-277.77 2240.39,-284.19"/>
</g>
<!-- Roles::grant_role&#45;&gt;Signer::address_of -->
<g id="edge33" class="edge">
<title>Roles::grant_role&#45;&gt;Signer::address_of</title>
<path fill="none" stroke="black" d="M993.24,-253.98C1033.7,-248.5 1095.86,-240.44 1150,-235 1173.28,-232.66 1233.19,-235.49 1255,-227 1269.01,-221.54 1282.39,-211.73 1293.04,-202.39"/>
<polygon fill="black" stroke="black" points="1295.62,-204.77 1300.61,-195.42 1290.88,-199.62 1295.62,-204.77"/>
</g>
<!-- Roles::grant_role&#45;&gt;Errors::already_published -->
<g id="edge34" class="edge">
<title>Roles::grant_role&#45;&gt;Errors::already_published</title>
<path fill="none" stroke="black" d="M929.75,-244.38C914.08,-232.29 892.15,-215.37 874.53,-201.78"/>
<polygon fill="black" stroke="black" points="876.32,-198.74 866.26,-195.4 872.04,-204.28 876.32,-198.74"/>
</g>
<!-- Signer::borrow_address -->
<g id="node28" class="node">
<title>Signer::borrow_address</title>
<ellipse fill="none" stroke="black" cx="1334" cy="-106" rx="66.89" ry="18"/>
<text text-anchor="middle" x="1334" y="-102.3" font-family="Times,serif" font-size="14.00">borrow_address</text>
</g>
<!-- Signer::address_of&#45;&gt;Signer::borrow_address -->
<g id="edge35" class="edge">
<title>Signer::address_of&#45;&gt;Signer::borrow_address</title>
<path fill="none" stroke="black" d="M1320.36,-160.05C1322.36,-152.26 1324.79,-142.82 1327.04,-134.08"/>
<polygon fill="black" stroke="black" points="1330.46,-134.83 1329.56,-124.28 1323.68,-133.09 1330.46,-134.83"/>
</g>
<!-- Errors::make -->
<g id="node29" class="node">
<title>Errors::make</title>
<ellipse fill="none" stroke="black" cx="768" cy="-106" rx="30.59" ry="18"/>
<text text-anchor="middle" x="768" y="-102.3" font-family="Times,serif" font-size="14.00">make</text>
</g>
<!-- Errors::already_published&#45;&gt;Errors::make -->
<g id="edge36" class="edge">
<title>Errors::already_published&#45;&gt;Errors::make</title>
<path fill="none" stroke="black" d="M826.75,-160.41C816.2,-150.82 802.81,-138.65 791.48,-128.35"/>
<polygon fill="black" stroke="black" points="793.78,-125.71 784.03,-121.57 789.07,-130.89 793.78,-125.71"/>
</g>
<!-- Errors::invalid_state -->
<g id="node30" class="node">
<title>Errors::invalid_state</title>
<ellipse fill="none" stroke="black" cx="424" cy="-178" rx="55.79" ry="18"/>
<text text-anchor="middle" x="424" y="-174.3" font-family="Times,serif" font-size="14.00">invalid_state</text>
</g>
<!-- DiemTimestamp::assert_operating&#45;&gt;Errors::invalid_state -->
<g id="edge37" class="edge">
<title>DiemTimestamp::assert_operating&#45;&gt;Errors::invalid_state</title>
<path fill="none" stroke="black" d="M343.83,-327.92C337.09,-323.18 330.85,-317.24 327,-310 311.34,-280.57 310.33,-263.87 327,-235 337.56,-216.7 356.63,-203.85 375.08,-195.12"/>
<polygon fill="black" stroke="black" points="376.6,-198.27 384.34,-191.04 373.78,-191.87 376.6,-198.27"/>
</g>
<!-- DiemTimestamp::is_operating -->
<g id="node31" class="node">
<title>DiemTimestamp::is_operating</title>
<ellipse fill="none" stroke="black" cx="390" cy="-261" rx="53.89" ry="18"/>
<text text-anchor="middle" x="390" y="-257.3" font-family="Times,serif" font-size="14.00">is_operating</text>
</g>
<!-- DiemTimestamp::assert_operating&#45;&gt;DiemTimestamp::is_operating -->
<g id="edge38" class="edge">
<title>DiemTimestamp::assert_operating&#45;&gt;DiemTimestamp::is_operating</title>
<path fill="none" stroke="black" d="M378.97,-325.82C380.81,-315.19 383.21,-301.31 385.3,-289.2"/>
<polygon fill="black" stroke="black" points="388.78,-289.6 387.04,-279.15 381.88,-288.41 388.78,-289.6"/>
</g>
<!-- Roles::assert_validator_operator&#45;&gt;Signer::address_of -->
<g id="edge39" class="edge">
<title>Roles::assert_validator_operator&#45;&gt;Signer::address_of</title>
<path fill="none" stroke="black" d="M652.84,-328.66C670.56,-324.45 690.51,-320.35 709,-318 774.5,-309.69 941.55,-324.35 1006,-310 1087.4,-291.88 1097.35,-256.23 1178,-235 1211.27,-226.24 1223.11,-239.93 1255,-227 1268.93,-221.35 1282.31,-211.51 1292.96,-202.2"/>
<polygon fill="black" stroke="black" points="1295.53,-204.6 1300.55,-195.27 1290.8,-199.44 1295.53,-204.6"/>
</g>
<!-- Roles::assert_validator_operator&#45;&gt;Errors::not_published -->
<g id="edge40" class="edge">
<title>Roles::assert_validator_operator&#45;&gt;Errors::not_published</title>
<path fill="none" stroke="black" d="M609.4,-326.07C625.34,-297.34 657.77,-238.88 676.6,-204.96"/>
<polygon fill="black" stroke="black" points="679.73,-206.53 681.52,-196.09 673.61,-203.13 679.73,-206.53"/>
</g>
<!-- Roles::assert_validator_operator&#45;&gt;Errors::requires_role -->
<g id="edge41" class="edge">
<title>Roles::assert_validator_operator&#45;&gt;Errors::requires_role</title>
<path fill="none" stroke="black" d="M595.27,-325.76C587.42,-297.14 571.64,-239.63 562.33,-205.72"/>
<polygon fill="black" stroke="black" points="565.69,-204.73 559.67,-196.01 558.94,-206.58 565.69,-204.73"/>
</g>
<!-- Errors::invalid_argument&#45;&gt;Errors::make -->
<g id="edge42" class="edge">
<title>Errors::invalid_argument&#45;&gt;Errors::make</title>
<path fill="none" stroke="black" d="M967.68,-163.47C955.19,-159.71 941.57,-155.65 929,-152 886.62,-139.7 837.79,-126.13 805.12,-117.15"/>
<polygon fill="black" stroke="black" points="805.68,-113.67 795.11,-114.4 803.83,-120.42 805.68,-113.67"/>
</g>
<!-- Errors::not_published&#45;&gt;Errors::make -->
<g id="edge43" class="edge">
<title>Errors::not_published&#45;&gt;Errors::make</title>
<path fill="none" stroke="black" d="M708.86,-160.76C719.47,-151.12 733.05,-138.77 744.53,-128.34"/>
<polygon fill="black" stroke="black" points="747.02,-130.8 752.07,-121.48 742.32,-125.62 747.02,-130.8"/>
</g>
<!-- Roles::get_role_id&#45;&gt;Errors::not_published -->
<g id="edge44" class="edge">
<title>Roles::get_role_id&#45;&gt;Errors::not_published</title>
<path fill="none" stroke="black" d="M745.97,-327.91C739.72,-322.86 733.45,-316.77 729,-310 707.98,-278.03 698.36,-234.24 694.12,-206.28"/>
<polygon fill="black" stroke="black" points="697.54,-205.47 692.7,-196.05 690.61,-206.43 697.54,-205.47"/>
</g>
<!-- Event::write_to_event_store -->
<g id="node32" class="node">
<title>Event::write_to_event_store</title>
<ellipse fill="none" stroke="black" cx="1543" cy="-261" rx="85.29" ry="18"/>
<text text-anchor="middle" x="1543" y="-257.3" font-family="Times,serif" font-size="14.00">write_to_event_store</text>
</g>
<!-- Event::emit_event&#45;&gt;Event::write_to_event_store -->
<g id="edge45" class="edge">
<title>Event::emit_event&#45;&gt;Event::write_to_event_store</title>
<path fill="none" stroke="black" d="M1570.58,-325.82C1565.89,-314.98 1559.74,-300.74 1554.44,-288.47"/>
<polygon fill="black" stroke="black" points="1557.59,-286.94 1550.41,-279.15 1551.17,-289.72 1557.59,-286.94"/>
</g>
<!-- Event::new_event_handle&#45;&gt;Signer::address_of -->
<g id="edge46" class="edge">
<title>Event::new_event_handle&#45;&gt;Signer::address_of</title>
<path fill="none" stroke="black" d="M1386.21,-329.64C1362.8,-322.53 1338.65,-314.38 1335,-310 1310.86,-281.05 1309.85,-235.41 1312.25,-206.36"/>
<polygon fill="black" stroke="black" points="1315.76,-206.41 1313.29,-196.11 1308.8,-205.7 1315.76,-206.41"/>
</g>
<!-- Event::new_event_handle&#45;&gt;Errors::not_published -->
<g id="edge47" class="edge">
<title>Event::new_event_handle&#45;&gt;Errors::not_published</title>
<path fill="none" stroke="black" d="M1388.56,-329.3C1375.26,-325.41 1360.59,-321.33 1347,-318 1329.39,-313.69 1324.55,-314.56 1307,-310 1201.71,-282.62 1181.25,-253.24 1074,-235 1039.7,-229.17 794.1,-237.72 761,-227 744.83,-221.76 729.01,-211.49 716.52,-201.8"/>
<polygon fill="black" stroke="black" points="718.41,-198.82 708.44,-195.24 714,-204.26 718.41,-198.82"/>
</g>
<!-- Event::fresh_guid -->
<g id="node33" class="node">
<title>Event::fresh_guid</title>
<ellipse fill="none" stroke="black" cx="1392" cy="-261" rx="48.19" ry="18"/>
<text text-anchor="middle" x="1392" y="-257.3" font-family="Times,serif" font-size="14.00">fresh_guid</text>
</g>
<!-- Event::new_event_handle&#45;&gt;Event::fresh_guid -->
<g id="edge48" class="edge">
<title>Event::new_event_handle&#45;&gt;Event::fresh_guid</title>
<path fill="none" stroke="black" d="M1424.3,-325.82C1418.72,-314.79 1411.37,-300.27 1405.09,-287.86"/>
<polygon fill="black" stroke="black" points="1408.18,-286.22 1400.54,-278.88 1401.94,-289.38 1408.18,-286.22"/>
</g>
<!-- Vector::singleton -->
<g id="node34" class="node">
<title>Vector::singleton</title>
<ellipse fill="none" stroke="black" cx="1691" cy="-178" rx="42.79" ry="18"/>
<text text-anchor="middle" x="1691" y="-174.3" font-family="Times,serif" font-size="14.00">singleton</text>
</g>
<!-- Option::some&#45;&gt;Vector::singleton -->
<g id="edge49" class="edge">
<title>Option::some&#45;&gt;Vector::singleton</title>
<path fill="none" stroke="black" d="M1682.95,-325.76C1684.51,-297.26 1687.65,-240.12 1689.51,-206.16"/>
<polygon fill="black" stroke="black" points="1693.01,-206.19 1690.07,-196.01 1686.02,-205.8 1693.01,-206.19"/>
</g>
<!-- AccountFreezing::create&#45;&gt;Signer::address_of -->
<g id="edge50" class="edge">
<title>AccountFreezing::create&#45;&gt;Signer::address_of</title>
<path fill="none" stroke="black" d="M1833.27,-246.59C1825.44,-242 1816.14,-237.42 1807,-235 1722.35,-212.57 1498.07,-247.81 1413,-227 1390.05,-221.39 1366.24,-209.7 1347.95,-199.27"/>
<polygon fill="black" stroke="black" points="1349.58,-196.17 1339.19,-194.13 1346.04,-202.21 1349.58,-196.17"/>
</g>
<!-- AccountFreezing::create&#45;&gt;Errors::already_published -->
<g id="edge51" class="edge">
<title>AccountFreezing::create&#45;&gt;Errors::already_published</title>
<path fill="none" stroke="black" d="M1823.37,-254.05C1791.37,-247.94 1738.81,-238.8 1693,-235 1650.75,-231.5 970.94,-237.99 930,-227 910.57,-221.78 890.88,-211.09 875.36,-201.11"/>
<polygon fill="black" stroke="black" points="876.99,-197.99 866.73,-195.37 873.11,-203.82 876.99,-197.99"/>
</g>
<!-- create_authentication_key&#45;&gt;Errors::invalid_argument -->
<g id="edge53" class="edge">
<title>create_authentication_key&#45;&gt;Errors::invalid_argument</title>
<path fill="none" stroke="black" d="M1979.89,-245.4C1962.57,-241.2 1943.09,-237.17 1925,-235 1879.16,-229.49 1138.5,-239.3 1094,-227 1075.13,-221.78 1056.13,-211.09 1041.17,-201.11"/>
<polygon fill="black" stroke="black" points="1043.08,-198.18 1032.87,-195.37 1039.1,-203.93 1043.08,-198.18"/>
</g>
<!-- create_authentication_key&#45;&gt;Signer::borrow_address -->
<g id="edge52" class="edge">
<title>create_authentication_key&#45;&gt;Signer::borrow_address</title>
<path fill="none" stroke="black" d="M1979.6,-245.46C1962.35,-241.29 1942.98,-237.27 1925,-235 1904.16,-232.37 1564.27,-238.96 1547,-227 1517.49,-206.56 1544.09,-175.56 1517,-152 1487.77,-126.59 1446.45,-115.06 1410.46,-110"/>
<polygon fill="black" stroke="black" points="1410.83,-106.52 1400.47,-108.74 1409.95,-113.46 1410.83,-106.52"/>
</g>
<!-- Vector::append -->
<g id="node35" class="node">
<title>Vector::append</title>
<ellipse fill="none" stroke="black" cx="1892" cy="-178" rx="36.29" ry="18"/>
<text text-anchor="middle" x="1892" y="-174.3" font-family="Times,serif" font-size="14.00">append</text>
</g>
<!-- create_authentication_key&#45;&gt;Vector::append -->
<g id="edge54" class="edge">
<title>create_authentication_key&#45;&gt;Vector::append</title>
<path fill="none" stroke="black" d="M2003.67,-243.61C1980.43,-230.16 1947.56,-211.15 1923.5,-197.22"/>
<polygon fill="black" stroke="black" points="1925.15,-194.14 1914.75,-192.16 1921.65,-200.2 1925.15,-194.14"/>
</g>
<!-- Vector::length -->
<g id="node36" class="node">
<title>Vector::length</title>
<ellipse fill="none" stroke="black" cx="1998" cy="-34" rx="32.49" ry="18"/>
<text text-anchor="middle" x="1998" y="-30.3" font-family="Times,serif" font-size="14.00">length</text>
</g>
<!-- create_authentication_key&#45;&gt;Vector::length -->
<g id="edge55" class="edge">
<title>create_authentication_key&#45;&gt;Vector::length</title>
<path fill="none" stroke="black" d="M2066.64,-244.01C2128.46,-213.33 2246.77,-143.6 2196,-80 2176.88,-56.04 2092.36,-43.87 2040.13,-38.52"/>
<polygon fill="black" stroke="black" points="2040.43,-35.04 2030.14,-37.54 2039.75,-42 2040.43,-35.04"/>
</g>
<!-- BCS::to_bytes -->
<g id="node37" class="node">
<title>BCS::to_bytes</title>
<ellipse fill="none" stroke="black" cx="1465" cy="-178" rx="40.09" ry="18"/>
<text text-anchor="middle" x="1465" y="-174.3" font-family="Times,serif" font-size="14.00">to_bytes</text>
</g>
<!-- create_authentication_key&#45;&gt;BCS::to_bytes -->
<g id="edge56" class="edge">
<title>create_authentication_key&#45;&gt;BCS::to_bytes</title>
<path fill="none" stroke="black" d="M1979.61,-245.45C1962.35,-241.28 1942.98,-237.25 1925,-235 1902.62,-232.2 1540.01,-235.22 1519,-227 1505.91,-221.88 1493.94,-212.04 1484.61,-202.6"/>
<polygon fill="black" stroke="black" points="1487.1,-200.14 1477.72,-195.22 1481.98,-204.92 1487.1,-200.14"/>
</g>
<!-- Errors::requires_role&#45;&gt;Errors::make -->
<g id="edge57" class="edge">
<title>Errors::requires_role&#45;&gt;Errors::make</title>
<path fill="none" stroke="black" d="M589.64,-163.64C600,-159.76 611.42,-155.6 622,-152 658.95,-139.42 701.66,-126.44 731.3,-117.67"/>
<polygon fill="black" stroke="black" points="732.6,-120.93 741.21,-114.75 730.63,-114.22 732.6,-120.93"/>
</g>
<!-- CoreAddresses::assert_diem_root&#45;&gt;Signer::address_of -->
<g id="edge58" class="edge">
<title>CoreAddresses::assert_diem_root&#45;&gt;Signer::address_of</title>
<path fill="none" stroke="black" d="M2230.19,-248.48C2204.42,-243.3 2172.72,-237.74 2144,-235 2103.57,-231.14 1452.5,-236.47 1413,-227 1389.87,-221.46 1365.89,-209.65 1347.56,-199.14"/>
<polygon fill="black" stroke="black" points="1349.18,-196.03 1338.79,-193.96 1345.62,-202.06 1349.18,-196.03"/>
</g>
<!-- CoreAddresses::assert_diem_root&#45;&gt;CoreAddresses::DIEM_ROOT_ADDRESS -->
<g id="edge60" class="edge">
<title>CoreAddresses::assert_diem_root&#45;&gt;CoreAddresses::DIEM_ROOT_ADDRESS</title>
<path fill="none" stroke="black" d="M2290.06,-242.82C2295.15,-231.98 2301.82,-217.74 2307.58,-205.47"/>
<polygon fill="black" stroke="black" points="2310.87,-206.69 2311.95,-196.15 2304.54,-203.72 2310.87,-206.69"/>
</g>
<!-- Errors::requires_address -->
<g id="node38" class="node">
<title>Errors::requires_address</title>
<ellipse fill="none" stroke="black" cx="1173" cy="-178" rx="69.59" ry="18"/>
<text text-anchor="middle" x="1173" y="-174.3" font-family="Times,serif" font-size="14.00">requires_address</text>
</g>
<!-- CoreAddresses::assert_diem_root&#45;&gt;Errors::requires_address -->
<g id="edge59" class="edge">
<title>CoreAddresses::assert_diem_root&#45;&gt;Errors::requires_address</title>
<path fill="none" stroke="black" d="M2230.19,-248.46C2204.43,-243.27 2172.73,-237.71 2144,-235 2094.83,-230.36 1302.61,-240.14 1255,-227 1236.12,-221.79 1217.12,-211.09 1202.17,-201.11"/>
<polygon fill="black" stroke="black" points="1204.08,-198.18 1193.87,-195.37 1200.1,-203.94 1204.08,-198.18"/>
</g>
<!-- Errors::invalid_state&#45;&gt;Errors::make -->
<g id="edge61" class="edge">
<title>Errors::invalid_state&#45;&gt;Errors::make</title>
<path fill="none" stroke="black" d="M455.96,-163.19C466.35,-159.12 478.03,-154.96 489,-152 572.44,-129.49 673.15,-116.65 727.85,-110.83"/>
<polygon fill="black" stroke="black" points="728.26,-114.31 737.84,-109.79 727.53,-107.35 728.26,-114.31"/>
</g>
<!-- DiemTimestamp::is_operating&#45;&gt;CoreAddresses::DIEM_ROOT_ADDRESS -->
<g id="edge62" class="edge">
<title>DiemTimestamp::is_operating&#45;&gt;CoreAddresses::DIEM_ROOT_ADDRESS</title>
<path fill="none" stroke="black" d="M427.74,-248.07C445.78,-242.96 467.8,-237.58 488,-235 582.29,-222.94 2105.67,-245.06 2199,-227 2226.89,-221.6 2256.56,-209.94 2279.54,-199.46"/>
<polygon fill="black" stroke="black" points="2281.05,-202.61 2288.63,-195.21 2278.09,-196.27 2281.05,-202.61"/>
</g>
<!-- Event::fresh_guid&#45;&gt;Vector::append -->
<g id="edge63" class="edge">
<title>Event::fresh_guid&#45;&gt;Vector::append</title>
<path fill="none" stroke="black" d="M1418.53,-245.83C1427.89,-241.52 1438.67,-237.31 1449,-235 1512.78,-220.72 1678.58,-238.02 1743,-227 1782.47,-220.25 1825.87,-205.37 1855.59,-193.95"/>
<polygon fill="black" stroke="black" points="1857.08,-197.13 1865.12,-190.23 1854.53,-190.61 1857.08,-197.13"/>
</g>
<!-- Event::fresh_guid&#45;&gt;BCS::to_bytes -->
<g id="edge64" class="edge">
<title>Event::fresh_guid&#45;&gt;BCS::to_bytes</title>
<path fill="none" stroke="black" d="M1406.77,-243.61C1417.33,-231.89 1431.7,-215.95 1443.52,-202.83"/>
<polygon fill="black" stroke="black" points="1446.4,-204.86 1450.5,-195.09 1441.2,-200.18 1446.4,-204.86"/>
</g>
<!-- Vector::empty -->
<g id="node39" class="node">
<title>Vector::empty</title>
<ellipse fill="none" stroke="black" cx="1592" cy="-106" rx="33.29" ry="18"/>
<text text-anchor="middle" x="1592" y="-102.3" font-family="Times,serif" font-size="14.00">empty</text>
</g>
<!-- Vector::singleton&#45;&gt;Vector::empty -->
<g id="edge65" class="edge">
<title>Vector::singleton&#45;&gt;Vector::empty</title>
<path fill="none" stroke="black" d="M1670,-162.15C1655.45,-151.86 1635.9,-138.04 1620.01,-126.81"/>
<polygon fill="black" stroke="black" points="1621.8,-123.79 1611.62,-120.87 1617.76,-129.5 1621.8,-123.79"/>
</g>
<!-- Vector::push_back -->
<g id="node40" class="node">
<title>Vector::push_back</title>
<ellipse fill="none" stroke="black" cx="1691" cy="-106" rx="48.19" ry="18"/>
<text text-anchor="middle" x="1691" y="-102.3" font-family="Times,serif" font-size="14.00">push_back</text>
</g>
<!-- Vector::singleton&#45;&gt;Vector::push_back -->
<g id="edge66" class="edge">
<title>Vector::singleton&#45;&gt;Vector::push_back</title>
<path fill="none" stroke="black" d="M1691,-159.7C1691,-151.98 1691,-142.71 1691,-134.11"/>
<polygon fill="black" stroke="black" points="1694.5,-134.1 1691,-124.1 1687.5,-134.1 1694.5,-134.1"/>
</g>
<!-- Vector::append&#45;&gt;Vector::push_back -->
<g id="edge70" class="edge">
<title>Vector::append&#45;&gt;Vector::push_back</title>
<path fill="none" stroke="black" d="M1863.2,-166.97C1829.58,-155.26 1773.61,-135.77 1734.64,-122.2"/>
<polygon fill="black" stroke="black" points="1735.72,-118.87 1725.13,-118.88 1733.42,-125.48 1735.72,-118.87"/>
</g>
<!-- Vector::destroy_empty -->
<g id="node41" class="node">
<title>Vector::destroy_empty</title>
<ellipse fill="none" stroke="black" cx="2123" cy="-106" rx="63.89" ry="18"/>
<text text-anchor="middle" x="2123" y="-102.3" font-family="Times,serif" font-size="14.00">destroy_empty</text>
</g>
<!-- Vector::append&#45;&gt;Vector::destroy_empty -->
<g id="edge67" class="edge">
<title>Vector::append&#45;&gt;Vector::destroy_empty</title>
<path fill="none" stroke="black" d="M1922.2,-167.85C1960.03,-156.39 2025.43,-136.57 2071.29,-122.67"/>
<polygon fill="black" stroke="black" points="2072.5,-125.96 2081.05,-119.71 2070.47,-119.26 2072.5,-125.96"/>
</g>
<!-- Vector::is_empty -->
<g id="node42" class="node">
<title>Vector::is_empty</title>
<ellipse fill="none" stroke="black" cx="1998" cy="-106" rx="43.59" ry="18"/>
<text text-anchor="middle" x="1998" y="-102.3" font-family="Times,serif" font-size="14.00">is_empty</text>
</g>
<!-- Vector::append&#45;&gt;Vector::is_empty -->
<g id="edge68" class="edge">
<title>Vector::append&#45;&gt;Vector::is_empty</title>
<path fill="none" stroke="black" d="M1912.94,-163.17C1928.36,-152.99 1949.56,-138.99 1966.95,-127.51"/>
<polygon fill="black" stroke="black" points="1969.22,-130.2 1975.64,-121.77 1965.36,-124.36 1969.22,-130.2"/>
</g>
<!-- Vector::pop_back -->
<g id="node43" class="node">
<title>Vector::pop_back</title>
<ellipse fill="none" stroke="black" cx="1892" cy="-106" rx="44.69" ry="18"/>
<text text-anchor="middle" x="1892" y="-102.3" font-family="Times,serif" font-size="14.00">pop_back</text>
</g>
<!-- Vector::append&#45;&gt;Vector::pop_back -->
<g id="edge69" class="edge">
<title>Vector::append&#45;&gt;Vector::pop_back</title>
<path fill="none" stroke="black" d="M1892,-159.7C1892,-151.98 1892,-142.71 1892,-134.11"/>
<polygon fill="black" stroke="black" points="1895.5,-134.1 1892,-124.1 1888.5,-134.1 1895.5,-134.1"/>
</g>
<!-- Vector::reverse -->
<g id="node44" class="node">
<title>Vector::reverse</title>
<ellipse fill="none" stroke="black" cx="1793" cy="-106" rx="36.29" ry="18"/>
<text text-anchor="middle" x="1793" y="-102.3" font-family="Times,serif" font-size="14.00">reverse</text>
</g>
<!-- Vector::append&#45;&gt;Vector::reverse -->
<g id="edge71" class="edge">
<title>Vector::append&#45;&gt;Vector::reverse</title>
<path fill="none" stroke="black" d="M1871.97,-162.83C1857.47,-152.59 1837.68,-138.59 1821.54,-127.18"/>
<polygon fill="black" stroke="black" points="1823.19,-124.06 1813,-121.14 1819.15,-129.78 1823.19,-124.06"/>
</g>
<!-- Errors::requires_address&#45;&gt;Errors::make -->
<g id="edge72" class="edge">
<title>Errors::requires_address&#45;&gt;Errors::make</title>
<path fill="none" stroke="black" d="M1133.58,-163.08C1121.05,-159.05 1107.05,-154.94 1094,-152 992.58,-129.13 870.62,-116.03 808.57,-110.37"/>
<polygon fill="black" stroke="black" points="808.69,-106.87 798.42,-109.47 808.07,-113.84 808.69,-106.87"/>
</g>
<!-- Vector::is_empty&#45;&gt;Vector::length -->
<g id="edge73" class="edge">
<title>Vector::is_empty&#45;&gt;Vector::length</title>
<path fill="none" stroke="black" d="M1998,-87.7C1998,-79.98 1998,-70.71 1998,-62.11"/>
<polygon fill="black" stroke="black" points="2001.5,-62.1 1998,-52.1 1994.5,-62.1 2001.5,-62.1"/>
</g>
<!-- Vector::reverse&#45;&gt;Vector::length -->
<g id="edge74" class="edge">
<title>Vector::reverse&#45;&gt;Vector::length</title>
<path fill="none" stroke="black" d="M1814.92,-91.48C1822.1,-87.42 1830.23,-83.2 1838,-80 1877.61,-63.69 1925.07,-51.17 1957.97,-43.52"/>
<polygon fill="black" stroke="black" points="1959.14,-46.84 1968.11,-41.21 1957.59,-40.02 1959.14,-46.84"/>
</g>
<!-- Vector::swap -->
<g id="node45" class="node">
<title>Vector::swap</title>
<ellipse fill="none" stroke="black" cx="1793" cy="-34" rx="28.7" ry="18"/>
<text text-anchor="middle" x="1793" y="-30.3" font-family="Times,serif" font-size="14.00">swap</text>
</g>
<!-- Vector::reverse&#45;&gt;Vector::swap -->
<g id="edge75" class="edge">
<title>Vector::reverse&#45;&gt;Vector::swap</title>
<path fill="none" stroke="black" d="M1793,-87.7C1793,-79.98 1793,-70.71 1793,-62.11"/>
<polygon fill="black" stroke="black" points="1796.5,-62.1 1793,-52.1 1789.5,-62.1 1796.5,-62.1"/>
</g>
</g>
</svg>
