<?xml version="1.0" encoding="UTF-8" standalone="no"?>
<!DOCTYPE svg PUBLIC "-//W3C//DTD SVG 1.1//EN"
 "http://www.w3.org/Graphics/SVG/1.1/DTD/svg11.dtd">
<!-- Generated by graphviz version 2.46.1 (20210213.1702)
 -->
<!-- Title: G Pages: 1 -->
<svg width="588pt" height="365pt"
 viewBox="0.00 0.00 588.00 365.00" xmlns="http://www.w3.org/2000/svg" xmlns:xlink="http://www.w3.org/1999/xlink">
<g id="graph0" class="graph" transform="scale(1 1) rotate(0) translate(4 361)">
<title>G</title>
<polygon fill="white" stroke="transparent" points="-4,4 -4,-361 584,-361 584,4 -4,4"/>
<g id="clust1" class="cluster">
<title>cluster_FixedPoint32</title>
<polygon fill="none" stroke="black" points="39,-166 39,-241 171,-241 171,-166 39,-166"/>
<text text-anchor="middle" x="105" y="-225.8" font-family="Times,serif" font-size="14.00">FixedPoint32</text>
</g>
<g id="clust2" class="cluster">
<title>cluster_Errors</title>
<polygon fill="none" stroke="black" points="8,-8 8,-158 292,-158 292,-8 8,-8"/>
<text text-anchor="middle" x="150" y="-142.8" font-family="Times,serif" font-size="14.00">Errors</text>
</g>
<g id="clust3" class="cluster">
<title>cluster_CoreAddresses</title>
<polygon fill="none" stroke="black" points="300,-8 300,-83 572,-83 572,-8 300,-8"/>
<text text-anchor="middle" x="436" y="-67.8" font-family="Times,serif" font-size="14.00">CoreAddresses</text>
</g>
<!-- approx_xdx_for_value -->
<g id="node1" class="node">
<title>approx_xdx_for_value</title>
<ellipse fill="none" stroke="black" cx="205" cy="-339" rx="90.98" ry="18"/>
<text text-anchor="middle" x="205" y="-335.3" font-family="Times,serif" font-size="14.00">approx_xdx_for_value</text>
</g>
<!-- FixedPoint32::multiply_u64 -->
<g id="node2" class="node">
<title>FixedPoint32::multiply_u64</title>
<ellipse fill="none" stroke="black" cx="105" cy="-192" rx="58.49" ry="18"/>
<text text-anchor="middle" x="105" y="-188.3" font-family="Times,serif" font-size="14.00">multiply_u64</text>
</g>
<!-- approx_xdx_for_value&#45;&gt;FixedPoint32::multiply_u64 -->
<g id="edge1" class="edge">
<title>approx_xdx_for_value&#45;&gt;FixedPoint32::multiply_u64</title>
<path fill="none" stroke="black" d="M193.33,-321.08C175.87,-295.76 142.82,-247.84 122.47,-218.33"/>
<polygon fill="black" stroke="black" points="125.15,-216.05 116.59,-209.81 119.39,-220.03 125.15,-216.05"/>
</g>
<!-- xdx_exchange_rate -->
<g id="node3" class="node">
<title>xdx_exchange_rate</title>
<ellipse fill="none" stroke="black" cx="306" cy="-267" rx="79.09" ry="18"/>
<text text-anchor="middle" x="306" y="-263.3" font-family="Times,serif" font-size="14.00">xdx_exchange_rate</text>
</g>
<!-- approx_xdx_for_value&#45;&gt;xdx_exchange_rate -->
<g id="edge2" class="edge">
<title>approx_xdx_for_value&#45;&gt;xdx_exchange_rate</title>
<path fill="none" stroke="black" d="M228.68,-321.59C242.23,-312.2 259.41,-300.29 274.13,-290.09"/>
<polygon fill="black" stroke="black" points="276.24,-292.88 282.47,-284.31 272.26,-287.13 276.24,-292.88"/>
</g>
<!-- Errors::limit_exceeded -->
<g id="node4" class="node">
<title>Errors::limit_exceeded</title>
<ellipse fill="none" stroke="black" cx="81" cy="-109" rx="64.99" ry="18"/>
<text text-anchor="middle" x="81" y="-105.3" font-family="Times,serif" font-size="14.00">limit_exceeded</text>
</g>
<!-- FixedPoint32::multiply_u64&#45;&gt;Errors::limit_exceeded -->
<g id="edge3" class="edge">
<title>FixedPoint32::multiply_u64&#45;&gt;Errors::limit_exceeded</title>
<path fill="none" stroke="black" d="M99.91,-173.82C96.73,-163.08 92.56,-149.03 88.95,-136.84"/>
<polygon fill="black" stroke="black" points="92.28,-135.75 86.08,-127.15 85.57,-137.74 92.28,-135.75"/>
</g>
<!-- CoreAddresses::CURRENCY_INFO_ADDRESS -->
<g id="node5" class="node">
<title>CoreAddresses::CURRENCY_INFO_ADDRESS</title>
<ellipse fill="none" stroke="black" cx="436" cy="-34" rx="128.08" ry="18"/>
<text text-anchor="middle" x="436" y="-30.3" font-family="Times,serif" font-size="14.00">CURRENCY_INFO_ADDRESS</text>
</g>
<!-- xdx_exchange_rate&#45;&gt;CoreAddresses::CURRENCY_INFO_ADDRESS -->
<g id="edge4" class="edge">
<title>xdx_exchange_rate&#45;&gt;CoreAddresses::CURRENCY_INFO_ADDRESS</title>
<path fill="none" stroke="black" d="M368.1,-255.73C376.58,-252.17 384.56,-247.4 391,-241 439.22,-193.09 441.16,-106.3 438.59,-62.24"/>
<polygon fill="black" stroke="black" points="442.08,-61.99 437.89,-52.26 435.1,-62.48 442.08,-61.99"/>
</g>
<!-- assert_is_currency -->
<g id="node6" class="node">
<title>assert_is_currency</title>
<ellipse fill="none" stroke="black" cx="306" cy="-192" rx="76.09" ry="18"/>
<text text-anchor="middle" x="306" y="-188.3" font-family="Times,serif" font-size="14.00">assert_is_currency</text>
</g>
<!-- xdx_exchange_rate&#45;&gt;assert_is_currency -->
<g id="edge5" class="edge">
<title>xdx_exchange_rate&#45;&gt;assert_is_currency</title>
<path fill="none" stroke="black" d="M306,-248.7C306,-240.25 306,-229.87 306,-220.37"/>
<polygon fill="black" stroke="black" points="309.5,-220.18 306,-210.18 302.5,-220.18 309.5,-220.18"/>
</g>
<!-- Errors::make -->
<g id="node7" class="node">
<title>Errors::make</title>
<ellipse fill="none" stroke="black" cx="152" cy="-34" rx="30.59" ry="18"/>
<text text-anchor="middle" x="152" y="-30.3" font-family="Times,serif" font-size="14.00">make</text>
</g>
<!-- Errors::limit_exceeded&#45;&gt;Errors::make -->
<g id="edge6" class="edge">
<title>Errors::limit_exceeded&#45;&gt;Errors::make</title>
<path fill="none" stroke="black" d="M97.11,-91.44C106.95,-81.32 119.66,-68.25 130.37,-57.24"/>
<polygon fill="black" stroke="black" points="132.94,-59.62 137.4,-50.01 127.92,-54.74 132.94,-59.62"/>
</g>
<!-- Errors::not_published -->
<g id="node8" class="node">
<title>Errors::not_published</title>
<ellipse fill="none" stroke="black" cx="224" cy="-109" rx="60.39" ry="18"/>
<text text-anchor="middle" x="224" y="-105.3" font-family="Times,serif" font-size="14.00">not_published</text>
</g>
<!-- assert_is_currency&#45;&gt;Errors::not_published -->
<g id="edge7" class="edge">
<title>assert_is_currency&#45;&gt;Errors::not_published</title>
<path fill="none" stroke="black" d="M289.01,-174.22C277.17,-162.52 261.2,-146.74 248.05,-133.76"/>
<polygon fill="black" stroke="black" points="250.26,-131.02 240.69,-126.48 245.34,-136 250.26,-131.02"/>
</g>
<!-- is_currency -->
<g id="node9" class="node">
<title>is_currency</title>
<ellipse fill="none" stroke="black" cx="355" cy="-109" rx="51.99" ry="18"/>
<text text-anchor="middle" x="355" y="-105.3" font-family="Times,serif" font-size="14.00">is_currency</text>
</g>
<!-- assert_is_currency&#45;&gt;is_currency -->
<g id="edge8" class="edge">
<title>assert_is_currency&#45;&gt;is_currency</title>
<path fill="none" stroke="black" d="M316.39,-173.82C323.13,-162.69 332.02,-147.98 339.58,-135.49"/>
<polygon fill="black" stroke="black" points="342.61,-137.24 344.79,-126.88 336.62,-133.62 342.61,-137.24"/>
</g>
<!-- Errors::not_published&#45;&gt;Errors::make -->
<g id="edge9" class="edge">
<title>Errors::not_published&#45;&gt;Errors::make</title>
<path fill="none" stroke="black" d="M207.66,-91.44C197.68,-81.32 184.8,-68.25 173.94,-57.24"/>
<polygon fill="black" stroke="black" points="176.32,-54.67 166.8,-50.01 171.33,-59.59 176.32,-54.67"/>
</g>
<!-- is_currency&#45;&gt;CoreAddresses::CURRENCY_INFO_ADDRESS -->
<g id="edge10" class="edge">
<title>is_currency&#45;&gt;CoreAddresses::CURRENCY_INFO_ADDRESS</title>
<path fill="none" stroke="black" d="M372.98,-91.8C383.76,-82.08 397.66,-69.55 409.67,-58.73"/>
<polygon fill="black" stroke="black" points="412.14,-61.21 417.23,-51.92 407.46,-56.01 412.14,-61.21"/>
</g>
</g>
</svg>
