<?xml version="1.0" encoding="UTF-8" standalone="no"?>
<!DOCTYPE svg PUBLIC "-//W3C//DTD SVG 1.1//EN"
 "http://www.w3.org/Graphics/SVG/1.1/DTD/svg11.dtd">
<!-- Generated by graphviz version 2.46.1 (20210213.1702)
 -->
<!-- Title: G Pages: 1 -->
<svg width="880pt" height="373pt"
 viewBox="0.00 0.00 880.00 373.00" xmlns="http://www.w3.org/2000/svg" xmlns:xlink="http://www.w3.org/1999/xlink">
<g id="graph0" class="graph" transform="scale(1 1) rotate(0) translate(4 369)">
<title>G</title>
<polygon fill="white" stroke="transparent" points="-4,4 -4,-369 876,-369 876,4 -4,4"/>
<g id="clust1" class="cluster">
<title>cluster_Errors</title>
<polygon fill="none" stroke="black" points="8,-8 8,-166 136,-166 136,-8 8,-8"/>
<text text-anchor="middle" x="72" y="-150.8" font-family="Times,serif" font-size="14.00">Errors</text>
</g>
<g id="clust2" class="cluster">
<title>cluster_CoreAddresses</title>
<polygon fill="none" stroke="black" points="260,-8 260,-83 490,-83 490,-8 260,-8"/>
<text text-anchor="middle" x="375" y="-67.8" font-family="Times,serif" font-size="14.00">CoreAddresses</text>
</g>
<g id="clust3" class="cluster">
<title>cluster_DiemTimestamp</title>
<polygon fill="none" stroke="black" points="144,-91 144,-321 430,-321 430,-91 144,-91"/>
<text text-anchor="middle" x="287" y="-305.8" font-family="Times,serif" font-size="14.00">DiemTimestamp</text>
</g>
<g id="clust4" class="cluster">
<title>cluster_Event</title>
<polygon fill="none" stroke="black" points="678,-174 678,-321 864,-321 864,-174 678,-174"/>
<text text-anchor="middle" x="771" y="-305.8" font-family="Times,serif" font-size="14.00">Event</text>
</g>
<!-- reconfigure_ -->
<g id="node1" class="node">
<title>reconfigure_</title>
<ellipse fill="none" stroke="black" cx="412" cy="-347" rx="55.49" ry="18"/>
<text text-anchor="middle" x="412" y="-343.3" font-family="Times,serif" font-size="14.00">reconfigure_</text>
</g>
<!-- Errors::invalid_state -->
<g id="node2" class="node">
<title>Errors::invalid_state</title>
<ellipse fill="none" stroke="black" cx="72" cy="-117" rx="55.79" ry="18"/>
<text text-anchor="middle" x="72" y="-113.3" font-family="Times,serif" font-size="14.00">invalid_state</text>
</g>
<!-- reconfigure_&#45;&gt;Errors::invalid_state -->
<g id="edge1" class="edge">
<title>reconfigure_&#45;&gt;Errors::invalid_state</title>
<path fill="none" stroke="black" d="M357.18,-344.14C282.64,-341.13 156.62,-334.15 140,-321 85.62,-277.95 74.39,-189.79 72.29,-145.17"/>
<polygon fill="black" stroke="black" points="75.79,-144.94 71.94,-135.07 68.79,-145.18 75.79,-144.94"/>
</g>
<!-- CoreAddresses::DIEM_ROOT_ADDRESS -->
<g id="node3" class="node">
<title>CoreAddresses::DIEM_ROOT_ADDRESS</title>
<ellipse fill="none" stroke="black" cx="375" cy="-34" rx="106.68" ry="18"/>
<text text-anchor="middle" x="375" y="-30.3" font-family="Times,serif" font-size="14.00">DIEM_ROOT_ADDRESS</text>
</g>
<!-- reconfigure_&#45;&gt;CoreAddresses::DIEM_ROOT_ADDRESS -->
<g id="edge2" class="edge">
<title>reconfigure_&#45;&gt;CoreAddresses::DIEM_ROOT_ADDRESS</title>
<path fill="none" stroke="black" d="M429.21,-329.61C431.16,-326.93 432.86,-324.03 434,-321 470.09,-225.36 474.35,-184.92 434,-91 428.54,-78.28 418.61,-67.09 408.43,-58.13"/>
<polygon fill="black" stroke="black" points="410.61,-55.39 400.68,-51.72 406.15,-60.78 410.61,-55.39"/>
</g>
<!-- DiemTimestamp::is_genesis -->
<g id="node4" class="node">
<title>DiemTimestamp::is_genesis</title>
<ellipse fill="none" stroke="black" cx="375" cy="-272" rx="46.59" ry="18"/>
<text text-anchor="middle" x="375" y="-268.3" font-family="Times,serif" font-size="14.00">is_genesis</text>
</g>
<!-- reconfigure_&#45;&gt;DiemTimestamp::is_genesis -->
<g id="edge3" class="edge">
<title>reconfigure_&#45;&gt;DiemTimestamp::is_genesis</title>
<path fill="none" stroke="black" d="M403.42,-329.07C398.89,-320.13 393.23,-308.97 388.16,-298.97"/>
<polygon fill="black" stroke="black" points="391.18,-297.18 383.54,-289.84 384.93,-300.34 391.18,-297.18"/>
</g>
<!-- DiemTimestamp::now_microseconds -->
<g id="node5" class="node">
<title>DiemTimestamp::now_microseconds</title>
<ellipse fill="none" stroke="black" cx="231" cy="-272" rx="79.09" ry="18"/>
<text text-anchor="middle" x="231" y="-268.3" font-family="Times,serif" font-size="14.00">now_microseconds</text>
</g>
<!-- reconfigure_&#45;&gt;DiemTimestamp::now_microseconds -->
<g id="edge4" class="edge">
<title>reconfigure_&#45;&gt;DiemTimestamp::now_microseconds</title>
<path fill="none" stroke="black" d="M367.3,-336.27C351.75,-332.29 334.37,-327.15 319,-321 300.77,-313.7 281.51,-303.51 265.67,-294.39"/>
<polygon fill="black" stroke="black" points="267.17,-291.21 256.78,-289.18 263.64,-297.25 267.17,-291.21"/>
</g>
<!-- Event::emit_event -->
<g id="node6" class="node">
<title>Event::emit_event</title>
<ellipse fill="none" stroke="black" cx="754" cy="-272" rx="50.09" ry="18"/>
<text text-anchor="middle" x="754" y="-268.3" font-family="Times,serif" font-size="14.00">emit_event</text>
</g>
<!-- reconfigure_&#45;&gt;Event::emit_event -->
<g id="edge5" class="edge">
<title>reconfigure_&#45;&gt;Event::emit_event</title>
<path fill="none" stroke="black" d="M466.57,-343.93C533,-340.87 641.03,-334.06 679,-321 696.03,-315.14 713.09,-304.68 726.63,-295.01"/>
<polygon fill="black" stroke="black" points="729.02,-297.59 734.98,-288.83 724.86,-291.97 729.02,-297.59"/>
</g>
<!-- reconfiguration_enabled -->
<g id="node7" class="node">
<title>reconfiguration_enabled</title>
<ellipse fill="none" stroke="black" cx="574" cy="-272" rx="96.38" ry="18"/>
<text text-anchor="middle" x="574" y="-268.3" font-family="Times,serif" font-size="14.00">reconfiguration_enabled</text>
</g>
<!-- reconfigure_&#45;&gt;reconfiguration_enabled -->
<g id="edge6" class="edge">
<title>reconfigure_&#45;&gt;reconfiguration_enabled</title>
<path fill="none" stroke="black" d="M443.24,-331.92C467.74,-320.88 502.18,-305.36 529.56,-293.03"/>
<polygon fill="black" stroke="black" points="531.24,-296.11 538.92,-288.81 528.37,-289.72 531.24,-296.11"/>
</g>
<!-- Errors::make -->
<g id="node8" class="node">
<title>Errors::make</title>
<ellipse fill="none" stroke="black" cx="72" cy="-34" rx="30.59" ry="18"/>
<text text-anchor="middle" x="72" y="-30.3" font-family="Times,serif" font-size="14.00">make</text>
</g>
<!-- Errors::invalid_state&#45;&gt;Errors::make -->
<g id="edge7" class="edge">
<title>Errors::invalid_state&#45;&gt;Errors::make</title>
<path fill="none" stroke="black" d="M72,-98.82C72,-88.19 72,-74.31 72,-62.2"/>
<polygon fill="black" stroke="black" points="75.5,-62.15 72,-52.15 68.5,-62.15 75.5,-62.15"/>
</g>
<!-- DiemTimestamp::is_genesis&#45;&gt;CoreAddresses::DIEM_ROOT_ADDRESS -->
<g id="edge8" class="edge">
<title>DiemTimestamp::is_genesis&#45;&gt;CoreAddresses::DIEM_ROOT_ADDRESS</title>
<path fill="none" stroke="black" d="M375,-253.65C375,-212.97 375,-111.23 375,-62.23"/>
<polygon fill="black" stroke="black" points="378.5,-62.06 375,-52.06 371.5,-62.06 378.5,-62.06"/>
</g>
<!-- DiemTimestamp::now_microseconds&#45;&gt;CoreAddresses::DIEM_ROOT_ADDRESS -->
<g id="edge9" class="edge">
<title>DiemTimestamp::now_microseconds&#45;&gt;CoreAddresses::DIEM_ROOT_ADDRESS</title>
<path fill="none" stroke="black" d="M262.62,-255.28C278.11,-246.21 295.97,-233.52 308,-218 345.04,-170.22 363.02,-99.97 370.5,-61.91"/>
<polygon fill="black" stroke="black" points="373.94,-62.55 372.33,-52.07 367.06,-61.26 373.94,-62.55"/>
</g>
<!-- DiemTimestamp::assert_operating -->
<g id="node9" class="node">
<title>DiemTimestamp::assert_operating</title>
<ellipse fill="none" stroke="black" cx="231" cy="-200" rx="68.49" ry="18"/>
<text text-anchor="middle" x="231" y="-196.3" font-family="Times,serif" font-size="14.00">assert_operating</text>
</g>
<!-- DiemTimestamp::now_microseconds&#45;&gt;DiemTimestamp::assert_operating -->
<g id="edge10" class="edge">
<title>DiemTimestamp::now_microseconds&#45;&gt;DiemTimestamp::assert_operating</title>
<path fill="none" stroke="black" d="M231,-253.7C231,-245.98 231,-236.71 231,-228.11"/>
<polygon fill="black" stroke="black" points="234.5,-228.1 231,-218.1 227.5,-228.1 234.5,-228.1"/>
</g>
<!-- Event::write_to_event_store -->
<g id="node10" class="node">
<title>Event::write_to_event_store</title>
<ellipse fill="none" stroke="black" cx="771" cy="-200" rx="85.29" ry="18"/>
<text text-anchor="middle" x="771" y="-196.3" font-family="Times,serif" font-size="14.00">write_to_event_store</text>
</g>
<!-- Event::emit_event&#45;&gt;Event::write_to_event_store -->
<g id="edge11" class="edge">
<title>Event::emit_event&#45;&gt;Event::write_to_event_store</title>
<path fill="none" stroke="black" d="M758.12,-254.05C760.01,-246.26 762.3,-236.82 764.42,-228.08"/>
<polygon fill="black" stroke="black" points="767.85,-228.82 766.8,-218.28 761.04,-227.17 767.85,-228.82"/>
</g>
<!-- reconfiguration_enabled&#45;&gt;CoreAddresses::DIEM_ROOT_ADDRESS -->
<g id="edge12" class="edge">
<title>reconfiguration_enabled&#45;&gt;CoreAddresses::DIEM_ROOT_ADDRESS</title>
<path fill="none" stroke="black" d="M566.78,-253.87C551.73,-219.66 514.17,-141.83 464,-91 450.6,-77.42 433.31,-65.6 417.54,-56.36"/>
<polygon fill="black" stroke="black" points="418.9,-53.11 408.47,-51.23 415.45,-59.2 418.9,-53.11"/>
</g>
<!-- DiemTimestamp::assert_operating&#45;&gt;Errors::invalid_state -->
<g id="edge13" class="edge">
<title>DiemTimestamp::assert_operating&#45;&gt;Errors::invalid_state</title>
<path fill="none" stroke="black" d="M187.86,-186C172.38,-180.65 155.05,-173.86 140,-166 126.09,-158.73 111.74,-148.99 99.82,-140.18"/>
<polygon fill="black" stroke="black" points="101.71,-137.22 91.62,-133.98 97.49,-142.8 101.71,-137.22"/>
</g>
<!-- DiemTimestamp::is_operating -->
<g id="node11" class="node">
<title>DiemTimestamp::is_operating</title>
<ellipse fill="none" stroke="black" cx="240" cy="-117" rx="53.89" ry="18"/>
<text text-anchor="middle" x="240" y="-113.3" font-family="Times,serif" font-size="14.00">is_operating</text>
</g>
<!-- DiemTimestamp::assert_operating&#45;&gt;DiemTimestamp::is_operating -->
<g id="edge14" class="edge">
<title>DiemTimestamp::assert_operating&#45;&gt;DiemTimestamp::is_operating</title>
<path fill="none" stroke="black" d="M232.91,-181.82C234.09,-171.19 235.63,-157.31 236.98,-145.2"/>
<polygon fill="black" stroke="black" points="240.47,-145.48 238.09,-135.15 233.51,-144.71 240.47,-145.48"/>
</g>
<!-- DiemTimestamp::is_operating&#45;&gt;CoreAddresses::DIEM_ROOT_ADDRESS -->
<g id="edge15" class="edge">
<title>DiemTimestamp::is_operating&#45;&gt;CoreAddresses::DIEM_ROOT_ADDRESS</title>
<path fill="none" stroke="black" d="M265.08,-100.95C285.77,-88.54 315.4,-70.76 338.68,-56.79"/>
<polygon fill="black" stroke="black" points="340.49,-59.79 347.27,-51.64 336.89,-53.78 340.49,-59.79"/>
</g>
</g>
</svg>
