<?xml version="1.0" encoding="UTF-8" standalone="no"?>
<!DOCTYPE svg PUBLIC "-//W3C//DTD SVG 1.1//EN"
 "http://www.w3.org/Graphics/SVG/1.1/DTD/svg11.dtd">
<!-- Generated by graphviz version 2.46.1 (20210213.1702)
 -->
<!-- Title: G Pages: 1 -->
<svg width="557pt" height="404pt"
 viewBox="0.00 0.00 557.30 404.00" xmlns="http://www.w3.org/2000/svg" xmlns:xlink="http://www.w3.org/1999/xlink">
<g id="graph0" class="graph" transform="scale(1 1) rotate(0) translate(4 400)">
<title>G</title>
<polygon fill="white" stroke="transparent" points="-4,4 -4,-400 553.3,-400 553.3,4 -4,4"/>
<!-- DiemVersion -->
<g id="node1" class="node">
<title>DiemVersion</title>
<ellipse fill="none" stroke="black" cx="120" cy="-378" rx="57.69" ry="18"/>
<text text-anchor="middle" x="120" y="-374.3" font-family="Times,serif" font-size="14.00">DiemVersion</text>
</g>
<!-- Errors -->
<g id="node2" class="node">
<title>Errors</title>
<ellipse fill="none" stroke="black" cx="183" cy="-18" rx="32.49" ry="18"/>
<text text-anchor="middle" x="183" y="-14.3" font-family="Times,serif" font-size="14.00">Errors</text>
</g>
<!-- DiemVersion&#45;&gt;Errors -->
<g id="edge1" class="edge">
<title>DiemVersion&#45;&gt;Errors</title>
<path fill="none" stroke="black" d="M93.96,-361.87C58.67,-339.18 0,-292.78 0,-235 0,-235 0,-235 0,-161 0,-88.31 91.23,-47.48 144.86,-29.75"/>
<polygon fill="black" stroke="black" points="145.94,-33.08 154.41,-26.71 143.82,-26.41 145.94,-33.08"/>
</g>
<!-- DiemTimestamp -->
<g id="node3" class="node">
<title>DiemTimestamp</title>
<ellipse fill="none" stroke="black" cx="99" cy="-162" rx="71.49" ry="18"/>
<text text-anchor="middle" x="99" y="-158.3" font-family="Times,serif" font-size="14.00">DiemTimestamp</text>
</g>
<!-- DiemVersion&#45;&gt;DiemTimestamp -->
<g id="edge2" class="edge">
<title>DiemVersion&#45;&gt;DiemTimestamp</title>
<path fill="none" stroke="black" d="M118.32,-359.85C114.68,-322.83 106.08,-235.18 101.69,-190.39"/>
<polygon fill="black" stroke="black" points="105.15,-189.84 100.69,-180.23 98.18,-190.53 105.15,-189.84"/>
</g>
<!-- Roles -->
<g id="node4" class="node">
<title>Roles</title>
<ellipse fill="none" stroke="black" cx="210" cy="-234" rx="30.59" ry="18"/>
<text text-anchor="middle" x="210" y="-230.3" font-family="Times,serif" font-size="14.00">Roles</text>
</g>
<!-- DiemVersion&#45;&gt;Roles -->
<g id="edge3" class="edge">
<title>DiemVersion&#45;&gt;Roles</title>
<path fill="none" stroke="black" d="M130.68,-360.15C146.39,-335.36 175.85,-288.88 194.11,-260.07"/>
<polygon fill="black" stroke="black" points="197.22,-261.71 199.61,-251.39 191.3,-257.96 197.22,-261.71"/>
</g>
<!-- DiemConfig -->
<g id="node5" class="node">
<title>DiemConfig</title>
<ellipse fill="none" stroke="black" cx="274" cy="-306" rx="54.69" ry="18"/>
<text text-anchor="middle" x="274" y="-302.3" font-family="Times,serif" font-size="14.00">DiemConfig</text>
</g>
<!-- DiemVersion&#45;&gt;DiemConfig -->
<g id="edge4" class="edge">
<title>DiemVersion&#45;&gt;DiemConfig</title>
<path fill="none" stroke="black" d="M151.16,-362.83C175.04,-351.98 208.16,-336.93 233.99,-325.19"/>
<polygon fill="black" stroke="black" points="235.49,-328.35 243.15,-321.02 232.59,-321.98 235.49,-328.35"/>
</g>
<!-- DiemTimestamp&#45;&gt;Errors -->
<g id="edge5" class="edge">
<title>DiemTimestamp&#45;&gt;Errors</title>
<path fill="none" stroke="black" d="M100.66,-143.76C103.13,-124.92 109.08,-94.44 123,-72 131.08,-58.98 143.33,-47.35 154.65,-38.32"/>
<polygon fill="black" stroke="black" points="156.83,-41.06 162.67,-32.22 152.59,-35.49 156.83,-41.06"/>
</g>
<!-- CoreAddresses -->
<g id="node6" class="node">
<title>CoreAddresses</title>
<ellipse fill="none" stroke="black" cx="229" cy="-90" rx="63.89" ry="18"/>
<text text-anchor="middle" x="229" y="-86.3" font-family="Times,serif" font-size="14.00">CoreAddresses</text>
</g>
<!-- DiemTimestamp&#45;&gt;CoreAddresses -->
<g id="edge6" class="edge">
<title>DiemTimestamp&#45;&gt;CoreAddresses</title>
<path fill="none" stroke="black" d="M127.85,-145.46C146.66,-135.34 171.4,-122.02 191.7,-111.09"/>
<polygon fill="black" stroke="black" points="193.53,-114.07 200.68,-106.25 190.21,-107.91 193.53,-114.07"/>
</g>
<!-- Roles&#45;&gt;Errors -->
<g id="edge8" class="edge">
<title>Roles&#45;&gt;Errors</title>
<path fill="none" stroke="black" d="M205.41,-216.13C200.14,-197.88 190.72,-168.14 179,-144 170.71,-126.92 161.32,-126.22 156,-108 151.51,-92.64 152.27,-87.56 156,-72 158.28,-62.52 162.55,-52.82 167.03,-44.35"/>
<polygon fill="black" stroke="black" points="170.22,-45.82 172.09,-35.39 164.13,-42.38 170.22,-45.82"/>
</g>
<!-- Roles&#45;&gt;DiemTimestamp -->
<g id="edge10" class="edge">
<title>Roles&#45;&gt;DiemTimestamp</title>
<path fill="none" stroke="black" d="M189.9,-220.32C174.04,-210.32 151.57,-196.15 132.94,-184.4"/>
<polygon fill="black" stroke="black" points="134.74,-181.4 124.41,-179.03 131.01,-187.32 134.74,-181.4"/>
</g>
<!-- Roles&#45;&gt;CoreAddresses -->
<g id="edge9" class="edge">
<title>Roles&#45;&gt;CoreAddresses</title>
<path fill="none" stroke="black" d="M212.29,-215.87C215.53,-191.67 221.48,-147.21 225.33,-118.39"/>
<polygon fill="black" stroke="black" points="228.84,-118.57 226.7,-108.19 221.9,-117.64 228.84,-118.57"/>
</g>
<!-- Signer -->
<g id="node7" class="node">
<title>Signer</title>
<ellipse fill="none" stroke="black" cx="333" cy="-18" rx="33.6" ry="18"/>
<text text-anchor="middle" x="333" y="-14.3" font-family="Times,serif" font-size="14.00">Signer</text>
</g>
<!-- Roles&#45;&gt;Signer -->
<g id="edge7" class="edge">
<title>Roles&#45;&gt;Signer</title>
<path fill="none" stroke="black" d="M223.53,-217.84C243.1,-195.28 279.4,-150.91 302,-108 312.5,-88.06 320.68,-63.81 325.99,-45.67"/>
<polygon fill="black" stroke="black" points="329.36,-46.6 328.71,-36.02 322.63,-44.7 329.36,-46.6"/>
</g>
<!-- DiemConfig&#45;&gt;Errors -->
<g id="edge12" class="edge">
<title>DiemConfig&#45;&gt;Errors</title>
<path fill="none" stroke="black" d="M282.9,-288.09C303.04,-247.23 347.04,-141.37 302,-72 284.91,-45.68 251.38,-32.32 224.26,-25.6"/>
<polygon fill="black" stroke="black" points="224.75,-22.13 214.22,-23.34 223.21,-28.96 224.75,-22.13"/>
</g>
<!-- DiemConfig&#45;&gt;DiemTimestamp -->
<g id="edge14" class="edge">
<title>DiemConfig&#45;&gt;DiemTimestamp</title>
<path fill="none" stroke="black" d="M239.51,-291.85C218.14,-282.68 190.88,-269.04 170,-252 147.79,-233.88 127.96,-207.72 114.94,-188.46"/>
<polygon fill="black" stroke="black" points="117.71,-186.3 109.28,-179.88 111.86,-190.15 117.71,-186.3"/>
</g>
<!-- DiemConfig&#45;&gt;Roles -->
<g id="edge15" class="edge">
<title>DiemConfig&#45;&gt;Roles</title>
<path fill="none" stroke="black" d="M258.83,-288.41C250.55,-279.35 240.16,-267.99 231.1,-258.08"/>
<polygon fill="black" stroke="black" points="233.51,-255.53 224.18,-250.51 228.35,-260.25 233.51,-255.53"/>
</g>
<!-- DiemConfig&#45;&gt;CoreAddresses -->
<g id="edge13" class="edge">
<title>DiemConfig&#45;&gt;CoreAddresses</title>
<path fill="none" stroke="black" d="M270.39,-287.85C262.59,-250.75 244.1,-162.81 234.7,-118.1"/>
<polygon fill="black" stroke="black" points="238.11,-117.3 232.62,-108.23 231.26,-118.74 238.11,-117.3"/>
</g>
<!-- DiemConfig&#45;&gt;Signer -->
<g id="edge11" class="edge">
<title>DiemConfig&#45;&gt;Signer</title>
<path fill="none" stroke="black" d="M315.15,-294.09C336.39,-286.14 360.43,-272.99 373,-252 414.11,-183.37 398.41,-147.86 373,-72 369.34,-61.07 362.43,-50.58 355.37,-41.87"/>
<polygon fill="black" stroke="black" points="357.85,-39.38 348.66,-34.1 352.55,-43.96 357.85,-39.38"/>
</g>
<!-- Event -->
<g id="node8" class="node">
<title>Event</title>
<ellipse fill="none" stroke="black" cx="456" cy="-90" rx="31.4" ry="18"/>
<text text-anchor="middle" x="456" y="-86.3" font-family="Times,serif" font-size="14.00">Event</text>
</g>
<!-- DiemConfig&#45;&gt;Event -->
<g id="edge16" class="edge">
<title>DiemConfig&#45;&gt;Event</title>
<path fill="none" stroke="black" d="M322.37,-297.52C351.84,-290.54 388.12,-277.21 411,-252 444.94,-214.61 453.53,-153.67 455.55,-118.46"/>
<polygon fill="black" stroke="black" points="459.05,-118.56 455.99,-108.42 452.06,-118.26 459.05,-118.56"/>
</g>
<!-- CoreAddresses&#45;&gt;Errors -->
<g id="edge18" class="edge">
<title>CoreAddresses&#45;&gt;Errors</title>
<path fill="none" stroke="black" d="M217.86,-72.05C212.3,-63.59 205.47,-53.19 199.33,-43.84"/>
<polygon fill="black" stroke="black" points="202.13,-41.74 193.72,-35.31 196.28,-45.59 202.13,-41.74"/>
</g>
<!-- CoreAddresses&#45;&gt;Signer -->
<g id="edge17" class="edge">
<title>CoreAddresses&#45;&gt;Signer</title>
<path fill="none" stroke="black" d="M252.6,-73.12C267.87,-62.84 287.86,-49.39 304.08,-38.47"/>
<polygon fill="black" stroke="black" points="306.31,-41.18 312.65,-32.7 302.4,-35.38 306.31,-41.18"/>
</g>
<!-- Event&#45;&gt;Errors -->
<g id="edge20" class="edge">
<title>Event&#45;&gt;Errors</title>
<path fill="none" stroke="black" d="M428.07,-81.84C379.07,-69.27 277.55,-43.24 221.78,-28.94"/>
<polygon fill="black" stroke="black" points="222.48,-25.51 211.92,-26.42 220.74,-32.29 222.48,-25.51"/>
</g>
<!-- Event&#45;&gt;Signer -->
<g id="edge19" class="edge">
<title>Event&#45;&gt;Signer</title>
<path fill="none" stroke="black" d="M434.58,-76.81C415.18,-65.77 386.37,-49.38 364.38,-36.86"/>
<polygon fill="black" stroke="black" points="365.85,-33.67 355.43,-31.76 362.39,-39.75 365.85,-33.67"/>
</g>
<!-- Vector -->
<g id="node9" class="node">
<title>Vector</title>
<ellipse fill="none" stroke="black" cx="443" cy="-18" rx="33.6" ry="18"/>
<text text-anchor="middle" x="443" y="-14.3" font-family="Times,serif" font-size="14.00">Vector</text>
</g>
<!-- Event&#45;&gt;Vector -->
<g id="edge21" class="edge">
<title>Event&#45;&gt;Vector</title>
<path fill="none" stroke="black" d="M452.85,-72.05C451.42,-64.35 449.69,-55.03 448.08,-46.36"/>
<polygon fill="black" stroke="black" points="451.48,-45.47 446.21,-36.28 444.59,-46.75 451.48,-45.47"/>
</g>
<!-- BCS -->
<g id="node10" class="node">
<title>BCS</title>
<ellipse fill="none" stroke="black" cx="522" cy="-18" rx="27.1" ry="18"/>
<text text-anchor="middle" x="522" y="-14.3" font-family="Times,serif" font-size="14.00">BCS</text>
</g>
<!-- Event&#45;&gt;BCS -->
<g id="edge22" class="edge">
<title>Event&#45;&gt;BCS</title>
<path fill="none" stroke="black" d="M470.32,-73.81C479.35,-64.23 491.16,-51.7 501.22,-41.04"/>
<polygon fill="black" stroke="black" points="503.85,-43.36 508.16,-33.68 498.75,-38.55 503.85,-43.36"/>
</g>
</g>
</svg>
