<?xml version="1.0" encoding="UTF-8" standalone="no"?>
<!DOCTYPE svg PUBLIC "-//W3C//DTD SVG 1.1//EN"
 "http://www.w3.org/Graphics/SVG/1.1/DTD/svg11.dtd">
<!-- Generated by graphviz version 2.46.1 (20210213.1702)
 -->
<!-- Title: G Pages: 1 -->
<svg width="1398pt" height="437pt"
 viewBox="0.00 0.00 1398.00 437.00" xmlns="http://www.w3.org/2000/svg" xmlns:xlink="http://www.w3.org/1999/xlink">
<g id="graph0" class="graph" transform="scale(1 1) rotate(0) translate(4 433)">
<title>G</title>
<polygon fill="white" stroke="transparent" points="-4,4 -4,-433 1394,-433 1394,4 -4,4"/>
<g id="clust1" class="cluster">
<title>cluster_Errors</title>
<polygon fill="none" stroke="black" points="442,-8 442,-158 1021,-158 1021,-8 442,-8"/>
<text text-anchor="middle" x="731.5" y="-142.8" font-family="Times,serif" font-size="14.00">Errors</text>
</g>
<g id="clust2" class="cluster">
<title>cluster_CoreAddresses</title>
<polygon fill="none" stroke="black" points="162,-8 162,-83 434,-83 434,-8 162,-8"/>
<text text-anchor="middle" x="298" y="-67.8" font-family="Times,serif" font-size="14.00">CoreAddresses</text>
</g>
<g id="clust3" class="cluster">
<title>cluster_Event</title>
<polygon fill="none" stroke="black" points="8,-166 8,-313 194,-313 194,-166 8,-166"/>
<text text-anchor="middle" x="101" y="-297.8" font-family="Times,serif" font-size="14.00">Event</text>
</g>
<g id="clust4" class="cluster">
<title>cluster_Vector</title>
<polygon fill="none" stroke="black" points="1119,-8 1119,-158 1382,-158 1382,-8 1119,-8"/>
<text text-anchor="middle" x="1250.5" y="-142.8" font-family="Times,serif" font-size="14.00">Vector</text>
</g>
<!-- burn_with_capability -->
<g id="node1" class="node">
<title>burn_with_capability</title>
<ellipse fill="none" stroke="black" cx="706" cy="-411" rx="85.59" ry="18"/>
<text text-anchor="middle" x="706" y="-407.3" font-family="Times,serif" font-size="14.00">burn_with_capability</text>
</g>
<!-- burn_with_resource_cap -->
<g id="node2" class="node">
<title>burn_with_resource_cap</title>
<ellipse fill="none" stroke="black" cx="430" cy="-339" rx="97.48" ry="18"/>
<text text-anchor="middle" x="430" y="-335.3" font-family="Times,serif" font-size="14.00">burn_with_resource_cap</text>
</g>
<!-- burn_with_capability&#45;&gt;burn_with_resource_cap -->
<g id="edge1" class="edge">
<title>burn_with_capability&#45;&gt;burn_with_resource_cap</title>
<path fill="none" stroke="black" d="M653.44,-396.67C608.37,-385.24 543.26,-368.73 494.94,-356.47"/>
<polygon fill="black" stroke="black" points="495.76,-353.07 485.2,-354 494.04,-359.85 495.76,-353.07"/>
</g>
<!-- destroy_zero -->
<g id="node3" class="node">
<title>destroy_zero</title>
<ellipse fill="none" stroke="black" cx="706" cy="-192" rx="55.79" ry="18"/>
<text text-anchor="middle" x="706" y="-188.3" font-family="Times,serif" font-size="14.00">destroy_zero</text>
</g>
<!-- burn_with_capability&#45;&gt;destroy_zero -->
<g id="edge2" class="edge">
<title>burn_with_capability&#45;&gt;destroy_zero</title>
<path fill="none" stroke="black" d="M706,-392.97C706,-355.51 706,-265.68 706,-220.26"/>
<polygon fill="black" stroke="black" points="709.5,-220.25 706,-210.25 702.5,-220.25 709.5,-220.25"/>
</g>
<!-- remove_preburn_from_queue -->
<g id="node4" class="node">
<title>remove_preburn_from_queue</title>
<ellipse fill="none" stroke="black" cx="1061" cy="-192" rx="116.18" ry="18"/>
<text text-anchor="middle" x="1061" y="-188.3" font-family="Times,serif" font-size="14.00">remove_preburn_from_queue</text>
</g>
<!-- burn_with_capability&#45;&gt;remove_preburn_from_queue -->
<g id="edge3" class="edge">
<title>burn_with_capability&#45;&gt;remove_preburn_from_queue</title>
<path fill="none" stroke="black" d="M732.39,-393.87C795.26,-355.44 953.95,-258.44 1025.29,-214.83"/>
<polygon fill="black" stroke="black" points="1027.24,-217.74 1033.95,-209.54 1023.59,-211.77 1027.24,-217.74"/>
</g>
<!-- Errors::invalid_state -->
<g id="node5" class="node">
<title>Errors::invalid_state</title>
<ellipse fill="none" stroke="black" cx="957" cy="-109" rx="55.79" ry="18"/>
<text text-anchor="middle" x="957" y="-105.3" font-family="Times,serif" font-size="14.00">invalid_state</text>
</g>
<!-- burn_with_resource_cap&#45;&gt;Errors::invalid_state -->
<g id="edge4" class="edge">
<title>burn_with_resource_cap&#45;&gt;Errors::invalid_state</title>
<path fill="none" stroke="black" d="M520.53,-332.08C550.78,-328.41 579.68,-322.5 591,-313 643.85,-268.62 585.54,-207.07 641,-166 663.42,-149.39 865.64,-167.15 892,-158 907.04,-152.78 921.51,-142.76 932.97,-133.22"/>
<polygon fill="black" stroke="black" points="935.52,-135.64 940.75,-126.43 930.91,-130.37 935.52,-135.64"/>
</g>
<!-- Errors::limit_exceeded -->
<g id="node6" class="node">
<title>Errors::limit_exceeded</title>
<ellipse fill="none" stroke="black" cx="515" cy="-109" rx="64.99" ry="18"/>
<text text-anchor="middle" x="515" y="-105.3" font-family="Times,serif" font-size="14.00">limit_exceeded</text>
</g>
<!-- burn_with_resource_cap&#45;&gt;Errors::limit_exceeded -->
<g id="edge5" class="edge">
<title>burn_with_resource_cap&#45;&gt;Errors::limit_exceeded</title>
<path fill="none" stroke="black" d="M516.95,-330.68C538.79,-326.97 558.03,-321.38 565,-313 606.83,-262.72 581.72,-226.96 558,-166 553.53,-154.51 545.94,-143.41 538.37,-134.16"/>
<polygon fill="black" stroke="black" points="540.98,-131.83 531.8,-126.55 535.68,-136.41 540.98,-131.83"/>
</g>
<!-- CoreAddresses::CURRENCY_INFO_ADDRESS -->
<g id="node7" class="node">
<title>CoreAddresses::CURRENCY_INFO_ADDRESS</title>
<ellipse fill="none" stroke="black" cx="298" cy="-34" rx="128.08" ry="18"/>
<text text-anchor="middle" x="298" y="-30.3" font-family="Times,serif" font-size="14.00">CURRENCY_INFO_ADDRESS</text>
</g>
<!-- burn_with_resource_cap&#45;&gt;CoreAddresses::CURRENCY_INFO_ADDRESS -->
<g id="edge6" class="edge">
<title>burn_with_resource_cap&#45;&gt;CoreAddresses::CURRENCY_INFO_ADDRESS</title>
<path fill="none" stroke="black" d="M342.05,-331.09C313.76,-327.32 286.9,-321.6 276,-313 197.89,-251.36 202.68,-180.09 247,-91 252.81,-79.32 261.78,-68.28 270.58,-59.14"/>
<polygon fill="black" stroke="black" points="273.22,-61.46 277.87,-51.94 268.3,-56.48 273.22,-61.46"/>
</g>
<!-- Event::emit_event -->
<g id="node8" class="node">
<title>Event::emit_event</title>
<ellipse fill="none" stroke="black" cx="118" cy="-264" rx="50.09" ry="18"/>
<text text-anchor="middle" x="118" y="-260.3" font-family="Times,serif" font-size="14.00">emit_event</text>
</g>
<!-- burn_with_resource_cap&#45;&gt;Event::emit_event -->
<g id="edge7" class="edge">
<title>burn_with_resource_cap&#45;&gt;Event::emit_event</title>
<path fill="none" stroke="black" d="M333.25,-336.5C291.42,-333.57 242.43,-327.01 200,-313 181.28,-306.82 162.16,-295.94 147.1,-286.11"/>
<polygon fill="black" stroke="black" points="148.98,-283.16 138.73,-280.48 145.08,-288.96 148.98,-283.16"/>
</g>
<!-- currency_code -->
<g id="node9" class="node">
<title>currency_code</title>
<ellipse fill="none" stroke="black" cx="361" cy="-264" rx="62.29" ry="18"/>
<text text-anchor="middle" x="361" y="-260.3" font-family="Times,serif" font-size="14.00">currency_code</text>
</g>
<!-- burn_with_resource_cap&#45;&gt;currency_code -->
<g id="edge8" class="edge">
<title>burn_with_resource_cap&#45;&gt;currency_code</title>
<path fill="none" stroke="black" d="M414,-321.07C404.96,-311.51 393.53,-299.41 383.59,-288.9"/>
<polygon fill="black" stroke="black" points="386.09,-286.45 376.68,-281.59 381,-291.26 386.09,-286.45"/>
</g>
<!-- assert_is_currency -->
<g id="node10" class="node">
<title>assert_is_currency</title>
<ellipse fill="none" stroke="black" cx="318" cy="-192" rx="76.09" ry="18"/>
<text text-anchor="middle" x="318" y="-188.3" font-family="Times,serif" font-size="14.00">assert_is_currency</text>
</g>
<!-- burn_with_resource_cap&#45;&gt;assert_is_currency -->
<g id="edge9" class="edge">
<title>burn_with_resource_cap&#45;&gt;assert_is_currency</title>
<path fill="none" stroke="black" d="M341.71,-331.33C318.3,-327.63 297.45,-321.9 290,-313 267.64,-286.3 285.05,-245.02 300.68,-218.51"/>
<polygon fill="black" stroke="black" points="303.79,-220.15 306.07,-209.8 297.83,-216.46 303.79,-220.15"/>
</g>
<!-- withdraw_all -->
<g id="node11" class="node">
<title>withdraw_all</title>
<ellipse fill="none" stroke="black" cx="499" cy="-264" rx="57.39" ry="18"/>
<text text-anchor="middle" x="499" y="-260.3" font-family="Times,serif" font-size="14.00">withdraw_all</text>
</g>
<!-- burn_with_resource_cap&#45;&gt;withdraw_all -->
<g id="edge10" class="edge">
<title>burn_with_resource_cap&#45;&gt;withdraw_all</title>
<path fill="none" stroke="black" d="M446,-321.07C455.1,-311.44 466.64,-299.24 476.62,-288.68"/>
<polygon fill="black" stroke="black" points="479.23,-291.01 483.56,-281.34 474.15,-286.2 479.23,-291.01"/>
</g>
<!-- Errors::invalid_argument -->
<g id="node12" class="node">
<title>Errors::invalid_argument</title>
<ellipse fill="none" stroke="black" cx="671" cy="-109" rx="73.39" ry="18"/>
<text text-anchor="middle" x="671" y="-105.3" font-family="Times,serif" font-size="14.00">invalid_argument</text>
</g>
<!-- destroy_zero&#45;&gt;Errors::invalid_argument -->
<g id="edge11" class="edge">
<title>destroy_zero&#45;&gt;Errors::invalid_argument</title>
<path fill="none" stroke="black" d="M698.58,-173.82C693.89,-162.98 687.74,-148.74 682.44,-136.47"/>
<polygon fill="black" stroke="black" points="685.59,-134.94 678.41,-127.15 679.17,-137.72 685.59,-134.94"/>
</g>
<!-- remove_preburn_from_queue&#45;&gt;Errors::invalid_state -->
<g id="edge12" class="edge">
<title>remove_preburn_from_queue&#45;&gt;Errors::invalid_state</title>
<path fill="none" stroke="black" d="M1039.45,-174.22C1023.81,-162.03 1002.48,-145.42 985.44,-132.15"/>
<polygon fill="black" stroke="black" points="987.5,-129.32 977.46,-125.94 983.2,-134.84 987.5,-129.32"/>
</g>
<!-- Errors::not_published -->
<g id="node13" class="node">
<title>Errors::not_published</title>
<ellipse fill="none" stroke="black" cx="823" cy="-109" rx="60.39" ry="18"/>
<text text-anchor="middle" x="823" y="-105.3" font-family="Times,serif" font-size="14.00">not_published</text>
</g>
<!-- remove_preburn_from_queue&#45;&gt;Errors::not_published -->
<g id="edge13" class="edge">
<title>remove_preburn_from_queue&#45;&gt;Errors::not_published</title>
<path fill="none" stroke="black" d="M970.79,-180.51C944.71,-175.6 916.64,-168.43 892,-158 876.93,-151.62 861.83,-141.62 849.61,-132.4"/>
<polygon fill="black" stroke="black" points="851.68,-129.58 841.64,-126.19 847.38,-135.1 851.68,-129.58"/>
</g>
<!-- Vector::borrow -->
<g id="node14" class="node">
<title>Vector::borrow</title>
<ellipse fill="none" stroke="black" cx="1183" cy="-109" rx="36.29" ry="18"/>
<text text-anchor="middle" x="1183" y="-105.3" font-family="Times,serif" font-size="14.00">borrow</text>
</g>
<!-- remove_preburn_from_queue&#45;&gt;Vector::borrow -->
<g id="edge14" class="edge">
<title>remove_preburn_from_queue&#45;&gt;Vector::borrow</title>
<path fill="none" stroke="black" d="M1101.9,-175.13C1112.42,-170.28 1123.45,-164.5 1133,-158 1143.47,-150.88 1153.77,-141.51 1162.28,-132.94"/>
<polygon fill="black" stroke="black" points="1164.85,-135.32 1169.26,-125.69 1159.8,-130.46 1164.85,-135.32"/>
</g>
<!-- Vector::length -->
<g id="node15" class="node">
<title>Vector::length</title>
<ellipse fill="none" stroke="black" cx="1159" cy="-34" rx="32.49" ry="18"/>
<text text-anchor="middle" x="1159" y="-30.3" font-family="Times,serif" font-size="14.00">length</text>
</g>
<!-- remove_preburn_from_queue&#45;&gt;Vector::length -->
<g id="edge15" class="edge">
<title>remove_preburn_from_queue&#45;&gt;Vector::length</title>
<path fill="none" stroke="black" d="M1083.99,-174.31C1089.68,-169.47 1095.44,-163.9 1100,-158 1112.41,-141.94 1134.66,-92.22 1148.01,-61.13"/>
<polygon fill="black" stroke="black" points="1151.3,-62.33 1152,-51.76 1144.86,-59.59 1151.3,-62.33"/>
</g>
<!-- Vector::remove -->
<g id="node16" class="node">
<title>Vector::remove</title>
<ellipse fill="none" stroke="black" cx="1275" cy="-109" rx="37.89" ry="18"/>
<text text-anchor="middle" x="1275" y="-105.3" font-family="Times,serif" font-size="14.00">remove</text>
</g>
<!-- remove_preburn_from_queue&#45;&gt;Vector::remove -->
<g id="edge16" class="edge">
<title>remove_preburn_from_queue&#45;&gt;Vector::remove</title>
<path fill="none" stroke="black" d="M1158.03,-181.96C1181.88,-177.05 1206.68,-169.52 1228,-158 1238.84,-152.14 1248.74,-142.94 1256.63,-134.16"/>
<polygon fill="black" stroke="black" points="1259.48,-136.21 1263.27,-126.32 1254.14,-131.68 1259.48,-136.21"/>
</g>
<!-- value -->
<g id="node17" class="node">
<title>value</title>
<ellipse fill="none" stroke="black" cx="1061" cy="-109" rx="29.8" ry="18"/>
<text text-anchor="middle" x="1061" y="-105.3" font-family="Times,serif" font-size="14.00">value</text>
</g>
<!-- remove_preburn_from_queue&#45;&gt;value -->
<g id="edge17" class="edge">
<title>remove_preburn_from_queue&#45;&gt;value</title>
<path fill="none" stroke="black" d="M1061,-173.82C1061,-163.19 1061,-149.31 1061,-137.2"/>
<polygon fill="black" stroke="black" points="1064.5,-137.15 1061,-127.15 1057.5,-137.15 1064.5,-137.15"/>
</g>
<!-- Errors::make -->
<g id="node18" class="node">
<title>Errors::make</title>
<ellipse fill="none" stroke="black" cx="747" cy="-34" rx="30.59" ry="18"/>
<text text-anchor="middle" x="747" y="-30.3" font-family="Times,serif" font-size="14.00">make</text>
</g>
<!-- Errors::invalid_state&#45;&gt;Errors::make -->
<g id="edge18" class="edge">
<title>Errors::invalid_state&#45;&gt;Errors::make</title>
<path fill="none" stroke="black" d="M920.42,-95.28C881.59,-81.78 820.64,-60.6 782.3,-47.27"/>
<polygon fill="black" stroke="black" points="783.19,-43.87 772.59,-43.9 780.89,-50.49 783.19,-43.87"/>
</g>
<!-- Errors::limit_exceeded&#45;&gt;Errors::make -->
<g id="edge19" class="edge">
<title>Errors::limit_exceeded&#45;&gt;Errors::make</title>
<path fill="none" stroke="black" d="M556.21,-95.03C600.12,-81.22 668.94,-59.56 710.82,-46.38"/>
<polygon fill="black" stroke="black" points="712.11,-49.65 720.6,-43.31 710.01,-42.97 712.11,-49.65"/>
</g>
<!-- Event::write_to_event_store -->
<g id="node19" class="node">
<title>Event::write_to_event_store</title>
<ellipse fill="none" stroke="black" cx="101" cy="-192" rx="85.29" ry="18"/>
<text text-anchor="middle" x="101" y="-188.3" font-family="Times,serif" font-size="14.00">write_to_event_store</text>
</g>
<!-- Event::emit_event&#45;&gt;Event::write_to_event_store -->
<g id="edge20" class="edge">
<title>Event::emit_event&#45;&gt;Event::write_to_event_store</title>
<path fill="none" stroke="black" d="M113.88,-246.05C111.99,-238.26 109.7,-228.82 107.58,-220.08"/>
<polygon fill="black" stroke="black" points="110.96,-219.17 105.2,-210.28 104.15,-220.82 110.96,-219.17"/>
</g>
<!-- currency_code&#45;&gt;CoreAddresses::CURRENCY_INFO_ADDRESS -->
<g id="edge21" class="edge">
<title>currency_code&#45;&gt;CoreAddresses::CURRENCY_INFO_ADDRESS</title>
<path fill="none" stroke="black" d="M378.73,-246.69C387.89,-237.03 398.14,-223.97 403,-210 409.43,-191.53 407.13,-185.11 403,-166 395.27,-130.23 391.56,-119.82 369,-91 359.09,-78.35 345.75,-66.86 333.31,-57.62"/>
<polygon fill="black" stroke="black" points="335.07,-54.58 324.9,-51.61 331,-60.27 335.07,-54.58"/>
</g>
<!-- currency_code&#45;&gt;assert_is_currency -->
<g id="edge22" class="edge">
<title>currency_code&#45;&gt;assert_is_currency</title>
<path fill="none" stroke="black" d="M350.59,-246.05C345.59,-237.92 339.5,-228 333.94,-218.94"/>
<polygon fill="black" stroke="black" points="336.83,-216.96 328.61,-210.28 330.86,-220.63 336.83,-216.96"/>
</g>
<!-- assert_is_currency&#45;&gt;Errors::not_published -->
<g id="edge23" class="edge">
<title>assert_is_currency&#45;&gt;Errors::not_published</title>
<path fill="none" stroke="black" d="M371.18,-179.08C395.66,-174.11 425.17,-168.84 452,-166 485.27,-162.48 721.18,-168.33 753,-158 769.17,-152.75 784.98,-142.48 797.48,-132.79"/>
<polygon fill="black" stroke="black" points="800,-135.25 805.56,-126.24 795.59,-129.81 800,-135.25"/>
</g>
<!-- is_currency -->
<g id="node20" class="node">
<title>is_currency</title>
<ellipse fill="none" stroke="black" cx="308" cy="-109" rx="51.99" ry="18"/>
<text text-anchor="middle" x="308" y="-105.3" font-family="Times,serif" font-size="14.00">is_currency</text>
</g>
<!-- assert_is_currency&#45;&gt;is_currency -->
<g id="edge24" class="edge">
<title>assert_is_currency&#45;&gt;is_currency</title>
<path fill="none" stroke="black" d="M315.88,-173.82C314.57,-163.19 312.85,-149.31 311.36,-137.2"/>
<polygon fill="black" stroke="black" points="314.82,-136.65 310.12,-127.15 307.87,-137.51 314.82,-136.65"/>
</g>
<!-- withdraw -->
<g id="node21" class="node">
<title>withdraw</title>
<ellipse fill="none" stroke="black" cx="505" cy="-192" rx="44.39" ry="18"/>
<text text-anchor="middle" x="505" y="-188.3" font-family="Times,serif" font-size="14.00">withdraw</text>
</g>
<!-- withdraw_all&#45;&gt;withdraw -->
<g id="edge25" class="edge">
<title>withdraw_all&#45;&gt;withdraw</title>
<path fill="none" stroke="black" d="M500.48,-245.7C501.14,-237.98 501.94,-228.71 502.68,-220.11"/>
<polygon fill="black" stroke="black" points="506.17,-220.37 503.53,-210.1 499.19,-219.77 506.17,-220.37"/>
</g>
<!-- Errors::invalid_argument&#45;&gt;Errors::make -->
<g id="edge26" class="edge">
<title>Errors::invalid_argument&#45;&gt;Errors::make</title>
<path fill="none" stroke="black" d="M688.25,-91.44C698.95,-81.15 712.83,-67.82 724.41,-56.7"/>
<polygon fill="black" stroke="black" points="726.84,-59.22 731.63,-49.77 721.99,-54.17 726.84,-59.22"/>
</g>
<!-- Errors::not_published&#45;&gt;Errors::make -->
<g id="edge27" class="edge">
<title>Errors::not_published&#45;&gt;Errors::make</title>
<path fill="none" stroke="black" d="M805.75,-91.44C795.05,-81.15 781.17,-67.82 769.59,-56.7"/>
<polygon fill="black" stroke="black" points="772.01,-54.17 762.37,-49.77 767.16,-59.22 772.01,-54.17"/>
</g>
<!-- Vector::remove&#45;&gt;Vector::length -->
<g id="edge28" class="edge">
<title>Vector::remove&#45;&gt;Vector::length</title>
<path fill="none" stroke="black" d="M1246.28,-97.26C1240.26,-95.11 1233.94,-92.92 1228,-91 1215.69,-87.02 1210.89,-90 1200,-83 1190.6,-76.96 1182.18,-68.11 1175.45,-59.65"/>
<polygon fill="black" stroke="black" points="1178.1,-57.36 1169.31,-51.44 1172.5,-61.55 1178.1,-57.36"/>
</g>
<!-- Vector::pop_back -->
<g id="node22" class="node">
<title>Vector::pop_back</title>
<ellipse fill="none" stroke="black" cx="1329" cy="-34" rx="44.69" ry="18"/>
<text text-anchor="middle" x="1329" y="-30.3" font-family="Times,serif" font-size="14.00">pop_back</text>
</g>
<!-- Vector::remove&#45;&gt;Vector::pop_back -->
<g id="edge29" class="edge">
<title>Vector::remove&#45;&gt;Vector::pop_back</title>
<path fill="none" stroke="black" d="M1286.98,-91.8C1294,-82.32 1302.99,-70.16 1310.86,-59.53"/>
<polygon fill="black" stroke="black" points="1313.73,-61.53 1316.86,-51.41 1308.1,-57.37 1313.73,-61.53"/>
</g>
<!-- Vector::swap -->
<g id="node23" class="node">
<title>Vector::swap</title>
<ellipse fill="none" stroke="black" cx="1238" cy="-34" rx="28.7" ry="18"/>
<text text-anchor="middle" x="1238" y="-30.3" font-family="Times,serif" font-size="14.00">swap</text>
</g>
<!-- Vector::remove&#45;&gt;Vector::swap -->
<g id="edge30" class="edge">
<title>Vector::remove&#45;&gt;Vector::swap</title>
<path fill="none" stroke="black" d="M1266.6,-91.44C1261.94,-82.22 1256.03,-70.57 1250.8,-60.25"/>
<polygon fill="black" stroke="black" points="1253.88,-58.59 1246.24,-51.25 1247.63,-61.75 1253.88,-58.59"/>
</g>
<!-- is_currency&#45;&gt;CoreAddresses::CURRENCY_INFO_ADDRESS -->
<g id="edge31" class="edge">
<title>is_currency&#45;&gt;CoreAddresses::CURRENCY_INFO_ADDRESS</title>
<path fill="none" stroke="black" d="M305.63,-90.7C304.47,-82.25 303.05,-71.87 301.75,-62.37"/>
<polygon fill="black" stroke="black" points="305.18,-61.61 300.35,-52.18 298.24,-62.56 305.18,-61.61"/>
</g>
<!-- withdraw&#45;&gt;Errors::limit_exceeded -->
<g id="edge32" class="edge">
<title>withdraw&#45;&gt;Errors::limit_exceeded</title>
<path fill="none" stroke="black" d="M507.12,-173.82C508.43,-163.19 510.15,-149.31 511.64,-137.2"/>
<polygon fill="black" stroke="black" points="515.13,-137.51 512.88,-127.15 508.18,-136.65 515.13,-137.51"/>
</g>
</g>
</svg>
