<?xml version="1.0" encoding="UTF-8" standalone="no"?>
<!DOCTYPE svg PUBLIC "-//W3C//DTD SVG 1.1//EN"
 "http://www.w3.org/Graphics/SVG/1.1/DTD/svg11.dtd">
<!-- Generated by graphviz version 2.46.1 (20210213.1702)
 -->
<!-- Title: G Pages: 1 -->
<svg width="1168pt" height="365pt"
 viewBox="0.00 0.00 1168.19 365.00" xmlns="http://www.w3.org/2000/svg" xmlns:xlink="http://www.w3.org/1999/xlink">
<g id="graph0" class="graph" transform="scale(1 1) rotate(0) translate(4 361)">
<title>G</title>
<polygon fill="white" stroke="transparent" points="-4,4 -4,-361 1164.19,-361 1164.19,4 -4,4"/>
<g id="clust1" class="cluster">
<title>cluster_Signer</title>
<polygon fill="none" stroke="black" points="572,-8 572,-155 722,-155 722,-8 572,-8"/>
<text text-anchor="middle" x="647" y="-139.8" font-family="Times,serif" font-size="14.00">Signer</text>
</g>
<g id="clust2" class="cluster">
<title>cluster_Errors</title>
<polygon fill="none" stroke="black" points="8,-8 8,-155 564,-155 564,-8 8,-8"/>
<text text-anchor="middle" x="286" y="-139.8" font-family="Times,serif" font-size="14.00">Errors</text>
</g>
<g id="clust3" class="cluster">
<title>cluster_CoreAddresses</title>
<polygon fill="none" stroke="black" points="730,-80 730,-230 960,-230 960,-80 730,-80"/>
<text text-anchor="middle" x="845" y="-214.8" font-family="Times,serif" font-size="14.00">CoreAddresses</text>
</g>
<g id="clust4" class="cluster">
<title>cluster_Roles</title>
<polygon fill="none" stroke="black" points="469,-238 469,-313 627,-313 627,-238 469,-238"/>
<text text-anchor="middle" x="548" y="-297.8" font-family="Times,serif" font-size="14.00">Roles</text>
</g>
<!-- enable_reconfiguration -->
<g id="node1" class="node">
<title>enable_reconfiguration</title>
<ellipse fill="none" stroke="black" cx="597" cy="-339" rx="91.78" ry="18"/>
<text text-anchor="middle" x="597" y="-335.3" font-family="Times,serif" font-size="14.00">enable_reconfiguration</text>
</g>
<!-- Signer::address_of -->
<g id="node2" class="node">
<title>Signer::address_of</title>
<ellipse fill="none" stroke="black" cx="647" cy="-106" rx="48.99" ry="18"/>
<text text-anchor="middle" x="647" y="-102.3" font-family="Times,serif" font-size="14.00">address_of</text>
</g>
<!-- enable_reconfiguration&#45;&gt;Signer::address_of -->
<g id="edge1" class="edge">
<title>enable_reconfiguration&#45;&gt;Signer::address_of</title>
<path fill="none" stroke="black" d="M624.16,-321.71C626.84,-319.11 629.22,-316.2 631,-313 662.75,-255.86 657.41,-175.7 651.69,-134.23"/>
<polygon fill="black" stroke="black" points="655.11,-133.46 650.18,-124.09 648.19,-134.5 655.11,-133.46"/>
</g>
<!-- Errors::invalid_state -->
<g id="node3" class="node">
<title>Errors::invalid_state</title>
<ellipse fill="none" stroke="black" cx="72" cy="-106" rx="55.79" ry="18"/>
<text text-anchor="middle" x="72" y="-102.3" font-family="Times,serif" font-size="14.00">invalid_state</text>
</g>
<!-- enable_reconfiguration&#45;&gt;Errors::invalid_state -->
<g id="edge2" class="edge">
<title>enable_reconfiguration&#45;&gt;Errors::invalid_state</title>
<path fill="none" stroke="black" d="M507.94,-334.54C473.49,-331.19 434.2,-324.85 400,-313 276.67,-270.26 151.78,-173.89 98.61,-129.8"/>
<polygon fill="black" stroke="black" points="100.62,-126.92 90.71,-123.19 96.13,-132.29 100.62,-126.92"/>
</g>
<!-- Errors::requires_address -->
<g id="node4" class="node">
<title>Errors::requires_address</title>
<ellipse fill="none" stroke="black" cx="354" cy="-106" rx="69.59" ry="18"/>
<text text-anchor="middle" x="354" y="-102.3" font-family="Times,serif" font-size="14.00">requires_address</text>
</g>
<!-- enable_reconfiguration&#45;&gt;Errors::requires_address -->
<g id="edge3" class="edge">
<title>enable_reconfiguration&#45;&gt;Errors::requires_address</title>
<path fill="none" stroke="black" d="M520.17,-329.14C496.61,-325.21 474.41,-319.89 465,-313 403.7,-268.13 372.72,-178.89 360.48,-134.04"/>
<polygon fill="black" stroke="black" points="363.81,-132.95 357.89,-124.16 357.04,-134.72 363.81,-132.95"/>
</g>
<!-- CoreAddresses::DIEM_ROOT_ADDRESS -->
<g id="node5" class="node">
<title>CoreAddresses::DIEM_ROOT_ADDRESS</title>
<ellipse fill="none" stroke="black" cx="845" cy="-106" rx="106.68" ry="18"/>
<text text-anchor="middle" x="845" y="-102.3" font-family="Times,serif" font-size="14.00">DIEM_ROOT_ADDRESS</text>
</g>
<!-- enable_reconfiguration&#45;&gt;CoreAddresses::DIEM_ROOT_ADDRESS -->
<g id="edge4" class="edge">
<title>enable_reconfiguration&#45;&gt;CoreAddresses::DIEM_ROOT_ADDRESS</title>
<path fill="none" stroke="black" d="M681.56,-332.06C750.07,-322.26 842.59,-296.65 889,-230 906.02,-205.56 898.73,-191.14 889,-163 885,-151.43 877.51,-140.44 869.83,-131.3"/>
<polygon fill="black" stroke="black" points="872.39,-128.91 863.12,-123.78 867.17,-133.57 872.39,-128.91"/>
</g>
<!-- Roles::assert_diem_root -->
<g id="node6" class="node">
<title>Roles::assert_diem_root</title>
<ellipse fill="none" stroke="black" cx="548" cy="-264" rx="71.49" ry="18"/>
<text text-anchor="middle" x="548" y="-260.3" font-family="Times,serif" font-size="14.00">assert_diem_root</text>
</g>
<!-- enable_reconfiguration&#45;&gt;Roles::assert_diem_root -->
<g id="edge5" class="edge">
<title>enable_reconfiguration&#45;&gt;Roles::assert_diem_root</title>
<path fill="none" stroke="black" d="M585.64,-321.07C579.51,-311.95 571.84,-300.51 565.02,-290.35"/>
<polygon fill="black" stroke="black" points="567.78,-288.19 559.3,-281.84 561.97,-292.09 567.78,-288.19"/>
</g>
<!-- reconfiguration_enabled -->
<g id="node7" class="node">
<title>reconfiguration_enabled</title>
<ellipse fill="none" stroke="black" cx="1064" cy="-181" rx="96.38" ry="18"/>
<text text-anchor="middle" x="1064" y="-177.3" font-family="Times,serif" font-size="14.00">reconfiguration_enabled</text>
</g>
<!-- enable_reconfiguration&#45;&gt;reconfiguration_enabled -->
<g id="edge6" class="edge">
<title>enable_reconfiguration&#45;&gt;reconfiguration_enabled</title>
<path fill="none" stroke="black" d="M688.51,-337.61C769.7,-336.06 881.53,-330.63 922,-313 975.12,-289.85 1021.21,-238.29 1045.57,-207.2"/>
<polygon fill="black" stroke="black" points="1048.54,-209.08 1051.85,-199.02 1042.99,-204.82 1048.54,-209.08"/>
</g>
<!-- Signer::borrow_address -->
<g id="node8" class="node">
<title>Signer::borrow_address</title>
<ellipse fill="none" stroke="black" cx="647" cy="-34" rx="66.89" ry="18"/>
<text text-anchor="middle" x="647" y="-30.3" font-family="Times,serif" font-size="14.00">borrow_address</text>
</g>
<!-- Signer::address_of&#45;&gt;Signer::borrow_address -->
<g id="edge7" class="edge">
<title>Signer::address_of&#45;&gt;Signer::borrow_address</title>
<path fill="none" stroke="black" d="M647,-87.7C647,-79.98 647,-70.71 647,-62.11"/>
<polygon fill="black" stroke="black" points="650.5,-62.1 647,-52.1 643.5,-62.1 650.5,-62.1"/>
</g>
<!-- Errors::make -->
<g id="node9" class="node">
<title>Errors::make</title>
<ellipse fill="none" stroke="black" cx="280" cy="-34" rx="30.59" ry="18"/>
<text text-anchor="middle" x="280" y="-30.3" font-family="Times,serif" font-size="14.00">make</text>
</g>
<!-- Errors::invalid_state&#45;&gt;Errors::make -->
<g id="edge8" class="edge">
<title>Errors::invalid_state&#45;&gt;Errors::make</title>
<path fill="none" stroke="black" d="M105.92,-91.49C115.89,-87.65 126.84,-83.55 137,-80 172.94,-67.45 214.49,-54.55 243.51,-45.8"/>
<polygon fill="black" stroke="black" points="244.65,-49.11 253.22,-42.88 242.63,-42.41 244.65,-49.11"/>
</g>
<!-- Errors::requires_address&#45;&gt;Errors::make -->
<g id="edge9" class="edge">
<title>Errors::requires_address&#45;&gt;Errors::make</title>
<path fill="none" stroke="black" d="M336.46,-88.41C326.42,-78.91 313.7,-66.88 302.88,-56.65"/>
<polygon fill="black" stroke="black" points="305.07,-53.9 295.4,-49.57 300.26,-58.99 305.07,-53.9"/>
</g>
<!-- Roles::assert_diem_root&#45;&gt;Signer::address_of -->
<g id="edge10" class="edge">
<title>Roles::assert_diem_root&#45;&gt;Signer::address_of</title>
<path fill="none" stroke="black" d="M558.78,-246.01C576.12,-218.7 610.29,-164.85 630.64,-132.78"/>
<polygon fill="black" stroke="black" points="633.83,-134.29 636.23,-123.97 627.92,-130.54 633.83,-134.29"/>
</g>
<!-- Errors::not_published -->
<g id="node10" class="node">
<title>Errors::not_published</title>
<ellipse fill="none" stroke="black" cx="206" cy="-106" rx="60.39" ry="18"/>
<text text-anchor="middle" x="206" y="-102.3" font-family="Times,serif" font-size="14.00">not_published</text>
</g>
<!-- Roles::assert_diem_root&#45;&gt;Errors::not_published -->
<g id="edge11" class="edge">
<title>Roles::assert_diem_root&#45;&gt;Errors::not_published</title>
<path fill="none" stroke="black" d="M505.02,-249.45C450.06,-231.34 352.71,-196.67 275,-155 261.13,-147.56 246.71,-137.88 234.65,-129.15"/>
<polygon fill="black" stroke="black" points="236.46,-126.14 226.33,-123.02 232.3,-131.77 236.46,-126.14"/>
</g>
<!-- Errors::requires_role -->
<g id="node11" class="node">
<title>Errors::requires_role</title>
<ellipse fill="none" stroke="black" cx="499" cy="-106" rx="57.39" ry="18"/>
<text text-anchor="middle" x="499" y="-102.3" font-family="Times,serif" font-size="14.00">requires_role</text>
</g>
<!-- Roles::assert_diem_root&#45;&gt;Errors::requires_role -->
<g id="edge12" class="edge">
<title>Roles::assert_diem_root&#45;&gt;Errors::requires_role</title>
<path fill="none" stroke="black" d="M542.66,-246.01C534.16,-218.93 517.46,-165.77 507.36,-133.61"/>
<polygon fill="black" stroke="black" points="510.67,-132.46 504.33,-123.97 503.99,-134.56 510.67,-132.46"/>
</g>
<!-- CoreAddresses::assert_diem_root -->
<g id="node12" class="node">
<title>CoreAddresses::assert_diem_root</title>
<ellipse fill="none" stroke="black" cx="809" cy="-181" rx="71.49" ry="18"/>
<text text-anchor="middle" x="809" y="-177.3" font-family="Times,serif" font-size="14.00">assert_diem_root</text>
</g>
<!-- Roles::assert_diem_root&#45;&gt;CoreAddresses::assert_diem_root -->
<g id="edge13" class="edge">
<title>Roles::assert_diem_root&#45;&gt;CoreAddresses::assert_diem_root</title>
<path fill="none" stroke="black" d="M591.1,-249.62C636.34,-235.58 707.52,-213.49 756.13,-198.41"/>
<polygon fill="black" stroke="black" points="757.32,-201.7 765.84,-195.4 755.25,-195.02 757.32,-201.7"/>
</g>
<!-- reconfiguration_enabled&#45;&gt;CoreAddresses::DIEM_ROOT_ADDRESS -->
<g id="edge14" class="edge">
<title>reconfiguration_enabled&#45;&gt;CoreAddresses::DIEM_ROOT_ADDRESS</title>
<path fill="none" stroke="black" d="M1019.15,-165.05C984.81,-153.6 937.24,-137.75 900.49,-125.5"/>
<polygon fill="black" stroke="black" points="901.51,-122.15 890.92,-122.31 899.3,-128.79 901.51,-122.15"/>
</g>
<!-- Errors::not_published&#45;&gt;Errors::make -->
<g id="edge15" class="edge">
<title>Errors::not_published&#45;&gt;Errors::make</title>
<path fill="none" stroke="black" d="M223.54,-88.41C233.58,-78.91 246.3,-66.88 257.12,-56.65"/>
<polygon fill="black" stroke="black" points="259.74,-58.99 264.6,-49.57 254.93,-53.9 259.74,-58.99"/>
</g>
<!-- Errors::requires_role&#45;&gt;Errors::make -->
<g id="edge16" class="edge">
<title>Errors::requires_role&#45;&gt;Errors::make</title>
<path fill="none" stroke="black" d="M464.92,-91.53C454.71,-87.64 443.45,-83.51 433,-80 393.86,-66.85 348.39,-53.75 317.26,-45.1"/>
<polygon fill="black" stroke="black" points="317.85,-41.64 307.28,-42.35 315.99,-48.38 317.85,-41.64"/>
</g>
<!-- CoreAddresses::assert_diem_root&#45;&gt;Signer::address_of -->
<g id="edge17" class="edge">
<title>CoreAddresses::assert_diem_root&#45;&gt;Signer::address_of</title>
<path fill="none" stroke="black" d="M760.41,-167.61C748.92,-164.07 736.86,-159.84 726,-155 709.13,-147.48 691.46,-137.02 677.11,-127.78"/>
<polygon fill="black" stroke="black" points="678.93,-124.79 668.65,-122.22 675.09,-130.64 678.93,-124.79"/>
</g>
<!-- CoreAddresses::assert_diem_root&#45;&gt;Errors::requires_address -->
<g id="edge18" class="edge">
<title>CoreAddresses::assert_diem_root&#45;&gt;Errors::requires_address</title>
<path fill="none" stroke="black" d="M737.48,-179.28C644.58,-177.65 487.82,-172.33 433,-155 415.13,-149.35 397.13,-138.87 382.83,-129.14"/>
<polygon fill="black" stroke="black" points="384.63,-126.13 374.44,-123.23 380.6,-131.85 384.63,-126.13"/>
</g>
<!-- CoreAddresses::assert_diem_root&#45;&gt;CoreAddresses::DIEM_ROOT_ADDRESS -->
<g id="edge19" class="edge">
<title>CoreAddresses::assert_diem_root&#45;&gt;CoreAddresses::DIEM_ROOT_ADDRESS</title>
<path fill="none" stroke="black" d="M817.35,-163.07C821.73,-154.2 827.18,-143.13 832.09,-133.18"/>
<polygon fill="black" stroke="black" points="835.29,-134.61 836.57,-124.09 829.01,-131.51 835.29,-134.61"/>
</g>
</g>
</svg>
