<?xml version="1.0" encoding="UTF-8" standalone="no"?>
<!DOCTYPE svg PUBLIC "-//W3C//DTD SVG 1.1//EN"
 "http://www.w3.org/Graphics/SVG/1.1/DTD/svg11.dtd">
<!-- Generated by graphviz version 2.46.1 (20210213.1702)
 -->
<!-- Title: G Pages: 1 -->
<svg width="398pt" height="210pt"
 viewBox="0.00 0.00 398.00 210.00" xmlns="http://www.w3.org/2000/svg" xmlns:xlink="http://www.w3.org/1999/xlink">
<g id="graph0" class="graph" transform="scale(1 1) rotate(0) translate(4 206)">
<title>G</title>
<polygon fill="white" stroke="transparent" points="-4,4 -4,-206 394,-206 394,4 -4,4"/>
<g id="clust1" class="cluster">
<title>cluster_Errors</title>
<polygon fill="none" stroke="black" points="8,-8 8,-158 144,-158 144,-8 8,-8"/>
<text text-anchor="middle" x="76" y="-142.8" font-family="Times,serif" font-size="14.00">Errors</text>
</g>
<g id="clust2" class="cluster">
<title>cluster_CoreAddresses</title>
<polygon fill="none" stroke="black" points="152,-8 152,-83 382,-83 382,-8 152,-8"/>
<text text-anchor="middle" x="267" y="-67.8" font-family="Times,serif" font-size="14.00">CoreAddresses</text>
</g>
<!-- get_current_block_height -->
<g id="node1" class="node">
<title>get_current_block_height</title>
<ellipse fill="none" stroke="black" cx="183" cy="-184" rx="100.98" ry="18"/>
<text text-anchor="middle" x="183" y="-180.3" font-family="Times,serif" font-size="14.00">get_current_block_height</text>
</g>
<!-- Errors::not_published -->
<g id="node2" class="node">
<title>Errors::not_published</title>
<ellipse fill="none" stroke="black" cx="76" cy="-109" rx="60.39" ry="18"/>
<text text-anchor="middle" x="76" y="-105.3" font-family="Times,serif" font-size="14.00">not_published</text>
</g>
<!-- get_current_block_height&#45;&gt;Errors::not_published -->
<g id="edge1" class="edge">
<title>get_current_block_height&#45;&gt;Errors::not_published</title>
<path fill="none" stroke="black" d="M158.72,-166.44C143.63,-156.14 124.07,-142.8 107.76,-131.67"/>
<polygon fill="black" stroke="black" points="109.32,-128.49 99.08,-125.75 105.37,-134.28 109.32,-128.49"/>
</g>
<!-- CoreAddresses::DIEM_ROOT_ADDRESS -->
<g id="node3" class="node">
<title>CoreAddresses::DIEM_ROOT_ADDRESS</title>
<ellipse fill="none" stroke="black" cx="267" cy="-34" rx="106.68" ry="18"/>
<text text-anchor="middle" x="267" y="-30.3" font-family="Times,serif" font-size="14.00">DIEM_ROOT_ADDRESS</text>
</g>
<!-- get_current_block_height&#45;&gt;CoreAddresses::DIEM_ROOT_ADDRESS -->
<g id="edge2" class="edge">
<title>get_current_block_height&#45;&gt;CoreAddresses::DIEM_ROOT_ADDRESS</title>
<path fill="none" stroke="black" d="M183.29,-165.89C184.31,-146.47 188.19,-114.48 202,-91 209.53,-78.19 221.07,-66.86 232.34,-57.8"/>
<polygon fill="black" stroke="black" points="234.62,-60.46 240.45,-51.61 230.37,-54.9 234.62,-60.46"/>
</g>
<!-- is_initialized -->
<g id="node4" class="node">
<title>is_initialized</title>
<ellipse fill="none" stroke="black" cx="267" cy="-109" rx="55.79" ry="18"/>
<text text-anchor="middle" x="267" y="-105.3" font-family="Times,serif" font-size="14.00">is_initialized</text>
</g>
<!-- get_current_block_height&#45;&gt;is_initialized -->
<g id="edge3" class="edge">
<title>get_current_block_height&#45;&gt;is_initialized</title>
<path fill="none" stroke="black" d="M202.48,-166.07C213.85,-156.19 228.35,-143.59 240.72,-132.84"/>
<polygon fill="black" stroke="black" points="243.24,-135.29 248.49,-126.09 238.64,-130.01 243.24,-135.29"/>
</g>
<!-- Errors::make -->
<g id="node5" class="node">
<title>Errors::make</title>
<ellipse fill="none" stroke="black" cx="76" cy="-34" rx="30.59" ry="18"/>
<text text-anchor="middle" x="76" y="-30.3" font-family="Times,serif" font-size="14.00">make</text>
</g>
<!-- Errors::not_published&#45;&gt;Errors::make -->
<g id="edge4" class="edge">
<title>Errors::not_published&#45;&gt;Errors::make</title>
<path fill="none" stroke="black" d="M76,-90.7C76,-82.25 76,-71.87 76,-62.37"/>
<polygon fill="black" stroke="black" points="79.5,-62.18 76,-52.18 72.5,-62.18 79.5,-62.18"/>
</g>
<!-- is_initialized&#45;&gt;CoreAddresses::DIEM_ROOT_ADDRESS -->
<g id="edge5" class="edge">
<title>is_initialized&#45;&gt;CoreAddresses::DIEM_ROOT_ADDRESS</title>
<path fill="none" stroke="black" d="M267,-90.7C267,-82.25 267,-71.87 267,-62.37"/>
<polygon fill="black" stroke="black" points="270.5,-62.18 267,-52.18 263.5,-62.18 270.5,-62.18"/>
</g>
</g>
</svg>
