<?xml version="1.0" encoding="UTF-8" standalone="no"?>
<!DOCTYPE svg PUBLIC "-//W3C//DTD SVG 1.1//EN"
 "http://www.w3.org/Graphics/SVG/1.1/DTD/svg11.dtd">
<!-- Generated by graphviz version 2.46.1 (20210213.1702)
 -->
<!-- Title: G Pages: 1 -->
<svg width="1985pt" height="692pt"
 viewBox="0.00 0.00 1984.95 692.00" xmlns="http://www.w3.org/2000/svg" xmlns:xlink="http://www.w3.org/1999/xlink">
<g id="graph0" class="graph" transform="scale(1 1) rotate(0) translate(4 688)">
<title>G</title>
<polygon fill="white" stroke="transparent" points="-4,4 -4,-688 1980.95,-688 1980.95,4 -4,4"/>
<!-- DiemTimestamp -->
<g id="node1" class="node">
<title>DiemTimestamp</title>
<ellipse fill="none" stroke="black" cx="1034" cy="-18" rx="71.49" ry="18"/>
<text text-anchor="middle" x="1034" y="-14.3" font-family="Times,serif" font-size="14.00">DiemTimestamp</text>
</g>
<!-- Roles -->
<g id="node2" class="node">
<title>Roles</title>
<ellipse fill="none" stroke="black" cx="1224" cy="-90" rx="30.59" ry="18"/>
<text text-anchor="middle" x="1224" y="-86.3" font-family="Times,serif" font-size="14.00">Roles</text>
</g>
<!-- Roles&#45;&gt;DiemTimestamp -->
<g id="edge1" class="edge">
<title>Roles&#45;&gt;DiemTimestamp</title>
<path fill="none" stroke="black" d="M1198.77,-79.7C1169.12,-68.78 1119.25,-50.41 1082.13,-36.73"/>
<polygon fill="black" stroke="black" points="1083.1,-33.36 1072.51,-33.19 1080.68,-39.93 1083.1,-33.36"/>
</g>
<!-- DiemConfig -->
<g id="node3" class="node">
<title>DiemConfig</title>
<ellipse fill="none" stroke="black" cx="707" cy="-162" rx="54.69" ry="18"/>
<text text-anchor="middle" x="707" y="-158.3" font-family="Times,serif" font-size="14.00">DiemConfig</text>
</g>
<!-- DiemConfig&#45;&gt;DiemTimestamp -->
<g id="edge2" class="edge">
<title>DiemConfig&#45;&gt;DiemTimestamp</title>
<path fill="none" stroke="black" d="M738.65,-147.26C797.31,-121.78 923.03,-67.19 989.96,-38.12"/>
<polygon fill="black" stroke="black" points="991.61,-41.22 999.39,-34.03 988.83,-34.8 991.61,-41.22"/>
</g>
<!-- DiemConfig&#45;&gt;Roles -->
<g id="edge22" class="edge">
<title>DiemConfig&#45;&gt;Roles</title>
<path fill="none" stroke="black" d="M748.05,-150C757.2,-147.8 766.9,-145.65 776,-144 925.04,-116.93 1104.58,-100.51 1183.47,-94.1"/>
<polygon fill="black" stroke="black" points="1184.24,-97.55 1193.93,-93.26 1183.68,-90.57 1184.24,-97.55"/>
</g>
<!-- RegisteredCurrencies -->
<g id="node4" class="node">
<title>RegisteredCurrencies</title>
<ellipse fill="none" stroke="black" cx="1034" cy="-234" rx="86.38" ry="18"/>
<text text-anchor="middle" x="1034" y="-230.3" font-family="Times,serif" font-size="14.00">RegisteredCurrencies</text>
</g>
<!-- RegisteredCurrencies&#45;&gt;DiemTimestamp -->
<g id="edge3" class="edge">
<title>RegisteredCurrencies&#45;&gt;DiemTimestamp</title>
<path fill="none" stroke="black" d="M1034,-215.85C1034,-178.83 1034,-91.18 1034,-46.39"/>
<polygon fill="black" stroke="black" points="1037.5,-46.23 1034,-36.23 1030.5,-46.23 1037.5,-46.23"/>
</g>
<!-- RegisteredCurrencies&#45;&gt;Roles -->
<g id="edge23" class="edge">
<title>RegisteredCurrencies&#45;&gt;Roles</title>
<path fill="none" stroke="black" d="M1064.51,-216.98C1082.39,-207.13 1105.1,-193.78 1124,-180 1152.52,-159.22 1182.39,-131.78 1201.97,-112.89"/>
<polygon fill="black" stroke="black" points="1204.48,-115.34 1209.2,-105.85 1199.59,-110.32 1204.48,-115.34"/>
</g>
<!-- RegisteredCurrencies&#45;&gt;DiemConfig -->
<g id="edge38" class="edge">
<title>RegisteredCurrencies&#45;&gt;DiemConfig</title>
<path fill="none" stroke="black" d="M975.92,-220.57C915.19,-207.57 820.65,-187.33 761.36,-174.64"/>
<polygon fill="black" stroke="black" points="761.95,-171.18 751.44,-172.51 760.48,-178.03 761.95,-171.18"/>
</g>
<!-- Diem -->
<g id="node5" class="node">
<title>Diem</title>
<ellipse fill="none" stroke="black" cx="1093" cy="-306" rx="30.59" ry="18"/>
<text text-anchor="middle" x="1093" y="-302.3" font-family="Times,serif" font-size="14.00">Diem</text>
</g>
<!-- Diem&#45;&gt;DiemTimestamp -->
<g id="edge4" class="edge">
<title>Diem&#45;&gt;DiemTimestamp</title>
<path fill="none" stroke="black" d="M1107.12,-289.62C1115.25,-279.69 1124.68,-266.03 1129,-252 1133.7,-236.71 1132.56,-231.6 1129,-216 1113.95,-150.14 1073.93,-80.67 1050.92,-44.42"/>
<polygon fill="black" stroke="black" points="1053.82,-42.45 1045.46,-35.94 1047.93,-46.24 1053.82,-42.45"/>
</g>
<!-- Diem&#45;&gt;Roles -->
<g id="edge24" class="edge">
<title>Diem&#45;&gt;Roles</title>
<path fill="none" stroke="black" d="M1114.22,-293.05C1129.34,-283.61 1149.16,-269.18 1162,-252 1178.41,-230.04 1203.05,-157.16 1215.77,-117.41"/>
<polygon fill="black" stroke="black" points="1219.11,-118.43 1218.8,-107.84 1212.44,-116.31 1219.11,-118.43"/>
</g>
<!-- Diem&#45;&gt;RegisteredCurrencies -->
<g id="edge45" class="edge">
<title>Diem&#45;&gt;RegisteredCurrencies</title>
<path fill="none" stroke="black" d="M1079.91,-289.46C1072.59,-280.78 1063.29,-269.75 1054.98,-259.89"/>
<polygon fill="black" stroke="black" points="1057.42,-257.35 1048.3,-251.96 1052.06,-261.86 1057.42,-257.35"/>
</g>
<!-- AccountLimits -->
<g id="node6" class="node">
<title>AccountLimits</title>
<ellipse fill="none" stroke="black" cx="1358" cy="-306" rx="63.89" ry="18"/>
<text text-anchor="middle" x="1358" y="-302.3" font-family="Times,serif" font-size="14.00">AccountLimits</text>
</g>
<!-- AccountLimits&#45;&gt;DiemTimestamp -->
<g id="edge5" class="edge">
<title>AccountLimits&#45;&gt;DiemTimestamp</title>
<path fill="none" stroke="black" d="M1405.83,-294.03C1428.19,-286.25 1452.74,-273.27 1466,-252 1508.31,-184.1 1519.01,-131.91 1466,-72 1443.07,-46.09 1231.81,-30.12 1113.45,-23.14"/>
<polygon fill="black" stroke="black" points="1113.53,-19.64 1103.34,-22.55 1113.12,-26.62 1113.53,-19.64"/>
</g>
<!-- AccountLimits&#45;&gt;Roles -->
<g id="edge25" class="edge">
<title>AccountLimits&#45;&gt;Roles</title>
<path fill="none" stroke="black" d="M1357.45,-287.88C1355.6,-256.31 1347.7,-188.08 1314,-144 1300.06,-125.76 1277.89,-112.6 1259.05,-103.95"/>
<polygon fill="black" stroke="black" points="1260.4,-100.73 1249.84,-99.96 1257.62,-107.15 1260.4,-100.73"/>
</g>
<!-- XUS -->
<g id="node7" class="node">
<title>XUS</title>
<ellipse fill="none" stroke="black" cx="1004" cy="-378" rx="28.7" ry="18"/>
<text text-anchor="middle" x="1004" y="-374.3" font-family="Times,serif" font-size="14.00">XUS</text>
</g>
<!-- XUS&#45;&gt;DiemTimestamp -->
<g id="edge6" class="edge">
<title>XUS&#45;&gt;DiemTimestamp</title>
<path fill="none" stroke="black" d="M975.02,-377.33C842.94,-378.15 299.93,-373.97 198,-252 187.74,-239.72 194.41,-231.59 198,-216 218.8,-125.63 260.87,-100.85 349,-72 459.09,-35.96 796.46,-24.1 952.84,-20.47"/>
<polygon fill="black" stroke="black" points="952.96,-23.97 962.88,-20.25 952.8,-16.97 952.96,-23.97"/>
</g>
<!-- XUS&#45;&gt;Diem -->
<g id="edge46" class="edge">
<title>XUS&#45;&gt;Diem</title>
<path fill="none" stroke="black" d="M1021.16,-363.5C1034.17,-353.27 1052.26,-339.04 1067.03,-327.42"/>
<polygon fill="black" stroke="black" points="1069.59,-329.87 1075.28,-320.93 1065.26,-324.37 1069.59,-329.87"/>
</g>
<!-- XUS&#45;&gt;AccountLimits -->
<g id="edge54" class="edge">
<title>XUS&#45;&gt;AccountLimits</title>
<path fill="none" stroke="black" d="M1030.9,-371.68C1087.34,-360.52 1219.33,-334.42 1297.31,-319"/>
<polygon fill="black" stroke="black" points="1298.34,-322.37 1307.47,-316.99 1296.98,-315.5 1298.34,-322.37"/>
</g>
<!-- XDX -->
<g id="node8" class="node">
<title>XDX</title>
<ellipse fill="none" stroke="black" cx="1272" cy="-378" rx="29.8" ry="18"/>
<text text-anchor="middle" x="1272" y="-374.3" font-family="Times,serif" font-size="14.00">XDX</text>
</g>
<!-- XDX&#45;&gt;DiemTimestamp -->
<g id="edge7" class="edge">
<title>XDX&#45;&gt;DiemTimestamp</title>
<path fill="none" stroke="black" d="M1271.86,-359.87C1272.3,-341.4 1274.75,-311.47 1285,-288 1293.22,-269.17 1307.17,-271.38 1314,-252 1329.96,-206.73 1328.35,-189.81 1314,-144 1302.36,-106.82 1296.26,-93.84 1264,-72 1219.82,-42.09 1161.09,-28.89 1114.03,-23.15"/>
<polygon fill="black" stroke="black" points="1114.2,-19.65 1103.87,-22 1113.42,-26.6 1114.2,-19.65"/>
</g>
<!-- XDX&#45;&gt;Diem -->
<g id="edge47" class="edge">
<title>XDX&#45;&gt;Diem</title>
<path fill="none" stroke="black" d="M1247.49,-367.41C1216.33,-355.23 1162.37,-334.13 1127.19,-320.37"/>
<polygon fill="black" stroke="black" points="1128.38,-317.08 1117.79,-316.7 1125.83,-323.6 1128.38,-317.08"/>
</g>
<!-- XDX&#45;&gt;AccountLimits -->
<g id="edge55" class="edge">
<title>XDX&#45;&gt;AccountLimits</title>
<path fill="none" stroke="black" d="M1288.99,-363.17C1300.67,-353.67 1316.44,-340.83 1329.96,-329.83"/>
<polygon fill="black" stroke="black" points="1332.48,-332.28 1338.03,-323.26 1328.06,-326.86 1332.48,-332.28"/>
</g>
<!-- ValidatorOperatorConfig -->
<g id="node9" class="node">
<title>ValidatorOperatorConfig</title>
<ellipse fill="none" stroke="black" cx="1692" cy="-162" rx="98.28" ry="18"/>
<text text-anchor="middle" x="1692" y="-158.3" font-family="Times,serif" font-size="14.00">ValidatorOperatorConfig</text>
</g>
<!-- ValidatorOperatorConfig&#45;&gt;DiemTimestamp -->
<g id="edge8" class="edge">
<title>ValidatorOperatorConfig&#45;&gt;DiemTimestamp</title>
<path fill="none" stroke="black" d="M1676.88,-144.08C1656.98,-123.09 1619.84,-88.1 1580,-72 1497.79,-38.77 1246.3,-25.84 1115.29,-21.26"/>
<polygon fill="black" stroke="black" points="1115.03,-17.75 1104.91,-20.91 1114.79,-24.75 1115.03,-17.75"/>
</g>
<!-- ValidatorOperatorConfig&#45;&gt;Roles -->
<g id="edge26" class="edge">
<title>ValidatorOperatorConfig&#45;&gt;Roles</title>
<path fill="none" stroke="black" d="M1618.62,-150.02C1518.17,-135 1341.42,-108.56 1263.17,-96.86"/>
<polygon fill="black" stroke="black" points="1263.65,-93.39 1253.24,-95.37 1262.61,-100.31 1263.65,-93.39"/>
</g>
<!-- ValidatorConfig -->
<g id="node10" class="node">
<title>ValidatorConfig</title>
<ellipse fill="none" stroke="black" cx="1688" cy="-234" rx="66.89" ry="18"/>
<text text-anchor="middle" x="1688" y="-230.3" font-family="Times,serif" font-size="14.00">ValidatorConfig</text>
</g>
<!-- ValidatorConfig&#45;&gt;DiemTimestamp -->
<g id="edge9" class="edge">
<title>ValidatorConfig&#45;&gt;DiemTimestamp</title>
<path fill="none" stroke="black" d="M1738.27,-221.98C1760.92,-214.24 1785.56,-201.31 1799,-180 1807.54,-166.47 1807.93,-157.28 1799,-144 1723.71,-32.09 1297.26,-18.8 1115.77,-18.3"/>
<polygon fill="black" stroke="black" points="1115.74,-14.8 1105.74,-18.28 1115.73,-21.8 1115.74,-14.8"/>
</g>
<!-- ValidatorConfig&#45;&gt;Roles -->
<g id="edge27" class="edge">
<title>ValidatorConfig&#45;&gt;Roles</title>
<path fill="none" stroke="black" d="M1658.81,-217.71C1615.17,-195.06 1534.75,-154.15 1504,-144 1421.02,-116.61 1319.27,-101.79 1264.14,-95.23"/>
<polygon fill="black" stroke="black" points="1264.41,-91.74 1254.08,-94.06 1263.61,-98.69 1264.41,-91.74"/>
</g>
<!-- ValidatorConfig&#45;&gt;ValidatorOperatorConfig -->
<g id="edge66" class="edge">
<title>ValidatorConfig&#45;&gt;ValidatorOperatorConfig</title>
<path fill="none" stroke="black" d="M1688.99,-215.7C1689.43,-207.98 1689.96,-198.71 1690.45,-190.11"/>
<polygon fill="black" stroke="black" points="1693.95,-190.29 1691.02,-180.1 1686.96,-189.89 1693.95,-190.29"/>
</g>
<!-- VASP -->
<g id="node11" class="node">
<title>VASP</title>
<ellipse fill="none" stroke="black" cx="1504" cy="-378" rx="32.49" ry="18"/>
<text text-anchor="middle" x="1504" y="-374.3" font-family="Times,serif" font-size="14.00">VASP</text>
</g>
<!-- VASP&#45;&gt;DiemTimestamp -->
<g id="edge10" class="edge">
<title>VASP&#45;&gt;DiemTimestamp</title>
<path fill="none" stroke="black" d="M1533.67,-370.24C1622.77,-348.37 1878.16,-273.33 1816,-144 1793.81,-97.83 1773.65,-90.79 1726,-72 1616.93,-28.99 1273.81,-20.75 1115.5,-19.26"/>
<polygon fill="black" stroke="black" points="1115.37,-15.76 1105.34,-19.17 1115.31,-22.76 1115.37,-15.76"/>
</g>
<!-- VASP&#45;&gt;Roles -->
<g id="edge28" class="edge">
<title>VASP&#45;&gt;Roles</title>
<path fill="none" stroke="black" d="M1491.19,-361.15C1476.7,-343.28 1452.34,-313.4 1431,-288 1417.41,-271.84 1412.26,-269.19 1400,-252 1367.73,-206.76 1378.01,-181.5 1337,-144 1315.31,-124.17 1284.89,-110.48 1261.07,-101.98"/>
<polygon fill="black" stroke="black" points="1261.91,-98.57 1251.31,-98.66 1259.65,-105.2 1261.91,-98.57"/>
</g>
<!-- VASP&#45;&gt;AccountLimits -->
<g id="edge56" class="edge">
<title>VASP&#45;&gt;AccountLimits</title>
<path fill="none" stroke="black" d="M1480.22,-365.6C1458.05,-354.97 1424.56,-338.91 1398.23,-326.29"/>
<polygon fill="black" stroke="black" points="1399.42,-322.98 1388.89,-321.81 1396.4,-329.29 1399.42,-322.98"/>
</g>
<!-- TransactionFee -->
<g id="node12" class="node">
<title>TransactionFee</title>
<ellipse fill="none" stroke="black" cx="911" cy="-450" rx="64.99" ry="18"/>
<text text-anchor="middle" x="911" y="-446.3" font-family="Times,serif" font-size="14.00">TransactionFee</text>
</g>
<!-- TransactionFee&#45;&gt;DiemTimestamp -->
<g id="edge11" class="edge">
<title>TransactionFee&#45;&gt;DiemTimestamp</title>
<path fill="none" stroke="black" d="M850.82,-443.19C706.88,-428.45 347.07,-386.25 245,-324 198.84,-295.85 182.75,-269.71 189,-216 197.32,-144.53 199.34,-105.54 263,-72 322.85,-40.47 766.95,-25.72 952.7,-20.89"/>
<polygon fill="black" stroke="black" points="953.04,-24.38 962.95,-20.62 952.86,-17.38 953.04,-24.38"/>
</g>
<!-- TransactionFee&#45;&gt;Roles -->
<g id="edge29" class="edge">
<title>TransactionFee&#45;&gt;Roles</title>
<path fill="none" stroke="black" d="M951.65,-435.94C978.25,-426.59 1013.27,-412.72 1042,-396 1086.58,-370.07 1097.34,-361.26 1133,-324 1183.18,-271.57 1192.39,-250.41 1210,-180 1215.12,-159.55 1218.73,-135.96 1221,-118.21"/>
<polygon fill="black" stroke="black" points="1224.48,-118.59 1222.21,-108.24 1217.53,-117.75 1224.48,-118.59"/>
</g>
<!-- TransactionFee&#45;&gt;Diem -->
<g id="edge48" class="edge">
<title>TransactionFee&#45;&gt;Diem</title>
<path fill="none" stroke="black" d="M917.64,-432.04C926.14,-412.3 942.62,-379.89 966,-360 997.88,-332.89 1014.41,-340.18 1053,-324 1055.17,-323.09 1057.41,-322.15 1059.66,-321.2"/>
<polygon fill="black" stroke="black" points="1061.06,-324.41 1068.9,-317.29 1058.33,-317.96 1061.06,-324.41"/>
</g>
<!-- TransactionFee&#45;&gt;XUS -->
<g id="edge58" class="edge">
<title>TransactionFee&#45;&gt;XUS</title>
<path fill="none" stroke="black" d="M932.57,-432.76C946.21,-422.5 963.9,-409.18 978.27,-398.37"/>
<polygon fill="black" stroke="black" points="980.4,-401.14 986.29,-392.33 976.19,-395.55 980.4,-401.14"/>
</g>
<!-- TransactionFee&#45;&gt;XDX -->
<g id="edge62" class="edge">
<title>TransactionFee&#45;&gt;XDX</title>
<path fill="none" stroke="black" d="M962.72,-438.97C1036.19,-424.72 1169.05,-398.96 1234.08,-386.35"/>
<polygon fill="black" stroke="black" points="1234.76,-389.79 1243.91,-384.45 1233.43,-382.91 1234.76,-389.79"/>
</g>
<!-- DualAttestation -->
<g id="node13" class="node">
<title>DualAttestation</title>
<ellipse fill="none" stroke="black" cx="1566" cy="-450" rx="66.09" ry="18"/>
<text text-anchor="middle" x="1566" y="-446.3" font-family="Times,serif" font-size="14.00">DualAttestation</text>
</g>
<!-- DualAttestation&#45;&gt;DiemTimestamp -->
<g id="edge12" class="edge">
<title>DualAttestation&#45;&gt;DiemTimestamp</title>
<path fill="none" stroke="black" d="M1615.84,-437.95C1625.81,-435.87 1636.22,-433.79 1646,-432 1697.97,-422.51 1842.57,-432.25 1881,-396 1910.42,-368.25 1900,-347.45 1900,-307 1900,-307 1900,-307 1900,-161 1900,-91.71 1837.33,-95.08 1772,-72 1652.92,-29.93 1281.37,-21.22 1115.45,-19.44"/>
<polygon fill="black" stroke="black" points="1115.33,-15.94 1105.3,-19.34 1115.26,-22.94 1115.33,-15.94"/>
</g>
<!-- DualAttestation&#45;&gt;Roles -->
<g id="edge30" class="edge">
<title>DualAttestation&#45;&gt;Roles</title>
<path fill="none" stroke="black" d="M1564.33,-431.8C1562,-413.26 1556.67,-383.28 1545,-360 1516.94,-304.01 1415.57,-179.53 1364,-144 1323.72,-116.25 1305.29,-126.47 1260,-108 1258.64,-107.45 1257.26,-106.87 1255.87,-106.27"/>
<polygon fill="black" stroke="black" points="1257.25,-103.05 1246.69,-102.17 1254.39,-109.44 1257.25,-103.05"/>
</g>
<!-- DualAttestation&#45;&gt;Diem -->
<g id="edge49" class="edge">
<title>DualAttestation&#45;&gt;Diem</title>
<path fill="none" stroke="black" d="M1529.2,-434.89C1479.96,-416.3 1389.7,-383.24 1311,-360 1248.75,-341.62 1175.17,-324.71 1131.39,-315.15"/>
<polygon fill="black" stroke="black" points="1131.97,-311.69 1121.45,-312.99 1130.48,-318.53 1131.97,-311.69"/>
</g>
<!-- DualAttestation&#45;&gt;XDX -->
<g id="edge63" class="edge">
<title>DualAttestation&#45;&gt;XDX</title>
<path fill="none" stroke="black" d="M1517.78,-437.52C1459.44,-423.63 1362.47,-400.54 1309.45,-387.92"/>
<polygon fill="black" stroke="black" points="1309.99,-384.45 1299.45,-385.54 1308.37,-391.26 1309.99,-384.45"/>
</g>
<!-- DualAttestation&#45;&gt;VASP -->
<g id="edge72" class="edge">
<title>DualAttestation&#45;&gt;VASP</title>
<path fill="none" stroke="black" d="M1551.31,-432.41C1543.28,-423.35 1533.22,-411.99 1524.44,-402.08"/>
<polygon fill="black" stroke="black" points="1526.99,-399.68 1517.74,-394.51 1521.75,-404.32 1526.99,-399.68"/>
</g>
<!-- DiemTransactionPublishingOption -->
<g id="node14" class="node">
<title>DiemTransactionPublishingOption</title>
<ellipse fill="none" stroke="black" cx="548" cy="-234" rx="133.78" ry="18"/>
<text text-anchor="middle" x="548" y="-230.3" font-family="Times,serif" font-size="14.00">DiemTransactionPublishingOption</text>
</g>
<!-- DiemTransactionPublishingOption&#45;&gt;DiemTimestamp -->
<g id="edge13" class="edge">
<title>DiemTransactionPublishingOption&#45;&gt;DiemTimestamp</title>
<path fill="none" stroke="black" d="M551.89,-215.68C557.28,-195.6 568.97,-162.86 591,-144 694.5,-55.43 856.59,-29.39 953.35,-21.88"/>
<polygon fill="black" stroke="black" points="953.65,-25.36 963.37,-21.15 953.14,-18.38 953.65,-25.36"/>
</g>
<!-- DiemTransactionPublishingOption&#45;&gt;Roles -->
<g id="edge31" class="edge">
<title>DiemTransactionPublishingOption&#45;&gt;Roles</title>
<path fill="none" stroke="black" d="M560.23,-216.05C576.49,-195.03 607.33,-160.01 643,-144 739.78,-100.56 1067.14,-92.73 1182.97,-91.31"/>
<polygon fill="black" stroke="black" points="1183.23,-94.81 1193.19,-91.2 1183.15,-87.81 1183.23,-94.81"/>
</g>
<!-- DiemTransactionPublishingOption&#45;&gt;DiemConfig -->
<g id="edge39" class="edge">
<title>DiemTransactionPublishingOption&#45;&gt;DiemConfig</title>
<path fill="none" stroke="black" d="M585.28,-216.59C609.61,-205.87 641.39,-191.89 666.37,-180.89"/>
<polygon fill="black" stroke="black" points="667.84,-184.07 675.58,-176.83 665.02,-177.66 667.84,-184.07"/>
</g>
<!-- ChainId -->
<g id="node15" class="node">
<title>ChainId</title>
<ellipse fill="none" stroke="black" cx="243" cy="-450" rx="38.99" ry="18"/>
<text text-anchor="middle" x="243" y="-446.3" font-family="Times,serif" font-size="14.00">ChainId</text>
</g>
<!-- ChainId&#45;&gt;DiemTimestamp -->
<g id="edge14" class="edge">
<title>ChainId&#45;&gt;DiemTimestamp</title>
<path fill="none" stroke="black" d="M208.22,-441.73C149.74,-427.23 38,-388.83 38,-307 38,-307 38,-307 38,-161 38,-118.5 38.55,-96.89 73,-72 143.37,-21.16 732.84,-17.94 952.19,-18.52"/>
<polygon fill="black" stroke="black" points="952.34,-22.02 962.36,-18.55 952.37,-15.02 952.34,-22.02"/>
</g>
<!-- AccountFreezing -->
<g id="node16" class="node">
<title>AccountFreezing</title>
<ellipse fill="none" stroke="black" cx="1759" cy="-450" rx="71.49" ry="18"/>
<text text-anchor="middle" x="1759" y="-446.3" font-family="Times,serif" font-size="14.00">AccountFreezing</text>
</g>
<!-- AccountFreezing&#45;&gt;DiemTimestamp -->
<g id="edge15" class="edge">
<title>AccountFreezing&#45;&gt;DiemTimestamp</title>
<path fill="none" stroke="black" d="M1829.14,-446.51C1870.1,-441.38 1919.89,-428.26 1952,-396 1980.9,-366.96 1976,-347.97 1976,-307 1976,-307 1976,-307 1976,-161 1976,-120.03 1983.79,-97.84 1952,-72 1887.97,-19.96 1328.66,-17.41 1115.78,-18.35"/>
<polygon fill="black" stroke="black" points="1115.59,-14.85 1105.6,-18.4 1115.62,-21.85 1115.59,-14.85"/>
</g>
<!-- AccountFreezing&#45;&gt;Roles -->
<g id="edge33" class="edge">
<title>AccountFreezing&#45;&gt;Roles</title>
<path fill="none" stroke="black" d="M1710.1,-436.75C1682.3,-428.24 1647.8,-414.99 1621,-396 1559.87,-352.68 1461.08,-182.83 1397,-144 1355.19,-118.66 1300.27,-104.54 1263.64,-97.37"/>
<polygon fill="black" stroke="black" points="1263.83,-93.84 1253.36,-95.44 1262.54,-100.72 1263.83,-93.84"/>
</g>
<!-- DiemAccount -->
<g id="node17" class="node">
<title>DiemAccount</title>
<ellipse fill="none" stroke="black" cx="1288" cy="-522" rx="60.39" ry="18"/>
<text text-anchor="middle" x="1288" y="-518.3" font-family="Times,serif" font-size="14.00">DiemAccount</text>
</g>
<!-- DiemAccount&#45;&gt;DiemTimestamp -->
<g id="edge16" class="edge">
<title>DiemAccount&#45;&gt;DiemTimestamp</title>
<path fill="none" stroke="black" d="M1342.14,-513.74C1437.75,-500.8 1627.7,-474.48 1641,-468 1661.91,-457.8 1658.14,-442.3 1679,-432 1769.81,-387.18 1825.4,-459.86 1904,-396 1936.86,-369.3 1938,-349.34 1938,-307 1938,-307 1938,-307 1938,-161 1938,-100.84 1891.61,-94.97 1836,-72 1770.58,-44.98 1305.1,-27.5 1114.78,-21.41"/>
<polygon fill="black" stroke="black" points="1114.66,-17.9 1104.56,-21.08 1114.44,-24.9 1114.66,-17.9"/>
</g>
<!-- DiemAccount&#45;&gt;Roles -->
<g id="edge34" class="edge">
<title>DiemAccount&#45;&gt;Roles</title>
<path fill="none" stroke="black" d="M1277.76,-503.97C1264.36,-480.6 1241.59,-436.84 1233,-396 1229.71,-380.34 1231.32,-375.91 1233,-360 1243.11,-263.99 1281.9,-237 1256,-144 1253.18,-133.86 1247.83,-123.71 1242.3,-115.06"/>
<polygon fill="black" stroke="black" points="1245.09,-112.94 1236.57,-106.64 1239.3,-116.88 1245.09,-112.94"/>
</g>
<!-- DiemAccount&#45;&gt;DiemConfig -->
<g id="edge40" class="edge">
<title>DiemAccount&#45;&gt;DiemConfig</title>
<path fill="none" stroke="black" d="M1227.51,-521.96C1114.58,-522.53 877.45,-517.58 815,-468 769.9,-432.19 727.77,-258.1 712.78,-190.2"/>
<polygon fill="black" stroke="black" points="716.16,-189.27 710.61,-180.25 709.32,-190.77 716.16,-189.27"/>
</g>
<!-- DiemAccount&#45;&gt;Diem -->
<g id="edge51" class="edge">
<title>DiemAccount&#45;&gt;Diem</title>
<path fill="none" stroke="black" d="M1228.63,-518.34C1112.12,-512.52 862.61,-496.79 837,-468 760.32,-381.79 944.49,-363.2 1053,-324 1055.36,-323.15 1057.78,-322.23 1060.21,-321.28"/>
<polygon fill="black" stroke="black" points="1061.54,-324.52 1069.48,-317.5 1058.9,-318.03 1061.54,-324.52"/>
</g>
<!-- DiemAccount&#45;&gt;AccountLimits -->
<g id="edge57" class="edge">
<title>DiemAccount&#45;&gt;AccountLimits</title>
<path fill="none" stroke="black" d="M1293.61,-503.85C1305.8,-466.58 1334.78,-378 1349.34,-333.49"/>
<polygon fill="black" stroke="black" points="1352.68,-334.53 1352.46,-323.94 1346.02,-332.35 1352.68,-334.53"/>
</g>
<!-- DiemAccount&#45;&gt;XUS -->
<g id="edge60" class="edge">
<title>DiemAccount&#45;&gt;XUS</title>
<path fill="none" stroke="black" d="M1230.1,-516.75C1161.15,-510.49 1051.67,-496.31 1023,-468 1006.87,-452.08 1002.85,-426.06 1002.44,-406.25"/>
<polygon fill="black" stroke="black" points="1005.94,-406.02 1002.52,-396 998.94,-405.97 1005.94,-406.02"/>
</g>
<!-- DiemAccount&#45;&gt;XDX -->
<g id="edge64" class="edge">
<title>DiemAccount&#45;&gt;XDX</title>
<path fill="none" stroke="black" d="M1286.07,-503.87C1283.34,-479.67 1278.33,-435.21 1275.09,-406.39"/>
<polygon fill="black" stroke="black" points="1278.53,-405.73 1273.94,-396.19 1271.58,-406.52 1278.53,-405.73"/>
</g>
<!-- DiemAccount&#45;&gt;ValidatorOperatorConfig -->
<g id="edge67" class="edge">
<title>DiemAccount&#45;&gt;ValidatorOperatorConfig</title>
<path fill="none" stroke="black" d="M1300.81,-504.26C1324.16,-474.16 1375.78,-409.4 1425,-360 1499.04,-285.69 1525.28,-275.02 1612,-216 1627.06,-205.75 1643.84,-194.59 1658.13,-185.17"/>
<polygon fill="black" stroke="black" points="1660.24,-187.97 1666.67,-179.55 1656.39,-182.12 1660.24,-187.97"/>
</g>
<!-- DiemAccount&#45;&gt;ValidatorConfig -->
<g id="edge69" class="edge">
<title>DiemAccount&#45;&gt;ValidatorConfig</title>
<path fill="none" stroke="black" d="M1316.34,-506.05C1333.37,-496.37 1354.97,-482.84 1372,-468 1419.32,-426.77 1414.55,-399.9 1463,-360 1519.64,-313.36 1596.18,-275.13 1643.79,-253.71"/>
<polygon fill="black" stroke="black" points="1645.49,-256.78 1653.21,-249.52 1642.65,-250.38 1645.49,-256.78"/>
</g>
<!-- DiemAccount&#45;&gt;VASP -->
<g id="edge73" class="edge">
<title>DiemAccount&#45;&gt;VASP</title>
<path fill="none" stroke="black" d="M1326.85,-508.09C1351.73,-498.88 1384.09,-485.12 1410,-468 1438.34,-449.27 1465.99,-421.63 1483.88,-402.13"/>
<polygon fill="black" stroke="black" points="1486.59,-404.34 1490.7,-394.57 1481.4,-399.65 1486.59,-404.34"/>
</g>
<!-- DiemAccount&#45;&gt;TransactionFee -->
<g id="edge75" class="edge">
<title>DiemAccount&#45;&gt;TransactionFee</title>
<path fill="none" stroke="black" d="M1236.48,-512.42C1176.99,-502.37 1076.24,-484.94 990,-468 983.53,-466.73 976.76,-465.35 970.04,-463.95"/>
<polygon fill="black" stroke="black" points="970.76,-460.52 960.25,-461.88 969.31,-467.37 970.76,-460.52"/>
</g>
<!-- DiemAccount&#45;&gt;DualAttestation -->
<g id="edge78" class="edge">
<title>DiemAccount&#45;&gt;DualAttestation</title>
<path fill="none" stroke="black" d="M1332.67,-509.75C1380.68,-497.66 1457.13,-478.41 1509.34,-465.27"/>
<polygon fill="black" stroke="black" points="1510.28,-468.64 1519.12,-462.8 1508.57,-461.85 1510.28,-468.64"/>
</g>
<!-- DiemAccount&#45;&gt;DiemTransactionPublishingOption -->
<g id="edge82" class="edge">
<title>DiemAccount&#45;&gt;DiemTransactionPublishingOption</title>
<path fill="none" stroke="black" d="M1228.13,-519.48C1108.71,-515.72 845.32,-503.54 763,-468 673.33,-429.29 658.4,-399.96 597,-324 581.49,-304.81 568.3,-280.03 559.53,-261.49"/>
<polygon fill="black" stroke="black" points="562.6,-259.78 555.24,-252.16 556.24,-262.71 562.6,-259.78"/>
</g>
<!-- DiemAccount&#45;&gt;ChainId -->
<g id="edge84" class="edge">
<title>DiemAccount&#45;&gt;ChainId</title>
<path fill="none" stroke="black" d="M1229.58,-517.09C1042.87,-504.58 462.86,-465.73 291.28,-454.23"/>
<polygon fill="black" stroke="black" points="291.49,-450.74 281.28,-453.56 291.03,-457.73 291.49,-450.74"/>
</g>
<!-- DiemAccount&#45;&gt;AccountFreezing -->
<g id="edge86" class="edge">
<title>DiemAccount&#45;&gt;AccountFreezing</title>
<path fill="none" stroke="black" d="M1343.13,-514.5C1418.18,-505.41 1556.6,-487.78 1674,-468 1681.14,-466.8 1688.6,-465.44 1696.01,-464.04"/>
<polygon fill="black" stroke="black" points="1696.88,-467.44 1706.04,-462.11 1695.56,-460.57 1696.88,-467.44"/>
</g>
<!-- DesignatedDealer -->
<g id="node23" class="node">
<title>DesignatedDealer</title>
<ellipse fill="none" stroke="black" cx="1105" cy="-450" rx="73.39" ry="18"/>
<text text-anchor="middle" x="1105" y="-446.3" font-family="Times,serif" font-size="14.00">DesignatedDealer</text>
</g>
<!-- DiemAccount&#45;&gt;DesignatedDealer -->
<g id="edge103" class="edge">
<title>DiemAccount&#45;&gt;DesignatedDealer</title>
<path fill="none" stroke="black" d="M1252.28,-507.34C1223.72,-496.41 1183.43,-481 1152.21,-469.06"/>
<polygon fill="black" stroke="black" points="1153.42,-465.78 1142.83,-465.47 1150.92,-472.31 1153.42,-465.78"/>
</g>
<!-- DiemSystem -->
<g id="node18" class="node">
<title>DiemSystem</title>
<ellipse fill="none" stroke="black" cx="663" cy="-306" rx="57.39" ry="18"/>
<text text-anchor="middle" x="663" y="-302.3" font-family="Times,serif" font-size="14.00">DiemSystem</text>
</g>
<!-- DiemSystem&#45;&gt;DiemTimestamp -->
<g id="edge17" class="edge">
<title>DiemSystem&#45;&gt;DiemTimestamp</title>
<path fill="none" stroke="black" d="M620.78,-293.86C611.36,-291.66 601.38,-289.56 592,-288 549.83,-281.01 237.78,-283.61 209,-252 198.23,-240.17 200.34,-229.46 209,-216 292.5,-86.2 376.08,-112.52 525,-72 671.91,-32.03 850.21,-21.82 952.06,-19.44"/>
<polygon fill="black" stroke="black" points="952.35,-22.94 962.27,-19.22 952.2,-15.94 952.35,-22.94"/>
</g>
<!-- DiemSystem&#45;&gt;Roles -->
<g id="edge35" class="edge">
<title>DiemSystem&#45;&gt;Roles</title>
<path fill="none" stroke="black" d="M684.78,-289.3C711.96,-270.21 760.29,-237.83 805,-216 937.08,-151.49 1109.08,-113.05 1185.04,-98.15"/>
<polygon fill="black" stroke="black" points="1185.95,-101.54 1195.11,-96.21 1184.62,-94.67 1185.95,-101.54"/>
</g>
<!-- DiemSystem&#45;&gt;DiemConfig -->
<g id="edge41" class="edge">
<title>DiemSystem&#45;&gt;DiemConfig</title>
<path fill="none" stroke="black" d="M673.74,-287.94C679.66,-277.84 686.66,-264.59 691,-252 697.94,-231.87 702.02,-208.09 704.32,-190.18"/>
<polygon fill="black" stroke="black" points="707.81,-190.47 705.5,-180.12 700.85,-189.65 707.81,-190.47"/>
</g>
<!-- DiemSystem&#45;&gt;ValidatorConfig -->
<g id="edge70" class="edge">
<title>DiemSystem&#45;&gt;ValidatorConfig</title>
<path fill="none" stroke="black" d="M714.52,-298.09C741.44,-294.66 774.95,-290.7 805,-288 1103.11,-261.23 1459.1,-244.5 1612.05,-238.04"/>
<polygon fill="black" stroke="black" points="1612.42,-241.53 1622.27,-237.61 1612.13,-234.54 1612.42,-241.53"/>
</g>
<!-- DiemBlock -->
<g id="node19" class="node">
<title>DiemBlock</title>
<ellipse fill="none" stroke="black" cx="268" cy="-378" rx="51.99" ry="18"/>
<text text-anchor="middle" x="268" y="-374.3" font-family="Times,serif" font-size="14.00">DiemBlock</text>
</g>
<!-- DiemBlock&#45;&gt;DiemTimestamp -->
<g id="edge18" class="edge">
<title>DiemBlock&#45;&gt;DiemTimestamp</title>
<path fill="none" stroke="black" d="M227.28,-366.62C170.92,-349.51 76,-309.63 76,-235 76,-235 76,-235 76,-161 76,-120.03 68.2,-97.83 100,-72 165.28,-18.99 736.24,-17.06 951.95,-18.26"/>
<polygon fill="black" stroke="black" points="952.24,-21.76 962.26,-18.32 952.28,-14.76 952.24,-21.76"/>
</g>
<!-- DiemBlock&#45;&gt;DiemSystem -->
<g id="edge96" class="edge">
<title>DiemBlock&#45;&gt;DiemSystem</title>
<path fill="none" stroke="black" d="M313.31,-368.97C385.07,-356.25 524.83,-331.49 604.21,-317.42"/>
<polygon fill="black" stroke="black" points="605.29,-320.78 614.53,-315.59 604.07,-313.89 605.29,-320.78"/>
</g>
<!-- DiemVMConfig -->
<g id="node20" class="node">
<title>DiemVMConfig</title>
<ellipse fill="none" stroke="black" cx="288" cy="-234" rx="69.59" ry="18"/>
<text text-anchor="middle" x="288" y="-230.3" font-family="Times,serif" font-size="14.00">DiemVMConfig</text>
</g>
<!-- DiemVMConfig&#45;&gt;DiemTimestamp -->
<g id="edge19" class="edge">
<title>DiemVMConfig&#45;&gt;DiemTimestamp</title>
<path fill="none" stroke="black" d="M312.86,-217.14C343.25,-198.19 396.6,-166.23 445,-144 530.85,-104.56 553.25,-94.5 645,-72 750.96,-46.02 876.49,-31.81 955.7,-24.8"/>
<polygon fill="black" stroke="black" points="956.42,-28.25 966.08,-23.9 955.81,-21.28 956.42,-28.25"/>
</g>
<!-- DiemVMConfig&#45;&gt;Roles -->
<g id="edge36" class="edge">
<title>DiemVMConfig&#45;&gt;Roles</title>
<path fill="none" stroke="black" d="M326.61,-218.92C383.6,-198.76 493.99,-162.12 591,-144 811.92,-102.75 1082.24,-93.59 1183.32,-91.57"/>
<polygon fill="black" stroke="black" points="1183.47,-95.06 1193.4,-91.38 1183.34,-88.07 1183.47,-95.06"/>
</g>
<!-- DiemVMConfig&#45;&gt;DiemConfig -->
<g id="edge42" class="edge">
<title>DiemVMConfig&#45;&gt;DiemConfig</title>
<path fill="none" stroke="black" d="M340.36,-222.04C350.82,-219.96 361.75,-217.85 372,-216 468.46,-198.62 581.11,-181.43 648.12,-171.54"/>
<polygon fill="black" stroke="black" points="648.68,-174.99 658.07,-170.07 647.66,-168.07 648.68,-174.99"/>
</g>
<!-- DiemVersion -->
<g id="node21" class="node">
<title>DiemVersion</title>
<ellipse fill="none" stroke="black" cx="872" cy="-234" rx="57.69" ry="18"/>
<text text-anchor="middle" x="872" y="-230.3" font-family="Times,serif" font-size="14.00">DiemVersion</text>
</g>
<!-- DiemVersion&#45;&gt;DiemTimestamp -->
<g id="edge20" class="edge">
<title>DiemVersion&#45;&gt;DiemTimestamp</title>
<path fill="none" stroke="black" d="M884.71,-216.21C913.03,-178.8 981.45,-88.42 1014.92,-44.21"/>
<polygon fill="black" stroke="black" points="1017.88,-46.1 1021.12,-36.01 1012.3,-41.87 1017.88,-46.1"/>
</g>
<!-- DiemVersion&#45;&gt;Roles -->
<g id="edge37" class="edge">
<title>DiemVersion&#45;&gt;Roles</title>
<path fill="none" stroke="black" d="M906.07,-219.26C973.49,-192.06 1123.2,-131.66 1190.31,-104.59"/>
<polygon fill="black" stroke="black" points="1191.63,-107.83 1199.6,-100.84 1189.01,-101.34 1191.63,-107.83"/>
</g>
<!-- DiemVersion&#45;&gt;DiemConfig -->
<g id="edge43" class="edge">
<title>DiemVersion&#45;&gt;DiemConfig</title>
<path fill="none" stroke="black" d="M839.01,-219C813.01,-207.97 776.61,-192.53 748.62,-180.65"/>
<polygon fill="black" stroke="black" points="749.67,-177.3 739.09,-176.62 746.93,-183.74 749.67,-177.3"/>
</g>
<!-- Genesis -->
<g id="node22" class="node">
<title>Genesis</title>
<ellipse fill="none" stroke="black" cx="625" cy="-594" rx="38.19" ry="18"/>
<text text-anchor="middle" x="625" y="-590.3" font-family="Times,serif" font-size="14.00">Genesis</text>
</g>
<!-- Genesis&#45;&gt;DiemTimestamp -->
<g id="edge21" class="edge">
<title>Genesis&#45;&gt;DiemTimestamp</title>
<path fill="none" stroke="black" d="M586.38,-592.53C450.11,-589.86 0,-571.87 0,-451 0,-451 0,-451 0,-161 0,-117.63 4.23,-96.52 40,-72 114.36,-21.03 727.91,-17.94 952.25,-18.54"/>
<polygon fill="black" stroke="black" points="952.31,-22.04 962.32,-18.57 952.33,-15.04 952.31,-22.04"/>
</g>
<!-- Genesis&#45;&gt;DiemConfig -->
<g id="edge44" class="edge">
<title>Genesis&#45;&gt;DiemConfig</title>
<path fill="none" stroke="black" d="M587.25,-590.11C547.35,-585.35 484.31,-572.84 441,-540 403.95,-511.9 386,-497.5 386,-451 386,-451 386,-451 386,-305 386,-264.55 375.88,-244.07 405,-216 422.15,-199.46 563.02,-180.14 646.17,-170.01"/>
<polygon fill="black" stroke="black" points="646.75,-173.46 656.26,-168.79 645.91,-166.51 646.75,-173.46"/>
</g>
<!-- Genesis&#45;&gt;Diem -->
<g id="edge52" class="edge">
<title>Genesis&#45;&gt;Diem</title>
<path fill="none" stroke="black" d="M633.69,-576.35C643.78,-557.76 661.55,-527.24 681,-504 741.97,-431.13 753.57,-401.57 839,-360 925.73,-317.8 960.42,-351.05 1053,-324 1055.41,-323.3 1057.87,-322.49 1060.32,-321.62"/>
<polygon fill="black" stroke="black" points="1061.58,-324.88 1069.65,-318.01 1059.06,-318.35 1061.58,-324.88"/>
</g>
<!-- Genesis&#45;&gt;XUS -->
<g id="edge61" class="edge">
<title>Genesis&#45;&gt;XUS</title>
<path fill="none" stroke="black" d="M641.23,-577.49C675.04,-545.92 756.59,-473.7 837,-432 879.4,-410.01 932.6,-395.06 967.41,-386.78"/>
<polygon fill="black" stroke="black" points="968.2,-390.19 977.16,-384.53 966.62,-383.37 968.2,-390.19"/>
</g>
<!-- Genesis&#45;&gt;XDX -->
<g id="edge65" class="edge">
<title>Genesis&#45;&gt;XDX</title>
<path fill="none" stroke="black" d="M661.31,-587.75C770.63,-571.5 1094.83,-520 1187,-468 1215.33,-452.02 1240.03,-423.57 1255.39,-403.13"/>
<polygon fill="black" stroke="black" points="1258.32,-405.06 1261.39,-394.92 1252.67,-400.93 1258.32,-405.06"/>
</g>
<!-- Genesis&#45;&gt;TransactionFee -->
<g id="edge76" class="edge">
<title>Genesis&#45;&gt;TransactionFee</title>
<path fill="none" stroke="black" d="M654.16,-582.08C680.39,-571.99 719.8,-556.15 753,-540 796.68,-518.75 845.09,-490.79 876.67,-471.93"/>
<polygon fill="black" stroke="black" points="878.74,-474.77 885.51,-466.62 875.13,-468.77 878.74,-474.77"/>
</g>
<!-- Genesis&#45;&gt;DualAttestation -->
<g id="edge80" class="edge">
<title>Genesis&#45;&gt;DualAttestation</title>
<path fill="none" stroke="black" d="M661.88,-588.81C695.5,-585.09 746.54,-579.69 791,-576 1042.2,-555.16 1111.75,-598.21 1357,-540 1420.19,-525 1488.56,-492.47 1529.31,-471.17"/>
<polygon fill="black" stroke="black" points="1531.1,-474.18 1538.31,-466.41 1527.83,-467.99 1531.1,-474.18"/>
</g>
<!-- Genesis&#45;&gt;DiemTransactionPublishingOption -->
<g id="edge83" class="edge">
<title>Genesis&#45;&gt;DiemTransactionPublishingOption</title>
<path fill="none" stroke="black" d="M590.9,-585.51C533.56,-570.67 424,-531.75 424,-451 424,-451 424,-451 424,-377 424,-324.13 473.38,-281.44 509.82,-257.13"/>
<polygon fill="black" stroke="black" points="511.8,-260.02 518.3,-251.65 508,-254.14 511.8,-260.02"/>
</g>
<!-- Genesis&#45;&gt;ChainId -->
<g id="edge85" class="edge">
<title>Genesis&#45;&gt;ChainId</title>
<path fill="none" stroke="black" d="M586.98,-590.88C510.84,-586 342.9,-571.86 296,-540 274.14,-525.15 259.91,-498.02 251.76,-477.6"/>
<polygon fill="black" stroke="black" points="255.02,-476.34 248.24,-468.2 248.47,-478.8 255.02,-476.34"/>
</g>
<!-- Genesis&#45;&gt;AccountFreezing -->
<g id="edge87" class="edge">
<title>Genesis&#45;&gt;AccountFreezing</title>
<path fill="none" stroke="black" d="M661.88,-588.74C695.49,-584.98 746.53,-579.55 791,-576 1070.13,-553.73 1143.43,-583.77 1420,-540 1523.9,-523.56 1642.07,-488.74 1707.85,-467.86"/>
<polygon fill="black" stroke="black" points="1709.1,-471.13 1717.56,-464.76 1706.97,-464.46 1709.1,-471.13"/>
</g>
<!-- Genesis&#45;&gt;DiemAccount -->
<g id="edge93" class="edge">
<title>Genesis&#45;&gt;DiemAccount</title>
<path fill="none" stroke="black" d="M661.9,-589.04C695.53,-585.47 746.58,-580.16 791,-576 978.86,-558.39 1027.59,-569.19 1214,-540 1220.32,-539.01 1226.91,-537.78 1233.44,-536.45"/>
<polygon fill="black" stroke="black" points="1234.54,-539.79 1243.59,-534.27 1233.08,-532.94 1234.54,-539.79"/>
</g>
<!-- Genesis&#45;&gt;DiemSystem -->
<g id="edge97" class="edge">
<title>Genesis&#45;&gt;DiemSystem</title>
<path fill="none" stroke="black" d="M619.17,-576.09C606.52,-536.54 580.11,-435.59 611,-360 615.76,-348.35 624.46,-337.87 633.39,-329.37"/>
<polygon fill="black" stroke="black" points="635.73,-331.98 640.87,-322.71 631.08,-326.75 635.73,-331.98"/>
</g>
<!-- Genesis&#45;&gt;DiemBlock -->
<g id="edge99" class="edge">
<title>Genesis&#45;&gt;DiemBlock</title>
<path fill="none" stroke="black" d="M587.23,-590.61C517.51,-585.5 372.24,-571.31 334,-540 294.02,-507.27 310.84,-479.7 291,-432 287.4,-423.35 283.36,-413.95 279.69,-405.5"/>
<polygon fill="black" stroke="black" points="282.8,-403.89 275.59,-396.13 276.39,-406.69 282.8,-403.89"/>
</g>
<!-- Genesis&#45;&gt;DiemVMConfig -->
<g id="edge100" class="edge">
<title>Genesis&#45;&gt;DiemVMConfig</title>
<path fill="none" stroke="black" d="M587.42,-589.9C524.74,-583.97 402.67,-568.97 372,-540 342.22,-511.87 348,-491.97 348,-451 348,-451 348,-451 348,-377 348,-333.48 323.79,-287.95 306.13,-260.53"/>
<polygon fill="black" stroke="black" points="308.88,-258.34 300.43,-251.95 303.05,-262.22 308.88,-258.34"/>
</g>
<!-- Genesis&#45;&gt;DiemVersion -->
<g id="edge101" class="edge">
<title>Genesis&#45;&gt;DiemVersion</title>
<path fill="none" stroke="black" d="M628.44,-575.99C632.55,-557.62 640.35,-527.78 652,-504 703.74,-398.35 724.05,-373.36 805,-288 815.68,-276.74 828.81,-265.84 840.62,-256.87"/>
<polygon fill="black" stroke="black" points="842.98,-259.48 848.93,-250.71 838.81,-253.86 842.98,-259.48"/>
</g>
<!-- DesignatedDealer&#45;&gt;Roles -->
<g id="edge32" class="edge">
<title>DesignatedDealer&#45;&gt;Roles</title>
<path fill="none" stroke="black" d="M1116.53,-431.99C1148.78,-384.4 1237.6,-253.29 1238,-252 1252,-206.24 1241.13,-150 1232.32,-117.55"/>
<polygon fill="black" stroke="black" points="1235.67,-116.55 1229.56,-107.89 1228.94,-118.47 1235.67,-116.55"/>
</g>
<!-- DesignatedDealer&#45;&gt;Diem -->
<g id="edge50" class="edge">
<title>DesignatedDealer&#45;&gt;Diem</title>
<path fill="none" stroke="black" d="M1103.55,-431.87C1101.51,-407.67 1097.75,-363.21 1095.31,-334.39"/>
<polygon fill="black" stroke="black" points="1098.78,-333.86 1094.45,-324.19 1091.81,-334.45 1098.78,-333.86"/>
</g>
<!-- DesignatedDealer&#45;&gt;XUS -->
<g id="edge59" class="edge">
<title>DesignatedDealer&#45;&gt;XUS</title>
<path fill="none" stroke="black" d="M1081.57,-432.76C1066.43,-422.27 1046.67,-408.58 1030.89,-397.64"/>
<polygon fill="black" stroke="black" points="1032.8,-394.7 1022.58,-391.88 1028.81,-400.45 1032.8,-394.7"/>
</g>
<!-- TreasuryComplianceScripts -->
<g id="node24" class="node">
<title>TreasuryComplianceScripts</title>
<ellipse fill="none" stroke="black" cx="1531" cy="-594" rx="109.38" ry="18"/>
<text text-anchor="middle" x="1531" y="-590.3" font-family="Times,serif" font-size="14.00">TreasuryComplianceScripts</text>
</g>
<!-- TreasuryComplianceScripts&#45;&gt;Diem -->
<g id="edge53" class="edge">
<title>TreasuryComplianceScripts&#45;&gt;Diem</title>
<path fill="none" stroke="black" d="M1505.56,-576.39C1429.08,-526.45 1201.63,-377.93 1121.4,-325.54"/>
<polygon fill="black" stroke="black" points="1123.08,-322.46 1112.8,-319.93 1119.26,-328.33 1123.08,-322.46"/>
</g>
<!-- TreasuryComplianceScripts&#45;&gt;TransactionFee -->
<g id="edge77" class="edge">
<title>TreasuryComplianceScripts&#45;&gt;TransactionFee</title>
<path fill="none" stroke="black" d="M1454.67,-581.05C1377.2,-568.74 1262.65,-549.98 1219,-540 1127,-518.96 1021.75,-486.75 961.16,-467.39"/>
<polygon fill="black" stroke="black" points="962.06,-464.01 951.47,-464.28 959.92,-470.67 962.06,-464.01"/>
</g>
<!-- TreasuryComplianceScripts&#45;&gt;DualAttestation -->
<g id="edge81" class="edge">
<title>TreasuryComplianceScripts&#45;&gt;DualAttestation</title>
<path fill="none" stroke="black" d="M1535.22,-575.87C1541.21,-551.56 1552.24,-506.82 1559.34,-478.01"/>
<polygon fill="black" stroke="black" points="1562.77,-478.74 1561.76,-468.19 1555.97,-477.06 1562.77,-478.74"/>
</g>
<!-- TreasuryComplianceScripts&#45;&gt;AccountFreezing -->
<g id="edge88" class="edge">
<title>TreasuryComplianceScripts&#45;&gt;AccountFreezing</title>
<path fill="none" stroke="black" d="M1557.6,-576.43C1599.01,-550.64 1678.86,-500.91 1724.6,-472.43"/>
<polygon fill="black" stroke="black" points="1726.63,-475.28 1733.27,-467.03 1722.93,-469.34 1726.63,-475.28"/>
</g>
<!-- TreasuryComplianceScripts&#45;&gt;DiemAccount -->
<g id="edge95" class="edge">
<title>TreasuryComplianceScripts&#45;&gt;DiemAccount</title>
<path fill="none" stroke="black" d="M1479.17,-578.07C1438.09,-566.24 1380.97,-549.78 1339.88,-537.94"/>
<polygon fill="black" stroke="black" points="1340.64,-534.52 1330.06,-535.12 1338.7,-541.25 1340.64,-534.52"/>
</g>
<!-- ValidatorAdministrationScripts -->
<g id="node25" class="node">
<title>ValidatorAdministrationScripts</title>
<ellipse fill="none" stroke="black" cx="1751" cy="-378" rx="120.78" ry="18"/>
<text text-anchor="middle" x="1751" y="-374.3" font-family="Times,serif" font-size="14.00">ValidatorAdministrationScripts</text>
</g>
<!-- ValidatorAdministrationScripts&#45;&gt;ValidatorOperatorConfig -->
<g id="edge68" class="edge">
<title>ValidatorAdministrationScripts&#45;&gt;ValidatorOperatorConfig</title>
<path fill="none" stroke="black" d="M1757.94,-359.9C1769.24,-329.2 1788.04,-263.55 1764,-216 1757.52,-203.18 1746.32,-192.71 1734.65,-184.55"/>
<polygon fill="black" stroke="black" points="1736.43,-181.53 1726.14,-179.03 1732.62,-187.41 1736.43,-181.53"/>
</g>
<!-- ValidatorAdministrationScripts&#45;&gt;ValidatorConfig -->
<g id="edge71" class="edge">
<title>ValidatorAdministrationScripts&#45;&gt;ValidatorConfig</title>
<path fill="none" stroke="black" d="M1743.4,-359.87C1732.57,-335.46 1712.59,-290.43 1699.82,-261.64"/>
<polygon fill="black" stroke="black" points="1702.88,-259.91 1695.63,-252.19 1696.48,-262.75 1702.88,-259.91"/>
</g>
<!-- ValidatorAdministrationScripts&#45;&gt;DiemSystem -->
<g id="edge98" class="edge">
<title>ValidatorAdministrationScripts&#45;&gt;DiemSystem</title>
<path fill="none" stroke="black" d="M1650.2,-368C1616.74,-365.19 1579.29,-362.25 1545,-360 1216.43,-338.46 1133.12,-351.59 805,-324 778.58,-321.78 749.49,-318.45 724.56,-315.33"/>
<polygon fill="black" stroke="black" points="724.87,-311.84 714.51,-314.05 723.99,-318.79 724.87,-311.84"/>
</g>
<!-- RecoveryAddress -->
<g id="node26" class="node">
<title>RecoveryAddress</title>
<ellipse fill="none" stroke="black" cx="1769" cy="-594" rx="73.39" ry="18"/>
<text text-anchor="middle" x="1769" y="-590.3" font-family="Times,serif" font-size="14.00">RecoveryAddress</text>
</g>
<!-- RecoveryAddress&#45;&gt;VASP -->
<g id="edge74" class="edge">
<title>RecoveryAddress&#45;&gt;VASP</title>
<path fill="none" stroke="black" d="M1787.06,-576.19C1818.63,-544.81 1877.01,-476.5 1839,-432 1836.61,-429.2 1633.82,-398.48 1544.95,-385.13"/>
<polygon fill="black" stroke="black" points="1545.36,-381.65 1534.95,-383.63 1544.32,-388.57 1545.36,-381.65"/>
</g>
<!-- RecoveryAddress&#45;&gt;DiemAccount -->
<g id="edge90" class="edge">
<title>RecoveryAddress&#45;&gt;DiemAccount</title>
<path fill="none" stroke="black" d="M1707.59,-584.06C1615.81,-570.71 1443.73,-545.66 1351.01,-532.17"/>
<polygon fill="black" stroke="black" points="1351.33,-528.68 1340.93,-530.7 1350.32,-535.61 1351.33,-528.68"/>
</g>
<!-- AccountAdministrationScripts -->
<g id="node27" class="node">
<title>AccountAdministrationScripts</title>
<ellipse fill="none" stroke="black" cx="1380" cy="-666" rx="118.08" ry="18"/>
<text text-anchor="middle" x="1380" y="-662.3" font-family="Times,serif" font-size="14.00">AccountAdministrationScripts</text>
</g>
<!-- AccountAdministrationScripts&#45;&gt;DualAttestation -->
<g id="edge79" class="edge">
<title>AccountAdministrationScripts&#45;&gt;DualAttestation</title>
<path fill="none" stroke="black" d="M1485.48,-657.77C1551.6,-650.79 1628.14,-637.37 1649,-612 1684.74,-568.53 1629.95,-507.15 1593.73,-474.15"/>
<polygon fill="black" stroke="black" points="1595.68,-471.2 1585.88,-467.17 1591.03,-476.43 1595.68,-471.2"/>
</g>
<!-- AccountAdministrationScripts&#45;&gt;DiemAccount -->
<g id="edge91" class="edge">
<title>AccountAdministrationScripts&#45;&gt;DiemAccount</title>
<path fill="none" stroke="black" d="M1273.54,-658.1C1161.36,-649.72 998.22,-633.93 979,-612 920.61,-545.39 992.97,-582.26 1214,-540 1220.12,-538.83 1226.5,-537.51 1232.84,-536.14"/>
<polygon fill="black" stroke="black" points="1233.71,-539.54 1242.72,-533.96 1232.2,-532.7 1233.71,-539.54"/>
</g>
<!-- AccountAdministrationScripts&#45;&gt;RecoveryAddress -->
<g id="edge104" class="edge">
<title>AccountAdministrationScripts&#45;&gt;RecoveryAddress</title>
<path fill="none" stroke="black" d="M1455.78,-652.12C1516.9,-641.62 1605.06,-626.27 1682,-612 1689.07,-610.69 1696.47,-609.29 1703.82,-607.88"/>
<polygon fill="black" stroke="black" points="1704.65,-611.28 1713.8,-605.95 1703.32,-604.41 1704.65,-611.28"/>
</g>
<!-- SharedEd25519PublicKey -->
<g id="node28" class="node">
<title>SharedEd25519PublicKey</title>
<ellipse fill="none" stroke="black" cx="1092" cy="-594" rx="103.98" ry="18"/>
<text text-anchor="middle" x="1092" y="-590.3" font-family="Times,serif" font-size="14.00">SharedEd25519PublicKey</text>
</g>
<!-- AccountAdministrationScripts&#45;&gt;SharedEd25519PublicKey -->
<g id="edge105" class="edge">
<title>AccountAdministrationScripts&#45;&gt;SharedEd25519PublicKey</title>
<path fill="none" stroke="black" d="M1319.98,-650.41C1273.25,-639.05 1208.38,-623.29 1159.78,-611.47"/>
<polygon fill="black" stroke="black" points="1160.52,-608.05 1149.98,-609.09 1158.87,-614.86 1160.52,-608.05"/>
</g>
<!-- SharedEd25519PublicKey&#45;&gt;DiemAccount -->
<g id="edge89" class="edge">
<title>SharedEd25519PublicKey&#45;&gt;DiemAccount</title>
<path fill="none" stroke="black" d="M1135.5,-577.46C1166.88,-566.26 1209.18,-551.15 1241.28,-539.69"/>
<polygon fill="black" stroke="black" points="1242.65,-542.91 1250.89,-536.26 1240.29,-536.32 1242.65,-542.91"/>
</g>
<!-- AccountCreationScripts -->
<g id="node29" class="node">
<title>AccountCreationScripts</title>
<ellipse fill="none" stroke="black" cx="1309" cy="-594" rx="94.78" ry="18"/>
<text text-anchor="middle" x="1309" y="-590.3" font-family="Times,serif" font-size="14.00">AccountCreationScripts</text>
</g>
<!-- AccountCreationScripts&#45;&gt;DiemAccount -->
<g id="edge92" class="edge">
<title>AccountCreationScripts&#45;&gt;DiemAccount</title>
<path fill="none" stroke="black" d="M1303.81,-575.7C1301.47,-567.9 1298.65,-558.51 1296.05,-549.83"/>
<polygon fill="black" stroke="black" points="1299.36,-548.68 1293.13,-540.1 1292.65,-550.69 1299.36,-548.68"/>
</g>
<!-- PaymentScripts -->
<g id="node30" class="node">
<title>PaymentScripts</title>
<ellipse fill="none" stroke="black" cx="866" cy="-594" rx="66.09" ry="18"/>
<text text-anchor="middle" x="866" y="-590.3" font-family="Times,serif" font-size="14.00">PaymentScripts</text>
</g>
<!-- PaymentScripts&#45;&gt;DiemAccount -->
<g id="edge94" class="edge">
<title>PaymentScripts&#45;&gt;DiemAccount</title>
<path fill="none" stroke="black" d="M915.39,-581.89C925.49,-579.79 936.07,-577.72 946,-576 1064.42,-555.49 1095.75,-561.48 1214,-540 1220.13,-538.89 1226.52,-537.61 1232.86,-536.26"/>
<polygon fill="black" stroke="black" points="1233.72,-539.65 1242.74,-534.09 1232.22,-532.81 1233.72,-539.65"/>
</g>
<!-- SystemAdministrationScripts -->
<g id="node31" class="node">
<title>SystemAdministrationScripts</title>
<ellipse fill="none" stroke="black" cx="929" cy="-306" rx="115.08" ry="18"/>
<text text-anchor="middle" x="929" y="-302.3" font-family="Times,serif" font-size="14.00">SystemAdministrationScripts</text>
</g>
<!-- SystemAdministrationScripts&#45;&gt;DiemVersion -->
<g id="edge102" class="edge">
<title>SystemAdministrationScripts&#45;&gt;DiemVersion</title>
<path fill="none" stroke="black" d="M915.2,-288.05C908.27,-279.54 899.74,-269.07 892.1,-259.68"/>
<polygon fill="black" stroke="black" points="894.7,-257.33 885.67,-251.79 889.27,-261.75 894.7,-257.33"/>
</g>
</g>
</svg>
