<?xml version="1.0" encoding="UTF-8" standalone="no"?>
<!DOCTYPE svg PUBLIC "-//W3C//DTD SVG 1.1//EN"
 "http://www.w3.org/Graphics/SVG/1.1/DTD/svg11.dtd">
<!-- Generated by graphviz version 2.46.1 (20210213.1702)
 -->
<!-- Title: G Pages: 1 -->
<svg width="1856pt" height="600pt"
 viewBox="0.00 0.00 1856.00 600.00" xmlns="http://www.w3.org/2000/svg" xmlns:xlink="http://www.w3.org/1999/xlink">
<g id="graph0" class="graph" transform="scale(1 1) rotate(0) translate(4 596)">
<title>G</title>
<polygon fill="white" stroke="transparent" points="-4,4 -4,-596 1852,-596 1852,4 -4,4"/>
<g id="clust1" class="cluster">
<title>cluster_Errors</title>
<polygon fill="none" stroke="black" points="351,-8 351,-155 1072,-155 1072,-8 351,-8"/>
<text text-anchor="middle" x="711.5" y="-139.8" font-family="Times,serif" font-size="14.00">Errors</text>
</g>
<g id="clust2" class="cluster">
<title>cluster_DiemTimestamp</title>
<polygon fill="none" stroke="black" points="1504,-80 1504,-321 1790,-321 1790,-80 1504,-80"/>
<text text-anchor="middle" x="1647" y="-305.8" font-family="Times,serif" font-size="14.00">DiemTimestamp</text>
</g>
<g id="clust3" class="cluster">
<title>cluster_Roles</title>
<polygon fill="none" stroke="black" points="929,-246 929,-321 1087,-321 1087,-246 929,-246"/>
<text text-anchor="middle" x="1008" y="-305.8" font-family="Times,serif" font-size="14.00">Roles</text>
</g>
<g id="clust4" class="cluster">
<title>cluster_Vector</title>
<polygon fill="none" stroke="black" points="8,-163 8,-321 469,-321 469,-163 8,-163"/>
<text text-anchor="middle" x="238.5" y="-305.8" font-family="Times,serif" font-size="14.00">Vector</text>
</g>
<g id="clust5" class="cluster">
<title>cluster_Option</title>
<polygon fill="none" stroke="black" points="165,-329 165,-476 405,-476 405,-329 165,-329"/>
<text text-anchor="middle" x="285" y="-460.8" font-family="Times,serif" font-size="14.00">Option</text>
</g>
<g id="clust6" class="cluster">
<title>cluster_Signer</title>
<polygon fill="none" stroke="black" points="1332,-8 1332,-155 1482,-155 1482,-8 1332,-8"/>
<text text-anchor="middle" x="1407" y="-139.8" font-family="Times,serif" font-size="14.00">Signer</text>
</g>
<g id="clust7" class="cluster">
<title>cluster_CoreAddresses</title>
<polygon fill="none" stroke="black" points="1080,-80 1080,-238 1310,-238 1310,-80 1080,-80"/>
<text text-anchor="middle" x="1195" y="-222.8" font-family="Times,serif" font-size="14.00">CoreAddresses</text>
</g>
<g id="clust8" class="cluster">
<title>cluster_DiemConfig</title>
<polygon fill="none" stroke="black" points="1095,-246 1095,-476 1465,-476 1465,-246 1095,-246"/>
<text text-anchor="middle" x="1280" y="-460.8" font-family="Times,serif" font-size="14.00">DiemConfig</text>
</g>
<g id="clust9" class="cluster">
<title>cluster_Event</title>
<polygon fill="none" stroke="black" points="705,-163 705,-321 891,-321 891,-163 705,-163"/>
<text text-anchor="middle" x="798" y="-305.8" font-family="Times,serif" font-size="14.00">Event</text>
</g>
<!-- remove_validator -->
<g id="node1" class="node">
<title>remove_validator</title>
<ellipse fill="none" stroke="black" cx="909" cy="-574" rx="73.39" ry="18"/>
<text text-anchor="middle" x="909" y="-570.3" font-family="Times,serif" font-size="14.00">remove_validator</text>
</g>
<!-- Errors::invalid_argument -->
<g id="node2" class="node">
<title>Errors::invalid_argument</title>
<ellipse fill="none" stroke="black" cx="432" cy="-106" rx="73.39" ry="18"/>
<text text-anchor="middle" x="432" y="-102.3" font-family="Times,serif" font-size="14.00">invalid_argument</text>
</g>
<!-- remove_validator&#45;&gt;Errors::invalid_argument -->
<g id="edge1" class="edge">
<title>remove_validator&#45;&gt;Errors::invalid_argument</title>
<path fill="none" stroke="black" d="M909,-555.59C909,-528.37 909,-474.07 909,-428 909,-428 909,-428 909,-354 909,-311.44 925.87,-192.3 895,-163 879.68,-148.46 535.34,-160.69 515,-155 495.97,-149.68 476.74,-138.97 461.59,-129.02"/>
<polygon fill="black" stroke="black" points="463.41,-126.02 453.18,-123.29 459.47,-131.81 463.41,-126.02"/>
</g>
<!-- DiemTimestamp::assert_operating -->
<g id="node3" class="node">
<title>DiemTimestamp::assert_operating</title>
<ellipse fill="none" stroke="black" cx="1703" cy="-189" rx="68.49" ry="18"/>
<text text-anchor="middle" x="1703" y="-185.3" font-family="Times,serif" font-size="14.00">assert_operating</text>
</g>
<!-- remove_validator&#45;&gt;DiemTimestamp::assert_operating -->
<g id="edge2" class="edge">
<title>remove_validator&#45;&gt;DiemTimestamp::assert_operating</title>
<path fill="none" stroke="black" d="M980.35,-569.49C1199.48,-557.79 1848,-515.73 1848,-428 1848,-428 1848,-428 1848,-354 1848,-303.26 1844.12,-284.44 1811,-246 1796.12,-228.73 1774.6,-216.07 1754.67,-207.2"/>
<polygon fill="black" stroke="black" points="1755.93,-203.94 1745.36,-203.27 1753.21,-210.39 1755.93,-203.94"/>
</g>
<!-- Roles::assert_diem_root -->
<g id="node4" class="node">
<title>Roles::assert_diem_root</title>
<ellipse fill="none" stroke="black" cx="1008" cy="-272" rx="71.49" ry="18"/>
<text text-anchor="middle" x="1008" y="-268.3" font-family="Times,serif" font-size="14.00">assert_diem_root</text>
</g>
<!-- remove_validator&#45;&gt;Roles::assert_diem_root -->
<g id="edge3" class="edge">
<title>remove_validator&#45;&gt;Roles::assert_diem_root</title>
<path fill="none" stroke="black" d="M914.61,-556.01C931.04,-506.21 979.19,-360.31 999.16,-299.79"/>
<polygon fill="black" stroke="black" points="1002.52,-300.77 1002.33,-290.17 995.87,-298.57 1002.52,-300.77"/>
</g>
<!-- Vector::swap_remove -->
<g id="node5" class="node">
<title>Vector::swap_remove</title>
<ellipse fill="none" stroke="black" cx="283" cy="-272" rx="59.59" ry="18"/>
<text text-anchor="middle" x="283" y="-268.3" font-family="Times,serif" font-size="14.00">swap_remove</text>
</g>
<!-- remove_validator&#45;&gt;Vector::swap_remove -->
<g id="edge4" class="edge">
<title>remove_validator&#45;&gt;Vector::swap_remove</title>
<path fill="none" stroke="black" d="M883.64,-556.97C812.16,-512.62 601.66,-387.66 409,-329 384.11,-321.42 375.21,-330.55 351,-321 335.82,-315.01 320.8,-304.96 308.75,-295.6"/>
<polygon fill="black" stroke="black" points="310.9,-292.84 300.92,-289.29 306.51,-298.29 310.9,-292.84"/>
</g>
<!-- Option::borrow -->
<g id="node6" class="node">
<title>Option::borrow</title>
<ellipse fill="none" stroke="black" cx="283" cy="-427" rx="36.29" ry="18"/>
<text text-anchor="middle" x="283" y="-423.3" font-family="Times,serif" font-size="14.00">borrow</text>
</g>
<!-- remove_validator&#45;&gt;Option::borrow -->
<g id="edge5" class="edge">
<title>remove_validator&#45;&gt;Option::borrow</title>
<path fill="none" stroke="black" d="M836.25,-571.45C683.7,-567.51 341.17,-554.85 302,-520 284.15,-504.12 280.51,-476.3 280.66,-455.39"/>
<polygon fill="black" stroke="black" points="284.16,-455.31 281.03,-445.19 277.17,-455.06 284.16,-455.31"/>
</g>
<!-- Option::is_some -->
<g id="node7" class="node">
<title>Option::is_some</title>
<ellipse fill="none" stroke="black" cx="215" cy="-355" rx="40.09" ry="18"/>
<text text-anchor="middle" x="215" y="-351.3" font-family="Times,serif" font-size="14.00">is_some</text>
</g>
<!-- remove_validator&#45;&gt;Option::is_some -->
<g id="edge6" class="edge">
<title>remove_validator&#45;&gt;Option::is_some</title>
<path fill="none" stroke="black" d="M835.22,-573.46C716.51,-572.73 476.42,-565.12 279,-520 225.65,-507.81 195.02,-521.08 164,-476 147.12,-451.47 152.87,-436.62 164,-409 168.85,-396.97 177.88,-386.14 187,-377.46"/>
<polygon fill="black" stroke="black" points="189.47,-379.95 194.61,-370.69 184.81,-374.73 189.47,-379.95"/>
</g>
<!-- get_diem_system_config -->
<g id="node8" class="node">
<title>get_diem_system_config</title>
<ellipse fill="none" stroke="black" cx="1087" cy="-502" rx="99.38" ry="18"/>
<text text-anchor="middle" x="1087" y="-498.3" font-family="Times,serif" font-size="14.00">get_diem_system_config</text>
</g>
<!-- remove_validator&#45;&gt;get_diem_system_config -->
<g id="edge7" class="edge">
<title>remove_validator&#45;&gt;get_diem_system_config</title>
<path fill="none" stroke="black" d="M946.31,-558.33C972.88,-547.88 1008.84,-533.74 1037.75,-522.37"/>
<polygon fill="black" stroke="black" points="1039.24,-525.54 1047.26,-518.63 1036.68,-519.03 1039.24,-525.54"/>
</g>
<!-- get_validator_index_ -->
<g id="node9" class="node">
<title>get_validator_index_</title>
<ellipse fill="none" stroke="black" cx="396" cy="-502" rx="85.29" ry="18"/>
<text text-anchor="middle" x="396" y="-498.3" font-family="Times,serif" font-size="14.00">get_validator_index_</text>
</g>
<!-- remove_validator&#45;&gt;get_validator_index_ -->
<g id="edge8" class="edge">
<title>remove_validator&#45;&gt;get_validator_index_</title>
<path fill="none" stroke="black" d="M846.61,-564.49C753.32,-551.76 577.54,-527.77 475.27,-513.82"/>
<polygon fill="black" stroke="black" points="475.69,-510.34 465.31,-512.46 474.74,-517.28 475.69,-510.34"/>
</g>
<!-- set_diem_system_config -->
<g id="node10" class="node">
<title>set_diem_system_config</title>
<ellipse fill="none" stroke="black" cx="1316" cy="-502" rx="98.58" ry="18"/>
<text text-anchor="middle" x="1316" y="-498.3" font-family="Times,serif" font-size="14.00">set_diem_system_config</text>
</g>
<!-- remove_validator&#45;&gt;set_diem_system_config -->
<g id="edge9" class="edge">
<title>remove_validator&#45;&gt;set_diem_system_config</title>
<path fill="none" stroke="black" d="M967.31,-562.97C1038.14,-550.79 1157.92,-530.19 1236.99,-516.59"/>
<polygon fill="black" stroke="black" points="1237.64,-520.03 1246.9,-514.88 1236.45,-513.13 1237.64,-520.03"/>
</g>
<!-- Errors::make -->
<g id="node11" class="node">
<title>Errors::make</title>
<ellipse fill="none" stroke="black" cx="720" cy="-34" rx="30.59" ry="18"/>
<text text-anchor="middle" x="720" y="-30.3" font-family="Times,serif" font-size="14.00">make</text>
</g>
<!-- Errors::invalid_argument&#45;&gt;Errors::make -->
<g id="edge10" class="edge">
<title>Errors::invalid_argument&#45;&gt;Errors::make</title>
<path fill="none" stroke="black" d="M475.33,-91.27C488.06,-87.42 502.04,-83.37 515,-80 572.54,-65.04 640.02,-50.87 681.38,-42.56"/>
<polygon fill="black" stroke="black" points="682.19,-45.97 691.32,-40.58 680.82,-39.1 682.19,-45.97"/>
</g>
<!-- Errors::invalid_state -->
<g id="node12" class="node">
<title>Errors::invalid_state</title>
<ellipse fill="none" stroke="black" cx="851" cy="-106" rx="55.79" ry="18"/>
<text text-anchor="middle" x="851" y="-102.3" font-family="Times,serif" font-size="14.00">invalid_state</text>
</g>
<!-- DiemTimestamp::assert_operating&#45;&gt;Errors::invalid_state -->
<g id="edge11" class="edge">
<title>DiemTimestamp::assert_operating&#45;&gt;Errors::invalid_state</title>
<path fill="none" stroke="black" d="M1638.35,-182.97C1561.19,-177.17 1428.27,-167.82 1314,-163 1291.85,-162.07 935.96,-162.22 915,-155 900.1,-149.87 885.84,-139.86 874.57,-130.3"/>
<polygon fill="black" stroke="black" points="876.73,-127.53 866.93,-123.49 872.07,-132.76 876.73,-127.53"/>
</g>
<!-- DiemTimestamp::is_operating -->
<g id="node13" class="node">
<title>DiemTimestamp::is_operating</title>
<ellipse fill="none" stroke="black" cx="1634" cy="-106" rx="53.89" ry="18"/>
<text text-anchor="middle" x="1634" y="-102.3" font-family="Times,serif" font-size="14.00">is_operating</text>
</g>
<!-- DiemTimestamp::assert_operating&#45;&gt;DiemTimestamp::is_operating -->
<g id="edge12" class="edge">
<title>DiemTimestamp::assert_operating&#45;&gt;DiemTimestamp::is_operating</title>
<path fill="none" stroke="black" d="M1688.7,-171.22C1678.83,-159.63 1665.55,-144.04 1654.55,-131.12"/>
<polygon fill="black" stroke="black" points="1657.19,-128.83 1648.04,-123.48 1651.86,-133.37 1657.19,-128.83"/>
</g>
<!-- Signer::address_of -->
<g id="node14" class="node">
<title>Signer::address_of</title>
<ellipse fill="none" stroke="black" cx="1407" cy="-106" rx="48.99" ry="18"/>
<text text-anchor="middle" x="1407" y="-102.3" font-family="Times,serif" font-size="14.00">address_of</text>
</g>
<!-- Roles::assert_diem_root&#45;&gt;Signer::address_of -->
<g id="edge13" class="edge">
<title>Roles::assert_diem_root&#45;&gt;Signer::address_of</title>
<path fill="none" stroke="black" d="M1047.2,-256.94C1060.88,-252.64 1076.45,-248.41 1091,-246 1115.46,-241.95 1292.18,-249.77 1314,-238 1355.87,-215.42 1383.22,-164.79 1396.82,-133.5"/>
<polygon fill="black" stroke="black" points="1400.13,-134.66 1400.76,-124.08 1393.67,-131.96 1400.13,-134.66"/>
</g>
<!-- Errors::not_published -->
<g id="node15" class="node">
<title>Errors::not_published</title>
<ellipse fill="none" stroke="black" cx="584" cy="-106" rx="60.39" ry="18"/>
<text text-anchor="middle" x="584" y="-102.3" font-family="Times,serif" font-size="14.00">not_published</text>
</g>
<!-- Roles::assert_diem_root&#45;&gt;Errors::not_published -->
<g id="edge14" class="edge">
<title>Roles::assert_diem_root&#45;&gt;Errors::not_published</title>
<path fill="none" stroke="black" d="M986.15,-254.73C980.2,-249.74 974.03,-243.97 969,-238 944.12,-208.43 958.25,-182.7 925,-163 899.08,-147.64 682.64,-164.34 654,-155 637.95,-149.77 622.25,-139.6 609.79,-129.97"/>
<polygon fill="black" stroke="black" points="611.71,-127.02 601.73,-123.46 607.31,-132.46 611.71,-127.02"/>
</g>
<!-- Errors::requires_role -->
<g id="node16" class="node">
<title>Errors::requires_role</title>
<ellipse fill="none" stroke="black" cx="720" cy="-106" rx="57.39" ry="18"/>
<text text-anchor="middle" x="720" y="-102.3" font-family="Times,serif" font-size="14.00">requires_role</text>
</g>
<!-- Roles::assert_diem_root&#45;&gt;Errors::requires_role -->
<g id="edge15" class="edge">
<title>Roles::assert_diem_root&#45;&gt;Errors::requires_role</title>
<path fill="none" stroke="black" d="M1007.37,-253.72C1005.45,-229.01 997.91,-184.26 969,-163 952.6,-150.94 805.21,-161.72 786,-155 770.82,-149.7 756.14,-139.66 744.48,-130.14"/>
<polygon fill="black" stroke="black" points="746.45,-127.21 736.57,-123.37 741.89,-132.53 746.45,-127.21"/>
</g>
<!-- CoreAddresses::assert_diem_root -->
<g id="node17" class="node">
<title>CoreAddresses::assert_diem_root</title>
<ellipse fill="none" stroke="black" cx="1159" cy="-189" rx="71.49" ry="18"/>
<text text-anchor="middle" x="1159" y="-185.3" font-family="Times,serif" font-size="14.00">assert_diem_root</text>
</g>
<!-- Roles::assert_diem_root&#45;&gt;CoreAddresses::assert_diem_root -->
<g id="edge16" class="edge">
<title>Roles::assert_diem_root&#45;&gt;CoreAddresses::assert_diem_root</title>
<path fill="none" stroke="black" d="M1037.11,-255.38C1061.03,-242.55 1095.09,-224.28 1121.13,-210.31"/>
<polygon fill="black" stroke="black" points="1122.82,-213.38 1129.98,-205.57 1119.51,-207.21 1122.82,-213.38"/>
</g>
<!-- Vector::length -->
<g id="node18" class="node">
<title>Vector::length</title>
<ellipse fill="none" stroke="black" cx="429" cy="-189" rx="32.49" ry="18"/>
<text text-anchor="middle" x="429" y="-185.3" font-family="Times,serif" font-size="14.00">length</text>
</g>
<!-- Vector::swap_remove&#45;&gt;Vector::length -->
<g id="edge17" class="edge">
<title>Vector::swap_remove&#45;&gt;Vector::length</title>
<path fill="none" stroke="black" d="M317.63,-257.21C328.24,-253.27 340.01,-249.19 351,-246 367.16,-241.31 373.56,-246.63 388,-238 397.84,-232.12 406.48,-223.04 413.26,-214.35"/>
<polygon fill="black" stroke="black" points="416.1,-216.39 419.17,-206.25 410.45,-212.26 416.1,-216.39"/>
</g>
<!-- Vector::pop_back -->
<g id="node19" class="node">
<title>Vector::pop_back</title>
<ellipse fill="none" stroke="black" cx="334" cy="-189" rx="44.69" ry="18"/>
<text text-anchor="middle" x="334" y="-185.3" font-family="Times,serif" font-size="14.00">pop_back</text>
</g>
<!-- Vector::swap_remove&#45;&gt;Vector::pop_back -->
<g id="edge18" class="edge">
<title>Vector::swap_remove&#45;&gt;Vector::pop_back</title>
<path fill="none" stroke="black" d="M293.57,-254.22C300.61,-243.03 310,-228.12 317.96,-215.48"/>
<polygon fill="black" stroke="black" points="321.08,-217.09 323.45,-206.76 315.16,-213.36 321.08,-217.09"/>
</g>
<!-- Vector::swap -->
<g id="node20" class="node">
<title>Vector::swap</title>
<ellipse fill="none" stroke="black" cx="243" cy="-189" rx="28.7" ry="18"/>
<text text-anchor="middle" x="243" y="-185.3" font-family="Times,serif" font-size="14.00">swap</text>
</g>
<!-- Vector::swap_remove&#45;&gt;Vector::swap -->
<g id="edge19" class="edge">
<title>Vector::swap_remove&#45;&gt;Vector::swap</title>
<path fill="none" stroke="black" d="M274.52,-253.82C269,-242.65 261.7,-227.88 255.52,-215.36"/>
<polygon fill="black" stroke="black" points="258.63,-213.74 251.06,-206.32 252.35,-216.84 258.63,-213.74"/>
</g>
<!-- Option::borrow&#45;&gt;Errors::invalid_argument -->
<g id="edge20" class="edge">
<title>Option::borrow&#45;&gt;Errors::invalid_argument</title>
<path fill="none" stroke="black" d="M310.37,-414.97C358.45,-394.97 454.76,-351.92 473,-321 508.68,-260.52 494.82,-229.75 473,-163 469.33,-151.78 462.46,-140.94 455.38,-131.84"/>
<polygon fill="black" stroke="black" points="457.98,-129.48 448.91,-124.01 452.58,-133.94 457.98,-129.48"/>
</g>
<!-- Option::borrow&#45;&gt;Option::is_some -->
<g id="edge22" class="edge">
<title>Option::borrow&#45;&gt;Option::is_some</title>
<path fill="none" stroke="black" d="M267.91,-410.46C259.05,-401.35 247.69,-389.65 237.76,-379.43"/>
<polygon fill="black" stroke="black" points="240,-376.71 230.52,-371.98 234.98,-381.59 240,-376.71"/>
</g>
<!-- Vector::borrow -->
<g id="node21" class="node">
<title>Vector::borrow</title>
<ellipse fill="none" stroke="black" cx="65" cy="-272" rx="36.29" ry="18"/>
<text text-anchor="middle" x="65" y="-268.3" font-family="Times,serif" font-size="14.00">borrow</text>
</g>
<!-- Option::borrow&#45;&gt;Vector::borrow -->
<g id="edge21" class="edge">
<title>Option::borrow&#45;&gt;Vector::borrow</title>
<path fill="none" stroke="black" d="M285.31,-408.92C287.23,-386.78 286.68,-348.68 264,-329 251.06,-317.77 125.54,-328.22 110,-321 98.9,-315.84 89.2,-306.59 81.68,-297.57"/>
<polygon fill="black" stroke="black" points="84.3,-295.24 75.41,-289.49 78.77,-299.53 84.3,-295.24"/>
</g>
<!-- Vector::is_empty -->
<g id="node22" class="node">
<title>Vector::is_empty</title>
<ellipse fill="none" stroke="black" cx="404" cy="-272" rx="43.59" ry="18"/>
<text text-anchor="middle" x="404" y="-268.3" font-family="Times,serif" font-size="14.00">is_empty</text>
</g>
<!-- Option::is_some&#45;&gt;Vector::is_empty -->
<g id="edge23" class="edge">
<title>Option::is_some&#45;&gt;Vector::is_empty</title>
<path fill="none" stroke="black" d="M253.78,-349.98C282.29,-345.8 321.25,-337.43 352,-321 363.4,-314.91 374.21,-305.72 382.99,-297.01"/>
<polygon fill="black" stroke="black" points="385.74,-299.19 390.15,-289.56 380.69,-294.34 385.74,-299.19"/>
</g>
<!-- DiemConfig::get -->
<g id="node23" class="node">
<title>DiemConfig::get</title>
<ellipse fill="none" stroke="black" cx="1130" cy="-427" rx="27" ry="18"/>
<text text-anchor="middle" x="1130" y="-423.3" font-family="Times,serif" font-size="14.00">get</text>
</g>
<!-- get_diem_system_config&#45;&gt;DiemConfig::get -->
<g id="edge24" class="edge">
<title>get_diem_system_config&#45;&gt;DiemConfig::get</title>
<path fill="none" stroke="black" d="M1096.97,-484.07C1102.41,-474.85 1109.23,-463.26 1115.27,-453.01"/>
<polygon fill="black" stroke="black" points="1118.46,-454.48 1120.52,-444.09 1112.43,-450.93 1118.46,-454.48"/>
</g>
<!-- get_validator_index_&#45;&gt;Vector::length -->
<g id="edge26" class="edge">
<title>get_validator_index_&#45;&gt;Vector::length</title>
<path fill="none" stroke="black" d="M405.36,-483.98C406.66,-481.34 407.92,-478.62 409,-476 436.41,-409.3 446.21,-392.31 457,-321 461.99,-288.04 464.66,-278.44 457,-246 454.49,-235.37 449.64,-224.45 444.66,-215.12"/>
<polygon fill="black" stroke="black" points="447.7,-213.37 439.74,-206.37 441.6,-216.8 447.7,-213.37"/>
</g>
<!-- get_validator_index_&#45;&gt;Vector::borrow -->
<g id="edge25" class="edge">
<title>get_validator_index_&#45;&gt;Vector::borrow</title>
<path fill="none" stroke="black" d="M310.92,-500.55C253.72,-498.65 184.63,-492.78 161,-476 101.56,-433.79 77.73,-344.92 69.21,-300.09"/>
<polygon fill="black" stroke="black" points="72.65,-299.43 67.44,-290.2 65.75,-300.66 72.65,-299.43"/>
</g>
<!-- Option::none -->
<g id="node24" class="node">
<title>Option::none</title>
<ellipse fill="none" stroke="black" cx="201" cy="-427" rx="27.9" ry="18"/>
<text text-anchor="middle" x="201" y="-423.3" font-family="Times,serif" font-size="14.00">none</text>
</g>
<!-- get_validator_index_&#45;&gt;Option::none -->
<g id="edge27" class="edge">
<title>get_validator_index_&#45;&gt;Option::none</title>
<path fill="none" stroke="black" d="M319.2,-494.22C286.18,-490.22 251.97,-484.29 238,-476 228.63,-470.44 220.79,-461.53 214.78,-452.89"/>
<polygon fill="black" stroke="black" points="217.72,-451 209.38,-444.47 211.83,-454.78 217.72,-451"/>
</g>
<!-- Option::some -->
<g id="node25" class="node">
<title>Option::some</title>
<ellipse fill="none" stroke="black" cx="367" cy="-427" rx="29.8" ry="18"/>
<text text-anchor="middle" x="367" y="-423.3" font-family="Times,serif" font-size="14.00">some</text>
</g>
<!-- get_validator_index_&#45;&gt;Option::some -->
<g id="edge28" class="edge">
<title>get_validator_index_&#45;&gt;Option::some</title>
<path fill="none" stroke="black" d="M389.13,-483.7C385.61,-474.85 381.26,-463.88 377.34,-454.03"/>
<polygon fill="black" stroke="black" points="380.57,-452.67 373.62,-444.67 374.06,-455.26 380.57,-452.67"/>
</g>
<!-- set_diem_system_config&#45;&gt;DiemTimestamp::assert_operating -->
<g id="edge31" class="edge">
<title>set_diem_system_config&#45;&gt;DiemTimestamp::assert_operating</title>
<path fill="none" stroke="black" d="M1411.87,-497.46C1526.64,-487.29 1713.12,-450.52 1791,-321 1808.18,-292.43 1807.04,-275.22 1791,-246 1782.11,-229.81 1766.34,-217.63 1750.58,-208.84"/>
<polygon fill="black" stroke="black" points="1751.84,-205.55 1741.35,-204.05 1748.61,-211.76 1751.84,-205.55"/>
</g>
<!-- set_diem_system_config&#45;&gt;Errors::not_published -->
<g id="edge29" class="edge">
<title>set_diem_system_config&#45;&gt;Errors::not_published</title>
<path fill="none" stroke="black" d="M1242.51,-489.92C1226.85,-487.77 1210.4,-485.67 1195,-484 945.79,-456.94 854.6,-505.83 642,-373 562.73,-323.47 571.32,-191.73 579.33,-134.35"/>
<polygon fill="black" stroke="black" points="582.83,-134.63 580.85,-124.23 575.9,-133.6 582.83,-134.63"/>
</g>
<!-- CoreAddresses::DIEM_ROOT_ADDRESS -->
<g id="node26" class="node">
<title>CoreAddresses::DIEM_ROOT_ADDRESS</title>
<ellipse fill="none" stroke="black" cx="1195" cy="-106" rx="106.68" ry="18"/>
<text text-anchor="middle" x="1195" y="-102.3" font-family="Times,serif" font-size="14.00">DIEM_ROOT_ADDRESS</text>
</g>
<!-- set_diem_system_config&#45;&gt;CoreAddresses::DIEM_ROOT_ADDRESS -->
<g id="edge30" class="edge">
<title>set_diem_system_config&#45;&gt;CoreAddresses::DIEM_ROOT_ADDRESS</title>
<path fill="none" stroke="black" d="M1408.73,-495.72C1435.79,-492.13 1460.42,-486.1 1469,-476 1502.1,-437.05 1501.83,-285.18 1469,-246 1455.95,-230.43 1440.79,-249.44 1424,-238 1391.69,-215.98 1410.5,-184.74 1378,-163 1359.3,-150.49 1349.79,-160.62 1328,-155 1299.15,-147.56 1267.75,-136.38 1242.72,-126.68"/>
<polygon fill="black" stroke="black" points="1243.69,-123.31 1233.1,-122.91 1241.13,-129.82 1243.69,-123.31"/>
</g>
<!-- DiemConfig::set_with_capability_and_reconfigure -->
<g id="node27" class="node">
<title>DiemConfig::set_with_capability_and_reconfigure</title>
<ellipse fill="none" stroke="black" cx="1316" cy="-427" rx="141.07" ry="18"/>
<text text-anchor="middle" x="1316" y="-423.3" font-family="Times,serif" font-size="14.00">set_with_capability_and_reconfigure</text>
</g>
<!-- set_diem_system_config&#45;&gt;DiemConfig::set_with_capability_and_reconfigure -->
<g id="edge32" class="edge">
<title>set_diem_system_config&#45;&gt;DiemConfig::set_with_capability_and_reconfigure</title>
<path fill="none" stroke="black" d="M1316,-483.7C1316,-475.25 1316,-464.87 1316,-455.37"/>
<polygon fill="black" stroke="black" points="1319.5,-455.18 1316,-445.18 1312.5,-455.18 1319.5,-455.18"/>
</g>
<!-- Errors::invalid_state&#45;&gt;Errors::make -->
<g id="edge33" class="edge">
<title>Errors::invalid_state&#45;&gt;Errors::make</title>
<path fill="none" stroke="black" d="M823.22,-90.15C802.06,-78.85 772.93,-63.28 751.01,-51.57"/>
<polygon fill="black" stroke="black" points="752.57,-48.44 742.1,-46.81 749.27,-54.61 752.57,-48.44"/>
</g>
<!-- DiemTimestamp::is_operating&#45;&gt;CoreAddresses::DIEM_ROOT_ADDRESS -->
<g id="edge34" class="edge">
<title>DiemTimestamp::is_operating&#45;&gt;CoreAddresses::DIEM_ROOT_ADDRESS</title>
<path fill="none" stroke="black" d="M1601.42,-120.49C1570.21,-133.52 1521.43,-151.7 1477,-159 1446.3,-164.04 1367.62,-164.53 1337,-159 1303.06,-152.87 1266.66,-139.13 1239.21,-127.17"/>
<polygon fill="black" stroke="black" points="1240.45,-123.9 1229.89,-123.04 1237.61,-130.29 1240.45,-123.9"/>
</g>
<!-- Signer::borrow_address -->
<g id="node28" class="node">
<title>Signer::borrow_address</title>
<ellipse fill="none" stroke="black" cx="1407" cy="-34" rx="66.89" ry="18"/>
<text text-anchor="middle" x="1407" y="-30.3" font-family="Times,serif" font-size="14.00">borrow_address</text>
</g>
<!-- Signer::address_of&#45;&gt;Signer::borrow_address -->
<g id="edge35" class="edge">
<title>Signer::address_of&#45;&gt;Signer::borrow_address</title>
<path fill="none" stroke="black" d="M1407,-87.7C1407,-79.98 1407,-70.71 1407,-62.11"/>
<polygon fill="black" stroke="black" points="1410.5,-62.1 1407,-52.1 1403.5,-62.1 1410.5,-62.1"/>
</g>
<!-- Errors::not_published&#45;&gt;Errors::make -->
<g id="edge36" class="edge">
<title>Errors::not_published&#45;&gt;Errors::make</title>
<path fill="none" stroke="black" d="M612.84,-90.15C635.05,-78.73 665.7,-62.95 688.53,-51.2"/>
<polygon fill="black" stroke="black" points="690.2,-54.28 697.49,-46.59 686.99,-48.05 690.2,-54.28"/>
</g>
<!-- Errors::requires_role&#45;&gt;Errors::make -->
<g id="edge37" class="edge">
<title>Errors::requires_role&#45;&gt;Errors::make</title>
<path fill="none" stroke="black" d="M720,-87.7C720,-79.98 720,-70.71 720,-62.11"/>
<polygon fill="black" stroke="black" points="723.5,-62.1 720,-52.1 716.5,-62.1 723.5,-62.1"/>
</g>
<!-- CoreAddresses::assert_diem_root&#45;&gt;Signer::address_of -->
<g id="edge38" class="edge">
<title>CoreAddresses::assert_diem_root&#45;&gt;Signer::address_of</title>
<path fill="none" stroke="black" d="M1218.91,-179.09C1248.11,-173.79 1283.43,-165.92 1314,-155 1334.64,-147.62 1356.49,-136.54 1373.81,-126.88"/>
<polygon fill="black" stroke="black" points="1375.97,-129.68 1382.94,-121.69 1372.52,-123.59 1375.97,-129.68"/>
</g>
<!-- CoreAddresses::assert_diem_root&#45;&gt;CoreAddresses::DIEM_ROOT_ADDRESS -->
<g id="edge40" class="edge">
<title>CoreAddresses::assert_diem_root&#45;&gt;CoreAddresses::DIEM_ROOT_ADDRESS</title>
<path fill="none" stroke="black" d="M1166.63,-170.82C1171.46,-159.98 1177.78,-145.74 1183.23,-133.47"/>
<polygon fill="black" stroke="black" points="1186.51,-134.71 1187.38,-124.15 1180.12,-131.87 1186.51,-134.71"/>
</g>
<!-- Errors::requires_address -->
<g id="node29" class="node">
<title>Errors::requires_address</title>
<ellipse fill="none" stroke="black" cx="994" cy="-106" rx="69.59" ry="18"/>
<text text-anchor="middle" x="994" y="-102.3" font-family="Times,serif" font-size="14.00">requires_address</text>
</g>
<!-- CoreAddresses::assert_diem_root&#45;&gt;Errors::requires_address -->
<g id="edge39" class="edge">
<title>CoreAddresses::assert_diem_root&#45;&gt;Errors::requires_address</title>
<path fill="none" stroke="black" d="M1119.62,-173.75C1105.65,-168.32 1089.94,-161.8 1076,-155 1059.67,-147.03 1042.22,-137.04 1027.62,-128.23"/>
<polygon fill="black" stroke="black" points="1029.3,-125.15 1018.94,-122.93 1025.65,-131.13 1029.3,-125.15"/>
</g>
<!-- Vector::is_empty&#45;&gt;Vector::length -->
<g id="edge41" class="edge">
<title>Vector::is_empty&#45;&gt;Vector::length</title>
<path fill="none" stroke="black" d="M409.3,-253.82C412.64,-243.01 417.01,-228.84 420.79,-216.59"/>
<polygon fill="black" stroke="black" points="424.19,-217.46 423.79,-206.88 417.5,-215.4 424.19,-217.46"/>
</g>
<!-- DiemConfig::get&#45;&gt;Errors::not_published -->
<g id="edge42" class="edge">
<title>DiemConfig::get&#45;&gt;Errors::not_published</title>
<path fill="none" stroke="black" d="M1103.68,-422.13C1005.9,-407.51 667.39,-354.81 633,-321 606.68,-295.12 592.13,-185.86 586.62,-134.24"/>
<polygon fill="black" stroke="black" points="590.08,-133.74 585.57,-124.15 583.12,-134.45 590.08,-133.74"/>
</g>
<!-- DiemConfig::get&#45;&gt;CoreAddresses::DIEM_ROOT_ADDRESS -->
<g id="edge43" class="edge">
<title>DiemConfig::get&#45;&gt;CoreAddresses::DIEM_ROOT_ADDRESS</title>
<path fill="none" stroke="black" d="M1129.53,-408.97C1129.53,-372.8 1135.09,-288.2 1184,-246 1202.7,-229.86 1222.84,-256.68 1239,-238 1260.81,-212.79 1249.9,-194.5 1239,-163 1235,-151.43 1227.51,-140.44 1219.83,-131.3"/>
<polygon fill="black" stroke="black" points="1222.39,-128.91 1213.12,-123.78 1217.17,-133.57 1222.39,-128.91"/>
</g>
<!-- Vector::empty -->
<g id="node30" class="node">
<title>Vector::empty</title>
<ellipse fill="none" stroke="black" cx="49" cy="-189" rx="33.29" ry="18"/>
<text text-anchor="middle" x="49" y="-185.3" font-family="Times,serif" font-size="14.00">empty</text>
</g>
<!-- Option::none&#45;&gt;Vector::empty -->
<g id="edge44" class="edge">
<title>Option::none&#45;&gt;Vector::empty</title>
<path fill="none" stroke="black" d="M175.03,-419.78C133.56,-408.29 53.63,-379.4 20,-321 0.86,-287.78 18.32,-243.12 33.23,-215.47"/>
<polygon fill="black" stroke="black" points="36.46,-216.87 38.33,-206.44 30.36,-213.43 36.46,-216.87"/>
</g>
<!-- Vector::singleton -->
<g id="node31" class="node">
<title>Vector::singleton</title>
<ellipse fill="none" stroke="black" cx="162" cy="-272" rx="42.79" ry="18"/>
<text text-anchor="middle" x="162" y="-268.3" font-family="Times,serif" font-size="14.00">singleton</text>
</g>
<!-- Option::some&#45;&gt;Vector::singleton -->
<g id="edge45" class="edge">
<title>Option::some&#45;&gt;Vector::singleton</title>
<path fill="none" stroke="black" d="M360.22,-409.22C350.14,-386.66 328.88,-347.29 297,-329 264.86,-310.56 247.83,-336.14 214,-321 201.73,-315.51 190.46,-305.95 181.56,-296.8"/>
<polygon fill="black" stroke="black" points="184.03,-294.31 174.68,-289.31 178.87,-299.04 184.03,-294.31"/>
</g>
<!-- DiemConfig::set_with_capability_and_reconfigure&#45;&gt;Errors::not_published -->
<g id="edge46" class="edge">
<title>DiemConfig::set_with_capability_and_reconfigure&#45;&gt;Errors::not_published</title>
<path fill="none" stroke="black" d="M1241.03,-411.63C1131.67,-391.06 921.81,-353.04 742,-329 724.07,-326.6 675.08,-332.35 661,-321 646.64,-309.42 616.73,-180.18 610,-163 606.11,-153.07 601.32,-142.41 596.91,-133.08"/>
<polygon fill="black" stroke="black" points="600,-131.42 592.52,-123.92 593.69,-134.45 600,-131.42"/>
</g>
<!-- DiemConfig::set_with_capability_and_reconfigure&#45;&gt;CoreAddresses::DIEM_ROOT_ADDRESS -->
<g id="edge47" class="edge">
<title>DiemConfig::set_with_capability_and_reconfigure&#45;&gt;CoreAddresses::DIEM_ROOT_ADDRESS</title>
<path fill="none" stroke="black" d="M1290.68,-409.1C1265.97,-390.81 1230.22,-359.11 1217,-321 1206.08,-289.51 1195.75,-271.68 1217,-246 1229.11,-231.36 1246.89,-252.64 1259,-238 1280.25,-212.32 1272.77,-193.35 1259,-163 1253.01,-149.8 1242.2,-138.49 1231.15,-129.56"/>
<polygon fill="black" stroke="black" points="1233.22,-126.73 1223.13,-123.49 1228.99,-132.31 1233.22,-126.73"/>
</g>
<!-- DiemConfig::reconfigure_ -->
<g id="node32" class="node">
<title>DiemConfig::reconfigure_</title>
<ellipse fill="none" stroke="black" cx="1322" cy="-355" rx="55.49" ry="18"/>
<text text-anchor="middle" x="1322" y="-351.3" font-family="Times,serif" font-size="14.00">reconfigure_</text>
</g>
<!-- DiemConfig::set_with_capability_and_reconfigure&#45;&gt;DiemConfig::reconfigure_ -->
<g id="edge48" class="edge">
<title>DiemConfig::set_with_capability_and_reconfigure&#45;&gt;DiemConfig::reconfigure_</title>
<path fill="none" stroke="black" d="M1317.48,-408.7C1318.14,-400.98 1318.94,-391.71 1319.68,-383.11"/>
<polygon fill="black" stroke="black" points="1323.17,-383.37 1320.53,-373.1 1316.19,-382.77 1323.17,-383.37"/>
</g>
<!-- Errors::requires_address&#45;&gt;Errors::make -->
<g id="edge49" class="edge">
<title>Errors::requires_address&#45;&gt;Errors::make</title>
<path fill="none" stroke="black" d="M953.31,-91.24C941.35,-87.39 928.2,-83.35 916,-80 861.65,-65.08 797.9,-51.08 758.22,-42.77"/>
<polygon fill="black" stroke="black" points="758.93,-39.35 748.43,-40.74 757.5,-46.2 758.93,-39.35"/>
</g>
<!-- Vector::singleton&#45;&gt;Vector::empty -->
<g id="edge50" class="edge">
<title>Vector::singleton&#45;&gt;Vector::empty</title>
<path fill="none" stroke="black" d="M135.13,-257.77C127.09,-253.89 118.22,-249.7 110,-246 101.65,-242.24 98.43,-243.36 91,-238 81.98,-231.49 73.57,-222.69 66.68,-214.41"/>
<polygon fill="black" stroke="black" points="69.28,-212.06 60.33,-206.4 63.8,-216.41 69.28,-212.06"/>
</g>
<!-- Vector::push_back -->
<g id="node33" class="node">
<title>Vector::push_back</title>
<ellipse fill="none" stroke="black" cx="148" cy="-189" rx="48.19" ry="18"/>
<text text-anchor="middle" x="148" y="-185.3" font-family="Times,serif" font-size="14.00">push_back</text>
</g>
<!-- Vector::singleton&#45;&gt;Vector::push_back -->
<g id="edge51" class="edge">
<title>Vector::singleton&#45;&gt;Vector::push_back</title>
<path fill="none" stroke="black" d="M159.03,-253.82C157.19,-243.19 154.79,-229.31 152.7,-217.2"/>
<polygon fill="black" stroke="black" points="156.12,-216.41 150.96,-207.15 149.22,-217.6 156.12,-216.41"/>
</g>
<!-- DiemConfig::reconfigure_&#45;&gt;Errors::invalid_state -->
<g id="edge52" class="edge">
<title>DiemConfig::reconfigure_&#45;&gt;Errors::invalid_state</title>
<path fill="none" stroke="black" d="M1276.89,-344.57C1247.69,-338.91 1208.77,-332.21 1174,-329 1160.91,-327.79 710.21,-330.37 701,-321 651.77,-270.93 653.73,-214.93 701,-163 713.77,-148.97 768.28,-161.77 786,-155 800.76,-149.36 815.12,-139.39 826.57,-129.99"/>
<polygon fill="black" stroke="black" points="829.04,-132.48 834.36,-123.32 824.49,-127.17 829.04,-132.48"/>
</g>
<!-- DiemConfig::reconfigure_&#45;&gt;CoreAddresses::DIEM_ROOT_ADDRESS -->
<g id="edge53" class="edge">
<title>DiemConfig::reconfigure_&#45;&gt;CoreAddresses::DIEM_ROOT_ADDRESS</title>
<path fill="none" stroke="black" d="M1375.28,-350.17C1394.76,-345.87 1414.96,-337.41 1427,-321 1446.72,-294.13 1447.41,-272.35 1427,-246 1418.29,-234.75 1408.07,-245.54 1396,-238 1358.84,-214.78 1367.51,-188.68 1332,-163 1309.48,-146.71 1281.54,-134.19 1256.78,-125.17"/>
<polygon fill="black" stroke="black" points="1257.7,-121.78 1247.11,-121.75 1255.37,-128.38 1257.7,-121.78"/>
</g>
<!-- DiemTimestamp::is_genesis -->
<g id="node34" class="node">
<title>DiemTimestamp::is_genesis</title>
<ellipse fill="none" stroke="black" cx="1559" cy="-272" rx="46.59" ry="18"/>
<text text-anchor="middle" x="1559" y="-268.3" font-family="Times,serif" font-size="14.00">is_genesis</text>
</g>
<!-- DiemConfig::reconfigure_&#45;&gt;DiemTimestamp::is_genesis -->
<g id="edge54" class="edge">
<title>DiemConfig::reconfigure_&#45;&gt;DiemTimestamp::is_genesis</title>
<path fill="none" stroke="black" d="M1370.95,-346.42C1400,-341.09 1437.24,-332.79 1469,-321 1489.03,-313.57 1510.17,-302.48 1526.93,-292.83"/>
<polygon fill="black" stroke="black" points="1528.9,-295.73 1535.75,-287.65 1525.35,-289.69 1528.9,-295.73"/>
</g>
<!-- DiemTimestamp::now_microseconds -->
<g id="node35" class="node">
<title>DiemTimestamp::now_microseconds</title>
<ellipse fill="none" stroke="black" cx="1703" cy="-272" rx="79.09" ry="18"/>
<text text-anchor="middle" x="1703" y="-268.3" font-family="Times,serif" font-size="14.00">now_microseconds</text>
</g>
<!-- DiemConfig::reconfigure_&#45;&gt;DiemTimestamp::now_microseconds -->
<g id="edge55" class="edge">
<title>DiemConfig::reconfigure_&#45;&gt;DiemTimestamp::now_microseconds</title>
<path fill="none" stroke="black" d="M1377.31,-354.07C1437.21,-352.71 1534.94,-346.27 1615,-321 1634.28,-314.91 1654.19,-304.46 1670.18,-294.86"/>
<polygon fill="black" stroke="black" points="1672.44,-297.58 1679.11,-289.35 1668.77,-291.63 1672.44,-297.58"/>
</g>
<!-- Event::emit_event -->
<g id="node36" class="node">
<title>Event::emit_event</title>
<ellipse fill="none" stroke="black" cx="814" cy="-272" rx="50.09" ry="18"/>
<text text-anchor="middle" x="814" y="-268.3" font-family="Times,serif" font-size="14.00">emit_event</text>
</g>
<!-- DiemConfig::reconfigure_&#45;&gt;Event::emit_event -->
<g id="edge56" class="edge">
<title>DiemConfig::reconfigure_&#45;&gt;Event::emit_event</title>
<path fill="none" stroke="black" d="M1276.54,-344.68C1247.38,-339.11 1208.62,-332.46 1174,-329 1118.91,-323.49 979.03,-333.09 925,-321 898.41,-315.05 870.25,-302.79 848.94,-292.16"/>
<polygon fill="black" stroke="black" points="850.46,-289 839.96,-287.57 847.28,-295.23 850.46,-289"/>
</g>
<!-- DiemConfig::reconfiguration_enabled -->
<g id="node37" class="node">
<title>DiemConfig::reconfiguration_enabled</title>
<ellipse fill="none" stroke="black" cx="1322" cy="-272" rx="96.38" ry="18"/>
<text text-anchor="middle" x="1322" y="-268.3" font-family="Times,serif" font-size="14.00">reconfiguration_enabled</text>
</g>
<!-- DiemConfig::reconfigure_&#45;&gt;DiemConfig::reconfiguration_enabled -->
<g id="edge57" class="edge">
<title>DiemConfig::reconfigure_&#45;&gt;DiemConfig::reconfiguration_enabled</title>
<path fill="none" stroke="black" d="M1322,-336.82C1322,-326.19 1322,-312.31 1322,-300.2"/>
<polygon fill="black" stroke="black" points="1325.5,-300.15 1322,-290.15 1318.5,-300.15 1325.5,-300.15"/>
</g>
<!-- DiemTimestamp::is_genesis&#45;&gt;CoreAddresses::DIEM_ROOT_ADDRESS -->
<g id="edge58" class="edge">
<title>DiemTimestamp::is_genesis&#45;&gt;CoreAddresses::DIEM_ROOT_ADDRESS</title>
<path fill="none" stroke="black" d="M1544.78,-254.62C1522.09,-229.78 1475.03,-183.32 1424,-163 1384.22,-147.16 1369.83,-164.12 1328,-155 1298.12,-148.48 1265.82,-136.94 1240.54,-126.81"/>
<polygon fill="black" stroke="black" points="1241.79,-123.54 1231.21,-123.01 1239.15,-130.02 1241.79,-123.54"/>
</g>
<!-- DiemTimestamp::now_microseconds&#45;&gt;DiemTimestamp::assert_operating -->
<g id="edge60" class="edge">
<title>DiemTimestamp::now_microseconds&#45;&gt;DiemTimestamp::assert_operating</title>
<path fill="none" stroke="black" d="M1703,-253.82C1703,-243.19 1703,-229.31 1703,-217.2"/>
<polygon fill="black" stroke="black" points="1706.5,-217.15 1703,-207.15 1699.5,-217.15 1706.5,-217.15"/>
</g>
<!-- DiemTimestamp::now_microseconds&#45;&gt;CoreAddresses::DIEM_ROOT_ADDRESS -->
<g id="edge59" class="edge">
<title>DiemTimestamp::now_microseconds&#45;&gt;CoreAddresses::DIEM_ROOT_ADDRESS</title>
<path fill="none" stroke="black" d="M1665.86,-255.93C1653.1,-250.53 1638.82,-244.24 1626,-238 1563.58,-207.63 1555.8,-181.87 1489,-163 1420.05,-143.53 1398.24,-169.09 1328,-155 1297.69,-148.92 1265.03,-137.21 1239.65,-126.88"/>
<polygon fill="black" stroke="black" points="1240.88,-123.6 1230.3,-123 1238.2,-130.06 1240.88,-123.6"/>
</g>
<!-- Event::write_to_event_store -->
<g id="node38" class="node">
<title>Event::write_to_event_store</title>
<ellipse fill="none" stroke="black" cx="798" cy="-189" rx="85.29" ry="18"/>
<text text-anchor="middle" x="798" y="-185.3" font-family="Times,serif" font-size="14.00">write_to_event_store</text>
</g>
<!-- Event::emit_event&#45;&gt;Event::write_to_event_store -->
<g id="edge61" class="edge">
<title>Event::emit_event&#45;&gt;Event::write_to_event_store</title>
<path fill="none" stroke="black" d="M810.61,-253.82C808.51,-243.19 805.76,-229.31 803.37,-217.2"/>
<polygon fill="black" stroke="black" points="806.76,-216.29 801.39,-207.15 799.89,-217.64 806.76,-216.29"/>
</g>
<!-- DiemConfig::reconfiguration_enabled&#45;&gt;CoreAddresses::DIEM_ROOT_ADDRESS -->
<g id="edge62" class="edge">
<title>DiemConfig::reconfiguration_enabled&#45;&gt;CoreAddresses::DIEM_ROOT_ADDRESS</title>
<path fill="none" stroke="black" d="M1324.82,-253.9C1327.63,-231.01 1329.13,-190.14 1310,-163 1297.9,-145.84 1279.06,-133.72 1260.1,-125.26"/>
<polygon fill="black" stroke="black" points="1261.39,-122 1250.81,-121.39 1258.7,-128.46 1261.39,-122"/>
</g>
</g>
</svg>
