<?xml version="1.0" encoding="UTF-8" standalone="no"?>
<!DOCTYPE svg PUBLIC "-//W3C//DTD SVG 1.1//EN"
 "http://www.w3.org/Graphics/SVG/1.1/DTD/svg11.dtd">
<!-- Generated by graphviz version 2.46.1 (20210213.1702)
 -->
<!-- Title: G Pages: 1 -->
<svg width="1221pt" height="758pt"
 viewBox="0.00 0.00 1221.46 758.00" xmlns="http://www.w3.org/2000/svg" xmlns:xlink="http://www.w3.org/1999/xlink">
<g id="graph0" class="graph" transform="scale(1 1) rotate(0) translate(4 754)">
<title>G</title>
<polygon fill="white" stroke="transparent" points="-4,4 -4,-754 1217.46,-754 1217.46,4 -4,4"/>
<g id="clust1" class="cluster">
<title>cluster_Errors</title>
<polygon fill="none" stroke="black" points="212.24,-8 212.24,-166 790.24,-166 790.24,-8 212.24,-8"/>
<text text-anchor="middle" x="501.24" y="-150.8" font-family="Times,serif" font-size="14.00">Errors</text>
</g>
<g id="clust2" class="cluster">
<title>cluster_CoreAddresses</title>
<polygon fill="none" stroke="black" points="964.24,-8 964.24,-83 1194.24,-83 1194.24,-8 964.24,-8"/>
<text text-anchor="middle" x="1079.24" y="-67.8" font-family="Times,serif" font-size="14.00">CoreAddresses</text>
</g>
<g id="clust3" class="cluster">
<title>cluster_DiemTimestamp</title>
<polygon fill="none" stroke="black" points="981.24,-91 981.24,-313 1155.24,-313 1155.24,-91 981.24,-91"/>
<text text-anchor="middle" x="1068.24" y="-297.8" font-family="Times,serif" font-size="14.00">DiemTimestamp</text>
</g>
<g id="clust4" class="cluster">
<title>cluster_Diem</title>
<polygon fill="none" stroke="black" points="23.24,-631 23.24,-706 205.24,-706 205.24,-631 23.24,-631"/>
<text text-anchor="middle" x="114.24" y="-690.8" font-family="Times,serif" font-size="14.00">Diem</text>
</g>
<g id="clust5" class="cluster">
<title>cluster_AccountLimits</title>
<polygon fill="none" stroke="black" points="64.24,-321 64.24,-540 491.24,-540 491.24,-321 64.24,-321"/>
<text text-anchor="middle" x="277.74" y="-524.8" font-family="Times,serif" font-size="14.00">AccountLimits</text>
</g>
<g id="clust6" class="cluster">
<title>cluster_VASP</title>
<polygon fill="none" stroke="black" points="499.24,-393 499.24,-623 811.24,-623 811.24,-393 499.24,-393"/>
<text text-anchor="middle" x="655.24" y="-607.8" font-family="Times,serif" font-size="14.00">VASP</text>
</g>
<g id="clust7" class="cluster">
<title>cluster_AccountFreezing</title>
<polygon fill="none" stroke="black" points="965.24,-548 965.24,-706 1131.24,-706 1131.24,-548 965.24,-548"/>
<text text-anchor="middle" x="1048.24" y="-690.8" font-family="Times,serif" font-size="14.00">AccountFreezing</text>
</g>
<!-- withdraw_from_balance -->
<g id="node1" class="node">
<title>withdraw_from_balance</title>
<ellipse fill="none" stroke="black" cx="869.24" cy="-732" rx="96.68" ry="18"/>
<text text-anchor="middle" x="869.24" y="-728.3" font-family="Times,serif" font-size="14.00">withdraw_from_balance</text>
</g>
<!-- Errors::limit_exceeded -->
<g id="node2" class="node">
<title>Errors::limit_exceeded</title>
<ellipse fill="none" stroke="black" cx="423.24" cy="-117" rx="64.99" ry="18"/>
<text text-anchor="middle" x="423.24" y="-113.3" font-family="Times,serif" font-size="14.00">limit_exceeded</text>
</g>
<!-- withdraw_from_balance&#45;&gt;Errors::limit_exceeded -->
<g id="edge1" class="edge">
<title>withdraw_from_balance&#45;&gt;Errors::limit_exceeded</title>
<path fill="none" stroke="black" d="M878.09,-714.02C879.26,-711.38 880.36,-708.65 881.24,-706 900.01,-649.69 907.24,-634.36 907.24,-575 907.24,-575 907.24,-575 907.24,-263 907.24,-75.75 669.43,-239.59 497.24,-166 481.42,-159.24 465.22,-149.16 452.04,-139.99"/>
<polygon fill="black" stroke="black" points="454.01,-137.09 443.84,-134.13 449.94,-142.79 454.01,-137.09"/>
</g>
<!-- CoreAddresses::DIEM_ROOT_ADDRESS -->
<g id="node3" class="node">
<title>CoreAddresses::DIEM_ROOT_ADDRESS</title>
<ellipse fill="none" stroke="black" cx="1079.24" cy="-34" rx="106.68" ry="18"/>
<text text-anchor="middle" x="1079.24" y="-30.3" font-family="Times,serif" font-size="14.00">DIEM_ROOT_ADDRESS</text>
</g>
<!-- withdraw_from_balance&#45;&gt;CoreAddresses::DIEM_ROOT_ADDRESS -->
<g id="edge2" class="edge">
<title>withdraw_from_balance&#45;&gt;CoreAddresses::DIEM_ROOT_ADDRESS</title>
<path fill="none" stroke="black" d="M964.31,-728.2C1045.72,-724.97 1152.29,-718.42 1168.24,-706 1216.81,-668.17 1213.24,-636.56 1213.24,-575 1213.24,-575 1213.24,-575 1213.24,-191 1213.24,-131.58 1156.62,-83.49 1116.99,-57.11"/>
<polygon fill="black" stroke="black" points="1118.61,-54 1108.32,-51.5 1114.81,-59.88 1118.61,-54"/>
</g>
<!-- DiemTimestamp::assert_operating -->
<g id="node4" class="node">
<title>DiemTimestamp::assert_operating</title>
<ellipse fill="none" stroke="black" cx="1079.24" cy="-192" rx="68.49" ry="18"/>
<text text-anchor="middle" x="1079.24" y="-188.3" font-family="Times,serif" font-size="14.00">assert_operating</text>
</g>
<!-- withdraw_from_balance&#45;&gt;DiemTimestamp::assert_operating -->
<g id="edge3" class="edge">
<title>withdraw_from_balance&#45;&gt;DiemTimestamp::assert_operating</title>
<path fill="none" stroke="black" d="M962.79,-727.27C1033.94,-723.6 1121.85,-716.92 1135.24,-706 1182.42,-667.53 1175.24,-635.88 1175.24,-575 1175.24,-575 1175.24,-575 1175.24,-346 1175.24,-300.76 1180.95,-283.89 1156.24,-246 1147.44,-232.51 1133.89,-221.51 1120.59,-213.1"/>
<polygon fill="black" stroke="black" points="1122.33,-210.06 1111.95,-207.95 1118.75,-216.07 1122.33,-210.06"/>
</g>
<!-- Diem::value -->
<g id="node5" class="node">
<title>Diem::value</title>
<ellipse fill="none" stroke="black" cx="167.24" cy="-657" rx="29.8" ry="18"/>
<text text-anchor="middle" x="167.24" y="-653.3" font-family="Times,serif" font-size="14.00">value</text>
</g>
<!-- withdraw_from_balance&#45;&gt;Diem::value -->
<g id="edge4" class="edge">
<title>withdraw_from_balance&#45;&gt;Diem::value</title>
<path fill="none" stroke="black" d="M772.43,-731.42C601.78,-731.55 260.72,-728.89 211.24,-706 200.09,-700.84 190.47,-691.4 183.1,-682.26"/>
<polygon fill="black" stroke="black" points="185.77,-679.98 176.98,-674.07 180.16,-684.17 185.77,-679.98"/>
</g>
<!-- Diem::withdraw -->
<g id="node6" class="node">
<title>Diem::withdraw</title>
<ellipse fill="none" stroke="black" cx="75.24" cy="-657" rx="44.39" ry="18"/>
<text text-anchor="middle" x="75.24" y="-653.3" font-family="Times,serif" font-size="14.00">withdraw</text>
</g>
<!-- withdraw_from_balance&#45;&gt;Diem::withdraw -->
<g id="edge5" class="edge">
<title>withdraw_from_balance&#45;&gt;Diem::withdraw</title>
<path fill="none" stroke="black" d="M772.26,-731.43C584.87,-731.73 186.33,-729.53 128.24,-706 115.66,-700.9 104.15,-691.4 95.1,-682.18"/>
<polygon fill="black" stroke="black" points="97.46,-679.58 88.1,-674.62 92.32,-684.34 97.46,-679.58"/>
</g>
<!-- AccountLimits::update_withdrawal_limits -->
<g id="node7" class="node">
<title>AccountLimits::update_withdrawal_limits</title>
<ellipse fill="none" stroke="black" cx="175.24" cy="-491" rx="102.88" ry="18"/>
<text text-anchor="middle" x="175.24" y="-487.3" font-family="Times,serif" font-size="14.00">update_withdrawal_limits</text>
</g>
<!-- withdraw_from_balance&#45;&gt;AccountLimits::update_withdrawal_limits -->
<g id="edge6" class="edge">
<title>withdraw_from_balance&#45;&gt;AccountLimits::update_withdrawal_limits</title>
<path fill="none" stroke="black" d="M778.23,-725.75C625.38,-715.24 325.81,-686.94 244.24,-623 210.58,-596.62 191.53,-549.19 182.31,-519.22"/>
<polygon fill="black" stroke="black" points="185.61,-518.03 179.46,-509.41 178.89,-519.99 185.61,-518.03"/>
</g>
<!-- VASP::parent_address -->
<g id="node8" class="node">
<title>VASP::parent_address</title>
<ellipse fill="none" stroke="black" cx="739.24" cy="-491" rx="63.89" ry="18"/>
<text text-anchor="middle" x="739.24" y="-487.3" font-family="Times,serif" font-size="14.00">parent_address</text>
</g>
<!-- withdraw_from_balance&#45;&gt;VASP::parent_address -->
<g id="edge7" class="edge">
<title>withdraw_from_balance&#45;&gt;VASP::parent_address</title>
<path fill="none" stroke="black" d="M870.3,-713.81C871.57,-679.11 869.91,-599.6 833.24,-548 821.64,-531.67 803.64,-519.29 786.49,-510.38"/>
<polygon fill="black" stroke="black" points="787.61,-507.03 777.09,-505.78 784.53,-513.32 787.61,-507.03"/>
</g>
<!-- AccountFreezing::assert_not_frozen -->
<g id="node9" class="node">
<title>AccountFreezing::assert_not_frozen</title>
<ellipse fill="none" stroke="black" cx="1046.24" cy="-657" rx="73.39" ry="18"/>
<text text-anchor="middle" x="1046.24" y="-653.3" font-family="Times,serif" font-size="14.00">assert_not_frozen</text>
</g>
<!-- withdraw_from_balance&#45;&gt;AccountFreezing::assert_not_frozen -->
<g id="edge8" class="edge">
<title>withdraw_from_balance&#45;&gt;AccountFreezing::assert_not_frozen</title>
<path fill="none" stroke="black" d="M907.21,-715.34C934.68,-704.01 971.92,-688.65 1000.94,-676.68"/>
<polygon fill="black" stroke="black" points="1002.53,-679.81 1010.44,-672.76 999.87,-673.34 1002.53,-679.81"/>
</g>
<!-- should_track_limits_for_account -->
<g id="node10" class="node">
<title>should_track_limits_for_account</title>
<ellipse fill="none" stroke="black" cx="714.24" cy="-657" rx="127.28" ry="18"/>
<text text-anchor="middle" x="714.24" y="-653.3" font-family="Times,serif" font-size="14.00">should_track_limits_for_account</text>
</g>
<!-- withdraw_from_balance&#45;&gt;should_track_limits_for_account -->
<g id="edge9" class="edge">
<title>withdraw_from_balance&#45;&gt;should_track_limits_for_account</title>
<path fill="none" stroke="black" d="M835.23,-714.98C812.55,-704.3 782.52,-690.16 758.06,-678.64"/>
<polygon fill="black" stroke="black" points="759.52,-675.46 748.98,-674.36 756.54,-681.79 759.52,-675.46"/>
</g>
<!-- Errors::make -->
<g id="node11" class="node">
<title>Errors::make</title>
<ellipse fill="none" stroke="black" cx="501.24" cy="-34" rx="30.59" ry="18"/>
<text text-anchor="middle" x="501.24" y="-30.3" font-family="Times,serif" font-size="14.00">make</text>
</g>
<!-- Errors::limit_exceeded&#45;&gt;Errors::make -->
<g id="edge10" class="edge">
<title>Errors::limit_exceeded&#45;&gt;Errors::make</title>
<path fill="none" stroke="black" d="M439.4,-99.22C451.04,-87.13 466.87,-70.69 479.6,-57.48"/>
<polygon fill="black" stroke="black" points="482.26,-59.75 486.68,-50.12 477.22,-54.9 482.26,-59.75"/>
</g>
<!-- Errors::invalid_state -->
<g id="node12" class="node">
<title>Errors::invalid_state</title>
<ellipse fill="none" stroke="black" cx="726.24" cy="-117" rx="55.79" ry="18"/>
<text text-anchor="middle" x="726.24" y="-113.3" font-family="Times,serif" font-size="14.00">invalid_state</text>
</g>
<!-- DiemTimestamp::assert_operating&#45;&gt;Errors::invalid_state -->
<g id="edge11" class="edge">
<title>DiemTimestamp::assert_operating&#45;&gt;Errors::invalid_state</title>
<path fill="none" stroke="black" d="M1027.15,-180.23C961.57,-166.67 849.37,-143.46 782.07,-129.55"/>
<polygon fill="black" stroke="black" points="782.58,-126.08 772.08,-127.48 781.16,-132.93 782.58,-126.08"/>
</g>
<!-- DiemTimestamp::is_operating -->
<g id="node13" class="node">
<title>DiemTimestamp::is_operating</title>
<ellipse fill="none" stroke="black" cx="1079.24" cy="-117" rx="53.89" ry="18"/>
<text text-anchor="middle" x="1079.24" y="-113.3" font-family="Times,serif" font-size="14.00">is_operating</text>
</g>
<!-- DiemTimestamp::assert_operating&#45;&gt;DiemTimestamp::is_operating -->
<g id="edge12" class="edge">
<title>DiemTimestamp::assert_operating&#45;&gt;DiemTimestamp::is_operating</title>
<path fill="none" stroke="black" d="M1079.24,-173.7C1079.24,-165.25 1079.24,-154.87 1079.24,-145.37"/>
<polygon fill="black" stroke="black" points="1082.74,-145.18 1079.24,-135.18 1075.74,-145.18 1082.74,-145.18"/>
</g>
<!-- Diem::withdraw&#45;&gt;Errors::limit_exceeded -->
<g id="edge13" class="edge">
<title>Diem::withdraw&#45;&gt;Errors::limit_exceeded</title>
<path fill="none" stroke="black" d="M68.5,-638.85C49.26,-586.83 -0.81,-427.93 60.24,-321 123.96,-209.39 189.21,-219.91 309.24,-174 326.17,-167.52 332.45,-172.83 349.24,-166 365.3,-159.47 381.62,-149.33 394.84,-140.05"/>
<polygon fill="black" stroke="black" points="396.99,-142.81 403.04,-134.12 392.89,-137.14 396.99,-142.81"/>
</g>
<!-- Errors::not_published -->
<g id="node14" class="node">
<title>Errors::not_published</title>
<ellipse fill="none" stroke="black" cx="280.24" cy="-117" rx="60.39" ry="18"/>
<text text-anchor="middle" x="280.24" y="-113.3" font-family="Times,serif" font-size="14.00">not_published</text>
</g>
<!-- AccountLimits::update_withdrawal_limits&#45;&gt;Errors::not_published -->
<g id="edge14" class="edge">
<title>AccountLimits::update_withdrawal_limits&#45;&gt;Errors::not_published</title>
<path fill="none" stroke="black" d="M143.76,-473.84C128.96,-464.81 112.2,-452.28 101.24,-437 30.81,-338.8 -43.21,-268.39 32.24,-174 54.44,-146.22 146.95,-131.23 212.46,-123.93"/>
<polygon fill="black" stroke="black" points="213.16,-127.37 222.72,-122.82 212.41,-120.41 213.16,-127.37"/>
</g>
<!-- AccountLimits::can_withdraw_and_update_window -->
<g id="node15" class="node">
<title>AccountLimits::can_withdraw_and_update_window</title>
<ellipse fill="none" stroke="black" cx="248.24" cy="-419" rx="137.58" ry="18"/>
<text text-anchor="middle" x="248.24" y="-415.3" font-family="Times,serif" font-size="14.00">can_withdraw_and_update_window</text>
</g>
<!-- AccountLimits::update_withdrawal_limits&#45;&gt;AccountLimits::can_withdraw_and_update_window -->
<g id="edge15" class="edge">
<title>AccountLimits::update_withdrawal_limits&#45;&gt;AccountLimits::can_withdraw_and_update_window</title>
<path fill="none" stroke="black" d="M192.91,-473.05C201.99,-464.35 213.21,-453.59 223.17,-444.04"/>
<polygon fill="black" stroke="black" points="225.68,-446.48 230.48,-437.03 220.84,-441.43 225.68,-446.48"/>
</g>
<!-- Errors::invalid_argument -->
<g id="node16" class="node">
<title>Errors::invalid_argument</title>
<ellipse fill="none" stroke="black" cx="579.24" cy="-117" rx="73.39" ry="18"/>
<text text-anchor="middle" x="579.24" y="-113.3" font-family="Times,serif" font-size="14.00">invalid_argument</text>
</g>
<!-- VASP::parent_address&#45;&gt;Errors::invalid_argument -->
<g id="edge16" class="edge">
<title>VASP::parent_address&#45;&gt;Errors::invalid_argument</title>
<path fill="none" stroke="black" d="M744.3,-472.68C751.6,-446.11 764.24,-393.56 764.24,-348 764.24,-348 764.24,-348 764.24,-263 764.24,-243.91 665.44,-175.28 612.24,-139.72"/>
<polygon fill="black" stroke="black" points="614.07,-136.73 603.81,-134.1 610.19,-142.55 614.07,-136.73"/>
</g>
<!-- VASP::is_child -->
<g id="node17" class="node">
<title>VASP::is_child</title>
<ellipse fill="none" stroke="black" cx="594.24" cy="-419" rx="38.19" ry="18"/>
<text text-anchor="middle" x="594.24" y="-415.3" font-family="Times,serif" font-size="14.00">is_child</text>
</g>
<!-- VASP::parent_address&#45;&gt;VASP::is_child -->
<g id="edge17" class="edge">
<title>VASP::parent_address&#45;&gt;VASP::is_child</title>
<path fill="none" stroke="black" d="M708.49,-475.15C685.3,-463.96 653.46,-448.59 629.29,-436.92"/>
<polygon fill="black" stroke="black" points="630.63,-433.68 620.1,-432.48 627.58,-439.98 630.63,-433.68"/>
</g>
<!-- VASP::is_parent -->
<g id="node18" class="node">
<title>VASP::is_parent</title>
<ellipse fill="none" stroke="black" cx="693.24" cy="-419" rx="42.79" ry="18"/>
<text text-anchor="middle" x="693.24" y="-415.3" font-family="Times,serif" font-size="14.00">is_parent</text>
</g>
<!-- VASP::parent_address&#45;&gt;VASP::is_parent -->
<g id="edge18" class="edge">
<title>VASP::parent_address&#45;&gt;VASP::is_parent</title>
<path fill="none" stroke="black" d="M728.11,-473.05C722.62,-464.71 715.91,-454.49 709.83,-445.25"/>
<polygon fill="black" stroke="black" points="712.69,-443.22 704.27,-436.79 706.84,-447.07 712.69,-443.22"/>
</g>
<!-- AccountFreezing::assert_not_frozen&#45;&gt;Errors::invalid_state -->
<g id="edge19" class="edge">
<title>AccountFreezing::assert_not_frozen&#45;&gt;Errors::invalid_state</title>
<path fill="none" stroke="black" d="M994.02,-644.34C982.68,-639.49 971.83,-632.65 964.24,-623 927.89,-576.74 945.24,-550.83 945.24,-492 945.24,-492 945.24,-492 945.24,-263 945.24,-222.03 949.97,-203.2 921.24,-174 887.39,-139.6 833.92,-125.98 791.52,-120.75"/>
<polygon fill="black" stroke="black" points="791.88,-117.27 781.55,-119.65 791.11,-124.23 791.88,-117.27"/>
</g>
<!-- AccountFreezing::account_is_frozen -->
<g id="node19" class="node">
<title>AccountFreezing::account_is_frozen</title>
<ellipse fill="none" stroke="black" cx="1048.24" cy="-574" rx="75.29" ry="18"/>
<text text-anchor="middle" x="1048.24" y="-570.3" font-family="Times,serif" font-size="14.00">account_is_frozen</text>
</g>
<!-- AccountFreezing::assert_not_frozen&#45;&gt;AccountFreezing::account_is_frozen -->
<g id="edge20" class="edge">
<title>AccountFreezing::assert_not_frozen&#45;&gt;AccountFreezing::account_is_frozen</title>
<path fill="none" stroke="black" d="M1046.66,-638.82C1046.93,-628.19 1047.27,-614.31 1047.57,-602.2"/>
<polygon fill="black" stroke="black" points="1051.07,-602.24 1047.82,-592.15 1044.07,-602.06 1051.07,-602.24"/>
</g>
<!-- VASP::is_same_vasp -->
<g id="node20" class="node">
<title>VASP::is_same_vasp</title>
<ellipse fill="none" stroke="black" cx="743.24" cy="-574" rx="59.59" ry="18"/>
<text text-anchor="middle" x="743.24" y="-570.3" font-family="Times,serif" font-size="14.00">is_same_vasp</text>
</g>
<!-- should_track_limits_for_account&#45;&gt;VASP::is_same_vasp -->
<g id="edge21" class="edge">
<title>should_track_limits_for_account&#45;&gt;VASP::is_same_vasp</title>
<path fill="none" stroke="black" d="M720.39,-638.82C724.24,-628.08 729.27,-614.03 733.63,-601.84"/>
<polygon fill="black" stroke="black" points="737.02,-602.75 737.1,-592.15 730.43,-600.39 737.02,-602.75"/>
</g>
<!-- VASP::is_vasp -->
<g id="node21" class="node">
<title>VASP::is_vasp</title>
<ellipse fill="none" stroke="black" cx="620.24" cy="-491" rx="37.09" ry="18"/>
<text text-anchor="middle" x="620.24" y="-487.3" font-family="Times,serif" font-size="14.00">is_vasp</text>
</g>
<!-- should_track_limits_for_account&#45;&gt;VASP::is_vasp -->
<g id="edge22" class="edge">
<title>should_track_limits_for_account&#45;&gt;VASP::is_vasp</title>
<path fill="none" stroke="black" d="M789.01,-642.24C798.1,-637.56 806.27,-631.31 812.24,-623 831.69,-595.93 835.16,-572.21 812.24,-548 801.07,-536.2 681,-546.78 666.24,-540 655,-534.83 645.11,-525.58 637.4,-516.57"/>
<polygon fill="black" stroke="black" points="639.94,-514.13 630.97,-508.48 634.46,-518.48 639.94,-514.13"/>
</g>
<!-- has_published_account_limits -->
<g id="node22" class="node">
<title>has_published_account_limits</title>
<ellipse fill="none" stroke="black" cx="371.24" cy="-574" rx="117.78" ry="18"/>
<text text-anchor="middle" x="371.24" y="-570.3" font-family="Times,serif" font-size="14.00">has_published_account_limits</text>
</g>
<!-- should_track_limits_for_account&#45;&gt;has_published_account_limits -->
<g id="edge23" class="edge">
<title>should_track_limits_for_account&#45;&gt;has_published_account_limits</title>
<path fill="none" stroke="black" d="M614.91,-645.73C577.07,-640.59 533.8,-633.23 495.24,-623 468.37,-615.87 439.35,-604.83 416.14,-595.13"/>
<polygon fill="black" stroke="black" points="417.47,-591.89 406.9,-591.21 414.74,-598.34 417.47,-591.89"/>
</g>
<!-- Errors::invalid_state&#45;&gt;Errors::make -->
<g id="edge24" class="edge">
<title>Errors::invalid_state&#45;&gt;Errors::make</title>
<path fill="none" stroke="black" d="M692.24,-102.7C682.28,-98.86 671.34,-94.71 661.24,-91 618.55,-75.32 569.11,-58.17 536.61,-47.03"/>
<polygon fill="black" stroke="black" points="537.69,-43.7 527.1,-43.78 535.43,-50.33 537.69,-43.7"/>
</g>
<!-- DiemTimestamp::is_operating&#45;&gt;CoreAddresses::DIEM_ROOT_ADDRESS -->
<g id="edge25" class="edge">
<title>DiemTimestamp::is_operating&#45;&gt;CoreAddresses::DIEM_ROOT_ADDRESS</title>
<path fill="none" stroke="black" d="M1079.24,-98.82C1079.24,-88.19 1079.24,-74.31 1079.24,-62.2"/>
<polygon fill="black" stroke="black" points="1082.74,-62.15 1079.24,-52.15 1075.74,-62.15 1082.74,-62.15"/>
</g>
<!-- Errors::not_published&#45;&gt;Errors::make -->
<g id="edge26" class="edge">
<title>Errors::not_published&#45;&gt;Errors::make</title>
<path fill="none" stroke="black" d="M316.73,-102.62C358.3,-87.39 425.72,-62.68 466.53,-47.72"/>
<polygon fill="black" stroke="black" points="467.87,-50.96 476.05,-44.23 465.46,-44.39 467.87,-50.96"/>
</g>
<!-- AccountLimits::can_withdraw_and_update_window&#45;&gt;Errors::limit_exceeded -->
<g id="edge27" class="edge">
<title>AccountLimits::can_withdraw_and_update_window&#45;&gt;Errors::limit_exceeded</title>
<path fill="none" stroke="black" d="M232.63,-400.77C224.87,-391.03 216.29,-378.18 212.24,-365 206.49,-346.31 204.58,-338.99 212.24,-321 231.47,-275.82 341.81,-183.25 394.82,-140.52"/>
<polygon fill="black" stroke="black" points="397.21,-143.09 402.81,-134.11 392.82,-137.64 397.21,-143.09"/>
</g>
<!-- AccountLimits::can_withdraw_and_update_window&#45;&gt;Errors::not_published -->
<g id="edge28" class="edge">
<title>AccountLimits::can_withdraw_and_update_window&#45;&gt;Errors::not_published</title>
<path fill="none" stroke="black" d="M215.13,-401.43C201.37,-392.65 186.85,-380.45 179.24,-365 141.71,-288.86 136.16,-247.15 179.24,-174 190.17,-155.44 209.71,-142.6 228.71,-133.94"/>
<polygon fill="black" stroke="black" points="230.12,-137.15 237.96,-130.02 227.38,-130.7 230.12,-137.15"/>
</g>
<!-- AccountLimits::is_unrestricted -->
<g id="node23" class="node">
<title>AccountLimits::is_unrestricted</title>
<ellipse fill="none" stroke="black" cx="283.24" cy="-347" rx="62.29" ry="18"/>
<text text-anchor="middle" x="283.24" y="-343.3" font-family="Times,serif" font-size="14.00">is_unrestricted</text>
</g>
<!-- AccountLimits::can_withdraw_and_update_window&#45;&gt;AccountLimits::is_unrestricted -->
<g id="edge29" class="edge">
<title>AccountLimits::can_withdraw_and_update_window&#45;&gt;AccountLimits::is_unrestricted</title>
<path fill="none" stroke="black" d="M256.89,-400.7C260.88,-392.73 265.69,-383.1 270.11,-374.26"/>
<polygon fill="black" stroke="black" points="273.35,-375.61 274.69,-365.1 267.09,-372.48 273.35,-375.61"/>
</g>
<!-- AccountLimits::reset_window -->
<g id="node24" class="node">
<title>AccountLimits::reset_window</title>
<ellipse fill="none" stroke="black" cx="423.24" cy="-347" rx="59.59" ry="18"/>
<text text-anchor="middle" x="423.24" y="-343.3" font-family="Times,serif" font-size="14.00">reset_window</text>
</g>
<!-- AccountLimits::can_withdraw_and_update_window&#45;&gt;AccountLimits::reset_window -->
<g id="edge30" class="edge">
<title>AccountLimits::can_withdraw_and_update_window&#45;&gt;AccountLimits::reset_window</title>
<path fill="none" stroke="black" d="M288.83,-401.76C315.93,-390.93 351.54,-376.68 379.31,-365.57"/>
<polygon fill="black" stroke="black" points="380.79,-368.75 388.77,-361.79 378.19,-362.25 380.79,-368.75"/>
</g>
<!-- Errors::invalid_argument&#45;&gt;Errors::make -->
<g id="edge31" class="edge">
<title>Errors::invalid_argument&#45;&gt;Errors::make</title>
<path fill="none" stroke="black" d="M563.08,-99.22C551.44,-87.13 535.61,-70.69 522.88,-57.48"/>
<polygon fill="black" stroke="black" points="525.26,-54.9 515.8,-50.12 520.22,-59.75 525.26,-54.9"/>
</g>
<!-- VASP::is_same_vasp&#45;&gt;VASP::parent_address -->
<g id="edge33" class="edge">
<title>VASP::is_same_vasp&#45;&gt;VASP::parent_address</title>
<path fill="none" stroke="black" d="M742.39,-555.82C741.87,-545.19 741.18,-531.31 740.58,-519.2"/>
<polygon fill="black" stroke="black" points="744.08,-518.97 740.09,-509.15 737.09,-519.31 744.08,-518.97"/>
</g>
<!-- VASP::is_same_vasp&#45;&gt;VASP::is_vasp -->
<g id="edge32" class="edge">
<title>VASP::is_same_vasp&#45;&gt;VASP::is_vasp</title>
<path fill="none" stroke="black" d="M704.84,-560.08C691.99,-554.85 677.96,-548.12 666.24,-540 656.61,-533.33 647.38,-524.39 639.75,-516.05"/>
<polygon fill="black" stroke="black" points="642.19,-513.52 632.96,-508.31 636.93,-518.14 642.19,-513.52"/>
</g>
<!-- VASP::is_vasp&#45;&gt;VASP::is_child -->
<g id="edge34" class="edge">
<title>VASP::is_vasp&#45;&gt;VASP::is_child</title>
<path fill="none" stroke="black" d="M613.95,-473.05C610.98,-465.06 607.36,-455.33 604.05,-446.4"/>
<polygon fill="black" stroke="black" points="607.24,-444.94 600.48,-436.79 600.68,-447.38 607.24,-444.94"/>
</g>
<!-- VASP::is_vasp&#45;&gt;VASP::is_parent -->
<g id="edge35" class="edge">
<title>VASP::is_vasp&#45;&gt;VASP::is_parent</title>
<path fill="none" stroke="black" d="M636.44,-474.46C646.11,-465.2 658.56,-453.25 669.34,-442.92"/>
<polygon fill="black" stroke="black" points="672.04,-445.18 676.83,-435.73 667.19,-440.13 672.04,-445.18"/>
</g>
<!-- has_published_account_limits&#45;&gt;VASP::is_vasp -->
<g id="edge38" class="edge">
<title>has_published_account_limits&#45;&gt;VASP::is_vasp</title>
<path fill="none" stroke="black" d="M431.22,-558.41C451.67,-553.08 474.58,-546.7 495.24,-540 525.5,-530.19 559.13,-517.16 583.87,-507.14"/>
<polygon fill="black" stroke="black" points="585.29,-510.35 593.23,-503.33 582.65,-503.86 585.29,-510.35"/>
</g>
<!-- AccountLimits::has_window_published -->
<g id="node25" class="node">
<title>AccountLimits::has_window_published</title>
<ellipse fill="none" stroke="black" cx="389.24" cy="-491" rx="93.68" ry="18"/>
<text text-anchor="middle" x="389.24" y="-487.3" font-family="Times,serif" font-size="14.00">has_window_published</text>
</g>
<!-- has_published_account_limits&#45;&gt;AccountLimits::has_window_published -->
<g id="edge36" class="edge">
<title>has_published_account_limits&#45;&gt;AccountLimits::has_window_published</title>
<path fill="none" stroke="black" d="M375.06,-555.82C377.42,-545.19 380.51,-531.31 383.2,-519.2"/>
<polygon fill="black" stroke="black" points="386.68,-519.67 385.43,-509.15 379.84,-518.16 386.68,-519.67"/>
</g>
<!-- VASP::has_account_limits -->
<g id="node26" class="node">
<title>VASP::has_account_limits</title>
<ellipse fill="none" stroke="black" cx="586.24" cy="-574" rx="79.09" ry="18"/>
<text text-anchor="middle" x="586.24" y="-570.3" font-family="Times,serif" font-size="14.00">has_account_limits</text>
</g>
<!-- has_published_account_limits&#45;&gt;VASP::has_account_limits -->
<g id="edge37" class="edge">
<title>has_published_account_limits&#45;&gt;VASP::has_account_limits</title>
<path fill="none" stroke="black" d="M489.24,-574C491.69,-574 494.14,-574 496.59,-574"/>
<polygon fill="black" stroke="black" points="496.67,-577.5 506.67,-574 496.67,-570.5 496.67,-577.5"/>
</g>
<!-- AccountLimits::reset_window&#45;&gt;Errors::limit_exceeded -->
<g id="edge39" class="edge">
<title>AccountLimits::reset_window&#45;&gt;Errors::limit_exceeded</title>
<path fill="none" stroke="black" d="M423.24,-328.86C423.24,-289.57 423.24,-192.7 423.24,-145.18"/>
<polygon fill="black" stroke="black" points="426.74,-145.02 423.24,-135.02 419.74,-145.02 426.74,-145.02"/>
</g>
<!-- DiemTimestamp::now_microseconds -->
<g id="node27" class="node">
<title>DiemTimestamp::now_microseconds</title>
<ellipse fill="none" stroke="black" cx="1068.24" cy="-264" rx="79.09" ry="18"/>
<text text-anchor="middle" x="1068.24" y="-260.3" font-family="Times,serif" font-size="14.00">now_microseconds</text>
</g>
<!-- AccountLimits::reset_window&#45;&gt;DiemTimestamp::now_microseconds -->
<g id="edge40" class="edge">
<title>AccountLimits::reset_window&#45;&gt;DiemTimestamp::now_microseconds</title>
<path fill="none" stroke="black" d="M477.4,-339.2C591.78,-324.84 858.27,-291.37 990.7,-274.74"/>
<polygon fill="black" stroke="black" points="991.28,-278.19 1000.77,-273.47 990.41,-271.25 991.28,-278.19"/>
</g>
<!-- VASP::has_account_limits&#45;&gt;VASP::parent_address -->
<g id="edge42" class="edge">
<title>VASP::has_account_limits&#45;&gt;VASP::parent_address</title>
<path fill="none" stroke="black" d="M625.99,-558.34C639.05,-553.07 653.49,-546.74 666.24,-540 680.73,-532.34 695.99,-522.59 708.8,-513.89"/>
<polygon fill="black" stroke="black" points="710.99,-516.63 717.23,-508.06 707.01,-510.87 710.99,-516.63"/>
</g>
<!-- VASP::has_account_limits&#45;&gt;AccountLimits::has_window_published -->
<g id="edge41" class="edge">
<title>VASP::has_account_limits&#45;&gt;AccountLimits::has_window_published</title>
<path fill="none" stroke="black" d="M544.3,-558.56C528.79,-553.01 511.12,-546.46 495.24,-540 474.18,-531.43 451.14,-521.11 431.94,-512.24"/>
<polygon fill="black" stroke="black" points="433.39,-509.06 422.85,-508.02 430.44,-515.41 433.39,-509.06"/>
</g>
<!-- DiemTimestamp::now_microseconds&#45;&gt;CoreAddresses::DIEM_ROOT_ADDRESS -->
<g id="edge43" class="edge">
<title>DiemTimestamp::now_microseconds&#45;&gt;CoreAddresses::DIEM_ROOT_ADDRESS</title>
<path fill="none" stroke="black" d="M1038.26,-247.26C1024.59,-238.33 1009.8,-225.77 1002.24,-210 995.32,-195.57 1000.91,-189.94 1002.24,-174 1005.36,-136.72 998.12,-123.73 1016.24,-91 1023.31,-78.23 1034.44,-66.9 1045.39,-57.84"/>
<polygon fill="black" stroke="black" points="1047.57,-60.58 1053.27,-51.65 1043.25,-55.07 1047.57,-60.58"/>
</g>
<!-- DiemTimestamp::now_microseconds&#45;&gt;DiemTimestamp::assert_operating -->
<g id="edge44" class="edge">
<title>DiemTimestamp::now_microseconds&#45;&gt;DiemTimestamp::assert_operating</title>
<path fill="none" stroke="black" d="M1070.96,-245.7C1072.17,-237.98 1073.63,-228.71 1074.98,-220.11"/>
<polygon fill="black" stroke="black" points="1078.46,-220.53 1076.55,-210.1 1071.54,-219.44 1078.46,-220.53"/>
</g>
</g>
</svg>
