<?xml version="1.0" encoding="UTF-8" standalone="no"?>
<!DOCTYPE svg PUBLIC "-//W3C//DTD SVG 1.1//EN"
 "http://www.w3.org/Graphics/SVG/1.1/DTD/svg11.dtd">
<!-- Generated by graphviz version 2.46.1 (20210213.1702)
 -->
<!-- Title: G Pages: 1 -->
<svg width="718pt" height="365pt"
 viewBox="0.00 0.00 718.00 365.00" xmlns="http://www.w3.org/2000/svg" xmlns:xlink="http://www.w3.org/1999/xlink">
<g id="graph0" class="graph" transform="scale(1 1) rotate(0) translate(4 361)">
<title>G</title>
<polygon fill="white" stroke="transparent" points="-4,4 -4,-361 714,-361 714,4 -4,4"/>
<g id="clust1" class="cluster">
<title>cluster_Errors</title>
<polygon fill="none" stroke="black" points="8,-8 8,-158 422,-158 422,-8 8,-8"/>
<text text-anchor="middle" x="215" y="-142.8" font-family="Times,serif" font-size="14.00">Errors</text>
</g>
<g id="clust2" class="cluster">
<title>cluster_CoreAddresses</title>
<polygon fill="none" stroke="black" points="430,-8 430,-83 702,-83 702,-8 430,-8"/>
<text text-anchor="middle" x="566" y="-67.8" font-family="Times,serif" font-size="14.00">CoreAddresses</text>
</g>
<g id="clust3" class="cluster">
<title>cluster_Event</title>
<polygon fill="none" stroke="black" points="189,-166 189,-313 375,-313 375,-166 189,-166"/>
<text text-anchor="middle" x="282" y="-297.8" font-family="Times,serif" font-size="14.00">Event</text>
</g>
<!-- mint_with_capability -->
<g id="node1" class="node">
<title>mint_with_capability</title>
<ellipse fill="none" stroke="black" cx="353" cy="-339" rx="86.38" ry="18"/>
<text text-anchor="middle" x="353" y="-335.3" font-family="Times,serif" font-size="14.00">mint_with_capability</text>
</g>
<!-- Errors::invalid_state -->
<g id="node2" class="node">
<title>Errors::invalid_state</title>
<ellipse fill="none" stroke="black" cx="72" cy="-109" rx="55.79" ry="18"/>
<text text-anchor="middle" x="72" y="-105.3" font-family="Times,serif" font-size="14.00">invalid_state</text>
</g>
<!-- mint_with_capability&#45;&gt;Errors::invalid_state -->
<g id="edge1" class="edge">
<title>mint_with_capability&#45;&gt;Errors::invalid_state</title>
<path fill="none" stroke="black" d="M268.23,-335.27C224.27,-332.28 176.24,-326.02 159,-313 101.91,-269.87 81.82,-181.75 75.13,-137.15"/>
<polygon fill="black" stroke="black" points="78.57,-136.48 73.73,-127.05 71.63,-137.44 78.57,-136.48"/>
</g>
<!-- Errors::limit_exceeded -->
<g id="node3" class="node">
<title>Errors::limit_exceeded</title>
<ellipse fill="none" stroke="black" cx="211" cy="-109" rx="64.99" ry="18"/>
<text text-anchor="middle" x="211" y="-105.3" font-family="Times,serif" font-size="14.00">limit_exceeded</text>
</g>
<!-- mint_with_capability&#45;&gt;Errors::limit_exceeded -->
<g id="edge2" class="edge">
<title>mint_with_capability&#45;&gt;Errors::limit_exceeded</title>
<path fill="none" stroke="black" d="M268.16,-335.45C232.32,-332.41 196.26,-326.06 185,-313 141.84,-262.95 175.13,-178.46 196.56,-136"/>
<polygon fill="black" stroke="black" points="199.79,-137.36 201.3,-126.88 193.58,-134.13 199.79,-137.36"/>
</g>
<!-- CoreAddresses::CURRENCY_INFO_ADDRESS -->
<g id="node4" class="node">
<title>CoreAddresses::CURRENCY_INFO_ADDRESS</title>
<ellipse fill="none" stroke="black" cx="566" cy="-34" rx="128.08" ry="18"/>
<text text-anchor="middle" x="566" y="-30.3" font-family="Times,serif" font-size="14.00">CURRENCY_INFO_ADDRESS</text>
</g>
<!-- mint_with_capability&#45;&gt;CoreAddresses::CURRENCY_INFO_ADDRESS -->
<g id="edge3" class="edge">
<title>mint_with_capability&#45;&gt;CoreAddresses::CURRENCY_INFO_ADDRESS</title>
<path fill="none" stroke="black" d="M439.12,-337.25C485.87,-334.96 537.45,-328.76 554,-313 622.99,-247.29 592.8,-117.83 575.3,-61.84"/>
<polygon fill="black" stroke="black" points="578.62,-60.71 572.21,-52.28 571.96,-62.87 578.62,-60.71"/>
</g>
<!-- Event::emit_event -->
<g id="node5" class="node">
<title>Event::emit_event</title>
<ellipse fill="none" stroke="black" cx="298" cy="-264" rx="50.09" ry="18"/>
<text text-anchor="middle" x="298" y="-260.3" font-family="Times,serif" font-size="14.00">emit_event</text>
</g>
<!-- mint_with_capability&#45;&gt;Event::emit_event -->
<g id="edge4" class="edge">
<title>mint_with_capability&#45;&gt;Event::emit_event</title>
<path fill="none" stroke="black" d="M340.24,-321.07C333.25,-311.79 324.46,-300.11 316.7,-289.82"/>
<polygon fill="black" stroke="black" points="319.31,-287.47 310.5,-281.59 313.72,-291.68 319.31,-287.47"/>
</g>
<!-- currency_code -->
<g id="node6" class="node">
<title>currency_code</title>
<ellipse fill="none" stroke="black" cx="483" cy="-264" rx="62.29" ry="18"/>
<text text-anchor="middle" x="483" y="-260.3" font-family="Times,serif" font-size="14.00">currency_code</text>
</g>
<!-- mint_with_capability&#45;&gt;currency_code -->
<g id="edge5" class="edge">
<title>mint_with_capability&#45;&gt;currency_code</title>
<path fill="none" stroke="black" d="M388.19,-322.51C394.52,-319.5 401.01,-316.26 407,-313 421.95,-304.86 437.97,-294.94 451.42,-286.24"/>
<polygon fill="black" stroke="black" points="453.4,-289.12 459.85,-280.72 449.57,-283.27 453.4,-289.12"/>
</g>
<!-- assert_is_currency -->
<g id="node7" class="node">
<title>assert_is_currency</title>
<ellipse fill="none" stroke="black" cx="461" cy="-192" rx="76.09" ry="18"/>
<text text-anchor="middle" x="461" y="-188.3" font-family="Times,serif" font-size="14.00">assert_is_currency</text>
</g>
<!-- mint_with_capability&#45;&gt;assert_is_currency -->
<g id="edge6" class="edge">
<title>mint_with_capability&#45;&gt;assert_is_currency</title>
<path fill="none" stroke="black" d="M372.02,-321.25C374.52,-318.62 376.93,-315.83 379,-313 398.59,-286.2 393.2,-273.36 412,-246 419.02,-235.77 427.94,-225.53 436.24,-216.81"/>
<polygon fill="black" stroke="black" points="438.82,-219.18 443.31,-209.58 433.82,-214.29 438.82,-219.18"/>
</g>
<!-- Errors::make -->
<g id="node8" class="node">
<title>Errors::make</title>
<ellipse fill="none" stroke="black" cx="211" cy="-34" rx="30.59" ry="18"/>
<text text-anchor="middle" x="211" y="-30.3" font-family="Times,serif" font-size="14.00">make</text>
</g>
<!-- Errors::invalid_state&#45;&gt;Errors::make -->
<g id="edge7" class="edge">
<title>Errors::invalid_state&#45;&gt;Errors::make</title>
<path fill="none" stroke="black" d="M100.13,-93.23C123.24,-81.09 155.95,-63.91 179.85,-51.36"/>
<polygon fill="black" stroke="black" points="181.63,-54.38 188.85,-46.63 178.37,-48.18 181.63,-54.38"/>
</g>
<!-- Errors::limit_exceeded&#45;&gt;Errors::make -->
<g id="edge8" class="edge">
<title>Errors::limit_exceeded&#45;&gt;Errors::make</title>
<path fill="none" stroke="black" d="M211,-90.7C211,-82.25 211,-71.87 211,-62.37"/>
<polygon fill="black" stroke="black" points="214.5,-62.18 211,-52.18 207.5,-62.18 214.5,-62.18"/>
</g>
<!-- Event::write_to_event_store -->
<g id="node9" class="node">
<title>Event::write_to_event_store</title>
<ellipse fill="none" stroke="black" cx="282" cy="-192" rx="85.29" ry="18"/>
<text text-anchor="middle" x="282" y="-188.3" font-family="Times,serif" font-size="14.00">write_to_event_store</text>
</g>
<!-- Event::emit_event&#45;&gt;Event::write_to_event_store -->
<g id="edge9" class="edge">
<title>Event::emit_event&#45;&gt;Event::write_to_event_store</title>
<path fill="none" stroke="black" d="M294.04,-245.7C292.28,-237.98 290.16,-228.71 288.2,-220.11"/>
<polygon fill="black" stroke="black" points="291.55,-219.07 285.91,-210.1 284.73,-220.63 291.55,-219.07"/>
</g>
<!-- currency_code&#45;&gt;CoreAddresses::CURRENCY_INFO_ADDRESS -->
<g id="edge10" class="edge">
<title>currency_code&#45;&gt;CoreAddresses::CURRENCY_INFO_ADDRESS</title>
<path fill="none" stroke="black" d="M509.61,-247.49C522.82,-238.33 537.69,-225.49 546,-210 571.29,-162.87 571.36,-98.45 568.87,-62.37"/>
<polygon fill="black" stroke="black" points="572.33,-61.81 568.03,-52.13 565.35,-62.38 572.33,-61.81"/>
</g>
<!-- currency_code&#45;&gt;assert_is_currency -->
<g id="edge11" class="edge">
<title>currency_code&#45;&gt;assert_is_currency</title>
<path fill="none" stroke="black" d="M477.67,-246.05C475.22,-238.26 472.26,-228.82 469.51,-220.08"/>
<polygon fill="black" stroke="black" points="472.77,-218.77 466.43,-210.28 466.09,-220.86 472.77,-218.77"/>
</g>
<!-- Errors::not_published -->
<g id="node10" class="node">
<title>Errors::not_published</title>
<ellipse fill="none" stroke="black" cx="354" cy="-109" rx="60.39" ry="18"/>
<text text-anchor="middle" x="354" y="-105.3" font-family="Times,serif" font-size="14.00">not_published</text>
</g>
<!-- assert_is_currency&#45;&gt;Errors::not_published -->
<g id="edge12" class="edge">
<title>assert_is_currency&#45;&gt;Errors::not_published</title>
<path fill="none" stroke="black" d="M439.35,-174.61C423.29,-162.45 401.21,-145.74 383.53,-132.36"/>
<polygon fill="black" stroke="black" points="385.34,-129.34 375.26,-126.09 381.12,-134.92 385.34,-129.34"/>
</g>
<!-- is_currency -->
<g id="node11" class="node">
<title>is_currency</title>
<ellipse fill="none" stroke="black" cx="485" cy="-109" rx="51.99" ry="18"/>
<text text-anchor="middle" x="485" y="-105.3" font-family="Times,serif" font-size="14.00">is_currency</text>
</g>
<!-- assert_is_currency&#45;&gt;is_currency -->
<g id="edge13" class="edge">
<title>assert_is_currency&#45;&gt;is_currency</title>
<path fill="none" stroke="black" d="M466.09,-173.82C469.27,-163.08 473.44,-149.03 477.05,-136.84"/>
<polygon fill="black" stroke="black" points="480.43,-137.74 479.92,-127.15 473.72,-135.75 480.43,-137.74"/>
</g>
<!-- Errors::not_published&#45;&gt;Errors::make -->
<g id="edge14" class="edge">
<title>Errors::not_published&#45;&gt;Errors::make</title>
<path fill="none" stroke="black" d="M324.72,-93.05C300.91,-80.9 267.38,-63.78 242.9,-51.28"/>
<polygon fill="black" stroke="black" points="244.17,-48 233.67,-46.57 240.99,-54.24 244.17,-48"/>
</g>
<!-- is_currency&#45;&gt;CoreAddresses::CURRENCY_INFO_ADDRESS -->
<g id="edge15" class="edge">
<title>is_currency&#45;&gt;CoreAddresses::CURRENCY_INFO_ADDRESS</title>
<path fill="none" stroke="black" d="M502.98,-91.8C513.76,-82.08 527.66,-69.55 539.67,-58.73"/>
<polygon fill="black" stroke="black" points="542.14,-61.21 547.23,-51.92 537.46,-56.01 542.14,-61.21"/>
</g>
</g>
</svg>
