<?xml version="1.0" encoding="UTF-8" standalone="no"?>
<!DOCTYPE svg PUBLIC "-//W3C//DTD SVG 1.1//EN"
 "http://www.w3.org/Graphics/SVG/1.1/DTD/svg11.dtd">
<!-- Generated by graphviz version 2.46.1 (20210213.1702)
 -->
<!-- Title: G Pages: 1 -->
<svg width="1294pt" height="437pt"
 viewBox="0.00 0.00 1294.00 437.00" xmlns="http://www.w3.org/2000/svg" xmlns:xlink="http://www.w3.org/1999/xlink">
<g id="graph0" class="graph" transform="scale(1 1) rotate(0) translate(4 433)">
<title>G</title>
<polygon fill="white" stroke="transparent" points="-4,4 -4,-433 1290,-433 1290,4 -4,4"/>
<g id="clust1" class="cluster">
<title>cluster_Signer</title>
<polygon fill="none" stroke="black" points="8,-8 8,-155 158,-155 158,-8 8,-8"/>
<text text-anchor="middle" x="83" y="-139.8" font-family="Times,serif" font-size="14.00">Signer</text>
</g>
<g id="clust2" class="cluster">
<title>cluster_Errors</title>
<polygon fill="none" stroke="black" points="682,-8 682,-155 1278,-155 1278,-8 682,-8"/>
<text text-anchor="middle" x="980" y="-139.8" font-family="Times,serif" font-size="14.00">Errors</text>
</g>
<g id="clust3" class="cluster">
<title>cluster_Roles</title>
<polygon fill="none" stroke="black" points="432,-238 432,-313 666,-313 666,-238 432,-238"/>
<text text-anchor="middle" x="549" y="-297.8" font-family="Times,serif" font-size="14.00">Roles</text>
</g>
<g id="clust4" class="cluster">
<title>cluster_CoreAddresses</title>
<polygon fill="none" stroke="black" points="166,-80 166,-230 674,-230 674,-80 166,-80"/>
<text text-anchor="middle" x="420" y="-214.8" font-family="Times,serif" font-size="14.00">CoreAddresses</text>
</g>
<!-- publish_burn_capability -->
<g id="node1" class="node">
<title>publish_burn_capability</title>
<ellipse fill="none" stroke="black" cx="675" cy="-411" rx="96.38" ry="18"/>
<text text-anchor="middle" x="675" y="-407.3" font-family="Times,serif" font-size="14.00">publish_burn_capability</text>
</g>
<!-- Signer::address_of -->
<g id="node2" class="node">
<title>Signer::address_of</title>
<ellipse fill="none" stroke="black" cx="101" cy="-106" rx="48.99" ry="18"/>
<text text-anchor="middle" x="101" y="-102.3" font-family="Times,serif" font-size="14.00">address_of</text>
</g>
<!-- publish_burn_capability&#45;&gt;Signer::address_of -->
<g id="edge1" class="edge">
<title>publish_burn_capability&#45;&gt;Signer::address_of</title>
<path fill="none" stroke="black" d="M579.81,-408.21C453.82,-400.33 234.24,-366.4 119,-230 96.62,-203.51 95.24,-161.82 97.32,-134.45"/>
<polygon fill="black" stroke="black" points="100.82,-134.66 98.29,-124.37 93.85,-133.99 100.82,-134.66"/>
</g>
<!-- Errors::already_published -->
<g id="node3" class="node">
<title>Errors::already_published</title>
<ellipse fill="none" stroke="black" cx="1195" cy="-106" rx="75.29" ry="18"/>
<text text-anchor="middle" x="1195" y="-102.3" font-family="Times,serif" font-size="14.00">already_published</text>
</g>
<!-- publish_burn_capability&#45;&gt;Errors::already_published -->
<g id="edge2" class="edge">
<title>publish_burn_capability&#45;&gt;Errors::already_published</title>
<path fill="none" stroke="black" d="M720.8,-395.17C748.18,-385.63 783.3,-372.2 813,-357 951.81,-285.95 1102.89,-176.44 1165.39,-129.56"/>
<polygon fill="black" stroke="black" points="1167.73,-132.18 1173.61,-123.37 1163.51,-126.59 1167.73,-132.18"/>
</g>
<!-- Roles::assert_treasury_compliance -->
<g id="node4" class="node">
<title>Roles::assert_treasury_compliance</title>
<ellipse fill="none" stroke="black" cx="549" cy="-264" rx="108.58" ry="18"/>
<text text-anchor="middle" x="549" y="-260.3" font-family="Times,serif" font-size="14.00">assert_treasury_compliance</text>
</g>
<!-- publish_burn_capability&#45;&gt;Roles::assert_treasury_compliance -->
<g id="edge3" class="edge">
<title>publish_burn_capability&#45;&gt;Roles::assert_treasury_compliance</title>
<path fill="none" stroke="black" d="M660.3,-393.08C638.23,-367.68 596.38,-319.53 570.76,-290.04"/>
<polygon fill="black" stroke="black" points="573.2,-287.51 564,-282.26 567.91,-292.1 573.2,-287.51"/>
</g>
<!-- assert_is_currency -->
<g id="node5" class="node">
<title>assert_is_currency</title>
<ellipse fill="none" stroke="black" cx="728" cy="-339" rx="76.09" ry="18"/>
<text text-anchor="middle" x="728" y="-335.3" font-family="Times,serif" font-size="14.00">assert_is_currency</text>
</g>
<!-- publish_burn_capability&#45;&gt;assert_is_currency -->
<g id="edge4" class="edge">
<title>publish_burn_capability&#45;&gt;assert_is_currency</title>
<path fill="none" stroke="black" d="M687.83,-393.05C694.21,-384.63 702.05,-374.28 709.1,-364.97"/>
<polygon fill="black" stroke="black" points="712.04,-366.87 715.29,-356.79 706.46,-362.65 712.04,-366.87"/>
</g>
<!-- Signer::borrow_address -->
<g id="node6" class="node">
<title>Signer::borrow_address</title>
<ellipse fill="none" stroke="black" cx="83" cy="-34" rx="66.89" ry="18"/>
<text text-anchor="middle" x="83" y="-30.3" font-family="Times,serif" font-size="14.00">borrow_address</text>
</g>
<!-- Signer::address_of&#45;&gt;Signer::borrow_address -->
<g id="edge5" class="edge">
<title>Signer::address_of&#45;&gt;Signer::borrow_address</title>
<path fill="none" stroke="black" d="M96.64,-88.05C94.64,-80.26 92.21,-70.82 89.96,-62.08"/>
<polygon fill="black" stroke="black" points="93.32,-61.09 87.44,-52.28 86.54,-62.83 93.32,-61.09"/>
</g>
<!-- Errors::make -->
<g id="node7" class="node">
<title>Errors::make</title>
<ellipse fill="none" stroke="black" cx="973" cy="-34" rx="30.59" ry="18"/>
<text text-anchor="middle" x="973" y="-30.3" font-family="Times,serif" font-size="14.00">make</text>
</g>
<!-- Errors::already_published&#45;&gt;Errors::make -->
<g id="edge6" class="edge">
<title>Errors::already_published&#45;&gt;Errors::make</title>
<path fill="none" stroke="black" d="M1151.4,-91.25C1109.91,-78.17 1048.18,-58.71 1009.29,-46.44"/>
<polygon fill="black" stroke="black" points="1010.03,-43.01 999.44,-43.34 1007.93,-49.68 1010.03,-43.01"/>
</g>
<!-- Roles::assert_treasury_compliance&#45;&gt;Signer::address_of -->
<g id="edge7" class="edge">
<title>Roles::assert_treasury_compliance&#45;&gt;Signer::address_of</title>
<path fill="none" stroke="black" d="M443.83,-259.31C337.25,-254.73 184.85,-245.56 162,-230 144.95,-218.39 123.07,-166.25 110.68,-133.69"/>
<polygon fill="black" stroke="black" points="113.95,-132.42 107.16,-124.28 107.39,-134.88 113.95,-132.42"/>
</g>
<!-- Errors::not_published -->
<g id="node8" class="node">
<title>Errors::not_published</title>
<ellipse fill="none" stroke="black" cx="1041" cy="-106" rx="60.39" ry="18"/>
<text text-anchor="middle" x="1041" y="-102.3" font-family="Times,serif" font-size="14.00">not_published</text>
</g>
<!-- Roles::assert_treasury_compliance&#45;&gt;Errors::not_published -->
<g id="edge8" class="edge">
<title>Roles::assert_treasury_compliance&#45;&gt;Errors::not_published</title>
<path fill="none" stroke="black" d="M608.46,-248.87C627.11,-244.85 647.83,-240.81 667,-238 709.8,-231.73 721.74,-239.23 764,-230 859.6,-209.13 883.95,-199.69 971,-155 985.27,-147.67 1000.07,-137.9 1012.36,-129.08"/>
<polygon fill="black" stroke="black" points="1014.43,-131.9 1020.43,-123.17 1010.29,-126.25 1014.43,-131.9"/>
</g>
<!-- Errors::requires_role -->
<g id="node9" class="node">
<title>Errors::requires_role</title>
<ellipse fill="none" stroke="black" cx="905" cy="-106" rx="57.39" ry="18"/>
<text text-anchor="middle" x="905" y="-102.3" font-family="Times,serif" font-size="14.00">requires_role</text>
</g>
<!-- Roles::assert_treasury_compliance&#45;&gt;Errors::requires_role -->
<g id="edge9" class="edge">
<title>Roles::assert_treasury_compliance&#45;&gt;Errors::requires_role</title>
<path fill="none" stroke="black" d="M612.36,-249.27C633.49,-244.04 656.99,-237.51 678,-230 752.34,-203.44 770.99,-195.07 839,-155 851.94,-147.38 865.48,-137.84 876.9,-129.28"/>
<polygon fill="black" stroke="black" points="879.34,-131.82 885.18,-122.97 875.1,-126.25 879.34,-131.82"/>
</g>
<!-- CoreAddresses::assert_treasury_compliance -->
<g id="node10" class="node">
<title>CoreAddresses::assert_treasury_compliance</title>
<ellipse fill="none" stroke="black" cx="283" cy="-181" rx="108.58" ry="18"/>
<text text-anchor="middle" x="283" y="-177.3" font-family="Times,serif" font-size="14.00">assert_treasury_compliance</text>
</g>
<!-- Roles::assert_treasury_compliance&#45;&gt;CoreAddresses::assert_treasury_compliance -->
<g id="edge10" class="edge">
<title>Roles::assert_treasury_compliance&#45;&gt;CoreAddresses::assert_treasury_compliance</title>
<path fill="none" stroke="black" d="M479.84,-250.08C454.77,-244.74 426.38,-237.93 401,-230 376.18,-222.24 349.26,-211.48 327.41,-202.12"/>
<polygon fill="black" stroke="black" points="328.63,-198.83 318.07,-198.07 325.85,-205.26 328.63,-198.83"/>
</g>
<!-- assert_is_currency&#45;&gt;Errors::not_published -->
<g id="edge11" class="edge">
<title>assert_is_currency&#45;&gt;Errors::not_published</title>
<path fill="none" stroke="black" d="M767.88,-323.66C775.09,-320.51 782.41,-316.92 789,-313 880.87,-258.29 974.61,-171.91 1017.26,-130.57"/>
<polygon fill="black" stroke="black" points="1019.9,-132.88 1024.62,-123.39 1015.01,-127.87 1019.9,-132.88"/>
</g>
<!-- is_currency -->
<g id="node11" class="node">
<title>is_currency</title>
<ellipse fill="none" stroke="black" cx="728" cy="-264" rx="51.99" ry="18"/>
<text text-anchor="middle" x="728" y="-260.3" font-family="Times,serif" font-size="14.00">is_currency</text>
</g>
<!-- assert_is_currency&#45;&gt;is_currency -->
<g id="edge12" class="edge">
<title>assert_is_currency&#45;&gt;is_currency</title>
<path fill="none" stroke="black" d="M728,-320.7C728,-312.25 728,-301.87 728,-292.37"/>
<polygon fill="black" stroke="black" points="731.5,-292.18 728,-282.18 724.5,-292.18 731.5,-292.18"/>
</g>
<!-- Errors::not_published&#45;&gt;Errors::make -->
<g id="edge13" class="edge">
<title>Errors::not_published&#45;&gt;Errors::make</title>
<path fill="none" stroke="black" d="M1024.88,-88.41C1015.87,-79.13 1004.51,-67.44 994.72,-57.36"/>
<polygon fill="black" stroke="black" points="997.09,-54.77 987.61,-50.04 992.07,-59.65 997.09,-54.77"/>
</g>
<!-- Errors::requires_role&#45;&gt;Errors::make -->
<g id="edge14" class="edge">
<title>Errors::requires_role&#45;&gt;Errors::make</title>
<path fill="none" stroke="black" d="M921.12,-88.41C930.13,-79.13 941.49,-67.44 951.28,-57.36"/>
<polygon fill="black" stroke="black" points="953.93,-59.65 958.39,-50.04 948.91,-54.77 953.93,-59.65"/>
</g>
<!-- CoreAddresses::assert_treasury_compliance&#45;&gt;Signer::address_of -->
<g id="edge15" class="edge">
<title>CoreAddresses::assert_treasury_compliance&#45;&gt;Signer::address_of</title>
<path fill="none" stroke="black" d="M202.55,-168.83C188.67,-165.38 174.64,-160.88 162,-155 148.56,-148.75 135.41,-139.01 124.78,-129.94"/>
<polygon fill="black" stroke="black" points="126.99,-127.21 117.18,-123.2 122.34,-132.45 126.99,-127.21"/>
</g>
<!-- Errors::requires_address -->
<g id="node12" class="node">
<title>Errors::requires_address</title>
<ellipse fill="none" stroke="black" cx="760" cy="-106" rx="69.59" ry="18"/>
<text text-anchor="middle" x="760" y="-102.3" font-family="Times,serif" font-size="14.00">requires_address</text>
</g>
<!-- CoreAddresses::assert_treasury_compliance&#45;&gt;Errors::requires_address -->
<g id="edge16" class="edge">
<title>CoreAddresses::assert_treasury_compliance&#45;&gt;Errors::requires_address</title>
<path fill="none" stroke="black" d="M357.76,-167.92C372.08,-165.97 386.98,-164.21 401,-163 431.68,-160.36 648.4,-163.49 678,-155 696.82,-149.6 715.82,-138.89 730.78,-128.95"/>
<polygon fill="black" stroke="black" points="732.84,-131.79 739.1,-123.24 728.87,-126.02 732.84,-131.79"/>
</g>
<!-- CoreAddresses::TREASURY_COMPLIANCE_ADDRESS -->
<g id="node13" class="node">
<title>CoreAddresses::TREASURY_COMPLIANCE_ADDRESS</title>
<ellipse fill="none" stroke="black" cx="337" cy="-106" rx="163.27" ry="18"/>
<text text-anchor="middle" x="337" y="-102.3" font-family="Times,serif" font-size="14.00">TREASURY_COMPLIANCE_ADDRESS</text>
</g>
<!-- CoreAddresses::assert_treasury_compliance&#45;&gt;CoreAddresses::TREASURY_COMPLIANCE_ADDRESS -->
<g id="edge17" class="edge">
<title>CoreAddresses::assert_treasury_compliance&#45;&gt;CoreAddresses::TREASURY_COMPLIANCE_ADDRESS</title>
<path fill="none" stroke="black" d="M295.52,-163.07C302.29,-153.92 310.78,-142.45 318.31,-132.26"/>
<polygon fill="black" stroke="black" points="321.22,-134.21 324.36,-124.09 315.6,-130.05 321.22,-134.21"/>
</g>
<!-- CoreAddresses::CURRENCY_INFO_ADDRESS -->
<g id="node14" class="node">
<title>CoreAddresses::CURRENCY_INFO_ADDRESS</title>
<ellipse fill="none" stroke="black" cx="538" cy="-181" rx="128.08" ry="18"/>
<text text-anchor="middle" x="538" y="-177.3" font-family="Times,serif" font-size="14.00">CURRENCY_INFO_ADDRESS</text>
</g>
<!-- is_currency&#45;&gt;CoreAddresses::CURRENCY_INFO_ADDRESS -->
<g id="edge18" class="edge">
<title>is_currency&#45;&gt;CoreAddresses::CURRENCY_INFO_ADDRESS</title>
<path fill="none" stroke="black" d="M696.71,-249.47C688.06,-245.75 678.67,-241.71 670,-238 642.09,-226.07 610.83,-212.8 585.73,-202.17"/>
<polygon fill="black" stroke="black" points="587.01,-198.91 576.44,-198.24 584.28,-205.36 587.01,-198.91"/>
</g>
<!-- Errors::requires_address&#45;&gt;Errors::make -->
<g id="edge19" class="edge">
<title>Errors::requires_address&#45;&gt;Errors::make</title>
<path fill="none" stroke="black" d="M801.32,-91.42C840.86,-78.43 899.86,-59.04 937.38,-46.71"/>
<polygon fill="black" stroke="black" points="938.49,-50.03 946.89,-43.58 936.3,-43.38 938.49,-50.03"/>
</g>
</g>
</svg>
