<?xml version="1.0" encoding="UTF-8" standalone="no"?>
<!DOCTYPE svg PUBLIC "-//W3C//DTD SVG 1.1//EN"
 "http://www.w3.org/Graphics/SVG/1.1/DTD/svg11.dtd">
<!-- Generated by graphviz version 2.46.1 (20210213.1702)
 -->
<!-- Title: G Pages: 1 -->
<svg width="888pt" height="476pt"
 viewBox="0.00 0.00 887.84 476.00" xmlns="http://www.w3.org/2000/svg" xmlns:xlink="http://www.w3.org/1999/xlink">
<g id="graph0" class="graph" transform="scale(1 1) rotate(0) translate(4 472)">
<title>G</title>
<polygon fill="white" stroke="transparent" points="-4,4 -4,-472 883.84,-472 883.84,4 -4,4"/>
<!-- Diem -->
<g id="node1" class="node">
<title>Diem</title>
<ellipse fill="none" stroke="black" cx="342" cy="-450" rx="30.59" ry="18"/>
<text text-anchor="middle" x="342" y="-446.3" font-family="Times,serif" font-size="14.00">Diem</text>
</g>
<!-- Signer -->
<g id="node2" class="node">
<title>Signer</title>
<ellipse fill="none" stroke="black" cx="272" cy="-18" rx="33.6" ry="18"/>
<text text-anchor="middle" x="272" y="-14.3" font-family="Times,serif" font-size="14.00">Signer</text>
</g>
<!-- Diem&#45;&gt;Signer -->
<g id="edge1" class="edge">
<title>Diem&#45;&gt;Signer</title>
<path fill="none" stroke="black" d="M311.72,-446.75C245.81,-441.35 91.85,-425.83 50,-396 13.05,-369.67 0,-352.37 0,-307 0,-307 0,-307 0,-161 0,-59.25 151.44,-30.28 228.32,-22.13"/>
<polygon fill="black" stroke="black" points="229.04,-25.58 238.65,-21.12 228.35,-18.61 229.04,-25.58"/>
</g>
<!-- Errors -->
<g id="node3" class="node">
<title>Errors</title>
<ellipse fill="none" stroke="black" cx="628" cy="-18" rx="32.49" ry="18"/>
<text text-anchor="middle" x="628" y="-14.3" font-family="Times,serif" font-size="14.00">Errors</text>
</g>
<!-- Diem&#45;&gt;Errors -->
<g id="edge2" class="edge">
<title>Diem&#45;&gt;Errors</title>
<path fill="none" stroke="black" d="M371.61,-444.88C463.24,-431.32 736,-384.44 736,-307 736,-307 736,-307 736,-161 736,-108.26 688.22,-62.85 656.22,-38.36"/>
<polygon fill="black" stroke="black" points="658.18,-35.46 648.06,-32.3 654,-41.08 658.18,-35.46"/>
</g>
<!-- CoreAddresses -->
<g id="node4" class="node">
<title>CoreAddresses</title>
<ellipse fill="none" stroke="black" cx="478" cy="-90" rx="63.89" ry="18"/>
<text text-anchor="middle" x="478" y="-86.3" font-family="Times,serif" font-size="14.00">CoreAddresses</text>
</g>
<!-- Diem&#45;&gt;CoreAddresses -->
<g id="edge3" class="edge">
<title>Diem&#45;&gt;CoreAddresses</title>
<path fill="none" stroke="black" d="M311.46,-448.59C234.37,-445.78 38,-426.85 38,-307 38,-307 38,-307 38,-233 38,-192.55 27.21,-171.36 57,-144 106.21,-98.81 297.06,-91.05 404.12,-90.37"/>
<polygon fill="black" stroke="black" points="404.23,-93.87 414.21,-90.32 404.19,-86.87 404.23,-93.87"/>
</g>
<!-- DiemTimestamp -->
<g id="node5" class="node">
<title>DiemTimestamp</title>
<ellipse fill="none" stroke="black" cx="561" cy="-162" rx="71.49" ry="18"/>
<text text-anchor="middle" x="561" y="-158.3" font-family="Times,serif" font-size="14.00">DiemTimestamp</text>
</g>
<!-- Diem&#45;&gt;DiemTimestamp -->
<g id="edge4" class="edge">
<title>Diem&#45;&gt;DiemTimestamp</title>
<path fill="none" stroke="black" d="M372.02,-445.75C424.87,-439.37 531.19,-423.4 555,-396 605.44,-337.95 584.29,-237.67 570.05,-189.86"/>
<polygon fill="black" stroke="black" points="573.37,-188.73 567.06,-180.22 566.68,-190.81 573.37,-188.73"/>
</g>
<!-- Roles -->
<g id="node6" class="node">
<title>Roles</title>
<ellipse fill="none" stroke="black" cx="386" cy="-234" rx="30.59" ry="18"/>
<text text-anchor="middle" x="386" y="-230.3" font-family="Times,serif" font-size="14.00">Roles</text>
</g>
<!-- Diem&#45;&gt;Roles -->
<g id="edge5" class="edge">
<title>Diem&#45;&gt;Roles</title>
<path fill="none" stroke="black" d="M345.53,-431.85C353.17,-394.66 371.32,-306.37 380.5,-261.77"/>
<polygon fill="black" stroke="black" points="383.93,-262.44 382.52,-251.94 377.08,-261.03 383.93,-262.44"/>
</g>
<!-- FixedPoint32 -->
<g id="node7" class="node">
<title>FixedPoint32</title>
<ellipse fill="none" stroke="black" cx="822" cy="-306" rx="57.69" ry="18"/>
<text text-anchor="middle" x="822" y="-302.3" font-family="Times,serif" font-size="14.00">FixedPoint32</text>
</g>
<!-- Diem&#45;&gt;FixedPoint32 -->
<g id="edge6" class="edge">
<title>Diem&#45;&gt;FixedPoint32</title>
<path fill="none" stroke="black" d="M372.51,-447.94C455.79,-444.61 685.09,-432.3 750,-396 775.87,-381.53 796.04,-353.71 808.36,-333.01"/>
<polygon fill="black" stroke="black" points="811.55,-334.49 813.47,-324.07 805.47,-331.02 811.55,-334.49"/>
</g>
<!-- Vector -->
<g id="node8" class="node">
<title>Vector</title>
<ellipse fill="none" stroke="black" cx="100" cy="-162" rx="33.6" ry="18"/>
<text text-anchor="middle" x="100" y="-158.3" font-family="Times,serif" font-size="14.00">Vector</text>
</g>
<!-- Diem&#45;&gt;Vector -->
<g id="edge7" class="edge">
<title>Diem&#45;&gt;Vector</title>
<path fill="none" stroke="black" d="M325.79,-434.51C291.41,-403.29 209.72,-326.47 153,-252 137.6,-231.78 123.04,-206.75 113.1,-188.39"/>
<polygon fill="black" stroke="black" points="116.13,-186.64 108.34,-179.46 109.95,-189.93 116.13,-186.64"/>
</g>
<!-- Event -->
<g id="node9" class="node">
<title>Event</title>
<ellipse fill="none" stroke="black" cx="244" cy="-234" rx="31.4" ry="18"/>
<text text-anchor="middle" x="244" y="-230.3" font-family="Times,serif" font-size="14.00">Event</text>
</g>
<!-- Diem&#45;&gt;Event -->
<g id="edge8" class="edge">
<title>Diem&#45;&gt;Event</title>
<path fill="none" stroke="black" d="M334.31,-432.21C317.28,-395.02 276.28,-305.48 255.9,-260.99"/>
<polygon fill="black" stroke="black" points="259,-259.35 251.65,-251.71 252.64,-262.26 259,-259.35"/>
</g>
<!-- RegisteredCurrencies -->
<g id="node10" class="node">
<title>RegisteredCurrencies</title>
<ellipse fill="none" stroke="black" cx="460" cy="-378" rx="86.38" ry="18"/>
<text text-anchor="middle" x="460" y="-374.3" font-family="Times,serif" font-size="14.00">RegisteredCurrencies</text>
</g>
<!-- Diem&#45;&gt;RegisteredCurrencies -->
<g id="edge9" class="edge">
<title>Diem&#45;&gt;RegisteredCurrencies</title>
<path fill="none" stroke="black" d="M362.82,-436.65C379.69,-426.64 403.86,-412.3 423.87,-400.43"/>
<polygon fill="black" stroke="black" points="425.92,-403.29 432.73,-395.18 422.34,-397.27 425.92,-403.29"/>
</g>
<!-- CoreAddresses&#45;&gt;Signer -->
<g id="edge10" class="edge">
<title>CoreAddresses&#45;&gt;Signer</title>
<path fill="none" stroke="black" d="M438.77,-75.67C401.63,-63.05 346.27,-44.24 309.66,-31.8"/>
<polygon fill="black" stroke="black" points="310.46,-28.37 299.87,-28.47 308.21,-35 310.46,-28.37"/>
</g>
<!-- CoreAddresses&#45;&gt;Errors -->
<g id="edge11" class="edge">
<title>CoreAddresses&#45;&gt;Errors</title>
<path fill="none" stroke="black" d="M509.44,-74.33C534.43,-62.67 569.29,-46.4 594.74,-34.52"/>
<polygon fill="black" stroke="black" points="596.41,-37.61 603.99,-30.21 593.45,-31.26 596.41,-37.61"/>
</g>
<!-- DiemTimestamp&#45;&gt;Errors -->
<g id="edge12" class="edge">
<title>DiemTimestamp&#45;&gt;Errors</title>
<path fill="none" stroke="black" d="M569.08,-143.87C580.71,-119.22 602.27,-73.54 615.83,-44.79"/>
<polygon fill="black" stroke="black" points="619,-46.29 620.1,-35.75 612.67,-43.3 619,-46.29"/>
</g>
<!-- DiemTimestamp&#45;&gt;CoreAddresses -->
<g id="edge13" class="edge">
<title>DiemTimestamp&#45;&gt;CoreAddresses</title>
<path fill="none" stroke="black" d="M541.33,-144.41C530.5,-135.28 516.9,-123.81 505.08,-113.84"/>
<polygon fill="black" stroke="black" points="507.14,-111 497.24,-107.23 502.63,-116.35 507.14,-111"/>
</g>
<!-- Roles&#45;&gt;Signer -->
<g id="edge14" class="edge">
<title>Roles&#45;&gt;Signer</title>
<path fill="none" stroke="black" d="M377.24,-216.56C357.47,-179.45 309.26,-88.95 285.58,-44.5"/>
<polygon fill="black" stroke="black" points="288.58,-42.67 280.79,-35.49 282.4,-45.96 288.58,-42.67"/>
</g>
<!-- Roles&#45;&gt;Errors -->
<g id="edge15" class="edge">
<title>Roles&#45;&gt;Errors</title>
<path fill="none" stroke="black" d="M382.32,-215.92C376.42,-183.48 368.88,-112.57 405,-72 428.67,-45.42 528.13,-30.11 585.91,-23.3"/>
<polygon fill="black" stroke="black" points="586.65,-26.73 596.19,-22.12 585.86,-19.78 586.65,-26.73"/>
</g>
<!-- Roles&#45;&gt;CoreAddresses -->
<g id="edge16" class="edge">
<title>Roles&#45;&gt;CoreAddresses</title>
<path fill="none" stroke="black" d="M396.37,-216.99C412.22,-192.53 442.59,-145.66 461.48,-116.49"/>
<polygon fill="black" stroke="black" points="464.45,-118.35 466.95,-108.06 458.57,-114.55 464.45,-118.35"/>
</g>
<!-- Roles&#45;&gt;DiemTimestamp -->
<g id="edge17" class="edge">
<title>Roles&#45;&gt;DiemTimestamp</title>
<path fill="none" stroke="black" d="M410.7,-223.12C437.71,-212.31 481.6,-194.76 515,-181.4"/>
<polygon fill="black" stroke="black" points="516.57,-184.54 524.55,-177.58 513.97,-178.04 516.57,-184.54"/>
</g>
<!-- FixedPoint32&#45;&gt;Errors -->
<g id="edge18" class="edge">
<title>FixedPoint32&#45;&gt;Errors</title>
<path fill="none" stroke="black" d="M821.41,-287.72C819.07,-245.56 807.48,-136.18 750,-72 728.69,-48.2 694.79,-34.65 668.13,-27.22"/>
<polygon fill="black" stroke="black" points="668.86,-23.79 658.3,-24.66 667.1,-30.57 668.86,-23.79"/>
</g>
<!-- Event&#45;&gt;Signer -->
<g id="edge19" class="edge">
<title>Event&#45;&gt;Signer</title>
<path fill="none" stroke="black" d="M221.8,-221.19C207.24,-212.09 189.38,-198.01 181,-180 174.25,-165.49 176.05,-159.21 181,-144 194.28,-103.18 226.48,-64.58 248.78,-41.36"/>
<polygon fill="black" stroke="black" points="251.41,-43.67 255.92,-34.09 246.42,-38.77 251.41,-43.67"/>
</g>
<!-- Event&#45;&gt;Errors -->
<g id="edge20" class="edge">
<title>Event&#45;&gt;Errors</title>
<path fill="none" stroke="black" d="M252.87,-216.69C271.75,-183.67 319.25,-108.9 381,-72 445.28,-33.59 533.69,-22.84 585.45,-19.94"/>
<polygon fill="black" stroke="black" points="585.78,-23.43 595.6,-19.45 585.44,-16.44 585.78,-23.43"/>
</g>
<!-- Event&#45;&gt;Vector -->
<g id="edge21" class="edge">
<title>Event&#45;&gt;Vector</title>
<path fill="none" stroke="black" d="M220.86,-221.75C197.11,-210.21 159.92,-192.13 133.07,-179.07"/>
<polygon fill="black" stroke="black" points="134.56,-175.91 124.04,-174.69 131.5,-182.21 134.56,-175.91"/>
</g>
<!-- BCS -->
<g id="node11" class="node">
<title>BCS</title>
<ellipse fill="none" stroke="black" cx="217" cy="-162" rx="27.1" ry="18"/>
<text text-anchor="middle" x="217" y="-158.3" font-family="Times,serif" font-size="14.00">BCS</text>
</g>
<!-- Event&#45;&gt;BCS -->
<g id="edge22" class="edge">
<title>Event&#45;&gt;BCS</title>
<path fill="none" stroke="black" d="M237.46,-216.05C234.38,-208.06 230.63,-198.33 227.18,-189.4"/>
<polygon fill="black" stroke="black" points="230.34,-187.86 223.48,-179.79 223.81,-190.38 230.34,-187.86"/>
</g>
<!-- RegisteredCurrencies&#45;&gt;Errors -->
<g id="edge23" class="edge">
<title>RegisteredCurrencies&#45;&gt;Errors</title>
<path fill="none" stroke="black" d="M492.68,-361.09C510.34,-351.64 531.96,-338.67 549,-324 610.24,-271.28 633.54,-256.35 660,-180 675.72,-134.63 676.81,-117.99 663,-72 659.86,-61.55 653.91,-51.25 647.8,-42.56"/>
<polygon fill="black" stroke="black" points="650.53,-40.35 641.73,-34.45 644.92,-44.55 650.53,-40.35"/>
</g>
<!-- RegisteredCurrencies&#45;&gt;DiemTimestamp -->
<g id="edge24" class="edge">
<title>RegisteredCurrencies&#45;&gt;DiemTimestamp</title>
<path fill="none" stroke="black" d="M488.7,-360.83C502.32,-351.72 517.62,-339.13 527,-324 552.8,-282.37 559.29,-224.29 560.77,-190.46"/>
<polygon fill="black" stroke="black" points="564.27,-190.49 561.09,-180.39 557.27,-190.27 564.27,-190.49"/>
</g>
<!-- RegisteredCurrencies&#45;&gt;Roles -->
<g id="edge25" class="edge">
<title>RegisteredCurrencies&#45;&gt;Roles</title>
<path fill="none" stroke="black" d="M433.79,-360.76C421.22,-351.55 407.14,-338.9 399,-324 388.67,-305.1 385.7,-280.73 385.15,-262.27"/>
<polygon fill="black" stroke="black" points="388.65,-262.15 385.08,-252.17 381.65,-262.2 388.65,-262.15"/>
</g>
<!-- RegisteredCurrencies&#45;&gt;Vector -->
<g id="edge26" class="edge">
<title>RegisteredCurrencies&#45;&gt;Vector</title>
<path fill="none" stroke="black" d="M421.5,-361.83C369.95,-340.71 276.56,-299.64 204,-252 173.84,-232.19 142.87,-204.57 122.66,-185.37"/>
<polygon fill="black" stroke="black" points="124.84,-182.62 115.21,-178.21 119.99,-187.66 124.84,-182.62"/>
</g>
<!-- DiemConfig -->
<g id="node12" class="node">
<title>DiemConfig</title>
<ellipse fill="none" stroke="black" cx="463" cy="-306" rx="54.69" ry="18"/>
<text text-anchor="middle" x="463" y="-302.3" font-family="Times,serif" font-size="14.00">DiemConfig</text>
</g>
<!-- RegisteredCurrencies&#45;&gt;DiemConfig -->
<g id="edge27" class="edge">
<title>RegisteredCurrencies&#45;&gt;DiemConfig</title>
<path fill="none" stroke="black" d="M460.74,-359.7C461.07,-351.98 461.47,-342.71 461.84,-334.11"/>
<polygon fill="black" stroke="black" points="465.34,-334.25 462.27,-324.1 458.34,-333.95 465.34,-334.25"/>
</g>
<!-- DiemConfig&#45;&gt;Signer -->
<g id="edge28" class="edge">
<title>DiemConfig&#45;&gt;Signer</title>
<path fill="none" stroke="black" d="M420.07,-294.68C395.41,-286.74 365.54,-273.41 346,-252 291.85,-192.67 277.32,-93.72 273.42,-46.16"/>
<polygon fill="black" stroke="black" points="276.9,-45.74 272.69,-36.02 269.92,-46.25 276.9,-45.74"/>
</g>
<!-- DiemConfig&#45;&gt;Errors -->
<g id="edge29" class="edge">
<title>DiemConfig&#45;&gt;Errors</title>
<path fill="none" stroke="black" d="M498.24,-292.07C540.99,-274.25 611.05,-237.63 641,-180 663.38,-136.93 649.55,-78.5 638.25,-45.17"/>
<polygon fill="black" stroke="black" points="641.52,-43.92 634.87,-35.68 634.93,-46.27 641.52,-43.92"/>
</g>
<!-- DiemConfig&#45;&gt;CoreAddresses -->
<g id="edge30" class="edge">
<title>DiemConfig&#45;&gt;CoreAddresses</title>
<path fill="none" stroke="black" d="M464.2,-287.85C466.8,-250.83 472.94,-163.18 476.08,-118.39"/>
<polygon fill="black" stroke="black" points="479.58,-118.45 476.79,-108.23 472.6,-117.96 479.58,-118.45"/>
</g>
<!-- DiemConfig&#45;&gt;DiemTimestamp -->
<g id="edge31" class="edge">
<title>DiemConfig&#45;&gt;DiemTimestamp</title>
<path fill="none" stroke="black" d="M474.63,-288.15C491.72,-263.39 523.75,-216.97 543.64,-188.16"/>
<polygon fill="black" stroke="black" points="546.59,-190.04 549.39,-179.82 540.83,-186.07 546.59,-190.04"/>
</g>
<!-- DiemConfig&#45;&gt;Roles -->
<g id="edge32" class="edge">
<title>DiemConfig&#45;&gt;Roles</title>
<path fill="none" stroke="black" d="M445.14,-288.76C434.53,-279.12 420.95,-266.77 409.47,-256.34"/>
<polygon fill="black" stroke="black" points="411.68,-253.62 401.93,-249.48 406.98,-258.8 411.68,-253.62"/>
</g>
<!-- DiemConfig&#45;&gt;Event -->
<g id="edge33" class="edge">
<title>DiemConfig&#45;&gt;Event</title>
<path fill="none" stroke="black" d="M424.83,-292.99C390.96,-282.31 340.15,-266.22 296,-252 290.93,-250.37 285.59,-248.63 280.34,-246.92"/>
<polygon fill="black" stroke="black" points="281.03,-243.47 270.44,-243.69 278.86,-250.12 281.03,-243.47"/>
</g>
</g>
</svg>
