<?xml version="1.0" encoding="UTF-8" standalone="no"?>
<!DOCTYPE svg PUBLIC "-//W3C//DTD SVG 1.1//EN"
 "http://www.w3.org/Graphics/SVG/1.1/DTD/svg11.dtd">
<!-- Generated by graphviz version 2.46.1 (20210213.1702)
 -->
<!-- Title: G Pages: 1 -->
<svg width="706pt" height="404pt"
 viewBox="0.00 0.00 706.00 404.00" xmlns="http://www.w3.org/2000/svg" xmlns:xlink="http://www.w3.org/1999/xlink">
<g id="graph0" class="graph" transform="scale(1 1) rotate(0) translate(4 400)">
<title>G</title>
<polygon fill="white" stroke="transparent" points="-4,4 -4,-400 702,-400 702,4 -4,4"/>
<!-- DiemTransactionPublishingOption -->
<g id="node1" class="node">
<title>DiemTransactionPublishingOption</title>
<ellipse fill="none" stroke="black" cx="248" cy="-378" rx="133.78" ry="18"/>
<text text-anchor="middle" x="248" y="-374.3" font-family="Times,serif" font-size="14.00">DiemTransactionPublishingOption</text>
</g>
<!-- Signer -->
<g id="node2" class="node">
<title>Signer</title>
<ellipse fill="none" stroke="black" cx="114" cy="-18" rx="33.6" ry="18"/>
<text text-anchor="middle" x="114" y="-14.3" font-family="Times,serif" font-size="14.00">Signer</text>
</g>
<!-- DiemTransactionPublishingOption&#45;&gt;Signer -->
<g id="edge1" class="edge">
<title>DiemTransactionPublishingOption&#45;&gt;Signer</title>
<path fill="none" stroke="black" d="M162.65,-364.04C90.91,-347.74 0,-311.9 0,-235 0,-235 0,-235 0,-161 0,-107.17 50.44,-62.12 84.22,-37.99"/>
<polygon fill="black" stroke="black" points="86.59,-40.6 92.82,-32.03 82.61,-34.85 86.59,-40.6"/>
</g>
<!-- Errors -->
<g id="node3" class="node">
<title>Errors</title>
<ellipse fill="none" stroke="black" cx="394" cy="-18" rx="32.49" ry="18"/>
<text text-anchor="middle" x="394" y="-14.3" font-family="Times,serif" font-size="14.00">Errors</text>
</g>
<!-- DiemTransactionPublishingOption&#45;&gt;Errors -->
<g id="edge2" class="edge">
<title>DiemTransactionPublishingOption&#45;&gt;Errors</title>
<path fill="none" stroke="black" d="M347.31,-365.87C479.83,-348.19 698,-308.01 698,-235 698,-235 698,-235 698,-161 698,-47.04 520.47,-24.33 436.74,-19.95"/>
<polygon fill="black" stroke="black" points="436.68,-16.45 426.53,-19.49 436.36,-23.44 436.68,-16.45"/>
</g>
<!-- CoreAddresses -->
<g id="node4" class="node">
<title>CoreAddresses</title>
<ellipse fill="none" stroke="black" cx="206" cy="-90" rx="63.89" ry="18"/>
<text text-anchor="middle" x="206" y="-86.3" font-family="Times,serif" font-size="14.00">CoreAddresses</text>
</g>
<!-- DiemTransactionPublishingOption&#45;&gt;CoreAddresses -->
<g id="edge3" class="edge">
<title>DiemTransactionPublishingOption&#45;&gt;CoreAddresses</title>
<path fill="none" stroke="black" d="M215.34,-360.52C199.39,-351.33 180.74,-338.77 167,-324 142.07,-297.2 136.18,-287.44 127,-252 113.59,-200.26 153.69,-145.52 181.56,-115.06"/>
<polygon fill="black" stroke="black" points="184.38,-117.18 188.69,-107.5 179.29,-112.37 184.38,-117.18"/>
</g>
<!-- DiemTimestamp -->
<g id="node5" class="node">
<title>DiemTimestamp</title>
<ellipse fill="none" stroke="black" cx="327" cy="-162" rx="71.49" ry="18"/>
<text text-anchor="middle" x="327" y="-158.3" font-family="Times,serif" font-size="14.00">DiemTimestamp</text>
</g>
<!-- DiemTransactionPublishingOption&#45;&gt;DiemTimestamp -->
<g id="edge4" class="edge">
<title>DiemTransactionPublishingOption&#45;&gt;DiemTimestamp</title>
<path fill="none" stroke="black" d="M277.14,-360.29C290.07,-351.28 304.12,-338.92 312,-324 334.48,-281.44 333.58,-223.68 330.53,-190.16"/>
<polygon fill="black" stroke="black" points="334.01,-189.77 329.49,-180.18 327.04,-190.49 334.01,-189.77"/>
</g>
<!-- Roles -->
<g id="node6" class="node">
<title>Roles</title>
<ellipse fill="none" stroke="black" cx="167" cy="-234" rx="30.59" ry="18"/>
<text text-anchor="middle" x="167" y="-230.3" font-family="Times,serif" font-size="14.00">Roles</text>
</g>
<!-- DiemTransactionPublishingOption&#45;&gt;Roles -->
<g id="edge5" class="edge">
<title>DiemTransactionPublishingOption&#45;&gt;Roles</title>
<path fill="none" stroke="black" d="M219.81,-360.18C206.94,-351.06 192.66,-338.65 184,-324 172.96,-305.32 168.88,-280.94 167.47,-262.41"/>
<polygon fill="black" stroke="black" points="170.95,-262.07 166.91,-252.27 163.96,-262.45 170.95,-262.07"/>
</g>
<!-- Vector -->
<g id="node7" class="node">
<title>Vector</title>
<ellipse fill="none" stroke="black" cx="636" cy="-162" rx="33.6" ry="18"/>
<text text-anchor="middle" x="636" y="-158.3" font-family="Times,serif" font-size="14.00">Vector</text>
</g>
<!-- DiemTransactionPublishingOption&#45;&gt;Vector -->
<g id="edge6" class="edge">
<title>DiemTransactionPublishingOption&#45;&gt;Vector</title>
<path fill="none" stroke="black" d="M308.63,-361.9C374.57,-343.47 480.97,-307.69 559,-252 583.66,-234.4 605.59,-207.33 619.67,-187.66"/>
<polygon fill="black" stroke="black" points="622.72,-189.41 625.58,-179.21 616.98,-185.4 622.72,-189.41"/>
</g>
<!-- DiemConfig -->
<g id="node8" class="node">
<title>DiemConfig</title>
<ellipse fill="none" stroke="black" cx="248" cy="-306" rx="54.69" ry="18"/>
<text text-anchor="middle" x="248" y="-302.3" font-family="Times,serif" font-size="14.00">DiemConfig</text>
</g>
<!-- DiemTransactionPublishingOption&#45;&gt;DiemConfig -->
<g id="edge7" class="edge">
<title>DiemTransactionPublishingOption&#45;&gt;DiemConfig</title>
<path fill="none" stroke="black" d="M248,-359.7C248,-351.98 248,-342.71 248,-334.11"/>
<polygon fill="black" stroke="black" points="251.5,-334.1 248,-324.1 244.5,-334.1 251.5,-334.1"/>
</g>
<!-- CoreAddresses&#45;&gt;Signer -->
<g id="edge8" class="edge">
<title>CoreAddresses&#45;&gt;Signer</title>
<path fill="none" stroke="black" d="M184.66,-72.76C171.65,-62.86 154.9,-50.12 140.98,-39.52"/>
<polygon fill="black" stroke="black" points="142.81,-36.52 132.73,-33.25 138.57,-42.09 142.81,-36.52"/>
</g>
<!-- CoreAddresses&#45;&gt;Errors -->
<g id="edge9" class="edge">
<title>CoreAddresses&#45;&gt;Errors</title>
<path fill="none" stroke="black" d="M243.14,-75.17C276.5,-62.75 325.17,-44.63 358.13,-32.36"/>
<polygon fill="black" stroke="black" points="359.67,-35.52 367.82,-28.75 357.23,-28.96 359.67,-35.52"/>
</g>
<!-- DiemTimestamp&#45;&gt;Errors -->
<g id="edge10" class="edge">
<title>DiemTimestamp&#45;&gt;Errors</title>
<path fill="none" stroke="black" d="M335.08,-143.87C346.71,-119.22 368.27,-73.54 381.83,-44.79"/>
<polygon fill="black" stroke="black" points="385,-46.29 386.1,-35.75 378.67,-43.3 385,-46.29"/>
</g>
<!-- DiemTimestamp&#45;&gt;CoreAddresses -->
<g id="edge11" class="edge">
<title>DiemTimestamp&#45;&gt;CoreAddresses</title>
<path fill="none" stroke="black" d="M299.85,-145.29C282.6,-135.31 260.1,-122.3 241.45,-111.51"/>
<polygon fill="black" stroke="black" points="243.06,-108.39 232.65,-106.42 239.55,-114.45 243.06,-108.39"/>
</g>
<!-- Roles&#45;&gt;Signer -->
<g id="edge12" class="edge">
<title>Roles&#45;&gt;Signer</title>
<path fill="none" stroke="black" d="M162.08,-216.09C155.19,-192.14 142.44,-146.9 133,-108 128,-87.4 123.03,-63.95 119.42,-46.29"/>
<polygon fill="black" stroke="black" points="122.78,-45.23 117.36,-36.13 115.92,-46.62 122.78,-45.23"/>
</g>
<!-- Roles&#45;&gt;Errors -->
<g id="edge13" class="edge">
<title>Roles&#45;&gt;Errors</title>
<path fill="none" stroke="black" d="M179.72,-217.63C195.03,-199.43 221.83,-168.48 247,-144 287.17,-104.92 337.6,-63.55 367.74,-39.56"/>
<polygon fill="black" stroke="black" points="370.01,-42.22 375.68,-33.27 365.67,-36.73 370.01,-42.22"/>
</g>
<!-- Roles&#45;&gt;CoreAddresses -->
<g id="edge14" class="edge">
<title>Roles&#45;&gt;CoreAddresses</title>
<path fill="none" stroke="black" d="M166.66,-215.85C166.78,-197.61 168.33,-168.12 176,-144 179.01,-134.53 183.86,-124.87 188.78,-116.43"/>
<polygon fill="black" stroke="black" points="191.82,-118.18 194.08,-107.83 185.86,-114.51 191.82,-118.18"/>
</g>
<!-- Roles&#45;&gt;DiemTimestamp -->
<g id="edge15" class="edge">
<title>Roles&#45;&gt;DiemTimestamp</title>
<path fill="none" stroke="black" d="M190.95,-222.52C215.34,-211.85 253.69,-195.07 283.46,-182.05"/>
<polygon fill="black" stroke="black" points="285.04,-185.18 292.8,-177.96 282.24,-178.76 285.04,-185.18"/>
</g>
<!-- DiemConfig&#45;&gt;Signer -->
<g id="edge16" class="edge">
<title>DiemConfig&#45;&gt;Signer</title>
<path fill="none" stroke="black" d="M200.97,-296.84C174.7,-289.67 143.94,-276.4 127,-252 83.49,-189.32 96.96,-92.76 107.12,-46.1"/>
<polygon fill="black" stroke="black" points="110.58,-46.67 109.41,-36.14 103.76,-45.1 110.58,-46.67"/>
</g>
<!-- DiemConfig&#45;&gt;Errors -->
<g id="edge17" class="edge">
<title>DiemConfig&#45;&gt;Errors</title>
<path fill="none" stroke="black" d="M279.26,-291.17C317.54,-272.3 380.53,-234.48 407,-180 428.1,-136.57 414.94,-78.73 404.05,-45.51"/>
<polygon fill="black" stroke="black" points="407.36,-44.35 400.79,-36.03 400.74,-46.62 407.36,-44.35"/>
</g>
<!-- DiemConfig&#45;&gt;CoreAddresses -->
<g id="edge18" class="edge">
<title>DiemConfig&#45;&gt;CoreAddresses</title>
<path fill="none" stroke="black" d="M244.63,-287.85C237.35,-250.75 220.09,-162.81 211.32,-118.1"/>
<polygon fill="black" stroke="black" points="214.74,-117.37 209.38,-108.23 207.87,-118.72 214.74,-117.37"/>
</g>
<!-- DiemConfig&#45;&gt;DiemTimestamp -->
<g id="edge19" class="edge">
<title>DiemConfig&#45;&gt;DiemTimestamp</title>
<path fill="none" stroke="black" d="M257.37,-288.15C270.96,-263.73 296.25,-218.26 312.33,-189.38"/>
<polygon fill="black" stroke="black" points="315.59,-190.71 317.39,-180.27 309.47,-187.3 315.59,-190.71"/>
</g>
<!-- DiemConfig&#45;&gt;Roles -->
<g id="edge20" class="edge">
<title>DiemConfig&#45;&gt;Roles</title>
<path fill="none" stroke="black" d="M229.21,-288.76C217.87,-278.96 203.29,-266.36 191.1,-255.83"/>
<polygon fill="black" stroke="black" points="193.34,-253.14 183.49,-249.25 188.77,-258.44 193.34,-253.14"/>
</g>
<!-- Event -->
<g id="node9" class="node">
<title>Event</title>
<ellipse fill="none" stroke="black" cx="519" cy="-234" rx="31.4" ry="18"/>
<text text-anchor="middle" x="519" y="-230.3" font-family="Times,serif" font-size="14.00">Event</text>
</g>
<!-- DiemConfig&#45;&gt;Event -->
<g id="edge21" class="edge">
<title>DiemConfig&#45;&gt;Event</title>
<path fill="none" stroke="black" d="M289.75,-294.22C341.98,-280.73 430.65,-257.82 481.04,-244.81"/>
<polygon fill="black" stroke="black" points="482.08,-248.15 490.88,-242.26 480.33,-241.37 482.08,-248.15"/>
</g>
<!-- Event&#45;&gt;Signer -->
<g id="edge22" class="edge">
<title>Event&#45;&gt;Signer</title>
<path fill="none" stroke="black" d="M502.56,-218.56C481.27,-200.19 442.66,-167.97 407,-144 352.83,-107.58 338.82,-98.11 279,-72 237.52,-53.89 187.81,-38.76 153.87,-29.37"/>
<polygon fill="black" stroke="black" points="154.44,-25.89 143.87,-26.64 152.59,-32.65 154.44,-25.89"/>
</g>
<!-- Event&#45;&gt;Errors -->
<g id="edge23" class="edge">
<title>Event&#45;&gt;Errors</title>
<path fill="none" stroke="black" d="M533.12,-217.62C541.25,-207.69 550.68,-194.03 555,-180 559.7,-164.71 561.37,-158.68 555,-144 531.18,-89.12 468.61,-52.21 428.85,-33.47"/>
<polygon fill="black" stroke="black" points="430.07,-30.18 419.52,-29.2 427.16,-36.54 430.07,-30.18"/>
</g>
<!-- Event&#45;&gt;Vector -->
<g id="edge24" class="edge">
<title>Event&#45;&gt;Vector</title>
<path fill="none" stroke="black" d="M539.92,-220.49C558.24,-209.52 585.09,-193.46 605.75,-181.1"/>
<polygon fill="black" stroke="black" points="607.69,-184.02 614.47,-175.88 604.09,-178.01 607.69,-184.02"/>
</g>
<!-- BCS -->
<g id="node10" class="node">
<title>BCS</title>
<ellipse fill="none" stroke="black" cx="519" cy="-162" rx="27.1" ry="18"/>
<text text-anchor="middle" x="519" y="-158.3" font-family="Times,serif" font-size="14.00">BCS</text>
</g>
<!-- Event&#45;&gt;BCS -->
<g id="edge25" class="edge">
<title>Event&#45;&gt;BCS</title>
<path fill="none" stroke="black" d="M519,-215.7C519,-207.98 519,-198.71 519,-190.11"/>
<polygon fill="black" stroke="black" points="522.5,-190.1 519,-180.1 515.5,-190.1 522.5,-190.1"/>
</g>
</g>
</svg>
