<?xml version="1.0" encoding="UTF-8" standalone="no"?>
<!DOCTYPE svg PUBLIC "-//W3C//DTD SVG 1.1//EN"
 "http://www.w3.org/Graphics/SVG/1.1/DTD/svg11.dtd">
<!-- Generated by graphviz version 2.46.1 (20210213.1702)
 -->
<!-- Title: G Pages: 1 -->
<svg width="588pt" height="429pt"
 viewBox="0.00 0.00 588.00 429.00" xmlns="http://www.w3.org/2000/svg" xmlns:xlink="http://www.w3.org/1999/xlink">
<g id="graph0" class="graph" transform="scale(1 1) rotate(0) translate(4 425)">
<title>G</title>
<polygon fill="white" stroke="transparent" points="-4,4 -4,-425 584,-425 584,4 -4,4"/>
<g id="clust1" class="cluster">
<title>cluster_FixedPoint32</title>
<polygon fill="none" stroke="black" points="74,-230 74,-305 206,-305 206,-230 74,-230"/>
<text text-anchor="middle" x="140" y="-289.8" font-family="Times,serif" font-size="14.00">FixedPoint32</text>
</g>
<g id="clust2" class="cluster">
<title>cluster_Errors</title>
<polygon fill="none" stroke="black" points="8,-8 8,-158 292,-158 292,-8 8,-8"/>
<text text-anchor="middle" x="150" y="-142.8" font-family="Times,serif" font-size="14.00">Errors</text>
</g>
<g id="clust3" class="cluster">
<title>cluster_CoreAddresses</title>
<polygon fill="none" stroke="black" points="300,-8 300,-83 572,-83 572,-8 300,-8"/>
<text text-anchor="middle" x="436" y="-67.8" font-family="Times,serif" font-size="14.00">CoreAddresses</text>
</g>
<!-- approx_xdx_for_coin -->
<g id="node1" class="node">
<title>approx_xdx_for_coin</title>
<ellipse fill="none" stroke="black" cx="154" cy="-403" rx="87.18" ry="18"/>
<text text-anchor="middle" x="154" y="-399.3" font-family="Times,serif" font-size="14.00">approx_xdx_for_coin</text>
</g>
<!-- value -->
<g id="node2" class="node">
<title>value</title>
<ellipse fill="none" stroke="black" cx="85" cy="-331" rx="29.8" ry="18"/>
<text text-anchor="middle" x="85" y="-327.3" font-family="Times,serif" font-size="14.00">value</text>
</g>
<!-- approx_xdx_for_coin&#45;&gt;value -->
<g id="edge1" class="edge">
<title>approx_xdx_for_coin&#45;&gt;value</title>
<path fill="none" stroke="black" d="M137.3,-385.05C128.14,-375.77 116.69,-364.15 106.83,-354.15"/>
<polygon fill="black" stroke="black" points="109.19,-351.55 99.68,-346.89 104.2,-356.47 109.19,-351.55"/>
</g>
<!-- approx_xdx_for_value -->
<g id="node3" class="node">
<title>approx_xdx_for_value</title>
<ellipse fill="none" stroke="black" cx="224" cy="-331" rx="90.98" ry="18"/>
<text text-anchor="middle" x="224" y="-327.3" font-family="Times,serif" font-size="14.00">approx_xdx_for_value</text>
</g>
<!-- approx_xdx_for_coin&#45;&gt;approx_xdx_for_value -->
<g id="edge2" class="edge">
<title>approx_xdx_for_coin&#45;&gt;approx_xdx_for_value</title>
<path fill="none" stroke="black" d="M170.95,-385.05C179.63,-376.37 190.36,-365.64 199.89,-356.11"/>
<polygon fill="black" stroke="black" points="202.61,-358.33 207.21,-348.79 197.67,-353.39 202.61,-358.33"/>
</g>
<!-- FixedPoint32::multiply_u64 -->
<g id="node4" class="node">
<title>FixedPoint32::multiply_u64</title>
<ellipse fill="none" stroke="black" cx="140" cy="-256" rx="58.49" ry="18"/>
<text text-anchor="middle" x="140" y="-252.3" font-family="Times,serif" font-size="14.00">multiply_u64</text>
</g>
<!-- approx_xdx_for_value&#45;&gt;FixedPoint32::multiply_u64 -->
<g id="edge3" class="edge">
<title>approx_xdx_for_value&#45;&gt;FixedPoint32::multiply_u64</title>
<path fill="none" stroke="black" d="M204.52,-313.07C193.15,-303.19 178.65,-290.59 166.28,-279.84"/>
<polygon fill="black" stroke="black" points="168.36,-277.01 158.51,-273.09 163.76,-282.29 168.36,-277.01"/>
</g>
<!-- xdx_exchange_rate -->
<g id="node5" class="node">
<title>xdx_exchange_rate</title>
<ellipse fill="none" stroke="black" cx="308" cy="-256" rx="79.09" ry="18"/>
<text text-anchor="middle" x="308" y="-252.3" font-family="Times,serif" font-size="14.00">xdx_exchange_rate</text>
</g>
<!-- approx_xdx_for_value&#45;&gt;xdx_exchange_rate -->
<g id="edge4" class="edge">
<title>approx_xdx_for_value&#45;&gt;xdx_exchange_rate</title>
<path fill="none" stroke="black" d="M243.48,-313.07C254.69,-303.33 268.94,-290.94 281.2,-280.29"/>
<polygon fill="black" stroke="black" points="283.66,-282.79 288.91,-273.59 279.07,-277.51 283.66,-282.79"/>
</g>
<!-- Errors::limit_exceeded -->
<g id="node6" class="node">
<title>Errors::limit_exceeded</title>
<ellipse fill="none" stroke="black" cx="81" cy="-109" rx="64.99" ry="18"/>
<text text-anchor="middle" x="81" y="-105.3" font-family="Times,serif" font-size="14.00">limit_exceeded</text>
</g>
<!-- FixedPoint32::multiply_u64&#45;&gt;Errors::limit_exceeded -->
<g id="edge5" class="edge">
<title>FixedPoint32::multiply_u64&#45;&gt;Errors::limit_exceeded</title>
<path fill="none" stroke="black" d="M133.12,-238.08C122.96,-213.11 103.85,-166.17 91.81,-136.57"/>
<polygon fill="black" stroke="black" points="95.03,-135.2 88.02,-127.26 88.55,-137.84 95.03,-135.2"/>
</g>
<!-- CoreAddresses::CURRENCY_INFO_ADDRESS -->
<g id="node7" class="node">
<title>CoreAddresses::CURRENCY_INFO_ADDRESS</title>
<ellipse fill="none" stroke="black" cx="436" cy="-34" rx="128.08" ry="18"/>
<text text-anchor="middle" x="436" y="-30.3" font-family="Times,serif" font-size="14.00">CURRENCY_INFO_ADDRESS</text>
</g>
<!-- xdx_exchange_rate&#45;&gt;CoreAddresses::CURRENCY_INFO_ADDRESS -->
<g id="edge6" class="edge">
<title>xdx_exchange_rate&#45;&gt;CoreAddresses::CURRENCY_INFO_ADDRESS</title>
<path fill="none" stroke="black" d="M341.21,-239.65C358.27,-230.54 378.46,-217.69 393,-202 428.78,-163.4 435.7,-99.05 436.52,-62.53"/>
<polygon fill="black" stroke="black" points="440.02,-62.17 436.6,-52.15 433.02,-62.12 440.02,-62.17"/>
</g>
<!-- assert_is_currency -->
<g id="node8" class="node">
<title>assert_is_currency</title>
<ellipse fill="none" stroke="black" cx="308" cy="-184" rx="76.09" ry="18"/>
<text text-anchor="middle" x="308" y="-180.3" font-family="Times,serif" font-size="14.00">assert_is_currency</text>
</g>
<!-- xdx_exchange_rate&#45;&gt;assert_is_currency -->
<g id="edge7" class="edge">
<title>xdx_exchange_rate&#45;&gt;assert_is_currency</title>
<path fill="none" stroke="black" d="M308,-237.7C308,-229.98 308,-220.71 308,-212.11"/>
<polygon fill="black" stroke="black" points="311.5,-212.1 308,-202.1 304.5,-212.1 311.5,-212.1"/>
</g>
<!-- Errors::make -->
<g id="node9" class="node">
<title>Errors::make</title>
<ellipse fill="none" stroke="black" cx="152" cy="-34" rx="30.59" ry="18"/>
<text text-anchor="middle" x="152" y="-30.3" font-family="Times,serif" font-size="14.00">make</text>
</g>
<!-- Errors::limit_exceeded&#45;&gt;Errors::make -->
<g id="edge8" class="edge">
<title>Errors::limit_exceeded&#45;&gt;Errors::make</title>
<path fill="none" stroke="black" d="M97.11,-91.44C106.95,-81.32 119.66,-68.25 130.37,-57.24"/>
<polygon fill="black" stroke="black" points="132.94,-59.62 137.4,-50.01 127.92,-54.74 132.94,-59.62"/>
</g>
<!-- Errors::not_published -->
<g id="node10" class="node">
<title>Errors::not_published</title>
<ellipse fill="none" stroke="black" cx="224" cy="-109" rx="60.39" ry="18"/>
<text text-anchor="middle" x="224" y="-105.3" font-family="Times,serif" font-size="14.00">not_published</text>
</g>
<!-- assert_is_currency&#45;&gt;Errors::not_published -->
<g id="edge9" class="edge">
<title>assert_is_currency&#45;&gt;Errors::not_published</title>
<path fill="none" stroke="black" d="M288.94,-166.44C277.58,-156.57 263,-143.89 250.53,-133.06"/>
<polygon fill="black" stroke="black" points="252.54,-130.17 242.7,-126.25 247.95,-135.45 252.54,-130.17"/>
</g>
<!-- is_currency -->
<g id="node11" class="node">
<title>is_currency</title>
<ellipse fill="none" stroke="black" cx="355" cy="-109" rx="51.99" ry="18"/>
<text text-anchor="middle" x="355" y="-105.3" font-family="Times,serif" font-size="14.00">is_currency</text>
</g>
<!-- assert_is_currency&#45;&gt;is_currency -->
<g id="edge10" class="edge">
<title>assert_is_currency&#45;&gt;is_currency</title>
<path fill="none" stroke="black" d="M318.9,-166.07C324.77,-156.95 332.14,-145.51 338.68,-135.35"/>
<polygon fill="black" stroke="black" points="341.69,-137.14 344.16,-126.84 335.8,-133.35 341.69,-137.14"/>
</g>
<!-- Errors::not_published&#45;&gt;Errors::make -->
<g id="edge11" class="edge">
<title>Errors::not_published&#45;&gt;Errors::make</title>
<path fill="none" stroke="black" d="M207.66,-91.44C197.68,-81.32 184.8,-68.25 173.94,-57.24"/>
<polygon fill="black" stroke="black" points="176.32,-54.67 166.8,-50.01 171.33,-59.59 176.32,-54.67"/>
</g>
<!-- is_currency&#45;&gt;CoreAddresses::CURRENCY_INFO_ADDRESS -->
<g id="edge12" class="edge">
<title>is_currency&#45;&gt;CoreAddresses::CURRENCY_INFO_ADDRESS</title>
<path fill="none" stroke="black" d="M372.98,-91.8C383.76,-82.08 397.66,-69.55 409.67,-58.73"/>
<polygon fill="black" stroke="black" points="412.14,-61.21 417.23,-51.92 407.46,-56.01 412.14,-61.21"/>
</g>
</g>
</svg>
