<?xml version="1.0" encoding="UTF-8" standalone="no"?>
<!DOCTYPE svg PUBLIC "-//W3C//DTD SVG 1.1//EN"
 "http://www.w3.org/Graphics/SVG/1.1/DTD/svg11.dtd">
<!-- Generated by graphviz version 2.46.1 (20210213.1702)
 -->
<!-- Title: G Pages: 1 -->
<svg width="2180pt" height="614pt"
 viewBox="0.00 0.00 2180.00 614.00" xmlns="http://www.w3.org/2000/svg" xmlns:xlink="http://www.w3.org/1999/xlink">
<g id="graph0" class="graph" transform="scale(1 1) rotate(0) translate(4 610)">
<title>G</title>
<polygon fill="white" stroke="transparent" points="-4,4 -4,-610 2176,-610 2176,4 -4,4"/>
<g id="clust1" class="cluster">
<title>cluster_Signer</title>
<polygon fill="none" stroke="black" points="1012,-329 1012,-479 1162,-479 1162,-329 1012,-329"/>
<text text-anchor="middle" x="1087" y="-463.8" font-family="Times,serif" font-size="14.00">Signer</text>
</g>
<g id="clust2" class="cluster">
<title>cluster_Errors</title>
<polygon fill="none" stroke="black" points="974,-163 974,-321 1538,-321 1538,-163 974,-163"/>
<text text-anchor="middle" x="1256" y="-305.8" font-family="Times,serif" font-size="14.00">Errors</text>
</g>
<g id="clust3" class="cluster">
<title>cluster_DiemTimestamp</title>
<polygon fill="none" stroke="black" points="610,-91 610,-321 896,-321 896,-91 610,-91"/>
<text text-anchor="middle" x="753" y="-305.8" font-family="Times,serif" font-size="14.00">DiemTimestamp</text>
</g>
<g id="clust4" class="cluster">
<title>cluster_Roles</title>
<polygon fill="none" stroke="black" points="1177,-487 1177,-562 1393,-562 1393,-487 1177,-487"/>
<text text-anchor="middle" x="1285" y="-546.8" font-family="Times,serif" font-size="14.00">Roles</text>
</g>
<g id="clust5" class="cluster">
<title>cluster_Vector</title>
<polygon fill="none" stroke="black" points="1694,-91 1694,-238 2119,-238 2119,-91 1694,-91"/>
<text text-anchor="middle" x="1906.5" y="-222.8" font-family="Times,serif" font-size="14.00">Vector</text>
</g>
<g id="clust6" class="cluster">
<title>cluster_Option</title>
<polygon fill="none" stroke="black" points="1836,-246 1836,-404 2076,-404 2076,-246 1836,-246"/>
<text text-anchor="middle" x="1956" y="-388.8" font-family="Times,serif" font-size="14.00">Option</text>
</g>
<g id="clust7" class="cluster">
<title>cluster_ValidatorConfig</title>
<polygon fill="none" stroke="black" points="1464,-329 1464,-479 1798,-479 1798,-329 1464,-329"/>
<text text-anchor="middle" x="1631" y="-463.8" font-family="Times,serif" font-size="14.00">ValidatorConfig</text>
</g>
<g id="clust8" class="cluster">
<title>cluster_CoreAddresses</title>
<polygon fill="none" stroke="black" points="341,-8 341,-83 571,-83 571,-8 341,-8"/>
<text text-anchor="middle" x="456" y="-67.8" font-family="Times,serif" font-size="14.00">CoreAddresses</text>
</g>
<g id="clust9" class="cluster">
<title>cluster_DiemConfig</title>
<polygon fill="none" stroke="black" points="8,-246 8,-479 378,-479 378,-246 8,-246"/>
<text text-anchor="middle" x="193" y="-463.8" font-family="Times,serif" font-size="14.00">DiemConfig</text>
</g>
<g id="clust10" class="cluster">
<title>cluster_Event</title>
<polygon fill="none" stroke="black" points="386,-163 386,-321 572,-321 572,-163 386,-163"/>
<text text-anchor="middle" x="479" y="-305.8" font-family="Times,serif" font-size="14.00">Event</text>
</g>
<!-- update_config_and_reconfigure -->
<g id="node1" class="node">
<title>update_config_and_reconfigure</title>
<ellipse fill="none" stroke="black" cx="1285" cy="-588" rx="122.38" ry="18"/>
<text text-anchor="middle" x="1285" y="-584.3" font-family="Times,serif" font-size="14.00">update_config_and_reconfigure</text>
</g>
<!-- Signer::address_of -->
<g id="node2" class="node">
<title>Signer::address_of</title>
<ellipse fill="none" stroke="black" cx="1103" cy="-430" rx="48.99" ry="18"/>
<text text-anchor="middle" x="1103" y="-426.3" font-family="Times,serif" font-size="14.00">address_of</text>
</g>
<!-- update_config_and_reconfigure&#45;&gt;Signer::address_of -->
<g id="edge1" class="edge">
<title>update_config_and_reconfigure&#45;&gt;Signer::address_of</title>
<path fill="none" stroke="black" d="M1186.57,-577.21C1167.18,-573.56 1150.5,-568.64 1143,-562 1113.5,-535.9 1105.43,-488.72 1103.41,-458.68"/>
<polygon fill="black" stroke="black" points="1106.89,-458.27 1102.91,-448.45 1099.9,-458.61 1106.89,-458.27"/>
</g>
<!-- Errors::invalid_argument -->
<g id="node3" class="node">
<title>Errors::invalid_argument</title>
<ellipse fill="none" stroke="black" cx="1457" cy="-272" rx="73.39" ry="18"/>
<text text-anchor="middle" x="1457" y="-268.3" font-family="Times,serif" font-size="14.00">invalid_argument</text>
</g>
<!-- update_config_and_reconfigure&#45;&gt;Errors::invalid_argument -->
<g id="edge2" class="edge">
<title>update_config_and_reconfigure&#45;&gt;Errors::invalid_argument</title>
<path fill="none" stroke="black" d="M1199.9,-575.06C1187.42,-571.65 1177.3,-567.36 1173,-562 1152.15,-535.99 1158.13,-516.83 1173,-487 1199.89,-433.07 1350.94,-336.93 1421.14,-294.33"/>
<polygon fill="black" stroke="black" points="1423.34,-297.09 1430.08,-288.93 1419.72,-291.1 1423.34,-297.09"/>
</g>
<!-- DiemTimestamp::assert_operating -->
<g id="node4" class="node">
<title>DiemTimestamp::assert_operating</title>
<ellipse fill="none" stroke="black" cx="820" cy="-189" rx="68.49" ry="18"/>
<text text-anchor="middle" x="820" y="-185.3" font-family="Times,serif" font-size="14.00">assert_operating</text>
</g>
<!-- update_config_and_reconfigure&#45;&gt;DiemTimestamp::assert_operating -->
<g id="edge3" class="edge">
<title>update_config_and_reconfigure&#45;&gt;DiemTimestamp::assert_operating</title>
<path fill="none" stroke="black" d="M1182.73,-578.06C1149.7,-574.08 1117.8,-568.74 1103,-562 1051.97,-538.77 1040.06,-524.99 1008,-479 944.61,-388.06 991.29,-330.03 919,-246 905.18,-229.94 885.56,-217.5 867.42,-208.48"/>
<polygon fill="black" stroke="black" points="868.64,-205.18 858.11,-204.06 865.65,-211.51 868.64,-205.18"/>
</g>
<!-- DiemTimestamp::now_microseconds -->
<g id="node5" class="node">
<title>DiemTimestamp::now_microseconds</title>
<ellipse fill="none" stroke="black" cx="809" cy="-272" rx="79.09" ry="18"/>
<text text-anchor="middle" x="809" y="-268.3" font-family="Times,serif" font-size="14.00">now_microseconds</text>
</g>
<!-- update_config_and_reconfigure&#45;&gt;DiemTimestamp::now_microseconds -->
<g id="edge4" class="edge">
<title>update_config_and_reconfigure&#45;&gt;DiemTimestamp::now_microseconds</title>
<path fill="none" stroke="black" d="M1163.84,-585.41C1012.85,-582.82 772.78,-576.45 759,-562 689.1,-488.7 758.02,-354.81 792.23,-298.76"/>
<polygon fill="black" stroke="black" points="795.28,-300.48 797.59,-290.14 789.33,-296.79 795.28,-300.48"/>
</g>
<!-- Roles::assert_validator_operator -->
<g id="node6" class="node">
<title>Roles::assert_validator_operator</title>
<ellipse fill="none" stroke="black" cx="1285" cy="-513" rx="100.18" ry="18"/>
<text text-anchor="middle" x="1285" y="-509.3" font-family="Times,serif" font-size="14.00">assert_validator_operator</text>
</g>
<!-- update_config_and_reconfigure&#45;&gt;Roles::assert_validator_operator -->
<g id="edge5" class="edge">
<title>update_config_and_reconfigure&#45;&gt;Roles::assert_validator_operator</title>
<path fill="none" stroke="black" d="M1285,-569.7C1285,-561.25 1285,-550.87 1285,-541.37"/>
<polygon fill="black" stroke="black" points="1288.5,-541.18 1285,-531.18 1281.5,-541.18 1288.5,-541.18"/>
</g>
<!-- Vector::borrow_mut -->
<g id="node7" class="node">
<title>Vector::borrow_mut</title>
<ellipse fill="none" stroke="black" cx="2056" cy="-189" rx="54.69" ry="18"/>
<text text-anchor="middle" x="2056" y="-185.3" font-family="Times,serif" font-size="14.00">borrow_mut</text>
</g>
<!-- update_config_and_reconfigure&#45;&gt;Vector::borrow_mut -->
<g id="edge6" class="edge">
<title>update_config_and_reconfigure&#45;&gt;Vector::borrow_mut</title>
<path fill="none" stroke="black" d="M1407.27,-587.97C1570.22,-588.3 1849.59,-585.24 1949,-562 2060.93,-535.83 2172,-545.95 2172,-431 2172,-431 2172,-431 2172,-354 2172,-294.11 2119.8,-240.77 2085.43,-212.14"/>
<polygon fill="black" stroke="black" points="2087.52,-209.33 2077.55,-205.74 2083.11,-214.76 2087.52,-209.33"/>
</g>
<!-- Option::borrow -->
<g id="node8" class="node">
<title>Option::borrow</title>
<ellipse fill="none" stroke="black" cx="1880" cy="-355" rx="36.29" ry="18"/>
<text text-anchor="middle" x="1880" y="-351.3" font-family="Times,serif" font-size="14.00">borrow</text>
</g>
<!-- update_config_and_reconfigure&#45;&gt;Option::borrow -->
<g id="edge7" class="edge">
<title>update_config_and_reconfigure&#45;&gt;Option::borrow</title>
<path fill="none" stroke="black" d="M1405.83,-585.14C1561.97,-582.21 1815.87,-575.41 1832,-562 1884.82,-518.07 1886.07,-428.34 1882.92,-383.2"/>
<polygon fill="black" stroke="black" points="1886.39,-382.68 1882.08,-373 1879.41,-383.25 1886.39,-382.68"/>
</g>
<!-- Option::is_some -->
<g id="node9" class="node">
<title>Option::is_some</title>
<ellipse fill="none" stroke="black" cx="1884" cy="-272" rx="40.09" ry="18"/>
<text text-anchor="middle" x="1884" y="-268.3" font-family="Times,serif" font-size="14.00">is_some</text>
</g>
<!-- update_config_and_reconfigure&#45;&gt;Option::is_some -->
<g id="edge8" class="edge">
<title>update_config_and_reconfigure&#45;&gt;Option::is_some</title>
<path fill="none" stroke="black" d="M1406.52,-586.08C1502.7,-584.08 1628.61,-578.3 1677,-562 1740.2,-540.71 1764.31,-534.02 1802,-479 1840.58,-422.68 1804.23,-389.93 1835,-329 1841.1,-316.93 1850.4,-305.36 1859.27,-295.91"/>
<polygon fill="black" stroke="black" points="1862.03,-298.09 1866.54,-288.5 1857.04,-293.19 1862.03,-298.09"/>
</g>
<!-- ValidatorConfig::get_operator -->
<g id="node10" class="node">
<title>ValidatorConfig::get_operator</title>
<ellipse fill="none" stroke="black" cx="1735" cy="-430" rx="55.49" ry="18"/>
<text text-anchor="middle" x="1735" y="-426.3" font-family="Times,serif" font-size="14.00">get_operator</text>
</g>
<!-- update_config_and_reconfigure&#45;&gt;ValidatorConfig::get_operator -->
<g id="edge9" class="edge">
<title>update_config_and_reconfigure&#45;&gt;ValidatorConfig::get_operator</title>
<path fill="none" stroke="black" d="M1402.25,-582.91C1492.91,-578.99 1606.24,-572.16 1626,-562 1671.07,-538.82 1704.62,-488.02 1721.9,-456.93"/>
<polygon fill="black" stroke="black" points="1725.06,-458.43 1726.73,-447.97 1718.9,-455.11 1725.06,-458.43"/>
</g>
<!-- get_diem_system_config -->
<g id="node11" class="node">
<title>get_diem_system_config</title>
<ellipse fill="none" stroke="black" cx="272" cy="-513" rx="99.38" ry="18"/>
<text text-anchor="middle" x="272" y="-509.3" font-family="Times,serif" font-size="14.00">get_diem_system_config</text>
</g>
<!-- update_config_and_reconfigure&#45;&gt;get_diem_system_config -->
<g id="edge10" class="edge">
<title>update_config_and_reconfigure&#45;&gt;get_diem_system_config</title>
<path fill="none" stroke="black" d="M1163.24,-586.2C1028.62,-584.44 805.45,-578.96 614,-562 523.63,-554 420.62,-538.69 351.47,-527.5"/>
<polygon fill="black" stroke="black" points="351.95,-524.03 341.52,-525.88 350.83,-530.94 351.95,-524.03"/>
</g>
<!-- get_validator_index_ -->
<g id="node12" class="node">
<title>get_validator_index_</title>
<ellipse fill="none" stroke="black" cx="2040" cy="-430" rx="85.29" ry="18"/>
<text text-anchor="middle" x="2040" y="-426.3" font-family="Times,serif" font-size="14.00">get_validator_index_</text>
</g>
<!-- update_config_and_reconfigure&#45;&gt;get_validator_index_ -->
<g id="edge11" class="edge">
<title>update_config_and_reconfigure&#45;&gt;get_validator_index_</title>
<path fill="none" stroke="black" d="M1406.52,-586.05C1568.26,-584.16 1839,-578.53 1882,-562 1940.01,-539.7 1992.31,-486.98 2019.76,-455.64"/>
<polygon fill="black" stroke="black" points="2022.65,-457.65 2026.51,-447.79 2017.34,-453.09 2022.65,-457.65"/>
</g>
<!-- set_diem_system_config -->
<g id="node13" class="node">
<title>set_diem_system_config</title>
<ellipse fill="none" stroke="black" cx="867" cy="-513" rx="98.58" ry="18"/>
<text text-anchor="middle" x="867" y="-509.3" font-family="Times,serif" font-size="14.00">set_diem_system_config</text>
</g>
<!-- update_config_and_reconfigure&#45;&gt;set_diem_system_config -->
<g id="edge12" class="edge">
<title>update_config_and_reconfigure&#45;&gt;set_diem_system_config</title>
<path fill="none" stroke="black" d="M1163.34,-585.91C1106.89,-583.16 1039.32,-576.63 980,-562 954.76,-555.78 927.93,-544.59 906.74,-534.58"/>
<polygon fill="black" stroke="black" points="908.26,-531.43 897.73,-530.23 905.22,-537.73 908.26,-531.43"/>
</g>
<!-- update_ith_validator_info_ -->
<g id="node14" class="node">
<title>update_ith_validator_info_</title>
<ellipse fill="none" stroke="black" cx="1510" cy="-513" rx="106.68" ry="18"/>
<text text-anchor="middle" x="1510" y="-509.3" font-family="Times,serif" font-size="14.00">update_ith_validator_info_</text>
</g>
<!-- update_config_and_reconfigure&#45;&gt;update_ith_validator_info_ -->
<g id="edge13" class="edge">
<title>update_config_and_reconfigure&#45;&gt;update_ith_validator_info_</title>
<path fill="none" stroke="black" d="M1355.73,-573.27C1369.54,-570.01 1383.82,-566.23 1397,-562 1420.76,-554.37 1446.42,-543.68 1467.27,-534.33"/>
<polygon fill="black" stroke="black" points="1468.84,-537.46 1476.49,-530.14 1465.94,-531.09 1468.84,-537.46"/>
</g>
<!-- Signer::borrow_address -->
<g id="node15" class="node">
<title>Signer::borrow_address</title>
<ellipse fill="none" stroke="black" cx="1087" cy="-355" rx="66.89" ry="18"/>
<text text-anchor="middle" x="1087" y="-351.3" font-family="Times,serif" font-size="14.00">borrow_address</text>
</g>
<!-- Signer::address_of&#45;&gt;Signer::borrow_address -->
<g id="edge14" class="edge">
<title>Signer::address_of&#45;&gt;Signer::borrow_address</title>
<path fill="none" stroke="black" d="M1099.21,-411.7C1097.34,-403.15 1095.03,-392.65 1092.93,-383.07"/>
<polygon fill="black" stroke="black" points="1096.32,-382.19 1090.76,-373.18 1089.49,-383.69 1096.32,-382.19"/>
</g>
<!-- Errors::make -->
<g id="node16" class="node">
<title>Errors::make</title>
<ellipse fill="none" stroke="black" cx="1240" cy="-189" rx="30.59" ry="18"/>
<text text-anchor="middle" x="1240" y="-185.3" font-family="Times,serif" font-size="14.00">make</text>
</g>
<!-- Errors::invalid_argument&#45;&gt;Errors::make -->
<g id="edge15" class="edge">
<title>Errors::invalid_argument&#45;&gt;Errors::make</title>
<path fill="none" stroke="black" d="M1418.2,-256.52C1377.41,-241.29 1313.81,-217.55 1274.65,-202.93"/>
<polygon fill="black" stroke="black" points="1275.84,-199.64 1265.25,-199.42 1273.39,-206.2 1275.84,-199.64"/>
</g>
<!-- Errors::invalid_state -->
<g id="node17" class="node">
<title>Errors::invalid_state</title>
<ellipse fill="none" stroke="black" cx="1038" cy="-272" rx="55.79" ry="18"/>
<text text-anchor="middle" x="1038" y="-268.3" font-family="Times,serif" font-size="14.00">invalid_state</text>
</g>
<!-- DiemTimestamp::assert_operating&#45;&gt;Errors::invalid_state -->
<g id="edge16" class="edge">
<title>DiemTimestamp::assert_operating&#45;&gt;Errors::invalid_state</title>
<path fill="none" stroke="black" d="M858.06,-204.14C895.66,-218.11 953.18,-239.48 993.02,-254.29"/>
<polygon fill="black" stroke="black" points="991.9,-257.6 1002.49,-257.81 994.33,-251.04 991.9,-257.6"/>
</g>
<!-- DiemTimestamp::is_operating -->
<g id="node18" class="node">
<title>DiemTimestamp::is_operating</title>
<ellipse fill="none" stroke="black" cx="803" cy="-117" rx="53.89" ry="18"/>
<text text-anchor="middle" x="803" y="-113.3" font-family="Times,serif" font-size="14.00">is_operating</text>
</g>
<!-- DiemTimestamp::assert_operating&#45;&gt;DiemTimestamp::is_operating -->
<g id="edge17" class="edge">
<title>DiemTimestamp::assert_operating&#45;&gt;DiemTimestamp::is_operating</title>
<path fill="none" stroke="black" d="M815.8,-170.7C813.9,-162.9 811.62,-153.51 809.52,-144.83"/>
<polygon fill="black" stroke="black" points="812.92,-144 807.15,-135.1 806.11,-145.65 812.92,-144"/>
</g>
<!-- DiemTimestamp::now_microseconds&#45;&gt;DiemTimestamp::assert_operating -->
<g id="edge19" class="edge">
<title>DiemTimestamp::now_microseconds&#45;&gt;DiemTimestamp::assert_operating</title>
<path fill="none" stroke="black" d="M811.33,-253.82C812.78,-243.19 814.66,-229.31 816.31,-217.2"/>
<polygon fill="black" stroke="black" points="819.79,-217.53 817.67,-207.15 812.86,-216.59 819.79,-217.53"/>
</g>
<!-- CoreAddresses::DIEM_ROOT_ADDRESS -->
<g id="node19" class="node">
<title>CoreAddresses::DIEM_ROOT_ADDRESS</title>
<ellipse fill="none" stroke="black" cx="456" cy="-34" rx="106.68" ry="18"/>
<text text-anchor="middle" x="456" y="-30.3" font-family="Times,serif" font-size="14.00">DIEM_ROOT_ADDRESS</text>
</g>
<!-- DiemTimestamp::now_microseconds&#45;&gt;CoreAddresses::DIEM_ROOT_ADDRESS -->
<g id="edge18" class="edge">
<title>DiemTimestamp::now_microseconds&#45;&gt;CoreAddresses::DIEM_ROOT_ADDRESS</title>
<path fill="none" stroke="black" d="M771.51,-256.04C761.66,-251.13 751.44,-245.08 743,-238 680.7,-185.71 700.25,-138.18 634,-91 606.02,-71.08 570.68,-58.05 538.88,-49.62"/>
<polygon fill="black" stroke="black" points="539.69,-46.22 529.14,-47.16 537.97,-53 539.69,-46.22"/>
</g>
<!-- Roles::assert_validator_operator&#45;&gt;Signer::address_of -->
<g id="edge20" class="edge">
<title>Roles::assert_validator_operator&#45;&gt;Signer::address_of</title>
<path fill="none" stroke="black" d="M1245.26,-496.33C1232.06,-490.99 1217.34,-484.88 1204,-479 1182.72,-469.62 1159.25,-458.51 1140.29,-449.34"/>
<polygon fill="black" stroke="black" points="1141.62,-446.1 1131.1,-444.88 1138.57,-452.4 1141.62,-446.1"/>
</g>
<!-- Errors::not_published -->
<g id="node20" class="node">
<title>Errors::not_published</title>
<ellipse fill="none" stroke="black" cx="1172" cy="-272" rx="60.39" ry="18"/>
<text text-anchor="middle" x="1172" y="-268.3" font-family="Times,serif" font-size="14.00">not_published</text>
</g>
<!-- Roles::assert_validator_operator&#45;&gt;Errors::not_published -->
<g id="edge21" class="edge">
<title>Roles::assert_validator_operator&#45;&gt;Errors::not_published</title>
<path fill="none" stroke="black" d="M1276.87,-494.81C1257.33,-453.47 1207.59,-348.27 1184.33,-299.09"/>
<polygon fill="black" stroke="black" points="1187.49,-297.58 1180.05,-290.03 1181.16,-300.57 1187.49,-297.58"/>
</g>
<!-- Errors::requires_role -->
<g id="node21" class="node">
<title>Errors::requires_role</title>
<ellipse fill="none" stroke="black" cx="1308" cy="-272" rx="57.39" ry="18"/>
<text text-anchor="middle" x="1308" y="-268.3" font-family="Times,serif" font-size="14.00">requires_role</text>
</g>
<!-- Roles::assert_validator_operator&#45;&gt;Errors::requires_role -->
<g id="edge22" class="edge">
<title>Roles::assert_validator_operator&#45;&gt;Errors::requires_role</title>
<path fill="none" stroke="black" d="M1286.65,-494.81C1290.61,-453.73 1300.63,-349.58 1305.4,-300.02"/>
<polygon fill="black" stroke="black" points="1308.89,-300.32 1306.36,-290.03 1301.92,-299.65 1308.89,-300.32"/>
</g>
<!-- Option::borrow&#45;&gt;Errors::invalid_argument -->
<g id="edge23" class="edge">
<title>Option::borrow&#45;&gt;Errors::invalid_argument</title>
<path fill="none" stroke="black" d="M1851.4,-343.7C1836.77,-338.72 1818.59,-332.98 1802,-329 1710.05,-306.93 1602.2,-290.98 1531.89,-281.88"/>
<polygon fill="black" stroke="black" points="1532.16,-278.38 1521.79,-280.58 1531.27,-285.32 1532.16,-278.38"/>
</g>
<!-- Option::borrow&#45;&gt;Option::is_some -->
<g id="edge25" class="edge">
<title>Option::borrow&#45;&gt;Option::is_some</title>
<path fill="none" stroke="black" d="M1880.85,-336.82C1881.37,-326.19 1882.06,-312.31 1882.66,-300.2"/>
<polygon fill="black" stroke="black" points="1886.16,-300.31 1883.15,-290.15 1879.16,-299.97 1886.16,-300.31"/>
</g>
<!-- Vector::borrow -->
<g id="node22" class="node">
<title>Vector::borrow</title>
<ellipse fill="none" stroke="black" cx="1947" cy="-189" rx="36.29" ry="18"/>
<text text-anchor="middle" x="1947" y="-185.3" font-family="Times,serif" font-size="14.00">borrow</text>
</g>
<!-- Option::borrow&#45;&gt;Vector::borrow -->
<g id="edge24" class="edge">
<title>Option::borrow&#45;&gt;Vector::borrow</title>
<path fill="none" stroke="black" d="M1904.31,-341.59C1916.48,-334.87 1929.37,-326.79 1933,-321 1952.63,-289.7 1953.06,-245.73 1950.71,-217.55"/>
<polygon fill="black" stroke="black" points="1954.15,-216.83 1949.66,-207.23 1947.19,-217.53 1954.15,-216.83"/>
</g>
<!-- Vector::is_empty -->
<g id="node23" class="node">
<title>Vector::is_empty</title>
<ellipse fill="none" stroke="black" cx="1746" cy="-189" rx="43.59" ry="18"/>
<text text-anchor="middle" x="1746" y="-185.3" font-family="Times,serif" font-size="14.00">is_empty</text>
</g>
<!-- Option::is_some&#45;&gt;Vector::is_empty -->
<g id="edge26" class="edge">
<title>Option::is_some&#45;&gt;Vector::is_empty</title>
<path fill="none" stroke="black" d="M1850.78,-261.53C1834.22,-256.01 1814.3,-248.13 1798,-238 1787.18,-231.28 1776.6,-222.13 1767.84,-213.63"/>
<polygon fill="black" stroke="black" points="1770.18,-211.02 1760.65,-206.39 1765.22,-215.95 1770.18,-211.02"/>
</g>
<!-- ValidatorConfig::get_operator&#45;&gt;Errors::invalid_argument -->
<g id="edge27" class="edge">
<title>ValidatorConfig::get_operator&#45;&gt;Errors::invalid_argument</title>
<path fill="none" stroke="black" d="M1695.28,-417.38C1687.29,-415.35 1678.92,-413.43 1671,-412 1652.98,-408.75 1604.79,-413.27 1589,-404 1554.02,-383.46 1565.62,-357.75 1537,-329 1524.02,-315.97 1507.68,-303.92 1493.15,-294.37"/>
<polygon fill="black" stroke="black" points="1494.7,-291.2 1484.39,-288.76 1490.92,-297.1 1494.7,-291.2"/>
</g>
<!-- ValidatorConfig::get_operator&#45;&gt;Option::borrow -->
<g id="edge29" class="edge">
<title>ValidatorConfig::get_operator&#45;&gt;Option::borrow</title>
<path fill="none" stroke="black" d="M1772.05,-416.64C1781.95,-412.94 1792.52,-408.63 1802,-404 1818.92,-395.74 1836.88,-384.85 1851.29,-375.53"/>
<polygon fill="black" stroke="black" points="1853.32,-378.38 1859.77,-369.97 1849.48,-372.53 1853.32,-378.38"/>
</g>
<!-- ValidatorConfig::get_operator&#45;&gt;Option::is_some -->
<g id="edge30" class="edge">
<title>ValidatorConfig::get_operator&#45;&gt;Option::is_some</title>
<path fill="none" stroke="black" d="M1747.86,-412.46C1749.95,-409.67 1752.06,-406.77 1754,-404 1776.66,-371.55 1774.44,-357.4 1802,-329 1816.05,-314.52 1834.39,-301.58 1850.16,-291.79"/>
<polygon fill="black" stroke="black" points="1852.34,-294.57 1859.1,-286.41 1848.73,-288.57 1852.34,-294.57"/>
</g>
<!-- ValidatorConfig::get_operator&#45;&gt;Errors::not_published -->
<g id="edge28" class="edge">
<title>ValidatorConfig::get_operator&#45;&gt;Errors::not_published</title>
<path fill="none" stroke="black" d="M1695.67,-417.22C1687.57,-415.17 1679.06,-413.29 1671,-412 1610.34,-402.29 1593.28,-415.88 1533,-404 1432.47,-384.18 1414.99,-351.39 1315,-329 1283.15,-321.87 1272.6,-332.35 1242,-321 1226.28,-315.17 1210.71,-305.05 1198.26,-295.59"/>
<polygon fill="black" stroke="black" points="1200.2,-292.66 1190.18,-289.22 1195.86,-298.16 1200.2,-292.66"/>
</g>
<!-- DiemConfig::get -->
<g id="node24" class="node">
<title>DiemConfig::get</title>
<ellipse fill="none" stroke="black" cx="43" cy="-430" rx="27" ry="18"/>
<text text-anchor="middle" x="43" y="-426.3" font-family="Times,serif" font-size="14.00">get</text>
</g>
<!-- get_diem_system_config&#45;&gt;DiemConfig::get -->
<g id="edge31" class="edge">
<title>get_diem_system_config&#45;&gt;DiemConfig::get</title>
<path fill="none" stroke="black" d="M186.86,-503.68C143.94,-498.27 97.2,-490.12 79,-479 69.9,-473.44 62.31,-464.64 56.49,-456.09"/>
<polygon fill="black" stroke="black" points="59.34,-454.05 51.08,-447.42 53.4,-457.75 59.34,-454.05"/>
</g>
<!-- get_validator_index_&#45;&gt;Vector::borrow -->
<g id="edge32" class="edge">
<title>get_validator_index_&#45;&gt;Vector::borrow</title>
<path fill="none" stroke="black" d="M2072.53,-413.12C2075.5,-410.47 2078.09,-407.44 2080,-404 2114.04,-342.58 2127.35,-297.85 2080,-246 2066.76,-231.5 2009.65,-246.61 1992,-238 1981,-232.63 1971.32,-223.34 1963.79,-214.36"/>
<polygon fill="black" stroke="black" points="1966.41,-212.03 1957.49,-206.31 1960.9,-216.35 1966.41,-212.03"/>
</g>
<!-- Vector::length -->
<g id="node25" class="node">
<title>Vector::length</title>
<ellipse fill="none" stroke="black" cx="1746" cy="-117" rx="32.49" ry="18"/>
<text text-anchor="middle" x="1746" y="-113.3" font-family="Times,serif" font-size="14.00">length</text>
</g>
<!-- get_validator_index_&#45;&gt;Vector::length -->
<g id="edge33" class="edge">
<title>get_validator_index_&#45;&gt;Vector::length</title>
<path fill="none" stroke="black" d="M2094.21,-416.06C2099.51,-412.88 2104.29,-408.92 2108,-404 2172.5,-318.32 2192.53,-242 2120,-163 2095.34,-136.14 1828.62,-142.82 1793,-135 1789.11,-134.14 1785.1,-133.05 1781.14,-131.83"/>
<polygon fill="black" stroke="black" points="1782.09,-128.46 1771.5,-128.59 1779.87,-135.09 1782.09,-128.46"/>
</g>
<!-- Option::none -->
<g id="node26" class="node">
<title>Option::none</title>
<ellipse fill="none" stroke="black" cx="2040" cy="-355" rx="27.9" ry="18"/>
<text text-anchor="middle" x="2040" y="-351.3" font-family="Times,serif" font-size="14.00">none</text>
</g>
<!-- get_validator_index_&#45;&gt;Option::none -->
<g id="edge34" class="edge">
<title>get_validator_index_&#45;&gt;Option::none</title>
<path fill="none" stroke="black" d="M2040,-411.7C2040,-403.25 2040,-392.87 2040,-383.37"/>
<polygon fill="black" stroke="black" points="2043.5,-383.18 2040,-373.18 2036.5,-383.18 2043.5,-383.18"/>
</g>
<!-- Option::some -->
<g id="node27" class="node">
<title>Option::some</title>
<ellipse fill="none" stroke="black" cx="1964" cy="-355" rx="29.8" ry="18"/>
<text text-anchor="middle" x="1964" y="-351.3" font-family="Times,serif" font-size="14.00">some</text>
</g>
<!-- get_validator_index_&#45;&gt;Option::some -->
<g id="edge35" class="edge">
<title>get_validator_index_&#45;&gt;Option::some</title>
<path fill="none" stroke="black" d="M2013.79,-412.72C2010.03,-409.98 2006.32,-407.04 2003,-404 1995.24,-396.9 1987.71,-388.2 1981.37,-380.17"/>
<polygon fill="black" stroke="black" points="1984.08,-377.96 1975.23,-372.14 1978.52,-382.21 1984.08,-377.96"/>
</g>
<!-- set_diem_system_config&#45;&gt;DiemTimestamp::assert_operating -->
<g id="edge38" class="edge">
<title>set_diem_system_config&#45;&gt;DiemTimestamp::assert_operating</title>
<path fill="none" stroke="black" d="M875.1,-494.97C894.77,-450.98 940.34,-331.1 897,-246 889.43,-231.14 875.87,-219.29 862.21,-210.39"/>
<polygon fill="black" stroke="black" points="863.65,-207.17 853.28,-204.97 860.01,-213.15 863.65,-207.17"/>
</g>
<!-- set_diem_system_config&#45;&gt;CoreAddresses::DIEM_ROOT_ADDRESS -->
<g id="edge37" class="edge">
<title>set_diem_system_config&#45;&gt;CoreAddresses::DIEM_ROOT_ADDRESS</title>
<path fill="none" stroke="black" d="M830.24,-496.12C772.47,-469.13 661.32,-408.59 606,-321 567.83,-260.57 608.4,-226.71 576,-163 554.26,-120.25 513.87,-81.66 485.99,-58.29"/>
<polygon fill="black" stroke="black" points="488.08,-55.48 478.13,-51.83 483.63,-60.88 488.08,-55.48"/>
</g>
<!-- set_diem_system_config&#45;&gt;Errors::not_published -->
<g id="edge36" class="edge">
<title>set_diem_system_config&#45;&gt;Errors::not_published</title>
<path fill="none" stroke="black" d="M905.83,-496.39C914.48,-491.69 923.11,-485.91 930,-479 983.05,-425.79 945.46,-370.66 1008,-329 1025.63,-317.25 1083.07,-328.18 1103,-321 1118.62,-315.37 1133.98,-305.27 1146.23,-295.78"/>
<polygon fill="black" stroke="black" points="1148.59,-298.37 1154.18,-289.37 1144.19,-292.92 1148.59,-298.37"/>
</g>
<!-- DiemConfig::set_with_capability_and_reconfigure -->
<g id="node28" class="node">
<title>DiemConfig::set_with_capability_and_reconfigure</title>
<ellipse fill="none" stroke="black" cx="229" cy="-430" rx="141.07" ry="18"/>
<text text-anchor="middle" x="229" y="-426.3" font-family="Times,serif" font-size="14.00">set_with_capability_and_reconfigure</text>
</g>
<!-- set_diem_system_config&#45;&gt;DiemConfig::set_with_capability_and_reconfigure -->
<g id="edge39" class="edge">
<title>set_diem_system_config&#45;&gt;DiemConfig::set_with_capability_and_reconfigure</title>
<path fill="none" stroke="black" d="M788.45,-502.03C674.54,-487.57 463.2,-460.73 335.41,-444.51"/>
<polygon fill="black" stroke="black" points="335.58,-441 325.22,-443.22 334.7,-447.95 335.58,-441"/>
</g>
<!-- update_ith_validator_info_&#45;&gt;Vector::borrow_mut -->
<g id="edge40" class="edge">
<title>update_ith_validator_info_&#45;&gt;Vector::borrow_mut</title>
<path fill="none" stroke="black" d="M1475.65,-495.95C1469.36,-491.39 1463.65,-485.78 1460,-479 1428.41,-420.29 1414.57,-377.79 1460,-329 1468.5,-319.87 1559.72,-323.19 1572,-321 1690.41,-299.93 1713.37,-265.8 1832,-246 1867.11,-240.14 1958.52,-250.1 1992,-238 2006.82,-232.64 2021.08,-222.61 2032.36,-213.09"/>
<polygon fill="black" stroke="black" points="2034.83,-215.57 2040.01,-206.33 2030.2,-210.33 2034.83,-215.57"/>
</g>
<!-- update_ith_validator_info_&#45;&gt;Vector::length -->
<g id="edge41" class="edge">
<title>update_ith_validator_info_&#45;&gt;Vector::length</title>
<path fill="none" stroke="black" d="M1450.68,-497.98C1441.78,-493.35 1433.69,-487.19 1428,-479 1389.95,-424.25 1380.51,-377.74 1426,-329 1443.63,-310.11 1521.11,-336.21 1542,-321 1571.02,-299.86 1550.03,-274.39 1572,-246 1610.93,-195.69 1674.66,-155.85 1713.24,-134.7"/>
<polygon fill="black" stroke="black" points="1715.32,-137.55 1722.47,-129.73 1712.01,-131.39 1715.32,-137.55"/>
</g>
<!-- ValidatorConfig::get_config -->
<g id="node29" class="node">
<title>ValidatorConfig::get_config</title>
<ellipse fill="none" stroke="black" cx="1614" cy="-430" rx="48.19" ry="18"/>
<text text-anchor="middle" x="1614" y="-426.3" font-family="Times,serif" font-size="14.00">get_config</text>
</g>
<!-- update_ith_validator_info_&#45;&gt;ValidatorConfig::get_config -->
<g id="edge42" class="edge">
<title>update_ith_validator_info_&#45;&gt;ValidatorConfig::get_config</title>
<path fill="none" stroke="black" d="M1534.69,-495.27C1541.97,-490.18 1549.89,-484.47 1557,-479 1567.49,-470.92 1578.71,-461.63 1588.39,-453.39"/>
<polygon fill="black" stroke="black" points="1590.8,-455.93 1596.11,-446.76 1586.24,-450.62 1590.8,-455.93"/>
</g>
<!-- ValidatorConfig::is_valid -->
<g id="node30" class="node">
<title>ValidatorConfig::is_valid</title>
<ellipse fill="none" stroke="black" cx="1510" cy="-430" rx="38.19" ry="18"/>
<text text-anchor="middle" x="1510" y="-426.3" font-family="Times,serif" font-size="14.00">is_valid</text>
</g>
<!-- update_ith_validator_info_&#45;&gt;ValidatorConfig::is_valid -->
<g id="edge43" class="edge">
<title>update_ith_validator_info_&#45;&gt;ValidatorConfig::is_valid</title>
<path fill="none" stroke="black" d="M1510,-494.82C1510,-484.19 1510,-470.31 1510,-458.2"/>
<polygon fill="black" stroke="black" points="1513.5,-458.15 1510,-448.15 1506.5,-458.15 1513.5,-458.15"/>
</g>
<!-- Errors::invalid_state&#45;&gt;Errors::make -->
<g id="edge44" class="edge">
<title>Errors::invalid_state&#45;&gt;Errors::make</title>
<path fill="none" stroke="black" d="M1071.81,-257.44C1109.03,-242.52 1168.53,-218.66 1205.87,-203.68"/>
<polygon fill="black" stroke="black" points="1207.34,-206.87 1215.32,-199.9 1204.74,-200.37 1207.34,-206.87"/>
</g>
<!-- DiemTimestamp::is_operating&#45;&gt;CoreAddresses::DIEM_ROOT_ADDRESS -->
<g id="edge45" class="edge">
<title>DiemTimestamp::is_operating&#45;&gt;CoreAddresses::DIEM_ROOT_ADDRESS</title>
<path fill="none" stroke="black" d="M765.13,-104.03C750.75,-99.67 734.19,-94.87 719,-91 657.16,-75.24 586.38,-60.35 533.84,-49.88"/>
<polygon fill="black" stroke="black" points="534.4,-46.43 523.91,-47.92 533.04,-53.29 534.4,-46.43"/>
</g>
<!-- Errors::not_published&#45;&gt;Errors::make -->
<g id="edge46" class="edge">
<title>Errors::not_published&#45;&gt;Errors::make</title>
<path fill="none" stroke="black" d="M1186.09,-254.22C1196.08,-242.32 1209.6,-226.21 1220.61,-213.1"/>
<polygon fill="black" stroke="black" points="1223.33,-215.3 1227.08,-205.39 1217.97,-210.8 1223.33,-215.3"/>
</g>
<!-- Errors::requires_role&#45;&gt;Errors::make -->
<g id="edge47" class="edge">
<title>Errors::requires_role&#45;&gt;Errors::make</title>
<path fill="none" stroke="black" d="M1293.91,-254.22C1283.92,-242.32 1270.4,-226.21 1259.39,-213.1"/>
<polygon fill="black" stroke="black" points="1262.03,-210.8 1252.92,-205.39 1256.67,-215.3 1262.03,-210.8"/>
</g>
<!-- Vector::is_empty&#45;&gt;Vector::length -->
<g id="edge48" class="edge">
<title>Vector::is_empty&#45;&gt;Vector::length</title>
<path fill="none" stroke="black" d="M1746,-170.7C1746,-162.98 1746,-153.71 1746,-145.11"/>
<polygon fill="black" stroke="black" points="1749.5,-145.1 1746,-135.1 1742.5,-145.1 1749.5,-145.1"/>
</g>
<!-- DiemConfig::get&#45;&gt;CoreAddresses::DIEM_ROOT_ADDRESS -->
<g id="edge50" class="edge">
<title>DiemConfig::get&#45;&gt;CoreAddresses::DIEM_ROOT_ADDRESS</title>
<path fill="none" stroke="black" d="M45.93,-411.75C50.55,-383.04 59,-323.64 59,-273 59,-273 59,-273 59,-188 59,-135.6 81.81,-119.15 126,-91 162.82,-67.55 270.07,-52.33 352.41,-43.77"/>
<polygon fill="black" stroke="black" points="352.98,-47.23 362.58,-42.73 352.27,-40.26 352.98,-47.23"/>
</g>
<!-- DiemConfig::get&#45;&gt;Errors::not_published -->
<g id="edge49" class="edge">
<title>DiemConfig::get&#45;&gt;Errors::not_published</title>
<path fill="none" stroke="black" d="M63.02,-417.76C68.09,-415.42 73.62,-413.28 79,-412 143.87,-396.54 312.79,-412.01 379,-404 534.78,-385.16 568.17,-347.41 724,-329 765.83,-324.06 1062.94,-334.03 1103,-321 1119.01,-315.79 1134.6,-305.53 1146.91,-295.83"/>
<polygon fill="black" stroke="black" points="1149.37,-298.33 1154.86,-289.27 1144.92,-292.93 1149.37,-298.33"/>
</g>
<!-- Vector::empty -->
<g id="node31" class="node">
<title>Vector::empty</title>
<ellipse fill="none" stroke="black" cx="2013" cy="-117" rx="33.29" ry="18"/>
<text text-anchor="middle" x="2013" y="-113.3" font-family="Times,serif" font-size="14.00">empty</text>
</g>
<!-- Option::none&#45;&gt;Vector::empty -->
<g id="edge51" class="edge">
<title>Option::none&#45;&gt;Vector::empty</title>
<path fill="none" stroke="black" d="M2055.03,-339.67C2087.86,-306.61 2159.98,-223.19 2120,-163 2105.58,-141.29 2078.41,-130.03 2055.06,-124.2"/>
<polygon fill="black" stroke="black" points="2055.52,-120.72 2045,-121.95 2053.99,-127.55 2055.52,-120.72"/>
</g>
<!-- Vector::singleton -->
<g id="node32" class="node">
<title>Vector::singleton</title>
<ellipse fill="none" stroke="black" cx="1850" cy="-189" rx="42.79" ry="18"/>
<text text-anchor="middle" x="1850" y="-185.3" font-family="Times,serif" font-size="14.00">singleton</text>
</g>
<!-- Option::some&#45;&gt;Vector::singleton -->
<g id="edge52" class="edge">
<title>Option::some&#45;&gt;Vector::singleton</title>
<path fill="none" stroke="black" d="M1964.05,-336.78C1963.15,-312.97 1957.88,-270.22 1933,-246 1922.8,-236.08 1914.49,-244.81 1902,-238 1890.65,-231.82 1879.85,-222.61 1871.06,-213.91"/>
<polygon fill="black" stroke="black" points="1873.36,-211.25 1863.89,-206.48 1868.32,-216.11 1873.36,-211.25"/>
</g>
<!-- DiemConfig::set_with_capability_and_reconfigure&#45;&gt;CoreAddresses::DIEM_ROOT_ADDRESS -->
<g id="edge54" class="edge">
<title>DiemConfig::set_with_capability_and_reconfigure&#45;&gt;CoreAddresses::DIEM_ROOT_ADDRESS</title>
<path fill="none" stroke="black" d="M204.47,-412.24C170.16,-386.6 112,-334.11 112,-273 112,-273 112,-273 112,-188 112,-85 242.35,-50.83 342.58,-39.78"/>
<polygon fill="black" stroke="black" points="343.2,-43.24 352.79,-38.72 342.48,-36.27 343.2,-43.24"/>
</g>
<!-- DiemConfig::set_with_capability_and_reconfigure&#45;&gt;Errors::not_published -->
<g id="edge53" class="edge">
<title>DiemConfig::set_with_capability_and_reconfigure&#45;&gt;Errors::not_published</title>
<path fill="none" stroke="black" d="M366,-425.71C488.23,-422.1 657.78,-415.28 724,-404 840.03,-384.23 862.1,-349.55 978,-329 1005.41,-324.14 1076.72,-330.17 1103,-321 1118.78,-315.49 1134.26,-305.3 1146.54,-295.72"/>
<polygon fill="black" stroke="black" points="1148.95,-298.27 1154.5,-289.25 1144.53,-292.84 1148.95,-298.27"/>
</g>
<!-- DiemConfig::reconfigure_ -->
<g id="node33" class="node">
<title>DiemConfig::reconfigure_</title>
<ellipse fill="none" stroke="black" cx="315" cy="-355" rx="55.49" ry="18"/>
<text text-anchor="middle" x="315" y="-351.3" font-family="Times,serif" font-size="14.00">reconfigure_</text>
</g>
<!-- DiemConfig::set_with_capability_and_reconfigure&#45;&gt;DiemConfig::reconfigure_ -->
<g id="edge55" class="edge">
<title>DiemConfig::set_with_capability_and_reconfigure&#45;&gt;DiemConfig::reconfigure_</title>
<path fill="none" stroke="black" d="M248.95,-412.07C260.59,-402.19 275.43,-389.59 288.09,-378.84"/>
<polygon fill="black" stroke="black" points="290.69,-381.23 296.05,-372.09 286.16,-375.89 290.69,-381.23"/>
</g>
<!-- ValidatorConfig::get_config&#45;&gt;Errors::invalid_argument -->
<g id="edge56" class="edge">
<title>ValidatorConfig::get_config&#45;&gt;Errors::invalid_argument</title>
<path fill="none" stroke="black" d="M1579.24,-417.48C1571.15,-413.89 1562.9,-409.41 1556,-404 1518.56,-374.62 1487.85,-327.86 1471.02,-298.87"/>
<polygon fill="black" stroke="black" points="1474.03,-297.09 1466.05,-290.13 1467.95,-300.55 1474.03,-297.09"/>
</g>
<!-- ValidatorConfig::get_config&#45;&gt;Option::borrow -->
<g id="edge58" class="edge">
<title>ValidatorConfig::get_config&#45;&gt;Option::borrow</title>
<path fill="none" stroke="black" d="M1648.36,-417.38C1655.75,-415.26 1663.58,-413.32 1671,-412 1728.44,-401.82 1746.38,-421.59 1802,-404 1820.46,-398.16 1839,-387.02 1853.37,-376.94"/>
<polygon fill="black" stroke="black" points="1855.71,-379.57 1861.74,-370.86 1851.59,-373.91 1855.71,-379.57"/>
</g>
<!-- ValidatorConfig::get_config&#45;&gt;Option::is_some -->
<g id="edge59" class="edge">
<title>ValidatorConfig::get_config&#45;&gt;Option::is_some</title>
<path fill="none" stroke="black" d="M1649.38,-417.66C1656.5,-415.61 1663.95,-413.61 1671,-412 1692.94,-407 1703.19,-417.75 1721,-404 1749.83,-381.74 1728.15,-354.65 1754,-329 1777.15,-306.03 1811.23,-291.83 1838.69,-283.47"/>
<polygon fill="black" stroke="black" points="1839.83,-286.79 1848.47,-280.65 1837.9,-280.06 1839.83,-286.79"/>
</g>
<!-- ValidatorConfig::get_config&#45;&gt;Errors::not_published -->
<g id="edge57" class="edge">
<title>ValidatorConfig::get_config&#45;&gt;Errors::not_published</title>
<path fill="none" stroke="black" d="M1579.66,-417.25C1572.27,-415.15 1564.44,-413.24 1557,-412 1512.9,-404.67 1398.3,-418.45 1356,-404 1321.91,-392.35 1241.96,-329.93 1199.55,-295.63"/>
<polygon fill="black" stroke="black" points="1201.56,-292.76 1191.59,-289.17 1197.15,-298.19 1201.56,-292.76"/>
</g>
<!-- ValidatorConfig::exists_config -->
<g id="node34" class="node">
<title>ValidatorConfig::exists_config</title>
<ellipse fill="none" stroke="black" cx="1655" cy="-355" rx="57.39" ry="18"/>
<text text-anchor="middle" x="1655" y="-351.3" font-family="Times,serif" font-size="14.00">exists_config</text>
</g>
<!-- ValidatorConfig::get_config&#45;&gt;ValidatorConfig::exists_config -->
<g id="edge60" class="edge">
<title>ValidatorConfig::get_config&#45;&gt;ValidatorConfig::exists_config</title>
<path fill="none" stroke="black" d="M1623.51,-412.07C1628.58,-403.04 1634.93,-391.74 1640.59,-381.66"/>
<polygon fill="black" stroke="black" points="1643.7,-383.27 1645.54,-372.84 1637.59,-379.84 1643.7,-383.27"/>
</g>
<!-- ValidatorConfig::is_valid&#45;&gt;Option::is_some -->
<g id="edge61" class="edge">
<title>ValidatorConfig::is_valid&#45;&gt;Option::is_some</title>
<path fill="none" stroke="black" d="M1518.36,-412.11C1530.56,-389.33 1555.51,-349.3 1589,-329 1609.88,-316.35 1758.18,-292.22 1836.23,-280.19"/>
<polygon fill="black" stroke="black" points="1836.94,-283.62 1846.3,-278.65 1835.88,-276.71 1836.94,-283.62"/>
</g>
<!-- Vector::singleton&#45;&gt;Vector::empty -->
<g id="edge62" class="edge">
<title>Vector::singleton&#45;&gt;Vector::empty</title>
<path fill="none" stroke="black" d="M1876.57,-174.83C1884.68,-170.91 1893.66,-166.69 1902,-163 1926.9,-151.98 1955.37,-140.46 1977.24,-131.83"/>
<polygon fill="black" stroke="black" points="1978.76,-135 1986.79,-128.09 1976.2,-128.48 1978.76,-135"/>
</g>
<!-- Vector::push_back -->
<g id="node35" class="node">
<title>Vector::push_back</title>
<ellipse fill="none" stroke="black" cx="1850" cy="-117" rx="48.19" ry="18"/>
<text text-anchor="middle" x="1850" y="-113.3" font-family="Times,serif" font-size="14.00">push_back</text>
</g>
<!-- Vector::singleton&#45;&gt;Vector::push_back -->
<g id="edge63" class="edge">
<title>Vector::singleton&#45;&gt;Vector::push_back</title>
<path fill="none" stroke="black" d="M1850,-170.7C1850,-162.98 1850,-153.71 1850,-145.11"/>
<polygon fill="black" stroke="black" points="1853.5,-145.1 1850,-135.1 1846.5,-145.1 1853.5,-145.1"/>
</g>
<!-- DiemConfig::reconfigure_&#45;&gt;DiemTimestamp::now_microseconds -->
<g id="edge67" class="edge">
<title>DiemConfig::reconfigure_&#45;&gt;DiemTimestamp::now_microseconds</title>
<path fill="none" stroke="black" d="M367.65,-349.46C427.37,-344.34 527.67,-335.84 614,-329 661.54,-325.24 675.26,-334.5 721,-321 740.72,-315.18 760.97,-304.51 777.08,-294.71"/>
<polygon fill="black" stroke="black" points="778.95,-297.66 785.56,-289.39 775.23,-291.73 778.95,-297.66"/>
</g>
<!-- DiemConfig::reconfigure_&#45;&gt;Errors::invalid_state -->
<g id="edge64" class="edge">
<title>DiemConfig::reconfigure_&#45;&gt;Errors::invalid_state</title>
<path fill="none" stroke="black" d="M368.29,-350.06C441.94,-344.71 579,-335.13 696,-329 741.31,-326.63 855.42,-329.43 900,-321 933.52,-314.66 969.91,-301.73 996.9,-290.89"/>
<polygon fill="black" stroke="black" points="998.46,-294.03 1006.39,-287.01 995.81,-287.55 998.46,-294.03"/>
</g>
<!-- DiemConfig::reconfigure_&#45;&gt;CoreAddresses::DIEM_ROOT_ADDRESS -->
<g id="edge65" class="edge">
<title>DiemConfig::reconfigure_&#45;&gt;CoreAddresses::DIEM_ROOT_ADDRESS</title>
<path fill="none" stroke="black" d="M262.71,-349.02C225.73,-344.29 180.72,-335.67 169,-321 148.19,-294.96 154.08,-275.81 169,-246 218.17,-147.76 337.3,-84.26 405.62,-54.59"/>
<polygon fill="black" stroke="black" points="407.08,-57.77 414.91,-50.63 404.34,-51.33 407.08,-57.77"/>
</g>
<!-- DiemTimestamp::is_genesis -->
<g id="node36" class="node">
<title>DiemTimestamp::is_genesis</title>
<ellipse fill="none" stroke="black" cx="665" cy="-272" rx="46.59" ry="18"/>
<text text-anchor="middle" x="665" y="-268.3" font-family="Times,serif" font-size="14.00">is_genesis</text>
</g>
<!-- DiemConfig::reconfigure_&#45;&gt;DiemTimestamp::is_genesis -->
<g id="edge66" class="edge">
<title>DiemConfig::reconfigure_&#45;&gt;DiemTimestamp::is_genesis</title>
<path fill="none" stroke="black" d="M369.99,-352.89C423.7,-350.46 507.17,-343.06 576,-321 596.31,-314.49 617.39,-303.35 633.93,-293.44"/>
<polygon fill="black" stroke="black" points="635.94,-296.31 642.62,-288.09 632.27,-290.35 635.94,-296.31"/>
</g>
<!-- Event::emit_event -->
<g id="node37" class="node">
<title>Event::emit_event</title>
<ellipse fill="none" stroke="black" cx="461" cy="-272" rx="50.09" ry="18"/>
<text text-anchor="middle" x="461" y="-268.3" font-family="Times,serif" font-size="14.00">emit_event</text>
</g>
<!-- DiemConfig::reconfigure_&#45;&gt;Event::emit_event -->
<g id="edge68" class="edge">
<title>DiemConfig::reconfigure_&#45;&gt;Event::emit_event</title>
<path fill="none" stroke="black" d="M345.31,-339.77C356.9,-334.15 370.18,-327.49 382,-321 397.58,-312.45 414.47,-302.32 428.61,-293.57"/>
<polygon fill="black" stroke="black" points="430.83,-296.31 437.47,-288.05 427.13,-290.37 430.83,-296.31"/>
</g>
<!-- DiemConfig::reconfiguration_enabled -->
<g id="node38" class="node">
<title>DiemConfig::reconfiguration_enabled</title>
<ellipse fill="none" stroke="black" cx="274" cy="-272" rx="96.38" ry="18"/>
<text text-anchor="middle" x="274" y="-268.3" font-family="Times,serif" font-size="14.00">reconfiguration_enabled</text>
</g>
<!-- DiemConfig::reconfigure_&#45;&gt;DiemConfig::reconfiguration_enabled -->
<g id="edge69" class="edge">
<title>DiemConfig::reconfigure_&#45;&gt;DiemConfig::reconfiguration_enabled</title>
<path fill="none" stroke="black" d="M306.3,-336.82C300.76,-325.87 293.47,-311.46 287.22,-299.11"/>
<polygon fill="black" stroke="black" points="290.32,-297.49 282.68,-290.15 284.08,-300.66 290.32,-297.49"/>
</g>
<!-- DiemTimestamp::is_genesis&#45;&gt;CoreAddresses::DIEM_ROOT_ADDRESS -->
<g id="edge70" class="edge">
<title>DiemTimestamp::is_genesis&#45;&gt;CoreAddresses::DIEM_ROOT_ADDRESS</title>
<path fill="none" stroke="black" d="M664.17,-253.9C661.57,-218.72 650.76,-137.61 606,-91 587.39,-71.62 561.45,-58.89 536.37,-50.56"/>
<polygon fill="black" stroke="black" points="537.41,-47.21 526.82,-47.57 535.32,-53.89 537.41,-47.21"/>
</g>
<!-- Event::write_to_event_store -->
<g id="node39" class="node">
<title>Event::write_to_event_store</title>
<ellipse fill="none" stroke="black" cx="479" cy="-189" rx="85.29" ry="18"/>
<text text-anchor="middle" x="479" y="-185.3" font-family="Times,serif" font-size="14.00">write_to_event_store</text>
</g>
<!-- Event::emit_event&#45;&gt;Event::write_to_event_store -->
<g id="edge71" class="edge">
<title>Event::emit_event&#45;&gt;Event::write_to_event_store</title>
<path fill="none" stroke="black" d="M464.82,-253.82C467.18,-243.19 470.27,-229.31 472.95,-217.2"/>
<polygon fill="black" stroke="black" points="476.44,-217.67 475.19,-207.15 469.6,-216.16 476.44,-217.67"/>
</g>
<!-- DiemConfig::reconfiguration_enabled&#45;&gt;CoreAddresses::DIEM_ROOT_ADDRESS -->
<g id="edge72" class="edge">
<title>DiemConfig::reconfiguration_enabled&#45;&gt;CoreAddresses::DIEM_ROOT_ADDRESS</title>
<path fill="none" stroke="black" d="M287.09,-254.03C318.69,-213.05 399.29,-108.53 436.56,-60.21"/>
<polygon fill="black" stroke="black" points="439.45,-62.19 442.79,-52.14 433.91,-57.92 439.45,-62.19"/>
</g>
</g>
</svg>
