<?xml version="1.0" encoding="UTF-8" standalone="no"?>
<!DOCTYPE svg PUBLIC "-//W3C//DTD SVG 1.1//EN"
 "http://www.w3.org/Graphics/SVG/1.1/DTD/svg11.dtd">
<!-- Generated by graphviz version 2.46.1 (20210213.1702)
 -->
<!-- Title: G Pages: 1 -->
<svg width="472pt" height="365pt"
 viewBox="0.00 0.00 472.00 365.00" xmlns="http://www.w3.org/2000/svg" xmlns:xlink="http://www.w3.org/1999/xlink">
<g id="graph0" class="graph" transform="scale(1 1) rotate(0) translate(4 361)">
<title>G</title>
<polygon fill="white" stroke="transparent" points="-4,4 -4,-361 468,-361 468,4 -4,4"/>
<g id="clust1" class="cluster">
<title>cluster_AccountLimits</title>
<polygon fill="none" stroke="black" points="252,-163 252,-238 456,-238 456,-163 252,-163"/>
<text text-anchor="middle" x="354" y="-222.8" font-family="Times,serif" font-size="14.00">AccountLimits</text>
</g>
<g id="clust2" class="cluster">
<title>cluster_VASP</title>
<polygon fill="none" stroke="black" points="8,-80 8,-313 244,-313 244,-80 8,-80"/>
<text text-anchor="middle" x="126" y="-297.8" font-family="Times,serif" font-size="14.00">VASP</text>
</g>
<g id="clust3" class="cluster">
<title>cluster_Errors</title>
<polygon fill="none" stroke="black" points="252,-8 252,-155 414,-155 414,-8 252,-8"/>
<text text-anchor="middle" x="333" y="-139.8" font-family="Times,serif" font-size="14.00">Errors</text>
</g>
<!-- has_published_account_limits -->
<g id="node1" class="node">
<title>has_published_account_limits</title>
<ellipse fill="none" stroke="black" cx="157" cy="-339" rx="117.78" ry="18"/>
<text text-anchor="middle" x="157" y="-335.3" font-family="Times,serif" font-size="14.00">has_published_account_limits</text>
</g>
<!-- AccountLimits::has_window_published -->
<g id="node2" class="node">
<title>AccountLimits::has_window_published</title>
<ellipse fill="none" stroke="black" cx="354" cy="-189" rx="93.68" ry="18"/>
<text text-anchor="middle" x="354" y="-185.3" font-family="Times,serif" font-size="14.00">has_window_published</text>
</g>
<!-- has_published_account_limits&#45;&gt;AccountLimits::has_window_published -->
<g id="edge1" class="edge">
<title>has_published_account_limits&#45;&gt;AccountLimits::has_window_published</title>
<path fill="none" stroke="black" d="M225.02,-324.17C233.08,-321.14 240.94,-317.47 248,-313 287.56,-287.99 320.39,-243.68 338.58,-215.63"/>
<polygon fill="black" stroke="black" points="341.57,-217.46 343.97,-207.14 335.66,-213.71 341.57,-217.46"/>
</g>
<!-- VASP::has_account_limits -->
<g id="node3" class="node">
<title>VASP::has_account_limits</title>
<ellipse fill="none" stroke="black" cx="157" cy="-264" rx="79.09" ry="18"/>
<text text-anchor="middle" x="157" y="-260.3" font-family="Times,serif" font-size="14.00">has_account_limits</text>
</g>
<!-- has_published_account_limits&#45;&gt;VASP::has_account_limits -->
<g id="edge2" class="edge">
<title>has_published_account_limits&#45;&gt;VASP::has_account_limits</title>
<path fill="none" stroke="black" d="M157,-320.7C157,-312.25 157,-301.87 157,-292.37"/>
<polygon fill="black" stroke="black" points="160.5,-292.18 157,-282.18 153.5,-292.18 160.5,-292.18"/>
</g>
<!-- VASP::is_vasp -->
<g id="node4" class="node">
<title>VASP::is_vasp</title>
<ellipse fill="none" stroke="black" cx="53" cy="-189" rx="37.09" ry="18"/>
<text text-anchor="middle" x="53" y="-185.3" font-family="Times,serif" font-size="14.00">is_vasp</text>
</g>
<!-- has_published_account_limits&#45;&gt;VASP::is_vasp -->
<g id="edge3" class="edge">
<title>has_published_account_limits&#45;&gt;VASP::is_vasp</title>
<path fill="none" stroke="black" d="M83.64,-324.92C78.15,-321.73 73.15,-317.81 69,-313 46.28,-286.66 45.86,-244.58 48.65,-217.11"/>
<polygon fill="black" stroke="black" points="52.14,-217.37 49.88,-207.02 45.19,-216.52 52.14,-217.37"/>
</g>
<!-- VASP::has_account_limits&#45;&gt;AccountLimits::has_window_published -->
<g id="edge4" class="edge">
<title>VASP::has_account_limits&#45;&gt;AccountLimits::has_window_published</title>
<path fill="none" stroke="black" d="M208.94,-250.25C221.83,-246.67 235.52,-242.51 248,-238 269.88,-230.1 293.52,-219.59 312.92,-210.42"/>
<polygon fill="black" stroke="black" points="314.56,-213.52 322.07,-206.05 311.54,-207.2 314.56,-213.52"/>
</g>
<!-- VASP::parent_address -->
<g id="node5" class="node">
<title>VASP::parent_address</title>
<ellipse fill="none" stroke="black" cx="172" cy="-189" rx="63.89" ry="18"/>
<text text-anchor="middle" x="172" y="-185.3" font-family="Times,serif" font-size="14.00">parent_address</text>
</g>
<!-- VASP::has_account_limits&#45;&gt;VASP::parent_address -->
<g id="edge5" class="edge">
<title>VASP::has_account_limits&#45;&gt;VASP::parent_address</title>
<path fill="none" stroke="black" d="M160.55,-245.7C162.31,-237.15 164.47,-226.65 166.44,-217.07"/>
<polygon fill="black" stroke="black" points="169.89,-217.68 168.47,-207.18 163.03,-216.27 169.89,-217.68"/>
</g>
<!-- VASP::is_child -->
<g id="node6" class="node">
<title>VASP::is_child</title>
<ellipse fill="none" stroke="black" cx="63" cy="-106" rx="38.19" ry="18"/>
<text text-anchor="middle" x="63" y="-102.3" font-family="Times,serif" font-size="14.00">is_child</text>
</g>
<!-- VASP::is_vasp&#45;&gt;VASP::is_child -->
<g id="edge6" class="edge">
<title>VASP::is_vasp&#45;&gt;VASP::is_child</title>
<path fill="none" stroke="black" d="M55.12,-170.82C56.43,-160.19 58.15,-146.31 59.64,-134.2"/>
<polygon fill="black" stroke="black" points="63.13,-134.51 60.88,-124.15 56.18,-133.65 63.13,-134.51"/>
</g>
<!-- VASP::is_parent -->
<g id="node7" class="node">
<title>VASP::is_parent</title>
<ellipse fill="none" stroke="black" cx="167" cy="-106" rx="42.79" ry="18"/>
<text text-anchor="middle" x="167" y="-102.3" font-family="Times,serif" font-size="14.00">is_parent</text>
</g>
<!-- VASP::is_vasp&#45;&gt;VASP::is_parent -->
<g id="edge7" class="edge">
<title>VASP::is_vasp&#45;&gt;VASP::is_parent</title>
<path fill="none" stroke="black" d="M77.15,-175.25C87.52,-169.47 99.61,-162.3 110,-155 120.92,-147.33 132.29,-138.05 141.98,-129.7"/>
<polygon fill="black" stroke="black" points="144.45,-132.19 149.67,-122.97 139.84,-126.92 144.45,-132.19"/>
</g>
<!-- VASP::parent_address&#45;&gt;VASP::is_child -->
<g id="edge9" class="edge">
<title>VASP::parent_address&#45;&gt;VASP::is_child</title>
<path fill="none" stroke="black" d="M143.1,-172.91C133.85,-167.65 123.74,-161.44 115,-155 104.75,-147.45 94.28,-138.14 85.44,-129.74"/>
<polygon fill="black" stroke="black" points="87.76,-127.11 78.14,-122.66 82.88,-132.14 87.76,-127.11"/>
</g>
<!-- VASP::parent_address&#45;&gt;VASP::is_parent -->
<g id="edge10" class="edge">
<title>VASP::parent_address&#45;&gt;VASP::is_parent</title>
<path fill="none" stroke="black" d="M170.94,-170.82C170.28,-160.19 169.43,-146.31 168.68,-134.2"/>
<polygon fill="black" stroke="black" points="172.17,-133.92 168.06,-124.15 165.18,-134.35 172.17,-133.92"/>
</g>
<!-- Errors::invalid_argument -->
<g id="node8" class="node">
<title>Errors::invalid_argument</title>
<ellipse fill="none" stroke="black" cx="333" cy="-106" rx="73.39" ry="18"/>
<text text-anchor="middle" x="333" y="-102.3" font-family="Times,serif" font-size="14.00">invalid_argument</text>
</g>
<!-- VASP::parent_address&#45;&gt;Errors::invalid_argument -->
<g id="edge8" class="edge">
<title>VASP::parent_address&#45;&gt;Errors::invalid_argument</title>
<path fill="none" stroke="black" d="M206.78,-173.8C219.84,-168.23 234.74,-161.6 248,-155 264.58,-146.74 282.5,-136.79 297.59,-128.09"/>
<polygon fill="black" stroke="black" points="299.7,-130.91 306.59,-122.86 296.18,-124.86 299.7,-130.91"/>
</g>
<!-- Errors::make -->
<g id="node9" class="node">
<title>Errors::make</title>
<ellipse fill="none" stroke="black" cx="333" cy="-34" rx="30.59" ry="18"/>
<text text-anchor="middle" x="333" y="-30.3" font-family="Times,serif" font-size="14.00">make</text>
</g>
<!-- Errors::invalid_argument&#45;&gt;Errors::make -->
<g id="edge11" class="edge">
<title>Errors::invalid_argument&#45;&gt;Errors::make</title>
<path fill="none" stroke="black" d="M333,-87.7C333,-79.98 333,-70.71 333,-62.11"/>
<polygon fill="black" stroke="black" points="336.5,-62.1 333,-52.1 329.5,-62.1 336.5,-62.1"/>
</g>
</g>
</svg>
