<?xml version="1.0" encoding="UTF-8" standalone="no"?>
<!DOCTYPE svg PUBLIC "-//W3C//DTD SVG 1.1//EN"
 "http://www.w3.org/Graphics/SVG/1.1/DTD/svg11.dtd">
<!-- Generated by graphviz version 2.46.1 (20210213.1702)
 -->
<!-- Title: G Pages: 1 -->
<svg width="1103pt" height="520pt"
 viewBox="0.00 0.00 1103.09 520.00" xmlns="http://www.w3.org/2000/svg" xmlns:xlink="http://www.w3.org/1999/xlink">
<g id="graph0" class="graph" transform="scale(1 1) rotate(0) translate(4 516)">
<title>G</title>
<polygon fill="white" stroke="transparent" points="-4,4 -4,-516 1099.09,-516 1099.09,4 -4,4"/>
<g id="clust1" class="cluster">
<title>cluster_Errors</title>
<polygon fill="none" stroke="black" points="821.09,-8 821.09,-166 1087.09,-166 1087.09,-8 821.09,-8"/>
<text text-anchor="middle" x="954.09" y="-150.8" font-family="Times,serif" font-size="14.00">Errors</text>
</g>
<g id="clust2" class="cluster">
<title>cluster_CoreAddresses</title>
<polygon fill="none" stroke="black" points="198.09,-8 198.09,-83 428.09,-83 428.09,-8 198.09,-8"/>
<text text-anchor="middle" x="313.09" y="-67.8" font-family="Times,serif" font-size="14.00">CoreAddresses</text>
</g>
<g id="clust3" class="cluster">
<title>cluster_DiemTimestamp</title>
<polygon fill="none" stroke="black" points="527.09,-91 527.09,-321 813.09,-321 813.09,-91 527.09,-91"/>
<text text-anchor="middle" x="670.09" y="-305.8" font-family="Times,serif" font-size="14.00">DiemTimestamp</text>
</g>
<g id="clust4" class="cluster">
<title>cluster_DiemConfig</title>
<polygon fill="none" stroke="black" points="27.09,-246 27.09,-468 325.09,-468 325.09,-246 27.09,-246"/>
<text text-anchor="middle" x="176.09" y="-452.8" font-family="Times,serif" font-size="14.00">DiemConfig</text>
</g>
<g id="clust5" class="cluster">
<title>cluster_Event</title>
<polygon fill="none" stroke="black" points="333.09,-174 333.09,-321 519.09,-321 519.09,-174 333.09,-174"/>
<text text-anchor="middle" x="426.09" y="-305.8" font-family="Times,serif" font-size="14.00">Event</text>
</g>
<!-- set_diem_system_config -->
<g id="node1" class="node">
<title>set_diem_system_config</title>
<ellipse fill="none" stroke="black" cx="542.09" cy="-494" rx="98.58" ry="18"/>
<text text-anchor="middle" x="542.09" y="-490.3" font-family="Times,serif" font-size="14.00">set_diem_system_config</text>
</g>
<!-- Errors::not_published -->
<g id="node2" class="node">
<title>Errors::not_published</title>
<ellipse fill="none" stroke="black" cx="1019.09" cy="-117" rx="60.39" ry="18"/>
<text text-anchor="middle" x="1019.09" y="-113.3" font-family="Times,serif" font-size="14.00">not_published</text>
</g>
<!-- set_diem_system_config&#45;&gt;Errors::not_published -->
<g id="edge1" class="edge">
<title>set_diem_system_config&#45;&gt;Errors::not_published</title>
<path fill="none" stroke="black" d="M621.96,-483.36C749.04,-465.76 983.09,-423.15 983.09,-348 983.09,-348 983.09,-348 983.09,-271 983.09,-225.84 998.14,-175.13 1008.78,-144.92"/>
<polygon fill="black" stroke="black" points="1012.21,-145.72 1012.32,-135.13 1005.63,-143.34 1012.21,-145.72"/>
</g>
<!-- CoreAddresses::DIEM_ROOT_ADDRESS -->
<g id="node3" class="node">
<title>CoreAddresses::DIEM_ROOT_ADDRESS</title>
<ellipse fill="none" stroke="black" cx="313.09" cy="-34" rx="106.68" ry="18"/>
<text text-anchor="middle" x="313.09" y="-30.3" font-family="Times,serif" font-size="14.00">DIEM_ROOT_ADDRESS</text>
</g>
<!-- set_diem_system_config&#45;&gt;CoreAddresses::DIEM_ROOT_ADDRESS -->
<g id="edge2" class="edge">
<title>set_diem_system_config&#45;&gt;CoreAddresses::DIEM_ROOT_ADDRESS</title>
<path fill="none" stroke="black" d="M444.16,-491.48C298.03,-488.77 38.32,-481.99 23.09,-468 -16.52,-431.59 7.09,-401.81 7.09,-348 7.09,-348 7.09,-348 7.09,-199 7.09,-144.09 23.18,-123.96 67.09,-91 105.37,-62.28 155.77,-47.88 200.98,-40.8"/>
<polygon fill="black" stroke="black" points="201.75,-44.22 211.14,-39.31 200.74,-37.29 201.75,-44.22"/>
</g>
<!-- DiemTimestamp::assert_operating -->
<g id="node4" class="node">
<title>DiemTimestamp::assert_operating</title>
<ellipse fill="none" stroke="black" cx="731.09" cy="-200" rx="68.49" ry="18"/>
<text text-anchor="middle" x="731.09" y="-196.3" font-family="Times,serif" font-size="14.00">assert_operating</text>
</g>
<!-- set_diem_system_config&#45;&gt;DiemTimestamp::assert_operating -->
<g id="edge3" class="edge">
<title>set_diem_system_config&#45;&gt;DiemTimestamp::assert_operating</title>
<path fill="none" stroke="black" d="M591.28,-478.34C655.88,-456.13 766.65,-407.13 814.09,-321 830.18,-291.8 831.15,-274.64 814.09,-246 807.08,-234.22 795.78,-225.33 783.75,-218.7"/>
<polygon fill="black" stroke="black" points="784.98,-215.4 774.47,-214.06 781.85,-221.66 784.98,-215.4"/>
</g>
<!-- DiemConfig::set_with_capability_and_reconfigure -->
<g id="node5" class="node">
<title>DiemConfig::set_with_capability_and_reconfigure</title>
<ellipse fill="none" stroke="black" cx="176.09" cy="-419" rx="141.07" ry="18"/>
<text text-anchor="middle" x="176.09" y="-415.3" font-family="Times,serif" font-size="14.00">set_with_capability_and_reconfigure</text>
</g>
<!-- set_diem_system_config&#45;&gt;DiemConfig::set_with_capability_and_reconfigure -->
<g id="edge4" class="edge">
<title>set_diem_system_config&#45;&gt;DiemConfig::set_with_capability_and_reconfigure</title>
<path fill="none" stroke="black" d="M477.92,-480.2C416.98,-468.05 325.07,-449.71 258.69,-436.47"/>
<polygon fill="black" stroke="black" points="259.17,-433 248.68,-434.48 257.8,-439.87 259.17,-433"/>
</g>
<!-- Errors::make -->
<g id="node6" class="node">
<title>Errors::make</title>
<ellipse fill="none" stroke="black" cx="952.09" cy="-34" rx="30.59" ry="18"/>
<text text-anchor="middle" x="952.09" y="-30.3" font-family="Times,serif" font-size="14.00">make</text>
</g>
<!-- Errors::not_published&#45;&gt;Errors::make -->
<g id="edge5" class="edge">
<title>Errors::not_published&#45;&gt;Errors::make</title>
<path fill="none" stroke="black" d="M1005.21,-99.22C995.37,-87.32 982.05,-71.21 971.2,-58.1"/>
<polygon fill="black" stroke="black" points="973.9,-55.87 964.83,-50.39 968.5,-60.33 973.9,-55.87"/>
</g>
<!-- Errors::invalid_state -->
<g id="node7" class="node">
<title>Errors::invalid_state</title>
<ellipse fill="none" stroke="black" cx="885.09" cy="-117" rx="55.79" ry="18"/>
<text text-anchor="middle" x="885.09" y="-113.3" font-family="Times,serif" font-size="14.00">invalid_state</text>
</g>
<!-- DiemTimestamp::assert_operating&#45;&gt;Errors::invalid_state -->
<g id="edge6" class="edge">
<title>DiemTimestamp::assert_operating&#45;&gt;Errors::invalid_state</title>
<path fill="none" stroke="black" d="M772.26,-185.56C786.78,-180.22 802.99,-173.53 817.09,-166 830.94,-158.6 845.28,-148.84 857.2,-140.05"/>
<polygon fill="black" stroke="black" points="859.53,-142.68 865.41,-133.87 855.32,-137.09 859.53,-142.68"/>
</g>
<!-- DiemTimestamp::is_operating -->
<g id="node8" class="node">
<title>DiemTimestamp::is_operating</title>
<ellipse fill="none" stroke="black" cx="709.09" cy="-117" rx="53.89" ry="18"/>
<text text-anchor="middle" x="709.09" y="-113.3" font-family="Times,serif" font-size="14.00">is_operating</text>
</g>
<!-- DiemTimestamp::assert_operating&#45;&gt;DiemTimestamp::is_operating -->
<g id="edge7" class="edge">
<title>DiemTimestamp::assert_operating&#45;&gt;DiemTimestamp::is_operating</title>
<path fill="none" stroke="black" d="M726.43,-181.82C723.51,-171.08 719.69,-157.03 716.38,-144.84"/>
<polygon fill="black" stroke="black" points="719.75,-143.89 713.75,-135.15 713,-145.72 719.75,-143.89"/>
</g>
<!-- DiemConfig::set_with_capability_and_reconfigure&#45;&gt;Errors::not_published -->
<g id="edge8" class="edge">
<title>DiemConfig::set_with_capability_and_reconfigure&#45;&gt;Errors::not_published</title>
<path fill="none" stroke="black" d="M300.76,-410.57C468.13,-398.8 755,-371.82 846.09,-321 920.49,-279.49 913.39,-238.45 969.09,-174 978.24,-163.42 988.51,-151.87 997.34,-142.02"/>
<polygon fill="black" stroke="black" points="999.99,-144.31 1004.08,-134.54 994.79,-139.63 999.99,-144.31"/>
</g>
<!-- DiemConfig::set_with_capability_and_reconfigure&#45;&gt;CoreAddresses::DIEM_ROOT_ADDRESS -->
<g id="edge9" class="edge">
<title>DiemConfig::set_with_capability_and_reconfigure&#45;&gt;CoreAddresses::DIEM_ROOT_ADDRESS</title>
<path fill="none" stroke="black" d="M150.91,-401.13C118.16,-376.95 65.09,-329.11 65.09,-273 65.09,-273 65.09,-273 65.09,-199 65.09,-114.9 165.56,-71.42 238.6,-50.92"/>
<polygon fill="black" stroke="black" points="239.53,-54.29 248.26,-48.29 237.69,-47.54 239.53,-54.29"/>
</g>
<!-- DiemConfig::reconfigure_ -->
<g id="node9" class="node">
<title>DiemConfig::reconfigure_</title>
<ellipse fill="none" stroke="black" cx="262.09" cy="-347" rx="55.49" ry="18"/>
<text text-anchor="middle" x="262.09" y="-343.3" font-family="Times,serif" font-size="14.00">reconfigure_</text>
</g>
<!-- DiemConfig::set_with_capability_and_reconfigure&#45;&gt;DiemConfig::reconfigure_ -->
<g id="edge10" class="edge">
<title>DiemConfig::set_with_capability_and_reconfigure&#45;&gt;DiemConfig::reconfigure_</title>
<path fill="none" stroke="black" d="M196.91,-401.05C208.14,-391.92 222.15,-380.51 234.3,-370.63"/>
<polygon fill="black" stroke="black" points="236.81,-373.09 242.35,-364.07 232.39,-367.67 236.81,-373.09"/>
</g>
<!-- Errors::invalid_state&#45;&gt;Errors::make -->
<g id="edge11" class="edge">
<title>Errors::invalid_state&#45;&gt;Errors::make</title>
<path fill="none" stroke="black" d="M898.98,-99.22C908.82,-87.32 922.14,-71.21 932.99,-58.1"/>
<polygon fill="black" stroke="black" points="935.69,-60.33 939.36,-50.39 930.29,-55.87 935.69,-60.33"/>
</g>
<!-- DiemTimestamp::is_operating&#45;&gt;CoreAddresses::DIEM_ROOT_ADDRESS -->
<g id="edge12" class="edge">
<title>DiemTimestamp::is_operating&#45;&gt;CoreAddresses::DIEM_ROOT_ADDRESS</title>
<path fill="none" stroke="black" d="M674.31,-103.21C661.76,-98.91 647.4,-94.36 634.09,-91 557.56,-71.68 469.09,-56.79 404.44,-47.23"/>
<polygon fill="black" stroke="black" points="404.67,-43.73 394.27,-45.74 403.66,-50.65 404.67,-43.73"/>
</g>
<!-- DiemConfig::reconfigure_&#45;&gt;CoreAddresses::DIEM_ROOT_ADDRESS -->
<g id="edge14" class="edge">
<title>DiemConfig::reconfigure_&#45;&gt;CoreAddresses::DIEM_ROOT_ADDRESS</title>
<path fill="none" stroke="black" d="M286.48,-330.75C289.49,-327.87 292.18,-324.61 294.09,-321 339.3,-235.63 326.87,-115.27 318.22,-62.08"/>
<polygon fill="black" stroke="black" points="321.65,-61.35 316.51,-52.08 314.75,-62.53 321.65,-61.35"/>
</g>
<!-- DiemConfig::reconfigure_&#45;&gt;Errors::invalid_state -->
<g id="edge13" class="edge">
<title>DiemConfig::reconfigure_&#45;&gt;Errors::invalid_state</title>
<path fill="none" stroke="black" d="M317.1,-345.26C453.51,-343.19 797.8,-336.45 817.09,-321 869.95,-278.69 832.95,-237.26 857.09,-174 860.95,-163.9 866.04,-153.2 870.81,-143.88"/>
<polygon fill="black" stroke="black" points="874.05,-145.24 875.62,-134.76 867.86,-141.98 874.05,-145.24"/>
</g>
<!-- DiemTimestamp::is_genesis -->
<g id="node10" class="node">
<title>DiemTimestamp::is_genesis</title>
<ellipse fill="none" stroke="black" cx="582.09" cy="-272" rx="46.59" ry="18"/>
<text text-anchor="middle" x="582.09" y="-268.3" font-family="Times,serif" font-size="14.00">is_genesis</text>
</g>
<!-- DiemConfig::reconfigure_&#45;&gt;DiemTimestamp::is_genesis -->
<g id="edge15" class="edge">
<title>DiemConfig::reconfigure_&#45;&gt;DiemTimestamp::is_genesis</title>
<path fill="none" stroke="black" d="M316.83,-344.47C382.12,-342 486.98,-335.81 523.09,-321 536.72,-315.41 549.68,-305.58 559.96,-296.26"/>
<polygon fill="black" stroke="black" points="562.43,-298.74 567.27,-289.31 557.61,-293.67 562.43,-298.74"/>
</g>
<!-- DiemTimestamp::now_microseconds -->
<g id="node11" class="node">
<title>DiemTimestamp::now_microseconds</title>
<ellipse fill="none" stroke="black" cx="726.09" cy="-272" rx="79.09" ry="18"/>
<text text-anchor="middle" x="726.09" y="-268.3" font-family="Times,serif" font-size="14.00">now_microseconds</text>
</g>
<!-- DiemConfig::reconfigure_&#45;&gt;DiemTimestamp::now_microseconds -->
<g id="edge16" class="edge">
<title>DiemConfig::reconfigure_&#45;&gt;DiemTimestamp::now_microseconds</title>
<path fill="none" stroke="black" d="M317.23,-345.24C406.73,-343.51 579.51,-338.03 638.09,-321 657.83,-315.26 678.09,-304.6 694.19,-294.78"/>
<polygon fill="black" stroke="black" points="696.07,-297.73 702.67,-289.45 692.35,-291.8 696.07,-297.73"/>
</g>
<!-- Event::emit_event -->
<g id="node12" class="node">
<title>Event::emit_event</title>
<ellipse fill="none" stroke="black" cx="408.09" cy="-272" rx="50.09" ry="18"/>
<text text-anchor="middle" x="408.09" y="-268.3" font-family="Times,serif" font-size="14.00">emit_event</text>
</g>
<!-- DiemConfig::reconfigure_&#45;&gt;Event::emit_event -->
<g id="edge17" class="edge">
<title>DiemConfig::reconfigure_&#45;&gt;Event::emit_event</title>
<path fill="none" stroke="black" d="M299.13,-333.6C309.02,-329.91 319.6,-325.61 329.09,-321 345.48,-313.05 362.86,-302.72 377.13,-293.68"/>
<polygon fill="black" stroke="black" points="379.06,-296.6 385.58,-288.25 375.27,-290.72 379.06,-296.6"/>
</g>
<!-- DiemConfig::reconfiguration_enabled -->
<g id="node13" class="node">
<title>DiemConfig::reconfiguration_enabled</title>
<ellipse fill="none" stroke="black" cx="189.09" cy="-272" rx="96.38" ry="18"/>
<text text-anchor="middle" x="189.09" y="-268.3" font-family="Times,serif" font-size="14.00">reconfiguration_enabled</text>
</g>
<!-- DiemConfig::reconfigure_&#45;&gt;DiemConfig::reconfiguration_enabled -->
<g id="edge18" class="edge">
<title>DiemConfig::reconfigure_&#45;&gt;DiemConfig::reconfiguration_enabled</title>
<path fill="none" stroke="black" d="M245.53,-329.44C235.98,-319.89 223.81,-307.72 213.22,-297.13"/>
<polygon fill="black" stroke="black" points="215.39,-294.35 205.85,-289.75 210.44,-299.3 215.39,-294.35"/>
</g>
<!-- DiemTimestamp::is_genesis&#45;&gt;CoreAddresses::DIEM_ROOT_ADDRESS -->
<g id="edge19" class="edge">
<title>DiemTimestamp::is_genesis&#45;&gt;CoreAddresses::DIEM_ROOT_ADDRESS</title>
<path fill="none" stroke="black" d="M574.63,-254.05C564.94,-233.41 546.47,-198.28 523.09,-174 473.31,-122.28 401.01,-79.72 355.54,-55.85"/>
<polygon fill="black" stroke="black" points="357.03,-52.68 346.55,-51.19 353.81,-58.9 357.03,-52.68"/>
</g>
<!-- DiemTimestamp::now_microseconds&#45;&gt;CoreAddresses::DIEM_ROOT_ADDRESS -->
<g id="edge20" class="edge">
<title>DiemTimestamp::now_microseconds&#45;&gt;CoreAddresses::DIEM_ROOT_ADDRESS</title>
<path fill="none" stroke="black" d="M703.71,-254.56C643.64,-210.42 483.15,-92.58 480.09,-91 448.48,-74.64 411.09,-61.58 379.71,-52.2"/>
<polygon fill="black" stroke="black" points="380.33,-48.73 369.75,-49.28 378.36,-55.45 380.33,-48.73"/>
</g>
<!-- DiemTimestamp::now_microseconds&#45;&gt;DiemTimestamp::assert_operating -->
<g id="edge21" class="edge">
<title>DiemTimestamp::now_microseconds&#45;&gt;DiemTimestamp::assert_operating</title>
<path fill="none" stroke="black" d="M727.33,-253.7C727.88,-245.98 728.54,-236.71 729.16,-228.11"/>
<polygon fill="black" stroke="black" points="732.65,-228.33 729.87,-218.1 725.67,-227.83 732.65,-228.33"/>
</g>
<!-- Event::write_to_event_store -->
<g id="node14" class="node">
<title>Event::write_to_event_store</title>
<ellipse fill="none" stroke="black" cx="426.09" cy="-200" rx="85.29" ry="18"/>
<text text-anchor="middle" x="426.09" y="-196.3" font-family="Times,serif" font-size="14.00">write_to_event_store</text>
</g>
<!-- Event::emit_event&#45;&gt;Event::write_to_event_store -->
<g id="edge22" class="edge">
<title>Event::emit_event&#45;&gt;Event::write_to_event_store</title>
<path fill="none" stroke="black" d="M412.45,-254.05C414.46,-246.26 416.88,-236.82 419.13,-228.08"/>
<polygon fill="black" stroke="black" points="422.55,-228.83 421.65,-218.28 415.77,-227.09 422.55,-228.83"/>
</g>
<!-- DiemConfig::reconfiguration_enabled&#45;&gt;CoreAddresses::DIEM_ROOT_ADDRESS -->
<g id="edge23" class="edge">
<title>DiemConfig::reconfiguration_enabled&#45;&gt;CoreAddresses::DIEM_ROOT_ADDRESS</title>
<path fill="none" stroke="black" d="M198.01,-254.03C219.41,-213.3 273.78,-109.83 299.37,-61.11"/>
<polygon fill="black" stroke="black" points="302.54,-62.62 304.09,-52.14 296.34,-59.36 302.54,-62.62"/>
</g>
</g>
</svg>
