<?xml version="1.0" encoding="UTF-8" standalone="no"?>
<!DOCTYPE svg PUBLIC "-//W3C//DTD SVG 1.1//EN"
 "http://www.w3.org/Graphics/SVG/1.1/DTD/svg11.dtd">
<!-- Generated by graphviz version 2.46.1 (20210213.1702)
 -->
<!-- Title: G Pages: 1 -->
<svg width="1291pt" height="611pt"
 viewBox="0.00 0.00 1291.00 611.00" xmlns="http://www.w3.org/2000/svg" xmlns:xlink="http://www.w3.org/1999/xlink">
<g id="graph0" class="graph" transform="scale(1 1) rotate(0) translate(4 607)">
<title>G</title>
<polygon fill="white" stroke="transparent" points="-4,4 -4,-607 1287,-607 1287,4 -4,4"/>
<g id="clust1" class="cluster">
<title>cluster_CoreAddresses</title>
<polygon fill="none" stroke="black" points="899,-80 899,-238 1129,-238 1129,-80 899,-80"/>
<text text-anchor="middle" x="1014" y="-222.8" font-family="Times,serif" font-size="14.00">CoreAddresses</text>
</g>
<g id="clust2" class="cluster">
<title>cluster_DiemTimestamp</title>
<polygon fill="none" stroke="black" points="1137,-163 1137,-321 1275,-321 1275,-163 1137,-163"/>
<text text-anchor="middle" x="1206" y="-305.8" font-family="Times,serif" font-size="14.00">DiemTimestamp</text>
</g>
<g id="clust3" class="cluster">
<title>cluster_RegisteredCurrencies</title>
<polygon fill="none" stroke="black" points="812,-484 812,-559 945,-559 945,-484 812,-484"/>
<text text-anchor="middle" x="878.5" y="-543.8" font-family="Times,serif" font-size="14.00">RegisteredCurrencies</text>
</g>
<g id="clust4" class="cluster">
<title>cluster_Signer</title>
<polygon fill="none" stroke="black" points="8,-8 8,-155 158,-155 158,-8 8,-8"/>
<text text-anchor="middle" x="83" y="-139.8" font-family="Times,serif" font-size="14.00">Signer</text>
</g>
<g id="clust5" class="cluster">
<title>cluster_Errors</title>
<polygon fill="none" stroke="black" points="166,-8 166,-155 891,-155 891,-8 166,-8"/>
<text text-anchor="middle" x="528.5" y="-139.8" font-family="Times,serif" font-size="14.00">Errors</text>
</g>
<g id="clust6" class="cluster">
<title>cluster_Roles</title>
<polygon fill="none" stroke="black" points="381,-246 381,-321 539,-321 539,-246 381,-246"/>
<text text-anchor="middle" x="460" y="-305.8" font-family="Times,serif" font-size="14.00">Roles</text>
</g>
<g id="clust7" class="cluster">
<title>cluster_Vector</title>
<polygon fill="none" stroke="black" points="826,-401 826,-476 908,-476 908,-401 826,-401"/>
<text text-anchor="middle" x="867" y="-460.8" font-family="Times,serif" font-size="14.00">Vector</text>
</g>
<g id="clust8" class="cluster">
<title>cluster_DiemConfig</title>
<polygon fill="none" stroke="black" points="269,-329 269,-476 591,-476 591,-329 269,-329"/>
<text text-anchor="middle" x="430" y="-460.8" font-family="Times,serif" font-size="14.00">DiemConfig</text>
</g>
<!-- initialize -->
<g id="node1" class="node">
<title>initialize</title>
<ellipse fill="none" stroke="black" cx="978" cy="-585" rx="41.69" ry="18"/>
<text text-anchor="middle" x="978" y="-581.3" font-family="Times,serif" font-size="14.00">initialize</text>
</g>
<!-- CoreAddresses::assert_diem_root -->
<g id="node2" class="node">
<title>CoreAddresses::assert_diem_root</title>
<ellipse fill="none" stroke="black" cx="978" cy="-189" rx="71.49" ry="18"/>
<text text-anchor="middle" x="978" y="-185.3" font-family="Times,serif" font-size="14.00">assert_diem_root</text>
</g>
<!-- initialize&#45;&gt;CoreAddresses::assert_diem_root -->
<g id="edge1" class="edge">
<title>initialize&#45;&gt;CoreAddresses::assert_diem_root</title>
<path fill="none" stroke="black" d="M978,-566.69C978,-537.9 978,-478.38 978,-428 978,-428 978,-428 978,-354 978,-305.91 978,-249.88 978,-217.33"/>
<polygon fill="black" stroke="black" points="981.5,-217.24 978,-207.24 974.5,-217.24 981.5,-217.24"/>
</g>
<!-- DiemTimestamp::assert_genesis -->
<g id="node3" class="node">
<title>DiemTimestamp::assert_genesis</title>
<ellipse fill="none" stroke="black" cx="1206" cy="-272" rx="61.19" ry="18"/>
<text text-anchor="middle" x="1206" y="-268.3" font-family="Times,serif" font-size="14.00">assert_genesis</text>
</g>
<!-- initialize&#45;&gt;DiemTimestamp::assert_genesis -->
<g id="edge2" class="edge">
<title>initialize&#45;&gt;DiemTimestamp::assert_genesis</title>
<path fill="none" stroke="black" d="M989.94,-567.72C1027.32,-516.73 1142.29,-359.9 1187.48,-298.26"/>
<polygon fill="black" stroke="black" points="1190.54,-300.01 1193.63,-289.88 1184.89,-295.87 1190.54,-300.01"/>
</g>
<!-- RegisteredCurrencies::initialize -->
<g id="node4" class="node">
<title>RegisteredCurrencies::initialize</title>
<ellipse fill="none" stroke="black" cx="867" cy="-510" rx="41.69" ry="18"/>
<text text-anchor="middle" x="867" y="-506.3" font-family="Times,serif" font-size="14.00">initialize</text>
</g>
<!-- initialize&#45;&gt;RegisteredCurrencies::initialize -->
<g id="edge3" class="edge">
<title>initialize&#45;&gt;RegisteredCurrencies::initialize</title>
<path fill="none" stroke="black" d="M956.07,-569.58C939.27,-558.53 915.9,-543.16 897.31,-530.93"/>
<polygon fill="black" stroke="black" points="899.16,-527.96 888.88,-525.39 895.32,-533.81 899.16,-527.96"/>
</g>
<!-- Signer::address_of -->
<g id="node5" class="node">
<title>Signer::address_of</title>
<ellipse fill="none" stroke="black" cx="101" cy="-106" rx="48.99" ry="18"/>
<text text-anchor="middle" x="101" y="-102.3" font-family="Times,serif" font-size="14.00">address_of</text>
</g>
<!-- CoreAddresses::assert_diem_root&#45;&gt;Signer::address_of -->
<g id="edge4" class="edge">
<title>CoreAddresses::assert_diem_root&#45;&gt;Signer::address_of</title>
<path fill="none" stroke="black" d="M908.13,-184.8C798.88,-179.84 580.94,-170.13 396,-163 370,-162 186.43,-163.93 162,-155 147.68,-149.77 134.1,-139.78 123.4,-130.27"/>
<polygon fill="black" stroke="black" points="125.52,-127.45 115.82,-123.17 120.73,-132.56 125.52,-127.45"/>
</g>
<!-- Errors::requires_address -->
<g id="node6" class="node">
<title>Errors::requires_address</title>
<ellipse fill="none" stroke="black" cx="813" cy="-106" rx="69.59" ry="18"/>
<text text-anchor="middle" x="813" y="-102.3" font-family="Times,serif" font-size="14.00">requires_address</text>
</g>
<!-- CoreAddresses::assert_diem_root&#45;&gt;Errors::requires_address -->
<g id="edge5" class="edge">
<title>CoreAddresses::assert_diem_root&#45;&gt;Errors::requires_address</title>
<path fill="none" stroke="black" d="M938.62,-173.75C924.65,-168.32 908.94,-161.8 895,-155 878.67,-147.03 861.22,-137.04 846.62,-128.23"/>
<polygon fill="black" stroke="black" points="848.3,-125.15 837.94,-122.93 844.65,-131.13 848.3,-125.15"/>
</g>
<!-- CoreAddresses::DIEM_ROOT_ADDRESS -->
<g id="node7" class="node">
<title>CoreAddresses::DIEM_ROOT_ADDRESS</title>
<ellipse fill="none" stroke="black" cx="1014" cy="-106" rx="106.68" ry="18"/>
<text text-anchor="middle" x="1014" y="-102.3" font-family="Times,serif" font-size="14.00">DIEM_ROOT_ADDRESS</text>
</g>
<!-- CoreAddresses::assert_diem_root&#45;&gt;CoreAddresses::DIEM_ROOT_ADDRESS -->
<g id="edge6" class="edge">
<title>CoreAddresses::assert_diem_root&#45;&gt;CoreAddresses::DIEM_ROOT_ADDRESS</title>
<path fill="none" stroke="black" d="M985.63,-170.82C990.46,-159.98 996.78,-145.74 1002.23,-133.47"/>
<polygon fill="black" stroke="black" points="1005.51,-134.71 1006.38,-124.15 999.12,-131.87 1005.51,-134.71"/>
</g>
<!-- Errors::invalid_state -->
<g id="node8" class="node">
<title>Errors::invalid_state</title>
<ellipse fill="none" stroke="black" cx="670" cy="-106" rx="55.79" ry="18"/>
<text text-anchor="middle" x="670" y="-102.3" font-family="Times,serif" font-size="14.00">invalid_state</text>
</g>
<!-- DiemTimestamp::assert_genesis&#45;&gt;Errors::invalid_state -->
<g id="edge7" class="edge">
<title>DiemTimestamp::assert_genesis&#45;&gt;Errors::invalid_state</title>
<path fill="none" stroke="black" d="M1144.79,-271.12C1081.11,-269.72 979.14,-263.19 895,-238 817.58,-214.83 738.56,-160.13 697.93,-129.24"/>
<polygon fill="black" stroke="black" points="699.92,-126.35 689.86,-123.03 695.65,-131.9 699.92,-126.35"/>
</g>
<!-- DiemTimestamp::is_genesis -->
<g id="node9" class="node">
<title>DiemTimestamp::is_genesis</title>
<ellipse fill="none" stroke="black" cx="1199" cy="-189" rx="46.59" ry="18"/>
<text text-anchor="middle" x="1199" y="-185.3" font-family="Times,serif" font-size="14.00">is_genesis</text>
</g>
<!-- DiemTimestamp::assert_genesis&#45;&gt;DiemTimestamp::is_genesis -->
<g id="edge8" class="edge">
<title>DiemTimestamp::assert_genesis&#45;&gt;DiemTimestamp::is_genesis</title>
<path fill="none" stroke="black" d="M1204.52,-253.82C1203.6,-243.19 1202.4,-229.31 1201.35,-217.2"/>
<polygon fill="black" stroke="black" points="1204.83,-216.81 1200.48,-207.15 1197.86,-217.42 1204.83,-216.81"/>
</g>
<!-- RegisteredCurrencies::initialize&#45;&gt;DiemTimestamp::assert_genesis -->
<g id="edge9" class="edge">
<title>RegisteredCurrencies::initialize&#45;&gt;DiemTimestamp::assert_genesis</title>
<path fill="none" stroke="black" d="M887.73,-494.05C895.41,-488.45 904.15,-482 912,-476 995.47,-412.27 1008.76,-385.94 1097,-329 1118.55,-315.1 1143.97,-301.87 1164.84,-291.77"/>
<polygon fill="black" stroke="black" points="1166.56,-294.82 1174.08,-287.35 1163.55,-288.51 1166.56,-294.82"/>
</g>
<!-- Roles::assert_diem_root -->
<g id="node10" class="node">
<title>Roles::assert_diem_root</title>
<ellipse fill="none" stroke="black" cx="460" cy="-272" rx="71.49" ry="18"/>
<text text-anchor="middle" x="460" y="-268.3" font-family="Times,serif" font-size="14.00">assert_diem_root</text>
</g>
<!-- RegisteredCurrencies::initialize&#45;&gt;Roles::assert_diem_root -->
<g id="edge10" class="edge">
<title>RegisteredCurrencies::initialize&#45;&gt;Roles::assert_diem_root</title>
<path fill="none" stroke="black" d="M845.82,-494.22C791.24,-456.25 646.49,-356.39 595,-329 567.49,-314.36 535.3,-300.88 509.26,-290.82"/>
<polygon fill="black" stroke="black" points="510.2,-287.43 499.6,-287.13 507.7,-293.97 510.2,-287.43"/>
</g>
<!-- Vector::empty -->
<g id="node11" class="node">
<title>Vector::empty</title>
<ellipse fill="none" stroke="black" cx="867" cy="-427" rx="33.29" ry="18"/>
<text text-anchor="middle" x="867" y="-423.3" font-family="Times,serif" font-size="14.00">empty</text>
</g>
<!-- RegisteredCurrencies::initialize&#45;&gt;Vector::empty -->
<g id="edge11" class="edge">
<title>RegisteredCurrencies::initialize&#45;&gt;Vector::empty</title>
<path fill="none" stroke="black" d="M867,-491.82C867,-481.19 867,-467.31 867,-455.2"/>
<polygon fill="black" stroke="black" points="870.5,-455.15 867,-445.15 863.5,-455.15 870.5,-455.15"/>
</g>
<!-- DiemConfig::publish_new_config -->
<g id="node12" class="node">
<title>DiemConfig::publish_new_config</title>
<ellipse fill="none" stroke="black" cx="395" cy="-427" rx="81.79" ry="18"/>
<text text-anchor="middle" x="395" y="-423.3" font-family="Times,serif" font-size="14.00">publish_new_config</text>
</g>
<!-- RegisteredCurrencies::initialize&#45;&gt;DiemConfig::publish_new_config -->
<g id="edge12" class="edge">
<title>RegisteredCurrencies::initialize&#45;&gt;DiemConfig::publish_new_config</title>
<path fill="none" stroke="black" d="M829.17,-502.51C750.73,-489.05 569.22,-457.9 467.48,-440.44"/>
<polygon fill="black" stroke="black" points="468.03,-436.98 457.58,-438.74 466.85,-443.88 468.03,-436.98"/>
</g>
<!-- Signer::borrow_address -->
<g id="node13" class="node">
<title>Signer::borrow_address</title>
<ellipse fill="none" stroke="black" cx="83" cy="-34" rx="66.89" ry="18"/>
<text text-anchor="middle" x="83" y="-30.3" font-family="Times,serif" font-size="14.00">borrow_address</text>
</g>
<!-- Signer::address_of&#45;&gt;Signer::borrow_address -->
<g id="edge13" class="edge">
<title>Signer::address_of&#45;&gt;Signer::borrow_address</title>
<path fill="none" stroke="black" d="M96.64,-88.05C94.64,-80.26 92.21,-70.82 89.96,-62.08"/>
<polygon fill="black" stroke="black" points="93.32,-61.09 87.44,-52.28 86.54,-62.83 93.32,-61.09"/>
</g>
<!-- Errors::make -->
<g id="node14" class="node">
<title>Errors::make</title>
<ellipse fill="none" stroke="black" cx="539" cy="-34" rx="30.59" ry="18"/>
<text text-anchor="middle" x="539" y="-30.3" font-family="Times,serif" font-size="14.00">make</text>
</g>
<!-- Errors::requires_address&#45;&gt;Errors::make -->
<g id="edge14" class="edge">
<title>Errors::requires_address&#45;&gt;Errors::make</title>
<path fill="none" stroke="black" d="M772.31,-91.24C760.35,-87.39 747.2,-83.35 735,-80 680.65,-65.08 616.9,-51.08 577.22,-42.77"/>
<polygon fill="black" stroke="black" points="577.93,-39.35 567.43,-40.74 576.5,-46.2 577.93,-39.35"/>
</g>
<!-- Errors::invalid_state&#45;&gt;Errors::make -->
<g id="edge15" class="edge">
<title>Errors::invalid_state&#45;&gt;Errors::make</title>
<path fill="none" stroke="black" d="M642.22,-90.15C621.06,-78.85 591.93,-63.28 570.01,-51.57"/>
<polygon fill="black" stroke="black" points="571.57,-48.44 561.1,-46.81 568.27,-54.61 571.57,-48.44"/>
</g>
<!-- DiemTimestamp::is_genesis&#45;&gt;CoreAddresses::DIEM_ROOT_ADDRESS -->
<g id="edge16" class="edge">
<title>DiemTimestamp::is_genesis&#45;&gt;CoreAddresses::DIEM_ROOT_ADDRESS</title>
<path fill="none" stroke="black" d="M1169.28,-174.99C1139.77,-162.07 1094.14,-142.09 1059.97,-127.13"/>
<polygon fill="black" stroke="black" points="1061.22,-123.85 1050.65,-123.05 1058.41,-130.27 1061.22,-123.85"/>
</g>
<!-- Roles::assert_diem_root&#45;&gt;CoreAddresses::assert_diem_root -->
<g id="edge20" class="edge">
<title>Roles::assert_diem_root&#45;&gt;CoreAddresses::assert_diem_root</title>
<path fill="none" stroke="black" d="M518.92,-261.79C615.28,-246.72 806.12,-216.88 908.78,-200.82"/>
<polygon fill="black" stroke="black" points="909.4,-204.27 918.74,-199.27 908.32,-197.35 909.4,-204.27"/>
</g>
<!-- Roles::assert_diem_root&#45;&gt;Signer::address_of -->
<g id="edge17" class="edge">
<title>Roles::assert_diem_root&#45;&gt;Signer::address_of</title>
<path fill="none" stroke="black" d="M432.84,-255.17C390.14,-231.07 304,-185.59 225,-163 197.86,-155.24 188.04,-165.9 162,-155 148.13,-149.19 134.77,-139.33 124.1,-130.05"/>
<polygon fill="black" stroke="black" points="126.26,-127.28 116.5,-123.15 121.55,-132.46 126.26,-127.28"/>
</g>
<!-- Errors::not_published -->
<g id="node15" class="node">
<title>Errors::not_published</title>
<ellipse fill="none" stroke="black" cx="403" cy="-106" rx="60.39" ry="18"/>
<text text-anchor="middle" x="403" y="-102.3" font-family="Times,serif" font-size="14.00">not_published</text>
</g>
<!-- Roles::assert_diem_root&#45;&gt;Errors::not_published -->
<g id="edge18" class="edge">
<title>Roles::assert_diem_root&#45;&gt;Errors::not_published</title>
<path fill="none" stroke="black" d="M454.01,-253.76C444.06,-225.14 424.07,-167.63 412.29,-133.72"/>
<polygon fill="black" stroke="black" points="415.5,-132.31 408.91,-124.01 408.89,-134.6 415.5,-132.31"/>
</g>
<!-- Errors::requires_role -->
<g id="node16" class="node">
<title>Errors::requires_role</title>
<ellipse fill="none" stroke="black" cx="539" cy="-106" rx="57.39" ry="18"/>
<text text-anchor="middle" x="539" y="-102.3" font-family="Times,serif" font-size="14.00">requires_role</text>
</g>
<!-- Roles::assert_diem_root&#45;&gt;Errors::requires_role -->
<g id="edge19" class="edge">
<title>Roles::assert_diem_root&#45;&gt;Errors::requires_role</title>
<path fill="none" stroke="black" d="M468.16,-254.07C481.94,-225.46 509.91,-167.38 526.29,-133.4"/>
<polygon fill="black" stroke="black" points="529.58,-134.61 530.77,-124.09 523.28,-131.58 529.58,-134.61"/>
</g>
<!-- DiemConfig::publish_new_config&#45;&gt;Signer::address_of -->
<g id="edge21" class="edge">
<title>DiemConfig::publish_new_config&#45;&gt;Signer::address_of</title>
<path fill="none" stroke="black" d="M335.1,-414.73C304.91,-406.82 269.07,-393.82 242,-373 161.01,-310.72 121.5,-188.47 107.34,-134.14"/>
<polygon fill="black" stroke="black" points="110.68,-133.06 104.84,-124.21 103.89,-134.77 110.68,-133.06"/>
</g>
<!-- Errors::already_published -->
<g id="node17" class="node">
<title>Errors::already_published</title>
<ellipse fill="none" stroke="black" cx="249" cy="-106" rx="75.29" ry="18"/>
<text text-anchor="middle" x="249" y="-102.3" font-family="Times,serif" font-size="14.00">already_published</text>
</g>
<!-- DiemConfig::publish_new_config&#45;&gt;Errors::already_published -->
<g id="edge22" class="edge">
<title>DiemConfig::publish_new_config&#45;&gt;Errors::already_published</title>
<path fill="none" stroke="black" d="M333.82,-414.97C309.41,-407.36 283.48,-394.53 268,-373 215.78,-300.38 231.56,-185.88 242.44,-134.07"/>
<polygon fill="black" stroke="black" points="245.86,-134.8 244.6,-124.28 239.03,-133.3 245.86,-134.8"/>
</g>
<!-- DiemConfig::publish_new_config_and_get_capability -->
<g id="node18" class="node">
<title>DiemConfig::publish_new_config_and_get_capability</title>
<ellipse fill="none" stroke="black" cx="430" cy="-355" rx="153.27" ry="18"/>
<text text-anchor="middle" x="430" y="-351.3" font-family="Times,serif" font-size="14.00">publish_new_config_and_get_capability</text>
</g>
<!-- DiemConfig::publish_new_config&#45;&gt;DiemConfig::publish_new_config_and_get_capability -->
<g id="edge23" class="edge">
<title>DiemConfig::publish_new_config&#45;&gt;DiemConfig::publish_new_config_and_get_capability</title>
<path fill="none" stroke="black" d="M403.47,-409.05C407.5,-401.01 412.4,-391.2 416.89,-382.23"/>
<polygon fill="black" stroke="black" points="420.02,-383.78 421.36,-373.28 413.76,-380.65 420.02,-383.78"/>
</g>
<!-- Errors::not_published&#45;&gt;Errors::make -->
<g id="edge24" class="edge">
<title>Errors::not_published&#45;&gt;Errors::make</title>
<path fill="none" stroke="black" d="M431.84,-90.15C454.05,-78.73 484.7,-62.95 507.53,-51.2"/>
<polygon fill="black" stroke="black" points="509.2,-54.28 516.49,-46.59 505.99,-48.05 509.2,-54.28"/>
</g>
<!-- Errors::requires_role&#45;&gt;Errors::make -->
<g id="edge25" class="edge">
<title>Errors::requires_role&#45;&gt;Errors::make</title>
<path fill="none" stroke="black" d="M539,-87.7C539,-79.98 539,-70.71 539,-62.11"/>
<polygon fill="black" stroke="black" points="542.5,-62.1 539,-52.1 535.5,-62.1 542.5,-62.1"/>
</g>
<!-- Errors::already_published&#45;&gt;Errors::make -->
<g id="edge26" class="edge">
<title>Errors::already_published&#45;&gt;Errors::make</title>
<path fill="none" stroke="black" d="M293.39,-91.31C306.43,-87.46 320.74,-83.4 334,-80 391.59,-65.23 459.05,-51.01 500.4,-42.63"/>
<polygon fill="black" stroke="black" points="501.22,-46.04 510.33,-40.63 499.84,-39.18 501.22,-46.04"/>
</g>
<!-- DiemConfig::publish_new_config_and_get_capability&#45;&gt;DiemTimestamp::assert_genesis -->
<g id="edge29" class="edge">
<title>DiemConfig::publish_new_config_and_get_capability&#45;&gt;DiemTimestamp::assert_genesis</title>
<path fill="none" stroke="black" d="M540.36,-342.48C703.89,-325.41 1005.61,-293.92 1139.27,-279.97"/>
<polygon fill="black" stroke="black" points="1139.78,-283.43 1149.37,-278.91 1139.06,-276.47 1139.78,-283.43"/>
</g>
<!-- DiemConfig::publish_new_config_and_get_capability&#45;&gt;Signer::address_of -->
<g id="edge27" class="edge">
<title>DiemConfig::publish_new_config_and_get_capability&#45;&gt;Signer::address_of</title>
<path fill="none" stroke="black" d="M357.79,-339.03C343.39,-334.44 328.78,-328.53 316,-321 271.1,-294.55 167.12,-181.09 122.25,-130.97"/>
<polygon fill="black" stroke="black" points="124.84,-128.62 115.57,-123.49 119.62,-133.28 124.84,-128.62"/>
</g>
<!-- DiemConfig::publish_new_config_and_get_capability&#45;&gt;Roles::assert_diem_root -->
<g id="edge30" class="edge">
<title>DiemConfig::publish_new_config_and_get_capability&#45;&gt;Roles::assert_diem_root</title>
<path fill="none" stroke="black" d="M436.36,-336.82C440.34,-326.08 445.55,-312.03 450.06,-299.84"/>
<polygon fill="black" stroke="black" points="453.46,-300.75 453.65,-290.15 446.89,-298.32 453.46,-300.75"/>
</g>
<!-- DiemConfig::publish_new_config_and_get_capability&#45;&gt;Errors::already_published -->
<g id="edge28" class="edge">
<title>DiemConfig::publish_new_config_and_get_capability&#45;&gt;Errors::already_published</title>
<path fill="none" stroke="black" d="M397.63,-337.25C390.34,-332.59 383,-327.11 377,-321 320.57,-263.55 278.57,-176.61 259.82,-133.36"/>
<polygon fill="black" stroke="black" points="263,-131.91 255.86,-124.08 256.56,-134.65 263,-131.91"/>
</g>
</g>
</svg>
