<?xml version="1.0" encoding="UTF-8" standalone="no"?>
<!DOCTYPE svg PUBLIC "-//W3C//DTD SVG 1.1//EN"
 "http://www.w3.org/Graphics/SVG/1.1/DTD/svg11.dtd">
<!-- Generated by graphviz version 2.46.1 (20210213.1702)
 -->
<!-- Title: G Pages: 1 -->
<svg width="398pt" height="290pt"
 viewBox="0.00 0.00 398.00 290.00" xmlns="http://www.w3.org/2000/svg" xmlns:xlink="http://www.w3.org/1999/xlink">
<g id="graph0" class="graph" transform="scale(1 1) rotate(0) translate(4 286)">
<title>G</title>
<polygon fill="white" stroke="transparent" points="-4,4 -4,-286 394,-286 394,4 -4,4"/>
<g id="clust1" class="cluster">
<title>cluster_DiemConfig</title>
<polygon fill="none" stroke="black" points="129,-163 129,-238 213,-238 213,-163 129,-163"/>
<text text-anchor="middle" x="171" y="-222.8" font-family="Times,serif" font-size="14.00">DiemConfig</text>
</g>
<g id="clust2" class="cluster">
<title>cluster_Errors</title>
<polygon fill="none" stroke="black" points="8,-8 8,-155 144,-155 144,-8 8,-8"/>
<text text-anchor="middle" x="76" y="-139.8" font-family="Times,serif" font-size="14.00">Errors</text>
</g>
<g id="clust3" class="cluster">
<title>cluster_CoreAddresses</title>
<polygon fill="none" stroke="black" points="152,-80 152,-155 382,-155 382,-80 152,-80"/>
<text text-anchor="middle" x="267" y="-139.8" font-family="Times,serif" font-size="14.00">CoreAddresses</text>
</g>
<!-- get_diem_system_config -->
<g id="node1" class="node">
<title>get_diem_system_config</title>
<ellipse fill="none" stroke="black" cx="171" cy="-264" rx="99.38" ry="18"/>
<text text-anchor="middle" x="171" y="-260.3" font-family="Times,serif" font-size="14.00">get_diem_system_config</text>
</g>
<!-- DiemConfig::get -->
<g id="node2" class="node">
<title>DiemConfig::get</title>
<ellipse fill="none" stroke="black" cx="171" cy="-189" rx="27" ry="18"/>
<text text-anchor="middle" x="171" y="-185.3" font-family="Times,serif" font-size="14.00">get</text>
</g>
<!-- get_diem_system_config&#45;&gt;DiemConfig::get -->
<g id="edge1" class="edge">
<title>get_diem_system_config&#45;&gt;DiemConfig::get</title>
<path fill="none" stroke="black" d="M171,-245.7C171,-237.25 171,-226.87 171,-217.37"/>
<polygon fill="black" stroke="black" points="174.5,-217.18 171,-207.18 167.5,-217.18 174.5,-217.18"/>
</g>
<!-- Errors::not_published -->
<g id="node3" class="node">
<title>Errors::not_published</title>
<ellipse fill="none" stroke="black" cx="76" cy="-106" rx="60.39" ry="18"/>
<text text-anchor="middle" x="76" y="-102.3" font-family="Times,serif" font-size="14.00">not_published</text>
</g>
<!-- DiemConfig::get&#45;&gt;Errors::not_published -->
<g id="edge2" class="edge">
<title>DiemConfig::get&#45;&gt;Errors::not_published</title>
<path fill="none" stroke="black" d="M154.88,-174.26C140.69,-162.16 119.73,-144.29 102.98,-130.01"/>
<polygon fill="black" stroke="black" points="105.03,-127.15 95.15,-123.32 100.48,-132.48 105.03,-127.15"/>
</g>
<!-- CoreAddresses::DIEM_ROOT_ADDRESS -->
<g id="node4" class="node">
<title>CoreAddresses::DIEM_ROOT_ADDRESS</title>
<ellipse fill="none" stroke="black" cx="267" cy="-106" rx="106.68" ry="18"/>
<text text-anchor="middle" x="267" y="-102.3" font-family="Times,serif" font-size="14.00">DIEM_ROOT_ADDRESS</text>
</g>
<!-- DiemConfig::get&#45;&gt;CoreAddresses::DIEM_ROOT_ADDRESS -->
<g id="edge3" class="edge">
<title>DiemConfig::get&#45;&gt;CoreAddresses::DIEM_ROOT_ADDRESS</title>
<path fill="none" stroke="black" d="M187.29,-174.26C201.44,-162.31 222.27,-144.74 239.08,-130.56"/>
<polygon fill="black" stroke="black" points="241.58,-133.03 246.97,-123.9 237.07,-127.68 241.58,-133.03"/>
</g>
<!-- Errors::make -->
<g id="node5" class="node">
<title>Errors::make</title>
<ellipse fill="none" stroke="black" cx="76" cy="-34" rx="30.59" ry="18"/>
<text text-anchor="middle" x="76" y="-30.3" font-family="Times,serif" font-size="14.00">make</text>
</g>
<!-- Errors::not_published&#45;&gt;Errors::make -->
<g id="edge4" class="edge">
<title>Errors::not_published&#45;&gt;Errors::make</title>
<path fill="none" stroke="black" d="M76,-87.7C76,-79.98 76,-70.71 76,-62.11"/>
<polygon fill="black" stroke="black" points="79.5,-62.1 76,-52.1 72.5,-62.1 79.5,-62.1"/>
</g>
</g>
</svg>
