<?xml version="1.0" encoding="UTF-8" standalone="no"?>
<!DOCTYPE svg PUBLIC "-//W3C//DTD SVG 1.1//EN"
 "http://www.w3.org/Graphics/SVG/1.1/DTD/svg11.dtd">
<!-- Generated by graphviz version 2.46.1 (20210213.1702)
 -->
<!-- Title: G Pages: 1 -->
<svg width="349pt" height="290pt"
 viewBox="0.00 0.00 348.60 290.00" xmlns="http://www.w3.org/2000/svg" xmlns:xlink="http://www.w3.org/1999/xlink">
<g id="graph0" class="graph" transform="scale(1 1) rotate(0) translate(4 286)">
<title>G</title>
<polygon fill="white" stroke="transparent" points="-4,4 -4,-286 344.6,-286 344.6,4 -4,4"/>
<g id="clust1" class="cluster">
<title>cluster_Errors</title>
<polygon fill="none" stroke="black" points="8,-80 8,-238 144,-238 144,-80 8,-80"/>
<text text-anchor="middle" x="76" y="-222.8" font-family="Times,serif" font-size="14.00">Errors</text>
</g>
<g id="clust2" class="cluster">
<title>cluster_Option</title>
<polygon fill="none" stroke="black" points="155,-163 155,-238 247,-238 247,-163 155,-163"/>
<text text-anchor="middle" x="201" y="-222.8" font-family="Times,serif" font-size="14.00">Option</text>
</g>
<g id="clust3" class="cluster">
<title>cluster_Vector</title>
<polygon fill="none" stroke="black" points="152,-8 152,-155 256,-155 256,-8 152,-8"/>
<text text-anchor="middle" x="204" y="-139.8" font-family="Times,serif" font-size="14.00">Vector</text>
</g>
<!-- delegated_withdraw_capability -->
<g id="node1" class="node">
<title>delegated_withdraw_capability</title>
<ellipse fill="none" stroke="black" cx="201" cy="-264" rx="120.78" ry="18"/>
<text text-anchor="middle" x="201" y="-260.3" font-family="Times,serif" font-size="14.00">delegated_withdraw_capability</text>
</g>
<!-- Errors::not_published -->
<g id="node2" class="node">
<title>Errors::not_published</title>
<ellipse fill="none" stroke="black" cx="76" cy="-189" rx="60.39" ry="18"/>
<text text-anchor="middle" x="76" y="-185.3" font-family="Times,serif" font-size="14.00">not_published</text>
</g>
<!-- delegated_withdraw_capability&#45;&gt;Errors::not_published -->
<g id="edge1" class="edge">
<title>delegated_withdraw_capability&#45;&gt;Errors::not_published</title>
<path fill="none" stroke="black" d="M167.12,-246.67C161.68,-243.87 156.15,-240.92 151,-238 136.58,-229.81 121.08,-220.06 107.94,-211.49"/>
<polygon fill="black" stroke="black" points="109.53,-208.35 99.25,-205.78 105.69,-214.2 109.53,-208.35"/>
</g>
<!-- Option::is_none -->
<g id="node3" class="node">
<title>Option::is_none</title>
<ellipse fill="none" stroke="black" cx="201" cy="-189" rx="38.19" ry="18"/>
<text text-anchor="middle" x="201" y="-185.3" font-family="Times,serif" font-size="14.00">is_none</text>
</g>
<!-- delegated_withdraw_capability&#45;&gt;Option::is_none -->
<g id="edge2" class="edge">
<title>delegated_withdraw_capability&#45;&gt;Option::is_none</title>
<path fill="none" stroke="black" d="M201,-245.7C201,-237.25 201,-226.87 201,-217.37"/>
<polygon fill="black" stroke="black" points="204.5,-217.18 201,-207.18 197.5,-217.18 204.5,-217.18"/>
</g>
<!-- exists_at -->
<g id="node4" class="node">
<title>exists_at</title>
<ellipse fill="none" stroke="black" cx="299" cy="-189" rx="41.69" ry="18"/>
<text text-anchor="middle" x="299" y="-185.3" font-family="Times,serif" font-size="14.00">exists_at</text>
</g>
<!-- delegated_withdraw_capability&#45;&gt;exists_at -->
<g id="edge3" class="edge">
<title>delegated_withdraw_capability&#45;&gt;exists_at</title>
<path fill="none" stroke="black" d="M237.06,-246.74C241.89,-244.06 246.67,-241.12 251,-238 260.81,-230.93 270.46,-221.82 278.51,-213.44"/>
<polygon fill="black" stroke="black" points="281.16,-215.73 285.41,-206.02 276.04,-210.96 281.16,-215.73"/>
</g>
<!-- Errors::make -->
<g id="node5" class="node">
<title>Errors::make</title>
<ellipse fill="none" stroke="black" cx="76" cy="-106" rx="30.59" ry="18"/>
<text text-anchor="middle" x="76" y="-102.3" font-family="Times,serif" font-size="14.00">make</text>
</g>
<!-- Errors::not_published&#45;&gt;Errors::make -->
<g id="edge4" class="edge">
<title>Errors::not_published&#45;&gt;Errors::make</title>
<path fill="none" stroke="black" d="M76,-170.82C76,-160.19 76,-146.31 76,-134.2"/>
<polygon fill="black" stroke="black" points="79.5,-134.15 76,-124.15 72.5,-134.15 79.5,-134.15"/>
</g>
<!-- Vector::is_empty -->
<g id="node6" class="node">
<title>Vector::is_empty</title>
<ellipse fill="none" stroke="black" cx="204" cy="-106" rx="43.59" ry="18"/>
<text text-anchor="middle" x="204" y="-102.3" font-family="Times,serif" font-size="14.00">is_empty</text>
</g>
<!-- Option::is_none&#45;&gt;Vector::is_empty -->
<g id="edge5" class="edge">
<title>Option::is_none&#45;&gt;Vector::is_empty</title>
<path fill="none" stroke="black" d="M201.64,-170.82C202.03,-160.19 202.54,-146.31 202.99,-134.2"/>
<polygon fill="black" stroke="black" points="206.49,-134.28 203.36,-124.15 199.5,-134.02 206.49,-134.28"/>
</g>
<!-- Vector::length -->
<g id="node7" class="node">
<title>Vector::length</title>
<ellipse fill="none" stroke="black" cx="204" cy="-34" rx="32.49" ry="18"/>
<text text-anchor="middle" x="204" y="-30.3" font-family="Times,serif" font-size="14.00">length</text>
</g>
<!-- Vector::is_empty&#45;&gt;Vector::length -->
<g id="edge6" class="edge">
<title>Vector::is_empty&#45;&gt;Vector::length</title>
<path fill="none" stroke="black" d="M204,-87.7C204,-79.98 204,-70.71 204,-62.11"/>
<polygon fill="black" stroke="black" points="207.5,-62.1 204,-52.1 200.5,-62.1 207.5,-62.1"/>
</g>
</g>
</svg>
