<?xml version="1.0" encoding="UTF-8" standalone="no"?>
<!DOCTYPE svg PUBLIC "-//W3C//DTD SVG 1.1//EN"
 "http://www.w3.org/Graphics/SVG/1.1/DTD/svg11.dtd">
<!-- Generated by graphviz version 2.46.1 (20210213.1702)
 -->
<!-- Title: G Pages: 1 -->
<svg width="513pt" height="404pt"
 viewBox="0.00 0.00 513.29 404.00" xmlns="http://www.w3.org/2000/svg" xmlns:xlink="http://www.w3.org/1999/xlink">
<g id="graph0" class="graph" transform="scale(1 1) rotate(0) translate(4 400)">
<title>G</title>
<polygon fill="white" stroke="transparent" points="-4,4 -4,-400 509.29,-400 509.29,4 -4,4"/>
<!-- DiemVMConfig -->
<g id="node1" class="node">
<title>DiemVMConfig</title>
<ellipse fill="none" stroke="black" cx="155.99" cy="-378" rx="69.59" ry="18"/>
<text text-anchor="middle" x="155.99" y="-374.3" font-family="Times,serif" font-size="14.00">DiemVMConfig</text>
</g>
<!-- DiemTimestamp -->
<g id="node2" class="node">
<title>DiemTimestamp</title>
<ellipse fill="none" stroke="black" cx="87.99" cy="-162" rx="71.49" ry="18"/>
<text text-anchor="middle" x="87.99" y="-158.3" font-family="Times,serif" font-size="14.00">DiemTimestamp</text>
</g>
<!-- DiemVMConfig&#45;&gt;DiemTimestamp -->
<g id="edge1" class="edge">
<title>DiemVMConfig&#45;&gt;DiemTimestamp</title>
<path fill="none" stroke="black" d="M150.54,-359.85C138.73,-322.68 110.69,-234.44 96.52,-189.82"/>
<polygon fill="black" stroke="black" points="99.83,-188.7 93.47,-180.23 93.16,-190.82 99.83,-188.7"/>
</g>
<!-- Roles -->
<g id="node3" class="node">
<title>Roles</title>
<ellipse fill="none" stroke="black" cx="205.99" cy="-234" rx="30.59" ry="18"/>
<text text-anchor="middle" x="205.99" y="-230.3" font-family="Times,serif" font-size="14.00">Roles</text>
</g>
<!-- DiemVMConfig&#45;&gt;Roles -->
<g id="edge2" class="edge">
<title>DiemVMConfig&#45;&gt;Roles</title>
<path fill="none" stroke="black" d="M158.01,-359.8C160.53,-341.53 165.69,-312.01 174.99,-288 178.77,-278.26 184.19,-268.22 189.45,-259.52"/>
<polygon fill="black" stroke="black" points="192.44,-261.35 194.8,-251.02 186.51,-257.63 192.44,-261.35"/>
</g>
<!-- DiemConfig -->
<g id="node4" class="node">
<title>DiemConfig</title>
<ellipse fill="none" stroke="black" cx="238.99" cy="-306" rx="54.69" ry="18"/>
<text text-anchor="middle" x="238.99" y="-302.3" font-family="Times,serif" font-size="14.00">DiemConfig</text>
</g>
<!-- DiemVMConfig&#45;&gt;DiemConfig -->
<g id="edge3" class="edge">
<title>DiemVMConfig&#45;&gt;DiemConfig</title>
<path fill="none" stroke="black" d="M175.66,-360.41C186.57,-351.21 200.29,-339.64 212.16,-329.63"/>
<polygon fill="black" stroke="black" points="214.65,-332.11 220.04,-322.99 210.13,-326.76 214.65,-332.11"/>
</g>
<!-- Errors -->
<g id="node5" class="node">
<title>Errors</title>
<ellipse fill="none" stroke="black" cx="120.99" cy="-18" rx="32.49" ry="18"/>
<text text-anchor="middle" x="120.99" y="-14.3" font-family="Times,serif" font-size="14.00">Errors</text>
</g>
<!-- DiemTimestamp&#45;&gt;Errors -->
<g id="edge4" class="edge">
<title>DiemTimestamp&#45;&gt;Errors</title>
<path fill="none" stroke="black" d="M91.39,-143.88C95.02,-125.92 101.05,-96.9 106.99,-72 109.01,-63.54 111.37,-54.36 113.58,-46.06"/>
<polygon fill="black" stroke="black" points="117.03,-46.7 116.24,-36.13 110.27,-44.88 117.03,-46.7"/>
</g>
<!-- CoreAddresses -->
<g id="node6" class="node">
<title>CoreAddresses</title>
<ellipse fill="none" stroke="black" cx="212.99" cy="-90" rx="63.89" ry="18"/>
<text text-anchor="middle" x="212.99" y="-86.3" font-family="Times,serif" font-size="14.00">CoreAddresses</text>
</g>
<!-- DiemTimestamp&#45;&gt;CoreAddresses -->
<g id="edge5" class="edge">
<title>DiemTimestamp&#45;&gt;CoreAddresses</title>
<path fill="none" stroke="black" d="M116.05,-145.29C133.94,-135.27 157.32,-122.18 176.63,-111.36"/>
<polygon fill="black" stroke="black" points="178.45,-114.36 185.46,-106.42 175.03,-108.25 178.45,-114.36"/>
</g>
<!-- Roles&#45;&gt;DiemTimestamp -->
<g id="edge9" class="edge">
<title>Roles&#45;&gt;DiemTimestamp</title>
<path fill="none" stroke="black" d="M185.17,-220.65C168.11,-210.53 143.59,-195.98 123.44,-184.03"/>
<polygon fill="black" stroke="black" points="125.22,-181.01 114.83,-178.92 121.64,-187.03 125.22,-181.01"/>
</g>
<!-- Roles&#45;&gt;Errors -->
<g id="edge7" class="edge">
<title>Roles&#45;&gt;Errors</title>
<path fill="none" stroke="black" d="M200.22,-215.98C193.64,-197.59 181.98,-167.74 167.99,-144 157.71,-126.53 148.55,-126.38 139.99,-108 130.85,-88.36 126.05,-64.23 123.57,-46.06"/>
<polygon fill="black" stroke="black" points="127.04,-45.62 122.35,-36.12 120.09,-46.47 127.04,-45.62"/>
</g>
<!-- Roles&#45;&gt;CoreAddresses -->
<g id="edge8" class="edge">
<title>Roles&#45;&gt;CoreAddresses</title>
<path fill="none" stroke="black" d="M206.84,-215.87C208.03,-191.67 210.22,-147.21 211.64,-118.39"/>
<polygon fill="black" stroke="black" points="215.15,-118.35 212.15,-108.19 208.16,-118 215.15,-118.35"/>
</g>
<!-- Signer -->
<g id="node7" class="node">
<title>Signer</title>
<ellipse fill="none" stroke="black" cx="307.99" cy="-18" rx="33.6" ry="18"/>
<text text-anchor="middle" x="307.99" y="-14.3" font-family="Times,serif" font-size="14.00">Signer</text>
</g>
<!-- Roles&#45;&gt;Signer -->
<g id="edge6" class="edge">
<title>Roles&#45;&gt;Signer</title>
<path fill="none" stroke="black" d="M218.41,-217.38C235.93,-194.6 267.79,-150.37 285.99,-108 294.55,-88.07 300.23,-64.15 303.68,-46.12"/>
<polygon fill="black" stroke="black" points="307.12,-46.73 305.45,-36.27 300.23,-45.49 307.12,-46.73"/>
</g>
<!-- DiemConfig&#45;&gt;DiemTimestamp -->
<g id="edge13" class="edge">
<title>DiemConfig&#45;&gt;DiemTimestamp</title>
<path fill="none" stroke="black" d="M215.29,-289.77C200.48,-279.8 181.38,-266.04 165.99,-252 144.14,-232.07 122.2,-206.41 107.18,-187.77"/>
<polygon fill="black" stroke="black" points="109.76,-185.39 100.79,-179.74 104.28,-189.75 109.76,-185.39"/>
</g>
<!-- DiemConfig&#45;&gt;Roles -->
<g id="edge14" class="edge">
<title>DiemConfig&#45;&gt;Roles</title>
<path fill="none" stroke="black" d="M231,-288.05C227.19,-279.97 222.55,-270.12 218.3,-261.11"/>
<polygon fill="black" stroke="black" points="221.34,-259.34 213.91,-251.79 215.01,-262.33 221.34,-259.34"/>
</g>
<!-- DiemConfig&#45;&gt;Errors -->
<g id="edge11" class="edge">
<title>DiemConfig&#45;&gt;Errors</title>
<path fill="none" stroke="black" d="M193.71,-295.6C138.24,-281.36 46.87,-248.38 7.99,-180 -22.96,-125.57 48.4,-66.51 91.39,-37.38"/>
<polygon fill="black" stroke="black" points="93.42,-40.24 99.83,-31.8 89.56,-34.4 93.42,-40.24"/>
</g>
<!-- DiemConfig&#45;&gt;CoreAddresses -->
<g id="edge12" class="edge">
<title>DiemConfig&#45;&gt;CoreAddresses</title>
<path fill="none" stroke="black" d="M241.84,-287.87C243.41,-277.52 245.2,-264.04 245.99,-252 247.04,-236.03 248.05,-231.87 245.99,-216 241.5,-181.37 230.28,-142.67 222.17,-117.63"/>
<polygon fill="black" stroke="black" points="225.48,-116.5 219.02,-108.11 218.84,-118.7 225.48,-116.5"/>
</g>
<!-- DiemConfig&#45;&gt;Signer -->
<g id="edge10" class="edge">
<title>DiemConfig&#45;&gt;Signer</title>
<path fill="none" stroke="black" d="M246.88,-288.1C262.02,-254.63 294.64,-177.16 305.99,-108 309.35,-87.54 309.74,-64.08 309.35,-46.39"/>
<polygon fill="black" stroke="black" points="312.84,-46.08 309.02,-36.19 305.84,-46.3 312.84,-46.08"/>
</g>
<!-- Event -->
<g id="node8" class="node">
<title>Event</title>
<ellipse fill="none" stroke="black" cx="401.99" cy="-90" rx="31.4" ry="18"/>
<text text-anchor="middle" x="401.99" y="-86.3" font-family="Times,serif" font-size="14.00">Event</text>
</g>
<!-- DiemConfig&#45;&gt;Event -->
<g id="edge15" class="edge">
<title>DiemConfig&#45;&gt;Event</title>
<path fill="none" stroke="black" d="M282.77,-295.2C307.82,-287.45 337.95,-274.13 356.99,-252 389.79,-213.89 398.81,-153.62 401.21,-118.64"/>
<polygon fill="black" stroke="black" points="404.73,-118.41 401.78,-108.24 397.74,-118.03 404.73,-118.41"/>
</g>
<!-- CoreAddresses&#45;&gt;Errors -->
<g id="edge17" class="edge">
<title>CoreAddresses&#45;&gt;Errors</title>
<path fill="none" stroke="black" d="M191.65,-72.76C178.56,-62.8 161.67,-49.95 147.69,-39.31"/>
<polygon fill="black" stroke="black" points="149.49,-36.29 139.42,-33.02 145.26,-41.86 149.49,-36.29"/>
</g>
<!-- CoreAddresses&#45;&gt;Signer -->
<g id="edge16" class="edge">
<title>CoreAddresses&#45;&gt;Signer</title>
<path fill="none" stroke="black" d="M235.03,-72.76C248.68,-62.7 266.32,-49.71 280.84,-39.01"/>
<polygon fill="black" stroke="black" points="282.99,-41.77 288.97,-33.02 278.84,-36.13 282.99,-41.77"/>
</g>
<!-- Event&#45;&gt;Errors -->
<g id="edge19" class="edge">
<title>Event&#45;&gt;Errors</title>
<path fill="none" stroke="black" d="M373.76,-81.97C323.22,-69.38 217.19,-42.96 159.83,-28.67"/>
<polygon fill="black" stroke="black" points="160.59,-25.26 150.04,-26.24 158.9,-32.05 160.59,-25.26"/>
</g>
<!-- Event&#45;&gt;Signer -->
<g id="edge18" class="edge">
<title>Event&#45;&gt;Signer</title>
<path fill="none" stroke="black" d="M383.42,-75.17C369.61,-64.88 350.54,-50.69 335.04,-39.14"/>
<polygon fill="black" stroke="black" points="336.96,-36.21 326.85,-33.04 332.78,-41.82 336.96,-36.21"/>
</g>
<!-- Vector -->
<g id="node9" class="node">
<title>Vector</title>
<ellipse fill="none" stroke="black" cx="398.99" cy="-18" rx="33.6" ry="18"/>
<text text-anchor="middle" x="398.99" y="-14.3" font-family="Times,serif" font-size="14.00">Vector</text>
</g>
<!-- Event&#45;&gt;Vector -->
<g id="edge20" class="edge">
<title>Event&#45;&gt;Vector</title>
<path fill="none" stroke="black" d="M401.25,-71.7C400.92,-63.98 400.52,-54.71 400.15,-46.11"/>
<polygon fill="black" stroke="black" points="403.65,-45.95 399.73,-36.1 396.66,-46.25 403.65,-45.95"/>
</g>
<!-- BCS -->
<g id="node10" class="node">
<title>BCS</title>
<ellipse fill="none" stroke="black" cx="477.99" cy="-18" rx="27.1" ry="18"/>
<text text-anchor="middle" x="477.99" y="-14.3" font-family="Times,serif" font-size="14.00">BCS</text>
</g>
<!-- Event&#45;&gt;BCS -->
<g id="edge21" class="edge">
<title>Event&#45;&gt;BCS</title>
<path fill="none" stroke="black" d="M418.11,-74.15C428.9,-64.21 443.27,-50.98 455.23,-39.97"/>
<polygon fill="black" stroke="black" points="457.69,-42.46 462.68,-33.11 452.95,-37.31 457.69,-42.46"/>
</g>
</g>
</svg>
