<?xml version="1.0" encoding="UTF-8" standalone="no"?>
<!DOCTYPE svg PUBLIC "-//W3C//DTD SVG 1.1//EN"
 "http://www.w3.org/Graphics/SVG/1.1/DTD/svg11.dtd">
<!-- Generated by graphviz version 2.46.1 (20210213.1702)
 -->
<!-- Title: G Pages: 1 -->
<svg width="887pt" height="207pt"
 viewBox="0.00 0.00 886.90 207.00" xmlns="http://www.w3.org/2000/svg" xmlns:xlink="http://www.w3.org/1999/xlink">
<g id="graph0" class="graph" transform="scale(1 1) rotate(0) translate(4 203)">
<title>G</title>
<polygon fill="white" stroke="transparent" points="-4,4 -4,-203 882.9,-203 882.9,4 -4,4"/>
<g id="clust1" class="cluster">
<title>cluster_Signer</title>
<polygon fill="none" stroke="black" points="8,-8 8,-155 158,-155 158,-8 8,-8"/>
<text text-anchor="middle" x="83" y="-139.8" font-family="Times,serif" font-size="14.00">Signer</text>
</g>
<g id="clust2" class="cluster">
<title>cluster_Errors</title>
<polygon fill="none" stroke="black" points="166,-8 166,-155 606,-155 606,-8 166,-8"/>
<text text-anchor="middle" x="386" y="-139.8" font-family="Times,serif" font-size="14.00">Errors</text>
</g>
<g id="clust3" class="cluster">
<title>cluster_Vector</title>
<polygon fill="none" stroke="black" points="614,-80 614,-155 809,-155 809,-80 614,-80"/>
<text text-anchor="middle" x="711.5" y="-139.8" font-family="Times,serif" font-size="14.00">Vector</text>
</g>
<!-- add_preburn_to_queue -->
<g id="node1" class="node">
<title>add_preburn_to_queue</title>
<ellipse fill="none" stroke="black" cx="525" cy="-181" rx="91.78" ry="18"/>
<text text-anchor="middle" x="525" y="-177.3" font-family="Times,serif" font-size="14.00">add_preburn_to_queue</text>
</g>
<!-- Signer::address_of -->
<g id="node2" class="node">
<title>Signer::address_of</title>
<ellipse fill="none" stroke="black" cx="92" cy="-106" rx="48.99" ry="18"/>
<text text-anchor="middle" x="92" y="-102.3" font-family="Times,serif" font-size="14.00">address_of</text>
</g>
<!-- add_preburn_to_queue&#45;&gt;Signer::address_of -->
<g id="edge1" class="edge">
<title>add_preburn_to_queue&#45;&gt;Signer::address_of</title>
<path fill="none" stroke="black" d="M433.66,-179.17C342.85,-177.36 210.32,-171.82 162,-155 145.94,-149.41 130.14,-139.11 117.63,-129.48"/>
<polygon fill="black" stroke="black" points="119.52,-126.51 109.52,-122.99 115.14,-131.97 119.52,-126.51"/>
</g>
<!-- Errors::invalid_argument -->
<g id="node3" class="node">
<title>Errors::invalid_argument</title>
<ellipse fill="none" stroke="black" cx="525" cy="-106" rx="73.39" ry="18"/>
<text text-anchor="middle" x="525" y="-102.3" font-family="Times,serif" font-size="14.00">invalid_argument</text>
</g>
<!-- add_preburn_to_queue&#45;&gt;Errors::invalid_argument -->
<g id="edge2" class="edge">
<title>add_preburn_to_queue&#45;&gt;Errors::invalid_argument</title>
<path fill="none" stroke="black" d="M525,-162.7C525,-154.25 525,-143.87 525,-134.37"/>
<polygon fill="black" stroke="black" points="528.5,-134.18 525,-124.18 521.5,-134.18 528.5,-134.18"/>
</g>
<!-- Errors::invalid_state -->
<g id="node4" class="node">
<title>Errors::invalid_state</title>
<ellipse fill="none" stroke="black" cx="378" cy="-106" rx="55.79" ry="18"/>
<text text-anchor="middle" x="378" y="-102.3" font-family="Times,serif" font-size="14.00">invalid_state</text>
</g>
<!-- add_preburn_to_queue&#45;&gt;Errors::invalid_state -->
<g id="edge3" class="edge">
<title>add_preburn_to_queue&#45;&gt;Errors::invalid_state</title>
<path fill="none" stroke="black" d="M471.04,-166.42C461.48,-163.21 451.78,-159.41 443,-155 429.28,-148.1 415.42,-138.33 404.03,-129.4"/>
<polygon fill="black" stroke="black" points="406.2,-126.65 396.22,-123.1 401.81,-132.1 406.2,-126.65"/>
</g>
<!-- Errors::limit_exceeded -->
<g id="node5" class="node">
<title>Errors::limit_exceeded</title>
<ellipse fill="none" stroke="black" cx="239" cy="-106" rx="64.99" ry="18"/>
<text text-anchor="middle" x="239" y="-102.3" font-family="Times,serif" font-size="14.00">limit_exceeded</text>
</g>
<!-- add_preburn_to_queue&#45;&gt;Errors::limit_exceeded -->
<g id="edge4" class="edge">
<title>add_preburn_to_queue&#45;&gt;Errors::limit_exceeded</title>
<path fill="none" stroke="black" d="M434.2,-178.39C395.88,-175.4 351.35,-168.84 313,-155 296.58,-149.07 280.1,-138.9 266.88,-129.45"/>
<polygon fill="black" stroke="black" points="268.82,-126.52 258.7,-123.39 264.65,-132.15 268.82,-126.52"/>
</g>
<!-- Vector::length -->
<g id="node6" class="node">
<title>Vector::length</title>
<ellipse fill="none" stroke="black" cx="769" cy="-106" rx="32.49" ry="18"/>
<text text-anchor="middle" x="769" y="-102.3" font-family="Times,serif" font-size="14.00">length</text>
</g>
<!-- add_preburn_to_queue&#45;&gt;Vector::length -->
<g id="edge5" class="edge">
<title>add_preburn_to_queue&#45;&gt;Vector::length</title>
<path fill="none" stroke="black" d="M612.08,-175.36C657.31,-171.75 707.18,-165.51 727,-155 737.23,-149.58 746.11,-140.57 753.04,-131.82"/>
<polygon fill="black" stroke="black" points="755.96,-133.76 759.06,-123.63 750.32,-129.61 755.96,-133.76"/>
</g>
<!-- Vector::push_back -->
<g id="node7" class="node">
<title>Vector::push_back</title>
<ellipse fill="none" stroke="black" cx="670" cy="-106" rx="48.19" ry="18"/>
<text text-anchor="middle" x="670" y="-102.3" font-family="Times,serif" font-size="14.00">push_back</text>
</g>
<!-- add_preburn_to_queue&#45;&gt;Vector::push_back -->
<g id="edge6" class="edge">
<title>add_preburn_to_queue&#45;&gt;Vector::push_back</title>
<path fill="none" stroke="black" d="M581.54,-166.73C591.29,-163.51 601.13,-159.62 610,-155 622.69,-148.38 635.29,-138.88 645.64,-130.07"/>
<polygon fill="black" stroke="black" points="648.22,-132.46 653.41,-123.23 643.6,-127.21 648.22,-132.46"/>
</g>
<!-- value -->
<g id="node8" class="node">
<title>value</title>
<ellipse fill="none" stroke="black" cx="849" cy="-106" rx="29.8" ry="18"/>
<text text-anchor="middle" x="849" y="-102.3" font-family="Times,serif" font-size="14.00">value</text>
</g>
<!-- add_preburn_to_queue&#45;&gt;value -->
<g id="edge7" class="edge">
<title>add_preburn_to_queue&#45;&gt;value</title>
<path fill="none" stroke="black" d="M616.75,-180.06C688.11,-178.64 780.31,-173.15 813,-155 822.33,-149.82 829.95,-141.1 835.75,-132.51"/>
<polygon fill="black" stroke="black" points="838.87,-134.1 841.12,-123.74 832.91,-130.44 838.87,-134.1"/>
</g>
<!-- Signer::borrow_address -->
<g id="node9" class="node">
<title>Signer::borrow_address</title>
<ellipse fill="none" stroke="black" cx="83" cy="-34" rx="66.89" ry="18"/>
<text text-anchor="middle" x="83" y="-30.3" font-family="Times,serif" font-size="14.00">borrow_address</text>
</g>
<!-- Signer::address_of&#45;&gt;Signer::borrow_address -->
<g id="edge8" class="edge">
<title>Signer::address_of&#45;&gt;Signer::borrow_address</title>
<path fill="none" stroke="black" d="M89.78,-87.7C88.78,-79.98 87.59,-70.71 86.49,-62.11"/>
<polygon fill="black" stroke="black" points="89.95,-61.58 85.2,-52.1 83,-62.47 89.95,-61.58"/>
</g>
<!-- Errors::make -->
<g id="node10" class="node">
<title>Errors::make</title>
<ellipse fill="none" stroke="black" cx="378" cy="-34" rx="30.59" ry="18"/>
<text text-anchor="middle" x="378" y="-30.3" font-family="Times,serif" font-size="14.00">make</text>
</g>
<!-- Errors::invalid_argument&#45;&gt;Errors::make -->
<g id="edge9" class="edge">
<title>Errors::invalid_argument&#45;&gt;Errors::make</title>
<path fill="none" stroke="black" d="M492.74,-89.64C468.27,-77.98 434.78,-62.04 410.3,-50.38"/>
<polygon fill="black" stroke="black" points="411.6,-47.12 401.06,-45.98 408.59,-53.44 411.6,-47.12"/>
</g>
<!-- Errors::invalid_state&#45;&gt;Errors::make -->
<g id="edge10" class="edge">
<title>Errors::invalid_state&#45;&gt;Errors::make</title>
<path fill="none" stroke="black" d="M378,-87.7C378,-79.98 378,-70.71 378,-62.11"/>
<polygon fill="black" stroke="black" points="381.5,-62.1 378,-52.1 374.5,-62.1 381.5,-62.1"/>
</g>
<!-- Errors::limit_exceeded&#45;&gt;Errors::make -->
<g id="edge11" class="edge">
<title>Errors::limit_exceeded&#45;&gt;Errors::make</title>
<path fill="none" stroke="black" d="M268.82,-89.98C291.68,-78.47 323.14,-62.63 346.42,-50.9"/>
<polygon fill="black" stroke="black" points="348.18,-53.94 355.54,-46.31 345.03,-47.68 348.18,-53.94"/>
</g>
</g>
</svg>
