<?xml version="1.0" encoding="UTF-8" standalone="no"?>
<!DOCTYPE svg PUBLIC "-//W3C//DTD SVG 1.1//EN"
 "http://www.w3.org/Graphics/SVG/1.1/DTD/svg11.dtd">
<!-- Generated by graphviz version 2.46.1 (20210213.1702)
 -->
<!-- Title: G Pages: 1 -->
<svg width="1303pt" height="440pt"
 viewBox="0.00 0.00 1303.00 440.00" xmlns="http://www.w3.org/2000/svg" xmlns:xlink="http://www.w3.org/1999/xlink">
<g id="graph0" class="graph" transform="scale(1 1) rotate(0) translate(4 436)">
<title>G</title>
<polygon fill="white" stroke="transparent" points="-4,4 -4,-436 1299,-436 1299,4 -4,4"/>
<g id="clust1" class="cluster">
<title>cluster_Signer</title>
<polygon fill="none" stroke="black" points="8,-238 8,-388 158,-388 158,-238 8,-238"/>
<text text-anchor="middle" x="83" y="-372.8" font-family="Times,serif" font-size="14.00">Signer</text>
</g>
<g id="clust2" class="cluster">
<title>cluster_Errors</title>
<polygon fill="none" stroke="black" points="358,-8 358,-158 946,-158 946,-8 358,-8"/>
<text text-anchor="middle" x="652" y="-142.8" font-family="Times,serif" font-size="14.00">Errors</text>
</g>
<g id="clust3" class="cluster">
<title>cluster_CoreAddresses</title>
<polygon fill="none" stroke="black" points="78,-8 78,-83 350,-83 350,-8 78,-8"/>
<text text-anchor="middle" x="214" y="-67.8" font-family="Times,serif" font-size="14.00">CoreAddresses</text>
</g>
<g id="clust4" class="cluster">
<title>cluster_Event</title>
<polygon fill="none" stroke="black" points="444,-166 444,-313 630,-313 630,-166 444,-166"/>
<text text-anchor="middle" x="537" y="-297.8" font-family="Times,serif" font-size="14.00">Event</text>
</g>
<g id="clust5" class="cluster">
<title>cluster_Vector</title>
<polygon fill="none" stroke="black" points="1024,-8 1024,-158 1287,-158 1287,-8 1024,-8"/>
<text text-anchor="middle" x="1155.5" y="-142.8" font-family="Times,serif" font-size="14.00">Vector</text>
</g>
<!-- cancel_burn -->
<g id="node1" class="node">
<title>cancel_burn</title>
<ellipse fill="none" stroke="black" cx="424" cy="-414" rx="53.89" ry="18"/>
<text text-anchor="middle" x="424" y="-410.3" font-family="Times,serif" font-size="14.00">cancel_burn</text>
</g>
<!-- Signer::address_of -->
<g id="node2" class="node">
<title>Signer::address_of</title>
<ellipse fill="none" stroke="black" cx="92" cy="-339" rx="48.99" ry="18"/>
<text text-anchor="middle" x="92" y="-335.3" font-family="Times,serif" font-size="14.00">address_of</text>
</g>
<!-- cancel_burn&#45;&gt;Signer::address_of -->
<g id="edge1" class="edge">
<title>cancel_burn&#45;&gt;Signer::address_of</title>
<path fill="none" stroke="black" d="M379.13,-403.95C356.31,-399.29 328.16,-393.46 303,-388 247.77,-376.01 184.59,-361.54 141.87,-351.64"/>
<polygon fill="black" stroke="black" points="142.54,-348.2 132,-349.35 140.95,-355.02 142.54,-348.2"/>
</g>
<!-- Errors::requires_capability -->
<g id="node3" class="node">
<title>Errors::requires_capability</title>
<ellipse fill="none" stroke="black" cx="592" cy="-109" rx="77.99" ry="18"/>
<text text-anchor="middle" x="592" y="-105.3" font-family="Times,serif" font-size="14.00">requires_capability</text>
</g>
<!-- cancel_burn&#45;&gt;Errors::requires_capability -->
<g id="edge2" class="edge">
<title>cancel_burn&#45;&gt;Errors::requires_capability</title>
<path fill="none" stroke="black" d="M475.27,-408.13C497.53,-404.59 523.39,-398.49 545,-388 591.53,-365.41 612.19,-359.9 634,-313 661.55,-253.76 654.66,-227.98 634,-166 630.23,-154.7 623.2,-143.85 615.94,-134.75"/>
<polygon fill="black" stroke="black" points="618.45,-132.29 609.31,-126.93 613.11,-136.82 618.45,-132.29"/>
</g>
<!-- cancel_burn_with_capability -->
<g id="node4" class="node">
<title>cancel_burn_with_capability</title>
<ellipse fill="none" stroke="black" cx="424" cy="-339" rx="112.38" ry="18"/>
<text text-anchor="middle" x="424" y="-335.3" font-family="Times,serif" font-size="14.00">cancel_burn_with_capability</text>
</g>
<!-- cancel_burn&#45;&gt;cancel_burn_with_capability -->
<g id="edge3" class="edge">
<title>cancel_burn&#45;&gt;cancel_burn_with_capability</title>
<path fill="none" stroke="black" d="M424,-395.7C424,-387.25 424,-376.87 424,-367.37"/>
<polygon fill="black" stroke="black" points="427.5,-367.18 424,-357.18 420.5,-367.18 427.5,-367.18"/>
</g>
<!-- Signer::borrow_address -->
<g id="node5" class="node">
<title>Signer::borrow_address</title>
<ellipse fill="none" stroke="black" cx="83" cy="-264" rx="66.89" ry="18"/>
<text text-anchor="middle" x="83" y="-260.3" font-family="Times,serif" font-size="14.00">borrow_address</text>
</g>
<!-- Signer::address_of&#45;&gt;Signer::borrow_address -->
<g id="edge4" class="edge">
<title>Signer::address_of&#45;&gt;Signer::borrow_address</title>
<path fill="none" stroke="black" d="M89.87,-320.7C88.82,-312.25 87.55,-301.87 86.37,-292.37"/>
<polygon fill="black" stroke="black" points="89.81,-291.67 85.12,-282.18 82.87,-292.53 89.81,-291.67"/>
</g>
<!-- Errors::make -->
<g id="node6" class="node">
<title>Errors::make</title>
<ellipse fill="none" stroke="black" cx="670" cy="-34" rx="30.59" ry="18"/>
<text text-anchor="middle" x="670" y="-30.3" font-family="Times,serif" font-size="14.00">make</text>
</g>
<!-- Errors::requires_capability&#45;&gt;Errors::make -->
<g id="edge5" class="edge">
<title>Errors::requires_capability&#45;&gt;Errors::make</title>
<path fill="none" stroke="black" d="M609.7,-91.44C620.76,-81.08 635.12,-67.64 647.05,-56.48"/>
<polygon fill="black" stroke="black" points="649.57,-58.91 654.48,-49.52 644.79,-53.8 649.57,-58.91"/>
</g>
<!-- Errors::limit_exceeded -->
<g id="node7" class="node">
<title>Errors::limit_exceeded</title>
<ellipse fill="none" stroke="black" cx="431" cy="-109" rx="64.99" ry="18"/>
<text text-anchor="middle" x="431" y="-105.3" font-family="Times,serif" font-size="14.00">limit_exceeded</text>
</g>
<!-- cancel_burn_with_capability&#45;&gt;Errors::limit_exceeded -->
<g id="edge6" class="edge">
<title>cancel_burn_with_capability&#45;&gt;Errors::limit_exceeded</title>
<path fill="none" stroke="black" d="M424.53,-320.86C425.73,-281.57 428.71,-184.7 430.17,-137.18"/>
<polygon fill="black" stroke="black" points="433.67,-137.13 430.48,-127.02 426.67,-136.91 433.67,-137.13"/>
</g>
<!-- CoreAddresses::CURRENCY_INFO_ADDRESS -->
<g id="node8" class="node">
<title>CoreAddresses::CURRENCY_INFO_ADDRESS</title>
<ellipse fill="none" stroke="black" cx="214" cy="-34" rx="128.08" ry="18"/>
<text text-anchor="middle" x="214" y="-30.3" font-family="Times,serif" font-size="14.00">CURRENCY_INFO_ADDRESS</text>
</g>
<!-- cancel_burn_with_capability&#45;&gt;CoreAddresses::CURRENCY_INFO_ADDRESS -->
<g id="edge7" class="edge">
<title>cancel_burn_with_capability&#45;&gt;CoreAddresses::CURRENCY_INFO_ADDRESS</title>
<path fill="none" stroke="black" d="M319.57,-332.1C288.98,-328.45 260.62,-322.55 249,-313 174.7,-251.9 194.3,-119.31 207.07,-62.14"/>
<polygon fill="black" stroke="black" points="210.56,-62.59 209.43,-52.06 203.74,-61 210.56,-62.59"/>
</g>
<!-- Event::emit_event -->
<g id="node9" class="node">
<title>Event::emit_event</title>
<ellipse fill="none" stroke="black" cx="519" cy="-264" rx="50.09" ry="18"/>
<text text-anchor="middle" x="519" y="-260.3" font-family="Times,serif" font-size="14.00">emit_event</text>
</g>
<!-- cancel_burn_with_capability&#45;&gt;Event::emit_event -->
<g id="edge8" class="edge">
<title>cancel_burn_with_capability&#45;&gt;Event::emit_event</title>
<path fill="none" stroke="black" d="M446.03,-321.07C459.32,-310.86 476.38,-297.75 490.67,-286.77"/>
<polygon fill="black" stroke="black" points="492.91,-289.46 498.71,-280.59 488.65,-283.91 492.91,-289.46"/>
</g>
<!-- currency_code -->
<g id="node10" class="node">
<title>currency_code</title>
<ellipse fill="none" stroke="black" cx="320" cy="-264" rx="62.29" ry="18"/>
<text text-anchor="middle" x="320" y="-260.3" font-family="Times,serif" font-size="14.00">currency_code</text>
</g>
<!-- cancel_burn_with_capability&#45;&gt;currency_code -->
<g id="edge9" class="edge">
<title>cancel_burn_with_capability&#45;&gt;currency_code</title>
<path fill="none" stroke="black" d="M400.14,-321.25C385.57,-311.02 366.78,-297.83 351.05,-286.8"/>
<polygon fill="black" stroke="black" points="352.87,-283.8 342.68,-280.92 348.85,-289.53 352.87,-283.8"/>
</g>
<!-- remove_preburn_from_queue -->
<g id="node11" class="node">
<title>remove_preburn_from_queue</title>
<ellipse fill="none" stroke="black" cx="986" cy="-192" rx="116.18" ry="18"/>
<text text-anchor="middle" x="986" y="-188.3" font-family="Times,serif" font-size="14.00">remove_preburn_from_queue</text>
</g>
<!-- cancel_burn_with_capability&#45;&gt;remove_preburn_from_queue -->
<g id="edge10" class="edge">
<title>cancel_burn_with_capability&#45;&gt;remove_preburn_from_queue</title>
<path fill="none" stroke="black" d="M523.28,-330.5C558.52,-326.71 598.29,-321.12 634,-313 745.61,-287.63 871.45,-239.85 938.28,-212.86"/>
<polygon fill="black" stroke="black" points="939.76,-216.04 947.7,-209.04 937.12,-209.56 939.76,-216.04"/>
</g>
<!-- Errors::limit_exceeded&#45;&gt;Errors::make -->
<g id="edge11" class="edge">
<title>Errors::limit_exceeded&#45;&gt;Errors::make</title>
<path fill="none" stroke="black" d="M472.9,-95.2C518.39,-81.31 590.3,-59.34 633.53,-46.14"/>
<polygon fill="black" stroke="black" points="634.81,-49.41 643.35,-43.14 632.77,-42.71 634.81,-49.41"/>
</g>
<!-- Event::write_to_event_store -->
<g id="node12" class="node">
<title>Event::write_to_event_store</title>
<ellipse fill="none" stroke="black" cx="537" cy="-192" rx="85.29" ry="18"/>
<text text-anchor="middle" x="537" y="-188.3" font-family="Times,serif" font-size="14.00">write_to_event_store</text>
</g>
<!-- Event::emit_event&#45;&gt;Event::write_to_event_store -->
<g id="edge12" class="edge">
<title>Event::emit_event&#45;&gt;Event::write_to_event_store</title>
<path fill="none" stroke="black" d="M523.36,-246.05C525.36,-238.26 527.79,-228.82 530.04,-220.08"/>
<polygon fill="black" stroke="black" points="533.46,-220.83 532.56,-210.28 526.68,-219.09 533.46,-220.83"/>
</g>
<!-- currency_code&#45;&gt;CoreAddresses::CURRENCY_INFO_ADDRESS -->
<g id="edge13" class="edge">
<title>currency_code&#45;&gt;CoreAddresses::CURRENCY_INFO_ADDRESS</title>
<path fill="none" stroke="black" d="M283.44,-249.14C265.9,-240.57 246.29,-227.76 235,-210 206.13,-164.6 207.01,-99.02 210.39,-62.39"/>
<polygon fill="black" stroke="black" points="213.92,-62.32 211.49,-52.01 206.96,-61.58 213.92,-62.32"/>
</g>
<!-- assert_is_currency -->
<g id="node13" class="node">
<title>assert_is_currency</title>
<ellipse fill="none" stroke="black" cx="320" cy="-192" rx="76.09" ry="18"/>
<text text-anchor="middle" x="320" y="-188.3" font-family="Times,serif" font-size="14.00">assert_is_currency</text>
</g>
<!-- currency_code&#45;&gt;assert_is_currency -->
<g id="edge14" class="edge">
<title>currency_code&#45;&gt;assert_is_currency</title>
<path fill="none" stroke="black" d="M320,-245.7C320,-237.98 320,-228.71 320,-220.11"/>
<polygon fill="black" stroke="black" points="323.5,-220.1 320,-210.1 316.5,-220.1 323.5,-220.1"/>
</g>
<!-- Errors::invalid_state -->
<g id="node14" class="node">
<title>Errors::invalid_state</title>
<ellipse fill="none" stroke="black" cx="882" cy="-109" rx="55.79" ry="18"/>
<text text-anchor="middle" x="882" y="-105.3" font-family="Times,serif" font-size="14.00">invalid_state</text>
</g>
<!-- remove_preburn_from_queue&#45;&gt;Errors::invalid_state -->
<g id="edge15" class="edge">
<title>remove_preburn_from_queue&#45;&gt;Errors::invalid_state</title>
<path fill="none" stroke="black" d="M964.45,-174.22C948.81,-162.03 927.48,-145.42 910.44,-132.15"/>
<polygon fill="black" stroke="black" points="912.5,-129.32 902.46,-125.94 908.2,-134.84 912.5,-129.32"/>
</g>
<!-- Errors::not_published -->
<g id="node15" class="node">
<title>Errors::not_published</title>
<ellipse fill="none" stroke="black" cx="748" cy="-109" rx="60.39" ry="18"/>
<text text-anchor="middle" x="748" y="-105.3" font-family="Times,serif" font-size="14.00">not_published</text>
</g>
<!-- remove_preburn_from_queue&#45;&gt;Errors::not_published -->
<g id="edge16" class="edge">
<title>remove_preburn_from_queue&#45;&gt;Errors::not_published</title>
<path fill="none" stroke="black" d="M895.79,-180.51C869.71,-175.6 841.64,-168.43 817,-158 801.93,-151.62 786.83,-141.62 774.61,-132.4"/>
<polygon fill="black" stroke="black" points="776.68,-129.58 766.64,-126.19 772.38,-135.1 776.68,-129.58"/>
</g>
<!-- Vector::borrow -->
<g id="node16" class="node">
<title>Vector::borrow</title>
<ellipse fill="none" stroke="black" cx="1169" cy="-109" rx="36.29" ry="18"/>
<text text-anchor="middle" x="1169" y="-105.3" font-family="Times,serif" font-size="14.00">borrow</text>
</g>
<!-- remove_preburn_from_queue&#45;&gt;Vector::borrow -->
<g id="edge17" class="edge">
<title>remove_preburn_from_queue&#45;&gt;Vector::borrow</title>
<path fill="none" stroke="black" d="M1069.27,-179.32C1088.08,-174.48 1107.38,-167.65 1124,-158 1134.44,-151.94 1143.92,-142.7 1151.47,-133.95"/>
<polygon fill="black" stroke="black" points="1154.22,-136.11 1157.82,-126.15 1148.79,-131.69 1154.22,-136.11"/>
</g>
<!-- Vector::length -->
<g id="node17" class="node">
<title>Vector::length</title>
<ellipse fill="none" stroke="black" cx="1247" cy="-34" rx="32.49" ry="18"/>
<text text-anchor="middle" x="1247" y="-30.3" font-family="Times,serif" font-size="14.00">length</text>
</g>
<!-- remove_preburn_from_queue&#45;&gt;Vector::length -->
<g id="edge18" class="edge">
<title>remove_preburn_from_queue&#45;&gt;Vector::length</title>
<path fill="none" stroke="black" d="M1096.72,-186.34C1145.69,-182.04 1196.21,-173.8 1214,-158 1240.97,-134.05 1246.97,-90.66 1247.77,-62.35"/>
<polygon fill="black" stroke="black" points="1251.27,-62.33 1247.86,-52.31 1244.27,-62.27 1251.27,-62.33"/>
</g>
<!-- Vector::remove -->
<g id="node18" class="node">
<title>Vector::remove</title>
<ellipse fill="none" stroke="black" cx="1077" cy="-109" rx="37.89" ry="18"/>
<text text-anchor="middle" x="1077" y="-105.3" font-family="Times,serif" font-size="14.00">remove</text>
</g>
<!-- remove_preburn_from_queue&#45;&gt;Vector::remove -->
<g id="edge19" class="edge">
<title>remove_preburn_from_queue&#45;&gt;Vector::remove</title>
<path fill="none" stroke="black" d="M1006.38,-174.04C1012.42,-168.93 1019.02,-163.29 1025,-158 1034.4,-149.69 1044.57,-140.38 1053.41,-132.18"/>
<polygon fill="black" stroke="black" points="1055.84,-134.69 1060.77,-125.32 1051.07,-129.57 1055.84,-134.69"/>
</g>
<!-- value -->
<g id="node19" class="node">
<title>value</title>
<ellipse fill="none" stroke="black" cx="986" cy="-109" rx="29.8" ry="18"/>
<text text-anchor="middle" x="986" y="-105.3" font-family="Times,serif" font-size="14.00">value</text>
</g>
<!-- remove_preburn_from_queue&#45;&gt;value -->
<g id="edge20" class="edge">
<title>remove_preburn_from_queue&#45;&gt;value</title>
<path fill="none" stroke="black" d="M986,-173.82C986,-163.19 986,-149.31 986,-137.2"/>
<polygon fill="black" stroke="black" points="989.5,-137.15 986,-127.15 982.5,-137.15 989.5,-137.15"/>
</g>
<!-- assert_is_currency&#45;&gt;Errors::not_published -->
<g id="edge21" class="edge">
<title>assert_is_currency&#45;&gt;Errors::not_published</title>
<path fill="none" stroke="black" d="M370.48,-178.47C391.8,-173.71 416.97,-168.76 440,-166 466.38,-162.83 653.78,-166.37 679,-158 694.87,-152.73 710.35,-142.57 722.62,-132.94"/>
<polygon fill="black" stroke="black" points="725.04,-135.48 730.56,-126.43 720.61,-130.06 725.04,-135.48"/>
</g>
<!-- is_currency -->
<g id="node20" class="node">
<title>is_currency</title>
<ellipse fill="none" stroke="black" cx="296" cy="-109" rx="51.99" ry="18"/>
<text text-anchor="middle" x="296" y="-105.3" font-family="Times,serif" font-size="14.00">is_currency</text>
</g>
<!-- assert_is_currency&#45;&gt;is_currency -->
<g id="edge22" class="edge">
<title>assert_is_currency&#45;&gt;is_currency</title>
<path fill="none" stroke="black" d="M314.91,-173.82C311.73,-163.08 307.56,-149.03 303.95,-136.84"/>
<polygon fill="black" stroke="black" points="307.28,-135.75 301.08,-127.15 300.57,-137.74 307.28,-135.75"/>
</g>
<!-- Errors::invalid_state&#45;&gt;Errors::make -->
<g id="edge23" class="edge">
<title>Errors::invalid_state&#45;&gt;Errors::make</title>
<path fill="none" stroke="black" d="M845.07,-95.28C805.87,-81.78 744.34,-60.6 705.63,-47.27"/>
<polygon fill="black" stroke="black" points="706.43,-43.84 695.84,-43.9 704.15,-50.46 706.43,-43.84"/>
</g>
<!-- Errors::not_published&#45;&gt;Errors::make -->
<g id="edge24" class="edge">
<title>Errors::not_published&#45;&gt;Errors::make</title>
<path fill="none" stroke="black" d="M730.3,-91.44C719.24,-81.08 704.88,-67.64 692.95,-56.48"/>
<polygon fill="black" stroke="black" points="695.21,-53.8 685.52,-49.52 690.43,-58.91 695.21,-53.8"/>
</g>
<!-- Vector::remove&#45;&gt;Vector::length -->
<g id="edge25" class="edge">
<title>Vector::remove&#45;&gt;Vector::length</title>
<path fill="none" stroke="black" d="M1104.99,-96.59C1111.17,-94.43 1117.74,-92.41 1124,-91 1159.72,-82.93 1173.53,-99.93 1206,-83 1216.31,-77.62 1225.12,-68.46 1231.89,-59.57"/>
<polygon fill="black" stroke="black" points="1234.85,-61.45 1237.75,-51.27 1229.13,-57.42 1234.85,-61.45"/>
</g>
<!-- Vector::pop_back -->
<g id="node21" class="node">
<title>Vector::pop_back</title>
<ellipse fill="none" stroke="black" cx="1077" cy="-34" rx="44.69" ry="18"/>
<text text-anchor="middle" x="1077" y="-30.3" font-family="Times,serif" font-size="14.00">pop_back</text>
</g>
<!-- Vector::remove&#45;&gt;Vector::pop_back -->
<g id="edge26" class="edge">
<title>Vector::remove&#45;&gt;Vector::pop_back</title>
<path fill="none" stroke="black" d="M1077,-90.7C1077,-82.25 1077,-71.87 1077,-62.37"/>
<polygon fill="black" stroke="black" points="1080.5,-62.18 1077,-52.18 1073.5,-62.18 1080.5,-62.18"/>
</g>
<!-- Vector::swap -->
<g id="node22" class="node">
<title>Vector::swap</title>
<ellipse fill="none" stroke="black" cx="1168" cy="-34" rx="28.7" ry="18"/>
<text text-anchor="middle" x="1168" y="-30.3" font-family="Times,serif" font-size="14.00">swap</text>
</g>
<!-- Vector::remove&#45;&gt;Vector::swap -->
<g id="edge27" class="edge">
<title>Vector::remove&#45;&gt;Vector::swap</title>
<path fill="none" stroke="black" d="M1106.23,-97.54C1114.71,-93.72 1123.65,-88.87 1131,-83 1139.18,-76.47 1146.58,-67.77 1152.59,-59.57"/>
<polygon fill="black" stroke="black" points="1155.49,-61.53 1158.31,-51.32 1149.73,-57.54 1155.49,-61.53"/>
</g>
<!-- is_currency&#45;&gt;CoreAddresses::CURRENCY_INFO_ADDRESS -->
<g id="edge28" class="edge">
<title>is_currency&#45;&gt;CoreAddresses::CURRENCY_INFO_ADDRESS</title>
<path fill="none" stroke="black" d="M277.8,-91.8C266.89,-82.08 252.81,-69.55 240.66,-58.73"/>
<polygon fill="black" stroke="black" points="242.8,-55.95 233,-51.92 238.14,-61.18 242.8,-55.95"/>
</g>
</g>
</svg>
