<?xml version="1.0" encoding="UTF-8" standalone="no"?>
<!DOCTYPE svg PUBLIC "-//W3C//DTD SVG 1.1//EN"
 "http://www.w3.org/Graphics/SVG/1.1/DTD/svg11.dtd">
<!-- Generated by graphviz version 2.46.1 (20210213.1702)
 -->
<!-- Title: G Pages: 1 -->
<svg width="824pt" height="365pt"
 viewBox="0.00 0.00 824.00 365.00" xmlns="http://www.w3.org/2000/svg" xmlns:xlink="http://www.w3.org/1999/xlink">
<g id="graph0" class="graph" transform="scale(1 1) rotate(0) translate(4 361)">
<title>G</title>
<polygon fill="white" stroke="transparent" points="-4,4 -4,-361 820,-361 820,4 -4,4"/>
<g id="clust1" class="cluster">
<title>cluster_Errors</title>
<polygon fill="none" stroke="black" points="8,-8 8,-158 422,-158 422,-8 8,-8"/>
<text text-anchor="middle" x="215" y="-142.8" font-family="Times,serif" font-size="14.00">Errors</text>
</g>
<g id="clust2" class="cluster">
<title>cluster_CoreAddresses</title>
<polygon fill="none" stroke="black" points="430,-8 430,-83 702,-83 702,-8 430,-8"/>
<text text-anchor="middle" x="566" y="-67.8" font-family="Times,serif" font-size="14.00">CoreAddresses</text>
</g>
<g id="clust3" class="cluster">
<title>cluster_Event</title>
<polygon fill="none" stroke="black" points="622,-166 622,-313 808,-313 808,-166 622,-166"/>
<text text-anchor="middle" x="715" y="-297.8" font-family="Times,serif" font-size="14.00">Event</text>
</g>
<!-- burn_with_resource_cap -->
<g id="node1" class="node">
<title>burn_with_resource_cap</title>
<ellipse fill="none" stroke="black" cx="416" cy="-339" rx="97.48" ry="18"/>
<text text-anchor="middle" x="416" y="-335.3" font-family="Times,serif" font-size="14.00">burn_with_resource_cap</text>
</g>
<!-- Errors::invalid_state -->
<g id="node2" class="node">
<title>Errors::invalid_state</title>
<ellipse fill="none" stroke="black" cx="72" cy="-109" rx="55.79" ry="18"/>
<text text-anchor="middle" x="72" y="-105.3" font-family="Times,serif" font-size="14.00">invalid_state</text>
</g>
<!-- burn_with_resource_cap&#45;&gt;Errors::invalid_state -->
<g id="edge1" class="edge">
<title>burn_with_resource_cap&#45;&gt;Errors::invalid_state</title>
<path fill="none" stroke="black" d="M322.61,-333.82C278.52,-330.4 231.54,-324.19 213,-313 143.84,-271.25 100.15,-181.12 81.87,-136.35"/>
<polygon fill="black" stroke="black" points="85.1,-135.01 78.15,-127.01 78.59,-137.59 85.1,-135.01"/>
</g>
<!-- Errors::limit_exceeded -->
<g id="node3" class="node">
<title>Errors::limit_exceeded</title>
<ellipse fill="none" stroke="black" cx="211" cy="-109" rx="64.99" ry="18"/>
<text text-anchor="middle" x="211" y="-105.3" font-family="Times,serif" font-size="14.00">limit_exceeded</text>
</g>
<!-- burn_with_resource_cap&#45;&gt;Errors::limit_exceeded -->
<g id="edge2" class="edge">
<title>burn_with_resource_cap&#45;&gt;Errors::limit_exceeded</title>
<path fill="none" stroke="black" d="M324.45,-332.69C294.28,-329.1 265.71,-323.09 255,-313 206.37,-267.17 205.09,-181.33 208.09,-137.41"/>
<polygon fill="black" stroke="black" points="211.59,-137.45 208.92,-127.2 204.62,-136.88 211.59,-137.45"/>
</g>
<!-- CoreAddresses::CURRENCY_INFO_ADDRESS -->
<g id="node4" class="node">
<title>CoreAddresses::CURRENCY_INFO_ADDRESS</title>
<ellipse fill="none" stroke="black" cx="566" cy="-34" rx="128.08" ry="18"/>
<text text-anchor="middle" x="566" y="-30.3" font-family="Times,serif" font-size="14.00">CURRENCY_INFO_ADDRESS</text>
</g>
<!-- burn_with_resource_cap&#45;&gt;CoreAddresses::CURRENCY_INFO_ADDRESS -->
<g id="edge3" class="edge">
<title>burn_with_resource_cap&#45;&gt;CoreAddresses::CURRENCY_INFO_ADDRESS</title>
<path fill="none" stroke="black" d="M509.63,-333.74C539.61,-330.27 567.52,-324.06 577,-313 638.68,-241 599.31,-115.98 577.59,-61.57"/>
<polygon fill="black" stroke="black" points="580.8,-60.18 573.76,-52.26 574.32,-62.84 580.8,-60.18"/>
</g>
<!-- Event::emit_event -->
<g id="node5" class="node">
<title>Event::emit_event</title>
<ellipse fill="none" stroke="black" cx="697" cy="-264" rx="50.09" ry="18"/>
<text text-anchor="middle" x="697" y="-260.3" font-family="Times,serif" font-size="14.00">emit_event</text>
</g>
<!-- burn_with_resource_cap&#45;&gt;Event::emit_event -->
<g id="edge4" class="edge">
<title>burn_with_resource_cap&#45;&gt;Event::emit_event</title>
<path fill="none" stroke="black" d="M510.14,-334.21C544.19,-330.78 582.48,-324.47 616,-313 634.19,-306.78 652.76,-296.14 667.52,-286.46"/>
<polygon fill="black" stroke="black" points="669.86,-289.11 676.18,-280.61 665.94,-283.31 669.86,-289.11"/>
</g>
<!-- currency_code -->
<g id="node6" class="node">
<title>currency_code</title>
<ellipse fill="none" stroke="black" cx="506" cy="-264" rx="62.29" ry="18"/>
<text text-anchor="middle" x="506" y="-260.3" font-family="Times,serif" font-size="14.00">currency_code</text>
</g>
<!-- burn_with_resource_cap&#45;&gt;currency_code -->
<g id="edge5" class="edge">
<title>burn_with_resource_cap&#45;&gt;currency_code</title>
<path fill="none" stroke="black" d="M436.87,-321.07C449.17,-311.09 464.88,-298.35 478.22,-287.53"/>
<polygon fill="black" stroke="black" points="480.6,-290.11 486.17,-281.09 476.19,-284.67 480.6,-290.11"/>
</g>
<!-- assert_is_currency -->
<g id="node7" class="node">
<title>assert_is_currency</title>
<ellipse fill="none" stroke="black" cx="451" cy="-192" rx="76.09" ry="18"/>
<text text-anchor="middle" x="451" y="-188.3" font-family="Times,serif" font-size="14.00">assert_is_currency</text>
</g>
<!-- burn_with_resource_cap&#45;&gt;assert_is_currency -->
<g id="edge6" class="edge">
<title>burn_with_resource_cap&#45;&gt;assert_is_currency</title>
<path fill="none" stroke="black" d="M419.05,-320.94C422.48,-302.39 428.42,-271.93 435,-246 437.18,-237.39 439.88,-228.09 442.43,-219.72"/>
<polygon fill="black" stroke="black" points="445.8,-220.67 445.42,-210.08 439.11,-218.59 445.8,-220.67"/>
</g>
<!-- withdraw_all -->
<g id="node8" class="node">
<title>withdraw_all</title>
<ellipse fill="none" stroke="black" cx="321" cy="-264" rx="57.39" ry="18"/>
<text text-anchor="middle" x="321" y="-260.3" font-family="Times,serif" font-size="14.00">withdraw_all</text>
</g>
<!-- burn_with_resource_cap&#45;&gt;withdraw_all -->
<g id="edge7" class="edge">
<title>burn_with_resource_cap&#45;&gt;withdraw_all</title>
<path fill="none" stroke="black" d="M394.44,-321.44C381.26,-311.31 364.24,-298.23 349.9,-287.21"/>
<polygon fill="black" stroke="black" points="351.88,-284.32 341.82,-281 347.62,-289.87 351.88,-284.32"/>
</g>
<!-- Errors::make -->
<g id="node9" class="node">
<title>Errors::make</title>
<ellipse fill="none" stroke="black" cx="211" cy="-34" rx="30.59" ry="18"/>
<text text-anchor="middle" x="211" y="-30.3" font-family="Times,serif" font-size="14.00">make</text>
</g>
<!-- Errors::invalid_state&#45;&gt;Errors::make -->
<g id="edge8" class="edge">
<title>Errors::invalid_state&#45;&gt;Errors::make</title>
<path fill="none" stroke="black" d="M100.13,-93.23C123.24,-81.09 155.95,-63.91 179.85,-51.36"/>
<polygon fill="black" stroke="black" points="181.63,-54.38 188.85,-46.63 178.37,-48.18 181.63,-54.38"/>
</g>
<!-- Errors::limit_exceeded&#45;&gt;Errors::make -->
<g id="edge9" class="edge">
<title>Errors::limit_exceeded&#45;&gt;Errors::make</title>
<path fill="none" stroke="black" d="M211,-90.7C211,-82.25 211,-71.87 211,-62.37"/>
<polygon fill="black" stroke="black" points="214.5,-62.18 211,-52.18 207.5,-62.18 214.5,-62.18"/>
</g>
<!-- Event::write_to_event_store -->
<g id="node10" class="node">
<title>Event::write_to_event_store</title>
<ellipse fill="none" stroke="black" cx="715" cy="-192" rx="85.29" ry="18"/>
<text text-anchor="middle" x="715" y="-188.3" font-family="Times,serif" font-size="14.00">write_to_event_store</text>
</g>
<!-- Event::emit_event&#45;&gt;Event::write_to_event_store -->
<g id="edge10" class="edge">
<title>Event::emit_event&#45;&gt;Event::write_to_event_store</title>
<path fill="none" stroke="black" d="M701.36,-246.05C703.36,-238.26 705.79,-228.82 708.04,-220.08"/>
<polygon fill="black" stroke="black" points="711.46,-220.83 710.56,-210.28 704.68,-219.09 711.46,-220.83"/>
</g>
<!-- currency_code&#45;&gt;CoreAddresses::CURRENCY_INFO_ADDRESS -->
<g id="edge11" class="edge">
<title>currency_code&#45;&gt;CoreAddresses::CURRENCY_INFO_ADDRESS</title>
<path fill="none" stroke="black" d="M517.58,-246.06C523.95,-235.99 531.45,-222.74 536,-210 553.93,-159.84 561.32,-97.66 564.23,-62.54"/>
<polygon fill="black" stroke="black" points="567.76,-62.38 565.03,-52.14 560.78,-61.85 567.76,-62.38"/>
</g>
<!-- currency_code&#45;&gt;assert_is_currency -->
<g id="edge12" class="edge">
<title>currency_code&#45;&gt;assert_is_currency</title>
<path fill="none" stroke="black" d="M492.69,-246.05C486,-237.54 477.77,-227.07 470.39,-217.68"/>
<polygon fill="black" stroke="black" points="473.12,-215.49 464.19,-209.79 467.62,-219.81 473.12,-215.49"/>
</g>
<!-- Errors::not_published -->
<g id="node11" class="node">
<title>Errors::not_published</title>
<ellipse fill="none" stroke="black" cx="354" cy="-109" rx="60.39" ry="18"/>
<text text-anchor="middle" x="354" y="-105.3" font-family="Times,serif" font-size="14.00">not_published</text>
</g>
<!-- assert_is_currency&#45;&gt;Errors::not_published -->
<g id="edge13" class="edge">
<title>assert_is_currency&#45;&gt;Errors::not_published</title>
<path fill="none" stroke="black" d="M431.37,-174.61C416.95,-162.56 397.16,-146.04 381.21,-132.72"/>
<polygon fill="black" stroke="black" points="383.19,-129.81 373.27,-126.09 378.7,-135.19 383.19,-129.81"/>
</g>
<!-- is_currency -->
<g id="node12" class="node">
<title>is_currency</title>
<ellipse fill="none" stroke="black" cx="484" cy="-109" rx="51.99" ry="18"/>
<text text-anchor="middle" x="484" y="-105.3" font-family="Times,serif" font-size="14.00">is_currency</text>
</g>
<!-- assert_is_currency&#45;&gt;is_currency -->
<g id="edge14" class="edge">
<title>assert_is_currency&#45;&gt;is_currency</title>
<path fill="none" stroke="black" d="M458,-173.82C462.45,-162.9 468.29,-148.55 473.32,-136.22"/>
<polygon fill="black" stroke="black" points="476.59,-137.46 477.12,-126.88 470.11,-134.82 476.59,-137.46"/>
</g>
<!-- withdraw -->
<g id="node13" class="node">
<title>withdraw</title>
<ellipse fill="none" stroke="black" cx="294" cy="-192" rx="44.39" ry="18"/>
<text text-anchor="middle" x="294" y="-188.3" font-family="Times,serif" font-size="14.00">withdraw</text>
</g>
<!-- withdraw_all&#45;&gt;withdraw -->
<g id="edge15" class="edge">
<title>withdraw_all&#45;&gt;withdraw</title>
<path fill="none" stroke="black" d="M314.46,-246.05C311.43,-238.18 307.74,-228.62 304.33,-219.79"/>
<polygon fill="black" stroke="black" points="307.53,-218.35 300.66,-210.28 301,-220.86 307.53,-218.35"/>
</g>
<!-- Errors::not_published&#45;&gt;Errors::make -->
<g id="edge16" class="edge">
<title>Errors::not_published&#45;&gt;Errors::make</title>
<path fill="none" stroke="black" d="M324.72,-93.05C300.91,-80.9 267.38,-63.78 242.9,-51.28"/>
<polygon fill="black" stroke="black" points="244.17,-48 233.67,-46.57 240.99,-54.24 244.17,-48"/>
</g>
<!-- is_currency&#45;&gt;CoreAddresses::CURRENCY_INFO_ADDRESS -->
<g id="edge17" class="edge">
<title>is_currency&#45;&gt;CoreAddresses::CURRENCY_INFO_ADDRESS</title>
<path fill="none" stroke="black" d="M502.2,-91.8C513.11,-82.08 527.19,-69.55 539.34,-58.73"/>
<polygon fill="black" stroke="black" points="541.86,-61.18 547,-51.92 537.2,-55.95 541.86,-61.18"/>
</g>
<!-- withdraw&#45;&gt;Errors::limit_exceeded -->
<g id="edge18" class="edge">
<title>withdraw&#45;&gt;Errors::limit_exceeded</title>
<path fill="none" stroke="black" d="M277.6,-175C265.48,-163.17 248.79,-146.88 235.15,-133.57"/>
<polygon fill="black" stroke="black" points="237.54,-131.01 227.93,-126.53 232.65,-136.02 237.54,-131.01"/>
</g>
</g>
</svg>
