<?xml version="1.0" encoding="UTF-8" standalone="no"?>
<!DOCTYPE svg PUBLIC "-//W3C//DTD SVG 1.1//EN"
 "http://www.w3.org/Graphics/SVG/1.1/DTD/svg11.dtd">
<!-- Generated by graphviz version 2.46.1 (20210213.1702)
 -->
<!-- Title: G Pages: 1 -->
<svg width="728pt" height="448pt"
 viewBox="0.00 0.00 727.60 448.00" xmlns="http://www.w3.org/2000/svg" xmlns:xlink="http://www.w3.org/1999/xlink">
<g id="graph0" class="graph" transform="scale(1 1) rotate(0) translate(4 444)">
<title>G</title>
<polygon fill="white" stroke="transparent" points="-4,4 -4,-444 723.6,-444 723.6,4 -4,4"/>
<g id="clust1" class="cluster">
<title>cluster_Signer</title>
<polygon fill="none" stroke="black" points="134,-246 134,-396 284,-396 284,-246 134,-246"/>
<text text-anchor="middle" x="209" y="-380.8" font-family="Times,serif" font-size="14.00">Signer</text>
</g>
<g id="clust2" class="cluster">
<title>cluster_Errors</title>
<polygon fill="none" stroke="black" points="8,-80 8,-238 439,-238 439,-80 8,-80"/>
<text text-anchor="middle" x="223.5" y="-222.8" font-family="Times,serif" font-size="14.00">Errors</text>
</g>
<g id="clust3" class="cluster">
<title>cluster_Option</title>
<polygon fill="none" stroke="black" points="447,-163 447,-321 626,-321 626,-163 447,-163"/>
<text text-anchor="middle" x="536.5" y="-305.8" font-family="Times,serif" font-size="14.00">Option</text>
</g>
<g id="clust4" class="cluster">
<title>cluster_Vector</title>
<polygon fill="none" stroke="black" points="447,-8 447,-155 658,-155 658,-8 447,-8"/>
<text text-anchor="middle" x="552.5" y="-139.8" font-family="Times,serif" font-size="14.00">Vector</text>
</g>
<!-- extract_withdraw_capability -->
<g id="node1" class="node">
<title>extract_withdraw_capability</title>
<ellipse fill="none" stroke="black" cx="361" cy="-422" rx="111.28" ry="18"/>
<text text-anchor="middle" x="361" y="-418.3" font-family="Times,serif" font-size="14.00">extract_withdraw_capability</text>
</g>
<!-- Signer::address_of -->
<g id="node2" class="node">
<title>Signer::address_of</title>
<ellipse fill="none" stroke="black" cx="218" cy="-347" rx="48.99" ry="18"/>
<text text-anchor="middle" x="218" y="-343.3" font-family="Times,serif" font-size="14.00">address_of</text>
</g>
<!-- extract_withdraw_capability&#45;&gt;Signer::address_of -->
<g id="edge1" class="edge">
<title>extract_withdraw_capability&#45;&gt;Signer::address_of</title>
<path fill="none" stroke="black" d="M312.59,-405.78C304.9,-402.85 297.13,-399.56 290,-396 275.04,-388.53 259.48,-378.48 246.66,-369.51"/>
<polygon fill="black" stroke="black" points="248.45,-366.48 238.27,-363.51 244.38,-372.17 248.45,-366.48"/>
</g>
<!-- Errors::invalid_state -->
<g id="node3" class="node">
<title>Errors::invalid_state</title>
<ellipse fill="none" stroke="black" cx="72" cy="-189" rx="55.79" ry="18"/>
<text text-anchor="middle" x="72" y="-185.3" font-family="Times,serif" font-size="14.00">invalid_state</text>
</g>
<!-- extract_withdraw_capability&#45;&gt;Errors::invalid_state -->
<g id="edge2" class="edge">
<title>extract_withdraw_capability&#45;&gt;Errors::invalid_state</title>
<path fill="none" stroke="black" d="M348.56,-403.85C346.92,-401.28 345.35,-398.61 344,-396 339.91,-388.1 295.17,-251.26 288,-246 274.46,-236.06 152.81,-243.67 137,-238 122.02,-232.62 107.55,-222.59 96.08,-213.07"/>
<polygon fill="black" stroke="black" points="98.14,-210.23 88.29,-206.31 93.55,-215.51 98.14,-210.23"/>
</g>
<!-- Errors::not_published -->
<g id="node4" class="node">
<title>Errors::not_published</title>
<ellipse fill="none" stroke="black" cx="206" cy="-189" rx="60.39" ry="18"/>
<text text-anchor="middle" x="206" y="-185.3" font-family="Times,serif" font-size="14.00">not_published</text>
</g>
<!-- extract_withdraw_capability&#45;&gt;Errors::not_published -->
<g id="edge3" class="edge">
<title>extract_withdraw_capability&#45;&gt;Errors::not_published</title>
<path fill="none" stroke="black" d="M359.13,-403.83C354.44,-364.13 340.92,-267.75 318,-246 304.21,-232.92 293.54,-245.31 276,-238 260.75,-231.65 245.43,-221.65 233.03,-212.42"/>
<polygon fill="black" stroke="black" points="235,-209.53 224.94,-206.21 230.74,-215.08 235,-209.53"/>
</g>
<!-- Option::extract -->
<g id="node5" class="node">
<title>Option::extract</title>
<ellipse fill="none" stroke="black" cx="489" cy="-272" rx="34.39" ry="18"/>
<text text-anchor="middle" x="489" y="-268.3" font-family="Times,serif" font-size="14.00">extract</text>
</g>
<!-- extract_withdraw_capability&#45;&gt;Option::extract -->
<g id="edge4" class="edge">
<title>extract_withdraw_capability&#45;&gt;Option::extract</title>
<path fill="none" stroke="black" d="M364.73,-403.71C369.73,-383.85 380.23,-351.15 399,-329 413.76,-311.58 435.34,-297.9 453.68,-288.42"/>
<polygon fill="black" stroke="black" points="455.24,-291.55 462.64,-283.97 452.13,-285.28 455.24,-291.55"/>
</g>
<!-- exists_at -->
<g id="node6" class="node">
<title>exists_at</title>
<ellipse fill="none" stroke="black" cx="678" cy="-272" rx="41.69" ry="18"/>
<text text-anchor="middle" x="678" y="-268.3" font-family="Times,serif" font-size="14.00">exists_at</text>
</g>
<!-- extract_withdraw_capability&#45;&gt;exists_at -->
<g id="edge5" class="edge">
<title>extract_withdraw_capability&#45;&gt;exists_at</title>
<path fill="none" stroke="black" d="M469.88,-418.33C549.19,-415.3 645.07,-408.99 659,-396 684.78,-371.95 685.42,-328.6 682.49,-300.31"/>
<polygon fill="black" stroke="black" points="685.95,-299.77 681.24,-290.28 679,-300.64 685.95,-299.77"/>
</g>
<!-- delegated_withdraw_capability -->
<g id="node7" class="node">
<title>delegated_withdraw_capability</title>
<ellipse fill="none" stroke="black" cx="529" cy="-347" rx="120.78" ry="18"/>
<text text-anchor="middle" x="529" y="-343.3" font-family="Times,serif" font-size="14.00">delegated_withdraw_capability</text>
</g>
<!-- extract_withdraw_capability&#45;&gt;delegated_withdraw_capability -->
<g id="edge6" class="edge">
<title>extract_withdraw_capability&#45;&gt;delegated_withdraw_capability</title>
<path fill="none" stroke="black" d="M397.87,-404.98C422.64,-394.21 455.51,-379.93 482.14,-368.36"/>
<polygon fill="black" stroke="black" points="483.86,-371.43 491.64,-364.24 481.07,-365.01 483.86,-371.43"/>
</g>
<!-- Signer::borrow_address -->
<g id="node8" class="node">
<title>Signer::borrow_address</title>
<ellipse fill="none" stroke="black" cx="209" cy="-272" rx="66.89" ry="18"/>
<text text-anchor="middle" x="209" y="-268.3" font-family="Times,serif" font-size="14.00">borrow_address</text>
</g>
<!-- Signer::address_of&#45;&gt;Signer::borrow_address -->
<g id="edge7" class="edge">
<title>Signer::address_of&#45;&gt;Signer::borrow_address</title>
<path fill="none" stroke="black" d="M215.87,-328.7C214.82,-320.25 213.55,-309.87 212.37,-300.37"/>
<polygon fill="black" stroke="black" points="215.81,-299.67 211.12,-290.18 208.87,-300.53 215.81,-299.67"/>
</g>
<!-- Errors::make -->
<g id="node9" class="node">
<title>Errors::make</title>
<ellipse fill="none" stroke="black" cx="206" cy="-106" rx="30.59" ry="18"/>
<text text-anchor="middle" x="206" y="-102.3" font-family="Times,serif" font-size="14.00">make</text>
</g>
<!-- Errors::invalid_state&#45;&gt;Errors::make -->
<g id="edge8" class="edge">
<title>Errors::invalid_state&#45;&gt;Errors::make</title>
<path fill="none" stroke="black" d="M97.2,-172.76C119.79,-159.11 152.93,-139.08 176.69,-124.71"/>
<polygon fill="black" stroke="black" points="178.55,-127.68 185.3,-119.51 174.93,-121.69 178.55,-127.68"/>
</g>
<!-- Errors::not_published&#45;&gt;Errors::make -->
<g id="edge9" class="edge">
<title>Errors::not_published&#45;&gt;Errors::make</title>
<path fill="none" stroke="black" d="M206,-170.82C206,-160.19 206,-146.31 206,-134.2"/>
<polygon fill="black" stroke="black" points="209.5,-134.15 206,-124.15 202.5,-134.15 209.5,-134.15"/>
</g>
<!-- Errors::invalid_argument -->
<g id="node10" class="node">
<title>Errors::invalid_argument</title>
<ellipse fill="none" stroke="black" cx="358" cy="-189" rx="73.39" ry="18"/>
<text text-anchor="middle" x="358" y="-185.3" font-family="Times,serif" font-size="14.00">invalid_argument</text>
</g>
<!-- Option::extract&#45;&gt;Errors::invalid_argument -->
<g id="edge10" class="edge">
<title>Option::extract&#45;&gt;Errors::invalid_argument</title>
<path fill="none" stroke="black" d="M467.66,-257.81C447.35,-245.24 416.42,-226.12 392.59,-211.39"/>
<polygon fill="black" stroke="black" points="394.18,-208.26 383.83,-205.97 390.5,-214.21 394.18,-208.26"/>
</g>
<!-- Vector::pop_back -->
<g id="node11" class="node">
<title>Vector::pop_back</title>
<ellipse fill="none" stroke="black" cx="500" cy="-106" rx="44.69" ry="18"/>
<text text-anchor="middle" x="500" y="-102.3" font-family="Times,serif" font-size="14.00">pop_back</text>
</g>
<!-- Option::extract&#45;&gt;Vector::pop_back -->
<g id="edge11" class="edge">
<title>Option::extract&#45;&gt;Vector::pop_back</title>
<path fill="none" stroke="black" d="M511.43,-258.22C526.21,-249.69 543.03,-239.72 544,-238 560.42,-208.99 554.9,-194.5 544,-163 539.87,-151.07 532.04,-139.75 524.11,-130.45"/>
<polygon fill="black" stroke="black" points="526.52,-127.89 517.21,-122.83 521.33,-132.59 526.52,-127.89"/>
</g>
<!-- Option::is_some -->
<g id="node12" class="node">
<title>Option::is_some</title>
<ellipse fill="none" stroke="black" cx="495" cy="-189" rx="40.09" ry="18"/>
<text text-anchor="middle" x="495" y="-185.3" font-family="Times,serif" font-size="14.00">is_some</text>
</g>
<!-- Option::extract&#45;&gt;Option::is_some -->
<g id="edge12" class="edge">
<title>Option::extract&#45;&gt;Option::is_some</title>
<path fill="none" stroke="black" d="M490.27,-253.82C491.06,-243.19 492.09,-229.31 492.98,-217.2"/>
<polygon fill="black" stroke="black" points="496.48,-217.38 493.73,-207.15 489.5,-216.87 496.48,-217.38"/>
</g>
<!-- delegated_withdraw_capability&#45;&gt;Errors::not_published -->
<g id="edge13" class="edge">
<title>delegated_withdraw_capability&#45;&gt;Errors::not_published</title>
<path fill="none" stroke="black" d="M467.1,-331.51C458.77,-328.56 450.52,-325.08 443,-321 398.13,-296.65 402.91,-266.14 356,-246 323.17,-231.9 309.56,-250.27 276,-238 260.26,-232.25 244.68,-222.13 232.24,-212.66"/>
<polygon fill="black" stroke="black" points="234.17,-209.73 224.16,-206.27 229.83,-215.22 234.17,-209.73"/>
</g>
<!-- delegated_withdraw_capability&#45;&gt;exists_at -->
<g id="edge15" class="edge">
<title>delegated_withdraw_capability&#45;&gt;exists_at</title>
<path fill="none" stroke="black" d="M602.81,-332.74C612.28,-329.61 621.58,-325.75 630,-321 640.69,-314.97 650.62,-305.9 658.65,-297.27"/>
<polygon fill="black" stroke="black" points="661.46,-299.37 665.45,-289.56 656.21,-294.74 661.46,-299.37"/>
</g>
<!-- Option::is_none -->
<g id="node13" class="node">
<title>Option::is_none</title>
<ellipse fill="none" stroke="black" cx="580" cy="-272" rx="38.19" ry="18"/>
<text text-anchor="middle" x="580" y="-268.3" font-family="Times,serif" font-size="14.00">is_none</text>
</g>
<!-- delegated_withdraw_capability&#45;&gt;Option::is_none -->
<g id="edge14" class="edge">
<title>delegated_withdraw_capability&#45;&gt;Option::is_none</title>
<path fill="none" stroke="black" d="M540.83,-329.07C547.36,-319.72 555.58,-307.95 562.81,-297.6"/>
<polygon fill="black" stroke="black" points="565.73,-299.54 568.59,-289.34 559.99,-295.53 565.73,-299.54"/>
</g>
<!-- Errors::invalid_argument&#45;&gt;Errors::make -->
<g id="edge16" class="edge">
<title>Errors::invalid_argument&#45;&gt;Errors::make</title>
<path fill="none" stroke="black" d="M328.69,-172.38C302.3,-158.32 263.64,-137.72 236.8,-123.41"/>
<polygon fill="black" stroke="black" points="238.31,-120.25 227.84,-118.64 235.02,-126.43 238.31,-120.25"/>
</g>
<!-- Vector::is_empty -->
<g id="node14" class="node">
<title>Vector::is_empty</title>
<ellipse fill="none" stroke="black" cx="606" cy="-106" rx="43.59" ry="18"/>
<text text-anchor="middle" x="606" y="-102.3" font-family="Times,serif" font-size="14.00">is_empty</text>
</g>
<!-- Option::is_some&#45;&gt;Vector::is_empty -->
<g id="edge17" class="edge">
<title>Option::is_some&#45;&gt;Vector::is_empty</title>
<path fill="none" stroke="black" d="M521.07,-175.13C531.64,-169.48 543.74,-162.44 554,-155 564.15,-147.63 574.48,-138.51 583.22,-130.2"/>
<polygon fill="black" stroke="black" points="585.72,-132.65 590.46,-123.17 580.85,-127.63 585.72,-132.65"/>
</g>
<!-- Option::is_none&#45;&gt;Vector::is_empty -->
<g id="edge18" class="edge">
<title>Option::is_none&#45;&gt;Vector::is_empty</title>
<path fill="none" stroke="black" d="M582.73,-253.76C587.25,-225.26 596.31,-168.12 601.69,-134.16"/>
<polygon fill="black" stroke="black" points="605.19,-134.43 603.3,-124.01 598.28,-133.34 605.19,-134.43"/>
</g>
<!-- Vector::length -->
<g id="node15" class="node">
<title>Vector::length</title>
<ellipse fill="none" stroke="black" cx="606" cy="-34" rx="32.49" ry="18"/>
<text text-anchor="middle" x="606" y="-30.3" font-family="Times,serif" font-size="14.00">length</text>
</g>
<!-- Vector::is_empty&#45;&gt;Vector::length -->
<g id="edge19" class="edge">
<title>Vector::is_empty&#45;&gt;Vector::length</title>
<path fill="none" stroke="black" d="M606,-87.7C606,-79.98 606,-70.71 606,-62.11"/>
<polygon fill="black" stroke="black" points="609.5,-62.1 606,-52.1 602.5,-62.1 609.5,-62.1"/>
</g>
</g>
</svg>
