<?xml version="1.0" encoding="UTF-8" standalone="no"?>
<!DOCTYPE svg PUBLIC "-//W3C//DTD SVG 1.1//EN"
 "http://www.w3.org/Graphics/SVG/1.1/DTD/svg11.dtd">
<!-- Generated by graphviz version 2.46.1 (20210213.1702)
 -->
<!-- Title: G Pages: 1 -->
<svg width="440pt" height="282pt"
 viewBox="0.00 0.00 440.00 282.00" xmlns="http://www.w3.org/2000/svg" xmlns:xlink="http://www.w3.org/1999/xlink">
<g id="graph0" class="graph" transform="scale(1 1) rotate(0) translate(4 278)">
<title>G</title>
<polygon fill="white" stroke="transparent" points="-4,4 -4,-278 436,-278 436,4 -4,4"/>
<g id="clust1" class="cluster">
<title>cluster_CoreAddresses</title>
<polygon fill="none" stroke="black" points="8,-8 8,-83 280,-83 280,-8 8,-8"/>
<text text-anchor="middle" x="144" y="-67.8" font-family="Times,serif" font-size="14.00">CoreAddresses</text>
</g>
<g id="clust2" class="cluster">
<title>cluster_Errors</title>
<polygon fill="none" stroke="black" points="288,-8 288,-158 424,-158 424,-8 288,-8"/>
<text text-anchor="middle" x="356" y="-142.8" font-family="Times,serif" font-size="14.00">Errors</text>
</g>
<!-- xdx_exchange_rate -->
<g id="node1" class="node">
<title>xdx_exchange_rate</title>
<ellipse fill="none" stroke="black" cx="196" cy="-256" rx="79.09" ry="18"/>
<text text-anchor="middle" x="196" y="-252.3" font-family="Times,serif" font-size="14.00">xdx_exchange_rate</text>
</g>
<!-- CoreAddresses::CURRENCY_INFO_ADDRESS -->
<g id="node2" class="node">
<title>CoreAddresses::CURRENCY_INFO_ADDRESS</title>
<ellipse fill="none" stroke="black" cx="144" cy="-34" rx="128.08" ry="18"/>
<text text-anchor="middle" x="144" y="-30.3" font-family="Times,serif" font-size="14.00">CURRENCY_INFO_ADDRESS</text>
</g>
<!-- xdx_exchange_rate&#45;&gt;CoreAddresses::CURRENCY_INFO_ADDRESS -->
<g id="edge1" class="edge">
<title>xdx_exchange_rate&#45;&gt;CoreAddresses::CURRENCY_INFO_ADDRESS</title>
<path fill="none" stroke="black" d="M182.59,-237.86C175.56,-227.94 167.49,-214.9 163,-202 146.55,-154.75 143.61,-95.89 143.46,-62.16"/>
<polygon fill="black" stroke="black" points="146.96,-62.15 143.5,-52.14 139.96,-62.12 146.96,-62.15"/>
</g>
<!-- assert_is_currency -->
<g id="node3" class="node">
<title>assert_is_currency</title>
<ellipse fill="none" stroke="black" cx="248" cy="-184" rx="76.09" ry="18"/>
<text text-anchor="middle" x="248" y="-180.3" font-family="Times,serif" font-size="14.00">assert_is_currency</text>
</g>
<!-- xdx_exchange_rate&#45;&gt;assert_is_currency -->
<g id="edge2" class="edge">
<title>xdx_exchange_rate&#45;&gt;assert_is_currency</title>
<path fill="none" stroke="black" d="M208.59,-238.05C214.85,-229.63 222.54,-219.28 229.45,-209.97"/>
<polygon fill="black" stroke="black" points="232.37,-211.9 235.53,-201.79 226.76,-207.73 232.37,-211.9"/>
</g>
<!-- Errors::not_published -->
<g id="node4" class="node">
<title>Errors::not_published</title>
<ellipse fill="none" stroke="black" cx="356" cy="-109" rx="60.39" ry="18"/>
<text text-anchor="middle" x="356" y="-105.3" font-family="Times,serif" font-size="14.00">not_published</text>
</g>
<!-- assert_is_currency&#45;&gt;Errors::not_published -->
<g id="edge3" class="edge">
<title>assert_is_currency&#45;&gt;Errors::not_published</title>
<path fill="none" stroke="black" d="M272.58,-166.93C277.05,-163.98 281.67,-160.91 286,-158 298.7,-149.47 312.61,-139.97 324.66,-131.68"/>
<polygon fill="black" stroke="black" points="326.81,-134.45 333.06,-125.89 322.84,-128.68 326.81,-134.45"/>
</g>
<!-- is_currency -->
<g id="node5" class="node">
<title>is_currency</title>
<ellipse fill="none" stroke="black" cx="225" cy="-109" rx="51.99" ry="18"/>
<text text-anchor="middle" x="225" y="-105.3" font-family="Times,serif" font-size="14.00">is_currency</text>
</g>
<!-- assert_is_currency&#45;&gt;is_currency -->
<g id="edge4" class="edge">
<title>assert_is_currency&#45;&gt;is_currency</title>
<path fill="none" stroke="black" d="M242.55,-165.7C239.81,-157 236.43,-146.27 233.37,-136.55"/>
<polygon fill="black" stroke="black" points="236.68,-135.41 230.33,-126.92 230,-137.51 236.68,-135.41"/>
</g>
<!-- Errors::make -->
<g id="node6" class="node">
<title>Errors::make</title>
<ellipse fill="none" stroke="black" cx="356" cy="-34" rx="30.59" ry="18"/>
<text text-anchor="middle" x="356" y="-30.3" font-family="Times,serif" font-size="14.00">make</text>
</g>
<!-- Errors::not_published&#45;&gt;Errors::make -->
<g id="edge5" class="edge">
<title>Errors::not_published&#45;&gt;Errors::make</title>
<path fill="none" stroke="black" d="M356,-90.7C356,-82.25 356,-71.87 356,-62.37"/>
<polygon fill="black" stroke="black" points="359.5,-62.18 356,-52.18 352.5,-62.18 359.5,-62.18"/>
</g>
<!-- is_currency&#45;&gt;CoreAddresses::CURRENCY_INFO_ADDRESS -->
<g id="edge6" class="edge">
<title>is_currency&#45;&gt;CoreAddresses::CURRENCY_INFO_ADDRESS</title>
<path fill="none" stroke="black" d="M207.02,-91.8C196.24,-82.08 182.34,-69.55 170.33,-58.73"/>
<polygon fill="black" stroke="black" points="172.54,-56.01 162.77,-51.92 167.86,-61.21 172.54,-56.01"/>
</g>
</g>
</svg>
