<?xml version="1.0" encoding="UTF-8" standalone="no"?>
<!DOCTYPE svg PUBLIC "-//W3C//DTD SVG 1.1//EN"
 "http://www.w3.org/Graphics/SVG/1.1/DTD/svg11.dtd">
<!-- Generated by graphviz version 2.46.1 (20210213.1702)
 -->
<!-- Title: G Pages: 1 -->
<svg width="1178pt" height="437pt"
 viewBox="0.00 0.00 1178.00 437.00" xmlns="http://www.w3.org/2000/svg" xmlns:xlink="http://www.w3.org/1999/xlink">
<g id="graph0" class="graph" transform="scale(1 1) rotate(0) translate(4 433)">
<title>G</title>
<polygon fill="white" stroke="transparent" points="-4,4 -4,-433 1174,-433 1174,4 -4,4"/>
<g id="clust1" class="cluster">
<title>cluster_Errors</title>
<polygon fill="none" stroke="black" points="8,-8 8,-158 586,-158 586,-8 8,-8"/>
<text text-anchor="middle" x="297" y="-142.8" font-family="Times,serif" font-size="14.00">Errors</text>
</g>
<g id="clust2" class="cluster">
<title>cluster_CoreAddresses</title>
<polygon fill="none" stroke="black" points="890,-8 890,-83 1162,-83 1162,-8 890,-8"/>
<text text-anchor="middle" x="1026" y="-67.8" font-family="Times,serif" font-size="14.00">CoreAddresses</text>
</g>
<g id="clust3" class="cluster">
<title>cluster_Event</title>
<polygon fill="none" stroke="black" points="498,-166 498,-313 684,-313 684,-166 498,-166"/>
<text text-anchor="middle" x="591" y="-297.8" font-family="Times,serif" font-size="14.00">Event</text>
</g>
<!-- burn_now -->
<g id="node1" class="node">
<title>burn_now</title>
<ellipse fill="none" stroke="black" cx="402" cy="-411" rx="46.29" ry="18"/>
<text text-anchor="middle" x="402" y="-407.3" font-family="Times,serif" font-size="14.00">burn_now</text>
</g>
<!-- Errors::invalid_argument -->
<g id="node2" class="node">
<title>Errors::invalid_argument</title>
<ellipse fill="none" stroke="black" cx="89" cy="-109" rx="73.39" ry="18"/>
<text text-anchor="middle" x="89" y="-105.3" font-family="Times,serif" font-size="14.00">invalid_argument</text>
</g>
<!-- burn_now&#45;&gt;Errors::invalid_argument -->
<g id="edge1" class="edge">
<title>burn_now&#45;&gt;Errors::invalid_argument</title>
<path fill="none" stroke="black" d="M369.14,-398.35C330.27,-383.32 265.28,-354.13 221,-313 164.11,-260.16 120.6,-177.9 100.78,-136.18"/>
<polygon fill="black" stroke="black" points="103.88,-134.54 96.47,-126.96 97.53,-137.5 103.88,-134.54"/>
</g>
<!-- burn_with_resource_cap -->
<g id="node3" class="node">
<title>burn_with_resource_cap</title>
<ellipse fill="none" stroke="black" cx="829" cy="-339" rx="97.48" ry="18"/>
<text text-anchor="middle" x="829" y="-335.3" font-family="Times,serif" font-size="14.00">burn_with_resource_cap</text>
</g>
<!-- burn_now&#45;&gt;burn_with_resource_cap -->
<g id="edge2" class="edge">
<title>burn_now&#45;&gt;burn_with_resource_cap</title>
<path fill="none" stroke="black" d="M443.72,-403.16C514.21,-391.6 658.04,-368.03 748.64,-353.17"/>
<polygon fill="black" stroke="black" points="749.3,-356.61 758.6,-351.54 748.16,-349.71 749.3,-356.61"/>
</g>
<!-- preburn_with_resource -->
<g id="node4" class="node">
<title>preburn_with_resource</title>
<ellipse fill="none" stroke="black" cx="402" cy="-339" rx="92.08" ry="18"/>
<text text-anchor="middle" x="402" y="-335.3" font-family="Times,serif" font-size="14.00">preburn_with_resource</text>
</g>
<!-- burn_now&#45;&gt;preburn_with_resource -->
<g id="edge3" class="edge">
<title>burn_now&#45;&gt;preburn_with_resource</title>
<path fill="none" stroke="black" d="M402,-392.7C402,-384.98 402,-375.71 402,-367.11"/>
<polygon fill="black" stroke="black" points="405.5,-367.1 402,-357.1 398.5,-367.1 405.5,-367.1"/>
</g>
<!-- Errors::make -->
<g id="node5" class="node">
<title>Errors::make</title>
<ellipse fill="none" stroke="black" cx="305" cy="-34" rx="30.59" ry="18"/>
<text text-anchor="middle" x="305" y="-30.3" font-family="Times,serif" font-size="14.00">make</text>
</g>
<!-- Errors::invalid_argument&#45;&gt;Errors::make -->
<g id="edge4" class="edge">
<title>Errors::invalid_argument&#45;&gt;Errors::make</title>
<path fill="none" stroke="black" d="M130.39,-94.01C170.65,-80.41 231.16,-59.95 269.34,-47.05"/>
<polygon fill="black" stroke="black" points="270.66,-50.3 279.01,-43.78 268.42,-43.67 270.66,-50.3"/>
</g>
<!-- Errors::invalid_state -->
<g id="node6" class="node">
<title>Errors::invalid_state</title>
<ellipse fill="none" stroke="black" cx="236" cy="-109" rx="55.79" ry="18"/>
<text text-anchor="middle" x="236" y="-105.3" font-family="Times,serif" font-size="14.00">invalid_state</text>
</g>
<!-- burn_with_resource_cap&#45;&gt;Errors::invalid_state -->
<g id="edge5" class="edge">
<title>burn_with_resource_cap&#45;&gt;Errors::invalid_state</title>
<path fill="none" stroke="black" d="M755.97,-327.07C740.28,-323.4 726.7,-318.73 721,-313 673.81,-265.5 739.84,-208.38 688,-166 671.35,-152.39 321.36,-164.94 301,-158 285.83,-152.83 271.25,-142.71 259.76,-133.09"/>
<polygon fill="black" stroke="black" points="261.8,-130.23 251.97,-126.26 257.18,-135.48 261.8,-130.23"/>
</g>
<!-- Errors::limit_exceeded -->
<g id="node7" class="node">
<title>Errors::limit_exceeded</title>
<ellipse fill="none" stroke="black" cx="375" cy="-109" rx="64.99" ry="18"/>
<text text-anchor="middle" x="375" y="-105.3" font-family="Times,serif" font-size="14.00">limit_exceeded</text>
</g>
<!-- burn_with_resource_cap&#45;&gt;Errors::limit_exceeded -->
<g id="edge6" class="edge">
<title>burn_with_resource_cap&#45;&gt;Errors::limit_exceeded</title>
<path fill="none" stroke="black" d="M848.21,-321.2C850.15,-318.66 851.83,-315.9 853,-313 877.59,-251.88 885.26,-207.38 834,-166 817.35,-152.56 469.45,-164.28 449,-158 431.95,-152.76 415.09,-142.35 401.79,-132.56"/>
<polygon fill="black" stroke="black" points="403.65,-129.58 393.59,-126.28 399.4,-135.14 403.65,-129.58"/>
</g>
<!-- CoreAddresses::CURRENCY_INFO_ADDRESS -->
<g id="node8" class="node">
<title>CoreAddresses::CURRENCY_INFO_ADDRESS</title>
<ellipse fill="none" stroke="black" cx="1026" cy="-34" rx="128.08" ry="18"/>
<text text-anchor="middle" x="1026" y="-30.3" font-family="Times,serif" font-size="14.00">CURRENCY_INFO_ADDRESS</text>
</g>
<!-- burn_with_resource_cap&#45;&gt;CoreAddresses::CURRENCY_INFO_ADDRESS -->
<g id="edge7" class="edge">
<title>burn_with_resource_cap&#45;&gt;CoreAddresses::CURRENCY_INFO_ADDRESS</title>
<path fill="none" stroke="black" d="M921.12,-333.02C978.54,-329.01 1043.31,-322.47 1053,-313 1123.76,-243.92 1099.27,-184.82 1068,-91 1064.23,-79.7 1057.2,-68.85 1049.94,-59.75"/>
<polygon fill="black" stroke="black" points="1052.45,-57.29 1043.31,-51.93 1047.11,-61.82 1052.45,-57.29"/>
</g>
<!-- Event::emit_event -->
<g id="node9" class="node">
<title>Event::emit_event</title>
<ellipse fill="none" stroke="black" cx="591" cy="-264" rx="50.09" ry="18"/>
<text text-anchor="middle" x="591" y="-260.3" font-family="Times,serif" font-size="14.00">emit_event</text>
</g>
<!-- burn_with_resource_cap&#45;&gt;Event::emit_event -->
<g id="edge8" class="edge">
<title>burn_with_resource_cap&#45;&gt;Event::emit_event</title>
<path fill="none" stroke="black" d="M750.82,-328.2C730.1,-324.51 707.96,-319.56 688,-313 666.11,-305.81 642.94,-294.49 624.73,-284.65"/>
<polygon fill="black" stroke="black" points="626.14,-281.44 615.69,-279.67 622.76,-287.57 626.14,-281.44"/>
</g>
<!-- currency_code -->
<g id="node10" class="node">
<title>currency_code</title>
<ellipse fill="none" stroke="black" cx="962" cy="-264" rx="62.29" ry="18"/>
<text text-anchor="middle" x="962" y="-260.3" font-family="Times,serif" font-size="14.00">currency_code</text>
</g>
<!-- burn_with_resource_cap&#45;&gt;currency_code -->
<g id="edge9" class="edge">
<title>burn_with_resource_cap&#45;&gt;currency_code</title>
<path fill="none" stroke="black" d="M866.79,-322.38C873.28,-319.43 879.89,-316.24 886,-313 901.04,-305.01 917.06,-295.11 930.5,-286.39"/>
<polygon fill="black" stroke="black" points="932.49,-289.27 938.92,-280.85 928.64,-283.42 932.49,-289.27"/>
</g>
<!-- assert_is_currency -->
<g id="node11" class="node">
<title>assert_is_currency</title>
<ellipse fill="none" stroke="black" cx="962" cy="-192" rx="76.09" ry="18"/>
<text text-anchor="middle" x="962" y="-188.3" font-family="Times,serif" font-size="14.00">assert_is_currency</text>
</g>
<!-- burn_with_resource_cap&#45;&gt;assert_is_currency -->
<g id="edge10" class="edge">
<title>burn_with_resource_cap&#45;&gt;assert_is_currency</title>
<path fill="none" stroke="black" d="M919.87,-332.36C970.59,-328.26 1025.15,-321.87 1033,-313 1052.73,-290.7 1046.35,-272.62 1033,-246 1026.45,-232.94 1015,-222.28 1003.17,-214.03"/>
<polygon fill="black" stroke="black" points="1004.86,-210.95 994.56,-208.45 1001.05,-216.83 1004.86,-210.95"/>
</g>
<!-- withdraw_all -->
<g id="node12" class="node">
<title>withdraw_all</title>
<ellipse fill="none" stroke="black" cx="787" cy="-264" rx="57.39" ry="18"/>
<text text-anchor="middle" x="787" y="-260.3" font-family="Times,serif" font-size="14.00">withdraw_all</text>
</g>
<!-- burn_with_resource_cap&#45;&gt;withdraw_all -->
<g id="edge11" class="edge">
<title>burn_with_resource_cap&#45;&gt;withdraw_all</title>
<path fill="none" stroke="black" d="M819.26,-321.07C814.06,-312.04 807.56,-300.74 801.76,-290.66"/>
<polygon fill="black" stroke="black" points="804.71,-288.76 796.69,-281.84 798.64,-292.25 804.71,-288.76"/>
</g>
<!-- preburn_with_resource&#45;&gt;Errors::invalid_state -->
<g id="edge12" class="edge">
<title>preburn_with_resource&#45;&gt;Errors::invalid_state</title>
<path fill="none" stroke="black" d="M316.16,-332.25C289.14,-328.61 263.98,-322.68 255,-313 210.41,-264.93 220.4,-180.15 229.33,-136.94"/>
<polygon fill="black" stroke="black" points="232.75,-137.67 231.49,-127.15 225.92,-136.16 232.75,-137.67"/>
</g>
<!-- preburn_with_resource&#45;&gt;Errors::limit_exceeded -->
<g id="edge13" class="edge">
<title>preburn_with_resource&#45;&gt;Errors::limit_exceeded</title>
<path fill="none" stroke="black" d="M391.16,-320.96C389.9,-318.37 388.79,-315.67 388,-313 370.03,-252.17 370.88,-176.77 372.98,-137.19"/>
<polygon fill="black" stroke="black" points="376.49,-137.21 373.59,-127.02 369.5,-136.79 376.49,-137.21"/>
</g>
<!-- preburn_with_resource&#45;&gt;CoreAddresses::CURRENCY_INFO_ADDRESS -->
<g id="edge14" class="edge">
<title>preburn_with_resource&#45;&gt;CoreAddresses::CURRENCY_INFO_ADDRESS</title>
<path fill="none" stroke="black" d="M402.83,-320.83C404.36,-301.64 408.7,-270.12 421,-246 442.87,-203.12 450.81,-187.24 494,-166 513.21,-156.55 568.93,-161.81 590,-158 729.81,-132.7 889.42,-81.85 971.26,-54.12"/>
<polygon fill="black" stroke="black" points="972.51,-57.39 980.85,-50.85 970.26,-50.76 972.51,-57.39"/>
</g>
<!-- preburn_with_resource&#45;&gt;Event::emit_event -->
<g id="edge15" class="edge">
<title>preburn_with_resource&#45;&gt;Event::emit_event</title>
<path fill="none" stroke="black" d="M460.9,-325.12C473.63,-321.7 486.9,-317.64 499,-313 519.01,-305.32 540.29,-294.41 557.34,-284.93"/>
<polygon fill="black" stroke="black" points="559.36,-287.81 566.34,-279.84 555.91,-281.72 559.36,-287.81"/>
</g>
<!-- preburn_with_resource&#45;&gt;currency_code -->
<g id="edge17" class="edge">
<title>preburn_with_resource&#45;&gt;currency_code</title>
<path fill="none" stroke="black" d="M489.77,-333.33C619.74,-326.39 848.64,-314.05 853,-313 878.28,-306.94 905.03,-295.26 925.7,-284.93"/>
<polygon fill="black" stroke="black" points="927.43,-287.98 934.74,-280.31 924.24,-281.74 927.43,-287.98"/>
</g>
<!-- value -->
<g id="node13" class="node">
<title>value</title>
<ellipse fill="none" stroke="black" cx="460" cy="-264" rx="29.8" ry="18"/>
<text text-anchor="middle" x="460" y="-260.3" font-family="Times,serif" font-size="14.00">value</text>
</g>
<!-- preburn_with_resource&#45;&gt;value -->
<g id="edge16" class="edge">
<title>preburn_with_resource&#45;&gt;value</title>
<path fill="none" stroke="black" d="M415.45,-321.07C423.06,-311.5 432.69,-299.38 441.05,-288.86"/>
<polygon fill="black" stroke="black" points="443.93,-290.85 447.41,-280.84 438.45,-286.49 443.93,-290.85"/>
</g>
<!-- deposit -->
<g id="node14" class="node">
<title>deposit</title>
<ellipse fill="none" stroke="black" cx="300" cy="-264" rx="36.29" ry="18"/>
<text text-anchor="middle" x="300" y="-260.3" font-family="Times,serif" font-size="14.00">deposit</text>
</g>
<!-- preburn_with_resource&#45;&gt;deposit -->
<g id="edge18" class="edge">
<title>preburn_with_resource&#45;&gt;deposit</title>
<path fill="none" stroke="black" d="M365.64,-322.36C360.24,-319.51 354.86,-316.37 350,-313 339.86,-305.96 329.81,-296.86 321.42,-288.47"/>
<polygon fill="black" stroke="black" points="323.69,-285.79 314.22,-281.05 318.67,-290.66 323.69,-285.79"/>
</g>
<!-- Errors::invalid_state&#45;&gt;Errors::make -->
<g id="edge19" class="edge">
<title>Errors::invalid_state&#45;&gt;Errors::make</title>
<path fill="none" stroke="black" d="M251.66,-91.44C261.13,-81.42 273.33,-68.5 283.68,-57.56"/>
<polygon fill="black" stroke="black" points="286.49,-59.68 290.81,-50.01 281.4,-54.87 286.49,-59.68"/>
</g>
<!-- Errors::limit_exceeded&#45;&gt;Errors::make -->
<g id="edge20" class="edge">
<title>Errors::limit_exceeded&#45;&gt;Errors::make</title>
<path fill="none" stroke="black" d="M359.12,-91.44C349.41,-81.32 336.89,-68.25 326.33,-57.24"/>
<polygon fill="black" stroke="black" points="328.84,-54.8 319.39,-50.01 323.79,-59.65 328.84,-54.8"/>
</g>
<!-- Event::write_to_event_store -->
<g id="node15" class="node">
<title>Event::write_to_event_store</title>
<ellipse fill="none" stroke="black" cx="591" cy="-192" rx="85.29" ry="18"/>
<text text-anchor="middle" x="591" y="-188.3" font-family="Times,serif" font-size="14.00">write_to_event_store</text>
</g>
<!-- Event::emit_event&#45;&gt;Event::write_to_event_store -->
<g id="edge21" class="edge">
<title>Event::emit_event&#45;&gt;Event::write_to_event_store</title>
<path fill="none" stroke="black" d="M591,-245.7C591,-237.98 591,-228.71 591,-220.11"/>
<polygon fill="black" stroke="black" points="594.5,-220.1 591,-210.1 587.5,-220.1 594.5,-220.1"/>
</g>
<!-- currency_code&#45;&gt;CoreAddresses::CURRENCY_INFO_ADDRESS -->
<g id="edge22" class="edge">
<title>currency_code&#45;&gt;CoreAddresses::CURRENCY_INFO_ADDRESS</title>
<path fill="none" stroke="black" d="M999.91,-249.47C1017.56,-241.03 1036.87,-228.25 1047,-210 1073.19,-162.8 1053.31,-97.55 1038.42,-61.54"/>
<polygon fill="black" stroke="black" points="1041.57,-59.99 1034.4,-52.2 1035.14,-62.77 1041.57,-59.99"/>
</g>
<!-- currency_code&#45;&gt;assert_is_currency -->
<g id="edge23" class="edge">
<title>currency_code&#45;&gt;assert_is_currency</title>
<path fill="none" stroke="black" d="M962,-245.7C962,-237.98 962,-228.71 962,-220.11"/>
<polygon fill="black" stroke="black" points="965.5,-220.1 962,-210.1 958.5,-220.1 965.5,-220.1"/>
</g>
<!-- Errors::not_published -->
<g id="node16" class="node">
<title>Errors::not_published</title>
<ellipse fill="none" stroke="black" cx="518" cy="-109" rx="60.39" ry="18"/>
<text text-anchor="middle" x="518" y="-105.3" font-family="Times,serif" font-size="14.00">not_published</text>
</g>
<!-- assert_is_currency&#45;&gt;Errors::not_published -->
<g id="edge24" class="edge">
<title>assert_is_currency&#45;&gt;Errors::not_published</title>
<path fill="none" stroke="black" d="M916.93,-177.39C902.65,-173.38 886.74,-169.2 872,-166 772.03,-144.28 654.45,-127.36 583.12,-118.03"/>
<polygon fill="black" stroke="black" points="583.31,-114.53 572.94,-116.71 582.41,-121.47 583.31,-114.53"/>
</g>
<!-- is_currency -->
<g id="node17" class="node">
<title>is_currency</title>
<ellipse fill="none" stroke="black" cx="974" cy="-109" rx="51.99" ry="18"/>
<text text-anchor="middle" x="974" y="-105.3" font-family="Times,serif" font-size="14.00">is_currency</text>
</g>
<!-- assert_is_currency&#45;&gt;is_currency -->
<g id="edge25" class="edge">
<title>assert_is_currency&#45;&gt;is_currency</title>
<path fill="none" stroke="black" d="M964.54,-173.82C966.12,-163.19 968.18,-149.31 969.97,-137.2"/>
<polygon fill="black" stroke="black" points="973.46,-137.56 971.46,-127.15 966.53,-136.53 973.46,-137.56"/>
</g>
<!-- withdraw -->
<g id="node18" class="node">
<title>withdraw</title>
<ellipse fill="none" stroke="black" cx="781" cy="-192" rx="44.39" ry="18"/>
<text text-anchor="middle" x="781" y="-188.3" font-family="Times,serif" font-size="14.00">withdraw</text>
</g>
<!-- withdraw_all&#45;&gt;withdraw -->
<g id="edge26" class="edge">
<title>withdraw_all&#45;&gt;withdraw</title>
<path fill="none" stroke="black" d="M785.52,-245.7C784.86,-237.98 784.06,-228.71 783.32,-220.11"/>
<polygon fill="black" stroke="black" points="786.81,-219.77 782.47,-210.1 779.83,-220.37 786.81,-219.77"/>
</g>
<!-- deposit&#45;&gt;Errors::limit_exceeded -->
<g id="edge27" class="edge">
<title>deposit&#45;&gt;Errors::limit_exceeded</title>
<path fill="none" stroke="black" d="M308.17,-246.34C321.17,-219.8 346.69,-167.74 362.16,-136.19"/>
<polygon fill="black" stroke="black" points="365.35,-137.63 366.61,-127.11 359.07,-134.55 365.35,-137.63"/>
</g>
<!-- Errors::not_published&#45;&gt;Errors::make -->
<g id="edge28" class="edge">
<title>Errors::not_published&#45;&gt;Errors::make</title>
<path fill="none" stroke="black" d="M479.92,-94.95C440.38,-81.4 379.01,-60.36 340.46,-47.15"/>
<polygon fill="black" stroke="black" points="341.3,-43.74 330.71,-43.81 339.03,-50.36 341.3,-43.74"/>
</g>
<!-- is_currency&#45;&gt;CoreAddresses::CURRENCY_INFO_ADDRESS -->
<g id="edge29" class="edge">
<title>is_currency&#45;&gt;CoreAddresses::CURRENCY_INFO_ADDRESS</title>
<path fill="none" stroke="black" d="M985.8,-91.44C992.35,-82.23 1000.65,-70.59 1007.99,-60.28"/>
<polygon fill="black" stroke="black" points="1010.94,-62.18 1013.89,-52.01 1005.23,-58.12 1010.94,-62.18"/>
</g>
<!-- withdraw&#45;&gt;Errors::limit_exceeded -->
<g id="edge30" class="edge">
<title>withdraw&#45;&gt;Errors::limit_exceeded</title>
<path fill="none" stroke="black" d="M753.73,-177.78C742.87,-173.15 730.1,-168.5 718,-166 659.43,-153.9 506.09,-175.82 449,-158 432.09,-152.72 415.36,-142.42 402.09,-132.7"/>
<polygon fill="black" stroke="black" points="403.98,-129.74 393.91,-126.46 399.74,-135.31 403.98,-129.74"/>
</g>
</g>
</svg>
