<?xml version="1.0" encoding="UTF-8" standalone="no"?>
<!DOCTYPE svg PUBLIC "-//W3C//DTD SVG 1.1//EN"
 "http://www.w3.org/Graphics/SVG/1.1/DTD/svg11.dtd">
<!-- Generated by graphviz version 2.46.1 (20210213.1702)
 -->
<!-- Title: G Pages: 1 -->
<svg width="1639pt" height="520pt"
 viewBox="0.00 0.00 1639.00 520.00" xmlns="http://www.w3.org/2000/svg" xmlns:xlink="http://www.w3.org/1999/xlink">
<g id="graph0" class="graph" transform="scale(1 1) rotate(0) translate(4 516)">
<title>G</title>
<polygon fill="white" stroke="transparent" points="-4,4 -4,-516 1635,-516 1635,4 -4,4"/>
<g id="clust1" class="cluster">
<title>cluster_Roles</title>
<polygon fill="none" stroke="black" points="945,-246 945,-321 1103,-321 1103,-246 945,-246"/>
<text text-anchor="middle" x="1024" y="-305.8" font-family="Times,serif" font-size="14.00">Roles</text>
</g>
<g id="clust2" class="cluster">
<title>cluster_DiemConfig</title>
<polygon fill="none" stroke="black" points="1111,-246 1111,-468 1319,-468 1319,-246 1111,-246"/>
<text text-anchor="middle" x="1215" y="-452.8" font-family="Times,serif" font-size="14.00">DiemConfig</text>
</g>
<g id="clust3" class="cluster">
<title>cluster_Signer</title>
<polygon fill="none" stroke="black" points="1473,-8 1473,-155 1623,-155 1623,-8 1473,-8"/>
<text text-anchor="middle" x="1548" y="-139.8" font-family="Times,serif" font-size="14.00">Signer</text>
</g>
<g id="clust4" class="cluster">
<title>cluster_Errors</title>
<polygon fill="none" stroke="black" points="496,-8 496,-155 1227,-155 1227,-8 496,-8"/>
<text text-anchor="middle" x="861.5" y="-139.8" font-family="Times,serif" font-size="14.00">Errors</text>
</g>
<g id="clust5" class="cluster">
<title>cluster_CoreAddresses</title>
<polygon fill="none" stroke="black" points="1235,-80 1235,-238 1465,-238 1465,-80 1235,-80"/>
<text text-anchor="middle" x="1350" y="-222.8" font-family="Times,serif" font-size="14.00">CoreAddresses</text>
</g>
<g id="clust6" class="cluster">
<title>cluster_DiemTimestamp</title>
<polygon fill="none" stroke="black" points="202,-80 202,-321 488,-321 488,-80 202,-80"/>
<text text-anchor="middle" x="345" y="-305.8" font-family="Times,serif" font-size="14.00">DiemTimestamp</text>
</g>
<g id="clust7" class="cluster">
<title>cluster_Event</title>
<polygon fill="none" stroke="black" points="8,-163 8,-321 194,-321 194,-163 8,-163"/>
<text text-anchor="middle" x="101" y="-305.8" font-family="Times,serif" font-size="14.00">Event</text>
</g>
<!-- set_open_module -->
<g id="node1" class="node">
<title>set_open_module</title>
<ellipse fill="none" stroke="black" cx="1146" cy="-494" rx="73.39" ry="18"/>
<text text-anchor="middle" x="1146" y="-490.3" font-family="Times,serif" font-size="14.00">set_open_module</text>
</g>
<!-- Roles::assert_diem_root -->
<g id="node2" class="node">
<title>Roles::assert_diem_root</title>
<ellipse fill="none" stroke="black" cx="1024" cy="-272" rx="71.49" ry="18"/>
<text text-anchor="middle" x="1024" y="-268.3" font-family="Times,serif" font-size="14.00">assert_diem_root</text>
</g>
<!-- set_open_module&#45;&gt;Roles::assert_diem_root -->
<g id="edge1" class="edge">
<title>set_open_module&#45;&gt;Roles::assert_diem_root</title>
<path fill="none" stroke="black" d="M1117.1,-477.36C1113.41,-474.57 1109.91,-471.44 1107,-468 1063.95,-417.05 1040.25,-340.46 1030.08,-300.11"/>
<polygon fill="black" stroke="black" points="1033.43,-299.09 1027.67,-290.2 1026.63,-300.74 1033.43,-299.09"/>
</g>
<!-- DiemConfig::set -->
<g id="node3" class="node">
<title>DiemConfig::set</title>
<ellipse fill="none" stroke="black" cx="1218" cy="-419" rx="27" ry="18"/>
<text text-anchor="middle" x="1218" y="-415.3" font-family="Times,serif" font-size="14.00">set</text>
</g>
<!-- set_open_module&#45;&gt;DiemConfig::set -->
<g id="edge2" class="edge">
<title>set_open_module&#45;&gt;DiemConfig::set</title>
<path fill="none" stroke="black" d="M1171.21,-477.05C1174.99,-474.23 1178.71,-471.17 1182,-468 1189.27,-460.99 1196.2,-452.41 1202,-444.45"/>
<polygon fill="black" stroke="black" points="1204.93,-446.35 1207.81,-436.16 1199.2,-442.33 1204.93,-446.35"/>
</g>
<!-- DiemConfig::get -->
<g id="node4" class="node">
<title>DiemConfig::get</title>
<ellipse fill="none" stroke="black" cx="1146" cy="-419" rx="27" ry="18"/>
<text text-anchor="middle" x="1146" y="-415.3" font-family="Times,serif" font-size="14.00">get</text>
</g>
<!-- set_open_module&#45;&gt;DiemConfig::get -->
<g id="edge3" class="edge">
<title>set_open_module&#45;&gt;DiemConfig::get</title>
<path fill="none" stroke="black" d="M1146,-475.7C1146,-467.25 1146,-456.87 1146,-447.37"/>
<polygon fill="black" stroke="black" points="1149.5,-447.18 1146,-437.18 1142.5,-447.18 1149.5,-447.18"/>
</g>
<!-- Signer::address_of -->
<g id="node5" class="node">
<title>Signer::address_of</title>
<ellipse fill="none" stroke="black" cx="1539" cy="-106" rx="48.99" ry="18"/>
<text text-anchor="middle" x="1539" y="-102.3" font-family="Times,serif" font-size="14.00">address_of</text>
</g>
<!-- Roles::assert_diem_root&#45;&gt;Signer::address_of -->
<g id="edge4" class="edge">
<title>Roles::assert_diem_root&#45;&gt;Signer::address_of</title>
<path fill="none" stroke="black" d="M1063.18,-256.83C1076.86,-252.52 1092.43,-248.31 1107,-246 1126.87,-242.85 1451.86,-248.53 1469,-238 1506.3,-215.07 1524.92,-164.93 1533.22,-133.76"/>
<polygon fill="black" stroke="black" points="1536.64,-134.53 1535.66,-123.98 1529.85,-132.84 1536.64,-134.53"/>
</g>
<!-- Errors::not_published -->
<g id="node6" class="node">
<title>Errors::not_published</title>
<ellipse fill="none" stroke="black" cx="868" cy="-106" rx="60.39" ry="18"/>
<text text-anchor="middle" x="868" y="-102.3" font-family="Times,serif" font-size="14.00">not_published</text>
</g>
<!-- Roles::assert_diem_root&#45;&gt;Errors::not_published -->
<g id="edge5" class="edge">
<title>Roles::assert_diem_root&#45;&gt;Errors::not_published</title>
<path fill="none" stroke="black" d="M1012.46,-253.9C997.07,-231.71 968.34,-192.37 939,-163 926.8,-150.79 911.99,-138.74 899.06,-128.97"/>
<polygon fill="black" stroke="black" points="900.99,-126.04 890.88,-122.89 896.82,-131.66 900.99,-126.04"/>
</g>
<!-- Errors::requires_role -->
<g id="node7" class="node">
<title>Errors::requires_role</title>
<ellipse fill="none" stroke="black" cx="1004" cy="-106" rx="57.39" ry="18"/>
<text text-anchor="middle" x="1004" y="-102.3" font-family="Times,serif" font-size="14.00">requires_role</text>
</g>
<!-- Roles::assert_diem_root&#45;&gt;Errors::requires_role -->
<g id="edge6" class="edge">
<title>Roles::assert_diem_root&#45;&gt;Errors::requires_role</title>
<path fill="none" stroke="black" d="M1021.9,-253.76C1018.42,-225.26 1011.45,-168.12 1007.31,-134.16"/>
<polygon fill="black" stroke="black" points="1010.76,-133.51 1006.07,-124.01 1003.81,-134.36 1010.76,-133.51"/>
</g>
<!-- CoreAddresses::assert_diem_root -->
<g id="node8" class="node">
<title>CoreAddresses::assert_diem_root</title>
<ellipse fill="none" stroke="black" cx="1314" cy="-189" rx="71.49" ry="18"/>
<text text-anchor="middle" x="1314" y="-185.3" font-family="Times,serif" font-size="14.00">assert_diem_root</text>
</g>
<!-- Roles::assert_diem_root&#45;&gt;CoreAddresses::assert_diem_root -->
<g id="edge7" class="edge">
<title>Roles::assert_diem_root&#45;&gt;CoreAddresses::assert_diem_root</title>
<path fill="none" stroke="black" d="M1067.44,-257.66C1080.17,-253.82 1094.12,-249.68 1107,-246 1157.37,-231.6 1214.91,-216.11 1256.52,-205.08"/>
<polygon fill="black" stroke="black" points="1257.44,-208.46 1266.21,-202.52 1255.64,-201.69 1257.44,-208.46"/>
</g>
<!-- DiemConfig::set&#45;&gt;Signer::address_of -->
<g id="edge8" class="edge">
<title>DiemConfig::set&#45;&gt;Signer::address_of</title>
<path fill="none" stroke="black" d="M1245.07,-416.37C1311.9,-411.88 1482.57,-397.46 1528,-365 1599.79,-313.7 1567.7,-188.79 1549.02,-133.77"/>
<polygon fill="black" stroke="black" points="1552.22,-132.32 1545.61,-124.04 1545.61,-134.63 1552.22,-132.32"/>
</g>
<!-- DiemConfig::set&#45;&gt;Errors::not_published -->
<g id="edge9" class="edge">
<title>DiemConfig::set&#45;&gt;Errors::not_published</title>
<path fill="none" stroke="black" d="M1196.87,-407.5C1192.03,-405.24 1186.88,-402.95 1182,-401 1077.23,-359.05 1021.13,-400.47 941,-321 888.99,-269.41 874.01,-179.32 869.72,-134.27"/>
<polygon fill="black" stroke="black" points="873.19,-133.76 868.86,-124.09 866.21,-134.35 873.19,-133.76"/>
</g>
<!-- Errors::requires_capability -->
<g id="node9" class="node">
<title>Errors::requires_capability</title>
<ellipse fill="none" stroke="black" cx="712" cy="-106" rx="77.99" ry="18"/>
<text text-anchor="middle" x="712" y="-102.3" font-family="Times,serif" font-size="14.00">requires_capability</text>
</g>
<!-- DiemConfig::set&#45;&gt;Errors::requires_capability -->
<g id="edge10" class="edge">
<title>DiemConfig::set&#45;&gt;Errors::requires_capability</title>
<path fill="none" stroke="black" d="M1197.47,-407.06C1192.51,-404.77 1187.16,-402.58 1182,-401 1081.38,-370.21 1044.71,-406.46 948,-365 837.24,-317.52 756.35,-188.53 725.6,-133"/>
<polygon fill="black" stroke="black" points="728.63,-131.24 720.77,-124.13 722.48,-134.59 728.63,-131.24"/>
</g>
<!-- CoreAddresses::DIEM_ROOT_ADDRESS -->
<g id="node10" class="node">
<title>CoreAddresses::DIEM_ROOT_ADDRESS</title>
<ellipse fill="none" stroke="black" cx="1350" cy="-106" rx="106.68" ry="18"/>
<text text-anchor="middle" x="1350" y="-102.3" font-family="Times,serif" font-size="14.00">DIEM_ROOT_ADDRESS</text>
</g>
<!-- DiemConfig::set&#45;&gt;CoreAddresses::DIEM_ROOT_ADDRESS -->
<g id="edge11" class="edge">
<title>DiemConfig::set&#45;&gt;CoreAddresses::DIEM_ROOT_ADDRESS</title>
<path fill="none" stroke="black" d="M1244.91,-417.2C1309.48,-414.64 1470.27,-404.38 1503,-365 1560.39,-295.96 1558.74,-233.38 1503,-163 1493.36,-150.83 1483.8,-159.69 1469,-155 1444.12,-147.11 1417.09,-136.38 1395.09,-127.08"/>
<polygon fill="black" stroke="black" points="1396.24,-123.76 1385.67,-123.05 1393.49,-130.2 1396.24,-123.76"/>
</g>
<!-- DiemConfig::reconfigure_ -->
<g id="node11" class="node">
<title>DiemConfig::reconfigure_</title>
<ellipse fill="none" stroke="black" cx="1174" cy="-347" rx="55.49" ry="18"/>
<text text-anchor="middle" x="1174" y="-343.3" font-family="Times,serif" font-size="14.00">reconfigure_</text>
</g>
<!-- DiemConfig::set&#45;&gt;DiemConfig::reconfigure_ -->
<g id="edge12" class="edge">
<title>DiemConfig::set&#45;&gt;DiemConfig::reconfigure_</title>
<path fill="none" stroke="black" d="M1208.02,-402.12C1202.71,-393.68 1196.07,-383.1 1190.06,-373.55"/>
<polygon fill="black" stroke="black" points="1192.84,-371.4 1184.56,-364.8 1186.92,-375.13 1192.84,-371.4"/>
</g>
<!-- DiemConfig::get&#45;&gt;Errors::not_published -->
<g id="edge13" class="edge">
<title>DiemConfig::get&#45;&gt;Errors::not_published</title>
<path fill="none" stroke="black" d="M1118.57,-418.52C1059.99,-417.91 923.88,-406.91 873,-321 838.08,-262.04 850.87,-177.01 860.76,-134.04"/>
<polygon fill="black" stroke="black" points="864.22,-134.6 863.18,-124.06 857.42,-132.95 864.22,-134.6"/>
</g>
<!-- DiemConfig::get&#45;&gt;CoreAddresses::DIEM_ROOT_ADDRESS -->
<g id="edge14" class="edge">
<title>DiemConfig::get&#45;&gt;CoreAddresses::DIEM_ROOT_ADDRESS</title>
<path fill="none" stroke="black" d="M1167.23,-407.74C1172.06,-405.47 1177.19,-403.11 1182,-401 1268.54,-363.03 1306.11,-381.14 1379,-321 1436.24,-273.77 1467.84,-228.53 1433,-163 1425.16,-148.26 1411.52,-136.69 1397.53,-128"/>
<polygon fill="black" stroke="black" points="1399.23,-124.94 1388.83,-122.95 1395.72,-130.99 1399.23,-124.94"/>
</g>
<!-- Signer::borrow_address -->
<g id="node12" class="node">
<title>Signer::borrow_address</title>
<ellipse fill="none" stroke="black" cx="1548" cy="-34" rx="66.89" ry="18"/>
<text text-anchor="middle" x="1548" y="-30.3" font-family="Times,serif" font-size="14.00">borrow_address</text>
</g>
<!-- Signer::address_of&#45;&gt;Signer::borrow_address -->
<g id="edge15" class="edge">
<title>Signer::address_of&#45;&gt;Signer::borrow_address</title>
<path fill="none" stroke="black" d="M1541.22,-87.7C1542.22,-79.98 1543.41,-70.71 1544.51,-62.11"/>
<polygon fill="black" stroke="black" points="1548,-62.47 1545.8,-52.1 1541.05,-61.58 1548,-62.47"/>
</g>
<!-- Errors::make -->
<g id="node13" class="node">
<title>Errors::make</title>
<ellipse fill="none" stroke="black" cx="868" cy="-34" rx="30.59" ry="18"/>
<text text-anchor="middle" x="868" y="-30.3" font-family="Times,serif" font-size="14.00">make</text>
</g>
<!-- Errors::not_published&#45;&gt;Errors::make -->
<g id="edge16" class="edge">
<title>Errors::not_published&#45;&gt;Errors::make</title>
<path fill="none" stroke="black" d="M868,-87.7C868,-79.98 868,-70.71 868,-62.11"/>
<polygon fill="black" stroke="black" points="871.5,-62.1 868,-52.1 864.5,-62.1 871.5,-62.1"/>
</g>
<!-- Errors::requires_role&#45;&gt;Errors::make -->
<g id="edge17" class="edge">
<title>Errors::requires_role&#45;&gt;Errors::make</title>
<path fill="none" stroke="black" d="M975.49,-90.33C953.17,-78.84 922.17,-62.88 899.19,-51.06"/>
<polygon fill="black" stroke="black" points="900.69,-47.89 890.2,-46.43 897.49,-54.11 900.69,-47.89"/>
</g>
<!-- CoreAddresses::assert_diem_root&#45;&gt;Signer::address_of -->
<g id="edge18" class="edge">
<title>CoreAddresses::assert_diem_root&#45;&gt;Signer::address_of</title>
<path fill="none" stroke="black" d="M1376.81,-180.35C1405.69,-175.41 1439.93,-167.48 1469,-155 1484.29,-148.44 1499.72,-138.32 1512.18,-129.07"/>
<polygon fill="black" stroke="black" points="1514.48,-131.71 1520.3,-122.85 1510.23,-126.15 1514.48,-131.71"/>
</g>
<!-- CoreAddresses::assert_diem_root&#45;&gt;CoreAddresses::DIEM_ROOT_ADDRESS -->
<g id="edge20" class="edge">
<title>CoreAddresses::assert_diem_root&#45;&gt;CoreAddresses::DIEM_ROOT_ADDRESS</title>
<path fill="none" stroke="black" d="M1321.63,-170.82C1326.46,-159.98 1332.78,-145.74 1338.23,-133.47"/>
<polygon fill="black" stroke="black" points="1341.51,-134.71 1342.38,-124.15 1335.12,-131.87 1341.51,-134.71"/>
</g>
<!-- Errors::requires_address -->
<g id="node14" class="node">
<title>Errors::requires_address</title>
<ellipse fill="none" stroke="black" cx="1149" cy="-106" rx="69.59" ry="18"/>
<text text-anchor="middle" x="1149" y="-102.3" font-family="Times,serif" font-size="14.00">requires_address</text>
</g>
<!-- CoreAddresses::assert_diem_root&#45;&gt;Errors::requires_address -->
<g id="edge19" class="edge">
<title>CoreAddresses::assert_diem_root&#45;&gt;Errors::requires_address</title>
<path fill="none" stroke="black" d="M1274.62,-173.75C1260.65,-168.32 1244.94,-161.8 1231,-155 1214.67,-147.03 1197.22,-137.04 1182.62,-128.23"/>
<polygon fill="black" stroke="black" points="1184.3,-125.15 1173.94,-122.93 1180.65,-131.13 1184.3,-125.15"/>
</g>
<!-- Errors::requires_capability&#45;&gt;Errors::make -->
<g id="edge21" class="edge">
<title>Errors::requires_capability&#45;&gt;Errors::make</title>
<path fill="none" stroke="black" d="M746.23,-89.64C772.64,-77.79 808.94,-61.5 835.02,-49.8"/>
<polygon fill="black" stroke="black" points="836.78,-52.84 844.47,-45.56 833.92,-46.46 836.78,-52.84"/>
</g>
<!-- DiemConfig::reconfigure_&#45;&gt;CoreAddresses::DIEM_ROOT_ADDRESS -->
<g id="edge23" class="edge">
<title>DiemConfig::reconfigure_&#45;&gt;CoreAddresses::DIEM_ROOT_ADDRESS</title>
<path fill="none" stroke="black" d="M1228.52,-343.79C1256.93,-340.91 1291.59,-334.6 1320,-321 1370.27,-296.94 1391.08,-288.8 1414,-238 1427.71,-207.61 1427.77,-193.35 1414,-163 1408.01,-149.8 1397.2,-138.49 1386.15,-129.56"/>
<polygon fill="black" stroke="black" points="1388.22,-126.73 1378.13,-123.49 1383.99,-132.31 1388.22,-126.73"/>
</g>
<!-- Errors::invalid_state -->
<g id="node15" class="node">
<title>Errors::invalid_state</title>
<ellipse fill="none" stroke="black" cx="560" cy="-106" rx="55.79" ry="18"/>
<text text-anchor="middle" x="560" y="-102.3" font-family="Times,serif" font-size="14.00">invalid_state</text>
</g>
<!-- DiemConfig::reconfigure_&#45;&gt;Errors::invalid_state -->
<g id="edge22" class="edge">
<title>DiemConfig::reconfigure_&#45;&gt;Errors::invalid_state</title>
<path fill="none" stroke="black" d="M1120.36,-342.58C1062.22,-338.47 973.4,-330.86 941,-321 798.14,-277.55 649.74,-174.41 588.77,-129.05"/>
<polygon fill="black" stroke="black" points="590.52,-125.99 580.41,-122.8 586.32,-131.59 590.52,-125.99"/>
</g>
<!-- DiemTimestamp::is_genesis -->
<g id="node16" class="node">
<title>DiemTimestamp::is_genesis</title>
<ellipse fill="none" stroke="black" cx="433" cy="-272" rx="46.59" ry="18"/>
<text text-anchor="middle" x="433" y="-268.3" font-family="Times,serif" font-size="14.00">is_genesis</text>
</g>
<!-- DiemConfig::reconfigure_&#45;&gt;DiemTimestamp::is_genesis -->
<g id="edge24" class="edge">
<title>DiemConfig::reconfigure_&#45;&gt;DiemTimestamp::is_genesis</title>
<path fill="none" stroke="black" d="M1121.6,-341.1C1068.51,-336.12 984.04,-328.14 911,-321 757.69,-306.02 576.8,-287.67 487.92,-278.61"/>
<polygon fill="black" stroke="black" points="488.11,-275.11 477.8,-277.58 487.4,-282.08 488.11,-275.11"/>
</g>
<!-- DiemTimestamp::now_microseconds -->
<g id="node17" class="node">
<title>DiemTimestamp::now_microseconds</title>
<ellipse fill="none" stroke="black" cx="289" cy="-272" rx="79.09" ry="18"/>
<text text-anchor="middle" x="289" y="-268.3" font-family="Times,serif" font-size="14.00">now_microseconds</text>
</g>
<!-- DiemConfig::reconfigure_&#45;&gt;DiemTimestamp::now_microseconds -->
<g id="edge25" class="edge">
<title>DiemConfig::reconfigure_&#45;&gt;DiemTimestamp::now_microseconds</title>
<path fill="none" stroke="black" d="M1118.63,-345.75C949.68,-344.77 447.93,-340.28 377,-321 357.02,-315.57 336.61,-304.82 320.48,-294.87"/>
<polygon fill="black" stroke="black" points="322.3,-291.88 311.98,-289.46 318.54,-297.78 322.3,-291.88"/>
</g>
<!-- Event::emit_event -->
<g id="node18" class="node">
<title>Event::emit_event</title>
<ellipse fill="none" stroke="black" cx="118" cy="-272" rx="50.09" ry="18"/>
<text text-anchor="middle" x="118" y="-268.3" font-family="Times,serif" font-size="14.00">emit_event</text>
</g>
<!-- DiemConfig::reconfigure_&#45;&gt;Event::emit_event -->
<g id="edge26" class="edge">
<title>DiemConfig::reconfigure_&#45;&gt;Event::emit_event</title>
<path fill="none" stroke="black" d="M1118.76,-346.22C925.44,-346.79 286.24,-346.66 198,-321 179.45,-315.61 160.83,-304.82 146.22,-294.84"/>
<polygon fill="black" stroke="black" points="147.86,-291.71 137.68,-288.78 143.81,-297.42 147.86,-291.71"/>
</g>
<!-- DiemConfig::reconfiguration_enabled -->
<g id="node19" class="node">
<title>DiemConfig::reconfiguration_enabled</title>
<ellipse fill="none" stroke="black" cx="1215" cy="-272" rx="96.38" ry="18"/>
<text text-anchor="middle" x="1215" y="-268.3" font-family="Times,serif" font-size="14.00">reconfiguration_enabled</text>
</g>
<!-- DiemConfig::reconfigure_&#45;&gt;DiemConfig::reconfiguration_enabled -->
<g id="edge27" class="edge">
<title>DiemConfig::reconfigure_&#45;&gt;DiemConfig::reconfiguration_enabled</title>
<path fill="none" stroke="black" d="M1183.51,-329.07C1188.54,-320.1 1194.84,-308.9 1200.47,-298.87"/>
<polygon fill="black" stroke="black" points="1203.55,-300.53 1205.4,-290.09 1197.45,-297.1 1203.55,-300.53"/>
</g>
<!-- Errors::requires_address&#45;&gt;Errors::make -->
<g id="edge28" class="edge">
<title>Errors::requires_address&#45;&gt;Errors::make</title>
<path fill="none" stroke="black" d="M1108.2,-91.34C1095.98,-87.45 1082.5,-83.36 1070,-80 1013.55,-64.81 947.25,-50.75 906.43,-42.52"/>
<polygon fill="black" stroke="black" points="907.12,-39.09 896.63,-40.56 905.74,-45.95 907.12,-39.09"/>
</g>
<!-- Errors::invalid_state&#45;&gt;Errors::make -->
<g id="edge29" class="edge">
<title>Errors::invalid_state&#45;&gt;Errors::make</title>
<path fill="none" stroke="black" d="M592.34,-91.22C602.64,-87.19 614.18,-83.05 625,-80 695.4,-60.13 779.81,-46.77 828.34,-40.06"/>
<polygon fill="black" stroke="black" points="828.99,-43.5 838.42,-38.69 828.04,-36.56 828.99,-43.5"/>
</g>
<!-- DiemTimestamp::is_genesis&#45;&gt;CoreAddresses::DIEM_ROOT_ADDRESS -->
<g id="edge30" class="edge">
<title>DiemTimestamp::is_genesis&#45;&gt;CoreAddresses::DIEM_ROOT_ADDRESS</title>
<path fill="none" stroke="black" d="M479.42,-269.2C608.1,-264.08 963.3,-249.11 1015,-238 1072.45,-225.65 1226.48,-160.66 1304.04,-127.1"/>
<polygon fill="black" stroke="black" points="1305.78,-130.16 1313.56,-122.97 1302.99,-123.74 1305.78,-130.16"/>
</g>
<!-- DiemTimestamp::now_microseconds&#45;&gt;CoreAddresses::DIEM_ROOT_ADDRESS -->
<g id="edge31" class="edge">
<title>DiemTimestamp::now_microseconds&#45;&gt;CoreAddresses::DIEM_ROOT_ADDRESS</title>
<path fill="none" stroke="black" d="M332.01,-256.87C346.19,-252.73 362.14,-248.61 377,-246 426.15,-237.36 439.38,-243.3 489,-238 723.81,-212.91 779.8,-184.07 1015,-163 1062.84,-158.72 1184.02,-165.02 1231,-155 1257.88,-149.26 1286.49,-137.91 1308.92,-127.68"/>
<polygon fill="black" stroke="black" points="1310.55,-130.79 1318.13,-123.39 1307.59,-124.44 1310.55,-130.79"/>
</g>
<!-- DiemTimestamp::assert_operating -->
<g id="node20" class="node">
<title>DiemTimestamp::assert_operating</title>
<ellipse fill="none" stroke="black" cx="412" cy="-189" rx="68.49" ry="18"/>
<text text-anchor="middle" x="412" y="-185.3" font-family="Times,serif" font-size="14.00">assert_operating</text>
</g>
<!-- DiemTimestamp::now_microseconds&#45;&gt;DiemTimestamp::assert_operating -->
<g id="edge32" class="edge">
<title>DiemTimestamp::now_microseconds&#45;&gt;DiemTimestamp::assert_operating</title>
<path fill="none" stroke="black" d="M313.6,-254.8C332.49,-242.36 358.76,-225.06 379.4,-211.47"/>
<polygon fill="black" stroke="black" points="381.44,-214.32 387.87,-205.89 377.59,-208.47 381.44,-214.32"/>
</g>
<!-- Event::write_to_event_store -->
<g id="node21" class="node">
<title>Event::write_to_event_store</title>
<ellipse fill="none" stroke="black" cx="101" cy="-189" rx="85.29" ry="18"/>
<text text-anchor="middle" x="101" y="-185.3" font-family="Times,serif" font-size="14.00">write_to_event_store</text>
</g>
<!-- Event::emit_event&#45;&gt;Event::write_to_event_store -->
<g id="edge33" class="edge">
<title>Event::emit_event&#45;&gt;Event::write_to_event_store</title>
<path fill="none" stroke="black" d="M114.39,-253.82C112.16,-243.19 109.25,-229.31 106.71,-217.2"/>
<polygon fill="black" stroke="black" points="110.08,-216.22 104.6,-207.15 103.23,-217.66 110.08,-216.22"/>
</g>
<!-- DiemConfig::reconfiguration_enabled&#45;&gt;CoreAddresses::DIEM_ROOT_ADDRESS -->
<g id="edge34" class="edge">
<title>DiemConfig::reconfiguration_enabled&#45;&gt;CoreAddresses::DIEM_ROOT_ADDRESS</title>
<path fill="none" stroke="black" d="M1304.08,-265.12C1342.78,-260.53 1382.02,-252.39 1394,-238 1415.33,-212.38 1404.9,-194.5 1394,-163 1390,-151.43 1382.51,-140.44 1374.83,-131.3"/>
<polygon fill="black" stroke="black" points="1377.39,-128.91 1368.12,-123.78 1372.17,-133.57 1377.39,-128.91"/>
</g>
<!-- DiemTimestamp::assert_operating&#45;&gt;Errors::invalid_state -->
<g id="edge35" class="edge">
<title>DiemTimestamp::assert_operating&#45;&gt;Errors::invalid_state</title>
<path fill="none" stroke="black" d="M450.66,-174.08C464.05,-168.73 478.97,-162.17 492,-155 505.65,-147.49 519.87,-137.79 531.75,-129.08"/>
<polygon fill="black" stroke="black" points="534.03,-131.74 539.95,-122.95 529.84,-126.13 534.03,-131.74"/>
</g>
<!-- DiemTimestamp::is_operating -->
<g id="node22" class="node">
<title>DiemTimestamp::is_operating</title>
<ellipse fill="none" stroke="black" cx="419" cy="-106" rx="53.89" ry="18"/>
<text text-anchor="middle" x="419" y="-102.3" font-family="Times,serif" font-size="14.00">is_operating</text>
</g>
<!-- DiemTimestamp::assert_operating&#45;&gt;DiemTimestamp::is_operating -->
<g id="edge36" class="edge">
<title>DiemTimestamp::assert_operating&#45;&gt;DiemTimestamp::is_operating</title>
<path fill="none" stroke="black" d="M413.48,-170.82C414.4,-160.19 415.6,-146.31 416.65,-134.2"/>
<polygon fill="black" stroke="black" points="420.14,-134.42 417.52,-124.15 413.17,-133.81 420.14,-134.42"/>
</g>
<!-- DiemTimestamp::is_operating&#45;&gt;CoreAddresses::DIEM_ROOT_ADDRESS -->
<g id="edge37" class="edge">
<title>DiemTimestamp::is_operating&#45;&gt;CoreAddresses::DIEM_ROOT_ADDRESS</title>
<path fill="none" stroke="black" d="M436.74,-123.02C452.25,-136.43 476.13,-153.72 501,-159 520.59,-163.16 1202.36,-162.91 1222,-159 1252.44,-152.95 1284.7,-139.53 1309.23,-127.72"/>
<polygon fill="black" stroke="black" points="1310.8,-130.84 1318.23,-123.28 1307.71,-124.56 1310.8,-130.84"/>
</g>
</g>
</svg>
