<?xml version="1.0" encoding="UTF-8" standalone="no"?>
<!DOCTYPE svg PUBLIC "-//W3C//DTD SVG 1.1//EN"
 "http://www.w3.org/Graphics/SVG/1.1/DTD/svg11.dtd">
<!-- Generated by graphviz version 2.46.1 (20210213.1702)
 -->
<!-- Title: G Pages: 1 -->
<svg width="1884pt" height="548pt"
 viewBox="0.00 0.00 1884.03 548.00" xmlns="http://www.w3.org/2000/svg" xmlns:xlink="http://www.w3.org/1999/xlink">
<g id="graph0" class="graph" transform="scale(1 1) rotate(0) translate(4 544)">
<title>G</title>
<polygon fill="white" stroke="transparent" points="-4,4 -4,-544 1880.03,-544 1880.03,4 -4,4"/>
<!-- DiemConfig -->
<g id="node1" class="node">
<title>DiemConfig</title>
<ellipse fill="none" stroke="black" cx="1478.99" cy="-18" rx="54.69" ry="18"/>
<text text-anchor="middle" x="1478.99" y="-14.3" font-family="Times,serif" font-size="14.00">DiemConfig</text>
</g>
<!-- RegisteredCurrencies -->
<g id="node2" class="node">
<title>RegisteredCurrencies</title>
<ellipse fill="none" stroke="black" cx="1121.99" cy="-90" rx="86.38" ry="18"/>
<text text-anchor="middle" x="1121.99" y="-86.3" font-family="Times,serif" font-size="14.00">RegisteredCurrencies</text>
</g>
<!-- RegisteredCurrencies&#45;&gt;DiemConfig -->
<g id="edge1" class="edge">
<title>RegisteredCurrencies&#45;&gt;DiemConfig</title>
<path fill="none" stroke="black" d="M1182.55,-77.13C1249.87,-63.93 1357.7,-42.78 1423.08,-29.96"/>
<polygon fill="black" stroke="black" points="1424.05,-33.34 1433.19,-27.98 1422.71,-26.47 1424.05,-33.34"/>
</g>
<!-- DiemTransactionPublishingOption -->
<g id="node3" class="node">
<title>DiemTransactionPublishingOption</title>
<ellipse fill="none" stroke="black" cx="1302.99" cy="-306" rx="133.78" ry="18"/>
<text text-anchor="middle" x="1302.99" y="-302.3" font-family="Times,serif" font-size="14.00">DiemTransactionPublishingOption</text>
</g>
<!-- DiemTransactionPublishingOption&#45;&gt;DiemConfig -->
<g id="edge2" class="edge">
<title>DiemTransactionPublishingOption&#45;&gt;DiemConfig</title>
<path fill="none" stroke="black" d="M1313.47,-287.97C1343.13,-239.78 1427.74,-102.28 1463.13,-44.78"/>
<polygon fill="black" stroke="black" points="1466.3,-46.3 1468.56,-35.94 1460.34,-42.63 1466.3,-46.3"/>
</g>
<!-- DiemAccount -->
<g id="node4" class="node">
<title>DiemAccount</title>
<ellipse fill="none" stroke="black" cx="664.99" cy="-378" rx="60.39" ry="18"/>
<text text-anchor="middle" x="664.99" y="-374.3" font-family="Times,serif" font-size="14.00">DiemAccount</text>
</g>
<!-- DiemAccount&#45;&gt;DiemConfig -->
<g id="edge3" class="edge">
<title>DiemAccount&#45;&gt;DiemConfig</title>
<path fill="none" stroke="black" d="M605.18,-374.7C560.35,-370.13 499.78,-357.57 457.99,-324 423.43,-296.24 412.99,-279.32 412.99,-235 412.99,-235 412.99,-235 412.99,-161 412.99,-59.41 1183.56,-27.92 1414.41,-20.77"/>
<polygon fill="black" stroke="black" points="1414.77,-24.26 1424.66,-20.45 1414.56,-17.26 1414.77,-24.26"/>
</g>
<!-- DiemAccount&#45;&gt;DiemTransactionPublishingOption -->
<g id="edge9" class="edge">
<title>DiemAccount&#45;&gt;DiemTransactionPublishingOption</title>
<path fill="none" stroke="black" d="M720.77,-370.88C825.92,-359.34 1055.22,-334.18 1192.6,-319.11"/>
<polygon fill="black" stroke="black" points="1193.18,-322.57 1202.73,-318 1192.41,-315.61 1193.18,-322.57"/>
</g>
<!-- Diem -->
<g id="node9" class="node">
<title>Diem</title>
<ellipse fill="none" stroke="black" cx="917.99" cy="-162" rx="30.59" ry="18"/>
<text text-anchor="middle" x="917.99" y="-158.3" font-family="Times,serif" font-size="14.00">Diem</text>
</g>
<!-- DiemAccount&#45;&gt;Diem -->
<g id="edge29" class="edge">
<title>DiemAccount&#45;&gt;Diem</title>
<path fill="none" stroke="black" d="M607.92,-371.83C537.57,-363.12 431.73,-340.93 469.99,-288 518.59,-220.77 777.8,-180.93 878.21,-167.83"/>
<polygon fill="black" stroke="black" points="878.79,-171.28 888.26,-166.54 877.89,-164.34 878.79,-171.28"/>
</g>
<!-- XUS -->
<g id="node19" class="node">
<title>XUS</title>
<ellipse fill="none" stroke="black" cx="841.99" cy="-234" rx="28.7" ry="18"/>
<text text-anchor="middle" x="841.99" y="-230.3" font-family="Times,serif" font-size="14.00">XUS</text>
</g>
<!-- DiemAccount&#45;&gt;XUS -->
<g id="edge37" class="edge">
<title>DiemAccount&#45;&gt;XUS</title>
<path fill="none" stroke="black" d="M662.31,-359.8C660.26,-340.14 660.18,-308.08 676.99,-288 707.97,-250.99 764.92,-239.55 803.12,-236.17"/>
<polygon fill="black" stroke="black" points="803.64,-239.64 813.36,-235.42 803.13,-232.66 803.64,-239.64"/>
</g>
<!-- XDX -->
<g id="node20" class="node">
<title>XDX</title>
<ellipse fill="none" stroke="black" cx="917.99" cy="-234" rx="29.8" ry="18"/>
<text text-anchor="middle" x="917.99" y="-230.3" font-family="Times,serif" font-size="14.00">XDX</text>
</g>
<!-- DiemAccount&#45;&gt;XDX -->
<g id="edge41" class="edge">
<title>DiemAccount&#45;&gt;XDX</title>
<path fill="none" stroke="black" d="M668.92,-359.69C674.47,-339.3 686.66,-305.95 709.99,-288 771.21,-240.91 806.55,-275.9 879.99,-252 881.9,-251.38 883.84,-250.69 885.78,-249.96"/>
<polygon fill="black" stroke="black" points="887.45,-253.06 895.39,-246.05 884.81,-246.58 887.45,-253.06"/>
</g>
<!-- TransactionFee -->
<g id="node21" class="node">
<title>TransactionFee</title>
<ellipse fill="none" stroke="black" cx="933.99" cy="-306" rx="64.99" ry="18"/>
<text text-anchor="middle" x="933.99" y="-302.3" font-family="Times,serif" font-size="14.00">TransactionFee</text>
</g>
<!-- DiemAccount&#45;&gt;TransactionFee -->
<g id="edge43" class="edge">
<title>DiemAccount&#45;&gt;TransactionFee</title>
<path fill="none" stroke="black" d="M708.81,-365.6C755.15,-353.54 828.36,-334.49 878.65,-321.4"/>
<polygon fill="black" stroke="black" points="879.6,-324.77 888.39,-318.87 877.83,-318 879.6,-324.77"/>
</g>
<!-- DualAttestation -->
<g id="node22" class="node">
<title>DualAttestation</title>
<ellipse fill="none" stroke="black" cx="784.99" cy="-306" rx="66.09" ry="18"/>
<text text-anchor="middle" x="784.99" y="-302.3" font-family="Times,serif" font-size="14.00">DualAttestation</text>
</g>
<!-- DiemAccount&#45;&gt;DualAttestation -->
<g id="edge46" class="edge">
<title>DiemAccount&#45;&gt;DualAttestation</title>
<path fill="none" stroke="black" d="M691.33,-361.64C708.4,-351.68 730.85,-338.58 749.5,-327.7"/>
<polygon fill="black" stroke="black" points="751.43,-330.63 758.3,-322.57 747.9,-324.58 751.43,-330.63"/>
</g>
<!-- DesignatedDealer -->
<g id="node23" class="node">
<title>DesignatedDealer</title>
<ellipse fill="none" stroke="black" cx="551.99" cy="-306" rx="73.39" ry="18"/>
<text text-anchor="middle" x="551.99" y="-302.3" font-family="Times,serif" font-size="14.00">DesignatedDealer</text>
</g>
<!-- DiemAccount&#45;&gt;DesignatedDealer -->
<g id="edge50" class="edge">
<title>DiemAccount&#45;&gt;DesignatedDealer</title>
<path fill="none" stroke="black" d="M639.91,-361.46C624.19,-351.72 603.7,-339.03 586.46,-328.35"/>
<polygon fill="black" stroke="black" points="588.13,-325.27 577.78,-322.98 584.44,-331.22 588.13,-325.27"/>
</g>
<!-- DiemSystem -->
<g id="node5" class="node">
<title>DiemSystem</title>
<ellipse fill="none" stroke="black" cx="1511.99" cy="-306" rx="57.39" ry="18"/>
<text text-anchor="middle" x="1511.99" y="-302.3" font-family="Times,serif" font-size="14.00">DiemSystem</text>
</g>
<!-- DiemSystem&#45;&gt;DiemConfig -->
<g id="edge4" class="edge">
<title>DiemSystem&#45;&gt;DiemConfig</title>
<path fill="none" stroke="black" d="M1510.03,-287.97C1504.51,-240.19 1488.87,-104.62 1482.14,-46.27"/>
<polygon fill="black" stroke="black" points="1485.61,-45.84 1480.99,-36.31 1478.66,-46.64 1485.61,-45.84"/>
</g>
<!-- DiemVMConfig -->
<g id="node6" class="node">
<title>DiemVMConfig</title>
<ellipse fill="none" stroke="black" cx="1576.99" cy="-162" rx="69.59" ry="18"/>
<text text-anchor="middle" x="1576.99" y="-158.3" font-family="Times,serif" font-size="14.00">DiemVMConfig</text>
</g>
<!-- DiemVMConfig&#45;&gt;DiemConfig -->
<g id="edge5" class="edge">
<title>DiemVMConfig&#45;&gt;DiemConfig</title>
<path fill="none" stroke="black" d="M1565.36,-144.15C1548.27,-119.39 1516.24,-72.97 1496.35,-44.16"/>
<polygon fill="black" stroke="black" points="1499.16,-42.07 1490.6,-35.82 1493.4,-46.04 1499.16,-42.07"/>
</g>
<!-- DiemVersion -->
<g id="node7" class="node">
<title>DiemVersion</title>
<ellipse fill="none" stroke="black" cx="1760.99" cy="-378" rx="57.69" ry="18"/>
<text text-anchor="middle" x="1760.99" y="-374.3" font-family="Times,serif" font-size="14.00">DiemVersion</text>
</g>
<!-- DiemVersion&#45;&gt;DiemConfig -->
<g id="edge6" class="edge">
<title>DiemVersion&#45;&gt;DiemConfig</title>
<path fill="none" stroke="black" d="M1756.13,-359.67C1749.12,-333.08 1736.99,-280.5 1736.99,-235 1736.99,-235 1736.99,-235 1736.99,-161 1736.99,-116.06 1724.45,-99.61 1688.99,-72 1647.3,-39.53 1588.08,-26.73 1543.16,-21.8"/>
<polygon fill="black" stroke="black" points="1543.23,-18.29 1532.93,-20.79 1542.54,-25.26 1543.23,-18.29"/>
</g>
<!-- Genesis -->
<g id="node8" class="node">
<title>Genesis</title>
<ellipse fill="none" stroke="black" cx="1159.99" cy="-450" rx="38.19" ry="18"/>
<text text-anchor="middle" x="1159.99" y="-446.3" font-family="Times,serif" font-size="14.00">Genesis</text>
</g>
<!-- Genesis&#45;&gt;DiemConfig -->
<g id="edge7" class="edge">
<title>Genesis&#45;&gt;DiemConfig</title>
<path fill="none" stroke="black" d="M1198.55,-449.76C1300.16,-451 1572.18,-449.16 1640.99,-396 1674.5,-370.11 1674.99,-349.34 1674.99,-307 1674.99,-307 1674.99,-307 1674.99,-161 1674.99,-89.9 1589.36,-50.75 1531.3,-32.38"/>
<polygon fill="black" stroke="black" points="1532.11,-28.97 1521.52,-29.4 1530.06,-35.66 1532.11,-28.97"/>
</g>
<!-- Genesis&#45;&gt;DiemTransactionPublishingOption -->
<g id="edge10" class="edge">
<title>Genesis&#45;&gt;DiemTransactionPublishingOption</title>
<path fill="none" stroke="black" d="M1163.53,-431.98C1168.35,-412.48 1178.68,-380.59 1197.99,-360 1211.07,-346.05 1228.64,-335.22 1245.65,-327.08"/>
<polygon fill="black" stroke="black" points="1247.35,-330.15 1255.02,-322.84 1244.46,-323.78 1247.35,-330.15"/>
</g>
<!-- Genesis&#45;&gt;DiemAccount -->
<g id="edge15" class="edge">
<title>Genesis&#45;&gt;DiemAccount</title>
<path fill="none" stroke="black" d="M1124.02,-443.15C1103.03,-439.79 1076.03,-435.54 1051.99,-432 938.5,-415.3 806.02,-397.53 729.2,-387.39"/>
<polygon fill="black" stroke="black" points="729.57,-383.91 719.2,-386.08 728.66,-390.85 729.57,-383.91"/>
</g>
<!-- Genesis&#45;&gt;DiemSystem -->
<g id="edge19" class="edge">
<title>Genesis&#45;&gt;DiemSystem</title>
<path fill="none" stroke="black" d="M1197.65,-446.16C1268.03,-440.23 1416.16,-424.66 1457.99,-396 1479.9,-380.99 1494.45,-353.88 1502.87,-333.52"/>
<polygon fill="black" stroke="black" points="1506.15,-334.73 1506.52,-324.14 1499.63,-332.19 1506.15,-334.73"/>
</g>
<!-- Genesis&#45;&gt;DiemVMConfig -->
<g id="edge21" class="edge">
<title>Genesis&#45;&gt;DiemVMConfig</title>
<path fill="none" stroke="black" d="M1198.2,-447.44C1303.2,-442.75 1590.2,-427.19 1617.99,-396 1670.37,-337.21 1621.3,-235.79 1593.36,-188.57"/>
<polygon fill="black" stroke="black" points="1596.26,-186.62 1588.08,-179.88 1590.28,-190.25 1596.26,-186.62"/>
</g>
<!-- Genesis&#45;&gt;DiemVersion -->
<g id="edge22" class="edge">
<title>Genesis&#45;&gt;DiemVersion</title>
<path fill="none" stroke="black" d="M1198.06,-446.92C1285.36,-441.76 1506.47,-426.55 1688.99,-396 1695.14,-394.97 1701.55,-393.72 1707.9,-392.37"/>
<polygon fill="black" stroke="black" points="1708.77,-395.76 1717.77,-390.18 1707.25,-388.93 1708.77,-395.76"/>
</g>
<!-- Genesis&#45;&gt;Diem -->
<g id="edge30" class="edge">
<title>Genesis&#45;&gt;Diem</title>
<path fill="none" stroke="black" d="M1151.12,-432.2C1129.11,-391.56 1068.54,-286.17 996.99,-216 982.7,-201.98 964.23,-189.36 948.74,-179.95"/>
<polygon fill="black" stroke="black" points="950.41,-176.87 940.02,-174.79 946.85,-182.9 950.41,-176.87"/>
</g>
<!-- DiemBlock -->
<g id="node16" class="node">
<title>DiemBlock</title>
<ellipse fill="none" stroke="black" cx="1556.99" cy="-378" rx="51.99" ry="18"/>
<text text-anchor="middle" x="1556.99" y="-374.3" font-family="Times,serif" font-size="14.00">DiemBlock</text>
</g>
<!-- Genesis&#45;&gt;DiemBlock -->
<g id="edge34" class="edge">
<title>Genesis&#45;&gt;DiemBlock</title>
<path fill="none" stroke="black" d="M1196.44,-444.3C1257.62,-436.15 1384.74,-418.14 1490.99,-396 1496.35,-394.88 1501.92,-393.62 1507.46,-392.29"/>
<polygon fill="black" stroke="black" points="1508.47,-395.64 1517.34,-389.85 1506.8,-388.85 1508.47,-395.64"/>
</g>
<!-- Genesis&#45;&gt;XUS -->
<g id="edge38" class="edge">
<title>Genesis&#45;&gt;XUS</title>
<path fill="none" stroke="black" d="M1141.09,-434.24C1128.42,-424.01 1111.62,-409.8 1097.99,-396 1087.01,-384.89 1021.11,-296.48 1007.99,-288 958.01,-255.67 934.88,-272.49 878.99,-252 877.15,-251.32 875.27,-250.6 873.39,-249.83"/>
<polygon fill="black" stroke="black" points="874.63,-246.56 864.06,-245.83 871.87,-252.99 874.63,-246.56"/>
</g>
<!-- Genesis&#45;&gt;XDX -->
<g id="edge42" class="edge">
<title>Genesis&#45;&gt;XDX</title>
<path fill="none" stroke="black" d="M1149.49,-432.63C1125.82,-396.15 1068.29,-309.65 1040.99,-288 1015.34,-267.65 980.69,-253.66 954.71,-245.18"/>
<polygon fill="black" stroke="black" points="955.45,-241.74 944.86,-242.09 953.36,-248.42 955.45,-241.74"/>
</g>
<!-- Genesis&#45;&gt;TransactionFee -->
<g id="edge44" class="edge">
<title>Genesis&#45;&gt;TransactionFee</title>
<path fill="none" stroke="black" d="M1125.66,-441.77C1094.35,-434.04 1047.8,-419.58 1012.99,-396 987.81,-378.94 965.47,-352.07 951.02,-332.31"/>
<polygon fill="black" stroke="black" points="953.8,-330.18 945.15,-324.06 948.1,-334.24 953.8,-330.18"/>
</g>
<!-- Genesis&#45;&gt;DualAttestation -->
<g id="edge48" class="edge">
<title>Genesis&#45;&gt;DualAttestation</title>
<path fill="none" stroke="black" d="M1126.13,-441.46C1087.67,-432.47 1023.35,-416.1 969.99,-396 917.1,-376.08 858.76,-346.69 822.01,-327.21"/>
<polygon fill="black" stroke="black" points="823.61,-324.1 813.14,-322.48 820.32,-330.27 823.61,-324.1"/>
</g>
<!-- Diem&#45;&gt;RegisteredCurrencies -->
<g id="edge8" class="edge">
<title>Diem&#45;&gt;RegisteredCurrencies</title>
<path fill="none" stroke="black" d="M943.83,-152.13C975.23,-141.36 1028.99,-122.91 1069.27,-109.09"/>
<polygon fill="black" stroke="black" points="1070.61,-112.33 1078.94,-105.77 1068.34,-105.71 1070.61,-112.33"/>
</g>
<!-- SharedEd25519PublicKey -->
<g id="node10" class="node">
<title>SharedEd25519PublicKey</title>
<ellipse fill="none" stroke="black" cx="103.99" cy="-450" rx="103.98" ry="18"/>
<text text-anchor="middle" x="103.99" y="-446.3" font-family="Times,serif" font-size="14.00">SharedEd25519PublicKey</text>
</g>
<!-- SharedEd25519PublicKey&#45;&gt;DiemAccount -->
<g id="edge11" class="edge">
<title>SharedEd25519PublicKey&#45;&gt;DiemAccount</title>
<path fill="none" stroke="black" d="M178.71,-437.42C191.47,-435.54 204.6,-433.66 216.99,-432 352.51,-413.79 511.55,-395.77 599,-386.15"/>
<polygon fill="black" stroke="black" points="599.49,-389.62 609.05,-385.04 598.72,-382.66 599.49,-389.62"/>
</g>
<!-- RecoveryAddress -->
<g id="node11" class="node">
<title>RecoveryAddress</title>
<ellipse fill="none" stroke="black" cx="506.99" cy="-450" rx="73.39" ry="18"/>
<text text-anchor="middle" x="506.99" y="-446.3" font-family="Times,serif" font-size="14.00">RecoveryAddress</text>
</g>
<!-- RecoveryAddress&#45;&gt;DiemAccount -->
<g id="edge12" class="edge">
<title>RecoveryAddress&#45;&gt;DiemAccount</title>
<path fill="none" stroke="black" d="M540.89,-433.98C565.11,-423.25 597.85,-408.75 623.62,-397.33"/>
<polygon fill="black" stroke="black" points="625.04,-400.53 632.77,-393.27 622.21,-394.13 625.04,-400.53"/>
</g>
<!-- AccountAdministrationScripts -->
<g id="node12" class="node">
<title>AccountAdministrationScripts</title>
<ellipse fill="none" stroke="black" cx="632.99" cy="-522" rx="118.08" ry="18"/>
<text text-anchor="middle" x="632.99" y="-518.3" font-family="Times,serif" font-size="14.00">AccountAdministrationScripts</text>
</g>
<!-- AccountAdministrationScripts&#45;&gt;DiemAccount -->
<g id="edge13" class="edge">
<title>AccountAdministrationScripts&#45;&gt;DiemAccount</title>
<path fill="none" stroke="black" d="M690.18,-506.16C709.4,-498.15 728.79,-486.05 739.99,-468 748.43,-454.41 747.35,-446.21 739.99,-432 732.65,-417.83 719.59,-406.64 706.4,-398.26"/>
<polygon fill="black" stroke="black" points="708.16,-395.24 697.77,-393.16 704.6,-401.27 708.16,-395.24"/>
</g>
<!-- AccountAdministrationScripts&#45;&gt;SharedEd25519PublicKey -->
<g id="edge32" class="edge">
<title>AccountAdministrationScripts&#45;&gt;SharedEd25519PublicKey</title>
<path fill="none" stroke="black" d="M543.24,-510.16C458.94,-499.84 329.31,-483.6 216.99,-468 207.97,-466.75 198.55,-465.4 189.17,-464.03"/>
<polygon fill="black" stroke="black" points="189.43,-460.53 179.02,-462.53 188.41,-467.45 189.43,-460.53"/>
</g>
<!-- AccountAdministrationScripts&#45;&gt;RecoveryAddress -->
<g id="edge33" class="edge">
<title>AccountAdministrationScripts&#45;&gt;RecoveryAddress</title>
<path fill="none" stroke="black" d="M603.13,-504.41C585.49,-494.61 563.01,-482.12 544.23,-471.69"/>
<polygon fill="black" stroke="black" points="545.78,-468.55 535.34,-466.75 542.38,-474.66 545.78,-468.55"/>
</g>
<!-- AccountAdministrationScripts&#45;&gt;DualAttestation -->
<g id="edge47" class="edge">
<title>AccountAdministrationScripts&#45;&gt;DualAttestation</title>
<path fill="none" stroke="black" d="M696.64,-506.82C718.5,-498.88 741.17,-486.67 755.99,-468 786.59,-429.46 789.05,-369.35 787.45,-334.51"/>
<polygon fill="black" stroke="black" points="790.92,-333.92 786.82,-324.15 783.93,-334.34 790.92,-333.92"/>
</g>
<!-- AccountCreationScripts -->
<g id="node13" class="node">
<title>AccountCreationScripts</title>
<ellipse fill="none" stroke="black" cx="320.99" cy="-450" rx="94.78" ry="18"/>
<text text-anchor="middle" x="320.99" y="-446.3" font-family="Times,serif" font-size="14.00">AccountCreationScripts</text>
</g>
<!-- AccountCreationScripts&#45;&gt;DiemAccount -->
<g id="edge14" class="edge">
<title>AccountCreationScripts&#45;&gt;DiemAccount</title>
<path fill="none" stroke="black" d="M383.29,-436.32C446.74,-423.41 544.4,-403.54 606.46,-390.91"/>
<polygon fill="black" stroke="black" points="607.38,-394.29 616.48,-388.87 605.98,-387.44 607.38,-394.29"/>
</g>
<!-- PaymentScripts -->
<g id="node14" class="node">
<title>PaymentScripts</title>
<ellipse fill="none" stroke="black" cx="664.99" cy="-450" rx="66.09" ry="18"/>
<text text-anchor="middle" x="664.99" y="-446.3" font-family="Times,serif" font-size="14.00">PaymentScripts</text>
</g>
<!-- PaymentScripts&#45;&gt;DiemAccount -->
<g id="edge16" class="edge">
<title>PaymentScripts&#45;&gt;DiemAccount</title>
<path fill="none" stroke="black" d="M664.99,-431.7C664.99,-423.98 664.99,-414.71 664.99,-406.11"/>
<polygon fill="black" stroke="black" points="668.49,-406.1 664.99,-396.1 661.49,-406.1 668.49,-406.1"/>
</g>
<!-- TreasuryComplianceScripts -->
<g id="node15" class="node">
<title>TreasuryComplianceScripts</title>
<ellipse fill="none" stroke="black" cx="933.99" cy="-450" rx="109.38" ry="18"/>
<text text-anchor="middle" x="933.99" y="-446.3" font-family="Times,serif" font-size="14.00">TreasuryComplianceScripts</text>
</g>
<!-- TreasuryComplianceScripts&#45;&gt;DiemAccount -->
<g id="edge17" class="edge">
<title>TreasuryComplianceScripts&#45;&gt;DiemAccount</title>
<path fill="none" stroke="black" d="M878.25,-434.5C831.52,-422.33 765.18,-405.07 718.95,-393.04"/>
<polygon fill="black" stroke="black" points="719.67,-389.61 709.11,-390.48 717.91,-396.39 719.67,-389.61"/>
</g>
<!-- TreasuryComplianceScripts&#45;&gt;Diem -->
<g id="edge31" class="edge">
<title>TreasuryComplianceScripts&#45;&gt;Diem</title>
<path fill="none" stroke="black" d="M950.51,-431.96C976.12,-403.44 1021.14,-343.69 1007.99,-288 999.77,-253.18 993.05,-244.93 971.99,-216 963.57,-204.44 952.55,-193.12 942.65,-183.93"/>
<polygon fill="black" stroke="black" points="944.8,-181.16 935.03,-177.06 940.11,-186.36 944.8,-181.16"/>
</g>
<!-- TreasuryComplianceScripts&#45;&gt;TransactionFee -->
<g id="edge45" class="edge">
<title>TreasuryComplianceScripts&#45;&gt;TransactionFee</title>
<path fill="none" stroke="black" d="M933.99,-431.87C933.99,-407.67 933.99,-363.21 933.99,-334.39"/>
<polygon fill="black" stroke="black" points="937.49,-334.19 933.99,-324.19 930.49,-334.19 937.49,-334.19"/>
</g>
<!-- TreasuryComplianceScripts&#45;&gt;DualAttestation -->
<g id="edge49" class="edge">
<title>TreasuryComplianceScripts&#45;&gt;DualAttestation</title>
<path fill="none" stroke="black" d="M915.3,-432.21C903.86,-421.87 888.98,-408.28 875.99,-396 852.95,-374.21 827.14,-348.89 808.92,-330.84"/>
<polygon fill="black" stroke="black" points="811.16,-328.13 801.6,-323.58 806.23,-333.1 811.16,-328.13"/>
</g>
<!-- DiemBlock&#45;&gt;DiemSystem -->
<g id="edge18" class="edge">
<title>DiemBlock&#45;&gt;DiemSystem</title>
<path fill="none" stroke="black" d="M1546.1,-360.05C1540.74,-351.71 1534.16,-341.49 1528.22,-332.25"/>
<polygon fill="black" stroke="black" points="1531.14,-330.31 1522.78,-323.79 1525.25,-334.09 1531.14,-330.31"/>
</g>
<!-- ValidatorAdministrationScripts -->
<g id="node17" class="node">
<title>ValidatorAdministrationScripts</title>
<ellipse fill="none" stroke="black" cx="1327.99" cy="-378" rx="120.78" ry="18"/>
<text text-anchor="middle" x="1327.99" y="-374.3" font-family="Times,serif" font-size="14.00">ValidatorAdministrationScripts</text>
</g>
<!-- ValidatorAdministrationScripts&#45;&gt;DiemSystem -->
<g id="edge20" class="edge">
<title>ValidatorAdministrationScripts&#45;&gt;DiemSystem</title>
<path fill="none" stroke="black" d="M1370.2,-360.94C1399.28,-349.88 1437.84,-335.21 1467.41,-323.96"/>
<polygon fill="black" stroke="black" points="1468.97,-327.11 1477.07,-320.28 1466.48,-320.57 1468.97,-327.11"/>
</g>
<!-- SystemAdministrationScripts -->
<g id="node18" class="node">
<title>SystemAdministrationScripts</title>
<ellipse fill="none" stroke="black" cx="1760.99" cy="-450" rx="115.08" ry="18"/>
<text text-anchor="middle" x="1760.99" y="-446.3" font-family="Times,serif" font-size="14.00">SystemAdministrationScripts</text>
</g>
<!-- SystemAdministrationScripts&#45;&gt;DiemVersion -->
<g id="edge23" class="edge">
<title>SystemAdministrationScripts&#45;&gt;DiemVersion</title>
<path fill="none" stroke="black" d="M1760.99,-431.7C1760.99,-423.98 1760.99,-414.71 1760.99,-406.11"/>
<polygon fill="black" stroke="black" points="1764.49,-406.1 1760.99,-396.1 1757.49,-406.1 1764.49,-406.1"/>
</g>
<!-- XUS&#45;&gt;Diem -->
<g id="edge24" class="edge">
<title>XUS&#45;&gt;Diem</title>
<path fill="none" stroke="black" d="M857.74,-218.5C868.44,-208.64 882.77,-195.44 894.77,-184.38"/>
<polygon fill="black" stroke="black" points="897.28,-186.83 902.26,-177.49 892.54,-181.69 897.28,-186.83"/>
</g>
<!-- XDX&#45;&gt;Diem -->
<g id="edge25" class="edge">
<title>XDX&#45;&gt;Diem</title>
<path fill="none" stroke="black" d="M917.99,-215.7C917.99,-207.98 917.99,-198.71 917.99,-190.11"/>
<polygon fill="black" stroke="black" points="921.49,-190.1 917.99,-180.1 914.49,-190.1 921.49,-190.1"/>
</g>
<!-- TransactionFee&#45;&gt;Diem -->
<g id="edge26" class="edge">
<title>TransactionFee&#45;&gt;Diem</title>
<path fill="none" stroke="black" d="M944.1,-288.08C953.56,-270.04 965.1,-240.72 956.99,-216 953.37,-204.98 946.49,-194.36 939.5,-185.56"/>
<polygon fill="black" stroke="black" points="942,-183.1 932.87,-177.73 936.66,-187.62 942,-183.1"/>
</g>
<!-- TransactionFee&#45;&gt;XUS -->
<g id="edge35" class="edge">
<title>TransactionFee&#45;&gt;XUS</title>
<path fill="none" stroke="black" d="M912.65,-288.76C899.29,-278.6 881.98,-265.43 867.84,-254.67"/>
<polygon fill="black" stroke="black" points="869.59,-251.6 859.51,-248.33 865.35,-257.17 869.59,-251.6"/>
</g>
<!-- TransactionFee&#45;&gt;XDX -->
<g id="edge39" class="edge">
<title>TransactionFee&#45;&gt;XDX</title>
<path fill="none" stroke="black" d="M930.04,-287.7C928.27,-279.98 926.15,-270.71 924.19,-262.11"/>
<polygon fill="black" stroke="black" points="927.54,-261.07 921.9,-252.1 920.72,-262.63 927.54,-261.07"/>
</g>
<!-- DualAttestation&#45;&gt;Diem -->
<g id="edge27" class="edge">
<title>DualAttestation&#45;&gt;Diem</title>
<path fill="none" stroke="black" d="M784.32,-287.69C784.47,-268.22 787.54,-236.63 803.99,-216 822.73,-192.49 854.3,-178.94 879.47,-171.43"/>
<polygon fill="black" stroke="black" points="880.41,-174.8 889.11,-168.76 878.54,-168.06 880.41,-174.8"/>
</g>
<!-- DualAttestation&#45;&gt;XDX -->
<g id="edge40" class="edge">
<title>DualAttestation&#45;&gt;XDX</title>
<path fill="none" stroke="black" d="M814.18,-289.64C835.86,-278.23 865.36,-262.7 887.37,-251.12"/>
<polygon fill="black" stroke="black" points="889.08,-254.17 896.3,-246.42 885.82,-247.98 889.08,-254.17"/>
</g>
<!-- DesignatedDealer&#45;&gt;Diem -->
<g id="edge28" class="edge">
<title>DesignatedDealer&#45;&gt;Diem</title>
<path fill="none" stroke="black" d="M589.44,-290.47C660.64,-262.85 814.55,-203.13 883.43,-176.41"/>
<polygon fill="black" stroke="black" points="884.9,-179.59 892.96,-172.71 882.37,-173.07 884.9,-179.59"/>
</g>
<!-- DesignatedDealer&#45;&gt;XUS -->
<g id="edge36" class="edge">
<title>DesignatedDealer&#45;&gt;XUS</title>
<path fill="none" stroke="black" d="M602.5,-292.81C660.5,-278.81 754.21,-256.19 805.53,-243.8"/>
<polygon fill="black" stroke="black" points="806.6,-247.14 815.5,-241.39 804.96,-240.34 806.6,-247.14"/>
</g>
</g>
</svg>
