<?xml version="1.0" encoding="UTF-8" standalone="no"?>
<!DOCTYPE svg PUBLIC "-//W3C//DTD SVG 1.1//EN"
 "http://www.w3.org/Graphics/SVG/1.1/DTD/svg11.dtd">
<!-- Generated by graphviz version 2.46.1 (20210213.1702)
 -->
<!-- Title: G Pages: 1 -->
<svg width="459pt" height="373pt"
 viewBox="0.00 0.00 459.00 373.00" xmlns="http://www.w3.org/2000/svg" xmlns:xlink="http://www.w3.org/1999/xlink">
<g id="graph0" class="graph" transform="scale(1 1) rotate(0) translate(4 369)">
<title>G</title>
<polygon fill="white" stroke="transparent" points="-4,4 -4,-369 455,-369 455,4 -4,4"/>
<g id="clust1" class="cluster">
<title>cluster_Vector</title>
<polygon fill="none" stroke="black" points="8,-246 8,-321 88,-321 88,-246 8,-246"/>
<text text-anchor="middle" x="48" y="-305.8" font-family="Times,serif" font-size="14.00">Vector</text>
</g>
<g id="clust2" class="cluster">
<title>cluster_DiemConfig</title>
<polygon fill="none" stroke="black" points="156,-163 156,-238 240,-238 240,-163 156,-163"/>
<text text-anchor="middle" x="198" y="-222.8" font-family="Times,serif" font-size="14.00">DiemConfig</text>
</g>
<g id="clust3" class="cluster">
<title>cluster_Errors</title>
<polygon fill="none" stroke="black" points="69,-8 69,-155 205,-155 205,-8 69,-8"/>
<text text-anchor="middle" x="137" y="-139.8" font-family="Times,serif" font-size="14.00">Errors</text>
</g>
<g id="clust4" class="cluster">
<title>cluster_CoreAddresses</title>
<polygon fill="none" stroke="black" points="213,-80 213,-155 443,-155 443,-80 213,-80"/>
<text text-anchor="middle" x="328" y="-139.8" font-family="Times,serif" font-size="14.00">CoreAddresses</text>
</g>
<!-- validator_set_size -->
<g id="node1" class="node">
<title>validator_set_size</title>
<ellipse fill="none" stroke="black" cx="123" cy="-347" rx="74.19" ry="18"/>
<text text-anchor="middle" x="123" y="-343.3" font-family="Times,serif" font-size="14.00">validator_set_size</text>
</g>
<!-- Vector::length -->
<g id="node2" class="node">
<title>Vector::length</title>
<ellipse fill="none" stroke="black" cx="48" cy="-272" rx="32.49" ry="18"/>
<text text-anchor="middle" x="48" y="-268.3" font-family="Times,serif" font-size="14.00">length</text>
</g>
<!-- validator_set_size&#45;&gt;Vector::length -->
<g id="edge1" class="edge">
<title>validator_set_size&#45;&gt;Vector::length</title>
<path fill="none" stroke="black" d="M100.14,-329.65C96.64,-326.88 93.16,-323.94 90,-321 81.98,-313.53 73.88,-304.65 66.97,-296.58"/>
<polygon fill="black" stroke="black" points="69.6,-294.27 60.49,-288.86 64.23,-298.77 69.6,-294.27"/>
</g>
<!-- get_diem_system_config -->
<g id="node3" class="node">
<title>get_diem_system_config</title>
<ellipse fill="none" stroke="black" cx="198" cy="-272" rx="99.38" ry="18"/>
<text text-anchor="middle" x="198" y="-268.3" font-family="Times,serif" font-size="14.00">get_diem_system_config</text>
</g>
<!-- validator_set_size&#45;&gt;get_diem_system_config -->
<g id="edge2" class="edge">
<title>validator_set_size&#45;&gt;get_diem_system_config</title>
<path fill="none" stroke="black" d="M140.02,-329.44C149.92,-319.8 162.57,-307.48 173.53,-296.82"/>
<polygon fill="black" stroke="black" points="176.06,-299.23 180.79,-289.75 171.18,-294.22 176.06,-299.23"/>
</g>
<!-- DiemConfig::get -->
<g id="node4" class="node">
<title>DiemConfig::get</title>
<ellipse fill="none" stroke="black" cx="198" cy="-189" rx="27" ry="18"/>
<text text-anchor="middle" x="198" y="-185.3" font-family="Times,serif" font-size="14.00">get</text>
</g>
<!-- get_diem_system_config&#45;&gt;DiemConfig::get -->
<g id="edge3" class="edge">
<title>get_diem_system_config&#45;&gt;DiemConfig::get</title>
<path fill="none" stroke="black" d="M198,-253.82C198,-243.19 198,-229.31 198,-217.2"/>
<polygon fill="black" stroke="black" points="201.5,-217.15 198,-207.15 194.5,-217.15 201.5,-217.15"/>
</g>
<!-- Errors::not_published -->
<g id="node5" class="node">
<title>Errors::not_published</title>
<ellipse fill="none" stroke="black" cx="137" cy="-106" rx="60.39" ry="18"/>
<text text-anchor="middle" x="137" y="-102.3" font-family="Times,serif" font-size="14.00">not_published</text>
</g>
<!-- DiemConfig::get&#45;&gt;Errors::not_published -->
<g id="edge4" class="edge">
<title>DiemConfig::get&#45;&gt;Errors::not_published</title>
<path fill="none" stroke="black" d="M186.24,-172.38C177.61,-160.92 165.7,-145.11 155.76,-131.91"/>
<polygon fill="black" stroke="black" points="158.38,-129.57 149.57,-123.69 152.79,-133.78 158.38,-129.57"/>
</g>
<!-- CoreAddresses::DIEM_ROOT_ADDRESS -->
<g id="node6" class="node">
<title>CoreAddresses::DIEM_ROOT_ADDRESS</title>
<ellipse fill="none" stroke="black" cx="328" cy="-106" rx="106.68" ry="18"/>
<text text-anchor="middle" x="328" y="-102.3" font-family="Times,serif" font-size="14.00">DIEM_ROOT_ADDRESS</text>
</g>
<!-- DiemConfig::get&#45;&gt;CoreAddresses::DIEM_ROOT_ADDRESS -->
<g id="edge5" class="edge">
<title>DiemConfig::get&#45;&gt;CoreAddresses::DIEM_ROOT_ADDRESS</title>
<path fill="none" stroke="black" d="M217.18,-176.05C237.06,-163.66 268.57,-144.03 292.91,-128.86"/>
<polygon fill="black" stroke="black" points="294.89,-131.75 301.53,-123.5 291.19,-125.81 294.89,-131.75"/>
</g>
<!-- Errors::make -->
<g id="node7" class="node">
<title>Errors::make</title>
<ellipse fill="none" stroke="black" cx="137" cy="-34" rx="30.59" ry="18"/>
<text text-anchor="middle" x="137" y="-30.3" font-family="Times,serif" font-size="14.00">make</text>
</g>
<!-- Errors::not_published&#45;&gt;Errors::make -->
<g id="edge6" class="edge">
<title>Errors::not_published&#45;&gt;Errors::make</title>
<path fill="none" stroke="black" d="M137,-87.7C137,-79.98 137,-70.71 137,-62.11"/>
<polygon fill="black" stroke="black" points="140.5,-62.1 137,-52.1 133.5,-62.1 140.5,-62.1"/>
</g>
</g>
</svg>
