<?xml version="1.0" encoding="UTF-8" standalone="no"?>
<!DOCTYPE svg PUBLIC "-//W3C//DTD SVG 1.1//EN"
 "http://www.w3.org/Graphics/SVG/1.1/DTD/svg11.dtd">
<!-- Generated by graphviz version 2.46.1 (20210213.1702)
 -->
<!-- Title: G Pages: 1 -->
<svg width="1030pt" height="448pt"
 viewBox="0.00 0.00 1030.00 448.00" xmlns="http://www.w3.org/2000/svg" xmlns:xlink="http://www.w3.org/1999/xlink">
<g id="graph0" class="graph" transform="scale(1 1) rotate(0) translate(4 444)">
<title>G</title>
<polygon fill="white" stroke="transparent" points="-4,4 -4,-444 1026,-444 1026,4 -4,4"/>
<g id="clust1" class="cluster">
<title>cluster_Signer</title>
<polygon fill="none" stroke="black" points="8,-246 8,-396 158,-396 158,-246 8,-246"/>
<text text-anchor="middle" x="83" y="-380.8" font-family="Times,serif" font-size="14.00">Signer</text>
</g>
<g id="clust2" class="cluster">
<title>cluster_Errors</title>
<polygon fill="none" stroke="black" points="14,-8 14,-166 454,-166 454,-8 14,-8"/>
<text text-anchor="middle" x="234" y="-150.8" font-family="Times,serif" font-size="14.00">Errors</text>
</g>
<g id="clust3" class="cluster">
<title>cluster_CoreAddresses</title>
<polygon fill="none" stroke="black" points="630,-8 630,-83 860,-83 860,-8 630,-8"/>
<text text-anchor="middle" x="745" y="-67.8" font-family="Times,serif" font-size="14.00">CoreAddresses</text>
</g>
<g id="clust4" class="cluster">
<title>cluster_DiemTimestamp</title>
<polygon fill="none" stroke="black" points="468,-91 468,-321 754,-321 754,-91 468,-91"/>
<text text-anchor="middle" x="611" y="-305.8" font-family="Times,serif" font-size="14.00">DiemTimestamp</text>
</g>
<g id="clust5" class="cluster">
<title>cluster_Event</title>
<polygon fill="none" stroke="black" points="274,-174 274,-321 460,-321 460,-174 274,-174"/>
<text text-anchor="middle" x="367" y="-305.8" font-family="Times,serif" font-size="14.00">Event</text>
</g>
<!-- set -->
<g id="node1" class="node">
<title>set</title>
<ellipse fill="none" stroke="black" cx="216" cy="-422" rx="27" ry="18"/>
<text text-anchor="middle" x="216" y="-418.3" font-family="Times,serif" font-size="14.00">set</text>
</g>
<!-- Signer::address_of -->
<g id="node2" class="node">
<title>Signer::address_of</title>
<ellipse fill="none" stroke="black" cx="92" cy="-347" rx="48.99" ry="18"/>
<text text-anchor="middle" x="92" y="-343.3" font-family="Times,serif" font-size="14.00">address_of</text>
</g>
<!-- set&#45;&gt;Signer::address_of -->
<g id="edge1" class="edge">
<title>set&#45;&gt;Signer::address_of</title>
<path fill="none" stroke="black" d="M194.15,-411.32C184.72,-406.94 173.66,-401.51 164,-396 149.68,-387.84 134.42,-377.86 121.64,-369.12"/>
<polygon fill="black" stroke="black" points="123.46,-366.12 113.24,-363.3 119.47,-371.87 123.46,-366.12"/>
</g>
<!-- Errors::not_published -->
<g id="node3" class="node">
<title>Errors::not_published</title>
<ellipse fill="none" stroke="black" cx="256" cy="-117" rx="60.39" ry="18"/>
<text text-anchor="middle" x="256" y="-113.3" font-family="Times,serif" font-size="14.00">not_published</text>
</g>
<!-- set&#45;&gt;Errors::not_published -->
<g id="edge2" class="edge">
<title>set&#45;&gt;Errors::not_published</title>
<path fill="none" stroke="black" d="M216.6,-403.78C218.24,-363.34 223.81,-259.29 240,-174 241.84,-164.33 244.59,-153.91 247.3,-144.72"/>
<polygon fill="black" stroke="black" points="250.7,-145.55 250.28,-134.96 244.01,-143.5 250.7,-145.55"/>
</g>
<!-- Errors::requires_capability -->
<g id="node4" class="node">
<title>Errors::requires_capability</title>
<ellipse fill="none" stroke="black" cx="100" cy="-117" rx="77.99" ry="18"/>
<text text-anchor="middle" x="100" y="-113.3" font-family="Times,serif" font-size="14.00">requires_capability</text>
</g>
<!-- set&#45;&gt;Errors::requires_capability -->
<g id="edge3" class="edge">
<title>set&#45;&gt;Errors::requires_capability</title>
<path fill="none" stroke="black" d="M211.69,-404.06C203.46,-372.47 184.31,-302.65 162,-246 147.72,-209.74 127.48,-169.53 114.06,-144.03"/>
<polygon fill="black" stroke="black" points="117.05,-142.21 109.27,-135.02 110.87,-145.49 117.05,-142.21"/>
</g>
<!-- CoreAddresses::DIEM_ROOT_ADDRESS -->
<g id="node5" class="node">
<title>CoreAddresses::DIEM_ROOT_ADDRESS</title>
<ellipse fill="none" stroke="black" cx="745" cy="-34" rx="106.68" ry="18"/>
<text text-anchor="middle" x="745" y="-30.3" font-family="Times,serif" font-size="14.00">DIEM_ROOT_ADDRESS</text>
</g>
<!-- set&#45;&gt;CoreAddresses::DIEM_ROOT_ADDRESS -->
<g id="edge4" class="edge">
<title>set&#45;&gt;CoreAddresses::DIEM_ROOT_ADDRESS</title>
<path fill="none" stroke="black" d="M243,-421.32C367.35,-422.23 883.96,-419.92 1003,-321 1020.65,-306.34 1022,-295.94 1022,-273 1022,-273 1022,-273 1022,-199 1022,-109.23 912.94,-67.55 831.69,-48.95"/>
<polygon fill="black" stroke="black" points="831.94,-45.42 821.42,-46.69 830.44,-52.26 831.94,-45.42"/>
</g>
<!-- reconfigure_ -->
<g id="node6" class="node">
<title>reconfigure_</title>
<ellipse fill="none" stroke="black" cx="555" cy="-347" rx="55.49" ry="18"/>
<text text-anchor="middle" x="555" y="-343.3" font-family="Times,serif" font-size="14.00">reconfigure_</text>
</g>
<!-- set&#45;&gt;reconfigure_ -->
<g id="edge5" class="edge">
<title>set&#45;&gt;reconfigure_</title>
<path fill="none" stroke="black" d="M241.48,-415.51C296.19,-403.73 425.94,-375.79 500.24,-359.79"/>
<polygon fill="black" stroke="black" points="501.3,-363.14 510.34,-357.62 499.83,-356.3 501.3,-363.14"/>
</g>
<!-- Signer::borrow_address -->
<g id="node7" class="node">
<title>Signer::borrow_address</title>
<ellipse fill="none" stroke="black" cx="83" cy="-272" rx="66.89" ry="18"/>
<text text-anchor="middle" x="83" y="-268.3" font-family="Times,serif" font-size="14.00">borrow_address</text>
</g>
<!-- Signer::address_of&#45;&gt;Signer::borrow_address -->
<g id="edge6" class="edge">
<title>Signer::address_of&#45;&gt;Signer::borrow_address</title>
<path fill="none" stroke="black" d="M89.87,-328.7C88.82,-320.25 87.55,-309.87 86.37,-300.37"/>
<polygon fill="black" stroke="black" points="89.81,-299.67 85.12,-290.18 82.87,-300.53 89.81,-299.67"/>
</g>
<!-- Errors::make -->
<g id="node8" class="node">
<title>Errors::make</title>
<ellipse fill="none" stroke="black" cx="256" cy="-34" rx="30.59" ry="18"/>
<text text-anchor="middle" x="256" y="-30.3" font-family="Times,serif" font-size="14.00">make</text>
</g>
<!-- Errors::not_published&#45;&gt;Errors::make -->
<g id="edge7" class="edge">
<title>Errors::not_published&#45;&gt;Errors::make</title>
<path fill="none" stroke="black" d="M256,-98.82C256,-88.19 256,-74.31 256,-62.2"/>
<polygon fill="black" stroke="black" points="259.5,-62.15 256,-52.15 252.5,-62.15 259.5,-62.15"/>
</g>
<!-- Errors::requires_capability&#45;&gt;Errors::make -->
<g id="edge8" class="edge">
<title>Errors::requires_capability&#45;&gt;Errors::make</title>
<path fill="none" stroke="black" d="M130.08,-100.38C157.16,-86.32 196.84,-65.72 224.39,-51.41"/>
<polygon fill="black" stroke="black" points="226.32,-54.35 233.59,-46.64 223.1,-48.14 226.32,-54.35"/>
</g>
<!-- reconfigure_&#45;&gt;CoreAddresses::DIEM_ROOT_ADDRESS -->
<g id="edge10" class="edge">
<title>reconfigure_&#45;&gt;CoreAddresses::DIEM_ROOT_ADDRESS</title>
<path fill="none" stroke="black" d="M609.01,-343C665.78,-339.27 748.24,-332.04 758,-321 822.94,-247.57 780.1,-117.53 757.01,-61.69"/>
<polygon fill="black" stroke="black" points="760.09,-59.99 752.96,-52.16 753.65,-62.73 760.09,-59.99"/>
</g>
<!-- Errors::invalid_state -->
<g id="node9" class="node">
<title>Errors::invalid_state</title>
<ellipse fill="none" stroke="black" cx="390" cy="-117" rx="55.79" ry="18"/>
<text text-anchor="middle" x="390" y="-113.3" font-family="Times,serif" font-size="14.00">invalid_state</text>
</g>
<!-- reconfigure_&#45;&gt;Errors::invalid_state -->
<g id="edge9" class="edge">
<title>reconfigure_&#45;&gt;Errors::invalid_state</title>
<path fill="none" stroke="black" d="M499.86,-345.09C421.37,-343.21 285.18,-337.57 270,-321 225.87,-272.83 227.26,-223.41 270,-174 278.08,-164.66 313.58,-170.7 325,-166 339.51,-160.03 353.75,-150.11 365.18,-140.84"/>
<polygon fill="black" stroke="black" points="367.59,-143.39 372.98,-134.27 363.08,-138.04 367.59,-143.39"/>
</g>
<!-- DiemTimestamp::is_genesis -->
<g id="node10" class="node">
<title>DiemTimestamp::is_genesis</title>
<ellipse fill="none" stroke="black" cx="699" cy="-272" rx="46.59" ry="18"/>
<text text-anchor="middle" x="699" y="-268.3" font-family="Times,serif" font-size="14.00">is_genesis</text>
</g>
<!-- reconfigure_&#45;&gt;DiemTimestamp::is_genesis -->
<g id="edge11" class="edge">
<title>reconfigure_&#45;&gt;DiemTimestamp::is_genesis</title>
<path fill="none" stroke="black" d="M601.22,-336.88C615.14,-333.08 630.13,-327.91 643,-321 654.99,-314.56 666.67,-305.2 676.24,-296.45"/>
<polygon fill="black" stroke="black" points="678.9,-298.75 683.74,-289.32 674.08,-293.68 678.9,-298.75"/>
</g>
<!-- DiemTimestamp::now_microseconds -->
<g id="node11" class="node">
<title>DiemTimestamp::now_microseconds</title>
<ellipse fill="none" stroke="black" cx="555" cy="-272" rx="79.09" ry="18"/>
<text text-anchor="middle" x="555" y="-268.3" font-family="Times,serif" font-size="14.00">now_microseconds</text>
</g>
<!-- reconfigure_&#45;&gt;DiemTimestamp::now_microseconds -->
<g id="edge12" class="edge">
<title>reconfigure_&#45;&gt;DiemTimestamp::now_microseconds</title>
<path fill="none" stroke="black" d="M555,-328.7C555,-320.25 555,-309.87 555,-300.37"/>
<polygon fill="black" stroke="black" points="558.5,-300.18 555,-290.18 551.5,-300.18 558.5,-300.18"/>
</g>
<!-- Event::emit_event -->
<g id="node12" class="node">
<title>Event::emit_event</title>
<ellipse fill="none" stroke="black" cx="385" cy="-272" rx="50.09" ry="18"/>
<text text-anchor="middle" x="385" y="-268.3" font-family="Times,serif" font-size="14.00">emit_event</text>
</g>
<!-- reconfigure_&#45;&gt;Event::emit_event -->
<g id="edge13" class="edge">
<title>reconfigure_&#45;&gt;Event::emit_event</title>
<path fill="none" stroke="black" d="M510.18,-336.33C495.19,-332.4 478.59,-327.29 464,-321 447.04,-313.69 429.36,-303.25 415.03,-293.97"/>
<polygon fill="black" stroke="black" points="416.86,-290.98 406.58,-288.38 412.99,-296.82 416.86,-290.98"/>
</g>
<!-- reconfiguration_enabled -->
<g id="node13" class="node">
<title>reconfiguration_enabled</title>
<ellipse fill="none" stroke="black" cx="898" cy="-272" rx="96.38" ry="18"/>
<text text-anchor="middle" x="898" y="-268.3" font-family="Times,serif" font-size="14.00">reconfiguration_enabled</text>
</g>
<!-- reconfigure_&#45;&gt;reconfiguration_enabled -->
<g id="edge14" class="edge">
<title>reconfigure_&#45;&gt;reconfiguration_enabled</title>
<path fill="none" stroke="black" d="M610,-344.8C657.76,-342.65 728.42,-336.8 788,-321 812.28,-314.56 838.08,-303.55 858.59,-293.69"/>
<polygon fill="black" stroke="black" points="860.18,-296.81 867.62,-289.26 857.1,-290.52 860.18,-296.81"/>
</g>
<!-- Errors::invalid_state&#45;&gt;Errors::make -->
<g id="edge15" class="edge">
<title>Errors::invalid_state&#45;&gt;Errors::make</title>
<path fill="none" stroke="black" d="M364.8,-100.76C342.21,-87.11 309.07,-67.08 285.31,-52.71"/>
<polygon fill="black" stroke="black" points="287.07,-49.69 276.7,-47.51 283.45,-55.68 287.07,-49.69"/>
</g>
<!-- DiemTimestamp::is_genesis&#45;&gt;CoreAddresses::DIEM_ROOT_ADDRESS -->
<g id="edge16" class="edge">
<title>DiemTimestamp::is_genesis&#45;&gt;CoreAddresses::DIEM_ROOT_ADDRESS</title>
<path fill="none" stroke="black" d="M702.31,-254.03C710.2,-213.56 730.16,-111.12 739.73,-62.03"/>
<polygon fill="black" stroke="black" points="743.18,-62.62 741.66,-52.14 736.31,-61.28 743.18,-62.62"/>
</g>
<!-- DiemTimestamp::now_microseconds&#45;&gt;CoreAddresses::DIEM_ROOT_ADDRESS -->
<g id="edge17" class="edge">
<title>DiemTimestamp::now_microseconds&#45;&gt;CoreAddresses::DIEM_ROOT_ADDRESS</title>
<path fill="none" stroke="black" d="M583.87,-255.11C599.33,-245.68 618.02,-232.7 632,-218 656.28,-192.48 706.14,-105.19 730.7,-61.03"/>
<polygon fill="black" stroke="black" points="733.89,-62.49 735.67,-52.05 727.76,-59.1 733.89,-62.49"/>
</g>
<!-- DiemTimestamp::assert_operating -->
<g id="node14" class="node">
<title>DiemTimestamp::assert_operating</title>
<ellipse fill="none" stroke="black" cx="555" cy="-200" rx="68.49" ry="18"/>
<text text-anchor="middle" x="555" y="-196.3" font-family="Times,serif" font-size="14.00">assert_operating</text>
</g>
<!-- DiemTimestamp::now_microseconds&#45;&gt;DiemTimestamp::assert_operating -->
<g id="edge18" class="edge">
<title>DiemTimestamp::now_microseconds&#45;&gt;DiemTimestamp::assert_operating</title>
<path fill="none" stroke="black" d="M555,-253.7C555,-245.98 555,-236.71 555,-228.11"/>
<polygon fill="black" stroke="black" points="558.5,-228.1 555,-218.1 551.5,-228.1 558.5,-228.1"/>
</g>
<!-- Event::write_to_event_store -->
<g id="node15" class="node">
<title>Event::write_to_event_store</title>
<ellipse fill="none" stroke="black" cx="367" cy="-200" rx="85.29" ry="18"/>
<text text-anchor="middle" x="367" y="-196.3" font-family="Times,serif" font-size="14.00">write_to_event_store</text>
</g>
<!-- Event::emit_event&#45;&gt;Event::write_to_event_store -->
<g id="edge19" class="edge">
<title>Event::emit_event&#45;&gt;Event::write_to_event_store</title>
<path fill="none" stroke="black" d="M380.64,-254.05C378.64,-246.26 376.21,-236.82 373.96,-228.08"/>
<polygon fill="black" stroke="black" points="377.32,-227.09 371.44,-218.28 370.54,-228.83 377.32,-227.09"/>
</g>
<!-- reconfiguration_enabled&#45;&gt;CoreAddresses::DIEM_ROOT_ADDRESS -->
<g id="edge20" class="edge">
<title>reconfiguration_enabled&#45;&gt;CoreAddresses::DIEM_ROOT_ADDRESS</title>
<path fill="none" stroke="black" d="M888.28,-253.74C869.78,-221.23 827.8,-148.97 788,-91 780.92,-80.68 772.64,-69.69 765.26,-60.2"/>
<polygon fill="black" stroke="black" points="767.98,-58 759.05,-52.3 762.48,-62.32 767.98,-58"/>
</g>
<!-- DiemTimestamp::assert_operating&#45;&gt;Errors::invalid_state -->
<g id="edge21" class="edge">
<title>DiemTimestamp::assert_operating&#45;&gt;Errors::invalid_state</title>
<path fill="none" stroke="black" d="M512.49,-185.83C496.91,-180.43 479.35,-173.64 464,-166 448.96,-158.52 433.22,-148.64 420.15,-139.78"/>
<polygon fill="black" stroke="black" points="421.78,-136.66 411.56,-133.86 417.81,-142.42 421.78,-136.66"/>
</g>
<!-- DiemTimestamp::is_operating -->
<g id="node16" class="node">
<title>DiemTimestamp::is_operating</title>
<ellipse fill="none" stroke="black" cx="564" cy="-117" rx="53.89" ry="18"/>
<text text-anchor="middle" x="564" y="-113.3" font-family="Times,serif" font-size="14.00">is_operating</text>
</g>
<!-- DiemTimestamp::assert_operating&#45;&gt;DiemTimestamp::is_operating -->
<g id="edge22" class="edge">
<title>DiemTimestamp::assert_operating&#45;&gt;DiemTimestamp::is_operating</title>
<path fill="none" stroke="black" d="M556.91,-181.82C558.09,-171.19 559.63,-157.31 560.98,-145.2"/>
<polygon fill="black" stroke="black" points="564.47,-145.48 562.09,-135.15 557.51,-144.71 564.47,-145.48"/>
</g>
<!-- DiemTimestamp::is_operating&#45;&gt;CoreAddresses::DIEM_ROOT_ADDRESS -->
<g id="edge23" class="edge">
<title>DiemTimestamp::is_operating&#45;&gt;CoreAddresses::DIEM_ROOT_ADDRESS</title>
<path fill="none" stroke="black" d="M595.12,-102.08C624,-89.15 667.34,-69.75 700,-55.14"/>
<polygon fill="black" stroke="black" points="701.63,-58.24 709.33,-50.96 698.77,-51.85 701.63,-58.24"/>
</g>
</g>
</svg>
