<?xml version="1.0" encoding="UTF-8" standalone="no"?>
<!DOCTYPE svg PUBLIC "-//W3C//DTD SVG 1.1//EN"
 "http://www.w3.org/Graphics/SVG/1.1/DTD/svg11.dtd">
<!-- Generated by graphviz version 2.46.1 (20210213.1702)
 -->
<!-- Title: G Pages: 1 -->
<svg width="1667pt" height="440pt"
 viewBox="0.00 0.00 1667.00 440.00" xmlns="http://www.w3.org/2000/svg" xmlns:xlink="http://www.w3.org/1999/xlink">
<g id="graph0" class="graph" transform="scale(1 1) rotate(0) translate(4 436)">
<title>G</title>
<polygon fill="white" stroke="transparent" points="-4,4 -4,-436 1663,-436 1663,4 -4,4"/>
<g id="clust1" class="cluster">
<title>cluster_Signer</title>
<polygon fill="none" stroke="black" points="8,-8 8,-158 158,-158 158,-8 8,-8"/>
<text text-anchor="middle" x="83" y="-142.8" font-family="Times,serif" font-size="14.00">Signer</text>
</g>
<g id="clust2" class="cluster">
<title>cluster_Errors</title>
<polygon fill="none" stroke="black" points="166,-8 166,-158 1047,-158 1047,-8 166,-8"/>
<text text-anchor="middle" x="606.5" y="-142.8" font-family="Times,serif" font-size="14.00">Errors</text>
</g>
<g id="clust3" class="cluster">
<title>cluster_Roles</title>
<polygon fill="none" stroke="black" points="31,-166 31,-241 245,-241 245,-166 31,-166"/>
<text text-anchor="middle" x="138" y="-225.8" font-family="Times,serif" font-size="14.00">Roles</text>
</g>
<g id="clust4" class="cluster">
<title>cluster_Vector</title>
<polygon fill="none" stroke="black" points="437,-166 437,-241 716,-241 716,-166 437,-166"/>
<text text-anchor="middle" x="576.5" y="-225.8" font-family="Times,serif" font-size="14.00">Vector</text>
</g>
<g id="clust5" class="cluster">
<title>cluster_CoreAddresses</title>
<polygon fill="none" stroke="black" points="1128,-8 1128,-83 1400,-83 1400,-8 1128,-8"/>
<text text-anchor="middle" x="1264" y="-67.8" font-family="Times,serif" font-size="14.00">CoreAddresses</text>
</g>
<g id="clust6" class="cluster">
<title>cluster_Event</title>
<polygon fill="none" stroke="black" points="1465,-166 1465,-316 1651,-316 1651,-166 1465,-166"/>
<text text-anchor="middle" x="1558" y="-300.8" font-family="Times,serif" font-size="14.00">Event</text>
</g>
<!-- preburn_to -->
<g id="node1" class="node">
<title>preburn_to</title>
<ellipse fill="none" stroke="black" cx="596" cy="-414" rx="49.29" ry="18"/>
<text text-anchor="middle" x="596" y="-410.3" font-family="Times,serif" font-size="14.00">preburn_to</text>
</g>
<!-- Signer::address_of -->
<g id="node2" class="node">
<title>Signer::address_of</title>
<ellipse fill="none" stroke="black" cx="92" cy="-109" rx="48.99" ry="18"/>
<text text-anchor="middle" x="92" y="-105.3" font-family="Times,serif" font-size="14.00">address_of</text>
</g>
<!-- preburn_to&#45;&gt;Signer::address_of -->
<g id="edge1" class="edge">
<title>preburn_to&#45;&gt;Signer::address_of</title>
<path fill="none" stroke="black" d="M546.87,-411.46C442.93,-407.54 204.38,-394.93 132,-360 64.64,-327.5 41.62,-310.1 13,-241 0.24,-210.2 -2.31,-195.61 13,-166 21.45,-149.65 37.13,-137.04 52.3,-127.96"/>
<polygon fill="black" stroke="black" points="54.11,-130.96 61.12,-123.02 50.69,-124.85 54.11,-130.96"/>
</g>
<!-- Errors::invalid_argument -->
<g id="node3" class="node">
<title>Errors::invalid_argument</title>
<ellipse fill="none" stroke="black" cx="688" cy="-109" rx="73.39" ry="18"/>
<text text-anchor="middle" x="688" y="-105.3" font-family="Times,serif" font-size="14.00">invalid_argument</text>
</g>
<!-- preburn_to&#45;&gt;Errors::invalid_argument -->
<g id="edge2" class="edge">
<title>preburn_to&#45;&gt;Errors::invalid_argument</title>
<path fill="none" stroke="black" d="M591.24,-396.05C580.66,-361.78 551.67,-284.51 497,-249 484.98,-241.19 442.49,-251.75 433,-241 410.94,-216.01 409.98,-190.11 433,-166 446.21,-152.16 586.64,-163.39 605,-158 623.83,-152.48 642.91,-141.86 658.03,-132.02"/>
<polygon fill="black" stroke="black" points="660.1,-134.85 666.43,-126.36 656.19,-129.04 660.1,-134.85"/>
</g>
<!-- Roles::assert_designated_dealer -->
<g id="node4" class="node">
<title>Roles::assert_designated_dealer</title>
<ellipse fill="none" stroke="black" cx="138" cy="-192" rx="98.58" ry="18"/>
<text text-anchor="middle" x="138" y="-188.3" font-family="Times,serif" font-size="14.00">assert_designated_dealer</text>
</g>
<!-- preburn_to&#45;&gt;Roles::assert_designated_dealer -->
<g id="edge3" class="edge">
<title>preburn_to&#45;&gt;Roles::assert_designated_dealer</title>
<path fill="none" stroke="black" d="M547.71,-410.15C453.59,-404.05 249.23,-387.96 185,-360 156.93,-347.78 145.01,-343.71 132,-316 117.71,-285.55 123.25,-246.08 129.64,-220.17"/>
<polygon fill="black" stroke="black" points="133.08,-220.85 132.28,-210.29 126.32,-219.04 133.08,-220.85"/>
</g>
<!-- value -->
<g id="node5" class="node">
<title>value</title>
<ellipse fill="none" stroke="black" cx="1078" cy="-192" rx="29.8" ry="18"/>
<text text-anchor="middle" x="1078" y="-188.3" font-family="Times,serif" font-size="14.00">value</text>
</g>
<!-- preburn_to&#45;&gt;value -->
<g id="edge4" class="edge">
<title>preburn_to&#45;&gt;value</title>
<path fill="none" stroke="black" d="M645.6,-413.57C710.61,-412.4 826.61,-403.62 914,-360 980.81,-326.65 1036.21,-255.12 1062.16,-217.42"/>
<polygon fill="black" stroke="black" points="1065.12,-219.28 1067.82,-209.04 1059.32,-215.36 1065.12,-219.28"/>
</g>
<!-- add_preburn_to_queue -->
<g id="node6" class="node">
<title>add_preburn_to_queue</title>
<ellipse fill="none" stroke="black" cx="725" cy="-267" rx="91.78" ry="18"/>
<text text-anchor="middle" x="725" y="-263.3" font-family="Times,serif" font-size="14.00">add_preburn_to_queue</text>
</g>
<!-- preburn_to&#45;&gt;add_preburn_to_queue -->
<g id="edge5" class="edge">
<title>preburn_to&#45;&gt;add_preburn_to_queue</title>
<path fill="none" stroke="black" d="M610.55,-396.65C633.07,-371.33 676.54,-322.47 702.95,-292.79"/>
<polygon fill="black" stroke="black" points="705.88,-294.76 709.91,-284.96 700.65,-290.11 705.88,-294.76"/>
</g>
<!-- preburn_with_resource -->
<g id="node7" class="node">
<title>preburn_with_resource</title>
<ellipse fill="none" stroke="black" cx="1219" cy="-342" rx="92.08" ry="18"/>
<text text-anchor="middle" x="1219" y="-338.3" font-family="Times,serif" font-size="14.00">preburn_with_resource</text>
</g>
<!-- preburn_to&#45;&gt;preburn_with_resource -->
<g id="edge6" class="edge">
<title>preburn_to&#45;&gt;preburn_with_resource</title>
<path fill="none" stroke="black" d="M642.57,-407.77C746.16,-396.13 997.05,-367.94 1131.1,-352.88"/>
<polygon fill="black" stroke="black" points="1131.79,-356.32 1141.34,-351.73 1131.01,-349.36 1131.79,-356.32"/>
</g>
<!-- upgrade_preburn -->
<g id="node8" class="node">
<title>upgrade_preburn</title>
<ellipse fill="none" stroke="black" cx="265" cy="-342" rx="70.69" ry="18"/>
<text text-anchor="middle" x="265" y="-338.3" font-family="Times,serif" font-size="14.00">upgrade_preburn</text>
</g>
<!-- preburn_to&#45;&gt;upgrade_preburn -->
<g id="edge7" class="edge">
<title>preburn_to&#45;&gt;upgrade_preburn</title>
<path fill="none" stroke="black" d="M554.41,-404.21C497.27,-392.12 394.01,-370.28 327.53,-356.22"/>
<polygon fill="black" stroke="black" points="328.1,-352.77 317.6,-354.12 326.65,-359.62 328.1,-352.77"/>
</g>
<!-- zero -->
<g id="node9" class="node">
<title>zero</title>
<ellipse fill="none" stroke="black" cx="878" cy="-342" rx="27" ry="18"/>
<text text-anchor="middle" x="878" y="-338.3" font-family="Times,serif" font-size="14.00">zero</text>
</g>
<!-- preburn_to&#45;&gt;zero -->
<g id="edge8" class="edge">
<title>preburn_to&#45;&gt;zero</title>
<path fill="none" stroke="black" d="M635.51,-403.19C690.79,-389.47 790.35,-364.76 843.06,-351.67"/>
<polygon fill="black" stroke="black" points="844.09,-355.02 852.95,-349.22 842.4,-348.23 844.09,-355.02"/>
</g>
<!-- Signer::borrow_address -->
<g id="node10" class="node">
<title>Signer::borrow_address</title>
<ellipse fill="none" stroke="black" cx="83" cy="-34" rx="66.89" ry="18"/>
<text text-anchor="middle" x="83" y="-30.3" font-family="Times,serif" font-size="14.00">borrow_address</text>
</g>
<!-- Signer::address_of&#45;&gt;Signer::borrow_address -->
<g id="edge9" class="edge">
<title>Signer::address_of&#45;&gt;Signer::borrow_address</title>
<path fill="none" stroke="black" d="M89.87,-90.7C88.82,-82.25 87.55,-71.87 86.37,-62.37"/>
<polygon fill="black" stroke="black" points="89.81,-61.67 85.12,-52.18 82.87,-62.53 89.81,-61.67"/>
</g>
<!-- Errors::make -->
<g id="node11" class="node">
<title>Errors::make</title>
<ellipse fill="none" stroke="black" cx="604" cy="-34" rx="30.59" ry="18"/>
<text text-anchor="middle" x="604" y="-30.3" font-family="Times,serif" font-size="14.00">make</text>
</g>
<!-- Errors::invalid_argument&#45;&gt;Errors::make -->
<g id="edge10" class="edge">
<title>Errors::invalid_argument&#45;&gt;Errors::make</title>
<path fill="none" stroke="black" d="M668.94,-91.44C656.83,-80.91 641.06,-67.21 628.09,-55.94"/>
<polygon fill="black" stroke="black" points="630.28,-53.2 620.43,-49.28 625.69,-58.48 630.28,-53.2"/>
</g>
<!-- Roles::assert_designated_dealer&#45;&gt;Signer::address_of -->
<g id="edge11" class="edge">
<title>Roles::assert_designated_dealer&#45;&gt;Signer::address_of</title>
<path fill="none" stroke="black" d="M128.24,-173.82C121.98,-162.79 113.73,-148.27 106.68,-135.86"/>
<polygon fill="black" stroke="black" points="109.57,-133.84 101.58,-126.88 103.48,-137.3 109.57,-133.84"/>
</g>
<!-- Errors::not_published -->
<g id="node12" class="node">
<title>Errors::not_published</title>
<ellipse fill="none" stroke="black" cx="367" cy="-109" rx="60.39" ry="18"/>
<text text-anchor="middle" x="367" y="-105.3" font-family="Times,serif" font-size="14.00">not_published</text>
</g>
<!-- Roles::assert_designated_dealer&#45;&gt;Errors::not_published -->
<g id="edge12" class="edge">
<title>Roles::assert_designated_dealer&#45;&gt;Errors::not_published</title>
<path fill="none" stroke="black" d="M216.7,-181.03C242.92,-176.06 271.84,-168.72 297,-158 312.2,-151.52 327.51,-141.51 339.92,-132.3"/>
<polygon fill="black" stroke="black" points="342.2,-134.97 348.02,-126.11 337.95,-129.41 342.2,-134.97"/>
</g>
<!-- Errors::requires_role -->
<g id="node13" class="node">
<title>Errors::requires_role</title>
<ellipse fill="none" stroke="black" cx="231" cy="-109" rx="57.39" ry="18"/>
<text text-anchor="middle" x="231" y="-105.3" font-family="Times,serif" font-size="14.00">requires_role</text>
</g>
<!-- Roles::assert_designated_dealer&#45;&gt;Errors::requires_role -->
<g id="edge13" class="edge">
<title>Roles::assert_designated_dealer&#45;&gt;Errors::requires_role</title>
<path fill="none" stroke="black" d="M157.27,-174.22C170.92,-162.33 189.39,-146.24 204.44,-133.13"/>
<polygon fill="black" stroke="black" points="207.15,-135.42 212.39,-126.21 202.55,-130.14 207.15,-135.42"/>
</g>
<!-- add_preburn_to_queue&#45;&gt;Signer::address_of -->
<g id="edge14" class="edge">
<title>add_preburn_to_queue&#45;&gt;Signer::address_of</title>
<path fill="none" stroke="black" d="M639.79,-260.23C560.78,-254.64 452.57,-246.24 433,-241 357.14,-220.67 348.99,-185.82 273,-166 225.14,-153.52 208.69,-174.33 162,-158 145.95,-152.39 130.15,-142.08 117.63,-132.46"/>
<polygon fill="black" stroke="black" points="119.52,-129.49 109.53,-125.97 115.15,-134.95 119.52,-129.49"/>
</g>
<!-- add_preburn_to_queue&#45;&gt;Errors::invalid_argument -->
<g id="edge15" class="edge">
<title>add_preburn_to_queue&#45;&gt;Errors::invalid_argument</title>
<path fill="none" stroke="black" d="M745,-249.29C747.02,-246.73 748.78,-243.95 750,-241 762.76,-210.2 763.53,-196.46 750,-166 744.08,-152.67 733.24,-141.17 722.26,-132.12"/>
<polygon fill="black" stroke="black" points="724.36,-129.32 714.31,-125.97 720.08,-134.85 724.36,-129.32"/>
</g>
<!-- add_preburn_to_queue&#45;&gt;value -->
<g id="edge20" class="edge">
<title>add_preburn_to_queue&#45;&gt;value</title>
<path fill="none" stroke="black" d="M808.51,-259.45C901.32,-252.16 1038.36,-241.34 1039,-241 1048.98,-235.75 1057.33,-226.74 1063.72,-217.92"/>
<polygon fill="black" stroke="black" points="1066.81,-219.59 1069.43,-209.33 1060.98,-215.72 1066.81,-219.59"/>
</g>
<!-- Errors::invalid_state -->
<g id="node14" class="node">
<title>Errors::invalid_state</title>
<ellipse fill="none" stroke="black" cx="835" cy="-109" rx="55.79" ry="18"/>
<text text-anchor="middle" x="835" y="-105.3" font-family="Times,serif" font-size="14.00">invalid_state</text>
</g>
<!-- add_preburn_to_queue&#45;&gt;Errors::invalid_state -->
<g id="edge16" class="edge">
<title>add_preburn_to_queue&#45;&gt;Errors::invalid_state</title>
<path fill="none" stroke="black" d="M757.51,-249.88C761.3,-247.23 764.91,-244.26 768,-241 796.79,-210.61 816.18,-165.45 826.4,-136.88"/>
<polygon fill="black" stroke="black" points="829.8,-137.76 829.75,-127.16 823.18,-135.47 829.8,-137.76"/>
</g>
<!-- Errors::limit_exceeded -->
<g id="node15" class="node">
<title>Errors::limit_exceeded</title>
<ellipse fill="none" stroke="black" cx="974" cy="-109" rx="64.99" ry="18"/>
<text text-anchor="middle" x="974" y="-105.3" font-family="Times,serif" font-size="14.00">limit_exceeded</text>
</g>
<!-- add_preburn_to_queue&#45;&gt;Errors::limit_exceeded -->
<g id="edge17" class="edge">
<title>add_preburn_to_queue&#45;&gt;Errors::limit_exceeded</title>
<path fill="none" stroke="black" d="M781.48,-252.78C789.72,-249.61 797.84,-245.73 805,-241 841.57,-216.85 831.84,-189.22 869,-166 881.07,-158.46 886.97,-163.72 900,-158 915.64,-151.13 931.7,-141.13 944.85,-132.03"/>
<polygon fill="black" stroke="black" points="946.9,-134.87 953.03,-126.23 942.85,-129.16 946.9,-134.87"/>
</g>
<!-- Vector::length -->
<g id="node16" class="node">
<title>Vector::length</title>
<ellipse fill="none" stroke="black" cx="676" cy="-192" rx="32.49" ry="18"/>
<text text-anchor="middle" x="676" y="-188.3" font-family="Times,serif" font-size="14.00">length</text>
</g>
<!-- add_preburn_to_queue&#45;&gt;Vector::length -->
<g id="edge18" class="edge">
<title>add_preburn_to_queue&#45;&gt;Vector::length</title>
<path fill="none" stroke="black" d="M713.64,-249.07C707.38,-239.75 699.51,-228.02 692.58,-217.7"/>
<polygon fill="black" stroke="black" points="695.28,-215.44 686.8,-209.09 689.47,-219.34 695.28,-215.44"/>
</g>
<!-- Vector::push_back -->
<g id="node17" class="node">
<title>Vector::push_back</title>
<ellipse fill="none" stroke="black" cx="577" cy="-192" rx="48.19" ry="18"/>
<text text-anchor="middle" x="577" y="-188.3" font-family="Times,serif" font-size="14.00">push_back</text>
</g>
<!-- add_preburn_to_queue&#45;&gt;Vector::push_back -->
<g id="edge19" class="edge">
<title>add_preburn_to_queue&#45;&gt;Vector::push_back</title>
<path fill="none" stroke="black" d="M665.06,-253.16C654.75,-249.89 644.34,-245.88 635,-241 622.57,-234.51 610.36,-225.03 600.39,-216.2"/>
<polygon fill="black" stroke="black" points="602.63,-213.51 592.9,-209.33 597.9,-218.67 602.63,-213.51"/>
</g>
<!-- preburn_with_resource&#45;&gt;value -->
<g id="edge25" class="edge">
<title>preburn_with_resource&#45;&gt;value</title>
<path fill="none" stroke="black" d="M1146.08,-330.69C1137.26,-327.1 1128.94,-322.33 1122,-316 1094.79,-291.17 1084.39,-248.33 1080.43,-220.33"/>
<polygon fill="black" stroke="black" points="1083.86,-219.54 1079.17,-210.04 1076.91,-220.39 1083.86,-219.54"/>
</g>
<!-- preburn_with_resource&#45;&gt;Errors::invalid_state -->
<g id="edge21" class="edge">
<title>preburn_with_resource&#45;&gt;Errors::invalid_state</title>
<path fill="none" stroke="black" d="M1183.37,-325.15C1179.55,-322.48 1175.98,-319.43 1173,-316 1126.34,-262.27 1174.7,-207.65 1117,-166 1097.44,-151.88 922.77,-165.97 900,-158 884.98,-152.75 870.5,-142.72 859.04,-133.18"/>
<polygon fill="black" stroke="black" points="861.1,-130.34 851.26,-126.4 856.5,-135.61 861.1,-130.34"/>
</g>
<!-- preburn_with_resource&#45;&gt;Errors::limit_exceeded -->
<g id="edge22" class="edge">
<title>preburn_with_resource&#45;&gt;Errors::limit_exceeded</title>
<path fill="none" stroke="black" d="M1199.24,-324.28C1196.91,-321.68 1194.74,-318.9 1193,-316 1157.22,-256.59 1203.12,-210.58 1150,-166 1136.99,-155.08 1090.34,-162.63 1074,-158 1051.49,-151.62 1027.83,-140.49 1009.17,-130.55"/>
<polygon fill="black" stroke="black" points="1010.63,-127.36 1000.18,-125.64 1007.28,-133.5 1010.63,-127.36"/>
</g>
<!-- CoreAddresses::CURRENCY_INFO_ADDRESS -->
<g id="node18" class="node">
<title>CoreAddresses::CURRENCY_INFO_ADDRESS</title>
<ellipse fill="none" stroke="black" cx="1264" cy="-34" rx="128.08" ry="18"/>
<text text-anchor="middle" x="1264" y="-30.3" font-family="Times,serif" font-size="14.00">CURRENCY_INFO_ADDRESS</text>
</g>
<!-- preburn_with_resource&#45;&gt;CoreAddresses::CURRENCY_INFO_ADDRESS -->
<g id="edge23" class="edge">
<title>preburn_with_resource&#45;&gt;CoreAddresses::CURRENCY_INFO_ADDRESS</title>
<path fill="none" stroke="black" d="M1305.98,-335.85C1358.86,-331.81 1417.76,-325.29 1426,-316 1500.33,-232.15 1361.23,-108.87 1295.58,-58.13"/>
<polygon fill="black" stroke="black" points="1297.66,-55.31 1287.59,-52.02 1293.41,-60.87 1297.66,-55.31"/>
</g>
<!-- Event::emit_event -->
<g id="node19" class="node">
<title>Event::emit_event</title>
<ellipse fill="none" stroke="black" cx="1540" cy="-267" rx="50.09" ry="18"/>
<text text-anchor="middle" x="1540" y="-263.3" font-family="Times,serif" font-size="14.00">emit_event</text>
</g>
<!-- preburn_with_resource&#45;&gt;Event::emit_event -->
<g id="edge24" class="edge">
<title>preburn_with_resource&#45;&gt;Event::emit_event</title>
<path fill="none" stroke="black" d="M1305.94,-335.86C1362.73,-331.75 1431.31,-325.16 1459,-316 1477.38,-309.92 1496.09,-299.2 1510.89,-289.42"/>
<polygon fill="black" stroke="black" points="1513.27,-292.04 1519.56,-283.51 1509.32,-286.25 1513.27,-292.04"/>
</g>
<!-- currency_code -->
<g id="node20" class="node">
<title>currency_code</title>
<ellipse fill="none" stroke="black" cx="1264" cy="-267" rx="62.29" ry="18"/>
<text text-anchor="middle" x="1264" y="-263.3" font-family="Times,serif" font-size="14.00">currency_code</text>
</g>
<!-- preburn_with_resource&#45;&gt;currency_code -->
<g id="edge26" class="edge">
<title>preburn_with_resource&#45;&gt;currency_code</title>
<path fill="none" stroke="black" d="M1229.44,-324.07C1235,-315.04 1241.97,-303.74 1248.18,-293.66"/>
<polygon fill="black" stroke="black" points="1251.35,-295.19 1253.62,-284.84 1245.39,-291.52 1251.35,-295.19"/>
</g>
<!-- deposit -->
<g id="node21" class="node">
<title>deposit</title>
<ellipse fill="none" stroke="black" cx="1381" cy="-267" rx="36.29" ry="18"/>
<text text-anchor="middle" x="1381" y="-263.3" font-family="Times,serif" font-size="14.00">deposit</text>
</g>
<!-- preburn_with_resource&#45;&gt;deposit -->
<g id="edge27" class="edge">
<title>preburn_with_resource&#45;&gt;deposit</title>
<path fill="none" stroke="black" d="M1294.4,-331.57C1308.44,-327.94 1322.59,-322.93 1335,-316 1345.65,-310.05 1355.34,-300.84 1363.05,-292.07"/>
<polygon fill="black" stroke="black" points="1365.86,-294.17 1369.55,-284.24 1360.47,-289.7 1365.86,-294.17"/>
</g>
<!-- upgrade_preburn&#45;&gt;Signer::address_of -->
<g id="edge28" class="edge">
<title>upgrade_preburn&#45;&gt;Signer::address_of</title>
<path fill="none" stroke="black" d="M198.79,-335.56C140.11,-326.63 58.94,-303.07 27,-241 11.75,-211.36 13.11,-196.3 27,-166 33.56,-151.7 45.77,-139.66 57.85,-130.46"/>
<polygon fill="black" stroke="black" points="60.02,-133.21 66.13,-124.55 55.95,-127.52 60.02,-133.21"/>
</g>
<!-- upgrade_preburn&#45;&gt;Roles::assert_designated_dealer -->
<g id="edge29" class="edge">
<title>upgrade_preburn&#45;&gt;Roles::assert_designated_dealer</title>
<path fill="none" stroke="black" d="M205.34,-332.17C186.33,-328.18 168.52,-322.82 162,-316 137.72,-290.59 134.52,-248.26 135.47,-220.49"/>
<polygon fill="black" stroke="black" points="138.98,-220.45 136.03,-210.28 131.99,-220.07 138.98,-220.45"/>
</g>
<!-- destroy_zero -->
<g id="node22" class="node">
<title>destroy_zero</title>
<ellipse fill="none" stroke="black" cx="432" cy="-267" rx="55.79" ry="18"/>
<text text-anchor="middle" x="432" y="-263.3" font-family="Times,serif" font-size="14.00">destroy_zero</text>
</g>
<!-- upgrade_preburn&#45;&gt;destroy_zero -->
<g id="edge30" class="edge">
<title>upgrade_preburn&#45;&gt;destroy_zero</title>
<path fill="none" stroke="black" d="M322.54,-331.37C337.75,-327.67 353.85,-322.67 368,-316 381.71,-309.53 395.37,-299.85 406.52,-290.87"/>
<polygon fill="black" stroke="black" points="409.08,-293.3 414.52,-284.21 404.6,-287.92 409.08,-293.3"/>
</g>
<!-- publish_preburn_queue -->
<g id="node23" class="node">
<title>publish_preburn_queue</title>
<ellipse fill="none" stroke="black" cx="265" cy="-267" rx="93.68" ry="18"/>
<text text-anchor="middle" x="265" y="-263.3" font-family="Times,serif" font-size="14.00">publish_preburn_queue</text>
</g>
<!-- upgrade_preburn&#45;&gt;publish_preburn_queue -->
<g id="edge31" class="edge">
<title>upgrade_preburn&#45;&gt;publish_preburn_queue</title>
<path fill="none" stroke="black" d="M265,-323.7C265,-315.25 265,-304.87 265,-295.37"/>
<polygon fill="black" stroke="black" points="268.5,-295.18 265,-285.18 261.5,-295.18 268.5,-295.18"/>
</g>
<!-- assert_is_currency -->
<g id="node24" class="node">
<title>assert_is_currency</title>
<ellipse fill="none" stroke="black" cx="954" cy="-192" rx="76.09" ry="18"/>
<text text-anchor="middle" x="954" y="-188.3" font-family="Times,serif" font-size="14.00">assert_is_currency</text>
</g>
<!-- zero&#45;&gt;assert_is_currency -->
<g id="edge32" class="edge">
<title>zero&#45;&gt;assert_is_currency</title>
<path fill="none" stroke="black" d="M886.42,-324.6C899.54,-299.06 924.94,-249.58 940.59,-219.11"/>
<polygon fill="black" stroke="black" points="943.85,-220.43 945.3,-209.93 937.62,-217.23 943.85,-220.43"/>
</g>
<!-- Errors::not_published&#45;&gt;Errors::make -->
<g id="edge33" class="edge">
<title>Errors::not_published&#45;&gt;Errors::make</title>
<path fill="none" stroke="black" d="M407.47,-95.53C452.51,-81.66 524.63,-59.45 567.85,-46.14"/>
<polygon fill="black" stroke="black" points="569.13,-49.4 577.65,-43.12 567.07,-42.71 569.13,-49.4"/>
</g>
<!-- Errors::requires_role&#45;&gt;Errors::make -->
<g id="edge34" class="edge">
<title>Errors::requires_role&#45;&gt;Errors::make</title>
<path fill="none" stroke="black" d="M273.43,-96.77C281.56,-94.75 290.03,-92.74 298,-91 393.32,-70.21 506.49,-50.87 564.85,-41.29"/>
<polygon fill="black" stroke="black" points="565.45,-44.74 574.76,-39.68 564.32,-37.83 565.45,-44.74"/>
</g>
<!-- Errors::invalid_state&#45;&gt;Errors::make -->
<g id="edge35" class="edge">
<title>Errors::invalid_state&#45;&gt;Errors::make</title>
<path fill="none" stroke="black" d="M796.6,-95.86C753.01,-82.09 682.46,-59.79 639.92,-46.35"/>
<polygon fill="black" stroke="black" points="640.85,-42.98 630.26,-43.3 638.74,-49.65 640.85,-42.98"/>
</g>
<!-- Errors::limit_exceeded&#45;&gt;Errors::make -->
<g id="edge36" class="edge">
<title>Errors::limit_exceeded&#45;&gt;Errors::make</title>
<path fill="none" stroke="black" d="M926.29,-96.75C917.56,-94.78 908.52,-92.78 900,-91 808.2,-71.78 699.75,-52.01 643.04,-41.89"/>
<polygon fill="black" stroke="black" points="643.52,-38.42 633.06,-40.11 642.3,-45.31 643.52,-38.42"/>
</g>
<!-- Event::write_to_event_store -->
<g id="node25" class="node">
<title>Event::write_to_event_store</title>
<ellipse fill="none" stroke="black" cx="1558" cy="-192" rx="85.29" ry="18"/>
<text text-anchor="middle" x="1558" y="-188.3" font-family="Times,serif" font-size="14.00">write_to_event_store</text>
</g>
<!-- Event::emit_event&#45;&gt;Event::write_to_event_store -->
<g id="edge37" class="edge">
<title>Event::emit_event&#45;&gt;Event::write_to_event_store</title>
<path fill="none" stroke="black" d="M1544.27,-248.7C1546.37,-240.15 1548.96,-229.65 1551.33,-220.07"/>
<polygon fill="black" stroke="black" points="1554.77,-220.72 1553.76,-210.18 1547.97,-219.05 1554.77,-220.72"/>
</g>
<!-- currency_code&#45;&gt;CoreAddresses::CURRENCY_INFO_ADDRESS -->
<g id="edge38" class="edge">
<title>currency_code&#45;&gt;CoreAddresses::CURRENCY_INFO_ADDRESS</title>
<path fill="none" stroke="black" d="M1264,-248.64C1264,-208.82 1264,-110.69 1264,-62.54"/>
<polygon fill="black" stroke="black" points="1267.5,-62.25 1264,-52.25 1260.5,-62.25 1267.5,-62.25"/>
</g>
<!-- currency_code&#45;&gt;assert_is_currency -->
<g id="edge39" class="edge">
<title>currency_code&#45;&gt;assert_is_currency</title>
<path fill="none" stroke="black" d="M1201.48,-265.75C1155.53,-263.97 1092.11,-258.15 1039,-241 1020.26,-234.95 1001.02,-224.5 985.6,-214.9"/>
<polygon fill="black" stroke="black" points="987.3,-211.83 976.99,-209.38 983.52,-217.72 987.3,-211.83"/>
</g>
<!-- deposit&#45;&gt;Errors::limit_exceeded -->
<g id="edge40" class="edge">
<title>deposit&#45;&gt;Errors::limit_exceeded</title>
<path fill="none" stroke="black" d="M1360.76,-251.92C1326.84,-229.18 1255.57,-185 1188,-166 1139.1,-152.25 1123.1,-171 1074,-158 1051.23,-151.97 1027.38,-140.74 1008.69,-130.66"/>
<polygon fill="black" stroke="black" points="1010.13,-127.46 999.69,-125.68 1006.75,-133.59 1010.13,-127.46"/>
</g>
<!-- destroy_zero&#45;&gt;Errors::invalid_argument -->
<g id="edge41" class="edge">
<title>destroy_zero&#45;&gt;Errors::invalid_argument</title>
<path fill="none" stroke="black" d="M484.97,-261.24C523.52,-257.79 576.99,-253.04 624,-249 634.66,-248.08 712.75,-248.88 720,-241 746.72,-211.96 724.38,-164.37 706,-135.24"/>
<polygon fill="black" stroke="black" points="708.9,-133.28 700.48,-126.84 703.05,-137.12 708.9,-133.28"/>
</g>
<!-- publish_preburn_queue&#45;&gt;Signer::address_of -->
<g id="edge42" class="edge">
<title>publish_preburn_queue&#45;&gt;Signer::address_of</title>
<path fill="none" stroke="black" d="M267.91,-249C270.69,-226.48 271.6,-187.14 249,-166 234.82,-152.74 180.26,-164.59 162,-158 146.01,-152.23 130.21,-141.91 117.69,-132.31"/>
<polygon fill="black" stroke="black" points="119.57,-129.34 109.57,-125.85 115.21,-134.82 119.57,-129.34"/>
</g>
<!-- publish_preburn_queue&#45;&gt;Roles::assert_designated_dealer -->
<g id="edge45" class="edge">
<title>publish_preburn_queue&#45;&gt;Roles::assert_designated_dealer</title>
<path fill="none" stroke="black" d="M236.81,-249.8C218.69,-239.38 194.94,-225.73 175.26,-214.42"/>
<polygon fill="black" stroke="black" points="176.96,-211.36 166.55,-209.41 173.47,-217.43 176.96,-211.36"/>
</g>
<!-- publish_preburn_queue&#45;&gt;Errors::invalid_state -->
<g id="edge44" class="edge">
<title>publish_preburn_queue&#45;&gt;Errors::invalid_state</title>
<path fill="none" stroke="black" d="M297.38,-250C302.97,-247.09 308.69,-244.02 314,-241 368.34,-210.1 373.15,-184.06 433,-166 468.86,-155.18 734.56,-170.13 770,-158 785.06,-152.84 799.54,-142.83 810.99,-133.28"/>
<polygon fill="black" stroke="black" points="813.54,-135.7 818.76,-126.48 808.93,-130.43 813.54,-135.7"/>
</g>
<!-- publish_preburn_queue&#45;&gt;assert_is_currency -->
<g id="edge47" class="edge">
<title>publish_preburn_queue&#45;&gt;assert_is_currency</title>
<path fill="none" stroke="black" d="M329.3,-253.86C341.76,-251.91 354.76,-250.15 367,-249 523.24,-234.29 564.06,-258.62 720,-241 780.08,-234.21 847.63,-219.59 894.65,-208.25"/>
<polygon fill="black" stroke="black" points="895.77,-211.58 904.66,-205.82 894.11,-204.78 895.77,-211.58"/>
</g>
<!-- Errors::already_published -->
<g id="node26" class="node">
<title>Errors::already_published</title>
<ellipse fill="none" stroke="black" cx="521" cy="-109" rx="75.29" ry="18"/>
<text text-anchor="middle" x="521" y="-105.3" font-family="Times,serif" font-size="14.00">already_published</text>
</g>
<!-- publish_preburn_queue&#45;&gt;Errors::already_published -->
<g id="edge43" class="edge">
<title>publish_preburn_queue&#45;&gt;Errors::already_published</title>
<path fill="none" stroke="black" d="M270.23,-248.66C278.27,-225.36 296.07,-184.73 327,-166 347.77,-153.42 412.75,-165.03 436,-158 454.98,-152.26 474.38,-141.74 489.83,-132"/>
<polygon fill="black" stroke="black" points="491.97,-134.79 498.45,-126.4 488.16,-128.92 491.97,-134.79"/>
</g>
<!-- Vector::empty -->
<g id="node27" class="node">
<title>Vector::empty</title>
<ellipse fill="none" stroke="black" cx="478" cy="-192" rx="33.29" ry="18"/>
<text text-anchor="middle" x="478" y="-188.3" font-family="Times,serif" font-size="14.00">empty</text>
</g>
<!-- publish_preburn_queue&#45;&gt;Vector::empty -->
<g id="edge46" class="edge">
<title>publish_preburn_queue&#45;&gt;Vector::empty</title>
<path fill="none" stroke="black" d="M333.4,-254.65C357.64,-250.2 381.69,-245.17 393,-241 412.8,-233.69 433.46,-222.13 449.45,-212.19"/>
<polygon fill="black" stroke="black" points="451.73,-214.89 458.28,-206.57 447.97,-208.98 451.73,-214.89"/>
</g>
<!-- assert_is_currency&#45;&gt;Errors::not_published -->
<g id="edge48" class="edge">
<title>assert_is_currency&#45;&gt;Errors::not_published</title>
<path fill="none" stroke="black" d="M888.56,-182.62C841.7,-176.97 777.07,-169.85 720,-166 688.61,-163.88 466.91,-167.74 437,-158 420.95,-152.78 405.24,-142.61 392.79,-132.98"/>
<polygon fill="black" stroke="black" points="394.7,-130.03 384.73,-126.46 390.3,-135.47 394.7,-130.03"/>
</g>
<!-- is_currency -->
<g id="node28" class="node">
<title>is_currency</title>
<ellipse fill="none" stroke="black" cx="1135" cy="-109" rx="51.99" ry="18"/>
<text text-anchor="middle" x="1135" y="-105.3" font-family="Times,serif" font-size="14.00">is_currency</text>
</g>
<!-- assert_is_currency&#45;&gt;is_currency -->
<g id="edge49" class="edge">
<title>assert_is_currency&#45;&gt;is_currency</title>
<path fill="none" stroke="black" d="M999.61,-177.48C1016.07,-172.08 1034.62,-165.38 1051,-158 1068.66,-150.04 1087.47,-139.5 1102.79,-130.33"/>
<polygon fill="black" stroke="black" points="1104.65,-133.3 1111.38,-125.12 1101.02,-127.32 1104.65,-133.3"/>
</g>
<!-- Errors::already_published&#45;&gt;Errors::make -->
<g id="edge50" class="edge">
<title>Errors::already_published&#45;&gt;Errors::make</title>
<path fill="none" stroke="black" d="M539.83,-91.44C551.8,-80.91 567.38,-67.21 580.2,-55.94"/>
<polygon fill="black" stroke="black" points="582.56,-58.51 587.76,-49.28 577.94,-53.26 582.56,-58.51"/>
</g>
<!-- is_currency&#45;&gt;CoreAddresses::CURRENCY_INFO_ADDRESS -->
<g id="edge51" class="edge">
<title>is_currency&#45;&gt;CoreAddresses::CURRENCY_INFO_ADDRESS</title>
<path fill="none" stroke="black" d="M1161.11,-93.23C1179.7,-82.7 1205,-68.39 1225.85,-56.59"/>
<polygon fill="black" stroke="black" points="1227.8,-59.5 1234.78,-51.53 1224.36,-53.41 1227.8,-59.5"/>
</g>
</g>
</svg>
