<?xml version="1.0" encoding="UTF-8" standalone="no"?>
<!DOCTYPE svg PUBLIC "-//W3C//DTD SVG 1.1//EN"
 "http://www.w3.org/Graphics/SVG/1.1/DTD/svg11.dtd">
<!-- Generated by graphviz version 2.46.1 (20210213.1702)
 -->
<!-- Title: G Pages: 1 -->
<svg width="1140pt" height="404pt"
 viewBox="0.00 0.00 1139.71 404.00" xmlns="http://www.w3.org/2000/svg" xmlns:xlink="http://www.w3.org/1999/xlink">
<g id="graph0" class="graph" transform="scale(1 1) rotate(0) translate(4 400)">
<title>G</title>
<polygon fill="white" stroke="transparent" points="-4,4 -4,-400 1135.71,-400 1135.71,4 -4,4"/>
<!-- Diem -->
<g id="node1" class="node">
<title>Diem</title>
<ellipse fill="none" stroke="black" cx="414.35" cy="-18" rx="30.59" ry="18"/>
<text text-anchor="middle" x="414.35" y="-14.3" font-family="Times,serif" font-size="14.00">Diem</text>
</g>
<!-- XUS -->
<g id="node2" class="node">
<title>XUS</title>
<ellipse fill="none" stroke="black" cx="309.35" cy="-90" rx="28.7" ry="18"/>
<text text-anchor="middle" x="309.35" y="-86.3" font-family="Times,serif" font-size="14.00">XUS</text>
</g>
<!-- XUS&#45;&gt;Diem -->
<g id="edge1" class="edge">
<title>XUS&#45;&gt;Diem</title>
<path fill="none" stroke="black" d="M328.61,-76.16C344.78,-65.37 368.12,-49.82 386.36,-37.66"/>
<polygon fill="black" stroke="black" points="388.48,-40.45 394.85,-31.99 384.59,-34.63 388.48,-40.45"/>
</g>
<!-- XDX -->
<g id="node3" class="node">
<title>XDX</title>
<ellipse fill="none" stroke="black" cx="385.35" cy="-90" rx="29.8" ry="18"/>
<text text-anchor="middle" x="385.35" y="-86.3" font-family="Times,serif" font-size="14.00">XDX</text>
</g>
<!-- XDX&#45;&gt;Diem -->
<g id="edge2" class="edge">
<title>XDX&#45;&gt;Diem</title>
<path fill="none" stroke="black" d="M392.22,-72.41C395.56,-64.34 399.67,-54.43 403.43,-45.35"/>
<polygon fill="black" stroke="black" points="406.73,-46.53 407.32,-35.96 400.26,-43.86 406.73,-46.53"/>
</g>
<!-- TransactionFee -->
<g id="node4" class="node">
<title>TransactionFee</title>
<ellipse fill="none" stroke="black" cx="442.35" cy="-162" rx="64.99" ry="18"/>
<text text-anchor="middle" x="442.35" y="-158.3" font-family="Times,serif" font-size="14.00">TransactionFee</text>
</g>
<!-- TransactionFee&#45;&gt;Diem -->
<g id="edge3" class="edge">
<title>TransactionFee&#45;&gt;Diem</title>
<path fill="none" stroke="black" d="M438.97,-143.87C434.18,-119.56 425.35,-74.82 419.67,-46.01"/>
<polygon fill="black" stroke="black" points="423.1,-45.32 417.74,-36.19 416.24,-46.68 423.1,-45.32"/>
</g>
<!-- TransactionFee&#45;&gt;XUS -->
<g id="edge9" class="edge">
<title>TransactionFee&#45;&gt;XUS</title>
<path fill="none" stroke="black" d="M413.49,-145.81C391.69,-134.34 361.86,-118.64 339.71,-106.98"/>
<polygon fill="black" stroke="black" points="341.21,-103.82 330.73,-102.26 337.95,-110.01 341.21,-103.82"/>
</g>
<!-- TransactionFee&#45;&gt;XDX -->
<g id="edge13" class="edge">
<title>TransactionFee&#45;&gt;XDX</title>
<path fill="none" stroke="black" d="M428.55,-144.05C421.24,-135.08 412.15,-123.92 404.2,-114.15"/>
<polygon fill="black" stroke="black" points="406.88,-111.9 397.85,-106.36 401.45,-116.32 406.88,-111.9"/>
</g>
<!-- DualAttestation -->
<g id="node5" class="node">
<title>DualAttestation</title>
<ellipse fill="none" stroke="black" cx="629.35" cy="-162" rx="66.09" ry="18"/>
<text text-anchor="middle" x="629.35" y="-158.3" font-family="Times,serif" font-size="14.00">DualAttestation</text>
</g>
<!-- DualAttestation&#45;&gt;Diem -->
<g id="edge4" class="edge">
<title>DualAttestation&#45;&gt;Diem</title>
<path fill="none" stroke="black" d="M617.9,-144.08C603.82,-124.39 578.2,-92.01 549.35,-72 519.49,-51.3 480.41,-37.1 451.98,-28.64"/>
<polygon fill="black" stroke="black" points="452.6,-25.18 442.03,-25.79 450.67,-31.91 452.6,-25.18"/>
</g>
<!-- DualAttestation&#45;&gt;XDX -->
<g id="edge14" class="edge">
<title>DualAttestation&#45;&gt;XDX</title>
<path fill="none" stroke="black" d="M585.44,-148.4C538.6,-134.97 465.26,-113.93 421.58,-101.4"/>
<polygon fill="black" stroke="black" points="422.52,-98.02 411.95,-98.63 420.59,-104.75 422.52,-98.02"/>
</g>
<!-- DesignatedDealer -->
<g id="node6" class="node">
<title>DesignatedDealer</title>
<ellipse fill="none" stroke="black" cx="172.35" cy="-162" rx="73.39" ry="18"/>
<text text-anchor="middle" x="172.35" y="-158.3" font-family="Times,serif" font-size="14.00">DesignatedDealer</text>
</g>
<!-- DesignatedDealer&#45;&gt;Diem -->
<g id="edge5" class="edge">
<title>DesignatedDealer&#45;&gt;Diem</title>
<path fill="none" stroke="black" d="M187.29,-144.15C205.48,-124.52 237.92,-92.2 271.35,-72 304.73,-51.82 347.06,-37.31 376.98,-28.63"/>
<polygon fill="black" stroke="black" points="377.94,-32 386.61,-25.91 376.04,-25.26 377.94,-32"/>
</g>
<!-- DesignatedDealer&#45;&gt;XUS -->
<g id="edge10" class="edge">
<title>DesignatedDealer&#45;&gt;XUS</title>
<path fill="none" stroke="black" d="M202.75,-145.46C225.24,-133.98 255.75,-118.38 278.37,-106.82"/>
<polygon fill="black" stroke="black" points="280.23,-109.81 287.54,-102.14 277.04,-103.58 280.23,-109.81"/>
</g>
<!-- DiemAccount -->
<g id="node7" class="node">
<title>DiemAccount</title>
<ellipse fill="none" stroke="black" cx="437.35" cy="-234" rx="60.39" ry="18"/>
<text text-anchor="middle" x="437.35" y="-230.3" font-family="Times,serif" font-size="14.00">DiemAccount</text>
</g>
<!-- DiemAccount&#45;&gt;Diem -->
<g id="edge6" class="edge">
<title>DiemAccount&#45;&gt;Diem</title>
<path fill="none" stroke="black" d="M472.24,-219.04C488.78,-210.44 506.94,-197.63 516.35,-180 523.88,-165.88 521.72,-159.07 516.35,-144 501.08,-101.14 464.13,-62.35 439.15,-39.72"/>
<polygon fill="black" stroke="black" points="441.31,-36.96 431.5,-32.95 436.67,-42.2 441.31,-36.96"/>
</g>
<!-- DiemAccount&#45;&gt;XUS -->
<g id="edge11" class="edge">
<title>DiemAccount&#45;&gt;XUS</title>
<path fill="none" stroke="black" d="M408.98,-218.08C393.02,-208.68 373.52,-195.43 359.35,-180 342.2,-161.33 328.6,-135.73 319.94,-116.78"/>
<polygon fill="black" stroke="black" points="323.11,-115.28 315.87,-107.55 316.7,-118.11 323.11,-115.28"/>
</g>
<!-- DiemAccount&#45;&gt;XDX -->
<g id="edge15" class="edge">
<title>DiemAccount&#45;&gt;XDX</title>
<path fill="none" stroke="black" d="M407.12,-218.22C392.55,-209.34 376.49,-196.53 368.35,-180 358.5,-160.03 364.74,-134.93 372.29,-116.48"/>
<polygon fill="black" stroke="black" points="375.53,-117.81 376.4,-107.25 369.14,-114.96 375.53,-117.81"/>
</g>
<!-- DiemAccount&#45;&gt;TransactionFee -->
<g id="edge17" class="edge">
<title>DiemAccount&#45;&gt;TransactionFee</title>
<path fill="none" stroke="black" d="M438.58,-215.7C439.13,-207.98 439.8,-198.71 440.41,-190.11"/>
<polygon fill="black" stroke="black" points="443.9,-190.33 441.12,-180.1 436.92,-189.83 443.9,-190.33"/>
</g>
<!-- DiemAccount&#45;&gt;DualAttestation -->
<g id="edge20" class="edge">
<title>DiemAccount&#45;&gt;DualAttestation</title>
<path fill="none" stroke="black" d="M474.37,-219.5C505.01,-208.33 548.75,-192.38 581.95,-180.28"/>
<polygon fill="black" stroke="black" points="583.26,-183.53 591.46,-176.81 580.86,-176.95 583.26,-183.53"/>
</g>
<!-- DiemAccount&#45;&gt;DesignatedDealer -->
<g id="edge24" class="edge">
<title>DiemAccount&#45;&gt;DesignatedDealer</title>
<path fill="none" stroke="black" d="M393.59,-221.44C349.03,-209.67 279.68,-191.35 230.52,-178.37"/>
<polygon fill="black" stroke="black" points="231.23,-174.93 220.66,-175.76 229.44,-181.7 231.23,-174.93"/>
</g>
<!-- Genesis -->
<g id="node8" class="node">
<title>Genesis</title>
<ellipse fill="none" stroke="black" cx="38.35" cy="-306" rx="38.19" ry="18"/>
<text text-anchor="middle" x="38.35" y="-302.3" font-family="Times,serif" font-size="14.00">Genesis</text>
</g>
<!-- Genesis&#45;&gt;Diem -->
<g id="edge7" class="edge">
<title>Genesis&#45;&gt;Diem</title>
<path fill="none" stroke="black" d="M36.27,-287.65C33.42,-255.38 32.13,-185.63 67.35,-144 146.29,-50.7 300.4,-27.04 373.72,-21.04"/>
<polygon fill="black" stroke="black" points="374.22,-24.51 383.93,-20.28 373.69,-17.53 374.22,-24.51"/>
</g>
<!-- Genesis&#45;&gt;XUS -->
<g id="edge12" class="edge">
<title>Genesis&#45;&gt;XUS</title>
<path fill="none" stroke="black" d="M41.69,-287.85C49.29,-250.57 68.87,-163.93 90.35,-144 116.41,-119.82 215.89,-103.25 271.37,-95.68"/>
<polygon fill="black" stroke="black" points="272.07,-99.12 281.52,-94.33 271.15,-92.18 272.07,-99.12"/>
</g>
<!-- Genesis&#45;&gt;XDX -->
<g id="edge16" class="edge">
<title>Genesis&#45;&gt;XDX</title>
<path fill="none" stroke="black" d="M62.33,-291.86C102.55,-269.67 185.91,-222.97 254.35,-180 290.96,-157.01 332.01,-128.69 358.24,-110.26"/>
<polygon fill="black" stroke="black" points="360.38,-113.03 366.54,-104.41 356.35,-107.31 360.38,-113.03"/>
</g>
<!-- Genesis&#45;&gt;TransactionFee -->
<g id="edge18" class="edge">
<title>Genesis&#45;&gt;TransactionFee</title>
<path fill="none" stroke="black" d="M71.52,-296.8C83.43,-293.92 96.97,-290.73 109.35,-288 188.16,-270.6 213.7,-285.02 287.35,-252 311.68,-241.09 312.64,-229.98 335.35,-216 355.92,-203.34 379.94,-191.22 400,-181.77"/>
<polygon fill="black" stroke="black" points="401.61,-184.89 409.2,-177.5 398.66,-178.54 401.61,-184.89"/>
</g>
<!-- Genesis&#45;&gt;DualAttestation -->
<g id="edge22" class="edge">
<title>Genesis&#45;&gt;DualAttestation</title>
<path fill="none" stroke="black" d="M71.11,-296.65C83.1,-293.73 96.8,-290.54 109.35,-288 204.73,-268.66 236.93,-292.67 325.35,-252 347.99,-241.59 345.89,-226.81 368.35,-216 401.86,-199.87 496.34,-183.08 561.92,-172.83"/>
<polygon fill="black" stroke="black" points="562.83,-176.23 572.18,-171.24 561.76,-169.31 562.83,-176.23"/>
</g>
<!-- Genesis&#45;&gt;DiemAccount -->
<g id="edge29" class="edge">
<title>Genesis&#45;&gt;DiemAccount</title>
<path fill="none" stroke="black" d="M67.78,-294.33C75.08,-291.98 82.94,-289.68 90.35,-288 209.69,-260.87 242.91,-273.73 363.35,-252 369.48,-250.89 375.86,-249.62 382.21,-248.27"/>
<polygon fill="black" stroke="black" points="383.07,-251.67 392.09,-246.11 381.57,-244.83 383.07,-251.67"/>
</g>
<!-- TreasuryComplianceScripts -->
<g id="node9" class="node">
<title>TreasuryComplianceScripts</title>
<ellipse fill="none" stroke="black" cx="989.35" cy="-306" rx="109.38" ry="18"/>
<text text-anchor="middle" x="989.35" y="-302.3" font-family="Times,serif" font-size="14.00">TreasuryComplianceScripts</text>
</g>
<!-- TreasuryComplianceScripts&#45;&gt;Diem -->
<g id="edge8" class="edge">
<title>TreasuryComplianceScripts&#45;&gt;Diem</title>
<path fill="none" stroke="black" d="M964.62,-288.31C902.6,-247.03 734.49,-138.63 582.35,-72 538.87,-52.96 486.37,-37.53 451.76,-28.33"/>
<polygon fill="black" stroke="black" points="452.62,-24.93 442.06,-25.79 450.85,-31.71 452.62,-24.93"/>
</g>
<!-- TreasuryComplianceScripts&#45;&gt;TransactionFee -->
<g id="edge19" class="edge">
<title>TreasuryComplianceScripts&#45;&gt;TransactionFee</title>
<path fill="none" stroke="black" d="M923.37,-291.63C875.01,-281.54 807.85,-266.92 749.35,-252 658.68,-228.87 554.27,-197.6 493.55,-178.95"/>
<polygon fill="black" stroke="black" points="494.41,-175.55 483.82,-175.95 492.35,-182.24 494.41,-175.55"/>
</g>
<!-- TreasuryComplianceScripts&#45;&gt;DualAttestation -->
<g id="edge23" class="edge">
<title>TreasuryComplianceScripts&#45;&gt;DualAttestation</title>
<path fill="none" stroke="black" d="M944.75,-289.57C915.49,-279.29 876.48,-265.28 842.35,-252 782.97,-228.91 715.19,-200.17 672.35,-181.71"/>
<polygon fill="black" stroke="black" points="673.64,-178.45 663.07,-177.7 670.87,-184.88 673.64,-178.45"/>
</g>
<!-- TreasuryComplianceScripts&#45;&gt;DiemAccount -->
<g id="edge31" class="edge">
<title>TreasuryComplianceScripts&#45;&gt;DiemAccount</title>
<path fill="none" stroke="black" d="M910.67,-293.42C897.55,-291.56 884.07,-289.69 871.35,-288 740.66,-270.61 587.52,-252.42 502.56,-242.52"/>
<polygon fill="black" stroke="black" points="502.88,-239.03 492.55,-241.35 502.07,-245.99 502.88,-239.03"/>
</g>
<!-- AccountAdministrationScripts -->
<g id="node10" class="node">
<title>AccountAdministrationScripts</title>
<ellipse fill="none" stroke="black" cx="333.35" cy="-378" rx="118.08" ry="18"/>
<text text-anchor="middle" x="333.35" y="-374.3" font-family="Times,serif" font-size="14.00">AccountAdministrationScripts</text>
</g>
<!-- AccountAdministrationScripts&#45;&gt;DualAttestation -->
<g id="edge21" class="edge">
<title>AccountAdministrationScripts&#45;&gt;DualAttestation</title>
<path fill="none" stroke="black" d="M451.64,-377.57C657.41,-377.32 1063.62,-370.82 1107.35,-324 1226.72,-196.17 868.83,-169.8 705.76,-164.39"/>
<polygon fill="black" stroke="black" points="705.41,-160.88 695.3,-164.06 705.19,-167.87 705.41,-160.88"/>
</g>
<!-- AccountAdministrationScripts&#45;&gt;DiemAccount -->
<g id="edge27" class="edge">
<title>AccountAdministrationScripts&#45;&gt;DiemAccount</title>
<path fill="none" stroke="black" d="M237.73,-367.4C165.2,-356.36 84.14,-333.53 123.35,-288 158.54,-247.14 310.36,-262.04 363.35,-252 369.47,-250.84 375.85,-249.53 382.19,-248.16"/>
<polygon fill="black" stroke="black" points="383.06,-251.55 392.07,-245.98 381.55,-244.72 383.06,-251.55"/>
</g>
<!-- SharedEd25519PublicKey -->
<g id="node11" class="node">
<title>SharedEd25519PublicKey</title>
<ellipse fill="none" stroke="black" cx="236.35" cy="-306" rx="103.98" ry="18"/>
<text text-anchor="middle" x="236.35" y="-302.3" font-family="Times,serif" font-size="14.00">SharedEd25519PublicKey</text>
</g>
<!-- AccountAdministrationScripts&#45;&gt;SharedEd25519PublicKey -->
<g id="edge32" class="edge">
<title>AccountAdministrationScripts&#45;&gt;SharedEd25519PublicKey</title>
<path fill="none" stroke="black" d="M309.87,-360.05C297.24,-350.94 281.49,-339.58 267.81,-329.71"/>
<polygon fill="black" stroke="black" points="269.77,-326.8 259.61,-323.79 265.67,-332.48 269.77,-326.8"/>
</g>
<!-- RecoveryAddress -->
<g id="node12" class="node">
<title>RecoveryAddress</title>
<ellipse fill="none" stroke="black" cx="431.35" cy="-306" rx="73.39" ry="18"/>
<text text-anchor="middle" x="431.35" y="-302.3" font-family="Times,serif" font-size="14.00">RecoveryAddress</text>
</g>
<!-- AccountAdministrationScripts&#45;&gt;RecoveryAddress -->
<g id="edge33" class="edge">
<title>AccountAdministrationScripts&#45;&gt;RecoveryAddress</title>
<path fill="none" stroke="black" d="M357.07,-360.05C370.02,-350.81 386.21,-339.24 400.16,-329.27"/>
<polygon fill="black" stroke="black" points="402.41,-331.97 408.52,-323.31 398.35,-326.27 402.41,-331.97"/>
</g>
<!-- SharedEd25519PublicKey&#45;&gt;DiemAccount -->
<g id="edge25" class="edge">
<title>SharedEd25519PublicKey&#45;&gt;DiemAccount</title>
<path fill="none" stroke="black" d="M280.46,-289.64C312.85,-278.36 356.8,-263.05 389.95,-251.51"/>
<polygon fill="black" stroke="black" points="391.13,-254.8 399.43,-248.21 388.83,-248.19 391.13,-254.8"/>
</g>
<!-- RecoveryAddress&#45;&gt;DiemAccount -->
<g id="edge26" class="edge">
<title>RecoveryAddress&#45;&gt;DiemAccount</title>
<path fill="none" stroke="black" d="M432.83,-287.7C433.49,-279.98 434.29,-270.71 435.02,-262.11"/>
<polygon fill="black" stroke="black" points="438.51,-262.37 435.88,-252.1 431.54,-261.77 438.51,-262.37"/>
</g>
<!-- AccountCreationScripts -->
<g id="node13" class="node">
<title>AccountCreationScripts</title>
<ellipse fill="none" stroke="black" cx="617.35" cy="-306" rx="94.78" ry="18"/>
<text text-anchor="middle" x="617.35" y="-302.3" font-family="Times,serif" font-size="14.00">AccountCreationScripts</text>
</g>
<!-- AccountCreationScripts&#45;&gt;DiemAccount -->
<g id="edge28" class="edge">
<title>AccountCreationScripts&#45;&gt;DiemAccount</title>
<path fill="none" stroke="black" d="M577.4,-289.46C549.2,-278.5 511.4,-263.8 482.17,-252.43"/>
<polygon fill="black" stroke="black" points="483.21,-249.08 472.62,-248.72 480.67,-255.6 483.21,-249.08"/>
</g>
<!-- PaymentScripts -->
<g id="node14" class="node">
<title>PaymentScripts</title>
<ellipse fill="none" stroke="black" cx="796.35" cy="-306" rx="66.09" ry="18"/>
<text text-anchor="middle" x="796.35" y="-302.3" font-family="Times,serif" font-size="14.00">PaymentScripts</text>
</g>
<!-- PaymentScripts&#45;&gt;DiemAccount -->
<g id="edge30" class="edge">
<title>PaymentScripts&#45;&gt;DiemAccount</title>
<path fill="none" stroke="black" d="M747.59,-293.66C738.86,-291.72 729.85,-289.76 721.35,-288 644.54,-272.13 555.61,-255.88 498.02,-245.63"/>
<polygon fill="black" stroke="black" points="498.45,-242.15 487.99,-243.85 497.23,-249.04 498.45,-242.15"/>
</g>
</g>
</svg>
