<?xml version="1.0" encoding="UTF-8" standalone="no"?>
<!DOCTYPE svg PUBLIC "-//W3C//DTD SVG 1.1//EN"
 "http://www.w3.org/Graphics/SVG/1.1/DTD/svg11.dtd">
<!-- Generated by graphviz version 2.46.1 (20210213.1702)
 -->
<!-- Title: G Pages: 1 -->
<svg width="1029pt" height="293pt"
 viewBox="0.00 0.00 1029.00 293.00" xmlns="http://www.w3.org/2000/svg" xmlns:xlink="http://www.w3.org/1999/xlink">
<g id="graph0" class="graph" transform="scale(1 1) rotate(0) translate(4 289)">
<title>G</title>
<polygon fill="white" stroke="transparent" points="-4,4 -4,-289 1025,-289 1025,4 -4,4"/>
<g id="clust1" class="cluster">
<title>cluster_Signer</title>
<polygon fill="none" stroke="black" points="8,-8 8,-158 158,-158 158,-8 8,-8"/>
<text text-anchor="middle" x="83" y="-142.8" font-family="Times,serif" font-size="14.00">Signer</text>
</g>
<g id="clust2" class="cluster">
<title>cluster_Errors</title>
<polygon fill="none" stroke="black" points="166,-8 166,-158 733,-158 733,-8 166,-8"/>
<text text-anchor="middle" x="449.5" y="-142.8" font-family="Times,serif" font-size="14.00">Errors</text>
</g>
<g id="clust3" class="cluster">
<title>cluster_Roles</title>
<polygon fill="none" stroke="black" points="136,-166 136,-241 350,-241 350,-166 136,-166"/>
<text text-anchor="middle" x="243" y="-225.8" font-family="Times,serif" font-size="14.00">Roles</text>
</g>
<g id="clust4" class="cluster">
<title>cluster_Vector</title>
<polygon fill="none" stroke="black" points="440,-166 440,-241 522,-241 522,-166 440,-166"/>
<text text-anchor="middle" x="481" y="-225.8" font-family="Times,serif" font-size="14.00">Vector</text>
</g>
<g id="clust5" class="cluster">
<title>cluster_CoreAddresses</title>
<polygon fill="none" stroke="black" points="741,-8 741,-83 1013,-83 1013,-8 741,-8"/>
<text text-anchor="middle" x="877" y="-67.8" font-family="Times,serif" font-size="14.00">CoreAddresses</text>
</g>
<!-- publish_preburn_queue -->
<g id="node1" class="node">
<title>publish_preburn_queue</title>
<ellipse fill="none" stroke="black" cx="401" cy="-267" rx="93.68" ry="18"/>
<text text-anchor="middle" x="401" y="-263.3" font-family="Times,serif" font-size="14.00">publish_preburn_queue</text>
</g>
<!-- Signer::address_of -->
<g id="node2" class="node">
<title>Signer::address_of</title>
<ellipse fill="none" stroke="black" cx="101" cy="-109" rx="48.99" ry="18"/>
<text text-anchor="middle" x="101" y="-105.3" font-family="Times,serif" font-size="14.00">address_of</text>
</g>
<!-- publish_preburn_queue&#45;&gt;Signer::address_of -->
<g id="edge1" class="edge">
<title>publish_preburn_queue&#45;&gt;Signer::address_of</title>
<path fill="none" stroke="black" d="M309.83,-262.73C237.16,-259.27 145.41,-252.65 132,-241 102.62,-215.46 98.35,-167.71 98.95,-137.45"/>
<polygon fill="black" stroke="black" points="102.46,-137.3 99.35,-127.17 95.46,-137.03 102.46,-137.3"/>
</g>
<!-- Errors::already_published -->
<g id="node3" class="node">
<title>Errors::already_published</title>
<ellipse fill="none" stroke="black" cx="382" cy="-109" rx="75.29" ry="18"/>
<text text-anchor="middle" x="382" y="-105.3" font-family="Times,serif" font-size="14.00">already_published</text>
</g>
<!-- publish_preburn_queue&#45;&gt;Errors::already_published -->
<g id="edge2" class="edge">
<title>publish_preburn_queue&#45;&gt;Errors::already_published</title>
<path fill="none" stroke="black" d="M398.89,-248.71C395.61,-221.77 389.25,-169.54 385.34,-137.42"/>
<polygon fill="black" stroke="black" points="388.8,-136.87 384.12,-127.37 381.85,-137.72 388.8,-136.87"/>
</g>
<!-- Errors::invalid_state -->
<g id="node4" class="node">
<title>Errors::invalid_state</title>
<ellipse fill="none" stroke="black" cx="531" cy="-109" rx="55.79" ry="18"/>
<text text-anchor="middle" x="531" y="-105.3" font-family="Times,serif" font-size="14.00">invalid_state</text>
</g>
<!-- publish_preburn_queue&#45;&gt;Errors::invalid_state -->
<g id="edge3" class="edge">
<title>publish_preburn_queue&#45;&gt;Errors::invalid_state</title>
<path fill="none" stroke="black" d="M405.01,-248.62C411.21,-223.12 423.72,-177.38 436,-166 446.12,-156.62 453.56,-163.98 466,-158 479.94,-151.3 493.92,-141.47 505.33,-132.44"/>
<polygon fill="black" stroke="black" points="507.61,-135.1 513.15,-126.07 503.19,-129.68 507.61,-135.1"/>
</g>
<!-- Roles::assert_designated_dealer -->
<g id="node5" class="node">
<title>Roles::assert_designated_dealer</title>
<ellipse fill="none" stroke="black" cx="243" cy="-192" rx="98.58" ry="18"/>
<text text-anchor="middle" x="243" y="-188.3" font-family="Times,serif" font-size="14.00">assert_designated_dealer</text>
</g>
<!-- publish_preburn_queue&#45;&gt;Roles::assert_designated_dealer -->
<g id="edge4" class="edge">
<title>publish_preburn_queue&#45;&gt;Roles::assert_designated_dealer</title>
<path fill="none" stroke="black" d="M366.72,-250.16C343.3,-239.34 312.06,-224.91 286.83,-213.25"/>
<polygon fill="black" stroke="black" points="288.04,-209.95 277.49,-208.93 285.1,-216.31 288.04,-209.95"/>
</g>
<!-- Vector::empty -->
<g id="node6" class="node">
<title>Vector::empty</title>
<ellipse fill="none" stroke="black" cx="481" cy="-192" rx="33.29" ry="18"/>
<text text-anchor="middle" x="481" y="-188.3" font-family="Times,serif" font-size="14.00">empty</text>
</g>
<!-- publish_preburn_queue&#45;&gt;Vector::empty -->
<g id="edge5" class="edge">
<title>publish_preburn_queue&#45;&gt;Vector::empty</title>
<path fill="none" stroke="black" d="M423.72,-249.49C427.23,-246.74 430.76,-243.85 434,-241 442.66,-233.37 451.66,-224.46 459.43,-216.41"/>
<polygon fill="black" stroke="black" points="462.38,-218.37 466.73,-208.71 457.31,-213.55 462.38,-218.37"/>
</g>
<!-- assert_is_currency -->
<g id="node7" class="node">
<title>assert_is_currency</title>
<ellipse fill="none" stroke="black" cx="665" cy="-192" rx="76.09" ry="18"/>
<text text-anchor="middle" x="665" y="-188.3" font-family="Times,serif" font-size="14.00">assert_is_currency</text>
</g>
<!-- publish_preburn_queue&#45;&gt;assert_is_currency -->
<g id="edge6" class="edge">
<title>publish_preburn_queue&#45;&gt;assert_is_currency</title>
<path fill="none" stroke="black" d="M467.88,-254.36C486.79,-250.6 507.31,-246.07 526,-241 556.94,-232.6 590.97,-220.9 617.62,-211.14"/>
<polygon fill="black" stroke="black" points="618.92,-214.4 627.08,-207.65 616.49,-207.83 618.92,-214.4"/>
</g>
<!-- Signer::borrow_address -->
<g id="node8" class="node">
<title>Signer::borrow_address</title>
<ellipse fill="none" stroke="black" cx="83" cy="-34" rx="66.89" ry="18"/>
<text text-anchor="middle" x="83" y="-30.3" font-family="Times,serif" font-size="14.00">borrow_address</text>
</g>
<!-- Signer::address_of&#45;&gt;Signer::borrow_address -->
<g id="edge7" class="edge">
<title>Signer::address_of&#45;&gt;Signer::borrow_address</title>
<path fill="none" stroke="black" d="M96.73,-90.7C94.63,-82.15 92.04,-71.65 89.67,-62.07"/>
<polygon fill="black" stroke="black" points="93.03,-61.05 87.24,-52.18 86.23,-62.72 93.03,-61.05"/>
</g>
<!-- Errors::make -->
<g id="node9" class="node">
<title>Errors::make</title>
<ellipse fill="none" stroke="black" cx="456" cy="-34" rx="30.59" ry="18"/>
<text text-anchor="middle" x="456" y="-30.3" font-family="Times,serif" font-size="14.00">make</text>
</g>
<!-- Errors::already_published&#45;&gt;Errors::make -->
<g id="edge8" class="edge">
<title>Errors::already_published&#45;&gt;Errors::make</title>
<path fill="none" stroke="black" d="M398.79,-91.44C409.05,-81.32 422.29,-68.25 433.45,-57.24"/>
<polygon fill="black" stroke="black" points="436.12,-59.52 440.78,-50.01 431.21,-54.54 436.12,-59.52"/>
</g>
<!-- Errors::invalid_state&#45;&gt;Errors::make -->
<g id="edge9" class="edge">
<title>Errors::invalid_state&#45;&gt;Errors::make</title>
<path fill="none" stroke="black" d="M514.36,-91.8C503.73,-81.46 489.84,-67.94 478.28,-56.68"/>
<polygon fill="black" stroke="black" points="480.68,-54.14 471.07,-49.67 475.8,-59.15 480.68,-54.14"/>
</g>
<!-- Roles::assert_designated_dealer&#45;&gt;Signer::address_of -->
<g id="edge10" class="edge">
<title>Roles::assert_designated_dealer&#45;&gt;Signer::address_of</title>
<path fill="none" stroke="black" d="M199.06,-175.7C186.73,-170.72 173.55,-164.72 162,-158 149.59,-150.78 136.95,-141.26 126.41,-132.6"/>
<polygon fill="black" stroke="black" points="128.36,-129.67 118.46,-125.9 123.85,-135.02 128.36,-129.67"/>
</g>
<!-- Errors::not_published -->
<g id="node10" class="node">
<title>Errors::not_published</title>
<ellipse fill="none" stroke="black" cx="665" cy="-109" rx="60.39" ry="18"/>
<text text-anchor="middle" x="665" y="-105.3" font-family="Times,serif" font-size="14.00">not_published</text>
</g>
<!-- Roles::assert_designated_dealer&#45;&gt;Errors::not_published -->
<g id="edge11" class="edge">
<title>Roles::assert_designated_dealer&#45;&gt;Errors::not_published</title>
<path fill="none" stroke="black" d="M317.09,-180.01C352.93,-175.05 396.63,-169.53 436,-166 471.46,-162.82 562.31,-169.5 596,-158 611.82,-152.6 627.3,-142.42 639.58,-132.82"/>
<polygon fill="black" stroke="black" points="641.99,-135.37 647.53,-126.33 637.57,-129.94 641.99,-135.37"/>
</g>
<!-- Errors::requires_role -->
<g id="node11" class="node">
<title>Errors::requires_role</title>
<ellipse fill="none" stroke="black" cx="231" cy="-109" rx="57.39" ry="18"/>
<text text-anchor="middle" x="231" y="-105.3" font-family="Times,serif" font-size="14.00">requires_role</text>
</g>
<!-- Roles::assert_designated_dealer&#45;&gt;Errors::requires_role -->
<g id="edge12" class="edge">
<title>Roles::assert_designated_dealer&#45;&gt;Errors::requires_role</title>
<path fill="none" stroke="black" d="M240.46,-173.82C238.88,-163.19 236.82,-149.31 235.03,-137.2"/>
<polygon fill="black" stroke="black" points="238.47,-136.53 233.54,-127.15 231.54,-137.56 238.47,-136.53"/>
</g>
<!-- assert_is_currency&#45;&gt;Errors::not_published -->
<g id="edge13" class="edge">
<title>assert_is_currency&#45;&gt;Errors::not_published</title>
<path fill="none" stroke="black" d="M665,-173.82C665,-163.19 665,-149.31 665,-137.2"/>
<polygon fill="black" stroke="black" points="668.5,-137.15 665,-127.15 661.5,-137.15 668.5,-137.15"/>
</g>
<!-- is_currency -->
<g id="node12" class="node">
<title>is_currency</title>
<ellipse fill="none" stroke="black" cx="836" cy="-109" rx="51.99" ry="18"/>
<text text-anchor="middle" x="836" y="-105.3" font-family="Times,serif" font-size="14.00">is_currency</text>
</g>
<!-- assert_is_currency&#45;&gt;is_currency -->
<g id="edge14" class="edge">
<title>assert_is_currency&#45;&gt;is_currency</title>
<path fill="none" stroke="black" d="M698.77,-175.71C710.86,-170.18 724.56,-163.86 737,-158 757.16,-148.5 779.5,-137.69 797.85,-128.73"/>
<polygon fill="black" stroke="black" points="799.61,-131.77 807.06,-124.24 796.53,-125.48 799.61,-131.77"/>
</g>
<!-- Errors::not_published&#45;&gt;Errors::make -->
<g id="edge15" class="edge">
<title>Errors::not_published&#45;&gt;Errors::make</title>
<path fill="none" stroke="black" d="M627.15,-94.78C588.49,-81.28 528.95,-60.48 491.26,-47.32"/>
<polygon fill="black" stroke="black" points="492.3,-43.97 481.71,-43.98 489.99,-50.58 492.3,-43.97"/>
</g>
<!-- Errors::requires_role&#45;&gt;Errors::make -->
<g id="edge16" class="edge">
<title>Errors::requires_role&#45;&gt;Errors::make</title>
<path fill="none" stroke="black" d="M269.42,-95.53C311.63,-81.84 378.88,-60.02 420.07,-46.66"/>
<polygon fill="black" stroke="black" points="421.26,-49.95 429.7,-43.53 419.1,-43.29 421.26,-49.95"/>
</g>
<!-- CoreAddresses::CURRENCY_INFO_ADDRESS -->
<g id="node13" class="node">
<title>CoreAddresses::CURRENCY_INFO_ADDRESS</title>
<ellipse fill="none" stroke="black" cx="877" cy="-34" rx="128.08" ry="18"/>
<text text-anchor="middle" x="877" y="-30.3" font-family="Times,serif" font-size="14.00">CURRENCY_INFO_ADDRESS</text>
</g>
<!-- is_currency&#45;&gt;CoreAddresses::CURRENCY_INFO_ADDRESS -->
<g id="edge17" class="edge">
<title>is_currency&#45;&gt;CoreAddresses::CURRENCY_INFO_ADDRESS</title>
<path fill="none" stroke="black" d="M845.51,-91.07C850.54,-82.1 856.84,-70.9 862.47,-60.87"/>
<polygon fill="black" stroke="black" points="865.55,-62.53 867.4,-52.09 859.45,-59.1 865.55,-62.53"/>
</g>
</g>
</svg>
