<?xml version="1.0" encoding="UTF-8" standalone="no"?>
<!DOCTYPE svg PUBLIC "-//W3C//DTD SVG 1.1//EN"
 "http://www.w3.org/Graphics/SVG/1.1/DTD/svg11.dtd">
<!-- Generated by graphviz version 2.46.1 (20210213.1702)
 -->
<!-- Title: G Pages: 1 -->
<svg width="296pt" height="207pt"
 viewBox="0.00 0.00 296.00 207.00" xmlns="http://www.w3.org/2000/svg" xmlns:xlink="http://www.w3.org/1999/xlink">
<g id="graph0" class="graph" transform="scale(1 1) rotate(0) translate(4 203)">
<title>G</title>
<polygon fill="white" stroke="transparent" points="-4,4 -4,-203 292,-203 292,4 -4,4"/>
<g id="clust1" class="cluster">
<title>cluster_CoreAddresses</title>
<polygon fill="none" stroke="black" points="8,-8 8,-83 280,-83 280,-8 8,-8"/>
<text text-anchor="middle" x="144" y="-67.8" font-family="Times,serif" font-size="14.00">CoreAddresses</text>
</g>
<!-- is_SCS_currency -->
<g id="node1" class="node">
<title>is_SCS_currency</title>
<ellipse fill="none" stroke="black" cx="144" cy="-181" rx="71.49" ry="18"/>
<text text-anchor="middle" x="144" y="-177.3" font-family="Times,serif" font-size="14.00">is_SCS_currency</text>
</g>
<!-- CoreAddresses::CURRENCY_INFO_ADDRESS -->
<g id="node2" class="node">
<title>CoreAddresses::CURRENCY_INFO_ADDRESS</title>
<ellipse fill="none" stroke="black" cx="144" cy="-34" rx="128.08" ry="18"/>
<text text-anchor="middle" x="144" y="-30.3" font-family="Times,serif" font-size="14.00">CURRENCY_INFO_ADDRESS</text>
</g>
<!-- is_SCS_currency&#45;&gt;CoreAddresses::CURRENCY_INFO_ADDRESS -->
<g id="edge1" class="edge">
<title>is_SCS_currency&#45;&gt;CoreAddresses::CURRENCY_INFO_ADDRESS</title>
<path fill="none" stroke="black" d="M135.28,-162.83C130.63,-152.69 125.38,-139.44 123,-127 120,-111.28 120.15,-106.74 123,-91 124.8,-81.1 128.24,-70.66 131.83,-61.52"/>
<polygon fill="black" stroke="black" points="135.1,-62.77 135.71,-52.2 128.64,-60.08 135.1,-62.77"/>
</g>
<!-- is_currency -->
<g id="node3" class="node">
<title>is_currency</title>
<ellipse fill="none" stroke="black" cx="184" cy="-109" rx="51.99" ry="18"/>
<text text-anchor="middle" x="184" y="-105.3" font-family="Times,serif" font-size="14.00">is_currency</text>
</g>
<!-- is_SCS_currency&#45;&gt;is_currency -->
<g id="edge2" class="edge">
<title>is_SCS_currency&#45;&gt;is_currency</title>
<path fill="none" stroke="black" d="M153.68,-163.05C158.4,-154.8 164.17,-144.7 169.41,-135.54"/>
<polygon fill="black" stroke="black" points="172.48,-137.21 174.41,-126.79 166.41,-133.73 172.48,-137.21"/>
</g>
<!-- is_currency&#45;&gt;CoreAddresses::CURRENCY_INFO_ADDRESS -->
<g id="edge3" class="edge">
<title>is_currency&#45;&gt;CoreAddresses::CURRENCY_INFO_ADDRESS</title>
<path fill="none" stroke="black" d="M174.72,-91.07C169.81,-82.1 163.67,-70.9 158.18,-60.87"/>
<polygon fill="black" stroke="black" points="161.24,-59.18 153.37,-52.09 155.1,-62.54 161.24,-59.18"/>
</g>
</g>
</svg>
