<?xml version="1.0" encoding="UTF-8" standalone="no"?>
<!DOCTYPE svg PUBLIC "-//W3C//DTD SVG 1.1//EN"
 "http://www.w3.org/Graphics/SVG/1.1/DTD/svg11.dtd">
<!-- Generated by graphviz version 2.46.1 (20210213.1702)
 -->
<!-- Title: G Pages: 1 -->
<svg width="1944pt" height="520pt"
 viewBox="0.00 0.00 1943.90 520.00" xmlns="http://www.w3.org/2000/svg" xmlns:xlink="http://www.w3.org/1999/xlink">
<g id="graph0" class="graph" transform="scale(1 1) rotate(0) translate(4 516)">
<title>G</title>
<polygon fill="white" stroke="transparent" points="-4,4 -4,-516 1939.9,-516 1939.9,4 -4,4"/>
<g id="clust1" class="cluster">
<title>cluster_Errors</title>
<polygon fill="none" stroke="black" points="505.9,-152 505.9,-310 1097.9,-310 1097.9,-152 505.9,-152"/>
<text text-anchor="middle" x="801.9" y="-294.8" font-family="Times,serif" font-size="14.00">Errors</text>
</g>
<g id="clust2" class="cluster">
<title>cluster_CoreAddresses</title>
<polygon fill="none" stroke="black" points="267.9,-235 267.9,-393 497.9,-393 497.9,-235 267.9,-235"/>
<text text-anchor="middle" x="382.9" y="-377.8" font-family="Times,serif" font-size="14.00">CoreAddresses</text>
</g>
<g id="clust3" class="cluster">
<title>cluster_DiemTimestamp</title>
<polygon fill="none" stroke="black" points="121.9,-318 121.9,-468 259.9,-468 259.9,-318 121.9,-318"/>
<text text-anchor="middle" x="190.9" y="-452.8" font-family="Times,serif" font-size="14.00">DiemTimestamp</text>
</g>
<g id="clust4" class="cluster">
<title>cluster_Event</title>
<polygon fill="none" stroke="black" points="1263.9,-235 1263.9,-393 1433.9,-393 1433.9,-235 1263.9,-235"/>
<text text-anchor="middle" x="1348.9" y="-377.8" font-family="Times,serif" font-size="14.00">Event</text>
</g>
<g id="clust5" class="cluster">
<title>cluster_Signer</title>
<polygon fill="none" stroke="black" points="1105.9,-152 1105.9,-310 1255.9,-310 1255.9,-152 1105.9,-152"/>
<text text-anchor="middle" x="1180.9" y="-294.8" font-family="Times,serif" font-size="14.00">Signer</text>
</g>
<g id="clust6" class="cluster">
<title>cluster_Vector</title>
<polygon fill="none" stroke="black" points="1263.9,-8 1263.9,-227 1823.9,-227 1823.9,-8 1263.9,-8"/>
<text text-anchor="middle" x="1543.9" y="-211.8" font-family="Times,serif" font-size="14.00">Vector</text>
</g>
<g id="clust7" class="cluster">
<title>cluster_BCS</title>
<polygon fill="none" stroke="black" points="1831.9,-152 1831.9,-227 1927.9,-227 1927.9,-152 1831.9,-152"/>
<text text-anchor="middle" x="1879.9" y="-211.8" font-family="Times,serif" font-size="14.00">BCS</text>
</g>
<!-- initialize_block_metadata -->
<g id="node1" class="node">
<title>initialize_block_metadata</title>
<ellipse fill="none" stroke="black" cx="418.9" cy="-494" rx="102.08" ry="18"/>
<text text-anchor="middle" x="418.9" y="-490.3" font-family="Times,serif" font-size="14.00">initialize_block_metadata</text>
</g>
<!-- Errors::already_published -->
<g id="node2" class="node">
<title>Errors::already_published</title>
<ellipse fill="none" stroke="black" cx="875.9" cy="-261" rx="75.29" ry="18"/>
<text text-anchor="middle" x="875.9" y="-257.3" font-family="Times,serif" font-size="14.00">already_published</text>
</g>
<!-- initialize_block_metadata&#45;&gt;Errors::already_published -->
<g id="edge1" class="edge">
<title>initialize_block_metadata&#45;&gt;Errors::already_published</title>
<path fill="none" stroke="black" d="M453.46,-476.94C519.75,-445.93 669.07,-375.14 791.9,-310 807.87,-301.53 825.26,-291.69 840.06,-283.14"/>
<polygon fill="black" stroke="black" points="842.01,-286.05 848.9,-278 838.49,-280 842.01,-286.05"/>
</g>
<!-- CoreAddresses::assert_diem_root -->
<g id="node3" class="node">
<title>CoreAddresses::assert_diem_root</title>
<ellipse fill="none" stroke="black" cx="418.9" cy="-344" rx="71.49" ry="18"/>
<text text-anchor="middle" x="418.9" y="-340.3" font-family="Times,serif" font-size="14.00">assert_diem_root</text>
</g>
<!-- initialize_block_metadata&#45;&gt;CoreAddresses::assert_diem_root -->
<g id="edge2" class="edge">
<title>initialize_block_metadata&#45;&gt;CoreAddresses::assert_diem_root</title>
<path fill="none" stroke="black" d="M418.9,-475.73C418.9,-450.33 418.9,-402.65 418.9,-372.43"/>
<polygon fill="black" stroke="black" points="422.4,-372.16 418.9,-362.16 415.4,-372.16 422.4,-372.16"/>
</g>
<!-- DiemTimestamp::assert_genesis -->
<g id="node4" class="node">
<title>DiemTimestamp::assert_genesis</title>
<ellipse fill="none" stroke="black" cx="190.9" cy="-419" rx="61.19" ry="18"/>
<text text-anchor="middle" x="190.9" y="-415.3" font-family="Times,serif" font-size="14.00">assert_genesis</text>
</g>
<!-- initialize_block_metadata&#45;&gt;DiemTimestamp::assert_genesis -->
<g id="edge3" class="edge">
<title>initialize_block_metadata&#45;&gt;DiemTimestamp::assert_genesis</title>
<path fill="none" stroke="black" d="M371.93,-477.96C333.47,-465.65 279.23,-448.28 240.16,-435.77"/>
<polygon fill="black" stroke="black" points="241.17,-432.42 230.58,-432.71 239.03,-439.09 241.17,-432.42"/>
</g>
<!-- Event::new_event_handle -->
<g id="node5" class="node">
<title>Event::new_event_handle</title>
<ellipse fill="none" stroke="black" cx="1348.9" cy="-344" rx="76.89" ry="18"/>
<text text-anchor="middle" x="1348.9" y="-340.3" font-family="Times,serif" font-size="14.00">new_event_handle</text>
</g>
<!-- initialize_block_metadata&#45;&gt;Event::new_event_handle -->
<g id="edge4" class="edge">
<title>initialize_block_metadata&#45;&gt;Event::new_event_handle</title>
<path fill="none" stroke="black" d="M519.81,-490.99C599.04,-488.35 711.95,-482.21 809.9,-468 988.28,-442.11 1195.01,-388.01 1292.5,-361.03"/>
<polygon fill="black" stroke="black" points="1293.45,-364.39 1302.15,-358.34 1291.58,-357.65 1293.45,-364.39"/>
</g>
<!-- is_initialized -->
<g id="node6" class="node">
<title>is_initialized</title>
<ellipse fill="none" stroke="black" cx="55.9" cy="-419" rx="55.79" ry="18"/>
<text text-anchor="middle" x="55.9" y="-415.3" font-family="Times,serif" font-size="14.00">is_initialized</text>
</g>
<!-- initialize_block_metadata&#45;&gt;is_initialized -->
<g id="edge5" class="edge">
<title>initialize_block_metadata&#45;&gt;is_initialized</title>
<path fill="none" stroke="black" d="M318.19,-490.75C245.19,-487.97 153.33,-481.78 117.9,-468 103.74,-462.5 90.15,-452.67 79.32,-443.34"/>
<polygon fill="black" stroke="black" points="81.38,-440.48 71.61,-436.38 76.68,-445.68 81.38,-440.48"/>
</g>
<!-- Errors::make -->
<g id="node7" class="node">
<title>Errors::make</title>
<ellipse fill="none" stroke="black" cx="800.9" cy="-178" rx="30.59" ry="18"/>
<text text-anchor="middle" x="800.9" y="-174.3" font-family="Times,serif" font-size="14.00">make</text>
</g>
<!-- Errors::already_published&#45;&gt;Errors::make -->
<g id="edge6" class="edge">
<title>Errors::already_published&#45;&gt;Errors::make</title>
<path fill="none" stroke="black" d="M860.35,-243.22C849.16,-231.13 833.95,-214.69 821.71,-201.48"/>
<polygon fill="black" stroke="black" points="824.26,-199.08 814.9,-194.12 819.12,-203.84 824.26,-199.08"/>
</g>
<!-- Signer::address_of -->
<g id="node8" class="node">
<title>Signer::address_of</title>
<ellipse fill="none" stroke="black" cx="1180.9" cy="-261" rx="48.99" ry="18"/>
<text text-anchor="middle" x="1180.9" y="-257.3" font-family="Times,serif" font-size="14.00">address_of</text>
</g>
<!-- CoreAddresses::assert_diem_root&#45;&gt;Signer::address_of -->
<g id="edge7" class="edge">
<title>CoreAddresses::assert_diem_root&#45;&gt;Signer::address_of</title>
<path fill="none" stroke="black" d="M489.89,-341.55C652.95,-337.94 1044.61,-327.54 1101.9,-310 1120.19,-304.4 1138.59,-293.6 1153.02,-283.66"/>
<polygon fill="black" stroke="black" points="1155.35,-286.3 1161.45,-277.64 1151.28,-280.6 1155.35,-286.3"/>
</g>
<!-- Errors::requires_address -->
<g id="node9" class="node">
<title>Errors::requires_address</title>
<ellipse fill="none" stroke="black" cx="583.9" cy="-261" rx="69.59" ry="18"/>
<text text-anchor="middle" x="583.9" y="-257.3" font-family="Times,serif" font-size="14.00">requires_address</text>
</g>
<!-- CoreAddresses::assert_diem_root&#45;&gt;Errors::requires_address -->
<g id="edge8" class="edge">
<title>CoreAddresses::assert_diem_root&#45;&gt;Errors::requires_address</title>
<path fill="none" stroke="black" d="M458.27,-328.75C472.25,-323.32 487.96,-316.8 501.9,-310 518.22,-302.03 535.68,-292.04 550.27,-283.23"/>
<polygon fill="black" stroke="black" points="552.24,-286.13 558.95,-277.93 548.59,-280.15 552.24,-286.13"/>
</g>
<!-- CoreAddresses::DIEM_ROOT_ADDRESS -->
<g id="node10" class="node">
<title>CoreAddresses::DIEM_ROOT_ADDRESS</title>
<ellipse fill="none" stroke="black" cx="382.9" cy="-261" rx="106.68" ry="18"/>
<text text-anchor="middle" x="382.9" y="-257.3" font-family="Times,serif" font-size="14.00">DIEM_ROOT_ADDRESS</text>
</g>
<!-- CoreAddresses::assert_diem_root&#45;&gt;CoreAddresses::DIEM_ROOT_ADDRESS -->
<g id="edge9" class="edge">
<title>CoreAddresses::assert_diem_root&#45;&gt;CoreAddresses::DIEM_ROOT_ADDRESS</title>
<path fill="none" stroke="black" d="M411.26,-325.82C406.44,-314.98 400.11,-300.74 394.66,-288.47"/>
<polygon fill="black" stroke="black" points="397.78,-286.87 390.52,-279.15 391.38,-289.71 397.78,-286.87"/>
</g>
<!-- Errors::invalid_state -->
<g id="node11" class="node">
<title>Errors::invalid_state</title>
<ellipse fill="none" stroke="black" cx="726.9" cy="-261" rx="55.79" ry="18"/>
<text text-anchor="middle" x="726.9" y="-257.3" font-family="Times,serif" font-size="14.00">invalid_state</text>
</g>
<!-- DiemTimestamp::assert_genesis&#45;&gt;Errors::invalid_state -->
<g id="edge10" class="edge">
<title>DiemTimestamp::assert_genesis&#45;&gt;Errors::invalid_state</title>
<path fill="none" stroke="black" d="M251.24,-415.97C328.09,-412.9 456.38,-405.99 501.9,-393 579.8,-370.76 658.92,-315.44 699.36,-284.27"/>
<polygon fill="black" stroke="black" points="701.66,-286.91 707.39,-278 697.35,-281.39 701.66,-286.91"/>
</g>
<!-- DiemTimestamp::is_genesis -->
<g id="node12" class="node">
<title>DiemTimestamp::is_genesis</title>
<ellipse fill="none" stroke="black" cx="197.9" cy="-344" rx="46.59" ry="18"/>
<text text-anchor="middle" x="197.9" y="-340.3" font-family="Times,serif" font-size="14.00">is_genesis</text>
</g>
<!-- DiemTimestamp::assert_genesis&#45;&gt;DiemTimestamp::is_genesis -->
<g id="edge11" class="edge">
<title>DiemTimestamp::assert_genesis&#45;&gt;DiemTimestamp::is_genesis</title>
<path fill="none" stroke="black" d="M192.55,-400.7C193.36,-392.25 194.36,-381.87 195.27,-372.37"/>
<polygon fill="black" stroke="black" points="198.78,-372.46 196.25,-362.18 191.81,-371.8 198.78,-372.46"/>
</g>
<!-- Event::new_event_handle&#45;&gt;Signer::address_of -->
<g id="edge12" class="edge">
<title>Event::new_event_handle&#45;&gt;Signer::address_of</title>
<path fill="none" stroke="black" d="M1306.1,-329C1291.22,-323.65 1274.58,-317.1 1259.9,-310 1243.38,-302.01 1225.87,-291.59 1211.54,-282.5"/>
<polygon fill="black" stroke="black" points="1213.37,-279.52 1203.07,-277.05 1209.58,-285.4 1213.37,-279.52"/>
</g>
<!-- Errors::not_published -->
<g id="node13" class="node">
<title>Errors::not_published</title>
<ellipse fill="none" stroke="black" cx="1029.9" cy="-261" rx="60.39" ry="18"/>
<text text-anchor="middle" x="1029.9" y="-257.3" font-family="Times,serif" font-size="14.00">not_published</text>
</g>
<!-- Event::new_event_handle&#45;&gt;Errors::not_published -->
<g id="edge13" class="edge">
<title>Event::new_event_handle&#45;&gt;Errors::not_published</title>
<path fill="none" stroke="black" d="M1272.7,-341.69C1222.73,-338.71 1156.75,-330.67 1101.9,-310 1086.02,-304.02 1070.14,-293.97 1057.35,-284.61"/>
<polygon fill="black" stroke="black" points="1059.1,-281.55 1049.02,-278.3 1054.87,-287.13 1059.1,-281.55"/>
</g>
<!-- Event::fresh_guid -->
<g id="node14" class="node">
<title>Event::fresh_guid</title>
<ellipse fill="none" stroke="black" cx="1377.9" cy="-261" rx="48.19" ry="18"/>
<text text-anchor="middle" x="1377.9" y="-257.3" font-family="Times,serif" font-size="14.00">fresh_guid</text>
</g>
<!-- Event::new_event_handle&#45;&gt;Event::fresh_guid -->
<g id="edge14" class="edge">
<title>Event::new_event_handle&#45;&gt;Event::fresh_guid</title>
<path fill="none" stroke="black" d="M1355.05,-325.82C1358.92,-315.01 1363.99,-300.84 1368.37,-288.59"/>
<polygon fill="black" stroke="black" points="1371.78,-289.47 1371.85,-278.88 1365.19,-287.11 1371.78,-289.47"/>
</g>
<!-- is_initialized&#45;&gt;CoreAddresses::DIEM_ROOT_ADDRESS -->
<g id="edge15" class="edge">
<title>is_initialized&#45;&gt;CoreAddresses::DIEM_ROOT_ADDRESS</title>
<path fill="none" stroke="black" d="M61.65,-400.86C70.2,-378.18 88.47,-338.66 117.9,-318 145.39,-298.7 224.72,-283.5 289.47,-273.84"/>
<polygon fill="black" stroke="black" points="290.34,-277.25 299.73,-272.34 289.33,-270.32 290.34,-277.25"/>
</g>
<!-- Signer::borrow_address -->
<g id="node15" class="node">
<title>Signer::borrow_address</title>
<ellipse fill="none" stroke="black" cx="1180.9" cy="-178" rx="66.89" ry="18"/>
<text text-anchor="middle" x="1180.9" y="-174.3" font-family="Times,serif" font-size="14.00">borrow_address</text>
</g>
<!-- Signer::address_of&#45;&gt;Signer::borrow_address -->
<g id="edge16" class="edge">
<title>Signer::address_of&#45;&gt;Signer::borrow_address</title>
<path fill="none" stroke="black" d="M1180.9,-242.82C1180.9,-232.19 1180.9,-218.31 1180.9,-206.2"/>
<polygon fill="black" stroke="black" points="1184.4,-206.15 1180.9,-196.15 1177.4,-206.15 1184.4,-206.15"/>
</g>
<!-- Errors::requires_address&#45;&gt;Errors::make -->
<g id="edge17" class="edge">
<title>Errors::requires_address&#45;&gt;Errors::make</title>
<path fill="none" stroke="black" d="M621.69,-245.89C662.44,-230.68 726.75,-206.68 766.24,-191.94"/>
<polygon fill="black" stroke="black" points="767.57,-195.18 775.71,-188.4 765.12,-188.62 767.57,-195.18"/>
</g>
<!-- Errors::invalid_state&#45;&gt;Errors::make -->
<g id="edge18" class="edge">
<title>Errors::invalid_state&#45;&gt;Errors::make</title>
<path fill="none" stroke="black" d="M741.87,-243.61C752.88,-231.55 767.99,-215.01 780.17,-201.69"/>
<polygon fill="black" stroke="black" points="782.78,-204.01 786.94,-194.27 777.61,-199.29 782.78,-204.01"/>
</g>
<!-- DiemTimestamp::is_genesis&#45;&gt;CoreAddresses::DIEM_ROOT_ADDRESS -->
<g id="edge19" class="edge">
<title>DiemTimestamp::is_genesis&#45;&gt;CoreAddresses::DIEM_ROOT_ADDRESS</title>
<path fill="none" stroke="black" d="M227.62,-329.99C257.12,-317.07 302.75,-297.09 336.93,-282.13"/>
<polygon fill="black" stroke="black" points="338.48,-285.27 346.24,-278.05 335.68,-278.85 338.48,-285.27"/>
</g>
<!-- Errors::not_published&#45;&gt;Errors::make -->
<g id="edge20" class="edge">
<title>Errors::not_published&#45;&gt;Errors::make</title>
<path fill="none" stroke="black" d="M992.85,-246.74C982.21,-242.94 970.6,-238.8 959.9,-235 917.46,-219.95 868.6,-202.76 836.37,-191.44"/>
<polygon fill="black" stroke="black" points="837.11,-188 826.52,-187.99 834.79,-194.6 837.11,-188"/>
</g>
<!-- Vector::append -->
<g id="node16" class="node">
<title>Vector::append</title>
<ellipse fill="none" stroke="black" cx="1513.9" cy="-178" rx="36.29" ry="18"/>
<text text-anchor="middle" x="1513.9" y="-174.3" font-family="Times,serif" font-size="14.00">append</text>
</g>
<!-- Event::fresh_guid&#45;&gt;Vector::append -->
<g id="edge21" class="edge">
<title>Event::fresh_guid&#45;&gt;Vector::append</title>
<path fill="none" stroke="black" d="M1402.52,-245.33C1424.92,-231.99 1458.1,-212.23 1482.41,-197.75"/>
<polygon fill="black" stroke="black" points="1484.46,-200.61 1491.26,-192.48 1480.87,-194.59 1484.46,-200.61"/>
</g>
<!-- BCS::to_bytes -->
<g id="node17" class="node">
<title>BCS::to_bytes</title>
<ellipse fill="none" stroke="black" cx="1879.9" cy="-178" rx="40.09" ry="18"/>
<text text-anchor="middle" x="1879.9" y="-174.3" font-family="Times,serif" font-size="14.00">to_bytes</text>
</g>
<!-- Event::fresh_guid&#45;&gt;BCS::to_bytes -->
<g id="edge22" class="edge">
<title>Event::fresh_guid&#45;&gt;BCS::to_bytes</title>
<path fill="none" stroke="black" d="M1426.15,-260.44C1527.05,-260.72 1756.84,-257.82 1827.9,-227 1840.22,-221.65 1851.51,-212.11 1860.39,-202.94"/>
<polygon fill="black" stroke="black" points="1863.1,-205.16 1867.26,-195.42 1857.93,-200.44 1863.1,-205.16"/>
</g>
<!-- Vector::destroy_empty -->
<g id="node18" class="node">
<title>Vector::destroy_empty</title>
<ellipse fill="none" stroke="black" cx="1335.9" cy="-106" rx="63.89" ry="18"/>
<text text-anchor="middle" x="1335.9" y="-102.3" font-family="Times,serif" font-size="14.00">destroy_empty</text>
</g>
<!-- Vector::append&#45;&gt;Vector::destroy_empty -->
<g id="edge23" class="edge">
<title>Vector::append&#45;&gt;Vector::destroy_empty</title>
<path fill="none" stroke="black" d="M1486.08,-166.06C1457.96,-155 1414.04,-137.73 1380.95,-124.72"/>
<polygon fill="black" stroke="black" points="1382.08,-121.4 1371.49,-121 1379.51,-127.91 1382.08,-121.4"/>
</g>
<!-- Vector::is_empty -->
<g id="node19" class="node">
<title>Vector::is_empty</title>
<ellipse fill="none" stroke="black" cx="1460.9" cy="-106" rx="43.59" ry="18"/>
<text text-anchor="middle" x="1460.9" y="-102.3" font-family="Times,serif" font-size="14.00">is_empty</text>
</g>
<!-- Vector::append&#45;&gt;Vector::is_empty -->
<g id="edge24" class="edge">
<title>Vector::append&#45;&gt;Vector::is_empty</title>
<path fill="none" stroke="black" d="M1501.6,-160.76C1495.07,-152.14 1486.91,-141.36 1479.62,-131.73"/>
<polygon fill="black" stroke="black" points="1482.32,-129.49 1473.49,-123.63 1476.73,-133.72 1482.32,-129.49"/>
</g>
<!-- Vector::pop_back -->
<g id="node20" class="node">
<title>Vector::pop_back</title>
<ellipse fill="none" stroke="black" cx="1566.9" cy="-106" rx="44.69" ry="18"/>
<text text-anchor="middle" x="1566.9" y="-102.3" font-family="Times,serif" font-size="14.00">pop_back</text>
</g>
<!-- Vector::append&#45;&gt;Vector::pop_back -->
<g id="edge25" class="edge">
<title>Vector::append&#45;&gt;Vector::pop_back</title>
<path fill="none" stroke="black" d="M1526.19,-160.76C1532.72,-152.14 1540.88,-141.36 1548.17,-131.73"/>
<polygon fill="black" stroke="black" points="1551.06,-133.72 1554.3,-123.63 1545.47,-129.49 1551.06,-133.72"/>
</g>
<!-- Vector::push_back -->
<g id="node21" class="node">
<title>Vector::push_back</title>
<ellipse fill="none" stroke="black" cx="1677.9" cy="-106" rx="48.19" ry="18"/>
<text text-anchor="middle" x="1677.9" y="-102.3" font-family="Times,serif" font-size="14.00">push_back</text>
</g>
<!-- Vector::append&#45;&gt;Vector::push_back -->
<g id="edge26" class="edge">
<title>Vector::append&#45;&gt;Vector::push_back</title>
<path fill="none" stroke="black" d="M1540.61,-165.6C1566.98,-154.34 1607.63,-136.99 1637.87,-124.09"/>
<polygon fill="black" stroke="black" points="1639.46,-127.21 1647.28,-120.07 1636.71,-120.77 1639.46,-127.21"/>
</g>
<!-- Vector::reverse -->
<g id="node22" class="node">
<title>Vector::reverse</title>
<ellipse fill="none" stroke="black" cx="1779.9" cy="-106" rx="36.29" ry="18"/>
<text text-anchor="middle" x="1779.9" y="-102.3" font-family="Times,serif" font-size="14.00">reverse</text>
</g>
<!-- Vector::append&#45;&gt;Vector::reverse -->
<g id="edge27" class="edge">
<title>Vector::append&#45;&gt;Vector::reverse</title>
<path fill="none" stroke="black" d="M1547.19,-170.38C1590.76,-161.41 1669.27,-144.18 1734.9,-124 1737.5,-123.2 1740.17,-122.33 1742.85,-121.41"/>
<polygon fill="black" stroke="black" points="1744.23,-124.64 1752.48,-117.98 1741.88,-118.04 1744.23,-124.64"/>
</g>
<!-- Vector::length -->
<g id="node23" class="node">
<title>Vector::length</title>
<ellipse fill="none" stroke="black" cx="1580.9" cy="-34" rx="32.49" ry="18"/>
<text text-anchor="middle" x="1580.9" y="-30.3" font-family="Times,serif" font-size="14.00">length</text>
</g>
<!-- Vector::is_empty&#45;&gt;Vector::length -->
<g id="edge28" class="edge">
<title>Vector::is_empty&#45;&gt;Vector::length</title>
<path fill="none" stroke="black" d="M1485.18,-90.83C1503.95,-79.89 1530.04,-64.66 1550.25,-52.88"/>
<polygon fill="black" stroke="black" points="1552.19,-55.79 1559.07,-47.73 1548.67,-49.75 1552.19,-55.79"/>
</g>
<!-- Vector::reverse&#45;&gt;Vector::length -->
<g id="edge29" class="edge">
<title>Vector::reverse&#45;&gt;Vector::length</title>
<path fill="none" stroke="black" d="M1751.86,-94.26C1746.25,-92.15 1740.39,-89.98 1734.9,-88 1694.94,-73.58 1648.84,-57.83 1617.57,-47.28"/>
<polygon fill="black" stroke="black" points="1618.56,-43.92 1607.96,-44.04 1616.32,-50.55 1618.56,-43.92"/>
</g>
<!-- Vector::swap -->
<g id="node24" class="node">
<title>Vector::swap</title>
<ellipse fill="none" stroke="black" cx="1779.9" cy="-34" rx="28.7" ry="18"/>
<text text-anchor="middle" x="1779.9" y="-30.3" font-family="Times,serif" font-size="14.00">swap</text>
</g>
<!-- Vector::reverse&#45;&gt;Vector::swap -->
<g id="edge30" class="edge">
<title>Vector::reverse&#45;&gt;Vector::swap</title>
<path fill="none" stroke="black" d="M1779.9,-87.7C1779.9,-79.98 1779.9,-70.71 1779.9,-62.11"/>
<polygon fill="black" stroke="black" points="1783.4,-62.1 1779.9,-52.1 1776.4,-62.1 1783.4,-62.1"/>
</g>
</g>
</svg>
