<?xml version="1.0" encoding="UTF-8" standalone="no"?>
<!DOCTYPE svg PUBLIC "-//W3C//DTD SVG 1.1//EN"
 "http://www.w3.org/Graphics/SVG/1.1/DTD/svg11.dtd">
<!-- Generated by graphviz version 2.46.1 (20210213.1702)
 -->
<!-- Title: G Pages: 1 -->
<svg width="728pt" height="448pt"
 viewBox="0.00 0.00 727.60 448.00" xmlns="http://www.w3.org/2000/svg" xmlns:xlink="http://www.w3.org/1999/xlink">
<g id="graph0" class="graph" transform="scale(1 1) rotate(0) translate(4 444)">
<title>G</title>
<polygon fill="white" stroke="transparent" points="-4,4 -4,-444 723.6,-444 723.6,4 -4,4"/>
<g id="clust1" class="cluster">
<title>cluster_Signer</title>
<polygon fill="none" stroke="black" points="112,-246 112,-396 262,-396 262,-246 112,-246"/>
<text text-anchor="middle" x="187" y="-380.8" font-family="Times,serif" font-size="14.00">Signer</text>
</g>
<g id="clust2" class="cluster">
<title>cluster_Errors</title>
<polygon fill="none" stroke="black" points="8,-80 8,-238 439,-238 439,-80 8,-80"/>
<text text-anchor="middle" x="223.5" y="-222.8" font-family="Times,serif" font-size="14.00">Errors</text>
</g>
<g id="clust3" class="cluster">
<title>cluster_Option</title>
<polygon fill="none" stroke="black" points="447,-163 447,-321 626,-321 626,-163 447,-163"/>
<text text-anchor="middle" x="536.5" y="-305.8" font-family="Times,serif" font-size="14.00">Option</text>
</g>
<g id="clust4" class="cluster">
<title>cluster_Vector</title>
<polygon fill="none" stroke="black" points="447,-8 447,-155 658,-155 658,-8 447,-8"/>
<text text-anchor="middle" x="552.5" y="-139.8" font-family="Times,serif" font-size="14.00">Vector</text>
</g>
<!-- extract_key_rotation_capability -->
<g id="node1" class="node">
<title>extract_key_rotation_capability</title>
<ellipse fill="none" stroke="black" cx="339" cy="-422" rx="122.38" ry="18"/>
<text text-anchor="middle" x="339" y="-418.3" font-family="Times,serif" font-size="14.00">extract_key_rotation_capability</text>
</g>
<!-- Signer::address_of -->
<g id="node2" class="node">
<title>Signer::address_of</title>
<ellipse fill="none" stroke="black" cx="196" cy="-347" rx="48.99" ry="18"/>
<text text-anchor="middle" x="196" y="-343.3" font-family="Times,serif" font-size="14.00">address_of</text>
</g>
<!-- extract_key_rotation_capability&#45;&gt;Signer::address_of -->
<g id="edge1" class="edge">
<title>extract_key_rotation_capability&#45;&gt;Signer::address_of</title>
<path fill="none" stroke="black" d="M289.83,-405.49C282.39,-402.63 274.9,-399.45 268,-396 253.04,-388.53 237.48,-378.48 224.66,-369.51"/>
<polygon fill="black" stroke="black" points="226.45,-366.48 216.27,-363.51 222.38,-372.17 226.45,-366.48"/>
</g>
<!-- Errors::invalid_state -->
<g id="node3" class="node">
<title>Errors::invalid_state</title>
<ellipse fill="none" stroke="black" cx="72" cy="-189" rx="55.79" ry="18"/>
<text text-anchor="middle" x="72" y="-185.3" font-family="Times,serif" font-size="14.00">invalid_state</text>
</g>
<!-- extract_key_rotation_capability&#45;&gt;Errors::invalid_state -->
<g id="edge2" class="edge">
<title>extract_key_rotation_capability&#45;&gt;Errors::invalid_state</title>
<path fill="none" stroke="black" d="M331.41,-403.71C322.71,-383.82 308.1,-350.15 296,-321 282.24,-287.84 295.09,-267.04 266,-246 242.73,-229.17 163.99,-247.82 137,-238 122.04,-232.56 107.58,-222.51 96.1,-213.01"/>
<polygon fill="black" stroke="black" points="98.16,-210.16 88.31,-206.26 93.58,-215.45 98.16,-210.16"/>
</g>
<!-- Errors::not_published -->
<g id="node4" class="node">
<title>Errors::not_published</title>
<ellipse fill="none" stroke="black" cx="206" cy="-189" rx="60.39" ry="18"/>
<text text-anchor="middle" x="206" y="-185.3" font-family="Times,serif" font-size="14.00">not_published</text>
</g>
<!-- extract_key_rotation_capability&#45;&gt;Errors::not_published -->
<g id="edge3" class="edge">
<title>extract_key_rotation_capability&#45;&gt;Errors::not_published</title>
<path fill="none" stroke="black" d="M339.66,-403.77C340.02,-369.48 336.03,-292.04 296,-246 289.72,-238.77 284.44,-242.51 276,-238 261.99,-230.51 247.36,-220.82 235.12,-212.1"/>
<polygon fill="black" stroke="black" points="236.83,-209.01 226.68,-205.97 232.71,-214.68 236.83,-209.01"/>
</g>
<!-- Option::extract -->
<g id="node5" class="node">
<title>Option::extract</title>
<ellipse fill="none" stroke="black" cx="489" cy="-272" rx="34.39" ry="18"/>
<text text-anchor="middle" x="489" y="-268.3" font-family="Times,serif" font-size="14.00">extract</text>
</g>
<!-- extract_key_rotation_capability&#45;&gt;Option::extract -->
<g id="edge4" class="edge">
<title>extract_key_rotation_capability&#45;&gt;Option::extract</title>
<path fill="none" stroke="black" d="M342.29,-403.75C346.92,-383.63 357.11,-350.38 377,-329 396.65,-307.88 426.03,-293.61 449.77,-284.76"/>
<polygon fill="black" stroke="black" points="450.96,-288.05 459.22,-281.41 448.62,-281.45 450.96,-288.05"/>
</g>
<!-- exists_at -->
<g id="node6" class="node">
<title>exists_at</title>
<ellipse fill="none" stroke="black" cx="678" cy="-272" rx="41.69" ry="18"/>
<text text-anchor="middle" x="678" y="-268.3" font-family="Times,serif" font-size="14.00">exists_at</text>
</g>
<!-- extract_key_rotation_capability&#45;&gt;exists_at -->
<g id="edge5" class="edge">
<title>extract_key_rotation_capability&#45;&gt;exists_at</title>
<path fill="none" stroke="black" d="M459.4,-418.71C543.84,-415.91 644.21,-409.71 659,-396 684.85,-372.03 685.47,-328.65 682.52,-300.34"/>
<polygon fill="black" stroke="black" points="685.97,-299.79 681.25,-290.3 679.03,-300.66 685.97,-299.79"/>
</g>
<!-- delegated_key_rotation_capability -->
<g id="node7" class="node">
<title>delegated_key_rotation_capability</title>
<ellipse fill="none" stroke="black" cx="518" cy="-347" rx="131.88" ry="18"/>
<text text-anchor="middle" x="518" y="-343.3" font-family="Times,serif" font-size="14.00">delegated_key_rotation_capability</text>
</g>
<!-- extract_key_rotation_capability&#45;&gt;delegated_key_rotation_capability -->
<g id="edge6" class="edge">
<title>extract_key_rotation_capability&#45;&gt;delegated_key_rotation_capability</title>
<path fill="none" stroke="black" d="M378.73,-404.8C405.28,-393.97 440.42,-379.64 468.75,-368.09"/>
<polygon fill="black" stroke="black" points="470.14,-371.3 478.08,-364.28 467.49,-364.82 470.14,-371.3"/>
</g>
<!-- Signer::borrow_address -->
<g id="node8" class="node">
<title>Signer::borrow_address</title>
<ellipse fill="none" stroke="black" cx="187" cy="-272" rx="66.89" ry="18"/>
<text text-anchor="middle" x="187" y="-268.3" font-family="Times,serif" font-size="14.00">borrow_address</text>
</g>
<!-- Signer::address_of&#45;&gt;Signer::borrow_address -->
<g id="edge7" class="edge">
<title>Signer::address_of&#45;&gt;Signer::borrow_address</title>
<path fill="none" stroke="black" d="M193.87,-328.7C192.82,-320.25 191.55,-309.87 190.37,-300.37"/>
<polygon fill="black" stroke="black" points="193.81,-299.67 189.12,-290.18 186.87,-300.53 193.81,-299.67"/>
</g>
<!-- Errors::make -->
<g id="node9" class="node">
<title>Errors::make</title>
<ellipse fill="none" stroke="black" cx="206" cy="-106" rx="30.59" ry="18"/>
<text text-anchor="middle" x="206" y="-102.3" font-family="Times,serif" font-size="14.00">make</text>
</g>
<!-- Errors::invalid_state&#45;&gt;Errors::make -->
<g id="edge8" class="edge">
<title>Errors::invalid_state&#45;&gt;Errors::make</title>
<path fill="none" stroke="black" d="M97.2,-172.76C119.79,-159.11 152.93,-139.08 176.69,-124.71"/>
<polygon fill="black" stroke="black" points="178.55,-127.68 185.3,-119.51 174.93,-121.69 178.55,-127.68"/>
</g>
<!-- Errors::not_published&#45;&gt;Errors::make -->
<g id="edge9" class="edge">
<title>Errors::not_published&#45;&gt;Errors::make</title>
<path fill="none" stroke="black" d="M206,-170.82C206,-160.19 206,-146.31 206,-134.2"/>
<polygon fill="black" stroke="black" points="209.5,-134.15 206,-124.15 202.5,-134.15 209.5,-134.15"/>
</g>
<!-- Errors::invalid_argument -->
<g id="node10" class="node">
<title>Errors::invalid_argument</title>
<ellipse fill="none" stroke="black" cx="358" cy="-189" rx="73.39" ry="18"/>
<text text-anchor="middle" x="358" y="-185.3" font-family="Times,serif" font-size="14.00">invalid_argument</text>
</g>
<!-- Option::extract&#45;&gt;Errors::invalid_argument -->
<g id="edge10" class="edge">
<title>Option::extract&#45;&gt;Errors::invalid_argument</title>
<path fill="none" stroke="black" d="M467.66,-257.81C447.35,-245.24 416.42,-226.12 392.59,-211.39"/>
<polygon fill="black" stroke="black" points="394.18,-208.26 383.83,-205.97 390.5,-214.21 394.18,-208.26"/>
</g>
<!-- Vector::pop_back -->
<g id="node11" class="node">
<title>Vector::pop_back</title>
<ellipse fill="none" stroke="black" cx="500" cy="-106" rx="44.69" ry="18"/>
<text text-anchor="middle" x="500" y="-102.3" font-family="Times,serif" font-size="14.00">pop_back</text>
</g>
<!-- Option::extract&#45;&gt;Vector::pop_back -->
<g id="edge11" class="edge">
<title>Option::extract&#45;&gt;Vector::pop_back</title>
<path fill="none" stroke="black" d="M511.43,-258.22C526.21,-249.69 543.03,-239.72 544,-238 560.42,-208.99 554.9,-194.5 544,-163 539.87,-151.07 532.04,-139.75 524.11,-130.45"/>
<polygon fill="black" stroke="black" points="526.52,-127.89 517.21,-122.83 521.33,-132.59 526.52,-127.89"/>
</g>
<!-- Option::is_some -->
<g id="node12" class="node">
<title>Option::is_some</title>
<ellipse fill="none" stroke="black" cx="495" cy="-189" rx="40.09" ry="18"/>
<text text-anchor="middle" x="495" y="-185.3" font-family="Times,serif" font-size="14.00">is_some</text>
</g>
<!-- Option::extract&#45;&gt;Option::is_some -->
<g id="edge12" class="edge">
<title>Option::extract&#45;&gt;Option::is_some</title>
<path fill="none" stroke="black" d="M490.27,-253.82C491.06,-243.19 492.09,-229.31 492.98,-217.2"/>
<polygon fill="black" stroke="black" points="496.48,-217.38 493.73,-207.15 489.5,-216.87 496.48,-217.38"/>
</g>
<!-- delegated_key_rotation_capability&#45;&gt;Errors::not_published -->
<g id="edge13" class="edge">
<title>delegated_key_rotation_capability&#45;&gt;Errors::not_published</title>
<path fill="none" stroke="black" d="M465.19,-330.49C457.6,-327.66 450,-324.49 443,-321 390.37,-294.78 388.83,-267.26 334,-246 309.74,-236.59 300.27,-247.39 276,-238 260.48,-232 245.03,-221.95 232.61,-212.59"/>
<polygon fill="black" stroke="black" points="234.56,-209.68 224.53,-206.28 230.26,-215.2 234.56,-209.68"/>
</g>
<!-- delegated_key_rotation_capability&#45;&gt;exists_at -->
<g id="edge15" class="edge">
<title>delegated_key_rotation_capability&#45;&gt;exists_at</title>
<path fill="none" stroke="black" d="M601.31,-333C611.29,-329.83 621.1,-325.89 630,-321 640.75,-315.09 650.7,-306.05 658.72,-297.4"/>
<polygon fill="black" stroke="black" points="661.54,-299.49 665.51,-289.66 656.28,-294.87 661.54,-299.49"/>
</g>
<!-- Option::is_none -->
<g id="node13" class="node">
<title>Option::is_none</title>
<ellipse fill="none" stroke="black" cx="580" cy="-272" rx="38.19" ry="18"/>
<text text-anchor="middle" x="580" y="-268.3" font-family="Times,serif" font-size="14.00">is_none</text>
</g>
<!-- delegated_key_rotation_capability&#45;&gt;Option::is_none -->
<g id="edge14" class="edge">
<title>delegated_key_rotation_capability&#45;&gt;Option::is_none</title>
<path fill="none" stroke="black" d="M532.38,-329.07C540.53,-319.47 550.86,-307.31 559.82,-296.76"/>
<polygon fill="black" stroke="black" points="562.53,-298.98 566.34,-289.09 557.2,-294.44 562.53,-298.98"/>
</g>
<!-- Errors::invalid_argument&#45;&gt;Errors::make -->
<g id="edge16" class="edge">
<title>Errors::invalid_argument&#45;&gt;Errors::make</title>
<path fill="none" stroke="black" d="M328.69,-172.38C302.3,-158.32 263.64,-137.72 236.8,-123.41"/>
<polygon fill="black" stroke="black" points="238.31,-120.25 227.84,-118.64 235.02,-126.43 238.31,-120.25"/>
</g>
<!-- Vector::is_empty -->
<g id="node14" class="node">
<title>Vector::is_empty</title>
<ellipse fill="none" stroke="black" cx="606" cy="-106" rx="43.59" ry="18"/>
<text text-anchor="middle" x="606" y="-102.3" font-family="Times,serif" font-size="14.00">is_empty</text>
</g>
<!-- Option::is_some&#45;&gt;Vector::is_empty -->
<g id="edge17" class="edge">
<title>Option::is_some&#45;&gt;Vector::is_empty</title>
<path fill="none" stroke="black" d="M521.07,-175.13C531.64,-169.48 543.74,-162.44 554,-155 564.15,-147.63 574.48,-138.51 583.22,-130.2"/>
<polygon fill="black" stroke="black" points="585.72,-132.65 590.46,-123.17 580.85,-127.63 585.72,-132.65"/>
</g>
<!-- Option::is_none&#45;&gt;Vector::is_empty -->
<g id="edge18" class="edge">
<title>Option::is_none&#45;&gt;Vector::is_empty</title>
<path fill="none" stroke="black" d="M582.73,-253.76C587.25,-225.26 596.31,-168.12 601.69,-134.16"/>
<polygon fill="black" stroke="black" points="605.19,-134.43 603.3,-124.01 598.28,-133.34 605.19,-134.43"/>
</g>
<!-- Vector::length -->
<g id="node15" class="node">
<title>Vector::length</title>
<ellipse fill="none" stroke="black" cx="606" cy="-34" rx="32.49" ry="18"/>
<text text-anchor="middle" x="606" y="-30.3" font-family="Times,serif" font-size="14.00">length</text>
</g>
<!-- Vector::is_empty&#45;&gt;Vector::length -->
<g id="edge19" class="edge">
<title>Vector::is_empty&#45;&gt;Vector::length</title>
<path fill="none" stroke="black" d="M606,-87.7C606,-79.98 606,-70.71 606,-62.11"/>
<polygon fill="black" stroke="black" points="609.5,-62.1 606,-52.1 602.5,-62.1 609.5,-62.1"/>
</g>
</g>
</svg>
