<?xml version="1.0" encoding="UTF-8" standalone="no"?>
<!DOCTYPE svg PUBLIC "-//W3C//DTD SVG 1.1//EN"
 "http://www.w3.org/Graphics/SVG/1.1/DTD/svg11.dtd">
<!-- Generated by graphviz version 2.46.1 (20210213.1702)
 -->
<!-- Title: G Pages: 1 -->
<svg width="681pt" height="362pt"
 viewBox="0.00 0.00 681.00 362.00" xmlns="http://www.w3.org/2000/svg" xmlns:xlink="http://www.w3.org/1999/xlink">
<g id="graph0" class="graph" transform="scale(1 1) rotate(0) translate(4 358)">
<title>G</title>
<polygon fill="white" stroke="transparent" points="-4,4 -4,-358 677,-358 677,4 -4,4"/>
<g id="clust1" class="cluster">
<title>cluster_Errors</title>
<polygon fill="none" stroke="black" points="8,-8 8,-155 439,-155 439,-8 8,-8"/>
<text text-anchor="middle" x="223.5" y="-139.8" font-family="Times,serif" font-size="14.00">Errors</text>
</g>
<g id="clust2" class="cluster">
<title>cluster_Option</title>
<polygon fill="none" stroke="black" points="370,-163 370,-238 534,-238 534,-163 370,-163"/>
<text text-anchor="middle" x="452" y="-222.8" font-family="Times,serif" font-size="14.00">Option</text>
</g>
<g id="clust3" class="cluster">
<title>cluster_Vector</title>
<polygon fill="none" stroke="black" points="447,-8 447,-155 665,-155 665,-8 447,-8"/>
<text text-anchor="middle" x="556" y="-139.8" font-family="Times,serif" font-size="14.00">Vector</text>
</g>
<!-- restore_withdraw_capability -->
<g id="node1" class="node">
<title>restore_withdraw_capability</title>
<ellipse fill="none" stroke="black" cx="201" cy="-336" rx="111.28" ry="18"/>
<text text-anchor="middle" x="201" y="-332.3" font-family="Times,serif" font-size="14.00">restore_withdraw_capability</text>
</g>
<!-- Errors::invalid_state -->
<g id="node2" class="node">
<title>Errors::invalid_state</title>
<ellipse fill="none" stroke="black" cx="72" cy="-106" rx="55.79" ry="18"/>
<text text-anchor="middle" x="72" y="-102.3" font-family="Times,serif" font-size="14.00">invalid_state</text>
</g>
<!-- restore_withdraw_capability&#45;&gt;Errors::invalid_state -->
<g id="edge1" class="edge">
<title>restore_withdraw_capability&#45;&gt;Errors::invalid_state</title>
<path fill="none" stroke="black" d="M191.3,-317.86C168.88,-278.24 113.34,-180.07 86.71,-132.99"/>
<polygon fill="black" stroke="black" points="89.6,-131 81.63,-124.02 83.51,-134.45 89.6,-131"/>
</g>
<!-- Errors::not_published -->
<g id="node3" class="node">
<title>Errors::not_published</title>
<ellipse fill="none" stroke="black" cx="206" cy="-106" rx="60.39" ry="18"/>
<text text-anchor="middle" x="206" y="-102.3" font-family="Times,serif" font-size="14.00">not_published</text>
</g>
<!-- restore_withdraw_capability&#45;&gt;Errors::not_published -->
<g id="edge2" class="edge">
<title>restore_withdraw_capability&#45;&gt;Errors::not_published</title>
<path fill="none" stroke="black" d="M198.65,-317.86C194.77,-286.86 188.02,-219.47 194,-163 195.02,-153.37 197,-142.97 199.06,-133.77"/>
<polygon fill="black" stroke="black" points="202.48,-134.54 201.38,-124.01 195.66,-132.93 202.48,-134.54"/>
</g>
<!-- Option::fill -->
<g id="node4" class="node">
<title>Option::fill</title>
<ellipse fill="none" stroke="black" cx="499" cy="-189" rx="27" ry="18"/>
<text text-anchor="middle" x="499" y="-185.3" font-family="Times,serif" font-size="14.00">fill</text>
</g>
<!-- restore_withdraw_capability&#45;&gt;Option::fill -->
<g id="edge3" class="edge">
<title>restore_withdraw_capability&#45;&gt;Option::fill</title>
<path fill="none" stroke="black" d="M299.95,-327.74C369.58,-320.56 454.7,-306.9 480,-282 496.93,-265.34 500.74,-237.87 500.89,-217.27"/>
<polygon fill="black" stroke="black" points="504.39,-217.15 500.68,-207.22 497.39,-217.29 504.39,-217.15"/>
</g>
<!-- exists_at -->
<g id="node5" class="node">
<title>exists_at</title>
<ellipse fill="none" stroke="black" cx="245" cy="-189" rx="41.69" ry="18"/>
<text text-anchor="middle" x="245" y="-185.3" font-family="Times,serif" font-size="14.00">exists_at</text>
</g>
<!-- restore_withdraw_capability&#45;&gt;exists_at -->
<g id="edge4" class="edge">
<title>restore_withdraw_capability&#45;&gt;exists_at</title>
<path fill="none" stroke="black" d="M203.54,-317.99C206.5,-299.87 212.02,-270.49 220,-246 223.28,-235.93 227.79,-225.24 232.07,-215.92"/>
<polygon fill="black" stroke="black" points="235.27,-217.33 236.39,-206.79 228.95,-214.33 235.27,-217.33"/>
</g>
<!-- delegated_withdraw_capability -->
<g id="node6" class="node">
<title>delegated_withdraw_capability</title>
<ellipse fill="none" stroke="black" cx="350" cy="-264" rx="120.78" ry="18"/>
<text text-anchor="middle" x="350" y="-260.3" font-family="Times,serif" font-size="14.00">delegated_withdraw_capability</text>
</g>
<!-- restore_withdraw_capability&#45;&gt;delegated_withdraw_capability -->
<g id="edge5" class="edge">
<title>restore_withdraw_capability&#45;&gt;delegated_withdraw_capability</title>
<path fill="none" stroke="black" d="M235.56,-318.76C256.55,-308.9 283.54,-296.22 306.04,-285.65"/>
<polygon fill="black" stroke="black" points="307.81,-288.69 315.37,-281.27 304.83,-282.35 307.81,-288.69"/>
</g>
<!-- Errors::make -->
<g id="node7" class="node">
<title>Errors::make</title>
<ellipse fill="none" stroke="black" cx="206" cy="-34" rx="30.59" ry="18"/>
<text text-anchor="middle" x="206" y="-30.3" font-family="Times,serif" font-size="14.00">make</text>
</g>
<!-- Errors::invalid_state&#45;&gt;Errors::make -->
<g id="edge6" class="edge">
<title>Errors::invalid_state&#45;&gt;Errors::make</title>
<path fill="none" stroke="black" d="M100.09,-90.33C121.85,-78.96 151.98,-63.22 174.55,-51.43"/>
<polygon fill="black" stroke="black" points="176.46,-54.38 183.71,-46.65 173.22,-48.17 176.46,-54.38"/>
</g>
<!-- Errors::not_published&#45;&gt;Errors::make -->
<g id="edge7" class="edge">
<title>Errors::not_published&#45;&gt;Errors::make</title>
<path fill="none" stroke="black" d="M206,-87.7C206,-79.98 206,-70.71 206,-62.11"/>
<polygon fill="black" stroke="black" points="209.5,-62.1 206,-52.1 202.5,-62.1 209.5,-62.1"/>
</g>
<!-- Errors::invalid_argument -->
<g id="node8" class="node">
<title>Errors::invalid_argument</title>
<ellipse fill="none" stroke="black" cx="358" cy="-106" rx="73.39" ry="18"/>
<text text-anchor="middle" x="358" y="-102.3" font-family="Times,serif" font-size="14.00">invalid_argument</text>
</g>
<!-- Option::fill&#45;&gt;Errors::invalid_argument -->
<g id="edge8" class="edge">
<title>Option::fill&#45;&gt;Errors::invalid_argument</title>
<path fill="none" stroke="black" d="M481.93,-174.97C476.1,-170.84 469.43,-166.46 463,-163 454.57,-158.46 451.63,-159.14 443,-155 426.17,-146.93 408.09,-136.92 392.95,-128.13"/>
<polygon fill="black" stroke="black" points="394.33,-124.88 383.94,-122.84 390.79,-130.92 394.33,-124.88"/>
</g>
<!-- Vector::is_empty -->
<g id="node9" class="node">
<title>Vector::is_empty</title>
<ellipse fill="none" stroke="black" cx="499" cy="-106" rx="43.59" ry="18"/>
<text text-anchor="middle" x="499" y="-102.3" font-family="Times,serif" font-size="14.00">is_empty</text>
</g>
<!-- Option::fill&#45;&gt;Vector::is_empty -->
<g id="edge9" class="edge">
<title>Option::fill&#45;&gt;Vector::is_empty</title>
<path fill="none" stroke="black" d="M499,-170.82C499,-160.19 499,-146.31 499,-134.2"/>
<polygon fill="black" stroke="black" points="502.5,-134.15 499,-124.15 495.5,-134.15 502.5,-134.15"/>
</g>
<!-- Vector::push_back -->
<g id="node10" class="node">
<title>Vector::push_back</title>
<ellipse fill="none" stroke="black" cx="609" cy="-106" rx="48.19" ry="18"/>
<text text-anchor="middle" x="609" y="-102.3" font-family="Times,serif" font-size="14.00">push_back</text>
</g>
<!-- Option::fill&#45;&gt;Vector::push_back -->
<g id="edge10" class="edge">
<title>Option::fill&#45;&gt;Vector::push_back</title>
<path fill="none" stroke="black" d="M519.07,-176.43C529.17,-170.38 541.48,-162.65 552,-155 562.79,-147.16 574.14,-137.84 583.84,-129.52"/>
<polygon fill="black" stroke="black" points="586.31,-132.01 591.56,-122.81 581.72,-126.73 586.31,-132.01"/>
</g>
<!-- delegated_withdraw_capability&#45;&gt;Errors::not_published -->
<g id="edge11" class="edge">
<title>delegated_withdraw_capability&#45;&gt;Errors::not_published</title>
<path fill="none" stroke="black" d="M344.82,-245.82C337.36,-223.83 321.63,-185.85 296,-163 288.85,-156.63 284.44,-159.51 276,-155 261.99,-147.51 247.36,-137.82 235.12,-129.1"/>
<polygon fill="black" stroke="black" points="236.83,-126.01 226.68,-122.97 232.71,-131.68 236.83,-126.01"/>
</g>
<!-- delegated_withdraw_capability&#45;&gt;exists_at -->
<g id="edge13" class="edge">
<title>delegated_withdraw_capability&#45;&gt;exists_at</title>
<path fill="none" stroke="black" d="M325.91,-246.25C310.69,-235.67 290.9,-221.91 274.71,-210.65"/>
<polygon fill="black" stroke="black" points="276.34,-207.53 266.13,-204.69 272.35,-213.27 276.34,-207.53"/>
</g>
<!-- Option::is_none -->
<g id="node11" class="node">
<title>Option::is_none</title>
<ellipse fill="none" stroke="black" cx="416" cy="-189" rx="38.19" ry="18"/>
<text text-anchor="middle" x="416" y="-185.3" font-family="Times,serif" font-size="14.00">is_none</text>
</g>
<!-- delegated_withdraw_capability&#45;&gt;Option::is_none -->
<g id="edge12" class="edge">
<title>delegated_withdraw_capability&#45;&gt;Option::is_none</title>
<path fill="none" stroke="black" d="M365.31,-246.07C374.05,-236.4 385.14,-224.14 394.71,-213.54"/>
<polygon fill="black" stroke="black" points="397.57,-215.6 401.68,-205.84 392.38,-210.91 397.57,-215.6"/>
</g>
<!-- Errors::invalid_argument&#45;&gt;Errors::make -->
<g id="edge14" class="edge">
<title>Errors::invalid_argument&#45;&gt;Errors::make</title>
<path fill="none" stroke="black" d="M325.02,-89.81C299.47,-78.04 264.25,-61.82 238.76,-50.08"/>
<polygon fill="black" stroke="black" points="240.05,-46.83 229.5,-45.82 237.12,-53.19 240.05,-46.83"/>
</g>
<!-- Vector::length -->
<g id="node12" class="node">
<title>Vector::length</title>
<ellipse fill="none" stroke="black" cx="499" cy="-34" rx="32.49" ry="18"/>
<text text-anchor="middle" x="499" y="-30.3" font-family="Times,serif" font-size="14.00">length</text>
</g>
<!-- Vector::is_empty&#45;&gt;Vector::length -->
<g id="edge15" class="edge">
<title>Vector::is_empty&#45;&gt;Vector::length</title>
<path fill="none" stroke="black" d="M499,-87.7C499,-79.98 499,-70.71 499,-62.11"/>
<polygon fill="black" stroke="black" points="502.5,-62.1 499,-52.1 495.5,-62.1 502.5,-62.1"/>
</g>
<!-- Option::is_none&#45;&gt;Vector::is_empty -->
<g id="edge16" class="edge">
<title>Option::is_none&#45;&gt;Vector::is_empty</title>
<path fill="none" stroke="black" d="M432,-172.38C444.32,-160.36 461.54,-143.56 475.44,-130"/>
<polygon fill="black" stroke="black" points="478.05,-132.34 482.76,-122.85 473.16,-127.33 478.05,-132.34"/>
</g>
</g>
</svg>
