<?xml version="1.0" encoding="UTF-8" standalone="no"?>
<!DOCTYPE svg PUBLIC "-//W3C//DTD SVG 1.1//EN"
 "http://www.w3.org/Graphics/SVG/1.1/DTD/svg11.dtd">
<!-- Generated by graphviz version 2.46.1 (20210213.1702)
 -->
<!-- Title: G Pages: 1 -->
<svg width="2008pt" height="445pt"
 viewBox="0.00 0.00 2008.39 445.00" xmlns="http://www.w3.org/2000/svg" xmlns:xlink="http://www.w3.org/1999/xlink">
<g id="graph0" class="graph" transform="scale(1 1) rotate(0) translate(4 441)">
<title>G</title>
<polygon fill="white" stroke="transparent" points="-4,4 -4,-441 2004.39,-441 2004.39,4 -4,4"/>
<g id="clust1" class="cluster">
<title>cluster_Signer</title>
<polygon fill="none" stroke="black" points="486,-152 486,-310 636,-310 636,-152 486,-152"/>
<text text-anchor="middle" x="561" y="-294.8" font-family="Times,serif" font-size="14.00">Signer</text>
</g>
<g id="clust2" class="cluster">
<title>cluster_Errors</title>
<polygon fill="none" stroke="black" points="8,-152 8,-310 478,-310 478,-152 8,-152"/>
<text text-anchor="middle" x="243" y="-294.8" font-family="Times,serif" font-size="14.00">Errors</text>
</g>
<g id="clust3" class="cluster">
<title>cluster_CoreAddresses</title>
<polygon fill="none" stroke="black" points="1148,-318 1148,-393 1866,-393 1866,-318 1148,-318"/>
<text text-anchor="middle" x="1507" y="-377.8" font-family="Times,serif" font-size="14.00">CoreAddresses</text>
</g>
<g id="clust4" class="cluster">
<title>cluster_Roles</title>
<polygon fill="none" stroke="black" points="260,-318 260,-393 378,-393 378,-318 260,-318"/>
<text text-anchor="middle" x="319" y="-377.8" font-family="Times,serif" font-size="14.00">Roles</text>
</g>
<g id="clust5" class="cluster">
<title>cluster_Event</title>
<polygon fill="none" stroke="black" points="756,-235 756,-393 1056,-393 1056,-235 756,-235"/>
<text text-anchor="middle" x="906" y="-377.8" font-family="Times,serif" font-size="14.00">Event</text>
</g>
<g id="clust6" class="cluster">
<title>cluster_Option</title>
<polygon fill="none" stroke="black" points="1064,-318 1064,-393 1140,-393 1140,-318 1064,-318"/>
<text text-anchor="middle" x="1102" y="-377.8" font-family="Times,serif" font-size="14.00">Option</text>
</g>
<g id="clust7" class="cluster">
<title>cluster_AccountFreezing</title>
<polygon fill="none" stroke="black" points="386,-318 386,-393 496,-393 496,-318 386,-318"/>
<text text-anchor="middle" x="441" y="-377.8" font-family="Times,serif" font-size="14.00">AccountFreezing</text>
</g>
<g id="clust8" class="cluster">
<title>cluster_Vector</title>
<polygon fill="none" stroke="black" points="782,-8 782,-227 1427,-227 1427,-8 782,-8"/>
<text text-anchor="middle" x="1104.5" y="-211.8" font-family="Times,serif" font-size="14.00">Vector</text>
</g>
<g id="clust9" class="cluster">
<title>cluster_BCS</title>
<polygon fill="none" stroke="black" points="678,-152 678,-227 774,-227 774,-152 678,-152"/>
<text text-anchor="middle" x="726" y="-211.8" font-family="Times,serif" font-size="14.00">BCS</text>
</g>
<!-- make_account -->
<g id="node1" class="node">
<title>make_account</title>
<ellipse fill="none" stroke="black" cx="842" cy="-419" rx="61.99" ry="18"/>
<text text-anchor="middle" x="842" y="-415.3" font-family="Times,serif" font-size="14.00">make_account</text>
</g>
<!-- Signer::address_of -->
<g id="node2" class="node">
<title>Signer::address_of</title>
<ellipse fill="none" stroke="black" cx="543" cy="-261" rx="48.99" ry="18"/>
<text text-anchor="middle" x="543" y="-257.3" font-family="Times,serif" font-size="14.00">address_of</text>
</g>
<!-- make_account&#45;&gt;Signer::address_of -->
<g id="edge1" class="edge">
<title>make_account&#45;&gt;Signer::address_of</title>
<path fill="none" stroke="black" d="M780.46,-417.4C695.11,-415.92 549.4,-410.78 533,-393 507.16,-364.98 519.31,-317.72 530.87,-288.28"/>
<polygon fill="black" stroke="black" points="534.11,-289.61 534.71,-279.03 527.65,-286.93 534.11,-289.61"/>
</g>
<!-- Errors::invalid_argument -->
<g id="node3" class="node">
<title>Errors::invalid_argument</title>
<ellipse fill="none" stroke="black" cx="89" cy="-261" rx="73.39" ry="18"/>
<text text-anchor="middle" x="89" y="-257.3" font-family="Times,serif" font-size="14.00">invalid_argument</text>
</g>
<!-- make_account&#45;&gt;Errors::invalid_argument -->
<g id="edge2" class="edge">
<title>make_account&#45;&gt;Errors::invalid_argument</title>
<path fill="none" stroke="black" d="M780.36,-417.93C634.75,-417.41 277.91,-414 228,-393 175.2,-370.78 130.36,-318.89 106.78,-287.5"/>
<polygon fill="black" stroke="black" points="109.45,-285.22 100.71,-279.23 103.81,-289.36 109.45,-285.22"/>
</g>
<!-- Errors::not_published -->
<g id="node4" class="node">
<title>Errors::not_published</title>
<ellipse fill="none" stroke="black" cx="241" cy="-261" rx="60.39" ry="18"/>
<text text-anchor="middle" x="241" y="-257.3" font-family="Times,serif" font-size="14.00">not_published</text>
</g>
<!-- make_account&#45;&gt;Errors::not_published -->
<g id="edge3" class="edge">
<title>make_account&#45;&gt;Errors::not_published</title>
<path fill="none" stroke="black" d="M780.29,-417.5C633.63,-416.03 274.95,-410.64 256,-393 228.1,-367.02 230.15,-319.4 234.99,-289.29"/>
<polygon fill="black" stroke="black" points="238.51,-289.53 236.85,-279.06 231.62,-288.28 238.51,-289.53"/>
</g>
<!-- CoreAddresses::CORE_CODE_ADDRESS -->
<g id="node5" class="node">
<title>CoreAddresses::CORE_CODE_ADDRESS</title>
<ellipse fill="none" stroke="black" cx="1751" cy="-344" rx="106.68" ry="18"/>
<text text-anchor="middle" x="1751" y="-340.3" font-family="Times,serif" font-size="14.00">CORE_CODE_ADDRESS</text>
</g>
<!-- make_account&#45;&gt;CoreAddresses::CORE_CODE_ADDRESS -->
<g id="edge4" class="edge">
<title>make_account&#45;&gt;CoreAddresses::CORE_CODE_ADDRESS</title>
<path fill="none" stroke="black" d="M903.77,-417.34C1078.02,-415.31 1565.36,-408.31 1636,-393 1661.97,-387.37 1689.49,-376.09 1711.1,-365.89"/>
<polygon fill="black" stroke="black" points="1712.8,-368.95 1720.28,-361.44 1709.75,-362.65 1712.8,-368.95"/>
</g>
<!-- CoreAddresses::DIEM_ROOT_ADDRESS -->
<g id="node6" class="node">
<title>CoreAddresses::DIEM_ROOT_ADDRESS</title>
<ellipse fill="none" stroke="black" cx="1520" cy="-344" rx="106.68" ry="18"/>
<text text-anchor="middle" x="1520" y="-340.3" font-family="Times,serif" font-size="14.00">DIEM_ROOT_ADDRESS</text>
</g>
<!-- make_account&#45;&gt;CoreAddresses::DIEM_ROOT_ADDRESS -->
<g id="edge5" class="edge">
<title>make_account&#45;&gt;CoreAddresses::DIEM_ROOT_ADDRESS</title>
<path fill="none" stroke="black" d="M903.9,-417.97C1029.69,-417.48 1311.19,-413.97 1405,-393 1430.93,-387.2 1458.45,-375.92 1480.07,-365.75"/>
<polygon fill="black" stroke="black" points="1481.76,-368.82 1489.25,-361.33 1478.72,-362.51 1481.76,-368.82"/>
</g>
<!-- CoreAddresses::VM_RESERVED_ADDRESS -->
<g id="node7" class="node">
<title>CoreAddresses::VM_RESERVED_ADDRESS</title>
<ellipse fill="none" stroke="black" cx="1276" cy="-344" rx="119.68" ry="18"/>
<text text-anchor="middle" x="1276" y="-340.3" font-family="Times,serif" font-size="14.00">VM_RESERVED_ADDRESS</text>
</g>
<!-- make_account&#45;&gt;CoreAddresses::VM_RESERVED_ADDRESS -->
<g id="edge6" class="edge">
<title>make_account&#45;&gt;CoreAddresses::VM_RESERVED_ADDRESS</title>
<path fill="none" stroke="black" d="M903.73,-417.67C965.28,-416.23 1062.16,-410.93 1144,-393 1173.33,-386.57 1204.99,-375.22 1229.95,-365.17"/>
<polygon fill="black" stroke="black" points="1231.59,-368.28 1239.52,-361.25 1228.93,-361.8 1231.59,-368.28"/>
</g>
<!-- Roles::get_role_id -->
<g id="node8" class="node">
<title>Roles::get_role_id</title>
<ellipse fill="none" stroke="black" cx="319" cy="-344" rx="50.89" ry="18"/>
<text text-anchor="middle" x="319" y="-340.3" font-family="Times,serif" font-size="14.00">get_role_id</text>
</g>
<!-- make_account&#45;&gt;Roles::get_role_id -->
<g id="edge7" class="edge">
<title>make_account&#45;&gt;Roles::get_role_id</title>
<path fill="none" stroke="black" d="M780.53,-416.67C663.8,-413.85 418.4,-406.4 382,-393 367.36,-387.61 353.32,-377.57 342.23,-368.06"/>
<polygon fill="black" stroke="black" points="344.48,-365.38 334.7,-361.3 339.8,-370.59 344.48,-365.38"/>
</g>
<!-- Event::emit_event -->
<g id="node9" class="node">
<title>Event::emit_event</title>
<ellipse fill="none" stroke="black" cx="987" cy="-344" rx="50.09" ry="18"/>
<text text-anchor="middle" x="987" y="-340.3" font-family="Times,serif" font-size="14.00">emit_event</text>
</g>
<!-- make_account&#45;&gt;Event::emit_event -->
<g id="edge8" class="edge">
<title>make_account&#45;&gt;Event::emit_event</title>
<path fill="none" stroke="black" d="M890.19,-407.65C902.88,-403.96 916.3,-399.14 928,-393 940.55,-386.42 952.95,-376.92 963.11,-368.11"/>
<polygon fill="black" stroke="black" points="965.64,-370.54 970.75,-361.26 960.97,-365.33 965.64,-370.54"/>
</g>
<!-- Event::new_event_handle -->
<g id="node10" class="node">
<title>Event::new_event_handle</title>
<ellipse fill="none" stroke="black" cx="842" cy="-344" rx="76.89" ry="18"/>
<text text-anchor="middle" x="842" y="-340.3" font-family="Times,serif" font-size="14.00">new_event_handle</text>
</g>
<!-- make_account&#45;&gt;Event::new_event_handle -->
<g id="edge9" class="edge">
<title>make_account&#45;&gt;Event::new_event_handle</title>
<path fill="none" stroke="black" d="M842,-400.7C842,-392.25 842,-381.87 842,-372.37"/>
<polygon fill="black" stroke="black" points="845.5,-372.18 842,-362.18 838.5,-372.18 845.5,-372.18"/>
</g>
<!-- Option::some -->
<g id="node11" class="node">
<title>Option::some</title>
<ellipse fill="none" stroke="black" cx="1102" cy="-344" rx="29.8" ry="18"/>
<text text-anchor="middle" x="1102" y="-340.3" font-family="Times,serif" font-size="14.00">some</text>
</g>
<!-- make_account&#45;&gt;Option::some -->
<g id="edge10" class="edge">
<title>make_account&#45;&gt;Option::some</title>
<path fill="none" stroke="black" d="M902.97,-415.89C957.77,-413.13 1033.56,-406.87 1060,-393 1070.4,-387.54 1079.4,-378.37 1086.36,-369.49"/>
<polygon fill="black" stroke="black" points="1089.34,-371.34 1092.4,-361.2 1083.68,-367.22 1089.34,-371.34"/>
</g>
<!-- AccountFreezing::create -->
<g id="node12" class="node">
<title>AccountFreezing::create</title>
<ellipse fill="none" stroke="black" cx="454" cy="-344" rx="31.7" ry="18"/>
<text text-anchor="middle" x="454" y="-340.3" font-family="Times,serif" font-size="14.00">create</text>
</g>
<!-- make_account&#45;&gt;AccountFreezing::create -->
<g id="edge11" class="edge">
<title>make_account&#45;&gt;AccountFreezing::create</title>
<path fill="none" stroke="black" d="M780.17,-418.73C695.38,-418.85 548.08,-415.62 500,-393 488.81,-387.73 478.92,-378.46 471.21,-369.46"/>
<polygon fill="black" stroke="black" points="473.75,-367.03 464.77,-361.4 468.28,-371.39 473.75,-367.03"/>
</g>
<!-- create_authentication_key -->
<g id="node13" class="node">
<title>create_authentication_key</title>
<ellipse fill="none" stroke="black" cx="645" cy="-344" rx="102.88" ry="18"/>
<text text-anchor="middle" x="645" y="-340.3" font-family="Times,serif" font-size="14.00">create_authentication_key</text>
</g>
<!-- make_account&#45;&gt;create_authentication_key -->
<g id="edge12" class="edge">
<title>make_account&#45;&gt;create_authentication_key</title>
<path fill="none" stroke="black" d="M796.26,-406.73C781.94,-402.82 766.19,-398.12 752,-393 730.11,-385.1 706.44,-374.69 686.94,-365.58"/>
<polygon fill="black" stroke="black" points="688.26,-362.33 677.73,-361.23 685.27,-368.66 688.26,-362.33"/>
</g>
<!-- destroy_signer -->
<g id="node14" class="node">
<title>destroy_signer</title>
<ellipse fill="none" stroke="black" cx="1938" cy="-344" rx="62.29" ry="18"/>
<text text-anchor="middle" x="1938" y="-340.3" font-family="Times,serif" font-size="14.00">destroy_signer</text>
</g>
<!-- make_account&#45;&gt;destroy_signer -->
<g id="edge13" class="edge">
<title>make_account&#45;&gt;destroy_signer</title>
<path fill="none" stroke="black" d="M903.85,-417.49C1118.98,-415.58 1824.08,-408.19 1870,-393 1885.72,-387.8 1900.99,-377.64 1913.06,-368"/>
<polygon fill="black" stroke="black" points="1915.44,-370.58 1920.87,-361.48 1910.95,-365.2 1915.44,-370.58"/>
</g>
<!-- Signer::borrow_address -->
<g id="node15" class="node">
<title>Signer::borrow_address</title>
<ellipse fill="none" stroke="black" cx="561" cy="-178" rx="66.89" ry="18"/>
<text text-anchor="middle" x="561" y="-174.3" font-family="Times,serif" font-size="14.00">borrow_address</text>
</g>
<!-- Signer::address_of&#45;&gt;Signer::borrow_address -->
<g id="edge14" class="edge">
<title>Signer::address_of&#45;&gt;Signer::borrow_address</title>
<path fill="none" stroke="black" d="M546.82,-242.82C549.18,-232.19 552.27,-218.31 554.95,-206.2"/>
<polygon fill="black" stroke="black" points="558.44,-206.67 557.19,-196.15 551.6,-205.16 558.44,-206.67"/>
</g>
<!-- Errors::make -->
<g id="node16" class="node">
<title>Errors::make</title>
<ellipse fill="none" stroke="black" cx="241" cy="-178" rx="30.59" ry="18"/>
<text text-anchor="middle" x="241" y="-174.3" font-family="Times,serif" font-size="14.00">make</text>
</g>
<!-- Errors::invalid_argument&#45;&gt;Errors::make -->
<g id="edge15" class="edge">
<title>Errors::invalid_argument&#45;&gt;Errors::make</title>
<path fill="none" stroke="black" d="M118.31,-244.38C144.7,-230.32 183.36,-209.72 210.2,-195.41"/>
<polygon fill="black" stroke="black" points="211.98,-198.43 219.16,-190.64 208.69,-192.25 211.98,-198.43"/>
</g>
<!-- Errors::not_published&#45;&gt;Errors::make -->
<g id="edge16" class="edge">
<title>Errors::not_published&#45;&gt;Errors::make</title>
<path fill="none" stroke="black" d="M241,-242.82C241,-232.19 241,-218.31 241,-206.2"/>
<polygon fill="black" stroke="black" points="244.5,-206.15 241,-196.15 237.5,-206.15 244.5,-206.15"/>
</g>
<!-- Roles::get_role_id&#45;&gt;Errors::not_published -->
<g id="edge17" class="edge">
<title>Roles::get_role_id&#45;&gt;Errors::not_published</title>
<path fill="none" stroke="black" d="M303.22,-326.61C291.98,-314.94 276.7,-299.07 264.09,-285.98"/>
<polygon fill="black" stroke="black" points="266.49,-283.42 257.03,-278.65 261.44,-288.28 266.49,-283.42"/>
</g>
<!-- Event::write_to_event_store -->
<g id="node17" class="node">
<title>Event::write_to_event_store</title>
<ellipse fill="none" stroke="black" cx="963" cy="-261" rx="85.29" ry="18"/>
<text text-anchor="middle" x="963" y="-257.3" font-family="Times,serif" font-size="14.00">write_to_event_store</text>
</g>
<!-- Event::emit_event&#45;&gt;Event::write_to_event_store -->
<g id="edge18" class="edge">
<title>Event::emit_event&#45;&gt;Event::write_to_event_store</title>
<path fill="none" stroke="black" d="M981.91,-325.82C978.73,-315.08 974.56,-301.03 970.95,-288.84"/>
<polygon fill="black" stroke="black" points="974.28,-287.75 968.08,-279.15 967.57,-289.74 974.28,-287.75"/>
</g>
<!-- Event::new_event_handle&#45;&gt;Signer::address_of -->
<g id="edge19" class="edge">
<title>Event::new_event_handle&#45;&gt;Signer::address_of</title>
<path fill="none" stroke="black" d="M796.64,-329.38C783.84,-325.62 769.89,-321.58 757,-318 700.53,-302.31 635.34,-285.43 591.89,-274.35"/>
<polygon fill="black" stroke="black" points="592.7,-270.94 582.14,-271.87 590.97,-277.73 592.7,-270.94"/>
</g>
<!-- Event::new_event_handle&#45;&gt;Errors::not_published -->
<g id="edge20" class="edge">
<title>Event::new_event_handle&#45;&gt;Errors::not_published</title>
<path fill="none" stroke="black" d="M801.43,-328.66C787.52,-324.4 771.75,-320.26 757,-318 708.01,-310.5 358.21,-325.1 311,-310 294.81,-304.82 278.99,-294.56 266.5,-284.85"/>
<polygon fill="black" stroke="black" points="268.39,-281.88 258.42,-278.29 263.98,-287.31 268.39,-281.88"/>
</g>
<!-- Event::fresh_guid -->
<g id="node18" class="node">
<title>Event::fresh_guid</title>
<ellipse fill="none" stroke="black" cx="812" cy="-261" rx="48.19" ry="18"/>
<text text-anchor="middle" x="812" y="-257.3" font-family="Times,serif" font-size="14.00">fresh_guid</text>
</g>
<!-- Event::new_event_handle&#45;&gt;Event::fresh_guid -->
<g id="edge21" class="edge">
<title>Event::new_event_handle&#45;&gt;Event::fresh_guid</title>
<path fill="none" stroke="black" d="M835.64,-325.82C831.63,-315.01 826.38,-300.84 821.85,-288.59"/>
<polygon fill="black" stroke="black" points="825.01,-287.04 818.25,-278.88 818.44,-289.47 825.01,-287.04"/>
</g>
<!-- Vector::singleton -->
<g id="node19" class="node">
<title>Vector::singleton</title>
<ellipse fill="none" stroke="black" cx="1287" cy="-178" rx="42.79" ry="18"/>
<text text-anchor="middle" x="1287" y="-174.3" font-family="Times,serif" font-size="14.00">singleton</text>
</g>
<!-- Option::some&#45;&gt;Vector::singleton -->
<g id="edge22" class="edge">
<title>Option::some&#45;&gt;Vector::singleton</title>
<path fill="none" stroke="black" d="M1118.09,-328.73C1150.35,-300.14 1223.11,-235.64 1261.76,-201.37"/>
<polygon fill="black" stroke="black" points="1264.31,-203.8 1269.47,-194.54 1259.66,-198.56 1264.31,-203.8"/>
</g>
<!-- AccountFreezing::create&#45;&gt;Signer::address_of -->
<g id="edge23" class="edge">
<title>AccountFreezing::create&#45;&gt;Signer::address_of</title>
<path fill="none" stroke="black" d="M470.32,-328.14C483.66,-316.01 502.72,-298.66 517.98,-284.77"/>
<polygon fill="black" stroke="black" points="520.52,-287.19 525.56,-277.87 515.81,-282.01 520.52,-287.19"/>
</g>
<!-- Errors::already_published -->
<g id="node20" class="node">
<title>Errors::already_published</title>
<ellipse fill="none" stroke="black" cx="395" cy="-261" rx="75.29" ry="18"/>
<text text-anchor="middle" x="395" y="-257.3" font-family="Times,serif" font-size="14.00">already_published</text>
</g>
<!-- AccountFreezing::create&#45;&gt;Errors::already_published -->
<g id="edge24" class="edge">
<title>AccountFreezing::create&#45;&gt;Errors::already_published</title>
<path fill="none" stroke="black" d="M442.34,-327C434.02,-315.58 422.67,-299.99 413.17,-286.94"/>
<polygon fill="black" stroke="black" points="415.96,-284.83 407.24,-278.81 410.3,-288.95 415.96,-284.83"/>
</g>
<!-- create_authentication_key&#45;&gt;Errors::invalid_argument -->
<g id="edge26" class="edge">
<title>create_authentication_key&#45;&gt;Errors::invalid_argument</title>
<path fill="none" stroke="black" d="M581.03,-329.89C555.88,-325.29 526.69,-320.61 500,-318 463.72,-314.45 207.09,-319.88 172,-310 152.98,-304.65 133.75,-293.94 118.6,-283.99"/>
<polygon fill="black" stroke="black" points="120.42,-281 110.18,-278.27 116.49,-286.78 120.42,-281"/>
</g>
<!-- create_authentication_key&#45;&gt;Signer::borrow_address -->
<g id="edge25" class="edge">
<title>create_authentication_key&#45;&gt;Signer::borrow_address</title>
<path fill="none" stroke="black" d="M639.45,-325.98C632.05,-304.21 617.9,-265.68 601,-235 595.17,-224.42 587.71,-213.47 580.82,-204.09"/>
<polygon fill="black" stroke="black" points="583.52,-201.85 574.71,-195.97 577.92,-206.06 583.52,-201.85"/>
</g>
<!-- Vector::append -->
<g id="node21" class="node">
<title>Vector::append</title>
<ellipse fill="none" stroke="black" cx="959" cy="-178" rx="36.29" ry="18"/>
<text text-anchor="middle" x="959" y="-174.3" font-family="Times,serif" font-size="14.00">append</text>
</g>
<!-- create_authentication_key&#45;&gt;Vector::append -->
<g id="edge27" class="edge">
<title>create_authentication_key&#45;&gt;Vector::append</title>
<path fill="none" stroke="black" d="M679.37,-327.01C687.64,-322.23 696.08,-316.51 703,-310 732.01,-282.72 719.78,-258.4 752,-235 755.42,-232.52 858.04,-205.41 917.48,-189.84"/>
<polygon fill="black" stroke="black" points="918.55,-193.18 927.33,-187.26 916.77,-186.4 918.55,-193.18"/>
</g>
<!-- Vector::length -->
<g id="node22" class="node">
<title>Vector::length</title>
<ellipse fill="none" stroke="black" cx="834" cy="-34" rx="32.49" ry="18"/>
<text text-anchor="middle" x="834" y="-30.3" font-family="Times,serif" font-size="14.00">length</text>
</g>
<!-- create_authentication_key&#45;&gt;Vector::length -->
<g id="edge28" class="edge">
<title>create_authentication_key&#45;&gt;Vector::length</title>
<path fill="none" stroke="black" d="M643.43,-325.98C641.03,-290.73 639.83,-208.36 674,-152 703.69,-103.04 762.38,-68.29 799.83,-49.97"/>
<polygon fill="black" stroke="black" points="801.34,-53.13 808.86,-45.67 798.33,-46.81 801.34,-53.13"/>
</g>
<!-- BCS::to_bytes -->
<g id="node23" class="node">
<title>BCS::to_bytes</title>
<ellipse fill="none" stroke="black" cx="726" cy="-178" rx="40.09" ry="18"/>
<text text-anchor="middle" x="726" y="-174.3" font-family="Times,serif" font-size="14.00">to_bytes</text>
</g>
<!-- create_authentication_key&#45;&gt;BCS::to_bytes -->
<g id="edge29" class="edge">
<title>create_authentication_key&#45;&gt;BCS::to_bytes</title>
<path fill="none" stroke="black" d="M660.59,-325.9C664.62,-320.98 668.74,-315.47 672,-310 692.36,-275.92 708.51,-232.75 717.66,-205.49"/>
<polygon fill="black" stroke="black" points="721.03,-206.47 720.83,-195.87 714.38,-204.28 721.03,-206.47"/>
</g>
<!-- Event::fresh_guid&#45;&gt;Vector::append -->
<g id="edge30" class="edge">
<title>Event::fresh_guid&#45;&gt;Vector::append</title>
<path fill="none" stroke="black" d="M837.94,-245.71C862.57,-232.14 899.68,-211.69 926.31,-197.01"/>
<polygon fill="black" stroke="black" points="928.19,-199.97 935.26,-192.08 924.81,-193.84 928.19,-199.97"/>
</g>
<!-- Event::fresh_guid&#45;&gt;BCS::to_bytes -->
<g id="edge31" class="edge">
<title>Event::fresh_guid&#45;&gt;BCS::to_bytes</title>
<path fill="none" stroke="black" d="M795.01,-244C782.21,-231.94 764.47,-215.24 750.19,-201.78"/>
<polygon fill="black" stroke="black" points="752.34,-199 742.66,-194.69 747.54,-204.1 752.34,-199"/>
</g>
<!-- Vector::empty -->
<g id="node24" class="node">
<title>Vector::empty</title>
<ellipse fill="none" stroke="black" cx="1386" cy="-106" rx="33.29" ry="18"/>
<text text-anchor="middle" x="1386" y="-102.3" font-family="Times,serif" font-size="14.00">empty</text>
</g>
<!-- Vector::singleton&#45;&gt;Vector::empty -->
<g id="edge32" class="edge">
<title>Vector::singleton&#45;&gt;Vector::empty</title>
<path fill="none" stroke="black" d="M1308,-162.15C1322.55,-151.86 1342.1,-138.04 1357.99,-126.81"/>
<polygon fill="black" stroke="black" points="1360.24,-129.5 1366.38,-120.87 1356.2,-123.79 1360.24,-129.5"/>
</g>
<!-- Vector::push_back -->
<g id="node25" class="node">
<title>Vector::push_back</title>
<ellipse fill="none" stroke="black" cx="1287" cy="-106" rx="48.19" ry="18"/>
<text text-anchor="middle" x="1287" y="-102.3" font-family="Times,serif" font-size="14.00">push_back</text>
</g>
<!-- Vector::singleton&#45;&gt;Vector::push_back -->
<g id="edge33" class="edge">
<title>Vector::singleton&#45;&gt;Vector::push_back</title>
<path fill="none" stroke="black" d="M1287,-159.7C1287,-151.98 1287,-142.71 1287,-134.11"/>
<polygon fill="black" stroke="black" points="1290.5,-134.1 1287,-124.1 1283.5,-134.1 1290.5,-134.1"/>
</g>
<!-- Errors::already_published&#45;&gt;Errors::make -->
<g id="edge34" class="edge">
<title>Errors::already_published&#45;&gt;Errors::make</title>
<path fill="none" stroke="black" d="M365.31,-244.38C338.57,-230.32 299.4,-209.72 272.21,-195.41"/>
<polygon fill="black" stroke="black" points="273.61,-192.2 263.13,-190.64 270.35,-198.39 273.61,-192.2"/>
</g>
<!-- Vector::append&#45;&gt;Vector::push_back -->
<g id="edge38" class="edge">
<title>Vector::append&#45;&gt;Vector::push_back</title>
<path fill="none" stroke="black" d="M993.03,-171.43C1044.61,-162.75 1145.51,-144.81 1230,-124 1233.78,-123.07 1237.69,-122.04 1241.6,-120.97"/>
<polygon fill="black" stroke="black" points="1242.6,-124.32 1251.27,-118.23 1240.69,-117.59 1242.6,-124.32"/>
</g>
<!-- Vector::destroy_empty -->
<g id="node26" class="node">
<title>Vector::destroy_empty</title>
<ellipse fill="none" stroke="black" cx="959" cy="-106" rx="63.89" ry="18"/>
<text text-anchor="middle" x="959" y="-102.3" font-family="Times,serif" font-size="14.00">destroy_empty</text>
</g>
<!-- Vector::append&#45;&gt;Vector::destroy_empty -->
<g id="edge35" class="edge">
<title>Vector::append&#45;&gt;Vector::destroy_empty</title>
<path fill="none" stroke="black" d="M959,-159.7C959,-151.98 959,-142.71 959,-134.11"/>
<polygon fill="black" stroke="black" points="962.5,-134.1 959,-124.1 955.5,-134.1 962.5,-134.1"/>
</g>
<!-- Vector::is_empty -->
<g id="node27" class="node">
<title>Vector::is_empty</title>
<ellipse fill="none" stroke="black" cx="834" cy="-106" rx="43.59" ry="18"/>
<text text-anchor="middle" x="834" y="-102.3" font-family="Times,serif" font-size="14.00">is_empty</text>
</g>
<!-- Vector::append&#45;&gt;Vector::is_empty -->
<g id="edge36" class="edge">
<title>Vector::append&#45;&gt;Vector::is_empty</title>
<path fill="none" stroke="black" d="M935.78,-164C916.63,-153.27 889.2,-137.91 867.65,-125.84"/>
<polygon fill="black" stroke="black" points="869.24,-122.72 858.81,-120.89 865.82,-128.83 869.24,-122.72"/>
</g>
<!-- Vector::pop_back -->
<g id="node28" class="node">
<title>Vector::pop_back</title>
<ellipse fill="none" stroke="black" cx="1176" cy="-106" rx="44.69" ry="18"/>
<text text-anchor="middle" x="1176" y="-102.3" font-family="Times,serif" font-size="14.00">pop_back</text>
</g>
<!-- Vector::append&#45;&gt;Vector::pop_back -->
<g id="edge37" class="edge">
<title>Vector::append&#45;&gt;Vector::pop_back</title>
<path fill="none" stroke="black" d="M988.72,-167.41C1025.87,-155.43 1089.76,-134.82 1132.44,-121.05"/>
<polygon fill="black" stroke="black" points="1133.56,-124.37 1142.01,-117.97 1131.41,-117.71 1133.56,-124.37"/>
</g>
<!-- Vector::reverse -->
<g id="node29" class="node">
<title>Vector::reverse</title>
<ellipse fill="none" stroke="black" cx="1077" cy="-106" rx="36.29" ry="18"/>
<text text-anchor="middle" x="1077" y="-102.3" font-family="Times,serif" font-size="14.00">reverse</text>
</g>
<!-- Vector::append&#45;&gt;Vector::reverse -->
<g id="edge39" class="edge">
<title>Vector::append&#45;&gt;Vector::reverse</title>
<path fill="none" stroke="black" d="M981.47,-163.67C999.68,-152.87 1025.54,-137.53 1045.76,-125.53"/>
<polygon fill="black" stroke="black" points="1047.8,-128.39 1054.61,-120.28 1044.22,-122.37 1047.8,-128.39"/>
</g>
<!-- Vector::is_empty&#45;&gt;Vector::length -->
<g id="edge40" class="edge">
<title>Vector::is_empty&#45;&gt;Vector::length</title>
<path fill="none" stroke="black" d="M834,-87.7C834,-79.98 834,-70.71 834,-62.11"/>
<polygon fill="black" stroke="black" points="837.5,-62.1 834,-52.1 830.5,-62.1 837.5,-62.1"/>
</g>
<!-- Vector::reverse&#45;&gt;Vector::length -->
<g id="edge41" class="edge">
<title>Vector::reverse&#45;&gt;Vector::length</title>
<path fill="none" stroke="black" d="M1049.55,-94.13C1043.79,-91.99 1037.72,-89.84 1032,-88 977.62,-70.5 913.59,-54.11 873.39,-44.31"/>
<polygon fill="black" stroke="black" points="874,-40.86 863.45,-41.91 872.35,-47.66 874,-40.86"/>
</g>
<!-- Vector::swap -->
<g id="node30" class="node">
<title>Vector::swap</title>
<ellipse fill="none" stroke="black" cx="1077" cy="-34" rx="28.7" ry="18"/>
<text text-anchor="middle" x="1077" y="-30.3" font-family="Times,serif" font-size="14.00">swap</text>
</g>
<!-- Vector::reverse&#45;&gt;Vector::swap -->
<g id="edge42" class="edge">
<title>Vector::reverse&#45;&gt;Vector::swap</title>
<path fill="none" stroke="black" d="M1077,-87.7C1077,-79.98 1077,-70.71 1077,-62.11"/>
<polygon fill="black" stroke="black" points="1080.5,-62.1 1077,-52.1 1073.5,-62.1 1080.5,-62.1"/>
</g>
</g>
</svg>
