<?xml version="1.0" encoding="UTF-8" standalone="no"?>
<!DOCTYPE svg PUBLIC "-//W3C//DTD SVG 1.1//EN"
 "http://www.w3.org/Graphics/SVG/1.1/DTD/svg11.dtd">
<!-- Generated by graphviz version 2.46.1 (20210213.1702)
 -->
<!-- Title: G Pages: 1 -->
<svg width="2768pt" height="528pt"
 viewBox="0.00 0.00 2768.42 528.00" xmlns="http://www.w3.org/2000/svg" xmlns:xlink="http://www.w3.org/1999/xlink">
<g id="graph0" class="graph" transform="scale(1 1) rotate(0) translate(4 524)">
<title>G</title>
<polygon fill="white" stroke="transparent" points="-4,4 -4,-524 2764.42,-524 2764.42,4 -4,4"/>
<g id="clust1" class="cluster">
<title>cluster_Errors</title>
<polygon fill="none" stroke="black" points="865.42,-80 865.42,-227 1755.42,-227 1755.42,-80 865.42,-80"/>
<text text-anchor="middle" x="1310.42" y="-211.8" font-family="Times,serif" font-size="14.00">Errors</text>
</g>
<g id="clust2" class="cluster">
<title>cluster_CoreAddresses</title>
<polygon fill="none" stroke="black" points="210.42,-152 210.42,-310 857.42,-310 857.42,-152 210.42,-152"/>
<text text-anchor="middle" x="533.92" y="-294.8" font-family="Times,serif" font-size="14.00">CoreAddresses</text>
</g>
<g id="clust3" class="cluster">
<title>cluster_DiemTimestamp</title>
<polygon fill="none" stroke="black" points="34.42,-235 34.42,-393 172.42,-393 172.42,-235 34.42,-235"/>
<text text-anchor="middle" x="103.42" y="-377.8" font-family="Times,serif" font-size="14.00">DiemTimestamp</text>
</g>
<g id="clust4" class="cluster">
<title>cluster_SlidingNonce</title>
<polygon fill="none" stroke="black" points="1673.42,-235 1673.42,-310 1764.42,-310 1764.42,-235 1673.42,-235"/>
<text text-anchor="middle" x="1718.92" y="-294.8" font-family="Times,serif" font-size="14.00">SlidingNonce</text>
</g>
<g id="clust5" class="cluster">
<title>cluster_Roles</title>
<polygon fill="none" stroke="black" points="971.42,-235 971.42,-393 1443.42,-393 1443.42,-235 971.42,-235"/>
<text text-anchor="middle" x="1207.42" y="-377.8" font-family="Times,serif" font-size="14.00">Roles</text>
</g>
<g id="clust6" class="cluster">
<title>cluster_Event</title>
<polygon fill="none" stroke="black" points="2138.42,-235 2138.42,-393 2592.42,-393 2592.42,-235 2138.42,-235"/>
<text text-anchor="middle" x="2365.42" y="-377.8" font-family="Times,serif" font-size="14.00">Event</text>
</g>
<g id="clust7" class="cluster">
<title>cluster_AccountLimits</title>
<polygon fill="none" stroke="black" points="345.42,-401 345.42,-476 569.42,-476 569.42,-401 345.42,-401"/>
<text text-anchor="middle" x="457.42" y="-460.8" font-family="Times,serif" font-size="14.00">AccountLimits</text>
</g>
<g id="clust8" class="cluster">
<title>cluster_Signer</title>
<polygon fill="none" stroke="black" points="1763.42,-80 1763.42,-227 1913.42,-227 1913.42,-80 1763.42,-80"/>
<text text-anchor="middle" x="1838.42" y="-211.8" font-family="Times,serif" font-size="14.00">Signer</text>
</g>
<g id="clust9" class="cluster">
<title>cluster_Option</title>
<polygon fill="none" stroke="black" points="2600.42,-318 2600.42,-393 2676.42,-393 2676.42,-318 2600.42,-318"/>
<text text-anchor="middle" x="2638.42" y="-377.8" font-family="Times,serif" font-size="14.00">Option</text>
</g>
<g id="clust10" class="cluster">
<title>cluster_AccountFreezing</title>
<polygon fill="none" stroke="black" points="1555.42,-235 1555.42,-310 1665.42,-310 1665.42,-235 1555.42,-235"/>
<text text-anchor="middle" x="1610.42" y="-294.8" font-family="Times,serif" font-size="14.00">AccountFreezing</text>
</g>
<g id="clust11" class="cluster">
<title>cluster_Vector</title>
<polygon fill="none" stroke="black" points="2108.42,-8 2108.42,-227 2752.42,-227 2752.42,-8 2108.42,-8"/>
<text text-anchor="middle" x="2430.42" y="-211.8" font-family="Times,serif" font-size="14.00">Vector</text>
</g>
<g id="clust12" class="cluster">
<title>cluster_BCS</title>
<polygon fill="none" stroke="black" points="2004.42,-152 2004.42,-227 2100.42,-227 2100.42,-152 2004.42,-152"/>
<text text-anchor="middle" x="2052.42" y="-211.8" font-family="Times,serif" font-size="14.00">BCS</text>
</g>
<!-- create_diem_root_account -->
<g id="node1" class="node">
<title>create_diem_root_account</title>
<ellipse fill="none" stroke="black" cx="1067.42" cy="-502" rx="104.78" ry="18"/>
<text text-anchor="middle" x="1067.42" y="-498.3" font-family="Times,serif" font-size="14.00">create_diem_root_account</text>
</g>
<!-- Errors::already_published -->
<g id="node2" class="node">
<title>Errors::already_published</title>
<ellipse fill="none" stroke="black" cx="1507.42" cy="-178" rx="75.29" ry="18"/>
<text text-anchor="middle" x="1507.42" y="-174.3" font-family="Times,serif" font-size="14.00">already_published</text>
</g>
<!-- create_diem_root_account&#45;&gt;Errors::already_published -->
<g id="edge1" class="edge">
<title>create_diem_root_account&#45;&gt;Errors::already_published</title>
<path fill="none" stroke="black" d="M1043.89,-484.3C1019.45,-465.37 982.71,-432.02 967.42,-393 941.8,-327.62 918.21,-285.09 967.42,-235 976.28,-225.98 1410.23,-230.32 1422.42,-227 1441.83,-221.72 1461.52,-211.01 1477.05,-201.05"/>
<polygon fill="black" stroke="black" points="1479.29,-203.77 1485.68,-195.32 1475.42,-197.93 1479.29,-203.77"/>
</g>
<!-- CoreAddresses::DIEM_ROOT_ADDRESS -->
<g id="node3" class="node">
<title>CoreAddresses::DIEM_ROOT_ADDRESS</title>
<ellipse fill="none" stroke="black" cx="325.42" cy="-178" rx="106.68" ry="18"/>
<text text-anchor="middle" x="325.42" y="-174.3" font-family="Times,serif" font-size="14.00">DIEM_ROOT_ADDRESS</text>
</g>
<!-- create_diem_root_account&#45;&gt;CoreAddresses::DIEM_ROOT_ADDRESS -->
<g id="edge2" class="edge">
<title>create_diem_root_account&#45;&gt;CoreAddresses::DIEM_ROOT_ADDRESS</title>
<path fill="none" stroke="black" d="M962.67,-500.85C743.99,-500.12 253.04,-496.23 179.42,-476 106.33,-455.91 68.83,-458.35 30.42,-393 -5.15,-332.46 -14.36,-289.09 30.42,-235 54,-206.53 142,-192.41 215.8,-185.49"/>
<polygon fill="black" stroke="black" points="216.47,-188.94 226.11,-184.56 215.84,-181.97 216.47,-188.94"/>
</g>
<!-- CoreAddresses::assert_diem_root -->
<g id="node4" class="node">
<title>CoreAddresses::assert_diem_root</title>
<ellipse fill="none" stroke="black" cx="778.42" cy="-261" rx="71.49" ry="18"/>
<text text-anchor="middle" x="778.42" y="-257.3" font-family="Times,serif" font-size="14.00">assert_diem_root</text>
</g>
<!-- create_diem_root_account&#45;&gt;CoreAddresses::assert_diem_root -->
<g id="edge3" class="edge">
<title>create_diem_root_account&#45;&gt;CoreAddresses::assert_diem_root</title>
<path fill="none" stroke="black" d="M972.99,-494.15C941.87,-490.38 912,-484.64 899.42,-476 832.87,-430.28 798.6,-335.26 785.25,-288.77"/>
<polygon fill="black" stroke="black" points="788.61,-287.81 782.57,-279.1 781.86,-289.68 788.61,-287.81"/>
</g>
<!-- DiemTimestamp::assert_genesis -->
<g id="node5" class="node">
<title>DiemTimestamp::assert_genesis</title>
<ellipse fill="none" stroke="black" cx="103.42" cy="-344" rx="61.19" ry="18"/>
<text text-anchor="middle" x="103.42" y="-340.3" font-family="Times,serif" font-size="14.00">assert_genesis</text>
</g>
<!-- create_diem_root_account&#45;&gt;DiemTimestamp::assert_genesis -->
<g id="edge4" class="edge">
<title>create_diem_root_account&#45;&gt;DiemTimestamp::assert_genesis</title>
<path fill="none" stroke="black" d="M963.11,-500.09C776.51,-498.06 399.6,-492.02 341.42,-476 259.75,-453.5 175.51,-398.08 132.53,-367.01"/>
<polygon fill="black" stroke="black" points="134.38,-364.04 124.24,-360.96 130.25,-369.69 134.38,-364.04"/>
</g>
<!-- SlidingNonce::publish -->
<g id="node6" class="node">
<title>SlidingNonce::publish</title>
<ellipse fill="none" stroke="black" cx="1718.42" cy="-261" rx="36.29" ry="18"/>
<text text-anchor="middle" x="1718.42" y="-257.3" font-family="Times,serif" font-size="14.00">publish</text>
</g>
<!-- create_diem_root_account&#45;&gt;SlidingNonce::publish -->
<g id="edge5" class="edge">
<title>create_diem_root_account&#45;&gt;SlidingNonce::publish</title>
<path fill="none" stroke="black" d="M1171.15,-499.28C1328.93,-496.25 1612.98,-489.01 1631.42,-476 1693.44,-432.24 1711.31,-336.22 1716.41,-289.13"/>
<polygon fill="black" stroke="black" points="1719.91,-289.35 1717.39,-279.06 1712.94,-288.68 1719.91,-289.35"/>
</g>
<!-- Roles::grant_diem_root_role -->
<g id="node7" class="node">
<title>Roles::grant_diem_root_role</title>
<ellipse fill="none" stroke="black" cx="1067.42" cy="-344" rx="87.99" ry="18"/>
<text text-anchor="middle" x="1067.42" y="-340.3" font-family="Times,serif" font-size="14.00">grant_diem_root_role</text>
</g>
<!-- create_diem_root_account&#45;&gt;Roles::grant_diem_root_role -->
<g id="edge6" class="edge">
<title>create_diem_root_account&#45;&gt;Roles::grant_diem_root_role</title>
<path fill="none" stroke="black" d="M1067.42,-483.71C1067.42,-456.77 1067.42,-404.54 1067.42,-372.42"/>
<polygon fill="black" stroke="black" points="1070.92,-372.37 1067.42,-362.37 1063.92,-372.37 1070.92,-372.37"/>
</g>
<!-- Event::new_event_handle -->
<g id="node8" class="node">
<title>Event::new_event_handle</title>
<ellipse fill="none" stroke="black" cx="2389.42" cy="-344" rx="76.89" ry="18"/>
<text text-anchor="middle" x="2389.42" y="-340.3" font-family="Times,serif" font-size="14.00">new_event_handle</text>
</g>
<!-- create_diem_root_account&#45;&gt;Event::new_event_handle -->
<g id="edge7" class="edge">
<title>create_diem_root_account&#45;&gt;Event::new_event_handle</title>
<path fill="none" stroke="black" d="M1172.06,-500.47C1384.46,-499.03 1848.68,-493.85 1878.42,-476 1911.37,-456.23 1888.38,-420.61 1921.42,-401 1939.68,-390.17 2282.94,-398.56 2303.42,-393 2323.01,-387.68 2342.92,-376.98 2358.65,-367.02"/>
<polygon fill="black" stroke="black" points="2360.95,-369.7 2367.39,-361.29 2357.11,-363.85 2360.95,-369.7"/>
</g>
<!-- Event::publish_generator -->
<g id="node9" class="node">
<title>Event::publish_generator</title>
<ellipse fill="none" stroke="black" cx="2220.42" cy="-344" rx="74.19" ry="18"/>
<text text-anchor="middle" x="2220.42" y="-340.3" font-family="Times,serif" font-size="14.00">publish_generator</text>
</g>
<!-- create_diem_root_account&#45;&gt;Event::publish_generator -->
<g id="edge8" class="edge">
<title>create_diem_root_account&#45;&gt;Event::publish_generator</title>
<path fill="none" stroke="black" d="M1171.76,-500.19C1376.13,-498.24 1811.9,-492.22 1840.42,-476 1874.83,-456.44 1855.41,-422.83 1888.42,-401 1928.77,-374.32 2055.74,-358.73 2140.45,-351.04"/>
<polygon fill="black" stroke="black" points="2140.91,-354.51 2150.56,-350.14 2140.29,-347.54 2140.91,-354.51"/>
</g>
<!-- AccountLimits::grant_mutation_capability -->
<g id="node10" class="node">
<title>AccountLimits::grant_mutation_capability</title>
<ellipse fill="none" stroke="black" cx="457.42" cy="-427" rx="103.98" ry="18"/>
<text text-anchor="middle" x="457.42" y="-423.3" font-family="Times,serif" font-size="14.00">grant_mutation_capability</text>
</g>
<!-- create_diem_root_account&#45;&gt;AccountLimits::grant_mutation_capability -->
<g id="edge9" class="edge">
<title>create_diem_root_account&#45;&gt;AccountLimits::grant_mutation_capability</title>
<path fill="none" stroke="black" d="M963.53,-499.79C841.49,-497.66 646.65,-491.82 575.42,-476 548.79,-470.08 520.42,-458.72 498.17,-448.54"/>
<polygon fill="black" stroke="black" points="499.58,-445.33 489.04,-444.26 496.61,-451.67 499.58,-445.33"/>
</g>
<!-- create_signer -->
<g id="node11" class="node">
<title>create_signer</title>
<ellipse fill="none" stroke="black" cx="1988.42" cy="-427" rx="57.69" ry="18"/>
<text text-anchor="middle" x="1988.42" y="-423.3" font-family="Times,serif" font-size="14.00">create_signer</text>
</g>
<!-- create_diem_root_account&#45;&gt;create_signer -->
<g id="edge10" class="edge">
<title>create_diem_root_account&#45;&gt;create_signer</title>
<path fill="none" stroke="black" d="M1172.11,-501.14C1383.54,-500.96 1847.37,-498.02 1916.42,-476 1933.1,-470.68 1949.5,-460.27 1962.43,-450.49"/>
<polygon fill="black" stroke="black" points="1964.71,-453.16 1970.4,-444.22 1960.38,-447.66 1964.71,-453.16"/>
</g>
<!-- make_account -->
<g id="node12" class="node">
<title>make_account</title>
<ellipse fill="none" stroke="black" cx="1560.42" cy="-427" rx="61.99" ry="18"/>
<text text-anchor="middle" x="1560.42" y="-423.3" font-family="Times,serif" font-size="14.00">make_account</text>
</g>
<!-- create_diem_root_account&#45;&gt;make_account -->
<g id="edge11" class="edge">
<title>create_diem_root_account&#45;&gt;make_account</title>
<path fill="none" stroke="black" d="M1143.91,-489.67C1240.79,-475.33 1405.97,-450.87 1496.47,-437.47"/>
<polygon fill="black" stroke="black" points="1497.22,-440.9 1506.6,-435.97 1496.19,-433.97 1497.22,-440.9"/>
</g>
<!-- Errors::make -->
<g id="node13" class="node">
<title>Errors::make</title>
<ellipse fill="none" stroke="black" cx="1288.42" cy="-106" rx="30.59" ry="18"/>
<text text-anchor="middle" x="1288.42" y="-102.3" font-family="Times,serif" font-size="14.00">make</text>
</g>
<!-- Errors::already_published&#45;&gt;Errors::make -->
<g id="edge12" class="edge">
<title>Errors::already_published&#45;&gt;Errors::make</title>
<path fill="none" stroke="black" d="M1464.16,-163.17C1423.31,-150.11 1362.75,-130.76 1324.46,-118.52"/>
<polygon fill="black" stroke="black" points="1325.34,-115.13 1314.75,-115.42 1323.21,-121.79 1325.34,-115.13"/>
</g>
<!-- CoreAddresses::assert_diem_root&#45;&gt;CoreAddresses::DIEM_ROOT_ADDRESS -->
<g id="edge15" class="edge">
<title>CoreAddresses::assert_diem_root&#45;&gt;CoreAddresses::DIEM_ROOT_ADDRESS</title>
<path fill="none" stroke="black" d="M738.06,-246.06C725.47,-242.07 711.47,-238 698.42,-235 606.05,-213.76 498.88,-198.64 423.19,-189.5"/>
<polygon fill="black" stroke="black" points="423.53,-186.02 413.19,-188.31 422.7,-192.97 423.53,-186.02"/>
</g>
<!-- Signer::address_of -->
<g id="node14" class="node">
<title>Signer::address_of</title>
<ellipse fill="none" stroke="black" cx="1820.42" cy="-178" rx="48.99" ry="18"/>
<text text-anchor="middle" x="1820.42" y="-174.3" font-family="Times,serif" font-size="14.00">address_of</text>
</g>
<!-- CoreAddresses::assert_diem_root&#45;&gt;Signer::address_of -->
<g id="edge13" class="edge">
<title>CoreAddresses::assert_diem_root&#45;&gt;Signer::address_of</title>
<path fill="none" stroke="black" d="M836.56,-250.45C873.84,-244.79 923.35,-238.13 967.42,-235 989.37,-233.44 1738.67,-234.3 1759.42,-227 1773.81,-221.94 1787.39,-211.97 1798.08,-202.43"/>
<polygon fill="black" stroke="black" points="1800.77,-204.7 1805.65,-195.3 1795.97,-199.61 1800.77,-204.7"/>
</g>
<!-- Errors::requires_address -->
<g id="node15" class="node">
<title>Errors::requires_address</title>
<ellipse fill="none" stroke="black" cx="943.42" cy="-178" rx="69.59" ry="18"/>
<text text-anchor="middle" x="943.42" y="-174.3" font-family="Times,serif" font-size="14.00">requires_address</text>
</g>
<!-- CoreAddresses::assert_diem_root&#45;&gt;Errors::requires_address -->
<g id="edge14" class="edge">
<title>CoreAddresses::assert_diem_root&#45;&gt;Errors::requires_address</title>
<path fill="none" stroke="black" d="M817.8,-245.75C831.77,-240.32 847.49,-233.8 861.42,-227 877.75,-219.03 895.21,-209.04 909.8,-200.23"/>
<polygon fill="black" stroke="black" points="911.77,-203.13 918.48,-194.93 908.12,-197.15 911.77,-203.13"/>
</g>
<!-- Errors::invalid_state -->
<g id="node16" class="node">
<title>Errors::invalid_state</title>
<ellipse fill="none" stroke="black" cx="1086.42" cy="-178" rx="55.79" ry="18"/>
<text text-anchor="middle" x="1086.42" y="-174.3" font-family="Times,serif" font-size="14.00">invalid_state</text>
</g>
<!-- DiemTimestamp::assert_genesis&#45;&gt;Errors::invalid_state -->
<g id="edge16" class="edge">
<title>DiemTimestamp::assert_genesis&#45;&gt;Errors::invalid_state</title>
<path fill="none" stroke="black" d="M164.28,-341.99C339.09,-338.87 832.12,-328.46 861.42,-310 893.39,-289.86 869.69,-255.5 901.42,-235 924.06,-220.38 997.15,-236.36 1022.42,-227 1037.1,-221.56 1051.25,-211.62 1062.5,-202.18"/>
<polygon fill="black" stroke="black" points="1064.93,-204.7 1070.14,-195.47 1060.32,-199.44 1064.93,-204.7"/>
</g>
<!-- DiemTimestamp::is_genesis -->
<g id="node17" class="node">
<title>DiemTimestamp::is_genesis</title>
<ellipse fill="none" stroke="black" cx="109.42" cy="-261" rx="46.59" ry="18"/>
<text text-anchor="middle" x="109.42" y="-257.3" font-family="Times,serif" font-size="14.00">is_genesis</text>
</g>
<!-- DiemTimestamp::assert_genesis&#45;&gt;DiemTimestamp::is_genesis -->
<g id="edge17" class="edge">
<title>DiemTimestamp::assert_genesis&#45;&gt;DiemTimestamp::is_genesis</title>
<path fill="none" stroke="black" d="M104.7,-325.82C105.48,-315.19 106.51,-301.31 107.41,-289.2"/>
<polygon fill="black" stroke="black" points="110.9,-289.38 108.15,-279.15 103.92,-288.87 110.9,-289.38"/>
</g>
<!-- SlidingNonce::publish&#45;&gt;Errors::already_published -->
<g id="edge19" class="edge">
<title>SlidingNonce::publish&#45;&gt;Errors::already_published</title>
<path fill="none" stroke="black" d="M1696.21,-246.48C1688.06,-242.12 1678.58,-237.71 1669.42,-235 1636.43,-225.24 1625.2,-237.46 1592.42,-227 1573.53,-220.97 1554.14,-210.42 1538.67,-200.75"/>
<polygon fill="black" stroke="black" points="1540.34,-197.66 1530.04,-195.19 1536.55,-203.55 1540.34,-197.66"/>
</g>
<!-- SlidingNonce::publish&#45;&gt;Signer::address_of -->
<g id="edge18" class="edge">
<title>SlidingNonce::publish&#45;&gt;Signer::address_of</title>
<path fill="none" stroke="black" d="M1737.13,-245.14C1752.65,-232.82 1774.95,-215.11 1792.57,-201.12"/>
<polygon fill="black" stroke="black" points="1795.14,-203.55 1800.79,-194.59 1790.78,-198.07 1795.14,-203.55"/>
</g>
<!-- Roles::grant_diem_root_role&#45;&gt;CoreAddresses::assert_diem_root -->
<g id="edge20" class="edge">
<title>Roles::grant_diem_root_role&#45;&gt;CoreAddresses::assert_diem_root</title>
<path fill="none" stroke="black" d="M1017.74,-329.08C966.8,-314.8 887.71,-292.63 834.54,-277.73"/>
<polygon fill="black" stroke="black" points="835.17,-274.27 824.6,-274.94 833.28,-281.01 835.17,-274.27"/>
</g>
<!-- Roles::grant_diem_root_role&#45;&gt;DiemTimestamp::assert_genesis -->
<g id="edge21" class="edge">
<title>Roles::grant_diem_root_role&#45;&gt;DiemTimestamp::assert_genesis</title>
<path fill="none" stroke="black" d="M979.26,-344C711.16,-344 443.06,-344 174.96,-344"/>
<polygon fill="black" stroke="black" points="174.62,-340.5 164.62,-344 174.62,-347.5 174.62,-340.5"/>
</g>
<!-- Roles::grant_role -->
<g id="node18" class="node">
<title>Roles::grant_role</title>
<ellipse fill="none" stroke="black" cx="1386.42" cy="-261" rx="46.59" ry="18"/>
<text text-anchor="middle" x="1386.42" y="-257.3" font-family="Times,serif" font-size="14.00">grant_role</text>
</g>
<!-- Roles::grant_diem_root_role&#45;&gt;Roles::grant_role -->
<g id="edge22" class="edge">
<title>Roles::grant_diem_root_role&#45;&gt;Roles::grant_role</title>
<path fill="none" stroke="black" d="M1119.77,-329.46C1134.23,-325.73 1149.93,-321.7 1164.42,-318 1224.4,-302.71 1293.56,-285.3 1338.53,-274.01"/>
<polygon fill="black" stroke="black" points="1339.46,-277.38 1348.3,-271.55 1337.75,-270.59 1339.46,-277.38"/>
</g>
<!-- Event::new_event_handle&#45;&gt;Signer::address_of -->
<g id="edge23" class="edge">
<title>Event::new_event_handle&#45;&gt;Signer::address_of</title>
<path fill="none" stroke="black" d="M2348.36,-328.69C2334.29,-324.42 2318.33,-320.28 2303.42,-318 2282.11,-314.74 1933.8,-321.28 1915.42,-310 1883.23,-290.23 1897.78,-265.45 1875.42,-235 1866.75,-223.18 1855.65,-211.41 1845.7,-201.73"/>
<polygon fill="black" stroke="black" points="1848.04,-199.12 1838.37,-194.77 1843.21,-204.19 1848.04,-199.12"/>
</g>
<!-- Errors::not_published -->
<g id="node19" class="node">
<title>Errors::not_published</title>
<ellipse fill="none" stroke="black" cx="1220.42" cy="-178" rx="60.39" ry="18"/>
<text text-anchor="middle" x="1220.42" y="-174.3" font-family="Times,serif" font-size="14.00">not_published</text>
</g>
<!-- Event::new_event_handle&#45;&gt;Errors::not_published -->
<g id="edge24" class="edge">
<title>Event::new_event_handle&#45;&gt;Errors::not_published</title>
<path fill="none" stroke="black" d="M2348.37,-328.6C2334.3,-324.33 2318.34,-320.21 2303.42,-318 2262.09,-311.89 1591.11,-323.05 1551.42,-310 1497.29,-292.2 1501.19,-253.89 1447.42,-235 1381.51,-211.84 1356.61,-249.38 1290.42,-227 1274.43,-221.59 1258.73,-211.41 1246.27,-201.81"/>
<polygon fill="black" stroke="black" points="1248.18,-198.86 1238.19,-195.33 1243.8,-204.32 1248.18,-198.86"/>
</g>
<!-- Event::fresh_guid -->
<g id="node20" class="node">
<title>Event::fresh_guid</title>
<ellipse fill="none" stroke="black" cx="2295.42" cy="-261" rx="48.19" ry="18"/>
<text text-anchor="middle" x="2295.42" y="-257.3" font-family="Times,serif" font-size="14.00">fresh_guid</text>
</g>
<!-- Event::new_event_handle&#45;&gt;Event::fresh_guid -->
<g id="edge25" class="edge">
<title>Event::new_event_handle&#45;&gt;Event::fresh_guid</title>
<path fill="none" stroke="black" d="M2369.95,-326.22C2355.93,-314.14 2336.88,-297.72 2321.55,-284.51"/>
<polygon fill="black" stroke="black" points="2323.78,-281.81 2313.92,-277.94 2319.21,-287.11 2323.78,-281.81"/>
</g>
<!-- Event::publish_generator&#45;&gt;Errors::already_published -->
<g id="edge27" class="edge">
<title>Event::publish_generator&#45;&gt;Errors::already_published</title>
<path fill="none" stroke="black" d="M2146.81,-341.58C1977.83,-338.02 1574.83,-327.72 1551.42,-310 1519.26,-285.65 1510.36,-236.76 1508.05,-206.08"/>
<polygon fill="black" stroke="black" points="1511.54,-205.84 1507.48,-196.06 1504.55,-206.24 1511.54,-205.84"/>
</g>
<!-- Event::publish_generator&#45;&gt;Signer::address_of -->
<g id="edge26" class="edge">
<title>Event::publish_generator&#45;&gt;Signer::address_of</title>
<path fill="none" stroke="black" d="M2148.25,-339.72C2055.44,-334.93 1903.64,-324.93 1882.42,-310 1864.35,-297.28 1841.89,-240.34 1829.57,-205.85"/>
<polygon fill="black" stroke="black" points="1832.85,-204.63 1826.23,-196.36 1826.25,-206.95 1832.85,-204.63"/>
</g>
<!-- AccountLimits::grant_mutation_capability&#45;&gt;DiemTimestamp::assert_genesis -->
<g id="edge28" class="edge">
<title>AccountLimits::grant_mutation_capability&#45;&gt;DiemTimestamp::assert_genesis</title>
<path fill="none" stroke="black" d="M397.37,-412.26C331.09,-397.09 225.2,-372.86 160.24,-358"/>
<polygon fill="black" stroke="black" points="160.7,-354.52 150.18,-355.7 159.14,-361.34 160.7,-354.52"/>
</g>
<!-- Roles::assert_diem_root -->
<g id="node21" class="node">
<title>Roles::assert_diem_root</title>
<ellipse fill="none" stroke="black" cx="1244.42" cy="-344" rx="71.49" ry="18"/>
<text text-anchor="middle" x="1244.42" y="-340.3" font-family="Times,serif" font-size="14.00">assert_diem_root</text>
</g>
<!-- AccountLimits::grant_mutation_capability&#45;&gt;Roles::assert_diem_root -->
<g id="edge29" class="edge">
<title>AccountLimits::grant_mutation_capability&#45;&gt;Roles::assert_diem_root</title>
<path fill="none" stroke="black" d="M560.15,-423.98C742.35,-419.99 1108.26,-409.98 1164.42,-393 1182.53,-387.53 1200.76,-377.06 1215.24,-367.3"/>
<polygon fill="black" stroke="black" points="1217.54,-369.95 1223.73,-361.36 1213.53,-364.22 1217.54,-369.95"/>
</g>
<!-- make_account&#45;&gt;CoreAddresses::DIEM_ROOT_ADDRESS -->
<g id="edge34" class="edge">
<title>make_account&#45;&gt;CoreAddresses::DIEM_ROOT_ADDRESS</title>
<path fill="none" stroke="black" d="M1498.81,-425.73C1245.35,-423.96 292.55,-410.61 209.42,-310 188.19,-284.3 191.7,-263.23 209.42,-235 220.36,-217.58 238.4,-205.45 257.04,-197.06"/>
<polygon fill="black" stroke="black" points="258.62,-200.19 266.51,-193.11 255.93,-193.73 258.62,-200.19"/>
</g>
<!-- make_account&#45;&gt;Event::new_event_handle -->
<g id="edge38" class="edge">
<title>make_account&#45;&gt;Event::new_event_handle</title>
<path fill="none" stroke="black" d="M1618.43,-420.58C1683.93,-414.69 1793.73,-405.52 1888.42,-401 1934.49,-398.8 2258.9,-405.04 2303.42,-393 2323.02,-387.7 2342.93,-377 2358.65,-367.04"/>
<polygon fill="black" stroke="black" points="2360.95,-369.72 2367.39,-361.31 2357.11,-363.86 2360.95,-369.72"/>
</g>
<!-- make_account&#45;&gt;Signer::address_of -->
<g id="edge30" class="edge">
<title>make_account&#45;&gt;Signer::address_of</title>
<path fill="none" stroke="black" d="M1596.79,-412.36C1610.66,-406.81 1626.48,-400.04 1640.42,-393 1697.92,-363.97 1704.71,-342.15 1764.42,-318 1779.22,-312.02 1788.52,-321.65 1799.42,-310 1825.5,-282.15 1826.62,-235.49 1824.17,-206.02"/>
<polygon fill="black" stroke="black" points="1827.64,-205.6 1823.14,-196.01 1820.68,-206.32 1827.64,-205.6"/>
</g>
<!-- make_account&#45;&gt;Errors::not_published -->
<g id="edge32" class="edge">
<title>make_account&#45;&gt;Errors::not_published</title>
<path fill="none" stroke="black" d="M1498.93,-424.83C1350.88,-421.7 985.48,-412.09 967.42,-393 919.17,-341.98 918.86,-285.72 967.42,-235 981.58,-220.22 1132.04,-233.55 1151.42,-227 1167.26,-221.65 1182.74,-211.48 1195.02,-201.87"/>
<polygon fill="black" stroke="black" points="1197.44,-204.41 1202.96,-195.37 1193.01,-198.99 1197.44,-204.41"/>
</g>
<!-- Errors::invalid_argument -->
<g id="node22" class="node">
<title>Errors::invalid_argument</title>
<ellipse fill="none" stroke="black" cx="1674.42" cy="-178" rx="73.39" ry="18"/>
<text text-anchor="middle" x="1674.42" y="-174.3" font-family="Times,serif" font-size="14.00">invalid_argument</text>
</g>
<!-- make_account&#45;&gt;Errors::invalid_argument -->
<g id="edge31" class="edge">
<title>make_account&#45;&gt;Errors::invalid_argument</title>
<path fill="none" stroke="black" d="M1576.87,-409.51C1580.76,-404.6 1584.37,-398.93 1586.42,-393 1597.34,-361.5 1607.2,-344.06 1586.42,-318 1576.48,-305.52 1561.37,-322.48 1551.42,-310 1530.64,-283.94 1530.29,-260.78 1551.42,-235 1562.92,-220.98 1574.46,-233.4 1591.42,-227 1609.09,-220.33 1627.4,-210.15 1642.31,-200.87"/>
<polygon fill="black" stroke="black" points="1644.57,-203.58 1651.12,-195.25 1640.81,-197.68 1644.57,-203.58"/>
</g>
<!-- CoreAddresses::CORE_CODE_ADDRESS -->
<g id="node23" class="node">
<title>CoreAddresses::CORE_CODE_ADDRESS</title>
<ellipse fill="none" stroke="black" cx="325.42" cy="-261" rx="106.68" ry="18"/>
<text text-anchor="middle" x="325.42" y="-257.3" font-family="Times,serif" font-size="14.00">CORE_CODE_ADDRESS</text>
</g>
<!-- make_account&#45;&gt;CoreAddresses::CORE_CODE_ADDRESS -->
<g id="edge33" class="edge">
<title>make_account&#45;&gt;CoreAddresses::CORE_CODE_ADDRESS</title>
<path fill="none" stroke="black" d="M1498.79,-425.03C1326.16,-422.07 846,-412.21 777.42,-393 710.95,-374.39 707.91,-336.54 641.42,-318 598.36,-306 484.07,-319.65 440.42,-310 414.48,-304.26 386.96,-292.98 365.34,-282.8"/>
<polygon fill="black" stroke="black" points="366.69,-279.56 356.16,-278.37 363.65,-285.87 366.69,-279.56"/>
</g>
<!-- CoreAddresses::VM_RESERVED_ADDRESS -->
<g id="node24" class="node">
<title>CoreAddresses::VM_RESERVED_ADDRESS</title>
<ellipse fill="none" stroke="black" cx="569.42" cy="-261" rx="119.68" ry="18"/>
<text text-anchor="middle" x="569.42" y="-257.3" font-family="Times,serif" font-size="14.00">VM_RESERVED_ADDRESS</text>
</g>
<!-- make_account&#45;&gt;CoreAddresses::VM_RESERVED_ADDRESS -->
<g id="edge35" class="edge">
<title>make_account&#45;&gt;CoreAddresses::VM_RESERVED_ADDRESS</title>
<path fill="none" stroke="black" d="M1498.6,-425.73C1362.83,-424.65 1042.35,-419.3 937.42,-393 861.25,-373.9 853.12,-338.92 777.42,-318 743.41,-308.6 732.8,-318 698.42,-310 669.86,-303.36 639.04,-292.05 614.69,-282.08"/>
<polygon fill="black" stroke="black" points="615.93,-278.81 605.36,-278.2 613.24,-285.27 615.93,-278.81"/>
</g>
<!-- Roles::get_role_id -->
<g id="node25" class="node">
<title>Roles::get_role_id</title>
<ellipse fill="none" stroke="black" cx="1384.42" cy="-344" rx="50.89" ry="18"/>
<text text-anchor="middle" x="1384.42" y="-340.3" font-family="Times,serif" font-size="14.00">get_role_id</text>
</g>
<!-- make_account&#45;&gt;Roles::get_role_id -->
<g id="edge36" class="edge">
<title>make_account&#45;&gt;Roles::get_role_id</title>
<path fill="none" stroke="black" d="M1510.25,-416.34C1489.19,-411.13 1464.9,-403.55 1444.42,-393 1431.7,-386.44 1419.1,-376.95 1408.76,-368.13"/>
<polygon fill="black" stroke="black" points="1410.8,-365.26 1400.99,-361.27 1406.17,-370.51 1410.8,-365.26"/>
</g>
<!-- Event::emit_event -->
<g id="node26" class="node">
<title>Event::emit_event</title>
<ellipse fill="none" stroke="black" cx="2534.42" cy="-344" rx="50.09" ry="18"/>
<text text-anchor="middle" x="2534.42" y="-340.3" font-family="Times,serif" font-size="14.00">emit_event</text>
</g>
<!-- make_account&#45;&gt;Event::emit_event -->
<g id="edge37" class="edge">
<title>make_account&#45;&gt;Event::emit_event</title>
<path fill="none" stroke="black" d="M1618.83,-420.97C1690.17,-415.05 1814.56,-405.47 1921.42,-401 1952.18,-399.71 2446.5,-403.52 2475.42,-393 2489.47,-387.89 2502.62,-377.92 2512.93,-368.39"/>
<polygon fill="black" stroke="black" points="2515.52,-370.76 2520.23,-361.27 2510.63,-365.75 2515.52,-370.76"/>
</g>
<!-- Option::some -->
<g id="node27" class="node">
<title>Option::some</title>
<ellipse fill="none" stroke="black" cx="2638.42" cy="-344" rx="29.8" ry="18"/>
<text text-anchor="middle" x="2638.42" y="-340.3" font-family="Times,serif" font-size="14.00">some</text>
</g>
<!-- make_account&#45;&gt;Option::some -->
<g id="edge39" class="edge">
<title>make_account&#45;&gt;Option::some</title>
<path fill="none" stroke="black" d="M1618.83,-420.92C1690.17,-414.96 1814.55,-405.33 1921.42,-401 1940.16,-400.24 2579.39,-400.85 2596.42,-393 2607.36,-387.96 2616.58,-378.54 2623.57,-369.38"/>
<polygon fill="black" stroke="black" points="2626.46,-371.36 2629.35,-361.16 2620.73,-367.33 2626.46,-371.36"/>
</g>
<!-- AccountFreezing::create -->
<g id="node28" class="node">
<title>AccountFreezing::create</title>
<ellipse fill="none" stroke="black" cx="1625.42" cy="-261" rx="31.7" ry="18"/>
<text text-anchor="middle" x="1625.42" y="-257.3" font-family="Times,serif" font-size="14.00">create</text>
</g>
<!-- make_account&#45;&gt;AccountFreezing::create -->
<g id="edge40" class="edge">
<title>make_account&#45;&gt;AccountFreezing::create</title>
<path fill="none" stroke="black" d="M1597.83,-412.51C1606.3,-407.67 1614.3,-401.29 1619.42,-393 1638.84,-361.57 1636.05,-317.35 1631.41,-289.18"/>
<polygon fill="black" stroke="black" points="1634.83,-288.44 1629.58,-279.23 1627.94,-289.7 1634.83,-288.44"/>
</g>
<!-- create_authentication_key -->
<g id="node29" class="node">
<title>create_authentication_key</title>
<ellipse fill="none" stroke="black" cx="2027.42" cy="-261" rx="102.88" ry="18"/>
<text text-anchor="middle" x="2027.42" y="-257.3" font-family="Times,serif" font-size="14.00">create_authentication_key</text>
</g>
<!-- make_account&#45;&gt;create_authentication_key -->
<g id="edge41" class="edge">
<title>make_account&#45;&gt;create_authentication_key</title>
<path fill="none" stroke="black" d="M1619.11,-421.24C1660.48,-416.75 1716.78,-408.33 1764.42,-393 1850.37,-365.35 1943.18,-313.32 1992.29,-283.83"/>
<polygon fill="black" stroke="black" points="1994.19,-286.77 2000.94,-278.6 1990.57,-280.78 1994.19,-286.77"/>
</g>
<!-- destroy_signer -->
<g id="node30" class="node">
<title>destroy_signer</title>
<ellipse fill="none" stroke="black" cx="1515.42" cy="-344" rx="62.29" ry="18"/>
<text text-anchor="middle" x="1515.42" y="-340.3" font-family="Times,serif" font-size="14.00">destroy_signer</text>
</g>
<!-- make_account&#45;&gt;destroy_signer -->
<g id="edge42" class="edge">
<title>make_account&#45;&gt;destroy_signer</title>
<path fill="none" stroke="black" d="M1550.88,-408.82C1544.75,-397.79 1536.68,-383.27 1529.79,-370.86"/>
<polygon fill="black" stroke="black" points="1532.72,-368.92 1524.8,-361.88 1526.6,-372.32 1532.72,-368.92"/>
</g>
<!-- Signer::borrow_address -->
<g id="node31" class="node">
<title>Signer::borrow_address</title>
<ellipse fill="none" stroke="black" cx="1838.42" cy="-106" rx="66.89" ry="18"/>
<text text-anchor="middle" x="1838.42" y="-102.3" font-family="Times,serif" font-size="14.00">borrow_address</text>
</g>
<!-- Signer::address_of&#45;&gt;Signer::borrow_address -->
<g id="edge43" class="edge">
<title>Signer::address_of&#45;&gt;Signer::borrow_address</title>
<path fill="none" stroke="black" d="M1824.78,-160.05C1826.79,-152.26 1829.21,-142.82 1831.46,-134.08"/>
<polygon fill="black" stroke="black" points="1834.88,-134.83 1833.98,-124.28 1828.1,-133.09 1834.88,-134.83"/>
</g>
<!-- Errors::requires_address&#45;&gt;Errors::make -->
<g id="edge44" class="edge">
<title>Errors::requires_address&#45;&gt;Errors::make</title>
<path fill="none" stroke="black" d="M983.19,-163.04C995.36,-159.1 1008.85,-155.06 1021.42,-152 1100.91,-132.67 1195.7,-118.83 1248.26,-111.94"/>
<polygon fill="black" stroke="black" points="1249.04,-115.37 1258.51,-110.62 1248.14,-108.43 1249.04,-115.37"/>
</g>
<!-- Errors::invalid_state&#45;&gt;Errors::make -->
<g id="edge45" class="edge">
<title>Errors::invalid_state&#45;&gt;Errors::make</title>
<path fill="none" stroke="black" d="M1120.38,-163.57C1130.34,-159.73 1141.29,-155.61 1151.42,-152 1185.45,-139.88 1224.64,-127.13 1252.36,-118.3"/>
<polygon fill="black" stroke="black" points="1253.55,-121.6 1262.03,-115.24 1251.44,-114.93 1253.55,-121.6"/>
</g>
<!-- DiemTimestamp::is_genesis&#45;&gt;CoreAddresses::DIEM_ROOT_ADDRESS -->
<g id="edge46" class="edge">
<title>DiemTimestamp::is_genesis&#45;&gt;CoreAddresses::DIEM_ROOT_ADDRESS</title>
<path fill="none" stroke="black" d="M141.76,-247.87C176.74,-234.76 232.98,-213.66 274.03,-198.27"/>
<polygon fill="black" stroke="black" points="275.45,-201.48 283.59,-194.69 273,-194.92 275.45,-201.48"/>
</g>
<!-- Roles::grant_role&#45;&gt;Errors::already_published -->
<g id="edge48" class="edge">
<title>Roles::grant_role&#45;&gt;Errors::already_published</title>
<path fill="none" stroke="black" d="M1408.62,-245.14C1427.21,-232.7 1453.99,-214.77 1474.99,-200.72"/>
<polygon fill="black" stroke="black" points="1476.93,-203.62 1483.3,-195.15 1473.04,-197.81 1476.93,-203.62"/>
</g>
<!-- Roles::grant_role&#45;&gt;Signer::address_of -->
<g id="edge47" class="edge">
<title>Roles::grant_role&#45;&gt;Signer::address_of</title>
<path fill="none" stroke="black" d="M1427.63,-252.45C1460.91,-246.66 1509.02,-239.01 1551.42,-235 1574.45,-232.82 1737.72,-234.99 1759.42,-227 1773.73,-221.73 1787.31,-211.75 1798.01,-202.24"/>
<polygon fill="black" stroke="black" points="1800.68,-204.53 1805.59,-195.15 1795.9,-199.42 1800.68,-204.53"/>
</g>
<!-- Errors::not_published&#45;&gt;Errors::make -->
<g id="edge49" class="edge">
<title>Errors::not_published&#45;&gt;Errors::make</title>
<path fill="none" stroke="black" d="M1236.54,-160.41C1245.55,-151.13 1256.91,-139.44 1266.7,-129.36"/>
<polygon fill="black" stroke="black" points="1269.36,-131.65 1273.82,-122.04 1264.34,-126.77 1269.36,-131.65"/>
</g>
<!-- Vector::append -->
<g id="node32" class="node">
<title>Vector::append</title>
<ellipse fill="none" stroke="black" cx="2295.42" cy="-178" rx="36.29" ry="18"/>
<text text-anchor="middle" x="2295.42" y="-174.3" font-family="Times,serif" font-size="14.00">append</text>
</g>
<!-- Event::fresh_guid&#45;&gt;Vector::append -->
<g id="edge50" class="edge">
<title>Event::fresh_guid&#45;&gt;Vector::append</title>
<path fill="none" stroke="black" d="M2295.42,-242.82C2295.42,-232.19 2295.42,-218.31 2295.42,-206.2"/>
<polygon fill="black" stroke="black" points="2298.92,-206.15 2295.42,-196.15 2291.92,-206.15 2298.92,-206.15"/>
</g>
<!-- BCS::to_bytes -->
<g id="node33" class="node">
<title>BCS::to_bytes</title>
<ellipse fill="none" stroke="black" cx="2052.42" cy="-178" rx="40.09" ry="18"/>
<text text-anchor="middle" x="2052.42" y="-174.3" font-family="Times,serif" font-size="14.00">to_bytes</text>
</g>
<!-- Event::fresh_guid&#45;&gt;BCS::to_bytes -->
<g id="edge51" class="edge">
<title>Event::fresh_guid&#45;&gt;BCS::to_bytes</title>
<path fill="none" stroke="black" d="M2251.68,-253.08C2197.36,-244.4 2111.01,-230.25 2104.42,-227 2092.54,-221.14 2081.45,-211.7 2072.58,-202.74"/>
<polygon fill="black" stroke="black" points="2075.09,-200.3 2065.69,-195.41 2069.99,-205.1 2075.09,-200.3"/>
</g>
<!-- Roles::assert_diem_root&#45;&gt;CoreAddresses::assert_diem_root -->
<g id="edge55" class="edge">
<title>Roles::assert_diem_root&#45;&gt;CoreAddresses::assert_diem_root</title>
<path fill="none" stroke="black" d="M1205.87,-328.71C1192.88,-324.5 1178.19,-320.39 1164.42,-318 1078.09,-303.03 1054.14,-322.63 967.42,-310 920.53,-303.17 868.4,-289.46 830.79,-278.43"/>
<polygon fill="black" stroke="black" points="831.65,-275.03 821.07,-275.54 829.66,-281.74 831.65,-275.03"/>
</g>
<!-- Roles::assert_diem_root&#45;&gt;Signer::address_of -->
<g id="edge52" class="edge">
<title>Roles::assert_diem_root&#45;&gt;Signer::address_of</title>
<path fill="none" stroke="black" d="M1282.55,-328.66C1295.63,-324.39 1310.49,-320.26 1324.42,-318 1348.78,-314.06 1748.14,-324.04 1768.42,-310 1786.11,-297.76 1804.03,-240.54 1813.52,-205.9"/>
<polygon fill="black" stroke="black" points="1816.98,-206.52 1816.19,-195.95 1810.22,-204.71 1816.98,-206.52"/>
</g>
<!-- Roles::assert_diem_root&#45;&gt;Errors::not_published -->
<g id="edge53" class="edge">
<title>Roles::assert_diem_root&#45;&gt;Errors::not_published</title>
<path fill="none" stroke="black" d="M1241.9,-325.76C1237.73,-297.26 1229.37,-240.12 1224.4,-206.16"/>
<polygon fill="black" stroke="black" points="1227.82,-205.4 1222.91,-196.01 1220.9,-206.41 1227.82,-205.4"/>
</g>
<!-- Errors::requires_role -->
<g id="node34" class="node">
<title>Errors::requires_role</title>
<ellipse fill="none" stroke="black" cx="1356.42" cy="-178" rx="57.39" ry="18"/>
<text text-anchor="middle" x="1356.42" y="-174.3" font-family="Times,serif" font-size="14.00">requires_role</text>
</g>
<!-- Roles::assert_diem_root&#45;&gt;Errors::requires_role -->
<g id="edge54" class="edge">
<title>Roles::assert_diem_root&#45;&gt;Errors::requires_role</title>
<path fill="none" stroke="black" d="M1255.99,-326.07C1275.69,-297.22 1315.87,-238.38 1338.99,-204.53"/>
<polygon fill="black" stroke="black" points="1342.01,-206.32 1344.75,-196.09 1336.22,-202.37 1342.01,-206.32"/>
</g>
<!-- Errors::invalid_argument&#45;&gt;Errors::make -->
<g id="edge56" class="edge">
<title>Errors::invalid_argument&#45;&gt;Errors::make</title>
<path fill="none" stroke="black" d="M1632.51,-163.09C1619.45,-159.1 1604.94,-155.02 1591.42,-152 1498.35,-131.19 1386.98,-117.45 1328.63,-111.09"/>
<polygon fill="black" stroke="black" points="1328.68,-107.58 1318.36,-109.99 1327.93,-114.54 1328.68,-107.58"/>
</g>
<!-- Roles::get_role_id&#45;&gt;Errors::not_published -->
<g id="edge57" class="edge">
<title>Roles::get_role_id&#45;&gt;Errors::not_published</title>
<path fill="none" stroke="black" d="M1357.16,-328.67C1348.21,-323.37 1338.5,-316.95 1330.42,-310 1293.04,-277.84 1257.88,-232.3 1237.78,-204.25"/>
<polygon fill="black" stroke="black" points="1240.44,-201.94 1231.8,-195.8 1234.72,-205.99 1240.44,-201.94"/>
</g>
<!-- Event::write_to_event_store -->
<g id="node35" class="node">
<title>Event::write_to_event_store</title>
<ellipse fill="none" stroke="black" cx="2499.42" cy="-261" rx="85.29" ry="18"/>
<text text-anchor="middle" x="2499.42" y="-257.3" font-family="Times,serif" font-size="14.00">write_to_event_store</text>
</g>
<!-- Event::emit_event&#45;&gt;Event::write_to_event_store -->
<g id="edge58" class="edge">
<title>Event::emit_event&#45;&gt;Event::write_to_event_store</title>
<path fill="none" stroke="black" d="M2527,-325.82C2522.31,-314.98 2516.16,-300.74 2510.86,-288.47"/>
<polygon fill="black" stroke="black" points="2514.02,-286.94 2506.84,-279.15 2507.59,-289.72 2514.02,-286.94"/>
</g>
<!-- Vector::singleton -->
<g id="node36" class="node">
<title>Vector::singleton</title>
<ellipse fill="none" stroke="black" cx="2638.42" cy="-178" rx="42.79" ry="18"/>
<text text-anchor="middle" x="2638.42" y="-174.3" font-family="Times,serif" font-size="14.00">singleton</text>
</g>
<!-- Option::some&#45;&gt;Vector::singleton -->
<g id="edge59" class="edge">
<title>Option::some&#45;&gt;Vector::singleton</title>
<path fill="none" stroke="black" d="M2638.42,-325.76C2638.42,-297.26 2638.42,-240.12 2638.42,-206.16"/>
<polygon fill="black" stroke="black" points="2641.92,-206.01 2638.42,-196.01 2634.92,-206.01 2641.92,-206.01"/>
</g>
<!-- AccountFreezing::create&#45;&gt;Errors::already_published -->
<g id="edge61" class="edge">
<title>AccountFreezing::create&#45;&gt;Errors::already_published</title>
<path fill="none" stroke="black" d="M1605.94,-246.62C1587.87,-234.22 1560.66,-215.54 1539.41,-200.96"/>
<polygon fill="black" stroke="black" points="1541.23,-197.96 1531.01,-195.19 1537.27,-203.73 1541.23,-197.96"/>
</g>
<!-- AccountFreezing::create&#45;&gt;Signer::address_of -->
<g id="edge60" class="edge">
<title>AccountFreezing::create&#45;&gt;Signer::address_of</title>
<path fill="none" stroke="black" d="M1644.75,-246.64C1652.15,-242.18 1660.87,-237.67 1669.42,-235 1707.76,-223.03 1722.1,-241.81 1759.42,-227 1773.4,-221.46 1786.78,-211.63 1797.43,-202.3"/>
<polygon fill="black" stroke="black" points="1800,-204.69 1805,-195.35 1795.27,-199.53 1800,-204.69"/>
</g>
<!-- create_authentication_key&#45;&gt;Errors::invalid_argument -->
<g id="edge63" class="edge">
<title>create_authentication_key&#45;&gt;Errors::invalid_argument</title>
<path fill="none" stroke="black" d="M1927.07,-256.93C1875.86,-253.06 1813.19,-244.71 1759.42,-227 1740.72,-220.84 1721.48,-210.38 1706.05,-200.8"/>
<polygon fill="black" stroke="black" points="1707.75,-197.73 1697.44,-195.29 1703.98,-203.63 1707.75,-197.73"/>
</g>
<!-- create_authentication_key&#45;&gt;Signer::borrow_address -->
<g id="edge62" class="edge">
<title>create_authentication_key&#45;&gt;Signer::borrow_address</title>
<path fill="none" stroke="black" d="M1996.49,-243.69C1987.82,-238.69 1978.55,-232.94 1970.42,-227 1929.64,-197.18 1887.24,-156.64 1861.83,-131.15"/>
<polygon fill="black" stroke="black" points="1864.04,-128.4 1854.52,-123.75 1859.06,-133.32 1864.04,-128.4"/>
</g>
<!-- create_authentication_key&#45;&gt;Vector::append -->
<g id="edge64" class="edge">
<title>create_authentication_key&#45;&gt;Vector::append</title>
<path fill="none" stroke="black" d="M2076.58,-245.14C2127.93,-229.62 2207.52,-205.57 2255.25,-191.14"/>
<polygon fill="black" stroke="black" points="2256.37,-194.46 2264.93,-188.22 2254.34,-187.76 2256.37,-194.46"/>
</g>
<!-- create_authentication_key&#45;&gt;BCS::to_bytes -->
<g id="edge66" class="edge">
<title>create_authentication_key&#45;&gt;BCS::to_bytes</title>
<path fill="none" stroke="black" d="M2032.73,-242.82C2036.06,-232.01 2040.44,-217.84 2044.22,-205.59"/>
<polygon fill="black" stroke="black" points="2047.61,-206.46 2047.22,-195.88 2040.92,-204.4 2047.61,-206.46"/>
</g>
<!-- Vector::length -->
<g id="node37" class="node">
<title>Vector::length</title>
<ellipse fill="none" stroke="black" cx="2267.42" cy="-34" rx="32.49" ry="18"/>
<text text-anchor="middle" x="2267.42" y="-30.3" font-family="Times,serif" font-size="14.00">length</text>
</g>
<!-- create_authentication_key&#45;&gt;Vector::length -->
<g id="edge65" class="edge">
<title>create_authentication_key&#45;&gt;Vector::length</title>
<path fill="none" stroke="black" d="M2010.07,-243.26C2006.14,-238.42 2002.51,-232.86 2000.42,-227 1989.22,-195.61 1984.76,-181.42 2000.42,-152 2043.91,-70.33 2161.46,-45.64 2225.11,-38.19"/>
<polygon fill="black" stroke="black" points="2225.65,-41.66 2235.21,-37.11 2224.89,-34.7 2225.65,-41.66"/>
</g>
<!-- Vector::destroy_empty -->
<g id="node38" class="node">
<title>Vector::destroy_empty</title>
<ellipse fill="none" stroke="black" cx="2392.42" cy="-106" rx="63.89" ry="18"/>
<text text-anchor="middle" x="2392.42" y="-102.3" font-family="Times,serif" font-size="14.00">destroy_empty</text>
</g>
<!-- Vector::append&#45;&gt;Vector::destroy_empty -->
<g id="edge67" class="edge">
<title>Vector::append&#45;&gt;Vector::destroy_empty</title>
<path fill="none" stroke="black" d="M2315.05,-162.83C2328.51,-153.13 2346.62,-140.06 2361.93,-129"/>
<polygon fill="black" stroke="black" points="2364.05,-131.79 2370.11,-123.1 2359.95,-126.12 2364.05,-131.79"/>
</g>
<!-- Vector::is_empty -->
<g id="node39" class="node">
<title>Vector::is_empty</title>
<ellipse fill="none" stroke="black" cx="2267.42" cy="-106" rx="43.59" ry="18"/>
<text text-anchor="middle" x="2267.42" y="-102.3" font-family="Times,serif" font-size="14.00">is_empty</text>
</g>
<!-- Vector::append&#45;&gt;Vector::is_empty -->
<g id="edge68" class="edge">
<title>Vector::append&#45;&gt;Vector::is_empty</title>
<path fill="none" stroke="black" d="M2288.65,-160.05C2285.41,-151.97 2281.47,-142.12 2277.87,-133.11"/>
<polygon fill="black" stroke="black" points="2281.1,-131.77 2274.14,-123.79 2274.6,-134.37 2281.1,-131.77"/>
</g>
<!-- Vector::pop_back -->
<g id="node40" class="node">
<title>Vector::pop_back</title>
<ellipse fill="none" stroke="black" cx="2161.42" cy="-106" rx="44.69" ry="18"/>
<text text-anchor="middle" x="2161.42" y="-102.3" font-family="Times,serif" font-size="14.00">pop_back</text>
</g>
<!-- Vector::append&#45;&gt;Vector::pop_back -->
<g id="edge69" class="edge">
<title>Vector::append&#45;&gt;Vector::pop_back</title>
<path fill="none" stroke="black" d="M2271.16,-164.32C2250.38,-153.47 2220.2,-137.71 2196.75,-125.45"/>
<polygon fill="black" stroke="black" points="2198.29,-122.31 2187.8,-120.78 2195.05,-128.51 2198.29,-122.31"/>
</g>
<!-- Vector::push_back -->
<g id="node41" class="node">
<title>Vector::push_back</title>
<ellipse fill="none" stroke="black" cx="2612.42" cy="-106" rx="48.19" ry="18"/>
<text text-anchor="middle" x="2612.42" y="-102.3" font-family="Times,serif" font-size="14.00">push_back</text>
</g>
<!-- Vector::append&#45;&gt;Vector::push_back -->
<g id="edge70" class="edge">
<title>Vector::append&#45;&gt;Vector::push_back</title>
<path fill="none" stroke="black" d="M2329.3,-171.09C2379.13,-162.17 2474.99,-144.15 2555.42,-124 2559.2,-123.05 2563.11,-122.02 2567.02,-120.94"/>
<polygon fill="black" stroke="black" points="2568.02,-124.29 2576.68,-118.19 2566.1,-117.56 2568.02,-124.29"/>
</g>
<!-- Vector::reverse -->
<g id="node42" class="node">
<title>Vector::reverse</title>
<ellipse fill="none" stroke="black" cx="2510.42" cy="-106" rx="36.29" ry="18"/>
<text text-anchor="middle" x="2510.42" y="-102.3" font-family="Times,serif" font-size="14.00">reverse</text>
</g>
<!-- Vector::append&#45;&gt;Vector::reverse -->
<g id="edge71" class="edge">
<title>Vector::append&#45;&gt;Vector::reverse</title>
<path fill="none" stroke="black" d="M2326,-168.06C2360.17,-157.93 2417.05,-140.66 2465.42,-124 2467.84,-123.17 2470.33,-122.29 2472.82,-121.39"/>
<polygon fill="black" stroke="black" points="2474.25,-124.6 2482.43,-117.87 2471.84,-118.03 2474.25,-124.6"/>
</g>
<!-- Errors::requires_role&#45;&gt;Errors::make -->
<g id="edge72" class="edge">
<title>Errors::requires_role&#45;&gt;Errors::make</title>
<path fill="none" stroke="black" d="M1340.31,-160.41C1331.3,-151.13 1319.94,-139.44 1310.15,-129.36"/>
<polygon fill="black" stroke="black" points="1312.51,-126.77 1303.03,-122.04 1307.49,-131.65 1312.51,-126.77"/>
</g>
<!-- Vector::singleton&#45;&gt;Vector::push_back -->
<g id="edge74" class="edge">
<title>Vector::singleton&#45;&gt;Vector::push_back</title>
<path fill="none" stroke="black" d="M2632.13,-160.05C2629.2,-152.18 2625.65,-142.62 2622.38,-133.79"/>
<polygon fill="black" stroke="black" points="2625.6,-132.43 2618.84,-124.28 2619.04,-134.87 2625.6,-132.43"/>
</g>
<!-- Vector::empty -->
<g id="node43" class="node">
<title>Vector::empty</title>
<ellipse fill="none" stroke="black" cx="2711.42" cy="-106" rx="33.29" ry="18"/>
<text text-anchor="middle" x="2711.42" y="-102.3" font-family="Times,serif" font-size="14.00">empty</text>
</g>
<!-- Vector::singleton&#45;&gt;Vector::empty -->
<g id="edge73" class="edge">
<title>Vector::singleton&#45;&gt;Vector::empty</title>
<path fill="none" stroke="black" d="M2654.99,-161.12C2664.74,-151.77 2677.22,-139.79 2687.97,-129.49"/>
<polygon fill="black" stroke="black" points="2690.63,-131.79 2695.43,-122.34 2685.79,-126.74 2690.63,-131.79"/>
</g>
<!-- Vector::is_empty&#45;&gt;Vector::length -->
<g id="edge75" class="edge">
<title>Vector::is_empty&#45;&gt;Vector::length</title>
<path fill="none" stroke="black" d="M2267.42,-87.7C2267.42,-79.98 2267.42,-70.71 2267.42,-62.11"/>
<polygon fill="black" stroke="black" points="2270.92,-62.1 2267.42,-52.1 2263.92,-62.1 2270.92,-62.1"/>
</g>
<!-- Vector::reverse&#45;&gt;Vector::length -->
<g id="edge76" class="edge">
<title>Vector::reverse&#45;&gt;Vector::length</title>
<path fill="none" stroke="black" d="M2488.6,-91.24C2481.42,-87.17 2473.27,-83 2465.42,-80 2413.18,-60.02 2349.62,-47.52 2308.85,-40.9"/>
<polygon fill="black" stroke="black" points="2309.17,-37.41 2298.75,-39.31 2308.08,-44.32 2309.17,-37.41"/>
</g>
<!-- Vector::swap -->
<g id="node44" class="node">
<title>Vector::swap</title>
<ellipse fill="none" stroke="black" cx="2510.42" cy="-34" rx="28.7" ry="18"/>
<text text-anchor="middle" x="2510.42" y="-30.3" font-family="Times,serif" font-size="14.00">swap</text>
</g>
<!-- Vector::reverse&#45;&gt;Vector::swap -->
<g id="edge77" class="edge">
<title>Vector::reverse&#45;&gt;Vector::swap</title>
<path fill="none" stroke="black" d="M2510.42,-87.7C2510.42,-79.98 2510.42,-70.71 2510.42,-62.11"/>
<polygon fill="black" stroke="black" points="2513.92,-62.1 2510.42,-52.1 2506.92,-62.1 2513.92,-62.1"/>
</g>
</g>
</svg>
