<?xml version="1.0" encoding="UTF-8" standalone="no"?>
<!DOCTYPE svg PUBLIC "-//W3C//DTD SVG 1.1//EN"
 "http://www.w3.org/Graphics/SVG/1.1/DTD/svg11.dtd">
<!-- Generated by graphviz version 2.46.1 (20210213.1702)
 -->
<!-- Title: G Pages: 1 -->
<svg width="1341pt" height="437pt"
 viewBox="0.00 0.00 1341.00 437.00" xmlns="http://www.w3.org/2000/svg" xmlns:xlink="http://www.w3.org/1999/xlink">
<g id="graph0" class="graph" transform="scale(1 1) rotate(0) translate(4 433)">
<title>G</title>
<polygon fill="white" stroke="transparent" points="-4,4 -4,-433 1337,-433 1337,4 -4,4"/>
<g id="clust1" class="cluster">
<title>cluster_Signer</title>
<polygon fill="none" stroke="black" points="373,-8 373,-155 523,-155 523,-8 373,-8"/>
<text text-anchor="middle" x="448" y="-139.8" font-family="Times,serif" font-size="14.00">Signer</text>
</g>
<g id="clust2" class="cluster">
<title>cluster_Errors</title>
<polygon fill="none" stroke="black" points="855,-80 855,-238 1325,-238 1325,-80 855,-80"/>
<text text-anchor="middle" x="1090" y="-222.8" font-family="Times,serif" font-size="14.00">Errors</text>
</g>
<g id="clust3" class="cluster">
<title>cluster_Roles</title>
<polygon fill="none" stroke="black" points="8,-163 8,-385 639,-385 639,-163 8,-163"/>
<text text-anchor="middle" x="323.5" y="-369.8" font-family="Times,serif" font-size="14.00">Roles</text>
</g>
<g id="clust4" class="cluster">
<title>cluster_Diem</title>
<polygon fill="none" stroke="black" points="679,-163 679,-385 847,-385 847,-163 679,-163"/>
<text text-anchor="middle" x="763" y="-369.8" font-family="Times,serif" font-size="14.00">Diem</text>
</g>
<g id="clust5" class="cluster">
<title>cluster_CoreAddresses</title>
<polygon fill="none" stroke="black" points="575,-80 575,-155 847,-155 847,-80 575,-80"/>
<text text-anchor="middle" x="711" y="-139.8" font-family="Times,serif" font-size="14.00">CoreAddresses</text>
</g>
<!-- add_currency -->
<g id="node1" class="node">
<title>add_currency</title>
<ellipse fill="none" stroke="black" cx="759" cy="-411" rx="58.49" ry="18"/>
<text text-anchor="middle" x="759" y="-407.3" font-family="Times,serif" font-size="14.00">add_currency</text>
</g>
<!-- Signer::address_of -->
<g id="node2" class="node">
<title>Signer::address_of</title>
<ellipse fill="none" stroke="black" cx="448" cy="-106" rx="48.99" ry="18"/>
<text text-anchor="middle" x="448" y="-102.3" font-family="Times,serif" font-size="14.00">address_of</text>
</g>
<!-- add_currency&#45;&gt;Signer::address_of -->
<g id="edge1" class="edge">
<title>add_currency&#45;&gt;Signer::address_of</title>
<path fill="none" stroke="black" d="M705.33,-403.72C693.86,-399.96 682.86,-394.1 675,-385 609.84,-309.55 714.63,-232.33 643,-163 631.43,-151.8 586.63,-158.85 571,-155 541.66,-147.78 509.91,-135.26 486.03,-124.82"/>
<polygon fill="black" stroke="black" points="487.19,-121.51 476.63,-120.65 484.34,-127.91 487.19,-121.51"/>
</g>
<!-- Errors::already_published -->
<g id="node3" class="node">
<title>Errors::already_published</title>
<ellipse fill="none" stroke="black" cx="1077" cy="-189" rx="75.29" ry="18"/>
<text text-anchor="middle" x="1077" y="-185.3" font-family="Times,serif" font-size="14.00">already_published</text>
</g>
<!-- add_currency&#45;&gt;Errors::already_published -->
<g id="edge2" class="edge">
<title>add_currency&#45;&gt;Errors::already_published</title>
<path fill="none" stroke="black" d="M807.82,-401.04C822.23,-397.27 837.7,-392.07 851,-385 936.8,-339.39 1018.15,-255.99 1055.54,-214.62"/>
<polygon fill="black" stroke="black" points="1058.37,-216.71 1062.43,-206.93 1053.15,-212.04 1058.37,-216.71"/>
</g>
<!-- Errors::invalid_argument -->
<g id="node4" class="node">
<title>Errors::invalid_argument</title>
<ellipse fill="none" stroke="black" cx="1244" cy="-189" rx="73.39" ry="18"/>
<text text-anchor="middle" x="1244" y="-185.3" font-family="Times,serif" font-size="14.00">invalid_argument</text>
</g>
<!-- add_currency&#45;&gt;Errors::invalid_argument -->
<g id="edge3" class="edge">
<title>add_currency&#45;&gt;Errors::invalid_argument</title>
<path fill="none" stroke="black" d="M815.14,-405.93C844.89,-402.53 881.67,-396.32 913,-385 1033.28,-341.55 1159.07,-253.79 1214.64,-212.48"/>
<polygon fill="black" stroke="black" points="1217.04,-215.05 1222.94,-206.26 1212.84,-209.45 1217.04,-215.05"/>
</g>
<!-- Roles::can_hold_balance -->
<g id="node5" class="node">
<title>Roles::can_hold_balance</title>
<ellipse fill="none" stroke="black" cx="428" cy="-336" rx="74.19" ry="18"/>
<text text-anchor="middle" x="428" y="-332.3" font-family="Times,serif" font-size="14.00">can_hold_balance</text>
</g>
<!-- add_currency&#45;&gt;Roles::can_hold_balance -->
<g id="edge4" class="edge">
<title>add_currency&#45;&gt;Roles::can_hold_balance</title>
<path fill="none" stroke="black" d="M712.68,-399.86C691.97,-395.32 667.26,-389.9 645,-385 593.09,-373.57 534.2,-360.54 490.88,-350.94"/>
<polygon fill="black" stroke="black" points="491.58,-347.51 481.06,-348.76 490.06,-354.34 491.58,-347.51"/>
</g>
<!-- Diem::assert_is_currency -->
<g id="node6" class="node">
<title>Diem::assert_is_currency</title>
<ellipse fill="none" stroke="black" cx="763" cy="-264" rx="76.09" ry="18"/>
<text text-anchor="middle" x="763" y="-260.3" font-family="Times,serif" font-size="14.00">assert_is_currency</text>
</g>
<!-- add_currency&#45;&gt;Diem::assert_is_currency -->
<g id="edge5" class="edge">
<title>add_currency&#45;&gt;Diem::assert_is_currency</title>
<path fill="none" stroke="black" d="M752.78,-392.95C752.04,-390.32 751.41,-387.61 751,-385 746.41,-355.58 747.69,-347.59 751,-318 751.96,-309.43 753.76,-300.22 755.69,-291.93"/>
<polygon fill="black" stroke="black" points="759.13,-292.57 758.13,-282.02 752.34,-290.89 759.13,-292.57"/>
</g>
<!-- Diem::zero -->
<g id="node7" class="node">
<title>Diem::zero</title>
<ellipse fill="none" stroke="black" cx="787" cy="-336" rx="27" ry="18"/>
<text text-anchor="middle" x="787" y="-332.3" font-family="Times,serif" font-size="14.00">zero</text>
</g>
<!-- add_currency&#45;&gt;Diem::zero -->
<g id="edge6" class="edge">
<title>add_currency&#45;&gt;Diem::zero</title>
<path fill="none" stroke="black" d="M765.49,-393.07C768.91,-384.16 773.17,-373.04 777,-363.06"/>
<polygon fill="black" stroke="black" points="780.32,-364.18 780.64,-353.59 773.79,-361.67 780.32,-364.18"/>
</g>
<!-- Signer::borrow_address -->
<g id="node8" class="node">
<title>Signer::borrow_address</title>
<ellipse fill="none" stroke="black" cx="448" cy="-34" rx="66.89" ry="18"/>
<text text-anchor="middle" x="448" y="-30.3" font-family="Times,serif" font-size="14.00">borrow_address</text>
</g>
<!-- Signer::address_of&#45;&gt;Signer::borrow_address -->
<g id="edge7" class="edge">
<title>Signer::address_of&#45;&gt;Signer::borrow_address</title>
<path fill="none" stroke="black" d="M448,-87.7C448,-79.98 448,-70.71 448,-62.11"/>
<polygon fill="black" stroke="black" points="451.5,-62.1 448,-52.1 444.5,-62.1 451.5,-62.1"/>
</g>
<!-- Errors::make -->
<g id="node9" class="node">
<title>Errors::make</title>
<ellipse fill="none" stroke="black" cx="1077" cy="-106" rx="30.59" ry="18"/>
<text text-anchor="middle" x="1077" y="-102.3" font-family="Times,serif" font-size="14.00">make</text>
</g>
<!-- Errors::already_published&#45;&gt;Errors::make -->
<g id="edge8" class="edge">
<title>Errors::already_published&#45;&gt;Errors::make</title>
<path fill="none" stroke="black" d="M1077,-170.82C1077,-160.19 1077,-146.31 1077,-134.2"/>
<polygon fill="black" stroke="black" points="1080.5,-134.15 1077,-124.15 1073.5,-134.15 1080.5,-134.15"/>
</g>
<!-- Errors::invalid_argument&#45;&gt;Errors::make -->
<g id="edge9" class="edge">
<title>Errors::invalid_argument&#45;&gt;Errors::make</title>
<path fill="none" stroke="black" d="M1212.2,-172.57C1182.56,-158.2 1138.61,-136.88 1108.94,-122.49"/>
<polygon fill="black" stroke="black" points="1110.37,-119.29 1099.84,-118.08 1107.31,-125.59 1110.37,-119.29"/>
</g>
<!-- Roles::has_child_VASP_role -->
<g id="node10" class="node">
<title>Roles::has_child_VASP_role</title>
<ellipse fill="none" stroke="black" cx="104" cy="-264" rx="88.28" ry="18"/>
<text text-anchor="middle" x="104" y="-260.3" font-family="Times,serif" font-size="14.00">has_child_VASP_role</text>
</g>
<!-- Roles::can_hold_balance&#45;&gt;Roles::has_child_VASP_role -->
<g id="edge10" class="edge">
<title>Roles::can_hold_balance&#45;&gt;Roles::has_child_VASP_role</title>
<path fill="none" stroke="black" d="M374.5,-323.44C319.08,-311.47 232.31,-292.72 172.05,-279.7"/>
<polygon fill="black" stroke="black" points="172.75,-276.27 162.24,-277.58 171.27,-283.12 172.75,-276.27"/>
</g>
<!-- Roles::has_designated_dealer_role -->
<g id="node11" class="node">
<title>Roles::has_designated_dealer_role</title>
<ellipse fill="none" stroke="black" cx="319" cy="-264" rx="108.58" ry="18"/>
<text text-anchor="middle" x="319" y="-260.3" font-family="Times,serif" font-size="14.00">has_designated_dealer_role</text>
</g>
<!-- Roles::can_hold_balance&#45;&gt;Roles::has_designated_dealer_role -->
<g id="edge11" class="edge">
<title>Roles::can_hold_balance&#45;&gt;Roles::has_designated_dealer_role</title>
<path fill="none" stroke="black" d="M402.99,-318.94C388.36,-309.54 369.66,-297.53 353.62,-287.23"/>
<polygon fill="black" stroke="black" points="355.33,-284.17 345.03,-281.72 351.55,-290.06 355.33,-284.17"/>
</g>
<!-- Roles::has_parent_VASP_role -->
<g id="node12" class="node">
<title>Roles::has_parent_VASP_role</title>
<ellipse fill="none" stroke="black" cx="538" cy="-264" rx="92.88" ry="18"/>
<text text-anchor="middle" x="538" y="-260.3" font-family="Times,serif" font-size="14.00">has_parent_VASP_role</text>
</g>
<!-- Roles::can_hold_balance&#45;&gt;Roles::has_parent_VASP_role -->
<g id="edge12" class="edge">
<title>Roles::can_hold_balance&#45;&gt;Roles::has_parent_VASP_role</title>
<path fill="none" stroke="black" d="M453.24,-318.94C468.11,-309.47 487.15,-297.36 503.41,-287.01"/>
<polygon fill="black" stroke="black" points="505.56,-289.79 512.12,-281.47 501.8,-283.89 505.56,-289.79"/>
</g>
<!-- Errors::not_published -->
<g id="node13" class="node">
<title>Errors::not_published</title>
<ellipse fill="none" stroke="black" cx="923" cy="-189" rx="60.39" ry="18"/>
<text text-anchor="middle" x="923" y="-185.3" font-family="Times,serif" font-size="14.00">not_published</text>
</g>
<!-- Diem::assert_is_currency&#45;&gt;Errors::not_published -->
<g id="edge13" class="edge">
<title>Diem::assert_is_currency&#45;&gt;Errors::not_published</title>
<path fill="none" stroke="black" d="M815.62,-250.94C827.51,-247.43 839.9,-243.12 851,-238 866.07,-231.04 881.55,-221.15 894.27,-212.15"/>
<polygon fill="black" stroke="black" points="896.56,-214.81 902.6,-206.11 892.45,-209.15 896.56,-214.81"/>
</g>
<!-- Diem::is_currency -->
<g id="node14" class="node">
<title>Diem::is_currency</title>
<ellipse fill="none" stroke="black" cx="751" cy="-189" rx="51.99" ry="18"/>
<text text-anchor="middle" x="751" y="-185.3" font-family="Times,serif" font-size="14.00">is_currency</text>
</g>
<!-- Diem::assert_is_currency&#45;&gt;Diem::is_currency -->
<g id="edge14" class="edge">
<title>Diem::assert_is_currency&#45;&gt;Diem::is_currency</title>
<path fill="none" stroke="black" d="M760.16,-245.7C758.75,-237.15 757.02,-226.65 755.45,-217.07"/>
<polygon fill="black" stroke="black" points="758.9,-216.48 753.82,-207.18 751.99,-217.61 758.9,-216.48"/>
</g>
<!-- Diem::zero&#45;&gt;Diem::assert_is_currency -->
<g id="edge15" class="edge">
<title>Diem::zero&#45;&gt;Diem::assert_is_currency</title>
<path fill="none" stroke="black" d="M781.19,-318.05C778.49,-310.18 775.21,-300.62 772.19,-291.79"/>
<polygon fill="black" stroke="black" points="775.48,-290.6 768.92,-282.28 768.86,-292.87 775.48,-290.6"/>
</g>
<!-- Roles::has_role -->
<g id="node15" class="node">
<title>Roles::has_role</title>
<ellipse fill="none" stroke="black" cx="362" cy="-189" rx="40.09" ry="18"/>
<text text-anchor="middle" x="362" y="-185.3" font-family="Times,serif" font-size="14.00">has_role</text>
</g>
<!-- Roles::has_child_VASP_role&#45;&gt;Roles::has_role -->
<g id="edge16" class="edge">
<title>Roles::has_child_VASP_role&#45;&gt;Roles::has_role</title>
<path fill="none" stroke="black" d="M153.44,-249.01C201.32,-235.46 273.2,-215.13 318.83,-202.21"/>
<polygon fill="black" stroke="black" points="320.05,-205.51 328.72,-199.42 318.14,-198.77 320.05,-205.51"/>
</g>
<!-- Roles::has_designated_dealer_role&#45;&gt;Roles::has_role -->
<g id="edge17" class="edge">
<title>Roles::has_designated_dealer_role&#45;&gt;Roles::has_role</title>
<path fill="none" stroke="black" d="M328.97,-246.07C334.33,-236.98 341.04,-225.58 347.01,-215.44"/>
<polygon fill="black" stroke="black" points="350.17,-216.98 352.23,-206.59 344.14,-213.43 350.17,-216.98"/>
</g>
<!-- Roles::has_parent_VASP_role&#45;&gt;Roles::has_role -->
<g id="edge18" class="edge">
<title>Roles::has_parent_VASP_role&#45;&gt;Roles::has_role</title>
<path fill="none" stroke="black" d="M500.24,-247.34C470.66,-235.07 429.68,-218.07 400.03,-205.77"/>
<polygon fill="black" stroke="black" points="401.02,-202.39 390.44,-201.8 398.34,-208.86 401.02,-202.39"/>
</g>
<!-- Errors::not_published&#45;&gt;Errors::make -->
<g id="edge19" class="edge">
<title>Errors::not_published&#45;&gt;Errors::make</title>
<path fill="none" stroke="black" d="M951.61,-172.95C978.37,-158.88 1018.26,-137.9 1045.83,-123.4"/>
<polygon fill="black" stroke="black" points="1047.8,-126.31 1055.02,-118.56 1044.54,-120.12 1047.8,-126.31"/>
</g>
<!-- CoreAddresses::CURRENCY_INFO_ADDRESS -->
<g id="node16" class="node">
<title>CoreAddresses::CURRENCY_INFO_ADDRESS</title>
<ellipse fill="none" stroke="black" cx="711" cy="-106" rx="128.08" ry="18"/>
<text text-anchor="middle" x="711" y="-102.3" font-family="Times,serif" font-size="14.00">CURRENCY_INFO_ADDRESS</text>
</g>
<!-- Diem::is_currency&#45;&gt;CoreAddresses::CURRENCY_INFO_ADDRESS -->
<g id="edge20" class="edge">
<title>Diem::is_currency&#45;&gt;CoreAddresses::CURRENCY_INFO_ADDRESS</title>
<path fill="none" stroke="black" d="M742.71,-171.22C737.28,-160.21 730.06,-145.6 723.89,-133.1"/>
<polygon fill="black" stroke="black" points="726.98,-131.46 719.42,-124.04 720.7,-134.56 726.98,-131.46"/>
</g>
<!-- Roles::has_role&#45;&gt;Signer::address_of -->
<g id="edge21" class="edge">
<title>Roles::has_role&#45;&gt;Signer::address_of</title>
<path fill="none" stroke="black" d="M378.58,-172.38C391.27,-160.44 408.96,-143.77 423.31,-130.26"/>
<polygon fill="black" stroke="black" points="426,-132.53 430.88,-123.12 421.2,-127.43 426,-132.53"/>
</g>
</g>
</svg>
