<?xml version="1.0" encoding="UTF-8" standalone="no"?>
<!DOCTYPE svg PUBLIC "-//W3C//DTD SVG 1.1//EN"
 "http://www.w3.org/Graphics/SVG/1.1/DTD/svg11.dtd">
<!-- Generated by graphviz version 2.46.1 (20210213.1702)
 -->
<!-- Title: G Pages: 1 -->
<svg width="390pt" height="210pt"
 viewBox="0.00 0.00 390.00 210.00" xmlns="http://www.w3.org/2000/svg" xmlns:xlink="http://www.w3.org/1999/xlink">
<g id="graph0" class="graph" transform="scale(1 1) rotate(0) translate(4 206)">
<title>G</title>
<polygon fill="white" stroke="transparent" points="-4,4 -4,-206 386,-206 386,4 -4,4"/>
<g id="clust1" class="cluster">
<title>cluster_Errors</title>
<polygon fill="none" stroke="black" points="8,-8 8,-158 136,-158 136,-8 8,-8"/>
<text text-anchor="middle" x="72" y="-142.8" font-family="Times,serif" font-size="14.00">Errors</text>
</g>
<g id="clust2" class="cluster">
<title>cluster_CoreAddresses</title>
<polygon fill="none" stroke="black" points="144,-8 144,-83 374,-83 374,-8 144,-8"/>
<text text-anchor="middle" x="259" y="-67.8" font-family="Times,serif" font-size="14.00">CoreAddresses</text>
</g>
<!-- assert_genesis -->
<g id="node1" class="node">
<title>assert_genesis</title>
<ellipse fill="none" stroke="black" cx="149" cy="-184" rx="61.19" ry="18"/>
<text text-anchor="middle" x="149" y="-180.3" font-family="Times,serif" font-size="14.00">assert_genesis</text>
</g>
<!-- Errors::invalid_state -->
<g id="node2" class="node">
<title>Errors::invalid_state</title>
<ellipse fill="none" stroke="black" cx="72" cy="-109" rx="55.79" ry="18"/>
<text text-anchor="middle" x="72" y="-105.3" font-family="Times,serif" font-size="14.00">invalid_state</text>
</g>
<!-- assert_genesis&#45;&gt;Errors::invalid_state -->
<g id="edge1" class="edge">
<title>assert_genesis&#45;&gt;Errors::invalid_state</title>
<path fill="none" stroke="black" d="M131.53,-166.44C121.22,-156.66 108,-144.13 96.65,-133.37"/>
<polygon fill="black" stroke="black" points="98.8,-130.59 89.14,-126.25 93.99,-135.67 98.8,-130.59"/>
</g>
<!-- is_genesis -->
<g id="node3" class="node">
<title>is_genesis</title>
<ellipse fill="none" stroke="black" cx="226" cy="-109" rx="46.59" ry="18"/>
<text text-anchor="middle" x="226" y="-105.3" font-family="Times,serif" font-size="14.00">is_genesis</text>
</g>
<!-- assert_genesis&#45;&gt;is_genesis -->
<g id="edge2" class="edge">
<title>assert_genesis&#45;&gt;is_genesis</title>
<path fill="none" stroke="black" d="M166.47,-166.44C176.86,-156.59 190.18,-143.96 201.59,-133.14"/>
<polygon fill="black" stroke="black" points="204.28,-135.42 209.13,-126 199.46,-130.34 204.28,-135.42"/>
</g>
<!-- Errors::make -->
<g id="node4" class="node">
<title>Errors::make</title>
<ellipse fill="none" stroke="black" cx="72" cy="-34" rx="30.59" ry="18"/>
<text text-anchor="middle" x="72" y="-30.3" font-family="Times,serif" font-size="14.00">make</text>
</g>
<!-- Errors::invalid_state&#45;&gt;Errors::make -->
<g id="edge3" class="edge">
<title>Errors::invalid_state&#45;&gt;Errors::make</title>
<path fill="none" stroke="black" d="M72,-90.7C72,-82.25 72,-71.87 72,-62.37"/>
<polygon fill="black" stroke="black" points="75.5,-62.18 72,-52.18 68.5,-62.18 75.5,-62.18"/>
</g>
<!-- CoreAddresses::DIEM_ROOT_ADDRESS -->
<g id="node5" class="node">
<title>CoreAddresses::DIEM_ROOT_ADDRESS</title>
<ellipse fill="none" stroke="black" cx="259" cy="-34" rx="106.68" ry="18"/>
<text text-anchor="middle" x="259" y="-30.3" font-family="Times,serif" font-size="14.00">DIEM_ROOT_ADDRESS</text>
</g>
<!-- is_genesis&#45;&gt;CoreAddresses::DIEM_ROOT_ADDRESS -->
<g id="edge4" class="edge">
<title>is_genesis&#45;&gt;CoreAddresses::DIEM_ROOT_ADDRESS</title>
<path fill="none" stroke="black" d="M233.65,-91.07C237.62,-82.29 242.56,-71.36 247.02,-61.49"/>
<polygon fill="black" stroke="black" points="250.34,-62.65 251.27,-52.09 243.96,-59.76 250.34,-62.65"/>
</g>
</g>
</svg>
