<?xml version="1.0" encoding="UTF-8" standalone="no"?>
<!DOCTYPE svg PUBLIC "-//W3C//DTD SVG 1.1//EN"
 "http://www.w3.org/Graphics/SVG/1.1/DTD/svg11.dtd">
<!-- Generated by graphviz version 2.46.1 (20210213.1702)
 -->
<!-- Title: G Pages: 1 -->
<svg width="246pt" height="207pt"
 viewBox="0.00 0.00 245.60 207.00" xmlns="http://www.w3.org/2000/svg" xmlns:xlink="http://www.w3.org/1999/xlink">
<g id="graph0" class="graph" transform="scale(1 1) rotate(0) translate(4 203)">
<title>G</title>
<polygon fill="white" stroke="transparent" points="-4,4 -4,-203 241.6,-203 241.6,4 -4,4"/>
<g id="clust1" class="cluster">
<title>cluster_Errors</title>
<polygon fill="none" stroke="black" points="8,-8 8,-155 144,-155 144,-8 8,-8"/>
<text text-anchor="middle" x="76" y="-139.8" font-family="Times,serif" font-size="14.00">Errors</text>
</g>
<!-- authentication_key -->
<g id="node1" class="node">
<title>authentication_key</title>
<ellipse fill="none" stroke="black" cx="136" cy="-181" rx="77.19" ry="18"/>
<text text-anchor="middle" x="136" y="-177.3" font-family="Times,serif" font-size="14.00">authentication_key</text>
</g>
<!-- Errors::not_published -->
<g id="node2" class="node">
<title>Errors::not_published</title>
<ellipse fill="none" stroke="black" cx="76" cy="-106" rx="60.39" ry="18"/>
<text text-anchor="middle" x="76" y="-102.3" font-family="Times,serif" font-size="14.00">not_published</text>
</g>
<!-- authentication_key&#45;&gt;Errors::not_published -->
<g id="edge1" class="edge">
<title>authentication_key&#45;&gt;Errors::not_published</title>
<path fill="none" stroke="black" d="M122.08,-163.07C114.38,-153.7 104.67,-141.88 96.15,-131.52"/>
<polygon fill="black" stroke="black" points="98.69,-129.09 89.63,-123.59 93.28,-133.54 98.69,-129.09"/>
</g>
<!-- exists_at -->
<g id="node3" class="node">
<title>exists_at</title>
<ellipse fill="none" stroke="black" cx="196" cy="-106" rx="41.69" ry="18"/>
<text text-anchor="middle" x="196" y="-102.3" font-family="Times,serif" font-size="14.00">exists_at</text>
</g>
<!-- authentication_key&#45;&gt;exists_at -->
<g id="edge2" class="edge">
<title>authentication_key&#45;&gt;exists_at</title>
<path fill="none" stroke="black" d="M149.92,-163.07C157.73,-153.56 167.61,-141.54 176.21,-131.07"/>
<polygon fill="black" stroke="black" points="179.13,-133.04 182.78,-123.09 173.72,-128.59 179.13,-133.04"/>
</g>
<!-- Errors::make -->
<g id="node4" class="node">
<title>Errors::make</title>
<ellipse fill="none" stroke="black" cx="76" cy="-34" rx="30.59" ry="18"/>
<text text-anchor="middle" x="76" y="-30.3" font-family="Times,serif" font-size="14.00">make</text>
</g>
<!-- Errors::not_published&#45;&gt;Errors::make -->
<g id="edge3" class="edge">
<title>Errors::not_published&#45;&gt;Errors::make</title>
<path fill="none" stroke="black" d="M76,-87.7C76,-79.98 76,-70.71 76,-62.11"/>
<polygon fill="black" stroke="black" points="79.5,-62.1 76,-52.1 72.5,-62.1 79.5,-62.1"/>
</g>
</g>
</svg>
