<?xml version="1.0" encoding="UTF-8" standalone="no"?>
<!DOCTYPE svg PUBLIC "-//W3C//DTD SVG 1.1//EN"
 "http://www.w3.org/Graphics/SVG/1.1/DTD/svg11.dtd">
<!-- Generated by graphviz version 2.46.1 (20210213.1702)
 -->
<!-- Title: G Pages: 1 -->
<svg width="170pt" height="207pt"
 viewBox="0.00 0.00 170.00 207.00" xmlns="http://www.w3.org/2000/svg" xmlns:xlink="http://www.w3.org/1999/xlink">
<g id="graph0" class="graph" transform="scale(1 1) rotate(0) translate(4 203)">
<title>G</title>
<polygon fill="white" stroke="transparent" points="-4,4 -4,-203 166,-203 166,4 -4,4"/>
<g id="clust1" class="cluster">
<title>cluster_Errors</title>
<polygon fill="none" stroke="black" points="8,-8 8,-155 154,-155 154,-8 8,-8"/>
<text text-anchor="middle" x="81" y="-139.8" font-family="Times,serif" font-size="14.00">Errors</text>
</g>
<!-- withdraw -->
<g id="node1" class="node">
<title>withdraw</title>
<ellipse fill="none" stroke="black" cx="81" cy="-181" rx="44.39" ry="18"/>
<text text-anchor="middle" x="81" y="-177.3" font-family="Times,serif" font-size="14.00">withdraw</text>
</g>
<!-- Errors::limit_exceeded -->
<g id="node2" class="node">
<title>Errors::limit_exceeded</title>
<ellipse fill="none" stroke="black" cx="81" cy="-106" rx="64.99" ry="18"/>
<text text-anchor="middle" x="81" y="-102.3" font-family="Times,serif" font-size="14.00">limit_exceeded</text>
</g>
<!-- withdraw&#45;&gt;Errors::limit_exceeded -->
<g id="edge1" class="edge">
<title>withdraw&#45;&gt;Errors::limit_exceeded</title>
<path fill="none" stroke="black" d="M81,-162.7C81,-154.25 81,-143.87 81,-134.37"/>
<polygon fill="black" stroke="black" points="84.5,-134.18 81,-124.18 77.5,-134.18 84.5,-134.18"/>
</g>
<!-- Errors::make -->
<g id="node3" class="node">
<title>Errors::make</title>
<ellipse fill="none" stroke="black" cx="81" cy="-34" rx="30.59" ry="18"/>
<text text-anchor="middle" x="81" y="-30.3" font-family="Times,serif" font-size="14.00">make</text>
</g>
<!-- Errors::limit_exceeded&#45;&gt;Errors::make -->
<g id="edge2" class="edge">
<title>Errors::limit_exceeded&#45;&gt;Errors::make</title>
<path fill="none" stroke="black" d="M81,-87.7C81,-79.98 81,-70.71 81,-62.11"/>
<polygon fill="black" stroke="black" points="84.5,-62.1 81,-52.1 77.5,-62.1 84.5,-62.1"/>
</g>
</g>
</svg>
