<?xml version="1.0" encoding="UTF-8" standalone="no"?>
<!DOCTYPE svg PUBLIC "-//W3C//DTD SVG 1.1//EN"
 "http://www.w3.org/Graphics/SVG/1.1/DTD/svg11.dtd">
<!-- Generated by graphviz version 2.46.1 (20210213.1702)
 -->
<!-- Title: G Pages: 1 -->
<svg width="669pt" height="448pt"
 viewBox="0.00 0.00 668.91 448.00" xmlns="http://www.w3.org/2000/svg" xmlns:xlink="http://www.w3.org/1999/xlink">
<g id="graph0" class="graph" transform="scale(1 1) rotate(0) translate(4 444)">
<title>G</title>
<polygon fill="white" stroke="transparent" points="-4,4 -4,-444 664.91,-444 664.91,4 -4,4"/>
<g id="clust1" class="cluster">
<title>cluster_Vector</title>
<polygon fill="none" stroke="black" points="317,-8 317,-155 638,-155 638,-8 317,-8"/>
<text text-anchor="middle" x="477.5" y="-139.8" font-family="Times,serif" font-size="14.00">Vector</text>
</g>
<g id="clust2" class="cluster">
<title>cluster_ValidatorConfig</title>
<polygon fill="none" stroke="black" points="173,-246 173,-396 379,-396 379,-246 173,-246"/>
<text text-anchor="middle" x="276" y="-380.8" font-family="Times,serif" font-size="14.00">ValidatorConfig</text>
</g>
<g id="clust3" class="cluster">
<title>cluster_Errors</title>
<polygon fill="none" stroke="black" points="8,-80 8,-238 309,-238 309,-80 8,-80"/>
<text text-anchor="middle" x="158.5" y="-222.8" font-family="Times,serif" font-size="14.00">Errors</text>
</g>
<g id="clust4" class="cluster">
<title>cluster_Option</title>
<polygon fill="none" stroke="black" points="387,-163 387,-321 483,-321 483,-163 387,-163"/>
<text text-anchor="middle" x="435" y="-305.8" font-family="Times,serif" font-size="14.00">Option</text>
</g>
<!-- update_ith_validator_info_ -->
<g id="node1" class="node">
<title>update_ith_validator_info_</title>
<ellipse fill="none" stroke="black" cx="453" cy="-422" rx="106.68" ry="18"/>
<text text-anchor="middle" x="453" y="-418.3" font-family="Times,serif" font-size="14.00">update_ith_validator_info_</text>
</g>
<!-- Vector::borrow_mut -->
<g id="node2" class="node">
<title>Vector::borrow_mut</title>
<ellipse fill="none" stroke="black" cx="575" cy="-106" rx="54.69" ry="18"/>
<text text-anchor="middle" x="575" y="-102.3" font-family="Times,serif" font-size="14.00">borrow_mut</text>
</g>
<!-- update_ith_validator_info_&#45;&gt;Vector::borrow_mut -->
<g id="edge1" class="edge">
<title>update_ith_validator_info_&#45;&gt;Vector::borrow_mut</title>
<path fill="none" stroke="black" d="M469.61,-404.13C487.08,-385.4 514.07,-353.49 529,-321 557.98,-257.95 569.02,-175.96 572.97,-134.14"/>
<polygon fill="black" stroke="black" points="576.46,-134.43 573.85,-124.17 569.48,-133.82 576.46,-134.43"/>
</g>
<!-- Vector::length -->
<g id="node3" class="node">
<title>Vector::length</title>
<ellipse fill="none" stroke="black" cx="528" cy="-34" rx="32.49" ry="18"/>
<text text-anchor="middle" x="528" y="-30.3" font-family="Times,serif" font-size="14.00">length</text>
</g>
<!-- update_ith_validator_info_&#45;&gt;Vector::length -->
<g id="edge2" class="edge">
<title>update_ith_validator_info_&#45;&gt;Vector::length</title>
<path fill="none" stroke="black" d="M509.29,-406.61C569.98,-387.32 658,-346.64 658,-273 658,-273 658,-273 658,-188 658,-139.26 669.64,-117.9 639,-80 621.84,-58.78 593.1,-47.49 569.16,-41.52"/>
<polygon fill="black" stroke="black" points="569.77,-38.07 559.25,-39.28 568.23,-44.9 569.77,-38.07"/>
</g>
<!-- ValidatorConfig::get_config -->
<g id="node4" class="node">
<title>ValidatorConfig::get_config</title>
<ellipse fill="none" stroke="black" cx="229" cy="-347" rx="48.19" ry="18"/>
<text text-anchor="middle" x="229" y="-343.3" font-family="Times,serif" font-size="14.00">get_config</text>
</g>
<!-- update_ith_validator_info_&#45;&gt;ValidatorConfig::get_config -->
<g id="edge3" class="edge">
<title>update_ith_validator_info_&#45;&gt;ValidatorConfig::get_config</title>
<path fill="none" stroke="black" d="M353.73,-415.27C330.79,-411.49 306.97,-405.47 286,-396 273.16,-390.2 260.93,-380.65 251.12,-371.59"/>
<polygon fill="black" stroke="black" points="253.42,-368.95 243.8,-364.51 248.55,-373.98 253.42,-368.95"/>
</g>
<!-- ValidatorConfig::is_valid -->
<g id="node5" class="node">
<title>ValidatorConfig::is_valid</title>
<ellipse fill="none" stroke="black" cx="333" cy="-347" rx="38.19" ry="18"/>
<text text-anchor="middle" x="333" y="-343.3" font-family="Times,serif" font-size="14.00">is_valid</text>
</g>
<!-- update_ith_validator_info_&#45;&gt;ValidatorConfig::is_valid -->
<g id="edge4" class="edge">
<title>update_ith_validator_info_&#45;&gt;ValidatorConfig::is_valid</title>
<path fill="none" stroke="black" d="M425.77,-404.44C407.5,-393.32 383.39,-378.65 364.33,-367.06"/>
<polygon fill="black" stroke="black" points="366.05,-364.01 355.69,-361.8 362.42,-369.99 366.05,-364.01"/>
</g>
<!-- Errors::invalid_argument -->
<g id="node6" class="node">
<title>Errors::invalid_argument</title>
<ellipse fill="none" stroke="black" cx="228" cy="-189" rx="73.39" ry="18"/>
<text text-anchor="middle" x="228" y="-185.3" font-family="Times,serif" font-size="14.00">invalid_argument</text>
</g>
<!-- ValidatorConfig::get_config&#45;&gt;Errors::invalid_argument -->
<g id="edge5" class="edge">
<title>ValidatorConfig::get_config&#45;&gt;Errors::invalid_argument</title>
<path fill="none" stroke="black" d="M228.89,-328.71C228.72,-301.77 228.38,-249.54 228.18,-217.42"/>
<polygon fill="black" stroke="black" points="231.68,-217.35 228.11,-207.37 224.68,-217.39 231.68,-217.35"/>
</g>
<!-- Errors::not_published -->
<g id="node7" class="node">
<title>Errors::not_published</title>
<ellipse fill="none" stroke="black" cx="76" cy="-189" rx="60.39" ry="18"/>
<text text-anchor="middle" x="76" y="-185.3" font-family="Times,serif" font-size="14.00">not_published</text>
</g>
<!-- ValidatorConfig::get_config&#45;&gt;Errors::not_published -->
<g id="edge6" class="edge">
<title>ValidatorConfig::get_config&#45;&gt;Errors::not_published</title>
<path fill="none" stroke="black" d="M213.2,-329.89C186.2,-302.36 131.04,-246.12 99.51,-213.97"/>
<polygon fill="black" stroke="black" points="101.9,-211.41 92.4,-206.72 96.91,-216.31 101.9,-211.41"/>
</g>
<!-- Option::borrow -->
<g id="node8" class="node">
<title>Option::borrow</title>
<ellipse fill="none" stroke="black" cx="431" cy="-272" rx="36.29" ry="18"/>
<text text-anchor="middle" x="431" y="-268.3" font-family="Times,serif" font-size="14.00">borrow</text>
</g>
<!-- ValidatorConfig::get_config&#45;&gt;Option::borrow -->
<g id="edge7" class="edge">
<title>ValidatorConfig::get_config&#45;&gt;Option::borrow</title>
<path fill="none" stroke="black" d="M263.69,-334.41C270.99,-332.32 278.69,-330.38 286,-329 307.26,-325 363.38,-330.09 383,-321 394.58,-315.64 404.95,-306.22 413.06,-297.14"/>
<polygon fill="black" stroke="black" points="415.84,-299.27 419.59,-289.36 410.48,-294.78 415.84,-299.27"/>
</g>
<!-- Option::is_some -->
<g id="node9" class="node">
<title>Option::is_some</title>
<ellipse fill="none" stroke="black" cx="435" cy="-189" rx="40.09" ry="18"/>
<text text-anchor="middle" x="435" y="-185.3" font-family="Times,serif" font-size="14.00">is_some</text>
</g>
<!-- ValidatorConfig::get_config&#45;&gt;Option::is_some -->
<g id="edge8" class="edge">
<title>ValidatorConfig::get_config&#45;&gt;Option::is_some</title>
<path fill="none" stroke="black" d="M263.34,-334.27C270.74,-332.16 278.57,-330.25 286,-329 296.42,-327.25 468.69,-328.63 476,-321 499.07,-296.94 486.36,-277.68 476,-246 472.18,-234.31 464.88,-223.03 457.49,-213.71"/>
<polygon fill="black" stroke="black" points="460.17,-211.45 451.06,-206.05 454.81,-215.96 460.17,-211.45"/>
</g>
<!-- ValidatorConfig::exists_config -->
<g id="node10" class="node">
<title>ValidatorConfig::exists_config</title>
<ellipse fill="none" stroke="black" cx="313" cy="-272" rx="57.39" ry="18"/>
<text text-anchor="middle" x="313" y="-268.3" font-family="Times,serif" font-size="14.00">exists_config</text>
</g>
<!-- ValidatorConfig::get_config&#45;&gt;ValidatorConfig::exists_config -->
<g id="edge9" class="edge">
<title>ValidatorConfig::get_config&#45;&gt;ValidatorConfig::exists_config</title>
<path fill="none" stroke="black" d="M247.23,-330.16C258.81,-320.09 274,-306.89 286.86,-295.71"/>
<polygon fill="black" stroke="black" points="289.27,-298.26 294.52,-289.06 284.67,-292.98 289.27,-298.26"/>
</g>
<!-- ValidatorConfig::is_valid&#45;&gt;Option::is_some -->
<g id="edge10" class="edge">
<title>ValidatorConfig::is_valid&#45;&gt;Option::is_some</title>
<path fill="none" stroke="black" d="M371.39,-346.17C417.71,-345.46 491.55,-341.1 509,-321 530.85,-295.83 523.84,-275.85 509,-246 500.92,-229.75 485.63,-216.96 471.03,-207.73"/>
<polygon fill="black" stroke="black" points="472.49,-204.53 462.1,-202.45 468.93,-210.55 472.49,-204.53"/>
</g>
<!-- Errors::make -->
<g id="node11" class="node">
<title>Errors::make</title>
<ellipse fill="none" stroke="black" cx="152" cy="-106" rx="30.59" ry="18"/>
<text text-anchor="middle" x="152" y="-102.3" font-family="Times,serif" font-size="14.00">make</text>
</g>
<!-- Errors::invalid_argument&#45;&gt;Errors::make -->
<g id="edge11" class="edge">
<title>Errors::invalid_argument&#45;&gt;Errors::make</title>
<path fill="none" stroke="black" d="M212.25,-171.22C200.91,-159.13 185.49,-142.69 173.09,-129.48"/>
<polygon fill="black" stroke="black" points="175.58,-127.02 166.19,-122.12 170.48,-131.81 175.58,-127.02"/>
</g>
<!-- Errors::not_published&#45;&gt;Errors::make -->
<g id="edge12" class="edge">
<title>Errors::not_published&#45;&gt;Errors::make</title>
<path fill="none" stroke="black" d="M91.75,-171.22C103.09,-159.13 118.51,-142.69 130.91,-129.48"/>
<polygon fill="black" stroke="black" points="133.52,-131.81 137.81,-122.12 128.42,-127.02 133.52,-131.81"/>
</g>
<!-- Option::borrow&#45;&gt;Errors::invalid_argument -->
<g id="edge13" class="edge">
<title>Option::borrow&#45;&gt;Errors::invalid_argument</title>
<path fill="none" stroke="black" d="M408.08,-257.62C400.31,-253.48 391.44,-249.17 383,-246 368.87,-240.7 364.39,-242.55 350,-238 323.61,-229.65 294.75,-218.4 271.74,-208.89"/>
<polygon fill="black" stroke="black" points="272.83,-205.55 262.25,-204.94 270.14,-212.02 272.83,-205.55"/>
</g>
<!-- Option::borrow&#45;&gt;Option::is_some -->
<g id="edge15" class="edge">
<title>Option::borrow&#45;&gt;Option::is_some</title>
<path fill="none" stroke="black" d="M431.85,-253.82C432.37,-243.19 433.06,-229.31 433.66,-217.2"/>
<polygon fill="black" stroke="black" points="437.16,-217.31 434.15,-207.15 430.16,-216.97 437.16,-217.31"/>
</g>
<!-- Vector::borrow -->
<g id="node12" class="node">
<title>Vector::borrow</title>
<ellipse fill="none" stroke="black" cx="361" cy="-106" rx="36.29" ry="18"/>
<text text-anchor="middle" x="361" y="-102.3" font-family="Times,serif" font-size="14.00">borrow</text>
</g>
<!-- Option::borrow&#45;&gt;Vector::borrow -->
<g id="edge14" class="edge">
<title>Option::borrow&#45;&gt;Vector::borrow</title>
<path fill="none" stroke="black" d="M407,-258.3C399.17,-253.02 391.17,-246.19 386,-238 366.03,-206.37 361.31,-162.49 360.54,-134.42"/>
<polygon fill="black" stroke="black" points="364.04,-134.1 360.42,-124.14 357.04,-134.18 364.04,-134.1"/>
</g>
<!-- Vector::is_empty -->
<g id="node13" class="node">
<title>Vector::is_empty</title>
<ellipse fill="none" stroke="black" cx="459" cy="-106" rx="43.59" ry="18"/>
<text text-anchor="middle" x="459" y="-102.3" font-family="Times,serif" font-size="14.00">is_empty</text>
</g>
<!-- Option::is_some&#45;&gt;Vector::is_empty -->
<g id="edge16" class="edge">
<title>Option::is_some&#45;&gt;Vector::is_empty</title>
<path fill="none" stroke="black" d="M440.09,-170.82C443.27,-160.08 447.44,-146.03 451.05,-133.84"/>
<polygon fill="black" stroke="black" points="454.43,-134.74 453.92,-124.15 447.72,-132.75 454.43,-134.74"/>
</g>
<!-- Vector::is_empty&#45;&gt;Vector::length -->
<g id="edge17" class="edge">
<title>Vector::is_empty&#45;&gt;Vector::length</title>
<path fill="none" stroke="black" d="M474.66,-89.12C483.87,-79.77 495.67,-67.79 505.83,-57.49"/>
<polygon fill="black" stroke="black" points="508.35,-59.92 512.88,-50.34 503.37,-55 508.35,-59.92"/>
</g>
</g>
</svg>
