<?xml version="1.0" encoding="UTF-8" standalone="no"?>
<!DOCTYPE svg PUBLIC "-//W3C//DTD SVG 1.1//EN"
 "http://www.w3.org/Graphics/SVG/1.1/DTD/svg11.dtd">
<!-- Generated by graphviz version 2.46.1 (20210213.1702)
 -->
<!-- Title: G Pages: 1 -->
<svg width="2822pt" height="675pt"
 viewBox="0.00 0.00 2822.00 675.00" xmlns="http://www.w3.org/2000/svg" xmlns:xlink="http://www.w3.org/1999/xlink">
<g id="graph0" class="graph" transform="scale(1 1) rotate(0) translate(4 671)">
<title>G</title>
<polygon fill="white" stroke="transparent" points="-4,4 -4,-671 2818,-671 2818,4 -4,4"/>
<g id="clust1" class="cluster">
<title>cluster_Signer</title>
<polygon fill="none" stroke="black" points="8,-80 8,-227 158,-227 158,-80 8,-80"/>
<text text-anchor="middle" x="83" y="-211.8" font-family="Times,serif" font-size="14.00">Signer</text>
</g>
<g id="clust2" class="cluster">
<title>cluster_Errors</title>
<polygon fill="none" stroke="black" points="1448,-80 1448,-227 2512,-227 2512,-80 1448,-80"/>
<text text-anchor="middle" x="1980" y="-211.8" font-family="Times,serif" font-size="14.00">Errors</text>
</g>
<g id="clust3" class="cluster">
<title>cluster_CoreAddresses</title>
<polygon fill="none" stroke="black" points="166,-152 166,-310 670,-310 670,-152 166,-152"/>
<text text-anchor="middle" x="418" y="-294.8" font-family="Times,serif" font-size="14.00">CoreAddresses</text>
</g>
<g id="clust4" class="cluster">
<title>cluster_Roles</title>
<polygon fill="none" stroke="black" points="430,-318 430,-393 588,-393 588,-318 430,-318"/>
<text text-anchor="middle" x="509" y="-377.8" font-family="Times,serif" font-size="14.00">Roles</text>
</g>
<g id="clust5" class="cluster">
<title>cluster_Event</title>
<polygon fill="none" stroke="black" points="842,-235 842,-393 1142,-393 1142,-235 842,-235"/>
<text text-anchor="middle" x="992" y="-377.8" font-family="Times,serif" font-size="14.00">Event</text>
</g>
<g id="clust6" class="cluster">
<title>cluster_RegisteredCurrencies</title>
<polygon fill="none" stroke="black" points="1334,-548 1334,-623 1508,-623 1508,-548 1334,-548"/>
<text text-anchor="middle" x="1421" y="-607.8" font-family="Times,serif" font-size="14.00">RegisteredCurrencies</text>
</g>
<g id="clust7" class="cluster">
<title>cluster_Vector</title>
<polygon fill="none" stroke="black" points="782,-8 782,-227 1440,-227 1440,-8 782,-8"/>
<text text-anchor="middle" x="1111" y="-211.8" font-family="Times,serif" font-size="14.00">Vector</text>
</g>
<g id="clust8" class="cluster">
<title>cluster_DiemConfig</title>
<polygon fill="none" stroke="black" points="596,-318 596,-540 804,-540 804,-318 596,-318"/>
<text text-anchor="middle" x="700" y="-524.8" font-family="Times,serif" font-size="14.00">DiemConfig</text>
</g>
<g id="clust9" class="cluster">
<title>cluster_BCS</title>
<polygon fill="none" stroke="black" points="678,-152 678,-227 774,-227 774,-152 678,-152"/>
<text text-anchor="middle" x="726" y="-211.8" font-family="Times,serif" font-size="14.00">BCS</text>
</g>
<g id="clust10" class="cluster">
<title>cluster_DiemTimestamp</title>
<polygon fill="none" stroke="black" points="2520,-152 2520,-393 2806,-393 2806,-152 2520,-152"/>
<text text-anchor="middle" x="2663" y="-377.8" font-family="Times,serif" font-size="14.00">DiemTimestamp</text>
</g>
<!-- register_currency -->
<g id="node1" class="node">
<title>register_currency</title>
<ellipse fill="none" stroke="black" cx="1314" cy="-649" rx="72.29" ry="18"/>
<text text-anchor="middle" x="1314" y="-645.3" font-family="Times,serif" font-size="14.00">register_currency</text>
</g>
<!-- Signer::address_of -->
<g id="node2" class="node">
<title>Signer::address_of</title>
<ellipse fill="none" stroke="black" cx="101" cy="-178" rx="48.99" ry="18"/>
<text text-anchor="middle" x="101" y="-174.3" font-family="Times,serif" font-size="14.00">address_of</text>
</g>
<!-- register_currency&#45;&gt;Signer::address_of -->
<g id="edge1" class="edge">
<title>register_currency&#45;&gt;Signer::address_of</title>
<path fill="none" stroke="black" d="M1241.71,-648.09C1069,-647.93 636.11,-645.25 493,-623 283.37,-590.41 34,-704.15 34,-492 34,-492 34,-492 34,-343 34,-290.65 63.61,-235.42 83.47,-204.28"/>
<polygon fill="black" stroke="black" points="86.48,-206.07 89.02,-195.79 80.62,-202.24 86.48,-206.07"/>
</g>
<!-- Errors::already_published -->
<g id="node3" class="node">
<title>Errors::already_published</title>
<ellipse fill="none" stroke="black" cx="2299" cy="-178" rx="75.29" ry="18"/>
<text text-anchor="middle" x="2299" y="-174.3" font-family="Times,serif" font-size="14.00">already_published</text>
</g>
<!-- register_currency&#45;&gt;Errors::already_published -->
<g id="edge2" class="edge">
<title>register_currency&#45;&gt;Errors::already_published</title>
<path fill="none" stroke="black" d="M1385.86,-646.6C1506.43,-643.89 1744.35,-636.95 1827,-623 2030.72,-588.62 2273,-698.6 2273,-492 2273,-492 2273,-492 2273,-343 2273,-294.31 2284.32,-238.48 2292.02,-206.12"/>
<polygon fill="black" stroke="black" points="2295.5,-206.64 2294.47,-196.09 2288.7,-204.98 2295.5,-206.64"/>
</g>
<!-- Errors::invalid_argument -->
<g id="node4" class="node">
<title>Errors::invalid_argument</title>
<ellipse fill="none" stroke="black" cx="2132" cy="-178" rx="73.39" ry="18"/>
<text text-anchor="middle" x="2132" y="-174.3" font-family="Times,serif" font-size="14.00">invalid_argument</text>
</g>
<!-- register_currency&#45;&gt;Errors::invalid_argument -->
<g id="edge3" class="edge">
<title>register_currency&#45;&gt;Errors::invalid_argument</title>
<path fill="none" stroke="black" d="M1385.38,-646.39C1558.02,-640.58 1984,-613.89 1984,-492 1984,-492 1984,-492 1984,-343 1984,-277.52 2049.83,-226.43 2093.68,-199.67"/>
<polygon fill="black" stroke="black" points="2095.6,-202.6 2102.41,-194.48 2092.02,-196.58 2095.6,-202.6"/>
</g>
<!-- CoreAddresses::assert_currency_info -->
<g id="node5" class="node">
<title>CoreAddresses::assert_currency_info</title>
<ellipse fill="none" stroke="black" cx="298" cy="-261" rx="84.49" ry="18"/>
<text text-anchor="middle" x="298" y="-257.3" font-family="Times,serif" font-size="14.00">assert_currency_info</text>
</g>
<!-- register_currency&#45;&gt;CoreAddresses::assert_currency_info -->
<g id="edge4" class="edge">
<title>register_currency&#45;&gt;CoreAddresses::assert_currency_info</title>
<path fill="none" stroke="black" d="M1241.79,-648.6C1072.31,-649.55 658.99,-649.12 602,-623 447.27,-552.08 343.49,-358.56 309.85,-288.1"/>
<polygon fill="black" stroke="black" points="312.99,-286.56 305.57,-279 306.65,-289.54 312.99,-286.56"/>
</g>
<!-- Roles::assert_diem_root -->
<g id="node6" class="node">
<title>Roles::assert_diem_root</title>
<ellipse fill="none" stroke="black" cx="509" cy="-344" rx="71.49" ry="18"/>
<text text-anchor="middle" x="509" y="-340.3" font-family="Times,serif" font-size="14.00">assert_diem_root</text>
</g>
<!-- register_currency&#45;&gt;Roles::assert_diem_root -->
<g id="edge5" class="edge">
<title>register_currency&#45;&gt;Roles::assert_diem_root</title>
<path fill="none" stroke="black" d="M1242.59,-645.99C1080.86,-640.1 692.81,-617.99 592,-540 538.21,-498.39 518.83,-415.21 512.21,-372.18"/>
<polygon fill="black" stroke="black" points="515.65,-371.57 510.78,-362.16 508.72,-372.55 515.65,-371.57"/>
</g>
<!-- Event::new_event_handle -->
<g id="node7" class="node">
<title>Event::new_event_handle</title>
<ellipse fill="none" stroke="black" cx="1057" cy="-344" rx="76.89" ry="18"/>
<text text-anchor="middle" x="1057" y="-340.3" font-family="Times,serif" font-size="14.00">new_event_handle</text>
</g>
<!-- register_currency&#45;&gt;Event::new_event_handle -->
<g id="edge6" class="edge">
<title>register_currency&#45;&gt;Event::new_event_handle</title>
<path fill="none" stroke="black" d="M1299.82,-631.28C1257,-580.8 1128.9,-429.77 1078.1,-369.87"/>
<polygon fill="black" stroke="black" points="1080.59,-367.41 1071.46,-362.04 1075.26,-371.93 1080.59,-367.41"/>
</g>
<!-- RegisteredCurrencies::add_currency_code -->
<g id="node8" class="node">
<title>RegisteredCurrencies::add_currency_code</title>
<ellipse fill="none" stroke="black" cx="1421" cy="-574" rx="79.09" ry="18"/>
<text text-anchor="middle" x="1421" y="-570.3" font-family="Times,serif" font-size="14.00">add_currency_code</text>
</g>
<!-- register_currency&#45;&gt;RegisteredCurrencies::add_currency_code -->
<g id="edge7" class="edge">
<title>register_currency&#45;&gt;RegisteredCurrencies::add_currency_code</title>
<path fill="none" stroke="black" d="M1337.48,-631.98C1352.57,-621.69 1372.37,-608.18 1388.9,-596.9"/>
<polygon fill="black" stroke="black" points="1390.92,-599.76 1397.2,-591.24 1386.97,-593.98 1390.92,-599.76"/>
</g>
<!-- Signer::borrow_address -->
<g id="node9" class="node">
<title>Signer::borrow_address</title>
<ellipse fill="none" stroke="black" cx="83" cy="-106" rx="66.89" ry="18"/>
<text text-anchor="middle" x="83" y="-102.3" font-family="Times,serif" font-size="14.00">borrow_address</text>
</g>
<!-- Signer::address_of&#45;&gt;Signer::borrow_address -->
<g id="edge8" class="edge">
<title>Signer::address_of&#45;&gt;Signer::borrow_address</title>
<path fill="none" stroke="black" d="M96.64,-160.05C94.64,-152.26 92.21,-142.82 89.96,-134.08"/>
<polygon fill="black" stroke="black" points="93.32,-133.09 87.44,-124.28 86.54,-134.83 93.32,-133.09"/>
</g>
<!-- Errors::make -->
<g id="node10" class="node">
<title>Errors::make</title>
<ellipse fill="none" stroke="black" cx="1963" cy="-106" rx="30.59" ry="18"/>
<text text-anchor="middle" x="1963" y="-102.3" font-family="Times,serif" font-size="14.00">make</text>
</g>
<!-- Errors::already_published&#45;&gt;Errors::make -->
<g id="edge9" class="edge">
<title>Errors::already_published&#45;&gt;Errors::make</title>
<path fill="none" stroke="black" d="M2255.56,-163.24C2242.3,-159.3 2227.62,-155.21 2214,-152 2139.98,-134.53 2052.28,-120.25 2002.59,-112.74"/>
<polygon fill="black" stroke="black" points="2002.99,-109.26 1992.58,-111.24 2001.95,-116.18 2002.99,-109.26"/>
</g>
<!-- Errors::invalid_argument&#45;&gt;Errors::make -->
<g id="edge10" class="edge">
<title>Errors::invalid_argument&#45;&gt;Errors::make</title>
<path fill="none" stroke="black" d="M2096.16,-162.15C2066.74,-149.97 2025.37,-132.83 1996.58,-120.91"/>
<polygon fill="black" stroke="black" points="1997.92,-117.67 1987.34,-117.08 1995.24,-124.14 1997.92,-117.67"/>
</g>
<!-- CoreAddresses::assert_currency_info&#45;&gt;Signer::address_of -->
<g id="edge11" class="edge">
<title>CoreAddresses::assert_currency_info&#45;&gt;Signer::address_of</title>
<path fill="none" stroke="black" d="M231.35,-249.78C208.62,-244.76 183.52,-237.46 162,-227 148.67,-220.52 135.54,-210.75 124.89,-201.71"/>
<polygon fill="black" stroke="black" points="127.09,-198.99 117.27,-195.01 122.47,-204.25 127.09,-198.99"/>
</g>
<!-- Errors::requires_address -->
<g id="node11" class="node">
<title>Errors::requires_address</title>
<ellipse fill="none" stroke="black" cx="1526" cy="-178" rx="69.59" ry="18"/>
<text text-anchor="middle" x="1526" y="-174.3" font-family="Times,serif" font-size="14.00">requires_address</text>
</g>
<!-- CoreAddresses::assert_currency_info&#45;&gt;Errors::requires_address -->
<g id="edge12" class="edge">
<title>CoreAddresses::assert_currency_info&#45;&gt;Errors::requires_address</title>
<path fill="none" stroke="black" d="M342.95,-245.58C358.34,-241.3 375.77,-237.18 392,-235 449.92,-227.2 1387.65,-242.51 1444,-227 1462.88,-221.8 1481.88,-211.11 1496.83,-201.13"/>
<polygon fill="black" stroke="black" points="1498.9,-203.95 1505.14,-195.38 1494.92,-198.19 1498.9,-203.95"/>
</g>
<!-- CoreAddresses::CURRENCY_INFO_ADDRESS -->
<g id="node12" class="node">
<title>CoreAddresses::CURRENCY_INFO_ADDRESS</title>
<ellipse fill="none" stroke="black" cx="302" cy="-178" rx="128.08" ry="18"/>
<text text-anchor="middle" x="302" y="-174.3" font-family="Times,serif" font-size="14.00">CURRENCY_INFO_ADDRESS</text>
</g>
<!-- CoreAddresses::assert_currency_info&#45;&gt;CoreAddresses::CURRENCY_INFO_ADDRESS -->
<g id="edge13" class="edge">
<title>CoreAddresses::assert_currency_info&#45;&gt;CoreAddresses::CURRENCY_INFO_ADDRESS</title>
<path fill="none" stroke="black" d="M298.85,-242.82C299.37,-232.19 300.06,-218.31 300.66,-206.2"/>
<polygon fill="black" stroke="black" points="304.16,-206.31 301.15,-196.15 297.16,-205.97 304.16,-206.31"/>
</g>
<!-- Roles::assert_diem_root&#45;&gt;Signer::address_of -->
<g id="edge14" class="edge">
<title>Roles::assert_diem_root&#45;&gt;Signer::address_of</title>
<path fill="none" stroke="black" d="M438.36,-341.14C336.13,-337.81 156.6,-329.26 134,-310 104.27,-284.66 99.26,-236.85 99.38,-206.52"/>
<polygon fill="black" stroke="black" points="102.89,-206.3 99.63,-196.22 95.89,-206.13 102.89,-206.3"/>
</g>
<!-- Errors::not_published -->
<g id="node13" class="node">
<title>Errors::not_published</title>
<ellipse fill="none" stroke="black" cx="1807" cy="-178" rx="60.39" ry="18"/>
<text text-anchor="middle" x="1807" y="-174.3" font-family="Times,serif" font-size="14.00">not_published</text>
</g>
<!-- Roles::assert_diem_root&#45;&gt;Errors::not_published -->
<g id="edge15" class="edge">
<title>Roles::assert_diem_root&#45;&gt;Errors::not_published</title>
<path fill="none" stroke="black" d="M548.17,-328.76C561.84,-324.44 577.42,-320.25 592,-318 608.14,-315.51 1166.33,-318.94 1180,-310 1210.63,-289.96 1183.39,-255.06 1214,-235 1238.3,-219.07 1709.31,-235.81 1737,-227 1753.2,-221.84 1769.02,-211.58 1781.5,-201.87"/>
<polygon fill="black" stroke="black" points="1784.03,-204.33 1789.58,-195.3 1779.61,-198.9 1784.03,-204.33"/>
</g>
<!-- Errors::requires_role -->
<g id="node14" class="node">
<title>Errors::requires_role</title>
<ellipse fill="none" stroke="black" cx="1671" cy="-178" rx="57.39" ry="18"/>
<text text-anchor="middle" x="1671" y="-174.3" font-family="Times,serif" font-size="14.00">requires_role</text>
</g>
<!-- Roles::assert_diem_root&#45;&gt;Errors::requires_role -->
<g id="edge16" class="edge">
<title>Roles::assert_diem_root&#45;&gt;Errors::requires_role</title>
<path fill="none" stroke="black" d="M548.17,-328.76C561.85,-324.45 577.43,-320.25 592,-318 607.21,-315.65 1132.86,-318.01 1146,-310 1178.25,-290.33 1153.79,-254.74 1186,-235 1205.85,-222.83 1582.93,-234.41 1605,-227 1620.5,-221.8 1635.43,-211.53 1647.16,-201.83"/>
<polygon fill="black" stroke="black" points="1649.47,-204.46 1654.74,-195.27 1644.89,-199.17 1649.47,-204.46"/>
</g>
<!-- CoreAddresses::assert_diem_root -->
<g id="node15" class="node">
<title>CoreAddresses::assert_diem_root</title>
<ellipse fill="none" stroke="black" cx="472" cy="-261" rx="71.49" ry="18"/>
<text text-anchor="middle" x="472" y="-257.3" font-family="Times,serif" font-size="14.00">assert_diem_root</text>
</g>
<!-- Roles::assert_diem_root&#45;&gt;CoreAddresses::assert_diem_root -->
<g id="edge17" class="edge">
<title>Roles::assert_diem_root&#45;&gt;CoreAddresses::assert_diem_root</title>
<path fill="none" stroke="black" d="M501.15,-325.82C496.2,-314.98 489.7,-300.74 484.09,-288.47"/>
<polygon fill="black" stroke="black" points="487.17,-286.79 479.84,-279.15 480.81,-289.7 487.17,-286.79"/>
</g>
<!-- Event::new_event_handle&#45;&gt;Signer::address_of -->
<g id="edge18" class="edge">
<title>Event::new_event_handle&#45;&gt;Signer::address_of</title>
<path fill="none" stroke="black" d="M1014.43,-328.86C999.31,-324.5 982.06,-320.25 966,-318 943.88,-314.9 180.5,-322.51 162,-310 132.12,-289.8 146.42,-267.6 131,-235 126.26,-224.98 120.62,-214.2 115.51,-204.79"/>
<polygon fill="black" stroke="black" points="118.52,-203.01 110.64,-195.93 112.39,-206.38 118.52,-203.01"/>
</g>
<!-- Event::new_event_handle&#45;&gt;Errors::not_published -->
<g id="edge19" class="edge">
<title>Event::new_event_handle&#45;&gt;Errors::not_published</title>
<path fill="none" stroke="black" d="M1131.31,-339.44C1159.2,-335.15 1189.93,-326.62 1214,-310 1246.57,-287.51 1227.44,-254.29 1262,-235 1285.04,-222.14 1711.86,-235.03 1737,-227 1753.2,-221.83 1769.01,-211.57 1781.5,-201.86"/>
<polygon fill="black" stroke="black" points="1784.03,-204.32 1789.58,-195.29 1779.61,-198.89 1784.03,-204.32"/>
</g>
<!-- Event::fresh_guid -->
<g id="node16" class="node">
<title>Event::fresh_guid</title>
<ellipse fill="none" stroke="black" cx="1086" cy="-261" rx="48.19" ry="18"/>
<text text-anchor="middle" x="1086" y="-257.3" font-family="Times,serif" font-size="14.00">fresh_guid</text>
</g>
<!-- Event::new_event_handle&#45;&gt;Event::fresh_guid -->
<g id="edge20" class="edge">
<title>Event::new_event_handle&#45;&gt;Event::fresh_guid</title>
<path fill="none" stroke="black" d="M1063.15,-325.82C1067.02,-315.01 1072.1,-300.84 1076.48,-288.59"/>
<polygon fill="black" stroke="black" points="1079.88,-289.47 1079.96,-278.88 1073.29,-287.11 1079.88,-289.47"/>
</g>
<!-- RegisteredCurrencies::add_currency_code&#45;&gt;Errors::invalid_argument -->
<g id="edge21" class="edge">
<title>RegisteredCurrencies::add_currency_code&#45;&gt;Errors::invalid_argument</title>
<path fill="none" stroke="black" d="M1480.06,-561.84C1586.38,-540.05 1799,-487.97 1799,-420 1799,-420 1799,-420 1799,-343 1799,-253.11 1885,-264.25 1970,-235 2003.79,-223.37 2016.02,-238.06 2050,-227 2068.19,-221.08 2086.72,-210.68 2101.55,-201.07"/>
<polygon fill="black" stroke="black" points="2103.91,-203.7 2110.28,-195.23 2100.02,-197.88 2103.91,-203.7"/>
</g>
<!-- Vector::contains -->
<g id="node17" class="node">
<title>Vector::contains</title>
<ellipse fill="none" stroke="black" cx="1392" cy="-106" rx="40.09" ry="18"/>
<text text-anchor="middle" x="1392" y="-102.3" font-family="Times,serif" font-size="14.00">contains</text>
</g>
<!-- RegisteredCurrencies::add_currency_code&#45;&gt;Vector::contains -->
<g id="edge22" class="edge">
<title>RegisteredCurrencies::add_currency_code&#45;&gt;Vector::contains</title>
<path fill="none" stroke="black" d="M1422.32,-555.57C1424.34,-527.19 1428,-469.19 1428,-420 1428,-420 1428,-420 1428,-260 1428,-214.84 1412.96,-164.13 1402.32,-133.92"/>
<polygon fill="black" stroke="black" points="1405.47,-132.34 1398.77,-124.13 1398.89,-134.72 1405.47,-132.34"/>
</g>
<!-- Vector::push_back -->
<g id="node18" class="node">
<title>Vector::push_back</title>
<ellipse fill="none" stroke="black" cx="1286" cy="-106" rx="48.19" ry="18"/>
<text text-anchor="middle" x="1286" y="-102.3" font-family="Times,serif" font-size="14.00">push_back</text>
</g>
<!-- RegisteredCurrencies::add_currency_code&#45;&gt;Vector::push_back -->
<g id="edge23" class="edge">
<title>RegisteredCurrencies::add_currency_code&#45;&gt;Vector::push_back</title>
<path fill="none" stroke="black" d="M1415.17,-555.79C1406.19,-527.71 1390,-470.14 1390,-420 1390,-420 1390,-420 1390,-260 1390,-205.75 1344.73,-156.48 1313.92,-129.24"/>
<polygon fill="black" stroke="black" points="1315.92,-126.34 1306.05,-122.48 1311.35,-131.65 1315.92,-126.34"/>
</g>
<!-- DiemConfig::set -->
<g id="node19" class="node">
<title>DiemConfig::set</title>
<ellipse fill="none" stroke="black" cx="697" cy="-491" rx="27" ry="18"/>
<text text-anchor="middle" x="697" y="-487.3" font-family="Times,serif" font-size="14.00">set</text>
</g>
<!-- RegisteredCurrencies::add_currency_code&#45;&gt;DiemConfig::set -->
<g id="edge24" class="edge">
<title>RegisteredCurrencies::add_currency_code&#45;&gt;DiemConfig::set</title>
<path fill="none" stroke="black" d="M1341.68,-572.97C1172.14,-572.35 785.56,-567.87 733,-540 723.34,-534.88 715.54,-525.88 709.71,-517.05"/>
<polygon fill="black" stroke="black" points="712.69,-515.2 704.54,-508.43 706.68,-518.8 712.69,-515.2"/>
</g>
<!-- DiemConfig::get -->
<g id="node20" class="node">
<title>DiemConfig::get</title>
<ellipse fill="none" stroke="black" cx="769" cy="-491" rx="27" ry="18"/>
<text text-anchor="middle" x="769" y="-487.3" font-family="Times,serif" font-size="14.00">get</text>
</g>
<!-- RegisteredCurrencies::add_currency_code&#45;&gt;DiemConfig::get -->
<g id="edge25" class="edge">
<title>RegisteredCurrencies::add_currency_code&#45;&gt;DiemConfig::get</title>
<path fill="none" stroke="black" d="M1353.38,-564.6C1216.53,-547.6 910.87,-509.62 805.52,-496.54"/>
<polygon fill="black" stroke="black" points="805.74,-493.04 795.39,-495.28 804.88,-499.98 805.74,-493.04"/>
</g>
<!-- Errors::requires_address&#45;&gt;Errors::make -->
<g id="edge26" class="edge">
<title>Errors::requires_address&#45;&gt;Errors::make</title>
<path fill="none" stroke="black" d="M1565.4,-162.98C1577.93,-158.95 1591.93,-154.86 1605,-152 1718.55,-127.11 1855.59,-114.66 1922.4,-109.69"/>
<polygon fill="black" stroke="black" points="1922.79,-113.17 1932.51,-108.96 1922.28,-106.19 1922.79,-113.17"/>
</g>
<!-- Errors::not_published&#45;&gt;Errors::make -->
<g id="edge27" class="edge">
<title>Errors::not_published&#45;&gt;Errors::make</title>
<path fill="none" stroke="black" d="M1838.95,-162.67C1865.46,-150.77 1903.04,-133.9 1929.88,-121.86"/>
<polygon fill="black" stroke="black" points="1931.55,-124.95 1939.24,-117.66 1928.68,-118.56 1931.55,-124.95"/>
</g>
<!-- Errors::requires_role&#45;&gt;Errors::make -->
<g id="edge28" class="edge">
<title>Errors::requires_role&#45;&gt;Errors::make</title>
<path fill="none" stroke="black" d="M1704.39,-163.34C1715.02,-159.32 1726.89,-155.16 1738,-152 1801.98,-133.79 1878.23,-120.19 1923.52,-112.93"/>
<polygon fill="black" stroke="black" points="1924.19,-116.37 1933.52,-111.35 1923.09,-109.46 1924.19,-116.37"/>
</g>
<!-- CoreAddresses::assert_diem_root&#45;&gt;Signer::address_of -->
<g id="edge29" class="edge">
<title>CoreAddresses::assert_diem_root&#45;&gt;Signer::address_of</title>
<path fill="none" stroke="black" d="M433.37,-245.8C420.11,-241.54 405.08,-237.37 391,-235 340.79,-226.53 209.82,-244.5 162,-227 147.68,-221.76 134.1,-211.77 123.41,-202.26"/>
<polygon fill="black" stroke="black" points="125.52,-199.44 115.83,-195.17 120.73,-204.55 125.52,-199.44"/>
</g>
<!-- CoreAddresses::assert_diem_root&#45;&gt;Errors::requires_address -->
<g id="edge30" class="edge">
<title>CoreAddresses::assert_diem_root&#45;&gt;Errors::requires_address</title>
<path fill="none" stroke="black" d="M538.73,-254.34C612.04,-248.37 733.32,-239.26 838,-235 871.64,-233.63 1411.56,-236.03 1444,-227 1462.86,-221.75 1481.86,-211.05 1496.82,-201.08"/>
<polygon fill="black" stroke="black" points="1498.89,-203.91 1505.12,-195.34 1494.91,-198.15 1498.89,-203.91"/>
</g>
<!-- CoreAddresses::DIEM_ROOT_ADDRESS -->
<g id="node21" class="node">
<title>CoreAddresses::DIEM_ROOT_ADDRESS</title>
<ellipse fill="none" stroke="black" cx="555" cy="-178" rx="106.68" ry="18"/>
<text text-anchor="middle" x="555" y="-174.3" font-family="Times,serif" font-size="14.00">DIEM_ROOT_ADDRESS</text>
</g>
<!-- CoreAddresses::assert_diem_root&#45;&gt;CoreAddresses::DIEM_ROOT_ADDRESS -->
<g id="edge31" class="edge">
<title>CoreAddresses::assert_diem_root&#45;&gt;CoreAddresses::DIEM_ROOT_ADDRESS</title>
<path fill="none" stroke="black" d="M489.2,-243.22C501.03,-231.67 516.92,-216.16 530.13,-203.27"/>
<polygon fill="black" stroke="black" points="532.83,-205.53 537.54,-196.04 527.94,-200.52 532.83,-205.53"/>
</g>
<!-- Vector::append -->
<g id="node22" class="node">
<title>Vector::append</title>
<ellipse fill="none" stroke="black" cx="1078" cy="-178" rx="36.29" ry="18"/>
<text text-anchor="middle" x="1078" y="-174.3" font-family="Times,serif" font-size="14.00">append</text>
</g>
<!-- Event::fresh_guid&#45;&gt;Vector::append -->
<g id="edge32" class="edge">
<title>Event::fresh_guid&#45;&gt;Vector::append</title>
<path fill="none" stroke="black" d="M1084.3,-242.82C1083.25,-232.19 1081.88,-218.31 1080.69,-206.2"/>
<polygon fill="black" stroke="black" points="1084.16,-205.76 1079.69,-196.15 1077.19,-206.45 1084.16,-205.76"/>
</g>
<!-- BCS::to_bytes -->
<g id="node23" class="node">
<title>BCS::to_bytes</title>
<ellipse fill="none" stroke="black" cx="726" cy="-178" rx="40.09" ry="18"/>
<text text-anchor="middle" x="726" y="-174.3" font-family="Times,serif" font-size="14.00">to_bytes</text>
</g>
<!-- Event::fresh_guid&#45;&gt;BCS::to_bytes -->
<g id="edge33" class="edge">
<title>Event::fresh_guid&#45;&gt;BCS::to_bytes</title>
<path fill="none" stroke="black" d="M1059.47,-245.86C1050.1,-241.55 1039.33,-237.34 1029,-235 1001.79,-228.84 803.82,-237.57 778,-227 765.56,-221.91 754.26,-212.41 745.4,-203.19"/>
<polygon fill="black" stroke="black" points="747.85,-200.69 738.55,-195.62 742.66,-205.38 747.85,-200.69"/>
</g>
<!-- Vector::borrow -->
<g id="node24" class="node">
<title>Vector::borrow</title>
<ellipse fill="none" stroke="black" cx="1392" cy="-34" rx="36.29" ry="18"/>
<text text-anchor="middle" x="1392" y="-30.3" font-family="Times,serif" font-size="14.00">borrow</text>
</g>
<!-- Vector::contains&#45;&gt;Vector::borrow -->
<g id="edge34" class="edge">
<title>Vector::contains&#45;&gt;Vector::borrow</title>
<path fill="none" stroke="black" d="M1392,-87.7C1392,-79.98 1392,-70.71 1392,-62.11"/>
<polygon fill="black" stroke="black" points="1395.5,-62.1 1392,-52.1 1388.5,-62.1 1395.5,-62.1"/>
</g>
<!-- Vector::length -->
<g id="node25" class="node">
<title>Vector::length</title>
<ellipse fill="none" stroke="black" cx="1069" cy="-34" rx="32.49" ry="18"/>
<text text-anchor="middle" x="1069" y="-30.3" font-family="Times,serif" font-size="14.00">length</text>
</g>
<!-- Vector::contains&#45;&gt;Vector::length -->
<g id="edge35" class="edge">
<title>Vector::contains&#45;&gt;Vector::length</title>
<path fill="none" stroke="black" d="M1368.71,-91.26C1360.78,-87.09 1351.71,-82.86 1343,-80 1263.61,-53.93 1166.12,-42.53 1111.43,-37.89"/>
<polygon fill="black" stroke="black" points="1111.66,-34.4 1101.41,-37.08 1111.09,-41.38 1111.66,-34.4"/>
</g>
<!-- DiemConfig::set&#45;&gt;Signer::address_of -->
<g id="edge36" class="edge">
<title>DiemConfig::set&#45;&gt;Signer::address_of</title>
<path fill="none" stroke="black" d="M669.93,-489.94C603.25,-489.05 426.5,-482.26 288,-437 191.1,-405.33 142.66,-401.15 97,-310 80.55,-277.17 86.43,-233.67 93.03,-206"/>
<polygon fill="black" stroke="black" points="96.44,-206.79 95.54,-196.23 89.66,-205.04 96.44,-206.79"/>
</g>
<!-- DiemConfig::set&#45;&gt;Errors::not_published -->
<g id="edge37" class="edge">
<title>DiemConfig::set&#45;&gt;Errors::not_published</title>
<path fill="none" stroke="black" d="M717.58,-479.2C722.53,-476.91 727.88,-474.68 733,-473 910.7,-414.85 975.88,-470.57 1146,-393 1200.44,-368.18 1211.75,-354.27 1252,-310 1278.62,-280.72 1265.46,-254.32 1300,-235 1321.19,-223.15 1713.87,-234.4 1737,-227 1753.19,-221.82 1769.01,-211.56 1781.5,-201.85"/>
<polygon fill="black" stroke="black" points="1784.02,-204.31 1789.58,-195.28 1779.61,-198.87 1784.02,-204.31"/>
</g>
<!-- DiemConfig::set&#45;&gt;CoreAddresses::DIEM_ROOT_ADDRESS -->
<g id="edge39" class="edge">
<title>DiemConfig::set&#45;&gt;CoreAddresses::DIEM_ROOT_ADDRESS</title>
<path fill="none" stroke="black" d="M669.98,-490.9C580.95,-492.15 297.27,-482.16 205,-310 189.25,-280.62 181.84,-258.97 205,-235 214.04,-225.65 426.29,-229.75 439,-227 465.16,-221.33 492.92,-210.06 514.73,-199.86"/>
<polygon fill="black" stroke="black" points="516.48,-202.89 523.99,-195.42 513.46,-196.58 516.48,-202.89"/>
</g>
<!-- Errors::requires_capability -->
<g id="node26" class="node">
<title>Errors::requires_capability</title>
<ellipse fill="none" stroke="black" cx="1963" cy="-178" rx="77.99" ry="18"/>
<text text-anchor="middle" x="1963" y="-174.3" font-family="Times,serif" font-size="14.00">requires_capability</text>
</g>
<!-- DiemConfig::set&#45;&gt;Errors::requires_capability -->
<g id="edge38" class="edge">
<title>DiemConfig::set&#45;&gt;Errors::requires_capability</title>
<path fill="none" stroke="black" d="M717.48,-478.89C722.44,-476.6 727.81,-474.46 733,-473 878.45,-432.17 922.67,-465.67 1071,-437 1394.8,-374.42 1460.64,-294.59 1785,-235 1824.93,-227.66 1837.16,-238.84 1876,-227 1895.31,-221.11 1915.15,-210.58 1930.99,-200.87"/>
<polygon fill="black" stroke="black" points="1933.24,-203.59 1939.83,-195.3 1929.5,-197.67 1933.24,-203.59"/>
</g>
<!-- DiemConfig::reconfigure_ -->
<g id="node27" class="node">
<title>DiemConfig::reconfigure_</title>
<ellipse fill="none" stroke="black" cx="741" cy="-419" rx="55.49" ry="18"/>
<text text-anchor="middle" x="741" y="-415.3" font-family="Times,serif" font-size="14.00">reconfigure_</text>
</g>
<!-- DiemConfig::set&#45;&gt;DiemConfig::reconfigure_ -->
<g id="edge40" class="edge">
<title>DiemConfig::set&#45;&gt;DiemConfig::reconfigure_</title>
<path fill="none" stroke="black" d="M706.98,-474.12C712.29,-465.68 718.93,-455.1 724.94,-445.55"/>
<polygon fill="black" stroke="black" points="728.08,-447.13 730.44,-436.8 722.16,-443.4 728.08,-447.13"/>
</g>
<!-- DiemConfig::get&#45;&gt;Errors::not_published -->
<g id="edge41" class="edge">
<title>DiemConfig::get&#45;&gt;Errors::not_published</title>
<path fill="none" stroke="black" d="M796.16,-490.42C874.4,-490.97 1106.44,-487.86 1290,-437 1316.44,-429.67 1713.19,-240.64 1737,-227 1750.58,-219.22 1764.94,-209.63 1777.1,-201.08"/>
<polygon fill="black" stroke="black" points="1779.41,-203.73 1785.52,-195.07 1775.35,-198.03 1779.41,-203.73"/>
</g>
<!-- DiemConfig::get&#45;&gt;CoreAddresses::DIEM_ROOT_ADDRESS -->
<g id="edge42" class="edge">
<title>DiemConfig::get&#45;&gt;CoreAddresses::DIEM_ROOT_ADDRESS</title>
<path fill="none" stroke="black" d="M747.96,-479.26C743.12,-477.02 737.94,-474.79 733,-473 600.45,-424.91 512.22,-504.57 426,-393 405.62,-366.62 403.19,-342.31 426,-318 445.2,-297.54 532.57,-330.24 552,-310 578.22,-282.7 571.62,-235.55 563.79,-205.88"/>
<polygon fill="black" stroke="black" points="567.13,-204.84 561.02,-196.18 560.4,-206.76 567.13,-204.84"/>
</g>
<!-- Vector::append&#45;&gt;Vector::push_back -->
<g id="edge46" class="edge">
<title>Vector::append&#45;&gt;Vector::push_back</title>
<path fill="none" stroke="black" d="M1107.36,-167.12C1142.33,-155.35 1201.09,-135.58 1241.61,-121.94"/>
<polygon fill="black" stroke="black" points="1242.88,-125.2 1251.24,-118.7 1240.65,-118.57 1242.88,-125.2"/>
</g>
<!-- Vector::destroy_empty -->
<g id="node28" class="node">
<title>Vector::destroy_empty</title>
<ellipse fill="none" stroke="black" cx="944" cy="-106" rx="63.89" ry="18"/>
<text text-anchor="middle" x="944" y="-102.3" font-family="Times,serif" font-size="14.00">destroy_empty</text>
</g>
<!-- Vector::append&#45;&gt;Vector::destroy_empty -->
<g id="edge43" class="edge">
<title>Vector::append&#45;&gt;Vector::destroy_empty</title>
<path fill="none" stroke="black" d="M1053.73,-164.32C1033.85,-153.94 1005.34,-139.04 982.37,-127.04"/>
<polygon fill="black" stroke="black" points="983.71,-123.79 973.22,-122.27 980.47,-130 983.71,-123.79"/>
</g>
<!-- Vector::is_empty -->
<g id="node29" class="node">
<title>Vector::is_empty</title>
<ellipse fill="none" stroke="black" cx="1069" cy="-106" rx="43.59" ry="18"/>
<text text-anchor="middle" x="1069" y="-102.3" font-family="Times,serif" font-size="14.00">is_empty</text>
</g>
<!-- Vector::append&#45;&gt;Vector::is_empty -->
<g id="edge44" class="edge">
<title>Vector::append&#45;&gt;Vector::is_empty</title>
<path fill="none" stroke="black" d="M1075.78,-159.7C1074.78,-151.98 1073.59,-142.71 1072.49,-134.11"/>
<polygon fill="black" stroke="black" points="1075.95,-133.58 1071.2,-124.1 1069,-134.47 1075.95,-133.58"/>
</g>
<!-- Vector::pop_back -->
<g id="node30" class="node">
<title>Vector::pop_back</title>
<ellipse fill="none" stroke="black" cx="1175" cy="-106" rx="44.69" ry="18"/>
<text text-anchor="middle" x="1175" y="-102.3" font-family="Times,serif" font-size="14.00">pop_back</text>
</g>
<!-- Vector::append&#45;&gt;Vector::pop_back -->
<g id="edge45" class="edge">
<title>Vector::append&#45;&gt;Vector::pop_back</title>
<path fill="none" stroke="black" d="M1097.63,-162.83C1111.46,-152.86 1130.2,-139.33 1145.78,-128.09"/>
<polygon fill="black" stroke="black" points="1148,-130.8 1154.06,-122.11 1143.9,-125.13 1148,-130.8"/>
</g>
<!-- Vector::reverse -->
<g id="node31" class="node">
<title>Vector::reverse</title>
<ellipse fill="none" stroke="black" cx="826" cy="-106" rx="36.29" ry="18"/>
<text text-anchor="middle" x="826" y="-102.3" font-family="Times,serif" font-size="14.00">reverse</text>
</g>
<!-- Vector::append&#45;&gt;Vector::reverse -->
<g id="edge47" class="edge">
<title>Vector::append&#45;&gt;Vector::reverse</title>
<path fill="none" stroke="black" d="M1045.42,-169.83C1004.37,-160.54 931.84,-143.22 871,-124 868.4,-123.18 865.74,-122.29 863.06,-121.37"/>
<polygon fill="black" stroke="black" points="864.03,-118 853.44,-117.92 861.67,-124.59 864.03,-118"/>
</g>
<!-- Errors::requires_capability&#45;&gt;Errors::make -->
<g id="edge48" class="edge">
<title>Errors::requires_capability&#45;&gt;Errors::make</title>
<path fill="none" stroke="black" d="M1963,-159.7C1963,-151.98 1963,-142.71 1963,-134.11"/>
<polygon fill="black" stroke="black" points="1966.5,-134.1 1963,-124.1 1959.5,-134.1 1966.5,-134.1"/>
</g>
<!-- DiemConfig::reconfigure_&#45;&gt;CoreAddresses::DIEM_ROOT_ADDRESS -->
<g id="edge50" class="edge">
<title>DiemConfig::reconfigure_&#45;&gt;CoreAddresses::DIEM_ROOT_ADDRESS</title>
<path fill="none" stroke="black" d="M786.13,-408.35C793.57,-404.75 800.36,-399.8 805,-393 823.8,-365.47 821.9,-346.73 805,-318 782.47,-279.7 669.28,-227.03 603.19,-198.79"/>
<polygon fill="black" stroke="black" points="604.37,-195.49 593.79,-194.8 601.63,-201.93 604.37,-195.49"/>
</g>
<!-- Errors::invalid_state -->
<g id="node32" class="node">
<title>Errors::invalid_state</title>
<ellipse fill="none" stroke="black" cx="2448" cy="-178" rx="55.79" ry="18"/>
<text text-anchor="middle" x="2448" y="-174.3" font-family="Times,serif" font-size="14.00">invalid_state</text>
</g>
<!-- DiemConfig::reconfigure_&#45;&gt;Errors::invalid_state -->
<g id="edge49" class="edge">
<title>DiemConfig::reconfigure_&#45;&gt;Errors::invalid_state</title>
<path fill="none" stroke="black" d="M795.47,-415.88C873.32,-412.57 1020.85,-405.24 1146,-393 1698.07,-338.99 1868.84,-435.19 2383,-227 2397.54,-221.11 2411.79,-211.2 2423.22,-201.92"/>
<polygon fill="black" stroke="black" points="2425.63,-204.46 2431,-195.33 2421.11,-199.11 2425.63,-204.46"/>
</g>
<!-- DiemTimestamp::is_genesis -->
<g id="node33" class="node">
<title>DiemTimestamp::is_genesis</title>
<ellipse fill="none" stroke="black" cx="2575" cy="-344" rx="46.59" ry="18"/>
<text text-anchor="middle" x="2575" y="-340.3" font-family="Times,serif" font-size="14.00">is_genesis</text>
</g>
<!-- DiemConfig::reconfigure_&#45;&gt;DiemTimestamp::is_genesis -->
<g id="edge51" class="edge">
<title>DiemConfig::reconfigure_&#45;&gt;DiemTimestamp::is_genesis</title>
<path fill="none" stroke="black" d="M795.39,-415.84C1063.77,-405.15 2244.93,-358.14 2518.36,-347.25"/>
<polygon fill="black" stroke="black" points="2518.6,-350.75 2528.45,-346.85 2518.32,-343.75 2518.6,-350.75"/>
</g>
<!-- DiemTimestamp::now_microseconds -->
<g id="node34" class="node">
<title>DiemTimestamp::now_microseconds</title>
<ellipse fill="none" stroke="black" cx="2719" cy="-344" rx="79.09" ry="18"/>
<text text-anchor="middle" x="2719" y="-340.3" font-family="Times,serif" font-size="14.00">now_microseconds</text>
</g>
<!-- DiemConfig::reconfigure_&#45;&gt;DiemTimestamp::now_microseconds -->
<g id="edge52" class="edge">
<title>DiemConfig::reconfigure_&#45;&gt;DiemTimestamp::now_microseconds</title>
<path fill="none" stroke="black" d="M796.6,-418.02C1099.48,-418.03 2540.13,-416.81 2631,-393 2651.17,-387.71 2671.74,-376.86 2687.91,-366.81"/>
<polygon fill="black" stroke="black" points="2689.89,-369.7 2696.41,-361.35 2686.11,-363.81 2689.89,-369.7"/>
</g>
<!-- Event::emit_event -->
<g id="node35" class="node">
<title>Event::emit_event</title>
<ellipse fill="none" stroke="black" cx="907" cy="-344" rx="50.09" ry="18"/>
<text text-anchor="middle" x="907" y="-340.3" font-family="Times,serif" font-size="14.00">emit_event</text>
</g>
<!-- DiemConfig::reconfigure_&#45;&gt;Event::emit_event -->
<g id="edge53" class="edge">
<title>DiemConfig::reconfigure_&#45;&gt;Event::emit_event</title>
<path fill="none" stroke="black" d="M788.04,-409.42C804.3,-405.54 822.35,-400.18 838,-393 852.87,-386.18 867.95,-376.12 880.21,-366.98"/>
<polygon fill="black" stroke="black" points="882.4,-369.71 888.2,-360.84 878.14,-364.15 882.4,-369.71"/>
</g>
<!-- DiemConfig::reconfiguration_enabled -->
<g id="node36" class="node">
<title>DiemConfig::reconfiguration_enabled</title>
<ellipse fill="none" stroke="black" cx="700" cy="-344" rx="96.38" ry="18"/>
<text text-anchor="middle" x="700" y="-340.3" font-family="Times,serif" font-size="14.00">reconfiguration_enabled</text>
</g>
<!-- DiemConfig::reconfigure_&#45;&gt;DiemConfig::reconfiguration_enabled -->
<g id="edge54" class="edge">
<title>DiemConfig::reconfigure_&#45;&gt;DiemConfig::reconfiguration_enabled</title>
<path fill="none" stroke="black" d="M731.49,-401.07C726.46,-392.1 720.16,-380.9 714.53,-370.87"/>
<polygon fill="black" stroke="black" points="717.55,-369.1 709.6,-362.09 711.45,-372.53 717.55,-369.1"/>
</g>
<!-- Vector::is_empty&#45;&gt;Vector::length -->
<g id="edge55" class="edge">
<title>Vector::is_empty&#45;&gt;Vector::length</title>
<path fill="none" stroke="black" d="M1069,-87.7C1069,-79.98 1069,-70.71 1069,-62.11"/>
<polygon fill="black" stroke="black" points="1072.5,-62.1 1069,-52.1 1065.5,-62.1 1072.5,-62.1"/>
</g>
<!-- Vector::reverse&#45;&gt;Vector::length -->
<g id="edge56" class="edge">
<title>Vector::reverse&#45;&gt;Vector::length</title>
<path fill="none" stroke="black" d="M847.83,-91.24C855,-87.17 863.15,-83 871,-80 923.25,-60.02 986.8,-47.52 1027.57,-40.9"/>
<polygon fill="black" stroke="black" points="1028.34,-44.32 1037.67,-39.31 1027.25,-37.41 1028.34,-44.32"/>
</g>
<!-- Vector::swap -->
<g id="node37" class="node">
<title>Vector::swap</title>
<ellipse fill="none" stroke="black" cx="826" cy="-34" rx="28.7" ry="18"/>
<text text-anchor="middle" x="826" y="-30.3" font-family="Times,serif" font-size="14.00">swap</text>
</g>
<!-- Vector::reverse&#45;&gt;Vector::swap -->
<g id="edge57" class="edge">
<title>Vector::reverse&#45;&gt;Vector::swap</title>
<path fill="none" stroke="black" d="M826,-87.7C826,-79.98 826,-70.71 826,-62.11"/>
<polygon fill="black" stroke="black" points="829.5,-62.1 826,-52.1 822.5,-62.1 829.5,-62.1"/>
</g>
<!-- Errors::invalid_state&#45;&gt;Errors::make -->
<g id="edge58" class="edge">
<title>Errors::invalid_state&#45;&gt;Errors::make</title>
<path fill="none" stroke="black" d="M2416.46,-162.97C2405.99,-158.83 2394.17,-154.7 2383,-152 2246.49,-119.04 2079.2,-110.21 2003.56,-107.85"/>
<polygon fill="black" stroke="black" points="2003.61,-104.35 1993.51,-107.56 2003.4,-111.35 2003.61,-104.35"/>
</g>
<!-- DiemTimestamp::is_genesis&#45;&gt;CoreAddresses::DIEM_ROOT_ADDRESS -->
<g id="edge59" class="edge">
<title>DiemTimestamp::is_genesis&#45;&gt;CoreAddresses::DIEM_ROOT_ADDRESS</title>
<path fill="none" stroke="black" d="M2529.86,-339.23C2318.58,-321.64 1425.75,-247.93 1146,-235 1093.6,-232.58 725.4,-237.43 674,-227 646.87,-221.5 618.05,-210.03 595.56,-199.68"/>
<polygon fill="black" stroke="black" points="596.87,-196.43 586.33,-195.34 593.89,-202.76 596.87,-196.43"/>
</g>
<!-- DiemTimestamp::now_microseconds&#45;&gt;CoreAddresses::DIEM_ROOT_ADDRESS -->
<g id="edge60" class="edge">
<title>DiemTimestamp::now_microseconds&#45;&gt;CoreAddresses::DIEM_ROOT_ADDRESS</title>
<path fill="none" stroke="black" d="M2675.99,-328.87C2661.81,-324.73 2645.86,-320.61 2631,-318 2581.85,-309.36 2568.75,-313.97 2519,-310 2140.51,-279.81 2047.25,-253.21 1668,-235 1612.84,-232.35 728.17,-237.74 674,-227 646.85,-221.62 618.02,-210.15 595.54,-199.78"/>
<polygon fill="black" stroke="black" points="596.85,-196.53 586.32,-195.42 593.86,-202.86 596.85,-196.53"/>
</g>
<!-- DiemTimestamp::assert_operating -->
<g id="node38" class="node">
<title>DiemTimestamp::assert_operating</title>
<ellipse fill="none" stroke="black" cx="2596" cy="-261" rx="68.49" ry="18"/>
<text text-anchor="middle" x="2596" y="-257.3" font-family="Times,serif" font-size="14.00">assert_operating</text>
</g>
<!-- DiemTimestamp::now_microseconds&#45;&gt;DiemTimestamp::assert_operating -->
<g id="edge61" class="edge">
<title>DiemTimestamp::now_microseconds&#45;&gt;DiemTimestamp::assert_operating</title>
<path fill="none" stroke="black" d="M2694.4,-326.8C2675.51,-314.36 2649.24,-297.06 2628.6,-283.47"/>
<polygon fill="black" stroke="black" points="2630.41,-280.47 2620.13,-277.89 2626.56,-286.32 2630.41,-280.47"/>
</g>
<!-- Event::write_to_event_store -->
<g id="node39" class="node">
<title>Event::write_to_event_store</title>
<ellipse fill="none" stroke="black" cx="935" cy="-261" rx="85.29" ry="18"/>
<text text-anchor="middle" x="935" y="-257.3" font-family="Times,serif" font-size="14.00">write_to_event_store</text>
</g>
<!-- Event::emit_event&#45;&gt;Event::write_to_event_store -->
<g id="edge62" class="edge">
<title>Event::emit_event&#45;&gt;Event::write_to_event_store</title>
<path fill="none" stroke="black" d="M912.94,-325.82C916.65,-315.08 921.51,-301.03 925.72,-288.84"/>
<polygon fill="black" stroke="black" points="929.11,-289.75 929.07,-279.15 922.5,-287.46 929.11,-289.75"/>
</g>
<!-- DiemConfig::reconfiguration_enabled&#45;&gt;CoreAddresses::DIEM_ROOT_ADDRESS -->
<g id="edge63" class="edge">
<title>DiemConfig::reconfiguration_enabled&#45;&gt;CoreAddresses::DIEM_ROOT_ADDRESS</title>
<path fill="none" stroke="black" d="M685.03,-326.07C659.31,-296.97 606.62,-237.38 576.81,-203.67"/>
<polygon fill="black" stroke="black" points="579.35,-201.26 570.11,-196.09 574.11,-205.9 579.35,-201.26"/>
</g>
<!-- DiemTimestamp::assert_operating&#45;&gt;Errors::invalid_state -->
<g id="edge64" class="edge">
<title>DiemTimestamp::assert_operating&#45;&gt;Errors::invalid_state</title>
<path fill="none" stroke="black" d="M2557.34,-246.08C2543.95,-240.73 2529.03,-234.17 2516,-227 2502.35,-219.49 2488.13,-209.79 2476.25,-201.08"/>
<polygon fill="black" stroke="black" points="2478.16,-198.13 2468.05,-194.95 2473.97,-203.74 2478.16,-198.13"/>
</g>
<!-- DiemTimestamp::is_operating -->
<g id="node40" class="node">
<title>DiemTimestamp::is_operating</title>
<ellipse fill="none" stroke="black" cx="2589" cy="-178" rx="53.89" ry="18"/>
<text text-anchor="middle" x="2589" y="-174.3" font-family="Times,serif" font-size="14.00">is_operating</text>
</g>
<!-- DiemTimestamp::assert_operating&#45;&gt;DiemTimestamp::is_operating -->
<g id="edge65" class="edge">
<title>DiemTimestamp::assert_operating&#45;&gt;DiemTimestamp::is_operating</title>
<path fill="none" stroke="black" d="M2594.52,-242.82C2593.6,-232.19 2592.4,-218.31 2591.35,-206.2"/>
<polygon fill="black" stroke="black" points="2594.83,-205.81 2590.48,-196.15 2587.86,-206.42 2594.83,-205.81"/>
</g>
<!-- DiemTimestamp::is_operating&#45;&gt;CoreAddresses::DIEM_ROOT_ADDRESS -->
<g id="edge66" class="edge">
<title>DiemTimestamp::is_operating&#45;&gt;CoreAddresses::DIEM_ROOT_ADDRESS</title>
<path fill="none" stroke="black" d="M2571.26,-195.02C2555.75,-208.43 2531.87,-225.72 2507,-231 2482.22,-236.26 707.85,-235.94 683,-231 652.56,-224.95 620.3,-211.53 595.77,-199.72"/>
<polygon fill="black" stroke="black" points="597.29,-196.56 586.77,-195.28 594.2,-202.84 597.29,-196.56"/>
</g>
</g>
</svg>
