<?xml version="1.0" encoding="UTF-8" standalone="no"?>
<!DOCTYPE svg PUBLIC "-//W3C//DTD SVG 1.1//EN"
 "http://www.w3.org/Graphics/SVG/1.1/DTD/svg11.dtd">
<!-- Generated by graphviz version 2.46.1 (20210213.1702)
 -->
<!-- Title: G Pages: 1 -->
<svg width="844pt" height="445pt"
 viewBox="0.00 0.00 844.00 445.00" xmlns="http://www.w3.org/2000/svg" xmlns:xlink="http://www.w3.org/1999/xlink">
<g id="graph0" class="graph" transform="scale(1 1) rotate(0) translate(4 441)">
<title>G</title>
<polygon fill="white" stroke="transparent" points="-4,4 -4,-441 840,-441 840,4 -4,4"/>
<g id="clust1" class="cluster">
<title>cluster_Errors</title>
<polygon fill="none" stroke="black" points="8,-8 8,-166 274,-166 274,-8 8,-8"/>
<text text-anchor="middle" x="141" y="-150.8" font-family="Times,serif" font-size="14.00">Errors</text>
</g>
<g id="clust2" class="cluster">
<title>cluster_CoreAddresses</title>
<polygon fill="none" stroke="black" points="444,-8 444,-83 674,-83 674,-8 444,-8"/>
<text text-anchor="middle" x="559" y="-67.8" font-family="Times,serif" font-size="14.00">CoreAddresses</text>
</g>
<g id="clust3" class="cluster">
<title>cluster_DiemTimestamp</title>
<polygon fill="none" stroke="black" points="282,-91 282,-321 568,-321 568,-91 282,-91"/>
<text text-anchor="middle" x="425" y="-305.8" font-family="Times,serif" font-size="14.00">DiemTimestamp</text>
</g>
<g id="clust4" class="cluster">
<title>cluster_Event</title>
<polygon fill="none" stroke="black" points="56,-174 56,-321 242,-321 242,-174 56,-174"/>
<text text-anchor="middle" x="149" y="-305.8" font-family="Times,serif" font-size="14.00">Event</text>
</g>
<!-- set_with_capability_and_reconfigure -->
<g id="node1" class="node">
<title>set_with_capability_and_reconfigure</title>
<ellipse fill="none" stroke="black" cx="441" cy="-419" rx="141.07" ry="18"/>
<text text-anchor="middle" x="441" y="-415.3" font-family="Times,serif" font-size="14.00">set_with_capability_and_reconfigure</text>
</g>
<!-- Errors::not_published -->
<g id="node2" class="node">
<title>Errors::not_published</title>
<ellipse fill="none" stroke="black" cx="76" cy="-117" rx="60.39" ry="18"/>
<text text-anchor="middle" x="76" y="-113.3" font-family="Times,serif" font-size="14.00">not_published</text>
</g>
<!-- set_with_capability_and_reconfigure&#45;&gt;Errors::not_published -->
<g id="edge1" class="edge">
<title>set_with_capability_and_reconfigure&#45;&gt;Errors::not_published</title>
<path fill="none" stroke="black" d="M338.11,-406.59C235.08,-392.8 86.92,-365.7 52,-321 11.46,-269.11 42.29,-185.8 62.34,-143.87"/>
<polygon fill="black" stroke="black" points="65.5,-145.38 66.78,-134.86 59.22,-142.28 65.5,-145.38"/>
</g>
<!-- CoreAddresses::DIEM_ROOT_ADDRESS -->
<g id="node3" class="node">
<title>CoreAddresses::DIEM_ROOT_ADDRESS</title>
<ellipse fill="none" stroke="black" cx="559" cy="-34" rx="106.68" ry="18"/>
<text text-anchor="middle" x="559" y="-30.3" font-family="Times,serif" font-size="14.00">DIEM_ROOT_ADDRESS</text>
</g>
<!-- set_with_capability_and_reconfigure&#45;&gt;CoreAddresses::DIEM_ROOT_ADDRESS -->
<g id="edge2" class="edge">
<title>set_with_capability_and_reconfigure&#45;&gt;CoreAddresses::DIEM_ROOT_ADDRESS</title>
<path fill="none" stroke="black" d="M574.58,-413.06C653.51,-403.57 750.66,-379.56 817,-321 834.2,-305.82 836,-295.94 836,-273 836,-273 836,-273 836,-199 836,-109.23 726.94,-67.55 645.69,-48.95"/>
<polygon fill="black" stroke="black" points="645.94,-45.42 635.42,-46.69 644.44,-52.26 645.94,-45.42"/>
</g>
<!-- reconfigure_ -->
<g id="node4" class="node">
<title>reconfigure_</title>
<ellipse fill="none" stroke="black" cx="441" cy="-347" rx="55.49" ry="18"/>
<text text-anchor="middle" x="441" y="-343.3" font-family="Times,serif" font-size="14.00">reconfigure_</text>
</g>
<!-- set_with_capability_and_reconfigure&#45;&gt;reconfigure_ -->
<g id="edge3" class="edge">
<title>set_with_capability_and_reconfigure&#45;&gt;reconfigure_</title>
<path fill="none" stroke="black" d="M441,-400.7C441,-392.98 441,-383.71 441,-375.11"/>
<polygon fill="black" stroke="black" points="444.5,-375.1 441,-365.1 437.5,-375.1 444.5,-375.1"/>
</g>
<!-- Errors::make -->
<g id="node5" class="node">
<title>Errors::make</title>
<ellipse fill="none" stroke="black" cx="143" cy="-34" rx="30.59" ry="18"/>
<text text-anchor="middle" x="143" y="-30.3" font-family="Times,serif" font-size="14.00">make</text>
</g>
<!-- Errors::not_published&#45;&gt;Errors::make -->
<g id="edge4" class="edge">
<title>Errors::not_published&#45;&gt;Errors::make</title>
<path fill="none" stroke="black" d="M89.88,-99.22C99.72,-87.32 113.05,-71.21 123.89,-58.1"/>
<polygon fill="black" stroke="black" points="126.59,-60.33 130.27,-50.39 121.2,-55.87 126.59,-60.33"/>
</g>
<!-- reconfigure_&#45;&gt;CoreAddresses::DIEM_ROOT_ADDRESS -->
<g id="edge6" class="edge">
<title>reconfigure_&#45;&gt;CoreAddresses::DIEM_ROOT_ADDRESS</title>
<path fill="none" stroke="black" d="M494.81,-342.56C526.42,-339.29 562.08,-333 572,-321 634.33,-245.65 593.17,-117.18 570.78,-61.76"/>
<polygon fill="black" stroke="black" points="573.92,-60.18 566.85,-52.29 567.45,-62.86 573.92,-60.18"/>
</g>
<!-- Errors::invalid_state -->
<g id="node6" class="node">
<title>Errors::invalid_state</title>
<ellipse fill="none" stroke="black" cx="210" cy="-117" rx="55.79" ry="18"/>
<text text-anchor="middle" x="210" y="-113.3" font-family="Times,serif" font-size="14.00">invalid_state</text>
</g>
<!-- reconfigure_&#45;&gt;Errors::invalid_state -->
<g id="edge5" class="edge">
<title>reconfigure_&#45;&gt;Errors::invalid_state</title>
<path fill="none" stroke="black" d="M386.27,-344.13C345.15,-341.56 293.39,-335.46 278,-321 229.27,-275.21 271.6,-235.77 246,-174 241.57,-163.32 235.11,-152.44 228.88,-143.14"/>
<polygon fill="black" stroke="black" points="231.63,-140.97 223.05,-134.77 225.89,-144.97 231.63,-140.97"/>
</g>
<!-- DiemTimestamp::is_genesis -->
<g id="node7" class="node">
<title>DiemTimestamp::is_genesis</title>
<ellipse fill="none" stroke="black" cx="513" cy="-272" rx="46.59" ry="18"/>
<text text-anchor="middle" x="513" y="-268.3" font-family="Times,serif" font-size="14.00">is_genesis</text>
</g>
<!-- reconfigure_&#45;&gt;DiemTimestamp::is_genesis -->
<g id="edge7" class="edge">
<title>reconfigure_&#45;&gt;DiemTimestamp::is_genesis</title>
<path fill="none" stroke="black" d="M457.34,-329.44C467.05,-319.59 479.51,-306.96 490.18,-296.14"/>
<polygon fill="black" stroke="black" points="492.69,-298.58 497.22,-289 487.71,-293.66 492.69,-298.58"/>
</g>
<!-- DiemTimestamp::now_microseconds -->
<g id="node8" class="node">
<title>DiemTimestamp::now_microseconds</title>
<ellipse fill="none" stroke="black" cx="369" cy="-272" rx="79.09" ry="18"/>
<text text-anchor="middle" x="369" y="-268.3" font-family="Times,serif" font-size="14.00">now_microseconds</text>
</g>
<!-- reconfigure_&#45;&gt;DiemTimestamp::now_microseconds -->
<g id="edge8" class="edge">
<title>reconfigure_&#45;&gt;DiemTimestamp::now_microseconds</title>
<path fill="none" stroke="black" d="M424.66,-329.44C415.25,-319.89 403.24,-307.72 392.8,-297.13"/>
<polygon fill="black" stroke="black" points="395.04,-294.41 385.52,-289.75 390.05,-299.33 395.04,-294.41"/>
</g>
<!-- Event::emit_event -->
<g id="node9" class="node">
<title>Event::emit_event</title>
<ellipse fill="none" stroke="black" cx="166" cy="-272" rx="50.09" ry="18"/>
<text text-anchor="middle" x="166" y="-268.3" font-family="Times,serif" font-size="14.00">emit_event</text>
</g>
<!-- reconfigure_&#45;&gt;Event::emit_event -->
<g id="edge9" class="edge">
<title>reconfigure_&#45;&gt;Event::emit_event</title>
<path fill="none" stroke="black" d="M386.02,-344.7C346.67,-342.38 292.92,-336.35 248,-321 229.47,-314.67 210.49,-303.89 195.47,-294.15"/>
<polygon fill="black" stroke="black" points="197.37,-291.21 187.11,-288.57 193.49,-297.03 197.37,-291.21"/>
</g>
<!-- reconfiguration_enabled -->
<g id="node10" class="node">
<title>reconfiguration_enabled</title>
<ellipse fill="none" stroke="black" cx="712" cy="-272" rx="96.38" ry="18"/>
<text text-anchor="middle" x="712" y="-268.3" font-family="Times,serif" font-size="14.00">reconfiguration_enabled</text>
</g>
<!-- reconfigure_&#45;&gt;reconfiguration_enabled -->
<g id="edge10" class="edge">
<title>reconfigure_&#45;&gt;reconfiguration_enabled</title>
<path fill="none" stroke="black" d="M493.58,-341.29C525.41,-337.59 566.55,-331.3 602,-321 625.94,-314.04 651.54,-303.1 672.01,-293.42"/>
<polygon fill="black" stroke="black" points="673.54,-296.57 681.03,-289.08 670.5,-290.26 673.54,-296.57"/>
</g>
<!-- Errors::invalid_state&#45;&gt;Errors::make -->
<g id="edge11" class="edge">
<title>Errors::invalid_state&#45;&gt;Errors::make</title>
<path fill="none" stroke="black" d="M196.12,-99.22C186.28,-87.32 172.95,-71.21 162.11,-58.1"/>
<polygon fill="black" stroke="black" points="164.8,-55.87 155.73,-50.39 159.41,-60.33 164.8,-55.87"/>
</g>
<!-- DiemTimestamp::is_genesis&#45;&gt;CoreAddresses::DIEM_ROOT_ADDRESS -->
<g id="edge12" class="edge">
<title>DiemTimestamp::is_genesis&#45;&gt;CoreAddresses::DIEM_ROOT_ADDRESS</title>
<path fill="none" stroke="black" d="M516.31,-254.03C524.2,-213.56 544.16,-111.12 553.73,-62.03"/>
<polygon fill="black" stroke="black" points="557.18,-62.62 555.66,-52.14 550.31,-61.28 557.18,-62.62"/>
</g>
<!-- DiemTimestamp::now_microseconds&#45;&gt;CoreAddresses::DIEM_ROOT_ADDRESS -->
<g id="edge13" class="edge">
<title>DiemTimestamp::now_microseconds&#45;&gt;CoreAddresses::DIEM_ROOT_ADDRESS</title>
<path fill="none" stroke="black" d="M397.87,-255.11C413.33,-245.68 432.02,-232.7 446,-218 470.28,-192.48 520.14,-105.19 544.7,-61.03"/>
<polygon fill="black" stroke="black" points="547.89,-62.49 549.67,-52.05 541.76,-59.1 547.89,-62.49"/>
</g>
<!-- DiemTimestamp::assert_operating -->
<g id="node11" class="node">
<title>DiemTimestamp::assert_operating</title>
<ellipse fill="none" stroke="black" cx="369" cy="-200" rx="68.49" ry="18"/>
<text text-anchor="middle" x="369" y="-196.3" font-family="Times,serif" font-size="14.00">assert_operating</text>
</g>
<!-- DiemTimestamp::now_microseconds&#45;&gt;DiemTimestamp::assert_operating -->
<g id="edge14" class="edge">
<title>DiemTimestamp::now_microseconds&#45;&gt;DiemTimestamp::assert_operating</title>
<path fill="none" stroke="black" d="M369,-253.7C369,-245.98 369,-236.71 369,-228.11"/>
<polygon fill="black" stroke="black" points="372.5,-228.1 369,-218.1 365.5,-228.1 372.5,-228.1"/>
</g>
<!-- Event::write_to_event_store -->
<g id="node12" class="node">
<title>Event::write_to_event_store</title>
<ellipse fill="none" stroke="black" cx="149" cy="-200" rx="85.29" ry="18"/>
<text text-anchor="middle" x="149" y="-196.3" font-family="Times,serif" font-size="14.00">write_to_event_store</text>
</g>
<!-- Event::emit_event&#45;&gt;Event::write_to_event_store -->
<g id="edge15" class="edge">
<title>Event::emit_event&#45;&gt;Event::write_to_event_store</title>
<path fill="none" stroke="black" d="M161.88,-254.05C159.99,-246.26 157.7,-236.82 155.58,-228.08"/>
<polygon fill="black" stroke="black" points="158.96,-227.17 153.2,-218.28 152.15,-228.82 158.96,-227.17"/>
</g>
<!-- reconfiguration_enabled&#45;&gt;CoreAddresses::DIEM_ROOT_ADDRESS -->
<g id="edge16" class="edge">
<title>reconfiguration_enabled&#45;&gt;CoreAddresses::DIEM_ROOT_ADDRESS</title>
<path fill="none" stroke="black" d="M702.28,-253.74C683.78,-221.23 641.8,-148.97 602,-91 594.92,-80.68 586.64,-69.69 579.26,-60.2"/>
<polygon fill="black" stroke="black" points="581.98,-58 573.05,-52.3 576.48,-62.32 581.98,-58"/>
</g>
<!-- DiemTimestamp::assert_operating&#45;&gt;Errors::invalid_state -->
<g id="edge17" class="edge">
<title>DiemTimestamp::assert_operating&#45;&gt;Errors::invalid_state</title>
<path fill="none" stroke="black" d="M325.86,-186C310.38,-180.65 293.05,-173.86 278,-166 264.09,-158.73 249.74,-148.99 237.82,-140.18"/>
<polygon fill="black" stroke="black" points="239.71,-137.22 229.62,-133.98 235.49,-142.8 239.71,-137.22"/>
</g>
<!-- DiemTimestamp::is_operating -->
<g id="node13" class="node">
<title>DiemTimestamp::is_operating</title>
<ellipse fill="none" stroke="black" cx="378" cy="-117" rx="53.89" ry="18"/>
<text text-anchor="middle" x="378" y="-113.3" font-family="Times,serif" font-size="14.00">is_operating</text>
</g>
<!-- DiemTimestamp::assert_operating&#45;&gt;DiemTimestamp::is_operating -->
<g id="edge18" class="edge">
<title>DiemTimestamp::assert_operating&#45;&gt;DiemTimestamp::is_operating</title>
<path fill="none" stroke="black" d="M370.91,-181.82C372.09,-171.19 373.63,-157.31 374.98,-145.2"/>
<polygon fill="black" stroke="black" points="378.47,-145.48 376.09,-135.15 371.51,-144.71 378.47,-145.48"/>
</g>
<!-- DiemTimestamp::is_operating&#45;&gt;CoreAddresses::DIEM_ROOT_ADDRESS -->
<g id="edge19" class="edge">
<title>DiemTimestamp::is_operating&#45;&gt;CoreAddresses::DIEM_ROOT_ADDRESS</title>
<path fill="none" stroke="black" d="M409.12,-102.08C438,-89.15 481.34,-69.75 514,-55.14"/>
<polygon fill="black" stroke="black" points="515.63,-58.24 523.33,-50.96 512.77,-51.85 515.63,-58.24"/>
</g>
</g>
</svg>
