<?xml version="1.0" encoding="UTF-8" standalone="no"?>
<!DOCTYPE svg PUBLIC "-//W3C//DTD SVG 1.1//EN"
 "http://www.w3.org/Graphics/SVG/1.1/DTD/svg11.dtd">
<!-- Generated by graphviz version 2.46.1 (20210213.1702)
 -->
<!-- Title: G Pages: 1 -->
<svg width="1404pt" height="509pt"
 viewBox="0.00 0.00 1404.00 509.00" xmlns="http://www.w3.org/2000/svg" xmlns:xlink="http://www.w3.org/1999/xlink">
<g id="graph0" class="graph" transform="scale(1 1) rotate(0) translate(4 505)">
<title>G</title>
<polygon fill="white" stroke="transparent" points="-4,4 -4,-505 1400,-505 1400,4 -4,4"/>
<g id="clust1" class="cluster">
<title>cluster_Signer</title>
<polygon fill="none" stroke="black" points="8,-8 8,-155 158,-155 158,-8 8,-8"/>
<text text-anchor="middle" x="83" y="-139.8" font-family="Times,serif" font-size="14.00">Signer</text>
</g>
<g id="clust2" class="cluster">
<title>cluster_Errors</title>
<polygon fill="none" stroke="black" points="918,-80 918,-238 1388,-238 1388,-80 918,-80"/>
<text text-anchor="middle" x="1153" y="-222.8" font-family="Times,serif" font-size="14.00">Errors</text>
</g>
<g id="clust3" class="cluster">
<title>cluster_Roles</title>
<polygon fill="none" stroke="black" points="103,-163 103,-385 734,-385 734,-163 103,-163"/>
<text text-anchor="middle" x="418.5" y="-369.8" font-family="Times,serif" font-size="14.00">Roles</text>
</g>
<g id="clust4" class="cluster">
<title>cluster_Diem</title>
<polygon fill="none" stroke="black" points="742,-163 742,-385 910,-385 910,-163 742,-163"/>
<text text-anchor="middle" x="826" y="-369.8" font-family="Times,serif" font-size="14.00">Diem</text>
</g>
<g id="clust5" class="cluster">
<title>cluster_CoreAddresses</title>
<polygon fill="none" stroke="black" points="638,-80 638,-155 910,-155 910,-80 638,-80"/>
<text text-anchor="middle" x="774" y="-139.8" font-family="Times,serif" font-size="14.00">CoreAddresses</text>
</g>
<!-- add_currencies_for_account -->
<g id="node1" class="node">
<title>add_currencies_for_account</title>
<ellipse fill="none" stroke="black" cx="411" cy="-483" rx="110.48" ry="18"/>
<text text-anchor="middle" x="411" y="-479.3" font-family="Times,serif" font-size="14.00">add_currencies_for_account</text>
</g>
<!-- Signer::address_of -->
<g id="node2" class="node">
<title>Signer::address_of</title>
<ellipse fill="none" stroke="black" cx="83" cy="-106" rx="48.99" ry="18"/>
<text text-anchor="middle" x="83" y="-102.3" font-family="Times,serif" font-size="14.00">address_of</text>
</g>
<!-- add_currencies_for_account&#45;&gt;Signer::address_of -->
<g id="edge1" class="edge">
<title>add_currencies_for_account&#45;&gt;Signer::address_of</title>
<path fill="none" stroke="black" d="M315.63,-473.87C242.71,-463.42 143.11,-439.54 73,-385 53.51,-369.84 45,-361.7 45,-337 45,-337 45,-337 45,-263 45,-216.42 61.19,-164.18 72.44,-133.52"/>
<polygon fill="black" stroke="black" points="75.78,-134.57 76.03,-123.98 69.23,-132.11 75.78,-134.57"/>
</g>
<!-- add_currency -->
<g id="node3" class="node">
<title>add_currency</title>
<ellipse fill="none" stroke="black" cx="777" cy="-411" rx="58.49" ry="18"/>
<text text-anchor="middle" x="777" y="-407.3" font-family="Times,serif" font-size="14.00">add_currency</text>
</g>
<!-- add_currencies_for_account&#45;&gt;add_currency -->
<g id="edge2" class="edge">
<title>add_currencies_for_account&#45;&gt;add_currency</title>
<path fill="none" stroke="black" d="M479.84,-468.83C548.74,-455.66 653.57,-435.61 718.54,-423.18"/>
<polygon fill="black" stroke="black" points="719.45,-426.57 728.62,-421.25 718.14,-419.69 719.45,-426.57"/>
</g>
<!-- Signer::borrow_address -->
<g id="node4" class="node">
<title>Signer::borrow_address</title>
<ellipse fill="none" stroke="black" cx="83" cy="-34" rx="66.89" ry="18"/>
<text text-anchor="middle" x="83" y="-30.3" font-family="Times,serif" font-size="14.00">borrow_address</text>
</g>
<!-- Signer::address_of&#45;&gt;Signer::borrow_address -->
<g id="edge3" class="edge">
<title>Signer::address_of&#45;&gt;Signer::borrow_address</title>
<path fill="none" stroke="black" d="M83,-87.7C83,-79.98 83,-70.71 83,-62.11"/>
<polygon fill="black" stroke="black" points="86.5,-62.1 83,-52.1 79.5,-62.1 86.5,-62.1"/>
</g>
<!-- add_currency&#45;&gt;Signer::address_of -->
<g id="edge4" class="edge">
<title>add_currency&#45;&gt;Signer::address_of</title>
<path fill="none" stroke="black" d="M718.48,-409.96C557.92,-409.56 120.96,-406.51 99,-385 64.07,-350.78 74.35,-197.05 80.21,-134.05"/>
<polygon fill="black" stroke="black" points="83.69,-134.36 81.17,-124.07 76.72,-133.69 83.69,-134.36"/>
</g>
<!-- Errors::already_published -->
<g id="node5" class="node">
<title>Errors::already_published</title>
<ellipse fill="none" stroke="black" cx="1140" cy="-189" rx="75.29" ry="18"/>
<text text-anchor="middle" x="1140" y="-185.3" font-family="Times,serif" font-size="14.00">already_published</text>
</g>
<!-- add_currency&#45;&gt;Errors::already_published -->
<g id="edge5" class="edge">
<title>add_currency&#45;&gt;Errors::already_published</title>
<path fill="none" stroke="black" d="M833.74,-406.44C859.25,-403.15 889.14,-396.89 914,-385 1002.09,-342.86 1082.95,-257.1 1119.49,-214.77"/>
<polygon fill="black" stroke="black" points="1122.37,-216.79 1126.2,-206.91 1117.05,-212.25 1122.37,-216.79"/>
</g>
<!-- Errors::invalid_argument -->
<g id="node6" class="node">
<title>Errors::invalid_argument</title>
<ellipse fill="none" stroke="black" cx="1307" cy="-189" rx="73.39" ry="18"/>
<text text-anchor="middle" x="1307" y="-185.3" font-family="Times,serif" font-size="14.00">invalid_argument</text>
</g>
<!-- add_currency&#45;&gt;Errors::invalid_argument -->
<g id="edge6" class="edge">
<title>add_currency&#45;&gt;Errors::invalid_argument</title>
<path fill="none" stroke="black" d="M835.44,-408.87C875.85,-406.61 930.36,-400.57 976,-385 1097.04,-343.72 1222.45,-254.88 1277.78,-212.89"/>
<polygon fill="black" stroke="black" points="1280.23,-215.42 1286.05,-206.56 1275.98,-209.86 1280.23,-215.42"/>
</g>
<!-- Roles::can_hold_balance -->
<g id="node7" class="node">
<title>Roles::can_hold_balance</title>
<ellipse fill="none" stroke="black" cx="524" cy="-336" rx="74.19" ry="18"/>
<text text-anchor="middle" x="524" y="-332.3" font-family="Times,serif" font-size="14.00">can_hold_balance</text>
</g>
<!-- add_currency&#45;&gt;Roles::can_hold_balance -->
<g id="edge7" class="edge">
<title>add_currency&#45;&gt;Roles::can_hold_balance</title>
<path fill="none" stroke="black" d="M735.79,-398.11C693.3,-385.85 626.79,-366.66 579.66,-353.06"/>
<polygon fill="black" stroke="black" points="580.49,-349.66 569.91,-350.25 578.54,-356.38 580.49,-349.66"/>
</g>
<!-- Diem::assert_is_currency -->
<g id="node8" class="node">
<title>Diem::assert_is_currency</title>
<ellipse fill="none" stroke="black" cx="826" cy="-264" rx="76.09" ry="18"/>
<text text-anchor="middle" x="826" y="-260.3" font-family="Times,serif" font-size="14.00">assert_is_currency</text>
</g>
<!-- add_currency&#45;&gt;Diem::assert_is_currency -->
<g id="edge8" class="edge">
<title>add_currency&#45;&gt;Diem::assert_is_currency</title>
<path fill="none" stroke="black" d="M804.6,-394.77C807.88,-391.92 810.82,-388.66 813,-385 829.76,-356.78 830.88,-318.17 829.22,-292.45"/>
<polygon fill="black" stroke="black" points="832.69,-291.96 828.38,-282.28 825.72,-292.54 832.69,-291.96"/>
</g>
<!-- Diem::zero -->
<g id="node9" class="node">
<title>Diem::zero</title>
<ellipse fill="none" stroke="black" cx="777" cy="-336" rx="27" ry="18"/>
<text text-anchor="middle" x="777" y="-332.3" font-family="Times,serif" font-size="14.00">zero</text>
</g>
<!-- add_currency&#45;&gt;Diem::zero -->
<g id="edge9" class="edge">
<title>add_currency&#45;&gt;Diem::zero</title>
<path fill="none" stroke="black" d="M777,-392.7C777,-384.25 777,-373.87 777,-364.37"/>
<polygon fill="black" stroke="black" points="780.5,-364.18 777,-354.18 773.5,-364.18 780.5,-364.18"/>
</g>
<!-- Errors::make -->
<g id="node10" class="node">
<title>Errors::make</title>
<ellipse fill="none" stroke="black" cx="1140" cy="-106" rx="30.59" ry="18"/>
<text text-anchor="middle" x="1140" y="-102.3" font-family="Times,serif" font-size="14.00">make</text>
</g>
<!-- Errors::already_published&#45;&gt;Errors::make -->
<g id="edge10" class="edge">
<title>Errors::already_published&#45;&gt;Errors::make</title>
<path fill="none" stroke="black" d="M1140,-170.82C1140,-160.19 1140,-146.31 1140,-134.2"/>
<polygon fill="black" stroke="black" points="1143.5,-134.15 1140,-124.15 1136.5,-134.15 1143.5,-134.15"/>
</g>
<!-- Errors::invalid_argument&#45;&gt;Errors::make -->
<g id="edge11" class="edge">
<title>Errors::invalid_argument&#45;&gt;Errors::make</title>
<path fill="none" stroke="black" d="M1275.2,-172.57C1245.56,-158.2 1201.61,-136.88 1171.94,-122.49"/>
<polygon fill="black" stroke="black" points="1173.37,-119.29 1162.84,-118.08 1170.31,-125.59 1173.37,-119.29"/>
</g>
<!-- Roles::has_child_VASP_role -->
<g id="node11" class="node">
<title>Roles::has_child_VASP_role</title>
<ellipse fill="none" stroke="black" cx="199" cy="-264" rx="88.28" ry="18"/>
<text text-anchor="middle" x="199" y="-260.3" font-family="Times,serif" font-size="14.00">has_child_VASP_role</text>
</g>
<!-- Roles::can_hold_balance&#45;&gt;Roles::has_child_VASP_role -->
<g id="edge12" class="edge">
<title>Roles::can_hold_balance&#45;&gt;Roles::has_child_VASP_role</title>
<path fill="none" stroke="black" d="M470.33,-323.44C414.74,-311.47 327.7,-292.72 267.26,-279.7"/>
<polygon fill="black" stroke="black" points="267.93,-276.27 257.42,-277.58 266.46,-283.11 267.93,-276.27"/>
</g>
<!-- Roles::has_designated_dealer_role -->
<g id="node12" class="node">
<title>Roles::has_designated_dealer_role</title>
<ellipse fill="none" stroke="black" cx="414" cy="-264" rx="108.58" ry="18"/>
<text text-anchor="middle" x="414" y="-260.3" font-family="Times,serif" font-size="14.00">has_designated_dealer_role</text>
</g>
<!-- Roles::can_hold_balance&#45;&gt;Roles::has_designated_dealer_role -->
<g id="edge13" class="edge">
<title>Roles::can_hold_balance&#45;&gt;Roles::has_designated_dealer_role</title>
<path fill="none" stroke="black" d="M498.76,-318.94C483.99,-309.54 465.12,-297.53 448.94,-287.23"/>
<polygon fill="black" stroke="black" points="450.58,-284.13 440.27,-281.72 446.82,-290.04 450.58,-284.13"/>
</g>
<!-- Roles::has_parent_VASP_role -->
<g id="node13" class="node">
<title>Roles::has_parent_VASP_role</title>
<ellipse fill="none" stroke="black" cx="633" cy="-264" rx="92.88" ry="18"/>
<text text-anchor="middle" x="633" y="-260.3" font-family="Times,serif" font-size="14.00">has_parent_VASP_role</text>
</g>
<!-- Roles::can_hold_balance&#45;&gt;Roles::has_parent_VASP_role -->
<g id="edge14" class="edge">
<title>Roles::can_hold_balance&#45;&gt;Roles::has_parent_VASP_role</title>
<path fill="none" stroke="black" d="M549.01,-318.94C563.75,-309.47 582.61,-297.36 598.73,-287.01"/>
<polygon fill="black" stroke="black" points="600.83,-289.82 607.35,-281.47 597.05,-283.93 600.83,-289.82"/>
</g>
<!-- Errors::not_published -->
<g id="node14" class="node">
<title>Errors::not_published</title>
<ellipse fill="none" stroke="black" cx="986" cy="-189" rx="60.39" ry="18"/>
<text text-anchor="middle" x="986" y="-185.3" font-family="Times,serif" font-size="14.00">not_published</text>
</g>
<!-- Diem::assert_is_currency&#45;&gt;Errors::not_published -->
<g id="edge15" class="edge">
<title>Diem::assert_is_currency&#45;&gt;Errors::not_published</title>
<path fill="none" stroke="black" d="M878.62,-250.94C890.51,-247.43 902.9,-243.12 914,-238 929.07,-231.04 944.55,-221.15 957.27,-212.15"/>
<polygon fill="black" stroke="black" points="959.56,-214.81 965.6,-206.11 955.45,-209.15 959.56,-214.81"/>
</g>
<!-- Diem::is_currency -->
<g id="node15" class="node">
<title>Diem::is_currency</title>
<ellipse fill="none" stroke="black" cx="814" cy="-189" rx="51.99" ry="18"/>
<text text-anchor="middle" x="814" y="-185.3" font-family="Times,serif" font-size="14.00">is_currency</text>
</g>
<!-- Diem::assert_is_currency&#45;&gt;Diem::is_currency -->
<g id="edge16" class="edge">
<title>Diem::assert_is_currency&#45;&gt;Diem::is_currency</title>
<path fill="none" stroke="black" d="M823.16,-245.7C821.75,-237.15 820.02,-226.65 818.45,-217.07"/>
<polygon fill="black" stroke="black" points="821.9,-216.48 816.82,-207.18 814.99,-217.61 821.9,-216.48"/>
</g>
<!-- Diem::zero&#45;&gt;Diem::assert_is_currency -->
<g id="edge17" class="edge">
<title>Diem::zero&#45;&gt;Diem::assert_is_currency</title>
<path fill="none" stroke="black" d="M787.87,-319.46C793.89,-310.87 801.52,-299.97 808.37,-290.19"/>
<polygon fill="black" stroke="black" points="811.26,-292.16 814.13,-281.96 805.52,-288.15 811.26,-292.16"/>
</g>
<!-- Roles::has_role -->
<g id="node16" class="node">
<title>Roles::has_role</title>
<ellipse fill="none" stroke="black" cx="306" cy="-189" rx="40.09" ry="18"/>
<text text-anchor="middle" x="306" y="-185.3" font-family="Times,serif" font-size="14.00">has_role</text>
</g>
<!-- Roles::has_child_VASP_role&#45;&gt;Roles::has_role -->
<g id="edge18" class="edge">
<title>Roles::has_child_VASP_role&#45;&gt;Roles::has_role</title>
<path fill="none" stroke="black" d="M223.01,-246.62C238.86,-235.81 259.72,-221.57 276.57,-210.08"/>
<polygon fill="black" stroke="black" points="278.67,-212.88 284.96,-204.35 274.73,-207.1 278.67,-212.88"/>
</g>
<!-- Roles::has_designated_dealer_role&#45;&gt;Roles::has_role -->
<g id="edge19" class="edge">
<title>Roles::has_designated_dealer_role&#45;&gt;Roles::has_role</title>
<path fill="none" stroke="black" d="M389.49,-246.44C373.59,-235.69 352.77,-221.62 335.9,-210.21"/>
<polygon fill="black" stroke="black" points="337.73,-207.22 327.49,-204.52 333.81,-213.02 337.73,-207.22"/>
</g>
<!-- Roles::has_parent_VASP_role&#45;&gt;Roles::has_role -->
<g id="edge20" class="edge">
<title>Roles::has_parent_VASP_role&#45;&gt;Roles::has_role</title>
<path fill="none" stroke="black" d="M574.54,-249.95C510.59,-235.67 409.47,-213.1 351.28,-200.11"/>
<polygon fill="black" stroke="black" points="351.8,-196.64 341.28,-197.88 350.28,-203.47 351.8,-196.64"/>
</g>
<!-- Errors::not_published&#45;&gt;Errors::make -->
<g id="edge21" class="edge">
<title>Errors::not_published&#45;&gt;Errors::make</title>
<path fill="none" stroke="black" d="M1014.61,-172.95C1041.37,-158.88 1081.26,-137.9 1108.83,-123.4"/>
<polygon fill="black" stroke="black" points="1110.8,-126.31 1118.02,-118.56 1107.54,-120.12 1110.8,-126.31"/>
</g>
<!-- CoreAddresses::CURRENCY_INFO_ADDRESS -->
<g id="node17" class="node">
<title>CoreAddresses::CURRENCY_INFO_ADDRESS</title>
<ellipse fill="none" stroke="black" cx="774" cy="-106" rx="128.08" ry="18"/>
<text text-anchor="middle" x="774" y="-102.3" font-family="Times,serif" font-size="14.00">CURRENCY_INFO_ADDRESS</text>
</g>
<!-- Diem::is_currency&#45;&gt;CoreAddresses::CURRENCY_INFO_ADDRESS -->
<g id="edge22" class="edge">
<title>Diem::is_currency&#45;&gt;CoreAddresses::CURRENCY_INFO_ADDRESS</title>
<path fill="none" stroke="black" d="M805.71,-171.22C800.28,-160.21 793.06,-145.6 786.89,-133.1"/>
<polygon fill="black" stroke="black" points="789.98,-131.46 782.42,-124.04 783.7,-134.56 789.98,-131.46"/>
</g>
<!-- Roles::has_role&#45;&gt;Signer::address_of -->
<g id="edge23" class="edge">
<title>Roles::has_role&#45;&gt;Signer::address_of</title>
<path fill="none" stroke="black" d="M275.46,-176.91C236.76,-162.85 169.82,-138.53 125.97,-122.61"/>
<polygon fill="black" stroke="black" points="127.04,-119.27 116.44,-119.15 124.65,-125.85 127.04,-119.27"/>
</g>
</g>
</svg>
