<?xml version="1.0" encoding="UTF-8" standalone="no"?>
<!DOCTYPE svg PUBLIC "-//W3C//DTD SVG 1.1//EN"
 "http://www.w3.org/Graphics/SVG/1.1/DTD/svg11.dtd">
<!-- Generated by graphviz version 2.46.1 (20210213.1702)
 -->
<!-- Title: G Pages: 1 -->
<svg width="754pt" height="445pt"
 viewBox="0.00 0.00 754.10 445.00" xmlns="http://www.w3.org/2000/svg" xmlns:xlink="http://www.w3.org/1999/xlink">
<g id="graph0" class="graph" transform="scale(1 1) rotate(0) translate(4 441)">
<title>G</title>
<polygon fill="white" stroke="transparent" points="-4,4 -4,-441 750.1,-441 750.1,4 -4,4"/>
<g id="clust1" class="cluster">
<title>cluster_DiemConfig</title>
<polygon fill="none" stroke="black" points="225,-246 225,-321 309,-321 309,-246 225,-246"/>
<text text-anchor="middle" x="267" y="-305.8" font-family="Times,serif" font-size="14.00">DiemConfig</text>
</g>
<g id="clust2" class="cluster">
<title>cluster_Option</title>
<polygon fill="none" stroke="black" points="390,-163 390,-238 638,-238 638,-163 390,-163"/>
<text text-anchor="middle" x="514" y="-222.8" font-family="Times,serif" font-size="14.00">Option</text>
</g>
<g id="clust3" class="cluster">
<title>cluster_Errors</title>
<polygon fill="none" stroke="black" points="8,-80 8,-238 144,-238 144,-80 8,-80"/>
<text text-anchor="middle" x="76" y="-222.8" font-family="Times,serif" font-size="14.00">Errors</text>
</g>
<g id="clust4" class="cluster">
<title>cluster_CoreAddresses</title>
<polygon fill="none" stroke="black" points="152,-163 152,-238 382,-238 382,-163 152,-163"/>
<text text-anchor="middle" x="267" y="-222.8" font-family="Times,serif" font-size="14.00">CoreAddresses</text>
</g>
<g id="clust5" class="cluster">
<title>cluster_Vector</title>
<polygon fill="none" stroke="black" points="435,-8 435,-155 732,-155 732,-8 435,-8"/>
<text text-anchor="middle" x="583.5" y="-139.8" font-family="Times,serif" font-size="14.00">Vector</text>
</g>
<!-- is_validator -->
<g id="node1" class="node">
<title>is_validator</title>
<ellipse fill="none" stroke="black" cx="384" cy="-419" rx="51.99" ry="18"/>
<text text-anchor="middle" x="384" y="-415.3" font-family="Times,serif" font-size="14.00">is_validator</text>
</g>
<!-- get_diem_system_config -->
<g id="node2" class="node">
<title>get_diem_system_config</title>
<ellipse fill="none" stroke="black" cx="297" cy="-347" rx="99.38" ry="18"/>
<text text-anchor="middle" x="297" y="-343.3" font-family="Times,serif" font-size="14.00">get_diem_system_config</text>
</g>
<!-- is_validator&#45;&gt;get_diem_system_config -->
<g id="edge1" class="edge">
<title>is_validator&#45;&gt;get_diem_system_config</title>
<path fill="none" stroke="black" d="M364.26,-402.12C352.91,-392.98 338.44,-381.35 325.84,-371.2"/>
<polygon fill="black" stroke="black" points="327.86,-368.34 317.88,-364.8 323.47,-373.79 327.86,-368.34"/>
</g>
<!-- is_validator_ -->
<g id="node3" class="node">
<title>is_validator_</title>
<ellipse fill="none" stroke="black" cx="489" cy="-347" rx="56.59" ry="18"/>
<text text-anchor="middle" x="489" y="-343.3" font-family="Times,serif" font-size="14.00">is_validator_</text>
</g>
<!-- is_validator&#45;&gt;is_validator_ -->
<g id="edge2" class="edge">
<title>is_validator&#45;&gt;is_validator_</title>
<path fill="none" stroke="black" d="M406.78,-402.81C421.44,-393.04 440.7,-380.2 456.9,-369.4"/>
<polygon fill="black" stroke="black" points="459.15,-372.1 465.53,-363.64 455.27,-366.28 459.15,-372.1"/>
</g>
<!-- DiemConfig::get -->
<g id="node4" class="node">
<title>DiemConfig::get</title>
<ellipse fill="none" stroke="black" cx="267" cy="-272" rx="27" ry="18"/>
<text text-anchor="middle" x="267" y="-268.3" font-family="Times,serif" font-size="14.00">get</text>
</g>
<!-- get_diem_system_config&#45;&gt;DiemConfig::get -->
<g id="edge3" class="edge">
<title>get_diem_system_config&#45;&gt;DiemConfig::get</title>
<path fill="none" stroke="black" d="M289.89,-328.7C286.25,-319.85 281.75,-308.88 277.7,-299.03"/>
<polygon fill="black" stroke="black" points="280.89,-297.59 273.85,-289.67 274.42,-300.25 280.89,-297.59"/>
</g>
<!-- Option::is_some -->
<g id="node5" class="node">
<title>Option::is_some</title>
<ellipse fill="none" stroke="black" cx="590" cy="-189" rx="40.09" ry="18"/>
<text text-anchor="middle" x="590" y="-185.3" font-family="Times,serif" font-size="14.00">is_some</text>
</g>
<!-- is_validator_&#45;&gt;Option::is_some -->
<g id="edge4" class="edge">
<title>is_validator_&#45;&gt;Option::is_some</title>
<path fill="none" stroke="black" d="M544.23,-342.98C558.96,-339.39 573.42,-332.8 583,-321 606.66,-291.87 602.76,-245.97 596.98,-216.96"/>
<polygon fill="black" stroke="black" points="600.38,-216.11 594.81,-207.09 593.54,-217.61 600.38,-216.11"/>
</g>
<!-- get_validator_index_ -->
<g id="node6" class="node">
<title>get_validator_index_</title>
<ellipse fill="none" stroke="black" cx="489" cy="-272" rx="85.29" ry="18"/>
<text text-anchor="middle" x="489" y="-268.3" font-family="Times,serif" font-size="14.00">get_validator_index_</text>
</g>
<!-- is_validator_&#45;&gt;get_validator_index_ -->
<g id="edge5" class="edge">
<title>is_validator_&#45;&gt;get_validator_index_</title>
<path fill="none" stroke="black" d="M489,-328.7C489,-320.25 489,-309.87 489,-300.37"/>
<polygon fill="black" stroke="black" points="492.5,-300.18 489,-290.18 485.5,-300.18 492.5,-300.18"/>
</g>
<!-- Errors::not_published -->
<g id="node7" class="node">
<title>Errors::not_published</title>
<ellipse fill="none" stroke="black" cx="76" cy="-189" rx="60.39" ry="18"/>
<text text-anchor="middle" x="76" y="-185.3" font-family="Times,serif" font-size="14.00">not_published</text>
</g>
<!-- DiemConfig::get&#45;&gt;Errors::not_published -->
<g id="edge6" class="edge">
<title>DiemConfig::get&#45;&gt;Errors::not_published</title>
<path fill="none" stroke="black" d="M241.11,-266.3C216.43,-261.25 178.61,-252.01 148,-238 132.91,-231.09 117.43,-221.2 104.71,-212.2"/>
<polygon fill="black" stroke="black" points="106.53,-209.19 96.38,-206.15 102.42,-214.86 106.53,-209.19"/>
</g>
<!-- CoreAddresses::DIEM_ROOT_ADDRESS -->
<g id="node8" class="node">
<title>CoreAddresses::DIEM_ROOT_ADDRESS</title>
<ellipse fill="none" stroke="black" cx="267" cy="-189" rx="106.68" ry="18"/>
<text text-anchor="middle" x="267" y="-185.3" font-family="Times,serif" font-size="14.00">DIEM_ROOT_ADDRESS</text>
</g>
<!-- DiemConfig::get&#45;&gt;CoreAddresses::DIEM_ROOT_ADDRESS -->
<g id="edge7" class="edge">
<title>DiemConfig::get&#45;&gt;CoreAddresses::DIEM_ROOT_ADDRESS</title>
<path fill="none" stroke="black" d="M267,-253.82C267,-243.19 267,-229.31 267,-217.2"/>
<polygon fill="black" stroke="black" points="270.5,-217.15 267,-207.15 263.5,-217.15 270.5,-217.15"/>
</g>
<!-- Vector::is_empty -->
<g id="node9" class="node">
<title>Vector::is_empty</title>
<ellipse fill="none" stroke="black" cx="590" cy="-106" rx="43.59" ry="18"/>
<text text-anchor="middle" x="590" y="-102.3" font-family="Times,serif" font-size="14.00">is_empty</text>
</g>
<!-- Option::is_some&#45;&gt;Vector::is_empty -->
<g id="edge8" class="edge">
<title>Option::is_some&#45;&gt;Vector::is_empty</title>
<path fill="none" stroke="black" d="M590,-170.82C590,-160.19 590,-146.31 590,-134.2"/>
<polygon fill="black" stroke="black" points="593.5,-134.15 590,-124.15 586.5,-134.15 593.5,-134.15"/>
</g>
<!-- Vector::borrow -->
<g id="node10" class="node">
<title>Vector::borrow</title>
<ellipse fill="none" stroke="black" cx="688" cy="-106" rx="36.29" ry="18"/>
<text text-anchor="middle" x="688" y="-102.3" font-family="Times,serif" font-size="14.00">borrow</text>
</g>
<!-- get_validator_index_&#45;&gt;Vector::borrow -->
<g id="edge9" class="edge">
<title>get_validator_index_&#45;&gt;Vector::borrow</title>
<path fill="none" stroke="black" d="M561.07,-262.29C594.53,-256.91 629.62,-248.92 642,-238 671.95,-211.59 682.4,-164.5 686.05,-134.56"/>
<polygon fill="black" stroke="black" points="689.55,-134.68 687.11,-124.38 682.59,-133.96 689.55,-134.68"/>
</g>
<!-- Vector::length -->
<g id="node11" class="node">
<title>Vector::length</title>
<ellipse fill="none" stroke="black" cx="683" cy="-34" rx="32.49" ry="18"/>
<text text-anchor="middle" x="683" y="-30.3" font-family="Times,serif" font-size="14.00">length</text>
</g>
<!-- get_validator_index_&#45;&gt;Vector::length -->
<g id="edge10" class="edge">
<title>get_validator_index_&#45;&gt;Vector::length</title>
<path fill="none" stroke="black" d="M564.31,-263.53C607.5,-258.12 656.69,-249.69 675,-238 738.05,-197.74 763.43,-148.33 733,-80 728.5,-69.89 720.48,-61.11 712.17,-54.04"/>
<polygon fill="black" stroke="black" points="714.24,-51.22 704.21,-47.82 709.93,-56.74 714.24,-51.22"/>
</g>
<!-- Option::none -->
<g id="node12" class="node">
<title>Option::none</title>
<ellipse fill="none" stroke="black" cx="426" cy="-189" rx="27.9" ry="18"/>
<text text-anchor="middle" x="426" y="-185.3" font-family="Times,serif" font-size="14.00">none</text>
</g>
<!-- get_validator_index_&#45;&gt;Option::none -->
<g id="edge11" class="edge">
<title>get_validator_index_&#45;&gt;Option::none</title>
<path fill="none" stroke="black" d="M475.47,-253.9C471.45,-248.79 467.04,-243.18 463,-238 456.83,-230.08 450.11,-221.39 444.12,-213.61"/>
<polygon fill="black" stroke="black" points="446.83,-211.39 437.96,-205.6 441.28,-215.66 446.83,-211.39"/>
</g>
<!-- Option::some -->
<g id="node13" class="node">
<title>Option::some</title>
<ellipse fill="none" stroke="black" cx="502" cy="-189" rx="29.8" ry="18"/>
<text text-anchor="middle" x="502" y="-185.3" font-family="Times,serif" font-size="14.00">some</text>
</g>
<!-- get_validator_index_&#45;&gt;Option::some -->
<g id="edge12" class="edge">
<title>get_validator_index_&#45;&gt;Option::some</title>
<path fill="none" stroke="black" d="M491.76,-253.82C493.46,-243.19 495.69,-229.31 497.63,-217.2"/>
<polygon fill="black" stroke="black" points="501.12,-217.58 499.25,-207.15 494.21,-216.47 501.12,-217.58"/>
</g>
<!-- Errors::make -->
<g id="node14" class="node">
<title>Errors::make</title>
<ellipse fill="none" stroke="black" cx="76" cy="-106" rx="30.59" ry="18"/>
<text text-anchor="middle" x="76" y="-102.3" font-family="Times,serif" font-size="14.00">make</text>
</g>
<!-- Errors::not_published&#45;&gt;Errors::make -->
<g id="edge13" class="edge">
<title>Errors::not_published&#45;&gt;Errors::make</title>
<path fill="none" stroke="black" d="M76,-170.82C76,-160.19 76,-146.31 76,-134.2"/>
<polygon fill="black" stroke="black" points="79.5,-134.15 76,-124.15 72.5,-134.15 79.5,-134.15"/>
</g>
<!-- Vector::is_empty&#45;&gt;Vector::length -->
<g id="edge14" class="edge">
<title>Vector::is_empty&#45;&gt;Vector::length</title>
<path fill="none" stroke="black" d="M610.18,-89.81C623.67,-79.66 641.56,-66.19 656.23,-55.15"/>
<polygon fill="black" stroke="black" points="658.56,-57.78 664.44,-48.97 654.35,-52.19 658.56,-57.78"/>
</g>
<!-- Vector::empty -->
<g id="node15" class="node">
<title>Vector::empty</title>
<ellipse fill="none" stroke="black" cx="476" cy="-34" rx="33.29" ry="18"/>
<text text-anchor="middle" x="476" y="-30.3" font-family="Times,serif" font-size="14.00">empty</text>
</g>
<!-- Option::none&#45;&gt;Vector::empty -->
<g id="edge15" class="edge">
<title>Option::none&#45;&gt;Vector::empty</title>
<path fill="none" stroke="black" d="M423.87,-170.7C421.89,-148.64 420.96,-109.8 434,-80 437.76,-71.41 443.87,-63.43 450.28,-56.64"/>
<polygon fill="black" stroke="black" points="453.12,-58.76 457.82,-49.26 448.23,-53.76 453.12,-58.76"/>
</g>
<!-- Vector::singleton -->
<g id="node16" class="node">
<title>Vector::singleton</title>
<ellipse fill="none" stroke="black" cx="486" cy="-106" rx="42.79" ry="18"/>
<text text-anchor="middle" x="486" y="-102.3" font-family="Times,serif" font-size="14.00">singleton</text>
</g>
<!-- Option::some&#45;&gt;Vector::singleton -->
<g id="edge16" class="edge">
<title>Option::some&#45;&gt;Vector::singleton</title>
<path fill="none" stroke="black" d="M498.61,-170.82C496.51,-160.19 493.76,-146.31 491.37,-134.2"/>
<polygon fill="black" stroke="black" points="494.76,-133.29 489.39,-124.15 487.89,-134.64 494.76,-133.29"/>
</g>
<!-- Vector::singleton&#45;&gt;Vector::empty -->
<g id="edge17" class="edge">
<title>Vector::singleton&#45;&gt;Vector::empty</title>
<path fill="none" stroke="black" d="M483.53,-87.7C482.43,-79.98 481.1,-70.71 479.87,-62.11"/>
<polygon fill="black" stroke="black" points="483.32,-61.51 478.44,-52.1 476.39,-62.5 483.32,-61.51"/>
</g>
<!-- Vector::push_back -->
<g id="node17" class="node">
<title>Vector::push_back</title>
<ellipse fill="none" stroke="black" cx="575" cy="-34" rx="48.19" ry="18"/>
<text text-anchor="middle" x="575" y="-30.3" font-family="Times,serif" font-size="14.00">push_back</text>
</g>
<!-- Vector::singleton&#45;&gt;Vector::push_back -->
<g id="edge18" class="edge">
<title>Vector::singleton&#45;&gt;Vector::push_back</title>
<path fill="none" stroke="black" d="M505.31,-89.81C517.5,-80.22 533.46,-67.67 547.03,-57"/>
<polygon fill="black" stroke="black" points="549.41,-59.58 555.11,-50.64 545.09,-54.08 549.41,-59.58"/>
</g>
</g>
</svg>
