<?xml version="1.0" encoding="UTF-8" standalone="no"?>
<!DOCTYPE svg PUBLIC "-//W3C//DTD SVG 1.1//EN"
 "http://www.w3.org/Graphics/SVG/1.1/DTD/svg11.dtd">
<!-- Generated by graphviz version 2.46.1 (20210213.1702)
 -->
<!-- Title: G Pages: 1 -->
<svg width="401pt" height="282pt"
 viewBox="0.00 0.00 401.00 282.00" xmlns="http://www.w3.org/2000/svg" xmlns:xlink="http://www.w3.org/1999/xlink">
<g id="graph0" class="graph" transform="scale(1 1) rotate(0) translate(4 278)">
<title>G</title>
<polygon fill="white" stroke="transparent" points="-4,4 -4,-278 397,-278 397,4 -4,4"/>
<g id="clust1" class="cluster">
<title>cluster_CoreAddresses</title>
<polygon fill="none" stroke="black" points="8,-8 8,-83 238,-83 238,-8 8,-8"/>
<text text-anchor="middle" x="123" y="-67.8" font-family="Times,serif" font-size="14.00">CoreAddresses</text>
</g>
<g id="clust2" class="cluster">
<title>cluster_Errors</title>
<polygon fill="none" stroke="black" points="257,-8 257,-158 385,-158 385,-8 257,-8"/>
<text text-anchor="middle" x="321" y="-142.8" font-family="Times,serif" font-size="14.00">Errors</text>
</g>
<!-- now_microseconds -->
<g id="node1" class="node">
<title>now_microseconds</title>
<ellipse fill="none" stroke="black" cx="159" cy="-256" rx="79.09" ry="18"/>
<text text-anchor="middle" x="159" y="-252.3" font-family="Times,serif" font-size="14.00">now_microseconds</text>
</g>
<!-- CoreAddresses::DIEM_ROOT_ADDRESS -->
<g id="node2" class="node">
<title>CoreAddresses::DIEM_ROOT_ADDRESS</title>
<ellipse fill="none" stroke="black" cx="123" cy="-34" rx="106.68" ry="18"/>
<text text-anchor="middle" x="123" y="-30.3" font-family="Times,serif" font-size="14.00">DIEM_ROOT_ADDRESS</text>
</g>
<!-- now_microseconds&#45;&gt;CoreAddresses::DIEM_ROOT_ADDRESS -->
<g id="edge1" class="edge">
<title>now_microseconds&#45;&gt;CoreAddresses::DIEM_ROOT_ADDRESS</title>
<path fill="none" stroke="black" d="M146.9,-237.73C140.62,-227.77 133.54,-214.73 130,-202 116.74,-154.32 118.04,-96.05 120.39,-62.46"/>
<polygon fill="black" stroke="black" points="123.88,-62.71 121.17,-52.47 116.9,-62.17 123.88,-62.71"/>
</g>
<!-- assert_operating -->
<g id="node3" class="node">
<title>assert_operating</title>
<ellipse fill="none" stroke="black" cx="207" cy="-184" rx="68.49" ry="18"/>
<text text-anchor="middle" x="207" y="-180.3" font-family="Times,serif" font-size="14.00">assert_operating</text>
</g>
<!-- now_microseconds&#45;&gt;assert_operating -->
<g id="edge2" class="edge">
<title>now_microseconds&#45;&gt;assert_operating</title>
<path fill="none" stroke="black" d="M170.62,-238.05C176.34,-229.71 183.35,-219.49 189.68,-210.25"/>
<polygon fill="black" stroke="black" points="192.72,-212.02 195.49,-201.79 186.95,-208.06 192.72,-212.02"/>
</g>
<!-- Errors::invalid_state -->
<g id="node4" class="node">
<title>Errors::invalid_state</title>
<ellipse fill="none" stroke="black" cx="321" cy="-109" rx="55.79" ry="18"/>
<text text-anchor="middle" x="321" y="-105.3" font-family="Times,serif" font-size="14.00">invalid_state</text>
</g>
<!-- assert_operating&#45;&gt;Errors::invalid_state -->
<g id="edge3" class="edge">
<title>assert_operating&#45;&gt;Errors::invalid_state</title>
<path fill="none" stroke="black" d="M238.53,-167.88C244.43,-164.78 250.48,-161.42 256,-158 268.55,-150.24 281.76,-140.75 292.97,-132.27"/>
<polygon fill="black" stroke="black" points="295.31,-134.88 301.11,-126.02 291.04,-129.33 295.31,-134.88"/>
</g>
<!-- is_operating -->
<g id="node5" class="node">
<title>is_operating</title>
<ellipse fill="none" stroke="black" cx="193" cy="-109" rx="53.89" ry="18"/>
<text text-anchor="middle" x="193" y="-105.3" font-family="Times,serif" font-size="14.00">is_operating</text>
</g>
<!-- assert_operating&#45;&gt;is_operating -->
<g id="edge4" class="edge">
<title>assert_operating&#45;&gt;is_operating</title>
<path fill="none" stroke="black" d="M203.68,-165.7C202.04,-157.15 200.03,-146.65 198.19,-137.07"/>
<polygon fill="black" stroke="black" points="201.61,-136.34 196.29,-127.18 194.74,-137.66 201.61,-136.34"/>
</g>
<!-- Errors::make -->
<g id="node6" class="node">
<title>Errors::make</title>
<ellipse fill="none" stroke="black" cx="321" cy="-34" rx="30.59" ry="18"/>
<text text-anchor="middle" x="321" y="-30.3" font-family="Times,serif" font-size="14.00">make</text>
</g>
<!-- Errors::invalid_state&#45;&gt;Errors::make -->
<g id="edge5" class="edge">
<title>Errors::invalid_state&#45;&gt;Errors::make</title>
<path fill="none" stroke="black" d="M321,-90.7C321,-82.25 321,-71.87 321,-62.37"/>
<polygon fill="black" stroke="black" points="324.5,-62.18 321,-52.18 317.5,-62.18 324.5,-62.18"/>
</g>
<!-- is_operating&#45;&gt;CoreAddresses::DIEM_ROOT_ADDRESS -->
<g id="edge6" class="edge">
<title>is_operating&#45;&gt;CoreAddresses::DIEM_ROOT_ADDRESS</title>
<path fill="none" stroke="black" d="M177.12,-91.44C168.03,-81.96 156.46,-69.89 146.35,-59.35"/>
<polygon fill="black" stroke="black" points="148.75,-56.8 139.31,-52.01 143.7,-61.65 148.75,-56.8"/>
</g>
</g>
</svg>
