<?xml version="1.0" encoding="UTF-8" standalone="no"?>
<!DOCTYPE svg PUBLIC "-//W3C//DTD SVG 1.1//EN"
 "http://www.w3.org/Graphics/SVG/1.1/DTD/svg11.dtd">
<!-- Generated by graphviz version 2.46.1 (20210213.1702)
 -->
<!-- Title: G Pages: 1 -->
<svg width="1125pt" height="437pt"
 viewBox="0.00 0.00 1125.00 437.00" xmlns="http://www.w3.org/2000/svg" xmlns:xlink="http://www.w3.org/1999/xlink">
<g id="graph0" class="graph" transform="scale(1 1) rotate(0) translate(4 433)">
<title>G</title>
<polygon fill="white" stroke="transparent" points="-4,4 -4,-433 1121,-433 1121,4 -4,4"/>
<g id="clust1" class="cluster">
<title>cluster_CoreAddresses</title>
<polygon fill="none" stroke="black" points="8,-80 8,-230 516,-230 516,-80 8,-80"/>
<text text-anchor="middle" x="262" y="-214.8" font-family="Times,serif" font-size="14.00">CoreAddresses</text>
</g>
<g id="clust2" class="cluster">
<title>cluster_Roles</title>
<polygon fill="none" stroke="black" points="473,-238 473,-313 707,-313 707,-238 473,-238"/>
<text text-anchor="middle" x="590" y="-297.8" font-family="Times,serif" font-size="14.00">Roles</text>
</g>
<g id="clust3" class="cluster">
<title>cluster_Signer</title>
<polygon fill="none" stroke="black" points="524,-8 524,-155 674,-155 674,-8 524,-8"/>
<text text-anchor="middle" x="599" y="-139.8" font-family="Times,serif" font-size="14.00">Signer</text>
</g>
<g id="clust4" class="cluster">
<title>cluster_Errors</title>
<polygon fill="none" stroke="black" points="682,-8 682,-155 1109,-155 1109,-8 682,-8"/>
<text text-anchor="middle" x="895.5" y="-139.8" font-family="Times,serif" font-size="14.00">Errors</text>
</g>
<!-- update_minting_ability -->
<g id="node1" class="node">
<title>update_minting_ability</title>
<ellipse fill="none" stroke="black" cx="397" cy="-411" rx="92.88" ry="18"/>
<text text-anchor="middle" x="397" y="-407.3" font-family="Times,serif" font-size="14.00">update_minting_ability</text>
</g>
<!-- CoreAddresses::CURRENCY_INFO_ADDRESS -->
<g id="node2" class="node">
<title>CoreAddresses::CURRENCY_INFO_ADDRESS</title>
<ellipse fill="none" stroke="black" cx="144" cy="-181" rx="128.08" ry="18"/>
<text text-anchor="middle" x="144" y="-177.3" font-family="Times,serif" font-size="14.00">CURRENCY_INFO_ADDRESS</text>
</g>
<!-- update_minting_ability&#45;&gt;CoreAddresses::CURRENCY_INFO_ADDRESS -->
<g id="edge1" class="edge">
<title>update_minting_ability&#45;&gt;CoreAddresses::CURRENCY_INFO_ADDRESS</title>
<path fill="none" stroke="black" d="M348.49,-395.61C305.97,-380.85 244.88,-354.18 205,-313 176.4,-283.47 159.42,-238.06 150.9,-209.21"/>
<polygon fill="black" stroke="black" points="154.22,-208.07 148.14,-199.39 147.48,-209.96 154.22,-208.07"/>
</g>
<!-- Roles::assert_treasury_compliance -->
<g id="node3" class="node">
<title>Roles::assert_treasury_compliance</title>
<ellipse fill="none" stroke="black" cx="590" cy="-264" rx="108.58" ry="18"/>
<text text-anchor="middle" x="590" y="-260.3" font-family="Times,serif" font-size="14.00">assert_treasury_compliance</text>
</g>
<!-- update_minting_ability&#45;&gt;Roles::assert_treasury_compliance -->
<g id="edge2" class="edge">
<title>update_minting_ability&#45;&gt;Roles::assert_treasury_compliance</title>
<path fill="none" stroke="black" d="M425.24,-393.82C442.12,-383.81 463.75,-370.35 482,-357 511.44,-335.47 542.96,-308.06 564.3,-288.78"/>
<polygon fill="black" stroke="black" points="566.91,-291.14 571.95,-281.82 562.2,-285.96 566.91,-291.14"/>
</g>
<!-- assert_is_currency -->
<g id="node4" class="node">
<title>assert_is_currency</title>
<ellipse fill="none" stroke="black" cx="397" cy="-339" rx="76.09" ry="18"/>
<text text-anchor="middle" x="397" y="-335.3" font-family="Times,serif" font-size="14.00">assert_is_currency</text>
</g>
<!-- update_minting_ability&#45;&gt;assert_is_currency -->
<g id="edge3" class="edge">
<title>update_minting_ability&#45;&gt;assert_is_currency</title>
<path fill="none" stroke="black" d="M397,-392.7C397,-384.98 397,-375.71 397,-367.11"/>
<polygon fill="black" stroke="black" points="400.5,-367.1 397,-357.1 393.5,-367.1 400.5,-367.1"/>
</g>
<!-- Signer::address_of -->
<g id="node5" class="node">
<title>Signer::address_of</title>
<ellipse fill="none" stroke="black" cx="590" cy="-106" rx="48.99" ry="18"/>
<text text-anchor="middle" x="590" y="-102.3" font-family="Times,serif" font-size="14.00">address_of</text>
</g>
<!-- Roles::assert_treasury_compliance&#45;&gt;Signer::address_of -->
<g id="edge4" class="edge">
<title>Roles::assert_treasury_compliance&#45;&gt;Signer::address_of</title>
<path fill="none" stroke="black" d="M590,-245.71C590,-218.77 590,-166.54 590,-134.42"/>
<polygon fill="black" stroke="black" points="593.5,-134.37 590,-124.37 586.5,-134.37 593.5,-134.37"/>
</g>
<!-- Errors::not_published -->
<g id="node6" class="node">
<title>Errors::not_published</title>
<ellipse fill="none" stroke="black" cx="1041" cy="-106" rx="60.39" ry="18"/>
<text text-anchor="middle" x="1041" y="-102.3" font-family="Times,serif" font-size="14.00">not_published</text>
</g>
<!-- Roles::assert_treasury_compliance&#45;&gt;Errors::not_published -->
<g id="edge5" class="edge">
<title>Roles::assert_treasury_compliance&#45;&gt;Errors::not_published</title>
<path fill="none" stroke="black" d="M668.67,-251.59C693.05,-246.6 719.63,-239.61 743,-230 794.2,-208.94 795.39,-180.23 848,-163 900.06,-145.95 919.23,-172.91 971,-155 986.95,-149.48 1002.65,-139.29 1015.12,-129.71"/>
<polygon fill="black" stroke="black" points="1017.58,-132.23 1023.2,-123.24 1013.21,-126.76 1017.58,-132.23"/>
</g>
<!-- Errors::requires_role -->
<g id="node7" class="node">
<title>Errors::requires_role</title>
<ellipse fill="none" stroke="black" cx="905" cy="-106" rx="57.39" ry="18"/>
<text text-anchor="middle" x="905" y="-102.3" font-family="Times,serif" font-size="14.00">requires_role</text>
</g>
<!-- Roles::assert_treasury_compliance&#45;&gt;Errors::requires_role -->
<g id="edge6" class="edge">
<title>Roles::assert_treasury_compliance&#45;&gt;Errors::requires_role</title>
<path fill="none" stroke="black" d="M619.64,-246.68C660.19,-224.92 735.74,-186.45 804,-163 819.09,-157.82 824.47,-161.6 839,-155 853.22,-148.53 867.43,-138.74 879,-129.67"/>
<polygon fill="black" stroke="black" points="881.36,-132.28 886.93,-123.26 876.95,-126.83 881.36,-132.28"/>
</g>
<!-- CoreAddresses::assert_treasury_compliance -->
<g id="node8" class="node">
<title>CoreAddresses::assert_treasury_compliance</title>
<ellipse fill="none" stroke="black" cx="399" cy="-181" rx="108.58" ry="18"/>
<text text-anchor="middle" x="399" y="-177.3" font-family="Times,serif" font-size="14.00">assert_treasury_compliance</text>
</g>
<!-- Roles::assert_treasury_compliance&#45;&gt;CoreAddresses::assert_treasury_compliance -->
<g id="edge7" class="edge">
<title>Roles::assert_treasury_compliance&#45;&gt;CoreAddresses::assert_treasury_compliance</title>
<path fill="none" stroke="black" d="M552.26,-247C521.79,-234.07 478.74,-215.82 446.02,-201.94"/>
<polygon fill="black" stroke="black" points="447.23,-198.65 436.66,-197.97 444.5,-205.1 447.23,-198.65"/>
</g>
<!-- assert_is_currency&#45;&gt;Errors::not_published -->
<g id="edge8" class="edge">
<title>assert_is_currency&#45;&gt;Errors::not_published</title>
<path fill="none" stroke="black" d="M472.26,-336.01C550.75,-333.22 668.2,-326.84 711,-313 836.05,-272.56 961.66,-174.58 1014.73,-129.89"/>
<polygon fill="black" stroke="black" points="1017.26,-132.34 1022.61,-123.2 1012.72,-127 1017.26,-132.34"/>
</g>
<!-- is_currency -->
<g id="node9" class="node">
<title>is_currency</title>
<ellipse fill="none" stroke="black" cx="266" cy="-264" rx="51.99" ry="18"/>
<text text-anchor="middle" x="266" y="-260.3" font-family="Times,serif" font-size="14.00">is_currency</text>
</g>
<!-- assert_is_currency&#45;&gt;is_currency -->
<g id="edge9" class="edge">
<title>assert_is_currency&#45;&gt;is_currency</title>
<path fill="none" stroke="black" d="M368.57,-322.16C348.78,-311.13 322.25,-296.34 301.12,-284.57"/>
<polygon fill="black" stroke="black" points="302.58,-281.38 292.14,-279.57 299.17,-287.49 302.58,-281.38"/>
</g>
<!-- Signer::borrow_address -->
<g id="node10" class="node">
<title>Signer::borrow_address</title>
<ellipse fill="none" stroke="black" cx="599" cy="-34" rx="66.89" ry="18"/>
<text text-anchor="middle" x="599" y="-30.3" font-family="Times,serif" font-size="14.00">borrow_address</text>
</g>
<!-- Signer::address_of&#45;&gt;Signer::borrow_address -->
<g id="edge10" class="edge">
<title>Signer::address_of&#45;&gt;Signer::borrow_address</title>
<path fill="none" stroke="black" d="M592.22,-87.7C593.22,-79.98 594.41,-70.71 595.51,-62.11"/>
<polygon fill="black" stroke="black" points="599,-62.47 596.8,-52.1 592.05,-61.58 599,-62.47"/>
</g>
<!-- Errors::make -->
<g id="node11" class="node">
<title>Errors::make</title>
<ellipse fill="none" stroke="black" cx="905" cy="-34" rx="30.59" ry="18"/>
<text text-anchor="middle" x="905" y="-30.3" font-family="Times,serif" font-size="14.00">make</text>
</g>
<!-- Errors::not_published&#45;&gt;Errors::make -->
<g id="edge11" class="edge">
<title>Errors::not_published&#45;&gt;Errors::make</title>
<path fill="none" stroke="black" d="M1012.16,-90.15C989.95,-78.73 959.3,-62.95 936.47,-51.2"/>
<polygon fill="black" stroke="black" points="938.01,-48.05 927.51,-46.59 934.8,-54.28 938.01,-48.05"/>
</g>
<!-- Errors::requires_role&#45;&gt;Errors::make -->
<g id="edge12" class="edge">
<title>Errors::requires_role&#45;&gt;Errors::make</title>
<path fill="none" stroke="black" d="M905,-87.7C905,-79.98 905,-70.71 905,-62.11"/>
<polygon fill="black" stroke="black" points="908.5,-62.1 905,-52.1 901.5,-62.1 908.5,-62.1"/>
</g>
<!-- CoreAddresses::assert_treasury_compliance&#45;&gt;Signer::address_of -->
<g id="edge13" class="edge">
<title>CoreAddresses::assert_treasury_compliance&#45;&gt;Signer::address_of</title>
<path fill="none" stroke="black" d="M477.53,-168.52C491.97,-165.09 506.68,-160.67 520,-155 535.31,-148.48 550.74,-138.37 563.2,-129.11"/>
<polygon fill="black" stroke="black" points="565.51,-131.75 571.31,-122.89 561.25,-126.2 565.51,-131.75"/>
</g>
<!-- Errors::requires_address -->
<g id="node12" class="node">
<title>Errors::requires_address</title>
<ellipse fill="none" stroke="black" cx="760" cy="-106" rx="69.59" ry="18"/>
<text text-anchor="middle" x="760" y="-102.3" font-family="Times,serif" font-size="14.00">requires_address</text>
</g>
<!-- CoreAddresses::assert_treasury_compliance&#45;&gt;Errors::requires_address -->
<g id="edge14" class="edge">
<title>CoreAddresses::assert_treasury_compliance&#45;&gt;Errors::requires_address</title>
<path fill="none" stroke="black" d="M502.53,-175.43C568.03,-171.64 646.15,-165.18 678,-155 696.22,-149.18 714.75,-138.78 729.58,-129.15"/>
<polygon fill="black" stroke="black" points="731.94,-131.78 738.3,-123.3 728.04,-125.97 731.94,-131.78"/>
</g>
<!-- CoreAddresses::TREASURY_COMPLIANCE_ADDRESS -->
<g id="node13" class="node">
<title>CoreAddresses::TREASURY_COMPLIANCE_ADDRESS</title>
<ellipse fill="none" stroke="black" cx="345" cy="-106" rx="163.27" ry="18"/>
<text text-anchor="middle" x="345" y="-102.3" font-family="Times,serif" font-size="14.00">TREASURY_COMPLIANCE_ADDRESS</text>
</g>
<!-- CoreAddresses::assert_treasury_compliance&#45;&gt;CoreAddresses::TREASURY_COMPLIANCE_ADDRESS -->
<g id="edge15" class="edge">
<title>CoreAddresses::assert_treasury_compliance&#45;&gt;CoreAddresses::TREASURY_COMPLIANCE_ADDRESS</title>
<path fill="none" stroke="black" d="M386.48,-163.07C379.71,-153.92 371.22,-142.45 363.69,-132.26"/>
<polygon fill="black" stroke="black" points="366.4,-130.05 357.64,-124.09 360.78,-134.21 366.4,-130.05"/>
</g>
<!-- is_currency&#45;&gt;CoreAddresses::CURRENCY_INFO_ADDRESS -->
<g id="edge16" class="edge">
<title>is_currency&#45;&gt;CoreAddresses::CURRENCY_INFO_ADDRESS</title>
<path fill="none" stroke="black" d="M243.05,-247.76C224.69,-235.57 198.67,-218.3 177.91,-204.51"/>
<polygon fill="black" stroke="black" points="179.64,-201.46 169.37,-198.84 175.77,-207.29 179.64,-201.46"/>
</g>
<!-- Errors::requires_address&#45;&gt;Errors::make -->
<g id="edge17" class="edge">
<title>Errors::requires_address&#45;&gt;Errors::make</title>
<path fill="none" stroke="black" d="M791.46,-89.81C815.58,-78.17 848.73,-62.16 872.99,-50.45"/>
<polygon fill="black" stroke="black" points="874.65,-53.54 882.13,-46.04 871.61,-47.23 874.65,-53.54"/>
</g>
</g>
</svg>
