<?xml version="1.0" encoding="UTF-8" standalone="no"?>
<!DOCTYPE svg PUBLIC "-//W3C//DTD SVG 1.1//EN"
 "http://www.w3.org/Graphics/SVG/1.1/DTD/svg11.dtd">
<!-- Generated by graphviz version 2.46.1 (20210213.1702)
 -->
<!-- Title: G Pages: 1 -->
<svg width="192pt" height="188pt"
 viewBox="0.00 0.00 192.19 188.00" xmlns="http://www.w3.org/2000/svg" xmlns:xlink="http://www.w3.org/1999/xlink">
<g id="graph0" class="graph" transform="scale(1 1) rotate(0) translate(4 184)">
<title>G</title>
<polygon fill="white" stroke="transparent" points="-4,4 -4,-184 188.19,-184 188.19,4 -4,4"/>
<!-- DiemTimestamp -->
<g id="node1" class="node">
<title>DiemTimestamp</title>
<ellipse fill="none" stroke="black" cx="74.5" cy="-162" rx="71.49" ry="18"/>
<text text-anchor="middle" x="74.5" y="-158.3" font-family="Times,serif" font-size="14.00">DiemTimestamp</text>
</g>
<!-- Errors -->
<g id="node2" class="node">
<title>Errors</title>
<ellipse fill="none" stroke="black" cx="32.5" cy="-18" rx="32.49" ry="18"/>
<text text-anchor="middle" x="32.5" y="-14.3" font-family="Times,serif" font-size="14.00">Errors</text>
</g>
<!-- DiemTimestamp&#45;&gt;Errors -->
<g id="edge1" class="edge">
<title>DiemTimestamp&#45;&gt;Errors</title>
<path fill="none" stroke="black" d="M64.11,-143.91C58.39,-133.8 51.64,-120.55 47.5,-108 40.83,-87.82 37.02,-64.04 34.91,-46.15"/>
<polygon fill="black" stroke="black" points="38.38,-45.67 33.83,-36.1 31.42,-46.42 38.38,-45.67"/>
</g>
<!-- CoreAddresses -->
<g id="node3" class="node">
<title>CoreAddresses</title>
<ellipse fill="none" stroke="black" cx="120.5" cy="-90" rx="63.89" ry="18"/>
<text text-anchor="middle" x="120.5" y="-86.3" font-family="Times,serif" font-size="14.00">CoreAddresses</text>
</g>
<!-- DiemTimestamp&#45;&gt;CoreAddresses -->
<g id="edge2" class="edge">
<title>DiemTimestamp&#45;&gt;CoreAddresses</title>
<path fill="none" stroke="black" d="M85.63,-144.05C91.11,-135.71 97.83,-125.49 103.9,-116.25"/>
<polygon fill="black" stroke="black" points="106.9,-118.07 109.46,-107.79 101.05,-114.22 106.9,-118.07"/>
</g>
<!-- CoreAddresses&#45;&gt;Errors -->
<g id="edge4" class="edge">
<title>CoreAddresses&#45;&gt;Errors</title>
<path fill="none" stroke="black" d="M100.09,-72.76C87.64,-62.86 71.62,-50.12 58.3,-39.52"/>
<polygon fill="black" stroke="black" points="60.42,-36.74 50.41,-33.25 56.06,-42.21 60.42,-36.74"/>
</g>
<!-- Signer -->
<g id="node4" class="node">
<title>Signer</title>
<ellipse fill="none" stroke="black" cx="120.5" cy="-18" rx="33.6" ry="18"/>
<text text-anchor="middle" x="120.5" y="-14.3" font-family="Times,serif" font-size="14.00">Signer</text>
</g>
<!-- CoreAddresses&#45;&gt;Signer -->
<g id="edge3" class="edge">
<title>CoreAddresses&#45;&gt;Signer</title>
<path fill="none" stroke="black" d="M120.5,-71.7C120.5,-63.98 120.5,-54.71 120.5,-46.11"/>
<polygon fill="black" stroke="black" points="124,-46.1 120.5,-36.1 117,-46.1 124,-46.1"/>
</g>
</g>
</svg>
