<?xml version="1.0" encoding="UTF-8" standalone="no"?>
<!DOCTYPE svg PUBLIC "-//W3C//DTD SVG 1.1//EN"
 "http://www.w3.org/Graphics/SVG/1.1/DTD/svg11.dtd">
<!-- Generated by graphviz version 2.46.1 (20210213.1702)
 -->
<!-- Title: G Pages: 1 -->
<svg width="1152pt" height="365pt"
 viewBox="0.00 0.00 1151.79 365.00" xmlns="http://www.w3.org/2000/svg" xmlns:xlink="http://www.w3.org/1999/xlink">
<g id="graph0" class="graph" transform="scale(1 1) rotate(0) translate(4 361)">
<title>G</title>
<polygon fill="white" stroke="transparent" points="-4,4 -4,-361 1147.79,-361 1147.79,4 -4,4"/>
<g id="clust1" class="cluster">
<title>cluster_Errors</title>
<polygon fill="none" stroke="black" points="380.79,-8 380.79,-158 794.79,-158 794.79,-8 380.79,-8"/>
<text text-anchor="middle" x="587.79" y="-142.8" font-family="Times,serif" font-size="14.00">Errors</text>
</g>
<g id="clust2" class="cluster">
<title>cluster_CoreAddresses</title>
<polygon fill="none" stroke="black" points="100.79,-8 100.79,-83 372.79,-83 372.79,-8 100.79,-8"/>
<text text-anchor="middle" x="236.79" y="-67.8" font-family="Times,serif" font-size="14.00">CoreAddresses</text>
</g>
<g id="clust3" class="cluster">
<title>cluster_Event</title>
<polygon fill="none" stroke="black" points="32.79,-166 32.79,-313 218.79,-313 218.79,-166 32.79,-166"/>
<text text-anchor="middle" x="125.79" y="-297.8" font-family="Times,serif" font-size="14.00">Event</text>
</g>
<g id="clust4" class="cluster">
<title>cluster_Vector</title>
<polygon fill="none" stroke="black" points="872.79,-8 872.79,-158 1135.79,-158 1135.79,-8 872.79,-8"/>
<text text-anchor="middle" x="1004.29" y="-142.8" font-family="Times,serif" font-size="14.00">Vector</text>
</g>
<!-- cancel_burn_with_capability -->
<g id="node1" class="node">
<title>cancel_burn_with_capability</title>
<ellipse fill="none" stroke="black" cx="315.79" cy="-339" rx="112.38" ry="18"/>
<text text-anchor="middle" x="315.79" y="-335.3" font-family="Times,serif" font-size="14.00">cancel_burn_with_capability</text>
</g>
<!-- Errors::limit_exceeded -->
<g id="node2" class="node">
<title>Errors::limit_exceeded</title>
<ellipse fill="none" stroke="black" cx="453.79" cy="-109" rx="64.99" ry="18"/>
<text text-anchor="middle" x="453.79" y="-105.3" font-family="Times,serif" font-size="14.00">limit_exceeded</text>
</g>
<!-- cancel_burn_with_capability&#45;&gt;Errors::limit_exceeded -->
<g id="edge1" class="edge">
<title>cancel_burn_with_capability&#45;&gt;Errors::limit_exceeded</title>
<path fill="none" stroke="black" d="M372.33,-323.35C377.6,-320.49 382.55,-317.07 386.79,-313 436.26,-265.48 449.22,-180.76 452.6,-137.32"/>
<polygon fill="black" stroke="black" points="456.1,-137.43 453.27,-127.22 449.12,-136.96 456.1,-137.43"/>
</g>
<!-- CoreAddresses::CURRENCY_INFO_ADDRESS -->
<g id="node3" class="node">
<title>CoreAddresses::CURRENCY_INFO_ADDRESS</title>
<ellipse fill="none" stroke="black" cx="236.79" cy="-34" rx="128.08" ry="18"/>
<text text-anchor="middle" x="236.79" y="-30.3" font-family="Times,serif" font-size="14.00">CURRENCY_INFO_ADDRESS</text>
</g>
<!-- cancel_burn_with_capability&#45;&gt;CoreAddresses::CURRENCY_INFO_ADDRESS -->
<g id="edge2" class="edge">
<title>cancel_burn_with_capability&#45;&gt;CoreAddresses::CURRENCY_INFO_ADDRESS</title>
<path fill="none" stroke="black" d="M205.25,-335.42C129.62,-332.48 40.91,-326.23 28.79,-313 -15.36,-264.84 -2.78,-223.2 28.79,-166 60.08,-109.31 127.34,-73.81 176.94,-54.28"/>
<polygon fill="black" stroke="black" points="178.21,-57.55 186.3,-50.71 175.71,-51.01 178.21,-57.55"/>
</g>
<!-- Event::emit_event -->
<g id="node4" class="node">
<title>Event::emit_event</title>
<ellipse fill="none" stroke="black" cx="142.79" cy="-264" rx="50.09" ry="18"/>
<text text-anchor="middle" x="142.79" y="-260.3" font-family="Times,serif" font-size="14.00">emit_event</text>
</g>
<!-- cancel_burn_with_capability&#45;&gt;Event::emit_event -->
<g id="edge3" class="edge">
<title>cancel_burn_with_capability&#45;&gt;Event::emit_event</title>
<path fill="none" stroke="black" d="M269.7,-322.54C261.35,-319.52 252.77,-316.27 244.79,-313 222.85,-304 198.82,-292.77 179.61,-283.43"/>
<polygon fill="black" stroke="black" points="181.11,-280.27 170.59,-279.02 178.03,-286.56 181.11,-280.27"/>
</g>
<!-- currency_code -->
<g id="node5" class="node">
<title>currency_code</title>
<ellipse fill="none" stroke="black" cx="315.79" cy="-264" rx="62.29" ry="18"/>
<text text-anchor="middle" x="315.79" y="-260.3" font-family="Times,serif" font-size="14.00">currency_code</text>
</g>
<!-- cancel_burn_with_capability&#45;&gt;currency_code -->
<g id="edge4" class="edge">
<title>cancel_burn_with_capability&#45;&gt;currency_code</title>
<path fill="none" stroke="black" d="M315.79,-320.7C315.79,-312.25 315.79,-301.87 315.79,-292.37"/>
<polygon fill="black" stroke="black" points="319.29,-292.18 315.79,-282.18 312.29,-292.18 319.29,-292.18"/>
</g>
<!-- remove_preburn_from_queue -->
<g id="node6" class="node">
<title>remove_preburn_from_queue</title>
<ellipse fill="none" stroke="black" cx="834.79" cy="-192" rx="116.18" ry="18"/>
<text text-anchor="middle" x="834.79" y="-188.3" font-family="Times,serif" font-size="14.00">remove_preburn_from_queue</text>
</g>
<!-- cancel_burn_with_capability&#45;&gt;remove_preburn_from_queue -->
<g id="edge5" class="edge">
<title>cancel_burn_with_capability&#45;&gt;remove_preburn_from_queue</title>
<path fill="none" stroke="black" d="M397.43,-326.53C419.43,-322.83 443.13,-318.3 464.79,-313 580.53,-284.68 712.5,-238.39 783.34,-212.36"/>
<polygon fill="black" stroke="black" points="784.75,-215.57 792.92,-208.82 782.33,-209 784.75,-215.57"/>
</g>
<!-- Errors::make -->
<g id="node7" class="node">
<title>Errors::make</title>
<ellipse fill="none" stroke="black" cx="596.79" cy="-34" rx="30.59" ry="18"/>
<text text-anchor="middle" x="596.79" y="-30.3" font-family="Times,serif" font-size="14.00">make</text>
</g>
<!-- Errors::limit_exceeded&#45;&gt;Errors::make -->
<g id="edge6" class="edge">
<title>Errors::limit_exceeded&#45;&gt;Errors::make</title>
<path fill="none" stroke="black" d="M483.42,-92.87C507.25,-80.71 540.67,-63.65 565.04,-51.21"/>
<polygon fill="black" stroke="black" points="566.92,-54.18 574.23,-46.52 563.73,-47.94 566.92,-54.18"/>
</g>
<!-- Event::write_to_event_store -->
<g id="node8" class="node">
<title>Event::write_to_event_store</title>
<ellipse fill="none" stroke="black" cx="125.79" cy="-192" rx="85.29" ry="18"/>
<text text-anchor="middle" x="125.79" y="-188.3" font-family="Times,serif" font-size="14.00">write_to_event_store</text>
</g>
<!-- Event::emit_event&#45;&gt;Event::write_to_event_store -->
<g id="edge7" class="edge">
<title>Event::emit_event&#45;&gt;Event::write_to_event_store</title>
<path fill="none" stroke="black" d="M138.67,-246.05C136.78,-238.26 134.49,-228.82 132.36,-220.08"/>
<polygon fill="black" stroke="black" points="135.74,-219.17 129.98,-210.28 128.94,-220.82 135.74,-219.17"/>
</g>
<!-- currency_code&#45;&gt;CoreAddresses::CURRENCY_INFO_ADDRESS -->
<g id="edge8" class="edge">
<title>currency_code&#45;&gt;CoreAddresses::CURRENCY_INFO_ADDRESS</title>
<path fill="none" stroke="black" d="M291.6,-247.26C279.37,-237.95 265.52,-225.04 257.79,-210 233.31,-162.4 232.48,-98.15 234.41,-62.23"/>
<polygon fill="black" stroke="black" points="237.91,-62.24 235.07,-52.04 230.93,-61.79 237.91,-62.24"/>
</g>
<!-- assert_is_currency -->
<g id="node9" class="node">
<title>assert_is_currency</title>
<ellipse fill="none" stroke="black" cx="342.79" cy="-192" rx="76.09" ry="18"/>
<text text-anchor="middle" x="342.79" y="-188.3" font-family="Times,serif" font-size="14.00">assert_is_currency</text>
</g>
<!-- currency_code&#45;&gt;assert_is_currency -->
<g id="edge9" class="edge">
<title>currency_code&#45;&gt;assert_is_currency</title>
<path fill="none" stroke="black" d="M322.32,-246.05C325.36,-238.18 329.05,-228.62 332.45,-219.79"/>
<polygon fill="black" stroke="black" points="335.79,-220.86 336.12,-210.28 329.26,-218.35 335.79,-220.86"/>
</g>
<!-- Errors::invalid_state -->
<g id="node10" class="node">
<title>Errors::invalid_state</title>
<ellipse fill="none" stroke="black" cx="730.79" cy="-109" rx="55.79" ry="18"/>
<text text-anchor="middle" x="730.79" y="-105.3" font-family="Times,serif" font-size="14.00">invalid_state</text>
</g>
<!-- remove_preburn_from_queue&#45;&gt;Errors::invalid_state -->
<g id="edge10" class="edge">
<title>remove_preburn_from_queue&#45;&gt;Errors::invalid_state</title>
<path fill="none" stroke="black" d="M813.24,-174.22C797.59,-162.03 776.27,-145.42 759.23,-132.15"/>
<polygon fill="black" stroke="black" points="761.29,-129.32 751.25,-125.94 756.99,-134.84 761.29,-129.32"/>
</g>
<!-- Errors::not_published -->
<g id="node11" class="node">
<title>Errors::not_published</title>
<ellipse fill="none" stroke="black" cx="596.79" cy="-109" rx="60.39" ry="18"/>
<text text-anchor="middle" x="596.79" y="-105.3" font-family="Times,serif" font-size="14.00">not_published</text>
</g>
<!-- remove_preburn_from_queue&#45;&gt;Errors::not_published -->
<g id="edge11" class="edge">
<title>remove_preburn_from_queue&#45;&gt;Errors::not_published</title>
<path fill="none" stroke="black" d="M744.58,-180.51C718.5,-175.6 690.43,-168.43 665.79,-158 650.72,-151.62 635.61,-141.62 623.4,-132.4"/>
<polygon fill="black" stroke="black" points="625.47,-129.58 615.43,-126.19 621.17,-135.1 625.47,-129.58"/>
</g>
<!-- Vector::borrow -->
<g id="node12" class="node">
<title>Vector::borrow</title>
<ellipse fill="none" stroke="black" cx="1017.79" cy="-109" rx="36.29" ry="18"/>
<text text-anchor="middle" x="1017.79" y="-105.3" font-family="Times,serif" font-size="14.00">borrow</text>
</g>
<!-- remove_preburn_from_queue&#45;&gt;Vector::borrow -->
<g id="edge12" class="edge">
<title>remove_preburn_from_queue&#45;&gt;Vector::borrow</title>
<path fill="none" stroke="black" d="M918.06,-179.32C936.87,-174.48 956.17,-167.65 972.79,-158 983.22,-151.94 992.71,-142.7 1000.25,-133.95"/>
<polygon fill="black" stroke="black" points="1003.01,-136.11 1006.61,-126.15 997.58,-131.69 1003.01,-136.11"/>
</g>
<!-- Vector::length -->
<g id="node13" class="node">
<title>Vector::length</title>
<ellipse fill="none" stroke="black" cx="1095.79" cy="-34" rx="32.49" ry="18"/>
<text text-anchor="middle" x="1095.79" y="-30.3" font-family="Times,serif" font-size="14.00">length</text>
</g>
<!-- remove_preburn_from_queue&#45;&gt;Vector::length -->
<g id="edge13" class="edge">
<title>remove_preburn_from_queue&#45;&gt;Vector::length</title>
<path fill="none" stroke="black" d="M945.5,-186.34C994.48,-182.04 1044.99,-173.8 1062.79,-158 1089.76,-134.05 1095.76,-90.66 1096.56,-62.35"/>
<polygon fill="black" stroke="black" points="1100.06,-62.33 1096.64,-52.31 1093.06,-62.27 1100.06,-62.33"/>
</g>
<!-- Vector::remove -->
<g id="node14" class="node">
<title>Vector::remove</title>
<ellipse fill="none" stroke="black" cx="925.79" cy="-109" rx="37.89" ry="18"/>
<text text-anchor="middle" x="925.79" y="-105.3" font-family="Times,serif" font-size="14.00">remove</text>
</g>
<!-- remove_preburn_from_queue&#45;&gt;Vector::remove -->
<g id="edge14" class="edge">
<title>remove_preburn_from_queue&#45;&gt;Vector::remove</title>
<path fill="none" stroke="black" d="M855.17,-174.04C861.21,-168.93 867.81,-163.29 873.79,-158 883.19,-149.69 893.36,-140.38 902.19,-132.18"/>
<polygon fill="black" stroke="black" points="904.63,-134.69 909.56,-125.32 899.86,-129.57 904.63,-134.69"/>
</g>
<!-- value -->
<g id="node15" class="node">
<title>value</title>
<ellipse fill="none" stroke="black" cx="834.79" cy="-109" rx="29.8" ry="18"/>
<text text-anchor="middle" x="834.79" y="-105.3" font-family="Times,serif" font-size="14.00">value</text>
</g>
<!-- remove_preburn_from_queue&#45;&gt;value -->
<g id="edge15" class="edge">
<title>remove_preburn_from_queue&#45;&gt;value</title>
<path fill="none" stroke="black" d="M834.79,-173.82C834.79,-163.19 834.79,-149.31 834.79,-137.2"/>
<polygon fill="black" stroke="black" points="838.29,-137.15 834.79,-127.15 831.29,-137.15 838.29,-137.15"/>
</g>
<!-- assert_is_currency&#45;&gt;Errors::not_published -->
<g id="edge16" class="edge">
<title>assert_is_currency&#45;&gt;Errors::not_published</title>
<path fill="none" stroke="black" d="M414.2,-185.51C449.41,-181.01 491.91,-172.84 527.79,-158 542.91,-151.75 558.02,-141.76 570.23,-132.52"/>
<polygon fill="black" stroke="black" points="572.47,-135.21 578.18,-126.29 568.15,-129.7 572.47,-135.21"/>
</g>
<!-- is_currency -->
<g id="node16" class="node">
<title>is_currency</title>
<ellipse fill="none" stroke="black" cx="318.79" cy="-109" rx="51.99" ry="18"/>
<text text-anchor="middle" x="318.79" y="-105.3" font-family="Times,serif" font-size="14.00">is_currency</text>
</g>
<!-- assert_is_currency&#45;&gt;is_currency -->
<g id="edge17" class="edge">
<title>assert_is_currency&#45;&gt;is_currency</title>
<path fill="none" stroke="black" d="M337.7,-173.82C334.52,-163.08 330.35,-149.03 326.74,-136.84"/>
<polygon fill="black" stroke="black" points="330.07,-135.75 323.87,-127.15 323.36,-137.74 330.07,-135.75"/>
</g>
<!-- Errors::invalid_state&#45;&gt;Errors::make -->
<g id="edge18" class="edge">
<title>Errors::invalid_state&#45;&gt;Errors::make</title>
<path fill="none" stroke="black" d="M703.67,-93.23C681.62,-81.22 650.52,-64.27 627.55,-51.76"/>
<polygon fill="black" stroke="black" points="629.02,-48.57 618.56,-46.86 625.67,-54.72 629.02,-48.57"/>
</g>
<!-- Errors::not_published&#45;&gt;Errors::make -->
<g id="edge19" class="edge">
<title>Errors::not_published&#45;&gt;Errors::make</title>
<path fill="none" stroke="black" d="M596.79,-90.7C596.79,-82.25 596.79,-71.87 596.79,-62.37"/>
<polygon fill="black" stroke="black" points="600.29,-62.18 596.79,-52.18 593.29,-62.18 600.29,-62.18"/>
</g>
<!-- Vector::remove&#45;&gt;Vector::length -->
<g id="edge20" class="edge">
<title>Vector::remove&#45;&gt;Vector::length</title>
<path fill="none" stroke="black" d="M953.78,-96.59C959.96,-94.43 966.52,-92.41 972.79,-91 1008.51,-82.93 1022.32,-99.93 1054.79,-83 1065.1,-77.62 1073.9,-68.46 1080.68,-59.57"/>
<polygon fill="black" stroke="black" points="1083.64,-61.45 1086.54,-51.27 1077.92,-57.42 1083.64,-61.45"/>
</g>
<!-- Vector::pop_back -->
<g id="node17" class="node">
<title>Vector::pop_back</title>
<ellipse fill="none" stroke="black" cx="925.79" cy="-34" rx="44.69" ry="18"/>
<text text-anchor="middle" x="925.79" y="-30.3" font-family="Times,serif" font-size="14.00">pop_back</text>
</g>
<!-- Vector::remove&#45;&gt;Vector::pop_back -->
<g id="edge21" class="edge">
<title>Vector::remove&#45;&gt;Vector::pop_back</title>
<path fill="none" stroke="black" d="M925.79,-90.7C925.79,-82.25 925.79,-71.87 925.79,-62.37"/>
<polygon fill="black" stroke="black" points="929.29,-62.18 925.79,-52.18 922.29,-62.18 929.29,-62.18"/>
</g>
<!-- Vector::swap -->
<g id="node18" class="node">
<title>Vector::swap</title>
<ellipse fill="none" stroke="black" cx="1016.79" cy="-34" rx="28.7" ry="18"/>
<text text-anchor="middle" x="1016.79" y="-30.3" font-family="Times,serif" font-size="14.00">swap</text>
</g>
<!-- Vector::remove&#45;&gt;Vector::swap -->
<g id="edge22" class="edge">
<title>Vector::remove&#45;&gt;Vector::swap</title>
<path fill="none" stroke="black" d="M955.01,-97.54C963.49,-93.72 972.44,-88.87 979.79,-83 987.97,-76.47 995.37,-67.77 1001.38,-59.57"/>
<polygon fill="black" stroke="black" points="1004.27,-61.53 1007.09,-51.32 998.52,-57.54 1004.27,-61.53"/>
</g>
<!-- is_currency&#45;&gt;CoreAddresses::CURRENCY_INFO_ADDRESS -->
<g id="edge23" class="edge">
<title>is_currency&#45;&gt;CoreAddresses::CURRENCY_INFO_ADDRESS</title>
<path fill="none" stroke="black" d="M300.59,-91.8C289.67,-82.08 275.6,-69.55 263.45,-58.73"/>
<polygon fill="black" stroke="black" points="265.59,-55.95 255.79,-51.92 260.93,-61.18 265.59,-55.95"/>
</g>
</g>
</svg>
