<?xml version="1.0" encoding="UTF-8" standalone="no"?>
<!DOCTYPE svg PUBLIC "-//W3C//DTD SVG 1.1//EN"
 "http://www.w3.org/Graphics/SVG/1.1/DTD/svg11.dtd">
<!-- Generated by graphviz version 2.46.1 (20210213.1702)
 -->
<!-- Title: G Pages: 1 -->
<svg width="1188pt" height="445pt"
 viewBox="0.00 0.00 1187.50 445.00" xmlns="http://www.w3.org/2000/svg" xmlns:xlink="http://www.w3.org/1999/xlink">
<g id="graph0" class="graph" transform="scale(1 1) rotate(0) translate(4 441)">
<title>G</title>
<polygon fill="white" stroke="transparent" points="-4,4 -4,-441 1183.5,-441 1183.5,4 -4,4"/>
<g id="clust1" class="cluster">
<title>cluster_Signer</title>
<polygon fill="none" stroke="black" points="987,-8 987,-155 1137,-155 1137,-8 987,-8"/>
<text text-anchor="middle" x="1062" y="-139.8" font-family="Times,serif" font-size="14.00">Signer</text>
</g>
<g id="clust2" class="cluster">
<title>cluster_Errors</title>
<polygon fill="none" stroke="black" points="8,-8 8,-155 733,-155 733,-8 8,-8"/>
<text text-anchor="middle" x="370.5" y="-139.8" font-family="Times,serif" font-size="14.00">Errors</text>
</g>
<g id="clust3" class="cluster">
<title>cluster_DiemTimestamp</title>
<polygon fill="none" stroke="black" points="1007,-163 1007,-321 1145,-321 1145,-163 1007,-163"/>
<text text-anchor="middle" x="1076" y="-305.8" font-family="Times,serif" font-size="14.00">DiemTimestamp</text>
</g>
<g id="clust4" class="cluster">
<title>cluster_Roles</title>
<polygon fill="none" stroke="black" points="777,-246 777,-321 935,-321 935,-246 777,-246"/>
<text text-anchor="middle" x="856" y="-305.8" font-family="Times,serif" font-size="14.00">Roles</text>
</g>
<g id="clust5" class="cluster">
<title>cluster_CoreAddresses</title>
<polygon fill="none" stroke="black" points="741,-80 741,-238 971,-238 971,-80 741,-80"/>
<text text-anchor="middle" x="856" y="-222.8" font-family="Times,serif" font-size="14.00">CoreAddresses</text>
</g>
<!-- publish_new_config -->
<g id="node1" class="node">
<title>publish_new_config</title>
<ellipse fill="none" stroke="black" cx="939" cy="-419" rx="81.79" ry="18"/>
<text text-anchor="middle" x="939" y="-415.3" font-family="Times,serif" font-size="14.00">publish_new_config</text>
</g>
<!-- Signer::address_of -->
<g id="node2" class="node">
<title>Signer::address_of</title>
<ellipse fill="none" stroke="black" cx="1062" cy="-106" rx="48.99" ry="18"/>
<text text-anchor="middle" x="1062" y="-102.3" font-family="Times,serif" font-size="14.00">address_of</text>
</g>
<!-- publish_new_config&#45;&gt;Signer::address_of -->
<g id="edge1" class="edge">
<title>publish_new_config&#45;&gt;Signer::address_of</title>
<path fill="none" stroke="black" d="M1013.25,-411.33C1070.3,-401.71 1144.79,-378.22 1178,-321 1180.8,-316.17 1178.37,-165.16 1177,-163 1162.79,-140.58 1136.78,-126.89 1113.09,-118.66"/>
<polygon fill="black" stroke="black" points="1114.05,-115.29 1103.46,-115.56 1111.91,-121.96 1114.05,-115.29"/>
</g>
<!-- Errors::already_published -->
<g id="node3" class="node">
<title>Errors::already_published</title>
<ellipse fill="none" stroke="black" cx="91" cy="-106" rx="75.29" ry="18"/>
<text text-anchor="middle" x="91" y="-102.3" font-family="Times,serif" font-size="14.00">already_published</text>
</g>
<!-- publish_new_config&#45;&gt;Errors::already_published -->
<g id="edge2" class="edge">
<title>publish_new_config&#45;&gt;Errors::already_published</title>
<path fill="none" stroke="black" d="M865.72,-410.81C757.55,-398.97 549.53,-371.5 379,-321 289.08,-294.37 258.14,-296.7 185,-238 148.72,-208.88 119.92,-162.35 104.19,-133.29"/>
<polygon fill="black" stroke="black" points="107.13,-131.37 99.36,-124.16 100.94,-134.64 107.13,-131.37"/>
</g>
<!-- publish_new_config_and_get_capability -->
<g id="node4" class="node">
<title>publish_new_config_and_get_capability</title>
<ellipse fill="none" stroke="black" cx="939" cy="-347" rx="153.27" ry="18"/>
<text text-anchor="middle" x="939" y="-343.3" font-family="Times,serif" font-size="14.00">publish_new_config_and_get_capability</text>
</g>
<!-- publish_new_config&#45;&gt;publish_new_config_and_get_capability -->
<g id="edge3" class="edge">
<title>publish_new_config&#45;&gt;publish_new_config_and_get_capability</title>
<path fill="none" stroke="black" d="M939,-400.7C939,-392.98 939,-383.71 939,-375.11"/>
<polygon fill="black" stroke="black" points="942.5,-375.1 939,-365.1 935.5,-375.1 942.5,-375.1"/>
</g>
<!-- Signer::borrow_address -->
<g id="node5" class="node">
<title>Signer::borrow_address</title>
<ellipse fill="none" stroke="black" cx="1062" cy="-34" rx="66.89" ry="18"/>
<text text-anchor="middle" x="1062" y="-30.3" font-family="Times,serif" font-size="14.00">borrow_address</text>
</g>
<!-- Signer::address_of&#45;&gt;Signer::borrow_address -->
<g id="edge4" class="edge">
<title>Signer::address_of&#45;&gt;Signer::borrow_address</title>
<path fill="none" stroke="black" d="M1062,-87.7C1062,-79.98 1062,-70.71 1062,-62.11"/>
<polygon fill="black" stroke="black" points="1065.5,-62.1 1062,-52.1 1058.5,-62.1 1065.5,-62.1"/>
</g>
<!-- Errors::make -->
<g id="node6" class="node">
<title>Errors::make</title>
<ellipse fill="none" stroke="black" cx="381" cy="-34" rx="30.59" ry="18"/>
<text text-anchor="middle" x="381" y="-30.3" font-family="Times,serif" font-size="14.00">make</text>
</g>
<!-- Errors::already_published&#45;&gt;Errors::make -->
<g id="edge5" class="edge">
<title>Errors::already_published&#45;&gt;Errors::make</title>
<path fill="none" stroke="black" d="M135.39,-91.31C148.43,-87.46 162.74,-83.4 176,-80 233.59,-65.23 301.05,-51.01 342.4,-42.63"/>
<polygon fill="black" stroke="black" points="343.22,-46.04 352.33,-40.63 341.84,-39.18 343.22,-46.04"/>
</g>
<!-- publish_new_config_and_get_capability&#45;&gt;Signer::address_of -->
<g id="edge6" class="edge">
<title>publish_new_config_and_get_capability&#45;&gt;Signer::address_of</title>
<path fill="none" stroke="black" d="M1068.8,-337.34C1108.18,-333.39 1142.78,-328 1149,-321 1195.63,-268.49 1182.63,-224.64 1149,-163 1139.49,-145.57 1121.97,-132.75 1105.14,-123.81"/>
<polygon fill="black" stroke="black" points="1106.42,-120.54 1095.91,-119.24 1103.32,-126.82 1106.42,-120.54"/>
</g>
<!-- publish_new_config_and_get_capability&#45;&gt;Errors::already_published -->
<g id="edge7" class="edge">
<title>publish_new_config_and_get_capability&#45;&gt;Errors::already_published</title>
<path fill="none" stroke="black" d="M845.38,-332.67C821.73,-329.09 796.4,-325.08 773,-321 585.98,-288.41 534.44,-296.99 354,-238 267.73,-209.8 174.34,-157.52 125.39,-128.25"/>
<polygon fill="black" stroke="black" points="127.16,-125.23 116.78,-123.07 123.54,-131.22 127.16,-125.23"/>
</g>
<!-- DiemTimestamp::assert_genesis -->
<g id="node7" class="node">
<title>DiemTimestamp::assert_genesis</title>
<ellipse fill="none" stroke="black" cx="1076" cy="-272" rx="61.19" ry="18"/>
<text text-anchor="middle" x="1076" y="-268.3" font-family="Times,serif" font-size="14.00">assert_genesis</text>
</g>
<!-- publish_new_config_and_get_capability&#45;&gt;DiemTimestamp::assert_genesis -->
<g id="edge8" class="edge">
<title>publish_new_config_and_get_capability&#45;&gt;DiemTimestamp::assert_genesis</title>
<path fill="none" stroke="black" d="M970.43,-329.25C990.66,-318.47 1017.07,-304.4 1038.41,-293.03"/>
<polygon fill="black" stroke="black" points="1040.33,-295.97 1047.51,-288.18 1037.04,-289.79 1040.33,-295.97"/>
</g>
<!-- Roles::assert_diem_root -->
<g id="node8" class="node">
<title>Roles::assert_diem_root</title>
<ellipse fill="none" stroke="black" cx="856" cy="-272" rx="71.49" ry="18"/>
<text text-anchor="middle" x="856" y="-268.3" font-family="Times,serif" font-size="14.00">assert_diem_root</text>
</g>
<!-- publish_new_config_and_get_capability&#45;&gt;Roles::assert_diem_root -->
<g id="edge9" class="edge">
<title>publish_new_config_and_get_capability&#45;&gt;Roles::assert_diem_root</title>
<path fill="none" stroke="black" d="M919.75,-329.07C908.67,-319.33 894.59,-306.94 882.48,-296.29"/>
<polygon fill="black" stroke="black" points="884.68,-293.56 874.86,-289.59 880.06,-298.82 884.68,-293.56"/>
</g>
<!-- Errors::invalid_state -->
<g id="node9" class="node">
<title>Errors::invalid_state</title>
<ellipse fill="none" stroke="black" cx="512" cy="-106" rx="55.79" ry="18"/>
<text text-anchor="middle" x="512" y="-102.3" font-family="Times,serif" font-size="14.00">invalid_state</text>
</g>
<!-- DiemTimestamp::assert_genesis&#45;&gt;Errors::invalid_state -->
<g id="edge10" class="edge">
<title>DiemTimestamp::assert_genesis&#45;&gt;Errors::invalid_state</title>
<path fill="none" stroke="black" d="M1028.37,-260.6C1002.14,-255.31 968.92,-249.31 939,-246 894.35,-241.07 780.44,-249.45 737,-238 658.45,-217.29 579.3,-161.1 539.1,-129.45"/>
<polygon fill="black" stroke="black" points="541.13,-126.59 531.13,-123.09 536.77,-132.06 541.13,-126.59"/>
</g>
<!-- DiemTimestamp::is_genesis -->
<g id="node10" class="node">
<title>DiemTimestamp::is_genesis</title>
<ellipse fill="none" stroke="black" cx="1070" cy="-189" rx="46.59" ry="18"/>
<text text-anchor="middle" x="1070" y="-185.3" font-family="Times,serif" font-size="14.00">is_genesis</text>
</g>
<!-- DiemTimestamp::assert_genesis&#45;&gt;DiemTimestamp::is_genesis -->
<g id="edge11" class="edge">
<title>DiemTimestamp::assert_genesis&#45;&gt;DiemTimestamp::is_genesis</title>
<path fill="none" stroke="black" d="M1074.73,-253.82C1073.94,-243.19 1072.91,-229.31 1072.02,-217.2"/>
<polygon fill="black" stroke="black" points="1075.5,-216.87 1071.27,-207.15 1068.52,-217.38 1075.5,-216.87"/>
</g>
<!-- Roles::assert_diem_root&#45;&gt;Signer::address_of -->
<g id="edge12" class="edge">
<title>Roles::assert_diem_root&#45;&gt;Signer::address_of</title>
<path fill="none" stroke="black" d="M921.11,-264.37C940.37,-259.6 960.22,-251.55 975,-238 1001.23,-213.96 983.37,-192.68 1003,-163 1011.34,-150.39 1023.02,-138.54 1033.78,-129.01"/>
<polygon fill="black" stroke="black" points="1036.07,-131.67 1041.4,-122.51 1031.53,-126.34 1036.07,-131.67"/>
</g>
<!-- Errors::not_published -->
<g id="node11" class="node">
<title>Errors::not_published</title>
<ellipse fill="none" stroke="black" cx="245" cy="-106" rx="60.39" ry="18"/>
<text text-anchor="middle" x="245" y="-102.3" font-family="Times,serif" font-size="14.00">not_published</text>
</g>
<!-- Roles::assert_diem_root&#45;&gt;Errors::not_published -->
<g id="edge13" class="edge">
<title>Roles::assert_diem_root&#45;&gt;Errors::not_published</title>
<path fill="none" stroke="black" d="M785.67,-268.29C694.3,-264.15 540.09,-254.9 486,-238 421.6,-217.88 417.16,-186.74 354,-163 337.44,-156.77 331.29,-161.92 315,-155 299.79,-148.54 284.48,-138.53 272.07,-129.32"/>
<polygon fill="black" stroke="black" points="274.04,-126.43 263.98,-123.13 269.79,-131.98 274.04,-126.43"/>
</g>
<!-- Errors::requires_role -->
<g id="node12" class="node">
<title>Errors::requires_role</title>
<ellipse fill="none" stroke="black" cx="381" cy="-106" rx="57.39" ry="18"/>
<text text-anchor="middle" x="381" y="-102.3" font-family="Times,serif" font-size="14.00">requires_role</text>
</g>
<!-- Roles::assert_diem_root&#45;&gt;Errors::requires_role -->
<g id="edge14" class="edge">
<title>Roles::assert_diem_root&#45;&gt;Errors::requires_role</title>
<path fill="none" stroke="black" d="M784.81,-269.87C733.24,-267.11 662.58,-259.27 604,-238 545.59,-216.8 543.61,-186.29 486,-163 469.6,-156.37 463.19,-162.14 447,-155 432.61,-148.65 418.28,-138.78 406.67,-129.63"/>
<polygon fill="black" stroke="black" points="408.7,-126.77 398.74,-123.16 404.28,-132.19 408.7,-126.77"/>
</g>
<!-- CoreAddresses::assert_diem_root -->
<g id="node13" class="node">
<title>CoreAddresses::assert_diem_root</title>
<ellipse fill="none" stroke="black" cx="856" cy="-189" rx="71.49" ry="18"/>
<text text-anchor="middle" x="856" y="-185.3" font-family="Times,serif" font-size="14.00">assert_diem_root</text>
</g>
<!-- Roles::assert_diem_root&#45;&gt;CoreAddresses::assert_diem_root -->
<g id="edge15" class="edge">
<title>Roles::assert_diem_root&#45;&gt;CoreAddresses::assert_diem_root</title>
<path fill="none" stroke="black" d="M856,-253.82C856,-243.19 856,-229.31 856,-217.2"/>
<polygon fill="black" stroke="black" points="859.5,-217.15 856,-207.15 852.5,-217.15 859.5,-217.15"/>
</g>
<!-- Errors::invalid_state&#45;&gt;Errors::make -->
<g id="edge16" class="edge">
<title>Errors::invalid_state&#45;&gt;Errors::make</title>
<path fill="none" stroke="black" d="M484.22,-90.15C463.06,-78.85 433.93,-63.28 412.01,-51.57"/>
<polygon fill="black" stroke="black" points="413.57,-48.44 403.1,-46.81 410.27,-54.61 413.57,-48.44"/>
</g>
<!-- CoreAddresses::DIEM_ROOT_ADDRESS -->
<g id="node14" class="node">
<title>CoreAddresses::DIEM_ROOT_ADDRESS</title>
<ellipse fill="none" stroke="black" cx="856" cy="-106" rx="106.68" ry="18"/>
<text text-anchor="middle" x="856" y="-102.3" font-family="Times,serif" font-size="14.00">DIEM_ROOT_ADDRESS</text>
</g>
<!-- DiemTimestamp::is_genesis&#45;&gt;CoreAddresses::DIEM_ROOT_ADDRESS -->
<g id="edge17" class="edge">
<title>DiemTimestamp::is_genesis&#45;&gt;CoreAddresses::DIEM_ROOT_ADDRESS</title>
<path fill="none" stroke="black" d="M1037.96,-175.87C1003.31,-162.76 947.58,-141.66 906.92,-126.27"/>
<polygon fill="black" stroke="black" points="908.04,-122.96 897.45,-122.69 905.56,-129.5 908.04,-122.96"/>
</g>
<!-- Errors::not_published&#45;&gt;Errors::make -->
<g id="edge18" class="edge">
<title>Errors::not_published&#45;&gt;Errors::make</title>
<path fill="none" stroke="black" d="M273.84,-90.15C296.05,-78.73 326.7,-62.95 349.53,-51.2"/>
<polygon fill="black" stroke="black" points="351.2,-54.28 358.49,-46.59 347.99,-48.05 351.2,-54.28"/>
</g>
<!-- Errors::requires_role&#45;&gt;Errors::make -->
<g id="edge19" class="edge">
<title>Errors::requires_role&#45;&gt;Errors::make</title>
<path fill="none" stroke="black" d="M381,-87.7C381,-79.98 381,-70.71 381,-62.11"/>
<polygon fill="black" stroke="black" points="384.5,-62.1 381,-52.1 377.5,-62.1 384.5,-62.1"/>
</g>
<!-- CoreAddresses::assert_diem_root&#45;&gt;Signer::address_of -->
<g id="edge20" class="edge">
<title>CoreAddresses::assert_diem_root&#45;&gt;Signer::address_of</title>
<path fill="none" stroke="black" d="M907.54,-176.51C928.8,-171.05 953.46,-163.79 975,-155 993.69,-147.37 1013.48,-136.69 1029.45,-127.34"/>
<polygon fill="black" stroke="black" points="1031.58,-130.14 1038.37,-122.02 1027.99,-124.13 1031.58,-130.14"/>
</g>
<!-- CoreAddresses::assert_diem_root&#45;&gt;CoreAddresses::DIEM_ROOT_ADDRESS -->
<g id="edge22" class="edge">
<title>CoreAddresses::assert_diem_root&#45;&gt;CoreAddresses::DIEM_ROOT_ADDRESS</title>
<path fill="none" stroke="black" d="M856,-170.82C856,-160.19 856,-146.31 856,-134.2"/>
<polygon fill="black" stroke="black" points="859.5,-134.15 856,-124.15 852.5,-134.15 859.5,-134.15"/>
</g>
<!-- Errors::requires_address -->
<g id="node15" class="node">
<title>Errors::requires_address</title>
<ellipse fill="none" stroke="black" cx="655" cy="-106" rx="69.59" ry="18"/>
<text text-anchor="middle" x="655" y="-102.3" font-family="Times,serif" font-size="14.00">requires_address</text>
</g>
<!-- CoreAddresses::assert_diem_root&#45;&gt;Errors::requires_address -->
<g id="edge21" class="edge">
<title>CoreAddresses::assert_diem_root&#45;&gt;Errors::requires_address</title>
<path fill="none" stroke="black" d="M803.76,-176.63C782.61,-171.23 758.23,-163.98 737,-155 719.89,-147.76 701.96,-137.6 687.25,-128.49"/>
<polygon fill="black" stroke="black" points="688.86,-125.37 678.54,-122.99 685.13,-131.29 688.86,-125.37"/>
</g>
<!-- Errors::requires_address&#45;&gt;Errors::make -->
<g id="edge23" class="edge">
<title>Errors::requires_address&#45;&gt;Errors::make</title>
<path fill="none" stroke="black" d="M614.31,-91.24C602.35,-87.39 589.2,-83.35 577,-80 522.65,-65.08 458.9,-51.08 419.22,-42.77"/>
<polygon fill="black" stroke="black" points="419.93,-39.35 409.43,-40.74 418.5,-46.2 419.93,-39.35"/>
</g>
</g>
</svg>
