<?xml version="1.0" encoding="UTF-8" standalone="no"?>
<!DOCTYPE svg PUBLIC "-//W3C//DTD SVG 1.1//EN"
 "http://www.w3.org/Graphics/SVG/1.1/DTD/svg11.dtd">
<!-- Generated by graphviz version 2.46.1 (20210213.1702)
 -->
<!-- Title: G Pages: 1 -->
<svg width="370pt" height="362pt"
 viewBox="0.00 0.00 370.03 362.00" xmlns="http://www.w3.org/2000/svg" xmlns:xlink="http://www.w3.org/1999/xlink">
<g id="graph0" class="graph" transform="scale(1 1) rotate(0) translate(4 358)">
<title>G</title>
<polygon fill="white" stroke="transparent" points="-4,4 -4,-358 366.03,-358 366.03,4 -4,4"/>
<g id="clust1" class="cluster">
<title>cluster_Option</title>
<polygon fill="none" stroke="black" points="8,-163 8,-238 256,-238 256,-163 8,-163"/>
<text text-anchor="middle" x="132" y="-222.8" font-family="Times,serif" font-size="14.00">Option</text>
</g>
<g id="clust2" class="cluster">
<title>cluster_Vector</title>
<polygon fill="none" stroke="black" points="53,-8 53,-155 350,-155 350,-8 53,-8"/>
<text text-anchor="middle" x="201.5" y="-139.8" font-family="Times,serif" font-size="14.00">Vector</text>
</g>
<!-- is_validator_ -->
<g id="node1" class="node">
<title>is_validator_</title>
<ellipse fill="none" stroke="black" cx="176" cy="-336" rx="56.59" ry="18"/>
<text text-anchor="middle" x="176" y="-332.3" font-family="Times,serif" font-size="14.00">is_validator_</text>
</g>
<!-- Option::is_some -->
<g id="node2" class="node">
<title>Option::is_some</title>
<ellipse fill="none" stroke="black" cx="208" cy="-189" rx="40.09" ry="18"/>
<text text-anchor="middle" x="208" y="-185.3" font-family="Times,serif" font-size="14.00">is_some</text>
</g>
<!-- is_validator_&#45;&gt;Option::is_some -->
<g id="edge1" class="edge">
<title>is_validator_&#45;&gt;Option::is_some</title>
<path fill="none" stroke="black" d="M192.07,-318.39C200.36,-308.63 209.63,-295.58 214,-282 220.79,-260.88 218.47,-235.67 214.91,-216.98"/>
<polygon fill="black" stroke="black" points="218.31,-216.13 212.8,-207.08 211.46,-217.59 218.31,-216.13"/>
</g>
<!-- get_validator_index_ -->
<g id="node3" class="node">
<title>get_validator_index_</title>
<ellipse fill="none" stroke="black" cx="120" cy="-264" rx="85.29" ry="18"/>
<text text-anchor="middle" x="120" y="-260.3" font-family="Times,serif" font-size="14.00">get_validator_index_</text>
</g>
<!-- is_validator_&#45;&gt;get_validator_index_ -->
<g id="edge2" class="edge">
<title>is_validator_&#45;&gt;get_validator_index_</title>
<path fill="none" stroke="black" d="M162.73,-318.41C155.92,-309.91 147.5,-299.37 139.93,-289.91"/>
<polygon fill="black" stroke="black" points="142.55,-287.58 133.56,-281.96 137.08,-291.95 142.55,-287.58"/>
</g>
<!-- Vector::is_empty -->
<g id="node4" class="node">
<title>Vector::is_empty</title>
<ellipse fill="none" stroke="black" cx="208" cy="-106" rx="43.59" ry="18"/>
<text text-anchor="middle" x="208" y="-102.3" font-family="Times,serif" font-size="14.00">is_empty</text>
</g>
<!-- Option::is_some&#45;&gt;Vector::is_empty -->
<g id="edge3" class="edge">
<title>Option::is_some&#45;&gt;Vector::is_empty</title>
<path fill="none" stroke="black" d="M208,-170.82C208,-160.19 208,-146.31 208,-134.2"/>
<polygon fill="black" stroke="black" points="211.5,-134.15 208,-124.15 204.5,-134.15 211.5,-134.15"/>
</g>
<!-- Vector::borrow -->
<g id="node5" class="node">
<title>Vector::borrow</title>
<ellipse fill="none" stroke="black" cx="306" cy="-106" rx="36.29" ry="18"/>
<text text-anchor="middle" x="306" y="-102.3" font-family="Times,serif" font-size="14.00">borrow</text>
</g>
<!-- get_validator_index_&#45;&gt;Vector::borrow -->
<g id="edge4" class="edge">
<title>get_validator_index_&#45;&gt;Vector::borrow</title>
<path fill="none" stroke="black" d="M196.85,-256.15C223.83,-252.33 249.94,-246.56 260,-238 290.58,-211.99 300.84,-164.38 304.28,-134.28"/>
<polygon fill="black" stroke="black" points="307.79,-134.34 305.26,-124.05 300.82,-133.67 307.79,-134.34"/>
</g>
<!-- Vector::length -->
<g id="node6" class="node">
<title>Vector::length</title>
<ellipse fill="none" stroke="black" cx="301" cy="-34" rx="32.49" ry="18"/>
<text text-anchor="middle" x="301" y="-30.3" font-family="Times,serif" font-size="14.00">length</text>
</g>
<!-- get_validator_index_&#45;&gt;Vector::length -->
<g id="edge5" class="edge">
<title>get_validator_index_&#45;&gt;Vector::length</title>
<path fill="none" stroke="black" d="M200.11,-257.7C237.93,-253.96 278.19,-247.82 294,-238 354.58,-200.37 377.33,-154.28 351,-88 346.11,-75.69 336.86,-64.59 327.63,-55.76"/>
<polygon fill="black" stroke="black" points="329.76,-52.97 319.98,-48.9 325.09,-58.19 329.76,-52.97"/>
</g>
<!-- Option::none -->
<g id="node7" class="node">
<title>Option::none</title>
<ellipse fill="none" stroke="black" cx="44" cy="-189" rx="27.9" ry="18"/>
<text text-anchor="middle" x="44" y="-185.3" font-family="Times,serif" font-size="14.00">none</text>
</g>
<!-- get_validator_index_&#45;&gt;Option::none -->
<g id="edge6" class="edge">
<title>get_validator_index_&#45;&gt;Option::none</title>
<path fill="none" stroke="black" d="M92.27,-246.93C88.32,-244.16 84.44,-241.15 81,-238 73.29,-230.93 65.98,-222.11 59.93,-213.96"/>
<polygon fill="black" stroke="black" points="62.78,-211.93 54.12,-205.82 57.08,-215.99 62.78,-211.93"/>
</g>
<!-- Option::some -->
<g id="node8" class="node">
<title>Option::some</title>
<ellipse fill="none" stroke="black" cx="120" cy="-189" rx="29.8" ry="18"/>
<text text-anchor="middle" x="120" y="-185.3" font-family="Times,serif" font-size="14.00">some</text>
</g>
<!-- get_validator_index_&#45;&gt;Option::some -->
<g id="edge7" class="edge">
<title>get_validator_index_&#45;&gt;Option::some</title>
<path fill="none" stroke="black" d="M120,-245.7C120,-237.25 120,-226.87 120,-217.37"/>
<polygon fill="black" stroke="black" points="123.5,-217.18 120,-207.18 116.5,-217.18 123.5,-217.18"/>
</g>
<!-- Vector::is_empty&#45;&gt;Vector::length -->
<g id="edge8" class="edge">
<title>Vector::is_empty&#45;&gt;Vector::length</title>
<path fill="none" stroke="black" d="M228.18,-89.81C241.67,-79.66 259.56,-66.19 274.23,-55.15"/>
<polygon fill="black" stroke="black" points="276.56,-57.78 282.44,-48.97 272.35,-52.19 276.56,-57.78"/>
</g>
<!-- Vector::empty -->
<g id="node9" class="node">
<title>Vector::empty</title>
<ellipse fill="none" stroke="black" cx="94" cy="-34" rx="33.29" ry="18"/>
<text text-anchor="middle" x="94" y="-30.3" font-family="Times,serif" font-size="14.00">empty</text>
</g>
<!-- Option::none&#45;&gt;Vector::empty -->
<g id="edge9" class="edge">
<title>Option::none&#45;&gt;Vector::empty</title>
<path fill="none" stroke="black" d="M42.41,-170.69C41.19,-150.2 41.22,-115.39 52,-88 56.35,-76.96 63.81,-66.38 71.24,-57.61"/>
<polygon fill="black" stroke="black" points="73.9,-59.89 77.98,-50.11 68.69,-55.21 73.9,-59.89"/>
</g>
<!-- Vector::singleton -->
<g id="node10" class="node">
<title>Vector::singleton</title>
<ellipse fill="none" stroke="black" cx="104" cy="-106" rx="42.79" ry="18"/>
<text text-anchor="middle" x="104" y="-102.3" font-family="Times,serif" font-size="14.00">singleton</text>
</g>
<!-- Option::some&#45;&gt;Vector::singleton -->
<g id="edge10" class="edge">
<title>Option::some&#45;&gt;Vector::singleton</title>
<path fill="none" stroke="black" d="M116.61,-170.82C114.51,-160.19 111.76,-146.31 109.37,-134.2"/>
<polygon fill="black" stroke="black" points="112.76,-133.29 107.39,-124.15 105.89,-134.64 112.76,-133.29"/>
</g>
<!-- Vector::singleton&#45;&gt;Vector::empty -->
<g id="edge11" class="edge">
<title>Vector::singleton&#45;&gt;Vector::empty</title>
<path fill="none" stroke="black" d="M101.53,-87.7C100.43,-79.98 99.1,-70.71 97.87,-62.11"/>
<polygon fill="black" stroke="black" points="101.32,-61.51 96.44,-52.1 94.39,-62.5 101.32,-61.51"/>
</g>
<!-- Vector::push_back -->
<g id="node11" class="node">
<title>Vector::push_back</title>
<ellipse fill="none" stroke="black" cx="193" cy="-34" rx="48.19" ry="18"/>
<text text-anchor="middle" x="193" y="-30.3" font-family="Times,serif" font-size="14.00">push_back</text>
</g>
<!-- Vector::singleton&#45;&gt;Vector::push_back -->
<g id="edge12" class="edge">
<title>Vector::singleton&#45;&gt;Vector::push_back</title>
<path fill="none" stroke="black" d="M123.31,-89.81C135.5,-80.22 151.46,-67.67 165.03,-57"/>
<polygon fill="black" stroke="black" points="167.41,-59.58 173.11,-50.64 163.09,-54.08 167.41,-59.58"/>
</g>
</g>
</svg>
