<?xml version="1.0" encoding="UTF-8" standalone="no"?>
<!DOCTYPE svg PUBLIC "-//W3C//DTD SVG 1.1//EN"
 "http://www.w3.org/Graphics/SVG/1.1/DTD/svg11.dtd">
<!-- Generated by graphviz version 2.46.1 (20210213.1702)
 -->
<!-- Title: G Pages: 1 -->
<svg width="1086pt" height="188pt"
 viewBox="0.00 0.00 1085.55 188.00" xmlns="http://www.w3.org/2000/svg" xmlns:xlink="http://www.w3.org/1999/xlink">
<g id="graph0" class="graph" transform="scale(1 1) rotate(0) translate(4 184)">
<title>G</title>
<polygon fill="white" stroke="transparent" points="-4,4 -4,-184 1081.55,-184 1081.55,4 -4,4"/>
<!-- DiemAccount -->
<g id="node1" class="node">
<title>DiemAccount</title>
<ellipse fill="none" stroke="black" cx="501.36" cy="-18" rx="60.39" ry="18"/>
<text text-anchor="middle" x="501.36" y="-14.3" font-family="Times,serif" font-size="14.00">DiemAccount</text>
</g>
<!-- SharedEd25519PublicKey -->
<g id="node2" class="node">
<title>SharedEd25519PublicKey</title>
<ellipse fill="none" stroke="black" cx="120.36" cy="-90" rx="103.98" ry="18"/>
<text text-anchor="middle" x="120.36" y="-86.3" font-family="Times,serif" font-size="14.00">SharedEd25519PublicKey</text>
</g>
<!-- SharedEd25519PublicKey&#45;&gt;DiemAccount -->
<g id="edge1" class="edge">
<title>SharedEd25519PublicKey&#45;&gt;DiemAccount</title>
<path fill="none" stroke="black" d="M188.92,-76.4C260.75,-63.21 372.49,-42.68 441.07,-30.08"/>
<polygon fill="black" stroke="black" points="442.07,-33.45 451.27,-28.2 440.81,-26.57 442.07,-33.45"/>
</g>
<!-- RecoveryAddress -->
<g id="node3" class="node">
<title>RecoveryAddress</title>
<ellipse fill="none" stroke="black" cx="315.36" cy="-90" rx="73.39" ry="18"/>
<text text-anchor="middle" x="315.36" y="-86.3" font-family="Times,serif" font-size="14.00">RecoveryAddress</text>
</g>
<!-- RecoveryAddress&#45;&gt;DiemAccount -->
<g id="edge2" class="edge">
<title>RecoveryAddress&#45;&gt;DiemAccount</title>
<path fill="none" stroke="black" d="M353.9,-74.5C383.6,-63.32 424.74,-47.83 456.03,-36.06"/>
<polygon fill="black" stroke="black" points="457.27,-39.33 465.39,-32.54 454.8,-32.78 457.27,-39.33"/>
</g>
<!-- AccountAdministrationScripts -->
<g id="node4" class="node">
<title>AccountAdministrationScripts</title>
<ellipse fill="none" stroke="black" cx="120.36" cy="-162" rx="118.08" ry="18"/>
<text text-anchor="middle" x="120.36" y="-158.3" font-family="Times,serif" font-size="14.00">AccountAdministrationScripts</text>
</g>
<!-- AccountAdministrationScripts&#45;&gt;DiemAccount -->
<g id="edge3" class="edge">
<title>AccountAdministrationScripts&#45;&gt;DiemAccount</title>
<path fill="none" stroke="black" d="M59.16,-146.55C39.16,-138.62 19.1,-126.47 7.36,-108 -1.22,-94.5 -3.33,-83.9 7.36,-72 35.18,-41.04 301.89,-26.64 431.43,-21.42"/>
<polygon fill="black" stroke="black" points="431.79,-24.91 441.65,-21.02 431.52,-17.92 431.79,-24.91"/>
</g>
<!-- AccountAdministrationScripts&#45;&gt;SharedEd25519PublicKey -->
<g id="edge8" class="edge">
<title>AccountAdministrationScripts&#45;&gt;SharedEd25519PublicKey</title>
<path fill="none" stroke="black" d="M120.36,-143.7C120.36,-135.98 120.36,-126.71 120.36,-118.11"/>
<polygon fill="black" stroke="black" points="123.86,-118.1 120.36,-108.1 116.86,-118.1 123.86,-118.1"/>
</g>
<!-- AccountAdministrationScripts&#45;&gt;RecoveryAddress -->
<g id="edge9" class="edge">
<title>AccountAdministrationScripts&#45;&gt;RecoveryAddress</title>
<path fill="none" stroke="black" d="M164.61,-145.12C194.72,-134.31 234.61,-119.99 265.8,-108.79"/>
<polygon fill="black" stroke="black" points="267.36,-111.95 275.59,-105.28 265,-105.36 267.36,-111.95"/>
</g>
<!-- AccountCreationScripts -->
<g id="node5" class="node">
<title>AccountCreationScripts</title>
<ellipse fill="none" stroke="black" cx="501.36" cy="-90" rx="94.78" ry="18"/>
<text text-anchor="middle" x="501.36" y="-86.3" font-family="Times,serif" font-size="14.00">AccountCreationScripts</text>
</g>
<!-- AccountCreationScripts&#45;&gt;DiemAccount -->
<g id="edge4" class="edge">
<title>AccountCreationScripts&#45;&gt;DiemAccount</title>
<path fill="none" stroke="black" d="M501.36,-71.7C501.36,-63.98 501.36,-54.71 501.36,-46.11"/>
<polygon fill="black" stroke="black" points="504.86,-46.1 501.36,-36.1 497.86,-46.1 504.86,-46.1"/>
</g>
<!-- Genesis -->
<g id="node6" class="node">
<title>Genesis</title>
<ellipse fill="none" stroke="black" cx="652.36" cy="-90" rx="38.19" ry="18"/>
<text text-anchor="middle" x="652.36" y="-86.3" font-family="Times,serif" font-size="14.00">Genesis</text>
</g>
<!-- Genesis&#45;&gt;DiemAccount -->
<g id="edge5" class="edge">
<title>Genesis&#45;&gt;DiemAccount</title>
<path fill="none" stroke="black" d="M626.06,-76.81C602.78,-66.01 568.44,-50.1 541.69,-37.7"/>
<polygon fill="black" stroke="black" points="543.12,-34.5 532.58,-33.47 540.18,-40.85 543.12,-34.5"/>
</g>
<!-- PaymentScripts -->
<g id="node7" class="node">
<title>PaymentScripts</title>
<ellipse fill="none" stroke="black" cx="775.36" cy="-90" rx="66.09" ry="18"/>
<text text-anchor="middle" x="775.36" y="-86.3" font-family="Times,serif" font-size="14.00">PaymentScripts</text>
</g>
<!-- PaymentScripts&#45;&gt;DiemAccount -->
<g id="edge6" class="edge">
<title>PaymentScripts&#45;&gt;DiemAccount</title>
<path fill="none" stroke="black" d="M728.88,-77.13C680.93,-64.87 606.2,-45.78 555.58,-32.85"/>
<polygon fill="black" stroke="black" points="556.35,-29.44 545.79,-30.35 554.62,-36.22 556.35,-29.44"/>
</g>
<!-- TreasuryComplianceScripts -->
<g id="node8" class="node">
<title>TreasuryComplianceScripts</title>
<ellipse fill="none" stroke="black" cx="968.36" cy="-90" rx="109.38" ry="18"/>
<text text-anchor="middle" x="968.36" y="-86.3" font-family="Times,serif" font-size="14.00">TreasuryComplianceScripts</text>
</g>
<!-- TreasuryComplianceScripts&#45;&gt;DiemAccount -->
<g id="edge7" class="edge">
<title>TreasuryComplianceScripts&#45;&gt;DiemAccount</title>
<path fill="none" stroke="black" d="M890.46,-77.32C798.81,-63.59 648.48,-41.05 564.02,-28.39"/>
<polygon fill="black" stroke="black" points="564.46,-24.92 554.05,-26.9 563.42,-31.84 564.46,-24.92"/>
</g>
</g>
</svg>
