<?xml version="1.0" encoding="UTF-8" standalone="no"?>
<!DOCTYPE svg PUBLIC "-//W3C//DTD SVG 1.1//EN"
 "http://www.w3.org/Graphics/SVG/1.1/DTD/svg11.dtd">
<!-- Generated by graphviz version 2.46.1 (20210213.1702)
 -->
<!-- Title: G Pages: 1 -->
<svg width="794pt" height="373pt"
 viewBox="0.00 0.00 794.00 373.00" xmlns="http://www.w3.org/2000/svg" xmlns:xlink="http://www.w3.org/1999/xlink">
<g id="graph0" class="graph" transform="scale(1 1) rotate(0) translate(4 369)">
<title>G</title>
<polygon fill="white" stroke="transparent" points="-4,4 -4,-369 790,-369 790,4 -4,4"/>
<g id="clust1" class="cluster">
<title>cluster_Roles</title>
<polygon fill="none" stroke="black" points="8,-163 8,-321 186,-321 186,-163 8,-163"/>
<text text-anchor="middle" x="97" y="-305.8" font-family="Times,serif" font-size="14.00">Roles</text>
</g>
<g id="clust2" class="cluster">
<title>cluster_Vector</title>
<polygon fill="none" stroke="black" points="194,-163 194,-321 396,-321 396,-163 194,-163"/>
<text text-anchor="middle" x="295" y="-305.8" font-family="Times,serif" font-size="14.00">Vector</text>
</g>
<g id="clust3" class="cluster">
<title>cluster_DiemConfig</title>
<polygon fill="none" stroke="black" points="430,-246 430,-321 514,-321 514,-246 430,-246"/>
<text text-anchor="middle" x="472" y="-305.8" font-family="Times,serif" font-size="14.00">DiemConfig</text>
</g>
<g id="clust4" class="cluster">
<title>cluster_Errors</title>
<polygon fill="none" stroke="black" points="404,-80 404,-238 540,-238 540,-80 404,-80"/>
<text text-anchor="middle" x="472" y="-222.8" font-family="Times,serif" font-size="14.00">Errors</text>
</g>
<g id="clust5" class="cluster">
<title>cluster_CoreAddresses</title>
<polygon fill="none" stroke="black" points="548,-163 548,-238 778,-238 778,-163 548,-163"/>
<text text-anchor="middle" x="663" y="-222.8" font-family="Times,serif" font-size="14.00">CoreAddresses</text>
</g>
<g id="clust6" class="cluster">
<title>cluster_Signer</title>
<polygon fill="none" stroke="black" points="22,-8 22,-155 172,-155 172,-8 22,-8"/>
<text text-anchor="middle" x="97" y="-139.8" font-family="Times,serif" font-size="14.00">Signer</text>
</g>
<!-- is_script_allowed -->
<g id="node1" class="node">
<title>is_script_allowed</title>
<ellipse fill="none" stroke="black" cx="348" cy="-347" rx="72.59" ry="18"/>
<text text-anchor="middle" x="348" y="-343.3" font-family="Times,serif" font-size="14.00">is_script_allowed</text>
</g>
<!-- Roles::has_diem_root_role -->
<g id="node2" class="node">
<title>Roles::has_diem_root_role</title>
<ellipse fill="none" stroke="black" cx="97" cy="-272" rx="81.49" ry="18"/>
<text text-anchor="middle" x="97" y="-268.3" font-family="Times,serif" font-size="14.00">has_diem_root_role</text>
</g>
<!-- is_script_allowed&#45;&gt;Roles::has_diem_root_role -->
<g id="edge1" class="edge">
<title>is_script_allowed&#45;&gt;Roles::has_diem_root_role</title>
<path fill="none" stroke="black" d="M280.38,-340.11C251.98,-336.41 218.9,-330.47 190,-321 169.9,-314.41 148.84,-303.89 131.86,-294.37"/>
<polygon fill="black" stroke="black" points="133.29,-291.16 122.87,-289.22 129.81,-297.23 133.29,-291.16"/>
</g>
<!-- Vector::contains -->
<g id="node3" class="node">
<title>Vector::contains</title>
<ellipse fill="none" stroke="black" cx="348" cy="-272" rx="40.09" ry="18"/>
<text text-anchor="middle" x="348" y="-268.3" font-family="Times,serif" font-size="14.00">contains</text>
</g>
<!-- is_script_allowed&#45;&gt;Vector::contains -->
<g id="edge2" class="edge">
<title>is_script_allowed&#45;&gt;Vector::contains</title>
<path fill="none" stroke="black" d="M348,-328.7C348,-320.25 348,-309.87 348,-300.37"/>
<polygon fill="black" stroke="black" points="351.5,-300.18 348,-290.18 344.5,-300.18 351.5,-300.18"/>
</g>
<!-- Vector::is_empty -->
<g id="node4" class="node">
<title>Vector::is_empty</title>
<ellipse fill="none" stroke="black" cx="246" cy="-272" rx="43.59" ry="18"/>
<text text-anchor="middle" x="246" y="-268.3" font-family="Times,serif" font-size="14.00">is_empty</text>
</g>
<!-- is_script_allowed&#45;&gt;Vector::is_empty -->
<g id="edge3" class="edge">
<title>is_script_allowed&#45;&gt;Vector::is_empty</title>
<path fill="none" stroke="black" d="M315.41,-330.9C309.78,-327.87 304.11,-324.52 299,-321 288.41,-313.69 277.71,-304.44 268.72,-296.01"/>
<polygon fill="black" stroke="black" points="270.94,-293.29 261.31,-288.88 266.09,-298.33 270.94,-293.29"/>
</g>
<!-- DiemConfig::get -->
<g id="node5" class="node">
<title>DiemConfig::get</title>
<ellipse fill="none" stroke="black" cx="472" cy="-272" rx="27" ry="18"/>
<text text-anchor="middle" x="472" y="-268.3" font-family="Times,serif" font-size="14.00">get</text>
</g>
<!-- is_script_allowed&#45;&gt;DiemConfig::get -->
<g id="edge4" class="edge">
<title>is_script_allowed&#45;&gt;DiemConfig::get</title>
<path fill="none" stroke="black" d="M381.09,-330.95C387.45,-327.82 394,-324.42 400,-321 415.74,-312.03 432.63,-300.86 446.09,-291.55"/>
<polygon fill="black" stroke="black" points="448.2,-294.35 454.39,-285.75 444.19,-288.61 448.2,-294.35"/>
</g>
<!-- transactions_halted -->
<g id="node6" class="node">
<title>transactions_halted</title>
<ellipse fill="none" stroke="black" cx="628" cy="-272" rx="78.79" ry="18"/>
<text text-anchor="middle" x="628" y="-268.3" font-family="Times,serif" font-size="14.00">transactions_halted</text>
</g>
<!-- is_script_allowed&#45;&gt;transactions_halted -->
<g id="edge5" class="edge">
<title>is_script_allowed&#45;&gt;transactions_halted</title>
<path fill="none" stroke="black" d="M415.48,-340.24C447.04,-336.49 484.87,-330.48 518,-321 542.32,-314.04 568.31,-302.89 588.92,-293.08"/>
<polygon fill="black" stroke="black" points="590.51,-296.2 597.99,-288.69 587.46,-289.9 590.51,-296.2"/>
</g>
<!-- Roles::has_role -->
<g id="node7" class="node">
<title>Roles::has_role</title>
<ellipse fill="none" stroke="black" cx="97" cy="-189" rx="40.09" ry="18"/>
<text text-anchor="middle" x="97" y="-185.3" font-family="Times,serif" font-size="14.00">has_role</text>
</g>
<!-- Roles::has_diem_root_role&#45;&gt;Roles::has_role -->
<g id="edge6" class="edge">
<title>Roles::has_diem_root_role&#45;&gt;Roles::has_role</title>
<path fill="none" stroke="black" d="M97,-253.82C97,-243.19 97,-229.31 97,-217.2"/>
<polygon fill="black" stroke="black" points="100.5,-217.15 97,-207.15 93.5,-217.15 100.5,-217.15"/>
</g>
<!-- Vector::borrow -->
<g id="node8" class="node">
<title>Vector::borrow</title>
<ellipse fill="none" stroke="black" cx="348" cy="-189" rx="36.29" ry="18"/>
<text text-anchor="middle" x="348" y="-185.3" font-family="Times,serif" font-size="14.00">borrow</text>
</g>
<!-- Vector::contains&#45;&gt;Vector::borrow -->
<g id="edge7" class="edge">
<title>Vector::contains&#45;&gt;Vector::borrow</title>
<path fill="none" stroke="black" d="M348,-253.82C348,-243.19 348,-229.31 348,-217.2"/>
<polygon fill="black" stroke="black" points="351.5,-217.15 348,-207.15 344.5,-217.15 351.5,-217.15"/>
</g>
<!-- Vector::length -->
<g id="node9" class="node">
<title>Vector::length</title>
<ellipse fill="none" stroke="black" cx="253" cy="-189" rx="32.49" ry="18"/>
<text text-anchor="middle" x="253" y="-185.3" font-family="Times,serif" font-size="14.00">length</text>
</g>
<!-- Vector::contains&#45;&gt;Vector::length -->
<g id="edge8" class="edge">
<title>Vector::contains&#45;&gt;Vector::length</title>
<path fill="none" stroke="black" d="M326.95,-256.44C319.25,-250.89 310.57,-244.36 303,-238 293.55,-230.06 283.64,-220.77 275.16,-212.5"/>
<polygon fill="black" stroke="black" points="277.4,-209.79 267.83,-205.25 272.48,-214.77 277.4,-209.79"/>
</g>
<!-- Vector::is_empty&#45;&gt;Vector::length -->
<g id="edge9" class="edge">
<title>Vector::is_empty&#45;&gt;Vector::length</title>
<path fill="none" stroke="black" d="M247.48,-253.82C248.4,-243.19 249.6,-229.31 250.65,-217.2"/>
<polygon fill="black" stroke="black" points="254.14,-217.42 251.52,-207.15 247.17,-216.81 254.14,-217.42"/>
</g>
<!-- Errors::not_published -->
<g id="node10" class="node">
<title>Errors::not_published</title>
<ellipse fill="none" stroke="black" cx="472" cy="-189" rx="60.39" ry="18"/>
<text text-anchor="middle" x="472" y="-185.3" font-family="Times,serif" font-size="14.00">not_published</text>
</g>
<!-- DiemConfig::get&#45;&gt;Errors::not_published -->
<g id="edge10" class="edge">
<title>DiemConfig::get&#45;&gt;Errors::not_published</title>
<path fill="none" stroke="black" d="M472,-253.82C472,-243.19 472,-229.31 472,-217.2"/>
<polygon fill="black" stroke="black" points="475.5,-217.15 472,-207.15 468.5,-217.15 475.5,-217.15"/>
</g>
<!-- CoreAddresses::DIEM_ROOT_ADDRESS -->
<g id="node11" class="node">
<title>CoreAddresses::DIEM_ROOT_ADDRESS</title>
<ellipse fill="none" stroke="black" cx="663" cy="-189" rx="106.68" ry="18"/>
<text text-anchor="middle" x="663" y="-185.3" font-family="Times,serif" font-size="14.00">DIEM_ROOT_ADDRESS</text>
</g>
<!-- DiemConfig::get&#45;&gt;CoreAddresses::DIEM_ROOT_ADDRESS -->
<g id="edge11" class="edge">
<title>DiemConfig::get&#45;&gt;CoreAddresses::DIEM_ROOT_ADDRESS</title>
<path fill="none" stroke="black" d="M494.28,-261.55C523.95,-248.97 577.17,-226.4 615.92,-209.96"/>
<polygon fill="black" stroke="black" points="617.6,-213.06 625.44,-205.93 614.87,-206.61 617.6,-213.06"/>
</g>
<!-- transactions_halted&#45;&gt;CoreAddresses::DIEM_ROOT_ADDRESS -->
<g id="edge12" class="edge">
<title>transactions_halted&#45;&gt;CoreAddresses::DIEM_ROOT_ADDRESS</title>
<path fill="none" stroke="black" d="M635.42,-253.82C640.11,-242.98 646.26,-228.74 651.56,-216.47"/>
<polygon fill="black" stroke="black" points="654.83,-217.72 655.59,-207.15 648.41,-214.94 654.83,-217.72"/>
</g>
<!-- Signer::address_of -->
<g id="node12" class="node">
<title>Signer::address_of</title>
<ellipse fill="none" stroke="black" cx="97" cy="-106" rx="48.99" ry="18"/>
<text text-anchor="middle" x="97" y="-102.3" font-family="Times,serif" font-size="14.00">address_of</text>
</g>
<!-- Roles::has_role&#45;&gt;Signer::address_of -->
<g id="edge13" class="edge">
<title>Roles::has_role&#45;&gt;Signer::address_of</title>
<path fill="none" stroke="black" d="M97,-170.82C97,-160.19 97,-146.31 97,-134.2"/>
<polygon fill="black" stroke="black" points="100.5,-134.15 97,-124.15 93.5,-134.15 100.5,-134.15"/>
</g>
<!-- Errors::make -->
<g id="node13" class="node">
<title>Errors::make</title>
<ellipse fill="none" stroke="black" cx="472" cy="-106" rx="30.59" ry="18"/>
<text text-anchor="middle" x="472" y="-102.3" font-family="Times,serif" font-size="14.00">make</text>
</g>
<!-- Errors::not_published&#45;&gt;Errors::make -->
<g id="edge14" class="edge">
<title>Errors::not_published&#45;&gt;Errors::make</title>
<path fill="none" stroke="black" d="M472,-170.82C472,-160.19 472,-146.31 472,-134.2"/>
<polygon fill="black" stroke="black" points="475.5,-134.15 472,-124.15 468.5,-134.15 475.5,-134.15"/>
</g>
<!-- Signer::borrow_address -->
<g id="node14" class="node">
<title>Signer::borrow_address</title>
<ellipse fill="none" stroke="black" cx="97" cy="-34" rx="66.89" ry="18"/>
<text text-anchor="middle" x="97" y="-30.3" font-family="Times,serif" font-size="14.00">borrow_address</text>
</g>
<!-- Signer::address_of&#45;&gt;Signer::borrow_address -->
<g id="edge15" class="edge">
<title>Signer::address_of&#45;&gt;Signer::borrow_address</title>
<path fill="none" stroke="black" d="M97,-87.7C97,-79.98 97,-70.71 97,-62.11"/>
<polygon fill="black" stroke="black" points="100.5,-62.1 97,-52.1 93.5,-62.1 100.5,-62.1"/>
</g>
</g>
</svg>
