<?xml version="1.0" encoding="UTF-8" standalone="no"?>
<!DOCTYPE svg PUBLIC "-//W3C//DTD SVG 1.1//EN"
 "http://www.w3.org/Graphics/SVG/1.1/DTD/svg11.dtd">
<!-- Generated by graphviz version 2.46.1 (20210213.1702)
 -->
<!-- Title: G Pages: 1 -->
<svg width="1363pt" height="467pt"
 viewBox="0.00 0.00 1362.60 467.00" xmlns="http://www.w3.org/2000/svg" xmlns:xlink="http://www.w3.org/1999/xlink">
<g id="graph0" class="graph" transform="scale(1 1) rotate(0) translate(4 463)">
<title>G</title>
<polygon fill="white" stroke="transparent" points="-4,4 -4,-463 1358.6,-463 1358.6,4 -4,4"/>
<g id="clust1" class="cluster">
<title>cluster_Signer</title>
<polygon fill="none" stroke="black" points="123,-257 123,-415 273,-415 273,-257 123,-257"/>
<text text-anchor="middle" x="198" y="-399.8" font-family="Times,serif" font-size="14.00">Signer</text>
</g>
<g id="clust2" class="cluster">
<title>cluster_Errors</title>
<polygon fill="none" stroke="black" points="8,-8 8,-166 587,-166 587,-8 8,-8"/>
<text text-anchor="middle" x="297.5" y="-150.8" font-family="Times,serif" font-size="14.00">Errors</text>
</g>
<g id="clust3" class="cluster">
<title>cluster_DiemTimestamp</title>
<polygon fill="none" stroke="black" points="627,-91 627,-415 801,-415 801,-91 627,-91"/>
<text text-anchor="middle" x="714" y="-399.8" font-family="Times,serif" font-size="14.00">DiemTimestamp</text>
</g>
<g id="clust4" class="cluster">
<title>cluster_TransactionFee</title>
<polygon fill="none" stroke="black" points="809,-340 809,-415 975,-415 975,-340 809,-340"/>
<text text-anchor="middle" x="892" y="-399.8" font-family="Times,serif" font-size="14.00">TransactionFee</text>
</g>
<g id="clust5" class="cluster">
<title>cluster_Hash</title>
<polygon fill="none" stroke="black" points="983,-340 983,-415 1087,-415 1087,-340 983,-340"/>
<text text-anchor="middle" x="1035" y="-399.8" font-family="Times,serif" font-size="14.00">Hash</text>
</g>
<g id="clust6" class="cluster">
<title>cluster_ChainId</title>
<polygon fill="none" stroke="black" points="549,-257 549,-332 619,-332 619,-257 549,-257"/>
<text text-anchor="middle" x="584" y="-316.8" font-family="Times,serif" font-size="14.00">ChainId</text>
</g>
<g id="clust7" class="cluster">
<title>cluster_AccountFreezing</title>
<polygon fill="none" stroke="black" points="1095,-340 1095,-415 1261,-415 1261,-340 1095,-340"/>
<text text-anchor="middle" x="1178" y="-399.8" font-family="Times,serif" font-size="14.00">AccountFreezing</text>
</g>
<g id="clust8" class="cluster">
<title>cluster_CoreAddresses</title>
<polygon fill="none" stroke="black" points="595,-8 595,-83 1169,-83 1169,-8 595,-8"/>
<text text-anchor="middle" x="882" y="-67.8" font-family="Times,serif" font-size="14.00">CoreAddresses</text>
</g>
<g id="clust9" class="cluster">
<title>cluster_Diem</title>
<polygon fill="none" stroke="black" points="373,-174 373,-249 449,-249 449,-174 373,-174"/>
<text text-anchor="middle" x="411" y="-233.8" font-family="Times,serif" font-size="14.00">Diem</text>
</g>
<!-- prologue_common -->
<g id="node1" class="node">
<title>prologue_common</title>
<ellipse fill="none" stroke="black" cx="584" cy="-441" rx="77.99" ry="18"/>
<text text-anchor="middle" x="584" y="-437.3" font-family="Times,serif" font-size="14.00">prologue_common</text>
</g>
<!-- Signer::address_of -->
<g id="node2" class="node">
<title>Signer::address_of</title>
<ellipse fill="none" stroke="black" cx="207" cy="-366" rx="48.99" ry="18"/>
<text text-anchor="middle" x="207" y="-362.3" font-family="Times,serif" font-size="14.00">address_of</text>
</g>
<!-- prologue_common&#45;&gt;Signer::address_of -->
<g id="edge1" class="edge">
<title>prologue_common&#45;&gt;Signer::address_of</title>
<path fill="none" stroke="black" d="M506.92,-438.07C430.64,-435.38 319.58,-429.12 279,-415 262.47,-409.25 246.08,-398.79 233.12,-389.11"/>
<polygon fill="black" stroke="black" points="235.18,-386.27 225.13,-382.91 230.89,-391.8 235.18,-386.27"/>
</g>
<!-- Errors::invalid_argument -->
<g id="node3" class="node">
<title>Errors::invalid_argument</title>
<ellipse fill="none" stroke="black" cx="89" cy="-117" rx="73.39" ry="18"/>
<text text-anchor="middle" x="89" y="-113.3" font-family="Times,serif" font-size="14.00">invalid_argument</text>
</g>
<!-- prologue_common&#45;&gt;Errors::invalid_argument -->
<g id="edge2" class="edge">
<title>prologue_common&#45;&gt;Errors::invalid_argument</title>
<path fill="none" stroke="black" d="M506.07,-439.86C447.57,-438.28 373.5,-432.66 349,-415 286.4,-369.87 325.58,-316.96 277,-257 234.87,-204.99 169.01,-162.31 127.47,-138.52"/>
<polygon fill="black" stroke="black" points="129.17,-135.46 118.74,-133.59 125.73,-141.56 129.17,-135.46"/>
</g>
<!-- Errors::invalid_state -->
<g id="node4" class="node">
<title>Errors::invalid_state</title>
<ellipse fill="none" stroke="black" cx="523" cy="-117" rx="55.79" ry="18"/>
<text text-anchor="middle" x="523" y="-113.3" font-family="Times,serif" font-size="14.00">invalid_state</text>
</g>
<!-- prologue_common&#45;&gt;Errors::invalid_state -->
<g id="edge3" class="edge">
<title>prologue_common&#45;&gt;Errors::invalid_state</title>
<path fill="none" stroke="black" d="M510.92,-434.44C473.37,-430.54 432.15,-424.32 416,-415 375.18,-391.44 365.53,-376.5 350,-332 326.69,-265.22 315.72,-220.51 369,-174 383.96,-160.94 439.44,-173.05 458,-166 472.77,-160.39 487.13,-150.42 498.58,-141.02"/>
<polygon fill="black" stroke="black" points="501.05,-143.51 506.37,-134.34 496.5,-138.19 501.05,-143.51"/>
</g>
<!-- Errors::limit_exceeded -->
<g id="node5" class="node">
<title>Errors::limit_exceeded</title>
<ellipse fill="none" stroke="black" cx="384" cy="-117" rx="64.99" ry="18"/>
<text text-anchor="middle" x="384" y="-113.3" font-family="Times,serif" font-size="14.00">limit_exceeded</text>
</g>
<!-- prologue_common&#45;&gt;Errors::limit_exceeded -->
<g id="edge4" class="edge">
<title>prologue_common&#45;&gt;Errors::limit_exceeded</title>
<path fill="none" stroke="black" d="M577.87,-422.83C557.33,-365.41 491.63,-183.21 482,-174 473.87,-166.23 468.13,-170.88 458,-166 442.87,-158.72 427.11,-148.86 414.05,-139.98"/>
<polygon fill="black" stroke="black" points="415.69,-136.85 405.48,-134.02 411.7,-142.6 415.69,-136.85"/>
</g>
<!-- DiemTimestamp::now_seconds -->
<g id="node6" class="node">
<title>DiemTimestamp::now_seconds</title>
<ellipse fill="none" stroke="black" cx="703" cy="-366" rx="57.69" ry="18"/>
<text text-anchor="middle" x="703" y="-362.3" font-family="Times,serif" font-size="14.00">now_seconds</text>
</g>
<!-- prologue_common&#45;&gt;DiemTimestamp::now_seconds -->
<g id="edge5" class="edge">
<title>prologue_common&#45;&gt;DiemTimestamp::now_seconds</title>
<path fill="none" stroke="black" d="M610.12,-423.98C627.48,-413.33 650.45,-399.23 669.21,-387.73"/>
<polygon fill="black" stroke="black" points="671.07,-390.69 677.76,-382.48 667.41,-384.73 671.07,-390.69"/>
</g>
<!-- TransactionFee::is_coin_initialized -->
<g id="node7" class="node">
<title>TransactionFee::is_coin_initialized</title>
<ellipse fill="none" stroke="black" cx="892" cy="-366" rx="75.29" ry="18"/>
<text text-anchor="middle" x="892" y="-362.3" font-family="Times,serif" font-size="14.00">is_coin_initialized</text>
</g>
<!-- prologue_common&#45;&gt;TransactionFee::is_coin_initialized -->
<g id="edge6" class="edge">
<title>prologue_common&#45;&gt;TransactionFee::is_coin_initialized</title>
<path fill="none" stroke="black" d="M661.48,-438.62C704.6,-436.03 758.74,-429.74 805,-415 824.1,-408.92 843.78,-398.47 859.59,-388.87"/>
<polygon fill="black" stroke="black" points="861.78,-391.62 868.41,-383.35 858.08,-385.68 861.78,-391.62"/>
</g>
<!-- Hash::sha3_256 -->
<g id="node8" class="node">
<title>Hash::sha3_256</title>
<ellipse fill="none" stroke="black" cx="1035" cy="-366" rx="44.39" ry="18"/>
<text text-anchor="middle" x="1035" y="-362.3" font-family="Times,serif" font-size="14.00">sha3_256</text>
</g>
<!-- prologue_common&#45;&gt;Hash::sha3_256 -->
<g id="edge7" class="edge">
<title>prologue_common&#45;&gt;Hash::sha3_256</title>
<path fill="none" stroke="black" d="M662.15,-440.87C760.57,-440.97 923.54,-437.53 979,-415 992.11,-409.68 1004.33,-400.01 1013.99,-390.74"/>
<polygon fill="black" stroke="black" points="1016.62,-393.05 1021.16,-383.48 1011.64,-388.14 1016.62,-393.05"/>
</g>
<!-- ChainId::get -->
<g id="node9" class="node">
<title>ChainId::get</title>
<ellipse fill="none" stroke="black" cx="584" cy="-283" rx="27" ry="18"/>
<text text-anchor="middle" x="584" y="-279.3" font-family="Times,serif" font-size="14.00">get</text>
</g>
<!-- prologue_common&#45;&gt;ChainId::get -->
<g id="edge8" class="edge">
<title>prologue_common&#45;&gt;ChainId::get</title>
<path fill="none" stroke="black" d="M584,-422.71C584,-395.77 584,-343.54 584,-311.42"/>
<polygon fill="black" stroke="black" points="587.5,-311.37 584,-301.37 580.5,-311.37 587.5,-311.37"/>
</g>
<!-- AccountFreezing::account_is_frozen -->
<g id="node10" class="node">
<title>AccountFreezing::account_is_frozen</title>
<ellipse fill="none" stroke="black" cx="1178" cy="-366" rx="75.29" ry="18"/>
<text text-anchor="middle" x="1178" y="-362.3" font-family="Times,serif" font-size="14.00">account_is_frozen</text>
</g>
<!-- prologue_common&#45;&gt;AccountFreezing::account_is_frozen -->
<g id="edge9" class="edge">
<title>prologue_common&#45;&gt;AccountFreezing::account_is_frozen</title>
<path fill="none" stroke="black" d="M662.25,-440.44C783.97,-440.39 1012.79,-437.21 1091,-415 1110.56,-409.45 1130.55,-398.83 1146.43,-388.99"/>
<polygon fill="black" stroke="black" points="1148.73,-391.67 1155.27,-383.33 1144.96,-385.78 1148.73,-391.67"/>
</g>
<!-- balance -->
<g id="node11" class="node">
<title>balance</title>
<ellipse fill="none" stroke="black" cx="463" cy="-366" rx="37.89" ry="18"/>
<text text-anchor="middle" x="463" y="-362.3" font-family="Times,serif" font-size="14.00">balance</text>
</g>
<!-- prologue_common&#45;&gt;balance -->
<g id="edge10" class="edge">
<title>prologue_common&#45;&gt;balance</title>
<path fill="none" stroke="black" d="M538.27,-426.35C530.25,-423.15 522.18,-419.37 515,-415 503.96,-408.28 493.21,-398.98 484.38,-390.36"/>
<polygon fill="black" stroke="black" points="486.67,-387.69 477.16,-383.03 481.69,-392.61 486.67,-387.69"/>
</g>
<!-- exists_at -->
<g id="node12" class="node">
<title>exists_at</title>
<ellipse fill="none" stroke="black" cx="1313" cy="-366" rx="41.69" ry="18"/>
<text text-anchor="middle" x="1313" y="-362.3" font-family="Times,serif" font-size="14.00">exists_at</text>
</g>
<!-- prologue_common&#45;&gt;exists_at -->
<g id="edge11" class="edge">
<title>prologue_common&#45;&gt;exists_at</title>
<path fill="none" stroke="black" d="M662.22,-440.33C829.47,-440.58 1211.04,-438.52 1265,-415 1276.7,-409.9 1287.09,-400.53 1295.18,-391.41"/>
<polygon fill="black" stroke="black" points="1297.99,-393.51 1301.68,-383.57 1292.6,-389.04 1297.99,-393.51"/>
</g>
<!-- Signer::borrow_address -->
<g id="node13" class="node">
<title>Signer::borrow_address</title>
<ellipse fill="none" stroke="black" cx="198" cy="-283" rx="66.89" ry="18"/>
<text text-anchor="middle" x="198" y="-279.3" font-family="Times,serif" font-size="14.00">borrow_address</text>
</g>
<!-- Signer::address_of&#45;&gt;Signer::borrow_address -->
<g id="edge12" class="edge">
<title>Signer::address_of&#45;&gt;Signer::borrow_address</title>
<path fill="none" stroke="black" d="M205.09,-347.82C203.91,-337.19 202.37,-323.31 201.02,-311.2"/>
<polygon fill="black" stroke="black" points="204.49,-310.71 199.91,-301.15 197.53,-311.48 204.49,-310.71"/>
</g>
<!-- Errors::make -->
<g id="node14" class="node">
<title>Errors::make</title>
<ellipse fill="none" stroke="black" cx="312" cy="-34" rx="30.59" ry="18"/>
<text text-anchor="middle" x="312" y="-30.3" font-family="Times,serif" font-size="14.00">make</text>
</g>
<!-- Errors::invalid_argument&#45;&gt;Errors::make -->
<g id="edge13" class="edge">
<title>Errors::invalid_argument&#45;&gt;Errors::make</title>
<path fill="none" stroke="black" d="M128.35,-101.71C170.52,-86.39 236.8,-62.32 277.14,-47.66"/>
<polygon fill="black" stroke="black" points="278.36,-50.94 286.56,-44.24 275.97,-44.36 278.36,-50.94"/>
</g>
<!-- Errors::invalid_state&#45;&gt;Errors::make -->
<g id="edge14" class="edge">
<title>Errors::invalid_state&#45;&gt;Errors::make</title>
<path fill="none" stroke="black" d="M488.59,-102.76C478.72,-98.96 467.93,-94.81 458,-91 419.86,-76.35 376.11,-59.57 346.52,-48.23"/>
<polygon fill="black" stroke="black" points="347.65,-44.92 337.06,-44.6 345.15,-51.45 347.65,-44.92"/>
</g>
<!-- Errors::limit_exceeded&#45;&gt;Errors::make -->
<g id="edge15" class="edge">
<title>Errors::limit_exceeded&#45;&gt;Errors::make</title>
<path fill="none" stroke="black" d="M369.08,-99.22C358.51,-87.32 344.19,-71.21 332.53,-58.1"/>
<polygon fill="black" stroke="black" points="334.94,-55.54 325.68,-50.39 329.71,-60.19 334.94,-55.54"/>
</g>
<!-- DiemTimestamp::now_microseconds -->
<g id="node15" class="node">
<title>DiemTimestamp::now_microseconds</title>
<ellipse fill="none" stroke="black" cx="714" cy="-283" rx="79.09" ry="18"/>
<text text-anchor="middle" x="714" y="-279.3" font-family="Times,serif" font-size="14.00">now_microseconds</text>
</g>
<!-- DiemTimestamp::now_seconds&#45;&gt;DiemTimestamp::now_microseconds -->
<g id="edge16" class="edge">
<title>DiemTimestamp::now_seconds&#45;&gt;DiemTimestamp::now_microseconds</title>
<path fill="none" stroke="black" d="M705.33,-347.82C706.78,-337.19 708.66,-323.31 710.31,-311.2"/>
<polygon fill="black" stroke="black" points="713.79,-311.53 711.67,-301.15 706.86,-310.59 713.79,-311.53"/>
</g>
<!-- CoreAddresses::TREASURY_COMPLIANCE_ADDRESS -->
<g id="node16" class="node">
<title>CoreAddresses::TREASURY_COMPLIANCE_ADDRESS</title>
<ellipse fill="none" stroke="black" cx="998" cy="-34" rx="163.27" ry="18"/>
<text text-anchor="middle" x="998" y="-30.3" font-family="Times,serif" font-size="14.00">TREASURY_COMPLIANCE_ADDRESS</text>
</g>
<!-- TransactionFee::is_coin_initialized&#45;&gt;CoreAddresses::TREASURY_COMPLIANCE_ADDRESS -->
<g id="edge17" class="edge">
<title>TransactionFee::is_coin_initialized&#45;&gt;CoreAddresses::TREASURY_COMPLIANCE_ADDRESS</title>
<path fill="none" stroke="black" d="M897.55,-347.72C914.94,-293.59 968.44,-127.03 989.43,-61.69"/>
<polygon fill="black" stroke="black" points="992.78,-62.7 992.51,-52.11 986.11,-60.56 992.78,-62.7"/>
</g>
<!-- CoreAddresses::DIEM_ROOT_ADDRESS -->
<g id="node17" class="node">
<title>CoreAddresses::DIEM_ROOT_ADDRESS</title>
<ellipse fill="none" stroke="black" cx="710" cy="-34" rx="106.68" ry="18"/>
<text text-anchor="middle" x="710" y="-30.3" font-family="Times,serif" font-size="14.00">DIEM_ROOT_ADDRESS</text>
</g>
<!-- ChainId::get&#45;&gt;CoreAddresses::DIEM_ROOT_ADDRESS -->
<g id="edge18" class="edge">
<title>ChainId::get&#45;&gt;CoreAddresses::DIEM_ROOT_ADDRESS</title>
<path fill="none" stroke="black" d="M583.25,-264.74C582.56,-229.04 585.44,-145.88 623,-91 632.91,-76.51 647.93,-64.93 662.72,-56.14"/>
<polygon fill="black" stroke="black" points="664.83,-58.97 671.85,-51.03 661.41,-52.86 664.83,-58.97"/>
</g>
<!-- DiemTimestamp::assert_operating -->
<g id="node18" class="node">
<title>DiemTimestamp::assert_operating</title>
<ellipse fill="none" stroke="black" cx="703" cy="-200" rx="68.49" ry="18"/>
<text text-anchor="middle" x="703" y="-196.3" font-family="Times,serif" font-size="14.00">assert_operating</text>
</g>
<!-- ChainId::get&#45;&gt;DiemTimestamp::assert_operating -->
<g id="edge19" class="edge">
<title>ChainId::get&#45;&gt;DiemTimestamp::assert_operating</title>
<path fill="none" stroke="black" d="M602.33,-269.52C620.64,-257.06 649.13,-237.67 671.14,-222.69"/>
<polygon fill="black" stroke="black" points="673.23,-225.5 679.52,-216.98 669.29,-219.71 673.23,-225.5"/>
</g>
<!-- Errors::not_published -->
<g id="node19" class="node">
<title>Errors::not_published</title>
<ellipse fill="none" stroke="black" cx="241" cy="-117" rx="60.39" ry="18"/>
<text text-anchor="middle" x="241" y="-113.3" font-family="Times,serif" font-size="14.00">not_published</text>
</g>
<!-- balance&#45;&gt;Errors::not_published -->
<g id="edge20" class="edge">
<title>balance&#45;&gt;Errors::not_published</title>
<path fill="none" stroke="black" d="M468.97,-348.01C481.2,-309.78 503.89,-216.93 453,-174 440.84,-163.74 325.05,-171.18 310,-166 294.19,-160.55 278.72,-150.37 266.44,-140.78"/>
<polygon fill="black" stroke="black" points="268.45,-137.9 258.49,-134.3 264.03,-143.33 268.45,-137.9"/>
</g>
<!-- balance_for -->
<g id="node20" class="node">
<title>balance_for</title>
<ellipse fill="none" stroke="black" cx="411" cy="-283" rx="51.99" ry="18"/>
<text text-anchor="middle" x="411" y="-279.3" font-family="Times,serif" font-size="14.00">balance_for</text>
</g>
<!-- balance&#45;&gt;balance_for -->
<g id="edge21" class="edge">
<title>balance&#45;&gt;balance_for</title>
<path fill="none" stroke="black" d="M452.48,-348.61C445.2,-337.27 435.37,-321.96 427.1,-309.09"/>
<polygon fill="black" stroke="black" points="430.03,-307.17 421.69,-300.65 424.14,-310.95 430.03,-307.17"/>
</g>
<!-- DiemTimestamp::now_microseconds&#45;&gt;CoreAddresses::DIEM_ROOT_ADDRESS -->
<g id="edge22" class="edge">
<title>DiemTimestamp::now_microseconds&#45;&gt;CoreAddresses::DIEM_ROOT_ADDRESS</title>
<path fill="none" stroke="black" d="M758.75,-268.09C767.19,-263.39 774.95,-257.17 780,-249 797.52,-220.64 782.19,-207.26 780,-174 777.55,-136.87 785.91,-124.15 769,-91 762.61,-78.47 752.26,-67.21 742,-58.13"/>
<polygon fill="black" stroke="black" points="744.15,-55.37 734.24,-51.63 739.65,-60.74 744.15,-55.37"/>
</g>
<!-- DiemTimestamp::now_microseconds&#45;&gt;DiemTimestamp::assert_operating -->
<g id="edge23" class="edge">
<title>DiemTimestamp::now_microseconds&#45;&gt;DiemTimestamp::assert_operating</title>
<path fill="none" stroke="black" d="M711.67,-264.82C710.22,-254.19 708.34,-240.31 706.69,-228.2"/>
<polygon fill="black" stroke="black" points="710.14,-227.59 705.33,-218.15 703.21,-228.53 710.14,-227.59"/>
</g>
<!-- DiemTimestamp::assert_operating&#45;&gt;Errors::invalid_state -->
<g id="edge24" class="edge">
<title>DiemTimestamp::assert_operating&#45;&gt;Errors::invalid_state</title>
<path fill="none" stroke="black" d="M666.98,-184.64C653.15,-179 637.27,-172.36 623,-166 602.39,-156.81 579.69,-145.97 561.13,-136.93"/>
<polygon fill="black" stroke="black" points="562.64,-133.76 552.11,-132.51 559.56,-140.05 562.64,-133.76"/>
</g>
<!-- DiemTimestamp::is_operating -->
<g id="node21" class="node">
<title>DiemTimestamp::is_operating</title>
<ellipse fill="none" stroke="black" cx="706" cy="-117" rx="53.89" ry="18"/>
<text text-anchor="middle" x="706" y="-113.3" font-family="Times,serif" font-size="14.00">is_operating</text>
</g>
<!-- DiemTimestamp::assert_operating&#45;&gt;DiemTimestamp::is_operating -->
<g id="edge25" class="edge">
<title>DiemTimestamp::assert_operating&#45;&gt;DiemTimestamp::is_operating</title>
<path fill="none" stroke="black" d="M703.64,-181.82C704.03,-171.19 704.54,-157.31 704.99,-145.2"/>
<polygon fill="black" stroke="black" points="708.49,-145.28 705.36,-135.15 701.5,-145.02 708.49,-145.28"/>
</g>
<!-- Errors::not_published&#45;&gt;Errors::make -->
<g id="edge26" class="edge">
<title>Errors::not_published&#45;&gt;Errors::make</title>
<path fill="none" stroke="black" d="M255.71,-99.22C266.14,-87.32 280.26,-71.21 291.75,-58.1"/>
<polygon fill="black" stroke="black" points="294.55,-60.22 298.51,-50.39 289.28,-55.6 294.55,-60.22"/>
</g>
<!-- Diem::value -->
<g id="node22" class="node">
<title>Diem::value</title>
<ellipse fill="none" stroke="black" cx="411" cy="-200" rx="29.8" ry="18"/>
<text text-anchor="middle" x="411" y="-196.3" font-family="Times,serif" font-size="14.00">value</text>
</g>
<!-- balance_for&#45;&gt;Diem::value -->
<g id="edge27" class="edge">
<title>balance_for&#45;&gt;Diem::value</title>
<path fill="none" stroke="black" d="M411,-264.82C411,-254.19 411,-240.31 411,-228.2"/>
<polygon fill="black" stroke="black" points="414.5,-228.15 411,-218.15 407.5,-228.15 414.5,-228.15"/>
</g>
<!-- DiemTimestamp::is_operating&#45;&gt;CoreAddresses::DIEM_ROOT_ADDRESS -->
<g id="edge28" class="edge">
<title>DiemTimestamp::is_operating&#45;&gt;CoreAddresses::DIEM_ROOT_ADDRESS</title>
<path fill="none" stroke="black" d="M706.85,-98.82C707.37,-88.19 708.06,-74.31 708.66,-62.2"/>
<polygon fill="black" stroke="black" points="712.16,-62.31 709.15,-52.15 705.16,-61.97 712.16,-62.31"/>
</g>
</g>
</svg>
