<?xml version="1.0" encoding="UTF-8" standalone="no"?>
<!DOCTYPE svg PUBLIC "-//W3C//DTD SVG 1.1//EN"
 "http://www.w3.org/Graphics/SVG/1.1/DTD/svg11.dtd">
<!-- Generated by graphviz version 2.46.1 (20210213.1702)
 -->
<!-- Title: G Pages: 1 -->
<svg width="621pt" height="207pt"
 viewBox="0.00 0.00 620.90 207.00" xmlns="http://www.w3.org/2000/svg" xmlns:xlink="http://www.w3.org/1999/xlink">
<g id="graph0" class="graph" transform="scale(1 1) rotate(0) translate(4 203)">
<title>G</title>
<polygon fill="white" stroke="transparent" points="-4,4 -4,-203 616.9,-203 616.9,4 -4,4"/>
<g id="clust1" class="cluster">
<title>cluster_Errors</title>
<polygon fill="none" stroke="black" points="8,-8 8,-155 274,-155 274,-8 8,-8"/>
<text text-anchor="middle" x="141" y="-139.8" font-family="Times,serif" font-size="14.00">Errors</text>
</g>
<g id="clust2" class="cluster">
<title>cluster_Vector</title>
<polygon fill="none" stroke="black" points="282,-8 282,-155 545,-155 545,-8 282,-8"/>
<text text-anchor="middle" x="413.5" y="-139.8" font-family="Times,serif" font-size="14.00">Vector</text>
</g>
<!-- remove_preburn_from_queue -->
<g id="node1" class="node">
<title>remove_preburn_from_queue</title>
<ellipse fill="none" stroke="black" cx="395" cy="-181" rx="116.18" ry="18"/>
<text text-anchor="middle" x="395" y="-177.3" font-family="Times,serif" font-size="14.00">remove_preburn_from_queue</text>
</g>
<!-- Errors::invalid_state -->
<g id="node2" class="node">
<title>Errors::invalid_state</title>
<ellipse fill="none" stroke="black" cx="210" cy="-106" rx="55.79" ry="18"/>
<text text-anchor="middle" x="210" y="-102.3" font-family="Times,serif" font-size="14.00">invalid_state</text>
</g>
<!-- remove_preburn_from_queue&#45;&gt;Errors::invalid_state -->
<g id="edge1" class="edge">
<title>remove_preburn_from_queue&#45;&gt;Errors::invalid_state</title>
<path fill="none" stroke="black" d="M316.21,-167.74C303.16,-164.43 289.99,-160.25 278,-155 263.3,-148.57 248.56,-138.68 236.58,-129.55"/>
<polygon fill="black" stroke="black" points="238.4,-126.53 228.38,-123.1 234.07,-132.03 238.4,-126.53"/>
</g>
<!-- Errors::not_published -->
<g id="node3" class="node">
<title>Errors::not_published</title>
<ellipse fill="none" stroke="black" cx="76" cy="-106" rx="60.39" ry="18"/>
<text text-anchor="middle" x="76" y="-102.3" font-family="Times,serif" font-size="14.00">not_published</text>
</g>
<!-- remove_preburn_from_queue&#45;&gt;Errors::not_published -->
<g id="edge2" class="edge">
<title>remove_preburn_from_queue&#45;&gt;Errors::not_published</title>
<path fill="none" stroke="black" d="M286.36,-174.53C231.26,-170.67 170.68,-164.48 145,-155 129.43,-149.25 114.07,-139.13 101.81,-129.67"/>
<polygon fill="black" stroke="black" points="103.85,-126.81 93.86,-123.28 99.46,-132.27 103.85,-126.81"/>
</g>
<!-- Vector::borrow -->
<g id="node4" class="node">
<title>Vector::borrow</title>
<ellipse fill="none" stroke="black" cx="441" cy="-106" rx="36.29" ry="18"/>
<text text-anchor="middle" x="441" y="-102.3" font-family="Times,serif" font-size="14.00">borrow</text>
</g>
<!-- remove_preburn_from_queue&#45;&gt;Vector::borrow -->
<g id="edge3" class="edge">
<title>remove_preburn_from_queue&#45;&gt;Vector::borrow</title>
<path fill="none" stroke="black" d="M405.67,-163.07C411.5,-153.82 418.83,-142.18 425.3,-131.92"/>
<polygon fill="black" stroke="black" points="428.34,-133.66 430.71,-123.34 422.41,-129.93 428.34,-133.66"/>
</g>
<!-- Vector::length -->
<g id="node5" class="node">
<title>Vector::length</title>
<ellipse fill="none" stroke="black" cx="505" cy="-34" rx="32.49" ry="18"/>
<text text-anchor="middle" x="505" y="-30.3" font-family="Times,serif" font-size="14.00">length</text>
</g>
<!-- remove_preburn_from_queue&#45;&gt;Vector::length -->
<g id="edge4" class="edge">
<title>remove_preburn_from_queue&#45;&gt;Vector::length</title>
<path fill="none" stroke="black" d="M470.7,-167.07C476.4,-163.85 481.63,-159.88 486,-155 508.5,-129.85 510.3,-89.28 508.48,-62.38"/>
<polygon fill="black" stroke="black" points="511.94,-61.76 507.57,-52.11 504.97,-62.38 511.94,-61.76"/>
</g>
<!-- Vector::remove -->
<g id="node6" class="node">
<title>Vector::remove</title>
<ellipse fill="none" stroke="black" cx="349" cy="-106" rx="37.89" ry="18"/>
<text text-anchor="middle" x="349" y="-102.3" font-family="Times,serif" font-size="14.00">remove</text>
</g>
<!-- remove_preburn_from_queue&#45;&gt;Vector::remove -->
<g id="edge5" class="edge">
<title>remove_preburn_from_queue&#45;&gt;Vector::remove</title>
<path fill="none" stroke="black" d="M384.33,-163.07C378.5,-153.82 371.17,-142.18 364.7,-131.92"/>
<polygon fill="black" stroke="black" points="367.59,-129.93 359.29,-123.34 361.66,-133.66 367.59,-129.93"/>
</g>
<!-- value -->
<g id="node7" class="node">
<title>value</title>
<ellipse fill="none" stroke="black" cx="583" cy="-106" rx="29.8" ry="18"/>
<text text-anchor="middle" x="583" y="-102.3" font-family="Times,serif" font-size="14.00">value</text>
</g>
<!-- remove_preburn_from_queue&#45;&gt;value -->
<g id="edge6" class="edge">
<title>remove_preburn_from_queue&#45;&gt;value</title>
<path fill="none" stroke="black" d="M490.21,-170.55C515.32,-166.73 538.37,-161.63 549,-155 557.65,-149.6 564.73,-141.11 570.14,-132.76"/>
<polygon fill="black" stroke="black" points="573.3,-134.3 575.36,-123.91 567.27,-130.75 573.3,-134.3"/>
</g>
<!-- Errors::make -->
<g id="node8" class="node">
<title>Errors::make</title>
<ellipse fill="none" stroke="black" cx="143" cy="-34" rx="30.59" ry="18"/>
<text text-anchor="middle" x="143" y="-30.3" font-family="Times,serif" font-size="14.00">make</text>
</g>
<!-- Errors::invalid_state&#45;&gt;Errors::make -->
<g id="edge7" class="edge">
<title>Errors::invalid_state&#45;&gt;Errors::make</title>
<path fill="none" stroke="black" d="M194.12,-88.41C185.24,-79.13 174.05,-67.44 164.4,-57.36"/>
<polygon fill="black" stroke="black" points="166.84,-54.84 157.39,-50.04 161.78,-59.68 166.84,-54.84"/>
</g>
<!-- Errors::not_published&#45;&gt;Errors::make -->
<g id="edge8" class="edge">
<title>Errors::not_published&#45;&gt;Errors::make</title>
<path fill="none" stroke="black" d="M91.88,-88.41C100.76,-79.13 111.95,-67.44 121.6,-57.36"/>
<polygon fill="black" stroke="black" points="124.22,-59.68 128.61,-50.04 119.16,-54.84 124.22,-59.68"/>
</g>
<!-- Vector::remove&#45;&gt;Vector::length -->
<g id="edge9" class="edge">
<title>Vector::remove&#45;&gt;Vector::length</title>
<path fill="none" stroke="black" d="M375.46,-93.13C401.86,-81.28 442.51,-63.04 471.23,-50.16"/>
<polygon fill="black" stroke="black" points="472.78,-53.3 480.47,-46.01 469.91,-46.91 472.78,-53.3"/>
</g>
<!-- Vector::pop_back -->
<g id="node9" class="node">
<title>Vector::pop_back</title>
<ellipse fill="none" stroke="black" cx="335" cy="-34" rx="44.69" ry="18"/>
<text text-anchor="middle" x="335" y="-30.3" font-family="Times,serif" font-size="14.00">pop_back</text>
</g>
<!-- Vector::remove&#45;&gt;Vector::pop_back -->
<g id="edge10" class="edge">
<title>Vector::remove&#45;&gt;Vector::pop_back</title>
<path fill="none" stroke="black" d="M345.61,-88.05C344.07,-80.35 342.21,-71.03 340.47,-62.36"/>
<polygon fill="black" stroke="black" points="343.85,-61.39 338.46,-52.28 336.98,-62.77 343.85,-61.39"/>
</g>
<!-- Vector::swap -->
<g id="node10" class="node">
<title>Vector::swap</title>
<ellipse fill="none" stroke="black" cx="426" cy="-34" rx="28.7" ry="18"/>
<text text-anchor="middle" x="426" y="-30.3" font-family="Times,serif" font-size="14.00">swap</text>
</g>
<!-- Vector::remove&#45;&gt;Vector::swap -->
<g id="edge11" class="edge">
<title>Vector::remove&#45;&gt;Vector::swap</title>
<path fill="none" stroke="black" d="M365.71,-89.81C376.59,-79.92 390.94,-66.87 402.91,-55.99"/>
<polygon fill="black" stroke="black" points="405.33,-58.52 410.37,-49.21 400.62,-53.34 405.33,-58.52"/>
</g>
</g>
</svg>
