<?xml version="1.0" encoding="UTF-8" standalone="no"?>
<!DOCTYPE svg PUBLIC "-//W3C//DTD SVG 1.1//EN"
 "http://www.w3.org/Graphics/SVG/1.1/DTD/svg11.dtd">
<!-- Generated by graphviz version 2.46.1 (20210213.1702)
 -->
<!-- Title: G Pages: 1 -->
<svg width="551pt" height="290pt"
 viewBox="0.00 0.00 551.00 290.00" xmlns="http://www.w3.org/2000/svg" xmlns:xlink="http://www.w3.org/1999/xlink">
<g id="graph0" class="graph" transform="scale(1 1) rotate(0) translate(4 286)">
<title>G</title>
<polygon fill="white" stroke="transparent" points="-4,4 -4,-286 547,-286 547,4 -4,4"/>
<g id="clust1" class="cluster">
<title>cluster_Errors</title>
<polygon fill="none" stroke="black" points="8,-8 8,-155 309,-155 309,-8 8,-8"/>
<text text-anchor="middle" x="158.5" y="-139.8" font-family="Times,serif" font-size="14.00">Errors</text>
</g>
<g id="clust2" class="cluster">
<title>cluster_Option</title>
<polygon fill="none" stroke="black" points="265,-163 265,-238 335,-238 335,-163 265,-163"/>
<text text-anchor="middle" x="300" y="-222.8" font-family="Times,serif" font-size="14.00">Option</text>
</g>
<g id="clust3" class="cluster">
<title>cluster_Vector</title>
<polygon fill="none" stroke="black" points="317,-8 317,-155 535,-155 535,-8 317,-8"/>
<text text-anchor="middle" x="426" y="-139.8" font-family="Times,serif" font-size="14.00">Vector</text>
</g>
<!-- restore_key_rotation_capability -->
<g id="node1" class="node">
<title>restore_key_rotation_capability</title>
<ellipse fill="none" stroke="black" cx="300" cy="-264" rx="122.38" ry="18"/>
<text text-anchor="middle" x="300" y="-260.3" font-family="Times,serif" font-size="14.00">restore_key_rotation_capability</text>
</g>
<!-- Errors::not_published -->
<g id="node2" class="node">
<title>Errors::not_published</title>
<ellipse fill="none" stroke="black" cx="76" cy="-106" rx="60.39" ry="18"/>
<text text-anchor="middle" x="76" y="-102.3" font-family="Times,serif" font-size="14.00">not_published</text>
</g>
<!-- restore_key_rotation_capability&#45;&gt;Errors::not_published -->
<g id="edge1" class="edge">
<title>restore_key_rotation_capability&#45;&gt;Errors::not_published</title>
<path fill="none" stroke="black" d="M273.46,-246.22C269.27,-243.5 265,-240.7 261,-238 205.56,-200.63 142.23,-155.17 105.9,-128.81"/>
<polygon fill="black" stroke="black" points="107.85,-125.9 97.7,-122.86 103.73,-131.57 107.85,-125.9"/>
</g>
<!-- Option::fill -->
<g id="node3" class="node">
<title>Option::fill</title>
<ellipse fill="none" stroke="black" cx="300" cy="-189" rx="27" ry="18"/>
<text text-anchor="middle" x="300" y="-185.3" font-family="Times,serif" font-size="14.00">fill</text>
</g>
<!-- restore_key_rotation_capability&#45;&gt;Option::fill -->
<g id="edge2" class="edge">
<title>restore_key_rotation_capability&#45;&gt;Option::fill</title>
<path fill="none" stroke="black" d="M300,-245.7C300,-237.25 300,-226.87 300,-217.37"/>
<polygon fill="black" stroke="black" points="303.5,-217.18 300,-207.18 296.5,-217.18 303.5,-217.18"/>
</g>
<!-- exists_at -->
<g id="node4" class="node">
<title>exists_at</title>
<ellipse fill="none" stroke="black" cx="387" cy="-189" rx="41.69" ry="18"/>
<text text-anchor="middle" x="387" y="-185.3" font-family="Times,serif" font-size="14.00">exists_at</text>
</g>
<!-- restore_key_rotation_capability&#45;&gt;exists_at -->
<g id="edge3" class="edge">
<title>restore_key_rotation_capability&#45;&gt;exists_at</title>
<path fill="none" stroke="black" d="M327.79,-246.24C331.65,-243.61 335.49,-240.82 339,-238 348.28,-230.53 357.71,-221.48 365.73,-213.26"/>
<polygon fill="black" stroke="black" points="368.28,-215.66 372.65,-206.01 363.22,-210.82 368.28,-215.66"/>
</g>
<!-- Errors::make -->
<g id="node5" class="node">
<title>Errors::make</title>
<ellipse fill="none" stroke="black" cx="152" cy="-34" rx="30.59" ry="18"/>
<text text-anchor="middle" x="152" y="-30.3" font-family="Times,serif" font-size="14.00">make</text>
</g>
<!-- Errors::not_published&#45;&gt;Errors::make -->
<g id="edge4" class="edge">
<title>Errors::not_published&#45;&gt;Errors::make</title>
<path fill="none" stroke="black" d="M93.63,-88.76C104.1,-79.12 117.51,-66.77 128.83,-56.34"/>
<polygon fill="black" stroke="black" points="131.29,-58.83 136.28,-49.48 126.55,-53.68 131.29,-58.83"/>
</g>
<!-- Errors::invalid_argument -->
<g id="node6" class="node">
<title>Errors::invalid_argument</title>
<ellipse fill="none" stroke="black" cx="228" cy="-106" rx="73.39" ry="18"/>
<text text-anchor="middle" x="228" y="-102.3" font-family="Times,serif" font-size="14.00">invalid_argument</text>
</g>
<!-- Option::fill&#45;&gt;Errors::invalid_argument -->
<g id="edge5" class="edge">
<title>Option::fill&#45;&gt;Errors::invalid_argument</title>
<path fill="none" stroke="black" d="M286.79,-173.14C276.41,-161.46 261.73,-144.94 249.63,-131.34"/>
<polygon fill="black" stroke="black" points="252.12,-128.87 242.86,-123.72 246.89,-133.52 252.12,-128.87"/>
</g>
<!-- Vector::is_empty -->
<g id="node7" class="node">
<title>Vector::is_empty</title>
<ellipse fill="none" stroke="black" cx="483" cy="-106" rx="43.59" ry="18"/>
<text text-anchor="middle" x="483" y="-102.3" font-family="Times,serif" font-size="14.00">is_empty</text>
</g>
<!-- Option::fill&#45;&gt;Vector::is_empty -->
<g id="edge6" class="edge">
<title>Option::fill&#45;&gt;Vector::is_empty</title>
<path fill="none" stroke="black" d="M315.84,-174.34C321.78,-169.96 328.84,-165.58 336,-163 375.44,-148.78 391.55,-171.73 430,-155 442.45,-149.58 453.94,-140.03 463.01,-130.87"/>
<polygon fill="black" stroke="black" points="465.76,-133.06 470.03,-123.36 460.64,-128.28 465.76,-133.06"/>
</g>
<!-- Vector::push_back -->
<g id="node8" class="node">
<title>Vector::push_back</title>
<ellipse fill="none" stroke="black" cx="373" cy="-106" rx="48.19" ry="18"/>
<text text-anchor="middle" x="373" y="-102.3" font-family="Times,serif" font-size="14.00">push_back</text>
</g>
<!-- Option::fill&#45;&gt;Vector::push_back -->
<g id="edge7" class="edge">
<title>Option::fill&#45;&gt;Vector::push_back</title>
<path fill="none" stroke="black" d="M313.39,-173.14C323.99,-161.38 339,-144.73 351.31,-131.07"/>
<polygon fill="black" stroke="black" points="354.09,-133.21 358.19,-123.43 348.89,-128.52 354.09,-133.21"/>
</g>
<!-- Errors::invalid_argument&#45;&gt;Errors::make -->
<g id="edge8" class="edge">
<title>Errors::invalid_argument&#45;&gt;Errors::make</title>
<path fill="none" stroke="black" d="M209.99,-88.41C199.57,-78.82 186.36,-66.65 175.18,-56.35"/>
<polygon fill="black" stroke="black" points="177.55,-53.77 167.82,-49.57 172.8,-58.92 177.55,-53.77"/>
</g>
<!-- Vector::length -->
<g id="node9" class="node">
<title>Vector::length</title>
<ellipse fill="none" stroke="black" cx="483" cy="-34" rx="32.49" ry="18"/>
<text text-anchor="middle" x="483" y="-30.3" font-family="Times,serif" font-size="14.00">length</text>
</g>
<!-- Vector::is_empty&#45;&gt;Vector::length -->
<g id="edge9" class="edge">
<title>Vector::is_empty&#45;&gt;Vector::length</title>
<path fill="none" stroke="black" d="M483,-87.7C483,-79.98 483,-70.71 483,-62.11"/>
<polygon fill="black" stroke="black" points="486.5,-62.1 483,-52.1 479.5,-62.1 486.5,-62.1"/>
</g>
</g>
</svg>
