<?xml version="1.0" encoding="UTF-8" standalone="no"?>
<!DOCTYPE svg PUBLIC "-//W3C//DTD SVG 1.1//EN"
 "http://www.w3.org/Graphics/SVG/1.1/DTD/svg11.dtd">
<!-- Generated by graphviz version 2.46.1 (20210213.1702)
 -->
<!-- Title: G Pages: 1 -->
<svg width="1125pt" height="448pt"
 viewBox="0.00 0.00 1125.00 448.00" xmlns="http://www.w3.org/2000/svg" xmlns:xlink="http://www.w3.org/1999/xlink">
<g id="graph0" class="graph" transform="scale(1 1) rotate(0) translate(4 444)">
<title>G</title>
<polygon fill="white" stroke="transparent" points="-4,4 -4,-444 1121,-444 1121,4 -4,4"/>
<g id="clust1" class="cluster">
<title>cluster_CoreAddresses</title>
<polygon fill="none" stroke="black" points="8,-80 8,-230 516,-230 516,-80 8,-80"/>
<text text-anchor="middle" x="262" y="-214.8" font-family="Times,serif" font-size="14.00">CoreAddresses</text>
</g>
<g id="clust2" class="cluster">
<title>cluster_Roles</title>
<polygon fill="none" stroke="black" points="473,-238 473,-313 707,-313 707,-238 473,-238"/>
<text text-anchor="middle" x="590" y="-297.8" font-family="Times,serif" font-size="14.00">Roles</text>
</g>
<g id="clust3" class="cluster">
<title>cluster_FixedPoint32</title>
<polygon fill="none" stroke="black" points="731,-321 731,-396 871,-396 871,-321 731,-321"/>
<text text-anchor="middle" x="801" y="-380.8" font-family="Times,serif" font-size="14.00">FixedPoint32</text>
</g>
<g id="clust4" class="cluster">
<title>cluster_Event</title>
<polygon fill="none" stroke="black" points="879,-238 879,-396 1065,-396 1065,-238 879,-238"/>
<text text-anchor="middle" x="972" y="-380.8" font-family="Times,serif" font-size="14.00">Event</text>
</g>
<g id="clust5" class="cluster">
<title>cluster_Signer</title>
<polygon fill="none" stroke="black" points="524,-8 524,-155 674,-155 674,-8 524,-8"/>
<text text-anchor="middle" x="599" y="-139.8" font-family="Times,serif" font-size="14.00">Signer</text>
</g>
<g id="clust6" class="cluster">
<title>cluster_Errors</title>
<polygon fill="none" stroke="black" points="682,-8 682,-155 1109,-155 1109,-8 682,-8"/>
<text text-anchor="middle" x="895.5" y="-139.8" font-family="Times,serif" font-size="14.00">Errors</text>
</g>
<!-- update_xdx_exchange_rate -->
<g id="node1" class="node">
<title>update_xdx_exchange_rate</title>
<ellipse fill="none" stroke="black" cx="645" cy="-422" rx="106.68" ry="18"/>
<text text-anchor="middle" x="645" y="-418.3" font-family="Times,serif" font-size="14.00">update_xdx_exchange_rate</text>
</g>
<!-- CoreAddresses::CURRENCY_INFO_ADDRESS -->
<g id="node2" class="node">
<title>CoreAddresses::CURRENCY_INFO_ADDRESS</title>
<ellipse fill="none" stroke="black" cx="144" cy="-181" rx="128.08" ry="18"/>
<text text-anchor="middle" x="144" y="-177.3" font-family="Times,serif" font-size="14.00">CURRENCY_INFO_ADDRESS</text>
</g>
<!-- update_xdx_exchange_rate&#45;&gt;CoreAddresses::CURRENCY_INFO_ADDRESS -->
<g id="edge1" class="edge">
<title>update_xdx_exchange_rate&#45;&gt;CoreAddresses::CURRENCY_INFO_ADDRESS</title>
<path fill="none" stroke="black" d="M557.67,-411.67C474.82,-399.51 349.58,-372.32 257,-313 214.37,-285.69 178.89,-237.55 159.62,-207.85"/>
<polygon fill="black" stroke="black" points="162.49,-205.83 154.17,-199.27 156.58,-209.59 162.49,-205.83"/>
</g>
<!-- Roles::assert_treasury_compliance -->
<g id="node3" class="node">
<title>Roles::assert_treasury_compliance</title>
<ellipse fill="none" stroke="black" cx="590" cy="-264" rx="108.58" ry="18"/>
<text text-anchor="middle" x="590" y="-260.3" font-family="Times,serif" font-size="14.00">assert_treasury_compliance</text>
</g>
<!-- update_xdx_exchange_rate&#45;&gt;Roles::assert_treasury_compliance -->
<g id="edge2" class="edge">
<title>update_xdx_exchange_rate&#45;&gt;Roles::assert_treasury_compliance</title>
<path fill="none" stroke="black" d="M573.84,-408.4C568.53,-405.12 563.78,-401.05 560,-396 536.79,-364.98 556.31,-319.1 572.89,-290.67"/>
<polygon fill="black" stroke="black" points="575.9,-292.46 578.11,-282.1 569.92,-288.82 575.9,-292.46"/>
</g>
<!-- FixedPoint32::get_raw_value -->
<g id="node4" class="node">
<title>FixedPoint32::get_raw_value</title>
<ellipse fill="none" stroke="black" cx="801" cy="-347" rx="62.29" ry="18"/>
<text text-anchor="middle" x="801" y="-343.3" font-family="Times,serif" font-size="14.00">get_raw_value</text>
</g>
<!-- update_xdx_exchange_rate&#45;&gt;FixedPoint32::get_raw_value -->
<g id="edge3" class="edge">
<title>update_xdx_exchange_rate&#45;&gt;FixedPoint32::get_raw_value</title>
<path fill="none" stroke="black" d="M702.59,-406.69C711.94,-403.63 721.37,-400.06 730,-396 744.87,-388.99 760.14,-379.09 772.68,-370.1"/>
<polygon fill="black" stroke="black" points="774.9,-372.81 780.89,-364.07 770.76,-367.17 774.9,-372.81"/>
</g>
<!-- Event::emit_event -->
<g id="node5" class="node">
<title>Event::emit_event</title>
<ellipse fill="none" stroke="black" cx="954" cy="-347" rx="50.09" ry="18"/>
<text text-anchor="middle" x="954" y="-343.3" font-family="Times,serif" font-size="14.00">emit_event</text>
</g>
<!-- update_xdx_exchange_rate&#45;&gt;Event::emit_event -->
<g id="edge4" class="edge">
<title>update_xdx_exchange_rate&#45;&gt;Event::emit_event</title>
<path fill="none" stroke="black" d="M750.42,-419.2C790.29,-416.03 835.54,-409.39 875,-396 892.87,-389.94 910.99,-379.31 925.37,-369.6"/>
<polygon fill="black" stroke="black" points="927.59,-372.31 933.79,-363.72 923.59,-366.57 927.59,-372.31"/>
</g>
<!-- assert_is_currency -->
<g id="node6" class="node">
<title>assert_is_currency</title>
<ellipse fill="none" stroke="black" cx="645" cy="-347" rx="76.09" ry="18"/>
<text text-anchor="middle" x="645" y="-343.3" font-family="Times,serif" font-size="14.00">assert_is_currency</text>
</g>
<!-- update_xdx_exchange_rate&#45;&gt;assert_is_currency -->
<g id="edge5" class="edge">
<title>update_xdx_exchange_rate&#45;&gt;assert_is_currency</title>
<path fill="none" stroke="black" d="M645,-403.7C645,-395.25 645,-384.87 645,-375.37"/>
<polygon fill="black" stroke="black" points="648.5,-375.18 645,-365.18 641.5,-375.18 648.5,-375.18"/>
</g>
<!-- Signer::address_of -->
<g id="node7" class="node">
<title>Signer::address_of</title>
<ellipse fill="none" stroke="black" cx="590" cy="-106" rx="48.99" ry="18"/>
<text text-anchor="middle" x="590" y="-102.3" font-family="Times,serif" font-size="14.00">address_of</text>
</g>
<!-- Roles::assert_treasury_compliance&#45;&gt;Signer::address_of -->
<g id="edge6" class="edge">
<title>Roles::assert_treasury_compliance&#45;&gt;Signer::address_of</title>
<path fill="none" stroke="black" d="M590,-245.71C590,-218.77 590,-166.54 590,-134.42"/>
<polygon fill="black" stroke="black" points="593.5,-134.37 590,-124.37 586.5,-134.37 593.5,-134.37"/>
</g>
<!-- Errors::not_published -->
<g id="node8" class="node">
<title>Errors::not_published</title>
<ellipse fill="none" stroke="black" cx="1041" cy="-106" rx="60.39" ry="18"/>
<text text-anchor="middle" x="1041" y="-102.3" font-family="Times,serif" font-size="14.00">not_published</text>
</g>
<!-- Roles::assert_treasury_compliance&#45;&gt;Errors::not_published -->
<g id="edge7" class="edge">
<title>Roles::assert_treasury_compliance&#45;&gt;Errors::not_published</title>
<path fill="none" stroke="black" d="M641.59,-248.08C654.89,-243.23 668.86,-237.2 681,-230 719.73,-207.03 715.18,-179.7 757,-163 801.19,-145.35 925.82,-169.93 971,-155 987.03,-149.7 1002.73,-139.53 1015.19,-129.91"/>
<polygon fill="black" stroke="black" points="1017.67,-132.41 1023.26,-123.41 1013.27,-126.96 1017.67,-132.41"/>
</g>
<!-- Errors::requires_role -->
<g id="node9" class="node">
<title>Errors::requires_role</title>
<ellipse fill="none" stroke="black" cx="905" cy="-106" rx="57.39" ry="18"/>
<text text-anchor="middle" x="905" y="-102.3" font-family="Times,serif" font-size="14.00">requires_role</text>
</g>
<!-- Roles::assert_treasury_compliance&#45;&gt;Errors::requires_role -->
<g id="edge8" class="edge">
<title>Roles::assert_treasury_compliance&#45;&gt;Errors::requires_role</title>
<path fill="none" stroke="black" d="M604.59,-245.78C625.74,-222.22 667.38,-180.85 713,-163 765.25,-142.55 786.21,-174.04 839,-155 854.12,-149.55 868.8,-139.5 880.47,-130"/>
<polygon fill="black" stroke="black" points="883.04,-132.4 888.39,-123.25 878.5,-127.07 883.04,-132.4"/>
</g>
<!-- CoreAddresses::assert_treasury_compliance -->
<g id="node10" class="node">
<title>CoreAddresses::assert_treasury_compliance</title>
<ellipse fill="none" stroke="black" cx="399" cy="-181" rx="108.58" ry="18"/>
<text text-anchor="middle" x="399" y="-177.3" font-family="Times,serif" font-size="14.00">assert_treasury_compliance</text>
</g>
<!-- Roles::assert_treasury_compliance&#45;&gt;CoreAddresses::assert_treasury_compliance -->
<g id="edge9" class="edge">
<title>Roles::assert_treasury_compliance&#45;&gt;CoreAddresses::assert_treasury_compliance</title>
<path fill="none" stroke="black" d="M552.26,-247C521.79,-234.07 478.74,-215.82 446.02,-201.94"/>
<polygon fill="black" stroke="black" points="447.23,-198.65 436.66,-197.97 444.5,-205.1 447.23,-198.65"/>
</g>
<!-- Event::write_to_event_store -->
<g id="node11" class="node">
<title>Event::write_to_event_store</title>
<ellipse fill="none" stroke="black" cx="972" cy="-264" rx="85.29" ry="18"/>
<text text-anchor="middle" x="972" y="-260.3" font-family="Times,serif" font-size="14.00">write_to_event_store</text>
</g>
<!-- Event::emit_event&#45;&gt;Event::write_to_event_store -->
<g id="edge10" class="edge">
<title>Event::emit_event&#45;&gt;Event::write_to_event_store</title>
<path fill="none" stroke="black" d="M957.82,-328.82C960.18,-318.19 963.27,-304.31 965.95,-292.2"/>
<polygon fill="black" stroke="black" points="969.44,-292.67 968.19,-282.15 962.6,-291.16 969.44,-292.67"/>
</g>
<!-- assert_is_currency&#45;&gt;Errors::not_published -->
<g id="edge11" class="edge">
<title>assert_is_currency&#45;&gt;Errors::not_published</title>
<path fill="none" stroke="black" d="M677.17,-330.58C688.01,-325.2 700.12,-319.01 711,-313 829.35,-247.6 857.42,-228.37 971,-155 983.95,-146.64 998,-137.09 1010.1,-128.73"/>
<polygon fill="black" stroke="black" points="1012.3,-131.46 1018.51,-122.88 1008.3,-125.71 1012.3,-131.46"/>
</g>
<!-- is_currency -->
<g id="node12" class="node">
<title>is_currency</title>
<ellipse fill="none" stroke="black" cx="318" cy="-264" rx="51.99" ry="18"/>
<text text-anchor="middle" x="318" y="-260.3" font-family="Times,serif" font-size="14.00">is_currency</text>
</g>
<!-- assert_is_currency&#45;&gt;is_currency -->
<g id="edge12" class="edge">
<title>assert_is_currency&#45;&gt;is_currency</title>
<path fill="none" stroke="black" d="M583.51,-336.37C549.53,-330.57 506.68,-322.48 469,-313 432.81,-303.89 392.57,-290.96 362.74,-280.81"/>
<polygon fill="black" stroke="black" points="363.63,-277.42 353.04,-277.48 361.36,-284.04 363.63,-277.42"/>
</g>
<!-- Signer::borrow_address -->
<g id="node13" class="node">
<title>Signer::borrow_address</title>
<ellipse fill="none" stroke="black" cx="599" cy="-34" rx="66.89" ry="18"/>
<text text-anchor="middle" x="599" y="-30.3" font-family="Times,serif" font-size="14.00">borrow_address</text>
</g>
<!-- Signer::address_of&#45;&gt;Signer::borrow_address -->
<g id="edge13" class="edge">
<title>Signer::address_of&#45;&gt;Signer::borrow_address</title>
<path fill="none" stroke="black" d="M592.22,-87.7C593.22,-79.98 594.41,-70.71 595.51,-62.11"/>
<polygon fill="black" stroke="black" points="599,-62.47 596.8,-52.1 592.05,-61.58 599,-62.47"/>
</g>
<!-- Errors::make -->
<g id="node14" class="node">
<title>Errors::make</title>
<ellipse fill="none" stroke="black" cx="905" cy="-34" rx="30.59" ry="18"/>
<text text-anchor="middle" x="905" y="-30.3" font-family="Times,serif" font-size="14.00">make</text>
</g>
<!-- Errors::not_published&#45;&gt;Errors::make -->
<g id="edge14" class="edge">
<title>Errors::not_published&#45;&gt;Errors::make</title>
<path fill="none" stroke="black" d="M1012.16,-90.15C989.95,-78.73 959.3,-62.95 936.47,-51.2"/>
<polygon fill="black" stroke="black" points="938.01,-48.05 927.51,-46.59 934.8,-54.28 938.01,-48.05"/>
</g>
<!-- Errors::requires_role&#45;&gt;Errors::make -->
<g id="edge15" class="edge">
<title>Errors::requires_role&#45;&gt;Errors::make</title>
<path fill="none" stroke="black" d="M905,-87.7C905,-79.98 905,-70.71 905,-62.11"/>
<polygon fill="black" stroke="black" points="908.5,-62.1 905,-52.1 901.5,-62.1 908.5,-62.1"/>
</g>
<!-- CoreAddresses::assert_treasury_compliance&#45;&gt;Signer::address_of -->
<g id="edge16" class="edge">
<title>CoreAddresses::assert_treasury_compliance&#45;&gt;Signer::address_of</title>
<path fill="none" stroke="black" d="M477.53,-168.52C491.97,-165.09 506.68,-160.67 520,-155 535.31,-148.48 550.74,-138.37 563.2,-129.11"/>
<polygon fill="black" stroke="black" points="565.51,-131.75 571.31,-122.89 561.25,-126.2 565.51,-131.75"/>
</g>
<!-- Errors::requires_address -->
<g id="node15" class="node">
<title>Errors::requires_address</title>
<ellipse fill="none" stroke="black" cx="760" cy="-106" rx="69.59" ry="18"/>
<text text-anchor="middle" x="760" y="-102.3" font-family="Times,serif" font-size="14.00">requires_address</text>
</g>
<!-- CoreAddresses::assert_treasury_compliance&#45;&gt;Errors::requires_address -->
<g id="edge17" class="edge">
<title>CoreAddresses::assert_treasury_compliance&#45;&gt;Errors::requires_address</title>
<path fill="none" stroke="black" d="M502.53,-175.43C568.03,-171.64 646.15,-165.18 678,-155 696.22,-149.18 714.75,-138.78 729.58,-129.15"/>
<polygon fill="black" stroke="black" points="731.94,-131.78 738.3,-123.3 728.04,-125.97 731.94,-131.78"/>
</g>
<!-- CoreAddresses::TREASURY_COMPLIANCE_ADDRESS -->
<g id="node16" class="node">
<title>CoreAddresses::TREASURY_COMPLIANCE_ADDRESS</title>
<ellipse fill="none" stroke="black" cx="345" cy="-106" rx="163.27" ry="18"/>
<text text-anchor="middle" x="345" y="-102.3" font-family="Times,serif" font-size="14.00">TREASURY_COMPLIANCE_ADDRESS</text>
</g>
<!-- CoreAddresses::assert_treasury_compliance&#45;&gt;CoreAddresses::TREASURY_COMPLIANCE_ADDRESS -->
<g id="edge18" class="edge">
<title>CoreAddresses::assert_treasury_compliance&#45;&gt;CoreAddresses::TREASURY_COMPLIANCE_ADDRESS</title>
<path fill="none" stroke="black" d="M386.48,-163.07C379.71,-153.92 371.22,-142.45 363.69,-132.26"/>
<polygon fill="black" stroke="black" points="366.4,-130.05 357.64,-124.09 360.78,-134.21 366.4,-130.05"/>
</g>
<!-- is_currency&#45;&gt;CoreAddresses::CURRENCY_INFO_ADDRESS -->
<g id="edge19" class="edge">
<title>is_currency&#45;&gt;CoreAddresses::CURRENCY_INFO_ADDRESS</title>
<path fill="none" stroke="black" d="M288.09,-249.08C260.7,-236.33 219.81,-217.29 188.57,-202.75"/>
<polygon fill="black" stroke="black" points="189.76,-199.44 179.21,-198.39 186.8,-205.79 189.76,-199.44"/>
</g>
<!-- Errors::requires_address&#45;&gt;Errors::make -->
<g id="edge20" class="edge">
<title>Errors::requires_address&#45;&gt;Errors::make</title>
<path fill="none" stroke="black" d="M791.46,-89.81C815.58,-78.17 848.73,-62.16 872.99,-50.45"/>
<polygon fill="black" stroke="black" points="874.65,-53.54 882.13,-46.04 871.61,-47.23 874.65,-53.54"/>
</g>
</g>
</svg>
