<?xml version="1.0" encoding="UTF-8" standalone="no"?>
<!DOCTYPE svg PUBLIC "-//W3C//DTD SVG 1.1//EN"
 "http://www.w3.org/Graphics/SVG/1.1/DTD/svg11.dtd">
<!-- Generated by graphviz version 2.46.1 (20210213.1702)
 -->
<!-- Title: G Pages: 1 -->
<svg width="1059pt" height="548pt"
 viewBox="0.00 0.00 1058.62 548.00" xmlns="http://www.w3.org/2000/svg" xmlns:xlink="http://www.w3.org/1999/xlink">
<g id="graph0" class="graph" transform="scale(1 1) rotate(0) translate(4 544)">
<title>G</title>
<polygon fill="white" stroke="transparent" points="-4,4 -4,-544 1054.62,-544 1054.62,4 -4,4"/>
<!-- DiemBlock -->
<g id="node1" class="node">
<title>DiemBlock</title>
<ellipse fill="none" stroke="black" cx="669" cy="-522" rx="51.99" ry="18"/>
<text text-anchor="middle" x="669" y="-518.3" font-family="Times,serif" font-size="14.00">DiemBlock</text>
</g>
<!-- Errors -->
<g id="node2" class="node">
<title>Errors</title>
<ellipse fill="none" stroke="black" cx="386" cy="-18" rx="32.49" ry="18"/>
<text text-anchor="middle" x="386" y="-14.3" font-family="Times,serif" font-size="14.00">Errors</text>
</g>
<!-- DiemBlock&#45;&gt;Errors -->
<g id="edge1" class="edge">
<title>DiemBlock&#45;&gt;Errors</title>
<path fill="none" stroke="black" d="M617.06,-521.02C459.88,-519.68 0,-505.01 0,-379 0,-379 0,-379 0,-161 0,-88.07 245.77,-41.12 345.09,-25.12"/>
<polygon fill="black" stroke="black" points="345.74,-28.56 355.06,-23.54 344.64,-21.64 345.74,-28.56"/>
</g>
<!-- CoreAddresses -->
<g id="node3" class="node">
<title>CoreAddresses</title>
<ellipse fill="none" stroke="black" cx="611" cy="-90" rx="63.89" ry="18"/>
<text text-anchor="middle" x="611" y="-86.3" font-family="Times,serif" font-size="14.00">CoreAddresses</text>
</g>
<!-- DiemBlock&#45;&gt;CoreAddresses -->
<g id="edge2" class="edge">
<title>DiemBlock&#45;&gt;CoreAddresses</title>
<path fill="none" stroke="black" d="M705.96,-509.09C754.68,-491.63 840.14,-454.64 891,-396 923.49,-358.54 923.75,-337.36 919,-288 912.69,-222.44 932.67,-188.38 884,-144 868.79,-130.13 752.62,-111.21 676.81,-100.13"/>
<polygon fill="black" stroke="black" points="677.25,-96.66 666.85,-98.68 676.24,-103.58 677.25,-96.66"/>
</g>
<!-- DiemTimestamp -->
<g id="node4" class="node">
<title>DiemTimestamp</title>
<ellipse fill="none" stroke="black" cx="306" cy="-162" rx="71.49" ry="18"/>
<text text-anchor="middle" x="306" y="-158.3" font-family="Times,serif" font-size="14.00">DiemTimestamp</text>
</g>
<!-- DiemBlock&#45;&gt;DiemTimestamp -->
<g id="edge3" class="edge">
<title>DiemBlock&#45;&gt;DiemTimestamp</title>
<path fill="none" stroke="black" d="M619.37,-516.44C535.15,-506.64 361.76,-477.45 242,-396 173.44,-349.37 145.19,-283.74 193,-216 205.51,-198.28 225.52,-186.31 245.24,-178.31"/>
<polygon fill="black" stroke="black" points="246.74,-181.48 254.87,-174.69 244.28,-174.93 246.74,-181.48"/>
</g>
<!-- Event -->
<g id="node5" class="node">
<title>Event</title>
<ellipse fill="none" stroke="black" cx="1001" cy="-234" rx="31.4" ry="18"/>
<text text-anchor="middle" x="1001" y="-230.3" font-family="Times,serif" font-size="14.00">Event</text>
</g>
<!-- DiemBlock&#45;&gt;Event -->
<g id="edge4" class="edge">
<title>DiemBlock&#45;&gt;Event</title>
<path fill="none" stroke="black" d="M720.75,-520.25C803.27,-517.85 958.96,-507.99 994,-468 1044.82,-410.01 1023.87,-309.29 1009.83,-261.55"/>
<polygon fill="black" stroke="black" points="1013.16,-260.47 1006.89,-251.94 1006.47,-262.52 1013.16,-260.47"/>
</g>
<!-- DiemSystem -->
<g id="node6" class="node">
<title>DiemSystem</title>
<ellipse fill="none" stroke="black" cx="669" cy="-450" rx="57.39" ry="18"/>
<text text-anchor="middle" x="669" y="-446.3" font-family="Times,serif" font-size="14.00">DiemSystem</text>
</g>
<!-- DiemBlock&#45;&gt;DiemSystem -->
<g id="edge5" class="edge">
<title>DiemBlock&#45;&gt;DiemSystem</title>
<path fill="none" stroke="black" d="M669,-503.7C669,-495.98 669,-486.71 669,-478.11"/>
<polygon fill="black" stroke="black" points="672.5,-478.1 669,-468.1 665.5,-478.1 672.5,-478.1"/>
</g>
<!-- CoreAddresses&#45;&gt;Errors -->
<g id="edge7" class="edge">
<title>CoreAddresses&#45;&gt;Errors</title>
<path fill="none" stroke="black" d="M569.73,-76.16C527.86,-63.13 463.63,-43.15 423.26,-30.59"/>
<polygon fill="black" stroke="black" points="424.13,-27.2 413.54,-27.57 422.05,-33.88 424.13,-27.2"/>
</g>
<!-- Signer -->
<g id="node7" class="node">
<title>Signer</title>
<ellipse fill="none" stroke="black" cx="703" cy="-18" rx="33.6" ry="18"/>
<text text-anchor="middle" x="703" y="-14.3" font-family="Times,serif" font-size="14.00">Signer</text>
</g>
<!-- CoreAddresses&#45;&gt;Signer -->
<g id="edge6" class="edge">
<title>CoreAddresses&#45;&gt;Signer</title>
<path fill="none" stroke="black" d="M632.34,-72.76C645.35,-62.86 662.1,-50.12 676.02,-39.52"/>
<polygon fill="black" stroke="black" points="678.43,-42.09 684.27,-33.25 674.19,-36.52 678.43,-42.09"/>
</g>
<!-- DiemTimestamp&#45;&gt;Errors -->
<g id="edge8" class="edge">
<title>DiemTimestamp&#45;&gt;Errors</title>
<path fill="none" stroke="black" d="M315.49,-144.15C329.4,-119.47 355.42,-73.28 371.67,-44.44"/>
<polygon fill="black" stroke="black" points="374.91,-45.82 376.77,-35.39 368.81,-42.38 374.91,-45.82"/>
</g>
<!-- DiemTimestamp&#45;&gt;CoreAddresses -->
<g id="edge9" class="edge">
<title>DiemTimestamp&#45;&gt;CoreAddresses</title>
<path fill="none" stroke="black" d="M357.05,-149.28C411.28,-136.84 496.84,-117.2 553.44,-104.21"/>
<polygon fill="black" stroke="black" points="554.34,-107.6 563.3,-101.95 552.77,-100.77 554.34,-107.6"/>
</g>
<!-- Event&#45;&gt;Errors -->
<g id="edge11" class="edge">
<title>Event&#45;&gt;Errors</title>
<path fill="none" stroke="black" d="M989.67,-217.03C974.96,-197.35 947.54,-164.07 917,-144 758.91,-40.08 524.22,-22.23 428.73,-19.4"/>
<polygon fill="black" stroke="black" points="428.68,-15.9 418.59,-19.14 428.5,-22.9 428.68,-15.9"/>
</g>
<!-- Event&#45;&gt;Signer -->
<g id="edge10" class="edge">
<title>Event&#45;&gt;Signer</title>
<path fill="none" stroke="black" d="M1013.58,-217.3C1026.37,-199.3 1042.88,-169.07 1032,-144 1013.35,-101.02 996.57,-93.62 955,-72 887.84,-37.07 799.27,-25.16 747,-21.1"/>
<polygon fill="black" stroke="black" points="746.95,-17.59 736.73,-20.37 746.45,-24.57 746.95,-17.59"/>
</g>
<!-- Vector -->
<g id="node8" class="node">
<title>Vector</title>
<ellipse fill="none" stroke="black" cx="841" cy="-162" rx="33.6" ry="18"/>
<text text-anchor="middle" x="841" y="-158.3" font-family="Times,serif" font-size="14.00">Vector</text>
</g>
<!-- Event&#45;&gt;Vector -->
<g id="edge12" class="edge">
<title>Event&#45;&gt;Vector</title>
<path fill="none" stroke="black" d="M976.7,-222.37C949.8,-210.6 906.22,-191.53 875.73,-178.19"/>
<polygon fill="black" stroke="black" points="876.89,-174.88 866.32,-174.08 874.08,-181.29 876.89,-174.88"/>
</g>
<!-- BCS -->
<g id="node9" class="node">
<title>BCS</title>
<ellipse fill="none" stroke="black" cx="996" cy="-162" rx="27.1" ry="18"/>
<text text-anchor="middle" x="996" y="-158.3" font-family="Times,serif" font-size="14.00">BCS</text>
</g>
<!-- Event&#45;&gt;BCS -->
<g id="edge13" class="edge">
<title>Event&#45;&gt;BCS</title>
<path fill="none" stroke="black" d="M999.76,-215.7C999.21,-207.98 998.55,-198.71 997.94,-190.11"/>
<polygon fill="black" stroke="black" points="1001.43,-189.83 997.22,-180.1 994.44,-190.33 1001.43,-189.83"/>
</g>
<!-- DiemSystem&#45;&gt;Errors -->
<g id="edge15" class="edge">
<title>DiemSystem&#45;&gt;Errors</title>
<path fill="none" stroke="black" d="M612.39,-447.3C511.19,-443.4 304.03,-431.24 242,-396 206.75,-375.98 207.23,-358.54 186,-324 127.25,-228.41 113.15,-141.79 201,-72 242.39,-39.12 303.29,-26.63 343.77,-21.9"/>
<polygon fill="black" stroke="black" points="344.27,-25.36 353.85,-20.83 343.54,-18.4 344.27,-25.36"/>
</g>
<!-- DiemSystem&#45;&gt;CoreAddresses -->
<g id="edge16" class="edge">
<title>DiemSystem&#45;&gt;CoreAddresses</title>
<path fill="none" stroke="black" d="M683.39,-432.48C706.62,-403.75 748.32,-342.43 733,-288 713.63,-219.17 662.34,-150.95 632.8,-115.67"/>
<polygon fill="black" stroke="black" points="635.28,-113.19 626.14,-107.84 629.95,-117.73 635.28,-113.19"/>
</g>
<!-- DiemSystem&#45;&gt;DiemTimestamp -->
<g id="edge17" class="edge">
<title>DiemSystem&#45;&gt;DiemTimestamp</title>
<path fill="none" stroke="black" d="M615.55,-443.52C501.76,-430.59 241.96,-393.86 194,-324 179.25,-302.51 202.12,-225.27 209,-216 220.38,-200.65 237.58,-189.23 254.35,-180.99"/>
<polygon fill="black" stroke="black" points="255.97,-184.1 263.59,-176.74 253.04,-177.74 255.97,-184.1"/>
</g>
<!-- DiemSystem&#45;&gt;Signer -->
<g id="edge14" class="edge">
<title>DiemSystem&#45;&gt;Signer</title>
<path fill="none" stroke="black" d="M723.43,-444.09C770.23,-438.04 838.31,-424.76 891,-396 972.12,-351.72 1000.69,-335.16 1041,-252 1055.02,-223.07 1046.44,-212.11 1048,-180 1048.78,-164.02 1052.85,-159.25 1048,-144 1036.11,-106.63 1030.09,-93.04 997,-72 955.96,-45.9 817.29,-29.6 746.04,-22.75"/>
<polygon fill="black" stroke="black" points="746.32,-19.26 736.04,-21.8 745.66,-26.23 746.32,-19.26"/>
</g>
<!-- DiemSystem&#45;&gt;Vector -->
<g id="edge19" class="edge">
<title>DiemSystem&#45;&gt;Vector</title>
<path fill="none" stroke="black" d="M720,-441.57C771.17,-433.03 845.04,-417.4 864,-396 917.42,-335.72 912.35,-291.76 885,-216 880.9,-204.63 873.18,-193.98 865.33,-185.25"/>
<polygon fill="black" stroke="black" points="867.64,-182.6 858.2,-177.81 862.59,-187.45 867.64,-182.6"/>
</g>
<!-- Roles -->
<g id="node10" class="node">
<title>Roles</title>
<ellipse fill="none" stroke="black" cx="484" cy="-234" rx="30.59" ry="18"/>
<text text-anchor="middle" x="484" y="-230.3" font-family="Times,serif" font-size="14.00">Roles</text>
</g>
<!-- DiemSystem&#45;&gt;Roles -->
<g id="edge18" class="edge">
<title>DiemSystem&#45;&gt;Roles</title>
<path fill="none" stroke="black" d="M657.85,-432.09C637.44,-401.71 591.94,-336.54 546,-288 534.96,-276.33 521.52,-264.6 509.99,-255.14"/>
<polygon fill="black" stroke="black" points="511.97,-252.24 501.98,-248.7 507.58,-257.7 511.97,-252.24"/>
</g>
<!-- DiemConfig -->
<g id="node11" class="node">
<title>DiemConfig</title>
<ellipse fill="none" stroke="black" cx="669" cy="-306" rx="54.69" ry="18"/>
<text text-anchor="middle" x="669" y="-302.3" font-family="Times,serif" font-size="14.00">DiemConfig</text>
</g>
<!-- DiemSystem&#45;&gt;DiemConfig -->
<g id="edge20" class="edge">
<title>DiemSystem&#45;&gt;DiemConfig</title>
<path fill="none" stroke="black" d="M669,-431.87C669,-407.67 669,-363.21 669,-334.39"/>
<polygon fill="black" stroke="black" points="672.5,-334.19 669,-324.19 665.5,-334.19 672.5,-334.19"/>
</g>
<!-- Option -->
<g id="node12" class="node">
<title>Option</title>
<ellipse fill="none" stroke="black" cx="841" cy="-234" rx="35.19" ry="18"/>
<text text-anchor="middle" x="841" y="-230.3" font-family="Times,serif" font-size="14.00">Option</text>
</g>
<!-- DiemSystem&#45;&gt;Option -->
<g id="edge21" class="edge">
<title>DiemSystem&#45;&gt;Option</title>
<path fill="none" stroke="black" d="M726.01,-448.12C765.5,-444.16 815.57,-431.74 842,-396 870.92,-356.9 860.06,-296.57 850.14,-261.94"/>
<polygon fill="black" stroke="black" points="853.4,-260.61 847.14,-252.07 846.7,-262.65 853.4,-260.61"/>
</g>
<!-- ValidatorConfig -->
<g id="node13" class="node">
<title>ValidatorConfig</title>
<ellipse fill="none" stroke="black" cx="457" cy="-378" rx="66.89" ry="18"/>
<text text-anchor="middle" x="457" y="-374.3" font-family="Times,serif" font-size="14.00">ValidatorConfig</text>
</g>
<!-- DiemSystem&#45;&gt;ValidatorConfig -->
<g id="edge22" class="edge">
<title>DiemSystem&#45;&gt;ValidatorConfig</title>
<path fill="none" stroke="black" d="M631.1,-436.49C596.55,-425.08 545.27,-408.14 507.3,-395.61"/>
<polygon fill="black" stroke="black" points="508.05,-392.17 497.46,-392.36 505.86,-398.82 508.05,-392.17"/>
</g>
<!-- Roles&#45;&gt;Errors -->
<g id="edge24" class="edge">
<title>Roles&#45;&gt;Errors</title>
<path fill="none" stroke="black" d="M476.31,-216.21C459.28,-179.02 418.28,-89.48 397.9,-44.99"/>
<polygon fill="black" stroke="black" points="401,-43.35 393.65,-35.71 394.64,-46.26 401,-43.35"/>
</g>
<!-- Roles&#45;&gt;CoreAddresses -->
<g id="edge25" class="edge">
<title>Roles&#45;&gt;CoreAddresses</title>
<path fill="none" stroke="black" d="M497.59,-217.8C519.47,-193.34 562.69,-145.02 589,-115.6"/>
<polygon fill="black" stroke="black" points="591.88,-117.63 595.94,-107.84 586.67,-112.96 591.88,-117.63"/>
</g>
<!-- Roles&#45;&gt;DiemTimestamp -->
<g id="edge26" class="edge">
<title>Roles&#45;&gt;DiemTimestamp</title>
<path fill="none" stroke="black" d="M459.25,-223.27C431.66,-212.42 386.42,-194.63 352.24,-181.18"/>
<polygon fill="black" stroke="black" points="353.5,-177.92 342.91,-177.51 350.93,-184.43 353.5,-177.92"/>
</g>
<!-- Roles&#45;&gt;Signer -->
<g id="edge23" class="edge">
<title>Roles&#45;&gt;Signer</title>
<path fill="none" stroke="black" d="M484.84,-215.81C487.38,-183.18 497.51,-111.98 538,-72 570.59,-39.83 622.74,-27.18 659.68,-22.21"/>
<polygon fill="black" stroke="black" points="660.16,-25.67 669.67,-21 659.32,-18.73 660.16,-25.67"/>
</g>
<!-- DiemConfig&#45;&gt;Errors -->
<g id="edge28" class="edge">
<title>DiemConfig&#45;&gt;Errors</title>
<path fill="none" stroke="black" d="M652.56,-288.39C604.34,-239.65 463.21,-97.02 408.26,-41.49"/>
<polygon fill="black" stroke="black" points="410.62,-38.9 401.09,-34.25 405.64,-43.82 410.62,-38.9"/>
</g>
<!-- DiemConfig&#45;&gt;CoreAddresses -->
<g id="edge29" class="edge">
<title>DiemConfig&#45;&gt;CoreAddresses</title>
<path fill="none" stroke="black" d="M664.35,-287.85C654.3,-250.75 630.46,-162.81 618.35,-118.1"/>
<polygon fill="black" stroke="black" points="621.66,-116.97 615.67,-108.23 614.91,-118.8 621.66,-116.97"/>
</g>
<!-- DiemConfig&#45;&gt;DiemTimestamp -->
<g id="edge30" class="edge">
<title>DiemConfig&#45;&gt;DiemTimestamp</title>
<path fill="none" stroke="black" d="M638.12,-291.12C617.36,-281.28 589.75,-267.17 567,-252 546.26,-238.17 546.25,-227.24 524,-216 478.68,-193.11 423,-179.79 379.25,-172.23"/>
<polygon fill="black" stroke="black" points="379.69,-168.75 369.26,-170.56 378.54,-175.66 379.69,-168.75"/>
</g>
<!-- DiemConfig&#45;&gt;Event -->
<g id="edge32" class="edge">
<title>DiemConfig&#45;&gt;Event</title>
<path fill="none" stroke="black" d="M713.77,-295.56C779.2,-281.77 899.85,-256.33 961.89,-243.25"/>
<polygon fill="black" stroke="black" points="962.99,-246.59 972.05,-241.1 961.55,-239.74 962.99,-246.59"/>
</g>
<!-- DiemConfig&#45;&gt;Signer -->
<g id="edge27" class="edge">
<title>DiemConfig&#45;&gt;Signer</title>
<path fill="none" stroke="black" d="M671.03,-287.97C676.7,-240.19 692.82,-104.62 699.76,-46.27"/>
<polygon fill="black" stroke="black" points="703.24,-46.65 700.94,-36.31 696.29,-45.82 703.24,-46.65"/>
</g>
<!-- DiemConfig&#45;&gt;Roles -->
<g id="edge31" class="edge">
<title>DiemConfig&#45;&gt;Roles</title>
<path fill="none" stroke="black" d="M634.64,-292C601.59,-279.49 551.89,-260.69 518.72,-248.14"/>
<polygon fill="black" stroke="black" points="519.58,-244.72 508.99,-244.46 517.11,-251.27 519.58,-244.72"/>
</g>
<!-- Option&#45;&gt;Errors -->
<g id="edge33" class="edge">
<title>Option&#45;&gt;Errors</title>
<path fill="none" stroke="black" d="M827.87,-217.27C796.84,-180.47 718.93,-90.5 684,-72 601.2,-28.16 489.19,-19.67 428.81,-18.57"/>
<polygon fill="black" stroke="black" points="428.56,-15.06 418.52,-18.44 428.47,-22.06 428.56,-15.06"/>
</g>
<!-- Option&#45;&gt;Vector -->
<g id="edge34" class="edge">
<title>Option&#45;&gt;Vector</title>
<path fill="none" stroke="black" d="M841,-215.7C841,-207.98 841,-198.71 841,-190.11"/>
<polygon fill="black" stroke="black" points="844.5,-190.1 841,-180.1 837.5,-190.1 844.5,-190.1"/>
</g>
<!-- ValidatorConfig&#45;&gt;Errors -->
<g id="edge36" class="edge">
<title>ValidatorConfig&#45;&gt;Errors</title>
<path fill="none" stroke="black" d="M392.36,-373.12C322.74,-367.44 218.6,-354.05 194,-324 122.08,-236.14 157.98,-154.5 236,-72 264.29,-42.08 310.5,-29.04 344.16,-23.36"/>
<polygon fill="black" stroke="black" points="344.82,-26.8 354.17,-21.82 343.76,-19.88 344.82,-26.8"/>
</g>
<!-- ValidatorConfig&#45;&gt;DiemTimestamp -->
<g id="edge37" class="edge">
<title>ValidatorConfig&#45;&gt;DiemTimestamp</title>
<path fill="none" stroke="black" d="M393.33,-372.32C327.68,-366.01 231.77,-352.16 209,-324 172.23,-278.55 234.43,-217.86 275.09,-185.52"/>
<polygon fill="black" stroke="black" points="277.4,-188.16 283.15,-179.26 273.1,-182.63 277.4,-188.16"/>
</g>
<!-- ValidatorConfig&#45;&gt;Signer -->
<g id="edge35" class="edge">
<title>ValidatorConfig&#45;&gt;Signer</title>
<path fill="none" stroke="black" d="M522.19,-373.79C595.2,-368.66 706.78,-355.74 733,-324 800.76,-241.99 744.38,-102.05 716.44,-44.68"/>
<polygon fill="black" stroke="black" points="719.49,-42.97 711.9,-35.58 713.23,-46.09 719.49,-42.97"/>
</g>
<!-- ValidatorConfig&#45;&gt;Roles -->
<g id="edge39" class="edge">
<title>ValidatorConfig&#45;&gt;Roles</title>
<path fill="none" stroke="black" d="M489.25,-362.09C504.25,-353.31 520.6,-340.62 529,-324 536.22,-309.72 534.52,-303.02 529,-288 524.69,-276.26 516.49,-265.34 508.26,-256.49"/>
<polygon fill="black" stroke="black" points="510.65,-253.93 501.12,-249.29 505.68,-258.86 510.65,-253.93"/>
</g>
<!-- ValidatorConfig&#45;&gt;Option -->
<g id="edge41" class="edge">
<title>ValidatorConfig&#45;&gt;Option</title>
<path fill="none" stroke="black" d="M519.49,-371.38C597.29,-363.52 724.97,-347.5 766,-324 792.42,-308.86 813.73,-280.71 826.78,-260.1"/>
<polygon fill="black" stroke="black" points="829.8,-261.88 832.03,-251.52 823.83,-258.23 829.8,-261.88"/>
</g>
<!-- Signature -->
<g id="node14" class="node">
<title>Signature</title>
<ellipse fill="none" stroke="black" cx="262" cy="-306" rx="44.39" ry="18"/>
<text text-anchor="middle" x="262" y="-302.3" font-family="Times,serif" font-size="14.00">Signature</text>
</g>
<!-- ValidatorConfig&#45;&gt;Signature -->
<g id="edge38" class="edge">
<title>ValidatorConfig&#45;&gt;Signature</title>
<path fill="none" stroke="black" d="M418.47,-363.17C385.34,-351.28 337.65,-334.16 303.64,-321.95"/>
<polygon fill="black" stroke="black" points="304.59,-318.57 294,-318.49 302.22,-325.16 304.59,-318.57"/>
</g>
<!-- ValidatorOperatorConfig -->
<g id="node15" class="node">
<title>ValidatorOperatorConfig</title>
<ellipse fill="none" stroke="black" cx="422" cy="-306" rx="98.28" ry="18"/>
<text text-anchor="middle" x="422" y="-302.3" font-family="Times,serif" font-size="14.00">ValidatorOperatorConfig</text>
</g>
<!-- ValidatorConfig&#45;&gt;ValidatorOperatorConfig -->
<g id="edge40" class="edge">
<title>ValidatorConfig&#45;&gt;ValidatorOperatorConfig</title>
<path fill="none" stroke="black" d="M448.53,-360.05C444.5,-352.01 439.6,-342.2 435.11,-333.23"/>
<polygon fill="black" stroke="black" points="438.24,-331.65 430.64,-324.28 431.98,-334.78 438.24,-331.65"/>
</g>
<!-- ValidatorOperatorConfig&#45;&gt;Errors -->
<g id="edge43" class="edge">
<title>ValidatorOperatorConfig&#45;&gt;Errors</title>
<path fill="none" stroke="black" d="M375.28,-290.17C328.01,-272.37 257.53,-237.51 226,-180 190.36,-115 293.5,-58.59 350.7,-33.25"/>
<polygon fill="black" stroke="black" points="352.34,-36.35 360.13,-29.16 349.56,-29.92 352.34,-36.35"/>
</g>
<!-- ValidatorOperatorConfig&#45;&gt;DiemTimestamp -->
<g id="edge44" class="edge">
<title>ValidatorOperatorConfig&#45;&gt;DiemTimestamp</title>
<path fill="none" stroke="black" d="M408.24,-288.15C387.92,-263.28 349.76,-216.57 326.25,-187.79"/>
<polygon fill="black" stroke="black" points="328.78,-185.36 319.74,-179.82 323.36,-189.78 328.78,-185.36"/>
</g>
<!-- ValidatorOperatorConfig&#45;&gt;Signer -->
<g id="edge42" class="edge">
<title>ValidatorOperatorConfig&#45;&gt;Signer</title>
<path fill="none" stroke="black" d="M423.04,-287.78C426.66,-244.29 442.46,-129.41 510,-72 552.19,-36.14 616.64,-24.39 659.29,-20.62"/>
<polygon fill="black" stroke="black" points="659.67,-24.11 669.37,-19.85 659.13,-17.13 659.67,-24.11"/>
</g>
<!-- ValidatorOperatorConfig&#45;&gt;Roles -->
<g id="edge45" class="edge">
<title>ValidatorOperatorConfig&#45;&gt;Roles</title>
<path fill="none" stroke="black" d="M437.01,-288.05C445.04,-278.99 455.04,-267.69 463.75,-257.86"/>
<polygon fill="black" stroke="black" points="466.39,-260.16 470.4,-250.36 461.15,-255.52 466.39,-260.16"/>
</g>
</g>
</svg>
