<?xml version="1.0" encoding="UTF-8" standalone="no"?>
<!DOCTYPE svg PUBLIC "-//W3C//DTD SVG 1.1//EN"
 "http://www.w3.org/Graphics/SVG/1.1/DTD/svg11.dtd">
<!-- Generated by graphviz version 2.46.1 (20210213.1702)
 -->
<!-- Title: G Pages: 1 -->
<svg width="1016pt" height="365pt"
 viewBox="0.00 0.00 1016.00 365.00" xmlns="http://www.w3.org/2000/svg" xmlns:xlink="http://www.w3.org/1999/xlink">
<g id="graph0" class="graph" transform="scale(1 1) rotate(0) translate(4 361)">
<title>G</title>
<polygon fill="white" stroke="transparent" points="-4,4 -4,-361 1012,-361 1012,4 -4,4"/>
<g id="clust1" class="cluster">
<title>cluster_Signer</title>
<polygon fill="none" stroke="black" points="850,-8 850,-155 1000,-155 1000,-8 850,-8"/>
<text text-anchor="middle" x="925" y="-139.8" font-family="Times,serif" font-size="14.00">Signer</text>
</g>
<g id="clust2" class="cluster">
<title>cluster_Errors</title>
<polygon fill="none" stroke="black" points="8,-8 8,-155 604,-155 604,-8 8,-8"/>
<text text-anchor="middle" x="306" y="-139.8" font-family="Times,serif" font-size="14.00">Errors</text>
</g>
<g id="clust3" class="cluster">
<title>cluster_Roles</title>
<polygon fill="none" stroke="black" points="452,-238 452,-313 610,-313 610,-238 452,-238"/>
<text text-anchor="middle" x="531" y="-297.8" font-family="Times,serif" font-size="14.00">Roles</text>
</g>
<g id="clust4" class="cluster">
<title>cluster_CoreAddresses</title>
<polygon fill="none" stroke="black" points="612,-80 612,-230 842,-230 842,-80 612,-80"/>
<text text-anchor="middle" x="727" y="-214.8" font-family="Times,serif" font-size="14.00">CoreAddresses</text>
</g>
<!-- halt_all_transactions -->
<g id="node1" class="node">
<title>halt_all_transactions</title>
<ellipse fill="none" stroke="black" cx="531" cy="-339" rx="83.39" ry="18"/>
<text text-anchor="middle" x="531" y="-335.3" font-family="Times,serif" font-size="14.00">halt_all_transactions</text>
</g>
<!-- Signer::address_of -->
<g id="node2" class="node">
<title>Signer::address_of</title>
<ellipse fill="none" stroke="black" cx="907" cy="-106" rx="48.99" ry="18"/>
<text text-anchor="middle" x="907" y="-102.3" font-family="Times,serif" font-size="14.00">address_of</text>
</g>
<!-- halt_all_transactions&#45;&gt;Signer::address_of -->
<g id="edge1" class="edge">
<title>halt_all_transactions&#45;&gt;Signer::address_of</title>
<path fill="none" stroke="black" d="M612.52,-335.17C691.94,-327.89 810.45,-304.25 879,-230 903,-204 907.86,-161.83 908.18,-134.26"/>
<polygon fill="black" stroke="black" points="911.68,-134.09 908.1,-124.12 904.68,-134.14 911.68,-134.09"/>
</g>
<!-- Errors::already_published -->
<g id="node3" class="node">
<title>Errors::already_published</title>
<ellipse fill="none" stroke="black" cx="91" cy="-106" rx="75.29" ry="18"/>
<text text-anchor="middle" x="91" y="-102.3" font-family="Times,serif" font-size="14.00">already_published</text>
</g>
<!-- halt_all_transactions&#45;&gt;Errors::already_published -->
<g id="edge2" class="edge">
<title>halt_all_transactions&#45;&gt;Errors::already_published</title>
<path fill="none" stroke="black" d="M479.86,-324.62C469.17,-321.26 458.08,-317.36 448,-313 321.85,-258.48 184.05,-169.82 123.08,-128.93"/>
<polygon fill="black" stroke="black" points="124.9,-125.94 114.66,-123.26 120.99,-131.75 124.9,-125.94"/>
</g>
<!-- Roles::assert_diem_root -->
<g id="node4" class="node">
<title>Roles::assert_diem_root</title>
<ellipse fill="none" stroke="black" cx="531" cy="-264" rx="71.49" ry="18"/>
<text text-anchor="middle" x="531" y="-260.3" font-family="Times,serif" font-size="14.00">assert_diem_root</text>
</g>
<!-- halt_all_transactions&#45;&gt;Roles::assert_diem_root -->
<g id="edge3" class="edge">
<title>halt_all_transactions&#45;&gt;Roles::assert_diem_root</title>
<path fill="none" stroke="black" d="M531,-320.7C531,-312.25 531,-301.87 531,-292.37"/>
<polygon fill="black" stroke="black" points="534.5,-292.18 531,-282.18 527.5,-292.18 534.5,-292.18"/>
</g>
<!-- Signer::borrow_address -->
<g id="node5" class="node">
<title>Signer::borrow_address</title>
<ellipse fill="none" stroke="black" cx="925" cy="-34" rx="66.89" ry="18"/>
<text text-anchor="middle" x="925" y="-30.3" font-family="Times,serif" font-size="14.00">borrow_address</text>
</g>
<!-- Signer::address_of&#45;&gt;Signer::borrow_address -->
<g id="edge4" class="edge">
<title>Signer::address_of&#45;&gt;Signer::borrow_address</title>
<path fill="none" stroke="black" d="M911.36,-88.05C913.36,-80.26 915.79,-70.82 918.04,-62.08"/>
<polygon fill="black" stroke="black" points="921.46,-62.83 920.56,-52.28 914.68,-61.09 921.46,-62.83"/>
</g>
<!-- Errors::make -->
<g id="node6" class="node">
<title>Errors::make</title>
<ellipse fill="none" stroke="black" cx="313" cy="-34" rx="30.59" ry="18"/>
<text text-anchor="middle" x="313" y="-30.3" font-family="Times,serif" font-size="14.00">make</text>
</g>
<!-- Errors::already_published&#45;&gt;Errors::make -->
<g id="edge5" class="edge">
<title>Errors::already_published&#45;&gt;Errors::make</title>
<path fill="none" stroke="black" d="M134.6,-91.25C176.09,-78.17 237.82,-58.71 276.71,-46.44"/>
<polygon fill="black" stroke="black" points="278.07,-49.68 286.56,-43.34 275.97,-43.01 278.07,-49.68"/>
</g>
<!-- Roles::assert_diem_root&#45;&gt;Signer::address_of -->
<g id="edge6" class="edge">
<title>Roles::assert_diem_root&#45;&gt;Signer::address_of</title>
<path fill="none" stroke="black" d="M602.55,-263.34C683.16,-262.39 807.9,-256.48 846,-230 862.94,-218.23 884.86,-166.14 897.28,-133.64"/>
<polygon fill="black" stroke="black" points="900.57,-134.84 900.81,-124.25 894.02,-132.38 900.57,-134.84"/>
</g>
<!-- Errors::not_published -->
<g id="node7" class="node">
<title>Errors::not_published</title>
<ellipse fill="none" stroke="black" cx="245" cy="-106" rx="60.39" ry="18"/>
<text text-anchor="middle" x="245" y="-102.3" font-family="Times,serif" font-size="14.00">not_published</text>
</g>
<!-- Roles::assert_diem_root&#45;&gt;Errors::not_published -->
<g id="edge7" class="edge">
<title>Roles::assert_diem_root&#45;&gt;Errors::not_published</title>
<path fill="none" stroke="black" d="M485.7,-250.02C469.1,-244.64 450.38,-237.81 434,-230 377.58,-203.08 367.23,-189.35 315,-155 302.12,-146.53 288.08,-136.97 275.97,-128.62"/>
<polygon fill="black" stroke="black" points="277.76,-125.6 267.55,-122.79 273.78,-131.36 277.76,-125.6"/>
</g>
<!-- Errors::requires_role -->
<g id="node8" class="node">
<title>Errors::requires_role</title>
<ellipse fill="none" stroke="black" cx="381" cy="-106" rx="57.39" ry="18"/>
<text text-anchor="middle" x="381" y="-102.3" font-family="Times,serif" font-size="14.00">requires_role</text>
</g>
<!-- Roles::assert_diem_root&#45;&gt;Errors::requires_role -->
<g id="edge8" class="edge">
<title>Roles::assert_diem_root&#45;&gt;Errors::requires_role</title>
<path fill="none" stroke="black" d="M514.95,-246.31C488.33,-218.63 434.96,-163.12 404.23,-131.16"/>
<polygon fill="black" stroke="black" points="406.39,-128.36 396.94,-123.57 401.35,-133.21 406.39,-128.36"/>
</g>
<!-- CoreAddresses::assert_diem_root -->
<g id="node9" class="node">
<title>CoreAddresses::assert_diem_root</title>
<ellipse fill="none" stroke="black" cx="709" cy="-181" rx="71.49" ry="18"/>
<text text-anchor="middle" x="709" y="-177.3" font-family="Times,serif" font-size="14.00">assert_diem_root</text>
</g>
<!-- Roles::assert_diem_root&#45;&gt;CoreAddresses::assert_diem_root -->
<g id="edge9" class="edge">
<title>Roles::assert_diem_root&#45;&gt;CoreAddresses::assert_diem_root</title>
<path fill="none" stroke="black" d="M564.06,-247.95C592.95,-234.81 635.05,-215.65 666.44,-201.37"/>
<polygon fill="black" stroke="black" points="668.16,-204.43 675.81,-197.1 665.26,-198.06 668.16,-204.43"/>
</g>
<!-- Errors::not_published&#45;&gt;Errors::make -->
<g id="edge10" class="edge">
<title>Errors::not_published&#45;&gt;Errors::make</title>
<path fill="none" stroke="black" d="M261.12,-88.41C270.13,-79.13 281.49,-67.44 291.28,-57.36"/>
<polygon fill="black" stroke="black" points="293.93,-59.65 298.39,-50.04 288.91,-54.77 293.93,-59.65"/>
</g>
<!-- Errors::requires_role&#45;&gt;Errors::make -->
<g id="edge11" class="edge">
<title>Errors::requires_role&#45;&gt;Errors::make</title>
<path fill="none" stroke="black" d="M364.88,-88.41C355.87,-79.13 344.51,-67.44 334.72,-57.36"/>
<polygon fill="black" stroke="black" points="337.09,-54.77 327.61,-50.04 332.07,-59.65 337.09,-54.77"/>
</g>
<!-- CoreAddresses::assert_diem_root&#45;&gt;Signer::address_of -->
<g id="edge12" class="edge">
<title>CoreAddresses::assert_diem_root&#45;&gt;Signer::address_of</title>
<path fill="none" stroke="black" d="M775.76,-174.43C798.75,-170.81 824.18,-164.84 846,-155 859.51,-148.91 872.67,-139.19 883.29,-130.09"/>
<polygon fill="black" stroke="black" points="885.74,-132.59 890.87,-123.32 881.08,-127.37 885.74,-132.59"/>
</g>
<!-- Errors::requires_address -->
<g id="node10" class="node">
<title>Errors::requires_address</title>
<ellipse fill="none" stroke="black" cx="526" cy="-106" rx="69.59" ry="18"/>
<text text-anchor="middle" x="526" y="-102.3" font-family="Times,serif" font-size="14.00">requires_address</text>
</g>
<!-- CoreAddresses::assert_diem_root&#45;&gt;Errors::requires_address -->
<g id="edge13" class="edge">
<title>CoreAddresses::assert_diem_root&#45;&gt;Errors::requires_address</title>
<path fill="none" stroke="black" d="M654.1,-169.44C638.89,-165.7 622.56,-160.92 608,-155 590.79,-148 572.85,-137.87 558.16,-128.72"/>
<polygon fill="black" stroke="black" points="559.78,-125.6 549.46,-123.18 556.02,-131.51 559.78,-125.6"/>
</g>
<!-- CoreAddresses::DIEM_ROOT_ADDRESS -->
<g id="node11" class="node">
<title>CoreAddresses::DIEM_ROOT_ADDRESS</title>
<ellipse fill="none" stroke="black" cx="727" cy="-106" rx="106.68" ry="18"/>
<text text-anchor="middle" x="727" y="-102.3" font-family="Times,serif" font-size="14.00">DIEM_ROOT_ADDRESS</text>
</g>
<!-- CoreAddresses::assert_diem_root&#45;&gt;CoreAddresses::DIEM_ROOT_ADDRESS -->
<g id="edge14" class="edge">
<title>CoreAddresses::assert_diem_root&#45;&gt;CoreAddresses::DIEM_ROOT_ADDRESS</title>
<path fill="none" stroke="black" d="M713.27,-162.7C715.37,-154.15 717.96,-143.65 720.33,-134.07"/>
<polygon fill="black" stroke="black" points="723.77,-134.72 722.76,-124.18 716.97,-133.05 723.77,-134.72"/>
</g>
<!-- Errors::requires_address&#45;&gt;Errors::make -->
<g id="edge15" class="edge">
<title>Errors::requires_address&#45;&gt;Errors::make</title>
<path fill="none" stroke="black" d="M484.68,-91.42C445.14,-78.43 386.14,-59.04 348.62,-46.71"/>
<polygon fill="black" stroke="black" points="349.7,-43.38 339.11,-43.58 347.51,-50.03 349.7,-43.38"/>
</g>
</g>
</svg>
