<?xml version="1.0" encoding="UTF-8" standalone="no"?>
<!DOCTYPE svg PUBLIC "-//W3C//DTD SVG 1.1//EN"
 "http://www.w3.org/Graphics/SVG/1.1/DTD/svg11.dtd">
<!-- Generated by graphviz version 2.46.1 (20210213.1702)
 -->
<!-- Title: G Pages: 1 -->
<svg width="705pt" height="354pt"
 viewBox="0.00 0.00 705.00 354.00" xmlns="http://www.w3.org/2000/svg" xmlns:xlink="http://www.w3.org/1999/xlink">
<g id="graph0" class="graph" transform="scale(1 1) rotate(0) translate(4 350)">
<title>G</title>
<polygon fill="white" stroke="transparent" points="-4,4 -4,-350 701,-350 701,4 -4,4"/>
<g id="clust1" class="cluster">
<title>cluster_CoreAddresses</title>
<polygon fill="none" stroke="black" points="166,-80 166,-230 396,-230 396,-80 166,-80"/>
<text text-anchor="middle" x="281" y="-214.8" font-family="Times,serif" font-size="14.00">CoreAddresses</text>
</g>
<g id="clust2" class="cluster">
<title>cluster_Signer</title>
<polygon fill="none" stroke="black" points="8,-8 8,-155 158,-155 158,-8 8,-8"/>
<text text-anchor="middle" x="83" y="-139.8" font-family="Times,serif" font-size="14.00">Signer</text>
</g>
<g id="clust3" class="cluster">
<title>cluster_Errors</title>
<polygon fill="none" stroke="black" points="404,-8 404,-155 689,-155 689,-8 404,-8"/>
<text text-anchor="middle" x="546.5" y="-139.8" font-family="Times,serif" font-size="14.00">Errors</text>
</g>
<!-- set_time_has_started -->
<g id="node1" class="node">
<title>set_time_has_started</title>
<ellipse fill="none" stroke="black" cx="366" cy="-328" rx="85.29" ry="18"/>
<text text-anchor="middle" x="366" y="-324.3" font-family="Times,serif" font-size="14.00">set_time_has_started</text>
</g>
<!-- CoreAddresses::assert_diem_root -->
<g id="node2" class="node">
<title>CoreAddresses::assert_diem_root</title>
<ellipse fill="none" stroke="black" cx="298" cy="-181" rx="71.49" ry="18"/>
<text text-anchor="middle" x="298" y="-177.3" font-family="Times,serif" font-size="14.00">assert_diem_root</text>
</g>
<!-- set_time_has_started&#45;&gt;CoreAddresses::assert_diem_root -->
<g id="edge1" class="edge">
<title>set_time_has_started&#45;&gt;CoreAddresses::assert_diem_root</title>
<path fill="none" stroke="black" d="M357.93,-309.8C346.17,-284.72 324.23,-237.93 310.41,-208.46"/>
<polygon fill="black" stroke="black" points="313.47,-206.75 306.06,-199.18 307.13,-209.72 313.47,-206.75"/>
</g>
<!-- assert_genesis -->
<g id="node3" class="node">
<title>assert_genesis</title>
<ellipse fill="none" stroke="black" cx="451" cy="-256" rx="61.19" ry="18"/>
<text text-anchor="middle" x="451" y="-252.3" font-family="Times,serif" font-size="14.00">assert_genesis</text>
</g>
<!-- set_time_has_started&#45;&gt;assert_genesis -->
<g id="edge2" class="edge">
<title>set_time_has_started&#45;&gt;assert_genesis</title>
<path fill="none" stroke="black" d="M386.14,-310.41C397.23,-301.28 411.16,-289.81 423.26,-279.84"/>
<polygon fill="black" stroke="black" points="425.8,-282.29 431.29,-273.23 421.35,-276.88 425.8,-282.29"/>
</g>
<!-- Signer::address_of -->
<g id="node4" class="node">
<title>Signer::address_of</title>
<ellipse fill="none" stroke="black" cx="92" cy="-106" rx="48.99" ry="18"/>
<text text-anchor="middle" x="92" y="-102.3" font-family="Times,serif" font-size="14.00">address_of</text>
</g>
<!-- CoreAddresses::assert_diem_root&#45;&gt;Signer::address_of -->
<g id="edge3" class="edge">
<title>CoreAddresses::assert_diem_root&#45;&gt;Signer::address_of</title>
<path fill="none" stroke="black" d="M232.42,-173.61C209.54,-169.92 184.08,-164.11 162,-155 146.51,-148.61 130.96,-138.42 118.47,-129.07"/>
<polygon fill="black" stroke="black" points="120.4,-126.14 110.35,-122.79 116.12,-131.67 120.4,-126.14"/>
</g>
<!-- Errors::requires_address -->
<g id="node5" class="node">
<title>Errors::requires_address</title>
<ellipse fill="none" stroke="black" cx="482" cy="-106" rx="69.59" ry="18"/>
<text text-anchor="middle" x="482" y="-102.3" font-family="Times,serif" font-size="14.00">requires_address</text>
</g>
<!-- CoreAddresses::assert_diem_root&#45;&gt;Errors::requires_address -->
<g id="edge4" class="edge">
<title>CoreAddresses::assert_diem_root&#45;&gt;Errors::requires_address</title>
<path fill="none" stroke="black" d="M353.18,-169.55C368.62,-165.81 385.21,-160.99 400,-155 417.22,-148.02 435.16,-137.89 449.85,-128.74"/>
<polygon fill="black" stroke="black" points="451.99,-131.52 458.54,-123.2 448.23,-125.62 451.99,-131.52"/>
</g>
<!-- CoreAddresses::DIEM_ROOT_ADDRESS -->
<g id="node6" class="node">
<title>CoreAddresses::DIEM_ROOT_ADDRESS</title>
<ellipse fill="none" stroke="black" cx="281" cy="-106" rx="106.68" ry="18"/>
<text text-anchor="middle" x="281" y="-102.3" font-family="Times,serif" font-size="14.00">DIEM_ROOT_ADDRESS</text>
</g>
<!-- CoreAddresses::assert_diem_root&#45;&gt;CoreAddresses::DIEM_ROOT_ADDRESS -->
<g id="edge5" class="edge">
<title>CoreAddresses::assert_diem_root&#45;&gt;CoreAddresses::DIEM_ROOT_ADDRESS</title>
<path fill="none" stroke="black" d="M293.97,-162.7C291.98,-154.15 289.53,-143.65 287.3,-134.07"/>
<polygon fill="black" stroke="black" points="290.68,-133.12 285,-124.18 283.86,-134.71 290.68,-133.12"/>
</g>
<!-- Errors::invalid_state -->
<g id="node7" class="node">
<title>Errors::invalid_state</title>
<ellipse fill="none" stroke="black" cx="625" cy="-106" rx="55.79" ry="18"/>
<text text-anchor="middle" x="625" y="-102.3" font-family="Times,serif" font-size="14.00">invalid_state</text>
</g>
<!-- assert_genesis&#45;&gt;Errors::invalid_state -->
<g id="edge6" class="edge">
<title>assert_genesis&#45;&gt;Errors::invalid_state</title>
<path fill="none" stroke="black" d="M487.07,-241.38C493.95,-238.1 500.9,-234.29 507,-230 546.97,-201.89 584.47,-158.86 606.06,-131.86"/>
<polygon fill="black" stroke="black" points="609.05,-133.72 612.49,-123.7 603.55,-129.39 609.05,-133.72"/>
</g>
<!-- is_genesis -->
<g id="node8" class="node">
<title>is_genesis</title>
<ellipse fill="none" stroke="black" cx="451" cy="-181" rx="46.59" ry="18"/>
<text text-anchor="middle" x="451" y="-177.3" font-family="Times,serif" font-size="14.00">is_genesis</text>
</g>
<!-- assert_genesis&#45;&gt;is_genesis -->
<g id="edge7" class="edge">
<title>assert_genesis&#45;&gt;is_genesis</title>
<path fill="none" stroke="black" d="M451,-237.7C451,-229.25 451,-218.87 451,-209.37"/>
<polygon fill="black" stroke="black" points="454.5,-209.18 451,-199.18 447.5,-209.18 454.5,-209.18"/>
</g>
<!-- Signer::borrow_address -->
<g id="node9" class="node">
<title>Signer::borrow_address</title>
<ellipse fill="none" stroke="black" cx="83" cy="-34" rx="66.89" ry="18"/>
<text text-anchor="middle" x="83" y="-30.3" font-family="Times,serif" font-size="14.00">borrow_address</text>
</g>
<!-- Signer::address_of&#45;&gt;Signer::borrow_address -->
<g id="edge8" class="edge">
<title>Signer::address_of&#45;&gt;Signer::borrow_address</title>
<path fill="none" stroke="black" d="M89.78,-87.7C88.78,-79.98 87.59,-70.71 86.49,-62.11"/>
<polygon fill="black" stroke="black" points="89.95,-61.58 85.2,-52.1 83,-62.47 89.95,-61.58"/>
</g>
<!-- Errors::make -->
<g id="node10" class="node">
<title>Errors::make</title>
<ellipse fill="none" stroke="black" cx="553" cy="-34" rx="30.59" ry="18"/>
<text text-anchor="middle" x="553" y="-30.3" font-family="Times,serif" font-size="14.00">make</text>
</g>
<!-- Errors::requires_address&#45;&gt;Errors::make -->
<g id="edge9" class="edge">
<title>Errors::requires_address&#45;&gt;Errors::make</title>
<path fill="none" stroke="black" d="M498.83,-88.41C508.33,-79.04 520.33,-67.21 530.62,-57.07"/>
<polygon fill="black" stroke="black" points="533.08,-59.55 537.75,-50.04 528.17,-54.57 533.08,-59.55"/>
</g>
<!-- Errors::invalid_state&#45;&gt;Errors::make -->
<g id="edge10" class="edge">
<title>Errors::invalid_state&#45;&gt;Errors::make</title>
<path fill="none" stroke="black" d="M608.3,-88.76C598.54,-79.27 586.09,-67.17 575.48,-56.85"/>
<polygon fill="black" stroke="black" points="577.75,-54.18 568.14,-49.72 572.87,-59.2 577.75,-54.18"/>
</g>
<!-- is_genesis&#45;&gt;CoreAddresses::DIEM_ROOT_ADDRESS -->
<g id="edge11" class="edge">
<title>is_genesis&#45;&gt;CoreAddresses::DIEM_ROOT_ADDRESS</title>
<path fill="none" stroke="black" d="M421,-167.12C395.11,-156 357.29,-139.76 327.48,-126.96"/>
<polygon fill="black" stroke="black" points="328.68,-123.67 318.11,-122.94 325.92,-130.1 328.68,-123.67"/>
</g>
</g>
</svg>
