<?xml version="1.0" encoding="UTF-8" standalone="no"?>
<!DOCTYPE svg PUBLIC "-//W3C//DTD SVG 1.1//EN"
 "http://www.w3.org/Graphics/SVG/1.1/DTD/svg11.dtd">
<!-- Generated by graphviz version 2.46.1 (20210213.1702)
 -->
<!-- Title: G Pages: 1 -->
<svg width="398pt" height="207pt"
 viewBox="0.00 0.00 398.00 207.00" xmlns="http://www.w3.org/2000/svg" xmlns:xlink="http://www.w3.org/1999/xlink">
<g id="graph0" class="graph" transform="scale(1 1) rotate(0) translate(4 203)">
<title>G</title>
<polygon fill="white" stroke="transparent" points="-4,4 -4,-203 394,-203 394,4 -4,4"/>
<g id="clust1" class="cluster">
<title>cluster_Errors</title>
<polygon fill="none" stroke="black" points="8,-8 8,-155 144,-155 144,-8 8,-8"/>
<text text-anchor="middle" x="76" y="-139.8" font-family="Times,serif" font-size="14.00">Errors</text>
</g>
<g id="clust2" class="cluster">
<title>cluster_CoreAddresses</title>
<polygon fill="none" stroke="black" points="152,-80 152,-155 382,-155 382,-80 152,-80"/>
<text text-anchor="middle" x="267" y="-139.8" font-family="Times,serif" font-size="14.00">CoreAddresses</text>
</g>
<!-- get_cur_microdiem_limit -->
<g id="node1" class="node">
<title>get_cur_microdiem_limit</title>
<ellipse fill="none" stroke="black" cx="171" cy="-181" rx="102.08" ry="18"/>
<text text-anchor="middle" x="171" y="-177.3" font-family="Times,serif" font-size="14.00">get_cur_microdiem_limit</text>
</g>
<!-- Errors::not_published -->
<g id="node2" class="node">
<title>Errors::not_published</title>
<ellipse fill="none" stroke="black" cx="76" cy="-106" rx="60.39" ry="18"/>
<text text-anchor="middle" x="76" y="-102.3" font-family="Times,serif" font-size="14.00">not_published</text>
</g>
<!-- get_cur_microdiem_limit&#45;&gt;Errors::not_published -->
<g id="edge1" class="edge">
<title>get_cur_microdiem_limit&#45;&gt;Errors::not_published</title>
<path fill="none" stroke="black" d="M148.97,-163.07C135.86,-153 119.09,-140.11 104.92,-129.23"/>
<polygon fill="black" stroke="black" points="107,-126.41 96.94,-123.09 102.73,-131.96 107,-126.41"/>
</g>
<!-- CoreAddresses::DIEM_ROOT_ADDRESS -->
<g id="node3" class="node">
<title>CoreAddresses::DIEM_ROOT_ADDRESS</title>
<ellipse fill="none" stroke="black" cx="267" cy="-106" rx="106.68" ry="18"/>
<text text-anchor="middle" x="267" y="-102.3" font-family="Times,serif" font-size="14.00">DIEM_ROOT_ADDRESS</text>
</g>
<!-- get_cur_microdiem_limit&#45;&gt;CoreAddresses::DIEM_ROOT_ADDRESS -->
<g id="edge2" class="edge">
<title>get_cur_microdiem_limit&#45;&gt;CoreAddresses::DIEM_ROOT_ADDRESS</title>
<path fill="none" stroke="black" d="M193.27,-163.07C206.23,-153.21 222.75,-140.65 236.87,-129.91"/>
<polygon fill="black" stroke="black" points="239.01,-132.68 244.86,-123.84 234.78,-127.11 239.01,-132.68"/>
</g>
<!-- Errors::make -->
<g id="node4" class="node">
<title>Errors::make</title>
<ellipse fill="none" stroke="black" cx="76" cy="-34" rx="30.59" ry="18"/>
<text text-anchor="middle" x="76" y="-30.3" font-family="Times,serif" font-size="14.00">make</text>
</g>
<!-- Errors::not_published&#45;&gt;Errors::make -->
<g id="edge3" class="edge">
<title>Errors::not_published&#45;&gt;Errors::make</title>
<path fill="none" stroke="black" d="M76,-87.7C76,-79.98 76,-70.71 76,-62.11"/>
<polygon fill="black" stroke="black" points="79.5,-62.1 76,-52.1 72.5,-62.1 79.5,-62.1"/>
</g>
</g>
</svg>
