<?xml version="1.0" encoding="UTF-8" standalone="no"?>
<!DOCTYPE svg PUBLIC "-//W3C//DTD SVG 1.1//EN"
 "http://www.w3.org/Graphics/SVG/1.1/DTD/svg11.dtd">
<!-- Generated by graphviz version 2.46.1 (20210213.1702)
 -->
<!-- Title: G Pages: 1 -->
<svg width="1539pt" height="520pt"
 viewBox="0.00 0.00 1539.00 520.00" xmlns="http://www.w3.org/2000/svg" xmlns:xlink="http://www.w3.org/1999/xlink">
<g id="graph0" class="graph" transform="scale(1 1) rotate(0) translate(4 516)">
<title>G</title>
<polygon fill="white" stroke="transparent" points="-4,4 -4,-516 1535,-516 1535,4 -4,4"/>
<g id="clust1" class="cluster">
<title>cluster_Errors</title>
<polygon fill="none" stroke="black" points="8,-8 8,-155 747,-155 747,-8 8,-8"/>
<text text-anchor="middle" x="377.5" y="-139.8" font-family="Times,serif" font-size="14.00">Errors</text>
</g>
<g id="clust2" class="cluster">
<title>cluster_CoreAddresses</title>
<polygon fill="none" stroke="black" points="913,-80 913,-238 1346,-238 1346,-80 913,-80"/>
<text text-anchor="middle" x="1129.5" y="-222.8" font-family="Times,serif" font-size="14.00">CoreAddresses</text>
</g>
<g id="clust3" class="cluster">
<title>cluster_DiemTimestamp</title>
<polygon fill="none" stroke="black" points="1385,-163 1385,-321 1523,-321 1523,-163 1385,-163"/>
<text text-anchor="middle" x="1454" y="-305.8" font-family="Times,serif" font-size="14.00">DiemTimestamp</text>
</g>
<g id="clust4" class="cluster">
<title>cluster_Diem</title>
<polygon fill="none" stroke="black" points="1023,-246 1023,-468 1191,-468 1191,-246 1023,-246"/>
<text text-anchor="middle" x="1107" y="-452.8" font-family="Times,serif" font-size="14.00">Diem</text>
</g>
<g id="clust5" class="cluster">
<title>cluster_Signer</title>
<polygon fill="none" stroke="black" points="755,-8 755,-155 905,-155 905,-8 755,-8"/>
<text text-anchor="middle" x="830" y="-139.8" font-family="Times,serif" font-size="14.00">Signer</text>
</g>
<!-- initialize -->
<g id="node1" class="node">
<title>initialize</title>
<ellipse fill="none" stroke="black" cx="999" cy="-494" rx="41.69" ry="18"/>
<text text-anchor="middle" x="999" y="-490.3" font-family="Times,serif" font-size="14.00">initialize</text>
</g>
<!-- Errors::already_published -->
<g id="node2" class="node">
<title>Errors::already_published</title>
<ellipse fill="none" stroke="black" cx="91" cy="-106" rx="75.29" ry="18"/>
<text text-anchor="middle" x="91" y="-102.3" font-family="Times,serif" font-size="14.00">already_published</text>
</g>
<!-- initialize&#45;&gt;Errors::already_published -->
<g id="edge1" class="edge">
<title>initialize&#45;&gt;Errors::already_published</title>
<path fill="none" stroke="black" d="M957.21,-493.49C804.27,-494.16 284,-486.3 284,-348 284,-348 284,-348 284,-271 284,-230.29 183,-162.65 127.13,-128.36"/>
<polygon fill="black" stroke="black" points="128.6,-125.16 118.24,-122.95 124.97,-131.14 128.6,-125.16"/>
</g>
<!-- Errors::limit_exceeded -->
<g id="node3" class="node">
<title>Errors::limit_exceeded</title>
<ellipse fill="none" stroke="black" cx="249" cy="-106" rx="64.99" ry="18"/>
<text text-anchor="middle" x="249" y="-102.3" font-family="Times,serif" font-size="14.00">limit_exceeded</text>
</g>
<!-- initialize&#45;&gt;Errors::limit_exceeded -->
<g id="edge2" class="edge">
<title>initialize&#45;&gt;Errors::limit_exceeded</title>
<path fill="none" stroke="black" d="M958.48,-489.65C841.92,-478.92 514,-440.5 514,-348 514,-348 514,-348 514,-271 514,-171.68 407.12,-207.81 323,-155 309.3,-146.4 294.31,-136.73 281.42,-128.33"/>
<polygon fill="black" stroke="black" points="283.17,-125.28 272.88,-122.75 279.34,-131.14 283.17,-125.28"/>
</g>
<!-- CoreAddresses::DIEM_ROOT_ADDRESS -->
<g id="node4" class="node">
<title>CoreAddresses::DIEM_ROOT_ADDRESS</title>
<ellipse fill="none" stroke="black" cx="1231" cy="-106" rx="106.68" ry="18"/>
<text text-anchor="middle" x="1231" y="-102.3" font-family="Times,serif" font-size="14.00">DIEM_ROOT_ADDRESS</text>
</g>
<!-- initialize&#45;&gt;CoreAddresses::DIEM_ROOT_ADDRESS -->
<g id="edge3" class="edge">
<title>initialize&#45;&gt;CoreAddresses::DIEM_ROOT_ADDRESS</title>
<path fill="none" stroke="black" d="M1040.37,-491.73C1090.09,-489.52 1169.96,-483.59 1195,-468 1299.02,-403.24 1311.73,-355.34 1347,-238 1356.6,-206.08 1364.72,-191.23 1347,-163 1336.07,-145.58 1318.02,-133.45 1299.38,-125.06"/>
<polygon fill="black" stroke="black" points="1300.49,-121.73 1289.91,-121.11 1297.8,-128.19 1300.49,-121.73"/>
</g>
<!-- CoreAddresses::assert_diem_root -->
<g id="node5" class="node">
<title>CoreAddresses::assert_diem_root</title>
<ellipse fill="none" stroke="black" cx="992" cy="-189" rx="71.49" ry="18"/>
<text text-anchor="middle" x="992" y="-185.3" font-family="Times,serif" font-size="14.00">assert_diem_root</text>
</g>
<!-- initialize&#45;&gt;CoreAddresses::assert_diem_root -->
<g id="edge4" class="edge">
<title>initialize&#45;&gt;CoreAddresses::assert_diem_root</title>
<path fill="none" stroke="black" d="M998.6,-475.84C997.44,-425.65 994.05,-278.79 992.63,-217.43"/>
<polygon fill="black" stroke="black" points="996.13,-217.26 992.4,-207.35 989.13,-217.42 996.13,-217.26"/>
</g>
<!-- DiemTimestamp::assert_genesis -->
<g id="node6" class="node">
<title>DiemTimestamp::assert_genesis</title>
<ellipse fill="none" stroke="black" cx="1454" cy="-272" rx="61.19" ry="18"/>
<text text-anchor="middle" x="1454" y="-268.3" font-family="Times,serif" font-size="14.00">assert_genesis</text>
</g>
<!-- initialize&#45;&gt;DiemTimestamp::assert_genesis -->
<g id="edge5" class="edge">
<title>initialize&#45;&gt;DiemTimestamp::assert_genesis</title>
<path fill="none" stroke="black" d="M1040.73,-492.76C1133.79,-491.87 1352.28,-487.67 1379,-468 1433.12,-428.15 1448.19,-343.83 1452.38,-300.29"/>
<polygon fill="black" stroke="black" points="1455.88,-300.41 1453.23,-290.15 1448.91,-299.82 1455.88,-300.41"/>
</g>
<!-- Diem::scaling_factor -->
<g id="node7" class="node">
<title>Diem::scaling_factor</title>
<ellipse fill="none" stroke="black" cx="1091" cy="-419" rx="60.39" ry="18"/>
<text text-anchor="middle" x="1091" y="-415.3" font-family="Times,serif" font-size="14.00">scaling_factor</text>
</g>
<!-- initialize&#45;&gt;Diem::scaling_factor -->
<g id="edge6" class="edge">
<title>initialize&#45;&gt;Diem::scaling_factor</title>
<path fill="none" stroke="black" d="M1018.06,-477.87C1030.91,-467.68 1048.08,-454.05 1062.54,-442.58"/>
<polygon fill="black" stroke="black" points="1065.03,-445.08 1070.69,-436.12 1060.68,-439.59 1065.03,-445.08"/>
</g>
<!-- Errors::make -->
<g id="node8" class="node">
<title>Errors::make</title>
<ellipse fill="none" stroke="black" cx="392" cy="-34" rx="30.59" ry="18"/>
<text text-anchor="middle" x="392" y="-30.3" font-family="Times,serif" font-size="14.00">make</text>
</g>
<!-- Errors::already_published&#45;&gt;Errors::make -->
<g id="edge7" class="edge">
<title>Errors::already_published&#45;&gt;Errors::make</title>
<path fill="none" stroke="black" d="M134.84,-91.19C147.72,-87.34 161.87,-83.31 175,-80 236.83,-64.42 309.54,-50.15 353.14,-42.03"/>
<polygon fill="black" stroke="black" points="353.84,-45.46 363.04,-40.2 352.57,-38.57 353.84,-45.46"/>
</g>
<!-- Errors::limit_exceeded&#45;&gt;Errors::make -->
<g id="edge8" class="edge">
<title>Errors::limit_exceeded&#45;&gt;Errors::make</title>
<path fill="none" stroke="black" d="M279.68,-89.98C303.44,-78.35 336.25,-62.29 360.28,-50.53"/>
<polygon fill="black" stroke="black" points="361.89,-53.63 369.34,-46.09 358.82,-47.35 361.89,-53.63"/>
</g>
<!-- CoreAddresses::assert_diem_root&#45;&gt;CoreAddresses::DIEM_ROOT_ADDRESS -->
<g id="edge11" class="edge">
<title>CoreAddresses::assert_diem_root&#45;&gt;CoreAddresses::DIEM_ROOT_ADDRESS</title>
<path fill="none" stroke="black" d="M1032.81,-174.17C1072.23,-160.81 1132.2,-140.48 1175.85,-125.69"/>
<polygon fill="black" stroke="black" points="1177.12,-128.96 1185.46,-122.43 1174.87,-122.33 1177.12,-128.96"/>
</g>
<!-- Signer::address_of -->
<g id="node9" class="node">
<title>Signer::address_of</title>
<ellipse fill="none" stroke="black" cx="839" cy="-106" rx="48.99" ry="18"/>
<text text-anchor="middle" x="839" y="-102.3" font-family="Times,serif" font-size="14.00">address_of</text>
</g>
<!-- CoreAddresses::assert_diem_root&#45;&gt;Signer::address_of -->
<g id="edge9" class="edge">
<title>CoreAddresses::assert_diem_root&#45;&gt;Signer::address_of</title>
<path fill="none" stroke="black" d="M951.5,-173.97C937.72,-168.66 922.41,-162.15 909,-155 894.63,-147.34 879.62,-137.35 867.21,-128.47"/>
<polygon fill="black" stroke="black" points="869.21,-125.6 859.07,-122.54 865.09,-131.25 869.21,-125.6"/>
</g>
<!-- Errors::requires_address -->
<g id="node10" class="node">
<title>Errors::requires_address</title>
<ellipse fill="none" stroke="black" cx="669" cy="-106" rx="69.59" ry="18"/>
<text text-anchor="middle" x="669" y="-102.3" font-family="Times,serif" font-size="14.00">requires_address</text>
</g>
<!-- CoreAddresses::assert_diem_root&#45;&gt;Errors::requires_address -->
<g id="edge10" class="edge">
<title>CoreAddresses::assert_diem_root&#45;&gt;Errors::requires_address</title>
<path fill="none" stroke="black" d="M951.81,-174.08C937.8,-169.79 921.86,-165.53 907,-163 872.78,-157.17 784.26,-164.94 751,-155 732.37,-149.43 713.51,-138.82 698.59,-128.98"/>
<polygon fill="black" stroke="black" points="700.52,-126.06 690.28,-123.32 696.58,-131.85 700.52,-126.06"/>
</g>
<!-- Errors::invalid_state -->
<g id="node11" class="node">
<title>Errors::invalid_state</title>
<ellipse fill="none" stroke="black" cx="526" cy="-106" rx="55.79" ry="18"/>
<text text-anchor="middle" x="526" y="-102.3" font-family="Times,serif" font-size="14.00">invalid_state</text>
</g>
<!-- DiemTimestamp::assert_genesis&#45;&gt;Errors::invalid_state -->
<g id="edge12" class="edge">
<title>DiemTimestamp::assert_genesis&#45;&gt;Errors::invalid_state</title>
<path fill="none" stroke="black" d="M1398.26,-264.51C1345.87,-258.67 1265.22,-250.37 1195,-246 1179.14,-245.01 922.51,-246.37 909,-238 876.88,-218.11 901.11,-182.9 869,-163 842.64,-146.66 619.28,-165.23 590,-155 575.12,-149.8 560.86,-139.78 549.59,-130.24"/>
<polygon fill="black" stroke="black" points="551.75,-127.47 541.95,-123.45 547.1,-132.71 551.75,-127.47"/>
</g>
<!-- DiemTimestamp::is_genesis -->
<g id="node12" class="node">
<title>DiemTimestamp::is_genesis</title>
<ellipse fill="none" stroke="black" cx="1447" cy="-189" rx="46.59" ry="18"/>
<text text-anchor="middle" x="1447" y="-185.3" font-family="Times,serif" font-size="14.00">is_genesis</text>
</g>
<!-- DiemTimestamp::assert_genesis&#45;&gt;DiemTimestamp::is_genesis -->
<g id="edge13" class="edge">
<title>DiemTimestamp::assert_genesis&#45;&gt;DiemTimestamp::is_genesis</title>
<path fill="none" stroke="black" d="M1452.52,-253.82C1451.6,-243.19 1450.4,-229.31 1449.35,-217.2"/>
<polygon fill="black" stroke="black" points="1452.83,-216.81 1448.48,-207.15 1445.86,-217.42 1452.83,-216.81"/>
</g>
<!-- CoreAddresses::CURRENCY_INFO_ADDRESS -->
<g id="node13" class="node">
<title>CoreAddresses::CURRENCY_INFO_ADDRESS</title>
<ellipse fill="none" stroke="black" cx="1210" cy="-189" rx="128.08" ry="18"/>
<text text-anchor="middle" x="1210" y="-185.3" font-family="Times,serif" font-size="14.00">CURRENCY_INFO_ADDRESS</text>
</g>
<!-- Diem::scaling_factor&#45;&gt;CoreAddresses::CURRENCY_INFO_ADDRESS -->
<g id="edge14" class="edge">
<title>Diem::scaling_factor&#45;&gt;CoreAddresses::CURRENCY_INFO_ADDRESS</title>
<path fill="none" stroke="black" d="M1060.77,-403.22C1046.2,-394.34 1030.15,-381.53 1022,-365 997.57,-315.44 1017.84,-283.96 1058,-246 1065.32,-239.08 1112,-222.38 1151.73,-209.01"/>
<polygon fill="black" stroke="black" points="1153.02,-212.27 1161.39,-205.78 1150.79,-205.63 1153.02,-212.27"/>
</g>
<!-- Diem::assert_is_currency -->
<g id="node14" class="node">
<title>Diem::assert_is_currency</title>
<ellipse fill="none" stroke="black" cx="1107" cy="-347" rx="76.09" ry="18"/>
<text text-anchor="middle" x="1107" y="-343.3" font-family="Times,serif" font-size="14.00">assert_is_currency</text>
</g>
<!-- Diem::scaling_factor&#45;&gt;Diem::assert_is_currency -->
<g id="edge15" class="edge">
<title>Diem::scaling_factor&#45;&gt;Diem::assert_is_currency</title>
<path fill="none" stroke="black" d="M1094.96,-400.7C1096.72,-392.98 1098.84,-383.71 1100.8,-375.11"/>
<polygon fill="black" stroke="black" points="1104.27,-375.63 1103.09,-365.1 1097.45,-374.07 1104.27,-375.63"/>
</g>
<!-- Signer::borrow_address -->
<g id="node15" class="node">
<title>Signer::borrow_address</title>
<ellipse fill="none" stroke="black" cx="830" cy="-34" rx="66.89" ry="18"/>
<text text-anchor="middle" x="830" y="-30.3" font-family="Times,serif" font-size="14.00">borrow_address</text>
</g>
<!-- Signer::address_of&#45;&gt;Signer::borrow_address -->
<g id="edge16" class="edge">
<title>Signer::address_of&#45;&gt;Signer::borrow_address</title>
<path fill="none" stroke="black" d="M836.78,-87.7C835.78,-79.98 834.59,-70.71 833.49,-62.11"/>
<polygon fill="black" stroke="black" points="836.95,-61.58 832.2,-52.1 830,-62.47 836.95,-61.58"/>
</g>
<!-- Errors::requires_address&#45;&gt;Errors::make -->
<g id="edge17" class="edge">
<title>Errors::requires_address&#45;&gt;Errors::make</title>
<path fill="none" stroke="black" d="M628.32,-91.22C616.36,-87.37 603.21,-83.33 591,-80 535.67,-64.91 470.73,-50.91 430.47,-42.65"/>
<polygon fill="black" stroke="black" points="431.03,-39.2 420.53,-40.63 429.64,-46.06 431.03,-39.2"/>
</g>
<!-- Errors::invalid_state&#45;&gt;Errors::make -->
<g id="edge18" class="edge">
<title>Errors::invalid_state&#45;&gt;Errors::make</title>
<path fill="none" stroke="black" d="M497.91,-90.33C476.15,-78.96 446.02,-63.22 423.45,-51.43"/>
<polygon fill="black" stroke="black" points="424.78,-48.17 414.29,-46.65 421.54,-54.38 424.78,-48.17"/>
</g>
<!-- DiemTimestamp::is_genesis&#45;&gt;CoreAddresses::DIEM_ROOT_ADDRESS -->
<g id="edge19" class="edge">
<title>DiemTimestamp::is_genesis&#45;&gt;CoreAddresses::DIEM_ROOT_ADDRESS</title>
<path fill="none" stroke="black" d="M1414.66,-175.87C1379.69,-162.76 1323.44,-141.66 1282.4,-126.27"/>
<polygon fill="black" stroke="black" points="1283.43,-122.92 1272.84,-122.69 1280.97,-129.48 1283.43,-122.92"/>
</g>
<!-- Errors::not_published -->
<g id="node16" class="node">
<title>Errors::not_published</title>
<ellipse fill="none" stroke="black" cx="392" cy="-106" rx="60.39" ry="18"/>
<text text-anchor="middle" x="392" y="-102.3" font-family="Times,serif" font-size="14.00">not_published</text>
</g>
<!-- Diem::assert_is_currency&#45;&gt;Errors::not_published -->
<g id="edge20" class="edge">
<title>Diem::assert_is_currency&#45;&gt;Errors::not_published</title>
<path fill="none" stroke="black" d="M1069.05,-331.26C977.5,-296.32 736.68,-208.02 528,-163 498.69,-156.68 489.03,-165.66 461,-155 445.6,-149.14 430.35,-139.11 418.13,-129.73"/>
<polygon fill="black" stroke="black" points="420.18,-126.89 410.18,-123.4 415.82,-132.37 420.18,-126.89"/>
</g>
<!-- Diem::is_currency -->
<g id="node17" class="node">
<title>Diem::is_currency</title>
<ellipse fill="none" stroke="black" cx="1119" cy="-272" rx="51.99" ry="18"/>
<text text-anchor="middle" x="1119" y="-268.3" font-family="Times,serif" font-size="14.00">is_currency</text>
</g>
<!-- Diem::assert_is_currency&#45;&gt;Diem::is_currency -->
<g id="edge21" class="edge">
<title>Diem::assert_is_currency&#45;&gt;Diem::is_currency</title>
<path fill="none" stroke="black" d="M1109.84,-328.7C1111.25,-320.15 1112.98,-309.65 1114.55,-300.07"/>
<polygon fill="black" stroke="black" points="1118.01,-300.61 1116.18,-290.18 1111.1,-299.48 1118.01,-300.61"/>
</g>
<!-- Errors::not_published&#45;&gt;Errors::make -->
<g id="edge22" class="edge">
<title>Errors::not_published&#45;&gt;Errors::make</title>
<path fill="none" stroke="black" d="M392,-87.7C392,-79.98 392,-70.71 392,-62.11"/>
<polygon fill="black" stroke="black" points="395.5,-62.1 392,-52.1 388.5,-62.1 395.5,-62.1"/>
</g>
<!-- Diem::is_currency&#45;&gt;CoreAddresses::CURRENCY_INFO_ADDRESS -->
<g id="edge23" class="edge">
<title>Diem::is_currency&#45;&gt;CoreAddresses::CURRENCY_INFO_ADDRESS</title>
<path fill="none" stroke="black" d="M1136.98,-255C1150.3,-243.14 1168.66,-226.8 1183.64,-213.46"/>
<polygon fill="black" stroke="black" points="1185.98,-216.07 1191.12,-206.81 1181.32,-210.84 1185.98,-216.07"/>
</g>
</g>
</svg>
