<?xml version="1.0" encoding="UTF-8" standalone="no"?>
<!DOCTYPE svg PUBLIC "-//W3C//DTD SVG 1.1//EN"
 "http://www.w3.org/Graphics/SVG/1.1/DTD/svg11.dtd">
<!-- Generated by graphviz version 2.46.1 (20210213.1702)
 -->
<!-- Title: G Pages: 1 -->
<svg width="1130pt" height="440pt"
 viewBox="0.00 0.00 1130.00 440.00" xmlns="http://www.w3.org/2000/svg" xmlns:xlink="http://www.w3.org/1999/xlink">
<g id="graph0" class="graph" transform="scale(1 1) rotate(0) translate(4 436)">
<title>G</title>
<polygon fill="white" stroke="transparent" points="-4,4 -4,-436 1126,-436 1126,4 -4,4"/>
<g id="clust1" class="cluster">
<title>cluster_Diem</title>
<polygon fill="none" stroke="black" points="280,-91 280,-388 478,-388 478,-91 280,-91"/>
<text text-anchor="middle" x="379" y="-372.8" font-family="Times,serif" font-size="14.00">Diem</text>
</g>
<g id="clust2" class="cluster">
<title>cluster_VASP</title>
<polygon fill="none" stroke="black" points="878,-238 878,-388 1114,-388 1114,-238 878,-238"/>
<text text-anchor="middle" x="996" y="-372.8" font-family="Times,serif" font-size="14.00">VASP</text>
</g>
<g id="clust3" class="cluster">
<title>cluster_FixedPoint32</title>
<polygon fill="none" stroke="black" points="738,-238 738,-313 870,-313 870,-238 738,-238"/>
<text text-anchor="middle" x="804" y="-297.8" font-family="Times,serif" font-size="14.00">FixedPoint32</text>
</g>
<g id="clust4" class="cluster">
<title>cluster_Errors</title>
<polygon fill="none" stroke="black" points="520,-8 520,-166 969,-166 969,-8 520,-8"/>
<text text-anchor="middle" x="744.5" y="-150.8" font-family="Times,serif" font-size="14.00">Errors</text>
</g>
<g id="clust5" class="cluster">
<title>cluster_CoreAddresses</title>
<polygon fill="none" stroke="black" points="8,-8 8,-83 512,-83 512,-8 8,-8"/>
<text text-anchor="middle" x="260" y="-67.8" font-family="Times,serif" font-size="14.00">CoreAddresses</text>
</g>
<!-- dual_attestation_required -->
<g id="node1" class="node">
<title>dual_attestation_required</title>
<ellipse fill="none" stroke="black" cx="815" cy="-414" rx="100.18" ry="18"/>
<text text-anchor="middle" x="815" y="-410.3" font-family="Times,serif" font-size="14.00">dual_attestation_required</text>
</g>
<!-- Diem::approx_xdx_for_value -->
<g id="node2" class="node">
<title>Diem::approx_xdx_for_value</title>
<ellipse fill="none" stroke="black" cx="379" cy="-339" rx="90.98" ry="18"/>
<text text-anchor="middle" x="379" y="-335.3" font-family="Times,serif" font-size="14.00">approx_xdx_for_value</text>
</g>
<!-- dual_attestation_required&#45;&gt;Diem::approx_xdx_for_value -->
<g id="edge1" class="edge">
<title>dual_attestation_required&#45;&gt;Diem::approx_xdx_for_value</title>
<path fill="none" stroke="black" d="M732.75,-403.73C697.89,-399.48 656.88,-394.03 620,-388 561.63,-378.46 495.8,-365.17 447.71,-355"/>
<polygon fill="black" stroke="black" points="448.23,-351.53 437.72,-352.88 446.78,-358.38 448.23,-351.53"/>
</g>
<!-- VASP::is_vasp -->
<g id="node3" class="node">
<title>VASP::is_vasp</title>
<ellipse fill="none" stroke="black" cx="1069" cy="-339" rx="37.09" ry="18"/>
<text text-anchor="middle" x="1069" y="-335.3" font-family="Times,serif" font-size="14.00">is_vasp</text>
</g>
<!-- dual_attestation_required&#45;&gt;VASP::is_vasp -->
<g id="edge2" class="edge">
<title>dual_attestation_required&#45;&gt;VASP::is_vasp</title>
<path fill="none" stroke="black" d="M909.16,-407.84C954.39,-404.13 1003.03,-397.97 1023,-388 1033.91,-382.55 1043.65,-373.42 1051.33,-364.58"/>
<polygon fill="black" stroke="black" points="1054.18,-366.62 1057.77,-356.66 1048.75,-362.21 1054.18,-366.62"/>
</g>
<!-- VASP::parent_address -->
<g id="node4" class="node">
<title>VASP::parent_address</title>
<ellipse fill="none" stroke="black" cx="950" cy="-339" rx="63.89" ry="18"/>
<text text-anchor="middle" x="950" y="-335.3" font-family="Times,serif" font-size="14.00">parent_address</text>
</g>
<!-- dual_attestation_required&#45;&gt;VASP::parent_address -->
<g id="edge3" class="edge">
<title>dual_attestation_required&#45;&gt;VASP::parent_address</title>
<path fill="none" stroke="black" d="M844.96,-396.8C864.94,-385.99 891.36,-371.71 912.71,-360.17"/>
<polygon fill="black" stroke="black" points="914.38,-363.24 921.51,-355.41 911.05,-357.08 914.38,-363.24"/>
</g>
<!-- get_cur_microdiem_limit -->
<g id="node5" class="node">
<title>get_cur_microdiem_limit</title>
<ellipse fill="none" stroke="black" cx="588" cy="-192" rx="102.08" ry="18"/>
<text text-anchor="middle" x="588" y="-188.3" font-family="Times,serif" font-size="14.00">get_cur_microdiem_limit</text>
</g>
<!-- dual_attestation_required&#45;&gt;get_cur_microdiem_limit -->
<g id="edge4" class="edge">
<title>dual_attestation_required&#45;&gt;get_cur_microdiem_limit</title>
<path fill="none" stroke="black" d="M795.6,-396C773.37,-376.37 736,-342.94 705,-313 671.57,-280.72 634.31,-242.01 611.02,-217.46"/>
<polygon fill="black" stroke="black" points="613.38,-214.86 603.97,-210.01 608.3,-219.68 613.38,-214.86"/>
</g>
<!-- FixedPoint32::multiply_u64 -->
<g id="node6" class="node">
<title>FixedPoint32::multiply_u64</title>
<ellipse fill="none" stroke="black" cx="804" cy="-264" rx="58.49" ry="18"/>
<text text-anchor="middle" x="804" y="-260.3" font-family="Times,serif" font-size="14.00">multiply_u64</text>
</g>
<!-- Diem::approx_xdx_for_value&#45;&gt;FixedPoint32::multiply_u64 -->
<g id="edge5" class="edge">
<title>Diem::approx_xdx_for_value&#45;&gt;FixedPoint32::multiply_u64</title>
<path fill="none" stroke="black" d="M445.41,-326.59C527.29,-312.53 665.28,-288.83 744.07,-275.29"/>
<polygon fill="black" stroke="black" points="745.05,-278.68 754.31,-273.53 743.86,-271.78 745.05,-278.68"/>
</g>
<!-- Diem::xdx_exchange_rate -->
<g id="node7" class="node">
<title>Diem::xdx_exchange_rate</title>
<ellipse fill="none" stroke="black" cx="373" cy="-264" rx="79.09" ry="18"/>
<text text-anchor="middle" x="373" y="-260.3" font-family="Times,serif" font-size="14.00">xdx_exchange_rate</text>
</g>
<!-- Diem::approx_xdx_for_value&#45;&gt;Diem::xdx_exchange_rate -->
<g id="edge6" class="edge">
<title>Diem::approx_xdx_for_value&#45;&gt;Diem::xdx_exchange_rate</title>
<path fill="none" stroke="black" d="M377.58,-320.7C376.88,-312.25 376.03,-301.87 375.25,-292.37"/>
<polygon fill="black" stroke="black" points="378.72,-291.86 374.41,-282.18 371.74,-292.43 378.72,-291.86"/>
</g>
<!-- VASP::is_child -->
<g id="node8" class="node">
<title>VASP::is_child</title>
<ellipse fill="none" stroke="black" cx="953" cy="-264" rx="38.19" ry="18"/>
<text text-anchor="middle" x="953" y="-260.3" font-family="Times,serif" font-size="14.00">is_child</text>
</g>
<!-- VASP::is_vasp&#45;&gt;VASP::is_child -->
<g id="edge7" class="edge">
<title>VASP::is_vasp&#45;&gt;VASP::is_child</title>
<path fill="none" stroke="black" d="M1040.11,-327.44C1026.91,-322.39 1012.92,-316.67 1007,-313 995.67,-305.98 984.45,-296.52 975.19,-287.85"/>
<polygon fill="black" stroke="black" points="977.54,-285.26 967.91,-280.83 972.68,-290.29 977.54,-285.26"/>
</g>
<!-- VASP::is_parent -->
<g id="node9" class="node">
<title>VASP::is_parent</title>
<ellipse fill="none" stroke="black" cx="1059" cy="-264" rx="42.79" ry="18"/>
<text text-anchor="middle" x="1059" y="-260.3" font-family="Times,serif" font-size="14.00">is_parent</text>
</g>
<!-- VASP::is_vasp&#45;&gt;VASP::is_parent -->
<g id="edge8" class="edge">
<title>VASP::is_vasp&#45;&gt;VASP::is_parent</title>
<path fill="none" stroke="black" d="M1066.63,-320.7C1065.47,-312.25 1064.05,-301.87 1062.75,-292.37"/>
<polygon fill="black" stroke="black" points="1066.18,-291.61 1061.35,-282.18 1059.24,-292.56 1066.18,-291.61"/>
</g>
<!-- VASP::parent_address&#45;&gt;VASP::is_child -->
<g id="edge10" class="edge">
<title>VASP::parent_address&#45;&gt;VASP::is_child</title>
<path fill="none" stroke="black" d="M950.71,-320.7C951.06,-312.25 951.48,-301.87 951.88,-292.37"/>
<polygon fill="black" stroke="black" points="955.38,-292.31 952.29,-282.18 948.39,-292.02 955.38,-292.31"/>
</g>
<!-- VASP::parent_address&#45;&gt;VASP::is_parent -->
<g id="edge11" class="edge">
<title>VASP::parent_address&#45;&gt;VASP::is_parent</title>
<path fill="none" stroke="black" d="M982.06,-323.28C988.15,-320.12 994.37,-316.63 1000,-313 1011.82,-305.37 1024.02,-295.78 1034.23,-287.18"/>
<polygon fill="black" stroke="black" points="1036.65,-289.72 1041.95,-280.55 1032.09,-284.41 1036.65,-289.72"/>
</g>
<!-- Errors::invalid_argument -->
<g id="node10" class="node">
<title>Errors::invalid_argument</title>
<ellipse fill="none" stroke="black" cx="740" cy="-117" rx="73.39" ry="18"/>
<text text-anchor="middle" x="740" y="-113.3" font-family="Times,serif" font-size="14.00">invalid_argument</text>
</g>
<!-- VASP::parent_address&#45;&gt;Errors::invalid_argument -->
<g id="edge9" class="edge">
<title>VASP::parent_address&#45;&gt;Errors::invalid_argument</title>
<path fill="none" stroke="black" d="M887.85,-334.96C827.71,-331.37 744.15,-324.4 734,-313 692.47,-266.39 713.85,-185.82 729.08,-144.35"/>
<polygon fill="black" stroke="black" points="732.38,-145.52 732.68,-134.93 725.84,-143.02 732.38,-145.52"/>
</g>
<!-- Errors::not_published -->
<g id="node11" class="node">
<title>Errors::not_published</title>
<ellipse fill="none" stroke="black" cx="588" cy="-117" rx="60.39" ry="18"/>
<text text-anchor="middle" x="588" y="-113.3" font-family="Times,serif" font-size="14.00">not_published</text>
</g>
<!-- get_cur_microdiem_limit&#45;&gt;Errors::not_published -->
<g id="edge12" class="edge">
<title>get_cur_microdiem_limit&#45;&gt;Errors::not_published</title>
<path fill="none" stroke="black" d="M588,-173.7C588,-165.25 588,-154.87 588,-145.37"/>
<polygon fill="black" stroke="black" points="591.5,-145.18 588,-135.18 584.5,-145.18 591.5,-145.18"/>
</g>
<!-- CoreAddresses::DIEM_ROOT_ADDRESS -->
<g id="node12" class="node">
<title>CoreAddresses::DIEM_ROOT_ADDRESS</title>
<ellipse fill="none" stroke="black" cx="397" cy="-34" rx="106.68" ry="18"/>
<text text-anchor="middle" x="397" y="-30.3" font-family="Times,serif" font-size="14.00">DIEM_ROOT_ADDRESS</text>
</g>
<!-- get_cur_microdiem_limit&#45;&gt;CoreAddresses::DIEM_ROOT_ADDRESS -->
<g id="edge13" class="edge">
<title>get_cur_microdiem_limit&#45;&gt;CoreAddresses::DIEM_ROOT_ADDRESS</title>
<path fill="none" stroke="black" d="M531.94,-176.79C526.16,-173.84 520.69,-170.28 516,-166 488.97,-141.33 505.77,-118.83 482,-91 470.2,-77.18 454.17,-65.43 439.2,-56.32"/>
<polygon fill="black" stroke="black" points="440.96,-53.29 430.56,-51.26 437.42,-59.33 440.96,-53.29"/>
</g>
<!-- Errors::limit_exceeded -->
<g id="node13" class="node">
<title>Errors::limit_exceeded</title>
<ellipse fill="none" stroke="black" cx="896" cy="-117" rx="64.99" ry="18"/>
<text text-anchor="middle" x="896" y="-113.3" font-family="Times,serif" font-size="14.00">limit_exceeded</text>
</g>
<!-- FixedPoint32::multiply_u64&#45;&gt;Errors::limit_exceeded -->
<g id="edge14" class="edge">
<title>FixedPoint32::multiply_u64&#45;&gt;Errors::limit_exceeded</title>
<path fill="none" stroke="black" d="M814.73,-246.08C830.8,-220.76 861.21,-172.84 879.93,-143.33"/>
<polygon fill="black" stroke="black" points="882.93,-145.13 885.33,-134.81 877.02,-141.38 882.93,-145.13"/>
</g>
<!-- CoreAddresses::CURRENCY_INFO_ADDRESS -->
<g id="node14" class="node">
<title>CoreAddresses::CURRENCY_INFO_ADDRESS</title>
<ellipse fill="none" stroke="black" cx="144" cy="-34" rx="128.08" ry="18"/>
<text text-anchor="middle" x="144" y="-30.3" font-family="Times,serif" font-size="14.00">CURRENCY_INFO_ADDRESS</text>
</g>
<!-- Diem::xdx_exchange_rate&#45;&gt;CoreAddresses::CURRENCY_INFO_ADDRESS -->
<g id="edge15" class="edge">
<title>Diem::xdx_exchange_rate&#45;&gt;CoreAddresses::CURRENCY_INFO_ADDRESS</title>
<path fill="none" stroke="black" d="M342.65,-247.28C325.65,-237.72 304.61,-224.56 288,-210 235.09,-163.61 185.83,-96.63 160.94,-60.46"/>
<polygon fill="black" stroke="black" points="163.67,-58.26 155.15,-51.97 157.89,-62.2 163.67,-58.26"/>
</g>
<!-- Diem::assert_is_currency -->
<g id="node15" class="node">
<title>Diem::assert_is_currency</title>
<ellipse fill="none" stroke="black" cx="373" cy="-192" rx="76.09" ry="18"/>
<text text-anchor="middle" x="373" y="-188.3" font-family="Times,serif" font-size="14.00">assert_is_currency</text>
</g>
<!-- Diem::xdx_exchange_rate&#45;&gt;Diem::assert_is_currency -->
<g id="edge16" class="edge">
<title>Diem::xdx_exchange_rate&#45;&gt;Diem::assert_is_currency</title>
<path fill="none" stroke="black" d="M373,-245.7C373,-237.98 373,-228.71 373,-220.11"/>
<polygon fill="black" stroke="black" points="376.5,-220.1 373,-210.1 369.5,-220.1 376.5,-220.1"/>
</g>
<!-- Errors::make -->
<g id="node16" class="node">
<title>Errors::make</title>
<ellipse fill="none" stroke="black" cx="740" cy="-34" rx="30.59" ry="18"/>
<text text-anchor="middle" x="740" y="-30.3" font-family="Times,serif" font-size="14.00">make</text>
</g>
<!-- Errors::invalid_argument&#45;&gt;Errors::make -->
<g id="edge17" class="edge">
<title>Errors::invalid_argument&#45;&gt;Errors::make</title>
<path fill="none" stroke="black" d="M740,-98.82C740,-88.19 740,-74.31 740,-62.2"/>
<polygon fill="black" stroke="black" points="743.5,-62.15 740,-52.15 736.5,-62.15 743.5,-62.15"/>
</g>
<!-- Errors::not_published&#45;&gt;Errors::make -->
<g id="edge18" class="edge">
<title>Errors::not_published&#45;&gt;Errors::make</title>
<path fill="none" stroke="black" d="M616.23,-100.95C642.5,-86.96 681.56,-66.14 708.76,-51.65"/>
<polygon fill="black" stroke="black" points="710.66,-54.6 717.84,-46.81 707.37,-48.42 710.66,-54.6"/>
</g>
<!-- Errors::limit_exceeded&#45;&gt;Errors::make -->
<g id="edge19" class="edge">
<title>Errors::limit_exceeded&#45;&gt;Errors::make</title>
<path fill="none" stroke="black" d="M866.66,-100.76C839.38,-86.6 798.88,-65.57 771.06,-51.13"/>
<polygon fill="black" stroke="black" points="772.64,-48.01 762.15,-46.5 769.42,-54.22 772.64,-48.01"/>
</g>
<!-- Diem::assert_is_currency&#45;&gt;Errors::not_published -->
<g id="edge20" class="edge">
<title>Diem::assert_is_currency&#45;&gt;Errors::not_published</title>
<path fill="none" stroke="black" d="M430.45,-180.08C447.26,-176.28 465.54,-171.55 482,-166 505.13,-158.2 530.05,-147.06 549.91,-137.48"/>
<polygon fill="black" stroke="black" points="551.49,-140.6 558.94,-133.07 548.42,-134.32 551.49,-140.6"/>
</g>
<!-- Diem::is_currency -->
<g id="node17" class="node">
<title>Diem::is_currency</title>
<ellipse fill="none" stroke="black" cx="344" cy="-117" rx="51.99" ry="18"/>
<text text-anchor="middle" x="344" y="-113.3" font-family="Times,serif" font-size="14.00">is_currency</text>
</g>
<!-- Diem::assert_is_currency&#45;&gt;Diem::is_currency -->
<g id="edge21" class="edge">
<title>Diem::assert_is_currency&#45;&gt;Diem::is_currency</title>
<path fill="none" stroke="black" d="M366.27,-174.07C362.79,-165.29 358.44,-154.36 354.52,-144.49"/>
<polygon fill="black" stroke="black" points="357.73,-143.09 350.79,-135.09 351.23,-145.68 357.73,-143.09"/>
</g>
<!-- Diem::is_currency&#45;&gt;CoreAddresses::CURRENCY_INFO_ADDRESS -->
<g id="edge22" class="edge">
<title>Diem::is_currency&#45;&gt;CoreAddresses::CURRENCY_INFO_ADDRESS</title>
<path fill="none" stroke="black" d="M311.42,-102.81C279.41,-89.84 230.16,-69.89 193.35,-54.99"/>
<polygon fill="black" stroke="black" points="194.38,-51.63 183.8,-51.12 191.75,-58.12 194.38,-51.63"/>
</g>
</g>
</svg>
