<?xml version="1.0" encoding="UTF-8" standalone="no"?>
<!DOCTYPE svg PUBLIC "-//W3C//DTD SVG 1.1//EN"
 "http://www.w3.org/Graphics/SVG/1.1/DTD/svg11.dtd">
<!-- Generated by graphviz version 2.46.1 (20210213.1702)
 -->
<!-- Title: G Pages: 1 -->
<svg width="949pt" height="437pt"
 viewBox="0.00 0.00 949.00 437.00" xmlns="http://www.w3.org/2000/svg" xmlns:xlink="http://www.w3.org/1999/xlink">
<g id="graph0" class="graph" transform="scale(1 1) rotate(0) translate(4 433)">
<title>G</title>
<polygon fill="white" stroke="transparent" points="-4,4 -4,-433 945,-433 945,4 -4,4"/>
<g id="clust1" class="cluster">
<title>cluster_Signer</title>
<polygon fill="none" stroke="black" points="8,-238 8,-385 158,-385 158,-238 8,-238"/>
<text text-anchor="middle" x="83" y="-369.8" font-family="Times,serif" font-size="14.00">Signer</text>
</g>
<g id="clust2" class="cluster">
<title>cluster_Errors</title>
<polygon fill="none" stroke="black" points="348,-8 348,-166 779,-166 779,-8 348,-8"/>
<text text-anchor="middle" x="563.5" y="-150.8" font-family="Times,serif" font-size="14.00">Errors</text>
</g>
<g id="clust3" class="cluster">
<title>cluster_DiemTimestamp</title>
<polygon fill="none" stroke="black" points="166,-91 166,-385 340,-385 340,-91 166,-91"/>
<text text-anchor="middle" x="253" y="-369.8" font-family="Times,serif" font-size="14.00">DiemTimestamp</text>
</g>
<g id="clust4" class="cluster">
<title>cluster_Signature</title>
<polygon fill="none" stroke="black" points="517,-310 517,-385 739,-385 739,-310 517,-310"/>
<text text-anchor="middle" x="628" y="-369.8" font-family="Times,serif" font-size="14.00">Signature</text>
</g>
<g id="clust5" class="cluster">
<title>cluster_Event</title>
<polygon fill="none" stroke="black" points="747,-238 747,-385 933,-385 933,-238 747,-238"/>
<text text-anchor="middle" x="840" y="-369.8" font-family="Times,serif" font-size="14.00">Event</text>
</g>
<g id="clust6" class="cluster">
<title>cluster_CoreAddresses</title>
<polygon fill="none" stroke="black" points="81,-8 81,-83 311,-83 311,-8 81,-8"/>
<text text-anchor="middle" x="196" y="-67.8" font-family="Times,serif" font-size="14.00">CoreAddresses</text>
</g>
<!-- rotate_compliance_public_key -->
<g id="node1" class="node">
<title>rotate_compliance_public_key</title>
<ellipse fill="none" stroke="black" cx="478" cy="-411" rx="119.68" ry="18"/>
<text text-anchor="middle" x="478" y="-407.3" font-family="Times,serif" font-size="14.00">rotate_compliance_public_key</text>
</g>
<!-- Signer::address_of -->
<g id="node2" class="node">
<title>Signer::address_of</title>
<ellipse fill="none" stroke="black" cx="92" cy="-336" rx="48.99" ry="18"/>
<text text-anchor="middle" x="92" y="-332.3" font-family="Times,serif" font-size="14.00">address_of</text>
</g>
<!-- rotate_compliance_public_key&#45;&gt;Signer::address_of -->
<g id="edge1" class="edge">
<title>rotate_compliance_public_key&#45;&gt;Signer::address_of</title>
<path fill="none" stroke="black" d="M361.3,-407.03C286.83,-403.94 197.8,-397.66 162,-385 145.97,-379.33 130.17,-369.02 117.65,-359.41"/>
<polygon fill="black" stroke="black" points="119.54,-356.44 109.55,-352.93 115.17,-361.9 119.54,-356.44"/>
</g>
<!-- Errors::invalid_argument -->
<g id="node3" class="node">
<title>Errors::invalid_argument</title>
<ellipse fill="none" stroke="black" cx="559" cy="-117" rx="73.39" ry="18"/>
<text text-anchor="middle" x="559" y="-113.3" font-family="Times,serif" font-size="14.00">invalid_argument</text>
</g>
<!-- rotate_compliance_public_key&#45;&gt;Errors::invalid_argument -->
<g id="edge2" class="edge">
<title>rotate_compliance_public_key&#45;&gt;Errors::invalid_argument</title>
<path fill="none" stroke="black" d="M473.49,-392.74C463.81,-351.94 444.88,-247.49 483,-174 490.61,-159.32 504.03,-147.51 517.5,-138.59"/>
<polygon fill="black" stroke="black" points="519.63,-141.39 526.29,-133.15 515.95,-135.44 519.63,-141.39"/>
</g>
<!-- Errors::not_published -->
<g id="node4" class="node">
<title>Errors::not_published</title>
<ellipse fill="none" stroke="black" cx="711" cy="-117" rx="60.39" ry="18"/>
<text text-anchor="middle" x="711" y="-113.3" font-family="Times,serif" font-size="14.00">not_published</text>
</g>
<!-- rotate_compliance_public_key&#45;&gt;Errors::not_published -->
<g id="edge3" class="edge">
<title>rotate_compliance_public_key&#45;&gt;Errors::not_published</title>
<path fill="none" stroke="black" d="M481.49,-392.65C486.25,-371.8 496.16,-336.35 513,-310 559.18,-237.76 637.63,-172.64 680.61,-140.03"/>
<polygon fill="black" stroke="black" points="682.82,-142.75 688.71,-133.94 678.61,-137.15 682.82,-142.75"/>
</g>
<!-- DiemTimestamp::now_seconds -->
<g id="node5" class="node">
<title>DiemTimestamp::now_seconds</title>
<ellipse fill="none" stroke="black" cx="263" cy="-336" rx="57.69" ry="18"/>
<text text-anchor="middle" x="263" y="-332.3" font-family="Times,serif" font-size="14.00">now_seconds</text>
</g>
<!-- rotate_compliance_public_key&#45;&gt;DiemTimestamp::now_seconds -->
<g id="edge4" class="edge">
<title>rotate_compliance_public_key&#45;&gt;DiemTimestamp::now_seconds</title>
<path fill="none" stroke="black" d="M431.88,-394.34C396.01,-382.16 346.44,-365.33 310.28,-353.05"/>
<polygon fill="black" stroke="black" points="311.06,-349.62 300.46,-349.72 308.81,-356.25 311.06,-349.62"/>
</g>
<!-- Signature::ed25519_validate_pubkey -->
<g id="node6" class="node">
<title>Signature::ed25519_validate_pubkey</title>
<ellipse fill="none" stroke="black" cx="628" cy="-336" rx="103.18" ry="18"/>
<text text-anchor="middle" x="628" y="-332.3" font-family="Times,serif" font-size="14.00">ed25519_validate_pubkey</text>
</g>
<!-- rotate_compliance_public_key&#45;&gt;Signature::ed25519_validate_pubkey -->
<g id="edge5" class="edge">
<title>rotate_compliance_public_key&#45;&gt;Signature::ed25519_validate_pubkey</title>
<path fill="none" stroke="black" d="M511.66,-393.62C533.62,-382.93 562.46,-368.89 585.93,-357.47"/>
<polygon fill="black" stroke="black" points="587.51,-360.6 594.97,-353.08 584.44,-354.31 587.51,-360.6"/>
</g>
<!-- Event::emit_event -->
<g id="node7" class="node">
<title>Event::emit_event</title>
<ellipse fill="none" stroke="black" cx="822" cy="-336" rx="50.09" ry="18"/>
<text text-anchor="middle" x="822" y="-332.3" font-family="Times,serif" font-size="14.00">emit_event</text>
</g>
<!-- rotate_compliance_public_key&#45;&gt;Event::emit_event -->
<g id="edge6" class="edge">
<title>rotate_compliance_public_key&#45;&gt;Event::emit_event</title>
<path fill="none" stroke="black" d="M589.79,-404.45C648.94,-400.53 714.98,-394.29 743,-385 761.04,-379.02 779.29,-368.3 793.71,-358.51"/>
<polygon fill="black" stroke="black" points="795.97,-361.19 802.14,-352.58 791.95,-355.46 795.97,-361.19"/>
</g>
<!-- Signer::borrow_address -->
<g id="node8" class="node">
<title>Signer::borrow_address</title>
<ellipse fill="none" stroke="black" cx="83" cy="-264" rx="66.89" ry="18"/>
<text text-anchor="middle" x="83" y="-260.3" font-family="Times,serif" font-size="14.00">borrow_address</text>
</g>
<!-- Signer::address_of&#45;&gt;Signer::borrow_address -->
<g id="edge7" class="edge">
<title>Signer::address_of&#45;&gt;Signer::borrow_address</title>
<path fill="none" stroke="black" d="M89.78,-317.7C88.78,-309.98 87.59,-300.71 86.49,-292.11"/>
<polygon fill="black" stroke="black" points="89.95,-291.58 85.2,-282.1 83,-292.47 89.95,-291.58"/>
</g>
<!-- Errors::make -->
<g id="node9" class="node">
<title>Errors::make</title>
<ellipse fill="none" stroke="black" cx="559" cy="-34" rx="30.59" ry="18"/>
<text text-anchor="middle" x="559" y="-30.3" font-family="Times,serif" font-size="14.00">make</text>
</g>
<!-- Errors::invalid_argument&#45;&gt;Errors::make -->
<g id="edge8" class="edge">
<title>Errors::invalid_argument&#45;&gt;Errors::make</title>
<path fill="none" stroke="black" d="M559,-98.82C559,-88.19 559,-74.31 559,-62.2"/>
<polygon fill="black" stroke="black" points="562.5,-62.15 559,-52.15 555.5,-62.15 562.5,-62.15"/>
</g>
<!-- Errors::not_published&#45;&gt;Errors::make -->
<g id="edge9" class="edge">
<title>Errors::not_published&#45;&gt;Errors::make</title>
<path fill="none" stroke="black" d="M682.77,-100.95C656.5,-86.96 617.44,-66.14 590.24,-51.65"/>
<polygon fill="black" stroke="black" points="591.63,-48.42 581.16,-46.81 588.34,-54.6 591.63,-48.42"/>
</g>
<!-- DiemTimestamp::now_microseconds -->
<g id="node10" class="node">
<title>DiemTimestamp::now_microseconds</title>
<ellipse fill="none" stroke="black" cx="253" cy="-264" rx="79.09" ry="18"/>
<text text-anchor="middle" x="253" y="-260.3" font-family="Times,serif" font-size="14.00">now_microseconds</text>
</g>
<!-- DiemTimestamp::now_seconds&#45;&gt;DiemTimestamp::now_microseconds -->
<g id="edge10" class="edge">
<title>DiemTimestamp::now_seconds&#45;&gt;DiemTimestamp::now_microseconds</title>
<path fill="none" stroke="black" d="M260.53,-317.7C259.43,-309.98 258.1,-300.71 256.87,-292.11"/>
<polygon fill="black" stroke="black" points="260.32,-291.51 255.44,-282.1 253.39,-292.5 260.32,-291.51"/>
</g>
<!-- Event::write_to_event_store -->
<g id="node11" class="node">
<title>Event::write_to_event_store</title>
<ellipse fill="none" stroke="black" cx="840" cy="-264" rx="85.29" ry="18"/>
<text text-anchor="middle" x="840" y="-260.3" font-family="Times,serif" font-size="14.00">write_to_event_store</text>
</g>
<!-- Event::emit_event&#45;&gt;Event::write_to_event_store -->
<g id="edge11" class="edge">
<title>Event::emit_event&#45;&gt;Event::write_to_event_store</title>
<path fill="none" stroke="black" d="M826.36,-318.05C828.36,-310.26 830.79,-300.82 833.04,-292.08"/>
<polygon fill="black" stroke="black" points="836.46,-292.83 835.56,-282.28 829.68,-291.09 836.46,-292.83"/>
</g>
<!-- CoreAddresses::DIEM_ROOT_ADDRESS -->
<g id="node12" class="node">
<title>CoreAddresses::DIEM_ROOT_ADDRESS</title>
<ellipse fill="none" stroke="black" cx="196" cy="-34" rx="106.68" ry="18"/>
<text text-anchor="middle" x="196" y="-30.3" font-family="Times,serif" font-size="14.00">DIEM_ROOT_ADDRESS</text>
</g>
<!-- DiemTimestamp::now_microseconds&#45;&gt;CoreAddresses::DIEM_ROOT_ADDRESS -->
<g id="edge12" class="edge">
<title>DiemTimestamp::now_microseconds&#45;&gt;CoreAddresses::DIEM_ROOT_ADDRESS</title>
<path fill="none" stroke="black" d="M223.02,-247.26C209.35,-238.33 194.56,-225.77 187,-210 163.95,-161.94 176.67,-97.69 186.99,-61.93"/>
<polygon fill="black" stroke="black" points="190.38,-62.8 189.94,-52.21 183.69,-60.77 190.38,-62.8"/>
</g>
<!-- DiemTimestamp::assert_operating -->
<g id="node13" class="node">
<title>DiemTimestamp::assert_operating</title>
<ellipse fill="none" stroke="black" cx="264" cy="-192" rx="68.49" ry="18"/>
<text text-anchor="middle" x="264" y="-188.3" font-family="Times,serif" font-size="14.00">assert_operating</text>
</g>
<!-- DiemTimestamp::now_microseconds&#45;&gt;DiemTimestamp::assert_operating -->
<g id="edge13" class="edge">
<title>DiemTimestamp::now_microseconds&#45;&gt;DiemTimestamp::assert_operating</title>
<path fill="none" stroke="black" d="M255.72,-245.7C256.93,-237.98 258.39,-228.71 259.74,-220.11"/>
<polygon fill="black" stroke="black" points="263.22,-220.53 261.31,-210.1 256.3,-219.44 263.22,-220.53"/>
</g>
<!-- Errors::invalid_state -->
<g id="node14" class="node">
<title>Errors::invalid_state</title>
<ellipse fill="none" stroke="black" cx="412" cy="-117" rx="55.79" ry="18"/>
<text text-anchor="middle" x="412" y="-113.3" font-family="Times,serif" font-size="14.00">invalid_state</text>
</g>
<!-- DiemTimestamp::assert_operating&#45;&gt;Errors::invalid_state -->
<g id="edge14" class="edge">
<title>DiemTimestamp::assert_operating&#45;&gt;Errors::invalid_state</title>
<path fill="none" stroke="black" d="M311.49,-178.84C322.42,-175.31 333.82,-171.03 344,-166 358.18,-159 372.66,-149.21 384.6,-140.3"/>
<polygon fill="black" stroke="black" points="386.99,-142.88 392.8,-134.02 382.73,-137.32 386.99,-142.88"/>
</g>
<!-- DiemTimestamp::is_operating -->
<g id="node15" class="node">
<title>DiemTimestamp::is_operating</title>
<ellipse fill="none" stroke="black" cx="257" cy="-117" rx="53.89" ry="18"/>
<text text-anchor="middle" x="257" y="-113.3" font-family="Times,serif" font-size="14.00">is_operating</text>
</g>
<!-- DiemTimestamp::assert_operating&#45;&gt;DiemTimestamp::is_operating -->
<g id="edge15" class="edge">
<title>DiemTimestamp::assert_operating&#45;&gt;DiemTimestamp::is_operating</title>
<path fill="none" stroke="black" d="M262.34,-173.7C261.53,-165.25 260.54,-154.87 259.62,-145.37"/>
<polygon fill="black" stroke="black" points="263.09,-144.8 258.65,-135.18 256.12,-145.46 263.09,-144.8"/>
</g>
<!-- Errors::invalid_state&#45;&gt;Errors::make -->
<g id="edge16" class="edge">
<title>Errors::invalid_state&#45;&gt;Errors::make</title>
<path fill="none" stroke="black" d="M438.96,-101.14C464.32,-87.17 502.23,-66.28 528.64,-51.73"/>
<polygon fill="black" stroke="black" points="530.39,-54.76 537.46,-46.87 527.02,-48.63 530.39,-54.76"/>
</g>
<!-- DiemTimestamp::is_operating&#45;&gt;CoreAddresses::DIEM_ROOT_ADDRESS -->
<g id="edge17" class="edge">
<title>DiemTimestamp::is_operating&#45;&gt;CoreAddresses::DIEM_ROOT_ADDRESS</title>
<path fill="none" stroke="black" d="M244.36,-99.22C235.91,-88 224.64,-73.03 215.1,-60.36"/>
<polygon fill="black" stroke="black" points="217.64,-57.92 208.83,-52.04 212.05,-62.13 217.64,-57.92"/>
</g>
</g>
</svg>
