<?xml version="1.0" encoding="UTF-8" standalone="no"?>
<!DOCTYPE svg PUBLIC "-//W3C//DTD SVG 1.1//EN"
 "http://www.w3.org/Graphics/SVG/1.1/DTD/svg11.dtd">
<!-- Generated by graphviz version 2.46.1 (20210213.1702)
 -->
<!-- Title: G Pages: 1 -->
<svg width="688pt" height="279pt"
 viewBox="0.00 0.00 688.00 279.00" xmlns="http://www.w3.org/2000/svg" xmlns:xlink="http://www.w3.org/1999/xlink">
<g id="graph0" class="graph" transform="scale(1 1) rotate(0) translate(4 275)">
<title>G</title>
<polygon fill="white" stroke="transparent" points="-4,4 -4,-275 684,-275 684,4 -4,4"/>
<g id="clust1" class="cluster">
<title>cluster_Vector</title>
<polygon fill="none" stroke="black" points="8,-8 8,-227 568,-227 568,-8 8,-8"/>
<text text-anchor="middle" x="288" y="-211.8" font-family="Times,serif" font-size="14.00">Vector</text>
</g>
<g id="clust2" class="cluster">
<title>cluster_BCS</title>
<polygon fill="none" stroke="black" points="576,-152 576,-227 672,-227 672,-152 576,-152"/>
<text text-anchor="middle" x="624" y="-211.8" font-family="Times,serif" font-size="14.00">BCS</text>
</g>
<!-- dual_attestation_message -->
<g id="node1" class="node">
<title>dual_attestation_message</title>
<ellipse fill="none" stroke="black" cx="522" cy="-253" rx="100.98" ry="18"/>
<text text-anchor="middle" x="522" y="-249.3" font-family="Times,serif" font-size="14.00">dual_attestation_message</text>
</g>
<!-- Vector::append -->
<g id="node2" class="node">
<title>Vector::append</title>
<ellipse fill="none" stroke="black" cx="366" cy="-178" rx="36.29" ry="18"/>
<text text-anchor="middle" x="366" y="-174.3" font-family="Times,serif" font-size="14.00">append</text>
</g>
<!-- dual_attestation_message&#45;&gt;Vector::append -->
<g id="edge1" class="edge">
<title>dual_attestation_message&#45;&gt;Vector::append</title>
<path fill="none" stroke="black" d="M487.77,-235.98C461.88,-223.87 426.5,-207.31 400.54,-195.16"/>
<polygon fill="black" stroke="black" points="401.98,-191.97 391.44,-190.91 399.02,-198.31 401.98,-191.97"/>
</g>
<!-- BCS::to_bytes -->
<g id="node3" class="node">
<title>BCS::to_bytes</title>
<ellipse fill="none" stroke="black" cx="624" cy="-178" rx="40.09" ry="18"/>
<text text-anchor="middle" x="624" y="-174.3" font-family="Times,serif" font-size="14.00">to_bytes</text>
</g>
<!-- dual_attestation_message&#45;&gt;BCS::to_bytes -->
<g id="edge2" class="edge">
<title>dual_attestation_message&#45;&gt;BCS::to_bytes</title>
<path fill="none" stroke="black" d="M557.15,-236.01C562.27,-233.23 567.37,-230.2 572,-227 582.48,-219.76 592.99,-210.52 601.8,-202.08"/>
<polygon fill="black" stroke="black" points="604.38,-204.45 609.06,-194.94 599.47,-199.46 604.38,-204.45"/>
</g>
<!-- Vector::destroy_empty -->
<g id="node4" class="node">
<title>Vector::destroy_empty</title>
<ellipse fill="none" stroke="black" cx="80" cy="-106" rx="63.89" ry="18"/>
<text text-anchor="middle" x="80" y="-102.3" font-family="Times,serif" font-size="14.00">destroy_empty</text>
</g>
<!-- Vector::append&#45;&gt;Vector::destroy_empty -->
<g id="edge3" class="edge">
<title>Vector::append&#45;&gt;Vector::destroy_empty</title>
<path fill="none" stroke="black" d="M334.02,-169.17C286.21,-157.47 195.4,-135.24 136.31,-120.78"/>
<polygon fill="black" stroke="black" points="136.93,-117.33 126.38,-118.35 135.26,-124.13 136.93,-117.33"/>
</g>
<!-- Vector::is_empty -->
<g id="node5" class="node">
<title>Vector::is_empty</title>
<ellipse fill="none" stroke="black" cx="205" cy="-106" rx="43.59" ry="18"/>
<text text-anchor="middle" x="205" y="-102.3" font-family="Times,serif" font-size="14.00">is_empty</text>
</g>
<!-- Vector::append&#45;&gt;Vector::is_empty -->
<g id="edge4" class="edge">
<title>Vector::append&#45;&gt;Vector::is_empty</title>
<path fill="none" stroke="black" d="M339.41,-165.44C313.14,-154.02 272.69,-136.43 243.02,-123.53"/>
<polygon fill="black" stroke="black" points="244.37,-120.3 233.8,-119.52 241.58,-126.72 244.37,-120.3"/>
</g>
<!-- Vector::pop_back -->
<g id="node6" class="node">
<title>Vector::pop_back</title>
<ellipse fill="none" stroke="black" cx="311" cy="-106" rx="44.69" ry="18"/>
<text text-anchor="middle" x="311" y="-102.3" font-family="Times,serif" font-size="14.00">pop_back</text>
</g>
<!-- Vector::append&#45;&gt;Vector::pop_back -->
<g id="edge5" class="edge">
<title>Vector::append&#45;&gt;Vector::pop_back</title>
<path fill="none" stroke="black" d="M353.24,-160.76C346.47,-152.14 338,-141.36 330.43,-131.73"/>
<polygon fill="black" stroke="black" points="333,-129.33 324.07,-123.63 327.5,-133.66 333,-129.33"/>
</g>
<!-- Vector::push_back -->
<g id="node7" class="node">
<title>Vector::push_back</title>
<ellipse fill="none" stroke="black" cx="422" cy="-106" rx="48.19" ry="18"/>
<text text-anchor="middle" x="422" y="-102.3" font-family="Times,serif" font-size="14.00">push_back</text>
</g>
<!-- Vector::append&#45;&gt;Vector::push_back -->
<g id="edge6" class="edge">
<title>Vector::append&#45;&gt;Vector::push_back</title>
<path fill="none" stroke="black" d="M378.71,-161.12C385.67,-152.42 394.44,-141.45 402.27,-131.66"/>
<polygon fill="black" stroke="black" points="405.05,-133.79 408.56,-123.8 399.58,-129.42 405.05,-133.79"/>
</g>
<!-- Vector::reverse -->
<g id="node8" class="node">
<title>Vector::reverse</title>
<ellipse fill="none" stroke="black" cx="524" cy="-106" rx="36.29" ry="18"/>
<text text-anchor="middle" x="524" y="-102.3" font-family="Times,serif" font-size="14.00">reverse</text>
</g>
<!-- Vector::append&#45;&gt;Vector::reverse -->
<g id="edge7" class="edge">
<title>Vector::append&#45;&gt;Vector::reverse</title>
<path fill="none" stroke="black" d="M392.09,-165.44C418.39,-153.79 459.17,-135.72 488.43,-122.76"/>
<polygon fill="black" stroke="black" points="490.15,-125.83 497.87,-118.58 487.31,-119.43 490.15,-125.83"/>
</g>
<!-- Vector::length -->
<g id="node9" class="node">
<title>Vector::length</title>
<ellipse fill="none" stroke="black" cx="325" cy="-34" rx="32.49" ry="18"/>
<text text-anchor="middle" x="325" y="-30.3" font-family="Times,serif" font-size="14.00">length</text>
</g>
<!-- Vector::is_empty&#45;&gt;Vector::length -->
<g id="edge8" class="edge">
<title>Vector::is_empty&#45;&gt;Vector::length</title>
<path fill="none" stroke="black" d="M229.28,-90.83C248.05,-79.89 274.15,-64.66 294.35,-52.88"/>
<polygon fill="black" stroke="black" points="296.3,-55.79 303.17,-47.73 292.77,-49.75 296.3,-55.79"/>
</g>
<!-- Vector::reverse&#45;&gt;Vector::length -->
<g id="edge9" class="edge">
<title>Vector::reverse&#45;&gt;Vector::length</title>
<path fill="none" stroke="black" d="M495.96,-94.26C490.36,-92.15 484.5,-89.98 479,-88 439.04,-73.58 392.94,-57.83 361.67,-47.28"/>
<polygon fill="black" stroke="black" points="362.66,-43.92 352.07,-44.04 360.43,-50.55 362.66,-43.92"/>
</g>
<!-- Vector::swap -->
<g id="node10" class="node">
<title>Vector::swap</title>
<ellipse fill="none" stroke="black" cx="524" cy="-34" rx="28.7" ry="18"/>
<text text-anchor="middle" x="524" y="-30.3" font-family="Times,serif" font-size="14.00">swap</text>
</g>
<!-- Vector::reverse&#45;&gt;Vector::swap -->
<g id="edge10" class="edge">
<title>Vector::reverse&#45;&gt;Vector::swap</title>
<path fill="none" stroke="black" d="M524,-87.7C524,-79.98 524,-70.71 524,-62.11"/>
<polygon fill="black" stroke="black" points="527.5,-62.1 524,-52.1 520.5,-62.1 527.5,-62.1"/>
</g>
</g>
</svg>
