<?xml version="1.0" encoding="UTF-8" standalone="no"?>
<!DOCTYPE svg PUBLIC "-//W3C//DTD SVG 1.1//EN"
 "http://www.w3.org/Graphics/SVG/1.1/DTD/svg11.dtd">
<!-- Generated by graphviz version 2.46.1 (20210213.1702)
 -->
<!-- Title: G Pages: 1 -->
<svg width="198pt" height="207pt"
 viewBox="0.00 0.00 197.78 207.00" xmlns="http://www.w3.org/2000/svg" xmlns:xlink="http://www.w3.org/1999/xlink">
<g id="graph0" class="graph" transform="scale(1 1) rotate(0) translate(4 203)">
<title>G</title>
<polygon fill="white" stroke="transparent" points="-4,4 -4,-203 193.78,-203 193.78,4 -4,4"/>
<g id="clust1" class="cluster">
<title>cluster_Errors</title>
<polygon fill="none" stroke="black" points="26.89,-8 26.89,-155 162.89,-155 162.89,-8 26.89,-8"/>
<text text-anchor="middle" x="94.89" y="-139.8" font-family="Times,serif" font-size="14.00">Errors</text>
</g>
<!-- compliance_public_key -->
<g id="node1" class="node">
<title>compliance_public_key</title>
<ellipse fill="none" stroke="black" cx="94.89" cy="-181" rx="94.78" ry="18"/>
<text text-anchor="middle" x="94.89" y="-177.3" font-family="Times,serif" font-size="14.00">compliance_public_key</text>
</g>
<!-- Errors::not_published -->
<g id="node2" class="node">
<title>Errors::not_published</title>
<ellipse fill="none" stroke="black" cx="94.89" cy="-106" rx="60.39" ry="18"/>
<text text-anchor="middle" x="94.89" y="-102.3" font-family="Times,serif" font-size="14.00">not_published</text>
</g>
<!-- compliance_public_key&#45;&gt;Errors::not_published -->
<g id="edge1" class="edge">
<title>compliance_public_key&#45;&gt;Errors::not_published</title>
<path fill="none" stroke="black" d="M94.89,-162.7C94.89,-154.25 94.89,-143.87 94.89,-134.37"/>
<polygon fill="black" stroke="black" points="98.39,-134.18 94.89,-124.18 91.39,-134.18 98.39,-134.18"/>
</g>
<!-- Errors::make -->
<g id="node3" class="node">
<title>Errors::make</title>
<ellipse fill="none" stroke="black" cx="94.89" cy="-34" rx="30.59" ry="18"/>
<text text-anchor="middle" x="94.89" y="-30.3" font-family="Times,serif" font-size="14.00">make</text>
</g>
<!-- Errors::not_published&#45;&gt;Errors::make -->
<g id="edge2" class="edge">
<title>Errors::not_published&#45;&gt;Errors::make</title>
<path fill="none" stroke="black" d="M94.89,-87.7C94.89,-79.98 94.89,-70.71 94.89,-62.11"/>
<polygon fill="black" stroke="black" points="98.39,-62.1 94.89,-52.1 91.39,-62.1 98.39,-62.1"/>
</g>
</g>
</svg>
