<?xml version="1.0" encoding="UTF-8" standalone="no"?>
<!DOCTYPE svg PUBLIC "-//W3C//DTD SVG 1.1//EN"
 "http://www.w3.org/Graphics/SVG/1.1/DTD/svg11.dtd">
<!-- Generated by graphviz version 2.46.1 (20210213.1702)
 -->
<!-- Title: G Pages: 1 -->
<svg width="1833pt" height="445pt"
 viewBox="0.00 0.00 1832.87 445.00" xmlns="http://www.w3.org/2000/svg" xmlns:xlink="http://www.w3.org/1999/xlink">
<g id="graph0" class="graph" transform="scale(1 1) rotate(0) translate(4 441)">
<title>G</title>
<polygon fill="white" stroke="transparent" points="-4,4 -4,-441 1828.87,-441 1828.87,4 -4,4"/>
<g id="clust1" class="cluster">
<title>cluster_Signer</title>
<polygon fill="none" stroke="black" points="390.87,-152 390.87,-310 540.87,-310 540.87,-152 390.87,-152"/>
<text text-anchor="middle" x="465.87" y="-294.8" font-family="Times,serif" font-size="14.00">Signer</text>
</g>
<g id="clust2" class="cluster">
<title>cluster_Errors</title>
<polygon fill="none" stroke="black" points="548.87,-152 548.87,-310 1144.87,-310 1144.87,-152 548.87,-152"/>
<text text-anchor="middle" x="846.87" y="-294.8" font-family="Times,serif" font-size="14.00">Errors</text>
</g>
<g id="clust3" class="cluster">
<title>cluster_Roles</title>
<polygon fill="none" stroke="black" points="458.87,-318 458.87,-393 1024.87,-393 1024.87,-318 458.87,-318"/>
<text text-anchor="middle" x="741.87" y="-377.8" font-family="Times,serif" font-size="14.00">Roles</text>
</g>
<g id="clust4" class="cluster">
<title>cluster_Vector</title>
<polygon fill="none" stroke="black" points="1152.87,-8 1152.87,-227 1712.87,-227 1712.87,-8 1152.87,-8"/>
<text text-anchor="middle" x="1432.87" y="-211.8" font-family="Times,serif" font-size="14.00">Vector</text>
</g>
<g id="clust5" class="cluster">
<title>cluster_Event</title>
<polygon fill="none" stroke="black" points="1152.87,-235 1152.87,-393 1322.87,-393 1322.87,-235 1152.87,-235"/>
<text text-anchor="middle" x="1237.87" y="-377.8" font-family="Times,serif" font-size="14.00">Event</text>
</g>
<g id="clust6" class="cluster">
<title>cluster_CoreAddresses</title>
<polygon fill="none" stroke="black" points="40.87,-235 40.87,-393 382.87,-393 382.87,-235 40.87,-235"/>
<text text-anchor="middle" x="211.87" y="-377.8" font-family="Times,serif" font-size="14.00">CoreAddresses</text>
</g>
<g id="clust7" class="cluster">
<title>cluster_BCS</title>
<polygon fill="none" stroke="black" points="1720.87,-152 1720.87,-227 1816.87,-227 1816.87,-152 1720.87,-152"/>
<text text-anchor="middle" x="1768.87" y="-211.8" font-family="Times,serif" font-size="14.00">BCS</text>
</g>
<!-- publish_credential -->
<g id="node1" class="node">
<title>publish_credential</title>
<ellipse fill="none" stroke="black" cx="765.87" cy="-419" rx="75.29" ry="18"/>
<text text-anchor="middle" x="765.87" y="-415.3" font-family="Times,serif" font-size="14.00">publish_credential</text>
</g>
<!-- Signer::address_of -->
<g id="node2" class="node">
<title>Signer::address_of</title>
<ellipse fill="none" stroke="black" cx="474.87" cy="-261" rx="48.99" ry="18"/>
<text text-anchor="middle" x="474.87" y="-257.3" font-family="Times,serif" font-size="14.00">address_of</text>
</g>
<!-- publish_credential&#45;&gt;Signer::address_of -->
<g id="edge1" class="edge">
<title>publish_credential&#45;&gt;Signer::address_of</title>
<path fill="none" stroke="black" d="M690.6,-417.18C603.67,-415.44 470.55,-409.99 454.87,-393 428.8,-364.75 445.29,-317.56 459.88,-288.2"/>
<polygon fill="black" stroke="black" points="463.17,-289.46 464.7,-278.97 456.97,-286.22 463.17,-289.46"/>
</g>
<!-- Errors::already_published -->
<g id="node3" class="node">
<title>Errors::already_published</title>
<ellipse fill="none" stroke="black" cx="1061.87" cy="-261" rx="75.29" ry="18"/>
<text text-anchor="middle" x="1061.87" y="-257.3" font-family="Times,serif" font-size="14.00">already_published</text>
</g>
<!-- publish_credential&#45;&gt;Errors::already_published -->
<g id="edge2" class="edge">
<title>publish_credential&#45;&gt;Errors::already_published</title>
<path fill="none" stroke="black" d="M839.84,-415.29C912.58,-411.94 1014.74,-405.14 1028.87,-393 1058.51,-367.56 1063.55,-319.77 1063.46,-289.49"/>
<polygon fill="black" stroke="black" points="1066.95,-289.11 1063.23,-279.19 1059.95,-289.27 1066.95,-289.11"/>
</g>
<!-- Roles::assert_treasury_compliance -->
<g id="node4" class="node">
<title>Roles::assert_treasury_compliance</title>
<ellipse fill="none" stroke="black" cx="907.87" cy="-344" rx="108.58" ry="18"/>
<text text-anchor="middle" x="907.87" y="-340.3" font-family="Times,serif" font-size="14.00">assert_treasury_compliance</text>
</g>
<!-- publish_credential&#45;&gt;Roles::assert_treasury_compliance -->
<g id="edge3" class="edge">
<title>publish_credential&#45;&gt;Roles::assert_treasury_compliance</title>
<path fill="none" stroke="black" d="M796.34,-402.34C816.96,-391.74 844.46,-377.6 866.99,-366.02"/>
<polygon fill="black" stroke="black" points="868.69,-369.08 875.98,-361.39 865.49,-362.85 868.69,-369.08"/>
</g>
<!-- Roles::assert_parent_vasp_or_designated_dealer -->
<g id="node5" class="node">
<title>Roles::assert_parent_vasp_or_designated_dealer</title>
<ellipse fill="none" stroke="black" cx="623.87" cy="-344" rx="157.07" ry="18"/>
<text text-anchor="middle" x="623.87" y="-340.3" font-family="Times,serif" font-size="14.00">assert_parent_vasp_or_designated_dealer</text>
</g>
<!-- publish_credential&#45;&gt;Roles::assert_parent_vasp_or_designated_dealer -->
<g id="edge4" class="edge">
<title>publish_credential&#45;&gt;Roles::assert_parent_vasp_or_designated_dealer</title>
<path fill="none" stroke="black" d="M735.41,-402.34C714.93,-391.81 687.67,-377.8 665.23,-366.26"/>
<polygon fill="black" stroke="black" points="666.75,-363.11 656.26,-361.65 663.55,-369.33 666.75,-363.11"/>
</g>
<!-- Vector::empty -->
<g id="node6" class="node">
<title>Vector::empty</title>
<ellipse fill="none" stroke="black" cx="1193.87" cy="-178" rx="33.29" ry="18"/>
<text text-anchor="middle" x="1193.87" y="-174.3" font-family="Times,serif" font-size="14.00">empty</text>
</g>
<!-- publish_credential&#45;&gt;Vector::empty -->
<g id="edge5" class="edge">
<title>publish_credential&#45;&gt;Vector::empty</title>
<path fill="none" stroke="black" d="M690.3,-418.2C508.36,-418.31 59.3,-416.21 36.87,-393 -11.92,-342.5 -12.6,-284.83 36.87,-235 47.76,-224.04 1134.72,-233.19 1148.87,-227 1160.25,-222.02 1170.08,-212.62 1177.63,-203.44"/>
<polygon fill="black" stroke="black" points="1180.62,-205.29 1183.89,-195.21 1175.05,-201.05 1180.62,-205.29"/>
</g>
<!-- Event::new_event_handle -->
<g id="node7" class="node">
<title>Event::new_event_handle</title>
<ellipse fill="none" stroke="black" cx="1237.87" cy="-344" rx="76.89" ry="18"/>
<text text-anchor="middle" x="1237.87" y="-340.3" font-family="Times,serif" font-size="14.00">new_event_handle</text>
</g>
<!-- publish_credential&#45;&gt;Event::new_event_handle -->
<g id="edge6" class="edge">
<title>publish_credential&#45;&gt;Event::new_event_handle</title>
<path fill="none" stroke="black" d="M840.3,-415.77C901.53,-412.99 990.37,-406.78 1066.87,-393 1107.61,-385.66 1152.65,-372.82 1186.27,-362.26"/>
<polygon fill="black" stroke="black" points="1187.41,-365.57 1195.88,-359.21 1185.29,-358.9 1187.41,-365.57"/>
</g>
<!-- Signer::borrow_address -->
<g id="node8" class="node">
<title>Signer::borrow_address</title>
<ellipse fill="none" stroke="black" cx="465.87" cy="-178" rx="66.89" ry="18"/>
<text text-anchor="middle" x="465.87" y="-174.3" font-family="Times,serif" font-size="14.00">borrow_address</text>
</g>
<!-- Signer::address_of&#45;&gt;Signer::borrow_address -->
<g id="edge7" class="edge">
<title>Signer::address_of&#45;&gt;Signer::borrow_address</title>
<path fill="none" stroke="black" d="M472.96,-242.82C471.78,-232.19 470.24,-218.31 468.9,-206.2"/>
<polygon fill="black" stroke="black" points="472.36,-205.71 467.78,-196.15 465.4,-206.48 472.36,-205.71"/>
</g>
<!-- Errors::make -->
<g id="node9" class="node">
<title>Errors::make</title>
<ellipse fill="none" stroke="black" cx="839.87" cy="-178" rx="30.59" ry="18"/>
<text text-anchor="middle" x="839.87" y="-174.3" font-family="Times,serif" font-size="14.00">make</text>
</g>
<!-- Errors::already_published&#45;&gt;Errors::make -->
<g id="edge8" class="edge">
<title>Errors::already_published&#45;&gt;Errors::make</title>
<path fill="none" stroke="black" d="M1022.44,-245.61C980.51,-230.32 914.84,-206.35 874.75,-191.72"/>
<polygon fill="black" stroke="black" points="875.73,-188.36 865.13,-188.22 873.33,-194.93 875.73,-188.36"/>
</g>
<!-- Roles::assert_treasury_compliance&#45;&gt;Signer::address_of -->
<g id="edge9" class="edge">
<title>Roles::assert_treasury_compliance&#45;&gt;Signer::address_of</title>
<path fill="none" stroke="black" d="M850.3,-328.68C831.19,-324.5 809.73,-320.41 789.87,-318 762.83,-314.72 570.75,-318.49 544.87,-310 528.6,-304.67 512.68,-294.29 500.15,-284.54"/>
<polygon fill="black" stroke="black" points="502.02,-281.55 492.05,-277.96 497.6,-286.98 502.02,-281.55"/>
</g>
<!-- Errors::not_published -->
<g id="node10" class="node">
<title>Errors::not_published</title>
<ellipse fill="none" stroke="black" cx="907.87" cy="-261" rx="60.39" ry="18"/>
<text text-anchor="middle" x="907.87" y="-257.3" font-family="Times,serif" font-size="14.00">not_published</text>
</g>
<!-- Roles::assert_treasury_compliance&#45;&gt;Errors::not_published -->
<g id="edge10" class="edge">
<title>Roles::assert_treasury_compliance&#45;&gt;Errors::not_published</title>
<path fill="none" stroke="black" d="M907.87,-325.82C907.87,-315.19 907.87,-301.31 907.87,-289.2"/>
<polygon fill="black" stroke="black" points="911.37,-289.15 907.87,-279.15 904.37,-289.15 911.37,-289.15"/>
</g>
<!-- Errors::requires_role -->
<g id="node11" class="node">
<title>Errors::requires_role</title>
<ellipse fill="none" stroke="black" cx="771.87" cy="-261" rx="57.39" ry="18"/>
<text text-anchor="middle" x="771.87" y="-257.3" font-family="Times,serif" font-size="14.00">requires_role</text>
</g>
<!-- Roles::assert_treasury_compliance&#45;&gt;Errors::requires_role -->
<g id="edge11" class="edge">
<title>Roles::assert_treasury_compliance&#45;&gt;Errors::requires_role</title>
<path fill="none" stroke="black" d="M871.44,-327.04C860.74,-321.97 849.16,-316.08 838.87,-310 825.69,-302.21 811.82,-292.54 800.14,-283.93"/>
<polygon fill="black" stroke="black" points="802.17,-281.08 792.07,-277.89 797.98,-286.68 802.17,-281.08"/>
</g>
<!-- CoreAddresses::assert_treasury_compliance -->
<g id="node12" class="node">
<title>CoreAddresses::assert_treasury_compliance</title>
<ellipse fill="none" stroke="black" cx="265.87" cy="-344" rx="108.58" ry="18"/>
<text text-anchor="middle" x="265.87" y="-340.3" font-family="Times,serif" font-size="14.00">assert_treasury_compliance</text>
</g>
<!-- Roles::assert_treasury_compliance&#45;&gt;CoreAddresses::assert_treasury_compliance -->
<g id="edge12" class="edge">
<title>Roles::assert_treasury_compliance&#45;&gt;CoreAddresses::assert_treasury_compliance</title>
<path fill="none" stroke="black" d="M876.37,-361.28C851.32,-373.99 814.96,-390.17 780.87,-397 763.61,-400.46 481.33,-399.3 463.87,-397 415.25,-390.6 361.59,-375.73 322.41,-363.37"/>
<polygon fill="black" stroke="black" points="323.37,-360 312.78,-360.28 321.24,-366.67 323.37,-360"/>
</g>
<!-- Roles::assert_parent_vasp_or_designated_dealer&#45;&gt;Signer::address_of -->
<g id="edge13" class="edge">
<title>Roles::assert_parent_vasp_or_designated_dealer&#45;&gt;Signer::address_of</title>
<path fill="none" stroke="black" d="M580.07,-326.58C568.41,-321.71 555.97,-316.04 544.87,-310 530.57,-302.22 515.57,-292.21 503.15,-283.35"/>
<polygon fill="black" stroke="black" points="505.14,-280.47 494.99,-277.44 501.04,-286.14 505.14,-280.47"/>
</g>
<!-- Roles::assert_parent_vasp_or_designated_dealer&#45;&gt;Errors::not_published -->
<g id="edge14" class="edge">
<title>Roles::assert_parent_vasp_or_designated_dealer&#45;&gt;Errors::not_published</title>
<path fill="none" stroke="black" d="M715.52,-329.33C772.23,-320.79 834.84,-311.2 837.87,-310 853.35,-303.87 868.79,-293.81 881.22,-284.48"/>
<polygon fill="black" stroke="black" points="883.56,-287.09 889.31,-278.19 879.26,-281.56 883.56,-287.09"/>
</g>
<!-- Roles::assert_parent_vasp_or_designated_dealer&#45;&gt;Errors::requires_role -->
<g id="edge15" class="edge">
<title>Roles::assert_parent_vasp_or_designated_dealer&#45;&gt;Errors::requires_role</title>
<path fill="none" stroke="black" d="M669.91,-326.78C681.89,-321.94 694.6,-316.24 705.87,-310 719.24,-302.6 733.05,-292.92 744.57,-284.19"/>
<polygon fill="black" stroke="black" points="746.74,-286.93 752.51,-278.05 742.46,-281.4 746.74,-286.93"/>
</g>
<!-- Event::new_event_handle&#45;&gt;Signer::address_of -->
<g id="edge16" class="edge">
<title>Event::new_event_handle&#45;&gt;Signer::address_of</title>
<path fill="none" stroke="black" d="M1174.46,-333.7C1133.11,-328.06 1077.91,-321.33 1028.87,-318 1002.04,-316.18 570.49,-318.17 544.87,-310 528.56,-304.8 512.64,-294.43 500.11,-284.66"/>
<polygon fill="black" stroke="black" points="501.98,-281.66 492.01,-278.06 497.55,-287.09 501.98,-281.66"/>
</g>
<!-- Event::new_event_handle&#45;&gt;Errors::not_published -->
<g id="edge17" class="edge">
<title>Event::new_event_handle&#45;&gt;Errors::not_published</title>
<path fill="none" stroke="black" d="M1170.65,-335.26C1096.64,-326.63 986.83,-313.41 977.87,-310 962.32,-304.08 946.87,-294.04 934.45,-284.67"/>
<polygon fill="black" stroke="black" points="936.41,-281.76 926.38,-278.35 932.09,-287.27 936.41,-281.76"/>
</g>
<!-- Event::fresh_guid -->
<g id="node13" class="node">
<title>Event::fresh_guid</title>
<ellipse fill="none" stroke="black" cx="1266.87" cy="-261" rx="48.19" ry="18"/>
<text text-anchor="middle" x="1266.87" y="-257.3" font-family="Times,serif" font-size="14.00">fresh_guid</text>
</g>
<!-- Event::new_event_handle&#45;&gt;Event::fresh_guid -->
<g id="edge18" class="edge">
<title>Event::new_event_handle&#45;&gt;Event::fresh_guid</title>
<path fill="none" stroke="black" d="M1244.02,-325.82C1247.89,-315.01 1252.97,-300.84 1257.35,-288.59"/>
<polygon fill="black" stroke="black" points="1260.76,-289.47 1260.83,-278.88 1254.17,-287.11 1260.76,-289.47"/>
</g>
<!-- Errors::not_published&#45;&gt;Errors::make -->
<g id="edge19" class="edge">
<title>Errors::not_published&#45;&gt;Errors::make</title>
<path fill="none" stroke="black" d="M893.78,-243.22C883.8,-231.32 870.27,-215.21 859.27,-202.1"/>
<polygon fill="black" stroke="black" points="861.91,-199.8 852.79,-194.39 856.54,-204.3 861.91,-199.8"/>
</g>
<!-- Errors::requires_role&#45;&gt;Errors::make -->
<g id="edge20" class="edge">
<title>Errors::requires_role&#45;&gt;Errors::make</title>
<path fill="none" stroke="black" d="M785.96,-243.22C795.95,-231.32 809.47,-215.21 820.48,-202.1"/>
<polygon fill="black" stroke="black" points="823.2,-204.3 826.95,-194.39 817.84,-199.8 823.2,-204.3"/>
</g>
<!-- CoreAddresses::assert_treasury_compliance&#45;&gt;Signer::address_of -->
<g id="edge21" class="edge">
<title>CoreAddresses::assert_treasury_compliance&#45;&gt;Signer::address_of</title>
<path fill="none" stroke="black" d="M327.72,-329.1C346.98,-323.99 368.09,-317.56 386.87,-310 405.9,-302.34 426.06,-291.56 442.28,-282.15"/>
<polygon fill="black" stroke="black" points="444.5,-284.9 451.33,-276.81 440.94,-278.88 444.5,-284.9"/>
</g>
<!-- Errors::requires_address -->
<g id="node14" class="node">
<title>Errors::requires_address</title>
<ellipse fill="none" stroke="black" cx="626.87" cy="-261" rx="69.59" ry="18"/>
<text text-anchor="middle" x="626.87" y="-257.3" font-family="Times,serif" font-size="14.00">requires_address</text>
</g>
<!-- CoreAddresses::assert_treasury_compliance&#45;&gt;Errors::requires_address -->
<g id="edge22" class="edge">
<title>CoreAddresses::assert_treasury_compliance&#45;&gt;Errors::requires_address</title>
<path fill="none" stroke="black" d="M345.33,-331.72C379.06,-327.13 418.85,-321.98 454.87,-318 494.79,-313.59 506.62,-322.22 544.87,-310 563.09,-304.18 581.63,-293.79 596.46,-284.16"/>
<polygon fill="black" stroke="black" points="598.82,-286.79 605.17,-278.31 594.92,-280.97 598.82,-286.79"/>
</g>
<!-- CoreAddresses::TREASURY_COMPLIANCE_ADDRESS -->
<g id="node15" class="node">
<title>CoreAddresses::TREASURY_COMPLIANCE_ADDRESS</title>
<ellipse fill="none" stroke="black" cx="211.87" cy="-261" rx="163.27" ry="18"/>
<text text-anchor="middle" x="211.87" y="-257.3" font-family="Times,serif" font-size="14.00">TREASURY_COMPLIANCE_ADDRESS</text>
</g>
<!-- CoreAddresses::assert_treasury_compliance&#45;&gt;CoreAddresses::TREASURY_COMPLIANCE_ADDRESS -->
<g id="edge23" class="edge">
<title>CoreAddresses::assert_treasury_compliance&#45;&gt;CoreAddresses::TREASURY_COMPLIANCE_ADDRESS</title>
<path fill="none" stroke="black" d="M254.42,-325.82C247.05,-314.76 237.33,-300.18 229.04,-287.75"/>
<polygon fill="black" stroke="black" points="231.77,-285.53 223.31,-279.15 225.94,-289.42 231.77,-285.53"/>
</g>
<!-- Vector::append -->
<g id="node16" class="node">
<title>Vector::append</title>
<ellipse fill="none" stroke="black" cx="1402.87" cy="-178" rx="36.29" ry="18"/>
<text text-anchor="middle" x="1402.87" y="-174.3" font-family="Times,serif" font-size="14.00">append</text>
</g>
<!-- Event::fresh_guid&#45;&gt;Vector::append -->
<g id="edge24" class="edge">
<title>Event::fresh_guid&#45;&gt;Vector::append</title>
<path fill="none" stroke="black" d="M1291.5,-245.33C1313.9,-231.99 1347.07,-212.23 1371.39,-197.75"/>
<polygon fill="black" stroke="black" points="1373.43,-200.61 1380.24,-192.48 1369.85,-194.59 1373.43,-200.61"/>
</g>
<!-- BCS::to_bytes -->
<g id="node17" class="node">
<title>BCS::to_bytes</title>
<ellipse fill="none" stroke="black" cx="1768.87" cy="-178" rx="40.09" ry="18"/>
<text text-anchor="middle" x="1768.87" y="-174.3" font-family="Times,serif" font-size="14.00">to_bytes</text>
</g>
<!-- Event::fresh_guid&#45;&gt;BCS::to_bytes -->
<g id="edge25" class="edge">
<title>Event::fresh_guid&#45;&gt;BCS::to_bytes</title>
<path fill="none" stroke="black" d="M1315.13,-260.44C1416.02,-260.72 1645.82,-257.82 1716.87,-227 1729.2,-221.65 1740.49,-212.11 1749.37,-202.94"/>
<polygon fill="black" stroke="black" points="1752.08,-205.16 1756.24,-195.42 1746.91,-200.44 1752.08,-205.16"/>
</g>
<!-- Errors::requires_address&#45;&gt;Errors::make -->
<g id="edge26" class="edge">
<title>Errors::requires_address&#45;&gt;Errors::make</title>
<path fill="none" stroke="black" d="M664.46,-245.71C704.26,-230.57 766.55,-206.88 805.21,-192.18"/>
<polygon fill="black" stroke="black" points="806.86,-195.3 814.97,-188.47 804.38,-188.75 806.86,-195.3"/>
</g>
<!-- Vector::destroy_empty -->
<g id="node18" class="node">
<title>Vector::destroy_empty</title>
<ellipse fill="none" stroke="black" cx="1224.87" cy="-106" rx="63.89" ry="18"/>
<text text-anchor="middle" x="1224.87" y="-102.3" font-family="Times,serif" font-size="14.00">destroy_empty</text>
</g>
<!-- Vector::append&#45;&gt;Vector::destroy_empty -->
<g id="edge27" class="edge">
<title>Vector::append&#45;&gt;Vector::destroy_empty</title>
<path fill="none" stroke="black" d="M1375.06,-166.06C1346.94,-155 1303.02,-137.73 1269.92,-124.72"/>
<polygon fill="black" stroke="black" points="1271.05,-121.4 1260.47,-121 1268.49,-127.91 1271.05,-121.4"/>
</g>
<!-- Vector::is_empty -->
<g id="node19" class="node">
<title>Vector::is_empty</title>
<ellipse fill="none" stroke="black" cx="1349.87" cy="-106" rx="43.59" ry="18"/>
<text text-anchor="middle" x="1349.87" y="-102.3" font-family="Times,serif" font-size="14.00">is_empty</text>
</g>
<!-- Vector::append&#45;&gt;Vector::is_empty -->
<g id="edge28" class="edge">
<title>Vector::append&#45;&gt;Vector::is_empty</title>
<path fill="none" stroke="black" d="M1390.58,-160.76C1384.05,-152.14 1375.89,-141.36 1368.59,-131.73"/>
<polygon fill="black" stroke="black" points="1371.29,-129.49 1362.47,-123.63 1365.71,-133.72 1371.29,-129.49"/>
</g>
<!-- Vector::pop_back -->
<g id="node20" class="node">
<title>Vector::pop_back</title>
<ellipse fill="none" stroke="black" cx="1455.87" cy="-106" rx="44.69" ry="18"/>
<text text-anchor="middle" x="1455.87" y="-102.3" font-family="Times,serif" font-size="14.00">pop_back</text>
</g>
<!-- Vector::append&#45;&gt;Vector::pop_back -->
<g id="edge29" class="edge">
<title>Vector::append&#45;&gt;Vector::pop_back</title>
<path fill="none" stroke="black" d="M1415.17,-160.76C1421.69,-152.14 1429.85,-141.36 1437.15,-131.73"/>
<polygon fill="black" stroke="black" points="1440.03,-133.72 1443.28,-123.63 1434.45,-129.49 1440.03,-133.72"/>
</g>
<!-- Vector::push_back -->
<g id="node21" class="node">
<title>Vector::push_back</title>
<ellipse fill="none" stroke="black" cx="1566.87" cy="-106" rx="48.19" ry="18"/>
<text text-anchor="middle" x="1566.87" y="-102.3" font-family="Times,serif" font-size="14.00">push_back</text>
</g>
<!-- Vector::append&#45;&gt;Vector::push_back -->
<g id="edge30" class="edge">
<title>Vector::append&#45;&gt;Vector::push_back</title>
<path fill="none" stroke="black" d="M1429.59,-165.6C1455.96,-154.34 1496.61,-136.99 1526.84,-124.09"/>
<polygon fill="black" stroke="black" points="1528.44,-127.21 1536.26,-120.07 1525.69,-120.77 1528.44,-127.21"/>
</g>
<!-- Vector::reverse -->
<g id="node22" class="node">
<title>Vector::reverse</title>
<ellipse fill="none" stroke="black" cx="1668.87" cy="-106" rx="36.29" ry="18"/>
<text text-anchor="middle" x="1668.87" y="-102.3" font-family="Times,serif" font-size="14.00">reverse</text>
</g>
<!-- Vector::append&#45;&gt;Vector::reverse -->
<g id="edge31" class="edge">
<title>Vector::append&#45;&gt;Vector::reverse</title>
<path fill="none" stroke="black" d="M1436.17,-170.38C1479.74,-161.41 1558.25,-144.18 1623.87,-124 1626.48,-123.2 1629.15,-122.33 1631.83,-121.41"/>
<polygon fill="black" stroke="black" points="1633.21,-124.64 1641.46,-117.98 1630.86,-118.04 1633.21,-124.64"/>
</g>
<!-- Vector::length -->
<g id="node23" class="node">
<title>Vector::length</title>
<ellipse fill="none" stroke="black" cx="1469.87" cy="-34" rx="32.49" ry="18"/>
<text text-anchor="middle" x="1469.87" y="-30.3" font-family="Times,serif" font-size="14.00">length</text>
</g>
<!-- Vector::is_empty&#45;&gt;Vector::length -->
<g id="edge32" class="edge">
<title>Vector::is_empty&#45;&gt;Vector::length</title>
<path fill="none" stroke="black" d="M1374.16,-90.83C1392.92,-79.89 1419.02,-64.66 1439.23,-52.88"/>
<polygon fill="black" stroke="black" points="1441.17,-55.79 1448.05,-47.73 1437.65,-49.75 1441.17,-55.79"/>
</g>
<!-- Vector::reverse&#45;&gt;Vector::length -->
<g id="edge33" class="edge">
<title>Vector::reverse&#45;&gt;Vector::length</title>
<path fill="none" stroke="black" d="M1640.84,-94.26C1635.23,-92.15 1629.37,-89.98 1623.87,-88 1583.91,-73.58 1537.82,-57.83 1506.55,-47.28"/>
<polygon fill="black" stroke="black" points="1507.54,-43.92 1496.94,-44.04 1505.3,-50.55 1507.54,-43.92"/>
</g>
<!-- Vector::swap -->
<g id="node24" class="node">
<title>Vector::swap</title>
<ellipse fill="none" stroke="black" cx="1668.87" cy="-34" rx="28.7" ry="18"/>
<text text-anchor="middle" x="1668.87" y="-30.3" font-family="Times,serif" font-size="14.00">swap</text>
</g>
<!-- Vector::reverse&#45;&gt;Vector::swap -->
<g id="edge34" class="edge">
<title>Vector::reverse&#45;&gt;Vector::swap</title>
<path fill="none" stroke="black" d="M1668.87,-87.7C1668.87,-79.98 1668.87,-70.71 1668.87,-62.11"/>
<polygon fill="black" stroke="black" points="1672.37,-62.1 1668.87,-52.1 1665.37,-62.1 1672.37,-62.1"/>
</g>
</g>
</svg>
