<?xml version="1.0" encoding="UTF-8" standalone="no"?>
<!DOCTYPE svg PUBLIC "-//W3C//DTD SVG 1.1//EN"
 "http://www.w3.org/Graphics/SVG/1.1/DTD/svg11.dtd">
<!-- Generated by graphviz version 2.46.1 (20210213.1702)
 -->
<!-- Title: G Pages: 1 -->
<svg width="2102pt" height="531pt"
 viewBox="0.00 0.00 2102.00 531.00" xmlns="http://www.w3.org/2000/svg" xmlns:xlink="http://www.w3.org/1999/xlink">
<g id="graph0" class="graph" transform="scale(1 1) rotate(0) translate(4 527)">
<title>G</title>
<polygon fill="white" stroke="transparent" points="-4,4 -4,-527 2098,-527 2098,4 -4,4"/>
<g id="clust1" class="cluster">
<title>cluster_Vector</title>
<polygon fill="none" stroke="black" points="1524,-8 1524,-249 2086,-249 2086,-8 1524,-8"/>
<text text-anchor="middle" x="1805" y="-233.8" font-family="Times,serif" font-size="14.00">Vector</text>
</g>
<g id="clust2" class="cluster">
<title>cluster_Errors</title>
<polygon fill="none" stroke="black" points="520,-8 520,-166 1098,-166 1098,-8 520,-8"/>
<text text-anchor="middle" x="809" y="-150.8" font-family="Times,serif" font-size="14.00">Errors</text>
</g>
<g id="clust3" class="cluster">
<title>cluster_Signature</title>
<polygon fill="none" stroke="black" points="1798,-257 1798,-332 1946,-332 1946,-257 1798,-257"/>
<text text-anchor="middle" x="1872" y="-316.8" font-family="Times,serif" font-size="14.00">Signature</text>
</g>
<g id="clust4" class="cluster">
<title>cluster_Diem</title>
<polygon fill="none" stroke="black" points="199,-91 199,-407 397,-407 397,-91 199,-91"/>
<text text-anchor="middle" x="298" y="-391.8" font-family="Times,serif" font-size="14.00">Diem</text>
</g>
<g id="clust5" class="cluster">
<title>cluster_VASP</title>
<polygon fill="none" stroke="black" points="1106,-91 1106,-249 1342,-249 1342,-91 1106,-91"/>
<text text-anchor="middle" x="1224" y="-233.8" font-family="Times,serif" font-size="14.00">VASP</text>
</g>
<g id="clust6" class="cluster">
<title>cluster_BCS</title>
<polygon fill="none" stroke="black" points="1420,-174 1420,-249 1516,-249 1516,-174 1420,-174"/>
<text text-anchor="middle" x="1468" y="-233.8" font-family="Times,serif" font-size="14.00">BCS</text>
</g>
<g id="clust7" class="cluster">
<title>cluster_FixedPoint32</title>
<polygon fill="none" stroke="black" points="405,-174 405,-249 537,-249 537,-174 405,-174"/>
<text text-anchor="middle" x="471" y="-233.8" font-family="Times,serif" font-size="14.00">FixedPoint32</text>
</g>
<g id="clust8" class="cluster">
<title>cluster_CoreAddresses</title>
<polygon fill="none" stroke="black" points="8,-8 8,-83 512,-83 512,-8 8,-8"/>
<text text-anchor="middle" x="260" y="-67.8" font-family="Times,serif" font-size="14.00">CoreAddresses</text>
</g>
<!-- assert_payment_ok -->
<g id="node1" class="node">
<title>assert_payment_ok</title>
<ellipse fill="none" stroke="black" cx="1266" cy="-505" rx="79.09" ry="18"/>
<text text-anchor="middle" x="1266" y="-501.3" font-family="Times,serif" font-size="14.00">assert_payment_ok</text>
</g>
<!-- Vector::is_empty -->
<g id="node2" class="node">
<title>Vector::is_empty</title>
<ellipse fill="none" stroke="black" cx="2034" cy="-117" rx="43.59" ry="18"/>
<text text-anchor="middle" x="2034" y="-113.3" font-family="Times,serif" font-size="14.00">is_empty</text>
</g>
<!-- assert_payment_ok&#45;&gt;Vector::is_empty -->
<g id="edge1" class="edge">
<title>assert_payment_ok&#45;&gt;Vector::is_empty</title>
<path fill="none" stroke="black" d="M1345.6,-504.88C1535.61,-504.85 2000,-491.25 2000,-359 2000,-359 2000,-359 2000,-282 2000,-232.67 2014.93,-176.7 2025,-144.56"/>
<polygon fill="black" stroke="black" points="2028.35,-145.59 2028.08,-135 2021.68,-143.44 2028.35,-145.59"/>
</g>
<!-- assert_signature_is_valid -->
<g id="node3" class="node">
<title>assert_signature_is_valid</title>
<ellipse fill="none" stroke="black" cx="1266" cy="-358" rx="99.38" ry="18"/>
<text text-anchor="middle" x="1266" y="-354.3" font-family="Times,serif" font-size="14.00">assert_signature_is_valid</text>
</g>
<!-- assert_payment_ok&#45;&gt;assert_signature_is_valid -->
<g id="edge2" class="edge">
<title>assert_payment_ok&#45;&gt;assert_signature_is_valid</title>
<path fill="none" stroke="black" d="M1266,-486.8C1266,-461.94 1266,-415.74 1266,-386.23"/>
<polygon fill="black" stroke="black" points="1269.5,-386.18 1266,-376.18 1262.5,-386.18 1269.5,-386.18"/>
</g>
<!-- dual_attestation_required -->
<g id="node4" class="node">
<title>dual_attestation_required</title>
<ellipse fill="none" stroke="black" cx="1071" cy="-433" rx="100.18" ry="18"/>
<text text-anchor="middle" x="1071" y="-429.3" font-family="Times,serif" font-size="14.00">dual_attestation_required</text>
</g>
<!-- assert_payment_ok&#45;&gt;dual_attestation_required -->
<g id="edge3" class="edge">
<title>assert_payment_ok&#45;&gt;dual_attestation_required</title>
<path fill="none" stroke="black" d="M1225.6,-489.5C1195.97,-478.86 1155.5,-464.33 1123.39,-452.81"/>
<polygon fill="black" stroke="black" points="1124.31,-449.42 1113.72,-449.33 1121.95,-456.01 1124.31,-449.42"/>
</g>
<!-- Vector::length -->
<g id="node5" class="node">
<title>Vector::length</title>
<ellipse fill="none" stroke="black" cx="1674" cy="-34" rx="32.49" ry="18"/>
<text text-anchor="middle" x="1674" y="-30.3" font-family="Times,serif" font-size="14.00">length</text>
</g>
<!-- Vector::is_empty&#45;&gt;Vector::length -->
<g id="edge4" class="edge">
<title>Vector::is_empty&#45;&gt;Vector::length</title>
<path fill="none" stroke="black" d="M2009.7,-101.98C2000.94,-97.62 1990.79,-93.35 1981,-91 1952.25,-84.1 1741.66,-95.78 1715,-83 1704.51,-77.97 1695.68,-68.87 1688.93,-59.93"/>
<polygon fill="black" stroke="black" points="1691.68,-57.77 1683.1,-51.55 1685.93,-61.76 1691.68,-57.77"/>
</g>
<!-- assert_signature_is_valid&#45;&gt;Vector::is_empty -->
<g id="edge8" class="edge">
<title>assert_signature_is_valid&#45;&gt;Vector::is_empty</title>
<path fill="none" stroke="black" d="M1364.16,-354.67C1456.9,-351.69 1589.05,-345.26 1639,-332 1640.28,-331.66 1979.91,-166.74 1981,-166 1991.66,-158.8 2002.38,-149.56 2011.36,-141.12"/>
<polygon fill="black" stroke="black" points="2013.99,-143.44 2018.76,-133.97 2009.13,-138.4 2013.99,-143.44"/>
</g>
<!-- assert_signature_is_valid&#45;&gt;Vector::length -->
<g id="edge9" class="edge">
<title>assert_signature_is_valid&#45;&gt;Vector::length</title>
<path fill="none" stroke="black" d="M1331.87,-344.29C1338.83,-341.07 1345.4,-337.04 1351,-332 1407.42,-281.18 1370.01,-234.42 1416,-174 1452.46,-126.11 1470.4,-120.25 1523,-91 1559.27,-70.83 1604.25,-55.22 1635.64,-45.67"/>
<polygon fill="black" stroke="black" points="1636.74,-48.99 1645.32,-42.78 1634.74,-42.29 1636.74,-48.99"/>
</g>
<!-- Errors::invalid_argument -->
<g id="node6" class="node">
<title>Errors::invalid_argument</title>
<ellipse fill="none" stroke="black" cx="1017" cy="-117" rx="73.39" ry="18"/>
<text text-anchor="middle" x="1017" y="-113.3" font-family="Times,serif" font-size="14.00">invalid_argument</text>
</g>
<!-- assert_signature_is_valid&#45;&gt;Errors::invalid_argument -->
<g id="edge5" class="edge">
<title>assert_signature_is_valid&#45;&gt;Errors::invalid_argument</title>
<path fill="none" stroke="black" d="M1205.78,-343.61C1197.14,-340.47 1188.61,-336.65 1181,-332 1137.53,-305.46 1133.55,-288.98 1102,-249 1074.81,-214.54 1048.01,-171.27 1031.99,-144.12"/>
<polygon fill="black" stroke="black" points="1034.85,-142.09 1026.78,-135.22 1028.81,-145.62 1034.85,-142.09"/>
</g>
<!-- Errors::invalid_state -->
<g id="node7" class="node">
<title>Errors::invalid_state</title>
<ellipse fill="none" stroke="black" cx="870" cy="-117" rx="55.79" ry="18"/>
<text text-anchor="middle" x="870" y="-113.3" font-family="Times,serif" font-size="14.00">invalid_state</text>
</g>
<!-- assert_signature_is_valid&#45;&gt;Errors::invalid_state -->
<g id="edge6" class="edge">
<title>assert_signature_is_valid&#45;&gt;Errors::invalid_state</title>
<path fill="none" stroke="black" d="M1171.96,-351.96C1148.93,-348.2 1124.91,-342.02 1104,-332 1079.04,-320.04 948.89,-194.8 894.22,-141.65"/>
<polygon fill="black" stroke="black" points="896.33,-138.82 886.72,-134.35 891.45,-143.83 896.33,-138.82"/>
</g>
<!-- Signature::ed25519_verify -->
<g id="node8" class="node">
<title>Signature::ed25519_verify</title>
<ellipse fill="none" stroke="black" cx="1872" cy="-283" rx="66.09" ry="18"/>
<text text-anchor="middle" x="1872" y="-279.3" font-family="Times,serif" font-size="14.00">ed25519_verify</text>
</g>
<!-- assert_signature_is_valid&#45;&gt;Signature::ed25519_verify -->
<g id="edge7" class="edge">
<title>assert_signature_is_valid&#45;&gt;Signature::ed25519_verify</title>
<path fill="none" stroke="black" d="M1364.21,-354.92C1505.17,-351.54 1752.35,-344 1792,-332 1810.1,-326.52 1828.33,-316.05 1842.81,-306.29"/>
<polygon fill="black" stroke="black" points="1845.12,-308.95 1851.31,-300.35 1841.1,-303.21 1845.12,-308.95"/>
</g>
<!-- base_url -->
<g id="node9" class="node">
<title>base_url</title>
<ellipse fill="none" stroke="black" cx="757" cy="-283" rx="40.09" ry="18"/>
<text text-anchor="middle" x="757" y="-279.3" font-family="Times,serif" font-size="14.00">base_url</text>
</g>
<!-- assert_signature_is_valid&#45;&gt;base_url -->
<g id="edge10" class="edge">
<title>assert_signature_is_valid&#45;&gt;base_url</title>
<path fill="none" stroke="black" d="M1167.41,-355.33C1042.1,-352.63 838.09,-346.13 806,-332 794.2,-326.8 783.61,-317.42 775.33,-308.31"/>
<polygon fill="black" stroke="black" points="777.82,-305.84 768.67,-300.5 772.49,-310.38 777.82,-305.84"/>
</g>
<!-- compliance_public_key -->
<g id="node10" class="node">
<title>compliance_public_key</title>
<ellipse fill="none" stroke="black" cx="910" cy="-283" rx="94.78" ry="18"/>
<text text-anchor="middle" x="910" y="-279.3" font-family="Times,serif" font-size="14.00">compliance_public_key</text>
</g>
<!-- assert_signature_is_valid&#45;&gt;compliance_public_key -->
<g id="edge11" class="edge">
<title>assert_signature_is_valid&#45;&gt;compliance_public_key</title>
<path fill="none" stroke="black" d="M1168.56,-354.19C1122.59,-351.08 1067.34,-344.75 1019,-332 995.01,-325.67 969.56,-314.73 949.29,-304.89"/>
<polygon fill="black" stroke="black" points="950.59,-301.63 940.08,-300.32 947.48,-307.9 950.59,-301.63"/>
</g>
<!-- credential_address -->
<g id="node11" class="node">
<title>credential_address</title>
<ellipse fill="none" stroke="black" cx="1266" cy="-283" rx="76.09" ry="18"/>
<text text-anchor="middle" x="1266" y="-279.3" font-family="Times,serif" font-size="14.00">credential_address</text>
</g>
<!-- assert_signature_is_valid&#45;&gt;credential_address -->
<g id="edge12" class="edge">
<title>assert_signature_is_valid&#45;&gt;credential_address</title>
<path fill="none" stroke="black" d="M1266,-339.7C1266,-331.25 1266,-320.87 1266,-311.37"/>
<polygon fill="black" stroke="black" points="1269.5,-311.18 1266,-301.18 1262.5,-311.18 1269.5,-311.18"/>
</g>
<!-- dual_attestation_message -->
<g id="node12" class="node">
<title>dual_attestation_message</title>
<ellipse fill="none" stroke="black" cx="1529" cy="-283" rx="100.98" ry="18"/>
<text text-anchor="middle" x="1529" y="-279.3" font-family="Times,serif" font-size="14.00">dual_attestation_message</text>
</g>
<!-- assert_signature_is_valid&#45;&gt;dual_attestation_message -->
<g id="edge13" class="edge">
<title>assert_signature_is_valid&#45;&gt;dual_attestation_message</title>
<path fill="none" stroke="black" d="M1345.1,-347.06C1367.6,-343.31 1391.97,-338.37 1414,-332 1438.8,-324.83 1465.47,-313.91 1486.88,-304.3"/>
<polygon fill="black" stroke="black" points="1488.37,-307.47 1496.01,-300.14 1485.46,-301.1 1488.37,-307.47"/>
</g>
<!-- Diem::approx_xdx_for_value -->
<g id="node13" class="node">
<title>Diem::approx_xdx_for_value</title>
<ellipse fill="none" stroke="black" cx="298" cy="-358" rx="90.98" ry="18"/>
<text text-anchor="middle" x="298" y="-354.3" font-family="Times,serif" font-size="14.00">approx_xdx_for_value</text>
</g>
<!-- dual_attestation_required&#45;&gt;Diem::approx_xdx_for_value -->
<g id="edge14" class="edge">
<title>dual_attestation_required&#45;&gt;Diem::approx_xdx_for_value</title>
<path fill="none" stroke="black" d="M973.74,-428.51C887.08,-424.87 756.88,-418.12 644,-407 551.53,-397.89 445.81,-382.49 375.82,-371.6"/>
<polygon fill="black" stroke="black" points="376.18,-368.11 365.76,-370.02 375.1,-375.03 376.18,-368.11"/>
</g>
<!-- VASP::is_vasp -->
<g id="node14" class="node">
<title>VASP::is_vasp</title>
<ellipse fill="none" stroke="black" cx="1297" cy="-200" rx="37.09" ry="18"/>
<text text-anchor="middle" x="1297" y="-196.3" font-family="Times,serif" font-size="14.00">is_vasp</text>
</g>
<!-- dual_attestation_required&#45;&gt;VASP::is_vasp -->
<g id="edge15" class="edge">
<title>dual_attestation_required&#45;&gt;VASP::is_vasp</title>
<path fill="none" stroke="black" d="M1079.38,-414.8C1099.32,-374.59 1150.25,-276.35 1181,-257 1207.5,-240.32 1222.94,-262.91 1251,-249 1262.08,-243.5 1271.95,-234.2 1279.68,-225.23"/>
<polygon fill="black" stroke="black" points="1282.59,-227.2 1286.14,-217.21 1277.14,-222.8 1282.59,-227.2"/>
</g>
<!-- VASP::parent_address -->
<g id="node15" class="node">
<title>VASP::parent_address</title>
<ellipse fill="none" stroke="black" cx="1178" cy="-200" rx="63.89" ry="18"/>
<text text-anchor="middle" x="1178" y="-196.3" font-family="Times,serif" font-size="14.00">parent_address</text>
</g>
<!-- dual_attestation_required&#45;&gt;VASP::parent_address -->
<g id="edge16" class="edge">
<title>dual_attestation_required&#45;&gt;VASP::parent_address</title>
<path fill="none" stroke="black" d="M1068.99,-414.81C1065.98,-381.58 1063.64,-307.38 1095,-257 1104.6,-241.58 1120.19,-229.42 1135.28,-220.42"/>
<polygon fill="black" stroke="black" points="1137.06,-223.44 1144.06,-215.49 1133.63,-217.34 1137.06,-223.44"/>
</g>
<!-- get_cur_microdiem_limit -->
<g id="node16" class="node">
<title>get_cur_microdiem_limit</title>
<ellipse fill="none" stroke="black" cx="650" cy="-200" rx="102.08" ry="18"/>
<text text-anchor="middle" x="650" y="-196.3" font-family="Times,serif" font-size="14.00">get_cur_microdiem_limit</text>
</g>
<!-- dual_attestation_required&#45;&gt;get_cur_microdiem_limit -->
<g id="edge17" class="edge">
<title>dual_attestation_required&#45;&gt;get_cur_microdiem_limit</title>
<path fill="none" stroke="black" d="M974.83,-427.77C894.88,-419.5 782.52,-396.23 708,-332 676.79,-305.1 661.69,-258.16 654.91,-228.38"/>
<polygon fill="black" stroke="black" points="658.26,-227.32 652.78,-218.25 651.41,-228.76 658.26,-227.32"/>
</g>
<!-- Errors::make -->
<g id="node17" class="node">
<title>Errors::make</title>
<ellipse fill="none" stroke="black" cx="803" cy="-34" rx="30.59" ry="18"/>
<text text-anchor="middle" x="803" y="-30.3" font-family="Times,serif" font-size="14.00">make</text>
</g>
<!-- Errors::invalid_argument&#45;&gt;Errors::make -->
<g id="edge18" class="edge">
<title>Errors::invalid_argument&#45;&gt;Errors::make</title>
<path fill="none" stroke="black" d="M978.74,-101.52C938.79,-86.4 876.67,-62.88 837.98,-48.24"/>
<polygon fill="black" stroke="black" points="838.8,-44.81 828.21,-44.54 836.32,-51.35 838.8,-44.81"/>
</g>
<!-- Errors::invalid_state&#45;&gt;Errors::make -->
<g id="edge19" class="edge">
<title>Errors::invalid_state&#45;&gt;Errors::make</title>
<path fill="none" stroke="black" d="M856.12,-99.22C846.28,-87.32 832.95,-71.21 822.11,-58.1"/>
<polygon fill="black" stroke="black" points="824.8,-55.87 815.73,-50.39 819.41,-60.33 824.8,-55.87"/>
</g>
<!-- Errors::not_published -->
<g id="node18" class="node">
<title>Errors::not_published</title>
<ellipse fill="none" stroke="black" cx="736" cy="-117" rx="60.39" ry="18"/>
<text text-anchor="middle" x="736" y="-113.3" font-family="Times,serif" font-size="14.00">not_published</text>
</g>
<!-- base_url&#45;&gt;Errors::not_published -->
<g id="edge20" class="edge">
<title>base_url&#45;&gt;Errors::not_published</title>
<path fill="none" stroke="black" d="M760.18,-264.94C763.61,-243.47 767.73,-205.56 761,-174 758.83,-163.8 754.65,-153.2 750.33,-144.01"/>
<polygon fill="black" stroke="black" points="753.44,-142.4 745.85,-135.01 747.18,-145.52 753.44,-142.4"/>
</g>
<!-- compliance_public_key&#45;&gt;Errors::not_published -->
<g id="edge21" class="edge">
<title>compliance_public_key&#45;&gt;Errors::not_published</title>
<path fill="none" stroke="black" d="M892.03,-265.07C860.79,-235.62 796.41,-174.94 760.89,-141.46"/>
<polygon fill="black" stroke="black" points="763.03,-138.67 753.35,-134.35 758.23,-143.76 763.03,-138.67"/>
</g>
<!-- credential_address&#45;&gt;VASP::parent_address -->
<g id="edge23" class="edge">
<title>credential_address&#45;&gt;VASP::parent_address</title>
<path fill="none" stroke="black" d="M1247.77,-265.22C1234.94,-253.41 1217.6,-237.45 1203.42,-224.39"/>
<polygon fill="black" stroke="black" points="1205.64,-221.68 1195.91,-217.48 1200.9,-226.83 1205.64,-221.68"/>
</g>
<!-- VASP::is_child -->
<g id="node19" class="node">
<title>VASP::is_child</title>
<ellipse fill="none" stroke="black" cx="1296" cy="-117" rx="38.19" ry="18"/>
<text text-anchor="middle" x="1296" y="-113.3" font-family="Times,serif" font-size="14.00">is_child</text>
</g>
<!-- credential_address&#45;&gt;VASP::is_child -->
<g id="edge22" class="edge">
<title>credential_address&#45;&gt;VASP::is_child</title>
<path fill="none" stroke="black" d="M1317.65,-269.68C1327.66,-264.89 1336.92,-258.23 1343,-249 1361.35,-221.17 1354.4,-205.32 1343,-174 1338.45,-161.51 1329.77,-149.88 1321.09,-140.48"/>
<polygon fill="black" stroke="black" points="1323.39,-137.83 1313.88,-133.14 1318.39,-142.73 1323.39,-137.83"/>
</g>
<!-- Vector::append -->
<g id="node20" class="node">
<title>Vector::append</title>
<ellipse fill="none" stroke="black" cx="1714" cy="-200" rx="36.29" ry="18"/>
<text text-anchor="middle" x="1714" y="-196.3" font-family="Times,serif" font-size="14.00">append</text>
</g>
<!-- dual_attestation_message&#45;&gt;Vector::append -->
<g id="edge24" class="edge">
<title>dual_attestation_message&#45;&gt;Vector::append</title>
<path fill="none" stroke="black" d="M1565.11,-266.19C1597.84,-251.86 1645.8,-230.86 1678.38,-216.59"/>
<polygon fill="black" stroke="black" points="1679.79,-219.8 1687.55,-212.58 1676.99,-213.39 1679.79,-219.8"/>
</g>
<!-- BCS::to_bytes -->
<g id="node21" class="node">
<title>BCS::to_bytes</title>
<ellipse fill="none" stroke="black" cx="1468" cy="-200" rx="40.09" ry="18"/>
<text text-anchor="middle" x="1468" y="-196.3" font-family="Times,serif" font-size="14.00">to_bytes</text>
</g>
<!-- dual_attestation_message&#45;&gt;BCS::to_bytes -->
<g id="edge25" class="edge">
<title>dual_attestation_message&#45;&gt;BCS::to_bytes</title>
<path fill="none" stroke="black" d="M1516.06,-264.82C1507.48,-253.43 1496.09,-238.3 1486.55,-225.63"/>
<polygon fill="black" stroke="black" points="1489.11,-223.21 1480.29,-217.32 1483.51,-227.42 1489.11,-223.21"/>
</g>
<!-- FixedPoint32::multiply_u64 -->
<g id="node22" class="node">
<title>FixedPoint32::multiply_u64</title>
<ellipse fill="none" stroke="black" cx="471" cy="-200" rx="58.49" ry="18"/>
<text text-anchor="middle" x="471" y="-196.3" font-family="Times,serif" font-size="14.00">multiply_u64</text>
</g>
<!-- Diem::approx_xdx_for_value&#45;&gt;FixedPoint32::multiply_u64 -->
<g id="edge26" class="edge">
<title>Diem::approx_xdx_for_value&#45;&gt;FixedPoint32::multiply_u64</title>
<path fill="none" stroke="black" d="M357.19,-344.22C365.28,-341.01 373.14,-337 380,-332 417.4,-304.74 444.75,-257.25 459.23,-227.56"/>
<polygon fill="black" stroke="black" points="462.53,-228.76 463.65,-218.22 456.21,-225.77 462.53,-228.76"/>
</g>
<!-- Diem::xdx_exchange_rate -->
<g id="node23" class="node">
<title>Diem::xdx_exchange_rate</title>
<ellipse fill="none" stroke="black" cx="292" cy="-283" rx="79.09" ry="18"/>
<text text-anchor="middle" x="292" y="-279.3" font-family="Times,serif" font-size="14.00">xdx_exchange_rate</text>
</g>
<!-- Diem::approx_xdx_for_value&#45;&gt;Diem::xdx_exchange_rate -->
<g id="edge27" class="edge">
<title>Diem::approx_xdx_for_value&#45;&gt;Diem::xdx_exchange_rate</title>
<path fill="none" stroke="black" d="M296.58,-339.7C295.88,-331.25 295.03,-320.87 294.25,-311.37"/>
<polygon fill="black" stroke="black" points="297.72,-310.86 293.41,-301.18 290.74,-311.43 297.72,-310.86"/>
</g>
<!-- VASP::is_vasp&#45;&gt;VASP::is_child -->
<g id="edge28" class="edge">
<title>VASP::is_vasp&#45;&gt;VASP::is_child</title>
<path fill="none" stroke="black" d="M1296.79,-181.82C1296.66,-171.19 1296.49,-157.31 1296.34,-145.2"/>
<polygon fill="black" stroke="black" points="1299.84,-145.11 1296.21,-135.15 1292.84,-145.2 1299.84,-145.11"/>
</g>
<!-- VASP::is_parent -->
<g id="node24" class="node">
<title>VASP::is_parent</title>
<ellipse fill="none" stroke="black" cx="1187" cy="-117" rx="42.79" ry="18"/>
<text text-anchor="middle" x="1187" y="-113.3" font-family="Times,serif" font-size="14.00">is_parent</text>
</g>
<!-- VASP::is_vasp&#45;&gt;VASP::is_parent -->
<g id="edge29" class="edge">
<title>VASP::is_vasp&#45;&gt;VASP::is_parent</title>
<path fill="none" stroke="black" d="M1275.79,-184.8C1267.38,-179.06 1257.66,-172.32 1249,-166 1237.46,-157.58 1224.96,-147.99 1214.23,-139.62"/>
<polygon fill="black" stroke="black" points="1216.08,-136.62 1206.06,-133.2 1211.76,-142.13 1216.08,-136.62"/>
</g>
<!-- VASP::parent_address&#45;&gt;Errors::invalid_argument -->
<g id="edge30" class="edge">
<title>VASP::parent_address&#45;&gt;Errors::invalid_argument</title>
<path fill="none" stroke="black" d="M1143.22,-184.8C1130.16,-179.23 1115.26,-172.6 1102,-166 1085.42,-157.74 1067.5,-147.79 1052.41,-139.09"/>
<polygon fill="black" stroke="black" points="1053.82,-135.86 1043.41,-133.86 1050.3,-141.91 1053.82,-135.86"/>
</g>
<!-- VASP::parent_address&#45;&gt;VASP::is_child -->
<g id="edge31" class="edge">
<title>VASP::parent_address&#45;&gt;VASP::is_child</title>
<path fill="none" stroke="black" d="M1208.5,-184.07C1218.48,-178.77 1229.45,-172.51 1239,-166 1250.19,-158.38 1261.76,-148.96 1271.53,-140.49"/>
<polygon fill="black" stroke="black" points="1274.09,-142.91 1279.26,-133.66 1269.45,-137.66 1274.09,-142.91"/>
</g>
<!-- VASP::parent_address&#45;&gt;VASP::is_parent -->
<g id="edge32" class="edge">
<title>VASP::parent_address&#45;&gt;VASP::is_parent</title>
<path fill="none" stroke="black" d="M1179.91,-181.82C1181.09,-171.19 1182.63,-157.31 1183.98,-145.2"/>
<polygon fill="black" stroke="black" points="1187.47,-145.48 1185.09,-135.15 1180.51,-144.71 1187.47,-145.48"/>
</g>
<!-- get_cur_microdiem_limit&#45;&gt;Errors::not_published -->
<g id="edge33" class="edge">
<title>get_cur_microdiem_limit&#45;&gt;Errors::not_published</title>
<path fill="none" stroke="black" d="M667.82,-182.22C680.36,-170.41 697.3,-154.45 711.16,-141.39"/>
<polygon fill="black" stroke="black" points="713.62,-143.89 718.5,-134.48 708.82,-138.79 713.62,-143.89"/>
</g>
<!-- CoreAddresses::DIEM_ROOT_ADDRESS -->
<g id="node25" class="node">
<title>CoreAddresses::DIEM_ROOT_ADDRESS</title>
<ellipse fill="none" stroke="black" cx="397" cy="-34" rx="106.68" ry="18"/>
<text text-anchor="middle" x="397" y="-30.3" font-family="Times,serif" font-size="14.00">DIEM_ROOT_ADDRESS</text>
</g>
<!-- get_cur_microdiem_limit&#45;&gt;CoreAddresses::DIEM_ROOT_ADDRESS -->
<g id="edge34" class="edge">
<title>get_cur_microdiem_limit&#45;&gt;CoreAddresses::DIEM_ROOT_ADDRESS</title>
<path fill="none" stroke="black" d="M590.82,-185.24C556.55,-177.13 519.47,-168.07 516,-166 471.27,-139.34 433.61,-90.57 413.27,-60.65"/>
<polygon fill="black" stroke="black" points="415.97,-58.4 407.52,-52.01 410.14,-62.27 415.97,-58.4"/>
</g>
<!-- Errors::not_published&#45;&gt;Errors::make -->
<g id="edge35" class="edge">
<title>Errors::not_published&#45;&gt;Errors::make</title>
<path fill="none" stroke="black" d="M749.88,-99.22C759.72,-87.32 773.05,-71.21 783.89,-58.1"/>
<polygon fill="black" stroke="black" points="786.59,-60.33 790.27,-50.39 781.2,-55.87 786.59,-60.33"/>
</g>
<!-- Vector::append&#45;&gt;Vector::is_empty -->
<g id="edge37" class="edge">
<title>Vector::append&#45;&gt;Vector::is_empty</title>
<path fill="none" stroke="black" d="M1736.1,-185.41C1744.52,-180.92 1754.41,-176.45 1764,-174 1810.75,-162.05 1936.3,-184.18 1981,-166 1993.58,-160.88 2005.08,-151.38 2014.13,-142.17"/>
<polygon fill="black" stroke="black" points="2016.91,-144.32 2021.13,-134.6 2011.77,-139.57 2016.91,-144.32"/>
</g>
<!-- Vector::destroy_empty -->
<g id="node26" class="node">
<title>Vector::destroy_empty</title>
<ellipse fill="none" stroke="black" cx="1596" cy="-117" rx="63.89" ry="18"/>
<text text-anchor="middle" x="1596" y="-113.3" font-family="Times,serif" font-size="14.00">destroy_empty</text>
</g>
<!-- Vector::append&#45;&gt;Vector::destroy_empty -->
<g id="edge36" class="edge">
<title>Vector::append&#45;&gt;Vector::destroy_empty</title>
<path fill="none" stroke="black" d="M1693.45,-184.89C1675.22,-172.38 1648.33,-153.92 1627.41,-139.56"/>
<polygon fill="black" stroke="black" points="1629.37,-136.66 1619.15,-133.89 1625.41,-142.43 1629.37,-136.66"/>
</g>
<!-- Vector::pop_back -->
<g id="node27" class="node">
<title>Vector::pop_back</title>
<ellipse fill="none" stroke="black" cx="1813" cy="-117" rx="44.69" ry="18"/>
<text text-anchor="middle" x="1813" y="-113.3" font-family="Times,serif" font-size="14.00">pop_back</text>
</g>
<!-- Vector::append&#45;&gt;Vector::pop_back -->
<g id="edge38" class="edge">
<title>Vector::append&#45;&gt;Vector::pop_back</title>
<path fill="none" stroke="black" d="M1734.02,-184.94C1741.92,-179.22 1751.01,-172.45 1759,-166 1768.81,-158.07 1779.24,-148.97 1788.3,-140.83"/>
<polygon fill="black" stroke="black" points="1790.79,-143.3 1795.85,-133.99 1786.09,-138.11 1790.79,-143.3"/>
</g>
<!-- Vector::push_back -->
<g id="node28" class="node">
<title>Vector::push_back</title>
<ellipse fill="none" stroke="black" cx="1924" cy="-117" rx="48.19" ry="18"/>
<text text-anchor="middle" x="1924" y="-113.3" font-family="Times,serif" font-size="14.00">push_back</text>
</g>
<!-- Vector::append&#45;&gt;Vector::push_back -->
<g id="edge39" class="edge">
<title>Vector::append&#45;&gt;Vector::push_back</title>
<path fill="none" stroke="black" d="M1736.16,-185.62C1744.59,-181.15 1754.46,-176.65 1764,-174 1808.25,-161.73 1824.51,-183.4 1867,-166 1880.23,-160.58 1892.65,-150.9 1902.5,-141.65"/>
<polygon fill="black" stroke="black" points="1905.18,-143.93 1909.82,-134.41 1900.25,-138.95 1905.18,-143.93"/>
</g>
<!-- Vector::reverse -->
<g id="node29" class="node">
<title>Vector::reverse</title>
<ellipse fill="none" stroke="black" cx="1714" cy="-117" rx="36.29" ry="18"/>
<text text-anchor="middle" x="1714" y="-113.3" font-family="Times,serif" font-size="14.00">reverse</text>
</g>
<!-- Vector::append&#45;&gt;Vector::reverse -->
<g id="edge40" class="edge">
<title>Vector::append&#45;&gt;Vector::reverse</title>
<path fill="none" stroke="black" d="M1714,-181.82C1714,-171.19 1714,-157.31 1714,-145.2"/>
<polygon fill="black" stroke="black" points="1717.5,-145.15 1714,-135.15 1710.5,-145.15 1717.5,-145.15"/>
</g>
<!-- Errors::limit_exceeded -->
<g id="node30" class="node">
<title>Errors::limit_exceeded</title>
<ellipse fill="none" stroke="black" cx="593" cy="-117" rx="64.99" ry="18"/>
<text text-anchor="middle" x="593" y="-113.3" font-family="Times,serif" font-size="14.00">limit_exceeded</text>
</g>
<!-- FixedPoint32::multiply_u64&#45;&gt;Errors::limit_exceeded -->
<g id="edge41" class="edge">
<title>FixedPoint32::multiply_u64&#45;&gt;Errors::limit_exceeded</title>
<path fill="none" stroke="black" d="M494.52,-183.38C513.3,-170.91 539.83,-153.3 560.61,-139.5"/>
<polygon fill="black" stroke="black" points="562.74,-142.29 569.13,-133.85 558.87,-136.46 562.74,-142.29"/>
</g>
<!-- CoreAddresses::CURRENCY_INFO_ADDRESS -->
<g id="node31" class="node">
<title>CoreAddresses::CURRENCY_INFO_ADDRESS</title>
<ellipse fill="none" stroke="black" cx="144" cy="-34" rx="128.08" ry="18"/>
<text text-anchor="middle" x="144" y="-30.3" font-family="Times,serif" font-size="14.00">CURRENCY_INFO_ADDRESS</text>
</g>
<!-- Diem::xdx_exchange_rate&#45;&gt;CoreAddresses::CURRENCY_INFO_ADDRESS -->
<g id="edge42" class="edge">
<title>Diem::xdx_exchange_rate&#45;&gt;CoreAddresses::CURRENCY_INFO_ADDRESS</title>
<path fill="none" stroke="black" d="M238.43,-269.69C226.8,-264.87 215.46,-258.21 207,-249 158.21,-195.93 147.06,-106.88 144.61,-62.25"/>
<polygon fill="black" stroke="black" points="148.11,-61.99 144.17,-52.16 141.11,-62.3 148.11,-61.99"/>
</g>
<!-- Diem::assert_is_currency -->
<g id="node32" class="node">
<title>Diem::assert_is_currency</title>
<ellipse fill="none" stroke="black" cx="292" cy="-200" rx="76.09" ry="18"/>
<text text-anchor="middle" x="292" y="-196.3" font-family="Times,serif" font-size="14.00">assert_is_currency</text>
</g>
<!-- Diem::xdx_exchange_rate&#45;&gt;Diem::assert_is_currency -->
<g id="edge43" class="edge">
<title>Diem::xdx_exchange_rate&#45;&gt;Diem::assert_is_currency</title>
<path fill="none" stroke="black" d="M292,-264.82C292,-254.19 292,-240.31 292,-228.2"/>
<polygon fill="black" stroke="black" points="295.5,-228.15 292,-218.15 288.5,-228.15 295.5,-228.15"/>
</g>
<!-- Vector::reverse&#45;&gt;Vector::length -->
<g id="edge44" class="edge">
<title>Vector::reverse&#45;&gt;Vector::length</title>
<path fill="none" stroke="black" d="M1705.71,-99.22C1700.2,-88.07 1692.87,-73.21 1686.64,-60.6"/>
<polygon fill="black" stroke="black" points="1689.71,-58.9 1682.14,-51.48 1683.43,-62 1689.71,-58.9"/>
</g>
<!-- Vector::swap -->
<g id="node33" class="node">
<title>Vector::swap</title>
<ellipse fill="none" stroke="black" cx="1753" cy="-34" rx="28.7" ry="18"/>
<text text-anchor="middle" x="1753" y="-30.3" font-family="Times,serif" font-size="14.00">swap</text>
</g>
<!-- Vector::reverse&#45;&gt;Vector::swap -->
<g id="edge45" class="edge">
<title>Vector::reverse&#45;&gt;Vector::swap</title>
<path fill="none" stroke="black" d="M1722.08,-99.22C1727.45,-88.07 1734.6,-73.21 1740.68,-60.6"/>
<polygon fill="black" stroke="black" points="1743.88,-62.01 1745.06,-51.48 1737.57,-58.98 1743.88,-62.01"/>
</g>
<!-- Errors::limit_exceeded&#45;&gt;Errors::make -->
<g id="edge46" class="edge">
<title>Errors::limit_exceeded&#45;&gt;Errors::make</title>
<path fill="none" stroke="black" d="M629.58,-101.89C668.63,-86.83 730.04,-63.14 768.34,-48.37"/>
<polygon fill="black" stroke="black" points="769.95,-51.5 778.02,-44.63 767.43,-44.97 769.95,-51.5"/>
</g>
<!-- Diem::assert_is_currency&#45;&gt;Errors::not_published -->
<g id="edge47" class="edge">
<title>Diem::assert_is_currency&#45;&gt;Errors::not_published</title>
<path fill="none" stroke="black" d="M339.66,-185.94C358.6,-181.31 380.68,-176.61 401,-174 430.33,-170.23 638.92,-175.27 667,-166 682.87,-160.76 698.36,-150.6 710.62,-140.97"/>
<polygon fill="black" stroke="black" points="713.05,-143.5 718.57,-134.45 708.61,-138.09 713.05,-143.5"/>
</g>
<!-- Diem::is_currency -->
<g id="node34" class="node">
<title>Diem::is_currency</title>
<ellipse fill="none" stroke="black" cx="263" cy="-117" rx="51.99" ry="18"/>
<text text-anchor="middle" x="263" y="-113.3" font-family="Times,serif" font-size="14.00">is_currency</text>
</g>
<!-- Diem::assert_is_currency&#45;&gt;Diem::is_currency -->
<g id="edge48" class="edge">
<title>Diem::assert_is_currency&#45;&gt;Diem::is_currency</title>
<path fill="none" stroke="black" d="M285.85,-181.82C282.01,-171.08 276.97,-157.03 272.61,-144.84"/>
<polygon fill="black" stroke="black" points="275.81,-143.39 269.14,-135.15 269.22,-145.75 275.81,-143.39"/>
</g>
<!-- Diem::is_currency&#45;&gt;CoreAddresses::CURRENCY_INFO_ADDRESS -->
<g id="edge49" class="edge">
<title>Diem::is_currency&#45;&gt;CoreAddresses::CURRENCY_INFO_ADDRESS</title>
<path fill="none" stroke="black" d="M240.34,-100.57C222.4,-88.36 197.1,-71.14 176.92,-57.41"/>
<polygon fill="black" stroke="black" points="178.87,-54.5 168.63,-51.76 174.93,-60.29 178.87,-54.5"/>
</g>
</g>
</svg>
