<?xml version="1.0" encoding="UTF-8" standalone="no"?>
<!DOCTYPE svg PUBLIC "-//W3C//DTD SVG 1.1//EN"
 "http://www.w3.org/Graphics/SVG/1.1/DTD/svg11.dtd">
<!-- Generated by graphviz version 2.46.1 (20210213.1702)
 -->
<!-- Title: G Pages: 1 -->
<svg width="1082pt" height="365pt"
 viewBox="0.00 0.00 1082.00 365.00" xmlns="http://www.w3.org/2000/svg" xmlns:xlink="http://www.w3.org/1999/xlink">
<g id="graph0" class="graph" transform="scale(1 1) rotate(0) translate(4 361)">
<title>G</title>
<polygon fill="white" stroke="transparent" points="-4,4 -4,-361 1078,-361 1078,4 -4,4"/>
<g id="clust1" class="cluster">
<title>cluster_Errors</title>
<polygon fill="none" stroke="black" points="8,-8 8,-155 435,-155 435,-8 8,-8"/>
<text text-anchor="middle" x="221.5" y="-139.8" font-family="Times,serif" font-size="14.00">Errors</text>
</g>
<g id="clust2" class="cluster">
<title>cluster_CoreAddresses</title>
<polygon fill="none" stroke="black" points="601,-80 601,-230 1066,-230 1066,-80 601,-80"/>
<text text-anchor="middle" x="833.5" y="-214.8" font-family="Times,serif" font-size="14.00">CoreAddresses</text>
</g>
<g id="clust3" class="cluster">
<title>cluster_Roles</title>
<polygon fill="none" stroke="black" points="248,-238 248,-313 482,-313 482,-238 248,-238"/>
<text text-anchor="middle" x="365" y="-297.8" font-family="Times,serif" font-size="14.00">Roles</text>
</g>
<g id="clust4" class="cluster">
<title>cluster_Signer</title>
<polygon fill="none" stroke="black" points="443,-8 443,-155 593,-155 593,-8 443,-8"/>
<text text-anchor="middle" x="518" y="-139.8" font-family="Times,serif" font-size="14.00">Signer</text>
</g>
<!-- set_microdiem_limit -->
<g id="node1" class="node">
<title>set_microdiem_limit</title>
<ellipse fill="none" stroke="black" cx="365" cy="-339" rx="85.29" ry="18"/>
<text text-anchor="middle" x="365" y="-335.3" font-family="Times,serif" font-size="14.00">set_microdiem_limit</text>
</g>
<!-- Errors::not_published -->
<g id="node2" class="node">
<title>Errors::not_published</title>
<ellipse fill="none" stroke="black" cx="76" cy="-106" rx="60.39" ry="18"/>
<text text-anchor="middle" x="76" y="-102.3" font-family="Times,serif" font-size="14.00">not_published</text>
</g>
<!-- set_microdiem_limit&#45;&gt;Errors::not_published -->
<g id="edge1" class="edge">
<title>set_microdiem_limit&#45;&gt;Errors::not_published</title>
<path fill="none" stroke="black" d="M289.38,-330.62C273.62,-326.87 257.66,-321.29 244,-313 169.56,-267.85 113.6,-177.37 89.31,-132.89"/>
<polygon fill="black" stroke="black" points="92.28,-131.04 84.48,-123.88 86.12,-134.35 92.28,-131.04"/>
</g>
<!-- CoreAddresses::DIEM_ROOT_ADDRESS -->
<g id="node3" class="node">
<title>CoreAddresses::DIEM_ROOT_ADDRESS</title>
<ellipse fill="none" stroke="black" cx="951" cy="-181" rx="106.68" ry="18"/>
<text text-anchor="middle" x="951" y="-177.3" font-family="Times,serif" font-size="14.00">DIEM_ROOT_ADDRESS</text>
</g>
<!-- set_microdiem_limit&#45;&gt;CoreAddresses::DIEM_ROOT_ADDRESS -->
<g id="edge2" class="edge">
<title>set_microdiem_limit&#45;&gt;CoreAddresses::DIEM_ROOT_ADDRESS</title>
<path fill="none" stroke="black" d="M429.21,-327.02C520.78,-310.52 693.58,-276.27 836,-230 860,-222.2 886,-211.55 907.2,-202.26"/>
<polygon fill="black" stroke="black" points="908.85,-205.35 916.58,-198.1 906.02,-198.95 908.85,-205.35"/>
</g>
<!-- Roles::assert_treasury_compliance -->
<g id="node4" class="node">
<title>Roles::assert_treasury_compliance</title>
<ellipse fill="none" stroke="black" cx="365" cy="-264" rx="108.58" ry="18"/>
<text text-anchor="middle" x="365" y="-260.3" font-family="Times,serif" font-size="14.00">assert_treasury_compliance</text>
</g>
<!-- set_microdiem_limit&#45;&gt;Roles::assert_treasury_compliance -->
<g id="edge3" class="edge">
<title>set_microdiem_limit&#45;&gt;Roles::assert_treasury_compliance</title>
<path fill="none" stroke="black" d="M365,-320.7C365,-312.25 365,-301.87 365,-292.37"/>
<polygon fill="black" stroke="black" points="368.5,-292.18 365,-282.18 361.5,-292.18 368.5,-292.18"/>
</g>
<!-- Errors::make -->
<g id="node5" class="node">
<title>Errors::make</title>
<ellipse fill="none" stroke="black" cx="212" cy="-34" rx="30.59" ry="18"/>
<text text-anchor="middle" x="212" y="-30.3" font-family="Times,serif" font-size="14.00">make</text>
</g>
<!-- Errors::not_published&#45;&gt;Errors::make -->
<g id="edge4" class="edge">
<title>Errors::not_published&#45;&gt;Errors::make</title>
<path fill="none" stroke="black" d="M104.84,-90.15C127.05,-78.73 157.7,-62.95 180.53,-51.2"/>
<polygon fill="black" stroke="black" points="182.2,-54.28 189.49,-46.59 178.99,-48.05 182.2,-54.28"/>
</g>
<!-- Roles::assert_treasury_compliance&#45;&gt;Errors::not_published -->
<g id="edge6" class="edge">
<title>Roles::assert_treasury_compliance&#45;&gt;Errors::not_published</title>
<path fill="none" stroke="black" d="M315.59,-247.84C304.01,-243.1 292.11,-237.19 282,-230 249.9,-207.18 258.94,-181.18 224,-163 193.09,-146.92 178.72,-167 146,-155 130.26,-149.23 114.69,-139.11 102.24,-129.64"/>
<polygon fill="black" stroke="black" points="104.18,-126.71 94.16,-123.26 99.84,-132.2 104.18,-126.71"/>
</g>
<!-- Signer::address_of -->
<g id="node6" class="node">
<title>Signer::address_of</title>
<ellipse fill="none" stroke="black" cx="518" cy="-106" rx="48.99" ry="18"/>
<text text-anchor="middle" x="518" y="-102.3" font-family="Times,serif" font-size="14.00">address_of</text>
</g>
<!-- Roles::assert_treasury_compliance&#45;&gt;Signer::address_of -->
<g id="edge5" class="edge">
<title>Roles::assert_treasury_compliance&#45;&gt;Signer::address_of</title>
<path fill="none" stroke="black" d="M381.66,-246.01C409.05,-218.08 463.65,-162.41 494.8,-130.65"/>
<polygon fill="black" stroke="black" points="497.31,-133.09 501.82,-123.5 492.32,-128.19 497.31,-133.09"/>
</g>
<!-- Errors::requires_role -->
<g id="node7" class="node">
<title>Errors::requires_role</title>
<ellipse fill="none" stroke="black" cx="212" cy="-106" rx="57.39" ry="18"/>
<text text-anchor="middle" x="212" y="-102.3" font-family="Times,serif" font-size="14.00">requires_role</text>
</g>
<!-- Roles::assert_treasury_compliance&#45;&gt;Errors::requires_role -->
<g id="edge7" class="edge">
<title>Roles::assert_treasury_compliance&#45;&gt;Errors::requires_role</title>
<path fill="none" stroke="black" d="M352.46,-245.83C336.99,-225.16 309.36,-189.88 282,-163 269.7,-150.92 254.95,-138.82 242.16,-128.96"/>
<polygon fill="black" stroke="black" points="244.17,-126.09 234.09,-122.84 239.94,-131.67 244.17,-126.09"/>
</g>
<!-- CoreAddresses::assert_treasury_compliance -->
<g id="node8" class="node">
<title>CoreAddresses::assert_treasury_compliance</title>
<ellipse fill="none" stroke="black" cx="718" cy="-181" rx="108.58" ry="18"/>
<text text-anchor="middle" x="718" y="-177.3" font-family="Times,serif" font-size="14.00">assert_treasury_compliance</text>
</g>
<!-- Roles::assert_treasury_compliance&#45;&gt;CoreAddresses::assert_treasury_compliance -->
<g id="edge8" class="edge">
<title>Roles::assert_treasury_compliance&#45;&gt;CoreAddresses::assert_treasury_compliance</title>
<path fill="none" stroke="black" d="M425.68,-249.08C487.28,-234.94 582.56,-213.08 647.48,-198.18"/>
<polygon fill="black" stroke="black" points="648.26,-201.59 657.22,-195.95 646.69,-194.77 648.26,-201.59"/>
</g>
<!-- Signer::borrow_address -->
<g id="node9" class="node">
<title>Signer::borrow_address</title>
<ellipse fill="none" stroke="black" cx="518" cy="-34" rx="66.89" ry="18"/>
<text text-anchor="middle" x="518" y="-30.3" font-family="Times,serif" font-size="14.00">borrow_address</text>
</g>
<!-- Signer::address_of&#45;&gt;Signer::borrow_address -->
<g id="edge9" class="edge">
<title>Signer::address_of&#45;&gt;Signer::borrow_address</title>
<path fill="none" stroke="black" d="M518,-87.7C518,-79.98 518,-70.71 518,-62.11"/>
<polygon fill="black" stroke="black" points="521.5,-62.1 518,-52.1 514.5,-62.1 521.5,-62.1"/>
</g>
<!-- Errors::requires_role&#45;&gt;Errors::make -->
<g id="edge10" class="edge">
<title>Errors::requires_role&#45;&gt;Errors::make</title>
<path fill="none" stroke="black" d="M212,-87.7C212,-79.98 212,-70.71 212,-62.11"/>
<polygon fill="black" stroke="black" points="215.5,-62.1 212,-52.1 208.5,-62.1 215.5,-62.1"/>
</g>
<!-- CoreAddresses::assert_treasury_compliance&#45;&gt;Signer::address_of -->
<g id="edge11" class="edge">
<title>CoreAddresses::assert_treasury_compliance&#45;&gt;Signer::address_of</title>
<path fill="none" stroke="black" d="M641,-168.22C626.13,-164.8 610.87,-160.46 597,-155 579.56,-148.14 561.6,-137.55 547.21,-128.06"/>
<polygon fill="black" stroke="black" points="549,-125.05 538.76,-122.34 545.08,-130.84 549,-125.05"/>
</g>
<!-- Errors::requires_address -->
<g id="node10" class="node">
<title>Errors::requires_address</title>
<ellipse fill="none" stroke="black" cx="357" cy="-106" rx="69.59" ry="18"/>
<text text-anchor="middle" x="357" y="-102.3" font-family="Times,serif" font-size="14.00">requires_address</text>
</g>
<!-- CoreAddresses::assert_treasury_compliance&#45;&gt;Errors::requires_address -->
<g id="edge12" class="edge">
<title>CoreAddresses::assert_treasury_compliance&#45;&gt;Errors::requires_address</title>
<path fill="none" stroke="black" d="M614.47,-175.43C548.97,-171.64 470.85,-165.18 439,-155 420.78,-149.18 402.25,-138.78 387.42,-129.15"/>
<polygon fill="black" stroke="black" points="388.96,-125.97 378.7,-123.3 385.06,-131.78 388.96,-125.97"/>
</g>
<!-- CoreAddresses::TREASURY_COMPLIANCE_ADDRESS -->
<g id="node11" class="node">
<title>CoreAddresses::TREASURY_COMPLIANCE_ADDRESS</title>
<ellipse fill="none" stroke="black" cx="772" cy="-106" rx="163.27" ry="18"/>
<text text-anchor="middle" x="772" y="-102.3" font-family="Times,serif" font-size="14.00">TREASURY_COMPLIANCE_ADDRESS</text>
</g>
<!-- CoreAddresses::assert_treasury_compliance&#45;&gt;CoreAddresses::TREASURY_COMPLIANCE_ADDRESS -->
<g id="edge13" class="edge">
<title>CoreAddresses::assert_treasury_compliance&#45;&gt;CoreAddresses::TREASURY_COMPLIANCE_ADDRESS</title>
<path fill="none" stroke="black" d="M730.52,-163.07C737.29,-153.92 745.78,-142.45 753.31,-132.26"/>
<polygon fill="black" stroke="black" points="756.22,-134.21 759.36,-124.09 750.6,-130.05 756.22,-134.21"/>
</g>
<!-- Errors::requires_address&#45;&gt;Errors::make -->
<g id="edge14" class="edge">
<title>Errors::requires_address&#45;&gt;Errors::make</title>
<path fill="none" stroke="black" d="M325.54,-89.81C301.42,-78.17 268.27,-62.16 244.01,-50.45"/>
<polygon fill="black" stroke="black" points="245.39,-47.23 234.87,-46.04 242.35,-53.54 245.39,-47.23"/>
</g>
</g>
</svg>
