<?xml version="1.0" encoding="UTF-8" standalone="no"?>
<!DOCTYPE svg PUBLIC "-//W3C//DTD SVG 1.1//EN"
 "http://www.w3.org/Graphics/SVG/1.1/DTD/svg11.dtd">
<!-- Generated by graphviz version 2.46.1 (20210213.1702)
 -->
<!-- Title: G Pages: 1 -->
<svg width="1386pt" height="620pt"
 viewBox="0.00 0.00 1386.20 620.00" xmlns="http://www.w3.org/2000/svg" xmlns:xlink="http://www.w3.org/1999/xlink">
<g id="graph0" class="graph" transform="scale(1 1) rotate(0) translate(4 616)">
<title>G</title>
<polygon fill="white" stroke="transparent" points="-4,4 -4,-616 1382.2,-616 1382.2,4 -4,4"/>
<!-- DualAttestation -->
<g id="node1" class="node">
<title>DualAttestation</title>
<ellipse fill="none" stroke="black" cx="678" cy="-594" rx="66.09" ry="18"/>
<text text-anchor="middle" x="678" y="-590.3" font-family="Times,serif" font-size="14.00">DualAttestation</text>
</g>
<!-- Signer -->
<g id="node2" class="node">
<title>Signer</title>
<ellipse fill="none" stroke="black" cx="329" cy="-18" rx="33.6" ry="18"/>
<text text-anchor="middle" x="329" y="-14.3" font-family="Times,serif" font-size="14.00">Signer</text>
</g>
<!-- DualAttestation&#45;&gt;Signer -->
<g id="edge1" class="edge">
<title>DualAttestation&#45;&gt;Signer</title>
<path fill="none" stroke="black" d="M611.72,-593.28C475.64,-592.87 169.85,-586.62 78,-540 31.1,-516.2 0,-503.6 0,-451 0,-451 0,-451 0,-161 0,-38.32 195.21,-20.38 284.89,-18.62"/>
<polygon fill="black" stroke="black" points="285.08,-22.11 295.03,-18.48 284.98,-15.12 285.08,-22.11"/>
</g>
<!-- Errors -->
<g id="node3" class="node">
<title>Errors</title>
<ellipse fill="none" stroke="black" cx="953" cy="-18" rx="32.49" ry="18"/>
<text text-anchor="middle" x="953" y="-14.3" font-family="Times,serif" font-size="14.00">Errors</text>
</g>
<!-- DualAttestation&#45;&gt;Errors -->
<g id="edge2" class="edge">
<title>DualAttestation&#45;&gt;Errors</title>
<path fill="none" stroke="black" d="M743.29,-590.85C895.69,-584.07 1262,-556.78 1262,-451 1262,-451 1262,-451 1262,-161 1262,-45.1 1080.29,-23.45 995.56,-19.66"/>
<polygon fill="black" stroke="black" points="995.61,-16.16 985.48,-19.27 995.34,-23.15 995.61,-16.16"/>
</g>
<!-- CoreAddresses -->
<g id="node4" class="node">
<title>CoreAddresses</title>
<ellipse fill="none" stroke="black" cx="489" cy="-90" rx="63.89" ry="18"/>
<text text-anchor="middle" x="489" y="-86.3" font-family="Times,serif" font-size="14.00">CoreAddresses</text>
</g>
<!-- DualAttestation&#45;&gt;CoreAddresses -->
<g id="edge3" class="edge">
<title>DualAttestation&#45;&gt;CoreAddresses</title>
<path fill="none" stroke="black" d="M617.31,-586.71C494.48,-572.28 228,-531.69 228,-451 228,-451 228,-451 228,-377 228,-310.33 368.76,-190.02 417,-144 428.86,-132.68 443.19,-121.68 455.93,-112.66"/>
<polygon fill="black" stroke="black" points="458.23,-115.33 464.45,-106.76 454.24,-109.58 458.23,-115.33"/>
</g>
<!-- DiemTimestamp -->
<g id="node5" class="node">
<title>DiemTimestamp</title>
<ellipse fill="none" stroke="black" cx="851" cy="-162" rx="71.49" ry="18"/>
<text text-anchor="middle" x="851" y="-158.3" font-family="Times,serif" font-size="14.00">DiemTimestamp</text>
</g>
<!-- DualAttestation&#45;&gt;DiemTimestamp -->
<g id="edge4" class="edge">
<title>DualAttestation&#45;&gt;DiemTimestamp</title>
<path fill="none" stroke="black" d="M743.77,-591.5C858.35,-584.73 1089.72,-551.53 1167,-396 1225.23,-278.79 1018.35,-206.33 911.28,-177.43"/>
<polygon fill="black" stroke="black" points="912.12,-174.03 901.56,-174.85 910.33,-180.8 912.12,-174.03"/>
</g>
<!-- Signature -->
<g id="node6" class="node">
<title>Signature</title>
<ellipse fill="none" stroke="black" cx="1334" cy="-522" rx="44.39" ry="18"/>
<text text-anchor="middle" x="1334" y="-518.3" font-family="Times,serif" font-size="14.00">Signature</text>
</g>
<!-- DualAttestation&#45;&gt;Signature -->
<g id="edge5" class="edge">
<title>DualAttestation&#45;&gt;Signature</title>
<path fill="none" stroke="black" d="M743.62,-591.4C854.3,-587.76 1084.74,-576.14 1276,-540 1280.84,-539.09 1285.85,-537.94 1290.81,-536.67"/>
<polygon fill="black" stroke="black" points="1292.11,-539.94 1300.84,-533.94 1290.27,-533.19 1292.11,-539.94"/>
</g>
<!-- Roles -->
<g id="node7" class="node">
<title>Roles</title>
<ellipse fill="none" stroke="black" cx="681" cy="-234" rx="30.59" ry="18"/>
<text text-anchor="middle" x="681" y="-230.3" font-family="Times,serif" font-size="14.00">Roles</text>
</g>
<!-- DualAttestation&#45;&gt;Roles -->
<g id="edge6" class="edge">
<title>DualAttestation&#45;&gt;Roles</title>
<path fill="none" stroke="black" d="M682.05,-575.62C687.89,-548.97 698,-496.31 698,-451 698,-451 698,-451 698,-377 698,-336.71 691.17,-290.44 686.17,-261.96"/>
<polygon fill="black" stroke="black" points="689.58,-261.19 684.36,-251.97 682.7,-262.43 689.58,-261.19"/>
</g>
<!-- Vector -->
<g id="node8" class="node">
<title>Vector</title>
<ellipse fill="none" stroke="black" cx="108" cy="-162" rx="33.6" ry="18"/>
<text text-anchor="middle" x="108" y="-158.3" font-family="Times,serif" font-size="14.00">Vector</text>
</g>
<!-- DualAttestation&#45;&gt;Vector -->
<g id="edge7" class="edge">
<title>DualAttestation&#45;&gt;Vector</title>
<path fill="none" stroke="black" d="M611.92,-592.23C448.4,-588.54 38,-567.66 38,-451 38,-451 38,-451 38,-305 38,-259.61 67.12,-213.7 87.8,-186.82"/>
<polygon fill="black" stroke="black" points="90.7,-188.8 94.17,-178.78 85.22,-184.45 90.7,-188.8"/>
</g>
<!-- BCS -->
<g id="node9" class="node">
<title>BCS</title>
<ellipse fill="none" stroke="black" cx="187" cy="-162" rx="27.1" ry="18"/>
<text text-anchor="middle" x="187" y="-158.3" font-family="Times,serif" font-size="14.00">BCS</text>
</g>
<!-- DualAttestation&#45;&gt;BCS -->
<g id="edge8" class="edge">
<title>DualAttestation&#45;&gt;BCS</title>
<path fill="none" stroke="black" d="M612.92,-590.1C491.7,-584.06 241.11,-568.28 214,-540 120.68,-442.65 159.79,-258.65 178.85,-189.85"/>
<polygon fill="black" stroke="black" points="182.33,-190.41 181.71,-179.83 175.6,-188.49 182.33,-190.41"/>
</g>
<!-- Event -->
<g id="node10" class="node">
<title>Event</title>
<ellipse fill="none" stroke="black" cx="259" cy="-234" rx="31.4" ry="18"/>
<text text-anchor="middle" x="259" y="-230.3" font-family="Times,serif" font-size="14.00">Event</text>
</g>
<!-- DualAttestation&#45;&gt;Event -->
<g id="edge9" class="edge">
<title>DualAttestation&#45;&gt;Event</title>
<path fill="none" stroke="black" d="M612.73,-590.28C491.19,-584.53 240.08,-569.23 214,-540 139.43,-456.43 175.39,-393.13 214,-288 218.31,-276.26 226.51,-265.34 234.74,-256.49"/>
<polygon fill="black" stroke="black" points="237.32,-258.86 241.88,-249.29 232.35,-253.93 237.32,-258.86"/>
</g>
<!-- Diem -->
<g id="node11" class="node">
<title>Diem</title>
<ellipse fill="none" stroke="black" cx="639" cy="-450" rx="30.59" ry="18"/>
<text text-anchor="middle" x="639" y="-446.3" font-family="Times,serif" font-size="14.00">Diem</text>
</g>
<!-- DualAttestation&#45;&gt;Diem -->
<g id="edge10" class="edge">
<title>DualAttestation&#45;&gt;Diem</title>
<path fill="none" stroke="black" d="M673.3,-575.87C666.62,-551.56 654.33,-506.82 646.42,-478.01"/>
<polygon fill="black" stroke="black" points="649.74,-476.91 643.72,-468.19 642.99,-478.76 649.74,-476.91"/>
</g>
<!-- XDX -->
<g id="node12" class="node">
<title>XDX</title>
<ellipse fill="none" stroke="black" cx="938" cy="-522" rx="29.8" ry="18"/>
<text text-anchor="middle" x="938" y="-518.3" font-family="Times,serif" font-size="14.00">XDX</text>
</g>
<!-- DualAttestation&#45;&gt;XDX -->
<g id="edge11" class="edge">
<title>DualAttestation&#45;&gt;XDX</title>
<path fill="none" stroke="black" d="M723.29,-580.81C773.85,-567.19 854.68,-545.43 901.41,-532.85"/>
<polygon fill="black" stroke="black" points="902.37,-536.22 911.12,-530.24 900.55,-529.46 902.37,-536.22"/>
</g>
<!-- VASP -->
<g id="node13" class="node">
<title>VASP</title>
<ellipse fill="none" stroke="black" cx="842" cy="-378" rx="32.49" ry="18"/>
<text text-anchor="middle" x="842" y="-374.3" font-family="Times,serif" font-size="14.00">VASP</text>
</g>
<!-- DualAttestation&#45;&gt;VASP -->
<g id="edge12" class="edge">
<title>DualAttestation&#45;&gt;VASP</title>
<path fill="none" stroke="black" d="M690.87,-576.21C719.82,-538.43 790.17,-446.63 823.68,-402.91"/>
<polygon fill="black" stroke="black" points="826.56,-404.91 829.86,-394.84 821,-400.65 826.56,-404.91"/>
</g>
<!-- CoreAddresses&#45;&gt;Signer -->
<g id="edge13" class="edge">
<title>CoreAddresses&#45;&gt;Signer</title>
<path fill="none" stroke="black" d="M455.85,-74.5C428.83,-62.67 390.8,-46.04 363.44,-34.07"/>
<polygon fill="black" stroke="black" points="364.8,-30.84 354.24,-30.04 362,-37.26 364.8,-30.84"/>
</g>
<!-- CoreAddresses&#45;&gt;Errors -->
<g id="edge14" class="edge">
<title>CoreAddresses&#45;&gt;Errors</title>
<path fill="none" stroke="black" d="M536.73,-77.98C546.71,-75.85 557.17,-73.74 567,-72 691.49,-49.92 839.95,-31.83 911.03,-23.67"/>
<polygon fill="black" stroke="black" points="911.81,-27.11 921.35,-22.5 911.02,-20.15 911.81,-27.11"/>
</g>
<!-- DiemTimestamp&#45;&gt;Errors -->
<g id="edge15" class="edge">
<title>DiemTimestamp&#45;&gt;Errors</title>
<path fill="none" stroke="black" d="M863.1,-144.15C881.08,-119.12 914.95,-71.97 935.59,-43.24"/>
<polygon fill="black" stroke="black" points="938.55,-45.12 941.54,-34.95 932.86,-41.03 938.55,-45.12"/>
</g>
<!-- DiemTimestamp&#45;&gt;CoreAddresses -->
<g id="edge16" class="edge">
<title>DiemTimestamp&#45;&gt;CoreAddresses</title>
<path fill="none" stroke="black" d="M796.02,-150.37C729.76,-137.55 618.76,-116.09 549.94,-102.78"/>
<polygon fill="black" stroke="black" points="550.58,-99.34 540.1,-100.88 549.25,-106.22 550.58,-99.34"/>
</g>
<!-- Roles&#45;&gt;Signer -->
<g id="edge17" class="edge">
<title>Roles&#45;&gt;Signer</title>
<path fill="none" stroke="black" d="M673.73,-216.5C658.28,-183.47 618.88,-109.18 562,-72 503.97,-34.07 422.42,-23.07 372.78,-20.01"/>
<polygon fill="black" stroke="black" points="372.86,-16.51 362.69,-19.47 372.49,-23.5 372.86,-16.51"/>
</g>
<!-- Roles&#45;&gt;Errors -->
<g id="edge18" class="edge">
<title>Roles&#45;&gt;Errors</title>
<path fill="none" stroke="black" d="M694.9,-217.67C711.97,-199.24 742.21,-167.8 771,-144 821.66,-102.12 886.11,-60.26 923.14,-37.19"/>
<polygon fill="black" stroke="black" points="925.29,-39.98 931.94,-31.74 921.6,-34.03 925.29,-39.98"/>
</g>
<!-- Roles&#45;&gt;CoreAddresses -->
<g id="edge19" class="edge">
<title>Roles&#45;&gt;CoreAddresses</title>
<path fill="none" stroke="black" d="M662.59,-219.38C629.29,-194.76 558.8,-142.62 518.64,-112.92"/>
<polygon fill="black" stroke="black" points="520.67,-110.07 510.55,-106.94 516.51,-115.7 520.67,-110.07"/>
</g>
<!-- Roles&#45;&gt;DiemTimestamp -->
<g id="edge20" class="edge">
<title>Roles&#45;&gt;DiemTimestamp</title>
<path fill="none" stroke="black" d="M705.36,-222.97C731.48,-212.21 773.56,-194.89 805.78,-181.62"/>
<polygon fill="black" stroke="black" points="807.52,-184.69 815.44,-177.64 804.86,-178.21 807.52,-184.69"/>
</g>
<!-- Event&#45;&gt;Signer -->
<g id="edge21" class="edge">
<title>Event&#45;&gt;Signer</title>
<path fill="none" stroke="black" d="M255.47,-215.92C250.04,-185.28 242.52,-119.69 266,-72 272.98,-57.83 285.67,-46.02 297.84,-37.17"/>
<polygon fill="black" stroke="black" points="299.82,-40.05 306.11,-31.52 295.88,-34.27 299.82,-40.05"/>
</g>
<!-- Event&#45;&gt;Errors -->
<g id="edge22" class="edge">
<title>Event&#45;&gt;Errors</title>
<path fill="none" stroke="black" d="M268.89,-216.71C290.6,-182.68 346.08,-104.5 416,-72 503.65,-31.27 798.88,-21.76 910.12,-19.61"/>
<polygon fill="black" stroke="black" points="910.36,-23.11 920.3,-19.42 910.23,-16.11 910.36,-23.11"/>
</g>
<!-- Event&#45;&gt;Vector -->
<g id="edge23" class="edge">
<title>Event&#45;&gt;Vector</title>
<path fill="none" stroke="black" d="M235.41,-222.06C210.29,-210.42 170.33,-191.89 141.86,-178.7"/>
<polygon fill="black" stroke="black" points="143.23,-175.47 132.68,-174.44 140.28,-181.82 143.23,-175.47"/>
</g>
<!-- Event&#45;&gt;BCS -->
<g id="edge24" class="edge">
<title>Event&#45;&gt;BCS</title>
<path fill="none" stroke="black" d="M243.73,-218.15C233.67,-208.37 220.33,-195.4 209.11,-184.5"/>
<polygon fill="black" stroke="black" points="211.36,-181.81 201.75,-177.35 206.49,-186.83 211.36,-181.81"/>
</g>
<!-- Diem&#45;&gt;Signer -->
<g id="edge25" class="edge">
<title>Diem&#45;&gt;Signer</title>
<path fill="none" stroke="black" d="M608.71,-447.27C530.33,-442.39 322.78,-426.84 262,-396 219.96,-374.67 77.96,-214.28 65,-180 27.74,-81.42 202.87,-39.35 286.56,-25.1"/>
<polygon fill="black" stroke="black" points="287.23,-28.53 296.53,-23.46 286.1,-21.63 287.23,-28.53"/>
</g>
<!-- Diem&#45;&gt;Errors -->
<g id="edge26" class="edge">
<title>Diem&#45;&gt;Errors</title>
<path fill="none" stroke="black" d="M669.08,-446.73C740.36,-439.95 922.26,-414.33 1038,-324 1078.11,-292.7 1110,-285.88 1110,-235 1110,-235 1110,-235 1110,-161 1110,-95.98 1035.02,-53.01 988.69,-32.67"/>
<polygon fill="black" stroke="black" points="989.85,-29.36 979.28,-28.67 987.11,-35.8 989.85,-29.36"/>
</g>
<!-- Diem&#45;&gt;CoreAddresses -->
<g id="edge27" class="edge">
<title>Diem&#45;&gt;CoreAddresses</title>
<path fill="none" stroke="black" d="M608.31,-449.6C566.38,-448.64 491.77,-440.29 451,-396 378.6,-317.34 442.79,-175 474.13,-116.82"/>
<polygon fill="black" stroke="black" points="477.27,-118.37 479.03,-107.92 471.14,-114.99 477.27,-118.37"/>
</g>
<!-- Diem&#45;&gt;DiemTimestamp -->
<g id="edge28" class="edge">
<title>Diem&#45;&gt;DiemTimestamp</title>
<path fill="none" stroke="black" d="M650.7,-433.22C685.71,-385.99 789.84,-245.51 832.48,-187.98"/>
<polygon fill="black" stroke="black" points="835.4,-189.92 838.54,-179.8 829.78,-185.75 835.4,-189.92"/>
</g>
<!-- Diem&#45;&gt;Roles -->
<g id="edge29" class="edge">
<title>Diem&#45;&gt;Roles</title>
<path fill="none" stroke="black" d="M642.37,-431.85C649.66,-394.66 666.99,-306.37 675.75,-261.77"/>
<polygon fill="black" stroke="black" points="679.18,-262.42 677.68,-251.94 672.32,-261.07 679.18,-262.42"/>
</g>
<!-- Diem&#45;&gt;Vector -->
<g id="edge31" class="edge">
<title>Diem&#45;&gt;Vector</title>
<path fill="none" stroke="black" d="M608.09,-449.48C549.45,-449.2 419.3,-442.83 323,-396 226.51,-349.08 152.3,-238.51 122.39,-188.44"/>
<polygon fill="black" stroke="black" points="125.25,-186.39 117.17,-179.54 119.21,-189.94 125.25,-186.39"/>
</g>
<!-- Diem&#45;&gt;Event -->
<g id="edge32" class="edge">
<title>Diem&#45;&gt;Event</title>
<path fill="none" stroke="black" d="M608.96,-446.11C546.62,-439.63 405.67,-422.45 366,-396 316.23,-362.82 283.89,-297.79 268.84,-261.35"/>
<polygon fill="black" stroke="black" points="272.02,-259.87 265.06,-251.88 265.52,-262.47 272.02,-259.87"/>
</g>
<!-- FixedPoint32 -->
<g id="node14" class="node">
<title>FixedPoint32</title>
<ellipse fill="none" stroke="black" cx="1100" cy="-378" rx="57.69" ry="18"/>
<text text-anchor="middle" x="1100" y="-374.3" font-family="Times,serif" font-size="14.00">FixedPoint32</text>
</g>
<!-- Diem&#45;&gt;FixedPoint32 -->
<g id="edge30" class="edge">
<title>Diem&#45;&gt;FixedPoint32</title>
<path fill="none" stroke="black" d="M668.93,-445.92C734.37,-438.96 894.98,-420.71 1028,-396 1033.91,-394.9 1040.06,-393.64 1046.17,-392.31"/>
<polygon fill="black" stroke="black" points="1047.37,-395.62 1056.36,-390.02 1045.83,-388.79 1047.37,-395.62"/>
</g>
<!-- RegisteredCurrencies -->
<g id="node15" class="node">
<title>RegisteredCurrencies</title>
<ellipse fill="none" stroke="black" cx="546" cy="-378" rx="86.38" ry="18"/>
<text text-anchor="middle" x="546" y="-374.3" font-family="Times,serif" font-size="14.00">RegisteredCurrencies</text>
</g>
<!-- Diem&#45;&gt;RegisteredCurrencies -->
<g id="edge33" class="edge">
<title>Diem&#45;&gt;RegisteredCurrencies</title>
<path fill="none" stroke="black" d="M620.63,-435.17C607.97,-425.64 590.86,-412.77 576.22,-401.75"/>
<polygon fill="black" stroke="black" points="578.03,-398.73 567.93,-395.51 573.82,-404.32 578.03,-398.73"/>
</g>
<!-- XDX&#45;&gt;Errors -->
<g id="edge34" class="edge">
<title>XDX&#45;&gt;Errors</title>
<path fill="none" stroke="black" d="M967.8,-519.85C1041.05,-515.28 1224,-492.51 1224,-379 1224,-379 1224,-379 1224,-161 1224,-59.03 1071.61,-30.14 995.38,-22.07"/>
<polygon fill="black" stroke="black" points="995.45,-18.56 985.15,-21.06 994.76,-25.53 995.45,-18.56"/>
</g>
<!-- XDX&#45;&gt;CoreAddresses -->
<g id="edge35" class="edge">
<title>XDX&#45;&gt;CoreAddresses</title>
<path fill="none" stroke="black" d="M908.51,-518.44C808.72,-509.12 486.55,-473.4 425,-396 355.15,-308.16 385.6,-241.6 441,-144 446.91,-133.58 455.18,-123.49 463.2,-114.96"/>
<polygon fill="black" stroke="black" points="465.91,-117.19 470.41,-107.6 460.91,-112.29 465.91,-117.19"/>
</g>
<!-- XDX&#45;&gt;DiemTimestamp -->
<g id="edge36" class="edge">
<title>XDX&#45;&gt;DiemTimestamp</title>
<path fill="none" stroke="black" d="M946.66,-504.69C970.63,-458.57 1034.8,-327.99 1015,-288 990.22,-237.95 934.74,-202.49 895.18,-182.41"/>
<polygon fill="black" stroke="black" points="896.52,-179.17 886,-177.88 893.42,-185.44 896.52,-179.17"/>
</g>
<!-- XDX&#45;&gt;Diem -->
<g id="edge38" class="edge">
<title>XDX&#45;&gt;Diem</title>
<path fill="none" stroke="black" d="M910.67,-514.6C857.12,-502.06 738.25,-474.23 677.04,-459.91"/>
<polygon fill="black" stroke="black" points="677.56,-456.43 667.02,-457.56 675.96,-463.25 677.56,-456.43"/>
</g>
<!-- XDX&#45;&gt;FixedPoint32 -->
<g id="edge37" class="edge">
<title>XDX&#45;&gt;FixedPoint32</title>
<path fill="none" stroke="black" d="M954.42,-506.6C982.57,-481.93 1040.25,-431.37 1073.94,-401.84"/>
<polygon fill="black" stroke="black" points="1076.34,-404.39 1081.55,-395.17 1071.73,-399.13 1076.34,-404.39"/>
</g>
<!-- AccountLimits -->
<g id="node16" class="node">
<title>AccountLimits</title>
<ellipse fill="none" stroke="black" cx="942" cy="-306" rx="63.89" ry="18"/>
<text text-anchor="middle" x="942" y="-302.3" font-family="Times,serif" font-size="14.00">AccountLimits</text>
</g>
<!-- XDX&#45;&gt;AccountLimits -->
<g id="edge39" class="edge">
<title>XDX&#45;&gt;AccountLimits</title>
<path fill="none" stroke="black" d="M938.32,-503.85C939.01,-466.83 940.65,-379.18 941.49,-334.39"/>
<polygon fill="black" stroke="black" points="944.99,-334.3 941.68,-324.23 937.99,-334.17 944.99,-334.3"/>
</g>
<!-- VASP&#45;&gt;Signer -->
<g id="edge40" class="edge">
<title>VASP&#45;&gt;Signer</title>
<path fill="none" stroke="black" d="M809.97,-374.71C719.39,-367.96 466.07,-347.18 437,-324 349.16,-253.96 332.65,-107.21 329.63,-46.35"/>
<polygon fill="black" stroke="black" points="333.13,-46.2 329.22,-36.35 326.14,-46.49 333.13,-46.2"/>
</g>
<!-- VASP&#45;&gt;Errors -->
<g id="edge41" class="edge">
<title>VASP&#45;&gt;Errors</title>
<path fill="none" stroke="black" d="M874.57,-377.68C915.04,-376.54 982.69,-367.69 1015,-324 1079.37,-236.96 1005.01,-99.35 969.64,-43.64"/>
<polygon fill="black" stroke="black" points="972.5,-41.61 964.13,-35.11 966.62,-45.41 972.5,-41.61"/>
</g>
<!-- VASP&#45;&gt;DiemTimestamp -->
<g id="edge42" class="edge">
<title>VASP&#45;&gt;DiemTimestamp</title>
<path fill="none" stroke="black" d="M842.72,-359.85C844.28,-322.83 847.96,-235.18 849.85,-190.39"/>
<polygon fill="black" stroke="black" points="853.35,-190.37 850.28,-180.23 846.36,-190.08 853.35,-190.37"/>
</g>
<!-- VASP&#45;&gt;Roles -->
<g id="edge43" class="edge">
<title>VASP&#45;&gt;Roles</title>
<path fill="none" stroke="black" d="M825.38,-362.34C796.79,-337.12 738.2,-285.45 705.12,-256.27"/>
<polygon fill="black" stroke="black" points="707.11,-253.36 697.29,-249.37 702.48,-258.61 707.11,-253.36"/>
</g>
<!-- VASP&#45;&gt;AccountLimits -->
<g id="edge44" class="edge">
<title>VASP&#45;&gt;AccountLimits</title>
<path fill="none" stroke="black" d="M861.28,-363.5C875.26,-353.72 894.48,-340.26 910.66,-328.94"/>
<polygon fill="black" stroke="black" points="913.09,-331.51 919.28,-322.91 909.08,-325.77 913.09,-331.51"/>
</g>
<!-- FixedPoint32&#45;&gt;Errors -->
<g id="edge45" class="edge">
<title>FixedPoint32&#45;&gt;Errors</title>
<path fill="none" stroke="black" d="M1118.24,-360.6C1143.48,-336.01 1186,-286.88 1186,-235 1186,-235 1186,-235 1186,-161 1186,-72.42 1061.68,-37.48 994.66,-25.08"/>
<polygon fill="black" stroke="black" points="994.88,-21.57 984.42,-23.28 993.67,-28.46 994.88,-21.57"/>
</g>
<!-- RegisteredCurrencies&#45;&gt;Errors -->
<g id="edge46" class="edge">
<title>RegisteredCurrencies&#45;&gt;Errors</title>
<path fill="none" stroke="black" d="M553.7,-359.76C568.01,-328.85 600.92,-262.86 641,-216 706.02,-139.97 727.65,-122.51 814,-72 846.11,-53.22 886.08,-38.8 914.91,-29.77"/>
<polygon fill="black" stroke="black" points="916.07,-33.08 924.61,-26.81 914.02,-26.38 916.07,-33.08"/>
</g>
<!-- RegisteredCurrencies&#45;&gt;DiemTimestamp -->
<g id="edge47" class="edge">
<title>RegisteredCurrencies&#45;&gt;DiemTimestamp</title>
<path fill="none" stroke="black" d="M572.23,-360.85C588.51,-350.62 609.74,-336.93 628,-324 670.66,-293.79 680.29,-284.78 721,-252 740.41,-236.37 743.74,-230.52 764,-216 779.86,-204.63 798.21,-193.21 813.96,-183.9"/>
<polygon fill="black" stroke="black" points="816.02,-186.75 822.89,-178.68 812.49,-180.71 816.02,-186.75"/>
</g>
<!-- RegisteredCurrencies&#45;&gt;Roles -->
<g id="edge48" class="edge">
<title>RegisteredCurrencies&#45;&gt;Roles</title>
<path fill="none" stroke="black" d="M562.97,-359.92C573.19,-349.59 586.42,-336.11 598,-324 619.28,-301.76 643.22,-276.01 659.9,-257.94"/>
<polygon fill="black" stroke="black" points="662.81,-259.95 667.02,-250.23 657.66,-255.2 662.81,-259.95"/>
</g>
<!-- RegisteredCurrencies&#45;&gt;Vector -->
<g id="edge49" class="edge">
<title>RegisteredCurrencies&#45;&gt;Vector</title>
<path fill="none" stroke="black" d="M495.89,-363.26C429.76,-343.95 310.98,-305.09 219,-252 186.18,-233.06 152.84,-204.86 131.38,-185.3"/>
<polygon fill="black" stroke="black" points="133.49,-182.48 123.77,-178.26 128.74,-187.62 133.49,-182.48"/>
</g>
<!-- DiemConfig -->
<g id="node17" class="node">
<title>DiemConfig</title>
<ellipse fill="none" stroke="black" cx="501" cy="-306" rx="54.69" ry="18"/>
<text text-anchor="middle" x="501" y="-302.3" font-family="Times,serif" font-size="14.00">DiemConfig</text>
</g>
<!-- RegisteredCurrencies&#45;&gt;DiemConfig -->
<g id="edge50" class="edge">
<title>RegisteredCurrencies&#45;&gt;DiemConfig</title>
<path fill="none" stroke="black" d="M535.11,-360.05C529.75,-351.71 523.17,-341.49 517.23,-332.25"/>
<polygon fill="black" stroke="black" points="520.14,-330.31 511.79,-323.79 514.26,-334.09 520.14,-330.31"/>
</g>
<!-- AccountLimits&#45;&gt;Signer -->
<g id="edge51" class="edge">
<title>AccountLimits&#45;&gt;Signer</title>
<path fill="none" stroke="black" d="M946.76,-287.97C954.67,-255.63 966.4,-184.88 931,-144 857.51,-59.13 498.39,-29.34 372.61,-21.41"/>
<polygon fill="black" stroke="black" points="372.77,-17.91 362.57,-20.79 372.34,-24.9 372.77,-17.91"/>
</g>
<!-- AccountLimits&#45;&gt;Errors -->
<g id="edge52" class="edge">
<title>AccountLimits&#45;&gt;Errors</title>
<path fill="none" stroke="black" d="M951.13,-287.88C956.01,-277.76 961.51,-264.51 964,-252 978.62,-178.62 966.41,-89.79 958.48,-46.04"/>
<polygon fill="black" stroke="black" points="961.91,-45.35 956.62,-36.17 955.03,-46.64 961.91,-45.35"/>
</g>
<!-- AccountLimits&#45;&gt;DiemTimestamp -->
<g id="edge53" class="edge">
<title>AccountLimits&#45;&gt;DiemTimestamp</title>
<path fill="none" stroke="black" d="M926.8,-288.51C917.85,-278.39 906.64,-264.92 898,-252 884.56,-231.9 871.92,-207.53 863.14,-189.37"/>
<polygon fill="black" stroke="black" points="866.13,-187.52 858.68,-179.99 859.81,-190.53 866.13,-187.52"/>
</g>
<!-- AccountLimits&#45;&gt;Roles -->
<g id="edge54" class="edge">
<title>AccountLimits&#45;&gt;Roles</title>
<path fill="none" stroke="black" d="M897.43,-293.05C846.83,-279.48 765.22,-257.59 718,-244.92"/>
<polygon fill="black" stroke="black" points="718.75,-241.5 708.19,-242.29 716.94,-248.26 718.75,-241.5"/>
</g>
<!-- DiemConfig&#45;&gt;Signer -->
<g id="edge55" class="edge">
<title>DiemConfig&#45;&gt;Signer</title>
<path fill="none" stroke="black" d="M490.76,-287.97C461.71,-239.67 378.69,-101.63 344.26,-44.37"/>
<polygon fill="black" stroke="black" points="347.13,-42.35 338.98,-35.59 341.13,-45.96 347.13,-42.35"/>
</g>
<!-- DiemConfig&#45;&gt;Errors -->
<g id="edge56" class="edge">
<title>DiemConfig&#45;&gt;Errors</title>
<path fill="none" stroke="black" d="M507.22,-287.87C524.29,-243.58 576.46,-125.02 663,-72 703.99,-46.89 840.98,-30.09 911.01,-22.93"/>
<polygon fill="black" stroke="black" points="911.64,-26.38 921.24,-21.9 910.94,-19.42 911.64,-26.38"/>
</g>
<!-- DiemConfig&#45;&gt;CoreAddresses -->
<g id="edge57" class="edge">
<title>DiemConfig&#45;&gt;CoreAddresses</title>
<path fill="none" stroke="black" d="M500.04,-287.85C497.96,-250.83 493.05,-163.18 490.54,-118.39"/>
<polygon fill="black" stroke="black" points="494.02,-118.02 489.97,-108.23 487.03,-118.41 494.02,-118.02"/>
</g>
<!-- DiemConfig&#45;&gt;DiemTimestamp -->
<g id="edge58" class="edge">
<title>DiemConfig&#45;&gt;DiemTimestamp</title>
<path fill="none" stroke="black" d="M521.18,-289.22C547.39,-269.43 595.24,-235.71 641,-216 686.56,-196.38 740.93,-182.9 782.93,-174.45"/>
<polygon fill="black" stroke="black" points="783.65,-177.88 792.79,-172.52 782.3,-171.01 783.65,-177.88"/>
</g>
<!-- DiemConfig&#45;&gt;Roles -->
<g id="edge59" class="edge">
<title>DiemConfig&#45;&gt;Roles</title>
<path fill="none" stroke="black" d="M534.86,-291.83C566.88,-279.38 614.7,-260.78 646.83,-248.29"/>
<polygon fill="black" stroke="black" points="648.21,-251.51 656.26,-244.62 645.67,-244.98 648.21,-251.51"/>
</g>
<!-- DiemConfig&#45;&gt;Event -->
<g id="edge60" class="edge">
<title>DiemConfig&#45;&gt;Event</title>
<path fill="none" stroke="black" d="M461.31,-293.52C415.53,-280.28 340.85,-258.68 296.17,-245.75"/>
<polygon fill="black" stroke="black" points="296.88,-242.31 286.3,-242.9 294.93,-249.04 296.88,-242.31"/>
</g>
</g>
</svg>
