<?xml version="1.0" encoding="UTF-8" standalone="no"?>
<!DOCTYPE svg PUBLIC "-//W3C//DTD SVG 1.1//EN"
 "http://www.w3.org/Graphics/SVG/1.1/DTD/svg11.dtd">
<!-- Generated by graphviz version 2.46.1 (20210213.1702)
 -->
<!-- Title: G Pages: 1 -->
<svg width="160pt" height="207pt"
 viewBox="0.00 0.00 160.00 207.00" xmlns="http://www.w3.org/2000/svg" xmlns:xlink="http://www.w3.org/1999/xlink">
<g id="graph0" class="graph" transform="scale(1 1) rotate(0) translate(4 203)">
<title>G</title>
<polygon fill="white" stroke="transparent" points="-4,4 -4,-203 156,-203 156,4 -4,4"/>
<g id="clust1" class="cluster">
<title>cluster_Errors</title>
<polygon fill="none" stroke="black" points="8,-8 8,-155 144,-155 144,-8 8,-8"/>
<text text-anchor="middle" x="76" y="-139.8" font-family="Times,serif" font-size="14.00">Errors</text>
</g>
<!-- expiration_date -->
<g id="node1" class="node">
<title>expiration_date</title>
<ellipse fill="none" stroke="black" cx="76" cy="-181" rx="65.79" ry="18"/>
<text text-anchor="middle" x="76" y="-177.3" font-family="Times,serif" font-size="14.00">expiration_date</text>
</g>
<!-- Errors::not_published -->
<g id="node2" class="node">
<title>Errors::not_published</title>
<ellipse fill="none" stroke="black" cx="76" cy="-106" rx="60.39" ry="18"/>
<text text-anchor="middle" x="76" y="-102.3" font-family="Times,serif" font-size="14.00">not_published</text>
</g>
<!-- expiration_date&#45;&gt;Errors::not_published -->
<g id="edge1" class="edge">
<title>expiration_date&#45;&gt;Errors::not_published</title>
<path fill="none" stroke="black" d="M76,-162.7C76,-154.25 76,-143.87 76,-134.37"/>
<polygon fill="black" stroke="black" points="79.5,-134.18 76,-124.18 72.5,-134.18 79.5,-134.18"/>
</g>
<!-- Errors::make -->
<g id="node3" class="node">
<title>Errors::make</title>
<ellipse fill="none" stroke="black" cx="76" cy="-34" rx="30.59" ry="18"/>
<text text-anchor="middle" x="76" y="-30.3" font-family="Times,serif" font-size="14.00">make</text>
</g>
<!-- Errors::not_published&#45;&gt;Errors::make -->
<g id="edge2" class="edge">
<title>Errors::not_published&#45;&gt;Errors::make</title>
<path fill="none" stroke="black" d="M76,-87.7C76,-79.98 76,-70.71 76,-62.11"/>
<polygon fill="black" stroke="black" points="79.5,-62.1 76,-52.1 72.5,-62.1 79.5,-62.1"/>
</g>
</g>
</svg>
