<?xml version="1.0" encoding="UTF-8" standalone="no"?>
<!DOCTYPE svg PUBLIC "-//W3C//DTD SVG 1.1//EN"
 "http://www.w3.org/Graphics/SVG/1.1/DTD/svg11.dtd">
<!-- Generated by graphviz version 2.46.1 (20210213.1702)
 -->
<!-- Title: G Pages: 1 -->
<svg width="390pt" height="282pt"
 viewBox="0.00 0.00 390.00 282.00" xmlns="http://www.w3.org/2000/svg" xmlns:xlink="http://www.w3.org/1999/xlink">
<g id="graph0" class="graph" transform="scale(1 1) rotate(0) translate(4 278)">
<title>G</title>
<polygon fill="white" stroke="transparent" points="-4,4 -4,-278 386,-278 386,4 -4,4"/>
<g id="clust1" class="cluster">
<title>cluster_VASP</title>
<polygon fill="none" stroke="black" points="8,-80 8,-230 204,-230 204,-80 8,-80"/>
<text text-anchor="middle" x="106" y="-214.8" font-family="Times,serif" font-size="14.00">VASP</text>
</g>
<g id="clust2" class="cluster">
<title>cluster_Errors</title>
<polygon fill="none" stroke="black" points="212,-8 212,-155 374,-155 374,-8 212,-8"/>
<text text-anchor="middle" x="293" y="-139.8" font-family="Times,serif" font-size="14.00">Errors</text>
</g>
<!-- credential_address -->
<g id="node1" class="node">
<title>credential_address</title>
<ellipse fill="none" stroke="black" cx="86" cy="-256" rx="76.09" ry="18"/>
<text text-anchor="middle" x="86" y="-252.3" font-family="Times,serif" font-size="14.00">credential_address</text>
</g>
<!-- VASP::is_child -->
<g id="node2" class="node">
<title>VASP::is_child</title>
<ellipse fill="none" stroke="black" cx="54" cy="-106" rx="38.19" ry="18"/>
<text text-anchor="middle" x="54" y="-102.3" font-family="Times,serif" font-size="14.00">is_child</text>
</g>
<!-- credential_address&#45;&gt;VASP::is_child -->
<g id="edge1" class="edge">
<title>credential_address&#45;&gt;VASP::is_child</title>
<path fill="none" stroke="black" d="M64.54,-238.42C62.33,-235.84 60.39,-233.02 59,-230 44.98,-199.6 46.24,-160.36 49.34,-134.47"/>
<polygon fill="black" stroke="black" points="52.85,-134.64 50.74,-124.26 45.91,-133.69 52.85,-134.64"/>
</g>
<!-- VASP::parent_address -->
<g id="node3" class="node">
<title>VASP::parent_address</title>
<ellipse fill="none" stroke="black" cx="132" cy="-181" rx="63.89" ry="18"/>
<text text-anchor="middle" x="132" y="-177.3" font-family="Times,serif" font-size="14.00">parent_address</text>
</g>
<!-- credential_address&#45;&gt;VASP::parent_address -->
<g id="edge2" class="edge">
<title>credential_address&#45;&gt;VASP::parent_address</title>
<path fill="none" stroke="black" d="M96.67,-238.07C102.42,-228.95 109.62,-217.51 116.03,-207.35"/>
<polygon fill="black" stroke="black" points="119.02,-209.17 121.39,-198.84 113.1,-205.43 119.02,-209.17"/>
</g>
<!-- VASP::parent_address&#45;&gt;VASP::is_child -->
<g id="edge4" class="edge">
<title>VASP::parent_address&#45;&gt;VASP::is_child</title>
<path fill="none" stroke="black" d="M111.37,-163.93C107.85,-161.02 104.28,-157.97 101,-155 92.58,-147.36 83.76,-138.57 76.06,-130.62"/>
<polygon fill="black" stroke="black" points="78.23,-127.83 68.79,-123.03 73.18,-132.67 78.23,-127.83"/>
</g>
<!-- Errors::invalid_argument -->
<g id="node4" class="node">
<title>Errors::invalid_argument</title>
<ellipse fill="none" stroke="black" cx="293" cy="-106" rx="73.39" ry="18"/>
<text text-anchor="middle" x="293" y="-102.3" font-family="Times,serif" font-size="14.00">invalid_argument</text>
</g>
<!-- VASP::parent_address&#45;&gt;Errors::invalid_argument -->
<g id="edge3" class="edge">
<title>VASP::parent_address&#45;&gt;Errors::invalid_argument</title>
<path fill="none" stroke="black" d="M174.77,-167.56C185.76,-163.92 197.45,-159.66 208,-155 225.2,-147.4 243.46,-137.37 258.63,-128.45"/>
<polygon fill="black" stroke="black" points="260.85,-131.2 267.64,-123.06 257.26,-125.19 260.85,-131.2"/>
</g>
<!-- VASP::is_parent -->
<g id="node5" class="node">
<title>VASP::is_parent</title>
<ellipse fill="none" stroke="black" cx="153" cy="-106" rx="42.79" ry="18"/>
<text text-anchor="middle" x="153" y="-102.3" font-family="Times,serif" font-size="14.00">is_parent</text>
</g>
<!-- VASP::parent_address&#45;&gt;VASP::is_parent -->
<g id="edge5" class="edge">
<title>VASP::parent_address&#45;&gt;VASP::is_parent</title>
<path fill="none" stroke="black" d="M136.98,-162.7C139.48,-154 142.57,-143.27 145.36,-133.55"/>
<polygon fill="black" stroke="black" points="148.73,-134.5 148.13,-123.92 142,-132.57 148.73,-134.5"/>
</g>
<!-- Errors::make -->
<g id="node6" class="node">
<title>Errors::make</title>
<ellipse fill="none" stroke="black" cx="293" cy="-34" rx="30.59" ry="18"/>
<text text-anchor="middle" x="293" y="-30.3" font-family="Times,serif" font-size="14.00">make</text>
</g>
<!-- Errors::invalid_argument&#45;&gt;Errors::make -->
<g id="edge6" class="edge">
<title>Errors::invalid_argument&#45;&gt;Errors::make</title>
<path fill="none" stroke="black" d="M293,-87.7C293,-79.98 293,-70.71 293,-62.11"/>
<polygon fill="black" stroke="black" points="296.5,-62.1 293,-52.1 289.5,-62.1 296.5,-62.1"/>
</g>
</g>
</svg>
