<?xml version="1.0" encoding="UTF-8" standalone="no"?>
<!DOCTYPE svg PUBLIC "-//W3C//DTD SVG 1.1//EN"
 "http://www.w3.org/Graphics/SVG/1.1/DTD/svg11.dtd">
<!-- Generated by graphviz version 2.46.1 (20210213.1702)
 -->
<!-- Title: G Pages: 1 -->
<svg width="1130pt" height="260pt"
 viewBox="0.00 0.00 1129.67 260.00" xmlns="http://www.w3.org/2000/svg" xmlns:xlink="http://www.w3.org/1999/xlink">
<g id="graph0" class="graph" transform="scale(1 1) rotate(0) translate(4 256)">
<title>G</title>
<polygon fill="white" stroke="transparent" points="-4,4 -4,-256 1125.67,-256 1125.67,4 -4,4"/>
<!-- DualAttestation -->
<g id="node1" class="node">
<title>DualAttestation</title>
<ellipse fill="none" stroke="black" cx="928.29" cy="-18" rx="66.09" ry="18"/>
<text text-anchor="middle" x="928.29" y="-14.3" font-family="Times,serif" font-size="14.00">DualAttestation</text>
</g>
<!-- DiemAccount -->
<g id="node2" class="node">
<title>DiemAccount</title>
<ellipse fill="none" stroke="black" cx="580.29" cy="-90" rx="60.39" ry="18"/>
<text text-anchor="middle" x="580.29" y="-86.3" font-family="Times,serif" font-size="14.00">DiemAccount</text>
</g>
<!-- DiemAccount&#45;&gt;DualAttestation -->
<g id="edge1" class="edge">
<title>DiemAccount&#45;&gt;DualAttestation</title>
<path fill="none" stroke="black" d="M629.05,-79.19C691.23,-66.68 798.82,-45.04 866.64,-31.4"/>
<polygon fill="black" stroke="black" points="867.64,-34.77 876.75,-29.37 866.26,-27.91 867.64,-34.77"/>
</g>
<!-- AccountAdministrationScripts -->
<g id="node3" class="node">
<title>AccountAdministrationScripts</title>
<ellipse fill="none" stroke="black" cx="389.29" cy="-234" rx="118.08" ry="18"/>
<text text-anchor="middle" x="389.29" y="-230.3" font-family="Times,serif" font-size="14.00">AccountAdministrationScripts</text>
</g>
<!-- AccountAdministrationScripts&#45;&gt;DualAttestation -->
<g id="edge2" class="edge">
<title>AccountAdministrationScripts&#45;&gt;DualAttestation</title>
<path fill="none" stroke="black" d="M507.6,-232.88C701.22,-231.43 1068.36,-222.98 1108.29,-180 1160.76,-123.53 1045.03,-65.13 975.63,-36.7"/>
<polygon fill="black" stroke="black" points="976.75,-33.38 966.16,-32.89 974.13,-39.87 976.75,-33.38"/>
</g>
<!-- AccountAdministrationScripts&#45;&gt;DiemAccount -->
<g id="edge7" class="edge">
<title>AccountAdministrationScripts&#45;&gt;DiemAccount</title>
<path fill="none" stroke="black" d="M293.84,-223.28C221.09,-212.15 139.62,-189.26 179.29,-144 200.79,-119.48 402.22,-102.64 511.15,-95.24"/>
<polygon fill="black" stroke="black" points="511.65,-98.72 521.39,-94.56 511.18,-91.73 511.65,-98.72"/>
</g>
<!-- SharedEd25519PublicKey -->
<g id="node6" class="node">
<title>SharedEd25519PublicKey</title>
<ellipse fill="none" stroke="black" cx="292.29" cy="-162" rx="103.98" ry="18"/>
<text text-anchor="middle" x="292.29" y="-158.3" font-family="Times,serif" font-size="14.00">SharedEd25519PublicKey</text>
</g>
<!-- AccountAdministrationScripts&#45;&gt;SharedEd25519PublicKey -->
<g id="edge12" class="edge">
<title>AccountAdministrationScripts&#45;&gt;SharedEd25519PublicKey</title>
<path fill="none" stroke="black" d="M365.81,-216.05C353.18,-206.94 337.44,-195.58 323.76,-185.71"/>
<polygon fill="black" stroke="black" points="325.72,-182.8 315.56,-179.79 321.62,-188.48 325.72,-182.8"/>
</g>
<!-- RecoveryAddress -->
<g id="node7" class="node">
<title>RecoveryAddress</title>
<ellipse fill="none" stroke="black" cx="487.29" cy="-162" rx="73.39" ry="18"/>
<text text-anchor="middle" x="487.29" y="-158.3" font-family="Times,serif" font-size="14.00">RecoveryAddress</text>
</g>
<!-- AccountAdministrationScripts&#45;&gt;RecoveryAddress -->
<g id="edge13" class="edge">
<title>AccountAdministrationScripts&#45;&gt;RecoveryAddress</title>
<path fill="none" stroke="black" d="M413.02,-216.05C425.96,-206.81 442.15,-195.24 456.11,-185.27"/>
<polygon fill="black" stroke="black" points="458.36,-187.97 464.46,-179.31 454.29,-182.27 458.36,-187.97"/>
</g>
<!-- Genesis -->
<g id="node4" class="node">
<title>Genesis</title>
<ellipse fill="none" stroke="black" cx="824.29" cy="-162" rx="38.19" ry="18"/>
<text text-anchor="middle" x="824.29" y="-158.3" font-family="Times,serif" font-size="14.00">Genesis</text>
</g>
<!-- Genesis&#45;&gt;DualAttestation -->
<g id="edge3" class="edge">
<title>Genesis&#45;&gt;DualAttestation</title>
<path fill="none" stroke="black" d="M836.22,-144.71C854.21,-120.15 888.43,-73.43 909.7,-44.38"/>
<polygon fill="black" stroke="black" points="912.77,-46.11 915.86,-35.98 907.13,-41.98 912.77,-46.11"/>
</g>
<!-- Genesis&#45;&gt;DiemAccount -->
<g id="edge9" class="edge">
<title>Genesis&#45;&gt;DiemAccount</title>
<path fill="none" stroke="black" d="M795.34,-150.1C789.4,-147.98 783.17,-145.85 777.29,-144 729.8,-129.05 675.06,-114.54 635.35,-104.49"/>
<polygon fill="black" stroke="black" points="636.15,-101.08 625.6,-102.03 634.44,-107.87 636.15,-101.08"/>
</g>
<!-- TreasuryComplianceScripts -->
<g id="node5" class="node">
<title>TreasuryComplianceScripts</title>
<ellipse fill="none" stroke="black" cx="990.29" cy="-162" rx="109.38" ry="18"/>
<text text-anchor="middle" x="990.29" y="-158.3" font-family="Times,serif" font-size="14.00">TreasuryComplianceScripts</text>
</g>
<!-- TreasuryComplianceScripts&#45;&gt;DualAttestation -->
<g id="edge4" class="edge">
<title>TreasuryComplianceScripts&#45;&gt;DualAttestation</title>
<path fill="none" stroke="black" d="M982.82,-143.87C972.16,-119.46 952.49,-74.43 939.92,-45.64"/>
<polygon fill="black" stroke="black" points="943.01,-43.95 935.8,-36.19 936.59,-46.75 943.01,-43.95"/>
</g>
<!-- TreasuryComplianceScripts&#45;&gt;DiemAccount -->
<g id="edge11" class="edge">
<title>TreasuryComplianceScripts&#45;&gt;DiemAccount</title>
<path fill="none" stroke="black" d="M917.47,-148.57C838.9,-135.15 715.17,-114.03 641.46,-101.44"/>
<polygon fill="black" stroke="black" points="641.85,-97.96 631.4,-99.73 640.67,-104.86 641.85,-97.96"/>
</g>
<!-- SharedEd25519PublicKey&#45;&gt;DiemAccount -->
<g id="edge5" class="edge">
<title>SharedEd25519PublicKey&#45;&gt;DiemAccount</title>
<path fill="none" stroke="black" d="M349.88,-147C400.98,-134.58 475.1,-116.57 525.37,-104.35"/>
<polygon fill="black" stroke="black" points="526.2,-107.75 535.09,-101.99 524.55,-100.95 526.2,-107.75"/>
</g>
<!-- RecoveryAddress&#45;&gt;DiemAccount -->
<g id="edge6" class="edge">
<title>RecoveryAddress&#45;&gt;DiemAccount</title>
<path fill="none" stroke="black" d="M508.86,-144.76C521.39,-135.33 537.36,-123.32 551.01,-113.04"/>
<polygon fill="black" stroke="black" points="553.28,-115.72 559.16,-106.91 549.07,-110.12 553.28,-115.72"/>
</g>
<!-- AccountCreationScripts -->
<g id="node8" class="node">
<title>AccountCreationScripts</title>
<ellipse fill="none" stroke="black" cx="673.29" cy="-162" rx="94.78" ry="18"/>
<text text-anchor="middle" x="673.29" y="-158.3" font-family="Times,serif" font-size="14.00">AccountCreationScripts</text>
</g>
<!-- AccountCreationScripts&#45;&gt;DiemAccount -->
<g id="edge8" class="edge">
<title>AccountCreationScripts&#45;&gt;DiemAccount</title>
<path fill="none" stroke="black" d="M651.25,-144.41C638.8,-135.04 623.07,-123.2 609.59,-113.05"/>
<polygon fill="black" stroke="black" points="611.63,-110.21 601.54,-106.99 607.42,-115.8 611.63,-110.21"/>
</g>
<!-- PaymentScripts -->
<g id="node9" class="node">
<title>PaymentScripts</title>
<ellipse fill="none" stroke="black" cx="66.29" cy="-162" rx="66.09" ry="18"/>
<text text-anchor="middle" x="66.29" y="-158.3" font-family="Times,serif" font-size="14.00">PaymentScripts</text>
</g>
<!-- PaymentScripts&#45;&gt;DiemAccount -->
<g id="edge10" class="edge">
<title>PaymentScripts&#45;&gt;DiemAccount</title>
<path fill="none" stroke="black" d="M115.67,-149.8C125.77,-147.71 136.35,-145.66 146.29,-144 275.62,-122.41 428,-105.82 513.46,-97.32"/>
<polygon fill="black" stroke="black" points="513.93,-100.79 523.54,-96.32 513.24,-93.82 513.93,-100.79"/>
</g>
</g>
</svg>
