<?xml version="1.0" encoding="UTF-8" standalone="no"?>
<!DOCTYPE svg PUBLIC "-//W3C//DTD SVG 1.1//EN"
 "http://www.w3.org/Graphics/SVG/1.1/DTD/svg11.dtd">
<!-- Generated by graphviz version 2.46.1 (20210213.1702)
 -->
<!-- Title: G Pages: 1 -->
<svg width="634pt" height="437pt"
 viewBox="0.00 0.00 634.00 437.00" xmlns="http://www.w3.org/2000/svg" xmlns:xlink="http://www.w3.org/1999/xlink">
<g id="graph0" class="graph" transform="scale(1 1) rotate(0) translate(4 433)">
<title>G</title>
<polygon fill="white" stroke="transparent" points="-4,4 -4,-433 630,-433 630,4 -4,4"/>
<g id="clust1" class="cluster">
<title>cluster_Signer</title>
<polygon fill="none" stroke="black" points="8,-238 8,-385 158,-385 158,-238 8,-238"/>
<text text-anchor="middle" x="83" y="-369.8" font-family="Times,serif" font-size="14.00">Signer</text>
</g>
<g id="clust2" class="cluster">
<title>cluster_Errors</title>
<polygon fill="none" stroke="black" points="352,-8 352,-166 618,-166 618,-8 352,-8"/>
<text text-anchor="middle" x="485" y="-150.8" font-family="Times,serif" font-size="14.00">Errors</text>
</g>
<g id="clust3" class="cluster">
<title>cluster_DiemTimestamp</title>
<polygon fill="none" stroke="black" points="166,-91 166,-385 340,-385 340,-91 166,-91"/>
<text text-anchor="middle" x="253" y="-369.8" font-family="Times,serif" font-size="14.00">DiemTimestamp</text>
</g>
<g id="clust4" class="cluster">
<title>cluster_Event</title>
<polygon fill="none" stroke="black" points="348,-238 348,-385 534,-385 534,-238 348,-238"/>
<text text-anchor="middle" x="441" y="-369.8" font-family="Times,serif" font-size="14.00">Event</text>
</g>
<g id="clust5" class="cluster">
<title>cluster_CoreAddresses</title>
<polygon fill="none" stroke="black" points="83,-8 83,-83 313,-83 313,-8 83,-8"/>
<text text-anchor="middle" x="198" y="-67.8" font-family="Times,serif" font-size="14.00">CoreAddresses</text>
</g>
<!-- rotate_base_url -->
<g id="node1" class="node">
<title>rotate_base_url</title>
<ellipse fill="none" stroke="black" cx="348" cy="-411" rx="64.99" ry="18"/>
<text text-anchor="middle" x="348" y="-407.3" font-family="Times,serif" font-size="14.00">rotate_base_url</text>
</g>
<!-- Signer::address_of -->
<g id="node2" class="node">
<title>Signer::address_of</title>
<ellipse fill="none" stroke="black" cx="92" cy="-336" rx="48.99" ry="18"/>
<text text-anchor="middle" x="92" y="-332.3" font-family="Times,serif" font-size="14.00">address_of</text>
</g>
<!-- rotate_base_url&#45;&gt;Signer::address_of -->
<g id="edge1" class="edge">
<title>rotate_base_url&#45;&gt;Signer::address_of</title>
<path fill="none" stroke="black" d="M283.33,-408.67C246.7,-406.13 200.62,-399.86 162,-385 146.24,-378.94 130.57,-368.69 118.06,-359.21"/>
<polygon fill="black" stroke="black" points="119.97,-356.26 109.95,-352.84 115.65,-361.77 119.97,-356.26"/>
</g>
<!-- Errors::not_published -->
<g id="node3" class="node">
<title>Errors::not_published</title>
<ellipse fill="none" stroke="black" cx="550" cy="-117" rx="60.39" ry="18"/>
<text text-anchor="middle" x="550" y="-113.3" font-family="Times,serif" font-size="14.00">not_published</text>
</g>
<!-- rotate_base_url&#45;&gt;Errors::not_published -->
<g id="edge2" class="edge">
<title>rotate_base_url&#45;&gt;Errors::not_published</title>
<path fill="none" stroke="black" d="M413.01,-410.06C461.27,-408.59 521.47,-403.02 538,-385 599.17,-318.33 574.12,-198.31 558.7,-144.9"/>
<polygon fill="black" stroke="black" points="562,-143.71 555.77,-135.14 555.29,-145.72 562,-143.71"/>
</g>
<!-- DiemTimestamp::now_seconds -->
<g id="node4" class="node">
<title>DiemTimestamp::now_seconds</title>
<ellipse fill="none" stroke="black" cx="263" cy="-336" rx="57.69" ry="18"/>
<text text-anchor="middle" x="263" y="-332.3" font-family="Times,serif" font-size="14.00">now_seconds</text>
</g>
<!-- rotate_base_url&#45;&gt;DiemTimestamp::now_seconds -->
<g id="edge3" class="edge">
<title>rotate_base_url&#45;&gt;DiemTimestamp::now_seconds</title>
<path fill="none" stroke="black" d="M328.71,-393.44C317.22,-383.57 302.46,-370.89 289.85,-360.06"/>
<polygon fill="black" stroke="black" points="291.79,-357.11 281.92,-353.25 287.22,-362.42 291.79,-357.11"/>
</g>
<!-- Event::emit_event -->
<g id="node5" class="node">
<title>Event::emit_event</title>
<ellipse fill="none" stroke="black" cx="423" cy="-336" rx="50.09" ry="18"/>
<text text-anchor="middle" x="423" y="-332.3" font-family="Times,serif" font-size="14.00">emit_event</text>
</g>
<!-- rotate_base_url&#45;&gt;Event::emit_event -->
<g id="edge4" class="edge">
<title>rotate_base_url&#45;&gt;Event::emit_event</title>
<path fill="none" stroke="black" d="M365.02,-393.44C375.06,-383.66 387.93,-371.13 398.99,-360.37"/>
<polygon fill="black" stroke="black" points="401.58,-362.73 406.31,-353.25 396.7,-357.71 401.58,-362.73"/>
</g>
<!-- Signer::borrow_address -->
<g id="node6" class="node">
<title>Signer::borrow_address</title>
<ellipse fill="none" stroke="black" cx="83" cy="-264" rx="66.89" ry="18"/>
<text text-anchor="middle" x="83" y="-260.3" font-family="Times,serif" font-size="14.00">borrow_address</text>
</g>
<!-- Signer::address_of&#45;&gt;Signer::borrow_address -->
<g id="edge5" class="edge">
<title>Signer::address_of&#45;&gt;Signer::borrow_address</title>
<path fill="none" stroke="black" d="M89.78,-317.7C88.78,-309.98 87.59,-300.71 86.49,-292.11"/>
<polygon fill="black" stroke="black" points="89.95,-291.58 85.2,-282.1 83,-292.47 89.95,-291.58"/>
</g>
<!-- Errors::make -->
<g id="node7" class="node">
<title>Errors::make</title>
<ellipse fill="none" stroke="black" cx="483" cy="-34" rx="30.59" ry="18"/>
<text text-anchor="middle" x="483" y="-30.3" font-family="Times,serif" font-size="14.00">make</text>
</g>
<!-- Errors::not_published&#45;&gt;Errors::make -->
<g id="edge6" class="edge">
<title>Errors::not_published&#45;&gt;Errors::make</title>
<path fill="none" stroke="black" d="M536.12,-99.22C526.28,-87.32 512.95,-71.21 502.11,-58.1"/>
<polygon fill="black" stroke="black" points="504.8,-55.87 495.73,-50.39 499.41,-60.33 504.8,-55.87"/>
</g>
<!-- DiemTimestamp::now_microseconds -->
<g id="node8" class="node">
<title>DiemTimestamp::now_microseconds</title>
<ellipse fill="none" stroke="black" cx="253" cy="-264" rx="79.09" ry="18"/>
<text text-anchor="middle" x="253" y="-260.3" font-family="Times,serif" font-size="14.00">now_microseconds</text>
</g>
<!-- DiemTimestamp::now_seconds&#45;&gt;DiemTimestamp::now_microseconds -->
<g id="edge7" class="edge">
<title>DiemTimestamp::now_seconds&#45;&gt;DiemTimestamp::now_microseconds</title>
<path fill="none" stroke="black" d="M260.53,-317.7C259.43,-309.98 258.1,-300.71 256.87,-292.11"/>
<polygon fill="black" stroke="black" points="260.32,-291.51 255.44,-282.1 253.39,-292.5 260.32,-291.51"/>
</g>
<!-- Event::write_to_event_store -->
<g id="node9" class="node">
<title>Event::write_to_event_store</title>
<ellipse fill="none" stroke="black" cx="441" cy="-264" rx="85.29" ry="18"/>
<text text-anchor="middle" x="441" y="-260.3" font-family="Times,serif" font-size="14.00">write_to_event_store</text>
</g>
<!-- Event::emit_event&#45;&gt;Event::write_to_event_store -->
<g id="edge8" class="edge">
<title>Event::emit_event&#45;&gt;Event::write_to_event_store</title>
<path fill="none" stroke="black" d="M427.36,-318.05C429.36,-310.26 431.79,-300.82 434.04,-292.08"/>
<polygon fill="black" stroke="black" points="437.46,-292.83 436.56,-282.28 430.68,-291.09 437.46,-292.83"/>
</g>
<!-- CoreAddresses::DIEM_ROOT_ADDRESS -->
<g id="node10" class="node">
<title>CoreAddresses::DIEM_ROOT_ADDRESS</title>
<ellipse fill="none" stroke="black" cx="198" cy="-34" rx="106.68" ry="18"/>
<text text-anchor="middle" x="198" y="-30.3" font-family="Times,serif" font-size="14.00">DIEM_ROOT_ADDRESS</text>
</g>
<!-- DiemTimestamp::now_microseconds&#45;&gt;CoreAddresses::DIEM_ROOT_ADDRESS -->
<g id="edge9" class="edge">
<title>DiemTimestamp::now_microseconds&#45;&gt;CoreAddresses::DIEM_ROOT_ADDRESS</title>
<path fill="none" stroke="black" d="M223.02,-247.26C209.35,-238.33 194.56,-225.77 187,-210 163.94,-161.91 177.6,-97.67 188.51,-61.92"/>
<polygon fill="black" stroke="black" points="191.91,-62.8 191.63,-52.21 185.24,-60.66 191.91,-62.8"/>
</g>
<!-- DiemTimestamp::assert_operating -->
<g id="node11" class="node">
<title>DiemTimestamp::assert_operating</title>
<ellipse fill="none" stroke="black" cx="264" cy="-192" rx="68.49" ry="18"/>
<text text-anchor="middle" x="264" y="-188.3" font-family="Times,serif" font-size="14.00">assert_operating</text>
</g>
<!-- DiemTimestamp::now_microseconds&#45;&gt;DiemTimestamp::assert_operating -->
<g id="edge10" class="edge">
<title>DiemTimestamp::now_microseconds&#45;&gt;DiemTimestamp::assert_operating</title>
<path fill="none" stroke="black" d="M255.72,-245.7C256.93,-237.98 258.39,-228.71 259.74,-220.11"/>
<polygon fill="black" stroke="black" points="263.22,-220.53 261.31,-210.1 256.3,-219.44 263.22,-220.53"/>
</g>
<!-- Errors::invalid_state -->
<g id="node12" class="node">
<title>Errors::invalid_state</title>
<ellipse fill="none" stroke="black" cx="416" cy="-117" rx="55.79" ry="18"/>
<text text-anchor="middle" x="416" y="-113.3" font-family="Times,serif" font-size="14.00">invalid_state</text>
</g>
<!-- DiemTimestamp::assert_operating&#45;&gt;Errors::invalid_state -->
<g id="edge11" class="edge">
<title>DiemTimestamp::assert_operating&#45;&gt;Errors::invalid_state</title>
<path fill="none" stroke="black" d="M310.97,-178.78C322.04,-175.23 333.63,-170.95 344,-166 358.98,-158.85 374.44,-148.93 387.18,-139.96"/>
<polygon fill="black" stroke="black" points="389.46,-142.63 395.52,-133.95 385.36,-136.95 389.46,-142.63"/>
</g>
<!-- DiemTimestamp::is_operating -->
<g id="node13" class="node">
<title>DiemTimestamp::is_operating</title>
<ellipse fill="none" stroke="black" cx="257" cy="-117" rx="53.89" ry="18"/>
<text text-anchor="middle" x="257" y="-113.3" font-family="Times,serif" font-size="14.00">is_operating</text>
</g>
<!-- DiemTimestamp::assert_operating&#45;&gt;DiemTimestamp::is_operating -->
<g id="edge12" class="edge">
<title>DiemTimestamp::assert_operating&#45;&gt;DiemTimestamp::is_operating</title>
<path fill="none" stroke="black" d="M262.34,-173.7C261.53,-165.25 260.54,-154.87 259.62,-145.37"/>
<polygon fill="black" stroke="black" points="263.09,-144.8 258.65,-135.18 256.12,-145.46 263.09,-144.8"/>
</g>
<!-- Errors::invalid_state&#45;&gt;Errors::make -->
<g id="edge13" class="edge">
<title>Errors::invalid_state&#45;&gt;Errors::make</title>
<path fill="none" stroke="black" d="M429.88,-99.22C439.72,-87.32 453.05,-71.21 463.89,-58.1"/>
<polygon fill="black" stroke="black" points="466.59,-60.33 470.27,-50.39 461.2,-55.87 466.59,-60.33"/>
</g>
<!-- DiemTimestamp::is_operating&#45;&gt;CoreAddresses::DIEM_ROOT_ADDRESS -->
<g id="edge14" class="edge">
<title>DiemTimestamp::is_operating&#45;&gt;CoreAddresses::DIEM_ROOT_ADDRESS</title>
<path fill="none" stroke="black" d="M244.78,-99.22C236.6,-88 225.7,-73.03 216.48,-60.36"/>
<polygon fill="black" stroke="black" points="219.13,-58.06 210.41,-52.04 213.47,-62.18 219.13,-58.06"/>
</g>
</g>
</svg>
