<?xml version="1.0" encoding="UTF-8" standalone="no"?>
<!DOCTYPE svg PUBLIC "-//W3C//DTD SVG 1.1//EN"
 "http://www.w3.org/Graphics/SVG/1.1/DTD/svg11.dtd">
<!-- Generated by graphviz version 2.46.1 (20210213.1702)
 -->
<!-- Title: G Pages: 1 -->
<svg width="3616pt" height="764pt"
 viewBox="0.00 0.00 3615.95 764.00" xmlns="http://www.w3.org/2000/svg" xmlns:xlink="http://www.w3.org/1999/xlink">
<g id="graph0" class="graph" transform="scale(1 1) rotate(0) translate(4 760)">
<title>G</title>
<polygon fill="white" stroke="transparent" points="-4,4 -4,-760 3611.95,-760 3611.95,4 -4,4"/>
<!-- Genesis -->
<g id="node1" class="node">
<title>Genesis</title>
<ellipse fill="none" stroke="black" cx="1764" cy="-738" rx="38.19" ry="18"/>
<text text-anchor="middle" x="1764" y="-734.3" font-family="Times,serif" font-size="14.00">Genesis</text>
</g>
<!-- DiemTimestamp -->
<g id="node2" class="node">
<title>DiemTimestamp</title>
<ellipse fill="none" stroke="black" cx="1059" cy="-162" rx="71.49" ry="18"/>
<text text-anchor="middle" x="1059" y="-158.3" font-family="Times,serif" font-size="14.00">DiemTimestamp</text>
</g>
<!-- Genesis&#45;&gt;DiemTimestamp -->
<g id="edge1" class="edge">
<title>Genesis&#45;&gt;DiemTimestamp</title>
<path fill="none" stroke="black" d="M1725.43,-736.82C1487.78,-735.59 230.15,-727.05 162,-684 124.36,-660.22 116,-639.53 116,-595 116,-595 116,-595 116,-521 116,-430.95 168.42,-415.92 239,-360 288.95,-320.43 303.37,-310.49 363,-288 440.15,-258.9 465.37,-273.42 545,-252 592.64,-239.18 601.96,-227.23 650,-216 711.76,-201.57 883.92,-181.73 984.1,-170.88"/>
<polygon fill="black" stroke="black" points="984.59,-174.34 994.16,-169.79 983.84,-167.38 984.59,-174.34"/>
</g>
<!-- DiemConfig -->
<g id="node3" class="node">
<title>DiemConfig</title>
<ellipse fill="none" stroke="black" cx="2347" cy="-306" rx="54.69" ry="18"/>
<text text-anchor="middle" x="2347" y="-302.3" font-family="Times,serif" font-size="14.00">DiemConfig</text>
</g>
<!-- Genesis&#45;&gt;DiemConfig -->
<g id="edge2" class="edge">
<title>Genesis&#45;&gt;DiemConfig</title>
<path fill="none" stroke="black" d="M1802.05,-735.76C1925.51,-731.45 2313.89,-715.65 2435,-684 2508.88,-664.69 2549.84,-676.32 2591,-612 2653.06,-515.01 2590.56,-623.41 2404,-396 2387.57,-375.98 2371.93,-350.98 2361.2,-332.58"/>
<polygon fill="black" stroke="black" points="2364.22,-330.8 2356.21,-323.87 2358.15,-334.28 2364.22,-330.8"/>
</g>
<!-- Diem -->
<g id="node4" class="node">
<title>Diem</title>
<ellipse fill="none" stroke="black" cx="1378" cy="-450" rx="30.59" ry="18"/>
<text text-anchor="middle" x="1378" y="-446.3" font-family="Times,serif" font-size="14.00">Diem</text>
</g>
<!-- Genesis&#45;&gt;Diem -->
<g id="edge3" class="edge">
<title>Genesis&#45;&gt;Diem</title>
<path fill="none" stroke="black" d="M1788.98,-724.23C1838.61,-697.2 1941.2,-632.11 1897,-576 1896.52,-575.39 1534.95,-488.64 1415.67,-460.03"/>
<polygon fill="black" stroke="black" points="1416.41,-456.61 1405.87,-457.68 1414.78,-463.42 1416.41,-456.61"/>
</g>
<!-- XUS -->
<g id="node5" class="node">
<title>XUS</title>
<ellipse fill="none" stroke="black" cx="893" cy="-522" rx="28.7" ry="18"/>
<text text-anchor="middle" x="893" y="-518.3" font-family="Times,serif" font-size="14.00">XUS</text>
</g>
<!-- Genesis&#45;&gt;XUS -->
<g id="edge4" class="edge">
<title>Genesis&#45;&gt;XUS</title>
<path fill="none" stroke="black" d="M1725.49,-737C1575.2,-736.17 1030.59,-725.29 911,-612 894.51,-596.38 890.88,-570.14 890.86,-550.19"/>
<polygon fill="black" stroke="black" points="894.36,-550.24 891.14,-540.14 887.36,-550.04 894.36,-550.24"/>
</g>
<!-- XDX -->
<g id="node6" class="node">
<title>XDX</title>
<ellipse fill="none" stroke="black" cx="712" cy="-522" rx="29.8" ry="18"/>
<text text-anchor="middle" x="712" y="-518.3" font-family="Times,serif" font-size="14.00">XDX</text>
</g>
<!-- Genesis&#45;&gt;XDX -->
<g id="edge5" class="edge">
<title>Genesis&#45;&gt;XDX</title>
<path fill="none" stroke="black" d="M1725.82,-735.7C1588.83,-730.83 1122.36,-712.51 976,-684 875.43,-664.41 834.69,-678.8 757,-612 737.99,-595.66 726.09,-569.34 719.34,-549.55"/>
<polygon fill="black" stroke="black" points="722.63,-548.36 716.27,-539.89 715.96,-550.48 722.63,-548.36"/>
</g>
<!-- TransactionFee -->
<g id="node7" class="node">
<title>TransactionFee</title>
<ellipse fill="none" stroke="black" cx="500" cy="-594" rx="64.99" ry="18"/>
<text text-anchor="middle" x="500" y="-590.3" font-family="Times,serif" font-size="14.00">TransactionFee</text>
</g>
<!-- Genesis&#45;&gt;TransactionFee -->
<g id="edge6" class="edge">
<title>Genesis&#45;&gt;TransactionFee</title>
<path fill="none" stroke="black" d="M1725.57,-737.05C1533.7,-737.06 684.44,-734.26 579,-684 550.77,-670.54 528.3,-641.88 514.65,-620.7"/>
<polygon fill="black" stroke="black" points="517.6,-618.81 509.35,-612.15 511.65,-622.49 517.6,-618.81"/>
</g>
<!-- DualAttestation -->
<g id="node8" class="node">
<title>DualAttestation</title>
<ellipse fill="none" stroke="black" cx="2516" cy="-594" rx="66.09" ry="18"/>
<text text-anchor="middle" x="2516" y="-590.3" font-family="Times,serif" font-size="14.00">DualAttestation</text>
</g>
<!-- Genesis&#45;&gt;DualAttestation -->
<g id="edge7" class="edge">
<title>Genesis&#45;&gt;DualAttestation</title>
<path fill="none" stroke="black" d="M1799.4,-730.74C1899.49,-712.98 2193.06,-660.4 2436,-612 2442.31,-610.74 2448.88,-609.4 2455.44,-608.04"/>
<polygon fill="black" stroke="black" points="2456.61,-611.37 2465.68,-605.9 2455.18,-604.52 2456.61,-611.37"/>
</g>
<!-- DiemTransactionPublishingOption -->
<g id="node9" class="node">
<title>DiemTransactionPublishingOption</title>
<ellipse fill="none" stroke="black" cx="2610" cy="-378" rx="133.78" ry="18"/>
<text text-anchor="middle" x="2610" y="-374.3" font-family="Times,serif" font-size="14.00">DiemTransactionPublishingOption</text>
</g>
<!-- Genesis&#45;&gt;DiemTransactionPublishingOption -->
<g id="edge8" class="edge">
<title>Genesis&#45;&gt;DiemTransactionPublishingOption</title>
<path fill="none" stroke="black" d="M1801.72,-734.72C1965.89,-724.31 2610,-678.17 2610,-595 2610,-595 2610,-595 2610,-521 2610,-481 2610,-434.65 2610,-406.08"/>
<polygon fill="black" stroke="black" points="2613.5,-406.05 2610,-396.05 2606.5,-406.05 2613.5,-406.05"/>
</g>
<!-- ChainId -->
<g id="node10" class="node">
<title>ChainId</title>
<ellipse fill="none" stroke="black" cx="497" cy="-234" rx="38.99" ry="18"/>
<text text-anchor="middle" x="497" y="-230.3" font-family="Times,serif" font-size="14.00">ChainId</text>
</g>
<!-- Genesis&#45;&gt;ChainId -->
<g id="edge9" class="edge">
<title>Genesis&#45;&gt;ChainId</title>
<path fill="none" stroke="black" d="M1725.69,-736.51C1479.68,-733.27 131.2,-714.15 102,-684 -25.25,-552.62 51.35,-371.66 214,-288 289.27,-249.28 388.78,-238.6 447.54,-235.8"/>
<polygon fill="black" stroke="black" points="447.82,-239.29 457.66,-235.38 447.53,-232.3 447.82,-239.29"/>
</g>
<!-- AccountFreezing -->
<g id="node11" class="node">
<title>AccountFreezing</title>
<ellipse fill="none" stroke="black" cx="3099" cy="-306" rx="71.49" ry="18"/>
<text text-anchor="middle" x="3099" y="-302.3" font-family="Times,serif" font-size="14.00">AccountFreezing</text>
</g>
<!-- Genesis&#45;&gt;AccountFreezing -->
<g id="edge10" class="edge">
<title>Genesis&#45;&gt;AccountFreezing</title>
<path fill="none" stroke="black" d="M1802.48,-736.85C2015.22,-735.54 3038,-722.62 3038,-595 3038,-595 3038,-595 3038,-449 3038,-405.37 3062.61,-359.87 3080.57,-332.48"/>
<polygon fill="black" stroke="black" points="3083.66,-334.16 3086.36,-323.92 3077.86,-330.24 3083.66,-334.16"/>
</g>
<!-- DiemAccount -->
<g id="node12" class="node">
<title>DiemAccount</title>
<ellipse fill="none" stroke="black" cx="1764" cy="-666" rx="60.39" ry="18"/>
<text text-anchor="middle" x="1764" y="-662.3" font-family="Times,serif" font-size="14.00">DiemAccount</text>
</g>
<!-- Genesis&#45;&gt;DiemAccount -->
<g id="edge11" class="edge">
<title>Genesis&#45;&gt;DiemAccount</title>
<path fill="none" stroke="black" d="M1764,-719.7C1764,-711.98 1764,-702.71 1764,-694.11"/>
<polygon fill="black" stroke="black" points="1767.5,-694.1 1764,-684.1 1760.5,-694.1 1767.5,-694.1"/>
</g>
<!-- DiemSystem -->
<g id="node13" class="node">
<title>DiemSystem</title>
<ellipse fill="none" stroke="black" cx="2763" cy="-450" rx="57.39" ry="18"/>
<text text-anchor="middle" x="2763" y="-446.3" font-family="Times,serif" font-size="14.00">DiemSystem</text>
</g>
<!-- Genesis&#45;&gt;DiemSystem -->
<g id="edge12" class="edge">
<title>Genesis&#45;&gt;DiemSystem</title>
<path fill="none" stroke="black" d="M1802.26,-736.72C1959.77,-735.31 2553.18,-727.15 2624,-684 2701.55,-636.75 2741.13,-528.53 2755.94,-477.96"/>
<polygon fill="black" stroke="black" points="2759.38,-478.66 2758.74,-468.09 2752.65,-476.76 2759.38,-478.66"/>
</g>
<!-- DiemBlock -->
<g id="node14" class="node">
<title>DiemBlock</title>
<ellipse fill="none" stroke="black" cx="3358" cy="-522" rx="51.99" ry="18"/>
<text text-anchor="middle" x="3358" y="-518.3" font-family="Times,serif" font-size="14.00">DiemBlock</text>
</g>
<!-- Genesis&#45;&gt;DiemBlock -->
<g id="edge13" class="edge">
<title>Genesis&#45;&gt;DiemBlock</title>
<path fill="none" stroke="black" d="M1802.43,-736.43C2003.39,-733.29 2928.81,-717.13 3052,-684 3161.32,-654.6 3275.64,-581.14 3328.26,-544.49"/>
<polygon fill="black" stroke="black" points="3330.59,-547.13 3336.76,-538.52 3326.57,-541.41 3330.59,-547.13"/>
</g>
<!-- DiemVMConfig -->
<g id="node15" class="node">
<title>DiemVMConfig</title>
<ellipse fill="none" stroke="black" cx="614" cy="-378" rx="69.59" ry="18"/>
<text text-anchor="middle" x="614" y="-374.3" font-family="Times,serif" font-size="14.00">DiemVMConfig</text>
</g>
<!-- Genesis&#45;&gt;DiemVMConfig -->
<g id="edge14" class="edge">
<title>Genesis&#45;&gt;DiemVMConfig</title>
<path fill="none" stroke="black" d="M1725.58,-736.59C1570.09,-734.66 987.2,-724.81 808,-684 707.16,-661.03 593,-698.42 593,-595 593,-595 593,-595 593,-521 593,-480.78 601.35,-434.84 607.51,-406.37"/>
<polygon fill="black" stroke="black" points="610.99,-406.89 609.75,-396.37 604.15,-405.36 610.99,-406.89"/>
</g>
<!-- DiemVersion -->
<g id="node16" class="node">
<title>DiemVersion</title>
<ellipse fill="none" stroke="black" cx="316" cy="-378" rx="57.69" ry="18"/>
<text text-anchor="middle" x="316" y="-374.3" font-family="Times,serif" font-size="14.00">DiemVersion</text>
</g>
<!-- Genesis&#45;&gt;DiemVersion -->
<g id="edge15" class="edge">
<title>Genesis&#45;&gt;DiemVersion</title>
<path fill="none" stroke="black" d="M1725.62,-736.32C1544.23,-732.95 771.8,-716.88 533,-684 361.59,-660.4 154,-768.03 154,-595 154,-595 154,-595 154,-521 154,-458.76 222.45,-417.44 270.36,-396.14"/>
<polygon fill="black" stroke="black" points="271.84,-399.31 279.64,-392.14 269.07,-392.88 271.84,-399.31"/>
</g>
<!-- Errors -->
<g id="node17" class="node">
<title>Errors</title>
<ellipse fill="none" stroke="black" cx="1184" cy="-18" rx="32.49" ry="18"/>
<text text-anchor="middle" x="1184" y="-14.3" font-family="Times,serif" font-size="14.00">Errors</text>
</g>
<!-- DiemTimestamp&#45;&gt;Errors -->
<g id="edge16" class="edge">
<title>DiemTimestamp&#45;&gt;Errors</title>
<path fill="none" stroke="black" d="M1059.63,-143.77C1061.17,-124.38 1066.29,-92.86 1083,-72 1099,-52.03 1124.58,-38.72 1145.99,-30.43"/>
<polygon fill="black" stroke="black" points="1147.29,-33.68 1155.49,-26.97 1144.89,-27.1 1147.29,-33.68"/>
</g>
<!-- CoreAddresses -->
<g id="node18" class="node">
<title>CoreAddresses</title>
<ellipse fill="none" stroke="black" cx="2023" cy="-90" rx="63.89" ry="18"/>
<text text-anchor="middle" x="2023" y="-86.3" font-family="Times,serif" font-size="14.00">CoreAddresses</text>
</g>
<!-- DiemTimestamp&#45;&gt;CoreAddresses -->
<g id="edge17" class="edge">
<title>DiemTimestamp&#45;&gt;CoreAddresses</title>
<path fill="none" stroke="black" d="M1126.79,-156.08C1302.73,-143.3 1772.71,-109.17 1952.08,-96.15"/>
<polygon fill="black" stroke="black" points="1952.48,-99.63 1962.2,-95.42 1951.97,-92.65 1952.48,-99.63"/>
</g>
<!-- DiemConfig&#45;&gt;DiemTimestamp -->
<g id="edge21" class="edge">
<title>DiemConfig&#45;&gt;DiemTimestamp</title>
<path fill="none" stroke="black" d="M2301.57,-295.83C2210.33,-277.74 1998.11,-237.39 1818,-216 1571.5,-186.73 1277.9,-171.87 1139.18,-166.04"/>
<polygon fill="black" stroke="black" points="1139.2,-162.54 1129.06,-165.62 1138.91,-169.53 1139.2,-162.54"/>
</g>
<!-- DiemConfig&#45;&gt;Errors -->
<g id="edge19" class="edge">
<title>DiemConfig&#45;&gt;Errors</title>
<path fill="none" stroke="black" d="M2328.09,-288.97C2289.59,-256.1 2199.77,-178.27 2129,-108 2113.6,-92.71 2115.61,-81.31 2096,-72 2016.94,-34.45 1396.07,-22.25 1226.61,-19.6"/>
<polygon fill="black" stroke="black" points="1226.62,-16.1 1216.57,-19.45 1226.51,-23.1 1226.62,-16.1"/>
</g>
<!-- DiemConfig&#45;&gt;CoreAddresses -->
<g id="edge20" class="edge">
<title>DiemConfig&#45;&gt;CoreAddresses</title>
<path fill="none" stroke="black" d="M2304.63,-294.55C2242.76,-279.29 2134.89,-252.62 2134,-252 2108.1,-234.07 2061.43,-157.55 2037.71,-116.8"/>
<polygon fill="black" stroke="black" points="2040.64,-114.87 2032.6,-107.97 2034.58,-118.38 2040.64,-114.87"/>
</g>
<!-- Signer -->
<g id="node19" class="node">
<title>Signer</title>
<ellipse fill="none" stroke="black" cx="2191" cy="-18" rx="33.6" ry="18"/>
<text text-anchor="middle" x="2191" y="-14.3" font-family="Times,serif" font-size="14.00">Signer</text>
</g>
<!-- DiemConfig&#45;&gt;Signer -->
<g id="edge18" class="edge">
<title>DiemConfig&#45;&gt;Signer</title>
<path fill="none" stroke="black" d="M2350.97,-287.97C2359.6,-246.36 2375.58,-138.13 2326,-72 2304.42,-43.22 2264.89,-30.06 2234.16,-24.04"/>
<polygon fill="black" stroke="black" points="2234.57,-20.56 2224.11,-22.26 2233.35,-27.45 2234.57,-20.56"/>
</g>
<!-- Roles -->
<g id="node20" class="node">
<title>Roles</title>
<ellipse fill="none" stroke="black" cx="1498" cy="-234" rx="30.59" ry="18"/>
<text text-anchor="middle" x="1498" y="-230.3" font-family="Times,serif" font-size="14.00">Roles</text>
</g>
<!-- DiemConfig&#45;&gt;Roles -->
<g id="edge22" class="edge">
<title>DiemConfig&#45;&gt;Roles</title>
<path fill="none" stroke="black" d="M2300.24,-296.68C2281.56,-293.58 2259.81,-290.28 2240,-288 1973.39,-257.36 1650.72,-241.54 1538.66,-236.67"/>
<polygon fill="black" stroke="black" points="1538.62,-233.17 1528.48,-236.23 1538.32,-240.16 1538.62,-233.17"/>
</g>
<!-- Event -->
<g id="node21" class="node">
<title>Event</title>
<ellipse fill="none" stroke="black" cx="2713" cy="-234" rx="31.4" ry="18"/>
<text text-anchor="middle" x="2713" y="-230.3" font-family="Times,serif" font-size="14.00">Event</text>
</g>
<!-- DiemConfig&#45;&gt;Event -->
<g id="edge23" class="edge">
<title>DiemConfig&#45;&gt;Event</title>
<path fill="none" stroke="black" d="M2392.98,-296.21C2465.67,-282.3 2605.82,-255.5 2673.93,-242.47"/>
<polygon fill="black" stroke="black" points="2674.67,-245.89 2683.83,-240.58 2673.35,-239.02 2674.67,-245.89"/>
</g>
<!-- Diem&#45;&gt;DiemTimestamp -->
<g id="edge27" class="edge">
<title>Diem&#45;&gt;DiemTimestamp</title>
<path fill="none" stroke="black" d="M1353.45,-438.87C1327.67,-428.22 1285.97,-410.98 1250,-396 1211.75,-380.07 1202.75,-374.67 1164,-360 1117.47,-342.38 1089.7,-362.35 1058,-324 1026.88,-286.35 1038.71,-225.08 1049.36,-189.98"/>
<polygon fill="black" stroke="black" points="1052.71,-190.99 1052.43,-180.4 1046.04,-188.85 1052.71,-190.99"/>
</g>
<!-- Diem&#45;&gt;Errors -->
<g id="edge25" class="edge">
<title>Diem&#45;&gt;Errors</title>
<path fill="none" stroke="black" d="M1350.21,-442.14C1267.73,-421.8 1029.02,-363.03 1012,-360 873.71,-335.36 825.31,-383.36 698,-324 676.91,-314.17 680.94,-298.14 660,-288 559.36,-239.26 490.38,-330.75 411,-252 352.75,-194.22 380.34,-111.97 452,-72 512.24,-38.4 994.36,-23.72 1141.51,-19.99"/>
<polygon fill="black" stroke="black" points="1141.6,-23.49 1151.51,-19.74 1141.43,-16.49 1141.6,-23.49"/>
</g>
<!-- Diem&#45;&gt;CoreAddresses -->
<g id="edge26" class="edge">
<title>Diem&#45;&gt;CoreAddresses</title>
<path fill="none" stroke="black" d="M1350.45,-441.98C1327.9,-434.61 1297.44,-420.59 1283,-396 1274.9,-382.2 1275.99,-374.38 1283,-360 1294.37,-336.66 1308.82,-340.33 1329,-324 1387.12,-276.95 1391.72,-250.61 1458,-216 1620.79,-131.01 1839.17,-103.66 1950.75,-94.97"/>
<polygon fill="black" stroke="black" points="1951.18,-98.45 1960.89,-94.21 1950.65,-91.47 1951.18,-98.45"/>
</g>
<!-- Diem&#45;&gt;Signer -->
<g id="edge24" class="edge">
<title>Diem&#45;&gt;Signer</title>
<path fill="none" stroke="black" d="M1407.31,-444.44C1449.45,-437.3 1529.12,-421.58 1593,-396 1712.57,-348.12 1992.41,-184.55 2096,-108 2123.16,-87.93 2150.98,-60.97 2169.43,-42"/>
<polygon fill="black" stroke="black" points="2172.09,-44.29 2176.5,-34.65 2167.05,-39.43 2172.09,-44.29"/>
</g>
<!-- Diem&#45;&gt;Roles -->
<g id="edge28" class="edge">
<title>Diem&#45;&gt;Roles</title>
<path fill="none" stroke="black" d="M1405.05,-441.22C1426.98,-433.45 1456.82,-419.25 1473,-396 1500.85,-355.99 1502.53,-296.88 1500.66,-262.52"/>
<polygon fill="black" stroke="black" points="1504.13,-262.03 1499.95,-252.29 1497.15,-262.51 1504.13,-262.03"/>
</g>
<!-- Diem&#45;&gt;Event -->
<g id="edge31" class="edge">
<title>Diem&#45;&gt;Event</title>
<path fill="none" stroke="black" d="M1408.36,-447.49C1533.46,-440.79 2020.74,-410.28 2411,-324 2508.68,-302.41 2621.04,-266.2 2677.17,-247.31"/>
<polygon fill="black" stroke="black" points="2678.31,-250.62 2686.66,-244.1 2676.06,-243.99 2678.31,-250.62"/>
</g>
<!-- FixedPoint32 -->
<g id="node22" class="node">
<title>FixedPoint32</title>
<ellipse fill="none" stroke="black" cx="798" cy="-378" rx="57.69" ry="18"/>
<text text-anchor="middle" x="798" y="-374.3" font-family="Times,serif" font-size="14.00">FixedPoint32</text>
</g>
<!-- Diem&#45;&gt;FixedPoint32 -->
<g id="edge29" class="edge">
<title>Diem&#45;&gt;FixedPoint32</title>
<path fill="none" stroke="black" d="M1348.44,-445.43C1258.29,-434.55 985.43,-401.62 861.03,-386.61"/>
<polygon fill="black" stroke="black" points="861.25,-383.11 850.9,-385.38 860.41,-390.06 861.25,-383.11"/>
</g>
<!-- Vector -->
<g id="node23" class="node">
<title>Vector</title>
<ellipse fill="none" stroke="black" cx="2502" cy="-162" rx="33.6" ry="18"/>
<text text-anchor="middle" x="2502" y="-158.3" font-family="Times,serif" font-size="14.00">Vector</text>
</g>
<!-- Diem&#45;&gt;Vector -->
<g id="edge30" class="edge">
<title>Diem&#45;&gt;Vector</title>
<path fill="none" stroke="black" d="M1408.54,-448.41C1506.07,-446.15 1808.84,-435.98 1897,-396 1929.08,-381.45 1981.6,-303.95 2013,-288 2088.46,-249.67 2124.7,-290.65 2200,-252 2220.7,-241.38 2217.35,-226.71 2238,-216 2309.35,-179.01 2403.93,-167.8 2458.36,-164.43"/>
<polygon fill="black" stroke="black" points="2458.58,-167.92 2468.37,-163.87 2458.19,-160.93 2458.58,-167.92"/>
</g>
<!-- RegisteredCurrencies -->
<g id="node24" class="node">
<title>RegisteredCurrencies</title>
<ellipse fill="none" stroke="black" cx="1378" cy="-378" rx="86.38" ry="18"/>
<text text-anchor="middle" x="1378" y="-374.3" font-family="Times,serif" font-size="14.00">RegisteredCurrencies</text>
</g>
<!-- Diem&#45;&gt;RegisteredCurrencies -->
<g id="edge32" class="edge">
<title>Diem&#45;&gt;RegisteredCurrencies</title>
<path fill="none" stroke="black" d="M1378,-431.7C1378,-423.98 1378,-414.71 1378,-406.11"/>
<polygon fill="black" stroke="black" points="1381.5,-406.1 1378,-396.1 1374.5,-406.1 1381.5,-406.1"/>
</g>
<!-- XUS&#45;&gt;DiemTimestamp -->
<g id="edge33" class="edge">
<title>XUS&#45;&gt;DiemTimestamp</title>
<path fill="none" stroke="black" d="M893.99,-503.58C894.95,-472.38 893.16,-405.96 865,-360 851.07,-337.26 828.93,-347.85 817,-324 809.84,-309.69 809.3,-302.03 817,-288 852.42,-223.43 934.31,-191.16 993.02,-175.79"/>
<polygon fill="black" stroke="black" points="994.12,-179.12 1002.96,-173.29 992.41,-172.33 994.12,-179.12"/>
</g>
<!-- XUS&#45;&gt;Diem -->
<g id="edge35" class="edge">
<title>XUS&#45;&gt;Diem</title>
<path fill="none" stroke="black" d="M920.82,-516.99C1002.69,-505.17 1243.02,-470.48 1338.37,-456.72"/>
<polygon fill="black" stroke="black" points="1339.06,-460.16 1348.46,-455.26 1338.06,-453.23 1339.06,-460.16"/>
</g>
<!-- XUS&#45;&gt;FixedPoint32 -->
<g id="edge34" class="edge">
<title>XUS&#45;&gt;FixedPoint32</title>
<path fill="none" stroke="black" d="M882.47,-505.26C866.1,-480.79 834.38,-433.38 814.82,-404.14"/>
<polygon fill="black" stroke="black" points="817.63,-402.05 809.16,-395.69 811.82,-405.94 817.63,-402.05"/>
</g>
<!-- AccountLimits -->
<g id="node25" class="node">
<title>AccountLimits</title>
<ellipse fill="none" stroke="black" cx="890" cy="-306" rx="63.89" ry="18"/>
<text text-anchor="middle" x="890" y="-302.3" font-family="Times,serif" font-size="14.00">AccountLimits</text>
</g>
<!-- XUS&#45;&gt;AccountLimits -->
<g id="edge36" class="edge">
<title>XUS&#45;&gt;AccountLimits</title>
<path fill="none" stroke="black" d="M895.03,-503.84C896.15,-493.48 897.44,-480 898,-468 900.26,-420.05 901.59,-407.87 898,-360 897.36,-351.52 896.16,-342.34 894.88,-334.04"/>
<polygon fill="black" stroke="black" points="898.32,-333.41 893.25,-324.11 891.42,-334.55 898.32,-333.41"/>
</g>
<!-- XDX&#45;&gt;DiemTimestamp -->
<g id="edge39" class="edge">
<title>XDX&#45;&gt;DiemTimestamp</title>
<path fill="none" stroke="black" d="M686.44,-512.34C627.9,-491.03 492.29,-432.47 535,-360 585.3,-274.65 645.83,-304.26 730,-252 753.88,-237.17 756.08,-226.88 782,-216 801.07,-208 915.57,-187.48 991.27,-174.45"/>
<polygon fill="black" stroke="black" points="991.95,-177.88 1001.21,-172.74 990.77,-170.98 991.95,-177.88"/>
</g>
<!-- XDX&#45;&gt;Diem -->
<g id="edge41" class="edge">
<title>XDX&#45;&gt;Diem</title>
<path fill="none" stroke="black" d="M741.01,-517.4C769.89,-513.85 815.49,-508.35 855,-504 1035.01,-484.18 1250.19,-463.24 1337.86,-454.83"/>
<polygon fill="black" stroke="black" points="1338.29,-458.3 1347.91,-453.86 1337.62,-451.34 1338.29,-458.3"/>
</g>
<!-- XDX&#45;&gt;Errors -->
<g id="edge37" class="edge">
<title>XDX&#45;&gt;Errors</title>
<path fill="none" stroke="black" d="M681.75,-521.43C555.36,-521.51 76,-504.07 76,-235 76,-235 76,-235 76,-161 76,-116.06 86,-95.99 124,-72 211.07,-17.04 954.21,-17.65 1141.36,-18.69"/>
<polygon fill="black" stroke="black" points="1141.34,-22.19 1151.37,-18.75 1141.39,-15.19 1141.34,-22.19"/>
</g>
<!-- XDX&#45;&gt;CoreAddresses -->
<g id="edge38" class="edge">
<title>XDX&#45;&gt;CoreAddresses</title>
<path fill="none" stroke="black" d="M682.75,-517.68C589.64,-506.46 303.1,-466.65 249,-396 239.27,-383.3 241.28,-374.01 249,-360 323.29,-225.22 431.16,-298.09 578,-252 613.66,-240.81 618.29,-227.03 654,-216 752.02,-185.73 782.75,-205.98 882,-180 926.49,-168.36 933.96,-153.27 979,-144 1164.84,-105.74 1743.58,-94.62 1949.42,-91.83"/>
<polygon fill="black" stroke="black" points="1949.57,-95.33 1959.52,-91.7 1949.47,-88.33 1949.57,-95.33"/>
</g>
<!-- XDX&#45;&gt;FixedPoint32 -->
<g id="edge40" class="edge">
<title>XDX&#45;&gt;FixedPoint32</title>
<path fill="none" stroke="black" d="M721.87,-504.71C736.68,-480.26 764.79,-433.83 782.4,-404.76"/>
<polygon fill="black" stroke="black" points="785.53,-406.35 787.72,-395.98 779.54,-402.72 785.53,-406.35"/>
</g>
<!-- XDX&#45;&gt;AccountLimits -->
<g id="edge42" class="edge">
<title>XDX&#45;&gt;AccountLimits</title>
<path fill="none" stroke="black" d="M708.57,-503.7C703.25,-471.52 696.88,-401.91 731,-360 752.47,-333.63 787.46,-320.29 819.17,-313.58"/>
<polygon fill="black" stroke="black" points="820.16,-316.95 829.32,-311.63 818.84,-310.08 820.16,-316.95"/>
</g>
<!-- TransactionFee&#45;&gt;DiemTimestamp -->
<g id="edge45" class="edge">
<title>TransactionFee&#45;&gt;DiemTimestamp</title>
<path fill="none" stroke="black" d="M495.94,-575.93C493.69,-565.6 491.13,-552.12 490,-540 488.51,-524.07 489.78,-520 490,-504 491.4,-403.09 477.85,-346.61 560,-288 609.5,-252.68 639,-281.81 692,-252 712.28,-240.6 709.13,-226.28 730,-216 822.04,-170.69 856.75,-196.51 958,-180 968.82,-178.24 980.28,-176.34 991.45,-174.47"/>
<polygon fill="black" stroke="black" points="992.32,-177.87 1001.6,-172.77 991.16,-170.97 992.32,-177.87"/>
</g>
<!-- TransactionFee&#45;&gt;Diem -->
<g id="edge47" class="edge">
<title>TransactionFee&#45;&gt;Diem</title>
<path fill="none" stroke="black" d="M560.16,-587.03C643.65,-578.41 799.25,-561.19 931,-540 1083.21,-515.52 1262.65,-476.75 1339.71,-459.62"/>
<polygon fill="black" stroke="black" points="1340.89,-462.94 1349.89,-457.35 1339.37,-456.11 1340.89,-462.94"/>
</g>
<!-- TransactionFee&#45;&gt;XUS -->
<g id="edge48" class="edge">
<title>TransactionFee&#45;&gt;XUS</title>
<path fill="none" stroke="black" d="M553,-583.56C633.71,-569.18 785.44,-542.16 855.63,-529.66"/>
<polygon fill="black" stroke="black" points="856.55,-533.05 865.78,-527.85 855.32,-526.16 856.55,-533.05"/>
</g>
<!-- TransactionFee&#45;&gt;XDX -->
<g id="edge49" class="edge">
<title>TransactionFee&#45;&gt;XDX</title>
<path fill="none" stroke="black" d="M540.37,-579.67C579.86,-566.63 639.36,-546.98 676.92,-534.58"/>
<polygon fill="black" stroke="black" points="678.03,-537.9 686.43,-531.44 675.84,-531.25 678.03,-537.9"/>
</g>
<!-- TransactionFee&#45;&gt;Errors -->
<g id="edge43" class="edge">
<title>TransactionFee&#45;&gt;Errors</title>
<path fill="none" stroke="black" d="M439.6,-587.23C314.37,-573.59 38,-534.07 38,-451 38,-451 38,-451 38,-161 38,-116.68 45.81,-96.12 83,-72 128.13,-42.73 943.44,-23.99 1141.1,-19.86"/>
<polygon fill="black" stroke="black" points="1141.45,-23.36 1151.38,-19.65 1141.31,-16.36 1141.45,-23.36"/>
</g>
<!-- TransactionFee&#45;&gt;CoreAddresses -->
<g id="edge44" class="edge">
<title>TransactionFee&#45;&gt;CoreAddresses</title>
<path fill="none" stroke="black" d="M461.3,-579.5C397.97,-554.85 275.55,-495.67 239,-396 221.77,-349 230.89,-317.96 271,-288 369.4,-214.49 436.04,-308.69 545,-252 564.25,-241.98 558.82,-226.15 578,-216 676.05,-164.1 720.94,-218.46 825,-180 853.1,-169.61 853.42,-152.99 882,-144 983.23,-112.14 1712.99,-96.5 1949.34,-92.24"/>
<polygon fill="black" stroke="black" points="1949.61,-95.73 1959.55,-92.05 1949.49,-88.73 1949.61,-95.73"/>
</g>
<!-- TransactionFee&#45;&gt;Roles -->
<g id="edge46" class="edge">
<title>TransactionFee&#45;&gt;Roles</title>
<path fill="none" stroke="black" d="M497.28,-575.84C491.64,-533.96 483.2,-425.16 535,-360 589.13,-291.9 632.15,-307.17 717,-288 860.08,-255.67 1317.22,-240.18 1457,-236.12"/>
<polygon fill="black" stroke="black" points="1457.37,-239.61 1467.27,-235.82 1457.17,-232.61 1457.37,-239.61"/>
</g>
<!-- DualAttestation&#45;&gt;DiemTimestamp -->
<g id="edge53" class="edge">
<title>DualAttestation&#45;&gt;DiemTimestamp</title>
<path fill="none" stroke="black" d="M2470.84,-580.76C2435.44,-570.8 2385.13,-555.85 2342,-540 2001.95,-415.02 1944.69,-306.95 1594,-216 1437.11,-175.31 1246.9,-165.44 1140.76,-163.29"/>
<polygon fill="black" stroke="black" points="1140.82,-159.79 1130.76,-163.11 1140.69,-166.79 1140.82,-159.79"/>
</g>
<!-- DualAttestation&#45;&gt;Diem -->
<g id="edge59" class="edge">
<title>DualAttestation&#45;&gt;Diem</title>
<path fill="none" stroke="black" d="M2454.35,-587.13C2359.88,-577.98 2173.69,-559.35 2016,-540 1788.72,-512.11 1516.87,-471.9 1417.14,-456.92"/>
<polygon fill="black" stroke="black" points="1417.62,-453.45 1407.21,-455.42 1416.58,-460.37 1417.62,-453.45"/>
</g>
<!-- DualAttestation&#45;&gt;XDX -->
<g id="edge60" class="edge">
<title>DualAttestation&#45;&gt;XDX</title>
<path fill="none" stroke="black" d="M2450.26,-591.24C2161.85,-583.47 1015.75,-552.1 855,-540 819.58,-537.33 779.44,-532.39 750.72,-528.52"/>
<polygon fill="black" stroke="black" points="751.07,-525.04 740.69,-527.15 750.12,-531.97 751.07,-525.04"/>
</g>
<!-- DualAttestation&#45;&gt;Errors -->
<g id="edge51" class="edge">
<title>DualAttestation&#45;&gt;Errors</title>
<path fill="none" stroke="black" d="M2582.43,-592.88C2779.19,-592 3349.61,-585.52 3419,-540 3456.06,-515.69 3464,-495.32 3464,-451 3464,-451 3464,-451 3464,-377 3464,-335.7 3227.16,-186.81 3131,-144 3015.58,-92.61 2981.04,-90.12 2856,-72 2690.67,-48.05 1471.97,-24.34 1226.87,-19.78"/>
<polygon fill="black" stroke="black" points="1226.65,-16.28 1216.59,-19.59 1226.52,-23.28 1226.65,-16.28"/>
</g>
<!-- DualAttestation&#45;&gt;CoreAddresses -->
<g id="edge52" class="edge">
<title>DualAttestation&#45;&gt;CoreAddresses</title>
<path fill="none" stroke="black" d="M2581.17,-590.43C2769.35,-580.13 3293.08,-529.6 3179,-288 3173.62,-276.61 3015.75,-148.52 3004,-144 2921.04,-112.13 2293.66,-114.13 2205,-108 2167.56,-105.41 2125.87,-101.58 2091.85,-98.22"/>
<polygon fill="black" stroke="black" points="2091.84,-94.7 2081.55,-97.19 2091.15,-101.67 2091.84,-94.7"/>
</g>
<!-- DualAttestation&#45;&gt;Signer -->
<g id="edge50" class="edge">
<title>DualAttestation&#45;&gt;Signer</title>
<path fill="none" stroke="black" d="M2582.44,-592.68C2787.34,-591.24 3400.3,-583.33 3478,-540 3520.1,-516.52 3540,-499.21 3540,-451 3540,-451 3540,-451 3540,-161 3540,-26.63 2467.68,-18.98 2235.14,-18.91"/>
<polygon fill="black" stroke="black" points="2235.02,-15.41 2225.02,-18.91 2235.02,-22.41 2235.02,-15.41"/>
</g>
<!-- DualAttestation&#45;&gt;Roles -->
<g id="edge55" class="edge">
<title>DualAttestation&#45;&gt;Roles</title>
<path fill="none" stroke="black" d="M2468.78,-581.35C2306.44,-541.25 1779.4,-410.58 1745,-396 1688.78,-372.17 1676.42,-361.19 1628,-324 1609.55,-309.83 1608.65,-301.9 1590,-288 1571.12,-273.93 1548.18,-260.7 1529.93,-250.99"/>
<polygon fill="black" stroke="black" points="1531.34,-247.77 1520.85,-246.24 1528.09,-253.98 1531.34,-247.77"/>
</g>
<!-- DualAttestation&#45;&gt;Event -->
<g id="edge58" class="edge">
<title>DualAttestation&#45;&gt;Event</title>
<path fill="none" stroke="black" d="M2578.63,-587.94C2656.56,-580.67 2784.22,-565.29 2824,-540 2864.68,-514.13 2886,-499.21 2886,-451 2886,-451 2886,-451 2886,-377 2886,-328.79 2860.75,-319.2 2824,-288 2823.17,-287.29 2777.94,-265.78 2745.48,-250.39"/>
<polygon fill="black" stroke="black" points="2746.83,-247.16 2736.3,-246.03 2743.83,-253.48 2746.83,-247.16"/>
</g>
<!-- DualAttestation&#45;&gt;Vector -->
<g id="edge56" class="edge">
<title>DualAttestation&#45;&gt;Vector</title>
<path fill="none" stroke="black" d="M2578.7,-588.12C2652.78,-578.62 2773.05,-550.6 2829,-468 2837.97,-454.75 2831.71,-447.77 2829,-432 2817.5,-365.09 2826.25,-335.77 2778,-288 2742.94,-253.29 2716.6,-275.08 2673,-252 2649.43,-239.52 2648.09,-229.35 2625,-216 2589.84,-195.67 2578.28,-196.12 2541,-180 2539.64,-179.41 2538.26,-178.82 2536.87,-178.21"/>
<polygon fill="black" stroke="black" points="2538.15,-174.95 2527.58,-174.18 2535.36,-181.37 2538.15,-174.95"/>
</g>
<!-- Signature -->
<g id="node26" class="node">
<title>Signature</title>
<ellipse fill="none" stroke="black" cx="2154" cy="-306" rx="44.39" ry="18"/>
<text text-anchor="middle" x="2154" y="-302.3" font-family="Times,serif" font-size="14.00">Signature</text>
</g>
<!-- DualAttestation&#45;&gt;Signature -->
<g id="edge54" class="edge">
<title>DualAttestation&#45;&gt;Signature</title>
<path fill="none" stroke="black" d="M2482.54,-578.31C2421.47,-550.2 2290.5,-483.71 2206,-396 2188.34,-377.67 2174.26,-352.24 2165.22,-333.26"/>
<polygon fill="black" stroke="black" points="2168.32,-331.61 2160.97,-323.99 2161.96,-334.54 2168.32,-331.61"/>
</g>
<!-- BCS -->
<g id="node27" class="node">
<title>BCS</title>
<ellipse fill="none" stroke="black" cx="2831" cy="-162" rx="27.1" ry="18"/>
<text text-anchor="middle" x="2831" y="-158.3" font-family="Times,serif" font-size="14.00">BCS</text>
</g>
<!-- DualAttestation&#45;&gt;BCS -->
<g id="edge57" class="edge">
<title>DualAttestation&#45;&gt;BCS</title>
<path fill="none" stroke="black" d="M2580.15,-589.11C2666.67,-582.86 2815.19,-568.32 2861,-540 2902.22,-514.52 2924,-499.46 2924,-451 2924,-451 2924,-451 2924,-305 2924,-254.84 2882.89,-208.61 2855.34,-183.26"/>
<polygon fill="black" stroke="black" points="2857.42,-180.42 2847.63,-176.38 2852.76,-185.65 2857.42,-180.42"/>
</g>
<!-- VASP -->
<g id="node28" class="node">
<title>VASP</title>
<ellipse fill="none" stroke="black" cx="1552" cy="-378" rx="32.49" ry="18"/>
<text text-anchor="middle" x="1552" y="-374.3" font-family="Times,serif" font-size="14.00">VASP</text>
</g>
<!-- DualAttestation&#45;&gt;VASP -->
<g id="edge61" class="edge">
<title>DualAttestation&#45;&gt;VASP</title>
<path fill="none" stroke="black" d="M2453.55,-587.86C2376.71,-580.74 2242.59,-565.77 2130,-540 1978.33,-505.28 1947.23,-472.5 1797,-432 1758.85,-421.71 1651.54,-399.35 1592.39,-387.22"/>
<polygon fill="black" stroke="black" points="1592.78,-383.73 1582.28,-385.15 1591.37,-390.59 1592.78,-383.73"/>
</g>
<!-- DiemTransactionPublishingOption&#45;&gt;DiemTimestamp -->
<g id="edge65" class="edge">
<title>DiemTransactionPublishingOption&#45;&gt;DiemTimestamp</title>
<path fill="none" stroke="black" d="M2588.69,-360.09C2561.46,-339.45 2512.08,-305.18 2464,-288 2217.23,-199.83 1401.11,-171.72 1140.06,-164.87"/>
<polygon fill="black" stroke="black" points="1139.99,-161.37 1129.9,-164.61 1139.8,-168.36 1139.99,-161.37"/>
</g>
<!-- DiemTransactionPublishingOption&#45;&gt;DiemConfig -->
<g id="edge68" class="edge">
<title>DiemTransactionPublishingOption&#45;&gt;DiemConfig</title>
<path fill="none" stroke="black" d="M2552.61,-361.72C2506.38,-349.42 2442.01,-332.29 2397.67,-320.49"/>
<polygon fill="black" stroke="black" points="2398.53,-317.09 2387.97,-317.9 2396.73,-323.86 2398.53,-317.09"/>
</g>
<!-- DiemTransactionPublishingOption&#45;&gt;Errors -->
<g id="edge63" class="edge">
<title>DiemTransactionPublishingOption&#45;&gt;Errors</title>
<path fill="none" stroke="black" d="M2740.51,-373.93C2899.33,-368.83 3150.04,-355.79 3179,-324 3189.78,-312.17 3185.05,-302.81 3179,-288 3145.16,-205.07 3118.82,-182.62 3038,-144 2869.51,-63.49 1489.16,-26.36 1226.93,-20"/>
<polygon fill="black" stroke="black" points="1226.75,-16.5 1216.67,-19.75 1226.58,-23.49 1226.75,-16.5"/>
</g>
<!-- DiemTransactionPublishingOption&#45;&gt;CoreAddresses -->
<g id="edge64" class="edge">
<title>DiemTransactionPublishingOption&#45;&gt;CoreAddresses</title>
<path fill="none" stroke="black" d="M2653.72,-360.88C2746.79,-324.33 2949.51,-231.55 2867,-144 2820.66,-94.83 2327.42,-112.42 2260,-108 2204.2,-104.34 2141.05,-99.79 2093.97,-96.32"/>
<polygon fill="black" stroke="black" points="2094.1,-92.82 2083.87,-95.57 2093.59,-99.8 2094.1,-92.82"/>
</g>
<!-- DiemTransactionPublishingOption&#45;&gt;Signer -->
<g id="edge62" class="edge">
<title>DiemTransactionPublishingOption&#45;&gt;Signer</title>
<path fill="none" stroke="black" d="M2741.56,-374.65C2909.14,-370.28 3180.89,-357.97 3212,-324 3238.62,-294.94 3308.73,-267.98 3208,-144 3145.52,-67.1 2421.55,-29.38 2234.76,-20.88"/>
<polygon fill="black" stroke="black" points="2234.89,-17.39 2224.74,-20.43 2234.58,-24.38 2234.89,-17.39"/>
</g>
<!-- DiemTransactionPublishingOption&#45;&gt;Roles -->
<g id="edge66" class="edge">
<title>DiemTransactionPublishingOption&#45;&gt;Roles</title>
<path fill="none" stroke="black" d="M2573.28,-360.53C2516.07,-334.87 2412.07,-288.26 2411,-288 2241.93,-246.76 1692.95,-237.28 1538.67,-235.41"/>
<polygon fill="black" stroke="black" points="1538.71,-231.91 1528.67,-235.3 1538.62,-238.91 1538.71,-231.91"/>
</g>
<!-- DiemTransactionPublishingOption&#45;&gt;Vector -->
<g id="edge67" class="edge">
<title>DiemTransactionPublishingOption&#45;&gt;Vector</title>
<path fill="none" stroke="black" d="M2606.66,-359.94C2600.13,-329.32 2583.64,-263.78 2554,-216 2546.89,-204.53 2536.89,-193.58 2527.57,-184.64"/>
<polygon fill="black" stroke="black" points="2529.69,-181.84 2519.97,-177.64 2524.95,-186.99 2529.69,-181.84"/>
</g>
<!-- ChainId&#45;&gt;DiemTimestamp -->
<g id="edge72" class="edge">
<title>ChainId&#45;&gt;DiemTimestamp</title>
<path fill="none" stroke="black" d="M531.9,-225.87C548.8,-222.57 569.4,-218.78 588,-216 726.65,-195.28 889.35,-178.66 982.69,-169.87"/>
<polygon fill="black" stroke="black" points="983.26,-173.33 992.89,-168.91 982.61,-166.36 983.26,-173.33"/>
</g>
<!-- ChainId&#45;&gt;Errors -->
<g id="edge70" class="edge">
<title>ChainId&#45;&gt;Errors</title>
<path fill="none" stroke="black" d="M525.56,-221.73C570.72,-204.1 661.56,-169.37 740,-144 888.21,-96.07 1067.53,-48.81 1145.12,-28.87"/>
<polygon fill="black" stroke="black" points="1146.12,-32.23 1154.94,-26.36 1144.38,-25.45 1146.12,-32.23"/>
</g>
<!-- ChainId&#45;&gt;CoreAddresses -->
<g id="edge71" class="edge">
<title>ChainId&#45;&gt;CoreAddresses</title>
<path fill="none" stroke="black" d="M527.05,-222.52C534.49,-220.16 542.49,-217.82 550,-216 645.46,-192.94 673.62,-207.14 768,-180 807.82,-168.55 813.57,-153.08 854,-144 960.33,-120.13 1709.59,-99.04 1949.38,-92.84"/>
<polygon fill="black" stroke="black" points="1949.83,-96.33 1959.73,-92.57 1949.65,-89.33 1949.83,-96.33"/>
</g>
<!-- ChainId&#45;&gt;Signer -->
<g id="edge69" class="edge">
<title>ChainId&#45;&gt;Signer</title>
<path fill="none" stroke="black" d="M527.7,-222.69C534.98,-220.37 542.74,-218.01 550,-216 617.74,-197.25 638.49,-205.48 704,-180 734.42,-168.17 736.76,-153.44 768,-144 974.49,-81.63 1052.14,-189.14 1252,-108 1275.09,-98.62 1271.84,-81.2 1295,-72 1374.62,-40.38 1978.55,-23.98 2147.31,-19.98"/>
<polygon fill="black" stroke="black" points="2147.42,-23.48 2157.33,-19.74 2147.25,-16.48 2147.42,-23.48"/>
</g>
<!-- AccountFreezing&#45;&gt;DiemTimestamp -->
<g id="edge76" class="edge">
<title>AccountFreezing&#45;&gt;DiemTimestamp</title>
<path fill="none" stroke="black" d="M3044.73,-294.15C2967.2,-278.64 2834,-252 2834,-252 2796.46,-240.06 2791.4,-224.78 2753,-216 2595.16,-179.92 1456.43,-166.7 1140.24,-163.71"/>
<polygon fill="black" stroke="black" points="1140.27,-160.21 1130.24,-163.61 1140.2,-167.21 1140.27,-160.21"/>
</g>
<!-- AccountFreezing&#45;&gt;Errors -->
<g id="edge74" class="edge">
<title>AccountFreezing&#45;&gt;Errors</title>
<path fill="none" stroke="black" d="M3094.68,-287.79C3085.04,-253.46 3058.23,-176.94 3004,-144 2940.47,-105.42 2409.32,-120.21 2336,-108 2278.13,-98.36 2266.88,-81.58 2209,-72 2015.27,-39.95 1395.38,-23.8 1226.72,-19.93"/>
<polygon fill="black" stroke="black" points="1226.57,-16.43 1216.5,-19.7 1226.41,-23.42 1226.57,-16.43"/>
</g>
<!-- AccountFreezing&#45;&gt;CoreAddresses -->
<g id="edge75" class="edge">
<title>AccountFreezing&#45;&gt;CoreAddresses</title>
<path fill="none" stroke="black" d="M3071.86,-289.23C3057.44,-279.82 3040.23,-266.84 3028,-252 2994.12,-210.88 3020.38,-173.47 2976,-144 2909.64,-99.94 2339.51,-112.85 2260,-108 2204.19,-104.6 2141.03,-100.03 2093.96,-96.49"/>
<polygon fill="black" stroke="black" points="2094.1,-92.99 2083.86,-95.73 2093.57,-99.97 2094.1,-92.99"/>
</g>
<!-- AccountFreezing&#45;&gt;Signer -->
<g id="edge73" class="edge">
<title>AccountFreezing&#45;&gt;Signer</title>
<path fill="none" stroke="black" d="M3104.8,-287.84C3114.6,-255.27 3130.08,-184.14 3094,-144 3035.65,-79.07 2407.16,-33.21 2234.61,-21.78"/>
<polygon fill="black" stroke="black" points="2234.59,-18.27 2224.38,-21.11 2234.13,-25.26 2234.59,-18.27"/>
</g>
<!-- AccountFreezing&#45;&gt;Roles -->
<g id="edge77" class="edge">
<title>AccountFreezing&#45;&gt;Roles</title>
<path fill="none" stroke="black" d="M3029.18,-301.95C2754.56,-289.94 1753.29,-246.16 1538.68,-236.78"/>
<polygon fill="black" stroke="black" points="1538.63,-233.27 1528.49,-236.33 1538.32,-240.27 1538.63,-233.27"/>
</g>
<!-- AccountFreezing&#45;&gt;Event -->
<g id="edge78" class="edge">
<title>AccountFreezing&#45;&gt;Event</title>
<path fill="none" stroke="black" d="M3045.55,-294.02C3035.1,-291.96 3024.22,-289.86 3014,-288 2917.39,-270.37 2892.56,-269.86 2796,-252 2781.59,-249.34 2765.83,-246.17 2751.95,-243.3"/>
<polygon fill="black" stroke="black" points="2752.26,-239.79 2741.76,-241.17 2750.83,-246.64 2752.26,-239.79"/>
</g>
<!-- DiemAccount&#45;&gt;DiemTimestamp -->
<g id="edge82" class="edge">
<title>DiemAccount&#45;&gt;DiemTimestamp</title>
<path fill="none" stroke="black" d="M1703.37,-665.32C1535,-664.61 1074,-650.96 1074,-523 1074,-523 1074,-523 1074,-449 1074,-408.03 1061.82,-399.23 1050,-360 1045.14,-343.85 1041.05,-340.59 1038,-324 1032.21,-292.5 1035.67,-284.02 1035,-252 1034.67,-236 1031.62,-231.64 1035,-216 1036.96,-206.92 1040.61,-197.52 1044.49,-189.2"/>
<polygon fill="black" stroke="black" points="1047.73,-190.53 1049.05,-180.02 1041.46,-187.42 1047.73,-190.53"/>
</g>
<!-- DiemAccount&#45;&gt;DiemConfig -->
<g id="edge88" class="edge">
<title>DiemAccount&#45;&gt;DiemConfig</title>
<path fill="none" stroke="black" d="M1823.65,-663.02C1875.37,-658.84 1950.44,-646.66 2006,-612 2127.32,-536.32 2090.44,-444.21 2206,-360 2232.09,-340.99 2265.8,-327.99 2293.72,-319.62"/>
<polygon fill="black" stroke="black" points="2294.69,-322.98 2303.34,-316.85 2292.76,-316.26 2294.69,-322.98"/>
</g>
<!-- DiemAccount&#45;&gt;Diem -->
<g id="edge89" class="edge">
<title>DiemAccount&#45;&gt;Diem</title>
<path fill="none" stroke="black" d="M1736.55,-649.78C1666.52,-610.95 1481.59,-508.43 1408.42,-467.86"/>
<polygon fill="black" stroke="black" points="1410.11,-464.8 1399.66,-463.01 1406.71,-470.92 1410.11,-464.8"/>
</g>
<!-- DiemAccount&#45;&gt;XUS -->
<g id="edge91" class="edge">
<title>DiemAccount&#45;&gt;XUS</title>
<path fill="none" stroke="black" d="M1703.63,-664.3C1525.43,-661.81 1010.11,-651.23 946,-612 923.2,-598.04 909,-570.28 901.11,-549.45"/>
<polygon fill="black" stroke="black" points="904.36,-548.14 897.73,-539.88 897.76,-550.47 904.36,-548.14"/>
</g>
<!-- DiemAccount&#45;&gt;XDX -->
<g id="edge92" class="edge">
<title>DiemAccount&#45;&gt;XDX</title>
<path fill="none" stroke="black" d="M1703.87,-663.95C1507.68,-660.21 894.1,-645.89 812,-612 778.43,-598.14 748.58,-568.05 730.42,-546.69"/>
<polygon fill="black" stroke="black" points="732.9,-544.19 723.83,-538.71 727.5,-548.65 732.9,-544.19"/>
</g>
<!-- DiemAccount&#45;&gt;TransactionFee -->
<g id="edge97" class="edge">
<title>DiemAccount&#45;&gt;TransactionFee</title>
<path fill="none" stroke="black" d="M1704.59,-662.36C1546.79,-655.26 1104.11,-634.74 736,-612 680.8,-608.59 618.4,-604.06 571.63,-600.54"/>
<polygon fill="black" stroke="black" points="571.83,-597.05 561.59,-599.78 571.3,-604.03 571.83,-597.05"/>
</g>
<!-- DiemAccount&#45;&gt;DualAttestation -->
<g id="edge99" class="edge">
<title>DiemAccount&#45;&gt;DualAttestation</title>
<path fill="none" stroke="black" d="M1823.62,-662.91C1941.25,-658.22 2211.32,-644.59 2436,-612 2443.05,-610.98 2450.41,-609.7 2457.69,-608.31"/>
<polygon fill="black" stroke="black" points="2458.4,-611.74 2467.53,-606.36 2457.04,-604.87 2458.4,-611.74"/>
</g>
<!-- DiemAccount&#45;&gt;DiemTransactionPublishingOption -->
<g id="edge100" class="edge">
<title>DiemAccount&#45;&gt;DiemTransactionPublishingOption</title>
<path fill="none" stroke="black" d="M1822.36,-661.06C1971.01,-650.89 2354.01,-623.7 2379,-612 2479.29,-565.05 2560.47,-455.05 2593.73,-404.82"/>
<polygon fill="black" stroke="black" points="2596.84,-406.46 2599.38,-396.17 2590.98,-402.63 2596.84,-406.46"/>
</g>
<!-- DiemAccount&#45;&gt;ChainId -->
<g id="edge102" class="edge">
<title>DiemAccount&#45;&gt;ChainId</title>
<path fill="none" stroke="black" d="M1703.45,-665.35C1534.01,-665.67 1057.88,-661.97 911,-612 829.78,-584.37 825.08,-547.28 751,-504 658.32,-449.86 601.61,-480.16 535,-396 504.12,-356.98 497.63,-297.04 496.67,-262.36"/>
<polygon fill="black" stroke="black" points="500.16,-262 496.52,-252.05 493.16,-262.1 500.16,-262"/>
</g>
<!-- DiemAccount&#45;&gt;AccountFreezing -->
<g id="edge103" class="edge">
<title>DiemAccount&#45;&gt;AccountFreezing</title>
<path fill="none" stroke="black" d="M1824.45,-664.48C2072.6,-661.59 3000,-642.74 3000,-523 3000,-523 3000,-523 3000,-449 3000,-408.03 3000.55,-393.59 3024,-360 3033.05,-347.04 3046.33,-336.17 3059.22,-327.72"/>
<polygon fill="black" stroke="black" points="3061.37,-330.5 3068.02,-322.25 3057.68,-324.55 3061.37,-330.5"/>
</g>
<!-- DiemAccount&#45;&gt;Errors -->
<g id="edge80" class="edge">
<title>DiemAccount&#45;&gt;Errors</title>
<path fill="none" stroke="black" d="M1703.67,-663.95C1477.3,-659.78 678.5,-643.16 426,-612 234.03,-588.31 0,-716.42 0,-523 0,-523 0,-523 0,-161 0,-116.87 7.07,-96.15 44,-72 90.74,-41.44 939.42,-23.6 1141.21,-19.78"/>
<polygon fill="black" stroke="black" points="1141.48,-23.27 1151.41,-19.59 1141.35,-16.27 1141.48,-23.27"/>
</g>
<!-- DiemAccount&#45;&gt;CoreAddresses -->
<g id="edge81" class="edge">
<title>DiemAccount&#45;&gt;CoreAddresses</title>
<path fill="none" stroke="black" d="M1815.45,-656.42C1882.7,-641.93 1992,-605.66 1992,-523 1992,-523 1992,-523 1992,-449 1992,-393.73 2179.44,-371.9 2207,-324 2214.98,-310.13 2216.36,-300.98 2207,-288 2177.42,-246.95 2139.06,-282.91 2099,-252 2055.68,-218.58 2035.93,-154.39 2027.87,-117.97"/>
<polygon fill="black" stroke="black" points="2031.27,-117.13 2025.81,-108.05 2024.41,-118.56 2031.27,-117.13"/>
</g>
<!-- DiemAccount&#45;&gt;Signer -->
<g id="edge79" class="edge">
<title>DiemAccount&#45;&gt;Signer</title>
<path fill="none" stroke="black" d="M1824.1,-663.51C2138.32,-655.35 3578,-613.05 3578,-523 3578,-523 3578,-523 3578,-161 3578,-127.66 3712.31,-149.45 3405,-72 3289.89,-42.99 2438.69,-24.02 2234.8,-19.86"/>
<polygon fill="black" stroke="black" points="2234.82,-16.36 2224.76,-19.66 2234.68,-23.36 2234.82,-16.36"/>
</g>
<!-- DiemAccount&#45;&gt;Roles -->
<g id="edge84" class="edge">
<title>DiemAccount&#45;&gt;Roles</title>
<path fill="none" stroke="black" d="M1818.46,-657.93C1846.93,-651.17 1879.43,-637.92 1897,-612 1905.98,-598.76 1903.92,-590.43 1897,-576 1841.8,-460.83 1771.03,-477.86 1673,-396 1635.52,-364.7 1626.01,-356.99 1590,-324 1565.77,-301.8 1538.83,-275.55 1520.4,-257.34"/>
<polygon fill="black" stroke="black" points="1522.63,-254.61 1513.06,-250.06 1517.7,-259.58 1522.63,-254.61"/>
</g>
<!-- DiemAccount&#45;&gt;Event -->
<g id="edge87" class="edge">
<title>DiemAccount&#45;&gt;Event</title>
<path fill="none" stroke="black" d="M1823.11,-661.97C1947.86,-655.12 2229.55,-637.05 2265,-612 2337.4,-560.83 2297.27,-502.53 2351,-432 2380.59,-393.15 2391.11,-383.35 2434,-360 2484.4,-332.56 2505.19,-346.45 2558,-324 2604.53,-304.23 2654.61,-273.57 2684.88,-253.9"/>
<polygon fill="black" stroke="black" points="2686.8,-256.83 2693.24,-248.41 2682.96,-250.97 2686.8,-256.83"/>
</g>
<!-- DiemAccount&#45;&gt;Vector -->
<g id="edge85" class="edge">
<title>DiemAccount&#45;&gt;Vector</title>
<path fill="none" stroke="black" d="M1822.84,-661.83C1880.84,-656.89 1970.85,-644.25 2042,-612 2136.74,-569.06 2343.1,-402.8 2411,-324 2447.28,-281.9 2476.1,-223.13 2490.96,-189.47"/>
<polygon fill="black" stroke="black" points="2494.36,-190.45 2495.12,-179.88 2487.93,-187.67 2494.36,-190.45"/>
</g>
<!-- DiemAccount&#45;&gt;AccountLimits -->
<g id="edge90" class="edge">
<title>DiemAccount&#45;&gt;AccountLimits</title>
<path fill="none" stroke="black" d="M1703.79,-663.66C1537.55,-659.55 1080.63,-645.32 1022,-612 980.09,-588.18 960,-571.21 960,-523 960,-523 960,-523 960,-449 960,-404.11 931.51,-358.7 910.88,-331.71"/>
<polygon fill="black" stroke="black" points="913.44,-329.3 904.5,-323.61 907.94,-333.63 913.44,-329.3"/>
</g>
<!-- DiemAccount&#45;&gt;BCS -->
<g id="edge86" class="edge">
<title>DiemAccount&#45;&gt;BCS</title>
<path fill="none" stroke="black" d="M1823.02,-661.94C1953.09,-654.78 2256.07,-635.77 2296,-612 2412.3,-542.77 2356.24,-437.79 2467,-360 2519.93,-322.83 2547.37,-346.51 2608,-324 2675.45,-298.96 2695.98,-295.89 2753,-252 2777.14,-233.42 2799.49,-206.5 2814.02,-187.14"/>
<polygon fill="black" stroke="black" points="2817.02,-188.96 2820.12,-178.83 2811.38,-184.82 2817.02,-188.96"/>
</g>
<!-- DiemAccount&#45;&gt;VASP -->
<g id="edge96" class="edge">
<title>DiemAccount&#45;&gt;VASP</title>
<path fill="none" stroke="black" d="M1751.37,-647.97C1715.33,-599.34 1611.86,-459.75 1569.95,-403.21"/>
<polygon fill="black" stroke="black" points="1572.54,-400.83 1563.77,-394.88 1566.91,-405 1572.54,-400.83"/>
</g>
<!-- SlidingNonce -->
<g id="node29" class="node">
<title>SlidingNonce</title>
<ellipse fill="none" stroke="black" cx="1184" cy="-90" rx="59.29" ry="18"/>
<text text-anchor="middle" x="1184" y="-86.3" font-family="Times,serif" font-size="14.00">SlidingNonce</text>
</g>
<!-- DiemAccount&#45;&gt;SlidingNonce -->
<g id="edge83" class="edge">
<title>DiemAccount&#45;&gt;SlidingNonce</title>
<path fill="none" stroke="black" d="M1704.28,-662.88C1552.27,-657.11 1159,-639.66 1107,-612 1062.33,-588.23 1036,-573.6 1036,-523 1036,-523 1036,-523 1036,-449 1036,-328.19 775.64,-401.51 817,-288 845.62,-209.46 866.39,-187.13 938,-144 992.12,-111.41 1063.59,-98.72 1115.55,-93.86"/>
<polygon fill="black" stroke="black" points="1116,-97.33 1125.67,-92.99 1115.4,-90.36 1116,-97.33"/>
</g>
<!-- ValidatorOperatorConfig -->
<g id="node30" class="node">
<title>ValidatorOperatorConfig</title>
<ellipse fill="none" stroke="black" cx="1222" cy="-306" rx="98.28" ry="18"/>
<text text-anchor="middle" x="1222" y="-302.3" font-family="Times,serif" font-size="14.00">ValidatorOperatorConfig</text>
</g>
<!-- DiemAccount&#45;&gt;ValidatorOperatorConfig -->
<g id="edge93" class="edge">
<title>DiemAccount&#45;&gt;ValidatorOperatorConfig</title>
<path fill="none" stroke="black" d="M1704.79,-662.05C1585.74,-655.58 1326.13,-638.57 1296,-612 1214.44,-540.07 1215.07,-394.92 1219.31,-334.43"/>
<polygon fill="black" stroke="black" points="1222.83,-334.41 1220.13,-324.16 1215.85,-333.85 1222.83,-334.41"/>
</g>
<!-- Option -->
<g id="node31" class="node">
<title>Option</title>
<ellipse fill="none" stroke="black" cx="2057" cy="-306" rx="35.19" ry="18"/>
<text text-anchor="middle" x="2057" y="-302.3" font-family="Times,serif" font-size="14.00">Option</text>
</g>
<!-- DiemAccount&#45;&gt;Option -->
<g id="edge94" class="edge">
<title>DiemAccount&#45;&gt;Option</title>
<path fill="none" stroke="black" d="M1772.77,-648.12C1798.83,-599.1 1880.16,-454.23 1978,-360 1992.02,-346.5 2009.88,-334.19 2025.07,-324.85"/>
<polygon fill="black" stroke="black" points="2026.88,-327.84 2033.65,-319.7 2023.28,-321.84 2026.88,-327.84"/>
</g>
<!-- ValidatorConfig -->
<g id="node32" class="node">
<title>ValidatorConfig</title>
<ellipse fill="none" stroke="black" cx="1821" cy="-378" rx="66.89" ry="18"/>
<text text-anchor="middle" x="1821" y="-374.3" font-family="Times,serif" font-size="14.00">ValidatorConfig</text>
</g>
<!-- DiemAccount&#45;&gt;ValidatorConfig -->
<g id="edge95" class="edge">
<title>DiemAccount&#45;&gt;ValidatorConfig</title>
<path fill="none" stroke="black" d="M1768.62,-647.94C1777.17,-616.27 1794.82,-550.61 1797,-540 1806.63,-493.25 1814,-438.1 1817.9,-405.99"/>
<polygon fill="black" stroke="black" points="1821.38,-406.37 1819.09,-396.03 1814.43,-405.54 1821.38,-406.37"/>
</g>
<!-- Hash -->
<g id="node33" class="node">
<title>Hash</title>
<ellipse fill="none" stroke="black" cx="1859" cy="-594" rx="28.7" ry="18"/>
<text text-anchor="middle" x="1859" y="-590.3" font-family="Times,serif" font-size="14.00">Hash</text>
</g>
<!-- DiemAccount&#45;&gt;Hash -->
<g id="edge98" class="edge">
<title>DiemAccount&#45;&gt;Hash</title>
<path fill="none" stroke="black" d="M1785.56,-649.12C1799.56,-638.8 1817.9,-625.28 1832.75,-614.34"/>
<polygon fill="black" stroke="black" points="1835.06,-616.99 1841.04,-608.24 1830.91,-611.35 1835.06,-616.99"/>
</g>
<!-- DesignatedDealer -->
<g id="node34" class="node">
<title>DesignatedDealer</title>
<ellipse fill="none" stroke="black" cx="1378" cy="-594" rx="73.39" ry="18"/>
<text text-anchor="middle" x="1378" y="-590.3" font-family="Times,serif" font-size="14.00">DesignatedDealer</text>
</g>
<!-- DiemAccount&#45;&gt;DesignatedDealer -->
<g id="edge101" class="edge">
<title>DiemAccount&#45;&gt;DesignatedDealer</title>
<path fill="none" stroke="black" d="M1713.54,-655.85C1644.79,-643.38 1521.54,-621.03 1445.08,-607.16"/>
<polygon fill="black" stroke="black" points="1445.53,-603.69 1435.07,-605.35 1444.28,-610.58 1445.53,-603.69"/>
</g>
<!-- DiemSystem&#45;&gt;DiemTimestamp -->
<g id="edge107" class="edge">
<title>DiemSystem&#45;&gt;DiemTimestamp</title>
<path fill="none" stroke="black" d="M2766.2,-431.79C2768.81,-412.12 2769.73,-380.06 2753,-360 2681.95,-274.8 2621.24,-316.41 2514,-288 2375.6,-251.33 2341.86,-235.4 2200,-216 1994.89,-187.95 1365.37,-170.4 1140.17,-164.88"/>
<polygon fill="black" stroke="black" points="1140.16,-161.38 1130.08,-164.63 1139.99,-168.38 1140.16,-161.38"/>
</g>
<!-- DiemSystem&#45;&gt;DiemConfig -->
<g id="edge110" class="edge">
<title>DiemSystem&#45;&gt;DiemConfig</title>
<path fill="none" stroke="black" d="M2706.8,-446.58C2645.58,-442.22 2545.84,-430.05 2467,-396 2430.15,-380.09 2394,-350.89 2371.17,-330.28"/>
<polygon fill="black" stroke="black" points="2373.4,-327.58 2363.67,-323.39 2368.66,-332.73 2373.4,-327.58"/>
</g>
<!-- DiemSystem&#45;&gt;Errors -->
<g id="edge105" class="edge">
<title>DiemSystem&#45;&gt;Errors</title>
<path fill="none" stroke="black" d="M2814.53,-441.92C2919.18,-426.36 3150.61,-385.63 3197,-324 3253.66,-248.72 3169.72,-185.24 3085,-144 2923.77,-65.51 2866.29,-91.21 2688,-72 2393.43,-40.27 1440.36,-23.16 1226.75,-19.67"/>
<polygon fill="black" stroke="black" points="1226.63,-16.17 1216.57,-19.51 1226.51,-23.17 1226.63,-16.17"/>
</g>
<!-- DiemSystem&#45;&gt;CoreAddresses -->
<g id="edge106" class="edge">
<title>DiemSystem&#45;&gt;CoreAddresses</title>
<path fill="none" stroke="black" d="M2807.16,-438.53C2865.79,-421.69 2962,-382.55 2962,-307 2962,-307 2962,-307 2962,-233 2962,-63.09 2582.4,-135.52 2205,-108 2167.71,-105.28 2126.2,-101.46 2092.25,-98.14"/>
<polygon fill="black" stroke="black" points="2092.26,-94.62 2081.96,-97.12 2091.57,-101.59 2092.26,-94.62"/>
</g>
<!-- DiemSystem&#45;&gt;Signer -->
<g id="edge104" class="edge">
<title>DiemSystem&#45;&gt;Signer</title>
<path fill="none" stroke="black" d="M2820.1,-448.86C2980.92,-446.93 3426,-430.45 3426,-307 3426,-307 3426,-307 3426,-161 3426,-38.57 2455.74,-21.61 2235.22,-19.34"/>
<polygon fill="black" stroke="black" points="2235.03,-15.84 2225,-19.24 2234.96,-22.84 2235.03,-15.84"/>
</g>
<!-- DiemSystem&#45;&gt;Roles -->
<g id="edge108" class="edge">
<title>DiemSystem&#45;&gt;Roles</title>
<path fill="none" stroke="black" d="M2706.53,-446.82C2634.58,-442.67 2507.17,-430.65 2404,-396 2356.67,-380.1 2254.87,-302.18 2207,-288 2142.91,-269.01 1679.69,-244.21 1538.65,-237.03"/>
<polygon fill="black" stroke="black" points="1538.46,-233.52 1528.29,-236.5 1538.1,-240.51 1538.46,-233.52"/>
</g>
<!-- DiemSystem&#45;&gt;Vector -->
<g id="edge109" class="edge">
<title>DiemSystem&#45;&gt;Vector</title>
<path fill="none" stroke="black" d="M2772.54,-431.93C2777.64,-421.82 2783.39,-408.57 2786,-396 2796.34,-346.18 2786.8,-320.92 2748,-288 2709.41,-255.27 2685.62,-273.88 2640,-252 2618.06,-241.47 2564,-205.4 2530.42,-182.54"/>
<polygon fill="black" stroke="black" points="2532.18,-179.5 2521.95,-176.75 2528.23,-185.28 2532.18,-179.5"/>
</g>
<!-- DiemSystem&#45;&gt;Option -->
<g id="edge111" class="edge">
<title>DiemSystem&#45;&gt;Option</title>
<path fill="none" stroke="black" d="M2708.55,-444.37C2630.4,-437.16 2482.19,-421.39 2358,-396 2241.78,-372.24 2213.56,-361.42 2101,-324 2098.46,-323.16 2095.86,-322.25 2093.25,-321.32"/>
<polygon fill="black" stroke="black" points="2094.44,-318.03 2083.84,-317.84 2092.01,-324.59 2094.44,-318.03"/>
</g>
<!-- DiemSystem&#45;&gt;ValidatorConfig -->
<g id="edge112" class="edge">
<title>DiemSystem&#45;&gt;ValidatorConfig</title>
<path fill="none" stroke="black" d="M2707.94,-444.91C2546.98,-432.95 2077.16,-398.04 1894.68,-384.47"/>
<polygon fill="black" stroke="black" points="1894.87,-380.98 1884.64,-383.73 1894.35,-387.96 1894.87,-380.98"/>
</g>
<!-- DiemBlock&#45;&gt;DiemTimestamp -->
<g id="edge115" class="edge">
<title>DiemBlock&#45;&gt;DiemTimestamp</title>
<path fill="none" stroke="black" d="M3350.41,-504.13C3329.82,-460.46 3268.38,-343.26 3179,-288 3161.14,-276.96 2828.87,-218.33 2808,-216 2478.67,-179.3 1440.45,-166.66 1140.74,-163.73"/>
<polygon fill="black" stroke="black" points="1140.43,-160.22 1130.4,-163.63 1140.36,-167.22 1140.43,-160.22"/>
</g>
<!-- DiemBlock&#45;&gt;DiemSystem -->
<g id="edge117" class="edge">
<title>DiemBlock&#45;&gt;DiemSystem</title>
<path fill="none" stroke="black" d="M3309.56,-515.3C3202.4,-502.69 2945.3,-472.45 2825.9,-458.4"/>
<polygon fill="black" stroke="black" points="2826.16,-454.91 2815.82,-457.21 2825.34,-461.86 2826.16,-454.91"/>
</g>
<!-- DiemBlock&#45;&gt;Errors -->
<g id="edge113" class="edge">
<title>DiemBlock&#45;&gt;Errors</title>
<path fill="none" stroke="black" d="M3366.72,-503.83C3371.37,-493.69 3376.62,-480.44 3379,-468 3400.05,-357.71 3410.29,-316.89 3361,-216 3340.43,-173.9 3324.45,-167.64 3284,-144 3261.06,-130.6 3082.2,-76.42 3056,-72 2962.92,-56.3 1497.69,-25.46 1226.87,-19.88"/>
<polygon fill="black" stroke="black" points="1226.73,-16.37 1216.66,-19.67 1226.58,-23.37 1226.73,-16.37"/>
</g>
<!-- DiemBlock&#45;&gt;CoreAddresses -->
<g id="edge114" class="edge">
<title>DiemBlock&#45;&gt;CoreAddresses</title>
<path fill="none" stroke="black" d="M3360.55,-503.92C3365.75,-462.67 3373.39,-356 3326,-288 3248.24,-176.42 3187.05,-180.36 3056,-144 2875.3,-93.87 2301.92,-90.26 2096.83,-90.63"/>
<polygon fill="black" stroke="black" points="2096.75,-87.13 2086.76,-90.65 2096.77,-94.13 2096.75,-87.13"/>
</g>
<!-- DiemBlock&#45;&gt;Event -->
<g id="edge116" class="edge">
<title>DiemBlock&#45;&gt;Event</title>
<path fill="none" stroke="black" d="M3328.76,-507.01C3306.76,-496.43 3275.9,-481.48 3249,-468 3092.96,-389.84 3063.64,-348.68 2900,-288 2835.31,-264.01 2814.1,-274.85 2749,-252 2747.61,-251.51 2746.21,-250.99 2744.8,-250.44"/>
<polygon fill="black" stroke="black" points="2746.13,-247.2 2735.55,-246.52 2743.39,-253.65 2746.13,-247.2"/>
</g>
<!-- DiemVMConfig&#45;&gt;DiemTimestamp -->
<g id="edge118" class="edge">
<title>DiemVMConfig&#45;&gt;DiemTimestamp</title>
<path fill="none" stroke="black" d="M629.82,-360.4C648.99,-341.01 682.98,-308.93 717,-288 807.77,-232.17 927.29,-195.66 998.34,-177.24"/>
<polygon fill="black" stroke="black" points="999.21,-180.63 1008.03,-174.76 997.48,-173.85 999.21,-180.63"/>
</g>
<!-- DiemVMConfig&#45;&gt;DiemConfig -->
<g id="edge120" class="edge">
<title>DiemVMConfig&#45;&gt;DiemConfig</title>
<path fill="none" stroke="black" d="M670.38,-367.41C689.56,-364.52 711.16,-361.68 731,-360 1384.86,-304.72 1552.53,-371.61 2207,-324 2233.72,-322.06 2263.18,-318.67 2288.15,-315.43"/>
<polygon fill="black" stroke="black" points="2288.74,-318.88 2298.2,-314.1 2287.82,-311.94 2288.74,-318.88"/>
</g>
<!-- DiemVMConfig&#45;&gt;Roles -->
<g id="edge119" class="edge">
<title>DiemVMConfig&#45;&gt;Roles</title>
<path fill="none" stroke="black" d="M641.51,-361.36C679.58,-340.56 751.12,-304.5 817,-288 939.52,-257.31 1329.64,-241 1457.2,-236.39"/>
<polygon fill="black" stroke="black" points="1457.46,-239.88 1467.33,-236.02 1457.21,-232.88 1457.46,-239.88"/>
</g>
<!-- DiemVersion&#45;&gt;DiemTimestamp -->
<g id="edge122" class="edge">
<title>DiemVersion&#45;&gt;DiemTimestamp</title>
<path fill="none" stroke="black" d="M329.58,-360.4C347.5,-339.74 381.12,-305.11 418,-288 514.25,-243.34 556.17,-293.07 654,-252 678.59,-241.68 677.35,-226.18 702,-216 808.2,-172.15 844.45,-197.54 958,-180 969.01,-178.3 980.68,-176.41 992.03,-174.53"/>
<polygon fill="black" stroke="black" points="992.6,-177.99 1001.89,-172.89 991.45,-171.08 992.6,-177.99"/>
</g>
<!-- DiemVersion&#45;&gt;DiemConfig -->
<g id="edge124" class="edge">
<title>DiemVersion&#45;&gt;DiemConfig</title>
<path fill="none" stroke="black" d="M370.85,-371.89C415.11,-367.97 479.01,-362.77 535,-360 1277.37,-323.22 1465.6,-376.86 2207,-324 2233.72,-322.09 2263.18,-318.71 2288.15,-315.46"/>
<polygon fill="black" stroke="black" points="2288.74,-318.92 2298.2,-314.13 2287.82,-311.98 2288.74,-318.92"/>
</g>
<!-- DiemVersion&#45;&gt;Errors -->
<g id="edge121" class="edge">
<title>DiemVersion&#45;&gt;Errors</title>
<path fill="none" stroke="black" d="M270.92,-366.67C211.38,-350.04 114,-311.2 114,-235 114,-235 114,-235 114,-161 114,-113.79 131.09,-95.57 172,-72 256.82,-23.12 959.08,-19.17 1141.07,-18.97"/>
<polygon fill="black" stroke="black" points="1141.32,-22.47 1151.31,-18.97 1141.31,-15.47 1141.32,-22.47"/>
</g>
<!-- DiemVersion&#45;&gt;Roles -->
<g id="edge123" class="edge">
<title>DiemVersion&#45;&gt;Roles</title>
<path fill="none" stroke="black" d="M342.04,-361.84C379.51,-340.89 451.47,-303.9 518,-288 700.64,-244.37 1295.24,-236.58 1457.03,-235.26"/>
<polygon fill="black" stroke="black" points="1457.08,-238.76 1467.06,-235.18 1457.03,-231.76 1457.08,-238.76"/>
</g>
<!-- CoreAddresses&#45;&gt;Errors -->
<g id="edge126" class="edge">
<title>CoreAddresses&#45;&gt;Errors</title>
<path fill="none" stroke="black" d="M1976.18,-77.64C1965.95,-75.49 1955.15,-73.45 1945,-72 1673.25,-33.13 1342.66,-22.46 1226.67,-19.8"/>
<polygon fill="black" stroke="black" points="1226.52,-16.3 1216.44,-19.58 1226.36,-23.3 1226.52,-16.3"/>
</g>
<!-- CoreAddresses&#45;&gt;Signer -->
<g id="edge125" class="edge">
<title>CoreAddresses&#45;&gt;Signer</title>
<path fill="none" stroke="black" d="M2057.4,-74.67C2086.12,-62.7 2126.9,-45.71 2155.83,-33.65"/>
<polygon fill="black" stroke="black" points="2157.27,-36.85 2165.15,-29.77 2154.57,-30.39 2157.27,-36.85"/>
</g>
<!-- Roles&#45;&gt;DiemTimestamp -->
<g id="edge130" class="edge">
<title>Roles&#45;&gt;DiemTimestamp</title>
<path fill="none" stroke="black" d="M1468.86,-228.35C1399.96,-217.37 1225.52,-189.55 1127.88,-173.98"/>
<polygon fill="black" stroke="black" points="1128.24,-170.5 1117.81,-172.38 1127.13,-177.41 1128.24,-170.5"/>
</g>
<!-- Roles&#45;&gt;Errors -->
<g id="edge128" class="edge">
<title>Roles&#45;&gt;Errors</title>
<path fill="none" stroke="black" d="M1478.83,-219.94C1425.53,-183.61 1275.34,-81.25 1212.36,-38.33"/>
<polygon fill="black" stroke="black" points="1213.95,-35.18 1203.72,-32.44 1210.01,-40.96 1213.95,-35.18"/>
</g>
<!-- Roles&#45;&gt;CoreAddresses -->
<g id="edge129" class="edge">
<title>Roles&#45;&gt;CoreAddresses</title>
<path fill="none" stroke="black" d="M1526.19,-226.9C1568.93,-217.53 1652.61,-198.72 1723,-180 1811.1,-156.58 1912.59,-125.62 1972.07,-107.07"/>
<polygon fill="black" stroke="black" points="1973.46,-110.31 1981.96,-103.98 1971.37,-103.63 1973.46,-110.31"/>
</g>
<!-- Roles&#45;&gt;Signer -->
<g id="edge127" class="edge">
<title>Roles&#45;&gt;Signer</title>
<path fill="none" stroke="black" d="M1513.52,-218.23C1549.04,-185.43 1640.36,-106.65 1733,-72 1808.4,-43.8 2048.03,-27.2 2147.29,-21.37"/>
<polygon fill="black" stroke="black" points="2147.51,-24.87 2157.29,-20.8 2147.1,-17.88 2147.51,-24.87"/>
</g>
<!-- Event&#45;&gt;Errors -->
<g id="edge132" class="edge">
<title>Event&#45;&gt;Errors</title>
<path fill="none" stroke="black" d="M2687.49,-223.32C2649.69,-208.94 2582.75,-183.26 2578,-180 2560.1,-167.72 2564.28,-153.97 2545,-144 2431.59,-85.35 2385.21,-132.98 2260,-108 2200.79,-96.19 2188.59,-81.75 2129,-72 1951.65,-43 1387.52,-24.86 1226.99,-20.2"/>
<polygon fill="black" stroke="black" points="1226.67,-16.69 1216.58,-19.9 1226.47,-23.69 1226.67,-16.69"/>
</g>
<!-- Event&#45;&gt;Signer -->
<g id="edge131" class="edge">
<title>Event&#45;&gt;Signer</title>
<path fill="none" stroke="black" d="M2694.49,-219.11C2669.12,-200.48 2621.7,-167.06 2578,-144 2503.26,-104.55 2482.3,-98.36 2402,-72 2343.86,-52.91 2274.8,-36.76 2231.93,-27.47"/>
<polygon fill="black" stroke="black" points="2232.65,-24.04 2222.14,-25.37 2231.19,-30.89 2232.65,-24.04"/>
</g>
<!-- Event&#45;&gt;Vector -->
<g id="edge133" class="edge">
<title>Event&#45;&gt;Vector</title>
<path fill="none" stroke="black" d="M2687.88,-223.18C2681.43,-220.75 2674.48,-218.21 2668,-216 2616.1,-198.3 2602.08,-197.16 2550,-180 2546.28,-178.77 2542.41,-177.46 2538.56,-176.14"/>
<polygon fill="black" stroke="black" points="2539.68,-172.82 2529.09,-172.83 2537.38,-179.43 2539.68,-172.82"/>
</g>
<!-- Event&#45;&gt;BCS -->
<g id="edge134" class="edge">
<title>Event&#45;&gt;BCS</title>
<path fill="none" stroke="black" d="M2734.1,-220.49C2753.15,-209.18 2781.36,-192.45 2802.43,-179.95"/>
<polygon fill="black" stroke="black" points="2804.45,-182.82 2811.26,-174.71 2800.88,-176.8 2804.45,-182.82"/>
</g>
<!-- FixedPoint32&#45;&gt;Errors -->
<g id="edge135" class="edge">
<title>FixedPoint32&#45;&gt;Errors</title>
<path fill="none" stroke="black" d="M748.38,-368.74C597.11,-343.21 152,-265.5 152,-235 152,-235 152,-235 152,-161 152,-83.48 227.89,-94.74 302,-72 461.5,-23.05 986.77,-19.02 1141.04,-18.91"/>
<polygon fill="black" stroke="black" points="1141.49,-22.41 1151.49,-18.91 1141.49,-15.41 1141.49,-22.41"/>
</g>
<!-- RegisteredCurrencies&#45;&gt;DiemTimestamp -->
<g id="edge137" class="edge">
<title>RegisteredCurrencies&#45;&gt;DiemTimestamp</title>
<path fill="none" stroke="black" d="M1304.72,-368.39C1222.15,-357.99 1097.36,-339.92 1082,-324 1047.61,-288.38 1049.54,-226.01 1054.17,-190.26"/>
<polygon fill="black" stroke="black" points="1057.68,-190.48 1055.66,-180.07 1050.75,-189.46 1057.68,-190.48"/>
</g>
<!-- RegisteredCurrencies&#45;&gt;DiemConfig -->
<g id="edge140" class="edge">
<title>RegisteredCurrencies&#45;&gt;DiemConfig</title>
<path fill="none" stroke="black" d="M1447.26,-367.14C1467.75,-364.5 1490.25,-361.86 1511,-360 1819.51,-332.34 1898.4,-350.68 2207,-324 2233.48,-321.71 2262.67,-318.31 2287.52,-315.14"/>
<polygon fill="black" stroke="black" points="2288.05,-318.6 2297.52,-313.85 2287.16,-311.66 2288.05,-318.6"/>
</g>
<!-- RegisteredCurrencies&#45;&gt;Errors -->
<g id="edge136" class="edge">
<title>RegisteredCurrencies&#45;&gt;Errors</title>
<path fill="none" stroke="black" d="M1299.26,-370.44C1155.98,-358.37 863.11,-333.06 817,-324 762.78,-313.35 751.98,-299.83 698,-288 641.02,-275.52 476.31,-295.98 438,-252 238.89,-23.42 955.48,-16.35 1141.14,-18.25"/>
<polygon fill="black" stroke="black" points="1141.3,-21.76 1151.34,-18.37 1141.38,-14.76 1141.3,-21.76"/>
</g>
<!-- RegisteredCurrencies&#45;&gt;Roles -->
<g id="edge138" class="edge">
<title>RegisteredCurrencies&#45;&gt;Roles</title>
<path fill="none" stroke="black" d="M1390.72,-359.91C1404.42,-341.72 1427.08,-312.27 1448,-288 1456.9,-277.67 1467.18,-266.64 1476.09,-257.33"/>
<polygon fill="black" stroke="black" points="1478.76,-259.6 1483.19,-249.97 1473.73,-254.74 1478.76,-259.6"/>
</g>
<!-- RegisteredCurrencies&#45;&gt;Vector -->
<g id="edge139" class="edge">
<title>RegisteredCurrencies&#45;&gt;Vector</title>
<path fill="none" stroke="black" d="M1438.5,-365.04C1575.66,-337.99 1920.79,-270.23 2210,-216 2299.15,-199.28 2403.77,-180.5 2460.43,-170.39"/>
<polygon fill="black" stroke="black" points="2461.2,-173.81 2470.43,-168.61 2459.98,-166.91 2461.2,-173.81"/>
</g>
<!-- AccountLimits&#45;&gt;DiemTimestamp -->
<g id="edge143" class="edge">
<title>AccountLimits&#45;&gt;DiemTimestamp</title>
<path fill="none" stroke="black" d="M902.13,-288.12C916.4,-269.05 941.52,-237.82 968,-216 983.24,-203.44 1001.81,-192.05 1018.2,-183.07"/>
<polygon fill="black" stroke="black" points="1019.88,-186.14 1027.04,-178.34 1016.58,-179.97 1019.88,-186.14"/>
</g>
<!-- AccountLimits&#45;&gt;Errors -->
<g id="edge142" class="edge">
<title>AccountLimits&#45;&gt;Errors</title>
<path fill="none" stroke="black" d="M831.93,-298.52C712.92,-285.17 452.16,-255.56 449,-252 438.38,-240.03 439.94,-229.19 449,-216 529.79,-98.33 997.89,-38.94 1141.87,-23.29"/>
<polygon fill="black" stroke="black" points="1142.49,-26.74 1152.06,-22.2 1141.75,-19.78 1142.49,-26.74"/>
</g>
<!-- AccountLimits&#45;&gt;Signer -->
<g id="edge141" class="edge">
<title>AccountLimits&#45;&gt;Signer</title>
<path fill="none" stroke="black" d="M893.55,-287.96C901.73,-253.58 925.46,-176.43 979,-144 1038.13,-108.18 1219.39,-116.45 1288,-108 1411.21,-92.82 1441.56,-85.24 1565,-72 1783.38,-48.58 2045.55,-29.21 2147.48,-22.01"/>
<polygon fill="black" stroke="black" points="2147.97,-25.49 2157.7,-21.29 2147.48,-18.5 2147.97,-25.49"/>
</g>
<!-- AccountLimits&#45;&gt;Roles -->
<g id="edge144" class="edge">
<title>AccountLimits&#45;&gt;Roles</title>
<path fill="none" stroke="black" d="M947.75,-298.35C1070.26,-284.25 1353.54,-251.63 1458.2,-239.58"/>
<polygon fill="black" stroke="black" points="1458.8,-243.04 1468.34,-238.41 1458,-236.08 1458.8,-243.04"/>
</g>
<!-- VASP&#45;&gt;DiemTimestamp -->
<g id="edge147" class="edge">
<title>VASP&#45;&gt;DiemTimestamp</title>
<path fill="none" stroke="black" d="M1522.88,-369.92C1508.03,-366.52 1489.63,-362.62 1473,-360 1394.02,-347.57 1177.76,-373.54 1115,-324 1093.63,-307.13 1074.05,-231.35 1064.73,-190.05"/>
<polygon fill="black" stroke="black" points="1068.11,-189.12 1062.53,-180.11 1061.27,-190.63 1068.11,-189.12"/>
</g>
<!-- VASP&#45;&gt;Errors -->
<g id="edge146" class="edge">
<title>VASP&#45;&gt;Errors</title>
<path fill="none" stroke="black" d="M1555.2,-359.95C1560.11,-328.77 1566.19,-261.58 1538,-216 1466.36,-100.17 1300.55,-46.85 1224.03,-27.75"/>
<polygon fill="black" stroke="black" points="1224.38,-24.24 1213.84,-25.28 1222.73,-31.04 1224.38,-24.24"/>
</g>
<!-- VASP&#45;&gt;Signer -->
<g id="edge145" class="edge">
<title>VASP&#45;&gt;Signer</title>
<path fill="none" stroke="black" d="M1566.64,-361.76C1615.68,-311.65 1780.67,-150.72 1950,-72 2014.92,-41.82 2097.78,-28.46 2147.49,-22.82"/>
<polygon fill="black" stroke="black" points="2148.01,-26.28 2157.58,-21.73 2147.26,-19.32 2148.01,-26.28"/>
</g>
<!-- VASP&#45;&gt;Roles -->
<g id="edge148" class="edge">
<title>VASP&#45;&gt;Roles</title>
<path fill="none" stroke="black" d="M1545.59,-360.15C1536.3,-335.71 1518.98,-290.17 1508,-261.29"/>
<polygon fill="black" stroke="black" points="1511.22,-259.93 1504.4,-251.82 1504.68,-262.42 1511.22,-259.93"/>
</g>
<!-- VASP&#45;&gt;AccountLimits -->
<g id="edge149" class="edge">
<title>VASP&#45;&gt;AccountLimits</title>
<path fill="none" stroke="black" d="M1522.89,-369.85C1508.04,-366.43 1489.64,-362.54 1473,-360 1460.45,-358.09 1112,-326.84 959.9,-313.24"/>
<polygon fill="black" stroke="black" points="960,-309.74 949.73,-312.33 959.38,-316.71 960,-309.74"/>
</g>
<!-- SlidingNonce&#45;&gt;Errors -->
<g id="edge151" class="edge">
<title>SlidingNonce&#45;&gt;Errors</title>
<path fill="none" stroke="black" d="M1184,-71.7C1184,-63.98 1184,-54.71 1184,-46.11"/>
<polygon fill="black" stroke="black" points="1187.5,-46.1 1184,-36.1 1180.5,-46.1 1187.5,-46.1"/>
</g>
<!-- SlidingNonce&#45;&gt;Signer -->
<g id="edge150" class="edge">
<title>SlidingNonce&#45;&gt;Signer</title>
<path fill="none" stroke="black" d="M1227.39,-77.6C1237.07,-75.42 1247.34,-73.39 1257,-72 1596.65,-23.19 2011.85,-18.84 2146.54,-18.82"/>
<polygon fill="black" stroke="black" points="2146.86,-22.32 2156.86,-18.82 2146.87,-15.32 2146.86,-22.32"/>
</g>
<!-- ValidatorOperatorConfig&#45;&gt;DiemTimestamp -->
<g id="edge154" class="edge">
<title>ValidatorOperatorConfig&#45;&gt;DiemTimestamp</title>
<path fill="none" stroke="black" d="M1201.36,-288.26C1188.73,-277.94 1172.31,-264.35 1158,-252 1132.67,-230.14 1104.32,-204.54 1084.48,-186.42"/>
<polygon fill="black" stroke="black" points="1086.79,-183.79 1077.05,-179.63 1082.07,-188.96 1086.79,-183.79"/>
</g>
<!-- ValidatorOperatorConfig&#45;&gt;Errors -->
<g id="edge153" class="edge">
<title>ValidatorOperatorConfig&#45;&gt;Errors</title>
<path fill="none" stroke="black" d="M1213.78,-287.8C1199.43,-258.05 1168.49,-195.24 1139,-144 1129.53,-127.54 1121.32,-126.22 1116,-108 1111.51,-92.64 1108.98,-86.38 1116,-72 1123.49,-56.66 1137.8,-44.48 1151.37,-35.67"/>
<polygon fill="black" stroke="black" points="1153.36,-38.56 1160.09,-30.38 1149.73,-32.57 1153.36,-38.56"/>
</g>
<!-- ValidatorOperatorConfig&#45;&gt;Signer -->
<g id="edge152" class="edge">
<title>ValidatorOperatorConfig&#45;&gt;Signer</title>
<path fill="none" stroke="black" d="M1245.24,-288.34C1308.3,-244.13 1489.37,-123.7 1660,-72 1750.94,-44.45 2037.09,-27.02 2147.21,-21.18"/>
<polygon fill="black" stroke="black" points="2147.5,-24.67 2157.3,-20.65 2147.13,-17.68 2147.5,-24.67"/>
</g>
<!-- ValidatorOperatorConfig&#45;&gt;Roles -->
<g id="edge155" class="edge">
<title>ValidatorOperatorConfig&#45;&gt;Roles</title>
<path fill="none" stroke="black" d="M1277.19,-291C1331.56,-277.21 1413.15,-256.52 1460.43,-244.53"/>
<polygon fill="black" stroke="black" points="1461.43,-247.89 1470.26,-242.03 1459.71,-241.1 1461.43,-247.89"/>
</g>
<!-- Option&#45;&gt;Errors -->
<g id="edge156" class="edge">
<title>Option&#45;&gt;Errors</title>
<path fill="none" stroke="black" d="M2037.59,-290.98C1997.41,-262.18 1901.88,-194.79 1818,-144 1760.5,-109.18 1749.2,-91.91 1685,-72 1599.59,-45.51 1330.99,-27.52 1226.33,-21.36"/>
<polygon fill="black" stroke="black" points="1226.33,-17.85 1216.14,-20.76 1225.92,-24.84 1226.33,-17.85"/>
</g>
<!-- Option&#45;&gt;Vector -->
<g id="edge157" class="edge">
<title>Option&#45;&gt;Vector</title>
<path fill="none" stroke="black" d="M2083.82,-294.09C2089.46,-291.95 2095.39,-289.81 2101,-288 2160.9,-268.63 2177.69,-270.07 2238,-252 2319.88,-227.47 2414.52,-194.4 2465.28,-176.26"/>
<polygon fill="black" stroke="black" points="2466.6,-179.51 2474.83,-172.84 2464.24,-172.92 2466.6,-179.51"/>
</g>
<!-- ValidatorConfig&#45;&gt;DiemTimestamp -->
<g id="edge160" class="edge">
<title>ValidatorConfig&#45;&gt;DiemTimestamp</title>
<path fill="none" stroke="black" d="M1797.86,-361.11C1770.64,-342.68 1723.86,-311.78 1682,-288 1619.78,-252.66 1606.63,-236.25 1538,-216 1402.56,-176.04 1237.51,-165.73 1140.76,-163.35"/>
<polygon fill="black" stroke="black" points="1140.82,-159.85 1130.75,-163.12 1140.67,-166.85 1140.82,-159.85"/>
</g>
<!-- ValidatorConfig&#45;&gt;Errors -->
<g id="edge159" class="edge">
<title>ValidatorConfig&#45;&gt;Errors</title>
<path fill="none" stroke="black" d="M1804.93,-360.38C1786.61,-341.81 1755.4,-311.31 1726,-288 1590.39,-180.47 1560.5,-141.5 1402,-72 1343.43,-46.32 1270.3,-31.77 1225.39,-24.65"/>
<polygon fill="black" stroke="black" points="1225.85,-21.18 1215.43,-23.12 1224.78,-28.1 1225.85,-21.18"/>
</g>
<!-- ValidatorConfig&#45;&gt;Signer -->
<g id="edge158" class="edge">
<title>ValidatorConfig&#45;&gt;Signer</title>
<path fill="none" stroke="black" d="M1845.59,-361.23C1874.76,-342.78 1925.11,-311.73 1970,-288 2070.91,-234.66 2140.23,-275.33 2203,-180 2229.82,-139.27 2214.64,-79.53 2202.16,-45.44"/>
<polygon fill="black" stroke="black" points="2205.28,-43.8 2198.42,-35.73 2198.75,-46.32 2205.28,-43.8"/>
</g>
<!-- ValidatorConfig&#45;&gt;Roles -->
<g id="edge162" class="edge">
<title>ValidatorConfig&#45;&gt;Roles</title>
<path fill="none" stroke="black" d="M1789.77,-362.07C1751.77,-344.03 1685.54,-312.98 1628,-288 1595.88,-274.06 1558.88,-259.07 1532.58,-248.61"/>
<polygon fill="black" stroke="black" points="1533.65,-245.26 1523.06,-244.83 1531.07,-251.77 1533.65,-245.26"/>
</g>
<!-- ValidatorConfig&#45;&gt;Signature -->
<g id="edge161" class="edge">
<title>ValidatorConfig&#45;&gt;Signature</title>
<path fill="none" stroke="black" d="M1877.76,-368.37C1934.65,-359.22 2024.52,-343.43 2101,-324 2104.43,-323.13 2107.96,-322.16 2111.5,-321.14"/>
<polygon fill="black" stroke="black" points="2112.82,-324.39 2121.39,-318.16 2110.8,-317.69 2112.82,-324.39"/>
</g>
<!-- ValidatorConfig&#45;&gt;ValidatorOperatorConfig -->
<g id="edge163" class="edge">
<title>ValidatorConfig&#45;&gt;ValidatorOperatorConfig</title>
<path fill="none" stroke="black" d="M1760.82,-369.97C1655.28,-357.63 1436.27,-332.04 1312.43,-317.57"/>
<polygon fill="black" stroke="black" points="1312.55,-314.06 1302.22,-316.37 1311.74,-321.01 1312.55,-314.06"/>
</g>
<!-- ValidatorConfig&#45;&gt;Option -->
<g id="edge164" class="edge">
<title>ValidatorConfig&#45;&gt;Option</title>
<path fill="none" stroke="black" d="M1864.29,-364.16C1908.14,-351.15 1975.39,-331.21 2017.74,-318.64"/>
<polygon fill="black" stroke="black" points="2018.83,-321.97 2027.42,-315.77 2016.84,-315.26 2018.83,-321.97"/>
</g>
<!-- DesignatedDealer&#45;&gt;Diem -->
<g id="edge169" class="edge">
<title>DesignatedDealer&#45;&gt;Diem</title>
<path fill="none" stroke="black" d="M1378,-575.87C1378,-551.67 1378,-507.21 1378,-478.39"/>
<polygon fill="black" stroke="black" points="1381.5,-478.19 1378,-468.19 1374.5,-478.19 1381.5,-478.19"/>
</g>
<!-- DesignatedDealer&#45;&gt;XUS -->
<g id="edge170" class="edge">
<title>DesignatedDealer&#45;&gt;XUS</title>
<path fill="none" stroke="black" d="M1316.08,-584.06C1214.08,-569.34 1013.75,-540.43 930.58,-528.42"/>
<polygon fill="black" stroke="black" points="930.96,-524.94 920.57,-526.98 929.96,-531.87 930.96,-524.94"/>
</g>
<!-- DesignatedDealer&#45;&gt;Errors -->
<g id="edge166" class="edge">
<title>DesignatedDealer&#45;&gt;Errors</title>
<path fill="none" stroke="black" d="M1350.07,-577.24C1274.46,-535.25 1058.44,-419.85 865,-360 760.14,-327.55 454.28,-335.48 383,-252 330.67,-190.71 339.78,-119.35 405,-72 464.78,-28.6 987.61,-20.68 1141.54,-19.29"/>
<polygon fill="black" stroke="black" points="1141.58,-22.79 1151.55,-19.2 1141.52,-15.79 1141.58,-22.79"/>
</g>
<!-- DesignatedDealer&#45;&gt;Signer -->
<g id="edge165" class="edge">
<title>DesignatedDealer&#45;&gt;Signer</title>
<path fill="none" stroke="black" d="M1403.34,-576.86C1462.9,-538.95 1616.45,-441.26 1745,-360 1871.95,-279.75 1906.24,-263.63 2031,-180 2076.79,-149.31 2093.69,-147.64 2132,-108 2150.41,-88.96 2166.64,-63.45 2177.4,-44.63"/>
<polygon fill="black" stroke="black" points="2180.55,-46.16 2182.37,-35.72 2174.44,-42.75 2180.55,-46.16"/>
</g>
<!-- DesignatedDealer&#45;&gt;Roles -->
<g id="edge167" class="edge">
<title>DesignatedDealer&#45;&gt;Roles</title>
<path fill="none" stroke="black" d="M1360.95,-576.19C1323.17,-536.84 1239.1,-436.3 1283,-360 1293.35,-342.01 1409.46,-280.52 1466.61,-251.03"/>
<polygon fill="black" stroke="black" points="1468.28,-254.1 1475.57,-246.41 1465.08,-247.88 1468.28,-254.1"/>
</g>
<!-- DesignatedDealer&#45;&gt;Event -->
<g id="edge168" class="edge">
<title>DesignatedDealer&#45;&gt;Event</title>
<path fill="none" stroke="black" d="M1435.52,-582.69C1489.75,-572.72 1573.19,-556.68 1645,-540 1947.43,-469.74 2017.86,-431.48 2320,-360 2396.85,-341.82 2418.44,-346.96 2494,-324 2561.94,-303.35 2638.08,-269.96 2680.3,-250.48"/>
<polygon fill="black" stroke="black" points="2681.94,-253.58 2689.53,-246.2 2678.99,-247.23 2681.94,-253.58"/>
</g>
</g>
</svg>
