<?xml version="1.0" encoding="UTF-8" standalone="no"?>
<!DOCTYPE svg PUBLIC "-//W3C//DTD SVG 1.1//EN"
 "http://www.w3.org/Graphics/SVG/1.1/DTD/svg11.dtd">
<!-- Generated by graphviz version 2.46.1 (20210213.1702)
 -->
<!-- Title: G Pages: 1 -->
<svg width="1158pt" height="282pt"
 viewBox="0.00 0.00 1158.00 282.00" xmlns="http://www.w3.org/2000/svg" xmlns:xlink="http://www.w3.org/1999/xlink">
<g id="graph0" class="graph" transform="scale(1 1) rotate(0) translate(4 278)">
<title>G</title>
<polygon fill="white" stroke="transparent" points="-4,4 -4,-278 1154,-278 1154,4 -4,4"/>
<g id="clust1" class="cluster">
<title>cluster_Signer</title>
<polygon fill="none" stroke="black" points="8,-80 8,-230 158,-230 158,-80 8,-80"/>
<text text-anchor="middle" x="83" y="-214.8" font-family="Times,serif" font-size="14.00">Signer</text>
</g>
<g id="clust2" class="cluster">
<title>cluster_Errors</title>
<polygon fill="none" stroke="black" points="166,-8 166,-155 467,-155 467,-8 166,-8"/>
<text text-anchor="middle" x="316.5" y="-139.8" font-family="Times,serif" font-size="14.00">Errors</text>
</g>
<g id="clust3" class="cluster">
<title>cluster_Vector</title>
<polygon fill="none" stroke="black" points="971,-80 971,-155 1142,-155 1142,-80 971,-80"/>
<text text-anchor="middle" x="1056.5" y="-139.8" font-family="Times,serif" font-size="14.00">Vector</text>
</g>
<g id="clust4" class="cluster">
<title>cluster_DiemAccount</title>
<polygon fill="none" stroke="black" points="475,-80 475,-230 963,-230 963,-80 475,-80"/>
<text text-anchor="middle" x="719" y="-214.8" font-family="Times,serif" font-size="14.00">DiemAccount</text>
</g>
<!-- rotate_authentication_key -->
<g id="node1" class="node">
<title>rotate_authentication_key</title>
<ellipse fill="none" stroke="black" cx="608" cy="-256" rx="102.08" ry="18"/>
<text text-anchor="middle" x="608" y="-252.3" font-family="Times,serif" font-size="14.00">rotate_authentication_key</text>
</g>
<!-- Signer::address_of -->
<g id="node2" class="node">
<title>Signer::address_of</title>
<ellipse fill="none" stroke="black" cx="92" cy="-181" rx="48.99" ry="18"/>
<text text-anchor="middle" x="92" y="-177.3" font-family="Times,serif" font-size="14.00">address_of</text>
</g>
<!-- rotate_authentication_key&#45;&gt;Signer::address_of -->
<g id="edge1" class="edge">
<title>rotate_authentication_key&#45;&gt;Signer::address_of</title>
<path fill="none" stroke="black" d="M508.23,-252.1C442.25,-249.05 354.03,-242.8 277,-230 228.83,-222 174.91,-207.33 137.76,-196.31"/>
<polygon fill="black" stroke="black" points="138.33,-192.83 127.75,-193.31 136.32,-199.53 138.33,-192.83"/>
</g>
<!-- Errors::invalid_argument -->
<g id="node3" class="node">
<title>Errors::invalid_argument</title>
<ellipse fill="none" stroke="black" cx="386" cy="-106" rx="73.39" ry="18"/>
<text text-anchor="middle" x="386" y="-102.3" font-family="Times,serif" font-size="14.00">invalid_argument</text>
</g>
<!-- rotate_authentication_key&#45;&gt;Errors::invalid_argument -->
<g id="edge2" class="edge">
<title>rotate_authentication_key&#45;&gt;Errors::invalid_argument</title>
<path fill="none" stroke="black" d="M515.42,-248.34C499.77,-244.42 484.3,-238.59 471,-230 434.91,-206.7 409.96,-162.12 396.83,-133.52"/>
<polygon fill="black" stroke="black" points="399.92,-131.86 392.68,-124.12 393.52,-134.69 399.92,-131.86"/>
</g>
<!-- Errors::not_published -->
<g id="node4" class="node">
<title>Errors::not_published</title>
<ellipse fill="none" stroke="black" cx="234" cy="-106" rx="60.39" ry="18"/>
<text text-anchor="middle" x="234" y="-102.3" font-family="Times,serif" font-size="14.00">not_published</text>
</g>
<!-- rotate_authentication_key&#45;&gt;Errors::not_published -->
<g id="edge3" class="edge">
<title>rotate_authentication_key&#45;&gt;Errors::not_published</title>
<path fill="none" stroke="black" d="M508.51,-251.87C476.27,-248.4 440.88,-241.9 410,-230 350.03,-206.89 291.02,-159.13 258.87,-130.4"/>
<polygon fill="black" stroke="black" points="261.05,-127.65 251.29,-123.53 256.35,-132.84 261.05,-127.65"/>
</g>
<!-- Vector::borrow -->
<g id="node5" class="node">
<title>Vector::borrow</title>
<ellipse fill="none" stroke="black" cx="1098" cy="-106" rx="36.29" ry="18"/>
<text text-anchor="middle" x="1098" y="-102.3" font-family="Times,serif" font-size="14.00">borrow</text>
</g>
<!-- rotate_authentication_key&#45;&gt;Vector::borrow -->
<g id="edge4" class="edge">
<title>rotate_authentication_key&#45;&gt;Vector::borrow</title>
<path fill="none" stroke="black" d="M708.74,-252.75C816.03,-249.69 973.87,-243.04 999,-230 1039.88,-208.8 1069.74,-162.45 1085.44,-133.09"/>
<polygon fill="black" stroke="black" points="1088.74,-134.34 1090.22,-123.85 1082.52,-131.12 1088.74,-134.34"/>
</g>
<!-- Vector::length -->
<g id="node6" class="node">
<title>Vector::length</title>
<ellipse fill="none" stroke="black" cx="1011" cy="-106" rx="32.49" ry="18"/>
<text text-anchor="middle" x="1011" y="-102.3" font-family="Times,serif" font-size="14.00">length</text>
</g>
<!-- rotate_authentication_key&#45;&gt;Vector::length -->
<g id="edge5" class="edge">
<title>rotate_authentication_key&#45;&gt;Vector::length</title>
<path fill="none" stroke="black" d="M709.5,-253.54C808.43,-251.23 946.83,-245.28 967,-230 996.65,-207.53 1006.37,-163.35 1009.53,-134.51"/>
<polygon fill="black" stroke="black" points="1013.03,-134.56 1010.44,-124.29 1006.06,-133.94 1013.03,-134.56"/>
</g>
<!-- DiemAccount::key_rotation_capability_address -->
<g id="node7" class="node">
<title>DiemAccount::key_rotation_capability_address</title>
<ellipse fill="none" stroke="black" cx="608" cy="-181" rx="124.58" ry="18"/>
<text text-anchor="middle" x="608" y="-177.3" font-family="Times,serif" font-size="14.00">key_rotation_capability_address</text>
</g>
<!-- rotate_authentication_key&#45;&gt;DiemAccount::key_rotation_capability_address -->
<g id="edge6" class="edge">
<title>rotate_authentication_key&#45;&gt;DiemAccount::key_rotation_capability_address</title>
<path fill="none" stroke="black" d="M608,-237.7C608,-229.25 608,-218.87 608,-209.37"/>
<polygon fill="black" stroke="black" points="611.5,-209.18 608,-199.18 604.5,-209.18 611.5,-209.18"/>
</g>
<!-- DiemAccount::rotate_authentication_key -->
<g id="node8" class="node">
<title>DiemAccount::rotate_authentication_key</title>
<ellipse fill="none" stroke="black" cx="853" cy="-181" rx="102.08" ry="18"/>
<text text-anchor="middle" x="853" y="-177.3" font-family="Times,serif" font-size="14.00">rotate_authentication_key</text>
</g>
<!-- rotate_authentication_key&#45;&gt;DiemAccount::rotate_authentication_key -->
<g id="edge7" class="edge">
<title>rotate_authentication_key&#45;&gt;DiemAccount::rotate_authentication_key</title>
<path fill="none" stroke="black" d="M683.84,-243.9C703.02,-240.27 723.44,-235.67 742,-230 765.68,-222.77 791.1,-212.01 811.63,-202.52"/>
<polygon fill="black" stroke="black" points="813.14,-205.68 820.7,-198.26 810.16,-199.34 813.14,-205.68"/>
</g>
<!-- Signer::borrow_address -->
<g id="node9" class="node">
<title>Signer::borrow_address</title>
<ellipse fill="none" stroke="black" cx="83" cy="-106" rx="66.89" ry="18"/>
<text text-anchor="middle" x="83" y="-102.3" font-family="Times,serif" font-size="14.00">borrow_address</text>
</g>
<!-- Signer::address_of&#45;&gt;Signer::borrow_address -->
<g id="edge8" class="edge">
<title>Signer::address_of&#45;&gt;Signer::borrow_address</title>
<path fill="none" stroke="black" d="M89.87,-162.7C88.82,-154.25 87.55,-143.87 86.37,-134.37"/>
<polygon fill="black" stroke="black" points="89.81,-133.67 85.12,-124.18 82.87,-134.53 89.81,-133.67"/>
</g>
<!-- Errors::make -->
<g id="node10" class="node">
<title>Errors::make</title>
<ellipse fill="none" stroke="black" cx="310" cy="-34" rx="30.59" ry="18"/>
<text text-anchor="middle" x="310" y="-30.3" font-family="Times,serif" font-size="14.00">make</text>
</g>
<!-- Errors::invalid_argument&#45;&gt;Errors::make -->
<g id="edge9" class="edge">
<title>Errors::invalid_argument&#45;&gt;Errors::make</title>
<path fill="none" stroke="black" d="M367.99,-88.41C357.57,-78.82 344.36,-66.65 333.18,-56.35"/>
<polygon fill="black" stroke="black" points="335.55,-53.77 325.82,-49.57 330.8,-58.92 335.55,-53.77"/>
</g>
<!-- Errors::not_published&#45;&gt;Errors::make -->
<g id="edge10" class="edge">
<title>Errors::not_published&#45;&gt;Errors::make</title>
<path fill="none" stroke="black" d="M251.63,-88.76C262.1,-79.12 275.51,-66.77 286.83,-56.34"/>
<polygon fill="black" stroke="black" points="289.29,-58.83 294.28,-49.48 284.55,-53.68 289.29,-58.83"/>
</g>
<!-- DiemAccount::rotate_authentication_key&#45;&gt;Errors::invalid_argument -->
<g id="edge11" class="edge">
<title>DiemAccount::rotate_authentication_key&#45;&gt;Errors::invalid_argument</title>
<path fill="none" stroke="black" d="M782.7,-167.9C769.22,-165.96 755.2,-164.2 742,-163 712,-160.27 500.02,-163.09 471,-155 451.62,-149.6 431.94,-138.89 416.4,-128.95"/>
<polygon fill="black" stroke="black" points="418.03,-125.83 407.76,-123.23 414.17,-131.67 418.03,-125.83"/>
</g>
<!-- DiemAccount::rotate_authentication_key&#45;&gt;Errors::not_published -->
<g id="edge12" class="edge">
<title>DiemAccount::rotate_authentication_key&#45;&gt;Errors::not_published</title>
<path fill="none" stroke="black" d="M783,-167.83C769.44,-165.88 755.31,-164.14 742,-163 717.75,-160.93 327.18,-162.42 304,-155 287.81,-149.82 271.99,-139.56 259.5,-129.85"/>
<polygon fill="black" stroke="black" points="261.39,-126.87 251.42,-123.28 256.98,-132.31 261.39,-126.87"/>
</g>
<!-- DiemAccount::rotate_authentication_key&#45;&gt;Vector::length -->
<g id="edge13" class="edge">
<title>DiemAccount::rotate_authentication_key&#45;&gt;Vector::length</title>
<path fill="none" stroke="black" d="M931.72,-169.4C944.01,-165.89 956.2,-161.22 967,-155 977.25,-149.1 986.46,-140.01 993.78,-131.32"/>
<polygon fill="black" stroke="black" points="996.73,-133.24 1000.19,-123.23 991.24,-128.9 996.73,-133.24"/>
</g>
<!-- DiemAccount::exists_at -->
<g id="node11" class="node">
<title>DiemAccount::exists_at</title>
<ellipse fill="none" stroke="black" cx="853" cy="-106" rx="41.69" ry="18"/>
<text text-anchor="middle" x="853" y="-102.3" font-family="Times,serif" font-size="14.00">exists_at</text>
</g>
<!-- DiemAccount::rotate_authentication_key&#45;&gt;DiemAccount::exists_at -->
<g id="edge14" class="edge">
<title>DiemAccount::rotate_authentication_key&#45;&gt;DiemAccount::exists_at</title>
<path fill="none" stroke="black" d="M853,-162.7C853,-154.25 853,-143.87 853,-134.37"/>
<polygon fill="black" stroke="black" points="856.5,-134.18 853,-124.18 849.5,-134.18 856.5,-134.18"/>
</g>
</g>
</svg>
