<?xml version="1.0" encoding="UTF-8" standalone="no"?>
<!DOCTYPE svg PUBLIC "-//W3C//DTD SVG 1.1//EN"
 "http://www.w3.org/Graphics/SVG/1.1/DTD/svg11.dtd">
<!-- Generated by graphviz version 2.46.1 (20210213.1702)
 -->
<!-- Title: G Pages: 1 -->
<svg width="1195pt" height="207pt"
 viewBox="0.00 0.00 1195.00 207.00" xmlns="http://www.w3.org/2000/svg" xmlns:xlink="http://www.w3.org/1999/xlink">
<g id="graph0" class="graph" transform="scale(1 1) rotate(0) translate(4 203)">
<title>G</title>
<polygon fill="white" stroke="transparent" points="-4,4 -4,-203 1191,-203 1191,4 -4,4"/>
<g id="clust1" class="cluster">
<title>cluster_Signer</title>
<polygon fill="none" stroke="black" points="8,-8 8,-155 158,-155 158,-8 8,-8"/>
<text text-anchor="middle" x="83" y="-139.8" font-family="Times,serif" font-size="14.00">Signer</text>
</g>
<g id="clust2" class="cluster">
<title>cluster_Errors</title>
<polygon fill="none" stroke="black" points="166,-8 166,-155 497,-155 497,-8 166,-8"/>
<text text-anchor="middle" x="331.5" y="-139.8" font-family="Times,serif" font-size="14.00">Errors</text>
</g>
<g id="clust3" class="cluster">
<title>cluster_Vector</title>
<polygon fill="none" stroke="black" points="505,-8 505,-155 701,-155 701,-8 505,-8"/>
<text text-anchor="middle" x="603" y="-139.8" font-family="Times,serif" font-size="14.00">Vector</text>
</g>
<g id="clust4" class="cluster">
<title>cluster_VASP</title>
<polygon fill="none" stroke="black" points="709,-8 709,-155 905,-155 905,-8 709,-8"/>
<text text-anchor="middle" x="807" y="-139.8" font-family="Times,serif" font-size="14.00">VASP</text>
</g>
<g id="clust5" class="cluster">
<title>cluster_DiemAccount</title>
<polygon fill="none" stroke="black" points="913,-80 913,-155 1179,-155 1179,-80 913,-80"/>
<text text-anchor="middle" x="1046" y="-139.8" font-family="Times,serif" font-size="14.00">DiemAccount</text>
</g>
<!-- publish -->
<g id="node1" class="node">
<title>publish</title>
<ellipse fill="none" stroke="black" cx="485" cy="-181" rx="36.29" ry="18"/>
<text text-anchor="middle" x="485" y="-177.3" font-family="Times,serif" font-size="14.00">publish</text>
</g>
<!-- Signer::address_of -->
<g id="node2" class="node">
<title>Signer::address_of</title>
<ellipse fill="none" stroke="black" cx="92" cy="-106" rx="48.99" ry="18"/>
<text text-anchor="middle" x="92" y="-102.3" font-family="Times,serif" font-size="14.00">address_of</text>
</g>
<!-- publish&#45;&gt;Signer::address_of -->
<g id="edge1" class="edge">
<title>publish&#45;&gt;Signer::address_of</title>
<path fill="none" stroke="black" d="M448.65,-179.55C375.7,-178.25 213.98,-173.34 162,-155 145.97,-149.34 130.17,-139.04 117.65,-129.42"/>
<polygon fill="black" stroke="black" points="119.54,-126.45 109.54,-122.94 115.17,-131.92 119.54,-126.45"/>
</g>
<!-- Errors::already_published -->
<g id="node3" class="node">
<title>Errors::already_published</title>
<ellipse fill="none" stroke="black" cx="414" cy="-106" rx="75.29" ry="18"/>
<text text-anchor="middle" x="414" y="-102.3" font-family="Times,serif" font-size="14.00">already_published</text>
</g>
<!-- publish&#45;&gt;Errors::already_published -->
<g id="edge2" class="edge">
<title>publish&#45;&gt;Errors::already_published</title>
<path fill="none" stroke="black" d="M469.94,-164.52C460.48,-154.79 448.09,-142.05 437.37,-131.03"/>
<polygon fill="black" stroke="black" points="439.75,-128.46 430.27,-123.73 434.74,-133.34 439.75,-128.46"/>
</g>
<!-- Errors::invalid_argument -->
<g id="node4" class="node">
<title>Errors::invalid_argument</title>
<ellipse fill="none" stroke="black" cx="247" cy="-106" rx="73.39" ry="18"/>
<text text-anchor="middle" x="247" y="-102.3" font-family="Times,serif" font-size="14.00">invalid_argument</text>
</g>
<!-- publish&#45;&gt;Errors::invalid_argument -->
<g id="edge3" class="edge">
<title>publish&#45;&gt;Errors::invalid_argument</title>
<path fill="none" stroke="black" d="M449,-177.91C416.98,-175.19 369.29,-168.99 330,-155 312.08,-148.62 293.62,-138.37 278.67,-128.98"/>
<polygon fill="black" stroke="black" points="280.15,-125.77 269.85,-123.28 276.35,-131.65 280.15,-125.77"/>
</g>
<!-- Vector::singleton -->
<g id="node5" class="node">
<title>Vector::singleton</title>
<ellipse fill="none" stroke="black" cx="556" cy="-106" rx="42.79" ry="18"/>
<text text-anchor="middle" x="556" y="-102.3" font-family="Times,serif" font-size="14.00">singleton</text>
</g>
<!-- publish&#45;&gt;Vector::singleton -->
<g id="edge4" class="edge">
<title>publish&#45;&gt;Vector::singleton</title>
<path fill="none" stroke="black" d="M500.06,-164.52C509.71,-154.59 522.43,-141.51 533.3,-130.34"/>
<polygon fill="black" stroke="black" points="536.01,-132.57 540.47,-122.96 530.99,-127.69 536.01,-132.57"/>
</g>
<!-- VASP::is_vasp -->
<g id="node6" class="node">
<title>VASP::is_vasp</title>
<ellipse fill="none" stroke="black" cx="755" cy="-106" rx="37.09" ry="18"/>
<text text-anchor="middle" x="755" y="-102.3" font-family="Times,serif" font-size="14.00">is_vasp</text>
</g>
<!-- publish&#45;&gt;VASP::is_vasp -->
<g id="edge5" class="edge">
<title>publish&#45;&gt;VASP::is_vasp</title>
<path fill="none" stroke="black" d="M521.14,-178.69C574.96,-176.27 673.25,-169.91 705,-155 716.79,-149.46 727.56,-140.02 736.05,-130.97"/>
<polygon fill="black" stroke="black" points="738.9,-133.03 742.9,-123.22 733.65,-128.4 738.9,-133.03"/>
</g>
<!-- DiemAccount::key_rotation_capability_address -->
<g id="node7" class="node">
<title>DiemAccount::key_rotation_capability_address</title>
<ellipse fill="none" stroke="black" cx="1046" cy="-106" rx="124.58" ry="18"/>
<text text-anchor="middle" x="1046" y="-102.3" font-family="Times,serif" font-size="14.00">key_rotation_capability_address</text>
</g>
<!-- publish&#45;&gt;DiemAccount::key_rotation_capability_address -->
<g id="edge6" class="edge">
<title>publish&#45;&gt;DiemAccount::key_rotation_capability_address</title>
<path fill="none" stroke="black" d="M521.25,-179.16C609.8,-176.88 835.26,-169.79 909,-155 939.78,-148.83 973.05,-137.29 999.1,-127.08"/>
<polygon fill="black" stroke="black" points="1000.71,-130.2 1008.7,-123.24 998.12,-123.7 1000.71,-130.2"/>
</g>
<!-- Signer::borrow_address -->
<g id="node8" class="node">
<title>Signer::borrow_address</title>
<ellipse fill="none" stroke="black" cx="83" cy="-34" rx="66.89" ry="18"/>
<text text-anchor="middle" x="83" y="-30.3" font-family="Times,serif" font-size="14.00">borrow_address</text>
</g>
<!-- Signer::address_of&#45;&gt;Signer::borrow_address -->
<g id="edge7" class="edge">
<title>Signer::address_of&#45;&gt;Signer::borrow_address</title>
<path fill="none" stroke="black" d="M89.78,-87.7C88.78,-79.98 87.59,-70.71 86.49,-62.11"/>
<polygon fill="black" stroke="black" points="89.95,-61.58 85.2,-52.1 83,-62.47 89.95,-61.58"/>
</g>
<!-- Errors::make -->
<g id="node9" class="node">
<title>Errors::make</title>
<ellipse fill="none" stroke="black" cx="330" cy="-34" rx="30.59" ry="18"/>
<text text-anchor="middle" x="330" y="-30.3" font-family="Times,serif" font-size="14.00">make</text>
</g>
<!-- Errors::already_published&#45;&gt;Errors::make -->
<g id="edge8" class="edge">
<title>Errors::already_published&#45;&gt;Errors::make</title>
<path fill="none" stroke="black" d="M394.09,-88.41C382.31,-78.59 367.29,-66.08 354.75,-55.63"/>
<polygon fill="black" stroke="black" points="356.85,-52.82 346.93,-49.11 352.37,-58.2 356.85,-52.82"/>
</g>
<!-- Errors::invalid_argument&#45;&gt;Errors::make -->
<g id="edge9" class="edge">
<title>Errors::invalid_argument&#45;&gt;Errors::make</title>
<path fill="none" stroke="black" d="M266.67,-88.41C278.31,-78.59 293.15,-66.08 305.54,-55.63"/>
<polygon fill="black" stroke="black" points="307.88,-58.23 313.27,-49.11 303.37,-52.88 307.88,-58.23"/>
</g>
<!-- Vector::empty -->
<g id="node10" class="node">
<title>Vector::empty</title>
<ellipse fill="none" stroke="black" cx="546" cy="-34" rx="33.29" ry="18"/>
<text text-anchor="middle" x="546" y="-30.3" font-family="Times,serif" font-size="14.00">empty</text>
</g>
<!-- Vector::singleton&#45;&gt;Vector::empty -->
<g id="edge10" class="edge">
<title>Vector::singleton&#45;&gt;Vector::empty</title>
<path fill="none" stroke="black" d="M553.53,-87.7C552.43,-79.98 551.1,-70.71 549.87,-62.11"/>
<polygon fill="black" stroke="black" points="553.32,-61.51 548.44,-52.1 546.39,-62.5 553.32,-61.51"/>
</g>
<!-- Vector::push_back -->
<g id="node11" class="node">
<title>Vector::push_back</title>
<ellipse fill="none" stroke="black" cx="645" cy="-34" rx="48.19" ry="18"/>
<text text-anchor="middle" x="645" y="-30.3" font-family="Times,serif" font-size="14.00">push_back</text>
</g>
<!-- Vector::singleton&#45;&gt;Vector::push_back -->
<g id="edge11" class="edge">
<title>Vector::singleton&#45;&gt;Vector::push_back</title>
<path fill="none" stroke="black" d="M575.31,-89.81C587.5,-80.22 603.46,-67.67 617.03,-57"/>
<polygon fill="black" stroke="black" points="619.41,-59.58 625.11,-50.64 615.09,-54.08 619.41,-59.58"/>
</g>
<!-- VASP::is_child -->
<g id="node12" class="node">
<title>VASP::is_child</title>
<ellipse fill="none" stroke="black" cx="755" cy="-34" rx="38.19" ry="18"/>
<text text-anchor="middle" x="755" y="-30.3" font-family="Times,serif" font-size="14.00">is_child</text>
</g>
<!-- VASP::is_vasp&#45;&gt;VASP::is_child -->
<g id="edge12" class="edge">
<title>VASP::is_vasp&#45;&gt;VASP::is_child</title>
<path fill="none" stroke="black" d="M755,-87.7C755,-79.98 755,-70.71 755,-62.11"/>
<polygon fill="black" stroke="black" points="758.5,-62.1 755,-52.1 751.5,-62.1 758.5,-62.1"/>
</g>
<!-- VASP::is_parent -->
<g id="node13" class="node">
<title>VASP::is_parent</title>
<ellipse fill="none" stroke="black" cx="854" cy="-34" rx="42.79" ry="18"/>
<text text-anchor="middle" x="854" y="-30.3" font-family="Times,serif" font-size="14.00">is_parent</text>
</g>
<!-- VASP::is_vasp&#45;&gt;VASP::is_parent -->
<g id="edge13" class="edge">
<title>VASP::is_vasp&#45;&gt;VASP::is_parent</title>
<path fill="none" stroke="black" d="M775.03,-90.83C789.24,-80.79 808.54,-67.15 824.5,-55.86"/>
<polygon fill="black" stroke="black" points="826.83,-58.5 832.97,-49.87 822.78,-52.78 826.83,-58.5"/>
</g>
</g>
</svg>
