<?xml version="1.0" encoding="UTF-8" standalone="no"?>
<!DOCTYPE svg PUBLIC "-//W3C//DTD SVG 1.1//EN"
 "http://www.w3.org/Graphics/SVG/1.1/DTD/svg11.dtd">
<!-- Generated by graphviz version 2.46.1 (20210213.1702)
 -->
<!-- Title: G Pages: 1 -->
<svg width="998pt" height="354pt"
 viewBox="0.00 0.00 998.00 354.00" xmlns="http://www.w3.org/2000/svg" xmlns:xlink="http://www.w3.org/1999/xlink">
<g id="graph0" class="graph" transform="scale(1 1) rotate(0) translate(4 350)">
<title>G</title>
<polygon fill="white" stroke="transparent" points="-4,4 -4,-350 994,-350 994,4 -4,4"/>
<g id="clust1" class="cluster">
<title>cluster_Errors</title>
<polygon fill="none" stroke="black" points="8,-8 8,-155 456,-155 456,-8 8,-8"/>
<text text-anchor="middle" x="232" y="-139.8" font-family="Times,serif" font-size="14.00">Errors</text>
</g>
<g id="clust2" class="cluster">
<title>cluster_Vector</title>
<polygon fill="none" stroke="black" points="269,-227 269,-302 464,-302 464,-227 269,-227"/>
<text text-anchor="middle" x="366.5" y="-286.8" font-family="Times,serif" font-size="14.00">Vector</text>
</g>
<g id="clust3" class="cluster">
<title>cluster_VASP</title>
<polygon fill="none" stroke="black" points="472,-80 472,-302 708,-302 708,-80 472,-80"/>
<text text-anchor="middle" x="590" y="-286.8" font-family="Times,serif" font-size="14.00">VASP</text>
</g>
<g id="clust4" class="cluster">
<title>cluster_DiemAccount</title>
<polygon fill="none" stroke="black" points="716,-227 716,-302 982,-302 982,-227 716,-227"/>
<text text-anchor="middle" x="849" y="-286.8" font-family="Times,serif" font-size="14.00">DiemAccount</text>
</g>
<!-- add_rotation_capability -->
<g id="node1" class="node">
<title>add_rotation_capability</title>
<ellipse fill="none" stroke="black" cx="325" cy="-328" rx="94.48" ry="18"/>
<text text-anchor="middle" x="325" y="-324.3" font-family="Times,serif" font-size="14.00">add_rotation_capability</text>
</g>
<!-- Errors::invalid_argument -->
<g id="node2" class="node">
<title>Errors::invalid_argument</title>
<ellipse fill="none" stroke="black" cx="375" cy="-106" rx="73.39" ry="18"/>
<text text-anchor="middle" x="375" y="-102.3" font-family="Times,serif" font-size="14.00">invalid_argument</text>
</g>
<!-- add_rotation_capability&#45;&gt;Errors::invalid_argument -->
<g id="edge1" class="edge">
<title>add_rotation_capability&#45;&gt;Errors::invalid_argument</title>
<path fill="none" stroke="black" d="M275.65,-312.66C271.5,-309.74 267.82,-306.23 265,-302 246.51,-274.26 252.92,-258.07 265,-227 280.78,-186.42 317.41,-151.22 344.07,-129.63"/>
<polygon fill="black" stroke="black" points="346.32,-132.31 352,-123.37 341.98,-126.82 346.32,-132.31"/>
</g>
<!-- Errors::limit_exceeded -->
<g id="node3" class="node">
<title>Errors::limit_exceeded</title>
<ellipse fill="none" stroke="black" cx="219" cy="-106" rx="64.99" ry="18"/>
<text text-anchor="middle" x="219" y="-102.3" font-family="Times,serif" font-size="14.00">limit_exceeded</text>
</g>
<!-- add_rotation_capability&#45;&gt;Errors::limit_exceeded -->
<g id="edge2" class="edge">
<title>add_rotation_capability&#45;&gt;Errors::limit_exceeded</title>
<path fill="none" stroke="black" d="M264.18,-314.18C258.45,-310.98 253.22,-306.98 249,-302 208.66,-254.38 210.55,-175.75 214.99,-134.39"/>
<polygon fill="black" stroke="black" points="218.49,-134.59 216.21,-124.24 211.54,-133.75 218.49,-134.59"/>
</g>
<!-- Errors::not_published -->
<g id="node4" class="node">
<title>Errors::not_published</title>
<ellipse fill="none" stroke="black" cx="76" cy="-106" rx="60.39" ry="18"/>
<text text-anchor="middle" x="76" y="-102.3" font-family="Times,serif" font-size="14.00">not_published</text>
</g>
<!-- add_rotation_capability&#45;&gt;Errors::not_published -->
<g id="edge3" class="edge">
<title>add_rotation_capability&#45;&gt;Errors::not_published</title>
<path fill="none" stroke="black" d="M247.51,-317.6C235.33,-313.95 223.35,-308.92 213,-302 149.14,-259.34 105.86,-176.02 86.89,-133.44"/>
<polygon fill="black" stroke="black" points="90,-131.8 82.8,-124.02 83.58,-134.59 90,-131.8"/>
</g>
<!-- Vector::length -->
<g id="node5" class="node">
<title>Vector::length</title>
<ellipse fill="none" stroke="black" cx="424" cy="-253" rx="32.49" ry="18"/>
<text text-anchor="middle" x="424" y="-249.3" font-family="Times,serif" font-size="14.00">length</text>
</g>
<!-- add_rotation_capability&#45;&gt;Vector::length -->
<g id="edge4" class="edge">
<title>add_rotation_capability&#45;&gt;Vector::length</title>
<path fill="none" stroke="black" d="M365.78,-311.77C371.45,-308.9 377.03,-305.64 382,-302 390.97,-295.42 399.38,-286.61 406.27,-278.33"/>
<polygon fill="black" stroke="black" points="409.14,-280.34 412.63,-270.34 403.67,-275.98 409.14,-280.34"/>
</g>
<!-- Vector::push_back -->
<g id="node6" class="node">
<title>Vector::push_back</title>
<ellipse fill="none" stroke="black" cx="325" cy="-253" rx="48.19" ry="18"/>
<text text-anchor="middle" x="325" y="-249.3" font-family="Times,serif" font-size="14.00">push_back</text>
</g>
<!-- add_rotation_capability&#45;&gt;Vector::push_back -->
<g id="edge5" class="edge">
<title>add_rotation_capability&#45;&gt;Vector::push_back</title>
<path fill="none" stroke="black" d="M325,-309.7C325,-301.25 325,-290.87 325,-281.37"/>
<polygon fill="black" stroke="black" points="328.5,-281.18 325,-271.18 321.5,-281.18 328.5,-281.18"/>
</g>
<!-- VASP::is_same_vasp -->
<g id="node7" class="node">
<title>VASP::is_same_vasp</title>
<ellipse fill="none" stroke="black" cx="544" cy="-253" rx="59.59" ry="18"/>
<text text-anchor="middle" x="544" y="-249.3" font-family="Times,serif" font-size="14.00">is_same_vasp</text>
</g>
<!-- add_rotation_capability&#45;&gt;VASP::is_same_vasp -->
<g id="edge6" class="edge">
<title>add_rotation_capability&#45;&gt;VASP::is_same_vasp</title>
<path fill="none" stroke="black" d="M405.54,-318.56C426.33,-314.87 448.37,-309.57 468,-302 484.6,-295.6 501.49,-285.37 515.12,-276.01"/>
<polygon fill="black" stroke="black" points="517.43,-278.66 523.57,-270.02 513.38,-272.95 517.43,-278.66"/>
</g>
<!-- DiemAccount::key_rotation_capability_address -->
<g id="node8" class="node">
<title>DiemAccount::key_rotation_capability_address</title>
<ellipse fill="none" stroke="black" cx="849" cy="-253" rx="124.58" ry="18"/>
<text text-anchor="middle" x="849" y="-249.3" font-family="Times,serif" font-size="14.00">key_rotation_capability_address</text>
</g>
<!-- add_rotation_capability&#45;&gt;DiemAccount::key_rotation_capability_address -->
<g id="edge7" class="edge">
<title>add_rotation_capability&#45;&gt;DiemAccount::key_rotation_capability_address</title>
<path fill="none" stroke="black" d="M417.18,-323.93C513.41,-320.22 657.74,-313.04 712,-302 742.77,-295.74 776.03,-284.2 802.08,-274.01"/>
<polygon fill="black" stroke="black" points="803.7,-277.14 811.69,-270.18 801.11,-270.63 803.7,-277.14"/>
</g>
<!-- Errors::make -->
<g id="node9" class="node">
<title>Errors::make</title>
<ellipse fill="none" stroke="black" cx="219" cy="-34" rx="30.59" ry="18"/>
<text text-anchor="middle" x="219" y="-30.3" font-family="Times,serif" font-size="14.00">make</text>
</g>
<!-- Errors::invalid_argument&#45;&gt;Errors::make -->
<g id="edge8" class="edge">
<title>Errors::invalid_argument&#45;&gt;Errors::make</title>
<path fill="none" stroke="black" d="M341.15,-89.81C314.65,-77.92 278.02,-61.48 251.8,-49.72"/>
<polygon fill="black" stroke="black" points="253.2,-46.51 242.65,-45.61 250.34,-52.9 253.2,-46.51"/>
</g>
<!-- Errors::limit_exceeded&#45;&gt;Errors::make -->
<g id="edge9" class="edge">
<title>Errors::limit_exceeded&#45;&gt;Errors::make</title>
<path fill="none" stroke="black" d="M219,-87.7C219,-79.98 219,-70.71 219,-62.11"/>
<polygon fill="black" stroke="black" points="222.5,-62.1 219,-52.1 215.5,-62.1 222.5,-62.1"/>
</g>
<!-- Errors::not_published&#45;&gt;Errors::make -->
<g id="edge10" class="edge">
<title>Errors::not_published&#45;&gt;Errors::make</title>
<path fill="none" stroke="black" d="M105.98,-90.33C129.69,-78.72 162.73,-62.54 186.97,-50.68"/>
<polygon fill="black" stroke="black" points="188.67,-53.75 196.11,-46.21 185.59,-47.46 188.67,-53.75"/>
</g>
<!-- VASP::is_vasp -->
<g id="node10" class="node">
<title>VASP::is_vasp</title>
<ellipse fill="none" stroke="black" cx="663" cy="-181" rx="37.09" ry="18"/>
<text text-anchor="middle" x="663" y="-177.3" font-family="Times,serif" font-size="14.00">is_vasp</text>
</g>
<!-- VASP::is_same_vasp&#45;&gt;VASP::is_vasp -->
<g id="edge11" class="edge">
<title>VASP::is_same_vasp&#45;&gt;VASP::is_vasp</title>
<path fill="none" stroke="black" d="M570.12,-236.64C588.19,-226.01 612.34,-211.8 631.48,-200.54"/>
<polygon fill="black" stroke="black" points="633.31,-203.52 640.16,-195.44 629.76,-197.49 633.31,-203.52"/>
</g>
<!-- VASP::parent_address -->
<g id="node11" class="node">
<title>VASP::parent_address</title>
<ellipse fill="none" stroke="black" cx="544" cy="-181" rx="63.89" ry="18"/>
<text text-anchor="middle" x="544" y="-177.3" font-family="Times,serif" font-size="14.00">parent_address</text>
</g>
<!-- VASP::is_same_vasp&#45;&gt;VASP::parent_address -->
<g id="edge12" class="edge">
<title>VASP::is_same_vasp&#45;&gt;VASP::parent_address</title>
<path fill="none" stroke="black" d="M544,-234.7C544,-226.98 544,-217.71 544,-209.11"/>
<polygon fill="black" stroke="black" points="547.5,-209.1 544,-199.1 540.5,-209.1 547.5,-209.1"/>
</g>
<!-- VASP::is_child -->
<g id="node12" class="node">
<title>VASP::is_child</title>
<ellipse fill="none" stroke="black" cx="547" cy="-106" rx="38.19" ry="18"/>
<text text-anchor="middle" x="547" y="-102.3" font-family="Times,serif" font-size="14.00">is_child</text>
</g>
<!-- VASP::is_vasp&#45;&gt;VASP::is_child -->
<g id="edge13" class="edge">
<title>VASP::is_vasp&#45;&gt;VASP::is_child</title>
<path fill="none" stroke="black" d="M634.11,-169.44C620.91,-164.39 606.92,-158.67 601,-155 589.67,-147.98 578.45,-138.52 569.19,-129.85"/>
<polygon fill="black" stroke="black" points="571.54,-127.26 561.91,-122.83 566.68,-132.29 571.54,-127.26"/>
</g>
<!-- VASP::is_parent -->
<g id="node13" class="node">
<title>VASP::is_parent</title>
<ellipse fill="none" stroke="black" cx="653" cy="-106" rx="42.79" ry="18"/>
<text text-anchor="middle" x="653" y="-102.3" font-family="Times,serif" font-size="14.00">is_parent</text>
</g>
<!-- VASP::is_vasp&#45;&gt;VASP::is_parent -->
<g id="edge14" class="edge">
<title>VASP::is_vasp&#45;&gt;VASP::is_parent</title>
<path fill="none" stroke="black" d="M660.63,-162.7C659.47,-154.25 658.05,-143.87 656.75,-134.37"/>
<polygon fill="black" stroke="black" points="660.18,-133.61 655.35,-124.18 653.24,-134.56 660.18,-133.61"/>
</g>
<!-- VASP::parent_address&#45;&gt;Errors::invalid_argument -->
<g id="edge15" class="edge">
<title>VASP::parent_address&#45;&gt;Errors::invalid_argument</title>
<path fill="none" stroke="black" d="M501.75,-167.42C490.64,-163.76 478.76,-159.51 468,-155 449.06,-147.05 428.7,-136.76 411.89,-127.75"/>
<polygon fill="black" stroke="black" points="413.39,-124.59 402.94,-122.9 410.06,-130.74 413.39,-124.59"/>
</g>
<!-- VASP::parent_address&#45;&gt;VASP::is_child -->
<g id="edge16" class="edge">
<title>VASP::parent_address&#45;&gt;VASP::is_child</title>
<path fill="none" stroke="black" d="M544.71,-162.7C545.06,-154.25 545.48,-143.87 545.88,-134.37"/>
<polygon fill="black" stroke="black" points="549.38,-134.31 546.29,-124.18 542.39,-134.02 549.38,-134.31"/>
</g>
<!-- VASP::parent_address&#45;&gt;VASP::is_parent -->
<g id="edge17" class="edge">
<title>VASP::parent_address&#45;&gt;VASP::is_parent</title>
<path fill="none" stroke="black" d="M576.06,-165.28C582.15,-162.12 588.37,-158.63 594,-155 605.82,-147.37 618.02,-137.78 628.23,-129.18"/>
<polygon fill="black" stroke="black" points="630.65,-131.72 635.95,-122.55 626.09,-126.41 630.65,-131.72"/>
</g>
</g>
</svg>
