<?xml version="1.0" encoding="UTF-8" standalone="no"?>
<!DOCTYPE svg PUBLIC "-//W3C//DTD SVG 1.1//EN"
 "http://www.w3.org/Graphics/SVG/1.1/DTD/svg11.dtd">
<!-- Generated by graphviz version 2.46.1 (20210213.1702)
 -->
<!-- Title: G Pages: 1 -->
<svg width="3042pt" height="764pt"
 viewBox="0.00 0.00 3042.00 764.00" xmlns="http://www.w3.org/2000/svg" xmlns:xlink="http://www.w3.org/1999/xlink">
<g id="graph0" class="graph" transform="scale(1 1) rotate(0) translate(4 760)">
<title>G</title>
<polygon fill="white" stroke="transparent" points="-4,4 -4,-760 3038,-760 3038,4 -4,4"/>
<!-- RecoveryAddress -->
<g id="node1" class="node">
<title>RecoveryAddress</title>
<ellipse fill="none" stroke="black" cx="1701" cy="-738" rx="73.39" ry="18"/>
<text text-anchor="middle" x="1701" y="-734.3" font-family="Times,serif" font-size="14.00">RecoveryAddress</text>
</g>
<!-- Signer -->
<g id="node2" class="node">
<title>Signer</title>
<ellipse fill="none" stroke="black" cx="2194" cy="-18" rx="33.6" ry="18"/>
<text text-anchor="middle" x="2194" y="-14.3" font-family="Times,serif" font-size="14.00">Signer</text>
</g>
<!-- RecoveryAddress&#45;&gt;Signer -->
<g id="edge1" class="edge">
<title>RecoveryAddress&#45;&gt;Signer</title>
<path fill="none" stroke="black" d="M1774.57,-736.95C2054.02,-735.81 3034,-722.71 3034,-595 3034,-595 3034,-595 3034,-161 3034,-103.14 2992.02,-95.16 2939,-72 2874.82,-43.96 2388.28,-25.5 2238.05,-20.42"/>
<polygon fill="black" stroke="black" points="2237.93,-16.91 2227.82,-20.08 2237.7,-23.91 2237.93,-16.91"/>
</g>
<!-- Errors -->
<g id="node3" class="node">
<title>Errors</title>
<ellipse fill="none" stroke="black" cx="1109" cy="-18" rx="32.49" ry="18"/>
<text text-anchor="middle" x="1109" y="-14.3" font-family="Times,serif" font-size="14.00">Errors</text>
</g>
<!-- RecoveryAddress&#45;&gt;Errors -->
<g id="edge2" class="edge">
<title>RecoveryAddress&#45;&gt;Errors</title>
<path fill="none" stroke="black" d="M1628.45,-734.81C1303.78,-724.51 0,-678.02 0,-595 0,-595 0,-595 0,-161 0,-117.63 4.18,-96.45 40,-72 83.07,-42.6 872.67,-24.01 1066.37,-19.87"/>
<polygon fill="black" stroke="black" points="1066.52,-23.37 1076.45,-19.66 1066.38,-16.37 1066.52,-23.37"/>
</g>
<!-- Vector -->
<g id="node4" class="node">
<title>Vector</title>
<ellipse fill="none" stroke="black" cx="2319" cy="-162" rx="33.6" ry="18"/>
<text text-anchor="middle" x="2319" y="-158.3" font-family="Times,serif" font-size="14.00">Vector</text>
</g>
<!-- RecoveryAddress&#45;&gt;Vector -->
<g id="edge3" class="edge">
<title>RecoveryAddress&#45;&gt;Vector</title>
<path fill="none" stroke="black" d="M1771.56,-732.97C1976.73,-720.55 2570,-679.63 2751,-612 2804.35,-592.07 2830.34,-590.33 2857,-540 2943.55,-376.59 2761.61,-298.25 2596,-216 2519.83,-178.17 2419.51,-167.28 2362.87,-164.18"/>
<polygon fill="black" stroke="black" points="2362.98,-160.68 2352.82,-163.69 2362.64,-167.68 2362.98,-160.68"/>
</g>
<!-- VASP -->
<g id="node5" class="node">
<title>VASP</title>
<ellipse fill="none" stroke="black" cx="688" cy="-378" rx="32.49" ry="18"/>
<text text-anchor="middle" x="688" y="-374.3" font-family="Times,serif" font-size="14.00">VASP</text>
</g>
<!-- RecoveryAddress&#45;&gt;VASP -->
<g id="edge4" class="edge">
<title>RecoveryAddress&#45;&gt;VASP</title>
<path fill="none" stroke="black" d="M1630.31,-733.01C1448.06,-721.76 966.72,-685.71 827,-612 754.56,-573.78 746.18,-542.43 712,-468 702.84,-448.06 696.61,-423.95 692.8,-405.86"/>
<polygon fill="black" stroke="black" points="696.22,-405.1 690.83,-395.98 689.35,-406.47 696.22,-405.1"/>
</g>
<!-- DiemAccount -->
<g id="node6" class="node">
<title>DiemAccount</title>
<ellipse fill="none" stroke="black" cx="1701" cy="-666" rx="60.39" ry="18"/>
<text text-anchor="middle" x="1701" y="-662.3" font-family="Times,serif" font-size="14.00">DiemAccount</text>
</g>
<!-- RecoveryAddress&#45;&gt;DiemAccount -->
<g id="edge5" class="edge">
<title>RecoveryAddress&#45;&gt;DiemAccount</title>
<path fill="none" stroke="black" d="M1701,-719.7C1701,-711.98 1701,-702.71 1701,-694.11"/>
<polygon fill="black" stroke="black" points="1704.5,-694.1 1701,-684.1 1697.5,-694.1 1704.5,-694.1"/>
</g>
<!-- VASP&#45;&gt;Signer -->
<g id="edge6" class="edge">
<title>VASP&#45;&gt;Signer</title>
<path fill="none" stroke="black" d="M720.02,-374C762,-370.18 837.95,-363.62 903,-360 964.6,-356.57 1960.1,-355.75 2013,-324 2040.7,-307.38 2140.86,-99.38 2158,-72 2163.93,-62.53 2170.76,-52.32 2176.85,-43.42"/>
<polygon fill="black" stroke="black" points="2179.85,-45.25 2182.65,-35.03 2174.09,-41.27 2179.85,-45.25"/>
</g>
<!-- VASP&#45;&gt;Errors -->
<g id="edge7" class="edge">
<title>VASP&#45;&gt;Errors</title>
<path fill="none" stroke="black" d="M661.89,-366.82C655.43,-364.45 648.5,-362.03 642,-360 580.25,-340.76 540.68,-375.08 501,-324 476.27,-292.17 532.48,-219.56 535,-216 597.52,-127.82 628.9,-107.48 731,-72 847.55,-31.5 994.52,-21.88 1066.01,-19.64"/>
<polygon fill="black" stroke="black" points="1066.5,-23.13 1076.4,-19.35 1066.31,-16.13 1066.5,-23.13"/>
</g>
<!-- DiemTimestamp -->
<g id="node7" class="node">
<title>DiemTimestamp</title>
<ellipse fill="none" stroke="black" cx="1109" cy="-162" rx="71.49" ry="18"/>
<text text-anchor="middle" x="1109" y="-158.3" font-family="Times,serif" font-size="14.00">DiemTimestamp</text>
</g>
<!-- VASP&#45;&gt;DiemTimestamp -->
<g id="edge8" class="edge">
<title>VASP&#45;&gt;DiemTimestamp</title>
<path fill="none" stroke="black" d="M661.86,-366.92C655.4,-364.54 648.48,-362.1 642,-360 585.37,-341.67 548.99,-371.41 513,-324 503.33,-311.26 503.38,-300.78 513,-288 521.69,-276.45 748.88,-219.1 763,-216 856.06,-195.56 964.92,-180.28 1035.31,-171.5"/>
<polygon fill="black" stroke="black" points="1035.92,-174.95 1045.41,-170.25 1035.06,-168.01 1035.92,-174.95"/>
</g>
<!-- Roles -->
<g id="node8" class="node">
<title>Roles</title>
<ellipse fill="none" stroke="black" cx="1381" cy="-234" rx="30.59" ry="18"/>
<text text-anchor="middle" x="1381" y="-230.3" font-family="Times,serif" font-size="14.00">Roles</text>
</g>
<!-- VASP&#45;&gt;Roles -->
<g id="edge9" class="edge">
<title>VASP&#45;&gt;Roles</title>
<path fill="none" stroke="black" d="M699.43,-361.11C716.51,-337.87 748.44,-296.45 765,-288 865.94,-236.51 1219.36,-233.9 1340.16,-234.57"/>
<polygon fill="black" stroke="black" points="1340.43,-238.07 1350.45,-234.64 1340.47,-231.07 1340.43,-238.07"/>
</g>
<!-- AccountLimits -->
<g id="node9" class="node">
<title>AccountLimits</title>
<ellipse fill="none" stroke="black" cx="838" cy="-306" rx="63.89" ry="18"/>
<text text-anchor="middle" x="838" y="-302.3" font-family="Times,serif" font-size="14.00">AccountLimits</text>
</g>
<!-- VASP&#45;&gt;AccountLimits -->
<g id="edge10" class="edge">
<title>VASP&#45;&gt;AccountLimits</title>
<path fill="none" stroke="black" d="M712.1,-365.75C734.99,-355.07 769.86,-338.8 797.1,-326.09"/>
<polygon fill="black" stroke="black" points="798.81,-329.15 806.39,-321.75 795.85,-322.81 798.81,-329.15"/>
</g>
<!-- DiemAccount&#45;&gt;Signer -->
<g id="edge11" class="edge">
<title>DiemAccount&#45;&gt;Signer</title>
<path fill="none" stroke="black" d="M1761.44,-664.49C1988.04,-662.27 2779.58,-651.72 2885,-612 2944.17,-589.71 2996,-586.23 2996,-523 2996,-523 2996,-523 2996,-161 2996,-95.31 2939.44,-95.25 2878,-72 2760.19,-27.42 2370.09,-20.32 2238.1,-19.21"/>
<polygon fill="black" stroke="black" points="2237.98,-15.71 2227.95,-19.13 2237.93,-22.71 2237.98,-15.71"/>
</g>
<!-- DiemAccount&#45;&gt;Errors -->
<g id="edge12" class="edge">
<title>DiemAccount&#45;&gt;Errors</title>
<path fill="none" stroke="black" d="M1640.3,-664.94C1372.85,-664.41 306.46,-659.33 165,-612 99.64,-590.13 38,-591.92 38,-523 38,-523 38,-523 38,-161 38,-118.5 38.5,-96.82 73,-72 113.94,-42.55 876.52,-24.06 1066.44,-19.9"/>
<polygon fill="black" stroke="black" points="1066.67,-23.39 1076.59,-19.68 1066.52,-16.39 1066.67,-23.39"/>
</g>
<!-- DiemAccount&#45;&gt;Vector -->
<g id="edge17" class="edge">
<title>DiemAccount&#45;&gt;Vector</title>
<path fill="none" stroke="black" d="M1761.19,-663.66C1991.78,-657.73 2806,-629.26 2806,-523 2806,-523 2806,-523 2806,-449 2806,-439.65 2571.25,-220.39 2563,-216 2498.56,-181.7 2413.32,-169.59 2362.52,-165.32"/>
<polygon fill="black" stroke="black" points="2362.78,-161.83 2352.53,-164.55 2362.23,-168.81 2362.78,-161.83"/>
</g>
<!-- DiemAccount&#45;&gt;VASP -->
<g id="edge28" class="edge">
<title>DiemAccount&#45;&gt;VASP</title>
<path fill="none" stroke="black" d="M1640.97,-663.81C1463.75,-659.93 950.99,-645.87 884,-612 792.04,-565.51 726.48,-454.72 700.44,-404.51"/>
<polygon fill="black" stroke="black" points="703.55,-402.92 695.9,-395.59 697.32,-406.09 703.55,-402.92"/>
</g>
<!-- DiemAccount&#45;&gt;DiemTimestamp -->
<g id="edge14" class="edge">
<title>DiemAccount&#45;&gt;DiemTimestamp</title>
<path fill="none" stroke="black" d="M1640.36,-665.14C1415.61,-665.27 630.55,-662.05 386,-612 276.99,-589.69 152,-634.27 152,-523 152,-523 152,-523 152,-377 152,-301.76 231.46,-326.67 296,-288 350.67,-255.24 359.15,-234.92 420,-216 531.4,-181.37 871.18,-168.77 1028.05,-164.71"/>
<polygon fill="black" stroke="black" points="1028.21,-168.21 1038.12,-164.46 1028.03,-161.21 1028.21,-168.21"/>
</g>
<!-- DiemAccount&#45;&gt;Roles -->
<g id="edge16" class="edge">
<title>DiemAccount&#45;&gt;Roles</title>
<path fill="none" stroke="black" d="M1733.78,-650.84C1749.6,-642.12 1767.06,-629.27 1776,-612 1783.36,-597.79 1781.28,-591.1 1776,-576 1721.4,-419.78 1679.82,-376.53 1540,-288 1491.88,-257.53 1470.25,-272.22 1417,-252 1415.63,-251.48 1414.23,-250.93 1412.83,-250.35"/>
<polygon fill="black" stroke="black" points="1414.19,-247.12 1403.62,-246.34 1411.39,-253.54 1414.19,-247.12"/>
</g>
<!-- DiemAccount&#45;&gt;AccountLimits -->
<g id="edge22" class="edge">
<title>DiemAccount&#45;&gt;AccountLimits</title>
<path fill="none" stroke="black" d="M1640.75,-664.37C1559.06,-661.93 1409.52,-651.81 1289,-612 1102.33,-550.34 1050.14,-526.38 903,-396 882.45,-377.79 864.51,-352.03 852.72,-332.9"/>
<polygon fill="black" stroke="black" points="855.58,-330.88 847.43,-324.11 849.58,-334.48 855.58,-330.88"/>
</g>
<!-- CoreAddresses -->
<g id="node10" class="node">
<title>CoreAddresses</title>
<ellipse fill="none" stroke="black" cx="1764" cy="-90" rx="63.89" ry="18"/>
<text text-anchor="middle" x="1764" y="-86.3" font-family="Times,serif" font-size="14.00">CoreAddresses</text>
</g>
<!-- DiemAccount&#45;&gt;CoreAddresses -->
<g id="edge13" class="edge">
<title>DiemAccount&#45;&gt;CoreAddresses</title>
<path fill="none" stroke="black" d="M1761.23,-663.85C1970.33,-659.62 2657.28,-643.43 2751,-612 2849.36,-579.02 2920,-554.74 2920,-451 2920,-451 2920,-451 2920,-377 2920,-267.8 2929.04,-209.95 2842,-144 2802.01,-113.7 2074.3,-97 1837.67,-92.35"/>
<polygon fill="black" stroke="black" points="1837.51,-88.85 1827.44,-92.16 1837.37,-95.85 1837.51,-88.85"/>
</g>
<!-- SlidingNonce -->
<g id="node11" class="node">
<title>SlidingNonce</title>
<ellipse fill="none" stroke="black" cx="2783" cy="-90" rx="59.29" ry="18"/>
<text text-anchor="middle" x="2783" y="-86.3" font-family="Times,serif" font-size="14.00">SlidingNonce</text>
</g>
<!-- DiemAccount&#45;&gt;SlidingNonce -->
<g id="edge15" class="edge">
<title>DiemAccount&#45;&gt;SlidingNonce</title>
<path fill="none" stroke="black" d="M1761.09,-663.83C1977.37,-659.4 2708.64,-642.29 2809,-612 2882.85,-589.71 2958,-600.14 2958,-523 2958,-523 2958,-523 2958,-233 2958,-167.81 2883.86,-127.32 2832.09,-107"/>
<polygon fill="black" stroke="black" points="2833.3,-103.71 2822.71,-103.44 2830.82,-110.26 2833.3,-103.71"/>
</g>
<!-- BCS -->
<g id="node12" class="node">
<title>BCS</title>
<ellipse fill="none" stroke="black" cx="2806" cy="-162" rx="27.1" ry="18"/>
<text text-anchor="middle" x="2806" y="-158.3" font-family="Times,serif" font-size="14.00">BCS</text>
</g>
<!-- DiemAccount&#45;&gt;BCS -->
<g id="edge18" class="edge">
<title>DiemAccount&#45;&gt;BCS</title>
<path fill="none" stroke="black" d="M1761.54,-664.45C1943.38,-662.34 2482.64,-652.72 2653,-612 2744.09,-590.23 2844,-616.65 2844,-523 2844,-523 2844,-523 2844,-449 2844,-352.9 2822.66,-240.21 2811.96,-189.77"/>
<polygon fill="black" stroke="black" points="2815.38,-189.02 2809.85,-179.98 2808.54,-190.49 2815.38,-189.02"/>
</g>
<!-- Event -->
<g id="node13" class="node">
<title>Event</title>
<ellipse fill="none" stroke="black" cx="2523" cy="-234" rx="31.4" ry="18"/>
<text text-anchor="middle" x="2523" y="-230.3" font-family="Times,serif" font-size="14.00">Event</text>
</g>
<!-- DiemAccount&#45;&gt;Event -->
<g id="edge19" class="edge">
<title>DiemAccount&#45;&gt;Event</title>
<path fill="none" stroke="black" d="M1760.61,-662.44C1969.25,-652.68 2654,-613.75 2654,-523 2654,-523 2654,-523 2654,-377 2654,-318.62 2593.45,-273.99 2554.68,-251.39"/>
<polygon fill="black" stroke="black" points="2556.25,-248.26 2545.82,-246.39 2552.8,-254.35 2556.25,-248.26"/>
</g>
<!-- DiemConfig -->
<g id="node14" class="node">
<title>DiemConfig</title>
<ellipse fill="none" stroke="black" cx="2153" cy="-306" rx="54.69" ry="18"/>
<text text-anchor="middle" x="2153" y="-302.3" font-family="Times,serif" font-size="14.00">DiemConfig</text>
</g>
<!-- DiemAccount&#45;&gt;DiemConfig -->
<g id="edge20" class="edge">
<title>DiemAccount&#45;&gt;DiemConfig</title>
<path fill="none" stroke="black" d="M1757.33,-659.29C1878.5,-645.45 2153,-605.05 2153,-523 2153,-523 2153,-523 2153,-449 2153,-409 2153,-362.65 2153,-334.08"/>
<polygon fill="black" stroke="black" points="2156.5,-334.05 2153,-324.05 2149.5,-334.05 2156.5,-334.05"/>
</g>
<!-- Diem -->
<g id="node15" class="node">
<title>Diem</title>
<ellipse fill="none" stroke="black" cx="1340" cy="-450" rx="30.59" ry="18"/>
<text text-anchor="middle" x="1340" y="-446.3" font-family="Times,serif" font-size="14.00">Diem</text>
</g>
<!-- DiemAccount&#45;&gt;Diem -->
<g id="edge21" class="edge">
<title>DiemAccount&#45;&gt;Diem</title>
<path fill="none" stroke="black" d="M1641.68,-662.42C1561.1,-657.71 1422.84,-644.95 1386,-612 1347.9,-577.93 1340.44,-514.72 1339.5,-478.47"/>
<polygon fill="black" stroke="black" points="1342.99,-478.1 1339.39,-468.14 1336,-478.18 1342.99,-478.1"/>
</g>
<!-- XUS -->
<g id="node16" class="node">
<title>XUS</title>
<ellipse fill="none" stroke="black" cx="888" cy="-522" rx="28.7" ry="18"/>
<text text-anchor="middle" x="888" y="-518.3" font-family="Times,serif" font-size="14.00">XUS</text>
</g>
<!-- DiemAccount&#45;&gt;XUS -->
<g id="edge23" class="edge">
<title>DiemAccount&#45;&gt;XUS</title>
<path fill="none" stroke="black" d="M1640.51,-665.08C1464.57,-664.76 962.03,-659.64 907,-612 889.69,-597.01 885.89,-570.46 885.85,-550.25"/>
<polygon fill="black" stroke="black" points="889.35,-550.17 886.14,-540.07 882.36,-549.97 889.35,-550.17"/>
</g>
<!-- XDX -->
<g id="node17" class="node">
<title>XDX</title>
<ellipse fill="none" stroke="black" cx="981" cy="-522" rx="29.8" ry="18"/>
<text text-anchor="middle" x="981" y="-518.3" font-family="Times,serif" font-size="14.00">XDX</text>
</g>
<!-- DiemAccount&#45;&gt;XDX -->
<g id="edge24" class="edge">
<title>DiemAccount&#45;&gt;XDX</title>
<path fill="none" stroke="black" d="M1640.5,-664.26C1507.74,-661.9 1194.98,-652.13 1098,-612 1074.97,-602.47 1074.7,-591.27 1055,-576 1039.9,-564.3 1022.55,-551.83 1008.46,-541.92"/>
<polygon fill="black" stroke="black" points="1010.35,-538.98 1000.15,-536.12 1006.34,-544.71 1010.35,-538.98"/>
</g>
<!-- ValidatorOperatorConfig -->
<g id="node18" class="node">
<title>ValidatorOperatorConfig</title>
<ellipse fill="none" stroke="black" cx="620" cy="-306" rx="98.28" ry="18"/>
<text text-anchor="middle" x="620" y="-302.3" font-family="Times,serif" font-size="14.00">ValidatorOperatorConfig</text>
</g>
<!-- DiemAccount&#45;&gt;ValidatorOperatorConfig -->
<g id="edge25" class="edge">
<title>DiemAccount&#45;&gt;ValidatorOperatorConfig</title>
<path fill="none" stroke="black" d="M1640.86,-664.17C1498.73,-661.58 1131.16,-651.32 827,-612 626.11,-586.03 380,-725.57 380,-523 380,-523 380,-523 380,-449 380,-408.55 370.76,-388.96 399,-360 417.63,-340.89 478.29,-327.18 531.35,-318.5"/>
<polygon fill="black" stroke="black" points="532.18,-321.91 541.5,-316.88 531.07,-315 532.18,-321.91"/>
</g>
<!-- Option -->
<g id="node19" class="node">
<title>Option</title>
<ellipse fill="none" stroke="black" cx="1827" cy="-234" rx="35.19" ry="18"/>
<text text-anchor="middle" x="1827" y="-230.3" font-family="Times,serif" font-size="14.00">Option</text>
</g>
<!-- DiemAccount&#45;&gt;Option -->
<g id="edge26" class="edge">
<title>DiemAccount&#45;&gt;Option</title>
<path fill="none" stroke="black" d="M1758.42,-660.02C1790.43,-653.97 1827.81,-640.75 1848,-612 1887.5,-555.77 1848.22,-338.82 1832.7,-262.08"/>
<polygon fill="black" stroke="black" points="1836.12,-261.31 1830.68,-252.22 1829.26,-262.71 1836.12,-261.31"/>
</g>
<!-- ValidatorConfig -->
<g id="node20" class="node">
<title>ValidatorConfig</title>
<ellipse fill="none" stroke="black" cx="979" cy="-378" rx="66.89" ry="18"/>
<text text-anchor="middle" x="979" y="-374.3" font-family="Times,serif" font-size="14.00">ValidatorConfig</text>
</g>
<!-- DiemAccount&#45;&gt;ValidatorConfig -->
<g id="edge27" class="edge">
<title>DiemAccount&#45;&gt;ValidatorConfig</title>
<path fill="none" stroke="black" d="M1640.61,-664.94C1569.48,-662.83 1449.09,-652.79 1355,-612 1236.23,-560.51 1239.23,-494.76 1126,-432 1097.24,-416.06 1062.76,-403.33 1034.42,-394.35"/>
<polygon fill="black" stroke="black" points="1035.26,-390.95 1024.68,-391.33 1033.19,-397.63 1035.26,-390.95"/>
</g>
<!-- TransactionFee -->
<g id="node21" class="node">
<title>TransactionFee</title>
<ellipse fill="none" stroke="black" cx="981" cy="-594" rx="64.99" ry="18"/>
<text text-anchor="middle" x="981" y="-590.3" font-family="Times,serif" font-size="14.00">TransactionFee</text>
</g>
<!-- DiemAccount&#45;&gt;TransactionFee -->
<g id="edge29" class="edge">
<title>DiemAccount&#45;&gt;TransactionFee</title>
<path fill="none" stroke="black" d="M1641.5,-662.66C1527.93,-657.61 1272.63,-643.53 1060,-612 1053.19,-610.99 1046.1,-609.74 1039.07,-608.39"/>
<polygon fill="black" stroke="black" points="1039.36,-604.88 1028.86,-606.34 1037.98,-611.74 1039.36,-604.88"/>
</g>
<!-- Hash -->
<g id="node22" class="node">
<title>Hash</title>
<ellipse fill="none" stroke="black" cx="1588" cy="-594" rx="28.7" ry="18"/>
<text text-anchor="middle" x="1588" y="-590.3" font-family="Times,serif" font-size="14.00">Hash</text>
</g>
<!-- DiemAccount&#45;&gt;Hash -->
<g id="edge30" class="edge">
<title>DiemAccount&#45;&gt;Hash</title>
<path fill="none" stroke="black" d="M1675.92,-649.46C1658.26,-638.53 1634.6,-623.87 1616.28,-612.52"/>
<polygon fill="black" stroke="black" points="1618.1,-609.53 1607.76,-607.24 1614.41,-615.48 1618.1,-609.53"/>
</g>
<!-- DualAttestation -->
<g id="node23" class="node">
<title>DualAttestation</title>
<ellipse fill="none" stroke="black" cx="1701" cy="-594" rx="66.09" ry="18"/>
<text text-anchor="middle" x="1701" y="-590.3" font-family="Times,serif" font-size="14.00">DualAttestation</text>
</g>
<!-- DiemAccount&#45;&gt;DualAttestation -->
<g id="edge31" class="edge">
<title>DiemAccount&#45;&gt;DualAttestation</title>
<path fill="none" stroke="black" d="M1701,-647.7C1701,-639.98 1701,-630.71 1701,-622.11"/>
<polygon fill="black" stroke="black" points="1704.5,-622.1 1701,-612.1 1697.5,-622.1 1704.5,-622.1"/>
</g>
<!-- DiemTransactionPublishingOption -->
<g id="node24" class="node">
<title>DiemTransactionPublishingOption</title>
<ellipse fill="none" stroke="black" cx="2315" cy="-378" rx="133.78" ry="18"/>
<text text-anchor="middle" x="2315" y="-374.3" font-family="Times,serif" font-size="14.00">DiemTransactionPublishingOption</text>
</g>
<!-- DiemAccount&#45;&gt;DiemTransactionPublishingOption -->
<g id="edge32" class="edge">
<title>DiemAccount&#45;&gt;DiemTransactionPublishingOption</title>
<path fill="none" stroke="black" d="M1761.39,-664.49C1871.74,-662.54 2100.73,-653.46 2167,-612 2245.13,-563.12 2289.4,-456.18 2306.59,-406"/>
<polygon fill="black" stroke="black" points="2310.01,-406.79 2309.85,-396.2 2303.37,-404.59 2310.01,-406.79"/>
</g>
<!-- DesignatedDealer -->
<g id="node25" class="node">
<title>DesignatedDealer</title>
<ellipse fill="none" stroke="black" cx="1468" cy="-594" rx="73.39" ry="18"/>
<text text-anchor="middle" x="1468" y="-590.3" font-family="Times,serif" font-size="14.00">DesignatedDealer</text>
</g>
<!-- DiemAccount&#45;&gt;DesignatedDealer -->
<g id="edge33" class="edge">
<title>DiemAccount&#45;&gt;DesignatedDealer</title>
<path fill="none" stroke="black" d="M1660.15,-652.73C1621.97,-641.26 1564.69,-624.05 1522.6,-611.4"/>
<polygon fill="black" stroke="black" points="1523.37,-607.98 1512.78,-608.45 1521.35,-614.68 1523.37,-607.98"/>
</g>
<!-- ChainId -->
<g id="node26" class="node">
<title>ChainId</title>
<ellipse fill="none" stroke="black" cx="1583" cy="-234" rx="38.99" ry="18"/>
<text text-anchor="middle" x="1583" y="-230.3" font-family="Times,serif" font-size="14.00">ChainId</text>
</g>
<!-- DiemAccount&#45;&gt;ChainId -->
<g id="edge34" class="edge">
<title>DiemAccount&#45;&gt;ChainId</title>
<path fill="none" stroke="black" d="M1757.52,-659.47C1816.63,-652.37 1903.62,-637.8 1924,-612 1953.76,-574.34 1944.31,-547.49 1924,-504 1861.71,-370.61 1696.1,-284.22 1620.99,-250.73"/>
<polygon fill="black" stroke="black" points="1622,-247.35 1611.44,-246.54 1619.19,-253.76 1622,-247.35"/>
</g>
<!-- AccountFreezing -->
<g id="node27" class="node">
<title>AccountFreezing</title>
<ellipse fill="none" stroke="black" cx="1933" cy="-306" rx="71.49" ry="18"/>
<text text-anchor="middle" x="1933" y="-302.3" font-family="Times,serif" font-size="14.00">AccountFreezing</text>
</g>
<!-- DiemAccount&#45;&gt;AccountFreezing -->
<g id="edge35" class="edge">
<title>DiemAccount&#45;&gt;AccountFreezing</title>
<path fill="none" stroke="black" d="M1758.39,-660.33C1826.09,-653.66 1933.14,-639.1 1962,-612 1991.87,-583.96 1986,-563.97 1986,-523 1986,-523 1986,-523 1986,-449 1986,-406.21 1964.61,-360.48 1949.01,-332.82"/>
<polygon fill="black" stroke="black" points="1952.03,-331.05 1943.98,-324.16 1945.98,-334.56 1952.03,-331.05"/>
</g>
<!-- DiemTimestamp&#45;&gt;Errors -->
<g id="edge36" class="edge">
<title>DiemTimestamp&#45;&gt;Errors</title>
<path fill="none" stroke="black" d="M1109,-143.87C1109,-119.67 1109,-75.21 1109,-46.39"/>
<polygon fill="black" stroke="black" points="1112.5,-46.19 1109,-36.19 1105.5,-46.19 1112.5,-46.19"/>
</g>
<!-- DiemTimestamp&#45;&gt;CoreAddresses -->
<g id="edge37" class="edge">
<title>DiemTimestamp&#45;&gt;CoreAddresses</title>
<path fill="none" stroke="black" d="M1173.3,-154.13C1297.26,-140.88 1568.28,-111.92 1695.49,-98.32"/>
<polygon fill="black" stroke="black" points="1695.93,-101.79 1705.5,-97.25 1695.19,-94.83 1695.93,-101.79"/>
</g>
<!-- Roles&#45;&gt;Signer -->
<g id="edge38" class="edge">
<title>Roles&#45;&gt;Signer</title>
<path fill="none" stroke="black" d="M1395.42,-218.05C1428.49,-184.88 1513.83,-105.41 1603,-72 1703.31,-34.42 2030.69,-22.92 2149.99,-19.93"/>
<polygon fill="black" stroke="black" points="2150.3,-23.42 2160.22,-19.68 2150.13,-16.42 2150.3,-23.42"/>
</g>
<!-- Roles&#45;&gt;Errors -->
<g id="edge39" class="edge">
<title>Roles&#45;&gt;Errors</title>
<path fill="none" stroke="black" d="M1376.05,-216.06C1365.56,-183.22 1337.99,-110.73 1289,-72 1249,-40.38 1190.63,-27.61 1151.3,-22.46"/>
<polygon fill="black" stroke="black" points="1151.59,-18.97 1141.24,-21.26 1150.76,-25.92 1151.59,-18.97"/>
</g>
<!-- Roles&#45;&gt;DiemTimestamp -->
<g id="edge41" class="edge">
<title>Roles&#45;&gt;DiemTimestamp</title>
<path fill="none" stroke="black" d="M1353.42,-225.9C1309.98,-214.72 1224.64,-192.76 1167.2,-177.98"/>
<polygon fill="black" stroke="black" points="1167.73,-174.5 1157.17,-175.4 1165.98,-181.28 1167.73,-174.5"/>
</g>
<!-- Roles&#45;&gt;CoreAddresses -->
<g id="edge40" class="edge">
<title>Roles&#45;&gt;CoreAddresses</title>
<path fill="none" stroke="black" d="M1406.13,-223.68C1469.38,-200.23 1635.91,-138.49 1717.55,-108.22"/>
<polygon fill="black" stroke="black" points="1718.91,-111.45 1727.07,-104.69 1716.48,-104.89 1718.91,-111.45"/>
</g>
<!-- AccountLimits&#45;&gt;Signer -->
<g id="edge42" class="edge">
<title>AccountLimits&#45;&gt;Signer</title>
<path fill="none" stroke="black" d="M894.97,-297.94C923.98,-294.54 959.83,-290.64 992,-288 1141.05,-275.79 1519.24,-289.53 1664,-252 1840.63,-206.21 1863.95,-140.69 2033,-72 2073.89,-55.39 2122.13,-40.05 2155.07,-30.19"/>
<polygon fill="black" stroke="black" points="2156.19,-33.51 2164.78,-27.31 2154.2,-26.8 2156.19,-33.51"/>
</g>
<!-- AccountLimits&#45;&gt;Errors -->
<g id="edge43" class="edge">
<title>AccountLimits&#45;&gt;Errors</title>
<path fill="none" stroke="black" d="M841.96,-288.02C846.95,-269.14 856.87,-238.35 873,-216 931.06,-135.52 1029.27,-68.03 1078.68,-37.11"/>
<polygon fill="black" stroke="black" points="1080.66,-40 1087.32,-31.77 1076.98,-34.05 1080.66,-40"/>
</g>
<!-- AccountLimits&#45;&gt;DiemTimestamp -->
<g id="edge44" class="edge">
<title>AccountLimits&#45;&gt;DiemTimestamp</title>
<path fill="none" stroke="black" d="M848.47,-287.89C861.72,-267.7 886.4,-234.54 916,-216 952.22,-193.31 998.2,-180.19 1036.18,-172.68"/>
<polygon fill="black" stroke="black" points="1036.99,-176.09 1046.17,-170.8 1035.69,-169.21 1036.99,-176.09"/>
</g>
<!-- AccountLimits&#45;&gt;Roles -->
<g id="edge45" class="edge">
<title>AccountLimits&#45;&gt;Roles</title>
<path fill="none" stroke="black" d="M892.84,-296.71C912.16,-293.86 934.03,-290.7 954,-288 1096.29,-268.75 1265.62,-248.53 1341.18,-239.65"/>
<polygon fill="black" stroke="black" points="1341.68,-243.11 1351.2,-238.47 1340.86,-236.16 1341.68,-243.11"/>
</g>
<!-- CoreAddresses&#45;&gt;Signer -->
<g id="edge46" class="edge">
<title>CoreAddresses&#45;&gt;Signer</title>
<path fill="none" stroke="black" d="M1818.02,-80.21C1904.91,-66.06 2073.88,-38.56 2152.23,-25.8"/>
<polygon fill="black" stroke="black" points="2152.92,-29.23 2162.22,-24.17 2151.79,-22.33 2152.92,-29.23"/>
</g>
<!-- CoreAddresses&#45;&gt;Errors -->
<g id="edge47" class="edge">
<title>CoreAddresses&#45;&gt;Errors</title>
<path fill="none" stroke="black" d="M1705.59,-82.76C1575.3,-68.83 1263.54,-35.52 1150.68,-23.45"/>
<polygon fill="black" stroke="black" points="1151.02,-19.97 1140.71,-22.39 1150.28,-26.93 1151.02,-19.97"/>
</g>
<!-- SlidingNonce&#45;&gt;Signer -->
<g id="edge48" class="edge">
<title>SlidingNonce&#45;&gt;Signer</title>
<path fill="none" stroke="black" d="M2739.17,-77.85C2729.6,-75.68 2719.5,-73.59 2710,-72 2536.13,-42.95 2326.46,-27.34 2237.4,-21.6"/>
<polygon fill="black" stroke="black" points="2237.6,-18.1 2227.4,-20.96 2237.16,-25.09 2237.6,-18.1"/>
</g>
<!-- SlidingNonce&#45;&gt;Errors -->
<g id="edge49" class="edge">
<title>SlidingNonce&#45;&gt;Errors</title>
<path fill="none" stroke="black" d="M2725.35,-85.97C2657.21,-82.43 2540.36,-76.49 2440,-72 1933.05,-49.34 1317.26,-26.59 1151.68,-20.55"/>
<polygon fill="black" stroke="black" points="1151.55,-17.04 1141.43,-20.18 1151.3,-24.04 1151.55,-17.04"/>
</g>
<!-- Event&#45;&gt;Signer -->
<g id="edge50" class="edge">
<title>Event&#45;&gt;Signer</title>
<path fill="none" stroke="black" d="M2524.3,-215.91C2525.84,-181.8 2523.68,-105.65 2478,-72 2440.4,-44.31 2307.26,-28.86 2237.45,-22.5"/>
<polygon fill="black" stroke="black" points="2237.49,-18.99 2227.22,-21.59 2236.87,-25.96 2237.49,-18.99"/>
</g>
<!-- Event&#45;&gt;Errors -->
<g id="edge51" class="edge">
<title>Event&#45;&gt;Errors</title>
<path fill="none" stroke="black" d="M2512.46,-216.78C2498.41,-196.52 2471.63,-162.32 2440,-144 2318.35,-73.55 2271.19,-91.71 2132,-72 1755.31,-18.65 1293.81,-17.45 1152.29,-18.5"/>
<polygon fill="black" stroke="black" points="1151.86,-15 1141.89,-18.59 1151.92,-22 1151.86,-15"/>
</g>
<!-- Event&#45;&gt;Vector -->
<g id="edge52" class="edge">
<title>Event&#45;&gt;Vector</title>
<path fill="none" stroke="black" d="M2496.75,-223.99C2461.06,-211.75 2397.02,-189.77 2356.34,-175.81"/>
<polygon fill="black" stroke="black" points="2357.38,-172.47 2346.78,-172.53 2355.1,-179.09 2357.38,-172.47"/>
</g>
<!-- Event&#45;&gt;BCS -->
<g id="edge53" class="edge">
<title>Event&#45;&gt;BCS</title>
<path fill="none" stroke="black" d="M2551.17,-226.03C2603.16,-213.17 2714.05,-185.74 2770.86,-171.69"/>
<polygon fill="black" stroke="black" points="2771.94,-175.03 2780.81,-169.23 2770.26,-168.23 2771.94,-175.03"/>
</g>
<!-- DiemConfig&#45;&gt;Signer -->
<g id="edge54" class="edge">
<title>DiemConfig&#45;&gt;Signer</title>
<path fill="none" stroke="black" d="M2159.43,-288.06C2163.08,-277.77 2167.42,-264.3 2170,-252 2185.37,-178.62 2191.05,-90.08 2193.03,-46.28"/>
<polygon fill="black" stroke="black" points="2196.53,-46.28 2193.45,-36.14 2189.53,-45.99 2196.53,-46.28"/>
</g>
<!-- DiemConfig&#45;&gt;Errors -->
<g id="edge55" class="edge">
<title>DiemConfig&#45;&gt;Errors</title>
<path fill="none" stroke="black" d="M2140.25,-288.42C2104.43,-243.3 1997.41,-118.63 1875,-72 1741.3,-21.07 1293.25,-18.29 1152.02,-18.72"/>
<polygon fill="black" stroke="black" points="1151.6,-15.22 1141.62,-18.75 1151.63,-22.22 1151.6,-15.22"/>
</g>
<!-- DiemConfig&#45;&gt;DiemTimestamp -->
<g id="edge57" class="edge">
<title>DiemConfig&#45;&gt;DiemTimestamp</title>
<path fill="none" stroke="black" d="M2103.17,-298.39C2076.46,-294.99 2042.97,-290.95 2013,-288 1906.99,-277.58 1633.68,-292.11 1535,-252 1511.91,-242.61 1514.79,-226.1 1492,-216 1438.93,-192.48 1282.76,-176.55 1187.02,-168.69"/>
<polygon fill="black" stroke="black" points="1187.05,-165.18 1176.8,-167.86 1186.49,-172.16 1187.05,-165.18"/>
</g>
<!-- DiemConfig&#45;&gt;Roles -->
<g id="edge58" class="edge">
<title>DiemConfig&#45;&gt;Roles</title>
<path fill="none" stroke="black" d="M2103.5,-298.37C2076.74,-294.94 2043.1,-290.89 2013,-288 1786.37,-266.27 1728.42,-275.85 1502,-252 1474.62,-249.12 1443.9,-244.79 1420.26,-241.22"/>
<polygon fill="black" stroke="black" points="1420.68,-237.74 1410.27,-239.69 1419.63,-244.66 1420.68,-237.74"/>
</g>
<!-- DiemConfig&#45;&gt;CoreAddresses -->
<g id="edge56" class="edge">
<title>DiemConfig&#45;&gt;CoreAddresses</title>
<path fill="none" stroke="black" d="M2130.78,-289.49C2086.74,-259.15 1984.73,-190.84 1893,-144 1866.63,-130.54 1836.03,-117.84 1811.24,-108.26"/>
<polygon fill="black" stroke="black" points="1812.3,-104.91 1801.71,-104.61 1809.8,-111.45 1812.3,-104.91"/>
</g>
<!-- DiemConfig&#45;&gt;Event -->
<g id="edge59" class="edge">
<title>DiemConfig&#45;&gt;Event</title>
<path fill="none" stroke="black" d="M2199.11,-296.28C2272.45,-282.4 2414.4,-255.55 2483.41,-242.49"/>
<polygon fill="black" stroke="black" points="2484.27,-245.89 2493.45,-240.59 2482.97,-239.01 2484.27,-245.89"/>
</g>
<!-- Diem&#45;&gt;Signer -->
<g id="edge60" class="edge">
<title>Diem&#45;&gt;Signer</title>
<path fill="none" stroke="black" d="M1370.72,-448.44C1548.43,-445.08 2438.54,-426.77 2487,-396 2608.76,-318.7 2617.83,-161.83 2505,-72 2464.38,-39.66 2313.36,-26.15 2237.74,-21.32"/>
<polygon fill="black" stroke="black" points="2237.78,-17.82 2227.58,-20.7 2237.35,-24.8 2237.78,-17.82"/>
</g>
<!-- Diem&#45;&gt;Errors -->
<g id="edge61" class="edge">
<title>Diem&#45;&gt;Errors</title>
<path fill="none" stroke="black" d="M1309.57,-448.1C1193.03,-444.42 775.21,-429.17 647,-396 637.71,-393.6 498.69,-328.07 490,-324 407.01,-285.12 304,-326.64 304,-235 304,-235 304,-235 304,-161 304,-82.8 900.73,-34 1066.65,-21.94"/>
<polygon fill="black" stroke="black" points="1067.22,-25.4 1076.95,-21.2 1066.72,-18.42 1067.22,-25.4"/>
</g>
<!-- Diem&#45;&gt;Vector -->
<g id="edge66" class="edge">
<title>Diem&#45;&gt;Vector</title>
<path fill="none" stroke="black" d="M1369.26,-444.25C1455.46,-430.35 1716.03,-388.87 1933,-360 2001.75,-350.85 2186.66,-364.45 2243,-324 2254.82,-315.51 2290.38,-232.38 2308.35,-189.02"/>
<polygon fill="black" stroke="black" points="2311.63,-190.25 2312.21,-179.67 2305.16,-187.58 2311.63,-190.25"/>
</g>
<!-- Diem&#45;&gt;DiemTimestamp -->
<g id="edge63" class="edge">
<title>Diem&#45;&gt;DiemTimestamp</title>
<path fill="none" stroke="black" d="M1312.46,-441.74C1267.87,-429.77 1183.81,-406.18 1174,-396 1145.38,-366.3 1122.42,-245.03 1113.27,-190.17"/>
<polygon fill="black" stroke="black" points="1116.7,-189.44 1111.63,-180.13 1109.79,-190.57 1116.7,-189.44"/>
</g>
<!-- Diem&#45;&gt;Roles -->
<g id="edge64" class="edge">
<title>Diem&#45;&gt;Roles</title>
<path fill="none" stroke="black" d="M1367.55,-441.98C1390.1,-434.61 1420.56,-420.59 1435,-396 1461.45,-350.96 1425.43,-291.15 1400.73,-258.59"/>
<polygon fill="black" stroke="black" points="1403.35,-256.26 1394.44,-250.54 1397.84,-260.57 1403.35,-256.26"/>
</g>
<!-- Diem&#45;&gt;CoreAddresses -->
<g id="edge62" class="edge">
<title>Diem&#45;&gt;CoreAddresses</title>
<path fill="none" stroke="black" d="M1364.28,-438.97C1421.47,-414.38 1566.64,-346.15 1658,-252 1698.51,-210.25 1732.88,-150.96 1750.77,-117.2"/>
<polygon fill="black" stroke="black" points="1754.05,-118.48 1755.58,-108 1747.85,-115.24 1754.05,-118.48"/>
</g>
<!-- Diem&#45;&gt;Event -->
<g id="edge67" class="edge">
<title>Diem&#45;&gt;Event</title>
<path fill="none" stroke="black" d="M1370.56,-448.48C1545.37,-445.37 2412.42,-428.35 2458,-396 2501.74,-364.96 2516.08,-299.29 2520.76,-262.12"/>
<polygon fill="black" stroke="black" points="2524.25,-262.34 2521.88,-252.01 2517.3,-261.56 2524.25,-262.34"/>
</g>
<!-- FixedPoint32 -->
<g id="node28" class="node">
<title>FixedPoint32</title>
<ellipse fill="none" stroke="black" cx="466" cy="-378" rx="57.69" ry="18"/>
<text text-anchor="middle" x="466" y="-374.3" font-family="Times,serif" font-size="14.00">FixedPoint32</text>
</g>
<!-- Diem&#45;&gt;FixedPoint32 -->
<g id="edge65" class="edge">
<title>Diem&#45;&gt;FixedPoint32</title>
<path fill="none" stroke="black" d="M1309.53,-447.23C1209.67,-441.33 883.26,-421.28 614,-396 586.04,-393.37 555.17,-389.92 528.89,-386.81"/>
<polygon fill="black" stroke="black" points="529.03,-383.3 518.69,-385.59 528.2,-390.25 529.03,-383.3"/>
</g>
<!-- RegisteredCurrencies -->
<g id="node29" class="node">
<title>RegisteredCurrencies</title>
<ellipse fill="none" stroke="black" cx="1340" cy="-378" rx="86.38" ry="18"/>
<text text-anchor="middle" x="1340" y="-374.3" font-family="Times,serif" font-size="14.00">RegisteredCurrencies</text>
</g>
<!-- Diem&#45;&gt;RegisteredCurrencies -->
<g id="edge68" class="edge">
<title>Diem&#45;&gt;RegisteredCurrencies</title>
<path fill="none" stroke="black" d="M1340,-431.7C1340,-423.98 1340,-414.71 1340,-406.11"/>
<polygon fill="black" stroke="black" points="1343.5,-406.1 1340,-396.1 1336.5,-406.1 1343.5,-406.1"/>
</g>
<!-- XUS&#45;&gt;DiemTimestamp -->
<g id="edge69" class="edge">
<title>XUS&#45;&gt;DiemTimestamp</title>
<path fill="none" stroke="black" d="M859.81,-518.53C763.73,-509.46 452.13,-474.31 399,-396 390.02,-382.76 392.7,-374.71 399,-360 403.56,-349.34 539.45,-220.81 550,-216 633.03,-178.11 893.66,-167.29 1027.66,-164.22"/>
<polygon fill="black" stroke="black" points="1027.95,-167.71 1037.87,-163.99 1027.8,-160.71 1027.95,-167.71"/>
</g>
<!-- XUS&#45;&gt;AccountLimits -->
<g id="edge72" class="edge">
<title>XUS&#45;&gt;AccountLimits</title>
<path fill="none" stroke="black" d="M868.49,-508.82C855.46,-499.45 839.41,-485.21 832,-468 813.14,-424.18 822.07,-367.3 830.14,-334.2"/>
<polygon fill="black" stroke="black" points="833.57,-334.89 832.69,-324.33 826.79,-333.14 833.57,-334.89"/>
</g>
<!-- XUS&#45;&gt;Diem -->
<g id="edge71" class="edge">
<title>XUS&#45;&gt;Diem</title>
<path fill="none" stroke="black" d="M912.22,-512.39C921.45,-509.38 932.12,-506.2 942,-504 1071.07,-475.32 1227.36,-460.04 1299.68,-454.05"/>
<polygon fill="black" stroke="black" points="1300.05,-457.54 1309.73,-453.24 1299.48,-450.56 1300.05,-457.54"/>
</g>
<!-- XUS&#45;&gt;FixedPoint32 -->
<g id="edge70" class="edge">
<title>XUS&#45;&gt;FixedPoint32</title>
<path fill="none" stroke="black" d="M861.05,-515.44C821.04,-506.9 743.81,-489.27 680,-468 617.9,-447.29 548.3,-416.96 505.81,-397.6"/>
<polygon fill="black" stroke="black" points="507.2,-394.39 496.65,-393.4 504.29,-400.75 507.2,-394.39"/>
</g>
<!-- XDX&#45;&gt;Errors -->
<g id="edge73" class="edge">
<title>XDX&#45;&gt;Errors</title>
<path fill="none" stroke="black" d="M955.06,-512.68C945.91,-509.83 935.53,-506.68 926,-504 863.32,-486.38 844.83,-491.22 784,-468 751.68,-455.67 747.38,-444.15 715,-432 651.21,-408.07 624.68,-430.61 566,-396 547.31,-384.97 552.04,-370.42 533,-360 451.48,-315.36 410.58,-364.65 327,-324 273.79,-298.12 228,-294.17 228,-235 228,-235 228,-235 228,-161 228,-75.32 316.59,-95.45 399,-72 525.61,-35.98 932.98,-23.21 1066.32,-19.94"/>
<polygon fill="black" stroke="black" points="1066.62,-23.43 1076.54,-19.69 1066.46,-16.43 1066.62,-23.43"/>
</g>
<!-- XDX&#45;&gt;DiemTimestamp -->
<g id="edge75" class="edge">
<title>XDX&#45;&gt;DiemTimestamp</title>
<path fill="none" stroke="black" d="M959.05,-509.61C923.18,-491.35 849.44,-455.2 784,-432 724.66,-410.97 705.97,-418.03 647,-396 638.53,-392.83 505.78,-331.68 501,-324 492.55,-310.41 493.09,-301.91 501,-288 508.73,-274.4 607.16,-220.96 622,-216 695.58,-191.41 911.61,-174.95 1029.69,-167.52"/>
<polygon fill="black" stroke="black" points="1030,-171.01 1039.76,-166.9 1029.56,-164.02 1030,-171.01"/>
</g>
<!-- XDX&#45;&gt;AccountLimits -->
<g id="edge78" class="edge">
<title>XDX&#45;&gt;AccountLimits</title>
<path fill="none" stroke="black" d="M964.9,-506.73C941.2,-484.96 896.81,-441.17 870,-396 858.46,-376.55 850.07,-352.27 844.79,-333.98"/>
<polygon fill="black" stroke="black" points="848.14,-332.96 842.1,-324.25 841.39,-334.82 848.14,-332.96"/>
</g>
<!-- XDX&#45;&gt;CoreAddresses -->
<g id="edge74" class="edge">
<title>XDX&#45;&gt;CoreAddresses</title>
<path fill="none" stroke="black" d="M995.07,-506.02C1040.83,-458.03 1191.06,-306.03 1341,-216 1415.22,-171.43 1439.22,-169.34 1522,-144 1581.83,-125.68 1651.81,-111.07 1701.08,-101.86"/>
<polygon fill="black" stroke="black" points="1701.76,-105.3 1710.96,-100.04 1700.49,-98.41 1701.76,-105.3"/>
</g>
<!-- XDX&#45;&gt;Diem -->
<g id="edge77" class="edge">
<title>XDX&#45;&gt;Diem</title>
<path fill="none" stroke="black" d="M1009.17,-515.51C1072.98,-503.07 1228.62,-472.72 1301.36,-458.54"/>
<polygon fill="black" stroke="black" points="1302.32,-461.91 1311.46,-456.56 1300.98,-455.04 1302.32,-461.91"/>
</g>
<!-- XDX&#45;&gt;FixedPoint32 -->
<g id="edge76" class="edge">
<title>XDX&#45;&gt;FixedPoint32</title>
<path fill="none" stroke="black" d="M955.4,-512.56C946.18,-509.66 935.67,-506.51 926,-504 851.25,-484.58 830.59,-488.04 756,-468 706.32,-454.65 695.12,-447.27 646,-432 602.64,-418.52 553.13,-404.01 517.02,-393.58"/>
<polygon fill="black" stroke="black" points="517.79,-390.16 507.21,-390.75 515.85,-396.89 517.79,-390.16"/>
</g>
<!-- ValidatorOperatorConfig&#45;&gt;Signer -->
<g id="edge79" class="edge">
<title>ValidatorOperatorConfig&#45;&gt;Signer</title>
<path fill="none" stroke="black" d="M697.4,-294.83C719.23,-292.26 743.02,-289.74 765,-288 813,-284.19 1592.53,-280.96 1631,-252 1698.37,-201.28 1625.27,-124.83 1691,-72 1726.47,-43.49 2034.26,-26.4 2150.13,-20.93"/>
<polygon fill="black" stroke="black" points="2150.58,-24.41 2160.41,-20.45 2150.26,-17.42 2150.58,-24.41"/>
</g>
<!-- ValidatorOperatorConfig&#45;&gt;Errors -->
<g id="edge80" class="edge">
<title>ValidatorOperatorConfig&#45;&gt;Errors</title>
<path fill="none" stroke="black" d="M641.95,-288.37C696.34,-247.67 842.62,-141.33 976,-72 1007.43,-55.66 1045.08,-41.09 1072.28,-31.38"/>
<polygon fill="black" stroke="black" points="1073.53,-34.65 1081.8,-28.03 1071.21,-28.05 1073.53,-34.65"/>
</g>
<!-- ValidatorOperatorConfig&#45;&gt;DiemTimestamp -->
<g id="edge81" class="edge">
<title>ValidatorOperatorConfig&#45;&gt;DiemTimestamp</title>
<path fill="none" stroke="black" d="M659.41,-289.51C708.79,-270.49 796.25,-238.04 873,-216 930.09,-199.61 996.13,-185.15 1043.81,-175.49"/>
<polygon fill="black" stroke="black" points="1044.58,-178.91 1053.7,-173.51 1043.2,-172.05 1044.58,-178.91"/>
</g>
<!-- ValidatorOperatorConfig&#45;&gt;Roles -->
<g id="edge82" class="edge">
<title>ValidatorOperatorConfig&#45;&gt;Roles</title>
<path fill="none" stroke="black" d="M690.7,-293.51C704.38,-291.5 718.62,-289.56 732,-288 961.37,-261.26 1237.91,-243.45 1340.31,-237.34"/>
<polygon fill="black" stroke="black" points="1340.74,-240.82 1350.51,-236.74 1340.33,-233.83 1340.74,-240.82"/>
</g>
<!-- Option&#45;&gt;Errors -->
<g id="edge83" class="edge">
<title>Option&#45;&gt;Errors</title>
<path fill="none" stroke="black" d="M1800.25,-222.17C1730.24,-194.17 1535.47,-118.28 1368,-72 1292.05,-51.01 1201.49,-34.34 1150.07,-25.63"/>
<polygon fill="black" stroke="black" points="1150.46,-22.15 1140.02,-23.95 1149.3,-29.05 1150.46,-22.15"/>
</g>
<!-- Option&#45;&gt;Vector -->
<g id="edge84" class="edge">
<title>Option&#45;&gt;Vector</title>
<path fill="none" stroke="black" d="M1860.43,-228.24C1947.45,-215.86 2180.88,-182.65 2276.88,-168.99"/>
<polygon fill="black" stroke="black" points="2277.4,-172.45 2286.81,-167.58 2276.42,-165.52 2277.4,-172.45"/>
</g>
<!-- ValidatorConfig&#45;&gt;Signer -->
<g id="edge85" class="edge">
<title>ValidatorConfig&#45;&gt;Signer</title>
<path fill="none" stroke="black" d="M1042.94,-372.57C1096.81,-368.93 1175.92,-363.76 1245,-360 1333.96,-355.16 1971.58,-372.97 2046,-324 2096.62,-290.69 2161.57,-113.61 2185.04,-45.62"/>
<polygon fill="black" stroke="black" points="2188.39,-46.64 2188.32,-36.04 2181.77,-44.37 2188.39,-46.64"/>
</g>
<!-- ValidatorConfig&#45;&gt;Errors -->
<g id="edge86" class="edge">
<title>ValidatorConfig&#45;&gt;Errors</title>
<path fill="none" stroke="black" d="M915.44,-372.01C791.03,-361.93 526.25,-338.84 513,-324 502.34,-312.06 504.83,-301.76 513,-288 633.54,-84.95 951.67,-34.27 1066.72,-22.41"/>
<polygon fill="black" stroke="black" points="1067.28,-25.87 1076.89,-21.41 1066.6,-18.9 1067.28,-25.87"/>
</g>
<!-- ValidatorConfig&#45;&gt;DiemTimestamp -->
<g id="edge87" class="edge">
<title>ValidatorConfig&#45;&gt;DiemTimestamp</title>
<path fill="none" stroke="black" d="M972.96,-359.79C967.5,-341.24 961.74,-311.25 972,-288 992.34,-241.9 1039.02,-205.44 1072.23,-184.07"/>
<polygon fill="black" stroke="black" points="1074.17,-186.99 1080.78,-178.71 1070.45,-181.06 1074.17,-186.99"/>
</g>
<!-- ValidatorConfig&#45;&gt;Roles -->
<g id="edge89" class="edge">
<title>ValidatorConfig&#45;&gt;Roles</title>
<path fill="none" stroke="black" d="M976.03,-359.94C973.59,-339.8 973.14,-306.68 992,-288 1040.45,-240.02 1250.78,-234.66 1340.36,-234.61"/>
<polygon fill="black" stroke="black" points="1340.41,-238.11 1350.41,-234.63 1340.42,-231.11 1340.41,-238.11"/>
</g>
<!-- ValidatorConfig&#45;&gt;ValidatorOperatorConfig -->
<g id="edge90" class="edge">
<title>ValidatorConfig&#45;&gt;ValidatorOperatorConfig</title>
<path fill="none" stroke="black" d="M926.41,-366.75C865.25,-354.82 763.83,-335.05 694.56,-321.54"/>
<polygon fill="black" stroke="black" points="695.06,-318.07 684.58,-319.59 693.72,-324.94 695.06,-318.07"/>
</g>
<!-- ValidatorConfig&#45;&gt;Option -->
<g id="edge91" class="edge">
<title>ValidatorConfig&#45;&gt;Option</title>
<path fill="none" stroke="black" d="M982.48,-359.77C987.73,-338.8 999.85,-304.19 1025,-288 1091.88,-244.94 1661.04,-261.65 1740,-252 1755,-250.17 1771.29,-247.24 1785.67,-244.33"/>
<polygon fill="black" stroke="black" points="1786.69,-247.69 1795.76,-242.22 1785.26,-240.84 1786.69,-247.69"/>
</g>
<!-- Signature -->
<g id="node30" class="node">
<title>Signature</title>
<ellipse fill="none" stroke="black" cx="1078" cy="-306" rx="44.39" ry="18"/>
<text text-anchor="middle" x="1078" y="-302.3" font-family="Times,serif" font-size="14.00">Signature</text>
</g>
<!-- ValidatorConfig&#45;&gt;Signature -->
<g id="edge88" class="edge">
<title>ValidatorConfig&#45;&gt;Signature</title>
<path fill="none" stroke="black" d="M1001.96,-360.76C1015.81,-350.97 1033.59,-338.4 1048.48,-327.88"/>
<polygon fill="black" stroke="black" points="1050.71,-330.58 1056.85,-321.95 1046.67,-324.87 1050.71,-330.58"/>
</g>
<!-- TransactionFee&#45;&gt;Errors -->
<g id="edge92" class="edge">
<title>TransactionFee&#45;&gt;Errors</title>
<path fill="none" stroke="black" d="M916.08,-592.36C768.68,-590.21 412.87,-580.8 301,-540 165.76,-490.67 76,-450.96 76,-307 76,-307 76,-307 76,-161 76,-120.03 68.14,-97.76 100,-72 138.11,-41.18 878.98,-23.77 1066.27,-19.85"/>
<polygon fill="black" stroke="black" points="1066.62,-23.35 1076.55,-19.64 1066.48,-16.35 1066.62,-23.35"/>
</g>
<!-- TransactionFee&#45;&gt;DiemTimestamp -->
<g id="edge94" class="edge">
<title>TransactionFee&#45;&gt;DiemTimestamp</title>
<path fill="none" stroke="black" d="M915.97,-593.78C739.72,-594.14 266,-582.86 266,-451 266,-451 266,-451 266,-377 266,-312.41 447.05,-237.39 508,-216 601.77,-183.09 886.72,-169.85 1027.93,-165.2"/>
<polygon fill="black" stroke="black" points="1028.37,-168.69 1038.25,-164.87 1028.14,-161.69 1028.37,-168.69"/>
</g>
<!-- TransactionFee&#45;&gt;Roles -->
<g id="edge95" class="edge">
<title>TransactionFee&#45;&gt;Roles</title>
<path fill="none" stroke="black" d="M1036.97,-584.65C1117.75,-570.65 1269.42,-536.92 1380,-468 1418.67,-443.9 1435.42,-438.04 1453,-396 1459.17,-381.24 1454.43,-375.94 1453,-360 1450.1,-327.61 1455.84,-316.4 1440,-288 1432.55,-274.65 1420.46,-262.91 1409.16,-253.89"/>
<polygon fill="black" stroke="black" points="1411.24,-251.07 1401.15,-247.82 1407.01,-256.65 1411.24,-251.07"/>
</g>
<!-- TransactionFee&#45;&gt;CoreAddresses -->
<g id="edge93" class="edge">
<title>TransactionFee&#45;&gt;CoreAddresses</title>
<path fill="none" stroke="black" d="M1041.97,-587.54C1103.15,-580.82 1199.46,-566.85 1279,-540 1488.96,-469.14 1538.76,-417.61 1686,-252 1712.4,-222.3 1721.57,-215.71 1739,-180 1748.65,-160.23 1755.14,-136.11 1759.08,-117.97"/>
<polygon fill="black" stroke="black" points="1762.53,-118.56 1761.11,-108.06 1755.67,-117.15 1762.53,-118.56"/>
</g>
<!-- TransactionFee&#45;&gt;Diem -->
<g id="edge96" class="edge">
<title>TransactionFee&#45;&gt;Diem</title>
<path fill="none" stroke="black" d="M1016.73,-578.87C1086.04,-551.45 1237.87,-491.4 1305.87,-464.5"/>
<polygon fill="black" stroke="black" points="1307.27,-467.71 1315.28,-460.78 1304.69,-461.2 1307.27,-467.71"/>
</g>
<!-- TransactionFee&#45;&gt;XUS -->
<g id="edge97" class="edge">
<title>TransactionFee&#45;&gt;XUS</title>
<path fill="none" stroke="black" d="M959.43,-576.76C945.79,-566.5 928.1,-553.18 913.73,-542.37"/>
<polygon fill="black" stroke="black" points="915.81,-539.55 905.71,-536.33 911.6,-545.14 915.81,-539.55"/>
</g>
<!-- TransactionFee&#45;&gt;XDX -->
<g id="edge98" class="edge">
<title>TransactionFee&#45;&gt;XDX</title>
<path fill="none" stroke="black" d="M981,-575.7C981,-567.98 981,-558.71 981,-550.11"/>
<polygon fill="black" stroke="black" points="984.5,-550.1 981,-540.1 977.5,-550.1 984.5,-550.1"/>
</g>
<!-- DualAttestation&#45;&gt;Signer -->
<g id="edge99" class="edge">
<title>DualAttestation&#45;&gt;Signer</title>
<path fill="none" stroke="black" d="M1767.5,-593.33C1903.15,-592.95 2221.09,-586.63 2483,-540 2595.16,-520.03 2644.94,-544.88 2729,-468 2864.9,-343.71 2975.88,-207.36 2851,-72 2809.55,-27.07 2379.55,-20.22 2238.52,-19.18"/>
<polygon fill="black" stroke="black" points="2238.12,-15.68 2228.1,-19.11 2238.08,-22.68 2238.12,-15.68"/>
</g>
<!-- DualAttestation&#45;&gt;Errors -->
<g id="edge100" class="edge">
<title>DualAttestation&#45;&gt;Errors</title>
<path fill="none" stroke="black" d="M1675.52,-577.24C1646.46,-559.32 1597.48,-529.27 1555,-504 1500.23,-471.41 1490.67,-454.37 1431,-432 1352.16,-402.45 1305.35,-454.72 1245,-396 1162.76,-315.99 1233.04,-249.94 1189,-144 1173.32,-106.28 1146.38,-67.34 1128.14,-43.16"/>
<polygon fill="black" stroke="black" points="1130.71,-40.76 1121.85,-34.95 1125.15,-45.01 1130.71,-40.76"/>
</g>
<!-- DualAttestation&#45;&gt;Vector -->
<g id="edge105" class="edge">
<title>DualAttestation&#45;&gt;Vector</title>
<path fill="none" stroke="black" d="M1729.48,-577.69C1802.14,-538.91 2000.75,-434.6 2172,-360 2213.4,-341.97 2234.37,-355.21 2267,-324 2304.22,-288.39 2314.85,-226.02 2317.85,-190.26"/>
<polygon fill="black" stroke="black" points="2321.36,-190.3 2318.56,-180.08 2314.37,-189.81 2321.36,-190.3"/>
</g>
<!-- DualAttestation&#45;&gt;VASP -->
<g id="edge110" class="edge">
<title>DualAttestation&#45;&gt;VASP</title>
<path fill="none" stroke="black" d="M1652.68,-581.57C1643.83,-579.61 1634.65,-577.67 1626,-576 1527,-556.85 1501.01,-559.1 1402,-540 1142.73,-489.99 833.93,-415.09 726.83,-388.66"/>
<polygon fill="black" stroke="black" points="727.66,-385.25 717.11,-386.25 725.98,-392.05 727.66,-385.25"/>
</g>
<!-- DualAttestation&#45;&gt;DiemTimestamp -->
<g id="edge102" class="edge">
<title>DualAttestation&#45;&gt;DiemTimestamp</title>
<path fill="none" stroke="black" d="M1664.08,-579.05C1638.23,-568.96 1603.08,-554.58 1573,-540 1484.55,-497.12 1471.97,-466.68 1380,-432 1308.55,-405.05 1270.95,-444.54 1212,-396 1144.83,-340.69 1171.28,-295.09 1135,-216 1130.96,-207.2 1126.37,-197.68 1122.17,-189.17"/>
<polygon fill="black" stroke="black" points="1125.24,-187.48 1117.66,-180.08 1118.97,-190.59 1125.24,-187.48"/>
</g>
<!-- DualAttestation&#45;&gt;Roles -->
<g id="edge104" class="edge">
<title>DualAttestation&#45;&gt;Roles</title>
<path fill="none" stroke="black" d="M1695.03,-575.83C1676.17,-524.09 1612.7,-368.27 1507,-288 1472.69,-261.95 1456.5,-269.21 1417,-252 1415.82,-251.49 1414.63,-250.96 1413.42,-250.42"/>
<polygon fill="black" stroke="black" points="1414.69,-247.15 1404.14,-246.18 1411.78,-253.52 1414.69,-247.15"/>
</g>
<!-- DualAttestation&#45;&gt;CoreAddresses -->
<g id="edge101" class="edge">
<title>DualAttestation&#45;&gt;CoreAddresses</title>
<path fill="none" stroke="black" d="M1709.4,-576.13C1732.36,-530 1798.17,-397.84 1853,-288 1860.99,-271.99 1866.89,-269.41 1871,-252 1884.28,-195.75 1831.28,-142.33 1795.16,-113.38"/>
<polygon fill="black" stroke="black" points="1796.88,-110.29 1786.84,-106.9 1792.58,-115.81 1796.88,-110.29"/>
</g>
<!-- DualAttestation&#45;&gt;BCS -->
<g id="edge106" class="edge">
<title>DualAttestation&#45;&gt;BCS</title>
<path fill="none" stroke="black" d="M1764.83,-589.01C1974.53,-575.35 2633.09,-528.04 2706,-468 2728.3,-449.64 2780.08,-260.92 2798.96,-189.86"/>
<polygon fill="black" stroke="black" points="2802.42,-190.45 2801.59,-179.89 2795.65,-188.66 2802.42,-190.45"/>
</g>
<!-- DualAttestation&#45;&gt;Event -->
<g id="edge107" class="edge">
<title>DualAttestation&#45;&gt;Event</title>
<path fill="none" stroke="black" d="M1750.55,-581.9C1926.87,-542.29 2514.22,-409.6 2529,-396 2565.26,-362.64 2566.89,-335.55 2554,-288 2551.27,-277.92 2546.09,-267.79 2540.73,-259.13"/>
<polygon fill="black" stroke="black" points="2543.6,-257.13 2535.18,-250.7 2537.76,-260.98 2543.6,-257.13"/>
</g>
<!-- DualAttestation&#45;&gt;Diem -->
<g id="edge108" class="edge">
<title>DualAttestation&#45;&gt;Diem</title>
<path fill="none" stroke="black" d="M1651.87,-581.86C1588.65,-567.44 1485.94,-543.72 1478,-540 1453.86,-528.68 1452.19,-518.79 1430,-504 1410.73,-491.15 1388.28,-477.93 1370.62,-467.91"/>
<polygon fill="black" stroke="black" points="1372.3,-464.84 1361.87,-462.98 1368.87,-470.93 1372.3,-464.84"/>
</g>
<!-- DualAttestation&#45;&gt;XDX -->
<g id="edge109" class="edge">
<title>DualAttestation&#45;&gt;XDX</title>
<path fill="none" stroke="black" d="M1653.98,-581.28C1644.75,-579.28 1635.11,-577.4 1626,-576 1508.11,-557.89 1142.12,-533.36 1020.64,-525.52"/>
<polygon fill="black" stroke="black" points="1020.86,-522.03 1010.66,-524.88 1020.41,-529.01 1020.86,-522.03"/>
</g>
<!-- DualAttestation&#45;&gt;Signature -->
<g id="edge103" class="edge">
<title>DualAttestation&#45;&gt;Signature</title>
<path fill="none" stroke="black" d="M1652.25,-581.64C1643.52,-579.7 1634.5,-577.74 1626,-576 1539.24,-558.21 1513.82,-568.62 1430,-540 1363.97,-517.45 1205.25,-439.88 1151,-396 1128.23,-377.58 1107.61,-351.08 1094.13,-331.79"/>
<polygon fill="black" stroke="black" points="1096.99,-329.78 1088.46,-323.49 1091.21,-333.72 1096.99,-329.78"/>
</g>
<!-- DiemTransactionPublishingOption&#45;&gt;Signer -->
<g id="edge111" class="edge">
<title>DiemTransactionPublishingOption&#45;&gt;Signer</title>
<path fill="none" stroke="black" d="M2379.46,-362.1C2401.38,-354.11 2424.29,-342.04 2440,-324 2466.91,-293.11 2464,-275.97 2464,-235 2464,-235 2464,-235 2464,-161 2464,-59.96 2314.05,-30.65 2237.65,-22.28"/>
<polygon fill="black" stroke="black" points="2237.68,-18.76 2227.38,-21.23 2236.97,-25.73 2237.68,-18.76"/>
</g>
<!-- DiemTransactionPublishingOption&#45;&gt;Errors -->
<g id="edge112" class="edge">
<title>DiemTransactionPublishingOption&#45;&gt;Errors</title>
<path fill="none" stroke="black" d="M2337.48,-360.19C2348.88,-350.66 2362.15,-337.89 2371,-324 2414.12,-256.33 2441.64,-200.83 2385,-144 2344.91,-103.78 2188.1,-116.82 2132,-108 2038.89,-93.36 2016.6,-83.08 1923,-72 1629.49,-37.26 1273.54,-23.94 1152.04,-20.2"/>
<polygon fill="black" stroke="black" points="1151.78,-16.69 1141.68,-19.89 1151.57,-23.69 1151.78,-16.69"/>
</g>
<!-- DiemTransactionPublishingOption&#45;&gt;Vector -->
<g id="edge116" class="edge">
<title>DiemTransactionPublishingOption&#45;&gt;Vector</title>
<path fill="none" stroke="black" d="M2319.46,-359.95C2321.94,-349.63 2324.75,-336.15 2326,-324 2330.9,-276.25 2329.15,-263.9 2326,-216 2325.44,-207.53 2324.39,-198.36 2323.27,-190.06"/>
<polygon fill="black" stroke="black" points="2326.73,-189.53 2321.84,-180.13 2319.8,-190.53 2326.73,-189.53"/>
</g>
<!-- DiemTransactionPublishingOption&#45;&gt;DiemTimestamp -->
<g id="edge114" class="edge">
<title>DiemTransactionPublishingOption&#45;&gt;DiemTimestamp</title>
<path fill="none" stroke="black" d="M2196.81,-369.39C2102.9,-361.92 1968.6,-348.06 1853,-324 1799.32,-312.83 1788.61,-299.52 1735,-288 1611.9,-261.54 1565.79,-309.93 1454,-252 1434.73,-242.01 1440.06,-226.38 1421,-216 1381.4,-194.44 1264.33,-178.74 1185.4,-170.25"/>
<polygon fill="black" stroke="black" points="1185.33,-166.72 1175.01,-169.15 1184.59,-173.68 1185.33,-166.72"/>
</g>
<!-- DiemTransactionPublishingOption&#45;&gt;Roles -->
<g id="edge115" class="edge">
<title>DiemTransactionPublishingOption&#45;&gt;Roles</title>
<path fill="none" stroke="black" d="M2205.1,-367.59C2104.6,-358.42 1951.94,-343.09 1820,-324 1808.99,-322.41 1436.72,-254.98 1426,-252 1422.41,-251 1418.7,-249.84 1415.03,-248.59"/>
<polygon fill="black" stroke="black" points="1416.09,-245.25 1405.49,-245.17 1413.72,-251.84 1416.09,-245.25"/>
</g>
<!-- DiemTransactionPublishingOption&#45;&gt;CoreAddresses -->
<g id="edge113" class="edge">
<title>DiemTransactionPublishingOption&#45;&gt;CoreAddresses</title>
<path fill="none" stroke="black" d="M2326.86,-360.06C2354.93,-317.73 2418.98,-206.25 2362,-144 2344.47,-124.85 1991.81,-103.39 1836.44,-94.83"/>
<polygon fill="black" stroke="black" points="1836.23,-91.31 1826.05,-94.26 1835.84,-98.3 1836.23,-91.31"/>
</g>
<!-- DiemTransactionPublishingOption&#45;&gt;DiemConfig -->
<g id="edge117" class="edge">
<title>DiemTransactionPublishingOption&#45;&gt;DiemConfig</title>
<path fill="none" stroke="black" d="M2277.02,-360.59C2252.14,-349.84 2219.64,-335.79 2194.14,-324.78"/>
<polygon fill="black" stroke="black" points="2195.32,-321.47 2184.75,-320.72 2192.54,-327.9 2195.32,-321.47"/>
</g>
<!-- DesignatedDealer&#45;&gt;Signer -->
<g id="edge118" class="edge">
<title>DesignatedDealer&#45;&gt;Signer</title>
<path fill="none" stroke="black" d="M1521.78,-581.68C1531.18,-579.75 1540.87,-577.79 1550,-576 1792.89,-528.31 2515.52,-540.78 2635,-324 2693.01,-218.76 2638.3,-136.65 2537,-72 2488.15,-40.82 2319.04,-26.57 2237.99,-21.42"/>
<polygon fill="black" stroke="black" points="2237.82,-17.9 2227.62,-20.78 2237.39,-24.89 2237.82,-17.9"/>
</g>
<!-- DesignatedDealer&#45;&gt;Errors -->
<g id="edge119" class="edge">
<title>DesignatedDealer&#45;&gt;Errors</title>
<path fill="none" stroke="black" d="M1397.34,-589.01C1282.31,-582.04 1047.53,-565.89 850,-540 667.86,-516.13 617.65,-524.93 443,-468 288.22,-417.55 114,-469.79 114,-307 114,-307 114,-307 114,-161 114,-109.84 141.4,-95.2 187,-72 265.95,-31.83 895.7,-21.52 1066.43,-19.45"/>
<polygon fill="black" stroke="black" points="1066.59,-22.95 1076.54,-19.33 1066.5,-15.95 1066.59,-22.95"/>
</g>
<!-- DesignatedDealer&#45;&gt;Roles -->
<g id="edge120" class="edge">
<title>DesignatedDealer&#45;&gt;Roles</title>
<path fill="none" stroke="black" d="M1481.7,-576.24C1511.67,-537.4 1577.79,-438.56 1544,-360 1525.62,-317.26 1504.96,-316.26 1468,-288 1450.34,-274.49 1429.04,-261.47 1411.94,-251.72"/>
<polygon fill="black" stroke="black" points="1413.35,-248.49 1402.92,-246.65 1409.92,-254.6 1413.35,-248.49"/>
</g>
<!-- DesignatedDealer&#45;&gt;Event -->
<g id="edge121" class="edge">
<title>DesignatedDealer&#45;&gt;Event</title>
<path fill="none" stroke="black" d="M1510.24,-579.23C1570.15,-560.12 1683.46,-525.49 1782,-504 1986.76,-459.34 2040.83,-463.61 2248,-432 2354.19,-415.8 2399.41,-458.18 2487,-396 2528.66,-366.42 2529.74,-299.89 2526.57,-262.26"/>
<polygon fill="black" stroke="black" points="2530.02,-261.63 2525.54,-252.03 2523.06,-262.33 2530.02,-261.63"/>
</g>
<!-- DesignatedDealer&#45;&gt;Diem -->
<g id="edge122" class="edge">
<title>DesignatedDealer&#45;&gt;Diem</title>
<path fill="none" stroke="black" d="M1452.81,-576.15C1429.93,-550.77 1386.56,-502.65 1360.77,-474.04"/>
<polygon fill="black" stroke="black" points="1363.29,-471.61 1353.99,-466.52 1358.09,-476.3 1363.29,-471.61"/>
</g>
<!-- DesignatedDealer&#45;&gt;XUS -->
<g id="edge123" class="edge">
<title>DesignatedDealer&#45;&gt;XUS</title>
<path fill="none" stroke="black" d="M1395.83,-590.4C1293.82,-585.67 1102.03,-572.89 942,-540 935.49,-538.66 928.66,-536.85 922.12,-534.9"/>
<polygon fill="black" stroke="black" points="922.77,-531.43 912.18,-531.77 920.67,-538.11 922.77,-531.43"/>
</g>
<!-- ChainId&#45;&gt;Signer -->
<g id="edge124" class="edge">
<title>ChainId&#45;&gt;Signer</title>
<path fill="none" stroke="black" d="M1582.96,-215.77C1583.92,-182.09 1591.27,-107.71 1636,-72 1675.9,-40.14 2025.44,-24.9 2150.08,-20.44"/>
<polygon fill="black" stroke="black" points="2150.53,-23.93 2160.4,-20.08 2150.28,-16.93 2150.53,-23.93"/>
</g>
<!-- ChainId&#45;&gt;Errors -->
<g id="edge125" class="edge">
<title>ChainId&#45;&gt;Errors</title>
<path fill="none" stroke="black" d="M1563.58,-218.29C1521.34,-186.95 1417.01,-113.14 1319,-72 1262.51,-48.29 1192.86,-33.29 1149.68,-25.52"/>
<polygon fill="black" stroke="black" points="1150.28,-22.07 1139.83,-23.79 1149.07,-28.97 1150.28,-22.07"/>
</g>
<!-- ChainId&#45;&gt;DiemTimestamp -->
<g id="edge127" class="edge">
<title>ChainId&#45;&gt;DiemTimestamp</title>
<path fill="none" stroke="black" d="M1553,-222.31C1545.55,-219.96 1537.55,-217.67 1530,-216 1411.98,-189.88 1272.3,-175.47 1187.21,-168.49"/>
<polygon fill="black" stroke="black" points="1187.36,-164.99 1177.11,-167.67 1186.79,-171.97 1187.36,-164.99"/>
</g>
<!-- ChainId&#45;&gt;CoreAddresses -->
<g id="edge126" class="edge">
<title>ChainId&#45;&gt;CoreAddresses</title>
<path fill="none" stroke="black" d="M1602.03,-218.07C1633.84,-193.11 1698,-142.78 1735.31,-113.51"/>
<polygon fill="black" stroke="black" points="1737.59,-116.17 1743.29,-107.25 1733.26,-110.66 1737.59,-116.17"/>
</g>
<!-- AccountFreezing&#45;&gt;Signer -->
<g id="edge128" class="edge">
<title>AccountFreezing&#45;&gt;Signer</title>
<path fill="none" stroke="black" d="M1949.97,-288.34C1959.55,-278.37 1971.3,-265.12 1980,-252 2029,-178.11 2001.66,-133.01 2066,-72 2090.17,-49.08 2125.65,-35.45 2153.13,-27.76"/>
<polygon fill="black" stroke="black" points="2154.08,-31.13 2162.86,-25.19 2152.29,-24.36 2154.08,-31.13"/>
</g>
<!-- AccountFreezing&#45;&gt;Errors -->
<g id="edge129" class="edge">
<title>AccountFreezing&#45;&gt;Errors</title>
<path fill="none" stroke="black" d="M1934.61,-287.95C1935.82,-269.8 1936.34,-240.39 1930,-216 1910.84,-142.26 1904.18,-107.94 1837,-72 1776.63,-39.71 1299.46,-24.17 1152.16,-20.11"/>
<polygon fill="black" stroke="black" points="1151.82,-16.6 1141.73,-19.82 1151.63,-23.6 1151.82,-16.6"/>
</g>
<!-- AccountFreezing&#45;&gt;DiemTimestamp -->
<g id="edge131" class="edge">
<title>AccountFreezing&#45;&gt;DiemTimestamp</title>
<path fill="none" stroke="black" d="M1880.54,-293.71C1869.81,-291.62 1858.56,-289.6 1848,-288 1695.14,-264.81 1645.94,-308.43 1502,-252 1477.17,-242.27 1478.58,-226.33 1454,-216 1368.68,-180.13 1262.36,-168.2 1190.47,-164.4"/>
<polygon fill="black" stroke="black" points="1190.27,-160.89 1180.12,-163.9 1189.94,-167.88 1190.27,-160.89"/>
</g>
<!-- AccountFreezing&#45;&gt;Roles -->
<g id="edge132" class="edge">
<title>AccountFreezing&#45;&gt;Roles</title>
<path fill="none" stroke="black" d="M1866.34,-299.36C1775.18,-291.22 1606.64,-274.62 1464,-252 1449.15,-249.65 1432.93,-246.46 1418.8,-243.49"/>
<polygon fill="black" stroke="black" points="1419.44,-240.04 1408.93,-241.37 1417.98,-246.89 1419.44,-240.04"/>
</g>
<!-- AccountFreezing&#45;&gt;CoreAddresses -->
<g id="edge130" class="edge">
<title>AccountFreezing&#45;&gt;CoreAddresses</title>
<path fill="none" stroke="black" d="M1930.26,-287.53C1924.3,-255.05 1907.23,-184.97 1866,-144 1850.74,-128.84 1830.25,-117.05 1811.64,-108.48"/>
<polygon fill="black" stroke="black" points="1812.96,-105.24 1802.4,-104.41 1810.14,-111.64 1812.96,-105.24"/>
</g>
<!-- AccountFreezing&#45;&gt;Event -->
<g id="edge133" class="edge">
<title>AccountFreezing&#45;&gt;Event</title>
<path fill="none" stroke="black" d="M1996.14,-297.51C2117.88,-283.07 2381.92,-251.74 2482.75,-239.78"/>
<polygon fill="black" stroke="black" points="2483.31,-243.23 2492.83,-238.58 2482.49,-236.28 2483.31,-243.23"/>
</g>
<!-- FixedPoint32&#45;&gt;Errors -->
<g id="edge134" class="edge">
<title>FixedPoint32&#45;&gt;Errors</title>
<path fill="none" stroke="black" d="M411.15,-372.13C345.79,-365.22 241.9,-350.38 214,-324 184.23,-295.85 190,-275.97 190,-235 190,-235 190,-235 190,-161 190,-120.03 182.23,-97.86 214,-72 280.58,-17.8 897.17,-17.66 1066.28,-18.65"/>
<polygon fill="black" stroke="black" points="1066.28,-22.15 1076.3,-18.72 1066.33,-15.15 1066.28,-22.15"/>
</g>
<!-- RegisteredCurrencies&#45;&gt;Errors -->
<g id="edge135" class="edge">
<title>RegisteredCurrencies&#45;&gt;Errors</title>
<path fill="none" stroke="black" d="M1337.87,-359.8C1330.76,-309.28 1303.53,-159.39 1222,-72 1202.12,-50.69 1171.95,-37.15 1147.78,-29.09"/>
<polygon fill="black" stroke="black" points="1148.76,-25.73 1138.17,-26.06 1146.66,-32.4 1148.76,-25.73"/>
</g>
<!-- RegisteredCurrencies&#45;&gt;Vector -->
<g id="edge138" class="edge">
<title>RegisteredCurrencies&#45;&gt;Vector</title>
<path fill="none" stroke="black" d="M1418.23,-370.31C1458.73,-366.97 1509,-363.01 1554,-360 1627.61,-355.08 2157.09,-367.05 2217,-324 2258.96,-293.85 2230.45,-258.38 2260,-216 2268.54,-203.76 2280.42,-192.38 2291.28,-183.34"/>
<polygon fill="black" stroke="black" points="2293.71,-185.88 2299.32,-176.89 2289.33,-180.42 2293.71,-185.88"/>
</g>
<!-- RegisteredCurrencies&#45;&gt;DiemTimestamp -->
<g id="edge136" class="edge">
<title>RegisteredCurrencies&#45;&gt;DiemTimestamp</title>
<path fill="none" stroke="black" d="M1325.44,-360.01C1298.89,-329.49 1240.17,-264.1 1184,-216 1171.09,-204.94 1155.92,-193.9 1142.61,-184.78"/>
<polygon fill="black" stroke="black" points="1144.43,-181.78 1134.18,-179.08 1140.51,-187.58 1144.43,-181.78"/>
</g>
<!-- RegisteredCurrencies&#45;&gt;Roles -->
<g id="edge137" class="edge">
<title>RegisteredCurrencies&#45;&gt;Roles</title>
<path fill="none" stroke="black" d="M1344.95,-359.87C1351.96,-335.56 1364.88,-290.82 1373.2,-262.01"/>
<polygon fill="black" stroke="black" points="1376.63,-262.77 1376.04,-252.19 1369.9,-260.83 1376.63,-262.77"/>
</g>
<!-- RegisteredCurrencies&#45;&gt;DiemConfig -->
<g id="edge139" class="edge">
<title>RegisteredCurrencies&#45;&gt;DiemConfig</title>
<path fill="none" stroke="black" d="M1418.75,-370.53C1459.17,-367.26 1509.21,-363.3 1554,-360 1789.46,-342.65 1850.72,-360.38 2084,-324 2090.16,-323.04 2096.58,-321.8 2102.91,-320.42"/>
<polygon fill="black" stroke="black" points="2103.77,-323.81 2112.74,-318.16 2102.21,-316.99 2103.77,-323.81"/>
</g>
</g>
</svg>
