<?xml version="1.0" encoding="UTF-8" standalone="no"?>
<!DOCTYPE svg PUBLIC "-//W3C//DTD SVG 1.1//EN"
 "http://www.w3.org/Graphics/SVG/1.1/DTD/svg11.dtd">
<!-- Generated by graphviz version 2.46.1 (20210213.1702)
 -->
<!-- Title: G Pages: 1 -->
<svg width="619pt" height="404pt"
 viewBox="0.00 0.00 618.98 404.00" xmlns="http://www.w3.org/2000/svg" xmlns:xlink="http://www.w3.org/1999/xlink">
<g id="graph0" class="graph" transform="scale(1 1) rotate(0) translate(4 400)">
<title>G</title>
<polygon fill="white" stroke="transparent" points="-4,4 -4,-400 614.98,-400 614.98,4 -4,4"/>
<!-- RegisteredCurrencies -->
<g id="node1" class="node">
<title>RegisteredCurrencies</title>
<ellipse fill="none" stroke="black" cx="219" cy="-378" rx="86.38" ry="18"/>
<text text-anchor="middle" x="219" y="-374.3" font-family="Times,serif" font-size="14.00">RegisteredCurrencies</text>
</g>
<!-- Errors -->
<g id="node2" class="node">
<title>Errors</title>
<ellipse fill="none" stroke="black" cx="178" cy="-18" rx="32.49" ry="18"/>
<text text-anchor="middle" x="178" y="-14.3" font-family="Times,serif" font-size="14.00">Errors</text>
</g>
<!-- RegisteredCurrencies&#45;&gt;Errors -->
<g id="edge1" class="edge">
<title>RegisteredCurrencies&#45;&gt;Errors</title>
<path fill="none" stroke="black" d="M158.58,-365.03C93.75,-348.27 0,-310.9 0,-235 0,-235 0,-235 0,-161 0,-89.88 87.91,-48.59 140.17,-30.33"/>
<polygon fill="black" stroke="black" points="141.44,-33.59 149.8,-27.08 139.2,-26.96 141.44,-33.59"/>
</g>
<!-- DiemTimestamp -->
<g id="node3" class="node">
<title>DiemTimestamp</title>
<ellipse fill="none" stroke="black" cx="137" cy="-162" rx="71.49" ry="18"/>
<text text-anchor="middle" x="137" y="-158.3" font-family="Times,serif" font-size="14.00">DiemTimestamp</text>
</g>
<!-- RegisteredCurrencies&#45;&gt;DiemTimestamp -->
<g id="edge2" class="edge">
<title>RegisteredCurrencies&#45;&gt;DiemTimestamp</title>
<path fill="none" stroke="black" d="M212.43,-359.85C198.15,-322.58 164.21,-234 147.15,-189.49"/>
<polygon fill="black" stroke="black" points="150.34,-188.02 143.49,-179.94 143.8,-190.53 150.34,-188.02"/>
</g>
<!-- Roles -->
<g id="node4" class="node">
<title>Roles</title>
<ellipse fill="none" stroke="black" cx="264" cy="-234" rx="30.59" ry="18"/>
<text text-anchor="middle" x="264" y="-230.3" font-family="Times,serif" font-size="14.00">Roles</text>
</g>
<!-- RegisteredCurrencies&#45;&gt;Roles -->
<g id="edge3" class="edge">
<title>RegisteredCurrencies&#45;&gt;Roles</title>
<path fill="none" stroke="black" d="M221.37,-359.93C224.18,-341.76 229.58,-312.34 238,-288 241.21,-278.71 245.67,-268.94 249.99,-260.36"/>
<polygon fill="black" stroke="black" points="253.21,-261.75 254.72,-251.26 247,-258.51 253.21,-261.75"/>
</g>
<!-- Vector -->
<g id="node5" class="node">
<title>Vector</title>
<ellipse fill="none" stroke="black" cx="560" cy="-162" rx="33.6" ry="18"/>
<text text-anchor="middle" x="560" y="-158.3" font-family="Times,serif" font-size="14.00">Vector</text>
</g>
<!-- RegisteredCurrencies&#45;&gt;Vector -->
<g id="edge4" class="edge">
<title>RegisteredCurrencies&#45;&gt;Vector</title>
<path fill="none" stroke="black" d="M266.01,-362.79C295.37,-353.25 333.61,-339.6 366,-324 421.01,-297.51 436.48,-291.55 483,-252 505.81,-232.6 527.74,-206.25 542.32,-187.26"/>
<polygon fill="black" stroke="black" points="545.25,-189.19 548.48,-179.1 539.66,-184.97 545.25,-189.19"/>
</g>
<!-- DiemConfig -->
<g id="node6" class="node">
<title>DiemConfig</title>
<ellipse fill="none" stroke="black" cx="302" cy="-306" rx="54.69" ry="18"/>
<text text-anchor="middle" x="302" y="-302.3" font-family="Times,serif" font-size="14.00">DiemConfig</text>
</g>
<!-- RegisteredCurrencies&#45;&gt;DiemConfig -->
<g id="edge5" class="edge">
<title>RegisteredCurrencies&#45;&gt;DiemConfig</title>
<path fill="none" stroke="black" d="M238.67,-360.41C249.58,-351.21 263.29,-339.64 275.17,-329.63"/>
<polygon fill="black" stroke="black" points="277.65,-332.11 283.04,-322.99 273.14,-326.76 277.65,-332.11"/>
</g>
<!-- DiemTimestamp&#45;&gt;Errors -->
<g id="edge6" class="edge">
<title>DiemTimestamp&#45;&gt;Errors</title>
<path fill="none" stroke="black" d="M141.95,-143.87C148.96,-119.56 161.88,-74.82 170.2,-46.01"/>
<polygon fill="black" stroke="black" points="173.63,-46.77 173.04,-36.19 166.9,-44.83 173.63,-46.77"/>
</g>
<!-- CoreAddresses -->
<g id="node7" class="node">
<title>CoreAddresses</title>
<ellipse fill="none" stroke="black" cx="296" cy="-90" rx="63.89" ry="18"/>
<text text-anchor="middle" x="296" y="-86.3" font-family="Times,serif" font-size="14.00">CoreAddresses</text>
</g>
<!-- DiemTimestamp&#45;&gt;CoreAddresses -->
<g id="edge7" class="edge">
<title>DiemTimestamp&#45;&gt;CoreAddresses</title>
<path fill="none" stroke="black" d="M171.11,-145.98C195.33,-135.32 228,-120.94 253.85,-109.56"/>
<polygon fill="black" stroke="black" points="255.29,-112.75 263.04,-105.51 252.47,-106.34 255.29,-112.75"/>
</g>
<!-- Roles&#45;&gt;Errors -->
<g id="edge9" class="edge">
<title>Roles&#45;&gt;Errors</title>
<path fill="none" stroke="black" d="M257.25,-216.21C242.31,-179.02 206.32,-89.48 188.45,-44.99"/>
<polygon fill="black" stroke="black" points="191.69,-43.69 184.72,-35.71 185.2,-46.3 191.69,-43.69"/>
</g>
<!-- Roles&#45;&gt;DiemTimestamp -->
<g id="edge11" class="edge">
<title>Roles&#45;&gt;DiemTimestamp</title>
<path fill="none" stroke="black" d="M242.46,-221.13C223.8,-210.84 196.39,-195.73 174.19,-183.5"/>
<polygon fill="black" stroke="black" points="175.8,-180.39 165.35,-178.62 172.42,-186.52 175.8,-180.39"/>
</g>
<!-- Roles&#45;&gt;CoreAddresses -->
<g id="edge10" class="edge">
<title>Roles&#45;&gt;CoreAddresses</title>
<path fill="none" stroke="black" d="M267.86,-215.87C273.34,-191.56 283.42,-146.82 289.91,-118.01"/>
<polygon fill="black" stroke="black" points="293.34,-118.71 292.13,-108.19 286.51,-117.18 293.34,-118.71"/>
</g>
<!-- Signer -->
<g id="node8" class="node">
<title>Signer</title>
<ellipse fill="none" stroke="black" cx="462" cy="-18" rx="33.6" ry="18"/>
<text text-anchor="middle" x="462" y="-14.3" font-family="Times,serif" font-size="14.00">Signer</text>
</g>
<!-- Roles&#45;&gt;Signer -->
<g id="edge8" class="edge">
<title>Roles&#45;&gt;Signer</title>
<path fill="none" stroke="black" d="M277.92,-217.95C312.05,-181.06 400.05,-85.95 440.76,-41.96"/>
<polygon fill="black" stroke="black" points="443.34,-44.32 447.56,-34.61 438.2,-39.57 443.34,-44.32"/>
</g>
<!-- DiemConfig&#45;&gt;Errors -->
<g id="edge13" class="edge">
<title>DiemConfig&#45;&gt;Errors</title>
<path fill="none" stroke="black" d="M254.98,-296.77C196.26,-283.65 98.46,-251.73 57,-180 24.77,-124.23 101.58,-65.36 147.19,-36.72"/>
<polygon fill="black" stroke="black" points="149.16,-39.62 155.86,-31.41 145.5,-33.65 149.16,-39.62"/>
</g>
<!-- DiemConfig&#45;&gt;DiemTimestamp -->
<g id="edge15" class="edge">
<title>DiemConfig&#45;&gt;DiemTimestamp</title>
<path fill="none" stroke="black" d="M277.2,-289.95C261.41,-279.94 240.82,-266.08 224,-252 199.93,-231.86 175.17,-205.92 158.25,-187.25"/>
<polygon fill="black" stroke="black" points="160.78,-184.84 151.5,-179.73 155.57,-189.51 160.78,-184.84"/>
</g>
<!-- DiemConfig&#45;&gt;Roles -->
<g id="edge16" class="edge">
<title>DiemConfig&#45;&gt;Roles</title>
<path fill="none" stroke="black" d="M292.8,-288.05C288.25,-279.68 282.68,-269.4 277.64,-260.13"/>
<polygon fill="black" stroke="black" points="280.7,-258.43 272.85,-251.31 274.55,-261.77 280.7,-258.43"/>
</g>
<!-- DiemConfig&#45;&gt;CoreAddresses -->
<g id="edge14" class="edge">
<title>DiemConfig&#45;&gt;CoreAddresses</title>
<path fill="none" stroke="black" d="M302.81,-287.82C303.26,-277.45 303.77,-263.97 304,-252 304.3,-236 304.51,-231.99 304,-216 302.92,-182.34 300.22,-143.66 298.26,-118.35"/>
<polygon fill="black" stroke="black" points="301.74,-118.07 297.46,-108.37 294.77,-118.62 301.74,-118.07"/>
</g>
<!-- DiemConfig&#45;&gt;Signer -->
<g id="edge12" class="edge">
<title>DiemConfig&#45;&gt;Signer</title>
<path fill="none" stroke="black" d="M355.29,-301.64C427.59,-293.77 553.45,-267.52 603,-180 636.95,-120.04 547.71,-62.46 495.95,-35.28"/>
<polygon fill="black" stroke="black" points="497.26,-32.01 486.76,-30.56 494.06,-38.24 497.26,-32.01"/>
</g>
<!-- Event -->
<g id="node9" class="node">
<title>Event</title>
<ellipse fill="none" stroke="black" cx="443" cy="-234" rx="31.4" ry="18"/>
<text text-anchor="middle" x="443" y="-230.3" font-family="Times,serif" font-size="14.00">Event</text>
</g>
<!-- DiemConfig&#45;&gt;Event -->
<g id="edge17" class="edge">
<title>DiemConfig&#45;&gt;Event</title>
<path fill="none" stroke="black" d="M330.87,-290.67C354.2,-279.08 387.01,-262.8 411.11,-250.83"/>
<polygon fill="black" stroke="black" points="412.8,-253.9 420.2,-246.32 409.69,-247.63 412.8,-253.9"/>
</g>
<!-- CoreAddresses&#45;&gt;Errors -->
<g id="edge19" class="edge">
<title>CoreAddresses&#45;&gt;Errors</title>
<path fill="none" stroke="black" d="M269.81,-73.46C251.52,-62.62 227.07,-48.11 208,-36.79"/>
<polygon fill="black" stroke="black" points="209.77,-33.78 199.39,-31.69 206.2,-39.8 209.77,-33.78"/>
</g>
<!-- CoreAddresses&#45;&gt;Signer -->
<g id="edge18" class="edge">
<title>CoreAddresses&#45;&gt;Signer</title>
<path fill="none" stroke="black" d="M329.99,-74.67C358.16,-62.79 398.07,-45.96 426.62,-33.92"/>
<polygon fill="black" stroke="black" points="428.35,-36.99 436.2,-29.88 425.63,-30.54 428.35,-36.99"/>
</g>
<!-- Event&#45;&gt;Errors -->
<g id="edge21" class="edge">
<title>Event&#45;&gt;Errors</title>
<path fill="none" stroke="black" d="M430.5,-216.97C422.98,-206.79 413.62,-193.11 407,-180 384.07,-134.58 406.18,-106.74 369,-72 328.58,-34.23 263.62,-23 220.87,-19.87"/>
<polygon fill="black" stroke="black" points="220.97,-16.36 210.77,-19.25 220.54,-23.35 220.97,-16.36"/>
</g>
<!-- Event&#45;&gt;Vector -->
<g id="edge22" class="edge">
<title>Event&#45;&gt;Vector</title>
<path fill="none" stroke="black" d="M463.92,-220.49C482.24,-209.52 509.09,-193.46 529.75,-181.1"/>
<polygon fill="black" stroke="black" points="531.69,-184.02 538.47,-175.88 528.09,-178.01 531.69,-184.02"/>
</g>
<!-- Event&#45;&gt;Signer -->
<g id="edge20" class="edge">
<title>Event&#45;&gt;Signer</title>
<path fill="none" stroke="black" d="M457.12,-217.62C465.25,-207.69 474.68,-194.03 479,-180 493.09,-134.18 480.86,-77.96 471.13,-45.53"/>
<polygon fill="black" stroke="black" points="474.43,-44.37 468.09,-35.88 467.75,-46.47 474.43,-44.37"/>
</g>
<!-- BCS -->
<g id="node10" class="node">
<title>BCS</title>
<ellipse fill="none" stroke="black" cx="443" cy="-162" rx="27.1" ry="18"/>
<text text-anchor="middle" x="443" y="-158.3" font-family="Times,serif" font-size="14.00">BCS</text>
</g>
<!-- Event&#45;&gt;BCS -->
<g id="edge23" class="edge">
<title>Event&#45;&gt;BCS</title>
<path fill="none" stroke="black" d="M443,-215.7C443,-207.98 443,-198.71 443,-190.11"/>
<polygon fill="black" stroke="black" points="446.5,-190.1 443,-180.1 439.5,-190.1 446.5,-190.1"/>
</g>
</g>
</svg>
