<?xml version="1.0" encoding="UTF-8" standalone="no"?>
<!DOCTYPE svg PUBLIC "-//W3C//DTD SVG 1.1//EN"
 "http://www.w3.org/Graphics/SVG/1.1/DTD/svg11.dtd">
<!-- Generated by graphviz version 2.46.1 (20210213.1702)
 -->
<!-- Title: G Pages: 1 -->
<svg width="1145pt" height="528pt"
 viewBox="0.00 0.00 1145.00 528.00" xmlns="http://www.w3.org/2000/svg" xmlns:xlink="http://www.w3.org/1999/xlink">
<g id="graph0" class="graph" transform="scale(1 1) rotate(0) translate(4 524)">
<title>G</title>
<polygon fill="white" stroke="transparent" points="-4,4 -4,-524 1141,-524 1141,4 -4,4"/>
<g id="clust1" class="cluster">
<title>cluster_DiemTimestamp</title>
<polygon fill="none" stroke="black" points="505,-163 505,-321 643,-321 643,-163 505,-163"/>
<text text-anchor="middle" x="574" y="-305.8" font-family="Times,serif" font-size="14.00">DiemTimestamp</text>
</g>
<g id="clust2" class="cluster">
<title>cluster_Roles</title>
<polygon fill="none" stroke="black" points="651,-246 651,-321 809,-321 809,-246 651,-246"/>
<text text-anchor="middle" x="730" y="-305.8" font-family="Times,serif" font-size="14.00">Roles</text>
</g>
<g id="clust3" class="cluster">
<title>cluster_Vector</title>
<polygon fill="none" stroke="black" points="419,-401 419,-476 501,-476 501,-401 419,-401"/>
<text text-anchor="middle" x="460" y="-460.8" font-family="Times,serif" font-size="14.00">Vector</text>
</g>
<g id="clust4" class="cluster">
<title>cluster_DiemConfig</title>
<polygon fill="none" stroke="black" points="509,-329 509,-476 831,-476 831,-329 509,-329"/>
<text text-anchor="middle" x="670" y="-460.8" font-family="Times,serif" font-size="14.00">DiemConfig</text>
</g>
<g id="clust5" class="cluster">
<title>cluster_Errors</title>
<polygon fill="none" stroke="black" points="8,-8 8,-155 733,-155 733,-8 8,-8"/>
<text text-anchor="middle" x="370.5" y="-139.8" font-family="Times,serif" font-size="14.00">Errors</text>
</g>
<g id="clust6" class="cluster">
<title>cluster_Signer</title>
<polygon fill="none" stroke="black" points="979,-8 979,-155 1129,-155 1129,-8 979,-8"/>
<text text-anchor="middle" x="1054" y="-139.8" font-family="Times,serif" font-size="14.00">Signer</text>
</g>
<g id="clust7" class="cluster">
<title>cluster_CoreAddresses</title>
<polygon fill="none" stroke="black" points="741,-80 741,-238 971,-238 971,-80 741,-80"/>
<text text-anchor="middle" x="856" y="-222.8" font-family="Times,serif" font-size="14.00">CoreAddresses</text>
</g>
<!-- initialize -->
<g id="node1" class="node">
<title>initialize</title>
<ellipse fill="none" stroke="black" cx="429" cy="-502" rx="41.69" ry="18"/>
<text text-anchor="middle" x="429" y="-498.3" font-family="Times,serif" font-size="14.00">initialize</text>
</g>
<!-- DiemTimestamp::assert_genesis -->
<g id="node2" class="node">
<title>DiemTimestamp::assert_genesis</title>
<ellipse fill="none" stroke="black" cx="574" cy="-272" rx="61.19" ry="18"/>
<text text-anchor="middle" x="574" y="-268.3" font-family="Times,serif" font-size="14.00">assert_genesis</text>
</g>
<!-- initialize&#45;&gt;DiemTimestamp::assert_genesis -->
<g id="edge1" class="edge">
<title>initialize&#45;&gt;DiemTimestamp::assert_genesis</title>
<path fill="none" stroke="black" d="M398.86,-489.58C393.33,-486.08 388.27,-481.62 385,-476 352.14,-419.53 345.91,-381.35 385,-329 400.37,-308.41 462.73,-292.71 511.67,-283.24"/>
<polygon fill="black" stroke="black" points="512.4,-286.67 521.58,-281.38 511.1,-279.79 512.4,-286.67"/>
</g>
<!-- Roles::assert_diem_root -->
<g id="node3" class="node">
<title>Roles::assert_diem_root</title>
<ellipse fill="none" stroke="black" cx="730" cy="-272" rx="71.49" ry="18"/>
<text text-anchor="middle" x="730" y="-268.3" font-family="Times,serif" font-size="14.00">assert_diem_root</text>
</g>
<!-- initialize&#45;&gt;Roles::assert_diem_root -->
<g id="edge2" class="edge">
<title>initialize&#45;&gt;Roles::assert_diem_root</title>
<path fill="none" stroke="black" d="M418.27,-484.55C416.92,-481.8 415.75,-478.89 415,-476 406.58,-443.75 400.56,-431.04 415,-401 437.19,-354.83 457.16,-347.31 505,-329 534.52,-317.7 616.72,-330.05 647,-321 665.8,-315.38 684.88,-304.76 700,-294.94"/>
<polygon fill="black" stroke="black" points="702.06,-297.77 708.41,-289.29 698.16,-291.96 702.06,-297.77"/>
</g>
<!-- Vector::empty -->
<g id="node4" class="node">
<title>Vector::empty</title>
<ellipse fill="none" stroke="black" cx="460" cy="-427" rx="33.29" ry="18"/>
<text text-anchor="middle" x="460" y="-423.3" font-family="Times,serif" font-size="14.00">empty</text>
</g>
<!-- initialize&#45;&gt;Vector::empty -->
<g id="edge3" class="edge">
<title>initialize&#45;&gt;Vector::empty</title>
<path fill="none" stroke="black" d="M436.19,-484.07C439.95,-475.22 444.63,-464.2 448.84,-454.28"/>
<polygon fill="black" stroke="black" points="452.16,-455.41 452.85,-444.84 445.72,-452.68 452.16,-455.41"/>
</g>
<!-- DiemConfig::publish_new_config -->
<g id="node5" class="node">
<title>DiemConfig::publish_new_config</title>
<ellipse fill="none" stroke="black" cx="634" cy="-427" rx="81.79" ry="18"/>
<text text-anchor="middle" x="634" y="-423.3" font-family="Times,serif" font-size="14.00">publish_new_config</text>
</g>
<!-- initialize&#45;&gt;DiemConfig::publish_new_config -->
<g id="edge4" class="edge">
<title>initialize&#45;&gt;DiemConfig::publish_new_config</title>
<path fill="none" stroke="black" d="M461.64,-490.57C475.1,-486.18 490.84,-480.96 505,-476 531.76,-466.62 561.42,-455.63 585.55,-446.53"/>
<polygon fill="black" stroke="black" points="587.07,-449.7 595.19,-442.88 584.6,-443.15 587.07,-449.7"/>
</g>
<!-- Errors::invalid_state -->
<g id="node6" class="node">
<title>Errors::invalid_state</title>
<ellipse fill="none" stroke="black" cx="240" cy="-106" rx="55.79" ry="18"/>
<text text-anchor="middle" x="240" y="-102.3" font-family="Times,serif" font-size="14.00">invalid_state</text>
</g>
<!-- DiemTimestamp::assert_genesis&#45;&gt;Errors::invalid_state -->
<g id="edge5" class="edge">
<title>DiemTimestamp::assert_genesis&#45;&gt;Errors::invalid_state</title>
<path fill="none" stroke="black" d="M550.81,-255.33C544.27,-250.27 537.46,-244.31 532,-238 506.88,-208.93 521.82,-182.98 489,-163 471.52,-152.36 324.29,-161.82 305,-155 289.99,-149.7 275.52,-139.66 264.06,-130.14"/>
<polygon fill="black" stroke="black" points="266.12,-127.29 256.28,-123.37 261.52,-132.57 266.12,-127.29"/>
</g>
<!-- DiemTimestamp::is_genesis -->
<g id="node7" class="node">
<title>DiemTimestamp::is_genesis</title>
<ellipse fill="none" stroke="black" cx="588" cy="-189" rx="46.59" ry="18"/>
<text text-anchor="middle" x="588" y="-185.3" font-family="Times,serif" font-size="14.00">is_genesis</text>
</g>
<!-- DiemTimestamp::assert_genesis&#45;&gt;DiemTimestamp::is_genesis -->
<g id="edge6" class="edge">
<title>DiemTimestamp::assert_genesis&#45;&gt;DiemTimestamp::is_genesis</title>
<path fill="none" stroke="black" d="M576.97,-253.82C578.81,-243.19 581.21,-229.31 583.3,-217.2"/>
<polygon fill="black" stroke="black" points="586.78,-217.6 585.04,-207.15 579.88,-216.41 586.78,-217.6"/>
</g>
<!-- Signer::address_of -->
<g id="node8" class="node">
<title>Signer::address_of</title>
<ellipse fill="none" stroke="black" cx="1036" cy="-106" rx="48.99" ry="18"/>
<text text-anchor="middle" x="1036" y="-102.3" font-family="Times,serif" font-size="14.00">address_of</text>
</g>
<!-- Roles::assert_diem_root&#45;&gt;Signer::address_of -->
<g id="edge7" class="edge">
<title>Roles::assert_diem_root&#45;&gt;Signer::address_of</title>
<path fill="none" stroke="black" d="M800.6,-268.91C862.96,-265.76 948.04,-257.84 975,-238 984.05,-231.34 1010.31,-169.84 1025.26,-133.52"/>
<polygon fill="black" stroke="black" points="1028.6,-134.59 1029.15,-124.01 1022.12,-131.94 1028.6,-134.59"/>
</g>
<!-- Errors::not_published -->
<g id="node9" class="node">
<title>Errors::not_published</title>
<ellipse fill="none" stroke="black" cx="507" cy="-106" rx="60.39" ry="18"/>
<text text-anchor="middle" x="507" y="-102.3" font-family="Times,serif" font-size="14.00">not_published</text>
</g>
<!-- Roles::assert_diem_root&#45;&gt;Errors::not_published -->
<g id="edge8" class="edge">
<title>Roles::assert_diem_root&#45;&gt;Errors::not_published</title>
<path fill="none" stroke="black" d="M729.3,-253.81C727.28,-229.23 719.63,-184.63 691,-163 670.56,-147.56 600.16,-163.51 576,-155 560.34,-149.49 544.98,-139.4 532.74,-129.88"/>
<polygon fill="black" stroke="black" points="534.77,-127.03 524.79,-123.45 530.36,-132.47 534.77,-127.03"/>
</g>
<!-- Errors::requires_role -->
<g id="node10" class="node">
<title>Errors::requires_role</title>
<ellipse fill="none" stroke="black" cx="371" cy="-106" rx="57.39" ry="18"/>
<text text-anchor="middle" x="371" y="-102.3" font-family="Times,serif" font-size="14.00">requires_role</text>
</g>
<!-- Roles::assert_diem_root&#45;&gt;Errors::requires_role -->
<g id="edge9" class="edge">
<title>Roles::assert_diem_root&#45;&gt;Errors::requires_role</title>
<path fill="none" stroke="black" d="M708.15,-254.73C702.2,-249.74 696.03,-243.97 691,-238 666.12,-208.43 680.16,-182.84 647,-163 627.06,-151.07 459.99,-162.53 438,-155 422.49,-149.69 407.45,-139.52 395.55,-129.9"/>
<polygon fill="black" stroke="black" points="397.76,-127.18 387.86,-123.4 393.24,-132.53 397.76,-127.18"/>
</g>
<!-- CoreAddresses::assert_diem_root -->
<g id="node11" class="node">
<title>CoreAddresses::assert_diem_root</title>
<ellipse fill="none" stroke="black" cx="838" cy="-189" rx="71.49" ry="18"/>
<text text-anchor="middle" x="838" y="-185.3" font-family="Times,serif" font-size="14.00">assert_diem_root</text>
</g>
<!-- Roles::assert_diem_root&#45;&gt;CoreAddresses::assert_diem_root -->
<g id="edge10" class="edge">
<title>Roles::assert_diem_root&#45;&gt;CoreAddresses::assert_diem_root</title>
<path fill="none" stroke="black" d="M751.6,-254.8C767.78,-242.66 790.14,-225.9 808.05,-212.46"/>
<polygon fill="black" stroke="black" points="810.54,-214.97 816.44,-206.17 806.34,-209.37 810.54,-214.97"/>
</g>
<!-- DiemConfig::publish_new_config&#45;&gt;Signer::address_of -->
<g id="edge11" class="edge">
<title>DiemConfig::publish_new_config&#45;&gt;Signer::address_of</title>
<path fill="none" stroke="black" d="M698.94,-415.91C767.25,-402.86 875.52,-375.08 954,-321 996.19,-291.93 1014.47,-285.37 1034,-238 1047.86,-204.4 1045.19,-161.71 1041.24,-134.36"/>
<polygon fill="black" stroke="black" points="1044.67,-133.66 1039.63,-124.34 1037.76,-134.77 1044.67,-133.66"/>
</g>
<!-- Errors::already_published -->
<g id="node12" class="node">
<title>Errors::already_published</title>
<ellipse fill="none" stroke="black" cx="91" cy="-106" rx="75.29" ry="18"/>
<text text-anchor="middle" x="91" y="-102.3" font-family="Times,serif" font-size="14.00">already_published</text>
</g>
<!-- DiemConfig::publish_new_config&#45;&gt;Errors::already_published -->
<g id="edge12" class="edge">
<title>DiemConfig::publish_new_config&#45;&gt;Errors::already_published</title>
<path fill="none" stroke="black" d="M594.05,-411.2C568.87,-401.39 535.95,-387.66 508,-373 357.34,-293.99 190.14,-177.97 122.22,-129.54"/>
<polygon fill="black" stroke="black" points="123.85,-126.4 113.68,-123.43 119.78,-132.1 123.85,-126.4"/>
</g>
<!-- DiemConfig::publish_new_config_and_get_capability -->
<g id="node13" class="node">
<title>DiemConfig::publish_new_config_and_get_capability</title>
<ellipse fill="none" stroke="black" cx="670" cy="-355" rx="153.27" ry="18"/>
<text text-anchor="middle" x="670" y="-351.3" font-family="Times,serif" font-size="14.00">publish_new_config_and_get_capability</text>
</g>
<!-- DiemConfig::publish_new_config&#45;&gt;DiemConfig::publish_new_config_and_get_capability -->
<g id="edge13" class="edge">
<title>DiemConfig::publish_new_config&#45;&gt;DiemConfig::publish_new_config_and_get_capability</title>
<path fill="none" stroke="black" d="M642.71,-409.05C646.85,-401.01 651.89,-391.2 656.51,-382.23"/>
<polygon fill="black" stroke="black" points="659.65,-383.77 661.12,-373.28 653.43,-380.57 659.65,-383.77"/>
</g>
<!-- Errors::make -->
<g id="node14" class="node">
<title>Errors::make</title>
<ellipse fill="none" stroke="black" cx="371" cy="-34" rx="30.59" ry="18"/>
<text text-anchor="middle" x="371" y="-30.3" font-family="Times,serif" font-size="14.00">make</text>
</g>
<!-- Errors::invalid_state&#45;&gt;Errors::make -->
<g id="edge14" class="edge">
<title>Errors::invalid_state&#45;&gt;Errors::make</title>
<path fill="none" stroke="black" d="M267.78,-90.15C288.94,-78.85 318.07,-63.28 339.99,-51.57"/>
<polygon fill="black" stroke="black" points="341.73,-54.61 348.9,-46.81 338.43,-48.44 341.73,-54.61"/>
</g>
<!-- CoreAddresses::DIEM_ROOT_ADDRESS -->
<g id="node15" class="node">
<title>CoreAddresses::DIEM_ROOT_ADDRESS</title>
<ellipse fill="none" stroke="black" cx="856" cy="-106" rx="106.68" ry="18"/>
<text text-anchor="middle" x="856" y="-102.3" font-family="Times,serif" font-size="14.00">DIEM_ROOT_ADDRESS</text>
</g>
<!-- DiemTimestamp::is_genesis&#45;&gt;CoreAddresses::DIEM_ROOT_ADDRESS -->
<g id="edge15" class="edge">
<title>DiemTimestamp::is_genesis&#45;&gt;CoreAddresses::DIEM_ROOT_ADDRESS</title>
<path fill="none" stroke="black" d="M629.59,-180.7C659.74,-174.95 701.32,-166.06 737,-155 762.02,-147.24 789.17,-136.48 811.2,-127.12"/>
<polygon fill="black" stroke="black" points="812.82,-130.23 820.63,-123.06 810.06,-123.8 812.82,-130.23"/>
</g>
<!-- Signer::borrow_address -->
<g id="node16" class="node">
<title>Signer::borrow_address</title>
<ellipse fill="none" stroke="black" cx="1054" cy="-34" rx="66.89" ry="18"/>
<text text-anchor="middle" x="1054" y="-30.3" font-family="Times,serif" font-size="14.00">borrow_address</text>
</g>
<!-- Signer::address_of&#45;&gt;Signer::borrow_address -->
<g id="edge16" class="edge">
<title>Signer::address_of&#45;&gt;Signer::borrow_address</title>
<path fill="none" stroke="black" d="M1040.36,-88.05C1042.36,-80.26 1044.79,-70.82 1047.04,-62.08"/>
<polygon fill="black" stroke="black" points="1050.46,-62.83 1049.56,-52.28 1043.68,-61.09 1050.46,-62.83"/>
</g>
<!-- Errors::not_published&#45;&gt;Errors::make -->
<g id="edge17" class="edge">
<title>Errors::not_published&#45;&gt;Errors::make</title>
<path fill="none" stroke="black" d="M478.16,-90.15C455.95,-78.73 425.3,-62.95 402.47,-51.2"/>
<polygon fill="black" stroke="black" points="404.01,-48.05 393.51,-46.59 400.8,-54.28 404.01,-48.05"/>
</g>
<!-- Errors::requires_role&#45;&gt;Errors::make -->
<g id="edge18" class="edge">
<title>Errors::requires_role&#45;&gt;Errors::make</title>
<path fill="none" stroke="black" d="M371,-87.7C371,-79.98 371,-70.71 371,-62.11"/>
<polygon fill="black" stroke="black" points="374.5,-62.1 371,-52.1 367.5,-62.1 374.5,-62.1"/>
</g>
<!-- CoreAddresses::assert_diem_root&#45;&gt;Signer::address_of -->
<g id="edge19" class="edge">
<title>CoreAddresses::assert_diem_root&#45;&gt;Signer::address_of</title>
<path fill="none" stroke="black" d="M898.25,-179.29C922.87,-174.27 951.12,-166.58 975,-155 988.33,-148.53 1001.47,-138.77 1012.11,-129.73"/>
<polygon fill="black" stroke="black" points="1014.54,-132.26 1019.73,-123.02 1009.91,-127 1014.54,-132.26"/>
</g>
<!-- CoreAddresses::assert_diem_root&#45;&gt;CoreAddresses::DIEM_ROOT_ADDRESS -->
<g id="edge21" class="edge">
<title>CoreAddresses::assert_diem_root&#45;&gt;CoreAddresses::DIEM_ROOT_ADDRESS</title>
<path fill="none" stroke="black" d="M841.82,-170.82C844.18,-160.19 847.27,-146.31 849.95,-134.2"/>
<polygon fill="black" stroke="black" points="853.44,-134.67 852.19,-124.15 846.6,-133.16 853.44,-134.67"/>
</g>
<!-- Errors::requires_address -->
<g id="node17" class="node">
<title>Errors::requires_address</title>
<ellipse fill="none" stroke="black" cx="655" cy="-106" rx="69.59" ry="18"/>
<text text-anchor="middle" x="655" y="-102.3" font-family="Times,serif" font-size="14.00">requires_address</text>
</g>
<!-- CoreAddresses::assert_diem_root&#45;&gt;Errors::requires_address -->
<g id="edge20" class="edge">
<title>CoreAddresses::assert_diem_root&#45;&gt;Errors::requires_address</title>
<path fill="none" stroke="black" d="M791.71,-175.16C774.25,-169.73 754.41,-162.83 737,-155 720.18,-147.43 702.41,-137.32 687.73,-128.33"/>
<polygon fill="black" stroke="black" points="689.37,-125.23 679.03,-122.91 685.67,-131.17 689.37,-125.23"/>
</g>
<!-- Errors::already_published&#45;&gt;Errors::make -->
<g id="edge22" class="edge">
<title>Errors::already_published&#45;&gt;Errors::make</title>
<path fill="none" stroke="black" d="M135.32,-91.24C148.08,-87.43 162.05,-83.41 175,-80 229.39,-65.68 292.95,-51.56 332.59,-43.06"/>
<polygon fill="black" stroke="black" points="333.57,-46.43 342.62,-40.92 332.11,-39.59 333.57,-46.43"/>
</g>
<!-- DiemConfig::publish_new_config_and_get_capability&#45;&gt;DiemTimestamp::assert_genesis -->
<g id="edge25" class="edge">
<title>DiemConfig::publish_new_config_and_get_capability&#45;&gt;DiemTimestamp::assert_genesis</title>
<path fill="none" stroke="black" d="M649.64,-336.82C635.49,-324.88 616.47,-308.83 601.04,-295.82"/>
<polygon fill="black" stroke="black" points="603.25,-293.1 593.35,-289.32 598.73,-298.45 603.25,-293.1"/>
</g>
<!-- DiemConfig::publish_new_config_and_get_capability&#45;&gt;Roles::assert_diem_root -->
<g id="edge26" class="edge">
<title>DiemConfig::publish_new_config_and_get_capability&#45;&gt;Roles::assert_diem_root</title>
<path fill="none" stroke="black" d="M682.72,-336.82C691.05,-325.58 702.08,-310.7 711.38,-298.13"/>
<polygon fill="black" stroke="black" points="714.36,-299.99 717.5,-289.88 708.73,-295.83 714.36,-299.99"/>
</g>
<!-- DiemConfig::publish_new_config_and_get_capability&#45;&gt;Signer::address_of -->
<g id="edge23" class="edge">
<title>DiemConfig::publish_new_config_and_get_capability&#45;&gt;Signer::address_of</title>
<path fill="none" stroke="black" d="M789.78,-343.71C863.56,-330.84 953.88,-302.07 1007,-238 1031.26,-208.74 1036.37,-163.57 1036.89,-134.65"/>
<polygon fill="black" stroke="black" points="1040.39,-134.43 1036.9,-124.43 1033.39,-134.43 1040.39,-134.43"/>
</g>
<!-- DiemConfig::publish_new_config_and_get_capability&#45;&gt;Errors::already_published -->
<g id="edge24" class="edge">
<title>DiemConfig::publish_new_config_and_get_capability&#45;&gt;Errors::already_published</title>
<path fill="none" stroke="black" d="M563.42,-342C535.97,-336.99 511.26,-330.16 501,-321 446.04,-271.96 509.78,-207.38 451,-163 438.76,-153.76 189.77,-159.15 175,-155 155.94,-149.64 136.63,-139.04 121.33,-129.16"/>
<polygon fill="black" stroke="black" points="123.08,-126.12 112.82,-123.48 119.19,-131.94 123.08,-126.12"/>
</g>
<!-- Errors::requires_address&#45;&gt;Errors::make -->
<g id="edge27" class="edge">
<title>Errors::requires_address&#45;&gt;Errors::make</title>
<path fill="none" stroke="black" d="M614.2,-91.32C601.98,-87.43 588.51,-83.34 576,-80 518.56,-64.64 451.06,-50.58 409.66,-42.4"/>
<polygon fill="black" stroke="black" points="410.2,-38.94 399.72,-40.45 408.86,-45.81 410.2,-38.94"/>
</g>
</g>
</svg>
