<?xml version="1.0" encoding="UTF-8" standalone="no"?>
<!DOCTYPE svg PUBLIC "-//W3C//DTD SVG 1.1//EN"
 "http://www.w3.org/Graphics/SVG/1.1/DTD/svg11.dtd">
<!-- Generated by graphviz version 2.46.1 (20210213.1702)
 -->
<!-- Title: G Pages: 1 -->
<svg width="1615pt" height="531pt"
 viewBox="0.00 0.00 1615.00 531.00" xmlns="http://www.w3.org/2000/svg" xmlns:xlink="http://www.w3.org/1999/xlink">
<g id="graph0" class="graph" transform="scale(1 1) rotate(0) translate(4 527)">
<title>G</title>
<polygon fill="white" stroke="transparent" points="-4,4 -4,-527 1611,-527 1611,4 -4,4"/>
<g id="clust1" class="cluster">
<title>cluster_Errors</title>
<polygon fill="none" stroke="black" points="8,-8 8,-166 613,-166 613,-8 8,-8"/>
<text text-anchor="middle" x="310.5" y="-150.8" font-family="Times,serif" font-size="14.00">Errors</text>
</g>
<g id="clust2" class="cluster">
<title>cluster_Vector</title>
<polygon fill="none" stroke="black" points="1389,-329 1389,-479 1599,-479 1599,-329 1389,-329"/>
<text text-anchor="middle" x="1494" y="-463.8" font-family="Times,serif" font-size="14.00">Vector</text>
</g>
<g id="clust3" class="cluster">
<title>cluster_DiemConfig</title>
<polygon fill="none" stroke="black" points="915,-246 915,-479 1123,-479 1123,-246 915,-246"/>
<text text-anchor="middle" x="1019" y="-463.8" font-family="Times,serif" font-size="14.00">DiemConfig</text>
</g>
<g id="clust4" class="cluster">
<title>cluster_Signer</title>
<polygon fill="none" stroke="black" points="1201,-246 1201,-404 1351,-404 1351,-246 1201,-246"/>
<text text-anchor="middle" x="1276" y="-388.8" font-family="Times,serif" font-size="14.00">Signer</text>
</g>
<g id="clust5" class="cluster">
<title>cluster_CoreAddresses</title>
<polygon fill="none" stroke="black" points="904,-8 904,-83 1134,-83 1134,-8 904,-8"/>
<text text-anchor="middle" x="1019" y="-67.8" font-family="Times,serif" font-size="14.00">CoreAddresses</text>
</g>
<g id="clust6" class="cluster">
<title>cluster_DiemTimestamp</title>
<polygon fill="none" stroke="black" points="621,-91 621,-321 907,-321 907,-91 621,-91"/>
<text text-anchor="middle" x="764" y="-305.8" font-family="Times,serif" font-size="14.00">DiemTimestamp</text>
</g>
<g id="clust7" class="cluster">
<title>cluster_Event</title>
<polygon fill="none" stroke="black" points="395,-174 395,-321 581,-321 581,-174 395,-174"/>
<text text-anchor="middle" x="488" y="-305.8" font-family="Times,serif" font-size="14.00">Event</text>
</g>
<!-- add_currency_code -->
<g id="node1" class="node">
<title>add_currency_code</title>
<ellipse fill="none" stroke="black" cx="1078" cy="-505" rx="79.09" ry="18"/>
<text text-anchor="middle" x="1078" y="-501.3" font-family="Times,serif" font-size="14.00">add_currency_code</text>
</g>
<!-- Errors::invalid_argument -->
<g id="node2" class="node">
<title>Errors::invalid_argument</title>
<ellipse fill="none" stroke="black" cx="89" cy="-117" rx="73.39" ry="18"/>
<text text-anchor="middle" x="89" y="-113.3" font-family="Times,serif" font-size="14.00">invalid_argument</text>
</g>
<!-- add_currency_code&#45;&gt;Errors::invalid_argument -->
<g id="edge1" class="edge">
<title>add_currency_code&#45;&gt;Errors::invalid_argument</title>
<path fill="none" stroke="black" d="M1001.76,-499.77C780.86,-486.5 156,-441.42 156,-356 156,-356 156,-356 156,-271 156,-222.65 127.57,-172.37 107.75,-143.19"/>
<polygon fill="black" stroke="black" points="110.51,-141.03 101.92,-134.84 104.78,-145.04 110.51,-141.03"/>
</g>
<!-- Vector::contains -->
<g id="node3" class="node">
<title>Vector::contains</title>
<ellipse fill="none" stroke="black" cx="1437" cy="-430" rx="40.09" ry="18"/>
<text text-anchor="middle" x="1437" y="-426.3" font-family="Times,serif" font-size="14.00">contains</text>
</g>
<!-- add_currency_code&#45;&gt;Vector::contains -->
<g id="edge2" class="edge">
<title>add_currency_code&#45;&gt;Vector::contains</title>
<path fill="none" stroke="black" d="M1134.88,-492.43C1205.82,-478.01 1325.71,-453.63 1391.1,-440.33"/>
<polygon fill="black" stroke="black" points="1392.01,-443.72 1401.11,-438.3 1390.61,-436.86 1392.01,-443.72"/>
</g>
<!-- Vector::push_back -->
<g id="node4" class="node">
<title>Vector::push_back</title>
<ellipse fill="none" stroke="black" cx="1543" cy="-430" rx="48.19" ry="18"/>
<text text-anchor="middle" x="1543" y="-426.3" font-family="Times,serif" font-size="14.00">push_back</text>
</g>
<!-- add_currency_code&#45;&gt;Vector::push_back -->
<g id="edge3" class="edge">
<title>add_currency_code&#45;&gt;Vector::push_back</title>
<path fill="none" stroke="black" d="M1156.23,-501.85C1266.16,-498.42 1456.31,-490.88 1486,-479 1499.27,-473.69 1511.7,-464.03 1521.55,-454.75"/>
<polygon fill="black" stroke="black" points="1524.23,-457.02 1528.85,-447.49 1519.29,-452.06 1524.23,-457.02"/>
</g>
<!-- DiemConfig::set -->
<g id="node5" class="node">
<title>DiemConfig::set</title>
<ellipse fill="none" stroke="black" cx="987" cy="-430" rx="27" ry="18"/>
<text text-anchor="middle" x="987" y="-426.3" font-family="Times,serif" font-size="14.00">set</text>
</g>
<!-- add_currency_code&#45;&gt;DiemConfig::set -->
<g id="edge4" class="edge">
<title>add_currency_code&#45;&gt;DiemConfig::set</title>
<path fill="none" stroke="black" d="M1053.72,-487.69C1049.75,-484.86 1045.72,-481.9 1042,-479 1031.22,-470.6 1019.77,-460.76 1010.12,-452.18"/>
<polygon fill="black" stroke="black" points="1012.27,-449.41 1002.49,-445.34 1007.6,-454.62 1012.27,-449.41"/>
</g>
<!-- DiemConfig::get -->
<g id="node6" class="node">
<title>DiemConfig::get</title>
<ellipse fill="none" stroke="black" cx="1078" cy="-430" rx="27" ry="18"/>
<text text-anchor="middle" x="1078" y="-426.3" font-family="Times,serif" font-size="14.00">get</text>
</g>
<!-- add_currency_code&#45;&gt;DiemConfig::get -->
<g id="edge5" class="edge">
<title>add_currency_code&#45;&gt;DiemConfig::get</title>
<path fill="none" stroke="black" d="M1078,-486.7C1078,-478.25 1078,-467.87 1078,-458.37"/>
<polygon fill="black" stroke="black" points="1081.5,-458.18 1078,-448.18 1074.5,-458.18 1081.5,-458.18"/>
</g>
<!-- Errors::make -->
<g id="node7" class="node">
<title>Errors::make</title>
<ellipse fill="none" stroke="black" cx="319" cy="-34" rx="30.59" ry="18"/>
<text text-anchor="middle" x="319" y="-30.3" font-family="Times,serif" font-size="14.00">make</text>
</g>
<!-- Errors::invalid_argument&#45;&gt;Errors::make -->
<g id="edge6" class="edge">
<title>Errors::invalid_argument&#45;&gt;Errors::make</title>
<path fill="none" stroke="black" d="M129.06,-101.89C172.79,-86.49 242.12,-62.07 283.82,-47.39"/>
<polygon fill="black" stroke="black" points="285.02,-50.68 293.29,-44.05 282.7,-44.07 285.02,-50.68"/>
</g>
<!-- Vector::borrow -->
<g id="node8" class="node">
<title>Vector::borrow</title>
<ellipse fill="none" stroke="black" cx="1436" cy="-355" rx="36.29" ry="18"/>
<text text-anchor="middle" x="1436" y="-351.3" font-family="Times,serif" font-size="14.00">borrow</text>
</g>
<!-- Vector::contains&#45;&gt;Vector::borrow -->
<g id="edge7" class="edge">
<title>Vector::contains&#45;&gt;Vector::borrow</title>
<path fill="none" stroke="black" d="M1436.76,-411.7C1436.65,-403.25 1436.51,-392.87 1436.37,-383.37"/>
<polygon fill="black" stroke="black" points="1439.87,-383.13 1436.24,-373.18 1432.87,-383.22 1439.87,-383.13"/>
</g>
<!-- Vector::length -->
<g id="node9" class="node">
<title>Vector::length</title>
<ellipse fill="none" stroke="black" cx="1523" cy="-355" rx="32.49" ry="18"/>
<text text-anchor="middle" x="1523" y="-351.3" font-family="Times,serif" font-size="14.00">length</text>
</g>
<!-- Vector::contains&#45;&gt;Vector::length -->
<g id="edge8" class="edge">
<title>Vector::contains&#45;&gt;Vector::length</title>
<path fill="none" stroke="black" d="M1463.07,-416.1C1469.21,-412.55 1475.55,-408.44 1481,-404 1489.62,-396.97 1497.95,-388.06 1504.88,-379.83"/>
<polygon fill="black" stroke="black" points="1507.72,-381.89 1511.31,-371.92 1502.28,-377.47 1507.72,-381.89"/>
</g>
<!-- Signer::address_of -->
<g id="node10" class="node">
<title>Signer::address_of</title>
<ellipse fill="none" stroke="black" cx="1267" cy="-355" rx="48.99" ry="18"/>
<text text-anchor="middle" x="1267" y="-351.3" font-family="Times,serif" font-size="14.00">address_of</text>
</g>
<!-- DiemConfig::set&#45;&gt;Signer::address_of -->
<g id="edge9" class="edge">
<title>DiemConfig::set&#45;&gt;Signer::address_of</title>
<path fill="none" stroke="black" d="M1009.97,-420.51C1019.71,-417.27 1031.27,-413.91 1042,-412 1075.52,-406.04 1162.68,-414.71 1195,-404 1211.73,-398.45 1228.24,-387.91 1241.23,-378.12"/>
<polygon fill="black" stroke="black" points="1243.51,-380.78 1249.22,-371.85 1239.19,-375.27 1243.51,-380.78"/>
</g>
<!-- Errors::not_published -->
<g id="node11" class="node">
<title>Errors::not_published</title>
<ellipse fill="none" stroke="black" cx="241" cy="-117" rx="60.39" ry="18"/>
<text text-anchor="middle" x="241" y="-113.3" font-family="Times,serif" font-size="14.00">not_published</text>
</g>
<!-- DiemConfig::set&#45;&gt;Errors::not_published -->
<g id="edge10" class="edge">
<title>DiemConfig::set&#45;&gt;Errors::not_published</title>
<path fill="none" stroke="black" d="M959.82,-428.59C847.1,-426.79 421.15,-419.04 397,-404 301.4,-344.48 260.14,-204.54 246.53,-145.28"/>
<polygon fill="black" stroke="black" points="249.87,-144.2 244.3,-135.19 243.04,-145.71 249.87,-144.2"/>
</g>
<!-- Errors::requires_capability -->
<g id="node12" class="node">
<title>Errors::requires_capability</title>
<ellipse fill="none" stroke="black" cx="397" cy="-117" rx="77.99" ry="18"/>
<text text-anchor="middle" x="397" y="-113.3" font-family="Times,serif" font-size="14.00">requires_capability</text>
</g>
<!-- DiemConfig::set&#45;&gt;Errors::requires_capability -->
<g id="edge11" class="edge">
<title>DiemConfig::set&#45;&gt;Errors::requires_capability</title>
<path fill="none" stroke="black" d="M960.08,-428.48C853.77,-425.8 465.31,-409.99 391,-321 349.16,-270.89 370.98,-187.07 386.26,-144.52"/>
<polygon fill="black" stroke="black" points="389.55,-145.71 389.78,-135.12 383,-143.26 389.55,-145.71"/>
</g>
<!-- CoreAddresses::DIEM_ROOT_ADDRESS -->
<g id="node13" class="node">
<title>CoreAddresses::DIEM_ROOT_ADDRESS</title>
<ellipse fill="none" stroke="black" cx="1019" cy="-34" rx="106.68" ry="18"/>
<text text-anchor="middle" x="1019" y="-30.3" font-family="Times,serif" font-size="14.00">DIEM_ROOT_ADDRESS</text>
</g>
<!-- DiemConfig::set&#45;&gt;CoreAddresses::DIEM_ROOT_ADDRESS -->
<g id="edge12" class="edge">
<title>DiemConfig::set&#45;&gt;CoreAddresses::DIEM_ROOT_ADDRESS</title>
<path fill="none" stroke="black" d="M1011.57,-422.03C1063.77,-405.56 1181,-359.01 1181,-273 1181,-273 1181,-273 1181,-199 1181,-131.7 1111.1,-82.05 1063.13,-55.9"/>
<polygon fill="black" stroke="black" points="1064.63,-52.74 1054.15,-51.14 1061.35,-58.92 1064.63,-52.74"/>
</g>
<!-- DiemConfig::reconfigure_ -->
<g id="node14" class="node">
<title>DiemConfig::reconfigure_</title>
<ellipse fill="none" stroke="black" cx="978" cy="-355" rx="55.49" ry="18"/>
<text text-anchor="middle" x="978" y="-351.3" font-family="Times,serif" font-size="14.00">reconfigure_</text>
</g>
<!-- DiemConfig::set&#45;&gt;DiemConfig::reconfigure_ -->
<g id="edge13" class="edge">
<title>DiemConfig::set&#45;&gt;DiemConfig::reconfigure_</title>
<path fill="none" stroke="black" d="M984.87,-411.7C983.82,-403.25 982.55,-392.87 981.37,-383.37"/>
<polygon fill="black" stroke="black" points="984.81,-382.67 980.12,-373.18 977.87,-383.53 984.81,-382.67"/>
</g>
<!-- DiemConfig::get&#45;&gt;Errors::not_published -->
<g id="edge14" class="edge">
<title>DiemConfig::get&#45;&gt;Errors::not_published</title>
<path fill="none" stroke="black" d="M1054.74,-420.53C1045.05,-417.34 1033.61,-414 1023,-412 975.27,-402.99 962.25,-409.59 914,-404 680.21,-376.92 592.15,-443.19 391,-321 354.58,-298.88 286.94,-193.22 256.52,-143.71"/>
<polygon fill="black" stroke="black" points="259.32,-141.58 251.12,-134.88 253.35,-145.23 259.32,-141.58"/>
</g>
<!-- DiemConfig::get&#45;&gt;CoreAddresses::DIEM_ROOT_ADDRESS -->
<g id="edge15" class="edge">
<title>DiemConfig::get&#45;&gt;CoreAddresses::DIEM_ROOT_ADDRESS</title>
<path fill="none" stroke="black" d="M1104.97,-428.46C1171.11,-426.86 1337.27,-421.18 1355,-404 1397.12,-363.18 1371,-331.65 1371,-273 1371,-273 1371,-273 1371,-199 1371,-90.86 1232.8,-53.85 1129.59,-41.29"/>
<polygon fill="black" stroke="black" points="1129.73,-37.78 1119.4,-40.11 1128.93,-44.73 1129.73,-37.78"/>
</g>
<!-- Signer::borrow_address -->
<g id="node15" class="node">
<title>Signer::borrow_address</title>
<ellipse fill="none" stroke="black" cx="1276" cy="-272" rx="66.89" ry="18"/>
<text text-anchor="middle" x="1276" y="-268.3" font-family="Times,serif" font-size="14.00">borrow_address</text>
</g>
<!-- Signer::address_of&#45;&gt;Signer::borrow_address -->
<g id="edge16" class="edge">
<title>Signer::address_of&#45;&gt;Signer::borrow_address</title>
<path fill="none" stroke="black" d="M1268.91,-336.82C1270.09,-326.19 1271.63,-312.31 1272.98,-300.2"/>
<polygon fill="black" stroke="black" points="1276.47,-300.48 1274.09,-290.15 1269.51,-299.71 1276.47,-300.48"/>
</g>
<!-- Errors::not_published&#45;&gt;Errors::make -->
<g id="edge17" class="edge">
<title>Errors::not_published&#45;&gt;Errors::make</title>
<path fill="none" stroke="black" d="M256.78,-99.61C268.47,-87.47 284.52,-70.8 297.4,-57.43"/>
<polygon fill="black" stroke="black" points="300.14,-59.63 304.55,-50 295.1,-54.78 300.14,-59.63"/>
</g>
<!-- Errors::requires_capability&#45;&gt;Errors::make -->
<g id="edge18" class="edge">
<title>Errors::requires_capability&#45;&gt;Errors::make</title>
<path fill="none" stroke="black" d="M380.84,-99.22C369.2,-87.13 353.37,-70.69 340.64,-57.48"/>
<polygon fill="black" stroke="black" points="343.02,-54.9 333.56,-50.12 337.98,-59.75 343.02,-54.9"/>
</g>
<!-- DiemConfig::reconfigure_&#45;&gt;CoreAddresses::DIEM_ROOT_ADDRESS -->
<g id="edge20" class="edge">
<title>DiemConfig::reconfigure_&#45;&gt;CoreAddresses::DIEM_ROOT_ADDRESS</title>
<path fill="none" stroke="black" d="M1030.29,-349.02C1067.27,-344.29 1112.28,-335.67 1124,-321 1189.49,-239.06 1090.5,-112.43 1042.56,-59.54"/>
<polygon fill="black" stroke="black" points="1044.96,-56.97 1035.61,-51.99 1039.81,-61.71 1044.96,-56.97"/>
</g>
<!-- Errors::invalid_state -->
<g id="node16" class="node">
<title>Errors::invalid_state</title>
<ellipse fill="none" stroke="black" cx="549" cy="-117" rx="55.79" ry="18"/>
<text text-anchor="middle" x="549" y="-113.3" font-family="Times,serif" font-size="14.00">invalid_state</text>
</g>
<!-- DiemConfig::reconfigure_&#45;&gt;Errors::invalid_state -->
<g id="edge19" class="edge">
<title>DiemConfig::reconfigure_&#45;&gt;Errors::invalid_state</title>
<path fill="none" stroke="black" d="M923.23,-352.51C827.9,-349.41 639.43,-340.82 617,-321 566.9,-276.72 610.6,-235.77 585,-174 580.57,-163.32 574.11,-152.44 567.88,-143.14"/>
<polygon fill="black" stroke="black" points="570.63,-140.97 562.05,-134.77 564.89,-144.97 570.63,-140.97"/>
</g>
<!-- DiemTimestamp::is_genesis -->
<g id="node17" class="node">
<title>DiemTimestamp::is_genesis</title>
<ellipse fill="none" stroke="black" cx="852" cy="-272" rx="46.59" ry="18"/>
<text text-anchor="middle" x="852" y="-268.3" font-family="Times,serif" font-size="14.00">is_genesis</text>
</g>
<!-- DiemConfig::reconfigure_&#45;&gt;DiemTimestamp::is_genesis -->
<g id="edge21" class="edge">
<title>DiemConfig::reconfigure_&#45;&gt;DiemTimestamp::is_genesis</title>
<path fill="none" stroke="black" d="M946.18,-340.13C934.78,-334.7 922.02,-328.07 911,-321 899.25,-313.46 887.14,-303.96 876.97,-295.41"/>
<polygon fill="black" stroke="black" points="879.15,-292.66 869.28,-288.8 874.59,-297.97 879.15,-292.66"/>
</g>
<!-- DiemTimestamp::now_microseconds -->
<g id="node18" class="node">
<title>DiemTimestamp::now_microseconds</title>
<ellipse fill="none" stroke="black" cx="708" cy="-272" rx="79.09" ry="18"/>
<text text-anchor="middle" x="708" y="-268.3" font-family="Times,serif" font-size="14.00">now_microseconds</text>
</g>
<!-- DiemConfig::reconfigure_&#45;&gt;DiemTimestamp::now_microseconds -->
<g id="edge22" class="edge">
<title>DiemConfig::reconfigure_&#45;&gt;DiemTimestamp::now_microseconds</title>
<path fill="none" stroke="black" d="M925.87,-349.03C888.85,-344.43 838.39,-335.97 796,-321 777.21,-314.37 757.62,-304.06 741.7,-294.7"/>
<polygon fill="black" stroke="black" points="743.16,-291.49 732.79,-289.33 739.55,-297.49 743.16,-291.49"/>
</g>
<!-- Event::emit_event -->
<g id="node19" class="node">
<title>Event::emit_event</title>
<ellipse fill="none" stroke="black" cx="505" cy="-272" rx="50.09" ry="18"/>
<text text-anchor="middle" x="505" y="-268.3" font-family="Times,serif" font-size="14.00">emit_event</text>
</g>
<!-- DiemConfig::reconfigure_&#45;&gt;Event::emit_event -->
<g id="edge23" class="edge">
<title>DiemConfig::reconfigure_&#45;&gt;Event::emit_event</title>
<path fill="none" stroke="black" d="M923.18,-352.36C830.78,-349.1 648.13,-340.37 587,-321 568.2,-315.04 549.08,-304.18 534.04,-294.3"/>
<polygon fill="black" stroke="black" points="535.92,-291.35 525.68,-288.64 532,-297.14 535.92,-291.35"/>
</g>
<!-- DiemConfig::reconfiguration_enabled -->
<g id="node20" class="node">
<title>DiemConfig::reconfiguration_enabled</title>
<ellipse fill="none" stroke="black" cx="1019" cy="-272" rx="96.38" ry="18"/>
<text text-anchor="middle" x="1019" y="-268.3" font-family="Times,serif" font-size="14.00">reconfiguration_enabled</text>
</g>
<!-- DiemConfig::reconfigure_&#45;&gt;DiemConfig::reconfiguration_enabled -->
<g id="edge24" class="edge">
<title>DiemConfig::reconfigure_&#45;&gt;DiemConfig::reconfiguration_enabled</title>
<path fill="none" stroke="black" d="M986.7,-336.82C992.24,-325.87 999.53,-311.46 1005.78,-299.11"/>
<polygon fill="black" stroke="black" points="1008.92,-300.66 1010.32,-290.15 1002.68,-297.49 1008.92,-300.66"/>
</g>
<!-- Errors::invalid_state&#45;&gt;Errors::make -->
<g id="edge25" class="edge">
<title>Errors::invalid_state&#45;&gt;Errors::make</title>
<path fill="none" stroke="black" d="M515.02,-102.64C505.06,-98.8 494.12,-94.66 484,-91 439.79,-75 388.44,-57.79 354.92,-46.73"/>
<polygon fill="black" stroke="black" points="355.71,-43.31 345.12,-43.51 353.52,-49.96 355.71,-43.31"/>
</g>
<!-- DiemTimestamp::is_genesis&#45;&gt;CoreAddresses::DIEM_ROOT_ADDRESS -->
<g id="edge26" class="edge">
<title>DiemTimestamp::is_genesis&#45;&gt;CoreAddresses::DIEM_ROOT_ADDRESS</title>
<path fill="none" stroke="black" d="M863.74,-254.4C892.54,-213.71 966.8,-108.76 1001.12,-60.26"/>
<polygon fill="black" stroke="black" points="1004.13,-62.08 1007.05,-51.89 998.41,-58.03 1004.13,-62.08"/>
</g>
<!-- DiemTimestamp::now_microseconds&#45;&gt;CoreAddresses::DIEM_ROOT_ADDRESS -->
<g id="edge27" class="edge">
<title>DiemTimestamp::now_microseconds&#45;&gt;CoreAddresses::DIEM_ROOT_ADDRESS</title>
<path fill="none" stroke="black" d="M733.24,-254.89C748.58,-244.8 768.36,-231.23 785,-218 850.51,-165.93 856.7,-140.74 924,-91 941.18,-78.31 961.42,-66.04 978.8,-56.24"/>
<polygon fill="black" stroke="black" points="980.56,-59.27 987.6,-51.35 977.15,-53.15 980.56,-59.27"/>
</g>
<!-- DiemTimestamp::assert_operating -->
<g id="node21" class="node">
<title>DiemTimestamp::assert_operating</title>
<ellipse fill="none" stroke="black" cx="708" cy="-200" rx="68.49" ry="18"/>
<text text-anchor="middle" x="708" y="-196.3" font-family="Times,serif" font-size="14.00">assert_operating</text>
</g>
<!-- DiemTimestamp::now_microseconds&#45;&gt;DiemTimestamp::assert_operating -->
<g id="edge28" class="edge">
<title>DiemTimestamp::now_microseconds&#45;&gt;DiemTimestamp::assert_operating</title>
<path fill="none" stroke="black" d="M708,-253.7C708,-245.98 708,-236.71 708,-228.11"/>
<polygon fill="black" stroke="black" points="711.5,-228.1 708,-218.1 704.5,-228.1 711.5,-228.1"/>
</g>
<!-- Event::write_to_event_store -->
<g id="node22" class="node">
<title>Event::write_to_event_store</title>
<ellipse fill="none" stroke="black" cx="488" cy="-200" rx="85.29" ry="18"/>
<text text-anchor="middle" x="488" y="-196.3" font-family="Times,serif" font-size="14.00">write_to_event_store</text>
</g>
<!-- Event::emit_event&#45;&gt;Event::write_to_event_store -->
<g id="edge29" class="edge">
<title>Event::emit_event&#45;&gt;Event::write_to_event_store</title>
<path fill="none" stroke="black" d="M500.88,-254.05C498.99,-246.26 496.7,-236.82 494.58,-228.08"/>
<polygon fill="black" stroke="black" points="497.96,-227.17 492.2,-218.28 491.15,-228.82 497.96,-227.17"/>
</g>
<!-- DiemConfig::reconfiguration_enabled&#45;&gt;CoreAddresses::DIEM_ROOT_ADDRESS -->
<g id="edge30" class="edge">
<title>DiemConfig::reconfiguration_enabled&#45;&gt;CoreAddresses::DIEM_ROOT_ADDRESS</title>
<path fill="none" stroke="black" d="M1019,-253.65C1019,-212.97 1019,-111.23 1019,-62.23"/>
<polygon fill="black" stroke="black" points="1022.5,-62.06 1019,-52.06 1015.5,-62.06 1022.5,-62.06"/>
</g>
<!-- DiemTimestamp::assert_operating&#45;&gt;Errors::invalid_state -->
<g id="edge31" class="edge">
<title>DiemTimestamp::assert_operating&#45;&gt;Errors::invalid_state</title>
<path fill="none" stroke="black" d="M664.86,-186C649.38,-180.65 632.05,-173.86 617,-166 603.09,-158.73 588.74,-148.99 576.82,-140.18"/>
<polygon fill="black" stroke="black" points="578.71,-137.22 568.62,-133.98 574.49,-142.8 578.71,-137.22"/>
</g>
<!-- DiemTimestamp::is_operating -->
<g id="node23" class="node">
<title>DiemTimestamp::is_operating</title>
<ellipse fill="none" stroke="black" cx="750" cy="-117" rx="53.89" ry="18"/>
<text text-anchor="middle" x="750" y="-113.3" font-family="Times,serif" font-size="14.00">is_operating</text>
</g>
<!-- DiemTimestamp::assert_operating&#45;&gt;DiemTimestamp::is_operating -->
<g id="edge32" class="edge">
<title>DiemTimestamp::assert_operating&#45;&gt;DiemTimestamp::is_operating</title>
<path fill="none" stroke="black" d="M716.91,-181.82C722.63,-170.79 730.16,-156.27 736.59,-143.86"/>
<polygon fill="black" stroke="black" points="739.75,-145.36 741.25,-134.88 733.54,-142.14 739.75,-145.36"/>
</g>
<!-- DiemTimestamp::is_operating&#45;&gt;CoreAddresses::DIEM_ROOT_ADDRESS -->
<g id="edge33" class="edge">
<title>DiemTimestamp::is_operating&#45;&gt;CoreAddresses::DIEM_ROOT_ADDRESS</title>
<path fill="none" stroke="black" d="M788.54,-104.39C833.17,-90.96 907.21,-68.66 959.3,-52.98"/>
<polygon fill="black" stroke="black" points="960.52,-56.26 969.09,-50.03 958.5,-49.56 960.52,-56.26"/>
</g>
</g>
</svg>
