<?xml version="1.0" encoding="UTF-8" standalone="no"?>
<!DOCTYPE svg PUBLIC "-//W3C//DTD SVG 1.1//EN"
 "http://www.w3.org/Graphics/SVG/1.1/DTD/svg11.dtd">
<!-- Generated by graphviz version 2.46.1 (20210213.1702)
 -->
<!-- Title: G Pages: 1 -->
<svg width="1140pt" height="476pt"
 viewBox="0.00 0.00 1139.71 476.00" xmlns="http://www.w3.org/2000/svg" xmlns:xlink="http://www.w3.org/1999/xlink">
<g id="graph0" class="graph" transform="scale(1 1) rotate(0) translate(4 472)">
<title>G</title>
<polygon fill="white" stroke="transparent" points="-4,4 -4,-472 1135.71,-472 1135.71,4 -4,4"/>
<!-- RegisteredCurrencies -->
<g id="node1" class="node">
<title>RegisteredCurrencies</title>
<ellipse fill="none" stroke="black" cx="414.35" cy="-18" rx="86.38" ry="18"/>
<text text-anchor="middle" x="414.35" y="-14.3" font-family="Times,serif" font-size="14.00">RegisteredCurrencies</text>
</g>
<!-- Diem -->
<g id="node2" class="node">
<title>Diem</title>
<ellipse fill="none" stroke="black" cx="414.35" cy="-90" rx="30.59" ry="18"/>
<text text-anchor="middle" x="414.35" y="-86.3" font-family="Times,serif" font-size="14.00">Diem</text>
</g>
<!-- Diem&#45;&gt;RegisteredCurrencies -->
<g id="edge1" class="edge">
<title>Diem&#45;&gt;RegisteredCurrencies</title>
<path fill="none" stroke="black" d="M414.35,-71.7C414.35,-63.98 414.35,-54.71 414.35,-46.11"/>
<polygon fill="black" stroke="black" points="417.85,-46.1 414.35,-36.1 410.85,-46.1 417.85,-46.1"/>
</g>
<!-- XUS -->
<g id="node3" class="node">
<title>XUS</title>
<ellipse fill="none" stroke="black" cx="309.35" cy="-162" rx="28.7" ry="18"/>
<text text-anchor="middle" x="309.35" y="-158.3" font-family="Times,serif" font-size="14.00">XUS</text>
</g>
<!-- XUS&#45;&gt;Diem -->
<g id="edge2" class="edge">
<title>XUS&#45;&gt;Diem</title>
<path fill="none" stroke="black" d="M328.61,-148.16C344.78,-137.37 368.12,-121.82 386.36,-109.66"/>
<polygon fill="black" stroke="black" points="388.48,-112.45 394.85,-103.99 384.59,-106.63 388.48,-112.45"/>
</g>
<!-- XDX -->
<g id="node4" class="node">
<title>XDX</title>
<ellipse fill="none" stroke="black" cx="385.35" cy="-162" rx="29.8" ry="18"/>
<text text-anchor="middle" x="385.35" y="-158.3" font-family="Times,serif" font-size="14.00">XDX</text>
</g>
<!-- XDX&#45;&gt;Diem -->
<g id="edge3" class="edge">
<title>XDX&#45;&gt;Diem</title>
<path fill="none" stroke="black" d="M392.22,-144.41C395.56,-136.34 399.67,-126.43 403.43,-117.35"/>
<polygon fill="black" stroke="black" points="406.73,-118.53 407.32,-107.96 400.26,-115.86 406.73,-118.53"/>
</g>
<!-- TransactionFee -->
<g id="node5" class="node">
<title>TransactionFee</title>
<ellipse fill="none" stroke="black" cx="442.35" cy="-234" rx="64.99" ry="18"/>
<text text-anchor="middle" x="442.35" y="-230.3" font-family="Times,serif" font-size="14.00">TransactionFee</text>
</g>
<!-- TransactionFee&#45;&gt;Diem -->
<g id="edge4" class="edge">
<title>TransactionFee&#45;&gt;Diem</title>
<path fill="none" stroke="black" d="M438.97,-215.87C434.18,-191.56 425.35,-146.82 419.67,-118.01"/>
<polygon fill="black" stroke="black" points="423.1,-117.32 417.74,-108.19 416.24,-118.68 423.1,-117.32"/>
</g>
<!-- TransactionFee&#45;&gt;XUS -->
<g id="edge10" class="edge">
<title>TransactionFee&#45;&gt;XUS</title>
<path fill="none" stroke="black" d="M413.49,-217.81C391.69,-206.34 361.86,-190.64 339.71,-178.98"/>
<polygon fill="black" stroke="black" points="341.21,-175.82 330.73,-174.26 337.95,-182.01 341.21,-175.82"/>
</g>
<!-- TransactionFee&#45;&gt;XDX -->
<g id="edge14" class="edge">
<title>TransactionFee&#45;&gt;XDX</title>
<path fill="none" stroke="black" d="M428.55,-216.05C421.24,-207.08 412.15,-195.92 404.2,-186.15"/>
<polygon fill="black" stroke="black" points="406.88,-183.9 397.85,-178.36 401.45,-188.32 406.88,-183.9"/>
</g>
<!-- DualAttestation -->
<g id="node6" class="node">
<title>DualAttestation</title>
<ellipse fill="none" stroke="black" cx="629.35" cy="-234" rx="66.09" ry="18"/>
<text text-anchor="middle" x="629.35" y="-230.3" font-family="Times,serif" font-size="14.00">DualAttestation</text>
</g>
<!-- DualAttestation&#45;&gt;Diem -->
<g id="edge5" class="edge">
<title>DualAttestation&#45;&gt;Diem</title>
<path fill="none" stroke="black" d="M617.9,-216.08C603.82,-196.39 578.2,-164.01 549.35,-144 519.49,-123.3 480.41,-109.1 451.98,-100.64"/>
<polygon fill="black" stroke="black" points="452.6,-97.18 442.03,-97.79 450.67,-103.91 452.6,-97.18"/>
</g>
<!-- DualAttestation&#45;&gt;XDX -->
<g id="edge15" class="edge">
<title>DualAttestation&#45;&gt;XDX</title>
<path fill="none" stroke="black" d="M585.44,-220.4C538.6,-206.97 465.26,-185.93 421.58,-173.4"/>
<polygon fill="black" stroke="black" points="422.52,-170.02 411.95,-170.63 420.59,-176.75 422.52,-170.02"/>
</g>
<!-- DesignatedDealer -->
<g id="node7" class="node">
<title>DesignatedDealer</title>
<ellipse fill="none" stroke="black" cx="172.35" cy="-234" rx="73.39" ry="18"/>
<text text-anchor="middle" x="172.35" y="-230.3" font-family="Times,serif" font-size="14.00">DesignatedDealer</text>
</g>
<!-- DesignatedDealer&#45;&gt;Diem -->
<g id="edge6" class="edge">
<title>DesignatedDealer&#45;&gt;Diem</title>
<path fill="none" stroke="black" d="M187.29,-216.15C205.48,-196.52 237.92,-164.2 271.35,-144 304.73,-123.82 347.06,-109.31 376.98,-100.63"/>
<polygon fill="black" stroke="black" points="377.94,-104 386.61,-97.91 376.04,-97.26 377.94,-104"/>
</g>
<!-- DesignatedDealer&#45;&gt;XUS -->
<g id="edge11" class="edge">
<title>DesignatedDealer&#45;&gt;XUS</title>
<path fill="none" stroke="black" d="M202.75,-217.46C225.24,-205.98 255.75,-190.38 278.37,-178.82"/>
<polygon fill="black" stroke="black" points="280.23,-181.81 287.54,-174.14 277.04,-175.58 280.23,-181.81"/>
</g>
<!-- DiemAccount -->
<g id="node8" class="node">
<title>DiemAccount</title>
<ellipse fill="none" stroke="black" cx="437.35" cy="-306" rx="60.39" ry="18"/>
<text text-anchor="middle" x="437.35" y="-302.3" font-family="Times,serif" font-size="14.00">DiemAccount</text>
</g>
<!-- DiemAccount&#45;&gt;Diem -->
<g id="edge7" class="edge">
<title>DiemAccount&#45;&gt;Diem</title>
<path fill="none" stroke="black" d="M472.24,-291.04C488.78,-282.44 506.94,-269.63 516.35,-252 523.88,-237.88 521.72,-231.07 516.35,-216 501.08,-173.14 464.13,-134.35 439.15,-111.72"/>
<polygon fill="black" stroke="black" points="441.31,-108.96 431.5,-104.95 436.67,-114.2 441.31,-108.96"/>
</g>
<!-- DiemAccount&#45;&gt;XUS -->
<g id="edge12" class="edge">
<title>DiemAccount&#45;&gt;XUS</title>
<path fill="none" stroke="black" d="M408.98,-290.08C393.02,-280.68 373.52,-267.43 359.35,-252 342.2,-233.33 328.6,-207.73 319.94,-188.78"/>
<polygon fill="black" stroke="black" points="323.11,-187.28 315.87,-179.55 316.7,-190.11 323.11,-187.28"/>
</g>
<!-- DiemAccount&#45;&gt;XDX -->
<g id="edge16" class="edge">
<title>DiemAccount&#45;&gt;XDX</title>
<path fill="none" stroke="black" d="M407.12,-290.22C392.55,-281.34 376.49,-268.53 368.35,-252 358.5,-232.03 364.74,-206.93 372.29,-188.48"/>
<polygon fill="black" stroke="black" points="375.53,-189.81 376.4,-179.25 369.14,-186.96 375.53,-189.81"/>
</g>
<!-- DiemAccount&#45;&gt;TransactionFee -->
<g id="edge18" class="edge">
<title>DiemAccount&#45;&gt;TransactionFee</title>
<path fill="none" stroke="black" d="M438.58,-287.7C439.13,-279.98 439.8,-270.71 440.41,-262.11"/>
<polygon fill="black" stroke="black" points="443.9,-262.33 441.12,-252.1 436.92,-261.83 443.9,-262.33"/>
</g>
<!-- DiemAccount&#45;&gt;DualAttestation -->
<g id="edge21" class="edge">
<title>DiemAccount&#45;&gt;DualAttestation</title>
<path fill="none" stroke="black" d="M474.37,-291.5C505.01,-280.33 548.75,-264.38 581.95,-252.28"/>
<polygon fill="black" stroke="black" points="583.26,-255.53 591.46,-248.81 580.86,-248.95 583.26,-255.53"/>
</g>
<!-- DiemAccount&#45;&gt;DesignatedDealer -->
<g id="edge25" class="edge">
<title>DiemAccount&#45;&gt;DesignatedDealer</title>
<path fill="none" stroke="black" d="M393.59,-293.44C349.03,-281.67 279.68,-263.35 230.52,-250.37"/>
<polygon fill="black" stroke="black" points="231.23,-246.93 220.66,-247.76 229.44,-253.7 231.23,-246.93"/>
</g>
<!-- Genesis -->
<g id="node9" class="node">
<title>Genesis</title>
<ellipse fill="none" stroke="black" cx="38.35" cy="-378" rx="38.19" ry="18"/>
<text text-anchor="middle" x="38.35" y="-374.3" font-family="Times,serif" font-size="14.00">Genesis</text>
</g>
<!-- Genesis&#45;&gt;Diem -->
<g id="edge8" class="edge">
<title>Genesis&#45;&gt;Diem</title>
<path fill="none" stroke="black" d="M36.27,-359.65C33.42,-327.38 32.13,-257.63 67.35,-216 146.29,-122.7 300.4,-99.04 373.72,-93.04"/>
<polygon fill="black" stroke="black" points="374.22,-96.51 383.93,-92.28 373.69,-89.53 374.22,-96.51"/>
</g>
<!-- Genesis&#45;&gt;XUS -->
<g id="edge13" class="edge">
<title>Genesis&#45;&gt;XUS</title>
<path fill="none" stroke="black" d="M41.69,-359.85C49.29,-322.57 68.87,-235.93 90.35,-216 116.41,-191.82 215.89,-175.25 271.37,-167.68"/>
<polygon fill="black" stroke="black" points="272.07,-171.12 281.52,-166.33 271.15,-164.18 272.07,-171.12"/>
</g>
<!-- Genesis&#45;&gt;XDX -->
<g id="edge17" class="edge">
<title>Genesis&#45;&gt;XDX</title>
<path fill="none" stroke="black" d="M62.33,-363.86C102.55,-341.67 185.91,-294.97 254.35,-252 290.96,-229.01 332.01,-200.69 358.24,-182.26"/>
<polygon fill="black" stroke="black" points="360.38,-185.03 366.54,-176.41 356.35,-179.31 360.38,-185.03"/>
</g>
<!-- Genesis&#45;&gt;TransactionFee -->
<g id="edge19" class="edge">
<title>Genesis&#45;&gt;TransactionFee</title>
<path fill="none" stroke="black" d="M71.52,-368.8C83.43,-365.92 96.97,-362.73 109.35,-360 188.16,-342.6 213.7,-357.02 287.35,-324 311.68,-313.09 312.64,-301.98 335.35,-288 355.92,-275.34 379.94,-263.22 400,-253.77"/>
<polygon fill="black" stroke="black" points="401.61,-256.89 409.2,-249.5 398.66,-250.54 401.61,-256.89"/>
</g>
<!-- Genesis&#45;&gt;DualAttestation -->
<g id="edge23" class="edge">
<title>Genesis&#45;&gt;DualAttestation</title>
<path fill="none" stroke="black" d="M71.11,-368.65C83.1,-365.73 96.8,-362.54 109.35,-360 204.73,-340.66 236.93,-364.67 325.35,-324 347.99,-313.59 345.89,-298.81 368.35,-288 401.86,-271.87 496.34,-255.08 561.92,-244.83"/>
<polygon fill="black" stroke="black" points="562.83,-248.23 572.18,-243.24 561.76,-241.31 562.83,-248.23"/>
</g>
<!-- Genesis&#45;&gt;DiemAccount -->
<g id="edge30" class="edge">
<title>Genesis&#45;&gt;DiemAccount</title>
<path fill="none" stroke="black" d="M67.78,-366.33C75.08,-363.98 82.94,-361.68 90.35,-360 209.69,-332.87 242.91,-345.73 363.35,-324 369.48,-322.89 375.86,-321.62 382.21,-320.27"/>
<polygon fill="black" stroke="black" points="383.07,-323.67 392.09,-318.11 381.57,-316.83 383.07,-323.67"/>
</g>
<!-- TreasuryComplianceScripts -->
<g id="node10" class="node">
<title>TreasuryComplianceScripts</title>
<ellipse fill="none" stroke="black" cx="989.35" cy="-378" rx="109.38" ry="18"/>
<text text-anchor="middle" x="989.35" y="-374.3" font-family="Times,serif" font-size="14.00">TreasuryComplianceScripts</text>
</g>
<!-- TreasuryComplianceScripts&#45;&gt;Diem -->
<g id="edge9" class="edge">
<title>TreasuryComplianceScripts&#45;&gt;Diem</title>
<path fill="none" stroke="black" d="M964.62,-360.31C902.6,-319.03 734.49,-210.63 582.35,-144 538.87,-124.96 486.37,-109.53 451.76,-100.33"/>
<polygon fill="black" stroke="black" points="452.62,-96.93 442.06,-97.79 450.85,-103.71 452.62,-96.93"/>
</g>
<!-- TreasuryComplianceScripts&#45;&gt;TransactionFee -->
<g id="edge20" class="edge">
<title>TreasuryComplianceScripts&#45;&gt;TransactionFee</title>
<path fill="none" stroke="black" d="M923.37,-363.63C875.01,-353.54 807.85,-338.92 749.35,-324 658.68,-300.87 554.27,-269.6 493.55,-250.95"/>
<polygon fill="black" stroke="black" points="494.41,-247.55 483.82,-247.95 492.35,-254.24 494.41,-247.55"/>
</g>
<!-- TreasuryComplianceScripts&#45;&gt;DualAttestation -->
<g id="edge24" class="edge">
<title>TreasuryComplianceScripts&#45;&gt;DualAttestation</title>
<path fill="none" stroke="black" d="M944.75,-361.57C915.49,-351.29 876.48,-337.28 842.35,-324 782.97,-300.91 715.19,-272.17 672.35,-253.71"/>
<polygon fill="black" stroke="black" points="673.64,-250.45 663.07,-249.7 670.87,-256.88 673.64,-250.45"/>
</g>
<!-- TreasuryComplianceScripts&#45;&gt;DiemAccount -->
<g id="edge32" class="edge">
<title>TreasuryComplianceScripts&#45;&gt;DiemAccount</title>
<path fill="none" stroke="black" d="M910.67,-365.42C897.55,-363.56 884.07,-361.69 871.35,-360 740.66,-342.61 587.52,-324.42 502.56,-314.52"/>
<polygon fill="black" stroke="black" points="502.88,-311.03 492.55,-313.35 502.07,-317.99 502.88,-311.03"/>
</g>
<!-- AccountAdministrationScripts -->
<g id="node11" class="node">
<title>AccountAdministrationScripts</title>
<ellipse fill="none" stroke="black" cx="333.35" cy="-450" rx="118.08" ry="18"/>
<text text-anchor="middle" x="333.35" y="-446.3" font-family="Times,serif" font-size="14.00">AccountAdministrationScripts</text>
</g>
<!-- AccountAdministrationScripts&#45;&gt;DualAttestation -->
<g id="edge22" class="edge">
<title>AccountAdministrationScripts&#45;&gt;DualAttestation</title>
<path fill="none" stroke="black" d="M451.64,-449.57C657.41,-449.32 1063.62,-442.82 1107.35,-396 1226.72,-268.17 868.83,-241.8 705.76,-236.39"/>
<polygon fill="black" stroke="black" points="705.41,-232.88 695.3,-236.06 705.19,-239.87 705.41,-232.88"/>
</g>
<!-- AccountAdministrationScripts&#45;&gt;DiemAccount -->
<g id="edge28" class="edge">
<title>AccountAdministrationScripts&#45;&gt;DiemAccount</title>
<path fill="none" stroke="black" d="M237.73,-439.4C165.2,-428.36 84.14,-405.53 123.35,-360 158.54,-319.14 310.36,-334.04 363.35,-324 369.47,-322.84 375.85,-321.53 382.19,-320.16"/>
<polygon fill="black" stroke="black" points="383.06,-323.55 392.07,-317.98 381.55,-316.72 383.06,-323.55"/>
</g>
<!-- SharedEd25519PublicKey -->
<g id="node12" class="node">
<title>SharedEd25519PublicKey</title>
<ellipse fill="none" stroke="black" cx="236.35" cy="-378" rx="103.98" ry="18"/>
<text text-anchor="middle" x="236.35" y="-374.3" font-family="Times,serif" font-size="14.00">SharedEd25519PublicKey</text>
</g>
<!-- AccountAdministrationScripts&#45;&gt;SharedEd25519PublicKey -->
<g id="edge33" class="edge">
<title>AccountAdministrationScripts&#45;&gt;SharedEd25519PublicKey</title>
<path fill="none" stroke="black" d="M309.87,-432.05C297.24,-422.94 281.49,-411.58 267.81,-401.71"/>
<polygon fill="black" stroke="black" points="269.77,-398.8 259.61,-395.79 265.67,-404.48 269.77,-398.8"/>
</g>
<!-- RecoveryAddress -->
<g id="node13" class="node">
<title>RecoveryAddress</title>
<ellipse fill="none" stroke="black" cx="431.35" cy="-378" rx="73.39" ry="18"/>
<text text-anchor="middle" x="431.35" y="-374.3" font-family="Times,serif" font-size="14.00">RecoveryAddress</text>
</g>
<!-- AccountAdministrationScripts&#45;&gt;RecoveryAddress -->
<g id="edge34" class="edge">
<title>AccountAdministrationScripts&#45;&gt;RecoveryAddress</title>
<path fill="none" stroke="black" d="M357.07,-432.05C370.02,-422.81 386.21,-411.24 400.16,-401.27"/>
<polygon fill="black" stroke="black" points="402.41,-403.97 408.52,-395.31 398.35,-398.27 402.41,-403.97"/>
</g>
<!-- SharedEd25519PublicKey&#45;&gt;DiemAccount -->
<g id="edge26" class="edge">
<title>SharedEd25519PublicKey&#45;&gt;DiemAccount</title>
<path fill="none" stroke="black" d="M280.46,-361.64C312.85,-350.36 356.8,-335.05 389.95,-323.51"/>
<polygon fill="black" stroke="black" points="391.13,-326.8 399.43,-320.21 388.83,-320.19 391.13,-326.8"/>
</g>
<!-- RecoveryAddress&#45;&gt;DiemAccount -->
<g id="edge27" class="edge">
<title>RecoveryAddress&#45;&gt;DiemAccount</title>
<path fill="none" stroke="black" d="M432.83,-359.7C433.49,-351.98 434.29,-342.71 435.02,-334.11"/>
<polygon fill="black" stroke="black" points="438.51,-334.37 435.88,-324.1 431.54,-333.77 438.51,-334.37"/>
</g>
<!-- AccountCreationScripts -->
<g id="node14" class="node">
<title>AccountCreationScripts</title>
<ellipse fill="none" stroke="black" cx="617.35" cy="-378" rx="94.78" ry="18"/>
<text text-anchor="middle" x="617.35" y="-374.3" font-family="Times,serif" font-size="14.00">AccountCreationScripts</text>
</g>
<!-- AccountCreationScripts&#45;&gt;DiemAccount -->
<g id="edge29" class="edge">
<title>AccountCreationScripts&#45;&gt;DiemAccount</title>
<path fill="none" stroke="black" d="M577.4,-361.46C549.2,-350.5 511.4,-335.8 482.17,-324.43"/>
<polygon fill="black" stroke="black" points="483.21,-321.08 472.62,-320.72 480.67,-327.6 483.21,-321.08"/>
</g>
<!-- PaymentScripts -->
<g id="node15" class="node">
<title>PaymentScripts</title>
<ellipse fill="none" stroke="black" cx="796.35" cy="-378" rx="66.09" ry="18"/>
<text text-anchor="middle" x="796.35" y="-374.3" font-family="Times,serif" font-size="14.00">PaymentScripts</text>
</g>
<!-- PaymentScripts&#45;&gt;DiemAccount -->
<g id="edge31" class="edge">
<title>PaymentScripts&#45;&gt;DiemAccount</title>
<path fill="none" stroke="black" d="M747.59,-365.66C738.86,-363.72 729.85,-361.76 721.35,-360 644.54,-344.13 555.61,-327.88 498.02,-317.63"/>
<polygon fill="black" stroke="black" points="498.45,-314.15 487.99,-315.85 497.23,-321.04 498.45,-314.15"/>
</g>
</g>
</svg>
