<?xml version="1.0" encoding="UTF-8" standalone="no"?>
<!DOCTYPE svg PUBLIC "-//W3C//DTD SVG 1.1//EN"
 "http://www.w3.org/Graphics/SVG/1.1/DTD/svg11.dtd">
<!-- Generated by graphviz version 2.46.1 (20210213.1702)
 -->
<!-- Title: G Pages: 1 -->
<svg width="620pt" height="279pt"
 viewBox="0.00 0.00 620.00 279.00" xmlns="http://www.w3.org/2000/svg" xmlns:xlink="http://www.w3.org/1999/xlink">
<g id="graph0" class="graph" transform="scale(1 1) rotate(0) translate(4 275)">
<title>G</title>
<polygon fill="white" stroke="transparent" points="-4,4 -4,-275 616,-275 616,4 -4,4"/>
<g id="clust1" class="cluster">
<title>cluster_Signer</title>
<polygon fill="none" stroke="black" points="8,-8 8,-155 158,-155 158,-8 8,-8"/>
<text text-anchor="middle" x="83" y="-139.8" font-family="Times,serif" font-size="14.00">Signer</text>
</g>
<g id="clust2" class="cluster">
<title>cluster_Errors</title>
<polygon fill="none" stroke="black" points="166,-8 166,-155 604,-155 604,-8 166,-8"/>
<text text-anchor="middle" x="385" y="-139.8" font-family="Times,serif" font-size="14.00">Errors</text>
</g>
<!-- new_child_vasp_role -->
<g id="node1" class="node">
<title>new_child_vasp_role</title>
<ellipse fill="none" stroke="black" cx="323" cy="-253" rx="85.59" ry="18"/>
<text text-anchor="middle" x="323" y="-249.3" font-family="Times,serif" font-size="14.00">new_child_vasp_role</text>
</g>
<!-- assert_parent_vasp_role -->
<g id="node2" class="node">
<title>assert_parent_vasp_role</title>
<ellipse fill="none" stroke="black" cx="403" cy="-181" rx="95.58" ry="18"/>
<text text-anchor="middle" x="403" y="-177.3" font-family="Times,serif" font-size="14.00">assert_parent_vasp_role</text>
</g>
<!-- new_child_vasp_role&#45;&gt;assert_parent_vasp_role -->
<g id="edge1" class="edge">
<title>new_child_vasp_role&#45;&gt;assert_parent_vasp_role</title>
<path fill="none" stroke="black" d="M341.96,-235.41C352.15,-226.5 364.88,-215.36 376.08,-205.56"/>
<polygon fill="black" stroke="black" points="378.68,-207.93 383.9,-198.71 374.07,-202.66 378.68,-207.93"/>
</g>
<!-- grant_role -->
<g id="node3" class="node">
<title>grant_role</title>
<ellipse fill="none" stroke="black" cx="243" cy="-181" rx="46.59" ry="18"/>
<text text-anchor="middle" x="243" y="-177.3" font-family="Times,serif" font-size="14.00">grant_role</text>
</g>
<!-- new_child_vasp_role&#45;&gt;grant_role -->
<g id="edge2" class="edge">
<title>new_child_vasp_role&#45;&gt;grant_role</title>
<path fill="none" stroke="black" d="M304.04,-235.41C293.45,-226.15 280.12,-214.48 268.61,-204.41"/>
<polygon fill="black" stroke="black" points="270.83,-201.7 261,-197.75 266.22,-206.97 270.83,-201.7"/>
</g>
<!-- Signer::address_of -->
<g id="node4" class="node">
<title>Signer::address_of</title>
<ellipse fill="none" stroke="black" cx="101" cy="-106" rx="48.99" ry="18"/>
<text text-anchor="middle" x="101" y="-102.3" font-family="Times,serif" font-size="14.00">address_of</text>
</g>
<!-- assert_parent_vasp_role&#45;&gt;Signer::address_of -->
<g id="edge3" class="edge">
<title>assert_parent_vasp_role&#45;&gt;Signer::address_of</title>
<path fill="none" stroke="black" d="M336.29,-168.04C323.92,-166.13 311.09,-164.34 299,-163 268.69,-159.65 190.51,-165.81 162,-155 147.94,-149.67 134.55,-139.87 123.92,-130.51"/>
<polygon fill="black" stroke="black" points="126.08,-127.73 116.36,-123.51 121.32,-132.87 126.08,-127.73"/>
</g>
<!-- Errors::not_published -->
<g id="node5" class="node">
<title>Errors::not_published</title>
<ellipse fill="none" stroke="black" cx="403" cy="-106" rx="60.39" ry="18"/>
<text text-anchor="middle" x="403" y="-102.3" font-family="Times,serif" font-size="14.00">not_published</text>
</g>
<!-- assert_parent_vasp_role&#45;&gt;Errors::not_published -->
<g id="edge4" class="edge">
<title>assert_parent_vasp_role&#45;&gt;Errors::not_published</title>
<path fill="none" stroke="black" d="M403,-162.7C403,-154.25 403,-143.87 403,-134.37"/>
<polygon fill="black" stroke="black" points="406.5,-134.18 403,-124.18 399.5,-134.18 406.5,-134.18"/>
</g>
<!-- Errors::requires_role -->
<g id="node6" class="node">
<title>Errors::requires_role</title>
<ellipse fill="none" stroke="black" cx="539" cy="-106" rx="57.39" ry="18"/>
<text text-anchor="middle" x="539" y="-102.3" font-family="Times,serif" font-size="14.00">requires_role</text>
</g>
<!-- assert_parent_vasp_role&#45;&gt;Errors::requires_role -->
<g id="edge5" class="edge">
<title>assert_parent_vasp_role&#45;&gt;Errors::requires_role</title>
<path fill="none" stroke="black" d="M449.41,-165.17C457.11,-162.15 464.9,-158.74 472,-155 485.75,-147.76 499.9,-138.02 511.63,-129.21"/>
<polygon fill="black" stroke="black" points="513.91,-131.87 519.7,-123 509.64,-126.32 513.91,-131.87"/>
</g>
<!-- grant_role&#45;&gt;Signer::address_of -->
<g id="edge6" class="edge">
<title>grant_role&#45;&gt;Signer::address_of</title>
<path fill="none" stroke="black" d="M203.94,-171.08C190.24,-167.15 175.03,-161.84 162,-155 148.97,-148.17 135.96,-138.43 125.32,-129.51"/>
<polygon fill="black" stroke="black" points="127.54,-126.81 117.69,-122.91 122.97,-132.1 127.54,-126.81"/>
</g>
<!-- Errors::already_published -->
<g id="node7" class="node">
<title>Errors::already_published</title>
<ellipse fill="none" stroke="black" cx="249" cy="-106" rx="75.29" ry="18"/>
<text text-anchor="middle" x="249" y="-102.3" font-family="Times,serif" font-size="14.00">already_published</text>
</g>
<!-- grant_role&#45;&gt;Errors::already_published -->
<g id="edge7" class="edge">
<title>grant_role&#45;&gt;Errors::already_published</title>
<path fill="none" stroke="black" d="M244.42,-162.7C245.12,-154.25 245.97,-143.87 246.75,-134.37"/>
<polygon fill="black" stroke="black" points="250.26,-134.43 247.59,-124.18 243.28,-133.86 250.26,-134.43"/>
</g>
<!-- Signer::borrow_address -->
<g id="node8" class="node">
<title>Signer::borrow_address</title>
<ellipse fill="none" stroke="black" cx="83" cy="-34" rx="66.89" ry="18"/>
<text text-anchor="middle" x="83" y="-30.3" font-family="Times,serif" font-size="14.00">borrow_address</text>
</g>
<!-- Signer::address_of&#45;&gt;Signer::borrow_address -->
<g id="edge8" class="edge">
<title>Signer::address_of&#45;&gt;Signer::borrow_address</title>
<path fill="none" stroke="black" d="M96.64,-88.05C94.64,-80.26 92.21,-70.82 89.96,-62.08"/>
<polygon fill="black" stroke="black" points="93.32,-61.09 87.44,-52.28 86.54,-62.83 93.32,-61.09"/>
</g>
<!-- Errors::make -->
<g id="node9" class="node">
<title>Errors::make</title>
<ellipse fill="none" stroke="black" cx="403" cy="-34" rx="30.59" ry="18"/>
<text text-anchor="middle" x="403" y="-30.3" font-family="Times,serif" font-size="14.00">make</text>
</g>
<!-- Errors::not_published&#45;&gt;Errors::make -->
<g id="edge9" class="edge">
<title>Errors::not_published&#45;&gt;Errors::make</title>
<path fill="none" stroke="black" d="M403,-87.7C403,-79.98 403,-70.71 403,-62.11"/>
<polygon fill="black" stroke="black" points="406.5,-62.1 403,-52.1 399.5,-62.1 406.5,-62.1"/>
</g>
<!-- Errors::requires_role&#45;&gt;Errors::make -->
<g id="edge10" class="edge">
<title>Errors::requires_role&#45;&gt;Errors::make</title>
<path fill="none" stroke="black" d="M510.49,-90.33C488.17,-78.84 457.17,-62.88 434.19,-51.06"/>
<polygon fill="black" stroke="black" points="435.69,-47.89 425.2,-46.43 432.49,-54.11 435.69,-47.89"/>
</g>
<!-- Errors::already_published&#45;&gt;Errors::make -->
<g id="edge11" class="edge">
<title>Errors::already_published&#45;&gt;Errors::make</title>
<path fill="none" stroke="black" d="M282.42,-89.81C308.3,-78.04 343.99,-61.82 369.81,-50.08"/>
<polygon fill="black" stroke="black" points="371.53,-53.15 379.19,-45.82 368.64,-46.78 371.53,-53.15"/>
</g>
</g>
</svg>
