<?xml version="1.0" encoding="UTF-8" standalone="no"?>
<!DOCTYPE svg PUBLIC "-//W3C//DTD SVG 1.1//EN"
 "http://www.w3.org/Graphics/SVG/1.1/DTD/svg11.dtd">
<!-- Generated by graphviz version 2.46.1 (20210213.1702)
 -->
<!-- Title: G Pages: 1 -->
<svg width="245pt" height="279pt"
 viewBox="0.00 0.00 244.58 279.00" xmlns="http://www.w3.org/2000/svg" xmlns:xlink="http://www.w3.org/1999/xlink">
<g id="graph0" class="graph" transform="scale(1 1) rotate(0) translate(4 275)">
<title>G</title>
<polygon fill="white" stroke="transparent" points="-4,4 -4,-275 240.58,-275 240.58,4 -4,4"/>
<g id="clust1" class="cluster">
<title>cluster_Signer</title>
<polygon fill="none" stroke="black" points="43.29,-8 43.29,-155 193.29,-155 193.29,-8 43.29,-8"/>
<text text-anchor="middle" x="118.29" y="-139.8" font-family="Times,serif" font-size="14.00">Signer</text>
</g>
<!-- has_treasury_compliance_role -->
<g id="node1" class="node">
<title>has_treasury_compliance_role</title>
<ellipse fill="none" stroke="black" cx="118.29" cy="-253" rx="118.08" ry="18"/>
<text text-anchor="middle" x="118.29" y="-249.3" font-family="Times,serif" font-size="14.00">has_treasury_compliance_role</text>
</g>
<!-- has_role -->
<g id="node2" class="node">
<title>has_role</title>
<ellipse fill="none" stroke="black" cx="118.29" cy="-181" rx="40.09" ry="18"/>
<text text-anchor="middle" x="118.29" y="-177.3" font-family="Times,serif" font-size="14.00">has_role</text>
</g>
<!-- has_treasury_compliance_role&#45;&gt;has_role -->
<g id="edge1" class="edge">
<title>has_treasury_compliance_role&#45;&gt;has_role</title>
<path fill="none" stroke="black" d="M118.29,-234.7C118.29,-226.98 118.29,-217.71 118.29,-209.11"/>
<polygon fill="black" stroke="black" points="121.79,-209.1 118.29,-199.1 114.79,-209.1 121.79,-209.1"/>
</g>
<!-- Signer::address_of -->
<g id="node3" class="node">
<title>Signer::address_of</title>
<ellipse fill="none" stroke="black" cx="118.29" cy="-106" rx="48.99" ry="18"/>
<text text-anchor="middle" x="118.29" y="-102.3" font-family="Times,serif" font-size="14.00">address_of</text>
</g>
<!-- has_role&#45;&gt;Signer::address_of -->
<g id="edge2" class="edge">
<title>has_role&#45;&gt;Signer::address_of</title>
<path fill="none" stroke="black" d="M118.29,-162.7C118.29,-154.25 118.29,-143.87 118.29,-134.37"/>
<polygon fill="black" stroke="black" points="121.79,-134.18 118.29,-124.18 114.79,-134.18 121.79,-134.18"/>
</g>
<!-- Signer::borrow_address -->
<g id="node4" class="node">
<title>Signer::borrow_address</title>
<ellipse fill="none" stroke="black" cx="118.29" cy="-34" rx="66.89" ry="18"/>
<text text-anchor="middle" x="118.29" y="-30.3" font-family="Times,serif" font-size="14.00">borrow_address</text>
</g>
<!-- Signer::address_of&#45;&gt;Signer::borrow_address -->
<g id="edge3" class="edge">
<title>Signer::address_of&#45;&gt;Signer::borrow_address</title>
<path fill="none" stroke="black" d="M118.29,-87.7C118.29,-79.98 118.29,-70.71 118.29,-62.11"/>
<polygon fill="black" stroke="black" points="121.79,-62.1 118.29,-52.1 114.79,-62.1 121.79,-62.1"/>
</g>
</g>
</svg>
