<?xml version="1.0" encoding="UTF-8" standalone="no"?>
<!DOCTYPE svg PUBLIC "-//W3C//DTD SVG 1.1//EN"
 "http://www.w3.org/Graphics/SVG/1.1/DTD/svg11.dtd">
<!-- Generated by graphviz version 2.46.1 (20210213.1702)
 -->
<!-- Title: G Pages: 1 -->
<svg width="1019pt" height="365pt"
 viewBox="0.00 0.00 1019.00 365.00" xmlns="http://www.w3.org/2000/svg" xmlns:xlink="http://www.w3.org/1999/xlink">
<g id="graph0" class="graph" transform="scale(1 1) rotate(0) translate(4 361)">
<title>G</title>
<polygon fill="white" stroke="transparent" points="-4,4 -4,-361 1015,-361 1015,4 -4,4"/>
<g id="clust1" class="cluster">
<title>cluster_CoreAddresses</title>
<polygon fill="none" stroke="black" points="154,-80 154,-238 384,-238 384,-80 154,-80"/>
<text text-anchor="middle" x="269" y="-222.8" font-family="Times,serif" font-size="14.00">CoreAddresses</text>
</g>
<g id="clust2" class="cluster">
<title>cluster_DiemTimestamp</title>
<polygon fill="none" stroke="black" points="8,-163 8,-313 146,-313 146,-163 8,-163"/>
<text text-anchor="middle" x="77" y="-297.8" font-family="Times,serif" font-size="14.00">DiemTimestamp</text>
</g>
<g id="clust3" class="cluster">
<title>cluster_Signer</title>
<polygon fill="none" stroke="black" points="853,-8 853,-155 1003,-155 1003,-8 853,-8"/>
<text text-anchor="middle" x="928" y="-139.8" font-family="Times,serif" font-size="14.00">Signer</text>
</g>
<g id="clust4" class="cluster">
<title>cluster_Errors</title>
<polygon fill="none" stroke="black" points="392,-8 392,-155 845,-155 845,-8 392,-8"/>
<text text-anchor="middle" x="618.5" y="-139.8" font-family="Times,serif" font-size="14.00">Errors</text>
</g>
<!-- grant_diem_root_role -->
<g id="node1" class="node">
<title>grant_diem_root_role</title>
<ellipse fill="none" stroke="black" cx="305" cy="-339" rx="87.99" ry="18"/>
<text text-anchor="middle" x="305" y="-335.3" font-family="Times,serif" font-size="14.00">grant_diem_root_role</text>
</g>
<!-- CoreAddresses::assert_diem_root -->
<g id="node2" class="node">
<title>CoreAddresses::assert_diem_root</title>
<ellipse fill="none" stroke="black" cx="305" cy="-189" rx="71.49" ry="18"/>
<text text-anchor="middle" x="305" y="-185.3" font-family="Times,serif" font-size="14.00">assert_diem_root</text>
</g>
<!-- grant_diem_root_role&#45;&gt;CoreAddresses::assert_diem_root -->
<g id="edge1" class="edge">
<title>grant_diem_root_role&#45;&gt;CoreAddresses::assert_diem_root</title>
<path fill="none" stroke="black" d="M305,-320.73C305,-295.33 305,-247.65 305,-217.43"/>
<polygon fill="black" stroke="black" points="308.5,-217.16 305,-207.16 301.5,-217.16 308.5,-217.16"/>
</g>
<!-- DiemTimestamp::assert_genesis -->
<g id="node3" class="node">
<title>DiemTimestamp::assert_genesis</title>
<ellipse fill="none" stroke="black" cx="77" cy="-264" rx="61.19" ry="18"/>
<text text-anchor="middle" x="77" y="-260.3" font-family="Times,serif" font-size="14.00">assert_genesis</text>
</g>
<!-- grant_diem_root_role&#45;&gt;DiemTimestamp::assert_genesis -->
<g id="edge2" class="edge">
<title>grant_diem_root_role&#45;&gt;DiemTimestamp::assert_genesis</title>
<path fill="none" stroke="black" d="M259.68,-323.49C221.25,-311.19 166.22,-293.57 126.61,-280.89"/>
<polygon fill="black" stroke="black" points="127.49,-277.49 116.9,-277.77 125.35,-284.16 127.49,-277.49"/>
</g>
<!-- grant_role -->
<g id="node4" class="node">
<title>grant_role</title>
<ellipse fill="none" stroke="black" cx="762" cy="-189" rx="46.59" ry="18"/>
<text text-anchor="middle" x="762" y="-185.3" font-family="Times,serif" font-size="14.00">grant_role</text>
</g>
<!-- grant_diem_root_role&#45;&gt;grant_role -->
<g id="edge3" class="edge">
<title>grant_diem_root_role&#45;&gt;grant_role</title>
<path fill="none" stroke="black" d="M350.07,-323.4C437.88,-294.97 630.9,-232.46 717.92,-204.28"/>
<polygon fill="black" stroke="black" points="719.06,-207.58 727.5,-201.17 716.9,-200.93 719.06,-207.58"/>
</g>
<!-- Signer::address_of -->
<g id="node5" class="node">
<title>Signer::address_of</title>
<ellipse fill="none" stroke="black" cx="910" cy="-106" rx="48.99" ry="18"/>
<text text-anchor="middle" x="910" y="-102.3" font-family="Times,serif" font-size="14.00">address_of</text>
</g>
<!-- CoreAddresses::assert_diem_root&#45;&gt;Signer::address_of -->
<g id="edge4" class="edge">
<title>CoreAddresses::assert_diem_root&#45;&gt;Signer::address_of</title>
<path fill="none" stroke="black" d="M373.46,-183.6C453.28,-178.5 589.19,-169.91 706,-163 737.77,-161.12 819.23,-166.25 849,-155 863.06,-149.69 876.45,-139.89 887.09,-130.52"/>
<polygon fill="black" stroke="black" points="889.68,-132.89 894.65,-123.53 884.93,-127.75 889.68,-132.89"/>
</g>
<!-- Errors::requires_address -->
<g id="node6" class="node">
<title>Errors::requires_address</title>
<ellipse fill="none" stroke="black" cx="470" cy="-106" rx="69.59" ry="18"/>
<text text-anchor="middle" x="470" y="-102.3" font-family="Times,serif" font-size="14.00">requires_address</text>
</g>
<!-- CoreAddresses::assert_diem_root&#45;&gt;Errors::requires_address -->
<g id="edge5" class="edge">
<title>CoreAddresses::assert_diem_root&#45;&gt;Errors::requires_address</title>
<path fill="none" stroke="black" d="M344.38,-173.75C358.35,-168.32 374.06,-161.8 388,-155 404.33,-147.03 421.78,-137.04 436.38,-128.23"/>
<polygon fill="black" stroke="black" points="438.35,-131.13 445.06,-122.93 434.7,-125.15 438.35,-131.13"/>
</g>
<!-- CoreAddresses::DIEM_ROOT_ADDRESS -->
<g id="node7" class="node">
<title>CoreAddresses::DIEM_ROOT_ADDRESS</title>
<ellipse fill="none" stroke="black" cx="269" cy="-106" rx="106.68" ry="18"/>
<text text-anchor="middle" x="269" y="-102.3" font-family="Times,serif" font-size="14.00">DIEM_ROOT_ADDRESS</text>
</g>
<!-- CoreAddresses::assert_diem_root&#45;&gt;CoreAddresses::DIEM_ROOT_ADDRESS -->
<g id="edge6" class="edge">
<title>CoreAddresses::assert_diem_root&#45;&gt;CoreAddresses::DIEM_ROOT_ADDRESS</title>
<path fill="none" stroke="black" d="M297.37,-170.82C292.54,-159.98 286.22,-145.74 280.77,-133.47"/>
<polygon fill="black" stroke="black" points="283.88,-131.87 276.62,-124.15 277.49,-134.71 283.88,-131.87"/>
</g>
<!-- Errors::invalid_state -->
<g id="node8" class="node">
<title>Errors::invalid_state</title>
<ellipse fill="none" stroke="black" cx="613" cy="-106" rx="55.79" ry="18"/>
<text text-anchor="middle" x="613" y="-102.3" font-family="Times,serif" font-size="14.00">invalid_state</text>
</g>
<!-- DiemTimestamp::assert_genesis&#45;&gt;Errors::invalid_state -->
<g id="edge7" class="edge">
<title>DiemTimestamp::assert_genesis&#45;&gt;Errors::invalid_state</title>
<path fill="none" stroke="black" d="M137.34,-260.97C214.2,-257.9 342.49,-250.99 388,-238 465.91,-215.76 545.03,-160.44 585.46,-129.27"/>
<polygon fill="black" stroke="black" points="587.76,-131.91 593.49,-123 583.45,-126.39 587.76,-131.91"/>
</g>
<!-- DiemTimestamp::is_genesis -->
<g id="node9" class="node">
<title>DiemTimestamp::is_genesis</title>
<ellipse fill="none" stroke="black" cx="84" cy="-189" rx="46.59" ry="18"/>
<text text-anchor="middle" x="84" y="-185.3" font-family="Times,serif" font-size="14.00">is_genesis</text>
</g>
<!-- DiemTimestamp::assert_genesis&#45;&gt;DiemTimestamp::is_genesis -->
<g id="edge8" class="edge">
<title>DiemTimestamp::assert_genesis&#45;&gt;DiemTimestamp::is_genesis</title>
<path fill="none" stroke="black" d="M78.66,-245.7C79.47,-237.25 80.46,-226.87 81.38,-217.37"/>
<polygon fill="black" stroke="black" points="84.88,-217.46 82.35,-207.18 77.91,-216.8 84.88,-217.46"/>
</g>
<!-- grant_role&#45;&gt;Signer::address_of -->
<g id="edge9" class="edge">
<title>grant_role&#45;&gt;Signer::address_of</title>
<path fill="none" stroke="black" d="M797.81,-177.17C813.96,-171.6 832.97,-164.06 849,-155 861.5,-147.93 874.15,-138.44 884.68,-129.76"/>
<polygon fill="black" stroke="black" points="887.25,-132.17 892.61,-123.03 882.72,-126.83 887.25,-132.17"/>
</g>
<!-- Errors::already_published -->
<g id="node10" class="node">
<title>Errors::already_published</title>
<ellipse fill="none" stroke="black" cx="762" cy="-106" rx="75.29" ry="18"/>
<text text-anchor="middle" x="762" y="-102.3" font-family="Times,serif" font-size="14.00">already_published</text>
</g>
<!-- grant_role&#45;&gt;Errors::already_published -->
<g id="edge10" class="edge">
<title>grant_role&#45;&gt;Errors::already_published</title>
<path fill="none" stroke="black" d="M762,-170.82C762,-160.19 762,-146.31 762,-134.2"/>
<polygon fill="black" stroke="black" points="765.5,-134.15 762,-124.15 758.5,-134.15 765.5,-134.15"/>
</g>
<!-- Signer::borrow_address -->
<g id="node11" class="node">
<title>Signer::borrow_address</title>
<ellipse fill="none" stroke="black" cx="928" cy="-34" rx="66.89" ry="18"/>
<text text-anchor="middle" x="928" y="-30.3" font-family="Times,serif" font-size="14.00">borrow_address</text>
</g>
<!-- Signer::address_of&#45;&gt;Signer::borrow_address -->
<g id="edge11" class="edge">
<title>Signer::address_of&#45;&gt;Signer::borrow_address</title>
<path fill="none" stroke="black" d="M914.36,-88.05C916.36,-80.26 918.79,-70.82 921.04,-62.08"/>
<polygon fill="black" stroke="black" points="924.46,-62.83 923.56,-52.28 917.68,-61.09 924.46,-62.83"/>
</g>
<!-- Errors::make -->
<g id="node12" class="node">
<title>Errors::make</title>
<ellipse fill="none" stroke="black" cx="613" cy="-34" rx="30.59" ry="18"/>
<text text-anchor="middle" x="613" y="-30.3" font-family="Times,serif" font-size="14.00">make</text>
</g>
<!-- Errors::requires_address&#45;&gt;Errors::make -->
<g id="edge12" class="edge">
<title>Errors::requires_address&#45;&gt;Errors::make</title>
<path fill="none" stroke="black" d="M501.03,-89.81C524.67,-78.24 557.11,-62.36 580.99,-50.67"/>
<polygon fill="black" stroke="black" points="582.56,-53.8 590.01,-46.26 579.49,-47.51 582.56,-53.8"/>
</g>
<!-- Errors::invalid_state&#45;&gt;Errors::make -->
<g id="edge13" class="edge">
<title>Errors::invalid_state&#45;&gt;Errors::make</title>
<path fill="none" stroke="black" d="M613,-87.7C613,-79.98 613,-70.71 613,-62.11"/>
<polygon fill="black" stroke="black" points="616.5,-62.1 613,-52.1 609.5,-62.1 616.5,-62.1"/>
</g>
<!-- DiemTimestamp::is_genesis&#45;&gt;CoreAddresses::DIEM_ROOT_ADDRESS -->
<g id="edge14" class="edge">
<title>DiemTimestamp::is_genesis&#45;&gt;CoreAddresses::DIEM_ROOT_ADDRESS</title>
<path fill="none" stroke="black" d="M113.72,-174.99C143.23,-162.07 188.86,-142.09 223.03,-127.13"/>
<polygon fill="black" stroke="black" points="224.59,-130.27 232.35,-123.05 221.78,-123.85 224.59,-130.27"/>
</g>
<!-- Errors::already_published&#45;&gt;Errors::make -->
<g id="edge15" class="edge">
<title>Errors::already_published&#45;&gt;Errors::make</title>
<path fill="none" stroke="black" d="M729.3,-89.64C704.5,-77.98 670.55,-62.04 645.73,-50.38"/>
<polygon fill="black" stroke="black" points="646.92,-47.07 636.38,-45.98 643.94,-53.4 646.92,-47.07"/>
</g>
</g>
</svg>
