<?xml version="1.0" encoding="UTF-8" standalone="no"?>
<!DOCTYPE svg PUBLIC "-//W3C//DTD SVG 1.1//EN"
 "http://www.w3.org/Graphics/SVG/1.1/DTD/svg11.dtd">
<!-- Generated by graphviz version 2.46.1 (20210213.1702)
 -->
<!-- Title: G Pages: 1 -->
<svg width="847pt" height="282pt"
 viewBox="0.00 0.00 847.00 282.00" xmlns="http://www.w3.org/2000/svg" xmlns:xlink="http://www.w3.org/1999/xlink">
<g id="graph0" class="graph" transform="scale(1 1) rotate(0) translate(4 278)">
<title>G</title>
<polygon fill="white" stroke="transparent" points="-4,4 -4,-278 843,-278 843,4 -4,4"/>
<g id="clust1" class="cluster">
<title>cluster_Signer</title>
<polygon fill="none" stroke="black" points="8,-8 8,-155 158,-155 158,-8 8,-8"/>
<text text-anchor="middle" x="83" y="-139.8" font-family="Times,serif" font-size="14.00">Signer</text>
</g>
<g id="clust2" class="cluster">
<title>cluster_Errors</title>
<polygon fill="none" stroke="black" points="404,-8 404,-155 831,-155 831,-8 404,-8"/>
<text text-anchor="middle" x="617.5" y="-139.8" font-family="Times,serif" font-size="14.00">Errors</text>
</g>
<g id="clust3" class="cluster">
<title>cluster_CoreAddresses</title>
<polygon fill="none" stroke="black" points="166,-80 166,-230 396,-230 396,-80 166,-80"/>
<text text-anchor="middle" x="281" y="-214.8" font-family="Times,serif" font-size="14.00">CoreAddresses</text>
</g>
<!-- assert_diem_root -->
<g id="node1" class="node">
<title>assert_diem_root</title>
<ellipse fill="none" stroke="black" cx="419" cy="-256" rx="71.49" ry="18"/>
<text text-anchor="middle" x="419" y="-252.3" font-family="Times,serif" font-size="14.00">assert_diem_root</text>
</g>
<!-- Signer::address_of -->
<g id="node2" class="node">
<title>Signer::address_of</title>
<ellipse fill="none" stroke="black" cx="101" cy="-106" rx="48.99" ry="18"/>
<text text-anchor="middle" x="101" y="-102.3" font-family="Times,serif" font-size="14.00">address_of</text>
</g>
<!-- assert_diem_root&#45;&gt;Signer::address_of -->
<g id="edge1" class="edge">
<title>assert_diem_root&#45;&gt;Signer::address_of</title>
<path fill="none" stroke="black" d="M347.36,-255.65C281.93,-254.9 191.11,-250.07 162,-230 129.67,-207.71 113.69,-163.16 106.4,-134.24"/>
<polygon fill="black" stroke="black" points="109.78,-133.3 104.1,-124.36 102.96,-134.89 109.78,-133.3"/>
</g>
<!-- Errors::not_published -->
<g id="node3" class="node">
<title>Errors::not_published</title>
<ellipse fill="none" stroke="black" cx="630" cy="-106" rx="60.39" ry="18"/>
<text text-anchor="middle" x="630" y="-102.3" font-family="Times,serif" font-size="14.00">not_published</text>
</g>
<!-- assert_diem_root&#45;&gt;Errors::not_published -->
<g id="edge2" class="edge">
<title>assert_diem_root&#45;&gt;Errors::not_published</title>
<path fill="none" stroke="black" d="M441.98,-238.88C480.05,-212.18 556.24,-158.74 599.02,-128.73"/>
<polygon fill="black" stroke="black" points="601.19,-131.48 607.37,-122.88 597.17,-125.75 601.19,-131.48"/>
</g>
<!-- Errors::requires_role -->
<g id="node4" class="node">
<title>Errors::requires_role</title>
<ellipse fill="none" stroke="black" cx="766" cy="-106" rx="57.39" ry="18"/>
<text text-anchor="middle" x="766" y="-102.3" font-family="Times,serif" font-size="14.00">requires_role</text>
</g>
<!-- assert_diem_root&#45;&gt;Errors::requires_role -->
<g id="edge3" class="edge">
<title>assert_diem_root&#45;&gt;Errors::requires_role</title>
<path fill="none" stroke="black" d="M470.54,-243.49C485.94,-239.65 502.77,-235.05 518,-230 600.65,-202.6 622.89,-197.3 699,-155 712.49,-147.51 726.5,-137.81 738.2,-129.09"/>
<polygon fill="black" stroke="black" points="740.42,-131.8 746.27,-122.97 736.19,-126.23 740.42,-131.8"/>
</g>
<!-- CoreAddresses::assert_diem_root -->
<g id="node5" class="node">
<title>CoreAddresses::assert_diem_root</title>
<ellipse fill="none" stroke="black" cx="299" cy="-181" rx="71.49" ry="18"/>
<text text-anchor="middle" x="299" y="-177.3" font-family="Times,serif" font-size="14.00">assert_diem_root</text>
</g>
<!-- assert_diem_root&#45;&gt;CoreAddresses::assert_diem_root -->
<g id="edge4" class="edge">
<title>assert_diem_root&#45;&gt;CoreAddresses::assert_diem_root</title>
<path fill="none" stroke="black" d="M392.96,-239.16C375.59,-228.59 352.54,-214.57 333.63,-203.06"/>
<polygon fill="black" stroke="black" points="335.35,-200.02 324.99,-197.81 331.71,-206 335.35,-200.02"/>
</g>
<!-- Signer::borrow_address -->
<g id="node6" class="node">
<title>Signer::borrow_address</title>
<ellipse fill="none" stroke="black" cx="83" cy="-34" rx="66.89" ry="18"/>
<text text-anchor="middle" x="83" y="-30.3" font-family="Times,serif" font-size="14.00">borrow_address</text>
</g>
<!-- Signer::address_of&#45;&gt;Signer::borrow_address -->
<g id="edge5" class="edge">
<title>Signer::address_of&#45;&gt;Signer::borrow_address</title>
<path fill="none" stroke="black" d="M96.64,-88.05C94.64,-80.26 92.21,-70.82 89.96,-62.08"/>
<polygon fill="black" stroke="black" points="93.32,-61.09 87.44,-52.28 86.54,-62.83 93.32,-61.09"/>
</g>
<!-- Errors::make -->
<g id="node7" class="node">
<title>Errors::make</title>
<ellipse fill="none" stroke="black" cx="630" cy="-34" rx="30.59" ry="18"/>
<text text-anchor="middle" x="630" y="-30.3" font-family="Times,serif" font-size="14.00">make</text>
</g>
<!-- Errors::not_published&#45;&gt;Errors::make -->
<g id="edge6" class="edge">
<title>Errors::not_published&#45;&gt;Errors::make</title>
<path fill="none" stroke="black" d="M630,-87.7C630,-79.98 630,-70.71 630,-62.11"/>
<polygon fill="black" stroke="black" points="633.5,-62.1 630,-52.1 626.5,-62.1 633.5,-62.1"/>
</g>
<!-- Errors::requires_role&#45;&gt;Errors::make -->
<g id="edge7" class="edge">
<title>Errors::requires_role&#45;&gt;Errors::make</title>
<path fill="none" stroke="black" d="M737.49,-90.33C715.17,-78.84 684.17,-62.88 661.19,-51.06"/>
<polygon fill="black" stroke="black" points="662.69,-47.89 652.2,-46.43 659.49,-54.11 662.69,-47.89"/>
</g>
<!-- CoreAddresses::assert_diem_root&#45;&gt;Signer::address_of -->
<g id="edge8" class="edge">
<title>CoreAddresses::assert_diem_root&#45;&gt;Signer::address_of</title>
<path fill="none" stroke="black" d="M232.24,-174.43C209.25,-170.81 183.82,-164.84 162,-155 148.49,-148.91 135.33,-139.19 124.71,-130.09"/>
<polygon fill="black" stroke="black" points="126.92,-127.37 117.13,-123.32 122.26,-132.59 126.92,-127.37"/>
</g>
<!-- Errors::requires_address -->
<g id="node8" class="node">
<title>Errors::requires_address</title>
<ellipse fill="none" stroke="black" cx="482" cy="-106" rx="69.59" ry="18"/>
<text text-anchor="middle" x="482" y="-102.3" font-family="Times,serif" font-size="14.00">requires_address</text>
</g>
<!-- CoreAddresses::assert_diem_root&#45;&gt;Errors::requires_address -->
<g id="edge9" class="edge">
<title>CoreAddresses::assert_diem_root&#45;&gt;Errors::requires_address</title>
<path fill="none" stroke="black" d="M353.9,-169.44C369.11,-165.7 385.44,-160.92 400,-155 417.21,-148 435.15,-137.87 449.84,-128.72"/>
<polygon fill="black" stroke="black" points="451.98,-131.51 458.54,-123.18 448.22,-125.6 451.98,-131.51"/>
</g>
<!-- CoreAddresses::DIEM_ROOT_ADDRESS -->
<g id="node9" class="node">
<title>CoreAddresses::DIEM_ROOT_ADDRESS</title>
<ellipse fill="none" stroke="black" cx="281" cy="-106" rx="106.68" ry="18"/>
<text text-anchor="middle" x="281" y="-102.3" font-family="Times,serif" font-size="14.00">DIEM_ROOT_ADDRESS</text>
</g>
<!-- CoreAddresses::assert_diem_root&#45;&gt;CoreAddresses::DIEM_ROOT_ADDRESS -->
<g id="edge10" class="edge">
<title>CoreAddresses::assert_diem_root&#45;&gt;CoreAddresses::DIEM_ROOT_ADDRESS</title>
<path fill="none" stroke="black" d="M294.73,-162.7C292.63,-154.15 290.04,-143.65 287.67,-134.07"/>
<polygon fill="black" stroke="black" points="291.03,-133.05 285.24,-124.18 284.23,-134.72 291.03,-133.05"/>
</g>
<!-- Errors::requires_address&#45;&gt;Errors::make -->
<g id="edge11" class="edge">
<title>Errors::requires_address&#45;&gt;Errors::make</title>
<path fill="none" stroke="black" d="M513.75,-89.98C538.6,-78.23 573.02,-61.95 597.95,-50.16"/>
<polygon fill="black" stroke="black" points="599.46,-53.32 607,-45.88 596.46,-46.99 599.46,-53.32"/>
</g>
</g>
</svg>
