<?xml version="1.0" encoding="UTF-8" standalone="no"?>
<!DOCTYPE svg PUBLIC "-//W3C//DTD SVG 1.1//EN"
 "http://www.w3.org/Graphics/SVG/1.1/DTD/svg11.dtd">
<!-- Generated by graphviz version 2.46.1 (20210213.1702)
 -->
<!-- Title: G Pages: 1 -->
<svg width="959pt" height="282pt"
 viewBox="0.00 0.00 959.00 282.00" xmlns="http://www.w3.org/2000/svg" xmlns:xlink="http://www.w3.org/1999/xlink">
<g id="graph0" class="graph" transform="scale(1 1) rotate(0) translate(4 278)">
<title>G</title>
<polygon fill="white" stroke="transparent" points="-4,4 -4,-278 955,-278 955,4 -4,4"/>
<g id="clust1" class="cluster">
<title>cluster_Signer</title>
<polygon fill="none" stroke="black" points="8,-8 8,-155 158,-155 158,-8 8,-8"/>
<text text-anchor="middle" x="83" y="-139.8" font-family="Times,serif" font-size="14.00">Signer</text>
</g>
<g id="clust2" class="cluster">
<title>cluster_Errors</title>
<polygon fill="none" stroke="black" points="516,-8 516,-155 943,-155 943,-8 516,-8"/>
<text text-anchor="middle" x="729.5" y="-139.8" font-family="Times,serif" font-size="14.00">Errors</text>
</g>
<g id="clust3" class="cluster">
<title>cluster_CoreAddresses</title>
<polygon fill="none" stroke="black" points="166,-80 166,-230 508,-230 508,-80 166,-80"/>
<text text-anchor="middle" x="337" y="-214.8" font-family="Times,serif" font-size="14.00">CoreAddresses</text>
</g>
<!-- assert_treasury_compliance -->
<g id="node1" class="node">
<title>assert_treasury_compliance</title>
<ellipse fill="none" stroke="black" cx="512" cy="-256" rx="108.58" ry="18"/>
<text text-anchor="middle" x="512" y="-252.3" font-family="Times,serif" font-size="14.00">assert_treasury_compliance</text>
</g>
<!-- Signer::address_of -->
<g id="node2" class="node">
<title>Signer::address_of</title>
<ellipse fill="none" stroke="black" cx="101" cy="-106" rx="48.99" ry="18"/>
<text text-anchor="middle" x="101" y="-102.3" font-family="Times,serif" font-size="14.00">address_of</text>
</g>
<!-- assert_treasury_compliance&#45;&gt;Signer::address_of -->
<g id="edge1" class="edge">
<title>assert_treasury_compliance&#45;&gt;Signer::address_of</title>
<path fill="none" stroke="black" d="M405.27,-252.68C309.81,-249.75 181.92,-243.36 162,-230 129.21,-208 113.31,-162.97 106.18,-133.93"/>
<polygon fill="black" stroke="black" points="109.56,-133 103.93,-124.02 102.73,-134.55 109.56,-133"/>
</g>
<!-- Errors::not_published -->
<g id="node3" class="node">
<title>Errors::not_published</title>
<ellipse fill="none" stroke="black" cx="742" cy="-106" rx="60.39" ry="18"/>
<text text-anchor="middle" x="742" y="-102.3" font-family="Times,serif" font-size="14.00">not_published</text>
</g>
<!-- assert_treasury_compliance&#45;&gt;Errors::not_published -->
<g id="edge2" class="edge">
<title>assert_treasury_compliance&#45;&gt;Errors::not_published</title>
<path fill="none" stroke="black" d="M539.62,-238.44C571.91,-218.95 626.82,-185.38 673,-155 685.75,-146.61 699.61,-137.06 711.53,-128.7"/>
<polygon fill="black" stroke="black" points="713.67,-131.48 719.83,-122.86 709.64,-125.76 713.67,-131.48"/>
</g>
<!-- Errors::requires_role -->
<g id="node4" class="node">
<title>Errors::requires_role</title>
<ellipse fill="none" stroke="black" cx="878" cy="-106" rx="57.39" ry="18"/>
<text text-anchor="middle" x="878" y="-102.3" font-family="Times,serif" font-size="14.00">requires_role</text>
</g>
<!-- assert_treasury_compliance&#45;&gt;Errors::requires_role -->
<g id="edge3" class="edge">
<title>assert_treasury_compliance&#45;&gt;Errors::requires_role</title>
<path fill="none" stroke="black" d="M577.56,-241.65C591.98,-238.24 607.09,-234.31 621,-230 707.71,-203.11 731.28,-198.43 811,-155 824.55,-147.62 838.57,-137.94 850.26,-129.21"/>
<polygon fill="black" stroke="black" points="852.49,-131.91 858.33,-123.06 848.25,-126.34 852.49,-131.91"/>
</g>
<!-- CoreAddresses::assert_treasury_compliance -->
<g id="node5" class="node">
<title>CoreAddresses::assert_treasury_compliance</title>
<ellipse fill="none" stroke="black" cx="364" cy="-181" rx="108.58" ry="18"/>
<text text-anchor="middle" x="364" y="-177.3" font-family="Times,serif" font-size="14.00">assert_treasury_compliance</text>
</g>
<!-- assert_treasury_compliance&#45;&gt;CoreAddresses::assert_treasury_compliance -->
<g id="edge4" class="edge">
<title>assert_treasury_compliance&#45;&gt;CoreAddresses::assert_treasury_compliance</title>
<path fill="none" stroke="black" d="M479.15,-238.8C457.67,-228.2 429.41,-214.26 406.26,-202.84"/>
<polygon fill="black" stroke="black" points="407.53,-199.57 397.01,-198.28 404.43,-205.84 407.53,-199.57"/>
</g>
<!-- Signer::borrow_address -->
<g id="node6" class="node">
<title>Signer::borrow_address</title>
<ellipse fill="none" stroke="black" cx="83" cy="-34" rx="66.89" ry="18"/>
<text text-anchor="middle" x="83" y="-30.3" font-family="Times,serif" font-size="14.00">borrow_address</text>
</g>
<!-- Signer::address_of&#45;&gt;Signer::borrow_address -->
<g id="edge5" class="edge">
<title>Signer::address_of&#45;&gt;Signer::borrow_address</title>
<path fill="none" stroke="black" d="M96.64,-88.05C94.64,-80.26 92.21,-70.82 89.96,-62.08"/>
<polygon fill="black" stroke="black" points="93.32,-61.09 87.44,-52.28 86.54,-62.83 93.32,-61.09"/>
</g>
<!-- Errors::make -->
<g id="node7" class="node">
<title>Errors::make</title>
<ellipse fill="none" stroke="black" cx="742" cy="-34" rx="30.59" ry="18"/>
<text text-anchor="middle" x="742" y="-30.3" font-family="Times,serif" font-size="14.00">make</text>
</g>
<!-- Errors::not_published&#45;&gt;Errors::make -->
<g id="edge6" class="edge">
<title>Errors::not_published&#45;&gt;Errors::make</title>
<path fill="none" stroke="black" d="M742,-87.7C742,-79.98 742,-70.71 742,-62.11"/>
<polygon fill="black" stroke="black" points="745.5,-62.1 742,-52.1 738.5,-62.1 745.5,-62.1"/>
</g>
<!-- Errors::requires_role&#45;&gt;Errors::make -->
<g id="edge7" class="edge">
<title>Errors::requires_role&#45;&gt;Errors::make</title>
<path fill="none" stroke="black" d="M849.49,-90.33C827.17,-78.84 796.17,-62.88 773.19,-51.06"/>
<polygon fill="black" stroke="black" points="774.69,-47.89 764.2,-46.43 771.49,-54.11 774.69,-47.89"/>
</g>
<!-- CoreAddresses::assert_treasury_compliance&#45;&gt;Signer::address_of -->
<g id="edge8" class="edge">
<title>CoreAddresses::assert_treasury_compliance&#45;&gt;Signer::address_of</title>
<path fill="none" stroke="black" d="M266.89,-172.93C224.91,-168.86 181.08,-162.95 162,-155 148.12,-149.22 134.76,-139.36 124.09,-130.07"/>
<polygon fill="black" stroke="black" points="126.25,-127.31 116.5,-123.16 121.54,-132.48 126.25,-127.31"/>
</g>
<!-- Errors::requires_address -->
<g id="node8" class="node">
<title>Errors::requires_address</title>
<ellipse fill="none" stroke="black" cx="594" cy="-106" rx="69.59" ry="18"/>
<text text-anchor="middle" x="594" y="-102.3" font-family="Times,serif" font-size="14.00">requires_address</text>
</g>
<!-- CoreAddresses::assert_treasury_compliance&#45;&gt;Errors::requires_address -->
<g id="edge9" class="edge">
<title>CoreAddresses::assert_treasury_compliance&#45;&gt;Errors::requires_address</title>
<path fill="none" stroke="black" d="M452.23,-170.47C472.24,-166.84 493.14,-161.85 512,-155 529.72,-148.56 547.96,-138.31 562.72,-128.93"/>
<polygon fill="black" stroke="black" points="564.97,-131.64 571.43,-123.24 561.15,-125.78 564.97,-131.64"/>
</g>
<!-- CoreAddresses::TREASURY_COMPLIANCE_ADDRESS -->
<g id="node9" class="node">
<title>CoreAddresses::TREASURY_COMPLIANCE_ADDRESS</title>
<ellipse fill="none" stroke="black" cx="337" cy="-106" rx="163.27" ry="18"/>
<text text-anchor="middle" x="337" y="-102.3" font-family="Times,serif" font-size="14.00">TREASURY_COMPLIANCE_ADDRESS</text>
</g>
<!-- CoreAddresses::assert_treasury_compliance&#45;&gt;CoreAddresses::TREASURY_COMPLIANCE_ADDRESS -->
<g id="edge10" class="edge">
<title>CoreAddresses::assert_treasury_compliance&#45;&gt;CoreAddresses::TREASURY_COMPLIANCE_ADDRESS</title>
<path fill="none" stroke="black" d="M357.6,-162.7C354.41,-154.06 350.47,-143.42 346.9,-133.76"/>
<polygon fill="black" stroke="black" points="350.1,-132.34 343.35,-124.18 343.54,-134.77 350.1,-132.34"/>
</g>
<!-- Errors::requires_address&#45;&gt;Errors::make -->
<g id="edge11" class="edge">
<title>Errors::requires_address&#45;&gt;Errors::make</title>
<path fill="none" stroke="black" d="M625.75,-89.98C650.6,-78.23 685.02,-61.95 709.95,-50.16"/>
<polygon fill="black" stroke="black" points="711.46,-53.32 719,-45.88 708.46,-46.99 711.46,-53.32"/>
</g>
</g>
</svg>
