<?xml version="1.0" encoding="UTF-8" standalone="no"?>
<!DOCTYPE svg PUBLIC "-//W3C//DTD SVG 1.1//EN"
 "http://www.w3.org/Graphics/SVG/1.1/DTD/svg11.dtd">
<!-- Generated by graphviz version 2.46.1 (20210213.1702)
 -->
<!-- Title: G Pages: 1 -->
<svg width="1862pt" height="620pt"
 viewBox="0.00 0.00 1862.46 620.00" xmlns="http://www.w3.org/2000/svg" xmlns:xlink="http://www.w3.org/1999/xlink">
<g id="graph0" class="graph" transform="scale(1 1) rotate(0) translate(4 616)">
<title>G</title>
<polygon fill="white" stroke="transparent" points="-4,4 -4,-616 1858.46,-616 1858.46,4 -4,4"/>
<!-- Roles -->
<g id="node1" class="node">
<title>Roles</title>
<ellipse fill="none" stroke="black" cx="814.53" cy="-18" rx="30.59" ry="18"/>
<text text-anchor="middle" x="814.53" y="-14.3" font-family="Times,serif" font-size="14.00">Roles</text>
</g>
<!-- DiemConfig -->
<g id="node2" class="node">
<title>DiemConfig</title>
<ellipse fill="none" stroke="black" cx="1176.53" cy="-90" rx="54.69" ry="18"/>
<text text-anchor="middle" x="1176.53" y="-86.3" font-family="Times,serif" font-size="14.00">DiemConfig</text>
</g>
<!-- DiemConfig&#45;&gt;Roles -->
<g id="edge1" class="edge">
<title>DiemConfig&#45;&gt;Roles</title>
<path fill="none" stroke="black" d="M1130.69,-80.13C1058.81,-66.24 920.88,-39.56 853.5,-26.53"/>
<polygon fill="black" stroke="black" points="853.8,-23.03 843.31,-24.57 852.47,-29.9 853.8,-23.03"/>
</g>
<!-- RegisteredCurrencies -->
<g id="node3" class="node">
<title>RegisteredCurrencies</title>
<ellipse fill="none" stroke="black" cx="681.53" cy="-162" rx="86.38" ry="18"/>
<text text-anchor="middle" x="681.53" y="-158.3" font-family="Times,serif" font-size="14.00">RegisteredCurrencies</text>
</g>
<!-- RegisteredCurrencies&#45;&gt;Roles -->
<g id="edge2" class="edge">
<title>RegisteredCurrencies&#45;&gt;Roles</title>
<path fill="none" stroke="black" d="M697.31,-144.15C721.21,-118.64 766.64,-70.14 793.38,-41.59"/>
<polygon fill="black" stroke="black" points="796.11,-43.79 800.39,-34.1 791,-39.01 796.11,-43.79"/>
</g>
<!-- RegisteredCurrencies&#45;&gt;DiemConfig -->
<g id="edge17" class="edge">
<title>RegisteredCurrencies&#45;&gt;DiemConfig</title>
<path fill="none" stroke="black" d="M750.88,-151.19C848.72,-137.36 1025.58,-112.35 1117.49,-99.35"/>
<polygon fill="black" stroke="black" points="1118.05,-102.81 1127.46,-97.94 1117.07,-95.88 1118.05,-102.81"/>
</g>
<!-- Diem -->
<g id="node4" class="node">
<title>Diem</title>
<ellipse fill="none" stroke="black" cx="529.53" cy="-234" rx="30.59" ry="18"/>
<text text-anchor="middle" x="529.53" y="-230.3" font-family="Times,serif" font-size="14.00">Diem</text>
</g>
<!-- Diem&#45;&gt;Roles -->
<g id="edge3" class="edge">
<title>Diem&#45;&gt;Roles</title>
<path fill="none" stroke="black" d="M526.4,-215.99C521.44,-183.35 515.89,-111.67 553.53,-72 583.29,-40.64 708.84,-26.82 774.35,-21.64"/>
<polygon fill="black" stroke="black" points="774.62,-25.13 784.33,-20.88 774.09,-18.15 774.62,-25.13"/>
</g>
<!-- Diem&#45;&gt;RegisteredCurrencies -->
<g id="edge24" class="edge">
<title>Diem&#45;&gt;RegisteredCurrencies</title>
<path fill="none" stroke="black" d="M552.95,-222.22C575.7,-211.74 610.77,-195.59 638.54,-182.8"/>
<polygon fill="black" stroke="black" points="640.03,-185.97 647.65,-178.61 637.1,-179.61 640.03,-185.97"/>
</g>
<!-- AccountLimits -->
<g id="node5" class="node">
<title>AccountLimits</title>
<ellipse fill="none" stroke="black" cx="396.53" cy="-234" rx="63.89" ry="18"/>
<text text-anchor="middle" x="396.53" y="-230.3" font-family="Times,serif" font-size="14.00">AccountLimits</text>
</g>
<!-- AccountLimits&#45;&gt;Roles -->
<g id="edge4" class="edge">
<title>AccountLimits&#45;&gt;Roles</title>
<path fill="none" stroke="black" d="M405.21,-216.04C423.33,-182.51 468.61,-107.87 529.53,-72 607.11,-26.33 715.41,-18.6 773.63,-18.1"/>
<polygon fill="black" stroke="black" points="773.91,-21.6 783.9,-18.08 773.9,-14.6 773.91,-21.6"/>
</g>
<!-- ValidatorOperatorConfig -->
<g id="node6" class="node">
<title>ValidatorOperatorConfig</title>
<ellipse fill="none" stroke="black" cx="1440.53" cy="-234" rx="98.28" ry="18"/>
<text text-anchor="middle" x="1440.53" y="-230.3" font-family="Times,serif" font-size="14.00">ValidatorOperatorConfig</text>
</g>
<!-- ValidatorOperatorConfig&#45;&gt;Roles -->
<g id="edge5" class="edge">
<title>ValidatorOperatorConfig&#45;&gt;Roles</title>
<path fill="none" stroke="black" d="M1447.53,-216.02C1459.7,-183.43 1480.14,-111.82 1443.53,-72 1403.73,-28.7 988.32,-20.75 855.28,-19.31"/>
<polygon fill="black" stroke="black" points="855.14,-15.81 845.11,-19.21 855.07,-22.81 855.14,-15.81"/>
</g>
<!-- ValidatorConfig -->
<g id="node7" class="node">
<title>ValidatorConfig</title>
<ellipse fill="none" stroke="black" cx="1377.53" cy="-306" rx="66.89" ry="18"/>
<text text-anchor="middle" x="1377.53" y="-302.3" font-family="Times,serif" font-size="14.00">ValidatorConfig</text>
</g>
<!-- ValidatorConfig&#45;&gt;Roles -->
<g id="edge6" class="edge">
<title>ValidatorConfig&#45;&gt;Roles</title>
<path fill="none" stroke="black" d="M1359.02,-288.35C1340.96,-270.03 1318.27,-239.99 1333.53,-216 1353.82,-184.13 1390.25,-211.87 1410.53,-180 1419.12,-166.5 1418.72,-157.75 1410.53,-144 1376.13,-86.25 1341.65,-92.19 1277.53,-72 1127.09,-24.62 937.27,-18.67 855.3,-18.52"/>
<polygon fill="black" stroke="black" points="855.15,-15.02 845.15,-18.53 855.15,-22.02 855.15,-15.02"/>
</g>
<!-- ValidatorConfig&#45;&gt;ValidatorOperatorConfig -->
<g id="edge37" class="edge">
<title>ValidatorConfig&#45;&gt;ValidatorOperatorConfig</title>
<path fill="none" stroke="black" d="M1392.46,-288.41C1400.2,-279.82 1409.79,-269.16 1418.37,-259.63"/>
<polygon fill="black" stroke="black" points="1421.19,-261.73 1425.27,-251.96 1415.98,-257.05 1421.19,-261.73"/>
</g>
<!-- VASP -->
<g id="node8" class="node">
<title>VASP</title>
<ellipse fill="none" stroke="black" cx="179.53" cy="-306" rx="32.49" ry="18"/>
<text text-anchor="middle" x="179.53" y="-302.3" font-family="Times,serif" font-size="14.00">VASP</text>
</g>
<!-- VASP&#45;&gt;Roles -->
<g id="edge7" class="edge">
<title>VASP&#45;&gt;Roles</title>
<path fill="none" stroke="black" d="M177.09,-287.97C171.92,-244.41 165.06,-128.45 228.53,-72 269.18,-35.85 647.91,-23.16 773.95,-19.92"/>
<polygon fill="black" stroke="black" points="774.06,-23.42 783.97,-19.67 773.88,-16.42 774.06,-23.42"/>
</g>
<!-- VASP&#45;&gt;AccountLimits -->
<g id="edge35" class="edge">
<title>VASP&#45;&gt;AccountLimits</title>
<path fill="none" stroke="black" d="M207.02,-296.13C241.93,-284.87 302.85,-265.22 346.2,-251.24"/>
<polygon fill="black" stroke="black" points="347.54,-254.48 355.99,-248.08 345.39,-247.82 347.54,-254.48"/>
</g>
<!-- TransactionFee -->
<g id="node9" class="node">
<title>TransactionFee</title>
<ellipse fill="none" stroke="black" cx="310.53" cy="-378" rx="64.99" ry="18"/>
<text text-anchor="middle" x="310.53" y="-374.3" font-family="Times,serif" font-size="14.00">TransactionFee</text>
</g>
<!-- TransactionFee&#45;&gt;Roles -->
<g id="edge8" class="edge">
<title>TransactionFee&#45;&gt;Roles</title>
<path fill="none" stroke="black" d="M296.44,-360.32C276.53,-334.97 242.53,-284.47 242.53,-235 242.53,-235 242.53,-235 242.53,-161 242.53,-51.42 642.99,-25.8 773.76,-20.36"/>
<polygon fill="black" stroke="black" points="773.93,-23.85 783.78,-19.96 773.65,-16.86 773.93,-23.85"/>
</g>
<!-- TransactionFee&#45;&gt;Diem -->
<g id="edge27" class="edge">
<title>TransactionFee&#45;&gt;Diem</title>
<path fill="none" stroke="black" d="M334.81,-361.26C375.56,-334.83 457.55,-281.68 500.99,-253.51"/>
<polygon fill="black" stroke="black" points="503.17,-256.27 509.65,-247.89 499.36,-250.4 503.17,-256.27"/>
</g>
<!-- XUS -->
<g id="node19" class="node">
<title>XUS</title>
<ellipse fill="none" stroke="black" cx="529.53" cy="-306" rx="28.7" ry="18"/>
<text text-anchor="middle" x="529.53" y="-302.3" font-family="Times,serif" font-size="14.00">XUS</text>
</g>
<!-- TransactionFee&#45;&gt;XUS -->
<g id="edge72" class="edge">
<title>TransactionFee&#45;&gt;XUS</title>
<path fill="none" stroke="black" d="M351.47,-363.92C392.72,-350.73 455.7,-330.6 494.65,-318.15"/>
<polygon fill="black" stroke="black" points="496.03,-321.38 504.49,-315.01 493.9,-314.72 496.03,-321.38"/>
</g>
<!-- XDX -->
<g id="node20" class="node">
<title>XDX</title>
<ellipse fill="none" stroke="black" cx="338.53" cy="-306" rx="29.8" ry="18"/>
<text text-anchor="middle" x="338.53" y="-302.3" font-family="Times,serif" font-size="14.00">XDX</text>
</g>
<!-- TransactionFee&#45;&gt;XDX -->
<g id="edge76" class="edge">
<title>TransactionFee&#45;&gt;XDX</title>
<path fill="none" stroke="black" d="M317.31,-360.05C320.55,-351.97 324.49,-342.12 328.09,-333.11"/>
<polygon fill="black" stroke="black" points="331.35,-334.37 331.82,-323.79 324.86,-331.77 331.35,-334.37"/>
</g>
<!-- DualAttestation -->
<g id="node10" class="node">
<title>DualAttestation</title>
<ellipse fill="none" stroke="black" cx="85.53" cy="-378" rx="66.09" ry="18"/>
<text text-anchor="middle" x="85.53" y="-374.3" font-family="Times,serif" font-size="14.00">DualAttestation</text>
</g>
<!-- DualAttestation&#45;&gt;Roles -->
<g id="edge9" class="edge">
<title>DualAttestation&#45;&gt;Roles</title>
<path fill="none" stroke="black" d="M88.97,-359.59C93.94,-332.9 102.53,-280.19 102.53,-235 102.53,-235 102.53,-235 102.53,-161 102.53,-103.14 144.69,-95.55 197.53,-72 301.08,-25.85 652.73,-19.77 773.45,-19.06"/>
<polygon fill="black" stroke="black" points="773.75,-22.56 783.74,-19.01 773.72,-15.56 773.75,-22.56"/>
</g>
<!-- DualAttestation&#45;&gt;Diem -->
<g id="edge28" class="edge">
<title>DualAttestation&#45;&gt;Diem</title>
<path fill="none" stroke="black" d="M122.71,-363.02C149.95,-352.63 187.73,-337.9 220.53,-324 256.06,-308.94 262.89,-300.07 299.53,-288 372.89,-263.84 394.56,-270.54 469.53,-252 477.13,-250.12 485.23,-247.95 492.93,-245.79"/>
<polygon fill="black" stroke="black" points="494.09,-249.1 502.76,-243 492.18,-242.37 494.09,-249.1"/>
</g>
<!-- DualAttestation&#45;&gt;VASP -->
<g id="edge43" class="edge">
<title>DualAttestation&#45;&gt;VASP</title>
<path fill="none" stroke="black" d="M107.34,-360.76C120.85,-350.7 138.3,-337.71 152.66,-327.01"/>
<polygon fill="black" stroke="black" points="154.78,-329.8 160.71,-321.02 150.6,-324.18 154.78,-329.8"/>
</g>
<!-- DualAttestation&#45;&gt;XDX -->
<g id="edge77" class="edge">
<title>DualAttestation&#45;&gt;XDX</title>
<path fill="none" stroke="black" d="M135.42,-366.13C178.06,-356.42 240.86,-341.11 294.53,-324 297.91,-322.92 301.41,-321.72 304.88,-320.47"/>
<polygon fill="black" stroke="black" points="306.37,-323.66 314.51,-316.88 303.92,-317.1 306.37,-323.66"/>
</g>
<!-- DiemTransactionPublishingOption -->
<g id="node11" class="node">
<title>DiemTransactionPublishingOption</title>
<ellipse fill="none" stroke="black" cx="995.53" cy="-162" rx="133.78" ry="18"/>
<text text-anchor="middle" x="995.53" y="-158.3" font-family="Times,serif" font-size="14.00">DiemTransactionPublishingOption</text>
</g>
<!-- DiemTransactionPublishingOption&#45;&gt;Roles -->
<g id="edge10" class="edge">
<title>DiemTransactionPublishingOption&#45;&gt;Roles</title>
<path fill="none" stroke="black" d="M974.06,-144.15C940.6,-117.9 876.13,-67.33 840.25,-39.17"/>
<polygon fill="black" stroke="black" points="842.22,-36.27 832.2,-32.86 837.9,-41.78 842.22,-36.27"/>
</g>
<!-- DiemTransactionPublishingOption&#45;&gt;DiemConfig -->
<g id="edge18" class="edge">
<title>DiemTransactionPublishingOption&#45;&gt;DiemConfig</title>
<path fill="none" stroke="black" d="M1037.51,-144.76C1066.13,-133.7 1103.94,-119.08 1132.9,-107.88"/>
<polygon fill="black" stroke="black" points="1134.29,-111.09 1142.36,-104.22 1131.77,-104.56 1134.29,-111.09"/>
</g>
<!-- DesignatedDealer -->
<g id="node12" class="node">
<title>DesignatedDealer</title>
<ellipse fill="none" stroke="black" cx="656.53" cy="-378" rx="73.39" ry="18"/>
<text text-anchor="middle" x="656.53" y="-374.3" font-family="Times,serif" font-size="14.00">DesignatedDealer</text>
</g>
<!-- DesignatedDealer&#45;&gt;Roles -->
<g id="edge11" class="edge">
<title>DesignatedDealer&#45;&gt;Roles</title>
<path fill="none" stroke="black" d="M647.88,-359.83C624.64,-312.62 564.1,-181.89 586.53,-144 627.7,-74.49 722.74,-41.07 776.21,-27.26"/>
<polygon fill="black" stroke="black" points="777.14,-30.64 786,-24.83 775.45,-23.84 777.14,-30.64"/>
</g>
<!-- DesignatedDealer&#45;&gt;Diem -->
<g id="edge29" class="edge">
<title>DesignatedDealer&#45;&gt;Diem</title>
<path fill="none" stroke="black" d="M641.47,-360.15C618.77,-334.77 575.73,-286.65 550.14,-258.04"/>
<polygon fill="black" stroke="black" points="552.69,-255.64 543.42,-250.52 547.48,-260.31 552.69,-255.64"/>
</g>
<!-- DesignatedDealer&#45;&gt;XUS -->
<g id="edge73" class="edge">
<title>DesignatedDealer&#45;&gt;XUS</title>
<path fill="none" stroke="black" d="M628.03,-361.29C607.61,-350.03 580.17,-334.91 559.44,-323.48"/>
<polygon fill="black" stroke="black" points="560.88,-320.28 550.43,-318.52 557.5,-326.41 560.88,-320.28"/>
</g>
<!-- AccountFreezing -->
<g id="node13" class="node">
<title>AccountFreezing</title>
<ellipse fill="none" stroke="black" cx="1008.53" cy="-378" rx="71.49" ry="18"/>
<text text-anchor="middle" x="1008.53" y="-374.3" font-family="Times,serif" font-size="14.00">AccountFreezing</text>
</g>
<!-- AccountFreezing&#45;&gt;Roles -->
<g id="edge12" class="edge">
<title>AccountFreezing&#45;&gt;Roles</title>
<path fill="none" stroke="black" d="M965.72,-363.41C913.92,-343.98 833.53,-302.88 833.53,-235 833.53,-235 833.53,-235 833.53,-161 833.53,-120.64 825.9,-74.39 820.31,-45.94"/>
<polygon fill="black" stroke="black" points="823.7,-45.06 818.29,-35.95 816.84,-46.45 823.7,-45.06"/>
</g>
<!-- DiemAccount -->
<g id="node14" class="node">
<title>DiemAccount</title>
<ellipse fill="none" stroke="black" cx="564.53" cy="-450" rx="60.39" ry="18"/>
<text text-anchor="middle" x="564.53" y="-446.3" font-family="Times,serif" font-size="14.00">DiemAccount</text>
</g>
<!-- DiemAccount&#45;&gt;Roles -->
<g id="edge13" class="edge">
<title>DiemAccount&#45;&gt;Roles</title>
<path fill="none" stroke="black" d="M607.99,-437.43C663.46,-422.59 752.66,-398.47 755.53,-396 788.44,-367.75 795.53,-350.37 795.53,-307 795.53,-307 795.53,-307 795.53,-161 795.53,-120.64 803.17,-74.39 808.76,-45.94"/>
<polygon fill="black" stroke="black" points="812.23,-46.45 810.78,-35.95 805.37,-45.06 812.23,-46.45"/>
</g>
<!-- DiemAccount&#45;&gt;DiemConfig -->
<g id="edge19" class="edge">
<title>DiemAccount&#45;&gt;DiemConfig</title>
<path fill="none" stroke="black" d="M607.41,-437.2C614.76,-435.34 622.35,-433.53 629.53,-432 725.15,-411.61 758.71,-438.96 846.53,-396 867.72,-385.64 867.22,-374.87 885.53,-360 992.67,-273.02 1051.98,-287.48 1138.53,-180 1153.29,-161.67 1163.28,-136.76 1169.29,-117.95"/>
<polygon fill="black" stroke="black" points="1172.69,-118.8 1172.23,-108.21 1165.99,-116.77 1172.69,-118.8"/>
</g>
<!-- DiemAccount&#45;&gt;Diem -->
<g id="edge30" class="edge">
<title>DiemAccount&#45;&gt;Diem</title>
<path fill="none" stroke="black" d="M607.58,-437.27C657.78,-423.38 734.5,-401.44 738.53,-396 748.06,-383.14 746.43,-373.92 738.53,-360 701.75,-295.14 616.47,-260.33 566.96,-244.94"/>
<polygon fill="black" stroke="black" points="567.85,-241.55 557.26,-242.03 565.84,-248.25 567.85,-241.55"/>
</g>
<!-- DiemAccount&#45;&gt;AccountLimits -->
<g id="edge36" class="edge">
<title>DiemAccount&#45;&gt;AccountLimits</title>
<path fill="none" stroke="black" d="M551.35,-432.21C521.85,-394.63 450.38,-303.6 415.85,-259.61"/>
<polygon fill="black" stroke="black" points="418.58,-257.42 409.66,-251.71 413.08,-261.74 418.58,-257.42"/>
</g>
<!-- DiemAccount&#45;&gt;ValidatorOperatorConfig -->
<g id="edge38" class="edge">
<title>DiemAccount&#45;&gt;ValidatorOperatorConfig</title>
<path fill="none" stroke="black" d="M623.68,-445.76C741.73,-438.83 1002.65,-421.16 1088.53,-396 1190.39,-366.15 1204.48,-330.97 1301.53,-288 1329.49,-275.62 1361.31,-263.36 1387.45,-253.75"/>
<polygon fill="black" stroke="black" points="1388.97,-256.92 1397.17,-250.21 1386.57,-250.35 1388.97,-256.92"/>
</g>
<!-- DiemAccount&#45;&gt;ValidatorConfig -->
<g id="edge40" class="edge">
<title>DiemAccount&#45;&gt;ValidatorConfig</title>
<path fill="none" stroke="black" d="M607.03,-437.13C614.49,-435.26 622.21,-433.47 629.53,-432 742.19,-409.43 780.55,-442.68 885.53,-396 908.31,-385.87 905.65,-369.87 928.53,-360 993.88,-331.81 1191.94,-316.96 1301.91,-310.7"/>
<polygon fill="black" stroke="black" points="1302.16,-314.19 1311.95,-310.14 1301.77,-307.2 1302.16,-314.19"/>
</g>
<!-- DiemAccount&#45;&gt;VASP -->
<g id="edge44" class="edge">
<title>DiemAccount&#45;&gt;VASP</title>
<path fill="none" stroke="black" d="M506.11,-445.26C424.06,-439.07 279.88,-424.44 236.53,-396 213.86,-381.12 198.37,-353.75 189.32,-333.28"/>
<polygon fill="black" stroke="black" points="192.47,-331.75 185.4,-323.87 186.01,-334.44 192.47,-331.75"/>
</g>
<!-- DiemAccount&#45;&gt;TransactionFee -->
<g id="edge46" class="edge">
<title>DiemAccount&#45;&gt;TransactionFee</title>
<path fill="none" stroke="black" d="M521.73,-437.2C478.44,-425.27 411.39,-406.79 364.48,-393.87"/>
<polygon fill="black" stroke="black" points="365.36,-390.48 354.79,-391.2 363.5,-397.23 365.36,-390.48"/>
</g>
<!-- DiemAccount&#45;&gt;DualAttestation -->
<g id="edge49" class="edge">
<title>DiemAccount&#45;&gt;DualAttestation</title>
<path fill="none" stroke="black" d="M508.82,-442.98C431.5,-434.31 287.42,-417.01 165.53,-396 158.86,-394.85 151.89,-393.54 144.98,-392.16"/>
<polygon fill="black" stroke="black" points="145.42,-388.68 134.92,-390.12 144.02,-395.54 145.42,-388.68"/>
</g>
<!-- DiemAccount&#45;&gt;DiemTransactionPublishingOption -->
<g id="edge53" class="edge">
<title>DiemAccount&#45;&gt;DiemTransactionPublishingOption</title>
<path fill="none" stroke="black" d="M607.8,-437.31C615.04,-435.46 622.49,-433.62 629.53,-432 709.03,-413.67 739.86,-438.45 809.53,-396 894.69,-344.11 957.02,-238.36 982.65,-189.21"/>
<polygon fill="black" stroke="black" points="985.84,-190.66 987.28,-180.16 979.61,-187.47 985.84,-190.66"/>
</g>
<!-- DiemAccount&#45;&gt;DesignatedDealer -->
<g id="edge55" class="edge">
<title>DiemAccount&#45;&gt;DesignatedDealer</title>
<path fill="none" stroke="black" d="M585.87,-432.76C598.09,-423.47 613.61,-411.66 626.99,-401.48"/>
<polygon fill="black" stroke="black" points="629.15,-404.23 634.99,-395.39 624.92,-398.66 629.15,-404.23"/>
</g>
<!-- DiemAccount&#45;&gt;AccountFreezing -->
<g id="edge56" class="edge">
<title>DiemAccount&#45;&gt;AccountFreezing</title>
<path fill="none" stroke="black" d="M609.78,-437.85C619.25,-435.73 629.19,-433.66 638.53,-432 764.24,-409.68 797.52,-416.53 923.53,-396 930.68,-394.84 938.15,-393.51 945.56,-392.12"/>
<polygon fill="black" stroke="black" points="946.43,-395.52 955.59,-390.2 945.11,-388.64 946.43,-395.52"/>
</g>
<!-- DiemAccount&#45;&gt;XUS -->
<g id="edge74" class="edge">
<title>DiemAccount&#45;&gt;XUS</title>
<path fill="none" stroke="black" d="M555.62,-431.78C550.73,-421.62 544.98,-408.37 541.53,-396 535.86,-375.63 532.83,-351.87 531.23,-334.02"/>
<polygon fill="black" stroke="black" points="534.72,-333.7 530.43,-324.01 527.74,-334.26 534.72,-333.7"/>
</g>
<!-- DiemAccount&#45;&gt;XDX -->
<g id="edge78" class="edge">
<title>DiemAccount&#45;&gt;XDX</title>
<path fill="none" stroke="black" d="M534.56,-434.14C514.65,-423.98 488.12,-409.89 465.53,-396 429.63,-373.92 390.15,-345.56 364.89,-326.86"/>
<polygon fill="black" stroke="black" points="366.69,-323.84 356.58,-320.68 362.51,-329.46 366.69,-323.84"/>
</g>
<!-- DiemSystem -->
<g id="node15" class="node">
<title>DiemSystem</title>
<ellipse fill="none" stroke="black" cx="1377.53" cy="-378" rx="57.39" ry="18"/>
<text text-anchor="middle" x="1377.53" y="-374.3" font-family="Times,serif" font-size="14.00">DiemSystem</text>
</g>
<!-- DiemSystem&#45;&gt;Roles -->
<g id="edge14" class="edge">
<title>DiemSystem&#45;&gt;Roles</title>
<path fill="none" stroke="black" d="M1419.95,-365.68C1475.67,-347.94 1566.53,-307.85 1566.53,-235 1566.53,-235 1566.53,-235 1566.53,-161 1566.53,-101.17 1520.6,-95.4 1465.53,-72 1354.87,-24.98 980.81,-19.49 855.69,-18.99"/>
<polygon fill="black" stroke="black" points="855.41,-15.49 845.4,-18.96 855.39,-22.49 855.41,-15.49"/>
</g>
<!-- DiemSystem&#45;&gt;DiemConfig -->
<g id="edge20" class="edge">
<title>DiemSystem&#45;&gt;DiemConfig</title>
<path fill="none" stroke="black" d="M1349.68,-362.14C1334.07,-352.77 1315.07,-339.52 1301.53,-324 1242.48,-256.29 1253.76,-222.2 1209.53,-144 1204.39,-134.9 1198.43,-125.13 1193.01,-116.49"/>
<polygon fill="black" stroke="black" points="1195.92,-114.54 1187.61,-107.97 1190.01,-118.28 1195.92,-114.54"/>
</g>
<!-- DiemSystem&#45;&gt;ValidatorConfig -->
<g id="edge41" class="edge">
<title>DiemSystem&#45;&gt;ValidatorConfig</title>
<path fill="none" stroke="black" d="M1377.53,-359.7C1377.53,-351.98 1377.53,-342.71 1377.53,-334.11"/>
<polygon fill="black" stroke="black" points="1381.03,-334.1 1377.53,-324.1 1374.03,-334.1 1381.03,-334.1"/>
</g>
<!-- DiemVMConfig -->
<g id="node16" class="node">
<title>DiemVMConfig</title>
<ellipse fill="none" stroke="black" cx="1331.53" cy="-162" rx="69.59" ry="18"/>
<text text-anchor="middle" x="1331.53" y="-158.3" font-family="Times,serif" font-size="14.00">DiemVMConfig</text>
</g>
<!-- DiemVMConfig&#45;&gt;Roles -->
<g id="edge15" class="edge">
<title>DiemVMConfig&#45;&gt;Roles</title>
<path fill="none" stroke="black" d="M1319.9,-144.23C1304.42,-123.41 1274.98,-88.6 1240.53,-72 1172.9,-39.41 947.84,-25.29 855.06,-20.75"/>
<polygon fill="black" stroke="black" points="855.09,-17.25 844.94,-20.27 854.76,-24.24 855.09,-17.25"/>
</g>
<!-- DiemVMConfig&#45;&gt;DiemConfig -->
<g id="edge21" class="edge">
<title>DiemVMConfig&#45;&gt;DiemConfig</title>
<path fill="none" stroke="black" d="M1298.28,-145.98C1274.38,-135.19 1242.04,-120.58 1216.7,-109.14"/>
<polygon fill="black" stroke="black" points="1217.91,-105.85 1207.36,-104.92 1215.03,-112.23 1217.91,-105.85"/>
</g>
<!-- DiemVersion -->
<g id="node17" class="node">
<title>DiemVersion</title>
<ellipse fill="none" stroke="black" cx="1683.53" cy="-162" rx="57.69" ry="18"/>
<text text-anchor="middle" x="1683.53" y="-158.3" font-family="Times,serif" font-size="14.00">DiemVersion</text>
</g>
<!-- DiemVersion&#45;&gt;Roles -->
<g id="edge16" class="edge">
<title>DiemVersion&#45;&gt;Roles</title>
<path fill="none" stroke="black" d="M1670.3,-144.28C1652.47,-123.15 1618.55,-87.67 1580.53,-72 1447.5,-17.18 994.13,-17.13 855.28,-18.46"/>
<polygon fill="black" stroke="black" points="855.05,-14.96 845.08,-18.56 855.12,-21.96 855.05,-14.96"/>
</g>
<!-- DiemVersion&#45;&gt;DiemConfig -->
<g id="edge22" class="edge">
<title>DiemVersion&#45;&gt;DiemConfig</title>
<path fill="none" stroke="black" d="M1631.66,-153.84C1536.87,-140.75 1336.22,-113.05 1236.04,-99.22"/>
<polygon fill="black" stroke="black" points="1236.47,-95.74 1226.09,-97.84 1235.51,-102.68 1236.47,-95.74"/>
</g>
<!-- Genesis -->
<g id="node18" class="node">
<title>Genesis</title>
<ellipse fill="none" stroke="black" cx="1119.53" cy="-522" rx="38.19" ry="18"/>
<text text-anchor="middle" x="1119.53" y="-518.3" font-family="Times,serif" font-size="14.00">Genesis</text>
</g>
<!-- Genesis&#45;&gt;DiemConfig -->
<g id="edge23" class="edge">
<title>Genesis&#45;&gt;DiemConfig</title>
<path fill="none" stroke="black" d="M1131.3,-504.68C1137.89,-494.62 1145.56,-481.16 1149.53,-468 1187.65,-341.78 1182.57,-181.44 1178.62,-118.3"/>
<polygon fill="black" stroke="black" points="1182.09,-117.75 1177.93,-108.01 1175.1,-118.22 1182.09,-117.75"/>
</g>
<!-- Genesis&#45;&gt;Diem -->
<g id="edge31" class="edge">
<title>Genesis&#45;&gt;Diem</title>
<path fill="none" stroke="black" d="M1121.75,-503.96C1124.98,-471.28 1126.9,-399.52 1088.53,-360 1015.74,-285.01 685.65,-248.89 569.84,-238.37"/>
<polygon fill="black" stroke="black" points="569.9,-234.86 559.63,-237.46 569.28,-241.84 569.9,-234.86"/>
</g>
<!-- Genesis&#45;&gt;TransactionFee -->
<g id="edge47" class="edge">
<title>Genesis&#45;&gt;TransactionFee</title>
<path fill="none" stroke="black" d="M1091.48,-509.6C1085.02,-507.39 1078.12,-505.34 1071.53,-504 820.22,-452.69 743.71,-532.8 495.53,-468 439.42,-453.35 379.9,-421.37 343.98,-400.01"/>
<polygon fill="black" stroke="black" points="345.74,-396.98 335.37,-394.82 342.13,-402.98 345.74,-396.98"/>
</g>
<!-- Genesis&#45;&gt;DualAttestation -->
<g id="edge51" class="edge">
<title>Genesis&#45;&gt;DualAttestation</title>
<path fill="none" stroke="black" d="M1091.75,-509.58C1085.22,-507.34 1078.22,-505.29 1071.53,-504 881.99,-467.37 381.36,-543.16 203.53,-468 182.11,-458.94 183.74,-446.48 165.53,-432 151.28,-420.67 134.61,-409.35 120.19,-400.1"/>
<polygon fill="black" stroke="black" points="121.87,-397.02 111.54,-394.62 118.12,-402.93 121.87,-397.02"/>
</g>
<!-- Genesis&#45;&gt;DiemTransactionPublishingOption -->
<g id="edge54" class="edge">
<title>Genesis&#45;&gt;DiemTransactionPublishingOption</title>
<path fill="none" stroke="black" d="M1126.02,-504.1C1129.61,-493.84 1133.71,-480.36 1135.53,-468 1137.87,-452.17 1138,-447.81 1135.53,-432 1120.19,-333.53 1050.99,-233.6 1015.97,-188.21"/>
<polygon fill="black" stroke="black" points="1018.57,-185.85 1009.65,-180.13 1013.05,-190.17 1018.57,-185.85"/>
</g>
<!-- Genesis&#45;&gt;AccountFreezing -->
<g id="edge57" class="edge">
<title>Genesis&#45;&gt;AccountFreezing</title>
<path fill="none" stroke="black" d="M1106.8,-504.71C1087.52,-480.05 1050.77,-433.03 1028.08,-404.01"/>
<polygon fill="black" stroke="black" points="1030.72,-401.7 1021.81,-395.98 1025.21,-406.01 1030.72,-401.7"/>
</g>
<!-- Genesis&#45;&gt;DiemAccount -->
<g id="edge63" class="edge">
<title>Genesis&#45;&gt;DiemAccount</title>
<path fill="none" stroke="black" d="M1091.45,-509.74C1084.99,-507.52 1078.1,-505.44 1071.53,-504 899.33,-466.28 851.53,-489.24 676.53,-468 660.12,-466.01 642.42,-463.49 626.03,-461.01"/>
<polygon fill="black" stroke="black" points="626.44,-457.53 616.02,-459.47 625.38,-464.45 626.44,-457.53"/>
</g>
<!-- Genesis&#45;&gt;DiemSystem -->
<g id="edge67" class="edge">
<title>Genesis&#45;&gt;DiemSystem</title>
<path fill="none" stroke="black" d="M1153.22,-513.32C1185.5,-505.08 1234.88,-490.11 1273.53,-468 1277.89,-465.51 1321.87,-427.47 1351.23,-401.94"/>
<polygon fill="black" stroke="black" points="1353.83,-404.32 1359.07,-395.11 1349.23,-399.04 1353.83,-404.32"/>
</g>
<!-- Genesis&#45;&gt;DiemVMConfig -->
<g id="edge69" class="edge">
<title>Genesis&#45;&gt;DiemVMConfig</title>
<path fill="none" stroke="black" d="M1153.53,-513.47C1179.41,-506.06 1214.13,-492.23 1235.53,-468 1254.54,-446.48 1305.52,-260.56 1324.39,-190"/>
<polygon fill="black" stroke="black" points="1327.84,-190.65 1327.03,-180.09 1321.07,-188.85 1327.84,-190.65"/>
</g>
<!-- Genesis&#45;&gt;DiemVersion -->
<g id="edge70" class="edge">
<title>Genesis&#45;&gt;DiemVersion</title>
<path fill="none" stroke="black" d="M1157.91,-519.64C1270.29,-515.31 1597.16,-500.21 1698.53,-468 1773.88,-444.06 1852.53,-458.05 1852.53,-379 1852.53,-379 1852.53,-379 1852.53,-305 1852.53,-264.55 1860.23,-246.39 1833.53,-216 1811.75,-191.2 1777.63,-178.01 1747.42,-170.99"/>
<polygon fill="black" stroke="black" points="1747.86,-167.5 1737.35,-168.83 1746.4,-174.35 1747.86,-167.5"/>
</g>
<!-- Genesis&#45;&gt;XUS -->
<g id="edge75" class="edge">
<title>Genesis&#45;&gt;XUS</title>
<path fill="none" stroke="black" d="M1090.53,-510.07C1084.31,-507.91 1077.74,-505.77 1071.53,-504 962.83,-473.07 663.94,-465.15 574.53,-396 554.59,-380.58 542.78,-353.9 536.3,-333.77"/>
<polygon fill="black" stroke="black" points="539.58,-332.52 533.38,-323.93 532.87,-334.51 539.58,-332.52"/>
</g>
<!-- Genesis&#45;&gt;XDX -->
<g id="edge79" class="edge">
<title>Genesis&#45;&gt;XDX</title>
<path fill="none" stroke="black" d="M1091.49,-509.56C1085.03,-507.35 1078.12,-505.32 1071.53,-504 779.97,-445.77 692.99,-535.91 403.53,-468 324.84,-449.54 280.96,-463.53 236.53,-396 227.74,-382.63 228.23,-373.68 236.53,-360 250.43,-337.12 277.77,-323.66 300.65,-316.04"/>
<polygon fill="black" stroke="black" points="301.93,-319.31 310.46,-313.03 299.87,-312.62 301.93,-319.31"/>
</g>
<!-- DiemBlock -->
<g id="node28" class="node">
<title>DiemBlock</title>
<ellipse fill="none" stroke="black" cx="1377.53" cy="-450" rx="51.99" ry="18"/>
<text text-anchor="middle" x="1377.53" y="-446.3" font-family="Times,serif" font-size="14.00">DiemBlock</text>
</g>
<!-- Genesis&#45;&gt;DiemBlock -->
<g id="edge82" class="edge">
<title>Genesis&#45;&gt;DiemBlock</title>
<path fill="none" stroke="black" d="M1151.95,-512.21C1196.32,-500.17 1276.37,-478.45 1328.21,-464.38"/>
<polygon fill="black" stroke="black" points="1329.13,-467.76 1337.86,-461.76 1327.3,-461 1329.13,-467.76"/>
</g>
<!-- XUS&#45;&gt;Diem -->
<g id="edge25" class="edge">
<title>XUS&#45;&gt;Diem</title>
<path fill="none" stroke="black" d="M529.53,-287.7C529.53,-279.98 529.53,-270.71 529.53,-262.11"/>
<polygon fill="black" stroke="black" points="533.03,-262.1 529.53,-252.1 526.03,-262.1 533.03,-262.1"/>
</g>
<!-- XUS&#45;&gt;AccountLimits -->
<g id="edge33" class="edge">
<title>XUS&#45;&gt;AccountLimits</title>
<path fill="none" stroke="black" d="M508.17,-293.75C488.33,-283.31 458.35,-267.53 434.45,-254.96"/>
<polygon fill="black" stroke="black" points="435.77,-251.7 425.29,-250.14 432.51,-257.89 435.77,-251.7"/>
</g>
<!-- XDX&#45;&gt;Diem -->
<g id="edge26" class="edge">
<title>XDX&#45;&gt;Diem</title>
<path fill="none" stroke="black" d="M363.5,-295.85C397.01,-283.57 456.7,-261.69 494.64,-247.79"/>
<polygon fill="black" stroke="black" points="496.07,-250.99 504.25,-244.26 493.66,-244.42 496.07,-250.99"/>
</g>
<!-- XDX&#45;&gt;AccountLimits -->
<g id="edge34" class="edge">
<title>XDX&#45;&gt;AccountLimits</title>
<path fill="none" stroke="black" d="M351.41,-289.46C358.6,-280.78 367.74,-269.75 375.91,-259.89"/>
<polygon fill="black" stroke="black" points="378.8,-261.9 382.48,-251.96 373.41,-257.43 378.8,-261.9"/>
</g>
<!-- TreasuryComplianceScripts -->
<g id="node21" class="node">
<title>TreasuryComplianceScripts</title>
<ellipse fill="none" stroke="black" cx="331.53" cy="-522" rx="109.38" ry="18"/>
<text text-anchor="middle" x="331.53" y="-518.3" font-family="Times,serif" font-size="14.00">TreasuryComplianceScripts</text>
</g>
<!-- TreasuryComplianceScripts&#45;&gt;Diem -->
<g id="edge32" class="edge">
<title>TreasuryComplianceScripts&#45;&gt;Diem</title>
<path fill="none" stroke="black" d="M343.06,-503.96C369.21,-465.36 435.16,-368.33 491.53,-288 498.24,-278.45 505.7,-268 512.23,-258.92"/>
<polygon fill="black" stroke="black" points="515.14,-260.87 518.14,-250.71 509.46,-256.78 515.14,-260.87"/>
</g>
<!-- TreasuryComplianceScripts&#45;&gt;TransactionFee -->
<g id="edge48" class="edge">
<title>TreasuryComplianceScripts&#45;&gt;TransactionFee</title>
<path fill="none" stroke="black" d="M329,-503.87C325.42,-479.67 318.85,-435.21 314.59,-406.39"/>
<polygon fill="black" stroke="black" points="318,-405.57 313.08,-396.19 311.08,-406.59 318,-405.57"/>
</g>
<!-- TreasuryComplianceScripts&#45;&gt;DualAttestation -->
<g id="edge52" class="edge">
<title>TreasuryComplianceScripts&#45;&gt;DualAttestation</title>
<path fill="none" stroke="black" d="M302.83,-504.43C257.73,-478.4 170.36,-427.96 121.26,-399.62"/>
<polygon fill="black" stroke="black" points="122.96,-396.56 112.55,-394.6 119.46,-402.63 122.96,-396.56"/>
</g>
<!-- TreasuryComplianceScripts&#45;&gt;AccountFreezing -->
<g id="edge58" class="edge">
<title>TreasuryComplianceScripts&#45;&gt;AccountFreezing</title>
<path fill="none" stroke="black" d="M407.17,-509C468.39,-498.99 556.77,-483.83 633.53,-468 746.35,-444.73 877.02,-412.51 950.51,-393.9"/>
<polygon fill="black" stroke="black" points="951.66,-397.22 960.49,-391.37 949.94,-390.43 951.66,-397.22"/>
</g>
<!-- TreasuryComplianceScripts&#45;&gt;DiemAccount -->
<g id="edge65" class="edge">
<title>TreasuryComplianceScripts&#45;&gt;DiemAccount</title>
<path fill="none" stroke="black" d="M381.52,-505.98C420.6,-494.24 474.69,-477.99 513.92,-466.21"/>
<polygon fill="black" stroke="black" points="514.99,-469.54 523.56,-463.31 512.98,-462.84 514.99,-469.54"/>
</g>
<!-- ValidatorAdministrationScripts -->
<g id="node22" class="node">
<title>ValidatorAdministrationScripts</title>
<ellipse fill="none" stroke="black" cx="1568.53" cy="-450" rx="120.78" ry="18"/>
<text text-anchor="middle" x="1568.53" y="-446.3" font-family="Times,serif" font-size="14.00">ValidatorAdministrationScripts</text>
</g>
<!-- ValidatorAdministrationScripts&#45;&gt;ValidatorOperatorConfig -->
<g id="edge39" class="edge">
<title>ValidatorAdministrationScripts&#45;&gt;ValidatorOperatorConfig</title>
<path fill="none" stroke="black" d="M1558.28,-431.85C1535.85,-394.35 1482.33,-304.88 1455.88,-260.65"/>
<polygon fill="black" stroke="black" points="1458.8,-258.72 1450.66,-251.94 1452.79,-262.31 1458.8,-258.72"/>
</g>
<!-- ValidatorAdministrationScripts&#45;&gt;ValidatorConfig -->
<g id="edge42" class="edge">
<title>ValidatorAdministrationScripts&#45;&gt;ValidatorConfig</title>
<path fill="none" stroke="black" d="M1545.87,-432.15C1511.42,-406.54 1445.84,-357.78 1407.49,-329.27"/>
<polygon fill="black" stroke="black" points="1409.4,-326.33 1399.28,-323.17 1405.22,-331.94 1409.4,-326.33"/>
</g>
<!-- ValidatorAdministrationScripts&#45;&gt;DiemSystem -->
<g id="edge68" class="edge">
<title>ValidatorAdministrationScripts&#45;&gt;DiemSystem</title>
<path fill="none" stroke="black" d="M1525.19,-433.12C1494.7,-421.94 1453.98,-407.02 1423.03,-395.67"/>
<polygon fill="black" stroke="black" points="1423.94,-392.28 1413.34,-392.12 1421.53,-398.85 1423.94,-392.28"/>
</g>
<!-- RecoveryAddress -->
<g id="node23" class="node">
<title>RecoveryAddress</title>
<ellipse fill="none" stroke="black" cx="130.53" cy="-522" rx="73.39" ry="18"/>
<text text-anchor="middle" x="130.53" y="-518.3" font-family="Times,serif" font-size="14.00">RecoveryAddress</text>
</g>
<!-- RecoveryAddress&#45;&gt;VASP -->
<g id="edge45" class="edge">
<title>RecoveryAddress&#45;&gt;VASP</title>
<path fill="none" stroke="black" d="M103.27,-505.29C56.87,-476.54 -28.78,-413.53 10.53,-360 39.33,-320.79 97.09,-309.8 137.01,-307.13"/>
<polygon fill="black" stroke="black" points="137.2,-310.62 147,-306.61 136.83,-303.63 137.2,-310.62"/>
</g>
<!-- RecoveryAddress&#45;&gt;DiemAccount -->
<g id="edge60" class="edge">
<title>RecoveryAddress&#45;&gt;DiemAccount</title>
<path fill="none" stroke="black" d="M184.03,-509.62C193.83,-507.65 203.98,-505.7 213.53,-504 313.44,-486.24 430.03,-469.4 500.52,-459.64"/>
<polygon fill="black" stroke="black" points="501.15,-463.09 510.57,-458.26 500.19,-456.16 501.15,-463.09"/>
</g>
<!-- AccountAdministrationScripts -->
<g id="node24" class="node">
<title>AccountAdministrationScripts</title>
<ellipse fill="none" stroke="black" cx="299.53" cy="-594" rx="118.08" ry="18"/>
<text text-anchor="middle" x="299.53" y="-590.3" font-family="Times,serif" font-size="14.00">AccountAdministrationScripts</text>
</g>
<!-- AccountAdministrationScripts&#45;&gt;DualAttestation -->
<g id="edge50" class="edge">
<title>AccountAdministrationScripts&#45;&gt;DualAttestation</title>
<path fill="none" stroke="black" d="M198.7,-584.53C137.51,-577.06 67.64,-563.57 48.53,-540 16.7,-500.74 46.24,-439.22 67.73,-404.71"/>
<polygon fill="black" stroke="black" points="70.78,-406.44 73.25,-396.14 64.89,-402.65 70.78,-406.44"/>
</g>
<!-- AccountAdministrationScripts&#45;&gt;DiemAccount -->
<g id="edge61" class="edge">
<title>AccountAdministrationScripts&#45;&gt;DiemAccount</title>
<path fill="none" stroke="black" d="M358.71,-578.34C387.4,-569.7 421.62,-557.08 449.53,-540 469.38,-527.86 469.45,-518.64 487.53,-504 501.43,-492.75 517.62,-481.37 531.56,-472.06"/>
<polygon fill="black" stroke="black" points="533.49,-474.97 539.91,-466.54 529.63,-469.13 533.49,-474.97"/>
</g>
<!-- AccountAdministrationScripts&#45;&gt;RecoveryAddress -->
<g id="edge80" class="edge">
<title>AccountAdministrationScripts&#45;&gt;RecoveryAddress</title>
<path fill="none" stroke="black" d="M260.76,-576.94C235.42,-566.44 202.22,-552.69 175.69,-541.7"/>
<polygon fill="black" stroke="black" points="176.82,-538.38 166.24,-537.79 174.14,-544.85 176.82,-538.38"/>
</g>
<!-- SharedEd25519PublicKey -->
<g id="node25" class="node">
<title>SharedEd25519PublicKey</title>
<ellipse fill="none" stroke="black" cx="600.53" cy="-522" rx="103.98" ry="18"/>
<text text-anchor="middle" x="600.53" y="-518.3" font-family="Times,serif" font-size="14.00">SharedEd25519PublicKey</text>
</g>
<!-- AccountAdministrationScripts&#45;&gt;SharedEd25519PublicKey -->
<g id="edge81" class="edge">
<title>AccountAdministrationScripts&#45;&gt;SharedEd25519PublicKey</title>
<path fill="none" stroke="black" d="M361.54,-578.58C410.91,-567.1 479.98,-551.04 531.18,-539.13"/>
<polygon fill="black" stroke="black" points="532.23,-542.48 541.17,-536.8 530.64,-535.66 532.23,-542.48"/>
</g>
<!-- SharedEd25519PublicKey&#45;&gt;DiemAccount -->
<g id="edge59" class="edge">
<title>SharedEd25519PublicKey&#45;&gt;DiemAccount</title>
<path fill="none" stroke="black" d="M591.82,-504.05C587.68,-496.01 582.64,-486.2 578.02,-477.23"/>
<polygon fill="black" stroke="black" points="581.11,-475.57 573.42,-468.28 574.88,-478.77 581.11,-475.57"/>
</g>
<!-- AccountCreationScripts -->
<g id="node26" class="node">
<title>AccountCreationScripts</title>
<ellipse fill="none" stroke="black" cx="817.53" cy="-522" rx="94.78" ry="18"/>
<text text-anchor="middle" x="817.53" y="-518.3" font-family="Times,serif" font-size="14.00">AccountCreationScripts</text>
</g>
<!-- AccountCreationScripts&#45;&gt;DiemAccount -->
<g id="edge62" class="edge">
<title>AccountCreationScripts&#45;&gt;DiemAccount</title>
<path fill="none" stroke="black" d="M766.34,-506.83C722.93,-494.83 660.94,-477.67 617.14,-465.56"/>
<polygon fill="black" stroke="black" points="617.83,-462.11 607.26,-462.82 615.96,-468.86 617.83,-462.11"/>
</g>
<!-- PaymentScripts -->
<g id="node27" class="node">
<title>PaymentScripts</title>
<ellipse fill="none" stroke="black" cx="996.53" cy="-522" rx="66.09" ry="18"/>
<text text-anchor="middle" x="996.53" y="-518.3" font-family="Times,serif" font-size="14.00">PaymentScripts</text>
</g>
<!-- PaymentScripts&#45;&gt;DiemAccount -->
<g id="edge64" class="edge">
<title>PaymentScripts&#45;&gt;DiemAccount</title>
<path fill="none" stroke="black" d="M948.23,-509.48C939.38,-507.53 930.2,-505.62 921.53,-504 813.34,-483.82 785.39,-484.26 676.53,-468 660.43,-465.59 643.02,-462.97 626.84,-460.51"/>
<polygon fill="black" stroke="black" points="627.36,-457.05 616.95,-459.01 626.31,-463.97 627.36,-457.05"/>
</g>
<!-- DiemBlock&#45;&gt;DiemSystem -->
<g id="edge66" class="edge">
<title>DiemBlock&#45;&gt;DiemSystem</title>
<path fill="none" stroke="black" d="M1377.53,-431.7C1377.53,-423.98 1377.53,-414.71 1377.53,-406.11"/>
<polygon fill="black" stroke="black" points="1381.03,-406.1 1377.53,-396.1 1374.03,-406.1 1381.03,-406.1"/>
</g>
<!-- SystemAdministrationScripts -->
<g id="node29" class="node">
<title>SystemAdministrationScripts</title>
<ellipse fill="none" stroke="black" cx="1709.53" cy="-234" rx="115.08" ry="18"/>
<text text-anchor="middle" x="1709.53" y="-230.3" font-family="Times,serif" font-size="14.00">SystemAdministrationScripts</text>
</g>
<!-- SystemAdministrationScripts&#45;&gt;DiemVersion -->
<g id="edge71" class="edge">
<title>SystemAdministrationScripts&#45;&gt;DiemVersion</title>
<path fill="none" stroke="black" d="M1703.11,-215.7C1700.18,-207.81 1696.65,-198.3 1693.39,-189.55"/>
<polygon fill="black" stroke="black" points="1696.65,-188.26 1689.89,-180.1 1690.09,-190.7 1696.65,-188.26"/>
</g>
</g>
</svg>
