<?xml version="1.0" encoding="UTF-8" standalone="no"?>
<!DOCTYPE svg PUBLIC "-//W3C//DTD SVG 1.1//EN"
 "http://www.w3.org/Graphics/SVG/1.1/DTD/svg11.dtd">
<!-- Generated by graphviz version 2.46.1 (20210213.1702)
 -->
<!-- Title: G Pages: 1 -->
<svg width="1635pt" height="365pt"
 viewBox="0.00 0.00 1635.00 365.00" xmlns="http://www.w3.org/2000/svg" xmlns:xlink="http://www.w3.org/1999/xlink">
<g id="graph0" class="graph" transform="scale(1 1) rotate(0) translate(4 361)">
<title>G</title>
<polygon fill="white" stroke="transparent" points="-4,4 -4,-361 1631,-361 1631,4 -4,4"/>
<g id="clust1" class="cluster">
<title>cluster_CoreAddresses</title>
<polygon fill="none" stroke="black" points="154,-80 154,-238 728,-238 728,-80 154,-80"/>
<text text-anchor="middle" x="441" y="-222.8" font-family="Times,serif" font-size="14.00">CoreAddresses</text>
</g>
<g id="clust2" class="cluster">
<title>cluster_DiemTimestamp</title>
<polygon fill="none" stroke="black" points="8,-163 8,-313 146,-313 146,-163 8,-163"/>
<text text-anchor="middle" x="77" y="-297.8" font-family="Times,serif" font-size="14.00">DiemTimestamp</text>
</g>
<g id="clust3" class="cluster">
<title>cluster_Signer</title>
<polygon fill="none" stroke="black" points="736,-8 736,-155 886,-155 886,-8 736,-8"/>
<text text-anchor="middle" x="811" y="-139.8" font-family="Times,serif" font-size="14.00">Signer</text>
</g>
<g id="clust4" class="cluster">
<title>cluster_Errors</title>
<polygon fill="none" stroke="black" points="894,-8 894,-155 1619,-155 1619,-8 894,-8"/>
<text text-anchor="middle" x="1256.5" y="-139.8" font-family="Times,serif" font-size="14.00">Errors</text>
</g>
<!-- grant_treasury_compliance_role -->
<g id="node1" class="node">
<title>grant_treasury_compliance_role</title>
<ellipse fill="none" stroke="black" cx="709" cy="-339" rx="124.58" ry="18"/>
<text text-anchor="middle" x="709" y="-335.3" font-family="Times,serif" font-size="14.00">grant_treasury_compliance_role</text>
</g>
<!-- CoreAddresses::assert_treasury_compliance -->
<g id="node2" class="node">
<title>CoreAddresses::assert_treasury_compliance</title>
<ellipse fill="none" stroke="black" cx="611" cy="-189" rx="108.58" ry="18"/>
<text text-anchor="middle" x="611" y="-185.3" font-family="Times,serif" font-size="14.00">assert_treasury_compliance</text>
</g>
<!-- grant_treasury_compliance_role&#45;&gt;CoreAddresses::assert_treasury_compliance -->
<g id="edge1" class="edge">
<title>grant_treasury_compliance_role&#45;&gt;CoreAddresses::assert_treasury_compliance</title>
<path fill="none" stroke="black" d="M695.74,-320.92C693.78,-318.29 691.81,-315.59 690,-313 666.94,-280.03 642.14,-240.73 626.61,-215.58"/>
<polygon fill="black" stroke="black" points="629.54,-213.67 621.32,-206.99 623.58,-217.34 629.54,-213.67"/>
</g>
<!-- DiemTimestamp::assert_genesis -->
<g id="node3" class="node">
<title>DiemTimestamp::assert_genesis</title>
<ellipse fill="none" stroke="black" cx="77" cy="-264" rx="61.19" ry="18"/>
<text text-anchor="middle" x="77" y="-260.3" font-family="Times,serif" font-size="14.00">assert_genesis</text>
</g>
<!-- grant_treasury_compliance_role&#45;&gt;DiemTimestamp::assert_genesis -->
<g id="edge2" class="edge">
<title>grant_treasury_compliance_role&#45;&gt;DiemTimestamp::assert_genesis</title>
<path fill="none" stroke="black" d="M615.07,-327.15C485.69,-312.21 255.89,-285.66 143.13,-272.64"/>
<polygon fill="black" stroke="black" points="143.25,-269.13 132.92,-271.46 142.45,-276.08 143.25,-269.13"/>
</g>
<!-- assert_diem_root -->
<g id="node4" class="node">
<title>assert_diem_root</title>
<ellipse fill="none" stroke="black" cx="770" cy="-264" rx="71.49" ry="18"/>
<text text-anchor="middle" x="770" y="-260.3" font-family="Times,serif" font-size="14.00">assert_diem_root</text>
</g>
<!-- grant_treasury_compliance_role&#45;&gt;assert_diem_root -->
<g id="edge3" class="edge">
<title>grant_treasury_compliance_role&#45;&gt;assert_diem_root</title>
<path fill="none" stroke="black" d="M723.15,-321.07C730.92,-311.76 740.71,-300.05 749.33,-289.74"/>
<polygon fill="black" stroke="black" points="752.2,-291.76 755.93,-281.84 746.83,-287.27 752.2,-291.76"/>
</g>
<!-- grant_role -->
<g id="node5" class="node">
<title>grant_role</title>
<ellipse fill="none" stroke="black" cx="883" cy="-189" rx="46.59" ry="18"/>
<text text-anchor="middle" x="883" y="-185.3" font-family="Times,serif" font-size="14.00">grant_role</text>
</g>
<!-- grant_treasury_compliance_role&#45;&gt;grant_role -->
<g id="edge4" class="edge">
<title>grant_treasury_compliance_role&#45;&gt;grant_role</title>
<path fill="none" stroke="black" d="M808.34,-328.05C826.97,-324.43 842.85,-319.55 850,-313 876.47,-288.73 882.64,-245.74 883.61,-217.55"/>
<polygon fill="black" stroke="black" points="887.11,-217.24 883.75,-207.19 880.11,-217.14 887.11,-217.24"/>
</g>
<!-- Signer::address_of -->
<g id="node6" class="node">
<title>Signer::address_of</title>
<ellipse fill="none" stroke="black" cx="793" cy="-106" rx="48.99" ry="18"/>
<text text-anchor="middle" x="793" y="-102.3" font-family="Times,serif" font-size="14.00">address_of</text>
</g>
<!-- CoreAddresses::assert_treasury_compliance&#45;&gt;Signer::address_of -->
<g id="edge5" class="edge">
<title>CoreAddresses::assert_treasury_compliance&#45;&gt;Signer::address_of</title>
<path fill="none" stroke="black" d="M678.08,-174.81C696.13,-169.91 715.27,-163.42 732,-155 745.14,-148.38 758.17,-138.68 768.79,-129.73"/>
<polygon fill="black" stroke="black" points="771.16,-132.3 776.4,-123.09 766.56,-127.02 771.16,-132.3"/>
</g>
<!-- Errors::requires_address -->
<g id="node7" class="node">
<title>Errors::requires_address</title>
<ellipse fill="none" stroke="black" cx="972" cy="-106" rx="69.59" ry="18"/>
<text text-anchor="middle" x="972" y="-102.3" font-family="Times,serif" font-size="14.00">requires_address</text>
</g>
<!-- CoreAddresses::assert_treasury_compliance&#45;&gt;Errors::requires_address -->
<g id="edge6" class="edge">
<title>CoreAddresses::assert_treasury_compliance&#45;&gt;Errors::requires_address</title>
<path fill="none" stroke="black" d="M689.25,-176.39C721.63,-171.82 759.58,-166.78 794,-163 836.56,-158.32 849.18,-167.91 890,-155 908.41,-149.18 927.12,-138.65 942.01,-128.93"/>
<polygon fill="black" stroke="black" points="943.97,-131.83 950.31,-123.34 940.06,-126.03 943.97,-131.83"/>
</g>
<!-- CoreAddresses::TREASURY_COMPLIANCE_ADDRESS -->
<g id="node8" class="node">
<title>CoreAddresses::TREASURY_COMPLIANCE_ADDRESS</title>
<ellipse fill="none" stroke="black" cx="557" cy="-106" rx="163.27" ry="18"/>
<text text-anchor="middle" x="557" y="-102.3" font-family="Times,serif" font-size="14.00">TREASURY_COMPLIANCE_ADDRESS</text>
</g>
<!-- CoreAddresses::assert_treasury_compliance&#45;&gt;CoreAddresses::TREASURY_COMPLIANCE_ADDRESS -->
<g id="edge7" class="edge">
<title>CoreAddresses::assert_treasury_compliance&#45;&gt;CoreAddresses::TREASURY_COMPLIANCE_ADDRESS</title>
<path fill="none" stroke="black" d="M599.55,-170.82C592.17,-159.76 582.45,-145.18 574.16,-132.75"/>
<polygon fill="black" stroke="black" points="576.89,-130.53 568.44,-124.15 571.07,-134.42 576.89,-130.53"/>
</g>
<!-- Errors::invalid_state -->
<g id="node9" class="node">
<title>Errors::invalid_state</title>
<ellipse fill="none" stroke="black" cx="1115" cy="-106" rx="55.79" ry="18"/>
<text text-anchor="middle" x="1115" y="-102.3" font-family="Times,serif" font-size="14.00">invalid_state</text>
</g>
<!-- DiemTimestamp::assert_genesis&#45;&gt;Errors::invalid_state -->
<g id="edge8" class="edge">
<title>DiemTimestamp::assert_genesis&#45;&gt;Errors::invalid_state</title>
<path fill="none" stroke="black" d="M138.11,-262.82C290.18,-262.07 677.28,-258.17 732,-238 782.47,-219.39 776.5,-181.55 827,-163 873.76,-145.83 1004.04,-171.59 1051,-155 1065.86,-149.75 1080.12,-139.73 1091.39,-130.19"/>
<polygon fill="black" stroke="black" points="1093.88,-132.66 1099.04,-123.41 1089.23,-127.42 1093.88,-132.66"/>
</g>
<!-- DiemTimestamp::is_genesis -->
<g id="node10" class="node">
<title>DiemTimestamp::is_genesis</title>
<ellipse fill="none" stroke="black" cx="84" cy="-189" rx="46.59" ry="18"/>
<text text-anchor="middle" x="84" y="-185.3" font-family="Times,serif" font-size="14.00">is_genesis</text>
</g>
<!-- DiemTimestamp::assert_genesis&#45;&gt;DiemTimestamp::is_genesis -->
<g id="edge9" class="edge">
<title>DiemTimestamp::assert_genesis&#45;&gt;DiemTimestamp::is_genesis</title>
<path fill="none" stroke="black" d="M78.66,-245.7C79.47,-237.25 80.46,-226.87 81.38,-217.37"/>
<polygon fill="black" stroke="black" points="84.88,-217.46 82.35,-207.18 77.91,-216.8 84.88,-217.46"/>
</g>
<!-- assert_diem_root&#45;&gt;Signer::address_of -->
<g id="edge10" class="edge">
<title>assert_diem_root&#45;&gt;Signer::address_of</title>
<path fill="none" stroke="black" d="M772.51,-246.01C776.46,-219.19 784.18,-166.79 788.94,-134.54"/>
<polygon fill="black" stroke="black" points="792.43,-134.85 790.43,-124.45 785.51,-133.83 792.43,-134.85"/>
</g>
<!-- Errors::not_published -->
<g id="node11" class="node">
<title>Errors::not_published</title>
<ellipse fill="none" stroke="black" cx="1551" cy="-106" rx="60.39" ry="18"/>
<text text-anchor="middle" x="1551" y="-102.3" font-family="Times,serif" font-size="14.00">not_published</text>
</g>
<!-- assert_diem_root&#45;&gt;Errors::not_published -->
<g id="edge11" class="edge">
<title>assert_diem_root&#45;&gt;Errors::not_published</title>
<path fill="none" stroke="black" d="M841.29,-262.03C917.41,-260.12 1041.36,-254.49 1147,-238 1298.13,-214.4 1341.48,-217.69 1481,-155 1495.96,-148.28 1511.15,-138.33 1523.53,-129.22"/>
<polygon fill="black" stroke="black" points="1525.75,-131.93 1531.62,-123.11 1521.53,-126.35 1525.75,-131.93"/>
</g>
<!-- Errors::requires_role -->
<g id="node12" class="node">
<title>Errors::requires_role</title>
<ellipse fill="none" stroke="black" cx="1415" cy="-106" rx="57.39" ry="18"/>
<text text-anchor="middle" x="1415" y="-102.3" font-family="Times,serif" font-size="14.00">requires_role</text>
</g>
<!-- assert_diem_root&#45;&gt;Errors::requires_role -->
<g id="edge12" class="edge">
<title>assert_diem_root&#45;&gt;Errors::requires_role</title>
<path fill="none" stroke="black" d="M831.54,-254.7C863.63,-250.17 903.5,-244.22 939,-238 1121.7,-205.97 1177.96,-229.09 1348,-155 1362.57,-148.65 1377.1,-138.78 1388.89,-129.64"/>
<polygon fill="black" stroke="black" points="1391.35,-132.15 1396.96,-123.17 1386.97,-126.69 1391.35,-132.15"/>
</g>
<!-- CoreAddresses::assert_diem_root -->
<g id="node13" class="node">
<title>CoreAddresses::assert_diem_root</title>
<ellipse fill="none" stroke="black" cx="413" cy="-189" rx="71.49" ry="18"/>
<text text-anchor="middle" x="413" y="-185.3" font-family="Times,serif" font-size="14.00">assert_diem_root</text>
</g>
<!-- assert_diem_root&#45;&gt;CoreAddresses::assert_diem_root -->
<g id="edge13" class="edge">
<title>assert_diem_root&#45;&gt;CoreAddresses::assert_diem_root</title>
<path fill="none" stroke="black" d="M699.78,-260.24C630.61,-256.87 530.07,-250.09 493,-238 475.15,-232.18 457.06,-221.78 442.6,-212.15"/>
<polygon fill="black" stroke="black" points="444.33,-209.09 434.11,-206.3 440.36,-214.86 444.33,-209.09"/>
</g>
<!-- grant_role&#45;&gt;Signer::address_of -->
<g id="edge14" class="edge">
<title>grant_role&#45;&gt;Signer::address_of</title>
<path fill="none" stroke="black" d="M865.22,-172C851.78,-159.9 833.16,-143.14 818.19,-129.67"/>
<polygon fill="black" stroke="black" points="820.52,-127.06 810.74,-122.97 815.84,-132.26 820.52,-127.06"/>
</g>
<!-- Errors::already_published -->
<g id="node14" class="node">
<title>Errors::already_published</title>
<ellipse fill="none" stroke="black" cx="1264" cy="-106" rx="75.29" ry="18"/>
<text text-anchor="middle" x="1264" y="-102.3" font-family="Times,serif" font-size="14.00">already_published</text>
</g>
<!-- grant_role&#45;&gt;Errors::already_published -->
<g id="edge15" class="edge">
<title>grant_role&#45;&gt;Errors::already_published</title>
<path fill="none" stroke="black" d="M930.02,-188.6C989.64,-188.07 1094.91,-182.72 1180,-155 1198.56,-148.96 1217.57,-138.51 1232.81,-128.9"/>
<polygon fill="black" stroke="black" points="1234.83,-131.76 1241.31,-123.38 1231.02,-125.89 1234.83,-131.76"/>
</g>
<!-- Signer::borrow_address -->
<g id="node15" class="node">
<title>Signer::borrow_address</title>
<ellipse fill="none" stroke="black" cx="811" cy="-34" rx="66.89" ry="18"/>
<text text-anchor="middle" x="811" y="-30.3" font-family="Times,serif" font-size="14.00">borrow_address</text>
</g>
<!-- Signer::address_of&#45;&gt;Signer::borrow_address -->
<g id="edge16" class="edge">
<title>Signer::address_of&#45;&gt;Signer::borrow_address</title>
<path fill="none" stroke="black" d="M797.36,-88.05C799.36,-80.26 801.79,-70.82 804.04,-62.08"/>
<polygon fill="black" stroke="black" points="807.46,-62.83 806.56,-52.28 800.68,-61.09 807.46,-62.83"/>
</g>
<!-- Errors::make -->
<g id="node16" class="node">
<title>Errors::make</title>
<ellipse fill="none" stroke="black" cx="1264" cy="-34" rx="30.59" ry="18"/>
<text text-anchor="middle" x="1264" y="-30.3" font-family="Times,serif" font-size="14.00">make</text>
</g>
<!-- Errors::requires_address&#45;&gt;Errors::make -->
<g id="edge17" class="edge">
<title>Errors::requires_address&#45;&gt;Errors::make</title>
<path fill="none" stroke="black" d="M1012.25,-91.23C1024.31,-87.34 1037.63,-83.27 1050,-80 1110.52,-63.98 1181.87,-49.93 1224.98,-41.95"/>
<polygon fill="black" stroke="black" points="1225.84,-45.36 1235.05,-40.11 1224.58,-38.47 1225.84,-45.36"/>
</g>
<!-- Errors::invalid_state&#45;&gt;Errors::make -->
<g id="edge18" class="edge">
<title>Errors::invalid_state&#45;&gt;Errors::make</title>
<path fill="none" stroke="black" d="M1145.15,-90.83C1170.19,-79.07 1205.72,-62.38 1231.41,-50.31"/>
<polygon fill="black" stroke="black" points="1233.17,-53.35 1240.73,-45.93 1230.19,-47.02 1233.17,-53.35"/>
</g>
<!-- CoreAddresses::DIEM_ROOT_ADDRESS -->
<g id="node17" class="node">
<title>CoreAddresses::DIEM_ROOT_ADDRESS</title>
<ellipse fill="none" stroke="black" cx="269" cy="-106" rx="106.68" ry="18"/>
<text text-anchor="middle" x="269" y="-102.3" font-family="Times,serif" font-size="14.00">DIEM_ROOT_ADDRESS</text>
</g>
<!-- DiemTimestamp::is_genesis&#45;&gt;CoreAddresses::DIEM_ROOT_ADDRESS -->
<g id="edge19" class="edge">
<title>DiemTimestamp::is_genesis&#45;&gt;CoreAddresses::DIEM_ROOT_ADDRESS</title>
<path fill="none" stroke="black" d="M113.72,-174.99C143.23,-162.07 188.86,-142.09 223.03,-127.13"/>
<polygon fill="black" stroke="black" points="224.59,-130.27 232.35,-123.05 221.78,-123.85 224.59,-130.27"/>
</g>
<!-- Errors::not_published&#45;&gt;Errors::make -->
<g id="edge20" class="edge">
<title>Errors::not_published&#45;&gt;Errors::make</title>
<path fill="none" stroke="black" d="M1515.7,-91.32C1504.69,-87.34 1492.43,-83.21 1481,-80 1419.62,-62.76 1346.77,-48.99 1303.03,-41.41"/>
<polygon fill="black" stroke="black" points="1303.54,-37.95 1293.09,-39.71 1302.36,-44.85 1303.54,-37.95"/>
</g>
<!-- Errors::requires_role&#45;&gt;Errors::make -->
<g id="edge21" class="edge">
<title>Errors::requires_role&#45;&gt;Errors::make</title>
<path fill="none" stroke="black" d="M1384.08,-90.67C1358.68,-78.89 1322.79,-62.25 1296.87,-50.24"/>
<polygon fill="black" stroke="black" points="1298.01,-46.91 1287.47,-45.88 1295.07,-53.26 1298.01,-46.91"/>
</g>
<!-- CoreAddresses::assert_diem_root&#45;&gt;Signer::address_of -->
<g id="edge22" class="edge">
<title>CoreAddresses::assert_diem_root&#45;&gt;Signer::address_of</title>
<path fill="none" stroke="black" d="M451.55,-173.65C464.53,-169.44 479.23,-165.34 493,-163 519.2,-158.55 707.04,-164.11 732,-155 746.32,-149.77 759.9,-139.79 770.6,-130.27"/>
<polygon fill="black" stroke="black" points="773.27,-132.56 778.18,-123.17 768.49,-127.45 773.27,-132.56"/>
</g>
<!-- CoreAddresses::assert_diem_root&#45;&gt;Errors::requires_address -->
<g id="edge23" class="edge">
<title>CoreAddresses::assert_diem_root&#45;&gt;Errors::requires_address</title>
<path fill="none" stroke="black" d="M451.13,-173.67C464.21,-169.41 479.07,-165.27 493,-163 536.55,-155.9 847.54,-166.98 890,-155 908.85,-149.69 927.85,-138.98 942.8,-129.02"/>
<polygon fill="black" stroke="black" points="944.87,-131.85 951.11,-123.3 940.89,-126.09 944.87,-131.85"/>
</g>
<!-- CoreAddresses::assert_diem_root&#45;&gt;CoreAddresses::DIEM_ROOT_ADDRESS -->
<g id="edge24" class="edge">
<title>CoreAddresses::assert_diem_root&#45;&gt;CoreAddresses::DIEM_ROOT_ADDRESS</title>
<path fill="none" stroke="black" d="M385.24,-172.38C362.96,-159.85 331.47,-142.14 306.88,-128.31"/>
<polygon fill="black" stroke="black" points="308.59,-125.26 298.16,-123.4 305.16,-131.36 308.59,-125.26"/>
</g>
<!-- Errors::already_published&#45;&gt;Errors::make -->
<g id="edge25" class="edge">
<title>Errors::already_published&#45;&gt;Errors::make</title>
<path fill="none" stroke="black" d="M1264,-87.7C1264,-79.98 1264,-70.71 1264,-62.11"/>
<polygon fill="black" stroke="black" points="1267.5,-62.1 1264,-52.1 1260.5,-62.1 1267.5,-62.1"/>
</g>
</g>
</svg>
