<?xml version="1.0" encoding="UTF-8" standalone="no"?>
<!DOCTYPE svg PUBLIC "-//W3C//DTD SVG 1.1//EN"
 "http://www.w3.org/Graphics/SVG/1.1/DTD/svg11.dtd">
<!-- Generated by graphviz version 2.46.1 (20210213.1702)
 -->
<!-- Title: G Pages: 1 -->
<svg width="1128pt" height="354pt"
 viewBox="0.00 0.00 1128.00 354.00" xmlns="http://www.w3.org/2000/svg" xmlns:xlink="http://www.w3.org/1999/xlink">
<g id="graph0" class="graph" transform="scale(1 1) rotate(0) translate(4 350)">
<title>G</title>
<polygon fill="white" stroke="transparent" points="-4,4 -4,-350 1124,-350 1124,4 -4,4"/>
<g id="clust1" class="cluster">
<title>cluster_Signer</title>
<polygon fill="none" stroke="black" points="8,-8 8,-155 158,-155 158,-8 8,-8"/>
<text text-anchor="middle" x="83" y="-139.8" font-family="Times,serif" font-size="14.00">Signer</text>
</g>
<g id="clust2" class="cluster">
<title>cluster_Errors</title>
<polygon fill="none" stroke="black" points="166,-8 166,-155 762,-155 762,-8 166,-8"/>
<text text-anchor="middle" x="464" y="-139.8" font-family="Times,serif" font-size="14.00">Errors</text>
</g>
<g id="clust3" class="cluster">
<title>cluster_CoreAddresses</title>
<polygon fill="none" stroke="black" points="770,-80 770,-230 1112,-230 1112,-80 770,-80"/>
<text text-anchor="middle" x="941" y="-214.8" font-family="Times,serif" font-size="14.00">CoreAddresses</text>
</g>
<!-- new_designated_dealer_role -->
<g id="node1" class="node">
<title>new_designated_dealer_role</title>
<ellipse fill="none" stroke="black" cx="324" cy="-328" rx="111.28" ry="18"/>
<text text-anchor="middle" x="324" y="-324.3" font-family="Times,serif" font-size="14.00">new_designated_dealer_role</text>
</g>
<!-- assert_treasury_compliance -->
<g id="node2" class="node">
<title>assert_treasury_compliance</title>
<ellipse fill="none" stroke="black" cx="400" cy="-256" rx="108.58" ry="18"/>
<text text-anchor="middle" x="400" y="-252.3" font-family="Times,serif" font-size="14.00">assert_treasury_compliance</text>
</g>
<!-- new_designated_dealer_role&#45;&gt;assert_treasury_compliance -->
<g id="edge1" class="edge">
<title>new_designated_dealer_role&#45;&gt;assert_treasury_compliance</title>
<path fill="none" stroke="black" d="M342.4,-310.05C351.92,-301.28 363.7,-290.43 374.13,-280.83"/>
<polygon fill="black" stroke="black" points="376.79,-283.14 381.77,-273.79 372.05,-277.99 376.79,-283.14"/>
</g>
<!-- grant_role -->
<g id="node3" class="node">
<title>grant_role</title>
<ellipse fill="none" stroke="black" cx="249" cy="-181" rx="46.59" ry="18"/>
<text text-anchor="middle" x="249" y="-177.3" font-family="Times,serif" font-size="14.00">grant_role</text>
</g>
<!-- new_designated_dealer_role&#45;&gt;grant_role -->
<g id="edge2" class="edge">
<title>new_designated_dealer_role&#45;&gt;grant_role</title>
<path fill="none" stroke="black" d="M308.07,-309.88C299.47,-299.97 289.19,-286.93 282,-274 270.45,-253.23 261.66,-227.64 256.07,-208.73"/>
<polygon fill="black" stroke="black" points="259.4,-207.65 253.29,-198.99 252.67,-209.56 259.4,-207.65"/>
</g>
<!-- Signer::address_of -->
<g id="node4" class="node">
<title>Signer::address_of</title>
<ellipse fill="none" stroke="black" cx="101" cy="-106" rx="48.99" ry="18"/>
<text text-anchor="middle" x="101" y="-102.3" font-family="Times,serif" font-size="14.00">address_of</text>
</g>
<!-- assert_treasury_compliance&#45;&gt;Signer::address_of -->
<g id="edge3" class="edge">
<title>assert_treasury_compliance&#45;&gt;Signer::address_of</title>
<path fill="none" stroke="black" d="M388.54,-238.04C372.69,-216.19 341.81,-179.11 305,-163 275.84,-150.24 191.77,-166.25 162,-155 147.94,-149.69 134.55,-139.89 123.91,-130.52"/>
<polygon fill="black" stroke="black" points="126.07,-127.75 116.35,-123.53 121.32,-132.89 126.07,-127.75"/>
</g>
<!-- Errors::not_published -->
<g id="node5" class="node">
<title>Errors::not_published</title>
<ellipse fill="none" stroke="black" cx="536" cy="-106" rx="60.39" ry="18"/>
<text text-anchor="middle" x="536" y="-102.3" font-family="Times,serif" font-size="14.00">not_published</text>
</g>
<!-- assert_treasury_compliance&#45;&gt;Errors::not_published -->
<g id="edge4" class="edge">
<title>assert_treasury_compliance&#45;&gt;Errors::not_published</title>
<path fill="none" stroke="black" d="M415.6,-238.02C439.68,-211.82 486.01,-161.4 513.65,-131.32"/>
<polygon fill="black" stroke="black" points="516.39,-133.51 520.58,-123.78 511.24,-128.77 516.39,-133.51"/>
</g>
<!-- Errors::requires_role -->
<g id="node6" class="node">
<title>Errors::requires_role</title>
<ellipse fill="none" stroke="black" cx="400" cy="-106" rx="57.39" ry="18"/>
<text text-anchor="middle" x="400" y="-102.3" font-family="Times,serif" font-size="14.00">requires_role</text>
</g>
<!-- assert_treasury_compliance&#45;&gt;Errors::requires_role -->
<g id="edge5" class="edge">
<title>assert_treasury_compliance&#45;&gt;Errors::requires_role</title>
<path fill="none" stroke="black" d="M400,-237.73C400,-212.33 400,-164.65 400,-134.43"/>
<polygon fill="black" stroke="black" points="403.5,-134.16 400,-124.16 396.5,-134.16 403.5,-134.16"/>
</g>
<!-- CoreAddresses::assert_treasury_compliance -->
<g id="node7" class="node">
<title>CoreAddresses::assert_treasury_compliance</title>
<ellipse fill="none" stroke="black" cx="887" cy="-181" rx="108.58" ry="18"/>
<text text-anchor="middle" x="887" y="-177.3" font-family="Times,serif" font-size="14.00">assert_treasury_compliance</text>
</g>
<!-- assert_treasury_compliance&#45;&gt;CoreAddresses::assert_treasury_compliance -->
<g id="edge6" class="edge">
<title>assert_treasury_compliance&#45;&gt;CoreAddresses::assert_treasury_compliance</title>
<path fill="none" stroke="black" d="M477.71,-243.35C565.32,-230.22 707.48,-208.91 799.09,-195.18"/>
<polygon fill="black" stroke="black" points="799.8,-198.61 809.17,-193.67 798.76,-191.69 799.8,-198.61"/>
</g>
<!-- grant_role&#45;&gt;Signer::address_of -->
<g id="edge7" class="edge">
<title>grant_role&#45;&gt;Signer::address_of</title>
<path fill="none" stroke="black" d="M208.36,-171.79C193.31,-167.87 176.41,-162.38 162,-155 148.91,-148.29 135.89,-138.58 125.26,-129.64"/>
<polygon fill="black" stroke="black" points="127.48,-126.93 117.64,-123.02 122.89,-132.22 127.48,-126.93"/>
</g>
<!-- Errors::already_published -->
<g id="node8" class="node">
<title>Errors::already_published</title>
<ellipse fill="none" stroke="black" cx="249" cy="-106" rx="75.29" ry="18"/>
<text text-anchor="middle" x="249" y="-102.3" font-family="Times,serif" font-size="14.00">already_published</text>
</g>
<!-- grant_role&#45;&gt;Errors::already_published -->
<g id="edge8" class="edge">
<title>grant_role&#45;&gt;Errors::already_published</title>
<path fill="none" stroke="black" d="M249,-162.7C249,-154.25 249,-143.87 249,-134.37"/>
<polygon fill="black" stroke="black" points="252.5,-134.18 249,-124.18 245.5,-134.18 252.5,-134.18"/>
</g>
<!-- Signer::borrow_address -->
<g id="node9" class="node">
<title>Signer::borrow_address</title>
<ellipse fill="none" stroke="black" cx="83" cy="-34" rx="66.89" ry="18"/>
<text text-anchor="middle" x="83" y="-30.3" font-family="Times,serif" font-size="14.00">borrow_address</text>
</g>
<!-- Signer::address_of&#45;&gt;Signer::borrow_address -->
<g id="edge9" class="edge">
<title>Signer::address_of&#45;&gt;Signer::borrow_address</title>
<path fill="none" stroke="black" d="M96.64,-88.05C94.64,-80.26 92.21,-70.82 89.96,-62.08"/>
<polygon fill="black" stroke="black" points="93.32,-61.09 87.44,-52.28 86.54,-62.83 93.32,-61.09"/>
</g>
<!-- Errors::make -->
<g id="node10" class="node">
<title>Errors::make</title>
<ellipse fill="none" stroke="black" cx="468" cy="-34" rx="30.59" ry="18"/>
<text text-anchor="middle" x="468" y="-30.3" font-family="Times,serif" font-size="14.00">make</text>
</g>
<!-- Errors::not_published&#45;&gt;Errors::make -->
<g id="edge10" class="edge">
<title>Errors::not_published&#45;&gt;Errors::make</title>
<path fill="none" stroke="black" d="M519.88,-88.41C510.87,-79.13 499.51,-67.44 489.72,-57.36"/>
<polygon fill="black" stroke="black" points="492.09,-54.77 482.61,-50.04 487.07,-59.65 492.09,-54.77"/>
</g>
<!-- Errors::requires_role&#45;&gt;Errors::make -->
<g id="edge11" class="edge">
<title>Errors::requires_role&#45;&gt;Errors::make</title>
<path fill="none" stroke="black" d="M416.12,-88.41C425.13,-79.13 436.49,-67.44 446.28,-57.36"/>
<polygon fill="black" stroke="black" points="448.93,-59.65 453.39,-50.04 443.91,-54.77 448.93,-59.65"/>
</g>
<!-- CoreAddresses::assert_treasury_compliance&#45;&gt;Signer::address_of -->
<g id="edge12" class="edge">
<title>CoreAddresses::assert_treasury_compliance&#45;&gt;Signer::address_of</title>
<path fill="none" stroke="black" d="M781.43,-176.57C581.16,-170.03 165.59,-156.31 162,-155 147.68,-149.76 134.1,-139.78 123.41,-130.26"/>
<polygon fill="black" stroke="black" points="125.52,-127.45 115.82,-123.17 120.73,-132.56 125.52,-127.45"/>
</g>
<!-- Errors::requires_address -->
<g id="node11" class="node">
<title>Errors::requires_address</title>
<ellipse fill="none" stroke="black" cx="684" cy="-106" rx="69.59" ry="18"/>
<text text-anchor="middle" x="684" y="-102.3" font-family="Times,serif" font-size="14.00">requires_address</text>
</g>
<!-- CoreAddresses::assert_treasury_compliance&#45;&gt;Errors::requires_address -->
<g id="edge13" class="edge">
<title>CoreAddresses::assert_treasury_compliance&#45;&gt;Errors::requires_address</title>
<path fill="none" stroke="black" d="M810.71,-168.18C795.64,-164.75 780.12,-160.42 766,-155 748.53,-148.29 730.44,-138.1 715.71,-128.83"/>
<polygon fill="black" stroke="black" points="717.31,-125.7 707.01,-123.22 713.51,-131.58 717.31,-125.7"/>
</g>
<!-- CoreAddresses::TREASURY_COMPLIANCE_ADDRESS -->
<g id="node12" class="node">
<title>CoreAddresses::TREASURY_COMPLIANCE_ADDRESS</title>
<ellipse fill="none" stroke="black" cx="941" cy="-106" rx="163.27" ry="18"/>
<text text-anchor="middle" x="941" y="-102.3" font-family="Times,serif" font-size="14.00">TREASURY_COMPLIANCE_ADDRESS</text>
</g>
<!-- CoreAddresses::assert_treasury_compliance&#45;&gt;CoreAddresses::TREASURY_COMPLIANCE_ADDRESS -->
<g id="edge14" class="edge">
<title>CoreAddresses::assert_treasury_compliance&#45;&gt;CoreAddresses::TREASURY_COMPLIANCE_ADDRESS</title>
<path fill="none" stroke="black" d="M899.52,-163.07C906.29,-153.92 914.78,-142.45 922.31,-132.26"/>
<polygon fill="black" stroke="black" points="925.22,-134.21 928.36,-124.09 919.6,-130.05 925.22,-134.21"/>
</g>
<!-- Errors::already_published&#45;&gt;Errors::make -->
<g id="edge15" class="edge">
<title>Errors::already_published&#45;&gt;Errors::make</title>
<path fill="none" stroke="black" d="M292.27,-91.17C333.12,-78.11 393.67,-58.76 431.97,-46.52"/>
<polygon fill="black" stroke="black" points="433.21,-49.79 441.67,-43.42 431.08,-43.13 433.21,-49.79"/>
</g>
<!-- Errors::requires_address&#45;&gt;Errors::make -->
<g id="edge16" class="edge">
<title>Errors::requires_address&#45;&gt;Errors::make</title>
<path fill="none" stroke="black" d="M642.35,-91.5C602.18,-78.48 542,-58.98 503.89,-46.63"/>
<polygon fill="black" stroke="black" points="504.82,-43.25 494.23,-43.5 502.66,-49.91 504.82,-43.25"/>
</g>
</g>
</svg>
