<?xml version="1.0" encoding="UTF-8" standalone="no"?>
<!DOCTYPE svg PUBLIC "-//W3C//DTD SVG 1.1//EN"
 "http://www.w3.org/Graphics/SVG/1.1/DTD/svg11.dtd">
<!-- Generated by graphviz version 2.46.1 (20210213.1702)
 -->
<!-- Title: G Pages: 1 -->
<svg width="623pt" height="351pt"
 viewBox="0.00 0.00 623.33 351.00" xmlns="http://www.w3.org/2000/svg" xmlns:xlink="http://www.w3.org/1999/xlink">
<g id="graph0" class="graph" transform="scale(1 1) rotate(0) translate(4 347)">
<title>G</title>
<polygon fill="white" stroke="transparent" points="-4,4 -4,-347 619.33,-347 619.33,4 -4,4"/>
<g id="clust1" class="cluster">
<title>cluster_Signer</title>
<polygon fill="none" stroke="black" points="228.39,-8 228.39,-155 378.39,-155 378.39,-8 228.39,-8"/>
<text text-anchor="middle" x="303.39" y="-139.8" font-family="Times,serif" font-size="14.00">Signer</text>
</g>
<!-- can_hold_balance -->
<g id="node1" class="node">
<title>can_hold_balance</title>
<ellipse fill="none" stroke="black" cx="303.39" cy="-325" rx="74.19" ry="18"/>
<text text-anchor="middle" x="303.39" y="-321.3" font-family="Times,serif" font-size="14.00">can_hold_balance</text>
</g>
<!-- has_child_VASP_role -->
<g id="node2" class="node">
<title>has_child_VASP_role</title>
<ellipse fill="none" stroke="black" cx="88.39" cy="-253" rx="88.28" ry="18"/>
<text text-anchor="middle" x="88.39" y="-249.3" font-family="Times,serif" font-size="14.00">has_child_VASP_role</text>
</g>
<!-- can_hold_balance&#45;&gt;has_child_VASP_role -->
<g id="edge1" class="edge">
<title>can_hold_balance&#45;&gt;has_child_VASP_role</title>
<path fill="none" stroke="black" d="M260.92,-310.17C227.1,-299.16 179.54,-283.68 142.91,-271.75"/>
<polygon fill="black" stroke="black" points="143.97,-268.41 133.38,-268.65 141.8,-275.07 143.97,-268.41"/>
</g>
<!-- has_designated_dealer_role -->
<g id="node3" class="node">
<title>has_designated_dealer_role</title>
<ellipse fill="none" stroke="black" cx="303.39" cy="-253" rx="108.58" ry="18"/>
<text text-anchor="middle" x="303.39" y="-249.3" font-family="Times,serif" font-size="14.00">has_designated_dealer_role</text>
</g>
<!-- can_hold_balance&#45;&gt;has_designated_dealer_role -->
<g id="edge2" class="edge">
<title>can_hold_balance&#45;&gt;has_designated_dealer_role</title>
<path fill="none" stroke="black" d="M303.39,-306.7C303.39,-298.98 303.39,-289.71 303.39,-281.11"/>
<polygon fill="black" stroke="black" points="306.89,-281.1 303.39,-271.1 299.89,-281.1 306.89,-281.1"/>
</g>
<!-- has_parent_VASP_role -->
<g id="node4" class="node">
<title>has_parent_VASP_role</title>
<ellipse fill="none" stroke="black" cx="522.39" cy="-253" rx="92.88" ry="18"/>
<text text-anchor="middle" x="522.39" y="-249.3" font-family="Times,serif" font-size="14.00">has_parent_VASP_role</text>
</g>
<!-- can_hold_balance&#45;&gt;has_parent_VASP_role -->
<g id="edge3" class="edge">
<title>can_hold_balance&#45;&gt;has_parent_VASP_role</title>
<path fill="none" stroke="black" d="M346.4,-310.25C380.82,-299.25 429.34,-283.74 466.73,-271.79"/>
<polygon fill="black" stroke="black" points="468,-275.06 476.46,-268.68 465.87,-268.39 468,-275.06"/>
</g>
<!-- has_role -->
<g id="node5" class="node">
<title>has_role</title>
<ellipse fill="none" stroke="black" cx="303.39" cy="-181" rx="40.09" ry="18"/>
<text text-anchor="middle" x="303.39" y="-177.3" font-family="Times,serif" font-size="14.00">has_role</text>
</g>
<!-- has_child_VASP_role&#45;&gt;has_role -->
<g id="edge4" class="edge">
<title>has_child_VASP_role&#45;&gt;has_role</title>
<path fill="none" stroke="black" d="M133.2,-237.41C171.11,-225.07 225.01,-207.52 261.93,-195.5"/>
<polygon fill="black" stroke="black" points="263.45,-198.69 271.87,-192.26 261.28,-192.03 263.45,-198.69"/>
</g>
<!-- has_designated_dealer_role&#45;&gt;has_role -->
<g id="edge5" class="edge">
<title>has_designated_dealer_role&#45;&gt;has_role</title>
<path fill="none" stroke="black" d="M303.39,-234.7C303.39,-226.98 303.39,-217.71 303.39,-209.11"/>
<polygon fill="black" stroke="black" points="306.89,-209.1 303.39,-199.1 299.89,-209.1 306.89,-209.1"/>
</g>
<!-- has_parent_VASP_role&#45;&gt;has_role -->
<g id="edge6" class="edge">
<title>has_parent_VASP_role&#45;&gt;has_role</title>
<path fill="none" stroke="black" d="M476.48,-237.33C437.57,-224.89 382.25,-207.21 344.7,-195.2"/>
<polygon fill="black" stroke="black" points="345.68,-191.84 335.09,-192.13 343.55,-198.51 345.68,-191.84"/>
</g>
<!-- Signer::address_of -->
<g id="node6" class="node">
<title>Signer::address_of</title>
<ellipse fill="none" stroke="black" cx="303.39" cy="-106" rx="48.99" ry="18"/>
<text text-anchor="middle" x="303.39" y="-102.3" font-family="Times,serif" font-size="14.00">address_of</text>
</g>
<!-- has_role&#45;&gt;Signer::address_of -->
<g id="edge7" class="edge">
<title>has_role&#45;&gt;Signer::address_of</title>
<path fill="none" stroke="black" d="M303.39,-162.7C303.39,-154.25 303.39,-143.87 303.39,-134.37"/>
<polygon fill="black" stroke="black" points="306.89,-134.18 303.39,-124.18 299.89,-134.18 306.89,-134.18"/>
</g>
<!-- Signer::borrow_address -->
<g id="node7" class="node">
<title>Signer::borrow_address</title>
<ellipse fill="none" stroke="black" cx="303.39" cy="-34" rx="66.89" ry="18"/>
<text text-anchor="middle" x="303.39" y="-30.3" font-family="Times,serif" font-size="14.00">borrow_address</text>
</g>
<!-- Signer::address_of&#45;&gt;Signer::borrow_address -->
<g id="edge8" class="edge">
<title>Signer::address_of&#45;&gt;Signer::borrow_address</title>
<path fill="none" stroke="black" d="M303.39,-87.7C303.39,-79.98 303.39,-70.71 303.39,-62.11"/>
<polygon fill="black" stroke="black" points="306.89,-62.1 303.39,-52.1 299.89,-62.1 306.89,-62.1"/>
</g>
</g>
</svg>
