<?xml version="1.0" encoding="UTF-8" standalone="no"?>
<!DOCTYPE svg PUBLIC "-//W3C//DTD SVG 1.1//EN"
 "http://www.w3.org/Graphics/SVG/1.1/DTD/svg11.dtd">
<!-- Generated by graphviz version 2.46.1 (20210213.1702)
 -->
<!-- Title: G Pages: 1 -->
<svg width="1016pt" height="354pt"
 viewBox="0.00 0.00 1016.00 354.00" xmlns="http://www.w3.org/2000/svg" xmlns:xlink="http://www.w3.org/1999/xlink">
<g id="graph0" class="graph" transform="scale(1 1) rotate(0) translate(4 350)">
<title>G</title>
<polygon fill="white" stroke="transparent" points="-4,4 -4,-350 1012,-350 1012,4 -4,4"/>
<g id="clust1" class="cluster">
<title>cluster_Signer</title>
<polygon fill="none" stroke="black" points="8,-8 8,-155 158,-155 158,-8 8,-8"/>
<text text-anchor="middle" x="83" y="-139.8" font-family="Times,serif" font-size="14.00">Signer</text>
</g>
<g id="clust2" class="cluster">
<title>cluster_Errors</title>
<polygon fill="none" stroke="black" points="166,-8 166,-155 762,-155 762,-8 166,-8"/>
<text text-anchor="middle" x="464" y="-139.8" font-family="Times,serif" font-size="14.00">Errors</text>
</g>
<g id="clust3" class="cluster">
<title>cluster_CoreAddresses</title>
<polygon fill="none" stroke="black" points="770,-80 770,-230 1000,-230 1000,-80 770,-80"/>
<text text-anchor="middle" x="885" y="-214.8" font-family="Times,serif" font-size="14.00">CoreAddresses</text>
</g>
<!-- new_validator_operator_role -->
<g id="node1" class="node">
<title>new_validator_operator_role</title>
<ellipse fill="none" stroke="black" cx="324" cy="-328" rx="112.38" ry="18"/>
<text text-anchor="middle" x="324" y="-324.3" font-family="Times,serif" font-size="14.00">new_validator_operator_role</text>
</g>
<!-- assert_diem_root -->
<g id="node2" class="node">
<title>assert_diem_root</title>
<ellipse fill="none" stroke="black" cx="400" cy="-256" rx="71.49" ry="18"/>
<text text-anchor="middle" x="400" y="-252.3" font-family="Times,serif" font-size="14.00">assert_diem_root</text>
</g>
<!-- new_validator_operator_role&#45;&gt;assert_diem_root -->
<g id="edge1" class="edge">
<title>new_validator_operator_role&#45;&gt;assert_diem_root</title>
<path fill="none" stroke="black" d="M342.4,-310.05C352.08,-301.13 364.11,-290.06 374.66,-280.34"/>
<polygon fill="black" stroke="black" points="377.05,-282.9 382.03,-273.55 372.31,-277.75 377.05,-282.9"/>
</g>
<!-- grant_role -->
<g id="node3" class="node">
<title>grant_role</title>
<ellipse fill="none" stroke="black" cx="249" cy="-181" rx="46.59" ry="18"/>
<text text-anchor="middle" x="249" y="-177.3" font-family="Times,serif" font-size="14.00">grant_role</text>
</g>
<!-- new_validator_operator_role&#45;&gt;grant_role -->
<g id="edge2" class="edge">
<title>new_validator_operator_role&#45;&gt;grant_role</title>
<path fill="none" stroke="black" d="M315.1,-309.8C302.06,-284.59 277.67,-237.43 262.44,-207.98"/>
<polygon fill="black" stroke="black" points="265.36,-206.01 257.65,-198.73 259.14,-209.22 265.36,-206.01"/>
</g>
<!-- Signer::address_of -->
<g id="node4" class="node">
<title>Signer::address_of</title>
<ellipse fill="none" stroke="black" cx="101" cy="-106" rx="48.99" ry="18"/>
<text text-anchor="middle" x="101" y="-102.3" font-family="Times,serif" font-size="14.00">address_of</text>
</g>
<!-- assert_diem_root&#45;&gt;Signer::address_of -->
<g id="edge3" class="edge">
<title>assert_diem_root&#45;&gt;Signer::address_of</title>
<path fill="none" stroke="black" d="M388.54,-238.04C372.69,-216.19 341.81,-179.11 305,-163 275.84,-150.24 191.77,-166.25 162,-155 147.94,-149.69 134.55,-139.89 123.91,-130.52"/>
<polygon fill="black" stroke="black" points="126.07,-127.75 116.35,-123.53 121.32,-132.89 126.07,-127.75"/>
</g>
<!-- Errors::not_published -->
<g id="node5" class="node">
<title>Errors::not_published</title>
<ellipse fill="none" stroke="black" cx="536" cy="-106" rx="60.39" ry="18"/>
<text text-anchor="middle" x="536" y="-102.3" font-family="Times,serif" font-size="14.00">not_published</text>
</g>
<!-- assert_diem_root&#45;&gt;Errors::not_published -->
<g id="edge4" class="edge">
<title>assert_diem_root&#45;&gt;Errors::not_published</title>
<path fill="none" stroke="black" d="M415.34,-238.31C439.31,-212.22 485.8,-161.63 513.55,-131.43"/>
<polygon fill="black" stroke="black" points="516.32,-133.59 520.51,-123.86 511.17,-128.85 516.32,-133.59"/>
</g>
<!-- Errors::requires_role -->
<g id="node6" class="node">
<title>Errors::requires_role</title>
<ellipse fill="none" stroke="black" cx="400" cy="-106" rx="57.39" ry="18"/>
<text text-anchor="middle" x="400" y="-102.3" font-family="Times,serif" font-size="14.00">requires_role</text>
</g>
<!-- assert_diem_root&#45;&gt;Errors::requires_role -->
<g id="edge5" class="edge">
<title>assert_diem_root&#45;&gt;Errors::requires_role</title>
<path fill="none" stroke="black" d="M400,-237.73C400,-212.33 400,-164.65 400,-134.43"/>
<polygon fill="black" stroke="black" points="403.5,-134.16 400,-124.16 396.5,-134.16 403.5,-134.16"/>
</g>
<!-- CoreAddresses::assert_diem_root -->
<g id="node7" class="node">
<title>CoreAddresses::assert_diem_root</title>
<ellipse fill="none" stroke="black" cx="849" cy="-181" rx="71.49" ry="18"/>
<text text-anchor="middle" x="849" y="-177.3" font-family="Times,serif" font-size="14.00">assert_diem_root</text>
</g>
<!-- assert_diem_root&#45;&gt;CoreAddresses::assert_diem_root -->
<g id="edge6" class="edge">
<title>assert_diem_root&#45;&gt;CoreAddresses::assert_diem_root</title>
<path fill="none" stroke="black" d="M458.24,-245.53C541.06,-232.07 692.57,-207.43 780.62,-193.12"/>
<polygon fill="black" stroke="black" points="781.2,-196.57 790.51,-191.51 780.08,-189.66 781.2,-196.57"/>
</g>
<!-- grant_role&#45;&gt;Signer::address_of -->
<g id="edge7" class="edge">
<title>grant_role&#45;&gt;Signer::address_of</title>
<path fill="none" stroke="black" d="M208.36,-171.79C193.31,-167.87 176.41,-162.38 162,-155 148.91,-148.29 135.89,-138.58 125.26,-129.64"/>
<polygon fill="black" stroke="black" points="127.48,-126.93 117.64,-123.02 122.89,-132.22 127.48,-126.93"/>
</g>
<!-- Errors::already_published -->
<g id="node8" class="node">
<title>Errors::already_published</title>
<ellipse fill="none" stroke="black" cx="249" cy="-106" rx="75.29" ry="18"/>
<text text-anchor="middle" x="249" y="-102.3" font-family="Times,serif" font-size="14.00">already_published</text>
</g>
<!-- grant_role&#45;&gt;Errors::already_published -->
<g id="edge8" class="edge">
<title>grant_role&#45;&gt;Errors::already_published</title>
<path fill="none" stroke="black" d="M249,-162.7C249,-154.25 249,-143.87 249,-134.37"/>
<polygon fill="black" stroke="black" points="252.5,-134.18 249,-124.18 245.5,-134.18 252.5,-134.18"/>
</g>
<!-- Signer::borrow_address -->
<g id="node9" class="node">
<title>Signer::borrow_address</title>
<ellipse fill="none" stroke="black" cx="83" cy="-34" rx="66.89" ry="18"/>
<text text-anchor="middle" x="83" y="-30.3" font-family="Times,serif" font-size="14.00">borrow_address</text>
</g>
<!-- Signer::address_of&#45;&gt;Signer::borrow_address -->
<g id="edge9" class="edge">
<title>Signer::address_of&#45;&gt;Signer::borrow_address</title>
<path fill="none" stroke="black" d="M96.64,-88.05C94.64,-80.26 92.21,-70.82 89.96,-62.08"/>
<polygon fill="black" stroke="black" points="93.32,-61.09 87.44,-52.28 86.54,-62.83 93.32,-61.09"/>
</g>
<!-- Errors::make -->
<g id="node10" class="node">
<title>Errors::make</title>
<ellipse fill="none" stroke="black" cx="468" cy="-34" rx="30.59" ry="18"/>
<text text-anchor="middle" x="468" y="-30.3" font-family="Times,serif" font-size="14.00">make</text>
</g>
<!-- Errors::not_published&#45;&gt;Errors::make -->
<g id="edge10" class="edge">
<title>Errors::not_published&#45;&gt;Errors::make</title>
<path fill="none" stroke="black" d="M519.88,-88.41C510.87,-79.13 499.51,-67.44 489.72,-57.36"/>
<polygon fill="black" stroke="black" points="492.09,-54.77 482.61,-50.04 487.07,-59.65 492.09,-54.77"/>
</g>
<!-- Errors::requires_role&#45;&gt;Errors::make -->
<g id="edge11" class="edge">
<title>Errors::requires_role&#45;&gt;Errors::make</title>
<path fill="none" stroke="black" d="M416.12,-88.41C425.13,-79.13 436.49,-67.44 446.28,-57.36"/>
<polygon fill="black" stroke="black" points="448.93,-59.65 453.39,-50.04 443.91,-54.77 448.93,-59.65"/>
</g>
<!-- CoreAddresses::assert_diem_root&#45;&gt;Signer::address_of -->
<g id="edge12" class="edge">
<title>CoreAddresses::assert_diem_root&#45;&gt;Signer::address_of</title>
<path fill="none" stroke="black" d="M778.49,-177.58C603.97,-171.56 165.59,-156.32 162,-155 147.68,-149.75 134.11,-139.76 123.41,-130.25"/>
<polygon fill="black" stroke="black" points="125.52,-127.43 115.83,-123.16 120.74,-132.55 125.52,-127.43"/>
</g>
<!-- Errors::requires_address -->
<g id="node11" class="node">
<title>Errors::requires_address</title>
<ellipse fill="none" stroke="black" cx="684" cy="-106" rx="69.59" ry="18"/>
<text text-anchor="middle" x="684" y="-102.3" font-family="Times,serif" font-size="14.00">requires_address</text>
</g>
<!-- CoreAddresses::assert_diem_root&#45;&gt;Errors::requires_address -->
<g id="edge13" class="edge">
<title>CoreAddresses::assert_diem_root&#45;&gt;Errors::requires_address</title>
<path fill="none" stroke="black" d="M800.9,-167.62C789.28,-164.06 777.04,-159.81 766,-155 749.09,-147.63 731.32,-137.54 716.65,-128.52"/>
<polygon fill="black" stroke="black" points="718.29,-125.41 707.96,-123.07 714.57,-131.35 718.29,-125.41"/>
</g>
<!-- CoreAddresses::DIEM_ROOT_ADDRESS -->
<g id="node12" class="node">
<title>CoreAddresses::DIEM_ROOT_ADDRESS</title>
<ellipse fill="none" stroke="black" cx="885" cy="-106" rx="106.68" ry="18"/>
<text text-anchor="middle" x="885" y="-102.3" font-family="Times,serif" font-size="14.00">DIEM_ROOT_ADDRESS</text>
</g>
<!-- CoreAddresses::assert_diem_root&#45;&gt;CoreAddresses::DIEM_ROOT_ADDRESS -->
<g id="edge14" class="edge">
<title>CoreAddresses::assert_diem_root&#45;&gt;CoreAddresses::DIEM_ROOT_ADDRESS</title>
<path fill="none" stroke="black" d="M857.35,-163.07C861.73,-154.2 867.18,-143.13 872.09,-133.18"/>
<polygon fill="black" stroke="black" points="875.29,-134.61 876.57,-124.09 869.01,-131.51 875.29,-134.61"/>
</g>
<!-- Errors::already_published&#45;&gt;Errors::make -->
<g id="edge15" class="edge">
<title>Errors::already_published&#45;&gt;Errors::make</title>
<path fill="none" stroke="black" d="M292.27,-91.17C333.12,-78.11 393.67,-58.76 431.97,-46.52"/>
<polygon fill="black" stroke="black" points="433.21,-49.79 441.67,-43.42 431.08,-43.13 433.21,-49.79"/>
</g>
<!-- Errors::requires_address&#45;&gt;Errors::make -->
<g id="edge16" class="edge">
<title>Errors::requires_address&#45;&gt;Errors::make</title>
<path fill="none" stroke="black" d="M642.35,-91.5C602.18,-78.48 542,-58.98 503.89,-46.63"/>
<polygon fill="black" stroke="black" points="504.82,-43.25 494.23,-43.5 502.66,-49.91 504.82,-43.25"/>
</g>
</g>
</svg>
