<?xml version="1.0" encoding="UTF-8" standalone="no"?>
<!DOCTYPE svg PUBLIC "-//W3C//DTD SVG 1.1//EN"
 "http://www.w3.org/Graphics/SVG/1.1/DTD/svg11.dtd">
<!-- Generated by graphviz version 2.46.1 (20210213.1702)
 -->
<!-- Title: G Pages: 1 -->
<svg width="228pt" height="279pt"
 viewBox="0.00 0.00 227.68 279.00" xmlns="http://www.w3.org/2000/svg" xmlns:xlink="http://www.w3.org/1999/xlink">
<g id="graph0" class="graph" transform="scale(1 1) rotate(0) translate(4 275)">
<title>G</title>
<polygon fill="white" stroke="transparent" points="-4,4 -4,-275 223.68,-275 223.68,4 -4,4"/>
<g id="clust1" class="cluster">
<title>cluster_Signer</title>
<polygon fill="none" stroke="black" points="34.84,-8 34.84,-155 184.84,-155 184.84,-8 34.84,-8"/>
<text text-anchor="middle" x="109.84" y="-139.8" font-family="Times,serif" font-size="14.00">Signer</text>
</g>
<!-- has_validator_operator_role -->
<g id="node1" class="node">
<title>has_validator_operator_role</title>
<ellipse fill="none" stroke="black" cx="109.84" cy="-253" rx="109.68" ry="18"/>
<text text-anchor="middle" x="109.84" y="-249.3" font-family="Times,serif" font-size="14.00">has_validator_operator_role</text>
</g>
<!-- has_role -->
<g id="node2" class="node">
<title>has_role</title>
<ellipse fill="none" stroke="black" cx="109.84" cy="-181" rx="40.09" ry="18"/>
<text text-anchor="middle" x="109.84" y="-177.3" font-family="Times,serif" font-size="14.00">has_role</text>
</g>
<!-- has_validator_operator_role&#45;&gt;has_role -->
<g id="edge1" class="edge">
<title>has_validator_operator_role&#45;&gt;has_role</title>
<path fill="none" stroke="black" d="M109.84,-234.7C109.84,-226.98 109.84,-217.71 109.84,-209.11"/>
<polygon fill="black" stroke="black" points="113.34,-209.1 109.84,-199.1 106.34,-209.1 113.34,-209.1"/>
</g>
<!-- Signer::address_of -->
<g id="node3" class="node">
<title>Signer::address_of</title>
<ellipse fill="none" stroke="black" cx="109.84" cy="-106" rx="48.99" ry="18"/>
<text text-anchor="middle" x="109.84" y="-102.3" font-family="Times,serif" font-size="14.00">address_of</text>
</g>
<!-- has_role&#45;&gt;Signer::address_of -->
<g id="edge2" class="edge">
<title>has_role&#45;&gt;Signer::address_of</title>
<path fill="none" stroke="black" d="M109.84,-162.7C109.84,-154.25 109.84,-143.87 109.84,-134.37"/>
<polygon fill="black" stroke="black" points="113.34,-134.18 109.84,-124.18 106.34,-134.18 113.34,-134.18"/>
</g>
<!-- Signer::borrow_address -->
<g id="node4" class="node">
<title>Signer::borrow_address</title>
<ellipse fill="none" stroke="black" cx="109.84" cy="-34" rx="66.89" ry="18"/>
<text text-anchor="middle" x="109.84" y="-30.3" font-family="Times,serif" font-size="14.00">borrow_address</text>
</g>
<!-- Signer::address_of&#45;&gt;Signer::borrow_address -->
<g id="edge3" class="edge">
<title>Signer::address_of&#45;&gt;Signer::borrow_address</title>
<path fill="none" stroke="black" d="M109.84,-87.7C109.84,-79.98 109.84,-70.71 109.84,-62.11"/>
<polygon fill="black" stroke="black" points="113.34,-62.1 109.84,-52.1 106.34,-62.1 113.34,-62.1"/>
</g>
</g>
</svg>
