<?xml version="1.0" encoding="UTF-8" standalone="no"?>
<!DOCTYPE svg PUBLIC "-//W3C//DTD SVG 1.1//EN"
 "http://www.w3.org/Graphics/SVG/1.1/DTD/svg11.dtd">
<!-- Generated by graphviz version 2.46.1 (20210213.1702)
 -->
<!-- Title: G Pages: 1 -->
<svg width="194pt" height="279pt"
 viewBox="0.00 0.00 193.88 279.00" xmlns="http://www.w3.org/2000/svg" xmlns:xlink="http://www.w3.org/1999/xlink">
<g id="graph0" class="graph" transform="scale(1 1) rotate(0) translate(4 275)">
<title>G</title>
<polygon fill="white" stroke="transparent" points="-4,4 -4,-275 189.88,-275 189.88,4 -4,4"/>
<g id="clust1" class="cluster">
<title>cluster_Signer</title>
<polygon fill="none" stroke="black" points="17.94,-8 17.94,-155 167.94,-155 167.94,-8 17.94,-8"/>
<text text-anchor="middle" x="92.94" y="-139.8" font-family="Times,serif" font-size="14.00">Signer</text>
</g>
<!-- has_parent_VASP_role -->
<g id="node1" class="node">
<title>has_parent_VASP_role</title>
<ellipse fill="none" stroke="black" cx="92.94" cy="-253" rx="92.88" ry="18"/>
<text text-anchor="middle" x="92.94" y="-249.3" font-family="Times,serif" font-size="14.00">has_parent_VASP_role</text>
</g>
<!-- has_role -->
<g id="node2" class="node">
<title>has_role</title>
<ellipse fill="none" stroke="black" cx="92.94" cy="-181" rx="40.09" ry="18"/>
<text text-anchor="middle" x="92.94" y="-177.3" font-family="Times,serif" font-size="14.00">has_role</text>
</g>
<!-- has_parent_VASP_role&#45;&gt;has_role -->
<g id="edge1" class="edge">
<title>has_parent_VASP_role&#45;&gt;has_role</title>
<path fill="none" stroke="black" d="M92.94,-234.7C92.94,-226.98 92.94,-217.71 92.94,-209.11"/>
<polygon fill="black" stroke="black" points="96.44,-209.1 92.94,-199.1 89.44,-209.1 96.44,-209.1"/>
</g>
<!-- Signer::address_of -->
<g id="node3" class="node">
<title>Signer::address_of</title>
<ellipse fill="none" stroke="black" cx="92.94" cy="-106" rx="48.99" ry="18"/>
<text text-anchor="middle" x="92.94" y="-102.3" font-family="Times,serif" font-size="14.00">address_of</text>
</g>
<!-- has_role&#45;&gt;Signer::address_of -->
<g id="edge2" class="edge">
<title>has_role&#45;&gt;Signer::address_of</title>
<path fill="none" stroke="black" d="M92.94,-162.7C92.94,-154.25 92.94,-143.87 92.94,-134.37"/>
<polygon fill="black" stroke="black" points="96.44,-134.18 92.94,-124.18 89.44,-134.18 96.44,-134.18"/>
</g>
<!-- Signer::borrow_address -->
<g id="node4" class="node">
<title>Signer::borrow_address</title>
<ellipse fill="none" stroke="black" cx="92.94" cy="-34" rx="66.89" ry="18"/>
<text text-anchor="middle" x="92.94" y="-30.3" font-family="Times,serif" font-size="14.00">borrow_address</text>
</g>
<!-- Signer::address_of&#45;&gt;Signer::borrow_address -->
<g id="edge3" class="edge">
<title>Signer::address_of&#45;&gt;Signer::borrow_address</title>
<path fill="none" stroke="black" d="M92.94,-87.7C92.94,-79.98 92.94,-70.71 92.94,-62.11"/>
<polygon fill="black" stroke="black" points="96.44,-62.1 92.94,-52.1 89.44,-62.1 96.44,-62.1"/>
</g>
</g>
</svg>
