<?xml version="1.0" encoding="UTF-8" standalone="no"?>
<!DOCTYPE svg PUBLIC "-//W3C//DTD SVG 1.1//EN"
 "http://www.w3.org/Graphics/SVG/1.1/DTD/svg11.dtd">
<!-- Generated by graphviz version 2.46.1 (20210213.1702)
 -->
<!-- Title: G Pages: 1 -->
<svg width="451pt" height="207pt"
 viewBox="0.00 0.00 451.00 207.00" xmlns="http://www.w3.org/2000/svg" xmlns:xlink="http://www.w3.org/1999/xlink">
<g id="graph0" class="graph" transform="scale(1 1) rotate(0) translate(4 203)">
<title>G</title>
<polygon fill="white" stroke="transparent" points="-4,4 -4,-203 447,-203 447,4 -4,4"/>
<g id="clust1" class="cluster">
<title>cluster_Signer</title>
<polygon fill="none" stroke="black" points="8,-8 8,-155 158,-155 158,-8 8,-8"/>
<text text-anchor="middle" x="83" y="-139.8" font-family="Times,serif" font-size="14.00">Signer</text>
</g>
<g id="clust2" class="cluster">
<title>cluster_Errors</title>
<polygon fill="none" stroke="black" points="166,-8 166,-155 435,-155 435,-8 166,-8"/>
<text text-anchor="middle" x="300.5" y="-139.8" font-family="Times,serif" font-size="14.00">Errors</text>
</g>
<!-- assert_parent_vasp_role -->
<g id="node1" class="node">
<title>assert_parent_vasp_role</title>
<ellipse fill="none" stroke="black" cx="231" cy="-181" rx="95.58" ry="18"/>
<text text-anchor="middle" x="231" y="-177.3" font-family="Times,serif" font-size="14.00">assert_parent_vasp_role</text>
</g>
<!-- Signer::address_of -->
<g id="node2" class="node">
<title>Signer::address_of</title>
<ellipse fill="none" stroke="black" cx="92" cy="-106" rx="48.99" ry="18"/>
<text text-anchor="middle" x="92" y="-102.3" font-family="Times,serif" font-size="14.00">address_of</text>
</g>
<!-- assert_parent_vasp_role&#45;&gt;Signer::address_of -->
<g id="edge1" class="edge">
<title>assert_parent_vasp_role&#45;&gt;Signer::address_of</title>
<path fill="none" stroke="black" d="M185.02,-165.19C177.19,-162.15 169.25,-158.72 162,-155 147.41,-147.51 132.27,-137.46 119.82,-128.49"/>
<polygon fill="black" stroke="black" points="121.8,-125.6 111.67,-122.5 117.66,-131.24 121.8,-125.6"/>
</g>
<!-- Errors::not_published -->
<g id="node3" class="node">
<title>Errors::not_published</title>
<ellipse fill="none" stroke="black" cx="367" cy="-106" rx="60.39" ry="18"/>
<text text-anchor="middle" x="367" y="-102.3" font-family="Times,serif" font-size="14.00">not_published</text>
</g>
<!-- assert_parent_vasp_role&#45;&gt;Errors::not_published -->
<g id="edge2" class="edge">
<title>assert_parent_vasp_role&#45;&gt;Errors::not_published</title>
<path fill="none" stroke="black" d="M275.31,-164.89C282.69,-161.91 290.16,-158.58 297,-155 311.22,-147.57 326,-137.78 338.3,-128.98"/>
<polygon fill="black" stroke="black" points="340.37,-131.8 346.38,-123.08 336.24,-126.15 340.37,-131.8"/>
</g>
<!-- Errors::requires_role -->
<g id="node4" class="node">
<title>Errors::requires_role</title>
<ellipse fill="none" stroke="black" cx="231" cy="-106" rx="57.39" ry="18"/>
<text text-anchor="middle" x="231" y="-102.3" font-family="Times,serif" font-size="14.00">requires_role</text>
</g>
<!-- assert_parent_vasp_role&#45;&gt;Errors::requires_role -->
<g id="edge3" class="edge">
<title>assert_parent_vasp_role&#45;&gt;Errors::requires_role</title>
<path fill="none" stroke="black" d="M231,-162.7C231,-154.25 231,-143.87 231,-134.37"/>
<polygon fill="black" stroke="black" points="234.5,-134.18 231,-124.18 227.5,-134.18 234.5,-134.18"/>
</g>
<!-- Signer::borrow_address -->
<g id="node5" class="node">
<title>Signer::borrow_address</title>
<ellipse fill="none" stroke="black" cx="83" cy="-34" rx="66.89" ry="18"/>
<text text-anchor="middle" x="83" y="-30.3" font-family="Times,serif" font-size="14.00">borrow_address</text>
</g>
<!-- Signer::address_of&#45;&gt;Signer::borrow_address -->
<g id="edge4" class="edge">
<title>Signer::address_of&#45;&gt;Signer::borrow_address</title>
<path fill="none" stroke="black" d="M89.78,-87.7C88.78,-79.98 87.59,-70.71 86.49,-62.11"/>
<polygon fill="black" stroke="black" points="89.95,-61.58 85.2,-52.1 83,-62.47 89.95,-61.58"/>
</g>
<!-- Errors::make -->
<g id="node6" class="node">
<title>Errors::make</title>
<ellipse fill="none" stroke="black" cx="299" cy="-34" rx="30.59" ry="18"/>
<text text-anchor="middle" x="299" y="-30.3" font-family="Times,serif" font-size="14.00">make</text>
</g>
<!-- Errors::not_published&#45;&gt;Errors::make -->
<g id="edge5" class="edge">
<title>Errors::not_published&#45;&gt;Errors::make</title>
<path fill="none" stroke="black" d="M350.88,-88.41C341.87,-79.13 330.51,-67.44 320.72,-57.36"/>
<polygon fill="black" stroke="black" points="323.09,-54.77 313.61,-50.04 318.07,-59.65 323.09,-54.77"/>
</g>
<!-- Errors::requires_role&#45;&gt;Errors::make -->
<g id="edge6" class="edge">
<title>Errors::requires_role&#45;&gt;Errors::make</title>
<path fill="none" stroke="black" d="M247.12,-88.41C256.13,-79.13 267.49,-67.44 277.28,-57.36"/>
<polygon fill="black" stroke="black" points="279.93,-59.65 284.39,-50.04 274.91,-54.77 279.93,-59.65"/>
</g>
</g>
</svg>
