<?xml version="1.0" encoding="UTF-8" standalone="no"?>
<!DOCTYPE svg PUBLIC "-//W3C//DTD SVG 1.1//EN"
 "http://www.w3.org/Graphics/SVG/1.1/DTD/svg11.dtd">
<!-- Generated by graphviz version 2.46.1 (20210213.1702)
 -->
<!-- Title: G Pages: 1 -->
<svg width="185pt" height="279pt"
 viewBox="0.00 0.00 184.78 279.00" xmlns="http://www.w3.org/2000/svg" xmlns:xlink="http://www.w3.org/1999/xlink">
<g id="graph0" class="graph" transform="scale(1 1) rotate(0) translate(4 275)">
<title>G</title>
<polygon fill="white" stroke="transparent" points="-4,4 -4,-275 180.78,-275 180.78,4 -4,4"/>
<g id="clust1" class="cluster">
<title>cluster_Signer</title>
<polygon fill="none" stroke="black" points="13.39,-8 13.39,-155 163.39,-155 163.39,-8 13.39,-8"/>
<text text-anchor="middle" x="88.39" y="-139.8" font-family="Times,serif" font-size="14.00">Signer</text>
</g>
<!-- has_child_VASP_role -->
<g id="node1" class="node">
<title>has_child_VASP_role</title>
<ellipse fill="none" stroke="black" cx="88.39" cy="-253" rx="88.28" ry="18"/>
<text text-anchor="middle" x="88.39" y="-249.3" font-family="Times,serif" font-size="14.00">has_child_VASP_role</text>
</g>
<!-- has_role -->
<g id="node2" class="node">
<title>has_role</title>
<ellipse fill="none" stroke="black" cx="88.39" cy="-181" rx="40.09" ry="18"/>
<text text-anchor="middle" x="88.39" y="-177.3" font-family="Times,serif" font-size="14.00">has_role</text>
</g>
<!-- has_child_VASP_role&#45;&gt;has_role -->
<g id="edge1" class="edge">
<title>has_child_VASP_role&#45;&gt;has_role</title>
<path fill="none" stroke="black" d="M88.39,-234.7C88.39,-226.98 88.39,-217.71 88.39,-209.11"/>
<polygon fill="black" stroke="black" points="91.89,-209.1 88.39,-199.1 84.89,-209.1 91.89,-209.1"/>
</g>
<!-- Signer::address_of -->
<g id="node3" class="node">
<title>Signer::address_of</title>
<ellipse fill="none" stroke="black" cx="88.39" cy="-106" rx="48.99" ry="18"/>
<text text-anchor="middle" x="88.39" y="-102.3" font-family="Times,serif" font-size="14.00">address_of</text>
</g>
<!-- has_role&#45;&gt;Signer::address_of -->
<g id="edge2" class="edge">
<title>has_role&#45;&gt;Signer::address_of</title>
<path fill="none" stroke="black" d="M88.39,-162.7C88.39,-154.25 88.39,-143.87 88.39,-134.37"/>
<polygon fill="black" stroke="black" points="91.89,-134.18 88.39,-124.18 84.89,-134.18 91.89,-134.18"/>
</g>
<!-- Signer::borrow_address -->
<g id="node4" class="node">
<title>Signer::borrow_address</title>
<ellipse fill="none" stroke="black" cx="88.39" cy="-34" rx="66.89" ry="18"/>
<text text-anchor="middle" x="88.39" y="-30.3" font-family="Times,serif" font-size="14.00">borrow_address</text>
</g>
<!-- Signer::address_of&#45;&gt;Signer::borrow_address -->
<g id="edge3" class="edge">
<title>Signer::address_of&#45;&gt;Signer::borrow_address</title>
<path fill="none" stroke="black" d="M88.39,-87.7C88.39,-79.98 88.39,-70.71 88.39,-62.11"/>
<polygon fill="black" stroke="black" points="91.89,-62.1 88.39,-52.1 84.89,-62.1 91.89,-62.1"/>
</g>
</g>
</svg>
