<?xml version="1.0" encoding="UTF-8" standalone="no"?>
<!DOCTYPE svg PUBLIC "-//W3C//DTD SVG 1.1//EN"
 "http://www.w3.org/Graphics/SVG/1.1/DTD/svg11.dtd">
<!-- Generated by graphviz version 2.46.1 (20210213.1702)
 -->
<!-- Title: G Pages: 1 -->
<svg width="225pt" height="279pt"
 viewBox="0.00 0.00 225.08 279.00" xmlns="http://www.w3.org/2000/svg" xmlns:xlink="http://www.w3.org/1999/xlink">
<g id="graph0" class="graph" transform="scale(1 1) rotate(0) translate(4 275)">
<title>G</title>
<polygon fill="white" stroke="transparent" points="-4,4 -4,-275 221.08,-275 221.08,4 -4,4"/>
<g id="clust1" class="cluster">
<title>cluster_Signer</title>
<polygon fill="none" stroke="black" points="33.54,-8 33.54,-155 183.54,-155 183.54,-8 33.54,-8"/>
<text text-anchor="middle" x="108.54" y="-139.8" font-family="Times,serif" font-size="14.00">Signer</text>
</g>
<!-- has_designated_dealer_role -->
<g id="node1" class="node">
<title>has_designated_dealer_role</title>
<ellipse fill="none" stroke="black" cx="108.54" cy="-253" rx="108.58" ry="18"/>
<text text-anchor="middle" x="108.54" y="-249.3" font-family="Times,serif" font-size="14.00">has_designated_dealer_role</text>
</g>
<!-- has_role -->
<g id="node2" class="node">
<title>has_role</title>
<ellipse fill="none" stroke="black" cx="108.54" cy="-181" rx="40.09" ry="18"/>
<text text-anchor="middle" x="108.54" y="-177.3" font-family="Times,serif" font-size="14.00">has_role</text>
</g>
<!-- has_designated_dealer_role&#45;&gt;has_role -->
<g id="edge1" class="edge">
<title>has_designated_dealer_role&#45;&gt;has_role</title>
<path fill="none" stroke="black" d="M108.54,-234.7C108.54,-226.98 108.54,-217.71 108.54,-209.11"/>
<polygon fill="black" stroke="black" points="112.04,-209.1 108.54,-199.1 105.04,-209.1 112.04,-209.1"/>
</g>
<!-- Signer::address_of -->
<g id="node3" class="node">
<title>Signer::address_of</title>
<ellipse fill="none" stroke="black" cx="108.54" cy="-106" rx="48.99" ry="18"/>
<text text-anchor="middle" x="108.54" y="-102.3" font-family="Times,serif" font-size="14.00">address_of</text>
</g>
<!-- has_role&#45;&gt;Signer::address_of -->
<g id="edge2" class="edge">
<title>has_role&#45;&gt;Signer::address_of</title>
<path fill="none" stroke="black" d="M108.54,-162.7C108.54,-154.25 108.54,-143.87 108.54,-134.37"/>
<polygon fill="black" stroke="black" points="112.04,-134.18 108.54,-124.18 105.04,-134.18 112.04,-134.18"/>
</g>
<!-- Signer::borrow_address -->
<g id="node4" class="node">
<title>Signer::borrow_address</title>
<ellipse fill="none" stroke="black" cx="108.54" cy="-34" rx="66.89" ry="18"/>
<text text-anchor="middle" x="108.54" y="-30.3" font-family="Times,serif" font-size="14.00">borrow_address</text>
</g>
<!-- Signer::address_of&#45;&gt;Signer::borrow_address -->
<g id="edge3" class="edge">
<title>Signer::address_of&#45;&gt;Signer::borrow_address</title>
<path fill="none" stroke="black" d="M108.54,-87.7C108.54,-79.98 108.54,-70.71 108.54,-62.11"/>
<polygon fill="black" stroke="black" points="112.04,-62.1 108.54,-52.1 105.04,-62.1 112.04,-62.1"/>
</g>
</g>
</svg>
