<?xml version="1.0" encoding="UTF-8" standalone="no"?>
<!DOCTYPE svg PUBLIC "-//W3C//DTD SVG 1.1//EN"
 "http://www.w3.org/Graphics/SVG/1.1/DTD/svg11.dtd">
<!-- Generated by graphviz version 2.46.1 (20210213.1702)
 -->
<!-- Title: G Pages: 1 -->
<svg width="3178pt" height="764pt"
 viewBox="0.00 0.00 3178.00 764.00" xmlns="http://www.w3.org/2000/svg" xmlns:xlink="http://www.w3.org/1999/xlink">
<g id="graph0" class="graph" transform="scale(1 1) rotate(0) translate(4 760)">
<title>G</title>
<polygon fill="white" stroke="transparent" points="-4,4 -4,-760 3174,-760 3174,4 -4,4"/>
<!-- SharedEd25519PublicKey -->
<g id="node1" class="node">
<title>SharedEd25519PublicKey</title>
<ellipse fill="none" stroke="black" cx="1980" cy="-738" rx="103.98" ry="18"/>
<text text-anchor="middle" x="1980" y="-734.3" font-family="Times,serif" font-size="14.00">SharedEd25519PublicKey</text>
</g>
<!-- Signer -->
<g id="node2" class="node">
<title>Signer</title>
<ellipse fill="none" stroke="black" cx="2464" cy="-18" rx="33.6" ry="18"/>
<text text-anchor="middle" x="2464" y="-14.3" font-family="Times,serif" font-size="14.00">Signer</text>
</g>
<!-- SharedEd25519PublicKey&#45;&gt;Signer -->
<g id="edge1" class="edge">
<title>SharedEd25519PublicKey&#45;&gt;Signer</title>
<path fill="none" stroke="black" d="M2083.01,-735.44C2372.09,-729.72 3170,-704.04 3170,-595 3170,-595 3170,-595 3170,-161 3170,-107.81 3137.62,-95.69 3090,-72 2987.75,-21.15 2633.95,-18.03 2508.52,-18.57"/>
<polygon fill="black" stroke="black" points="2508.13,-15.08 2498.14,-18.63 2508.16,-22.08 2508.13,-15.08"/>
</g>
<!-- Errors -->
<g id="node3" class="node">
<title>Errors</title>
<ellipse fill="none" stroke="black" cx="1427" cy="-18" rx="32.49" ry="18"/>
<text text-anchor="middle" x="1427" y="-14.3" font-family="Times,serif" font-size="14.00">Errors</text>
</g>
<!-- SharedEd25519PublicKey&#45;&gt;Errors -->
<g id="edge2" class="edge">
<title>SharedEd25519PublicKey&#45;&gt;Errors</title>
<path fill="none" stroke="black" d="M1876.52,-735.99C1573.28,-732.66 690.22,-720.03 404,-684 221.58,-661.04 0,-778.86 0,-595 0,-595 0,-595 0,-161 0,-94.96 56.77,-94.11 119,-72 240.36,-28.89 1172.29,-20.57 1384.21,-19.23"/>
<polygon fill="black" stroke="black" points="1384.35,-22.73 1394.32,-19.17 1384.3,-15.73 1384.35,-22.73"/>
</g>
<!-- Signature -->
<g id="node4" class="node">
<title>Signature</title>
<ellipse fill="none" stroke="black" cx="552" cy="-306" rx="44.39" ry="18"/>
<text text-anchor="middle" x="552" y="-302.3" font-family="Times,serif" font-size="14.00">Signature</text>
</g>
<!-- SharedEd25519PublicKey&#45;&gt;Signature -->
<g id="edge3" class="edge">
<title>SharedEd25519PublicKey&#45;&gt;Signature</title>
<path fill="none" stroke="black" d="M1875.94,-737.12C1530.25,-736.44 436.04,-725.3 331,-612 239.71,-513.53 437.05,-376.8 518.73,-326.54"/>
<polygon fill="black" stroke="black" points="520.92,-329.31 527.64,-321.12 517.28,-323.33 520.92,-329.31"/>
</g>
<!-- DiemAccount -->
<g id="node5" class="node">
<title>DiemAccount</title>
<ellipse fill="none" stroke="black" cx="1980" cy="-666" rx="60.39" ry="18"/>
<text text-anchor="middle" x="1980" y="-662.3" font-family="Times,serif" font-size="14.00">DiemAccount</text>
</g>
<!-- SharedEd25519PublicKey&#45;&gt;DiemAccount -->
<g id="edge4" class="edge">
<title>SharedEd25519PublicKey&#45;&gt;DiemAccount</title>
<path fill="none" stroke="black" d="M1980,-719.7C1980,-711.98 1980,-702.71 1980,-694.11"/>
<polygon fill="black" stroke="black" points="1983.5,-694.1 1980,-684.1 1976.5,-694.1 1983.5,-694.1"/>
</g>
<!-- Authenticator -->
<g id="node6" class="node">
<title>Authenticator</title>
<ellipse fill="none" stroke="black" cx="2855" cy="-234" rx="59.29" ry="18"/>
<text text-anchor="middle" x="2855" y="-230.3" font-family="Times,serif" font-size="14.00">Authenticator</text>
</g>
<!-- SharedEd25519PublicKey&#45;&gt;Authenticator -->
<g id="edge5" class="edge">
<title>SharedEd25519PublicKey&#45;&gt;Authenticator</title>
<path fill="none" stroke="black" d="M2077.76,-731.69C2313.56,-717.9 2898.48,-677.36 2956,-612 3048.54,-506.85 2925.77,-325.69 2875.08,-259.84"/>
<polygon fill="black" stroke="black" points="2877.62,-257.42 2868.71,-251.69 2872.1,-261.73 2877.62,-257.42"/>
</g>
<!-- DiemAccount&#45;&gt;Signer -->
<g id="edge6" class="edge">
<title>DiemAccount&#45;&gt;Signer</title>
<path fill="none" stroke="black" d="M2040.35,-664.7C2238.72,-663.29 2862.43,-655.41 2941,-612 3041.84,-556.28 3132,-408.86 3132,-235 3132,-235 3132,-235 3132,-161 3132,-104.43 3092.35,-95.73 3041,-72 2946.27,-28.22 2626.06,-20.59 2508.1,-19.27"/>
<polygon fill="black" stroke="black" points="2508.02,-15.77 2497.99,-19.17 2507.95,-22.77 2508.02,-15.77"/>
</g>
<!-- DiemAccount&#45;&gt;Errors -->
<g id="edge7" class="edge">
<title>DiemAccount&#45;&gt;Errors</title>
<path fill="none" stroke="black" d="M2016.91,-651.57C2038.13,-642.6 2064.39,-629.28 2084,-612 2171.13,-535.23 2180.8,-500.71 2231,-396 2252.18,-351.83 2268.9,-334.33 2253,-288 2239.84,-249.65 2223.28,-246.87 2197,-216 2138.94,-147.8 2137.5,-109.17 2056,-72 1951.12,-24.17 1593.86,-19.16 1469.83,-18.89"/>
<polygon fill="black" stroke="black" points="1469.6,-15.39 1459.59,-18.88 1469.59,-22.39 1469.6,-15.39"/>
</g>
<!-- CoreAddresses -->
<g id="node7" class="node">
<title>CoreAddresses</title>
<ellipse fill="none" stroke="black" cx="1834" cy="-90" rx="63.89" ry="18"/>
<text text-anchor="middle" x="1834" y="-86.3" font-family="Times,serif" font-size="14.00">CoreAddresses</text>
</g>
<!-- DiemAccount&#45;&gt;CoreAddresses -->
<g id="edge8" class="edge">
<title>DiemAccount&#45;&gt;CoreAddresses</title>
<path fill="none" stroke="black" d="M2040.24,-664.03C2185.47,-661.11 2551.39,-650.08 2667,-612 2724.28,-593.13 2752.79,-592.75 2782,-540 2836.29,-441.96 2793.22,-398.23 2773,-288 2761.12,-223.22 2788.57,-186.2 2738,-144 2706.29,-117.53 2117.17,-98.8 1907.4,-92.94"/>
<polygon fill="black" stroke="black" points="1907.2,-89.43 1897.11,-92.66 1907.01,-96.43 1907.2,-89.43"/>
</g>
<!-- DiemTimestamp -->
<g id="node8" class="node">
<title>DiemTimestamp</title>
<ellipse fill="none" stroke="black" cx="1252" cy="-162" rx="71.49" ry="18"/>
<text text-anchor="middle" x="1252" y="-158.3" font-family="Times,serif" font-size="14.00">DiemTimestamp</text>
</g>
<!-- DiemAccount&#45;&gt;DiemTimestamp -->
<g id="edge9" class="edge">
<title>DiemAccount&#45;&gt;DiemTimestamp</title>
<path fill="none" stroke="black" d="M1919.53,-664.65C1619.55,-662.75 302.46,-652.12 226,-612 69.48,-529.87 88.89,-425.85 57,-252 54.11,-236.26 45.94,-227.56 57,-216 95.45,-175.81 906.64,-165.77 1170.13,-163.56"/>
<polygon fill="black" stroke="black" points="1170.42,-167.06 1180.39,-163.48 1170.37,-160.06 1170.42,-167.06"/>
</g>
<!-- SlidingNonce -->
<g id="node9" class="node">
<title>SlidingNonce</title>
<ellipse fill="none" stroke="black" cx="2893" cy="-90" rx="59.29" ry="18"/>
<text text-anchor="middle" x="2893" y="-86.3" font-family="Times,serif" font-size="14.00">SlidingNonce</text>
</g>
<!-- DiemAccount&#45;&gt;SlidingNonce -->
<g id="edge10" class="edge">
<title>DiemAccount&#45;&gt;SlidingNonce</title>
<path fill="none" stroke="black" d="M2040.36,-664.52C2233.58,-662.59 2828.61,-653.31 2904,-612 3076.05,-517.72 2948.73,-209.33 2905.77,-117.21"/>
<polygon fill="black" stroke="black" points="2908.86,-115.57 2901.42,-108.03 2902.53,-118.56 2908.86,-115.57"/>
</g>
<!-- Roles -->
<g id="node10" class="node">
<title>Roles</title>
<ellipse fill="none" stroke="black" cx="1465" cy="-234" rx="30.59" ry="18"/>
<text text-anchor="middle" x="1465" y="-230.3" font-family="Times,serif" font-size="14.00">Roles</text>
</g>
<!-- DiemAccount&#45;&gt;Roles -->
<g id="edge11" class="edge">
<title>DiemAccount&#45;&gt;Roles</title>
<path fill="none" stroke="black" d="M1919.52,-664.75C1723.31,-663.5 1105.92,-656.08 912,-612 812.35,-589.35 700,-625.19 700,-523 700,-523 700,-523 700,-449 700,-297.17 1265.95,-248.2 1424.28,-237.48"/>
<polygon fill="black" stroke="black" points="1424.79,-240.95 1434.54,-236.8 1424.33,-233.97 1424.79,-240.95"/>
</g>
<!-- Vector -->
<g id="node11" class="node">
<title>Vector</title>
<ellipse fill="none" stroke="black" cx="2060" cy="-162" rx="33.6" ry="18"/>
<text text-anchor="middle" x="2060" y="-158.3" font-family="Times,serif" font-size="14.00">Vector</text>
</g>
<!-- DiemAccount&#45;&gt;Vector -->
<g id="edge12" class="edge">
<title>DiemAccount&#45;&gt;Vector</title>
<path fill="none" stroke="black" d="M2037.3,-660.22C2212.62,-644.83 2730,-593.44 2730,-523 2730,-523 2730,-523 2730,-377 2730,-296.4 2647.64,-315.83 2572,-288 2493.39,-259.07 2462.62,-288.03 2387,-252 2364.5,-241.28 2366.74,-226.2 2344,-216 2243.57,-170.98 2204.82,-210.25 2099,-180 2097.34,-179.53 2095.66,-179 2093.97,-178.43"/>
<polygon fill="black" stroke="black" points="2094.99,-175.07 2084.39,-174.81 2092.51,-181.61 2094.99,-175.07"/>
</g>
<!-- BCS -->
<g id="node12" class="node">
<title>BCS</title>
<ellipse fill="none" stroke="black" cx="2702" cy="-162" rx="27.1" ry="18"/>
<text text-anchor="middle" x="2702" y="-158.3" font-family="Times,serif" font-size="14.00">BCS</text>
</g>
<!-- DiemAccount&#45;&gt;BCS -->
<g id="edge13" class="edge">
<title>DiemAccount&#45;&gt;BCS</title>
<path fill="none" stroke="black" d="M2040.39,-665.05C2146.56,-663.9 2372.95,-655.94 2558,-612 2656.63,-588.58 2768,-624.37 2768,-523 2768,-523 2768,-523 2768,-377 2768,-306.03 2734.45,-227.47 2715.19,-188.22"/>
<polygon fill="black" stroke="black" points="2718.24,-186.5 2710.63,-179.12 2711.98,-189.63 2718.24,-186.5"/>
</g>
<!-- Event -->
<g id="node13" class="node">
<title>Event</title>
<ellipse fill="none" stroke="black" cx="2157" cy="-234" rx="31.4" ry="18"/>
<text text-anchor="middle" x="2157" y="-230.3" font-family="Times,serif" font-size="14.00">Event</text>
</g>
<!-- DiemAccount&#45;&gt;Event -->
<g id="edge14" class="edge">
<title>DiemAccount&#45;&gt;Event</title>
<path fill="none" stroke="black" d="M2036.99,-659.79C2101.95,-652.71 2202.7,-637.85 2230,-612 2259.75,-583.83 2254,-563.97 2254,-523 2254,-523 2254,-523 2254,-449 2254,-377.44 2289.56,-349.51 2253,-288 2249.28,-281.74 2215.73,-264.04 2189.33,-250.8"/>
<polygon fill="black" stroke="black" points="2190.86,-247.66 2180.35,-246.33 2187.74,-253.92 2190.86,-247.66"/>
</g>
<!-- DiemConfig -->
<g id="node14" class="node">
<title>DiemConfig</title>
<ellipse fill="none" stroke="black" cx="2457" cy="-306" rx="54.69" ry="18"/>
<text text-anchor="middle" x="2457" y="-302.3" font-family="Times,serif" font-size="14.00">DiemConfig</text>
</g>
<!-- DiemAccount&#45;&gt;DiemConfig -->
<g id="edge15" class="edge">
<title>DiemAccount&#45;&gt;DiemConfig</title>
<path fill="none" stroke="black" d="M2040.13,-664.03C2131.7,-661.29 2300.12,-650.95 2344,-612 2374.64,-584.8 2368,-563.97 2368,-523 2368,-523 2368,-523 2368,-449 2368,-408.55 2365.29,-394.13 2387,-360 2395.38,-346.83 2408.25,-335.72 2420.68,-327.13"/>
<polygon fill="black" stroke="black" points="2422.7,-329.99 2429.15,-321.58 2418.87,-324.13 2422.7,-329.99"/>
</g>
<!-- Diem -->
<g id="node15" class="node">
<title>Diem</title>
<ellipse fill="none" stroke="black" cx="1562" cy="-450" rx="30.59" ry="18"/>
<text text-anchor="middle" x="1562" y="-446.3" font-family="Times,serif" font-size="14.00">Diem</text>
</g>
<!-- DiemAccount&#45;&gt;Diem -->
<g id="edge16" class="edge">
<title>DiemAccount&#45;&gt;Diem</title>
<path fill="none" stroke="black" d="M1922.84,-659.89C1843.28,-652.04 1703.87,-635.45 1659,-612 1619.44,-591.33 1611.68,-578.44 1589,-540 1577.68,-520.82 1570.72,-496.47 1566.71,-478.09"/>
<polygon fill="black" stroke="black" points="1570.09,-477.15 1564.68,-468.04 1563.23,-478.54 1570.09,-477.15"/>
</g>
<!-- AccountLimits -->
<g id="node16" class="node">
<title>AccountLimits</title>
<ellipse fill="none" stroke="black" cx="1096" cy="-306" rx="63.89" ry="18"/>
<text text-anchor="middle" x="1096" y="-302.3" font-family="Times,serif" font-size="14.00">AccountLimits</text>
</g>
<!-- DiemAccount&#45;&gt;AccountLimits -->
<g id="edge17" class="edge">
<title>DiemAccount&#45;&gt;AccountLimits</title>
<path fill="none" stroke="black" d="M1955.95,-649.38C1878.87,-599.43 1640.77,-446.06 1602,-432 1496.88,-393.87 1461.65,-422.41 1353,-396 1276.28,-377.35 1190.13,-345.09 1139.6,-324.96"/>
<polygon fill="black" stroke="black" points="1140.88,-321.7 1130.29,-321.22 1138.27,-328.19 1140.88,-321.7"/>
</g>
<!-- XUS -->
<g id="node17" class="node">
<title>XUS</title>
<ellipse fill="none" stroke="black" cx="1258" cy="-522" rx="28.7" ry="18"/>
<text text-anchor="middle" x="1258" y="-518.3" font-family="Times,serif" font-size="14.00">XUS</text>
</g>
<!-- DiemAccount&#45;&gt;XUS -->
<g id="edge18" class="edge">
<title>DiemAccount&#45;&gt;XUS</title>
<path fill="none" stroke="black" d="M1921.47,-661.1C1837.9,-654.79 1679.92,-640.11 1548,-612 1453.4,-591.84 1345.27,-554.8 1291.72,-535.47"/>
<polygon fill="black" stroke="black" points="1292.66,-532.09 1282.06,-531.97 1290.27,-538.67 1292.66,-532.09"/>
</g>
<!-- XDX -->
<g id="node18" class="node">
<title>XDX</title>
<ellipse fill="none" stroke="black" cx="911" cy="-522" rx="29.8" ry="18"/>
<text text-anchor="middle" x="911" y="-518.3" font-family="Times,serif" font-size="14.00">XDX</text>
</g>
<!-- DiemAccount&#45;&gt;XDX -->
<g id="edge19" class="edge">
<title>DiemAccount&#45;&gt;XDX</title>
<path fill="none" stroke="black" d="M1919.63,-663.87C1702.87,-659.56 974.6,-642.82 936,-612 917.82,-597.48 912.21,-570.87 910.77,-550.52"/>
<polygon fill="black" stroke="black" points="914.26,-550.1 910.35,-540.26 907.26,-550.39 914.26,-550.1"/>
</g>
<!-- ValidatorOperatorConfig -->
<g id="node19" class="node">
<title>ValidatorOperatorConfig</title>
<ellipse fill="none" stroke="black" cx="354" cy="-306" rx="98.28" ry="18"/>
<text text-anchor="middle" x="354" y="-302.3" font-family="Times,serif" font-size="14.00">ValidatorOperatorConfig</text>
</g>
<!-- DiemAccount&#45;&gt;ValidatorOperatorConfig -->
<g id="edge20" class="edge">
<title>DiemAccount&#45;&gt;ValidatorOperatorConfig</title>
<path fill="none" stroke="black" d="M1919.73,-664.13C1698.16,-660.67 928.93,-646.4 686,-612 521.53,-588.71 323,-689.11 323,-523 323,-523 323,-523 323,-449 323,-408.1 335.43,-362.06 344.55,-333.79"/>
<polygon fill="black" stroke="black" points="347.89,-334.82 347.73,-324.22 341.25,-332.61 347.89,-334.82"/>
</g>
<!-- Option -->
<g id="node20" class="node">
<title>Option</title>
<ellipse fill="none" stroke="black" cx="101" cy="-234" rx="35.19" ry="18"/>
<text text-anchor="middle" x="101" y="-230.3" font-family="Times,serif" font-size="14.00">Option</text>
</g>
<!-- DiemAccount&#45;&gt;Option -->
<g id="edge21" class="edge">
<title>DiemAccount&#45;&gt;Option</title>
<path fill="none" stroke="black" d="M1919.59,-664.78C1624.38,-663.52 344.72,-655.54 273,-612 145.48,-534.59 111.69,-335.24 103.46,-262.28"/>
<polygon fill="black" stroke="black" points="106.91,-261.65 102.38,-252.07 99.95,-262.39 106.91,-261.65"/>
</g>
<!-- ValidatorConfig -->
<g id="node21" class="node">
<title>ValidatorConfig</title>
<ellipse fill="none" stroke="black" cx="228" cy="-378" rx="66.89" ry="18"/>
<text text-anchor="middle" x="228" y="-374.3" font-family="Times,serif" font-size="14.00">ValidatorConfig</text>
</g>
<!-- DiemAccount&#45;&gt;ValidatorConfig -->
<g id="edge22" class="edge">
<title>DiemAccount&#45;&gt;ValidatorConfig</title>
<path fill="none" stroke="black" d="M1919.26,-664.99C1626.79,-664.69 375.06,-660.57 309,-612 242.78,-563.31 230.32,-456.68 228.24,-406.34"/>
<polygon fill="black" stroke="black" points="231.73,-406.1 227.93,-396.21 224.74,-406.31 231.73,-406.1"/>
</g>
<!-- VASP -->
<g id="node22" class="node">
<title>VASP</title>
<ellipse fill="none" stroke="black" cx="1084" cy="-378" rx="32.49" ry="18"/>
<text text-anchor="middle" x="1084" y="-374.3" font-family="Times,serif" font-size="14.00">VASP</text>
</g>
<!-- DiemAccount&#45;&gt;VASP -->
<g id="edge23" class="edge">
<title>DiemAccount&#45;&gt;VASP</title>
<path fill="none" stroke="black" d="M1920.19,-663.15C1816.63,-659.11 1597.58,-646.88 1416,-612 1304.54,-590.59 1265.62,-602.68 1171,-540 1136.51,-517.15 1131.68,-504.39 1112,-468 1101.44,-448.47 1094.16,-424.33 1089.68,-406.12"/>
<polygon fill="black" stroke="black" points="1093.03,-405.11 1087.35,-396.17 1086.22,-406.7 1093.03,-405.11"/>
</g>
<!-- TransactionFee -->
<g id="node23" class="node">
<title>TransactionFee</title>
<ellipse fill="none" stroke="black" cx="1010" cy="-594" rx="64.99" ry="18"/>
<text text-anchor="middle" x="1010" y="-590.3" font-family="Times,serif" font-size="14.00">TransactionFee</text>
</g>
<!-- DiemAccount&#45;&gt;TransactionFee -->
<g id="edge24" class="edge">
<title>DiemAccount&#45;&gt;TransactionFee</title>
<path fill="none" stroke="black" d="M1919.61,-664.46C1775.57,-662.51 1400.75,-653.51 1091,-612 1083.39,-610.98 1075.43,-609.65 1067.59,-608.17"/>
<polygon fill="black" stroke="black" points="1068.26,-604.74 1057.77,-606.24 1066.91,-611.6 1068.26,-604.74"/>
</g>
<!-- Hash -->
<g id="node24" class="node">
<title>Hash</title>
<ellipse fill="none" stroke="black" cx="2874" cy="-162" rx="28.7" ry="18"/>
<text text-anchor="middle" x="2874" y="-158.3" font-family="Times,serif" font-size="14.00">Hash</text>
</g>
<!-- DiemAccount&#45;&gt;Hash -->
<g id="edge25" class="edge">
<title>DiemAccount&#45;&gt;Hash</title>
<path fill="none" stroke="black" d="M2040.08,-663.92C2226.09,-660.24 2784.38,-646.42 2858,-612 2907.27,-588.97 2942,-577.39 2942,-523 2942,-523 2942,-523 2942,-305 2942,-264.55 2941.62,-251.91 2923,-216 2916.87,-204.18 2907.39,-193.04 2898.39,-184.06"/>
<polygon fill="black" stroke="black" points="2900.69,-181.41 2891.04,-177.05 2895.86,-186.48 2900.69,-181.41"/>
</g>
<!-- DualAttestation -->
<g id="node25" class="node">
<title>DualAttestation</title>
<ellipse fill="none" stroke="black" cx="1734" cy="-594" rx="66.09" ry="18"/>
<text text-anchor="middle" x="1734" y="-590.3" font-family="Times,serif" font-size="14.00">DualAttestation</text>
</g>
<!-- DiemAccount&#45;&gt;DualAttestation -->
<g id="edge26" class="edge">
<title>DiemAccount&#45;&gt;DualAttestation</title>
<path fill="none" stroke="black" d="M1937.99,-653.05C1896.44,-641.22 1832.69,-623.08 1787.53,-610.23"/>
<polygon fill="black" stroke="black" points="1788.49,-606.87 1777.91,-607.49 1786.57,-613.6 1788.49,-606.87"/>
</g>
<!-- DiemTransactionPublishingOption -->
<g id="node26" class="node">
<title>DiemTransactionPublishingOption</title>
<ellipse fill="none" stroke="black" cx="2530" cy="-378" rx="133.78" ry="18"/>
<text text-anchor="middle" x="2530" y="-374.3" font-family="Times,serif" font-size="14.00">DiemTransactionPublishingOption</text>
</g>
<!-- DiemAccount&#45;&gt;DiemTransactionPublishingOption -->
<g id="edge27" class="edge">
<title>DiemAccount&#45;&gt;DiemTransactionPublishingOption</title>
<path fill="none" stroke="black" d="M2039.78,-663.24C2137.59,-659.37 2326.51,-647.41 2382,-612 2459.69,-562.42 2504.18,-455.83 2521.5,-405.88"/>
<polygon fill="black" stroke="black" points="2524.92,-406.71 2524.79,-396.12 2518.28,-404.48 2524.92,-406.71"/>
</g>
<!-- DesignatedDealer -->
<g id="node27" class="node">
<title>DesignatedDealer</title>
<ellipse fill="none" stroke="black" cx="1980" cy="-594" rx="73.39" ry="18"/>
<text text-anchor="middle" x="1980" y="-590.3" font-family="Times,serif" font-size="14.00">DesignatedDealer</text>
</g>
<!-- DiemAccount&#45;&gt;DesignatedDealer -->
<g id="edge28" class="edge">
<title>DiemAccount&#45;&gt;DesignatedDealer</title>
<path fill="none" stroke="black" d="M1980,-647.7C1980,-639.98 1980,-630.71 1980,-622.11"/>
<polygon fill="black" stroke="black" points="1983.5,-622.1 1980,-612.1 1976.5,-622.1 1983.5,-622.1"/>
</g>
<!-- ChainId -->
<g id="node28" class="node">
<title>ChainId</title>
<ellipse fill="none" stroke="black" cx="2435" cy="-234" rx="38.99" ry="18"/>
<text text-anchor="middle" x="2435" y="-230.3" font-family="Times,serif" font-size="14.00">ChainId</text>
</g>
<!-- DiemAccount&#45;&gt;ChainId -->
<g id="edge29" class="edge">
<title>DiemAccount&#45;&gt;ChainId</title>
<path fill="none" stroke="black" d="M2040.35,-664.92C2099.19,-662.31 2189.3,-651.39 2256,-612 2300.3,-585.84 2330,-574.44 2330,-523 2330,-523 2330,-523 2330,-449 2330,-373.21 2383.74,-296.33 2414.33,-258.71"/>
<polygon fill="black" stroke="black" points="2417.15,-260.8 2420.84,-250.87 2411.76,-256.33 2417.15,-260.8"/>
</g>
<!-- AccountFreezing -->
<g id="node29" class="node">
<title>AccountFreezing</title>
<ellipse fill="none" stroke="black" cx="2047" cy="-306" rx="71.49" ry="18"/>
<text text-anchor="middle" x="2047" y="-302.3" font-family="Times,serif" font-size="14.00">AccountFreezing</text>
</g>
<!-- DiemAccount&#45;&gt;AccountFreezing -->
<g id="edge30" class="edge">
<title>DiemAccount&#45;&gt;AccountFreezing</title>
<path fill="none" stroke="black" d="M2014.94,-651.1C2031.99,-642.45 2051.12,-629.59 2062,-612 2116.99,-523.07 2078.35,-390.14 2057.71,-333.79"/>
<polygon fill="black" stroke="black" points="2060.89,-332.31 2054.09,-324.18 2054.34,-334.77 2060.89,-332.31"/>
</g>
<!-- Authenticator&#45;&gt;Errors -->
<g id="edge31" class="edge">
<title>Authenticator&#45;&gt;Errors</title>
<path fill="none" stroke="black" d="M2845.86,-215.95C2833.97,-195.49 2811.21,-161.74 2782,-144 2649.23,-63.38 2594.02,-92.12 2440,-72 2066.43,-23.2 1609.82,-18.95 1469.82,-18.87"/>
<polygon fill="black" stroke="black" points="1469.53,-15.37 1459.53,-18.87 1469.53,-22.37 1469.53,-15.37"/>
</g>
<!-- Authenticator&#45;&gt;Vector -->
<g id="edge32" class="edge">
<title>Authenticator&#45;&gt;Vector</title>
<path fill="none" stroke="black" d="M2799.1,-228.08C2648.89,-214.85 2238.81,-178.74 2103.77,-166.85"/>
<polygon fill="black" stroke="black" points="2103.68,-163.33 2093.41,-165.94 2103.07,-170.31 2103.68,-163.33"/>
</g>
<!-- Authenticator&#45;&gt;BCS -->
<g id="edge33" class="edge">
<title>Authenticator&#45;&gt;BCS</title>
<path fill="none" stroke="black" d="M2823.67,-218.67C2797.2,-206.55 2759.48,-189.3 2733.08,-177.22"/>
<polygon fill="black" stroke="black" points="2734.45,-174 2723.9,-173.02 2731.54,-180.36 2734.45,-174"/>
</g>
<!-- Authenticator&#45;&gt;Hash -->
<g id="edge34" class="edge">
<title>Authenticator&#45;&gt;Hash</title>
<path fill="none" stroke="black" d="M2859.7,-215.7C2861.81,-207.9 2864.36,-198.51 2866.72,-189.83"/>
<polygon fill="black" stroke="black" points="2870.12,-190.67 2869.36,-180.1 2863.36,-188.84 2870.12,-190.67"/>
</g>
<!-- CoreAddresses&#45;&gt;Signer -->
<g id="edge35" class="edge">
<title>CoreAddresses&#45;&gt;Signer</title>
<path fill="none" stroke="black" d="M1892.14,-82.54C2017.55,-68.61 2311.05,-35.99 2421.21,-23.75"/>
<polygon fill="black" stroke="black" points="2421.74,-27.22 2431.29,-22.63 2420.97,-20.26 2421.74,-27.22"/>
</g>
<!-- CoreAddresses&#45;&gt;Errors -->
<g id="edge36" class="edge">
<title>CoreAddresses&#45;&gt;Errors</title>
<path fill="none" stroke="black" d="M1781.21,-79.92C1698.83,-65.75 1541.5,-38.69 1467.45,-25.96"/>
<polygon fill="black" stroke="black" points="1468.01,-22.5 1457.56,-24.26 1466.83,-29.4 1468.01,-22.5"/>
</g>
<!-- DiemTimestamp&#45;&gt;Errors -->
<g id="edge37" class="edge">
<title>DiemTimestamp&#45;&gt;Errors</title>
<path fill="none" stroke="black" d="M1265.54,-144.25C1281.39,-125.29 1309.04,-94.17 1337,-72 1354.79,-57.9 1376.7,-44.92 1394.45,-35.33"/>
<polygon fill="black" stroke="black" points="1396.11,-38.41 1403.31,-30.64 1392.83,-32.22 1396.11,-38.41"/>
</g>
<!-- DiemTimestamp&#45;&gt;CoreAddresses -->
<g id="edge38" class="edge">
<title>DiemTimestamp&#45;&gt;CoreAddresses</title>
<path fill="none" stroke="black" d="M1315.11,-153.41C1425.66,-140.11 1653.32,-112.73 1766.73,-99.09"/>
<polygon fill="black" stroke="black" points="1767.17,-102.56 1776.68,-97.89 1766.34,-95.61 1767.17,-102.56"/>
</g>
<!-- SlidingNonce&#45;&gt;Signer -->
<g id="edge39" class="edge">
<title>SlidingNonce&#45;&gt;Signer</title>
<path fill="none" stroke="black" d="M2848.34,-78C2839,-75.87 2829.2,-73.75 2820,-72 2707.55,-50.57 2573.73,-32.67 2506.71,-24.22"/>
<polygon fill="black" stroke="black" points="2506.9,-20.72 2496.54,-22.95 2506.03,-27.66 2506.9,-20.72"/>
</g>
<!-- SlidingNonce&#45;&gt;Errors -->
<g id="edge40" class="edge">
<title>SlidingNonce&#45;&gt;Errors</title>
<path fill="none" stroke="black" d="M2850.02,-77.56C2840.22,-75.35 2829.8,-73.32 2820,-72 2549.31,-35.67 1673.15,-22.2 1469.55,-19.52"/>
<polygon fill="black" stroke="black" points="1469.59,-16.03 1459.54,-19.39 1469.5,-23.02 1469.59,-16.03"/>
</g>
<!-- Roles&#45;&gt;Signer -->
<g id="edge41" class="edge">
<title>Roles&#45;&gt;Signer</title>
<path fill="none" stroke="black" d="M1478.07,-217.66C1507.77,-184.04 1584.29,-104.33 1668,-72 1806.81,-18.4 2273.39,-17.44 2419.72,-18.51"/>
<polygon fill="black" stroke="black" points="2420.06,-22.02 2430.09,-18.6 2420.12,-15.02 2420.06,-22.02"/>
</g>
<!-- Roles&#45;&gt;Errors -->
<g id="edge42" class="edge">
<title>Roles&#45;&gt;Errors</title>
<path fill="none" stroke="black" d="M1461.95,-215.85C1455.37,-178.74 1439.74,-90.75 1431.8,-46.05"/>
<polygon fill="black" stroke="black" points="1435.2,-45.17 1430.01,-35.94 1428.31,-46.39 1435.2,-45.17"/>
</g>
<!-- Roles&#45;&gt;CoreAddresses -->
<g id="edge43" class="edge">
<title>Roles&#45;&gt;CoreAddresses</title>
<path fill="none" stroke="black" d="M1491.24,-224.6C1522.21,-214.56 1575.18,-196.96 1620,-180 1680.18,-157.23 1748.67,-128.18 1791.62,-109.58"/>
<polygon fill="black" stroke="black" points="1793.13,-112.74 1800.91,-105.55 1790.34,-106.32 1793.13,-112.74"/>
</g>
<!-- Roles&#45;&gt;DiemTimestamp -->
<g id="edge44" class="edge">
<title>Roles&#45;&gt;DiemTimestamp</title>
<path fill="none" stroke="black" d="M1438.88,-224.42C1405.28,-213.38 1346.17,-193.95 1303.41,-179.89"/>
<polygon fill="black" stroke="black" points="1304.33,-176.51 1293.73,-176.71 1302.14,-183.16 1304.33,-176.51"/>
</g>
<!-- Event&#45;&gt;Signer -->
<g id="edge45" class="edge">
<title>Event&#45;&gt;Signer</title>
<path fill="none" stroke="black" d="M2176.2,-219.61C2228.5,-183.16 2373.67,-81.97 2435.51,-38.86"/>
<polygon fill="black" stroke="black" points="2437.81,-41.53 2444.01,-32.94 2433.8,-35.78 2437.81,-41.53"/>
</g>
<!-- Event&#45;&gt;Errors -->
<g id="edge46" class="edge">
<title>Event&#45;&gt;Errors</title>
<path fill="none" stroke="black" d="M2149.2,-216.41C2139.87,-197.6 2122.98,-166.62 2103,-144 2068.86,-105.34 2059.9,-91.12 2012,-72 1913.29,-32.59 1587.44,-22.22 1469.82,-19.73"/>
<polygon fill="black" stroke="black" points="1469.82,-16.23 1459.75,-19.52 1469.68,-23.22 1469.82,-16.23"/>
</g>
<!-- Event&#45;&gt;Vector -->
<g id="edge47" class="edge">
<title>Event&#45;&gt;Vector</title>
<path fill="none" stroke="black" d="M2138.3,-219.5C2123.99,-209.18 2104.04,-194.78 2087.85,-183.1"/>
<polygon fill="black" stroke="black" points="2089.47,-179.95 2079.31,-176.93 2085.37,-185.62 2089.47,-179.95"/>
</g>
<!-- Event&#45;&gt;BCS -->
<g id="edge48" class="edge">
<title>Event&#45;&gt;BCS</title>
<path fill="none" stroke="black" d="M2187.08,-229.14C2280.18,-217.18 2563.49,-180.79 2665.18,-167.73"/>
<polygon fill="black" stroke="black" points="2665.8,-171.18 2675.28,-166.43 2664.91,-164.24 2665.8,-171.18"/>
</g>
<!-- DiemConfig&#45;&gt;Signer -->
<g id="edge49" class="edge">
<title>DiemConfig&#45;&gt;Signer</title>
<path fill="none" stroke="black" d="M2510.59,-302.28C2626.44,-295.91 2892.28,-278.56 2923,-252 2984.85,-198.52 3015.66,-132.8 2961,-72 2930.94,-38.56 2623.73,-24.53 2507.89,-20.39"/>
<polygon fill="black" stroke="black" points="2507.73,-16.89 2497.61,-20.04 2507.48,-23.88 2507.73,-16.89"/>
</g>
<!-- DiemConfig&#45;&gt;Errors -->
<g id="edge50" class="edge">
<title>DiemConfig&#45;&gt;Errors</title>
<path fill="none" stroke="black" d="M2475.56,-288.84C2485.14,-279.23 2495.88,-266.17 2501,-252 2506.43,-236.95 2506.99,-230.84 2501,-216 2484.34,-174.76 2402.43,-90.53 2362,-72 2280.3,-34.55 1642.16,-22.25 1469.79,-19.6"/>
<polygon fill="black" stroke="black" points="1469.64,-16.1 1459.59,-19.44 1469.53,-23.09 1469.64,-16.1"/>
</g>
<!-- DiemConfig&#45;&gt;CoreAddresses -->
<g id="edge51" class="edge">
<title>DiemConfig&#45;&gt;CoreAddresses</title>
<path fill="none" stroke="black" d="M2470.08,-288.33C2483.66,-268.86 2500.64,-236.71 2483,-216 2450.46,-177.78 2308.94,-191.18 2260,-180 2205.3,-167.5 2193.62,-156.82 2139,-144 2057.47,-124.86 1962.19,-109.38 1900.1,-100.2"/>
<polygon fill="black" stroke="black" points="1900.45,-96.72 1890.05,-98.73 1899.44,-103.64 1900.45,-96.72"/>
</g>
<!-- DiemConfig&#45;&gt;DiemTimestamp -->
<g id="edge52" class="edge">
<title>DiemConfig&#45;&gt;DiemTimestamp</title>
<path fill="none" stroke="black" d="M2415.26,-294.3C2378.66,-284.52 2324.22,-269.03 2278,-252 2241.03,-238.38 2235.29,-225.25 2197,-216 2034.22,-176.66 1531.56,-166.37 1333.46,-163.8"/>
<polygon fill="black" stroke="black" points="1333.45,-160.3 1323.4,-163.68 1333.36,-167.3 1333.45,-160.3"/>
</g>
<!-- DiemConfig&#45;&gt;Roles -->
<g id="edge53" class="edge">
<title>DiemConfig&#45;&gt;Roles</title>
<path fill="none" stroke="black" d="M2404.02,-301.26C2227.6,-288.81 1662.38,-248.93 1505.64,-237.87"/>
<polygon fill="black" stroke="black" points="1505.72,-234.36 1495.49,-237.15 1505.22,-241.35 1505.72,-234.36"/>
</g>
<!-- DiemConfig&#45;&gt;Event -->
<g id="edge54" class="edge">
<title>DiemConfig&#45;&gt;Event</title>
<path fill="none" stroke="black" d="M2408.99,-297.33C2357.31,-288.54 2272.99,-272.65 2202,-252 2198.61,-251.01 2195.11,-249.89 2191.63,-248.7"/>
<polygon fill="black" stroke="black" points="2192.59,-245.32 2181.99,-245.23 2190.22,-251.91 2192.59,-245.32"/>
</g>
<!-- Diem&#45;&gt;Signer -->
<g id="edge55" class="edge">
<title>Diem&#45;&gt;Signer</title>
<path fill="none" stroke="black" d="M1565.01,-431.97C1576.86,-370.67 1626.37,-160.24 1761,-72 1815.99,-35.96 2273.93,-23.08 2419.66,-19.87"/>
<polygon fill="black" stroke="black" points="2420.08,-23.37 2430,-19.65 2419.92,-16.37 2420.08,-23.37"/>
</g>
<!-- Diem&#45;&gt;Errors -->
<g id="edge56" class="edge">
<title>Diem&#45;&gt;Errors</title>
<path fill="none" stroke="black" d="M1532.26,-445.89C1479.94,-439.75 1374.9,-424.14 1353,-396 1268.48,-287.37 1368.3,-108.92 1410.19,-43.78"/>
<polygon fill="black" stroke="black" points="1413.38,-45.3 1415.92,-35.02 1407.52,-41.47 1413.38,-45.3"/>
</g>
<!-- Diem&#45;&gt;CoreAddresses -->
<g id="edge57" class="edge">
<title>Diem&#45;&gt;CoreAddresses</title>
<path fill="none" stroke="black" d="M1577.65,-434.27C1588.32,-423.94 1602.53,-409.6 1614,-396 1696.94,-297.61 1782.57,-169.93 1817.59,-116.38"/>
<polygon fill="black" stroke="black" points="1820.62,-118.14 1823.15,-107.85 1814.76,-114.32 1820.62,-118.14"/>
</g>
<!-- Diem&#45;&gt;DiemTimestamp -->
<g id="edge58" class="edge">
<title>Diem&#45;&gt;DiemTimestamp</title>
<path fill="none" stroke="black" d="M1532.1,-446.24C1474.38,-440.31 1350.57,-424.55 1320,-396 1261.3,-341.19 1252.32,-238.85 1251.55,-190.13"/>
<polygon fill="black" stroke="black" points="1255.05,-190.02 1251.5,-180.04 1248.05,-190.05 1255.05,-190.02"/>
</g>
<!-- Diem&#45;&gt;Roles -->
<g id="edge59" class="edge">
<title>Diem&#45;&gt;Roles</title>
<path fill="none" stroke="black" d="M1560.56,-431.92C1558.51,-413.48 1553.73,-383.59 1543,-360 1534.72,-341.8 1526.99,-340.71 1516,-324 1502.37,-303.29 1488.48,-278.78 1478.65,-260.73"/>
<polygon fill="black" stroke="black" points="1481.46,-258.57 1473.63,-251.44 1475.3,-261.9 1481.46,-258.57"/>
</g>
<!-- Diem&#45;&gt;Vector -->
<g id="edge61" class="edge">
<title>Diem&#45;&gt;Vector</title>
<path fill="none" stroke="black" d="M1590.02,-442.81C1623.84,-434.73 1681.93,-418.85 1728,-396 1852.55,-334.22 1982.46,-229.14 2035.38,-184.3"/>
<polygon fill="black" stroke="black" points="2037.86,-186.79 2043.2,-177.64 2033.32,-181.46 2037.86,-186.79"/>
</g>
<!-- Diem&#45;&gt;Event -->
<g id="edge62" class="edge">
<title>Diem&#45;&gt;Event</title>
<path fill="none" stroke="black" d="M1592.06,-446.22C1697.13,-435.91 2045.99,-396.74 2127,-324 2144.48,-308.3 2151.79,-282.08 2154.84,-262.15"/>
<polygon fill="black" stroke="black" points="2158.32,-262.47 2156.1,-252.11 2151.38,-261.6 2158.32,-262.47"/>
</g>
<!-- FixedPoint32 -->
<g id="node30" class="node">
<title>FixedPoint32</title>
<ellipse fill="none" stroke="black" cx="976" cy="-378" rx="57.69" ry="18"/>
<text text-anchor="middle" x="976" y="-374.3" font-family="Times,serif" font-size="14.00">FixedPoint32</text>
</g>
<!-- Diem&#45;&gt;FixedPoint32 -->
<g id="edge60" class="edge">
<title>Diem&#45;&gt;FixedPoint32</title>
<path fill="none" stroke="black" d="M1531.66,-447.46C1451.38,-443.05 1226.95,-428.55 1043,-396 1037.96,-395.11 1032.74,-394.04 1027.54,-392.88"/>
<polygon fill="black" stroke="black" points="1028.15,-389.43 1017.61,-390.56 1026.55,-396.25 1028.15,-389.43"/>
</g>
<!-- RegisteredCurrencies -->
<g id="node31" class="node">
<title>RegisteredCurrencies</title>
<ellipse fill="none" stroke="black" cx="1448" cy="-378" rx="86.38" ry="18"/>
<text text-anchor="middle" x="1448" y="-374.3" font-family="Times,serif" font-size="14.00">RegisteredCurrencies</text>
</g>
<!-- Diem&#45;&gt;RegisteredCurrencies -->
<g id="edge63" class="edge">
<title>Diem&#45;&gt;RegisteredCurrencies</title>
<path fill="none" stroke="black" d="M1541.62,-436.49C1525.48,-426.57 1502.53,-412.49 1483.4,-400.74"/>
<polygon fill="black" stroke="black" points="1485,-397.61 1474.64,-395.36 1481.33,-403.57 1485,-397.61"/>
</g>
<!-- AccountLimits&#45;&gt;Signer -->
<g id="edge64" class="edge">
<title>AccountLimits&#45;&gt;Signer</title>
<path fill="none" stroke="black" d="M1098.6,-287.99C1104.72,-254.37 1123.35,-179.58 1172,-144 1220.68,-108.4 1381.66,-118.75 1441,-108 1511.44,-95.24 1527.14,-82.22 1598,-72 1910.49,-26.92 2291.83,-20.13 2419.77,-19.15"/>
<polygon fill="black" stroke="black" points="2419.98,-22.65 2429.96,-19.08 2419.93,-15.65 2419.98,-22.65"/>
</g>
<!-- AccountLimits&#45;&gt;Errors -->
<g id="edge65" class="edge">
<title>AccountLimits&#45;&gt;Errors</title>
<path fill="none" stroke="black" d="M1092.75,-287.93C1087.65,-255.5 1081.74,-184.62 1118,-144 1189.32,-64.09 1319.05,-34.39 1385.43,-24.06"/>
<polygon fill="black" stroke="black" points="1386.15,-27.5 1395.53,-22.57 1385.12,-20.57 1386.15,-27.5"/>
</g>
<!-- AccountLimits&#45;&gt;DiemTimestamp -->
<g id="edge66" class="edge">
<title>AccountLimits&#45;&gt;DiemTimestamp</title>
<path fill="none" stroke="black" d="M1118.01,-288.98C1131.61,-278.81 1149.23,-265.12 1164,-252 1187.45,-231.16 1212.44,-205.52 1229.77,-187.12"/>
<polygon fill="black" stroke="black" points="1232.43,-189.41 1236.71,-179.71 1227.32,-184.62 1232.43,-189.41"/>
</g>
<!-- AccountLimits&#45;&gt;Roles -->
<g id="edge67" class="edge">
<title>AccountLimits&#45;&gt;Roles</title>
<path fill="none" stroke="black" d="M1144.21,-294.22C1154.05,-292.1 1164.35,-289.93 1174,-288 1263.88,-270.03 1369.9,-251.35 1425.85,-241.69"/>
<polygon fill="black" stroke="black" points="1426.76,-245.08 1436.02,-239.94 1425.58,-238.19 1426.76,-245.08"/>
</g>
<!-- XUS&#45;&gt;DiemTimestamp -->
<g id="edge68" class="edge">
<title>XUS&#45;&gt;DiemTimestamp</title>
<path fill="none" stroke="black" d="M1257.22,-503.7C1255.34,-460.98 1250.59,-347.08 1249,-252 1248.73,-236 1248.55,-231.99 1249,-216 1249.24,-207.67 1249.68,-198.62 1250.15,-190.39"/>
<polygon fill="black" stroke="black" points="1253.66,-190.37 1250.78,-180.18 1246.67,-189.94 1253.66,-190.37"/>
</g>
<!-- XUS&#45;&gt;Diem -->
<g id="edge70" class="edge">
<title>XUS&#45;&gt;Diem</title>
<path fill="none" stroke="black" d="M1284.45,-514.91C1338.5,-502.46 1461.78,-474.08 1524.24,-459.7"/>
<polygon fill="black" stroke="black" points="1525.12,-463.08 1534.08,-457.43 1523.55,-456.26 1525.12,-463.08"/>
</g>
<!-- XUS&#45;&gt;AccountLimits -->
<g id="edge71" class="edge">
<title>XUS&#45;&gt;AccountLimits</title>
<path fill="none" stroke="black" d="M1246.09,-505.26C1218.22,-468.45 1148.58,-376.46 1114.87,-331.93"/>
<polygon fill="black" stroke="black" points="1117.65,-329.8 1108.82,-323.94 1112.07,-334.02 1117.65,-329.8"/>
</g>
<!-- XUS&#45;&gt;FixedPoint32 -->
<g id="edge69" class="edge">
<title>XUS&#45;&gt;FixedPoint32</title>
<path fill="none" stroke="black" d="M1236.34,-510.09C1188.72,-486.11 1074.38,-428.54 1014.32,-398.3"/>
<polygon fill="black" stroke="black" points="1015.68,-395.06 1005.17,-393.69 1012.53,-401.31 1015.68,-395.06"/>
</g>
<!-- XDX&#45;&gt;Errors -->
<g id="edge72" class="edge">
<title>XDX&#45;&gt;Errors</title>
<path fill="none" stroke="black" d="M888.9,-509.53C827.96,-476.15 662,-372.59 662,-235 662,-235 662,-235 662,-161 662,-86.89 1224.19,-35.49 1384.69,-22.32"/>
<polygon fill="black" stroke="black" points="1385.42,-25.78 1395.1,-21.48 1384.85,-18.8 1385.42,-25.78"/>
</g>
<!-- XDX&#45;&gt;CoreAddresses -->
<g id="edge73" class="edge">
<title>XDX&#45;&gt;CoreAddresses</title>
<path fill="none" stroke="black" d="M901.15,-504.97C895.49,-494.79 888.94,-481.1 886,-468 882.5,-452.39 885.89,-448 886,-432 886.44,-367.98 867.45,-347.92 890,-288 904.47,-249.54 914.13,-239.26 948,-216 1034.2,-156.8 1069.42,-164.31 1172,-144 1382.67,-102.29 1637.23,-93.22 1760.29,-91.37"/>
<polygon fill="black" stroke="black" points="1760.4,-94.87 1770.35,-91.23 1760.3,-87.87 1760.4,-94.87"/>
</g>
<!-- XDX&#45;&gt;DiemTimestamp -->
<g id="edge74" class="edge">
<title>XDX&#45;&gt;DiemTimestamp</title>
<path fill="none" stroke="black" d="M904.66,-503.93C894.39,-473.3 877.51,-407.74 901,-360 947.31,-265.88 995.17,-264.85 1088,-216 1120.26,-199.03 1158.95,-186.21 1190.65,-177.43"/>
<polygon fill="black" stroke="black" points="1191.94,-180.71 1200.68,-174.72 1190.11,-173.95 1191.94,-180.71"/>
</g>
<!-- XDX&#45;&gt;Diem -->
<g id="edge76" class="edge">
<title>XDX&#45;&gt;Diem</title>
<path fill="none" stroke="black" d="M940.24,-517.86C1044.95,-506.6 1401.39,-468.27 1521.85,-455.32"/>
<polygon fill="black" stroke="black" points="1522.53,-458.76 1532.1,-454.22 1521.78,-451.8 1522.53,-458.76"/>
</g>
<!-- XDX&#45;&gt;AccountLimits -->
<g id="edge77" class="edge">
<title>XDX&#45;&gt;AccountLimits</title>
<path fill="none" stroke="black" d="M909.61,-503.74C906.62,-464.53 900.51,-371.23 909,-360 923.91,-340.27 983.05,-325.76 1030.88,-316.96"/>
<polygon fill="black" stroke="black" points="1031.67,-320.37 1040.9,-315.17 1030.44,-313.48 1031.67,-320.37"/>
</g>
<!-- XDX&#45;&gt;FixedPoint32 -->
<g id="edge75" class="edge">
<title>XDX&#45;&gt;FixedPoint32</title>
<path fill="none" stroke="black" d="M921.49,-504.67C927.86,-494.38 935.92,-480.69 942,-468 951.79,-447.58 960.83,-423.55 967.13,-405.61"/>
<polygon fill="black" stroke="black" points="970.46,-406.67 970.41,-396.08 963.84,-404.39 970.46,-406.67"/>
</g>
<!-- ValidatorOperatorConfig&#45;&gt;Signer -->
<g id="edge78" class="edge">
<title>ValidatorOperatorConfig&#45;&gt;Signer</title>
<path fill="none" stroke="black" d="M398.33,-289.79C491.59,-258.31 715.36,-185.51 908,-144 1129.63,-96.25 1187.33,-93.73 1413,-72 1801.98,-34.54 2274.67,-22.68 2419.63,-19.79"/>
<polygon fill="black" stroke="black" points="2419.96,-23.28 2429.89,-19.59 2419.83,-16.29 2419.96,-23.28"/>
</g>
<!-- ValidatorOperatorConfig&#45;&gt;Errors -->
<g id="edge79" class="edge">
<title>ValidatorOperatorConfig&#45;&gt;Errors</title>
<path fill="none" stroke="black" d="M361.12,-287.77C380.79,-242.68 440.67,-121.32 534,-72 609.66,-32.02 1216.94,-21.6 1384.38,-19.47"/>
<polygon fill="black" stroke="black" points="1384.58,-22.97 1394.54,-19.34 1384.5,-15.97 1384.58,-22.97"/>
</g>
<!-- ValidatorOperatorConfig&#45;&gt;DiemTimestamp -->
<g id="edge80" class="edge">
<title>ValidatorOperatorConfig&#45;&gt;DiemTimestamp</title>
<path fill="none" stroke="black" d="M425.59,-293.68C594.6,-266.95 1016.61,-200.22 1183,-173.91"/>
<polygon fill="black" stroke="black" points="1183.78,-177.33 1193.11,-172.31 1182.68,-170.42 1183.78,-177.33"/>
</g>
<!-- ValidatorOperatorConfig&#45;&gt;Roles -->
<g id="edge81" class="edge">
<title>ValidatorOperatorConfig&#45;&gt;Roles</title>
<path fill="none" stroke="black" d="M423.77,-293.33C437.72,-291.3 452.3,-289.4 466,-288 836.52,-250.14 1287.28,-238.52 1423.86,-235.74"/>
<polygon fill="black" stroke="black" points="1424.33,-239.24 1434.26,-235.54 1424.19,-232.24 1424.33,-239.24"/>
</g>
<!-- Option&#45;&gt;Errors -->
<g id="edge82" class="edge">
<title>Option&#45;&gt;Errors</title>
<path fill="none" stroke="black" d="M100.34,-215.87C100.09,-182.03 104.94,-106.86 150,-72 199.86,-33.43 1167.71,-21.57 1384.27,-19.4"/>
<polygon fill="black" stroke="black" points="1384.33,-22.89 1394.29,-19.3 1384.26,-15.9 1384.33,-22.89"/>
</g>
<!-- Option&#45;&gt;Vector -->
<g id="edge83" class="edge">
<title>Option&#45;&gt;Vector</title>
<path fill="none" stroke="black" d="M135.83,-231.76C373.17,-223.27 1750.89,-174.05 2015.91,-164.58"/>
<polygon fill="black" stroke="black" points="2016.41,-168.06 2026.28,-164.2 2016.16,-161.06 2016.41,-168.06"/>
</g>
<!-- ValidatorConfig&#45;&gt;Signer -->
<g id="edge84" class="edge">
<title>ValidatorConfig&#45;&gt;Signer</title>
<path fill="none" stroke="black" d="M222.67,-359.97C217.81,-341.04 213.16,-310.21 226,-288 258.08,-232.49 290.93,-238.41 351,-216 666.16,-98.45 759.86,-110.61 1094,-72 1359.96,-41.26 2216.44,-23.62 2420.2,-19.79"/>
<polygon fill="black" stroke="black" points="2420.3,-23.29 2430.23,-19.61 2420.17,-16.29 2420.3,-23.29"/>
</g>
<!-- ValidatorConfig&#45;&gt;Errors -->
<g id="edge85" class="edge">
<title>ValidatorConfig&#45;&gt;Errors</title>
<path fill="none" stroke="black" d="M205.33,-360.83C194.24,-351.49 182,-338.68 176,-324 156.58,-276.47 180.39,-252 217,-216 312.01,-122.56 351.87,-108.63 480,-72 653.32,-22.46 1222.86,-18.89 1384.11,-18.9"/>
<polygon fill="black" stroke="black" points="1384.13,-22.4 1394.13,-18.9 1384.13,-15.4 1384.13,-22.4"/>
</g>
<!-- ValidatorConfig&#45;&gt;Signature -->
<g id="edge87" class="edge">
<title>ValidatorConfig&#45;&gt;Signature</title>
<path fill="none" stroke="black" d="M282.82,-367.54C336.82,-357.88 421.52,-341.81 494,-324 498.6,-322.87 503.38,-321.61 508.13,-320.3"/>
<polygon fill="black" stroke="black" points="509.12,-323.66 517.79,-317.57 507.21,-316.93 509.12,-323.66"/>
</g>
<!-- ValidatorConfig&#45;&gt;DiemTimestamp -->
<g id="edge86" class="edge">
<title>ValidatorConfig&#45;&gt;DiemTimestamp</title>
<path fill="none" stroke="black" d="M226.4,-359.88C225.54,-339.68 227.54,-306.51 247,-288 313.9,-224.38 947.45,-181.02 1172.86,-167.49"/>
<polygon fill="black" stroke="black" points="1173.19,-170.98 1182.97,-166.89 1172.77,-163.99 1173.19,-170.98"/>
</g>
<!-- ValidatorConfig&#45;&gt;Roles -->
<g id="edge88" class="edge">
<title>ValidatorConfig&#45;&gt;Roles</title>
<path fill="none" stroke="black" d="M283.42,-367.88C342.22,-357.6 430.73,-340.19 461,-324 481.52,-313.03 477.63,-297.2 499,-288 584.85,-251.04 1251.72,-238.28 1424.32,-235.58"/>
<polygon fill="black" stroke="black" points="1424.56,-239.08 1434.5,-235.43 1424.45,-232.08 1424.56,-239.08"/>
</g>
<!-- ValidatorConfig&#45;&gt;ValidatorOperatorConfig -->
<g id="edge89" class="edge">
<title>ValidatorConfig&#45;&gt;ValidatorOperatorConfig</title>
<path fill="none" stroke="black" d="M255.96,-361.46C273.61,-351.66 296.64,-338.86 315.95,-328.14"/>
<polygon fill="black" stroke="black" points="317.76,-331.14 324.8,-323.22 314.36,-325.02 317.76,-331.14"/>
</g>
<!-- ValidatorConfig&#45;&gt;Option -->
<g id="edge90" class="edge">
<title>ValidatorConfig&#45;&gt;Option</title>
<path fill="none" stroke="black" d="M192.22,-362.57C173.99,-353.71 152.64,-340.82 138,-324 122.52,-306.22 112.87,-281.05 107.32,-262.01"/>
<polygon fill="black" stroke="black" points="110.65,-260.89 104.65,-252.15 103.89,-262.72 110.65,-260.89"/>
</g>
<!-- VASP&#45;&gt;Signer -->
<g id="edge91" class="edge">
<title>VASP&#45;&gt;Signer</title>
<path fill="none" stroke="black" d="M1059.76,-365.99C1043.54,-357.17 1023.5,-343.11 1014,-324 1006.88,-309.67 1008.49,-303.02 1014,-288 1042.88,-209.25 1064.48,-187.83 1136,-144 1150.84,-134.9 1423.76,-74.46 1441,-72 1816.72,-18.37 2276.94,-17.32 2419.67,-18.46"/>
<polygon fill="black" stroke="black" points="2419.76,-21.96 2429.79,-18.55 2419.82,-14.96 2419.76,-21.96"/>
</g>
<!-- VASP&#45;&gt;Errors -->
<g id="edge92" class="edge">
<title>VASP&#45;&gt;Errors</title>
<path fill="none" stroke="black" d="M1058.87,-366.51C1053.64,-364.34 1048.14,-362.08 1043,-360 1002.69,-343.67 977.93,-358.92 952,-324 936.42,-303.02 940.63,-151.53 946,-144 997.57,-71.68 1277.33,-34.83 1384.86,-23.18"/>
<polygon fill="black" stroke="black" points="1385.44,-26.64 1395.02,-22.1 1384.7,-19.68 1385.44,-26.64"/>
</g>
<!-- VASP&#45;&gt;DiemTimestamp -->
<g id="edge93" class="edge">
<title>VASP&#45;&gt;DiemTimestamp</title>
<path fill="none" stroke="black" d="M1061.88,-364.63C1047.88,-355.44 1030.97,-341.49 1023,-324 1016.36,-309.44 1014.83,-301.76 1023,-288 1023.69,-286.85 1149.06,-218.78 1213.99,-183.59"/>
<polygon fill="black" stroke="black" points="1215.98,-186.49 1223.1,-178.65 1212.64,-180.34 1215.98,-186.49"/>
</g>
<!-- VASP&#45;&gt;Roles -->
<g id="edge94" class="edge">
<title>VASP&#45;&gt;Roles</title>
<path fill="none" stroke="black" d="M1107.8,-365.5C1145.47,-347.54 1221.42,-312.39 1288,-288 1335.43,-270.63 1391.47,-254.57 1427.59,-244.79"/>
<polygon fill="black" stroke="black" points="1428.93,-248.06 1437.68,-242.08 1427.11,-241.3 1428.93,-248.06"/>
</g>
<!-- VASP&#45;&gt;AccountLimits -->
<g id="edge95" class="edge">
<title>VASP&#45;&gt;AccountLimits</title>
<path fill="none" stroke="black" d="M1086.9,-360.05C1088.23,-352.35 1089.82,-343.03 1091.31,-334.36"/>
<polygon fill="black" stroke="black" points="1094.8,-334.72 1093.04,-324.28 1087.9,-333.54 1094.8,-334.72"/>
</g>
<!-- TransactionFee&#45;&gt;Errors -->
<g id="edge96" class="edge">
<title>TransactionFee&#45;&gt;Errors</title>
<path fill="none" stroke="black" d="M949.49,-587.1C903.48,-580.63 839.8,-567.25 790,-540 749.46,-517.82 739.69,-507.06 715,-468 636.42,-343.71 575.09,-271.7 648,-144 679.22,-89.32 709.98,-91.02 770,-72 885.26,-35.48 1257.88,-23.14 1384.46,-19.94"/>
<polygon fill="black" stroke="black" points="1384.63,-23.44 1394.54,-19.69 1384.46,-16.44 1384.63,-23.44"/>
</g>
<!-- TransactionFee&#45;&gt;CoreAddresses -->
<g id="edge97" class="edge">
<title>TransactionFee&#45;&gt;CoreAddresses</title>
<path fill="none" stroke="black" d="M957.17,-583.35C923.83,-575.49 880.99,-562 848,-540 767.17,-486.11 681.92,-447.56 724,-360 792.7,-217.07 858.22,-196.11 1008,-144 1078.05,-119.63 1572.32,-100.1 1761.02,-93.45"/>
<polygon fill="black" stroke="black" points="1761.25,-96.94 1771.12,-93.1 1761.01,-89.95 1761.25,-96.94"/>
</g>
<!-- TransactionFee&#45;&gt;DiemTimestamp -->
<g id="edge98" class="edge">
<title>TransactionFee&#45;&gt;DiemTimestamp</title>
<path fill="none" stroke="black" d="M951.44,-586.02C922.43,-579.27 889.88,-566.02 872,-540 807.48,-446.1 848.69,-377.65 919,-288 951.26,-246.87 964.66,-238.17 1012,-216 1064.13,-191.58 1127.96,-178.18 1176.69,-170.97"/>
<polygon fill="black" stroke="black" points="1177.44,-174.39 1186.85,-169.52 1176.46,-167.46 1177.44,-174.39"/>
</g>
<!-- TransactionFee&#45;&gt;Roles -->
<g id="edge99" class="edge">
<title>TransactionFee&#45;&gt;Roles</title>
<path fill="none" stroke="black" d="M1030.73,-576.69C1104.87,-518.35 1356.79,-320.14 1438.89,-255.54"/>
<polygon fill="black" stroke="black" points="1441.48,-257.96 1447.18,-249.02 1437.15,-252.46 1441.48,-257.96"/>
</g>
<!-- TransactionFee&#45;&gt;Diem -->
<g id="edge100" class="edge">
<title>TransactionFee&#45;&gt;Diem</title>
<path fill="none" stroke="black" d="M1066.41,-584.93C1124.46,-576.07 1217.29,-560.36 1296,-540 1380.64,-518.11 1477.39,-483.15 1527.63,-464.22"/>
<polygon fill="black" stroke="black" points="1528.93,-467.47 1537.05,-460.66 1526.45,-460.92 1528.93,-467.47"/>
</g>
<!-- TransactionFee&#45;&gt;XUS -->
<g id="edge101" class="edge">
<title>TransactionFee&#45;&gt;XUS</title>
<path fill="none" stroke="black" d="M1053.77,-580.65C1101.89,-567.06 1178.25,-545.51 1222.71,-532.96"/>
<polygon fill="black" stroke="black" points="1223.81,-536.29 1232.48,-530.2 1221.91,-529.55 1223.81,-536.29"/>
</g>
<!-- TransactionFee&#45;&gt;XDX -->
<g id="edge102" class="edge">
<title>TransactionFee&#45;&gt;XDX</title>
<path fill="none" stroke="black" d="M987.04,-576.76C972.52,-566.5 953.68,-553.18 938.39,-542.37"/>
<polygon fill="black" stroke="black" points="940.04,-539.25 929.85,-536.33 936,-544.96 940.04,-539.25"/>
</g>
<!-- DualAttestation&#45;&gt;Signer -->
<g id="edge103" class="edge">
<title>DualAttestation&#45;&gt;Signer</title>
<path fill="none" stroke="black" d="M1770.55,-578.8C1789.59,-569.94 1812.14,-556.98 1828,-540 1961.12,-397.49 1867.73,-269.5 2017,-144 2137.17,-42.97 2333.33,-23.32 2420.22,-19.7"/>
<polygon fill="black" stroke="black" points="2420.39,-23.19 2430.26,-19.33 2420.14,-16.2 2420.39,-23.19"/>
</g>
<!-- DualAttestation&#45;&gt;Errors -->
<g id="edge104" class="edge">
<title>DualAttestation&#45;&gt;Errors</title>
<path fill="none" stroke="black" d="M1733.94,-575.7C1733.52,-557.58 1731.88,-528.43 1726,-504 1717.92,-470.46 1711.34,-463.37 1697,-432 1624.03,-272.39 1494.94,-103.75 1446.28,-42.75"/>
<polygon fill="black" stroke="black" points="1448.95,-40.48 1439.96,-34.87 1443.49,-44.86 1448.95,-40.48"/>
</g>
<!-- DualAttestation&#45;&gt;Signature -->
<g id="edge107" class="edge">
<title>DualAttestation&#45;&gt;Signature</title>
<path fill="none" stroke="black" d="M1667.65,-592.43C1561.43,-590.27 1347.25,-580.7 1171,-540 941.41,-486.99 682.17,-369.25 588.33,-324.62"/>
<polygon fill="black" stroke="black" points="589.78,-321.44 579.25,-320.28 586.77,-327.75 589.78,-321.44"/>
</g>
<!-- DualAttestation&#45;&gt;CoreAddresses -->
<g id="edge105" class="edge">
<title>DualAttestation&#45;&gt;CoreAddresses</title>
<path fill="none" stroke="black" d="M1762.6,-577.56C1777,-568.42 1793.56,-555.58 1804,-540 1840.85,-485.01 1833.48,-461.64 1842,-396 1855.2,-294.27 1843.85,-171.92 1837.54,-118.35"/>
<polygon fill="black" stroke="black" points="1841,-117.8 1836.32,-108.29 1834.05,-118.64 1841,-117.8"/>
</g>
<!-- DualAttestation&#45;&gt;DiemTimestamp -->
<g id="edge106" class="edge">
<title>DualAttestation&#45;&gt;DiemTimestamp</title>
<path fill="none" stroke="black" d="M1729.29,-575.85C1711.62,-515.05 1643.1,-308.44 1505,-216 1454.29,-182.05 1386.06,-169.22 1333.24,-164.64"/>
<polygon fill="black" stroke="black" points="1333.47,-161.15 1323.23,-163.86 1332.92,-168.13 1333.47,-161.15"/>
</g>
<!-- DualAttestation&#45;&gt;Roles -->
<g id="edge108" class="edge">
<title>DualAttestation&#45;&gt;Roles</title>
<path fill="none" stroke="black" d="M1723.23,-576.18C1692.79,-529.05 1602.73,-392.37 1516,-288 1507.2,-277.41 1496.77,-266.34 1487.64,-257.07"/>
<polygon fill="black" stroke="black" points="1489.88,-254.37 1480.34,-249.76 1484.93,-259.31 1489.88,-254.37"/>
</g>
<!-- DualAttestation&#45;&gt;Vector -->
<g id="edge109" class="edge">
<title>DualAttestation&#45;&gt;Vector</title>
<path fill="none" stroke="black" d="M1797.65,-588.95C1844.55,-583.44 1908.23,-570.47 1956,-540 1981.81,-523.54 2116.94,-352.91 2127,-324 2132.26,-308.89 2130.9,-303.52 2127,-288 2117.54,-250.31 2094.27,-211.58 2077.82,-187.42"/>
<polygon fill="black" stroke="black" points="2080.48,-185.11 2071.9,-178.9 2074.74,-189.11 2080.48,-185.11"/>
</g>
<!-- DualAttestation&#45;&gt;BCS -->
<g id="edge110" class="edge">
<title>DualAttestation&#45;&gt;BCS</title>
<path fill="none" stroke="black" d="M1791.53,-584.91C1986.39,-556.99 2612.72,-462.69 2673,-396 2724.97,-338.51 2715.74,-237.9 2707.55,-189.93"/>
<polygon fill="black" stroke="black" points="2710.98,-189.2 2705.74,-179.99 2704.09,-190.45 2710.98,-189.2"/>
</g>
<!-- DualAttestation&#45;&gt;Event -->
<g id="edge111" class="edge">
<title>DualAttestation&#45;&gt;Event</title>
<path fill="none" stroke="black" d="M1798.26,-589.34C1852.85,-584.08 1931.99,-571.26 1994,-540 2111.91,-480.56 2162.24,-451.11 2198,-324 2202.33,-308.6 2203.17,-303.14 2198,-288 2194.14,-276.71 2186.79,-265.95 2179.37,-257.12"/>
<polygon fill="black" stroke="black" points="2181.9,-254.71 2172.63,-249.59 2176.69,-259.37 2181.9,-254.71"/>
</g>
<!-- DualAttestation&#45;&gt;Diem -->
<g id="edge112" class="edge">
<title>DualAttestation&#45;&gt;Diem</title>
<path fill="none" stroke="black" d="M1694.23,-579.59C1671.94,-570.74 1644.57,-557.53 1624,-540 1603.18,-522.26 1586.03,-496.01 1575.09,-476.61"/>
<polygon fill="black" stroke="black" points="1578.09,-474.8 1570.22,-467.7 1571.94,-478.15 1578.09,-474.8"/>
</g>
<!-- DualAttestation&#45;&gt;XDX -->
<g id="edge113" class="edge">
<title>DualAttestation&#45;&gt;XDX</title>
<path fill="none" stroke="black" d="M1668.53,-591.07C1506.54,-585.9 1090.32,-570.02 955,-540 951.35,-539.19 947.6,-538.13 943.9,-536.93"/>
<polygon fill="black" stroke="black" points="944.94,-533.58 934.34,-533.52 942.58,-540.17 944.94,-533.58"/>
</g>
<!-- DualAttestation&#45;&gt;VASP -->
<g id="edge114" class="edge">
<title>DualAttestation&#45;&gt;VASP</title>
<path fill="none" stroke="black" d="M1667.96,-592.26C1547.2,-589.93 1296.15,-580.23 1220,-540 1161.64,-509.17 1118,-441.85 1097.31,-404.77"/>
<polygon fill="black" stroke="black" points="1100.18,-402.72 1092.32,-395.61 1094.03,-406.06 1100.18,-402.72"/>
</g>
<!-- DiemTransactionPublishingOption&#45;&gt;Signer -->
<g id="edge115" class="edge">
<title>DiemTransactionPublishingOption&#45;&gt;Signer</title>
<path fill="none" stroke="black" d="M2637.05,-367.16C2729.36,-353.96 2862.08,-323.25 2955,-252 3019.48,-202.56 3046.27,-127.58 2987,-72 2952.31,-39.46 2627.33,-24.77 2507.82,-20.44"/>
<polygon fill="black" stroke="black" points="2507.7,-16.93 2497.58,-20.07 2507.45,-23.93 2507.7,-16.93"/>
</g>
<!-- DiemTransactionPublishingOption&#45;&gt;Errors -->
<g id="edge116" class="edge">
<title>DiemTransactionPublishingOption&#45;&gt;Errors</title>
<path fill="none" stroke="black" d="M2557.18,-360.34C2569.33,-351.26 2582.38,-338.84 2589,-324 2595.52,-309.39 2593.64,-303.31 2589,-288 2577.86,-251.19 2564.26,-246.63 2541,-216 2515.46,-182.37 2508.34,-174.37 2479,-144 2478.94,-143.93 2401.08,-72.04 2401,-72 2314.49,-35.43 1646.49,-22.44 1469.77,-19.63"/>
<polygon fill="black" stroke="black" points="1469.62,-16.12 1459.57,-19.47 1469.51,-23.12 1469.62,-16.12"/>
</g>
<!-- DiemTransactionPublishingOption&#45;&gt;CoreAddresses -->
<g id="edge117" class="edge">
<title>DiemTransactionPublishingOption&#45;&gt;CoreAddresses</title>
<path fill="none" stroke="black" d="M2548.6,-359.76C2557.53,-350.2 2567.29,-337.53 2572,-324 2577.26,-308.89 2578.07,-302.8 2572,-288 2554.95,-246.42 2540.02,-238.3 2501,-216 2399.07,-157.76 2051.6,-114.44 1902.67,-98.11"/>
<polygon fill="black" stroke="black" points="1903.05,-94.63 1892.73,-97.03 1902.29,-101.59 1903.05,-94.63"/>
</g>
<!-- DiemTransactionPublishingOption&#45;&gt;DiemTimestamp -->
<g id="edge118" class="edge">
<title>DiemTransactionPublishingOption&#45;&gt;DiemTimestamp</title>
<path fill="none" stroke="black" d="M2533.81,-359.79C2537.12,-339.8 2538.94,-307.15 2521,-288 2454.76,-217.3 2396.08,-287.66 2306,-252 2279.18,-241.38 2279.38,-225.09 2252,-216 2165.97,-187.44 1556.37,-170.24 1333.42,-164.84"/>
<polygon fill="black" stroke="black" points="1333.18,-161.34 1323.1,-164.6 1333.01,-168.33 1333.18,-161.34"/>
</g>
<!-- DiemTransactionPublishingOption&#45;&gt;Roles -->
<g id="edge119" class="edge">
<title>DiemTransactionPublishingOption&#45;&gt;Roles</title>
<path fill="none" stroke="black" d="M2414.31,-368.88C2300.27,-360.23 2121.2,-344.89 1967,-324 1792.92,-300.41 1587.03,-259.91 1503.29,-242.89"/>
<polygon fill="black" stroke="black" points="1503.95,-239.45 1493.46,-240.89 1502.55,-246.31 1503.95,-239.45"/>
</g>
<!-- DiemTransactionPublishingOption&#45;&gt;Vector -->
<g id="edge120" class="edge">
<title>DiemTransactionPublishingOption&#45;&gt;Vector</title>
<path fill="none" stroke="black" d="M2542.67,-359.99C2555.52,-340.51 2571.25,-308.63 2554,-288 2496.07,-218.71 2436.8,-288.07 2354,-252 2329.55,-241.35 2330.48,-226.58 2306,-216 2220.28,-178.96 2188.44,-206.85 2099,-180 2097.35,-179.5 2095.67,-178.96 2093.99,-178.37"/>
<polygon fill="black" stroke="black" points="2095.01,-175.02 2084.42,-174.7 2092.51,-181.55 2095.01,-175.02"/>
</g>
<!-- DiemTransactionPublishingOption&#45;&gt;DiemConfig -->
<g id="edge121" class="edge">
<title>DiemTransactionPublishingOption&#45;&gt;DiemConfig</title>
<path fill="none" stroke="black" d="M2512.33,-360.05C2503.05,-351.16 2491.53,-340.11 2481.41,-330.41"/>
<polygon fill="black" stroke="black" points="2483.65,-327.7 2474.01,-323.31 2478.8,-332.75 2483.65,-327.7"/>
</g>
<!-- DesignatedDealer&#45;&gt;Signer -->
<g id="edge122" class="edge">
<title>DesignatedDealer&#45;&gt;Signer</title>
<path fill="none" stroke="black" d="M2046.34,-586.27C2187.84,-569.9 2527.17,-519.88 2782,-396 2913.76,-331.95 2992.04,-321.23 3031,-180 3043.92,-133.16 3050.61,-103.95 3014,-72 2976.12,-38.94 2631.45,-24.49 2507.85,-20.33"/>
<polygon fill="black" stroke="black" points="2507.73,-16.83 2497.62,-20 2507.5,-23.82 2507.73,-16.83"/>
</g>
<!-- DesignatedDealer&#45;&gt;Errors -->
<g id="edge123" class="edge">
<title>DesignatedDealer&#45;&gt;Errors</title>
<path fill="none" stroke="black" d="M1978.2,-575.85C1975.61,-557.08 1969.57,-526.65 1956,-504 1820.47,-277.67 1547.27,-93.96 1456.83,-37.19"/>
<polygon fill="black" stroke="black" points="1458.51,-34.11 1448.17,-31.79 1454.81,-40.05 1458.51,-34.11"/>
</g>
<!-- DesignatedDealer&#45;&gt;Roles -->
<g id="edge124" class="edge">
<title>DesignatedDealer&#45;&gt;Roles</title>
<path fill="none" stroke="black" d="M1957.04,-576.58C1892.52,-530.51 1703.9,-396.32 1545,-288 1527.97,-276.39 1508.71,-263.62 1493.36,-253.53"/>
<polygon fill="black" stroke="black" points="1495.1,-250.49 1484.82,-247.92 1491.26,-256.34 1495.1,-250.49"/>
</g>
<!-- DesignatedDealer&#45;&gt;Event -->
<g id="edge125" class="edge">
<title>DesignatedDealer&#45;&gt;Event</title>
<path fill="none" stroke="black" d="M2011.69,-577.72C2029.75,-568.2 2052.25,-554.95 2070,-540 2162.6,-462 2203.21,-440.55 2236,-324 2240.33,-308.6 2243.53,-302.12 2236,-288 2230.61,-277.89 2207.85,-263.17 2188.14,-251.81"/>
<polygon fill="black" stroke="black" points="2189.8,-248.72 2179.37,-246.85 2186.36,-254.82 2189.8,-248.72"/>
</g>
<!-- DesignatedDealer&#45;&gt;Diem -->
<g id="edge126" class="edge">
<title>DesignatedDealer&#45;&gt;Diem</title>
<path fill="none" stroke="black" d="M1918.9,-584.01C1869.24,-575.67 1797.87,-561.31 1738,-540 1684.04,-520.8 1625.45,-488.69 1591.32,-468.74"/>
<polygon fill="black" stroke="black" points="1592.76,-465.53 1582.37,-463.46 1589.2,-471.56 1592.76,-465.53"/>
</g>
<!-- DesignatedDealer&#45;&gt;XUS -->
<g id="edge127" class="edge">
<title>DesignatedDealer&#45;&gt;XUS</title>
<path fill="none" stroke="black" d="M1913.41,-586.33C1881.78,-583.17 1843.44,-579.37 1809,-576 1616.45,-557.17 1385.99,-535.18 1296.33,-526.64"/>
<polygon fill="black" stroke="black" points="1296.39,-523.13 1286.1,-525.67 1295.72,-530.1 1296.39,-523.13"/>
</g>
<!-- ChainId&#45;&gt;Signer -->
<g id="edge128" class="edge">
<title>ChainId&#45;&gt;Signer</title>
<path fill="none" stroke="black" d="M2443.97,-216.37C2458.53,-187.48 2485,-125.94 2478,-72 2476.87,-63.28 2474.73,-53.95 2472.46,-45.58"/>
<polygon fill="black" stroke="black" points="2475.82,-44.6 2469.68,-35.96 2469.09,-46.54 2475.82,-44.6"/>
</g>
<!-- ChainId&#45;&gt;Errors -->
<g id="edge129" class="edge">
<title>ChainId&#45;&gt;Errors</title>
<path fill="none" stroke="black" d="M2429.32,-216.01C2416.85,-181.71 2383.5,-104.72 2326,-72 2251.08,-29.38 1638.15,-20.86 1469.7,-19.32"/>
<polygon fill="black" stroke="black" points="1469.51,-15.81 1459.48,-19.23 1469.45,-22.81 1469.51,-15.81"/>
</g>
<!-- ChainId&#45;&gt;CoreAddresses -->
<g id="edge130" class="edge">
<title>ChainId&#45;&gt;CoreAddresses</title>
<path fill="none" stroke="black" d="M2404.96,-222.45C2397.52,-220.09 2389.53,-217.77 2382,-216 2278.71,-191.72 2242.7,-223.67 2146,-180 2123.28,-169.74 2125.49,-154.75 2103,-144 2040.43,-114.1 1961.96,-101.07 1905.95,-95.39"/>
<polygon fill="black" stroke="black" points="1906.05,-91.88 1895.76,-94.41 1905.38,-98.85 1906.05,-91.88"/>
</g>
<!-- ChainId&#45;&gt;DiemTimestamp -->
<g id="edge131" class="edge">
<title>ChainId&#45;&gt;DiemTimestamp</title>
<path fill="none" stroke="black" d="M2398.67,-227.41C2372.87,-223.64 2337.38,-218.85 2306,-216 1943.77,-183.08 1509.51,-169.34 1332.76,-164.84"/>
<polygon fill="black" stroke="black" points="1332.85,-161.34 1322.76,-164.58 1332.67,-168.34 1332.85,-161.34"/>
</g>
<!-- AccountFreezing&#45;&gt;Signer -->
<g id="edge132" class="edge">
<title>AccountFreezing&#45;&gt;Signer</title>
<path fill="none" stroke="black" d="M2116.33,-301.35C2232.96,-294.52 2458.22,-278.09 2483,-252 2538.17,-193.9 2512.85,-149.63 2493,-72 2490.52,-62.3 2485.86,-52.46 2480.98,-43.94"/>
<polygon fill="black" stroke="black" points="2483.9,-42 2475.71,-35.28 2477.92,-45.64 2483.9,-42"/>
</g>
<!-- AccountFreezing&#45;&gt;Errors -->
<g id="edge133" class="edge">
<title>AccountFreezing&#45;&gt;Errors</title>
<path fill="none" stroke="black" d="M2042.43,-287.81C2029.63,-243.36 1988.85,-124.45 1907,-72 1835.08,-25.92 1573.58,-19.62 1469.83,-18.96"/>
<polygon fill="black" stroke="black" points="1469.73,-15.46 1459.72,-18.91 1469.7,-22.46 1469.73,-15.46"/>
</g>
<!-- AccountFreezing&#45;&gt;CoreAddresses -->
<g id="edge134" class="edge">
<title>AccountFreezing&#45;&gt;CoreAddresses</title>
<path fill="none" stroke="black" d="M2026.31,-288.66C2013.75,-278.48 1997.57,-264.9 1984,-252 1935.5,-205.9 1883.15,-147.51 1854.92,-115.23"/>
<polygon fill="black" stroke="black" points="1857.49,-112.85 1848.28,-107.61 1852.21,-117.45 1857.49,-112.85"/>
</g>
<!-- AccountFreezing&#45;&gt;DiemTimestamp -->
<g id="edge135" class="edge">
<title>AccountFreezing&#45;&gt;DiemTimestamp</title>
<path fill="none" stroke="black" d="M1993.06,-294.13C1982.75,-292.07 1972.04,-289.96 1962,-288 1793.28,-255.14 1751.32,-245.63 1582,-216 1492.16,-200.28 1388.24,-183.88 1321.39,-173.57"/>
<polygon fill="black" stroke="black" points="1321.82,-170.09 1311.4,-172.03 1320.75,-177.01 1321.82,-170.09"/>
</g>
<!-- AccountFreezing&#45;&gt;Roles -->
<g id="edge136" class="edge">
<title>AccountFreezing&#45;&gt;Roles</title>
<path fill="none" stroke="black" d="M1994.54,-293.73C1983.8,-291.64 1972.56,-289.62 1962,-288 1793.17,-262.17 1590.15,-244.73 1505.32,-238.05"/>
<polygon fill="black" stroke="black" points="1505.34,-234.54 1495.1,-237.25 1504.79,-241.52 1505.34,-234.54"/>
</g>
<!-- AccountFreezing&#45;&gt;Event -->
<g id="edge137" class="edge">
<title>AccountFreezing&#45;&gt;Event</title>
<path fill="none" stroke="black" d="M2071.96,-289.12C2088.69,-278.47 2110.78,-264.41 2128.25,-253.3"/>
<polygon fill="black" stroke="black" points="2130.35,-256.11 2136.91,-247.78 2126.59,-250.2 2130.35,-256.11"/>
</g>
<!-- FixedPoint32&#45;&gt;Errors -->
<g id="edge138" class="edge">
<title>FixedPoint32&#45;&gt;Errors</title>
<path fill="none" stroke="black" d="M960.91,-360.2C953.09,-350.39 944.31,-337.34 940,-324 904.79,-214.91 895.28,-128.55 995,-72 1060.97,-34.59 1289.07,-23.26 1384.5,-20.11"/>
<polygon fill="black" stroke="black" points="1384.78,-23.61 1394.66,-19.79 1384.56,-16.61 1384.78,-23.61"/>
</g>
<!-- RegisteredCurrencies&#45;&gt;Errors -->
<g id="edge139" class="edge">
<title>RegisteredCurrencies&#45;&gt;Errors</title>
<path fill="none" stroke="black" d="M1443.79,-359.75C1438.19,-335.76 1428.55,-290.89 1425,-252 1418.22,-177.72 1422.25,-89.58 1425.03,-46.07"/>
<polygon fill="black" stroke="black" points="1428.52,-46.22 1425.7,-36 1421.54,-45.75 1428.52,-46.22"/>
</g>
<!-- RegisteredCurrencies&#45;&gt;DiemTimestamp -->
<g id="edge140" class="edge">
<title>RegisteredCurrencies&#45;&gt;DiemTimestamp</title>
<path fill="none" stroke="black" d="M1432.62,-360.21C1398.13,-322.55 1314.48,-231.22 1274.29,-187.33"/>
<polygon fill="black" stroke="black" points="1276.64,-184.72 1267.31,-179.71 1271.48,-189.45 1276.64,-184.72"/>
</g>
<!-- RegisteredCurrencies&#45;&gt;Roles -->
<g id="edge141" class="edge">
<title>RegisteredCurrencies&#45;&gt;Roles</title>
<path fill="none" stroke="black" d="M1450.05,-359.87C1452.95,-335.67 1458.27,-291.21 1461.72,-262.39"/>
<polygon fill="black" stroke="black" points="1465.23,-262.53 1462.94,-252.19 1458.28,-261.7 1465.23,-262.53"/>
</g>
<!-- RegisteredCurrencies&#45;&gt;Vector -->
<g id="edge142" class="edge">
<title>RegisteredCurrencies&#45;&gt;Vector</title>
<path fill="none" stroke="black" d="M1483.41,-361.46C1553.81,-330.93 1716.78,-262.08 1858,-216 1913.13,-198.01 1978.22,-181.81 2019.31,-172.19"/>
<polygon fill="black" stroke="black" points="2020.27,-175.56 2029.22,-169.89 2018.68,-168.74 2020.27,-175.56"/>
</g>
<!-- RegisteredCurrencies&#45;&gt;DiemConfig -->
<g id="edge143" class="edge">
<title>RegisteredCurrencies&#45;&gt;DiemConfig</title>
<path fill="none" stroke="black" d="M1528.87,-371.39C1724.19,-357.84 2218.5,-323.55 2394,-311.37"/>
<polygon fill="black" stroke="black" points="2394.37,-314.85 2404.1,-310.67 2393.88,-307.87 2394.37,-314.85"/>
</g>
</g>
</svg>
