<?xml version="1.0" encoding="UTF-8" standalone="no"?>
<!DOCTYPE svg PUBLIC "-//W3C//DTD SVG 1.1//EN"
 "http://www.w3.org/Graphics/SVG/1.1/DTD/svg11.dtd">
<!-- Generated by graphviz version 2.46.1 (20210213.1702)
 -->
<!-- Title: G Pages: 1 -->
<svg width="246pt" height="207pt"
 viewBox="0.00 0.00 245.60 207.00" xmlns="http://www.w3.org/2000/svg" xmlns:xlink="http://www.w3.org/1999/xlink">
<g id="graph0" class="graph" transform="scale(1 1) rotate(0) translate(4 203)">
<title>G</title>
<polygon fill="white" stroke="transparent" points="-4,4 -4,-203 241.6,-203 241.6,4 -4,4"/>
<g id="clust1" class="cluster">
<title>cluster_Errors</title>
<polygon fill="none" stroke="black" points="8,-8 8,-155 144,-155 144,-8 8,-8"/>
<text text-anchor="middle" x="76" y="-139.8" font-family="Times,serif" font-size="14.00">Errors</text>
</g>
<!-- key -->
<g id="node1" class="node">
<title>key</title>
<ellipse fill="none" stroke="black" cx="136" cy="-181" rx="27" ry="18"/>
<text text-anchor="middle" x="136" y="-177.3" font-family="Times,serif" font-size="14.00">key</text>
</g>
<!-- Errors::not_published -->
<g id="node2" class="node">
<title>Errors::not_published</title>
<ellipse fill="none" stroke="black" cx="76" cy="-106" rx="60.39" ry="18"/>
<text text-anchor="middle" x="76" y="-102.3" font-family="Times,serif" font-size="14.00">not_published</text>
</g>
<!-- key&#45;&gt;Errors::not_published -->
<g id="edge1" class="edge">
<title>key&#45;&gt;Errors::not_published</title>
<path fill="none" stroke="black" d="M123.57,-164.87C115.69,-155.29 105.32,-142.67 96.27,-131.66"/>
<polygon fill="black" stroke="black" points="98.72,-129.14 89.67,-123.63 93.32,-133.58 98.72,-129.14"/>
</g>
<!-- exists_at -->
<g id="node3" class="node">
<title>exists_at</title>
<ellipse fill="none" stroke="black" cx="196" cy="-106" rx="41.69" ry="18"/>
<text text-anchor="middle" x="196" y="-102.3" font-family="Times,serif" font-size="14.00">exists_at</text>
</g>
<!-- key&#45;&gt;exists_at -->
<g id="edge2" class="edge">
<title>key&#45;&gt;exists_at</title>
<path fill="none" stroke="black" d="M148.43,-164.87C156.5,-155.06 167.18,-142.07 176.38,-130.88"/>
<polygon fill="black" stroke="black" points="179.11,-133.07 182.75,-123.12 173.7,-128.62 179.11,-133.07"/>
</g>
<!-- Errors::make -->
<g id="node4" class="node">
<title>Errors::make</title>
<ellipse fill="none" stroke="black" cx="76" cy="-34" rx="30.59" ry="18"/>
<text text-anchor="middle" x="76" y="-30.3" font-family="Times,serif" font-size="14.00">make</text>
</g>
<!-- Errors::not_published&#45;&gt;Errors::make -->
<g id="edge3" class="edge">
<title>Errors::not_published&#45;&gt;Errors::make</title>
<path fill="none" stroke="black" d="M76,-87.7C76,-79.98 76,-70.71 76,-62.11"/>
<polygon fill="black" stroke="black" points="79.5,-62.1 76,-52.1 72.5,-62.1 79.5,-62.1"/>
</g>
</g>
</svg>
