<?xml version="1.0" encoding="UTF-8" standalone="no"?>
<!DOCTYPE svg PUBLIC "-//W3C//DTD SVG 1.1//EN"
 "http://www.w3.org/Graphics/SVG/1.1/DTD/svg11.dtd">
<!-- Generated by graphviz version 2.46.1 (20210213.1702)
 -->
<!-- Title: G Pages: 1 -->
<svg width="1846pt" height="448pt"
 viewBox="0.00 0.00 1846.00 448.00" xmlns="http://www.w3.org/2000/svg" xmlns:xlink="http://www.w3.org/1999/xlink">
<g id="graph0" class="graph" transform="scale(1 1) rotate(0) translate(4 444)">
<title>G</title>
<polygon fill="white" stroke="transparent" points="-4,4 -4,-444 1842,-444 1842,4 -4,4"/>
<g id="clust1" class="cluster">
<title>cluster_Signer</title>
<polygon fill="none" stroke="black" points="8,-163 8,-321 158,-321 158,-163 8,-163"/>
<text text-anchor="middle" x="83" y="-305.8" font-family="Times,serif" font-size="14.00">Signer</text>
</g>
<g id="clust2" class="cluster">
<title>cluster_Errors</title>
<polygon fill="none" stroke="black" points="696,-80 696,-238 1295,-238 1295,-80 696,-80"/>
<text text-anchor="middle" x="995.5" y="-222.8" font-family="Times,serif" font-size="14.00">Errors</text>
</g>
<g id="clust3" class="cluster">
<title>cluster_DiemAccount</title>
<polygon fill="none" stroke="black" points="166,-163 166,-396 688,-396 688,-163 166,-163"/>
<text text-anchor="middle" x="427" y="-380.8" font-family="Times,serif" font-size="14.00">DiemAccount</text>
</g>
<g id="clust4" class="cluster">
<title>cluster_Option</title>
<polygon fill="none" stroke="black" points="1303,-163 1303,-321 1482,-321 1482,-163 1303,-163"/>
<text text-anchor="middle" x="1392.5" y="-305.8" font-family="Times,serif" font-size="14.00">Option</text>
</g>
<g id="clust5" class="cluster">
<title>cluster_Signature</title>
<polygon fill="none" stroke="black" points="1490,-246 1490,-321 1712,-321 1712,-246 1490,-246"/>
<text text-anchor="middle" x="1601" y="-305.8" font-family="Times,serif" font-size="14.00">Signature</text>
</g>
<g id="clust6" class="cluster">
<title>cluster_Authenticator</title>
<polygon fill="none" stroke="black" points="1590,-163 1590,-238 1830,-238 1830,-163 1590,-163"/>
<text text-anchor="middle" x="1710" y="-222.8" font-family="Times,serif" font-size="14.00">Authenticator</text>
</g>
<g id="clust7" class="cluster">
<title>cluster_Vector</title>
<polygon fill="none" stroke="black" points="1303,-8 1303,-155 1628,-155 1628,-8 1303,-8"/>
<text text-anchor="middle" x="1465.5" y="-139.8" font-family="Times,serif" font-size="14.00">Vector</text>
</g>
<g id="clust8" class="cluster">
<title>cluster_Hash</title>
<polygon fill="none" stroke="black" points="1658,-80 1658,-155 1762,-155 1762,-80 1658,-80"/>
<text text-anchor="middle" x="1710" y="-139.8" font-family="Times,serif" font-size="14.00">Hash</text>
</g>
<!-- publish -->
<g id="node1" class="node">
<title>publish</title>
<ellipse fill="none" stroke="black" cx="1047" cy="-422" rx="36.29" ry="18"/>
<text text-anchor="middle" x="1047" y="-418.3" font-family="Times,serif" font-size="14.00">publish</text>
</g>
<!-- Signer::address_of -->
<g id="node2" class="node">
<title>Signer::address_of</title>
<ellipse fill="none" stroke="black" cx="101" cy="-272" rx="48.99" ry="18"/>
<text text-anchor="middle" x="101" y="-268.3" font-family="Times,serif" font-size="14.00">address_of</text>
</g>
<!-- publish&#45;&gt;Signer::address_of -->
<g id="edge1" class="edge">
<title>publish&#45;&gt;Signer::address_of</title>
<path fill="none" stroke="black" d="M1010.4,-421.01C847.91,-420.94 198.23,-419.19 162,-396 128.74,-374.71 112.98,-329.47 106,-300.19"/>
<polygon fill="black" stroke="black" points="109.37,-299.22 103.81,-290.2 102.54,-300.72 109.37,-299.22"/>
</g>
<!-- Errors::already_published -->
<g id="node3" class="node">
<title>Errors::already_published</title>
<ellipse fill="none" stroke="black" cx="1047" cy="-189" rx="75.29" ry="18"/>
<text text-anchor="middle" x="1047" y="-185.3" font-family="Times,serif" font-size="14.00">already_published</text>
</g>
<!-- publish&#45;&gt;Errors::already_published -->
<g id="edge2" class="edge">
<title>publish&#45;&gt;Errors::already_published</title>
<path fill="none" stroke="black" d="M1047,-403.64C1047,-363.82 1047,-265.69 1047,-217.54"/>
<polygon fill="black" stroke="black" points="1050.5,-217.25 1047,-207.25 1043.5,-217.25 1050.5,-217.25"/>
</g>
<!-- DiemAccount::extract_key_rotation_capability -->
<g id="node4" class="node">
<title>DiemAccount::extract_key_rotation_capability</title>
<ellipse fill="none" stroke="black" cx="558" cy="-347" rx="122.38" ry="18"/>
<text text-anchor="middle" x="558" y="-343.3" font-family="Times,serif" font-size="14.00">extract_key_rotation_capability</text>
</g>
<!-- publish&#45;&gt;DiemAccount::extract_key_rotation_capability -->
<g id="edge3" class="edge">
<title>publish&#45;&gt;DiemAccount::extract_key_rotation_capability</title>
<path fill="none" stroke="black" d="M1012.61,-415.87C938.3,-404.77 760.58,-378.24 650.65,-361.83"/>
<polygon fill="black" stroke="black" points="650.97,-358.34 640.56,-360.32 649.93,-365.26 650.97,-358.34"/>
</g>
<!-- exists_at -->
<g id="node5" class="node">
<title>exists_at</title>
<ellipse fill="none" stroke="black" cx="1261" cy="-347" rx="41.69" ry="18"/>
<text text-anchor="middle" x="1261" y="-343.3" font-family="Times,serif" font-size="14.00">exists_at</text>
</g>
<!-- publish&#45;&gt;exists_at -->
<g id="edge4" class="edge">
<title>publish&#45;&gt;exists_at</title>
<path fill="none" stroke="black" d="M1083.48,-421.5C1117.78,-420.61 1169.73,-415.64 1210,-396 1221.67,-390.31 1232.47,-381.02 1241.1,-372.13"/>
<polygon fill="black" stroke="black" points="1243.91,-374.24 1248.1,-364.51 1238.75,-369.51 1243.91,-374.24"/>
</g>
<!-- rotate_key_ -->
<g id="node6" class="node">
<title>rotate_key_</title>
<ellipse fill="none" stroke="black" cx="1149" cy="-347" rx="51.99" ry="18"/>
<text text-anchor="middle" x="1149" y="-343.3" font-family="Times,serif" font-size="14.00">rotate_key_</text>
</g>
<!-- publish&#45;&gt;rotate_key_ -->
<g id="edge5" class="edge">
<title>publish&#45;&gt;rotate_key_</title>
<path fill="none" stroke="black" d="M1067.15,-406.58C1081.98,-395.96 1102.39,-381.36 1119.12,-369.39"/>
<polygon fill="black" stroke="black" points="1121.39,-372.07 1127.48,-363.4 1117.31,-366.37 1121.39,-372.07"/>
</g>
<!-- Signer::borrow_address -->
<g id="node7" class="node">
<title>Signer::borrow_address</title>
<ellipse fill="none" stroke="black" cx="83" cy="-189" rx="66.89" ry="18"/>
<text text-anchor="middle" x="83" y="-185.3" font-family="Times,serif" font-size="14.00">borrow_address</text>
</g>
<!-- Signer::address_of&#45;&gt;Signer::borrow_address -->
<g id="edge6" class="edge">
<title>Signer::address_of&#45;&gt;Signer::borrow_address</title>
<path fill="none" stroke="black" d="M97.18,-253.82C94.82,-243.19 91.73,-229.31 89.05,-217.2"/>
<polygon fill="black" stroke="black" points="92.4,-216.16 86.81,-207.15 85.56,-217.67 92.4,-216.16"/>
</g>
<!-- Errors::make -->
<g id="node8" class="node">
<title>Errors::make</title>
<ellipse fill="none" stroke="black" cx="972" cy="-106" rx="30.59" ry="18"/>
<text text-anchor="middle" x="972" y="-102.3" font-family="Times,serif" font-size="14.00">make</text>
</g>
<!-- Errors::already_published&#45;&gt;Errors::make -->
<g id="edge7" class="edge">
<title>Errors::already_published&#45;&gt;Errors::make</title>
<path fill="none" stroke="black" d="M1031.46,-171.22C1020.27,-159.13 1005.05,-142.69 992.81,-129.48"/>
<polygon fill="black" stroke="black" points="995.36,-127.08 986,-122.12 990.23,-131.84 995.36,-127.08"/>
</g>
<!-- DiemAccount::extract_key_rotation_capability&#45;&gt;Signer::address_of -->
<g id="edge8" class="edge">
<title>DiemAccount::extract_key_rotation_capability&#45;&gt;Signer::address_of</title>
<path fill="none" stroke="black" d="M435.86,-346.18C338.35,-344.87 210.34,-339.47 162,-321 147.96,-315.64 134.57,-305.83 123.93,-296.47"/>
<polygon fill="black" stroke="black" points="126.09,-293.7 116.37,-289.49 121.34,-298.84 126.09,-293.7"/>
</g>
<!-- Errors::invalid_state -->
<g id="node9" class="node">
<title>Errors::invalid_state</title>
<ellipse fill="none" stroke="black" cx="898" cy="-189" rx="55.79" ry="18"/>
<text text-anchor="middle" x="898" y="-185.3" font-family="Times,serif" font-size="14.00">invalid_state</text>
</g>
<!-- DiemAccount::extract_key_rotation_capability&#45;&gt;Errors::invalid_state -->
<g id="edge9" class="edge">
<title>DiemAccount::extract_key_rotation_capability&#45;&gt;Errors::invalid_state</title>
<path fill="none" stroke="black" d="M667.43,-338.98C689.06,-335.17 711.19,-329.48 731,-321 790.03,-295.74 846.06,-244.18 875.84,-213.82"/>
<polygon fill="black" stroke="black" points="878.4,-216.22 882.83,-206.59 873.36,-211.35 878.4,-216.22"/>
</g>
<!-- Errors::not_published -->
<g id="node10" class="node">
<title>Errors::not_published</title>
<ellipse fill="none" stroke="black" cx="764" cy="-189" rx="60.39" ry="18"/>
<text text-anchor="middle" x="764" y="-185.3" font-family="Times,serif" font-size="14.00">not_published</text>
</g>
<!-- DiemAccount::extract_key_rotation_capability&#45;&gt;Errors::not_published -->
<g id="edge10" class="edge">
<title>DiemAccount::extract_key_rotation_capability&#45;&gt;Errors::not_published</title>
<path fill="none" stroke="black" d="M646.92,-334.63C665.25,-331 681.32,-326.48 689,-321 724.69,-295.54 745.76,-247.42 756.08,-217.12"/>
<polygon fill="black" stroke="black" points="759.53,-217.81 759.29,-207.22 752.88,-215.65 759.53,-217.81"/>
</g>
<!-- Option::extract -->
<g id="node11" class="node">
<title>Option::extract</title>
<ellipse fill="none" stroke="black" cx="1345" cy="-272" rx="34.39" ry="18"/>
<text text-anchor="middle" x="1345" y="-268.3" font-family="Times,serif" font-size="14.00">extract</text>
</g>
<!-- DiemAccount::extract_key_rotation_capability&#45;&gt;Option::extract -->
<g id="edge11" class="edge">
<title>DiemAccount::extract_key_rotation_capability&#45;&gt;Option::extract</title>
<path fill="none" stroke="black" d="M661.75,-337.4C717.55,-332.71 787.55,-326.7 850,-321 1016.73,-305.78 1214.89,-286.08 1301.2,-277.41"/>
<polygon fill="black" stroke="black" points="1301.8,-280.87 1311.4,-276.39 1301.1,-273.91 1301.8,-280.87"/>
</g>
<!-- DiemAccount::exists_at -->
<g id="node12" class="node">
<title>DiemAccount::exists_at</title>
<ellipse fill="none" stroke="black" cx="578" cy="-189" rx="41.69" ry="18"/>
<text text-anchor="middle" x="578" y="-185.3" font-family="Times,serif" font-size="14.00">exists_at</text>
</g>
<!-- DiemAccount::extract_key_rotation_capability&#45;&gt;DiemAccount::exists_at -->
<g id="edge12" class="edge">
<title>DiemAccount::extract_key_rotation_capability&#45;&gt;DiemAccount::exists_at</title>
<path fill="none" stroke="black" d="M435.67,-345.95C333.58,-344.59 202.07,-339.25 185,-321 162.23,-296.65 163.16,-271.18 185,-246 228.58,-195.77 429.76,-189.45 526.18,-189.38"/>
<polygon fill="black" stroke="black" points="526.29,-192.88 536.29,-189.39 526.3,-185.88 526.29,-192.88"/>
</g>
<!-- DiemAccount::delegated_key_rotation_capability -->
<g id="node13" class="node">
<title>DiemAccount::delegated_key_rotation_capability</title>
<ellipse fill="none" stroke="black" cx="326" cy="-272" rx="131.88" ry="18"/>
<text text-anchor="middle" x="326" y="-268.3" font-family="Times,serif" font-size="14.00">delegated_key_rotation_capability</text>
</g>
<!-- DiemAccount::extract_key_rotation_capability&#45;&gt;DiemAccount::delegated_key_rotation_capability -->
<g id="edge13" class="edge">
<title>DiemAccount::extract_key_rotation_capability&#45;&gt;DiemAccount::delegated_key_rotation_capability</title>
<path fill="none" stroke="black" d="M501.05,-330.92C489.73,-327.76 477.96,-324.37 467,-321 438.29,-312.18 406.6,-301.48 380.55,-292.42"/>
<polygon fill="black" stroke="black" points="381.46,-289.03 370.86,-289.04 379.15,-295.64 381.46,-289.03"/>
</g>
<!-- Errors::invalid_argument -->
<g id="node14" class="node">
<title>Errors::invalid_argument</title>
<ellipse fill="none" stroke="black" cx="1214" cy="-189" rx="73.39" ry="18"/>
<text text-anchor="middle" x="1214" y="-185.3" font-family="Times,serif" font-size="14.00">invalid_argument</text>
</g>
<!-- rotate_key_&#45;&gt;Errors::invalid_argument -->
<g id="edge14" class="edge">
<title>rotate_key_&#45;&gt;Errors::invalid_argument</title>
<path fill="none" stroke="black" d="M1156.08,-329.01C1167.36,-301.93 1189.51,-248.77 1202.91,-216.61"/>
<polygon fill="black" stroke="black" points="1206.31,-217.55 1206.93,-206.97 1199.85,-214.86 1206.31,-217.55"/>
</g>
<!-- Signature::ed25519_validate_pubkey -->
<g id="node15" class="node">
<title>Signature::ed25519_validate_pubkey</title>
<ellipse fill="none" stroke="black" cx="1601" cy="-272" rx="103.18" ry="18"/>
<text text-anchor="middle" x="1601" y="-268.3" font-family="Times,serif" font-size="14.00">ed25519_validate_pubkey</text>
</g>
<!-- rotate_key_&#45;&gt;Signature::ed25519_validate_pubkey -->
<g id="edge15" class="edge">
<title>rotate_key_&#45;&gt;Signature::ed25519_validate_pubkey</title>
<path fill="none" stroke="black" d="M1185.78,-334.2C1193.7,-332.1 1202.07,-330.2 1210,-329 1270.67,-319.81 1426.02,-333.92 1486,-321 1512.16,-315.36 1539.89,-303.97 1561.56,-293.69"/>
<polygon fill="black" stroke="black" points="1563.29,-296.74 1570.76,-289.23 1560.24,-290.45 1563.29,-296.74"/>
</g>
<!-- DiemAccount::rotate_authentication_key -->
<g id="node16" class="node">
<title>DiemAccount::rotate_authentication_key</title>
<ellipse fill="none" stroke="black" cx="578" cy="-272" rx="102.08" ry="18"/>
<text text-anchor="middle" x="578" y="-268.3" font-family="Times,serif" font-size="14.00">rotate_authentication_key</text>
</g>
<!-- rotate_key_&#45;&gt;DiemAccount::rotate_authentication_key -->
<g id="edge16" class="edge">
<title>rotate_key_&#45;&gt;DiemAccount::rotate_authentication_key</title>
<path fill="none" stroke="black" d="M1100.81,-339.84C1005.36,-327.64 790.91,-300.22 668.38,-284.56"/>
<polygon fill="black" stroke="black" points="668.64,-281.06 658.27,-283.26 667.75,-288 668.64,-281.06"/>
</g>
<!-- Authenticator::ed25519_authentication_key -->
<g id="node17" class="node">
<title>Authenticator::ed25519_authentication_key</title>
<ellipse fill="none" stroke="black" cx="1710" cy="-189" rx="112.38" ry="18"/>
<text text-anchor="middle" x="1710" y="-185.3" font-family="Times,serif" font-size="14.00">ed25519_authentication_key</text>
</g>
<!-- rotate_key_&#45;&gt;Authenticator::ed25519_authentication_key -->
<g id="edge17" class="edge">
<title>rotate_key_&#45;&gt;Authenticator::ed25519_authentication_key</title>
<path fill="none" stroke="black" d="M1185.77,-334.12C1193.68,-332.03 1202.06,-330.15 1210,-329 1223.91,-326.99 1706.14,-331.02 1716,-321 1742.69,-293.89 1731.98,-246.35 1721.32,-216.61"/>
<polygon fill="black" stroke="black" points="1724.59,-215.36 1717.76,-207.26 1718.05,-217.85 1724.59,-215.36"/>
</g>
<!-- Errors::invalid_state&#45;&gt;Errors::make -->
<g id="edge18" class="edge">
<title>Errors::invalid_state&#45;&gt;Errors::make</title>
<path fill="none" stroke="black" d="M912.98,-171.61C923.99,-159.55 939.1,-143.01 951.27,-129.69"/>
<polygon fill="black" stroke="black" points="953.89,-132.01 958.05,-122.27 948.72,-127.29 953.89,-132.01"/>
</g>
<!-- Errors::not_published&#45;&gt;Errors::make -->
<g id="edge19" class="edge">
<title>Errors::not_published&#45;&gt;Errors::make</title>
<path fill="none" stroke="black" d="M799.28,-174.26C837.91,-159.22 899.41,-135.27 937.66,-120.37"/>
<polygon fill="black" stroke="black" points="939.27,-123.5 947.32,-116.61 936.73,-116.98 939.27,-123.5"/>
</g>
<!-- Option::extract&#45;&gt;Errors::invalid_argument -->
<g id="edge20" class="edge">
<title>Option::extract&#45;&gt;Errors::invalid_argument</title>
<path fill="none" stroke="black" d="M1323.66,-257.81C1303.35,-245.24 1272.42,-226.12 1248.59,-211.39"/>
<polygon fill="black" stroke="black" points="1250.18,-208.26 1239.83,-205.97 1246.5,-214.21 1250.18,-208.26"/>
</g>
<!-- Vector::pop_back -->
<g id="node18" class="node">
<title>Vector::pop_back</title>
<ellipse fill="none" stroke="black" cx="1461" cy="-106" rx="44.69" ry="18"/>
<text text-anchor="middle" x="1461" y="-102.3" font-family="Times,serif" font-size="14.00">pop_back</text>
</g>
<!-- Option::extract&#45;&gt;Vector::pop_back -->
<g id="edge21" class="edge">
<title>Option::extract&#45;&gt;Vector::pop_back</title>
<path fill="none" stroke="black" d="M1367.65,-258.25C1381.65,-250.22 1397.43,-240.85 1400,-238 1427.51,-207.45 1444.8,-162.33 1453.67,-133.81"/>
<polygon fill="black" stroke="black" points="1457.06,-134.7 1456.57,-124.12 1450.36,-132.7 1457.06,-134.7"/>
</g>
<!-- Option::is_some -->
<g id="node19" class="node">
<title>Option::is_some</title>
<ellipse fill="none" stroke="black" cx="1351" cy="-189" rx="40.09" ry="18"/>
<text text-anchor="middle" x="1351" y="-185.3" font-family="Times,serif" font-size="14.00">is_some</text>
</g>
<!-- Option::extract&#45;&gt;Option::is_some -->
<g id="edge22" class="edge">
<title>Option::extract&#45;&gt;Option::is_some</title>
<path fill="none" stroke="black" d="M1346.27,-253.82C1347.06,-243.19 1348.09,-229.31 1348.98,-217.2"/>
<polygon fill="black" stroke="black" points="1352.48,-217.38 1349.73,-207.15 1345.5,-216.87 1352.48,-217.38"/>
</g>
<!-- DiemAccount::delegated_key_rotation_capability&#45;&gt;Errors::not_published -->
<g id="edge23" class="edge">
<title>DiemAccount::delegated_key_rotation_capability&#45;&gt;Errors::not_published</title>
<path fill="none" stroke="black" d="M395.65,-256.66C418.31,-252.53 443.64,-248.47 467,-246 516.75,-240.73 644.38,-253.35 692,-238 708.66,-232.63 725.06,-222.21 738,-212.45"/>
<polygon fill="black" stroke="black" points="740.26,-215.12 745.96,-206.19 735.94,-209.61 740.26,-215.12"/>
</g>
<!-- DiemAccount::delegated_key_rotation_capability&#45;&gt;DiemAccount::exists_at -->
<g id="edge25" class="edge">
<title>DiemAccount::delegated_key_rotation_capability&#45;&gt;DiemAccount::exists_at</title>
<path fill="none" stroke="black" d="M375.19,-255.19C422.06,-240.12 491.87,-217.69 536.15,-203.45"/>
<polygon fill="black" stroke="black" points="537.28,-206.76 545.73,-200.37 535.14,-200.1 537.28,-206.76"/>
</g>
<!-- Option::is_none -->
<g id="node20" class="node">
<title>Option::is_none</title>
<ellipse fill="none" stroke="black" cx="1436" cy="-272" rx="38.19" ry="18"/>
<text text-anchor="middle" x="1436" y="-268.3" font-family="Times,serif" font-size="14.00">is_none</text>
</g>
<!-- DiemAccount::delegated_key_rotation_capability&#45;&gt;Option::is_none -->
<g id="edge24" class="edge">
<title>DiemAccount::delegated_key_rotation_capability&#45;&gt;Option::is_none</title>
<path fill="none" stroke="black" d="M363.58,-289.3C393.35,-302.02 436.39,-318.21 476,-325 500.72,-329.24 1354.46,-330.21 1379,-325 1395.22,-321.56 1408.98,-309.24 1418.92,-297.35"/>
<polygon fill="black" stroke="black" points="1421.8,-299.34 1425.17,-289.3 1416.27,-295.05 1421.8,-299.34"/>
</g>
<!-- Errors::invalid_argument&#45;&gt;Errors::make -->
<g id="edge26" class="edge">
<title>Errors::invalid_argument&#45;&gt;Errors::make</title>
<path fill="none" stroke="black" d="M1172.4,-174.08C1125.89,-158.51 1051.35,-133.56 1007.48,-118.88"/>
<polygon fill="black" stroke="black" points="1008.41,-115.5 997.82,-115.64 1006.19,-122.13 1008.41,-115.5"/>
</g>
<!-- DiemAccount::rotate_authentication_key&#45;&gt;Errors::not_published -->
<g id="edge28" class="edge">
<title>DiemAccount::rotate_authentication_key&#45;&gt;Errors::not_published</title>
<path fill="none" stroke="black" d="M637.83,-257.39C655.68,-252.35 675,-245.9 692,-238 707.06,-231.01 722.53,-221.11 735.25,-212.11"/>
<polygon fill="black" stroke="black" points="737.54,-214.78 743.58,-206.08 733.43,-209.11 737.54,-214.78"/>
</g>
<!-- DiemAccount::rotate_authentication_key&#45;&gt;DiemAccount::exists_at -->
<g id="edge30" class="edge">
<title>DiemAccount::rotate_authentication_key&#45;&gt;DiemAccount::exists_at</title>
<path fill="none" stroke="black" d="M578,-253.82C578,-243.19 578,-229.31 578,-217.2"/>
<polygon fill="black" stroke="black" points="581.5,-217.15 578,-207.15 574.5,-217.15 581.5,-217.15"/>
</g>
<!-- DiemAccount::rotate_authentication_key&#45;&gt;Errors::invalid_argument -->
<g id="edge27" class="edge">
<title>DiemAccount::rotate_authentication_key&#45;&gt;Errors::invalid_argument</title>
<path fill="none" stroke="black" d="M679.91,-270.51C816,-268.91 1049.43,-262.52 1131,-238 1149.79,-232.35 1168.87,-221.73 1183.99,-211.91"/>
<polygon fill="black" stroke="black" points="1186.05,-214.74 1192.41,-206.27 1182.15,-208.93 1186.05,-214.74"/>
</g>
<!-- Vector::length -->
<g id="node21" class="node">
<title>Vector::length</title>
<ellipse fill="none" stroke="black" cx="1349" cy="-34" rx="32.49" ry="18"/>
<text text-anchor="middle" x="1349" y="-30.3" font-family="Times,serif" font-size="14.00">length</text>
</g>
<!-- DiemAccount::rotate_authentication_key&#45;&gt;Vector::length -->
<g id="edge29" class="edge">
<title>DiemAccount::rotate_authentication_key&#45;&gt;Vector::length</title>
<path fill="none" stroke="black" d="M542.98,-255.07C536.56,-250.5 530.73,-244.86 527,-238 511.07,-208.72 509.51,-191.38 527,-163 570.07,-93.12 612.82,-101.68 692,-80 808.37,-48.14 1179.46,-38.23 1306.14,-35.73"/>
<polygon fill="black" stroke="black" points="1306.3,-39.23 1316.23,-35.53 1306.17,-32.23 1306.3,-39.23"/>
</g>
<!-- Vector::push_back -->
<g id="node22" class="node">
<title>Vector::push_back</title>
<ellipse fill="none" stroke="black" cx="1572" cy="-106" rx="48.19" ry="18"/>
<text text-anchor="middle" x="1572" y="-102.3" font-family="Times,serif" font-size="14.00">push_back</text>
</g>
<!-- Authenticator::ed25519_authentication_key&#45;&gt;Vector::push_back -->
<g id="edge31" class="edge">
<title>Authenticator::ed25519_authentication_key&#45;&gt;Vector::push_back</title>
<path fill="none" stroke="black" d="M1681.74,-171.41C1659.74,-158.5 1629.14,-140.54 1605.83,-126.86"/>
<polygon fill="black" stroke="black" points="1607.37,-123.7 1596.98,-121.66 1603.83,-129.74 1607.37,-123.7"/>
</g>
<!-- Hash::sha3_256 -->
<g id="node23" class="node">
<title>Hash::sha3_256</title>
<ellipse fill="none" stroke="black" cx="1710" cy="-106" rx="44.39" ry="18"/>
<text text-anchor="middle" x="1710" y="-102.3" font-family="Times,serif" font-size="14.00">sha3_256</text>
</g>
<!-- Authenticator::ed25519_authentication_key&#45;&gt;Hash::sha3_256 -->
<g id="edge32" class="edge">
<title>Authenticator::ed25519_authentication_key&#45;&gt;Hash::sha3_256</title>
<path fill="none" stroke="black" d="M1710,-170.82C1710,-160.19 1710,-146.31 1710,-134.2"/>
<polygon fill="black" stroke="black" points="1713.5,-134.15 1710,-124.15 1706.5,-134.15 1713.5,-134.15"/>
</g>
<!-- Vector::is_empty -->
<g id="node24" class="node">
<title>Vector::is_empty</title>
<ellipse fill="none" stroke="black" cx="1355" cy="-106" rx="43.59" ry="18"/>
<text text-anchor="middle" x="1355" y="-102.3" font-family="Times,serif" font-size="14.00">is_empty</text>
</g>
<!-- Option::is_some&#45;&gt;Vector::is_empty -->
<g id="edge33" class="edge">
<title>Option::is_some&#45;&gt;Vector::is_empty</title>
<path fill="none" stroke="black" d="M1351.85,-170.82C1352.37,-160.19 1353.06,-146.31 1353.66,-134.2"/>
<polygon fill="black" stroke="black" points="1357.16,-134.31 1354.15,-124.15 1350.16,-133.97 1357.16,-134.31"/>
</g>
<!-- Option::is_none&#45;&gt;Vector::is_empty -->
<g id="edge34" class="edge">
<title>Option::is_none&#45;&gt;Vector::is_empty</title>
<path fill="none" stroke="black" d="M1432.26,-253.77C1427.06,-231.79 1416.37,-193.02 1400,-163 1393.81,-151.65 1385.26,-140.31 1377.27,-130.84"/>
<polygon fill="black" stroke="black" points="1379.68,-128.27 1370.47,-123.04 1374.4,-132.87 1379.68,-128.27"/>
</g>
<!-- Vector::is_empty&#45;&gt;Vector::length -->
<g id="edge35" class="edge">
<title>Vector::is_empty&#45;&gt;Vector::length</title>
<path fill="none" stroke="black" d="M1353.52,-87.7C1352.86,-79.98 1352.06,-70.71 1351.32,-62.11"/>
<polygon fill="black" stroke="black" points="1354.81,-61.77 1350.47,-52.1 1347.83,-62.37 1354.81,-61.77"/>
</g>
</g>
</svg>
