<?xml version="1.0" encoding="UTF-8" standalone="no"?>
<!DOCTYPE svg PUBLIC "-//W3C//DTD SVG 1.1//EN"
 "http://www.w3.org/Graphics/SVG/1.1/DTD/svg11.dtd">
<!-- Generated by graphviz version 2.46.1 (20210213.1702)
 -->
<!-- Title: G Pages: 1 -->
<svg width="868pt" height="290pt"
 viewBox="0.00 0.00 868.00 290.00" xmlns="http://www.w3.org/2000/svg" xmlns:xlink="http://www.w3.org/1999/xlink">
<g id="graph0" class="graph" transform="scale(1 1) rotate(0) translate(4 286)">
<title>G</title>
<polygon fill="white" stroke="transparent" points="-4,4 -4,-286 864,-286 864,4 -4,4"/>
<g id="clust1" class="cluster">
<title>cluster_Errors</title>
<polygon fill="none" stroke="black" points="8,-8 8,-155 309,-155 309,-8 8,-8"/>
<text text-anchor="middle" x="158.5" y="-139.8" font-family="Times,serif" font-size="14.00">Errors</text>
</g>
<g id="clust2" class="cluster">
<title>cluster_Signature</title>
<polygon fill="none" stroke="black" points="87,-163 87,-238 309,-238 309,-163 87,-163"/>
<text text-anchor="middle" x="198" y="-222.8" font-family="Times,serif" font-size="14.00">Signature</text>
</g>
<g id="clust3" class="cluster">
<title>cluster_DiemAccount</title>
<polygon fill="none" stroke="black" points="317,-80 317,-238 537,-238 537,-80 317,-80"/>
<text text-anchor="middle" x="427" y="-222.8" font-family="Times,serif" font-size="14.00">DiemAccount</text>
</g>
<g id="clust4" class="cluster">
<title>cluster_Authenticator</title>
<polygon fill="none" stroke="black" points="564,-163 564,-238 804,-238 804,-163 564,-163"/>
<text text-anchor="middle" x="684" y="-222.8" font-family="Times,serif" font-size="14.00">Authenticator</text>
</g>
<g id="clust5" class="cluster">
<title>cluster_Vector</title>
<polygon fill="none" stroke="black" points="545,-80 545,-155 740,-155 740,-80 545,-80"/>
<text text-anchor="middle" x="642.5" y="-139.8" font-family="Times,serif" font-size="14.00">Vector</text>
</g>
<g id="clust6" class="cluster">
<title>cluster_Hash</title>
<polygon fill="none" stroke="black" points="748,-80 748,-155 852,-155 852,-80 748,-80"/>
<text text-anchor="middle" x="800" y="-139.8" font-family="Times,serif" font-size="14.00">Hash</text>
</g>
<!-- rotate_key_ -->
<g id="node1" class="node">
<title>rotate_key_</title>
<ellipse fill="none" stroke="black" cx="312" cy="-264" rx="51.99" ry="18"/>
<text text-anchor="middle" x="312" y="-260.3" font-family="Times,serif" font-size="14.00">rotate_key_</text>
</g>
<!-- Errors::invalid_argument -->
<g id="node2" class="node">
<title>Errors::invalid_argument</title>
<ellipse fill="none" stroke="black" cx="89" cy="-106" rx="73.39" ry="18"/>
<text text-anchor="middle" x="89" y="-102.3" font-family="Times,serif" font-size="14.00">invalid_argument</text>
</g>
<!-- rotate_key_&#45;&gt;Errors::invalid_argument -->
<g id="edge1" class="edge">
<title>rotate_key_&#45;&gt;Errors::invalid_argument</title>
<path fill="none" stroke="black" d="M260.69,-260.96C196.82,-257.89 94.65,-250.99 83,-238 57.71,-209.8 67.83,-162.92 78.01,-133.55"/>
<polygon fill="black" stroke="black" points="81.37,-134.55 81.56,-123.96 74.81,-132.12 81.37,-134.55"/>
</g>
<!-- Signature::ed25519_validate_pubkey -->
<g id="node3" class="node">
<title>Signature::ed25519_validate_pubkey</title>
<ellipse fill="none" stroke="black" cx="198" cy="-189" rx="103.18" ry="18"/>
<text text-anchor="middle" x="198" y="-185.3" font-family="Times,serif" font-size="14.00">ed25519_validate_pubkey</text>
</g>
<!-- rotate_key_&#45;&gt;Signature::ed25519_validate_pubkey -->
<g id="edge2" class="edge">
<title>rotate_key_&#45;&gt;Signature::ed25519_validate_pubkey</title>
<path fill="none" stroke="black" d="M288.38,-247.87C272.24,-237.54 250.58,-223.67 232.52,-212.1"/>
<polygon fill="black" stroke="black" points="234.28,-209.08 223.98,-206.63 230.51,-214.97 234.28,-209.08"/>
</g>
<!-- DiemAccount::rotate_authentication_key -->
<g id="node4" class="node">
<title>DiemAccount::rotate_authentication_key</title>
<ellipse fill="none" stroke="black" cx="427" cy="-189" rx="102.08" ry="18"/>
<text text-anchor="middle" x="427" y="-185.3" font-family="Times,serif" font-size="14.00">rotate_authentication_key</text>
</g>
<!-- rotate_key_&#45;&gt;DiemAccount::rotate_authentication_key -->
<g id="edge3" class="edge">
<title>rotate_key_&#45;&gt;DiemAccount::rotate_authentication_key</title>
<path fill="none" stroke="black" d="M335.83,-247.87C352.11,-237.54 373.96,-223.67 392.18,-212.1"/>
<polygon fill="black" stroke="black" points="394.23,-214.95 400.8,-206.63 390.48,-209.04 394.23,-214.95"/>
</g>
<!-- Authenticator::ed25519_authentication_key -->
<g id="node5" class="node">
<title>Authenticator::ed25519_authentication_key</title>
<ellipse fill="none" stroke="black" cx="684" cy="-189" rx="112.38" ry="18"/>
<text text-anchor="middle" x="684" y="-185.3" font-family="Times,serif" font-size="14.00">ed25519_authentication_key</text>
</g>
<!-- rotate_key_&#45;&gt;Authenticator::ed25519_authentication_key -->
<g id="edge4" class="edge">
<title>rotate_key_&#45;&gt;Authenticator::ed25519_authentication_key</title>
<path fill="none" stroke="black" d="M363.44,-260.55C410.19,-257.58 480.85,-251.22 541,-238 572.78,-231.02 607.39,-219.51 634.61,-209.51"/>
<polygon fill="black" stroke="black" points="636.13,-212.68 644.28,-205.9 633.69,-206.12 636.13,-212.68"/>
</g>
<!-- Errors::make -->
<g id="node6" class="node">
<title>Errors::make</title>
<ellipse fill="none" stroke="black" cx="165" cy="-34" rx="30.59" ry="18"/>
<text text-anchor="middle" x="165" y="-30.3" font-family="Times,serif" font-size="14.00">make</text>
</g>
<!-- Errors::invalid_argument&#45;&gt;Errors::make -->
<g id="edge5" class="edge">
<title>Errors::invalid_argument&#45;&gt;Errors::make</title>
<path fill="none" stroke="black" d="M107.01,-88.41C117.43,-78.82 130.64,-66.65 141.82,-56.35"/>
<polygon fill="black" stroke="black" points="144.2,-58.92 149.18,-49.57 139.45,-53.77 144.2,-58.92"/>
</g>
<!-- DiemAccount::rotate_authentication_key&#45;&gt;Errors::invalid_argument -->
<g id="edge6" class="edge">
<title>DiemAccount::rotate_authentication_key&#45;&gt;Errors::invalid_argument</title>
<path fill="none" stroke="black" d="M371.07,-173.88C352.69,-169.73 332.07,-165.62 313,-163 281.91,-158.74 202.07,-163.99 172,-155 153.2,-149.38 134.12,-138.76 119,-128.94"/>
<polygon fill="black" stroke="black" points="120.84,-125.96 110.59,-123.29 116.94,-131.77 120.84,-125.96"/>
</g>
<!-- Errors::not_published -->
<g id="node7" class="node">
<title>Errors::not_published</title>
<ellipse fill="none" stroke="black" cx="241" cy="-106" rx="60.39" ry="18"/>
<text text-anchor="middle" x="241" y="-102.3" font-family="Times,serif" font-size="14.00">not_published</text>
</g>
<!-- DiemAccount::rotate_authentication_key&#45;&gt;Errors::not_published -->
<g id="edge7" class="edge">
<title>DiemAccount::rotate_authentication_key&#45;&gt;Errors::not_published</title>
<path fill="none" stroke="black" d="M367.17,-174.39C349.32,-169.35 330,-162.9 313,-155 297.94,-148.01 282.47,-138.11 269.75,-129.11"/>
<polygon fill="black" stroke="black" points="271.57,-126.11 261.42,-123.08 267.46,-131.78 271.57,-126.11"/>
</g>
<!-- Vector::length -->
<g id="node8" class="node">
<title>Vector::length</title>
<ellipse fill="none" stroke="black" cx="585" cy="-106" rx="32.49" ry="18"/>
<text text-anchor="middle" x="585" y="-102.3" font-family="Times,serif" font-size="14.00">length</text>
</g>
<!-- DiemAccount::rotate_authentication_key&#45;&gt;Vector::length -->
<g id="edge8" class="edge">
<title>DiemAccount::rotate_authentication_key&#45;&gt;Vector::length</title>
<path fill="none" stroke="black" d="M493.51,-175.33C509.79,-170.49 526.64,-163.91 541,-155 551.05,-148.77 560.23,-139.62 567.57,-130.97"/>
<polygon fill="black" stroke="black" points="570.48,-132.94 574.02,-122.95 565.03,-128.55 570.48,-132.94"/>
</g>
<!-- DiemAccount::exists_at -->
<g id="node9" class="node">
<title>DiemAccount::exists_at</title>
<ellipse fill="none" stroke="black" cx="427" cy="-106" rx="41.69" ry="18"/>
<text text-anchor="middle" x="427" y="-102.3" font-family="Times,serif" font-size="14.00">exists_at</text>
</g>
<!-- DiemAccount::rotate_authentication_key&#45;&gt;DiemAccount::exists_at -->
<g id="edge9" class="edge">
<title>DiemAccount::rotate_authentication_key&#45;&gt;DiemAccount::exists_at</title>
<path fill="none" stroke="black" d="M427,-170.82C427,-160.19 427,-146.31 427,-134.2"/>
<polygon fill="black" stroke="black" points="430.5,-134.15 427,-124.15 423.5,-134.15 430.5,-134.15"/>
</g>
<!-- Vector::push_back -->
<g id="node10" class="node">
<title>Vector::push_back</title>
<ellipse fill="none" stroke="black" cx="684" cy="-106" rx="48.19" ry="18"/>
<text text-anchor="middle" x="684" y="-102.3" font-family="Times,serif" font-size="14.00">push_back</text>
</g>
<!-- Authenticator::ed25519_authentication_key&#45;&gt;Vector::push_back -->
<g id="edge10" class="edge">
<title>Authenticator::ed25519_authentication_key&#45;&gt;Vector::push_back</title>
<path fill="none" stroke="black" d="M684,-170.82C684,-160.19 684,-146.31 684,-134.2"/>
<polygon fill="black" stroke="black" points="687.5,-134.15 684,-124.15 680.5,-134.15 687.5,-134.15"/>
</g>
<!-- Hash::sha3_256 -->
<g id="node11" class="node">
<title>Hash::sha3_256</title>
<ellipse fill="none" stroke="black" cx="800" cy="-106" rx="44.39" ry="18"/>
<text text-anchor="middle" x="800" y="-102.3" font-family="Times,serif" font-size="14.00">sha3_256</text>
</g>
<!-- Authenticator::ed25519_authentication_key&#45;&gt;Hash::sha3_256 -->
<g id="edge11" class="edge">
<title>Authenticator::ed25519_authentication_key&#45;&gt;Hash::sha3_256</title>
<path fill="none" stroke="black" d="M716.49,-171.71C725.62,-166.72 735.4,-160.96 744,-155 754.86,-147.48 766.05,-138.23 775.55,-129.86"/>
<polygon fill="black" stroke="black" points="777.99,-132.38 783.09,-123.1 773.31,-127.17 777.99,-132.38"/>
</g>
<!-- Errors::not_published&#45;&gt;Errors::make -->
<g id="edge12" class="edge">
<title>Errors::not_published&#45;&gt;Errors::make</title>
<path fill="none" stroke="black" d="M223.37,-88.76C212.9,-79.12 199.49,-66.77 188.17,-56.34"/>
<polygon fill="black" stroke="black" points="190.45,-53.68 180.72,-49.48 185.71,-58.83 190.45,-53.68"/>
</g>
</g>
</svg>
