<?xml version="1.0" encoding="UTF-8" standalone="no"?>
<!DOCTYPE svg PUBLIC "-//W3C//DTD SVG 1.1//EN"
 "http://www.w3.org/Graphics/SVG/1.1/DTD/svg11.dtd">
<!-- Generated by graphviz version 2.46.1 (20210213.1702)
 -->
<!-- Title: G Pages: 1 -->
<svg width="1017pt" height="365pt"
 viewBox="0.00 0.00 1017.00 365.00" xmlns="http://www.w3.org/2000/svg" xmlns:xlink="http://www.w3.org/1999/xlink">
<g id="graph0" class="graph" transform="scale(1 1) rotate(0) translate(4 361)">
<title>G</title>
<polygon fill="white" stroke="transparent" points="-4,4 -4,-361 1013,-361 1013,4 -4,4"/>
<g id="clust1" class="cluster">
<title>cluster_Signer</title>
<polygon fill="none" stroke="black" points="8,-163 8,-313 158,-313 158,-163 8,-163"/>
<text text-anchor="middle" x="83" y="-297.8" font-family="Times,serif" font-size="14.00">Signer</text>
</g>
<g id="clust2" class="cluster">
<title>cluster_Errors</title>
<polygon fill="none" stroke="black" points="133,-8 133,-155 434,-155 434,-8 133,-8"/>
<text text-anchor="middle" x="283.5" y="-139.8" font-family="Times,serif" font-size="14.00">Errors</text>
</g>
<g id="clust3" class="cluster">
<title>cluster_Signature</title>
<polygon fill="none" stroke="black" points="236,-163 236,-238 458,-238 458,-163 236,-163"/>
<text text-anchor="middle" x="347" y="-222.8" font-family="Times,serif" font-size="14.00">Signature</text>
</g>
<g id="clust4" class="cluster">
<title>cluster_DiemAccount</title>
<polygon fill="none" stroke="black" points="466,-80 466,-238 686,-238 686,-80 466,-80"/>
<text text-anchor="middle" x="576" y="-222.8" font-family="Times,serif" font-size="14.00">DiemAccount</text>
</g>
<g id="clust5" class="cluster">
<title>cluster_Authenticator</title>
<polygon fill="none" stroke="black" points="713,-163 713,-238 953,-238 953,-163 713,-163"/>
<text text-anchor="middle" x="833" y="-222.8" font-family="Times,serif" font-size="14.00">Authenticator</text>
</g>
<g id="clust6" class="cluster">
<title>cluster_Vector</title>
<polygon fill="none" stroke="black" points="694,-80 694,-155 889,-155 889,-80 694,-80"/>
<text text-anchor="middle" x="791.5" y="-139.8" font-family="Times,serif" font-size="14.00">Vector</text>
</g>
<g id="clust7" class="cluster">
<title>cluster_Hash</title>
<polygon fill="none" stroke="black" points="897,-80 897,-155 1001,-155 1001,-80 897,-80"/>
<text text-anchor="middle" x="949" y="-139.8" font-family="Times,serif" font-size="14.00">Hash</text>
</g>
<!-- rotate_key -->
<g id="node1" class="node">
<title>rotate_key</title>
<ellipse fill="none" stroke="black" cx="240" cy="-339" rx="48.19" ry="18"/>
<text text-anchor="middle" x="240" y="-335.3" font-family="Times,serif" font-size="14.00">rotate_key</text>
</g>
<!-- Signer::address_of -->
<g id="node2" class="node">
<title>Signer::address_of</title>
<ellipse fill="none" stroke="black" cx="92" cy="-264" rx="48.99" ry="18"/>
<text text-anchor="middle" x="92" y="-260.3" font-family="Times,serif" font-size="14.00">address_of</text>
</g>
<!-- rotate_key&#45;&gt;Signer::address_of -->
<g id="edge1" class="edge">
<title>rotate_key&#45;&gt;Signer::address_of</title>
<path fill="none" stroke="black" d="M202.1,-327.75C189.68,-323.81 175.99,-318.83 164,-313 148.96,-305.68 133.39,-295.65 120.59,-286.65"/>
<polygon fill="black" stroke="black" points="122.38,-283.63 112.21,-280.63 118.29,-289.31 122.38,-283.63"/>
</g>
<!-- Errors::not_published -->
<g id="node3" class="node">
<title>Errors::not_published</title>
<ellipse fill="none" stroke="black" cx="201" cy="-106" rx="60.39" ry="18"/>
<text text-anchor="middle" x="201" y="-102.3" font-family="Times,serif" font-size="14.00">not_published</text>
</g>
<!-- rotate_key&#45;&gt;Errors::not_published -->
<g id="edge2" class="edge">
<title>rotate_key&#45;&gt;Errors::not_published</title>
<path fill="none" stroke="black" d="M234.4,-320.86C228.18,-301.11 218.3,-267.56 213,-238 206.62,-202.44 203.54,-160.8 202.12,-134.18"/>
<polygon fill="black" stroke="black" points="205.61,-133.9 201.63,-124.08 198.62,-134.24 205.61,-133.9"/>
</g>
<!-- exists_at -->
<g id="node4" class="node">
<title>exists_at</title>
<ellipse fill="none" stroke="black" cx="414" cy="-264" rx="41.69" ry="18"/>
<text text-anchor="middle" x="414" y="-260.3" font-family="Times,serif" font-size="14.00">exists_at</text>
</g>
<!-- rotate_key&#45;&gt;exists_at -->
<g id="edge3" class="edge">
<title>rotate_key&#45;&gt;exists_at</title>
<path fill="none" stroke="black" d="M286.71,-334.63C310.59,-331.42 339.49,-325.17 363,-313 374.52,-307.03 385.3,-297.7 393.96,-288.84"/>
<polygon fill="black" stroke="black" points="396.74,-290.99 400.98,-281.28 391.61,-286.22 396.74,-290.99"/>
</g>
<!-- rotate_key_ -->
<g id="node5" class="node">
<title>rotate_key_</title>
<ellipse fill="none" stroke="black" cx="302" cy="-264" rx="51.99" ry="18"/>
<text text-anchor="middle" x="302" y="-260.3" font-family="Times,serif" font-size="14.00">rotate_key_</text>
</g>
<!-- rotate_key&#45;&gt;rotate_key_ -->
<g id="edge4" class="edge">
<title>rotate_key&#45;&gt;rotate_key_</title>
<path fill="none" stroke="black" d="M254.07,-321.44C262.15,-311.91 272.46,-299.78 281.44,-289.21"/>
<polygon fill="black" stroke="black" points="284.18,-291.39 287.99,-281.5 278.85,-286.86 284.18,-291.39"/>
</g>
<!-- Signer::borrow_address -->
<g id="node6" class="node">
<title>Signer::borrow_address</title>
<ellipse fill="none" stroke="black" cx="83" cy="-189" rx="66.89" ry="18"/>
<text text-anchor="middle" x="83" y="-185.3" font-family="Times,serif" font-size="14.00">borrow_address</text>
</g>
<!-- Signer::address_of&#45;&gt;Signer::borrow_address -->
<g id="edge5" class="edge">
<title>Signer::address_of&#45;&gt;Signer::borrow_address</title>
<path fill="none" stroke="black" d="M89.87,-245.7C88.82,-237.25 87.55,-226.87 86.37,-217.37"/>
<polygon fill="black" stroke="black" points="89.81,-216.67 85.12,-207.18 82.87,-217.53 89.81,-216.67"/>
</g>
<!-- Errors::make -->
<g id="node7" class="node">
<title>Errors::make</title>
<ellipse fill="none" stroke="black" cx="277" cy="-34" rx="30.59" ry="18"/>
<text text-anchor="middle" x="277" y="-30.3" font-family="Times,serif" font-size="14.00">make</text>
</g>
<!-- Errors::not_published&#45;&gt;Errors::make -->
<g id="edge6" class="edge">
<title>Errors::not_published&#45;&gt;Errors::make</title>
<path fill="none" stroke="black" d="M218.63,-88.76C229.1,-79.12 242.51,-66.77 253.83,-56.34"/>
<polygon fill="black" stroke="black" points="256.29,-58.83 261.28,-49.48 251.55,-53.68 256.29,-58.83"/>
</g>
<!-- Errors::invalid_argument -->
<g id="node8" class="node">
<title>Errors::invalid_argument</title>
<ellipse fill="none" stroke="black" cx="353" cy="-106" rx="73.39" ry="18"/>
<text text-anchor="middle" x="353" y="-102.3" font-family="Times,serif" font-size="14.00">invalid_argument</text>
</g>
<!-- rotate_key_&#45;&gt;Errors::invalid_argument -->
<g id="edge7" class="edge">
<title>rotate_key_&#45;&gt;Errors::invalid_argument</title>
<path fill="none" stroke="black" d="M255.94,-255.48C246.56,-251.76 237.8,-246.23 232,-238 212.8,-210.75 211,-188.88 232,-163 242.87,-149.6 253.88,-161.18 270,-155 287.64,-148.24 305.94,-138.05 320.86,-128.79"/>
<polygon fill="black" stroke="black" points="323.11,-131.5 329.67,-123.18 319.36,-125.6 323.11,-131.5"/>
</g>
<!-- Signature::ed25519_validate_pubkey -->
<g id="node9" class="node">
<title>Signature::ed25519_validate_pubkey</title>
<ellipse fill="none" stroke="black" cx="347" cy="-189" rx="103.18" ry="18"/>
<text text-anchor="middle" x="347" y="-185.3" font-family="Times,serif" font-size="14.00">ed25519_validate_pubkey</text>
</g>
<!-- rotate_key_&#45;&gt;Signature::ed25519_validate_pubkey -->
<g id="edge8" class="edge">
<title>rotate_key_&#45;&gt;Signature::ed25519_validate_pubkey</title>
<path fill="none" stroke="black" d="M312.44,-246.07C317.96,-237.1 324.87,-225.9 331.05,-215.87"/>
<polygon fill="black" stroke="black" points="334.2,-217.44 336.46,-207.09 328.24,-213.77 334.2,-217.44"/>
</g>
<!-- DiemAccount::rotate_authentication_key -->
<g id="node10" class="node">
<title>DiemAccount::rotate_authentication_key</title>
<ellipse fill="none" stroke="black" cx="576" cy="-189" rx="102.08" ry="18"/>
<text text-anchor="middle" x="576" y="-185.3" font-family="Times,serif" font-size="14.00">rotate_authentication_key</text>
</g>
<!-- rotate_key_&#45;&gt;DiemAccount::rotate_authentication_key -->
<g id="edge9" class="edge">
<title>rotate_key_&#45;&gt;DiemAccount::rotate_authentication_key</title>
<path fill="none" stroke="black" d="M339.49,-251.34C347.2,-249.29 355.32,-247.37 363,-246 406.46,-238.26 419.12,-248.47 462,-238 487.44,-231.79 514.51,-220.6 535.89,-210.59"/>
<polygon fill="black" stroke="black" points="537.47,-213.71 544.98,-206.24 534.45,-207.4 537.47,-213.71"/>
</g>
<!-- Authenticator::ed25519_authentication_key -->
<g id="node11" class="node">
<title>Authenticator::ed25519_authentication_key</title>
<ellipse fill="none" stroke="black" cx="833" cy="-189" rx="112.38" ry="18"/>
<text text-anchor="middle" x="833" y="-185.3" font-family="Times,serif" font-size="14.00">ed25519_authentication_key</text>
</g>
<!-- rotate_key_&#45;&gt;Authenticator::ed25519_authentication_key -->
<g id="edge10" class="edge">
<title>rotate_key_&#45;&gt;Authenticator::ed25519_authentication_key</title>
<path fill="none" stroke="black" d="M338.78,-251.17C346.69,-249.08 355.06,-247.18 363,-246 434.89,-235.27 618.41,-250.6 690,-238 722.99,-232.2 758.72,-220.21 786.21,-209.66"/>
<polygon fill="black" stroke="black" points="787.53,-212.91 795.57,-206.01 784.98,-206.39 787.53,-212.91"/>
</g>
<!-- Errors::invalid_argument&#45;&gt;Errors::make -->
<g id="edge11" class="edge">
<title>Errors::invalid_argument&#45;&gt;Errors::make</title>
<path fill="none" stroke="black" d="M334.99,-88.41C324.57,-78.82 311.36,-66.65 300.18,-56.35"/>
<polygon fill="black" stroke="black" points="302.55,-53.77 292.82,-49.57 297.8,-58.92 302.55,-53.77"/>
</g>
<!-- DiemAccount::rotate_authentication_key&#45;&gt;Errors::not_published -->
<g id="edge13" class="edge">
<title>DiemAccount::rotate_authentication_key&#45;&gt;Errors::not_published</title>
<path fill="none" stroke="black" d="M520.68,-173.84C502.14,-169.64 481.29,-165.5 462,-163 419.87,-157.54 311.31,-168.42 271,-155 254.98,-149.67 239.28,-139.49 226.82,-129.88"/>
<polygon fill="black" stroke="black" points="228.74,-126.93 218.75,-123.38 224.35,-132.38 228.74,-126.93"/>
</g>
<!-- DiemAccount::rotate_authentication_key&#45;&gt;Errors::invalid_argument -->
<g id="edge12" class="edge">
<title>DiemAccount::rotate_authentication_key&#45;&gt;Errors::invalid_argument</title>
<path fill="none" stroke="black" d="M521.31,-173.76C502.35,-168.41 481.08,-161.93 462,-155 439.18,-146.71 414.37,-135.93 394.19,-126.69"/>
<polygon fill="black" stroke="black" points="395.52,-123.45 384.97,-122.43 392.58,-129.8 395.52,-123.45"/>
</g>
<!-- Vector::length -->
<g id="node12" class="node">
<title>Vector::length</title>
<ellipse fill="none" stroke="black" cx="734" cy="-106" rx="32.49" ry="18"/>
<text text-anchor="middle" x="734" y="-102.3" font-family="Times,serif" font-size="14.00">length</text>
</g>
<!-- DiemAccount::rotate_authentication_key&#45;&gt;Vector::length -->
<g id="edge14" class="edge">
<title>DiemAccount::rotate_authentication_key&#45;&gt;Vector::length</title>
<path fill="none" stroke="black" d="M642.51,-175.33C658.79,-170.49 675.64,-163.91 690,-155 700.05,-148.77 709.23,-139.62 716.57,-130.97"/>
<polygon fill="black" stroke="black" points="719.48,-132.94 723.02,-122.95 714.03,-128.55 719.48,-132.94"/>
</g>
<!-- DiemAccount::exists_at -->
<g id="node13" class="node">
<title>DiemAccount::exists_at</title>
<ellipse fill="none" stroke="black" cx="576" cy="-106" rx="41.69" ry="18"/>
<text text-anchor="middle" x="576" y="-102.3" font-family="Times,serif" font-size="14.00">exists_at</text>
</g>
<!-- DiemAccount::rotate_authentication_key&#45;&gt;DiemAccount::exists_at -->
<g id="edge15" class="edge">
<title>DiemAccount::rotate_authentication_key&#45;&gt;DiemAccount::exists_at</title>
<path fill="none" stroke="black" d="M576,-170.82C576,-160.19 576,-146.31 576,-134.2"/>
<polygon fill="black" stroke="black" points="579.5,-134.15 576,-124.15 572.5,-134.15 579.5,-134.15"/>
</g>
<!-- Vector::push_back -->
<g id="node14" class="node">
<title>Vector::push_back</title>
<ellipse fill="none" stroke="black" cx="833" cy="-106" rx="48.19" ry="18"/>
<text text-anchor="middle" x="833" y="-102.3" font-family="Times,serif" font-size="14.00">push_back</text>
</g>
<!-- Authenticator::ed25519_authentication_key&#45;&gt;Vector::push_back -->
<g id="edge16" class="edge">
<title>Authenticator::ed25519_authentication_key&#45;&gt;Vector::push_back</title>
<path fill="none" stroke="black" d="M833,-170.82C833,-160.19 833,-146.31 833,-134.2"/>
<polygon fill="black" stroke="black" points="836.5,-134.15 833,-124.15 829.5,-134.15 836.5,-134.15"/>
</g>
<!-- Hash::sha3_256 -->
<g id="node15" class="node">
<title>Hash::sha3_256</title>
<ellipse fill="none" stroke="black" cx="949" cy="-106" rx="44.39" ry="18"/>
<text text-anchor="middle" x="949" y="-102.3" font-family="Times,serif" font-size="14.00">sha3_256</text>
</g>
<!-- Authenticator::ed25519_authentication_key&#45;&gt;Hash::sha3_256 -->
<g id="edge17" class="edge">
<title>Authenticator::ed25519_authentication_key&#45;&gt;Hash::sha3_256</title>
<path fill="none" stroke="black" d="M865.49,-171.71C874.62,-166.72 884.4,-160.96 893,-155 903.86,-147.48 915.05,-138.23 924.55,-129.86"/>
<polygon fill="black" stroke="black" points="926.99,-132.38 932.09,-123.1 922.31,-127.17 926.99,-132.38"/>
</g>
</g>
</svg>
