<?xml version="1.0" encoding="UTF-8" standalone="no"?>
<!DOCTYPE svg PUBLIC "-//W3C//DTD SVG 1.1//EN"
 "http://www.w3.org/Graphics/SVG/1.1/DTD/svg11.dtd">
<!-- Generated by graphviz version 2.46.1 (20210213.1702)
 -->
<!-- Title: G Pages: 1 -->
<svg width="1527pt" height="332pt"
 viewBox="0.00 0.00 1526.59 332.00" xmlns="http://www.w3.org/2000/svg" xmlns:xlink="http://www.w3.org/1999/xlink">
<g id="graph0" class="graph" transform="scale(1 1) rotate(0) translate(4 328)">
<title>G</title>
<polygon fill="white" stroke="transparent" points="-4,4 -4,-328 1522.59,-328 1522.59,4 -4,4"/>
<!-- Signature -->
<g id="node1" class="node">
<title>Signature</title>
<ellipse fill="none" stroke="black" cx="620.7" cy="-18" rx="44.39" ry="18"/>
<text text-anchor="middle" x="620.7" y="-14.3" font-family="Times,serif" font-size="14.00">Signature</text>
</g>
<!-- ValidatorConfig -->
<g id="node2" class="node">
<title>ValidatorConfig</title>
<ellipse fill="none" stroke="black" cx="941.7" cy="-90" rx="66.89" ry="18"/>
<text text-anchor="middle" x="941.7" y="-86.3" font-family="Times,serif" font-size="14.00">ValidatorConfig</text>
</g>
<!-- ValidatorConfig&#45;&gt;Signature -->
<g id="edge1" class="edge">
<title>ValidatorConfig&#45;&gt;Signature</title>
<path fill="none" stroke="black" d="M891.55,-78.06C830.7,-64.8 728.86,-42.59 668.91,-29.51"/>
<polygon fill="black" stroke="black" points="669.46,-26.05 658.94,-27.34 667.97,-32.89 669.46,-26.05"/>
</g>
<!-- DualAttestation -->
<g id="node3" class="node">
<title>DualAttestation</title>
<ellipse fill="none" stroke="black" cx="620.7" cy="-90" rx="66.09" ry="18"/>
<text text-anchor="middle" x="620.7" y="-86.3" font-family="Times,serif" font-size="14.00">DualAttestation</text>
</g>
<!-- DualAttestation&#45;&gt;Signature -->
<g id="edge2" class="edge">
<title>DualAttestation&#45;&gt;Signature</title>
<path fill="none" stroke="black" d="M620.7,-71.7C620.7,-63.98 620.7,-54.71 620.7,-46.11"/>
<polygon fill="black" stroke="black" points="624.2,-46.1 620.7,-36.1 617.2,-46.1 624.2,-46.1"/>
</g>
<!-- SharedEd25519PublicKey -->
<g id="node4" class="node">
<title>SharedEd25519PublicKey</title>
<ellipse fill="none" stroke="black" cx="120.7" cy="-234" rx="103.98" ry="18"/>
<text text-anchor="middle" x="120.7" y="-230.3" font-family="Times,serif" font-size="14.00">SharedEd25519PublicKey</text>
</g>
<!-- SharedEd25519PublicKey&#45;&gt;Signature -->
<g id="edge3" class="edge">
<title>SharedEd25519PublicKey&#45;&gt;Signature</title>
<path fill="none" stroke="black" d="M157.87,-217.09C250.01,-177.66 488.23,-75.7 581.98,-35.57"/>
<polygon fill="black" stroke="black" points="583.56,-38.7 591.37,-31.55 580.8,-32.27 583.56,-38.7"/>
</g>
<!-- DiemAccount -->
<g id="node5" class="node">
<title>DiemAccount</title>
<ellipse fill="none" stroke="black" cx="710.7" cy="-162" rx="60.39" ry="18"/>
<text text-anchor="middle" x="710.7" y="-158.3" font-family="Times,serif" font-size="14.00">DiemAccount</text>
</g>
<!-- SharedEd25519PublicKey&#45;&gt;DiemAccount -->
<g id="edge12" class="edge">
<title>SharedEd25519PublicKey&#45;&gt;DiemAccount</title>
<path fill="none" stroke="black" d="M195.1,-221.39C207.96,-219.5 221.21,-217.63 233.7,-216 379.83,-196.9 551.73,-178.89 644.04,-169.59"/>
<polygon fill="black" stroke="black" points="644.48,-173.06 654.08,-168.58 643.78,-166.09 644.48,-173.06"/>
</g>
<!-- DiemAccount&#45;&gt;ValidatorConfig -->
<g id="edge4" class="edge">
<title>DiemAccount&#45;&gt;ValidatorConfig</title>
<path fill="none" stroke="black" d="M751.47,-148.65C789.84,-137.02 847.5,-119.55 889.27,-106.89"/>
<polygon fill="black" stroke="black" points="890.44,-110.19 899,-103.94 888.41,-103.49 890.44,-110.19"/>
</g>
<!-- DiemAccount&#45;&gt;DualAttestation -->
<g id="edge7" class="edge">
<title>DiemAccount&#45;&gt;DualAttestation</title>
<path fill="none" stroke="black" d="M689.83,-144.76C677.9,-135.49 662.76,-123.71 649.7,-113.55"/>
<polygon fill="black" stroke="black" points="651.5,-110.52 641.46,-107.15 647.21,-116.05 651.5,-110.52"/>
</g>
<!-- DiemSystem -->
<g id="node6" class="node">
<title>DiemSystem</title>
<ellipse fill="none" stroke="black" cx="1189.7" cy="-162" rx="57.39" ry="18"/>
<text text-anchor="middle" x="1189.7" y="-158.3" font-family="Times,serif" font-size="14.00">DiemSystem</text>
</g>
<!-- DiemSystem&#45;&gt;ValidatorConfig -->
<g id="edge5" class="edge">
<title>DiemSystem&#45;&gt;ValidatorConfig</title>
<path fill="none" stroke="black" d="M1148.47,-149.36C1106.77,-137.59 1042.08,-119.33 996.17,-106.37"/>
<polygon fill="black" stroke="black" points="996.96,-102.96 986.39,-103.61 995.06,-109.7 996.96,-102.96"/>
</g>
<!-- ValidatorAdministrationScripts -->
<g id="node7" class="node">
<title>ValidatorAdministrationScripts</title>
<ellipse fill="none" stroke="black" cx="1397.7" cy="-234" rx="120.78" ry="18"/>
<text text-anchor="middle" x="1397.7" y="-230.3" font-family="Times,serif" font-size="14.00">ValidatorAdministrationScripts</text>
</g>
<!-- ValidatorAdministrationScripts&#45;&gt;ValidatorConfig -->
<g id="edge6" class="edge">
<title>ValidatorAdministrationScripts&#45;&gt;ValidatorConfig</title>
<path fill="none" stroke="black" d="M1376.51,-215.93C1349.94,-195.46 1302.2,-161.69 1255.7,-144 1177.47,-114.24 1081.95,-101.14 1016.95,-95.41"/>
<polygon fill="black" stroke="black" points="1017.04,-91.9 1006.78,-94.55 1016.45,-98.88 1017.04,-91.9"/>
</g>
<!-- ValidatorAdministrationScripts&#45;&gt;DiemSystem -->
<g id="edge21" class="edge">
<title>ValidatorAdministrationScripts&#45;&gt;DiemSystem</title>
<path fill="none" stroke="black" d="M1351.28,-217.38C1317.28,-205.94 1271.29,-190.46 1237.07,-178.94"/>
<polygon fill="black" stroke="black" points="1237.9,-175.53 1227.3,-175.65 1235.67,-182.16 1237.9,-175.53"/>
</g>
<!-- AccountAdministrationScripts -->
<g id="node8" class="node">
<title>AccountAdministrationScripts</title>
<ellipse fill="none" stroke="black" cx="336.7" cy="-306" rx="118.08" ry="18"/>
<text text-anchor="middle" x="336.7" y="-302.3" font-family="Times,serif" font-size="14.00">AccountAdministrationScripts</text>
</g>
<!-- AccountAdministrationScripts&#45;&gt;DualAttestation -->
<g id="edge8" class="edge">
<title>AccountAdministrationScripts&#45;&gt;DualAttestation</title>
<path fill="none" stroke="black" d="M221.41,-301.84C137.89,-296.82 35.04,-284.1 7.7,-252 -2.67,-239.82 -2.42,-228.39 7.7,-216 74.92,-133.69 397.53,-104.18 545.83,-94.84"/>
<polygon fill="black" stroke="black" points="546.44,-98.31 556.2,-94.2 546.01,-91.32 546.44,-98.31"/>
</g>
<!-- AccountAdministrationScripts&#45;&gt;SharedEd25519PublicKey -->
<g id="edge11" class="edge">
<title>AccountAdministrationScripts&#45;&gt;SharedEd25519PublicKey</title>
<path fill="none" stroke="black" d="M288.76,-289.46C255.7,-278.75 211.64,-264.47 176.92,-253.22"/>
<polygon fill="black" stroke="black" points="177.98,-249.88 167.39,-250.13 175.83,-256.54 177.98,-249.88"/>
</g>
<!-- AccountAdministrationScripts&#45;&gt;DiemAccount -->
<g id="edge14" class="edge">
<title>AccountAdministrationScripts&#45;&gt;DiemAccount</title>
<path fill="none" stroke="black" d="M447.17,-299.52C572.81,-292.12 763.54,-276.93 785.7,-252 796.33,-240.04 793.06,-230.21 785.7,-216 778.36,-201.83 765.3,-190.64 752.11,-182.26"/>
<polygon fill="black" stroke="black" points="753.87,-179.24 743.48,-177.16 750.31,-185.27 753.87,-179.24"/>
</g>
<!-- RecoveryAddress -->
<g id="node11" class="node">
<title>RecoveryAddress</title>
<ellipse fill="none" stroke="black" cx="552.7" cy="-234" rx="73.39" ry="18"/>
<text text-anchor="middle" x="552.7" y="-230.3" font-family="Times,serif" font-size="14.00">RecoveryAddress</text>
</g>
<!-- AccountAdministrationScripts&#45;&gt;RecoveryAddress -->
<g id="edge22" class="edge">
<title>AccountAdministrationScripts&#45;&gt;RecoveryAddress</title>
<path fill="none" stroke="black" d="M384.64,-289.46C419.06,-278.31 465.42,-263.29 500.73,-251.84"/>
<polygon fill="black" stroke="black" points="501.94,-255.13 510.38,-248.72 499.79,-248.47 501.94,-255.13"/>
</g>
<!-- Genesis -->
<g id="node9" class="node">
<title>Genesis</title>
<ellipse fill="none" stroke="black" cx="1107.7" cy="-306" rx="38.19" ry="18"/>
<text text-anchor="middle" x="1107.7" y="-302.3" font-family="Times,serif" font-size="14.00">Genesis</text>
</g>
<!-- Genesis&#45;&gt;DualAttestation -->
<g id="edge9" class="edge">
<title>Genesis&#45;&gt;DualAttestation</title>
<path fill="none" stroke="black" d="M1104.18,-287.97C1099.13,-267.85 1087.88,-234.75 1065.7,-216 959.42,-126.14 792.91,-100.67 696.55,-93.58"/>
<polygon fill="black" stroke="black" points="696.52,-90.07 686.3,-92.88 696.04,-97.05 696.52,-90.07"/>
</g>
<!-- Genesis&#45;&gt;DiemAccount -->
<g id="edge16" class="edge">
<title>Genesis&#45;&gt;DiemAccount</title>
<path fill="none" stroke="black" d="M1098.57,-288.45C1086.26,-267.85 1062.31,-233.28 1031.7,-216 989.42,-192.14 859.19,-176.43 778.18,-168.68"/>
<polygon fill="black" stroke="black" points="778.35,-165.18 768.07,-167.73 777.7,-172.15 778.35,-165.18"/>
</g>
<!-- Genesis&#45;&gt;DiemSystem -->
<g id="edge20" class="edge">
<title>Genesis&#45;&gt;DiemSystem</title>
<path fill="none" stroke="black" d="M1113.33,-287.89C1119.79,-269.43 1131.34,-239.52 1145.7,-216 1151.75,-206.1 1159.53,-196.09 1166.86,-187.48"/>
<polygon fill="black" stroke="black" points="1169.72,-189.53 1173.69,-179.7 1164.46,-184.91 1169.72,-189.53"/>
</g>
<!-- DiemBlock -->
<g id="node14" class="node">
<title>DiemBlock</title>
<ellipse fill="none" stroke="black" cx="1206.7" cy="-234" rx="51.99" ry="18"/>
<text text-anchor="middle" x="1206.7" y="-230.3" font-family="Times,serif" font-size="14.00">DiemBlock</text>
</g>
<!-- Genesis&#45;&gt;DiemBlock -->
<g id="edge23" class="edge">
<title>Genesis&#45;&gt;DiemBlock</title>
<path fill="none" stroke="black" d="M1128.21,-290.5C1142.17,-280.63 1160.87,-267.41 1176.51,-256.35"/>
<polygon fill="black" stroke="black" points="1178.7,-259.09 1184.84,-250.46 1174.66,-253.37 1178.7,-259.09"/>
</g>
<!-- TreasuryComplianceScripts -->
<g id="node10" class="node">
<title>TreasuryComplianceScripts</title>
<ellipse fill="none" stroke="black" cx="351.7" cy="-234" rx="109.38" ry="18"/>
<text text-anchor="middle" x="351.7" y="-230.3" font-family="Times,serif" font-size="14.00">TreasuryComplianceScripts</text>
</g>
<!-- TreasuryComplianceScripts&#45;&gt;DualAttestation -->
<g id="edge10" class="edge">
<title>TreasuryComplianceScripts&#45;&gt;DualAttestation</title>
<path fill="none" stroke="black" d="M382.56,-216.71C432.13,-190.54 529.37,-139.21 582.98,-110.91"/>
<polygon fill="black" stroke="black" points="584.62,-114 591.83,-106.24 581.36,-107.81 584.62,-114"/>
</g>
<!-- TreasuryComplianceScripts&#45;&gt;DiemAccount -->
<g id="edge18" class="edge">
<title>TreasuryComplianceScripts&#45;&gt;DiemAccount</title>
<path fill="none" stroke="black" d="M419.23,-219.83C486.22,-206.77 587.87,-186.95 651.72,-174.5"/>
<polygon fill="black" stroke="black" points="652.48,-177.92 661.63,-172.57 651.14,-171.05 652.48,-177.92"/>
</g>
<!-- RecoveryAddress&#45;&gt;DiemAccount -->
<g id="edge13" class="edge">
<title>RecoveryAddress&#45;&gt;DiemAccount</title>
<path fill="none" stroke="black" d="M586.6,-217.98C610.82,-207.25 643.56,-192.75 669.33,-181.33"/>
<polygon fill="black" stroke="black" points="670.76,-184.53 678.48,-177.27 667.92,-178.13 670.76,-184.53"/>
</g>
<!-- AccountCreationScripts -->
<g id="node12" class="node">
<title>AccountCreationScripts</title>
<ellipse fill="none" stroke="black" cx="927.7" cy="-234" rx="94.78" ry="18"/>
<text text-anchor="middle" x="927.7" y="-230.3" font-family="Times,serif" font-size="14.00">AccountCreationScripts</text>
</g>
<!-- AccountCreationScripts&#45;&gt;DiemAccount -->
<g id="edge15" class="edge">
<title>AccountCreationScripts&#45;&gt;DiemAccount</title>
<path fill="none" stroke="black" d="M881.68,-218.15C845.97,-206.64 796.57,-190.7 760.05,-178.92"/>
<polygon fill="black" stroke="black" points="760.7,-175.45 750.11,-175.71 758.55,-182.11 760.7,-175.45"/>
</g>
<!-- PaymentScripts -->
<g id="node13" class="node">
<title>PaymentScripts</title>
<ellipse fill="none" stroke="black" cx="710.7" cy="-234" rx="66.09" ry="18"/>
<text text-anchor="middle" x="710.7" y="-230.3" font-family="Times,serif" font-size="14.00">PaymentScripts</text>
</g>
<!-- PaymentScripts&#45;&gt;DiemAccount -->
<g id="edge17" class="edge">
<title>PaymentScripts&#45;&gt;DiemAccount</title>
<path fill="none" stroke="black" d="M710.7,-215.7C710.7,-207.98 710.7,-198.71 710.7,-190.11"/>
<polygon fill="black" stroke="black" points="714.2,-190.1 710.7,-180.1 707.2,-190.1 714.2,-190.1"/>
</g>
<!-- DiemBlock&#45;&gt;DiemSystem -->
<g id="edge19" class="edge">
<title>DiemBlock&#45;&gt;DiemSystem</title>
<path fill="none" stroke="black" d="M1202.59,-216.05C1200.69,-208.26 1198.4,-198.82 1196.28,-190.08"/>
<polygon fill="black" stroke="black" points="1199.66,-189.17 1193.9,-180.28 1192.86,-190.82 1199.66,-189.17"/>
</g>
</g>
</svg>
