<?xml version="1.0" encoding="UTF-8" standalone="no"?>
<!DOCTYPE svg PUBLIC "-//W3C//DTD SVG 1.1//EN"
 "http://www.w3.org/Graphics/SVG/1.1/DTD/svg11.dtd">
<!-- Generated by graphviz version 2.46.1 (20210213.1702)
 -->
<!-- Title: G Pages: 1 -->
<svg width="483pt" height="279pt"
 viewBox="0.00 0.00 483.00 279.00" xmlns="http://www.w3.org/2000/svg" xmlns:xlink="http://www.w3.org/1999/xlink">
<g id="graph0" class="graph" transform="scale(1 1) rotate(0) translate(4 275)">
<title>G</title>
<polygon fill="white" stroke="transparent" points="-4,4 -4,-275 479,-275 479,4 -4,4"/>
<g id="clust1" class="cluster">
<title>cluster_Errors</title>
<polygon fill="none" stroke="black" points="8,-8 8,-155 309,-155 309,-8 8,-8"/>
<text text-anchor="middle" x="158.5" y="-139.8" font-family="Times,serif" font-size="14.00">Errors</text>
</g>
<g id="clust2" class="cluster">
<title>cluster_Signer</title>
<polygon fill="none" stroke="black" points="317,-8 317,-155 467,-155 467,-8 317,-8"/>
<text text-anchor="middle" x="392" y="-139.8" font-family="Times,serif" font-size="14.00">Signer</text>
</g>
<!-- record_nonce_or_abort -->
<g id="node1" class="node">
<title>record_nonce_or_abort</title>
<ellipse fill="none" stroke="black" cx="165" cy="-253" rx="92.88" ry="18"/>
<text text-anchor="middle" x="165" y="-249.3" font-family="Times,serif" font-size="14.00">record_nonce_or_abort</text>
</g>
<!-- Errors::invalid_argument -->
<g id="node2" class="node">
<title>Errors::invalid_argument</title>
<ellipse fill="none" stroke="black" cx="89" cy="-106" rx="73.39" ry="18"/>
<text text-anchor="middle" x="89" y="-102.3" font-family="Times,serif" font-size="14.00">invalid_argument</text>
</g>
<!-- record_nonce_or_abort&#45;&gt;Errors::invalid_argument -->
<g id="edge1" class="edge">
<title>record_nonce_or_abort&#45;&gt;Errors::invalid_argument</title>
<path fill="none" stroke="black" d="M155.98,-234.8C142.78,-209.62 118.1,-162.52 102.67,-133.07"/>
<polygon fill="black" stroke="black" points="105.75,-131.41 98,-124.18 99.55,-134.66 105.75,-131.41"/>
</g>
<!-- try_record_nonce -->
<g id="node3" class="node">
<title>try_record_nonce</title>
<ellipse fill="none" stroke="black" cx="241" cy="-181" rx="72.59" ry="18"/>
<text text-anchor="middle" x="241" y="-177.3" font-family="Times,serif" font-size="14.00">try_record_nonce</text>
</g>
<!-- record_nonce_or_abort&#45;&gt;try_record_nonce -->
<g id="edge2" class="edge">
<title>record_nonce_or_abort&#45;&gt;try_record_nonce</title>
<path fill="none" stroke="black" d="M183.4,-235.05C193.08,-226.13 205.11,-215.06 215.66,-205.34"/>
<polygon fill="black" stroke="black" points="218.05,-207.9 223.03,-198.55 213.31,-202.75 218.05,-207.9"/>
</g>
<!-- Errors::make -->
<g id="node4" class="node">
<title>Errors::make</title>
<ellipse fill="none" stroke="black" cx="165" cy="-34" rx="30.59" ry="18"/>
<text text-anchor="middle" x="165" y="-30.3" font-family="Times,serif" font-size="14.00">make</text>
</g>
<!-- Errors::invalid_argument&#45;&gt;Errors::make -->
<g id="edge3" class="edge">
<title>Errors::invalid_argument&#45;&gt;Errors::make</title>
<path fill="none" stroke="black" d="M107.01,-88.41C117.43,-78.82 130.64,-66.65 141.82,-56.35"/>
<polygon fill="black" stroke="black" points="144.2,-58.92 149.18,-49.57 139.45,-53.77 144.2,-58.92"/>
</g>
<!-- Signer::address_of -->
<g id="node5" class="node">
<title>Signer::address_of</title>
<ellipse fill="none" stroke="black" cx="383" cy="-106" rx="48.99" ry="18"/>
<text text-anchor="middle" x="383" y="-102.3" font-family="Times,serif" font-size="14.00">address_of</text>
</g>
<!-- try_record_nonce&#45;&gt;Signer::address_of -->
<g id="edge4" class="edge">
<title>try_record_nonce&#45;&gt;Signer::address_of</title>
<path fill="none" stroke="black" d="M285.56,-166.61C294.82,-163.26 304.38,-159.35 313,-155 327.64,-147.61 342.78,-137.57 355.23,-128.58"/>
<polygon fill="black" stroke="black" points="357.4,-131.33 363.37,-122.57 353.24,-125.69 357.4,-131.33"/>
</g>
<!-- Errors::not_published -->
<g id="node6" class="node">
<title>Errors::not_published</title>
<ellipse fill="none" stroke="black" cx="241" cy="-106" rx="60.39" ry="18"/>
<text text-anchor="middle" x="241" y="-102.3" font-family="Times,serif" font-size="14.00">not_published</text>
</g>
<!-- try_record_nonce&#45;&gt;Errors::not_published -->
<g id="edge5" class="edge">
<title>try_record_nonce&#45;&gt;Errors::not_published</title>
<path fill="none" stroke="black" d="M241,-162.7C241,-154.25 241,-143.87 241,-134.37"/>
<polygon fill="black" stroke="black" points="244.5,-134.18 241,-124.18 237.5,-134.18 244.5,-134.18"/>
</g>
<!-- Signer::borrow_address -->
<g id="node7" class="node">
<title>Signer::borrow_address</title>
<ellipse fill="none" stroke="black" cx="392" cy="-34" rx="66.89" ry="18"/>
<text text-anchor="middle" x="392" y="-30.3" font-family="Times,serif" font-size="14.00">borrow_address</text>
</g>
<!-- Signer::address_of&#45;&gt;Signer::borrow_address -->
<g id="edge6" class="edge">
<title>Signer::address_of&#45;&gt;Signer::borrow_address</title>
<path fill="none" stroke="black" d="M385.22,-87.7C386.22,-79.98 387.41,-70.71 388.51,-62.11"/>
<polygon fill="black" stroke="black" points="392,-62.47 389.8,-52.1 385.05,-61.58 392,-62.47"/>
</g>
<!-- Errors::not_published&#45;&gt;Errors::make -->
<g id="edge7" class="edge">
<title>Errors::not_published&#45;&gt;Errors::make</title>
<path fill="none" stroke="black" d="M223.37,-88.76C212.9,-79.12 199.49,-66.77 188.17,-56.34"/>
<polygon fill="black" stroke="black" points="190.45,-53.68 180.72,-49.48 185.71,-58.83 190.45,-53.68"/>
</g>
</g>
</svg>
