<?xml version="1.0" encoding="UTF-8" standalone="no"?>
<!DOCTYPE svg PUBLIC "-//W3C//DTD SVG 1.1//EN"
 "http://www.w3.org/Graphics/SVG/1.1/DTD/svg11.dtd">
<!-- Generated by graphviz version 2.46.1 (20210213.1702)
 -->
<!-- Title: G Pages: 1 -->
<svg width="318pt" height="207pt"
 viewBox="0.00 0.00 318.00 207.00" xmlns="http://www.w3.org/2000/svg" xmlns:xlink="http://www.w3.org/1999/xlink">
<g id="graph0" class="graph" transform="scale(1 1) rotate(0) translate(4 203)">
<title>G</title>
<polygon fill="white" stroke="transparent" points="-4,4 -4,-203 314,-203 314,4 -4,4"/>
<g id="clust1" class="cluster">
<title>cluster_Signer</title>
<polygon fill="none" stroke="black" points="8,-8 8,-155 158,-155 158,-8 8,-8"/>
<text text-anchor="middle" x="83" y="-139.8" font-family="Times,serif" font-size="14.00">Signer</text>
</g>
<g id="clust2" class="cluster">
<title>cluster_Errors</title>
<polygon fill="none" stroke="black" points="166,-8 166,-155 302,-155 302,-8 166,-8"/>
<text text-anchor="middle" x="234" y="-139.8" font-family="Times,serif" font-size="14.00">Errors</text>
</g>
<!-- try_record_nonce -->
<g id="node1" class="node">
<title>try_record_nonce</title>
<ellipse fill="none" stroke="black" cx="167" cy="-181" rx="72.59" ry="18"/>
<text text-anchor="middle" x="167" y="-177.3" font-family="Times,serif" font-size="14.00">try_record_nonce</text>
</g>
<!-- Signer::address_of -->
<g id="node2" class="node">
<title>Signer::address_of</title>
<ellipse fill="none" stroke="black" cx="92" cy="-106" rx="48.99" ry="18"/>
<text text-anchor="middle" x="92" y="-102.3" font-family="Times,serif" font-size="14.00">address_of</text>
</g>
<!-- try_record_nonce&#45;&gt;Signer::address_of -->
<g id="edge1" class="edge">
<title>try_record_nonce&#45;&gt;Signer::address_of</title>
<path fill="none" stroke="black" d="M149.98,-163.44C139.87,-153.59 126.89,-140.96 115.77,-130.14"/>
<polygon fill="black" stroke="black" points="118.04,-127.46 108.44,-123 113.16,-132.48 118.04,-127.46"/>
</g>
<!-- Errors::not_published -->
<g id="node3" class="node">
<title>Errors::not_published</title>
<ellipse fill="none" stroke="black" cx="234" cy="-106" rx="60.39" ry="18"/>
<text text-anchor="middle" x="234" y="-102.3" font-family="Times,serif" font-size="14.00">not_published</text>
</g>
<!-- try_record_nonce&#45;&gt;Errors::not_published -->
<g id="edge2" class="edge">
<title>try_record_nonce&#45;&gt;Errors::not_published</title>
<path fill="none" stroke="black" d="M182.54,-163.07C191.23,-153.6 202.2,-141.65 211.78,-131.21"/>
<polygon fill="black" stroke="black" points="214.59,-133.32 218.78,-123.59 209.44,-128.59 214.59,-133.32"/>
</g>
<!-- Signer::borrow_address -->
<g id="node4" class="node">
<title>Signer::borrow_address</title>
<ellipse fill="none" stroke="black" cx="83" cy="-34" rx="66.89" ry="18"/>
<text text-anchor="middle" x="83" y="-30.3" font-family="Times,serif" font-size="14.00">borrow_address</text>
</g>
<!-- Signer::address_of&#45;&gt;Signer::borrow_address -->
<g id="edge3" class="edge">
<title>Signer::address_of&#45;&gt;Signer::borrow_address</title>
<path fill="none" stroke="black" d="M89.78,-87.7C88.78,-79.98 87.59,-70.71 86.49,-62.11"/>
<polygon fill="black" stroke="black" points="89.95,-61.58 85.2,-52.1 83,-62.47 89.95,-61.58"/>
</g>
<!-- Errors::make -->
<g id="node5" class="node">
<title>Errors::make</title>
<ellipse fill="none" stroke="black" cx="234" cy="-34" rx="30.59" ry="18"/>
<text text-anchor="middle" x="234" y="-30.3" font-family="Times,serif" font-size="14.00">make</text>
</g>
<!-- Errors::not_published&#45;&gt;Errors::make -->
<g id="edge4" class="edge">
<title>Errors::not_published&#45;&gt;Errors::make</title>
<path fill="none" stroke="black" d="M234,-87.7C234,-79.98 234,-70.71 234,-62.11"/>
<polygon fill="black" stroke="black" points="237.5,-62.1 234,-52.1 230.5,-62.1 237.5,-62.1"/>
</g>
</g>
</svg>
