<?xml version="1.0" encoding="UTF-8" standalone="no"?>
<!DOCTYPE svg PUBLIC "-//W3C//DTD SVG 1.1//EN"
 "http://www.w3.org/Graphics/SVG/1.1/DTD/svg11.dtd">
<!-- Generated by graphviz version 2.46.1 (20210213.1702)
 -->
<!-- Title: G Pages: 1 -->
<svg width="1405pt" height="260pt"
 viewBox="0.00 0.00 1405.18 260.00" xmlns="http://www.w3.org/2000/svg" xmlns:xlink="http://www.w3.org/1999/xlink">
<g id="graph0" class="graph" transform="scale(1 1) rotate(0) translate(4 256)">
<title>G</title>
<polygon fill="white" stroke="transparent" points="-4,4 -4,-256 1401.18,-256 1401.18,4 -4,4"/>
<!-- SlidingNonce -->
<g id="node1" class="node">
<title>SlidingNonce</title>
<ellipse fill="none" stroke="black" cx="912.29" cy="-18" rx="59.29" ry="18"/>
<text text-anchor="middle" x="912.29" y="-14.3" font-family="Times,serif" font-size="14.00">SlidingNonce</text>
</g>
<!-- DiemAccount -->
<g id="node2" class="node">
<title>DiemAccount</title>
<ellipse fill="none" stroke="black" cx="552.29" cy="-90" rx="60.39" ry="18"/>
<text text-anchor="middle" x="552.29" y="-86.3" font-family="Times,serif" font-size="14.00">DiemAccount</text>
</g>
<!-- DiemAccount&#45;&gt;SlidingNonce -->
<g id="edge1" class="edge">
<title>DiemAccount&#45;&gt;SlidingNonce</title>
<path fill="none" stroke="black" d="M601.6,-79.41C667.4,-66.62 783.75,-43.99 853.88,-30.36"/>
<polygon fill="black" stroke="black" points="854.73,-33.76 863.88,-28.41 853.39,-26.89 854.73,-33.76"/>
</g>
<!-- AccountAdministrationScripts -->
<g id="node3" class="node">
<title>AccountAdministrationScripts</title>
<ellipse fill="none" stroke="black" cx="389.29" cy="-234" rx="118.08" ry="18"/>
<text text-anchor="middle" x="389.29" y="-230.3" font-family="Times,serif" font-size="14.00">AccountAdministrationScripts</text>
</g>
<!-- AccountAdministrationScripts&#45;&gt;SlidingNonce -->
<g id="edge2" class="edge">
<title>AccountAdministrationScripts&#45;&gt;SlidingNonce</title>
<path fill="none" stroke="black" d="M507.6,-232.88C701.22,-231.43 1068.36,-222.98 1108.29,-180 1140.96,-144.83 1137.47,-110.11 1108.29,-72 1092.07,-50.81 1026.48,-36.15 975.59,-27.7"/>
<polygon fill="black" stroke="black" points="976.06,-24.23 965.63,-26.09 974.94,-31.14 976.06,-24.23"/>
</g>
<!-- AccountAdministrationScripts&#45;&gt;DiemAccount -->
<g id="edge9" class="edge">
<title>AccountAdministrationScripts&#45;&gt;DiemAccount</title>
<path fill="none" stroke="black" d="M293.59,-223.32C221,-212.23 139.91,-189.38 179.29,-144 217.65,-99.81 384.59,-91.5 481.64,-90.5"/>
<polygon fill="black" stroke="black" points="481.7,-94 491.67,-90.42 481.65,-87 481.7,-94"/>
</g>
<!-- SharedEd25519PublicKey -->
<g id="node8" class="node">
<title>SharedEd25519PublicKey</title>
<ellipse fill="none" stroke="black" cx="292.29" cy="-162" rx="103.98" ry="18"/>
<text text-anchor="middle" x="292.29" y="-158.3" font-family="Times,serif" font-size="14.00">SharedEd25519PublicKey</text>
</g>
<!-- AccountAdministrationScripts&#45;&gt;SharedEd25519PublicKey -->
<g id="edge14" class="edge">
<title>AccountAdministrationScripts&#45;&gt;SharedEd25519PublicKey</title>
<path fill="none" stroke="black" d="M365.81,-216.05C353.18,-206.94 337.44,-195.58 323.76,-185.71"/>
<polygon fill="black" stroke="black" points="325.72,-182.8 315.56,-179.79 321.62,-188.48 325.72,-182.8"/>
</g>
<!-- RecoveryAddress -->
<g id="node9" class="node">
<title>RecoveryAddress</title>
<ellipse fill="none" stroke="black" cx="487.29" cy="-162" rx="73.39" ry="18"/>
<text text-anchor="middle" x="487.29" y="-158.3" font-family="Times,serif" font-size="14.00">RecoveryAddress</text>
</g>
<!-- AccountAdministrationScripts&#45;&gt;RecoveryAddress -->
<g id="edge15" class="edge">
<title>AccountAdministrationScripts&#45;&gt;RecoveryAddress</title>
<path fill="none" stroke="black" d="M413.02,-216.05C425.96,-206.81 442.15,-195.24 456.11,-185.27"/>
<polygon fill="black" stroke="black" points="458.36,-187.97 464.46,-179.31 454.29,-182.27 458.36,-187.97"/>
</g>
<!-- AccountCreationScripts -->
<g id="node4" class="node">
<title>AccountCreationScripts</title>
<ellipse fill="none" stroke="black" cx="768.29" cy="-162" rx="94.78" ry="18"/>
<text text-anchor="middle" x="768.29" y="-158.3" font-family="Times,serif" font-size="14.00">AccountCreationScripts</text>
</g>
<!-- AccountCreationScripts&#45;&gt;SlidingNonce -->
<g id="edge3" class="edge">
<title>AccountCreationScripts&#45;&gt;SlidingNonce</title>
<path fill="none" stroke="black" d="M783.09,-144.1C799.31,-125.82 826.37,-96.07 851.29,-72 861.91,-61.75 874.1,-50.98 884.78,-41.84"/>
<polygon fill="black" stroke="black" points="887.24,-44.34 892.6,-35.21 882.71,-39 887.24,-44.34"/>
</g>
<!-- AccountCreationScripts&#45;&gt;DiemAccount -->
<g id="edge10" class="edge">
<title>AccountCreationScripts&#45;&gt;DiemAccount</title>
<path fill="none" stroke="black" d="M722.49,-146.15C686.94,-134.64 637.77,-118.7 601.41,-106.92"/>
<polygon fill="black" stroke="black" points="602.11,-103.47 591.52,-103.71 599.95,-110.12 602.11,-103.47"/>
</g>
<!-- SystemAdministrationScripts -->
<g id="node5" class="node">
<title>SystemAdministrationScripts</title>
<ellipse fill="none" stroke="black" cx="984.29" cy="-90" rx="115.08" ry="18"/>
<text text-anchor="middle" x="984.29" y="-86.3" font-family="Times,serif" font-size="14.00">SystemAdministrationScripts</text>
</g>
<!-- SystemAdministrationScripts&#45;&gt;SlidingNonce -->
<g id="edge4" class="edge">
<title>SystemAdministrationScripts&#45;&gt;SlidingNonce</title>
<path fill="none" stroke="black" d="M966.86,-72.05C957.71,-63.16 946.35,-52.11 936.37,-42.41"/>
<polygon fill="black" stroke="black" points="938.68,-39.77 929.07,-35.31 933.8,-44.79 938.68,-39.77"/>
</g>
<!-- TreasuryComplianceScripts -->
<g id="node6" class="node">
<title>TreasuryComplianceScripts</title>
<ellipse fill="none" stroke="black" cx="990.29" cy="-162" rx="109.38" ry="18"/>
<text text-anchor="middle" x="990.29" y="-158.3" font-family="Times,serif" font-size="14.00">TreasuryComplianceScripts</text>
</g>
<!-- TreasuryComplianceScripts&#45;&gt;SlidingNonce -->
<g id="edge5" class="edge">
<title>TreasuryComplianceScripts&#45;&gt;SlidingNonce</title>
<path fill="none" stroke="black" d="M918.77,-148.24C896.25,-140.49 873.76,-128.03 860.29,-108 845.66,-86.24 864.82,-60.22 883.88,-41.96"/>
<polygon fill="black" stroke="black" points="886.35,-44.45 891.39,-35.12 881.64,-39.27 886.35,-44.45"/>
</g>
<!-- TreasuryComplianceScripts&#45;&gt;DiemAccount -->
<g id="edge13" class="edge">
<title>TreasuryComplianceScripts&#45;&gt;DiemAccount</title>
<path fill="none" stroke="black" d="M914.5,-148.89C829.56,-135.31 693.43,-113.56 614.48,-100.94"/>
<polygon fill="black" stroke="black" points="614.63,-97.42 604.2,-99.3 613.52,-104.33 614.63,-97.42"/>
</g>
<!-- ValidatorAdministrationScripts -->
<g id="node7" class="node">
<title>ValidatorAdministrationScripts</title>
<ellipse fill="none" stroke="black" cx="1276.29" cy="-90" rx="120.78" ry="18"/>
<text text-anchor="middle" x="1276.29" y="-86.3" font-family="Times,serif" font-size="14.00">ValidatorAdministrationScripts</text>
</g>
<!-- ValidatorAdministrationScripts&#45;&gt;SlidingNonce -->
<g id="edge6" class="edge">
<title>ValidatorAdministrationScripts&#45;&gt;SlidingNonce</title>
<path fill="none" stroke="black" d="M1205.25,-75.34C1136.81,-62.18 1034.51,-42.5 970.68,-30.23"/>
<polygon fill="black" stroke="black" points="971.26,-26.78 960.78,-28.32 969.94,-33.65 971.26,-26.78"/>
</g>
<!-- SharedEd25519PublicKey&#45;&gt;DiemAccount -->
<g id="edge7" class="edge">
<title>SharedEd25519PublicKey&#45;&gt;DiemAccount</title>
<path fill="none" stroke="black" d="M346.17,-146.5C390.97,-134.43 454.4,-117.36 499.03,-105.34"/>
<polygon fill="black" stroke="black" points="500.08,-108.68 508.82,-102.7 498.26,-101.92 500.08,-108.68"/>
</g>
<!-- RecoveryAddress&#45;&gt;DiemAccount -->
<g id="edge8" class="edge">
<title>RecoveryAddress&#45;&gt;DiemAccount</title>
<path fill="none" stroke="black" d="M503.03,-144.05C511.01,-135.46 520.86,-124.86 529.64,-115.4"/>
<polygon fill="black" stroke="black" points="532.46,-117.5 536.7,-107.79 527.34,-112.74 532.46,-117.5"/>
</g>
<!-- Genesis -->
<g id="node10" class="node">
<title>Genesis</title>
<ellipse fill="none" stroke="black" cx="617.29" cy="-162" rx="38.19" ry="18"/>
<text text-anchor="middle" x="617.29" y="-158.3" font-family="Times,serif" font-size="14.00">Genesis</text>
</g>
<!-- Genesis&#45;&gt;DiemAccount -->
<g id="edge11" class="edge">
<title>Genesis&#45;&gt;DiemAccount</title>
<path fill="none" stroke="black" d="M602.54,-145.12C594.39,-136.33 584.08,-125.23 574.92,-115.37"/>
<polygon fill="black" stroke="black" points="577.26,-112.74 567.89,-107.8 572.13,-117.51 577.26,-112.74"/>
</g>
<!-- PaymentScripts -->
<g id="node11" class="node">
<title>PaymentScripts</title>
<ellipse fill="none" stroke="black" cx="66.29" cy="-162" rx="66.09" ry="18"/>
<text text-anchor="middle" x="66.29" y="-158.3" font-family="Times,serif" font-size="14.00">PaymentScripts</text>
</g>
<!-- PaymentScripts&#45;&gt;DiemAccount -->
<g id="edge12" class="edge">
<title>PaymentScripts&#45;&gt;DiemAccount</title>
<path fill="none" stroke="black" d="M115.68,-149.86C125.78,-147.77 136.36,-145.7 146.29,-144 265.56,-123.58 405.72,-106.88 486.26,-97.99"/>
<polygon fill="black" stroke="black" points="486.7,-101.46 496.26,-96.89 485.94,-94.5 486.7,-101.46"/>
</g>
</g>
</svg>
