<?xml version="1.0" encoding="UTF-8" standalone="no"?>
<!DOCTYPE svg PUBLIC "-//W3C//DTD SVG 1.1//EN"
 "http://www.w3.org/Graphics/SVG/1.1/DTD/svg11.dtd">
<!-- Generated by graphviz version 2.46.1 (20210213.1702)
 -->
<!-- Title: G Pages: 1 -->
<svg width="701pt" height="476pt"
 viewBox="0.00 0.00 700.80 476.00" xmlns="http://www.w3.org/2000/svg" xmlns:xlink="http://www.w3.org/1999/xlink">
<g id="graph0" class="graph" transform="scale(1 1) rotate(0) translate(4 472)">
<title>G</title>
<polygon fill="white" stroke="transparent" points="-4,4 -4,-472 696.8,-472 696.8,4 -4,4"/>
<!-- SystemAdministrationScripts -->
<g id="node1" class="node">
<title>SystemAdministrationScripts</title>
<ellipse fill="none" stroke="black" cx="392.8" cy="-450" rx="115.08" ry="18"/>
<text text-anchor="middle" x="392.8" y="-446.3" font-family="Times,serif" font-size="14.00">SystemAdministrationScripts</text>
</g>
<!-- SlidingNonce -->
<g id="node2" class="node">
<title>SlidingNonce</title>
<ellipse fill="none" stroke="black" cx="287.8" cy="-90" rx="59.29" ry="18"/>
<text text-anchor="middle" x="287.8" y="-86.3" font-family="Times,serif" font-size="14.00">SlidingNonce</text>
</g>
<!-- SystemAdministrationScripts&#45;&gt;SlidingNonce -->
<g id="edge1" class="edge">
<title>SystemAdministrationScripts&#45;&gt;SlidingNonce</title>
<path fill="none" stroke="black" d="M374.79,-432.06C350.38,-407.17 309.8,-358.11 309.8,-307 309.8,-307 309.8,-307 309.8,-233 309.8,-192.74 301.05,-146.81 294.59,-118.36"/>
<polygon fill="black" stroke="black" points="297.94,-117.29 292.25,-108.35 291.12,-118.89 297.94,-117.29"/>
</g>
<!-- DiemVersion -->
<g id="node3" class="node">
<title>DiemVersion</title>
<ellipse fill="none" stroke="black" cx="491.8" cy="-378" rx="57.69" ry="18"/>
<text text-anchor="middle" x="491.8" y="-374.3" font-family="Times,serif" font-size="14.00">DiemVersion</text>
</g>
<!-- SystemAdministrationScripts&#45;&gt;DiemVersion -->
<g id="edge2" class="edge">
<title>SystemAdministrationScripts&#45;&gt;DiemVersion</title>
<path fill="none" stroke="black" d="M416.51,-432.23C429.87,-422.79 446.7,-410.88 461.07,-400.73"/>
<polygon fill="black" stroke="black" points="463.49,-403.3 469.63,-394.67 459.45,-397.59 463.49,-403.3"/>
</g>
<!-- Signer -->
<g id="node4" class="node">
<title>Signer</title>
<ellipse fill="none" stroke="black" cx="200.8" cy="-18" rx="33.6" ry="18"/>
<text text-anchor="middle" x="200.8" y="-14.3" font-family="Times,serif" font-size="14.00">Signer</text>
</g>
<!-- SlidingNonce&#45;&gt;Signer -->
<g id="edge3" class="edge">
<title>SlidingNonce&#45;&gt;Signer</title>
<path fill="none" stroke="black" d="M267.62,-72.76C255.51,-63.02 239.99,-50.53 226.95,-40.04"/>
<polygon fill="black" stroke="black" points="228.78,-37.02 218.8,-33.48 224.39,-42.48 228.78,-37.02"/>
</g>
<!-- Errors -->
<g id="node5" class="node">
<title>Errors</title>
<ellipse fill="none" stroke="black" cx="466.8" cy="-18" rx="32.49" ry="18"/>
<text text-anchor="middle" x="466.8" y="-14.3" font-family="Times,serif" font-size="14.00">Errors</text>
</g>
<!-- SlidingNonce&#45;&gt;Errors -->
<g id="edge4" class="edge">
<title>SlidingNonce&#45;&gt;Errors</title>
<path fill="none" stroke="black" d="M322.73,-75.34C354.04,-63.09 399.75,-45.22 431.24,-32.9"/>
<polygon fill="black" stroke="black" points="432.89,-36.02 440.93,-29.11 430.34,-29.5 432.89,-36.02"/>
</g>
<!-- DiemVersion&#45;&gt;Errors -->
<g id="edge5" class="edge">
<title>DiemVersion&#45;&gt;Errors</title>
<path fill="none" stroke="black" d="M536.66,-366.6C595.89,-349.89 692.8,-310.94 692.8,-235 692.8,-235 692.8,-235 692.8,-161 692.8,-74.57 572.82,-38.7 507.7,-25.6"/>
<polygon fill="black" stroke="black" points="508.23,-22.14 497.75,-23.69 506.91,-29.01 508.23,-22.14"/>
</g>
<!-- DiemTimestamp -->
<g id="node6" class="node">
<title>DiemTimestamp</title>
<ellipse fill="none" stroke="black" cx="593.8" cy="-162" rx="71.49" ry="18"/>
<text text-anchor="middle" x="593.8" y="-158.3" font-family="Times,serif" font-size="14.00">DiemTimestamp</text>
</g>
<!-- DiemVersion&#45;&gt;DiemTimestamp -->
<g id="edge6" class="edge">
<title>DiemVersion&#45;&gt;DiemTimestamp</title>
<path fill="none" stroke="black" d="M501.31,-359.84C514.42,-335.97 538.48,-291.23 556.8,-252 566.43,-231.37 576.27,-207.53 583.38,-189.72"/>
<polygon fill="black" stroke="black" points="586.7,-190.84 587.13,-180.25 580.2,-188.26 586.7,-190.84"/>
</g>
<!-- Roles -->
<g id="node7" class="node">
<title>Roles</title>
<ellipse fill="none" stroke="black" cx="486.8" cy="-234" rx="30.59" ry="18"/>
<text text-anchor="middle" x="486.8" y="-230.3" font-family="Times,serif" font-size="14.00">Roles</text>
</g>
<!-- DiemVersion&#45;&gt;Roles -->
<g id="edge7" class="edge">
<title>DiemVersion&#45;&gt;Roles</title>
<path fill="none" stroke="black" d="M491.19,-359.87C490.34,-335.67 488.78,-291.21 487.76,-262.39"/>
<polygon fill="black" stroke="black" points="491.25,-262.06 487.4,-252.19 484.26,-262.31 491.25,-262.06"/>
</g>
<!-- DiemConfig -->
<g id="node8" class="node">
<title>DiemConfig</title>
<ellipse fill="none" stroke="black" cx="408.8" cy="-306" rx="54.69" ry="18"/>
<text text-anchor="middle" x="408.8" y="-302.3" font-family="Times,serif" font-size="14.00">DiemConfig</text>
</g>
<!-- DiemVersion&#45;&gt;DiemConfig -->
<g id="edge8" class="edge">
<title>DiemVersion&#45;&gt;DiemConfig</title>
<path fill="none" stroke="black" d="M472.55,-360.76C461.57,-351.51 447.66,-339.77 435.62,-329.63"/>
<polygon fill="black" stroke="black" points="437.56,-326.68 427.66,-322.91 433.04,-332.03 437.56,-326.68"/>
</g>
<!-- DiemTimestamp&#45;&gt;Errors -->
<g id="edge9" class="edge">
<title>DiemTimestamp&#45;&gt;Errors</title>
<path fill="none" stroke="black" d="M593.91,-143.75C593.17,-124.33 589.25,-92.79 572.8,-72 556,-50.78 528.48,-37.37 505.69,-29.35"/>
<polygon fill="black" stroke="black" points="506.53,-25.94 495.94,-26.14 504.34,-32.59 506.53,-25.94"/>
</g>
<!-- CoreAddresses -->
<g id="node9" class="node">
<title>CoreAddresses</title>
<ellipse fill="none" stroke="black" cx="466.8" cy="-90" rx="63.89" ry="18"/>
<text text-anchor="middle" x="466.8" y="-86.3" font-family="Times,serif" font-size="14.00">CoreAddresses</text>
</g>
<!-- DiemTimestamp&#45;&gt;CoreAddresses -->
<g id="edge10" class="edge">
<title>DiemTimestamp&#45;&gt;CoreAddresses</title>
<path fill="none" stroke="black" d="M565.3,-145.29C547.11,-135.27 523.36,-122.18 503.74,-111.36"/>
<polygon fill="black" stroke="black" points="505.21,-108.18 494.77,-106.42 501.83,-114.31 505.21,-108.18"/>
</g>
<!-- Roles&#45;&gt;Signer -->
<g id="edge11" class="edge">
<title>Roles&#45;&gt;Signer</title>
<path fill="none" stroke="black" d="M457.84,-228.15C402.43,-217.27 281.43,-185.53 219.8,-108 206.01,-90.65 201.62,-65.6 200.48,-46.49"/>
<polygon fill="black" stroke="black" points="203.97,-46.18 200.14,-36.3 196.98,-46.41 203.97,-46.18"/>
</g>
<!-- Roles&#45;&gt;Errors -->
<g id="edge12" class="edge">
<title>Roles&#45;&gt;Errors</title>
<path fill="none" stroke="black" d="M490.2,-215.97C494.27,-197.58 502.04,-167.73 513.8,-144 522.56,-126.32 533.72,-126.78 539.8,-108 544.72,-92.78 547.06,-86.25 539.8,-72 531.55,-55.82 515.8,-43.43 501.04,-34.71"/>
<polygon fill="black" stroke="black" points="502.49,-31.51 492.05,-29.75 499.11,-37.64 502.49,-31.51"/>
</g>
<!-- Roles&#45;&gt;DiemTimestamp -->
<g id="edge14" class="edge">
<title>Roles&#45;&gt;DiemTimestamp</title>
<path fill="none" stroke="black" d="M506.42,-220.16C521.67,-210.19 543.14,-196.14 560.99,-184.46"/>
<polygon fill="black" stroke="black" points="562.96,-187.36 569.41,-178.95 559.13,-181.5 562.96,-187.36"/>
</g>
<!-- Roles&#45;&gt;CoreAddresses -->
<g id="edge13" class="edge">
<title>Roles&#45;&gt;CoreAddresses</title>
<path fill="none" stroke="black" d="M484.38,-215.87C480.98,-191.67 474.71,-147.21 470.66,-118.39"/>
<polygon fill="black" stroke="black" points="474.08,-117.6 469.22,-108.19 467.15,-118.58 474.08,-117.6"/>
</g>
<!-- DiemConfig&#45;&gt;Signer -->
<g id="edge15" class="edge">
<title>DiemConfig&#45;&gt;Signer</title>
<path fill="none" stroke="black" d="M380.95,-290.51C331.71,-262.95 231.55,-197.62 200.8,-108 193.95,-88.06 194.41,-64.09 196.32,-46.05"/>
<polygon fill="black" stroke="black" points="199.82,-46.3 197.61,-35.93 192.87,-45.41 199.82,-46.3"/>
</g>
<!-- DiemConfig&#45;&gt;Errors -->
<g id="edge16" class="edge">
<title>DiemConfig&#45;&gt;Errors</title>
<path fill="none" stroke="black" d="M402.11,-288.01C387.45,-247.85 356.61,-144.95 393.8,-72 402.04,-55.82 417.79,-43.43 432.56,-34.71"/>
<polygon fill="black" stroke="black" points="434.48,-37.64 441.55,-29.75 431.1,-31.51 434.48,-37.64"/>
</g>
<!-- DiemConfig&#45;&gt;DiemTimestamp -->
<g id="edge18" class="edge">
<title>DiemConfig&#45;&gt;DiemTimestamp</title>
<path fill="none" stroke="black" d="M447.36,-293.25C471.82,-284.52 503.19,-270.85 526.8,-252 548.72,-234.5 567.3,-208.26 579.3,-188.8"/>
<polygon fill="black" stroke="black" points="582.36,-190.51 584.49,-180.13 576.35,-186.92 582.36,-190.51"/>
</g>
<!-- DiemConfig&#45;&gt;Roles -->
<g id="edge19" class="edge">
<title>DiemConfig&#45;&gt;Roles</title>
<path fill="none" stroke="black" d="M426.89,-288.76C437.64,-279.12 451.4,-266.77 463.02,-256.34"/>
<polygon fill="black" stroke="black" points="465.55,-258.77 470.66,-249.48 460.88,-253.56 465.55,-258.77"/>
</g>
<!-- DiemConfig&#45;&gt;CoreAddresses -->
<g id="edge17" class="edge">
<title>DiemConfig&#45;&gt;CoreAddresses</title>
<path fill="none" stroke="black" d="M413.45,-287.85C423.5,-250.75 447.33,-162.81 459.45,-118.1"/>
<polygon fill="black" stroke="black" points="462.89,-118.8 462.13,-108.23 456.13,-116.97 462.89,-118.8"/>
</g>
<!-- Event -->
<g id="node10" class="node">
<title>Event</title>
<ellipse fill="none" stroke="black" cx="103.8" cy="-90" rx="31.4" ry="18"/>
<text text-anchor="middle" x="103.8" y="-86.3" font-family="Times,serif" font-size="14.00">Event</text>
</g>
<!-- DiemConfig&#45;&gt;Event -->
<g id="edge20" class="edge">
<title>DiemConfig&#45;&gt;Event</title>
<path fill="none" stroke="black" d="M356.33,-300.72C289.28,-294.19 178.34,-279.51 148.8,-252 111.45,-217.23 104.18,-154.28 103.28,-118.26"/>
<polygon fill="black" stroke="black" points="106.78,-117.97 103.19,-108.01 99.78,-118.04 106.78,-117.97"/>
</g>
<!-- CoreAddresses&#45;&gt;Signer -->
<g id="edge21" class="edge">
<title>CoreAddresses&#45;&gt;Signer</title>
<path fill="none" stroke="black" d="M421.97,-77.2C371.11,-63.82 288.92,-42.19 240.34,-29.41"/>
<polygon fill="black" stroke="black" points="241.07,-25.98 230.51,-26.82 239.29,-32.75 241.07,-25.98"/>
</g>
<!-- CoreAddresses&#45;&gt;Errors -->
<g id="edge22" class="edge">
<title>CoreAddresses&#45;&gt;Errors</title>
<path fill="none" stroke="black" d="M466.8,-71.7C466.8,-63.98 466.8,-54.71 466.8,-46.11"/>
<polygon fill="black" stroke="black" points="470.3,-46.1 466.8,-36.1 463.3,-46.1 470.3,-46.1"/>
</g>
<!-- Event&#45;&gt;Signer -->
<g id="edge23" class="edge">
<title>Event&#45;&gt;Signer</title>
<path fill="none" stroke="black" d="M122.5,-75.5C136.81,-65.18 156.76,-50.78 172.94,-39.1"/>
<polygon fill="black" stroke="black" points="175.43,-41.62 181.49,-32.93 171.33,-35.95 175.43,-41.62"/>
</g>
<!-- Event&#45;&gt;Errors -->
<g id="edge24" class="edge">
<title>Event&#45;&gt;Errors</title>
<path fill="none" stroke="black" d="M132.89,-83.39C197.48,-70.93 352.97,-40.95 426.7,-26.73"/>
<polygon fill="black" stroke="black" points="427.39,-30.16 436.55,-24.83 426.07,-23.29 427.39,-30.16"/>
</g>
<!-- Vector -->
<g id="node11" class="node">
<title>Vector</title>
<ellipse fill="none" stroke="black" cx="33.8" cy="-18" rx="33.6" ry="18"/>
<text text-anchor="middle" x="33.8" y="-14.3" font-family="Times,serif" font-size="14.00">Vector</text>
</g>
<!-- Event&#45;&gt;Vector -->
<g id="edge25" class="edge">
<title>Event&#45;&gt;Vector</title>
<path fill="none" stroke="black" d="M88.95,-74.15C79.52,-64.72 67.13,-52.33 56.48,-41.69"/>
<polygon fill="black" stroke="black" points="58.65,-38.9 49.1,-34.31 53.7,-43.85 58.65,-38.9"/>
</g>
<!-- BCS -->
<g id="node12" class="node">
<title>BCS</title>
<ellipse fill="none" stroke="black" cx="112.8" cy="-18" rx="27.1" ry="18"/>
<text text-anchor="middle" x="112.8" y="-14.3" font-family="Times,serif" font-size="14.00">BCS</text>
</g>
<!-- Event&#45;&gt;BCS -->
<g id="edge26" class="edge">
<title>Event&#45;&gt;BCS</title>
<path fill="none" stroke="black" d="M106.02,-71.7C107.01,-63.98 108.21,-54.71 109.31,-46.11"/>
<polygon fill="black" stroke="black" points="112.79,-46.47 110.6,-36.1 105.85,-45.58 112.79,-46.47"/>
</g>
</g>
</svg>
