<?xml version="1.0" encoding="UTF-8" standalone="no"?>
<!DOCTYPE svg PUBLIC "-//W3C//DTD SVG 1.1//EN"
 "http://www.w3.org/Graphics/SVG/1.1/DTD/svg11.dtd">
<!-- Generated by graphviz version 2.46.1 (20210213.1702)
 -->
<!-- Title: G Pages: 1 -->
<svg width="2133pt" height="603pt"
 viewBox="0.00 0.00 2133.49 603.00" xmlns="http://www.w3.org/2000/svg" xmlns:xlink="http://www.w3.org/1999/xlink">
<g id="graph0" class="graph" transform="scale(1 1) rotate(0) translate(4 599)">
<title>G</title>
<polygon fill="white" stroke="transparent" points="-4,4 -4,-599 2129.49,-599 2129.49,4 -4,4"/>
<g id="clust1" class="cluster">
<title>cluster_SlidingNonce</title>
<polygon fill="none" stroke="black" points="196,-163 196,-321 398,-321 398,-163 196,-163"/>
<text text-anchor="middle" x="297" y="-305.8" font-family="Times,serif" font-size="14.00">SlidingNonce</text>
</g>
<g id="clust2" class="cluster">
<title>cluster_DiemVersion</title>
<polygon fill="none" stroke="black" points="951,-476 951,-551 1040,-551 1040,-476 951,-476"/>
<text text-anchor="middle" x="995.5" y="-535.8" font-family="Times,serif" font-size="14.00">DiemVersion</text>
</g>
<g id="clust3" class="cluster">
<title>cluster_Errors</title>
<polygon fill="none" stroke="black" points="166,-8 166,-155 1061,-155 1061,-8 166,-8"/>
<text text-anchor="middle" x="613.5" y="-139.8" font-family="Times,serif" font-size="14.00">Errors</text>
</g>
<g id="clust4" class="cluster">
<title>cluster_DiemTimestamp</title>
<polygon fill="none" stroke="black" points="1825,-80 1825,-321 2111,-321 2111,-80 1825,-80"/>
<text text-anchor="middle" x="1968" y="-305.8" font-family="Times,serif" font-size="14.00">DiemTimestamp</text>
</g>
<g id="clust5" class="cluster">
<title>cluster_Roles</title>
<polygon fill="none" stroke="black" points="438,-246 438,-321 596,-321 596,-246 438,-246"/>
<text text-anchor="middle" x="517" y="-305.8" font-family="Times,serif" font-size="14.00">Roles</text>
</g>
<g id="clust6" class="cluster">
<title>cluster_DiemConfig</title>
<polygon fill="none" stroke="black" points="1501,-246 1501,-468 1709,-468 1709,-246 1501,-246"/>
<text text-anchor="middle" x="1605" y="-452.8" font-family="Times,serif" font-size="14.00">DiemConfig</text>
</g>
<g id="clust7" class="cluster">
<title>cluster_Signer</title>
<polygon fill="none" stroke="black" points="8,-8 8,-155 158,-155 158,-8 8,-8"/>
<text text-anchor="middle" x="83" y="-139.8" font-family="Times,serif" font-size="14.00">Signer</text>
</g>
<g id="clust8" class="cluster">
<title>cluster_CoreAddresses</title>
<polygon fill="none" stroke="black" points="1069,-80 1069,-238 1299,-238 1299,-80 1069,-80"/>
<text text-anchor="middle" x="1184" y="-222.8" font-family="Times,serif" font-size="14.00">CoreAddresses</text>
</g>
<g id="clust9" class="cluster">
<title>cluster_Event</title>
<polygon fill="none" stroke="black" points="1307,-163 1307,-321 1493,-321 1493,-163 1307,-163"/>
<text text-anchor="middle" x="1400" y="-305.8" font-family="Times,serif" font-size="14.00">Event</text>
</g>
<!-- update_diem_version -->
<g id="node1" class="node">
<title>update_diem_version</title>
<ellipse fill="none" stroke="black" cx="377" cy="-577" rx="87.18" ry="18"/>
<text text-anchor="middle" x="377" y="-573.3" font-family="Times,serif" font-size="14.00">update_diem_version</text>
</g>
<!-- SlidingNonce::record_nonce_or_abort -->
<g id="node2" class="node">
<title>SlidingNonce::record_nonce_or_abort</title>
<ellipse fill="none" stroke="black" cx="297" cy="-272" rx="92.88" ry="18"/>
<text text-anchor="middle" x="297" y="-268.3" font-family="Times,serif" font-size="14.00">record_nonce_or_abort</text>
</g>
<!-- update_diem_version&#45;&gt;SlidingNonce::record_nonce_or_abort -->
<g id="edge1" class="edge">
<title>update_diem_version&#45;&gt;SlidingNonce::record_nonce_or_abort</title>
<path fill="none" stroke="black" d="M372.47,-558.84C359.19,-508.54 320.28,-361.18 304.14,-300.05"/>
<polygon fill="black" stroke="black" points="307.52,-299.12 301.58,-290.35 300.75,-300.91 307.52,-299.12"/>
</g>
<!-- DiemVersion::set -->
<g id="node3" class="node">
<title>DiemVersion::set</title>
<ellipse fill="none" stroke="black" cx="996" cy="-502" rx="27" ry="18"/>
<text text-anchor="middle" x="996" y="-498.3" font-family="Times,serif" font-size="14.00">set</text>
</g>
<!-- update_diem_version&#45;&gt;DiemVersion::set -->
<g id="edge2" class="edge">
<title>update_diem_version&#45;&gt;DiemVersion::set</title>
<path fill="none" stroke="black" d="M450.74,-567.3C583.9,-551.6 859.86,-519.05 959.29,-507.33"/>
<polygon fill="black" stroke="black" points="959.92,-510.78 969.44,-506.13 959.1,-503.83 959.92,-510.78"/>
</g>
<!-- Errors::invalid_argument -->
<g id="node4" class="node">
<title>Errors::invalid_argument</title>
<ellipse fill="none" stroke="black" cx="247" cy="-106" rx="73.39" ry="18"/>
<text text-anchor="middle" x="247" y="-102.3" font-family="Times,serif" font-size="14.00">invalid_argument</text>
</g>
<!-- SlidingNonce::record_nonce_or_abort&#45;&gt;Errors::invalid_argument -->
<g id="edge3" class="edge">
<title>SlidingNonce::record_nonce_or_abort&#45;&gt;Errors::invalid_argument</title>
<path fill="none" stroke="black" d="M340.04,-256.03C347.6,-251.43 354.48,-245.53 359,-238 376.16,-209.42 379.19,-189.52 359,-163 350.9,-152.36 342.33,-160.17 330,-155 312.84,-147.81 294.83,-137.74 280,-128.69"/>
<polygon fill="black" stroke="black" points="281.55,-125.53 271.21,-123.21 277.85,-131.47 281.55,-125.53"/>
</g>
<!-- SlidingNonce::try_record_nonce -->
<g id="node5" class="node">
<title>SlidingNonce::try_record_nonce</title>
<ellipse fill="none" stroke="black" cx="277" cy="-189" rx="72.59" ry="18"/>
<text text-anchor="middle" x="277" y="-185.3" font-family="Times,serif" font-size="14.00">try_record_nonce</text>
</g>
<!-- SlidingNonce::record_nonce_or_abort&#45;&gt;SlidingNonce::try_record_nonce -->
<g id="edge4" class="edge">
<title>SlidingNonce::record_nonce_or_abort&#45;&gt;SlidingNonce::try_record_nonce</title>
<path fill="none" stroke="black" d="M292.76,-253.82C290.13,-243.19 286.71,-229.31 283.72,-217.2"/>
<polygon fill="black" stroke="black" points="287.03,-216.02 281.24,-207.15 280.23,-217.7 287.03,-216.02"/>
</g>
<!-- DiemVersion::set&#45;&gt;Errors::invalid_argument -->
<g id="edge5" class="edge">
<title>DiemVersion::set&#45;&gt;Errors::invalid_argument</title>
<path fill="none" stroke="black" d="M968.9,-499.76C854.62,-493.8 418,-463.48 418,-348 418,-348 418,-348 418,-271 418,-222.48 436.93,-196.68 402,-163 390.41,-151.83 345.29,-160.03 330,-155 311.62,-148.96 292.83,-138.52 277.78,-128.91"/>
<polygon fill="black" stroke="black" points="279.67,-125.96 269.39,-123.39 275.82,-131.81 279.67,-125.96"/>
</g>
<!-- DiemTimestamp::assert_operating -->
<g id="node6" class="node">
<title>DiemTimestamp::assert_operating</title>
<ellipse fill="none" stroke="black" cx="2018" cy="-189" rx="68.49" ry="18"/>
<text text-anchor="middle" x="2018" y="-185.3" font-family="Times,serif" font-size="14.00">assert_operating</text>
</g>
<!-- DiemVersion::set&#45;&gt;DiemTimestamp::assert_operating -->
<g id="edge6" class="edge">
<title>DiemVersion::set&#45;&gt;DiemTimestamp::assert_operating</title>
<path fill="none" stroke="black" d="M1023.02,-500.86C1136.8,-500.11 1577.27,-495.44 1713,-468 1898.24,-430.55 2003.91,-476.02 2112,-321 2131.07,-293.66 2128.47,-274.98 2112,-246 2102.42,-229.14 2085.53,-216.82 2068.68,-208.1"/>
<polygon fill="black" stroke="black" points="2069.91,-204.81 2059.38,-203.62 2066.87,-211.11 2069.91,-204.81"/>
</g>
<!-- Roles::assert_diem_root -->
<g id="node7" class="node">
<title>Roles::assert_diem_root</title>
<ellipse fill="none" stroke="black" cx="517" cy="-272" rx="71.49" ry="18"/>
<text text-anchor="middle" x="517" y="-268.3" font-family="Times,serif" font-size="14.00">assert_diem_root</text>
</g>
<!-- DiemVersion::set&#45;&gt;Roles::assert_diem_root -->
<g id="edge7" class="edge">
<title>DiemVersion::set&#45;&gt;Roles::assert_diem_root</title>
<path fill="none" stroke="black" d="M973.48,-491.64C922.49,-470.29 794.52,-415.94 690,-365 642.28,-341.74 588.45,-312.65 553.7,-293.48"/>
<polygon fill="black" stroke="black" points="555.3,-290.37 544.85,-288.59 551.91,-296.5 555.3,-290.37"/>
</g>
<!-- DiemConfig::set -->
<g id="node8" class="node">
<title>DiemConfig::set</title>
<ellipse fill="none" stroke="black" cx="1536" cy="-419" rx="27" ry="18"/>
<text text-anchor="middle" x="1536" y="-415.3" font-family="Times,serif" font-size="14.00">set</text>
</g>
<!-- DiemVersion::set&#45;&gt;DiemConfig::set -->
<g id="edge8" class="edge">
<title>DiemVersion::set&#45;&gt;DiemConfig::set</title>
<path fill="none" stroke="black" d="M1022.05,-497.09C1110.25,-483.86 1397.88,-440.72 1499.8,-425.43"/>
<polygon fill="black" stroke="black" points="1500.53,-428.86 1509.9,-423.91 1499.49,-421.94 1500.53,-428.86"/>
</g>
<!-- DiemConfig::get -->
<g id="node9" class="node">
<title>DiemConfig::get</title>
<ellipse fill="none" stroke="black" cx="1608" cy="-419" rx="27" ry="18"/>
<text text-anchor="middle" x="1608" y="-415.3" font-family="Times,serif" font-size="14.00">get</text>
</g>
<!-- DiemVersion::set&#45;&gt;DiemConfig::get -->
<g id="edge9" class="edge">
<title>DiemVersion::set&#45;&gt;DiemConfig::get</title>
<path fill="none" stroke="black" d="M1022.98,-500.78C1130.29,-499.73 1523.29,-494.13 1572,-468 1581.64,-462.83 1589.43,-453.83 1595.26,-445"/>
<polygon fill="black" stroke="black" points="1598.29,-446.76 1600.44,-436.39 1592.29,-443.16 1598.29,-446.76"/>
</g>
<!-- Errors::make -->
<g id="node10" class="node">
<title>Errors::make</title>
<ellipse fill="none" stroke="black" cx="610" cy="-34" rx="30.59" ry="18"/>
<text text-anchor="middle" x="610" y="-30.3" font-family="Times,serif" font-size="14.00">make</text>
</g>
<!-- Errors::invalid_argument&#45;&gt;Errors::make -->
<g id="edge10" class="edge">
<title>Errors::invalid_argument&#45;&gt;Errors::make</title>
<path fill="none" stroke="black" d="M288.93,-91.18C301.99,-87.2 316.51,-83.1 330,-80 414.75,-60.52 515.83,-46.5 570.37,-39.68"/>
<polygon fill="black" stroke="black" points="570.83,-43.15 580.32,-38.45 569.97,-36.2 570.83,-43.15"/>
</g>
<!-- Signer::address_of -->
<g id="node11" class="node">
<title>Signer::address_of</title>
<ellipse fill="none" stroke="black" cx="101" cy="-106" rx="48.99" ry="18"/>
<text text-anchor="middle" x="101" y="-102.3" font-family="Times,serif" font-size="14.00">address_of</text>
</g>
<!-- SlidingNonce::try_record_nonce&#45;&gt;Signer::address_of -->
<g id="edge11" class="edge">
<title>SlidingNonce::try_record_nonce&#45;&gt;Signer::address_of</title>
<path fill="none" stroke="black" d="M231.4,-174.88C218.06,-171.05 203.45,-166.85 190,-163 177.56,-159.44 173.52,-160.89 162,-155 148.9,-148.3 135.88,-138.59 125.25,-129.65"/>
<polygon fill="black" stroke="black" points="127.48,-126.94 117.63,-123.03 122.88,-132.23 127.48,-126.94"/>
</g>
<!-- Errors::not_published -->
<g id="node12" class="node">
<title>Errors::not_published</title>
<ellipse fill="none" stroke="black" cx="532" cy="-106" rx="60.39" ry="18"/>
<text text-anchor="middle" x="532" y="-102.3" font-family="Times,serif" font-size="14.00">not_published</text>
</g>
<!-- SlidingNonce::try_record_nonce&#45;&gt;Errors::not_published -->
<g id="edge12" class="edge">
<title>SlidingNonce::try_record_nonce&#45;&gt;Errors::not_published</title>
<path fill="none" stroke="black" d="M345.72,-182.74C381.43,-178.29 425.17,-170.09 462,-155 477.29,-148.74 492.61,-138.75 505.01,-129.51"/>
<polygon fill="black" stroke="black" points="507.3,-132.16 513.09,-123.28 503.03,-126.61 507.3,-132.16"/>
</g>
<!-- Errors::invalid_state -->
<g id="node13" class="node">
<title>Errors::invalid_state</title>
<ellipse fill="none" stroke="black" cx="840" cy="-106" rx="55.79" ry="18"/>
<text text-anchor="middle" x="840" y="-102.3" font-family="Times,serif" font-size="14.00">invalid_state</text>
</g>
<!-- DiemTimestamp::assert_operating&#45;&gt;Errors::invalid_state -->
<g id="edge13" class="edge">
<title>DiemTimestamp::assert_operating&#45;&gt;Errors::invalid_state</title>
<path fill="none" stroke="black" d="M1952.23,-184.12C1853.44,-178.45 1660.83,-168.03 1497,-163 1464.07,-161.99 935.19,-165.63 904,-155 888.98,-149.88 874.62,-139.77 863.32,-130.14"/>
<polygon fill="black" stroke="black" points="865.45,-127.35 855.67,-123.29 860.78,-132.57 865.45,-127.35"/>
</g>
<!-- DiemTimestamp::is_operating -->
<g id="node14" class="node">
<title>DiemTimestamp::is_operating</title>
<ellipse fill="none" stroke="black" cx="1952" cy="-106" rx="53.89" ry="18"/>
<text text-anchor="middle" x="1952" y="-102.3" font-family="Times,serif" font-size="14.00">is_operating</text>
</g>
<!-- DiemTimestamp::assert_operating&#45;&gt;DiemTimestamp::is_operating -->
<g id="edge14" class="edge">
<title>DiemTimestamp::assert_operating&#45;&gt;DiemTimestamp::is_operating</title>
<path fill="none" stroke="black" d="M2004.32,-171.22C1994.97,-159.74 1982.42,-144.33 1971.95,-131.49"/>
<polygon fill="black" stroke="black" points="1974.46,-129.03 1965.43,-123.48 1969.04,-133.45 1974.46,-129.03"/>
</g>
<!-- Roles::assert_diem_root&#45;&gt;Signer::address_of -->
<g id="edge15" class="edge">
<title>Roles::assert_diem_root&#45;&gt;Signer::address_of</title>
<path fill="none" stroke="black" d="M491.83,-254.86C484.53,-249.78 476.73,-243.94 470,-238 436.27,-208.22 442.83,-181.91 402,-163 377.79,-151.78 187.06,-164.15 162,-155 147.68,-149.77 134.1,-139.79 123.4,-130.27"/>
<polygon fill="black" stroke="black" points="125.51,-127.45 115.82,-123.17 120.73,-132.56 125.51,-127.45"/>
</g>
<!-- Roles::assert_diem_root&#45;&gt;Errors::not_published -->
<g id="edge16" class="edge">
<title>Roles::assert_diem_root&#45;&gt;Errors::not_published</title>
<path fill="none" stroke="black" d="M518.58,-253.76C521.18,-225.26 526.41,-168.12 529.52,-134.16"/>
<polygon fill="black" stroke="black" points="533.02,-134.29 530.44,-124.01 526.05,-133.65 533.02,-134.29"/>
</g>
<!-- Errors::requires_role -->
<g id="node15" class="node">
<title>Errors::requires_role</title>
<ellipse fill="none" stroke="black" cx="396" cy="-106" rx="57.39" ry="18"/>
<text text-anchor="middle" x="396" y="-102.3" font-family="Times,serif" font-size="14.00">requires_role</text>
</g>
<!-- Roles::assert_diem_root&#45;&gt;Errors::requires_role -->
<g id="edge17" class="edge">
<title>Roles::assert_diem_root&#45;&gt;Errors::requires_role</title>
<path fill="none" stroke="black" d="M512.51,-253.85C505.97,-231.26 492.13,-191.12 470,-163 463.59,-154.86 444.95,-140.77 427.99,-128.76"/>
<polygon fill="black" stroke="black" points="429.54,-125.57 419.34,-122.71 425.53,-131.31 429.54,-125.57"/>
</g>
<!-- CoreAddresses::assert_diem_root -->
<g id="node16" class="node">
<title>CoreAddresses::assert_diem_root</title>
<ellipse fill="none" stroke="black" cx="1148" cy="-189" rx="71.49" ry="18"/>
<text text-anchor="middle" x="1148" y="-185.3" font-family="Times,serif" font-size="14.00">assert_diem_root</text>
</g>
<!-- Roles::assert_diem_root&#45;&gt;CoreAddresses::assert_diem_root -->
<g id="edge18" class="edge">
<title>Roles::assert_diem_root&#45;&gt;CoreAddresses::assert_diem_root</title>
<path fill="none" stroke="black" d="M579.23,-263.01C696.72,-247.93 950.6,-215.34 1075.54,-199.3"/>
<polygon fill="black" stroke="black" points="1076.3,-202.73 1085.77,-197.99 1075.41,-195.79 1076.3,-202.73"/>
</g>
<!-- DiemConfig::set&#45;&gt;Signer::address_of -->
<g id="edge19" class="edge">
<title>DiemConfig::set&#45;&gt;Signer::address_of</title>
<path fill="none" stroke="black" d="M1508.96,-417.73C1328.52,-415.7 302.79,-400.72 192,-321 130.13,-276.48 110.02,-181.24 103.73,-134.3"/>
<polygon fill="black" stroke="black" points="107.19,-133.75 102.5,-124.25 100.24,-134.61 107.19,-133.75"/>
</g>
<!-- DiemConfig::set&#45;&gt;Errors::not_published -->
<g id="edge20" class="edge">
<title>DiemConfig::set&#45;&gt;Errors::not_published</title>
<path fill="none" stroke="black" d="M1508.71,-418.12C1393.85,-418.28 949.74,-415.58 821,-365 696.22,-315.97 590.54,-186.87 549.87,-132.12"/>
<polygon fill="black" stroke="black" points="552.64,-129.99 543.91,-123.99 547,-134.13 552.64,-129.99"/>
</g>
<!-- Errors::requires_capability -->
<g id="node17" class="node">
<title>Errors::requires_capability</title>
<ellipse fill="none" stroke="black" cx="688" cy="-106" rx="77.99" ry="18"/>
<text text-anchor="middle" x="688" y="-102.3" font-family="Times,serif" font-size="14.00">requires_capability</text>
</g>
<!-- DiemConfig::set&#45;&gt;Errors::requires_capability -->
<g id="edge21" class="edge">
<title>DiemConfig::set&#45;&gt;Errors::requires_capability</title>
<path fill="none" stroke="black" d="M1508.97,-417.31C1389.36,-414.07 911.04,-399.06 854,-365 830.67,-351.07 739.09,-195.47 702.86,-132.86"/>
<polygon fill="black" stroke="black" points="705.77,-130.9 697.74,-123.99 699.71,-134.4 705.77,-130.9"/>
</g>
<!-- CoreAddresses::DIEM_ROOT_ADDRESS -->
<g id="node18" class="node">
<title>CoreAddresses::DIEM_ROOT_ADDRESS</title>
<ellipse fill="none" stroke="black" cx="1184" cy="-106" rx="106.68" ry="18"/>
<text text-anchor="middle" x="1184" y="-102.3" font-family="Times,serif" font-size="14.00">DIEM_ROOT_ADDRESS</text>
</g>
<!-- DiemConfig::set&#45;&gt;CoreAddresses::DIEM_ROOT_ADDRESS -->
<g id="edge22" class="edge">
<title>DiemConfig::set&#45;&gt;CoreAddresses::DIEM_ROOT_ADDRESS</title>
<path fill="none" stroke="black" d="M1557.18,-407.63C1562.02,-405.36 1567.16,-403.04 1572,-401 1644.92,-370.32 1694.69,-391.28 1731,-321 1746.3,-291.38 1744.29,-276.57 1731,-246 1709.43,-196.4 1691.03,-185.85 1642,-163 1582.27,-135.16 1410.13,-119.98 1294.74,-112.68"/>
<polygon fill="black" stroke="black" points="1294.65,-109.16 1284.46,-112.04 1294.22,-116.15 1294.65,-109.16"/>
</g>
<!-- DiemConfig::reconfigure_ -->
<g id="node19" class="node">
<title>DiemConfig::reconfigure_</title>
<ellipse fill="none" stroke="black" cx="1605" cy="-347" rx="55.49" ry="18"/>
<text text-anchor="middle" x="1605" y="-343.3" font-family="Times,serif" font-size="14.00">reconfigure_</text>
</g>
<!-- DiemConfig::set&#45;&gt;DiemConfig::reconfigure_ -->
<g id="edge23" class="edge">
<title>DiemConfig::set&#45;&gt;DiemConfig::reconfigure_</title>
<path fill="none" stroke="black" d="M1550.3,-403.5C1559.32,-394.34 1571.18,-382.31 1581.56,-371.78"/>
<polygon fill="black" stroke="black" points="1584.26,-374.03 1588.79,-364.45 1579.27,-369.11 1584.26,-374.03"/>
</g>
<!-- DiemConfig::get&#45;&gt;Errors::not_published -->
<g id="edge24" class="edge">
<title>DiemConfig::get&#45;&gt;Errors::not_published</title>
<path fill="none" stroke="black" d="M1587.46,-407.09C1582.5,-404.8 1577.15,-402.6 1572,-401 1360.86,-335.38 1295.38,-375.11 1081,-321 1053.64,-314.09 626.15,-167.79 601,-155 586.87,-147.82 572.31,-138.08 560.22,-129.26"/>
<polygon fill="black" stroke="black" points="562.01,-126.23 551.9,-123.05 557.82,-131.84 562.01,-126.23"/>
</g>
<!-- DiemConfig::get&#45;&gt;CoreAddresses::DIEM_ROOT_ADDRESS -->
<g id="edge25" class="edge">
<title>DiemConfig::get&#45;&gt;CoreAddresses::DIEM_ROOT_ADDRESS</title>
<path fill="none" stroke="black" d="M1632.82,-411.23C1657.87,-403.4 1696.53,-388.5 1723,-365 1740.16,-349.77 1743.77,-343.08 1750,-321 1770.09,-249.85 1760.64,-202.26 1698,-163 1633.88,-122.81 1431.25,-111.27 1300.39,-108.07"/>
<polygon fill="black" stroke="black" points="1300.39,-104.57 1290.31,-107.84 1300.22,-111.57 1300.39,-104.57"/>
</g>
<!-- Signer::borrow_address -->
<g id="node20" class="node">
<title>Signer::borrow_address</title>
<ellipse fill="none" stroke="black" cx="83" cy="-34" rx="66.89" ry="18"/>
<text text-anchor="middle" x="83" y="-30.3" font-family="Times,serif" font-size="14.00">borrow_address</text>
</g>
<!-- Signer::address_of&#45;&gt;Signer::borrow_address -->
<g id="edge26" class="edge">
<title>Signer::address_of&#45;&gt;Signer::borrow_address</title>
<path fill="none" stroke="black" d="M96.64,-88.05C94.64,-80.26 92.21,-70.82 89.96,-62.08"/>
<polygon fill="black" stroke="black" points="93.32,-61.09 87.44,-52.28 86.54,-62.83 93.32,-61.09"/>
</g>
<!-- Errors::not_published&#45;&gt;Errors::make -->
<g id="edge27" class="edge">
<title>Errors::not_published&#45;&gt;Errors::make</title>
<path fill="none" stroke="black" d="M550.09,-88.76C560.84,-79.12 574.6,-66.77 586.22,-56.34"/>
<polygon fill="black" stroke="black" points="588.76,-58.77 593.86,-49.48 584.08,-53.56 588.76,-58.77"/>
</g>
<!-- Errors::invalid_state&#45;&gt;Errors::make -->
<g id="edge28" class="edge">
<title>Errors::invalid_state&#45;&gt;Errors::make</title>
<path fill="none" stroke="black" d="M806.83,-91.5C796.69,-87.58 785.46,-83.43 775,-80 731.79,-65.84 681.22,-52.51 647.57,-44.1"/>
<polygon fill="black" stroke="black" points="648.24,-40.66 637.7,-41.64 646.56,-47.45 648.24,-40.66"/>
</g>
<!-- DiemTimestamp::is_operating&#45;&gt;CoreAddresses::DIEM_ROOT_ADDRESS -->
<g id="edge29" class="edge">
<title>DiemTimestamp::is_operating&#45;&gt;CoreAddresses::DIEM_ROOT_ADDRESS</title>
<path fill="none" stroke="black" d="M1897.77,-106C1698.83,-106 1499.89,-106 1300.95,-106"/>
<polygon fill="black" stroke="black" points="1300.88,-102.5 1290.88,-106 1300.87,-109.5 1300.88,-102.5"/>
</g>
<!-- Errors::requires_role&#45;&gt;Errors::make -->
<g id="edge30" class="edge">
<title>Errors::requires_role&#45;&gt;Errors::make</title>
<path fill="none" stroke="black" d="M430.63,-91.63C441,-87.75 452.42,-83.59 463,-80 500.19,-67.38 543.2,-54.4 573.04,-45.64"/>
<polygon fill="black" stroke="black" points="574.4,-48.89 583.02,-42.73 572.44,-42.17 574.4,-48.89"/>
</g>
<!-- CoreAddresses::assert_diem_root&#45;&gt;Signer::address_of -->
<g id="edge31" class="edge">
<title>CoreAddresses::assert_diem_root&#45;&gt;Signer::address_of</title>
<path fill="none" stroke="black" d="M1077.73,-185.16C954.63,-180.23 691.92,-169.97 470,-163 452.89,-162.46 178.1,-160.81 162,-155 147.66,-149.82 134.08,-139.85 123.38,-130.32"/>
<polygon fill="black" stroke="black" points="125.5,-127.5 115.81,-123.21 120.71,-132.61 125.5,-127.5"/>
</g>
<!-- CoreAddresses::assert_diem_root&#45;&gt;CoreAddresses::DIEM_ROOT_ADDRESS -->
<g id="edge33" class="edge">
<title>CoreAddresses::assert_diem_root&#45;&gt;CoreAddresses::DIEM_ROOT_ADDRESS</title>
<path fill="none" stroke="black" d="M1155.63,-170.82C1160.46,-159.98 1166.78,-145.74 1172.23,-133.47"/>
<polygon fill="black" stroke="black" points="1175.51,-134.71 1176.38,-124.15 1169.12,-131.87 1175.51,-134.71"/>
</g>
<!-- Errors::requires_address -->
<g id="node21" class="node">
<title>Errors::requires_address</title>
<ellipse fill="none" stroke="black" cx="983" cy="-106" rx="69.59" ry="18"/>
<text text-anchor="middle" x="983" y="-102.3" font-family="Times,serif" font-size="14.00">requires_address</text>
</g>
<!-- CoreAddresses::assert_diem_root&#45;&gt;Errors::requires_address -->
<g id="edge32" class="edge">
<title>CoreAddresses::assert_diem_root&#45;&gt;Errors::requires_address</title>
<path fill="none" stroke="black" d="M1108.62,-173.75C1094.65,-168.32 1078.94,-161.8 1065,-155 1048.67,-147.03 1031.22,-137.04 1016.62,-128.23"/>
<polygon fill="black" stroke="black" points="1018.3,-125.15 1007.94,-122.93 1014.65,-131.13 1018.3,-125.15"/>
</g>
<!-- Errors::requires_capability&#45;&gt;Errors::make -->
<g id="edge34" class="edge">
<title>Errors::requires_capability&#45;&gt;Errors::make</title>
<path fill="none" stroke="black" d="M669.52,-88.41C658.83,-78.82 645.27,-66.65 633.79,-56.35"/>
<polygon fill="black" stroke="black" points="636.02,-53.64 626.24,-49.57 631.34,-58.85 636.02,-53.64"/>
</g>
<!-- DiemConfig::reconfigure_&#45;&gt;Errors::invalid_state -->
<g id="edge35" class="edge">
<title>DiemConfig::reconfigure_&#45;&gt;Errors::invalid_state</title>
<path fill="none" stroke="black" d="M1549.84,-345.6C1488.83,-344.19 1387.92,-339.02 1303,-321 1193.41,-297.75 1167.93,-282.22 1065,-238 991.03,-206.22 972.22,-197.75 904,-155 891.62,-147.24 878.61,-137.76 867.57,-129.27"/>
<polygon fill="black" stroke="black" points="869.6,-126.41 859.57,-123.02 865.3,-131.93 869.6,-126.41"/>
</g>
<!-- DiemConfig::reconfigure_&#45;&gt;CoreAddresses::DIEM_ROOT_ADDRESS -->
<g id="edge36" class="edge">
<title>DiemConfig::reconfigure_&#45;&gt;CoreAddresses::DIEM_ROOT_ADDRESS</title>
<path fill="none" stroke="black" d="M1655.94,-339.9C1679.13,-335.97 1702.97,-329.9 1710,-321 1730.66,-294.84 1727.24,-274.53 1710,-246 1668.98,-178.11 1627.36,-187.75 1552,-163 1467.27,-135.17 1366.94,-121.07 1292.46,-113.99"/>
<polygon fill="black" stroke="black" points="1292.41,-110.47 1282.13,-113.03 1291.76,-117.44 1292.41,-110.47"/>
</g>
<!-- DiemTimestamp::is_genesis -->
<g id="node22" class="node">
<title>DiemTimestamp::is_genesis</title>
<ellipse fill="none" stroke="black" cx="1880" cy="-272" rx="46.59" ry="18"/>
<text text-anchor="middle" x="1880" y="-268.3" font-family="Times,serif" font-size="14.00">is_genesis</text>
</g>
<!-- DiemConfig::reconfigure_&#45;&gt;DiemTimestamp::is_genesis -->
<g id="edge37" class="edge">
<title>DiemConfig::reconfigure_&#45;&gt;DiemTimestamp::is_genesis</title>
<path fill="none" stroke="black" d="M1654.59,-338.96C1681.06,-334.71 1714.04,-328.64 1743,-321 1775.99,-312.29 1812.4,-299.37 1839.39,-289.13"/>
<polygon fill="black" stroke="black" points="1840.79,-292.34 1848.88,-285.49 1838.29,-285.8 1840.79,-292.34"/>
</g>
<!-- DiemTimestamp::now_microseconds -->
<g id="node23" class="node">
<title>DiemTimestamp::now_microseconds</title>
<ellipse fill="none" stroke="black" cx="2024" cy="-272" rx="79.09" ry="18"/>
<text text-anchor="middle" x="2024" y="-268.3" font-family="Times,serif" font-size="14.00">now_microseconds</text>
</g>
<!-- DiemConfig::reconfigure_&#45;&gt;DiemTimestamp::now_microseconds -->
<g id="edge38" class="edge">
<title>DiemConfig::reconfigure_&#45;&gt;DiemTimestamp::now_microseconds</title>
<path fill="none" stroke="black" d="M1660.04,-344.65C1740.43,-342.19 1885.85,-335.82 1936,-321 1955.71,-315.17 1975.97,-304.5 1992.07,-294.7"/>
<polygon fill="black" stroke="black" points="1993.95,-297.66 2000.56,-289.38 1990.23,-291.73 1993.95,-297.66"/>
</g>
<!-- Event::emit_event -->
<g id="node24" class="node">
<title>Event::emit_event</title>
<ellipse fill="none" stroke="black" cx="1417" cy="-272" rx="50.09" ry="18"/>
<text text-anchor="middle" x="1417" y="-268.3" font-family="Times,serif" font-size="14.00">emit_event</text>
</g>
<!-- DiemConfig::reconfigure_&#45;&gt;Event::emit_event -->
<g id="edge39" class="edge">
<title>DiemConfig::reconfigure_&#45;&gt;Event::emit_event</title>
<path fill="none" stroke="black" d="M1556.7,-338.18C1537.68,-334.24 1515.92,-328.64 1497,-321 1479.59,-313.97 1461.54,-303.46 1447,-294.07"/>
<polygon fill="black" stroke="black" points="1448.71,-291 1438.44,-288.4 1444.85,-296.84 1448.71,-291"/>
</g>
<!-- DiemConfig::reconfiguration_enabled -->
<g id="node25" class="node">
<title>DiemConfig::reconfiguration_enabled</title>
<ellipse fill="none" stroke="black" cx="1605" cy="-272" rx="96.38" ry="18"/>
<text text-anchor="middle" x="1605" y="-268.3" font-family="Times,serif" font-size="14.00">reconfiguration_enabled</text>
</g>
<!-- DiemConfig::reconfigure_&#45;&gt;DiemConfig::reconfiguration_enabled -->
<g id="edge40" class="edge">
<title>DiemConfig::reconfigure_&#45;&gt;DiemConfig::reconfiguration_enabled</title>
<path fill="none" stroke="black" d="M1605,-328.7C1605,-320.25 1605,-309.87 1605,-300.37"/>
<polygon fill="black" stroke="black" points="1608.5,-300.18 1605,-290.18 1601.5,-300.18 1608.5,-300.18"/>
</g>
<!-- Errors::requires_address&#45;&gt;Errors::make -->
<g id="edge41" class="edge">
<title>Errors::requires_address&#45;&gt;Errors::make</title>
<path fill="none" stroke="black" d="M943.66,-91.05C931.39,-87.06 917.74,-82.99 905,-80 815.03,-58.86 707.19,-45.33 650.09,-39.07"/>
<polygon fill="black" stroke="black" points="650.35,-35.58 640.03,-37.99 649.6,-42.54 650.35,-35.58"/>
</g>
<!-- DiemTimestamp::is_genesis&#45;&gt;CoreAddresses::DIEM_ROOT_ADDRESS -->
<g id="edge42" class="edge">
<title>DiemTimestamp::is_genesis&#45;&gt;CoreAddresses::DIEM_ROOT_ADDRESS</title>
<path fill="none" stroke="black" d="M1875.8,-254.06C1868.69,-229.36 1851.77,-184.11 1819,-163 1776.24,-135.45 1467.43,-118.59 1296.73,-111.27"/>
<polygon fill="black" stroke="black" points="1296.84,-107.78 1286.7,-110.85 1296.54,-114.77 1296.84,-107.78"/>
</g>
<!-- DiemTimestamp::now_microseconds&#45;&gt;DiemTimestamp::assert_operating -->
<g id="edge44" class="edge">
<title>DiemTimestamp::now_microseconds&#45;&gt;DiemTimestamp::assert_operating</title>
<path fill="none" stroke="black" d="M2022.73,-253.82C2021.94,-243.19 2020.91,-229.31 2020.02,-217.2"/>
<polygon fill="black" stroke="black" points="2023.5,-216.87 2019.27,-207.15 2016.52,-217.38 2023.5,-216.87"/>
</g>
<!-- DiemTimestamp::now_microseconds&#45;&gt;CoreAddresses::DIEM_ROOT_ADDRESS -->
<g id="edge43" class="edge">
<title>DiemTimestamp::now_microseconds&#45;&gt;CoreAddresses::DIEM_ROOT_ADDRESS</title>
<path fill="none" stroke="black" d="M1979.94,-256.84C1966.93,-251.78 1952.98,-245.46 1941,-238 1898.79,-211.73 1903.62,-182.77 1858,-163 1832.47,-151.94 1475.27,-126.56 1291.53,-114.13"/>
<polygon fill="black" stroke="black" points="1291.51,-110.62 1281.29,-113.44 1291.03,-117.6 1291.51,-110.62"/>
</g>
<!-- Event::write_to_event_store -->
<g id="node26" class="node">
<title>Event::write_to_event_store</title>
<ellipse fill="none" stroke="black" cx="1400" cy="-189" rx="85.29" ry="18"/>
<text text-anchor="middle" x="1400" y="-185.3" font-family="Times,serif" font-size="14.00">write_to_event_store</text>
</g>
<!-- Event::emit_event&#45;&gt;Event::write_to_event_store -->
<g id="edge45" class="edge">
<title>Event::emit_event&#45;&gt;Event::write_to_event_store</title>
<path fill="none" stroke="black" d="M1413.39,-253.82C1411.16,-243.19 1408.25,-229.31 1405.71,-217.2"/>
<polygon fill="black" stroke="black" points="1409.08,-216.22 1403.6,-207.15 1402.23,-217.66 1409.08,-216.22"/>
</g>
<!-- DiemConfig::reconfiguration_enabled&#45;&gt;CoreAddresses::DIEM_ROOT_ADDRESS -->
<g id="edge46" class="edge">
<title>DiemConfig::reconfiguration_enabled&#45;&gt;CoreAddresses::DIEM_ROOT_ADDRESS</title>
<path fill="none" stroke="black" d="M1593.28,-253.94C1575.51,-229.51 1539.31,-185.09 1497,-163 1435.93,-131.11 1360.01,-117.01 1298.24,-110.92"/>
<polygon fill="black" stroke="black" points="1298.34,-107.42 1288.06,-109.98 1297.7,-114.39 1298.34,-107.42"/>
</g>
</g>
</svg>
