<?xml version="1.0" encoding="UTF-8" standalone="no"?>
<!DOCTYPE svg PUBLIC "-//W3C//DTD SVG 1.1//EN"
 "http://www.w3.org/Graphics/SVG/1.1/DTD/svg11.dtd">
<!-- Generated by graphviz version 2.46.1 (20210213.1702)
 -->
<!-- Title: G Pages: 1 -->
<svg width="1020pt" height="301pt"
 viewBox="0.00 0.00 1020.00 301.00" xmlns="http://www.w3.org/2000/svg" xmlns:xlink="http://www.w3.org/1999/xlink">
<g id="graph0" class="graph" transform="scale(1 1) rotate(0) translate(4 297)">
<title>G</title>
<polygon fill="white" stroke="transparent" points="-4,4 -4,-297 1016,-297 1016,4 -4,4"/>
<g id="clust1" class="cluster">
<title>cluster_Errors</title>
<polygon fill="none" stroke="black" points="8,-8 8,-166 422,-166 422,-8 8,-8"/>
<text text-anchor="middle" x="215" y="-150.8" font-family="Times,serif" font-size="14.00">Errors</text>
</g>
<g id="clust2" class="cluster">
<title>cluster_CoreAddresses</title>
<polygon fill="none" stroke="black" points="430,-8 430,-83 1004,-83 1004,-8 430,-8"/>
<text text-anchor="middle" x="717" y="-67.8" font-family="Times,serif" font-size="14.00">CoreAddresses</text>
</g>
<g id="clust3" class="cluster">
<title>cluster_DiemTimestamp</title>
<polygon fill="none" stroke="black" points="449,-91 449,-249 601,-249 601,-91 449,-91"/>
<text text-anchor="middle" x="525" y="-233.8" font-family="Times,serif" font-size="14.00">DiemTimestamp</text>
</g>
<g id="clust4" class="cluster">
<title>cluster_Diem</title>
<polygon fill="none" stroke="black" points="264,-174 264,-249 352,-249 352,-174 264,-174"/>
<text text-anchor="middle" x="308" y="-233.8" font-family="Times,serif" font-size="14.00">Diem</text>
</g>
<!-- pay_fee -->
<g id="node1" class="node">
<title>pay_fee</title>
<ellipse fill="none" stroke="black" cx="525" cy="-275" rx="38.19" ry="18"/>
<text text-anchor="middle" x="525" y="-271.3" font-family="Times,serif" font-size="14.00">pay_fee</text>
</g>
<!-- Errors::not_published -->
<g id="node2" class="node">
<title>Errors::not_published</title>
<ellipse fill="none" stroke="black" cx="76" cy="-117" rx="60.39" ry="18"/>
<text text-anchor="middle" x="76" y="-113.3" font-family="Times,serif" font-size="14.00">not_published</text>
</g>
<!-- pay_fee&#45;&gt;Errors::not_published -->
<g id="edge1" class="edge">
<title>pay_fee&#45;&gt;Errors::not_published</title>
<path fill="none" stroke="black" d="M486.7,-272.83C423.56,-270.48 300.55,-264.09 260,-249 195.36,-224.94 132.68,-172.09 99.78,-141.38"/>
<polygon fill="black" stroke="black" points="102.13,-138.78 92.46,-134.45 97.32,-143.87 102.13,-138.78"/>
</g>
<!-- CoreAddresses::TREASURY_COMPLIANCE_ADDRESS -->
<g id="node3" class="node">
<title>CoreAddresses::TREASURY_COMPLIANCE_ADDRESS</title>
<ellipse fill="none" stroke="black" cx="833" cy="-34" rx="163.27" ry="18"/>
<text text-anchor="middle" x="833" y="-30.3" font-family="Times,serif" font-size="14.00">TREASURY_COMPLIANCE_ADDRESS</text>
</g>
<!-- pay_fee&#45;&gt;CoreAddresses::TREASURY_COMPLIANCE_ADDRESS -->
<g id="edge2" class="edge">
<title>pay_fee&#45;&gt;CoreAddresses::TREASURY_COMPLIANCE_ADDRESS</title>
<path fill="none" stroke="black" d="M559.5,-266.86C574.16,-262.92 591.05,-257.14 605,-249 693.98,-197.07 776.33,-104.54 812.98,-60.13"/>
<polygon fill="black" stroke="black" points="815.87,-62.13 819.49,-52.17 810.45,-57.7 815.87,-62.13"/>
</g>
<!-- DiemTimestamp::assert_operating -->
<g id="node4" class="node">
<title>DiemTimestamp::assert_operating</title>
<ellipse fill="none" stroke="black" cx="525" cy="-200" rx="68.49" ry="18"/>
<text text-anchor="middle" x="525" y="-196.3" font-family="Times,serif" font-size="14.00">assert_operating</text>
</g>
<!-- pay_fee&#45;&gt;DiemTimestamp::assert_operating -->
<g id="edge3" class="edge">
<title>pay_fee&#45;&gt;DiemTimestamp::assert_operating</title>
<path fill="none" stroke="black" d="M525,-256.7C525,-248.25 525,-237.87 525,-228.37"/>
<polygon fill="black" stroke="black" points="528.5,-228.18 525,-218.18 521.5,-228.18 528.5,-228.18"/>
</g>
<!-- Diem::deposit -->
<g id="node5" class="node">
<title>Diem::deposit</title>
<ellipse fill="none" stroke="black" cx="308" cy="-200" rx="36.29" ry="18"/>
<text text-anchor="middle" x="308" y="-196.3" font-family="Times,serif" font-size="14.00">deposit</text>
</g>
<!-- pay_fee&#45;&gt;Diem::deposit -->
<g id="edge4" class="edge">
<title>pay_fee&#45;&gt;Diem::deposit</title>
<path fill="none" stroke="black" d="M493.77,-264.51C478.95,-259.94 461.02,-254.31 445,-249 411.44,-237.88 373.53,-224.54 346.1,-214.74"/>
<polygon fill="black" stroke="black" points="347.1,-211.38 336.5,-211.31 344.74,-217.97 347.1,-211.38"/>
</g>
<!-- is_coin_initialized -->
<g id="node6" class="node">
<title>is_coin_initialized</title>
<ellipse fill="none" stroke="black" cx="805" cy="-200" rx="75.29" ry="18"/>
<text text-anchor="middle" x="805" y="-196.3" font-family="Times,serif" font-size="14.00">is_coin_initialized</text>
</g>
<!-- pay_fee&#45;&gt;is_coin_initialized -->
<g id="edge5" class="edge">
<title>pay_fee&#45;&gt;is_coin_initialized</title>
<path fill="none" stroke="black" d="M562.34,-270.89C595.93,-267.49 646.41,-260.87 689,-249 714.6,-241.86 742.14,-230.63 763.95,-220.83"/>
<polygon fill="black" stroke="black" points="765.6,-223.93 773.24,-216.59 762.69,-217.56 765.6,-223.93"/>
</g>
<!-- Errors::make -->
<g id="node7" class="node">
<title>Errors::make</title>
<ellipse fill="none" stroke="black" cx="219" cy="-34" rx="30.59" ry="18"/>
<text text-anchor="middle" x="219" y="-30.3" font-family="Times,serif" font-size="14.00">make</text>
</g>
<!-- Errors::not_published&#45;&gt;Errors::make -->
<g id="edge6" class="edge">
<title>Errors::not_published&#45;&gt;Errors::make</title>
<path fill="none" stroke="black" d="M102.9,-100.76C127.4,-86.89 163.53,-66.42 188.96,-52.01"/>
<polygon fill="black" stroke="black" points="190.83,-54.98 197.81,-47 187.38,-48.89 190.83,-54.98"/>
</g>
<!-- Errors::invalid_state -->
<g id="node8" class="node">
<title>Errors::invalid_state</title>
<ellipse fill="none" stroke="black" cx="358" cy="-117" rx="55.79" ry="18"/>
<text text-anchor="middle" x="358" y="-113.3" font-family="Times,serif" font-size="14.00">invalid_state</text>
</g>
<!-- DiemTimestamp::assert_operating&#45;&gt;Errors::invalid_state -->
<g id="edge7" class="edge">
<title>DiemTimestamp::assert_operating&#45;&gt;Errors::invalid_state</title>
<path fill="none" stroke="black" d="M487.98,-184.74C474.32,-179.22 458.81,-172.63 445,-166 427.32,-157.51 408.19,-147.09 392.38,-138.14"/>
<polygon fill="black" stroke="black" points="393.91,-134.98 383.49,-133.06 390.43,-141.06 393.91,-134.98"/>
</g>
<!-- DiemTimestamp::is_operating -->
<g id="node9" class="node">
<title>DiemTimestamp::is_operating</title>
<ellipse fill="none" stroke="black" cx="532" cy="-117" rx="53.89" ry="18"/>
<text text-anchor="middle" x="532" y="-113.3" font-family="Times,serif" font-size="14.00">is_operating</text>
</g>
<!-- DiemTimestamp::assert_operating&#45;&gt;DiemTimestamp::is_operating -->
<g id="edge8" class="edge">
<title>DiemTimestamp::assert_operating&#45;&gt;DiemTimestamp::is_operating</title>
<path fill="none" stroke="black" d="M526.48,-181.82C527.4,-171.19 528.6,-157.31 529.65,-145.2"/>
<polygon fill="black" stroke="black" points="533.14,-145.42 530.52,-135.15 526.17,-144.81 533.14,-145.42"/>
</g>
<!-- Errors::limit_exceeded -->
<g id="node10" class="node">
<title>Errors::limit_exceeded</title>
<ellipse fill="none" stroke="black" cx="219" cy="-117" rx="64.99" ry="18"/>
<text text-anchor="middle" x="219" y="-113.3" font-family="Times,serif" font-size="14.00">limit_exceeded</text>
</g>
<!-- Diem::deposit&#45;&gt;Errors::limit_exceeded -->
<g id="edge9" class="edge">
<title>Diem::deposit&#45;&gt;Errors::limit_exceeded</title>
<path fill="none" stroke="black" d="M291.26,-183.76C278.14,-171.82 259.66,-155 244.67,-141.36"/>
<polygon fill="black" stroke="black" points="246.95,-138.7 237.2,-134.56 242.24,-143.88 246.95,-138.7"/>
</g>
<!-- is_coin_initialized&#45;&gt;CoreAddresses::TREASURY_COMPLIANCE_ADDRESS -->
<g id="edge10" class="edge">
<title>is_coin_initialized&#45;&gt;CoreAddresses::TREASURY_COMPLIANCE_ADDRESS</title>
<path fill="none" stroke="black" d="M807.94,-181.76C812.81,-153.26 822.56,-96.12 828.36,-62.16"/>
<polygon fill="black" stroke="black" points="831.86,-62.46 830.1,-52.01 824.96,-61.28 831.86,-62.46"/>
</g>
<!-- Errors::invalid_state&#45;&gt;Errors::make -->
<g id="edge11" class="edge">
<title>Errors::invalid_state&#45;&gt;Errors::make</title>
<path fill="none" stroke="black" d="M332.18,-100.95C308.65,-87.24 273.89,-66.98 249.1,-52.54"/>
<polygon fill="black" stroke="black" points="250.54,-49.33 240.14,-47.32 247.01,-55.38 250.54,-49.33"/>
</g>
<!-- CoreAddresses::DIEM_ROOT_ADDRESS -->
<g id="node11" class="node">
<title>CoreAddresses::DIEM_ROOT_ADDRESS</title>
<ellipse fill="none" stroke="black" cx="545" cy="-34" rx="106.68" ry="18"/>
<text text-anchor="middle" x="545" y="-30.3" font-family="Times,serif" font-size="14.00">DIEM_ROOT_ADDRESS</text>
</g>
<!-- DiemTimestamp::is_operating&#45;&gt;CoreAddresses::DIEM_ROOT_ADDRESS -->
<g id="edge12" class="edge">
<title>DiemTimestamp::is_operating&#45;&gt;CoreAddresses::DIEM_ROOT_ADDRESS</title>
<path fill="none" stroke="black" d="M534.76,-98.82C536.46,-88.19 538.69,-74.31 540.63,-62.2"/>
<polygon fill="black" stroke="black" points="544.12,-62.58 542.25,-52.15 537.21,-61.47 544.12,-62.58"/>
</g>
<!-- Errors::limit_exceeded&#45;&gt;Errors::make -->
<g id="edge13" class="edge">
<title>Errors::limit_exceeded&#45;&gt;Errors::make</title>
<path fill="none" stroke="black" d="M219,-98.82C219,-88.19 219,-74.31 219,-62.2"/>
<polygon fill="black" stroke="black" points="222.5,-62.15 219,-52.15 215.5,-62.15 222.5,-62.15"/>
</g>
</g>
</svg>
