<?xml version="1.0" encoding="UTF-8" standalone="no"?>
<!DOCTYPE svg PUBLIC "-//W3C//DTD SVG 1.1//EN"
 "http://www.w3.org/Graphics/SVG/1.1/DTD/svg11.dtd">
<!-- Generated by graphviz version 2.46.1 (20210213.1702)
 -->
<!-- Title: G Pages: 1 -->
<svg width="366pt" height="207pt"
 viewBox="0.00 0.00 366.00 207.00" xmlns="http://www.w3.org/2000/svg" xmlns:xlink="http://www.w3.org/1999/xlink">
<g id="graph0" class="graph" transform="scale(1 1) rotate(0) translate(4 203)">
<title>G</title>
<polygon fill="white" stroke="transparent" points="-4,4 -4,-203 362,-203 362,4 -4,4"/>
<g id="clust1" class="cluster">
<title>cluster_CoreAddresses</title>
<polygon fill="none" stroke="black" points="8,-8 8,-83 350,-83 350,-8 8,-8"/>
<text text-anchor="middle" x="179" y="-67.8" font-family="Times,serif" font-size="14.00">CoreAddresses</text>
</g>
<!-- is_initialized -->
<g id="node1" class="node">
<title>is_initialized</title>
<ellipse fill="none" stroke="black" cx="179" cy="-181" rx="55.79" ry="18"/>
<text text-anchor="middle" x="179" y="-177.3" font-family="Times,serif" font-size="14.00">is_initialized</text>
</g>
<!-- is_coin_initialized -->
<g id="node2" class="node">
<title>is_coin_initialized</title>
<ellipse fill="none" stroke="black" cx="179" cy="-109" rx="75.29" ry="18"/>
<text text-anchor="middle" x="179" y="-105.3" font-family="Times,serif" font-size="14.00">is_coin_initialized</text>
</g>
<!-- is_initialized&#45;&gt;is_coin_initialized -->
<g id="edge1" class="edge">
<title>is_initialized&#45;&gt;is_coin_initialized</title>
<path fill="none" stroke="black" d="M179,-162.7C179,-154.98 179,-145.71 179,-137.11"/>
<polygon fill="black" stroke="black" points="182.5,-137.1 179,-127.1 175.5,-137.1 182.5,-137.1"/>
</g>
<!-- CoreAddresses::TREASURY_COMPLIANCE_ADDRESS -->
<g id="node3" class="node">
<title>CoreAddresses::TREASURY_COMPLIANCE_ADDRESS</title>
<ellipse fill="none" stroke="black" cx="179" cy="-34" rx="163.27" ry="18"/>
<text text-anchor="middle" x="179" y="-30.3" font-family="Times,serif" font-size="14.00">TREASURY_COMPLIANCE_ADDRESS</text>
</g>
<!-- is_coin_initialized&#45;&gt;CoreAddresses::TREASURY_COMPLIANCE_ADDRESS -->
<g id="edge2" class="edge">
<title>is_coin_initialized&#45;&gt;CoreAddresses::TREASURY_COMPLIANCE_ADDRESS</title>
<path fill="none" stroke="black" d="M179,-90.7C179,-82.25 179,-71.87 179,-62.37"/>
<polygon fill="black" stroke="black" points="182.5,-62.18 179,-52.18 175.5,-62.18 182.5,-62.18"/>
</g>
</g>
</svg>
