<?xml version="1.0" encoding="UTF-8" standalone="no"?>
<!DOCTYPE svg PUBLIC "-//W3C//DTD SVG 1.1//EN"
 "http://www.w3.org/Graphics/SVG/1.1/DTD/svg11.dtd">
<!-- Generated by graphviz version 2.46.1 (20210213.1702)
 -->
<!-- Title: G Pages: 1 -->
<svg width="1670pt" height="659pt"
 viewBox="0.00 0.00 1670.40 659.00" xmlns="http://www.w3.org/2000/svg" xmlns:xlink="http://www.w3.org/1999/xlink">
<g id="graph0" class="graph" transform="scale(1 1) rotate(0) translate(4 655)">
<title>G</title>
<polygon fill="white" stroke="transparent" points="-4,4 -4,-655 1666.4,-655 1666.4,4 -4,4"/>
<g id="clust1" class="cluster">
<title>cluster_DiemTimestamp</title>
<polygon fill="none" stroke="black" points="69.4,-238 69.4,-388 207.4,-388 207.4,-238 69.4,-238"/>
<text text-anchor="middle" x="138.4" y="-372.8" font-family="Times,serif" font-size="14.00">DiemTimestamp</text>
</g>
<g id="clust2" class="cluster">
<title>cluster_Roles</title>
<polygon fill="none" stroke="black" points="1178.4,-238 1178.4,-313 1412.4,-313 1412.4,-238 1178.4,-238"/>
<text text-anchor="middle" x="1295.4" y="-297.8" font-family="Times,serif" font-size="14.00">Roles</text>
</g>
<g id="clust3" class="cluster">
<title>cluster_Errors</title>
<polygon fill="none" stroke="black" points="771.4,-8 771.4,-155 1496.4,-155 1496.4,-8 771.4,-8"/>
<text text-anchor="middle" x="1133.9" y="-139.8" font-family="Times,serif" font-size="14.00">Errors</text>
</g>
<g id="clust4" class="cluster">
<title>cluster_Signer</title>
<polygon fill="none" stroke="black" points="1504.4,-8 1504.4,-155 1654.4,-155 1654.4,-8 1504.4,-8"/>
<text text-anchor="middle" x="1579.4" y="-139.8" font-family="Times,serif" font-size="14.00">Signer</text>
</g>
<g id="clust5" class="cluster">
<title>cluster_CoreAddresses</title>
<polygon fill="none" stroke="black" points="23.4,-80 23.4,-230 763.4,-230 763.4,-80 23.4,-80"/>
<text text-anchor="middle" x="393.4" y="-214.8" font-family="Times,serif" font-size="14.00">CoreAddresses</text>
</g>
<g id="clust6" class="cluster">
<title>cluster_Diem</title>
<polygon fill="none" stroke="black" points="1002.4,-238 1002.4,-535 1170.4,-535 1170.4,-238 1002.4,-238"/>
<text text-anchor="middle" x="1086.4" y="-519.8" font-family="Times,serif" font-size="14.00">Diem</text>
</g>
<!-- initialize -->
<g id="node1" class="node">
<title>initialize</title>
<ellipse fill="none" stroke="black" cx="1006.4" cy="-633" rx="41.69" ry="18"/>
<text text-anchor="middle" x="1006.4" y="-629.3" font-family="Times,serif" font-size="14.00">initialize</text>
</g>
<!-- DiemTimestamp::assert_genesis -->
<g id="node2" class="node">
<title>DiemTimestamp::assert_genesis</title>
<ellipse fill="none" stroke="black" cx="138.4" cy="-339" rx="61.19" ry="18"/>
<text text-anchor="middle" x="138.4" y="-335.3" font-family="Times,serif" font-size="14.00">assert_genesis</text>
</g>
<!-- initialize&#45;&gt;DiemTimestamp::assert_genesis -->
<g id="edge1" class="edge">
<title>initialize&#45;&gt;DiemTimestamp::assert_genesis</title>
<path fill="none" stroke="black" d="M964.58,-632.76C861.15,-633.15 586.89,-624.91 382.4,-535 288.19,-493.58 199.57,-406.42 160.03,-364.09"/>
<polygon fill="black" stroke="black" points="162.36,-361.45 153,-356.48 157.22,-366.2 162.36,-361.45"/>
</g>
<!-- Roles::assert_treasury_compliance -->
<g id="node3" class="node">
<title>Roles::assert_treasury_compliance</title>
<ellipse fill="none" stroke="black" cx="1295.4" cy="-264" rx="108.58" ry="18"/>
<text text-anchor="middle" x="1295.4" y="-260.3" font-family="Times,serif" font-size="14.00">assert_treasury_compliance</text>
</g>
<!-- initialize&#45;&gt;Roles::assert_treasury_compliance -->
<g id="edge2" class="edge">
<title>initialize&#45;&gt;Roles::assert_treasury_compliance</title>
<path fill="none" stroke="black" d="M1047.12,-628.95C1123.45,-620.77 1280.4,-591.28 1280.4,-487 1280.4,-487 1280.4,-487 1280.4,-413 1280.4,-370.68 1286.54,-321.89 1290.97,-292.26"/>
<polygon fill="black" stroke="black" points="1294.45,-292.67 1292.51,-282.26 1287.53,-291.61 1294.45,-292.67"/>
</g>
<!-- add_txn_fee_currency -->
<g id="node4" class="node">
<title>add_txn_fee_currency</title>
<ellipse fill="none" stroke="black" cx="1006.4" cy="-561" rx="89.08" ry="18"/>
<text text-anchor="middle" x="1006.4" y="-557.3" font-family="Times,serif" font-size="14.00">add_txn_fee_currency</text>
</g>
<!-- initialize&#45;&gt;add_txn_fee_currency -->
<g id="edge3" class="edge">
<title>initialize&#45;&gt;add_txn_fee_currency</title>
<path fill="none" stroke="black" d="M1006.4,-614.7C1006.4,-606.98 1006.4,-597.71 1006.4,-589.11"/>
<polygon fill="black" stroke="black" points="1009.9,-589.1 1006.4,-579.1 1002.9,-589.1 1009.9,-589.1"/>
</g>
<!-- Errors::invalid_state -->
<g id="node5" class="node">
<title>Errors::invalid_state</title>
<ellipse fill="none" stroke="black" cx="992.4" cy="-106" rx="55.79" ry="18"/>
<text text-anchor="middle" x="992.4" y="-102.3" font-family="Times,serif" font-size="14.00">invalid_state</text>
</g>
<!-- DiemTimestamp::assert_genesis&#45;&gt;Errors::invalid_state -->
<g id="edge4" class="edge">
<title>DiemTimestamp::assert_genesis&#45;&gt;Errors::invalid_state</title>
<path fill="none" stroke="black" d="M196.41,-333.23C308.78,-322.86 563.03,-293.89 767.4,-230 842.74,-206.45 860.68,-195.57 928.4,-155 941.03,-147.44 954.17,-137.91 965.23,-129.34"/>
<polygon fill="black" stroke="black" points="967.56,-131.96 973.25,-123.02 963.23,-126.46 967.56,-131.96"/>
</g>
<!-- DiemTimestamp::is_genesis -->
<g id="node6" class="node">
<title>DiemTimestamp::is_genesis</title>
<ellipse fill="none" stroke="black" cx="138.4" cy="-264" rx="46.59" ry="18"/>
<text text-anchor="middle" x="138.4" y="-260.3" font-family="Times,serif" font-size="14.00">is_genesis</text>
</g>
<!-- DiemTimestamp::assert_genesis&#45;&gt;DiemTimestamp::is_genesis -->
<g id="edge5" class="edge">
<title>DiemTimestamp::assert_genesis&#45;&gt;DiemTimestamp::is_genesis</title>
<path fill="none" stroke="black" d="M138.4,-320.7C138.4,-312.25 138.4,-301.87 138.4,-292.37"/>
<polygon fill="black" stroke="black" points="141.9,-292.18 138.4,-282.18 134.9,-292.18 141.9,-292.18"/>
</g>
<!-- Signer::address_of -->
<g id="node7" class="node">
<title>Signer::address_of</title>
<ellipse fill="none" stroke="black" cx="1561.4" cy="-106" rx="48.99" ry="18"/>
<text text-anchor="middle" x="1561.4" y="-102.3" font-family="Times,serif" font-size="14.00">address_of</text>
</g>
<!-- Roles::assert_treasury_compliance&#45;&gt;Signer::address_of -->
<g id="edge6" class="edge">
<title>Roles::assert_treasury_compliance&#45;&gt;Signer::address_of</title>
<path fill="none" stroke="black" d="M1331.09,-246.93C1373,-227.45 1443.96,-192.54 1500.4,-155 1512.17,-147.17 1524.55,-137.69 1535.05,-129.23"/>
<polygon fill="black" stroke="black" points="1537.49,-131.76 1543.02,-122.72 1533.06,-126.34 1537.49,-131.76"/>
</g>
<!-- Errors::not_published -->
<g id="node8" class="node">
<title>Errors::not_published</title>
<ellipse fill="none" stroke="black" cx="1295.4" cy="-106" rx="60.39" ry="18"/>
<text text-anchor="middle" x="1295.4" y="-102.3" font-family="Times,serif" font-size="14.00">not_published</text>
</g>
<!-- Roles::assert_treasury_compliance&#45;&gt;Errors::not_published -->
<g id="edge7" class="edge">
<title>Roles::assert_treasury_compliance&#45;&gt;Errors::not_published</title>
<path fill="none" stroke="black" d="M1295.4,-245.71C1295.4,-218.77 1295.4,-166.54 1295.4,-134.42"/>
<polygon fill="black" stroke="black" points="1298.9,-134.37 1295.4,-124.37 1291.9,-134.37 1298.9,-134.37"/>
</g>
<!-- Errors::requires_role -->
<g id="node9" class="node">
<title>Errors::requires_role</title>
<ellipse fill="none" stroke="black" cx="1431.4" cy="-106" rx="57.39" ry="18"/>
<text text-anchor="middle" x="1431.4" y="-102.3" font-family="Times,serif" font-size="14.00">requires_role</text>
</g>
<!-- Roles::assert_treasury_compliance&#45;&gt;Errors::requires_role -->
<g id="edge8" class="edge">
<title>Roles::assert_treasury_compliance&#45;&gt;Errors::requires_role</title>
<path fill="none" stroke="black" d="M1310.21,-246.01C1334.45,-218.2 1382.68,-162.88 1410.43,-131.05"/>
<polygon fill="black" stroke="black" points="1413.08,-133.34 1417.01,-123.5 1407.8,-128.74 1413.08,-133.34"/>
</g>
<!-- CoreAddresses::assert_treasury_compliance -->
<g id="node10" class="node">
<title>CoreAddresses::assert_treasury_compliance</title>
<ellipse fill="none" stroke="black" cx="646.4" cy="-181" rx="108.58" ry="18"/>
<text text-anchor="middle" x="646.4" y="-177.3" font-family="Times,serif" font-size="14.00">assert_treasury_compliance</text>
</g>
<!-- Roles::assert_treasury_compliance&#45;&gt;CoreAddresses::assert_treasury_compliance -->
<g id="edge9" class="edge">
<title>Roles::assert_treasury_compliance&#45;&gt;CoreAddresses::assert_treasury_compliance</title>
<path fill="none" stroke="black" d="M1234.05,-249.11C1215.01,-245.12 1193.9,-241.04 1174.4,-238 1029.03,-215.33 859.7,-199.16 752.78,-190.2"/>
<polygon fill="black" stroke="black" points="752.89,-186.69 742.63,-189.35 752.31,-193.67 752.89,-186.69"/>
</g>
<!-- Errors::already_published -->
<g id="node11" class="node">
<title>Errors::already_published</title>
<ellipse fill="none" stroke="black" cx="1141.4" cy="-106" rx="75.29" ry="18"/>
<text text-anchor="middle" x="1141.4" y="-102.3" font-family="Times,serif" font-size="14.00">already_published</text>
</g>
<!-- add_txn_fee_currency&#45;&gt;Errors::already_published -->
<g id="edge10" class="edge">
<title>add_txn_fee_currency&#45;&gt;Errors::already_published</title>
<path fill="none" stroke="black" d="M998.89,-542.97C987.82,-516.26 968.4,-462.62 968.4,-415 968.4,-415 968.4,-415 968.4,-263 968.4,-225.99 1056.81,-162.17 1107.23,-128.79"/>
<polygon fill="black" stroke="black" points="1109.43,-131.53 1115.87,-123.12 1105.59,-125.68 1109.43,-131.53"/>
</g>
<!-- Diem::assert_is_currency -->
<g id="node12" class="node">
<title>Diem::assert_is_currency</title>
<ellipse fill="none" stroke="black" cx="1086.4" cy="-339" rx="76.09" ry="18"/>
<text text-anchor="middle" x="1086.4" y="-335.3" font-family="Times,serif" font-size="14.00">assert_is_currency</text>
</g>
<!-- add_txn_fee_currency&#45;&gt;Diem::assert_is_currency -->
<g id="edge11" class="edge">
<title>add_txn_fee_currency&#45;&gt;Diem::assert_is_currency</title>
<path fill="none" stroke="black" d="M1093.34,-556.93C1127.33,-553.74 1160.72,-547.41 1171.4,-535 1216.21,-482.89 1150.95,-403.5 1111.97,-364.02"/>
<polygon fill="black" stroke="black" points="1114.14,-361.24 1104.57,-356.68 1109.21,-366.21 1114.14,-361.24"/>
</g>
<!-- Diem::create_preburn -->
<g id="node13" class="node">
<title>Diem::create_preburn</title>
<ellipse fill="none" stroke="black" cx="1098.4" cy="-486" rx="63.89" ry="18"/>
<text text-anchor="middle" x="1098.4" y="-482.3" font-family="Times,serif" font-size="14.00">create_preburn</text>
</g>
<!-- add_txn_fee_currency&#45;&gt;Diem::create_preburn -->
<g id="edge12" class="edge">
<title>add_txn_fee_currency&#45;&gt;Diem::create_preburn</title>
<path fill="none" stroke="black" d="M1027.27,-543.44C1039.83,-533.47 1055.99,-520.65 1069.73,-509.75"/>
<polygon fill="black" stroke="black" points="1072.26,-512.21 1077.92,-503.25 1067.91,-506.72 1072.26,-512.21"/>
</g>
<!-- Diem::zero -->
<g id="node14" class="node">
<title>Diem::zero</title>
<ellipse fill="none" stroke="black" cx="1052.4" cy="-414" rx="27" ry="18"/>
<text text-anchor="middle" x="1052.4" y="-410.3" font-family="Times,serif" font-size="14.00">zero</text>
</g>
<!-- add_txn_fee_currency&#45;&gt;Diem::zero -->
<g id="edge13" class="edge">
<title>add_txn_fee_currency&#45;&gt;Diem::zero</title>
<path fill="none" stroke="black" d="M1008.56,-542.67C1011.24,-523.9 1016.54,-493.24 1025.4,-468 1028.71,-458.55 1033.39,-448.66 1037.92,-440.02"/>
<polygon fill="black" stroke="black" points="1041.01,-441.66 1042.71,-431.2 1034.86,-438.32 1041.01,-441.66"/>
</g>
<!-- is_coin_initialized -->
<g id="node15" class="node">
<title>is_coin_initialized</title>
<ellipse fill="none" stroke="black" cx="466.4" cy="-486" rx="75.29" ry="18"/>
<text text-anchor="middle" x="466.4" y="-482.3" font-family="Times,serif" font-size="14.00">is_coin_initialized</text>
</g>
<!-- add_txn_fee_currency&#45;&gt;is_coin_initialized -->
<g id="edge14" class="edge">
<title>add_txn_fee_currency&#45;&gt;is_coin_initialized</title>
<path fill="none" stroke="black" d="M934.69,-550.31C832.1,-536.44 644.38,-511.06 540.49,-497.02"/>
<polygon fill="black" stroke="black" points="540.77,-493.52 530.4,-495.65 539.84,-500.46 540.77,-493.52"/>
</g>
<!-- Errors::make -->
<g id="node16" class="node">
<title>Errors::make</title>
<ellipse fill="none" stroke="black" cx="1141.4" cy="-34" rx="30.59" ry="18"/>
<text text-anchor="middle" x="1141.4" y="-30.3" font-family="Times,serif" font-size="14.00">make</text>
</g>
<!-- Errors::invalid_state&#45;&gt;Errors::make -->
<g id="edge15" class="edge">
<title>Errors::invalid_state&#45;&gt;Errors::make</title>
<path fill="none" stroke="black" d="M1022.55,-90.83C1047.58,-79.07 1083.12,-62.38 1108.81,-50.31"/>
<polygon fill="black" stroke="black" points="1110.56,-53.35 1118.13,-45.93 1107.59,-47.02 1110.56,-53.35"/>
</g>
<!-- CoreAddresses::DIEM_ROOT_ADDRESS -->
<g id="node17" class="node">
<title>CoreAddresses::DIEM_ROOT_ADDRESS</title>
<ellipse fill="none" stroke="black" cx="138.4" cy="-181" rx="106.68" ry="18"/>
<text text-anchor="middle" x="138.4" y="-177.3" font-family="Times,serif" font-size="14.00">DIEM_ROOT_ADDRESS</text>
</g>
<!-- DiemTimestamp::is_genesis&#45;&gt;CoreAddresses::DIEM_ROOT_ADDRESS -->
<g id="edge16" class="edge">
<title>DiemTimestamp::is_genesis&#45;&gt;CoreAddresses::DIEM_ROOT_ADDRESS</title>
<path fill="none" stroke="black" d="M138.4,-245.82C138.4,-235.19 138.4,-221.31 138.4,-209.2"/>
<polygon fill="black" stroke="black" points="141.9,-209.15 138.4,-199.15 134.9,-209.15 141.9,-209.15"/>
</g>
<!-- Signer::borrow_address -->
<g id="node18" class="node">
<title>Signer::borrow_address</title>
<ellipse fill="none" stroke="black" cx="1579.4" cy="-34" rx="66.89" ry="18"/>
<text text-anchor="middle" x="1579.4" y="-30.3" font-family="Times,serif" font-size="14.00">borrow_address</text>
</g>
<!-- Signer::address_of&#45;&gt;Signer::borrow_address -->
<g id="edge17" class="edge">
<title>Signer::address_of&#45;&gt;Signer::borrow_address</title>
<path fill="none" stroke="black" d="M1565.75,-88.05C1567.76,-80.26 1570.19,-70.82 1572.43,-62.08"/>
<polygon fill="black" stroke="black" points="1575.85,-62.83 1574.96,-52.28 1569.08,-61.09 1575.85,-62.83"/>
</g>
<!-- Errors::not_published&#45;&gt;Errors::make -->
<g id="edge18" class="edge">
<title>Errors::not_published&#45;&gt;Errors::make</title>
<path fill="none" stroke="black" d="M1263.49,-90.5C1237.44,-78.65 1200.76,-61.98 1174.41,-50.01"/>
<polygon fill="black" stroke="black" points="1175.76,-46.78 1165.21,-45.82 1172.87,-53.15 1175.76,-46.78"/>
</g>
<!-- Errors::requires_role&#45;&gt;Errors::make -->
<g id="edge19" class="edge">
<title>Errors::requires_role&#45;&gt;Errors::make</title>
<path fill="none" stroke="black" d="M1398,-91.36C1387.38,-87.34 1375.5,-83.17 1364.4,-80 1300.98,-61.89 1225.41,-48.26 1180.52,-40.97"/>
<polygon fill="black" stroke="black" points="1181.04,-37.51 1170.62,-39.38 1179.94,-44.42 1181.04,-37.51"/>
</g>
<!-- CoreAddresses::assert_treasury_compliance&#45;&gt;Signer::address_of -->
<g id="edge20" class="edge">
<title>CoreAddresses::assert_treasury_compliance&#45;&gt;Signer::address_of</title>
<path fill="none" stroke="black" d="M755.11,-180.61C969.55,-181.27 1432.2,-179.74 1500.4,-155 1514.73,-149.8 1528.31,-139.82 1539.01,-130.3"/>
<polygon fill="black" stroke="black" points="1541.68,-132.59 1546.58,-123.2 1536.89,-127.48 1541.68,-132.59"/>
</g>
<!-- Errors::requires_address -->
<g id="node19" class="node">
<title>Errors::requires_address</title>
<ellipse fill="none" stroke="black" cx="849.4" cy="-106" rx="69.59" ry="18"/>
<text text-anchor="middle" x="849.4" y="-102.3" font-family="Times,serif" font-size="14.00">requires_address</text>
</g>
<!-- CoreAddresses::assert_treasury_compliance&#45;&gt;Errors::requires_address -->
<g id="edge21" class="edge">
<title>CoreAddresses::assert_treasury_compliance&#45;&gt;Errors::requires_address</title>
<path fill="none" stroke="black" d="M722.68,-168.18C737.76,-164.75 753.28,-160.42 767.4,-155 784.87,-148.29 802.96,-138.1 817.69,-128.83"/>
<polygon fill="black" stroke="black" points="819.88,-131.58 826.39,-123.22 816.09,-125.7 819.88,-131.58"/>
</g>
<!-- CoreAddresses::TREASURY_COMPLIANCE_ADDRESS -->
<g id="node20" class="node">
<title>CoreAddresses::TREASURY_COMPLIANCE_ADDRESS</title>
<ellipse fill="none" stroke="black" cx="393.4" cy="-106" rx="163.27" ry="18"/>
<text text-anchor="middle" x="393.4" y="-102.3" font-family="Times,serif" font-size="14.00">TREASURY_COMPLIANCE_ADDRESS</text>
</g>
<!-- CoreAddresses::assert_treasury_compliance&#45;&gt;CoreAddresses::TREASURY_COMPLIANCE_ADDRESS -->
<g id="edge22" class="edge">
<title>CoreAddresses::assert_treasury_compliance&#45;&gt;CoreAddresses::TREASURY_COMPLIANCE_ADDRESS</title>
<path fill="none" stroke="black" d="M594.89,-165.14C555.49,-153.77 500.88,-138.01 458.46,-125.77"/>
<polygon fill="black" stroke="black" points="459.35,-122.39 448.78,-122.98 457.41,-129.11 459.35,-122.39"/>
</g>
<!-- Errors::already_published&#45;&gt;Errors::make -->
<g id="edge23" class="edge">
<title>Errors::already_published&#45;&gt;Errors::make</title>
<path fill="none" stroke="black" d="M1141.4,-87.7C1141.4,-79.98 1141.4,-70.71 1141.4,-62.11"/>
<polygon fill="black" stroke="black" points="1144.9,-62.1 1141.4,-52.1 1137.9,-62.1 1144.9,-62.1"/>
</g>
<!-- Diem::assert_is_currency&#45;&gt;Errors::not_published -->
<g id="edge24" class="edge">
<title>Diem::assert_is_currency&#45;&gt;Errors::not_published</title>
<path fill="none" stroke="black" d="M1119.36,-322.5C1123.68,-319.69 1127.83,-316.52 1131.4,-313 1158.75,-286.01 1151.66,-268.98 1174.4,-238 1204.11,-197.51 1244.76,-155.73 1270.54,-130.56"/>
<polygon fill="black" stroke="black" points="1273.29,-132.77 1278.04,-123.3 1268.42,-127.74 1273.29,-132.77"/>
</g>
<!-- Diem::is_currency -->
<g id="node21" class="node">
<title>Diem::is_currency</title>
<ellipse fill="none" stroke="black" cx="1070.4" cy="-264" rx="51.99" ry="18"/>
<text text-anchor="middle" x="1070.4" y="-260.3" font-family="Times,serif" font-size="14.00">is_currency</text>
</g>
<!-- Diem::assert_is_currency&#45;&gt;Diem::is_currency -->
<g id="edge25" class="edge">
<title>Diem::assert_is_currency&#45;&gt;Diem::is_currency</title>
<path fill="none" stroke="black" d="M1082.61,-320.7C1080.73,-312.15 1078.43,-301.65 1076.33,-292.07"/>
<polygon fill="black" stroke="black" points="1079.72,-291.19 1074.16,-282.18 1072.88,-292.69 1079.72,-291.19"/>
</g>
<!-- Diem::create_preburn&#45;&gt;Roles::assert_treasury_compliance -->
<g id="edge26" class="edge">
<title>Diem::create_preburn&#45;&gt;Roles::assert_treasury_compliance</title>
<path fill="none" stroke="black" d="M1113.2,-468.46C1147.56,-430.1 1232.85,-334.86 1273.36,-289.62"/>
<polygon fill="black" stroke="black" points="1276.08,-291.81 1280.15,-282.03 1270.87,-287.15 1276.08,-291.81"/>
</g>
<!-- Diem::create_preburn&#45;&gt;Diem::assert_is_currency -->
<g id="edge27" class="edge">
<title>Diem::create_preburn&#45;&gt;Diem::assert_is_currency</title>
<path fill="none" stroke="black" d="M1096.97,-467.8C1094.92,-442.94 1091.09,-396.74 1088.65,-367.23"/>
<polygon fill="black" stroke="black" points="1092.13,-366.86 1087.82,-357.18 1085.16,-367.44 1092.13,-366.86"/>
</g>
<!-- Diem::create_preburn&#45;&gt;Diem::zero -->
<g id="edge28" class="edge">
<title>Diem::create_preburn&#45;&gt;Diem::zero</title>
<path fill="none" stroke="black" d="M1087.26,-468.05C1081.62,-459.47 1074.67,-448.89 1068.46,-439.44"/>
<polygon fill="black" stroke="black" points="1071.22,-437.26 1062.8,-430.83 1065.37,-441.11 1071.22,-437.26"/>
</g>
<!-- Diem::zero&#45;&gt;Diem::assert_is_currency -->
<g id="edge29" class="edge">
<title>Diem::zero&#45;&gt;Diem::assert_is_currency</title>
<path fill="none" stroke="black" d="M1060.11,-396.44C1064.27,-387.51 1069.5,-376.29 1074.19,-366.21"/>
<polygon fill="black" stroke="black" points="1077.43,-367.55 1078.48,-357.01 1071.08,-364.59 1077.43,-367.55"/>
</g>
<!-- is_coin_initialized&#45;&gt;CoreAddresses::TREASURY_COMPLIANCE_ADDRESS -->
<g id="edge30" class="edge">
<title>is_coin_initialized&#45;&gt;CoreAddresses::TREASURY_COMPLIANCE_ADDRESS</title>
<path fill="none" stroke="black" d="M398.58,-478.04C269.97,-462.95 3.4,-421.81 3.4,-340 3.4,-340 3.4,-340 3.4,-263 3.4,-217.76 -10.19,-194.38 22.4,-163 52.47,-134.05 145.43,-120.05 230.77,-113.29"/>
<polygon fill="black" stroke="black" points="231.16,-116.77 240.87,-112.52 230.63,-109.79 231.16,-116.77"/>
</g>
<!-- Errors::requires_address&#45;&gt;Errors::make -->
<g id="edge31" class="edge">
<title>Errors::requires_address&#45;&gt;Errors::make</title>
<path fill="none" stroke="black" d="M889.65,-91.23C901.71,-87.34 915.03,-83.27 927.4,-80 987.92,-63.98 1059.27,-49.93 1102.38,-41.95"/>
<polygon fill="black" stroke="black" points="1103.24,-45.36 1112.45,-40.11 1101.98,-38.47 1103.24,-45.36"/>
</g>
<!-- CoreAddresses::CURRENCY_INFO_ADDRESS -->
<g id="node22" class="node">
<title>CoreAddresses::CURRENCY_INFO_ADDRESS</title>
<ellipse fill="none" stroke="black" cx="391.4" cy="-181" rx="128.08" ry="18"/>
<text text-anchor="middle" x="391.4" y="-177.3" font-family="Times,serif" font-size="14.00">CURRENCY_INFO_ADDRESS</text>
</g>
<!-- Diem::is_currency&#45;&gt;CoreAddresses::CURRENCY_INFO_ADDRESS -->
<g id="edge32" class="edge">
<title>Diem::is_currency&#45;&gt;CoreAddresses::CURRENCY_INFO_ADDRESS</title>
<path fill="none" stroke="black" d="M1018.52,-261.66C901.73,-258.36 621.16,-248.7 528.4,-230 497.62,-223.8 464.35,-212.26 438.31,-202.06"/>
<polygon fill="black" stroke="black" points="439.28,-198.68 428.7,-198.22 436.69,-205.18 439.28,-198.68"/>
</g>
</g>
</svg>
