<?xml version="1.0" encoding="UTF-8" standalone="no"?>
<!DOCTYPE svg PUBLIC "-//W3C//DTD SVG 1.1//EN"
 "http://www.w3.org/Graphics/SVG/1.1/DTD/svg11.dtd">
<!-- Generated by graphviz version 2.46.1 (20210213.1702)
 -->
<!-- Title: G Pages: 1 -->
<svg width="1309pt" height="584pt"
 viewBox="0.00 0.00 1309.13 584.00" xmlns="http://www.w3.org/2000/svg" xmlns:xlink="http://www.w3.org/1999/xlink">
<g id="graph0" class="graph" transform="scale(1 1) rotate(0) translate(4 580)">
<title>G</title>
<polygon fill="white" stroke="transparent" points="-4,4 -4,-580 1305.13,-580 1305.13,4 -4,4"/>
<g id="clust1" class="cluster">
<title>cluster_Errors</title>
<polygon fill="none" stroke="black" points="8,-8 8,-155 604,-155 604,-8 8,-8"/>
<text text-anchor="middle" x="306" y="-139.8" font-family="Times,serif" font-size="14.00">Errors</text>
</g>
<g id="clust2" class="cluster">
<title>cluster_Diem</title>
<polygon fill="none" stroke="black" points="663,-238 663,-532 831,-532 831,-238 663,-238"/>
<text text-anchor="middle" x="747" y="-516.8" font-family="Times,serif" font-size="14.00">Diem</text>
</g>
<g id="clust3" class="cluster">
<title>cluster_Roles</title>
<polygon fill="none" stroke="black" points="421,-238 421,-313 655,-313 655,-238 421,-238"/>
<text text-anchor="middle" x="538" y="-297.8" font-family="Times,serif" font-size="14.00">Roles</text>
</g>
<g id="clust4" class="cluster">
<title>cluster_CoreAddresses</title>
<polygon fill="none" stroke="black" points="770,-80 770,-230 1278,-230 1278,-80 770,-80"/>
<text text-anchor="middle" x="1024" y="-214.8" font-family="Times,serif" font-size="14.00">CoreAddresses</text>
</g>
<g id="clust5" class="cluster">
<title>cluster_Signer</title>
<polygon fill="none" stroke="black" points="612,-8 612,-155 762,-155 762,-8 612,-8"/>
<text text-anchor="middle" x="687" y="-139.8" font-family="Times,serif" font-size="14.00">Signer</text>
</g>
<!-- add_txn_fee_currency -->
<g id="node1" class="node">
<title>add_txn_fee_currency</title>
<ellipse fill="none" stroke="black" cx="735" cy="-558" rx="89.08" ry="18"/>
<text text-anchor="middle" x="735" y="-554.3" font-family="Times,serif" font-size="14.00">add_txn_fee_currency</text>
</g>
<!-- Errors::already_published -->
<g id="node2" class="node">
<title>Errors::already_published</title>
<ellipse fill="none" stroke="black" cx="91" cy="-106" rx="75.29" ry="18"/>
<text text-anchor="middle" x="91" y="-102.3" font-family="Times,serif" font-size="14.00">already_published</text>
</g>
<!-- add_txn_fee_currency&#45;&gt;Errors::already_published -->
<g id="edge1" class="edge">
<title>add_txn_fee_currency&#45;&gt;Errors::already_published</title>
<path fill="none" stroke="black" d="M658.51,-548.7C528.41,-532.43 278,-490.87 278,-412 278,-412 278,-412 278,-263 278,-224.15 181.64,-160.69 127.26,-127.97"/>
<polygon fill="black" stroke="black" points="128.97,-124.92 118.59,-122.8 125.39,-130.93 128.97,-124.92"/>
</g>
<!-- Diem::assert_is_currency -->
<g id="node3" class="node">
<title>Diem::assert_is_currency</title>
<ellipse fill="none" stroke="black" cx="747" cy="-339" rx="76.09" ry="18"/>
<text text-anchor="middle" x="747" y="-335.3" font-family="Times,serif" font-size="14.00">assert_is_currency</text>
</g>
<!-- add_txn_fee_currency&#45;&gt;Diem::assert_is_currency -->
<g id="edge2" class="edge">
<title>add_txn_fee_currency&#45;&gt;Diem::assert_is_currency</title>
<path fill="none" stroke="black" d="M675.8,-544.46C670.44,-541.21 665.66,-537.12 662,-532 644.69,-507.77 653.24,-493.46 662,-465 674.07,-425.79 703.09,-387.85 723.87,-364.26"/>
<polygon fill="black" stroke="black" points="726.47,-366.6 730.56,-356.83 721.27,-361.92 726.47,-366.6"/>
</g>
<!-- Diem::create_preburn -->
<g id="node4" class="node">
<title>Diem::create_preburn</title>
<ellipse fill="none" stroke="black" cx="735" cy="-483" rx="63.89" ry="18"/>
<text text-anchor="middle" x="735" y="-479.3" font-family="Times,serif" font-size="14.00">create_preburn</text>
</g>
<!-- add_txn_fee_currency&#45;&gt;Diem::create_preburn -->
<g id="edge3" class="edge">
<title>add_txn_fee_currency&#45;&gt;Diem::create_preburn</title>
<path fill="none" stroke="black" d="M735,-539.7C735,-531.25 735,-520.87 735,-511.37"/>
<polygon fill="black" stroke="black" points="738.5,-511.18 735,-501.18 731.5,-511.18 738.5,-511.18"/>
</g>
<!-- Diem::zero -->
<g id="node5" class="node">
<title>Diem::zero</title>
<ellipse fill="none" stroke="black" cx="781" cy="-411" rx="27" ry="18"/>
<text text-anchor="middle" x="781" y="-407.3" font-family="Times,serif" font-size="14.00">zero</text>
</g>
<!-- add_txn_fee_currency&#45;&gt;Diem::zero -->
<g id="edge4" class="edge">
<title>add_txn_fee_currency&#45;&gt;Diem::zero</title>
<path fill="none" stroke="black" d="M794.2,-544.46C799.56,-541.21 804.34,-537.12 808,-532 828.34,-503.53 811.58,-462.33 796.88,-436.37"/>
<polygon fill="black" stroke="black" points="799.75,-434.35 791.63,-427.55 793.73,-437.93 799.75,-434.35"/>
</g>
<!-- is_coin_initialized -->
<g id="node6" class="node">
<title>is_coin_initialized</title>
<ellipse fill="none" stroke="black" cx="1053" cy="-483" rx="75.29" ry="18"/>
<text text-anchor="middle" x="1053" y="-479.3" font-family="Times,serif" font-size="14.00">is_coin_initialized</text>
</g>
<!-- add_txn_fee_currency&#45;&gt;is_coin_initialized -->
<g id="edge5" class="edge">
<title>add_txn_fee_currency&#45;&gt;is_coin_initialized</title>
<path fill="none" stroke="black" d="M791.49,-544.03C847.5,-531.17 933.1,-511.52 990.98,-498.24"/>
<polygon fill="black" stroke="black" points="991.77,-501.65 1000.73,-496 990.2,-494.83 991.77,-501.65"/>
</g>
<!-- Errors::make -->
<g id="node7" class="node">
<title>Errors::make</title>
<ellipse fill="none" stroke="black" cx="313" cy="-34" rx="30.59" ry="18"/>
<text text-anchor="middle" x="313" y="-30.3" font-family="Times,serif" font-size="14.00">make</text>
</g>
<!-- Errors::already_published&#45;&gt;Errors::make -->
<g id="edge6" class="edge">
<title>Errors::already_published&#45;&gt;Errors::make</title>
<path fill="none" stroke="black" d="M134.6,-91.25C176.09,-78.17 237.82,-58.71 276.71,-46.44"/>
<polygon fill="black" stroke="black" points="278.07,-49.68 286.56,-43.34 275.97,-43.01 278.07,-49.68"/>
</g>
<!-- Errors::not_published -->
<g id="node8" class="node">
<title>Errors::not_published</title>
<ellipse fill="none" stroke="black" cx="245" cy="-106" rx="60.39" ry="18"/>
<text text-anchor="middle" x="245" y="-102.3" font-family="Times,serif" font-size="14.00">not_published</text>
</g>
<!-- Diem::assert_is_currency&#45;&gt;Errors::not_published -->
<g id="edge7" class="edge">
<title>Diem::assert_is_currency&#45;&gt;Errors::not_published</title>
<path fill="none" stroke="black" d="M672.39,-335.41C582.03,-331.8 439.09,-324.38 417,-313 339.86,-273.25 347.67,-229.57 292,-163 283.35,-152.65 273.78,-141.25 265.55,-131.45"/>
<polygon fill="black" stroke="black" points="268.11,-129.06 259,-123.65 262.75,-133.56 268.11,-129.06"/>
</g>
<!-- Diem::is_currency -->
<g id="node9" class="node">
<title>Diem::is_currency</title>
<ellipse fill="none" stroke="black" cx="759" cy="-264" rx="51.99" ry="18"/>
<text text-anchor="middle" x="759" y="-260.3" font-family="Times,serif" font-size="14.00">is_currency</text>
</g>
<!-- Diem::assert_is_currency&#45;&gt;Diem::is_currency -->
<g id="edge8" class="edge">
<title>Diem::assert_is_currency&#45;&gt;Diem::is_currency</title>
<path fill="none" stroke="black" d="M749.84,-320.7C751.25,-312.15 752.98,-301.65 754.55,-292.07"/>
<polygon fill="black" stroke="black" points="758.01,-292.61 756.18,-282.18 751.1,-291.48 758.01,-292.61"/>
</g>
<!-- Diem::create_preburn&#45;&gt;Diem::assert_is_currency -->
<g id="edge10" class="edge">
<title>Diem::create_preburn&#45;&gt;Diem::assert_is_currency</title>
<path fill="none" stroke="black" d="M736.45,-464.87C738.49,-440.67 742.25,-396.21 744.69,-367.39"/>
<polygon fill="black" stroke="black" points="748.19,-367.45 745.55,-357.19 741.22,-366.86 748.19,-367.45"/>
</g>
<!-- Diem::create_preburn&#45;&gt;Diem::zero -->
<g id="edge11" class="edge">
<title>Diem::create_preburn&#45;&gt;Diem::zero</title>
<path fill="none" stroke="black" d="M746.14,-465.05C751.78,-456.47 758.73,-445.89 764.94,-436.44"/>
<polygon fill="black" stroke="black" points="768.03,-438.11 770.6,-427.83 762.18,-434.26 768.03,-438.11"/>
</g>
<!-- Roles::assert_treasury_compliance -->
<g id="node10" class="node">
<title>Roles::assert_treasury_compliance</title>
<ellipse fill="none" stroke="black" cx="538" cy="-264" rx="108.58" ry="18"/>
<text text-anchor="middle" x="538" y="-260.3" font-family="Times,serif" font-size="14.00">assert_treasury_compliance</text>
</g>
<!-- Diem::create_preburn&#45;&gt;Roles::assert_treasury_compliance -->
<g id="edge9" class="edge">
<title>Diem::create_preburn&#45;&gt;Roles::assert_treasury_compliance</title>
<path fill="none" stroke="black" d="M719.87,-465.33C685.36,-427.32 600.71,-334.08 560.24,-289.5"/>
<polygon fill="black" stroke="black" points="562.77,-287.07 553.45,-282.02 557.58,-291.78 562.77,-287.07"/>
</g>
<!-- Diem::zero&#45;&gt;Diem::assert_is_currency -->
<g id="edge12" class="edge">
<title>Diem::zero&#45;&gt;Diem::assert_is_currency</title>
<path fill="none" stroke="black" d="M773.11,-393.76C769.15,-385.61 764.26,-375.53 759.78,-366.31"/>
<polygon fill="black" stroke="black" points="762.83,-364.59 755.32,-357.12 756.54,-367.65 762.83,-364.59"/>
</g>
<!-- CoreAddresses::TREASURY_COMPLIANCE_ADDRESS -->
<g id="node11" class="node">
<title>CoreAddresses::TREASURY_COMPLIANCE_ADDRESS</title>
<ellipse fill="none" stroke="black" cx="1024" cy="-106" rx="163.27" ry="18"/>
<text text-anchor="middle" x="1024" y="-102.3" font-family="Times,serif" font-size="14.00">TREASURY_COMPLIANCE_ADDRESS</text>
</g>
<!-- is_coin_initialized&#45;&gt;CoreAddresses::TREASURY_COMPLIANCE_ADDRESS -->
<g id="edge13" class="edge">
<title>is_coin_initialized&#45;&gt;CoreAddresses::TREASURY_COMPLIANCE_ADDRESS</title>
<path fill="none" stroke="black" d="M1116.41,-473.17C1189,-459.08 1298,-423.95 1298,-340 1298,-340 1298,-340 1298,-263 1298,-217.76 1310.53,-195.44 1279,-163 1259.81,-143.26 1201.43,-129.65 1145.37,-120.79"/>
<polygon fill="black" stroke="black" points="1145.72,-117.3 1135.3,-119.24 1144.66,-124.22 1145.72,-117.3"/>
</g>
<!-- Errors::not_published&#45;&gt;Errors::make -->
<g id="edge14" class="edge">
<title>Errors::not_published&#45;&gt;Errors::make</title>
<path fill="none" stroke="black" d="M261.12,-88.41C270.13,-79.13 281.49,-67.44 291.28,-57.36"/>
<polygon fill="black" stroke="black" points="293.93,-59.65 298.39,-50.04 288.91,-54.77 293.93,-59.65"/>
</g>
<!-- CoreAddresses::CURRENCY_INFO_ADDRESS -->
<g id="node12" class="node">
<title>CoreAddresses::CURRENCY_INFO_ADDRESS</title>
<ellipse fill="none" stroke="black" cx="1142" cy="-181" rx="128.08" ry="18"/>
<text text-anchor="middle" x="1142" y="-177.3" font-family="Times,serif" font-size="14.00">CURRENCY_INFO_ADDRESS</text>
</g>
<!-- Diem::is_currency&#45;&gt;CoreAddresses::CURRENCY_INFO_ADDRESS -->
<g id="edge15" class="edge">
<title>Diem::is_currency&#45;&gt;CoreAddresses::CURRENCY_INFO_ADDRESS</title>
<path fill="none" stroke="black" d="M809.49,-259.25C859.61,-254.83 938.37,-245.96 1005,-230 1034.88,-222.84 1067.38,-211.61 1093.22,-201.82"/>
<polygon fill="black" stroke="black" points="1094.7,-205 1102.77,-198.14 1092.18,-198.46 1094.7,-205"/>
</g>
<!-- Roles::assert_treasury_compliance&#45;&gt;Errors::not_published -->
<g id="edge17" class="edge">
<title>Roles::assert_treasury_compliance&#45;&gt;Errors::not_published</title>
<path fill="none" stroke="black" d="M492.6,-247.54C481.45,-242.75 469.89,-236.89 460,-230 426.46,-206.64 433.69,-181.03 397,-163 364.14,-146.85 349.41,-167.53 315,-155 299.25,-149.27 283.68,-139.15 271.23,-129.68"/>
<polygon fill="black" stroke="black" points="273.17,-126.75 263.15,-123.29 268.82,-132.24 273.17,-126.75"/>
</g>
<!-- Signer::address_of -->
<g id="node13" class="node">
<title>Signer::address_of</title>
<ellipse fill="none" stroke="black" cx="687" cy="-106" rx="48.99" ry="18"/>
<text text-anchor="middle" x="687" y="-102.3" font-family="Times,serif" font-size="14.00">address_of</text>
</g>
<!-- Roles::assert_treasury_compliance&#45;&gt;Signer::address_of -->
<g id="edge16" class="edge">
<title>Roles::assert_treasury_compliance&#45;&gt;Signer::address_of</title>
<path fill="none" stroke="black" d="M554.23,-246.01C580.79,-218.2 633.62,-162.88 664.02,-131.05"/>
<polygon fill="black" stroke="black" points="666.86,-133.15 671.24,-123.5 661.8,-128.31 666.86,-133.15"/>
</g>
<!-- Errors::requires_role -->
<g id="node14" class="node">
<title>Errors::requires_role</title>
<ellipse fill="none" stroke="black" cx="381" cy="-106" rx="57.39" ry="18"/>
<text text-anchor="middle" x="381" y="-102.3" font-family="Times,serif" font-size="14.00">requires_role</text>
</g>
<!-- Roles::assert_treasury_compliance&#45;&gt;Errors::requires_role -->
<g id="edge18" class="edge">
<title>Roles::assert_treasury_compliance&#45;&gt;Errors::requires_role</title>
<path fill="none" stroke="black" d="M527.43,-245.92C513.73,-224.72 488.22,-188.26 460,-163 454.94,-158.48 452.64,-158.78 447,-155 434.71,-146.77 421.47,-137.27 410.1,-128.9"/>
<polygon fill="black" stroke="black" points="411.93,-125.91 401.81,-122.77 407.76,-131.53 411.93,-125.91"/>
</g>
<!-- CoreAddresses::assert_treasury_compliance -->
<g id="node15" class="node">
<title>CoreAddresses::assert_treasury_compliance</title>
<ellipse fill="none" stroke="black" cx="887" cy="-181" rx="108.58" ry="18"/>
<text text-anchor="middle" x="887" y="-177.3" font-family="Times,serif" font-size="14.00">assert_treasury_compliance</text>
</g>
<!-- Roles::assert_treasury_compliance&#45;&gt;CoreAddresses::assert_treasury_compliance -->
<g id="edge19" class="edge">
<title>Roles::assert_treasury_compliance&#45;&gt;CoreAddresses::assert_treasury_compliance</title>
<path fill="none" stroke="black" d="M598.39,-248.98C659.13,-234.89 752.72,-213.16 816.75,-198.3"/>
<polygon fill="black" stroke="black" points="817.81,-201.65 826.76,-195.98 816.23,-194.83 817.81,-201.65"/>
</g>
<!-- Signer::borrow_address -->
<g id="node16" class="node">
<title>Signer::borrow_address</title>
<ellipse fill="none" stroke="black" cx="687" cy="-34" rx="66.89" ry="18"/>
<text text-anchor="middle" x="687" y="-30.3" font-family="Times,serif" font-size="14.00">borrow_address</text>
</g>
<!-- Signer::address_of&#45;&gt;Signer::borrow_address -->
<g id="edge20" class="edge">
<title>Signer::address_of&#45;&gt;Signer::borrow_address</title>
<path fill="none" stroke="black" d="M687,-87.7C687,-79.98 687,-70.71 687,-62.11"/>
<polygon fill="black" stroke="black" points="690.5,-62.1 687,-52.1 683.5,-62.1 690.5,-62.1"/>
</g>
<!-- Errors::requires_role&#45;&gt;Errors::make -->
<g id="edge21" class="edge">
<title>Errors::requires_role&#45;&gt;Errors::make</title>
<path fill="none" stroke="black" d="M364.88,-88.41C355.87,-79.13 344.51,-67.44 334.72,-57.36"/>
<polygon fill="black" stroke="black" points="337.09,-54.77 327.61,-50.04 332.07,-59.65 337.09,-54.77"/>
</g>
<!-- CoreAddresses::assert_treasury_compliance&#45;&gt;CoreAddresses::TREASURY_COMPLIANCE_ADDRESS -->
<g id="edge24" class="edge">
<title>CoreAddresses::assert_treasury_compliance&#45;&gt;CoreAddresses::TREASURY_COMPLIANCE_ADDRESS</title>
<path fill="none" stroke="black" d="M917.75,-163.62C937.12,-153.29 962.37,-139.84 983.39,-128.64"/>
<polygon fill="black" stroke="black" points="985.23,-131.63 992.41,-123.83 981.94,-125.45 985.23,-131.63"/>
</g>
<!-- CoreAddresses::assert_treasury_compliance&#45;&gt;Signer::address_of -->
<g id="edge22" class="edge">
<title>CoreAddresses::assert_treasury_compliance&#45;&gt;Signer::address_of</title>
<path fill="none" stroke="black" d="M810,-168.22C795.13,-164.8 779.87,-160.46 766,-155 748.56,-148.14 730.6,-137.55 716.21,-128.06"/>
<polygon fill="black" stroke="black" points="718,-125.05 707.76,-122.34 714.08,-130.84 718,-125.05"/>
</g>
<!-- Errors::requires_address -->
<g id="node17" class="node">
<title>Errors::requires_address</title>
<ellipse fill="none" stroke="black" cx="526" cy="-106" rx="69.59" ry="18"/>
<text text-anchor="middle" x="526" y="-102.3" font-family="Times,serif" font-size="14.00">requires_address</text>
</g>
<!-- CoreAddresses::assert_treasury_compliance&#45;&gt;Errors::requires_address -->
<g id="edge23" class="edge">
<title>CoreAddresses::assert_treasury_compliance&#45;&gt;Errors::requires_address</title>
<path fill="none" stroke="black" d="M783.47,-175.43C717.97,-171.64 639.85,-165.18 608,-155 589.78,-149.18 571.25,-138.78 556.42,-129.15"/>
<polygon fill="black" stroke="black" points="557.96,-125.97 547.7,-123.3 554.06,-131.78 557.96,-125.97"/>
</g>
<!-- Errors::requires_address&#45;&gt;Errors::make -->
<g id="edge25" class="edge">
<title>Errors::requires_address&#45;&gt;Errors::make</title>
<path fill="none" stroke="black" d="M484.68,-91.42C445.14,-78.43 386.14,-59.04 348.62,-46.71"/>
<polygon fill="black" stroke="black" points="349.7,-43.38 339.11,-43.58 347.51,-50.03 349.7,-43.38"/>
</g>
</g>
</svg>
