<?xml version="1.0" encoding="UTF-8" standalone="no"?>
<!DOCTYPE svg PUBLIC "-//W3C//DTD SVG 1.1//EN"
 "http://www.w3.org/Graphics/SVG/1.1/DTD/svg11.dtd">
<!-- Generated by graphviz version 2.46.1 (20210213.1702)
 -->
<!-- Title: G Pages: 1 -->
<svg width="1128pt" height="620pt"
 viewBox="0.00 0.00 1128.00 620.00" xmlns="http://www.w3.org/2000/svg" xmlns:xlink="http://www.w3.org/1999/xlink">
<g id="graph0" class="graph" transform="scale(1 1) rotate(0) translate(4 616)">
<title>G</title>
<polygon fill="white" stroke="transparent" points="-4,4 -4,-616 1124,-616 1124,4 -4,4"/>
<!-- TransactionFee -->
<g id="node1" class="node">
<title>TransactionFee</title>
<ellipse fill="none" stroke="black" cx="438" cy="-594" rx="64.99" ry="18"/>
<text text-anchor="middle" x="438" y="-590.3" font-family="Times,serif" font-size="14.00">TransactionFee</text>
</g>
<!-- Errors -->
<g id="node2" class="node">
<title>Errors</title>
<ellipse fill="none" stroke="black" cx="449" cy="-18" rx="32.49" ry="18"/>
<text text-anchor="middle" x="449" y="-14.3" font-family="Times,serif" font-size="14.00">Errors</text>
</g>
<!-- TransactionFee&#45;&gt;Errors -->
<g id="edge1" class="edge">
<title>TransactionFee&#45;&gt;Errors</title>
<path fill="none" stroke="black" d="M503,-593.36C666.51,-590.52 1082,-558.55 1082,-307 1082,-307 1082,-307 1082,-233 1082,-185.79 1060.56,-173.87 1024,-144 956.63,-88.97 926.17,-93.97 842,-72 717.08,-39.39 564.29,-26.11 491.5,-21.35"/>
<polygon fill="black" stroke="black" points="491.55,-17.84 481.35,-20.7 491.11,-24.83 491.55,-17.84"/>
</g>
<!-- CoreAddresses -->
<g id="node3" class="node">
<title>CoreAddresses</title>
<ellipse fill="none" stroke="black" cx="769" cy="-90" rx="63.89" ry="18"/>
<text text-anchor="middle" x="769" y="-86.3" font-family="Times,serif" font-size="14.00">CoreAddresses</text>
</g>
<!-- TransactionFee&#45;&gt;CoreAddresses -->
<g id="edge2" class="edge">
<title>TransactionFee&#45;&gt;CoreAddresses</title>
<path fill="none" stroke="black" d="M502.57,-591.46C658.71,-585.98 1044,-561.29 1044,-451 1044,-451 1044,-451 1044,-233 1044,-186.5 1026.66,-171.28 989,-144 982.34,-139.17 890.17,-117.96 827.27,-103.88"/>
<polygon fill="black" stroke="black" points="827.96,-100.45 817.44,-101.69 826.44,-107.28 827.96,-100.45"/>
</g>
<!-- DiemTimestamp -->
<g id="node4" class="node">
<title>DiemTimestamp</title>
<ellipse fill="none" stroke="black" cx="369" cy="-162" rx="71.49" ry="18"/>
<text text-anchor="middle" x="369" y="-158.3" font-family="Times,serif" font-size="14.00">DiemTimestamp</text>
</g>
<!-- TransactionFee&#45;&gt;DiemTimestamp -->
<g id="edge3" class="edge">
<title>TransactionFee&#45;&gt;DiemTimestamp</title>
<path fill="none" stroke="black" d="M375.74,-588.74C318.28,-583.05 231.59,-569.93 162,-540 99.68,-513.2 38,-518.84 38,-451 38,-451 38,-451 38,-377 38,-252.58 204.96,-196.95 301.72,-175.15"/>
<polygon fill="black" stroke="black" points="302.7,-178.52 311.72,-172.96 301.2,-171.68 302.7,-178.52"/>
</g>
<!-- Roles -->
<g id="node5" class="node">
<title>Roles</title>
<ellipse fill="none" stroke="black" cx="523" cy="-234" rx="30.59" ry="18"/>
<text text-anchor="middle" x="523" y="-230.3" font-family="Times,serif" font-size="14.00">Roles</text>
</g>
<!-- TransactionFee&#45;&gt;Roles -->
<g id="edge4" class="edge">
<title>TransactionFee&#45;&gt;Roles</title>
<path fill="none" stroke="black" d="M468.22,-577.77C532.55,-543.27 680.83,-452.08 726,-324 731.32,-308.91 735.78,-300.66 726,-288 706.22,-262.39 616.13,-246.8 562.84,-239.66"/>
<polygon fill="black" stroke="black" points="563.07,-236.16 552.71,-238.34 562.17,-243.1 563.07,-236.16"/>
</g>
<!-- Diem -->
<g id="node6" class="node">
<title>Diem</title>
<ellipse fill="none" stroke="black" cx="438" cy="-450" rx="30.59" ry="18"/>
<text text-anchor="middle" x="438" y="-446.3" font-family="Times,serif" font-size="14.00">Diem</text>
</g>
<!-- TransactionFee&#45;&gt;Diem -->
<g id="edge5" class="edge">
<title>TransactionFee&#45;&gt;Diem</title>
<path fill="none" stroke="black" d="M438,-575.87C438,-551.67 438,-507.21 438,-478.39"/>
<polygon fill="black" stroke="black" points="441.5,-478.19 438,-468.19 434.5,-478.19 441.5,-478.19"/>
</g>
<!-- XUS -->
<g id="node7" class="node">
<title>XUS</title>
<ellipse fill="none" stroke="black" cx="200" cy="-522" rx="28.7" ry="18"/>
<text text-anchor="middle" x="200" y="-518.3" font-family="Times,serif" font-size="14.00">XUS</text>
</g>
<!-- TransactionFee&#45;&gt;XUS -->
<g id="edge6" class="edge">
<title>TransactionFee&#45;&gt;XUS</title>
<path fill="none" stroke="black" d="M395.18,-580.4C349.33,-566.92 277.47,-545.79 234.92,-533.27"/>
<polygon fill="black" stroke="black" points="235.87,-529.9 225.28,-530.44 233.89,-536.62 235.87,-529.9"/>
</g>
<!-- XDX -->
<g id="node8" class="node">
<title>XDX</title>
<ellipse fill="none" stroke="black" cx="324" cy="-522" rx="29.8" ry="18"/>
<text text-anchor="middle" x="324" y="-518.3" font-family="Times,serif" font-size="14.00">XDX</text>
</g>
<!-- TransactionFee&#45;&gt;XDX -->
<g id="edge7" class="edge">
<title>TransactionFee&#45;&gt;XDX</title>
<path fill="none" stroke="black" d="M412.42,-577.29C394.7,-566.41 371.1,-551.92 352.74,-540.65"/>
<polygon fill="black" stroke="black" points="354.55,-537.65 344.19,-535.4 350.88,-543.61 354.55,-537.65"/>
</g>
<!-- CoreAddresses&#45;&gt;Errors -->
<g id="edge9" class="edge">
<title>CoreAddresses&#45;&gt;Errors</title>
<path fill="none" stroke="black" d="M720.05,-78.29C656.63,-64.42 547.27,-40.5 488.72,-27.69"/>
<polygon fill="black" stroke="black" points="489.26,-24.22 478.75,-25.51 487.77,-31.06 489.26,-24.22"/>
</g>
<!-- Signer -->
<g id="node9" class="node">
<title>Signer</title>
<ellipse fill="none" stroke="black" cx="723" cy="-18" rx="33.6" ry="18"/>
<text text-anchor="middle" x="723" y="-14.3" font-family="Times,serif" font-size="14.00">Signer</text>
</g>
<!-- CoreAddresses&#45;&gt;Signer -->
<g id="edge8" class="edge">
<title>CoreAddresses&#45;&gt;Signer</title>
<path fill="none" stroke="black" d="M757.86,-72.05C752.3,-63.59 745.47,-53.19 739.33,-43.84"/>
<polygon fill="black" stroke="black" points="742.13,-41.74 733.72,-35.31 736.28,-45.59 742.13,-41.74"/>
</g>
<!-- DiemTimestamp&#45;&gt;Errors -->
<g id="edge10" class="edge">
<title>DiemTimestamp&#45;&gt;Errors</title>
<path fill="none" stroke="black" d="M378.49,-144.15C392.4,-119.47 418.42,-73.28 434.67,-44.44"/>
<polygon fill="black" stroke="black" points="437.91,-45.82 439.77,-35.39 431.81,-42.38 437.91,-45.82"/>
</g>
<!-- DiemTimestamp&#45;&gt;CoreAddresses -->
<g id="edge11" class="edge">
<title>DiemTimestamp&#45;&gt;CoreAddresses</title>
<path fill="none" stroke="black" d="M425.89,-151.05C500.09,-138.06 629.5,-115.41 706.42,-101.95"/>
<polygon fill="black" stroke="black" points="707.2,-105.37 716.45,-100.2 706,-98.47 707.2,-105.37"/>
</g>
<!-- Roles&#45;&gt;Errors -->
<g id="edge13" class="edge">
<title>Roles&#45;&gt;Errors</title>
<path fill="none" stroke="black" d="M512.04,-216.88C505.49,-206.67 497.42,-192.99 492,-180 473.09,-134.66 460.35,-78.63 453.91,-46.04"/>
<polygon fill="black" stroke="black" points="457.29,-45.1 451.97,-35.94 450.42,-46.42 457.29,-45.1"/>
</g>
<!-- Roles&#45;&gt;CoreAddresses -->
<g id="edge14" class="edge">
<title>Roles&#45;&gt;CoreAddresses</title>
<path fill="none" stroke="black" d="M543.97,-220.89C586.06,-196.6 681.24,-141.66 733.31,-111.6"/>
<polygon fill="black" stroke="black" points="735.29,-114.5 742.21,-106.47 731.79,-108.43 735.29,-114.5"/>
</g>
<!-- Roles&#45;&gt;DiemTimestamp -->
<g id="edge15" class="edge">
<title>Roles&#45;&gt;DiemTimestamp</title>
<path fill="none" stroke="black" d="M499.61,-222.37C476.25,-211.75 439.82,-195.19 411.37,-182.26"/>
<polygon fill="black" stroke="black" points="412.61,-178.98 402.05,-178.02 409.71,-185.35 412.61,-178.98"/>
</g>
<!-- Roles&#45;&gt;Signer -->
<g id="edge12" class="edge">
<title>Roles&#45;&gt;Signer</title>
<path fill="none" stroke="black" d="M535.48,-217.31C559.2,-187.8 612.91,-122.48 663,-72 673.95,-60.96 686.79,-49.45 697.77,-39.99"/>
<polygon fill="black" stroke="black" points="700.04,-42.65 705.38,-33.5 695.5,-37.32 700.04,-42.65"/>
</g>
<!-- Diem&#45;&gt;Errors -->
<g id="edge17" class="edge">
<title>Diem&#45;&gt;Errors</title>
<path fill="none" stroke="black" d="M421.11,-434.71C371.71,-391.13 234.36,-256.03 289,-144 315,-90.7 375.93,-53.47 414.65,-34.21"/>
<polygon fill="black" stroke="black" points="416.5,-37.2 423.98,-29.7 413.45,-30.9 416.5,-37.2"/>
</g>
<!-- Diem&#45;&gt;CoreAddresses -->
<g id="edge18" class="edge">
<title>Diem&#45;&gt;CoreAddresses</title>
<path fill="none" stroke="black" d="M468.62,-449.01C525.48,-447.9 650.03,-440.15 743,-396 862.84,-339.1 903.08,-304.46 949,-180 954.54,-164.99 958.58,-156.81 949,-144 941.42,-133.87 876.8,-116.53 827.13,-104.45"/>
<polygon fill="black" stroke="black" points="827.64,-100.97 817.1,-102.03 826,-107.78 827.64,-100.97"/>
</g>
<!-- Diem&#45;&gt;DiemTimestamp -->
<g id="edge19" class="edge">
<title>Diem&#45;&gt;DiemTimestamp</title>
<path fill="none" stroke="black" d="M433.89,-431.97C422.36,-384.19 389.66,-248.62 375.58,-190.27"/>
<polygon fill="black" stroke="black" points="378.92,-189.21 373.18,-180.31 372.12,-190.85 378.92,-189.21"/>
</g>
<!-- Diem&#45;&gt;Roles -->
<g id="edge20" class="edge">
<title>Diem&#45;&gt;Roles</title>
<path fill="none" stroke="black" d="M444.67,-432.21C459.41,-395.09 494.86,-305.86 512.56,-261.27"/>
<polygon fill="black" stroke="black" points="515.92,-262.3 516.36,-251.71 509.42,-259.72 515.92,-262.3"/>
</g>
<!-- Diem&#45;&gt;Signer -->
<g id="edge16" class="edge">
<title>Diem&#45;&gt;Signer</title>
<path fill="none" stroke="black" d="M468.18,-446.23C600.17,-433.32 1120,-373.68 1120,-235 1120,-235 1120,-235 1120,-161 1120,-86.34 867.92,-40.5 765.49,-24.96"/>
<polygon fill="black" stroke="black" points="765.9,-21.48 755.49,-23.46 764.86,-28.4 765.9,-21.48"/>
</g>
<!-- FixedPoint32 -->
<g id="node10" class="node">
<title>FixedPoint32</title>
<ellipse fill="none" stroke="black" cx="200" cy="-378" rx="57.69" ry="18"/>
<text text-anchor="middle" x="200" y="-374.3" font-family="Times,serif" font-size="14.00">FixedPoint32</text>
</g>
<!-- Diem&#45;&gt;FixedPoint32 -->
<g id="edge21" class="edge">
<title>Diem&#45;&gt;FixedPoint32</title>
<path fill="none" stroke="black" d="M411.16,-441.11C372.26,-429.67 299.52,-408.27 250.42,-393.83"/>
<polygon fill="black" stroke="black" points="251.21,-390.41 240.63,-390.95 249.23,-397.13 251.21,-390.41"/>
</g>
<!-- Vector -->
<g id="node11" class="node">
<title>Vector</title>
<ellipse fill="none" stroke="black" cx="906" cy="-162" rx="33.6" ry="18"/>
<text text-anchor="middle" x="906" y="-158.3" font-family="Times,serif" font-size="14.00">Vector</text>
</g>
<!-- Diem&#45;&gt;Vector -->
<g id="edge22" class="edge">
<title>Diem&#45;&gt;Vector</title>
<path fill="none" stroke="black" d="M468.43,-448.17C519.17,-445.65 623.06,-435.64 700,-396 783.3,-353.08 795.53,-325.22 854,-252 869.79,-232.23 883.99,-207.16 893.55,-188.67"/>
<polygon fill="black" stroke="black" points="896.72,-190.16 898.11,-179.66 890.47,-187 896.72,-190.16"/>
</g>
<!-- Event -->
<g id="node12" class="node">
<title>Event</title>
<ellipse fill="none" stroke="black" cx="755" cy="-234" rx="31.4" ry="18"/>
<text text-anchor="middle" x="755" y="-230.3" font-family="Times,serif" font-size="14.00">Event</text>
</g>
<!-- Diem&#45;&gt;Event -->
<g id="edge23" class="edge">
<title>Diem&#45;&gt;Event</title>
<path fill="none" stroke="black" d="M468.7,-448.2C515.21,-445.67 604.8,-435.59 668,-396 716.03,-365.91 739.37,-299.58 749.1,-262.12"/>
<polygon fill="black" stroke="black" points="752.62,-262.48 751.6,-251.94 745.82,-260.82 752.62,-262.48"/>
</g>
<!-- RegisteredCurrencies -->
<g id="node13" class="node">
<title>RegisteredCurrencies</title>
<ellipse fill="none" stroke="black" cx="573" cy="-378" rx="86.38" ry="18"/>
<text text-anchor="middle" x="573" y="-374.3" font-family="Times,serif" font-size="14.00">RegisteredCurrencies</text>
</g>
<!-- Diem&#45;&gt;RegisteredCurrencies -->
<g id="edge24" class="edge">
<title>Diem&#45;&gt;RegisteredCurrencies</title>
<path fill="none" stroke="black" d="M460.29,-437.44C480.06,-427.19 509.4,-411.98 533.19,-399.64"/>
<polygon fill="black" stroke="black" points="535.07,-402.61 542.34,-394.9 531.85,-396.4 535.07,-402.61"/>
</g>
<!-- XUS&#45;&gt;DiemTimestamp -->
<g id="edge25" class="edge">
<title>XUS&#45;&gt;DiemTimestamp</title>
<path fill="none" stroke="black" d="M178.14,-510.28C162.29,-501.29 141.81,-486.88 131,-468 91.19,-398.49 92.55,-352.54 140,-288 163.88,-255.53 265.24,-207.79 324.81,-181.71"/>
<polygon fill="black" stroke="black" points="326.22,-184.91 333.99,-177.71 323.42,-178.49 326.22,-184.91"/>
</g>
<!-- XUS&#45;&gt;Diem -->
<g id="edge27" class="edge">
<title>XUS&#45;&gt;Diem</title>
<path fill="none" stroke="black" d="M225.47,-513.51C267.79,-501.06 352.74,-476.08 401.45,-461.75"/>
<polygon fill="black" stroke="black" points="402.66,-465.04 411.26,-458.86 400.68,-458.33 402.66,-465.04"/>
</g>
<!-- XUS&#45;&gt;FixedPoint32 -->
<g id="edge26" class="edge">
<title>XUS&#45;&gt;FixedPoint32</title>
<path fill="none" stroke="black" d="M200,-503.87C200,-479.67 200,-435.21 200,-406.39"/>
<polygon fill="black" stroke="black" points="203.5,-406.19 200,-396.19 196.5,-406.19 203.5,-406.19"/>
</g>
<!-- AccountLimits -->
<g id="node14" class="node">
<title>AccountLimits</title>
<ellipse fill="none" stroke="black" cx="213" cy="-306" rx="63.89" ry="18"/>
<text text-anchor="middle" x="213" y="-302.3" font-family="Times,serif" font-size="14.00">AccountLimits</text>
</g>
<!-- XUS&#45;&gt;AccountLimits -->
<g id="edge28" class="edge">
<title>XUS&#45;&gt;AccountLimits</title>
<path fill="none" stroke="black" d="M185.22,-506.35C158.02,-477.52 105.21,-411.74 133,-360 140.76,-345.55 154.38,-334.38 168.21,-326.1"/>
<polygon fill="black" stroke="black" points="170.22,-328.98 177.26,-321.07 166.82,-322.86 170.22,-328.98"/>
</g>
<!-- XDX&#45;&gt;Errors -->
<g id="edge29" class="edge">
<title>XDX&#45;&gt;Errors</title>
<path fill="none" stroke="black" d="M295.53,-516.31C216.47,-501.5 0,-448.06 0,-307 0,-307 0,-307 0,-161 0,-76.15 295.14,-35.55 406.85,-23.22"/>
<polygon fill="black" stroke="black" points="407.5,-26.67 417.07,-22.11 406.75,-19.71 407.5,-26.67"/>
</g>
<!-- XDX&#45;&gt;CoreAddresses -->
<g id="edge30" class="edge">
<title>XDX&#45;&gt;CoreAddresses</title>
<path fill="none" stroke="black" d="M353.95,-519.68C447.59,-513.9 737.85,-483.35 893,-324 953.22,-262.15 1018.52,-212.52 966,-144 961.6,-138.27 882.75,-118.3 826.16,-104.58"/>
<polygon fill="black" stroke="black" points="826.77,-101.13 816.23,-102.18 825.13,-107.93 826.77,-101.13"/>
</g>
<!-- XDX&#45;&gt;DiemTimestamp -->
<g id="edge31" class="edge">
<title>XDX&#45;&gt;DiemTimestamp</title>
<path fill="none" stroke="black" d="M326.17,-503.73C333.4,-446.19 356.72,-260.66 365.56,-190.35"/>
<polygon fill="black" stroke="black" points="369.08,-190.45 366.85,-180.09 362.13,-189.58 369.08,-190.45"/>
</g>
<!-- XDX&#45;&gt;Diem -->
<g id="edge33" class="edge">
<title>XDX&#45;&gt;Diem</title>
<path fill="none" stroke="black" d="M344.12,-508.65C362.16,-497.57 388.84,-481.19 409.15,-468.72"/>
<polygon fill="black" stroke="black" points="411.01,-471.68 417.7,-463.47 407.35,-465.72 411.01,-471.68"/>
</g>
<!-- XDX&#45;&gt;FixedPoint32 -->
<g id="edge32" class="edge">
<title>XDX&#45;&gt;FixedPoint32</title>
<path fill="none" stroke="black" d="M308.59,-506.06C298.02,-495.64 283.84,-481.28 272,-468 253.36,-447.09 233.42,-422.23 219.26,-404.1"/>
<polygon fill="black" stroke="black" points="221.71,-401.54 212.81,-395.79 216.18,-405.84 221.71,-401.54"/>
</g>
<!-- XDX&#45;&gt;AccountLimits -->
<g id="edge34" class="edge">
<title>XDX&#45;&gt;AccountLimits</title>
<path fill="none" stroke="black" d="M319.06,-504.04C308.38,-467.95 282.82,-384.82 267,-360 259.99,-349.01 250.31,-338.58 241.07,-329.92"/>
<polygon fill="black" stroke="black" points="243.26,-327.18 233.49,-323.09 238.58,-332.39 243.26,-327.18"/>
</g>
<!-- FixedPoint32&#45;&gt;Errors -->
<g id="edge35" class="edge">
<title>FixedPoint32&#45;&gt;Errors</title>
<path fill="none" stroke="black" d="M174.24,-361.79C161.38,-352.64 147.08,-339.71 140,-324 105.07,-246.55 60.36,-201.89 197,-72 226.7,-43.77 343.06,-28.8 406.75,-22.57"/>
<polygon fill="black" stroke="black" points="407.25,-26.03 416.88,-21.61 406.59,-19.07 407.25,-26.03"/>
</g>
<!-- Event&#45;&gt;Errors -->
<g id="edge37" class="edge">
<title>Event&#45;&gt;Errors</title>
<path fill="none" stroke="black" d="M737.55,-218.97C701.41,-190.15 615.36,-122.73 539,-72 519.84,-59.27 497.56,-46.14 479.96,-36.13"/>
<polygon fill="black" stroke="black" points="481.66,-33.07 471.23,-31.2 478.22,-39.17 481.66,-33.07"/>
</g>
<!-- Event&#45;&gt;Signer -->
<g id="edge36" class="edge">
<title>Event&#45;&gt;Signer</title>
<path fill="none" stroke="black" d="M777.58,-221.43C793.23,-212.26 813.27,-198.01 825,-180 851.52,-139.28 868.46,-112.75 842,-72 825.13,-46.01 792.23,-32.66 765.3,-25.86"/>
<polygon fill="black" stroke="black" points="765.84,-22.4 755.31,-23.57 764.27,-29.22 765.84,-22.4"/>
</g>
<!-- Event&#45;&gt;Vector -->
<g id="edge38" class="edge">
<title>Event&#45;&gt;Vector</title>
<path fill="none" stroke="black" d="M778.59,-222.06C803.71,-210.42 843.67,-191.89 872.14,-178.7"/>
<polygon fill="black" stroke="black" points="873.72,-181.82 881.32,-174.44 870.77,-175.47 873.72,-181.82"/>
</g>
<!-- BCS -->
<g id="node15" class="node">
<title>BCS</title>
<ellipse fill="none" stroke="black" cx="789" cy="-162" rx="27.1" ry="18"/>
<text text-anchor="middle" x="789" y="-158.3" font-family="Times,serif" font-size="14.00">BCS</text>
</g>
<!-- Event&#45;&gt;BCS -->
<g id="edge39" class="edge">
<title>Event&#45;&gt;BCS</title>
<path fill="none" stroke="black" d="M763.06,-216.41C767.08,-208.13 772.04,-197.92 776.54,-188.66"/>
<polygon fill="black" stroke="black" points="779.78,-189.99 781,-179.47 773.48,-186.94 779.78,-189.99"/>
</g>
<!-- RegisteredCurrencies&#45;&gt;Errors -->
<g id="edge40" class="edge">
<title>RegisteredCurrencies&#45;&gt;Errors</title>
<path fill="none" stroke="black" d="M574.48,-359.62C576.48,-329.6 578.22,-266.4 563,-216 562.29,-213.66 494.41,-96.97 463.75,-44.31"/>
<polygon fill="black" stroke="black" points="466.7,-42.44 458.65,-35.56 460.66,-45.96 466.7,-42.44"/>
</g>
<!-- RegisteredCurrencies&#45;&gt;DiemTimestamp -->
<g id="edge41" class="edge">
<title>RegisteredCurrencies&#45;&gt;DiemTimestamp</title>
<path fill="none" stroke="black" d="M553.68,-360.42C527.05,-337.2 478.02,-293.23 440,-252 421.12,-231.52 401.51,-206.62 387.69,-188.36"/>
<polygon fill="black" stroke="black" points="390.21,-185.88 381.4,-179.99 384.61,-190.09 390.21,-185.88"/>
</g>
<!-- RegisteredCurrencies&#45;&gt;Roles -->
<g id="edge42" class="edge">
<title>RegisteredCurrencies&#45;&gt;Roles</title>
<path fill="none" stroke="black" d="M566.97,-359.87C558.36,-335.43 542.48,-290.33 532.35,-261.55"/>
<polygon fill="black" stroke="black" points="535.52,-260.02 528.9,-251.75 528.92,-262.34 535.52,-260.02"/>
</g>
<!-- RegisteredCurrencies&#45;&gt;Vector -->
<g id="edge43" class="edge">
<title>RegisteredCurrencies&#45;&gt;Vector</title>
<path fill="none" stroke="black" d="M627.31,-363.87C657.63,-355.18 695.35,-342.03 726,-324 791.24,-285.63 853.98,-221.31 885.3,-186.73"/>
<polygon fill="black" stroke="black" points="888.15,-188.79 892.21,-179.01 882.94,-184.12 888.15,-188.79"/>
</g>
<!-- DiemConfig -->
<g id="node16" class="node">
<title>DiemConfig</title>
<ellipse fill="none" stroke="black" cx="662" cy="-306" rx="54.69" ry="18"/>
<text text-anchor="middle" x="662" y="-302.3" font-family="Times,serif" font-size="14.00">DiemConfig</text>
</g>
<!-- RegisteredCurrencies&#45;&gt;DiemConfig -->
<g id="edge44" class="edge">
<title>RegisteredCurrencies&#45;&gt;DiemConfig</title>
<path fill="none" stroke="black" d="M594.09,-360.41C605.98,-351.06 620.99,-339.25 633.87,-329.12"/>
<polygon fill="black" stroke="black" points="636.28,-331.68 641.98,-322.75 631.95,-326.18 636.28,-331.68"/>
</g>
<!-- AccountLimits&#45;&gt;Errors -->
<g id="edge46" class="edge">
<title>AccountLimits&#45;&gt;Errors</title>
<path fill="none" stroke="black" d="M200.99,-288.26C194.58,-278.26 187.33,-265.01 184,-252 168.69,-192.11 204.07,-85.84 218,-72 244.29,-45.87 348.01,-30.27 407.14,-23.32"/>
<polygon fill="black" stroke="black" points="407.74,-26.77 417.28,-22.16 406.94,-19.82 407.74,-26.77"/>
</g>
<!-- AccountLimits&#45;&gt;DiemTimestamp -->
<g id="edge47" class="edge">
<title>AccountLimits&#45;&gt;DiemTimestamp</title>
<path fill="none" stroke="black" d="M227.29,-288.45C243.59,-269.96 271.45,-239.52 298,-216 310.26,-205.15 324.59,-194.15 337.16,-185.02"/>
<polygon fill="black" stroke="black" points="339.45,-187.69 345.54,-179.01 335.37,-182 339.45,-187.69"/>
</g>
<!-- AccountLimits&#45;&gt;Roles -->
<g id="edge48" class="edge">
<title>AccountLimits&#45;&gt;Roles</title>
<path fill="none" stroke="black" d="M261.1,-294.14C322.74,-280.22 428.35,-256.37 484.79,-243.63"/>
<polygon fill="black" stroke="black" points="485.75,-247 494.74,-241.38 484.21,-240.17 485.75,-247"/>
</g>
<!-- AccountLimits&#45;&gt;Signer -->
<g id="edge45" class="edge">
<title>AccountLimits&#45;&gt;Signer</title>
<path fill="none" stroke="black" d="M216.23,-287.83C223.34,-254.91 243.45,-182.76 289,-144 404.79,-45.46 594.18,-24.48 679.23,-20.1"/>
<polygon fill="black" stroke="black" points="679.49,-23.59 689.32,-19.64 679.16,-16.6 679.49,-23.59"/>
</g>
<!-- DiemConfig&#45;&gt;Errors -->
<g id="edge50" class="edge">
<title>DiemConfig&#45;&gt;Errors</title>
<path fill="none" stroke="black" d="M652.3,-288.22C628.96,-248.5 566.7,-146.49 501,-72 491.72,-61.47 480.92,-50.31 471.58,-40.96"/>
<polygon fill="black" stroke="black" points="474.02,-38.45 464.46,-33.9 469.09,-43.42 474.02,-38.45"/>
</g>
<!-- DiemConfig&#45;&gt;CoreAddresses -->
<g id="edge51" class="edge">
<title>DiemConfig&#45;&gt;CoreAddresses</title>
<path fill="none" stroke="black" d="M670.4,-288.21C688.98,-251.03 733.73,-161.55 755.98,-117.04"/>
<polygon fill="black" stroke="black" points="759.15,-118.52 760.49,-108.01 752.89,-115.39 759.15,-118.52"/>
</g>
<!-- DiemConfig&#45;&gt;DiemTimestamp -->
<g id="edge52" class="edge">
<title>DiemConfig&#45;&gt;DiemTimestamp</title>
<path fill="none" stroke="black" d="M615.11,-296.61C577.77,-288.66 524.98,-274.52 483,-252 461.04,-240.22 459.55,-231.46 440,-216 426.96,-205.69 412.28,-194.64 399.67,-185.31"/>
<polygon fill="black" stroke="black" points="401.44,-182.27 391.31,-179.16 397.29,-187.91 401.44,-182.27"/>
</g>
<!-- DiemConfig&#45;&gt;Roles -->
<g id="edge53" class="edge">
<title>DiemConfig&#45;&gt;Roles</title>
<path fill="none" stroke="black" d="M633.2,-290.5C610.41,-279.02 578.62,-263.01 555.04,-251.13"/>
<polygon fill="black" stroke="black" points="556.31,-247.85 545.8,-246.48 553.16,-254.11 556.31,-247.85"/>
</g>
<!-- DiemConfig&#45;&gt;Signer -->
<g id="edge49" class="edge">
<title>DiemConfig&#45;&gt;Signer</title>
<path fill="none" stroke="black" d="M662.6,-287.91C664.37,-248.79 671.15,-150.11 696,-72 698.96,-62.71 703.41,-53.05 707.85,-44.58"/>
<polygon fill="black" stroke="black" points="711.04,-46.03 712.77,-35.58 704.9,-42.67 711.04,-46.03"/>
</g>
<!-- DiemConfig&#45;&gt;Event -->
<g id="edge54" class="edge">
<title>DiemConfig&#45;&gt;Event</title>
<path fill="none" stroke="black" d="M683.1,-289.12C696.63,-278.93 714.3,-265.63 728.73,-254.77"/>
<polygon fill="black" stroke="black" points="730.92,-257.51 736.8,-248.7 726.71,-251.91 730.92,-257.51"/>
</g>
</g>
</svg>
