<?xml version="1.0" encoding="UTF-8" standalone="no"?>
<!DOCTYPE svg PUBLIC "-//W3C//DTD SVG 1.1//EN"
 "http://www.w3.org/Graphics/SVG/1.1/DTD/svg11.dtd">
<!-- Generated by graphviz version 2.46.1 (20210213.1702)
 -->
<!-- Title: G Pages: 1 -->
<svg width="3246pt" height="606pt"
 viewBox="0.00 0.00 3246.39 606.00" xmlns="http://www.w3.org/2000/svg" xmlns:xlink="http://www.w3.org/1999/xlink">
<g id="graph0" class="graph" transform="scale(1 1) rotate(0) translate(4 602)">
<title>G</title>
<polygon fill="white" stroke="transparent" points="-4,4 -4,-602 3242.39,-602 3242.39,4 -4,4"/>
<g id="clust1" class="cluster">
<title>cluster_Errors</title>
<polygon fill="none" stroke="black" points="8,-80 8,-238 1220,-238 1220,-80 8,-80"/>
<text text-anchor="middle" x="614" y="-222.8" font-family="Times,serif" font-size="14.00">Errors</text>
</g>
<g id="clust2" class="cluster">
<title>cluster_CoreAddresses</title>
<polygon fill="none" stroke="black" points="1386,-80 1386,-238 2125,-238 2125,-80 1386,-80"/>
<text text-anchor="middle" x="1755.5" y="-222.8" font-family="Times,serif" font-size="14.00">CoreAddresses</text>
</g>
<g id="clust3" class="cluster">
<title>cluster_DiemTimestamp</title>
<polygon fill="none" stroke="black" points="1580,-246 1580,-396 1732,-396 1732,-246 1580,-246"/>
<text text-anchor="middle" x="1656" y="-380.8" font-family="Times,serif" font-size="14.00">DiemTimestamp</text>
</g>
<g id="clust4" class="cluster">
<title>cluster_Roles</title>
<polygon fill="none" stroke="black" points="1808,-246 1808,-321 2042,-321 2042,-246 1808,-246"/>
<text text-anchor="middle" x="1925" y="-305.8" font-family="Times,serif" font-size="14.00">Roles</text>
</g>
<g id="clust5" class="cluster">
<title>cluster_Diem</title>
<polygon fill="none" stroke="black" points="2133,-163 2133,-554 2804,-554 2804,-163 2133,-163"/>
<text text-anchor="middle" x="2468.5" y="-538.8" font-family="Times,serif" font-size="14.00">Diem</text>
</g>
<g id="clust6" class="cluster">
<title>cluster_XDX</title>
<polygon fill="none" stroke="black" points="2956,-404 2956,-479 3040,-479 3040,-404 2956,-404"/>
<text text-anchor="middle" x="2998" y="-463.8" font-family="Times,serif" font-size="14.00">XDX</text>
</g>
<g id="clust7" class="cluster">
<title>cluster_Signer</title>
<polygon fill="none" stroke="black" points="1228,-8 1228,-155 1378,-155 1378,-8 1228,-8"/>
<text text-anchor="middle" x="1303" y="-139.8" font-family="Times,serif" font-size="14.00">Signer</text>
</g>
<g id="clust8" class="cluster">
<title>cluster_Event</title>
<polygon fill="none" stroke="black" points="1128,-246 1128,-396 1314,-396 1314,-246 1128,-246"/>
<text text-anchor="middle" x="1221" y="-380.8" font-family="Times,serif" font-size="14.00">Event</text>
</g>
<!-- burn_fees -->
<g id="node1" class="node">
<title>burn_fees</title>
<ellipse fill="none" stroke="black" cx="2860" cy="-580" rx="45.49" ry="18"/>
<text text-anchor="middle" x="2860" y="-576.3" font-family="Times,serif" font-size="14.00">burn_fees</text>
</g>
<!-- Errors::invalid_state -->
<g id="node2" class="node">
<title>Errors::invalid_state</title>
<ellipse fill="none" stroke="black" cx="410" cy="-189" rx="55.79" ry="18"/>
<text text-anchor="middle" x="410" y="-185.3" font-family="Times,serif" font-size="14.00">invalid_state</text>
</g>
<!-- burn_fees&#45;&gt;Errors::invalid_state -->
<g id="edge1" class="edge">
<title>burn_fees&#45;&gt;Errors::invalid_state</title>
<path fill="none" stroke="black" d="M2814.5,-578.89C2555.26,-578.18 1270.11,-573.71 1095,-554 964.72,-539.33 518,-562.1 518,-431 518,-431 518,-431 518,-346 518,-290.28 470.84,-240.08 438.85,-212.44"/>
<polygon fill="black" stroke="black" points="440.99,-209.66 431.08,-205.9 436.48,-215.02 440.99,-209.66"/>
</g>
<!-- Errors::not_published -->
<g id="node3" class="node">
<title>Errors::not_published</title>
<ellipse fill="none" stroke="black" cx="994" cy="-189" rx="60.39" ry="18"/>
<text text-anchor="middle" x="994" y="-185.3" font-family="Times,serif" font-size="14.00">not_published</text>
</g>
<!-- burn_fees&#45;&gt;Errors::not_published -->
<g id="edge2" class="edge">
<title>burn_fees&#45;&gt;Errors::not_published</title>
<path fill="none" stroke="black" d="M2814.6,-578.61C2699.69,-577.37 2388.03,-572.44 2129,-554 2002.47,-544.99 994,-557.85 994,-431 994,-431 994,-431 994,-346 994,-300.94 994,-248.55 994,-217.4"/>
<polygon fill="black" stroke="black" points="997.5,-217.31 994,-207.31 990.5,-217.31 997.5,-217.31"/>
</g>
<!-- CoreAddresses::TREASURY_COMPLIANCE_ADDRESS -->
<g id="node4" class="node">
<title>CoreAddresses::TREASURY_COMPLIANCE_ADDRESS</title>
<ellipse fill="none" stroke="black" cx="1954" cy="-106" rx="163.27" ry="18"/>
<text text-anchor="middle" x="1954" y="-102.3" font-family="Times,serif" font-size="14.00">TREASURY_COMPLIANCE_ADDRESS</text>
</g>
<!-- burn_fees&#45;&gt;CoreAddresses::TREASURY_COMPLIANCE_ADDRESS -->
<g id="edge3" class="edge">
<title>burn_fees&#45;&gt;CoreAddresses::TREASURY_COMPLIANCE_ADDRESS</title>
<path fill="none" stroke="black" d="M2904.95,-577C2929.2,-574.21 2958.83,-567.92 2982,-554 3037.49,-520.66 3060,-495.73 3060,-431 3060,-431 3060,-431 3060,-271 3060,-149.15 2926.5,-191.39 2808,-163 2682.19,-132.85 2332.35,-117.81 2121.5,-111.27"/>
<polygon fill="black" stroke="black" points="2121.36,-107.76 2111.25,-110.95 2121.14,-114.76 2121.36,-107.76"/>
</g>
<!-- DiemTimestamp::assert_operating -->
<g id="node5" class="node">
<title>DiemTimestamp::assert_operating</title>
<ellipse fill="none" stroke="black" cx="1656" cy="-347" rx="68.49" ry="18"/>
<text text-anchor="middle" x="1656" y="-343.3" font-family="Times,serif" font-size="14.00">assert_operating</text>
</g>
<!-- burn_fees&#45;&gt;DiemTimestamp::assert_operating -->
<g id="edge4" class="edge">
<title>burn_fees&#45;&gt;DiemTimestamp::assert_operating</title>
<path fill="none" stroke="black" d="M2849.89,-562.35C2848.46,-559.62 2847.11,-556.77 2846,-554 2820.54,-490.12 2862.03,-446.54 2808,-404 2800.26,-397.91 2108.83,-396.59 2099,-396 1966.22,-388.08 1811.96,-369.14 1724.97,-357.56"/>
<polygon fill="black" stroke="black" points="1725.34,-354.08 1714.96,-356.22 1724.41,-361.02 1725.34,-354.08"/>
</g>
<!-- Roles::assert_treasury_compliance -->
<g id="node6" class="node">
<title>Roles::assert_treasury_compliance</title>
<ellipse fill="none" stroke="black" cx="1925" cy="-272" rx="108.58" ry="18"/>
<text text-anchor="middle" x="1925" y="-268.3" font-family="Times,serif" font-size="14.00">assert_treasury_compliance</text>
</g>
<!-- burn_fees&#45;&gt;Roles::assert_treasury_compliance -->
<g id="edge5" class="edge">
<title>burn_fees&#45;&gt;Roles::assert_treasury_compliance</title>
<path fill="none" stroke="black" d="M2863.93,-562.04C2871.04,-526.47 2881.42,-444.07 2836,-404 2821.27,-391.01 2147.89,-401.37 2129,-396 2059.47,-376.24 1989.79,-326.13 1952.58,-296.32"/>
<polygon fill="black" stroke="black" points="1954.67,-293.51 1944.7,-289.93 1950.26,-298.95 1954.67,-293.51"/>
</g>
<!-- Diem::burn_now -->
<g id="node7" class="node">
<title>Diem::burn_now</title>
<ellipse fill="none" stroke="black" cx="2420" cy="-505" rx="46.29" ry="18"/>
<text text-anchor="middle" x="2420" y="-501.3" font-family="Times,serif" font-size="14.00">burn_now</text>
</g>
<!-- burn_fees&#45;&gt;Diem::burn_now -->
<g id="edge6" class="edge">
<title>burn_fees&#45;&gt;Diem::burn_now</title>
<path fill="none" stroke="black" d="M2818.61,-572.13C2737.94,-558.75 2559.89,-529.21 2471.65,-514.57"/>
<polygon fill="black" stroke="black" points="2472.04,-511.09 2461.6,-512.9 2470.9,-517.99 2472.04,-511.09"/>
</g>
<!-- Diem::publish_burn_capability -->
<g id="node8" class="node">
<title>Diem::publish_burn_capability</title>
<ellipse fill="none" stroke="black" cx="2405" cy="-347" rx="96.38" ry="18"/>
<text text-anchor="middle" x="2405" y="-343.3" font-family="Times,serif" font-size="14.00">publish_burn_capability</text>
</g>
<!-- burn_fees&#45;&gt;Diem::publish_burn_capability -->
<g id="edge7" class="edge">
<title>burn_fees&#45;&gt;Diem::publish_burn_capability</title>
<path fill="none" stroke="black" d="M2870.86,-562.28C2872.15,-559.6 2873.27,-556.79 2874,-554 2890.83,-489.49 2920.62,-451.66 2874,-404 2859.89,-389.58 2530.67,-400.47 2511,-396 2486.85,-390.51 2461.53,-379.27 2441.69,-369.05"/>
<polygon fill="black" stroke="black" points="2443.17,-365.88 2432.7,-364.29 2439.9,-372.06 2443.17,-365.88"/>
</g>
<!-- Diem::remove_burn_capability -->
<g id="node9" class="node">
<title>Diem::remove_burn_capability</title>
<ellipse fill="none" stroke="black" cx="2238" cy="-505" rx="96.68" ry="18"/>
<text text-anchor="middle" x="2238" y="-501.3" font-family="Times,serif" font-size="14.00">remove_burn_capability</text>
</g>
<!-- burn_fees&#45;&gt;Diem::remove_burn_capability -->
<g id="edge8" class="edge">
<title>burn_fees&#45;&gt;Diem::remove_burn_capability</title>
<path fill="none" stroke="black" d="M2814.57,-578.5C2709.09,-577.06 2450.07,-571.77 2365,-554 2336.08,-547.96 2305.03,-536.32 2280.87,-526.02"/>
<polygon fill="black" stroke="black" points="2282.2,-522.78 2271.63,-522.01 2279.41,-529.2 2282.2,-522.78"/>
</g>
<!-- Diem::withdraw_all -->
<g id="node10" class="node">
<title>Diem::withdraw_all</title>
<ellipse fill="none" stroke="black" cx="2739" cy="-347" rx="57.39" ry="18"/>
<text text-anchor="middle" x="2739" y="-343.3" font-family="Times,serif" font-size="14.00">withdraw_all</text>
</g>
<!-- burn_fees&#45;&gt;Diem::withdraw_all -->
<g id="edge9" class="edge">
<title>burn_fees&#45;&gt;Diem::withdraw_all</title>
<path fill="none" stroke="black" d="M2895.49,-568.57C2902.04,-565.01 2908.05,-560.28 2912,-554 2947.49,-497.56 2951.22,-457.91 2912,-404 2908.21,-398.79 2839.01,-377.49 2789.29,-362.71"/>
<polygon fill="black" stroke="black" points="2790.22,-359.33 2779.64,-359.85 2788.23,-366.04 2790.22,-359.33"/>
</g>
<!-- XDX::is_xdx -->
<g id="node11" class="node">
<title>XDX::is_xdx</title>
<ellipse fill="none" stroke="black" cx="2998" cy="-430" rx="34.39" ry="18"/>
<text text-anchor="middle" x="2998" y="-426.3" font-family="Times,serif" font-size="14.00">is_xdx</text>
</g>
<!-- burn_fees&#45;&gt;XDX::is_xdx -->
<g id="edge10" class="edge">
<title>burn_fees&#45;&gt;XDX::is_xdx</title>
<path fill="none" stroke="black" d="M2903.81,-575.08C2919.96,-571.67 2937.37,-565.42 2950,-554 2977.75,-528.92 2989.62,-485.85 2994.59,-457.91"/>
<polygon fill="black" stroke="black" points="2998.05,-458.43 2996.17,-448 2991.14,-457.33 2998.05,-458.43"/>
</g>
<!-- is_coin_initialized -->
<g id="node12" class="node">
<title>is_coin_initialized</title>
<ellipse fill="none" stroke="black" cx="3163" cy="-505" rx="75.29" ry="18"/>
<text text-anchor="middle" x="3163" y="-501.3" font-family="Times,serif" font-size="14.00">is_coin_initialized</text>
</g>
<!-- burn_fees&#45;&gt;is_coin_initialized -->
<g id="edge11" class="edge">
<title>burn_fees&#45;&gt;is_coin_initialized</title>
<path fill="none" stroke="black" d="M2905.71,-578.61C2949.76,-577.1 3017.81,-571.72 3074,-554 3093.78,-547.76 3114.25,-537.06 3130.57,-527.35"/>
<polygon fill="black" stroke="black" points="3132.47,-530.28 3139.18,-522.08 3128.82,-524.31 3132.47,-530.28"/>
</g>
<!-- Errors::make -->
<g id="node13" class="node">
<title>Errors::make</title>
<ellipse fill="none" stroke="black" cx="628" cy="-106" rx="30.59" ry="18"/>
<text text-anchor="middle" x="628" y="-102.3" font-family="Times,serif" font-size="14.00">make</text>
</g>
<!-- Errors::invalid_state&#45;&gt;Errors::make -->
<g id="edge12" class="edge">
<title>Errors::invalid_state&#45;&gt;Errors::make</title>
<path fill="none" stroke="black" d="M444.37,-174.66C454.25,-170.86 465.04,-166.74 475,-163 515.38,-147.84 561.95,-130.87 593,-119.63"/>
<polygon fill="black" stroke="black" points="594.29,-122.88 602.51,-116.19 591.91,-116.3 594.29,-122.88"/>
</g>
<!-- Errors::not_published&#45;&gt;Errors::make -->
<g id="edge13" class="edge">
<title>Errors::not_published&#45;&gt;Errors::make</title>
<path fill="none" stroke="black" d="M958.73,-174.19C947.72,-170.21 935.46,-166.11 924,-163 833.72,-138.5 725.09,-120.9 667.83,-112.52"/>
<polygon fill="black" stroke="black" points="668.15,-109.02 657.76,-111.06 667.15,-115.95 668.15,-109.02"/>
</g>
<!-- DiemTimestamp::assert_operating&#45;&gt;Errors::invalid_state -->
<g id="edge14" class="edge">
<title>DiemTimestamp::assert_operating&#45;&gt;Errors::invalid_state</title>
<path fill="none" stroke="black" d="M1619.75,-331.63C1558.67,-308.25 1430.87,-262.89 1318,-246 1271.68,-239.07 519.42,-252.86 475,-238 459.8,-232.92 445.22,-222.81 433.73,-213.17"/>
<polygon fill="black" stroke="black" points="435.77,-210.3 425.95,-206.32 431.14,-215.56 435.77,-210.3"/>
</g>
<!-- DiemTimestamp::is_operating -->
<g id="node14" class="node">
<title>DiemTimestamp::is_operating</title>
<ellipse fill="none" stroke="black" cx="1662" cy="-272" rx="53.89" ry="18"/>
<text text-anchor="middle" x="1662" y="-268.3" font-family="Times,serif" font-size="14.00">is_operating</text>
</g>
<!-- DiemTimestamp::assert_operating&#45;&gt;DiemTimestamp::is_operating -->
<g id="edge15" class="edge">
<title>DiemTimestamp::assert_operating&#45;&gt;DiemTimestamp::is_operating</title>
<path fill="none" stroke="black" d="M1657.42,-328.7C1658.12,-320.25 1658.97,-309.87 1659.75,-300.37"/>
<polygon fill="black" stroke="black" points="1663.26,-300.43 1660.59,-290.18 1656.28,-299.86 1663.26,-300.43"/>
</g>
<!-- Roles::assert_treasury_compliance&#45;&gt;Errors::not_published -->
<g id="edge17" class="edge">
<title>Roles::assert_treasury_compliance&#45;&gt;Errors::not_published</title>
<path fill="none" stroke="black" d="M1866.54,-256.76C1846.24,-252.44 1823.24,-248.25 1802,-246 1761.17,-241.67 1102.11,-250.5 1063,-238 1046.96,-232.87 1031.37,-222.62 1019.07,-212.9"/>
<polygon fill="black" stroke="black" points="1021.06,-210 1011.12,-206.33 1016.6,-215.4 1021.06,-210"/>
</g>
<!-- Signer::address_of -->
<g id="node15" class="node">
<title>Signer::address_of</title>
<ellipse fill="none" stroke="black" cx="1321" cy="-106" rx="48.99" ry="18"/>
<text text-anchor="middle" x="1321" y="-102.3" font-family="Times,serif" font-size="14.00">address_of</text>
</g>
<!-- Roles::assert_treasury_compliance&#45;&gt;Signer::address_of -->
<g id="edge16" class="edge">
<title>Roles::assert_treasury_compliance&#45;&gt;Signer::address_of</title>
<path fill="none" stroke="black" d="M1866.22,-256.78C1845.99,-252.49 1823.12,-248.31 1802,-246 1789.57,-244.64 1361.74,-245.84 1352,-238 1321.55,-213.48 1317.66,-165.07 1318.62,-134.46"/>
<polygon fill="black" stroke="black" points="1322.12,-134.61 1319.12,-124.45 1315.12,-134.26 1322.12,-134.61"/>
</g>
<!-- Errors::requires_role -->
<g id="node16" class="node">
<title>Errors::requires_role</title>
<ellipse fill="none" stroke="black" cx="858" cy="-189" rx="57.39" ry="18"/>
<text text-anchor="middle" x="858" y="-185.3" font-family="Times,serif" font-size="14.00">requires_role</text>
</g>
<!-- Roles::assert_treasury_compliance&#45;&gt;Errors::requires_role -->
<g id="edge18" class="edge">
<title>Roles::assert_treasury_compliance&#45;&gt;Errors::requires_role</title>
<path fill="none" stroke="black" d="M1866.54,-256.74C1846.24,-252.42 1823.24,-248.23 1802,-246 1753.54,-240.9 971.32,-253.11 925,-238 909.31,-232.88 894.15,-222.62 882.23,-212.9"/>
<polygon fill="black" stroke="black" points="884.41,-210.16 874.53,-206.33 879.87,-215.48 884.41,-210.16"/>
</g>
<!-- CoreAddresses::assert_treasury_compliance -->
<g id="node17" class="node">
<title>CoreAddresses::assert_treasury_compliance</title>
<ellipse fill="none" stroke="black" cx="2008" cy="-189" rx="108.58" ry="18"/>
<text text-anchor="middle" x="2008" y="-185.3" font-family="Times,serif" font-size="14.00">assert_treasury_compliance</text>
</g>
<!-- Roles::assert_treasury_compliance&#45;&gt;CoreAddresses::assert_treasury_compliance -->
<g id="edge19" class="edge">
<title>Roles::assert_treasury_compliance&#45;&gt;CoreAddresses::assert_treasury_compliance</title>
<path fill="none" stroke="black" d="M1942.2,-254.22C1954.03,-242.67 1969.92,-227.16 1983.13,-214.27"/>
<polygon fill="black" stroke="black" points="1985.83,-216.53 1990.54,-207.04 1980.94,-211.52 1985.83,-216.53"/>
</g>
<!-- Errors::invalid_argument -->
<g id="node18" class="node">
<title>Errors::invalid_argument</title>
<ellipse fill="none" stroke="black" cx="263" cy="-189" rx="73.39" ry="18"/>
<text text-anchor="middle" x="263" y="-185.3" font-family="Times,serif" font-size="14.00">invalid_argument</text>
</g>
<!-- Diem::burn_now&#45;&gt;Errors::invalid_argument -->
<g id="edge20" class="edge">
<title>Diem::burn_now&#45;&gt;Errors::invalid_argument</title>
<path fill="none" stroke="black" d="M2382.74,-494.24C2370.49,-491.42 2356.74,-488.65 2344,-487 2250.49,-474.88 2226.14,-484.35 2132,-479 1693.22,-454.04 1584.64,-431.25 1146,-404 1072.28,-399.42 1053.05,-406.95 980,-396 860.71,-378.12 834.03,-358.22 717,-329 551.86,-287.77 502.76,-301.88 345,-238 327.78,-231.03 309.84,-220.9 295.15,-211.74"/>
<polygon fill="black" stroke="black" points="296.77,-208.62 286.45,-206.2 293.01,-214.53 296.77,-208.62"/>
</g>
<!-- Diem::burn_with_resource_cap -->
<g id="node19" class="node">
<title>Diem::burn_with_resource_cap</title>
<ellipse fill="none" stroke="black" cx="2441" cy="-430" rx="97.48" ry="18"/>
<text text-anchor="middle" x="2441" y="-426.3" font-family="Times,serif" font-size="14.00">burn_with_resource_cap</text>
</g>
<!-- Diem::burn_now&#45;&gt;Diem::burn_with_resource_cap -->
<g id="edge21" class="edge">
<title>Diem::burn_now&#45;&gt;Diem::burn_with_resource_cap</title>
<path fill="none" stroke="black" d="M2424.87,-487.07C2427.37,-478.38 2430.47,-467.59 2433.29,-457.8"/>
<polygon fill="black" stroke="black" points="2436.68,-458.67 2436.08,-448.09 2429.95,-456.73 2436.68,-458.67"/>
</g>
<!-- Diem::preburn_with_resource -->
<g id="node20" class="node">
<title>Diem::preburn_with_resource</title>
<ellipse fill="none" stroke="black" cx="2233" cy="-430" rx="92.08" ry="18"/>
<text text-anchor="middle" x="2233" y="-426.3" font-family="Times,serif" font-size="14.00">preburn_with_resource</text>
</g>
<!-- Diem::burn_now&#45;&gt;Diem::preburn_with_resource -->
<g id="edge22" class="edge">
<title>Diem::burn_now&#45;&gt;Diem::preburn_with_resource</title>
<path fill="none" stroke="black" d="M2382.35,-494.27C2367.44,-490.07 2350.24,-484.79 2335,-479 2314.18,-471.09 2291.72,-460.73 2273.19,-451.66"/>
<polygon fill="black" stroke="black" points="2274.68,-448.49 2264.16,-447.19 2271.57,-454.77 2274.68,-448.49"/>
</g>
<!-- Diem::publish_burn_capability&#45;&gt;Roles::assert_treasury_compliance -->
<g id="edge25" class="edge">
<title>Diem::publish_burn_capability&#45;&gt;Roles::assert_treasury_compliance</title>
<path fill="none" stroke="black" d="M2338.51,-333.91C2325.77,-331.97 2312.5,-330.21 2300,-329 2244.23,-323.62 2102.89,-332.24 2048,-321 2019.97,-315.26 1990.04,-303.71 1966.72,-293.38"/>
<polygon fill="black" stroke="black" points="1968.03,-290.13 1957.48,-289.2 1965.15,-296.51 1968.03,-290.13"/>
</g>
<!-- Diem::publish_burn_capability&#45;&gt;Signer::address_of -->
<g id="edge23" class="edge">
<title>Diem::publish_burn_capability&#45;&gt;Signer::address_of</title>
<path fill="none" stroke="black" d="M2338.51,-333.95C2325.76,-332.01 2312.5,-330.23 2300,-329 2287.61,-327.78 2086.19,-328.16 2076,-321 2046.64,-300.35 2075.61,-266.31 2046,-246 2015.58,-225.13 1412.77,-258.35 1382,-238 1351.62,-217.92 1364.48,-195.96 1349,-163 1344.4,-153.22 1339.15,-142.58 1334.45,-133.23"/>
<polygon fill="black" stroke="black" points="1337.44,-131.39 1329.8,-124.05 1331.19,-134.55 1337.44,-131.39"/>
</g>
<!-- Errors::already_published -->
<g id="node21" class="node">
<title>Errors::already_published</title>
<ellipse fill="none" stroke="black" cx="707" cy="-189" rx="75.29" ry="18"/>
<text text-anchor="middle" x="707" y="-185.3" font-family="Times,serif" font-size="14.00">already_published</text>
</g>
<!-- Diem::publish_burn_capability&#45;&gt;Errors::already_published -->
<g id="edge24" class="edge">
<title>Diem::publish_burn_capability&#45;&gt;Errors::already_published</title>
<path fill="none" stroke="black" d="M2339.09,-333.84C2326.17,-331.88 2312.69,-330.12 2300,-329 2286.27,-327.78 1815.56,-328.5 1804,-321 1773.13,-300.99 1799.95,-265.89 1769,-246 1746.17,-231.33 818.22,-245.01 792,-238 772.56,-232.81 752.88,-222.11 737.35,-212.13"/>
<polygon fill="black" stroke="black" points="738.99,-209.01 728.72,-206.38 735.11,-214.84 738.99,-209.01"/>
</g>
<!-- Diem::assert_is_currency -->
<g id="node22" class="node">
<title>Diem::assert_is_currency</title>
<ellipse fill="none" stroke="black" cx="2454" cy="-272" rx="76.09" ry="18"/>
<text text-anchor="middle" x="2454" y="-268.3" font-family="Times,serif" font-size="14.00">assert_is_currency</text>
</g>
<!-- Diem::publish_burn_capability&#45;&gt;Diem::assert_is_currency -->
<g id="edge26" class="edge">
<title>Diem::publish_burn_capability&#45;&gt;Diem::assert_is_currency</title>
<path fill="none" stroke="black" d="M2416.36,-329.07C2422.49,-319.95 2430.16,-308.51 2436.98,-298.35"/>
<polygon fill="black" stroke="black" points="2440.03,-300.09 2442.7,-289.84 2434.22,-296.19 2440.03,-300.09"/>
</g>
<!-- Diem::remove_burn_capability&#45;&gt;Signer::address_of -->
<g id="edge27" class="edge">
<title>Diem::remove_burn_capability&#45;&gt;Signer::address_of</title>
<path fill="none" stroke="black" d="M2151.26,-496.99C1983.67,-482.51 1621.87,-446.37 1508,-396 1406.62,-351.16 1362.46,-338.18 1315,-238 1299.27,-204.8 1305.76,-161.39 1312.7,-133.85"/>
<polygon fill="black" stroke="black" points="1316.1,-134.69 1315.34,-124.12 1309.34,-132.86 1316.1,-134.69"/>
</g>
<!-- Errors::requires_capability -->
<g id="node23" class="node">
<title>Errors::requires_capability</title>
<ellipse fill="none" stroke="black" cx="94" cy="-189" rx="77.99" ry="18"/>
<text text-anchor="middle" x="94" y="-185.3" font-family="Times,serif" font-size="14.00">requires_capability</text>
</g>
<!-- Diem::remove_burn_capability&#45;&gt;Errors::requires_capability -->
<g id="edge28" class="edge">
<title>Diem::remove_burn_capability&#45;&gt;Errors::requires_capability</title>
<path fill="none" stroke="black" d="M2141.37,-503.44C1939.06,-501.94 1476.65,-496.63 1320,-479 1132.65,-457.91 1088.55,-434.57 904,-396 582.04,-328.71 488.87,-353.76 181,-238 162.64,-231.1 143.43,-220.86 127.75,-211.61"/>
<polygon fill="black" stroke="black" points="129.32,-208.47 118.95,-206.31 125.71,-214.47 129.32,-208.47"/>
</g>
<!-- Diem::withdraw -->
<g id="node24" class="node">
<title>Diem::withdraw</title>
<ellipse fill="none" stroke="black" cx="2641" cy="-272" rx="44.39" ry="18"/>
<text text-anchor="middle" x="2641" y="-268.3" font-family="Times,serif" font-size="14.00">withdraw</text>
</g>
<!-- Diem::withdraw_all&#45;&gt;Diem::withdraw -->
<g id="edge29" class="edge">
<title>Diem::withdraw_all&#45;&gt;Diem::withdraw</title>
<path fill="none" stroke="black" d="M2717.74,-330.16C2703.58,-319.62 2684.82,-305.64 2669.4,-294.15"/>
<polygon fill="black" stroke="black" points="2671.33,-291.23 2661.22,-288.06 2667.15,-296.84 2671.33,-291.23"/>
</g>
<!-- Diem::currency_code -->
<g id="node25" class="node">
<title>Diem::currency_code</title>
<ellipse fill="none" stroke="black" cx="2582" cy="-347" rx="62.29" ry="18"/>
<text text-anchor="middle" x="2582" y="-343.3" font-family="Times,serif" font-size="14.00">currency_code</text>
</g>
<!-- XDX::is_xdx&#45;&gt;Diem::currency_code -->
<g id="edge30" class="edge">
<title>XDX::is_xdx&#45;&gt;Diem::currency_code</title>
<path fill="none" stroke="black" d="M2970.51,-419.11C2953.83,-413.58 2931.96,-407.18 2912,-404 2859.52,-395.63 2724.36,-409.63 2673,-396 2652.17,-390.47 2630.76,-379.49 2613.94,-369.43"/>
<polygon fill="black" stroke="black" points="2615.46,-366.25 2605.11,-363.97 2611.78,-372.2 2615.46,-366.25"/>
</g>
<!-- Diem::is_currency -->
<g id="node26" class="node">
<title>Diem::is_currency</title>
<ellipse fill="none" stroke="black" cx="2454" cy="-189" rx="51.99" ry="18"/>
<text text-anchor="middle" x="2454" y="-185.3" font-family="Times,serif" font-size="14.00">is_currency</text>
</g>
<!-- XDX::is_xdx&#45;&gt;Diem::is_currency -->
<g id="edge31" class="edge">
<title>XDX::is_xdx&#45;&gt;Diem::is_currency</title>
<path fill="none" stroke="black" d="M2979.2,-414.76C2933.13,-380.54 2809.87,-293.03 2694,-246 2633.91,-221.61 2560.85,-206.47 2511.24,-198.18"/>
<polygon fill="black" stroke="black" points="2511.77,-194.72 2501.33,-196.56 2510.64,-201.63 2511.77,-194.72"/>
</g>
<!-- is_coin_initialized&#45;&gt;CoreAddresses::TREASURY_COMPLIANCE_ADDRESS -->
<g id="edge32" class="edge">
<title>is_coin_initialized&#45;&gt;CoreAddresses::TREASURY_COMPLIANCE_ADDRESS</title>
<path fill="none" stroke="black" d="M3156.95,-486.94C3147.42,-458.51 3130,-399.49 3130,-348 3130,-348 3130,-348 3130,-271 3130,-216.93 3119.49,-192.23 3074,-163 2996.58,-113.25 2422.6,-106.44 2127.76,-106.28"/>
<polygon fill="black" stroke="black" points="2127.39,-102.78 2117.39,-106.28 2127.39,-109.78 2127.39,-102.78"/>
</g>
<!-- CoreAddresses::DIEM_ROOT_ADDRESS -->
<g id="node27" class="node">
<title>CoreAddresses::DIEM_ROOT_ADDRESS</title>
<ellipse fill="none" stroke="black" cx="1775" cy="-189" rx="106.68" ry="18"/>
<text text-anchor="middle" x="1775" y="-185.3" font-family="Times,serif" font-size="14.00">DIEM_ROOT_ADDRESS</text>
</g>
<!-- DiemTimestamp::is_operating&#45;&gt;CoreAddresses::DIEM_ROOT_ADDRESS -->
<g id="edge33" class="edge">
<title>DiemTimestamp::is_operating&#45;&gt;CoreAddresses::DIEM_ROOT_ADDRESS</title>
<path fill="none" stroke="black" d="M1683.79,-255.38C1700.69,-243.26 1724.37,-226.29 1743.37,-212.67"/>
<polygon fill="black" stroke="black" points="1745.63,-215.36 1751.72,-206.69 1741.56,-209.67 1745.63,-215.36"/>
</g>
<!-- Signer::borrow_address -->
<g id="node28" class="node">
<title>Signer::borrow_address</title>
<ellipse fill="none" stroke="black" cx="1303" cy="-34" rx="66.89" ry="18"/>
<text text-anchor="middle" x="1303" y="-30.3" font-family="Times,serif" font-size="14.00">borrow_address</text>
</g>
<!-- Signer::address_of&#45;&gt;Signer::borrow_address -->
<g id="edge34" class="edge">
<title>Signer::address_of&#45;&gt;Signer::borrow_address</title>
<path fill="none" stroke="black" d="M1316.64,-88.05C1314.64,-80.26 1312.21,-70.82 1309.96,-62.08"/>
<polygon fill="black" stroke="black" points="1313.32,-61.09 1307.44,-52.28 1306.54,-62.83 1313.32,-61.09"/>
</g>
<!-- Errors::requires_role&#45;&gt;Errors::make -->
<g id="edge35" class="edge">
<title>Errors::requires_role&#45;&gt;Errors::make</title>
<path fill="none" stroke="black" d="M822.94,-174.72C812.67,-170.88 801.4,-166.73 791,-163 747.35,-147.36 696.81,-130.13 663.73,-118.97"/>
<polygon fill="black" stroke="black" points="664.64,-115.59 654.05,-115.71 662.41,-122.22 664.64,-115.59"/>
</g>
<!-- CoreAddresses::assert_treasury_compliance&#45;&gt;CoreAddresses::TREASURY_COMPLIANCE_ADDRESS -->
<g id="edge38" class="edge">
<title>CoreAddresses::assert_treasury_compliance&#45;&gt;CoreAddresses::TREASURY_COMPLIANCE_ADDRESS</title>
<path fill="none" stroke="black" d="M1996.55,-170.82C1989.17,-159.76 1979.45,-145.18 1971.16,-132.75"/>
<polygon fill="black" stroke="black" points="1973.89,-130.53 1965.44,-124.15 1968.07,-134.42 1973.89,-130.53"/>
</g>
<!-- CoreAddresses::assert_treasury_compliance&#45;&gt;Signer::address_of -->
<g id="edge36" class="edge">
<title>CoreAddresses::assert_treasury_compliance&#45;&gt;Signer::address_of</title>
<path fill="none" stroke="black" d="M1951.53,-173.61C1932.44,-169.37 1910.92,-165.26 1891,-163 1862.9,-159.81 1408.65,-164.46 1382,-155 1367.63,-149.9 1354.05,-139.93 1343.36,-130.39"/>
<polygon fill="black" stroke="black" points="1345.47,-127.57 1335.79,-123.27 1340.67,-132.67 1345.47,-127.57"/>
</g>
<!-- Errors::requires_address -->
<g id="node29" class="node">
<title>Errors::requires_address</title>
<ellipse fill="none" stroke="black" cx="1142" cy="-189" rx="69.59" ry="18"/>
<text text-anchor="middle" x="1142" y="-185.3" font-family="Times,serif" font-size="14.00">requires_address</text>
</g>
<!-- CoreAddresses::assert_treasury_compliance&#45;&gt;Errors::requires_address -->
<g id="edge37" class="edge">
<title>CoreAddresses::assert_treasury_compliance&#45;&gt;Errors::requires_address</title>
<path fill="none" stroke="black" d="M1976.76,-206.28C1951.92,-218.98 1915.85,-235.17 1882,-242 1855.26,-247.39 1418.13,-244.86 1391,-242 1324.45,-235 1249.52,-217.74 1199.4,-204.8"/>
<polygon fill="black" stroke="black" points="1200.28,-201.42 1189.72,-202.28 1198.51,-208.19 1200.28,-201.42"/>
</g>
<!-- Errors::invalid_argument&#45;&gt;Errors::make -->
<g id="edge39" class="edge">
<title>Errors::invalid_argument&#45;&gt;Errors::make</title>
<path fill="none" stroke="black" d="M305.33,-174.21C318.02,-170.31 332.01,-166.26 345,-163 431.26,-141.37 534,-122.81 588.87,-113.46"/>
<polygon fill="black" stroke="black" points="589.58,-116.89 598.86,-111.77 588.42,-109.99 589.58,-116.89"/>
</g>
<!-- Diem::burn_with_resource_cap&#45;&gt;Errors::invalid_state -->
<g id="edge40" class="edge">
<title>Diem::burn_with_resource_cap&#45;&gt;Errors::invalid_state</title>
<path fill="none" stroke="black" d="M2389.98,-414.63C2372.39,-410.34 2352.47,-406.19 2334,-404 2316.76,-401.96 1099.51,-403.8 1084,-396 1009.42,-358.51 1045.39,-283.85 971,-246 946.44,-233.5 501.11,-246.83 475,-238 459.82,-232.86 445.24,-222.75 433.75,-213.13"/>
<polygon fill="black" stroke="black" points="435.78,-210.26 425.96,-206.28 431.16,-215.51 435.78,-210.26"/>
</g>
<!-- Diem::burn_with_resource_cap&#45;&gt;Diem::withdraw_all -->
<g id="edge46" class="edge">
<title>Diem::burn_with_resource_cap&#45;&gt;Diem::withdraw_all</title>
<path fill="none" stroke="black" d="M2534.52,-424.88C2576.45,-420.66 2625.85,-412.32 2668,-396 2683.67,-389.93 2699.33,-379.88 2711.94,-370.53"/>
<polygon fill="black" stroke="black" points="2714.35,-373.1 2720.15,-364.23 2710.09,-367.55 2714.35,-373.1"/>
</g>
<!-- Diem::burn_with_resource_cap&#45;&gt;Diem::assert_is_currency -->
<g id="edge45" class="edge">
<title>Diem::burn_with_resource_cap&#45;&gt;Diem::assert_is_currency</title>
<path fill="none" stroke="black" d="M2536.23,-426.01C2585.11,-422.26 2637.58,-414 2653,-396 2672.37,-373.38 2672.73,-351.31 2653,-329 2643.36,-318.1 2602.16,-324.36 2588,-321 2557.51,-313.76 2524.35,-301.91 2498.65,-291.8"/>
<polygon fill="black" stroke="black" points="2499.77,-288.48 2489.18,-288.03 2497.17,-294.98 2499.77,-288.48"/>
</g>
<!-- Diem::burn_with_resource_cap&#45;&gt;Diem::currency_code -->
<g id="edge44" class="edge">
<title>Diem::burn_with_resource_cap&#45;&gt;Diem::currency_code</title>
<path fill="none" stroke="black" d="M2476.6,-413.16C2487.48,-408 2499.38,-402.04 2510,-396 2524.01,-388.04 2538.91,-378.32 2551.51,-369.72"/>
<polygon fill="black" stroke="black" points="2553.58,-372.54 2559.82,-363.98 2549.6,-366.78 2553.58,-372.54"/>
</g>
<!-- Errors::limit_exceeded -->
<g id="node30" class="node">
<title>Errors::limit_exceeded</title>
<ellipse fill="none" stroke="black" cx="549" cy="-189" rx="64.99" ry="18"/>
<text text-anchor="middle" x="549" y="-185.3" font-family="Times,serif" font-size="14.00">limit_exceeded</text>
</g>
<!-- Diem::burn_with_resource_cap&#45;&gt;Errors::limit_exceeded -->
<g id="edge41" class="edge">
<title>Diem::burn_with_resource_cap&#45;&gt;Errors::limit_exceeded</title>
<path fill="none" stroke="black" d="M2389.98,-414.64C2372.39,-410.34 2352.47,-406.19 2334,-404 2317.31,-402.02 1138.59,-404.34 1124,-396 1093.9,-378.78 1104.03,-357.31 1084,-329 1056.29,-289.84 1058.22,-266.82 1015,-246 975.75,-227.1 664.65,-250.79 623,-238 605.95,-232.76 589.09,-222.36 575.79,-212.56"/>
<polygon fill="black" stroke="black" points="577.65,-209.59 567.59,-206.28 573.4,-215.14 577.65,-209.59"/>
</g>
<!-- CoreAddresses::CURRENCY_INFO_ADDRESS -->
<g id="node31" class="node">
<title>CoreAddresses::CURRENCY_INFO_ADDRESS</title>
<ellipse fill="none" stroke="black" cx="1522" cy="-189" rx="128.08" ry="18"/>
<text text-anchor="middle" x="1522" y="-185.3" font-family="Times,serif" font-size="14.00">CURRENCY_INFO_ADDRESS</text>
</g>
<!-- Diem::burn_with_resource_cap&#45;&gt;CoreAddresses::CURRENCY_INFO_ADDRESS -->
<g id="edge42" class="edge">
<title>Diem::burn_with_resource_cap&#45;&gt;CoreAddresses::CURRENCY_INFO_ADDRESS</title>
<path fill="none" stroke="black" d="M2389.7,-414.61C2372.18,-410.34 2352.37,-406.22 2334,-404 2313.09,-401.48 1592.6,-408.95 1576,-396 1547.83,-374.03 1531.42,-267.83 1525.07,-217.1"/>
<polygon fill="black" stroke="black" points="1528.54,-216.67 1523.86,-207.17 1521.59,-217.51 1528.54,-216.67"/>
</g>
<!-- Event::emit_event -->
<g id="node32" class="node">
<title>Event::emit_event</title>
<ellipse fill="none" stroke="black" cx="1256" cy="-347" rx="50.09" ry="18"/>
<text text-anchor="middle" x="1256" y="-343.3" font-family="Times,serif" font-size="14.00">emit_event</text>
</g>
<!-- Diem::burn_with_resource_cap&#45;&gt;Event::emit_event -->
<g id="edge43" class="edge">
<title>Diem::burn_with_resource_cap&#45;&gt;Event::emit_event</title>
<path fill="none" stroke="black" d="M2389.71,-414.61C2372.18,-410.34 2352.37,-406.21 2334,-404 2247.07,-393.53 1633.23,-403.62 1546,-396 1462.07,-388.67 1365.79,-370.83 1307.99,-359.09"/>
<polygon fill="black" stroke="black" points="1308.5,-355.62 1298.01,-357.04 1307.1,-362.48 1308.5,-355.62"/>
</g>
<!-- Diem::preburn_with_resource&#45;&gt;Errors::invalid_state -->
<g id="edge47" class="edge">
<title>Diem::preburn_with_resource&#45;&gt;Errors::invalid_state</title>
<path fill="none" stroke="black" d="M2142.75,-426.13C1987.93,-421.26 1661.74,-411.19 1386,-404 1366.33,-403.49 1049.24,-405.48 1032,-396 961.79,-357.4 1002.31,-284.42 932,-246 909.72,-233.82 499.05,-246.15 475,-238 459.82,-232.85 445.24,-222.74 433.75,-213.12"/>
<polygon fill="black" stroke="black" points="435.79,-210.25 425.97,-206.27 431.17,-215.5 435.79,-210.25"/>
</g>
<!-- Diem::preburn_with_resource&#45;&gt;Diem::currency_code -->
<g id="edge52" class="edge">
<title>Diem::preburn_with_resource&#45;&gt;Diem::currency_code</title>
<path fill="none" stroke="black" d="M2282.68,-414.77C2299.2,-410.59 2317.77,-406.48 2335,-404 2373.53,-398.45 2473.01,-408.13 2510,-396 2526.51,-390.59 2542.8,-380.27 2555.7,-370.58"/>
<polygon fill="black" stroke="black" points="2557.93,-373.28 2563.65,-364.36 2553.62,-367.76 2557.93,-373.28"/>
</g>
<!-- Diem::preburn_with_resource&#45;&gt;Errors::limit_exceeded -->
<g id="edge48" class="edge">
<title>Diem::preburn_with_resource&#45;&gt;Errors::limit_exceeded</title>
<path fill="none" stroke="black" d="M2142.44,-426.26C1987.49,-421.6 1661.54,-411.84 1386,-404 1369.78,-403.54 1108.59,-403.11 1094,-396 1016.25,-358.09 1047.83,-283.74 970,-246 935.3,-229.17 659.85,-249.37 623,-238 605.96,-232.74 589.1,-222.33 575.79,-212.54"/>
<polygon fill="black" stroke="black" points="577.66,-209.57 567.59,-206.26 573.4,-215.12 577.66,-209.57"/>
</g>
<!-- Diem::preburn_with_resource&#45;&gt;CoreAddresses::CURRENCY_INFO_ADDRESS -->
<g id="edge49" class="edge">
<title>Diem::preburn_with_resource&#45;&gt;CoreAddresses::CURRENCY_INFO_ADDRESS</title>
<path fill="none" stroke="black" d="M2141.35,-427.71C1959.23,-424.72 1567.39,-415.98 1546,-396 1496.8,-350.03 1506.67,-261.3 1515.57,-216.81"/>
<polygon fill="black" stroke="black" points="1519,-217.51 1517.66,-207 1512.15,-216.05 1519,-217.51"/>
</g>
<!-- Diem::preburn_with_resource&#45;&gt;Event::emit_event -->
<g id="edge50" class="edge">
<title>Diem::preburn_with_resource&#45;&gt;Event::emit_event</title>
<path fill="none" stroke="black" d="M2141.85,-427.08C1968.49,-423.11 1597.25,-412.89 1470,-396 1412.34,-388.35 1347.3,-372.74 1304.21,-361.39"/>
<polygon fill="black" stroke="black" points="1304.85,-357.94 1294.29,-358.75 1303.05,-364.7 1304.85,-357.94"/>
</g>
<!-- Diem::value -->
<g id="node33" class="node">
<title>Diem::value</title>
<ellipse fill="none" stroke="black" cx="2261" cy="-347" rx="29.8" ry="18"/>
<text text-anchor="middle" x="2261" y="-343.3" font-family="Times,serif" font-size="14.00">value</text>
</g>
<!-- Diem::preburn_with_resource&#45;&gt;Diem::value -->
<g id="edge51" class="edge">
<title>Diem::preburn_with_resource&#45;&gt;Diem::value</title>
<path fill="none" stroke="black" d="M2238.94,-411.82C2242.68,-401.01 2247.58,-386.84 2251.81,-374.59"/>
<polygon fill="black" stroke="black" points="2255.21,-375.47 2255.17,-364.88 2248.59,-373.18 2255.21,-375.47"/>
</g>
<!-- Diem::deposit -->
<g id="node34" class="node">
<title>Diem::deposit</title>
<ellipse fill="none" stroke="black" cx="2177" cy="-347" rx="36.29" ry="18"/>
<text text-anchor="middle" x="2177" y="-343.3" font-family="Times,serif" font-size="14.00">deposit</text>
</g>
<!-- Diem::preburn_with_resource&#45;&gt;Diem::deposit -->
<g id="edge53" class="edge">
<title>Diem::preburn_with_resource&#45;&gt;Diem::deposit</title>
<path fill="none" stroke="black" d="M2221.12,-411.82C2213.25,-400.43 2202.78,-385.3 2194.03,-372.63"/>
<polygon fill="black" stroke="black" points="2196.85,-370.56 2188.29,-364.32 2191.09,-374.54 2196.85,-370.56"/>
</g>
<!-- Errors::already_published&#45;&gt;Errors::make -->
<g id="edge54" class="edge">
<title>Errors::already_published&#45;&gt;Errors::make</title>
<path fill="none" stroke="black" d="M690.63,-171.22C678.77,-159.05 662.61,-142.48 649.67,-129.22"/>
<polygon fill="black" stroke="black" points="651.98,-126.57 642.49,-121.86 646.96,-131.46 651.98,-126.57"/>
</g>
<!-- Diem::assert_is_currency&#45;&gt;Errors::not_published -->
<g id="edge55" class="edge">
<title>Diem::assert_is_currency&#45;&gt;Errors::not_published</title>
<path fill="none" stroke="black" d="M2382.93,-265.5C2301.57,-259.47 2164.27,-250.1 2046,-246 2018.71,-245.05 1089.02,-246.28 1063,-238 1046.96,-232.9 1031.36,-222.64 1019.06,-212.92"/>
<polygon fill="black" stroke="black" points="1021.05,-210.02 1011.11,-206.34 1016.59,-215.41 1021.05,-210.02"/>
</g>
<!-- Diem::assert_is_currency&#45;&gt;Diem::is_currency -->
<g id="edge56" class="edge">
<title>Diem::assert_is_currency&#45;&gt;Diem::is_currency</title>
<path fill="none" stroke="black" d="M2454,-253.82C2454,-243.19 2454,-229.31 2454,-217.2"/>
<polygon fill="black" stroke="black" points="2457.5,-217.15 2454,-207.15 2450.5,-217.15 2457.5,-217.15"/>
</g>
<!-- Errors::requires_capability&#45;&gt;Errors::make -->
<g id="edge57" class="edge">
<title>Errors::requires_capability&#45;&gt;Errors::make</title>
<path fill="none" stroke="black" d="M137.93,-173.94C151.62,-169.95 166.84,-165.9 181,-163 329.18,-132.62 508.59,-116.18 587.47,-109.96"/>
<polygon fill="black" stroke="black" points="588.22,-113.41 597.92,-109.15 587.68,-106.43 588.22,-113.41"/>
</g>
<!-- Diem::withdraw&#45;&gt;Errors::limit_exceeded -->
<g id="edge58" class="edge">
<title>Diem::withdraw&#45;&gt;Errors::limit_exceeded</title>
<path fill="none" stroke="black" d="M2606.91,-260.5C2587.27,-255 2561.98,-248.82 2539,-246 2486.17,-239.51 674,-253.21 623,-238 605.91,-232.9 589.05,-222.51 575.75,-212.69"/>
<polygon fill="black" stroke="black" points="577.62,-209.71 567.56,-206.38 573.35,-215.26 577.62,-209.71"/>
</g>
<!-- Diem::currency_code&#45;&gt;Diem::assert_is_currency -->
<g id="edge60" class="edge">
<title>Diem::currency_code&#45;&gt;Diem::assert_is_currency</title>
<path fill="none" stroke="black" d="M2555.17,-330.7C2536.39,-319.99 2511.09,-305.56 2490.48,-293.81"/>
<polygon fill="black" stroke="black" points="2492.1,-290.7 2481.68,-288.79 2488.63,-296.78 2492.1,-290.7"/>
</g>
<!-- Diem::currency_code&#45;&gt;CoreAddresses::CURRENCY_INFO_ADDRESS -->
<g id="edge59" class="edge">
<title>Diem::currency_code&#45;&gt;CoreAddresses::CURRENCY_INFO_ADDRESS</title>
<path fill="none" stroke="black" d="M2537.68,-334.25C2528.58,-332.2 2519.02,-330.31 2510,-329 2447.88,-319.98 2431.03,-330.61 2369,-321 2236.16,-300.43 2209.2,-264.08 2076,-246 1984.16,-233.54 1750.22,-254.42 1659,-238 1627.63,-232.35 1593.82,-220.57 1567.64,-210.09"/>
<polygon fill="black" stroke="black" points="1568.93,-206.84 1558.35,-206.31 1566.29,-213.32 1568.93,-206.84"/>
</g>
<!-- Diem::is_currency&#45;&gt;CoreAddresses::CURRENCY_INFO_ADDRESS -->
<g id="edge61" class="edge">
<title>Diem::is_currency&#45;&gt;CoreAddresses::CURRENCY_INFO_ADDRESS</title>
<path fill="none" stroke="black" d="M2409.43,-198.37C2345.64,-211.24 2224.48,-233.76 2120,-242 2094.97,-243.97 1692.73,-246.35 1668,-242 1633.28,-235.89 1595.95,-222.2 1567.73,-210.27"/>
<polygon fill="black" stroke="black" points="1569.09,-207.04 1558.52,-206.3 1566.32,-213.47 1569.09,-207.04"/>
</g>
<!-- Errors::requires_address&#45;&gt;Errors::make -->
<g id="edge62" class="edge">
<title>Errors::requires_address&#45;&gt;Errors::make</title>
<path fill="none" stroke="black" d="M1102.59,-174.01C1090.06,-169.97 1076.06,-165.88 1063,-163 919.73,-131.37 745.69,-115.63 668.37,-109.78"/>
<polygon fill="black" stroke="black" points="668.35,-106.27 658.12,-109.02 667.83,-113.25 668.35,-106.27"/>
</g>
<!-- Errors::limit_exceeded&#45;&gt;Errors::make -->
<g id="edge63" class="edge">
<title>Errors::limit_exceeded&#45;&gt;Errors::make</title>
<path fill="none" stroke="black" d="M565.37,-171.22C577.23,-159.05 593.39,-142.48 606.33,-129.22"/>
<polygon fill="black" stroke="black" points="609.04,-131.46 613.51,-121.86 604.02,-126.57 609.04,-131.46"/>
</g>
<!-- Event::write_to_event_store -->
<g id="node35" class="node">
<title>Event::write_to_event_store</title>
<ellipse fill="none" stroke="black" cx="1221" cy="-272" rx="85.29" ry="18"/>
<text text-anchor="middle" x="1221" y="-268.3" font-family="Times,serif" font-size="14.00">write_to_event_store</text>
</g>
<!-- Event::emit_event&#45;&gt;Event::write_to_event_store -->
<g id="edge64" class="edge">
<title>Event::emit_event&#45;&gt;Event::write_to_event_store</title>
<path fill="none" stroke="black" d="M1247.88,-329.07C1243.63,-320.2 1238.32,-309.13 1233.55,-299.18"/>
<polygon fill="black" stroke="black" points="1236.67,-297.6 1229.19,-290.09 1230.36,-300.62 1236.67,-297.6"/>
</g>
<!-- Diem::deposit&#45;&gt;Errors::limit_exceeded -->
<g id="edge65" class="edge">
<title>Diem::deposit&#45;&gt;Errors::limit_exceeded</title>
<path fill="none" stroke="black" d="M2140.68,-345.79C2047.32,-344.95 1804.2,-340.87 1774,-321 1742.78,-300.46 1767.77,-265.68 1736,-246 1709.72,-229.72 652.61,-246.88 623,-238 605.91,-232.88 589.06,-222.48 575.76,-212.67"/>
<polygon fill="black" stroke="black" points="577.62,-209.69 567.56,-206.36 573.35,-215.23 577.62,-209.69"/>
</g>
</g>
</svg>
