<?xml version="1.0" encoding="UTF-8" standalone="no"?>
<!DOCTYPE svg PUBLIC "-//W3C//DTD SVG 1.1//EN"
 "http://www.w3.org/Graphics/SVG/1.1/DTD/svg11.dtd">
<!-- Generated by graphviz version 2.46.1 (20210213.1702)
 -->
<!-- Title: G Pages: 1 -->
<svg width="1125pt" height="512pt"
 viewBox="0.00 0.00 1125.00 512.00" xmlns="http://www.w3.org/2000/svg" xmlns:xlink="http://www.w3.org/1999/xlink">
<g id="graph0" class="graph" transform="scale(1 1) rotate(0) translate(4 508)">
<title>G</title>
<polygon fill="white" stroke="transparent" points="-4,4 -4,-508 1121,-508 1121,4 -4,4"/>
<g id="clust1" class="cluster">
<title>cluster_Diem</title>
<polygon fill="none" stroke="black" points="668,-238 668,-460 870,-460 870,-238 668,-238"/>
<text text-anchor="middle" x="769" y="-444.8" font-family="Times,serif" font-size="14.00">Diem</text>
</g>
<g id="clust2" class="cluster">
<title>cluster_CoreAddresses</title>
<polygon fill="none" stroke="black" points="601,-80 601,-230 1109,-230 1109,-80 601,-80"/>
<text text-anchor="middle" x="855" y="-214.8" font-family="Times,serif" font-size="14.00">CoreAddresses</text>
</g>
<g id="clust3" class="cluster">
<title>cluster_Roles</title>
<polygon fill="none" stroke="black" points="327,-238 327,-313 561,-313 561,-238 327,-238"/>
<text text-anchor="middle" x="444" y="-297.8" font-family="Times,serif" font-size="14.00">Roles</text>
</g>
<g id="clust4" class="cluster">
<title>cluster_Signer</title>
<polygon fill="none" stroke="black" points="443,-8 443,-155 593,-155 593,-8 443,-8"/>
<text text-anchor="middle" x="518" y="-139.8" font-family="Times,serif" font-size="14.00">Signer</text>
</g>
<g id="clust5" class="cluster">
<title>cluster_Errors</title>
<polygon fill="none" stroke="black" points="8,-8 8,-155 435,-155 435,-8 8,-8"/>
<text text-anchor="middle" x="221.5" y="-139.8" font-family="Times,serif" font-size="14.00">Errors</text>
</g>
<!-- update_minting_ability -->
<g id="node1" class="node">
<title>update_minting_ability</title>
<ellipse fill="none" stroke="black" cx="769" cy="-486" rx="92.88" ry="18"/>
<text text-anchor="middle" x="769" y="-482.3" font-family="Times,serif" font-size="14.00">update_minting_ability</text>
</g>
<!-- Diem::update_minting_ability -->
<g id="node2" class="node">
<title>Diem::update_minting_ability</title>
<ellipse fill="none" stroke="black" cx="769" cy="-411" rx="92.88" ry="18"/>
<text text-anchor="middle" x="769" y="-407.3" font-family="Times,serif" font-size="14.00">update_minting_ability</text>
</g>
<!-- update_minting_ability&#45;&gt;Diem::update_minting_ability -->
<g id="edge1" class="edge">
<title>update_minting_ability&#45;&gt;Diem::update_minting_ability</title>
<path fill="none" stroke="black" d="M769,-467.7C769,-459.25 769,-448.87 769,-439.37"/>
<polygon fill="black" stroke="black" points="772.5,-439.18 769,-429.18 765.5,-439.18 772.5,-439.18"/>
</g>
<!-- CoreAddresses::CURRENCY_INFO_ADDRESS -->
<g id="node3" class="node">
<title>CoreAddresses::CURRENCY_INFO_ADDRESS</title>
<ellipse fill="none" stroke="black" cx="973" cy="-181" rx="128.08" ry="18"/>
<text text-anchor="middle" x="973" y="-177.3" font-family="Times,serif" font-size="14.00">CURRENCY_INFO_ADDRESS</text>
</g>
<!-- Diem::update_minting_ability&#45;&gt;CoreAddresses::CURRENCY_INFO_ADDRESS -->
<g id="edge2" class="edge">
<title>Diem::update_minting_ability&#45;&gt;CoreAddresses::CURRENCY_INFO_ADDRESS</title>
<path fill="none" stroke="black" d="M801.5,-393.95C818.35,-384.64 838.58,-371.82 854,-357 901.17,-311.66 940.3,-244.71 959.75,-208.16"/>
<polygon fill="black" stroke="black" points="962.94,-209.61 964.48,-199.13 956.74,-206.36 962.94,-209.61"/>
</g>
<!-- Roles::assert_treasury_compliance -->
<g id="node4" class="node">
<title>Roles::assert_treasury_compliance</title>
<ellipse fill="none" stroke="black" cx="444" cy="-264" rx="108.58" ry="18"/>
<text text-anchor="middle" x="444" y="-260.3" font-family="Times,serif" font-size="14.00">assert_treasury_compliance</text>
</g>
<!-- Diem::update_minting_ability&#45;&gt;Roles::assert_treasury_compliance -->
<g id="edge3" class="edge">
<title>Diem::update_minting_ability&#45;&gt;Roles::assert_treasury_compliance</title>
<path fill="none" stroke="black" d="M733.6,-394.21C674.17,-367.69 554.44,-314.27 489.09,-285.11"/>
<polygon fill="black" stroke="black" points="490.41,-281.87 479.85,-280.99 487.56,-288.27 490.41,-281.87"/>
</g>
<!-- Diem::assert_is_currency -->
<g id="node5" class="node">
<title>Diem::assert_is_currency</title>
<ellipse fill="none" stroke="black" cx="769" cy="-339" rx="76.09" ry="18"/>
<text text-anchor="middle" x="769" y="-335.3" font-family="Times,serif" font-size="14.00">assert_is_currency</text>
</g>
<!-- Diem::update_minting_ability&#45;&gt;Diem::assert_is_currency -->
<g id="edge4" class="edge">
<title>Diem::update_minting_ability&#45;&gt;Diem::assert_is_currency</title>
<path fill="none" stroke="black" d="M769,-392.7C769,-384.98 769,-375.71 769,-367.11"/>
<polygon fill="black" stroke="black" points="772.5,-367.1 769,-357.1 765.5,-367.1 772.5,-367.1"/>
</g>
<!-- Signer::address_of -->
<g id="node6" class="node">
<title>Signer::address_of</title>
<ellipse fill="none" stroke="black" cx="518" cy="-106" rx="48.99" ry="18"/>
<text text-anchor="middle" x="518" y="-102.3" font-family="Times,serif" font-size="14.00">address_of</text>
</g>
<!-- Roles::assert_treasury_compliance&#45;&gt;Signer::address_of -->
<g id="edge5" class="edge">
<title>Roles::assert_treasury_compliance&#45;&gt;Signer::address_of</title>
<path fill="none" stroke="black" d="M452.06,-246.01C464.96,-218.81 490.34,-165.31 505.57,-133.2"/>
<polygon fill="black" stroke="black" points="508.83,-134.51 509.95,-123.97 502.5,-131.51 508.83,-134.51"/>
</g>
<!-- Errors::not_published -->
<g id="node7" class="node">
<title>Errors::not_published</title>
<ellipse fill="none" stroke="black" cx="209" cy="-106" rx="60.39" ry="18"/>
<text text-anchor="middle" x="209" y="-102.3" font-family="Times,serif" font-size="14.00">not_published</text>
</g>
<!-- Roles::assert_treasury_compliance&#45;&gt;Errors::not_published -->
<g id="edge6" class="edge">
<title>Roles::assert_treasury_compliance&#45;&gt;Errors::not_published</title>
<path fill="none" stroke="black" d="M417.96,-246.41C385.13,-225.42 327.06,-188.01 278,-155 265.34,-146.48 251.5,-136.91 239.56,-128.56"/>
<polygon fill="black" stroke="black" points="241.45,-125.61 231.25,-122.74 237.43,-131.35 241.45,-125.61"/>
</g>
<!-- Errors::requires_role -->
<g id="node8" class="node">
<title>Errors::requires_role</title>
<ellipse fill="none" stroke="black" cx="73" cy="-106" rx="57.39" ry="18"/>
<text text-anchor="middle" x="73" y="-102.3" font-family="Times,serif" font-size="14.00">requires_role</text>
</g>
<!-- Roles::assert_treasury_compliance&#45;&gt;Errors::requires_role -->
<g id="edge7" class="edge">
<title>Roles::assert_treasury_compliance&#45;&gt;Errors::requires_role</title>
<path fill="none" stroke="black" d="M367.92,-251.03C342.15,-245.89 313.46,-238.97 288,-230 218.45,-205.49 203.05,-193.25 140,-155 127.01,-147.12 113.26,-137.51 101.62,-128.97"/>
<polygon fill="black" stroke="black" points="103.68,-126.14 93.56,-122.98 99.5,-131.75 103.68,-126.14"/>
</g>
<!-- CoreAddresses::assert_treasury_compliance -->
<g id="node9" class="node">
<title>CoreAddresses::assert_treasury_compliance</title>
<ellipse fill="none" stroke="black" cx="718" cy="-181" rx="108.58" ry="18"/>
<text text-anchor="middle" x="718" y="-177.3" font-family="Times,serif" font-size="14.00">assert_treasury_compliance</text>
</g>
<!-- Roles::assert_treasury_compliance&#45;&gt;CoreAddresses::assert_treasury_compliance -->
<g id="edge8" class="edge">
<title>Roles::assert_treasury_compliance&#45;&gt;CoreAddresses::assert_treasury_compliance</title>
<path fill="none" stroke="black" d="M494.58,-248.05C540.58,-234.45 608.56,-214.35 657.44,-199.9"/>
<polygon fill="black" stroke="black" points="658.66,-203.19 667.26,-197 656.67,-196.48 658.66,-203.19"/>
</g>
<!-- Diem::assert_is_currency&#45;&gt;Errors::not_published -->
<g id="edge9" class="edge">
<title>Diem::assert_is_currency&#45;&gt;Errors::not_published</title>
<path fill="none" stroke="black" d="M739.75,-322.38C700.56,-301.75 628.57,-264.89 565,-238 474.11,-199.55 452.24,-184.86 356,-163 322.02,-155.28 310.68,-167.11 278,-155 262.44,-149.23 247.08,-139.11 234.82,-129.65"/>
<polygon fill="black" stroke="black" points="236.85,-126.79 226.86,-123.26 232.47,-132.25 236.85,-126.79"/>
</g>
<!-- Diem::is_currency -->
<g id="node10" class="node">
<title>Diem::is_currency</title>
<ellipse fill="none" stroke="black" cx="795" cy="-264" rx="51.99" ry="18"/>
<text text-anchor="middle" x="795" y="-260.3" font-family="Times,serif" font-size="14.00">is_currency</text>
</g>
<!-- Diem::assert_is_currency&#45;&gt;Diem::is_currency -->
<g id="edge10" class="edge">
<title>Diem::assert_is_currency&#45;&gt;Diem::is_currency</title>
<path fill="none" stroke="black" d="M775.16,-320.7C778.26,-312 782.08,-301.27 785.54,-291.55"/>
<polygon fill="black" stroke="black" points="788.91,-292.52 788.97,-281.92 782.32,-290.17 788.91,-292.52"/>
</g>
<!-- Signer::borrow_address -->
<g id="node11" class="node">
<title>Signer::borrow_address</title>
<ellipse fill="none" stroke="black" cx="518" cy="-34" rx="66.89" ry="18"/>
<text text-anchor="middle" x="518" y="-30.3" font-family="Times,serif" font-size="14.00">borrow_address</text>
</g>
<!-- Signer::address_of&#45;&gt;Signer::borrow_address -->
<g id="edge11" class="edge">
<title>Signer::address_of&#45;&gt;Signer::borrow_address</title>
<path fill="none" stroke="black" d="M518,-87.7C518,-79.98 518,-70.71 518,-62.11"/>
<polygon fill="black" stroke="black" points="521.5,-62.1 518,-52.1 514.5,-62.1 521.5,-62.1"/>
</g>
<!-- Errors::make -->
<g id="node12" class="node">
<title>Errors::make</title>
<ellipse fill="none" stroke="black" cx="209" cy="-34" rx="30.59" ry="18"/>
<text text-anchor="middle" x="209" y="-30.3" font-family="Times,serif" font-size="14.00">make</text>
</g>
<!-- Errors::not_published&#45;&gt;Errors::make -->
<g id="edge12" class="edge">
<title>Errors::not_published&#45;&gt;Errors::make</title>
<path fill="none" stroke="black" d="M209,-87.7C209,-79.98 209,-70.71 209,-62.11"/>
<polygon fill="black" stroke="black" points="212.5,-62.1 209,-52.1 205.5,-62.1 212.5,-62.1"/>
</g>
<!-- Errors::requires_role&#45;&gt;Errors::make -->
<g id="edge13" class="edge">
<title>Errors::requires_role&#45;&gt;Errors::make</title>
<path fill="none" stroke="black" d="M101.51,-90.33C123.83,-78.84 154.83,-62.88 177.81,-51.06"/>
<polygon fill="black" stroke="black" points="179.51,-54.11 186.8,-46.43 176.31,-47.89 179.51,-54.11"/>
</g>
<!-- CoreAddresses::assert_treasury_compliance&#45;&gt;Signer::address_of -->
<g id="edge14" class="edge">
<title>CoreAddresses::assert_treasury_compliance&#45;&gt;Signer::address_of</title>
<path fill="none" stroke="black" d="M641,-168.22C626.13,-164.8 610.87,-160.46 597,-155 579.56,-148.14 561.6,-137.55 547.21,-128.06"/>
<polygon fill="black" stroke="black" points="549,-125.05 538.76,-122.34 545.08,-130.84 549,-125.05"/>
</g>
<!-- Errors::requires_address -->
<g id="node13" class="node">
<title>Errors::requires_address</title>
<ellipse fill="none" stroke="black" cx="357" cy="-106" rx="69.59" ry="18"/>
<text text-anchor="middle" x="357" y="-102.3" font-family="Times,serif" font-size="14.00">requires_address</text>
</g>
<!-- CoreAddresses::assert_treasury_compliance&#45;&gt;Errors::requires_address -->
<g id="edge15" class="edge">
<title>CoreAddresses::assert_treasury_compliance&#45;&gt;Errors::requires_address</title>
<path fill="none" stroke="black" d="M640.69,-168.28C625.57,-166.28 609.81,-164.4 595,-163 560.44,-159.73 472.26,-164.94 439,-155 420.37,-149.43 401.51,-138.82 386.59,-128.98"/>
<polygon fill="black" stroke="black" points="388.52,-126.06 378.28,-123.32 384.58,-131.85 388.52,-126.06"/>
</g>
<!-- CoreAddresses::TREASURY_COMPLIANCE_ADDRESS -->
<g id="node14" class="node">
<title>CoreAddresses::TREASURY_COMPLIANCE_ADDRESS</title>
<ellipse fill="none" stroke="black" cx="772" cy="-106" rx="163.27" ry="18"/>
<text text-anchor="middle" x="772" y="-102.3" font-family="Times,serif" font-size="14.00">TREASURY_COMPLIANCE_ADDRESS</text>
</g>
<!-- CoreAddresses::assert_treasury_compliance&#45;&gt;CoreAddresses::TREASURY_COMPLIANCE_ADDRESS -->
<g id="edge16" class="edge">
<title>CoreAddresses::assert_treasury_compliance&#45;&gt;CoreAddresses::TREASURY_COMPLIANCE_ADDRESS</title>
<path fill="none" stroke="black" d="M730.52,-163.07C737.29,-153.92 745.78,-142.45 753.31,-132.26"/>
<polygon fill="black" stroke="black" points="756.22,-134.21 759.36,-124.09 750.6,-130.05 756.22,-134.21"/>
</g>
<!-- Diem::is_currency&#45;&gt;CoreAddresses::CURRENCY_INFO_ADDRESS -->
<g id="edge17" class="edge">
<title>Diem::is_currency&#45;&gt;CoreAddresses::CURRENCY_INFO_ADDRESS</title>
<path fill="none" stroke="black" d="M825.2,-249.26C853.36,-236.44 895.75,-217.15 927.92,-202.51"/>
<polygon fill="black" stroke="black" points="929.47,-205.65 937.13,-198.32 926.57,-199.28 929.47,-205.65"/>
</g>
<!-- Errors::requires_address&#45;&gt;Errors::make -->
<g id="edge18" class="edge">
<title>Errors::requires_address&#45;&gt;Errors::make</title>
<path fill="none" stroke="black" d="M325.25,-89.98C300.4,-78.23 265.98,-61.95 241.05,-50.16"/>
<polygon fill="black" stroke="black" points="242.54,-46.99 232,-45.88 239.54,-53.32 242.54,-46.99"/>
</g>
</g>
</svg>
