<?xml version="1.0" encoding="UTF-8" standalone="no"?>
<!DOCTYPE svg PUBLIC "-//W3C//DTD SVG 1.1//EN"
 "http://www.w3.org/Graphics/SVG/1.1/DTD/svg11.dtd">
<!-- Generated by graphviz version 2.46.1 (20210213.1702)
 -->
<!-- Title: G Pages: 1 -->
<svg width="1459pt" height="603pt"
 viewBox="0.00 0.00 1459.00 603.00" xmlns="http://www.w3.org/2000/svg" xmlns:xlink="http://www.w3.org/1999/xlink">
<g id="graph0" class="graph" transform="scale(1 1) rotate(0) translate(4 599)">
<title>G</title>
<polygon fill="white" stroke="transparent" points="-4,4 -4,-599 1455,-599 1455,4 -4,4"/>
<g id="clust1" class="cluster">
<title>cluster_SlidingNonce</title>
<polygon fill="none" stroke="black" points="8,-404 8,-551 210,-551 210,-404 8,-404"/>
<text text-anchor="middle" x="109" y="-535.8" font-family="Times,serif" font-size="14.00">SlidingNonce</text>
</g>
<g id="clust2" class="cluster">
<title>cluster_Diem</title>
<polygon fill="none" stroke="black" points="853,-91 853,-551 1443,-551 1443,-91 853,-91"/>
<text text-anchor="middle" x="1148" y="-535.8" font-family="Times,serif" font-size="14.00">Diem</text>
</g>
<g id="clust3" class="cluster">
<title>cluster_Errors</title>
<polygon fill="none" stroke="black" points="92,-8 92,-166 844,-166 844,-8 92,-8"/>
<text text-anchor="middle" x="468" y="-150.8" font-family="Times,serif" font-size="14.00">Errors</text>
</g>
<g id="clust4" class="cluster">
<title>cluster_Signer</title>
<polygon fill="none" stroke="black" points="84,-246 84,-396 234,-396 234,-246 84,-246"/>
<text text-anchor="middle" x="159" y="-380.8" font-family="Times,serif" font-size="14.00">Signer</text>
</g>
<g id="clust5" class="cluster">
<title>cluster_CoreAddresses</title>
<polygon fill="none" stroke="black" points="1165,-8 1165,-83 1437,-83 1437,-8 1165,-8"/>
<text text-anchor="middle" x="1301" y="-67.8" font-family="Times,serif" font-size="14.00">CoreAddresses</text>
</g>
<g id="clust6" class="cluster">
<title>cluster_Event</title>
<polygon fill="none" stroke="black" points="388,-174 388,-321 574,-321 574,-174 388,-174"/>
<text text-anchor="middle" x="481" y="-305.8" font-family="Times,serif" font-size="14.00">Event</text>
</g>
<g id="clust7" class="cluster">
<title>cluster_Vector</title>
<polygon fill="none" stroke="black" points="582,-174 582,-321 845,-321 845,-174 582,-174"/>
<text text-anchor="middle" x="713.5" y="-305.8" font-family="Times,serif" font-size="14.00">Vector</text>
</g>
<!-- burn_with_amount -->
<g id="node1" class="node">
<title>burn_with_amount</title>
<ellipse fill="none" stroke="black" cx="498" cy="-577" rx="77.99" ry="18"/>
<text text-anchor="middle" x="498" y="-573.3" font-family="Times,serif" font-size="14.00">burn_with_amount</text>
</g>
<!-- SlidingNonce::record_nonce_or_abort -->
<g id="node2" class="node">
<title>SlidingNonce::record_nonce_or_abort</title>
<ellipse fill="none" stroke="black" cx="109" cy="-502" rx="92.88" ry="18"/>
<text text-anchor="middle" x="109" y="-498.3" font-family="Times,serif" font-size="14.00">record_nonce_or_abort</text>
</g>
<!-- burn_with_amount&#45;&gt;SlidingNonce::record_nonce_or_abort -->
<g id="edge1" class="edge">
<title>burn_with_amount&#45;&gt;SlidingNonce::record_nonce_or_abort</title>
<path fill="none" stroke="black" d="M439.34,-564.99C371.03,-552.17 258.06,-530.97 183.57,-516.99"/>
<polygon fill="black" stroke="black" points="183.8,-513.48 173.33,-515.07 182.51,-520.36 183.8,-513.48"/>
</g>
<!-- Diem::burn -->
<g id="node3" class="node">
<title>Diem::burn</title>
<ellipse fill="none" stroke="black" cx="888" cy="-502" rx="27" ry="18"/>
<text text-anchor="middle" x="888" y="-498.3" font-family="Times,serif" font-size="14.00">burn</text>
</g>
<!-- burn_with_amount&#45;&gt;Diem::burn -->
<g id="edge2" class="edge">
<title>burn_with_amount&#45;&gt;Diem::burn</title>
<path fill="none" stroke="black" d="M556.81,-564.99C638.82,-549.64 785.01,-522.28 852.3,-509.68"/>
<polygon fill="black" stroke="black" points="853.22,-513.07 862.4,-507.79 851.93,-506.19 853.22,-513.07"/>
</g>
<!-- Errors::invalid_argument -->
<g id="node4" class="node">
<title>Errors::invalid_argument</title>
<ellipse fill="none" stroke="black" cx="477" cy="-117" rx="73.39" ry="18"/>
<text text-anchor="middle" x="477" y="-113.3" font-family="Times,serif" font-size="14.00">invalid_argument</text>
</g>
<!-- SlidingNonce::record_nonce_or_abort&#45;&gt;Errors::invalid_argument -->
<g id="edge3" class="edge">
<title>SlidingNonce::record_nonce_or_abort&#45;&gt;Errors::invalid_argument</title>
<path fill="none" stroke="black" d="M79.57,-484.83C66.41,-475.87 52.24,-463.4 45,-448 26.1,-407.8 -17.97,-334.31 47,-246 108.22,-162.79 166.53,-193.4 268,-174 323.55,-163.38 340.91,-182.51 395,-166 413.6,-160.32 432.45,-149.7 447.38,-139.89"/>
<polygon fill="black" stroke="black" points="449.38,-142.76 455.69,-134.25 445.45,-136.97 449.38,-142.76"/>
</g>
<!-- SlidingNonce::try_record_nonce -->
<g id="node5" class="node">
<title>SlidingNonce::try_record_nonce</title>
<ellipse fill="none" stroke="black" cx="127" cy="-430" rx="72.59" ry="18"/>
<text text-anchor="middle" x="127" y="-426.3" font-family="Times,serif" font-size="14.00">try_record_nonce</text>
</g>
<!-- SlidingNonce::record_nonce_or_abort&#45;&gt;SlidingNonce::try_record_nonce -->
<g id="edge4" class="edge">
<title>SlidingNonce::record_nonce_or_abort&#45;&gt;SlidingNonce::try_record_nonce</title>
<path fill="none" stroke="black" d="M113.45,-483.7C115.45,-475.9 117.87,-466.51 120.1,-457.83"/>
<polygon fill="black" stroke="black" points="123.5,-458.66 122.6,-448.1 116.72,-456.92 123.5,-458.66"/>
</g>
<!-- Signer::address_of -->
<g id="node6" class="node">
<title>Signer::address_of</title>
<ellipse fill="none" stroke="black" cx="159" cy="-347" rx="48.99" ry="18"/>
<text text-anchor="middle" x="159" y="-343.3" font-family="Times,serif" font-size="14.00">address_of</text>
</g>
<!-- Diem::burn&#45;&gt;Signer::address_of -->
<g id="edge5" class="edge">
<title>Diem::burn&#45;&gt;Signer::address_of</title>
<path fill="none" stroke="black" d="M860.98,-501.42C754.03,-502.69 360.87,-503.41 252,-448 228.97,-436.28 231.51,-423 214,-404 203.99,-393.14 192.6,-381.44 182.79,-371.55"/>
<polygon fill="black" stroke="black" points="185.19,-369 175.65,-364.39 180.23,-373.94 185.19,-369"/>
</g>
<!-- Errors::requires_capability -->
<g id="node7" class="node">
<title>Errors::requires_capability</title>
<ellipse fill="none" stroke="black" cx="178" cy="-117" rx="77.99" ry="18"/>
<text text-anchor="middle" x="178" y="-113.3" font-family="Times,serif" font-size="14.00">requires_capability</text>
</g>
<!-- Diem::burn&#45;&gt;Errors::requires_capability -->
<g id="edge6" class="edge">
<title>Diem::burn&#45;&gt;Errors::requires_capability</title>
<path fill="none" stroke="black" d="M860.97,-500.04C769.72,-495.45 468.63,-469.24 287,-321 271.82,-308.61 216.06,-196.34 190.7,-144.28"/>
<polygon fill="black" stroke="black" points="193.72,-142.48 186.2,-135.01 187.42,-145.54 193.72,-142.48"/>
</g>
<!-- Diem::burn_with_capability -->
<g id="node8" class="node">
<title>Diem::burn_with_capability</title>
<ellipse fill="none" stroke="black" cx="1072" cy="-430" rx="85.59" ry="18"/>
<text text-anchor="middle" x="1072" y="-426.3" font-family="Times,serif" font-size="14.00">burn_with_capability</text>
</g>
<!-- Diem::burn&#45;&gt;Diem::burn_with_capability -->
<g id="edge7" class="edge">
<title>Diem::burn&#45;&gt;Diem::burn_with_capability</title>
<path fill="none" stroke="black" d="M910.93,-492.28C938.79,-481.68 986.55,-463.51 1022.86,-449.7"/>
<polygon fill="black" stroke="black" points="1024.19,-452.93 1032.29,-446.11 1021.7,-446.39 1024.19,-452.93"/>
</g>
<!-- Errors::make -->
<g id="node9" class="node">
<title>Errors::make</title>
<ellipse fill="none" stroke="black" cx="477" cy="-34" rx="30.59" ry="18"/>
<text text-anchor="middle" x="477" y="-30.3" font-family="Times,serif" font-size="14.00">make</text>
</g>
<!-- Errors::invalid_argument&#45;&gt;Errors::make -->
<g id="edge8" class="edge">
<title>Errors::invalid_argument&#45;&gt;Errors::make</title>
<path fill="none" stroke="black" d="M477,-98.82C477,-88.19 477,-74.31 477,-62.2"/>
<polygon fill="black" stroke="black" points="480.5,-62.15 477,-52.15 473.5,-62.15 480.5,-62.15"/>
</g>
<!-- SlidingNonce::try_record_nonce&#45;&gt;Signer::address_of -->
<g id="edge9" class="edge">
<title>SlidingNonce::try_record_nonce&#45;&gt;Signer::address_of</title>
<path fill="none" stroke="black" d="M133.79,-411.82C138.1,-400.9 143.77,-386.55 148.64,-374.22"/>
<polygon fill="black" stroke="black" points="151.91,-375.46 152.33,-364.88 145.4,-372.89 151.91,-375.46"/>
</g>
<!-- Errors::not_published -->
<g id="node10" class="node">
<title>Errors::not_published</title>
<ellipse fill="none" stroke="black" cx="776" cy="-117" rx="60.39" ry="18"/>
<text text-anchor="middle" x="776" y="-113.3" font-family="Times,serif" font-size="14.00">not_published</text>
</g>
<!-- SlidingNonce::try_record_nonce&#45;&gt;Errors::not_published -->
<g id="edge10" class="edge">
<title>SlidingNonce::try_record_nonce&#45;&gt;Errors::not_published</title>
<path fill="none" stroke="black" d="M96.12,-413.69C89.65,-408.95 83.68,-403.08 80,-396 49.25,-336.85 36.47,-296.49 80,-246 107.58,-214.01 227.13,-228.66 268,-218 321.35,-204.08 329.89,-184.61 384,-174 419.23,-167.09 672.88,-177.17 707,-166 722.89,-160.8 738.37,-150.64 750.64,-141"/>
<polygon fill="black" stroke="black" points="753.07,-143.53 758.58,-134.48 748.63,-138.12 753.07,-143.53"/>
</g>
<!-- Signer::borrow_address -->
<g id="node11" class="node">
<title>Signer::borrow_address</title>
<ellipse fill="none" stroke="black" cx="159" cy="-272" rx="66.89" ry="18"/>
<text text-anchor="middle" x="159" y="-268.3" font-family="Times,serif" font-size="14.00">borrow_address</text>
</g>
<!-- Signer::address_of&#45;&gt;Signer::borrow_address -->
<g id="edge11" class="edge">
<title>Signer::address_of&#45;&gt;Signer::borrow_address</title>
<path fill="none" stroke="black" d="M159,-328.7C159,-320.25 159,-309.87 159,-300.37"/>
<polygon fill="black" stroke="black" points="162.5,-300.18 159,-290.18 155.5,-300.18 162.5,-300.18"/>
</g>
<!-- Errors::requires_capability&#45;&gt;Errors::make -->
<g id="edge12" class="edge">
<title>Errors::requires_capability&#45;&gt;Errors::make</title>
<path fill="none" stroke="black" d="M224.45,-102.45C237.55,-98.69 251.82,-94.63 265,-91 326.03,-74.17 397.22,-55.58 439.63,-44.61"/>
<polygon fill="black" stroke="black" points="440.7,-47.95 449.51,-42.06 438.95,-41.17 440.7,-47.95"/>
</g>
<!-- Diem::burn_with_resource_cap -->
<g id="node12" class="node">
<title>Diem::burn_with_resource_cap</title>
<ellipse fill="none" stroke="black" cx="1338" cy="-347" rx="97.48" ry="18"/>
<text text-anchor="middle" x="1338" y="-343.3" font-family="Times,serif" font-size="14.00">burn_with_resource_cap</text>
</g>
<!-- Diem::burn_with_capability&#45;&gt;Diem::burn_with_resource_cap -->
<g id="edge13" class="edge">
<title>Diem::burn_with_capability&#45;&gt;Diem::burn_with_resource_cap</title>
<path fill="none" stroke="black" d="M1139.03,-418.6C1168,-413.23 1202.06,-405.73 1232,-396 1254.45,-388.7 1278.5,-378.06 1298,-368.65"/>
<polygon fill="black" stroke="black" points="1299.75,-371.7 1307.19,-364.15 1296.67,-365.41 1299.75,-371.7"/>
</g>
<!-- Diem::destroy_zero -->
<g id="node13" class="node">
<title>Diem::destroy_zero</title>
<ellipse fill="none" stroke="black" cx="1167" cy="-347" rx="55.79" ry="18"/>
<text text-anchor="middle" x="1167" y="-343.3" font-family="Times,serif" font-size="14.00">destroy_zero</text>
</g>
<!-- Diem::burn_with_capability&#45;&gt;Diem::destroy_zero -->
<g id="edge14" class="edge">
<title>Diem::burn_with_capability&#45;&gt;Diem::destroy_zero</title>
<path fill="none" stroke="black" d="M1091.68,-412.22C1105.75,-400.22 1124.85,-383.94 1140.29,-370.77"/>
<polygon fill="black" stroke="black" points="1142.65,-373.36 1147.99,-364.21 1138.11,-368.03 1142.65,-373.36"/>
</g>
<!-- Diem::remove_preburn_from_queue -->
<g id="node14" class="node">
<title>Diem::remove_preburn_from_queue</title>
<ellipse fill="none" stroke="black" cx="977" cy="-347" rx="116.18" ry="18"/>
<text text-anchor="middle" x="977" y="-343.3" font-family="Times,serif" font-size="14.00">remove_preburn_from_queue</text>
</g>
<!-- Diem::burn_with_capability&#45;&gt;Diem::remove_preburn_from_queue -->
<g id="edge15" class="edge">
<title>Diem::burn_with_capability&#45;&gt;Diem::remove_preburn_from_queue</title>
<path fill="none" stroke="black" d="M1052.32,-412.22C1038.43,-400.38 1019.65,-384.37 1004.32,-371.29"/>
<polygon fill="black" stroke="black" points="1006.54,-368.59 996.66,-364.76 1002,-373.91 1006.54,-368.59"/>
</g>
<!-- Errors::not_published&#45;&gt;Errors::make -->
<g id="edge16" class="edge">
<title>Errors::not_published&#45;&gt;Errors::make</title>
<path fill="none" stroke="black" d="M740.44,-102.28C729.76,-98.39 717.98,-94.31 707,-91 640.43,-70.9 561.38,-52.91 515.43,-43.02"/>
<polygon fill="black" stroke="black" points="516.11,-39.58 505.59,-40.91 514.64,-46.43 516.11,-39.58"/>
</g>
<!-- Errors::invalid_state -->
<g id="node15" class="node">
<title>Errors::invalid_state</title>
<ellipse fill="none" stroke="black" cx="330" cy="-117" rx="55.79" ry="18"/>
<text text-anchor="middle" x="330" y="-113.3" font-family="Times,serif" font-size="14.00">invalid_state</text>
</g>
<!-- Diem::burn_with_resource_cap&#45;&gt;Errors::invalid_state -->
<g id="edge17" class="edge">
<title>Diem::burn_with_resource_cap&#45;&gt;Errors::invalid_state</title>
<path fill="none" stroke="black" d="M1271.46,-333.77C1258.42,-331.81 1244.81,-330.08 1232,-329 1219.72,-327.97 353.99,-329.43 345,-321 320.2,-297.75 324.2,-194.8 327.72,-145.07"/>
<polygon fill="black" stroke="black" points="331.22,-145.27 328.48,-135.04 324.24,-144.74 331.22,-145.27"/>
</g>
<!-- Errors::limit_exceeded -->
<g id="node16" class="node">
<title>Errors::limit_exceeded</title>
<ellipse fill="none" stroke="black" cx="633" cy="-117" rx="64.99" ry="18"/>
<text text-anchor="middle" x="633" y="-113.3" font-family="Times,serif" font-size="14.00">limit_exceeded</text>
</g>
<!-- Diem::burn_with_resource_cap&#45;&gt;Errors::limit_exceeded -->
<g id="edge18" class="edge">
<title>Diem::burn_with_resource_cap&#45;&gt;Errors::limit_exceeded</title>
<path fill="none" stroke="black" d="M1271.46,-333.77C1258.42,-331.82 1244.81,-330.08 1232,-329 1220.26,-328.01 392.29,-329.37 384,-321 338.02,-274.58 338.87,-221.24 384,-174 397.45,-159.93 540.47,-171.95 559,-166 575.86,-160.59 592.6,-150.27 605.87,-140.58"/>
<polygon fill="black" stroke="black" points="608.21,-143.2 614.06,-134.36 603.98,-137.62 608.21,-143.2"/>
</g>
<!-- CoreAddresses::CURRENCY_INFO_ADDRESS -->
<g id="node17" class="node">
<title>CoreAddresses::CURRENCY_INFO_ADDRESS</title>
<ellipse fill="none" stroke="black" cx="1301" cy="-34" rx="128.08" ry="18"/>
<text text-anchor="middle" x="1301" y="-30.3" font-family="Times,serif" font-size="14.00">CURRENCY_INFO_ADDRESS</text>
</g>
<!-- Diem::burn_with_resource_cap&#45;&gt;CoreAddresses::CURRENCY_INFO_ADDRESS -->
<g id="edge19" class="edge">
<title>Diem::burn_with_resource_cap&#45;&gt;CoreAddresses::CURRENCY_INFO_ADDRESS</title>
<path fill="none" stroke="black" d="M1346.65,-328.82C1347.62,-326.26 1348.45,-323.6 1349,-321 1355.86,-288.38 1352.72,-279.13 1349,-246 1341.44,-178.66 1320.7,-101.46 1309.11,-61.73"/>
<polygon fill="black" stroke="black" points="1312.43,-60.61 1306.24,-52.01 1305.72,-62.59 1312.43,-60.61"/>
</g>
<!-- Event::emit_event -->
<g id="node18" class="node">
<title>Event::emit_event</title>
<ellipse fill="none" stroke="black" cx="498" cy="-272" rx="50.09" ry="18"/>
<text text-anchor="middle" x="498" y="-268.3" font-family="Times,serif" font-size="14.00">emit_event</text>
</g>
<!-- Diem::burn_with_resource_cap&#45;&gt;Event::emit_event -->
<g id="edge20" class="edge">
<title>Diem::burn_with_resource_cap&#45;&gt;Event::emit_event</title>
<path fill="none" stroke="black" d="M1271.46,-333.8C1258.42,-331.84 1244.81,-330.1 1232,-329 1195.8,-325.89 612.96,-330.91 578,-321 559.11,-315.64 540.18,-304.6 525.47,-294.45"/>
<polygon fill="black" stroke="black" points="527.5,-291.6 517.33,-288.63 523.43,-297.3 527.5,-291.6"/>
</g>
<!-- Diem::currency_code -->
<g id="node19" class="node">
<title>Diem::currency_code</title>
<ellipse fill="none" stroke="black" cx="1278" cy="-272" rx="62.29" ry="18"/>
<text text-anchor="middle" x="1278" y="-268.3" font-family="Times,serif" font-size="14.00">currency_code</text>
</g>
<!-- Diem::burn_with_resource_cap&#45;&gt;Diem::currency_code -->
<g id="edge21" class="edge">
<title>Diem::burn_with_resource_cap&#45;&gt;Diem::currency_code</title>
<path fill="none" stroke="black" d="M1324.08,-329.07C1316.38,-319.7 1306.67,-307.88 1298.15,-297.52"/>
<polygon fill="black" stroke="black" points="1300.69,-295.09 1291.63,-289.59 1295.28,-299.54 1300.69,-295.09"/>
</g>
<!-- Diem::assert_is_currency -->
<g id="node20" class="node">
<title>Diem::assert_is_currency</title>
<ellipse fill="none" stroke="black" cx="1197" cy="-200" rx="76.09" ry="18"/>
<text text-anchor="middle" x="1197" y="-196.3" font-family="Times,serif" font-size="14.00">assert_is_currency</text>
</g>
<!-- Diem::burn_with_resource_cap&#45;&gt;Diem::assert_is_currency -->
<g id="edge22" class="edge">
<title>Diem::burn_with_resource_cap&#45;&gt;Diem::assert_is_currency</title>
<path fill="none" stroke="black" d="M1267.96,-334.45C1238.01,-329.19 1209.31,-323.57 1207,-321 1184.53,-296.03 1186.33,-255.13 1190.78,-228.14"/>
<polygon fill="black" stroke="black" points="1194.24,-228.67 1192.64,-218.19 1187.36,-227.38 1194.24,-228.67"/>
</g>
<!-- Diem::withdraw_all -->
<g id="node21" class="node">
<title>Diem::withdraw_all</title>
<ellipse fill="none" stroke="black" cx="1115" cy="-272" rx="57.39" ry="18"/>
<text text-anchor="middle" x="1115" y="-268.3" font-family="Times,serif" font-size="14.00">withdraw_all</text>
</g>
<!-- Diem::burn_with_resource_cap&#45;&gt;Diem::withdraw_all -->
<g id="edge23" class="edge">
<title>Diem::burn_with_resource_cap&#45;&gt;Diem::withdraw_all</title>
<path fill="none" stroke="black" d="M1267.47,-334.53C1232.06,-328.66 1195.83,-322.46 1192,-321 1175.21,-314.61 1158.1,-304.39 1144.29,-295.02"/>
<polygon fill="black" stroke="black" points="1145.93,-291.9 1135.72,-289.04 1141.92,-297.63 1145.93,-291.9"/>
</g>
<!-- Diem::destroy_zero&#45;&gt;Errors::invalid_argument -->
<g id="edge24" class="edge">
<title>Diem::destroy_zero&#45;&gt;Errors::invalid_argument</title>
<path fill="none" stroke="black" d="M1127.04,-334.21C1118.82,-332.17 1110.18,-330.29 1102,-329 1070.78,-324.09 987.88,-335.88 960,-321 887.77,-282.46 921.77,-211.5 849,-174 820.35,-159.23 589.99,-174.86 559,-166 540.31,-160.65 521.44,-150.05 506.53,-140.17"/>
<polygon fill="black" stroke="black" points="508.46,-137.26 498.24,-134.48 504.5,-143.03 508.46,-137.26"/>
</g>
<!-- Diem::remove_preburn_from_queue&#45;&gt;Errors::not_published -->
<g id="edge26" class="edge">
<title>Diem::remove_preburn_from_queue&#45;&gt;Errors::not_published</title>
<path fill="none" stroke="black" d="M965.25,-329C938.87,-291.03 875.19,-200.58 849,-174 836.68,-161.49 821.48,-149.4 808.14,-139.68"/>
<polygon fill="black" stroke="black" points="809.87,-136.61 799.7,-133.65 805.8,-142.31 809.87,-136.61"/>
</g>
<!-- Diem::remove_preburn_from_queue&#45;&gt;Errors::invalid_state -->
<g id="edge25" class="edge">
<title>Diem::remove_preburn_from_queue&#45;&gt;Errors::invalid_state</title>
<path fill="none" stroke="black" d="M860.66,-345.73C675.98,-344.73 334.54,-340.26 316,-321 270.31,-273.55 298.61,-187.52 317.35,-144.29"/>
<polygon fill="black" stroke="black" points="320.62,-145.56 321.52,-135 314.23,-142.69 320.62,-145.56"/>
</g>
<!-- Vector::borrow -->
<g id="node22" class="node">
<title>Vector::borrow</title>
<ellipse fill="none" stroke="black" cx="801" cy="-272" rx="36.29" ry="18"/>
<text text-anchor="middle" x="801" y="-268.3" font-family="Times,serif" font-size="14.00">borrow</text>
</g>
<!-- Diem::remove_preburn_from_queue&#45;&gt;Vector::borrow -->
<g id="edge27" class="edge">
<title>Diem::remove_preburn_from_queue&#45;&gt;Vector::borrow</title>
<path fill="none" stroke="black" d="M887.21,-335.52C873.95,-331.99 860.79,-327.28 849,-321 837.9,-315.09 827.71,-305.76 819.6,-296.9"/>
<polygon fill="black" stroke="black" points="822.23,-294.59 813.04,-289.32 816.94,-299.17 822.23,-294.59"/>
</g>
<!-- Vector::length -->
<g id="node23" class="node">
<title>Vector::length</title>
<ellipse fill="none" stroke="black" cx="805" cy="-200" rx="32.49" ry="18"/>
<text text-anchor="middle" x="805" y="-196.3" font-family="Times,serif" font-size="14.00">length</text>
</g>
<!-- Diem::remove_preburn_from_queue&#45;&gt;Vector::length -->
<g id="edge28" class="edge">
<title>Diem::remove_preburn_from_queue&#45;&gt;Vector::length</title>
<path fill="none" stroke="black" d="M908.57,-332.41C901.57,-329.35 894.88,-325.6 889,-321 858.73,-297.34 868.63,-277.05 846,-246 840.45,-238.39 833.8,-230.62 827.48,-223.73"/>
<polygon fill="black" stroke="black" points="829.71,-220.99 820.3,-216.11 824.61,-225.79 829.71,-220.99"/>
</g>
<!-- Vector::remove -->
<g id="node24" class="node">
<title>Vector::remove</title>
<ellipse fill="none" stroke="black" cx="709" cy="-272" rx="37.89" ry="18"/>
<text text-anchor="middle" x="709" y="-268.3" font-family="Times,serif" font-size="14.00">remove</text>
</g>
<!-- Diem::remove_preburn_from_queue&#45;&gt;Vector::remove -->
<g id="edge29" class="edge">
<title>Diem::remove_preburn_from_queue&#45;&gt;Vector::remove</title>
<path fill="none" stroke="black" d="M868.18,-340.49C822.78,-336.8 775.99,-330.76 756,-321 744.65,-315.46 734.5,-306.02 726.55,-296.97"/>
<polygon fill="black" stroke="black" points="729.23,-294.71 720.17,-289.22 723.83,-299.16 729.23,-294.71"/>
</g>
<!-- Diem::value -->
<g id="node25" class="node">
<title>Diem::value</title>
<ellipse fill="none" stroke="black" cx="999" cy="-272" rx="29.8" ry="18"/>
<text text-anchor="middle" x="999" y="-268.3" font-family="Times,serif" font-size="14.00">value</text>
</g>
<!-- Diem::remove_preburn_from_queue&#45;&gt;Diem::value -->
<g id="edge30" class="edge">
<title>Diem::remove_preburn_from_queue&#45;&gt;Diem::value</title>
<path fill="none" stroke="black" d="M982.21,-328.7C984.84,-320 988.07,-309.27 991,-299.55"/>
<polygon fill="black" stroke="black" points="994.37,-300.51 993.9,-289.92 987.66,-298.49 994.37,-300.51"/>
</g>
<!-- Errors::invalid_state&#45;&gt;Errors::make -->
<g id="edge31" class="edge">
<title>Errors::invalid_state&#45;&gt;Errors::make</title>
<path fill="none" stroke="black" d="M356.96,-101.14C382.32,-87.17 420.23,-66.28 446.64,-51.73"/>
<polygon fill="black" stroke="black" points="448.39,-54.76 455.46,-46.87 445.02,-48.63 448.39,-54.76"/>
</g>
<!-- Errors::limit_exceeded&#45;&gt;Errors::make -->
<g id="edge32" class="edge">
<title>Errors::limit_exceeded&#45;&gt;Errors::make</title>
<path fill="none" stroke="black" d="M603.66,-100.76C576.38,-86.6 535.88,-65.57 508.06,-51.13"/>
<polygon fill="black" stroke="black" points="509.64,-48.01 499.15,-46.5 506.42,-54.22 509.64,-48.01"/>
</g>
<!-- Event::write_to_event_store -->
<g id="node26" class="node">
<title>Event::write_to_event_store</title>
<ellipse fill="none" stroke="black" cx="481" cy="-200" rx="85.29" ry="18"/>
<text text-anchor="middle" x="481" y="-196.3" font-family="Times,serif" font-size="14.00">write_to_event_store</text>
</g>
<!-- Event::emit_event&#45;&gt;Event::write_to_event_store -->
<g id="edge33" class="edge">
<title>Event::emit_event&#45;&gt;Event::write_to_event_store</title>
<path fill="none" stroke="black" d="M493.88,-254.05C491.99,-246.26 489.7,-236.82 487.58,-228.08"/>
<polygon fill="black" stroke="black" points="490.96,-227.17 485.2,-218.28 484.15,-228.82 490.96,-227.17"/>
</g>
<!-- Diem::currency_code&#45;&gt;CoreAddresses::CURRENCY_INFO_ADDRESS -->
<g id="edge34" class="edge">
<title>Diem::currency_code&#45;&gt;CoreAddresses::CURRENCY_INFO_ADDRESS</title>
<path fill="none" stroke="black" d="M1279.69,-253.65C1283.66,-212.97 1293.57,-111.23 1298.35,-62.23"/>
<polygon fill="black" stroke="black" points="1301.85,-62.35 1299.34,-52.06 1294.88,-61.67 1301.85,-62.35"/>
</g>
<!-- Diem::currency_code&#45;&gt;Diem::assert_is_currency -->
<g id="edge35" class="edge">
<title>Diem::currency_code&#45;&gt;Diem::assert_is_currency</title>
<path fill="none" stroke="black" d="M1259.21,-254.76C1248.73,-245.71 1235.5,-234.27 1223.93,-224.28"/>
<polygon fill="black" stroke="black" points="1226.1,-221.52 1216.25,-217.63 1221.52,-226.82 1226.1,-221.52"/>
</g>
<!-- Diem::assert_is_currency&#45;&gt;Errors::not_published -->
<g id="edge36" class="edge">
<title>Diem::assert_is_currency&#45;&gt;Errors::not_published</title>
<path fill="none" stroke="black" d="M1152.06,-185.48C1135.26,-181 1115.91,-176.52 1098,-174 1043.18,-166.29 901.78,-182.72 849,-166 832.16,-160.66 815.53,-150.24 802.41,-140.47"/>
<polygon fill="black" stroke="black" points="804.37,-137.57 794.32,-134.21 800.08,-143.1 804.37,-137.57"/>
</g>
<!-- Diem::is_currency -->
<g id="node27" class="node">
<title>Diem::is_currency</title>
<ellipse fill="none" stroke="black" cx="1209" cy="-117" rx="51.99" ry="18"/>
<text text-anchor="middle" x="1209" y="-113.3" font-family="Times,serif" font-size="14.00">is_currency</text>
</g>
<!-- Diem::assert_is_currency&#45;&gt;Diem::is_currency -->
<g id="edge37" class="edge">
<title>Diem::assert_is_currency&#45;&gt;Diem::is_currency</title>
<path fill="none" stroke="black" d="M1199.54,-181.82C1201.12,-171.19 1203.18,-157.31 1204.97,-145.2"/>
<polygon fill="black" stroke="black" points="1208.46,-145.56 1206.46,-135.15 1201.53,-144.53 1208.46,-145.56"/>
</g>
<!-- Diem::withdraw -->
<g id="node28" class="node">
<title>Diem::withdraw</title>
<ellipse fill="none" stroke="black" cx="1045" cy="-200" rx="44.39" ry="18"/>
<text text-anchor="middle" x="1045" y="-196.3" font-family="Times,serif" font-size="14.00">withdraw</text>
</g>
<!-- Diem::withdraw_all&#45;&gt;Diem::withdraw -->
<g id="edge38" class="edge">
<title>Diem::withdraw_all&#45;&gt;Diem::withdraw</title>
<path fill="none" stroke="black" d="M1098.41,-254.41C1089.39,-245.39 1078.09,-234.09 1068.21,-224.21"/>
<polygon fill="black" stroke="black" points="1070.53,-221.58 1060.99,-216.99 1065.58,-226.53 1070.53,-221.58"/>
</g>
<!-- Vector::remove&#45;&gt;Vector::length -->
<g id="edge39" class="edge">
<title>Vector::remove&#45;&gt;Vector::length</title>
<path fill="none" stroke="black" d="M728.89,-256.5C743.07,-246.16 762.3,-232.13 777.89,-220.77"/>
<polygon fill="black" stroke="black" points="780.1,-223.49 786.11,-214.77 775.97,-217.83 780.1,-223.49"/>
</g>
<!-- Vector::pop_back -->
<g id="node29" class="node">
<title>Vector::pop_back</title>
<ellipse fill="none" stroke="black" cx="635" cy="-200" rx="44.69" ry="18"/>
<text text-anchor="middle" x="635" y="-196.3" font-family="Times,serif" font-size="14.00">pop_back</text>
</g>
<!-- Vector::remove&#45;&gt;Vector::pop_back -->
<g id="edge40" class="edge">
<title>Vector::remove&#45;&gt;Vector::pop_back</title>
<path fill="none" stroke="black" d="M692.58,-255.46C682.68,-246.11 669.91,-234.02 658.91,-223.62"/>
<polygon fill="black" stroke="black" points="661.3,-221.06 651.63,-216.73 656.49,-226.15 661.3,-221.06"/>
</g>
<!-- Vector::swap -->
<g id="node30" class="node">
<title>Vector::swap</title>
<ellipse fill="none" stroke="black" cx="726" cy="-200" rx="28.7" ry="18"/>
<text text-anchor="middle" x="726" y="-196.3" font-family="Times,serif" font-size="14.00">swap</text>
</g>
<!-- Vector::remove&#45;&gt;Vector::swap -->
<g id="edge41" class="edge">
<title>Vector::remove&#45;&gt;Vector::swap</title>
<path fill="none" stroke="black" d="M713.12,-254.05C715.01,-246.26 717.3,-236.82 719.42,-228.08"/>
<polygon fill="black" stroke="black" points="722.85,-228.82 721.8,-218.28 716.04,-227.17 722.85,-228.82"/>
</g>
<!-- Diem::is_currency&#45;&gt;CoreAddresses::CURRENCY_INFO_ADDRESS -->
<g id="edge42" class="edge">
<title>Diem::is_currency&#45;&gt;CoreAddresses::CURRENCY_INFO_ADDRESS</title>
<path fill="none" stroke="black" d="M1227.18,-100C1240.64,-88.14 1259.21,-71.8 1274.35,-58.46"/>
<polygon fill="black" stroke="black" points="1276.72,-61.04 1281.91,-51.81 1272.09,-55.79 1276.72,-61.04"/>
</g>
<!-- Diem::withdraw&#45;&gt;Errors::limit_exceeded -->
<g id="edge43" class="edge">
<title>Diem::withdraw&#45;&gt;Errors::limit_exceeded</title>
<path fill="none" stroke="black" d="M1007.71,-190.13C982.3,-184.48 947.81,-177.57 917,-174 870.61,-168.62 751.52,-180.1 707,-166 690.11,-160.65 673.38,-150.34 660.11,-140.64"/>
<polygon fill="black" stroke="black" points="662,-137.68 651.92,-134.41 657.76,-143.25 662,-137.68"/>
</g>
</g>
</svg>
