<?xml version="1.0" encoding="UTF-8" standalone="no"?>
<!DOCTYPE svg PUBLIC "-//W3C//DTD SVG 1.1//EN"
 "http://www.w3.org/Graphics/SVG/1.1/DTD/svg11.dtd">
<!-- Generated by graphviz version 2.46.1 (20210213.1702)
 -->
<!-- Title: G Pages: 1 -->
<svg width="1438pt" height="531pt"
 viewBox="0.00 0.00 1438.00 531.00" xmlns="http://www.w3.org/2000/svg" xmlns:xlink="http://www.w3.org/1999/xlink">
<g id="graph0" class="graph" transform="scale(1 1) rotate(0) translate(4 527)">
<title>G</title>
<polygon fill="white" stroke="transparent" points="-4,4 -4,-527 1434,-527 1434,4 -4,4"/>
<g id="clust1" class="cluster">
<title>cluster_SlidingNonce</title>
<polygon fill="none" stroke="black" points="950,-163 950,-321 1152,-321 1152,-163 950,-163"/>
<text text-anchor="middle" x="1051" y="-305.8" font-family="Times,serif" font-size="14.00">SlidingNonce</text>
</g>
<g id="clust2" class="cluster">
<title>cluster_FixedPoint32</title>
<polygon fill="none" stroke="black" points="980,-329 980,-404 1309,-404 1309,-329 980,-329"/>
<text text-anchor="middle" x="1144.5" y="-388.8" font-family="Times,serif" font-size="14.00">FixedPoint32</text>
</g>
<g id="clust3" class="cluster">
<title>cluster_Diem</title>
<polygon fill="none" stroke="black" points="244,-246 244,-479 474,-479 474,-246 244,-246"/>
<text text-anchor="middle" x="359" y="-463.8" font-family="Times,serif" font-size="14.00">Diem</text>
</g>
<g id="clust4" class="cluster">
<title>cluster_Errors</title>
<polygon fill="none" stroke="black" points="682,-8 682,-155 1422,-155 1422,-8 682,-8"/>
<text text-anchor="middle" x="1052" y="-139.8" font-family="Times,serif" font-size="14.00">Errors</text>
</g>
<g id="clust5" class="cluster">
<title>cluster_CoreAddresses</title>
<polygon fill="none" stroke="black" points="8,-80 8,-238 516,-238 516,-80 8,-80"/>
<text text-anchor="middle" x="262" y="-222.8" font-family="Times,serif" font-size="14.00">CoreAddresses</text>
</g>
<g id="clust6" class="cluster">
<title>cluster_Roles</title>
<polygon fill="none" stroke="black" points="482,-246 482,-321 716,-321 716,-246 482,-246"/>
<text text-anchor="middle" x="599" y="-305.8" font-family="Times,serif" font-size="14.00">Roles</text>
</g>
<g id="clust7" class="cluster">
<title>cluster_Event</title>
<polygon fill="none" stroke="black" points="756,-246 756,-404 942,-404 942,-246 756,-246"/>
<text text-anchor="middle" x="849" y="-388.8" font-family="Times,serif" font-size="14.00">Event</text>
</g>
<g id="clust8" class="cluster">
<title>cluster_Signer</title>
<polygon fill="none" stroke="black" points="524,-8 524,-155 674,-155 674,-8 524,-8"/>
<text text-anchor="middle" x="599" y="-139.8" font-family="Times,serif" font-size="14.00">Signer</text>
</g>
<!-- update_exchange_rate -->
<g id="node1" class="node">
<title>update_exchange_rate</title>
<ellipse fill="none" stroke="black" cx="960" cy="-505" rx="89.08" ry="18"/>
<text text-anchor="middle" x="960" y="-501.3" font-family="Times,serif" font-size="14.00">update_exchange_rate</text>
</g>
<!-- SlidingNonce::record_nonce_or_abort -->
<g id="node2" class="node">
<title>SlidingNonce::record_nonce_or_abort</title>
<ellipse fill="none" stroke="black" cx="1051" cy="-272" rx="92.88" ry="18"/>
<text text-anchor="middle" x="1051" y="-268.3" font-family="Times,serif" font-size="14.00">record_nonce_or_abort</text>
</g>
<!-- update_exchange_rate&#45;&gt;SlidingNonce::record_nonce_or_abort -->
<g id="edge1" class="edge">
<title>update_exchange_rate&#45;&gt;SlidingNonce::record_nonce_or_abort</title>
<path fill="none" stroke="black" d="M957.2,-486.76C952.75,-453.75 947.24,-380.38 976,-329 983.88,-314.93 996.92,-303.35 1009.94,-294.44"/>
<polygon fill="black" stroke="black" points="1011.92,-297.33 1018.44,-288.98 1008.13,-291.44 1011.92,-297.33"/>
</g>
<!-- FixedPoint32::create_from_rational -->
<g id="node3" class="node">
<title>FixedPoint32::create_from_rational</title>
<ellipse fill="none" stroke="black" cx="1216" cy="-355" rx="85.29" ry="18"/>
<text text-anchor="middle" x="1216" y="-351.3" font-family="Times,serif" font-size="14.00">create_from_rational</text>
</g>
<!-- update_exchange_rate&#45;&gt;FixedPoint32::create_from_rational -->
<g id="edge2" class="edge">
<title>update_exchange_rate&#45;&gt;FixedPoint32::create_from_rational</title>
<path fill="none" stroke="black" d="M987.88,-487.88C1034.34,-461.02 1127.57,-407.13 1179.3,-377.22"/>
<polygon fill="black" stroke="black" points="1181.24,-380.14 1188.15,-372.1 1177.74,-374.08 1181.24,-380.14"/>
</g>
<!-- Diem::update_xdx_exchange_rate -->
<g id="node4" class="node">
<title>Diem::update_xdx_exchange_rate</title>
<ellipse fill="none" stroke="black" cx="359" cy="-430" rx="106.68" ry="18"/>
<text text-anchor="middle" x="359" y="-426.3" font-family="Times,serif" font-size="14.00">update_xdx_exchange_rate</text>
</g>
<!-- update_exchange_rate&#45;&gt;Diem::update_xdx_exchange_rate -->
<g id="edge3" class="edge">
<title>update_exchange_rate&#45;&gt;Diem::update_xdx_exchange_rate</title>
<path fill="none" stroke="black" d="M885.7,-494.98C776.45,-481.71 572.53,-456.94 453,-442.42"/>
<polygon fill="black" stroke="black" points="453.12,-438.91 442.77,-441.18 452.28,-445.86 453.12,-438.91"/>
</g>
<!-- Errors::invalid_argument -->
<g id="node5" class="node">
<title>Errors::invalid_argument</title>
<ellipse fill="none" stroke="black" cx="1193" cy="-106" rx="73.39" ry="18"/>
<text text-anchor="middle" x="1193" y="-102.3" font-family="Times,serif" font-size="14.00">invalid_argument</text>
</g>
<!-- SlidingNonce::record_nonce_or_abort&#45;&gt;Errors::invalid_argument -->
<g id="edge4" class="edge">
<title>SlidingNonce::record_nonce_or_abort&#45;&gt;Errors::invalid_argument</title>
<path fill="none" stroke="black" d="M1095.32,-256.16C1105.2,-251.44 1115.09,-245.44 1123,-238 1154.08,-208.76 1174.23,-162.58 1184.59,-133.58"/>
<polygon fill="black" stroke="black" points="1187.91,-134.69 1187.85,-124.1 1181.29,-132.42 1187.91,-134.69"/>
</g>
<!-- SlidingNonce::try_record_nonce -->
<g id="node6" class="node">
<title>SlidingNonce::try_record_nonce</title>
<ellipse fill="none" stroke="black" cx="1041" cy="-189" rx="72.59" ry="18"/>
<text text-anchor="middle" x="1041" y="-185.3" font-family="Times,serif" font-size="14.00">try_record_nonce</text>
</g>
<!-- SlidingNonce::record_nonce_or_abort&#45;&gt;SlidingNonce::try_record_nonce -->
<g id="edge5" class="edge">
<title>SlidingNonce::record_nonce_or_abort&#45;&gt;SlidingNonce::try_record_nonce</title>
<path fill="none" stroke="black" d="M1048.88,-253.82C1047.57,-243.19 1045.85,-229.31 1044.36,-217.2"/>
<polygon fill="black" stroke="black" points="1047.82,-216.65 1043.12,-207.15 1040.87,-217.51 1047.82,-216.65"/>
</g>
<!-- FixedPoint32::create_from_rational&#45;&gt;Errors::invalid_argument -->
<g id="edge6" class="edge">
<title>FixedPoint32::create_from_rational&#45;&gt;Errors::invalid_argument</title>
<path fill="none" stroke="black" d="M1214.38,-336.63C1210.44,-294.28 1200.3,-185.42 1195.54,-134.29"/>
<polygon fill="black" stroke="black" points="1199,-133.65 1194.58,-124.02 1192.03,-134.3 1199,-133.65"/>
</g>
<!-- Errors::limit_exceeded -->
<g id="node7" class="node">
<title>Errors::limit_exceeded</title>
<ellipse fill="none" stroke="black" cx="1349" cy="-106" rx="64.99" ry="18"/>
<text text-anchor="middle" x="1349" y="-102.3" font-family="Times,serif" font-size="14.00">limit_exceeded</text>
</g>
<!-- FixedPoint32::create_from_rational&#45;&gt;Errors::limit_exceeded -->
<g id="edge7" class="edge">
<title>FixedPoint32::create_from_rational&#45;&gt;Errors::limit_exceeded</title>
<path fill="none" stroke="black" d="M1225.14,-337.02C1247.97,-294.63 1307.59,-183.91 1334.93,-133.13"/>
<polygon fill="black" stroke="black" points="1338.14,-134.56 1339.79,-124.1 1331.97,-131.24 1338.14,-134.56"/>
</g>
<!-- CoreAddresses::CURRENCY_INFO_ADDRESS -->
<g id="node8" class="node">
<title>CoreAddresses::CURRENCY_INFO_ADDRESS</title>
<ellipse fill="none" stroke="black" cx="144" cy="-189" rx="128.08" ry="18"/>
<text text-anchor="middle" x="144" y="-185.3" font-family="Times,serif" font-size="14.00">CURRENCY_INFO_ADDRESS</text>
</g>
<!-- Diem::update_xdx_exchange_rate&#45;&gt;CoreAddresses::CURRENCY_INFO_ADDRESS -->
<g id="edge8" class="edge">
<title>Diem::update_xdx_exchange_rate&#45;&gt;CoreAddresses::CURRENCY_INFO_ADDRESS</title>
<path fill="none" stroke="black" d="M294.3,-415.6C287.06,-412.5 280.1,-408.69 274,-404 209.12,-354.12 169.36,-261.87 152.86,-216.54"/>
<polygon fill="black" stroke="black" points="156.16,-215.36 149.52,-207.1 149.56,-217.7 156.16,-215.36"/>
</g>
<!-- Roles::assert_treasury_compliance -->
<g id="node9" class="node">
<title>Roles::assert_treasury_compliance</title>
<ellipse fill="none" stroke="black" cx="599" cy="-272" rx="108.58" ry="18"/>
<text text-anchor="middle" x="599" y="-268.3" font-family="Times,serif" font-size="14.00">assert_treasury_compliance</text>
</g>
<!-- Diem::update_xdx_exchange_rate&#45;&gt;Roles::assert_treasury_compliance -->
<g id="edge9" class="edge">
<title>Diem::update_xdx_exchange_rate&#45;&gt;Roles::assert_treasury_compliance</title>
<path fill="none" stroke="black" d="M418.34,-415.01C427.19,-411.95 436.01,-408.3 444,-404 496.97,-375.48 548.23,-326.73 576.5,-297.42"/>
<polygon fill="black" stroke="black" points="579.15,-299.71 583.51,-290.06 574.08,-294.89 579.15,-299.71"/>
</g>
<!-- FixedPoint32::get_raw_value -->
<g id="node10" class="node">
<title>FixedPoint32::get_raw_value</title>
<ellipse fill="none" stroke="black" cx="1050" cy="-355" rx="62.29" ry="18"/>
<text text-anchor="middle" x="1050" y="-351.3" font-family="Times,serif" font-size="14.00">get_raw_value</text>
</g>
<!-- Diem::update_xdx_exchange_rate&#45;&gt;FixedPoint32::get_raw_value -->
<g id="edge10" class="edge">
<title>Diem::update_xdx_exchange_rate&#45;&gt;FixedPoint32::get_raw_value</title>
<path fill="none" stroke="black" d="M465.61,-429.4C609.49,-429.09 857.95,-425.31 946,-404 970.19,-398.14 995.59,-386.54 1015.23,-376.21"/>
<polygon fill="black" stroke="black" points="1016.97,-379.25 1024.1,-371.42 1013.64,-373.09 1016.97,-379.25"/>
</g>
<!-- Event::emit_event -->
<g id="node11" class="node">
<title>Event::emit_event</title>
<ellipse fill="none" stroke="black" cx="831" cy="-355" rx="50.09" ry="18"/>
<text text-anchor="middle" x="831" y="-351.3" font-family="Times,serif" font-size="14.00">emit_event</text>
</g>
<!-- Diem::update_xdx_exchange_rate&#45;&gt;Event::emit_event -->
<g id="edge11" class="edge">
<title>Diem::update_xdx_exchange_rate&#45;&gt;Event::emit_event</title>
<path fill="none" stroke="black" d="M441.49,-418.5C473.8,-414.23 511.17,-409.11 545,-404 626.01,-391.76 719.59,-375.69 777.03,-365.6"/>
<polygon fill="black" stroke="black" points="777.73,-369.03 786.98,-363.85 776.52,-362.13 777.73,-369.03"/>
</g>
<!-- Diem::assert_is_currency -->
<g id="node12" class="node">
<title>Diem::assert_is_currency</title>
<ellipse fill="none" stroke="black" cx="359" cy="-355" rx="76.09" ry="18"/>
<text text-anchor="middle" x="359" y="-351.3" font-family="Times,serif" font-size="14.00">assert_is_currency</text>
</g>
<!-- Diem::update_xdx_exchange_rate&#45;&gt;Diem::assert_is_currency -->
<g id="edge12" class="edge">
<title>Diem::update_xdx_exchange_rate&#45;&gt;Diem::assert_is_currency</title>
<path fill="none" stroke="black" d="M359,-411.7C359,-403.25 359,-392.87 359,-383.37"/>
<polygon fill="black" stroke="black" points="362.5,-383.18 359,-373.18 355.5,-383.18 362.5,-383.18"/>
</g>
<!-- Errors::make -->
<g id="node13" class="node">
<title>Errors::make</title>
<ellipse fill="none" stroke="black" cx="1041" cy="-34" rx="30.59" ry="18"/>
<text text-anchor="middle" x="1041" y="-30.3" font-family="Times,serif" font-size="14.00">make</text>
</g>
<!-- Errors::invalid_argument&#45;&gt;Errors::make -->
<g id="edge13" class="edge">
<title>Errors::invalid_argument&#45;&gt;Errors::make</title>
<path fill="none" stroke="black" d="M1160.02,-89.81C1134.47,-78.04 1099.25,-61.82 1073.76,-50.08"/>
<polygon fill="black" stroke="black" points="1075.05,-46.83 1064.5,-45.82 1072.12,-53.19 1075.05,-46.83"/>
</g>
<!-- Signer::address_of -->
<g id="node14" class="node">
<title>Signer::address_of</title>
<ellipse fill="none" stroke="black" cx="599" cy="-106" rx="48.99" ry="18"/>
<text text-anchor="middle" x="599" y="-102.3" font-family="Times,serif" font-size="14.00">address_of</text>
</g>
<!-- SlidingNonce::try_record_nonce&#45;&gt;Signer::address_of -->
<g id="edge14" class="edge">
<title>SlidingNonce::try_record_nonce&#45;&gt;Signer::address_of</title>
<path fill="none" stroke="black" d="M969.61,-185.33C879.62,-181.31 730.36,-172.26 678,-155 659.95,-149.05 641.69,-138.34 627.29,-128.54"/>
<polygon fill="black" stroke="black" points="629.04,-125.49 618.85,-122.6 625.02,-131.22 629.04,-125.49"/>
</g>
<!-- Errors::not_published -->
<g id="node15" class="node">
<title>Errors::not_published</title>
<ellipse fill="none" stroke="black" cx="1041" cy="-106" rx="60.39" ry="18"/>
<text text-anchor="middle" x="1041" y="-102.3" font-family="Times,serif" font-size="14.00">not_published</text>
</g>
<!-- SlidingNonce::try_record_nonce&#45;&gt;Errors::not_published -->
<g id="edge15" class="edge">
<title>SlidingNonce::try_record_nonce&#45;&gt;Errors::not_published</title>
<path fill="none" stroke="black" d="M1041,-170.82C1041,-160.19 1041,-146.31 1041,-134.2"/>
<polygon fill="black" stroke="black" points="1044.5,-134.15 1041,-124.15 1037.5,-134.15 1044.5,-134.15"/>
</g>
<!-- Errors::limit_exceeded&#45;&gt;Errors::make -->
<g id="edge16" class="edge">
<title>Errors::limit_exceeded&#45;&gt;Errors::make</title>
<path fill="none" stroke="black" d="M1311.27,-91.15C1299.73,-87.22 1286.93,-83.15 1275,-80 1207.5,-62.2 1127.32,-48.31 1080.5,-40.92"/>
<polygon fill="black" stroke="black" points="1080.89,-37.43 1070.47,-39.35 1079.81,-44.35 1080.89,-37.43"/>
</g>
<!-- Roles::assert_treasury_compliance&#45;&gt;Signer::address_of -->
<g id="edge17" class="edge">
<title>Roles::assert_treasury_compliance&#45;&gt;Signer::address_of</title>
<path fill="none" stroke="black" d="M599,-253.76C599,-225.26 599,-168.12 599,-134.16"/>
<polygon fill="black" stroke="black" points="602.5,-134.01 599,-124.01 595.5,-134.01 602.5,-134.01"/>
</g>
<!-- Roles::assert_treasury_compliance&#45;&gt;Errors::not_published -->
<g id="edge18" class="edge">
<title>Roles::assert_treasury_compliance&#45;&gt;Errors::not_published</title>
<path fill="none" stroke="black" d="M634.34,-254.85C643.15,-250.05 652.28,-244.35 660,-238 693.41,-210.54 683.17,-182.05 722,-163 746.85,-150.81 944.69,-163.62 971,-155 987.04,-149.74 1002.75,-139.58 1015.2,-129.95"/>
<polygon fill="black" stroke="black" points="1017.68,-132.44 1023.27,-123.44 1013.29,-127 1017.68,-132.44"/>
</g>
<!-- Errors::requires_role -->
<g id="node16" class="node">
<title>Errors::requires_role</title>
<ellipse fill="none" stroke="black" cx="905" cy="-106" rx="57.39" ry="18"/>
<text text-anchor="middle" x="905" y="-102.3" font-family="Times,serif" font-size="14.00">requires_role</text>
</g>
<!-- Roles::assert_treasury_compliance&#45;&gt;Errors::requires_role -->
<g id="edge19" class="edge">
<title>Roles::assert_treasury_compliance&#45;&gt;Errors::requires_role</title>
<path fill="none" stroke="black" d="M605.84,-253.76C616.82,-228.68 640.99,-182.95 678,-163 709.53,-146 805.22,-166.92 839,-155 854.16,-149.65 868.85,-139.61 880.5,-130.1"/>
<polygon fill="black" stroke="black" points="883.09,-132.49 888.41,-123.33 878.54,-127.17 883.09,-132.49"/>
</g>
<!-- CoreAddresses::assert_treasury_compliance -->
<g id="node17" class="node">
<title>CoreAddresses::assert_treasury_compliance</title>
<ellipse fill="none" stroke="black" cx="399" cy="-189" rx="108.58" ry="18"/>
<text text-anchor="middle" x="399" y="-185.3" font-family="Times,serif" font-size="14.00">assert_treasury_compliance</text>
</g>
<!-- Roles::assert_treasury_compliance&#45;&gt;CoreAddresses::assert_treasury_compliance -->
<g id="edge20" class="edge">
<title>Roles::assert_treasury_compliance&#45;&gt;CoreAddresses::assert_treasury_compliance</title>
<path fill="none" stroke="black" d="M559.96,-255.19C527.86,-242.19 482.19,-223.69 447.69,-209.72"/>
<polygon fill="black" stroke="black" points="448.86,-206.42 438.28,-205.91 446.23,-212.91 448.86,-206.42"/>
</g>
<!-- Event::write_to_event_store -->
<g id="node18" class="node">
<title>Event::write_to_event_store</title>
<ellipse fill="none" stroke="black" cx="849" cy="-272" rx="85.29" ry="18"/>
<text text-anchor="middle" x="849" y="-268.3" font-family="Times,serif" font-size="14.00">write_to_event_store</text>
</g>
<!-- Event::emit_event&#45;&gt;Event::write_to_event_store -->
<g id="edge21" class="edge">
<title>Event::emit_event&#45;&gt;Event::write_to_event_store</title>
<path fill="none" stroke="black" d="M834.82,-336.82C837.18,-326.19 840.27,-312.31 842.95,-300.2"/>
<polygon fill="black" stroke="black" points="846.44,-300.67 845.19,-290.15 839.6,-299.16 846.44,-300.67"/>
</g>
<!-- Diem::assert_is_currency&#45;&gt;Errors::not_published -->
<g id="edge22" class="edge">
<title>Diem::assert_is_currency&#45;&gt;Errors::not_published</title>
<path fill="none" stroke="black" d="M433.65,-351.23C532.6,-346.95 697.42,-337.44 720,-321 749.3,-299.67 726.39,-271.64 752,-246 818.28,-179.65 858.13,-195.77 946,-163 956.93,-158.92 960.52,-160.13 971,-155 985.52,-147.89 1000.44,-138.06 1012.77,-129.15"/>
<polygon fill="black" stroke="black" points="1014.89,-131.93 1020.84,-123.17 1010.72,-126.31 1014.89,-131.93"/>
</g>
<!-- Diem::is_currency -->
<g id="node19" class="node">
<title>Diem::is_currency</title>
<ellipse fill="none" stroke="black" cx="319" cy="-272" rx="51.99" ry="18"/>
<text text-anchor="middle" x="319" y="-268.3" font-family="Times,serif" font-size="14.00">is_currency</text>
</g>
<!-- Diem::assert_is_currency&#45;&gt;Diem::is_currency -->
<g id="edge23" class="edge">
<title>Diem::assert_is_currency&#45;&gt;Diem::is_currency</title>
<path fill="none" stroke="black" d="M350.52,-336.82C345.07,-325.79 337.9,-311.27 331.77,-298.86"/>
<polygon fill="black" stroke="black" points="334.9,-297.29 327.33,-289.88 328.62,-300.39 334.9,-297.29"/>
</g>
<!-- Signer::borrow_address -->
<g id="node20" class="node">
<title>Signer::borrow_address</title>
<ellipse fill="none" stroke="black" cx="599" cy="-34" rx="66.89" ry="18"/>
<text text-anchor="middle" x="599" y="-30.3" font-family="Times,serif" font-size="14.00">borrow_address</text>
</g>
<!-- Signer::address_of&#45;&gt;Signer::borrow_address -->
<g id="edge24" class="edge">
<title>Signer::address_of&#45;&gt;Signer::borrow_address</title>
<path fill="none" stroke="black" d="M599,-87.7C599,-79.98 599,-70.71 599,-62.11"/>
<polygon fill="black" stroke="black" points="602.5,-62.1 599,-52.1 595.5,-62.1 602.5,-62.1"/>
</g>
<!-- Errors::not_published&#45;&gt;Errors::make -->
<g id="edge25" class="edge">
<title>Errors::not_published&#45;&gt;Errors::make</title>
<path fill="none" stroke="black" d="M1041,-87.7C1041,-79.98 1041,-70.71 1041,-62.11"/>
<polygon fill="black" stroke="black" points="1044.5,-62.1 1041,-52.1 1037.5,-62.1 1044.5,-62.1"/>
</g>
<!-- Errors::requires_role&#45;&gt;Errors::make -->
<g id="edge26" class="edge">
<title>Errors::requires_role&#45;&gt;Errors::make</title>
<path fill="none" stroke="black" d="M933.51,-90.33C955.83,-78.84 986.83,-62.88 1009.81,-51.06"/>
<polygon fill="black" stroke="black" points="1011.51,-54.11 1018.8,-46.43 1008.31,-47.89 1011.51,-54.11"/>
</g>
<!-- CoreAddresses::assert_treasury_compliance&#45;&gt;Signer::address_of -->
<g id="edge27" class="edge">
<title>CoreAddresses::assert_treasury_compliance&#45;&gt;Signer::address_of</title>
<path fill="none" stroke="black" d="M462.32,-174.3C481.25,-169.26 501.8,-162.83 520,-155 536.97,-147.7 554.65,-137.26 568.97,-127.98"/>
<polygon fill="black" stroke="black" points="571.01,-130.83 577.42,-122.39 567.15,-124.99 571.01,-130.83"/>
</g>
<!-- Errors::requires_address -->
<g id="node21" class="node">
<title>Errors::requires_address</title>
<ellipse fill="none" stroke="black" cx="760" cy="-106" rx="69.59" ry="18"/>
<text text-anchor="middle" x="760" y="-102.3" font-family="Times,serif" font-size="14.00">requires_address</text>
</g>
<!-- CoreAddresses::assert_treasury_compliance&#45;&gt;Errors::requires_address -->
<g id="edge28" class="edge">
<title>CoreAddresses::assert_treasury_compliance&#45;&gt;Errors::requires_address</title>
<path fill="none" stroke="black" d="M487.08,-178.46C565.39,-169.84 668.9,-158.05 678,-155 696.13,-148.92 714.66,-138.5 729.5,-128.92"/>
<polygon fill="black" stroke="black" points="731.85,-131.56 738.24,-123.11 727.97,-125.74 731.85,-131.56"/>
</g>
<!-- CoreAddresses::TREASURY_COMPLIANCE_ADDRESS -->
<g id="node22" class="node">
<title>CoreAddresses::TREASURY_COMPLIANCE_ADDRESS</title>
<ellipse fill="none" stroke="black" cx="345" cy="-106" rx="163.27" ry="18"/>
<text text-anchor="middle" x="345" y="-102.3" font-family="Times,serif" font-size="14.00">TREASURY_COMPLIANCE_ADDRESS</text>
</g>
<!-- CoreAddresses::assert_treasury_compliance&#45;&gt;CoreAddresses::TREASURY_COMPLIANCE_ADDRESS -->
<g id="edge29" class="edge">
<title>CoreAddresses::assert_treasury_compliance&#45;&gt;CoreAddresses::TREASURY_COMPLIANCE_ADDRESS</title>
<path fill="none" stroke="black" d="M387.55,-170.82C380.17,-159.76 370.45,-145.18 362.16,-132.75"/>
<polygon fill="black" stroke="black" points="364.89,-130.53 356.44,-124.15 359.07,-134.42 364.89,-130.53"/>
</g>
<!-- Diem::is_currency&#45;&gt;CoreAddresses::CURRENCY_INFO_ADDRESS -->
<g id="edge30" class="edge">
<title>Diem::is_currency&#45;&gt;CoreAddresses::CURRENCY_INFO_ADDRESS</title>
<path fill="none" stroke="black" d="M288.92,-257.08C261.37,-244.33 220.24,-225.29 188.83,-210.75"/>
<polygon fill="black" stroke="black" points="189.96,-207.42 179.41,-206.39 187.02,-213.77 189.96,-207.42"/>
</g>
<!-- Errors::requires_address&#45;&gt;Errors::make -->
<g id="edge31" class="edge">
<title>Errors::requires_address&#45;&gt;Errors::make</title>
<path fill="none" stroke="black" d="M800.8,-91.34C813.02,-87.45 826.5,-83.36 839,-80 895.45,-64.81 961.75,-50.75 1002.57,-42.52"/>
<polygon fill="black" stroke="black" points="1003.26,-45.95 1012.37,-40.56 1001.88,-39.09 1003.26,-45.95"/>
</g>
</g>
</svg>
