<?xml version="1.0" encoding="UTF-8" standalone="no"?>
<!DOCTYPE svg PUBLIC "-//W3C//DTD SVG 1.1//EN"
 "http://www.w3.org/Graphics/SVG/1.1/DTD/svg11.dtd">
<!-- Generated by graphviz version 2.46.1 (20210213.1702)
 -->
<!-- Title: G Pages: 1 -->
<svg width="3253pt" height="689pt"
 viewBox="0.00 0.00 3253.00 689.00" xmlns="http://www.w3.org/2000/svg" xmlns:xlink="http://www.w3.org/1999/xlink">
<g id="graph0" class="graph" transform="scale(1 1) rotate(0) translate(4 685)">
<title>G</title>
<polygon fill="white" stroke="transparent" points="-4,4 -4,-685 3249,-685 3249,4 -4,4"/>
<g id="clust1" class="cluster">
<title>cluster_TransactionFee</title>
<polygon fill="none" stroke="black" points="3071,-487 3071,-637 3237,-637 3237,-487 3071,-487"/>
<text text-anchor="middle" x="3154" y="-621.8" font-family="Times,serif" font-size="14.00">TransactionFee</text>
</g>
<g id="clust2" class="cluster">
<title>cluster_Errors</title>
<polygon fill="none" stroke="black" points="8,-80 8,-238 1220,-238 1220,-80 8,-80"/>
<text text-anchor="middle" x="614" y="-222.8" font-family="Times,serif" font-size="14.00">Errors</text>
</g>
<g id="clust3" class="cluster">
<title>cluster_CoreAddresses</title>
<polygon fill="none" stroke="black" points="1386,-80 1386,-238 2125,-238 2125,-80 1386,-80"/>
<text text-anchor="middle" x="1755.5" y="-222.8" font-family="Times,serif" font-size="14.00">CoreAddresses</text>
</g>
<g id="clust4" class="cluster">
<title>cluster_DiemTimestamp</title>
<polygon fill="none" stroke="black" points="1625,-246 1625,-396 1777,-396 1777,-246 1625,-246"/>
<text text-anchor="middle" x="1701" y="-380.8" font-family="Times,serif" font-size="14.00">DiemTimestamp</text>
</g>
<g id="clust5" class="cluster">
<title>cluster_Roles</title>
<polygon fill="none" stroke="black" points="1891,-246 1891,-321 2125,-321 2125,-246 1891,-246"/>
<text text-anchor="middle" x="2008" y="-305.8" font-family="Times,serif" font-size="14.00">Roles</text>
</g>
<g id="clust6" class="cluster">
<title>cluster_Diem</title>
<polygon fill="none" stroke="black" points="2133,-163 2133,-562 2805,-562 2805,-163 2133,-163"/>
<text text-anchor="middle" x="2469" y="-546.8" font-family="Times,serif" font-size="14.00">Diem</text>
</g>
<g id="clust7" class="cluster">
<title>cluster_XDX</title>
<polygon fill="none" stroke="black" points="2995,-404 2995,-479 3079,-479 3079,-404 2995,-404"/>
<text text-anchor="middle" x="3037" y="-463.8" font-family="Times,serif" font-size="14.00">XDX</text>
</g>
<g id="clust8" class="cluster">
<title>cluster_Signer</title>
<polygon fill="none" stroke="black" points="1228,-8 1228,-155 1378,-155 1378,-8 1228,-8"/>
<text text-anchor="middle" x="1303" y="-139.8" font-family="Times,serif" font-size="14.00">Signer</text>
</g>
<g id="clust9" class="cluster">
<title>cluster_Event</title>
<polygon fill="none" stroke="black" points="1209,-246 1209,-396 1395,-396 1395,-246 1209,-246"/>
<text text-anchor="middle" x="1302" y="-380.8" font-family="Times,serif" font-size="14.00">Event</text>
</g>
<!-- burn_txn_fees -->
<g id="node1" class="node">
<title>burn_txn_fees</title>
<ellipse fill="none" stroke="black" cx="3124" cy="-663" rx="61.19" ry="18"/>
<text text-anchor="middle" x="3124" y="-659.3" font-family="Times,serif" font-size="14.00">burn_txn_fees</text>
</g>
<!-- TransactionFee::burn_fees -->
<g id="node2" class="node">
<title>TransactionFee::burn_fees</title>
<ellipse fill="none" stroke="black" cx="3124" cy="-588" rx="45.49" ry="18"/>
<text text-anchor="middle" x="3124" y="-584.3" font-family="Times,serif" font-size="14.00">burn_fees</text>
</g>
<!-- burn_txn_fees&#45;&gt;TransactionFee::burn_fees -->
<g id="edge1" class="edge">
<title>burn_txn_fees&#45;&gt;TransactionFee::burn_fees</title>
<path fill="none" stroke="black" d="M3124,-644.7C3124,-636.25 3124,-625.87 3124,-616.37"/>
<polygon fill="black" stroke="black" points="3127.5,-616.18 3124,-606.18 3120.5,-616.18 3127.5,-616.18"/>
</g>
<!-- Errors::invalid_state -->
<g id="node3" class="node">
<title>Errors::invalid_state</title>
<ellipse fill="none" stroke="black" cx="410" cy="-189" rx="55.79" ry="18"/>
<text text-anchor="middle" x="410" y="-185.3" font-family="Times,serif" font-size="14.00">invalid_state</text>
</g>
<!-- TransactionFee::burn_fees&#45;&gt;Errors::invalid_state -->
<g id="edge2" class="edge">
<title>TransactionFee::burn_fees&#45;&gt;Errors::invalid_state</title>
<path fill="none" stroke="black" d="M3078.9,-585.29C3008.93,-582.24 2880.49,-574.96 2864,-562 2834.76,-539.03 2839.23,-425.64 2809,-404 2795.58,-394.4 1636.76,-400.88 1621,-396 1507.26,-360.76 1512.71,-281.35 1399,-246 1349.98,-230.76 523.69,-254.26 475,-238 459.8,-232.92 445.22,-222.81 433.73,-213.18"/>
<polygon fill="black" stroke="black" points="435.77,-210.31 425.95,-206.32 431.14,-215.56 435.77,-210.31"/>
</g>
<!-- Errors::not_published -->
<g id="node4" class="node">
<title>Errors::not_published</title>
<ellipse fill="none" stroke="black" cx="861" cy="-189" rx="60.39" ry="18"/>
<text text-anchor="middle" x="861" y="-185.3" font-family="Times,serif" font-size="14.00">not_published</text>
</g>
<!-- TransactionFee::burn_fees&#45;&gt;Errors::not_published -->
<g id="edge3" class="edge">
<title>TransactionFee::burn_fees&#45;&gt;Errors::not_published</title>
<path fill="none" stroke="black" d="M3078.6,-586.58C2909.63,-584.89 2317.22,-577.94 2129,-562 1872.59,-540.29 1808.79,-527.1 1556,-479 1398.52,-449.04 1354.01,-455.11 1205,-396 1080.06,-346.44 947.89,-254.45 890.48,-212.23"/>
<polygon fill="black" stroke="black" points="892.36,-209.27 882.24,-206.13 888.2,-214.89 892.36,-209.27"/>
</g>
<!-- CoreAddresses::TREASURY_COMPLIANCE_ADDRESS -->
<g id="node5" class="node">
<title>CoreAddresses::TREASURY_COMPLIANCE_ADDRESS</title>
<ellipse fill="none" stroke="black" cx="1954" cy="-106" rx="163.27" ry="18"/>
<text text-anchor="middle" x="1954" y="-102.3" font-family="Times,serif" font-size="14.00">TREASURY_COMPLIANCE_ADDRESS</text>
</g>
<!-- TransactionFee::burn_fees&#45;&gt;CoreAddresses::TREASURY_COMPLIANCE_ADDRESS -->
<g id="edge4" class="edge">
<title>TransactionFee::burn_fees&#45;&gt;CoreAddresses::TREASURY_COMPLIANCE_ADDRESS</title>
<path fill="none" stroke="black" d="M3087.72,-577.11C3080.7,-573.51 3074.23,-568.62 3070,-562 3052.05,-533.91 3053.74,-516.1 3070,-487 3073.31,-481.08 3079.34,-484.71 3083,-479 3114.67,-429.63 3099,-406.65 3099,-348 3099,-348 3099,-348 3099,-271 3099,-133.46 2943.49,-191.8 2809,-163 2681.9,-135.78 2329.87,-119.63 2119.25,-112.12"/>
<polygon fill="black" stroke="black" points="2119.14,-108.61 2109.02,-111.75 2118.89,-115.61 2119.14,-108.61"/>
</g>
<!-- DiemTimestamp::assert_operating -->
<g id="node6" class="node">
<title>DiemTimestamp::assert_operating</title>
<ellipse fill="none" stroke="black" cx="1701" cy="-347" rx="68.49" ry="18"/>
<text text-anchor="middle" x="1701" y="-343.3" font-family="Times,serif" font-size="14.00">assert_operating</text>
</g>
<!-- TransactionFee::burn_fees&#45;&gt;DiemTimestamp::assert_operating -->
<g id="edge5" class="edge">
<title>TransactionFee::burn_fees&#45;&gt;DiemTimestamp::assert_operating</title>
<path fill="none" stroke="black" d="M3078.38,-587.35C3020.87,-586.89 2926.22,-582.86 2899,-562 2839.12,-516.12 2899.09,-446.85 2837,-404 2820.81,-392.83 2148.63,-397.21 2129,-396 2001.53,-388.15 1853.62,-369.41 1769.3,-357.8"/>
<polygon fill="black" stroke="black" points="1769.72,-354.33 1759.34,-356.42 1768.76,-361.26 1769.72,-354.33"/>
</g>
<!-- Roles::assert_treasury_compliance -->
<g id="node7" class="node">
<title>Roles::assert_treasury_compliance</title>
<ellipse fill="none" stroke="black" cx="2008" cy="-272" rx="108.58" ry="18"/>
<text text-anchor="middle" x="2008" y="-268.3" font-family="Times,serif" font-size="14.00">assert_treasury_compliance</text>
</g>
<!-- TransactionFee::burn_fees&#45;&gt;Roles::assert_treasury_compliance -->
<g id="edge6" class="edge">
<title>TransactionFee::burn_fees&#45;&gt;Roles::assert_treasury_compliance</title>
<path fill="none" stroke="black" d="M3078.85,-585.09C3058.17,-582.19 3034.44,-575.77 3017,-562 2955.38,-513.35 2991.74,-461.24 2938,-404 2892.61,-355.65 2872.93,-346.64 2809,-329 2736.16,-308.9 2203.13,-335.62 2129,-321 2101.23,-315.52 2071.67,-303.92 2048.72,-293.49"/>
<polygon fill="black" stroke="black" points="2050.18,-290.31 2039.63,-289.26 2047.22,-296.65 2050.18,-290.31"/>
</g>
<!-- Diem::burn_now -->
<g id="node8" class="node">
<title>Diem::burn_now</title>
<ellipse fill="none" stroke="black" cx="2420" cy="-513" rx="46.29" ry="18"/>
<text text-anchor="middle" x="2420" y="-509.3" font-family="Times,serif" font-size="14.00">burn_now</text>
</g>
<!-- TransactionFee::burn_fees&#45;&gt;Diem::burn_now -->
<g id="edge7" class="edge">
<title>TransactionFee::burn_fees&#45;&gt;Diem::burn_now</title>
<path fill="none" stroke="black" d="M3079.34,-584.07C3018.25,-579.92 2905.2,-571.75 2809,-562 2688.57,-549.8 2547.69,-531.38 2472.92,-521.27"/>
<polygon fill="black" stroke="black" points="2473.19,-517.78 2462.82,-519.9 2472.25,-524.71 2473.19,-517.78"/>
</g>
<!-- Diem::publish_burn_capability -->
<g id="node9" class="node">
<title>Diem::publish_burn_capability</title>
<ellipse fill="none" stroke="black" cx="2406" cy="-347" rx="96.38" ry="18"/>
<text text-anchor="middle" x="2406" y="-343.3" font-family="Times,serif" font-size="14.00">publish_burn_capability</text>
</g>
<!-- TransactionFee::burn_fees&#45;&gt;Diem::publish_burn_capability -->
<g id="edge8" class="edge">
<title>TransactionFee::burn_fees&#45;&gt;Diem::publish_burn_capability</title>
<path fill="none" stroke="black" d="M3078.39,-586.53C3028.32,-585.1 2952.08,-579.93 2930,-562 2872.28,-515.13 2935.13,-447.74 2875,-404 2858.69,-392.13 2531.67,-400.47 2512,-396 2487.85,-390.51 2462.53,-379.27 2442.69,-369.05"/>
<polygon fill="black" stroke="black" points="2444.17,-365.88 2433.7,-364.29 2440.9,-372.06 2444.17,-365.88"/>
</g>
<!-- Diem::remove_burn_capability -->
<g id="node10" class="node">
<title>Diem::remove_burn_capability</title>
<ellipse fill="none" stroke="black" cx="2238" cy="-513" rx="96.68" ry="18"/>
<text text-anchor="middle" x="2238" y="-509.3" font-family="Times,serif" font-size="14.00">remove_burn_capability</text>
</g>
<!-- TransactionFee::burn_fees&#45;&gt;Diem::remove_burn_capability -->
<g id="edge9" class="edge">
<title>TransactionFee::burn_fees&#45;&gt;Diem::remove_burn_capability</title>
<path fill="none" stroke="black" d="M3078.36,-587.45C2936.18,-588.55 2502.61,-589.49 2365,-562 2335.82,-556.17 2304.54,-544.42 2280.32,-534"/>
<polygon fill="black" stroke="black" points="2281.63,-530.76 2271.07,-529.94 2278.82,-537.17 2281.63,-530.76"/>
</g>
<!-- Diem::withdraw_all -->
<g id="node11" class="node">
<title>Diem::withdraw_all</title>
<ellipse fill="none" stroke="black" cx="2740" cy="-347" rx="57.39" ry="18"/>
<text text-anchor="middle" x="2740" y="-343.3" font-family="Times,serif" font-size="14.00">withdraw_all</text>
</g>
<!-- TransactionFee::burn_fees&#45;&gt;Diem::withdraw_all -->
<g id="edge10" class="edge">
<title>TransactionFee::burn_fees&#45;&gt;Diem::withdraw_all</title>
<path fill="none" stroke="black" d="M3078.94,-585.37C3036.91,-582.94 2978.2,-576.91 2961,-562 2905.54,-513.94 2964.42,-456.36 2913,-404 2884.49,-374.97 2840.84,-360.98 2804.52,-354.24"/>
<polygon fill="black" stroke="black" points="2804.93,-350.76 2794.49,-352.52 2803.75,-357.66 2804.93,-350.76"/>
</g>
<!-- XDX::is_xdx -->
<g id="node12" class="node">
<title>XDX::is_xdx</title>
<ellipse fill="none" stroke="black" cx="3037" cy="-430" rx="34.39" ry="18"/>
<text text-anchor="middle" x="3037" y="-426.3" font-family="Times,serif" font-size="14.00">is_xdx</text>
</g>
<!-- TransactionFee::burn_fees&#45;&gt;XDX::is_xdx -->
<g id="edge11" class="edge">
<title>TransactionFee::burn_fees&#45;&gt;XDX::is_xdx</title>
<path fill="none" stroke="black" d="M3078.81,-584.83C3063.03,-581.63 3046.83,-575.06 3037,-562 3014.46,-532.07 3020.93,-486.4 3028.41,-457.65"/>
<polygon fill="black" stroke="black" points="3031.82,-458.46 3031.16,-447.88 3025.08,-456.56 3031.82,-458.46"/>
</g>
<!-- TransactionFee::is_coin_initialized -->
<g id="node13" class="node">
<title>TransactionFee::is_coin_initialized</title>
<ellipse fill="none" stroke="black" cx="3154" cy="-513" rx="75.29" ry="18"/>
<text text-anchor="middle" x="3154" y="-509.3" font-family="Times,serif" font-size="14.00">is_coin_initialized</text>
</g>
<!-- TransactionFee::burn_fees&#45;&gt;TransactionFee::is_coin_initialized -->
<g id="edge12" class="edge">
<title>TransactionFee::burn_fees&#45;&gt;TransactionFee::is_coin_initialized</title>
<path fill="none" stroke="black" d="M3130.96,-570.07C3134.57,-561.29 3139.06,-550.36 3143.11,-540.49"/>
<polygon fill="black" stroke="black" points="3146.41,-541.67 3146.98,-531.09 3139.94,-539.01 3146.41,-541.67"/>
</g>
<!-- Errors::make -->
<g id="node14" class="node">
<title>Errors::make</title>
<ellipse fill="none" stroke="black" cx="628" cy="-106" rx="30.59" ry="18"/>
<text text-anchor="middle" x="628" y="-102.3" font-family="Times,serif" font-size="14.00">make</text>
</g>
<!-- Errors::invalid_state&#45;&gt;Errors::make -->
<g id="edge13" class="edge">
<title>Errors::invalid_state&#45;&gt;Errors::make</title>
<path fill="none" stroke="black" d="M444.37,-174.66C454.25,-170.86 465.04,-166.74 475,-163 515.38,-147.84 561.95,-130.87 593,-119.63"/>
<polygon fill="black" stroke="black" points="594.29,-122.88 602.51,-116.19 591.91,-116.3 594.29,-122.88"/>
</g>
<!-- Errors::not_published&#45;&gt;Errors::make -->
<g id="edge14" class="edge">
<title>Errors::not_published&#45;&gt;Errors::make</title>
<path fill="none" stroke="black" d="M823.97,-174.68C813.34,-170.88 801.72,-166.75 791,-163 747.11,-147.62 696.43,-130.28 663.39,-119.02"/>
<polygon fill="black" stroke="black" points="664.32,-115.64 653.72,-115.73 662.06,-122.27 664.32,-115.64"/>
</g>
<!-- DiemTimestamp::assert_operating&#45;&gt;Errors::invalid_state -->
<g id="edge15" class="edge">
<title>DiemTimestamp::assert_operating&#45;&gt;Errors::invalid_state</title>
<path fill="none" stroke="black" d="M1664.81,-331.6C1657.77,-328.39 1650.54,-324.8 1644,-321 1595.65,-292.93 1596.02,-263.75 1543,-246 1486.74,-227.16 531.29,-256.77 475,-238 459.79,-232.93 445.21,-222.82 433.73,-213.19"/>
<polygon fill="black" stroke="black" points="435.76,-210.32 425.95,-206.33 431.14,-215.57 435.76,-210.32"/>
</g>
<!-- DiemTimestamp::is_operating -->
<g id="node15" class="node">
<title>DiemTimestamp::is_operating</title>
<ellipse fill="none" stroke="black" cx="1707" cy="-272" rx="53.89" ry="18"/>
<text text-anchor="middle" x="1707" y="-268.3" font-family="Times,serif" font-size="14.00">is_operating</text>
</g>
<!-- DiemTimestamp::assert_operating&#45;&gt;DiemTimestamp::is_operating -->
<g id="edge16" class="edge">
<title>DiemTimestamp::assert_operating&#45;&gt;DiemTimestamp::is_operating</title>
<path fill="none" stroke="black" d="M1702.42,-328.7C1703.12,-320.25 1703.97,-309.87 1704.75,-300.37"/>
<polygon fill="black" stroke="black" points="1708.26,-300.43 1705.59,-290.18 1701.28,-299.86 1708.26,-300.43"/>
</g>
<!-- Roles::assert_treasury_compliance&#45;&gt;Errors::not_published -->
<g id="edge18" class="edge">
<title>Roles::assert_treasury_compliance&#45;&gt;Errors::not_published</title>
<path fill="none" stroke="black" d="M1938.92,-258.02C1910.55,-253.28 1877.31,-248.47 1847,-246 1821.64,-243.93 955.27,-245.64 931,-238 914.78,-232.9 898.97,-222.64 886.48,-212.92"/>
<polygon fill="black" stroke="black" points="888.37,-209.94 878.41,-206.34 883.95,-215.37 888.37,-209.94"/>
</g>
<!-- Signer::address_of -->
<g id="node16" class="node">
<title>Signer::address_of</title>
<ellipse fill="none" stroke="black" cx="1321" cy="-106" rx="48.99" ry="18"/>
<text text-anchor="middle" x="1321" y="-102.3" font-family="Times,serif" font-size="14.00">address_of</text>
</g>
<!-- Roles::assert_treasury_compliance&#45;&gt;Signer::address_of -->
<g id="edge17" class="edge">
<title>Roles::assert_treasury_compliance&#45;&gt;Signer::address_of</title>
<path fill="none" stroke="black" d="M1949.54,-256.82C1929.23,-252.51 1906.23,-248.31 1885,-246 1871.11,-244.49 1393.72,-245.6 1382,-238 1372.55,-231.87 1346.33,-169.85 1331.53,-133.39"/>
<polygon fill="black" stroke="black" points="1334.67,-131.82 1327.68,-123.85 1328.17,-134.44 1334.67,-131.82"/>
</g>
<!-- Errors::requires_role -->
<g id="node17" class="node">
<title>Errors::requires_role</title>
<ellipse fill="none" stroke="black" cx="997" cy="-189" rx="57.39" ry="18"/>
<text text-anchor="middle" x="997" y="-185.3" font-family="Times,serif" font-size="14.00">requires_role</text>
</g>
<!-- Roles::assert_treasury_compliance&#45;&gt;Errors::requires_role -->
<g id="edge19" class="edge">
<title>Roles::assert_treasury_compliance&#45;&gt;Errors::requires_role</title>
<path fill="none" stroke="black" d="M1938.92,-258.04C1910.55,-253.3 1877.31,-248.49 1847,-246 1803.59,-242.43 1104.35,-251.68 1063,-238 1047.48,-232.87 1032.54,-222.61 1020.82,-212.89"/>
<polygon fill="black" stroke="black" points="1023.09,-210.23 1013.24,-206.32 1018.5,-215.52 1023.09,-210.23"/>
</g>
<!-- CoreAddresses::assert_treasury_compliance -->
<g id="node18" class="node">
<title>CoreAddresses::assert_treasury_compliance</title>
<ellipse fill="none" stroke="black" cx="2008" cy="-189" rx="108.58" ry="18"/>
<text text-anchor="middle" x="2008" y="-185.3" font-family="Times,serif" font-size="14.00">assert_treasury_compliance</text>
</g>
<!-- Roles::assert_treasury_compliance&#45;&gt;CoreAddresses::assert_treasury_compliance -->
<g id="edge20" class="edge">
<title>Roles::assert_treasury_compliance&#45;&gt;CoreAddresses::assert_treasury_compliance</title>
<path fill="none" stroke="black" d="M2008,-253.82C2008,-243.19 2008,-229.31 2008,-217.2"/>
<polygon fill="black" stroke="black" points="2011.5,-217.15 2008,-207.15 2004.5,-217.15 2011.5,-217.15"/>
</g>
<!-- Errors::invalid_argument -->
<g id="node19" class="node">
<title>Errors::invalid_argument</title>
<ellipse fill="none" stroke="black" cx="263" cy="-189" rx="73.39" ry="18"/>
<text text-anchor="middle" x="263" y="-185.3" font-family="Times,serif" font-size="14.00">invalid_argument</text>
</g>
<!-- Diem::burn_now&#45;&gt;Errors::invalid_argument -->
<g id="edge21" class="edge">
<title>Diem::burn_now&#45;&gt;Errors::invalid_argument</title>
<path fill="none" stroke="black" d="M2388.71,-499.52C2375.18,-494.7 2359.04,-489.7 2344,-487 2297.6,-478.66 2179.08,-481.55 2132,-479 1610.57,-450.71 1475.43,-479.76 960,-396 681.44,-350.74 605.96,-345.43 345,-238 327.82,-230.93 309.89,-220.79 295.19,-211.65"/>
<polygon fill="black" stroke="black" points="296.8,-208.53 286.49,-206.12 293.05,-214.44 296.8,-208.53"/>
</g>
<!-- Diem::burn_with_resource_cap -->
<g id="node20" class="node">
<title>Diem::burn_with_resource_cap</title>
<ellipse fill="none" stroke="black" cx="2441" cy="-430" rx="97.48" ry="18"/>
<text text-anchor="middle" x="2441" y="-426.3" font-family="Times,serif" font-size="14.00">burn_with_resource_cap</text>
</g>
<!-- Diem::burn_now&#45;&gt;Diem::burn_with_resource_cap -->
<g id="edge22" class="edge">
<title>Diem::burn_now&#45;&gt;Diem::burn_with_resource_cap</title>
<path fill="none" stroke="black" d="M2424.45,-494.82C2427.24,-484.08 2430.88,-470.03 2434.04,-457.84"/>
<polygon fill="black" stroke="black" points="2437.43,-458.71 2436.55,-448.15 2430.66,-456.95 2437.43,-458.71"/>
</g>
<!-- Diem::preburn_with_resource -->
<g id="node21" class="node">
<title>Diem::preburn_with_resource</title>
<ellipse fill="none" stroke="black" cx="2233" cy="-430" rx="92.08" ry="18"/>
<text text-anchor="middle" x="2233" y="-426.3" font-family="Times,serif" font-size="14.00">preburn_with_resource</text>
</g>
<!-- Diem::burn_now&#45;&gt;Diem::preburn_with_resource -->
<g id="edge23" class="edge">
<title>Diem::burn_now&#45;&gt;Diem::preburn_with_resource</title>
<path fill="none" stroke="black" d="M2387.5,-499.99C2371.57,-493.95 2352.17,-486.36 2335,-479 2314.93,-470.4 2292.99,-460.18 2274.61,-451.38"/>
<polygon fill="black" stroke="black" points="2275.88,-448.11 2265.35,-446.93 2272.85,-454.42 2275.88,-448.11"/>
</g>
<!-- Diem::publish_burn_capability&#45;&gt;Roles::assert_treasury_compliance -->
<g id="edge26" class="edge">
<title>Diem::publish_burn_capability&#45;&gt;Roles::assert_treasury_compliance</title>
<path fill="none" stroke="black" d="M2338.86,-334.07C2326,-332.11 2312.61,-330.3 2300,-329 2224.32,-321.19 2203.38,-337.02 2129,-321 2101.74,-315.13 2072.65,-303.77 2049.83,-293.57"/>
<polygon fill="black" stroke="black" points="2051.01,-290.26 2040.46,-289.29 2048.1,-296.63 2051.01,-290.26"/>
</g>
<!-- Diem::publish_burn_capability&#45;&gt;Signer::address_of -->
<g id="edge24" class="edge">
<title>Diem::publish_burn_capability&#45;&gt;Signer::address_of</title>
<path fill="none" stroke="black" d="M2339.74,-333.92C2326.61,-331.93 2312.9,-330.15 2300,-329 2277.14,-326.96 1906.56,-333 1887,-321 1854.8,-301.25 1879.24,-265.69 1847,-246 1823.05,-231.37 1363.21,-256.37 1342,-238 1312.88,-212.77 1312.85,-164.58 1316.32,-134.21"/>
<polygon fill="black" stroke="black" points="1319.8,-134.65 1317.66,-124.27 1312.86,-133.72 1319.8,-134.65"/>
</g>
<!-- Errors::already_published -->
<g id="node22" class="node">
<title>Errors::already_published</title>
<ellipse fill="none" stroke="black" cx="707" cy="-189" rx="75.29" ry="18"/>
<text text-anchor="middle" x="707" y="-185.3" font-family="Times,serif" font-size="14.00">already_published</text>
</g>
<!-- Diem::publish_burn_capability&#45;&gt;Errors::already_published -->
<g id="edge25" class="edge">
<title>Diem::publish_burn_capability&#45;&gt;Errors::already_published</title>
<path fill="none" stroke="black" d="M2339.74,-333.9C2326.61,-331.92 2312.9,-330.15 2300,-329 2275.48,-326.82 1878.49,-333.01 1857,-321 1822.46,-301.69 1843.64,-265.14 1809,-246 1784.27,-232.34 819.29,-245.29 792,-238 772.56,-232.81 752.88,-222.11 737.35,-212.13"/>
<polygon fill="black" stroke="black" points="738.99,-209.02 728.72,-206.38 735.11,-214.84 738.99,-209.02"/>
</g>
<!-- Diem::assert_is_currency -->
<g id="node23" class="node">
<title>Diem::assert_is_currency</title>
<ellipse fill="none" stroke="black" cx="2455" cy="-272" rx="76.09" ry="18"/>
<text text-anchor="middle" x="2455" y="-268.3" font-family="Times,serif" font-size="14.00">assert_is_currency</text>
</g>
<!-- Diem::publish_burn_capability&#45;&gt;Diem::assert_is_currency -->
<g id="edge27" class="edge">
<title>Diem::publish_burn_capability&#45;&gt;Diem::assert_is_currency</title>
<path fill="none" stroke="black" d="M2417.36,-329.07C2423.49,-319.95 2431.16,-308.51 2437.98,-298.35"/>
<polygon fill="black" stroke="black" points="2441.03,-300.09 2443.7,-289.84 2435.22,-296.19 2441.03,-300.09"/>
</g>
<!-- Diem::remove_burn_capability&#45;&gt;Signer::address_of -->
<g id="edge28" class="edge">
<title>Diem::remove_burn_capability&#45;&gt;Signer::address_of</title>
<path fill="none" stroke="black" d="M2151.79,-504.66C1989.12,-489.69 1643.82,-452.2 1539,-396 1458.63,-352.91 1480.92,-286.06 1399,-246 1381.16,-237.28 1323.4,-252.66 1310,-238 1284.27,-209.85 1296.82,-162.63 1308.63,-133.23"/>
<polygon fill="black" stroke="black" points="1311.87,-134.57 1312.56,-124 1305.43,-131.83 1311.87,-134.57"/>
</g>
<!-- Errors::requires_capability -->
<g id="node24" class="node">
<title>Errors::requires_capability</title>
<ellipse fill="none" stroke="black" cx="94" cy="-189" rx="77.99" ry="18"/>
<text text-anchor="middle" x="94" y="-185.3" font-family="Times,serif" font-size="14.00">requires_capability</text>
</g>
<!-- Diem::remove_burn_capability&#45;&gt;Errors::requires_capability -->
<g id="edge29" class="edge">
<title>Diem::remove_burn_capability&#45;&gt;Errors::requires_capability</title>
<path fill="none" stroke="black" d="M2141.35,-511.61C1843.67,-510.15 953.11,-503.73 825,-479 524.93,-421.07 458.64,-365.71 181,-238 163.58,-229.99 144.88,-219.88 129.3,-211.01"/>
<polygon fill="black" stroke="black" points="130.93,-207.91 120.52,-205.95 127.44,-213.98 130.93,-207.91"/>
</g>
<!-- Diem::withdraw -->
<g id="node25" class="node">
<title>Diem::withdraw</title>
<ellipse fill="none" stroke="black" cx="2642" cy="-272" rx="44.39" ry="18"/>
<text text-anchor="middle" x="2642" y="-268.3" font-family="Times,serif" font-size="14.00">withdraw</text>
</g>
<!-- Diem::withdraw_all&#45;&gt;Diem::withdraw -->
<g id="edge30" class="edge">
<title>Diem::withdraw_all&#45;&gt;Diem::withdraw</title>
<path fill="none" stroke="black" d="M2718.74,-330.16C2704.58,-319.62 2685.82,-305.64 2670.4,-294.15"/>
<polygon fill="black" stroke="black" points="2672.33,-291.23 2662.22,-288.06 2668.15,-296.84 2672.33,-291.23"/>
</g>
<!-- Diem::currency_code -->
<g id="node26" class="node">
<title>Diem::currency_code</title>
<ellipse fill="none" stroke="black" cx="2583" cy="-347" rx="62.29" ry="18"/>
<text text-anchor="middle" x="2583" y="-343.3" font-family="Times,serif" font-size="14.00">currency_code</text>
</g>
<!-- XDX::is_xdx&#45;&gt;Diem::currency_code -->
<g id="edge31" class="edge">
<title>XDX::is_xdx&#45;&gt;Diem::currency_code</title>
<path fill="none" stroke="black" d="M3006.65,-421.42C2981.68,-415.54 2945.28,-407.77 2913,-404 2860.22,-397.84 2725.36,-409.63 2674,-396 2653.17,-390.47 2631.76,-379.49 2614.94,-369.43"/>
<polygon fill="black" stroke="black" points="2616.46,-366.25 2606.11,-363.97 2612.78,-372.2 2616.46,-366.25"/>
</g>
<!-- Diem::is_currency -->
<g id="node27" class="node">
<title>Diem::is_currency</title>
<ellipse fill="none" stroke="black" cx="2455" cy="-189" rx="51.99" ry="18"/>
<text text-anchor="middle" x="2455" y="-185.3" font-family="Times,serif" font-size="14.00">is_currency</text>
</g>
<!-- XDX::is_xdx&#45;&gt;Diem::is_currency -->
<g id="edge32" class="edge">
<title>XDX::is_xdx&#45;&gt;Diem::is_currency</title>
<path fill="none" stroke="black" d="M3033.37,-411.82C3027.75,-389.46 3014.79,-350.69 2989,-329 2850.5,-212.53 2625.63,-192.26 2517.27,-189.64"/>
<polygon fill="black" stroke="black" points="2517.22,-186.14 2507.16,-189.44 2517.08,-193.13 2517.22,-186.14"/>
</g>
<!-- TransactionFee::is_coin_initialized&#45;&gt;CoreAddresses::TREASURY_COMPLIANCE_ADDRESS -->
<g id="edge33" class="edge">
<title>TransactionFee::is_coin_initialized&#45;&gt;CoreAddresses::TREASURY_COMPLIANCE_ADDRESS</title>
<path fill="none" stroke="black" d="M3152.43,-494.78C3149.85,-464.93 3145,-401.61 3145,-348 3145,-348 3145,-348 3145,-271 3145,-220.94 3152.38,-193.91 3113,-163 3074.79,-133.01 2436.07,-116.42 2123.54,-110.06"/>
<polygon fill="black" stroke="black" points="2123.55,-106.56 2113.48,-109.86 2123.4,-113.56 2123.55,-106.56"/>
</g>
<!-- CoreAddresses::DIEM_ROOT_ADDRESS -->
<g id="node28" class="node">
<title>CoreAddresses::DIEM_ROOT_ADDRESS</title>
<ellipse fill="none" stroke="black" cx="1775" cy="-189" rx="106.68" ry="18"/>
<text text-anchor="middle" x="1775" y="-185.3" font-family="Times,serif" font-size="14.00">DIEM_ROOT_ADDRESS</text>
</g>
<!-- DiemTimestamp::is_operating&#45;&gt;CoreAddresses::DIEM_ROOT_ADDRESS -->
<g id="edge34" class="edge">
<title>DiemTimestamp::is_operating&#45;&gt;CoreAddresses::DIEM_ROOT_ADDRESS</title>
<path fill="none" stroke="black" d="M1721.09,-254.22C1730.6,-242.89 1743.32,-227.74 1754.01,-215"/>
<polygon fill="black" stroke="black" points="1756.95,-216.95 1760.69,-207.04 1751.58,-212.45 1756.95,-216.95"/>
</g>
<!-- Signer::borrow_address -->
<g id="node29" class="node">
<title>Signer::borrow_address</title>
<ellipse fill="none" stroke="black" cx="1303" cy="-34" rx="66.89" ry="18"/>
<text text-anchor="middle" x="1303" y="-30.3" font-family="Times,serif" font-size="14.00">borrow_address</text>
</g>
<!-- Signer::address_of&#45;&gt;Signer::borrow_address -->
<g id="edge35" class="edge">
<title>Signer::address_of&#45;&gt;Signer::borrow_address</title>
<path fill="none" stroke="black" d="M1316.64,-88.05C1314.64,-80.26 1312.21,-70.82 1309.96,-62.08"/>
<polygon fill="black" stroke="black" points="1313.32,-61.09 1307.44,-52.28 1306.54,-62.83 1313.32,-61.09"/>
</g>
<!-- Errors::requires_role&#45;&gt;Errors::make -->
<g id="edge36" class="edge">
<title>Errors::requires_role&#45;&gt;Errors::make</title>
<path fill="none" stroke="black" d="M963.64,-174.25C953.01,-170.22 941.13,-166.08 930,-163 837.6,-137.4 726.01,-120.14 667.77,-112.13"/>
<polygon fill="black" stroke="black" points="667.92,-108.61 657.54,-110.74 666.98,-115.55 667.92,-108.61"/>
</g>
<!-- CoreAddresses::assert_treasury_compliance&#45;&gt;CoreAddresses::TREASURY_COMPLIANCE_ADDRESS -->
<g id="edge39" class="edge">
<title>CoreAddresses::assert_treasury_compliance&#45;&gt;CoreAddresses::TREASURY_COMPLIANCE_ADDRESS</title>
<path fill="none" stroke="black" d="M1996.55,-170.82C1989.17,-159.76 1979.45,-145.18 1971.16,-132.75"/>
<polygon fill="black" stroke="black" points="1973.89,-130.53 1965.44,-124.15 1968.07,-134.42 1973.89,-130.53"/>
</g>
<!-- CoreAddresses::assert_treasury_compliance&#45;&gt;Signer::address_of -->
<g id="edge37" class="edge">
<title>CoreAddresses::assert_treasury_compliance&#45;&gt;Signer::address_of</title>
<path fill="none" stroke="black" d="M1951.53,-173.61C1932.44,-169.37 1910.92,-165.26 1891,-163 1862.9,-159.81 1408.65,-164.46 1382,-155 1367.63,-149.9 1354.05,-139.93 1343.36,-130.39"/>
<polygon fill="black" stroke="black" points="1345.47,-127.57 1335.79,-123.27 1340.67,-132.67 1345.47,-127.57"/>
</g>
<!-- Errors::requires_address -->
<g id="node30" class="node">
<title>Errors::requires_address</title>
<ellipse fill="none" stroke="black" cx="1142" cy="-189" rx="69.59" ry="18"/>
<text text-anchor="middle" x="1142" y="-185.3" font-family="Times,serif" font-size="14.00">requires_address</text>
</g>
<!-- CoreAddresses::assert_treasury_compliance&#45;&gt;Errors::requires_address -->
<g id="edge38" class="edge">
<title>CoreAddresses::assert_treasury_compliance&#45;&gt;Errors::requires_address</title>
<path fill="none" stroke="black" d="M1976.76,-206.28C1951.92,-218.98 1915.85,-235.17 1882,-242 1855.26,-247.39 1418.13,-244.86 1391,-242 1324.45,-235 1249.52,-217.74 1199.4,-204.8"/>
<polygon fill="black" stroke="black" points="1200.28,-201.42 1189.72,-202.28 1198.51,-208.19 1200.28,-201.42"/>
</g>
<!-- Errors::invalid_argument&#45;&gt;Errors::make -->
<g id="edge40" class="edge">
<title>Errors::invalid_argument&#45;&gt;Errors::make</title>
<path fill="none" stroke="black" d="M305.33,-174.21C318.02,-170.31 332.01,-166.26 345,-163 431.26,-141.37 534,-122.81 588.87,-113.46"/>
<polygon fill="black" stroke="black" points="589.58,-116.89 598.86,-111.77 588.42,-109.99 589.58,-116.89"/>
</g>
<!-- Diem::burn_with_resource_cap&#45;&gt;Errors::invalid_state -->
<g id="edge41" class="edge">
<title>Diem::burn_with_resource_cap&#45;&gt;Errors::invalid_state</title>
<path fill="none" stroke="black" d="M2389.98,-414.64C2372.39,-410.34 2352.47,-406.2 2334,-404 2271.71,-396.6 1265.86,-411.17 1205,-396 1065.35,-361.18 1057.46,-281.58 918,-246 870.3,-233.83 521.62,-253.82 475,-238 459.82,-232.85 445.24,-222.73 433.75,-213.11"/>
<polygon fill="black" stroke="black" points="435.79,-210.24 425.97,-206.27 431.17,-215.5 435.79,-210.24"/>
</g>
<!-- Diem::burn_with_resource_cap&#45;&gt;Diem::withdraw_all -->
<g id="edge47" class="edge">
<title>Diem::burn_with_resource_cap&#45;&gt;Diem::withdraw_all</title>
<path fill="none" stroke="black" d="M2534.66,-424.96C2576.83,-420.76 2626.57,-412.41 2669,-396 2684.67,-389.94 2700.33,-379.88 2712.95,-370.54"/>
<polygon fill="black" stroke="black" points="2715.35,-373.1 2721.15,-364.24 2711.09,-367.55 2715.35,-373.1"/>
</g>
<!-- Diem::burn_with_resource_cap&#45;&gt;Diem::assert_is_currency -->
<g id="edge46" class="edge">
<title>Diem::burn_with_resource_cap&#45;&gt;Diem::assert_is_currency</title>
<path fill="none" stroke="black" d="M2536.39,-426.09C2585.58,-422.37 2638.48,-414.11 2654,-396 2673.38,-373.39 2673.73,-351.31 2654,-329 2644.36,-318.1 2603.16,-324.36 2589,-321 2558.51,-313.76 2525.35,-301.91 2499.65,-291.8"/>
<polygon fill="black" stroke="black" points="2500.77,-288.48 2490.18,-288.03 2498.17,-294.98 2500.77,-288.48"/>
</g>
<!-- Diem::burn_with_resource_cap&#45;&gt;Diem::currency_code -->
<g id="edge45" class="edge">
<title>Diem::burn_with_resource_cap&#45;&gt;Diem::currency_code</title>
<path fill="none" stroke="black" d="M2477.13,-413.21C2488.17,-408.05 2500.24,-402.08 2511,-396 2525.03,-388.07 2539.94,-378.36 2552.53,-369.76"/>
<polygon fill="black" stroke="black" points="2554.61,-372.58 2560.84,-364.01 2550.62,-366.82 2554.61,-372.58"/>
</g>
<!-- Errors::limit_exceeded -->
<g id="node31" class="node">
<title>Errors::limit_exceeded</title>
<ellipse fill="none" stroke="black" cx="549" cy="-189" rx="64.99" ry="18"/>
<text text-anchor="middle" x="549" y="-185.3" font-family="Times,serif" font-size="14.00">limit_exceeded</text>
</g>
<!-- Diem::burn_with_resource_cap&#45;&gt;Errors::limit_exceeded -->
<g id="edge42" class="edge">
<title>Diem::burn_with_resource_cap&#45;&gt;Errors::limit_exceeded</title>
<path fill="none" stroke="black" d="M2389.7,-414.61C2372.18,-410.34 2352.37,-406.22 2334,-404 2292.3,-398.97 1617.4,-410.56 1578,-396 1480.64,-360.02 1496.36,-281.97 1399,-246 1358.56,-231.06 664.28,-250.45 623,-238 605.92,-232.85 589.06,-222.45 575.76,-212.64"/>
<polygon fill="black" stroke="black" points="577.63,-209.66 567.57,-206.34 573.36,-215.21 577.63,-209.66"/>
</g>
<!-- CoreAddresses::CURRENCY_INFO_ADDRESS -->
<g id="node32" class="node">
<title>CoreAddresses::CURRENCY_INFO_ADDRESS</title>
<ellipse fill="none" stroke="black" cx="1522" cy="-189" rx="128.08" ry="18"/>
<text text-anchor="middle" x="1522" y="-185.3" font-family="Times,serif" font-size="14.00">CURRENCY_INFO_ADDRESS</text>
</g>
<!-- Diem::burn_with_resource_cap&#45;&gt;CoreAddresses::CURRENCY_INFO_ADDRESS -->
<g id="edge43" class="edge">
<title>Diem::burn_with_resource_cap&#45;&gt;CoreAddresses::CURRENCY_INFO_ADDRESS</title>
<path fill="none" stroke="black" d="M2389.7,-414.62C2372.18,-410.35 2352.37,-406.22 2334,-404 2314.34,-401.62 1637.71,-406.64 1621,-396 1604.57,-385.54 1555.11,-269.94 1532.95,-216.64"/>
<polygon fill="black" stroke="black" points="1536.08,-215.05 1529.02,-207.16 1529.61,-217.73 1536.08,-215.05"/>
</g>
<!-- Event::emit_event -->
<g id="node33" class="node">
<title>Event::emit_event</title>
<ellipse fill="none" stroke="black" cx="1337" cy="-347" rx="50.09" ry="18"/>
<text text-anchor="middle" x="1337" y="-343.3" font-family="Times,serif" font-size="14.00">emit_event</text>
</g>
<!-- Diem::burn_with_resource_cap&#45;&gt;Event::emit_event -->
<g id="edge44" class="edge">
<title>Diem::burn_with_resource_cap&#45;&gt;Event::emit_event</title>
<path fill="none" stroke="black" d="M2389.71,-414.6C2372.18,-410.33 2352.37,-406.21 2334,-404 2243.65,-393.14 1605.16,-408.39 1515,-396 1468.48,-389.61 1416.82,-374.78 1381.19,-363.28"/>
<polygon fill="black" stroke="black" points="1382.18,-359.92 1371.58,-360.14 1380,-366.57 1382.18,-359.92"/>
</g>
<!-- Diem::preburn_with_resource&#45;&gt;Errors::invalid_state -->
<g id="edge48" class="edge">
<title>Diem::preburn_with_resource&#45;&gt;Errors::invalid_state</title>
<path fill="none" stroke="black" d="M2140.33,-429.56C1880.78,-430.68 1159.06,-430.6 1058,-396 951.19,-359.43 959.94,-282.2 853,-246 813.21,-232.53 514.76,-251.56 475,-238 459.83,-232.83 445.25,-222.71 433.76,-213.09"/>
<polygon fill="black" stroke="black" points="435.8,-210.22 425.97,-206.25 431.18,-215.48 435.8,-210.22"/>
</g>
<!-- Diem::preburn_with_resource&#45;&gt;Diem::currency_code -->
<g id="edge53" class="edge">
<title>Diem::preburn_with_resource&#45;&gt;Diem::currency_code</title>
<path fill="none" stroke="black" d="M2282.68,-414.77C2299.19,-410.59 2317.77,-406.48 2335,-404 2373.75,-398.42 2473.8,-408.19 2511,-396 2527.51,-390.59 2543.8,-380.27 2556.7,-370.58"/>
<polygon fill="black" stroke="black" points="2558.93,-373.28 2564.65,-364.36 2554.62,-367.76 2558.93,-373.28"/>
</g>
<!-- Diem::preburn_with_resource&#45;&gt;Errors::limit_exceeded -->
<g id="edge49" class="edge">
<title>Diem::preburn_with_resource&#45;&gt;Errors::limit_exceeded</title>
<path fill="none" stroke="black" d="M2140.9,-428.21C1905.55,-425.87 1294.35,-417.76 1205,-396 1054.73,-359.41 1041.31,-282.43 891,-246 833.09,-231.97 679.87,-255.76 623,-238 606.09,-232.72 589.36,-222.41 576.09,-212.7"/>
<polygon fill="black" stroke="black" points="577.98,-209.74 567.91,-206.46 573.74,-215.31 577.98,-209.74"/>
</g>
<!-- Diem::preburn_with_resource&#45;&gt;CoreAddresses::CURRENCY_INFO_ADDRESS -->
<g id="edge50" class="edge">
<title>Diem::preburn_with_resource&#45;&gt;CoreAddresses::CURRENCY_INFO_ADDRESS</title>
<path fill="none" stroke="black" d="M2141.73,-427C1969.67,-422.87 1612.54,-412.36 1591,-396 1534.69,-353.24 1523.85,-262.63 1522.08,-217.19"/>
<polygon fill="black" stroke="black" points="1525.58,-217.08 1521.81,-207.18 1518.58,-217.27 1525.58,-217.08"/>
</g>
<!-- Diem::preburn_with_resource&#45;&gt;Event::emit_event -->
<g id="edge51" class="edge">
<title>Diem::preburn_with_resource&#45;&gt;Event::emit_event</title>
<path fill="none" stroke="black" d="M2140.81,-428.27C1968,-426.35 1601.57,-419.56 1477,-396 1442.22,-389.42 1404.33,-376.02 1376.75,-365.05"/>
<polygon fill="black" stroke="black" points="1378.03,-361.79 1367.45,-361.29 1375.41,-368.28 1378.03,-361.79"/>
</g>
<!-- Diem::value -->
<g id="node34" class="node">
<title>Diem::value</title>
<ellipse fill="none" stroke="black" cx="2171" cy="-347" rx="29.8" ry="18"/>
<text text-anchor="middle" x="2171" y="-343.3" font-family="Times,serif" font-size="14.00">value</text>
</g>
<!-- Diem::preburn_with_resource&#45;&gt;Diem::value -->
<g id="edge52" class="edge">
<title>Diem::preburn_with_resource&#45;&gt;Diem::value</title>
<path fill="none" stroke="black" d="M2219.85,-411.82C2210.93,-400.17 2199.01,-384.6 2189.18,-371.76"/>
<polygon fill="black" stroke="black" points="2191.94,-369.59 2183.08,-363.78 2186.38,-373.85 2191.94,-369.59"/>
</g>
<!-- Diem::deposit -->
<g id="node35" class="node">
<title>Diem::deposit</title>
<ellipse fill="none" stroke="black" cx="2255" cy="-347" rx="36.29" ry="18"/>
<text text-anchor="middle" x="2255" y="-343.3" font-family="Times,serif" font-size="14.00">deposit</text>
</g>
<!-- Diem::preburn_with_resource&#45;&gt;Diem::deposit -->
<g id="edge54" class="edge">
<title>Diem::preburn_with_resource&#45;&gt;Diem::deposit</title>
<path fill="none" stroke="black" d="M2237.67,-411.82C2240.6,-401.01 2244.45,-386.84 2247.78,-374.59"/>
<polygon fill="black" stroke="black" points="2251.17,-375.44 2250.42,-364.88 2244.42,-373.61 2251.17,-375.44"/>
</g>
<!-- Errors::already_published&#45;&gt;Errors::make -->
<g id="edge55" class="edge">
<title>Errors::already_published&#45;&gt;Errors::make</title>
<path fill="none" stroke="black" d="M690.63,-171.22C678.77,-159.05 662.61,-142.48 649.67,-129.22"/>
<polygon fill="black" stroke="black" points="651.98,-126.57 642.49,-121.86 646.96,-131.46 651.98,-126.57"/>
</g>
<!-- Diem::assert_is_currency&#45;&gt;Errors::not_published -->
<g id="edge56" class="edge">
<title>Diem::assert_is_currency&#45;&gt;Errors::not_published</title>
<path fill="none" stroke="black" d="M2386.08,-264.31C2320.15,-258.24 2217.9,-249.7 2129,-246 2095.75,-244.62 962.75,-247.96 931,-238 914.78,-232.91 898.96,-222.66 886.48,-212.93"/>
<polygon fill="black" stroke="black" points="888.37,-209.96 878.4,-206.35 883.94,-215.38 888.37,-209.96"/>
</g>
<!-- Diem::assert_is_currency&#45;&gt;Diem::is_currency -->
<g id="edge57" class="edge">
<title>Diem::assert_is_currency&#45;&gt;Diem::is_currency</title>
<path fill="none" stroke="black" d="M2455,-253.82C2455,-243.19 2455,-229.31 2455,-217.2"/>
<polygon fill="black" stroke="black" points="2458.5,-217.15 2455,-207.15 2451.5,-217.15 2458.5,-217.15"/>
</g>
<!-- Errors::requires_capability&#45;&gt;Errors::make -->
<g id="edge58" class="edge">
<title>Errors::requires_capability&#45;&gt;Errors::make</title>
<path fill="none" stroke="black" d="M137.93,-173.94C151.62,-169.95 166.84,-165.9 181,-163 329.18,-132.62 508.59,-116.18 587.47,-109.96"/>
<polygon fill="black" stroke="black" points="588.22,-113.41 597.92,-109.15 587.68,-106.43 588.22,-113.41"/>
</g>
<!-- Diem::withdraw&#45;&gt;Errors::limit_exceeded -->
<g id="edge59" class="edge">
<title>Diem::withdraw&#45;&gt;Errors::limit_exceeded</title>
<path fill="none" stroke="black" d="M2607.91,-260.5C2588.27,-255 2562.98,-248.82 2540,-246 2487.15,-239.51 674.03,-253.22 623,-238 605.91,-232.9 589.05,-222.51 575.75,-212.69"/>
<polygon fill="black" stroke="black" points="577.62,-209.71 567.56,-206.38 573.35,-215.26 577.62,-209.71"/>
</g>
<!-- Diem::currency_code&#45;&gt;Diem::assert_is_currency -->
<g id="edge61" class="edge">
<title>Diem::currency_code&#45;&gt;Diem::assert_is_currency</title>
<path fill="none" stroke="black" d="M2556.17,-330.7C2537.39,-319.99 2512.09,-305.56 2491.48,-293.81"/>
<polygon fill="black" stroke="black" points="2493.1,-290.7 2482.68,-288.79 2489.63,-296.78 2493.1,-290.7"/>
</g>
<!-- Diem::currency_code&#45;&gt;CoreAddresses::CURRENCY_INFO_ADDRESS -->
<g id="edge60" class="edge">
<title>Diem::currency_code&#45;&gt;CoreAddresses::CURRENCY_INFO_ADDRESS</title>
<path fill="none" stroke="black" d="M2538.68,-334.25C2529.58,-332.2 2520.02,-330.31 2511,-329 2448.88,-319.98 2431.76,-332.19 2370,-321 2259.62,-301.01 2239.76,-263.8 2129,-246 2025.86,-229.42 1761.83,-256.39 1659,-238 1627.62,-232.39 1593.81,-220.61 1567.63,-210.12"/>
<polygon fill="black" stroke="black" points="1568.93,-206.87 1558.35,-206.33 1566.28,-213.35 1568.93,-206.87"/>
</g>
<!-- Diem::is_currency&#45;&gt;CoreAddresses::CURRENCY_INFO_ADDRESS -->
<g id="edge62" class="edge">
<title>Diem::is_currency&#45;&gt;CoreAddresses::CURRENCY_INFO_ADDRESS</title>
<path fill="none" stroke="black" d="M2410.29,-198.37C2346.31,-211.24 2224.78,-233.76 2120,-242 2094.97,-243.97 1692.73,-246.35 1668,-242 1633.28,-235.89 1595.95,-222.2 1567.73,-210.27"/>
<polygon fill="black" stroke="black" points="1569.09,-207.04 1558.52,-206.3 1566.32,-213.47 1569.09,-207.04"/>
</g>
<!-- Errors::requires_address&#45;&gt;Errors::make -->
<g id="edge63" class="edge">
<title>Errors::requires_address&#45;&gt;Errors::make</title>
<path fill="none" stroke="black" d="M1102.59,-174.01C1090.06,-169.97 1076.06,-165.88 1063,-163 919.73,-131.37 745.69,-115.63 668.37,-109.78"/>
<polygon fill="black" stroke="black" points="668.35,-106.27 658.12,-109.02 667.83,-113.25 668.35,-106.27"/>
</g>
<!-- Errors::limit_exceeded&#45;&gt;Errors::make -->
<g id="edge64" class="edge">
<title>Errors::limit_exceeded&#45;&gt;Errors::make</title>
<path fill="none" stroke="black" d="M565.37,-171.22C577.23,-159.05 593.39,-142.48 606.33,-129.22"/>
<polygon fill="black" stroke="black" points="609.04,-131.46 613.51,-121.86 604.02,-126.57 609.04,-131.46"/>
</g>
<!-- Event::write_to_event_store -->
<g id="node36" class="node">
<title>Event::write_to_event_store</title>
<ellipse fill="none" stroke="black" cx="1302" cy="-272" rx="85.29" ry="18"/>
<text text-anchor="middle" x="1302" y="-268.3" font-family="Times,serif" font-size="14.00">write_to_event_store</text>
</g>
<!-- Event::emit_event&#45;&gt;Event::write_to_event_store -->
<g id="edge65" class="edge">
<title>Event::emit_event&#45;&gt;Event::write_to_event_store</title>
<path fill="none" stroke="black" d="M1328.88,-329.07C1324.63,-320.2 1319.32,-309.13 1314.55,-299.18"/>
<polygon fill="black" stroke="black" points="1317.67,-297.6 1310.19,-290.09 1311.36,-300.62 1317.67,-297.6"/>
</g>
<!-- Diem::deposit&#45;&gt;Errors::limit_exceeded -->
<g id="edge66" class="edge">
<title>Diem::deposit&#45;&gt;Errors::limit_exceeded</title>
<path fill="none" stroke="black" d="M2228.79,-334.39C2222.73,-332.19 2216.23,-330.2 2210,-329 2188.12,-324.78 1827.18,-333.89 1809,-321 1779.97,-300.42 1810.16,-266.39 1781,-246 1767.82,-236.78 638.41,-242.62 623,-238 605.91,-232.88 589.06,-222.48 575.76,-212.67"/>
<polygon fill="black" stroke="black" points="577.62,-209.69 567.56,-206.36 573.35,-215.24 577.62,-209.69"/>
</g>
</g>
</svg>
