<?xml version="1.0" encoding="UTF-8" standalone="no"?>
<!DOCTYPE svg PUBLIC "-//W3C//DTD SVG 1.1//EN"
 "http://www.w3.org/Graphics/SVG/1.1/DTD/svg11.dtd">
<!-- Generated by graphviz version 2.46.1 (20210213.1702)
 -->
<!-- Title: G Pages: 1 -->
<svg width="1247pt" height="456pt"
 viewBox="0.00 0.00 1247.00 456.00" xmlns="http://www.w3.org/2000/svg" xmlns:xlink="http://www.w3.org/1999/xlink">
<g id="graph0" class="graph" transform="scale(1 1) rotate(0) translate(4 452)">
<title>G</title>
<polygon fill="white" stroke="transparent" points="-4,4 -4,-452 1243,-452 1243,4 -4,4"/>
<g id="clust1" class="cluster">
<title>cluster_SlidingNonce</title>
<polygon fill="none" stroke="black" points="270,-163 270,-321 472,-321 472,-163 270,-163"/>
<text text-anchor="middle" x="371" y="-305.8" font-family="Times,serif" font-size="14.00">SlidingNonce</text>
</g>
<g id="clust2" class="cluster">
<title>cluster_DualAttestation</title>
<polygon fill="none" stroke="black" points="475,-329 475,-404 661,-404 661,-329 475,-329"/>
<text text-anchor="middle" x="568" y="-388.8" font-family="Times,serif" font-size="14.00">DualAttestation</text>
</g>
<g id="clust3" class="cluster">
<title>cluster_Errors</title>
<polygon fill="none" stroke="black" points="8,-8 8,-155 600,-155 600,-8 8,-8"/>
<text text-anchor="middle" x="304" y="-139.8" font-family="Times,serif" font-size="14.00">Errors</text>
</g>
<g id="clust4" class="cluster">
<title>cluster_CoreAddresses</title>
<polygon fill="none" stroke="black" points="766,-80 766,-238 1231,-238 1231,-80 766,-80"/>
<text text-anchor="middle" x="998.5" y="-222.8" font-family="Times,serif" font-size="14.00">CoreAddresses</text>
</g>
<g id="clust5" class="cluster">
<title>cluster_Roles</title>
<polygon fill="none" stroke="black" points="480,-246 480,-321 714,-321 714,-246 480,-246"/>
<text text-anchor="middle" x="597" y="-305.8" font-family="Times,serif" font-size="14.00">Roles</text>
</g>
<g id="clust6" class="cluster">
<title>cluster_Signer</title>
<polygon fill="none" stroke="black" points="608,-8 608,-155 758,-155 758,-8 608,-8"/>
<text text-anchor="middle" x="683" y="-139.8" font-family="Times,serif" font-size="14.00">Signer</text>
</g>
<!-- update_dual_attestation_limit -->
<g id="node1" class="node">
<title>update_dual_attestation_limit</title>
<ellipse fill="none" stroke="black" cx="483" cy="-430" rx="115.88" ry="18"/>
<text text-anchor="middle" x="483" y="-426.3" font-family="Times,serif" font-size="14.00">update_dual_attestation_limit</text>
</g>
<!-- SlidingNonce::record_nonce_or_abort -->
<g id="node2" class="node">
<title>SlidingNonce::record_nonce_or_abort</title>
<ellipse fill="none" stroke="black" cx="371" cy="-272" rx="92.88" ry="18"/>
<text text-anchor="middle" x="371" y="-268.3" font-family="Times,serif" font-size="14.00">record_nonce_or_abort</text>
</g>
<!-- update_dual_attestation_limit&#45;&gt;SlidingNonce::record_nonce_or_abort -->
<g id="edge1" class="edge">
<title>update_dual_attestation_limit&#45;&gt;SlidingNonce::record_nonce_or_abort</title>
<path fill="none" stroke="black" d="M470.8,-412.01C451.11,-384.58 412.2,-330.39 389.22,-298.37"/>
<polygon fill="black" stroke="black" points="391.86,-296.05 383.18,-289.97 386.17,-300.14 391.86,-296.05"/>
</g>
<!-- DualAttestation::set_microdiem_limit -->
<g id="node3" class="node">
<title>DualAttestation::set_microdiem_limit</title>
<ellipse fill="none" stroke="black" cx="568" cy="-355" rx="85.29" ry="18"/>
<text text-anchor="middle" x="568" y="-351.3" font-family="Times,serif" font-size="14.00">set_microdiem_limit</text>
</g>
<!-- update_dual_attestation_limit&#45;&gt;DualAttestation::set_microdiem_limit -->
<g id="edge2" class="edge">
<title>update_dual_attestation_limit&#45;&gt;DualAttestation::set_microdiem_limit</title>
<path fill="none" stroke="black" d="M502.71,-412.07C514.06,-402.33 528.48,-389.94 540.88,-379.29"/>
<polygon fill="black" stroke="black" points="543.38,-381.76 548.69,-372.59 538.82,-376.45 543.38,-381.76"/>
</g>
<!-- Errors::invalid_argument -->
<g id="node4" class="node">
<title>Errors::invalid_argument</title>
<ellipse fill="none" stroke="black" cx="89" cy="-106" rx="73.39" ry="18"/>
<text text-anchor="middle" x="89" y="-102.3" font-family="Times,serif" font-size="14.00">invalid_argument</text>
</g>
<!-- SlidingNonce::record_nonce_or_abort&#45;&gt;Errors::invalid_argument -->
<g id="edge3" class="edge">
<title>SlidingNonce::record_nonce_or_abort&#45;&gt;Errors::invalid_argument</title>
<path fill="none" stroke="black" d="M333.77,-255.34C322.15,-250.14 309.4,-244.11 298,-238 233.13,-203.21 161.15,-156.08 120.85,-128.87"/>
<polygon fill="black" stroke="black" points="122.75,-125.92 112.51,-123.21 118.82,-131.72 122.75,-125.92"/>
</g>
<!-- SlidingNonce::try_record_nonce -->
<g id="node5" class="node">
<title>SlidingNonce::try_record_nonce</title>
<ellipse fill="none" stroke="black" cx="380" cy="-189" rx="72.59" ry="18"/>
<text text-anchor="middle" x="380" y="-185.3" font-family="Times,serif" font-size="14.00">try_record_nonce</text>
</g>
<!-- SlidingNonce::record_nonce_or_abort&#45;&gt;SlidingNonce::try_record_nonce -->
<g id="edge4" class="edge">
<title>SlidingNonce::record_nonce_or_abort&#45;&gt;SlidingNonce::try_record_nonce</title>
<path fill="none" stroke="black" d="M372.91,-253.82C374.09,-243.19 375.63,-229.31 376.98,-217.2"/>
<polygon fill="black" stroke="black" points="380.47,-217.48 378.09,-207.15 373.51,-216.71 380.47,-217.48"/>
</g>
<!-- Errors::not_published -->
<g id="node6" class="node">
<title>Errors::not_published</title>
<ellipse fill="none" stroke="black" cx="241" cy="-106" rx="60.39" ry="18"/>
<text text-anchor="middle" x="241" y="-102.3" font-family="Times,serif" font-size="14.00">not_published</text>
</g>
<!-- DualAttestation::set_microdiem_limit&#45;&gt;Errors::not_published -->
<g id="edge5" class="edge">
<title>DualAttestation::set_microdiem_limit&#45;&gt;Errors::not_published</title>
<path fill="none" stroke="black" d="M485.74,-350.22C401.7,-345.55 281.39,-336.28 266,-321 216.23,-271.6 225.95,-179.79 234.72,-134.18"/>
<polygon fill="black" stroke="black" points="238.19,-134.64 236.78,-124.14 231.34,-133.23 238.19,-134.64"/>
</g>
<!-- CoreAddresses::DIEM_ROOT_ADDRESS -->
<g id="node7" class="node">
<title>CoreAddresses::DIEM_ROOT_ADDRESS</title>
<ellipse fill="none" stroke="black" cx="1116" cy="-189" rx="106.68" ry="18"/>
<text text-anchor="middle" x="1116" y="-185.3" font-family="Times,serif" font-size="14.00">DIEM_ROOT_ADDRESS</text>
</g>
<!-- DualAttestation::set_microdiem_limit&#45;&gt;CoreAddresses::DIEM_ROOT_ADDRESS -->
<g id="edge6" class="edge">
<title>DualAttestation::set_microdiem_limit&#45;&gt;CoreAddresses::DIEM_ROOT_ADDRESS</title>
<path fill="none" stroke="black" d="M626.99,-342C654.72,-336.11 688.17,-328.65 718,-321 844.97,-288.45 877.44,-281.75 1001,-238 1024.43,-229.7 1050,-219.18 1071.06,-210.11"/>
<polygon fill="black" stroke="black" points="1072.62,-213.25 1080.4,-206.05 1069.83,-206.83 1072.62,-213.25"/>
</g>
<!-- Roles::assert_treasury_compliance -->
<g id="node8" class="node">
<title>Roles::assert_treasury_compliance</title>
<ellipse fill="none" stroke="black" cx="597" cy="-272" rx="108.58" ry="18"/>
<text text-anchor="middle" x="597" y="-268.3" font-family="Times,serif" font-size="14.00">assert_treasury_compliance</text>
</g>
<!-- DualAttestation::set_microdiem_limit&#45;&gt;Roles::assert_treasury_compliance -->
<g id="edge7" class="edge">
<title>DualAttestation::set_microdiem_limit&#45;&gt;Roles::assert_treasury_compliance</title>
<path fill="none" stroke="black" d="M574.15,-336.82C577.99,-326.08 583.03,-312.03 587.39,-299.84"/>
<polygon fill="black" stroke="black" points="590.78,-300.75 590.86,-290.15 584.19,-298.39 590.78,-300.75"/>
</g>
<!-- Errors::make -->
<g id="node9" class="node">
<title>Errors::make</title>
<ellipse fill="none" stroke="black" cx="309" cy="-34" rx="30.59" ry="18"/>
<text text-anchor="middle" x="309" y="-30.3" font-family="Times,serif" font-size="14.00">make</text>
</g>
<!-- Errors::invalid_argument&#45;&gt;Errors::make -->
<g id="edge8" class="edge">
<title>Errors::invalid_argument&#45;&gt;Errors::make</title>
<path fill="none" stroke="black" d="M131.94,-91.34C173.03,-78.26 234.32,-58.76 272.95,-46.47"/>
<polygon fill="black" stroke="black" points="274.26,-49.73 282.73,-43.36 272.14,-43.06 274.26,-49.73"/>
</g>
<!-- SlidingNonce::try_record_nonce&#45;&gt;Errors::not_published -->
<g id="edge10" class="edge">
<title>SlidingNonce::try_record_nonce&#45;&gt;Errors::not_published</title>
<path fill="none" stroke="black" d="M345.77,-172.91C334.5,-167.61 322.04,-161.37 311,-155 297.45,-147.17 283.09,-137.58 270.93,-129.03"/>
<polygon fill="black" stroke="black" points="272.68,-125.98 262.5,-123.03 268.62,-131.68 272.68,-125.98"/>
</g>
<!-- Signer::address_of -->
<g id="node10" class="node">
<title>Signer::address_of</title>
<ellipse fill="none" stroke="black" cx="674" cy="-106" rx="48.99" ry="18"/>
<text text-anchor="middle" x="674" y="-102.3" font-family="Times,serif" font-size="14.00">address_of</text>
</g>
<!-- SlidingNonce::try_record_nonce&#45;&gt;Signer::address_of -->
<g id="edge9" class="edge">
<title>SlidingNonce::try_record_nonce&#45;&gt;Signer::address_of</title>
<path fill="none" stroke="black" d="M451.73,-185.68C496.77,-182.25 555.33,-174.08 604,-155 619.72,-148.84 635.38,-138.58 647.9,-129.12"/>
<polygon fill="black" stroke="black" points="650.31,-131.68 656.02,-122.76 645.99,-126.17 650.31,-131.68"/>
</g>
<!-- Errors::not_published&#45;&gt;Errors::make -->
<g id="edge11" class="edge">
<title>Errors::not_published&#45;&gt;Errors::make</title>
<path fill="none" stroke="black" d="M257.12,-88.41C266.13,-79.13 277.49,-67.44 287.28,-57.36"/>
<polygon fill="black" stroke="black" points="289.93,-59.65 294.39,-50.04 284.91,-54.77 289.93,-59.65"/>
</g>
<!-- Roles::assert_treasury_compliance&#45;&gt;Errors::not_published -->
<g id="edge13" class="edge">
<title>Roles::assert_treasury_compliance&#45;&gt;Errors::not_published</title>
<path fill="none" stroke="black" d="M547.54,-255.81C537.36,-251.18 527.25,-245.31 519,-238 490.25,-212.51 508.77,-183.06 476,-163 444.69,-143.83 345.79,-166.71 311,-155 295,-149.61 279.3,-139.44 266.84,-129.83"/>
<polygon fill="black" stroke="black" points="268.75,-126.88 258.77,-123.34 264.37,-132.34 268.75,-126.88"/>
</g>
<!-- Roles::assert_treasury_compliance&#45;&gt;Signer::address_of -->
<g id="edge12" class="edge">
<title>Roles::assert_treasury_compliance&#45;&gt;Signer::address_of</title>
<path fill="none" stroke="black" d="M605.09,-253.76C618.59,-225.02 645.77,-167.13 661.66,-133.28"/>
<polygon fill="black" stroke="black" points="664.93,-134.55 666.01,-124.01 658.6,-131.57 664.93,-134.55"/>
</g>
<!-- Errors::requires_role -->
<g id="node11" class="node">
<title>Errors::requires_role</title>
<ellipse fill="none" stroke="black" cx="377" cy="-106" rx="57.39" ry="18"/>
<text text-anchor="middle" x="377" y="-102.3" font-family="Times,serif" font-size="14.00">requires_role</text>
</g>
<!-- Roles::assert_treasury_compliance&#45;&gt;Errors::requires_role -->
<g id="edge14" class="edge">
<title>Roles::assert_treasury_compliance&#45;&gt;Errors::requires_role</title>
<path fill="none" stroke="black" d="M590.17,-254.03C579.22,-229.28 555.22,-183.99 519,-163 489.61,-145.97 474.7,-167.18 443,-155 428.1,-149.28 413.53,-139.29 401.89,-129.91"/>
<polygon fill="black" stroke="black" points="403.88,-127.01 393.97,-123.25 399.37,-132.37 403.88,-127.01"/>
</g>
<!-- CoreAddresses::assert_treasury_compliance -->
<g id="node12" class="node">
<title>CoreAddresses::assert_treasury_compliance</title>
<ellipse fill="none" stroke="black" cx="883" cy="-189" rx="108.58" ry="18"/>
<text text-anchor="middle" x="883" y="-185.3" font-family="Times,serif" font-size="14.00">assert_treasury_compliance</text>
</g>
<!-- Roles::assert_treasury_compliance&#45;&gt;CoreAddresses::assert_treasury_compliance -->
<g id="edge15" class="edge">
<title>Roles::assert_treasury_compliance&#45;&gt;CoreAddresses::assert_treasury_compliance</title>
<path fill="none" stroke="black" d="M649.46,-256.14C697.78,-242.46 769.55,-222.13 820.76,-207.63"/>
<polygon fill="black" stroke="black" points="821.72,-210.99 830.39,-204.9 819.82,-204.26 821.72,-210.99"/>
</g>
<!-- Signer::borrow_address -->
<g id="node13" class="node">
<title>Signer::borrow_address</title>
<ellipse fill="none" stroke="black" cx="683" cy="-34" rx="66.89" ry="18"/>
<text text-anchor="middle" x="683" y="-30.3" font-family="Times,serif" font-size="14.00">borrow_address</text>
</g>
<!-- Signer::address_of&#45;&gt;Signer::borrow_address -->
<g id="edge16" class="edge">
<title>Signer::address_of&#45;&gt;Signer::borrow_address</title>
<path fill="none" stroke="black" d="M676.22,-87.7C677.22,-79.98 678.41,-70.71 679.51,-62.11"/>
<polygon fill="black" stroke="black" points="683,-62.47 680.8,-52.1 676.05,-61.58 683,-62.47"/>
</g>
<!-- Errors::requires_role&#45;&gt;Errors::make -->
<g id="edge17" class="edge">
<title>Errors::requires_role&#45;&gt;Errors::make</title>
<path fill="none" stroke="black" d="M360.88,-88.41C351.87,-79.13 340.51,-67.44 330.72,-57.36"/>
<polygon fill="black" stroke="black" points="333.09,-54.77 323.61,-50.04 328.07,-59.65 333.09,-54.77"/>
</g>
<!-- CoreAddresses::assert_treasury_compliance&#45;&gt;Signer::address_of -->
<g id="edge18" class="edge">
<title>CoreAddresses::assert_treasury_compliance&#45;&gt;Signer::address_of</title>
<path fill="none" stroke="black" d="M821.15,-174.1C801.89,-168.99 780.78,-162.56 762,-155 742.97,-147.34 722.81,-136.56 706.59,-127.15"/>
<polygon fill="black" stroke="black" points="707.93,-123.88 697.54,-121.81 704.37,-129.9 707.93,-123.88"/>
</g>
<!-- Errors::requires_address -->
<g id="node14" class="node">
<title>Errors::requires_address</title>
<ellipse fill="none" stroke="black" cx="522" cy="-106" rx="69.59" ry="18"/>
<text text-anchor="middle" x="522" y="-102.3" font-family="Times,serif" font-size="14.00">requires_address</text>
</g>
<!-- CoreAddresses::assert_treasury_compliance&#45;&gt;Errors::requires_address -->
<g id="edge19" class="edge">
<title>CoreAddresses::assert_treasury_compliance&#45;&gt;Errors::requires_address</title>
<path fill="none" stroke="black" d="M776.09,-185.62C723.18,-181.89 659.03,-173.46 604,-155 585.87,-148.92 567.34,-138.5 552.5,-128.92"/>
<polygon fill="black" stroke="black" points="554.03,-125.74 543.76,-123.11 550.15,-131.56 554.03,-125.74"/>
</g>
<!-- CoreAddresses::TREASURY_COMPLIANCE_ADDRESS -->
<g id="node15" class="node">
<title>CoreAddresses::TREASURY_COMPLIANCE_ADDRESS</title>
<ellipse fill="none" stroke="black" cx="937" cy="-106" rx="163.27" ry="18"/>
<text text-anchor="middle" x="937" y="-102.3" font-family="Times,serif" font-size="14.00">TREASURY_COMPLIANCE_ADDRESS</text>
</g>
<!-- CoreAddresses::assert_treasury_compliance&#45;&gt;CoreAddresses::TREASURY_COMPLIANCE_ADDRESS -->
<g id="edge20" class="edge">
<title>CoreAddresses::assert_treasury_compliance&#45;&gt;CoreAddresses::TREASURY_COMPLIANCE_ADDRESS</title>
<path fill="none" stroke="black" d="M894.45,-170.82C901.83,-159.76 911.55,-145.18 919.84,-132.75"/>
<polygon fill="black" stroke="black" points="922.93,-134.42 925.56,-124.15 917.11,-130.53 922.93,-134.42"/>
</g>
<!-- Errors::requires_address&#45;&gt;Errors::make -->
<g id="edge21" class="edge">
<title>Errors::requires_address&#45;&gt;Errors::make</title>
<path fill="none" stroke="black" d="M480.68,-91.42C441.14,-78.43 382.14,-59.04 344.62,-46.71"/>
<polygon fill="black" stroke="black" points="345.7,-43.38 335.11,-43.58 343.51,-50.03 345.7,-43.38"/>
</g>
</g>
</svg>
