<?xml version="1.0" encoding="UTF-8" standalone="no"?>
<!DOCTYPE svg PUBLIC "-//W3C//DTD SVG 1.1//EN"
 "http://www.w3.org/Graphics/SVG/1.1/DTD/svg11.dtd">
<!-- Generated by graphviz version 2.46.1 (20210213.1702)
 -->
<!-- Title: G Pages: 1 -->
<svg width="993pt" height="365pt"
 viewBox="0.00 0.00 992.71 365.00" xmlns="http://www.w3.org/2000/svg" xmlns:xlink="http://www.w3.org/1999/xlink">
<g id="graph0" class="graph" transform="scale(1 1) rotate(0) translate(4 361)">
<title>G</title>
<polygon fill="white" stroke="transparent" points="-4,4 -4,-361 988.71,-361 988.71,4 -4,4"/>
<g id="clust1" class="cluster">
<title>cluster_ValidatorOperatorConfig</title>
<polygon fill="none" stroke="black" points="16.71,-163 16.71,-313 268.71,-313 268.71,-163 16.71,-163"/>
<text text-anchor="middle" x="142.71" y="-297.8" font-family="Times,serif" font-size="14.00">ValidatorOperatorConfig</text>
</g>
<g id="clust2" class="cluster">
<title>cluster_ValidatorConfig</title>
<polygon fill="none" stroke="black" points="276.71,-163 276.71,-313 406.71,-313 406.71,-163 276.71,-163"/>
<text text-anchor="middle" x="341.71" y="-297.8" font-family="Times,serif" font-size="14.00">ValidatorConfig</text>
</g>
<g id="clust3" class="cluster">
<title>cluster_Errors</title>
<polygon fill="none" stroke="black" points="180.71,-8 180.71,-155 614.71,-155 614.71,-8 180.71,-8"/>
<text text-anchor="middle" x="397.71" y="-139.8" font-family="Times,serif" font-size="14.00">Errors</text>
</g>
<g id="clust4" class="cluster">
<title>cluster_Signer</title>
<polygon fill="none" stroke="black" points="622.71,-8 622.71,-155 772.71,-155 772.71,-8 622.71,-8"/>
<text text-anchor="middle" x="697.71" y="-139.8" font-family="Times,serif" font-size="14.00">Signer</text>
</g>
<g id="clust5" class="cluster">
<title>cluster_Roles</title>
<polygon fill="none" stroke="black" points="484.71,-163 484.71,-238 632.71,-238 632.71,-163 484.71,-163"/>
<text text-anchor="middle" x="558.71" y="-222.8" font-family="Times,serif" font-size="14.00">Roles</text>
</g>
<g id="clust6" class="cluster">
<title>cluster_Option</title>
<polygon fill="none" stroke="black" points="742.71,-163 742.71,-238 818.71,-238 818.71,-163 742.71,-163"/>
<text text-anchor="middle" x="780.71" y="-222.8" font-family="Times,serif" font-size="14.00">Option</text>
</g>
<g id="clust7" class="cluster">
<title>cluster_Vector</title>
<polygon fill="none" stroke="black" points="780.71,-8 780.71,-155 976.71,-155 976.71,-8 780.71,-8"/>
<text text-anchor="middle" x="878.71" y="-139.8" font-family="Times,serif" font-size="14.00">Vector</text>
</g>
<!-- set_validator_operator -->
<g id="node1" class="node">
<title>set_validator_operator</title>
<ellipse fill="none" stroke="black" cx="243.71" cy="-339" rx="89.88" ry="18"/>
<text text-anchor="middle" x="243.71" y="-335.3" font-family="Times,serif" font-size="14.00">set_validator_operator</text>
</g>
<!-- ValidatorOperatorConfig::get_human_name -->
<g id="node2" class="node">
<title>ValidatorOperatorConfig::get_human_name</title>
<ellipse fill="none" stroke="black" cx="142.71" cy="-264" rx="74.19" ry="18"/>
<text text-anchor="middle" x="142.71" y="-260.3" font-family="Times,serif" font-size="14.00">get_human_name</text>
</g>
<!-- set_validator_operator&#45;&gt;ValidatorOperatorConfig::get_human_name -->
<g id="edge1" class="edge">
<title>set_validator_operator&#45;&gt;ValidatorOperatorConfig::get_human_name</title>
<path fill="none" stroke="black" d="M220.79,-321.44C206.75,-311.28 188.6,-298.17 173.33,-287.13"/>
<polygon fill="black" stroke="black" points="175.35,-284.27 165.19,-281.25 171.24,-289.94 175.35,-284.27"/>
</g>
<!-- ValidatorConfig::set_operator -->
<g id="node3" class="node">
<title>ValidatorConfig::set_operator</title>
<ellipse fill="none" stroke="black" cx="344.71" cy="-264" rx="53.89" ry="18"/>
<text text-anchor="middle" x="344.71" y="-260.3" font-family="Times,serif" font-size="14.00">set_operator</text>
</g>
<!-- set_validator_operator&#45;&gt;ValidatorConfig::set_operator -->
<g id="edge2" class="edge">
<title>set_validator_operator&#45;&gt;ValidatorConfig::set_operator</title>
<path fill="none" stroke="black" d="M266.63,-321.44C280.87,-311.14 299.33,-297.8 314.73,-286.67"/>
<polygon fill="black" stroke="black" points="316.87,-289.44 322.92,-280.75 312.77,-283.77 316.87,-289.44"/>
</g>
<!-- Errors::not_published -->
<g id="node4" class="node">
<title>Errors::not_published</title>
<ellipse fill="none" stroke="black" cx="248.71" cy="-106" rx="60.39" ry="18"/>
<text text-anchor="middle" x="248.71" y="-102.3" font-family="Times,serif" font-size="14.00">not_published</text>
</g>
<!-- ValidatorOperatorConfig::get_human_name&#45;&gt;Errors::not_published -->
<g id="edge3" class="edge">
<title>ValidatorOperatorConfig::get_human_name&#45;&gt;Errors::not_published</title>
<path fill="none" stroke="black" d="M73.91,-257.25C48.34,-253.56 23.6,-247.59 15.71,-238 -5.46,-212.25 -4.92,-189.18 15.71,-163 36.17,-137.04 121,-121.73 182.41,-113.85"/>
<polygon fill="black" stroke="black" points="182.94,-117.31 192.43,-112.61 182.08,-110.37 182.94,-117.31"/>
</g>
<!-- ValidatorOperatorConfig::has_validator_operator_config -->
<g id="node5" class="node">
<title>ValidatorOperatorConfig::has_validator_operator_config</title>
<ellipse fill="none" stroke="black" cx="142.71" cy="-189" rx="118.08" ry="18"/>
<text text-anchor="middle" x="142.71" y="-185.3" font-family="Times,serif" font-size="14.00">has_validator_operator_config</text>
</g>
<!-- ValidatorOperatorConfig::get_human_name&#45;&gt;ValidatorOperatorConfig::has_validator_operator_config -->
<g id="edge4" class="edge">
<title>ValidatorOperatorConfig::get_human_name&#45;&gt;ValidatorOperatorConfig::has_validator_operator_config</title>
<path fill="none" stroke="black" d="M142.71,-245.7C142.71,-237.25 142.71,-226.87 142.71,-217.37"/>
<polygon fill="black" stroke="black" points="146.21,-217.18 142.71,-207.18 139.21,-217.18 146.21,-217.18"/>
</g>
<!-- ValidatorConfig::set_operator&#45;&gt;Errors::not_published -->
<g id="edge7" class="edge">
<title>ValidatorConfig::set_operator&#45;&gt;Errors::not_published</title>
<path fill="none" stroke="black" d="M388.83,-253.38C396.28,-249.77 403.08,-244.81 407.71,-238 426.44,-210.42 430.2,-187.6 407.71,-163 394.31,-148.34 337.4,-161.72 318.71,-155 302.94,-149.33 287.36,-139.22 274.92,-129.74"/>
<polygon fill="black" stroke="black" points="276.86,-126.8 266.85,-123.33 272.51,-132.29 276.86,-126.8"/>
</g>
<!-- ValidatorConfig::set_operator&#45;&gt;ValidatorOperatorConfig::has_validator_operator_config -->
<g id="edge9" class="edge">
<title>ValidatorConfig::set_operator&#45;&gt;ValidatorOperatorConfig::has_validator_operator_config</title>
<path fill="none" stroke="black" d="M308.4,-250.55C296.97,-246.58 284.3,-242.15 272.71,-238 246.93,-228.77 218.38,-218.25 194.61,-209.43"/>
<polygon fill="black" stroke="black" points="195.68,-206.09 185.08,-205.88 193.23,-212.65 195.68,-206.09"/>
</g>
<!-- Signer::address_of -->
<g id="node6" class="node">
<title>Signer::address_of</title>
<ellipse fill="none" stroke="black" cx="679.71" cy="-106" rx="48.99" ry="18"/>
<text text-anchor="middle" x="679.71" y="-102.3" font-family="Times,serif" font-size="14.00">address_of</text>
</g>
<!-- ValidatorConfig::set_operator&#45;&gt;Signer::address_of -->
<g id="edge5" class="edge">
<title>ValidatorConfig::set_operator&#45;&gt;Signer::address_of</title>
<path fill="none" stroke="black" d="M398.27,-261.57C477.47,-259 618.48,-252.43 636.71,-238 667.97,-213.26 676.76,-165.26 679.08,-134.74"/>
<polygon fill="black" stroke="black" points="682.6,-134.55 679.67,-124.37 675.61,-134.15 682.6,-134.55"/>
</g>
<!-- Errors::invalid_argument -->
<g id="node7" class="node">
<title>Errors::invalid_argument</title>
<ellipse fill="none" stroke="black" cx="400.71" cy="-106" rx="73.39" ry="18"/>
<text text-anchor="middle" x="400.71" y="-102.3" font-family="Times,serif" font-size="14.00">invalid_argument</text>
</g>
<!-- ValidatorConfig::set_operator&#45;&gt;Errors::invalid_argument -->
<g id="edge6" class="edge">
<title>ValidatorConfig::set_operator&#45;&gt;Errors::invalid_argument</title>
<path fill="none" stroke="black" d="M393.17,-256C413.79,-251.93 434.52,-246.01 440.71,-238 461.1,-211.63 450.88,-194.74 440.71,-163 437.08,-151.68 430.23,-140.69 423.21,-131.5"/>
<polygon fill="black" stroke="black" points="425.81,-129.16 416.8,-123.59 420.38,-133.57 425.81,-129.16"/>
</g>
<!-- Roles::assert_validator -->
<g id="node8" class="node">
<title>Roles::assert_validator</title>
<ellipse fill="none" stroke="black" cx="558.71" cy="-189" rx="66.09" ry="18"/>
<text text-anchor="middle" x="558.71" y="-185.3" font-family="Times,serif" font-size="14.00">assert_validator</text>
</g>
<!-- ValidatorConfig::set_operator&#45;&gt;Roles::assert_validator -->
<g id="edge8" class="edge">
<title>ValidatorConfig::set_operator&#45;&gt;Roles::assert_validator</title>
<path fill="none" stroke="black" d="M395.5,-257.85C421.05,-254.19 452.16,-248.07 478.71,-238 496.02,-231.44 513.82,-221.17 528.22,-211.81"/>
<polygon fill="black" stroke="black" points="530.34,-214.6 536.71,-206.14 526.45,-208.78 530.34,-214.6"/>
</g>
<!-- Option::some -->
<g id="node9" class="node">
<title>Option::some</title>
<ellipse fill="none" stroke="black" cx="780.71" cy="-189" rx="29.8" ry="18"/>
<text text-anchor="middle" x="780.71" y="-185.3" font-family="Times,serif" font-size="14.00">some</text>
</g>
<!-- ValidatorConfig::set_operator&#45;&gt;Option::some -->
<g id="edge10" class="edge">
<title>ValidatorConfig::set_operator&#45;&gt;Option::some</title>
<path fill="none" stroke="black" d="M398.48,-261.59C480.36,-259.01 632.35,-252.41 684.71,-238 708.69,-231.4 733.75,-218.64 752.26,-207.93"/>
<polygon fill="black" stroke="black" points="754.23,-210.83 761.04,-202.72 750.65,-204.81 754.23,-210.83"/>
</g>
<!-- ValidatorConfig::exists_config -->
<g id="node10" class="node">
<title>ValidatorConfig::exists_config</title>
<ellipse fill="none" stroke="black" cx="341.71" cy="-189" rx="57.39" ry="18"/>
<text text-anchor="middle" x="341.71" y="-185.3" font-family="Times,serif" font-size="14.00">exists_config</text>
</g>
<!-- ValidatorConfig::set_operator&#45;&gt;ValidatorConfig::exists_config -->
<g id="edge11" class="edge">
<title>ValidatorConfig::set_operator&#45;&gt;ValidatorConfig::exists_config</title>
<path fill="none" stroke="black" d="M344,-245.7C343.65,-237.25 343.23,-226.87 342.84,-217.37"/>
<polygon fill="black" stroke="black" points="346.32,-217.02 342.42,-207.18 339.33,-217.31 346.32,-217.02"/>
</g>
<!-- Errors::make -->
<g id="node11" class="node">
<title>Errors::make</title>
<ellipse fill="none" stroke="black" cx="400.71" cy="-34" rx="30.59" ry="18"/>
<text text-anchor="middle" x="400.71" y="-30.3" font-family="Times,serif" font-size="14.00">make</text>
</g>
<!-- Errors::not_published&#45;&gt;Errors::make -->
<g id="edge12" class="edge">
<title>Errors::not_published&#45;&gt;Errors::make</title>
<path fill="none" stroke="black" d="M280.21,-90.5C305.8,-78.71 341.8,-62.13 367.78,-50.16"/>
<polygon fill="black" stroke="black" points="369.59,-53.19 377.21,-45.82 366.66,-46.83 369.59,-53.19"/>
</g>
<!-- Signer::borrow_address -->
<g id="node12" class="node">
<title>Signer::borrow_address</title>
<ellipse fill="none" stroke="black" cx="697.71" cy="-34" rx="66.89" ry="18"/>
<text text-anchor="middle" x="697.71" y="-30.3" font-family="Times,serif" font-size="14.00">borrow_address</text>
</g>
<!-- Signer::address_of&#45;&gt;Signer::borrow_address -->
<g id="edge13" class="edge">
<title>Signer::address_of&#45;&gt;Signer::borrow_address</title>
<path fill="none" stroke="black" d="M684.07,-88.05C686.07,-80.26 688.5,-70.82 690.75,-62.08"/>
<polygon fill="black" stroke="black" points="694.17,-62.83 693.27,-52.28 687.39,-61.09 694.17,-62.83"/>
</g>
<!-- Errors::invalid_argument&#45;&gt;Errors::make -->
<g id="edge14" class="edge">
<title>Errors::invalid_argument&#45;&gt;Errors::make</title>
<path fill="none" stroke="black" d="M400.71,-87.7C400.71,-79.98 400.71,-70.71 400.71,-62.11"/>
<polygon fill="black" stroke="black" points="404.21,-62.1 400.71,-52.1 397.21,-62.1 404.21,-62.1"/>
</g>
<!-- Roles::assert_validator&#45;&gt;Errors::not_published -->
<g id="edge16" class="edge">
<title>Roles::assert_validator&#45;&gt;Errors::not_published</title>
<path fill="none" stroke="black" d="M511.33,-176.34C489.89,-171.48 464.15,-166.23 440.71,-163 413.8,-159.29 344.38,-163.89 318.71,-155 302.76,-149.48 287.06,-139.28 274.59,-129.71"/>
<polygon fill="black" stroke="black" points="276.51,-126.76 266.51,-123.24 272.13,-132.22 276.51,-126.76"/>
</g>
<!-- Roles::assert_validator&#45;&gt;Signer::address_of -->
<g id="edge15" class="edge">
<title>Roles::assert_validator&#45;&gt;Signer::address_of</title>
<path fill="none" stroke="black" d="M588.57,-172.82C598.38,-167.52 609.19,-161.3 618.71,-155 630.5,-147.19 642.88,-137.72 653.38,-129.26"/>
<polygon fill="black" stroke="black" points="655.82,-131.78 661.35,-122.74 651.39,-126.36 655.82,-131.78"/>
</g>
<!-- Errors::requires_role -->
<g id="node13" class="node">
<title>Errors::requires_role</title>
<ellipse fill="none" stroke="black" cx="549.71" cy="-106" rx="57.39" ry="18"/>
<text text-anchor="middle" x="549.71" y="-102.3" font-family="Times,serif" font-size="14.00">requires_role</text>
</g>
<!-- Roles::assert_validator&#45;&gt;Errors::requires_role -->
<g id="edge17" class="edge">
<title>Roles::assert_validator&#45;&gt;Errors::requires_role</title>
<path fill="none" stroke="black" d="M556.8,-170.82C555.62,-160.19 554.08,-146.31 552.73,-134.2"/>
<polygon fill="black" stroke="black" points="556.2,-133.71 551.62,-124.15 549.24,-134.48 556.2,-133.71"/>
</g>
<!-- Vector::singleton -->
<g id="node14" class="node">
<title>Vector::singleton</title>
<ellipse fill="none" stroke="black" cx="831.71" cy="-106" rx="42.79" ry="18"/>
<text text-anchor="middle" x="831.71" y="-102.3" font-family="Times,serif" font-size="14.00">singleton</text>
</g>
<!-- Option::some&#45;&gt;Vector::singleton -->
<g id="edge18" class="edge">
<title>Option::some&#45;&gt;Vector::singleton</title>
<path fill="none" stroke="black" d="M790.79,-172C797.96,-160.61 807.73,-145.08 815.93,-132.06"/>
<polygon fill="black" stroke="black" points="818.94,-133.85 821.31,-123.53 813.02,-130.12 818.94,-133.85"/>
</g>
<!-- Errors::requires_role&#45;&gt;Errors::make -->
<g id="edge19" class="edge">
<title>Errors::requires_role&#45;&gt;Errors::make</title>
<path fill="none" stroke="black" d="M519.2,-90.67C494.13,-78.89 458.72,-62.25 433.14,-50.24"/>
<polygon fill="black" stroke="black" points="434.41,-46.96 423.87,-45.88 431.43,-53.3 434.41,-46.96"/>
</g>
<!-- Vector::empty -->
<g id="node15" class="node">
<title>Vector::empty</title>
<ellipse fill="none" stroke="black" cx="821.71" cy="-34" rx="33.29" ry="18"/>
<text text-anchor="middle" x="821.71" y="-30.3" font-family="Times,serif" font-size="14.00">empty</text>
</g>
<!-- Vector::singleton&#45;&gt;Vector::empty -->
<g id="edge20" class="edge">
<title>Vector::singleton&#45;&gt;Vector::empty</title>
<path fill="none" stroke="black" d="M829.24,-87.7C828.14,-79.98 826.81,-70.71 825.58,-62.11"/>
<polygon fill="black" stroke="black" points="829.03,-61.51 824.15,-52.1 822.1,-62.5 829.03,-61.51"/>
</g>
<!-- Vector::push_back -->
<g id="node16" class="node">
<title>Vector::push_back</title>
<ellipse fill="none" stroke="black" cx="920.71" cy="-34" rx="48.19" ry="18"/>
<text text-anchor="middle" x="920.71" y="-30.3" font-family="Times,serif" font-size="14.00">push_back</text>
</g>
<!-- Vector::singleton&#45;&gt;Vector::push_back -->
<g id="edge21" class="edge">
<title>Vector::singleton&#45;&gt;Vector::push_back</title>
<path fill="none" stroke="black" d="M851.02,-89.81C863.22,-80.22 879.17,-67.67 892.74,-57"/>
<polygon fill="black" stroke="black" points="895.12,-59.58 900.82,-50.64 890.8,-54.08 895.12,-59.58"/>
</g>
</g>
</svg>
