<?xml version="1.0" encoding="UTF-8" standalone="no"?>
<!DOCTYPE svg PUBLIC "-//W3C//DTD SVG 1.1//EN"
 "http://www.w3.org/Graphics/SVG/1.1/DTD/svg11.dtd">
<!-- Generated by graphviz version 2.46.1 (20210213.1702)
 -->
<!-- Title: G Pages: 1 -->
<svg width="889pt" height="531pt"
 viewBox="0.00 0.00 889.00 531.00" xmlns="http://www.w3.org/2000/svg" xmlns:xlink="http://www.w3.org/1999/xlink">
<g id="graph0" class="graph" transform="scale(1 1) rotate(0) translate(4 527)">
<title>G</title>
<polygon fill="white" stroke="transparent" points="-4,4 -4,-527 885,-527 885,4 -4,4"/>
<g id="clust1" class="cluster">
<title>cluster_ValidatorConfig</title>
<polygon fill="none" stroke="black" points="197,-329 197,-479 455,-479 455,-329 197,-329"/>
<text text-anchor="middle" x="326" y="-463.8" font-family="Times,serif" font-size="14.00">ValidatorConfig</text>
</g>
<g id="clust2" class="cluster">
<title>cluster_Signer</title>
<polygon fill="none" stroke="black" points="493,-246 493,-404 643,-404 643,-246 493,-246"/>
<text text-anchor="middle" x="568" y="-388.8" font-family="Times,serif" font-size="14.00">Signer</text>
</g>
<g id="clust3" class="cluster">
<title>cluster_Errors</title>
<polygon fill="none" stroke="black" points="8,-80 8,-238 309,-238 309,-80 8,-80"/>
<text text-anchor="middle" x="158.5" y="-222.8" font-family="Times,serif" font-size="14.00">Errors</text>
</g>
<g id="clust4" class="cluster">
<title>cluster_Signature</title>
<polygon fill="none" stroke="black" points="651,-329 651,-404 873,-404 873,-329 651,-329"/>
<text text-anchor="middle" x="762" y="-388.8" font-family="Times,serif" font-size="14.00">Signature</text>
</g>
<g id="clust5" class="cluster">
<title>cluster_Option</title>
<polygon fill="none" stroke="black" points="319,-163 319,-321 485,-321 485,-163 319,-163"/>
<text text-anchor="middle" x="402" y="-305.8" font-family="Times,serif" font-size="14.00">Option</text>
</g>
<g id="clust6" class="cluster">
<title>cluster_Vector</title>
<polygon fill="none" stroke="black" points="317,-8 317,-155 615,-155 615,-8 317,-8"/>
<text text-anchor="middle" x="466" y="-139.8" font-family="Times,serif" font-size="14.00">Vector</text>
</g>
<!-- register_validator_config -->
<g id="node1" class="node">
<title>register_validator_config</title>
<ellipse fill="none" stroke="black" cx="390" cy="-505" rx="98.58" ry="18"/>
<text text-anchor="middle" x="390" y="-501.3" font-family="Times,serif" font-size="14.00">register_validator_config</text>
</g>
<!-- ValidatorConfig::set_config -->
<g id="node2" class="node">
<title>ValidatorConfig::set_config</title>
<ellipse fill="none" stroke="black" cx="390" cy="-430" rx="46.59" ry="18"/>
<text text-anchor="middle" x="390" y="-426.3" font-family="Times,serif" font-size="14.00">set_config</text>
</g>
<!-- register_validator_config&#45;&gt;ValidatorConfig::set_config -->
<g id="edge1" class="edge">
<title>register_validator_config&#45;&gt;ValidatorConfig::set_config</title>
<path fill="none" stroke="black" d="M390,-486.7C390,-478.25 390,-467.87 390,-458.37"/>
<polygon fill="black" stroke="black" points="393.5,-458.18 390,-448.18 386.5,-458.18 393.5,-458.18"/>
</g>
<!-- Signer::address_of -->
<g id="node3" class="node">
<title>Signer::address_of</title>
<ellipse fill="none" stroke="black" cx="560" cy="-355" rx="48.99" ry="18"/>
<text text-anchor="middle" x="560" y="-351.3" font-family="Times,serif" font-size="14.00">address_of</text>
</g>
<!-- ValidatorConfig::set_config&#45;&gt;Signer::address_of -->
<g id="edge2" class="edge">
<title>ValidatorConfig::set_config&#45;&gt;Signer::address_of</title>
<path fill="none" stroke="black" d="M432.02,-421.76C450.04,-417.81 471.04,-412.04 489,-404 504.34,-397.13 519.96,-386.98 532.63,-377.78"/>
<polygon fill="black" stroke="black" points="534.97,-380.4 540.89,-371.62 530.79,-374.79 534.97,-380.4"/>
</g>
<!-- Errors::invalid_argument -->
<g id="node4" class="node">
<title>Errors::invalid_argument</title>
<ellipse fill="none" stroke="black" cx="228" cy="-189" rx="73.39" ry="18"/>
<text text-anchor="middle" x="228" y="-185.3" font-family="Times,serif" font-size="14.00">invalid_argument</text>
</g>
<!-- ValidatorConfig::set_config&#45;&gt;Errors::invalid_argument -->
<g id="edge3" class="edge">
<title>ValidatorConfig::set_config&#45;&gt;Errors::invalid_argument</title>
<path fill="none" stroke="black" d="M342.75,-429.76C291.58,-429.44 214.73,-425.29 196,-404 149.31,-350.91 188.56,-260.23 212.63,-215.91"/>
<polygon fill="black" stroke="black" points="215.82,-217.38 217.64,-206.94 209.71,-213.97 215.82,-217.38"/>
</g>
<!-- Errors::not_published -->
<g id="node5" class="node">
<title>Errors::not_published</title>
<ellipse fill="none" stroke="black" cx="76" cy="-189" rx="60.39" ry="18"/>
<text text-anchor="middle" x="76" y="-185.3" font-family="Times,serif" font-size="14.00">not_published</text>
</g>
<!-- ValidatorConfig::set_config&#45;&gt;Errors::not_published -->
<g id="edge4" class="edge">
<title>ValidatorConfig::set_config&#45;&gt;Errors::not_published</title>
<path fill="none" stroke="black" d="M343.08,-429.03C286.78,-428.15 196.61,-423.61 170,-404 108.32,-358.55 86.49,-263.75 79.28,-217.11"/>
<polygon fill="black" stroke="black" points="82.74,-216.53 77.85,-207.13 75.81,-217.52 82.74,-216.53"/>
</g>
<!-- Signature::ed25519_validate_pubkey -->
<g id="node6" class="node">
<title>Signature::ed25519_validate_pubkey</title>
<ellipse fill="none" stroke="black" cx="762" cy="-355" rx="103.18" ry="18"/>
<text text-anchor="middle" x="762" y="-351.3" font-family="Times,serif" font-size="14.00">ed25519_validate_pubkey</text>
</g>
<!-- ValidatorConfig::set_config&#45;&gt;Signature::ed25519_validate_pubkey -->
<g id="edge5" class="edge">
<title>ValidatorConfig::set_config&#45;&gt;Signature::ed25519_validate_pubkey</title>
<path fill="none" stroke="black" d="M436.67,-428.62C488.71,-427.23 575.05,-422.08 647,-404 672.41,-397.62 699.51,-386.53 721.01,-376.62"/>
<polygon fill="black" stroke="black" points="722.61,-379.74 730.17,-372.32 719.63,-373.41 722.61,-379.74"/>
</g>
<!-- Option::some -->
<g id="node7" class="node">
<title>Option::some</title>
<ellipse fill="none" stroke="black" cx="447" cy="-272" rx="29.8" ry="18"/>
<text text-anchor="middle" x="447" y="-268.3" font-family="Times,serif" font-size="14.00">some</text>
</g>
<!-- ValidatorConfig::set_config&#45;&gt;Option::some -->
<g id="edge6" class="edge">
<title>ValidatorConfig::set_config&#45;&gt;Option::some</title>
<path fill="none" stroke="black" d="M431.77,-421.64C441.25,-417.94 450.22,-412.37 456,-404 477.34,-373.09 467.48,-327.7 457.75,-299.28"/>
<polygon fill="black" stroke="black" points="460.94,-297.82 454.22,-289.63 454.37,-300.23 460.94,-297.82"/>
</g>
<!-- ValidatorConfig::exists_config -->
<g id="node8" class="node">
<title>ValidatorConfig::exists_config</title>
<ellipse fill="none" stroke="black" cx="390" cy="-355" rx="57.39" ry="18"/>
<text text-anchor="middle" x="390" y="-351.3" font-family="Times,serif" font-size="14.00">exists_config</text>
</g>
<!-- ValidatorConfig::set_config&#45;&gt;ValidatorConfig::exists_config -->
<g id="edge7" class="edge">
<title>ValidatorConfig::set_config&#45;&gt;ValidatorConfig::exists_config</title>
<path fill="none" stroke="black" d="M390,-411.7C390,-403.25 390,-392.87 390,-383.37"/>
<polygon fill="black" stroke="black" points="393.5,-383.18 390,-373.18 386.5,-383.18 393.5,-383.18"/>
</g>
<!-- ValidatorConfig::get_operator -->
<g id="node9" class="node">
<title>ValidatorConfig::get_operator</title>
<ellipse fill="none" stroke="black" cx="260" cy="-355" rx="55.49" ry="18"/>
<text text-anchor="middle" x="260" y="-351.3" font-family="Times,serif" font-size="14.00">get_operator</text>
</g>
<!-- ValidatorConfig::set_config&#45;&gt;ValidatorConfig::get_operator -->
<g id="edge8" class="edge">
<title>ValidatorConfig::set_config&#45;&gt;ValidatorConfig::get_operator</title>
<path fill="none" stroke="black" d="M355.27,-417.93C344.93,-414.09 333.77,-409.37 324,-404 310.91,-396.8 297.52,-387.18 286.39,-378.43"/>
<polygon fill="black" stroke="black" points="288.35,-375.52 278.37,-371.98 283.96,-380.97 288.35,-375.52"/>
</g>
<!-- Signer::borrow_address -->
<g id="node10" class="node">
<title>Signer::borrow_address</title>
<ellipse fill="none" stroke="black" cx="568" cy="-272" rx="66.89" ry="18"/>
<text text-anchor="middle" x="568" y="-268.3" font-family="Times,serif" font-size="14.00">borrow_address</text>
</g>
<!-- Signer::address_of&#45;&gt;Signer::borrow_address -->
<g id="edge9" class="edge">
<title>Signer::address_of&#45;&gt;Signer::borrow_address</title>
<path fill="none" stroke="black" d="M561.7,-336.82C562.75,-326.19 564.12,-312.31 565.31,-300.2"/>
<polygon fill="black" stroke="black" points="568.81,-300.45 566.31,-290.15 561.84,-299.76 568.81,-300.45"/>
</g>
<!-- Errors::make -->
<g id="node11" class="node">
<title>Errors::make</title>
<ellipse fill="none" stroke="black" cx="152" cy="-106" rx="30.59" ry="18"/>
<text text-anchor="middle" x="152" y="-102.3" font-family="Times,serif" font-size="14.00">make</text>
</g>
<!-- Errors::invalid_argument&#45;&gt;Errors::make -->
<g id="edge10" class="edge">
<title>Errors::invalid_argument&#45;&gt;Errors::make</title>
<path fill="none" stroke="black" d="M212.25,-171.22C200.91,-159.13 185.49,-142.69 173.09,-129.48"/>
<polygon fill="black" stroke="black" points="175.58,-127.02 166.19,-122.12 170.48,-131.81 175.58,-127.02"/>
</g>
<!-- Errors::not_published&#45;&gt;Errors::make -->
<g id="edge11" class="edge">
<title>Errors::not_published&#45;&gt;Errors::make</title>
<path fill="none" stroke="black" d="M91.75,-171.22C103.09,-159.13 118.51,-142.69 130.91,-129.48"/>
<polygon fill="black" stroke="black" points="133.52,-131.81 137.81,-122.12 128.42,-127.02 133.52,-131.81"/>
</g>
<!-- Vector::singleton -->
<g id="node12" class="node">
<title>Vector::singleton</title>
<ellipse fill="none" stroke="black" cx="564" cy="-106" rx="42.79" ry="18"/>
<text text-anchor="middle" x="564" y="-102.3" font-family="Times,serif" font-size="14.00">singleton</text>
</g>
<!-- Option::some&#45;&gt;Vector::singleton -->
<g id="edge12" class="edge">
<title>Option::some&#45;&gt;Vector::singleton</title>
<path fill="none" stroke="black" d="M458.22,-255.27C478.59,-226.72 521.81,-166.14 546.23,-131.91"/>
<polygon fill="black" stroke="black" points="549.34,-133.58 552.3,-123.4 543.64,-129.51 549.34,-133.58"/>
</g>
<!-- ValidatorConfig::get_operator&#45;&gt;Errors::invalid_argument -->
<g id="edge13" class="edge">
<title>ValidatorConfig::get_operator&#45;&gt;Errors::invalid_argument</title>
<path fill="none" stroke="black" d="M256.64,-336.76C251.08,-308.26 239.93,-251.12 233.3,-217.16"/>
<polygon fill="black" stroke="black" points="236.67,-216.15 231.32,-207.01 229.8,-217.5 236.67,-216.15"/>
</g>
<!-- ValidatorConfig::get_operator&#45;&gt;Errors::not_published -->
<g id="edge14" class="edge">
<title>ValidatorConfig::get_operator&#45;&gt;Errors::not_published</title>
<path fill="none" stroke="black" d="M242.02,-337.98C209.27,-308.78 139.76,-246.83 101.9,-213.08"/>
<polygon fill="black" stroke="black" points="104.12,-210.37 94.32,-206.33 99.46,-215.6 104.12,-210.37"/>
</g>
<!-- Option::borrow -->
<g id="node13" class="node">
<title>Option::borrow</title>
<ellipse fill="none" stroke="black" cx="363" cy="-272" rx="36.29" ry="18"/>
<text text-anchor="middle" x="363" y="-268.3" font-family="Times,serif" font-size="14.00">borrow</text>
</g>
<!-- ValidatorConfig::get_operator&#45;&gt;Option::borrow -->
<g id="edge15" class="edge">
<title>ValidatorConfig::get_operator&#45;&gt;Option::borrow</title>
<path fill="none" stroke="black" d="M285.23,-338.88C293.64,-333.53 302.92,-327.27 311,-321 321.06,-313.19 331.5,-303.84 340.36,-295.47"/>
<polygon fill="black" stroke="black" points="342.9,-297.89 347.69,-288.44 338.05,-292.84 342.9,-297.89"/>
</g>
<!-- Option::is_some -->
<g id="node14" class="node">
<title>Option::is_some</title>
<ellipse fill="none" stroke="black" cx="367" cy="-189" rx="40.09" ry="18"/>
<text text-anchor="middle" x="367" y="-185.3" font-family="Times,serif" font-size="14.00">is_some</text>
</g>
<!-- ValidatorConfig::get_operator&#45;&gt;Option::is_some -->
<g id="edge16" class="edge">
<title>ValidatorConfig::get_operator&#45;&gt;Option::is_some</title>
<path fill="none" stroke="black" d="M267.73,-336.85C277.92,-314.95 297.03,-276.27 318,-246 325.82,-234.72 335.58,-223.15 344.34,-213.49"/>
<polygon fill="black" stroke="black" points="347.17,-215.58 351.39,-205.86 342.03,-210.83 347.17,-215.58"/>
</g>
<!-- Vector::empty -->
<g id="node15" class="node">
<title>Vector::empty</title>
<ellipse fill="none" stroke="black" cx="460" cy="-34" rx="33.29" ry="18"/>
<text text-anchor="middle" x="460" y="-30.3" font-family="Times,serif" font-size="14.00">empty</text>
</g>
<!-- Vector::singleton&#45;&gt;Vector::empty -->
<g id="edge17" class="edge">
<title>Vector::singleton&#45;&gt;Vector::empty</title>
<path fill="none" stroke="black" d="M542.2,-90.33C526.58,-79.81 505.39,-65.55 488.44,-54.14"/>
<polygon fill="black" stroke="black" points="490.26,-51.15 480.01,-48.47 486.35,-56.96 490.26,-51.15"/>
</g>
<!-- Vector::push_back -->
<g id="node16" class="node">
<title>Vector::push_back</title>
<ellipse fill="none" stroke="black" cx="559" cy="-34" rx="48.19" ry="18"/>
<text text-anchor="middle" x="559" y="-30.3" font-family="Times,serif" font-size="14.00">push_back</text>
</g>
<!-- Vector::singleton&#45;&gt;Vector::push_back -->
<g id="edge18" class="edge">
<title>Vector::singleton&#45;&gt;Vector::push_back</title>
<path fill="none" stroke="black" d="M562.76,-87.7C562.21,-79.98 561.55,-70.71 560.94,-62.11"/>
<polygon fill="black" stroke="black" points="564.43,-61.83 560.22,-52.1 557.44,-62.33 564.43,-61.83"/>
</g>
<!-- Option::borrow&#45;&gt;Errors::invalid_argument -->
<g id="edge19" class="edge">
<title>Option::borrow&#45;&gt;Errors::invalid_argument</title>
<path fill="none" stroke="black" d="M340.71,-257.62C319.63,-244.98 287.67,-225.8 263.16,-211.1"/>
<polygon fill="black" stroke="black" points="264.88,-208.04 254.5,-205.9 261.27,-214.05 264.88,-208.04"/>
</g>
<!-- Option::borrow&#45;&gt;Option::is_some -->
<g id="edge21" class="edge">
<title>Option::borrow&#45;&gt;Option::is_some</title>
<path fill="none" stroke="black" d="M363.85,-253.82C364.37,-243.19 365.06,-229.31 365.66,-217.2"/>
<polygon fill="black" stroke="black" points="369.16,-217.31 366.15,-207.15 362.16,-216.97 369.16,-217.31"/>
</g>
<!-- Vector::borrow -->
<g id="node17" class="node">
<title>Vector::borrow</title>
<ellipse fill="none" stroke="black" cx="467" cy="-106" rx="36.29" ry="18"/>
<text text-anchor="middle" x="467" y="-102.3" font-family="Times,serif" font-size="14.00">borrow</text>
</g>
<!-- Option::borrow&#45;&gt;Vector::borrow -->
<g id="edge20" class="edge">
<title>Option::borrow&#45;&gt;Vector::borrow</title>
<path fill="none" stroke="black" d="M386.75,-258.18C398.73,-251.33 411.64,-243.26 416,-238 441.43,-207.35 455.16,-162.56 461.77,-134.1"/>
<polygon fill="black" stroke="black" points="465.25,-134.57 463.97,-124.06 458.42,-133.08 465.25,-134.57"/>
</g>
<!-- Vector::is_empty -->
<g id="node18" class="node">
<title>Vector::is_empty</title>
<ellipse fill="none" stroke="black" cx="369" cy="-106" rx="43.59" ry="18"/>
<text text-anchor="middle" x="369" y="-102.3" font-family="Times,serif" font-size="14.00">is_empty</text>
</g>
<!-- Option::is_some&#45;&gt;Vector::is_empty -->
<g id="edge22" class="edge">
<title>Option::is_some&#45;&gt;Vector::is_empty</title>
<path fill="none" stroke="black" d="M367.42,-170.82C367.69,-160.19 368.03,-146.31 368.33,-134.2"/>
<polygon fill="black" stroke="black" points="371.83,-134.24 368.58,-124.15 364.83,-134.06 371.83,-134.24"/>
</g>
<!-- Vector::length -->
<g id="node19" class="node">
<title>Vector::length</title>
<ellipse fill="none" stroke="black" cx="369" cy="-34" rx="32.49" ry="18"/>
<text text-anchor="middle" x="369" y="-30.3" font-family="Times,serif" font-size="14.00">length</text>
</g>
<!-- Vector::is_empty&#45;&gt;Vector::length -->
<g id="edge23" class="edge">
<title>Vector::is_empty&#45;&gt;Vector::length</title>
<path fill="none" stroke="black" d="M369,-87.7C369,-79.98 369,-70.71 369,-62.11"/>
<polygon fill="black" stroke="black" points="372.5,-62.1 369,-52.1 365.5,-62.1 372.5,-62.1"/>
</g>
</g>
</svg>
