<?xml version="1.0" encoding="UTF-8" standalone="no"?>
<!DOCTYPE svg PUBLIC "-//W3C//DTD SVG 1.1//EN"
 "http://www.w3.org/Graphics/SVG/1.1/DTD/svg11.dtd">
<!-- Generated by graphviz version 2.46.1 (20210213.1702)
 -->
<!-- Title: G Pages: 1 -->
<svg width="600pt" height="404pt"
 viewBox="0.00 0.00 600.20 404.00" xmlns="http://www.w3.org/2000/svg" xmlns:xlink="http://www.w3.org/1999/xlink">
<g id="graph0" class="graph" transform="scale(1 1) rotate(0) translate(4 400)">
<title>G</title>
<polygon fill="white" stroke="transparent" points="-4,4 -4,-400 596.2,-400 596.2,4 -4,4"/>
<!-- ValidatorConfig -->
<g id="node1" class="node">
<title>ValidatorConfig</title>
<ellipse fill="none" stroke="black" cx="312" cy="-378" rx="66.89" ry="18"/>
<text text-anchor="middle" x="312" y="-374.3" font-family="Times,serif" font-size="14.00">ValidatorConfig</text>
</g>
<!-- Signer -->
<g id="node2" class="node">
<title>Signer</title>
<ellipse fill="none" stroke="black" cx="57" cy="-18" rx="33.6" ry="18"/>
<text text-anchor="middle" x="57" y="-14.3" font-family="Times,serif" font-size="14.00">Signer</text>
</g>
<!-- ValidatorConfig&#45;&gt;Signer -->
<g id="edge1" class="edge">
<title>ValidatorConfig&#45;&gt;Signer</title>
<path fill="none" stroke="black" d="M245.83,-375.21C154.25,-368.81 0,-342.12 0,-235 0,-235 0,-235 0,-161 0,-117.32 23.51,-71.18 40.33,-43.75"/>
<polygon fill="black" stroke="black" points="43.36,-45.52 45.74,-35.2 37.44,-41.78 43.36,-45.52"/>
</g>
<!-- Errors -->
<g id="node3" class="node">
<title>Errors</title>
<ellipse fill="none" stroke="black" cx="327" cy="-18" rx="32.49" ry="18"/>
<text text-anchor="middle" x="327" y="-14.3" font-family="Times,serif" font-size="14.00">Errors</text>
</g>
<!-- ValidatorConfig&#45;&gt;Errors -->
<g id="edge2" class="edge">
<title>ValidatorConfig&#45;&gt;Errors</title>
<path fill="none" stroke="black" d="M328.12,-360.19C350.43,-335.09 388,-285.33 388,-235 388,-235 388,-235 388,-161 388,-116.89 362.84,-70.86 344.84,-43.58"/>
<polygon fill="black" stroke="black" points="347.57,-41.38 339.05,-35.08 341.78,-45.31 347.57,-41.38"/>
</g>
<!-- DiemTimestamp -->
<g id="node4" class="node">
<title>DiemTimestamp</title>
<ellipse fill="none" stroke="black" cx="251" cy="-162" rx="71.49" ry="18"/>
<text text-anchor="middle" x="251" y="-158.3" font-family="Times,serif" font-size="14.00">DiemTimestamp</text>
</g>
<!-- ValidatorConfig&#45;&gt;DiemTimestamp -->
<g id="edge3" class="edge">
<title>ValidatorConfig&#45;&gt;DiemTimestamp</title>
<path fill="none" stroke="black" d="M308.93,-359.8C305.57,-341.77 299.76,-312.69 293,-288 283.6,-253.65 270.11,-214.89 260.98,-189.76"/>
<polygon fill="black" stroke="black" points="264.2,-188.38 257.47,-180.2 257.63,-190.79 264.2,-188.38"/>
</g>
<!-- Signature -->
<g id="node5" class="node">
<title>Signature</title>
<ellipse fill="none" stroke="black" cx="548" cy="-306" rx="44.39" ry="18"/>
<text text-anchor="middle" x="548" y="-302.3" font-family="Times,serif" font-size="14.00">Signature</text>
</g>
<!-- ValidatorConfig&#45;&gt;Signature -->
<g id="edge4" class="edge">
<title>ValidatorConfig&#45;&gt;Signature</title>
<path fill="none" stroke="black" d="M356.48,-364.5C393.6,-353.98 447.86,-338.38 495,-324 498.29,-323 501.69,-321.94 505.1,-320.87"/>
<polygon fill="black" stroke="black" points="506.2,-324.2 514.68,-317.85 504.09,-317.52 506.2,-324.2"/>
</g>
<!-- Roles -->
<g id="node6" class="node">
<title>Roles</title>
<ellipse fill="none" stroke="black" cx="133" cy="-234" rx="30.59" ry="18"/>
<text text-anchor="middle" x="133" y="-230.3" font-family="Times,serif" font-size="14.00">Roles</text>
</g>
<!-- ValidatorConfig&#45;&gt;Roles -->
<g id="edge5" class="edge">
<title>ValidatorConfig&#45;&gt;Roles</title>
<path fill="none" stroke="black" d="M249.59,-371.47C187.97,-364.56 99.99,-350.3 79,-324 61.43,-301.98 85.27,-273.79 106.61,-255.09"/>
<polygon fill="black" stroke="black" points="108.86,-257.77 114.28,-248.67 104.37,-252.41 108.86,-257.77"/>
</g>
<!-- ValidatorOperatorConfig -->
<g id="node7" class="node">
<title>ValidatorOperatorConfig</title>
<ellipse fill="none" stroke="black" cx="186" cy="-306" rx="98.28" ry="18"/>
<text text-anchor="middle" x="186" y="-302.3" font-family="Times,serif" font-size="14.00">ValidatorOperatorConfig</text>
</g>
<!-- ValidatorConfig&#45;&gt;ValidatorOperatorConfig -->
<g id="edge6" class="edge">
<title>ValidatorConfig&#45;&gt;ValidatorOperatorConfig</title>
<path fill="none" stroke="black" d="M284.04,-361.46C266.39,-351.66 243.36,-338.86 224.05,-328.14"/>
<polygon fill="black" stroke="black" points="225.64,-325.02 215.2,-323.22 222.24,-331.14 225.64,-325.02"/>
</g>
<!-- Option -->
<g id="node8" class="node">
<title>Option</title>
<ellipse fill="none" stroke="black" cx="451" cy="-306" rx="35.19" ry="18"/>
<text text-anchor="middle" x="451" y="-302.3" font-family="Times,serif" font-size="14.00">Option</text>
</g>
<!-- ValidatorConfig&#45;&gt;Option -->
<g id="edge7" class="edge">
<title>ValidatorConfig&#45;&gt;Option</title>
<path fill="none" stroke="black" d="M342.16,-361.81C364.48,-350.57 394.86,-335.27 417.86,-323.69"/>
<polygon fill="black" stroke="black" points="419.54,-326.76 426.9,-319.14 416.39,-320.51 419.54,-326.76"/>
</g>
<!-- DiemTimestamp&#45;&gt;Errors -->
<g id="edge8" class="edge">
<title>DiemTimestamp&#45;&gt;Errors</title>
<path fill="none" stroke="black" d="M260.17,-143.87C273.36,-119.22 297.81,-73.54 313.19,-44.79"/>
<polygon fill="black" stroke="black" points="316.4,-46.22 318.04,-35.75 310.23,-42.91 316.4,-46.22"/>
</g>
<!-- CoreAddresses -->
<g id="node9" class="node">
<title>CoreAddresses</title>
<ellipse fill="none" stroke="black" cx="168" cy="-90" rx="63.89" ry="18"/>
<text text-anchor="middle" x="168" y="-86.3" font-family="Times,serif" font-size="14.00">CoreAddresses</text>
</g>
<!-- DiemTimestamp&#45;&gt;CoreAddresses -->
<g id="edge9" class="edge">
<title>DiemTimestamp&#45;&gt;CoreAddresses</title>
<path fill="none" stroke="black" d="M231.33,-144.41C220.5,-135.28 206.9,-123.81 195.08,-113.84"/>
<polygon fill="black" stroke="black" points="197.14,-111 187.24,-107.23 192.63,-116.35 197.14,-111"/>
</g>
<!-- Roles&#45;&gt;Signer -->
<g id="edge10" class="edge">
<title>Roles&#45;&gt;Signer</title>
<path fill="none" stroke="black" d="M127.04,-216.21C113.89,-179.19 82.32,-90.3 66.45,-45.6"/>
<polygon fill="black" stroke="black" points="69.69,-44.26 63.04,-36.01 63.09,-46.61 69.69,-44.26"/>
</g>
<!-- Roles&#45;&gt;Errors -->
<g id="edge11" class="edge">
<title>Roles&#45;&gt;Errors</title>
<path fill="none" stroke="black" d="M136.57,-216C141.41,-196.53 151.77,-164.66 171,-144 194.84,-118.39 212.91,-128.86 241,-108 241.92,-107.32 280.03,-67.78 305.21,-41.64"/>
<polygon fill="black" stroke="black" points="307.82,-43.97 312.23,-34.34 302.78,-39.12 307.82,-43.97"/>
</g>
<!-- Roles&#45;&gt;DiemTimestamp -->
<g id="edge13" class="edge">
<title>Roles&#45;&gt;DiemTimestamp</title>
<path fill="none" stroke="black" d="M153.82,-220.65C170.88,-210.53 195.41,-195.98 215.55,-184.03"/>
<polygon fill="black" stroke="black" points="217.35,-187.03 224.16,-178.92 213.78,-181.01 217.35,-187.03"/>
</g>
<!-- Roles&#45;&gt;CoreAddresses -->
<g id="edge12" class="edge">
<title>Roles&#45;&gt;CoreAddresses</title>
<path fill="none" stroke="black" d="M131.69,-215.88C130.81,-197.67 130.89,-168.2 138,-144 140.8,-134.46 145.59,-124.78 150.53,-116.35"/>
<polygon fill="black" stroke="black" points="153.56,-118.1 155.86,-107.76 147.61,-114.41 153.56,-118.1"/>
</g>
<!-- ValidatorOperatorConfig&#45;&gt;Signer -->
<g id="edge14" class="edge">
<title>ValidatorOperatorConfig&#45;&gt;Signer</title>
<path fill="none" stroke="black" d="M142.03,-289.83C124.08,-281.43 104.8,-269.14 93,-252 49.37,-188.64 50.4,-92.74 54.03,-46.22"/>
<polygon fill="black" stroke="black" points="57.54,-46.3 54.93,-36.03 50.56,-45.68 57.54,-46.3"/>
</g>
<!-- ValidatorOperatorConfig&#45;&gt;Errors -->
<g id="edge15" class="edge">
<title>ValidatorOperatorConfig&#45;&gt;Errors</title>
<path fill="none" stroke="black" d="M217.38,-288.84C252.56,-268.73 307.74,-230.76 331,-180 350.97,-136.42 342.4,-79 334.56,-45.83"/>
<polygon fill="black" stroke="black" points="337.91,-44.8 332.07,-35.96 331.12,-46.51 337.91,-44.8"/>
</g>
<!-- ValidatorOperatorConfig&#45;&gt;DiemTimestamp -->
<g id="edge16" class="edge">
<title>ValidatorOperatorConfig&#45;&gt;DiemTimestamp</title>
<path fill="none" stroke="black" d="M193.84,-287.87C205.02,-263.46 225.63,-218.43 238.81,-189.64"/>
<polygon fill="black" stroke="black" points="242.15,-190.74 243.13,-180.19 235.79,-187.83 242.15,-190.74"/>
</g>
<!-- ValidatorOperatorConfig&#45;&gt;Roles -->
<g id="edge17" class="edge">
<title>ValidatorOperatorConfig&#45;&gt;Roles</title>
<path fill="none" stroke="black" d="M173.17,-288.05C166.54,-279.29 158.33,-268.45 151.06,-258.86"/>
<polygon fill="black" stroke="black" points="153.81,-256.69 144.99,-250.83 148.23,-260.91 153.81,-256.69"/>
</g>
<!-- Option&#45;&gt;Errors -->
<g id="edge18" class="edge">
<title>Option&#45;&gt;Errors</title>
<path fill="none" stroke="black" d="M467.43,-290.04C476.9,-280.27 487.9,-266.64 493,-252 498.26,-236.89 497.45,-231.37 493,-216 471.95,-143.28 454.13,-126.9 402,-72 389.09,-58.4 372.21,-46.12 357.74,-36.8"/>
<polygon fill="black" stroke="black" points="359.43,-33.73 349.1,-31.4 355.72,-39.67 359.43,-33.73"/>
</g>
<!-- Vector -->
<g id="node10" class="node">
<title>Vector</title>
<ellipse fill="none" stroke="black" cx="450" cy="-234" rx="33.6" ry="18"/>
<text text-anchor="middle" x="450" y="-230.3" font-family="Times,serif" font-size="14.00">Vector</text>
</g>
<!-- Option&#45;&gt;Vector -->
<g id="edge19" class="edge">
<title>Option&#45;&gt;Vector</title>
<path fill="none" stroke="black" d="M450.75,-287.7C450.64,-279.98 450.51,-270.71 450.39,-262.11"/>
<polygon fill="black" stroke="black" points="453.89,-262.05 450.24,-252.1 446.89,-262.15 453.89,-262.05"/>
</g>
<!-- CoreAddresses&#45;&gt;Signer -->
<g id="edge20" class="edge">
<title>CoreAddresses&#45;&gt;Signer</title>
<path fill="none" stroke="black" d="M143.09,-73.29C126.43,-62.79 104.43,-48.91 86.84,-37.82"/>
<polygon fill="black" stroke="black" points="88.42,-34.68 78.1,-32.3 84.69,-40.6 88.42,-34.68"/>
</g>
<!-- CoreAddresses&#45;&gt;Errors -->
<g id="edge21" class="edge">
<title>CoreAddresses&#45;&gt;Errors</title>
<path fill="none" stroke="black" d="M200.94,-74.5C227.84,-62.65 265.71,-45.98 292.91,-34.01"/>
<polygon fill="black" stroke="black" points="294.67,-37.06 302.41,-29.82 291.85,-30.65 294.67,-37.06"/>
</g>
</g>
</svg>
