<?xml version="1.0" encoding="UTF-8" standalone="no"?>
<!DOCTYPE svg PUBLIC "-//W3C//DTD SVG 1.1//EN"
 "http://www.w3.org/Graphics/SVG/1.1/DTD/svg11.dtd">
<!-- Generated by graphviz version 2.46.1 (20210213.1702)
 -->
<!-- Title: G Pages: 1 -->
<svg width="1448pt" height="332pt"
 viewBox="0.00 0.00 1448.30 332.00" xmlns="http://www.w3.org/2000/svg" xmlns:xlink="http://www.w3.org/1999/xlink">
<g id="graph0" class="graph" transform="scale(1 1) rotate(0) translate(4 328)">
<title>G</title>
<polygon fill="white" stroke="transparent" points="-4,4 -4,-328 1444.3,-328 1444.3,4 -4,4"/>
<!-- ValidatorOperatorConfig -->
<g id="node1" class="node">
<title>ValidatorOperatorConfig</title>
<ellipse fill="none" stroke="black" cx="1128.41" cy="-18" rx="98.28" ry="18"/>
<text text-anchor="middle" x="1128.41" y="-14.3" font-family="Times,serif" font-size="14.00">ValidatorOperatorConfig</text>
</g>
<!-- ValidatorConfig -->
<g id="node2" class="node">
<title>ValidatorConfig</title>
<ellipse fill="none" stroke="black" cx="1128.41" cy="-90" rx="66.89" ry="18"/>
<text text-anchor="middle" x="1128.41" y="-86.3" font-family="Times,serif" font-size="14.00">ValidatorConfig</text>
</g>
<!-- ValidatorConfig&#45;&gt;ValidatorOperatorConfig -->
<g id="edge1" class="edge">
<title>ValidatorConfig&#45;&gt;ValidatorOperatorConfig</title>
<path fill="none" stroke="black" d="M1128.41,-71.7C1128.41,-63.98 1128.41,-54.71 1128.41,-46.11"/>
<polygon fill="black" stroke="black" points="1131.92,-46.1 1128.41,-36.1 1124.92,-46.1 1131.92,-46.1"/>
</g>
<!-- DiemAccount -->
<g id="node3" class="node">
<title>DiemAccount</title>
<ellipse fill="none" stroke="black" cx="624.41" cy="-162" rx="60.39" ry="18"/>
<text text-anchor="middle" x="624.41" y="-158.3" font-family="Times,serif" font-size="14.00">DiemAccount</text>
</g>
<!-- DiemAccount&#45;&gt;ValidatorOperatorConfig -->
<g id="edge2" class="edge">
<title>DiemAccount&#45;&gt;ValidatorOperatorConfig</title>
<path fill="none" stroke="black" d="M666.95,-149.02C756.38,-123.82 964.16,-65.28 1067.62,-36.13"/>
<polygon fill="black" stroke="black" points="1068.62,-39.48 1077.3,-33.4 1066.72,-32.75 1068.62,-39.48"/>
</g>
<!-- DiemAccount&#45;&gt;ValidatorConfig -->
<g id="edge4" class="edge">
<title>DiemAccount&#45;&gt;ValidatorConfig</title>
<path fill="none" stroke="black" d="M677.87,-153.58C770.09,-140.77 958.9,-114.54 1060.36,-100.45"/>
<polygon fill="black" stroke="black" points="1061.07,-103.89 1070.49,-99.04 1060.11,-96.95 1061.07,-103.89"/>
</g>
<!-- ValidatorAdministrationScripts -->
<g id="node4" class="node">
<title>ValidatorAdministrationScripts</title>
<ellipse fill="none" stroke="black" cx="1319.41" cy="-234" rx="120.78" ry="18"/>
<text text-anchor="middle" x="1319.41" y="-230.3" font-family="Times,serif" font-size="14.00">ValidatorAdministrationScripts</text>
</g>
<!-- ValidatorAdministrationScripts&#45;&gt;ValidatorOperatorConfig -->
<g id="edge3" class="edge">
<title>ValidatorAdministrationScripts&#45;&gt;ValidatorOperatorConfig</title>
<path fill="none" stroke="black" d="M1309.96,-216.05C1292.12,-185.05 1251.07,-118.13 1204.41,-72 1192.69,-60.4 1178.16,-49.59 1164.96,-40.8"/>
<polygon fill="black" stroke="black" points="1166.81,-37.83 1156.52,-35.33 1163,-43.7 1166.81,-37.83"/>
</g>
<!-- ValidatorAdministrationScripts&#45;&gt;ValidatorConfig -->
<g id="edge6" class="edge">
<title>ValidatorAdministrationScripts&#45;&gt;ValidatorConfig</title>
<path fill="none" stroke="black" d="M1296.75,-216.15C1262.3,-190.54 1196.72,-141.78 1158.37,-113.27"/>
<polygon fill="black" stroke="black" points="1160.28,-110.33 1150.16,-107.17 1156.1,-115.94 1160.28,-110.33"/>
</g>
<!-- DiemSystem -->
<g id="node5" class="node">
<title>DiemSystem</title>
<ellipse fill="none" stroke="black" cx="1128.41" cy="-162" rx="57.39" ry="18"/>
<text text-anchor="middle" x="1128.41" y="-158.3" font-family="Times,serif" font-size="14.00">DiemSystem</text>
</g>
<!-- ValidatorAdministrationScripts&#45;&gt;DiemSystem -->
<g id="edge16" class="edge">
<title>ValidatorAdministrationScripts&#45;&gt;DiemSystem</title>
<path fill="none" stroke="black" d="M1276.07,-217.12C1245.58,-205.94 1204.86,-191.02 1173.91,-179.67"/>
<polygon fill="black" stroke="black" points="1174.82,-176.28 1164.22,-176.12 1172.41,-182.85 1174.82,-176.28"/>
</g>
<!-- DiemSystem&#45;&gt;ValidatorConfig -->
<g id="edge5" class="edge">
<title>DiemSystem&#45;&gt;ValidatorConfig</title>
<path fill="none" stroke="black" d="M1128.41,-143.7C1128.41,-135.98 1128.41,-126.71 1128.41,-118.11"/>
<polygon fill="black" stroke="black" points="1131.92,-118.1 1128.41,-108.1 1124.92,-118.1 1131.92,-118.1"/>
</g>
<!-- SharedEd25519PublicKey -->
<g id="node6" class="node">
<title>SharedEd25519PublicKey</title>
<ellipse fill="none" stroke="black" cx="120.41" cy="-234" rx="103.98" ry="18"/>
<text text-anchor="middle" x="120.41" y="-230.3" font-family="Times,serif" font-size="14.00">SharedEd25519PublicKey</text>
</g>
<!-- SharedEd25519PublicKey&#45;&gt;DiemAccount -->
<g id="edge7" class="edge">
<title>SharedEd25519PublicKey&#45;&gt;DiemAccount</title>
<path fill="none" stroke="black" d="M195.76,-221.51C208.33,-219.64 221.24,-217.74 233.41,-216 348.45,-199.55 482.71,-181.63 560.21,-171.41"/>
<polygon fill="black" stroke="black" points="560.84,-174.86 570.3,-170.08 559.93,-167.92 560.84,-174.86"/>
</g>
<!-- RecoveryAddress -->
<g id="node7" class="node">
<title>RecoveryAddress</title>
<ellipse fill="none" stroke="black" cx="315.41" cy="-234" rx="73.39" ry="18"/>
<text text-anchor="middle" x="315.41" y="-230.3" font-family="Times,serif" font-size="14.00">RecoveryAddress</text>
</g>
<!-- RecoveryAddress&#45;&gt;DiemAccount -->
<g id="edge8" class="edge">
<title>RecoveryAddress&#45;&gt;DiemAccount</title>
<path fill="none" stroke="black" d="M367.48,-221.2C422.97,-208.63 510.55,-188.79 567.74,-175.84"/>
<polygon fill="black" stroke="black" points="568.72,-179.2 577.7,-173.58 567.18,-172.38 568.72,-179.2"/>
</g>
<!-- AccountAdministrationScripts -->
<g id="node8" class="node">
<title>AccountAdministrationScripts</title>
<ellipse fill="none" stroke="black" cx="120.41" cy="-306" rx="118.08" ry="18"/>
<text text-anchor="middle" x="120.41" y="-302.3" font-family="Times,serif" font-size="14.00">AccountAdministrationScripts</text>
</g>
<!-- AccountAdministrationScripts&#45;&gt;DiemAccount -->
<g id="edge9" class="edge">
<title>AccountAdministrationScripts&#45;&gt;DiemAccount</title>
<path fill="none" stroke="black" d="M59.21,-290.55C39.22,-282.62 19.15,-270.47 7.41,-252 -1.17,-238.5 -3.4,-227.79 7.41,-216 43.75,-176.41 399.57,-166.33 553.76,-163.82"/>
<polygon fill="black" stroke="black" points="554.12,-167.31 564.06,-163.66 554.01,-160.31 554.12,-167.31"/>
</g>
<!-- AccountAdministrationScripts&#45;&gt;SharedEd25519PublicKey -->
<g id="edge17" class="edge">
<title>AccountAdministrationScripts&#45;&gt;SharedEd25519PublicKey</title>
<path fill="none" stroke="black" d="M120.41,-287.7C120.41,-279.98 120.41,-270.71 120.41,-262.11"/>
<polygon fill="black" stroke="black" points="123.92,-262.1 120.41,-252.1 116.92,-262.1 123.92,-262.1"/>
</g>
<!-- AccountAdministrationScripts&#45;&gt;RecoveryAddress -->
<g id="edge18" class="edge">
<title>AccountAdministrationScripts&#45;&gt;RecoveryAddress</title>
<path fill="none" stroke="black" d="M164.66,-289.12C194.78,-278.31 234.67,-263.99 265.85,-252.79"/>
<polygon fill="black" stroke="black" points="267.42,-255.95 275.65,-249.28 265.05,-249.36 267.42,-255.95"/>
</g>
<!-- AccountCreationScripts -->
<g id="node9" class="node">
<title>AccountCreationScripts</title>
<ellipse fill="none" stroke="black" cx="501.41" cy="-234" rx="94.78" ry="18"/>
<text text-anchor="middle" x="501.41" y="-230.3" font-family="Times,serif" font-size="14.00">AccountCreationScripts</text>
</g>
<!-- AccountCreationScripts&#45;&gt;DiemAccount -->
<g id="edge10" class="edge">
<title>AccountCreationScripts&#45;&gt;DiemAccount</title>
<path fill="none" stroke="black" d="M529.94,-216.76C547.51,-206.77 570.17,-193.87 588.89,-183.22"/>
<polygon fill="black" stroke="black" points="590.77,-186.18 597.73,-178.19 587.3,-180.09 590.77,-186.18"/>
</g>
<!-- Genesis -->
<g id="node10" class="node">
<title>Genesis</title>
<ellipse fill="none" stroke="black" cx="1048.41" cy="-306" rx="38.19" ry="18"/>
<text text-anchor="middle" x="1048.41" y="-302.3" font-family="Times,serif" font-size="14.00">Genesis</text>
</g>
<!-- Genesis&#45;&gt;DiemAccount -->
<g id="edge11" class="edge">
<title>Genesis&#45;&gt;DiemAccount</title>
<path fill="none" stroke="black" d="M1009.99,-305.4C919.43,-305.53 696.24,-300.75 643.41,-252 626.68,-236.56 622.77,-210.3 622.54,-190.3"/>
<polygon fill="black" stroke="black" points="626.04,-190.28 622.72,-180.22 619.04,-190.15 626.04,-190.28"/>
</g>
<!-- Genesis&#45;&gt;DiemSystem -->
<g id="edge15" class="edge">
<title>Genesis&#45;&gt;DiemSystem</title>
<path fill="none" stroke="black" d="M1048.89,-287.77C1050.11,-268.94 1054.17,-238.45 1067.41,-216 1074.57,-203.87 1085.5,-193.1 1096.14,-184.49"/>
<polygon fill="black" stroke="black" points="1098.35,-187.21 1104.15,-178.34 1094.08,-181.65 1098.35,-187.21"/>
</g>
<!-- DiemBlock -->
<g id="node13" class="node">
<title>DiemBlock</title>
<ellipse fill="none" stroke="black" cx="1128.41" cy="-234" rx="51.99" ry="18"/>
<text text-anchor="middle" x="1128.41" y="-230.3" font-family="Times,serif" font-size="14.00">DiemBlock</text>
</g>
<!-- Genesis&#45;&gt;DiemBlock -->
<g id="edge19" class="edge">
<title>Genesis&#45;&gt;DiemBlock</title>
<path fill="none" stroke="black" d="M1065.77,-289.81C1076.56,-280.38 1090.61,-268.08 1102.67,-257.53"/>
<polygon fill="black" stroke="black" points="1105.04,-260.11 1110.26,-250.89 1100.43,-254.84 1105.04,-260.11"/>
</g>
<!-- PaymentScripts -->
<g id="node11" class="node">
<title>PaymentScripts</title>
<ellipse fill="none" stroke="black" cx="718.41" cy="-234" rx="66.09" ry="18"/>
<text text-anchor="middle" x="718.41" y="-230.3" font-family="Times,serif" font-size="14.00">PaymentScripts</text>
</g>
<!-- PaymentScripts&#45;&gt;DiemAccount -->
<g id="edge12" class="edge">
<title>PaymentScripts&#45;&gt;DiemAccount</title>
<path fill="none" stroke="black" d="M696.61,-216.76C683.95,-207.33 667.82,-195.32 654.01,-185.04"/>
<polygon fill="black" stroke="black" points="655.89,-182.07 645.77,-178.91 651.7,-187.69 655.89,-182.07"/>
</g>
<!-- TreasuryComplianceScripts -->
<g id="node12" class="node">
<title>TreasuryComplianceScripts</title>
<ellipse fill="none" stroke="black" cx="911.41" cy="-234" rx="109.38" ry="18"/>
<text text-anchor="middle" x="911.41" y="-230.3" font-family="Times,serif" font-size="14.00">TreasuryComplianceScripts</text>
</g>
<!-- TreasuryComplianceScripts&#45;&gt;DiemAccount -->
<g id="edge13" class="edge">
<title>TreasuryComplianceScripts&#45;&gt;DiemAccount</title>
<path fill="none" stroke="black" d="M852.99,-218.75C802.24,-206.37 729.26,-188.57 679.51,-176.44"/>
<polygon fill="black" stroke="black" points="680.12,-172.98 669.58,-174.01 678.46,-179.78 680.12,-172.98"/>
</g>
<!-- DiemBlock&#45;&gt;DiemSystem -->
<g id="edge14" class="edge">
<title>DiemBlock&#45;&gt;DiemSystem</title>
<path fill="none" stroke="black" d="M1128.41,-215.7C1128.41,-207.98 1128.41,-198.71 1128.41,-190.11"/>
<polygon fill="black" stroke="black" points="1131.92,-190.1 1128.41,-180.1 1124.92,-190.1 1131.92,-190.1"/>
</g>
</g>
</svg>
