<?xml version="1.0" encoding="UTF-8" standalone="no"?>
<!DOCTYPE svg PUBLIC "-//W3C//DTD SVG 1.1//EN"
 "http://www.w3.org/Graphics/SVG/1.1/DTD/svg11.dtd">
<!-- Generated by graphviz version 2.46.1 (20210213.1702)
 -->
<!-- Title: G Pages: 1 -->
<svg width="1489pt" height="373pt"
 viewBox="0.00 0.00 1489.29 373.00" xmlns="http://www.w3.org/2000/svg" xmlns:xlink="http://www.w3.org/1999/xlink">
<g id="graph0" class="graph" transform="scale(1 1) rotate(0) translate(4 369)">
<title>G</title>
<polygon fill="white" stroke="transparent" points="-4,4 -4,-369 1485.29,-369 1485.29,4 -4,4"/>
<g id="clust1" class="cluster">
<title>cluster_Signer</title>
<polygon fill="none" stroke="black" points="979,-8 979,-155 1129,-155 1129,-8 979,-8"/>
<text text-anchor="middle" x="1054" y="-139.8" font-family="Times,serif" font-size="14.00">Signer</text>
</g>
<g id="clust2" class="cluster">
<title>cluster_Errors</title>
<polygon fill="none" stroke="black" points="8,-8 8,-155 733,-155 733,-8 8,-8"/>
<text text-anchor="middle" x="370.5" y="-139.8" font-family="Times,serif" font-size="14.00">Errors</text>
</g>
<g id="clust3" class="cluster">
<title>cluster_DiemTimestamp</title>
<polygon fill="none" stroke="black" points="1045,-163 1045,-321 1197,-321 1197,-163 1045,-163"/>
<text text-anchor="middle" x="1121" y="-305.8" font-family="Times,serif" font-size="14.00">DiemTimestamp</text>
</g>
<g id="clust4" class="cluster">
<title>cluster_Roles</title>
<polygon fill="none" stroke="black" points="558,-246 558,-321 935,-321 935,-246 558,-246"/>
<text text-anchor="middle" x="746.5" y="-305.8" font-family="Times,serif" font-size="14.00">Roles</text>
</g>
<g id="clust5" class="cluster">
<title>cluster_CoreAddresses</title>
<polygon fill="none" stroke="black" points="741,-80 741,-238 971,-238 971,-80 741,-80"/>
<text text-anchor="middle" x="856" y="-222.8" font-family="Times,serif" font-size="14.00">CoreAddresses</text>
</g>
<!-- publish -->
<g id="node1" class="node">
<title>publish</title>
<ellipse fill="none" stroke="black" cx="988" cy="-347" rx="36.29" ry="18"/>
<text text-anchor="middle" x="988" y="-343.3" font-family="Times,serif" font-size="14.00">publish</text>
</g>
<!-- Signer::address_of -->
<g id="node2" class="node">
<title>Signer::address_of</title>
<ellipse fill="none" stroke="black" cx="1036" cy="-106" rx="48.99" ry="18"/>
<text text-anchor="middle" x="1036" y="-102.3" font-family="Times,serif" font-size="14.00">address_of</text>
</g>
<!-- publish&#45;&gt;Signer::address_of -->
<g id="edge1" class="edge">
<title>publish&#45;&gt;Signer::address_of</title>
<path fill="none" stroke="black" d="M1024.02,-344.34C1081.69,-341.31 1189.46,-333.97 1201,-321 1247.67,-268.53 1241.9,-220.08 1201,-163 1176.92,-129.4 1131.53,-115.71 1094.45,-110.26"/>
<polygon fill="black" stroke="black" points="1094.6,-106.75 1084.23,-108.93 1093.7,-113.69 1094.6,-106.75"/>
</g>
<!-- Errors::already_published -->
<g id="node3" class="node">
<title>Errors::already_published</title>
<ellipse fill="none" stroke="black" cx="91" cy="-106" rx="75.29" ry="18"/>
<text text-anchor="middle" x="91" y="-102.3" font-family="Times,serif" font-size="14.00">already_published</text>
</g>
<!-- publish&#45;&gt;Errors::already_published -->
<g id="edge2" class="edge">
<title>publish&#45;&gt;Errors::already_published</title>
<path fill="none" stroke="black" d="M951.57,-345.17C861.42,-342.92 629.73,-335.83 554,-321 442,-299.07 414.59,-285.9 311,-238 240.94,-205.6 164.7,-156.88 122.9,-128.89"/>
<polygon fill="black" stroke="black" points="124.77,-125.93 114.52,-123.24 120.86,-131.73 124.77,-125.93"/>
</g>
<!-- DiemTimestamp::assert_operating -->
<g id="node4" class="node">
<title>DiemTimestamp::assert_operating</title>
<ellipse fill="none" stroke="black" cx="1121" cy="-272" rx="68.49" ry="18"/>
<text text-anchor="middle" x="1121" y="-268.3" font-family="Times,serif" font-size="14.00">assert_operating</text>
</g>
<!-- publish&#45;&gt;DiemTimestamp::assert_operating -->
<g id="edge3" class="edge">
<title>publish&#45;&gt;DiemTimestamp::assert_operating</title>
<path fill="none" stroke="black" d="M1011.47,-333.12C1031.49,-322.13 1060.61,-306.15 1083.8,-293.42"/>
<polygon fill="black" stroke="black" points="1085.6,-296.42 1092.68,-288.54 1082.23,-290.29 1085.6,-296.42"/>
</g>
<!-- Roles::assert_diem_root -->
<g id="node5" class="node">
<title>Roles::assert_diem_root</title>
<ellipse fill="none" stroke="black" cx="856" cy="-272" rx="71.49" ry="18"/>
<text text-anchor="middle" x="856" y="-268.3" font-family="Times,serif" font-size="14.00">assert_diem_root</text>
</g>
<!-- publish&#45;&gt;Roles::assert_diem_root -->
<g id="edge4" class="edge">
<title>publish&#45;&gt;Roles::assert_diem_root</title>
<path fill="none" stroke="black" d="M964.7,-333.12C944.97,-322.2 916.31,-306.36 893.38,-293.67"/>
<polygon fill="black" stroke="black" points="895.02,-290.58 884.58,-288.81 891.64,-296.71 895.02,-290.58"/>
</g>
<!-- Roles::assert_validator_operator -->
<g id="node6" class="node">
<title>Roles::assert_validator_operator</title>
<ellipse fill="none" stroke="black" cx="666" cy="-272" rx="100.18" ry="18"/>
<text text-anchor="middle" x="666" y="-268.3" font-family="Times,serif" font-size="14.00">assert_validator_operator</text>
</g>
<!-- publish&#45;&gt;Roles::assert_validator_operator -->
<g id="edge5" class="edge">
<title>publish&#45;&gt;Roles::assert_validator_operator</title>
<path fill="none" stroke="black" d="M951.76,-344.95C909.05,-342.99 836.28,-337.32 776,-321 751.76,-314.44 725.96,-303.41 705.44,-293.58"/>
<polygon fill="black" stroke="black" points="706.93,-290.42 696.41,-289.17 703.86,-296.71 706.93,-290.42"/>
</g>
<!-- has_validator_operator_config -->
<g id="node7" class="node">
<title>has_validator_operator_config</title>
<ellipse fill="none" stroke="black" cx="1363" cy="-272" rx="118.08" ry="18"/>
<text text-anchor="middle" x="1363" y="-268.3" font-family="Times,serif" font-size="14.00">has_validator_operator_config</text>
</g>
<!-- publish&#45;&gt;has_validator_operator_config -->
<g id="edge6" class="edge">
<title>publish&#45;&gt;has_validator_operator_config</title>
<path fill="none" stroke="black" d="M1024.27,-345.05C1072.17,-343.16 1158.87,-337.56 1231,-321 1260.16,-314.31 1291.7,-303 1316.63,-293.04"/>
<polygon fill="black" stroke="black" points="1318.24,-296.17 1326.19,-289.16 1315.61,-289.68 1318.24,-296.17"/>
</g>
<!-- Signer::borrow_address -->
<g id="node8" class="node">
<title>Signer::borrow_address</title>
<ellipse fill="none" stroke="black" cx="1054" cy="-34" rx="66.89" ry="18"/>
<text text-anchor="middle" x="1054" y="-30.3" font-family="Times,serif" font-size="14.00">borrow_address</text>
</g>
<!-- Signer::address_of&#45;&gt;Signer::borrow_address -->
<g id="edge7" class="edge">
<title>Signer::address_of&#45;&gt;Signer::borrow_address</title>
<path fill="none" stroke="black" d="M1040.36,-88.05C1042.36,-80.26 1044.79,-70.82 1047.04,-62.08"/>
<polygon fill="black" stroke="black" points="1050.46,-62.83 1049.56,-52.28 1043.68,-61.09 1050.46,-62.83"/>
</g>
<!-- Errors::make -->
<g id="node9" class="node">
<title>Errors::make</title>
<ellipse fill="none" stroke="black" cx="378" cy="-34" rx="30.59" ry="18"/>
<text text-anchor="middle" x="378" y="-30.3" font-family="Times,serif" font-size="14.00">make</text>
</g>
<!-- Errors::already_published&#45;&gt;Errors::make -->
<g id="edge8" class="edge">
<title>Errors::already_published&#45;&gt;Errors::make</title>
<path fill="none" stroke="black" d="M135.4,-91.33C148.43,-87.49 162.74,-83.42 176,-80 232.49,-65.42 298.58,-51.23 339.37,-42.8"/>
<polygon fill="black" stroke="black" points="340.33,-46.18 349.42,-40.74 338.92,-39.32 340.33,-46.18"/>
</g>
<!-- Errors::invalid_state -->
<g id="node10" class="node">
<title>Errors::invalid_state</title>
<ellipse fill="none" stroke="black" cx="512" cy="-106" rx="55.79" ry="18"/>
<text text-anchor="middle" x="512" y="-102.3" font-family="Times,serif" font-size="14.00">invalid_state</text>
</g>
<!-- DiemTimestamp::assert_operating&#45;&gt;Errors::invalid_state -->
<g id="edge9" class="edge">
<title>DiemTimestamp::assert_operating&#45;&gt;Errors::invalid_state</title>
<path fill="none" stroke="black" d="M1064.59,-261.82C1028.73,-256.33 981.25,-249.73 939,-246 894.25,-242.05 780.44,-249.45 737,-238 698.08,-227.74 610.11,-176.37 576,-155 563.62,-147.24 550.61,-137.76 539.57,-129.27"/>
<polygon fill="black" stroke="black" points="541.6,-126.41 531.57,-123.02 537.3,-131.93 541.6,-126.41"/>
</g>
<!-- DiemTimestamp::is_operating -->
<g id="node11" class="node">
<title>DiemTimestamp::is_operating</title>
<ellipse fill="none" stroke="black" cx="1115" cy="-189" rx="53.89" ry="18"/>
<text text-anchor="middle" x="1115" y="-185.3" font-family="Times,serif" font-size="14.00">is_operating</text>
</g>
<!-- DiemTimestamp::assert_operating&#45;&gt;DiemTimestamp::is_operating -->
<g id="edge10" class="edge">
<title>DiemTimestamp::assert_operating&#45;&gt;DiemTimestamp::is_operating</title>
<path fill="none" stroke="black" d="M1119.73,-253.82C1118.94,-243.19 1117.91,-229.31 1117.02,-217.2"/>
<polygon fill="black" stroke="black" points="1120.5,-216.87 1116.27,-207.15 1113.52,-217.38 1120.5,-216.87"/>
</g>
<!-- Roles::assert_diem_root&#45;&gt;Signer::address_of -->
<g id="edge11" class="edge">
<title>Roles::assert_diem_root&#45;&gt;Signer::address_of</title>
<path fill="none" stroke="black" d="M919.32,-263.45C953.4,-258.13 990.87,-249.82 1003,-238 1030.83,-210.89 1036.46,-164.01 1036.97,-134.3"/>
<polygon fill="black" stroke="black" points="1040.47,-134.19 1036.96,-124.2 1033.47,-134.2 1040.47,-134.19"/>
</g>
<!-- Errors::not_published -->
<g id="node12" class="node">
<title>Errors::not_published</title>
<ellipse fill="none" stroke="black" cx="378" cy="-106" rx="60.39" ry="18"/>
<text text-anchor="middle" x="378" y="-102.3" font-family="Times,serif" font-size="14.00">not_published</text>
</g>
<!-- Roles::assert_diem_root&#45;&gt;Errors::not_published -->
<g id="edge12" class="edge">
<title>Roles::assert_diem_root&#45;&gt;Errors::not_published</title>
<path fill="none" stroke="black" d="M816.94,-256.76C803.79,-252.55 788.92,-248.43 775,-246 756.15,-242.71 619.86,-247.04 603,-238 566.57,-218.46 584.1,-183.13 548,-163 528.33,-152.04 468.2,-162.58 447,-155 431.37,-149.41 416.01,-139.31 403.76,-129.81"/>
<polygon fill="black" stroke="black" points="405.79,-126.96 395.81,-123.4 401.39,-132.4 405.79,-126.96"/>
</g>
<!-- Errors::requires_role -->
<g id="node13" class="node">
<title>Errors::requires_role</title>
<ellipse fill="none" stroke="black" cx="242" cy="-106" rx="57.39" ry="18"/>
<text text-anchor="middle" x="242" y="-102.3" font-family="Times,serif" font-size="14.00">requires_role</text>
</g>
<!-- Roles::assert_diem_root&#45;&gt;Errors::requires_role -->
<g id="edge13" class="edge">
<title>Roles::assert_diem_root&#45;&gt;Errors::requires_role</title>
<path fill="none" stroke="black" d="M817.36,-256.8C804.11,-252.54 789.08,-248.38 775,-246 725.23,-237.59 596.98,-250.2 548,-238 474.13,-219.59 467.3,-183.56 394,-163 357.47,-152.75 344.54,-168.29 309,-155 293.75,-149.3 278.83,-139.19 266.95,-129.71"/>
<polygon fill="black" stroke="black" points="269.17,-127.01 259.24,-123.31 264.7,-132.4 269.17,-127.01"/>
</g>
<!-- CoreAddresses::assert_diem_root -->
<g id="node14" class="node">
<title>CoreAddresses::assert_diem_root</title>
<ellipse fill="none" stroke="black" cx="856" cy="-189" rx="71.49" ry="18"/>
<text text-anchor="middle" x="856" y="-185.3" font-family="Times,serif" font-size="14.00">assert_diem_root</text>
</g>
<!-- Roles::assert_diem_root&#45;&gt;CoreAddresses::assert_diem_root -->
<g id="edge14" class="edge">
<title>Roles::assert_diem_root&#45;&gt;CoreAddresses::assert_diem_root</title>
<path fill="none" stroke="black" d="M856,-253.82C856,-243.19 856,-229.31 856,-217.2"/>
<polygon fill="black" stroke="black" points="859.5,-217.15 856,-207.15 852.5,-217.15 859.5,-217.15"/>
</g>
<!-- Roles::assert_validator_operator&#45;&gt;Signer::address_of -->
<g id="edge15" class="edge">
<title>Roles::assert_validator_operator&#45;&gt;Signer::address_of</title>
<path fill="none" stroke="black" d="M719.63,-256.74C737.44,-252.56 757.46,-248.46 776,-246 797.94,-243.09 957.08,-250.98 975,-238 1003.82,-217.13 987.69,-195.12 1003,-163 1007.93,-152.66 1014.14,-141.71 1019.84,-132.26"/>
<polygon fill="black" stroke="black" points="1022.83,-134.08 1025.09,-123.73 1016.87,-130.41 1022.83,-134.08"/>
</g>
<!-- Roles::assert_validator_operator&#45;&gt;Errors::not_published -->
<g id="edge16" class="edge">
<title>Roles::assert_validator_operator&#45;&gt;Errors::not_published</title>
<path fill="none" stroke="black" d="M611.31,-256.89C595.34,-251.87 578.12,-245.55 563,-238 502.04,-207.56 438.93,-158.38 404.45,-129.73"/>
<polygon fill="black" stroke="black" points="406.64,-127 396.72,-123.26 402.14,-132.36 406.64,-127"/>
</g>
<!-- Roles::assert_validator_operator&#45;&gt;Errors::requires_role -->
<g id="edge17" class="edge">
<title>Roles::assert_validator_operator&#45;&gt;Errors::requires_role</title>
<path fill="none" stroke="black" d="M572.85,-265.4C532.61,-260.88 485.57,-252.72 445,-238 375.35,-212.73 305.17,-159.96 268.35,-129.68"/>
<polygon fill="black" stroke="black" points="270.51,-126.92 260.58,-123.21 266.03,-132.3 270.51,-126.92"/>
</g>
<!-- Errors::invalid_state&#45;&gt;Errors::make -->
<g id="edge18" class="edge">
<title>Errors::invalid_state&#45;&gt;Errors::make</title>
<path fill="none" stroke="black" d="M483.91,-90.33C462.15,-78.96 432.02,-63.22 409.45,-51.43"/>
<polygon fill="black" stroke="black" points="410.78,-48.17 400.29,-46.65 407.54,-54.38 410.78,-48.17"/>
</g>
<!-- CoreAddresses::DIEM_ROOT_ADDRESS -->
<g id="node15" class="node">
<title>CoreAddresses::DIEM_ROOT_ADDRESS</title>
<ellipse fill="none" stroke="black" cx="856" cy="-106" rx="106.68" ry="18"/>
<text text-anchor="middle" x="856" y="-102.3" font-family="Times,serif" font-size="14.00">DIEM_ROOT_ADDRESS</text>
</g>
<!-- DiemTimestamp::is_operating&#45;&gt;CoreAddresses::DIEM_ROOT_ADDRESS -->
<g id="edge19" class="edge">
<title>DiemTimestamp::is_operating&#45;&gt;CoreAddresses::DIEM_ROOT_ADDRESS</title>
<path fill="none" stroke="black" d="M1069.76,-179.16C1042.11,-173.31 1006.18,-164.9 975,-155 950.12,-147.1 923.09,-136.38 901.09,-127.07"/>
<polygon fill="black" stroke="black" points="902.24,-123.76 891.67,-123.05 899.49,-130.2 902.24,-123.76"/>
</g>
<!-- Errors::not_published&#45;&gt;Errors::make -->
<g id="edge20" class="edge">
<title>Errors::not_published&#45;&gt;Errors::make</title>
<path fill="none" stroke="black" d="M378,-87.7C378,-79.98 378,-70.71 378,-62.11"/>
<polygon fill="black" stroke="black" points="381.5,-62.1 378,-52.1 374.5,-62.1 381.5,-62.1"/>
</g>
<!-- Errors::requires_role&#45;&gt;Errors::make -->
<g id="edge21" class="edge">
<title>Errors::requires_role&#45;&gt;Errors::make</title>
<path fill="none" stroke="black" d="M270.51,-90.33C292.83,-78.84 323.83,-62.88 346.81,-51.06"/>
<polygon fill="black" stroke="black" points="348.51,-54.11 355.8,-46.43 345.31,-47.89 348.51,-54.11"/>
</g>
<!-- CoreAddresses::assert_diem_root&#45;&gt;Signer::address_of -->
<g id="edge22" class="edge">
<title>CoreAddresses::assert_diem_root&#45;&gt;Signer::address_of</title>
<path fill="none" stroke="black" d="M911.3,-177.49C931.96,-172.33 955.2,-165.02 975,-155 988.13,-148.36 1001.15,-138.65 1011.77,-129.7"/>
<polygon fill="black" stroke="black" points="1014.15,-132.27 1019.39,-123.07 1009.55,-127 1014.15,-132.27"/>
</g>
<!-- CoreAddresses::assert_diem_root&#45;&gt;CoreAddresses::DIEM_ROOT_ADDRESS -->
<g id="edge24" class="edge">
<title>CoreAddresses::assert_diem_root&#45;&gt;CoreAddresses::DIEM_ROOT_ADDRESS</title>
<path fill="none" stroke="black" d="M856,-170.82C856,-160.19 856,-146.31 856,-134.2"/>
<polygon fill="black" stroke="black" points="859.5,-134.15 856,-124.15 852.5,-134.15 859.5,-134.15"/>
</g>
<!-- Errors::requires_address -->
<g id="node16" class="node">
<title>Errors::requires_address</title>
<ellipse fill="none" stroke="black" cx="655" cy="-106" rx="69.59" ry="18"/>
<text text-anchor="middle" x="655" y="-102.3" font-family="Times,serif" font-size="14.00">requires_address</text>
</g>
<!-- CoreAddresses::assert_diem_root&#45;&gt;Errors::requires_address -->
<g id="edge23" class="edge">
<title>CoreAddresses::assert_diem_root&#45;&gt;Errors::requires_address</title>
<path fill="none" stroke="black" d="M803.76,-176.63C782.61,-171.23 758.23,-163.98 737,-155 719.89,-147.76 701.96,-137.6 687.25,-128.49"/>
<polygon fill="black" stroke="black" points="688.86,-125.37 678.54,-122.99 685.13,-131.29 688.86,-125.37"/>
</g>
<!-- Errors::requires_address&#45;&gt;Errors::make -->
<g id="edge25" class="edge">
<title>Errors::requires_address&#45;&gt;Errors::make</title>
<path fill="none" stroke="black" d="M614.32,-91.22C602.36,-87.37 589.21,-83.33 577,-80 521.67,-64.91 456.73,-50.91 416.47,-42.65"/>
<polygon fill="black" stroke="black" points="417.03,-39.2 406.53,-40.63 415.64,-46.06 417.03,-39.2"/>
</g>
</g>
</svg>
