<?xml version="1.0" encoding="UTF-8" standalone="no"?>
<!DOCTYPE svg PUBLIC "-//W3C//DTD SVG 1.1//EN"
 "http://www.w3.org/Graphics/SVG/1.1/DTD/svg11.dtd">
<!-- Generated by graphviz version 2.46.1 (20210213.1702)
 -->
<!-- Title: G Pages: 1 -->
<svg width="1395pt" height="373pt"
 viewBox="0.00 0.00 1395.00 373.00" xmlns="http://www.w3.org/2000/svg" xmlns:xlink="http://www.w3.org/1999/xlink">
<g id="graph0" class="graph" transform="scale(1 1) rotate(0) translate(4 369)">
<title>G</title>
<polygon fill="white" stroke="transparent" points="-4,4 -4,-369 1391,-369 1391,4 -4,4"/>
<g id="clust1" class="cluster">
<title>cluster_Signer</title>
<polygon fill="none" stroke="black" points="741,-8 741,-155 891,-155 891,-8 741,-8"/>
<text text-anchor="middle" x="816" y="-139.8" font-family="Times,serif" font-size="14.00">Signer</text>
</g>
<g id="clust2" class="cluster">
<title>cluster_Errors</title>
<polygon fill="none" stroke="black" points="8,-8 8,-155 733,-155 733,-8 8,-8"/>
<text text-anchor="middle" x="370.5" y="-139.8" font-family="Times,serif" font-size="14.00">Errors</text>
</g>
<g id="clust3" class="cluster">
<title>cluster_DiemTimestamp</title>
<polygon fill="none" stroke="black" points="1137,-163 1137,-321 1289,-321 1289,-163 1137,-163"/>
<text text-anchor="middle" x="1213" y="-305.8" font-family="Times,serif" font-size="14.00">DiemTimestamp</text>
</g>
<g id="clust4" class="cluster">
<title>cluster_Roles</title>
<polygon fill="none" stroke="black" points="478,-246 478,-321 787,-321 787,-246 478,-246"/>
<text text-anchor="middle" x="632.5" y="-305.8" font-family="Times,serif" font-size="14.00">Roles</text>
</g>
<g id="clust5" class="cluster">
<title>cluster_Option</title>
<polygon fill="none" stroke="black" points="1299,-246 1299,-321 1371,-321 1371,-246 1299,-246"/>
<text text-anchor="middle" x="1335" y="-305.8" font-family="Times,serif" font-size="14.00">Option</text>
</g>
<g id="clust6" class="cluster">
<title>cluster_CoreAddresses</title>
<polygon fill="none" stroke="black" points="899,-80 899,-238 1129,-238 1129,-80 899,-80"/>
<text text-anchor="middle" x="1014" y="-222.8" font-family="Times,serif" font-size="14.00">CoreAddresses</text>
</g>
<g id="clust7" class="cluster">
<title>cluster_Vector</title>
<polygon fill="none" stroke="black" points="1297,-163 1297,-238 1379,-238 1379,-163 1297,-163"/>
<text text-anchor="middle" x="1338" y="-222.8" font-family="Times,serif" font-size="14.00">Vector</text>
</g>
<!-- publish -->
<g id="node1" class="node">
<title>publish</title>
<ellipse fill="none" stroke="black" cx="757" cy="-347" rx="36.29" ry="18"/>
<text text-anchor="middle" x="757" y="-343.3" font-family="Times,serif" font-size="14.00">publish</text>
</g>
<!-- Signer::address_of -->
<g id="node2" class="node">
<title>Signer::address_of</title>
<ellipse fill="none" stroke="black" cx="807" cy="-106" rx="48.99" ry="18"/>
<text text-anchor="middle" x="807" y="-102.3" font-family="Times,serif" font-size="14.00">address_of</text>
</g>
<!-- publish&#45;&gt;Signer::address_of -->
<g id="edge1" class="edge">
<title>publish&#45;&gt;Signer::address_of</title>
<path fill="none" stroke="black" d="M780.48,-332.97C784.64,-329.61 788.44,-325.61 791,-321 824.19,-261.06 817.95,-176.79 811.8,-134.09"/>
<polygon fill="black" stroke="black" points="815.26,-133.52 810.27,-124.17 808.34,-134.59 815.26,-133.52"/>
</g>
<!-- Errors::already_published -->
<g id="node3" class="node">
<title>Errors::already_published</title>
<ellipse fill="none" stroke="black" cx="91" cy="-106" rx="75.29" ry="18"/>
<text text-anchor="middle" x="91" y="-102.3" font-family="Times,serif" font-size="14.00">already_published</text>
</g>
<!-- publish&#45;&gt;Errors::already_published -->
<g id="edge2" class="edge">
<title>publish&#45;&gt;Errors::already_published</title>
<path fill="none" stroke="black" d="M720.78,-344.59C655.18,-341.73 519.29,-334.38 474,-321 330.63,-278.65 181.97,-175.45 120.41,-129.6"/>
<polygon fill="black" stroke="black" points="122.41,-126.72 112.31,-123.52 118.21,-132.32 122.41,-126.72"/>
</g>
<!-- DiemTimestamp::assert_operating -->
<g id="node4" class="node">
<title>DiemTimestamp::assert_operating</title>
<ellipse fill="none" stroke="black" cx="1213" cy="-272" rx="68.49" ry="18"/>
<text text-anchor="middle" x="1213" y="-268.3" font-family="Times,serif" font-size="14.00">assert_operating</text>
</g>
<!-- publish&#45;&gt;DiemTimestamp::assert_operating -->
<g id="edge3" class="edge">
<title>publish&#45;&gt;DiemTimestamp::assert_operating</title>
<path fill="none" stroke="black" d="M791.27,-340.51C866.59,-328.46 1047.65,-299.47 1146.26,-283.68"/>
<polygon fill="black" stroke="black" points="1147.09,-287.1 1156.41,-282.06 1145.98,-280.18 1147.09,-287.1"/>
</g>
<!-- Roles::assert_diem_root -->
<g id="node5" class="node">
<title>Roles::assert_diem_root</title>
<ellipse fill="none" stroke="black" cx="708" cy="-272" rx="71.49" ry="18"/>
<text text-anchor="middle" x="708" y="-268.3" font-family="Times,serif" font-size="14.00">assert_diem_root</text>
</g>
<!-- publish&#45;&gt;Roles::assert_diem_root -->
<g id="edge4" class="edge">
<title>publish&#45;&gt;Roles::assert_diem_root</title>
<path fill="none" stroke="black" d="M746.13,-329.8C739.91,-320.54 731.99,-308.74 724.97,-298.29"/>
<polygon fill="black" stroke="black" points="727.83,-296.27 719.36,-289.92 722.02,-300.17 727.83,-296.27"/>
</g>
<!-- Roles::assert_validator -->
<g id="node6" class="node">
<title>Roles::assert_validator</title>
<ellipse fill="none" stroke="black" cx="552" cy="-272" rx="66.09" ry="18"/>
<text text-anchor="middle" x="552" y="-268.3" font-family="Times,serif" font-size="14.00">assert_validator</text>
</g>
<!-- publish&#45;&gt;Roles::assert_validator -->
<g id="edge5" class="edge">
<title>publish&#45;&gt;Roles::assert_validator</title>
<path fill="none" stroke="black" d="M721.51,-342.71C695.02,-339.41 658.33,-333.02 628,-321 611.58,-314.49 594.82,-304.35 581.23,-295.07"/>
<polygon fill="black" stroke="black" points="582.99,-292.02 572.8,-289.14 578.96,-297.75 582.99,-292.02"/>
</g>
<!-- Option::none -->
<g id="node7" class="node">
<title>Option::none</title>
<ellipse fill="none" stroke="black" cx="1335" cy="-272" rx="27.9" ry="18"/>
<text text-anchor="middle" x="1335" y="-268.3" font-family="Times,serif" font-size="14.00">none</text>
</g>
<!-- publish&#45;&gt;Option::none -->
<g id="edge6" class="edge">
<title>publish&#45;&gt;Option::none</title>
<path fill="none" stroke="black" d="M793.51,-345.94C906.93,-345.54 1248.32,-342.55 1293,-321 1303.84,-315.77 1313.05,-306.33 1320.06,-297.19"/>
<polygon fill="black" stroke="black" points="1322.93,-299.2 1325.86,-289.02 1317.22,-295.15 1322.93,-299.2"/>
</g>
<!-- Signer::borrow_address -->
<g id="node8" class="node">
<title>Signer::borrow_address</title>
<ellipse fill="none" stroke="black" cx="816" cy="-34" rx="66.89" ry="18"/>
<text text-anchor="middle" x="816" y="-30.3" font-family="Times,serif" font-size="14.00">borrow_address</text>
</g>
<!-- Signer::address_of&#45;&gt;Signer::borrow_address -->
<g id="edge7" class="edge">
<title>Signer::address_of&#45;&gt;Signer::borrow_address</title>
<path fill="none" stroke="black" d="M809.22,-87.7C810.22,-79.98 811.41,-70.71 812.51,-62.11"/>
<polygon fill="black" stroke="black" points="816,-62.47 813.8,-52.1 809.05,-61.58 816,-62.47"/>
</g>
<!-- Errors::make -->
<g id="node9" class="node">
<title>Errors::make</title>
<ellipse fill="none" stroke="black" cx="378" cy="-34" rx="30.59" ry="18"/>
<text text-anchor="middle" x="378" y="-30.3" font-family="Times,serif" font-size="14.00">make</text>
</g>
<!-- Errors::already_published&#45;&gt;Errors::make -->
<g id="edge8" class="edge">
<title>Errors::already_published&#45;&gt;Errors::make</title>
<path fill="none" stroke="black" d="M135.4,-91.33C148.43,-87.49 162.74,-83.42 176,-80 232.49,-65.42 298.58,-51.23 339.37,-42.8"/>
<polygon fill="black" stroke="black" points="340.33,-46.18 349.42,-40.74 338.92,-39.32 340.33,-46.18"/>
</g>
<!-- Errors::invalid_state -->
<g id="node10" class="node">
<title>Errors::invalid_state</title>
<ellipse fill="none" stroke="black" cx="512" cy="-106" rx="55.79" ry="18"/>
<text text-anchor="middle" x="512" y="-102.3" font-family="Times,serif" font-size="14.00">invalid_state</text>
</g>
<!-- DiemTimestamp::assert_operating&#45;&gt;Errors::invalid_state -->
<g id="edge9" class="edge">
<title>DiemTimestamp::assert_operating&#45;&gt;Errors::invalid_state</title>
<path fill="none" stroke="black" d="M1145.46,-269.04C1080.51,-265.98 979.93,-258.13 895,-238 803.44,-216.3 788.95,-182.99 697,-163 644.33,-151.55 626.54,-173.72 576,-155 561.33,-149.56 547.17,-139.62 535.93,-130.18"/>
<polygon fill="black" stroke="black" points="538.11,-127.44 528.28,-123.47 533.49,-132.7 538.11,-127.44"/>
</g>
<!-- DiemTimestamp::is_operating -->
<g id="node11" class="node">
<title>DiemTimestamp::is_operating</title>
<ellipse fill="none" stroke="black" cx="1206" cy="-189" rx="53.89" ry="18"/>
<text text-anchor="middle" x="1206" y="-185.3" font-family="Times,serif" font-size="14.00">is_operating</text>
</g>
<!-- DiemTimestamp::assert_operating&#45;&gt;DiemTimestamp::is_operating -->
<g id="edge10" class="edge">
<title>DiemTimestamp::assert_operating&#45;&gt;DiemTimestamp::is_operating</title>
<path fill="none" stroke="black" d="M1211.52,-253.82C1210.6,-243.19 1209.4,-229.31 1208.35,-217.2"/>
<polygon fill="black" stroke="black" points="1211.83,-216.81 1207.48,-207.15 1204.86,-217.42 1211.83,-216.81"/>
</g>
<!-- Roles::assert_diem_root&#45;&gt;Signer::address_of -->
<g id="edge11" class="edge">
<title>Roles::assert_diem_root&#45;&gt;Signer::address_of</title>
<path fill="none" stroke="black" d="M718.22,-254.07C735.56,-225.34 770.85,-166.88 791.33,-132.96"/>
<polygon fill="black" stroke="black" points="794.51,-134.46 796.69,-124.09 788.52,-130.84 794.51,-134.46"/>
</g>
<!-- Errors::not_published -->
<g id="node12" class="node">
<title>Errors::not_published</title>
<ellipse fill="none" stroke="black" cx="378" cy="-106" rx="60.39" ry="18"/>
<text text-anchor="middle" x="378" y="-102.3" font-family="Times,serif" font-size="14.00">not_published</text>
</g>
<!-- Roles::assert_diem_root&#45;&gt;Errors::not_published -->
<g id="edge12" class="edge">
<title>Roles::assert_diem_root&#45;&gt;Errors::not_published</title>
<path fill="none" stroke="black" d="M706.56,-253.62C703.48,-228.8 693.86,-183.89 664,-163 644.23,-149.17 469.88,-162.64 447,-155 431.14,-149.7 415.66,-139.54 403.39,-129.92"/>
<polygon fill="black" stroke="black" points="405.4,-127.04 395.45,-123.41 400.97,-132.45 405.4,-127.04"/>
</g>
<!-- Errors::requires_role -->
<g id="node13" class="node">
<title>Errors::requires_role</title>
<ellipse fill="none" stroke="black" cx="242" cy="-106" rx="57.39" ry="18"/>
<text text-anchor="middle" x="242" y="-102.3" font-family="Times,serif" font-size="14.00">requires_role</text>
</g>
<!-- Roles::assert_diem_root&#45;&gt;Errors::requires_role -->
<g id="edge13" class="edge">
<title>Roles::assert_diem_root&#45;&gt;Errors::requires_role</title>
<path fill="none" stroke="black" d="M673.22,-256.1C615.82,-232.21 497.12,-185.7 392,-163 355.78,-155.18 343.7,-168.02 309,-155 293.76,-149.28 278.84,-139.17 266.95,-129.7"/>
<polygon fill="black" stroke="black" points="269.18,-126.99 259.25,-123.3 264.71,-132.38 269.18,-126.99"/>
</g>
<!-- CoreAddresses::assert_diem_root -->
<g id="node14" class="node">
<title>CoreAddresses::assert_diem_root</title>
<ellipse fill="none" stroke="black" cx="978" cy="-189" rx="71.49" ry="18"/>
<text text-anchor="middle" x="978" y="-185.3" font-family="Times,serif" font-size="14.00">assert_diem_root</text>
</g>
<!-- Roles::assert_diem_root&#45;&gt;CoreAddresses::assert_diem_root -->
<g id="edge14" class="edge">
<title>Roles::assert_diem_root&#45;&gt;CoreAddresses::assert_diem_root</title>
<path fill="none" stroke="black" d="M751.98,-257.81C798.91,-243.73 873.31,-221.41 923.82,-206.25"/>
<polygon fill="black" stroke="black" points="925.02,-209.55 933.59,-203.32 923,-202.84 925.02,-209.55"/>
</g>
<!-- Roles::assert_validator&#45;&gt;Signer::address_of -->
<g id="edge15" class="edge">
<title>Roles::assert_validator&#45;&gt;Signer::address_of</title>
<path fill="none" stroke="black" d="M577.65,-255.38C613.56,-233.4 680.74,-191.91 737,-155 750.19,-146.35 764.58,-136.54 776.87,-128.06"/>
<polygon fill="black" stroke="black" points="779.17,-130.72 785.4,-122.15 775.19,-124.97 779.17,-130.72"/>
</g>
<!-- Roles::assert_validator&#45;&gt;Errors::not_published -->
<g id="edge16" class="edge">
<title>Roles::assert_validator&#45;&gt;Errors::not_published</title>
<path fill="none" stroke="black" d="M534.36,-254.37C503.27,-225.07 438.67,-164.18 403,-130.56"/>
<polygon fill="black" stroke="black" points="405.11,-127.74 395.43,-123.43 400.31,-132.83 405.11,-127.74"/>
</g>
<!-- Roles::assert_validator&#45;&gt;Errors::requires_role -->
<g id="edge17" class="edge">
<title>Roles::assert_validator&#45;&gt;Errors::requires_role</title>
<path fill="none" stroke="black" d="M501.27,-260.31C480.24,-254.96 455.92,-247.56 435,-238 374.01,-210.12 364.27,-192.98 309,-155 296.78,-146.6 283.48,-137.14 271.98,-128.85"/>
<polygon fill="black" stroke="black" points="273.73,-125.8 263.57,-122.78 269.63,-131.48 273.73,-125.8"/>
</g>
<!-- Vector::empty -->
<g id="node15" class="node">
<title>Vector::empty</title>
<ellipse fill="none" stroke="black" cx="1338" cy="-189" rx="33.29" ry="18"/>
<text text-anchor="middle" x="1338" y="-185.3" font-family="Times,serif" font-size="14.00">empty</text>
</g>
<!-- Option::none&#45;&gt;Vector::empty -->
<g id="edge18" class="edge">
<title>Option::none&#45;&gt;Vector::empty</title>
<path fill="none" stroke="black" d="M1335.64,-253.82C1336.03,-243.19 1336.54,-229.31 1336.99,-217.2"/>
<polygon fill="black" stroke="black" points="1340.49,-217.28 1337.36,-207.15 1333.5,-217.02 1340.49,-217.28"/>
</g>
<!-- Errors::invalid_state&#45;&gt;Errors::make -->
<g id="edge19" class="edge">
<title>Errors::invalid_state&#45;&gt;Errors::make</title>
<path fill="none" stroke="black" d="M483.91,-90.33C462.15,-78.96 432.02,-63.22 409.45,-51.43"/>
<polygon fill="black" stroke="black" points="410.78,-48.17 400.29,-46.65 407.54,-54.38 410.78,-48.17"/>
</g>
<!-- CoreAddresses::DIEM_ROOT_ADDRESS -->
<g id="node16" class="node">
<title>CoreAddresses::DIEM_ROOT_ADDRESS</title>
<ellipse fill="none" stroke="black" cx="1014" cy="-106" rx="106.68" ry="18"/>
<text text-anchor="middle" x="1014" y="-102.3" font-family="Times,serif" font-size="14.00">DIEM_ROOT_ADDRESS</text>
</g>
<!-- DiemTimestamp::is_operating&#45;&gt;CoreAddresses::DIEM_ROOT_ADDRESS -->
<g id="edge20" class="edge">
<title>DiemTimestamp::is_operating&#45;&gt;CoreAddresses::DIEM_ROOT_ADDRESS</title>
<path fill="none" stroke="black" d="M1173.86,-174.44C1143.13,-161.48 1096.4,-141.76 1061.39,-126.99"/>
<polygon fill="black" stroke="black" points="1062.43,-123.63 1051.85,-122.97 1059.71,-130.08 1062.43,-123.63"/>
</g>
<!-- Errors::not_published&#45;&gt;Errors::make -->
<g id="edge21" class="edge">
<title>Errors::not_published&#45;&gt;Errors::make</title>
<path fill="none" stroke="black" d="M378,-87.7C378,-79.98 378,-70.71 378,-62.11"/>
<polygon fill="black" stroke="black" points="381.5,-62.1 378,-52.1 374.5,-62.1 381.5,-62.1"/>
</g>
<!-- Errors::requires_role&#45;&gt;Errors::make -->
<g id="edge22" class="edge">
<title>Errors::requires_role&#45;&gt;Errors::make</title>
<path fill="none" stroke="black" d="M270.51,-90.33C292.83,-78.84 323.83,-62.88 346.81,-51.06"/>
<polygon fill="black" stroke="black" points="348.51,-54.11 355.8,-46.43 345.31,-47.89 348.51,-54.11"/>
</g>
<!-- CoreAddresses::assert_diem_root&#45;&gt;Signer::address_of -->
<g id="edge23" class="edge">
<title>CoreAddresses::assert_diem_root&#45;&gt;Signer::address_of</title>
<path fill="none" stroke="black" d="M939.16,-173.68C925.09,-168.2 909.18,-161.66 895,-155 876.83,-146.47 857.16,-135.88 841.04,-126.82"/>
<polygon fill="black" stroke="black" points="842.42,-123.58 832,-121.69 838.97,-129.67 842.42,-123.58"/>
</g>
<!-- CoreAddresses::assert_diem_root&#45;&gt;CoreAddresses::DIEM_ROOT_ADDRESS -->
<g id="edge25" class="edge">
<title>CoreAddresses::assert_diem_root&#45;&gt;CoreAddresses::DIEM_ROOT_ADDRESS</title>
<path fill="none" stroke="black" d="M985.63,-170.82C990.46,-159.98 996.78,-145.74 1002.23,-133.47"/>
<polygon fill="black" stroke="black" points="1005.51,-134.71 1006.38,-124.15 999.12,-131.87 1005.51,-134.71"/>
</g>
<!-- Errors::requires_address -->
<g id="node17" class="node">
<title>Errors::requires_address</title>
<ellipse fill="none" stroke="black" cx="655" cy="-106" rx="69.59" ry="18"/>
<text text-anchor="middle" x="655" y="-102.3" font-family="Times,serif" font-size="14.00">requires_address</text>
</g>
<!-- CoreAddresses::assert_diem_root&#45;&gt;Errors::requires_address -->
<g id="edge24" class="edge">
<title>CoreAddresses::assert_diem_root&#45;&gt;Errors::requires_address</title>
<path fill="none" stroke="black" d="M932.66,-175C915.1,-170.47 894.75,-165.81 876,-163 845.4,-158.41 766.62,-163.95 737,-155 718.39,-149.37 699.53,-138.75 684.6,-128.93"/>
<polygon fill="black" stroke="black" points="686.53,-126.01 676.3,-123.28 682.6,-131.8 686.53,-126.01"/>
</g>
<!-- Errors::requires_address&#45;&gt;Errors::make -->
<g id="edge26" class="edge">
<title>Errors::requires_address&#45;&gt;Errors::make</title>
<path fill="none" stroke="black" d="M614.32,-91.22C602.36,-87.37 589.21,-83.33 577,-80 521.67,-64.91 456.73,-50.91 416.47,-42.65"/>
<polygon fill="black" stroke="black" points="417.03,-39.2 406.53,-40.63 415.64,-46.06 417.03,-39.2"/>
</g>
</g>
</svg>
