<?xml version="1.0" encoding="UTF-8" standalone="no"?>
<!DOCTYPE svg PUBLIC "-//W3C//DTD SVG 1.1//EN"
 "http://www.w3.org/Graphics/SVG/1.1/DTD/svg11.dtd">
<!-- Generated by graphviz version 2.46.1 (20210213.1702)
 -->
<!-- Title: G Pages: 1 -->
<svg width="975pt" height="548pt"
 viewBox="0.00 0.00 975.00 548.00" xmlns="http://www.w3.org/2000/svg" xmlns:xlink="http://www.w3.org/1999/xlink">
<g id="graph0" class="graph" transform="scale(1 1) rotate(0) translate(4 544)">
<title>G</title>
<polygon fill="white" stroke="transparent" points="-4,4 -4,-544 971,-544 971,4 -4,4"/>
<!-- ValidatorAdministrationScripts -->
<g id="node1" class="node">
<title>ValidatorAdministrationScripts</title>
<ellipse fill="none" stroke="black" cx="473" cy="-522" rx="120.78" ry="18"/>
<text text-anchor="middle" x="473" y="-518.3" font-family="Times,serif" font-size="14.00">ValidatorAdministrationScripts</text>
</g>
<!-- SlidingNonce -->
<g id="node2" class="node">
<title>SlidingNonce</title>
<ellipse fill="none" stroke="black" cx="128" cy="-90" rx="59.29" ry="18"/>
<text text-anchor="middle" x="128" y="-86.3" font-family="Times,serif" font-size="14.00">SlidingNonce</text>
</g>
<!-- ValidatorAdministrationScripts&#45;&gt;SlidingNonce -->
<g id="edge1" class="edge">
<title>ValidatorAdministrationScripts&#45;&gt;SlidingNonce</title>
<path fill="none" stroke="black" d="M374.42,-511.49C235.8,-495.34 0,-456.49 0,-379 0,-379 0,-379 0,-305 0,-226.19 64.73,-151.24 102.13,-114.52"/>
<polygon fill="black" stroke="black" points="104.88,-116.74 109.66,-107.28 100.03,-111.69 104.88,-116.74"/>
</g>
<!-- ValidatorOperatorConfig -->
<g id="node3" class="node">
<title>ValidatorOperatorConfig</title>
<ellipse fill="none" stroke="black" cx="803" cy="-306" rx="98.28" ry="18"/>
<text text-anchor="middle" x="803" y="-302.3" font-family="Times,serif" font-size="14.00">ValidatorOperatorConfig</text>
</g>
<!-- ValidatorAdministrationScripts&#45;&gt;ValidatorOperatorConfig -->
<g id="edge2" class="edge">
<title>ValidatorAdministrationScripts&#45;&gt;ValidatorOperatorConfig</title>
<path fill="none" stroke="black" d="M498.62,-504.39C557.61,-466.13 703.01,-371.84 769.2,-328.92"/>
<polygon fill="black" stroke="black" points="771.14,-331.83 777.62,-323.46 767.33,-325.96 771.14,-331.83"/>
</g>
<!-- ValidatorConfig -->
<g id="node4" class="node">
<title>ValidatorConfig</title>
<ellipse fill="none" stroke="black" cx="540" cy="-378" rx="66.89" ry="18"/>
<text text-anchor="middle" x="540" y="-374.3" font-family="Times,serif" font-size="14.00">ValidatorConfig</text>
</g>
<!-- ValidatorAdministrationScripts&#45;&gt;ValidatorConfig -->
<g id="edge3" class="edge">
<title>ValidatorAdministrationScripts&#45;&gt;ValidatorConfig</title>
<path fill="none" stroke="black" d="M481.08,-503.87C492.65,-479.35 514.03,-434.03 527.61,-405.26"/>
<polygon fill="black" stroke="black" points="530.79,-406.73 531.89,-396.19 524.46,-403.74 530.79,-406.73"/>
</g>
<!-- DiemSystem -->
<g id="node5" class="node">
<title>DiemSystem</title>
<ellipse fill="none" stroke="black" cx="388" cy="-450" rx="57.39" ry="18"/>
<text text-anchor="middle" x="388" y="-446.3" font-family="Times,serif" font-size="14.00">DiemSystem</text>
</g>
<!-- ValidatorAdministrationScripts&#45;&gt;DiemSystem -->
<g id="edge4" class="edge">
<title>ValidatorAdministrationScripts&#45;&gt;DiemSystem</title>
<path fill="none" stroke="black" d="M452.42,-504.05C441.33,-494.92 427.48,-483.51 415.47,-473.63"/>
<polygon fill="black" stroke="black" points="417.46,-470.72 407.51,-467.07 413.01,-476.13 417.46,-470.72"/>
</g>
<!-- Signer -->
<g id="node6" class="node">
<title>Signer</title>
<ellipse fill="none" stroke="black" cx="234" cy="-18" rx="33.6" ry="18"/>
<text text-anchor="middle" x="234" y="-14.3" font-family="Times,serif" font-size="14.00">Signer</text>
</g>
<!-- SlidingNonce&#45;&gt;Signer -->
<g id="edge5" class="edge">
<title>SlidingNonce&#45;&gt;Signer</title>
<path fill="none" stroke="black" d="M151.52,-73.46C167.31,-63.04 188.22,-49.23 205.03,-38.13"/>
<polygon fill="black" stroke="black" points="206.99,-41.03 213.4,-32.6 203.13,-35.19 206.99,-41.03"/>
</g>
<!-- Errors -->
<g id="node7" class="node">
<title>Errors</title>
<ellipse fill="none" stroke="black" cx="680" cy="-18" rx="32.49" ry="18"/>
<text text-anchor="middle" x="680" y="-14.3" font-family="Times,serif" font-size="14.00">Errors</text>
</g>
<!-- SlidingNonce&#45;&gt;Errors -->
<g id="edge6" class="edge">
<title>SlidingNonce&#45;&gt;Errors</title>
<path fill="none" stroke="black" d="M181.43,-82.22C291.07,-68.32 539.48,-36.82 638.31,-24.29"/>
<polygon fill="black" stroke="black" points="639.02,-27.72 648.5,-22.99 638.14,-20.78 639.02,-27.72"/>
</g>
<!-- ValidatorOperatorConfig&#45;&gt;Signer -->
<g id="edge7" class="edge">
<title>ValidatorOperatorConfig&#45;&gt;Signer</title>
<path fill="none" stroke="black" d="M799.71,-287.6C792.74,-255.24 773.6,-185.35 732,-144 674.96,-87.31 643.2,-94.52 566,-72 465.15,-42.59 342,-28.34 277.76,-22.46"/>
<polygon fill="black" stroke="black" points="277.86,-18.96 267.59,-21.56 277.24,-25.93 277.86,-18.96"/>
</g>
<!-- ValidatorOperatorConfig&#45;&gt;Errors -->
<g id="edge8" class="edge">
<title>ValidatorOperatorConfig&#45;&gt;Errors</title>
<path fill="none" stroke="black" d="M808.87,-287.95C821.89,-246.78 848.61,-140.28 803,-72 784.83,-44.79 749.47,-31.48 721.31,-25.01"/>
<polygon fill="black" stroke="black" points="721.81,-21.54 711.3,-22.92 720.38,-28.39 721.81,-21.54"/>
</g>
<!-- DiemTimestamp -->
<g id="node8" class="node">
<title>DiemTimestamp</title>
<ellipse fill="none" stroke="black" cx="652" cy="-162" rx="71.49" ry="18"/>
<text text-anchor="middle" x="652" y="-158.3" font-family="Times,serif" font-size="14.00">DiemTimestamp</text>
</g>
<!-- ValidatorOperatorConfig&#45;&gt;DiemTimestamp -->
<g id="edge9" class="edge">
<title>ValidatorOperatorConfig&#45;&gt;DiemTimestamp</title>
<path fill="none" stroke="black" d="M785.09,-288.15C758.29,-262.96 707.69,-215.37 677.19,-186.68"/>
<polygon fill="black" stroke="black" points="679.57,-184.13 669.89,-179.82 674.78,-189.23 679.57,-184.13"/>
</g>
<!-- Roles -->
<g id="node9" class="node">
<title>Roles</title>
<ellipse fill="none" stroke="black" cx="536" cy="-234" rx="30.59" ry="18"/>
<text text-anchor="middle" x="536" y="-230.3" font-family="Times,serif" font-size="14.00">Roles</text>
</g>
<!-- ValidatorOperatorConfig&#45;&gt;Roles -->
<g id="edge10" class="edge">
<title>ValidatorOperatorConfig&#45;&gt;Roles</title>
<path fill="none" stroke="black" d="M749.29,-290.92C697.05,-277.22 619.06,-256.78 573.28,-244.77"/>
<polygon fill="black" stroke="black" points="574.03,-241.35 563.47,-242.2 572.26,-248.12 574.03,-241.35"/>
</g>
<!-- ValidatorConfig&#45;&gt;ValidatorOperatorConfig -->
<g id="edge16" class="edge">
<title>ValidatorConfig&#45;&gt;ValidatorOperatorConfig</title>
<path fill="none" stroke="black" d="M585.81,-364.81C628.4,-353.47 692.24,-336.48 739.7,-323.85"/>
<polygon fill="black" stroke="black" points="740.8,-327.18 749.56,-321.22 739,-320.41 740.8,-327.18"/>
</g>
<!-- ValidatorConfig&#45;&gt;Signer -->
<g id="edge11" class="edge">
<title>ValidatorConfig&#45;&gt;Signer</title>
<path fill="none" stroke="black" d="M476.96,-371.88C396.91,-364.47 264.12,-348.86 222,-324 188.71,-304.35 74.25,-151.72 60,-108 55.04,-92.79 50.48,-84.86 60,-72 89.72,-31.88 149.09,-21.1 190.16,-18.72"/>
<polygon fill="black" stroke="black" points="190.34,-22.22 200.18,-18.29 190.04,-15.23 190.34,-22.22"/>
</g>
<!-- ValidatorConfig&#45;&gt;Errors -->
<g id="edge12" class="edge">
<title>ValidatorConfig&#45;&gt;Errors</title>
<path fill="none" stroke="black" d="M606.79,-376.31C701.28,-373.9 867.26,-363.92 910,-324 939.56,-296.39 929,-275.45 929,-235 929,-235 929,-235 929,-161 929,-66.73 792.66,-34.22 721.75,-23.69"/>
<polygon fill="black" stroke="black" points="722.18,-20.21 711.79,-22.29 721.2,-27.15 722.18,-20.21"/>
</g>
<!-- ValidatorConfig&#45;&gt;DiemTimestamp -->
<g id="edge13" class="edge">
<title>ValidatorConfig&#45;&gt;DiemTimestamp</title>
<path fill="none" stroke="black" d="M593.04,-366.89C617.19,-359.36 643.54,-346.34 658,-324 684.3,-283.35 672.29,-224.07 661.76,-189.93"/>
<polygon fill="black" stroke="black" points="665.01,-188.61 658.58,-180.19 658.35,-190.79 665.01,-188.61"/>
</g>
<!-- ValidatorConfig&#45;&gt;Roles -->
<g id="edge15" class="edge">
<title>ValidatorConfig&#45;&gt;Roles</title>
<path fill="none" stroke="black" d="M539.52,-359.87C538.84,-335.67 537.58,-291.21 536.77,-262.39"/>
<polygon fill="black" stroke="black" points="540.26,-262.09 536.48,-252.19 533.27,-262.28 540.26,-262.09"/>
</g>
<!-- Signature -->
<g id="node10" class="node">
<title>Signature</title>
<ellipse fill="none" stroke="black" cx="605" cy="-306" rx="44.39" ry="18"/>
<text text-anchor="middle" x="605" y="-302.3" font-family="Times,serif" font-size="14.00">Signature</text>
</g>
<!-- ValidatorConfig&#45;&gt;Signature -->
<g id="edge14" class="edge">
<title>ValidatorConfig&#45;&gt;Signature</title>
<path fill="none" stroke="black" d="M555.4,-360.41C563.7,-351.48 574.07,-340.31 583.18,-330.5"/>
<polygon fill="black" stroke="black" points="585.91,-332.7 590.15,-322.99 580.78,-327.93 585.91,-332.7"/>
</g>
<!-- Option -->
<g id="node11" class="node">
<title>Option</title>
<ellipse fill="none" stroke="black" cx="470" cy="-306" rx="35.19" ry="18"/>
<text text-anchor="middle" x="470" y="-302.3" font-family="Times,serif" font-size="14.00">Option</text>
</g>
<!-- ValidatorConfig&#45;&gt;Option -->
<g id="edge17" class="edge">
<title>ValidatorConfig&#45;&gt;Option</title>
<path fill="none" stroke="black" d="M523.41,-360.41C514.26,-351.26 502.76,-339.76 492.78,-329.78"/>
<polygon fill="black" stroke="black" points="495.06,-327.11 485.51,-322.51 490.11,-332.06 495.06,-327.11"/>
</g>
<!-- DiemSystem&#45;&gt;ValidatorConfig -->
<g id="edge26" class="edge">
<title>DiemSystem&#45;&gt;ValidatorConfig</title>
<path fill="none" stroke="black" d="M419.13,-434.67C442.08,-424.1 473.53,-409.61 498.6,-398.06"/>
<polygon fill="black" stroke="black" points="500.25,-401.16 507.87,-393.8 497.32,-394.8 500.25,-401.16"/>
</g>
<!-- DiemSystem&#45;&gt;Signer -->
<g id="edge18" class="edge">
<title>DiemSystem&#45;&gt;Signer</title>
<path fill="none" stroke="black" d="M336.26,-442.28C297.05,-435.37 243.09,-421.81 202,-396 79.62,-319.12 75.04,-250.51 51,-108 48.34,-92.22 41.39,-84.79 51,-72 67.93,-49.47 143.38,-33.46 191.96,-25.26"/>
<polygon fill="black" stroke="black" points="192.59,-28.7 201.89,-23.63 191.46,-21.8 192.59,-28.7"/>
</g>
<!-- DiemSystem&#45;&gt;Errors -->
<g id="edge19" class="edge">
<title>DiemSystem&#45;&gt;Errors</title>
<path fill="none" stroke="black" d="M444.57,-447.11C590.26,-440.72 967,-413.86 967,-307 967,-307 967,-307 967,-161 967,-53.26 802.52,-27.27 722.6,-20.99"/>
<polygon fill="black" stroke="black" points="722.59,-17.49 712.36,-20.26 722.09,-24.47 722.59,-17.49"/>
</g>
<!-- DiemSystem&#45;&gt;DiemTimestamp -->
<g id="edge21" class="edge">
<title>DiemSystem&#45;&gt;DiemTimestamp</title>
<path fill="none" stroke="black" d="M389.72,-431.84C393.81,-394.54 405.35,-307.85 426,-288 486.39,-229.95 545.12,-303.73 611,-252 630.37,-236.79 640.94,-210.32 646.48,-190.19"/>
<polygon fill="black" stroke="black" points="649.91,-190.89 648.93,-180.34 643.12,-189.2 649.91,-190.89"/>
</g>
<!-- DiemSystem&#45;&gt;Roles -->
<g id="edge22" class="edge">
<title>DiemSystem&#45;&gt;Roles</title>
<path fill="none" stroke="black" d="M382.89,-432.01C374.48,-400.34 361.59,-331.55 393,-288 420.15,-250.37 447.52,-268.2 491,-252 494.31,-250.77 497.75,-249.48 501.2,-248.18"/>
<polygon fill="black" stroke="black" points="502.66,-251.37 510.79,-244.57 500.2,-244.82 502.66,-251.37"/>
</g>
<!-- DiemSystem&#45;&gt;Option -->
<g id="edge25" class="edge">
<title>DiemSystem&#45;&gt;Option</title>
<path fill="none" stroke="black" d="M398.94,-431.96C405.48,-421.63 413.88,-408.16 421,-396 433.34,-374.94 446.66,-350.65 456.29,-332.76"/>
<polygon fill="black" stroke="black" points="459.59,-334.02 461.23,-323.55 453.42,-330.71 459.59,-334.02"/>
</g>
<!-- CoreAddresses -->
<g id="node12" class="node">
<title>CoreAddresses</title>
<ellipse fill="none" stroke="black" cx="493" cy="-90" rx="63.89" ry="18"/>
<text text-anchor="middle" x="493" y="-86.3" font-family="Times,serif" font-size="14.00">CoreAddresses</text>
</g>
<!-- DiemSystem&#45;&gt;CoreAddresses -->
<g id="edge20" class="edge">
<title>DiemSystem&#45;&gt;CoreAddresses</title>
<path fill="none" stroke="black" d="M341.66,-439.41C312.4,-431.55 275.13,-418.04 248,-396 154.46,-320.04 69.53,-235.44 148,-144 182.2,-104.15 328.23,-93.96 418.99,-91.54"/>
<polygon fill="black" stroke="black" points="419.31,-95.04 429.23,-91.3 419.14,-88.04 419.31,-95.04"/>
</g>
<!-- Vector -->
<g id="node13" class="node">
<title>Vector</title>
<ellipse fill="none" stroke="black" cx="191" cy="-162" rx="33.6" ry="18"/>
<text text-anchor="middle" x="191" y="-158.3" font-family="Times,serif" font-size="14.00">Vector</text>
</g>
<!-- DiemSystem&#45;&gt;Vector -->
<g id="edge23" class="edge">
<title>DiemSystem&#45;&gt;Vector</title>
<path fill="none" stroke="black" d="M357.05,-434.63C318.86,-415.2 254.94,-376.8 222,-324 196.17,-282.6 191.03,-224.44 190.46,-190.54"/>
<polygon fill="black" stroke="black" points="193.96,-190.42 190.41,-180.44 186.96,-190.45 193.96,-190.42"/>
</g>
<!-- DiemConfig -->
<g id="node14" class="node">
<title>DiemConfig</title>
<ellipse fill="none" stroke="black" cx="286" cy="-306" rx="54.69" ry="18"/>
<text text-anchor="middle" x="286" y="-302.3" font-family="Times,serif" font-size="14.00">DiemConfig</text>
</g>
<!-- DiemSystem&#45;&gt;DiemConfig -->
<g id="edge24" class="edge">
<title>DiemSystem&#45;&gt;DiemConfig</title>
<path fill="none" stroke="black" d="M375.9,-432.15C358.11,-407.39 324.77,-360.97 304.07,-332.16"/>
<polygon fill="black" stroke="black" points="306.76,-329.9 298.09,-323.82 301.08,-333.99 306.76,-329.9"/>
</g>
<!-- DiemTimestamp&#45;&gt;Errors -->
<g id="edge27" class="edge">
<title>DiemTimestamp&#45;&gt;Errors</title>
<path fill="none" stroke="black" d="M661.28,-143.87C666.29,-133.74 672.04,-120.49 675,-108 679.79,-87.8 680.93,-64.33 680.94,-46.56"/>
<polygon fill="black" stroke="black" points="684.43,-46.28 680.81,-36.32 677.43,-46.36 684.43,-46.28"/>
</g>
<!-- DiemTimestamp&#45;&gt;CoreAddresses -->
<g id="edge28" class="edge">
<title>DiemTimestamp&#45;&gt;CoreAddresses</title>
<path fill="none" stroke="black" d="M617.89,-145.98C593.67,-135.32 561,-120.94 535.15,-109.56"/>
<polygon fill="black" stroke="black" points="536.53,-106.34 525.96,-105.51 533.71,-112.75 536.53,-106.34"/>
</g>
<!-- Roles&#45;&gt;Signer -->
<g id="edge29" class="edge">
<title>Roles&#45;&gt;Signer</title>
<path fill="none" stroke="black" d="M517.11,-219.61C465.66,-183.16 322.86,-81.97 262.03,-38.86"/>
<polygon fill="black" stroke="black" points="263.85,-35.86 253.67,-32.94 259.8,-41.57 263.85,-35.86"/>
</g>
<!-- Roles&#45;&gt;Errors -->
<g id="edge30" class="edge">
<title>Roles&#45;&gt;Errors</title>
<path fill="none" stroke="black" d="M539.34,-215.77C543.85,-196.36 553.55,-164.84 572,-144 593.89,-119.27 614.31,-131.99 637,-108 653.79,-90.25 665.21,-64.7 672.03,-45.53"/>
<polygon fill="black" stroke="black" points="675.4,-46.49 675.27,-35.89 668.77,-44.26 675.4,-46.49"/>
</g>
<!-- Roles&#45;&gt;DiemTimestamp -->
<g id="edge32" class="edge">
<title>Roles&#45;&gt;DiemTimestamp</title>
<path fill="none" stroke="black" d="M556.74,-220.49C573.47,-210.39 597.36,-195.97 617.04,-184.1"/>
<polygon fill="black" stroke="black" points="618.99,-187.01 625.74,-178.85 615.37,-181.02 618.99,-187.01"/>
</g>
<!-- Roles&#45;&gt;CoreAddresses -->
<g id="edge31" class="edge">
<title>Roles&#45;&gt;CoreAddresses</title>
<path fill="none" stroke="black" d="M530.9,-216.15C523.57,-191.94 509.97,-147.05 501.22,-118.13"/>
<polygon fill="black" stroke="black" points="504.48,-116.82 498.23,-108.27 497.78,-118.85 504.48,-116.82"/>
</g>
<!-- Option&#45;&gt;Errors -->
<g id="edge33" class="edge">
<title>Option&#45;&gt;Errors</title>
<path fill="none" stroke="black" d="M502.89,-299.37C539.66,-292.13 600.19,-277.38 647,-252 690.52,-228.4 711.18,-224.92 732,-180 753.56,-133.47 721.53,-75.53 698.98,-43.38"/>
<polygon fill="black" stroke="black" points="701.62,-41.06 692.92,-35.02 695.96,-45.17 701.62,-41.06"/>
</g>
<!-- Option&#45;&gt;Vector -->
<g id="edge34" class="edge">
<title>Option&#45;&gt;Vector</title>
<path fill="none" stroke="black" d="M436.73,-300.24C382.3,-291.95 277.25,-273.66 247,-252 225.19,-236.39 209.96,-209.37 200.95,-189.19"/>
<polygon fill="black" stroke="black" points="204.15,-187.76 197.03,-179.91 197.7,-190.48 204.15,-187.76"/>
</g>
<!-- CoreAddresses&#45;&gt;Signer -->
<g id="edge35" class="edge">
<title>CoreAddresses&#45;&gt;Signer</title>
<path fill="none" stroke="black" d="M448.77,-77.05C399.51,-63.73 320.6,-42.41 273.39,-29.65"/>
<polygon fill="black" stroke="black" points="274.1,-26.21 263.53,-26.98 272.27,-32.97 274.1,-26.21"/>
</g>
<!-- CoreAddresses&#45;&gt;Errors -->
<g id="edge36" class="edge">
<title>CoreAddresses&#45;&gt;Errors</title>
<path fill="none" stroke="black" d="M529.95,-75.17C563.03,-62.78 611.25,-44.73 644.04,-32.46"/>
<polygon fill="black" stroke="black" points="645.54,-35.64 653.68,-28.85 643.09,-29.08 645.54,-35.64"/>
</g>
<!-- DiemConfig&#45;&gt;Signer -->
<g id="edge37" class="edge">
<title>DiemConfig&#45;&gt;Signer</title>
<path fill="none" stroke="black" d="M257.86,-290.42C223.59,-270.76 167.82,-232.12 148,-180 142.31,-165.04 140.84,-158.31 148,-144 159.93,-120.15 179.54,-128.98 196,-108 210.53,-89.49 220.53,-64.59 226.62,-45.84"/>
<polygon fill="black" stroke="black" points="230.01,-46.72 229.6,-36.13 223.32,-44.66 230.01,-46.72"/>
</g>
<!-- DiemConfig&#45;&gt;Errors -->
<g id="edge38" class="edge">
<title>DiemConfig&#45;&gt;Errors</title>
<path fill="none" stroke="black" d="M312.56,-290.2C330.5,-279.95 354.55,-265.74 375,-252 482.93,-179.49 603.54,-82.14 654.78,-39.95"/>
<polygon fill="black" stroke="black" points="657.2,-42.5 662.68,-33.43 652.74,-37.1 657.2,-42.5"/>
</g>
<!-- DiemConfig&#45;&gt;DiemTimestamp -->
<g id="edge40" class="edge">
<title>DiemConfig&#45;&gt;DiemTimestamp</title>
<path fill="none" stroke="black" d="M333.67,-297.14C413.26,-283.91 565.55,-258.02 576,-252 602.23,-236.9 623.67,-209.24 637.01,-188.75"/>
<polygon fill="black" stroke="black" points="640.03,-190.52 642.39,-180.19 634.1,-186.79 640.03,-190.52"/>
</g>
<!-- DiemConfig&#45;&gt;Roles -->
<g id="edge41" class="edge">
<title>DiemConfig&#45;&gt;Roles</title>
<path fill="none" stroke="black" d="M328.09,-294.38C383.43,-280.37 475.49,-256.92 491,-252 494.55,-250.87 498.23,-249.62 501.89,-248.33"/>
<polygon fill="black" stroke="black" points="503.23,-251.56 511.41,-244.84 500.82,-244.99 503.23,-251.56"/>
</g>
<!-- DiemConfig&#45;&gt;CoreAddresses -->
<g id="edge39" class="edge">
<title>DiemConfig&#45;&gt;CoreAddresses</title>
<path fill="none" stroke="black" d="M303.55,-288.85C328.79,-265.44 376.53,-220.45 415,-180 435.14,-158.83 456.97,-133.71 472.41,-115.57"/>
<polygon fill="black" stroke="black" points="475.23,-117.66 479.02,-107.76 469.88,-113.13 475.23,-117.66"/>
</g>
<!-- Event -->
<g id="node15" class="node">
<title>Event</title>
<ellipse fill="none" stroke="black" cx="287" cy="-234" rx="31.4" ry="18"/>
<text text-anchor="middle" x="287" y="-230.3" font-family="Times,serif" font-size="14.00">Event</text>
</g>
<!-- DiemConfig&#45;&gt;Event -->
<g id="edge42" class="edge">
<title>DiemConfig&#45;&gt;Event</title>
<path fill="none" stroke="black" d="M286.25,-287.7C286.36,-279.98 286.49,-270.71 286.61,-262.11"/>
<polygon fill="black" stroke="black" points="290.11,-262.15 286.76,-252.1 283.11,-262.05 290.11,-262.15"/>
</g>
<!-- Event&#45;&gt;Signer -->
<g id="edge43" class="edge">
<title>Event&#45;&gt;Signer</title>
<path fill="none" stroke="black" d="M281.94,-215.87C278.94,-205.51 275.12,-192.03 272,-180 259.82,-133.05 247.17,-77.96 239.97,-45.92"/>
<polygon fill="black" stroke="black" points="243.35,-44.98 237.75,-35.98 236.52,-46.5 243.35,-44.98"/>
</g>
<!-- Event&#45;&gt;Errors -->
<g id="edge44" class="edge">
<title>Event&#45;&gt;Errors</title>
<path fill="none" stroke="black" d="M304.1,-218.78C315.91,-208.56 331.65,-194.15 344,-180 382.59,-135.78 370.88,-104.13 420,-72 486.82,-28.29 582.34,-19.47 637.07,-18.34"/>
<polygon fill="black" stroke="black" points="637.18,-21.83 647.13,-18.2 637.08,-14.83 637.18,-21.83"/>
</g>
<!-- Event&#45;&gt;Vector -->
<g id="edge45" class="edge">
<title>Event&#45;&gt;Vector</title>
<path fill="none" stroke="black" d="M268.49,-219.5C254.33,-209.18 234.58,-194.78 218.57,-183.1"/>
<polygon fill="black" stroke="black" points="220.25,-180 210.11,-176.93 216.13,-185.65 220.25,-180"/>
</g>
<!-- BCS -->
<g id="node16" class="node">
<title>BCS</title>
<ellipse fill="none" stroke="black" cx="308" cy="-162" rx="27.1" ry="18"/>
<text text-anchor="middle" x="308" y="-158.3" font-family="Times,serif" font-size="14.00">BCS</text>
</g>
<!-- Event&#45;&gt;BCS -->
<g id="edge46" class="edge">
<title>Event&#45;&gt;BCS</title>
<path fill="none" stroke="black" d="M292.08,-216.05C294.48,-208.06 297.4,-198.33 300.08,-189.4"/>
<polygon fill="black" stroke="black" points="303.44,-190.37 302.96,-179.79 296.74,-188.36 303.44,-190.37"/>
</g>
</g>
</svg>
