<?xml version="1.0" encoding="UTF-8" standalone="no"?>
<!DOCTYPE svg PUBLIC "-//W3C//DTD SVG 1.1//EN"
 "http://www.w3.org/Graphics/SVG/1.1/DTD/svg11.dtd">
<!-- Generated by graphviz version 2.46.1 (20210213.1702)
 -->
<!-- Title: G Pages: 1 -->
<svg width="882pt" height="290pt"
 viewBox="0.00 0.00 882.19 290.00" xmlns="http://www.w3.org/2000/svg" xmlns:xlink="http://www.w3.org/1999/xlink">
<g id="graph0" class="graph" transform="scale(1 1) rotate(0) translate(4 286)">
<title>G</title>
<polygon fill="white" stroke="transparent" points="-4,4 -4,-286 878.19,-286 878.19,4 -4,4"/>
<g id="clust1" class="cluster">
<title>cluster_Signer</title>
<polygon fill="none" stroke="black" points="8,-8 8,-155 158,-155 158,-8 8,-8"/>
<text text-anchor="middle" x="83" y="-139.8" font-family="Times,serif" font-size="14.00">Signer</text>
</g>
<g id="clust2" class="cluster">
<title>cluster_Errors</title>
<polygon fill="none" stroke="black" points="166,-8 166,-155 600,-155 600,-8 166,-8"/>
<text text-anchor="middle" x="383" y="-139.8" font-family="Times,serif" font-size="14.00">Errors</text>
</g>
<g id="clust3" class="cluster">
<title>cluster_Roles</title>
<polygon fill="none" stroke="black" points="167,-163 167,-238 315,-238 315,-163 167,-163"/>
<text text-anchor="middle" x="241" y="-222.8" font-family="Times,serif" font-size="14.00">Roles</text>
</g>
<g id="clust4" class="cluster">
<title>cluster_ValidatorOperatorConfig</title>
<polygon fill="none" stroke="black" points="414,-163 414,-238 666,-238 666,-163 414,-163"/>
<text text-anchor="middle" x="540" y="-222.8" font-family="Times,serif" font-size="14.00">ValidatorOperatorConfig</text>
</g>
<g id="clust5" class="cluster">
<title>cluster_Option</title>
<polygon fill="none" stroke="black" points="674,-163 674,-238 750,-238 750,-163 674,-163"/>
<text text-anchor="middle" x="712" y="-222.8" font-family="Times,serif" font-size="14.00">Option</text>
</g>
<g id="clust6" class="cluster">
<title>cluster_Vector</title>
<polygon fill="none" stroke="black" points="650,-8 650,-155 846,-155 846,-8 650,-8"/>
<text text-anchor="middle" x="748" y="-139.8" font-family="Times,serif" font-size="14.00">Vector</text>
</g>
<!-- set_operator -->
<g id="node1" class="node">
<title>set_operator</title>
<ellipse fill="none" stroke="black" cx="394" cy="-264" rx="53.89" ry="18"/>
<text text-anchor="middle" x="394" y="-260.3" font-family="Times,serif" font-size="14.00">set_operator</text>
</g>
<!-- Signer::address_of -->
<g id="node2" class="node">
<title>Signer::address_of</title>
<ellipse fill="none" stroke="black" cx="101" cy="-106" rx="48.99" ry="18"/>
<text text-anchor="middle" x="101" y="-102.3" font-family="Times,serif" font-size="14.00">address_of</text>
</g>
<!-- set_operator&#45;&gt;Signer::address_of -->
<g id="edge1" class="edge">
<title>set_operator&#45;&gt;Signer::address_of</title>
<path fill="none" stroke="black" d="M339.87,-263.12C280.66,-262.23 190.49,-257.55 163,-238 128.52,-213.47 112.58,-164.64 105.71,-134.02"/>
<polygon fill="black" stroke="black" points="109.09,-133.1 103.64,-124.01 102.24,-134.52 109.09,-133.1"/>
</g>
<!-- Errors::invalid_argument -->
<g id="node3" class="node">
<title>Errors::invalid_argument</title>
<ellipse fill="none" stroke="black" cx="519" cy="-106" rx="73.39" ry="18"/>
<text text-anchor="middle" x="519" y="-102.3" font-family="Times,serif" font-size="14.00">invalid_argument</text>
</g>
<!-- set_operator&#45;&gt;Errors::invalid_argument -->
<g id="edge2" class="edge">
<title>set_operator&#45;&gt;Errors::invalid_argument</title>
<path fill="none" stroke="black" d="M391.7,-245.9C389.75,-223.99 389.93,-186.09 410,-163 417.93,-153.87 424.92,-159.83 436,-155 453.06,-147.56 471.05,-137.46 485.9,-128.45"/>
<polygon fill="black" stroke="black" points="488.04,-131.24 494.71,-123.01 484.36,-125.29 488.04,-131.24"/>
</g>
<!-- Errors::not_published -->
<g id="node4" class="node">
<title>Errors::not_published</title>
<ellipse fill="none" stroke="black" cx="367" cy="-106" rx="60.39" ry="18"/>
<text text-anchor="middle" x="367" y="-102.3" font-family="Times,serif" font-size="14.00">not_published</text>
</g>
<!-- set_operator&#45;&gt;Errors::not_published -->
<g id="edge3" class="edge">
<title>set_operator&#45;&gt;Errors::not_published</title>
<path fill="none" stroke="black" d="M383.38,-246.21C382.06,-243.54 380.87,-240.75 380,-238 369.15,-203.51 366.75,-161.62 366.49,-134.65"/>
<polygon fill="black" stroke="black" points="369.99,-134.41 366.49,-124.41 362.99,-134.41 369.99,-134.41"/>
</g>
<!-- Roles::assert_validator -->
<g id="node5" class="node">
<title>Roles::assert_validator</title>
<ellipse fill="none" stroke="black" cx="241" cy="-189" rx="66.09" ry="18"/>
<text text-anchor="middle" x="241" y="-185.3" font-family="Times,serif" font-size="14.00">assert_validator</text>
</g>
<!-- set_operator&#45;&gt;Roles::assert_validator -->
<g id="edge4" class="edge">
<title>set_operator&#45;&gt;Roles::assert_validator</title>
<path fill="none" stroke="black" d="M364.5,-248.92C340.91,-237.67 307.59,-221.77 281.5,-209.32"/>
<polygon fill="black" stroke="black" points="282.78,-206.06 272.25,-204.91 279.77,-212.38 282.78,-206.06"/>
</g>
<!-- ValidatorOperatorConfig::has_validator_operator_config -->
<g id="node6" class="node">
<title>ValidatorOperatorConfig::has_validator_operator_config</title>
<ellipse fill="none" stroke="black" cx="540" cy="-189" rx="118.08" ry="18"/>
<text text-anchor="middle" x="540" y="-185.3" font-family="Times,serif" font-size="14.00">has_validator_operator_config</text>
</g>
<!-- set_operator&#45;&gt;ValidatorOperatorConfig::has_validator_operator_config -->
<g id="edge5" class="edge">
<title>set_operator&#45;&gt;ValidatorOperatorConfig::has_validator_operator_config</title>
<path fill="none" stroke="black" d="M422.84,-248.58C444.27,-237.87 473.82,-223.09 497.88,-211.06"/>
<polygon fill="black" stroke="black" points="499.76,-214.03 507.14,-206.43 496.63,-207.77 499.76,-214.03"/>
</g>
<!-- Option::some -->
<g id="node7" class="node">
<title>Option::some</title>
<ellipse fill="none" stroke="black" cx="712" cy="-189" rx="29.8" ry="18"/>
<text text-anchor="middle" x="712" y="-185.3" font-family="Times,serif" font-size="14.00">some</text>
</g>
<!-- set_operator&#45;&gt;Option::some -->
<g id="edge6" class="edge">
<title>set_operator&#45;&gt;Option::some</title>
<path fill="none" stroke="black" d="M447.85,-262.82C516.96,-261.79 632.43,-257.14 670,-238 680.47,-232.67 689.47,-223.51 696.43,-214.62"/>
<polygon fill="black" stroke="black" points="699.42,-216.45 702.45,-206.3 693.75,-212.35 699.42,-216.45"/>
</g>
<!-- exists_config -->
<g id="node8" class="node">
<title>exists_config</title>
<ellipse fill="none" stroke="black" cx="817" cy="-189" rx="57.39" ry="18"/>
<text text-anchor="middle" x="817" y="-185.3" font-family="Times,serif" font-size="14.00">exists_config</text>
</g>
<!-- set_operator&#45;&gt;exists_config -->
<g id="edge7" class="edge">
<title>set_operator&#45;&gt;exists_config</title>
<path fill="none" stroke="black" d="M448.15,-263.02C534.58,-262.42 699.55,-258.51 754,-238 768.5,-232.54 782.43,-222.59 793.5,-213.16"/>
<polygon fill="black" stroke="black" points="795.88,-215.72 801.01,-206.46 791.22,-210.5 795.88,-215.72"/>
</g>
<!-- Signer::borrow_address -->
<g id="node9" class="node">
<title>Signer::borrow_address</title>
<ellipse fill="none" stroke="black" cx="83" cy="-34" rx="66.89" ry="18"/>
<text text-anchor="middle" x="83" y="-30.3" font-family="Times,serif" font-size="14.00">borrow_address</text>
</g>
<!-- Signer::address_of&#45;&gt;Signer::borrow_address -->
<g id="edge8" class="edge">
<title>Signer::address_of&#45;&gt;Signer::borrow_address</title>
<path fill="none" stroke="black" d="M96.64,-88.05C94.64,-80.26 92.21,-70.82 89.96,-62.08"/>
<polygon fill="black" stroke="black" points="93.32,-61.09 87.44,-52.28 86.54,-62.83 93.32,-61.09"/>
</g>
<!-- Errors::make -->
<g id="node10" class="node">
<title>Errors::make</title>
<ellipse fill="none" stroke="black" cx="367" cy="-34" rx="30.59" ry="18"/>
<text text-anchor="middle" x="367" y="-30.3" font-family="Times,serif" font-size="14.00">make</text>
</g>
<!-- Errors::invalid_argument&#45;&gt;Errors::make -->
<g id="edge9" class="edge">
<title>Errors::invalid_argument&#45;&gt;Errors::make</title>
<path fill="none" stroke="black" d="M486.02,-89.81C460.47,-78.04 425.25,-61.82 399.76,-50.08"/>
<polygon fill="black" stroke="black" points="401.05,-46.83 390.5,-45.82 398.12,-53.19 401.05,-46.83"/>
</g>
<!-- Errors::not_published&#45;&gt;Errors::make -->
<g id="edge10" class="edge">
<title>Errors::not_published&#45;&gt;Errors::make</title>
<path fill="none" stroke="black" d="M367,-87.7C367,-79.98 367,-70.71 367,-62.11"/>
<polygon fill="black" stroke="black" points="370.5,-62.1 367,-52.1 363.5,-62.1 370.5,-62.1"/>
</g>
<!-- Roles::assert_validator&#45;&gt;Signer::address_of -->
<g id="edge11" class="edge">
<title>Roles::assert_validator&#45;&gt;Signer::address_of</title>
<path fill="none" stroke="black" d="M202.22,-174.24C189.08,-168.94 174.56,-162.38 162,-155 149.62,-147.73 136.98,-138.2 126.45,-129.55"/>
<polygon fill="black" stroke="black" points="128.39,-126.61 118.49,-122.86 123.89,-131.97 128.39,-126.61"/>
</g>
<!-- Roles::assert_validator&#45;&gt;Errors::not_published -->
<g id="edge12" class="edge">
<title>Roles::assert_validator&#45;&gt;Errors::not_published</title>
<path fill="none" stroke="black" d="M268.29,-172.42C277.49,-167.04 287.77,-160.88 297,-155 310,-146.72 324.07,-137.2 336.16,-128.82"/>
<polygon fill="black" stroke="black" points="338.36,-131.55 344.56,-122.96 334.36,-125.81 338.36,-131.55"/>
</g>
<!-- Errors::requires_role -->
<g id="node11" class="node">
<title>Errors::requires_role</title>
<ellipse fill="none" stroke="black" cx="231" cy="-106" rx="57.39" ry="18"/>
<text text-anchor="middle" x="231" y="-102.3" font-family="Times,serif" font-size="14.00">requires_role</text>
</g>
<!-- Roles::assert_validator&#45;&gt;Errors::requires_role -->
<g id="edge13" class="edge">
<title>Roles::assert_validator&#45;&gt;Errors::requires_role</title>
<path fill="none" stroke="black" d="M238.88,-170.82C237.57,-160.19 235.85,-146.31 234.36,-134.2"/>
<polygon fill="black" stroke="black" points="237.82,-133.65 233.12,-124.15 230.87,-134.51 237.82,-133.65"/>
</g>
<!-- Vector::singleton -->
<g id="node12" class="node">
<title>Vector::singleton</title>
<ellipse fill="none" stroke="black" cx="712" cy="-106" rx="42.79" ry="18"/>
<text text-anchor="middle" x="712" y="-102.3" font-family="Times,serif" font-size="14.00">singleton</text>
</g>
<!-- Option::some&#45;&gt;Vector::singleton -->
<g id="edge14" class="edge">
<title>Option::some&#45;&gt;Vector::singleton</title>
<path fill="none" stroke="black" d="M712,-170.82C712,-160.19 712,-146.31 712,-134.2"/>
<polygon fill="black" stroke="black" points="715.5,-134.15 712,-124.15 708.5,-134.15 715.5,-134.15"/>
</g>
<!-- Errors::requires_role&#45;&gt;Errors::make -->
<g id="edge15" class="edge">
<title>Errors::requires_role&#45;&gt;Errors::make</title>
<path fill="none" stroke="black" d="M259.51,-90.33C281.83,-78.84 312.83,-62.88 335.81,-51.06"/>
<polygon fill="black" stroke="black" points="337.51,-54.11 344.8,-46.43 334.31,-47.89 337.51,-54.11"/>
</g>
<!-- Vector::empty -->
<g id="node13" class="node">
<title>Vector::empty</title>
<ellipse fill="none" stroke="black" cx="691" cy="-34" rx="33.29" ry="18"/>
<text text-anchor="middle" x="691" y="-30.3" font-family="Times,serif" font-size="14.00">empty</text>
</g>
<!-- Vector::singleton&#45;&gt;Vector::empty -->
<g id="edge16" class="edge">
<title>Vector::singleton&#45;&gt;Vector::empty</title>
<path fill="none" stroke="black" d="M706.92,-88.05C704.58,-80.26 701.75,-70.82 699.12,-62.08"/>
<polygon fill="black" stroke="black" points="702.41,-60.85 696.18,-52.28 695.7,-62.86 702.41,-60.85"/>
</g>
<!-- Vector::push_back -->
<g id="node14" class="node">
<title>Vector::push_back</title>
<ellipse fill="none" stroke="black" cx="790" cy="-34" rx="48.19" ry="18"/>
<text text-anchor="middle" x="790" y="-30.3" font-family="Times,serif" font-size="14.00">push_back</text>
</g>
<!-- Vector::singleton&#45;&gt;Vector::push_back -->
<g id="edge17" class="edge">
<title>Vector::singleton&#45;&gt;Vector::push_back</title>
<path fill="none" stroke="black" d="M729.31,-89.46C739.67,-80.17 753.02,-68.19 764.56,-57.83"/>
<polygon fill="black" stroke="black" points="767.09,-60.26 772.2,-50.98 762.42,-55.05 767.09,-60.26"/>
</g>
</g>
</svg>
