<?xml version="1.0" encoding="UTF-8" standalone="no"?>
<!DOCTYPE svg PUBLIC "-//W3C//DTD SVG 1.1//EN"
 "http://www.w3.org/Graphics/SVG/1.1/DTD/svg11.dtd">
<!-- Generated by graphviz version 2.46.1 (20210213.1702)
 -->
<!-- Title: G Pages: 1 -->
<svg width="527pt" height="365pt"
 viewBox="0.00 0.00 527.00 365.00" xmlns="http://www.w3.org/2000/svg" xmlns:xlink="http://www.w3.org/1999/xlink">
<g id="graph0" class="graph" transform="scale(1 1) rotate(0) translate(4 361)">
<title>G</title>
<polygon fill="white" stroke="transparent" points="-4,4 -4,-361 523,-361 523,4 -4,4"/>
<g id="clust1" class="cluster">
<title>cluster_Errors</title>
<polygon fill="none" stroke="black" points="8,-80 8,-238 309,-238 309,-80 8,-80"/>
<text text-anchor="middle" x="158.5" y="-222.8" font-family="Times,serif" font-size="14.00">Errors</text>
</g>
<g id="clust2" class="cluster">
<title>cluster_Option</title>
<polygon fill="none" stroke="black" points="349,-163 349,-313 445,-313 445,-163 349,-163"/>
<text text-anchor="middle" x="397" y="-297.8" font-family="Times,serif" font-size="14.00">Option</text>
</g>
<g id="clust3" class="cluster">
<title>cluster_Vector</title>
<polygon fill="none" stroke="black" points="317,-8 317,-155 511,-155 511,-8 317,-8"/>
<text text-anchor="middle" x="414" y="-139.8" font-family="Times,serif" font-size="14.00">Vector</text>
</g>
<!-- get_operator -->
<g id="node1" class="node">
<title>get_operator</title>
<ellipse fill="none" stroke="black" cx="351" cy="-339" rx="55.49" ry="18"/>
<text text-anchor="middle" x="351" y="-335.3" font-family="Times,serif" font-size="14.00">get_operator</text>
</g>
<!-- Errors::invalid_argument -->
<g id="node2" class="node">
<title>Errors::invalid_argument</title>
<ellipse fill="none" stroke="black" cx="228" cy="-189" rx="73.39" ry="18"/>
<text text-anchor="middle" x="228" y="-185.3" font-family="Times,serif" font-size="14.00">invalid_argument</text>
</g>
<!-- get_operator&#45;&gt;Errors::invalid_argument -->
<g id="edge1" class="edge">
<title>get_operator&#45;&gt;Errors::invalid_argument</title>
<path fill="none" stroke="black" d="M337.13,-321.31C315.54,-295.33 273.76,-245.06 248.63,-214.82"/>
<polygon fill="black" stroke="black" points="251.09,-212.31 242.01,-206.86 245.71,-216.78 251.09,-212.31"/>
</g>
<!-- Errors::not_published -->
<g id="node3" class="node">
<title>Errors::not_published</title>
<ellipse fill="none" stroke="black" cx="76" cy="-189" rx="60.39" ry="18"/>
<text text-anchor="middle" x="76" y="-185.3" font-family="Times,serif" font-size="14.00">not_published</text>
</g>
<!-- get_operator&#45;&gt;Errors::not_published -->
<g id="edge2" class="edge">
<title>get_operator&#45;&gt;Errors::not_published</title>
<path fill="none" stroke="black" d="M309.2,-326.99C296.68,-323.14 283.08,-318.42 271,-313 208.28,-284.87 141.96,-239.13 105.09,-212.06"/>
<polygon fill="black" stroke="black" points="106.93,-209.07 96.81,-205.93 102.76,-214.7 106.93,-209.07"/>
</g>
<!-- Option::borrow -->
<g id="node4" class="node">
<title>Option::borrow</title>
<ellipse fill="none" stroke="black" cx="393" cy="-264" rx="36.29" ry="18"/>
<text text-anchor="middle" x="393" y="-260.3" font-family="Times,serif" font-size="14.00">borrow</text>
</g>
<!-- get_operator&#45;&gt;Option::borrow -->
<g id="edge3" class="edge">
<title>get_operator&#45;&gt;Option::borrow</title>
<path fill="none" stroke="black" d="M360.74,-321.07C365.97,-311.98 372.53,-300.58 378.36,-290.44"/>
<polygon fill="black" stroke="black" points="381.5,-292 383.46,-281.59 375.44,-288.51 381.5,-292"/>
</g>
<!-- Option::is_some -->
<g id="node5" class="node">
<title>Option::is_some</title>
<ellipse fill="none" stroke="black" cx="397" cy="-189" rx="40.09" ry="18"/>
<text text-anchor="middle" x="397" y="-185.3" font-family="Times,serif" font-size="14.00">is_some</text>
</g>
<!-- get_operator&#45;&gt;Option::is_some -->
<g id="edge4" class="edge">
<title>get_operator&#45;&gt;Option::is_some</title>
<path fill="none" stroke="black" d="M404.39,-333.85C417.38,-330.16 429.87,-323.8 438,-313 455.91,-289.21 447.25,-274.3 438,-246 434.18,-234.31 426.88,-223.03 419.49,-213.71"/>
<polygon fill="black" stroke="black" points="422.17,-211.45 413.06,-206.05 416.81,-215.96 422.17,-211.45"/>
</g>
<!-- Errors::make -->
<g id="node6" class="node">
<title>Errors::make</title>
<ellipse fill="none" stroke="black" cx="152" cy="-106" rx="30.59" ry="18"/>
<text text-anchor="middle" x="152" y="-102.3" font-family="Times,serif" font-size="14.00">make</text>
</g>
<!-- Errors::invalid_argument&#45;&gt;Errors::make -->
<g id="edge5" class="edge">
<title>Errors::invalid_argument&#45;&gt;Errors::make</title>
<path fill="none" stroke="black" d="M212.25,-171.22C200.91,-159.13 185.49,-142.69 173.09,-129.48"/>
<polygon fill="black" stroke="black" points="175.58,-127.02 166.19,-122.12 170.48,-131.81 175.58,-127.02"/>
</g>
<!-- Errors::not_published&#45;&gt;Errors::make -->
<g id="edge6" class="edge">
<title>Errors::not_published&#45;&gt;Errors::make</title>
<path fill="none" stroke="black" d="M91.75,-171.22C103.09,-159.13 118.51,-142.69 130.91,-129.48"/>
<polygon fill="black" stroke="black" points="133.52,-131.81 137.81,-122.12 128.42,-127.02 133.52,-131.81"/>
</g>
<!-- Option::borrow&#45;&gt;Errors::invalid_argument -->
<g id="edge7" class="edge">
<title>Option::borrow&#45;&gt;Errors::invalid_argument</title>
<path fill="none" stroke="black" d="M361.75,-254.5C347.28,-250.18 330.02,-244.48 315,-238 297.26,-230.35 278.38,-220.2 262.77,-211.21"/>
<polygon fill="black" stroke="black" points="264.38,-208.1 253.98,-206.08 260.85,-214.14 264.38,-208.1"/>
</g>
<!-- Option::borrow&#45;&gt;Option::is_some -->
<g id="edge9" class="edge">
<title>Option::borrow&#45;&gt;Option::is_some</title>
<path fill="none" stroke="black" d="M393.95,-245.7C394.41,-237.25 394.98,-226.87 395.5,-217.37"/>
<polygon fill="black" stroke="black" points="399.01,-217.35 396.06,-207.18 392.02,-216.97 399.01,-217.35"/>
</g>
<!-- Vector::borrow -->
<g id="node7" class="node">
<title>Vector::borrow</title>
<ellipse fill="none" stroke="black" cx="361" cy="-106" rx="36.29" ry="18"/>
<text text-anchor="middle" x="361" y="-102.3" font-family="Times,serif" font-size="14.00">borrow</text>
</g>
<!-- Option::borrow&#45;&gt;Vector::borrow -->
<g id="edge8" class="edge">
<title>Option::borrow&#45;&gt;Vector::borrow</title>
<path fill="none" stroke="black" d="M364.04,-252.81C357.67,-249.15 351.72,-244.32 348,-238 329.01,-205.72 339.66,-161.09 349.78,-133.14"/>
<polygon fill="black" stroke="black" points="353.11,-134.25 353.43,-123.66 346.57,-131.73 353.11,-134.25"/>
</g>
<!-- Vector::is_empty -->
<g id="node8" class="node">
<title>Vector::is_empty</title>
<ellipse fill="none" stroke="black" cx="459" cy="-106" rx="43.59" ry="18"/>
<text text-anchor="middle" x="459" y="-102.3" font-family="Times,serif" font-size="14.00">is_empty</text>
</g>
<!-- Option::is_some&#45;&gt;Vector::is_empty -->
<g id="edge10" class="edge">
<title>Option::is_some&#45;&gt;Vector::is_empty</title>
<path fill="none" stroke="black" d="M409.55,-171.61C418.37,-160.08 430.33,-144.46 440.28,-131.46"/>
<polygon fill="black" stroke="black" points="443.17,-133.44 446.47,-123.37 437.61,-129.18 443.17,-133.44"/>
</g>
<!-- Vector::length -->
<g id="node9" class="node">
<title>Vector::length</title>
<ellipse fill="none" stroke="black" cx="459" cy="-34" rx="32.49" ry="18"/>
<text text-anchor="middle" x="459" y="-30.3" font-family="Times,serif" font-size="14.00">length</text>
</g>
<!-- Vector::is_empty&#45;&gt;Vector::length -->
<g id="edge11" class="edge">
<title>Vector::is_empty&#45;&gt;Vector::length</title>
<path fill="none" stroke="black" d="M459,-87.7C459,-79.98 459,-70.71 459,-62.11"/>
<polygon fill="black" stroke="black" points="462.5,-62.1 459,-52.1 455.5,-62.1 462.5,-62.1"/>
</g>
</g>
</svg>
