<?xml version="1.0" encoding="UTF-8" standalone="no"?>
<!DOCTYPE svg PUBLIC "-//W3C//DTD SVG 1.1//EN"
 "http://www.w3.org/Graphics/SVG/1.1/DTD/svg11.dtd">
<!-- Generated by graphviz version 2.46.1 (20210213.1702)
 -->
<!-- Title: G Pages: 1 -->
<svg width="757pt" height="456pt"
 viewBox="0.00 0.00 757.19 456.00" xmlns="http://www.w3.org/2000/svg" xmlns:xlink="http://www.w3.org/1999/xlink">
<g id="graph0" class="graph" transform="scale(1 1) rotate(0) translate(4 452)">
<title>G</title>
<polygon fill="white" stroke="transparent" points="-4,4 -4,-452 753.19,-452 753.19,4 -4,4"/>
<g id="clust1" class="cluster">
<title>cluster_Signer</title>
<polygon fill="none" stroke="black" points="8,-246 8,-404 158,-404 158,-246 8,-246"/>
<text text-anchor="middle" x="83" y="-388.8" font-family="Times,serif" font-size="14.00">Signer</text>
</g>
<g id="clust2" class="cluster">
<title>cluster_Errors</title>
<polygon fill="none" stroke="black" points="39,-80 39,-238 340,-238 340,-80 39,-80"/>
<text text-anchor="middle" x="189.5" y="-222.8" font-family="Times,serif" font-size="14.00">Errors</text>
</g>
<g id="clust3" class="cluster">
<title>cluster_Signature</title>
<polygon fill="none" stroke="black" points="402,-329 402,-404 624,-404 624,-329 402,-329"/>
<text text-anchor="middle" x="513" y="-388.8" font-family="Times,serif" font-size="14.00">Signature</text>
</g>
<g id="clust4" class="cluster">
<title>cluster_Option</title>
<polygon fill="none" stroke="black" points="350,-163 350,-321 516,-321 516,-163 350,-163"/>
<text text-anchor="middle" x="433" y="-305.8" font-family="Times,serif" font-size="14.00">Option</text>
</g>
<g id="clust5" class="cluster">
<title>cluster_Vector</title>
<polygon fill="none" stroke="black" points="348,-8 348,-155 645,-155 645,-8 348,-8"/>
<text text-anchor="middle" x="496.5" y="-139.8" font-family="Times,serif" font-size="14.00">Vector</text>
</g>
<!-- set_config -->
<g id="node1" class="node">
<title>set_config</title>
<ellipse fill="none" stroke="black" cx="299" cy="-430" rx="46.59" ry="18"/>
<text text-anchor="middle" x="299" y="-426.3" font-family="Times,serif" font-size="14.00">set_config</text>
</g>
<!-- Signer::address_of -->
<g id="node2" class="node">
<title>Signer::address_of</title>
<ellipse fill="none" stroke="black" cx="92" cy="-355" rx="48.99" ry="18"/>
<text text-anchor="middle" x="92" y="-351.3" font-family="Times,serif" font-size="14.00">address_of</text>
</g>
<!-- set_config&#45;&gt;Signer::address_of -->
<g id="edge1" class="edge">
<title>set_config&#45;&gt;Signer::address_of</title>
<path fill="none" stroke="black" d="M253.64,-425.22C226.81,-421.87 192.6,-415.61 164,-404 148.01,-397.51 131.88,-387.18 118.95,-377.77"/>
<polygon fill="black" stroke="black" points="121.05,-374.97 110.95,-371.76 116.84,-380.57 121.05,-374.97"/>
</g>
<!-- Errors::invalid_argument -->
<g id="node3" class="node">
<title>Errors::invalid_argument</title>
<ellipse fill="none" stroke="black" cx="259" cy="-189" rx="73.39" ry="18"/>
<text text-anchor="middle" x="259" y="-185.3" font-family="Times,serif" font-size="14.00">invalid_argument</text>
</g>
<!-- set_config&#45;&gt;Errors::invalid_argument -->
<g id="edge2" class="edge">
<title>set_config&#45;&gt;Errors::invalid_argument</title>
<path fill="none" stroke="black" d="M257.81,-421.11C248.86,-417.41 240.45,-411.98 235,-404 195.78,-346.57 226.23,-259.62 245.8,-216.36"/>
<polygon fill="black" stroke="black" points="249.08,-217.63 250.14,-207.09 242.74,-214.66 249.08,-217.63"/>
</g>
<!-- Errors::not_published -->
<g id="node4" class="node">
<title>Errors::not_published</title>
<ellipse fill="none" stroke="black" cx="107" cy="-189" rx="60.39" ry="18"/>
<text text-anchor="middle" x="107" y="-185.3" font-family="Times,serif" font-size="14.00">not_published</text>
</g>
<!-- set_config&#45;&gt;Errors::not_published -->
<g id="edge3" class="edge">
<title>set_config&#45;&gt;Errors::not_published</title>
<path fill="none" stroke="black" d="M260.7,-419.48C251.47,-415.8 242.21,-410.79 235,-404 178.67,-350.98 205.97,-309.64 162,-246 153.93,-234.32 143.32,-222.88 133.58,-213.41"/>
<polygon fill="black" stroke="black" points="135.69,-210.59 126.01,-206.27 130.89,-215.68 135.69,-210.59"/>
</g>
<!-- Signature::ed25519_validate_pubkey -->
<g id="node5" class="node">
<title>Signature::ed25519_validate_pubkey</title>
<ellipse fill="none" stroke="black" cx="513" cy="-355" rx="103.18" ry="18"/>
<text text-anchor="middle" x="513" y="-351.3" font-family="Times,serif" font-size="14.00">ed25519_validate_pubkey</text>
</g>
<!-- set_config&#45;&gt;Signature::ed25519_validate_pubkey -->
<g id="edge4" class="edge">
<title>set_config&#45;&gt;Signature::ed25519_validate_pubkey</title>
<path fill="none" stroke="black" d="M338.53,-420.11C356.27,-415.79 377.35,-410.2 396,-404 420.32,-395.92 446.79,-385.23 468.39,-375.99"/>
<polygon fill="black" stroke="black" points="469.84,-379.17 477.63,-371.99 467.06,-372.75 469.84,-379.17"/>
</g>
<!-- Option::some -->
<g id="node6" class="node">
<title>Option::some</title>
<ellipse fill="none" stroke="black" cx="478" cy="-272" rx="29.8" ry="18"/>
<text text-anchor="middle" x="478" y="-268.3" font-family="Times,serif" font-size="14.00">some</text>
</g>
<!-- set_config&#45;&gt;Option::some -->
<g id="edge5" class="edge">
<title>set_config&#45;&gt;Option::some</title>
<path fill="none" stroke="black" d="M337.29,-419.46C346.51,-415.78 355.78,-410.77 363,-404 389.83,-378.84 369.02,-351.65 398,-329 412.63,-317.57 423.08,-330.55 439,-321 448.53,-315.28 456.73,-306.34 463.11,-297.72"/>
<polygon fill="black" stroke="black" points="466.1,-299.56 468.88,-289.33 460.33,-295.59 466.1,-299.56"/>
</g>
<!-- exists_config -->
<g id="node7" class="node">
<title>exists_config</title>
<ellipse fill="none" stroke="black" cx="692" cy="-355" rx="57.39" ry="18"/>
<text text-anchor="middle" x="692" y="-351.3" font-family="Times,serif" font-size="14.00">exists_config</text>
</g>
<!-- set_config&#45;&gt;exists_config -->
<g id="edge6" class="edge">
<title>set_config&#45;&gt;exists_config</title>
<path fill="none" stroke="black" d="M345.95,-428.65C424.2,-427.54 577.67,-422.93 628,-404 642.65,-398.49 656.8,-388.54 668.05,-379.11"/>
<polygon fill="black" stroke="black" points="670.48,-381.64 675.7,-372.42 665.87,-376.37 670.48,-381.64"/>
</g>
<!-- get_operator -->
<g id="node8" class="node">
<title>get_operator</title>
<ellipse fill="none" stroke="black" cx="299" cy="-355" rx="55.49" ry="18"/>
<text text-anchor="middle" x="299" y="-351.3" font-family="Times,serif" font-size="14.00">get_operator</text>
</g>
<!-- set_config&#45;&gt;get_operator -->
<g id="edge7" class="edge">
<title>set_config&#45;&gt;get_operator</title>
<path fill="none" stroke="black" d="M299,-411.7C299,-403.25 299,-392.87 299,-383.37"/>
<polygon fill="black" stroke="black" points="302.5,-383.18 299,-373.18 295.5,-383.18 302.5,-383.18"/>
</g>
<!-- Signer::borrow_address -->
<g id="node9" class="node">
<title>Signer::borrow_address</title>
<ellipse fill="none" stroke="black" cx="83" cy="-272" rx="66.89" ry="18"/>
<text text-anchor="middle" x="83" y="-268.3" font-family="Times,serif" font-size="14.00">borrow_address</text>
</g>
<!-- Signer::address_of&#45;&gt;Signer::borrow_address -->
<g id="edge8" class="edge">
<title>Signer::address_of&#45;&gt;Signer::borrow_address</title>
<path fill="none" stroke="black" d="M90.09,-336.82C88.91,-326.19 87.37,-312.31 86.02,-300.2"/>
<polygon fill="black" stroke="black" points="89.49,-299.71 84.91,-290.15 82.53,-300.48 89.49,-299.71"/>
</g>
<!-- Errors::make -->
<g id="node10" class="node">
<title>Errors::make</title>
<ellipse fill="none" stroke="black" cx="183" cy="-106" rx="30.59" ry="18"/>
<text text-anchor="middle" x="183" y="-102.3" font-family="Times,serif" font-size="14.00">make</text>
</g>
<!-- Errors::invalid_argument&#45;&gt;Errors::make -->
<g id="edge9" class="edge">
<title>Errors::invalid_argument&#45;&gt;Errors::make</title>
<path fill="none" stroke="black" d="M243.25,-171.22C231.91,-159.13 216.49,-142.69 204.09,-129.48"/>
<polygon fill="black" stroke="black" points="206.58,-127.02 197.19,-122.12 201.48,-131.81 206.58,-127.02"/>
</g>
<!-- Errors::not_published&#45;&gt;Errors::make -->
<g id="edge10" class="edge">
<title>Errors::not_published&#45;&gt;Errors::make</title>
<path fill="none" stroke="black" d="M122.75,-171.22C134.09,-159.13 149.51,-142.69 161.91,-129.48"/>
<polygon fill="black" stroke="black" points="164.52,-131.81 168.81,-122.12 159.42,-127.02 164.52,-131.81"/>
</g>
<!-- Vector::singleton -->
<g id="node11" class="node">
<title>Vector::singleton</title>
<ellipse fill="none" stroke="black" cx="504" cy="-106" rx="42.79" ry="18"/>
<text text-anchor="middle" x="504" y="-102.3" font-family="Times,serif" font-size="14.00">singleton</text>
</g>
<!-- Option::some&#45;&gt;Vector::singleton -->
<g id="edge11" class="edge">
<title>Option::some&#45;&gt;Vector::singleton</title>
<path fill="none" stroke="black" d="M480.68,-254.07C485.18,-225.71 494.27,-168.38 499.68,-134.28"/>
<polygon fill="black" stroke="black" points="503.18,-134.51 501.29,-124.09 496.27,-133.42 503.18,-134.51"/>
</g>
<!-- get_operator&#45;&gt;Errors::invalid_argument -->
<g id="edge12" class="edge">
<title>get_operator&#45;&gt;Errors::invalid_argument</title>
<path fill="none" stroke="black" d="M294.79,-336.76C287.84,-308.26 273.91,-251.12 265.62,-217.16"/>
<polygon fill="black" stroke="black" points="268.92,-215.9 263.15,-207.01 262.12,-217.55 268.92,-215.9"/>
</g>
<!-- get_operator&#45;&gt;Errors::not_published -->
<g id="edge13" class="edge">
<title>get_operator&#45;&gt;Errors::not_published</title>
<path fill="none" stroke="black" d="M283.16,-337.49C278.65,-332.4 273.91,-326.64 270,-321 248.5,-289.94 260.85,-267.81 230,-246 210.55,-232.25 199.16,-246.74 177,-238 161.52,-231.9 146.07,-221.84 133.64,-212.5"/>
<polygon fill="black" stroke="black" points="135.6,-209.59 125.56,-206.21 131.3,-215.11 135.6,-209.59"/>
</g>
<!-- Option::borrow -->
<g id="node12" class="node">
<title>Option::borrow</title>
<ellipse fill="none" stroke="black" cx="394" cy="-272" rx="36.29" ry="18"/>
<text text-anchor="middle" x="394" y="-268.3" font-family="Times,serif" font-size="14.00">borrow</text>
</g>
<!-- get_operator&#45;&gt;Option::borrow -->
<g id="edge14" class="edge">
<title>get_operator&#45;&gt;Option::borrow</title>
<path fill="none" stroke="black" d="M321.42,-338.45C328.77,-333.12 336.88,-326.98 344,-321 353.31,-313.18 363.06,-304.05 371.46,-295.87"/>
<polygon fill="black" stroke="black" points="374.07,-298.2 378.73,-288.68 369.16,-293.22 374.07,-298.2"/>
</g>
<!-- Option::is_some -->
<g id="node13" class="node">
<title>Option::is_some</title>
<ellipse fill="none" stroke="black" cx="398" cy="-189" rx="40.09" ry="18"/>
<text text-anchor="middle" x="398" y="-185.3" font-family="Times,serif" font-size="14.00">is_some</text>
</g>
<!-- get_operator&#45;&gt;Option::is_some -->
<g id="edge15" class="edge">
<title>get_operator&#45;&gt;Option::is_some</title>
<path fill="none" stroke="black" d="M305.22,-336.76C313.54,-314.76 329.52,-275.97 349,-246 356.55,-234.38 366.38,-222.66 375.26,-212.96"/>
<polygon fill="black" stroke="black" points="377.81,-215.35 382.1,-205.67 372.71,-210.56 377.81,-215.35"/>
</g>
<!-- Vector::empty -->
<g id="node14" class="node">
<title>Vector::empty</title>
<ellipse fill="none" stroke="black" cx="487" cy="-34" rx="33.29" ry="18"/>
<text text-anchor="middle" x="487" y="-30.3" font-family="Times,serif" font-size="14.00">empty</text>
</g>
<!-- Vector::singleton&#45;&gt;Vector::empty -->
<g id="edge16" class="edge">
<title>Vector::singleton&#45;&gt;Vector::empty</title>
<path fill="none" stroke="black" d="M499.88,-88.05C497.99,-80.26 495.7,-70.82 493.58,-62.08"/>
<polygon fill="black" stroke="black" points="496.96,-61.17 491.2,-52.28 490.15,-62.82 496.96,-61.17"/>
</g>
<!-- Vector::push_back -->
<g id="node15" class="node">
<title>Vector::push_back</title>
<ellipse fill="none" stroke="black" cx="586" cy="-34" rx="48.19" ry="18"/>
<text text-anchor="middle" x="586" y="-30.3" font-family="Times,serif" font-size="14.00">push_back</text>
</g>
<!-- Vector::singleton&#45;&gt;Vector::push_back -->
<g id="edge17" class="edge">
<title>Vector::singleton&#45;&gt;Vector::push_back</title>
<path fill="none" stroke="black" d="M522.2,-89.46C533.27,-80.02 547.59,-67.79 559.86,-57.32"/>
<polygon fill="black" stroke="black" points="562.24,-59.89 567.57,-50.73 557.69,-54.56 562.24,-59.89"/>
</g>
<!-- Option::borrow&#45;&gt;Errors::invalid_argument -->
<g id="edge18" class="edge">
<title>Option::borrow&#45;&gt;Errors::invalid_argument</title>
<path fill="none" stroke="black" d="M371.71,-257.62C350.63,-244.98 318.67,-225.8 294.16,-211.1"/>
<polygon fill="black" stroke="black" points="295.88,-208.04 285.5,-205.9 292.27,-214.05 295.88,-208.04"/>
</g>
<!-- Option::borrow&#45;&gt;Option::is_some -->
<g id="edge20" class="edge">
<title>Option::borrow&#45;&gt;Option::is_some</title>
<path fill="none" stroke="black" d="M394.85,-253.82C395.37,-243.19 396.06,-229.31 396.66,-217.2"/>
<polygon fill="black" stroke="black" points="400.16,-217.31 397.15,-207.15 393.16,-216.97 400.16,-217.31"/>
</g>
<!-- Vector::borrow -->
<g id="node16" class="node">
<title>Vector::borrow</title>
<ellipse fill="none" stroke="black" cx="601" cy="-106" rx="36.29" ry="18"/>
<text text-anchor="middle" x="601" y="-102.3" font-family="Times,serif" font-size="14.00">borrow</text>
</g>
<!-- Option::borrow&#45;&gt;Vector::borrow -->
<g id="edge19" class="edge">
<title>Option::borrow&#45;&gt;Vector::borrow</title>
<path fill="none" stroke="black" d="M416.48,-257.65C426.02,-251.82 437.19,-244.77 447,-238 497.12,-203.43 510.8,-195.8 556,-155 564.48,-147.34 573.21,-138.34 580.69,-130.22"/>
<polygon fill="black" stroke="black" points="583.32,-132.53 587.43,-122.76 578.13,-127.83 583.32,-132.53"/>
</g>
<!-- Vector::is_empty -->
<g id="node17" class="node">
<title>Vector::is_empty</title>
<ellipse fill="none" stroke="black" cx="400" cy="-106" rx="43.59" ry="18"/>
<text text-anchor="middle" x="400" y="-102.3" font-family="Times,serif" font-size="14.00">is_empty</text>
</g>
<!-- Option::is_some&#45;&gt;Vector::is_empty -->
<g id="edge21" class="edge">
<title>Option::is_some&#45;&gt;Vector::is_empty</title>
<path fill="none" stroke="black" d="M398.42,-170.82C398.69,-160.19 399.03,-146.31 399.33,-134.2"/>
<polygon fill="black" stroke="black" points="402.83,-134.24 399.58,-124.15 395.83,-134.06 402.83,-134.24"/>
</g>
<!-- Vector::length -->
<g id="node18" class="node">
<title>Vector::length</title>
<ellipse fill="none" stroke="black" cx="400" cy="-34" rx="32.49" ry="18"/>
<text text-anchor="middle" x="400" y="-30.3" font-family="Times,serif" font-size="14.00">length</text>
</g>
<!-- Vector::is_empty&#45;&gt;Vector::length -->
<g id="edge22" class="edge">
<title>Vector::is_empty&#45;&gt;Vector::length</title>
<path fill="none" stroke="black" d="M400,-87.7C400,-79.98 400,-70.71 400,-62.11"/>
<polygon fill="black" stroke="black" points="403.5,-62.1 400,-52.1 396.5,-62.1 403.5,-62.1"/>
</g>
</g>
</svg>
