<?xml version="1.0" encoding="UTF-8" standalone="no"?>
<!DOCTYPE svg PUBLIC "-//W3C//DTD SVG 1.1//EN"
 "http://www.w3.org/Graphics/SVG/1.1/DTD/svg11.dtd">
<!-- Generated by graphviz version 2.46.1 (20210213.1702)
 -->
<!-- Title: G Pages: 1 -->
<svg width="1448pt" height="260pt"
 viewBox="0.00 0.00 1448.28 260.00" xmlns="http://www.w3.org/2000/svg" xmlns:xlink="http://www.w3.org/1999/xlink">
<g id="graph0" class="graph" transform="scale(1 1) rotate(0) translate(4 256)">
<title>G</title>
<polygon fill="white" stroke="transparent" points="-4,4 -4,-256 1444.28,-256 1444.28,4 -4,4"/>
<!-- ValidatorConfig -->
<g id="node1" class="node">
<title>ValidatorConfig</title>
<ellipse fill="none" stroke="black" cx="1128.39" cy="-18" rx="66.89" ry="18"/>
<text text-anchor="middle" x="1128.39" y="-14.3" font-family="Times,serif" font-size="14.00">ValidatorConfig</text>
</g>
<!-- DiemAccount -->
<g id="node2" class="node">
<title>DiemAccount</title>
<ellipse fill="none" stroke="black" cx="563.39" cy="-90" rx="60.39" ry="18"/>
<text text-anchor="middle" x="563.39" y="-86.3" font-family="Times,serif" font-size="14.00">DiemAccount</text>
</g>
<!-- DiemAccount&#45;&gt;ValidatorConfig -->
<g id="edge1" class="edge">
<title>DiemAccount&#45;&gt;ValidatorConfig</title>
<path fill="none" stroke="black" d="M618.08,-82.22C721.44,-69.42 945.29,-41.69 1059.03,-27.59"/>
<polygon fill="black" stroke="black" points="1059.53,-31.06 1069.02,-26.36 1058.67,-24.11 1059.53,-31.06"/>
</g>
<!-- DiemSystem -->
<g id="node3" class="node">
<title>DiemSystem</title>
<ellipse fill="none" stroke="black" cx="1128.39" cy="-90" rx="57.39" ry="18"/>
<text text-anchor="middle" x="1128.39" y="-86.3" font-family="Times,serif" font-size="14.00">DiemSystem</text>
</g>
<!-- DiemSystem&#45;&gt;ValidatorConfig -->
<g id="edge2" class="edge">
<title>DiemSystem&#45;&gt;ValidatorConfig</title>
<path fill="none" stroke="black" d="M1128.39,-71.7C1128.39,-63.98 1128.39,-54.71 1128.39,-46.11"/>
<polygon fill="black" stroke="black" points="1131.89,-46.1 1128.39,-36.1 1124.89,-46.1 1131.89,-46.1"/>
</g>
<!-- ValidatorAdministrationScripts -->
<g id="node4" class="node">
<title>ValidatorAdministrationScripts</title>
<ellipse fill="none" stroke="black" cx="1319.39" cy="-162" rx="120.78" ry="18"/>
<text text-anchor="middle" x="1319.39" y="-158.3" font-family="Times,serif" font-size="14.00">ValidatorAdministrationScripts</text>
</g>
<!-- ValidatorAdministrationScripts&#45;&gt;ValidatorConfig -->
<g id="edge3" class="edge">
<title>ValidatorAdministrationScripts&#45;&gt;ValidatorConfig</title>
<path fill="none" stroke="black" d="M1296.73,-144.15C1262.28,-118.54 1196.69,-69.78 1158.35,-41.27"/>
<polygon fill="black" stroke="black" points="1160.25,-38.33 1150.14,-35.17 1156.08,-43.94 1160.25,-38.33"/>
</g>
<!-- ValidatorAdministrationScripts&#45;&gt;DiemSystem -->
<g id="edge13" class="edge">
<title>ValidatorAdministrationScripts&#45;&gt;DiemSystem</title>
<path fill="none" stroke="black" d="M1276.05,-145.12C1245.56,-133.94 1204.84,-119.02 1173.88,-107.67"/>
<polygon fill="black" stroke="black" points="1174.79,-104.28 1164.2,-104.12 1172.38,-110.85 1174.79,-104.28"/>
</g>
<!-- SharedEd25519PublicKey -->
<g id="node5" class="node">
<title>SharedEd25519PublicKey</title>
<ellipse fill="none" stroke="black" cx="120.39" cy="-162" rx="103.98" ry="18"/>
<text text-anchor="middle" x="120.39" y="-158.3" font-family="Times,serif" font-size="14.00">SharedEd25519PublicKey</text>
</g>
<!-- SharedEd25519PublicKey&#45;&gt;DiemAccount -->
<g id="edge4" class="edge">
<title>SharedEd25519PublicKey&#45;&gt;DiemAccount</title>
<path fill="none" stroke="black" d="M194.54,-149.28C280.52,-135.7 420.71,-113.55 501.23,-100.82"/>
<polygon fill="black" stroke="black" points="501.89,-104.26 511.22,-99.24 500.8,-97.35 501.89,-104.26"/>
</g>
<!-- RecoveryAddress -->
<g id="node6" class="node">
<title>RecoveryAddress</title>
<ellipse fill="none" stroke="black" cx="315.39" cy="-162" rx="73.39" ry="18"/>
<text text-anchor="middle" x="315.39" y="-158.3" font-family="Times,serif" font-size="14.00">RecoveryAddress</text>
</g>
<!-- RecoveryAddress&#45;&gt;DiemAccount -->
<g id="edge5" class="edge">
<title>RecoveryAddress&#45;&gt;DiemAccount</title>
<path fill="none" stroke="black" d="M361.75,-147.92C404.24,-135.92 467.08,-118.18 511.29,-105.71"/>
<polygon fill="black" stroke="black" points="512.31,-109.05 520.99,-102.97 510.41,-102.32 512.31,-109.05"/>
</g>
<!-- AccountAdministrationScripts -->
<g id="node7" class="node">
<title>AccountAdministrationScripts</title>
<ellipse fill="none" stroke="black" cx="120.39" cy="-234" rx="118.08" ry="18"/>
<text text-anchor="middle" x="120.39" y="-230.3" font-family="Times,serif" font-size="14.00">AccountAdministrationScripts</text>
</g>
<!-- AccountAdministrationScripts&#45;&gt;DiemAccount -->
<g id="edge6" class="edge">
<title>AccountAdministrationScripts&#45;&gt;DiemAccount</title>
<path fill="none" stroke="black" d="M59.19,-218.55C39.19,-210.62 19.13,-198.47 7.39,-180 -1.19,-166.5 -3.37,-155.84 7.39,-144 39.47,-108.72 350.51,-96.37 492.88,-92.53"/>
<polygon fill="black" stroke="black" points="493.34,-96.02 503.25,-92.26 493.16,-89.03 493.34,-96.02"/>
</g>
<!-- AccountAdministrationScripts&#45;&gt;SharedEd25519PublicKey -->
<g id="edge14" class="edge">
<title>AccountAdministrationScripts&#45;&gt;SharedEd25519PublicKey</title>
<path fill="none" stroke="black" d="M120.39,-215.7C120.39,-207.98 120.39,-198.71 120.39,-190.11"/>
<polygon fill="black" stroke="black" points="123.89,-190.1 120.39,-180.1 116.89,-190.1 123.89,-190.1"/>
</g>
<!-- AccountAdministrationScripts&#45;&gt;RecoveryAddress -->
<g id="edge15" class="edge">
<title>AccountAdministrationScripts&#45;&gt;RecoveryAddress</title>
<path fill="none" stroke="black" d="M164.64,-217.12C194.75,-206.31 234.65,-191.99 265.83,-180.79"/>
<polygon fill="black" stroke="black" points="267.39,-183.95 275.62,-177.28 265.03,-177.36 267.39,-183.95"/>
</g>
<!-- AccountCreationScripts -->
<g id="node8" class="node">
<title>AccountCreationScripts</title>
<ellipse fill="none" stroke="black" cx="501.39" cy="-162" rx="94.78" ry="18"/>
<text text-anchor="middle" x="501.39" y="-158.3" font-family="Times,serif" font-size="14.00">AccountCreationScripts</text>
</g>
<!-- AccountCreationScripts&#45;&gt;DiemAccount -->
<g id="edge7" class="edge">
<title>AccountCreationScripts&#45;&gt;DiemAccount</title>
<path fill="none" stroke="black" d="M516.4,-144.05C524.01,-135.46 533.4,-124.86 541.78,-115.4"/>
<polygon fill="black" stroke="black" points="544.51,-117.6 548.52,-107.79 539.27,-112.95 544.51,-117.6"/>
</g>
<!-- Genesis -->
<g id="node9" class="node">
<title>Genesis</title>
<ellipse fill="none" stroke="black" cx="1048.39" cy="-234" rx="38.19" ry="18"/>
<text text-anchor="middle" x="1048.39" y="-230.3" font-family="Times,serif" font-size="14.00">Genesis</text>
</g>
<!-- Genesis&#45;&gt;DiemAccount -->
<g id="edge8" class="edge">
<title>Genesis&#45;&gt;DiemAccount</title>
<path fill="none" stroke="black" d="M1010.39,-231.37C922.29,-227.07 706.77,-213.35 643.39,-180 628.67,-172.25 601.07,-139.38 582.46,-115.84"/>
<polygon fill="black" stroke="black" points="585.21,-113.68 576.28,-107.96 579.69,-117.99 585.21,-113.68"/>
</g>
<!-- Genesis&#45;&gt;DiemSystem -->
<g id="edge12" class="edge">
<title>Genesis&#45;&gt;DiemSystem</title>
<path fill="none" stroke="black" d="M1048.87,-215.77C1050.08,-196.94 1054.15,-166.45 1067.39,-144 1074.55,-131.87 1085.47,-121.1 1096.11,-112.49"/>
<polygon fill="black" stroke="black" points="1098.32,-115.21 1104.12,-106.34 1094.06,-109.65 1098.32,-115.21"/>
</g>
<!-- DiemBlock -->
<g id="node12" class="node">
<title>DiemBlock</title>
<ellipse fill="none" stroke="black" cx="1128.39" cy="-162" rx="51.99" ry="18"/>
<text text-anchor="middle" x="1128.39" y="-158.3" font-family="Times,serif" font-size="14.00">DiemBlock</text>
</g>
<!-- Genesis&#45;&gt;DiemBlock -->
<g id="edge16" class="edge">
<title>Genesis&#45;&gt;DiemBlock</title>
<path fill="none" stroke="black" d="M1065.75,-217.81C1076.53,-208.38 1090.58,-196.08 1102.65,-185.53"/>
<polygon fill="black" stroke="black" points="1105.01,-188.11 1110.23,-178.89 1100.4,-182.84 1105.01,-188.11"/>
</g>
<!-- PaymentScripts -->
<g id="node10" class="node">
<title>PaymentScripts</title>
<ellipse fill="none" stroke="black" cx="718.39" cy="-162" rx="66.09" ry="18"/>
<text text-anchor="middle" x="718.39" y="-158.3" font-family="Times,serif" font-size="14.00">PaymentScripts</text>
</g>
<!-- PaymentScripts&#45;&gt;DiemAccount -->
<g id="edge9" class="edge">
<title>PaymentScripts&#45;&gt;DiemAccount</title>
<path fill="none" stroke="black" d="M685.52,-146.15C661.88,-135.48 629.84,-121.01 604.5,-109.57"/>
<polygon fill="black" stroke="black" points="605.71,-106.27 595.15,-105.35 602.83,-112.65 605.71,-106.27"/>
</g>
<!-- TreasuryComplianceScripts -->
<g id="node11" class="node">
<title>TreasuryComplianceScripts</title>
<ellipse fill="none" stroke="black" cx="911.39" cy="-162" rx="109.38" ry="18"/>
<text text-anchor="middle" x="911.39" y="-158.3" font-family="Times,serif" font-size="14.00">TreasuryComplianceScripts</text>
</g>
<!-- TreasuryComplianceScripts&#45;&gt;DiemAccount -->
<g id="edge10" class="edge">
<title>TreasuryComplianceScripts&#45;&gt;DiemAccount</title>
<path fill="none" stroke="black" d="M845.12,-147.67C780.67,-134.71 683.71,-115.2 622.01,-102.79"/>
<polygon fill="black" stroke="black" points="622.53,-99.33 612.04,-100.79 621.15,-106.19 622.53,-99.33"/>
</g>
<!-- DiemBlock&#45;&gt;DiemSystem -->
<g id="edge11" class="edge">
<title>DiemBlock&#45;&gt;DiemSystem</title>
<path fill="none" stroke="black" d="M1128.39,-143.7C1128.39,-135.98 1128.39,-126.71 1128.39,-118.11"/>
<polygon fill="black" stroke="black" points="1131.89,-118.1 1128.39,-108.1 1124.89,-118.1 1131.89,-118.1"/>
</g>
</g>
</svg>
