<?xml version="1.0" encoding="UTF-8" standalone="no"?>
<!DOCTYPE svg PUBLIC "-//W3C//DTD SVG 1.1//EN"
 "http://www.w3.org/Graphics/SVG/1.1/DTD/svg11.dtd">
<!-- Generated by graphviz version 2.46.1 (20210213.1702)
 -->
<!-- Title: G Pages: 1 -->
<svg width="580pt" height="290pt"
 viewBox="0.00 0.00 580.19 290.00" xmlns="http://www.w3.org/2000/svg" xmlns:xlink="http://www.w3.org/1999/xlink">
<g id="graph0" class="graph" transform="scale(1 1) rotate(0) translate(4 286)">
<title>G</title>
<polygon fill="white" stroke="transparent" points="-4,4 -4,-286 576.19,-286 576.19,4 -4,4"/>
<g id="clust1" class="cluster">
<title>cluster_Signer</title>
<polygon fill="none" stroke="black" points="8,-8 8,-155 158,-155 158,-8 8,-8"/>
<text text-anchor="middle" x="83" y="-139.8" font-family="Times,serif" font-size="14.00">Signer</text>
</g>
<g id="clust2" class="cluster">
<title>cluster_Errors</title>
<polygon fill="none" stroke="black" points="166,-8 166,-155 435,-155 435,-8 166,-8"/>
<text text-anchor="middle" x="300.5" y="-139.8" font-family="Times,serif" font-size="14.00">Errors</text>
</g>
<g id="clust3" class="cluster">
<title>cluster_Roles</title>
<polygon fill="none" stroke="black" points="167,-163 167,-238 315,-238 315,-163 167,-163"/>
<text text-anchor="middle" x="241" y="-222.8" font-family="Times,serif" font-size="14.00">Roles</text>
</g>
<g id="clust4" class="cluster">
<title>cluster_Option</title>
<polygon fill="none" stroke="black" points="376,-163 376,-238 448,-238 448,-163 376,-163"/>
<text text-anchor="middle" x="412" y="-222.8" font-family="Times,serif" font-size="14.00">Option</text>
</g>
<g id="clust5" class="cluster">
<title>cluster_Vector</title>
<polygon fill="none" stroke="black" points="443,-80 443,-155 525,-155 525,-80 443,-80"/>
<text text-anchor="middle" x="484" y="-139.8" font-family="Times,serif" font-size="14.00">Vector</text>
</g>
<!-- remove_operator -->
<g id="node1" class="node">
<title>remove_operator</title>
<ellipse fill="none" stroke="black" cx="356" cy="-264" rx="71.49" ry="18"/>
<text text-anchor="middle" x="356" y="-260.3" font-family="Times,serif" font-size="14.00">remove_operator</text>
</g>
<!-- Signer::address_of -->
<g id="node2" class="node">
<title>Signer::address_of</title>
<ellipse fill="none" stroke="black" cx="101" cy="-106" rx="48.99" ry="18"/>
<text text-anchor="middle" x="101" y="-102.3" font-family="Times,serif" font-size="14.00">address_of</text>
</g>
<!-- remove_operator&#45;&gt;Signer::address_of -->
<g id="edge1" class="edge">
<title>remove_operator&#45;&gt;Signer::address_of</title>
<path fill="none" stroke="black" d="M285.31,-260.85C238.46,-258.13 182.2,-251.96 163,-238 128.96,-213.24 112.93,-164.91 105.91,-134.38"/>
<polygon fill="black" stroke="black" points="109.29,-133.44 103.79,-124.39 102.45,-134.9 109.29,-133.44"/>
</g>
<!-- Errors::not_published -->
<g id="node3" class="node">
<title>Errors::not_published</title>
<ellipse fill="none" stroke="black" cx="367" cy="-106" rx="60.39" ry="18"/>
<text text-anchor="middle" x="367" y="-102.3" font-family="Times,serif" font-size="14.00">not_published</text>
</g>
<!-- remove_operator&#45;&gt;Errors::not_published -->
<g id="edge2" class="edge">
<title>remove_operator&#45;&gt;Errors::not_published</title>
<path fill="none" stroke="black" d="M357.22,-245.71C359.12,-218.77 362.8,-166.54 365.07,-134.42"/>
<polygon fill="black" stroke="black" points="368.56,-134.59 365.78,-124.37 361.58,-134.1 368.56,-134.59"/>
</g>
<!-- Roles::assert_validator -->
<g id="node4" class="node">
<title>Roles::assert_validator</title>
<ellipse fill="none" stroke="black" cx="241" cy="-189" rx="66.09" ry="18"/>
<text text-anchor="middle" x="241" y="-185.3" font-family="Times,serif" font-size="14.00">assert_validator</text>
</g>
<!-- remove_operator&#45;&gt;Roles::assert_validator -->
<g id="edge3" class="edge">
<title>remove_operator&#45;&gt;Roles::assert_validator</title>
<path fill="none" stroke="black" d="M330.76,-246.98C314.17,-236.45 292.28,-222.55 274.27,-211.12"/>
<polygon fill="black" stroke="black" points="276.1,-208.14 265.78,-205.73 272.35,-214.05 276.1,-208.14"/>
</g>
<!-- Option::none -->
<g id="node5" class="node">
<title>Option::none</title>
<ellipse fill="none" stroke="black" cx="412" cy="-189" rx="27.9" ry="18"/>
<text text-anchor="middle" x="412" y="-185.3" font-family="Times,serif" font-size="14.00">none</text>
</g>
<!-- remove_operator&#45;&gt;Option::none -->
<g id="edge4" class="edge">
<title>remove_operator&#45;&gt;Option::none</title>
<path fill="none" stroke="black" d="M368.99,-246.07C376.43,-236.36 385.89,-224.04 394.04,-213.42"/>
<polygon fill="black" stroke="black" points="396.92,-215.41 400.23,-205.35 391.36,-211.15 396.92,-215.41"/>
</g>
<!-- exists_config -->
<g id="node6" class="node">
<title>exists_config</title>
<ellipse fill="none" stroke="black" cx="515" cy="-189" rx="57.39" ry="18"/>
<text text-anchor="middle" x="515" y="-185.3" font-family="Times,serif" font-size="14.00">exists_config</text>
</g>
<!-- remove_operator&#45;&gt;exists_config -->
<g id="edge5" class="edge">
<title>remove_operator&#45;&gt;exists_config</title>
<path fill="none" stroke="black" d="M411.41,-252.55C425.06,-248.91 439.38,-244.14 452,-238 465.4,-231.48 478.74,-221.88 489.68,-212.97"/>
<polygon fill="black" stroke="black" points="492.14,-215.48 497.53,-206.36 487.63,-210.12 492.14,-215.48"/>
</g>
<!-- Signer::borrow_address -->
<g id="node7" class="node">
<title>Signer::borrow_address</title>
<ellipse fill="none" stroke="black" cx="83" cy="-34" rx="66.89" ry="18"/>
<text text-anchor="middle" x="83" y="-30.3" font-family="Times,serif" font-size="14.00">borrow_address</text>
</g>
<!-- Signer::address_of&#45;&gt;Signer::borrow_address -->
<g id="edge6" class="edge">
<title>Signer::address_of&#45;&gt;Signer::borrow_address</title>
<path fill="none" stroke="black" d="M96.64,-88.05C94.64,-80.26 92.21,-70.82 89.96,-62.08"/>
<polygon fill="black" stroke="black" points="93.32,-61.09 87.44,-52.28 86.54,-62.83 93.32,-61.09"/>
</g>
<!-- Errors::make -->
<g id="node8" class="node">
<title>Errors::make</title>
<ellipse fill="none" stroke="black" cx="299" cy="-34" rx="30.59" ry="18"/>
<text text-anchor="middle" x="299" y="-30.3" font-family="Times,serif" font-size="14.00">make</text>
</g>
<!-- Errors::not_published&#45;&gt;Errors::make -->
<g id="edge7" class="edge">
<title>Errors::not_published&#45;&gt;Errors::make</title>
<path fill="none" stroke="black" d="M350.88,-88.41C341.87,-79.13 330.51,-67.44 320.72,-57.36"/>
<polygon fill="black" stroke="black" points="323.09,-54.77 313.61,-50.04 318.07,-59.65 323.09,-54.77"/>
</g>
<!-- Roles::assert_validator&#45;&gt;Signer::address_of -->
<g id="edge8" class="edge">
<title>Roles::assert_validator&#45;&gt;Signer::address_of</title>
<path fill="none" stroke="black" d="M202.22,-174.24C189.08,-168.94 174.56,-162.38 162,-155 149.62,-147.73 136.98,-138.2 126.45,-129.55"/>
<polygon fill="black" stroke="black" points="128.39,-126.61 118.49,-122.86 123.89,-131.97 128.39,-126.61"/>
</g>
<!-- Roles::assert_validator&#45;&gt;Errors::not_published -->
<g id="edge9" class="edge">
<title>Roles::assert_validator&#45;&gt;Errors::not_published</title>
<path fill="none" stroke="black" d="M268.29,-172.42C277.49,-167.04 287.77,-160.88 297,-155 310,-146.72 324.07,-137.2 336.16,-128.82"/>
<polygon fill="black" stroke="black" points="338.36,-131.55 344.56,-122.96 334.36,-125.81 338.36,-131.55"/>
</g>
<!-- Errors::requires_role -->
<g id="node9" class="node">
<title>Errors::requires_role</title>
<ellipse fill="none" stroke="black" cx="231" cy="-106" rx="57.39" ry="18"/>
<text text-anchor="middle" x="231" y="-102.3" font-family="Times,serif" font-size="14.00">requires_role</text>
</g>
<!-- Roles::assert_validator&#45;&gt;Errors::requires_role -->
<g id="edge10" class="edge">
<title>Roles::assert_validator&#45;&gt;Errors::requires_role</title>
<path fill="none" stroke="black" d="M238.88,-170.82C237.57,-160.19 235.85,-146.31 234.36,-134.2"/>
<polygon fill="black" stroke="black" points="237.82,-133.65 233.12,-124.15 230.87,-134.51 237.82,-133.65"/>
</g>
<!-- Vector::empty -->
<g id="node10" class="node">
<title>Vector::empty</title>
<ellipse fill="none" stroke="black" cx="484" cy="-106" rx="33.29" ry="18"/>
<text text-anchor="middle" x="484" y="-102.3" font-family="Times,serif" font-size="14.00">empty</text>
</g>
<!-- Option::none&#45;&gt;Vector::empty -->
<g id="edge11" class="edge">
<title>Option::none&#45;&gt;Vector::empty</title>
<path fill="none" stroke="black" d="M425.54,-172.76C436.24,-160.74 451.33,-143.76 463.5,-130.06"/>
<polygon fill="black" stroke="black" points="466.25,-132.24 470.27,-122.44 461.01,-127.59 466.25,-132.24"/>
</g>
<!-- Errors::requires_role&#45;&gt;Errors::make -->
<g id="edge12" class="edge">
<title>Errors::requires_role&#45;&gt;Errors::make</title>
<path fill="none" stroke="black" d="M247.12,-88.41C256.13,-79.13 267.49,-67.44 277.28,-57.36"/>
<polygon fill="black" stroke="black" points="279.93,-59.65 284.39,-50.04 274.91,-54.77 279.93,-59.65"/>
</g>
</g>
</svg>
