<?xml version="1.0" encoding="UTF-8" standalone="no"?>
<!DOCTYPE svg PUBLIC "-//W3C//DTD SVG 1.1//EN"
 "http://www.w3.org/Graphics/SVG/1.1/DTD/svg11.dtd">
<!-- Generated by graphviz version 2.46.1 (20210213.1702)
 -->
<!-- Title: G Pages: 1 -->
<svg width="974pt" height="365pt"
 viewBox="0.00 0.00 973.78 365.00" xmlns="http://www.w3.org/2000/svg" xmlns:xlink="http://www.w3.org/1999/xlink">
<g id="graph0" class="graph" transform="scale(1 1) rotate(0) translate(4 361)">
<title>G</title>
<polygon fill="white" stroke="transparent" points="-4,4 -4,-361 969.78,-361 969.78,4 -4,4"/>
<g id="clust1" class="cluster">
<title>cluster_SlidingNonce</title>
<polygon fill="none" stroke="black" points="755.78,-163 755.78,-313 957.78,-313 957.78,-163 755.78,-163"/>
<text text-anchor="middle" x="856.78" y="-297.8" font-family="Times,serif" font-size="14.00">SlidingNonce</text>
</g>
<g id="clust2" class="cluster">
<title>cluster_ValidatorOperatorConfig</title>
<polygon fill="none" stroke="black" points="17.78,-163 17.78,-313 269.78,-313 269.78,-163 17.78,-163"/>
<text text-anchor="middle" x="143.78" y="-297.8" font-family="Times,serif" font-size="14.00">ValidatorOperatorConfig</text>
</g>
<g id="clust3" class="cluster">
<title>cluster_ValidatorConfig</title>
<polygon fill="none" stroke="black" points="431.78,-163 431.78,-313 561.78,-313 561.78,-163 431.78,-163"/>
<text text-anchor="middle" x="496.78" y="-297.8" font-family="Times,serif" font-size="14.00">ValidatorConfig</text>
</g>
<g id="clust4" class="cluster">
<title>cluster_Errors</title>
<polygon fill="none" stroke="black" points="305.78,-8 305.78,-155 739.78,-155 739.78,-8 305.78,-8"/>
<text text-anchor="middle" x="522.78" y="-139.8" font-family="Times,serif" font-size="14.00">Errors</text>
</g>
<g id="clust5" class="cluster">
<title>cluster_Signer</title>
<polygon fill="none" stroke="black" points="747.78,-8 747.78,-155 897.78,-155 897.78,-8 747.78,-8"/>
<text text-anchor="middle" x="822.78" y="-139.8" font-family="Times,serif" font-size="14.00">Signer</text>
</g>
<g id="clust6" class="cluster">
<title>cluster_Roles</title>
<polygon fill="none" stroke="black" points="569.78,-163 569.78,-238 717.78,-238 717.78,-163 569.78,-163"/>
<text text-anchor="middle" x="643.78" y="-222.8" font-family="Times,serif" font-size="14.00">Roles</text>
</g>
<g id="clust7" class="cluster">
<title>cluster_Option</title>
<polygon fill="none" stroke="black" points="277.78,-163 277.78,-238 353.78,-238 353.78,-163 277.78,-163"/>
<text text-anchor="middle" x="315.78" y="-222.8" font-family="Times,serif" font-size="14.00">Option</text>
</g>
<g id="clust8" class="cluster">
<title>cluster_Vector</title>
<polygon fill="none" stroke="black" points="101.78,-8 101.78,-155 297.78,-155 297.78,-8 101.78,-8"/>
<text text-anchor="middle" x="199.78" y="-139.8" font-family="Times,serif" font-size="14.00">Vector</text>
</g>
<!-- set_validator_operator_with_nonce_admin -->
<g id="node1" class="node">
<title>set_validator_operator_with_nonce_admin</title>
<ellipse fill="none" stroke="black" cx="493.78" cy="-339" rx="161.67" ry="18"/>
<text text-anchor="middle" x="493.78" y="-335.3" font-family="Times,serif" font-size="14.00">set_validator_operator_with_nonce_admin</text>
</g>
<!-- SlidingNonce::record_nonce_or_abort -->
<g id="node2" class="node">
<title>SlidingNonce::record_nonce_or_abort</title>
<ellipse fill="none" stroke="black" cx="856.78" cy="-264" rx="92.88" ry="18"/>
<text text-anchor="middle" x="856.78" y="-260.3" font-family="Times,serif" font-size="14.00">record_nonce_or_abort</text>
</g>
<!-- set_validator_operator_with_nonce_admin&#45;&gt;SlidingNonce::record_nonce_or_abort -->
<g id="edge1" class="edge">
<title>set_validator_operator_with_nonce_admin&#45;&gt;SlidingNonce::record_nonce_or_abort</title>
<path fill="none" stroke="black" d="M568.56,-322.96C631.86,-310.23 722.03,-292.1 784.59,-279.52"/>
<polygon fill="black" stroke="black" points="785.66,-282.87 794.78,-277.47 784.28,-276.01 785.66,-282.87"/>
</g>
<!-- ValidatorOperatorConfig::get_human_name -->
<g id="node3" class="node">
<title>ValidatorOperatorConfig::get_human_name</title>
<ellipse fill="none" stroke="black" cx="143.78" cy="-264" rx="74.19" ry="18"/>
<text text-anchor="middle" x="143.78" y="-260.3" font-family="Times,serif" font-size="14.00">get_human_name</text>
</g>
<!-- set_validator_operator_with_nonce_admin&#45;&gt;ValidatorOperatorConfig::get_human_name -->
<g id="edge2" class="edge">
<title>set_validator_operator_with_nonce_admin&#45;&gt;ValidatorOperatorConfig::get_human_name</title>
<path fill="none" stroke="black" d="M421.26,-322.87C358.52,-309.79 268.63,-291.04 208.33,-278.46"/>
<polygon fill="black" stroke="black" points="208.68,-274.96 198.18,-276.35 207.25,-281.81 208.68,-274.96"/>
</g>
<!-- ValidatorConfig::set_operator -->
<g id="node4" class="node">
<title>ValidatorConfig::set_operator</title>
<ellipse fill="none" stroke="black" cx="493.78" cy="-264" rx="53.89" ry="18"/>
<text text-anchor="middle" x="493.78" y="-260.3" font-family="Times,serif" font-size="14.00">set_operator</text>
</g>
<!-- set_validator_operator_with_nonce_admin&#45;&gt;ValidatorConfig::set_operator -->
<g id="edge3" class="edge">
<title>set_validator_operator_with_nonce_admin&#45;&gt;ValidatorConfig::set_operator</title>
<path fill="none" stroke="black" d="M493.78,-320.7C493.78,-312.25 493.78,-301.87 493.78,-292.37"/>
<polygon fill="black" stroke="black" points="497.28,-292.18 493.78,-282.18 490.28,-292.18 497.28,-292.18"/>
</g>
<!-- Errors::invalid_argument -->
<g id="node5" class="node">
<title>Errors::invalid_argument</title>
<ellipse fill="none" stroke="black" cx="525.78" cy="-106" rx="73.39" ry="18"/>
<text text-anchor="middle" x="525.78" y="-102.3" font-family="Times,serif" font-size="14.00">invalid_argument</text>
</g>
<!-- SlidingNonce::record_nonce_or_abort&#45;&gt;Errors::invalid_argument -->
<g id="edge4" class="edge">
<title>SlidingNonce::record_nonce_or_abort&#45;&gt;Errors::invalid_argument</title>
<path fill="none" stroke="black" d="M812.92,-248C806.61,-245.09 800.37,-241.75 794.78,-238 756.16,-212.08 763.97,-182.59 721.78,-163 698.95,-152.4 632.85,-162.38 608.78,-155 590.16,-149.29 571.22,-138.77 556.14,-129.03"/>
<polygon fill="black" stroke="black" points="558,-126.06 547.74,-123.43 554.12,-131.89 558,-126.06"/>
</g>
<!-- SlidingNonce::try_record_nonce -->
<g id="node6" class="node">
<title>SlidingNonce::try_record_nonce</title>
<ellipse fill="none" stroke="black" cx="876.78" cy="-189" rx="72.59" ry="18"/>
<text text-anchor="middle" x="876.78" y="-185.3" font-family="Times,serif" font-size="14.00">try_record_nonce</text>
</g>
<!-- SlidingNonce::record_nonce_or_abort&#45;&gt;SlidingNonce::try_record_nonce -->
<g id="edge5" class="edge">
<title>SlidingNonce::record_nonce_or_abort&#45;&gt;SlidingNonce::try_record_nonce</title>
<path fill="none" stroke="black" d="M861.52,-245.7C863.86,-237.15 866.74,-226.65 869.37,-217.07"/>
<polygon fill="black" stroke="black" points="872.81,-217.75 872.08,-207.18 866.06,-215.9 872.81,-217.75"/>
</g>
<!-- Errors::not_published -->
<g id="node7" class="node">
<title>Errors::not_published</title>
<ellipse fill="none" stroke="black" cx="373.78" cy="-106" rx="60.39" ry="18"/>
<text text-anchor="middle" x="373.78" y="-102.3" font-family="Times,serif" font-size="14.00">not_published</text>
</g>
<!-- ValidatorOperatorConfig::get_human_name&#45;&gt;Errors::not_published -->
<g id="edge6" class="edge">
<title>ValidatorOperatorConfig::get_human_name&#45;&gt;Errors::not_published</title>
<path fill="none" stroke="black" d="M74.98,-257.25C49.41,-253.56 24.67,-247.59 16.78,-238 -4.39,-212.25 -6.45,-186.9 16.78,-163 27.82,-151.64 286.69,-159.8 301.78,-155 318.46,-149.69 334.87,-139.28 347.8,-129.5"/>
<polygon fill="black" stroke="black" points="350.07,-132.17 355.76,-123.23 345.74,-126.67 350.07,-132.17"/>
</g>
<!-- ValidatorOperatorConfig::has_validator_operator_config -->
<g id="node8" class="node">
<title>ValidatorOperatorConfig::has_validator_operator_config</title>
<ellipse fill="none" stroke="black" cx="143.78" cy="-189" rx="118.08" ry="18"/>
<text text-anchor="middle" x="143.78" y="-185.3" font-family="Times,serif" font-size="14.00">has_validator_operator_config</text>
</g>
<!-- ValidatorOperatorConfig::get_human_name&#45;&gt;ValidatorOperatorConfig::has_validator_operator_config -->
<g id="edge7" class="edge">
<title>ValidatorOperatorConfig::get_human_name&#45;&gt;ValidatorOperatorConfig::has_validator_operator_config</title>
<path fill="none" stroke="black" d="M143.78,-245.7C143.78,-237.25 143.78,-226.87 143.78,-217.37"/>
<polygon fill="black" stroke="black" points="147.28,-217.18 143.78,-207.18 140.28,-217.18 147.28,-217.18"/>
</g>
<!-- ValidatorConfig::set_operator&#45;&gt;Errors::invalid_argument -->
<g id="edge9" class="edge">
<title>ValidatorConfig::set_operator&#45;&gt;Errors::invalid_argument</title>
<path fill="none" stroke="black" d="M449.67,-253.38C442.22,-249.77 435.41,-244.81 430.78,-238 412.06,-210.42 414.25,-191.94 430.78,-163 431.66,-161.47 463,-143.15 489.44,-127.87"/>
<polygon fill="black" stroke="black" points="491.26,-130.87 498.17,-122.84 487.76,-124.8 491.26,-130.87"/>
</g>
<!-- ValidatorConfig::set_operator&#45;&gt;Errors::not_published -->
<g id="edge10" class="edge">
<title>ValidatorConfig::set_operator&#45;&gt;Errors::not_published</title>
<path fill="none" stroke="black" d="M445,-256.21C433.19,-252.5 421.48,-246.79 412.78,-238 385.27,-210.22 377.02,-163.93 374.63,-134.47"/>
<polygon fill="black" stroke="black" points="378.12,-134.2 373.99,-124.44 371.13,-134.64 378.12,-134.2"/>
</g>
<!-- ValidatorConfig::set_operator&#45;&gt;ValidatorOperatorConfig::has_validator_operator_config -->
<g id="edge12" class="edge">
<title>ValidatorConfig::set_operator&#45;&gt;ValidatorOperatorConfig::has_validator_operator_config</title>
<path fill="none" stroke="black" d="M440.72,-260.55C395.77,-257.63 329.88,-251.34 273.78,-238 245.16,-231.2 214.23,-219.94 189.72,-210.04"/>
<polygon fill="black" stroke="black" points="190.89,-206.74 180.31,-206.18 188.24,-213.22 190.89,-206.74"/>
</g>
<!-- Signer::address_of -->
<g id="node9" class="node">
<title>Signer::address_of</title>
<ellipse fill="none" stroke="black" cx="813.78" cy="-106" rx="48.99" ry="18"/>
<text text-anchor="middle" x="813.78" y="-102.3" font-family="Times,serif" font-size="14.00">address_of</text>
</g>
<!-- ValidatorConfig::set_operator&#45;&gt;Signer::address_of -->
<g id="edge8" class="edge">
<title>ValidatorConfig::set_operator&#45;&gt;Signer::address_of</title>
<path fill="none" stroke="black" d="M547.69,-263.33C606.35,-262.63 695.31,-258.12 721.78,-238 750.37,-216.28 731.26,-192.46 751.78,-163 760.65,-150.26 772.94,-138.39 784.24,-128.88"/>
<polygon fill="black" stroke="black" points="786.67,-131.42 792.23,-122.4 782.26,-125.98 786.67,-131.42"/>
</g>
<!-- Roles::assert_validator -->
<g id="node10" class="node">
<title>Roles::assert_validator</title>
<ellipse fill="none" stroke="black" cx="643.78" cy="-189" rx="66.09" ry="18"/>
<text text-anchor="middle" x="643.78" y="-185.3" font-family="Times,serif" font-size="14.00">assert_validator</text>
</g>
<!-- ValidatorConfig::set_operator&#45;&gt;Roles::assert_validator -->
<g id="edge11" class="edge">
<title>ValidatorConfig::set_operator&#45;&gt;Roles::assert_validator</title>
<path fill="none" stroke="black" d="M532.52,-251.28C543.47,-247.5 555.26,-242.99 565.78,-238 581.57,-230.51 598.18,-220.6 612,-211.73"/>
<polygon fill="black" stroke="black" points="614.18,-214.49 620.64,-206.09 610.35,-208.63 614.18,-214.49"/>
</g>
<!-- Option::some -->
<g id="node11" class="node">
<title>Option::some</title>
<ellipse fill="none" stroke="black" cx="315.78" cy="-189" rx="29.8" ry="18"/>
<text text-anchor="middle" x="315.78" y="-185.3" font-family="Times,serif" font-size="14.00">some</text>
</g>
<!-- ValidatorConfig::set_operator&#45;&gt;Option::some -->
<g id="edge13" class="edge">
<title>ValidatorConfig::set_operator&#45;&gt;Option::some</title>
<path fill="none" stroke="black" d="M440.56,-260.89C414.83,-257.97 384.3,-251.61 359.78,-238 349.19,-232.12 339.75,-222.75 332.36,-213.84"/>
<polygon fill="black" stroke="black" points="335.08,-211.64 326.17,-205.9 329.56,-215.94 335.08,-211.64"/>
</g>
<!-- ValidatorConfig::exists_config -->
<g id="node12" class="node">
<title>ValidatorConfig::exists_config</title>
<ellipse fill="none" stroke="black" cx="496.78" cy="-189" rx="57.39" ry="18"/>
<text text-anchor="middle" x="496.78" y="-185.3" font-family="Times,serif" font-size="14.00">exists_config</text>
</g>
<!-- ValidatorConfig::set_operator&#45;&gt;ValidatorConfig::exists_config -->
<g id="edge14" class="edge">
<title>ValidatorConfig::set_operator&#45;&gt;ValidatorConfig::exists_config</title>
<path fill="none" stroke="black" d="M494.49,-245.7C494.84,-237.25 495.27,-226.87 495.66,-217.37"/>
<polygon fill="black" stroke="black" points="499.16,-217.31 496.08,-207.18 492.17,-217.02 499.16,-217.31"/>
</g>
<!-- Errors::make -->
<g id="node13" class="node">
<title>Errors::make</title>
<ellipse fill="none" stroke="black" cx="525.78" cy="-34" rx="30.59" ry="18"/>
<text text-anchor="middle" x="525.78" y="-30.3" font-family="Times,serif" font-size="14.00">make</text>
</g>
<!-- Errors::invalid_argument&#45;&gt;Errors::make -->
<g id="edge15" class="edge">
<title>Errors::invalid_argument&#45;&gt;Errors::make</title>
<path fill="none" stroke="black" d="M525.78,-87.7C525.78,-79.98 525.78,-70.71 525.78,-62.11"/>
<polygon fill="black" stroke="black" points="529.28,-62.1 525.78,-52.1 522.28,-62.1 529.28,-62.1"/>
</g>
<!-- SlidingNonce::try_record_nonce&#45;&gt;Errors::not_published -->
<g id="edge17" class="edge">
<title>SlidingNonce::try_record_nonce&#45;&gt;Errors::not_published</title>
<path fill="none" stroke="black" d="M821.41,-177.26C791.94,-172.01 755.02,-166.15 721.78,-163 691.02,-160.09 473.16,-164.57 443.78,-155 427.73,-149.77 412.03,-139.61 399.58,-129.98"/>
<polygon fill="black" stroke="black" points="401.49,-127.02 391.51,-123.46 397.09,-132.47 401.49,-127.02"/>
</g>
<!-- SlidingNonce::try_record_nonce&#45;&gt;Signer::address_of -->
<g id="edge16" class="edge">
<title>SlidingNonce::try_record_nonce&#45;&gt;Signer::address_of</title>
<path fill="none" stroke="black" d="M863.73,-171.22C854.8,-159.74 842.82,-144.33 832.83,-131.49"/>
<polygon fill="black" stroke="black" points="835.51,-129.23 826.6,-123.48 829.98,-133.53 835.51,-129.23"/>
</g>
<!-- Errors::not_published&#45;&gt;Errors::make -->
<g id="edge18" class="edge">
<title>Errors::not_published&#45;&gt;Errors::make</title>
<path fill="none" stroke="black" d="M405.28,-90.5C430.88,-78.71 466.88,-62.13 492.85,-50.16"/>
<polygon fill="black" stroke="black" points="494.66,-53.19 502.28,-45.82 491.73,-46.83 494.66,-53.19"/>
</g>
<!-- Signer::borrow_address -->
<g id="node14" class="node">
<title>Signer::borrow_address</title>
<ellipse fill="none" stroke="black" cx="822.78" cy="-34" rx="66.89" ry="18"/>
<text text-anchor="middle" x="822.78" y="-30.3" font-family="Times,serif" font-size="14.00">borrow_address</text>
</g>
<!-- Signer::address_of&#45;&gt;Signer::borrow_address -->
<g id="edge19" class="edge">
<title>Signer::address_of&#45;&gt;Signer::borrow_address</title>
<path fill="none" stroke="black" d="M816.01,-87.7C817,-79.98 818.19,-70.71 819.3,-62.11"/>
<polygon fill="black" stroke="black" points="822.78,-62.47 820.58,-52.1 815.84,-61.58 822.78,-62.47"/>
</g>
<!-- Roles::assert_validator&#45;&gt;Errors::not_published -->
<g id="edge21" class="edge">
<title>Roles::assert_validator&#45;&gt;Errors::not_published</title>
<path fill="none" stroke="black" d="M606.57,-174.03C593.81,-169.79 579.33,-165.58 565.78,-163 512.4,-152.85 495.13,-172.78 443.78,-155 427.83,-149.48 412.14,-139.28 399.67,-129.71"/>
<polygon fill="black" stroke="black" points="401.58,-126.76 391.58,-123.24 397.2,-132.22 401.58,-126.76"/>
</g>
<!-- Roles::assert_validator&#45;&gt;Signer::address_of -->
<g id="edge20" class="edge">
<title>Roles::assert_validator&#45;&gt;Signer::address_of</title>
<path fill="none" stroke="black" d="M686.71,-175.15C708.88,-168.25 733.42,-160.13 743.78,-155 758.48,-147.72 773.63,-137.7 786.06,-128.69"/>
<polygon fill="black" stroke="black" points="788.24,-131.43 794.19,-122.66 784.08,-125.81 788.24,-131.43"/>
</g>
<!-- Errors::requires_role -->
<g id="node15" class="node">
<title>Errors::requires_role</title>
<ellipse fill="none" stroke="black" cx="674.78" cy="-106" rx="57.39" ry="18"/>
<text text-anchor="middle" x="674.78" y="-102.3" font-family="Times,serif" font-size="14.00">requires_role</text>
</g>
<!-- Roles::assert_validator&#45;&gt;Errors::requires_role -->
<g id="edge22" class="edge">
<title>Roles::assert_validator&#45;&gt;Errors::requires_role</title>
<path fill="none" stroke="black" d="M650.36,-170.82C654.47,-160.08 659.85,-146.03 664.51,-133.84"/>
<polygon fill="black" stroke="black" points="667.91,-134.74 668.22,-124.15 661.37,-132.24 667.91,-134.74"/>
</g>
<!-- Vector::singleton -->
<g id="node16" class="node">
<title>Vector::singleton</title>
<ellipse fill="none" stroke="black" cx="241.78" cy="-106" rx="42.79" ry="18"/>
<text text-anchor="middle" x="241.78" y="-102.3" font-family="Times,serif" font-size="14.00">singleton</text>
</g>
<!-- Option::some&#45;&gt;Vector::singleton -->
<g id="edge23" class="edge">
<title>Option::some&#45;&gt;Vector::singleton</title>
<path fill="none" stroke="black" d="M301.86,-172.76C291.01,-160.89 275.76,-144.19 263.33,-130.59"/>
<polygon fill="black" stroke="black" points="265.73,-128.02 256.4,-123 260.56,-132.74 265.73,-128.02"/>
</g>
<!-- Errors::requires_role&#45;&gt;Errors::make -->
<g id="edge24" class="edge">
<title>Errors::requires_role&#45;&gt;Errors::make</title>
<path fill="none" stroke="black" d="M644.27,-90.67C619.21,-78.89 583.79,-62.25 558.22,-50.24"/>
<polygon fill="black" stroke="black" points="559.48,-46.96 548.94,-45.88 556.5,-53.3 559.48,-46.96"/>
</g>
<!-- Vector::empty -->
<g id="node17" class="node">
<title>Vector::empty</title>
<ellipse fill="none" stroke="black" cx="142.78" cy="-34" rx="33.29" ry="18"/>
<text text-anchor="middle" x="142.78" y="-30.3" font-family="Times,serif" font-size="14.00">empty</text>
</g>
<!-- Vector::singleton&#45;&gt;Vector::empty -->
<g id="edge25" class="edge">
<title>Vector::singleton&#45;&gt;Vector::empty</title>
<path fill="none" stroke="black" d="M220.79,-90.15C206.23,-79.86 186.68,-66.04 170.79,-54.81"/>
<polygon fill="black" stroke="black" points="172.59,-51.79 162.4,-48.87 168.55,-57.5 172.59,-51.79"/>
</g>
<!-- Vector::push_back -->
<g id="node18" class="node">
<title>Vector::push_back</title>
<ellipse fill="none" stroke="black" cx="241.78" cy="-34" rx="48.19" ry="18"/>
<text text-anchor="middle" x="241.78" y="-30.3" font-family="Times,serif" font-size="14.00">push_back</text>
</g>
<!-- Vector::singleton&#45;&gt;Vector::push_back -->
<g id="edge26" class="edge">
<title>Vector::singleton&#45;&gt;Vector::push_back</title>
<path fill="none" stroke="black" d="M241.78,-87.7C241.78,-79.98 241.78,-70.71 241.78,-62.11"/>
<polygon fill="black" stroke="black" points="245.28,-62.1 241.78,-52.1 238.28,-62.1 245.28,-62.1"/>
</g>
</g>
</svg>
