<?xml version="1.0" encoding="UTF-8" standalone="no"?>
<!DOCTYPE svg PUBLIC "-//W3C//DTD SVG 1.1//EN"
 "http://www.w3.org/Graphics/SVG/1.1/DTD/svg11.dtd">
<!-- Generated by graphviz version 2.46.1 (20210213.1702)
 -->
<!-- Title: G Pages: 1 -->
<svg width="369pt" height="279pt"
 viewBox="0.00 0.00 368.90 279.00" xmlns="http://www.w3.org/2000/svg" xmlns:xlink="http://www.w3.org/1999/xlink">
<g id="graph0" class="graph" transform="scale(1 1) rotate(0) translate(4 275)">
<title>G</title>
<polygon fill="white" stroke="transparent" points="-4,4 -4,-275 364.9,-275 364.9,4 -4,4"/>
<g id="clust1" class="cluster">
<title>cluster_Errors</title>
<polygon fill="none" stroke="black" points="190.9,-8 190.9,-155 352.9,-155 352.9,-8 190.9,-8"/>
<text text-anchor="middle" x="271.9" y="-139.8" font-family="Times,serif" font-size="14.00">Errors</text>
</g>
<!-- is_same_vasp -->
<g id="node1" class="node">
<title>is_same_vasp</title>
<ellipse fill="none" stroke="black" cx="101.9" cy="-253" rx="59.59" ry="18"/>
<text text-anchor="middle" x="101.9" y="-249.3" font-family="Times,serif" font-size="14.00">is_same_vasp</text>
</g>
<!-- is_vasp -->
<g id="node2" class="node">
<title>is_vasp</title>
<ellipse fill="none" stroke="black" cx="42.9" cy="-181" rx="37.09" ry="18"/>
<text text-anchor="middle" x="42.9" y="-177.3" font-family="Times,serif" font-size="14.00">is_vasp</text>
</g>
<!-- is_same_vasp&#45;&gt;is_vasp -->
<g id="edge1" class="edge">
<title>is_same_vasp&#45;&gt;is_vasp</title>
<path fill="none" stroke="black" d="M87.91,-235.41C80.46,-226.57 71.16,-215.53 62.95,-205.79"/>
<polygon fill="black" stroke="black" points="65.49,-203.38 56.37,-197.99 60.14,-207.89 65.49,-203.38"/>
</g>
<!-- parent_address -->
<g id="node3" class="node">
<title>parent_address</title>
<ellipse fill="none" stroke="black" cx="161.9" cy="-181" rx="63.89" ry="18"/>
<text text-anchor="middle" x="161.9" y="-177.3" font-family="Times,serif" font-size="14.00">parent_address</text>
</g>
<!-- is_same_vasp&#45;&gt;parent_address -->
<g id="edge2" class="edge">
<title>is_same_vasp&#45;&gt;parent_address</title>
<path fill="none" stroke="black" d="M116.12,-235.41C123.48,-226.82 132.62,-216.16 140.79,-206.63"/>
<polygon fill="black" stroke="black" points="143.51,-208.83 147.36,-198.96 138.2,-204.27 143.51,-208.83"/>
</g>
<!-- is_child -->
<g id="node4" class="node">
<title>is_child</title>
<ellipse fill="none" stroke="black" cx="141.9" cy="-106" rx="38.19" ry="18"/>
<text text-anchor="middle" x="141.9" y="-102.3" font-family="Times,serif" font-size="14.00">is_child</text>
</g>
<!-- is_vasp&#45;&gt;is_child -->
<g id="edge3" class="edge">
<title>is_vasp&#45;&gt;is_child</title>
<path fill="none" stroke="black" d="M70.62,-168.85C78.78,-165.01 87.49,-160.31 94.9,-155 104.62,-148.03 114.1,-138.93 121.97,-130.54"/>
<polygon fill="black" stroke="black" points="124.58,-132.87 128.7,-123.11 119.39,-128.17 124.58,-132.87"/>
</g>
<!-- is_parent -->
<g id="node5" class="node">
<title>is_parent</title>
<ellipse fill="none" stroke="black" cx="42.9" cy="-106" rx="42.79" ry="18"/>
<text text-anchor="middle" x="42.9" y="-102.3" font-family="Times,serif" font-size="14.00">is_parent</text>
</g>
<!-- is_vasp&#45;&gt;is_parent -->
<g id="edge4" class="edge">
<title>is_vasp&#45;&gt;is_parent</title>
<path fill="none" stroke="black" d="M42.9,-162.7C42.9,-154.25 42.9,-143.87 42.9,-134.37"/>
<polygon fill="black" stroke="black" points="46.4,-134.18 42.9,-124.18 39.4,-134.18 46.4,-134.18"/>
</g>
<!-- parent_address&#45;&gt;is_child -->
<g id="edge6" class="edge">
<title>parent_address&#45;&gt;is_child</title>
<path fill="none" stroke="black" d="M157.16,-162.7C154.8,-154.09 151.89,-143.49 149.25,-133.86"/>
<polygon fill="black" stroke="black" points="152.55,-132.64 146.53,-123.92 145.8,-134.49 152.55,-132.64"/>
</g>
<!-- parent_address&#45;&gt;is_parent -->
<g id="edge7" class="edge">
<title>parent_address&#45;&gt;is_parent</title>
<path fill="none" stroke="black" d="M120.32,-167.36C111.62,-163.93 102.72,-159.81 94.9,-155 84.05,-148.33 73.46,-139.19 64.7,-130.68"/>
<polygon fill="black" stroke="black" points="67.04,-128.07 57.51,-123.44 62.07,-133 67.04,-128.07"/>
</g>
<!-- Errors::invalid_argument -->
<g id="node6" class="node">
<title>Errors::invalid_argument</title>
<ellipse fill="none" stroke="black" cx="271.9" cy="-106" rx="73.39" ry="18"/>
<text text-anchor="middle" x="271.9" y="-102.3" font-family="Times,serif" font-size="14.00">invalid_argument</text>
</g>
<!-- parent_address&#45;&gt;Errors::invalid_argument -->
<g id="edge5" class="edge">
<title>parent_address&#45;&gt;Errors::invalid_argument</title>
<path fill="none" stroke="black" d="M185.76,-164.16C201.37,-153.8 221.96,-140.14 239.09,-128.77"/>
<polygon fill="black" stroke="black" points="241.3,-131.51 247.69,-123.06 237.43,-125.67 241.3,-131.51"/>
</g>
<!-- Errors::make -->
<g id="node7" class="node">
<title>Errors::make</title>
<ellipse fill="none" stroke="black" cx="271.9" cy="-34" rx="30.59" ry="18"/>
<text text-anchor="middle" x="271.9" y="-30.3" font-family="Times,serif" font-size="14.00">make</text>
</g>
<!-- Errors::invalid_argument&#45;&gt;Errors::make -->
<g id="edge8" class="edge">
<title>Errors::invalid_argument&#45;&gt;Errors::make</title>
<path fill="none" stroke="black" d="M271.9,-87.7C271.9,-79.98 271.9,-70.71 271.9,-62.11"/>
<polygon fill="black" stroke="black" points="275.4,-62.1 271.9,-52.1 268.4,-62.1 275.4,-62.1"/>
</g>
</g>
</svg>
