<?xml version="1.0" encoding="UTF-8" standalone="no"?>
<!DOCTYPE svg PUBLIC "-//W3C//DTD SVG 1.1//EN"
 "http://www.w3.org/Graphics/SVG/1.1/DTD/svg11.dtd">
<!-- Generated by graphviz version 2.46.1 (20210213.1702)
 -->
<!-- Title: G Pages: 1 -->
<svg width="1114pt" height="290pt"
 viewBox="0.00 0.00 1114.35 290.00" xmlns="http://www.w3.org/2000/svg" xmlns:xlink="http://www.w3.org/1999/xlink">
<g id="graph0" class="graph" transform="scale(1 1) rotate(0) translate(4 286)">
<title>G</title>
<polygon fill="white" stroke="transparent" points="-4,4 -4,-286 1110.35,-286 1110.35,4 -4,4"/>
<g id="clust1" class="cluster">
<title>cluster_Signer</title>
<polygon fill="none" stroke="black" points="8,-8 8,-155 158,-155 158,-8 8,-8"/>
<text text-anchor="middle" x="83" y="-139.8" font-family="Times,serif" font-size="14.00">Signer</text>
</g>
<g id="clust2" class="cluster">
<title>cluster_Errors</title>
<polygon fill="none" stroke="black" points="166,-8 166,-155 916,-155 916,-8 166,-8"/>
<text text-anchor="middle" x="541" y="-139.8" font-family="Times,serif" font-size="14.00">Errors</text>
</g>
<g id="clust3" class="cluster">
<title>cluster_Roles</title>
<polygon fill="none" stroke="black" points="126,-163 126,-238 534,-238 534,-163 126,-163"/>
<text text-anchor="middle" x="330" y="-222.8" font-family="Times,serif" font-size="14.00">Roles</text>
</g>
<!-- publish_child_vasp_credential -->
<g id="node1" class="node">
<title>publish_child_vasp_credential</title>
<ellipse fill="none" stroke="black" cx="592" cy="-264" rx="118.08" ry="18"/>
<text text-anchor="middle" x="592" y="-260.3" font-family="Times,serif" font-size="14.00">publish_child_vasp_credential</text>
</g>
<!-- Signer::address_of -->
<g id="node2" class="node">
<title>Signer::address_of</title>
<ellipse fill="none" stroke="black" cx="101" cy="-106" rx="48.99" ry="18"/>
<text text-anchor="middle" x="101" y="-102.3" font-family="Times,serif" font-size="14.00">address_of</text>
</g>
<!-- publish_child_vasp_credential&#45;&gt;Signer::address_of -->
<g id="edge1" class="edge">
<title>publish_child_vasp_credential&#45;&gt;Signer::address_of</title>
<path fill="none" stroke="black" d="M475.85,-260.44C340.93,-256.93 135.01,-249.7 122,-238 93.48,-212.35 93.18,-164.63 96.45,-134.41"/>
<polygon fill="black" stroke="black" points="99.97,-134.51 97.77,-124.14 93.03,-133.61 99.97,-134.51"/>
</g>
<!-- Errors::already_published -->
<g id="node3" class="node">
<title>Errors::already_published</title>
<ellipse fill="none" stroke="black" cx="668" cy="-106" rx="75.29" ry="18"/>
<text text-anchor="middle" x="668" y="-102.3" font-family="Times,serif" font-size="14.00">already_published</text>
</g>
<!-- publish_child_vasp_credential&#45;&gt;Errors::already_published -->
<g id="edge2" class="edge">
<title>publish_child_vasp_credential&#45;&gt;Errors::already_published</title>
<path fill="none" stroke="black" d="M600.28,-246.01C613.53,-218.81 639.59,-165.31 655.24,-133.2"/>
<polygon fill="black" stroke="black" points="658.5,-134.49 659.73,-123.97 652.21,-131.43 658.5,-134.49"/>
</g>
<!-- Errors::invalid_argument -->
<g id="node4" class="node">
<title>Errors::invalid_argument</title>
<ellipse fill="none" stroke="black" cx="835" cy="-106" rx="73.39" ry="18"/>
<text text-anchor="middle" x="835" y="-102.3" font-family="Times,serif" font-size="14.00">invalid_argument</text>
</g>
<!-- publish_child_vasp_credential&#45;&gt;Errors::invalid_argument -->
<g id="edge3" class="edge">
<title>publish_child_vasp_credential&#45;&gt;Errors::invalid_argument</title>
<path fill="none" stroke="black" d="M620.81,-246.54C625.57,-243.73 630.44,-240.81 635,-238 695.08,-200.89 763.64,-155.25 802.87,-128.8"/>
<polygon fill="black" stroke="black" points="804.92,-131.64 811.25,-123.14 801.01,-125.84 804.92,-131.64"/>
</g>
<!-- Errors::limit_exceeded -->
<g id="node5" class="node">
<title>Errors::limit_exceeded</title>
<ellipse fill="none" stroke="black" cx="510" cy="-106" rx="64.99" ry="18"/>
<text text-anchor="middle" x="510" y="-102.3" font-family="Times,serif" font-size="14.00">limit_exceeded</text>
</g>
<!-- publish_child_vasp_credential&#45;&gt;Errors::limit_exceeded -->
<g id="edge4" class="edge">
<title>publish_child_vasp_credential&#45;&gt;Errors::limit_exceeded</title>
<path fill="none" stroke="black" d="M583.07,-246.01C568.77,-218.81 540.65,-165.31 523.77,-133.2"/>
<polygon fill="black" stroke="black" points="526.67,-131.19 518.92,-123.97 520.48,-134.45 526.67,-131.19"/>
</g>
<!-- Roles::assert_child_vasp_role -->
<g id="node6" class="node">
<title>Roles::assert_child_vasp_role</title>
<ellipse fill="none" stroke="black" cx="435" cy="-189" rx="90.98" ry="18"/>
<text text-anchor="middle" x="435" y="-185.3" font-family="Times,serif" font-size="14.00">assert_child_vasp_role</text>
</g>
<!-- publish_child_vasp_credential&#45;&gt;Roles::assert_child_vasp_role -->
<g id="edge5" class="edge">
<title>publish_child_vasp_credential&#45;&gt;Roles::assert_child_vasp_role</title>
<path fill="none" stroke="black" d="M556.77,-246.62C533.52,-235.81 502.91,-221.57 478.19,-210.08"/>
<polygon fill="black" stroke="black" points="479.58,-206.87 469.04,-205.83 476.63,-213.22 479.58,-206.87"/>
</g>
<!-- Roles::assert_parent_vasp_role -->
<g id="node7" class="node">
<title>Roles::assert_parent_vasp_role</title>
<ellipse fill="none" stroke="black" cx="230" cy="-189" rx="95.58" ry="18"/>
<text text-anchor="middle" x="230" y="-185.3" font-family="Times,serif" font-size="14.00">assert_parent_vasp_role</text>
</g>
<!-- publish_child_vasp_credential&#45;&gt;Roles::assert_parent_vasp_role -->
<g id="edge6" class="edge">
<title>publish_child_vasp_credential&#45;&gt;Roles::assert_parent_vasp_role</title>
<path fill="none" stroke="black" d="M476.68,-259.93C431.86,-256.64 380.45,-250.23 335,-238 311.88,-231.78 287.47,-220.91 268.02,-211.09"/>
<polygon fill="black" stroke="black" points="269.38,-207.86 258.89,-206.38 266.17,-214.08 269.38,-207.86"/>
</g>
<!-- is_parent -->
<g id="node8" class="node">
<title>is_parent</title>
<ellipse fill="none" stroke="black" cx="969" cy="-106" rx="42.79" ry="18"/>
<text text-anchor="middle" x="969" y="-102.3" font-family="Times,serif" font-size="14.00">is_parent</text>
</g>
<!-- publish_child_vasp_credential&#45;&gt;is_parent -->
<g id="edge7" class="edge">
<title>publish_child_vasp_credential&#45;&gt;is_parent</title>
<path fill="none" stroke="black" d="M665.72,-249.92C735.44,-235.06 840.89,-205.99 920,-155 930.27,-148.38 940.18,-139.36 948.36,-130.92"/>
<polygon fill="black" stroke="black" points="951.1,-133.12 955.36,-123.42 945.98,-128.35 951.1,-133.12"/>
</g>
<!-- is_vasp -->
<g id="node9" class="node">
<title>is_vasp</title>
<ellipse fill="none" stroke="black" cx="969" cy="-189" rx="37.09" ry="18"/>
<text text-anchor="middle" x="969" y="-185.3" font-family="Times,serif" font-size="14.00">is_vasp</text>
</g>
<!-- publish_child_vasp_credential&#45;&gt;is_vasp -->
<g id="edge8" class="edge">
<title>publish_child_vasp_credential&#45;&gt;is_vasp</title>
<path fill="none" stroke="black" d="M708.29,-260.45C756.2,-257.28 811.88,-250.83 861,-238 887.34,-231.12 915.39,-218.48 936.3,-207.9"/>
<polygon fill="black" stroke="black" points="938.09,-210.91 945.37,-203.21 934.88,-204.69 938.09,-210.91"/>
</g>
<!-- Signer::borrow_address -->
<g id="node10" class="node">
<title>Signer::borrow_address</title>
<ellipse fill="none" stroke="black" cx="83" cy="-34" rx="66.89" ry="18"/>
<text text-anchor="middle" x="83" y="-30.3" font-family="Times,serif" font-size="14.00">borrow_address</text>
</g>
<!-- Signer::address_of&#45;&gt;Signer::borrow_address -->
<g id="edge9" class="edge">
<title>Signer::address_of&#45;&gt;Signer::borrow_address</title>
<path fill="none" stroke="black" d="M96.64,-88.05C94.64,-80.26 92.21,-70.82 89.96,-62.08"/>
<polygon fill="black" stroke="black" points="93.32,-61.09 87.44,-52.28 86.54,-62.83 93.32,-61.09"/>
</g>
<!-- Errors::make -->
<g id="node11" class="node">
<title>Errors::make</title>
<ellipse fill="none" stroke="black" cx="510" cy="-34" rx="30.59" ry="18"/>
<text text-anchor="middle" x="510" y="-30.3" font-family="Times,serif" font-size="14.00">make</text>
</g>
<!-- Errors::already_published&#45;&gt;Errors::make -->
<g id="edge10" class="edge">
<title>Errors::already_published&#45;&gt;Errors::make</title>
<path fill="none" stroke="black" d="M633.72,-89.81C606.88,-77.92 569.78,-61.48 543.22,-49.72"/>
<polygon fill="black" stroke="black" points="544.51,-46.46 533.95,-45.61 541.67,-52.86 544.51,-46.46"/>
</g>
<!-- Errors::invalid_argument&#45;&gt;Errors::make -->
<g id="edge11" class="edge">
<title>Errors::invalid_argument&#45;&gt;Errors::make</title>
<path fill="none" stroke="black" d="M781.7,-93.52C715.95,-79.36 605.83,-55.64 548.04,-43.19"/>
<polygon fill="black" stroke="black" points="548.73,-39.76 538.21,-41.08 547.25,-46.6 548.73,-39.76"/>
</g>
<!-- Errors::limit_exceeded&#45;&gt;Errors::make -->
<g id="edge12" class="edge">
<title>Errors::limit_exceeded&#45;&gt;Errors::make</title>
<path fill="none" stroke="black" d="M510,-87.7C510,-79.98 510,-70.71 510,-62.11"/>
<polygon fill="black" stroke="black" points="513.5,-62.1 510,-52.1 506.5,-62.1 513.5,-62.1"/>
</g>
<!-- Roles::assert_child_vasp_role&#45;&gt;Signer::address_of -->
<g id="edge13" class="edge">
<title>Roles::assert_child_vasp_role&#45;&gt;Signer::address_of</title>
<path fill="none" stroke="black" d="M386.31,-173.77C370.12,-169.59 351.91,-165.48 335,-163 296.92,-157.42 198.07,-168.43 162,-155 147.91,-149.75 134.52,-139.96 123.89,-130.59"/>
<polygon fill="black" stroke="black" points="126.04,-127.81 116.33,-123.58 121.28,-132.95 126.04,-127.81"/>
</g>
<!-- Errors::not_published -->
<g id="node12" class="node">
<title>Errors::not_published</title>
<ellipse fill="none" stroke="black" cx="234" cy="-106" rx="60.39" ry="18"/>
<text text-anchor="middle" x="234" y="-102.3" font-family="Times,serif" font-size="14.00">not_published</text>
</g>
<!-- Roles::assert_child_vasp_role&#45;&gt;Errors::not_published -->
<g id="edge14" class="edge">
<title>Roles::assert_child_vasp_role&#45;&gt;Errors::not_published</title>
<path fill="none" stroke="black" d="M380.77,-174.45C345.15,-165.53 304.95,-155.43 304,-155 289.05,-148.25 273.87,-138.3 261.48,-129.2"/>
<polygon fill="black" stroke="black" points="263.48,-126.32 253.39,-123.09 259.26,-131.91 263.48,-126.32"/>
</g>
<!-- Errors::requires_role -->
<g id="node13" class="node">
<title>Errors::requires_role</title>
<ellipse fill="none" stroke="black" cx="370" cy="-106" rx="57.39" ry="18"/>
<text text-anchor="middle" x="370" y="-102.3" font-family="Times,serif" font-size="14.00">requires_role</text>
</g>
<!-- Roles::assert_child_vasp_role&#45;&gt;Errors::requires_role -->
<g id="edge15" class="edge">
<title>Roles::assert_child_vasp_role&#45;&gt;Errors::requires_role</title>
<path fill="none" stroke="black" d="M421.22,-170.82C412.04,-159.39 399.86,-144.21 389.67,-131.51"/>
<polygon fill="black" stroke="black" points="392.31,-129.21 383.32,-123.6 386.85,-133.59 392.31,-129.21"/>
</g>
<!-- Roles::assert_parent_vasp_role&#45;&gt;Signer::address_of -->
<g id="edge16" class="edge">
<title>Roles::assert_parent_vasp_role&#45;&gt;Signer::address_of</title>
<path fill="none" stroke="black" d="M193.93,-172.27C183.39,-167.2 172.01,-161.27 162,-155 149.92,-147.44 137.42,-137.94 126.89,-129.39"/>
<polygon fill="black" stroke="black" points="128.86,-126.47 118.93,-122.79 124.4,-131.86 128.86,-126.47"/>
</g>
<!-- Roles::assert_parent_vasp_role&#45;&gt;Errors::not_published -->
<g id="edge17" class="edge">
<title>Roles::assert_parent_vasp_role&#45;&gt;Errors::not_published</title>
<path fill="none" stroke="black" d="M230.85,-170.82C231.37,-160.19 232.06,-146.31 232.66,-134.2"/>
<polygon fill="black" stroke="black" points="236.16,-134.31 233.15,-124.15 229.16,-133.97 236.16,-134.31"/>
</g>
<!-- Roles::assert_parent_vasp_role&#45;&gt;Errors::requires_role -->
<g id="edge18" class="edge">
<title>Roles::assert_parent_vasp_role&#45;&gt;Errors::requires_role</title>
<path fill="none" stroke="black" d="M268.22,-172.43C279.64,-167.32 292.04,-161.32 303,-155 316.27,-147.35 330.15,-137.71 341.82,-129.07"/>
<polygon fill="black" stroke="black" points="343.99,-131.82 349.88,-123.01 339.78,-126.22 343.99,-131.82"/>
</g>
<!-- is_vasp&#45;&gt;is_parent -->
<g id="edge20" class="edge">
<title>is_vasp&#45;&gt;is_parent</title>
<path fill="none" stroke="black" d="M969,-170.82C969,-160.19 969,-146.31 969,-134.2"/>
<polygon fill="black" stroke="black" points="972.5,-134.15 969,-124.15 965.5,-134.15 972.5,-134.15"/>
</g>
<!-- is_child -->
<g id="node14" class="node">
<title>is_child</title>
<ellipse fill="none" stroke="black" cx="1068" cy="-106" rx="38.19" ry="18"/>
<text text-anchor="middle" x="1068" y="-102.3" font-family="Times,serif" font-size="14.00">is_child</text>
</g>
<!-- is_vasp&#45;&gt;is_child -->
<g id="edge19" class="edge">
<title>is_vasp&#45;&gt;is_child</title>
<path fill="none" stroke="black" d="M992.31,-174.79C1001.57,-169.15 1012.11,-162.2 1021,-155 1030.07,-147.66 1039.22,-138.72 1047.02,-130.56"/>
<polygon fill="black" stroke="black" points="1049.76,-132.76 1054.02,-123.06 1044.64,-127.98 1049.76,-132.76"/>
</g>
<!-- Errors::not_published&#45;&gt;Errors::make -->
<g id="edge21" class="edge">
<title>Errors::not_published&#45;&gt;Errors::make</title>
<path fill="none" stroke="black" d="M278.34,-93.75C332.23,-80.09 422.19,-57.27 472.69,-44.46"/>
<polygon fill="black" stroke="black" points="473.71,-47.82 482.54,-41.96 471.99,-41.03 473.71,-47.82"/>
</g>
<!-- Errors::requires_role&#45;&gt;Errors::make -->
<g id="edge22" class="edge">
<title>Errors::requires_role&#45;&gt;Errors::make</title>
<path fill="none" stroke="black" d="M399.35,-90.33C422.42,-78.79 454.52,-62.74 478.2,-50.9"/>
<polygon fill="black" stroke="black" points="479.77,-54.03 487.15,-46.43 476.64,-47.77 479.77,-54.03"/>
</g>
</g>
</svg>
