<?xml version="1.0" encoding="UTF-8" standalone="no"?>
<!DOCTYPE svg PUBLIC "-//W3C//DTD SVG 1.1//EN"
 "http://www.w3.org/Graphics/SVG/1.1/DTD/svg11.dtd">
<!-- Generated by graphviz version 2.46.1 (20210213.1702)
 -->
<!-- Title: G Pages: 1 -->
<svg width="369pt" height="279pt"
 viewBox="0.00 0.00 368.90 279.00" xmlns="http://www.w3.org/2000/svg" xmlns:xlink="http://www.w3.org/1999/xlink">
<g id="graph0" class="graph" transform="scale(1 1) rotate(0) translate(4 275)">
<title>G</title>
<polygon fill="white" stroke="transparent" points="-4,4 -4,-275 364.9,-275 364.9,4 -4,4"/>
<g id="clust1" class="cluster">
<title>cluster_Errors</title>
<polygon fill="none" stroke="black" points="8,-8 8,-155 170,-155 170,-8 8,-8"/>
<text text-anchor="middle" x="89" y="-139.8" font-family="Times,serif" font-size="14.00">Errors</text>
</g>
<!-- num_children -->
<g id="node1" class="node">
<title>num_children</title>
<ellipse fill="none" stroke="black" cx="219" cy="-253" rx="59.59" ry="18"/>
<text text-anchor="middle" x="219" y="-249.3" font-family="Times,serif" font-size="14.00">num_children</text>
</g>
<!-- parent_address -->
<g id="node2" class="node">
<title>parent_address</title>
<ellipse fill="none" stroke="black" cx="219" cy="-181" rx="63.89" ry="18"/>
<text text-anchor="middle" x="219" y="-177.3" font-family="Times,serif" font-size="14.00">parent_address</text>
</g>
<!-- num_children&#45;&gt;parent_address -->
<g id="edge1" class="edge">
<title>num_children&#45;&gt;parent_address</title>
<path fill="none" stroke="black" d="M219,-234.7C219,-226.98 219,-217.71 219,-209.11"/>
<polygon fill="black" stroke="black" points="222.5,-209.1 219,-199.1 215.5,-209.1 222.5,-209.1"/>
</g>
<!-- Errors::invalid_argument -->
<g id="node3" class="node">
<title>Errors::invalid_argument</title>
<ellipse fill="none" stroke="black" cx="89" cy="-106" rx="73.39" ry="18"/>
<text text-anchor="middle" x="89" y="-102.3" font-family="Times,serif" font-size="14.00">invalid_argument</text>
</g>
<!-- parent_address&#45;&gt;Errors::invalid_argument -->
<g id="edge2" class="edge">
<title>parent_address&#45;&gt;Errors::invalid_argument</title>
<path fill="none" stroke="black" d="M190.08,-164.82C184.08,-161.62 177.82,-158.23 172,-155 156.33,-146.31 139.16,-136.43 124.53,-127.91"/>
<polygon fill="black" stroke="black" points="126.18,-124.83 115.78,-122.81 122.65,-130.87 126.18,-124.83"/>
</g>
<!-- is_child -->
<g id="node4" class="node">
<title>is_child</title>
<ellipse fill="none" stroke="black" cx="219" cy="-106" rx="38.19" ry="18"/>
<text text-anchor="middle" x="219" y="-102.3" font-family="Times,serif" font-size="14.00">is_child</text>
</g>
<!-- parent_address&#45;&gt;is_child -->
<g id="edge3" class="edge">
<title>parent_address&#45;&gt;is_child</title>
<path fill="none" stroke="black" d="M219,-162.7C219,-154.25 219,-143.87 219,-134.37"/>
<polygon fill="black" stroke="black" points="222.5,-134.18 219,-124.18 215.5,-134.18 222.5,-134.18"/>
</g>
<!-- is_parent -->
<g id="node5" class="node">
<title>is_parent</title>
<ellipse fill="none" stroke="black" cx="318" cy="-106" rx="42.79" ry="18"/>
<text text-anchor="middle" x="318" y="-102.3" font-family="Times,serif" font-size="14.00">is_parent</text>
</g>
<!-- parent_address&#45;&gt;is_parent -->
<g id="edge4" class="edge">
<title>parent_address&#45;&gt;is_parent</title>
<path fill="none" stroke="black" d="M250.02,-164.96C255.49,-161.9 261.03,-158.53 266,-155 276.23,-147.74 286.57,-138.64 295.31,-130.32"/>
<polygon fill="black" stroke="black" points="297.81,-132.76 302.53,-123.27 292.93,-127.75 297.81,-132.76"/>
</g>
<!-- Errors::make -->
<g id="node6" class="node">
<title>Errors::make</title>
<ellipse fill="none" stroke="black" cx="89" cy="-34" rx="30.59" ry="18"/>
<text text-anchor="middle" x="89" y="-30.3" font-family="Times,serif" font-size="14.00">make</text>
</g>
<!-- Errors::invalid_argument&#45;&gt;Errors::make -->
<g id="edge5" class="edge">
<title>Errors::invalid_argument&#45;&gt;Errors::make</title>
<path fill="none" stroke="black" d="M89,-87.7C89,-79.98 89,-70.71 89,-62.11"/>
<polygon fill="black" stroke="black" points="92.5,-62.1 89,-52.1 85.5,-62.1 92.5,-62.1"/>
</g>
</g>
</svg>
