<?xml version="1.0" encoding="UTF-8" standalone="no"?>
<!DOCTYPE svg PUBLIC "-//W3C//DTD SVG 1.1//EN"
 "http://www.w3.org/Graphics/SVG/1.1/DTD/svg11.dtd">
<!-- Generated by graphviz version 2.46.1 (20210213.1702)
 -->
<!-- Title: G Pages: 1 -->
<svg width="1134pt" height="332pt"
 viewBox="0.00 0.00 1133.98 332.00" xmlns="http://www.w3.org/2000/svg" xmlns:xlink="http://www.w3.org/1999/xlink">
<g id="graph0" class="graph" transform="scale(1 1) rotate(0) translate(4 328)">
<title>G</title>
<polygon fill="white" stroke="transparent" points="-4,4 -4,-328 1129.98,-328 1129.98,4 -4,4"/>
<!-- VASP -->
<g id="node1" class="node">
<title>VASP</title>
<ellipse fill="none" stroke="black" cx="779.35" cy="-18" rx="32.49" ry="18"/>
<text text-anchor="middle" x="779.35" y="-14.3" font-family="Times,serif" font-size="14.00">VASP</text>
</g>
<!-- DualAttestation -->
<g id="node2" class="node">
<title>DualAttestation</title>
<ellipse fill="none" stroke="black" cx="779.35" cy="-90" rx="66.09" ry="18"/>
<text text-anchor="middle" x="779.35" y="-86.3" font-family="Times,serif" font-size="14.00">DualAttestation</text>
</g>
<!-- DualAttestation&#45;&gt;VASP -->
<g id="edge1" class="edge">
<title>DualAttestation&#45;&gt;VASP</title>
<path fill="none" stroke="black" d="M779.35,-71.7C779.35,-63.98 779.35,-54.71 779.35,-46.11"/>
<polygon fill="black" stroke="black" points="782.85,-46.1 779.35,-36.1 775.85,-46.1 782.85,-46.1"/>
</g>
<!-- DiemAccount -->
<g id="node3" class="node">
<title>DiemAccount</title>
<ellipse fill="none" stroke="black" cx="632.35" cy="-162" rx="60.39" ry="18"/>
<text text-anchor="middle" x="632.35" y="-158.3" font-family="Times,serif" font-size="14.00">DiemAccount</text>
</g>
<!-- DiemAccount&#45;&gt;VASP -->
<g id="edge2" class="edge">
<title>DiemAccount&#45;&gt;VASP</title>
<path fill="none" stroke="black" d="M643.86,-144.1C657.15,-125.28 680.27,-94.56 704.35,-72 718.12,-59.09 735.2,-46.78 749.58,-37.28"/>
<polygon fill="black" stroke="black" points="751.64,-40.12 758.13,-31.75 747.84,-34.24 751.64,-40.12"/>
</g>
<!-- DiemAccount&#45;&gt;DualAttestation -->
<g id="edge4" class="edge">
<title>DiemAccount&#45;&gt;DualAttestation</title>
<path fill="none" stroke="black" d="M663.16,-146.33C685.16,-135.85 714.97,-121.66 738.88,-110.27"/>
<polygon fill="black" stroke="black" points="740.54,-113.36 748.06,-105.9 737.53,-107.04 740.54,-113.36"/>
</g>
<!-- RecoveryAddress -->
<g id="node4" class="node">
<title>RecoveryAddress</title>
<ellipse fill="none" stroke="black" cx="1026.35" cy="-234" rx="73.39" ry="18"/>
<text text-anchor="middle" x="1026.35" y="-230.3" font-family="Times,serif" font-size="14.00">RecoveryAddress</text>
</g>
<!-- RecoveryAddress&#45;&gt;VASP -->
<g id="edge3" class="edge">
<title>RecoveryAddress&#45;&gt;VASP</title>
<path fill="none" stroke="black" d="M1009.96,-216.2C980.15,-186 914.59,-121.09 854.35,-72 839.61,-59.99 822.33,-47.67 808.07,-37.93"/>
<polygon fill="black" stroke="black" points="809.88,-34.93 799.63,-32.23 805.96,-40.73 809.88,-34.93"/>
</g>
<!-- RecoveryAddress&#45;&gt;DiemAccount -->
<g id="edge9" class="edge">
<title>RecoveryAddress&#45;&gt;DiemAccount</title>
<path fill="none" stroke="black" d="M972.37,-221.67C962.72,-219.73 952.74,-217.76 943.35,-216 857.17,-199.84 757.15,-183.16 694.31,-172.94"/>
<polygon fill="black" stroke="black" points="694.6,-169.44 684.17,-171.29 693.48,-176.35 694.6,-169.44"/>
</g>
<!-- AccountAdministrationScripts -->
<g id="node5" class="node">
<title>AccountAdministrationScripts</title>
<ellipse fill="none" stroke="black" cx="631.35" cy="-306" rx="118.08" ry="18"/>
<text text-anchor="middle" x="631.35" y="-302.3" font-family="Times,serif" font-size="14.00">AccountAdministrationScripts</text>
</g>
<!-- AccountAdministrationScripts&#45;&gt;DualAttestation -->
<g id="edge5" class="edge">
<title>AccountAdministrationScripts&#45;&gt;DualAttestation</title>
<path fill="none" stroke="black" d="M743.71,-300.26C877.04,-293.47 1084.43,-278.72 1108.35,-252 1189.12,-161.76 967.62,-116.68 848.9,-99.51"/>
<polygon fill="black" stroke="black" points="849.18,-96.02 838.79,-98.08 848.2,-102.95 849.18,-96.02"/>
</g>
<!-- AccountAdministrationScripts&#45;&gt;DiemAccount -->
<g id="edge10" class="edge">
<title>AccountAdministrationScripts&#45;&gt;DiemAccount</title>
<path fill="none" stroke="black" d="M517.54,-301.04C375.87,-294.92 149.24,-280.74 123.35,-252 112.64,-240.11 112.63,-227.89 123.35,-216 152.19,-184 429.48,-170.07 562.21,-165.19"/>
<polygon fill="black" stroke="black" points="562.41,-168.69 572.28,-164.83 562.16,-161.69 562.41,-168.69"/>
</g>
<!-- AccountAdministrationScripts&#45;&gt;RecoveryAddress -->
<g id="edge15" class="edge">
<title>AccountAdministrationScripts&#45;&gt;RecoveryAddress</title>
<path fill="none" stroke="black" d="M709.69,-292.44C772.87,-282.14 863.96,-266.87 943.35,-252 949.51,-250.84 955.93,-249.6 962.34,-248.33"/>
<polygon fill="black" stroke="black" points="963.26,-251.72 972.38,-246.33 961.88,-244.86 963.26,-251.72"/>
</g>
<!-- SharedEd25519PublicKey -->
<g id="node8" class="node">
<title>SharedEd25519PublicKey</title>
<ellipse fill="none" stroke="black" cx="236.35" cy="-234" rx="103.98" ry="18"/>
<text text-anchor="middle" x="236.35" y="-230.3" font-family="Times,serif" font-size="14.00">SharedEd25519PublicKey</text>
</g>
<!-- AccountAdministrationScripts&#45;&gt;SharedEd25519PublicKey -->
<g id="edge16" class="edge">
<title>AccountAdministrationScripts&#45;&gt;SharedEd25519PublicKey</title>
<path fill="none" stroke="black" d="M557.51,-291.92C488.88,-279.75 386.89,-261.68 316.35,-249.18"/>
<polygon fill="black" stroke="black" points="316.63,-245.67 306.17,-247.37 315.41,-252.57 316.63,-245.67"/>
</g>
<!-- Genesis -->
<g id="node6" class="node">
<title>Genesis</title>
<ellipse fill="none" stroke="black" cx="38.35" cy="-234" rx="38.19" ry="18"/>
<text text-anchor="middle" x="38.35" y="-230.3" font-family="Times,serif" font-size="14.00">Genesis</text>
</g>
<!-- Genesis&#45;&gt;DualAttestation -->
<g id="edge6" class="edge">
<title>Genesis&#45;&gt;DualAttestation</title>
<path fill="none" stroke="black" d="M71.71,-224.91C84.13,-221.98 98.36,-218.73 111.35,-216 331.82,-169.72 595.01,-122.94 714.55,-102.15"/>
<polygon fill="black" stroke="black" points="715.38,-105.56 724.64,-100.4 714.18,-98.66 715.38,-105.56"/>
</g>
<!-- Genesis&#45;&gt;DiemAccount -->
<g id="edge12" class="edge">
<title>Genesis&#45;&gt;DiemAccount</title>
<path fill="none" stroke="black" d="M67.47,-222.24C74.85,-219.86 82.82,-217.58 90.35,-216 257.36,-180.97 458.29,-168.99 562.29,-164.97"/>
<polygon fill="black" stroke="black" points="562.49,-168.47 572.35,-164.6 562.23,-161.47 562.49,-168.47"/>
</g>
<!-- TreasuryComplianceScripts -->
<g id="node7" class="node">
<title>TreasuryComplianceScripts</title>
<ellipse fill="none" stroke="black" cx="825.35" cy="-234" rx="109.38" ry="18"/>
<text text-anchor="middle" x="825.35" y="-230.3" font-family="Times,serif" font-size="14.00">TreasuryComplianceScripts</text>
</g>
<!-- TreasuryComplianceScripts&#45;&gt;DualAttestation -->
<g id="edge7" class="edge">
<title>TreasuryComplianceScripts&#45;&gt;DualAttestation</title>
<path fill="none" stroke="black" d="M819.8,-215.87C811.92,-191.56 797.43,-146.82 788.1,-118.01"/>
<polygon fill="black" stroke="black" points="791.33,-116.62 784.91,-108.19 784.67,-118.78 791.33,-116.62"/>
</g>
<!-- TreasuryComplianceScripts&#45;&gt;DiemAccount -->
<g id="edge14" class="edge">
<title>TreasuryComplianceScripts&#45;&gt;DiemAccount</title>
<path fill="none" stroke="black" d="M782.03,-217.29C751.31,-206.15 710.14,-191.21 678.75,-179.83"/>
<polygon fill="black" stroke="black" points="679.94,-176.54 669.34,-176.42 677.55,-183.12 679.94,-176.54"/>
</g>
<!-- SharedEd25519PublicKey&#45;&gt;DiemAccount -->
<g id="edge8" class="edge">
<title>SharedEd25519PublicKey&#45;&gt;DiemAccount</title>
<path fill="none" stroke="black" d="M306.23,-220.65C381.47,-207.35 499.95,-186.4 571.49,-173.76"/>
<polygon fill="black" stroke="black" points="572.45,-177.14 581.69,-171.95 571.23,-170.25 572.45,-177.14"/>
</g>
<!-- AccountCreationScripts -->
<g id="node9" class="node">
<title>AccountCreationScripts</title>
<ellipse fill="none" stroke="black" cx="453.35" cy="-234" rx="94.78" ry="18"/>
<text text-anchor="middle" x="453.35" y="-230.3" font-family="Times,serif" font-size="14.00">AccountCreationScripts</text>
</g>
<!-- AccountCreationScripts&#45;&gt;DiemAccount -->
<g id="edge11" class="edge">
<title>AccountCreationScripts&#45;&gt;DiemAccount</title>
<path fill="none" stroke="black" d="M493.07,-217.46C521.11,-206.5 558.71,-191.8 587.77,-180.43"/>
<polygon fill="black" stroke="black" points="589.23,-183.62 597.27,-176.72 586.68,-177.1 589.23,-183.62"/>
</g>
<!-- PaymentScripts -->
<g id="node10" class="node">
<title>PaymentScripts</title>
<ellipse fill="none" stroke="black" cx="632.35" cy="-234" rx="66.09" ry="18"/>
<text text-anchor="middle" x="632.35" y="-230.3" font-family="Times,serif" font-size="14.00">PaymentScripts</text>
</g>
<!-- PaymentScripts&#45;&gt;DiemAccount -->
<g id="edge13" class="edge">
<title>PaymentScripts&#45;&gt;DiemAccount</title>
<path fill="none" stroke="black" d="M632.35,-215.7C632.35,-207.98 632.35,-198.71 632.35,-190.11"/>
<polygon fill="black" stroke="black" points="635.85,-190.1 632.35,-180.1 628.85,-190.1 635.85,-190.1"/>
</g>
</g>
</svg>
