<?xml version="1.0" encoding="UTF-8" standalone="no"?>
<!DOCTYPE svg PUBLIC "-//W3C//DTD SVG 1.1//EN"
 "http://www.w3.org/Graphics/SVG/1.1/DTD/svg11.dtd">
<!-- Generated by graphviz version 2.46.1 (20210213.1702)
 -->
<!-- Title: G Pages: 1 -->
<svg width="1518pt" height="440pt"
 viewBox="0.00 0.00 1517.90 440.00" xmlns="http://www.w3.org/2000/svg" xmlns:xlink="http://www.w3.org/1999/xlink">
<g id="graph0" class="graph" transform="scale(1 1) rotate(0) translate(4 436)">
<title>G</title>
<polygon fill="white" stroke="transparent" points="-4,4 -4,-436 1513.9,-436 1513.9,4 -4,4"/>
<g id="clust1" class="cluster">
<title>cluster_Signer</title>
<polygon fill="none" stroke="black" points="1214,-8 1214,-155 1364,-155 1364,-8 1214,-8"/>
<text text-anchor="middle" x="1289" y="-139.8" font-family="Times,serif" font-size="14.00">Signer</text>
</g>
<g id="clust2" class="cluster">
<title>cluster_Errors</title>
<polygon fill="none" stroke="black" points="8,-8 8,-155 733,-155 733,-8 8,-8"/>
<text text-anchor="middle" x="370.5" y="-139.8" font-family="Times,serif" font-size="14.00">Errors</text>
</g>
<g id="clust3" class="cluster">
<title>cluster_DiemTimestamp</title>
<polygon fill="none" stroke="black" points="713,-238 713,-388 865,-388 865,-238 713,-238"/>
<text text-anchor="middle" x="789" y="-372.8" font-family="Times,serif" font-size="14.00">DiemTimestamp</text>
</g>
<g id="clust4" class="cluster">
<title>cluster_Roles</title>
<polygon fill="none" stroke="black" points="258,-238 258,-313 701,-313 701,-238 258,-238"/>
<text text-anchor="middle" x="479.5" y="-297.8" font-family="Times,serif" font-size="14.00">Roles</text>
</g>
<g id="clust5" class="cluster">
<title>cluster_CoreAddresses</title>
<polygon fill="none" stroke="black" points="741,-80 741,-230 1206,-230 1206,-80 741,-80"/>
<text text-anchor="middle" x="973.5" y="-214.8" font-family="Times,serif" font-size="14.00">CoreAddresses</text>
</g>
<!-- publish_parent_vasp_credential -->
<g id="node1" class="node">
<title>publish_parent_vasp_credential</title>
<ellipse fill="none" stroke="black" cx="737" cy="-414" rx="122.38" ry="18"/>
<text text-anchor="middle" x="737" y="-410.3" font-family="Times,serif" font-size="14.00">publish_parent_vasp_credential</text>
</g>
<!-- Signer::address_of -->
<g id="node2" class="node">
<title>Signer::address_of</title>
<ellipse fill="none" stroke="black" cx="1271" cy="-106" rx="48.99" ry="18"/>
<text text-anchor="middle" x="1271" y="-102.3" font-family="Times,serif" font-size="14.00">address_of</text>
</g>
<!-- publish_parent_vasp_credential&#45;&gt;Signer::address_of -->
<g id="edge1" class="edge">
<title>publish_parent_vasp_credential&#45;&gt;Signer::address_of</title>
<path fill="none" stroke="black" d="M856.68,-410.26C983.38,-400.12 1177.42,-362.31 1269,-230 1288.42,-201.94 1284.38,-160.99 1278.59,-134.17"/>
<polygon fill="black" stroke="black" points="1281.97,-133.22 1276.25,-124.3 1275.16,-134.84 1281.97,-133.22"/>
</g>
<!-- Errors::already_published -->
<g id="node3" class="node">
<title>Errors::already_published</title>
<ellipse fill="none" stroke="black" cx="91" cy="-106" rx="75.29" ry="18"/>
<text text-anchor="middle" x="91" y="-102.3" font-family="Times,serif" font-size="14.00">already_published</text>
</g>
<!-- publish_parent_vasp_credential&#45;&gt;Errors::already_published -->
<g id="edge2" class="edge">
<title>publish_parent_vasp_credential&#45;&gt;Errors::already_published</title>
<path fill="none" stroke="black" d="M621.87,-407.9C575.55,-404.34 521.87,-398.29 474,-388 373,-366.3 338.38,-372.6 254,-313 184.25,-263.73 129.32,-176.32 104.86,-132.92"/>
<polygon fill="black" stroke="black" points="107.88,-131.16 99.97,-124.12 101.76,-134.56 107.88,-131.16"/>
</g>
<!-- DiemTimestamp::assert_operating -->
<g id="node4" class="node">
<title>DiemTimestamp::assert_operating</title>
<ellipse fill="none" stroke="black" cx="789" cy="-339" rx="68.49" ry="18"/>
<text text-anchor="middle" x="789" y="-335.3" font-family="Times,serif" font-size="14.00">assert_operating</text>
</g>
<!-- publish_parent_vasp_credential&#45;&gt;DiemTimestamp::assert_operating -->
<g id="edge3" class="edge">
<title>publish_parent_vasp_credential&#45;&gt;DiemTimestamp::assert_operating</title>
<path fill="none" stroke="black" d="M749.06,-396.07C755.62,-386.86 763.87,-375.28 771.16,-365.04"/>
<polygon fill="black" stroke="black" points="774.05,-367.01 777,-356.84 768.35,-362.95 774.05,-367.01"/>
</g>
<!-- Roles::assert_treasury_compliance -->
<g id="node5" class="node">
<title>Roles::assert_treasury_compliance</title>
<ellipse fill="none" stroke="black" cx="584" cy="-264" rx="108.58" ry="18"/>
<text text-anchor="middle" x="584" y="-260.3" font-family="Times,serif" font-size="14.00">assert_treasury_compliance</text>
</g>
<!-- publish_parent_vasp_credential&#45;&gt;Roles::assert_treasury_compliance -->
<g id="edge4" class="edge">
<title>publish_parent_vasp_credential&#45;&gt;Roles::assert_treasury_compliance</title>
<path fill="none" stroke="black" d="M717.91,-396.18C714.91,-393.47 711.85,-390.67 709,-388 673.17,-354.41 632.86,-314.31 607.95,-289.25"/>
<polygon fill="black" stroke="black" points="610.26,-286.61 600.73,-281.98 605.29,-291.54 610.26,-286.61"/>
</g>
<!-- Roles::assert_parent_vasp_role -->
<g id="node6" class="node">
<title>Roles::assert_parent_vasp_role</title>
<ellipse fill="none" stroke="black" cx="362" cy="-264" rx="95.58" ry="18"/>
<text text-anchor="middle" x="362" y="-260.3" font-family="Times,serif" font-size="14.00">assert_parent_vasp_role</text>
</g>
<!-- publish_parent_vasp_credential&#45;&gt;Roles::assert_parent_vasp_role -->
<g id="edge5" class="edge">
<title>publish_parent_vasp_credential&#45;&gt;Roles::assert_parent_vasp_role</title>
<path fill="none" stroke="black" d="M672.13,-398.71C660.01,-395.54 647.54,-391.94 636,-388 550.12,-358.67 454.36,-312.37 401.85,-285.73"/>
<polygon fill="black" stroke="black" points="403.38,-282.57 392.88,-281.15 400.2,-288.81 403.38,-282.57"/>
</g>
<!-- is_vasp -->
<g id="node7" class="node">
<title>is_vasp</title>
<ellipse fill="none" stroke="black" cx="1368" cy="-339" rx="37.09" ry="18"/>
<text text-anchor="middle" x="1368" y="-335.3" font-family="Times,serif" font-size="14.00">is_vasp</text>
</g>
<!-- publish_parent_vasp_credential&#45;&gt;is_vasp -->
<g id="edge6" class="edge">
<title>publish_parent_vasp_credential&#45;&gt;is_vasp</title>
<path fill="none" stroke="black" d="M858.64,-412.19C1016.05,-410.46 1275.07,-405.03 1316,-388 1328.58,-382.76 1340.03,-373.05 1348.95,-363.73"/>
<polygon fill="black" stroke="black" points="1351.74,-365.86 1355.83,-356.09 1346.54,-361.18 1351.74,-365.86"/>
</g>
<!-- Signer::borrow_address -->
<g id="node8" class="node">
<title>Signer::borrow_address</title>
<ellipse fill="none" stroke="black" cx="1289" cy="-34" rx="66.89" ry="18"/>
<text text-anchor="middle" x="1289" y="-30.3" font-family="Times,serif" font-size="14.00">borrow_address</text>
</g>
<!-- Signer::address_of&#45;&gt;Signer::borrow_address -->
<g id="edge7" class="edge">
<title>Signer::address_of&#45;&gt;Signer::borrow_address</title>
<path fill="none" stroke="black" d="M1275.36,-88.05C1277.36,-80.26 1279.79,-70.82 1282.04,-62.08"/>
<polygon fill="black" stroke="black" points="1285.46,-62.83 1284.56,-52.28 1278.68,-61.09 1285.46,-62.83"/>
</g>
<!-- Errors::make -->
<g id="node9" class="node">
<title>Errors::make</title>
<ellipse fill="none" stroke="black" cx="381" cy="-34" rx="30.59" ry="18"/>
<text text-anchor="middle" x="381" y="-30.3" font-family="Times,serif" font-size="14.00">make</text>
</g>
<!-- Errors::already_published&#45;&gt;Errors::make -->
<g id="edge8" class="edge">
<title>Errors::already_published&#45;&gt;Errors::make</title>
<path fill="none" stroke="black" d="M135.39,-91.31C148.43,-87.46 162.74,-83.4 176,-80 233.59,-65.23 301.05,-51.01 342.4,-42.63"/>
<polygon fill="black" stroke="black" points="343.22,-46.04 352.33,-40.63 341.84,-39.18 343.22,-46.04"/>
</g>
<!-- Errors::invalid_state -->
<g id="node10" class="node">
<title>Errors::invalid_state</title>
<ellipse fill="none" stroke="black" cx="512" cy="-106" rx="55.79" ry="18"/>
<text text-anchor="middle" x="512" y="-102.3" font-family="Times,serif" font-size="14.00">invalid_state</text>
</g>
<!-- DiemTimestamp::assert_operating&#45;&gt;Errors::invalid_state -->
<g id="edge9" class="edge">
<title>DiemTimestamp::assert_operating&#45;&gt;Errors::invalid_state</title>
<path fill="none" stroke="black" d="M753.56,-323.57C748.63,-320.57 743.91,-317.05 740,-313 714.45,-286.54 729.2,-265.71 705,-238 660.16,-186.65 631.97,-193.92 576,-155 564.19,-146.79 551.45,-137.36 540.48,-129.05"/>
<polygon fill="black" stroke="black" points="542.55,-126.22 532.48,-122.95 538.31,-131.79 542.55,-126.22"/>
</g>
<!-- DiemTimestamp::is_operating -->
<g id="node11" class="node">
<title>DiemTimestamp::is_operating</title>
<ellipse fill="none" stroke="black" cx="803" cy="-264" rx="53.89" ry="18"/>
<text text-anchor="middle" x="803" y="-260.3" font-family="Times,serif" font-size="14.00">is_operating</text>
</g>
<!-- DiemTimestamp::assert_operating&#45;&gt;DiemTimestamp::is_operating -->
<g id="edge10" class="edge">
<title>DiemTimestamp::assert_operating&#45;&gt;DiemTimestamp::is_operating</title>
<path fill="none" stroke="black" d="M792.32,-320.7C793.96,-312.15 795.97,-301.65 797.81,-292.07"/>
<polygon fill="black" stroke="black" points="801.26,-292.66 799.71,-282.18 794.39,-291.34 801.26,-292.66"/>
</g>
<!-- Roles::assert_treasury_compliance&#45;&gt;Signer::address_of -->
<g id="edge11" class="edge">
<title>Roles::assert_treasury_compliance&#45;&gt;Signer::address_of</title>
<path fill="none" stroke="black" d="M643.11,-248.88C663.82,-244.55 687.32,-240.31 709,-238 723.67,-236.44 1228.43,-239.15 1240,-230 1268.33,-207.58 1273.08,-163.39 1272.84,-134.53"/>
<polygon fill="black" stroke="black" points="1276.33,-134.19 1272.54,-124.3 1269.33,-134.4 1276.33,-134.19"/>
</g>
<!-- Errors::not_published -->
<g id="node12" class="node">
<title>Errors::not_published</title>
<ellipse fill="none" stroke="black" cx="245" cy="-106" rx="60.39" ry="18"/>
<text text-anchor="middle" x="245" y="-102.3" font-family="Times,serif" font-size="14.00">not_published</text>
</g>
<!-- Roles::assert_treasury_compliance&#45;&gt;Errors::not_published -->
<g id="edge12" class="edge">
<title>Roles::assert_treasury_compliance&#45;&gt;Errors::not_published</title>
<path fill="none" stroke="black" d="M518.21,-249.63C497.34,-244.51 474.39,-237.95 454,-230 388.6,-204.5 374.92,-191.57 315,-155 301.74,-146.91 287.53,-137.34 275.4,-128.89"/>
<polygon fill="black" stroke="black" points="277.18,-125.85 266.98,-122.96 273.15,-131.58 277.18,-125.85"/>
</g>
<!-- Errors::requires_role -->
<g id="node13" class="node">
<title>Errors::requires_role</title>
<ellipse fill="none" stroke="black" cx="381" cy="-106" rx="57.39" ry="18"/>
<text text-anchor="middle" x="381" y="-102.3" font-family="Times,serif" font-size="14.00">requires_role</text>
</g>
<!-- Roles::assert_treasury_compliance&#45;&gt;Errors::requires_role -->
<g id="edge13" class="edge">
<title>Roles::assert_treasury_compliance&#45;&gt;Errors::requires_role</title>
<path fill="none" stroke="black" d="M562.28,-246.31C525.43,-217.99 450.72,-160.57 409.64,-129.01"/>
<polygon fill="black" stroke="black" points="411.72,-126.19 401.66,-122.88 407.45,-131.74 411.72,-126.19"/>
</g>
<!-- CoreAddresses::assert_treasury_compliance -->
<g id="node14" class="node">
<title>CoreAddresses::assert_treasury_compliance</title>
<ellipse fill="none" stroke="black" cx="858" cy="-181" rx="108.58" ry="18"/>
<text text-anchor="middle" x="858" y="-177.3" font-family="Times,serif" font-size="14.00">assert_treasury_compliance</text>
</g>
<!-- Roles::assert_treasury_compliance&#45;&gt;CoreAddresses::assert_treasury_compliance -->
<g id="edge14" class="edge">
<title>Roles::assert_treasury_compliance&#45;&gt;CoreAddresses::assert_treasury_compliance</title>
<path fill="none" stroke="black" d="M634.58,-248.05C680.58,-234.45 748.56,-214.35 797.44,-199.9"/>
<polygon fill="black" stroke="black" points="798.66,-203.19 807.26,-197 796.67,-196.48 798.66,-203.19"/>
</g>
<!-- Roles::assert_parent_vasp_role&#45;&gt;Signer::address_of -->
<g id="edge15" class="edge">
<title>Roles::assert_parent_vasp_role&#45;&gt;Signer::address_of</title>
<path fill="none" stroke="black" d="M411.83,-248.61C428.86,-244.34 448.12,-240.22 466,-238 486.51,-235.46 1192.72,-241.33 1210,-230 1237.29,-212.11 1225.42,-192.19 1240,-163 1244.99,-153.01 1250.84,-142.23 1256.11,-132.83"/>
<polygon fill="black" stroke="black" points="1259.25,-134.38 1261.12,-123.96 1253.15,-130.94 1259.25,-134.38"/>
</g>
<!-- Roles::assert_parent_vasp_role&#45;&gt;Errors::not_published -->
<g id="edge16" class="edge">
<title>Roles::assert_parent_vasp_role&#45;&gt;Errors::not_published</title>
<path fill="none" stroke="black" d="M332.99,-246.76C325.92,-241.95 318.75,-236.28 313,-230 286.55,-201.12 266.54,-160.11 255.29,-133.53"/>
<polygon fill="black" stroke="black" points="258.45,-132.02 251.41,-124.1 251.98,-134.68 258.45,-132.02"/>
</g>
<!-- Roles::assert_parent_vasp_role&#45;&gt;Errors::requires_role -->
<g id="edge17" class="edge">
<title>Roles::assert_parent_vasp_role&#45;&gt;Errors::requires_role</title>
<path fill="none" stroke="black" d="M364.11,-245.71C367.39,-218.77 373.75,-166.54 377.66,-134.42"/>
<polygon fill="black" stroke="black" points="381.15,-134.72 378.88,-124.37 374.2,-133.87 381.15,-134.72"/>
</g>
<!-- is_child -->
<g id="node15" class="node">
<title>is_child</title>
<ellipse fill="none" stroke="black" cx="1368" cy="-264" rx="38.19" ry="18"/>
<text text-anchor="middle" x="1368" y="-260.3" font-family="Times,serif" font-size="14.00">is_child</text>
</g>
<!-- is_vasp&#45;&gt;is_child -->
<g id="edge18" class="edge">
<title>is_vasp&#45;&gt;is_child</title>
<path fill="none" stroke="black" d="M1368,-320.7C1368,-312.25 1368,-301.87 1368,-292.37"/>
<polygon fill="black" stroke="black" points="1371.5,-292.18 1368,-282.18 1364.5,-292.18 1371.5,-292.18"/>
</g>
<!-- is_parent -->
<g id="node16" class="node">
<title>is_parent</title>
<ellipse fill="none" stroke="black" cx="1467" cy="-264" rx="42.79" ry="18"/>
<text text-anchor="middle" x="1467" y="-260.3" font-family="Times,serif" font-size="14.00">is_parent</text>
</g>
<!-- is_vasp&#45;&gt;is_parent -->
<g id="edge19" class="edge">
<title>is_vasp&#45;&gt;is_parent</title>
<path fill="none" stroke="black" d="M1393.59,-325.91C1400.74,-322.13 1408.37,-317.71 1415,-313 1425.23,-305.74 1435.57,-296.64 1444.31,-288.32"/>
<polygon fill="black" stroke="black" points="1446.81,-290.76 1451.53,-281.27 1441.93,-285.75 1446.81,-290.76"/>
</g>
<!-- Errors::invalid_state&#45;&gt;Errors::make -->
<g id="edge20" class="edge">
<title>Errors::invalid_state&#45;&gt;Errors::make</title>
<path fill="none" stroke="black" d="M484.22,-90.15C463.06,-78.85 433.93,-63.28 412.01,-51.57"/>
<polygon fill="black" stroke="black" points="413.57,-48.44 403.1,-46.81 410.27,-54.61 413.57,-48.44"/>
</g>
<!-- CoreAddresses::DIEM_ROOT_ADDRESS -->
<g id="node17" class="node">
<title>CoreAddresses::DIEM_ROOT_ADDRESS</title>
<ellipse fill="none" stroke="black" cx="1091" cy="-181" rx="106.68" ry="18"/>
<text text-anchor="middle" x="1091" y="-177.3" font-family="Times,serif" font-size="14.00">DIEM_ROOT_ADDRESS</text>
</g>
<!-- DiemTimestamp::is_operating&#45;&gt;CoreAddresses::DIEM_ROOT_ADDRESS -->
<g id="edge21" class="edge">
<title>DiemTimestamp::is_operating&#45;&gt;CoreAddresses::DIEM_ROOT_ADDRESS</title>
<path fill="none" stroke="black" d="M852.12,-256.4C887.11,-251.03 935,-242.32 976,-230 1000.55,-222.62 1027,-211.79 1048.34,-202.29"/>
<polygon fill="black" stroke="black" points="1049.79,-205.48 1057.46,-198.17 1046.9,-199.1 1049.79,-205.48"/>
</g>
<!-- Errors::not_published&#45;&gt;Errors::make -->
<g id="edge22" class="edge">
<title>Errors::not_published&#45;&gt;Errors::make</title>
<path fill="none" stroke="black" d="M273.84,-90.15C296.05,-78.73 326.7,-62.95 349.53,-51.2"/>
<polygon fill="black" stroke="black" points="351.2,-54.28 358.49,-46.59 347.99,-48.05 351.2,-54.28"/>
</g>
<!-- Errors::requires_role&#45;&gt;Errors::make -->
<g id="edge23" class="edge">
<title>Errors::requires_role&#45;&gt;Errors::make</title>
<path fill="none" stroke="black" d="M381,-87.7C381,-79.98 381,-70.71 381,-62.11"/>
<polygon fill="black" stroke="black" points="384.5,-62.1 381,-52.1 377.5,-62.1 384.5,-62.1"/>
</g>
<!-- CoreAddresses::assert_treasury_compliance&#45;&gt;Signer::address_of -->
<g id="edge24" class="edge">
<title>CoreAddresses::assert_treasury_compliance&#45;&gt;Signer::address_of</title>
<path fill="none" stroke="black" d="M932.75,-167.89C946.76,-165.97 961.3,-164.22 975,-163 1001.02,-160.67 1185.46,-163.97 1210,-155 1224.32,-149.77 1237.9,-139.78 1248.6,-130.27"/>
<polygon fill="black" stroke="black" points="1251.27,-132.56 1256.18,-123.17 1246.48,-127.45 1251.27,-132.56"/>
</g>
<!-- Errors::requires_address -->
<g id="node18" class="node">
<title>Errors::requires_address</title>
<ellipse fill="none" stroke="black" cx="655" cy="-106" rx="69.59" ry="18"/>
<text text-anchor="middle" x="655" y="-102.3" font-family="Times,serif" font-size="14.00">requires_address</text>
</g>
<!-- CoreAddresses::assert_treasury_compliance&#45;&gt;Errors::requires_address -->
<g id="edge25" class="edge">
<title>CoreAddresses::assert_treasury_compliance&#45;&gt;Errors::requires_address</title>
<path fill="none" stroke="black" d="M781.71,-168.18C766.64,-164.75 751.12,-160.42 737,-155 719.53,-148.29 701.44,-138.1 686.71,-128.83"/>
<polygon fill="black" stroke="black" points="688.31,-125.7 678.01,-123.22 684.51,-131.58 688.31,-125.7"/>
</g>
<!-- CoreAddresses::TREASURY_COMPLIANCE_ADDRESS -->
<g id="node19" class="node">
<title>CoreAddresses::TREASURY_COMPLIANCE_ADDRESS</title>
<ellipse fill="none" stroke="black" cx="912" cy="-106" rx="163.27" ry="18"/>
<text text-anchor="middle" x="912" y="-102.3" font-family="Times,serif" font-size="14.00">TREASURY_COMPLIANCE_ADDRESS</text>
</g>
<!-- CoreAddresses::assert_treasury_compliance&#45;&gt;CoreAddresses::TREASURY_COMPLIANCE_ADDRESS -->
<g id="edge26" class="edge">
<title>CoreAddresses::assert_treasury_compliance&#45;&gt;CoreAddresses::TREASURY_COMPLIANCE_ADDRESS</title>
<path fill="none" stroke="black" d="M870.52,-163.07C877.29,-153.92 885.78,-142.45 893.31,-132.26"/>
<polygon fill="black" stroke="black" points="896.22,-134.21 899.36,-124.09 890.6,-130.05 896.22,-134.21"/>
</g>
<!-- Errors::requires_address&#45;&gt;Errors::make -->
<g id="edge27" class="edge">
<title>Errors::requires_address&#45;&gt;Errors::make</title>
<path fill="none" stroke="black" d="M614.31,-91.24C602.35,-87.39 589.2,-83.35 577,-80 522.65,-65.08 458.9,-51.08 419.22,-42.77"/>
<polygon fill="black" stroke="black" points="419.93,-39.35 409.43,-40.74 418.5,-46.2 419.93,-39.35"/>
</g>
</g>
</svg>
