<?xml version="1.0" encoding="UTF-8" standalone="no"?>
<!DOCTYPE svg PUBLIC "-//W3C//DTD SVG 1.1//EN"
 "http://www.w3.org/Graphics/SVG/1.1/DTD/svg11.dtd">
<!-- Generated by graphviz version 2.46.1 (20210213.1702)
 -->
<!-- Title: G Pages: 1 -->
<svg width="435pt" height="290pt"
 viewBox="0.00 0.00 434.90 290.00" xmlns="http://www.w3.org/2000/svg" xmlns:xlink="http://www.w3.org/1999/xlink">
<g id="graph0" class="graph" transform="scale(1 1) rotate(0) translate(4 286)">
<title>G</title>
<polygon fill="white" stroke="transparent" points="-4,4 -4,-286 430.9,-286 430.9,4 -4,4"/>
<g id="clust1" class="cluster">
<title>cluster_AccountLimits</title>
<polygon fill="none" stroke="black" points="8,-163 8,-238 212,-238 212,-163 8,-163"/>
<text text-anchor="middle" x="110" y="-222.8" font-family="Times,serif" font-size="14.00">AccountLimits</text>
</g>
<g id="clust2" class="cluster">
<title>cluster_Errors</title>
<polygon fill="none" stroke="black" points="74,-8 74,-155 236,-155 236,-8 74,-8"/>
<text text-anchor="middle" x="155" y="-139.8" font-family="Times,serif" font-size="14.00">Errors</text>
</g>
<!-- has_account_limits -->
<g id="node1" class="node">
<title>has_account_limits</title>
<ellipse fill="none" stroke="black" cx="197" cy="-264" rx="79.09" ry="18"/>
<text text-anchor="middle" x="197" y="-260.3" font-family="Times,serif" font-size="14.00">has_account_limits</text>
</g>
<!-- AccountLimits::has_window_published -->
<g id="node2" class="node">
<title>AccountLimits::has_window_published</title>
<ellipse fill="none" stroke="black" cx="110" cy="-189" rx="93.68" ry="18"/>
<text text-anchor="middle" x="110" y="-185.3" font-family="Times,serif" font-size="14.00">has_window_published</text>
</g>
<!-- has_account_limits&#45;&gt;AccountLimits::has_window_published -->
<g id="edge1" class="edge">
<title>has_account_limits&#45;&gt;AccountLimits::has_window_published</title>
<path fill="none" stroke="black" d="M177.26,-246.44C165.55,-236.61 150.53,-224.01 137.66,-213.2"/>
<polygon fill="black" stroke="black" points="139.87,-210.5 129.96,-206.75 135.38,-215.86 139.87,-210.5"/>
</g>
<!-- parent_address -->
<g id="node3" class="node">
<title>parent_address</title>
<ellipse fill="none" stroke="black" cx="285" cy="-189" rx="63.89" ry="18"/>
<text text-anchor="middle" x="285" y="-185.3" font-family="Times,serif" font-size="14.00">parent_address</text>
</g>
<!-- has_account_limits&#45;&gt;parent_address -->
<g id="edge2" class="edge">
<title>has_account_limits&#45;&gt;parent_address</title>
<path fill="none" stroke="black" d="M216.97,-246.44C228.98,-236.47 244.44,-223.65 257.58,-212.75"/>
<polygon fill="black" stroke="black" points="259.95,-215.33 265.41,-206.25 255.48,-209.94 259.95,-215.33"/>
</g>
<!-- Errors::invalid_argument -->
<g id="node4" class="node">
<title>Errors::invalid_argument</title>
<ellipse fill="none" stroke="black" cx="155" cy="-106" rx="73.39" ry="18"/>
<text text-anchor="middle" x="155" y="-102.3" font-family="Times,serif" font-size="14.00">invalid_argument</text>
</g>
<!-- parent_address&#45;&gt;Errors::invalid_argument -->
<g id="edge3" class="edge">
<title>parent_address&#45;&gt;Errors::invalid_argument</title>
<path fill="none" stroke="black" d="M259.93,-172.38C239.96,-159.94 211.78,-142.38 189.64,-128.59"/>
<polygon fill="black" stroke="black" points="191.22,-125.44 180.88,-123.12 187.51,-131.38 191.22,-125.44"/>
</g>
<!-- is_child -->
<g id="node5" class="node">
<title>is_child</title>
<ellipse fill="none" stroke="black" cx="285" cy="-106" rx="38.19" ry="18"/>
<text text-anchor="middle" x="285" y="-102.3" font-family="Times,serif" font-size="14.00">is_child</text>
</g>
<!-- parent_address&#45;&gt;is_child -->
<g id="edge4" class="edge">
<title>parent_address&#45;&gt;is_child</title>
<path fill="none" stroke="black" d="M285,-170.82C285,-160.19 285,-146.31 285,-134.2"/>
<polygon fill="black" stroke="black" points="288.5,-134.15 285,-124.15 281.5,-134.15 288.5,-134.15"/>
</g>
<!-- is_parent -->
<g id="node6" class="node">
<title>is_parent</title>
<ellipse fill="none" stroke="black" cx="384" cy="-106" rx="42.79" ry="18"/>
<text text-anchor="middle" x="384" y="-102.3" font-family="Times,serif" font-size="14.00">is_parent</text>
</g>
<!-- parent_address&#45;&gt;is_parent -->
<g id="edge5" class="edge">
<title>parent_address&#45;&gt;is_parent</title>
<path fill="none" stroke="black" d="M308.88,-172.15C316.43,-166.9 324.71,-160.88 332,-155 341.52,-147.32 351.5,-138.36 360.14,-130.27"/>
<polygon fill="black" stroke="black" points="362.8,-132.57 367.64,-123.15 357.98,-127.49 362.8,-132.57"/>
</g>
<!-- Errors::make -->
<g id="node7" class="node">
<title>Errors::make</title>
<ellipse fill="none" stroke="black" cx="155" cy="-34" rx="30.59" ry="18"/>
<text text-anchor="middle" x="155" y="-30.3" font-family="Times,serif" font-size="14.00">make</text>
</g>
<!-- Errors::invalid_argument&#45;&gt;Errors::make -->
<g id="edge6" class="edge">
<title>Errors::invalid_argument&#45;&gt;Errors::make</title>
<path fill="none" stroke="black" d="M155,-87.7C155,-79.98 155,-70.71 155,-62.11"/>
<polygon fill="black" stroke="black" points="158.5,-62.1 155,-52.1 151.5,-62.1 158.5,-62.1"/>
</g>
</g>
</svg>
