<?xml version="1.0" encoding="UTF-8" standalone="no"?>
<!DOCTYPE svg PUBLIC "-//W3C//DTD SVG 1.1//EN"
 "http://www.w3.org/Graphics/SVG/1.1/DTD/svg11.dtd">
<!-- Generated by graphviz version 2.46.1 (20210213.1702)
 -->
<!-- Title: G Pages: 1 -->
<svg width="188pt" height="116pt"
 viewBox="0.00 0.00 188.24 116.00" xmlns="http://www.w3.org/2000/svg" xmlns:xlink="http://www.w3.org/1999/xlink">
<g id="graph0" class="graph" transform="scale(1 1) rotate(0) translate(4 112)">
<title>G</title>
<polygon fill="white" stroke="transparent" points="-4,4 -4,-112 184.24,-112 184.24,4 -4,4"/>
<!-- is_vasp -->
<g id="node1" class="node">
<title>is_vasp</title>
<ellipse fill="none" stroke="black" cx="87.35" cy="-90" rx="37.09" ry="18"/>
<text text-anchor="middle" x="87.35" y="-86.3" font-family="Times,serif" font-size="14.00">is_vasp</text>
</g>
<!-- is_child -->
<g id="node2" class="node">
<title>is_child</title>
<ellipse fill="none" stroke="black" cx="38.35" cy="-18" rx="38.19" ry="18"/>
<text text-anchor="middle" x="38.35" y="-14.3" font-family="Times,serif" font-size="14.00">is_child</text>
</g>
<!-- is_vasp&#45;&gt;is_child -->
<g id="edge1" class="edge">
<title>is_vasp&#45;&gt;is_child</title>
<path fill="none" stroke="black" d="M75.98,-72.76C70.01,-64.23 62.55,-53.58 55.86,-44.02"/>
<polygon fill="black" stroke="black" points="58.59,-41.82 49.99,-35.63 52.86,-45.83 58.59,-41.82"/>
</g>
<!-- is_parent -->
<g id="node3" class="node">
<title>is_parent</title>
<ellipse fill="none" stroke="black" cx="137.35" cy="-18" rx="42.79" ry="18"/>
<text text-anchor="middle" x="137.35" y="-14.3" font-family="Times,serif" font-size="14.00">is_parent</text>
</g>
<!-- is_vasp&#45;&gt;is_parent -->
<g id="edge2" class="edge">
<title>is_vasp&#45;&gt;is_parent</title>
<path fill="none" stroke="black" d="M98.94,-72.76C105.04,-64.23 112.65,-53.58 119.48,-44.02"/>
<polygon fill="black" stroke="black" points="122.5,-45.81 125.47,-35.63 116.81,-41.74 122.5,-45.81"/>
</g>
</g>
</svg>
