<?xml version="1.0" encoding="UTF-8" standalone="no"?>
<!DOCTYPE svg PUBLIC "-//W3C//DTD SVG 1.1//EN"
 "http://www.w3.org/Graphics/SVG/1.1/DTD/svg11.dtd">
<!-- Generated by graphviz version 2.46.1 (20210213.1702)
 -->
<!-- Title: G Pages: 1 -->
<svg width="419pt" height="404pt"
 viewBox="0.00 0.00 419.00 404.00" xmlns="http://www.w3.org/2000/svg" xmlns:xlink="http://www.w3.org/1999/xlink">
<g id="graph0" class="graph" transform="scale(1 1) rotate(0) translate(4 400)">
<title>G</title>
<polygon fill="white" stroke="transparent" points="-4,4 -4,-400 415,-400 415,4 -4,4"/>
<!-- VASP -->
<g id="node1" class="node">
<title>VASP</title>
<ellipse fill="none" stroke="black" cx="234" cy="-378" rx="32.49" ry="18"/>
<text text-anchor="middle" x="234" y="-374.3" font-family="Times,serif" font-size="14.00">VASP</text>
</g>
<!-- Signer -->
<g id="node2" class="node">
<title>Signer</title>
<ellipse fill="none" stroke="black" cx="57" cy="-18" rx="33.6" ry="18"/>
<text text-anchor="middle" x="57" y="-14.3" font-family="Times,serif" font-size="14.00">Signer</text>
</g>
<!-- VASP&#45;&gt;Signer -->
<g id="edge1" class="edge">
<title>VASP&#45;&gt;Signer</title>
<path fill="none" stroke="black" d="M202.44,-372.77C138.57,-362.24 0,-328.61 0,-235 0,-235 0,-235 0,-161 0,-117.32 23.51,-71.18 40.33,-43.75"/>
<polygon fill="black" stroke="black" points="43.36,-45.52 45.74,-35.2 37.44,-41.78 43.36,-45.52"/>
</g>
<!-- Errors -->
<g id="node3" class="node">
<title>Errors</title>
<ellipse fill="none" stroke="black" cx="298" cy="-18" rx="32.49" ry="18"/>
<text text-anchor="middle" x="298" y="-14.3" font-family="Times,serif" font-size="14.00">Errors</text>
</g>
<!-- VASP&#45;&gt;Errors -->
<g id="edge2" class="edge">
<title>VASP&#45;&gt;Errors</title>
<path fill="none" stroke="black" d="M262.05,-368.87C311.96,-352.48 411,-310.44 411,-235 411,-235 411,-235 411,-161 411,-107.21 360.73,-62 327.25,-37.86"/>
<polygon fill="black" stroke="black" points="328.93,-34.76 318.73,-31.9 324.92,-40.5 328.93,-34.76"/>
</g>
<!-- DiemTimestamp -->
<g id="node4" class="node">
<title>DiemTimestamp</title>
<ellipse fill="none" stroke="black" cx="274" cy="-162" rx="71.49" ry="18"/>
<text text-anchor="middle" x="274" y="-158.3" font-family="Times,serif" font-size="14.00">DiemTimestamp</text>
</g>
<!-- VASP&#45;&gt;DiemTimestamp -->
<g id="edge3" class="edge">
<title>VASP&#45;&gt;DiemTimestamp</title>
<path fill="none" stroke="black" d="M259.25,-366.25C276.14,-357.55 297.04,-343.53 307,-324 329.41,-280.04 306.48,-222.01 289.25,-188.97"/>
<polygon fill="black" stroke="black" points="292.2,-187.08 284.36,-179.95 286.05,-190.41 292.2,-187.08"/>
</g>
<!-- Roles -->
<g id="node5" class="node">
<title>Roles</title>
<ellipse fill="none" stroke="black" cx="146" cy="-234" rx="30.59" ry="18"/>
<text text-anchor="middle" x="146" y="-230.3" font-family="Times,serif" font-size="14.00">Roles</text>
</g>
<!-- VASP&#45;&gt;Roles -->
<g id="edge4" class="edge">
<title>VASP&#45;&gt;Roles</title>
<path fill="none" stroke="black" d="M209.73,-365.7C193.3,-356.74 172.55,-342.64 161,-324 149.54,-305.52 146.1,-280.92 145.35,-262.27"/>
<polygon fill="black" stroke="black" points="148.84,-262.01 145.18,-252.07 141.85,-262.13 148.84,-262.01"/>
</g>
<!-- AccountLimits -->
<g id="node6" class="node">
<title>AccountLimits</title>
<ellipse fill="none" stroke="black" cx="234" cy="-306" rx="63.89" ry="18"/>
<text text-anchor="middle" x="234" y="-302.3" font-family="Times,serif" font-size="14.00">AccountLimits</text>
</g>
<!-- VASP&#45;&gt;AccountLimits -->
<g id="edge5" class="edge">
<title>VASP&#45;&gt;AccountLimits</title>
<path fill="none" stroke="black" d="M234,-359.7C234,-351.98 234,-342.71 234,-334.11"/>
<polygon fill="black" stroke="black" points="237.5,-334.1 234,-324.1 230.5,-334.1 237.5,-334.1"/>
</g>
<!-- DiemTimestamp&#45;&gt;Errors -->
<g id="edge6" class="edge">
<title>DiemTimestamp&#45;&gt;Errors</title>
<path fill="none" stroke="black" d="M276.89,-143.87C280.99,-119.67 288.5,-75.21 293.37,-46.39"/>
<polygon fill="black" stroke="black" points="296.88,-46.63 295.09,-36.19 289.98,-45.47 296.88,-46.63"/>
</g>
<!-- CoreAddresses -->
<g id="node7" class="node">
<title>CoreAddresses</title>
<ellipse fill="none" stroke="black" cx="168" cy="-90" rx="63.89" ry="18"/>
<text text-anchor="middle" x="168" y="-86.3" font-family="Times,serif" font-size="14.00">CoreAddresses</text>
</g>
<!-- DiemTimestamp&#45;&gt;CoreAddresses -->
<g id="edge7" class="edge">
<title>DiemTimestamp&#45;&gt;CoreAddresses</title>
<path fill="none" stroke="black" d="M249.68,-144.94C235.03,-135.27 216.21,-122.83 200.32,-112.34"/>
<polygon fill="black" stroke="black" points="202.11,-109.33 191.84,-106.74 198.26,-115.17 202.11,-109.33"/>
</g>
<!-- Roles&#45;&gt;Signer -->
<g id="edge8" class="edge">
<title>Roles&#45;&gt;Signer</title>
<path fill="none" stroke="black" d="M139.02,-216.21C123.55,-179.02 86.31,-89.48 67.81,-44.99"/>
<polygon fill="black" stroke="black" points="71.02,-43.6 63.95,-35.71 64.56,-46.29 71.02,-43.6"/>
</g>
<!-- Roles&#45;&gt;Errors -->
<g id="edge9" class="edge">
<title>Roles&#45;&gt;Errors</title>
<path fill="none" stroke="black" d="M152.47,-216.3C160.35,-197.39 174.98,-166.31 194,-144 211.07,-123.98 223.19,-127.37 241,-108 258.74,-88.7 274.43,-63.23 284.84,-44.48"/>
<polygon fill="black" stroke="black" points="287.95,-46.07 289.64,-35.61 281.8,-42.74 287.95,-46.07"/>
</g>
<!-- Roles&#45;&gt;DiemTimestamp -->
<g id="edge11" class="edge">
<title>Roles&#45;&gt;DiemTimestamp</title>
<path fill="none" stroke="black" d="M167.71,-221.13C186.52,-210.84 214.14,-195.73 236.52,-183.5"/>
<polygon fill="black" stroke="black" points="238.33,-186.49 245.43,-178.62 234.98,-180.35 238.33,-186.49"/>
</g>
<!-- Roles&#45;&gt;CoreAddresses -->
<g id="edge10" class="edge">
<title>Roles&#45;&gt;CoreAddresses</title>
<path fill="none" stroke="black" d="M148.65,-215.87C152.4,-191.67 159.29,-147.21 163.76,-118.39"/>
<polygon fill="black" stroke="black" points="167.26,-118.61 165.34,-108.19 160.35,-117.54 167.26,-118.61"/>
</g>
<!-- AccountLimits&#45;&gt;Signer -->
<g id="edge12" class="edge">
<title>AccountLimits&#45;&gt;Signer</title>
<path fill="none" stroke="black" d="M181.87,-295.47C155.43,-288 124.97,-274.86 106,-252 56.16,-191.95 53.18,-93.75 55.05,-46.33"/>
<polygon fill="black" stroke="black" points="58.55,-46.37 55.56,-36.21 51.56,-46.02 58.55,-46.37"/>
</g>
<!-- AccountLimits&#45;&gt;Errors -->
<g id="edge13" class="edge">
<title>AccountLimits&#45;&gt;Errors</title>
<path fill="none" stroke="black" d="M257.79,-289.15C286.88,-268.16 334.63,-228.14 354,-180 373.28,-132.07 340.22,-74.63 317.24,-42.95"/>
<polygon fill="black" stroke="black" points="319.88,-40.63 311.08,-34.73 314.27,-44.83 319.88,-40.63"/>
</g>
<!-- AccountLimits&#45;&gt;DiemTimestamp -->
<g id="edge14" class="edge">
<title>AccountLimits&#45;&gt;DiemTimestamp</title>
<path fill="none" stroke="black" d="M238.82,-287.87C245.67,-263.56 258.28,-218.82 266.39,-190.01"/>
<polygon fill="black" stroke="black" points="269.82,-190.76 269.16,-180.19 263.08,-188.87 269.82,-190.76"/>
</g>
<!-- AccountLimits&#45;&gt;Roles -->
<g id="edge15" class="edge">
<title>AccountLimits&#45;&gt;Roles</title>
<path fill="none" stroke="black" d="M213.59,-288.76C201.06,-278.8 184.91,-265.95 171.53,-255.31"/>
<polygon fill="black" stroke="black" points="173.63,-252.5 163.62,-249.02 169.27,-257.98 173.63,-252.5"/>
</g>
<!-- CoreAddresses&#45;&gt;Signer -->
<g id="edge16" class="edge">
<title>CoreAddresses&#45;&gt;Signer</title>
<path fill="none" stroke="black" d="M143.09,-73.29C126.43,-62.79 104.43,-48.91 86.84,-37.82"/>
<polygon fill="black" stroke="black" points="88.42,-34.68 78.1,-32.3 84.69,-40.6 88.42,-34.68"/>
</g>
<!-- CoreAddresses&#45;&gt;Errors -->
<g id="edge17" class="edge">
<title>CoreAddresses&#45;&gt;Errors</title>
<path fill="none" stroke="black" d="M196.21,-73.81C216.89,-62.67 244.99,-47.54 266.43,-36"/>
<polygon fill="black" stroke="black" points="268.31,-38.96 275.46,-31.14 265,-32.8 268.31,-38.96"/>
</g>
</g>
</svg>
