<?xml version="1.0" encoding="UTF-8" standalone="no"?>
<!DOCTYPE svg PUBLIC "-//W3C//DTD SVG 1.1//EN"
 "http://www.w3.org/Graphics/SVG/1.1/DTD/svg11.dtd">
<!-- Generated by graphviz version 2.46.1 (20210213.1702)
 -->
<!-- Title: G Pages: 1 -->
<svg width="440pt" height="365pt"
 viewBox="0.00 0.00 440.00 365.00" xmlns="http://www.w3.org/2000/svg" xmlns:xlink="http://www.w3.org/1999/xlink">
<g id="graph0" class="graph" transform="scale(1 1) rotate(0) translate(4 361)">
<title>G</title>
<polygon fill="white" stroke="transparent" points="-4,4 -4,-361 436,-361 436,4 -4,4"/>
<g id="clust1" class="cluster">
<title>cluster_Diem</title>
<polygon fill="none" stroke="black" points="194,-91 194,-313 362,-313 362,-91 194,-91"/>
<text text-anchor="middle" x="278" y="-297.8" font-family="Times,serif" font-size="14.00">Diem</text>
</g>
<g id="clust2" class="cluster">
<title>cluster_CoreAddresses</title>
<polygon fill="none" stroke="black" points="152,-8 152,-83 424,-83 424,-8 152,-8"/>
<text text-anchor="middle" x="288" y="-67.8" font-family="Times,serif" font-size="14.00">CoreAddresses</text>
</g>
<g id="clust3" class="cluster">
<title>cluster_Errors</title>
<polygon fill="none" stroke="black" points="8,-8 8,-166 144,-166 144,-8 8,-8"/>
<text text-anchor="middle" x="76" y="-150.8" font-family="Times,serif" font-size="14.00">Errors</text>
</g>
<!-- is_xdx -->
<g id="node1" class="node">
<title>is_xdx</title>
<ellipse fill="none" stroke="black" cx="330" cy="-339" rx="34.39" ry="18"/>
<text text-anchor="middle" x="330" y="-335.3" font-family="Times,serif" font-size="14.00">is_xdx</text>
</g>
<!-- Diem::currency_code -->
<g id="node2" class="node">
<title>Diem::currency_code</title>
<ellipse fill="none" stroke="black" cx="278" cy="-264" rx="62.29" ry="18"/>
<text text-anchor="middle" x="278" y="-260.3" font-family="Times,serif" font-size="14.00">currency_code</text>
</g>
<!-- is_xdx&#45;&gt;Diem::currency_code -->
<g id="edge1" class="edge">
<title>is_xdx&#45;&gt;Diem::currency_code</title>
<path fill="none" stroke="black" d="M318.46,-321.8C311.87,-312.54 303.46,-300.74 296.01,-290.29"/>
<polygon fill="black" stroke="black" points="298.7,-288.03 290.05,-281.92 293,-292.09 298.7,-288.03"/>
</g>
<!-- Diem::is_currency -->
<g id="node3" class="node">
<title>Diem::is_currency</title>
<ellipse fill="none" stroke="black" cx="288" cy="-117" rx="51.99" ry="18"/>
<text text-anchor="middle" x="288" y="-113.3" font-family="Times,serif" font-size="14.00">is_currency</text>
</g>
<!-- is_xdx&#45;&gt;Diem::is_currency -->
<g id="edge2" class="edge">
<title>is_xdx&#45;&gt;Diem::is_currency</title>
<path fill="none" stroke="black" d="M343.78,-322.35C345.81,-319.4 347.67,-316.22 349,-313 372.75,-255.63 390.83,-229.51 363,-174 355.22,-158.48 340.87,-146.16 326.79,-137.08"/>
<polygon fill="black" stroke="black" points="328.49,-134.01 318.12,-131.84 324.87,-140 328.49,-134.01"/>
</g>
<!-- CoreAddresses::CURRENCY_INFO_ADDRESS -->
<g id="node4" class="node">
<title>CoreAddresses::CURRENCY_INFO_ADDRESS</title>
<ellipse fill="none" stroke="black" cx="288" cy="-34" rx="128.08" ry="18"/>
<text text-anchor="middle" x="288" y="-30.3" font-family="Times,serif" font-size="14.00">CURRENCY_INFO_ADDRESS</text>
</g>
<!-- Diem::currency_code&#45;&gt;CoreAddresses::CURRENCY_INFO_ADDRESS -->
<g id="edge3" class="edge">
<title>Diem::currency_code&#45;&gt;CoreAddresses::CURRENCY_INFO_ADDRESS</title>
<path fill="none" stroke="black" d="M240.09,-249.47C222.44,-241.03 203.13,-228.25 193,-210 185.24,-196.01 189.91,-189.7 193,-174 200.7,-134.89 204.21,-123.71 227,-91 235.32,-79.06 246.59,-67.81 257.18,-58.57"/>
<polygon fill="black" stroke="black" points="259.69,-61.03 265.09,-51.92 255.19,-55.68 259.69,-61.03"/>
</g>
<!-- Diem::assert_is_currency -->
<g id="node5" class="node">
<title>Diem::assert_is_currency</title>
<ellipse fill="none" stroke="black" cx="278" cy="-192" rx="76.09" ry="18"/>
<text text-anchor="middle" x="278" y="-188.3" font-family="Times,serif" font-size="14.00">assert_is_currency</text>
</g>
<!-- Diem::currency_code&#45;&gt;Diem::assert_is_currency -->
<g id="edge4" class="edge">
<title>Diem::currency_code&#45;&gt;Diem::assert_is_currency</title>
<path fill="none" stroke="black" d="M278,-245.7C278,-237.98 278,-228.71 278,-220.11"/>
<polygon fill="black" stroke="black" points="281.5,-220.1 278,-210.1 274.5,-220.1 281.5,-220.1"/>
</g>
<!-- Diem::is_currency&#45;&gt;CoreAddresses::CURRENCY_INFO_ADDRESS -->
<g id="edge5" class="edge">
<title>Diem::is_currency&#45;&gt;CoreAddresses::CURRENCY_INFO_ADDRESS</title>
<path fill="none" stroke="black" d="M288,-98.82C288,-88.19 288,-74.31 288,-62.2"/>
<polygon fill="black" stroke="black" points="291.5,-62.15 288,-52.15 284.5,-62.15 291.5,-62.15"/>
</g>
<!-- Diem::assert_is_currency&#45;&gt;Diem::is_currency -->
<g id="edge7" class="edge">
<title>Diem::assert_is_currency&#45;&gt;Diem::is_currency</title>
<path fill="none" stroke="black" d="M280.37,-173.7C281.53,-165.25 282.95,-154.87 284.25,-145.37"/>
<polygon fill="black" stroke="black" points="287.76,-145.56 285.65,-135.18 280.82,-144.61 287.76,-145.56"/>
</g>
<!-- Errors::not_published -->
<g id="node6" class="node">
<title>Errors::not_published</title>
<ellipse fill="none" stroke="black" cx="76" cy="-117" rx="60.39" ry="18"/>
<text text-anchor="middle" x="76" y="-113.3" font-family="Times,serif" font-size="14.00">not_published</text>
</g>
<!-- Diem::assert_is_currency&#45;&gt;Errors::not_published -->
<g id="edge6" class="edge">
<title>Diem::assert_is_currency&#45;&gt;Errors::not_published</title>
<path fill="none" stroke="black" d="M228.79,-178.16C216.06,-174.53 202.44,-170.37 190,-166 165.29,-157.32 138.25,-146.02 116.71,-136.56"/>
<polygon fill="black" stroke="black" points="118.1,-133.35 107.53,-132.5 115.26,-139.75 118.1,-133.35"/>
</g>
<!-- Errors::make -->
<g id="node7" class="node">
<title>Errors::make</title>
<ellipse fill="none" stroke="black" cx="76" cy="-34" rx="30.59" ry="18"/>
<text text-anchor="middle" x="76" y="-30.3" font-family="Times,serif" font-size="14.00">make</text>
</g>
<!-- Errors::not_published&#45;&gt;Errors::make -->
<g id="edge8" class="edge">
<title>Errors::not_published&#45;&gt;Errors::make</title>
<path fill="none" stroke="black" d="M76,-98.82C76,-88.19 76,-74.31 76,-62.2"/>
<polygon fill="black" stroke="black" points="79.5,-62.15 76,-52.15 72.5,-62.15 79.5,-62.15"/>
</g>
</g>
</svg>
