<?xml version="1.0" encoding="UTF-8" standalone="no"?>
<!DOCTYPE svg PUBLIC "-//W3C//DTD SVG 1.1//EN"
 "http://www.w3.org/Graphics/SVG/1.1/DTD/svg11.dtd">
<!-- Generated by graphviz version 2.46.1 (20210213.1702)
 -->
<!-- Title: G Pages: 1 -->
<svg width="1129pt" height="332pt"
 viewBox="0.00 0.00 1129.10 332.00" xmlns="http://www.w3.org/2000/svg" xmlns:xlink="http://www.w3.org/1999/xlink">
<g id="graph0" class="graph" transform="scale(1 1) rotate(0) translate(4 328)">
<title>G</title>
<polygon fill="white" stroke="transparent" points="-4,4 -4,-328 1125.1,-328 1125.1,4 -4,4"/>
<!-- XDX -->
<g id="node1" class="node">
<title>XDX</title>
<ellipse fill="none" stroke="black" cx="892.19" cy="-18" rx="29.8" ry="18"/>
<text text-anchor="middle" x="892.19" y="-14.3" font-family="Times,serif" font-size="14.00">XDX</text>
</g>
<!-- TransactionFee -->
<g id="node2" class="node">
<title>TransactionFee</title>
<ellipse fill="none" stroke="black" cx="818.19" cy="-90" rx="64.99" ry="18"/>
<text text-anchor="middle" x="818.19" y="-86.3" font-family="Times,serif" font-size="14.00">TransactionFee</text>
</g>
<!-- TransactionFee&#45;&gt;XDX -->
<g id="edge1" class="edge">
<title>TransactionFee&#45;&gt;XDX</title>
<path fill="none" stroke="black" d="M835.73,-72.41C845.77,-62.91 858.49,-50.88 869.31,-40.65"/>
<polygon fill="black" stroke="black" points="871.93,-42.99 876.79,-33.57 867.12,-37.9 871.93,-42.99"/>
</g>
<!-- DualAttestation -->
<g id="node3" class="node">
<title>DualAttestation</title>
<ellipse fill="none" stroke="black" cx="967.19" cy="-90" rx="66.09" ry="18"/>
<text text-anchor="middle" x="967.19" y="-86.3" font-family="Times,serif" font-size="14.00">DualAttestation</text>
</g>
<!-- DualAttestation&#45;&gt;XDX -->
<g id="edge2" class="edge">
<title>DualAttestation&#45;&gt;XDX</title>
<path fill="none" stroke="black" d="M949.42,-72.41C939.24,-62.91 926.35,-50.88 915.38,-40.65"/>
<polygon fill="black" stroke="black" points="917.5,-37.83 907.8,-33.57 912.72,-42.95 917.5,-37.83"/>
</g>
<!-- DiemAccount -->
<g id="node4" class="node">
<title>DiemAccount</title>
<ellipse fill="none" stroke="black" cx="742.19" cy="-162" rx="60.39" ry="18"/>
<text text-anchor="middle" x="742.19" y="-158.3" font-family="Times,serif" font-size="14.00">DiemAccount</text>
</g>
<!-- DiemAccount&#45;&gt;XDX -->
<g id="edge3" class="edge">
<title>DiemAccount&#45;&gt;XDX</title>
<path fill="none" stroke="black" d="M737.27,-143.8C732.84,-124.43 729.1,-92.94 744.19,-72 768.78,-37.89 817.38,-25.64 852.18,-21.29"/>
<polygon fill="black" stroke="black" points="852.92,-24.73 862.49,-20.18 852.17,-17.77 852.92,-24.73"/>
</g>
<!-- DiemAccount&#45;&gt;TransactionFee -->
<g id="edge5" class="edge">
<title>DiemAccount&#45;&gt;TransactionFee</title>
<path fill="none" stroke="black" d="M759.82,-144.76C769.63,-135.73 782.01,-124.33 792.84,-114.35"/>
<polygon fill="black" stroke="black" points="795.41,-116.74 800.4,-107.39 790.67,-111.59 795.41,-116.74"/>
</g>
<!-- DiemAccount&#45;&gt;DualAttestation -->
<g id="edge8" class="edge">
<title>DiemAccount&#45;&gt;DualAttestation</title>
<path fill="none" stroke="black" d="M782.42,-148.49C819.67,-136.9 875.25,-119.6 915.72,-107.01"/>
<polygon fill="black" stroke="black" points="916.9,-110.31 925.41,-104 914.82,-103.63 916.9,-110.31"/>
</g>
<!-- Genesis -->
<g id="node5" class="node">
<title>Genesis</title>
<ellipse fill="none" stroke="black" cx="1061.19" cy="-234" rx="38.19" ry="18"/>
<text text-anchor="middle" x="1061.19" y="-230.3" font-family="Times,serif" font-size="14.00">Genesis</text>
</g>
<!-- Genesis&#45;&gt;XDX -->
<g id="edge4" class="edge">
<title>Genesis&#45;&gt;XDX</title>
<path fill="none" stroke="black" d="M1064.55,-215.76C1069.75,-183.67 1075.93,-114.21 1042.19,-72 1015.7,-38.86 966.99,-26.41 932.27,-21.75"/>
<polygon fill="black" stroke="black" points="932.32,-18.23 921.98,-20.54 931.51,-25.18 932.32,-18.23"/>
</g>
<!-- Genesis&#45;&gt;TransactionFee -->
<g id="edge6" class="edge">
<title>Genesis&#45;&gt;TransactionFee</title>
<path fill="none" stroke="black" d="M1037.89,-219.38C995.17,-194.42 904.08,-141.19 853.64,-111.71"/>
<polygon fill="black" stroke="black" points="855.11,-108.52 844.71,-106.5 851.58,-114.57 855.11,-108.52"/>
</g>
<!-- Genesis&#45;&gt;DualAttestation -->
<g id="edge10" class="edge">
<title>Genesis&#45;&gt;DualAttestation</title>
<path fill="none" stroke="black" d="M1050.41,-216.71C1034.15,-192.15 1003.22,-145.43 983.99,-116.38"/>
<polygon fill="black" stroke="black" points="986.87,-114.39 978.43,-107.98 981.03,-118.25 986.87,-114.39"/>
</g>
<!-- Genesis&#45;&gt;DiemAccount -->
<g id="edge16" class="edge">
<title>Genesis&#45;&gt;DiemAccount</title>
<path fill="none" stroke="black" d="M1032.47,-222.06C1026.17,-219.87 1019.5,-217.72 1013.19,-216 942.77,-196.76 860.25,-181.65 804.93,-172.57"/>
<polygon fill="black" stroke="black" points="805.36,-169.1 794.92,-170.95 804.23,-176.01 805.36,-169.1"/>
</g>
<!-- TreasuryComplianceScripts -->
<g id="node6" class="node">
<title>TreasuryComplianceScripts</title>
<ellipse fill="none" stroke="black" cx="109.19" cy="-234" rx="109.38" ry="18"/>
<text text-anchor="middle" x="109.19" y="-230.3" font-family="Times,serif" font-size="14.00">TreasuryComplianceScripts</text>
</g>
<!-- TreasuryComplianceScripts&#45;&gt;TransactionFee -->
<g id="edge7" class="edge">
<title>TreasuryComplianceScripts&#45;&gt;TransactionFee</title>
<path fill="none" stroke="black" d="M170.01,-218.98C249.77,-200.78 394.13,-168.45 518.19,-144 599.13,-128.05 692.81,-111.86 753.65,-101.65"/>
<polygon fill="black" stroke="black" points="754.59,-105.04 763.87,-99.93 753.43,-98.13 754.59,-105.04"/>
</g>
<!-- TreasuryComplianceScripts&#45;&gt;DualAttestation -->
<g id="edge11" class="edge">
<title>TreasuryComplianceScripts&#45;&gt;DualAttestation</title>
<path fill="none" stroke="black" d="M185.95,-221.13C254.67,-210.47 358.18,-194.33 448.19,-180 472.87,-176.07 867.66,-112.76 892.19,-108 897.6,-106.95 903.21,-105.8 908.82,-104.6"/>
<polygon fill="black" stroke="black" points="909.84,-107.96 918.87,-102.42 908.35,-101.12 909.84,-107.96"/>
</g>
<!-- TreasuryComplianceScripts&#45;&gt;DiemAccount -->
<g id="edge18" class="edge">
<title>TreasuryComplianceScripts&#45;&gt;DiemAccount</title>
<path fill="none" stroke="black" d="M188.54,-221.63C203.05,-219.67 218.07,-217.71 232.19,-216 390.73,-196.81 577.53,-178.49 675.12,-169.24"/>
<polygon fill="black" stroke="black" points="675.51,-172.72 685.14,-168.29 674.85,-165.75 675.51,-172.72"/>
</g>
<!-- AccountAdministrationScripts -->
<g id="node7" class="node">
<title>AccountAdministrationScripts</title>
<ellipse fill="none" stroke="black" cx="475.19" cy="-306" rx="118.08" ry="18"/>
<text text-anchor="middle" x="475.19" y="-302.3" font-family="Times,serif" font-size="14.00">AccountAdministrationScripts</text>
</g>
<!-- AccountAdministrationScripts&#45;&gt;DualAttestation -->
<g id="edge9" class="edge">
<title>AccountAdministrationScripts&#45;&gt;DualAttestation</title>
<path fill="none" stroke="black" d="M592.63,-303.57C766.09,-300.23 1074.08,-289.08 1108.19,-252 1154.06,-202.13 1063.04,-141.62 1006.88,-110.93"/>
<polygon fill="black" stroke="black" points="1008.32,-107.73 997.85,-106.09 1005.01,-113.9 1008.32,-107.73"/>
</g>
<!-- AccountAdministrationScripts&#45;&gt;DiemAccount -->
<g id="edge14" class="edge">
<title>AccountAdministrationScripts&#45;&gt;DiemAccount</title>
<path fill="none" stroke="black" d="M380.22,-295.18C307.15,-283.97 224.92,-261 265.19,-216 271.96,-208.43 545.1,-181.65 674.94,-169.31"/>
<polygon fill="black" stroke="black" points="675.54,-172.77 685.17,-168.34 674.88,-165.8 675.54,-172.77"/>
</g>
<!-- SharedEd25519PublicKey -->
<g id="node8" class="node">
<title>SharedEd25519PublicKey</title>
<ellipse fill="none" stroke="black" cx="378.19" cy="-234" rx="103.98" ry="18"/>
<text text-anchor="middle" x="378.19" y="-230.3" font-family="Times,serif" font-size="14.00">SharedEd25519PublicKey</text>
</g>
<!-- AccountAdministrationScripts&#45;&gt;SharedEd25519PublicKey -->
<g id="edge19" class="edge">
<title>AccountAdministrationScripts&#45;&gt;SharedEd25519PublicKey</title>
<path fill="none" stroke="black" d="M451.71,-288.05C439.08,-278.94 423.33,-267.58 409.66,-257.71"/>
<polygon fill="black" stroke="black" points="411.61,-254.8 401.46,-251.79 407.52,-260.48 411.61,-254.8"/>
</g>
<!-- RecoveryAddress -->
<g id="node9" class="node">
<title>RecoveryAddress</title>
<ellipse fill="none" stroke="black" cx="573.19" cy="-234" rx="73.39" ry="18"/>
<text text-anchor="middle" x="573.19" y="-230.3" font-family="Times,serif" font-size="14.00">RecoveryAddress</text>
</g>
<!-- AccountAdministrationScripts&#45;&gt;RecoveryAddress -->
<g id="edge20" class="edge">
<title>AccountAdministrationScripts&#45;&gt;RecoveryAddress</title>
<path fill="none" stroke="black" d="M498.91,-288.05C511.86,-278.81 528.05,-267.24 542.01,-257.27"/>
<polygon fill="black" stroke="black" points="544.26,-259.97 550.36,-251.31 540.19,-254.27 544.26,-259.97"/>
</g>
<!-- SharedEd25519PublicKey&#45;&gt;DiemAccount -->
<g id="edge12" class="edge">
<title>SharedEd25519PublicKey&#45;&gt;DiemAccount</title>
<path fill="none" stroke="black" d="M444.95,-220.16C512.95,-207.09 617.39,-187 682.65,-174.45"/>
<polygon fill="black" stroke="black" points="683.62,-177.83 692.77,-172.5 682.29,-170.95 683.62,-177.83"/>
</g>
<!-- RecoveryAddress&#45;&gt;DiemAccount -->
<g id="edge13" class="edge">
<title>RecoveryAddress&#45;&gt;DiemAccount</title>
<path fill="none" stroke="black" d="M609.03,-218.15C635.29,-207.28 671.07,-192.46 698.92,-180.92"/>
<polygon fill="black" stroke="black" points="700.52,-184.05 708.42,-176.99 697.84,-177.58 700.52,-184.05"/>
</g>
<!-- AccountCreationScripts -->
<g id="node10" class="node">
<title>AccountCreationScripts</title>
<ellipse fill="none" stroke="black" cx="759.19" cy="-234" rx="94.78" ry="18"/>
<text text-anchor="middle" x="759.19" y="-230.3" font-family="Times,serif" font-size="14.00">AccountCreationScripts</text>
</g>
<!-- AccountCreationScripts&#45;&gt;DiemAccount -->
<g id="edge15" class="edge">
<title>AccountCreationScripts&#45;&gt;DiemAccount</title>
<path fill="none" stroke="black" d="M754.99,-215.7C753.09,-207.9 750.81,-198.51 748.71,-189.83"/>
<polygon fill="black" stroke="black" points="752.11,-189 746.34,-180.1 745.3,-190.65 752.11,-189"/>
</g>
<!-- PaymentScripts -->
<g id="node11" class="node">
<title>PaymentScripts</title>
<ellipse fill="none" stroke="black" cx="938.19" cy="-234" rx="66.09" ry="18"/>
<text text-anchor="middle" x="938.19" y="-230.3" font-family="Times,serif" font-size="14.00">PaymentScripts</text>
</g>
<!-- PaymentScripts&#45;&gt;DiemAccount -->
<g id="edge17" class="edge">
<title>PaymentScripts&#45;&gt;DiemAccount</title>
<path fill="none" stroke="black" d="M899.47,-219.17C867.79,-207.86 822.87,-191.81 789.14,-179.77"/>
<polygon fill="black" stroke="black" points="790.1,-176.39 779.5,-176.33 787.74,-182.99 790.1,-176.39"/>
</g>
</g>
</svg>
