<?xml version="1.0" encoding="UTF-8" standalone="no"?>
<!DOCTYPE svg PUBLIC "-//W3C//DTD SVG 1.1//EN"
 "http://www.w3.org/Graphics/SVG/1.1/DTD/svg11.dtd">
<!-- Generated by graphviz version 2.46.1 (20210213.1702)
 -->
<!-- Title: G Pages: 1 -->
<svg width="936pt" height="548pt"
 viewBox="0.00 0.00 936.33 548.00" xmlns="http://www.w3.org/2000/svg" xmlns:xlink="http://www.w3.org/1999/xlink">
<g id="graph0" class="graph" transform="scale(1 1) rotate(0) translate(4 544)">
<title>G</title>
<polygon fill="white" stroke="transparent" points="-4,4 -4,-544 932.33,-544 932.33,4 -4,4"/>
<!-- XDX -->
<g id="node1" class="node">
<title>XDX</title>
<ellipse fill="none" stroke="black" cx="158.33" cy="-522" rx="29.8" ry="18"/>
<text text-anchor="middle" x="158.33" y="-518.3" font-family="Times,serif" font-size="14.00">XDX</text>
</g>
<!-- Errors -->
<g id="node2" class="node">
<title>Errors</title>
<ellipse fill="none" stroke="black" cx="260.33" cy="-18" rx="32.49" ry="18"/>
<text text-anchor="middle" x="260.33" y="-14.3" font-family="Times,serif" font-size="14.00">Errors</text>
</g>
<!-- XDX&#45;&gt;Errors -->
<g id="edge1" class="edge">
<title>XDX&#45;&gt;Errors</title>
<path fill="none" stroke="black" d="M163.41,-503.96C171.54,-473.37 184.34,-407.87 161.33,-360 150.23,-336.92 134.36,-342.19 116.33,-324 80.89,-288.27 46.33,-285.32 46.33,-235 46.33,-235 46.33,-235 46.33,-161 46.33,-78.64 157.74,-41.2 219.79,-26.74"/>
<polygon fill="black" stroke="black" points="220.67,-30.13 229.67,-24.54 219.14,-23.3 220.67,-30.13"/>
</g>
<!-- CoreAddresses -->
<g id="node3" class="node">
<title>CoreAddresses</title>
<ellipse fill="none" stroke="black" cx="596.33" cy="-90" rx="63.89" ry="18"/>
<text text-anchor="middle" x="596.33" y="-86.3" font-family="Times,serif" font-size="14.00">CoreAddresses</text>
</g>
<!-- XDX&#45;&gt;CoreAddresses -->
<g id="edge2" class="edge">
<title>XDX&#45;&gt;CoreAddresses</title>
<path fill="none" stroke="black" d="M188.04,-518.73C329.55,-507.55 928.33,-455.72 928.33,-379 928.33,-379 928.33,-379 928.33,-233 928.33,-121.44 767.91,-96.36 670.09,-91.44"/>
<polygon fill="black" stroke="black" points="670.09,-87.94 659.95,-90.99 669.78,-94.93 670.09,-87.94"/>
</g>
<!-- DiemTimestamp -->
<g id="node4" class="node">
<title>DiemTimestamp</title>
<ellipse fill="none" stroke="black" cx="329.33" cy="-162" rx="71.49" ry="18"/>
<text text-anchor="middle" x="329.33" y="-158.3" font-family="Times,serif" font-size="14.00">DiemTimestamp</text>
</g>
<!-- XDX&#45;&gt;DiemTimestamp -->
<g id="edge3" class="edge">
<title>XDX&#45;&gt;DiemTimestamp</title>
<path fill="none" stroke="black" d="M129.77,-516.49C101.03,-510.45 57.47,-496.93 32.33,-468 0.36,-431.21 -10.32,-402.61 13.33,-360 68.87,-259.92 198.74,-204.04 273.55,-179.1"/>
<polygon fill="black" stroke="black" points="274.86,-182.35 283.28,-175.92 272.69,-175.7 274.86,-182.35"/>
</g>
<!-- FixedPoint32 -->
<g id="node5" class="node">
<title>FixedPoint32</title>
<ellipse fill="none" stroke="black" cx="94.33" cy="-378" rx="57.69" ry="18"/>
<text text-anchor="middle" x="94.33" y="-374.3" font-family="Times,serif" font-size="14.00">FixedPoint32</text>
</g>
<!-- XDX&#45;&gt;FixedPoint32 -->
<g id="edge4" class="edge">
<title>XDX&#45;&gt;FixedPoint32</title>
<path fill="none" stroke="black" d="M150.86,-504.43C139.84,-479.98 119.12,-434 106.06,-405.02"/>
<polygon fill="black" stroke="black" points="109.25,-403.58 101.95,-395.9 102.86,-406.46 109.25,-403.58"/>
</g>
<!-- Diem -->
<g id="node6" class="node">
<title>Diem</title>
<ellipse fill="none" stroke="black" cx="514.33" cy="-450" rx="30.59" ry="18"/>
<text text-anchor="middle" x="514.33" y="-446.3" font-family="Times,serif" font-size="14.00">Diem</text>
</g>
<!-- XDX&#45;&gt;Diem -->
<g id="edge5" class="edge">
<title>XDX&#45;&gt;Diem</title>
<path fill="none" stroke="black" d="M186.26,-515.51C249.38,-503.1 403.12,-472.87 475.47,-458.64"/>
<polygon fill="black" stroke="black" points="476.4,-462.03 485.53,-456.66 475.05,-455.16 476.4,-462.03"/>
</g>
<!-- AccountLimits -->
<g id="node7" class="node">
<title>AccountLimits</title>
<ellipse fill="none" stroke="black" cx="214.33" cy="-306" rx="63.89" ry="18"/>
<text text-anchor="middle" x="214.33" y="-302.3" font-family="Times,serif" font-size="14.00">AccountLimits</text>
</g>
<!-- XDX&#45;&gt;AccountLimits -->
<g id="edge6" class="edge">
<title>XDX&#45;&gt;AccountLimits</title>
<path fill="none" stroke="black" d="M136.38,-509.71C88.79,-483.75 -16.24,-417.63 27.33,-360 42.24,-340.27 101.38,-325.76 149.21,-316.96"/>
<polygon fill="black" stroke="black" points="150,-320.37 159.23,-315.17 148.77,-313.48 150,-320.37"/>
</g>
<!-- CoreAddresses&#45;&gt;Errors -->
<g id="edge8" class="edge">
<title>CoreAddresses&#45;&gt;Errors</title>
<path fill="none" stroke="black" d="M547.67,-78.3C537.95,-76.19 527.82,-74.01 518.33,-72 441.32,-55.7 351.22,-37.36 300.46,-27.09"/>
<polygon fill="black" stroke="black" points="301.04,-23.63 290.54,-25.08 299.65,-30.5 301.04,-23.63"/>
</g>
<!-- Signer -->
<g id="node8" class="node">
<title>Signer</title>
<ellipse fill="none" stroke="black" cx="642.33" cy="-18" rx="33.6" ry="18"/>
<text text-anchor="middle" x="642.33" y="-14.3" font-family="Times,serif" font-size="14.00">Signer</text>
</g>
<!-- CoreAddresses&#45;&gt;Signer -->
<g id="edge7" class="edge">
<title>CoreAddresses&#45;&gt;Signer</title>
<path fill="none" stroke="black" d="M607.46,-72.05C613.03,-63.59 619.86,-53.19 626,-43.84"/>
<polygon fill="black" stroke="black" points="629.05,-45.59 631.61,-35.31 623.2,-41.74 629.05,-45.59"/>
</g>
<!-- DiemTimestamp&#45;&gt;Errors -->
<g id="edge9" class="edge">
<title>DiemTimestamp&#45;&gt;Errors</title>
<path fill="none" stroke="black" d="M321.01,-143.87C309.03,-119.22 286.83,-73.54 272.86,-44.79"/>
<polygon fill="black" stroke="black" points="275.99,-43.21 268.47,-35.75 269.69,-46.27 275.99,-43.21"/>
</g>
<!-- DiemTimestamp&#45;&gt;CoreAddresses -->
<g id="edge10" class="edge">
<title>DiemTimestamp&#45;&gt;CoreAddresses</title>
<path fill="none" stroke="black" d="M377.06,-148.49C423.23,-136.38 493.13,-118.06 541.55,-105.36"/>
<polygon fill="black" stroke="black" points="542.45,-108.74 551.23,-102.82 540.67,-101.97 542.45,-108.74"/>
</g>
<!-- FixedPoint32&#45;&gt;Errors -->
<g id="edge11" class="edge">
<title>FixedPoint32&#45;&gt;Errors</title>
<path fill="none" stroke="black" d="M69.97,-361.55C57.03,-352.16 41.86,-339.08 32.33,-324 10.45,-289.36 8.33,-275.97 8.33,-235 8.33,-235 8.33,-235 8.33,-161 8.33,-120.03 2.86,-100.46 32.33,-72 58.6,-46.64 160.34,-30.76 218.65,-23.56"/>
<polygon fill="black" stroke="black" points="219.15,-27.02 228.66,-22.35 218.31,-20.07 219.15,-27.02"/>
</g>
<!-- Diem&#45;&gt;Errors -->
<g id="edge13" class="edge">
<title>Diem&#45;&gt;Errors</title>
<path fill="none" stroke="black" d="M486.9,-441.82C404.25,-419.93 162.05,-353.68 141.33,-324 77.06,-231.93 96.01,-164.73 159.33,-72 173.76,-50.87 199.35,-37.57 221.16,-29.57"/>
<polygon fill="black" stroke="black" points="222.53,-32.81 230.86,-26.27 220.27,-26.18 222.53,-32.81"/>
</g>
<!-- Diem&#45;&gt;CoreAddresses -->
<g id="edge14" class="edge">
<title>Diem&#45;&gt;CoreAddresses</title>
<path fill="none" stroke="black" d="M544.92,-449.85C628.12,-450.44 852.33,-439.71 852.33,-307 852.33,-307 852.33,-307 852.33,-233 852.33,-192.55 861.79,-172.74 833.33,-144 810.11,-120.55 726.67,-105.96 665.34,-98.17"/>
<polygon fill="black" stroke="black" points="665.67,-94.68 655.32,-96.93 664.81,-101.63 665.67,-94.68"/>
</g>
<!-- Diem&#45;&gt;DiemTimestamp -->
<g id="edge15" class="edge">
<title>Diem&#45;&gt;DiemTimestamp</title>
<path fill="none" stroke="black" d="M483.99,-447.44C448.96,-443.9 392.32,-432.49 362.33,-396 313.35,-336.41 318.66,-237.99 324.83,-190.42"/>
<polygon fill="black" stroke="black" points="328.33,-190.67 326.26,-180.27 321.4,-189.69 328.33,-190.67"/>
</g>
<!-- Diem&#45;&gt;FixedPoint32 -->
<g id="edge17" class="edge">
<title>Diem&#45;&gt;FixedPoint32</title>
<path fill="none" stroke="black" d="M485.13,-444.13C416.81,-432.75 245.45,-404.19 154,-388.95"/>
<polygon fill="black" stroke="black" points="154.51,-385.48 144.07,-387.29 153.36,-392.39 154.51,-385.48"/>
</g>
<!-- Diem&#45;&gt;Signer -->
<g id="edge12" class="edge">
<title>Diem&#45;&gt;Signer</title>
<path fill="none" stroke="black" d="M544.65,-447.53C615.28,-443.56 788.23,-430.49 833.33,-396 861.29,-374.62 858.82,-358.39 866.33,-324 890.9,-211.42 896.13,-142.95 805.33,-72 770.22,-44.57 720.43,-31.1 685.13,-24.64"/>
<polygon fill="black" stroke="black" points="685.58,-21.16 675.13,-22.92 684.4,-28.06 685.58,-21.16"/>
</g>
<!-- Roles -->
<g id="node9" class="node">
<title>Roles</title>
<ellipse fill="none" stroke="black" cx="479.33" cy="-234" rx="30.59" ry="18"/>
<text text-anchor="middle" x="479.33" y="-230.3" font-family="Times,serif" font-size="14.00">Roles</text>
</g>
<!-- Diem&#45;&gt;Roles -->
<g id="edge16" class="edge">
<title>Diem&#45;&gt;Roles</title>
<path fill="none" stroke="black" d="M529.22,-433.76C537.79,-423.87 547.75,-410.23 552.33,-396 557.22,-380.77 558.84,-374.62 552.33,-360 542.6,-338.15 525.76,-343.79 512.33,-324 499.42,-304.99 490.79,-280.29 485.6,-261.74"/>
<polygon fill="black" stroke="black" points="488.93,-260.65 483,-251.87 482.16,-262.44 488.93,-260.65"/>
</g>
<!-- Vector -->
<g id="node10" class="node">
<title>Vector</title>
<ellipse fill="none" stroke="black" cx="680.33" cy="-162" rx="33.6" ry="18"/>
<text text-anchor="middle" x="680.33" y="-158.3" font-family="Times,serif" font-size="14.00">Vector</text>
</g>
<!-- Diem&#45;&gt;Vector -->
<g id="edge18" class="edge">
<title>Diem&#45;&gt;Vector</title>
<path fill="none" stroke="black" d="M536.29,-437.25C569.8,-418.14 633.26,-377.07 666.33,-324 691.9,-282.96 689.39,-224.21 685.01,-190.19"/>
<polygon fill="black" stroke="black" points="688.44,-189.47 683.56,-180.07 681.52,-190.47 688.44,-189.47"/>
</g>
<!-- Event -->
<g id="node11" class="node">
<title>Event</title>
<ellipse fill="none" stroke="black" cx="756.33" cy="-234" rx="31.4" ry="18"/>
<text text-anchor="middle" x="756.33" y="-230.3" font-family="Times,serif" font-size="14.00">Event</text>
</g>
<!-- Diem&#45;&gt;Event -->
<g id="edge19" class="edge">
<title>Diem&#45;&gt;Event</title>
<path fill="none" stroke="black" d="M545.21,-449.6C588.35,-448.7 666.41,-440.49 711.33,-396 747.49,-360.19 755.23,-297.89 756.51,-262.2"/>
<polygon fill="black" stroke="black" points="760.01,-262.11 756.73,-252.04 753.01,-261.96 760.01,-262.11"/>
</g>
<!-- RegisteredCurrencies -->
<g id="node12" class="node">
<title>RegisteredCurrencies</title>
<ellipse fill="none" stroke="black" cx="457.33" cy="-378" rx="86.38" ry="18"/>
<text text-anchor="middle" x="457.33" y="-374.3" font-family="Times,serif" font-size="14.00">RegisteredCurrencies</text>
</g>
<!-- Diem&#45;&gt;RegisteredCurrencies -->
<g id="edge20" class="edge">
<title>Diem&#45;&gt;RegisteredCurrencies</title>
<path fill="none" stroke="black" d="M501.68,-433.46C494.61,-424.78 485.62,-413.75 477.6,-403.89"/>
<polygon fill="black" stroke="black" points="480.17,-401.51 471.14,-395.96 474.74,-405.93 480.17,-401.51"/>
</g>
<!-- AccountLimits&#45;&gt;Errors -->
<g id="edge22" class="edge">
<title>AccountLimits&#45;&gt;Errors</title>
<path fill="none" stroke="black" d="M199.09,-288.24C191.23,-278.44 182.45,-265.4 178.33,-252 154.81,-175.53 140.08,-142.26 178.33,-72 188.11,-54.04 206.88,-41.23 224,-32.72"/>
<polygon fill="black" stroke="black" points="225.67,-35.8 233.28,-28.42 222.73,-29.45 225.67,-35.8"/>
</g>
<!-- AccountLimits&#45;&gt;DiemTimestamp -->
<g id="edge23" class="edge">
<title>AccountLimits&#45;&gt;DiemTimestamp</title>
<path fill="none" stroke="black" d="M239.43,-289.29C253.29,-279.73 270.12,-266.57 282.33,-252 298.12,-233.15 310.75,-208.14 318.92,-189.43"/>
<polygon fill="black" stroke="black" points="322.23,-190.6 322.89,-180.02 315.78,-187.87 322.23,-190.6"/>
</g>
<!-- AccountLimits&#45;&gt;Signer -->
<g id="edge21" class="edge">
<title>AccountLimits&#45;&gt;Signer</title>
<path fill="none" stroke="black" d="M212.89,-287.97C211.14,-255.6 212.17,-184.83 249.33,-144 341.81,-42.4 516.45,-22.88 598.13,-19.48"/>
<polygon fill="black" stroke="black" points="598.68,-22.96 608.55,-19.11 598.43,-15.96 598.68,-22.96"/>
</g>
<!-- AccountLimits&#45;&gt;Roles -->
<g id="edge24" class="edge">
<title>AccountLimits&#45;&gt;Roles</title>
<path fill="none" stroke="black" d="M259.28,-293.13C310.73,-279.53 394.07,-257.52 442.06,-244.85"/>
<polygon fill="black" stroke="black" points="443.25,-248.15 452.02,-242.21 441.46,-241.38 443.25,-248.15"/>
</g>
<!-- Roles&#45;&gt;Errors -->
<g id="edge26" class="edge">
<title>Roles&#45;&gt;Errors</title>
<path fill="none" stroke="black" d="M468.35,-217.09C455.27,-198.64 432.31,-167.72 409.33,-144 370.03,-103.44 318.47,-62.51 287.45,-39.02"/>
<polygon fill="black" stroke="black" points="289.37,-36.08 279.28,-32.87 285.17,-41.68 289.37,-36.08"/>
</g>
<!-- Roles&#45;&gt;CoreAddresses -->
<g id="edge27" class="edge">
<title>Roles&#45;&gt;CoreAddresses</title>
<path fill="none" stroke="black" d="M492.07,-217.53C512.32,-192.96 552.01,-144.79 576.15,-115.49"/>
<polygon fill="black" stroke="black" points="578.86,-117.71 582.52,-107.76 573.46,-113.25 578.86,-117.71"/>
</g>
<!-- Roles&#45;&gt;DiemTimestamp -->
<g id="edge28" class="edge">
<title>Roles&#45;&gt;DiemTimestamp</title>
<path fill="none" stroke="black" d="M456.22,-222.22C433.58,-211.65 398.56,-195.31 371.04,-182.47"/>
<polygon fill="black" stroke="black" points="372.2,-179.14 361.65,-178.09 369.24,-185.49 372.2,-179.14"/>
</g>
<!-- Roles&#45;&gt;Signer -->
<g id="edge25" class="edge">
<title>Roles&#45;&gt;Signer</title>
<path fill="none" stroke="black" d="M479.41,-215.76C480.46,-183.67 487.09,-114.22 523.33,-72 543.22,-48.82 575.25,-35.35 601.07,-27.79"/>
<polygon fill="black" stroke="black" points="602.26,-31.09 610.98,-25.08 600.41,-24.34 602.26,-31.09"/>
</g>
<!-- Event&#45;&gt;Errors -->
<g id="edge30" class="edge">
<title>Event&#45;&gt;Errors</title>
<path fill="none" stroke="black" d="M753.15,-216.05C745.65,-181.48 723.25,-103.46 669.33,-72 607.77,-36.09 394.62,-23.98 302.87,-20.37"/>
<polygon fill="black" stroke="black" points="302.94,-16.87 292.82,-19.99 302.68,-23.86 302.94,-16.87"/>
</g>
<!-- Event&#45;&gt;Signer -->
<g id="edge29" class="edge">
<title>Event&#45;&gt;Signer</title>
<path fill="none" stroke="black" d="M781.78,-223.14C799.77,-214.67 822.53,-200.54 833.33,-180 840.77,-165.84 839.7,-158.68 833.33,-144 806.15,-81.38 729.08,-46.44 681.55,-30.28"/>
<polygon fill="black" stroke="black" points="682.48,-26.9 671.89,-27.11 680.3,-33.55 682.48,-26.9"/>
</g>
<!-- Event&#45;&gt;Vector -->
<g id="edge31" class="edge">
<title>Event&#45;&gt;Vector</title>
<path fill="none" stroke="black" d="M740.21,-218.15C729.7,-208.48 715.81,-195.68 704.05,-184.85"/>
<polygon fill="black" stroke="black" points="706.41,-182.27 696.68,-178.07 701.67,-187.41 706.41,-182.27"/>
</g>
<!-- BCS -->
<g id="node13" class="node">
<title>BCS</title>
<ellipse fill="none" stroke="black" cx="797.33" cy="-162" rx="27.1" ry="18"/>
<text text-anchor="middle" x="797.33" y="-158.3" font-family="Times,serif" font-size="14.00">BCS</text>
</g>
<!-- Event&#45;&gt;BCS -->
<g id="edge32" class="edge">
<title>Event&#45;&gt;BCS</title>
<path fill="none" stroke="black" d="M765.84,-216.76C770.86,-208.19 777.12,-197.49 782.74,-187.9"/>
<polygon fill="black" stroke="black" points="785.84,-189.55 787.87,-179.15 779.8,-186.01 785.84,-189.55"/>
</g>
<!-- RegisteredCurrencies&#45;&gt;Errors -->
<g id="edge33" class="edge">
<title>RegisteredCurrencies&#45;&gt;Errors</title>
<path fill="none" stroke="black" d="M428.89,-360.88C381.06,-331.91 286.13,-265.96 249.33,-180 230.42,-135.84 241.77,-78.62 251.33,-45.64"/>
<polygon fill="black" stroke="black" points="254.76,-46.41 254.33,-35.83 248.06,-44.37 254.76,-46.41"/>
</g>
<!-- RegisteredCurrencies&#45;&gt;DiemTimestamp -->
<g id="edge34" class="edge">
<title>RegisteredCurrencies&#45;&gt;DiemTimestamp</title>
<path fill="none" stroke="black" d="M447.07,-359.85C424.64,-322.35 371.13,-232.88 344.67,-188.65"/>
<polygon fill="black" stroke="black" points="347.59,-186.72 339.46,-179.94 341.59,-190.31 347.59,-186.72"/>
</g>
<!-- RegisteredCurrencies&#45;&gt;Roles -->
<g id="edge35" class="edge">
<title>RegisteredCurrencies&#45;&gt;Roles</title>
<path fill="none" stroke="black" d="M459.98,-359.87C463.73,-335.67 470.62,-291.21 475.08,-262.39"/>
<polygon fill="black" stroke="black" points="478.59,-262.61 476.67,-252.19 471.68,-261.54 478.59,-262.61"/>
</g>
<!-- RegisteredCurrencies&#45;&gt;Vector -->
<g id="edge36" class="edge">
<title>RegisteredCurrencies&#45;&gt;Vector</title>
<path fill="none" stroke="black" d="M538.25,-371.51C574,-365 613.84,-351.53 640.33,-324 675.26,-287.7 681.13,-225.85 681.35,-190.3"/>
<polygon fill="black" stroke="black" points="684.84,-190.14 681.26,-180.18 677.84,-190.21 684.84,-190.14"/>
</g>
<!-- DiemConfig -->
<g id="node14" class="node">
<title>DiemConfig</title>
<ellipse fill="none" stroke="black" cx="576.33" cy="-306" rx="54.69" ry="18"/>
<text text-anchor="middle" x="576.33" y="-302.3" font-family="Times,serif" font-size="14.00">DiemConfig</text>
</g>
<!-- RegisteredCurrencies&#45;&gt;DiemConfig -->
<g id="edge37" class="edge">
<title>RegisteredCurrencies&#45;&gt;DiemConfig</title>
<path fill="none" stroke="black" d="M484.93,-360.76C501.88,-350.79 523.75,-337.93 541.84,-327.29"/>
<polygon fill="black" stroke="black" points="544.06,-330.04 550.91,-321.95 540.52,-324.01 544.06,-330.04"/>
</g>
<!-- DiemConfig&#45;&gt;Errors -->
<g id="edge39" class="edge">
<title>DiemConfig&#45;&gt;Errors</title>
<path fill="none" stroke="black" d="M567.18,-288.08C556.78,-269.51 538.7,-239.27 519.33,-216 459.37,-143.99 442.15,-125.65 365.33,-72 343.26,-56.59 316.08,-43 294.9,-33.44"/>
<polygon fill="black" stroke="black" points="296.2,-30.18 285.64,-29.34 293.37,-36.58 296.2,-30.18"/>
</g>
<!-- DiemConfig&#45;&gt;CoreAddresses -->
<g id="edge40" class="edge">
<title>DiemConfig&#45;&gt;CoreAddresses</title>
<path fill="none" stroke="black" d="M577.93,-287.85C581.39,-250.83 589.58,-163.18 593.77,-118.39"/>
<polygon fill="black" stroke="black" points="597.27,-118.51 594.72,-108.23 590.3,-117.86 597.27,-118.51"/>
</g>
<!-- DiemConfig&#45;&gt;DiemTimestamp -->
<g id="edge41" class="edge">
<title>DiemConfig&#45;&gt;DiemTimestamp</title>
<path fill="none" stroke="black" d="M536.68,-293.49C508.44,-284.39 470.19,-270.21 439.33,-252 417.86,-239.33 415.66,-231.73 396.33,-216 383.9,-205.88 370.02,-194.86 358.14,-185.51"/>
<polygon fill="black" stroke="black" points="360.3,-182.75 350.27,-179.32 355.97,-188.25 360.3,-182.75"/>
</g>
<!-- DiemConfig&#45;&gt;Signer -->
<g id="edge38" class="edge">
<title>DiemConfig&#45;&gt;Signer</title>
<path fill="none" stroke="black" d="M583.24,-287.85C587.38,-277.49 592.72,-264.01 597.33,-252 615.65,-204.2 610.98,-187.89 637.33,-144 648.35,-125.65 661.72,-128.01 669.33,-108 677.39,-86.79 668.47,-62.05 658.78,-44.05"/>
<polygon fill="black" stroke="black" points="661.76,-42.21 653.73,-35.3 655.7,-45.71 661.76,-42.21"/>
</g>
<!-- DiemConfig&#45;&gt;Roles -->
<g id="edge42" class="edge">
<title>DiemConfig&#45;&gt;Roles</title>
<path fill="none" stroke="black" d="M554.32,-289.12C540.11,-278.87 521.54,-265.46 506.42,-254.55"/>
<polygon fill="black" stroke="black" points="508.15,-251.48 497.99,-248.47 504.05,-257.16 508.15,-251.48"/>
</g>
<!-- DiemConfig&#45;&gt;Event -->
<g id="edge43" class="edge">
<title>DiemConfig&#45;&gt;Event</title>
<path fill="none" stroke="black" d="M610.19,-291.83C642.03,-279.45 689.48,-261 721.6,-248.51"/>
<polygon fill="black" stroke="black" points="722.99,-251.72 731.04,-244.83 720.45,-245.2 722.99,-251.72"/>
</g>
</g>
</svg>
