<?xml version="1.0" encoding="UTF-8" standalone="no"?>
<!DOCTYPE svg PUBLIC "-//W3C//DTD SVG 1.1//EN"
 "http://www.w3.org/Graphics/SVG/1.1/DTD/svg11.dtd">
<!-- Generated by graphviz version 2.46.1 (20210213.1702)
 -->
<!-- Title: G Pages: 1 -->
<svg width="1108pt" height="332pt"
 viewBox="0.00 0.00 1107.79 332.00" xmlns="http://www.w3.org/2000/svg" xmlns:xlink="http://www.w3.org/1999/xlink">
<g id="graph0" class="graph" transform="scale(1 1) rotate(0) translate(4 328)">
<title>G</title>
<polygon fill="white" stroke="transparent" points="-4,4 -4,-328 1103.79,-328 1103.79,4 -4,4"/>
<!-- XUS -->
<g id="node1" class="node">
<title>XUS</title>
<ellipse fill="none" stroke="black" cx="840.44" cy="-18" rx="28.7" ry="18"/>
<text text-anchor="middle" x="840.44" y="-14.3" font-family="Times,serif" font-size="14.00">XUS</text>
</g>
<!-- TransactionFee -->
<g id="node2" class="node">
<title>TransactionFee</title>
<ellipse fill="none" stroke="black" cx="892.44" cy="-90" rx="64.99" ry="18"/>
<text text-anchor="middle" x="892.44" y="-86.3" font-family="Times,serif" font-size="14.00">TransactionFee</text>
</g>
<!-- TransactionFee&#45;&gt;XUS -->
<g id="edge1" class="edge">
<title>TransactionFee&#45;&gt;XUS</title>
<path fill="none" stroke="black" d="M879.86,-72.05C873.41,-63.38 865.46,-52.67 858.38,-43.15"/>
<polygon fill="black" stroke="black" points="860.98,-40.77 852.2,-34.83 855.36,-44.94 860.98,-40.77"/>
</g>
<!-- DesignatedDealer -->
<g id="node3" class="node">
<title>DesignatedDealer</title>
<ellipse fill="none" stroke="black" cx="684.44" cy="-90" rx="73.39" ry="18"/>
<text text-anchor="middle" x="684.44" y="-86.3" font-family="Times,serif" font-size="14.00">DesignatedDealer</text>
</g>
<!-- DesignatedDealer&#45;&gt;XUS -->
<g id="edge2" class="edge">
<title>DesignatedDealer&#45;&gt;XUS</title>
<path fill="none" stroke="black" d="M718.29,-73.81C745.11,-61.78 782.31,-45.09 808.59,-33.29"/>
<polygon fill="black" stroke="black" points="810.05,-36.48 817.74,-29.19 807.18,-30.09 810.05,-36.48"/>
</g>
<!-- DiemAccount -->
<g id="node4" class="node">
<title>DiemAccount</title>
<ellipse fill="none" stroke="black" cx="666.44" cy="-162" rx="60.39" ry="18"/>
<text text-anchor="middle" x="666.44" y="-158.3" font-family="Times,serif" font-size="14.00">DiemAccount</text>
</g>
<!-- DiemAccount&#45;&gt;XUS -->
<g id="edge3" class="edge">
<title>DiemAccount&#45;&gt;XUS</title>
<path fill="none" stroke="black" d="M700.4,-147.04C720.75,-137.73 746.47,-124.23 766.44,-108 789.44,-89.32 810.49,-62.64 824.21,-43.37"/>
<polygon fill="black" stroke="black" points="827.13,-45.3 829.98,-35.09 821.39,-41.29 827.13,-45.3"/>
</g>
<!-- DiemAccount&#45;&gt;TransactionFee -->
<g id="edge5" class="edge">
<title>DiemAccount&#45;&gt;TransactionFee</title>
<path fill="none" stroke="black" d="M706.85,-148.49C744.38,-136.86 800.45,-119.49 841.13,-106.89"/>
<polygon fill="black" stroke="black" points="842.34,-110.18 850.86,-103.88 840.27,-103.5 842.34,-110.18"/>
</g>
<!-- DiemAccount&#45;&gt;DesignatedDealer -->
<g id="edge8" class="edge">
<title>DiemAccount&#45;&gt;DesignatedDealer</title>
<path fill="none" stroke="black" d="M670.89,-143.7C672.9,-135.9 675.31,-126.51 677.54,-117.83"/>
<polygon fill="black" stroke="black" points="680.94,-118.66 680.05,-108.1 674.17,-116.92 680.94,-118.66"/>
</g>
<!-- Genesis -->
<g id="node5" class="node">
<title>Genesis</title>
<ellipse fill="none" stroke="black" cx="1061.44" cy="-234" rx="38.19" ry="18"/>
<text text-anchor="middle" x="1061.44" y="-230.3" font-family="Times,serif" font-size="14.00">Genesis</text>
</g>
<!-- Genesis&#45;&gt;XUS -->
<g id="edge4" class="edge">
<title>Genesis&#45;&gt;XUS</title>
<path fill="none" stroke="black" d="M1055.59,-216.03C1043.66,-183.79 1013.62,-113.21 966.44,-72 940.69,-49.51 904.01,-35.54 876.86,-27.63"/>
<polygon fill="black" stroke="black" points="877.54,-24.19 866.97,-24.89 875.67,-30.94 877.54,-24.19"/>
</g>
<!-- Genesis&#45;&gt;TransactionFee -->
<g id="edge6" class="edge">
<title>Genesis&#45;&gt;TransactionFee</title>
<path fill="none" stroke="black" d="M1043.36,-217.8C1013.72,-192.9 954.62,-143.25 919.83,-114.01"/>
<polygon fill="black" stroke="black" points="921.86,-111.15 911.95,-107.39 917.36,-116.51 921.86,-111.15"/>
</g>
<!-- Genesis&#45;&gt;DiemAccount -->
<g id="edge13" class="edge">
<title>Genesis&#45;&gt;DiemAccount</title>
<path fill="none" stroke="black" d="M1032.78,-221.86C1026.48,-219.69 1019.79,-217.59 1013.44,-216 917.53,-191.92 803.79,-177.07 733.36,-169.43"/>
<polygon fill="black" stroke="black" points="733.6,-165.93 723.29,-168.35 732.86,-172.89 733.6,-165.93"/>
</g>
<!-- TreasuryComplianceScripts -->
<g id="node6" class="node">
<title>TreasuryComplianceScripts</title>
<ellipse fill="none" stroke="black" cx="895.44" cy="-234" rx="109.38" ry="18"/>
<text text-anchor="middle" x="895.44" y="-230.3" font-family="Times,serif" font-size="14.00">TreasuryComplianceScripts</text>
</g>
<!-- TreasuryComplianceScripts&#45;&gt;TransactionFee -->
<g id="edge7" class="edge">
<title>TreasuryComplianceScripts&#45;&gt;TransactionFee</title>
<path fill="none" stroke="black" d="M895.08,-215.87C894.57,-191.67 893.63,-147.21 893.02,-118.39"/>
<polygon fill="black" stroke="black" points="896.52,-118.11 892.81,-108.19 889.52,-118.26 896.52,-118.11"/>
</g>
<!-- TreasuryComplianceScripts&#45;&gt;DiemAccount -->
<g id="edge15" class="edge">
<title>TreasuryComplianceScripts&#45;&gt;DiemAccount</title>
<path fill="none" stroke="black" d="M846.04,-217.9C807.9,-206.24 755.33,-190.17 716.92,-178.43"/>
<polygon fill="black" stroke="black" points="717.57,-174.97 706.98,-175.39 715.52,-181.66 717.57,-174.97"/>
</g>
<!-- SharedEd25519PublicKey -->
<g id="node7" class="node">
<title>SharedEd25519PublicKey</title>
<ellipse fill="none" stroke="black" cx="664.44" cy="-234" rx="103.98" ry="18"/>
<text text-anchor="middle" x="664.44" y="-230.3" font-family="Times,serif" font-size="14.00">SharedEd25519PublicKey</text>
</g>
<!-- SharedEd25519PublicKey&#45;&gt;DiemAccount -->
<g id="edge9" class="edge">
<title>SharedEd25519PublicKey&#45;&gt;DiemAccount</title>
<path fill="none" stroke="black" d="M664.94,-215.7C665.16,-207.98 665.42,-198.71 665.67,-190.11"/>
<polygon fill="black" stroke="black" points="669.17,-190.2 665.95,-180.1 662.17,-190 669.17,-190.2"/>
</g>
<!-- RecoveryAddress -->
<g id="node8" class="node">
<title>RecoveryAddress</title>
<ellipse fill="none" stroke="black" cx="73.44" cy="-234" rx="73.39" ry="18"/>
<text text-anchor="middle" x="73.44" y="-230.3" font-family="Times,serif" font-size="14.00">RecoveryAddress</text>
</g>
<!-- RecoveryAddress&#45;&gt;DiemAccount -->
<g id="edge10" class="edge">
<title>RecoveryAddress&#45;&gt;DiemAccount</title>
<path fill="none" stroke="black" d="M127.61,-221.65C138.46,-219.59 149.79,-217.6 160.44,-216 316.52,-192.62 501.22,-176.06 598.56,-168.19"/>
<polygon fill="black" stroke="black" points="598.87,-171.67 608.56,-167.38 598.31,-164.7 598.87,-171.67"/>
</g>
<!-- AccountAdministrationScripts -->
<g id="node9" class="node">
<title>AccountAdministrationScripts</title>
<ellipse fill="none" stroke="black" cx="174.44" cy="-306" rx="118.08" ry="18"/>
<text text-anchor="middle" x="174.44" y="-302.3" font-family="Times,serif" font-size="14.00">AccountAdministrationScripts</text>
</g>
<!-- AccountAdministrationScripts&#45;&gt;DiemAccount -->
<g id="edge11" class="edge">
<title>AccountAdministrationScripts&#45;&gt;DiemAccount</title>
<path fill="none" stroke="black" d="M172.7,-287.72C171.69,-267.36 173.54,-234.03 193.44,-216 222.74,-189.46 472.56,-172.98 596.83,-166.35"/>
<polygon fill="black" stroke="black" points="597.2,-169.84 607,-165.82 596.83,-162.85 597.2,-169.84"/>
</g>
<!-- AccountAdministrationScripts&#45;&gt;SharedEd25519PublicKey -->
<g id="edge16" class="edge">
<title>AccountAdministrationScripts&#45;&gt;SharedEd25519PublicKey</title>
<path fill="none" stroke="black" d="M259.07,-293.34C335.5,-282.75 451.04,-266.61 551.44,-252 560.38,-250.7 569.72,-249.32 579.02,-247.94"/>
<polygon fill="black" stroke="black" points="579.71,-251.38 589.09,-246.44 578.68,-244.45 579.71,-251.38"/>
</g>
<!-- AccountAdministrationScripts&#45;&gt;RecoveryAddress -->
<g id="edge17" class="edge">
<title>AccountAdministrationScripts&#45;&gt;RecoveryAddress</title>
<path fill="none" stroke="black" d="M150.25,-288.23C136.69,-278.83 119.62,-267 105.01,-256.88"/>
<polygon fill="black" stroke="black" points="106.96,-253.97 96.74,-251.15 102.97,-259.72 106.96,-253.97"/>
</g>
<!-- AccountCreationScripts -->
<g id="node10" class="node">
<title>AccountCreationScripts</title>
<ellipse fill="none" stroke="black" cx="297.44" cy="-234" rx="94.78" ry="18"/>
<text text-anchor="middle" x="297.44" y="-230.3" font-family="Times,serif" font-size="14.00">AccountCreationScripts</text>
</g>
<!-- AccountCreationScripts&#45;&gt;DiemAccount -->
<g id="edge12" class="edge">
<title>AccountCreationScripts&#45;&gt;DiemAccount</title>
<path fill="none" stroke="black" d="M362.14,-220.73C431.25,-207.62 539.86,-187.01 606.91,-174.29"/>
<polygon fill="black" stroke="black" points="607.73,-177.7 616.9,-172.4 606.42,-170.82 607.73,-177.7"/>
</g>
<!-- PaymentScripts -->
<g id="node11" class="node">
<title>PaymentScripts</title>
<ellipse fill="none" stroke="black" cx="476.44" cy="-234" rx="66.09" ry="18"/>
<text text-anchor="middle" x="476.44" y="-230.3" font-family="Times,serif" font-size="14.00">PaymentScripts</text>
</g>
<!-- PaymentScripts&#45;&gt;DiemAccount -->
<g id="edge14" class="edge">
<title>PaymentScripts&#45;&gt;DiemAccount</title>
<path fill="none" stroke="black" d="M514.44,-219C544.86,-207.79 587.66,-192.02 620.1,-180.07"/>
<polygon fill="black" stroke="black" points="621.63,-183.24 629.81,-176.5 619.21,-176.67 621.63,-183.24"/>
</g>
</g>
</svg>
