<?xml version="1.0" encoding="UTF-8" standalone="no"?>
<!DOCTYPE svg PUBLIC "-//W3C//DTD SVG 1.1//EN"
 "http://www.w3.org/Graphics/SVG/1.1/DTD/svg11.dtd">
<!-- Generated by graphviz version 2.46.1 (20210213.1702)
 -->
<!-- Title: G Pages: 1 -->
<svg width="905pt" height="548pt"
 viewBox="0.00 0.00 904.84 548.00" xmlns="http://www.w3.org/2000/svg" xmlns:xlink="http://www.w3.org/1999/xlink">
<g id="graph0" class="graph" transform="scale(1 1) rotate(0) translate(4 544)">
<title>G</title>
<polygon fill="white" stroke="transparent" points="-4,4 -4,-544 900.84,-544 900.84,4 -4,4"/>
<!-- XUS -->
<g id="node1" class="node">
<title>XUS</title>
<ellipse fill="none" stroke="black" cx="734" cy="-522" rx="28.7" ry="18"/>
<text text-anchor="middle" x="734" y="-518.3" font-family="Times,serif" font-size="14.00">XUS</text>
</g>
<!-- DiemTimestamp -->
<g id="node2" class="node">
<title>DiemTimestamp</title>
<ellipse fill="none" stroke="black" cx="599" cy="-162" rx="71.49" ry="18"/>
<text text-anchor="middle" x="599" y="-158.3" font-family="Times,serif" font-size="14.00">DiemTimestamp</text>
</g>
<!-- XUS&#45;&gt;DiemTimestamp -->
<g id="edge1" class="edge">
<title>XUS&#45;&gt;DiemTimestamp</title>
<path fill="none" stroke="black" d="M738.44,-503.97C747.89,-464.16 766.63,-362.69 734,-288 714.01,-242.25 668.1,-205.77 635.38,-184.29"/>
<polygon fill="black" stroke="black" points="636.84,-181.07 626.53,-178.64 633.07,-186.97 636.84,-181.07"/>
</g>
<!-- FixedPoint32 -->
<g id="node3" class="node">
<title>FixedPoint32</title>
<ellipse fill="none" stroke="black" cx="839" cy="-378" rx="57.69" ry="18"/>
<text text-anchor="middle" x="839" y="-374.3" font-family="Times,serif" font-size="14.00">FixedPoint32</text>
</g>
<!-- XUS&#45;&gt;FixedPoint32 -->
<g id="edge2" class="edge">
<title>XUS&#45;&gt;FixedPoint32</title>
<path fill="none" stroke="black" d="M745.64,-505.26C763.81,-480.68 799.09,-432.98 820.69,-403.76"/>
<polygon fill="black" stroke="black" points="823.53,-405.81 826.66,-395.69 817.9,-401.65 823.53,-405.81"/>
</g>
<!-- Diem -->
<g id="node4" class="node">
<title>Diem</title>
<ellipse fill="none" stroke="black" cx="436" cy="-450" rx="30.59" ry="18"/>
<text text-anchor="middle" x="436" y="-446.3" font-family="Times,serif" font-size="14.00">Diem</text>
</g>
<!-- XUS&#45;&gt;Diem -->
<g id="edge3" class="edge">
<title>XUS&#45;&gt;Diem</title>
<path fill="none" stroke="black" d="M707.55,-514.79C654.64,-502.36 535.54,-474.38 474.17,-459.96"/>
<polygon fill="black" stroke="black" points="474.65,-456.48 464.12,-457.6 473.05,-463.3 474.65,-456.48"/>
</g>
<!-- AccountLimits -->
<g id="node5" class="node">
<title>AccountLimits</title>
<ellipse fill="none" stroke="black" cx="661" cy="-306" rx="63.89" ry="18"/>
<text text-anchor="middle" x="661" y="-302.3" font-family="Times,serif" font-size="14.00">AccountLimits</text>
</g>
<!-- XUS&#45;&gt;AccountLimits -->
<g id="edge4" class="edge">
<title>XUS&#45;&gt;AccountLimits</title>
<path fill="none" stroke="black" d="M728.27,-504.21C715.64,-467.19 685.32,-378.3 670.08,-333.6"/>
<polygon fill="black" stroke="black" points="673.34,-332.34 666.8,-324.01 666.72,-334.6 673.34,-332.34"/>
</g>
<!-- Errors -->
<g id="node6" class="node">
<title>Errors</title>
<ellipse fill="none" stroke="black" cx="646" cy="-18" rx="32.49" ry="18"/>
<text text-anchor="middle" x="646" y="-14.3" font-family="Times,serif" font-size="14.00">Errors</text>
</g>
<!-- DiemTimestamp&#45;&gt;Errors -->
<g id="edge5" class="edge">
<title>DiemTimestamp&#45;&gt;Errors</title>
<path fill="none" stroke="black" d="M607.1,-144.07C611.83,-133.78 617.7,-120.31 622,-108 629.2,-87.42 635.53,-63.53 639.88,-45.69"/>
<polygon fill="black" stroke="black" points="643.29,-46.49 642.21,-35.95 636.48,-44.87 643.29,-46.49"/>
</g>
<!-- CoreAddresses -->
<g id="node7" class="node">
<title>CoreAddresses</title>
<ellipse fill="none" stroke="black" cx="440" cy="-90" rx="63.89" ry="18"/>
<text text-anchor="middle" x="440" y="-86.3" font-family="Times,serif" font-size="14.00">CoreAddresses</text>
</g>
<!-- DiemTimestamp&#45;&gt;CoreAddresses -->
<g id="edge6" class="edge">
<title>DiemTimestamp&#45;&gt;CoreAddresses</title>
<path fill="none" stroke="black" d="M564.89,-145.98C540.67,-135.32 508,-120.94 482.15,-109.56"/>
<polygon fill="black" stroke="black" points="483.53,-106.34 472.96,-105.51 480.71,-112.75 483.53,-106.34"/>
</g>
<!-- FixedPoint32&#45;&gt;Errors -->
<g id="edge7" class="edge">
<title>FixedPoint32&#45;&gt;Errors</title>
<path fill="none" stroke="black" d="M844.67,-359.73C852.85,-333.21 867,-280.73 867,-235 867,-235 867,-235 867,-161 867,-120.03 871.98,-100.96 843,-72 802.18,-31.21 733.52,-20.87 688.99,-18.75"/>
<polygon fill="black" stroke="black" points="688.89,-15.24 678.77,-18.38 688.64,-22.24 688.89,-15.24"/>
</g>
<!-- Diem&#45;&gt;DiemTimestamp -->
<g id="edge11" class="edge">
<title>Diem&#45;&gt;DiemTimestamp</title>
<path fill="none" stroke="black" d="M453.89,-435.41C466.06,-425.48 481.91,-411.16 493,-396 542.16,-328.78 576.15,-235.11 590.84,-189.74"/>
<polygon fill="black" stroke="black" points="594.22,-190.65 593.91,-180.06 587.55,-188.53 594.22,-190.65"/>
</g>
<!-- Diem&#45;&gt;FixedPoint32 -->
<g id="edge13" class="edge">
<title>Diem&#45;&gt;FixedPoint32</title>
<path fill="none" stroke="black" d="M464.98,-443.97C530.69,-432.55 692.08,-404.52 779.84,-389.28"/>
<polygon fill="black" stroke="black" points="780.66,-392.69 789.91,-387.53 779.46,-385.79 780.66,-392.69"/>
</g>
<!-- Diem&#45;&gt;Errors -->
<g id="edge9" class="edge">
<title>Diem&#45;&gt;Errors</title>
<path fill="none" stroke="black" d="M466.19,-446.86C558.21,-438.56 829,-400.09 829,-235 829,-235 829,-235 829,-161 829,-88.31 737.77,-47.48 684.14,-29.75"/>
<polygon fill="black" stroke="black" points="685.18,-26.41 674.59,-26.71 683.06,-33.08 685.18,-26.41"/>
</g>
<!-- Diem&#45;&gt;CoreAddresses -->
<g id="edge10" class="edge">
<title>Diem&#45;&gt;CoreAddresses</title>
<path fill="none" stroke="black" d="M406.34,-445.05C373.24,-439.31 319.67,-425.88 284,-396 249.22,-366.87 234,-352.37 234,-307 234,-307 234,-307 234,-233 234,-160.89 320.63,-122.59 381.53,-104.57"/>
<polygon fill="black" stroke="black" points="382.78,-107.85 391.44,-101.75 380.87,-101.12 382.78,-107.85"/>
</g>
<!-- Signer -->
<g id="node8" class="node">
<title>Signer</title>
<ellipse fill="none" stroke="black" cx="310" cy="-18" rx="33.6" ry="18"/>
<text text-anchor="middle" x="310" y="-14.3" font-family="Times,serif" font-size="14.00">Signer</text>
</g>
<!-- Diem&#45;&gt;Signer -->
<g id="edge8" class="edge">
<title>Diem&#45;&gt;Signer</title>
<path fill="none" stroke="black" d="M406.03,-445.83C307.53,-434.57 0,-392.58 0,-307 0,-307 0,-307 0,-161 0,-45.36 180.52,-23.52 266.05,-19.66"/>
<polygon fill="black" stroke="black" points="266.38,-23.15 276.23,-19.27 266.11,-16.16 266.38,-23.15"/>
</g>
<!-- Roles -->
<g id="node9" class="node">
<title>Roles</title>
<ellipse fill="none" stroke="black" cx="483" cy="-234" rx="30.59" ry="18"/>
<text text-anchor="middle" x="483" y="-230.3" font-family="Times,serif" font-size="14.00">Roles</text>
</g>
<!-- Diem&#45;&gt;Roles -->
<g id="edge12" class="edge">
<title>Diem&#45;&gt;Roles</title>
<path fill="none" stroke="black" d="M450.61,-433.66C459.08,-423.75 469.03,-410.09 474,-396 489.81,-351.17 488.6,-294.98 486,-262.22"/>
<polygon fill="black" stroke="black" points="489.47,-261.7 485.09,-252.06 482.5,-262.33 489.47,-261.7"/>
</g>
<!-- Vector -->
<g id="node10" class="node">
<title>Vector</title>
<ellipse fill="none" stroke="black" cx="62" cy="-162" rx="33.6" ry="18"/>
<text text-anchor="middle" x="62" y="-158.3" font-family="Times,serif" font-size="14.00">Vector</text>
</g>
<!-- Diem&#45;&gt;Vector -->
<g id="edge14" class="edge">
<title>Diem&#45;&gt;Vector</title>
<path fill="none" stroke="black" d="M405.12,-449.41C355.98,-448.61 258.81,-440.9 193,-396 119.28,-345.7 82.39,-239.47 68.6,-189.74"/>
<polygon fill="black" stroke="black" points="71.97,-188.78 66,-180.03 65.2,-190.59 71.97,-188.78"/>
</g>
<!-- Event -->
<g id="node11" class="node">
<title>Event</title>
<ellipse fill="none" stroke="black" cx="175" cy="-234" rx="31.4" ry="18"/>
<text text-anchor="middle" x="175" y="-230.3" font-family="Times,serif" font-size="14.00">Event</text>
</g>
<!-- Diem&#45;&gt;Event -->
<g id="edge15" class="edge">
<title>Diem&#45;&gt;Event</title>
<path fill="none" stroke="black" d="M406.42,-445.45C353.69,-438.53 246.49,-421.65 220,-396 183.44,-360.59 175.85,-298.15 174.7,-262.32"/>
<polygon fill="black" stroke="black" points="178.2,-262.05 174.52,-252.12 171.2,-262.18 178.2,-262.05"/>
</g>
<!-- RegisteredCurrencies -->
<g id="node12" class="node">
<title>RegisteredCurrencies</title>
<ellipse fill="none" stroke="black" cx="379" cy="-378" rx="86.38" ry="18"/>
<text text-anchor="middle" x="379" y="-374.3" font-family="Times,serif" font-size="14.00">RegisteredCurrencies</text>
</g>
<!-- Diem&#45;&gt;RegisteredCurrencies -->
<g id="edge16" class="edge">
<title>Diem&#45;&gt;RegisteredCurrencies</title>
<path fill="none" stroke="black" d="M423.35,-433.46C416.28,-424.78 407.3,-413.75 399.27,-403.89"/>
<polygon fill="black" stroke="black" points="401.84,-401.51 392.81,-395.96 396.41,-405.93 401.84,-401.51"/>
</g>
<!-- AccountLimits&#45;&gt;DiemTimestamp -->
<g id="edge19" class="edge">
<title>AccountLimits&#45;&gt;DiemTimestamp</title>
<path fill="none" stroke="black" d="M653.52,-287.87C642.86,-263.46 623.2,-218.43 610.63,-189.64"/>
<polygon fill="black" stroke="black" points="613.71,-187.95 606.51,-180.19 607.3,-190.75 613.71,-187.95"/>
</g>
<!-- AccountLimits&#45;&gt;Errors -->
<g id="edge18" class="edge">
<title>AccountLimits&#45;&gt;Errors</title>
<path fill="none" stroke="black" d="M672.69,-288.28C691.54,-259.25 725.26,-197.5 712,-144 702.68,-106.4 679.77,-67.65 663.56,-43.46"/>
<polygon fill="black" stroke="black" points="666.26,-41.21 657.72,-34.93 660.49,-45.16 666.26,-41.21"/>
</g>
<!-- AccountLimits&#45;&gt;Signer -->
<g id="edge17" class="edge">
<title>AccountLimits&#45;&gt;Signer</title>
<path fill="none" stroke="black" d="M665.63,-287.81C675.06,-251.28 694.32,-167.34 679,-144 607.79,-35.49 436.02,-19.42 354.44,-18.18"/>
<polygon fill="black" stroke="black" points="354.05,-14.67 344.02,-18.09 353.99,-21.67 354.05,-14.67"/>
</g>
<!-- AccountLimits&#45;&gt;Roles -->
<g id="edge20" class="edge">
<title>AccountLimits&#45;&gt;Roles</title>
<path fill="none" stroke="black" d="M625.41,-291C593.91,-278.62 548.27,-260.67 517.2,-248.45"/>
<polygon fill="black" stroke="black" points="518.25,-245.1 507.66,-244.7 515.69,-251.62 518.25,-245.1"/>
</g>
<!-- CoreAddresses&#45;&gt;Errors -->
<g id="edge22" class="edge">
<title>CoreAddresses&#45;&gt;Errors</title>
<path fill="none" stroke="black" d="M479.23,-75.67C516.69,-62.94 572.68,-43.91 609.28,-31.48"/>
<polygon fill="black" stroke="black" points="610.71,-34.69 619.06,-28.16 608.46,-28.06 610.71,-34.69"/>
</g>
<!-- CoreAddresses&#45;&gt;Signer -->
<g id="edge21" class="edge">
<title>CoreAddresses&#45;&gt;Signer</title>
<path fill="none" stroke="black" d="M411.79,-73.81C391.24,-62.74 363.36,-47.73 341.98,-36.22"/>
<polygon fill="black" stroke="black" points="343.42,-33.02 332.96,-31.36 340.1,-39.18 343.42,-33.02"/>
</g>
<!-- Roles&#45;&gt;DiemTimestamp -->
<g id="edge26" class="edge">
<title>Roles&#45;&gt;DiemTimestamp</title>
<path fill="none" stroke="black" d="M503.74,-220.49C520.47,-210.39 544.36,-195.97 564.04,-184.1"/>
<polygon fill="black" stroke="black" points="565.99,-187.01 572.74,-178.85 562.37,-181.02 565.99,-187.01"/>
</g>
<!-- Roles&#45;&gt;Errors -->
<g id="edge24" class="edge">
<title>Roles&#45;&gt;Errors</title>
<path fill="none" stroke="black" d="M486.34,-215.77C490.85,-196.36 500.55,-164.84 519,-144 540.89,-119.27 559.48,-130.12 584,-108 604.31,-89.68 621.53,-63.5 632.63,-44.28"/>
<polygon fill="black" stroke="black" points="635.73,-45.9 637.57,-35.46 629.63,-42.47 635.73,-45.9"/>
</g>
<!-- Roles&#45;&gt;CoreAddresses -->
<g id="edge25" class="edge">
<title>Roles&#45;&gt;CoreAddresses</title>
<path fill="none" stroke="black" d="M477.9,-216.15C470.57,-191.94 456.97,-147.05 448.22,-118.13"/>
<polygon fill="black" stroke="black" points="451.48,-116.82 445.23,-108.27 444.78,-118.85 451.48,-116.82"/>
</g>
<!-- Roles&#45;&gt;Signer -->
<g id="edge23" class="edge">
<title>Roles&#45;&gt;Signer</title>
<path fill="none" stroke="black" d="M467.79,-218.38C444.7,-195.81 399.99,-150.61 367,-108 351.05,-87.4 335.25,-62.27 324.35,-43.97"/>
<polygon fill="black" stroke="black" points="327.36,-42.18 319.27,-35.34 321.33,-45.73 327.36,-42.18"/>
</g>
<!-- Event&#45;&gt;Errors -->
<g id="edge28" class="edge">
<title>Event&#45;&gt;Errors</title>
<path fill="none" stroke="black" d="M188.12,-217.63C216.88,-185.03 289.17,-108.9 367,-72 445.01,-35.01 546.83,-23.83 603.39,-20.45"/>
<polygon fill="black" stroke="black" points="603.62,-23.95 613.41,-19.91 603.24,-16.96 603.62,-23.95"/>
</g>
<!-- Event&#45;&gt;Signer -->
<g id="edge27" class="edge">
<title>Event&#45;&gt;Signer</title>
<path fill="none" stroke="black" d="M161.88,-217.42C148.29,-199.29 130.65,-168.67 143,-144 170.32,-89.44 234.02,-52.55 274.38,-33.7"/>
<polygon fill="black" stroke="black" points="275.94,-36.84 283.6,-29.52 273.05,-30.46 275.94,-36.84"/>
</g>
<!-- Event&#45;&gt;Vector -->
<g id="edge29" class="edge">
<title>Event&#45;&gt;Vector</title>
<path fill="none" stroke="black" d="M154.54,-220.32C137.11,-209.53 111.83,-193.87 92.09,-181.64"/>
<polygon fill="black" stroke="black" points="93.81,-178.59 83.46,-176.3 90.12,-184.54 93.81,-178.59"/>
</g>
<!-- BCS -->
<g id="node13" class="node">
<title>BCS</title>
<ellipse fill="none" stroke="black" cx="179" cy="-162" rx="27.1" ry="18"/>
<text text-anchor="middle" x="179" y="-158.3" font-family="Times,serif" font-size="14.00">BCS</text>
</g>
<!-- Event&#45;&gt;BCS -->
<g id="edge30" class="edge">
<title>Event&#45;&gt;BCS</title>
<path fill="none" stroke="black" d="M175.99,-215.7C176.43,-207.98 176.96,-198.71 177.45,-190.11"/>
<polygon fill="black" stroke="black" points="180.95,-190.29 178.02,-180.1 173.96,-189.89 180.95,-190.29"/>
</g>
<!-- RegisteredCurrencies&#45;&gt;DiemTimestamp -->
<g id="edge32" class="edge">
<title>RegisteredCurrencies&#45;&gt;DiemTimestamp</title>
<path fill="none" stroke="black" d="M408.52,-361.06C425.08,-351.42 445.63,-338.27 462,-324 510.5,-281.71 556.83,-221.83 581.21,-188.29"/>
<polygon fill="black" stroke="black" points="584.21,-190.12 587.21,-179.96 578.52,-186.03 584.21,-190.12"/>
</g>
<!-- RegisteredCurrencies&#45;&gt;Errors -->
<g id="edge31" class="edge">
<title>RegisteredCurrencies&#45;&gt;Errors</title>
<path fill="none" stroke="black" d="M461.64,-372.52C552.15,-366.26 690.26,-352.33 734,-324 773.43,-298.47 791,-281.97 791,-235 791,-235 791,-235 791,-161 791,-99.25 723.05,-55.5 680.18,-34.04"/>
<polygon fill="black" stroke="black" points="681.45,-30.77 670.93,-29.56 678.4,-37.07 681.45,-30.77"/>
</g>
<!-- RegisteredCurrencies&#45;&gt;Roles -->
<g id="edge33" class="edge">
<title>RegisteredCurrencies&#45;&gt;Roles</title>
<path fill="none" stroke="black" d="M400.16,-360.33C411.67,-350.57 425.64,-337.51 436,-324 450.95,-304.48 463.67,-279.53 472.09,-261.02"/>
<polygon fill="black" stroke="black" points="475.35,-262.29 476.2,-251.73 468.95,-259.46 475.35,-262.29"/>
</g>
<!-- RegisteredCurrencies&#45;&gt;Vector -->
<g id="edge34" class="edge">
<title>RegisteredCurrencies&#45;&gt;Vector</title>
<path fill="none" stroke="black" d="M338.01,-362.06C286.97,-342.15 198.73,-303.39 135,-252 112.07,-233.51 91.34,-206.8 77.88,-187.47"/>
<polygon fill="black" stroke="black" points="80.75,-185.46 72.23,-179.16 74.96,-189.4 80.75,-185.46"/>
</g>
<!-- DiemConfig -->
<g id="node14" class="node">
<title>DiemConfig</title>
<ellipse fill="none" stroke="black" cx="372" cy="-306" rx="54.69" ry="18"/>
<text text-anchor="middle" x="372" y="-302.3" font-family="Times,serif" font-size="14.00">DiemConfig</text>
</g>
<!-- RegisteredCurrencies&#45;&gt;DiemConfig -->
<g id="edge35" class="edge">
<title>RegisteredCurrencies&#45;&gt;DiemConfig</title>
<path fill="none" stroke="black" d="M377.27,-359.7C376.5,-351.98 375.57,-342.71 374.71,-334.11"/>
<polygon fill="black" stroke="black" points="378.19,-333.71 373.71,-324.1 371.22,-334.4 378.19,-333.71"/>
</g>
<!-- DiemConfig&#45;&gt;DiemTimestamp -->
<g id="edge39" class="edge">
<title>DiemConfig&#45;&gt;DiemTimestamp</title>
<path fill="none" stroke="black" d="M381.35,-288.16C393.22,-268.23 415.51,-235.32 443,-216 470.02,-197.02 504.4,-184.38 534,-176.22"/>
<polygon fill="black" stroke="black" points="535.06,-179.56 543.84,-173.62 533.28,-172.79 535.06,-179.56"/>
</g>
<!-- DiemConfig&#45;&gt;Errors -->
<g id="edge37" class="edge">
<title>DiemConfig&#45;&gt;Errors</title>
<path fill="none" stroke="black" d="M375.24,-287.98C379.47,-269.06 388.24,-238.24 404,-216 434.84,-172.47 561.48,-79.31 618.25,-38.65"/>
<polygon fill="black" stroke="black" points="620.63,-41.25 626.73,-32.59 616.56,-35.56 620.63,-41.25"/>
</g>
<!-- DiemConfig&#45;&gt;CoreAddresses -->
<g id="edge38" class="edge">
<title>DiemConfig&#45;&gt;CoreAddresses</title>
<path fill="none" stroke="black" d="M369.6,-287.98C367.6,-269.84 365.94,-240.45 372,-216 381.26,-178.62 404.45,-140.43 421.17,-116.26"/>
<polygon fill="black" stroke="black" points="424.09,-118.2 427.01,-108.02 418.37,-114.16 424.09,-118.2"/>
</g>
<!-- DiemConfig&#45;&gt;Signer -->
<g id="edge36" class="edge">
<title>DiemConfig&#45;&gt;Signer</title>
<path fill="none" stroke="black" d="M368.31,-287.97C357.93,-240.08 328.42,-103.98 315.82,-45.85"/>
<polygon fill="black" stroke="black" points="319.21,-44.98 313.67,-35.94 312.37,-46.46 319.21,-44.98"/>
</g>
<!-- DiemConfig&#45;&gt;Roles -->
<g id="edge40" class="edge">
<title>DiemConfig&#45;&gt;Roles</title>
<path fill="none" stroke="black" d="M396.09,-289.81C413.03,-279.13 435.79,-264.77 453.77,-253.43"/>
<polygon fill="black" stroke="black" points="456.09,-256.11 462.68,-247.81 452.36,-250.19 456.09,-256.11"/>
</g>
<!-- DiemConfig&#45;&gt;Event -->
<g id="edge41" class="edge">
<title>DiemConfig&#45;&gt;Event</title>
<path fill="none" stroke="black" d="M336.32,-292.32C300.65,-279.65 246.1,-260.27 210.49,-247.61"/>
<polygon fill="black" stroke="black" points="211.58,-244.28 200.98,-244.23 209.23,-250.88 211.58,-244.28"/>
</g>
</g>
</svg>
