<?xml version="1.0" encoding="UTF-8" standalone="no"?>
<!DOCTYPE svg PUBLIC "-//W3C//DTD SVG 1.1//EN"
 "http://www.w3.org/Graphics/SVG/1.1/DTD/svg11.dtd">
<!-- Generated by graphviz version 2.46.1 (20210213.1702)
 -->
<!-- Title: G Pages: 1 -->
<svg width="1758pt" height="531pt"
 viewBox="0.00 0.00 1758.00 531.00" xmlns="http://www.w3.org/2000/svg" xmlns:xlink="http://www.w3.org/1999/xlink">
<g id="graph0" class="graph" transform="scale(1 1) rotate(0) translate(4 527)">
<title>G</title>
<polygon fill="white" stroke="transparent" points="-4,4 -4,-527 1754,-527 1754,4 -4,4"/>
<g id="clust1" class="cluster">
<title>cluster_SharedEd25519PublicKey</title>
<polygon fill="none" stroke="black" points="909,-329 909,-479 1131,-479 1131,-329 909,-329"/>
<text text-anchor="middle" x="1020" y="-463.8" font-family="Times,serif" font-size="14.00">SharedEd25519PublicKey</text>
</g>
<g id="clust2" class="cluster">
<title>cluster_Signer</title>
<polygon fill="none" stroke="black" points="1332,-163 1332,-321 1482,-321 1482,-163 1332,-163"/>
<text text-anchor="middle" x="1407" y="-305.8" font-family="Times,serif" font-size="14.00">Signer</text>
</g>
<g id="clust3" class="cluster">
<title>cluster_Errors</title>
<polygon fill="none" stroke="black" points="538,-80 538,-238 1137,-238 1137,-80 538,-80"/>
<text text-anchor="middle" x="837.5" y="-222.8" font-family="Times,serif" font-size="14.00">Errors</text>
</g>
<g id="clust4" class="cluster">
<title>cluster_DiemAccount</title>
<polygon fill="none" stroke="black" points="8,-163 8,-404 530,-404 530,-163 8,-163"/>
<text text-anchor="middle" x="269" y="-388.8" font-family="Times,serif" font-size="14.00">DiemAccount</text>
</g>
<g id="clust5" class="cluster">
<title>cluster_Option</title>
<polygon fill="none" stroke="black" points="1145,-163 1145,-321 1324,-321 1324,-163 1145,-163"/>
<text text-anchor="middle" x="1234.5" y="-305.8" font-family="Times,serif" font-size="14.00">Option</text>
</g>
<g id="clust6" class="cluster">
<title>cluster_Signature</title>
<polygon fill="none" stroke="black" points="1520,-246 1520,-321 1742,-321 1742,-246 1520,-246"/>
<text text-anchor="middle" x="1631" y="-305.8" font-family="Times,serif" font-size="14.00">Signature</text>
</g>
<g id="clust7" class="cluster">
<title>cluster_Authenticator</title>
<polygon fill="none" stroke="black" points="1490,-163 1490,-238 1730,-238 1730,-163 1490,-163"/>
<text text-anchor="middle" x="1610" y="-222.8" font-family="Times,serif" font-size="14.00">Authenticator</text>
</g>
<g id="clust8" class="cluster">
<title>cluster_Vector</title>
<polygon fill="none" stroke="black" points="1145,-8 1145,-155 1470,-155 1470,-8 1145,-8"/>
<text text-anchor="middle" x="1307.5" y="-139.8" font-family="Times,serif" font-size="14.00">Vector</text>
</g>
<g id="clust9" class="cluster">
<title>cluster_Hash</title>
<polygon fill="none" stroke="black" points="1558,-80 1558,-155 1662,-155 1662,-80 1558,-80"/>
<text text-anchor="middle" x="1610" y="-139.8" font-family="Times,serif" font-size="14.00">Hash</text>
</g>
<!-- publish_shared_ed25519_public_key -->
<g id="node1" class="node">
<title>publish_shared_ed25519_public_key</title>
<ellipse fill="none" stroke="black" cx="959" cy="-505" rx="141.88" ry="18"/>
<text text-anchor="middle" x="959" y="-501.3" font-family="Times,serif" font-size="14.00">publish_shared_ed25519_public_key</text>
</g>
<!-- SharedEd25519PublicKey::publish -->
<g id="node2" class="node">
<title>SharedEd25519PublicKey::publish</title>
<ellipse fill="none" stroke="black" cx="959" cy="-430" rx="36.29" ry="18"/>
<text text-anchor="middle" x="959" y="-426.3" font-family="Times,serif" font-size="14.00">publish</text>
</g>
<!-- publish_shared_ed25519_public_key&#45;&gt;SharedEd25519PublicKey::publish -->
<g id="edge1" class="edge">
<title>publish_shared_ed25519_public_key&#45;&gt;SharedEd25519PublicKey::publish</title>
<path fill="none" stroke="black" d="M959,-486.7C959,-478.25 959,-467.87 959,-458.37"/>
<polygon fill="black" stroke="black" points="962.5,-458.18 959,-448.18 955.5,-458.18 962.5,-458.18"/>
</g>
<!-- Signer::address_of -->
<g id="node3" class="node">
<title>Signer::address_of</title>
<ellipse fill="none" stroke="black" cx="1389" cy="-272" rx="48.99" ry="18"/>
<text text-anchor="middle" x="1389" y="-268.3" font-family="Times,serif" font-size="14.00">address_of</text>
</g>
<!-- SharedEd25519PublicKey::publish&#45;&gt;Signer::address_of -->
<g id="edge2" class="edge">
<title>SharedEd25519PublicKey::publish&#45;&gt;Signer::address_of</title>
<path fill="none" stroke="black" d="M995.01,-426.51C1030.39,-423.43 1085.67,-416.92 1132,-404 1223.12,-378.58 1246.55,-369.12 1328,-321 1340.36,-313.7 1352.99,-304.16 1363.54,-295.52"/>
<polygon fill="black" stroke="black" points="1366.09,-297.94 1371.5,-288.83 1361.59,-292.58 1366.09,-297.94"/>
</g>
<!-- Errors::already_published -->
<g id="node4" class="node">
<title>Errors::already_published</title>
<ellipse fill="none" stroke="black" cx="889" cy="-189" rx="75.29" ry="18"/>
<text text-anchor="middle" x="889" y="-185.3" font-family="Times,serif" font-size="14.00">already_published</text>
</g>
<!-- SharedEd25519PublicKey::publish&#45;&gt;Errors::already_published -->
<g id="edge3" class="edge">
<title>SharedEd25519PublicKey::publish&#45;&gt;Errors::already_published</title>
<path fill="none" stroke="black" d="M928.28,-420.07C920.47,-416.34 912.91,-411.15 908,-404 868.97,-347.17 876.4,-260.84 883.54,-217.24"/>
<polygon fill="black" stroke="black" points="887.04,-217.58 885.32,-207.12 880.14,-216.36 887.04,-217.58"/>
</g>
<!-- DiemAccount::extract_key_rotation_capability -->
<g id="node5" class="node">
<title>DiemAccount::extract_key_rotation_capability</title>
<ellipse fill="none" stroke="black" cx="400" cy="-355" rx="122.38" ry="18"/>
<text text-anchor="middle" x="400" y="-351.3" font-family="Times,serif" font-size="14.00">extract_key_rotation_capability</text>
</g>
<!-- SharedEd25519PublicKey::publish&#45;&gt;DiemAccount::extract_key_rotation_capability -->
<g id="edge4" class="edge">
<title>SharedEd25519PublicKey::publish&#45;&gt;DiemAccount::extract_key_rotation_capability</title>
<path fill="none" stroke="black" d="M924.03,-424.43C840.2,-413.49 625.29,-385.42 498.25,-368.83"/>
<polygon fill="black" stroke="black" points="498.49,-365.33 488.12,-367.51 497.58,-372.27 498.49,-365.33"/>
</g>
<!-- SharedEd25519PublicKey::exists_at -->
<g id="node6" class="node">
<title>SharedEd25519PublicKey::exists_at</title>
<ellipse fill="none" stroke="black" cx="959" cy="-355" rx="41.69" ry="18"/>
<text text-anchor="middle" x="959" y="-351.3" font-family="Times,serif" font-size="14.00">exists_at</text>
</g>
<!-- SharedEd25519PublicKey::publish&#45;&gt;SharedEd25519PublicKey::exists_at -->
<g id="edge5" class="edge">
<title>SharedEd25519PublicKey::publish&#45;&gt;SharedEd25519PublicKey::exists_at</title>
<path fill="none" stroke="black" d="M959,-411.7C959,-403.25 959,-392.87 959,-383.37"/>
<polygon fill="black" stroke="black" points="962.5,-383.18 959,-373.18 955.5,-383.18 962.5,-383.18"/>
</g>
<!-- SharedEd25519PublicKey::rotate_key_ -->
<g id="node7" class="node">
<title>SharedEd25519PublicKey::rotate_key_</title>
<ellipse fill="none" stroke="black" cx="1071" cy="-355" rx="51.99" ry="18"/>
<text text-anchor="middle" x="1071" y="-351.3" font-family="Times,serif" font-size="14.00">rotate_key_</text>
</g>
<!-- SharedEd25519PublicKey::publish&#45;&gt;SharedEd25519PublicKey::rotate_key_ -->
<g id="edge6" class="edge">
<title>SharedEd25519PublicKey::publish&#45;&gt;SharedEd25519PublicKey::rotate_key_</title>
<path fill="none" stroke="black" d="M985.26,-417.44C993.38,-413.51 1002.24,-408.88 1010,-404 1021.97,-396.47 1034.38,-387.05 1044.85,-378.55"/>
<polygon fill="black" stroke="black" points="1047.32,-381.06 1052.79,-371.99 1042.86,-375.66 1047.32,-381.06"/>
</g>
<!-- Signer::borrow_address -->
<g id="node8" class="node">
<title>Signer::borrow_address</title>
<ellipse fill="none" stroke="black" cx="1407" cy="-189" rx="66.89" ry="18"/>
<text text-anchor="middle" x="1407" y="-185.3" font-family="Times,serif" font-size="14.00">borrow_address</text>
</g>
<!-- Signer::address_of&#45;&gt;Signer::borrow_address -->
<g id="edge7" class="edge">
<title>Signer::address_of&#45;&gt;Signer::borrow_address</title>
<path fill="none" stroke="black" d="M1392.82,-253.82C1395.18,-243.19 1398.27,-229.31 1400.95,-217.2"/>
<polygon fill="black" stroke="black" points="1404.44,-217.67 1403.19,-207.15 1397.6,-216.16 1404.44,-217.67"/>
</g>
<!-- Errors::make -->
<g id="node9" class="node">
<title>Errors::make</title>
<ellipse fill="none" stroke="black" cx="814" cy="-106" rx="30.59" ry="18"/>
<text text-anchor="middle" x="814" y="-102.3" font-family="Times,serif" font-size="14.00">make</text>
</g>
<!-- Errors::already_published&#45;&gt;Errors::make -->
<g id="edge8" class="edge">
<title>Errors::already_published&#45;&gt;Errors::make</title>
<path fill="none" stroke="black" d="M873.46,-171.22C862.27,-159.13 847.05,-142.69 834.81,-129.48"/>
<polygon fill="black" stroke="black" points="837.36,-127.08 828,-122.12 832.23,-131.84 837.36,-127.08"/>
</g>
<!-- DiemAccount::extract_key_rotation_capability&#45;&gt;Signer::address_of -->
<g id="edge9" class="edge">
<title>DiemAccount::extract_key_rotation_capability&#45;&gt;Signer::address_of</title>
<path fill="none" stroke="black" d="M511.29,-347.51C613.58,-341.78 769.46,-333.64 905,-329 928.49,-328.2 1305.86,-328.9 1328,-321 1342.36,-315.87 1355.95,-305.9 1366.63,-296.37"/>
<polygon fill="black" stroke="black" points="1369.32,-298.65 1374.21,-289.25 1364.52,-293.55 1369.32,-298.65"/>
</g>
<!-- Errors::invalid_state -->
<g id="node10" class="node">
<title>Errors::invalid_state</title>
<ellipse fill="none" stroke="black" cx="740" cy="-189" rx="55.79" ry="18"/>
<text text-anchor="middle" x="740" y="-185.3" font-family="Times,serif" font-size="14.00">invalid_state</text>
</g>
<!-- DiemAccount::extract_key_rotation_capability&#45;&gt;Errors::invalid_state -->
<g id="edge10" class="edge">
<title>DiemAccount::extract_key_rotation_capability&#45;&gt;Errors::invalid_state</title>
<path fill="none" stroke="black" d="M496.2,-343.79C521.6,-338.9 548.46,-331.68 572,-321 630.37,-294.52 686.71,-243.85 717.01,-213.88"/>
<polygon fill="black" stroke="black" points="719.55,-216.29 724.14,-206.74 714.6,-211.35 719.55,-216.29"/>
</g>
<!-- Errors::not_published -->
<g id="node11" class="node">
<title>Errors::not_published</title>
<ellipse fill="none" stroke="black" cx="606" cy="-189" rx="60.39" ry="18"/>
<text text-anchor="middle" x="606" y="-185.3" font-family="Times,serif" font-size="14.00">not_published</text>
</g>
<!-- DiemAccount::extract_key_rotation_capability&#45;&gt;Errors::not_published -->
<g id="edge11" class="edge">
<title>DiemAccount::extract_key_rotation_capability&#45;&gt;Errors::not_published</title>
<path fill="none" stroke="black" d="M487.62,-342.34C503.09,-337.48 518.29,-330.64 531,-321 565.93,-294.51 587.23,-246.71 597.81,-216.75"/>
<polygon fill="black" stroke="black" points="601.23,-217.56 601.1,-206.97 594.59,-215.33 601.23,-217.56"/>
</g>
<!-- Option::extract -->
<g id="node12" class="node">
<title>Option::extract</title>
<ellipse fill="none" stroke="black" cx="1187" cy="-272" rx="34.39" ry="18"/>
<text text-anchor="middle" x="1187" y="-268.3" font-family="Times,serif" font-size="14.00">extract</text>
</g>
<!-- DiemAccount::extract_key_rotation_capability&#45;&gt;Option::extract -->
<g id="edge12" class="edge">
<title>DiemAccount::extract_key_rotation_capability&#45;&gt;Option::extract</title>
<path fill="none" stroke="black" d="M496.9,-344.03C668.76,-326.34 1020.44,-290.14 1143.4,-277.49"/>
<polygon fill="black" stroke="black" points="1143.96,-280.95 1153.55,-276.44 1143.25,-273.98 1143.96,-280.95"/>
</g>
<!-- DiemAccount::exists_at -->
<g id="node13" class="node">
<title>DiemAccount::exists_at</title>
<ellipse fill="none" stroke="black" cx="420" cy="-189" rx="41.69" ry="18"/>
<text text-anchor="middle" x="420" y="-185.3" font-family="Times,serif" font-size="14.00">exists_at</text>
</g>
<!-- DiemAccount::extract_key_rotation_capability&#45;&gt;DiemAccount::exists_at -->
<g id="edge13" class="edge">
<title>DiemAccount::extract_key_rotation_capability&#45;&gt;DiemAccount::exists_at</title>
<path fill="none" stroke="black" d="M280.07,-351.34C177.59,-347.79 44.04,-339.61 27,-321 4.49,-296.41 5.16,-271.18 27,-246 70.58,-195.77 271.76,-189.45 368.18,-189.38"/>
<polygon fill="black" stroke="black" points="368.29,-192.88 378.29,-189.39 368.3,-185.88 368.29,-192.88"/>
</g>
<!-- DiemAccount::delegated_key_rotation_capability -->
<g id="node14" class="node">
<title>DiemAccount::delegated_key_rotation_capability</title>
<ellipse fill="none" stroke="black" cx="168" cy="-272" rx="131.88" ry="18"/>
<text text-anchor="middle" x="168" y="-268.3" font-family="Times,serif" font-size="14.00">delegated_key_rotation_capability</text>
</g>
<!-- DiemAccount::extract_key_rotation_capability&#45;&gt;DiemAccount::delegated_key_rotation_capability -->
<g id="edge14" class="edge">
<title>DiemAccount::extract_key_rotation_capability&#45;&gt;DiemAccount::delegated_key_rotation_capability</title>
<path fill="none" stroke="black" d="M354.72,-338.19C317.07,-325.05 263.36,-306.3 223.21,-292.27"/>
<polygon fill="black" stroke="black" points="224.16,-288.9 213.56,-288.91 221.85,-295.51 224.16,-288.9"/>
</g>
<!-- Errors::invalid_argument -->
<g id="node15" class="node">
<title>Errors::invalid_argument</title>
<ellipse fill="none" stroke="black" cx="1056" cy="-189" rx="73.39" ry="18"/>
<text text-anchor="middle" x="1056" y="-185.3" font-family="Times,serif" font-size="14.00">invalid_argument</text>
</g>
<!-- SharedEd25519PublicKey::rotate_key_&#45;&gt;Errors::invalid_argument -->
<g id="edge15" class="edge">
<title>SharedEd25519PublicKey::rotate_key_&#45;&gt;Errors::invalid_argument</title>
<path fill="none" stroke="black" d="M1069.42,-336.76C1066.82,-308.26 1061.59,-251.12 1058.48,-217.16"/>
<polygon fill="black" stroke="black" points="1061.95,-216.65 1057.56,-207.01 1054.98,-217.29 1061.95,-216.65"/>
</g>
<!-- Signature::ed25519_validate_pubkey -->
<g id="node16" class="node">
<title>Signature::ed25519_validate_pubkey</title>
<ellipse fill="none" stroke="black" cx="1631" cy="-272" rx="103.18" ry="18"/>
<text text-anchor="middle" x="1631" y="-268.3" font-family="Times,serif" font-size="14.00">ed25519_validate_pubkey</text>
</g>
<!-- SharedEd25519PublicKey::rotate_key_&#45;&gt;Signature::ed25519_validate_pubkey -->
<g id="edge16" class="edge">
<title>SharedEd25519PublicKey::rotate_key_&#45;&gt;Signature::ed25519_validate_pubkey</title>
<path fill="none" stroke="black" d="M1122.39,-352.2C1222.65,-348.35 1440.91,-338.25 1514,-321 1540.06,-314.85 1567.84,-303.66 1589.79,-293.64"/>
<polygon fill="black" stroke="black" points="1591.55,-296.68 1599.13,-289.28 1588.59,-290.34 1591.55,-296.68"/>
</g>
<!-- DiemAccount::rotate_authentication_key -->
<g id="node17" class="node">
<title>DiemAccount::rotate_authentication_key</title>
<ellipse fill="none" stroke="black" cx="420" cy="-272" rx="102.08" ry="18"/>
<text text-anchor="middle" x="420" y="-268.3" font-family="Times,serif" font-size="14.00">rotate_authentication_key</text>
</g>
<!-- SharedEd25519PublicKey::rotate_key_&#45;&gt;DiemAccount::rotate_authentication_key -->
<g id="edge17" class="edge">
<title>SharedEd25519PublicKey::rotate_key_&#45;&gt;DiemAccount::rotate_authentication_key</title>
<path fill="none" stroke="black" d="M1041.8,-339.99C1031.91,-335.8 1020.67,-331.63 1010,-329 846.92,-288.78 651.92,-277.09 532.02,-273.89"/>
<polygon fill="black" stroke="black" points="531.81,-270.38 521.73,-273.63 531.64,-277.38 531.81,-270.38"/>
</g>
<!-- Authenticator::ed25519_authentication_key -->
<g id="node18" class="node">
<title>Authenticator::ed25519_authentication_key</title>
<ellipse fill="none" stroke="black" cx="1610" cy="-189" rx="112.38" ry="18"/>
<text text-anchor="middle" x="1610" y="-185.3" font-family="Times,serif" font-size="14.00">ed25519_authentication_key</text>
</g>
<!-- SharedEd25519PublicKey::rotate_key_&#45;&gt;Authenticator::ed25519_authentication_key -->
<g id="edge18" class="edge">
<title>SharedEd25519PublicKey::rotate_key_&#45;&gt;Authenticator::ed25519_authentication_key</title>
<path fill="none" stroke="black" d="M1122.8,-352.9C1227.62,-350.25 1457.38,-342.08 1486,-321 1514.91,-299.71 1492.68,-273.3 1516,-246 1528.49,-231.38 1545.81,-219.56 1562.18,-210.62"/>
<polygon fill="black" stroke="black" points="1563.89,-213.67 1571.14,-205.95 1560.65,-207.47 1563.89,-213.67"/>
</g>
<!-- Errors::invalid_state&#45;&gt;Errors::make -->
<g id="edge19" class="edge">
<title>Errors::invalid_state&#45;&gt;Errors::make</title>
<path fill="none" stroke="black" d="M754.98,-171.61C765.99,-159.55 781.1,-143.01 793.27,-129.69"/>
<polygon fill="black" stroke="black" points="795.89,-132.01 800.05,-122.27 790.72,-127.29 795.89,-132.01"/>
</g>
<!-- Errors::not_published&#45;&gt;Errors::make -->
<g id="edge20" class="edge">
<title>Errors::not_published&#45;&gt;Errors::make</title>
<path fill="none" stroke="black" d="M641.28,-174.26C679.91,-159.22 741.41,-135.27 779.66,-120.37"/>
<polygon fill="black" stroke="black" points="781.27,-123.5 789.32,-116.61 778.73,-116.98 781.27,-123.5"/>
</g>
<!-- Option::extract&#45;&gt;Errors::invalid_argument -->
<g id="edge21" class="edge">
<title>Option::extract&#45;&gt;Errors::invalid_argument</title>
<path fill="none" stroke="black" d="M1165.66,-257.81C1145.35,-245.24 1114.42,-226.12 1090.59,-211.39"/>
<polygon fill="black" stroke="black" points="1092.18,-208.26 1081.83,-205.97 1088.5,-214.21 1092.18,-208.26"/>
</g>
<!-- Vector::pop_back -->
<g id="node19" class="node">
<title>Vector::pop_back</title>
<ellipse fill="none" stroke="black" cx="1198" cy="-106" rx="44.69" ry="18"/>
<text text-anchor="middle" x="1198" y="-102.3" font-family="Times,serif" font-size="14.00">pop_back</text>
</g>
<!-- Option::extract&#45;&gt;Vector::pop_back -->
<g id="edge22" class="edge">
<title>Option::extract&#45;&gt;Vector::pop_back</title>
<path fill="none" stroke="black" d="M1187.17,-253.76C1187.5,-232.42 1188.41,-194.98 1191,-163 1191.76,-153.59 1192.94,-143.34 1194.11,-134.21"/>
<polygon fill="black" stroke="black" points="1197.61,-134.49 1195.47,-124.12 1190.67,-133.56 1197.61,-134.49"/>
</g>
<!-- Option::is_some -->
<g id="node20" class="node">
<title>Option::is_some</title>
<ellipse fill="none" stroke="black" cx="1240" cy="-189" rx="40.09" ry="18"/>
<text text-anchor="middle" x="1240" y="-185.3" font-family="Times,serif" font-size="14.00">is_some</text>
</g>
<!-- Option::extract&#45;&gt;Option::is_some -->
<g id="edge23" class="edge">
<title>Option::extract&#45;&gt;Option::is_some</title>
<path fill="none" stroke="black" d="M1197.73,-254.61C1205.2,-243.19 1215.3,-227.75 1223.75,-214.83"/>
<polygon fill="black" stroke="black" points="1226.74,-216.65 1229.29,-206.37 1220.89,-212.82 1226.74,-216.65"/>
</g>
<!-- DiemAccount::delegated_key_rotation_capability&#45;&gt;Errors::not_published -->
<g id="edge24" class="edge">
<title>DiemAccount::delegated_key_rotation_capability&#45;&gt;Errors::not_published</title>
<path fill="none" stroke="black" d="M237.65,-256.66C260.31,-252.53 285.64,-248.47 309,-246 358.75,-240.73 486.38,-253.35 534,-238 550.66,-232.63 567.06,-222.21 580,-212.45"/>
<polygon fill="black" stroke="black" points="582.26,-215.12 587.96,-206.19 577.94,-209.61 582.26,-215.12"/>
</g>
<!-- DiemAccount::delegated_key_rotation_capability&#45;&gt;DiemAccount::exists_at -->
<g id="edge26" class="edge">
<title>DiemAccount::delegated_key_rotation_capability&#45;&gt;DiemAccount::exists_at</title>
<path fill="none" stroke="black" d="M217.19,-255.19C264.06,-240.12 333.87,-217.69 378.15,-203.45"/>
<polygon fill="black" stroke="black" points="379.28,-206.76 387.73,-200.37 377.14,-200.1 379.28,-206.76"/>
</g>
<!-- Option::is_none -->
<g id="node21" class="node">
<title>Option::is_none</title>
<ellipse fill="none" stroke="black" cx="1278" cy="-272" rx="38.19" ry="18"/>
<text text-anchor="middle" x="1278" y="-268.3" font-family="Times,serif" font-size="14.00">is_none</text>
</g>
<!-- DiemAccount::delegated_key_rotation_capability&#45;&gt;Option::is_none -->
<g id="edge25" class="edge">
<title>DiemAccount::delegated_key_rotation_capability&#45;&gt;Option::is_none</title>
<path fill="none" stroke="black" d="M205.58,-289.3C235.35,-302.02 278.39,-318.21 318,-325 342.72,-329.24 1196.46,-330.21 1221,-325 1237.22,-321.56 1250.98,-309.24 1260.92,-297.35"/>
<polygon fill="black" stroke="black" points="1263.8,-299.34 1267.17,-289.3 1258.27,-295.05 1263.8,-299.34"/>
</g>
<!-- Errors::invalid_argument&#45;&gt;Errors::make -->
<g id="edge27" class="edge">
<title>Errors::invalid_argument&#45;&gt;Errors::make</title>
<path fill="none" stroke="black" d="M1014.4,-174.08C967.89,-158.51 893.35,-133.56 849.48,-118.88"/>
<polygon fill="black" stroke="black" points="850.41,-115.5 839.82,-115.64 848.19,-122.13 850.41,-115.5"/>
</g>
<!-- DiemAccount::rotate_authentication_key&#45;&gt;Errors::not_published -->
<g id="edge29" class="edge">
<title>DiemAccount::rotate_authentication_key&#45;&gt;Errors::not_published</title>
<path fill="none" stroke="black" d="M479.83,-257.39C497.68,-252.35 517,-245.9 534,-238 549.06,-231.01 564.53,-221.11 577.25,-212.11"/>
<polygon fill="black" stroke="black" points="579.54,-214.78 585.58,-206.08 575.43,-209.11 579.54,-214.78"/>
</g>
<!-- DiemAccount::rotate_authentication_key&#45;&gt;DiemAccount::exists_at -->
<g id="edge31" class="edge">
<title>DiemAccount::rotate_authentication_key&#45;&gt;DiemAccount::exists_at</title>
<path fill="none" stroke="black" d="M420,-253.82C420,-243.19 420,-229.31 420,-217.2"/>
<polygon fill="black" stroke="black" points="423.5,-217.15 420,-207.15 416.5,-217.15 423.5,-217.15"/>
</g>
<!-- DiemAccount::rotate_authentication_key&#45;&gt;Errors::invalid_argument -->
<g id="edge28" class="edge">
<title>DiemAccount::rotate_authentication_key&#45;&gt;Errors::invalid_argument</title>
<path fill="none" stroke="black" d="M521.91,-270.51C658,-268.91 891.43,-262.52 973,-238 991.79,-232.35 1010.87,-221.73 1025.99,-211.91"/>
<polygon fill="black" stroke="black" points="1028.05,-214.74 1034.41,-206.27 1024.15,-208.93 1028.05,-214.74"/>
</g>
<!-- Vector::length -->
<g id="node22" class="node">
<title>Vector::length</title>
<ellipse fill="none" stroke="black" cx="1244" cy="-34" rx="32.49" ry="18"/>
<text text-anchor="middle" x="1244" y="-30.3" font-family="Times,serif" font-size="14.00">length</text>
</g>
<!-- DiemAccount::rotate_authentication_key&#45;&gt;Vector::length -->
<g id="edge30" class="edge">
<title>DiemAccount::rotate_authentication_key&#45;&gt;Vector::length</title>
<path fill="none" stroke="black" d="M384.98,-255.07C378.56,-250.5 372.73,-244.86 369,-238 353.07,-208.72 351.51,-191.38 369,-163 412.07,-93.12 454.77,-101.47 534,-80 660.95,-45.59 1068.1,-37.29 1201.35,-35.47"/>
<polygon fill="black" stroke="black" points="1201.61,-38.97 1211.56,-35.34 1201.51,-31.97 1201.61,-38.97"/>
</g>
<!-- Vector::push_back -->
<g id="node23" class="node">
<title>Vector::push_back</title>
<ellipse fill="none" stroke="black" cx="1414" cy="-106" rx="48.19" ry="18"/>
<text text-anchor="middle" x="1414" y="-102.3" font-family="Times,serif" font-size="14.00">push_back</text>
</g>
<!-- Authenticator::ed25519_authentication_key&#45;&gt;Vector::push_back -->
<g id="edge32" class="edge">
<title>Authenticator::ed25519_authentication_key&#45;&gt;Vector::push_back</title>
<path fill="none" stroke="black" d="M1571.28,-172C1537.52,-158.05 1488.74,-137.89 1454.48,-123.73"/>
<polygon fill="black" stroke="black" points="1455.8,-120.49 1445.22,-119.9 1453.13,-126.96 1455.8,-120.49"/>
</g>
<!-- Hash::sha3_256 -->
<g id="node24" class="node">
<title>Hash::sha3_256</title>
<ellipse fill="none" stroke="black" cx="1610" cy="-106" rx="44.39" ry="18"/>
<text text-anchor="middle" x="1610" y="-102.3" font-family="Times,serif" font-size="14.00">sha3_256</text>
</g>
<!-- Authenticator::ed25519_authentication_key&#45;&gt;Hash::sha3_256 -->
<g id="edge33" class="edge">
<title>Authenticator::ed25519_authentication_key&#45;&gt;Hash::sha3_256</title>
<path fill="none" stroke="black" d="M1610,-170.82C1610,-160.19 1610,-146.31 1610,-134.2"/>
<polygon fill="black" stroke="black" points="1613.5,-134.15 1610,-124.15 1606.5,-134.15 1613.5,-134.15"/>
</g>
<!-- Vector::is_empty -->
<g id="node25" class="node">
<title>Vector::is_empty</title>
<ellipse fill="none" stroke="black" cx="1304" cy="-106" rx="43.59" ry="18"/>
<text text-anchor="middle" x="1304" y="-102.3" font-family="Times,serif" font-size="14.00">is_empty</text>
</g>
<!-- Option::is_some&#45;&gt;Vector::is_empty -->
<g id="edge34" class="edge">
<title>Option::is_some&#45;&gt;Vector::is_empty</title>
<path fill="none" stroke="black" d="M1252.95,-171.61C1262.06,-160.08 1274.41,-144.46 1284.67,-131.46"/>
<polygon fill="black" stroke="black" points="1287.61,-133.38 1291.07,-123.37 1282.12,-129.04 1287.61,-133.38"/>
</g>
<!-- Option::is_none&#45;&gt;Vector::is_empty -->
<g id="edge35" class="edge">
<title>Option::is_none&#45;&gt;Vector::is_empty</title>
<path fill="none" stroke="black" d="M1284.4,-254.06C1286.12,-248.96 1287.83,-243.31 1289,-238 1296.83,-202.64 1300.71,-160.96 1302.53,-134.27"/>
<polygon fill="black" stroke="black" points="1306.03,-134.35 1303.17,-124.14 1299.05,-133.9 1306.03,-134.35"/>
</g>
<!-- Vector::is_empty&#45;&gt;Vector::length -->
<g id="edge36" class="edge">
<title>Vector::is_empty&#45;&gt;Vector::length</title>
<path fill="none" stroke="black" d="M1290.08,-88.76C1282.33,-79.71 1272.53,-68.29 1263.97,-58.3"/>
<polygon fill="black" stroke="black" points="1266.59,-55.98 1257.43,-50.67 1261.28,-60.54 1266.59,-55.98"/>
</g>
</g>
</svg>
