<?xml version="1.0" encoding="UTF-8" standalone="no"?>
<!DOCTYPE svg PUBLIC "-//W3C//DTD SVG 1.1//EN"
 "http://www.w3.org/Graphics/SVG/1.1/DTD/svg11.dtd">
<!-- Generated by graphviz version 2.46.1 (20210213.1702)
 -->
<!-- Title: G Pages: 1 -->
<svg width="2977pt" height="764pt"
 viewBox="0.00 0.00 2977.00 764.00" xmlns="http://www.w3.org/2000/svg" xmlns:xlink="http://www.w3.org/1999/xlink">
<g id="graph0" class="graph" transform="scale(1 1) rotate(0) translate(4 760)">
<title>G</title>
<polygon fill="white" stroke="transparent" points="-4,4 -4,-760 2973,-760 2973,4 -4,4"/>
<!-- AccountCreationScripts -->
<g id="node1" class="node">
<title>AccountCreationScripts</title>
<ellipse fill="none" stroke="black" cx="2339" cy="-738" rx="94.78" ry="18"/>
<text text-anchor="middle" x="2339" y="-734.3" font-family="Times,serif" font-size="14.00">AccountCreationScripts</text>
</g>
<!-- SlidingNonce -->
<g id="node2" class="node">
<title>SlidingNonce</title>
<ellipse fill="none" stroke="black" cx="2882" cy="-450" rx="59.29" ry="18"/>
<text text-anchor="middle" x="2882" y="-446.3" font-family="Times,serif" font-size="14.00">SlidingNonce</text>
</g>
<!-- AccountCreationScripts&#45;&gt;SlidingNonce -->
<g id="edge1" class="edge">
<title>AccountCreationScripts&#45;&gt;SlidingNonce</title>
<path fill="none" stroke="black" d="M2412.69,-726.58C2534.39,-708.05 2770.21,-666.18 2833,-612 2871.89,-578.44 2880.47,-515.04 2882.04,-478.62"/>
<polygon fill="black" stroke="black" points="2885.55,-478.33 2882.32,-468.24 2878.55,-478.14 2885.55,-478.33"/>
</g>
<!-- DiemAccount -->
<g id="node3" class="node">
<title>DiemAccount</title>
<ellipse fill="none" stroke="black" cx="1843" cy="-666" rx="60.39" ry="18"/>
<text text-anchor="middle" x="1843" y="-662.3" font-family="Times,serif" font-size="14.00">DiemAccount</text>
</g>
<!-- AccountCreationScripts&#45;&gt;DiemAccount -->
<g id="edge2" class="edge">
<title>AccountCreationScripts&#45;&gt;DiemAccount</title>
<path fill="none" stroke="black" d="M2265.28,-726.6C2168,-712.87 1998.37,-688.93 1906.5,-675.96"/>
<polygon fill="black" stroke="black" points="1906.89,-672.48 1896.5,-674.55 1905.91,-679.41 1906.89,-672.48"/>
</g>
<!-- Signer -->
<g id="node4" class="node">
<title>Signer</title>
<ellipse fill="none" stroke="black" cx="2138" cy="-18" rx="33.6" ry="18"/>
<text text-anchor="middle" x="2138" y="-14.3" font-family="Times,serif" font-size="14.00">Signer</text>
</g>
<!-- SlidingNonce&#45;&gt;Signer -->
<g id="edge3" class="edge">
<title>SlidingNonce&#45;&gt;Signer</title>
<path fill="none" stroke="black" d="M2889.69,-431.91C2900.79,-405.62 2920,-353.45 2920,-307 2920,-307 2920,-307 2920,-161 2920,-109.27 2891.06,-95.55 2845,-72 2786.13,-41.9 2328,-24.99 2182.32,-20.33"/>
<polygon fill="black" stroke="black" points="2182.09,-16.82 2171.98,-20.01 2181.87,-23.82 2182.09,-16.82"/>
</g>
<!-- Errors -->
<g id="node5" class="node">
<title>Errors</title>
<ellipse fill="none" stroke="black" cx="1230" cy="-18" rx="32.49" ry="18"/>
<text text-anchor="middle" x="1230" y="-14.3" font-family="Times,serif" font-size="14.00">Errors</text>
</g>
<!-- SlidingNonce&#45;&gt;Errors -->
<g id="edge4" class="edge">
<title>SlidingNonce&#45;&gt;Errors</title>
<path fill="none" stroke="black" d="M2881.68,-431.97C2879.77,-380.61 2866.88,-225.76 2782,-144 2698.41,-63.49 2645.57,-90.49 2531,-72 2280.5,-31.57 1468.86,-21.29 1272.88,-19.37"/>
<polygon fill="black" stroke="black" points="1272.73,-15.87 1262.7,-19.28 1272.66,-22.87 1272.73,-15.87"/>
</g>
<!-- DiemAccount&#45;&gt;SlidingNonce -->
<g id="edge9" class="edge">
<title>DiemAccount&#45;&gt;SlidingNonce</title>
<path fill="none" stroke="black" d="M1903.66,-665.28C2103.78,-665.71 2734.49,-662.97 2809,-612 2820.9,-603.86 2854.65,-520.96 2871.77,-477.41"/>
<polygon fill="black" stroke="black" points="2875.06,-478.59 2875.45,-468.01 2868.55,-476.04 2875.06,-478.59"/>
</g>
<!-- DiemAccount&#45;&gt;Signer -->
<g id="edge5" class="edge">
<title>DiemAccount&#45;&gt;Signer</title>
<path fill="none" stroke="black" d="M1903.23,-663.6C2104.32,-658.67 2744.93,-640.84 2833,-612 2901.65,-589.52 2969,-595.24 2969,-523 2969,-523 2969,-523 2969,-161 2969,-107.21 2935.47,-95.32 2887,-72 2823.55,-41.47 2333.66,-24.72 2182.36,-20.24"/>
<polygon fill="black" stroke="black" points="2182.16,-16.73 2172.06,-19.94 2181.96,-23.73 2182.16,-16.73"/>
</g>
<!-- DiemAccount&#45;&gt;Errors -->
<g id="edge6" class="edge">
<title>DiemAccount&#45;&gt;Errors</title>
<path fill="none" stroke="black" d="M1782.3,-664.81C1478.14,-663.65 131.32,-656.05 55,-612 14.73,-588.76 0,-569.5 0,-523 0,-523 0,-523 0,-161 0,-103.14 41.7,-94.52 95,-72 196.98,-28.91 992.93,-20.64 1187.29,-19.25"/>
<polygon fill="black" stroke="black" points="1187.43,-22.75 1197.4,-19.18 1187.38,-15.75 1187.43,-22.75"/>
</g>
<!-- CoreAddresses -->
<g id="node6" class="node">
<title>CoreAddresses</title>
<ellipse fill="none" stroke="black" cx="1780" cy="-90" rx="63.89" ry="18"/>
<text text-anchor="middle" x="1780" y="-86.3" font-family="Times,serif" font-size="14.00">CoreAddresses</text>
</g>
<!-- DiemAccount&#45;&gt;CoreAddresses -->
<g id="edge7" class="edge">
<title>DiemAccount&#45;&gt;CoreAddresses</title>
<path fill="none" stroke="black" d="M1903.81,-665.9C2019.33,-666.42 2264.9,-661.47 2331,-612 2365.3,-586.33 2368,-565.84 2368,-523 2368,-523 2368,-523 2368,-449 2368,-408.55 2359.58,-389.74 2387,-360 2424.74,-319.06 2473.76,-368.67 2507,-324 2516.55,-311.16 2513.6,-302.58 2507,-288 2507,-288 2343,-144 2343,-144 2298.92,-124.99 1993.51,-104.09 1851.86,-95.28"/>
<polygon fill="black" stroke="black" points="1851.74,-91.77 1841.54,-94.64 1851.3,-98.76 1851.74,-91.77"/>
</g>
<!-- DiemTimestamp -->
<g id="node7" class="node">
<title>DiemTimestamp</title>
<ellipse fill="none" stroke="black" cx="1131" cy="-162" rx="71.49" ry="18"/>
<text text-anchor="middle" x="1131" y="-158.3" font-family="Times,serif" font-size="14.00">DiemTimestamp</text>
</g>
<!-- DiemAccount&#45;&gt;DiemTimestamp -->
<g id="edge8" class="edge">
<title>DiemAccount&#45;&gt;DiemTimestamp</title>
<path fill="none" stroke="black" d="M1782.41,-664.4C1486.28,-661.3 202.31,-645.95 125,-612 74.35,-589.76 38,-578.32 38,-523 38,-523 38,-523 38,-377 38,-284.19 88.16,-257.85 171,-216 248.36,-176.92 832.13,-166.37 1049.65,-163.77"/>
<polygon fill="black" stroke="black" points="1049.77,-167.27 1059.72,-163.66 1049.68,-160.27 1049.77,-167.27"/>
</g>
<!-- Roles -->
<g id="node8" class="node">
<title>Roles</title>
<ellipse fill="none" stroke="black" cx="1416" cy="-234" rx="30.59" ry="18"/>
<text text-anchor="middle" x="1416" y="-230.3" font-family="Times,serif" font-size="14.00">Roles</text>
</g>
<!-- DiemAccount&#45;&gt;Roles -->
<g id="edge10" class="edge">
<title>DiemAccount&#45;&gt;Roles</title>
<path fill="none" stroke="black" d="M1785.35,-660.54C1704.71,-650.8 1568,-619.99 1568,-523 1568,-523 1568,-523 1568,-449 1568,-402.03 1537.9,-398.51 1511,-360 1507.46,-354.93 1461.13,-294.14 1434.51,-259.25"/>
<polygon fill="black" stroke="black" points="1437.05,-256.81 1428.2,-250.98 1431.48,-261.05 1437.05,-256.81"/>
</g>
<!-- Vector -->
<g id="node9" class="node">
<title>Vector</title>
<ellipse fill="none" stroke="black" cx="2000" cy="-162" rx="33.6" ry="18"/>
<text text-anchor="middle" x="2000" y="-158.3" font-family="Times,serif" font-size="14.00">Vector</text>
</g>
<!-- DiemAccount&#45;&gt;Vector -->
<g id="edge11" class="edge">
<title>DiemAccount&#45;&gt;Vector</title>
<path fill="none" stroke="black" d="M1903.07,-663.5C2052.16,-659.32 2435.96,-645.53 2559,-612 2641.66,-589.48 2730,-608.68 2730,-523 2730,-523 2730,-523 2730,-377 2730,-330.03 2711.02,-315.59 2673,-288 2571.04,-214.01 2176.38,-176.84 2043.76,-166.25"/>
<polygon fill="black" stroke="black" points="2043.81,-162.74 2033.57,-165.45 2043.26,-169.72 2043.81,-162.74"/>
</g>
<!-- BCS -->
<g id="node10" class="node">
<title>BCS</title>
<ellipse fill="none" stroke="black" cx="2273" cy="-162" rx="27.1" ry="18"/>
<text text-anchor="middle" x="2273" y="-158.3" font-family="Times,serif" font-size="14.00">BCS</text>
</g>
<!-- DiemAccount&#45;&gt;BCS -->
<g id="edge12" class="edge">
<title>DiemAccount&#45;&gt;BCS</title>
<path fill="none" stroke="black" d="M1903.6,-665.4C2066.35,-665.77 2509.86,-662.04 2646,-612 2696.39,-593.48 2718.54,-587.79 2743,-540 2794.55,-439.29 2790.38,-364.47 2707,-288 2591.85,-182.39 2393.01,-165.46 2310.53,-163.14"/>
<polygon fill="black" stroke="black" points="2310.45,-159.63 2300.37,-162.91 2310.29,-166.63 2310.45,-159.63"/>
</g>
<!-- Event -->
<g id="node11" class="node">
<title>Event</title>
<ellipse fill="none" stroke="black" cx="2273" cy="-234" rx="31.4" ry="18"/>
<text text-anchor="middle" x="2273" y="-230.3" font-family="Times,serif" font-size="14.00">Event</text>
</g>
<!-- DiemAccount&#45;&gt;Event -->
<g id="edge13" class="edge">
<title>DiemAccount&#45;&gt;Event</title>
<path fill="none" stroke="black" d="M1902.66,-662.77C1997.7,-658.26 2178.25,-645.44 2232,-612 2272.51,-586.8 2292,-570.7 2292,-523 2292,-523 2292,-523 2292,-449 2292,-381.55 2282.52,-302.61 2276.95,-262.06"/>
<polygon fill="black" stroke="black" points="2280.42,-261.57 2275.56,-252.15 2273.48,-262.54 2280.42,-261.57"/>
</g>
<!-- DiemConfig -->
<g id="node12" class="node">
<title>DiemConfig</title>
<ellipse fill="none" stroke="black" cx="2609" cy="-306" rx="54.69" ry="18"/>
<text text-anchor="middle" x="2609" y="-302.3" font-family="Times,serif" font-size="14.00">DiemConfig</text>
</g>
<!-- DiemAccount&#45;&gt;DiemConfig -->
<g id="edge14" class="edge">
<title>DiemAccount&#45;&gt;DiemConfig</title>
<path fill="none" stroke="black" d="M1903.02,-663.77C2008.04,-660.67 2231.51,-649.8 2416,-612 2542.26,-586.13 2692,-651.89 2692,-523 2692,-523 2692,-523 2692,-449 2692,-408.55 2693.96,-394.59 2673,-360 2665.49,-347.61 2654.03,-336.79 2642.87,-328.21"/>
<polygon fill="black" stroke="black" points="2644.61,-325.14 2634.46,-322.09 2640.49,-330.81 2644.61,-325.14"/>
</g>
<!-- Diem -->
<g id="node13" class="node">
<title>Diem</title>
<ellipse fill="none" stroke="black" cx="1416" cy="-450" rx="30.59" ry="18"/>
<text text-anchor="middle" x="1416" y="-446.3" font-family="Times,serif" font-size="14.00">Diem</text>
</g>
<!-- DiemAccount&#45;&gt;Diem -->
<g id="edge15" class="edge">
<title>DiemAccount&#45;&gt;Diem</title>
<path fill="none" stroke="black" d="M1813.31,-650.12C1735.71,-611.23 1527.31,-506.79 1447.6,-466.84"/>
<polygon fill="black" stroke="black" points="1449.05,-463.65 1438.54,-462.3 1445.91,-469.9 1449.05,-463.65"/>
</g>
<!-- AccountLimits -->
<g id="node14" class="node">
<title>AccountLimits</title>
<ellipse fill="none" stroke="black" cx="906" cy="-306" rx="63.89" ry="18"/>
<text text-anchor="middle" x="906" y="-302.3" font-family="Times,serif" font-size="14.00">AccountLimits</text>
</g>
<!-- DiemAccount&#45;&gt;AccountLimits -->
<g id="edge16" class="edge">
<title>DiemAccount&#45;&gt;AccountLimits</title>
<path fill="none" stroke="black" d="M1782.51,-664.27C1588.88,-661.57 992.42,-650.21 915,-612 808.75,-559.56 772.55,-464.71 828,-360 835.54,-345.76 848.82,-334.63 862.3,-326.33"/>
<polygon fill="black" stroke="black" points="864.19,-329.28 871.13,-321.28 860.71,-323.21 864.19,-329.28"/>
</g>
<!-- XUS -->
<g id="node15" class="node">
<title>XUS</title>
<ellipse fill="none" stroke="black" cx="1321" cy="-522" rx="28.7" ry="18"/>
<text text-anchor="middle" x="1321" y="-518.3" font-family="Times,serif" font-size="14.00">XUS</text>
</g>
<!-- DiemAccount&#45;&gt;XUS -->
<g id="edge17" class="edge">
<title>DiemAccount&#45;&gt;XUS</title>
<path fill="none" stroke="black" d="M1788.54,-658.01C1729.94,-649.8 1634.34,-634.39 1554,-612 1467.01,-587.76 1448.21,-572.6 1364,-540 1360.76,-538.74 1357.38,-537.43 1354.01,-536.11"/>
<polygon fill="black" stroke="black" points="1355.22,-532.82 1344.63,-532.41 1352.66,-539.33 1355.22,-532.82"/>
</g>
<!-- XDX -->
<g id="node16" class="node">
<title>XDX</title>
<ellipse fill="none" stroke="black" cx="892" cy="-522" rx="29.8" ry="18"/>
<text text-anchor="middle" x="892" y="-518.3" font-family="Times,serif" font-size="14.00">XDX</text>
</g>
<!-- DiemAccount&#45;&gt;XDX -->
<g id="edge18" class="edge">
<title>DiemAccount&#45;&gt;XDX</title>
<path fill="none" stroke="black" d="M1782.59,-664.43C1594.23,-662.23 1025.86,-652.28 954,-612 929.33,-598.17 912.26,-569.93 902.37,-548.95"/>
<polygon fill="black" stroke="black" points="905.48,-547.32 898.21,-539.61 899.09,-550.17 905.48,-547.32"/>
</g>
<!-- ValidatorOperatorConfig -->
<g id="node17" class="node">
<title>ValidatorOperatorConfig</title>
<ellipse fill="none" stroke="black" cx="468" cy="-306" rx="98.28" ry="18"/>
<text text-anchor="middle" x="468" y="-302.3" font-family="Times,serif" font-size="14.00">ValidatorOperatorConfig</text>
</g>
<!-- DiemAccount&#45;&gt;ValidatorOperatorConfig -->
<g id="edge19" class="edge">
<title>DiemAccount&#45;&gt;ValidatorOperatorConfig</title>
<path fill="none" stroke="black" d="M1782.41,-665.17C1517.47,-665.13 474,-656.51 474,-523 474,-523 474,-523 474,-449 474,-408.96 471.59,-362.63 469.82,-334.07"/>
<polygon fill="black" stroke="black" points="473.31,-333.8 469.19,-324.04 466.33,-334.24 473.31,-333.8"/>
</g>
<!-- Option -->
<g id="node18" class="node">
<title>Option</title>
<ellipse fill="none" stroke="black" cx="215" cy="-234" rx="35.19" ry="18"/>
<text text-anchor="middle" x="215" y="-230.3" font-family="Times,serif" font-size="14.00">Option</text>
</g>
<!-- DiemAccount&#45;&gt;Option -->
<g id="edge20" class="edge">
<title>DiemAccount&#45;&gt;Option</title>
<path fill="none" stroke="black" d="M1782.39,-664.81C1545.27,-663.76 680.31,-656.88 410,-612 274.48,-589.5 114,-660.37 114,-523 114,-523 114,-523 114,-377 114,-326.12 157.59,-280.8 187.5,-255.7"/>
<polygon fill="black" stroke="black" points="189.98,-258.2 195.53,-249.17 185.56,-252.77 189.98,-258.2"/>
</g>
<!-- ValidatorConfig -->
<g id="node19" class="node">
<title>ValidatorConfig</title>
<ellipse fill="none" stroke="black" cx="304" cy="-378" rx="66.89" ry="18"/>
<text text-anchor="middle" x="304" y="-374.3" font-family="Times,serif" font-size="14.00">ValidatorConfig</text>
</g>
<!-- DiemAccount&#45;&gt;ValidatorConfig -->
<g id="edge21" class="edge">
<title>DiemAccount&#45;&gt;ValidatorConfig</title>
<path fill="none" stroke="black" d="M1782.46,-664.21C1523.37,-660.62 518.44,-644.65 460,-612 377.9,-566.12 330.87,-456.8 312.74,-405.91"/>
<polygon fill="black" stroke="black" points="315.98,-404.57 309.4,-396.27 309.36,-406.86 315.98,-404.57"/>
</g>
<!-- VASP -->
<g id="node20" class="node">
<title>VASP</title>
<ellipse fill="none" stroke="black" cx="1090" cy="-378" rx="32.49" ry="18"/>
<text text-anchor="middle" x="1090" y="-374.3" font-family="Times,serif" font-size="14.00">VASP</text>
</g>
<!-- DiemAccount&#45;&gt;VASP -->
<g id="edge22" class="edge">
<title>DiemAccount&#45;&gt;VASP</title>
<path fill="none" stroke="black" d="M1783.33,-663.11C1636.41,-658 1265.68,-642.24 1219,-612 1144.19,-563.53 1108.9,-455.92 1096.03,-405.74"/>
<polygon fill="black" stroke="black" points="1099.41,-404.81 1093.62,-395.94 1092.61,-406.49 1099.41,-404.81"/>
</g>
<!-- TransactionFee -->
<g id="node21" class="node">
<title>TransactionFee</title>
<ellipse fill="none" stroke="black" cx="1293" cy="-594" rx="64.99" ry="18"/>
<text text-anchor="middle" x="1293" y="-590.3" font-family="Times,serif" font-size="14.00">TransactionFee</text>
</g>
<!-- DiemAccount&#45;&gt;TransactionFee -->
<g id="edge23" class="edge">
<title>DiemAccount&#45;&gt;TransactionFee</title>
<path fill="none" stroke="black" d="M1788.51,-658.06C1687.46,-645.2 1471.29,-617.69 1360.91,-603.64"/>
<polygon fill="black" stroke="black" points="1361.25,-600.16 1350.88,-602.37 1360.36,-607.1 1361.25,-600.16"/>
</g>
<!-- Hash -->
<g id="node22" class="node">
<title>Hash</title>
<ellipse fill="none" stroke="black" cx="2194" cy="-594" rx="28.7" ry="18"/>
<text text-anchor="middle" x="2194" y="-590.3" font-family="Times,serif" font-size="14.00">Hash</text>
</g>
<!-- DiemAccount&#45;&gt;Hash -->
<g id="edge24" class="edge">
<title>DiemAccount&#45;&gt;Hash</title>
<path fill="none" stroke="black" d="M1899.96,-659.73C1963.46,-652.85 2068.71,-638.45 2156,-612 2158.28,-611.31 2160.59,-610.52 2162.91,-609.66"/>
<polygon fill="black" stroke="black" points="2164.31,-612.87 2172.26,-605.86 2161.68,-606.38 2164.31,-612.87"/>
</g>
<!-- DualAttestation -->
<g id="node23" class="node">
<title>DualAttestation</title>
<ellipse fill="none" stroke="black" cx="1890" cy="-594" rx="66.09" ry="18"/>
<text text-anchor="middle" x="1890" y="-590.3" font-family="Times,serif" font-size="14.00">DualAttestation</text>
</g>
<!-- DiemAccount&#45;&gt;DualAttestation -->
<g id="edge25" class="edge">
<title>DiemAccount&#45;&gt;DualAttestation</title>
<path fill="none" stroke="black" d="M1854.38,-648.05C1859.98,-639.71 1866.84,-629.49 1873.05,-620.25"/>
<polygon fill="black" stroke="black" points="1876.06,-622.04 1878.73,-611.79 1870.25,-618.14 1876.06,-622.04"/>
</g>
<!-- DiemTransactionPublishingOption -->
<g id="node24" class="node">
<title>DiemTransactionPublishingOption</title>
<ellipse fill="none" stroke="black" cx="2530" cy="-378" rx="133.78" ry="18"/>
<text text-anchor="middle" x="2530" y="-374.3" font-family="Times,serif" font-size="14.00">DiemTransactionPublishingOption</text>
</g>
<!-- DiemAccount&#45;&gt;DiemTransactionPublishingOption -->
<g id="edge26" class="edge">
<title>DiemAccount&#45;&gt;DiemTransactionPublishingOption</title>
<path fill="none" stroke="black" d="M1903.59,-665.59C2027.16,-665.74 2303.21,-660.46 2382,-612 2460.67,-563.61 2504.77,-456.03 2521.76,-405.8"/>
<polygon fill="black" stroke="black" points="2525.1,-406.87 2524.89,-396.27 2518.45,-404.68 2525.1,-406.87"/>
</g>
<!-- DesignatedDealer -->
<g id="node25" class="node">
<title>DesignatedDealer</title>
<ellipse fill="none" stroke="black" cx="2074" cy="-594" rx="73.39" ry="18"/>
<text text-anchor="middle" x="2074" y="-590.3" font-family="Times,serif" font-size="14.00">DesignatedDealer</text>
</g>
<!-- DiemAccount&#45;&gt;DesignatedDealer -->
<g id="edge27" class="edge">
<title>DiemAccount&#45;&gt;DesignatedDealer</title>
<path fill="none" stroke="black" d="M1883.77,-652.65C1921.66,-641.16 1978.36,-623.98 2020,-611.36"/>
<polygon fill="black" stroke="black" points="2021.15,-614.67 2029.7,-608.42 2019.12,-607.97 2021.15,-614.67"/>
</g>
<!-- ChainId -->
<g id="node26" class="node">
<title>ChainId</title>
<ellipse fill="none" stroke="black" cx="1789" cy="-234" rx="38.99" ry="18"/>
<text text-anchor="middle" x="1789" y="-230.3" font-family="Times,serif" font-size="14.00">ChainId</text>
</g>
<!-- DiemAccount&#45;&gt;ChainId -->
<g id="edge28" class="edge">
<title>DiemAccount&#45;&gt;ChainId</title>
<path fill="none" stroke="black" d="M1832.41,-647.89C1826.54,-637.77 1819.54,-624.52 1815,-612 1801.2,-573.98 1796,-563.45 1796,-523 1796,-523 1796,-523 1796,-377 1796,-336.95 1793.19,-290.62 1791.13,-262.06"/>
<polygon fill="black" stroke="black" points="1794.61,-261.75 1790.38,-252.04 1787.63,-262.27 1794.61,-261.75"/>
</g>
<!-- AccountFreezing -->
<g id="node27" class="node">
<title>AccountFreezing</title>
<ellipse fill="none" stroke="black" cx="2427" cy="-306" rx="71.49" ry="18"/>
<text text-anchor="middle" x="2427" y="-302.3" font-family="Times,serif" font-size="14.00">AccountFreezing</text>
</g>
<!-- DiemAccount&#45;&gt;AccountFreezing -->
<g id="edge29" class="edge">
<title>DiemAccount&#45;&gt;AccountFreezing</title>
<path fill="none" stroke="black" d="M1901.98,-661.92C2019.86,-655.23 2275.91,-637.9 2306,-612 2337.05,-585.27 2330,-563.97 2330,-523 2330,-523 2330,-523 2330,-449 2330,-408.03 2330.76,-393.74 2354,-360 2362.81,-347.21 2375.74,-336.38 2388.28,-327.91"/>
<polygon fill="black" stroke="black" points="2390.31,-330.77 2396.84,-322.43 2386.53,-324.87 2390.31,-330.77"/>
</g>
<!-- CoreAddresses&#45;&gt;Signer -->
<g id="edge30" class="edge">
<title>CoreAddresses&#45;&gt;Signer</title>
<path fill="none" stroke="black" d="M1830.91,-79.05C1902.38,-65.07 2031.04,-39.91 2096.83,-27.05"/>
<polygon fill="black" stroke="black" points="2097.68,-30.45 2106.83,-25.1 2096.34,-23.58 2097.68,-30.45"/>
</g>
<!-- CoreAddresses&#45;&gt;Errors -->
<g id="edge31" class="edge">
<title>CoreAddresses&#45;&gt;Errors</title>
<path fill="none" stroke="black" d="M1723.21,-81.77C1612.26,-67.65 1369.03,-36.69 1271.58,-24.29"/>
<polygon fill="black" stroke="black" points="1271.89,-20.8 1261.52,-23.01 1271,-27.75 1271.89,-20.8"/>
</g>
<!-- DiemTimestamp&#45;&gt;Errors -->
<g id="edge32" class="edge">
<title>DiemTimestamp&#45;&gt;Errors</title>
<path fill="none" stroke="black" d="M1138.15,-144.08C1146.38,-125.52 1160.99,-95.28 1178,-72 1186.08,-60.94 1196.41,-49.93 1205.73,-40.84"/>
<polygon fill="black" stroke="black" points="1208.41,-43.11 1213.25,-33.69 1203.59,-38.04 1208.41,-43.11"/>
</g>
<!-- DiemTimestamp&#45;&gt;CoreAddresses -->
<g id="edge33" class="edge">
<title>DiemTimestamp&#45;&gt;CoreAddresses</title>
<path fill="none" stroke="black" d="M1195.3,-154.06C1318.17,-140.81 1585.27,-112 1711.41,-98.4"/>
<polygon fill="black" stroke="black" points="1712.14,-101.84 1721.71,-97.29 1711.39,-94.88 1712.14,-101.84"/>
</g>
<!-- Roles&#45;&gt;Signer -->
<g id="edge34" class="edge">
<title>Roles&#45;&gt;Signer</title>
<path fill="none" stroke="black" d="M1419.78,-215.96C1428.32,-181.94 1452.59,-105.94 1505,-72 1554.22,-40.12 1958.66,-24.63 2094.04,-20.3"/>
<polygon fill="black" stroke="black" points="2094.18,-23.8 2104.06,-19.98 2093.96,-16.8 2094.18,-23.8"/>
</g>
<!-- Roles&#45;&gt;Errors -->
<g id="edge35" class="edge">
<title>Roles&#45;&gt;Errors</title>
<path fill="none" stroke="black" d="M1403.48,-217.1C1380.25,-187.79 1328.58,-123.53 1282,-72 1272.59,-61.59 1261.77,-50.44 1252.45,-41.07"/>
<polygon fill="black" stroke="black" points="1254.91,-38.58 1245.36,-33.99 1249.96,-43.53 1254.91,-38.58"/>
</g>
<!-- Roles&#45;&gt;CoreAddresses -->
<g id="edge36" class="edge">
<title>Roles&#45;&gt;CoreAddresses</title>
<path fill="none" stroke="black" d="M1437.06,-220.85C1469.79,-202.34 1535.23,-166.84 1594,-144 1635.91,-127.71 1684.87,-113.96 1722.03,-104.55"/>
<polygon fill="black" stroke="black" points="1723.33,-107.84 1732.19,-102.02 1721.64,-101.05 1723.33,-107.84"/>
</g>
<!-- Roles&#45;&gt;DiemTimestamp -->
<g id="edge37" class="edge">
<title>Roles&#45;&gt;DiemTimestamp</title>
<path fill="none" stroke="black" d="M1388.41,-226.22C1342.83,-215.03 1250.78,-192.42 1190.02,-177.5"/>
<polygon fill="black" stroke="black" points="1190.72,-174.06 1180.17,-175.08 1189.05,-180.86 1190.72,-174.06"/>
</g>
<!-- Event&#45;&gt;Signer -->
<g id="edge38" class="edge">
<title>Event&#45;&gt;Signer</title>
<path fill="none" stroke="black" d="M2286.9,-217.74C2301.38,-199.89 2320.47,-169.54 2309,-144 2283.49,-87.2 2216.93,-50.86 2174.77,-32.75"/>
<polygon fill="black" stroke="black" points="2175.97,-29.46 2165.39,-28.86 2173.28,-35.93 2175.97,-29.46"/>
</g>
<!-- Event&#45;&gt;Errors -->
<g id="edge39" class="edge">
<title>Event&#45;&gt;Errors</title>
<path fill="none" stroke="black" d="M2257.87,-218.15C2222.78,-184.82 2131.71,-104.42 2038,-72 1894.62,-22.39 1418.6,-18.76 1272.81,-18.84"/>
<polygon fill="black" stroke="black" points="1272.49,-15.34 1262.5,-18.85 1272.5,-22.34 1272.49,-15.34"/>
</g>
<!-- Event&#45;&gt;Vector -->
<g id="edge40" class="edge">
<title>Event&#45;&gt;Vector</title>
<path fill="none" stroke="black" d="M2245.07,-225.84C2196.32,-213.34 2095.61,-187.51 2039.66,-173.17"/>
<polygon fill="black" stroke="black" points="2040.31,-169.72 2029.75,-170.63 2038.57,-176.5 2040.31,-169.72"/>
</g>
<!-- Event&#45;&gt;BCS -->
<g id="edge41" class="edge">
<title>Event&#45;&gt;BCS</title>
<path fill="none" stroke="black" d="M2273,-215.7C2273,-207.98 2273,-198.71 2273,-190.11"/>
<polygon fill="black" stroke="black" points="2276.5,-190.1 2273,-180.1 2269.5,-190.1 2276.5,-190.1"/>
</g>
<!-- DiemConfig&#45;&gt;Signer -->
<g id="edge42" class="edge">
<title>DiemConfig&#45;&gt;Signer</title>
<path fill="none" stroke="black" d="M2649.19,-293.67C2669.73,-285.61 2692.9,-272.49 2705,-252 2720.39,-225.92 2688.42,-146.34 2686,-144 2613.12,-73.54 2297.59,-35.12 2181.27,-23.14"/>
<polygon fill="black" stroke="black" points="2181.28,-19.62 2170.97,-22.09 2180.57,-26.58 2181.28,-19.62"/>
</g>
<!-- DiemConfig&#45;&gt;Errors -->
<g id="edge43" class="edge">
<title>DiemConfig&#45;&gt;Errors</title>
<path fill="none" stroke="black" d="M2594.21,-288.45C2576.62,-269.4 2545.74,-237.92 2515,-216 2388.02,-125.45 2347.34,-105.39 2195,-72 2015.38,-32.63 1435.92,-21.82 1272.98,-19.53"/>
<polygon fill="black" stroke="black" points="1272.91,-16.03 1262.86,-19.39 1272.81,-23.03 1272.91,-16.03"/>
</g>
<!-- DiemConfig&#45;&gt;CoreAddresses -->
<g id="edge44" class="edge">
<title>DiemConfig&#45;&gt;CoreAddresses</title>
<path fill="none" stroke="black" d="M2583.28,-289.88C2566.2,-279.61 2543.42,-265.5 2524,-252 2519.97,-249.2 2388.58,-145.79 2384,-144 2289.18,-106.97 1992.88,-95.64 1853.66,-92.31"/>
<polygon fill="black" stroke="black" points="1853.58,-88.81 1843.5,-92.08 1853.42,-95.81 1853.58,-88.81"/>
</g>
<!-- DiemConfig&#45;&gt;DiemTimestamp -->
<g id="edge45" class="edge">
<title>DiemConfig&#45;&gt;DiemTimestamp</title>
<path fill="none" stroke="black" d="M2575.03,-291.77C2520.67,-271.29 2410.34,-232.55 2313,-216 2100.74,-179.9 1443.5,-167.38 1212.39,-164.03"/>
<polygon fill="black" stroke="black" points="1212.42,-160.53 1202.37,-163.89 1212.32,-167.53 1212.42,-160.53"/>
</g>
<!-- DiemConfig&#45;&gt;Roles -->
<g id="edge46" class="edge">
<title>DiemConfig&#45;&gt;Roles</title>
<path fill="none" stroke="black" d="M2563.21,-296.18C2545.69,-293.12 2525.48,-289.97 2507,-288 2168.09,-251.92 2081.4,-268.9 1741,-252 1638.58,-246.91 1518.02,-240.49 1456.53,-237.19"/>
<polygon fill="black" stroke="black" points="1456.64,-233.69 1446.47,-236.65 1456.26,-240.68 1456.64,-233.69"/>
</g>
<!-- DiemConfig&#45;&gt;Event -->
<g id="edge47" class="edge">
<title>DiemConfig&#45;&gt;Event</title>
<path fill="none" stroke="black" d="M2564.03,-295.63C2497.63,-281.8 2374.47,-256.14 2311.8,-243.08"/>
<polygon fill="black" stroke="black" points="2312.42,-239.64 2301.92,-241.02 2310.99,-246.49 2312.42,-239.64"/>
</g>
<!-- Diem&#45;&gt;Signer -->
<g id="edge48" class="edge">
<title>Diem&#45;&gt;Signer</title>
<path fill="none" stroke="black" d="M1440.89,-439.39C1461.51,-430.49 1490.62,-415.68 1511,-396 1632.08,-279.11 1565.72,-163.46 1707,-72 1770.27,-31.04 1997.67,-21.73 2094.18,-19.62"/>
<polygon fill="black" stroke="black" points="2094.27,-23.12 2104.2,-19.42 2094.13,-16.12 2094.27,-23.12"/>
</g>
<!-- Diem&#45;&gt;Errors -->
<g id="edge49" class="edge">
<title>Diem&#45;&gt;Errors</title>
<path fill="none" stroke="black" d="M1388.23,-442.09C1364.38,-434.69 1330.93,-420.55 1312,-396 1228.7,-287.97 1226.04,-113.22 1228.44,-46.28"/>
<polygon fill="black" stroke="black" points="1231.94,-46.28 1228.87,-36.14 1224.95,-45.98 1231.94,-46.28"/>
</g>
<!-- Diem&#45;&gt;CoreAddresses -->
<g id="edge50" class="edge">
<title>Diem&#45;&gt;CoreAddresses</title>
<path fill="none" stroke="black" d="M1444.01,-442.6C1471.8,-435.15 1514.4,-420.59 1544,-396 1646.79,-310.61 1616.27,-241.17 1708,-144 1719.08,-132.26 1733.04,-121.31 1745.71,-112.45"/>
<polygon fill="black" stroke="black" points="1747.92,-115.18 1754.23,-106.66 1743.99,-109.39 1747.92,-115.18"/>
</g>
<!-- Diem&#45;&gt;DiemTimestamp -->
<g id="edge51" class="edge">
<title>Diem&#45;&gt;DiemTimestamp</title>
<path fill="none" stroke="black" d="M1390.02,-440.42C1381.17,-437.6 1371.19,-434.55 1362,-432 1295.93,-413.7 1262.82,-442.02 1212,-396 1151.5,-341.21 1136.19,-238.86 1132.31,-190.13"/>
<polygon fill="black" stroke="black" points="1135.8,-189.78 1131.62,-180.04 1128.81,-190.26 1135.8,-189.78"/>
</g>
<!-- Diem&#45;&gt;Roles -->
<g id="edge52" class="edge">
<title>Diem&#45;&gt;Roles</title>
<path fill="none" stroke="black" d="M1388.45,-441.98C1365.9,-434.61 1335.44,-420.59 1321,-396 1312.9,-382.2 1315.2,-374.91 1321,-360 1328.87,-339.77 1340.43,-340.94 1354,-324 1370.64,-303.22 1387.81,-278.25 1399.85,-260.06"/>
<polygon fill="black" stroke="black" points="1403.09,-261.5 1405.64,-251.22 1397.23,-257.66 1403.09,-261.5"/>
</g>
<!-- Diem&#45;&gt;Vector -->
<g id="edge54" class="edge">
<title>Diem&#45;&gt;Vector</title>
<path fill="none" stroke="black" d="M1446.11,-445.95C1487.52,-440.72 1563.36,-427.41 1620,-396 1640.35,-384.72 1638.79,-373.13 1658,-360 1750.9,-296.51 1791.3,-311.19 1887,-252 1919.72,-231.76 1953.99,-203.64 1976.09,-184.46"/>
<polygon fill="black" stroke="black" points="1978.44,-187.06 1983.65,-177.83 1973.83,-181.79 1978.44,-187.06"/>
</g>
<!-- Diem&#45;&gt;Event -->
<g id="edge55" class="edge">
<title>Diem&#45;&gt;Event</title>
<path fill="none" stroke="black" d="M1444.4,-443.17C1489.7,-433.78 1581.05,-414.49 1658,-396 1878.03,-343.13 2140.1,-271.68 2235.74,-245.32"/>
<polygon fill="black" stroke="black" points="2236.81,-248.65 2245.52,-242.62 2234.95,-241.91 2236.81,-248.65"/>
</g>
<!-- FixedPoint32 -->
<g id="node28" class="node">
<title>FixedPoint32</title>
<ellipse fill="none" stroke="black" cx="906" cy="-378" rx="57.69" ry="18"/>
<text text-anchor="middle" x="906" y="-374.3" font-family="Times,serif" font-size="14.00">FixedPoint32</text>
</g>
<!-- Diem&#45;&gt;FixedPoint32 -->
<g id="edge53" class="edge">
<title>Diem&#45;&gt;FixedPoint32</title>
<path fill="none" stroke="black" d="M1386.38,-444.93C1305.25,-433.8 1078.22,-402.64 967.83,-387.49"/>
<polygon fill="black" stroke="black" points="968.23,-384.01 957.84,-386.12 967.27,-390.94 968.23,-384.01"/>
</g>
<!-- RegisteredCurrencies -->
<g id="node29" class="node">
<title>RegisteredCurrencies</title>
<ellipse fill="none" stroke="black" cx="1416" cy="-378" rx="86.38" ry="18"/>
<text text-anchor="middle" x="1416" y="-374.3" font-family="Times,serif" font-size="14.00">RegisteredCurrencies</text>
</g>
<!-- Diem&#45;&gt;RegisteredCurrencies -->
<g id="edge56" class="edge">
<title>Diem&#45;&gt;RegisteredCurrencies</title>
<path fill="none" stroke="black" d="M1416,-431.7C1416,-423.98 1416,-414.71 1416,-406.11"/>
<polygon fill="black" stroke="black" points="1419.5,-406.1 1416,-396.1 1412.5,-406.1 1419.5,-406.1"/>
</g>
<!-- AccountLimits&#45;&gt;Signer -->
<g id="edge57" class="edge">
<title>AccountLimits&#45;&gt;Signer</title>
<path fill="none" stroke="black" d="M912.47,-287.94C926.22,-254.24 961.76,-179.3 1018,-144 1104.15,-89.93 1144.75,-130.22 1244,-108 1300,-95.46 1311.5,-82.03 1368,-72 1640.79,-23.59 1975.22,-18.8 2093.77,-18.76"/>
<polygon fill="black" stroke="black" points="2093.91,-22.26 2103.91,-18.76 2093.91,-15.26 2093.91,-22.26"/>
</g>
<!-- AccountLimits&#45;&gt;Errors -->
<g id="edge58" class="edge">
<title>AccountLimits&#45;&gt;Errors</title>
<path fill="none" stroke="black" d="M873.26,-290.52C857.75,-281.78 840.74,-269.01 832,-252 806.09,-201.56 808.5,-124.69 866,-72 912.16,-29.7 1101.14,-21.11 1187.09,-19.4"/>
<polygon fill="black" stroke="black" points="1187.35,-22.9 1197.28,-19.22 1187.22,-15.9 1187.35,-22.9"/>
</g>
<!-- AccountLimits&#45;&gt;DiemTimestamp -->
<g id="edge59" class="edge">
<title>AccountLimits&#45;&gt;DiemTimestamp</title>
<path fill="none" stroke="black" d="M930.94,-289.26C971.38,-263.74 1051.32,-213.29 1096.96,-184.49"/>
<polygon fill="black" stroke="black" points="1099.02,-187.32 1105.6,-179.03 1095.28,-181.4 1099.02,-187.32"/>
</g>
<!-- AccountLimits&#45;&gt;Roles -->
<g id="edge60" class="edge">
<title>AccountLimits&#45;&gt;Roles</title>
<path fill="none" stroke="black" d="M962.04,-297.31C1066.08,-283.03 1286.68,-252.75 1376.6,-240.41"/>
<polygon fill="black" stroke="black" points="1377.22,-243.86 1386.65,-239.03 1376.27,-236.92 1377.22,-243.86"/>
</g>
<!-- XUS&#45;&gt;DiemTimestamp -->
<g id="edge61" class="edge">
<title>XUS&#45;&gt;DiemTimestamp</title>
<path fill="none" stroke="black" d="M1301.84,-508.04C1272.38,-487.31 1215.64,-444.1 1180,-396 1139.84,-341.79 1139.29,-319.07 1132,-252 1129.76,-231.39 1129.59,-207.94 1129.94,-190.29"/>
<polygon fill="black" stroke="black" points="1133.44,-190.21 1130.21,-180.12 1126.45,-190.02 1133.44,-190.21"/>
</g>
<!-- XUS&#45;&gt;Diem -->
<g id="edge63" class="edge">
<title>XUS&#45;&gt;Diem</title>
<path fill="none" stroke="black" d="M1338.87,-507.83C1353.02,-497.41 1373.01,-482.68 1389.09,-470.83"/>
<polygon fill="black" stroke="black" points="1391.59,-473.33 1397.56,-464.58 1387.44,-467.7 1391.59,-473.33"/>
</g>
<!-- XUS&#45;&gt;AccountLimits -->
<g id="edge64" class="edge">
<title>XUS&#45;&gt;AccountLimits</title>
<path fill="none" stroke="black" d="M1297.6,-511.42C1249.92,-491.66 1138.47,-444.15 1049,-396 1009.8,-374.9 966.64,-347.42 938.11,-328.61"/>
<polygon fill="black" stroke="black" points="940.01,-325.67 929.74,-323.07 936.14,-331.51 940.01,-325.67"/>
</g>
<!-- XUS&#45;&gt;FixedPoint32 -->
<g id="edge62" class="edge">
<title>XUS&#45;&gt;FixedPoint32</title>
<path fill="none" stroke="black" d="M1292.78,-518.75C1223.04,-512.84 1044.44,-495.38 992,-468 963.33,-453.03 938.65,-424.91 923.17,-404.26"/>
<polygon fill="black" stroke="black" points="925.83,-401.97 917.12,-395.93 920.17,-406.08 925.83,-401.97"/>
</g>
<!-- XDX&#45;&gt;Errors -->
<g id="edge65" class="edge">
<title>XDX&#45;&gt;Errors</title>
<path fill="none" stroke="black" d="M862.36,-518.96C747.1,-510.51 330.1,-474.9 228,-396 165.39,-347.62 152,-314.13 152,-235 152,-235 152,-235 152,-161 152,-107.52 184.67,-94.92 233,-72 320.05,-30.72 1007.83,-21.17 1187.29,-19.37"/>
<polygon fill="black" stroke="black" points="1187.44,-22.87 1197.4,-19.27 1187.37,-15.87 1187.44,-22.87"/>
</g>
<!-- XDX&#45;&gt;CoreAddresses -->
<g id="edge66" class="edge">
<title>XDX&#45;&gt;CoreAddresses</title>
<path fill="none" stroke="black" d="M865.2,-513.99C838.53,-506.05 797.46,-491.13 768,-468 701.67,-415.92 661.32,-358.23 708,-288 799.53,-150.31 890.21,-182.5 1051,-144 1174.02,-114.54 1547.58,-98.82 1706.83,-93.31"/>
<polygon fill="black" stroke="black" points="1707.13,-96.8 1717,-92.96 1706.89,-89.8 1707.13,-96.8"/>
</g>
<!-- XDX&#45;&gt;DiemTimestamp -->
<g id="edge67" class="edge">
<title>XDX&#45;&gt;DiemTimestamp</title>
<path fill="none" stroke="black" d="M871.17,-508.71C813.73,-473.34 661.57,-368.64 727,-288 775.94,-227.69 823.67,-274.51 898,-252 939.23,-239.52 947.8,-231.49 988,-216 1019.38,-203.91 1054.83,-190.77 1082.58,-180.6"/>
<polygon fill="black" stroke="black" points="1083.87,-183.85 1092.06,-177.13 1081.46,-177.28 1083.87,-183.85"/>
</g>
<!-- XDX&#45;&gt;Diem -->
<g id="edge69" class="edge">
<title>XDX&#45;&gt;Diem</title>
<path fill="none" stroke="black" d="M920.92,-517.14C1009.19,-505.34 1275.3,-469.8 1376.42,-456.29"/>
<polygon fill="black" stroke="black" points="1377.08,-459.73 1386.52,-454.94 1376.15,-452.79 1377.08,-459.73"/>
</g>
<!-- XDX&#45;&gt;AccountLimits -->
<g id="edge70" class="edge">
<title>XDX&#45;&gt;AccountLimits</title>
<path fill="none" stroke="black" d="M879.1,-505.38C856.51,-475.99 814.39,-410.86 839,-360 845.34,-346.89 856.67,-336.05 868.24,-327.65"/>
<polygon fill="black" stroke="black" points="870.3,-330.48 876.63,-321.97 866.38,-324.68 870.3,-330.48"/>
</g>
<!-- XDX&#45;&gt;FixedPoint32 -->
<g id="edge68" class="edge">
<title>XDX&#45;&gt;FixedPoint32</title>
<path fill="none" stroke="black" d="M893.69,-503.87C896.07,-479.67 900.46,-435.21 903.3,-406.39"/>
<polygon fill="black" stroke="black" points="906.81,-406.48 904.31,-396.19 899.84,-405.8 906.81,-406.48"/>
</g>
<!-- ValidatorOperatorConfig&#45;&gt;Signer -->
<g id="edge71" class="edge">
<title>ValidatorOperatorConfig&#45;&gt;Signer</title>
<path fill="none" stroke="black" d="M495.27,-288.57C528.95,-268.89 588.46,-236.08 643,-216 900.75,-121.09 972.3,-112.28 1244,-72 1567.82,-23.99 1963.72,-19.1 2094.09,-18.88"/>
<polygon fill="black" stroke="black" points="2094.09,-22.38 2104.09,-18.87 2094.08,-15.38 2094.09,-22.38"/>
</g>
<!-- ValidatorOperatorConfig&#45;&gt;Errors -->
<g id="edge72" class="edge">
<title>ValidatorOperatorConfig&#45;&gt;Errors</title>
<path fill="none" stroke="black" d="M478.82,-288.09C491.91,-268.7 515.49,-236.9 542,-216 655.63,-126.41 695.58,-114.15 834,-72 958.59,-34.06 1113.45,-23.26 1187.15,-20.2"/>
<polygon fill="black" stroke="black" points="1187.57,-23.69 1197.42,-19.8 1187.3,-16.69 1187.57,-23.69"/>
</g>
<!-- ValidatorOperatorConfig&#45;&gt;DiemTimestamp -->
<g id="edge73" class="edge">
<title>ValidatorOperatorConfig&#45;&gt;DiemTimestamp</title>
<path fill="none" stroke="black" d="M527.19,-291.56C605.53,-273.84 747.98,-241.89 870,-216 937.03,-201.78 1013.92,-186.26 1066.79,-175.71"/>
<polygon fill="black" stroke="black" points="1067.58,-179.12 1076.71,-173.74 1066.21,-172.26 1067.58,-179.12"/>
</g>
<!-- ValidatorOperatorConfig&#45;&gt;Roles -->
<g id="edge74" class="edge">
<title>ValidatorOperatorConfig&#45;&gt;Roles</title>
<path fill="none" stroke="black" d="M553.13,-296.93C585.35,-293.97 622.35,-290.69 656,-288 930.88,-265.99 1262.12,-244.68 1375.59,-237.52"/>
<polygon fill="black" stroke="black" points="1375.81,-241.02 1385.57,-236.9 1375.37,-234.03 1375.81,-241.02"/>
</g>
<!-- Option&#45;&gt;Errors -->
<g id="edge75" class="edge">
<title>Option&#45;&gt;Errors</title>
<path fill="none" stroke="black" d="M214.38,-215.92C214.2,-182.17 219.17,-107.16 264,-72 300.81,-43.13 1005.31,-24.37 1187.36,-19.99"/>
<polygon fill="black" stroke="black" points="1187.69,-23.48 1197.61,-19.74 1187.53,-16.48 1187.69,-23.48"/>
</g>
<!-- Option&#45;&gt;Vector -->
<g id="edge76" class="edge">
<title>Option&#45;&gt;Vector</title>
<path fill="none" stroke="black" d="M249.86,-231.63C473.68,-222.86 1707.46,-174.47 1956.27,-164.72"/>
<polygon fill="black" stroke="black" points="1956.52,-168.21 1966.37,-164.32 1956.24,-161.21 1956.52,-168.21"/>
</g>
<!-- ValidatorConfig&#45;&gt;Signer -->
<g id="edge77" class="edge">
<title>ValidatorConfig&#45;&gt;Signer</title>
<path fill="none" stroke="black" d="M303.62,-359.68C304.14,-339.91 307.98,-307.75 326,-288 457.58,-143.77 554.23,-200.85 741,-144 861.46,-107.33 890.54,-91.07 1015,-72 1228.75,-39.24 1913.83,-23.48 2094.16,-19.84"/>
<polygon fill="black" stroke="black" points="2094.4,-23.34 2104.33,-19.64 2094.26,-16.34 2094.4,-23.34"/>
</g>
<!-- ValidatorConfig&#45;&gt;Errors -->
<g id="edge78" class="edge">
<title>ValidatorConfig&#45;&gt;Errors</title>
<path fill="none" stroke="black" d="M281.33,-360.83C270.24,-351.49 258,-338.68 252,-324 231.99,-275.04 262.26,-250.91 302,-216 410.7,-120.49 454.22,-109.41 594,-72 706.58,-41.87 1063.61,-25.47 1187.31,-20.58"/>
<polygon fill="black" stroke="black" points="1187.67,-24.07 1197.52,-20.18 1187.39,-17.07 1187.67,-24.07"/>
</g>
<!-- ValidatorConfig&#45;&gt;DiemTimestamp -->
<g id="edge79" class="edge">
<title>ValidatorConfig&#45;&gt;DiemTimestamp</title>
<path fill="none" stroke="black" d="M310.14,-359.98C318.43,-339.56 335.19,-305.84 361,-288 472.2,-211.12 878.27,-178.13 1051.66,-167.33"/>
<polygon fill="black" stroke="black" points="1051.97,-170.82 1061.74,-166.71 1051.54,-163.83 1051.97,-170.82"/>
</g>
<!-- ValidatorConfig&#45;&gt;Roles -->
<g id="edge81" class="edge">
<title>ValidatorConfig&#45;&gt;Roles</title>
<path fill="none" stroke="black" d="M357.6,-367.16C412.37,-356.96 499.79,-340.25 575,-324 642.86,-309.33 658.4,-298.69 727,-288 971.07,-249.95 1268.22,-238.82 1375.2,-235.92"/>
<polygon fill="black" stroke="black" points="1375.34,-239.42 1385.24,-235.66 1375.15,-232.42 1375.34,-239.42"/>
</g>
<!-- ValidatorConfig&#45;&gt;ValidatorOperatorConfig -->
<g id="edge82" class="edge">
<title>ValidatorConfig&#45;&gt;ValidatorOperatorConfig</title>
<path fill="none" stroke="black" d="M338.38,-362.33C362.56,-352.01 395.18,-338.08 421.65,-326.78"/>
<polygon fill="black" stroke="black" points="423.28,-329.89 431.1,-322.75 420.53,-323.46 423.28,-329.89"/>
</g>
<!-- ValidatorConfig&#45;&gt;Option -->
<g id="edge83" class="edge">
<title>ValidatorConfig&#45;&gt;Option</title>
<path fill="none" stroke="black" d="M262.99,-363.59C244.57,-355.29 224.62,-342.58 214,-324 203.31,-305.3 204.56,-280.57 207.91,-261.93"/>
<polygon fill="black" stroke="black" points="211.37,-262.51 210,-252.01 204.52,-261.08 211.37,-262.51"/>
</g>
<!-- Signature -->
<g id="node30" class="node">
<title>Signature</title>
<ellipse fill="none" stroke="black" cx="780" cy="-306" rx="44.39" ry="18"/>
<text text-anchor="middle" x="780" y="-302.3" font-family="Times,serif" font-size="14.00">Signature</text>
</g>
<!-- ValidatorConfig&#45;&gt;Signature -->
<g id="edge80" class="edge">
<title>ValidatorConfig&#45;&gt;Signature</title>
<path fill="none" stroke="black" d="M363.01,-369.45C437.81,-359.73 570.67,-341.93 684,-324 699.08,-321.61 715.45,-318.8 730.33,-316.15"/>
<polygon fill="black" stroke="black" points="731.13,-319.57 740.35,-314.36 729.89,-312.68 731.13,-319.57"/>
</g>
<!-- VASP&#45;&gt;Signer -->
<g id="edge84" class="edge">
<title>VASP&#45;&gt;Signer</title>
<path fill="none" stroke="black" d="M1079.57,-360.78C1054.23,-319.17 995.5,-207.43 1051,-144 1090.72,-98.61 1260.75,-119.24 1320,-108 1385.66,-95.55 1400.02,-82.66 1466,-72 1700.79,-34.05 1986.31,-22.95 2094.04,-19.99"/>
<polygon fill="black" stroke="black" points="2094.3,-23.48 2104.21,-19.72 2094.12,-16.49 2094.3,-23.48"/>
</g>
<!-- VASP&#45;&gt;Errors -->
<g id="edge85" class="edge">
<title>VASP&#45;&gt;Errors</title>
<path fill="none" stroke="black" d="M1066.26,-365.54C1050.63,-356.6 1031.39,-342.57 1022,-324 985.88,-252.59 978.31,-213.48 1018,-144 1055.08,-79.09 1140.49,-44.52 1190.85,-29.14"/>
<polygon fill="black" stroke="black" points="1192.13,-32.41 1200.74,-26.23 1190.15,-25.69 1192.13,-32.41"/>
</g>
<!-- VASP&#45;&gt;DiemTimestamp -->
<g id="edge86" class="edge">
<title>VASP&#45;&gt;DiemTimestamp</title>
<path fill="none" stroke="black" d="M1088.07,-359.58C1085.34,-329.5 1082.29,-266.21 1098,-216 1101,-206.43 1106.14,-196.85 1111.48,-188.52"/>
<polygon fill="black" stroke="black" points="1114.53,-190.27 1117.27,-180.04 1108.74,-186.33 1114.53,-190.27"/>
</g>
<!-- VASP&#45;&gt;Roles -->
<g id="edge87" class="edge">
<title>VASP&#45;&gt;Roles</title>
<path fill="none" stroke="black" d="M1114.77,-366.21C1172.72,-340.97 1317.15,-278.06 1382.7,-249.5"/>
<polygon fill="black" stroke="black" points="1384.38,-252.59 1392.15,-245.39 1381.59,-246.17 1384.38,-252.59"/>
</g>
<!-- VASP&#45;&gt;AccountLimits -->
<g id="edge88" class="edge">
<title>VASP&#45;&gt;AccountLimits</title>
<path fill="none" stroke="black" d="M1064.03,-367.12C1034.96,-356.06 987.31,-337.93 951.92,-324.47"/>
<polygon fill="black" stroke="black" points="952.88,-321.09 942.29,-320.81 950.39,-327.63 952.88,-321.09"/>
</g>
<!-- TransactionFee&#45;&gt;Errors -->
<g id="edge89" class="edge">
<title>TransactionFee&#45;&gt;Errors</title>
<path fill="none" stroke="black" d="M1228.43,-591.81C976.83,-585.45 76,-546.02 76,-307 76,-307 76,-307 76,-161 76,-103.79 116.45,-94.63 169,-72 263.56,-31.28 1000.35,-21.27 1187.09,-19.38"/>
<polygon fill="black" stroke="black" points="1187.37,-22.88 1197.34,-19.28 1187.3,-15.88 1187.37,-22.88"/>
</g>
<!-- TransactionFee&#45;&gt;CoreAddresses -->
<g id="edge90" class="edge">
<title>TransactionFee&#45;&gt;CoreAddresses</title>
<path fill="none" stroke="black" d="M1322.41,-577.77C1341.26,-567.68 1366.03,-553.8 1387,-540 1475.2,-481.93 1501.61,-470.95 1576,-396 1604.18,-367.61 1607.16,-356.84 1630,-324 1681.31,-250.23 1737.61,-160.06 1764.29,-116.7"/>
<polygon fill="black" stroke="black" points="1767.42,-118.29 1769.67,-107.94 1761.46,-114.63 1767.42,-118.29"/>
</g>
<!-- TransactionFee&#45;&gt;DiemTimestamp -->
<g id="edge91" class="edge">
<title>TransactionFee&#45;&gt;DiemTimestamp</title>
<path fill="none" stroke="black" d="M1230.49,-588.98C1144.67,-582.66 985.86,-568.12 853,-540 733.92,-514.79 594,-572.72 594,-451 594,-451 594,-451 594,-377 594,-312.72 651.98,-319.52 708,-288 710.46,-286.62 895.3,-216.81 898,-216 953.69,-199.2 1018.27,-184.91 1065.3,-175.41"/>
<polygon fill="black" stroke="black" points="1066.24,-178.79 1075.36,-173.4 1064.86,-171.93 1066.24,-178.79"/>
</g>
<!-- TransactionFee&#45;&gt;Roles -->
<g id="edge92" class="edge">
<title>TransactionFee&#45;&gt;Roles</title>
<path fill="none" stroke="black" d="M1288.94,-575.93C1286.69,-565.6 1284.13,-552.12 1283,-540 1275.46,-459.32 1283.2,-435.74 1312,-360 1325.17,-325.37 1330.25,-316.44 1354,-288 1364.23,-275.76 1377.46,-264.02 1389.07,-254.72"/>
<polygon fill="black" stroke="black" points="1391.44,-257.32 1397.17,-248.41 1387.13,-251.8 1391.44,-257.32"/>
</g>
<!-- TransactionFee&#45;&gt;Diem -->
<g id="edge93" class="edge">
<title>TransactionFee&#45;&gt;Diem</title>
<path fill="none" stroke="black" d="M1316.57,-576.99C1329.93,-567.24 1346.43,-553.99 1359,-540 1376.52,-520.5 1392.24,-495.05 1402.71,-476.36"/>
<polygon fill="black" stroke="black" points="1405.81,-477.98 1407.55,-467.53 1399.67,-474.61 1405.81,-477.98"/>
</g>
<!-- TransactionFee&#45;&gt;XUS -->
<g id="edge94" class="edge">
<title>TransactionFee&#45;&gt;XUS</title>
<path fill="none" stroke="black" d="M1299.78,-576.05C1303.01,-567.97 1306.95,-558.12 1310.56,-549.11"/>
<polygon fill="black" stroke="black" points="1313.82,-550.37 1314.28,-539.79 1307.32,-547.77 1313.82,-550.37"/>
</g>
<!-- TransactionFee&#45;&gt;XDX -->
<g id="edge95" class="edge">
<title>TransactionFee&#45;&gt;XDX</title>
<path fill="none" stroke="black" d="M1239.34,-583.63C1157.16,-569.29 1002.13,-542.22 930.31,-529.69"/>
<polygon fill="black" stroke="black" points="930.79,-526.22 920.33,-527.95 929.58,-533.11 930.79,-526.22"/>
</g>
<!-- DualAttestation&#45;&gt;Signer -->
<g id="edge96" class="edge">
<title>DualAttestation&#45;&gt;Signer</title>
<path fill="none" stroke="black" d="M1910.42,-576.66C1921.67,-566.9 1935.28,-553.75 1945,-540 2062.51,-373.79 2117.43,-127.58 2133.1,-46.2"/>
<polygon fill="black" stroke="black" points="2136.56,-46.73 2134.98,-36.26 2129.69,-45.44 2136.56,-46.73"/>
</g>
<!-- DualAttestation&#45;&gt;Errors -->
<g id="edge97" class="edge">
<title>DualAttestation&#45;&gt;Errors</title>
<path fill="none" stroke="black" d="M1895.7,-575.79C1918.82,-502.37 1997.69,-212.62 1853,-72 1811.5,-31.67 1406.93,-21.75 1272.89,-19.57"/>
<polygon fill="black" stroke="black" points="1272.66,-16.06 1262.61,-19.41 1272.55,-23.06 1272.66,-16.06"/>
</g>
<!-- DualAttestation&#45;&gt;CoreAddresses -->
<g id="edge98" class="edge">
<title>DualAttestation&#45;&gt;CoreAddresses</title>
<path fill="none" stroke="black" d="M1889.34,-575.72C1886.88,-521.59 1876.32,-350.84 1837,-216 1826.63,-180.42 1807.85,-141.99 1794.69,-117.27"/>
<polygon fill="black" stroke="black" points="1797.61,-115.32 1789.78,-108.19 1791.46,-118.65 1797.61,-115.32"/>
</g>
<!-- DualAttestation&#45;&gt;DiemTimestamp -->
<g id="edge99" class="edge">
<title>DualAttestation&#45;&gt;DiemTimestamp</title>
<path fill="none" stroke="black" d="M1876.94,-576.02C1828.83,-514.89 1654.01,-304.97 1456,-216 1378,-180.95 1280.2,-168.77 1212.37,-164.69"/>
<polygon fill="black" stroke="black" points="1212.34,-161.19 1202.16,-164.13 1211.96,-168.17 1212.34,-161.19"/>
</g>
<!-- DualAttestation&#45;&gt;Roles -->
<g id="edge101" class="edge">
<title>DualAttestation&#45;&gt;Roles</title>
<path fill="none" stroke="black" d="M1868.75,-576.92C1808.64,-531.41 1638.06,-402.31 1582,-360 1532.83,-322.89 1475.41,-279.68 1442.61,-255.01"/>
<polygon fill="black" stroke="black" points="1444.53,-252.07 1434.43,-248.86 1440.32,-257.67 1444.53,-252.07"/>
</g>
<!-- DualAttestation&#45;&gt;Vector -->
<g id="edge102" class="edge">
<title>DualAttestation&#45;&gt;Vector</title>
<path fill="none" stroke="black" d="M1902.78,-576.11C1909.87,-566.06 1918.37,-552.81 1924,-540 1978.11,-416.93 1994.12,-254.23 1998.49,-190.38"/>
<polygon fill="black" stroke="black" points="2001.98,-190.52 1999.13,-180.32 1995,-190.07 2001.98,-190.52"/>
</g>
<!-- DualAttestation&#45;&gt;BCS -->
<g id="edge103" class="edge">
<title>DualAttestation&#45;&gt;BCS</title>
<path fill="none" stroke="black" d="M1928.85,-579.32C1951.1,-570.31 1978.73,-557.02 2000,-540 2138.46,-429.15 2130.62,-360.84 2233,-216 2239.86,-206.3 2247.68,-195.82 2254.57,-186.76"/>
<polygon fill="black" stroke="black" points="2257.53,-188.65 2260.84,-178.58 2251.98,-184.39 2257.53,-188.65"/>
</g>
<!-- DualAttestation&#45;&gt;Event -->
<g id="edge104" class="edge">
<title>DualAttestation&#45;&gt;Event</title>
<path fill="none" stroke="black" d="M1941.53,-582.59C1988.83,-572.28 2054.68,-555.79 2076,-540 2128.27,-501.29 2224.27,-326.82 2259.54,-260.6"/>
<polygon fill="black" stroke="black" points="2262.7,-262.12 2264.29,-251.64 2256.52,-258.84 2262.7,-262.12"/>
</g>
<!-- DualAttestation&#45;&gt;Diem -->
<g id="edge105" class="edge">
<title>DualAttestation&#45;&gt;Diem</title>
<path fill="none" stroke="black" d="M1845.42,-580.58C1815.73,-571.42 1776.37,-557.51 1744,-540 1720.55,-527.31 1720.4,-514.76 1696,-504 1615.83,-468.65 1512.59,-456.85 1456.56,-452.93"/>
<polygon fill="black" stroke="black" points="1456.54,-449.42 1446.34,-452.26 1456.09,-456.4 1456.54,-449.42"/>
</g>
<!-- DualAttestation&#45;&gt;XDX -->
<g id="edge106" class="edge">
<title>DualAttestation&#45;&gt;XDX</title>
<path fill="none" stroke="black" d="M1826.43,-588.54C1637.97,-575.32 1085.81,-536.59 932.11,-525.81"/>
<polygon fill="black" stroke="black" points="931.97,-522.29 921.75,-525.09 931.48,-529.28 931.97,-522.29"/>
</g>
<!-- DualAttestation&#45;&gt;VASP -->
<g id="edge107" class="edge">
<title>DualAttestation&#45;&gt;VASP</title>
<path fill="none" stroke="black" d="M1840.11,-581.97C1747.97,-561.35 1545.05,-514.81 1376,-468 1285.65,-442.98 1180.72,-409.06 1126.55,-391.19"/>
<polygon fill="black" stroke="black" points="1127.63,-387.86 1117.04,-388.04 1125.44,-394.51 1127.63,-387.86"/>
</g>
<!-- DualAttestation&#45;&gt;Signature -->
<g id="edge100" class="edge">
<title>DualAttestation&#45;&gt;Signature</title>
<path fill="none" stroke="black" d="M1834.24,-584.16C1697.7,-561.62 1336.72,-496.56 1049,-396 1013.72,-383.67 1008.15,-372.71 973,-360 912.58,-338.15 894.73,-341.82 833,-324 829.7,-323.05 826.29,-322.03 822.87,-320.99"/>
<polygon fill="black" stroke="black" points="823.86,-317.63 813.27,-318 821.78,-324.31 823.86,-317.63"/>
</g>
<!-- DiemTransactionPublishingOption&#45;&gt;Signer -->
<g id="edge108" class="edge">
<title>DiemTransactionPublishingOption&#45;&gt;Signer</title>
<path fill="none" stroke="black" d="M2650.05,-369.85C2738.7,-357.29 2844,-323.7 2844,-235 2844,-235 2844,-235 2844,-161 2844,-120.03 2851.53,-98.16 2820,-72 2771.01,-31.36 2325.78,-21.62 2182.32,-19.52"/>
<polygon fill="black" stroke="black" points="2182.18,-16.02 2172.13,-19.38 2182.08,-23.02 2182.18,-16.02"/>
</g>
<!-- DiemTransactionPublishingOption&#45;&gt;Errors -->
<g id="edge109" class="edge">
<title>DiemTransactionPublishingOption&#45;&gt;Errors</title>
<path fill="none" stroke="black" d="M2609.91,-363.45C2679.05,-346.6 2768,-310.3 2768,-235 2768,-235 2768,-235 2768,-161 2768,61.65 2496.19,-97.47 2275,-72 1887.67,-27.4 1415.28,-20.33 1272.71,-19.21"/>
<polygon fill="black" stroke="black" points="1272.66,-15.71 1262.63,-19.14 1272.6,-22.71 1272.66,-15.71"/>
</g>
<!-- DiemTransactionPublishingOption&#45;&gt;CoreAddresses -->
<g id="edge110" class="edge">
<title>DiemTransactionPublishingOption&#45;&gt;CoreAddresses</title>
<path fill="none" stroke="black" d="M2614.49,-363.98C2637.19,-356.19 2659.24,-343.78 2673,-324 2682.14,-310.87 2681.03,-301.84 2673,-288 2608.25,-176.43 2544.2,-182.22 2421,-144 2316.78,-111.67 1998.11,-97.81 1853.16,-93.07"/>
<polygon fill="black" stroke="black" points="1853.13,-89.56 1843.03,-92.74 1852.91,-96.56 1853.13,-89.56"/>
</g>
<!-- DiemTransactionPublishingOption&#45;&gt;DiemTimestamp -->
<g id="edge111" class="edge">
<title>DiemTransactionPublishingOption&#45;&gt;DiemTimestamp</title>
<path fill="none" stroke="black" d="M2406.83,-370.91C2235.96,-359.87 1918.8,-329.94 1660,-252 1624.21,-241.22 1619.93,-226.31 1584,-216 1457.45,-179.69 1304.2,-168.19 1212.31,-164.59"/>
<polygon fill="black" stroke="black" points="1212.36,-161.09 1202.24,-164.21 1212.1,-168.08 1212.36,-161.09"/>
</g>
<!-- DiemTransactionPublishingOption&#45;&gt;Roles -->
<g id="edge112" class="edge">
<title>DiemTransactionPublishingOption&#45;&gt;Roles</title>
<path fill="none" stroke="black" d="M2404.73,-371.62C2269.4,-364.76 2047.65,-350.48 1858,-324 1706.95,-302.91 1529.8,-262.37 1453.77,-244.2"/>
<polygon fill="black" stroke="black" points="1454.27,-240.72 1443.73,-241.79 1452.63,-247.53 1454.27,-240.72"/>
</g>
<!-- DiemTransactionPublishingOption&#45;&gt;Vector -->
<g id="edge113" class="edge">
<title>DiemTransactionPublishingOption&#45;&gt;Vector</title>
<path fill="none" stroke="black" d="M2469.08,-361.85C2433.12,-352.3 2386.96,-338.96 2347,-324 2227.74,-279.36 2092.47,-211.27 2032.07,-179.9"/>
<polygon fill="black" stroke="black" points="2033.52,-176.71 2023.03,-175.19 2030.28,-182.92 2033.52,-176.71"/>
</g>
<!-- DiemTransactionPublishingOption&#45;&gt;DiemConfig -->
<g id="edge114" class="edge">
<title>DiemTransactionPublishingOption&#45;&gt;DiemConfig</title>
<path fill="none" stroke="black" d="M2549.12,-360.05C2559.34,-351 2572.06,-339.73 2583.14,-329.91"/>
<polygon fill="black" stroke="black" points="2585.7,-332.32 2590.87,-323.07 2581.06,-327.08 2585.7,-332.32"/>
</g>
<!-- DesignatedDealer&#45;&gt;Signer -->
<g id="edge115" class="edge">
<title>DesignatedDealer&#45;&gt;Signer</title>
<path fill="none" stroke="black" d="M2109.03,-577.92C2124.88,-569.22 2142.22,-556.66 2152,-540 2249.58,-373.78 2181.55,-300.56 2190,-108 2190.7,-92.02 2196.05,-86.81 2190,-72 2184.84,-59.38 2175.08,-48.15 2165.39,-39.3"/>
<polygon fill="black" stroke="black" points="2167.59,-36.59 2157.72,-32.74 2163.04,-41.9 2167.59,-36.59"/>
</g>
<!-- DesignatedDealer&#45;&gt;Errors -->
<g id="edge116" class="edge">
<title>DesignatedDealer&#45;&gt;Errors</title>
<path fill="none" stroke="black" d="M2072.78,-575.93C2069.73,-531.59 2062,-409.13 2062,-307 2062,-307 2062,-307 2062,-233 2062,-192.55 2068.44,-175.44 2043,-144 1993.69,-83.06 1957.93,-91.45 1882,-72 1765.9,-42.25 1398.04,-25.53 1272.48,-20.58"/>
<polygon fill="black" stroke="black" points="1272.6,-17.08 1262.47,-20.19 1272.33,-24.07 1272.6,-17.08"/>
</g>
<!-- DesignatedDealer&#45;&gt;Roles -->
<g id="edge117" class="edge">
<title>DesignatedDealer&#45;&gt;Roles</title>
<path fill="none" stroke="black" d="M2046.87,-577.23C1967.42,-531.22 1728.11,-393.7 1525,-288 1499.47,-274.72 1470.11,-260.5 1448.3,-250.14"/>
<polygon fill="black" stroke="black" points="1449.68,-246.92 1439.15,-245.81 1446.69,-253.25 1449.68,-246.92"/>
</g>
<!-- DesignatedDealer&#45;&gt;Event -->
<g id="edge118" class="edge">
<title>DesignatedDealer&#45;&gt;Event</title>
<path fill="none" stroke="black" d="M2125.08,-580.93C2164.14,-570.72 2213.67,-555.34 2228,-540 2255.97,-510.06 2252,-491.97 2252,-451 2252,-451 2252,-451 2252,-377 2252,-336.56 2260.44,-290.33 2266.62,-261.9"/>
<polygon fill="black" stroke="black" points="2270.08,-262.45 2268.85,-251.93 2263.25,-260.92 2270.08,-262.45"/>
</g>
<!-- DesignatedDealer&#45;&gt;Diem -->
<g id="edge119" class="edge">
<title>DesignatedDealer&#45;&gt;Diem</title>
<path fill="none" stroke="black" d="M2028.67,-579.73C1963.79,-561.05 1840.51,-526.77 1734,-504 1634.61,-482.75 1516.21,-464.98 1455.78,-456.44"/>
<polygon fill="black" stroke="black" points="1455.93,-452.93 1445.54,-455.01 1454.96,-459.86 1455.93,-452.93"/>
</g>
<!-- DesignatedDealer&#45;&gt;XUS -->
<g id="edge120" class="edge">
<title>DesignatedDealer&#45;&gt;XUS</title>
<path fill="none" stroke="black" d="M2015.56,-583.09C1999.23,-580.53 1981.45,-577.96 1965,-576 1736.06,-548.76 1459.67,-531.1 1359.55,-525.19"/>
<polygon fill="black" stroke="black" points="1359.51,-521.68 1349.32,-524.59 1359.1,-528.67 1359.51,-521.68"/>
</g>
<!-- ChainId&#45;&gt;Signer -->
<g id="edge121" class="edge">
<title>ChainId&#45;&gt;Signer</title>
<path fill="none" stroke="black" d="M1811.63,-219.12C1872.49,-181.81 2039.67,-79.29 2108.15,-37.3"/>
<polygon fill="black" stroke="black" points="2110.07,-40.23 2116.76,-32.02 2106.41,-34.27 2110.07,-40.23"/>
</g>
<!-- ChainId&#45;&gt;Errors -->
<g id="edge122" class="edge">
<title>ChainId&#45;&gt;Errors</title>
<path fill="none" stroke="black" d="M1759.73,-221.8C1665.27,-185.63 1368.66,-72.08 1265.66,-32.65"/>
<polygon fill="black" stroke="black" points="1266.62,-29.27 1256.03,-28.96 1264.12,-35.81 1266.62,-29.27"/>
</g>
<!-- ChainId&#45;&gt;CoreAddresses -->
<g id="edge123" class="edge">
<title>ChainId&#45;&gt;CoreAddresses</title>
<path fill="none" stroke="black" d="M1787.91,-215.87C1786.38,-191.67 1783.56,-147.21 1781.74,-118.39"/>
<polygon fill="black" stroke="black" points="1785.22,-117.95 1781.09,-108.19 1778.23,-118.39 1785.22,-117.95"/>
</g>
<!-- ChainId&#45;&gt;DiemTimestamp -->
<g id="edge124" class="edge">
<title>ChainId&#45;&gt;DiemTimestamp</title>
<path fill="none" stroke="black" d="M1754.12,-225.71C1737.23,-222.38 1716.62,-218.6 1698,-216 1524.24,-191.7 1318.92,-175.62 1209.29,-168.04"/>
<polygon fill="black" stroke="black" points="1209.53,-164.55 1199.31,-167.36 1209.05,-171.53 1209.53,-164.55"/>
</g>
<!-- AccountFreezing&#45;&gt;Signer -->
<g id="edge125" class="edge">
<title>AccountFreezing&#45;&gt;Signer</title>
<path fill="none" stroke="black" d="M2447.29,-288.63C2457.39,-279.14 2468.59,-266.26 2474,-252 2479.68,-237.04 2481.19,-230.29 2474,-216 2415.51,-99.75 2255.08,-46.95 2179.03,-27.9"/>
<polygon fill="black" stroke="black" points="2179.42,-24.39 2168.87,-25.43 2177.77,-31.2 2179.42,-24.39"/>
</g>
<!-- AccountFreezing&#45;&gt;Errors -->
<g id="edge126" class="edge">
<title>AccountFreezing&#45;&gt;Errors</title>
<path fill="none" stroke="black" d="M2425.16,-287.76C2422.64,-269.2 2416.98,-239.19 2405,-216 2385.63,-178.48 2378.6,-166.72 2343,-144 2244.09,-80.87 2204.67,-91.73 2089,-72 1779.2,-19.16 1398.59,-17.37 1272.67,-18.41"/>
<polygon fill="black" stroke="black" points="1272.63,-14.91 1262.66,-18.51 1272.69,-21.91 1272.63,-14.91"/>
</g>
<!-- AccountFreezing&#45;&gt;CoreAddresses -->
<g id="edge127" class="edge">
<title>AccountFreezing&#45;&gt;CoreAddresses</title>
<path fill="none" stroke="black" d="M2420.2,-287.91C2405.62,-253.78 2367.83,-177.61 2309,-144 2270.24,-121.85 1987.96,-102.91 1852.35,-94.98"/>
<polygon fill="black" stroke="black" points="1852.24,-91.47 1842.06,-94.38 1851.84,-98.45 1852.24,-91.47"/>
</g>
<!-- AccountFreezing&#45;&gt;DiemTimestamp -->
<g id="edge128" class="edge">
<title>AccountFreezing&#45;&gt;DiemTimestamp</title>
<path fill="none" stroke="black" d="M2356.69,-302.6C2205.96,-296.96 1856.08,-281.1 1741,-252 1702.81,-242.34 1698.08,-226.09 1660,-216 1505.44,-175.04 1317.83,-165.25 1212.67,-163.19"/>
<polygon fill="black" stroke="black" points="1212.5,-159.69 1202.44,-163.01 1212.38,-166.69 1212.5,-159.69"/>
</g>
<!-- AccountFreezing&#45;&gt;Roles -->
<g id="edge129" class="edge">
<title>AccountFreezing&#45;&gt;Roles</title>
<path fill="none" stroke="black" d="M2359.1,-300.3C2164.77,-286.84 1610.55,-248.47 1456.28,-237.79"/>
<polygon fill="black" stroke="black" points="1456.51,-234.3 1446.29,-237.1 1456.03,-241.28 1456.51,-234.3"/>
</g>
<!-- AccountFreezing&#45;&gt;Event -->
<g id="edge130" class="edge">
<title>AccountFreezing&#45;&gt;Event</title>
<path fill="none" stroke="black" d="M2393.96,-289.98C2368.1,-278.23 2332.29,-261.95 2306.35,-250.16"/>
<polygon fill="black" stroke="black" points="2307.48,-246.83 2296.93,-245.88 2304.59,-253.2 2307.48,-246.83"/>
</g>
<!-- FixedPoint32&#45;&gt;Errors -->
<g id="edge131" class="edge">
<title>FixedPoint32&#45;&gt;Errors</title>
<path fill="none" stroke="black" d="M848.28,-375.68C714.73,-372.03 393.3,-359.6 361,-324 350.25,-312.15 353.3,-302.03 361,-288 450.93,-124.07 543.21,-126.71 722,-72 808.79,-45.44 1081.64,-27.47 1187.46,-21.33"/>
<polygon fill="black" stroke="black" points="1187.98,-24.81 1197.76,-20.74 1187.58,-17.82 1187.98,-24.81"/>
</g>
<!-- RegisteredCurrencies&#45;&gt;Errors -->
<g id="edge132" class="edge">
<title>RegisteredCurrencies&#45;&gt;Errors</title>
<path fill="none" stroke="black" d="M1407.03,-359.73C1376.88,-301.71 1279.1,-113.5 1243.29,-44.59"/>
<polygon fill="black" stroke="black" points="1246.38,-42.94 1238.67,-35.68 1240.17,-46.17 1246.38,-42.94"/>
</g>
<!-- RegisteredCurrencies&#45;&gt;DiemTimestamp -->
<g id="edge133" class="edge">
<title>RegisteredCurrencies&#45;&gt;DiemTimestamp</title>
<path fill="none" stroke="black" d="M1369.31,-362.81C1343.99,-353.89 1312.89,-340.86 1288,-324 1230.48,-285.05 1177.08,-222.47 1149.85,-187.92"/>
<polygon fill="black" stroke="black" points="1152.41,-185.52 1143.51,-179.78 1146.89,-189.82 1152.41,-185.52"/>
</g>
<!-- RegisteredCurrencies&#45;&gt;Roles -->
<g id="edge134" class="edge">
<title>RegisteredCurrencies&#45;&gt;Roles</title>
<path fill="none" stroke="black" d="M1416,-359.87C1416,-335.67 1416,-291.21 1416,-262.39"/>
<polygon fill="black" stroke="black" points="1419.5,-262.19 1416,-252.19 1412.5,-262.19 1419.5,-262.19"/>
</g>
<!-- RegisteredCurrencies&#45;&gt;Vector -->
<g id="edge135" class="edge">
<title>RegisteredCurrencies&#45;&gt;Vector</title>
<path fill="none" stroke="black" d="M1472.46,-364.27C1554.5,-344.87 1710.64,-304.56 1837,-252 1885.5,-231.83 1938.28,-201.28 1970.26,-181.74"/>
<polygon fill="black" stroke="black" points="1972.42,-184.52 1979.09,-176.3 1968.74,-178.56 1972.42,-184.52"/>
</g>
<!-- RegisteredCurrencies&#45;&gt;DiemConfig -->
<g id="edge136" class="edge">
<title>RegisteredCurrencies&#45;&gt;DiemConfig</title>
<path fill="none" stroke="black" d="M1502.19,-376.22C1686.89,-373.81 2134.37,-363.97 2507,-324 2522.01,-322.39 2538.17,-320 2553.09,-317.52"/>
<polygon fill="black" stroke="black" points="2553.93,-320.93 2563.2,-315.8 2552.76,-314.03 2553.93,-320.93"/>
</g>
</g>
</svg>
