<?xml version="1.0" encoding="UTF-8" standalone="no"?>
<!DOCTYPE svg PUBLIC "-//W3C//DTD SVG 1.1//EN"
 "http://www.w3.org/Graphics/SVG/1.1/DTD/svg11.dtd">
<!-- Generated by graphviz version 2.46.1 (20210213.1702)
 -->
<!-- Title: G Pages: 1 -->
<svg width="1189pt" height="448pt"
 viewBox="0.00 0.00 1189.00 448.00" xmlns="http://www.w3.org/2000/svg" xmlns:xlink="http://www.w3.org/1999/xlink">
<g id="graph0" class="graph" transform="scale(1 1) rotate(0) translate(4 444)">
<title>G</title>
<polygon fill="white" stroke="transparent" points="-4,4 -4,-444 1185,-444 1185,4 -4,4"/>
<g id="clust1" class="cluster">
<title>cluster_SharedEd25519PublicKey</title>
<polygon fill="none" stroke="black" points="384,-246 384,-396 606,-396 606,-246 384,-246"/>
<text text-anchor="middle" x="495" y="-380.8" font-family="Times,serif" font-size="14.00">SharedEd25519PublicKey</text>
</g>
<g id="clust2" class="cluster">
<title>cluster_Signer</title>
<polygon fill="none" stroke="black" points="1023,-163 1023,-321 1173,-321 1173,-163 1023,-163"/>
<text text-anchor="middle" x="1098" y="-305.8" font-family="Times,serif" font-size="14.00">Signer</text>
</g>
<g id="clust3" class="cluster">
<title>cluster_Errors</title>
<polygon fill="none" stroke="black" points="8,-8 8,-155 309,-155 309,-8 8,-8"/>
<text text-anchor="middle" x="158.5" y="-139.8" font-family="Times,serif" font-size="14.00">Errors</text>
</g>
<g id="clust4" class="cluster">
<title>cluster_Signature</title>
<polygon fill="none" stroke="black" points="793,-163 793,-238 1015,-238 1015,-163 793,-163"/>
<text text-anchor="middle" x="904" y="-222.8" font-family="Times,serif" font-size="14.00">Signature</text>
</g>
<g id="clust5" class="cluster">
<title>cluster_DiemAccount</title>
<polygon fill="none" stroke="black" points="317,-80 317,-238 537,-238 537,-80 317,-80"/>
<text text-anchor="middle" x="427" y="-222.8" font-family="Times,serif" font-size="14.00">DiemAccount</text>
</g>
<g id="clust6" class="cluster">
<title>cluster_Authenticator</title>
<polygon fill="none" stroke="black" points="545,-163 545,-238 785,-238 785,-163 545,-163"/>
<text text-anchor="middle" x="665" y="-222.8" font-family="Times,serif" font-size="14.00">Authenticator</text>
</g>
<g id="clust7" class="cluster">
<title>cluster_Vector</title>
<polygon fill="none" stroke="black" points="545,-80 545,-155 740,-155 740,-80 545,-80"/>
<text text-anchor="middle" x="642.5" y="-139.8" font-family="Times,serif" font-size="14.00">Vector</text>
</g>
<g id="clust8" class="cluster">
<title>cluster_Hash</title>
<polygon fill="none" stroke="black" points="748,-80 748,-155 852,-155 852,-80 748,-80"/>
<text text-anchor="middle" x="800" y="-139.8" font-family="Times,serif" font-size="14.00">Hash</text>
</g>
<!-- rotate_shared_ed25519_public_key -->
<g id="node1" class="node">
<title>rotate_shared_ed25519_public_key</title>
<ellipse fill="none" stroke="black" cx="493" cy="-422" rx="135.68" ry="18"/>
<text text-anchor="middle" x="493" y="-418.3" font-family="Times,serif" font-size="14.00">rotate_shared_ed25519_public_key</text>
</g>
<!-- SharedEd25519PublicKey::rotate_key -->
<g id="node2" class="node">
<title>SharedEd25519PublicKey::rotate_key</title>
<ellipse fill="none" stroke="black" cx="493" cy="-347" rx="48.19" ry="18"/>
<text text-anchor="middle" x="493" y="-343.3" font-family="Times,serif" font-size="14.00">rotate_key</text>
</g>
<!-- rotate_shared_ed25519_public_key&#45;&gt;SharedEd25519PublicKey::rotate_key -->
<g id="edge1" class="edge">
<title>rotate_shared_ed25519_public_key&#45;&gt;SharedEd25519PublicKey::rotate_key</title>
<path fill="none" stroke="black" d="M493,-403.7C493,-395.25 493,-384.87 493,-375.37"/>
<polygon fill="black" stroke="black" points="496.5,-375.18 493,-365.18 489.5,-375.18 496.5,-375.18"/>
</g>
<!-- Signer::address_of -->
<g id="node3" class="node">
<title>Signer::address_of</title>
<ellipse fill="none" stroke="black" cx="1089" cy="-272" rx="48.99" ry="18"/>
<text text-anchor="middle" x="1089" y="-268.3" font-family="Times,serif" font-size="14.00">address_of</text>
</g>
<!-- SharedEd25519PublicKey::rotate_key&#45;&gt;Signer::address_of -->
<g id="edge2" class="edge">
<title>SharedEd25519PublicKey::rotate_key&#45;&gt;Signer::address_of</title>
<path fill="none" stroke="black" d="M538.29,-340.45C645.74,-327.29 915.87,-294.21 1033.18,-279.84"/>
<polygon fill="black" stroke="black" points="1033.87,-283.28 1043.37,-278.59 1033.02,-276.33 1033.87,-283.28"/>
</g>
<!-- Errors::not_published -->
<g id="node4" class="node">
<title>Errors::not_published</title>
<ellipse fill="none" stroke="black" cx="76" cy="-106" rx="60.39" ry="18"/>
<text text-anchor="middle" x="76" y="-102.3" font-family="Times,serif" font-size="14.00">not_published</text>
</g>
<!-- SharedEd25519PublicKey::rotate_key&#45;&gt;Errors::not_published -->
<g id="edge3" class="edge">
<title>SharedEd25519PublicKey::rotate_key&#45;&gt;Errors::not_published</title>
<path fill="none" stroke="black" d="M449.17,-339.42C428.61,-335.48 404.05,-329.55 383,-321 266.39,-273.65 150.47,-175.42 100.97,-130.43"/>
<polygon fill="black" stroke="black" points="103.07,-127.61 93.33,-123.43 98.34,-132.77 103.07,-127.61"/>
</g>
<!-- SharedEd25519PublicKey::exists_at -->
<g id="node5" class="node">
<title>SharedEd25519PublicKey::exists_at</title>
<ellipse fill="none" stroke="black" cx="434" cy="-272" rx="41.69" ry="18"/>
<text text-anchor="middle" x="434" y="-268.3" font-family="Times,serif" font-size="14.00">exists_at</text>
</g>
<!-- SharedEd25519PublicKey::rotate_key&#45;&gt;SharedEd25519PublicKey::exists_at -->
<g id="edge4" class="edge">
<title>SharedEd25519PublicKey::rotate_key&#45;&gt;SharedEd25519PublicKey::exists_at</title>
<path fill="none" stroke="black" d="M479.61,-329.44C471.94,-319.94 462.17,-307.85 453.64,-297.3"/>
<polygon fill="black" stroke="black" points="456.14,-294.83 447.13,-289.25 450.7,-299.23 456.14,-294.83"/>
</g>
<!-- SharedEd25519PublicKey::rotate_key_ -->
<g id="node6" class="node">
<title>SharedEd25519PublicKey::rotate_key_</title>
<ellipse fill="none" stroke="black" cx="546" cy="-272" rx="51.99" ry="18"/>
<text text-anchor="middle" x="546" y="-268.3" font-family="Times,serif" font-size="14.00">rotate_key_</text>
</g>
<!-- SharedEd25519PublicKey::rotate_key&#45;&gt;SharedEd25519PublicKey::rotate_key_ -->
<g id="edge5" class="edge">
<title>SharedEd25519PublicKey::rotate_key&#45;&gt;SharedEd25519PublicKey::rotate_key_</title>
<path fill="none" stroke="black" d="M505.03,-329.44C511.76,-320.17 520.28,-308.43 527.81,-298.06"/>
<polygon fill="black" stroke="black" points="530.79,-299.9 533.84,-289.75 525.13,-295.79 530.79,-299.9"/>
</g>
<!-- Signer::borrow_address -->
<g id="node7" class="node">
<title>Signer::borrow_address</title>
<ellipse fill="none" stroke="black" cx="1098" cy="-189" rx="66.89" ry="18"/>
<text text-anchor="middle" x="1098" y="-185.3" font-family="Times,serif" font-size="14.00">borrow_address</text>
</g>
<!-- Signer::address_of&#45;&gt;Signer::borrow_address -->
<g id="edge6" class="edge">
<title>Signer::address_of&#45;&gt;Signer::borrow_address</title>
<path fill="none" stroke="black" d="M1090.91,-253.82C1092.09,-243.19 1093.63,-229.31 1094.98,-217.2"/>
<polygon fill="black" stroke="black" points="1098.47,-217.48 1096.09,-207.15 1091.51,-216.71 1098.47,-217.48"/>
</g>
<!-- Errors::make -->
<g id="node8" class="node">
<title>Errors::make</title>
<ellipse fill="none" stroke="black" cx="152" cy="-34" rx="30.59" ry="18"/>
<text text-anchor="middle" x="152" y="-30.3" font-family="Times,serif" font-size="14.00">make</text>
</g>
<!-- Errors::not_published&#45;&gt;Errors::make -->
<g id="edge7" class="edge">
<title>Errors::not_published&#45;&gt;Errors::make</title>
<path fill="none" stroke="black" d="M93.63,-88.76C104.1,-79.12 117.51,-66.77 128.83,-56.34"/>
<polygon fill="black" stroke="black" points="131.29,-58.83 136.28,-49.48 126.55,-53.68 131.29,-58.83"/>
</g>
<!-- Errors::invalid_argument -->
<g id="node9" class="node">
<title>Errors::invalid_argument</title>
<ellipse fill="none" stroke="black" cx="228" cy="-106" rx="73.39" ry="18"/>
<text text-anchor="middle" x="228" y="-102.3" font-family="Times,serif" font-size="14.00">invalid_argument</text>
</g>
<!-- SharedEd25519PublicKey::rotate_key_&#45;&gt;Errors::invalid_argument -->
<g id="edge8" class="edge">
<title>SharedEd25519PublicKey::rotate_key_&#45;&gt;Errors::invalid_argument</title>
<path fill="none" stroke="black" d="M517.18,-256.82C507.22,-252.57 495.84,-248.4 485,-246 466.32,-241.87 329.59,-247.52 313,-238 273.07,-215.09 248.71,-164.94 236.84,-133.76"/>
<polygon fill="black" stroke="black" points="239.99,-132.19 233.29,-123.98 233.41,-134.58 239.99,-132.19"/>
</g>
<!-- Signature::ed25519_validate_pubkey -->
<g id="node10" class="node">
<title>Signature::ed25519_validate_pubkey</title>
<ellipse fill="none" stroke="black" cx="904" cy="-189" rx="103.18" ry="18"/>
<text text-anchor="middle" x="904" y="-185.3" font-family="Times,serif" font-size="14.00">ed25519_validate_pubkey</text>
</g>
<!-- SharedEd25519PublicKey::rotate_key_&#45;&gt;Signature::ed25519_validate_pubkey -->
<g id="edge9" class="edge">
<title>SharedEd25519PublicKey::rotate_key_&#45;&gt;Signature::ed25519_validate_pubkey</title>
<path fill="none" stroke="black" d="M597.03,-267.95C646.73,-264.07 724.08,-255.63 789,-238 814.1,-231.18 840.98,-220.18 862.44,-210.43"/>
<polygon fill="black" stroke="black" points="863.98,-213.58 871.59,-206.21 861.04,-207.23 863.98,-213.58"/>
</g>
<!-- DiemAccount::rotate_authentication_key -->
<g id="node11" class="node">
<title>DiemAccount::rotate_authentication_key</title>
<ellipse fill="none" stroke="black" cx="427" cy="-189" rx="102.08" ry="18"/>
<text text-anchor="middle" x="427" y="-185.3" font-family="Times,serif" font-size="14.00">rotate_authentication_key</text>
</g>
<!-- SharedEd25519PublicKey::rotate_key_&#45;&gt;DiemAccount::rotate_authentication_key -->
<g id="edge10" class="edge">
<title>SharedEd25519PublicKey::rotate_key_&#45;&gt;DiemAccount::rotate_authentication_key</title>
<path fill="none" stroke="black" d="M523.34,-255.57C505.4,-243.36 480.1,-226.14 459.92,-212.41"/>
<polygon fill="black" stroke="black" points="461.87,-209.5 451.63,-206.76 457.93,-215.29 461.87,-209.5"/>
</g>
<!-- Authenticator::ed25519_authentication_key -->
<g id="node12" class="node">
<title>Authenticator::ed25519_authentication_key</title>
<ellipse fill="none" stroke="black" cx="665" cy="-189" rx="112.38" ry="18"/>
<text text-anchor="middle" x="665" y="-185.3" font-family="Times,serif" font-size="14.00">ed25519_authentication_key</text>
</g>
<!-- SharedEd25519PublicKey::rotate_key_&#45;&gt;Authenticator::ed25519_authentication_key -->
<g id="edge11" class="edge">
<title>SharedEd25519PublicKey::rotate_key_&#45;&gt;Authenticator::ed25519_authentication_key</title>
<path fill="none" stroke="black" d="M568.66,-255.57C586.6,-243.36 611.9,-226.14 632.08,-212.41"/>
<polygon fill="black" stroke="black" points="634.07,-215.29 640.37,-206.76 630.13,-209.5 634.07,-215.29"/>
</g>
<!-- Errors::invalid_argument&#45;&gt;Errors::make -->
<g id="edge12" class="edge">
<title>Errors::invalid_argument&#45;&gt;Errors::make</title>
<path fill="none" stroke="black" d="M209.99,-88.41C199.57,-78.82 186.36,-66.65 175.18,-56.35"/>
<polygon fill="black" stroke="black" points="177.55,-53.77 167.82,-49.57 172.8,-58.92 177.55,-53.77"/>
</g>
<!-- DiemAccount::rotate_authentication_key&#45;&gt;Errors::not_published -->
<g id="edge14" class="edge">
<title>DiemAccount::rotate_authentication_key&#45;&gt;Errors::not_published</title>
<path fill="none" stroke="black" d="M338.98,-179.8C263.39,-172.41 163.85,-161.7 146,-155 130.31,-149.11 114.74,-138.98 102.28,-129.54"/>
<polygon fill="black" stroke="black" points="104.22,-126.6 94.2,-123.17 99.89,-132.11 104.22,-126.6"/>
</g>
<!-- DiemAccount::rotate_authentication_key&#45;&gt;Errors::invalid_argument -->
<g id="edge13" class="edge">
<title>DiemAccount::rotate_authentication_key&#45;&gt;Errors::invalid_argument</title>
<path fill="none" stroke="black" d="M369.27,-174.1C350.97,-168.95 330.85,-162.51 313,-155 295.37,-147.59 276.76,-137.38 261.47,-128.29"/>
<polygon fill="black" stroke="black" points="263.25,-125.27 252.88,-123.09 259.63,-131.26 263.25,-125.27"/>
</g>
<!-- Vector::length -->
<g id="node13" class="node">
<title>Vector::length</title>
<ellipse fill="none" stroke="black" cx="585" cy="-106" rx="32.49" ry="18"/>
<text text-anchor="middle" x="585" y="-102.3" font-family="Times,serif" font-size="14.00">length</text>
</g>
<!-- DiemAccount::rotate_authentication_key&#45;&gt;Vector::length -->
<g id="edge15" class="edge">
<title>DiemAccount::rotate_authentication_key&#45;&gt;Vector::length</title>
<path fill="none" stroke="black" d="M493.51,-175.33C509.79,-170.49 526.64,-163.91 541,-155 551.05,-148.77 560.23,-139.62 567.57,-130.97"/>
<polygon fill="black" stroke="black" points="570.48,-132.94 574.02,-122.95 565.03,-128.55 570.48,-132.94"/>
</g>
<!-- DiemAccount::exists_at -->
<g id="node14" class="node">
<title>DiemAccount::exists_at</title>
<ellipse fill="none" stroke="black" cx="427" cy="-106" rx="41.69" ry="18"/>
<text text-anchor="middle" x="427" y="-102.3" font-family="Times,serif" font-size="14.00">exists_at</text>
</g>
<!-- DiemAccount::rotate_authentication_key&#45;&gt;DiemAccount::exists_at -->
<g id="edge16" class="edge">
<title>DiemAccount::rotate_authentication_key&#45;&gt;DiemAccount::exists_at</title>
<path fill="none" stroke="black" d="M427,-170.82C427,-160.19 427,-146.31 427,-134.2"/>
<polygon fill="black" stroke="black" points="430.5,-134.15 427,-124.15 423.5,-134.15 430.5,-134.15"/>
</g>
<!-- Vector::push_back -->
<g id="node15" class="node">
<title>Vector::push_back</title>
<ellipse fill="none" stroke="black" cx="684" cy="-106" rx="48.19" ry="18"/>
<text text-anchor="middle" x="684" y="-102.3" font-family="Times,serif" font-size="14.00">push_back</text>
</g>
<!-- Authenticator::ed25519_authentication_key&#45;&gt;Vector::push_back -->
<g id="edge17" class="edge">
<title>Authenticator::ed25519_authentication_key&#45;&gt;Vector::push_back</title>
<path fill="none" stroke="black" d="M669.03,-170.82C671.52,-160.19 674.78,-146.31 677.62,-134.2"/>
<polygon fill="black" stroke="black" points="681.1,-134.69 679.98,-124.15 674.29,-133.09 681.1,-134.69"/>
</g>
<!-- Hash::sha3_256 -->
<g id="node16" class="node">
<title>Hash::sha3_256</title>
<ellipse fill="none" stroke="black" cx="800" cy="-106" rx="44.39" ry="18"/>
<text text-anchor="middle" x="800" y="-102.3" font-family="Times,serif" font-size="14.00">sha3_256</text>
</g>
<!-- Authenticator::ed25519_authentication_key&#45;&gt;Hash::sha3_256 -->
<g id="edge18" class="edge">
<title>Authenticator::ed25519_authentication_key&#45;&gt;Hash::sha3_256</title>
<path fill="none" stroke="black" d="M709.26,-172.37C720.92,-167.49 733.24,-161.63 744,-155 755.41,-147.97 766.86,-138.66 776.4,-130.11"/>
<polygon fill="black" stroke="black" points="778.94,-132.53 783.92,-123.18 774.2,-127.38 778.94,-132.53"/>
</g>
</g>
</svg>
