<?xml version="1.0" encoding="UTF-8" standalone="no"?>
<!DOCTYPE svg PUBLIC "-//W3C//DTD SVG 1.1//EN"
 "http://www.w3.org/Graphics/SVG/1.1/DTD/svg11.dtd">
<!-- Generated by graphviz version 2.46.1 (20210213.1702)
 -->
<!-- Title: G Pages: 1 -->
<svg width="1295pt" height="523pt"
 viewBox="0.00 0.00 1295.00 523.00" xmlns="http://www.w3.org/2000/svg" xmlns:xlink="http://www.w3.org/1999/xlink">
<g id="graph0" class="graph" transform="scale(1 1) rotate(0) translate(4 519)">
<title>G</title>
<polygon fill="white" stroke="transparent" points="-4,4 -4,-519 1291,-519 1291,4 -4,4"/>
<g id="clust1" class="cluster">
<title>cluster_DiemAccount</title>
<polygon fill="none" stroke="black" points="8,-246 8,-471 792,-471 792,-246 8,-246"/>
<text text-anchor="middle" x="400" y="-455.8" font-family="Times,serif" font-size="14.00">DiemAccount</text>
</g>
<g id="clust2" class="cluster">
<title>cluster_Signer</title>
<polygon fill="none" stroke="black" points="1129,-246 1129,-396 1279,-396 1279,-246 1129,-246"/>
<text text-anchor="middle" x="1204" y="-380.8" font-family="Times,serif" font-size="14.00">Signer</text>
</g>
<g id="clust3" class="cluster">
<title>cluster_Errors</title>
<polygon fill="none" stroke="black" points="429,-80 429,-238 859,-238 859,-80 429,-80"/>
<text text-anchor="middle" x="644" y="-222.8" font-family="Times,serif" font-size="14.00">Errors</text>
</g>
<g id="clust4" class="cluster">
<title>cluster_Option</title>
<polygon fill="none" stroke="black" points="870,-163 870,-321 1121,-321 1121,-163 870,-163"/>
<text text-anchor="middle" x="995.5" y="-305.8" font-family="Times,serif" font-size="14.00">Option</text>
</g>
<g id="clust5" class="cluster">
<title>cluster_Vector</title>
<polygon fill="none" stroke="black" points="867,-8 867,-155 1192,-155 1192,-8 867,-8"/>
<text text-anchor="middle" x="1029.5" y="-139.8" font-family="Times,serif" font-size="14.00">Vector</text>
</g>
<!-- rotate_authentication_key -->
<g id="node1" class="node">
<title>rotate_authentication_key</title>
<ellipse fill="none" stroke="black" cx="512" cy="-497" rx="102.08" ry="18"/>
<text text-anchor="middle" x="512" y="-493.3" font-family="Times,serif" font-size="14.00">rotate_authentication_key</text>
</g>
<!-- DiemAccount::extract_key_rotation_capability -->
<g id="node2" class="node">
<title>DiemAccount::extract_key_rotation_capability</title>
<ellipse fill="none" stroke="black" cx="662" cy="-422" rx="122.38" ry="18"/>
<text text-anchor="middle" x="662" y="-418.3" font-family="Times,serif" font-size="14.00">extract_key_rotation_capability</text>
</g>
<!-- rotate_authentication_key&#45;&gt;DiemAccount::extract_key_rotation_capability -->
<g id="edge1" class="edge">
<title>rotate_authentication_key&#45;&gt;DiemAccount::extract_key_rotation_capability</title>
<path fill="none" stroke="black" d="M545.29,-479.8C567.08,-469.19 595.76,-455.24 619.24,-443.81"/>
<polygon fill="black" stroke="black" points="620.82,-446.93 628.28,-439.41 617.76,-440.64 620.82,-446.93"/>
</g>
<!-- DiemAccount::restore_key_rotation_capability -->
<g id="node3" class="node">
<title>DiemAccount::restore_key_rotation_capability</title>
<ellipse fill="none" stroke="black" cx="662" cy="-347" rx="122.38" ry="18"/>
<text text-anchor="middle" x="662" y="-343.3" font-family="Times,serif" font-size="14.00">restore_key_rotation_capability</text>
</g>
<!-- rotate_authentication_key&#45;&gt;DiemAccount::restore_key_rotation_capability -->
<g id="edge2" class="edge">
<title>rotate_authentication_key&#45;&gt;DiemAccount::restore_key_rotation_capability</title>
<path fill="none" stroke="black" d="M511.05,-478.74C510.86,-458.6 513.56,-425.34 531,-404 545.39,-386.4 566.33,-374.21 587.27,-365.83"/>
<polygon fill="black" stroke="black" points="588.73,-369.02 596.87,-362.24 586.28,-362.47 588.73,-369.02"/>
</g>
<!-- DiemAccount::rotate_authentication_key -->
<g id="node4" class="node">
<title>DiemAccount::rotate_authentication_key</title>
<ellipse fill="none" stroke="black" cx="118" cy="-347" rx="102.08" ry="18"/>
<text text-anchor="middle" x="118" y="-343.3" font-family="Times,serif" font-size="14.00">rotate_authentication_key</text>
</g>
<!-- rotate_authentication_key&#45;&gt;DiemAccount::rotate_authentication_key -->
<g id="edge3" class="edge">
<title>rotate_authentication_key&#45;&gt;DiemAccount::rotate_authentication_key</title>
<path fill="none" stroke="black" d="M466.06,-480.85C409.78,-462.03 311.71,-428.45 229,-396 206.9,-387.33 182.66,-376.95 162.49,-368.07"/>
<polygon fill="black" stroke="black" points="163.8,-364.82 153.24,-363.97 160.96,-371.22 163.8,-364.82"/>
</g>
<!-- Signer::address_of -->
<g id="node5" class="node">
<title>Signer::address_of</title>
<ellipse fill="none" stroke="black" cx="1195" cy="-347" rx="48.99" ry="18"/>
<text text-anchor="middle" x="1195" y="-343.3" font-family="Times,serif" font-size="14.00">address_of</text>
</g>
<!-- DiemAccount::extract_key_rotation_capability&#45;&gt;Signer::address_of -->
<g id="edge4" class="edge">
<title>DiemAccount::extract_key_rotation_capability&#45;&gt;Signer::address_of</title>
<path fill="none" stroke="black" d="M779.59,-416.93C844.08,-413.51 925.27,-407.29 997,-396 1049.5,-387.73 1108.59,-372.63 1148.44,-361.57"/>
<polygon fill="black" stroke="black" points="1149.46,-364.92 1158.14,-358.85 1147.57,-358.18 1149.46,-364.92"/>
</g>
<!-- Errors::invalid_state -->
<g id="node6" class="node">
<title>Errors::invalid_state</title>
<ellipse fill="none" stroke="black" cx="631" cy="-189" rx="55.79" ry="18"/>
<text text-anchor="middle" x="631" y="-185.3" font-family="Times,serif" font-size="14.00">invalid_state</text>
</g>
<!-- DiemAccount::extract_key_rotation_capability&#45;&gt;Errors::invalid_state -->
<g id="edge5" class="edge">
<title>DiemAccount::extract_key_rotation_capability&#45;&gt;Errors::invalid_state</title>
<path fill="none" stroke="black" d="M773.94,-414.73C797.75,-411.02 818.12,-405.18 826,-396 869.44,-345.43 871.67,-294.57 826,-246 816.09,-235.46 709.6,-242.95 696,-238 681.04,-232.56 666.57,-222.51 655.1,-213.01"/>
<polygon fill="black" stroke="black" points="657.16,-210.17 647.31,-206.26 652.58,-215.46 657.16,-210.17"/>
</g>
<!-- Errors::not_published -->
<g id="node7" class="node">
<title>Errors::not_published</title>
<ellipse fill="none" stroke="black" cx="497" cy="-189" rx="60.39" ry="18"/>
<text text-anchor="middle" x="497" y="-185.3" font-family="Times,serif" font-size="14.00">not_published</text>
</g>
<!-- DiemAccount::extract_key_rotation_capability&#45;&gt;Errors::not_published -->
<g id="edge6" class="edge">
<title>DiemAccount::extract_key_rotation_capability&#45;&gt;Errors::not_published</title>
<path fill="none" stroke="black" d="M758.86,-410.92C774.65,-407.34 787.61,-402.51 793,-396 811.98,-373.06 809.11,-354.05 793,-329 744.92,-254.22 695.88,-272.43 611,-246 591.61,-239.96 584.77,-245.76 566,-238 550.88,-231.75 535.77,-221.77 523.56,-212.52"/>
<polygon fill="black" stroke="black" points="525.63,-209.7 515.6,-206.29 521.32,-215.21 525.63,-209.7"/>
</g>
<!-- Option::extract -->
<g id="node8" class="node">
<title>Option::extract</title>
<ellipse fill="none" stroke="black" cx="1079" cy="-272" rx="34.39" ry="18"/>
<text text-anchor="middle" x="1079" y="-268.3" font-family="Times,serif" font-size="14.00">extract</text>
</g>
<!-- DiemAccount::extract_key_rotation_capability&#45;&gt;Option::extract -->
<g id="edge7" class="edge">
<title>DiemAccount::extract_key_rotation_capability&#45;&gt;Option::extract</title>
<path fill="none" stroke="black" d="M769.8,-413.51C800.59,-409.8 833.93,-404.26 864,-396 944.02,-374.01 967.51,-369.29 1035,-321 1044.34,-314.32 1053.19,-305.39 1060.47,-297.04"/>
<polygon fill="black" stroke="black" points="1063.21,-299.22 1066.94,-289.31 1057.84,-294.73 1063.21,-299.22"/>
</g>
<!-- DiemAccount::exists_at -->
<g id="node9" class="node">
<title>DiemAccount::exists_at</title>
<ellipse fill="none" stroke="black" cx="435" cy="-272" rx="41.69" ry="18"/>
<text text-anchor="middle" x="435" y="-268.3" font-family="Times,serif" font-size="14.00">exists_at</text>
</g>
<!-- DiemAccount::extract_key_rotation_capability&#45;&gt;DiemAccount::exists_at -->
<g id="edge8" class="edge">
<title>DiemAccount::extract_key_rotation_capability&#45;&gt;DiemAccount::exists_at</title>
<path fill="none" stroke="black" d="M569.13,-410.19C552.1,-406.62 537.61,-401.98 531,-396 507.94,-375.17 528.88,-354.42 511,-329 500.38,-313.9 484.4,-301.25 469.82,-291.81"/>
<polygon fill="black" stroke="black" points="471.34,-288.64 460.99,-286.36 467.66,-294.59 471.34,-288.64"/>
</g>
<!-- DiemAccount::delegated_key_rotation_capability -->
<g id="node10" class="node">
<title>DiemAccount::delegated_key_rotation_capability</title>
<ellipse fill="none" stroke="black" cx="370" cy="-347" rx="131.88" ry="18"/>
<text text-anchor="middle" x="370" y="-343.3" font-family="Times,serif" font-size="14.00">delegated_key_rotation_capability</text>
</g>
<!-- DiemAccount::extract_key_rotation_capability&#45;&gt;DiemAccount::delegated_key_rotation_capability -->
<g id="edge9" class="edge">
<title>DiemAccount::extract_key_rotation_capability&#45;&gt;DiemAccount::delegated_key_rotation_capability</title>
<path fill="none" stroke="black" d="M578.17,-408.83C557.71,-405.26 535.97,-400.96 516,-396 484.75,-388.23 450.52,-377.12 423.06,-367.55"/>
<polygon fill="black" stroke="black" points="423.86,-364.12 413.27,-364.1 421.54,-370.72 423.86,-364.12"/>
</g>
<!-- DiemAccount::restore_key_rotation_capability&#45;&gt;Errors::not_published -->
<g id="edge10" class="edge">
<title>DiemAccount::restore_key_rotation_capability&#45;&gt;Errors::not_published</title>
<path fill="none" stroke="black" d="M644.03,-329.01C614.49,-301.08 555.61,-245.41 522.02,-213.65"/>
<polygon fill="black" stroke="black" points="524.12,-210.83 514.45,-206.5 519.31,-215.91 524.12,-210.83"/>
</g>
<!-- DiemAccount::restore_key_rotation_capability&#45;&gt;DiemAccount::exists_at -->
<g id="edge12" class="edge">
<title>DiemAccount::restore_key_rotation_capability&#45;&gt;DiemAccount::exists_at</title>
<path fill="none" stroke="black" d="M613.58,-330.43C573.06,-317.4 515.83,-298.99 477.16,-286.56"/>
<polygon fill="black" stroke="black" points="477.86,-283.11 467.27,-283.38 475.72,-289.77 477.86,-283.11"/>
</g>
<!-- Option::fill -->
<g id="node11" class="node">
<title>Option::fill</title>
<ellipse fill="none" stroke="black" cx="905" cy="-272" rx="27" ry="18"/>
<text text-anchor="middle" x="905" y="-268.3" font-family="Times,serif" font-size="14.00">fill</text>
</g>
<!-- DiemAccount::restore_key_rotation_capability&#45;&gt;Option::fill -->
<g id="edge11" class="edge">
<title>DiemAccount::restore_key_rotation_capability&#45;&gt;Option::fill</title>
<path fill="none" stroke="black" d="M744.58,-333.69C761.75,-330.27 779.61,-326.06 796,-321 823.71,-312.44 853.77,-298.85 875.29,-288.32"/>
<polygon fill="black" stroke="black" points="876.85,-291.45 884.25,-283.86 873.74,-285.18 876.85,-291.45"/>
</g>
<!-- DiemAccount::rotate_authentication_key&#45;&gt;Errors::not_published -->
<g id="edge14" class="edge">
<title>DiemAccount::rotate_authentication_key&#45;&gt;Errors::not_published</title>
<path fill="none" stroke="black" d="M188.31,-333.92C201.78,-331.98 215.8,-330.21 229,-329 243.22,-327.69 475.64,-330.83 486,-321 513.7,-294.72 509.89,-246.85 503.93,-216.83"/>
<polygon fill="black" stroke="black" points="507.34,-216.04 501.78,-207.02 500.5,-217.54 507.34,-216.04"/>
</g>
<!-- DiemAccount::rotate_authentication_key&#45;&gt;DiemAccount::exists_at -->
<g id="edge16" class="edge">
<title>DiemAccount::rotate_authentication_key&#45;&gt;DiemAccount::exists_at</title>
<path fill="none" stroke="black" d="M180.67,-332.76C197.96,-329.03 216.72,-324.92 234,-321 287.7,-308.8 349.26,-293.98 389.96,-284.06"/>
<polygon fill="black" stroke="black" points="390.95,-287.42 399.84,-281.65 389.29,-280.62 390.95,-287.42"/>
</g>
<!-- Errors::invalid_argument -->
<g id="node12" class="node">
<title>Errors::invalid_argument</title>
<ellipse fill="none" stroke="black" cx="778" cy="-189" rx="73.39" ry="18"/>
<text text-anchor="middle" x="778" y="-185.3" font-family="Times,serif" font-size="14.00">invalid_argument</text>
</g>
<!-- DiemAccount::rotate_authentication_key&#45;&gt;Errors::invalid_argument -->
<g id="edge13" class="edge">
<title>DiemAccount::rotate_authentication_key&#45;&gt;Errors::invalid_argument</title>
<path fill="none" stroke="black" d="M188.3,-333.89C201.78,-331.95 215.8,-330.19 229,-329 291.44,-323.35 449.89,-334.99 511,-321 602.21,-300.12 698.08,-243.16 746.31,-211.66"/>
<polygon fill="black" stroke="black" points="748.33,-214.52 754.75,-206.09 744.48,-208.68 748.33,-214.52"/>
</g>
<!-- Vector::length -->
<g id="node13" class="node">
<title>Vector::length</title>
<ellipse fill="none" stroke="black" cx="970" cy="-34" rx="32.49" ry="18"/>
<text text-anchor="middle" x="970" y="-30.3" font-family="Times,serif" font-size="14.00">length</text>
</g>
<!-- DiemAccount::rotate_authentication_key&#45;&gt;Vector::length -->
<g id="edge15" class="edge">
<title>DiemAccount::rotate_authentication_key&#45;&gt;Vector::length</title>
<path fill="none" stroke="black" d="M130.95,-328.88C169.36,-279.63 288.49,-137.42 425,-80 515.39,-41.98 814.81,-36.02 927.03,-35.13"/>
<polygon fill="black" stroke="black" points="927.31,-38.63 937.29,-35.06 927.26,-31.63 927.31,-38.63"/>
</g>
<!-- Signer::borrow_address -->
<g id="node14" class="node">
<title>Signer::borrow_address</title>
<ellipse fill="none" stroke="black" cx="1204" cy="-272" rx="66.89" ry="18"/>
<text text-anchor="middle" x="1204" y="-268.3" font-family="Times,serif" font-size="14.00">borrow_address</text>
</g>
<!-- Signer::address_of&#45;&gt;Signer::borrow_address -->
<g id="edge17" class="edge">
<title>Signer::address_of&#45;&gt;Signer::borrow_address</title>
<path fill="none" stroke="black" d="M1197.13,-328.7C1198.18,-320.25 1199.45,-309.87 1200.63,-300.37"/>
<polygon fill="black" stroke="black" points="1204.13,-300.53 1201.88,-290.18 1197.19,-299.67 1204.13,-300.53"/>
</g>
<!-- Errors::make -->
<g id="node15" class="node">
<title>Errors::make</title>
<ellipse fill="none" stroke="black" cx="631" cy="-106" rx="30.59" ry="18"/>
<text text-anchor="middle" x="631" y="-102.3" font-family="Times,serif" font-size="14.00">make</text>
</g>
<!-- Errors::invalid_state&#45;&gt;Errors::make -->
<g id="edge18" class="edge">
<title>Errors::invalid_state&#45;&gt;Errors::make</title>
<path fill="none" stroke="black" d="M631,-170.82C631,-160.19 631,-146.31 631,-134.2"/>
<polygon fill="black" stroke="black" points="634.5,-134.15 631,-124.15 627.5,-134.15 634.5,-134.15"/>
</g>
<!-- Errors::not_published&#45;&gt;Errors::make -->
<g id="edge19" class="edge">
<title>Errors::not_published&#45;&gt;Errors::make</title>
<path fill="none" stroke="black" d="M522.52,-172.57C545.14,-158.9 578.17,-138.93 601.83,-124.63"/>
<polygon fill="black" stroke="black" points="603.65,-127.62 610.4,-119.45 600.03,-121.63 603.65,-127.62"/>
</g>
<!-- Option::extract&#45;&gt;Errors::invalid_argument -->
<g id="edge20" class="edge">
<title>Option::extract&#45;&gt;Errors::invalid_argument</title>
<path fill="none" stroke="black" d="M1059.3,-257.19C1052,-252.79 1043.44,-248.44 1035,-246 962.77,-225.07 938.4,-258.3 866,-238 846.06,-232.41 825.65,-221.65 809.51,-211.73"/>
<polygon fill="black" stroke="black" points="811.34,-208.74 801.02,-206.35 807.59,-214.66 811.34,-208.74"/>
</g>
<!-- Vector::pop_back -->
<g id="node16" class="node">
<title>Vector::pop_back</title>
<ellipse fill="none" stroke="black" cx="1139" cy="-106" rx="44.69" ry="18"/>
<text text-anchor="middle" x="1139" y="-102.3" font-family="Times,serif" font-size="14.00">pop_back</text>
</g>
<!-- Option::extract&#45;&gt;Vector::pop_back -->
<g id="edge21" class="edge">
<title>Option::extract&#45;&gt;Vector::pop_back</title>
<path fill="none" stroke="black" d="M1100.35,-257.46C1107.01,-252.18 1113.73,-245.57 1118,-238 1136.19,-205.77 1139.82,-162.39 1140,-134.56"/>
<polygon fill="black" stroke="black" points="1143.5,-134.33 1139.91,-124.36 1136.5,-134.39 1143.5,-134.33"/>
</g>
<!-- Option::is_some -->
<g id="node17" class="node">
<title>Option::is_some</title>
<ellipse fill="none" stroke="black" cx="1069" cy="-189" rx="40.09" ry="18"/>
<text text-anchor="middle" x="1069" y="-185.3" font-family="Times,serif" font-size="14.00">is_some</text>
</g>
<!-- Option::extract&#45;&gt;Option::is_some -->
<g id="edge22" class="edge">
<title>Option::extract&#45;&gt;Option::is_some</title>
<path fill="none" stroke="black" d="M1076.88,-253.82C1075.57,-243.19 1073.85,-229.31 1072.36,-217.2"/>
<polygon fill="black" stroke="black" points="1075.82,-216.65 1071.12,-207.15 1068.87,-217.51 1075.82,-216.65"/>
</g>
<!-- DiemAccount::delegated_key_rotation_capability&#45;&gt;Errors::not_published -->
<g id="edge23" class="edge">
<title>DiemAccount::delegated_key_rotation_capability&#45;&gt;Errors::not_published</title>
<path fill="none" stroke="black" d="M367.84,-328.66C366.1,-307.19 366.36,-270.45 384,-246 398.17,-226.36 421.2,-213.23 442.78,-204.66"/>
<polygon fill="black" stroke="black" points="444.07,-207.91 452.23,-201.15 441.64,-201.35 444.07,-207.91"/>
</g>
<!-- DiemAccount::delegated_key_rotation_capability&#45;&gt;DiemAccount::exists_at -->
<g id="edge25" class="edge">
<title>DiemAccount::delegated_key_rotation_capability&#45;&gt;DiemAccount::exists_at</title>
<path fill="none" stroke="black" d="M385.08,-329.07C393.62,-319.47 404.45,-307.31 413.84,-296.76"/>
<polygon fill="black" stroke="black" points="416.64,-298.88 420.68,-289.09 411.41,-294.23 416.64,-298.88"/>
</g>
<!-- Option::is_none -->
<g id="node18" class="node">
<title>Option::is_none</title>
<ellipse fill="none" stroke="black" cx="988" cy="-272" rx="38.19" ry="18"/>
<text text-anchor="middle" x="988" y="-268.3" font-family="Times,serif" font-size="14.00">is_none</text>
</g>
<!-- DiemAccount::delegated_key_rotation_capability&#45;&gt;Option::is_none -->
<g id="edge24" class="edge">
<title>DiemAccount::delegated_key_rotation_capability&#45;&gt;Option::is_none</title>
<path fill="none" stroke="black" d="M465.66,-334.54C487.13,-332.34 509.82,-330.32 531,-329 553.74,-327.58 920.09,-330.03 941,-321 952.59,-315.99 962.79,-306.63 970.69,-297.5"/>
<polygon fill="black" stroke="black" points="973.47,-299.63 977.03,-289.65 968.03,-295.23 973.47,-299.63"/>
</g>
<!-- Option::fill&#45;&gt;Errors::invalid_argument -->
<g id="edge26" class="edge">
<title>Option::fill&#45;&gt;Errors::invalid_argument</title>
<path fill="none" stroke="black" d="M885.99,-258.87C866.47,-246.43 835.7,-226.8 811.99,-211.68"/>
<polygon fill="black" stroke="black" points="813.6,-208.55 803.28,-206.13 809.83,-214.45 813.6,-208.55"/>
</g>
<!-- Vector::is_empty -->
<g id="node19" class="node">
<title>Vector::is_empty</title>
<ellipse fill="none" stroke="black" cx="1033" cy="-106" rx="43.59" ry="18"/>
<text text-anchor="middle" x="1033" y="-102.3" font-family="Times,serif" font-size="14.00">is_empty</text>
</g>
<!-- Option::fill&#45;&gt;Vector::is_empty -->
<g id="edge27" class="edge">
<title>Option::fill&#45;&gt;Vector::is_empty</title>
<path fill="none" stroke="black" d="M917.04,-255.57C939.3,-227.05 987.05,-165.87 1013.82,-131.58"/>
<polygon fill="black" stroke="black" points="1016.75,-133.51 1020.14,-123.48 1011.23,-129.21 1016.75,-133.51"/>
</g>
<!-- Vector::push_back -->
<g id="node20" class="node">
<title>Vector::push_back</title>
<ellipse fill="none" stroke="black" cx="923" cy="-106" rx="48.19" ry="18"/>
<text text-anchor="middle" x="923" y="-102.3" font-family="Times,serif" font-size="14.00">push_back</text>
</g>
<!-- Option::fill&#45;&gt;Vector::push_back -->
<g id="edge28" class="edge">
<title>Option::fill&#45;&gt;Vector::push_back</title>
<path fill="none" stroke="black" d="M906.89,-253.76C910.02,-225.26 916.29,-168.12 920.02,-134.16"/>
<polygon fill="black" stroke="black" points="923.52,-134.33 921.13,-124.01 916.56,-133.57 923.52,-134.33"/>
</g>
<!-- Errors::invalid_argument&#45;&gt;Errors::make -->
<g id="edge29" class="edge">
<title>Errors::invalid_argument&#45;&gt;Errors::make</title>
<path fill="none" stroke="black" d="M749.66,-172.38C724.39,-158.46 687.51,-138.14 661.58,-123.85"/>
<polygon fill="black" stroke="black" points="663.02,-120.65 652.57,-118.89 659.64,-126.78 663.02,-120.65"/>
</g>
<!-- Option::is_some&#45;&gt;Vector::is_empty -->
<g id="edge30" class="edge">
<title>Option::is_some&#45;&gt;Vector::is_empty</title>
<path fill="none" stroke="black" d="M1061.54,-171.22C1056.67,-160.25 1050.2,-145.69 1044.65,-133.22"/>
<polygon fill="black" stroke="black" points="1047.71,-131.48 1040.45,-123.76 1041.31,-134.32 1047.71,-131.48"/>
</g>
<!-- Option::is_none&#45;&gt;Vector::is_empty -->
<g id="edge31" class="edge">
<title>Option::is_none&#45;&gt;Vector::is_empty</title>
<path fill="none" stroke="black" d="M992.65,-254.07C1000.46,-225.59 1016.29,-167.88 1025.64,-133.83"/>
<polygon fill="black" stroke="black" points="1029.04,-134.66 1028.31,-124.09 1022.29,-132.8 1029.04,-134.66"/>
</g>
<!-- Vector::is_empty&#45;&gt;Vector::length -->
<g id="edge32" class="edge">
<title>Vector::is_empty&#45;&gt;Vector::length</title>
<path fill="none" stroke="black" d="M1018.39,-88.76C1010.24,-79.71 999.96,-68.29 990.97,-58.3"/>
<polygon fill="black" stroke="black" points="993.39,-55.76 984.1,-50.67 988.19,-60.44 993.39,-55.76"/>
</g>
</g>
</svg>
