<?xml version="1.0" encoding="UTF-8" standalone="no"?>
<!DOCTYPE svg PUBLIC "-//W3C//DTD SVG 1.1//EN"
 "http://www.w3.org/Graphics/SVG/1.1/DTD/svg11.dtd">
<!-- Generated by graphviz version 2.46.1 (20210213.1702)
 -->
<!-- Title: G Pages: 1 -->
<svg width="1341pt" height="520pt"
 viewBox="0.00 0.00 1341.00 520.00" xmlns="http://www.w3.org/2000/svg" xmlns:xlink="http://www.w3.org/1999/xlink">
<g id="graph0" class="graph" transform="scale(1 1) rotate(0) translate(4 516)">
<title>G</title>
<polygon fill="white" stroke="transparent" points="-4,4 -4,-516 1337,-516 1337,4 -4,4"/>
<g id="clust1" class="cluster">
<title>cluster_DiemAccount</title>
<polygon fill="none" stroke="black" points="693,-393 693,-468 825,-468 825,-393 693,-393"/>
<text text-anchor="middle" x="759" y="-452.8" font-family="Times,serif" font-size="14.00">DiemAccount</text>
</g>
<g id="clust2" class="cluster">
<title>cluster_Signer</title>
<polygon fill="none" stroke="black" points="373,-8 373,-155 523,-155 523,-8 373,-8"/>
<text text-anchor="middle" x="448" y="-139.8" font-family="Times,serif" font-size="14.00">Signer</text>
</g>
<g id="clust3" class="cluster">
<title>cluster_Errors</title>
<polygon fill="none" stroke="black" points="855,-80 855,-238 1325,-238 1325,-80 855,-80"/>
<text text-anchor="middle" x="1090" y="-222.8" font-family="Times,serif" font-size="14.00">Errors</text>
</g>
<g id="clust4" class="cluster">
<title>cluster_Roles</title>
<polygon fill="none" stroke="black" points="8,-163 8,-385 639,-385 639,-163 8,-163"/>
<text text-anchor="middle" x="323.5" y="-369.8" font-family="Times,serif" font-size="14.00">Roles</text>
</g>
<g id="clust5" class="cluster">
<title>cluster_Diem</title>
<polygon fill="none" stroke="black" points="679,-163 679,-385 847,-385 847,-163 679,-163"/>
<text text-anchor="middle" x="763" y="-369.8" font-family="Times,serif" font-size="14.00">Diem</text>
</g>
<g id="clust6" class="cluster">
<title>cluster_CoreAddresses</title>
<polygon fill="none" stroke="black" points="575,-80 575,-155 847,-155 847,-80 575,-80"/>
<text text-anchor="middle" x="711" y="-139.8" font-family="Times,serif" font-size="14.00">CoreAddresses</text>
</g>
<!-- add_currency_to_account -->
<g id="node1" class="node">
<title>add_currency_to_account</title>
<ellipse fill="none" stroke="black" cx="759" cy="-494" rx="101.28" ry="18"/>
<text text-anchor="middle" x="759" y="-490.3" font-family="Times,serif" font-size="14.00">add_currency_to_account</text>
</g>
<!-- DiemAccount::add_currency -->
<g id="node2" class="node">
<title>DiemAccount::add_currency</title>
<ellipse fill="none" stroke="black" cx="759" cy="-419" rx="58.49" ry="18"/>
<text text-anchor="middle" x="759" y="-415.3" font-family="Times,serif" font-size="14.00">add_currency</text>
</g>
<!-- add_currency_to_account&#45;&gt;DiemAccount::add_currency -->
<g id="edge1" class="edge">
<title>add_currency_to_account&#45;&gt;DiemAccount::add_currency</title>
<path fill="none" stroke="black" d="M759,-475.7C759,-467.25 759,-456.87 759,-447.37"/>
<polygon fill="black" stroke="black" points="762.5,-447.18 759,-437.18 755.5,-447.18 762.5,-447.18"/>
</g>
<!-- Signer::address_of -->
<g id="node3" class="node">
<title>Signer::address_of</title>
<ellipse fill="none" stroke="black" cx="448" cy="-106" rx="48.99" ry="18"/>
<text text-anchor="middle" x="448" y="-102.3" font-family="Times,serif" font-size="14.00">address_of</text>
</g>
<!-- DiemAccount::add_currency&#45;&gt;Signer::address_of -->
<g id="edge2" class="edge">
<title>DiemAccount::add_currency&#45;&gt;Signer::address_of</title>
<path fill="none" stroke="black" d="M710.77,-408.64C697.31,-403.74 683.95,-396.3 675,-385 613.11,-306.85 714.63,-232.33 643,-163 631.43,-151.8 586.63,-158.85 571,-155 541.66,-147.78 509.91,-135.26 486.03,-124.82"/>
<polygon fill="black" stroke="black" points="487.19,-121.51 476.63,-120.65 484.34,-127.91 487.19,-121.51"/>
</g>
<!-- Errors::already_published -->
<g id="node4" class="node">
<title>Errors::already_published</title>
<ellipse fill="none" stroke="black" cx="1077" cy="-189" rx="75.29" ry="18"/>
<text text-anchor="middle" x="1077" y="-185.3" font-family="Times,serif" font-size="14.00">already_published</text>
</g>
<!-- DiemAccount::add_currency&#45;&gt;Errors::already_published -->
<g id="edge3" class="edge">
<title>DiemAccount::add_currency&#45;&gt;Errors::already_published</title>
<path fill="none" stroke="black" d="M801.2,-406.47C817.37,-401.14 835.61,-393.98 851,-385 934.72,-336.16 1016.74,-254.6 1054.86,-214.2"/>
<polygon fill="black" stroke="black" points="1057.61,-216.38 1061.88,-206.69 1052.5,-211.6 1057.61,-216.38"/>
</g>
<!-- Errors::invalid_argument -->
<g id="node5" class="node">
<title>Errors::invalid_argument</title>
<ellipse fill="none" stroke="black" cx="1244" cy="-189" rx="73.39" ry="18"/>
<text text-anchor="middle" x="1244" y="-185.3" font-family="Times,serif" font-size="14.00">invalid_argument</text>
</g>
<!-- DiemAccount::add_currency&#45;&gt;Errors::invalid_argument -->
<g id="edge4" class="edge">
<title>DiemAccount::add_currency&#45;&gt;Errors::invalid_argument</title>
<path fill="none" stroke="black" d="M811.2,-410.74C840.84,-405.6 878.25,-397.38 910,-385 1029.6,-338.36 1156.85,-252.63 1213.61,-212.2"/>
<polygon fill="black" stroke="black" points="1215.69,-215.01 1221.79,-206.35 1211.62,-209.32 1215.69,-215.01"/>
</g>
<!-- Roles::can_hold_balance -->
<g id="node6" class="node">
<title>Roles::can_hold_balance</title>
<ellipse fill="none" stroke="black" cx="429" cy="-336" rx="74.19" ry="18"/>
<text text-anchor="middle" x="429" y="-332.3" font-family="Times,serif" font-size="14.00">can_hold_balance</text>
</g>
<!-- DiemAccount::add_currency&#45;&gt;Roles::can_hold_balance -->
<g id="edge5" class="edge">
<title>DiemAccount::add_currency&#45;&gt;Roles::can_hold_balance</title>
<path fill="none" stroke="black" d="M714.84,-407.16C656.62,-392.87 553.97,-367.68 488.83,-351.69"/>
<polygon fill="black" stroke="black" points="489.65,-348.28 479.1,-349.3 487.98,-355.08 489.65,-348.28"/>
</g>
<!-- Diem::assert_is_currency -->
<g id="node7" class="node">
<title>Diem::assert_is_currency</title>
<ellipse fill="none" stroke="black" cx="763" cy="-264" rx="76.09" ry="18"/>
<text text-anchor="middle" x="763" y="-260.3" font-family="Times,serif" font-size="14.00">assert_is_currency</text>
</g>
<!-- DiemAccount::add_currency&#45;&gt;Diem::assert_is_currency -->
<g id="edge6" class="edge">
<title>DiemAccount::add_currency&#45;&gt;Diem::assert_is_currency</title>
<path fill="none" stroke="black" d="M754.07,-401.01C752.81,-395.91 751.63,-390.27 751,-385 747.47,-355.43 747.69,-347.59 751,-318 751.96,-309.43 753.76,-300.22 755.69,-291.93"/>
<polygon fill="black" stroke="black" points="759.13,-292.57 758.13,-282.02 752.34,-290.89 759.13,-292.57"/>
</g>
<!-- Diem::zero -->
<g id="node8" class="node">
<title>Diem::zero</title>
<ellipse fill="none" stroke="black" cx="787" cy="-336" rx="27" ry="18"/>
<text text-anchor="middle" x="787" y="-332.3" font-family="Times,serif" font-size="14.00">zero</text>
</g>
<!-- DiemAccount::add_currency&#45;&gt;Diem::zero -->
<g id="edge7" class="edge">
<title>DiemAccount::add_currency&#45;&gt;Diem::zero</title>
<path fill="none" stroke="black" d="M764.94,-400.82C768.7,-389.94 773.64,-375.64 777.89,-363.34"/>
<polygon fill="black" stroke="black" points="781.3,-364.19 781.26,-353.6 774.69,-361.91 781.3,-364.19"/>
</g>
<!-- Signer::borrow_address -->
<g id="node9" class="node">
<title>Signer::borrow_address</title>
<ellipse fill="none" stroke="black" cx="448" cy="-34" rx="66.89" ry="18"/>
<text text-anchor="middle" x="448" y="-30.3" font-family="Times,serif" font-size="14.00">borrow_address</text>
</g>
<!-- Signer::address_of&#45;&gt;Signer::borrow_address -->
<g id="edge8" class="edge">
<title>Signer::address_of&#45;&gt;Signer::borrow_address</title>
<path fill="none" stroke="black" d="M448,-87.7C448,-79.98 448,-70.71 448,-62.11"/>
<polygon fill="black" stroke="black" points="451.5,-62.1 448,-52.1 444.5,-62.1 451.5,-62.1"/>
</g>
<!-- Errors::make -->
<g id="node10" class="node">
<title>Errors::make</title>
<ellipse fill="none" stroke="black" cx="1077" cy="-106" rx="30.59" ry="18"/>
<text text-anchor="middle" x="1077" y="-102.3" font-family="Times,serif" font-size="14.00">make</text>
</g>
<!-- Errors::already_published&#45;&gt;Errors::make -->
<g id="edge9" class="edge">
<title>Errors::already_published&#45;&gt;Errors::make</title>
<path fill="none" stroke="black" d="M1077,-170.82C1077,-160.19 1077,-146.31 1077,-134.2"/>
<polygon fill="black" stroke="black" points="1080.5,-134.15 1077,-124.15 1073.5,-134.15 1080.5,-134.15"/>
</g>
<!-- Errors::invalid_argument&#45;&gt;Errors::make -->
<g id="edge10" class="edge">
<title>Errors::invalid_argument&#45;&gt;Errors::make</title>
<path fill="none" stroke="black" d="M1212.2,-172.57C1182.56,-158.2 1138.61,-136.88 1108.94,-122.49"/>
<polygon fill="black" stroke="black" points="1110.37,-119.29 1099.84,-118.08 1107.31,-125.59 1110.37,-119.29"/>
</g>
<!-- Roles::has_child_VASP_role -->
<g id="node11" class="node">
<title>Roles::has_child_VASP_role</title>
<ellipse fill="none" stroke="black" cx="104" cy="-264" rx="88.28" ry="18"/>
<text text-anchor="middle" x="104" y="-260.3" font-family="Times,serif" font-size="14.00">has_child_VASP_role</text>
</g>
<!-- Roles::can_hold_balance&#45;&gt;Roles::has_child_VASP_role -->
<g id="edge11" class="edge">
<title>Roles::can_hold_balance&#45;&gt;Roles::has_child_VASP_role</title>
<path fill="none" stroke="black" d="M375.33,-323.44C319.74,-311.47 232.7,-292.72 172.26,-279.7"/>
<polygon fill="black" stroke="black" points="172.93,-276.27 162.42,-277.58 171.46,-283.11 172.93,-276.27"/>
</g>
<!-- Roles::has_designated_dealer_role -->
<g id="node12" class="node">
<title>Roles::has_designated_dealer_role</title>
<ellipse fill="none" stroke="black" cx="319" cy="-264" rx="108.58" ry="18"/>
<text text-anchor="middle" x="319" y="-260.3" font-family="Times,serif" font-size="14.00">has_designated_dealer_role</text>
</g>
<!-- Roles::can_hold_balance&#45;&gt;Roles::has_designated_dealer_role -->
<g id="edge12" class="edge">
<title>Roles::can_hold_balance&#45;&gt;Roles::has_designated_dealer_role</title>
<path fill="none" stroke="black" d="M403.76,-318.94C388.99,-309.54 370.12,-297.53 353.94,-287.23"/>
<polygon fill="black" stroke="black" points="355.58,-284.13 345.27,-281.72 351.82,-290.04 355.58,-284.13"/>
</g>
<!-- Roles::has_parent_VASP_role -->
<g id="node13" class="node">
<title>Roles::has_parent_VASP_role</title>
<ellipse fill="none" stroke="black" cx="538" cy="-264" rx="92.88" ry="18"/>
<text text-anchor="middle" x="538" y="-260.3" font-family="Times,serif" font-size="14.00">has_parent_VASP_role</text>
</g>
<!-- Roles::can_hold_balance&#45;&gt;Roles::has_parent_VASP_role -->
<g id="edge13" class="edge">
<title>Roles::can_hold_balance&#45;&gt;Roles::has_parent_VASP_role</title>
<path fill="none" stroke="black" d="M454.01,-318.94C468.75,-309.47 487.61,-297.36 503.73,-287.01"/>
<polygon fill="black" stroke="black" points="505.83,-289.82 512.35,-281.47 502.05,-283.93 505.83,-289.82"/>
</g>
<!-- Errors::not_published -->
<g id="node14" class="node">
<title>Errors::not_published</title>
<ellipse fill="none" stroke="black" cx="923" cy="-189" rx="60.39" ry="18"/>
<text text-anchor="middle" x="923" y="-185.3" font-family="Times,serif" font-size="14.00">not_published</text>
</g>
<!-- Diem::assert_is_currency&#45;&gt;Errors::not_published -->
<g id="edge14" class="edge">
<title>Diem::assert_is_currency&#45;&gt;Errors::not_published</title>
<path fill="none" stroke="black" d="M815.62,-250.94C827.51,-247.43 839.9,-243.12 851,-238 866.07,-231.04 881.55,-221.15 894.27,-212.15"/>
<polygon fill="black" stroke="black" points="896.56,-214.81 902.6,-206.11 892.45,-209.15 896.56,-214.81"/>
</g>
<!-- Diem::is_currency -->
<g id="node15" class="node">
<title>Diem::is_currency</title>
<ellipse fill="none" stroke="black" cx="751" cy="-189" rx="51.99" ry="18"/>
<text text-anchor="middle" x="751" y="-185.3" font-family="Times,serif" font-size="14.00">is_currency</text>
</g>
<!-- Diem::assert_is_currency&#45;&gt;Diem::is_currency -->
<g id="edge15" class="edge">
<title>Diem::assert_is_currency&#45;&gt;Diem::is_currency</title>
<path fill="none" stroke="black" d="M760.16,-245.7C758.75,-237.15 757.02,-226.65 755.45,-217.07"/>
<polygon fill="black" stroke="black" points="758.9,-216.48 753.82,-207.18 751.99,-217.61 758.9,-216.48"/>
</g>
<!-- Diem::zero&#45;&gt;Diem::assert_is_currency -->
<g id="edge16" class="edge">
<title>Diem::zero&#45;&gt;Diem::assert_is_currency</title>
<path fill="none" stroke="black" d="M781.19,-318.05C778.49,-310.18 775.21,-300.62 772.19,-291.79"/>
<polygon fill="black" stroke="black" points="775.48,-290.6 768.92,-282.28 768.86,-292.87 775.48,-290.6"/>
</g>
<!-- Roles::has_role -->
<g id="node16" class="node">
<title>Roles::has_role</title>
<ellipse fill="none" stroke="black" cx="362" cy="-189" rx="40.09" ry="18"/>
<text text-anchor="middle" x="362" y="-185.3" font-family="Times,serif" font-size="14.00">has_role</text>
</g>
<!-- Roles::has_child_VASP_role&#45;&gt;Roles::has_role -->
<g id="edge17" class="edge">
<title>Roles::has_child_VASP_role&#45;&gt;Roles::has_role</title>
<path fill="none" stroke="black" d="M153.44,-249.01C201.32,-235.46 273.2,-215.13 318.83,-202.21"/>
<polygon fill="black" stroke="black" points="320.05,-205.51 328.72,-199.42 318.14,-198.77 320.05,-205.51"/>
</g>
<!-- Roles::has_designated_dealer_role&#45;&gt;Roles::has_role -->
<g id="edge18" class="edge">
<title>Roles::has_designated_dealer_role&#45;&gt;Roles::has_role</title>
<path fill="none" stroke="black" d="M328.97,-246.07C334.33,-236.98 341.04,-225.58 347.01,-215.44"/>
<polygon fill="black" stroke="black" points="350.17,-216.98 352.23,-206.59 344.14,-213.43 350.17,-216.98"/>
</g>
<!-- Roles::has_parent_VASP_role&#45;&gt;Roles::has_role -->
<g id="edge19" class="edge">
<title>Roles::has_parent_VASP_role&#45;&gt;Roles::has_role</title>
<path fill="none" stroke="black" d="M500.24,-247.34C470.66,-235.07 429.68,-218.07 400.03,-205.77"/>
<polygon fill="black" stroke="black" points="401.02,-202.39 390.44,-201.8 398.34,-208.86 401.02,-202.39"/>
</g>
<!-- Errors::not_published&#45;&gt;Errors::make -->
<g id="edge20" class="edge">
<title>Errors::not_published&#45;&gt;Errors::make</title>
<path fill="none" stroke="black" d="M951.61,-172.95C978.37,-158.88 1018.26,-137.9 1045.83,-123.4"/>
<polygon fill="black" stroke="black" points="1047.8,-126.31 1055.02,-118.56 1044.54,-120.12 1047.8,-126.31"/>
</g>
<!-- CoreAddresses::CURRENCY_INFO_ADDRESS -->
<g id="node17" class="node">
<title>CoreAddresses::CURRENCY_INFO_ADDRESS</title>
<ellipse fill="none" stroke="black" cx="711" cy="-106" rx="128.08" ry="18"/>
<text text-anchor="middle" x="711" y="-102.3" font-family="Times,serif" font-size="14.00">CURRENCY_INFO_ADDRESS</text>
</g>
<!-- Diem::is_currency&#45;&gt;CoreAddresses::CURRENCY_INFO_ADDRESS -->
<g id="edge21" class="edge">
<title>Diem::is_currency&#45;&gt;CoreAddresses::CURRENCY_INFO_ADDRESS</title>
<path fill="none" stroke="black" d="M742.71,-171.22C737.28,-160.21 730.06,-145.6 723.89,-133.1"/>
<polygon fill="black" stroke="black" points="726.98,-131.46 719.42,-124.04 720.7,-134.56 726.98,-131.46"/>
</g>
<!-- Roles::has_role&#45;&gt;Signer::address_of -->
<g id="edge22" class="edge">
<title>Roles::has_role&#45;&gt;Signer::address_of</title>
<path fill="none" stroke="black" d="M378.58,-172.38C391.27,-160.44 408.96,-143.77 423.31,-130.26"/>
<polygon fill="black" stroke="black" points="426,-132.53 430.88,-123.12 421.2,-127.43 426,-132.53"/>
</g>
</g>
</svg>
