<?xml version="1.0" encoding="UTF-8" standalone="no"?>
<!DOCTYPE svg PUBLIC "-//W3C//DTD SVG 1.1//EN"
 "http://www.w3.org/Graphics/SVG/1.1/DTD/svg11.dtd">
<!-- Generated by graphviz version 2.46.1 (20210213.1702)
 -->
<!-- Title: G Pages: 1 -->
<svg width="1816pt" height="523pt"
 viewBox="0.00 0.00 1816.00 523.00" xmlns="http://www.w3.org/2000/svg" xmlns:xlink="http://www.w3.org/1999/xlink">
<g id="graph0" class="graph" transform="scale(1 1) rotate(0) translate(4 519)">
<title>G</title>
<polygon fill="white" stroke="transparent" points="-4,4 -4,-519 1812,-519 1812,4 -4,4"/>
<g id="clust1" class="cluster">
<title>cluster_DiemAccount</title>
<polygon fill="none" stroke="black" points="166,-163 166,-388 694,-388 694,-163 166,-163"/>
<text text-anchor="middle" x="430" y="-372.8" font-family="Times,serif" font-size="14.00">DiemAccount</text>
</g>
<g id="clust2" class="cluster">
<title>cluster_RecoveryAddress</title>
<polygon fill="none" stroke="black" points="913,-396 913,-471 1117,-471 1117,-396 913,-396"/>
<text text-anchor="middle" x="1015" y="-455.8" font-family="Times,serif" font-size="14.00">RecoveryAddress</text>
</g>
<g id="clust3" class="cluster">
<title>cluster_Signer</title>
<polygon fill="none" stroke="black" points="8,-163 8,-313 158,-313 158,-163 8,-163"/>
<text text-anchor="middle" x="83" y="-297.8" font-family="Times,serif" font-size="14.00">Signer</text>
</g>
<g id="clust4" class="cluster">
<title>cluster_Errors</title>
<polygon fill="none" stroke="black" points="978,-80 978,-238 1556,-238 1556,-80 978,-80"/>
<text text-anchor="middle" x="1267" y="-222.8" font-family="Times,serif" font-size="14.00">Errors</text>
</g>
<g id="clust5" class="cluster">
<title>cluster_Option</title>
<polygon fill="none" stroke="black" points="702,-163 702,-313 881,-313 881,-163 702,-163"/>
<text text-anchor="middle" x="791.5" y="-297.8" font-family="Times,serif" font-size="14.00">Option</text>
</g>
<g id="clust6" class="cluster">
<title>cluster_Vector</title>
<polygon fill="none" stroke="black" points="613,-8 613,-155 938,-155 938,-8 613,-8"/>
<text text-anchor="middle" x="775.5" y="-139.8" font-family="Times,serif" font-size="14.00">Vector</text>
</g>
<g id="clust7" class="cluster">
<title>cluster_VASP</title>
<polygon fill="none" stroke="black" points="1564,-163 1564,-388 1800,-388 1800,-163 1564,-163"/>
<text text-anchor="middle" x="1682" y="-372.8" font-family="Times,serif" font-size="14.00">VASP</text>
</g>
<!-- add_recovery_rotation_capability -->
<g id="node1" class="node">
<title>add_recovery_rotation_capability</title>
<ellipse fill="none" stroke="black" cx="806" cy="-497" rx="129.18" ry="18"/>
<text text-anchor="middle" x="806" y="-493.3" font-family="Times,serif" font-size="14.00">add_recovery_rotation_capability</text>
</g>
<!-- DiemAccount::extract_key_rotation_capability -->
<g id="node2" class="node">
<title>DiemAccount::extract_key_rotation_capability</title>
<ellipse fill="none" stroke="black" cx="296" cy="-339" rx="122.38" ry="18"/>
<text text-anchor="middle" x="296" y="-335.3" font-family="Times,serif" font-size="14.00">extract_key_rotation_capability</text>
</g>
<!-- add_recovery_rotation_capability&#45;&gt;DiemAccount::extract_key_rotation_capability -->
<g id="edge1" class="edge">
<title>add_recovery_rotation_capability&#45;&gt;DiemAccount::extract_key_rotation_capability</title>
<path fill="none" stroke="black" d="M747.81,-480.85C673.07,-461.06 539.56,-424.6 427,-388 400.38,-379.34 371.09,-368.72 346.98,-359.67"/>
<polygon fill="black" stroke="black" points="347.91,-356.28 337.32,-356.03 345.44,-362.83 347.91,-356.28"/>
</g>
<!-- RecoveryAddress::add_rotation_capability -->
<g id="node3" class="node">
<title>RecoveryAddress::add_rotation_capability</title>
<ellipse fill="none" stroke="black" cx="1015" cy="-422" rx="94.48" ry="18"/>
<text text-anchor="middle" x="1015" y="-418.3" font-family="Times,serif" font-size="14.00">add_rotation_capability</text>
</g>
<!-- add_recovery_rotation_capability&#45;&gt;RecoveryAddress::add_rotation_capability -->
<g id="edge2" class="edge">
<title>add_recovery_rotation_capability&#45;&gt;RecoveryAddress::add_rotation_capability</title>
<path fill="none" stroke="black" d="M851.61,-480.07C884.18,-468.69 928.1,-453.35 962.2,-441.44"/>
<polygon fill="black" stroke="black" points="963.7,-444.63 971.99,-438.02 961.39,-438.02 963.7,-444.63"/>
</g>
<!-- Signer::address_of -->
<g id="node4" class="node">
<title>Signer::address_of</title>
<ellipse fill="none" stroke="black" cx="92" cy="-264" rx="48.99" ry="18"/>
<text text-anchor="middle" x="92" y="-260.3" font-family="Times,serif" font-size="14.00">address_of</text>
</g>
<!-- DiemAccount::extract_key_rotation_capability&#45;&gt;Signer::address_of -->
<g id="edge3" class="edge">
<title>DiemAccount::extract_key_rotation_capability&#45;&gt;Signer::address_of</title>
<path fill="none" stroke="black" d="M206.55,-326.69C191.36,-323.26 175.99,-318.8 162,-313 146.51,-306.58 130.97,-296.39 118.48,-287.05"/>
<polygon fill="black" stroke="black" points="120.41,-284.12 110.35,-280.77 116.13,-289.66 120.41,-284.12"/>
</g>
<!-- Errors::invalid_state -->
<g id="node5" class="node">
<title>Errors::invalid_state</title>
<ellipse fill="none" stroke="black" cx="1180" cy="-189" rx="55.79" ry="18"/>
<text text-anchor="middle" x="1180" y="-185.3" font-family="Times,serif" font-size="14.00">invalid_state</text>
</g>
<!-- DiemAccount::extract_key_rotation_capability&#45;&gt;Errors::invalid_state -->
<g id="edge4" class="edge">
<title>DiemAccount::extract_key_rotation_capability&#45;&gt;Errors::invalid_state</title>
<path fill="none" stroke="black" d="M379.02,-325.78C394.91,-323.85 411.45,-322.12 427,-321 485.08,-316.8 894.2,-325.83 951,-313 1029.18,-295.35 1045.95,-278.69 1115,-238 1127.81,-230.45 1141.15,-220.93 1152.39,-212.35"/>
<polygon fill="black" stroke="black" points="1154.78,-214.93 1160.54,-206.03 1150.49,-209.4 1154.78,-214.93"/>
</g>
<!-- Errors::not_published -->
<g id="node6" class="node">
<title>Errors::not_published</title>
<ellipse fill="none" stroke="black" cx="1046" cy="-189" rx="60.39" ry="18"/>
<text text-anchor="middle" x="1046" y="-185.3" font-family="Times,serif" font-size="14.00">not_published</text>
</g>
<!-- DiemAccount::extract_key_rotation_capability&#45;&gt;Errors::not_published -->
<g id="edge5" class="edge">
<title>DiemAccount::extract_key_rotation_capability&#45;&gt;Errors::not_published</title>
<path fill="none" stroke="black" d="M379.37,-325.77C395.16,-323.85 411.56,-322.13 427,-321 452.38,-319.14 860.97,-321.36 885,-313 942.33,-293.05 995.53,-244.1 1024.12,-214.31"/>
<polygon fill="black" stroke="black" points="1026.86,-216.5 1031.18,-206.82 1021.77,-211.7 1026.86,-216.5"/>
</g>
<!-- Option::extract -->
<g id="node7" class="node">
<title>Option::extract</title>
<ellipse fill="none" stroke="black" cx="839" cy="-264" rx="34.39" ry="18"/>
<text text-anchor="middle" x="839" y="-260.3" font-family="Times,serif" font-size="14.00">extract</text>
</g>
<!-- DiemAccount::extract_key_rotation_capability&#45;&gt;Option::extract -->
<g id="edge6" class="edge">
<title>DiemAccount::extract_key_rotation_capability&#45;&gt;Option::extract</title>
<path fill="none" stroke="black" d="M379.37,-325.82C395.16,-323.9 411.56,-322.17 427,-321 447.39,-319.46 776.37,-321.44 795,-313 806.04,-308 815.55,-298.77 822.87,-289.73"/>
<polygon fill="black" stroke="black" points="825.76,-291.71 828.96,-281.61 820.16,-287.51 825.76,-291.71"/>
</g>
<!-- DiemAccount::exists_at -->
<g id="node8" class="node">
<title>DiemAccount::exists_at</title>
<ellipse fill="none" stroke="black" cx="398" cy="-189" rx="41.69" ry="18"/>
<text text-anchor="middle" x="398" y="-185.3" font-family="Times,serif" font-size="14.00">exists_at</text>
</g>
<!-- DiemAccount::extract_key_rotation_capability&#45;&gt;DiemAccount::exists_at -->
<g id="edge7" class="edge">
<title>DiemAccount::extract_key_rotation_capability&#45;&gt;DiemAccount::exists_at</title>
<path fill="none" stroke="black" d="M307.7,-321.02C325.61,-295.04 359.92,-245.26 380.7,-215.1"/>
<polygon fill="black" stroke="black" points="383.64,-217 386.44,-206.78 377.88,-213.03 383.64,-217"/>
</g>
<!-- DiemAccount::delegated_key_rotation_capability -->
<g id="node9" class="node">
<title>DiemAccount::delegated_key_rotation_capability</title>
<ellipse fill="none" stroke="black" cx="527" cy="-264" rx="131.88" ry="18"/>
<text text-anchor="middle" x="527" y="-260.3" font-family="Times,serif" font-size="14.00">delegated_key_rotation_capability</text>
</g>
<!-- DiemAccount::extract_key_rotation_capability&#45;&gt;DiemAccount::delegated_key_rotation_capability -->
<g id="edge8" class="edge">
<title>DiemAccount::extract_key_rotation_capability&#45;&gt;DiemAccount::delegated_key_rotation_capability</title>
<path fill="none" stroke="black" d="M345.27,-322.43C380.91,-311.17 429.26,-295.89 467.12,-283.92"/>
<polygon fill="black" stroke="black" points="468.53,-287.15 477.01,-280.8 466.42,-280.47 468.53,-287.15"/>
</g>
<!-- RecoveryAddress::add_rotation_capability&#45;&gt;Errors::not_published -->
<g id="edge11" class="edge">
<title>RecoveryAddress::add_rotation_capability&#45;&gt;Errors::not_published</title>
<path fill="none" stroke="black" d="M1017.33,-403.64C1022.68,-363.74 1035.9,-265.27 1042.35,-217.24"/>
<polygon fill="black" stroke="black" points="1045.82,-217.63 1043.69,-207.25 1038.89,-216.69 1045.82,-217.63"/>
</g>
<!-- Errors::invalid_argument -->
<g id="node10" class="node">
<title>Errors::invalid_argument</title>
<ellipse fill="none" stroke="black" cx="1475" cy="-189" rx="73.39" ry="18"/>
<text text-anchor="middle" x="1475" y="-185.3" font-family="Times,serif" font-size="14.00">invalid_argument</text>
</g>
<!-- RecoveryAddress::add_rotation_capability&#45;&gt;Errors::invalid_argument -->
<g id="edge9" class="edge">
<title>RecoveryAddress::add_rotation_capability&#45;&gt;Errors::invalid_argument</title>
<path fill="none" stroke="black" d="M1063.96,-406.52C1080.12,-401.26 1098.03,-394.89 1114,-388 1239.1,-333.99 1378.06,-250.63 1440.87,-211.58"/>
<polygon fill="black" stroke="black" points="1442.95,-214.41 1449.58,-206.14 1439.24,-208.47 1442.95,-214.41"/>
</g>
<!-- Errors::limit_exceeded -->
<g id="node11" class="node">
<title>Errors::limit_exceeded</title>
<ellipse fill="none" stroke="black" cx="1319" cy="-189" rx="64.99" ry="18"/>
<text text-anchor="middle" x="1319" y="-185.3" font-family="Times,serif" font-size="14.00">limit_exceeded</text>
</g>
<!-- RecoveryAddress::add_rotation_capability&#45;&gt;Errors::limit_exceeded -->
<g id="edge10" class="edge">
<title>RecoveryAddress::add_rotation_capability&#45;&gt;Errors::limit_exceeded</title>
<path fill="none" stroke="black" d="M1036.86,-404.39C1090.56,-363.58 1228.98,-258.41 1289.7,-212.26"/>
<polygon fill="black" stroke="black" points="1291.9,-214.99 1297.74,-206.15 1287.66,-209.42 1291.9,-214.99"/>
</g>
<!-- Vector::length -->
<g id="node12" class="node">
<title>Vector::length</title>
<ellipse fill="none" stroke="black" cx="781" cy="-34" rx="32.49" ry="18"/>
<text text-anchor="middle" x="781" y="-30.3" font-family="Times,serif" font-size="14.00">length</text>
</g>
<!-- RecoveryAddress::add_rotation_capability&#45;&gt;Vector::length -->
<g id="edge12" class="edge">
<title>RecoveryAddress::add_rotation_capability&#45;&gt;Vector::length</title>
<path fill="none" stroke="black" d="M1011.14,-403.85C1003.86,-371.45 987.59,-299.02 974,-238 958.36,-167.8 988.32,-132.35 939,-80 909.36,-48.54 859.45,-38.56 823.65,-35.65"/>
<polygon fill="black" stroke="black" points="823.7,-32.15 813.49,-34.98 823.24,-39.13 823.7,-32.15"/>
</g>
<!-- Vector::push_back -->
<g id="node13" class="node">
<title>Vector::push_back</title>
<ellipse fill="none" stroke="black" cx="882" cy="-106" rx="48.19" ry="18"/>
<text text-anchor="middle" x="882" y="-102.3" font-family="Times,serif" font-size="14.00">push_back</text>
</g>
<!-- RecoveryAddress::add_rotation_capability&#45;&gt;Vector::push_back -->
<g id="edge13" class="edge">
<title>RecoveryAddress::add_rotation_capability&#45;&gt;Vector::push_back</title>
<path fill="none" stroke="black" d="M981.79,-405C974.78,-400.35 968,-394.67 963,-388 903.76,-308.93 887.78,-187.71 883.52,-134.1"/>
<polygon fill="black" stroke="black" points="887,-133.74 882.8,-124.02 880.02,-134.24 887,-133.74"/>
</g>
<!-- VASP::is_same_vasp -->
<g id="node14" class="node">
<title>VASP::is_same_vasp</title>
<ellipse fill="none" stroke="black" cx="1636" cy="-339" rx="59.59" ry="18"/>
<text text-anchor="middle" x="1636" y="-335.3" font-family="Times,serif" font-size="14.00">is_same_vasp</text>
</g>
<!-- RecoveryAddress::add_rotation_capability&#45;&gt;VASP::is_same_vasp -->
<g id="edge14" class="edge">
<title>RecoveryAddress::add_rotation_capability&#45;&gt;VASP::is_same_vasp</title>
<path fill="none" stroke="black" d="M1104.32,-416.17C1182.15,-411.28 1297.91,-402.36 1398,-388 1461.1,-378.95 1532.72,-363.84 1580.76,-352.99"/>
<polygon fill="black" stroke="black" points="1581.66,-356.37 1590.64,-350.74 1580.11,-349.54 1581.66,-356.37"/>
</g>
<!-- DiemAccount::key_rotation_capability_address -->
<g id="node15" class="node">
<title>DiemAccount::key_rotation_capability_address</title>
<ellipse fill="none" stroke="black" cx="561" cy="-339" rx="124.58" ry="18"/>
<text text-anchor="middle" x="561" y="-335.3" font-family="Times,serif" font-size="14.00">key_rotation_capability_address</text>
</g>
<!-- RecoveryAddress::add_rotation_capability&#45;&gt;DiemAccount::key_rotation_capability_address -->
<g id="edge15" class="edge">
<title>RecoveryAddress::add_rotation_capability&#45;&gt;DiemAccount::key_rotation_capability_address</title>
<path fill="none" stroke="black" d="M948.5,-409.14C868.46,-394.85 733.91,-370.85 646.3,-355.22"/>
<polygon fill="black" stroke="black" points="646.84,-351.76 636.39,-353.45 645.62,-358.65 646.84,-351.76"/>
</g>
<!-- Signer::borrow_address -->
<g id="node16" class="node">
<title>Signer::borrow_address</title>
<ellipse fill="none" stroke="black" cx="83" cy="-189" rx="66.89" ry="18"/>
<text text-anchor="middle" x="83" y="-185.3" font-family="Times,serif" font-size="14.00">borrow_address</text>
</g>
<!-- Signer::address_of&#45;&gt;Signer::borrow_address -->
<g id="edge16" class="edge">
<title>Signer::address_of&#45;&gt;Signer::borrow_address</title>
<path fill="none" stroke="black" d="M89.87,-245.7C88.82,-237.25 87.55,-226.87 86.37,-217.37"/>
<polygon fill="black" stroke="black" points="89.81,-216.67 85.12,-207.18 82.87,-217.53 89.81,-216.67"/>
</g>
<!-- Errors::make -->
<g id="node17" class="node">
<title>Errors::make</title>
<ellipse fill="none" stroke="black" cx="1249" cy="-106" rx="30.59" ry="18"/>
<text text-anchor="middle" x="1249" y="-102.3" font-family="Times,serif" font-size="14.00">make</text>
</g>
<!-- Errors::invalid_state&#45;&gt;Errors::make -->
<g id="edge17" class="edge">
<title>Errors::invalid_state&#45;&gt;Errors::make</title>
<path fill="none" stroke="black" d="M1194.3,-171.22C1204.43,-159.32 1218.15,-143.21 1229.32,-130.1"/>
<polygon fill="black" stroke="black" points="1232.07,-132.27 1235.89,-122.39 1226.74,-127.73 1232.07,-132.27"/>
</g>
<!-- Errors::not_published&#45;&gt;Errors::make -->
<g id="edge18" class="edge">
<title>Errors::not_published&#45;&gt;Errors::make</title>
<path fill="none" stroke="black" d="M1080.9,-174.08C1118.46,-159.09 1177.82,-135.4 1215.03,-120.56"/>
<polygon fill="black" stroke="black" points="1216.45,-123.76 1224.44,-116.8 1213.85,-117.26 1216.45,-123.76"/>
</g>
<!-- Option::extract&#45;&gt;Errors::invalid_argument -->
<g id="edge19" class="edge">
<title>Option::extract&#45;&gt;Errors::invalid_argument</title>
<path fill="none" stroke="black" d="M873.66,-262.4C987.18,-260.31 1343.43,-252.65 1393,-238 1411.65,-232.49 1430.5,-221.88 1445.43,-212.03"/>
<polygon fill="black" stroke="black" points="1447.44,-214.89 1453.73,-206.37 1443.5,-209.11 1447.44,-214.89"/>
</g>
<!-- Vector::pop_back -->
<g id="node18" class="node">
<title>Vector::pop_back</title>
<ellipse fill="none" stroke="black" cx="771" cy="-106" rx="44.69" ry="18"/>
<text text-anchor="middle" x="771" y="-102.3" font-family="Times,serif" font-size="14.00">pop_back</text>
</g>
<!-- Option::extract&#45;&gt;Vector::pop_back -->
<g id="edge20" class="edge">
<title>Option::extract&#45;&gt;Vector::pop_back</title>
<path fill="none" stroke="black" d="M812.34,-252.29C799.28,-246.78 785.92,-240.69 784,-238 762.29,-207.68 762.97,-162.8 766.32,-134.23"/>
<polygon fill="black" stroke="black" points="769.81,-134.53 767.7,-124.15 762.88,-133.58 769.81,-134.53"/>
</g>
<!-- Option::is_some -->
<g id="node19" class="node">
<title>Option::is_some</title>
<ellipse fill="none" stroke="black" cx="833" cy="-189" rx="40.09" ry="18"/>
<text text-anchor="middle" x="833" y="-185.3" font-family="Times,serif" font-size="14.00">is_some</text>
</g>
<!-- Option::extract&#45;&gt;Option::is_some -->
<g id="edge21" class="edge">
<title>Option::extract&#45;&gt;Option::is_some</title>
<path fill="none" stroke="black" d="M837.58,-245.7C836.88,-237.25 836.03,-226.87 835.25,-217.37"/>
<polygon fill="black" stroke="black" points="838.72,-216.86 834.41,-207.18 831.74,-217.43 838.72,-216.86"/>
</g>
<!-- DiemAccount::delegated_key_rotation_capability&#45;&gt;Errors::not_published -->
<g id="edge22" class="edge">
<title>DiemAccount::delegated_key_rotation_capability&#45;&gt;Errors::not_published</title>
<path fill="none" stroke="black" d="M626.83,-252.12C650.17,-249.84 674.94,-247.64 698,-246 780.98,-240.11 802.96,-251.77 885,-238 924.75,-231.33 968.51,-217.87 1000.36,-206.9"/>
<polygon fill="black" stroke="black" points="1001.56,-210.19 1009.84,-203.58 999.25,-203.58 1001.56,-210.19"/>
</g>
<!-- DiemAccount::delegated_key_rotation_capability&#45;&gt;DiemAccount::exists_at -->
<g id="edge24" class="edge">
<title>DiemAccount::delegated_key_rotation_capability&#45;&gt;DiemAccount::exists_at</title>
<path fill="none" stroke="black" d="M497.73,-246.44C477.91,-235.22 451.7,-220.39 431.12,-208.74"/>
<polygon fill="black" stroke="black" points="432.82,-205.68 422.39,-203.8 429.37,-211.78 432.82,-205.68"/>
</g>
<!-- Option::is_none -->
<g id="node20" class="node">
<title>Option::is_none</title>
<ellipse fill="none" stroke="black" cx="748" cy="-264" rx="38.19" ry="18"/>
<text text-anchor="middle" x="748" y="-260.3" font-family="Times,serif" font-size="14.00">is_none</text>
</g>
<!-- DiemAccount::delegated_key_rotation_capability&#45;&gt;Option::is_none -->
<g id="edge23" class="edge">
<title>DiemAccount::delegated_key_rotation_capability&#45;&gt;Option::is_none</title>
<path fill="none" stroke="black" d="M659.08,-264C672.46,-264 685.84,-264 699.22,-264"/>
<polygon fill="black" stroke="black" points="699.45,-267.5 709.45,-264 699.45,-260.5 699.45,-267.5"/>
</g>
<!-- Errors::invalid_argument&#45;&gt;Errors::make -->
<g id="edge25" class="edge">
<title>Errors::invalid_argument&#45;&gt;Errors::make</title>
<path fill="none" stroke="black" d="M1435.38,-173.8C1392.57,-158.46 1325.02,-134.25 1284.08,-119.57"/>
<polygon fill="black" stroke="black" points="1285.11,-116.23 1274.52,-116.15 1282.75,-122.81 1285.11,-116.23"/>
</g>
<!-- Errors::limit_exceeded&#45;&gt;Errors::make -->
<g id="edge26" class="edge">
<title>Errors::limit_exceeded&#45;&gt;Errors::make</title>
<path fill="none" stroke="black" d="M1304.5,-171.22C1294.22,-159.32 1280.29,-143.21 1268.96,-130.1"/>
<polygon fill="black" stroke="black" points="1271.49,-127.67 1262.3,-122.39 1266.19,-132.25 1271.49,-127.67"/>
</g>
<!-- VASP::is_vasp -->
<g id="node21" class="node">
<title>VASP::is_vasp</title>
<ellipse fill="none" stroke="black" cx="1755" cy="-264" rx="37.09" ry="18"/>
<text text-anchor="middle" x="1755" y="-260.3" font-family="Times,serif" font-size="14.00">is_vasp</text>
</g>
<!-- VASP::is_same_vasp&#45;&gt;VASP::is_vasp -->
<g id="edge27" class="edge">
<title>VASP::is_same_vasp&#45;&gt;VASP::is_vasp</title>
<path fill="none" stroke="black" d="M1680.03,-326.7C1689.98,-323.14 1700.19,-318.62 1709,-313 1719.13,-306.53 1728.63,-297.38 1736.33,-288.81"/>
<polygon fill="black" stroke="black" points="1739.02,-291.05 1742.87,-281.18 1733.71,-286.49 1739.02,-291.05"/>
</g>
<!-- VASP::parent_address -->
<g id="node22" class="node">
<title>VASP::parent_address</title>
<ellipse fill="none" stroke="black" cx="1636" cy="-264" rx="63.89" ry="18"/>
<text text-anchor="middle" x="1636" y="-260.3" font-family="Times,serif" font-size="14.00">parent_address</text>
</g>
<!-- VASP::is_same_vasp&#45;&gt;VASP::parent_address -->
<g id="edge28" class="edge">
<title>VASP::is_same_vasp&#45;&gt;VASP::parent_address</title>
<path fill="none" stroke="black" d="M1636,-320.7C1636,-312.25 1636,-301.87 1636,-292.37"/>
<polygon fill="black" stroke="black" points="1639.5,-292.18 1636,-282.18 1632.5,-292.18 1639.5,-292.18"/>
</g>
<!-- Vector::is_empty -->
<g id="node23" class="node">
<title>Vector::is_empty</title>
<ellipse fill="none" stroke="black" cx="665" cy="-106" rx="43.59" ry="18"/>
<text text-anchor="middle" x="665" y="-102.3" font-family="Times,serif" font-size="14.00">is_empty</text>
</g>
<!-- Option::is_some&#45;&gt;Vector::is_empty -->
<g id="edge29" class="edge">
<title>Option::is_some&#45;&gt;Vector::is_empty</title>
<path fill="none" stroke="black" d="M797.99,-179.94C769.17,-172.96 730.88,-162.79 717,-155 705.73,-148.68 694.94,-139.45 686.14,-130.76"/>
<polygon fill="black" stroke="black" points="688.44,-128.1 678.96,-123.36 683.41,-132.98 688.44,-128.1"/>
</g>
<!-- Option::is_none&#45;&gt;Vector::is_empty -->
<g id="edge30" class="edge">
<title>Option::is_none&#45;&gt;Vector::is_empty</title>
<path fill="none" stroke="black" d="M740.03,-246.19C730.44,-226.17 713.67,-191.82 698,-163 692.53,-152.93 686.2,-142.04 680.56,-132.56"/>
<polygon fill="black" stroke="black" points="683.56,-130.76 675.42,-123.98 677.56,-134.36 683.56,-130.76"/>
</g>
<!-- VASP::is_child -->
<g id="node24" class="node">
<title>VASP::is_child</title>
<ellipse fill="none" stroke="black" cx="1749" cy="-189" rx="38.19" ry="18"/>
<text text-anchor="middle" x="1749" y="-185.3" font-family="Times,serif" font-size="14.00">is_child</text>
</g>
<!-- VASP::is_vasp&#45;&gt;VASP::is_child -->
<g id="edge31" class="edge">
<title>VASP::is_vasp&#45;&gt;VASP::is_child</title>
<path fill="none" stroke="black" d="M1753.58,-245.7C1752.88,-237.25 1752.03,-226.87 1751.25,-217.37"/>
<polygon fill="black" stroke="black" points="1754.72,-216.86 1750.41,-207.18 1747.74,-217.43 1754.72,-216.86"/>
</g>
<!-- VASP::is_parent -->
<g id="node25" class="node">
<title>VASP::is_parent</title>
<ellipse fill="none" stroke="black" cx="1641" cy="-189" rx="42.79" ry="18"/>
<text text-anchor="middle" x="1641" y="-185.3" font-family="Times,serif" font-size="14.00">is_parent</text>
</g>
<!-- VASP::is_vasp&#45;&gt;VASP::is_parent -->
<g id="edge32" class="edge">
<title>VASP::is_vasp&#45;&gt;VASP::is_parent</title>
<path fill="none" stroke="black" d="M1727.96,-251.68C1719.44,-247.74 1710.13,-243.03 1702,-238 1689.79,-230.45 1677.18,-220.87 1666.62,-212.26"/>
<polygon fill="black" stroke="black" points="1668.56,-209.32 1658.63,-205.62 1664.08,-214.71 1668.56,-209.32"/>
</g>
<!-- VASP::parent_address&#45;&gt;Errors::invalid_argument -->
<g id="edge33" class="edge">
<title>VASP::parent_address&#45;&gt;Errors::invalid_argument</title>
<path fill="none" stroke="black" d="M1593.23,-250.56C1582.24,-246.92 1570.55,-242.66 1560,-238 1542.8,-230.4 1524.54,-220.37 1509.37,-211.45"/>
<polygon fill="black" stroke="black" points="1510.74,-208.19 1500.36,-206.06 1507.15,-214.2 1510.74,-208.19"/>
</g>
<!-- VASP::parent_address&#45;&gt;VASP::is_child -->
<g id="edge34" class="edge">
<title>VASP::parent_address&#45;&gt;VASP::is_child</title>
<path fill="none" stroke="black" d="M1672.1,-249.1C1679.23,-245.82 1686.5,-242.08 1693,-238 1704.52,-230.76 1716.12,-221.26 1725.76,-212.63"/>
<polygon fill="black" stroke="black" points="1728.36,-214.99 1733.34,-205.65 1723.61,-209.84 1728.36,-214.99"/>
</g>
<!-- VASP::parent_address&#45;&gt;VASP::is_parent -->
<g id="edge35" class="edge">
<title>VASP::parent_address&#45;&gt;VASP::is_parent</title>
<path fill="none" stroke="black" d="M1637.18,-245.7C1637.76,-237.25 1638.47,-226.87 1639.13,-217.37"/>
<polygon fill="black" stroke="black" points="1642.63,-217.39 1639.82,-207.18 1635.65,-216.91 1642.63,-217.39"/>
</g>
<!-- Vector::is_empty&#45;&gt;Vector::length -->
<g id="edge36" class="edge">
<title>Vector::is_empty&#45;&gt;Vector::length</title>
<path fill="none" stroke="black" d="M688.47,-90.83C706.53,-79.94 731.62,-64.8 751.11,-53.04"/>
<polygon fill="black" stroke="black" points="753.15,-55.9 759.9,-47.73 749.53,-49.9 753.15,-55.9"/>
</g>
</g>
</svg>
