<?xml version="1.0" encoding="UTF-8" standalone="no"?>
<!DOCTYPE svg PUBLIC "-//W3C//DTD SVG 1.1//EN"
 "http://www.w3.org/Graphics/SVG/1.1/DTD/svg11.dtd">
<!-- Generated by graphviz version 2.46.1 (20210213.1702)
 -->
<!-- Title: G Pages: 1 -->
<svg width="2928pt" height="764pt"
 viewBox="0.00 0.00 2928.00 764.00" xmlns="http://www.w3.org/2000/svg" xmlns:xlink="http://www.w3.org/1999/xlink">
<g id="graph0" class="graph" transform="scale(1 1) rotate(0) translate(4 760)">
<title>G</title>
<polygon fill="white" stroke="transparent" points="-4,4 -4,-760 2924,-760 2924,4 -4,4"/>
<!-- PaymentScripts -->
<g id="node1" class="node">
<title>PaymentScripts</title>
<ellipse fill="none" stroke="black" cx="1610" cy="-738" rx="66.09" ry="18"/>
<text text-anchor="middle" x="1610" y="-734.3" font-family="Times,serif" font-size="14.00">PaymentScripts</text>
</g>
<!-- DiemAccount -->
<g id="node2" class="node">
<title>DiemAccount</title>
<ellipse fill="none" stroke="black" cx="1610" cy="-666" rx="60.39" ry="18"/>
<text text-anchor="middle" x="1610" y="-662.3" font-family="Times,serif" font-size="14.00">DiemAccount</text>
</g>
<!-- PaymentScripts&#45;&gt;DiemAccount -->
<g id="edge1" class="edge">
<title>PaymentScripts&#45;&gt;DiemAccount</title>
<path fill="none" stroke="black" d="M1610,-719.7C1610,-711.98 1610,-702.71 1610,-694.11"/>
<polygon fill="black" stroke="black" points="1613.5,-694.1 1610,-684.1 1606.5,-694.1 1613.5,-694.1"/>
</g>
<!-- Signer -->
<g id="node3" class="node">
<title>Signer</title>
<ellipse fill="none" stroke="black" cx="2247" cy="-18" rx="33.6" ry="18"/>
<text text-anchor="middle" x="2247" y="-14.3" font-family="Times,serif" font-size="14.00">Signer</text>
</g>
<!-- DiemAccount&#45;&gt;Signer -->
<g id="edge2" class="edge">
<title>DiemAccount&#45;&gt;Signer</title>
<path fill="none" stroke="black" d="M1670.43,-664.2C1896.04,-660.94 2681.63,-647.14 2788,-612 2855.18,-589.8 2920,-593.76 2920,-523 2920,-523 2920,-523 2920,-161 2920,-101.83 2875.21,-95.7 2821,-72 2725.87,-30.41 2407.88,-21.42 2290.78,-19.51"/>
<polygon fill="black" stroke="black" points="2290.79,-16.01 2280.74,-19.35 2290.68,-23.01 2290.79,-16.01"/>
</g>
<!-- Errors -->
<g id="node4" class="node">
<title>Errors</title>
<ellipse fill="none" stroke="black" cx="1156" cy="-18" rx="32.49" ry="18"/>
<text text-anchor="middle" x="1156" y="-14.3" font-family="Times,serif" font-size="14.00">Errors</text>
</g>
<!-- DiemAccount&#45;&gt;Errors -->
<g id="edge3" class="edge">
<title>DiemAccount&#45;&gt;Errors</title>
<path fill="none" stroke="black" d="M1549.48,-664.78C1288.84,-663.57 269.11,-656.02 133,-612 65.33,-590.11 0,-594.12 0,-523 0,-523 0,-523 0,-161 0,-116.47 8.53,-96.06 46,-72 91.68,-42.67 915.22,-23.94 1113.38,-19.85"/>
<polygon fill="black" stroke="black" points="1113.48,-23.35 1123.41,-19.64 1113.34,-16.35 1113.48,-23.35"/>
</g>
<!-- CoreAddresses -->
<g id="node5" class="node">
<title>CoreAddresses</title>
<ellipse fill="none" stroke="black" cx="1775" cy="-90" rx="63.89" ry="18"/>
<text text-anchor="middle" x="1775" y="-86.3" font-family="Times,serif" font-size="14.00">CoreAddresses</text>
</g>
<!-- DiemAccount&#45;&gt;CoreAddresses -->
<g id="edge4" class="edge">
<title>DiemAccount&#45;&gt;CoreAddresses</title>
<path fill="none" stroke="black" d="M1670.45,-664.26C1888.87,-661.3 2629.6,-648.62 2729,-612 2789.65,-589.66 2844,-587.63 2844,-523 2844,-523 2844,-523 2844,-233 2844,-139.75 2744.37,-166.99 2654,-144 2502.41,-105.43 2031.53,-94.66 1848.66,-91.89"/>
<polygon fill="black" stroke="black" points="1848.65,-88.39 1838.6,-91.74 1848.55,-95.39 1848.65,-88.39"/>
</g>
<!-- DiemTimestamp -->
<g id="node6" class="node">
<title>DiemTimestamp</title>
<ellipse fill="none" stroke="black" cx="1063" cy="-162" rx="71.49" ry="18"/>
<text text-anchor="middle" x="1063" y="-158.3" font-family="Times,serif" font-size="14.00">DiemTimestamp</text>
</g>
<!-- DiemAccount&#45;&gt;DiemTimestamp -->
<g id="edge5" class="edge">
<title>DiemAccount&#45;&gt;DiemTimestamp</title>
<path fill="none" stroke="black" d="M1549.65,-664.08C1307.51,-660.17 413.59,-643.7 291,-612 205.75,-589.96 114,-611.05 114,-523 114,-523 114,-523 114,-377 114,-285.36 211.96,-313.43 300,-288 432.83,-249.64 485.88,-314.91 609,-252 628.33,-242.12 622.72,-225.97 642,-216 657.18,-208.15 871.62,-183.83 988.42,-171.04"/>
<polygon fill="black" stroke="black" points="988.82,-174.52 998.38,-169.95 988.06,-167.56 988.82,-174.52"/>
</g>
<!-- SlidingNonce -->
<g id="node7" class="node">
<title>SlidingNonce</title>
<ellipse fill="none" stroke="black" cx="429" cy="-90" rx="59.29" ry="18"/>
<text text-anchor="middle" x="429" y="-86.3" font-family="Times,serif" font-size="14.00">SlidingNonce</text>
</g>
<!-- DiemAccount&#45;&gt;SlidingNonce -->
<g id="edge6" class="edge">
<title>DiemAccount&#45;&gt;SlidingNonce</title>
<path fill="none" stroke="black" d="M1549.93,-663.8C1366.01,-659.78 818.64,-645.14 746,-612 603.88,-547.17 608.87,-472.98 501,-360 423.09,-278.4 365.03,-284.3 322,-180 315.9,-165.21 313.56,-157.59 322,-144 333.61,-125.3 353.99,-112.99 373.88,-104.99"/>
<polygon fill="black" stroke="black" points="375.1,-108.27 383.25,-101.51 372.66,-101.71 375.1,-108.27"/>
</g>
<!-- Roles -->
<g id="node8" class="node">
<title>Roles</title>
<ellipse fill="none" stroke="black" cx="1775" cy="-234" rx="30.59" ry="18"/>
<text text-anchor="middle" x="1775" y="-230.3" font-family="Times,serif" font-size="14.00">Roles</text>
</g>
<!-- DiemAccount&#45;&gt;Roles -->
<g id="edge7" class="edge">
<title>DiemAccount&#45;&gt;Roles</title>
<path fill="none" stroke="black" d="M1669.98,-663.56C1861.5,-658.66 2447.43,-641.32 2475,-612 2485.96,-600.35 2484.36,-588.97 2475,-576 2400.74,-473.08 2035.78,-470.46 1933,-396 1884.63,-360.96 1896.09,-329.37 1853,-288 1838.68,-274.26 1820.44,-261.65 1805.19,-252.18"/>
<polygon fill="black" stroke="black" points="1806.98,-249.17 1796.62,-246.98 1803.36,-255.15 1806.98,-249.17"/>
</g>
<!-- Vector -->
<g id="node9" class="node">
<title>Vector</title>
<ellipse fill="none" stroke="black" cx="1186" cy="-162" rx="33.6" ry="18"/>
<text text-anchor="middle" x="1186" y="-158.3" font-family="Times,serif" font-size="14.00">Vector</text>
</g>
<!-- DiemAccount&#45;&gt;Vector -->
<g id="edge8" class="edge">
<title>DiemAccount&#45;&gt;Vector</title>
<path fill="none" stroke="black" d="M1551.56,-661.29C1416.47,-651.13 1094,-617.02 1094,-523 1094,-523 1094,-523 1094,-449 1094,-343.18 1088.76,-306.86 1143,-216 1149.23,-205.56 1157.37,-194.98 1164.9,-186.04"/>
<polygon fill="black" stroke="black" points="1167.66,-188.2 1171.56,-178.35 1162.36,-183.62 1167.66,-188.2"/>
</g>
<!-- BCS -->
<g id="node10" class="node">
<title>BCS</title>
<ellipse fill="none" stroke="black" cx="2591" cy="-162" rx="27.1" ry="18"/>
<text text-anchor="middle" x="2591" y="-158.3" font-family="Times,serif" font-size="14.00">BCS</text>
</g>
<!-- DiemAccount&#45;&gt;BCS -->
<g id="edge9" class="edge">
<title>DiemAccount&#45;&gt;BCS</title>
<path fill="none" stroke="black" d="M1670.34,-663.94C1892.35,-659.78 2653.15,-643.29 2694,-612 2812.93,-520.9 2859.03,-419.36 2787,-288 2752.56,-225.19 2671.67,-189.39 2625.29,-173.34"/>
<polygon fill="black" stroke="black" points="2626.26,-169.97 2615.67,-170.12 2624.04,-176.61 2626.26,-169.97"/>
</g>
<!-- Event -->
<g id="node11" class="node">
<title>Event</title>
<ellipse fill="none" stroke="black" cx="2494" cy="-234" rx="31.4" ry="18"/>
<text text-anchor="middle" x="2494" y="-230.3" font-family="Times,serif" font-size="14.00">Event</text>
</g>
<!-- DiemAccount&#45;&gt;Event -->
<g id="edge10" class="edge">
<title>DiemAccount&#45;&gt;Event</title>
<path fill="none" stroke="black" d="M1670.19,-664.14C1884.55,-660.8 2599.71,-647.06 2633,-612 2733.42,-506.24 2577.13,-321.8 2516.44,-257.71"/>
<polygon fill="black" stroke="black" points="2518.65,-254.96 2509.2,-250.16 2513.59,-259.81 2518.65,-254.96"/>
</g>
<!-- DiemConfig -->
<g id="node12" class="node">
<title>DiemConfig</title>
<ellipse fill="none" stroke="black" cx="2145" cy="-306" rx="54.69" ry="18"/>
<text text-anchor="middle" x="2145" y="-302.3" font-family="Times,serif" font-size="14.00">DiemConfig</text>
</g>
<!-- DiemAccount&#45;&gt;DiemConfig -->
<g id="edge11" class="edge">
<title>DiemAccount&#45;&gt;DiemConfig</title>
<path fill="none" stroke="black" d="M1670.18,-663.65C1867.54,-658.95 2484.19,-641.9 2514,-612 2635.84,-489.79 2317.32,-365.19 2192.6,-322.46"/>
<polygon fill="black" stroke="black" points="2193.5,-319.07 2182.9,-319.17 2191.25,-325.7 2193.5,-319.07"/>
</g>
<!-- Diem -->
<g id="node13" class="node">
<title>Diem</title>
<ellipse fill="none" stroke="black" cx="731" cy="-450" rx="30.59" ry="18"/>
<text text-anchor="middle" x="731" y="-446.3" font-family="Times,serif" font-size="14.00">Diem</text>
</g>
<!-- DiemAccount&#45;&gt;Diem -->
<g id="edge12" class="edge">
<title>DiemAccount&#45;&gt;Diem</title>
<path fill="none" stroke="black" d="M1549.53,-665.13C1367.86,-664.98 835.71,-660.37 776,-612 736.15,-579.72 729.87,-515.28 729.81,-478.47"/>
<polygon fill="black" stroke="black" points="733.31,-478.05 729.96,-468 726.31,-477.95 733.31,-478.05"/>
</g>
<!-- AccountLimits -->
<g id="node14" class="node">
<title>AccountLimits</title>
<ellipse fill="none" stroke="black" cx="662" cy="-306" rx="63.89" ry="18"/>
<text text-anchor="middle" x="662" y="-302.3" font-family="Times,serif" font-size="14.00">AccountLimits</text>
</g>
<!-- DiemAccount&#45;&gt;AccountLimits -->
<g id="edge13" class="edge">
<title>DiemAccount&#45;&gt;AccountLimits</title>
<path fill="none" stroke="black" d="M1550.01,-663.76C1381.47,-659.88 912.09,-646.09 852,-612 810.07,-588.21 790,-571.21 790,-523 790,-523 790,-523 790,-449 790,-394.46 737.26,-351.43 699.49,-327.6"/>
<polygon fill="black" stroke="black" points="701.08,-324.48 690.73,-322.25 697.43,-330.45 701.08,-324.48"/>
</g>
<!-- XUS -->
<g id="node15" class="node">
<title>XUS</title>
<ellipse fill="none" stroke="black" cx="549" cy="-522" rx="28.7" ry="18"/>
<text text-anchor="middle" x="549" y="-518.3" font-family="Times,serif" font-size="14.00">XUS</text>
</g>
<!-- DiemAccount&#45;&gt;XUS -->
<g id="edge14" class="edge">
<title>DiemAccount&#45;&gt;XUS</title>
<path fill="none" stroke="black" d="M1549.4,-665.39C1342.38,-666.26 671.65,-664.91 592,-612 570.97,-598.03 559.91,-570.72 554.3,-550.01"/>
<polygon fill="black" stroke="black" points="557.68,-549.07 551.91,-540.18 550.88,-550.73 557.68,-549.07"/>
</g>
<!-- XDX -->
<g id="node16" class="node">
<title>XDX</title>
<ellipse fill="none" stroke="black" cx="333" cy="-522" rx="29.8" ry="18"/>
<text text-anchor="middle" x="333" y="-518.3" font-family="Times,serif" font-size="14.00">XDX</text>
</g>
<!-- DiemAccount&#45;&gt;XDX -->
<g id="edge15" class="edge">
<title>DiemAccount&#45;&gt;XDX</title>
<path fill="none" stroke="black" d="M1549.43,-664.35C1305.85,-661.49 408.6,-648.51 361,-612 342.28,-597.65 335.8,-570.83 333.69,-550.37"/>
<polygon fill="black" stroke="black" points="337.18,-550.06 332.94,-540.35 330.19,-550.58 337.18,-550.06"/>
</g>
<!-- ValidatorOperatorConfig -->
<g id="node17" class="node">
<title>ValidatorOperatorConfig</title>
<ellipse fill="none" stroke="black" cx="1374" cy="-306" rx="98.28" ry="18"/>
<text text-anchor="middle" x="1374" y="-302.3" font-family="Times,serif" font-size="14.00">ValidatorOperatorConfig</text>
</g>
<!-- DiemAccount&#45;&gt;ValidatorOperatorConfig -->
<g id="edge16" class="edge">
<title>DiemAccount&#45;&gt;ValidatorOperatorConfig</title>
<path fill="none" stroke="black" d="M1617.69,-647.91C1628.79,-621.62 1648,-569.45 1648,-523 1648,-523 1648,-523 1648,-449 1648,-365.89 1547.4,-331.36 1468.12,-317.06"/>
<polygon fill="black" stroke="black" points="1468.52,-313.57 1458.07,-315.33 1467.33,-320.47 1468.52,-313.57"/>
</g>
<!-- Option -->
<g id="node18" class="node">
<title>Option</title>
<ellipse fill="none" stroke="black" cx="843" cy="-234" rx="35.19" ry="18"/>
<text text-anchor="middle" x="843" y="-230.3" font-family="Times,serif" font-size="14.00">Option</text>
</g>
<!-- DiemAccount&#45;&gt;Option -->
<g id="edge17" class="edge">
<title>DiemAccount&#45;&gt;Option</title>
<path fill="none" stroke="black" d="M1549.63,-664.11C1303.62,-660.28 387.38,-643.92 335,-612 239.34,-553.7 260.49,-437.9 341,-360 407.12,-296.02 688.97,-254.38 798.87,-240.31"/>
<polygon fill="black" stroke="black" points="799.47,-243.76 808.96,-239.03 798.59,-236.81 799.47,-243.76"/>
</g>
<!-- ValidatorConfig -->
<g id="node19" class="node">
<title>ValidatorConfig</title>
<ellipse fill="none" stroke="black" cx="1322" cy="-378" rx="66.89" ry="18"/>
<text text-anchor="middle" x="1322" y="-374.3" font-family="Times,serif" font-size="14.00">ValidatorConfig</text>
</g>
<!-- DiemAccount&#45;&gt;ValidatorConfig -->
<g id="edge18" class="edge">
<title>DiemAccount&#45;&gt;ValidatorConfig</title>
<path fill="none" stroke="black" d="M1610.94,-647.74C1612.28,-604.67 1609.42,-491.62 1548,-432 1525.97,-410.62 1450.12,-395.91 1392.31,-387.51"/>
<polygon fill="black" stroke="black" points="1392.5,-384.01 1382.11,-386.07 1391.52,-390.94 1392.5,-384.01"/>
</g>
<!-- VASP -->
<g id="node20" class="node">
<title>VASP</title>
<ellipse fill="none" stroke="black" cx="1154" cy="-378" rx="32.49" ry="18"/>
<text text-anchor="middle" x="1154" y="-374.3" font-family="Times,serif" font-size="14.00">VASP</text>
</g>
<!-- DiemAccount&#45;&gt;VASP -->
<g id="edge19" class="edge">
<title>DiemAccount&#45;&gt;VASP</title>
<path fill="none" stroke="black" d="M1585.16,-649.42C1507.16,-600.5 1267.31,-450.07 1183.38,-397.42"/>
<polygon fill="black" stroke="black" points="1185.17,-394.42 1174.84,-392.07 1181.45,-400.35 1185.17,-394.42"/>
</g>
<!-- TransactionFee -->
<g id="node21" class="node">
<title>TransactionFee</title>
<ellipse fill="none" stroke="black" cx="435" cy="-594" rx="64.99" ry="18"/>
<text text-anchor="middle" x="435" y="-590.3" font-family="Times,serif" font-size="14.00">TransactionFee</text>
</g>
<!-- DiemAccount&#45;&gt;TransactionFee -->
<g id="edge20" class="edge">
<title>DiemAccount&#45;&gt;TransactionFee</title>
<path fill="none" stroke="black" d="M1549.78,-664.19C1387.26,-661.52 926.23,-650.84 545,-612 529.93,-610.46 513.77,-608.27 498.6,-605.98"/>
<polygon fill="black" stroke="black" points="498.71,-602.45 488.29,-604.37 497.63,-609.37 498.71,-602.45"/>
</g>
<!-- Hash -->
<g id="node22" class="node">
<title>Hash</title>
<ellipse fill="none" stroke="black" cx="2595" cy="-594" rx="28.7" ry="18"/>
<text text-anchor="middle" x="2595" y="-590.3" font-family="Times,serif" font-size="14.00">Hash</text>
</g>
<!-- DiemAccount&#45;&gt;Hash -->
<g id="edge21" class="edge">
<title>DiemAccount&#45;&gt;Hash</title>
<path fill="none" stroke="black" d="M1670.16,-664.12C1850.21,-661.1 2382.82,-649.18 2552,-612 2555.67,-611.19 2559.43,-610.12 2563.12,-608.89"/>
<polygon fill="black" stroke="black" points="2564.48,-612.12 2572.66,-605.4 2562.07,-605.55 2564.48,-612.12"/>
</g>
<!-- DualAttestation -->
<g id="node23" class="node">
<title>DualAttestation</title>
<ellipse fill="none" stroke="black" cx="1800" cy="-594" rx="66.09" ry="18"/>
<text text-anchor="middle" x="1800" y="-590.3" font-family="Times,serif" font-size="14.00">DualAttestation</text>
</g>
<!-- DiemAccount&#45;&gt;DualAttestation -->
<g id="edge22" class="edge">
<title>DiemAccount&#45;&gt;DualAttestation</title>
<path fill="none" stroke="black" d="M1646.63,-651.5C1676.86,-640.37 1719.97,-624.49 1752.78,-612.4"/>
<polygon fill="black" stroke="black" points="1754,-615.68 1762.18,-608.93 1751.58,-609.11 1754,-615.68"/>
</g>
<!-- DiemTransactionPublishingOption -->
<g id="node24" class="node">
<title>DiemTransactionPublishingOption</title>
<ellipse fill="none" stroke="black" cx="2076" cy="-378" rx="133.78" ry="18"/>
<text text-anchor="middle" x="2076" y="-374.3" font-family="Times,serif" font-size="14.00">DiemTransactionPublishingOption</text>
</g>
<!-- DiemAccount&#45;&gt;DiemTransactionPublishingOption -->
<g id="edge23" class="edge">
<title>DiemAccount&#45;&gt;DiemTransactionPublishingOption</title>
<path fill="none" stroke="black" d="M1670.24,-663.98C1726.66,-660.57 1811.58,-649.01 1875,-612 1964.08,-560.02 2033.12,-453.93 2061.68,-404.9"/>
<polygon fill="black" stroke="black" points="2064.75,-406.58 2066.69,-396.16 2058.68,-403.1 2064.75,-406.58"/>
</g>
<!-- DesignatedDealer -->
<g id="node25" class="node">
<title>DesignatedDealer</title>
<ellipse fill="none" stroke="black" cx="2393" cy="-594" rx="73.39" ry="18"/>
<text text-anchor="middle" x="2393" y="-590.3" font-family="Times,serif" font-size="14.00">DesignatedDealer</text>
</g>
<!-- DiemAccount&#45;&gt;DesignatedDealer -->
<g id="edge24" class="edge">
<title>DiemAccount&#45;&gt;DesignatedDealer</title>
<path fill="none" stroke="black" d="M1669.83,-662.8C1790.57,-657.85 2071.83,-643.68 2306,-612 2313.72,-610.96 2321.79,-609.66 2329.77,-608.25"/>
<polygon fill="black" stroke="black" points="2330.58,-611.66 2339.79,-606.42 2329.33,-604.77 2330.58,-611.66"/>
</g>
<!-- ChainId -->
<g id="node26" class="node">
<title>ChainId</title>
<ellipse fill="none" stroke="black" cx="561" cy="-234" rx="38.99" ry="18"/>
<text text-anchor="middle" x="561" y="-230.3" font-family="Times,serif" font-size="14.00">ChainId</text>
</g>
<!-- DiemAccount&#45;&gt;ChainId -->
<g id="edge25" class="edge">
<title>DiemAccount&#45;&gt;ChainId</title>
<path fill="none" stroke="black" d="M1549.4,-664.69C1449.9,-662.92 1246.34,-653.92 1080,-612 980.12,-586.82 866,-626.01 866,-523 866,-523 866,-523 866,-449 866,-356.75 811.57,-339.46 735,-288 696.55,-262.16 645.02,-248.53 608.04,-241.6"/>
<polygon fill="black" stroke="black" points="608.47,-238.12 598.01,-239.82 607.25,-245.02 608.47,-238.12"/>
</g>
<!-- AccountFreezing -->
<g id="node27" class="node">
<title>AccountFreezing</title>
<ellipse fill="none" stroke="black" cx="2707" cy="-306" rx="71.49" ry="18"/>
<text text-anchor="middle" x="2707" y="-302.3" font-family="Times,serif" font-size="14.00">AccountFreezing</text>
</g>
<!-- DiemAccount&#45;&gt;AccountFreezing -->
<g id="edge26" class="edge">
<title>DiemAccount&#45;&gt;AccountFreezing</title>
<path fill="none" stroke="black" d="M1670.24,-663.81C1888.3,-659.28 2625.82,-641.79 2666,-612 2699.77,-586.97 2698,-565.03 2698,-523 2698,-523 2698,-523 2698,-449 2698,-408.92 2701.62,-362.59 2704.26,-334.05"/>
<polygon fill="black" stroke="black" points="2707.75,-334.31 2705.22,-324.03 2700.79,-333.65 2707.75,-334.31"/>
</g>
<!-- CoreAddresses&#45;&gt;Signer -->
<g id="edge27" class="edge">
<title>CoreAddresses&#45;&gt;Signer</title>
<path fill="none" stroke="black" d="M1830.07,-80.83C1925.43,-66.69 2119.29,-37.94 2204.83,-25.25"/>
<polygon fill="black" stroke="black" points="2205.58,-28.68 2214.95,-23.75 2204.55,-21.76 2205.58,-28.68"/>
</g>
<!-- CoreAddresses&#45;&gt;Errors -->
<g id="edge28" class="edge">
<title>CoreAddresses&#45;&gt;Errors</title>
<path fill="none" stroke="black" d="M1717.04,-82.45C1593.28,-68.45 1305.68,-35.93 1197.84,-23.73"/>
<polygon fill="black" stroke="black" points="1198.01,-20.23 1187.68,-22.58 1197.22,-27.18 1198.01,-20.23"/>
</g>
<!-- DiemTimestamp&#45;&gt;Errors -->
<g id="edge29" class="edge">
<title>DiemTimestamp&#45;&gt;Errors</title>
<path fill="none" stroke="black" d="M1074.03,-144.15C1090.27,-119.36 1120.71,-72.88 1139.58,-44.07"/>
<polygon fill="black" stroke="black" points="1142.72,-45.67 1145.27,-35.39 1136.86,-41.83 1142.72,-45.67"/>
</g>
<!-- DiemTimestamp&#45;&gt;CoreAddresses -->
<g id="edge30" class="edge">
<title>DiemTimestamp&#45;&gt;CoreAddresses</title>
<path fill="none" stroke="black" d="M1113.61,-149.24C1123.33,-147.27 1133.45,-145.41 1143,-144 1344.37,-114.28 1584.47,-99.85 1702.36,-94.12"/>
<polygon fill="black" stroke="black" points="1702.54,-97.61 1712.36,-93.64 1702.2,-90.62 1702.54,-97.61"/>
</g>
<!-- SlidingNonce&#45;&gt;Signer -->
<g id="edge31" class="edge">
<title>SlidingNonce&#45;&gt;Signer</title>
<path fill="none" stroke="black" d="M471.97,-77.5C481.78,-75.3 492.19,-73.28 502,-72 674.96,-49.46 1947.79,-24.6 2202.65,-19.82"/>
<polygon fill="black" stroke="black" points="2203.06,-23.31 2213,-19.63 2202.93,-16.31 2203.06,-23.31"/>
</g>
<!-- SlidingNonce&#45;&gt;Errors -->
<g id="edge32" class="edge">
<title>SlidingNonce&#45;&gt;Errors</title>
<path fill="none" stroke="black" d="M472.8,-77.69C482.37,-75.53 492.49,-73.48 502,-72 730.78,-36.29 1008.57,-23.87 1113.31,-20.27"/>
<polygon fill="black" stroke="black" points="1113.6,-23.77 1123.48,-19.93 1113.37,-16.77 1113.6,-23.77"/>
</g>
<!-- Roles&#45;&gt;Signer -->
<g id="edge33" class="edge">
<title>Roles&#45;&gt;Signer</title>
<path fill="none" stroke="black" d="M1805.17,-230.7C1862.02,-225.78 1988.42,-211.93 2090,-180 2161.31,-157.59 2200.27,-170.02 2242,-108 2254.12,-89.99 2254.46,-65 2252.29,-46.09"/>
<polygon fill="black" stroke="black" points="2255.73,-45.42 2250.84,-36.02 2248.8,-46.41 2255.73,-45.42"/>
</g>
<!-- Roles&#45;&gt;Errors -->
<g id="edge34" class="edge">
<title>Roles&#45;&gt;Errors</title>
<path fill="none" stroke="black" d="M1753.27,-221.29C1698.12,-192.02 1547.6,-114.95 1414,-72 1339.27,-47.97 1248.74,-32.34 1197.21,-24.64"/>
<polygon fill="black" stroke="black" points="1197.54,-21.15 1187.14,-23.17 1196.52,-28.08 1197.54,-21.15"/>
</g>
<!-- Roles&#45;&gt;CoreAddresses -->
<g id="edge35" class="edge">
<title>Roles&#45;&gt;CoreAddresses</title>
<path fill="none" stroke="black" d="M1775,-215.87C1775,-191.67 1775,-147.21 1775,-118.39"/>
<polygon fill="black" stroke="black" points="1778.5,-118.19 1775,-108.19 1771.5,-118.19 1778.5,-118.19"/>
</g>
<!-- Roles&#45;&gt;DiemTimestamp -->
<g id="edge36" class="edge">
<title>Roles&#45;&gt;DiemTimestamp</title>
<path fill="none" stroke="black" d="M1744.59,-231.81C1653.14,-227.93 1372.84,-213.92 1143,-180 1136.73,-179.07 1130.22,-177.96 1123.73,-176.74"/>
<polygon fill="black" stroke="black" points="1124.1,-173.24 1113.61,-174.76 1122.75,-180.11 1124.1,-173.24"/>
</g>
<!-- Event&#45;&gt;Signer -->
<g id="edge37" class="edge">
<title>Event&#45;&gt;Signer</title>
<path fill="none" stroke="black" d="M2497.06,-215.85C2501.8,-183.28 2506.89,-112.18 2470,-72 2446.07,-45.94 2347.79,-30.51 2289.99,-23.52"/>
<polygon fill="black" stroke="black" points="2290.38,-20.04 2280.04,-22.35 2289.57,-26.99 2290.38,-20.04"/>
</g>
<!-- Event&#45;&gt;Errors -->
<g id="edge38" class="edge">
<title>Event&#45;&gt;Errors</title>
<path fill="none" stroke="black" d="M2480.13,-217.57C2461.97,-198.16 2428.39,-164.84 2394,-144 2316.77,-97.2 2292.39,-90.5 2204,-72 2007.08,-30.77 1369.82,-21.23 1198.65,-19.39"/>
<polygon fill="black" stroke="black" points="1198.56,-15.89 1188.52,-19.29 1198.48,-22.89 1198.56,-15.89"/>
</g>
<!-- Event&#45;&gt;Vector -->
<g id="edge39" class="edge">
<title>Event&#45;&gt;Vector</title>
<path fill="none" stroke="black" d="M2462.96,-231.34C2288.71,-222.01 1432.79,-176.21 1229.41,-165.32"/>
<polygon fill="black" stroke="black" points="1229.58,-161.83 1219.4,-164.79 1229.2,-168.82 1229.58,-161.83"/>
</g>
<!-- Event&#45;&gt;BCS -->
<g id="edge40" class="edge">
<title>Event&#45;&gt;BCS</title>
<path fill="none" stroke="black" d="M2512.7,-219.5C2527.61,-208.74 2548.65,-193.56 2565.17,-181.64"/>
<polygon fill="black" stroke="black" points="2567.27,-184.44 2573.34,-175.75 2563.18,-178.76 2567.27,-184.44"/>
</g>
<!-- DiemConfig&#45;&gt;Signer -->
<g id="edge41" class="edge">
<title>DiemConfig&#45;&gt;Signer</title>
<path fill="none" stroke="black" d="M2159.08,-288.53C2185.5,-256.41 2241.67,-182.03 2262,-108 2267.71,-87.19 2262.94,-63.01 2257.3,-45.11"/>
<polygon fill="black" stroke="black" points="2260.61,-43.95 2254.06,-35.62 2253.98,-46.21 2260.61,-43.95"/>
</g>
<!-- DiemConfig&#45;&gt;Errors -->
<g id="edge42" class="edge">
<title>DiemConfig&#45;&gt;Errors</title>
<path fill="none" stroke="black" d="M2136.81,-287.95C2127.41,-269.28 2110.83,-238.93 2092,-216 2012.09,-118.69 1970.16,-102.55 1848,-72 1723.81,-40.94 1329,-24.93 1198.4,-20.38"/>
<polygon fill="black" stroke="black" points="1198.5,-16.88 1188.38,-20.04 1198.26,-23.88 1198.5,-16.88"/>
</g>
<!-- DiemConfig&#45;&gt;CoreAddresses -->
<g id="edge43" class="edge">
<title>DiemConfig&#45;&gt;CoreAddresses</title>
<path fill="none" stroke="black" d="M2129.87,-288.65C2095.46,-251.79 2011.55,-163.86 1976,-144 1934.61,-120.88 1882.77,-107.53 1842.11,-100.01"/>
<polygon fill="black" stroke="black" points="1842.48,-96.52 1832.02,-98.23 1841.26,-103.42 1842.48,-96.52"/>
</g>
<!-- DiemConfig&#45;&gt;DiemTimestamp -->
<g id="edge44" class="edge">
<title>DiemConfig&#45;&gt;DiemTimestamp</title>
<path fill="none" stroke="black" d="M2108.43,-292.42C2048.14,-272.3 1923.69,-233.37 1815,-216 1519.65,-168.8 1439.51,-219.2 1143,-180 1136.63,-179.16 1130,-178.08 1123.42,-176.88"/>
<polygon fill="black" stroke="black" points="1123.63,-173.36 1113.15,-174.91 1122.31,-180.23 1123.63,-173.36"/>
</g>
<!-- DiemConfig&#45;&gt;Roles -->
<g id="edge45" class="edge">
<title>DiemConfig&#45;&gt;Roles</title>
<path fill="none" stroke="black" d="M2093.67,-299.83C2029.05,-292.6 1914.99,-277.41 1820,-252 1816.4,-251.04 1812.69,-249.89 1809.01,-248.66"/>
<polygon fill="black" stroke="black" points="1810.06,-245.32 1799.47,-245.25 1807.71,-251.91 1810.06,-245.32"/>
</g>
<!-- DiemConfig&#45;&gt;Event -->
<g id="edge46" class="edge">
<title>DiemConfig&#45;&gt;Event</title>
<path fill="none" stroke="black" d="M2190.27,-295.92C2259.42,-282.05 2390.17,-255.82 2455.22,-242.78"/>
<polygon fill="black" stroke="black" points="2455.96,-246.2 2465.08,-240.8 2454.59,-239.34 2455.96,-246.2"/>
</g>
<!-- Diem&#45;&gt;Signer -->
<g id="edge47" class="edge">
<title>Diem&#45;&gt;Signer</title>
<path fill="none" stroke="black" d="M710.87,-436.39C660.4,-404.75 532.42,-324.5 532,-324 480.33,-262.21 488.7,-192.51 553,-144 632.1,-84.32 666.55,-89.96 764,-72 908.49,-45.37 1973.04,-24.11 2203.2,-19.8"/>
<polygon fill="black" stroke="black" points="2203.28,-23.3 2213.22,-19.61 2203.15,-16.3 2203.28,-23.3"/>
</g>
<!-- Diem&#45;&gt;Errors -->
<g id="edge48" class="edge">
<title>Diem&#45;&gt;Errors</title>
<path fill="none" stroke="black" d="M707.82,-438.06C671.17,-420.87 597.47,-386.73 534,-360 424.71,-313.96 353.42,-352.21 290,-252 262.07,-207.86 235.36,-142.98 314,-72 373.65,-18.16 949.67,-17.68 1113.02,-18.64"/>
<polygon fill="black" stroke="black" points="1113.15,-22.14 1123.17,-18.7 1113.19,-15.14 1113.15,-22.14"/>
</g>
<!-- Diem&#45;&gt;CoreAddresses -->
<g id="edge49" class="edge">
<title>Diem&#45;&gt;CoreAddresses</title>
<path fill="none" stroke="black" d="M718.62,-433.3C703.3,-414.5 675.84,-382.7 648,-360 588.45,-311.44 543.36,-322.58 513,-252 506.68,-237.3 503.38,-228.78 513,-216 582.53,-123.62 648.97,-163.15 763,-144 943.67,-113.66 1500.1,-97.61 1701.38,-92.68"/>
<polygon fill="black" stroke="black" points="1701.64,-96.17 1711.55,-92.43 1701.47,-89.17 1701.64,-96.17"/>
</g>
<!-- Diem&#45;&gt;DiemTimestamp -->
<g id="edge50" class="edge">
<title>Diem&#45;&gt;DiemTimestamp</title>
<path fill="none" stroke="black" d="M736.17,-431.82C746.56,-399.84 772.74,-330.56 816,-288 841.22,-263.19 857.47,-271.48 887,-252 907.81,-238.28 908.6,-228.77 930,-216 954.87,-201.15 984.66,-188.84 1009.73,-179.83"/>
<polygon fill="black" stroke="black" points="1011.17,-183.04 1019.45,-176.42 1008.85,-176.43 1011.17,-183.04"/>
</g>
<!-- Diem&#45;&gt;Roles -->
<g id="edge51" class="edge">
<title>Diem&#45;&gt;Roles</title>
<path fill="none" stroke="black" d="M761.7,-449.58C857.24,-450.74 1157.33,-449.57 1398,-396 1486.96,-376.2 1511.27,-369.91 1590,-324 1611.53,-311.45 1611.45,-300.52 1633,-288 1672.76,-264.9 1686.94,-268.13 1730,-252 1733.31,-250.76 1736.75,-249.47 1740.19,-248.17"/>
<polygon fill="black" stroke="black" points="1741.66,-251.36 1749.78,-244.56 1739.19,-244.81 1741.66,-251.36"/>
</g>
<!-- Diem&#45;&gt;Vector -->
<g id="edge53" class="edge">
<title>Diem&#45;&gt;Vector</title>
<path fill="none" stroke="black" d="M743.19,-433.31C776.96,-391.01 876.54,-273.87 987,-216 1050.03,-182.98 1075.06,-201.14 1143,-180 1145.57,-179.2 1148.2,-178.32 1150.84,-177.39"/>
<polygon fill="black" stroke="black" points="1152.14,-180.64 1160.3,-173.88 1149.71,-174.08 1152.14,-180.64"/>
</g>
<!-- Diem&#45;&gt;Event -->
<g id="edge54" class="edge">
<title>Diem&#45;&gt;Event</title>
<path fill="none" stroke="black" d="M761.67,-448.73C961.41,-446.84 2073.55,-434.65 2219,-396 2320.93,-368.91 2423.55,-292.89 2469.31,-255.83"/>
<polygon fill="black" stroke="black" points="2471.66,-258.43 2477.17,-249.39 2467.22,-253.01 2471.66,-258.43"/>
</g>
<!-- FixedPoint32 -->
<g id="node28" class="node">
<title>FixedPoint32</title>
<ellipse fill="none" stroke="black" cx="434" cy="-378" rx="57.69" ry="18"/>
<text text-anchor="middle" x="434" y="-374.3" font-family="Times,serif" font-size="14.00">FixedPoint32</text>
</g>
<!-- Diem&#45;&gt;FixedPoint32 -->
<g id="edge52" class="edge">
<title>Diem&#45;&gt;FixedPoint32</title>
<path fill="none" stroke="black" d="M703.06,-442.41C654.06,-430.87 551.82,-406.77 488.44,-391.83"/>
<polygon fill="black" stroke="black" points="489.15,-388.4 478.61,-389.51 487.54,-395.22 489.15,-388.4"/>
</g>
<!-- RegisteredCurrencies -->
<g id="node29" class="node">
<title>RegisteredCurrencies</title>
<ellipse fill="none" stroke="black" cx="980" cy="-378" rx="86.38" ry="18"/>
<text text-anchor="middle" x="980" y="-374.3" font-family="Times,serif" font-size="14.00">RegisteredCurrencies</text>
</g>
<!-- Diem&#45;&gt;RegisteredCurrencies -->
<g id="edge55" class="edge">
<title>Diem&#45;&gt;RegisteredCurrencies</title>
<path fill="none" stroke="black" d="M758.12,-441.38C796.96,-430.46 869.42,-410.09 920.96,-395.6"/>
<polygon fill="black" stroke="black" points="921.97,-398.95 930.65,-392.87 920.07,-392.21 921.97,-398.95"/>
</g>
<!-- AccountLimits&#45;&gt;Signer -->
<g id="edge56" class="edge">
<title>AccountLimits&#45;&gt;Signer</title>
<path fill="none" stroke="black" d="M613.78,-294.21C574.97,-284.43 524.99,-268.99 513,-252 503.77,-238.93 504.5,-229.55 513,-216 572.37,-121.37 943.85,-74.92 965,-72 1211.88,-37.89 2006.6,-22.92 2202.86,-19.69"/>
<polygon fill="black" stroke="black" points="2203.14,-23.18 2213.08,-19.52 2203.03,-16.18 2203.14,-23.18"/>
</g>
<!-- AccountLimits&#45;&gt;Errors -->
<g id="edge57" class="edge">
<title>AccountLimits&#45;&gt;Errors</title>
<path fill="none" stroke="black" d="M613.26,-294.23C567.18,-283.45 501.93,-266.42 480,-252 399.87,-199.3 295.48,-142.03 361,-72 412.62,-16.83 955.17,-17.22 1113.1,-18.53"/>
<polygon fill="black" stroke="black" points="1113.34,-22.03 1123.37,-18.62 1113.4,-15.03 1113.34,-22.03"/>
</g>
<!-- AccountLimits&#45;&gt;DiemTimestamp -->
<g id="edge58" class="edge">
<title>AccountLimits&#45;&gt;DiemTimestamp</title>
<path fill="none" stroke="black" d="M692.06,-289.87C710.94,-279.93 735.51,-266.18 756,-252 776.5,-237.82 776.53,-226.79 799,-216 832.47,-199.93 926.05,-183.4 992.25,-173.16"/>
<polygon fill="black" stroke="black" points="992.87,-176.61 1002.22,-171.64 991.81,-169.69 992.87,-176.61"/>
</g>
<!-- AccountLimits&#45;&gt;Roles -->
<g id="edge59" class="edge">
<title>AccountLimits&#45;&gt;Roles</title>
<path fill="none" stroke="black" d="M723.43,-301.14C925.53,-288.43 1566.49,-248.11 1734.41,-237.55"/>
<polygon fill="black" stroke="black" points="1734.79,-241.04 1744.55,-236.92 1734.35,-234.05 1734.79,-241.04"/>
</g>
<!-- XUS&#45;&gt;DiemTimestamp -->
<g id="edge60" class="edge">
<title>XUS&#45;&gt;DiemTimestamp</title>
<path fill="none" stroke="black" d="M546.38,-504.07C540.85,-461.75 532.76,-350.3 589,-288 628.89,-243.82 666.2,-281.33 718,-252 738.24,-240.54 735.2,-226.43 756,-216 795.68,-196.11 910.67,-179.94 988.1,-170.89"/>
<polygon fill="black" stroke="black" points="988.76,-174.34 998.29,-169.72 987.95,-167.39 988.76,-174.34"/>
</g>
<!-- XUS&#45;&gt;Diem -->
<g id="edge62" class="edge">
<title>XUS&#45;&gt;Diem</title>
<path fill="none" stroke="black" d="M572.79,-511.85C604.32,-499.72 660.18,-478.24 696.38,-464.32"/>
<polygon fill="black" stroke="black" points="697.96,-467.46 706.03,-460.6 695.44,-460.93 697.96,-467.46"/>
</g>
<!-- XUS&#45;&gt;AccountLimits -->
<g id="edge63" class="edge">
<title>XUS&#45;&gt;AccountLimits</title>
<path fill="none" stroke="black" d="M557.68,-504.56C577.18,-467.63 624.59,-377.84 648.19,-333.15"/>
<polygon fill="black" stroke="black" points="651.4,-334.56 652.98,-324.09 645.21,-331.29 651.4,-334.56"/>
</g>
<!-- XUS&#45;&gt;FixedPoint32 -->
<g id="edge61" class="edge">
<title>XUS&#45;&gt;FixedPoint32</title>
<path fill="none" stroke="black" d="M536.47,-505.53C516.66,-481.06 477.9,-433.2 454.14,-403.87"/>
<polygon fill="black" stroke="black" points="456.59,-401.33 447.58,-395.76 451.15,-405.74 456.59,-401.33"/>
</g>
<!-- XDX&#45;&gt;Errors -->
<g id="edge64" class="edge">
<title>XDX&#45;&gt;Errors</title>
<path fill="none" stroke="black" d="M303.52,-518.46C236.01,-510.85 76,-481.97 76,-379 76,-379 76,-379 76,-161 76,-110.68 101.32,-95.17 146,-72 232.73,-27.02 932.07,-20.19 1113.26,-19.17"/>
<polygon fill="black" stroke="black" points="1113.48,-22.67 1123.46,-19.12 1113.44,-15.67 1113.48,-22.67"/>
</g>
<!-- XDX&#45;&gt;CoreAddresses -->
<g id="edge65" class="edge">
<title>XDX&#45;&gt;CoreAddresses</title>
<path fill="none" stroke="black" d="M325.3,-504.22C321.04,-493.99 316.18,-480.52 314,-468 311.26,-452.24 313.48,-447.99 314,-432 318.21,-302 255.89,-213.24 366,-144 422.9,-108.22 1419.53,-94.82 1701.33,-91.74"/>
<polygon fill="black" stroke="black" points="1701.48,-95.24 1711.44,-91.63 1701.4,-88.24 1701.48,-95.24"/>
</g>
<!-- XDX&#45;&gt;DiemTimestamp -->
<g id="edge66" class="edge">
<title>XDX&#45;&gt;DiemTimestamp</title>
<path fill="none" stroke="black" d="M327.78,-504.15C318.92,-471.79 305.13,-400.57 341,-360 393.37,-300.77 611.67,-291.78 680,-252 700.11,-240.29 697.11,-226.23 718,-216 763.94,-193.5 899.31,-177.63 986.2,-169.43"/>
<polygon fill="black" stroke="black" points="986.65,-172.9 996.28,-168.49 986,-165.93 986.65,-172.9"/>
</g>
<!-- XDX&#45;&gt;Diem -->
<g id="edge68" class="edge">
<title>XDX&#45;&gt;Diem</title>
<path fill="none" stroke="black" d="M361.3,-516.02C431.16,-503.74 611.88,-471.95 691.89,-457.88"/>
<polygon fill="black" stroke="black" points="692.8,-461.27 702.04,-456.09 691.58,-454.38 692.8,-461.27"/>
</g>
<!-- XDX&#45;&gt;AccountLimits -->
<g id="edge69" class="edge">
<title>XDX&#45;&gt;AccountLimits</title>
<path fill="none" stroke="black" d="M331.02,-504.03C328.21,-471.15 327.22,-398.59 367,-360 383.18,-344.31 512.6,-325.58 594.56,-315.11"/>
<polygon fill="black" stroke="black" points="595.07,-318.57 604.56,-313.84 594.2,-311.63 595.07,-318.57"/>
</g>
<!-- XDX&#45;&gt;FixedPoint32 -->
<g id="edge67" class="edge">
<title>XDX&#45;&gt;FixedPoint32</title>
<path fill="none" stroke="black" d="M344.19,-505.26C361.6,-480.79 395.32,-433.38 416.12,-404.14"/>
<polygon fill="black" stroke="black" points="419.19,-405.86 422.13,-395.69 413.48,-401.81 419.19,-405.86"/>
</g>
<!-- ValidatorOperatorConfig&#45;&gt;Signer -->
<g id="edge70" class="edge">
<title>ValidatorOperatorConfig&#45;&gt;Signer</title>
<path fill="none" stroke="black" d="M1424.08,-290.48C1493.38,-270.89 1622.7,-236.13 1735,-216 1874.57,-190.98 1923.45,-239.85 2052,-180 2073.09,-170.18 2070.8,-157.14 2090,-144 2120.84,-122.88 2135.96,-130.24 2166,-108 2190.86,-89.59 2214.07,-62.7 2229.21,-43.3"/>
<polygon fill="black" stroke="black" points="2232.09,-45.3 2235.38,-35.23 2226.53,-41.04 2232.09,-45.3"/>
</g>
<!-- ValidatorOperatorConfig&#45;&gt;Errors -->
<g id="edge71" class="edge">
<title>ValidatorOperatorConfig&#45;&gt;Errors</title>
<path fill="none" stroke="black" d="M1376.97,-287.83C1383.24,-245.45 1393.08,-134.76 1338,-72 1303.28,-32.44 1240.9,-21.62 1198.98,-19.08"/>
<polygon fill="black" stroke="black" points="1198.94,-15.57 1188.79,-18.59 1198.61,-22.56 1198.94,-15.57"/>
</g>
<!-- ValidatorOperatorConfig&#45;&gt;DiemTimestamp -->
<g id="edge72" class="edge">
<title>ValidatorOperatorConfig&#45;&gt;DiemTimestamp</title>
<path fill="none" stroke="black" d="M1340.88,-288.89C1303.46,-270.78 1240.62,-240.69 1186,-216 1160.11,-204.3 1130.92,-191.7 1107.48,-181.72"/>
<polygon fill="black" stroke="black" points="1108.71,-178.44 1098.14,-177.75 1105.97,-184.88 1108.71,-178.44"/>
</g>
<!-- ValidatorOperatorConfig&#45;&gt;Roles -->
<g id="edge73" class="edge">
<title>ValidatorOperatorConfig&#45;&gt;Roles</title>
<path fill="none" stroke="black" d="M1446.89,-293.89C1459.91,-291.92 1473.36,-289.89 1486,-288 1594.41,-271.77 1623.89,-279.53 1730,-252 1733.61,-251.06 1737.32,-249.94 1741,-248.72"/>
<polygon fill="black" stroke="black" points="1742.3,-251.97 1750.55,-245.32 1739.96,-245.37 1742.3,-251.97"/>
</g>
<!-- Option&#45;&gt;Errors -->
<g id="edge74" class="edge">
<title>Option&#45;&gt;Errors</title>
<path fill="none" stroke="black" d="M863.54,-218.96C917.85,-181.82 1065.37,-80.96 1127.65,-38.38"/>
<polygon fill="black" stroke="black" points="1129.92,-41.07 1136.2,-32.54 1125.97,-35.29 1129.92,-41.07"/>
</g>
<!-- Option&#45;&gt;Vector -->
<g id="edge75" class="edge">
<title>Option&#45;&gt;Vector</title>
<path fill="none" stroke="black" d="M875.19,-226.51C891.58,-223.25 911.83,-219.31 930,-216 1024.45,-198.79 1050.52,-205.79 1143,-180 1145.59,-179.28 1148.24,-178.45 1150.89,-177.56"/>
<polygon fill="black" stroke="black" points="1152.16,-180.83 1160.38,-174.14 1149.78,-174.24 1152.16,-180.83"/>
</g>
<!-- ValidatorConfig&#45;&gt;Signer -->
<g id="edge76" class="edge">
<title>ValidatorConfig&#45;&gt;Signer</title>
<path fill="none" stroke="black" d="M1300.01,-360.95C1277.62,-342.65 1248.61,-312.12 1267,-288 1296.99,-248.67 2026.57,-71.8 2206.95,-28.56"/>
<polygon fill="black" stroke="black" points="2207.92,-31.93 2216.83,-26.19 2206.29,-25.12 2207.92,-31.93"/>
</g>
<!-- ValidatorConfig&#45;&gt;Errors -->
<g id="edge77" class="edge">
<title>ValidatorConfig&#45;&gt;Errors</title>
<path fill="none" stroke="black" d="M1266.12,-368.01C1240.19,-360.74 1211.69,-347.62 1196,-324 1187.15,-310.67 1192.62,-303.64 1196,-288 1210.29,-221.92 1256.24,-210.66 1245,-144 1239.37,-110.6 1239.31,-99.83 1220,-72 1210.78,-58.71 1197.36,-46.9 1185.18,-37.81"/>
<polygon fill="black" stroke="black" points="1187.19,-34.95 1177.02,-31.98 1183.12,-40.64 1187.19,-34.95"/>
</g>
<!-- ValidatorConfig&#45;&gt;DiemTimestamp -->
<g id="edge78" class="edge">
<title>ValidatorConfig&#45;&gt;DiemTimestamp</title>
<path fill="none" stroke="black" d="M1263.99,-368.79C1230.18,-361.6 1188.36,-348.31 1158,-324 1113.38,-288.28 1085.19,-225.51 1071.94,-189.81"/>
<polygon fill="black" stroke="black" points="1075.13,-188.32 1068.46,-180.08 1068.54,-190.68 1075.13,-188.32"/>
</g>
<!-- ValidatorConfig&#45;&gt;Roles -->
<g id="edge80" class="edge">
<title>ValidatorConfig&#45;&gt;Roles</title>
<path fill="none" stroke="black" d="M1382.36,-370.09C1430.11,-363 1497.56,-349.3 1552,-324 1576.18,-312.76 1576.07,-299.76 1600,-288 1653.8,-261.55 1673.01,-270.61 1730,-252 1733.54,-250.84 1737.22,-249.57 1740.87,-248.26"/>
<polygon fill="black" stroke="black" points="1742.21,-251.5 1750.39,-244.76 1739.79,-244.93 1742.21,-251.5"/>
</g>
<!-- ValidatorConfig&#45;&gt;ValidatorOperatorConfig -->
<g id="edge81" class="edge">
<title>ValidatorConfig&#45;&gt;ValidatorOperatorConfig</title>
<path fill="none" stroke="black" d="M1334.59,-360.05C1340.76,-351.75 1348.31,-341.58 1355.15,-332.38"/>
<polygon fill="black" stroke="black" points="1358.01,-334.39 1361.17,-324.28 1352.39,-330.22 1358.01,-334.39"/>
</g>
<!-- ValidatorConfig&#45;&gt;Option -->
<g id="edge82" class="edge">
<title>ValidatorConfig&#45;&gt;Option</title>
<path fill="none" stroke="black" d="M1268.08,-367.32C1219.07,-358 1145.03,-342.6 1082,-324 1008.26,-302.24 924.59,-269.05 878.39,-249.95"/>
<polygon fill="black" stroke="black" points="879.7,-246.7 869.12,-246.1 877.01,-253.17 879.7,-246.7"/>
</g>
<!-- Signature -->
<g id="node30" class="node">
<title>Signature</title>
<ellipse fill="none" stroke="black" cx="1686" cy="-306" rx="44.39" ry="18"/>
<text text-anchor="middle" x="1686" y="-302.3" font-family="Times,serif" font-size="14.00">Signature</text>
</g>
<!-- ValidatorConfig&#45;&gt;Signature -->
<g id="edge79" class="edge">
<title>ValidatorConfig&#45;&gt;Signature</title>
<path fill="none" stroke="black" d="M1374.93,-366.82C1445.26,-353.3 1568.57,-329.58 1636.91,-316.44"/>
<polygon fill="black" stroke="black" points="1637.83,-319.83 1646.98,-314.5 1636.5,-312.95 1637.83,-319.83"/>
</g>
<!-- VASP&#45;&gt;Signer -->
<g id="edge83" class="edge">
<title>VASP&#45;&gt;Signer</title>
<path fill="none" stroke="black" d="M1169.21,-361.74C1200.92,-330.66 1277.41,-259.27 1353,-216 1498.62,-132.64 1539.18,-112.56 1702,-72 1883.86,-26.7 2108.85,-19.74 2202.67,-18.93"/>
<polygon fill="black" stroke="black" points="2202.95,-22.43 2212.93,-18.87 2202.9,-15.43 2202.95,-22.43"/>
</g>
<!-- VASP&#45;&gt;Errors -->
<g id="edge84" class="edge">
<title>VASP&#45;&gt;Errors</title>
<path fill="none" stroke="black" d="M1140.67,-361.45C1127.08,-343.6 1109.37,-313.5 1120,-288 1150.89,-213.91 1249.97,-221.48 1229,-144 1218.59,-105.54 1193.08,-66.78 1175.16,-42.84"/>
<polygon fill="black" stroke="black" points="1177.8,-40.53 1168.95,-34.72 1172.24,-44.78 1177.8,-40.53"/>
</g>
<!-- VASP&#45;&gt;DiemTimestamp -->
<g id="edge85" class="edge">
<title>VASP&#45;&gt;DiemTimestamp</title>
<path fill="none" stroke="black" d="M1128.88,-366.57C1097.96,-353.49 1048.91,-331.81 1044,-324 1017.97,-282.57 1036.06,-223.17 1050.34,-189.3"/>
<polygon fill="black" stroke="black" points="1053.58,-190.63 1054.42,-180.06 1047.18,-187.8 1053.58,-190.63"/>
</g>
<!-- VASP&#45;&gt;Roles -->
<g id="edge86" class="edge">
<title>VASP&#45;&gt;Roles</title>
<path fill="none" stroke="black" d="M1184.18,-371.04C1202.11,-367.59 1225.31,-363.3 1246,-360 1364.68,-341.08 1405.57,-375.84 1514,-324 1534.99,-313.97 1531.35,-298.72 1552,-288 1623.63,-250.8 1652.44,-274.33 1730,-252 1733.58,-250.97 1737.28,-249.78 1740.95,-248.52"/>
<polygon fill="black" stroke="black" points="1742.27,-251.77 1750.48,-245.08 1739.89,-245.18 1742.27,-251.77"/>
</g>
<!-- VASP&#45;&gt;AccountLimits -->
<g id="edge87" class="edge">
<title>VASP&#45;&gt;AccountLimits</title>
<path fill="none" stroke="black" d="M1124.48,-370.03C1109.68,-366.69 1091.45,-362.82 1075,-360 954.62,-339.36 813.25,-322.88 731.02,-314.06"/>
<polygon fill="black" stroke="black" points="731.37,-310.57 721.05,-312.99 730.62,-317.53 731.37,-310.57"/>
</g>
<!-- TransactionFee&#45;&gt;Errors -->
<g id="edge88" class="edge">
<title>TransactionFee&#45;&gt;Errors</title>
<path fill="none" stroke="black" d="M373.84,-587.85C262.48,-574.78 38,-529.73 38,-379 38,-379 38,-379 38,-161 38,-115.41 50.13,-95.83 89,-72 177.41,-17.79 925.69,-17.85 1113.42,-18.73"/>
<polygon fill="black" stroke="black" points="1113.44,-22.23 1123.46,-18.78 1113.47,-15.23 1113.44,-22.23"/>
</g>
<!-- TransactionFee&#45;&gt;CoreAddresses -->
<g id="edge89" class="edge">
<title>TransactionFee&#45;&gt;CoreAddresses</title>
<path fill="none" stroke="black" d="M422.76,-576.1C396.29,-537.39 338.35,-439.48 367,-360 409.28,-242.71 434.33,-199.46 546,-144 649.17,-92.76 1451.43,-90.24 1701.09,-90.72"/>
<polygon fill="black" stroke="black" points="1701.15,-94.22 1711.15,-90.74 1701.16,-87.22 1701.15,-94.22"/>
</g>
<!-- TransactionFee&#45;&gt;DiemTimestamp -->
<g id="edge90" class="edge">
<title>TransactionFee&#45;&gt;DiemTimestamp</title>
<path fill="none" stroke="black" d="M379.85,-584.45C318.07,-571.5 221.44,-540.24 182,-468 174.33,-453.96 174.35,-446.05 182,-432 238.43,-328.39 294.67,-329.79 405,-288 504.63,-250.26 546.28,-298.78 642,-252 662.9,-241.79 659.03,-226.08 680,-216 707.15,-202.95 884.57,-182.14 988.15,-170.87"/>
<polygon fill="black" stroke="black" points="988.68,-174.33 998.24,-169.78 987.92,-167.37 988.68,-174.33"/>
</g>
<!-- TransactionFee&#45;&gt;Roles -->
<g id="edge91" class="edge">
<title>TransactionFee&#45;&gt;Roles</title>
<path fill="none" stroke="black" d="M489.67,-584.18C644.73,-558.83 1100.3,-482.06 1474,-396 1592.93,-368.61 1647.72,-405.01 1739,-324 1756.96,-308.06 1766.11,-281.86 1770.68,-262.01"/>
<polygon fill="black" stroke="black" points="1774.14,-262.51 1772.72,-252.02 1767.29,-261.11 1774.14,-262.51"/>
</g>
<!-- TransactionFee&#45;&gt;Diem -->
<g id="edge92" class="edge">
<title>TransactionFee&#45;&gt;Diem</title>
<path fill="none" stroke="black" d="M478.59,-580.58C509.53,-571.1 551.68,-556.83 587,-540 629.62,-519.7 675.44,-489.84 703.67,-470.4"/>
<polygon fill="black" stroke="black" points="705.98,-473.07 712.2,-464.49 701.99,-467.32 705.98,-473.07"/>
</g>
<!-- TransactionFee&#45;&gt;XUS -->
<g id="edge93" class="edge">
<title>TransactionFee&#45;&gt;XUS</title>
<path fill="none" stroke="black" d="M460.58,-577.29C478.41,-566.34 502.2,-551.74 520.61,-540.43"/>
<polygon fill="black" stroke="black" points="522.48,-543.39 529.17,-535.18 518.82,-537.43 522.48,-543.39"/>
</g>
<!-- TransactionFee&#45;&gt;XDX -->
<g id="edge94" class="edge">
<title>TransactionFee&#45;&gt;XDX</title>
<path fill="none" stroke="black" d="M411.85,-577.12C396.58,-566.63 376.5,-552.85 360.42,-541.82"/>
<polygon fill="black" stroke="black" points="362.18,-538.78 351.96,-536.01 358.22,-544.55 362.18,-538.78"/>
</g>
<!-- DualAttestation&#45;&gt;Signer -->
<g id="edge95" class="edge">
<title>DualAttestation&#45;&gt;Signer</title>
<path fill="none" stroke="black" d="M1846.43,-581.06C1854.58,-579.2 1863.01,-577.42 1871,-576 2005.38,-552.07 2052.38,-597.88 2176,-540 2176,-540 2328,-396 2328,-396 2385.16,-263.11 2363.91,-200.25 2297,-72 2290.87,-60.26 2281.4,-49.26 2272.33,-40.35"/>
<polygon fill="black" stroke="black" points="2274.59,-37.68 2264.9,-33.4 2269.81,-42.79 2274.59,-37.68"/>
</g>
<!-- DualAttestation&#45;&gt;Errors -->
<g id="edge96" class="edge">
<title>DualAttestation&#45;&gt;Errors</title>
<path fill="none" stroke="black" d="M1847.62,-581.47C1885.56,-571.8 1939.8,-556.88 1986,-540 2106.44,-496.01 2180.45,-511.57 2236,-396 2271.5,-322.14 2239.4,-285.52 2196,-216 2137.03,-121.55 2098.58,-100.71 1991,-72 1839.04,-31.45 1346.67,-21.58 1198.54,-19.5"/>
<polygon fill="black" stroke="black" points="1198.53,-16 1188.48,-19.36 1198.43,-23 1198.53,-16"/>
</g>
<!-- DualAttestation&#45;&gt;CoreAddresses -->
<g id="edge97" class="edge">
<title>DualAttestation&#45;&gt;CoreAddresses</title>
<path fill="none" stroke="black" d="M1835.95,-578.68C1933.36,-539.54 2196.57,-431.33 2219,-396 2227.58,-382.49 2220.1,-375.96 2219,-360 2216.77,-327.77 2225.58,-315.73 2209,-288 2153.35,-194.91 2110.78,-188.78 2012,-144 1958.22,-119.62 1892.36,-106.06 1843.73,-98.77"/>
<polygon fill="black" stroke="black" points="1844.02,-95.27 1833.62,-97.3 1843.02,-102.2 1844.02,-95.27"/>
</g>
<!-- DualAttestation&#45;&gt;DiemTimestamp -->
<g id="edge98" class="edge">
<title>DualAttestation&#45;&gt;DiemTimestamp</title>
<path fill="none" stroke="black" d="M1799.05,-575.98C1795.43,-517.9 1780.61,-328.86 1739,-288 1546.93,-99.38 1407.14,-231.98 1143,-180 1137.29,-178.88 1131.35,-177.68 1125.41,-176.45"/>
<polygon fill="black" stroke="black" points="1125.96,-172.99 1115.45,-174.38 1124.53,-179.84 1125.96,-172.99"/>
</g>
<!-- DualAttestation&#45;&gt;Roles -->
<g id="edge100" class="edge">
<title>DualAttestation&#45;&gt;Roles</title>
<path fill="none" stroke="black" d="M1801.99,-575.84C1808.28,-519.77 1826.35,-342.42 1810,-288 1806.86,-277.55 1800.91,-267.25 1794.8,-258.56"/>
<polygon fill="black" stroke="black" points="1797.53,-256.35 1788.73,-250.45 1791.92,-260.55 1797.53,-256.35"/>
</g>
<!-- DualAttestation&#45;&gt;Vector -->
<g id="edge101" class="edge">
<title>DualAttestation&#45;&gt;Vector</title>
<path fill="none" stroke="black" d="M1808.21,-576.13C1836.06,-516.24 1919.5,-312.35 1815,-216 1772.11,-176.45 1365.33,-166.03 1229.74,-163.64"/>
<polygon fill="black" stroke="black" points="1229.76,-160.14 1219.7,-163.47 1229.64,-167.14 1229.76,-160.14"/>
</g>
<!-- DualAttestation&#45;&gt;BCS -->
<g id="edge102" class="edge">
<title>DualAttestation&#45;&gt;BCS</title>
<path fill="none" stroke="black" d="M1864.41,-589.53C1971.74,-583.06 2182.21,-567.3 2251,-540 2303.91,-519 2502.69,-351.22 2523,-324 2554.27,-282.08 2574.26,-223.63 2583.98,-189.91"/>
<polygon fill="black" stroke="black" points="2587.46,-190.46 2586.78,-179.88 2580.72,-188.58 2587.46,-190.46"/>
</g>
<!-- DualAttestation&#45;&gt;Event -->
<g id="edge103" class="edge">
<title>DualAttestation&#45;&gt;Event</title>
<path fill="none" stroke="black" d="M1863.96,-588.85C1963.89,-581.7 2152.04,-565.32 2214,-540 2215.53,-539.37 2402.91,-397.25 2404,-396 2440.38,-354.18 2468.71,-295.31 2483.24,-261.56"/>
<polygon fill="black" stroke="black" points="2486.64,-262.52 2487.3,-251.94 2480.19,-259.79 2486.64,-262.52"/>
</g>
<!-- DualAttestation&#45;&gt;Diem -->
<g id="edge104" class="edge">
<title>DualAttestation&#45;&gt;Diem</title>
<path fill="none" stroke="black" d="M1741.77,-585.26C1548.85,-559.64 933.67,-477.92 770.85,-456.29"/>
<polygon fill="black" stroke="black" points="771.16,-452.8 760.79,-454.96 770.24,-459.74 771.16,-452.8"/>
</g>
<!-- DualAttestation&#45;&gt;XDX -->
<g id="edge105" class="edge">
<title>DualAttestation&#45;&gt;XDX</title>
<path fill="none" stroke="black" d="M1734.2,-591.55C1544.32,-587.1 979.14,-571.96 511,-540 463.22,-536.74 408.39,-531.23 372.35,-527.37"/>
<polygon fill="black" stroke="black" points="372.57,-523.88 362.25,-526.28 371.82,-530.84 372.57,-523.88"/>
</g>
<!-- DualAttestation&#45;&gt;VASP -->
<g id="edge106" class="edge">
<title>DualAttestation&#45;&gt;VASP</title>
<path fill="none" stroke="black" d="M1758.87,-579.82C1732.93,-570.59 1699.3,-556.91 1672,-540 1609.87,-501.52 1614.8,-461.64 1548,-432 1424.44,-377.18 1379.64,-416.29 1246,-396 1229.01,-393.42 1210.34,-390.07 1194.29,-387.02"/>
<polygon fill="black" stroke="black" points="1194.65,-383.53 1184.17,-385.08 1193.33,-390.4 1194.65,-383.53"/>
</g>
<!-- DualAttestation&#45;&gt;Signature -->
<g id="edge99" class="edge">
<title>DualAttestation&#45;&gt;Signature</title>
<path fill="none" stroke="black" d="M1779.61,-576.8C1768.76,-567.17 1756.04,-554.11 1748,-540 1709.34,-472.16 1694.1,-379.47 1688.68,-334.16"/>
<polygon fill="black" stroke="black" points="1692.15,-333.76 1687.56,-324.22 1685.2,-334.55 1692.15,-333.76"/>
</g>
<!-- DiemTransactionPublishingOption&#45;&gt;Signer -->
<g id="edge107" class="edge">
<title>DiemTransactionPublishingOption&#45;&gt;Signer</title>
<path fill="none" stroke="black" d="M2171.53,-365.27C2197.8,-357.53 2223.98,-344.82 2242,-324 2316.04,-238.46 2307.59,-181.2 2278,-72 2275.34,-62.18 2270.35,-52.31 2265.14,-43.8"/>
<polygon fill="black" stroke="black" points="2267.9,-41.62 2259.5,-35.16 2262.04,-45.45 2267.9,-41.62"/>
</g>
<!-- DiemTransactionPublishingOption&#45;&gt;Errors -->
<g id="edge108" class="edge">
<title>DiemTransactionPublishingOption&#45;&gt;Errors</title>
<path fill="none" stroke="black" d="M2153.32,-363.17C2174.93,-355.36 2196.03,-343.13 2209,-324 2217.98,-310.76 2215.35,-302.69 2209,-288 2145.4,-140.8 2074.2,-116.02 1920,-72 1782.94,-32.87 1339.52,-22.11 1199.08,-19.64"/>
<polygon fill="black" stroke="black" points="1198.79,-16.14 1188.73,-19.47 1198.67,-23.14 1198.79,-16.14"/>
</g>
<!-- DiemTransactionPublishingOption&#45;&gt;CoreAddresses -->
<g id="edge109" class="edge">
<title>DiemTransactionPublishingOption&#45;&gt;CoreAddresses</title>
<path fill="none" stroke="black" d="M2070.25,-359.93C2063.28,-340.96 2050.17,-310.1 2032,-288 1967.38,-209.38 1865.64,-143.44 1811.59,-111.56"/>
<polygon fill="black" stroke="black" points="1813.1,-108.39 1802.7,-106.38 1809.58,-114.44 1813.1,-108.39"/>
</g>
<!-- DiemTransactionPublishingOption&#45;&gt;DiemTimestamp -->
<g id="edge110" class="edge">
<title>DiemTransactionPublishingOption&#45;&gt;DiemTimestamp</title>
<path fill="none" stroke="black" d="M1941.85,-377.79C1744.53,-377.33 1386.48,-369.9 1267,-324 1189.74,-294.32 1118.45,-224.5 1084.25,-187.31"/>
<polygon fill="black" stroke="black" points="1086.84,-184.95 1077.53,-179.9 1081.65,-189.66 1086.84,-184.95"/>
</g>
<!-- DiemTransactionPublishingOption&#45;&gt;Roles -->
<g id="edge111" class="edge">
<title>DiemTransactionPublishingOption&#45;&gt;Roles</title>
<path fill="none" stroke="black" d="M2054.74,-360.03C2023.2,-334.92 1967.16,-290.53 1962,-288 1903.53,-259.35 1882.11,-271.54 1820,-252 1816.44,-250.88 1812.76,-249.64 1809.1,-248.34"/>
<polygon fill="black" stroke="black" points="1810.18,-245.01 1799.58,-244.86 1807.77,-251.58 1810.18,-245.01"/>
</g>
<!-- DiemTransactionPublishingOption&#45;&gt;Vector -->
<g id="edge112" class="edge">
<title>DiemTransactionPublishingOption&#45;&gt;Vector</title>
<path fill="none" stroke="black" d="M2063.88,-359.92C2049.88,-340.95 2025.5,-310.08 2000,-288 1954.7,-248.77 1942.89,-234.82 1886,-216 1763.34,-175.43 1363.75,-165.71 1230.04,-163.56"/>
<polygon fill="black" stroke="black" points="1229.83,-160.06 1219.77,-163.41 1229.72,-167.06 1229.83,-160.06"/>
</g>
<!-- DiemTransactionPublishingOption&#45;&gt;DiemConfig -->
<g id="edge113" class="edge">
<title>DiemTransactionPublishingOption&#45;&gt;DiemConfig</title>
<path fill="none" stroke="black" d="M2092.7,-360.05C2101.39,-351.24 2112.15,-340.33 2121.64,-330.69"/>
<polygon fill="black" stroke="black" points="2124.4,-332.89 2128.93,-323.31 2119.41,-327.97 2124.4,-332.89"/>
</g>
<!-- DesignatedDealer&#45;&gt;Signer -->
<g id="edge114" class="edge">
<title>DesignatedDealer&#45;&gt;Signer</title>
<path fill="none" stroke="black" d="M2457.94,-585.45C2590.95,-566 2882,-501.24 2882,-307 2882,-307 2882,-307 2882,-161 2882,-39.77 2435.66,-22 2291.39,-19.43"/>
<polygon fill="black" stroke="black" points="2291.2,-15.93 2281.14,-19.26 2291.08,-22.92 2291.2,-15.93"/>
</g>
<!-- DesignatedDealer&#45;&gt;Errors -->
<g id="edge115" class="edge">
<title>DesignatedDealer&#45;&gt;Errors</title>
<path fill="none" stroke="black" d="M2392.75,-575.73C2391.55,-535.82 2385.01,-434.9 2350,-360 2272.55,-194.29 2230.25,-127.64 2056,-72 1893.48,-20.1 1355.15,-18.16 1198.88,-18.73"/>
<polygon fill="black" stroke="black" points="1198.71,-15.23 1188.72,-18.77 1198.74,-22.23 1198.71,-15.23"/>
</g>
<!-- DesignatedDealer&#45;&gt;Roles -->
<g id="edge116" class="edge">
<title>DesignatedDealer&#45;&gt;Roles</title>
<path fill="none" stroke="black" d="M2337.63,-582.13C2240.25,-560.74 2035.82,-505.45 1900,-396 1854.89,-359.65 1863.66,-332.86 1827,-288 1818.12,-277.13 1807.38,-265.92 1797.98,-256.62"/>
<polygon fill="black" stroke="black" points="1800.39,-254.09 1790.78,-249.62 1795.51,-259.1 1800.39,-254.09"/>
</g>
<!-- DesignatedDealer&#45;&gt;Event -->
<g id="edge117" class="edge">
<title>DesignatedDealer&#45;&gt;Event</title>
<path fill="none" stroke="black" d="M2403.77,-576.08C2424.43,-542.87 2469.7,-466.29 2494,-396 2504.65,-365.19 2504.87,-356.45 2508,-324 2509.53,-308.07 2510.06,-303.87 2508,-288 2506.87,-279.28 2504.73,-269.95 2502.46,-261.58"/>
<polygon fill="black" stroke="black" points="2505.82,-260.6 2499.68,-251.96 2499.09,-262.54 2505.82,-260.6"/>
</g>
<!-- DesignatedDealer&#45;&gt;Diem -->
<g id="edge118" class="edge">
<title>DesignatedDealer&#45;&gt;Diem</title>
<path fill="none" stroke="black" d="M2325.01,-587.19C2045.65,-563.32 990.58,-473.18 771.13,-454.43"/>
<polygon fill="black" stroke="black" points="771.29,-450.93 761.03,-453.57 770.7,-457.9 771.29,-450.93"/>
</g>
<!-- DesignatedDealer&#45;&gt;XUS -->
<g id="edge119" class="edge">
<title>DesignatedDealer&#45;&gt;XUS</title>
<path fill="none" stroke="black" d="M2321,-590.27C2013.88,-578.61 818.62,-533.24 587.73,-524.47"/>
<polygon fill="black" stroke="black" points="587.6,-520.96 577.47,-524.08 587.33,-527.96 587.6,-520.96"/>
</g>
<!-- ChainId&#45;&gt;Signer -->
<g id="edge120" class="edge">
<title>ChainId&#45;&gt;Signer</title>
<path fill="none" stroke="black" d="M584.67,-219.61C621.5,-199.46 695.37,-161.81 763,-144 1045.91,-69.5 1988.32,-29.03 2203.15,-20.65"/>
<polygon fill="black" stroke="black" points="2203.54,-24.14 2213.4,-20.25 2203.27,-17.14 2203.54,-24.14"/>
</g>
<!-- ChainId&#45;&gt;Errors -->
<g id="edge121" class="edge">
<title>ChainId&#45;&gt;Errors</title>
<path fill="none" stroke="black" d="M561.2,-215.76C562.61,-182.07 570.96,-107.66 616,-72 654.71,-41.35 992.25,-25.35 1113.15,-20.57"/>
<polygon fill="black" stroke="black" points="1113.63,-24.05 1123.49,-20.16 1113.36,-17.06 1113.63,-24.05"/>
</g>
<!-- ChainId&#45;&gt;CoreAddresses -->
<g id="edge122" class="edge">
<title>ChainId&#45;&gt;CoreAddresses</title>
<path fill="none" stroke="black" d="M591.37,-222.58C598.73,-220.25 606.61,-217.9 614,-216 775.83,-174.41 817.31,-165.62 983,-144 1246.13,-109.66 1561.5,-97 1701.66,-92.83"/>
<polygon fill="black" stroke="black" points="1701.96,-96.32 1711.85,-92.53 1701.75,-89.32 1701.96,-96.32"/>
</g>
<!-- ChainId&#45;&gt;DiemTimestamp -->
<g id="edge123" class="edge">
<title>ChainId&#45;&gt;DiemTimestamp</title>
<path fill="none" stroke="black" d="M590.71,-222.32C598.23,-219.94 606.35,-217.64 614,-216 755.25,-185.79 793.64,-197.66 937,-180 954.85,-177.8 974.09,-175.28 992.04,-172.87"/>
<polygon fill="black" stroke="black" points="992.71,-176.31 1002.15,-171.5 991.77,-169.37 992.71,-176.31"/>
</g>
<!-- AccountFreezing&#45;&gt;Signer -->
<g id="edge124" class="edge">
<title>AccountFreezing&#45;&gt;Signer</title>
<path fill="none" stroke="black" d="M2711.64,-287.91C2719.17,-256.07 2730.22,-187.02 2698,-144 2648.43,-77.83 2392.66,-37.87 2289.85,-24.26"/>
<polygon fill="black" stroke="black" points="2290.19,-20.78 2279.82,-22.96 2289.28,-27.72 2290.19,-20.78"/>
</g>
<!-- AccountFreezing&#45;&gt;Errors -->
<g id="edge125" class="edge">
<title>AccountFreezing&#45;&gt;Errors</title>
<path fill="none" stroke="black" d="M2706.72,-287.88C2705.19,-254.73 2696.85,-181.72 2654,-144 2622.31,-116.11 2322.91,-77.01 2281,-72 1861.51,-21.89 1348.74,-18.61 1198.97,-18.81"/>
<polygon fill="black" stroke="black" points="1198.81,-15.31 1188.82,-18.83 1198.82,-22.31 1198.81,-15.31"/>
</g>
<!-- AccountFreezing&#45;&gt;CoreAddresses -->
<g id="edge126" class="edge">
<title>AccountFreezing&#45;&gt;CoreAddresses</title>
<path fill="none" stroke="black" d="M2693.61,-287.98C2686.06,-277.9 2676.81,-264.65 2670,-252 2645.49,-206.52 2668.84,-174.31 2627,-144 2595.68,-121.31 2048.95,-100.38 1848.17,-93.43"/>
<polygon fill="black" stroke="black" points="1848.13,-89.93 1838.02,-93.08 1847.89,-96.92 1848.13,-89.93"/>
</g>
<!-- AccountFreezing&#45;&gt;DiemTimestamp -->
<g id="edge127" class="edge">
<title>AccountFreezing&#45;&gt;DiemTimestamp</title>
<path fill="none" stroke="black" d="M2684.02,-288.86C2652.11,-267.48 2591.75,-230.78 2534,-216 2234.44,-139.35 1450.08,-216.29 1143,-180 1136.37,-179.22 1129.47,-178.15 1122.63,-176.92"/>
<polygon fill="black" stroke="black" points="1123.17,-173.46 1112.69,-175.03 1121.87,-180.34 1123.17,-173.46"/>
</g>
<!-- AccountFreezing&#45;&gt;Roles -->
<g id="edge128" class="edge">
<title>AccountFreezing&#45;&gt;Roles</title>
<path fill="none" stroke="black" d="M2639.6,-299.94C2457.66,-286.27 1960.54,-248.94 1815.33,-238.03"/>
<polygon fill="black" stroke="black" points="1815.33,-234.52 1805.1,-237.26 1814.81,-241.5 1815.33,-234.52"/>
</g>
<!-- AccountFreezing&#45;&gt;Event -->
<g id="edge129" class="edge">
<title>AccountFreezing&#45;&gt;Event</title>
<path fill="none" stroke="black" d="M2665.43,-291.34C2625.97,-278.37 2567.3,-259.09 2529.85,-246.78"/>
<polygon fill="black" stroke="black" points="2530.94,-243.46 2520.35,-243.66 2528.75,-250.11 2530.94,-243.46"/>
</g>
<!-- FixedPoint32&#45;&gt;Errors -->
<g id="edge130" class="edge">
<title>FixedPoint32&#45;&gt;Errors</title>
<path fill="none" stroke="black" d="M376.49,-375.9C328.51,-372.23 260.68,-360.29 214,-324 124.58,-254.48 98.1,-154.23 176,-72 208.69,-37.49 929.13,-22.87 1113.39,-19.69"/>
<polygon fill="black" stroke="black" points="1113.57,-23.19 1123.51,-19.52 1113.45,-16.19 1113.57,-23.19"/>
</g>
<!-- RegisteredCurrencies&#45;&gt;Errors -->
<g id="edge131" class="edge">
<title>RegisteredCurrencies&#45;&gt;Errors</title>
<path fill="none" stroke="black" d="M894,-375.92C777.9,-370.65 568.72,-347.34 422,-252 347.97,-203.9 277.63,-136.41 338,-72 364.75,-43.46 949.22,-24.84 1113.43,-20.16"/>
<polygon fill="black" stroke="black" points="1113.73,-23.65 1123.63,-19.87 1113.54,-16.66 1113.73,-23.65"/>
</g>
<!-- RegisteredCurrencies&#45;&gt;DiemTimestamp -->
<g id="edge132" class="edge">
<title>RegisteredCurrencies&#45;&gt;DiemTimestamp</title>
<path fill="none" stroke="black" d="M957.93,-360.43C947.32,-351.05 935.7,-338.34 930,-324 924.09,-309.13 923.68,-302.7 930,-288 949.57,-242.5 994.82,-205.96 1027.1,-184.41"/>
<polygon fill="black" stroke="black" points="1029.36,-187.11 1035.83,-178.73 1025.54,-181.25 1029.36,-187.11"/>
</g>
<!-- RegisteredCurrencies&#45;&gt;Roles -->
<g id="edge133" class="edge">
<title>RegisteredCurrencies&#45;&gt;Roles</title>
<path fill="none" stroke="black" d="M1050.7,-367.57C1070.82,-364.99 1092.76,-362.28 1113,-360 1194.65,-350.79 1407.49,-360.71 1481,-324 1500.42,-314.3 1494.92,-298.35 1514,-288 1599.55,-241.6 1636.03,-277.32 1730,-252 1733.6,-251.03 1737.31,-249.88 1740.99,-248.65"/>
<polygon fill="black" stroke="black" points="1742.29,-251.9 1750.53,-245.24 1739.93,-245.31 1742.29,-251.9"/>
</g>
<!-- RegisteredCurrencies&#45;&gt;Vector -->
<g id="edge134" class="edge">
<title>RegisteredCurrencies&#45;&gt;Vector</title>
<path fill="none" stroke="black" d="M972.55,-359.88C965.66,-341.41 957.9,-311.49 968,-288 1004.11,-204.04 1057.55,-212.42 1143,-180 1145.36,-179.1 1147.8,-178.17 1150.25,-177.22"/>
<polygon fill="black" stroke="black" points="1151.62,-180.44 1159.67,-173.54 1149.08,-173.92 1151.62,-180.44"/>
</g>
<!-- RegisteredCurrencies&#45;&gt;DiemConfig -->
<g id="edge135" class="edge">
<title>RegisteredCurrencies&#45;&gt;DiemConfig</title>
<path fill="none" stroke="black" d="M1049.26,-367.14C1069.75,-364.49 1092.25,-361.86 1113,-360 1302.48,-343.05 1886.29,-317.81 2081.03,-309.65"/>
<polygon fill="black" stroke="black" points="2081.26,-313.14 2091.1,-309.23 2080.97,-306.15 2081.26,-313.14"/>
</g>
</g>
</svg>
