<?xml version="1.0" encoding="UTF-8" standalone="no"?>
<!DOCTYPE svg PUBLIC "-//W3C//DTD SVG 1.1//EN"
 "http://www.w3.org/Graphics/SVG/1.1/DTD/svg11.dtd">
<!-- Generated by graphviz version 2.46.1 (20210213.1702)
 -->
<!-- Title: G Pages: 1 -->
<svg width="3013pt" height="764pt"
 viewBox="0.00 0.00 3013.14 764.00" xmlns="http://www.w3.org/2000/svg" xmlns:xlink="http://www.w3.org/1999/xlink">
<g id="graph0" class="graph" transform="scale(1 1) rotate(0) translate(4 760)">
<title>G</title>
<polygon fill="white" stroke="transparent" points="-4,4 -4,-760 3009.14,-760 3009.14,4 -4,4"/>
<!-- TreasuryComplianceScripts -->
<g id="node1" class="node">
<title>TreasuryComplianceScripts</title>
<ellipse fill="none" stroke="black" cx="1676" cy="-738" rx="109.38" ry="18"/>
<text text-anchor="middle" x="1676" y="-734.3" font-family="Times,serif" font-size="14.00">TreasuryComplianceScripts</text>
</g>
<!-- SlidingNonce -->
<g id="node2" class="node">
<title>SlidingNonce</title>
<ellipse fill="none" stroke="black" cx="2946" cy="-450" rx="59.29" ry="18"/>
<text text-anchor="middle" x="2946" y="-446.3" font-family="Times,serif" font-size="14.00">SlidingNonce</text>
</g>
<!-- TreasuryComplianceScripts&#45;&gt;SlidingNonce -->
<g id="edge1" class="edge">
<title>TreasuryComplianceScripts&#45;&gt;SlidingNonce</title>
<path fill="none" stroke="black" d="M1784.29,-735.59C2073.39,-731.37 2844.44,-717.08 2888,-684 2951.71,-635.62 2952.49,-528.83 2948.89,-478.39"/>
<polygon fill="black" stroke="black" points="2952.37,-477.93 2948.05,-468.25 2945.39,-478.5 2952.37,-477.93"/>
</g>
<!-- FixedPoint32 -->
<g id="node3" class="node">
<title>FixedPoint32</title>
<ellipse fill="none" stroke="black" cx="314" cy="-378" rx="57.69" ry="18"/>
<text text-anchor="middle" x="314" y="-374.3" font-family="Times,serif" font-size="14.00">FixedPoint32</text>
</g>
<!-- TreasuryComplianceScripts&#45;&gt;FixedPoint32 -->
<g id="edge2" class="edge">
<title>TreasuryComplianceScripts&#45;&gt;FixedPoint32</title>
<path fill="none" stroke="black" d="M1567.1,-736.67C1305.76,-734.18 650.78,-717.28 463,-612 381.89,-566.53 338.23,-456.52 321.78,-405.63"/>
<polygon fill="black" stroke="black" points="325.09,-404.5 318.76,-396 318.41,-406.59 325.09,-404.5"/>
</g>
<!-- Diem -->
<g id="node4" class="node">
<title>Diem</title>
<ellipse fill="none" stroke="black" cx="1427" cy="-450" rx="30.59" ry="18"/>
<text text-anchor="middle" x="1427" y="-446.3" font-family="Times,serif" font-size="14.00">Diem</text>
</g>
<!-- TreasuryComplianceScripts&#45;&gt;Diem -->
<g id="edge3" class="edge">
<title>TreasuryComplianceScripts&#45;&gt;Diem</title>
<path fill="none" stroke="black" d="M1661.17,-719.97C1618.56,-671.02 1495.73,-529.94 1447.14,-474.13"/>
<polygon fill="black" stroke="black" points="1449.73,-471.78 1440.52,-466.53 1444.45,-476.37 1449.73,-471.78"/>
</g>
<!-- TransactionFee -->
<g id="node5" class="node">
<title>TransactionFee</title>
<ellipse fill="none" stroke="black" cx="704" cy="-594" rx="64.99" ry="18"/>
<text text-anchor="middle" x="704" y="-590.3" font-family="Times,serif" font-size="14.00">TransactionFee</text>
</g>
<!-- TreasuryComplianceScripts&#45;&gt;TransactionFee -->
<g id="edge4" class="edge">
<title>TreasuryComplianceScripts&#45;&gt;TransactionFee</title>
<path fill="none" stroke="black" d="M1589.46,-727.01C1429.6,-708.1 1077.41,-664.21 783,-612 776.41,-610.83 769.53,-609.51 762.71,-608.13"/>
<polygon fill="black" stroke="black" points="763.28,-604.67 752.77,-606.08 761.86,-611.53 763.28,-604.67"/>
</g>
<!-- DualAttestation -->
<g id="node6" class="node">
<title>DualAttestation</title>
<ellipse fill="none" stroke="black" cx="1960" cy="-594" rx="66.09" ry="18"/>
<text text-anchor="middle" x="1960" y="-590.3" font-family="Times,serif" font-size="14.00">DualAttestation</text>
</g>
<!-- TreasuryComplianceScripts&#45;&gt;DualAttestation -->
<g id="edge5" class="edge">
<title>TreasuryComplianceScripts&#45;&gt;DualAttestation</title>
<path fill="none" stroke="black" d="M1708.58,-720.71C1761.02,-694.49 1864,-643 1920.53,-614.74"/>
<polygon fill="black" stroke="black" points="1922.14,-617.84 1929.52,-610.24 1919.01,-611.58 1922.14,-617.84"/>
</g>
<!-- AccountFreezing -->
<g id="node7" class="node">
<title>AccountFreezing</title>
<ellipse fill="none" stroke="black" cx="2479" cy="-306" rx="71.49" ry="18"/>
<text text-anchor="middle" x="2479" y="-302.3" font-family="Times,serif" font-size="14.00">AccountFreezing</text>
</g>
<!-- TreasuryComplianceScripts&#45;&gt;AccountFreezing -->
<g id="edge6" class="edge">
<title>TreasuryComplianceScripts&#45;&gt;AccountFreezing</title>
<path fill="none" stroke="black" d="M1783.11,-734.28C1994.48,-727 2455.82,-701.09 2583,-612 2650.04,-565.04 2639.45,-511.97 2622,-432 2614.49,-397.61 2613.65,-385.13 2589,-360 2573.5,-344.2 2552.34,-332.47 2532.73,-324.12"/>
<polygon fill="black" stroke="black" points="2533.83,-320.79 2523.25,-320.29 2531.21,-327.28 2533.83,-320.79"/>
</g>
<!-- DiemAccount -->
<g id="node8" class="node">
<title>DiemAccount</title>
<ellipse fill="none" stroke="black" cx="1505" cy="-666" rx="60.39" ry="18"/>
<text text-anchor="middle" x="1505" y="-662.3" font-family="Times,serif" font-size="14.00">DiemAccount</text>
</g>
<!-- TreasuryComplianceScripts&#45;&gt;DiemAccount -->
<g id="edge7" class="edge">
<title>TreasuryComplianceScripts&#45;&gt;DiemAccount</title>
<path fill="none" stroke="black" d="M1637.2,-721.12C1610.75,-710.29 1575.71,-695.95 1548.35,-684.75"/>
<polygon fill="black" stroke="black" points="1549.6,-681.48 1539.02,-680.93 1546.95,-687.95 1549.6,-681.48"/>
</g>
<!-- Signer -->
<g id="node9" class="node">
<title>Signer</title>
<ellipse fill="none" stroke="black" cx="2086" cy="-18" rx="33.6" ry="18"/>
<text text-anchor="middle" x="2086" y="-14.3" font-family="Times,serif" font-size="14.00">Signer</text>
</g>
<!-- SlidingNonce&#45;&gt;Signer -->
<g id="edge8" class="edge">
<title>SlidingNonce&#45;&gt;Signer</title>
<path fill="none" stroke="black" d="M2948.37,-431.99C2951.87,-405.38 2958,-352.28 2958,-307 2958,-307 2958,-307 2958,-161 2958,-120.03 2965.73,-97.92 2934,-72 2871.47,-20.92 2295.63,-18.45 2130.23,-18.8"/>
<polygon fill="black" stroke="black" points="2129.93,-15.3 2119.94,-18.83 2129.95,-22.3 2129.93,-15.3"/>
</g>
<!-- Errors -->
<g id="node10" class="node">
<title>Errors</title>
<ellipse fill="none" stroke="black" cx="1231" cy="-18" rx="32.49" ry="18"/>
<text text-anchor="middle" x="1231" y="-14.3" font-family="Times,serif" font-size="14.00">Errors</text>
</g>
<!-- SlidingNonce&#45;&gt;Errors -->
<g id="edge9" class="edge">
<title>SlidingNonce&#45;&gt;Errors</title>
<path fill="none" stroke="black" d="M2932.74,-432.18C2913.99,-406.66 2882,-355.94 2882,-307 2882,-307 2882,-307 2882,-233 2882,-38.64 2528.38,-73.16 2520,-72 2271.12,-37.45 1468.33,-22.75 1273.77,-19.64"/>
<polygon fill="black" stroke="black" points="1273.71,-16.14 1263.65,-19.49 1273.6,-23.14 1273.71,-16.14"/>
</g>
<!-- FixedPoint32&#45;&gt;Errors -->
<g id="edge10" class="edge">
<title>FixedPoint32&#45;&gt;Errors</title>
<path fill="none" stroke="black" d="M289.65,-361.55C276.7,-352.16 261.53,-339.08 252,-324 230.12,-289.36 228,-275.97 228,-235 228,-235 228,-235 228,-161 228,-120.03 220.16,-97.78 252,-72 288.88,-42.13 1004.66,-24.08 1188.34,-19.92"/>
<polygon fill="black" stroke="black" points="1188.51,-23.42 1198.43,-19.7 1188.35,-16.42 1188.51,-23.42"/>
</g>
<!-- Diem&#45;&gt;FixedPoint32 -->
<g id="edge16" class="edge">
<title>Diem&#45;&gt;FixedPoint32</title>
<path fill="none" stroke="black" d="M1396.67,-447.37C1283.44,-441.25 874.67,-418.81 538,-396 484.57,-392.38 424.02,-387.75 379.35,-384.24"/>
<polygon fill="black" stroke="black" points="379.46,-380.74 369.21,-383.44 378.91,-387.72 379.46,-380.74"/>
</g>
<!-- Diem&#45;&gt;Signer -->
<g id="edge11" class="edge">
<title>Diem&#45;&gt;Signer</title>
<path fill="none" stroke="black" d="M1457.87,-449.25C1568.54,-449.71 1944.5,-447.36 2051,-396 2161.79,-342.57 2195.08,-299.55 2224,-180 2235.69,-131.69 2228.9,-108.35 2195,-72 2176.16,-51.8 2147.99,-38.38 2125.01,-30.1"/>
<polygon fill="black" stroke="black" points="2126.11,-26.78 2115.52,-26.86 2123.85,-33.41 2126.11,-26.78"/>
</g>
<!-- Diem&#45;&gt;Errors -->
<g id="edge12" class="edge">
<title>Diem&#45;&gt;Errors</title>
<path fill="none" stroke="black" d="M1396.14,-449.46C1287.15,-450.59 910.47,-450.05 606,-396 494.67,-376.24 460.28,-379.91 362,-324 311.43,-295.23 266,-293.18 266,-235 266,-235 266,-235 266,-161 266,-77.68 350.93,-95.06 431,-72 575.19,-30.47 1043.95,-21.3 1188.3,-19.44"/>
<polygon fill="black" stroke="black" points="1188.56,-22.94 1198.52,-19.31 1188.47,-15.94 1188.56,-22.94"/>
</g>
<!-- CoreAddresses -->
<g id="node11" class="node">
<title>CoreAddresses</title>
<ellipse fill="none" stroke="black" cx="1890" cy="-90" rx="63.89" ry="18"/>
<text text-anchor="middle" x="1890" y="-86.3" font-family="Times,serif" font-size="14.00">CoreAddresses</text>
</g>
<!-- Diem&#45;&gt;CoreAddresses -->
<g id="edge13" class="edge">
<title>Diem&#45;&gt;CoreAddresses</title>
<path fill="none" stroke="black" d="M1457.37,-447.19C1570.02,-440.34 1958.4,-415.38 1976,-396 1995.17,-374.89 1926.9,-187.97 1900.23,-117.62"/>
<polygon fill="black" stroke="black" points="1903.44,-116.22 1896.61,-108.12 1896.9,-118.71 1903.44,-116.22"/>
</g>
<!-- DiemTimestamp -->
<g id="node12" class="node">
<title>DiemTimestamp</title>
<ellipse fill="none" stroke="black" cx="1132" cy="-162" rx="71.49" ry="18"/>
<text text-anchor="middle" x="1132" y="-158.3" font-family="Times,serif" font-size="14.00">DiemTimestamp</text>
</g>
<!-- Diem&#45;&gt;DiemTimestamp -->
<g id="edge14" class="edge">
<title>Diem&#45;&gt;DiemTimestamp</title>
<path fill="none" stroke="black" d="M1396.77,-447.05C1311.32,-441.34 1060.75,-423.37 854,-396 830.69,-392.91 452.14,-341.98 437,-324 354.86,-226.46 854.54,-181.67 1053.18,-167.88"/>
<polygon fill="black" stroke="black" points="1053.53,-171.36 1063.27,-167.18 1053.05,-164.38 1053.53,-171.36"/>
</g>
<!-- Roles -->
<g id="node13" class="node">
<title>Roles</title>
<ellipse fill="none" stroke="black" cx="1237" cy="-234" rx="30.59" ry="18"/>
<text text-anchor="middle" x="1237" y="-230.3" font-family="Times,serif" font-size="14.00">Roles</text>
</g>
<!-- Diem&#45;&gt;Roles -->
<g id="edge15" class="edge">
<title>Diem&#45;&gt;Roles</title>
<path fill="none" stroke="black" d="M1405.79,-437.04C1390.69,-427.59 1370.87,-413.16 1358,-396 1327.11,-354.79 1348.2,-328.2 1316,-288 1303.48,-272.38 1285.11,-259.67 1269.23,-250.61"/>
<polygon fill="black" stroke="black" points="1270.69,-247.42 1260.23,-245.71 1267.34,-253.57 1270.69,-247.42"/>
</g>
<!-- Vector -->
<g id="node14" class="node">
<title>Vector</title>
<ellipse fill="none" stroke="black" cx="2164" cy="-162" rx="33.6" ry="18"/>
<text text-anchor="middle" x="2164" y="-158.3" font-family="Times,serif" font-size="14.00">Vector</text>
</g>
<!-- Diem&#45;&gt;Vector -->
<g id="edge17" class="edge">
<title>Diem&#45;&gt;Vector</title>
<path fill="none" stroke="black" d="M1457.62,-449.31C1563.96,-449.91 1916.12,-447.85 2014,-396 2096.53,-352.28 2140.15,-240.89 2156.41,-189.59"/>
<polygon fill="black" stroke="black" points="2159.8,-190.47 2159.39,-179.89 2153.11,-188.42 2159.8,-190.47"/>
</g>
<!-- Event -->
<g id="node15" class="node">
<title>Event</title>
<ellipse fill="none" stroke="black" cx="2620" cy="-234" rx="31.4" ry="18"/>
<text text-anchor="middle" x="2620" y="-230.3" font-family="Times,serif" font-size="14.00">Event</text>
</g>
<!-- Diem&#45;&gt;Event -->
<g id="edge18" class="edge">
<title>Diem&#45;&gt;Event</title>
<path fill="none" stroke="black" d="M1457.55,-449.1C1559.12,-448.97 1894.41,-444.6 2166,-396 2222.49,-385.89 2233.85,-371.84 2290,-360 2408.03,-335.12 2456.26,-387.2 2559,-324 2582.83,-309.34 2599.62,-281.5 2609.47,-260.84"/>
<polygon fill="black" stroke="black" points="2612.69,-262.2 2613.63,-251.65 2606.31,-259.31 2612.69,-262.2"/>
</g>
<!-- RegisteredCurrencies -->
<g id="node16" class="node">
<title>RegisteredCurrencies</title>
<ellipse fill="none" stroke="black" cx="1486" cy="-378" rx="86.38" ry="18"/>
<text text-anchor="middle" x="1486" y="-374.3" font-family="Times,serif" font-size="14.00">RegisteredCurrencies</text>
</g>
<!-- Diem&#45;&gt;RegisteredCurrencies -->
<g id="edge19" class="edge">
<title>Diem&#45;&gt;RegisteredCurrencies</title>
<path fill="none" stroke="black" d="M1440.09,-433.46C1447.41,-424.78 1456.71,-413.75 1465.02,-403.89"/>
<polygon fill="black" stroke="black" points="1467.94,-405.86 1471.7,-395.96 1462.58,-401.35 1467.94,-405.86"/>
</g>
<!-- TransactionFee&#45;&gt;Diem -->
<g id="edge24" class="edge">
<title>TransactionFee&#45;&gt;Diem</title>
<path fill="none" stroke="black" d="M749.39,-581C821.51,-562.3 966.94,-526.05 1092,-504 1219.91,-481.45 1255.92,-499.17 1382,-468 1385.81,-467.06 1389.74,-465.89 1393.62,-464.61"/>
<polygon fill="black" stroke="black" points="1394.8,-467.9 1403.05,-461.25 1392.45,-461.31 1394.8,-467.9"/>
</g>
<!-- TransactionFee&#45;&gt;Errors -->
<g id="edge20" class="edge">
<title>TransactionFee&#45;&gt;Errors</title>
<path fill="none" stroke="black" d="M643.99,-586.88C585.61,-579.75 495.02,-565.55 420,-540 353.39,-517.31 337.22,-507.52 279,-468 125.85,-364.04 9.29,-192.26 150,-72 190.13,-37.71 992.92,-22.78 1188.38,-19.64"/>
<polygon fill="black" stroke="black" points="1188.6,-23.14 1198.54,-19.48 1188.49,-16.14 1188.6,-23.14"/>
</g>
<!-- TransactionFee&#45;&gt;CoreAddresses -->
<g id="edge21" class="edge">
<title>TransactionFee&#45;&gt;CoreAddresses</title>
<path fill="none" stroke="black" d="M765.91,-588.21C1011.89,-568.57 1910.67,-490.71 1992,-396 2031.76,-349.7 1934.03,-149.68 1931,-144 1925.69,-134.04 1918.52,-124.02 1911.65,-115.42"/>
<polygon fill="black" stroke="black" points="1914.31,-113.13 1905.24,-107.65 1908.91,-117.59 1914.31,-113.13"/>
</g>
<!-- TransactionFee&#45;&gt;DiemTimestamp -->
<g id="edge22" class="edge">
<title>TransactionFee&#45;&gt;DiemTimestamp</title>
<path fill="none" stroke="black" d="M642.26,-588.23C501.26,-574.43 173.21,-524.31 247,-360 286.46,-272.12 320.27,-253.51 409,-216 522.62,-167.97 886.14,-162.42 1050.24,-162.46"/>
<polygon fill="black" stroke="black" points="1050.28,-165.96 1060.29,-162.47 1050.29,-158.96 1050.28,-165.96"/>
</g>
<!-- TransactionFee&#45;&gt;Roles -->
<g id="edge23" class="edge">
<title>TransactionFee&#45;&gt;Roles</title>
<path fill="none" stroke="black" d="M695.97,-576.08C673.03,-525.04 613.63,-371.01 689,-288 706.07,-269.2 1072.58,-245.08 1196.48,-237.44"/>
<polygon fill="black" stroke="black" points="1196.92,-240.92 1206.68,-236.81 1196.49,-233.93 1196.92,-240.92"/>
</g>
<!-- XUS -->
<g id="node17" class="node">
<title>XUS</title>
<ellipse fill="none" stroke="black" cx="553" cy="-522" rx="28.7" ry="18"/>
<text text-anchor="middle" x="553" y="-518.3" font-family="Times,serif" font-size="14.00">XUS</text>
</g>
<!-- TransactionFee&#45;&gt;XUS -->
<g id="edge25" class="edge">
<title>TransactionFee&#45;&gt;XUS</title>
<path fill="none" stroke="black" d="M671.98,-578.15C646.34,-566.27 610.55,-549.68 584.93,-537.8"/>
<polygon fill="black" stroke="black" points="586.2,-534.53 575.66,-533.5 583.26,-540.88 586.2,-534.53"/>
</g>
<!-- XDX -->
<g id="node18" class="node">
<title>XDX</title>
<ellipse fill="none" stroke="black" cx="762" cy="-522" rx="29.8" ry="18"/>
<text text-anchor="middle" x="762" y="-518.3" font-family="Times,serif" font-size="14.00">XDX</text>
</g>
<!-- TransactionFee&#45;&gt;XDX -->
<g id="edge26" class="edge">
<title>TransactionFee&#45;&gt;XDX</title>
<path fill="none" stroke="black" d="M718.04,-576.05C725.48,-567.08 734.73,-555.92 742.82,-546.15"/>
<polygon fill="black" stroke="black" points="745.59,-548.29 749.28,-538.36 740.2,-543.82 745.59,-548.29"/>
</g>
<!-- DualAttestation&#45;&gt;Diem -->
<g id="edge36" class="edge">
<title>DualAttestation&#45;&gt;Diem</title>
<path fill="none" stroke="black" d="M1905.59,-583.63C1852.72,-574.11 1770.35,-558.22 1700,-540 1648.56,-526.68 1522.2,-485.4 1472,-468 1468.66,-466.84 1465.2,-465.61 1461.75,-464.34"/>
<polygon fill="black" stroke="black" points="1462.73,-460.98 1452.14,-460.78 1460.3,-467.54 1462.73,-460.98"/>
</g>
<!-- DualAttestation&#45;&gt;Signer -->
<g id="edge27" class="edge">
<title>DualAttestation&#45;&gt;Signer</title>
<path fill="none" stroke="black" d="M2024.48,-589.46C2141.92,-582.49 2386.04,-565.41 2467,-540 2681.1,-472.79 2785.75,-401.61 2821,-180 2823.51,-164.2 2827.37,-158.68 2821,-144 2802.35,-101.02 2786.85,-90.94 2744,-72 2633.63,-23.22 2259.61,-18.83 2130.37,-18.81"/>
<polygon fill="black" stroke="black" points="2130.05,-15.31 2120.06,-18.81 2130.06,-22.31 2130.05,-15.31"/>
</g>
<!-- DualAttestation&#45;&gt;Errors -->
<g id="edge28" class="edge">
<title>DualAttestation&#45;&gt;Errors</title>
<path fill="none" stroke="black" d="M2021.08,-586.92C2092.7,-578.87 2206.2,-562.96 2242,-540 2390.16,-445 2380.81,-252.2 2242,-144 2087.87,-23.86 1446.41,-17.99 1273.89,-18.63"/>
<polygon fill="black" stroke="black" points="1273.66,-15.13 1263.68,-18.68 1273.69,-22.13 1273.66,-15.13"/>
</g>
<!-- DualAttestation&#45;&gt;CoreAddresses -->
<g id="edge29" class="edge">
<title>DualAttestation&#45;&gt;CoreAddresses</title>
<path fill="none" stroke="black" d="M2020.07,-586.33C2083.87,-578.2 2179.4,-562.66 2208,-540 2299.3,-467.66 2300.08,-402.74 2280,-288 2267.63,-217.32 2267.06,-183.27 2207,-144 2167.48,-118.16 2041.64,-103.32 1960.9,-96.23"/>
<polygon fill="black" stroke="black" points="1961.06,-92.73 1950.8,-95.36 1960.47,-99.71 1961.06,-92.73"/>
</g>
<!-- DualAttestation&#45;&gt;DiemTimestamp -->
<g id="edge30" class="edge">
<title>DualAttestation&#45;&gt;DiemTimestamp</title>
<path fill="none" stroke="black" d="M1924.78,-578.72C1901,-568.71 1869.11,-554.55 1842,-540 1815.6,-525.83 1812.77,-515.26 1785,-504 1713.03,-474.8 1685.97,-497.2 1614,-468 1586.23,-456.74 1584.9,-442.93 1557,-432 1475.35,-400.01 1442,-434.07 1363,-396 1263.24,-347.93 1181.79,-238.51 1148.36,-188.63"/>
<polygon fill="black" stroke="black" points="1151.12,-186.45 1142.68,-180.04 1145.28,-190.31 1151.12,-186.45"/>
</g>
<!-- DualAttestation&#45;&gt;Roles -->
<g id="edge32" class="edge">
<title>DualAttestation&#45;&gt;Roles</title>
<path fill="none" stroke="black" d="M1942.12,-576.38C1920.09,-556.68 1880.77,-523.99 1842,-504 1747.55,-455.3 1717.4,-456.53 1614,-432 1516.32,-408.82 1471.46,-456.04 1391,-396 1348.3,-364.14 1376.09,-326.24 1339,-288 1333.6,-282.43 1297.16,-264.09 1269.36,-250.54"/>
<polygon fill="black" stroke="black" points="1270.84,-247.37 1260.32,-246.15 1267.79,-253.66 1270.84,-247.37"/>
</g>
<!-- DualAttestation&#45;&gt;Vector -->
<g id="edge33" class="edge">
<title>DualAttestation&#45;&gt;Vector</title>
<path fill="none" stroke="black" d="M2021.82,-587.26C2100.97,-576.13 2228,-543.81 2228,-451 2228,-451 2228,-451 2228,-377 2228,-306.57 2195.79,-228.37 2177.07,-188.87"/>
<polygon fill="black" stroke="black" points="2180.14,-187.17 2172.63,-179.69 2173.83,-190.21 2180.14,-187.17"/>
</g>
<!-- DualAttestation&#45;&gt;Event -->
<g id="edge35" class="edge">
<title>DualAttestation&#45;&gt;Event</title>
<path fill="none" stroke="black" d="M2024.8,-589.92C2129.29,-584.16 2329.79,-569.55 2394,-540 2402.07,-536.28 2626.42,-332.13 2630,-324 2638.68,-304.28 2635.04,-279.83 2629.86,-261.55"/>
<polygon fill="black" stroke="black" points="2633.15,-260.33 2626.81,-251.84 2626.47,-262.43 2633.15,-260.33"/>
</g>
<!-- DualAttestation&#45;&gt;XDX -->
<g id="edge37" class="edge">
<title>DualAttestation&#45;&gt;XDX</title>
<path fill="none" stroke="black" d="M1896.01,-589.26C1679.34,-576.6 977.03,-535.56 801.86,-525.33"/>
<polygon fill="black" stroke="black" points="801.98,-521.83 791.8,-524.74 801.57,-528.82 801.98,-521.83"/>
</g>
<!-- Signature -->
<g id="node19" class="node">
<title>Signature</title>
<ellipse fill="none" stroke="black" cx="1002" cy="-306" rx="44.39" ry="18"/>
<text text-anchor="middle" x="1002" y="-302.3" font-family="Times,serif" font-size="14.00">Signature</text>
</g>
<!-- DualAttestation&#45;&gt;Signature -->
<g id="edge31" class="edge">
<title>DualAttestation&#45;&gt;Signature</title>
<path fill="none" stroke="black" d="M1904.06,-584.19C1856.38,-575.74 1786.48,-561.14 1728,-540 1694.73,-527.97 1690.27,-516.04 1657,-504 1589.69,-479.63 1561.87,-504.01 1500,-468 1481.24,-457.08 1486.39,-441.75 1467,-432 1328.09,-362.14 1263.59,-453.2 1119,-396 1081.85,-381.3 1046.38,-351.3 1024.43,-330.21"/>
<polygon fill="black" stroke="black" points="1026.84,-327.67 1017.25,-323.16 1021.94,-332.66 1026.84,-327.67"/>
</g>
<!-- BCS -->
<g id="node20" class="node">
<title>BCS</title>
<ellipse fill="none" stroke="black" cx="2785" cy="-162" rx="27.1" ry="18"/>
<text text-anchor="middle" x="2785" y="-158.3" font-family="Times,serif" font-size="14.00">BCS</text>
</g>
<!-- DualAttestation&#45;&gt;BCS -->
<g id="edge34" class="edge">
<title>DualAttestation&#45;&gt;BCS</title>
<path fill="none" stroke="black" d="M2025.25,-590.27C2136.35,-584.85 2357.13,-570.53 2428,-540 2496.36,-510.55 2489.79,-466.01 2556,-432 2613.91,-402.25 2645.21,-434.11 2698,-396 2765.19,-347.49 2780.53,-240.77 2784.01,-190.37"/>
<polygon fill="black" stroke="black" points="2787.51,-190.42 2784.59,-180.23 2780.52,-190.01 2787.51,-190.42"/>
</g>
<!-- VASP -->
<g id="node21" class="node">
<title>VASP</title>
<ellipse fill="none" stroke="black" cx="1160" cy="-378" rx="32.49" ry="18"/>
<text text-anchor="middle" x="1160" y="-374.3" font-family="Times,serif" font-size="14.00">VASP</text>
</g>
<!-- DualAttestation&#45;&gt;VASP -->
<g id="edge38" class="edge">
<title>DualAttestation&#45;&gt;VASP</title>
<path fill="none" stroke="black" d="M1920.77,-579.34C1891.27,-568.92 1849.92,-554.03 1814,-540 1775.4,-524.93 1767.3,-517.13 1728,-504 1666.25,-483.37 1647.75,-488.63 1586,-468 1546.7,-454.87 1539.87,-443.27 1500,-432 1471.65,-423.98 1285.1,-396.85 1200.99,-384.82"/>
<polygon fill="black" stroke="black" points="1201.42,-381.35 1191.02,-383.4 1200.43,-388.28 1201.42,-381.35"/>
</g>
<!-- AccountFreezing&#45;&gt;Signer -->
<g id="edge39" class="edge">
<title>AccountFreezing&#45;&gt;Signer</title>
<path fill="none" stroke="black" d="M2494.37,-288.41C2531.01,-246.88 2616.22,-137.12 2558,-72 2529.72,-40.36 2241.71,-25.33 2129.97,-20.66"/>
<polygon fill="black" stroke="black" points="2129.86,-17.15 2119.72,-20.24 2129.57,-24.15 2129.86,-17.15"/>
</g>
<!-- AccountFreezing&#45;&gt;Errors -->
<g id="edge40" class="edge">
<title>AccountFreezing&#45;&gt;Errors</title>
<path fill="none" stroke="black" d="M2485.42,-287.96C2496.18,-256.21 2513.73,-187.29 2482,-144 2419.18,-58.29 2358.57,-90.9 2254,-72 2061.14,-37.14 1442.11,-23.02 1273.66,-19.77"/>
<polygon fill="black" stroke="black" points="1273.52,-16.26 1263.46,-19.57 1273.39,-23.26 1273.52,-16.26"/>
</g>
<!-- AccountFreezing&#45;&gt;CoreAddresses -->
<g id="edge41" class="edge">
<title>AccountFreezing&#45;&gt;CoreAddresses</title>
<path fill="none" stroke="black" d="M2472.88,-287.98C2459.66,-253.99 2424.97,-178.06 2368,-144 2301.56,-104.28 2080.64,-94.3 1963.85,-91.81"/>
<polygon fill="black" stroke="black" points="1963.63,-88.3 1953.56,-91.6 1963.49,-95.3 1963.63,-88.3"/>
</g>
<!-- AccountFreezing&#45;&gt;DiemTimestamp -->
<g id="edge42" class="edge">
<title>AccountFreezing&#45;&gt;DiemTimestamp</title>
<path fill="none" stroke="black" d="M2408.02,-303.81C2214.01,-300.14 1677.82,-287.02 1505,-252 1458.7,-242.62 1450.54,-228.54 1405,-216 1336.97,-197.27 1257.63,-182.65 1202.08,-173.55"/>
<polygon fill="black" stroke="black" points="1202.42,-170.06 1191.99,-171.92 1201.3,-176.97 1202.42,-170.06"/>
</g>
<!-- AccountFreezing&#45;&gt;Roles -->
<g id="edge43" class="edge">
<title>AccountFreezing&#45;&gt;Roles</title>
<path fill="none" stroke="black" d="M2408.93,-302.3C2240.71,-295.64 1800.77,-277.12 1434,-252 1379.61,-248.28 1316.89,-242.63 1277.11,-238.88"/>
<polygon fill="black" stroke="black" points="1277.3,-235.38 1267.01,-237.92 1276.64,-242.35 1277.3,-235.38"/>
</g>
<!-- AccountFreezing&#45;&gt;Event -->
<g id="edge44" class="edge">
<title>AccountFreezing&#45;&gt;Event</title>
<path fill="none" stroke="black" d="M2509.94,-289.64C2533.03,-278.18 2564.48,-262.56 2587.85,-250.96"/>
<polygon fill="black" stroke="black" points="2589.6,-254 2597.01,-246.42 2586.49,-247.73 2589.6,-254"/>
</g>
<!-- DiemAccount&#45;&gt;SlidingNonce -->
<g id="edge49" class="edge">
<title>DiemAccount&#45;&gt;SlidingNonce</title>
<path fill="none" stroke="black" d="M1565.2,-664.22C1819.36,-660.73 2794.13,-645.21 2850,-612 2900.12,-582.21 2927.11,-515.27 2938.79,-477.76"/>
<polygon fill="black" stroke="black" points="2942.19,-478.6 2941.69,-468.02 2935.48,-476.6 2942.19,-478.6"/>
</g>
<!-- DiemAccount&#45;&gt;Diem -->
<g id="edge55" class="edge">
<title>DiemAccount&#45;&gt;Diem</title>
<path fill="none" stroke="black" d="M1498.75,-647.85C1485.17,-610.58 1452.88,-522 1436.66,-477.49"/>
<polygon fill="black" stroke="black" points="1439.89,-476.13 1433.17,-467.94 1433.31,-478.53 1439.89,-476.13"/>
</g>
<!-- DiemAccount&#45;&gt;TransactionFee -->
<g id="edge63" class="edge">
<title>DiemAccount&#45;&gt;TransactionFee</title>
<path fill="none" stroke="black" d="M1444.79,-663.4C1320.52,-659.48 1026.84,-647.01 783,-612 775.94,-610.99 768.56,-609.7 761.27,-608.3"/>
<polygon fill="black" stroke="black" points="761.92,-604.86 751.43,-606.32 760.55,-611.72 761.92,-604.86"/>
</g>
<!-- DiemAccount&#45;&gt;DualAttestation -->
<g id="edge65" class="edge">
<title>DiemAccount&#45;&gt;DualAttestation</title>
<path fill="none" stroke="black" d="M1560.15,-658.41C1633.44,-649.39 1766.85,-631.99 1880,-612 1886.67,-610.82 1893.63,-609.49 1900.55,-608.11"/>
<polygon fill="black" stroke="black" points="1901.5,-611.48 1910.6,-606.05 1900.1,-604.63 1901.5,-611.48"/>
</g>
<!-- DiemAccount&#45;&gt;AccountFreezing -->
<g id="edge69" class="edge">
<title>DiemAccount&#45;&gt;AccountFreezing</title>
<path fill="none" stroke="black" d="M1565.59,-665C1775.03,-664.57 2460.36,-659.52 2546,-612 2588.15,-588.61 2608,-571.21 2608,-523 2608,-523 2608,-523 2608,-449 2608,-394.58 2555.44,-351.78 2517.42,-327.93"/>
<polygon fill="black" stroke="black" points="2518.96,-324.77 2508.6,-322.57 2515.32,-330.75 2518.96,-324.77"/>
</g>
<!-- DiemAccount&#45;&gt;Signer -->
<g id="edge45" class="edge">
<title>DiemAccount&#45;&gt;Signer</title>
<path fill="none" stroke="black" d="M1564.94,-663.62C1802.9,-657.99 2670.66,-635.91 2724,-612 2827.66,-565.53 2920,-310.37 2920,-307 2920,-307 2920,-307 2920,-161 2920,-89.51 2853.62,-95.23 2786,-72 2663.82,-30.02 2263.92,-21.22 2130.08,-19.44"/>
<polygon fill="black" stroke="black" points="2129.85,-15.94 2119.81,-19.31 2129.76,-22.93 2129.85,-15.94"/>
</g>
<!-- DiemAccount&#45;&gt;Errors -->
<g id="edge46" class="edge">
<title>DiemAccount&#45;&gt;Errors</title>
<path fill="none" stroke="black" d="M1444.68,-664.46C1203.69,-662.02 317.34,-650.51 198,-612 90.06,-577.17 0,-564.42 0,-451 0,-451 0,-451 0,-161 0,-97.07 53.11,-94.36 113,-72 215.06,-33.9 996.19,-21.88 1188.38,-19.49"/>
<polygon fill="black" stroke="black" points="1188.43,-22.99 1198.38,-19.36 1188.34,-15.99 1188.43,-22.99"/>
</g>
<!-- DiemAccount&#45;&gt;CoreAddresses -->
<g id="edge47" class="edge">
<title>DiemAccount&#45;&gt;CoreAddresses</title>
<path fill="none" stroke="black" d="M1564.86,-663.01C1674.22,-658.65 1913.34,-645.8 2112,-612 2239.52,-590.3 2314.65,-642.16 2394,-540 2451.82,-465.56 2320,-196.92 2242,-144 2197.68,-113.93 2052.03,-100.29 1962.56,-94.61"/>
<polygon fill="black" stroke="black" points="1962.68,-91.11 1952.48,-93.98 1962.25,-98.09 1962.68,-91.11"/>
</g>
<!-- DiemAccount&#45;&gt;DiemTimestamp -->
<g id="edge48" class="edge">
<title>DiemAccount&#45;&gt;DiemTimestamp</title>
<path fill="none" stroke="black" d="M1444.73,-664.25C1252.09,-661.51 652.82,-650.04 463,-612 277.33,-574.79 170.95,-622.88 62,-468 10.84,-395.27 26.28,-334.65 331,-216 460.39,-165.62 873.62,-161.56 1050.46,-162.23"/>
<polygon fill="black" stroke="black" points="1050.47,-165.73 1060.48,-162.28 1050.5,-158.73 1050.47,-165.73"/>
</g>
<!-- DiemAccount&#45;&gt;Roles -->
<g id="edge50" class="edge">
<title>DiemAccount&#45;&gt;Roles</title>
<path fill="none" stroke="black" d="M1446.29,-661.38C1362.86,-652.69 1220,-623.2 1220,-523 1220,-523 1220,-523 1220,-449 1220,-381.74 1228.45,-302.97 1233.43,-262.34"/>
<polygon fill="black" stroke="black" points="1236.94,-262.52 1234.71,-252.16 1229.99,-261.65 1236.94,-262.52"/>
</g>
<!-- DiemAccount&#45;&gt;Vector -->
<g id="edge51" class="edge">
<title>DiemAccount&#45;&gt;Vector</title>
<path fill="none" stroke="black" d="M1565.6,-664.7C1665.11,-662.93 1868.67,-653.94 2035,-612 2115.75,-591.64 2147.75,-597.5 2208,-540 2289.43,-462.3 2256.51,-398.07 2233,-288 2226.01,-255.28 2227.36,-245.19 2211,-216 2204.77,-204.88 2195.88,-194.08 2187.5,-185.16"/>
<polygon fill="black" stroke="black" points="2189.85,-182.55 2180.36,-177.84 2184.84,-187.44 2189.85,-182.55"/>
</g>
<!-- DiemAccount&#45;&gt;Event -->
<g id="edge53" class="edge">
<title>DiemAccount&#45;&gt;Event</title>
<path fill="none" stroke="black" d="M1565.48,-665.31C1763.17,-665.8 2388.66,-663.18 2583,-612 2668.15,-589.58 2760,-611.05 2760,-523 2760,-523 2760,-523 2760,-449 2760,-366.34 2685.96,-290.73 2645.56,-255.63"/>
<polygon fill="black" stroke="black" points="2647.62,-252.78 2637.73,-248.96 2643.08,-258.11 2647.62,-252.78"/>
</g>
<!-- DiemAccount&#45;&gt;XUS -->
<g id="edge57" class="edge">
<title>DiemAccount&#45;&gt;XUS</title>
<path fill="none" stroke="black" d="M1444.73,-664.04C1258.84,-660.72 702.57,-647.87 630,-612 602.08,-598.2 580.11,-569.28 566.9,-548.13"/>
<polygon fill="black" stroke="black" points="569.77,-546.11 561.62,-539.33 563.76,-549.71 569.77,-546.11"/>
</g>
<!-- DiemAccount&#45;&gt;XDX -->
<g id="edge58" class="edge">
<title>DiemAccount&#45;&gt;XDX</title>
<path fill="none" stroke="black" d="M1444.97,-663.34C1288.06,-658.59 874.11,-643.21 821,-612 797.13,-597.97 781.03,-570.02 771.76,-549.17"/>
<polygon fill="black" stroke="black" points="774.96,-547.74 767.87,-539.88 768.5,-550.45 774.96,-547.74"/>
</g>
<!-- DiemAccount&#45;&gt;BCS -->
<g id="edge52" class="edge">
<title>DiemAccount&#45;&gt;BCS</title>
<path fill="none" stroke="black" d="M1565.39,-664.29C1789.93,-661.39 2569.15,-648.74 2674,-612 2725.34,-594.01 2746.73,-587.64 2773,-540 2837.25,-423.48 2807.07,-254.43 2791.88,-189.64"/>
<polygon fill="black" stroke="black" points="2795.26,-188.71 2789.5,-179.81 2788.45,-190.36 2795.26,-188.71"/>
</g>
<!-- DiemAccount&#45;&gt;VASP -->
<g id="edge62" class="edge">
<title>DiemAccount&#45;&gt;VASP</title>
<path fill="none" stroke="black" d="M1445.68,-662.24C1368.39,-657.39 1239.17,-644.53 1206,-612 1177.09,-583.65 1165.46,-461.65 1161.62,-406.39"/>
<polygon fill="black" stroke="black" points="1165.1,-406.02 1160.95,-396.28 1158.12,-406.49 1165.1,-406.02"/>
</g>
<!-- DiemConfig -->
<g id="node22" class="node">
<title>DiemConfig</title>
<ellipse fill="none" stroke="black" cx="1727" cy="-306" rx="54.69" ry="18"/>
<text text-anchor="middle" x="1727" y="-302.3" font-family="Times,serif" font-size="14.00">DiemConfig</text>
</g>
<!-- DiemAccount&#45;&gt;DiemConfig -->
<g id="edge54" class="edge">
<title>DiemAccount&#45;&gt;DiemConfig</title>
<path fill="none" stroke="black" d="M1516.21,-648.11C1522.85,-637.85 1531.26,-624.37 1538,-612 1597.28,-503.25 1578.93,-456.16 1657,-360 1666.99,-347.69 1680.42,-336.64 1692.84,-327.85"/>
<polygon fill="black" stroke="black" points="1694.93,-330.66 1701.22,-322.14 1690.99,-324.88 1694.93,-330.66"/>
</g>
<!-- AccountLimits -->
<g id="node23" class="node">
<title>AccountLimits</title>
<ellipse fill="none" stroke="black" cx="762" cy="-306" rx="63.89" ry="18"/>
<text text-anchor="middle" x="762" y="-302.3" font-family="Times,serif" font-size="14.00">AccountLimits</text>
</g>
<!-- DiemAccount&#45;&gt;AccountLimits -->
<g id="edge56" class="edge">
<title>DiemAccount&#45;&gt;AccountLimits</title>
<path fill="none" stroke="black" d="M1444.66,-664.95C1279.97,-663.21 835,-647.03 835,-523 835,-523 835,-523 835,-449 835,-403.73 805.29,-358.42 783.77,-331.56"/>
<polygon fill="black" stroke="black" points="786.19,-328.99 777.13,-323.5 780.79,-333.44 786.19,-328.99"/>
</g>
<!-- ValidatorOperatorConfig -->
<g id="node24" class="node">
<title>ValidatorOperatorConfig</title>
<ellipse fill="none" stroke="black" cx="544" cy="-306" rx="98.28" ry="18"/>
<text text-anchor="middle" x="544" y="-302.3" font-family="Times,serif" font-size="14.00">ValidatorOperatorConfig</text>
</g>
<!-- DiemAccount&#45;&gt;ValidatorOperatorConfig -->
<g id="edge59" class="edge">
<title>DiemAccount&#45;&gt;ValidatorOperatorConfig</title>
<path fill="none" stroke="black" d="M1444.34,-665.29C1266.06,-665.53 746.16,-661.83 585,-612 414.68,-559.33 327.9,-554.87 247,-396 239.74,-381.74 236.73,-372.27 247,-360 271.46,-330.79 364.02,-317.66 439.39,-311.77"/>
<polygon fill="black" stroke="black" points="439.72,-315.26 449.43,-311.02 439.2,-308.28 439.72,-315.26"/>
</g>
<!-- Option -->
<g id="node25" class="node">
<title>Option</title>
<ellipse fill="none" stroke="black" cx="2025" cy="-234" rx="35.19" ry="18"/>
<text text-anchor="middle" x="2025" y="-230.3" font-family="Times,serif" font-size="14.00">Option</text>
</g>
<!-- DiemAccount&#45;&gt;Option -->
<g id="edge60" class="edge">
<title>DiemAccount&#45;&gt;Option</title>
<path fill="none" stroke="black" d="M1559.03,-657.65C1674.58,-638.65 1943.92,-576.13 2052,-396 2077.48,-353.53 2055.59,-294.02 2039.13,-260.52"/>
<polygon fill="black" stroke="black" points="2042.14,-258.72 2034.47,-251.41 2035.91,-261.9 2042.14,-258.72"/>
</g>
<!-- ValidatorConfig -->
<g id="node26" class="node">
<title>ValidatorConfig</title>
<ellipse fill="none" stroke="black" cx="930" cy="-378" rx="66.89" ry="18"/>
<text text-anchor="middle" x="930" y="-374.3" font-family="Times,serif" font-size="14.00">ValidatorConfig</text>
</g>
<!-- DiemAccount&#45;&gt;ValidatorConfig -->
<g id="edge61" class="edge">
<title>DiemAccount&#45;&gt;ValidatorConfig</title>
<path fill="none" stroke="black" d="M1444.53,-665.15C1377.59,-663.08 1268.05,-652.91 1184,-612 1130.02,-585.73 1004.64,-457.52 952.93,-403.3"/>
<polygon fill="black" stroke="black" points="955.28,-400.69 945.85,-395.85 950.21,-405.51 955.28,-400.69"/>
</g>
<!-- Hash -->
<g id="node27" class="node">
<title>Hash</title>
<ellipse fill="none" stroke="black" cx="1087" cy="-594" rx="28.7" ry="18"/>
<text text-anchor="middle" x="1087" y="-590.3" font-family="Times,serif" font-size="14.00">Hash</text>
</g>
<!-- DiemAccount&#45;&gt;Hash -->
<g id="edge64" class="edge">
<title>DiemAccount&#45;&gt;Hash</title>
<path fill="none" stroke="black" d="M1446.66,-661.04C1372.18,-655.02 1239.81,-641.03 1130,-612 1126.56,-611.09 1123.02,-609.99 1119.52,-608.78"/>
<polygon fill="black" stroke="black" points="1120.47,-605.4 1109.87,-605.2 1118.03,-611.96 1120.47,-605.4"/>
</g>
<!-- DiemTransactionPublishingOption -->
<g id="node28" class="node">
<title>DiemTransactionPublishingOption</title>
<ellipse fill="none" stroke="black" cx="1800" cy="-378" rx="133.78" ry="18"/>
<text text-anchor="middle" x="1800" y="-374.3" font-family="Times,serif" font-size="14.00">DiemTransactionPublishingOption</text>
</g>
<!-- DiemAccount&#45;&gt;DiemTransactionPublishingOption -->
<g id="edge66" class="edge">
<title>DiemAccount&#45;&gt;DiemTransactionPublishingOption</title>
<path fill="none" stroke="black" d="M1542.19,-651.75C1564.44,-642.7 1592.48,-629.22 1614,-612 1691.1,-550.31 1756.59,-451.16 1784.95,-404.65"/>
<polygon fill="black" stroke="black" points="1787.95,-406.45 1790.12,-396.08 1781.96,-402.83 1787.95,-406.45"/>
</g>
<!-- DesignatedDealer -->
<g id="node29" class="node">
<title>DesignatedDealer</title>
<ellipse fill="none" stroke="black" cx="1385" cy="-594" rx="73.39" ry="18"/>
<text text-anchor="middle" x="1385" y="-590.3" font-family="Times,serif" font-size="14.00">DesignatedDealer</text>
</g>
<!-- DiemAccount&#45;&gt;DesignatedDealer -->
<g id="edge67" class="edge">
<title>DiemAccount&#45;&gt;DesignatedDealer</title>
<path fill="none" stroke="black" d="M1478.67,-649.64C1461.71,-639.75 1439.45,-626.76 1420.88,-615.93"/>
<polygon fill="black" stroke="black" points="1422.51,-612.83 1412.1,-610.81 1418.98,-618.87 1422.51,-612.83"/>
</g>
<!-- ChainId -->
<g id="node30" class="node">
<title>ChainId</title>
<ellipse fill="none" stroke="black" cx="1553" cy="-234" rx="38.99" ry="18"/>
<text text-anchor="middle" x="1553" y="-230.3" font-family="Times,serif" font-size="14.00">ChainId</text>
</g>
<!-- DiemAccount&#45;&gt;ChainId -->
<g id="edge68" class="edge">
<title>DiemAccount&#45;&gt;ChainId</title>
<path fill="none" stroke="black" d="M1511.57,-648.04C1527.42,-606.1 1567.45,-493.82 1581,-396 1583.2,-380.15 1582.76,-375.9 1581,-360 1577.21,-325.77 1567.76,-287.2 1560.88,-262.08"/>
<polygon fill="black" stroke="black" points="1564.18,-260.88 1558.12,-252.19 1557.44,-262.76 1564.18,-260.88"/>
</g>
<!-- CoreAddresses&#45;&gt;Signer -->
<g id="edge70" class="edge">
<title>CoreAddresses&#45;&gt;Signer</title>
<path fill="none" stroke="black" d="M1927.79,-75.5C1962.72,-63.03 2014.31,-44.6 2048.99,-32.22"/>
<polygon fill="black" stroke="black" points="2050.49,-35.4 2058.73,-28.74 2048.14,-28.81 2050.49,-35.4"/>
</g>
<!-- CoreAddresses&#45;&gt;Errors -->
<g id="edge71" class="edge">
<title>CoreAddresses&#45;&gt;Errors</title>
<path fill="none" stroke="black" d="M1831.52,-82.79C1700.47,-68.87 1385.92,-35.46 1272.59,-23.42"/>
<polygon fill="black" stroke="black" points="1272.89,-19.93 1262.57,-22.35 1272.15,-26.89 1272.89,-19.93"/>
</g>
<!-- DiemTimestamp&#45;&gt;Errors -->
<g id="edge72" class="edge">
<title>DiemTimestamp&#45;&gt;Errors</title>
<path fill="none" stroke="black" d="M1143.75,-144.15C1161.2,-119.12 1194.07,-71.97 1214.1,-43.24"/>
<polygon fill="black" stroke="black" points="1217.03,-45.16 1219.88,-34.95 1211.29,-41.15 1217.03,-45.16"/>
</g>
<!-- DiemTimestamp&#45;&gt;CoreAddresses -->
<g id="edge73" class="edge">
<title>DiemTimestamp&#45;&gt;CoreAddresses</title>
<path fill="none" stroke="black" d="M1197.94,-154.91C1340.22,-141.77 1674.9,-110.86 1820.41,-97.43"/>
<polygon fill="black" stroke="black" points="1820.92,-100.89 1830.55,-96.49 1820.27,-93.92 1820.92,-100.89"/>
</g>
<!-- Roles&#45;&gt;Signer -->
<g id="edge74" class="edge">
<title>Roles&#45;&gt;Signer</title>
<path fill="none" stroke="black" d="M1256.25,-219.66C1303.44,-187.75 1429.66,-107.05 1548,-72 1640.41,-44.63 1930.8,-27.06 2042.04,-21.19"/>
<polygon fill="black" stroke="black" points="2042.43,-24.67 2052.24,-20.66 2042.07,-17.68 2042.43,-24.67"/>
</g>
<!-- Roles&#45;&gt;Errors -->
<g id="edge75" class="edge">
<title>Roles&#45;&gt;Errors</title>
<path fill="none" stroke="black" d="M1236.52,-215.85C1235.48,-178.83 1233.02,-91.18 1231.77,-46.39"/>
<polygon fill="black" stroke="black" points="1235.26,-46.13 1231.48,-36.23 1228.26,-46.33 1235.26,-46.13"/>
</g>
<!-- Roles&#45;&gt;CoreAddresses -->
<g id="edge76" class="edge">
<title>Roles&#45;&gt;CoreAddresses</title>
<path fill="none" stroke="black" d="M1265.48,-226.81C1364.5,-205.27 1695.18,-133.37 1831,-103.83"/>
<polygon fill="black" stroke="black" points="1831.79,-107.24 1840.82,-101.69 1830.31,-100.4 1831.79,-107.24"/>
</g>
<!-- Roles&#45;&gt;DiemTimestamp -->
<g id="edge77" class="edge">
<title>Roles&#45;&gt;DiemTimestamp</title>
<path fill="none" stroke="black" d="M1217.25,-219.83C1202.48,-209.99 1181.95,-196.3 1164.74,-184.82"/>
<polygon fill="black" stroke="black" points="1166.35,-181.69 1156.09,-179.06 1162.46,-187.52 1166.35,-181.69"/>
</g>
<!-- Event&#45;&gt;Signer -->
<g id="edge78" class="edge">
<title>Event&#45;&gt;Signer</title>
<path fill="none" stroke="black" d="M2623.43,-215.91C2628.97,-182.82 2635.62,-109.9 2596,-72 2562.59,-40.04 2247.59,-25.05 2129.99,-20.53"/>
<polygon fill="black" stroke="black" points="2130.02,-17.03 2119.9,-20.15 2129.76,-24.03 2130.02,-17.03"/>
</g>
<!-- Event&#45;&gt;Errors -->
<g id="edge79" class="edge">
<title>Event&#45;&gt;Errors</title>
<path fill="none" stroke="black" d="M2611.92,-216.6C2594.02,-182.35 2547.4,-103.77 2482,-72 2426.54,-45.05 1486.48,-24.24 1273.61,-19.85"/>
<polygon fill="black" stroke="black" points="1273.53,-16.35 1263.46,-19.65 1273.39,-23.35 1273.53,-16.35"/>
</g>
<!-- Event&#45;&gt;Vector -->
<g id="edge80" class="edge">
<title>Event&#45;&gt;Vector</title>
<path fill="none" stroke="black" d="M2590.08,-228.41C2511.19,-216.3 2297.33,-183.47 2206.13,-169.47"/>
<polygon fill="black" stroke="black" points="2206.56,-165.99 2196.14,-167.93 2205.5,-172.91 2206.56,-165.99"/>
</g>
<!-- Event&#45;&gt;BCS -->
<g id="edge81" class="edge">
<title>Event&#45;&gt;BCS</title>
<path fill="none" stroke="black" d="M2644.35,-222.67C2673.27,-210.4 2721.59,-189.9 2753.38,-176.42"/>
<polygon fill="black" stroke="black" points="2754.83,-179.6 2762.67,-172.47 2752.1,-173.16 2754.83,-179.6"/>
</g>
<!-- RegisteredCurrencies&#45;&gt;Errors -->
<g id="edge82" class="edge">
<title>RegisteredCurrencies&#45;&gt;Errors</title>
<path fill="none" stroke="black" d="M1482.95,-359.79C1479.19,-341.24 1471.67,-311.25 1459,-288 1402.25,-183.82 1300.76,-83.22 1254.79,-40.48"/>
<polygon fill="black" stroke="black" points="1257.12,-37.86 1247.39,-33.65 1252.37,-43.01 1257.12,-37.86"/>
</g>
<!-- RegisteredCurrencies&#45;&gt;DiemTimestamp -->
<g id="edge83" class="edge">
<title>RegisteredCurrencies&#45;&gt;DiemTimestamp</title>
<path fill="none" stroke="black" d="M1479.21,-359.74C1470.49,-339.71 1453.5,-307.01 1429,-288 1388.7,-256.72 1364.58,-276.82 1320,-252 1298.22,-239.88 1298.58,-228.47 1277,-216 1249.39,-200.05 1216.12,-187.48 1188.42,-178.59"/>
<polygon fill="black" stroke="black" points="1189.46,-175.25 1178.88,-175.6 1187.37,-181.93 1189.46,-175.25"/>
</g>
<!-- RegisteredCurrencies&#45;&gt;Roles -->
<g id="edge84" class="edge">
<title>RegisteredCurrencies&#45;&gt;Roles</title>
<path fill="none" stroke="black" d="M1472.12,-359.88C1455.14,-340 1424.63,-307.44 1392,-288 1347.8,-261.68 1330.52,-269.09 1282,-252 1278.67,-250.83 1275.21,-249.58 1271.76,-248.31"/>
<polygon fill="black" stroke="black" points="1272.75,-244.94 1262.16,-244.73 1270.3,-251.5 1272.75,-244.94"/>
</g>
<!-- RegisteredCurrencies&#45;&gt;Vector -->
<g id="edge85" class="edge">
<title>RegisteredCurrencies&#45;&gt;Vector</title>
<path fill="none" stroke="black" d="M1557.56,-367.83C1693.67,-349.4 1983.9,-305.04 2069,-252 2087.42,-240.52 2086.39,-231.08 2102,-216 2113.47,-204.92 2126.86,-193.32 2138.25,-183.82"/>
<polygon fill="black" stroke="black" points="2140.65,-186.37 2146.13,-177.3 2136.19,-180.97 2140.65,-186.37"/>
</g>
<!-- RegisteredCurrencies&#45;&gt;DiemConfig -->
<g id="edge86" class="edge">
<title>RegisteredCurrencies&#45;&gt;DiemConfig</title>
<path fill="none" stroke="black" d="M1534.19,-363C1575.77,-350.92 1635.59,-333.55 1677.54,-321.37"/>
<polygon fill="black" stroke="black" points="1678.64,-324.69 1687.27,-318.54 1676.69,-317.97 1678.64,-324.69"/>
</g>
<!-- XUS&#45;&gt;FixedPoint32 -->
<g id="edge88" class="edge">
<title>XUS&#45;&gt;FixedPoint32</title>
<path fill="none" stroke="black" d="M525.12,-517.2C490.1,-511.36 429.34,-497.58 386,-468 361.8,-451.48 341.6,-424.47 328.81,-404.54"/>
<polygon fill="black" stroke="black" points="331.72,-402.58 323.47,-395.93 325.77,-406.28 331.72,-402.58"/>
</g>
<!-- XUS&#45;&gt;Diem -->
<g id="edge89" class="edge">
<title>XUS&#45;&gt;Diem</title>
<path fill="none" stroke="black" d="M580.96,-517.99C614.63,-514.42 672.92,-508.39 723,-504 975.28,-481.89 1278.93,-460.95 1386.68,-453.69"/>
<polygon fill="black" stroke="black" points="1387.04,-457.17 1396.79,-453.01 1386.58,-450.19 1387.04,-457.17"/>
</g>
<!-- XUS&#45;&gt;DiemTimestamp -->
<g id="edge87" class="edge">
<title>XUS&#45;&gt;DiemTimestamp</title>
<path fill="none" stroke="black" d="M538.13,-506.24C489.37,-456.25 342.81,-292.23 438,-216 484.9,-178.44 877.91,-167.25 1050.86,-164.13"/>
<polygon fill="black" stroke="black" points="1050.99,-167.63 1060.92,-163.95 1050.86,-160.63 1050.99,-167.63"/>
</g>
<!-- XUS&#45;&gt;AccountLimits -->
<g id="edge90" class="edge">
<title>XUS&#45;&gt;AccountLimits</title>
<path fill="none" stroke="black" d="M567.37,-506.29C602.94,-469.87 695.36,-375.23 738.8,-330.75"/>
<polygon fill="black" stroke="black" points="741.35,-333.16 745.83,-323.56 736.34,-328.27 741.35,-333.16"/>
</g>
<!-- XDX&#45;&gt;FixedPoint32 -->
<g id="edge94" class="edge">
<title>XDX&#45;&gt;FixedPoint32</title>
<path fill="none" stroke="black" d="M735.98,-512.75C663.29,-489.71 457.25,-424.41 362.62,-394.41"/>
<polygon fill="black" stroke="black" points="363.59,-391.05 353,-391.36 361.47,-397.72 363.59,-391.05"/>
</g>
<!-- XDX&#45;&gt;Diem -->
<g id="edge95" class="edge">
<title>XDX&#45;&gt;Diem</title>
<path fill="none" stroke="black" d="M791.4,-518.41C829.57,-515.06 898.26,-509.05 957,-504 1145.87,-487.77 1197.12,-509.9 1382,-468 1385.83,-467.13 1389.77,-466.01 1393.66,-464.75"/>
<polygon fill="black" stroke="black" points="1394.82,-468.06 1403.09,-461.43 1392.5,-461.45 1394.82,-468.06"/>
</g>
<!-- XDX&#45;&gt;Errors -->
<g id="edge91" class="edge">
<title>XDX&#45;&gt;Errors</title>
<path fill="none" stroke="black" d="M732.8,-518.11C633.96,-507.72 314.32,-468.93 247,-396 149.1,-289.95 118.02,-168.88 225,-72 261.22,-39.2 1001.22,-23.27 1188.32,-19.76"/>
<polygon fill="black" stroke="black" points="1188.64,-23.25 1198.58,-19.57 1188.51,-16.25 1188.64,-23.25"/>
</g>
<!-- XDX&#45;&gt;CoreAddresses -->
<g id="edge92" class="edge">
<title>XDX&#45;&gt;CoreAddresses</title>
<path fill="none" stroke="black" d="M790.56,-516.13C878.93,-501.25 1155.88,-455.9 1387,-432 1448.58,-425.63 1900.66,-441.17 1943,-396 1964.15,-373.44 1963.7,-470.02 1907,-180 1902.95,-159.29 1898.48,-135.84 1895.14,-118.22"/>
<polygon fill="black" stroke="black" points="1898.51,-117.25 1893.22,-108.07 1891.64,-118.55 1898.51,-117.25"/>
</g>
<!-- XDX&#45;&gt;DiemTimestamp -->
<g id="edge93" class="edge">
<title>XDX&#45;&gt;DiemTimestamp</title>
<path fill="none" stroke="black" d="M738.22,-510.85C667.42,-480.08 460.67,-386.16 425,-324 417.04,-310.12 419.43,-303 425,-288 439.7,-248.41 449.37,-235.16 487,-216 583.35,-166.95 899.36,-161.69 1050.31,-162.11"/>
<polygon fill="black" stroke="black" points="1050.44,-165.61 1060.45,-162.15 1050.46,-158.61 1050.44,-165.61"/>
</g>
<!-- XDX&#45;&gt;AccountLimits -->
<g id="edge96" class="edge">
<title>XDX&#45;&gt;AccountLimits</title>
<path fill="none" stroke="black" d="M762,-503.85C762,-466.83 762,-379.18 762,-334.39"/>
<polygon fill="black" stroke="black" points="765.5,-334.23 762,-324.23 758.5,-334.23 765.5,-334.23"/>
</g>
<!-- VASP&#45;&gt;Signer -->
<g id="edge97" class="edge">
<title>VASP&#45;&gt;Signer</title>
<path fill="none" stroke="black" d="M1192.29,-374.56C1320.32,-364.87 1785.59,-329.31 1791,-324 1871.37,-245.14 1741.12,-155.18 1817,-72 1846.67,-39.47 1973.94,-26.28 2042.25,-21.46"/>
<polygon fill="black" stroke="black" points="2042.54,-24.95 2052.29,-20.79 2042.07,-17.97 2042.54,-24.95"/>
</g>
<!-- VASP&#45;&gt;Errors -->
<g id="edge98" class="edge">
<title>VASP&#45;&gt;Errors</title>
<path fill="none" stroke="black" d="M1143.53,-362.32C1103.96,-325.21 1009.85,-224.85 1052,-144 1081.98,-86.51 1151.82,-50.03 1194.86,-32.16"/>
<polygon fill="black" stroke="black" points="1196.17,-35.41 1204.14,-28.43 1193.55,-28.92 1196.17,-35.41"/>
</g>
<!-- VASP&#45;&gt;DiemTimestamp -->
<g id="edge99" class="edge">
<title>VASP&#45;&gt;DiemTimestamp</title>
<path fill="none" stroke="black" d="M1157.76,-359.85C1152.91,-322.83 1141.44,-235.18 1135.58,-190.39"/>
<polygon fill="black" stroke="black" points="1139.02,-189.69 1134.25,-180.23 1132.08,-190.6 1139.02,-189.69"/>
</g>
<!-- VASP&#45;&gt;Roles -->
<g id="edge100" class="edge">
<title>VASP&#45;&gt;Roles</title>
<path fill="none" stroke="black" d="M1168.98,-360.43C1182.31,-335.85 1207.44,-289.51 1223.14,-260.56"/>
<polygon fill="black" stroke="black" points="1226.38,-261.92 1228.07,-251.46 1220.23,-258.58 1226.38,-261.92"/>
</g>
<!-- VASP&#45;&gt;AccountLimits -->
<g id="edge101" class="edge">
<title>VASP&#45;&gt;AccountLimits</title>
<path fill="none" stroke="black" d="M1129.43,-371.62C1064.38,-360.18 911.15,-333.23 824.51,-317.99"/>
<polygon fill="black" stroke="black" points="825,-314.53 814.54,-316.24 823.79,-321.42 825,-314.53"/>
</g>
<!-- DiemConfig&#45;&gt;Signer -->
<g id="edge102" class="edge">
<title>DiemConfig&#45;&gt;Signer</title>
<path fill="none" stroke="black" d="M1723.54,-287.73C1716.02,-244.64 1703.24,-131.53 1762,-72 1800.37,-33.13 1962.87,-22.75 2042.14,-19.99"/>
<polygon fill="black" stroke="black" points="2042.42,-23.49 2052.3,-19.67 2042.19,-16.49 2042.42,-23.49"/>
</g>
<!-- DiemConfig&#45;&gt;Errors -->
<g id="edge103" class="edge">
<title>DiemConfig&#45;&gt;Errors</title>
<path fill="none" stroke="black" d="M1714.8,-288.24C1682.23,-244.82 1588.37,-128.17 1481,-72 1413.88,-36.88 1325.09,-25.03 1273.39,-21.04"/>
<polygon fill="black" stroke="black" points="1273.47,-17.53 1263.25,-20.32 1272.98,-24.52 1273.47,-17.53"/>
</g>
<!-- DiemConfig&#45;&gt;CoreAddresses -->
<g id="edge104" class="edge">
<title>DiemConfig&#45;&gt;CoreAddresses</title>
<path fill="none" stroke="black" d="M1737.44,-287.86C1756.13,-257.66 1797.17,-193.5 1838,-144 1846.33,-133.9 1856.24,-123.47 1865.16,-114.57"/>
<polygon fill="black" stroke="black" points="1867.68,-116.99 1872.36,-107.48 1862.77,-112 1867.68,-116.99"/>
</g>
<!-- DiemConfig&#45;&gt;DiemTimestamp -->
<g id="edge105" class="edge">
<title>DiemConfig&#45;&gt;DiemTimestamp</title>
<path fill="none" stroke="black" d="M1676.19,-299.22C1617.14,-291.72 1517.15,-276.61 1434,-252 1394.27,-240.24 1387.35,-228.98 1348,-216 1297.82,-199.45 1239.57,-185.45 1196.21,-176"/>
<polygon fill="black" stroke="black" points="1196.88,-172.57 1186.36,-173.88 1195.4,-179.41 1196.88,-172.57"/>
</g>
<!-- DiemConfig&#45;&gt;Roles -->
<g id="edge106" class="edge">
<title>DiemConfig&#45;&gt;Roles</title>
<path fill="none" stroke="black" d="M1677.77,-297.97C1580.43,-284.06 1365.08,-253.3 1276.37,-240.62"/>
<polygon fill="black" stroke="black" points="1276.84,-237.16 1266.44,-239.21 1275.85,-244.08 1276.84,-237.16"/>
</g>
<!-- DiemConfig&#45;&gt;Event -->
<g id="edge107" class="edge">
<title>DiemConfig&#45;&gt;Event</title>
<path fill="none" stroke="black" d="M1779.53,-300.88C1941.84,-288.16 2433.17,-249.65 2578.86,-238.22"/>
<polygon fill="black" stroke="black" points="2579.44,-241.69 2589.14,-237.42 2578.89,-234.71 2579.44,-241.69"/>
</g>
<!-- AccountLimits&#45;&gt;Signer -->
<g id="edge108" class="edge">
<title>AccountLimits&#45;&gt;Signer</title>
<path fill="none" stroke="black" d="M819.97,-298.32C851.58,-294.86 891.4,-290.78 927,-288 1001.77,-282.16 1542.89,-299.41 1601,-252 1665.06,-199.73 1585.72,-126.39 1648,-72 1705.95,-21.39 1942.67,-17.57 2041.9,-18.27"/>
<polygon fill="black" stroke="black" points="2041.88,-21.77 2051.91,-18.36 2041.94,-14.77 2041.88,-21.77"/>
</g>
<!-- AccountLimits&#45;&gt;Errors -->
<g id="edge109" class="edge">
<title>AccountLimits&#45;&gt;Errors</title>
<path fill="none" stroke="black" d="M764.94,-287.98C768.97,-268.79 777.75,-237.45 795,-216 869.17,-123.77 910.37,-118.98 1019,-72 1075.74,-47.46 1146.13,-32.69 1189.81,-25.19"/>
<polygon fill="black" stroke="black" points="1190.5,-28.63 1199.79,-23.53 1189.35,-21.72 1190.5,-28.63"/>
</g>
<!-- AccountLimits&#45;&gt;DiemTimestamp -->
<g id="edge110" class="edge">
<title>AccountLimits&#45;&gt;DiemTimestamp</title>
<path fill="none" stroke="black" d="M771.75,-288.17C784.61,-267.61 809.25,-233.42 840,-216 904.55,-179.44 988.86,-167.24 1050.28,-163.56"/>
<polygon fill="black" stroke="black" points="1050.52,-167.05 1060.32,-163.02 1050.15,-160.06 1050.52,-167.05"/>
</g>
<!-- AccountLimits&#45;&gt;Roles -->
<g id="edge111" class="edge">
<title>AccountLimits&#45;&gt;Roles</title>
<path fill="none" stroke="black" d="M817.42,-296.83C914.56,-282.52 1113.27,-253.23 1197.67,-240.8"/>
<polygon fill="black" stroke="black" points="1198.24,-244.25 1207.62,-239.33 1197.22,-237.32 1198.24,-244.25"/>
</g>
<!-- ValidatorOperatorConfig&#45;&gt;Signer -->
<g id="edge112" class="edge">
<title>ValidatorOperatorConfig&#45;&gt;Signer</title>
<path fill="none" stroke="black" d="M615.84,-293.73C764.42,-270.08 1100.89,-214.57 1212,-180 1324.85,-144.89 1340.52,-101.36 1455,-72 1566.49,-43.41 1917.77,-26.13 2041.96,-20.79"/>
<polygon fill="black" stroke="black" points="2042.39,-24.27 2052.23,-20.35 2042.09,-17.28 2042.39,-24.27"/>
</g>
<!-- ValidatorOperatorConfig&#45;&gt;Errors -->
<g id="edge113" class="edge">
<title>ValidatorOperatorConfig&#45;&gt;Errors</title>
<path fill="none" stroke="black" d="M565.21,-288.29C621.31,-245.01 779.71,-128.67 931,-72 1019.07,-39.01 1129.54,-26.28 1188.8,-21.58"/>
<polygon fill="black" stroke="black" points="1189.19,-25.06 1198.9,-20.82 1188.67,-18.08 1189.19,-25.06"/>
</g>
<!-- ValidatorOperatorConfig&#45;&gt;DiemTimestamp -->
<g id="edge114" class="edge">
<title>ValidatorOperatorConfig&#45;&gt;DiemTimestamp</title>
<path fill="none" stroke="black" d="M581.6,-289.2C630.1,-269.39 717.47,-235.66 795,-216 883.6,-193.53 987.85,-178.89 1056.68,-170.81"/>
<polygon fill="black" stroke="black" points="1057.46,-174.24 1066.99,-169.61 1056.66,-167.29 1057.46,-174.24"/>
</g>
<!-- ValidatorOperatorConfig&#45;&gt;Roles -->
<g id="edge115" class="edge">
<title>ValidatorOperatorConfig&#45;&gt;Roles</title>
<path fill="none" stroke="black" d="M614.7,-293.5C628.38,-291.49 642.62,-289.55 656,-288 853.54,-265.06 904.19,-272.43 1102,-252 1134.15,-248.68 1170.5,-244.05 1197.38,-240.46"/>
<polygon fill="black" stroke="black" points="1198.1,-243.9 1207.55,-239.09 1197.17,-236.96 1198.1,-243.9"/>
</g>
<!-- Option&#45;&gt;Errors -->
<g id="edge116" class="edge">
<title>Option&#45;&gt;Errors</title>
<path fill="none" stroke="black" d="M2024.11,-215.86C2021.34,-181.99 2009.93,-106.77 1963,-72 1907.58,-30.93 1422.13,-21.42 1273.84,-19.46"/>
<polygon fill="black" stroke="black" points="1273.8,-15.96 1263.75,-19.33 1273.71,-22.96 1273.8,-15.96"/>
</g>
<!-- Option&#45;&gt;Vector -->
<g id="edge117" class="edge">
<title>Option&#45;&gt;Vector</title>
<path fill="none" stroke="black" d="M2049.21,-220.81C2071.83,-209.41 2105.8,-192.31 2130.91,-179.66"/>
<polygon fill="black" stroke="black" points="2132.71,-182.68 2140.07,-175.05 2129.56,-176.43 2132.71,-182.68"/>
</g>
<!-- ValidatorConfig&#45;&gt;Signer -->
<g id="edge118" class="edge">
<title>ValidatorConfig&#45;&gt;Signer</title>
<path fill="none" stroke="black" d="M988.86,-369.31C1147.48,-348.19 1575.38,-288.45 1628,-252 1704.5,-199 1657.78,-123.95 1735,-72 1784.47,-38.72 1959.65,-25.47 2042.27,-20.99"/>
<polygon fill="black" stroke="black" points="2042.54,-24.48 2052.34,-20.46 2042.17,-17.49 2042.54,-24.48"/>
</g>
<!-- ValidatorConfig&#45;&gt;Errors -->
<g id="edge119" class="edge">
<title>ValidatorConfig&#45;&gt;Errors</title>
<path fill="none" stroke="black" d="M863.87,-375.06C747.52,-370.8 511.43,-358.13 437,-324 384.41,-299.88 342,-292.86 342,-235 342,-235 342,-235 342,-161 342,-74.17 1011.81,-31.09 1188.63,-21.23"/>
<polygon fill="black" stroke="black" points="1189.04,-24.71 1198.83,-20.67 1188.66,-17.72 1189.04,-24.71"/>
</g>
<!-- ValidatorConfig&#45;&gt;DiemTimestamp -->
<g id="edge120" class="edge">
<title>ValidatorConfig&#45;&gt;DiemTimestamp</title>
<path fill="none" stroke="black" d="M917.57,-360.26C905.36,-341.59 890.38,-310.99 904,-288 939.84,-227.48 1016.5,-194.33 1071.03,-177.64"/>
<polygon fill="black" stroke="black" points="1072.34,-180.91 1080.94,-174.72 1070.35,-174.19 1072.34,-180.91"/>
</g>
<!-- ValidatorConfig&#45;&gt;Roles -->
<g id="edge122" class="edge">
<title>ValidatorConfig&#45;&gt;Roles</title>
<path fill="none" stroke="black" d="M920.32,-360.13C910.48,-340.49 898.9,-308.16 916,-288 925.08,-277.3 1113.54,-251.27 1197.38,-240.16"/>
<polygon fill="black" stroke="black" points="1198.09,-243.6 1207.54,-238.82 1197.17,-236.66 1198.09,-243.6"/>
</g>
<!-- ValidatorConfig&#45;&gt;Signature -->
<g id="edge121" class="edge">
<title>ValidatorConfig&#45;&gt;Signature</title>
<path fill="none" stroke="black" d="M947.06,-360.41C956.34,-351.39 967.97,-340.09 978.13,-330.21"/>
<polygon fill="black" stroke="black" points="980.82,-332.47 985.56,-322.99 975.95,-327.45 980.82,-332.47"/>
</g>
<!-- ValidatorConfig&#45;&gt;ValidatorOperatorConfig -->
<g id="edge123" class="edge">
<title>ValidatorConfig&#45;&gt;ValidatorOperatorConfig</title>
<path fill="none" stroke="black" d="M875.92,-367.19C809.6,-355.17 696.72,-334.69 621.26,-321.01"/>
<polygon fill="black" stroke="black" points="621.79,-317.55 611.33,-319.21 620.55,-324.44 621.79,-317.55"/>
</g>
<!-- ValidatorConfig&#45;&gt;Option -->
<g id="edge124" class="edge">
<title>ValidatorConfig&#45;&gt;Option</title>
<path fill="none" stroke="black" d="M928.09,-359.87C926.86,-339.33 928.42,-305.5 949,-288 953.99,-283.75 1776.62,-246.24 1979.95,-237.04"/>
<polygon fill="black" stroke="black" points="1980.16,-240.53 1989.99,-236.58 1979.84,-233.54 1980.16,-240.53"/>
</g>
<!-- DiemTransactionPublishingOption&#45;&gt;Signer -->
<g id="edge125" class="edge">
<title>DiemTransactionPublishingOption&#45;&gt;Signer</title>
<path fill="none" stroke="black" d="M1896.6,-365.52C1999.94,-347.12 2155.91,-299.88 2207,-180 2231.95,-121.47 2160.3,-64.8 2116.77,-36.92"/>
<polygon fill="black" stroke="black" points="2118.55,-33.91 2108.21,-31.58 2114.84,-39.85 2118.55,-33.91"/>
</g>
<!-- DiemTransactionPublishingOption&#45;&gt;Errors -->
<g id="edge126" class="edge">
<title>DiemTransactionPublishingOption&#45;&gt;Errors</title>
<path fill="none" stroke="black" d="M1756.55,-360.93C1729.48,-350.74 1694.03,-337.06 1663,-324 1591.87,-294.07 1568.71,-295.55 1505,-252 1410.29,-187.26 1411.02,-141.83 1320,-72 1302.3,-58.42 1280.86,-45.56 1263.46,-35.91"/>
<polygon fill="black" stroke="black" points="1264.71,-32.6 1254.26,-30.89 1261.36,-38.75 1264.71,-32.6"/>
</g>
<!-- DiemTransactionPublishingOption&#45;&gt;CoreAddresses -->
<g id="edge127" class="edge">
<title>DiemTransactionPublishingOption&#45;&gt;CoreAddresses</title>
<path fill="none" stroke="black" d="M1808.67,-359.61C1813.56,-349.39 1819.56,-336.14 1824,-324 1838.05,-285.58 1868.88,-170.94 1882.85,-118.16"/>
<polygon fill="black" stroke="black" points="1886.32,-118.73 1885.49,-108.17 1879.55,-116.95 1886.32,-118.73"/>
</g>
<!-- DiemTransactionPublishingOption&#45;&gt;DiemTimestamp -->
<g id="edge128" class="edge">
<title>DiemTransactionPublishingOption&#45;&gt;DiemTimestamp</title>
<path fill="none" stroke="black" d="M1735.91,-362.09C1694.6,-352.13 1639.85,-338.27 1592,-324 1544.73,-309.9 1534.25,-302.19 1487,-288 1425.88,-269.64 1403.18,-284.07 1348,-252 1328.71,-240.79 1332.12,-227.51 1313,-216 1278.92,-195.47 1236.42,-182.49 1201.16,-174.52"/>
<polygon fill="black" stroke="black" points="1201.46,-171 1190.95,-172.3 1199.98,-177.84 1201.46,-171"/>
</g>
<!-- DiemTransactionPublishingOption&#45;&gt;Roles -->
<g id="edge129" class="edge">
<title>DiemTransactionPublishingOption&#45;&gt;Roles</title>
<path fill="none" stroke="black" d="M1708.37,-364.85C1652.16,-356.18 1579.11,-342.72 1516,-324 1475.88,-312.1 1468.58,-301.59 1429,-288 1376.31,-269.9 1313.9,-253.59 1274.87,-243.99"/>
<polygon fill="black" stroke="black" points="1275.53,-240.55 1264.99,-241.58 1273.87,-247.35 1275.53,-240.55"/>
</g>
<!-- DiemTransactionPublishingOption&#45;&gt;Vector -->
<g id="edge130" class="edge">
<title>DiemTransactionPublishingOption&#45;&gt;Vector</title>
<path fill="none" stroke="black" d="M1870.11,-362.59C1936.62,-345.83 2035.94,-312.41 2102,-252 2122.06,-233.65 2139.22,-207.69 2150.36,-188.54"/>
<polygon fill="black" stroke="black" points="2153.46,-190.18 2155.33,-179.75 2147.36,-186.73 2153.46,-190.18"/>
</g>
<!-- DiemTransactionPublishingOption&#45;&gt;DiemConfig -->
<g id="edge131" class="edge">
<title>DiemTransactionPublishingOption&#45;&gt;DiemConfig</title>
<path fill="none" stroke="black" d="M1782.33,-360.05C1773.05,-351.16 1761.53,-340.11 1751.41,-330.41"/>
<polygon fill="black" stroke="black" points="1753.65,-327.7 1744.01,-323.31 1748.8,-332.75 1753.65,-327.7"/>
</g>
<!-- DesignatedDealer&#45;&gt;Diem -->
<g id="edge136" class="edge">
<title>DesignatedDealer&#45;&gt;Diem</title>
<path fill="none" stroke="black" d="M1390.07,-575.87C1397.26,-551.56 1410.49,-506.82 1419.01,-478.01"/>
<polygon fill="black" stroke="black" points="1422.44,-478.77 1421.92,-468.19 1415.72,-476.79 1422.44,-478.77"/>
</g>
<!-- DesignatedDealer&#45;&gt;Signer -->
<g id="edge132" class="edge">
<title>DesignatedDealer&#45;&gt;Signer</title>
<path fill="none" stroke="black" d="M1456.36,-589.57C1734.42,-574.32 2730,-501.1 2730,-235 2730,-235 2730,-235 2730,-161 2730,-98.46 2678.8,-95.88 2621,-72 2532.42,-35.41 2241.64,-23.42 2130.1,-20.11"/>
<polygon fill="black" stroke="black" points="2129.97,-16.6 2119.88,-19.81 2129.77,-23.6 2129.97,-16.6"/>
</g>
<!-- DesignatedDealer&#45;&gt;Errors -->
<g id="edge133" class="edge">
<title>DesignatedDealer&#45;&gt;Errors</title>
<path fill="none" stroke="black" d="M1315.21,-588.32C1262.87,-584.83 1189.45,-580.01 1125,-576 776.14,-554.3 654.89,-631.59 346,-468 232.75,-408.02 186.81,-376.14 155,-252 134.79,-173.13 121.88,-118.08 189,-72 272.31,-14.8 1002.23,-17.05 1188.09,-18.57"/>
<polygon fill="black" stroke="black" points="1188.26,-22.07 1198.29,-18.66 1188.32,-15.07 1188.26,-22.07"/>
</g>
<!-- DesignatedDealer&#45;&gt;Roles -->
<g id="edge134" class="edge">
<title>DesignatedDealer&#45;&gt;Roles</title>
<path fill="none" stroke="black" d="M1377.86,-575.73C1353.92,-517.82 1276.38,-330.27 1247.75,-261.01"/>
<polygon fill="black" stroke="black" points="1250.95,-259.58 1243.9,-251.68 1244.48,-262.26 1250.95,-259.58"/>
</g>
<!-- DesignatedDealer&#45;&gt;Event -->
<g id="edge135" class="edge">
<title>DesignatedDealer&#45;&gt;Event</title>
<path fill="none" stroke="black" d="M1452.25,-586.61C1680.07,-563.69 2418.1,-478.66 2590,-324 2607.47,-308.28 2614.78,-282.06 2617.83,-262.14"/>
<polygon fill="black" stroke="black" points="2621.31,-262.47 2619.09,-252.11 2614.37,-261.59 2621.31,-262.47"/>
</g>
<!-- DesignatedDealer&#45;&gt;XUS -->
<g id="edge137" class="edge">
<title>DesignatedDealer&#45;&gt;XUS</title>
<path fill="none" stroke="black" d="M1315.87,-587.92C1195.39,-578.96 939.17,-559.46 723,-540 677.62,-535.91 625.49,-530.61 591.05,-527.02"/>
<polygon fill="black" stroke="black" points="591.27,-523.53 580.96,-525.97 590.54,-530.49 591.27,-523.53"/>
</g>
<!-- ChainId&#45;&gt;Signer -->
<g id="edge138" class="edge">
<title>ChainId&#45;&gt;Signer</title>
<path fill="none" stroke="black" d="M1548.96,-215.99C1542.25,-183.02 1533.11,-110.32 1572,-72 1605.22,-39.26 1923.7,-24.74 2042.02,-20.44"/>
<polygon fill="black" stroke="black" points="2042.31,-23.93 2052.18,-20.08 2042.06,-16.94 2042.31,-23.93"/>
</g>
<!-- ChainId&#45;&gt;Errors -->
<g id="edge139" class="edge">
<title>ChainId&#45;&gt;Errors</title>
<path fill="none" stroke="black" d="M1546.9,-216.08C1534.06,-182.96 1500.97,-109.51 1448,-72 1395.63,-34.91 1320.29,-23.62 1273.56,-20.28"/>
<polygon fill="black" stroke="black" points="1273.67,-16.78 1263.47,-19.65 1273.23,-23.77 1273.67,-16.78"/>
</g>
<!-- ChainId&#45;&gt;CoreAddresses -->
<g id="edge140" class="edge">
<title>ChainId&#45;&gt;CoreAddresses</title>
<path fill="none" stroke="black" d="M1580.86,-221.26C1639.53,-196.54 1776.14,-138.98 1846.46,-109.35"/>
<polygon fill="black" stroke="black" points="1848.07,-112.47 1855.93,-105.36 1845.35,-106.01 1848.07,-112.47"/>
</g>
<!-- ChainId&#45;&gt;DiemTimestamp -->
<g id="edge141" class="edge">
<title>ChainId&#45;&gt;DiemTimestamp</title>
<path fill="none" stroke="black" d="M1517.6,-226.17C1500.77,-222.98 1480.37,-219.19 1462,-216 1372.14,-200.39 1268.22,-183.97 1201.38,-173.62"/>
<polygon fill="black" stroke="black" points="1201.81,-170.14 1191.39,-172.07 1200.74,-177.06 1201.81,-170.14"/>
</g>
</g>
</svg>
