<?xml version="1.0" encoding="UTF-8" standalone="no"?>
<!DOCTYPE svg PUBLIC "-//W3C//DTD SVG 1.1//EN"
 "http://www.w3.org/Graphics/SVG/1.1/DTD/svg11.dtd">
<!-- Generated by graphviz version 2.46.1 (20210213.1702)
 -->
<!-- Title: G Pages: 1 -->
<svg width="1383pt" height="531pt"
 viewBox="0.00 0.00 1383.08 531.00" xmlns="http://www.w3.org/2000/svg" xmlns:xlink="http://www.w3.org/1999/xlink">
<g id="graph0" class="graph" transform="scale(1 1) rotate(0) translate(4 527)">
<title>G</title>
<polygon fill="white" stroke="transparent" points="-4,4 -4,-527 1379.08,-527 1379.08,4 -4,4"/>
<g id="clust1" class="cluster">
<title>cluster_SlidingNonce</title>
<polygon fill="none" stroke="black" points="185,-163 185,-321 387,-321 387,-163 185,-163"/>
<text text-anchor="middle" x="286" y="-305.8" font-family="Times,serif" font-size="14.00">SlidingNonce</text>
</g>
<g id="clust2" class="cluster">
<title>cluster_AccountFreezing</title>
<polygon fill="none" stroke="black" points="666,-404 666,-479 810,-479 810,-404 666,-404"/>
<text text-anchor="middle" x="738" y="-463.8" font-family="Times,serif" font-size="14.00">AccountFreezing</text>
</g>
<g id="clust3" class="cluster">
<title>cluster_Errors</title>
<polygon fill="none" stroke="black" points="8,-8 8,-155 729,-155 729,-8 8,-8"/>
<text text-anchor="middle" x="368.5" y="-139.8" font-family="Times,serif" font-size="14.00">Errors</text>
</g>
<g id="clust4" class="cluster">
<title>cluster_Signer</title>
<polygon fill="none" stroke="black" points="737,-8 737,-155 887,-155 887,-8 737,-8"/>
<text text-anchor="middle" x="812" y="-139.8" font-family="Times,serif" font-size="14.00">Signer</text>
</g>
<g id="clust5" class="cluster">
<title>cluster_CoreAddresses</title>
<polygon fill="none" stroke="black" points="895,-80 895,-238 1360,-238 1360,-80 895,-80"/>
<text text-anchor="middle" x="1127.5" y="-222.8" font-family="Times,serif" font-size="14.00">CoreAddresses</text>
</g>
<g id="clust6" class="cluster">
<title>cluster_DiemTimestamp</title>
<polygon fill="none" stroke="black" points="895,-246 895,-396 1047,-396 1047,-246 895,-246"/>
<text text-anchor="middle" x="971" y="-380.8" font-family="Times,serif" font-size="14.00">DiemTimestamp</text>
</g>
<g id="clust7" class="cluster">
<title>cluster_Roles</title>
<polygon fill="none" stroke="black" points="621,-246 621,-321 855,-321 855,-246 621,-246"/>
<text text-anchor="middle" x="738" y="-305.8" font-family="Times,serif" font-size="14.00">Roles</text>
</g>
<g id="clust8" class="cluster">
<title>cluster_Event</title>
<polygon fill="none" stroke="black" points="395,-246 395,-396 581,-396 581,-246 395,-246"/>
<text text-anchor="middle" x="488" y="-380.8" font-family="Times,serif" font-size="14.00">Event</text>
</g>
<!-- freeze_account -->
<g id="node1" class="node">
<title>freeze_account</title>
<ellipse fill="none" stroke="black" cx="557" cy="-505" rx="63.89" ry="18"/>
<text text-anchor="middle" x="557" y="-501.3" font-family="Times,serif" font-size="14.00">freeze_account</text>
</g>
<!-- SlidingNonce::record_nonce_or_abort -->
<g id="node2" class="node">
<title>SlidingNonce::record_nonce_or_abort</title>
<ellipse fill="none" stroke="black" cx="286" cy="-272" rx="92.88" ry="18"/>
<text text-anchor="middle" x="286" y="-268.3" font-family="Times,serif" font-size="14.00">record_nonce_or_abort</text>
</g>
<!-- freeze_account&#45;&gt;SlidingNonce::record_nonce_or_abort -->
<g id="edge1" class="edge">
<title>freeze_account&#45;&gt;SlidingNonce::record_nonce_or_abort</title>
<path fill="none" stroke="black" d="M528.56,-488.85C494.06,-469.74 435.05,-434.68 391,-396 356.69,-365.88 323.6,-324.39 304.03,-298.13"/>
<polygon fill="black" stroke="black" points="306.67,-295.83 297.92,-289.85 301.04,-299.98 306.67,-295.83"/>
</g>
<!-- AccountFreezing::freeze_account -->
<g id="node3" class="node">
<title>AccountFreezing::freeze_account</title>
<ellipse fill="none" stroke="black" cx="738" cy="-430" rx="63.89" ry="18"/>
<text text-anchor="middle" x="738" y="-426.3" font-family="Times,serif" font-size="14.00">freeze_account</text>
</g>
<!-- freeze_account&#45;&gt;AccountFreezing::freeze_account -->
<g id="edge2" class="edge">
<title>freeze_account&#45;&gt;AccountFreezing::freeze_account</title>
<path fill="none" stroke="black" d="M591.9,-489.92C620.85,-478.25 662.2,-461.57 693.53,-448.94"/>
<polygon fill="black" stroke="black" points="694.94,-452.14 702.9,-445.16 692.32,-445.65 694.94,-452.14"/>
</g>
<!-- Errors::invalid_argument -->
<g id="node4" class="node">
<title>Errors::invalid_argument</title>
<ellipse fill="none" stroke="black" cx="89" cy="-106" rx="73.39" ry="18"/>
<text text-anchor="middle" x="89" y="-102.3" font-family="Times,serif" font-size="14.00">invalid_argument</text>
</g>
<!-- SlidingNonce::record_nonce_or_abort&#45;&gt;Errors::invalid_argument -->
<g id="edge3" class="edge">
<title>SlidingNonce::record_nonce_or_abort&#45;&gt;Errors::invalid_argument</title>
<path fill="none" stroke="black" d="M238.94,-256.42C226.96,-251.57 214.52,-245.45 204,-238 162.6,-208.67 126.1,-161.57 105.84,-132.55"/>
<polygon fill="black" stroke="black" points="108.63,-130.43 100.09,-124.17 102.86,-134.4 108.63,-130.43"/>
</g>
<!-- SlidingNonce::try_record_nonce -->
<g id="node5" class="node">
<title>SlidingNonce::try_record_nonce</title>
<ellipse fill="none" stroke="black" cx="286" cy="-189" rx="72.59" ry="18"/>
<text text-anchor="middle" x="286" y="-185.3" font-family="Times,serif" font-size="14.00">try_record_nonce</text>
</g>
<!-- SlidingNonce::record_nonce_or_abort&#45;&gt;SlidingNonce::try_record_nonce -->
<g id="edge4" class="edge">
<title>SlidingNonce::record_nonce_or_abort&#45;&gt;SlidingNonce::try_record_nonce</title>
<path fill="none" stroke="black" d="M286,-253.82C286,-243.19 286,-229.31 286,-217.2"/>
<polygon fill="black" stroke="black" points="289.5,-217.15 286,-207.15 282.5,-217.15 289.5,-217.15"/>
</g>
<!-- AccountFreezing::freeze_account&#45;&gt;Errors::invalid_argument -->
<g id="edge6" class="edge">
<title>AccountFreezing::freeze_account&#45;&gt;Errors::invalid_argument</title>
<path fill="none" stroke="black" d="M674.34,-428.86C537.5,-428.03 224.48,-423.15 185,-396 98.06,-336.21 88.33,-194 88.26,-134.21"/>
<polygon fill="black" stroke="black" points="91.77,-134.08 88.35,-124.05 84.77,-134.02 91.77,-134.08"/>
</g>
<!-- Signer::address_of -->
<g id="node6" class="node">
<title>Signer::address_of</title>
<ellipse fill="none" stroke="black" cx="812" cy="-106" rx="48.99" ry="18"/>
<text text-anchor="middle" x="812" y="-102.3" font-family="Times,serif" font-size="14.00">address_of</text>
</g>
<!-- AccountFreezing::freeze_account&#45;&gt;Signer::address_of -->
<g id="edge5" class="edge">
<title>AccountFreezing::freeze_account&#45;&gt;Signer::address_of</title>
<path fill="none" stroke="black" d="M766.07,-413.67C795.51,-395.81 840.07,-363.27 859,-321 887.7,-256.91 850.56,-173.96 827.62,-132.69"/>
<polygon fill="black" stroke="black" points="830.56,-130.77 822.55,-123.83 824.48,-134.25 830.56,-130.77"/>
</g>
<!-- Errors::not_published -->
<g id="node7" class="node">
<title>Errors::not_published</title>
<ellipse fill="none" stroke="black" cx="241" cy="-106" rx="60.39" ry="18"/>
<text text-anchor="middle" x="241" y="-102.3" font-family="Times,serif" font-size="14.00">not_published</text>
</g>
<!-- AccountFreezing::freeze_account&#45;&gt;Errors::not_published -->
<g id="edge7" class="edge">
<title>AccountFreezing::freeze_account&#45;&gt;Errors::not_published</title>
<path fill="none" stroke="black" d="M674.85,-427.2C541.18,-421.83 237.32,-400.91 181,-321 140.55,-263.6 153.01,-227.4 181,-163 186.85,-149.54 197.7,-137.85 208.59,-128.68"/>
<polygon fill="black" stroke="black" points="210.78,-131.4 216.45,-122.45 206.44,-125.92 210.78,-131.4"/>
</g>
<!-- CoreAddresses::DIEM_ROOT_ADDRESS -->
<g id="node8" class="node">
<title>CoreAddresses::DIEM_ROOT_ADDRESS</title>
<ellipse fill="none" stroke="black" cx="1245" cy="-189" rx="106.68" ry="18"/>
<text text-anchor="middle" x="1245" y="-185.3" font-family="Times,serif" font-size="14.00">DIEM_ROOT_ADDRESS</text>
</g>
<!-- AccountFreezing::freeze_account&#45;&gt;CoreAddresses::DIEM_ROOT_ADDRESS -->
<g id="edge8" class="edge">
<title>AccountFreezing::freeze_account&#45;&gt;CoreAddresses::DIEM_ROOT_ADDRESS</title>
<path fill="none" stroke="black" d="M801.34,-427.49C879.86,-424.73 1008.53,-417.05 1051,-396 1134.59,-354.56 1200.93,-261.23 1229.6,-215.81"/>
<polygon fill="black" stroke="black" points="1232.69,-217.48 1234.99,-207.14 1226.74,-213.79 1232.69,-217.48"/>
</g>
<!-- CoreAddresses::TREASURY_COMPLIANCE_ADDRESS -->
<g id="node9" class="node">
<title>CoreAddresses::TREASURY_COMPLIANCE_ADDRESS</title>
<ellipse fill="none" stroke="black" cx="1127" cy="-106" rx="163.27" ry="18"/>
<text text-anchor="middle" x="1127" y="-102.3" font-family="Times,serif" font-size="14.00">TREASURY_COMPLIANCE_ADDRESS</text>
</g>
<!-- AccountFreezing::freeze_account&#45;&gt;CoreAddresses::TREASURY_COMPLIANCE_ADDRESS -->
<g id="edge9" class="edge">
<title>AccountFreezing::freeze_account&#45;&gt;CoreAddresses::TREASURY_COMPLIANCE_ADDRESS</title>
<path fill="none" stroke="black" d="M800.79,-426.93C891.06,-423.35 1052.74,-414.53 1108,-396 1233.69,-353.85 1296.71,-353.94 1361,-238 1377.16,-208.85 1381.65,-189.17 1361,-163 1345.69,-143.59 1294.52,-130.16 1243.91,-121.33"/>
<polygon fill="black" stroke="black" points="1244.26,-117.83 1233.81,-119.62 1243.09,-124.74 1244.26,-117.83"/>
</g>
<!-- DiemTimestamp::assert_operating -->
<g id="node10" class="node">
<title>DiemTimestamp::assert_operating</title>
<ellipse fill="none" stroke="black" cx="971" cy="-347" rx="68.49" ry="18"/>
<text text-anchor="middle" x="971" y="-343.3" font-family="Times,serif" font-size="14.00">assert_operating</text>
</g>
<!-- AccountFreezing::freeze_account&#45;&gt;DiemTimestamp::assert_operating -->
<g id="edge10" class="edge">
<title>AccountFreezing::freeze_account&#45;&gt;DiemTimestamp::assert_operating</title>
<path fill="none" stroke="black" d="M793.74,-421.13C822.78,-415.96 858.51,-407.91 889,-396 906.43,-389.19 924.52,-378.99 939.26,-369.74"/>
<polygon fill="black" stroke="black" points="941.44,-372.49 947.96,-364.14 937.66,-366.61 941.44,-372.49"/>
</g>
<!-- Roles::assert_treasury_compliance -->
<g id="node11" class="node">
<title>Roles::assert_treasury_compliance</title>
<ellipse fill="none" stroke="black" cx="738" cy="-272" rx="108.58" ry="18"/>
<text text-anchor="middle" x="738" y="-268.3" font-family="Times,serif" font-size="14.00">assert_treasury_compliance</text>
</g>
<!-- AccountFreezing::freeze_account&#45;&gt;Roles::assert_treasury_compliance -->
<g id="edge11" class="edge">
<title>AccountFreezing::freeze_account&#45;&gt;Roles::assert_treasury_compliance</title>
<path fill="none" stroke="black" d="M738,-411.71C738,-384.77 738,-332.54 738,-300.42"/>
<polygon fill="black" stroke="black" points="741.5,-300.37 738,-290.37 734.5,-300.37 741.5,-300.37"/>
</g>
<!-- Event::emit_event -->
<g id="node12" class="node">
<title>Event::emit_event</title>
<ellipse fill="none" stroke="black" cx="506" cy="-347" rx="50.09" ry="18"/>
<text text-anchor="middle" x="506" y="-343.3" font-family="Times,serif" font-size="14.00">emit_event</text>
</g>
<!-- AccountFreezing::freeze_account&#45;&gt;Event::emit_event -->
<g id="edge12" class="edge">
<title>AccountFreezing::freeze_account&#45;&gt;Event::emit_event</title>
<path fill="none" stroke="black" d="M699.43,-415.53C658.31,-401.18 593.3,-378.48 550.16,-363.42"/>
<polygon fill="black" stroke="black" points="551.09,-360.04 540.49,-360.04 548.78,-366.64 551.09,-360.04"/>
</g>
<!-- Errors::make -->
<g id="node13" class="node">
<title>Errors::make</title>
<ellipse fill="none" stroke="black" cx="375" cy="-34" rx="30.59" ry="18"/>
<text text-anchor="middle" x="375" y="-30.3" font-family="Times,serif" font-size="14.00">make</text>
</g>
<!-- Errors::invalid_argument&#45;&gt;Errors::make -->
<g id="edge13" class="edge">
<title>Errors::invalid_argument&#45;&gt;Errors::make</title>
<path fill="none" stroke="black" d="M132.34,-91.28C145.06,-87.44 159.04,-83.38 172,-80 228.83,-65.16 295.43,-51.01 336.42,-42.66"/>
<polygon fill="black" stroke="black" points="337.16,-46.08 346.26,-40.67 335.77,-39.22 337.16,-46.08"/>
</g>
<!-- SlidingNonce::try_record_nonce&#45;&gt;Signer::address_of -->
<g id="edge14" class="edge">
<title>SlidingNonce::try_record_nonce&#45;&gt;Signer::address_of</title>
<path fill="none" stroke="black" d="M358.66,-186.76C467,-184.2 665.37,-176.65 733,-155 751.1,-149.21 769.36,-138.5 783.76,-128.67"/>
<polygon fill="black" stroke="black" points="786.04,-131.34 792.19,-122.71 782,-125.62 786.04,-131.34"/>
</g>
<!-- SlidingNonce::try_record_nonce&#45;&gt;Errors::not_published -->
<g id="edge15" class="edge">
<title>SlidingNonce::try_record_nonce&#45;&gt;Errors::not_published</title>
<path fill="none" stroke="black" d="M276.46,-170.82C270.33,-159.79 262.26,-145.27 255.37,-132.86"/>
<polygon fill="black" stroke="black" points="258.29,-130.92 250.38,-123.88 252.17,-134.32 258.29,-130.92"/>
</g>
<!-- Signer::borrow_address -->
<g id="node14" class="node">
<title>Signer::borrow_address</title>
<ellipse fill="none" stroke="black" cx="812" cy="-34" rx="66.89" ry="18"/>
<text text-anchor="middle" x="812" y="-30.3" font-family="Times,serif" font-size="14.00">borrow_address</text>
</g>
<!-- Signer::address_of&#45;&gt;Signer::borrow_address -->
<g id="edge16" class="edge">
<title>Signer::address_of&#45;&gt;Signer::borrow_address</title>
<path fill="none" stroke="black" d="M812,-87.7C812,-79.98 812,-70.71 812,-62.11"/>
<polygon fill="black" stroke="black" points="815.5,-62.1 812,-52.1 808.5,-62.1 815.5,-62.1"/>
</g>
<!-- Errors::not_published&#45;&gt;Errors::make -->
<g id="edge17" class="edge">
<title>Errors::not_published&#45;&gt;Errors::make</title>
<path fill="none" stroke="black" d="M269.75,-89.98C291.55,-78.59 321.48,-62.96 343.85,-51.27"/>
<polygon fill="black" stroke="black" points="345.68,-54.26 352.93,-46.53 342.44,-48.06 345.68,-54.26"/>
</g>
<!-- Errors::invalid_state -->
<g id="node15" class="node">
<title>Errors::invalid_state</title>
<ellipse fill="none" stroke="black" cx="375" cy="-106" rx="55.79" ry="18"/>
<text text-anchor="middle" x="375" y="-102.3" font-family="Times,serif" font-size="14.00">invalid_state</text>
</g>
<!-- DiemTimestamp::assert_operating&#45;&gt;Errors::invalid_state -->
<g id="edge18" class="edge">
<title>DiemTimestamp::assert_operating&#45;&gt;Errors::invalid_state</title>
<path fill="none" stroke="black" d="M903.1,-344.98C806.8,-342.96 639.67,-337.15 617,-321 587.48,-299.97 608.54,-273.56 585,-246 535.59,-188.14 502.87,-197.85 440,-155 427.9,-146.75 414.86,-137.25 403.66,-128.89"/>
<polygon fill="black" stroke="black" points="405.59,-125.96 395.5,-122.75 401.39,-131.56 405.59,-125.96"/>
</g>
<!-- DiemTimestamp::is_operating -->
<g id="node16" class="node">
<title>DiemTimestamp::is_operating</title>
<ellipse fill="none" stroke="black" cx="978" cy="-272" rx="53.89" ry="18"/>
<text text-anchor="middle" x="978" y="-268.3" font-family="Times,serif" font-size="14.00">is_operating</text>
</g>
<!-- DiemTimestamp::assert_operating&#45;&gt;DiemTimestamp::is_operating -->
<g id="edge19" class="edge">
<title>DiemTimestamp::assert_operating&#45;&gt;DiemTimestamp::is_operating</title>
<path fill="none" stroke="black" d="M972.66,-328.7C973.47,-320.25 974.46,-309.87 975.38,-300.37"/>
<polygon fill="black" stroke="black" points="978.88,-300.46 976.35,-290.18 971.91,-299.8 978.88,-300.46"/>
</g>
<!-- Roles::assert_treasury_compliance&#45;&gt;Signer::address_of -->
<g id="edge20" class="edge">
<title>Roles::assert_treasury_compliance&#45;&gt;Signer::address_of</title>
<path fill="none" stroke="black" d="M745.78,-253.76C758.75,-225.02 784.87,-167.13 800.14,-133.28"/>
<polygon fill="black" stroke="black" points="803.4,-134.56 804.32,-124.01 797.02,-131.69 803.4,-134.56"/>
</g>
<!-- Roles::assert_treasury_compliance&#45;&gt;Errors::not_published -->
<g id="edge21" class="edge">
<title>Roles::assert_treasury_compliance&#45;&gt;Errors::not_published</title>
<path fill="none" stroke="black" d="M697.05,-255.26C632.85,-231.28 504.16,-185.95 391,-163 355.55,-155.81 343.94,-167.51 310,-155 294.43,-149.26 279.07,-139.14 266.81,-129.67"/>
<polygon fill="black" stroke="black" points="268.84,-126.82 258.86,-123.28 264.46,-132.27 268.84,-126.82"/>
</g>
<!-- Errors::requires_role -->
<g id="node17" class="node">
<title>Errors::requires_role</title>
<ellipse fill="none" stroke="black" cx="506" cy="-106" rx="57.39" ry="18"/>
<text text-anchor="middle" x="506" y="-102.3" font-family="Times,serif" font-size="14.00">requires_role</text>
</g>
<!-- Roles::assert_treasury_compliance&#45;&gt;Errors::requires_role -->
<g id="edge22" class="edge">
<title>Roles::assert_treasury_compliance&#45;&gt;Errors::requires_role</title>
<path fill="none" stroke="black" d="M734.36,-253.62C728.14,-228.8 712.94,-183.89 681,-163 660.67,-149.71 594.81,-163.35 572,-155 557.01,-149.51 542.43,-139.56 530.81,-130.13"/>
<polygon fill="black" stroke="black" points="532.79,-127.23 522.9,-123.43 528.27,-132.57 532.79,-127.23"/>
</g>
<!-- CoreAddresses::assert_treasury_compliance -->
<g id="node18" class="node">
<title>CoreAddresses::assert_treasury_compliance</title>
<ellipse fill="none" stroke="black" cx="1012" cy="-189" rx="108.58" ry="18"/>
<text text-anchor="middle" x="1012" y="-185.3" font-family="Times,serif" font-size="14.00">assert_treasury_compliance</text>
</g>
<!-- Roles::assert_treasury_compliance&#45;&gt;CoreAddresses::assert_treasury_compliance -->
<g id="edge23" class="edge">
<title>Roles::assert_treasury_compliance&#45;&gt;CoreAddresses::assert_treasury_compliance</title>
<path fill="none" stroke="black" d="M788.58,-256.05C834.58,-242.45 902.56,-222.35 951.44,-207.9"/>
<polygon fill="black" stroke="black" points="952.66,-211.19 961.26,-205 950.67,-204.48 952.66,-211.19"/>
</g>
<!-- Event::write_to_event_store -->
<g id="node19" class="node">
<title>Event::write_to_event_store</title>
<ellipse fill="none" stroke="black" cx="488" cy="-272" rx="85.29" ry="18"/>
<text text-anchor="middle" x="488" y="-268.3" font-family="Times,serif" font-size="14.00">write_to_event_store</text>
</g>
<!-- Event::emit_event&#45;&gt;Event::write_to_event_store -->
<g id="edge24" class="edge">
<title>Event::emit_event&#45;&gt;Event::write_to_event_store</title>
<path fill="none" stroke="black" d="M501.73,-328.7C499.63,-320.15 497.04,-309.65 494.67,-300.07"/>
<polygon fill="black" stroke="black" points="498.03,-299.05 492.24,-290.18 491.23,-300.72 498.03,-299.05"/>
</g>
<!-- Errors::invalid_state&#45;&gt;Errors::make -->
<g id="edge25" class="edge">
<title>Errors::invalid_state&#45;&gt;Errors::make</title>
<path fill="none" stroke="black" d="M375,-87.7C375,-79.98 375,-70.71 375,-62.11"/>
<polygon fill="black" stroke="black" points="378.5,-62.1 375,-52.1 371.5,-62.1 378.5,-62.1"/>
</g>
<!-- DiemTimestamp::is_operating&#45;&gt;CoreAddresses::DIEM_ROOT_ADDRESS -->
<g id="edge26" class="edge">
<title>DiemTimestamp::is_operating&#45;&gt;CoreAddresses::DIEM_ROOT_ADDRESS</title>
<path fill="none" stroke="black" d="M1025.14,-263.05C1055.45,-257.39 1095.48,-248.85 1130,-238 1154.16,-230.4 1180.27,-219.72 1201.5,-210.36"/>
<polygon fill="black" stroke="black" points="1203.18,-213.44 1210.89,-206.16 1200.33,-207.05 1203.18,-213.44"/>
</g>
<!-- Errors::requires_role&#45;&gt;Errors::make -->
<g id="edge27" class="edge">
<title>Errors::requires_role&#45;&gt;Errors::make</title>
<path fill="none" stroke="black" d="M478.22,-90.15C457.06,-78.85 427.93,-63.28 406.01,-51.57"/>
<polygon fill="black" stroke="black" points="407.57,-48.44 397.1,-46.81 404.27,-54.61 407.57,-48.44"/>
</g>
<!-- CoreAddresses::assert_treasury_compliance&#45;&gt;Signer::address_of -->
<g id="edge28" class="edge">
<title>CoreAddresses::assert_treasury_compliance&#45;&gt;Signer::address_of</title>
<path fill="none" stroke="black" d="M948.68,-174.3C929.75,-169.26 909.2,-162.83 891,-155 874.03,-147.7 856.35,-137.26 842.03,-127.98"/>
<polygon fill="black" stroke="black" points="843.85,-124.99 833.58,-122.39 839.99,-130.83 843.85,-124.99"/>
</g>
<!-- CoreAddresses::assert_treasury_compliance&#45;&gt;CoreAddresses::TREASURY_COMPLIANCE_ADDRESS -->
<g id="edge30" class="edge">
<title>CoreAddresses::assert_treasury_compliance&#45;&gt;CoreAddresses::TREASURY_COMPLIANCE_ADDRESS</title>
<path fill="none" stroke="black" d="M1035.55,-171.41C1052.64,-159.37 1075.98,-142.94 1094.8,-129.68"/>
<polygon fill="black" stroke="black" points="1096.93,-132.46 1103.09,-123.84 1092.9,-126.74 1096.93,-132.46"/>
</g>
<!-- Errors::requires_address -->
<g id="node20" class="node">
<title>Errors::requires_address</title>
<ellipse fill="none" stroke="black" cx="651" cy="-106" rx="69.59" ry="18"/>
<text text-anchor="middle" x="651" y="-102.3" font-family="Times,serif" font-size="14.00">requires_address</text>
</g>
<!-- CoreAddresses::assert_treasury_compliance&#45;&gt;Errors::requires_address -->
<g id="edge29" class="edge">
<title>CoreAddresses::assert_treasury_compliance&#45;&gt;Errors::requires_address</title>
<path fill="none" stroke="black" d="M905.09,-185.62C852.18,-181.89 788.03,-173.46 733,-155 714.87,-148.92 696.34,-138.5 681.5,-128.92"/>
<polygon fill="black" stroke="black" points="683.03,-125.74 672.76,-123.11 679.15,-131.56 683.03,-125.74"/>
</g>
<!-- Errors::requires_address&#45;&gt;Errors::make -->
<g id="edge31" class="edge">
<title>Errors::requires_address&#45;&gt;Errors::make</title>
<path fill="none" stroke="black" d="M610.19,-91.38C597.97,-87.5 584.49,-83.4 572,-80 517.35,-65.14 453.28,-51.12 413.4,-42.8"/>
<polygon fill="black" stroke="black" points="414.07,-39.36 403.56,-40.76 412.64,-46.22 414.07,-39.36"/>
</g>
</g>
</svg>
