<?xml version="1.0" encoding="UTF-8" standalone="no"?>
<!DOCTYPE svg PUBLIC "-//W3C//DTD SVG 1.1//EN"
 "http://www.w3.org/Graphics/SVG/1.1/DTD/svg11.dtd">
<!-- Generated by graphviz version 2.46.1 (20210213.1702)
 -->
<!-- Title: G Pages: 1 -->
<svg width="1405pt" height="531pt"
 viewBox="0.00 0.00 1404.68 531.00" xmlns="http://www.w3.org/2000/svg" xmlns:xlink="http://www.w3.org/1999/xlink">
<g id="graph0" class="graph" transform="scale(1 1) rotate(0) translate(4 527)">
<title>G</title>
<polygon fill="white" stroke="transparent" points="-4,4 -4,-527 1400.68,-527 1400.68,4 -4,4"/>
<g id="clust1" class="cluster">
<title>cluster_SlidingNonce</title>
<polygon fill="none" stroke="black" points="32.68,-163 32.68,-321 234.68,-321 234.68,-163 32.68,-163"/>
<text text-anchor="middle" x="133.68" y="-305.8" font-family="Times,serif" font-size="14.00">SlidingNonce</text>
</g>
<g id="clust2" class="cluster">
<title>cluster_AccountFreezing</title>
<polygon fill="none" stroke="black" points="367.68,-404 367.68,-479 529.68,-479 529.68,-404 367.68,-404"/>
<text text-anchor="middle" x="448.68" y="-463.8" font-family="Times,serif" font-size="14.00">AccountFreezing</text>
</g>
<g id="clust3" class="cluster">
<title>cluster_Errors</title>
<polygon fill="none" stroke="black" points="194.68,-8 194.68,-155 915.68,-155 915.68,-8 194.68,-8"/>
<text text-anchor="middle" x="555.18" y="-139.8" font-family="Times,serif" font-size="14.00">Errors</text>
</g>
<g id="clust4" class="cluster">
<title>cluster_Signer</title>
<polygon fill="none" stroke="black" points="36.68,-8 36.68,-155 186.68,-155 186.68,-8 36.68,-8"/>
<text text-anchor="middle" x="111.68" y="-139.8" font-family="Times,serif" font-size="14.00">Signer</text>
</g>
<g id="clust5" class="cluster">
<title>cluster_CoreAddresses</title>
<polygon fill="none" stroke="black" points="923.68,-80 923.68,-238 1388.68,-238 1388.68,-80 923.68,-80"/>
<text text-anchor="middle" x="1156.18" y="-222.8" font-family="Times,serif" font-size="14.00">CoreAddresses</text>
</g>
<g id="clust6" class="cluster">
<title>cluster_DiemTimestamp</title>
<polygon fill="none" stroke="black" points="714.68,-246 714.68,-396 866.68,-396 866.68,-246 714.68,-246"/>
<text text-anchor="middle" x="790.68" y="-380.8" font-family="Times,serif" font-size="14.00">DiemTimestamp</text>
</g>
<g id="clust7" class="cluster">
<title>cluster_Roles</title>
<polygon fill="none" stroke="black" points="468.68,-246 468.68,-321 702.68,-321 702.68,-246 468.68,-246"/>
<text text-anchor="middle" x="585.68" y="-305.8" font-family="Times,serif" font-size="14.00">Roles</text>
</g>
<g id="clust8" class="cluster">
<title>cluster_Event</title>
<polygon fill="none" stroke="black" points="242.68,-246 242.68,-396 428.68,-396 428.68,-246 242.68,-246"/>
<text text-anchor="middle" x="335.68" y="-380.8" font-family="Times,serif" font-size="14.00">Event</text>
</g>
<!-- unfreeze_account -->
<g id="node1" class="node">
<title>unfreeze_account</title>
<ellipse fill="none" stroke="black" cx="211.68" cy="-505" rx="72.59" ry="18"/>
<text text-anchor="middle" x="211.68" y="-501.3" font-family="Times,serif" font-size="14.00">unfreeze_account</text>
</g>
<!-- SlidingNonce::record_nonce_or_abort -->
<g id="node2" class="node">
<title>SlidingNonce::record_nonce_or_abort</title>
<ellipse fill="none" stroke="black" cx="133.68" cy="-272" rx="92.88" ry="18"/>
<text text-anchor="middle" x="133.68" y="-268.3" font-family="Times,serif" font-size="14.00">record_nonce_or_abort</text>
</g>
<!-- unfreeze_account&#45;&gt;SlidingNonce::record_nonce_or_abort -->
<g id="edge1" class="edge">
<title>unfreeze_account&#45;&gt;SlidingNonce::record_nonce_or_abort</title>
<path fill="none" stroke="black" d="M205.95,-487.01C192.51,-447.22 158.9,-347.68 142.7,-299.7"/>
<polygon fill="black" stroke="black" points="145.94,-298.37 139.43,-290.01 139.31,-300.61 145.94,-298.37"/>
</g>
<!-- AccountFreezing::unfreeze_account -->
<g id="node3" class="node">
<title>AccountFreezing::unfreeze_account</title>
<ellipse fill="none" stroke="black" cx="448.68" cy="-430" rx="72.59" ry="18"/>
<text text-anchor="middle" x="448.68" y="-426.3" font-family="Times,serif" font-size="14.00">unfreeze_account</text>
</g>
<!-- unfreeze_account&#45;&gt;AccountFreezing::unfreeze_account -->
<g id="edge2" class="edge">
<title>unfreeze_account&#45;&gt;AccountFreezing::unfreeze_account</title>
<path fill="none" stroke="black" d="M255.43,-490.53C294.8,-478.4 352.79,-460.54 394.97,-447.54"/>
<polygon fill="black" stroke="black" points="396.27,-450.81 404.79,-444.52 394.2,-444.12 396.27,-450.81"/>
</g>
<!-- Errors::invalid_argument -->
<g id="node4" class="node">
<title>Errors::invalid_argument</title>
<ellipse fill="none" stroke="black" cx="275.68" cy="-106" rx="73.39" ry="18"/>
<text text-anchor="middle" x="275.68" y="-102.3" font-family="Times,serif" font-size="14.00">invalid_argument</text>
</g>
<!-- SlidingNonce::record_nonce_or_abort&#45;&gt;Errors::invalid_argument -->
<g id="edge3" class="edge">
<title>SlidingNonce::record_nonce_or_abort&#45;&gt;Errors::invalid_argument</title>
<path fill="none" stroke="black" d="M185.78,-256.94C196.59,-252.23 207.25,-246.05 215.68,-238 245.5,-209.55 261.79,-163.45 269.62,-134.21"/>
<polygon fill="black" stroke="black" points="273.07,-134.82 272.12,-124.27 266.28,-133.11 273.07,-134.82"/>
</g>
<!-- SlidingNonce::try_record_nonce -->
<g id="node5" class="node">
<title>SlidingNonce::try_record_nonce</title>
<ellipse fill="none" stroke="black" cx="133.68" cy="-189" rx="72.59" ry="18"/>
<text text-anchor="middle" x="133.68" y="-185.3" font-family="Times,serif" font-size="14.00">try_record_nonce</text>
</g>
<!-- SlidingNonce::record_nonce_or_abort&#45;&gt;SlidingNonce::try_record_nonce -->
<g id="edge4" class="edge">
<title>SlidingNonce::record_nonce_or_abort&#45;&gt;SlidingNonce::try_record_nonce</title>
<path fill="none" stroke="black" d="M133.68,-253.82C133.68,-243.19 133.68,-229.31 133.68,-217.2"/>
<polygon fill="black" stroke="black" points="137.18,-217.15 133.68,-207.15 130.18,-217.15 137.18,-217.15"/>
</g>
<!-- Signer::address_of -->
<g id="node6" class="node">
<title>Signer::address_of</title>
<ellipse fill="none" stroke="black" cx="129.68" cy="-106" rx="48.99" ry="18"/>
<text text-anchor="middle" x="129.68" y="-102.3" font-family="Times,serif" font-size="14.00">address_of</text>
</g>
<!-- AccountFreezing::unfreeze_account&#45;&gt;Signer::address_of -->
<g id="edge5" class="edge">
<title>AccountFreezing::unfreeze_account&#45;&gt;Signer::address_of</title>
<path fill="none" stroke="black" d="M382.87,-422.28C275.2,-409.73 69.29,-378.62 28.68,-321 -11.77,-263.6 -6.95,-223.51 28.68,-163 40.41,-143.09 62.05,-129.76 82.3,-121.11"/>
<polygon fill="black" stroke="black" points="83.77,-124.3 91.77,-117.35 81.18,-117.79 83.77,-124.3"/>
</g>
<!-- Errors::not_published -->
<g id="node7" class="node">
<title>Errors::not_published</title>
<ellipse fill="none" stroke="black" cx="427.68" cy="-106" rx="60.39" ry="18"/>
<text text-anchor="middle" x="427.68" y="-102.3" font-family="Times,serif" font-size="14.00">not_published</text>
</g>
<!-- AccountFreezing::unfreeze_account&#45;&gt;Errors::not_published -->
<g id="edge6" class="edge">
<title>AccountFreezing::unfreeze_account&#45;&gt;Errors::not_published</title>
<path fill="none" stroke="black" d="M447.55,-411.69C444.1,-358.71 433.65,-198.5 429.46,-134.17"/>
<polygon fill="black" stroke="black" points="432.94,-133.76 428.79,-124.01 425.95,-134.21 432.94,-133.76"/>
</g>
<!-- CoreAddresses::DIEM_ROOT_ADDRESS -->
<g id="node8" class="node">
<title>CoreAddresses::DIEM_ROOT_ADDRESS</title>
<ellipse fill="none" stroke="black" cx="1273.68" cy="-189" rx="106.68" ry="18"/>
<text text-anchor="middle" x="1273.68" y="-185.3" font-family="Times,serif" font-size="14.00">DIEM_ROOT_ADDRESS</text>
</g>
<!-- AccountFreezing::unfreeze_account&#45;&gt;CoreAddresses::DIEM_ROOT_ADDRESS -->
<g id="edge7" class="edge">
<title>AccountFreezing::unfreeze_account&#45;&gt;CoreAddresses::DIEM_ROOT_ADDRESS</title>
<path fill="none" stroke="black" d="M520.49,-426.79C623.25,-423.04 806.86,-414.03 870.68,-396 1018.31,-354.3 1175.16,-256.39 1241.3,-212.26"/>
<polygon fill="black" stroke="black" points="1243.3,-215.13 1249.65,-206.65 1239.4,-209.32 1243.3,-215.13"/>
</g>
<!-- DiemTimestamp::assert_operating -->
<g id="node9" class="node">
<title>DiemTimestamp::assert_operating</title>
<ellipse fill="none" stroke="black" cx="790.68" cy="-347" rx="68.49" ry="18"/>
<text text-anchor="middle" x="790.68" y="-343.3" font-family="Times,serif" font-size="14.00">assert_operating</text>
</g>
<!-- AccountFreezing::unfreeze_account&#45;&gt;DiemTimestamp::assert_operating -->
<g id="edge8" class="edge">
<title>AccountFreezing::unfreeze_account&#45;&gt;DiemTimestamp::assert_operating</title>
<path fill="none" stroke="black" d="M499.52,-416.96C561.64,-402.25 666.55,-377.4 732.03,-361.89"/>
<polygon fill="black" stroke="black" points="732.87,-365.29 741.79,-359.58 731.25,-358.48 732.87,-365.29"/>
</g>
<!-- Roles::assert_treasury_compliance -->
<g id="node10" class="node">
<title>Roles::assert_treasury_compliance</title>
<ellipse fill="none" stroke="black" cx="585.68" cy="-272" rx="108.58" ry="18"/>
<text text-anchor="middle" x="585.68" y="-268.3" font-family="Times,serif" font-size="14.00">assert_treasury_compliance</text>
</g>
<!-- AccountFreezing::unfreeze_account&#45;&gt;Roles::assert_treasury_compliance -->
<g id="edge9" class="edge">
<title>AccountFreezing::unfreeze_account&#45;&gt;Roles::assert_treasury_compliance</title>
<path fill="none" stroke="black" d="M463.35,-412.31C487.53,-384.77 535.89,-329.7 564.02,-297.67"/>
<polygon fill="black" stroke="black" points="566.74,-299.87 570.71,-290.05 561.48,-295.25 566.74,-299.87"/>
</g>
<!-- Event::emit_event -->
<g id="node11" class="node">
<title>Event::emit_event</title>
<ellipse fill="none" stroke="black" cx="353.68" cy="-347" rx="50.09" ry="18"/>
<text text-anchor="middle" x="353.68" y="-343.3" font-family="Times,serif" font-size="14.00">emit_event</text>
</g>
<!-- AccountFreezing::unfreeze_account&#45;&gt;Event::emit_event -->
<g id="edge10" class="edge">
<title>AccountFreezing::unfreeze_account&#45;&gt;Event::emit_event</title>
<path fill="none" stroke="black" d="M429.46,-412.61C415.24,-400.48 395.7,-383.83 380.03,-370.46"/>
<polygon fill="black" stroke="black" points="382.11,-367.64 372.23,-363.82 377.57,-372.97 382.11,-367.64"/>
</g>
<!-- Errors::make -->
<g id="node12" class="node">
<title>Errors::make</title>
<ellipse fill="none" stroke="black" cx="563.68" cy="-34" rx="30.59" ry="18"/>
<text text-anchor="middle" x="563.68" y="-30.3" font-family="Times,serif" font-size="14.00">make</text>
</g>
<!-- Errors::invalid_argument&#45;&gt;Errors::make -->
<g id="edge11" class="edge">
<title>Errors::invalid_argument&#45;&gt;Errors::make</title>
<path fill="none" stroke="black" d="M319.01,-91.27C331.74,-87.42 345.72,-83.37 358.68,-80 416.23,-65.04 483.7,-50.87 525.07,-42.56"/>
<polygon fill="black" stroke="black" points="525.88,-45.97 535,-40.58 524.51,-39.1 525.88,-45.97"/>
</g>
<!-- SlidingNonce::try_record_nonce&#45;&gt;Signer::address_of -->
<g id="edge12" class="edge">
<title>SlidingNonce::try_record_nonce&#45;&gt;Signer::address_of</title>
<path fill="none" stroke="black" d="M132.84,-170.82C132.31,-160.19 131.62,-146.31 131.03,-134.2"/>
<polygon fill="black" stroke="black" points="134.52,-133.97 130.53,-124.15 127.53,-134.31 134.52,-133.97"/>
</g>
<!-- SlidingNonce::try_record_nonce&#45;&gt;Errors::not_published -->
<g id="edge13" class="edge">
<title>SlidingNonce::try_record_nonce&#45;&gt;Errors::not_published</title>
<path fill="none" stroke="black" d="M205.42,-185.68C250.45,-182.25 309.01,-174.08 357.68,-155 373.18,-148.93 388.62,-138.87 401.05,-129.53"/>
<polygon fill="black" stroke="black" points="403.4,-132.14 409.13,-123.23 399.09,-126.61 403.4,-132.14"/>
</g>
<!-- Signer::borrow_address -->
<g id="node13" class="node">
<title>Signer::borrow_address</title>
<ellipse fill="none" stroke="black" cx="111.68" cy="-34" rx="66.89" ry="18"/>
<text text-anchor="middle" x="111.68" y="-30.3" font-family="Times,serif" font-size="14.00">borrow_address</text>
</g>
<!-- Signer::address_of&#45;&gt;Signer::borrow_address -->
<g id="edge14" class="edge">
<title>Signer::address_of&#45;&gt;Signer::borrow_address</title>
<path fill="none" stroke="black" d="M125.33,-88.05C123.32,-80.26 120.89,-70.82 118.65,-62.08"/>
<polygon fill="black" stroke="black" points="122.01,-61.09 116.13,-52.28 115.23,-62.83 122.01,-61.09"/>
</g>
<!-- Errors::not_published&#45;&gt;Errors::make -->
<g id="edge15" class="edge">
<title>Errors::not_published&#45;&gt;Errors::make</title>
<path fill="none" stroke="black" d="M456.53,-90.15C478.73,-78.73 509.38,-62.95 532.22,-51.2"/>
<polygon fill="black" stroke="black" points="533.88,-54.28 541.17,-46.59 530.68,-48.05 533.88,-54.28"/>
</g>
<!-- Errors::invalid_state -->
<g id="node14" class="node">
<title>Errors::invalid_state</title>
<ellipse fill="none" stroke="black" cx="694.68" cy="-106" rx="55.79" ry="18"/>
<text text-anchor="middle" x="694.68" y="-102.3" font-family="Times,serif" font-size="14.00">invalid_state</text>
</g>
<!-- DiemTimestamp::assert_operating&#45;&gt;Errors::invalid_state -->
<g id="edge16" class="edge">
<title>DiemTimestamp::assert_operating&#45;&gt;Errors::invalid_state</title>
<path fill="none" stroke="black" d="M753.68,-331.82C749.14,-328.81 744.95,-325.23 741.68,-321 719.26,-291.97 703.95,-185.24 697.76,-134.34"/>
<polygon fill="black" stroke="black" points="701.2,-133.61 696.55,-124.09 694.25,-134.44 701.2,-133.61"/>
</g>
<!-- DiemTimestamp::is_operating -->
<g id="node15" class="node">
<title>DiemTimestamp::is_operating</title>
<ellipse fill="none" stroke="black" cx="804.68" cy="-272" rx="53.89" ry="18"/>
<text text-anchor="middle" x="804.68" y="-268.3" font-family="Times,serif" font-size="14.00">is_operating</text>
</g>
<!-- DiemTimestamp::assert_operating&#45;&gt;DiemTimestamp::is_operating -->
<g id="edge17" class="edge">
<title>DiemTimestamp::assert_operating&#45;&gt;DiemTimestamp::is_operating</title>
<path fill="none" stroke="black" d="M794,-328.7C795.64,-320.15 797.66,-309.65 799.49,-300.07"/>
<polygon fill="black" stroke="black" points="802.94,-300.66 801.39,-290.18 796.07,-299.34 802.94,-300.66"/>
</g>
<!-- Roles::assert_treasury_compliance&#45;&gt;Signer::address_of -->
<g id="edge18" class="edge">
<title>Roles::assert_treasury_compliance&#45;&gt;Signer::address_of</title>
<path fill="none" stroke="black" d="M542.39,-255.42C477.25,-232.47 349.79,-189.42 238.68,-163 217.64,-158 210.47,-163.74 190.68,-155 177.13,-149.01 163.96,-139.31 153.35,-130.19"/>
<polygon fill="black" stroke="black" points="155.56,-127.47 145.77,-123.4 150.89,-132.68 155.56,-127.47"/>
</g>
<!-- Roles::assert_treasury_compliance&#45;&gt;Errors::not_published -->
<g id="edge19" class="edge">
<title>Roles::assert_treasury_compliance&#45;&gt;Errors::not_published</title>
<path fill="none" stroke="black" d="M575.26,-254.05C561.02,-231.69 533.9,-191.79 504.68,-163 491.62,-150.13 475.41,-137.89 461.24,-128.16"/>
<polygon fill="black" stroke="black" points="462.98,-125.11 452.73,-122.44 459.08,-130.92 462.98,-125.11"/>
</g>
<!-- Errors::requires_role -->
<g id="node16" class="node">
<title>Errors::requires_role</title>
<ellipse fill="none" stroke="black" cx="563.68" cy="-106" rx="57.39" ry="18"/>
<text text-anchor="middle" x="563.68" y="-102.3" font-family="Times,serif" font-size="14.00">requires_role</text>
</g>
<!-- Roles::assert_treasury_compliance&#45;&gt;Errors::requires_role -->
<g id="edge20" class="edge">
<title>Roles::assert_treasury_compliance&#45;&gt;Errors::requires_role</title>
<path fill="none" stroke="black" d="M583.37,-253.76C579.55,-225.26 571.88,-168.12 567.33,-134.16"/>
<polygon fill="black" stroke="black" points="570.76,-133.46 565.97,-124.01 563.83,-134.39 570.76,-133.46"/>
</g>
<!-- CoreAddresses::assert_treasury_compliance -->
<g id="node17" class="node">
<title>CoreAddresses::assert_treasury_compliance</title>
<ellipse fill="none" stroke="black" cx="1040.68" cy="-189" rx="108.58" ry="18"/>
<text text-anchor="middle" x="1040.68" y="-185.3" font-family="Times,serif" font-size="14.00">assert_treasury_compliance</text>
</g>
<!-- Roles::assert_treasury_compliance&#45;&gt;CoreAddresses::assert_treasury_compliance -->
<g id="edge21" class="edge">
<title>Roles::assert_treasury_compliance&#45;&gt;CoreAddresses::assert_treasury_compliance</title>
<path fill="none" stroke="black" d="M650.81,-257.6C670.07,-253.74 691.21,-249.6 710.68,-246 793.84,-230.63 889.1,-214.64 955.82,-203.7"/>
<polygon fill="black" stroke="black" points="956.56,-207.12 965.87,-202.05 955.43,-200.22 956.56,-207.12"/>
</g>
<!-- Event::write_to_event_store -->
<g id="node18" class="node">
<title>Event::write_to_event_store</title>
<ellipse fill="none" stroke="black" cx="335.68" cy="-272" rx="85.29" ry="18"/>
<text text-anchor="middle" x="335.68" y="-268.3" font-family="Times,serif" font-size="14.00">write_to_event_store</text>
</g>
<!-- Event::emit_event&#45;&gt;Event::write_to_event_store -->
<g id="edge22" class="edge">
<title>Event::emit_event&#45;&gt;Event::write_to_event_store</title>
<path fill="none" stroke="black" d="M349.42,-328.7C347.31,-320.15 344.72,-309.65 342.36,-300.07"/>
<polygon fill="black" stroke="black" points="345.71,-299.05 339.92,-290.18 338.91,-300.72 345.71,-299.05"/>
</g>
<!-- Errors::invalid_state&#45;&gt;Errors::make -->
<g id="edge23" class="edge">
<title>Errors::invalid_state&#45;&gt;Errors::make</title>
<path fill="none" stroke="black" d="M666.9,-90.15C645.74,-78.85 616.61,-63.28 594.69,-51.57"/>
<polygon fill="black" stroke="black" points="596.25,-48.44 585.79,-46.81 592.96,-54.61 596.25,-48.44"/>
</g>
<!-- DiemTimestamp::is_operating&#45;&gt;CoreAddresses::DIEM_ROOT_ADDRESS -->
<g id="edge24" class="edge">
<title>DiemTimestamp::is_operating&#45;&gt;CoreAddresses::DIEM_ROOT_ADDRESS</title>
<path fill="none" stroke="black" d="M856.08,-266.01C909.08,-260.88 994.15,-252.73 1067.68,-246 1108.12,-242.3 1119.26,-247.71 1158.68,-238 1184.12,-231.73 1211.22,-220.66 1232.72,-210.72"/>
<polygon fill="black" stroke="black" points="1234.32,-213.84 1241.87,-206.41 1231.34,-207.51 1234.32,-213.84"/>
</g>
<!-- Errors::requires_role&#45;&gt;Errors::make -->
<g id="edge25" class="edge">
<title>Errors::requires_role&#45;&gt;Errors::make</title>
<path fill="none" stroke="black" d="M563.68,-87.7C563.68,-79.98 563.68,-70.71 563.68,-62.11"/>
<polygon fill="black" stroke="black" points="567.18,-62.1 563.68,-52.1 560.18,-62.1 567.18,-62.1"/>
</g>
<!-- CoreAddresses::assert_treasury_compliance&#45;&gt;Signer::address_of -->
<g id="edge26" class="edge">
<title>CoreAddresses::assert_treasury_compliance&#45;&gt;Signer::address_of</title>
<path fill="none" stroke="black" d="M938.95,-182.61C831.16,-177.06 655.96,-168.45 504.68,-163 487.24,-162.37 207.1,-160.92 190.68,-155 176.34,-149.83 162.76,-139.85 152.07,-130.32"/>
<polygon fill="black" stroke="black" points="154.18,-127.51 144.49,-123.22 149.39,-132.61 154.18,-127.51"/>
</g>
<!-- Errors::requires_address -->
<g id="node19" class="node">
<title>Errors::requires_address</title>
<ellipse fill="none" stroke="black" cx="837.68" cy="-106" rx="69.59" ry="18"/>
<text text-anchor="middle" x="837.68" y="-102.3" font-family="Times,serif" font-size="14.00">requires_address</text>
</g>
<!-- CoreAddresses::assert_treasury_compliance&#45;&gt;Errors::requires_address -->
<g id="edge27" class="edge">
<title>CoreAddresses::assert_treasury_compliance&#45;&gt;Errors::requires_address</title>
<path fill="none" stroke="black" d="M978.07,-174.28C958.97,-169.21 938.15,-162.76 919.68,-155 902.56,-147.8 884.63,-137.65 869.92,-128.53"/>
<polygon fill="black" stroke="black" points="871.53,-125.41 861.21,-123.02 867.79,-131.33 871.53,-125.41"/>
</g>
<!-- CoreAddresses::TREASURY_COMPLIANCE_ADDRESS -->
<g id="node20" class="node">
<title>CoreAddresses::TREASURY_COMPLIANCE_ADDRESS</title>
<ellipse fill="none" stroke="black" cx="1094.68" cy="-106" rx="163.27" ry="18"/>
<text text-anchor="middle" x="1094.68" y="-102.3" font-family="Times,serif" font-size="14.00">TREASURY_COMPLIANCE_ADDRESS</text>
</g>
<!-- CoreAddresses::assert_treasury_compliance&#45;&gt;CoreAddresses::TREASURY_COMPLIANCE_ADDRESS -->
<g id="edge28" class="edge">
<title>CoreAddresses::assert_treasury_compliance&#45;&gt;CoreAddresses::TREASURY_COMPLIANCE_ADDRESS</title>
<path fill="none" stroke="black" d="M1052.14,-170.82C1059.51,-159.76 1069.23,-145.18 1077.52,-132.75"/>
<polygon fill="black" stroke="black" points="1080.61,-134.42 1083.25,-124.15 1074.79,-130.53 1080.61,-134.42"/>
</g>
<!-- Errors::requires_address&#45;&gt;Errors::make -->
<g id="edge29" class="edge">
<title>Errors::requires_address&#45;&gt;Errors::make</title>
<path fill="none" stroke="black" d="M796.99,-91.24C785.03,-87.39 771.89,-83.35 759.68,-80 705.33,-65.08 641.58,-51.08 601.9,-42.77"/>
<polygon fill="black" stroke="black" points="602.61,-39.35 592.11,-40.74 601.19,-46.2 602.61,-39.35"/>
</g>
</g>
</svg>
