<?xml version="1.0" encoding="UTF-8" standalone="no"?>
<!DOCTYPE svg PUBLIC "-//W3C//DTD SVG 1.1//EN"
 "http://www.w3.org/Graphics/SVG/1.1/DTD/svg11.dtd">
<!-- Generated by graphviz version 2.46.1 (20210213.1702)
 -->
<!-- Title: G Pages: 1 -->
<svg width="2657pt" height="683pt"
 viewBox="0.00 0.00 2657.00 683.00" xmlns="http://www.w3.org/2000/svg" xmlns:xlink="http://www.w3.org/1999/xlink">
<g id="graph0" class="graph" transform="scale(1 1) rotate(0) translate(4 679)">
<title>G</title>
<polygon fill="white" stroke="transparent" points="-4,4 -4,-679 2653,-679 2653,4 -4,4"/>
<g id="clust1" class="cluster">
<title>cluster_SlidingNonce</title>
<polygon fill="none" stroke="black" points="335,-163 335,-321 537,-321 537,-163 335,-163"/>
<text text-anchor="middle" x="436" y="-305.8" font-family="Times,serif" font-size="14.00">SlidingNonce</text>
</g>
<g id="clust2" class="cluster">
<title>cluster_ValidatorConfig</title>
<polygon fill="none" stroke="black" points="144,-556 144,-631 308,-631 308,-556 144,-556"/>
<text text-anchor="middle" x="226" y="-615.8" font-family="Times,serif" font-size="14.00">ValidatorConfig</text>
</g>
<g id="clust3" class="cluster">
<title>cluster_DiemSystem</title>
<polygon fill="none" stroke="black" points="1677,-484 1677,-631 2296,-631 2296,-484 1677,-484"/>
<text text-anchor="middle" x="1986.5" y="-615.8" font-family="Times,serif" font-size="14.00">DiemSystem</text>
</g>
<g id="clust4" class="cluster">
<title>cluster_Errors</title>
<polygon fill="none" stroke="black" points="8,-8 8,-155 729,-155 729,-8 8,-8"/>
<text text-anchor="middle" x="368.5" y="-139.8" font-family="Times,serif" font-size="14.00">Errors</text>
</g>
<g id="clust5" class="cluster">
<title>cluster_DiemTimestamp</title>
<polygon fill="none" stroke="black" points="895,-80 895,-321 1181,-321 1181,-80 895,-80"/>
<text text-anchor="middle" x="1038" y="-305.8" font-family="Times,serif" font-size="14.00">DiemTimestamp</text>
</g>
<g id="clust6" class="cluster">
<title>cluster_Roles</title>
<polygon fill="none" stroke="black" points="545,-246 545,-321 703,-321 703,-246 545,-246"/>
<text text-anchor="middle" x="624" y="-305.8" font-family="Times,serif" font-size="14.00">Roles</text>
</g>
<g id="clust7" class="cluster">
<title>cluster_Vector</title>
<polygon fill="none" stroke="black" points="2179,-163 2179,-321 2641,-321 2641,-163 2179,-163"/>
<text text-anchor="middle" x="2410" y="-305.8" font-family="Times,serif" font-size="14.00">Vector</text>
</g>
<g id="clust8" class="cluster">
<title>cluster_Option</title>
<polygon fill="none" stroke="black" points="2217,-329 2217,-476 2457,-476 2457,-329 2217,-329"/>
<text text-anchor="middle" x="2337" y="-460.8" font-family="Times,serif" font-size="14.00">Option</text>
</g>
<g id="clust9" class="cluster">
<title>cluster_Signer</title>
<polygon fill="none" stroke="black" points="737,-8 737,-155 887,-155 887,-8 737,-8"/>
<text text-anchor="middle" x="812" y="-139.8" font-family="Times,serif" font-size="14.00">Signer</text>
</g>
<g id="clust10" class="cluster">
<title>cluster_CoreAddresses</title>
<polygon fill="none" stroke="black" points="1189,-80 1189,-238 1419,-238 1419,-80 1189,-80"/>
<text text-anchor="middle" x="1304" y="-222.8" font-family="Times,serif" font-size="14.00">CoreAddresses</text>
</g>
<g id="clust11" class="cluster">
<title>cluster_DiemConfig</title>
<polygon fill="none" stroke="black" points="1695,-246 1695,-476 2065,-476 2065,-246 1695,-246"/>
<text text-anchor="middle" x="1880" y="-460.8" font-family="Times,serif" font-size="14.00">DiemConfig</text>
</g>
<g id="clust12" class="cluster">
<title>cluster_Event</title>
<polygon fill="none" stroke="black" points="1501,-163 1501,-321 1687,-321 1687,-163 1501,-163"/>
<text text-anchor="middle" x="1594" y="-305.8" font-family="Times,serif" font-size="14.00">Event</text>
</g>
<!-- remove_validator_and_reconfigure -->
<g id="node1" class="node">
<title>remove_validator_and_reconfigure</title>
<ellipse fill="none" stroke="black" cx="353" cy="-657" rx="134.58" ry="18"/>
<text text-anchor="middle" x="353" y="-653.3" font-family="Times,serif" font-size="14.00">remove_validator_and_reconfigure</text>
</g>
<!-- SlidingNonce::record_nonce_or_abort -->
<g id="node2" class="node">
<title>SlidingNonce::record_nonce_or_abort</title>
<ellipse fill="none" stroke="black" cx="436" cy="-272" rx="92.88" ry="18"/>
<text text-anchor="middle" x="436" y="-268.3" font-family="Times,serif" font-size="14.00">record_nonce_or_abort</text>
</g>
<!-- remove_validator_and_reconfigure&#45;&gt;SlidingNonce::record_nonce_or_abort -->
<g id="edge1" class="edge">
<title>remove_validator_and_reconfigure&#45;&gt;SlidingNonce::record_nonce_or_abort</title>
<path fill="none" stroke="black" d="M353,-638.59C353,-611.37 353,-557.07 353,-511 353,-511 353,-511 353,-426 353,-375.67 388.13,-326.06 412.68,-297.55"/>
<polygon fill="black" stroke="black" points="415.59,-299.54 419.6,-289.74 410.35,-294.9 415.59,-299.54"/>
</g>
<!-- ValidatorConfig::get_human_name -->
<g id="node3" class="node">
<title>ValidatorConfig::get_human_name</title>
<ellipse fill="none" stroke="black" cx="226" cy="-582" rx="74.19" ry="18"/>
<text text-anchor="middle" x="226" y="-578.3" font-family="Times,serif" font-size="14.00">get_human_name</text>
</g>
<!-- remove_validator_and_reconfigure&#45;&gt;ValidatorConfig::get_human_name -->
<g id="edge2" class="edge">
<title>remove_validator_and_reconfigure&#45;&gt;ValidatorConfig::get_human_name</title>
<path fill="none" stroke="black" d="M323.86,-639.25C305.66,-628.79 282.06,-615.22 262.59,-604.03"/>
<polygon fill="black" stroke="black" points="264.11,-600.87 253.69,-598.92 260.62,-606.94 264.11,-600.87"/>
</g>
<!-- DiemSystem::remove_validator -->
<g id="node4" class="node">
<title>DiemSystem::remove_validator</title>
<ellipse fill="none" stroke="black" cx="1892" cy="-582" rx="73.39" ry="18"/>
<text text-anchor="middle" x="1892" y="-578.3" font-family="Times,serif" font-size="14.00">remove_validator</text>
</g>
<!-- remove_validator_and_reconfigure&#45;&gt;DiemSystem::remove_validator -->
<g id="edge3" class="edge">
<title>remove_validator_and_reconfigure&#45;&gt;DiemSystem::remove_validator</title>
<path fill="none" stroke="black" d="M477.31,-650.1C781.45,-635.68 1556.64,-598.91 1810.3,-586.88"/>
<polygon fill="black" stroke="black" points="1810.72,-590.36 1820.54,-586.39 1810.39,-583.37 1810.72,-590.36"/>
</g>
<!-- Errors::invalid_argument -->
<g id="node5" class="node">
<title>Errors::invalid_argument</title>
<ellipse fill="none" stroke="black" cx="228" cy="-106" rx="73.39" ry="18"/>
<text text-anchor="middle" x="228" y="-102.3" font-family="Times,serif" font-size="14.00">invalid_argument</text>
</g>
<!-- SlidingNonce::record_nonce_or_abort&#45;&gt;Errors::invalid_argument -->
<g id="edge4" class="edge">
<title>SlidingNonce::record_nonce_or_abort&#45;&gt;Errors::invalid_argument</title>
<path fill="none" stroke="black" d="M397.09,-255.46C388.19,-250.73 379.23,-244.91 372,-238 344.23,-211.44 357.52,-188.74 329,-163 322.5,-157.13 318.8,-158.97 311,-155 294.91,-146.8 277.55,-136.93 262.89,-128.28"/>
<polygon fill="black" stroke="black" points="264.53,-125.18 254.14,-123.08 260.95,-131.2 264.53,-125.18"/>
</g>
<!-- SlidingNonce::try_record_nonce -->
<g id="node6" class="node">
<title>SlidingNonce::try_record_nonce</title>
<ellipse fill="none" stroke="black" cx="454" cy="-189" rx="72.59" ry="18"/>
<text text-anchor="middle" x="454" y="-185.3" font-family="Times,serif" font-size="14.00">try_record_nonce</text>
</g>
<!-- SlidingNonce::record_nonce_or_abort&#45;&gt;SlidingNonce::try_record_nonce -->
<g id="edge5" class="edge">
<title>SlidingNonce::record_nonce_or_abort&#45;&gt;SlidingNonce::try_record_nonce</title>
<path fill="none" stroke="black" d="M439.82,-253.82C442.18,-243.19 445.27,-229.31 447.95,-217.2"/>
<polygon fill="black" stroke="black" points="451.44,-217.67 450.19,-207.15 444.6,-216.16 451.44,-217.67"/>
</g>
<!-- Errors::not_published -->
<g id="node7" class="node">
<title>Errors::not_published</title>
<ellipse fill="none" stroke="black" cx="76" cy="-106" rx="60.39" ry="18"/>
<text text-anchor="middle" x="76" y="-102.3" font-family="Times,serif" font-size="14.00">not_published</text>
</g>
<!-- ValidatorConfig::get_human_name&#45;&gt;Errors::not_published -->
<g id="edge6" class="edge">
<title>ValidatorConfig::get_human_name&#45;&gt;Errors::not_published</title>
<path fill="none" stroke="black" d="M208.81,-564.41C183.46,-538.07 139,-483.92 139,-428 139,-428 139,-428 139,-271 139,-219.09 111.15,-163.71 92.49,-132.42"/>
<polygon fill="black" stroke="black" points="95.47,-130.59 87.26,-123.89 89.5,-134.25 95.47,-130.59"/>
</g>
<!-- DiemSystem::remove_validator&#45;&gt;Errors::invalid_argument -->
<g id="edge7" class="edge">
<title>DiemSystem::remove_validator&#45;&gt;Errors::invalid_argument</title>
<path fill="none" stroke="black" d="M1818.73,-579.82C1567.31,-575.52 748.88,-559.23 635,-528 479.28,-485.3 315,-517.46 315,-356 315,-356 315,-356 315,-271 315,-216.2 276.63,-161.86 250.85,-131.53"/>
<polygon fill="black" stroke="black" points="253.17,-128.86 243.96,-123.63 247.9,-133.47 253.17,-128.86"/>
</g>
<!-- DiemTimestamp::assert_operating -->
<g id="node8" class="node">
<title>DiemTimestamp::assert_operating</title>
<ellipse fill="none" stroke="black" cx="971" cy="-189" rx="68.49" ry="18"/>
<text text-anchor="middle" x="971" y="-185.3" font-family="Times,serif" font-size="14.00">assert_operating</text>
</g>
<!-- DiemSystem::remove_validator&#45;&gt;DiemTimestamp::assert_operating -->
<g id="edge8" class="edge">
<title>DiemSystem::remove_validator&#45;&gt;DiemTimestamp::assert_operating</title>
<path fill="none" stroke="black" d="M1822.63,-576.01C1649.93,-563 1204.64,-525.53 1065,-476 962.61,-439.69 898.46,-427.29 876,-321 869.11,-288.39 859.46,-274.94 876,-246 885.7,-229.03 902.77,-216.69 919.79,-207.98"/>
<polygon fill="black" stroke="black" points="921.66,-210.97 929.19,-203.51 918.66,-204.64 921.66,-210.97"/>
</g>
<!-- Roles::assert_diem_root -->
<g id="node9" class="node">
<title>Roles::assert_diem_root</title>
<ellipse fill="none" stroke="black" cx="624" cy="-272" rx="71.49" ry="18"/>
<text text-anchor="middle" x="624" y="-268.3" font-family="Times,serif" font-size="14.00">assert_diem_root</text>
</g>
<!-- DiemSystem::remove_validator&#45;&gt;Roles::assert_diem_root -->
<g id="edge9" class="edge">
<title>DiemSystem::remove_validator&#45;&gt;Roles::assert_diem_root</title>
<path fill="none" stroke="black" d="M1818.64,-580.31C1561.54,-577.59 714.42,-565.77 671,-528 604.91,-470.51 612.14,-353.08 619.41,-300.05"/>
<polygon fill="black" stroke="black" points="622.89,-300.46 620.89,-290.05 615.96,-299.43 622.89,-300.46"/>
</g>
<!-- Vector::swap_remove -->
<g id="node10" class="node">
<title>Vector::swap_remove</title>
<ellipse fill="none" stroke="black" cx="2545" cy="-272" rx="59.59" ry="18"/>
<text text-anchor="middle" x="2545" y="-268.3" font-family="Times,serif" font-size="14.00">swap_remove</text>
</g>
<!-- DiemSystem::remove_validator&#45;&gt;Vector::swap_remove -->
<g id="edge10" class="edge">
<title>DiemSystem::remove_validator&#45;&gt;Vector::swap_remove</title>
<path fill="none" stroke="black" d="M1965.09,-579.76C2091.57,-576.63 2345.37,-565.71 2425,-528 2512.45,-486.59 2536.4,-356.99 2542.77,-300.16"/>
<polygon fill="black" stroke="black" points="2546.26,-300.43 2543.8,-290.13 2539.3,-299.72 2546.26,-300.43"/>
</g>
<!-- Option::borrow -->
<g id="node11" class="node">
<title>Option::borrow</title>
<ellipse fill="none" stroke="black" cx="2335" cy="-427" rx="36.29" ry="18"/>
<text text-anchor="middle" x="2335" y="-423.3" font-family="Times,serif" font-size="14.00">borrow</text>
</g>
<!-- DiemSystem::remove_validator&#45;&gt;Option::borrow -->
<g id="edge11" class="edge">
<title>DiemSystem::remove_validator&#45;&gt;Option::borrow</title>
<path fill="none" stroke="black" d="M1965.51,-580.2C2068.04,-577.64 2247.07,-567.47 2297,-528 2319.14,-510.5 2328.38,-478.55 2332.24,-455.46"/>
<polygon fill="black" stroke="black" points="2335.75,-455.65 2333.7,-445.25 2328.82,-454.66 2335.75,-455.65"/>
</g>
<!-- Option::is_some -->
<g id="node12" class="node">
<title>Option::is_some</title>
<ellipse fill="none" stroke="black" cx="2409" cy="-355" rx="40.09" ry="18"/>
<text text-anchor="middle" x="2409" y="-351.3" font-family="Times,serif" font-size="14.00">is_some</text>
</g>
<!-- DiemSystem::remove_validator&#45;&gt;Option::is_some -->
<g id="edge12" class="edge">
<title>DiemSystem::remove_validator&#45;&gt;Option::is_some</title>
<path fill="none" stroke="black" d="M1965.07,-579.61C2105.28,-575.12 2403.13,-556.15 2458,-476 2474.82,-451.43 2468.85,-436.73 2458,-409 2453.41,-397.27 2444.86,-386.57 2436.18,-377.92"/>
<polygon fill="black" stroke="black" points="2438.31,-375.12 2428.61,-370.85 2433.54,-380.23 2438.31,-375.12"/>
</g>
<!-- DiemSystem::get_diem_system_config -->
<g id="node13" class="node">
<title>DiemSystem::get_diem_system_config</title>
<ellipse fill="none" stroke="black" cx="2000" cy="-510" rx="99.38" ry="18"/>
<text text-anchor="middle" x="2000" y="-506.3" font-family="Times,serif" font-size="14.00">get_diem_system_config</text>
</g>
<!-- DiemSystem::remove_validator&#45;&gt;DiemSystem::get_diem_system_config -->
<g id="edge13" class="edge">
<title>DiemSystem::remove_validator&#45;&gt;DiemSystem::get_diem_system_config</title>
<path fill="none" stroke="black" d="M1916.78,-564.94C1931.38,-555.47 1950.08,-543.36 1966.04,-533.01"/>
<polygon fill="black" stroke="black" points="1968.1,-535.85 1974.59,-527.47 1964.29,-529.97 1968.1,-535.85"/>
</g>
<!-- DiemSystem::get_validator_index_ -->
<g id="node14" class="node">
<title>DiemSystem::get_validator_index_</title>
<ellipse fill="none" stroke="black" cx="2203" cy="-510" rx="85.29" ry="18"/>
<text text-anchor="middle" x="2203" y="-506.3" font-family="Times,serif" font-size="14.00">get_validator_index_</text>
</g>
<!-- DiemSystem::remove_validator&#45;&gt;DiemSystem::get_validator_index_ -->
<g id="edge14" class="edge">
<title>DiemSystem::remove_validator&#45;&gt;DiemSystem::get_validator_index_</title>
<path fill="none" stroke="black" d="M1944.05,-569.28C1997.07,-557.35 2079.44,-538.81 2137.01,-525.85"/>
<polygon fill="black" stroke="black" points="2138.11,-529.19 2147.1,-523.58 2136.57,-522.36 2138.11,-529.19"/>
</g>
<!-- DiemSystem::set_diem_system_config -->
<g id="node15" class="node">
<title>DiemSystem::set_diem_system_config</title>
<ellipse fill="none" stroke="black" cx="1784" cy="-510" rx="98.58" ry="18"/>
<text text-anchor="middle" x="1784" y="-506.3" font-family="Times,serif" font-size="14.00">set_diem_system_config</text>
</g>
<!-- DiemSystem::remove_validator&#45;&gt;DiemSystem::set_diem_system_config -->
<g id="edge15" class="edge">
<title>DiemSystem::remove_validator&#45;&gt;DiemSystem::set_diem_system_config</title>
<path fill="none" stroke="black" d="M1867.22,-564.94C1852.62,-555.47 1833.92,-543.36 1817.96,-533.01"/>
<polygon fill="black" stroke="black" points="1819.71,-529.97 1809.41,-527.47 1815.9,-535.85 1819.71,-529.97"/>
</g>
<!-- Errors::make -->
<g id="node16" class="node">
<title>Errors::make</title>
<ellipse fill="none" stroke="black" cx="377" cy="-34" rx="30.59" ry="18"/>
<text text-anchor="middle" x="377" y="-30.3" font-family="Times,serif" font-size="14.00">make</text>
</g>
<!-- Errors::invalid_argument&#45;&gt;Errors::make -->
<g id="edge16" class="edge">
<title>Errors::invalid_argument&#45;&gt;Errors::make</title>
<path fill="none" stroke="black" d="M260.33,-89.81C285.38,-78.04 319.9,-61.82 344.89,-50.08"/>
<polygon fill="black" stroke="black" points="346.4,-53.24 353.96,-45.82 343.42,-46.91 346.4,-53.24"/>
</g>
<!-- SlidingNonce::try_record_nonce&#45;&gt;Errors::not_published -->
<g id="edge18" class="edge">
<title>SlidingNonce::try_record_nonce&#45;&gt;Errors::not_published</title>
<path fill="none" stroke="black" d="M396.84,-177.84C365.66,-172.65 326.31,-166.67 291,-163 258.9,-159.66 176.55,-165.4 146,-155 130.02,-149.56 114.32,-139.38 101.86,-129.78"/>
<polygon fill="black" stroke="black" points="103.77,-126.83 93.78,-123.3 99.39,-132.29 103.77,-126.83"/>
</g>
<!-- Signer::address_of -->
<g id="node17" class="node">
<title>Signer::address_of</title>
<ellipse fill="none" stroke="black" cx="803" cy="-106" rx="48.99" ry="18"/>
<text text-anchor="middle" x="803" y="-102.3" font-family="Times,serif" font-size="14.00">address_of</text>
</g>
<!-- SlidingNonce::try_record_nonce&#45;&gt;Signer::address_of -->
<g id="edge17" class="edge">
<title>SlidingNonce::try_record_nonce&#45;&gt;Signer::address_of</title>
<path fill="none" stroke="black" d="M523.62,-183.59C593.48,-178.48 695.9,-168.94 733,-155 748.8,-149.06 764.48,-138.83 776.98,-129.33"/>
<polygon fill="black" stroke="black" points="779.4,-131.87 785.09,-122.93 775.07,-126.38 779.4,-131.87"/>
</g>
<!-- Errors::not_published&#45;&gt;Errors::make -->
<g id="edge19" class="edge">
<title>Errors::not_published&#45;&gt;Errors::make</title>
<path fill="none" stroke="black" d="M111.28,-91.23C122.29,-87.25 134.55,-83.14 146,-80 212.3,-61.81 291.25,-48.09 337.57,-40.82"/>
<polygon fill="black" stroke="black" points="338.15,-44.28 347.5,-39.29 337.08,-37.36 338.15,-44.28"/>
</g>
<!-- Errors::invalid_state -->
<g id="node18" class="node">
<title>Errors::invalid_state</title>
<ellipse fill="none" stroke="black" cx="508" cy="-106" rx="55.79" ry="18"/>
<text text-anchor="middle" x="508" y="-102.3" font-family="Times,serif" font-size="14.00">invalid_state</text>
</g>
<!-- DiemTimestamp::assert_operating&#45;&gt;Errors::invalid_state -->
<g id="edge20" class="edge">
<title>DiemTimestamp::assert_operating&#45;&gt;Errors::invalid_state</title>
<path fill="none" stroke="black" d="M917.1,-177.78C886.65,-172.43 847.83,-166.32 813,-163 786.33,-160.46 597.27,-163.89 572,-155 557.13,-149.77 542.87,-139.75 531.6,-130.21"/>
<polygon fill="black" stroke="black" points="533.76,-127.44 523.96,-123.42 529.11,-132.68 533.76,-127.44"/>
</g>
<!-- DiemTimestamp::is_operating -->
<g id="node19" class="node">
<title>DiemTimestamp::is_operating</title>
<ellipse fill="none" stroke="black" cx="1045" cy="-106" rx="53.89" ry="18"/>
<text text-anchor="middle" x="1045" y="-102.3" font-family="Times,serif" font-size="14.00">is_operating</text>
</g>
<!-- DiemTimestamp::assert_operating&#45;&gt;DiemTimestamp::is_operating -->
<g id="edge21" class="edge">
<title>DiemTimestamp::assert_operating&#45;&gt;DiemTimestamp::is_operating</title>
<path fill="none" stroke="black" d="M986.33,-171.22C996.92,-159.63 1011.16,-144.04 1022.96,-131.12"/>
<polygon fill="black" stroke="black" points="1025.78,-133.23 1029.94,-123.48 1020.61,-128.51 1025.78,-133.23"/>
</g>
<!-- Roles::assert_diem_root&#45;&gt;Errors::not_published -->
<g id="edge23" class="edge">
<title>Roles::assert_diem_root&#45;&gt;Errors::not_published</title>
<path fill="none" stroke="black" d="M616.83,-254.01C605.16,-228.81 579.41,-182.41 541,-163 501.82,-143.2 187.8,-168.42 146,-155 129.81,-149.8 114,-139.54 101.51,-129.83"/>
<polygon fill="black" stroke="black" points="103.4,-126.86 93.43,-123.27 98.98,-132.29 103.4,-126.86"/>
</g>
<!-- Roles::assert_diem_root&#45;&gt;Signer::address_of -->
<g id="edge22" class="edge">
<title>Roles::assert_diem_root&#45;&gt;Signer::address_of</title>
<path fill="none" stroke="black" d="M685.33,-262.69C703.48,-257.84 722.39,-250.16 737,-238 769.57,-210.89 787.68,-163.69 796.37,-133.96"/>
<polygon fill="black" stroke="black" points="799.77,-134.8 799.06,-124.23 793.02,-132.94 799.77,-134.8"/>
</g>
<!-- Errors::requires_role -->
<g id="node20" class="node">
<title>Errors::requires_role</title>
<ellipse fill="none" stroke="black" cx="377" cy="-106" rx="57.39" ry="18"/>
<text text-anchor="middle" x="377" y="-102.3" font-family="Times,serif" font-size="14.00">requires_role</text>
</g>
<!-- Roles::assert_diem_root&#45;&gt;Errors::requires_role -->
<g id="edge24" class="edge">
<title>Roles::assert_diem_root&#45;&gt;Errors::requires_role</title>
<path fill="none" stroke="black" d="M625.2,-253.93C625.88,-229.49 623.01,-185.05 596,-163 582.81,-152.23 459.05,-160.69 443,-155 427.85,-149.63 413.16,-139.59 401.51,-130.08"/>
<polygon fill="black" stroke="black" points="403.47,-127.15 393.59,-123.32 398.92,-132.47 403.47,-127.15"/>
</g>
<!-- CoreAddresses::assert_diem_root -->
<g id="node21" class="node">
<title>CoreAddresses::assert_diem_root</title>
<ellipse fill="none" stroke="black" cx="1268" cy="-189" rx="71.49" ry="18"/>
<text text-anchor="middle" x="1268" y="-185.3" font-family="Times,serif" font-size="14.00">assert_diem_root</text>
</g>
<!-- Roles::assert_diem_root&#45;&gt;CoreAddresses::assert_diem_root -->
<g id="edge25" class="edge">
<title>Roles::assert_diem_root&#45;&gt;CoreAddresses::assert_diem_root</title>
<path fill="none" stroke="black" d="M687.84,-263.83C741.87,-258.04 821.41,-250.2 891,-246 923.62,-244.03 1153.56,-246.9 1185,-238 1204.01,-232.62 1223.24,-221.91 1238.39,-211.97"/>
<polygon fill="black" stroke="black" points="1240.51,-214.76 1246.81,-206.25 1236.57,-208.97 1240.51,-214.76"/>
</g>
<!-- Vector::length -->
<g id="node22" class="node">
<title>Vector::length</title>
<ellipse fill="none" stroke="black" cx="2418" cy="-189" rx="32.49" ry="18"/>
<text text-anchor="middle" x="2418" y="-185.3" font-family="Times,serif" font-size="14.00">length</text>
</g>
<!-- Vector::swap_remove&#45;&gt;Vector::length -->
<g id="edge26" class="edge">
<title>Vector::swap_remove&#45;&gt;Vector::length</title>
<path fill="none" stroke="black" d="M2508.95,-257.63C2486.43,-249.19 2461.27,-239.6 2459,-238 2449.87,-231.55 2441.51,-222.62 2434.75,-214.21"/>
<polygon fill="black" stroke="black" points="2437.4,-211.92 2428.56,-206.08 2431.83,-216.16 2437.4,-211.92"/>
</g>
<!-- Vector::pop_back -->
<g id="node23" class="node">
<title>Vector::pop_back</title>
<ellipse fill="none" stroke="black" cx="2588" cy="-189" rx="44.69" ry="18"/>
<text text-anchor="middle" x="2588" y="-185.3" font-family="Times,serif" font-size="14.00">pop_back</text>
</g>
<!-- Vector::swap_remove&#45;&gt;Vector::pop_back -->
<g id="edge27" class="edge">
<title>Vector::swap_remove&#45;&gt;Vector::pop_back</title>
<path fill="none" stroke="black" d="M2554.12,-253.82C2559.97,-242.79 2567.69,-228.27 2574.27,-215.86"/>
<polygon fill="black" stroke="black" points="2577.44,-217.35 2579.04,-206.88 2571.26,-214.07 2577.44,-217.35"/>
</g>
<!-- Vector::swap -->
<g id="node24" class="node">
<title>Vector::swap</title>
<ellipse fill="none" stroke="black" cx="2497" cy="-189" rx="28.7" ry="18"/>
<text text-anchor="middle" x="2497" y="-185.3" font-family="Times,serif" font-size="14.00">swap</text>
</g>
<!-- Vector::swap_remove&#45;&gt;Vector::swap -->
<g id="edge28" class="edge">
<title>Vector::swap_remove&#45;&gt;Vector::swap</title>
<path fill="none" stroke="black" d="M2535.05,-254.22C2528.34,-242.88 2519.35,-227.72 2511.8,-214.97"/>
<polygon fill="black" stroke="black" points="2514.71,-213.03 2506.61,-206.21 2508.69,-216.6 2514.71,-213.03"/>
</g>
<!-- Option::borrow&#45;&gt;Errors::invalid_argument -->
<g id="edge29" class="edge">
<title>Option::borrow&#45;&gt;Errors::invalid_argument</title>
<path fill="none" stroke="black" d="M2308.27,-414.39C2302.35,-412.25 2296.04,-410.29 2290,-409 1960.15,-338.83 1063.52,-495.6 775,-321 741.74,-300.87 761.15,-269.26 730,-246 718.6,-237.49 710.82,-245.93 699,-238 664.46,-214.82 679.96,-182.09 643,-163 610.22,-146.07 346.52,-164.99 311,-155 291.98,-149.65 272.75,-138.94 257.6,-128.99"/>
<polygon fill="black" stroke="black" points="259.42,-126 249.18,-123.27 255.48,-131.79 259.42,-126"/>
</g>
<!-- Option::borrow&#45;&gt;Option::is_some -->
<g id="edge31" class="edge">
<title>Option::borrow&#45;&gt;Option::is_some</title>
<path fill="none" stroke="black" d="M2351.06,-410.81C2361,-401.4 2373.96,-389.14 2385.1,-378.61"/>
<polygon fill="black" stroke="black" points="2387.6,-381.06 2392.46,-371.64 2382.79,-375.97 2387.6,-381.06"/>
</g>
<!-- Vector::borrow -->
<g id="node25" class="node">
<title>Vector::borrow</title>
<ellipse fill="none" stroke="black" cx="2223" cy="-272" rx="36.29" ry="18"/>
<text text-anchor="middle" x="2223" y="-268.3" font-family="Times,serif" font-size="14.00">borrow</text>
</g>
<!-- Option::borrow&#45;&gt;Vector::borrow -->
<g id="edge30" class="edge">
<title>Option::borrow&#45;&gt;Vector::borrow</title>
<path fill="none" stroke="black" d="M2323.23,-409.92C2303.62,-383.13 2264.14,-329.2 2241.01,-297.61"/>
<polygon fill="black" stroke="black" points="2243.68,-295.33 2234.95,-289.33 2238.04,-299.47 2243.68,-295.33"/>
</g>
<!-- Vector::is_empty -->
<g id="node26" class="node">
<title>Vector::is_empty</title>
<ellipse fill="none" stroke="black" cx="2424" cy="-272" rx="43.59" ry="18"/>
<text text-anchor="middle" x="2424" y="-268.3" font-family="Times,serif" font-size="14.00">is_empty</text>
</g>
<!-- Option::is_some&#45;&gt;Vector::is_empty -->
<g id="edge32" class="edge">
<title>Option::is_some&#45;&gt;Vector::is_empty</title>
<path fill="none" stroke="black" d="M2412.18,-336.82C2414.15,-326.19 2416.72,-312.31 2418.96,-300.2"/>
<polygon fill="black" stroke="black" points="2422.44,-300.62 2420.82,-290.15 2415.56,-299.35 2422.44,-300.62"/>
</g>
<!-- DiemConfig::get -->
<g id="node27" class="node">
<title>DiemConfig::get</title>
<ellipse fill="none" stroke="black" cx="2030" cy="-427" rx="27" ry="18"/>
<text text-anchor="middle" x="2030" y="-423.3" font-family="Times,serif" font-size="14.00">get</text>
</g>
<!-- DiemSystem::get_diem_system_config&#45;&gt;DiemConfig::get -->
<g id="edge33" class="edge">
<title>DiemSystem::get_diem_system_config&#45;&gt;DiemConfig::get</title>
<path fill="none" stroke="black" d="M2006.36,-491.82C2010.39,-480.94 2015.69,-466.64 2020.24,-454.34"/>
<polygon fill="black" stroke="black" points="2023.66,-455.19 2023.85,-444.6 2017.1,-452.76 2023.66,-455.19"/>
</g>
<!-- DiemSystem::get_validator_index_&#45;&gt;Vector::length -->
<g id="edge35" class="edge">
<title>DiemSystem::get_validator_index_&#45;&gt;Vector::length</title>
<path fill="none" stroke="black" d="M2193.72,-491.99C2169.72,-445.42 2111.92,-314.81 2178,-246 2193.25,-230.12 2356.14,-247.5 2376,-238 2386.6,-232.93 2395.63,-223.82 2402.56,-214.89"/>
<polygon fill="black" stroke="black" points="2405.58,-216.68 2408.56,-206.51 2399.89,-212.61 2405.58,-216.68"/>
</g>
<!-- DiemSystem::get_validator_index_&#45;&gt;Vector::borrow -->
<g id="edge34" class="edge">
<title>DiemSystem::get_validator_index_&#45;&gt;Vector::borrow</title>
<path fill="none" stroke="black" d="M2203.26,-491.82C2203.91,-459.72 2206.06,-388.53 2213,-329 2214.1,-319.55 2215.79,-309.29 2217.47,-300.16"/>
<polygon fill="black" stroke="black" points="2220.95,-300.56 2219.4,-290.08 2214.08,-299.24 2220.95,-300.56"/>
</g>
<!-- Option::none -->
<g id="node28" class="node">
<title>Option::none</title>
<ellipse fill="none" stroke="black" cx="2253" cy="-427" rx="27.9" ry="18"/>
<text text-anchor="middle" x="2253" y="-423.3" font-family="Times,serif" font-size="14.00">none</text>
</g>
<!-- DiemSystem::get_validator_index_&#45;&gt;Option::none -->
<g id="edge36" class="edge">
<title>DiemSystem::get_validator_index_&#45;&gt;Option::none</title>
<path fill="none" stroke="black" d="M2213.6,-491.82C2220.62,-480.46 2229.92,-465.39 2237.73,-452.74"/>
<polygon fill="black" stroke="black" points="2240.82,-454.4 2243.09,-444.05 2234.86,-450.72 2240.82,-454.4"/>
</g>
<!-- Option::some -->
<g id="node29" class="node">
<title>Option::some</title>
<ellipse fill="none" stroke="black" cx="2419" cy="-427" rx="29.8" ry="18"/>
<text text-anchor="middle" x="2419" y="-423.3" font-family="Times,serif" font-size="14.00">some</text>
</g>
<!-- DiemSystem::get_validator_index_&#45;&gt;Option::some -->
<g id="edge37" class="edge">
<title>DiemSystem::get_validator_index_&#45;&gt;Option::some</title>
<path fill="none" stroke="black" d="M2285.65,-505.61C2316.94,-501.34 2351.79,-492.77 2380,-476 2389.55,-470.32 2397.76,-461.39 2404.14,-452.76"/>
<polygon fill="black" stroke="black" points="2407.13,-454.59 2409.9,-444.37 2401.35,-450.63 2407.13,-454.59"/>
</g>
<!-- DiemSystem::set_diem_system_config&#45;&gt;Errors::not_published -->
<g id="edge38" class="edge">
<title>DiemSystem::set_diem_system_config&#45;&gt;Errors::not_published</title>
<path fill="none" stroke="black" d="M1685.77,-507.88C1547.1,-505.52 1286.15,-498.26 1065,-476 769.61,-446.26 689.78,-456.9 405,-373 350.42,-356.92 333.61,-355.03 288,-321 213.97,-265.77 220.82,-225.71 153,-163 139.43,-150.45 123.03,-138.19 108.86,-128.35"/>
<polygon fill="black" stroke="black" points="110.6,-125.3 100.36,-122.55 106.65,-131.08 110.6,-125.3"/>
</g>
<!-- DiemSystem::set_diem_system_config&#45;&gt;DiemTimestamp::assert_operating -->
<g id="edge40" class="edge">
<title>DiemSystem::set_diem_system_config&#45;&gt;DiemTimestamp::assert_operating</title>
<path fill="none" stroke="black" d="M1691.09,-503.69C1483.78,-489.7 993.77,-444.05 894,-321 873.01,-295.11 878.87,-275.7 894,-246 901.57,-231.14 915.13,-219.29 928.79,-210.39"/>
<polygon fill="black" stroke="black" points="930.99,-213.15 937.72,-204.97 927.35,-207.17 930.99,-213.15"/>
</g>
<!-- CoreAddresses::DIEM_ROOT_ADDRESS -->
<g id="node30" class="node">
<title>CoreAddresses::DIEM_ROOT_ADDRESS</title>
<ellipse fill="none" stroke="black" cx="1304" cy="-106" rx="106.68" ry="18"/>
<text text-anchor="middle" x="1304" y="-102.3" font-family="Times,serif" font-size="14.00">DIEM_ROOT_ADDRESS</text>
</g>
<!-- DiemSystem::set_diem_system_config&#45;&gt;CoreAddresses::DIEM_ROOT_ADDRESS -->
<g id="edge39" class="edge">
<title>DiemSystem::set_diem_system_config&#45;&gt;CoreAddresses::DIEM_ROOT_ADDRESS</title>
<path fill="none" stroke="black" d="M1836.93,-494.72C1854.34,-490.57 1873.89,-486.48 1892,-484 1901.75,-482.66 2062.2,-483.12 2069,-476 2139.63,-402.1 2128.03,-329.45 2069,-246 1995.44,-142.01 1614.61,-115.8 1419.51,-109.21"/>
<polygon fill="black" stroke="black" points="1419.61,-105.71 1409.5,-108.88 1419.38,-112.71 1419.61,-105.71"/>
</g>
<!-- DiemConfig::set_with_capability_and_reconfigure -->
<g id="node31" class="node">
<title>DiemConfig::set_with_capability_and_reconfigure</title>
<ellipse fill="none" stroke="black" cx="1844" cy="-427" rx="141.07" ry="18"/>
<text text-anchor="middle" x="1844" y="-423.3" font-family="Times,serif" font-size="14.00">set_with_capability_and_reconfigure</text>
</g>
<!-- DiemSystem::set_diem_system_config&#45;&gt;DiemConfig::set_with_capability_and_reconfigure -->
<g id="edge41" class="edge">
<title>DiemSystem::set_diem_system_config&#45;&gt;DiemConfig::set_with_capability_and_reconfigure</title>
<path fill="none" stroke="black" d="M1796.72,-491.82C1805,-480.65 1815.93,-465.9 1825.2,-453.38"/>
<polygon fill="black" stroke="black" points="1828.15,-455.27 1831.29,-445.15 1822.53,-451.11 1828.15,-455.27"/>
</g>
<!-- Signer::borrow_address -->
<g id="node32" class="node">
<title>Signer::borrow_address</title>
<ellipse fill="none" stroke="black" cx="812" cy="-34" rx="66.89" ry="18"/>
<text text-anchor="middle" x="812" y="-30.3" font-family="Times,serif" font-size="14.00">borrow_address</text>
</g>
<!-- Signer::address_of&#45;&gt;Signer::borrow_address -->
<g id="edge42" class="edge">
<title>Signer::address_of&#45;&gt;Signer::borrow_address</title>
<path fill="none" stroke="black" d="M805.22,-87.7C806.22,-79.98 807.41,-70.71 808.51,-62.11"/>
<polygon fill="black" stroke="black" points="812,-62.47 809.8,-52.1 805.05,-61.58 812,-62.47"/>
</g>
<!-- Errors::invalid_state&#45;&gt;Errors::make -->
<g id="edge43" class="edge">
<title>Errors::invalid_state&#45;&gt;Errors::make</title>
<path fill="none" stroke="black" d="M480.22,-90.15C459.06,-78.85 429.93,-63.28 408.01,-51.57"/>
<polygon fill="black" stroke="black" points="409.57,-48.44 399.1,-46.81 406.27,-54.61 409.57,-48.44"/>
</g>
<!-- DiemTimestamp::is_operating&#45;&gt;CoreAddresses::DIEM_ROOT_ADDRESS -->
<g id="edge44" class="edge">
<title>DiemTimestamp::is_operating&#45;&gt;CoreAddresses::DIEM_ROOT_ADDRESS</title>
<path fill="none" stroke="black" d="M1099.13,-106C1128.36,-106 1157.59,-106 1186.82,-106"/>
<polygon fill="black" stroke="black" points="1187.16,-109.5 1197.16,-106 1187.16,-102.5 1187.16,-109.5"/>
</g>
<!-- Errors::requires_role&#45;&gt;Errors::make -->
<g id="edge45" class="edge">
<title>Errors::requires_role&#45;&gt;Errors::make</title>
<path fill="none" stroke="black" d="M377,-87.7C377,-79.98 377,-70.71 377,-62.11"/>
<polygon fill="black" stroke="black" points="380.5,-62.1 377,-52.1 373.5,-62.1 380.5,-62.1"/>
</g>
<!-- CoreAddresses::assert_diem_root&#45;&gt;Signer::address_of -->
<g id="edge46" class="edge">
<title>CoreAddresses::assert_diem_root&#45;&gt;Signer::address_of</title>
<path fill="none" stroke="black" d="M1228.82,-173.87C1215.14,-169.56 1199.56,-165.35 1185,-163 1120.48,-152.59 954.11,-172.01 891,-155 870.3,-149.42 849.15,-138.1 832.77,-127.85"/>
<polygon fill="black" stroke="black" points="834.49,-124.79 824.19,-122.31 830.69,-130.67 834.49,-124.79"/>
</g>
<!-- CoreAddresses::assert_diem_root&#45;&gt;CoreAddresses::DIEM_ROOT_ADDRESS -->
<g id="edge48" class="edge">
<title>CoreAddresses::assert_diem_root&#45;&gt;CoreAddresses::DIEM_ROOT_ADDRESS</title>
<path fill="none" stroke="black" d="M1275.63,-170.82C1280.46,-159.98 1286.78,-145.74 1292.23,-133.47"/>
<polygon fill="black" stroke="black" points="1295.51,-134.71 1296.38,-124.15 1289.12,-131.87 1295.51,-134.71"/>
</g>
<!-- Errors::requires_address -->
<g id="node33" class="node">
<title>Errors::requires_address</title>
<ellipse fill="none" stroke="black" cx="651" cy="-106" rx="69.59" ry="18"/>
<text text-anchor="middle" x="651" y="-102.3" font-family="Times,serif" font-size="14.00">requires_address</text>
</g>
<!-- CoreAddresses::assert_diem_root&#45;&gt;Errors::requires_address -->
<g id="edge47" class="edge">
<title>CoreAddresses::assert_diem_root&#45;&gt;Errors::requires_address</title>
<path fill="none" stroke="black" d="M1228.83,-173.79C1215.15,-169.48 1199.57,-165.28 1185,-163 1135.37,-155.24 781.36,-168.57 733,-155 714.15,-149.71 695.15,-139 680.19,-129.04"/>
<polygon fill="black" stroke="black" points="682.1,-126.11 671.88,-123.31 678.13,-131.87 682.1,-126.11"/>
</g>
<!-- Vector::is_empty&#45;&gt;Vector::length -->
<g id="edge49" class="edge">
<title>Vector::is_empty&#45;&gt;Vector::length</title>
<path fill="none" stroke="black" d="M2422.73,-253.82C2421.94,-243.19 2420.91,-229.31 2420.02,-217.2"/>
<polygon fill="black" stroke="black" points="2423.5,-216.87 2419.27,-207.15 2416.52,-217.38 2423.5,-216.87"/>
</g>
<!-- DiemConfig::get&#45;&gt;Errors::not_published -->
<g id="edge50" class="edge">
<title>DiemConfig::get&#45;&gt;Errors::not_published</title>
<path fill="none" stroke="black" d="M2009.97,-414.77C2004.91,-412.43 1999.38,-410.29 1994,-409 1724.39,-344.44 1023.37,-394.71 747,-373 594.22,-361 557.19,-347.01 405,-329 388.57,-327.06 344.56,-330.47 331,-321 266.81,-276.14 317.92,-206.79 253,-163 233.23,-149.67 168.5,-162.9 146,-155 130.19,-149.44 114.6,-139.35 102.17,-129.84"/>
<polygon fill="black" stroke="black" points="104.11,-126.91 94.1,-123.42 99.75,-132.39 104.11,-126.91"/>
</g>
<!-- DiemConfig::get&#45;&gt;CoreAddresses::DIEM_ROOT_ADDRESS -->
<g id="edge51" class="edge">
<title>DiemConfig::get&#45;&gt;CoreAddresses::DIEM_ROOT_ADDRESS</title>
<path fill="none" stroke="black" d="M2021.99,-409.64C2004.61,-375.48 1960.4,-295.66 1904,-246 1844.46,-193.58 1821.66,-186.81 1746,-163 1638.08,-129.04 1509.19,-115.61 1418.53,-110.33"/>
<polygon fill="black" stroke="black" points="1418.67,-106.83 1408.49,-109.77 1418.28,-113.82 1418.67,-106.83"/>
</g>
<!-- Vector::empty -->
<g id="node34" class="node">
<title>Vector::empty</title>
<ellipse fill="none" stroke="black" cx="2220" cy="-189" rx="33.29" ry="18"/>
<text text-anchor="middle" x="2220" y="-185.3" font-family="Times,serif" font-size="14.00">empty</text>
</g>
<!-- Option::none&#45;&gt;Vector::empty -->
<g id="edge52" class="edge">
<title>Option::none&#45;&gt;Vector::empty</title>
<path fill="none" stroke="black" d="M2238.19,-411.68C2219.92,-392.88 2189.83,-357.91 2178,-321 2167.83,-289.26 2167.46,-277.62 2178,-246 2182.04,-233.87 2189.85,-222.26 2197.65,-212.78"/>
<polygon fill="black" stroke="black" points="2200.47,-214.88 2204.41,-205.04 2195.2,-210.27 2200.47,-214.88"/>
</g>
<!-- Vector::singleton -->
<g id="node35" class="node">
<title>Vector::singleton</title>
<ellipse fill="none" stroke="black" cx="2320" cy="-272" rx="42.79" ry="18"/>
<text text-anchor="middle" x="2320" y="-268.3" font-family="Times,serif" font-size="14.00">singleton</text>
</g>
<!-- Option::some&#45;&gt;Vector::singleton -->
<g id="edge53" class="edge">
<title>Option::some&#45;&gt;Vector::singleton</title>
<path fill="none" stroke="black" d="M2400.16,-412.74C2387.41,-402.97 2370.96,-388.69 2360,-373 2344.27,-350.47 2333.41,-320.86 2327.03,-299.71"/>
<polygon fill="black" stroke="black" points="2330.38,-298.72 2324.25,-290.08 2323.66,-300.66 2330.38,-298.72"/>
</g>
<!-- DiemConfig::set_with_capability_and_reconfigure&#45;&gt;Errors::not_published -->
<g id="edge54" class="edge">
<title>DiemConfig::set_with_capability_and_reconfigure&#45;&gt;Errors::not_published</title>
<path fill="none" stroke="black" d="M1705.53,-423.49C1418.96,-417.73 784.33,-401.79 747,-373 700.14,-336.86 750.61,-286 707,-246 694.92,-234.92 685.56,-245.52 671,-238 626.83,-215.19 634.24,-181.28 588,-163 542.32,-144.94 192.78,-169.96 146,-155 129.81,-149.82 113.99,-139.56 101.5,-129.85"/>
<polygon fill="black" stroke="black" points="103.39,-126.88 93.42,-123.29 98.98,-132.31 103.39,-126.88"/>
</g>
<!-- DiemConfig::set_with_capability_and_reconfigure&#45;&gt;CoreAddresses::DIEM_ROOT_ADDRESS -->
<g id="edge55" class="edge">
<title>DiemConfig::set_with_capability_and_reconfigure&#45;&gt;CoreAddresses::DIEM_ROOT_ADDRESS</title>
<path fill="none" stroke="black" d="M1719.57,-418.44C1639.56,-407.56 1538.04,-381.72 1469,-321 1411.72,-270.63 1452.66,-220.02 1402,-163 1388.82,-148.17 1370.74,-136.31 1353.69,-127.39"/>
<polygon fill="black" stroke="black" points="1354.88,-124.07 1344.36,-122.74 1351.75,-130.33 1354.88,-124.07"/>
</g>
<!-- DiemConfig::reconfigure_ -->
<g id="node36" class="node">
<title>DiemConfig::reconfigure_</title>
<ellipse fill="none" stroke="black" cx="1758" cy="-355" rx="55.49" ry="18"/>
<text text-anchor="middle" x="1758" y="-351.3" font-family="Times,serif" font-size="14.00">reconfigure_</text>
</g>
<!-- DiemConfig::set_with_capability_and_reconfigure&#45;&gt;DiemConfig::reconfigure_ -->
<g id="edge56" class="edge">
<title>DiemConfig::set_with_capability_and_reconfigure&#45;&gt;DiemConfig::reconfigure_</title>
<path fill="none" stroke="black" d="M1823.18,-409.05C1811.95,-399.92 1797.95,-388.51 1785.8,-378.63"/>
<polygon fill="black" stroke="black" points="1787.71,-375.67 1777.74,-372.07 1783.29,-381.09 1787.71,-375.67"/>
</g>
<!-- Errors::requires_address&#45;&gt;Errors::make -->
<g id="edge57" class="edge">
<title>Errors::requires_address&#45;&gt;Errors::make</title>
<path fill="none" stroke="black" d="M610.31,-91.24C598.35,-87.39 585.2,-83.35 573,-80 518.65,-65.08 454.9,-51.08 415.22,-42.77"/>
<polygon fill="black" stroke="black" points="415.93,-39.35 405.43,-40.74 414.5,-46.2 415.93,-39.35"/>
</g>
<!-- Vector::singleton&#45;&gt;Vector::empty -->
<g id="edge58" class="edge">
<title>Vector::singleton&#45;&gt;Vector::empty</title>
<path fill="none" stroke="black" d="M2292.81,-257.97C2282.66,-252.49 2271.33,-245.62 2262,-238 2253.38,-230.96 2245.05,-222.05 2238.12,-213.83"/>
<polygon fill="black" stroke="black" points="2240.72,-211.47 2231.69,-205.92 2235.29,-215.89 2240.72,-211.47"/>
</g>
<!-- Vector::push_back -->
<g id="node37" class="node">
<title>Vector::push_back</title>
<ellipse fill="none" stroke="black" cx="2319" cy="-189" rx="48.19" ry="18"/>
<text text-anchor="middle" x="2319" y="-185.3" font-family="Times,serif" font-size="14.00">push_back</text>
</g>
<!-- Vector::singleton&#45;&gt;Vector::push_back -->
<g id="edge59" class="edge">
<title>Vector::singleton&#45;&gt;Vector::push_back</title>
<path fill="none" stroke="black" d="M2319.79,-253.82C2319.66,-243.19 2319.49,-229.31 2319.34,-217.2"/>
<polygon fill="black" stroke="black" points="2322.84,-217.11 2319.21,-207.15 2315.84,-217.2 2322.84,-217.11"/>
</g>
<!-- DiemConfig::reconfigure_&#45;&gt;Errors::invalid_state -->
<g id="edge60" class="edge">
<title>DiemConfig::reconfigure_&#45;&gt;Errors::invalid_state</title>
<path fill="none" stroke="black" d="M1702.79,-353.6C1524.01,-352.05 967.98,-345.32 891,-321 832.46,-302.51 827.71,-277.47 775,-246 709.25,-206.74 696.51,-187.64 624,-163 601.86,-155.48 593.55,-164.06 572,-155 557.68,-148.98 543.66,-139.06 532.4,-129.79"/>
<polygon fill="black" stroke="black" points="534.61,-127.07 524.73,-123.22 530.05,-132.39 534.61,-127.07"/>
</g>
<!-- DiemConfig::reconfigure_&#45;&gt;CoreAddresses::DIEM_ROOT_ADDRESS -->
<g id="edge61" class="edge">
<title>DiemConfig::reconfigure_&#45;&gt;CoreAddresses::DIEM_ROOT_ADDRESS</title>
<path fill="none" stroke="black" d="M1702.81,-354.1C1635.38,-353.05 1526.59,-347.18 1497,-321 1442.75,-273 1505.52,-216.79 1457,-163 1439.02,-143.07 1413.36,-130.22 1388.17,-121.94"/>
<polygon fill="black" stroke="black" points="1389.14,-118.58 1378.56,-118.99 1387.09,-125.27 1389.14,-118.58"/>
</g>
<!-- DiemTimestamp::is_genesis -->
<g id="node38" class="node">
<title>DiemTimestamp::is_genesis</title>
<ellipse fill="none" stroke="black" cx="1126" cy="-272" rx="46.59" ry="18"/>
<text text-anchor="middle" x="1126" y="-268.3" font-family="Times,serif" font-size="14.00">is_genesis</text>
</g>
<!-- DiemConfig::reconfigure_&#45;&gt;DiemTimestamp::is_genesis -->
<g id="edge62" class="edge">
<title>DiemConfig::reconfigure_&#45;&gt;DiemTimestamp::is_genesis</title>
<path fill="none" stroke="black" d="M1706.17,-348.55C1647.94,-342.32 1550.6,-331.62 1467,-321 1364.96,-308.04 1246.06,-290.82 1179.05,-280.92"/>
<polygon fill="black" stroke="black" points="1179.15,-277.4 1168.75,-279.39 1178.13,-284.32 1179.15,-277.4"/>
</g>
<!-- DiemTimestamp::now_microseconds -->
<g id="node39" class="node">
<title>DiemTimestamp::now_microseconds</title>
<ellipse fill="none" stroke="black" cx="982" cy="-272" rx="79.09" ry="18"/>
<text text-anchor="middle" x="982" y="-268.3" font-family="Times,serif" font-size="14.00">now_microseconds</text>
</g>
<!-- DiemConfig::reconfigure_&#45;&gt;DiemTimestamp::now_microseconds -->
<g id="edge63" class="edge">
<title>DiemConfig::reconfigure_&#45;&gt;DiemTimestamp::now_microseconds</title>
<path fill="none" stroke="black" d="M1702.57,-354.53C1560.91,-355.37 1188.44,-354.24 1070,-321 1050.07,-315.41 1029.66,-304.64 1013.51,-294.73"/>
<polygon fill="black" stroke="black" points="1015.34,-291.74 1005.02,-289.34 1011.59,-297.65 1015.34,-291.74"/>
</g>
<!-- Event::emit_event -->
<g id="node40" class="node">
<title>Event::emit_event</title>
<ellipse fill="none" stroke="black" cx="1611" cy="-272" rx="50.09" ry="18"/>
<text text-anchor="middle" x="1611" y="-268.3" font-family="Times,serif" font-size="14.00">emit_event</text>
</g>
<!-- DiemConfig::reconfigure_&#45;&gt;Event::emit_event -->
<g id="edge64" class="edge">
<title>DiemConfig::reconfigure_&#45;&gt;Event::emit_event</title>
<path fill="none" stroke="black" d="M1727.71,-339.74C1716.12,-334.11 1702.84,-327.45 1691,-321 1675.1,-312.33 1657.83,-302.08 1643.42,-293.28"/>
<polygon fill="black" stroke="black" points="1645.21,-290.27 1634.85,-288.02 1641.54,-296.24 1645.21,-290.27"/>
</g>
<!-- DiemConfig::reconfiguration_enabled -->
<g id="node41" class="node">
<title>DiemConfig::reconfiguration_enabled</title>
<ellipse fill="none" stroke="black" cx="1799" cy="-272" rx="96.38" ry="18"/>
<text text-anchor="middle" x="1799" y="-268.3" font-family="Times,serif" font-size="14.00">reconfiguration_enabled</text>
</g>
<!-- DiemConfig::reconfigure_&#45;&gt;DiemConfig::reconfiguration_enabled -->
<g id="edge65" class="edge">
<title>DiemConfig::reconfigure_&#45;&gt;DiemConfig::reconfiguration_enabled</title>
<path fill="none" stroke="black" d="M1766.7,-336.82C1772.24,-325.87 1779.53,-311.46 1785.78,-299.11"/>
<polygon fill="black" stroke="black" points="1788.92,-300.66 1790.32,-290.15 1782.68,-297.49 1788.92,-300.66"/>
</g>
<!-- DiemTimestamp::is_genesis&#45;&gt;CoreAddresses::DIEM_ROOT_ADDRESS -->
<g id="edge66" class="edge">
<title>DiemTimestamp::is_genesis&#45;&gt;CoreAddresses::DIEM_ROOT_ADDRESS</title>
<path fill="none" stroke="black" d="M1173.07,-271.98C1239.18,-272.23 1354.48,-268.18 1381,-238 1403.01,-212.96 1396.13,-192.7 1381,-163 1373.74,-148.74 1360.96,-137.26 1347.88,-128.49"/>
<polygon fill="black" stroke="black" points="1349.62,-125.46 1339.29,-123.12 1345.91,-131.39 1349.62,-125.46"/>
</g>
<!-- DiemTimestamp::now_microseconds&#45;&gt;DiemTimestamp::assert_operating -->
<g id="edge68" class="edge">
<title>DiemTimestamp::now_microseconds&#45;&gt;DiemTimestamp::assert_operating</title>
<path fill="none" stroke="black" d="M979.67,-253.82C978.22,-243.19 976.34,-229.31 974.69,-217.2"/>
<polygon fill="black" stroke="black" points="978.14,-216.59 973.33,-207.15 971.21,-217.53 978.14,-216.59"/>
</g>
<!-- DiemTimestamp::now_microseconds&#45;&gt;CoreAddresses::DIEM_ROOT_ADDRESS -->
<g id="edge67" class="edge">
<title>DiemTimestamp::now_microseconds&#45;&gt;CoreAddresses::DIEM_ROOT_ADDRESS</title>
<path fill="none" stroke="black" d="M1024.5,-256.63C1038.79,-252.42 1054.93,-248.32 1070,-246 1085.27,-243.65 1337.23,-249.08 1348,-238 1371.23,-214.09 1358.9,-194.5 1348,-163 1344,-151.43 1336.51,-140.44 1328.83,-131.3"/>
<polygon fill="black" stroke="black" points="1331.39,-128.91 1322.12,-123.78 1326.17,-133.57 1331.39,-128.91"/>
</g>
<!-- Event::write_to_event_store -->
<g id="node42" class="node">
<title>Event::write_to_event_store</title>
<ellipse fill="none" stroke="black" cx="1594" cy="-189" rx="85.29" ry="18"/>
<text text-anchor="middle" x="1594" y="-185.3" font-family="Times,serif" font-size="14.00">write_to_event_store</text>
</g>
<!-- Event::emit_event&#45;&gt;Event::write_to_event_store -->
<g id="edge69" class="edge">
<title>Event::emit_event&#45;&gt;Event::write_to_event_store</title>
<path fill="none" stroke="black" d="M1607.39,-253.82C1605.16,-243.19 1602.25,-229.31 1599.71,-217.2"/>
<polygon fill="black" stroke="black" points="1603.08,-216.22 1597.6,-207.15 1596.23,-217.66 1603.08,-216.22"/>
</g>
<!-- DiemConfig::reconfiguration_enabled&#45;&gt;CoreAddresses::DIEM_ROOT_ADDRESS -->
<g id="edge70" class="edge">
<title>DiemConfig::reconfiguration_enabled&#45;&gt;CoreAddresses::DIEM_ROOT_ADDRESS</title>
<path fill="none" stroke="black" d="M1787.38,-253.75C1769.73,-229.09 1733.67,-184.38 1691,-163 1643.15,-139.02 1507.44,-123.34 1410.25,-114.83"/>
<polygon fill="black" stroke="black" points="1410.34,-111.32 1400.08,-113.95 1409.74,-118.3 1410.34,-111.32"/>
</g>
</g>
</svg>
